<?xml version="1.0" encoding="utf-8"?>
<!-- Generator: Adobe Illustrator 22.0.0, SVG Export Plug-In . SVG Version: 6.00 Build 0)  -->
<svg version="1.1" id="Camada_1" xmlns="http://www.w3.org/2000/svg" xmlns:xlink="http://www.w3.org/1999/xlink" x="0px" y="0px"
	 width="64px" height="64px" viewBox="0 0 64 64" enable-background="new 0 0 64 64" xml:space="preserve">
<g>
	<g>
		<path d="M0,26.27c0-0.209,0-0.419,0-0.628c0.018-0.07,0.044-0.139,0.052-0.21c0.277-2.38,1.494-4.087,3.682-5.069
			c2.678-1.203,5.368-2.378,8.049-3.574c1.069-0.477,2.164-0.84,3.349-0.841c3.549-0.003,7.099-0.015,10.648,0.012
			c0.607,0.005,1.26,0.068,1.811,0.299c1.687,0.706,3.423,1.357,4.7,2.73c0.234-0.387,0.432-0.819,0.722-1.177
			c1.055-1.302,2.48-1.838,4.115-1.861c1.403-0.02,2.806-0.012,4.209,0.002c0.342,0.003,0.702,0.022,1.022,0.129
			c2.048,0.688,4.015,1.53,5.574,3.106c0.028-0.058,0.074-0.149,0.116-0.242c0.678-1.499,1.816-2.451,3.41-2.847
			c0.372-0.092,0.758-0.132,1.137-0.196c1.529,0,3.058,0,4.587,0c0.541,0.145,1.112,0.222,1.617,0.448
			c1.096,0.49,2.17,1.034,3.231,1.598c0.826,0.44,1.381,1.145,1.686,2.029c0.501,1.452,0.294,2.873-0.264,4.258
			c-2.478,6.155-4.966,12.306-7.453,18.457c-0.45,1.113-0.843,2.255-1.534,3.254c-0.966,1.396-2.275,2.142-3.999,2.132
			c-2.157-0.012-4.315,0.016-6.471-0.016c-0.565-0.008-1.166-0.079-1.686-0.285c-1.658-0.656-3.277-1.404-4.713-2.469
			c-0.205,0.302-0.405,0.634-0.641,0.939c-0.934,1.207-2.139,1.855-3.699,1.833c-1.864-0.027-3.728-0.016-5.592-0.002
			c-0.832,0.006-1.634-0.132-2.379-0.481c-1.609-0.754-3.295-1.38-4.623-2.65c-0.045,0.062-0.088,0.12-0.129,0.179
			c-1.777,2.579-5.086,3.607-7.974,2.577c-1.561-0.557-3.04-1.293-4.421-2.211c-2.343-1.557-3.379-3.765-3.103-6.55
			c0.113-1.141,0.381-2.268,0.584-3.4c0.166-0.924,0.34-1.847,0.511-2.774c-0.077-0.039-0.132-0.067-0.187-0.094
			c-0.861-0.427-1.738-0.826-2.581-1.286c-1.512-0.825-2.606-2.021-3.082-3.71C0.152,27.219,0.092,26.74,0,26.27z M21.051,17.953
			c0.083,0.106,0.153,0.182,0.208,0.267c0.352,0.543,0.759,1.059,1.039,1.637c0.694,1.43,0.723,2.963,0.464,4.489
			c-0.422,2.484-0.918,4.955-1.363,7.435c-0.151,0.84-0.392,1.665-0.336,2.541c0.086,1.347,0.118,2.698,0.182,4.047
			c0.053,1.118,0.075,2.241,0.19,3.353c0.18,1.74,1.275,2.841,2.921,2.883c2.061,0.053,4.125,0.024,6.188,0.015
			c0.612-0.003,1.131-0.265,1.568-0.694c0.566-0.556,0.904-1.253,1.198-1.97c1.176-2.872,2.34-5.749,3.508-8.624
			c0.25-0.614,0.499-1.228,0.749-1.842c0.064,0.07,0.069,0.127,0.072,0.184c0.11,2.573,0.215,5.146,0.332,7.719
			c0.042,0.909,0.06,1.824,0.184,2.723c0.209,1.504,1.242,2.468,2.76,2.503c2.281,0.052,4.564,0.023,6.847,0.004
			c0.763-0.006,1.425-0.338,1.858-0.96c0.397-0.57,0.757-1.184,1.018-1.826c2.715-6.668,5.407-13.345,8.104-20.02
			c0.233-0.578,0.366-1.177,0.343-1.805c-0.046-1.286-0.818-2.068-2.105-2.085c-1.413-0.018-2.827-0.014-4.241-0.001
			c-1.426,0.013-2.404,0.668-2.947,2.016c-1.69,4.197-3.404,8.384-5.109,12.575c-0.054,0.133-0.111,0.264-0.166,0.396
			c-0.067-0.108-0.075-0.19-0.079-0.273c-0.153-3.755-0.3-7.511-0.467-11.266c-0.024-0.528-0.102-1.065-0.239-1.576
			c-0.314-1.165-1.076-1.81-2.277-1.848c-1.516-0.048-3.036-0.032-4.554,0.003c-1.332,0.031-2.257,0.675-2.765,1.939
			c-1.59,3.955-3.202,7.902-4.806,11.852c-0.162,0.398-0.331,0.793-0.497,1.19c-0.18-3.197-0.302-6.377-0.435-9.556
			c-0.047-1.119-0.076-2.241-0.194-3.352c-0.143-1.341-0.824-2.008-2.17-2.059C24.392,17.905,22.748,17.953,21.051,17.953z
			 M8.798,29.16c-0.544,2.966-1.071,5.865-1.608,8.762c-0.167,0.898-0.324,1.789-0.157,2.708c0.414,2.275,2.438,3.977,4.774,3.999
			c2.407,0.022,4.452-1.608,4.902-3.91c0.15-0.77,0.293-1.541,0.437-2.311c0.915-4.881,1.825-9.764,2.748-14.644
			c0.412-2.177-0.476-4.192-2.409-5.273c-1.448-0.81-2.961-0.761-4.445-0.115c-2.864,1.248-5.715,2.528-8.565,3.808
			c-1.743,0.782-2.735,2.582-2.432,4.355c0.477,2.787,3.249,4.24,5.814,3.047C8.151,29.449,8.446,29.319,8.798,29.16z"/>
		<path fill="#FFFFFF" d="M21.051,17.953c1.697,0,3.341-0.048,4.981,0.015c1.346,0.051,2.027,0.719,2.17,2.059
			c0.119,1.112,0.148,2.234,0.194,3.352c0.133,3.179,0.255,6.359,0.435,9.556c0.166-0.397,0.335-0.792,0.497-1.19
			c1.604-3.95,3.216-7.897,4.806-11.852c0.508-1.264,1.432-1.909,2.765-1.939c1.517-0.035,3.037-0.051,4.554-0.003
			c1.202,0.038,1.963,0.683,2.277,1.848c0.138,0.51,0.216,1.047,0.239,1.576c0.168,3.755,0.314,7.51,0.467,11.266
			c0.003,0.083,0.011,0.165,0.079,0.273c0.055-0.132,0.112-0.264,0.166-0.396c1.705-4.191,3.419-8.378,5.109-12.575
			c0.543-1.348,1.521-2.004,2.947-2.016c1.414-0.013,2.827-0.017,4.241,0.001c1.287,0.017,2.059,0.798,2.105,2.085
			c0.023,0.628-0.11,1.227-0.343,1.805c-2.697,6.675-5.389,13.352-8.104,20.02c-0.261,0.642-0.621,1.256-1.018,1.826
			c-0.433,0.622-1.095,0.954-1.858,0.96c-2.282,0.019-4.565,0.048-6.847-0.004c-1.518-0.035-2.551-0.998-2.76-2.503
			c-0.125-0.899-0.143-1.814-0.184-2.723c-0.117-2.573-0.222-5.146-0.332-7.719c-0.002-0.057-0.008-0.114-0.072-0.184
			c-0.25,0.614-0.5,1.228-0.749,1.842c-1.168,2.875-2.332,5.752-3.508,8.624c-0.294,0.717-0.632,1.414-1.198,1.97
			c-0.437,0.429-0.956,0.691-1.568,0.694c-2.063,0.01-4.126,0.038-6.188-0.015c-1.646-0.043-2.741-1.144-2.921-2.883
			c-0.115-1.112-0.137-2.235-0.19-3.353c-0.064-1.349-0.096-2.7-0.182-4.047c-0.056-0.875,0.185-1.701,0.336-2.541
			c0.445-2.48,0.941-4.951,1.363-7.435c0.259-1.526,0.23-3.059-0.464-4.489c-0.28-0.578-0.687-1.094-1.039-1.637
			C21.204,18.135,21.135,18.059,21.051,17.953z"/>
		<path fill="#FFFFFF" d="M8.798,29.16c-0.351,0.159-0.647,0.289-0.94,0.425c-2.565,1.193-5.337-0.26-5.814-3.047
			c-0.303-1.773,0.689-3.572,2.432-4.355c2.85-1.28,5.701-2.56,8.565-3.808c1.484-0.647,2.996-0.695,4.445,0.115
			c1.932,1.081,2.821,3.095,2.409,5.273c-0.923,4.88-1.833,9.762-2.748,14.644c-0.145,0.771-0.287,1.542-0.437,2.311
			c-0.45,2.302-2.496,3.932-4.902,3.91c-2.336-0.021-4.36-1.724-4.774-3.999c-0.167-0.919-0.01-1.81,0.157-2.708
			C7.727,35.025,8.254,32.126,8.798,29.16z"/>
	</g>
</g>
</svg>
