<?xml version="1.0" encoding="utf-8"?>
<!-- Generator: Adobe Illustrator 22.0.0, SVG Export Plug-In . SVG Version: 6.00 Build 0)  -->
<svg version="1.1" id="Camada_1" xmlns="http://www.w3.org/2000/svg" xmlns:xlink="http://www.w3.org/1999/xlink" x="0px" y="0px"
	 width="64px" height="64px" viewBox="0 0 64 64" enable-background="new 0 0 64 64" xml:space="preserve">
<g>
	<g>
		<path fill="#021AFE" d="M5.481,64c-0.045,0-0.091,0-0.136,0c0-7.624,0-15.248-0.001-22.872c0-0.045-0.007-0.09-0.011-0.135
			c0.004-0.125,0.011-0.249,0.011-0.374c0.001-2.654,0.004-5.309-0.005-7.963c-0.001-0.248,0.068-0.341,0.314-0.406
			c8.638-2.305,17.273-4.62,25.908-6.933c8.898-2.383,17.796-4.766,26.696-7.142c0.272-0.073,0.377-0.173,0.374-0.475
			c-0.017-1.667-0.009-3.335-0.007-5.002c0-0.134-0.028-0.273,0.033-0.403c0.12-0.029,0.241-0.055,0.361-0.086
			c0.991-0.257,1.982-0.514,2.973-0.772c0,12.482,0,24.965,0,37.447c-0.103-0.065-0.197,0.003-0.289,0.027
			c-5.849,1.563-11.697,3.128-17.546,4.694C32.231,56.8,20.305,59.992,8.381,63.191C7.411,63.451,6.432,63.674,5.481,64z
			 M26.421,35.298c-0.122,0.22-0.26,0.283-0.374,0.369c-3.258,2.459-6.518,4.915-9.778,7.372c-0.132,0.099-0.268,0.178-0.266,0.395
			c0.011,1.566,0.008,3.132,0.003,4.697c-0.001,0.202,0.067,0.239,0.241,0.165c0.072-0.031,0.153-0.041,0.229-0.061
			c3.281-0.877,6.562-1.75,9.84-2.636c0.255-0.069,0.305-0.02,0.303,0.23c-0.009,1.452-0.017,2.905,0.005,4.357
			c0.005,0.337-0.103,0.459-0.42,0.542c-3.568,0.942-7.131,1.9-10.695,2.854c-0.698,0.187-1.395,0.372-2.125,0.567
			c0-0.853,0-1.667,0-2.492c-0.069,0.006-0.115,0.003-0.158,0.014c-1.652,0.44-3.302,0.884-4.955,1.32
			c-0.169,0.045-0.196,0.136-0.196,0.289c0.005,1.554,0.005,3.109,0,4.663c0,0.151,0.041,0.25,0.169,0.338
			c0.766,0.526,1.528,1.058,2.288,1.594c0.121,0.086,0.225,0.108,0.375,0.065c0.543-0.158,1.093-0.295,1.639-0.441
			c5.488-1.471,10.976-2.943,16.465-4.412c0.158-0.042,0.287-0.097,0.396-0.233c0.773-0.965,1.553-1.924,2.336-2.881
			c0.106-0.13,0.152-0.26,0.151-0.43c-0.005-3.256-0.005-6.513,0.001-9.769c0-0.194-0.064-0.309-0.218-0.417
			c-0.734-0.512-1.464-1.031-2.189-1.558c-0.153-0.111-0.289-0.135-0.47-0.085c-1.102,0.304-2.207,0.596-3.311,0.893
			c-0.091,0.024-0.179,0.067-0.318,0.016c0.117-0.087,0.204-0.154,0.294-0.217c1.985-1.414,3.97-2.828,5.955-4.242
			c0.137-0.098,0.259-0.178,0.258-0.393c-0.01-2.269-0.009-4.539-0.001-6.808c0.001-0.249-0.079-0.241-0.276-0.187
			c-0.96,0.266-1.924,0.516-2.886,0.773c-6.779,1.814-13.558,3.63-20.338,5.439c-0.228,0.061-0.326,0.136-0.325,0.398
			c0.013,2.349,0.007,4.697,0.007,7.046c0,0.099,0,0.197,0,0.329c1.739-0.465,3.443-0.923,5.148-1.373
			c0.172-0.045,0.16-0.159,0.16-0.286c-0.001-0.658,0.019-1.317-0.009-1.974c-0.012-0.291,0.094-0.38,0.354-0.449
			c3.468-0.92,6.933-1.852,10.398-2.78C24.869,35.704,25.611,35.512,26.421,35.298z M58.72,21.53
			c-0.112,0.024-0.189,0.038-0.265,0.058c-7.751,2.077-15.501,4.156-23.254,6.226c-0.234,0.062-0.298,0.152-0.297,0.388
			c0.009,2.349,0.009,4.697,0.001,7.046c-0.001,0.263,0.046,0.329,0.32,0.253c1.571-0.433,3.147-0.85,4.723-1.264
			c0.211-0.055,0.28-0.148,0.274-0.371c-0.018-0.635,0.008-1.271-0.013-1.906c-0.009-0.271,0.062-0.383,0.339-0.456
			c3.381-0.894,6.758-1.804,10.135-2.709c0.859-0.23,1.719-0.46,2.609-0.698c-0.069,0.167-0.191,0.216-0.286,0.289
			c-3.303,2.493-6.607,4.985-9.915,7.471c-0.183,0.137-0.255,0.275-0.253,0.503c0.01,1.475,0.005,2.95,0.005,4.425
			c0,0.392,0,0.39,0.386,0.286c3.301-0.885,6.604-1.768,9.904-2.659c0.251-0.068,0.328-0.034,0.326,0.247
			c-0.014,1.475-0.013,2.95,0,4.425c0.002,0.259-0.067,0.364-0.33,0.433c-2.158,0.562-4.31,1.143-6.464,1.72
			c-2.033,0.545-4.068,1.085-6.098,1.643c-0.299,0.082-0.365,0.019-0.356-0.279c0.02-0.623-0.002-1.248,0.01-1.872
			c0.004-0.227-0.033-0.284-0.278-0.217c-1.582,0.436-3.168,0.859-4.756,1.271c-0.219,0.057-0.283,0.143-0.281,0.365
			c0.01,1.52,0.01,3.041,0,4.561c-0.001,0.211,0.078,0.325,0.241,0.437c0.721,0.492,1.439,0.988,2.147,1.498
			c0.177,0.127,0.33,0.143,0.533,0.088c2.163-0.585,4.328-1.162,6.493-1.741c3.827-1.023,7.654-2.047,11.481-3.068
			c0.191-0.051,0.345-0.132,0.475-0.295c0.764-0.958,1.537-1.907,2.312-2.856c0.092-0.112,0.135-0.221,0.135-0.367
			c-0.003-3.29-0.004-6.58,0.001-9.871c0-0.155-0.051-0.249-0.174-0.335c-0.76-0.535-1.518-1.073-2.273-1.615
			c-0.121-0.087-0.224-0.11-0.374-0.065c-0.499,0.147-1.005,0.272-1.508,0.406c-0.725,0.193-1.451,0.387-2.176,0.581
			c0.066-0.118,0.155-0.185,0.246-0.25c2.004-1.427,4.007-2.853,6.011-4.28c0.127-0.09,0.251-0.161,0.25-0.364
			C58.718,26.263,58.72,23.915,58.72,21.53z"/>
		<path fill="#F9262A" d="M58.658,12.296c-0.061,0.13-0.033,0.268-0.033,0.403c-0.002,1.667-0.01,3.335,0.007,5.002
			c0.003,0.301-0.103,0.402-0.374,0.475c-8.9,2.376-17.798,4.759-26.696,7.142c-8.636,2.313-17.271,4.628-25.908,6.933
			c-0.245,0.065-0.314,0.158-0.314,0.406c0.009,2.654,0.006,5.309,0.005,7.963c0,0.125-0.007,0.249-0.011,0.374
			c-1.108,0.293-2.217,0.587-3.325,0.88c0-8.919,0-17.838,0-26.757c0.116,0.039,0.221-0.011,0.329-0.04
			c6.102-1.635,12.203-3.27,18.306-4.904C32.3,7.05,43.959,3.931,55.615,0.806c0.97-0.26,1.953-0.477,2.904-0.806
			c0.045,0,0.091,0,0.136,0c-0.011,0.089-0.03,0.177-0.03,0.266c0.006,3.954,0.013,7.907,0.021,11.861
			C58.646,12.183,58.654,12.239,58.658,12.296z M5.208,28.711c0.041,0.007,0.053,0.013,0.063,0.01
			c2.887-0.769,5.785-1.498,8.65-2.34c0.593-0.174,0.916-0.891,1.239-1.459c0.029-0.052,0.005-0.134,0.005-0.202
			c0-0.624-0.058-1.255,0.015-1.87c0.093-0.782-0.136-1.331-0.862-1.656c-0.03-0.014-0.054-0.042-0.084-0.058
			c-0.133-0.072-0.137-0.149-0.038-0.264c0.185-0.215,0.338-0.46,0.537-0.658c0.355-0.352,0.481-0.754,0.44-1.252
			c-0.04-0.496-0.062-1.005,0.003-1.495c0.102-0.767-0.15-1.291-0.839-1.642c-0.191-0.098-0.337-0.16-0.558-0.1
			c-2.752,0.747-5.506,1.488-8.265,2.214c-0.252,0.066-0.313,0.162-0.313,0.407c0.008,3.357,0.005,6.715,0.005,10.072
			C5.208,28.518,5.208,28.617,5.208,28.711z M44.696,10.944c0.969,1.086,1.878,2.098,2.777,3.118c0.139,0.158,0.267,0.2,0.47,0.137
			c0.421-0.13,0.849-0.244,1.279-0.342c0.219-0.05,0.347-0.166,0.458-0.356c0.825-1.407,1.66-2.809,2.494-4.211
			c0.058-0.097,0.088-0.224,0.241-0.29c0,0.156,0,0.28,0,0.404c0,2.121,0.003,4.243-0.004,6.364
			c-0.001,0.255,0.037,0.345,0.319,0.258c0.551-0.17,1.113-0.305,1.673-0.449c0.158-0.041,0.241-0.098,0.241-0.291
			c-0.007-3.414-0.007-6.829-0.001-10.243c0-0.204-0.051-0.255-0.249-0.198c-0.522,0.15-1.046,0.297-1.575,0.42
			c-0.243,0.056-0.385,0.187-0.512,0.391c-1.171,1.874-2.351,3.742-3.529,5.611c-0.065,0.104-0.134,0.205-0.216,0.331
			c-0.161-0.172-0.3-0.319-0.438-0.467c-1.074-1.154-2.151-2.305-3.218-3.467c-0.151-0.165-0.283-0.209-0.5-0.145
			c-0.564,0.167-1.135,0.311-1.705,0.459c-0.16,0.041-0.239,0.105-0.239,0.296c0.007,3.403,0.007,6.806,0,10.209
			c-0.001,0.266,0.098,0.272,0.305,0.213c0.544-0.156,1.089-0.312,1.64-0.44c0.234-0.054,0.295-0.152,0.294-0.387
			c-0.01-2.155-0.006-4.311-0.006-6.466C44.696,11.281,44.696,11.158,44.696,10.944z M16.761,20.253c0,1.69,0.006,3.38-0.006,5.07
			c-0.002,0.279,0.078,0.329,0.328,0.251c0.378-0.117,0.763-0.212,1.146-0.314c2.559-0.684,5.117-1.37,7.677-2.045
			c0.215-0.057,0.286-0.144,0.278-0.366c-0.018-0.498-0.019-0.998,0-1.497c0.011-0.282-0.028-0.367-0.346-0.279
			c-2.172,0.597-4.352,1.164-6.523,1.76c-0.321,0.088-0.361-0.006-0.349-0.284c0.018-0.385,0.004-0.771,0.004-1.157
			c0-0.606,0.001-0.603,0.594-0.762c1.924-0.515,3.847-1.034,5.771-1.549c0.154-0.041,0.302-0.049,0.296-0.283
			c-0.016-0.578-0.009-1.157-0.003-1.735c0.002-0.159-0.046-0.195-0.199-0.151c-0.424,0.121-0.852,0.23-1.278,0.345
			c-1.618,0.434-3.237,0.862-4.852,1.306c-0.279,0.077-0.346,0.008-0.335-0.27c0.02-0.487,0.021-0.976-0.001-1.463
			c-0.012-0.259,0.061-0.365,0.324-0.434c2.212-0.578,4.418-1.177,6.628-1.763c0.19-0.05,0.276-0.123,0.268-0.339
			c-0.019-0.51-0.023-1.021,0-1.531c0.015-0.312-0.072-0.341-0.357-0.264c-2.916,0.792-5.836,1.571-8.757,2.345
			c-0.233,0.062-0.319,0.153-0.317,0.407C16.768,16.918,16.761,18.586,16.761,20.253z M31.016,13.26c0,0.16,0,0.284,0,0.408
			c0,2.609,0.004,5.219-0.006,7.828c-0.001,0.296,0.073,0.338,0.343,0.254c0.518-0.161,1.043-0.309,1.574-0.423
			c0.271-0.058,0.327-0.177,0.327-0.434c-0.009-2.643-0.003-5.287-0.011-7.93c-0.001-0.236,0.064-0.327,0.299-0.386
			c1.098-0.277,2.188-0.582,3.283-0.868c0.192-0.05,0.279-0.124,0.272-0.341c-0.018-0.51-0.018-1.021-0.001-1.531
			c0.009-0.27-0.041-0.358-0.335-0.268c-0.617,0.189-1.245,0.34-1.868,0.507c-2.493,0.667-4.987,1.334-7.479,2.005
			c-0.128,0.034-0.292,0.016-0.286,0.249c0.015,0.645,0.005,1.291,0.005,1.967C28.435,13.949,29.71,13.609,31.016,13.26z
			 M41.363,12.649c-1.441,0.385-2.848,0.762-4.256,1.135c-0.131,0.035-0.175,0.098-0.174,0.235c0.008,0.578,0.009,1.156,0,1.733
			c-0.003,0.181,0.063,0.212,0.218,0.17c1.343-0.362,2.686-0.723,4.029-1.081c0.107-0.029,0.185-0.062,0.184-0.197
			C41.361,13.99,41.363,13.335,41.363,12.649z"/>
		<path fill="#FDFDFE" d="M26.421,35.298c-0.81,0.213-1.552,0.406-2.293,0.604c-3.466,0.928-6.931,1.86-10.398,2.78
			c-0.26,0.069-0.366,0.158-0.354,0.449c0.028,0.657,0.008,1.316,0.009,1.974c0,0.127,0.012,0.24-0.16,0.286
			c-1.705,0.451-3.409,0.908-5.148,1.373c0-0.132,0-0.23,0-0.329c0-2.349,0.005-4.697-0.007-7.046
			c-0.001-0.263,0.097-0.338,0.325-0.398c6.78-1.809,13.559-3.625,20.338-5.439c0.962-0.258,1.926-0.507,2.886-0.773
			c0.197-0.055,0.277-0.062,0.276,0.187c-0.008,2.269-0.009,4.539,0.001,6.808c0.001,0.215-0.12,0.295-0.258,0.393
			c-1.985,1.413-3.97,2.828-5.955,4.242c-0.089,0.064-0.177,0.131-0.294,0.217c0.138,0.051,0.227,0.008,0.318-0.016
			c1.104-0.297,2.209-0.59,3.311-0.893c0.181-0.05,0.317-0.027,0.47,0.085c0.724,0.527,1.454,1.045,2.189,1.558
			c0.155,0.108,0.219,0.223,0.218,0.417c-0.006,3.256-0.006,6.513-0.001,9.769c0,0.17-0.045,0.3-0.151,0.43
			c-0.783,0.957-1.563,1.916-2.336,2.881c-0.109,0.135-0.238,0.191-0.396,0.233c-5.489,1.469-10.977,2.941-16.465,4.412
			c-0.547,0.146-1.096,0.283-1.639,0.441c-0.149,0.043-0.253,0.021-0.375-0.065c-0.76-0.536-1.522-1.068-2.288-1.594
			c-0.128-0.088-0.169-0.187-0.169-0.338c0.005-1.554,0.005-3.109,0-4.663c0-0.153,0.026-0.244,0.196-0.289
			c1.653-0.436,3.303-0.88,4.955-1.32c0.042-0.011,0.089-0.008,0.158-0.014c0,0.824,0,1.639,0,2.492
			c0.729-0.195,1.427-0.38,2.125-0.567c3.565-0.953,7.128-1.911,10.695-2.854c0.317-0.084,0.425-0.205,0.42-0.542
			c-0.021-1.452-0.014-2.905-0.005-4.357c0.002-0.251-0.048-0.299-0.303-0.23c-3.278,0.886-6.56,1.759-9.84,2.636
			c-0.077,0.02-0.157,0.031-0.229,0.061c-0.173,0.074-0.241,0.037-0.241-0.165c0.005-1.566,0.008-3.132-0.003-4.697
			c-0.001-0.217,0.135-0.295,0.266-0.395c3.259-2.458,6.519-4.914,9.778-7.372C26.161,35.581,26.299,35.518,26.421,35.298z
			 M25.333,40.695l0.012-0.019l-0.022-0.001L25.333,40.695z"/>
		<path fill="#FDFDFE" d="M58.72,21.53c0,2.385-0.003,4.733,0.005,7.081c0.001,0.203-0.123,0.274-0.25,0.364
			c-2.003,1.427-4.007,2.854-6.011,4.28c-0.091,0.064-0.179,0.132-0.246,0.25c0.725-0.194,1.451-0.388,2.176-0.581
			c0.503-0.134,1.009-0.259,1.508-0.406c0.15-0.044,0.254-0.021,0.374,0.065c0.755,0.542,1.512,1.081,2.273,1.615
			c0.123,0.086,0.174,0.18,0.174,0.335c-0.005,3.29-0.004,6.58-0.001,9.871c0,0.146-0.043,0.255-0.135,0.367
			c-0.775,0.948-1.548,1.898-2.312,2.856c-0.13,0.163-0.284,0.244-0.475,0.295c-3.827,1.022-7.654,2.045-11.481,3.068
			c-2.165,0.579-4.33,1.156-6.493,1.741c-0.203,0.055-0.357,0.039-0.533-0.088c-0.708-0.51-1.426-1.006-2.147-1.498
			c-0.163-0.111-0.243-0.225-0.241-0.437c0.01-1.52,0.01-3.041,0-4.561c-0.001-0.222,0.063-0.308,0.281-0.365
			c1.588-0.413,3.174-0.835,4.756-1.271c0.245-0.068,0.283-0.011,0.278,0.217c-0.012,0.624,0.01,1.248-0.01,1.872
			c-0.01,0.297,0.057,0.361,0.356,0.279c2.03-0.558,4.064-1.098,6.098-1.643c2.154-0.577,4.307-1.158,6.464-1.72
			c0.263-0.069,0.333-0.173,0.33-0.433c-0.012-1.475-0.013-2.95,0-4.425c0.003-0.281-0.075-0.315-0.326-0.247
			c-3.3,0.891-6.602,1.774-9.904,2.659c-0.386,0.104-0.386,0.105-0.386-0.286c0-1.475,0.005-2.95-0.005-4.425
			c-0.002-0.228,0.071-0.366,0.253-0.503c3.309-2.485,6.612-4.978,9.915-7.471c0.096-0.072,0.218-0.121,0.286-0.289
			c-0.89,0.238-1.75,0.467-2.609,0.698c-3.378,0.906-6.755,1.816-10.135,2.709c-0.277,0.073-0.348,0.185-0.339,0.456
			c0.022,0.635-0.005,1.271,0.013,1.906c0.007,0.223-0.063,0.316-0.274,0.371c-1.577,0.414-3.152,0.831-4.723,1.264
			c-0.275,0.076-0.321,0.01-0.32-0.253c0.009-2.349,0.009-4.697-0.001-7.046c-0.001-0.235,0.063-0.325,0.297-0.388
			c7.753-2.07,15.503-4.149,23.254-6.226C58.531,21.568,58.609,21.554,58.72,21.53z"/>
		<path fill="#FEFDFD" d="M5.208,28.711c0-0.094,0-0.193,0-0.292c0-3.357,0.003-6.715-0.005-10.072
			c-0.001-0.245,0.061-0.341,0.313-0.407c2.758-0.726,5.512-1.467,8.265-2.214c0.221-0.06,0.367,0.003,0.558,0.1
			c0.689,0.351,0.941,0.875,0.839,1.642c-0.065,0.49-0.044,0.999-0.003,1.495c0.04,0.498-0.085,0.9-0.44,1.252
			c-0.2,0.198-0.353,0.443-0.537,0.658c-0.099,0.115-0.096,0.192,0.038,0.264c0.03,0.016,0.053,0.044,0.084,0.058
			c0.726,0.324,0.955,0.874,0.862,1.656c-0.073,0.615-0.015,1.246-0.015,1.87c0,0.068,0.024,0.15-0.005,0.202
			c-0.323,0.568-0.646,1.284-1.239,1.459c-2.865,0.842-5.763,1.571-8.65,2.34C5.262,28.724,5.249,28.718,5.208,28.711z
			 M12.966,18.092c-1.814,0.487-3.593,0.966-5.374,1.437c-0.154,0.041-0.161,0.13-0.16,0.248c0.001,0.363-0.009,0.726,0.003,1.089
			c0.009,0.278-0.126,0.656,0.069,0.802c0.138,0.104,0.503-0.087,0.765-0.157c1.466-0.389,2.931-0.78,4.394-1.178
			c0.122-0.033,0.31-0.007,0.307-0.238C12.961,19.44,12.966,18.784,12.966,18.092z M12.967,23.462c0-0.261-0.013-0.522,0.004-0.782
			c0.014-0.227-0.037-0.283-0.275-0.218c-1.669,0.459-3.342,0.907-5.016,1.346c-0.193,0.051-0.256,0.127-0.252,0.32
			c0.011,0.51,0.018,1.021-0.002,1.531C7.415,25.942,7.491,26,7.765,25.925c1.615-0.443,3.232-0.881,4.854-1.296
			c0.298-0.076,0.378-0.209,0.352-0.487C12.95,23.917,12.967,23.689,12.967,23.462z"/>
		<path fill="#FEFCFC" d="M44.696,10.944c0,0.214,0,0.336,0,0.458c0,2.155-0.004,4.311,0.006,6.466
			c0.001,0.235-0.06,0.333-0.294,0.387c-0.551,0.128-1.096,0.284-1.64,0.44c-0.207,0.059-0.306,0.053-0.305-0.213
			c0.007-3.403,0.007-6.806,0-10.209c0-0.191,0.079-0.254,0.239-0.296c0.57-0.148,1.141-0.291,1.705-0.459
			c0.216-0.064,0.348-0.02,0.5,0.145c1.067,1.161,2.144,2.312,3.218,3.467c0.138,0.148,0.277,0.295,0.438,0.467
			c0.082-0.125,0.15-0.227,0.216-0.331c1.178-1.869,2.358-3.737,3.529-5.611c0.128-0.204,0.27-0.335,0.512-0.391
			c0.529-0.123,1.052-0.27,1.575-0.42c0.198-0.057,0.249-0.006,0.249,0.198c-0.005,3.414-0.006,6.829,0.001,10.243
			c0,0.193-0.082,0.25-0.241,0.291c-0.559,0.143-1.121,0.279-1.673,0.449c-0.282,0.087-0.32-0.003-0.319-0.258
			c0.008-2.121,0.004-4.243,0.004-6.364c0-0.124,0-0.248,0-0.404c-0.153,0.067-0.183,0.193-0.241,0.29
			c-0.834,1.402-1.669,2.804-2.494,4.211c-0.111,0.19-0.24,0.306-0.458,0.356c-0.43,0.098-0.857,0.212-1.279,0.342
			c-0.203,0.063-0.331,0.021-0.47-0.137C46.574,13.043,45.665,12.031,44.696,10.944z"/>
		<path fill="#FEFDFD" d="M16.761,20.253c0-1.667,0.006-3.335-0.007-5.002c-0.002-0.255,0.084-0.345,0.317-0.407
			c2.921-0.774,5.84-1.554,8.757-2.345c0.285-0.077,0.372-0.048,0.357,0.264c-0.024,0.509-0.019,1.021,0,1.531
			c0.008,0.216-0.078,0.289-0.268,0.339c-2.21,0.586-4.416,1.185-6.628,1.763c-0.263,0.069-0.336,0.175-0.324,0.434
			c0.022,0.487,0.021,0.976,0.001,1.463c-0.012,0.278,0.056,0.347,0.335,0.27c1.615-0.443,3.234-0.872,4.852-1.306
			c0.426-0.114,0.854-0.223,1.278-0.345c0.152-0.044,0.2-0.008,0.199,0.151c-0.006,0.578-0.013,1.157,0.003,1.735
			c0.006,0.234-0.142,0.242-0.296,0.283c-1.924,0.515-3.847,1.033-5.771,1.549c-0.593,0.159-0.594,0.156-0.594,0.762
			c0,0.386,0.013,0.772-0.004,1.157c-0.013,0.278,0.028,0.372,0.349,0.284c2.172-0.597,4.352-1.164,6.523-1.76
			c0.317-0.087,0.356-0.002,0.346,0.279c-0.019,0.498-0.018,0.998,0,1.497c0.008,0.222-0.063,0.31-0.278,0.366
			c-2.561,0.676-5.119,1.361-7.677,2.045c-0.383,0.102-0.768,0.197-1.146,0.314c-0.251,0.078-0.33,0.028-0.328-0.251
			C16.767,23.633,16.761,21.943,16.761,20.253z"/>
		<path fill="#FEFCFC" d="M31.016,13.26c-1.306,0.348-2.581,0.689-3.884,1.036c0-0.676,0.01-1.322-0.005-1.967
			c-0.006-0.232,0.158-0.214,0.286-0.249c2.493-0.67,4.986-1.337,7.479-2.005c0.623-0.167,1.252-0.318,1.868-0.507
			c0.294-0.09,0.343-0.002,0.335,0.268c-0.017,0.51-0.017,1.021,0.001,1.531c0.007,0.217-0.079,0.291-0.272,0.341
			c-1.095,0.286-2.186,0.591-3.283,0.868c-0.235,0.059-0.3,0.151-0.299,0.386c0.009,2.643,0.002,5.287,0.011,7.93
			c0.001,0.257-0.056,0.376-0.327,0.434c-0.531,0.114-1.055,0.261-1.574,0.423c-0.27,0.084-0.344,0.042-0.343-0.254
			c0.011-2.609,0.006-5.219,0.006-7.828C31.016,13.545,31.016,13.421,31.016,13.26z"/>
		<path fill="#FEFCFC" d="M41.363,12.649c0,0.686-0.002,1.341,0.002,1.996c0.001,0.135-0.077,0.168-0.184,0.197
			c-1.343,0.359-2.686,0.72-4.029,1.081c-0.155,0.042-0.222,0.01-0.218-0.17c0.01-0.578,0.008-1.156,0-1.733
			c-0.002-0.138,0.043-0.201,0.174-0.235C38.515,13.411,39.923,13.034,41.363,12.649z"/>
		<polygon fill="#021AFE" points="25.333,40.695 25.323,40.674 25.345,40.676 		"/>
		<path fill="#F9272B" d="M12.966,18.092c0,0.692-0.005,1.348,0.003,2.003c0.003,0.232-0.185,0.205-0.307,0.238
			c-1.463,0.398-2.929,0.788-4.394,1.178c-0.261,0.069-0.626,0.261-0.765,0.157c-0.194-0.146-0.059-0.524-0.069-0.802
			c-0.012-0.363-0.002-0.726-0.003-1.089c0-0.118,0.007-0.208,0.16-0.248C9.373,19.058,11.153,18.578,12.966,18.092z"/>
		<path fill="#F9272B" d="M12.967,23.462c0,0.227-0.017,0.455,0.004,0.68c0.026,0.278-0.054,0.411-0.352,0.487
			c-1.622,0.415-3.239,0.853-4.854,1.296C7.491,26,7.415,25.942,7.426,25.659c0.02-0.51,0.013-1.021,0.002-1.531
			c-0.004-0.193,0.059-0.27,0.252-0.32c1.675-0.439,3.347-0.887,5.016-1.346c0.238-0.065,0.289-0.009,0.275,0.218
			C12.954,22.94,12.967,23.201,12.967,23.462z"/>
	</g>
</g>
</svg>
