<?xml version="1.0" encoding="UTF-8" standalone="no"?>
<svg
   xmlns:dc="http://purl.org/dc/elements/1.1/"
   xmlns:cc="http://creativecommons.org/ns#"
   xmlns:rdf="http://www.w3.org/1999/02/22-rdf-syntax-ns#"
   xmlns:svg="http://www.w3.org/2000/svg"
   xmlns="http://www.w3.org/2000/svg"
   xmlns:sodipodi="http://sodipodi.sourceforge.net/DTD/sodipodi-0.dtd"
   xmlns:inkscape="http://www.inkscape.org/namespaces/inkscape"
   width="64"
   height="64"
   viewBox="0 0 47.999999 48.000001"
   version="1.1"
   id="svg188"
   sodipodi:docname="5pow.svg"
   inkscape:version="0.92.3 (2405546, 2018-03-11)">
  <metadata
     id="metadata194">
    <rdf:RDF>
      <cc:Work
         rdf:about="">
        <dc:format>image/svg+xml</dc:format>
        <dc:type
           rdf:resource="http://purl.org/dc/dcmitype/StillImage" />
        <dc:title></dc:title>
      </cc:Work>
    </rdf:RDF>
  </metadata>
  <defs
     id="defs192" />
  <sodipodi:namedview
     pagecolor="#ffffff"
     bordercolor="#666666"
     borderopacity="1"
     objecttolerance="10"
     gridtolerance="10"
     guidetolerance="10"
     inkscape:pageopacity="0"
     inkscape:pageshadow="2"
     inkscape:window-width="1920"
     inkscape:window-height="1017"
     id="namedview190"
     showgrid="false"
     units="px"
     inkscape:pagecheckerboard="true"
     inkscape:zoom="2.2276708"
     inkscape:cx="105.97513"
     inkscape:cy="-20.75039"
     inkscape:window-x="-8"
     inkscape:window-y="-8"
     inkscape:window-maximized="1"
     inkscape:current-layer="svg188" />
  <g
     id="#ffda00ff"
     transform="matrix(0.08406305,0,0,0.08406305,-0.04089538,-7.7499999e-7)">
    <path
       d="m 273,0 h 26.34 l 1.25,0.94 C 290.78,0.21 280.96,0.38 271.15,0.86 Z"
       id="path103"
       inkscape:connector-curvature="0"
       style="opacity:1;fill:#ffda00" />
    <path
       d="m 303.87,38.79 c 0.06,-2.63 2.66,-4.15 5.02,-4.41 3.21,-0.35 6.78,0.27 9.23,2.52 1.98,1.83 1.21,4.79 1.44,7.18 -1.92,-0.25 -3.85,-0.5 -5.76,-0.74 0.06,0.51 0.19,1.54 0.26,2.06 1.65,-0.05 3.31,-0.08 4.97,-0.07 -0.33,3.85 -0.74,7.68 -1.28,11.51 -1.1,-0.1 -2.19,-0.2 -3.28,-0.3 -0.21,-0.25 -0.63,-0.73 -0.84,-0.98 -3.66,0.8 -8.92,0.28 -10.22,-3.9 -0.44,-4.27 -0.08,-8.61 0.46,-12.87 m 6.33,-0.2 c -0.49,4.38 -0.83,8.77 -0.99,13.17 0.7,0.05 2.08,0.15 2.77,0.21 0.12,-0.72 0.35,-2.16 0.47,-2.88 -2.01,-3.53 1.77,-6.75 0.94,-10.5 -0.8,0 -2.39,0 -3.19,0 z"
       id="path105"
       inkscape:connector-curvature="0"
       style="opacity:1;fill:#ffda00" />
    <path
       d="m 272.42,36.91 c 2.37,-0.08 4.78,-0.03 7.08,0.62 1.04,-0.32 2.08,-0.65 3.13,-0.98 -0.04,1.45 -0.15,2.88 -0.33,4.32 -0.95,0.87 -2.1,1.5 -3.12,2.27 -0.29,3.86 0.14,7.75 0.08,11.62 -1.98,0.05 -3.96,0.11 -5.93,0.16 -0.2,-6.01 -0.72,-12 -0.91,-18.01 z"
       id="path107"
       inkscape:connector-curvature="0"
       style="opacity:1;fill:#ffda00" />
    <path
       d="m 255.06,42.9 c 0.03,-2.96 3.2,-4.63 5.81,-4.86 2.51,-0.24 5.52,-0.31 7.35,1.73 1.72,1.99 1.27,4.85 1.62,7.28 -2.73,0.05 -5.48,0.11 -8.14,0.72 0.16,1.9 0.46,3.78 0.76,5.66 1.88,-1.22 1.39,-3.54 1.47,-5.44 2.09,-0.14 4.18,-0.27 6.28,-0.4 -0.28,2.49 0,5.68 -2.62,7.05 -3.32,1.75 -8.56,2.19 -10.98,-1.21 -1.25,-3.33 -1.57,-6.99 -1.55,-10.53 m 5.99,-2.23 c 0.11,1.35 0.23,2.7 0.37,4.05 0.54,-0.14 1.62,-0.42 2.16,-0.56 -0.36,-1.54 -0.64,-3.25 -2.53,-3.49 z"
       id="path109"
       inkscape:connector-curvature="0"
       style="opacity:1;fill:#ffda00" />
    <path
       d="m 248.61,39.65 c 1.81,-0.25 3.63,-0.5 5.45,-0.75 -0.54,6.1 -1.11,12.19 -1.35,18.31 -2.15,0.35 -4.33,1.12 -6.51,0.87 -1.23,-2.27 -2.13,-4.7 -3.21,-7.04 -0.24,2.58 -0.29,5.17 -0.69,7.73 -1.79,1.24 -4.18,1.25 -6.23,1.84 -2.45,-5.63 -5.16,-11.14 -7.66,-16.75 1.84,-0.39 3.68,-0.79 5.52,-1.18 1.41,3.22 2.94,6.39 4.52,9.54 -0.18,-3.57 -0.24,-7.14 -0.19,-10.7 1.94,-0.32 3.87,-0.66 5.81,-1 1.1,3.16 2.29,6.3 3.63,9.37 0.34,-3.41 0.63,-6.82 0.91,-10.24 z"
       id="path111"
       inkscape:connector-curvature="0"
       style="opacity:1;fill:#ffda00" />
    <path
       d="m 324.05,42.03 c 2.92,-2.06 6.86,-1.34 9.91,0.05 1.42,0.76 3.16,1.99 3.03,3.8 -0.12,4.84 -1.58,9.51 -2.32,14.26 -3.92,-1.23 -8.08,-1.54 -11.95,-2.87 -2.32,-1.63 -1.31,-4.95 -0.63,-7.18 2.58,-1.47 5.7,-1.34 8.56,-1.82 0.04,-1.7 0.69,-3.81 -1.25,-4.74 -0.39,1.6 -0.74,3.2 -1.09,4.8 -2.1,-0.33 -4.19,-0.66 -6.28,-1 0.67,-1.74 0.57,-3.96 2.02,-5.3 M 328,56.14 c 2.07,-0.98 1.52,-3.55 1.95,-5.39 -1.77,1.27 -3.22,3.21 -1.95,5.39 z"
       id="path113"
       inkscape:connector-curvature="0"
       style="opacity:1;fill:#ffda00" />
    <path
       d="m 340.87,43.32 c 2.34,0.48 4.64,1.17 6.77,2.28 2.75,0.17 5.31,1.03 7.36,2.93 2.88,-0.45 7.21,0.08 7.73,3.58 -0.65,5.17 -2.84,10.01 -4.12,15.04 -1.93,-0.69 -3.88,-1.35 -5.83,-1.99 1.29,-5.03 3.26,-9.93 3.53,-15.17 -4,3.65 -3.52,9.77 -5.36,14.55 -1.96,-0.58 -3.93,-1.15 -5.89,-1.71 1.18,-4.97 2.58,-9.89 3.32,-14.95 -0.48,0.3 -1.45,0.89 -1.94,1.18 -1.58,4.18 -1.87,8.71 -3.39,12.91 -1.93,-0.21 -3.83,-0.63 -5.73,-0.98 1.04,-5.92 2.4,-11.77 3.55,-17.67 z"
       id="path115"
       inkscape:connector-curvature="0"
       style="opacity:1;fill:#ffda00" />
    <path
       d="m 219.35,46.48 c 2.7,-0.92 6.22,-1.44 8.48,0.73 1.78,2.94 2.2,6.51 2.67,9.85 0.72,5.71 -6.88,8.05 -11.29,6.79 -3.11,-2.22 -3.39,-6.56 -4.39,-9.97 -1.27,-3.36 1.45,-6.47 4.53,-7.4 m 0.92,2.56 c 0.87,3.9 1.58,7.89 3.17,11.57 0.34,0.05 1.02,0.17 1.36,0.22 -0.25,-3.77 -1.09,-7.55 -2.62,-11.01 -0.48,-0.19 -1.43,-0.58 -1.91,-0.78 z"
       id="path117"
       inkscape:connector-curvature="0"
       style="opacity:1;fill:#ffda00" />
    <path
       d="m 194.89,51.31 c 4.28,-1.59 8.44,-3.88 13.06,-4.28 3.67,-0.15 4.44,4.22 5.11,6.96 1.38,4.74 -4.49,6.1 -7.63,7.7 0.89,2.61 1.77,5.23 2.61,7.85 -1.85,0.75 -3.71,1.49 -5.56,2.22 -2.66,-6.77 -5.22,-13.58 -7.59,-20.45 m 7.31,1.06 c 0.77,1.93 1.53,3.86 2.28,5.79 1.35,-1.18 3.05,-2.52 1.81,-4.45 -0.11,-2.32 -2.59,-1.21 -4.09,-1.34 z"
       id="path119"
       inkscape:connector-curvature="0"
       style="opacity:1;fill:#ffda00" />
    <path
       d="m 368.47,48.07 c 2.06,0.79 4.13,1.59 6.21,2.39 -0.29,0.97 -0.57,1.95 -0.84,2.93 -2.07,-0.8 -4.14,-1.59 -6.21,-2.36 0.21,-0.74 0.63,-2.22 0.84,-2.96 z"
       id="path121"
       inkscape:connector-curvature="0"
       style="opacity:1;fill:#ffda00" />
    <path
       d="m 367.34,51.57 c 2.04,0.78 4.08,1.56 6.15,2.29 -1.84,5.56 -3.88,11.06 -5.67,16.64 -1.95,-0.66 -3.89,-1.3 -5.84,-1.93 1.65,-5.71 3.61,-11.32 5.36,-17 z"
       id="path123"
       inkscape:connector-curvature="0"
       style="opacity:1;fill:#ffda00" />
    <path
       d="m 177.01,60.08 c 4.65,-3.23 10.08,-5.12 15.16,-7.55 0.28,1.03 0.56,2.07 0.83,3.1 -2.99,1.28 -5.95,2.63 -8.88,4.05 0.27,0.78 0.82,2.33 1.09,3.11 2.47,-2.14 6.35,-4.98 9.43,-2.29 2.07,3.06 3.67,6.79 3.58,10.54 -1.57,3.99 -6.17,6.01 -10.22,6.27 -3.35,0.37 -4.49,-3.29 -5.94,-5.52 1.9,-0.99 3.81,-1.97 5.71,-2.96 1.17,1.79 2.23,6.29 5,3.8 -0.8,-3.08 -1.7,-6.39 -3.85,-8.81 -1.81,-0.08 -2.04,1.7 -2.57,3 -1.74,0.89 -3.47,1.77 -5.2,2.66 -1.37,-3.14 -2.98,-6.18 -4.14,-9.4 z"
       id="path125"
       inkscape:connector-curvature="0"
       style="opacity:1;fill:#ffda00" />
    <path
       d="m 370.56,72.04 c 1.9,-5.7 4.06,-11.3 6.12,-16.93 2.26,0.98 4.36,2.28 6.43,3.62 2.61,0.73 6.79,1.72 6.16,5.32 -1.29,4.86 -3.78,9.29 -5.76,13.88 -1.81,-0.89 -3.6,-1.79 -5.39,-2.68 1.63,-4.91 4.34,-9.49 5.04,-14.68 -1.05,0.74 -2.23,1.44 -2.61,2.74 -1.56,3.56 -2.79,7.25 -4.18,10.87 -1.93,-0.76 -3.86,-1.49 -5.81,-2.14 z"
       id="path127"
       inkscape:connector-curvature="0"
       style="opacity:1;fill:#ffda00" />
    <path
       d="m 393.52,65.57 c 2.62,-1.87 5.42,0.95 7.58,2.32 2.15,0.97 4.3,1.97 6.36,3.13 -2.38,4.73 -4.68,9.52 -7.37,14.08 -0.99,2.18 -3.77,2.21 -5.71,1.44 -3.69,-1.34 -8.14,-3.74 -7.81,-8.33 2.69,1.06 5.03,2.74 7.26,4.53 0.38,-0.36 1.12,-1.09 1.49,-1.45 -2.74,-0.7 -6.58,-1.8 -6.63,-5.26 0.91,-3.73 2.46,-7.43 4.83,-10.46 m 1.19,13.9 c 3.12,-2.44 4.45,-6.29 5.54,-9.94 -3.94,1.38 -4.99,6.27 -5.54,9.94 z"
       id="path129"
       inkscape:connector-curvature="0"
       style="opacity:1;fill:#ffda00" />
    <path
       d="m 262.27,127.48 c 26.44,0.09 52.88,-0.13 79.32,0.11 14.21,0 29.04,3.37 40.17,12.64 8.91,7.09 14.14,18.4 13.8,29.78 0.51,13.43 -4.29,27.13 -13.85,36.7 -12.22,12.2 -29.68,18.01 -46.7,18.29 -10.67,0.01 -21.34,-0.01 -32.01,0 0,-3.7 0,-7.4 0,-11.1 9.48,-0.42 18.98,0.08 28.47,-0.28 10.67,-0.47 21.48,-5.59 27.45,-14.66 5.21,-7.51 6.47,-17.01 6.05,-25.95 -0.51,-8.25 -2.27,-16.85 -7.49,-23.49 -5.05,-6.65 -13.19,-10.41 -21.38,-11.23 -12.01,-1.18 -24.07,-0.12 -36.11,-0.29 0.02,100.87 0.01,201.74 0.01,302.61 37.33,-0.16 74.42,-14.47 102.11,-39.52 8.99,-7.9 16.78,-17.08 23.8,-26.75 1.16,0.6 2.33,1.21 3.5,1.82 -9.43,15.45 -22.22,28.65 -36.15,40.09 -29.05,23.06 -66.1,35.93 -103.21,35.53 -26.95,0.14 -53.87,-6.71 -77.63,-19.4 -20.71,-10.8 -38.61,-26.57 -53.04,-44.86 -18.34,-23.77 -29.93,-52.67 -33.22,-82.51 -2.73,-25.27 0.14,-51.17 8.87,-75.07 17.17,-48.4 58.37,-87.37 107.65,-101.81 0.07,3.17 0.14,6.33 0.13,9.5 -31.84,12.1 -59.42,35.09 -76.97,64.29 -11.84,19.41 -19.22,41.46 -21.75,64.04 25.08,0.09 50.16,0.01 75.23,0.04 -0.66,5.68 -1.33,11.35 -2.18,17.01 -24.67,0 -49.34,-0.03 -74.01,0.01 -0.31,30.8 8.55,61.62 25.41,87.42 9.54,14.7 21.73,27.62 35.57,38.35 23.53,18.05 52.32,28.94 81.84,31.45 0.12,-96.09 0,-192.18 0.06,-288.27 -0.02,-4.11 -0.72,-9.18 -4.84,-11.22 -5.86,-2.91 -12.54,-3.4 -18.95,-4.12 0.01,-3.05 0.03,-6.1 0.05,-9.15 z"
       id="path131"
       inkscape:connector-curvature="0"
       style="opacity:1;fill:#ffda00" />
    <path
       d="m 256.12,213.73 c 8.29,0.02 16.58,0.01 24.88,0.01 0,3.75 0,7.5 0,11.26 -3.92,-0.01 -7.83,-0.01 -11.74,0.06 -3.08,20.39 -5.98,40.81 -8.64,61.26 6.41,-3.83 13.14,-7.18 20.33,-9.29 0.06,4.23 0.06,8.47 0.04,12.7 -10.69,1.37 -20.6,7.01 -27.04,15.67 -2.79,-1.04 -5.56,-2.12 -8.33,-3.21 3.43,-29.49 7.04,-58.97 10.5,-88.46 z"
       id="path133"
       inkscape:connector-curvature="0"
       style="opacity:1;fill:#ffda00" />
    <path
       d="m 304,276.39 c 15,2.17 29.24,10.54 37.17,23.65 7.92,12.13 8.5,27.45 6.4,41.36 -3.67,22.27 -21.96,40.51 -43.56,46.04 -0.01,-4.5 -0.02,-9 -0.01,-13.49 13.64,-9.95 18.24,-27.81 17.78,-43.94 0.64,-14.01 -5.36,-28.97 -17.72,-36.4 -0.11,-5.74 -0.05,-11.48 -0.06,-17.22 z"
       id="path135"
       inkscape:connector-curvature="0"
       style="opacity:1;fill:#ffda00" />
    <path
       d="m 241.2,341.22 c 7.4,-3 17.83,-0.12 20.23,8.18 1.33,7.35 -1.54,14.55 -2.88,21.68 6.45,4.96 14.37,7.52 22.42,8.22 0.03,3.44 0.04,6.87 0.03,10.31 -13.29,-0.66 -26.77,-4.82 -36.86,-13.77 -5.73,-4.92 -10.14,-12.03 -9.99,-19.8 -0.13,-5.56 1.72,-12.14 7.05,-14.82 z"
       id="path137"
       inkscape:connector-curvature="0"
       style="opacity:1;fill:#ffda00" />
    <path
       d="m 352.5,505.39 c 2.68,-2.75 8.27,-2.81 10.08,0.99 2.27,4.95 -0.07,10.4 -1.15,15.37 1.61,-0.51 3.22,-1.01 4.83,-1.51 0.25,1.09 0.5,2.19 0.76,3.3 -3.74,1.16 -7.47,2.3 -11.23,3.38 -0.94,-6.99 3.61,-13.76 1.19,-20.68 -2.34,1.41 -0.73,3.98 -0.57,6 -1.48,0.36 -2.97,0.73 -4.45,1.1 -0.37,-2.63 -1.41,-5.68 0.54,-7.95 z"
       id="path139"
       inkscape:connector-curvature="0"
       style="opacity:1;fill:#ffda00" />
    <path
       d="m 217.96,505.95 c 2.98,-1.85 6.99,-0.6 9.63,1.34 2.2,1.59 1.06,4.53 1.17,6.81 -1.93,-0.37 -3.86,-0.74 -5.78,-1.09 0.16,-0.8 0.47,-2.4 0.63,-3.2 -0.65,0.17 -1.95,0.49 -2.6,0.66 1.97,2.95 4.61,5.43 6.32,8.55 0.56,2.95 0.12,7.53 -3.39,8.37 -4.04,0.64 -9.17,-0.48 -11.12,-4.44 -0.26,-1.98 0.33,-3.93 0.57,-5.86 1.95,0.55 3.91,1.08 5.88,1.6 -0.32,1.28 -0.63,2.58 -0.93,3.88 0.77,0.15 2.31,0.47 3.08,0.63 1.03,-3.63 -2.63,-5.71 -4.38,-8.33 -2.34,-2.52 -1.34,-6.7 0.92,-8.92 z"
       id="path141"
       inkscape:connector-curvature="0"
       style="opacity:1;fill:#ffda00" />
    <path
       d="m 233.31,508 c 1.8,0.35 3.6,0.68 5.4,1.04 -1.49,7.33 -3.08,14.64 -4.57,21.97 -1.97,-0.52 -3.96,-1 -5.93,-1.46 1.83,-7.15 3.4,-14.37 5.1,-21.55 z"
       id="path143"
       inkscape:connector-curvature="0"
       style="opacity:1;fill:#ffda00" />
    <path
       d="m 339.25,508.23 c 3.01,-1.38 7.74,-1.15 9.03,2.46 1.43,3.98 2.53,8.11 3.28,12.29 1.34,6.74 -10.93,9.6 -12.92,3.14 -1.25,-4.29 -2.24,-8.71 -2.61,-13.17 -0.17,-2.09 1.37,-3.97 3.22,-4.72 m 1.84,2.41 c 0.69,4.23 1.69,8.4 2.7,12.56 0.26,1.48 1.02,2.77 2.34,3.56 -0.4,-4.51 -1.61,-8.89 -2.74,-13.26 -0.23,-1.35 -0.98,-2.42 -2.3,-2.86 z"
       id="path145"
       inkscape:connector-curvature="0"
       style="opacity:1;fill:#ffda00" />
    <path
       d="m 237.19,531.57 c 1.54,-7.29 2.85,-14.62 4.41,-21.9 1.41,0.25 2.81,0.5 4.22,0.76 0.26,2.96 0.51,5.92 0.84,8.87 0.77,-2.71 1.39,-5.47 1.97,-8.22 1.82,0.23 3.64,0.47 5.46,0.69 -1.07,7.37 -2.05,14.76 -3.19,22.12 -1.59,-0.25 -3.17,-0.5 -4.75,-0.74 -0.3,-3.06 -0.6,-6.1 -0.91,-9.15 -0.77,2.86 -1.45,5.73 -2.12,8.62 -1.98,-0.38 -3.95,-0.73 -5.93,-1.05 z"
       id="path147"
       inkscape:connector-curvature="0"
       style="opacity:1;fill:#ffda00" />
    <path
       d="m 323.31,511.57 c 2.91,-1.36 7.52,-1.49 9.16,1.83 1.58,4.03 2.12,8.39 2.78,12.65 1.79,7.27 -11.51,9.89 -13.01,2.88 -0.92,-4.24 -1.62,-8.56 -1.74,-12.89 -0.17,-1.94 1.1,-3.69 2.81,-4.47 m 2.59,1.76 c 0.5,5.74 0.57,11.87 3.35,17.06 0.81,-4.2 -0.59,-8.33 -1.2,-12.45 -0.17,-1.76 -0.9,-3.36 -2.15,-4.61 z"
       id="path149"
       inkscape:connector-curvature="0"
       style="opacity:1;fill:#ffda00" />
    <path
       d="m 256.61,516.89 c 1.31,-4.66 7.56,-4.76 11.11,-2.78 3.28,1.6 2.36,5.72 2.45,8.66 -1.9,-0.1 -3.8,-0.21 -5.7,-0.29 0.07,-1.69 0.14,-3.36 0.21,-5.03 -0.62,-0.07 -1.85,-0.2 -2.46,-0.27 -0.61,3.97 -1.36,7.96 -1.36,11.99 -0.23,1.63 1.48,1.59 2.57,1.93 0.25,-2.01 0.48,-4.02 0.7,-6.03 1.91,0.15 3.83,0.3 5.74,0.46 -0.35,3.29 -0.26,7.86 -4.07,9.16 -3.63,1.28 -9.34,0.48 -10.66,-3.69 -0.24,-4.73 0.53,-9.49 1.47,-14.11 z"
       id="path151"
       inkscape:connector-curvature="0"
       style="opacity:1;fill:#ffda00" />
    <path
       d="m 307.27,514.32 c 3.09,-2.9 9.17,-1.7 10.11,2.71 0.99,5.23 -1.97,10.01 -4.07,14.57 1.55,-0.1 3.1,-0.24 4.66,-0.23 0.2,0.76 0.6,2.27 0.81,3.03 -4.03,0.49 -8.08,0.89 -12.13,1.16 0.64,-5.87 4.32,-10.78 5.45,-16.52 0.81,-1.53 -0.84,-2.51 -1.7,-3.43 -0.06,1.89 -0.13,3.77 -0.14,5.67 -1.56,0.09 -3.11,0.18 -4.66,0.28 0.3,-2.42 -0.28,-5.38 1.67,-7.24 z"
       id="path153"
       inkscape:connector-curvature="0"
       style="opacity:1;fill:#ffda00" />
    <path
       d="m 272.97,513.71 c 3.22,0.16 6.45,0.3 9.67,0.42 -0.1,1.38 -0.19,2.78 -0.28,4.18 -1.34,-0.03 -2.69,-0.06 -4.03,-0.08 -0.13,1.58 -0.26,3.16 -0.38,4.75 1.43,0 2.87,0.01 4.32,0.02 -0.01,1.42 -0.01,2.84 -0.01,4.27 -1.46,-0.02 -2.92,-0.03 -4.37,-0.04 -0.07,1.58 -0.13,3.16 -0.18,4.76 1.85,-0.01 3.7,0 5.55,0 0,1.43 0,2.86 0.01,4.3 -3.88,0.01 -7.74,-0.1 -11.61,-0.34 0.42,-7.42 0.84,-14.83 1.31,-22.24 z"
       id="path155"
       inkscape:connector-curvature="0"
       style="opacity:1;fill:#ffda00" />
  </g>
  <g
     id="#231815ff"
     transform="matrix(0.08406305,0,0,0.08406305,-0.04089538,-7.7499999e-7)">
    <path
       d="m 220.34,8.34 c 16.65,-4.09 33.72,-6.24 50.81,-7.48 9.81,-0.48 19.63,-0.65 29.44,0.08 70.53,3.29 139.31,34.35 188.48,85 39.89,39.66 66.73,91.84 77.14,147.03 2.67,15.84 4.83,31.87 4.67,47.96 1.55,67.59 -22.48,135.39 -66.06,187.07 -22.8,26.81 -50.16,49.92 -81.07,66.87 -36.34,20.2 -77.18,32.33 -118.68,34.97 -2.09,0.16 -4.13,0.64 -6.15,1.16 H 272.8 c -1.85,-0.74 -3.81,-1.14 -5.8,-1.2 C 216.19,566.76 166.58,549.01 124.69,520.22 85.9,493.62 53.83,457.27 32.51,415.33 11,373.75 -0.02,326.75 1.1,279.95 2.01,232.66 15.16,185.72 38.6,144.66 57.6,111.07 83.67,81.57 114.47,58.34 145.85,34.68 182.11,17.52 220.34,8.34 M 157.41,62.47 C 85.81,102.85 36.59,180.02 30.09,261.96 c 11.92,0.02 23.85,0.13 35.77,-0.06 5.09,-51.44 29.16,-100.72 66.52,-136.43 19.5,-18.95 42.68,-34 67.7,-44.57 54.94,-23.28 119.32,-23.05 174.05,0.73 31.66,13.56 60.07,34.64 82.16,61.08 27.67,33.04 45.53,74.3 50.19,117.18 12.13,0.17 24.26,0.14 36.4,0.03 -0.74,-13.53 -3.58,-26.86 -6.84,-39.98 C 525.03,178.29 503.55,139.38 473.89,108.11 447.66,80.29 414.95,58.82 379.38,44.94 307.75,17.31 223.69,23.39 157.41,62.47 M 271.6,78.99 c -42.81,2.97 -84.58,19.56 -117.53,47.09 -19.54,16.27 -36.22,36.07 -48.46,58.38 -26.3,46.67 -33.04,103.74 -18.86,155.35 9.67,35.73 29.2,68.73 55.9,94.36 26.13,25.23 59,43.42 94.34,51.88 21.55,5.48 43.97,6.68 66.09,5.25 36.59,-2.9 72.32,-15.75 102.3,-36.94 32.39,-22.79 58.05,-55.07 72.73,-91.87 13.73,-33.87 17.77,-71.38 12.66,-107.5 -5.78,-39.7 -23.36,-77.67 -50.22,-107.51 C 417.9,121.93 388.69,102.28 356.56,90.74 329.48,80.9 300.32,77.03 271.6,78.99 M 28.72,281.25 c 0,2.18 0,4.36 0,6.55 11.96,0.37 23.94,0.23 35.9,0.07 0,-2.25 0.01,-4.5 0.02,-6.75 -11.97,-0.12 -23.96,-0.35 -35.92,0.13 m 479.13,-0.18 c 0.02,2.29 0.04,4.58 0.05,6.87 12.18,0.02 24.37,0.23 36.55,-0.11 -0.01,-2.22 -0.02,-4.43 -0.01,-6.65 -12.2,-0.36 -24.4,-0.15 -36.59,-0.11 m -1.13,27.1 c -3.42,35.55 -15.96,70.12 -35.66,99.88 -18.92,28.6 -44.62,52.71 -74.45,69.65 C 361.72,497.73 321.25,508.07 281,506.83 236.43,506.1 192.27,491.15 156.21,464.99 106.08,429.22 72.34,371.38 66.09,310.11 54.1,309.9 42.12,310.02 30.14,310.04 c 4.79,57.3 30.37,112.33 69.93,153.9 27.28,28.63 61.36,50.56 98.47,64.13 61.52,22.34 131.63,20.34 191.54,-6.2 35.66,-15.53 67.75,-39.24 92.93,-68.9 24.79,-29.17 42.97,-63.92 52.84,-100.9 3.88,-14.38 6.09,-29.13 7.76,-43.91 -12.29,-0.25 -24.6,-0.27 -36.89,0.01 z"
       id="path158"
       inkscape:connector-curvature="0"
       style="opacity:1;fill:#231815" />
  </g>
  <g
     id="#ae2315ff"
     transform="matrix(0.08406305,0,0,0.08406305,-0.04089538,-7.7499999e-7)">
    <path
       d="m 157.41,62.47 c 66.28,-39.08 150.34,-45.16 221.97,-17.53 35.57,13.88 68.28,35.35 94.51,63.17 29.66,31.27 51.14,70.18 62.15,111.83 3.26,13.12 6.1,26.45 6.84,39.98 -12.14,0.11 -24.27,0.14 -36.4,-0.03 C 501.82,217.01 483.96,175.75 456.29,142.71 434.2,116.27 405.79,95.19 374.13,81.63 319.4,57.85 255.02,57.62 200.08,80.9 c -25.02,10.57 -48.2,25.62 -67.7,44.57 -37.36,35.71 -61.43,84.99 -66.52,136.43 -11.92,0.19 -23.85,0.08 -35.77,0.06 6.5,-81.94 55.72,-159.11 127.32,-199.49 M 303.87,38.79 c -0.54,4.26 -0.9,8.6 -0.46,12.87 1.3,4.18 6.56,4.7 10.22,3.9 0.21,0.25 0.63,0.73 0.84,0.98 1.09,0.1 2.18,0.2 3.28,0.3 0.54,-3.83 0.95,-7.66 1.28,-11.51 -1.66,-0.01 -3.32,0.02 -4.97,0.07 -0.07,-0.52 -0.2,-1.55 -0.26,-2.06 1.91,0.24 3.84,0.49 5.76,0.74 -0.23,-2.39 0.54,-5.35 -1.44,-7.18 -2.45,-2.25 -6.02,-2.87 -9.23,-2.52 -2.36,0.26 -4.96,1.78 -5.02,4.41 m -31.45,-1.88 c 0.19,6.01 0.71,12 0.91,18.01 1.97,-0.05 3.95,-0.11 5.93,-0.16 0.06,-3.87 -0.37,-7.76 -0.08,-11.62 1.02,-0.77 2.17,-1.4 3.12,-2.27 0.18,-1.44 0.29,-2.87 0.33,-4.32 -1.05,0.33 -2.09,0.66 -3.13,0.98 -2.3,-0.65 -4.71,-0.7 -7.08,-0.62 m -17.36,5.99 c -0.02,3.54 0.3,7.2 1.55,10.53 2.42,3.4 7.66,2.96 10.98,1.21 2.62,-1.37 2.34,-4.56 2.62,-7.05 -2.1,0.13 -4.19,0.26 -6.28,0.4 -0.08,1.9 0.41,4.22 -1.47,5.44 -0.3,-1.88 -0.6,-3.76 -0.76,-5.66 2.66,-0.61 5.41,-0.67 8.14,-0.72 -0.35,-2.43 0.1,-5.29 -1.62,-7.28 -1.83,-2.04 -4.84,-1.97 -7.35,-1.73 -2.61,0.23 -5.78,1.9 -5.81,4.86 m -6.45,-3.25 c -0.28,3.42 -0.57,6.83 -0.91,10.24 -1.34,-3.07 -2.53,-6.21 -3.63,-9.37 -1.94,0.34 -3.87,0.68 -5.81,1 -0.05,3.56 0.01,7.13 0.19,10.7 -1.58,-3.15 -3.11,-6.32 -4.52,-9.54 -1.84,0.39 -3.68,0.79 -5.52,1.18 2.5,5.61 5.21,11.12 7.66,16.75 2.05,-0.59 4.44,-0.6 6.23,-1.84 0.4,-2.56 0.45,-5.15 0.69,-7.73 1.08,2.34 1.98,4.77 3.21,7.04 2.18,0.25 4.36,-0.52 6.51,-0.87 0.24,-6.12 0.81,-12.21 1.35,-18.31 -1.82,0.25 -3.64,0.5 -5.45,0.75 m 75.44,2.38 c -1.45,1.34 -1.35,3.56 -2.02,5.3 2.09,0.34 4.18,0.67 6.28,1 0.35,-1.6 0.7,-3.2 1.09,-4.8 1.94,0.93 1.29,3.04 1.25,4.74 -2.86,0.48 -5.98,0.35 -8.56,1.82 -0.68,2.23 -1.69,5.55 0.63,7.18 3.87,1.33 8.03,1.64 11.95,2.87 0.74,-4.75 2.2,-9.42 2.32,-14.26 0.13,-1.81 -1.61,-3.04 -3.03,-3.8 -3.05,-1.39 -6.99,-2.11 -9.91,-0.05 m 16.82,1.29 c -1.15,5.9 -2.51,11.75 -3.55,17.67 1.9,0.35 3.8,0.77 5.73,0.98 1.52,-4.2 1.81,-8.73 3.39,-12.91 0.49,-0.29 1.46,-0.88 1.94,-1.18 -0.74,5.06 -2.14,9.98 -3.32,14.95 1.96,0.56 3.93,1.13 5.89,1.71 1.84,-4.78 1.36,-10.9 5.36,-14.55 -0.27,5.24 -2.24,10.14 -3.53,15.17 1.95,0.64 3.9,1.3 5.83,1.99 1.28,-5.03 3.47,-9.87 4.12,-15.04 -0.52,-3.5 -4.85,-4.03 -7.73,-3.58 -2.05,-1.9 -4.61,-2.76 -7.36,-2.93 -2.13,-1.11 -4.43,-1.8 -6.77,-2.28 m -121.52,3.16 c -3.08,0.93 -5.8,4.04 -4.53,7.4 1,3.41 1.28,7.75 4.39,9.97 4.41,1.26 12.01,-1.08 11.29,-6.79 -0.47,-3.34 -0.89,-6.91 -2.67,-9.85 -2.26,-2.17 -5.78,-1.65 -8.48,-0.73 m -24.46,4.83 c 2.37,6.87 4.93,13.68 7.59,20.45 1.85,-0.73 3.71,-1.47 5.56,-2.22 -0.84,-2.62 -1.72,-5.24 -2.61,-7.85 3.14,-1.6 9.01,-2.96 7.63,-7.7 -0.67,-2.74 -1.44,-7.11 -5.11,-6.96 -4.62,0.4 -8.78,2.69 -13.06,4.28 m 173.58,-3.24 c -0.21,0.74 -0.63,2.22 -0.84,2.96 2.07,0.77 4.14,1.56 6.21,2.36 0.27,-0.98 0.55,-1.96 0.84,-2.93 -2.08,-0.8 -4.15,-1.6 -6.21,-2.39 m -1.13,3.5 c -1.75,5.68 -3.71,11.29 -5.36,17 1.95,0.63 3.89,1.27 5.84,1.93 1.79,-5.58 3.83,-11.08 5.67,-16.64 -2.07,-0.73 -4.11,-1.51 -6.15,-2.29 m -190.33,8.51 c 1.16,3.22 2.77,6.26 4.14,9.4 1.73,-0.89 3.46,-1.77 5.2,-2.66 0.53,-1.3 0.76,-3.08 2.57,-3 2.15,2.42 3.05,5.73 3.85,8.81 -2.77,2.49 -3.83,-2.01 -5,-3.8 -1.9,0.99 -3.81,1.97 -5.71,2.96 1.45,2.23 2.59,5.89 5.94,5.52 4.05,-0.26 8.65,-2.28 10.22,-6.27 0.09,-3.75 -1.51,-7.48 -3.58,-10.54 -3.08,-2.69 -6.96,0.15 -9.43,2.29 -0.27,-0.78 -0.82,-2.33 -1.09,-3.11 2.93,-1.42 5.89,-2.77 8.88,-4.05 -0.27,-1.03 -0.55,-2.07 -0.83,-3.1 -5.08,2.43 -10.51,4.32 -15.16,7.55 m 193.55,11.96 c 1.95,0.65 3.88,1.38 5.81,2.14 1.39,-3.62 2.62,-7.31 4.18,-10.87 0.38,-1.3 1.56,-2 2.61,-2.74 -0.7,5.19 -3.41,9.77 -5.04,14.68 1.79,0.89 3.58,1.79 5.39,2.68 1.98,-4.59 4.47,-9.02 5.76,-13.88 0.63,-3.6 -3.55,-4.59 -6.16,-5.32 -2.07,-1.34 -4.17,-2.64 -6.43,-3.62 -2.06,5.63 -4.22,11.23 -6.12,16.93 m 22.96,-6.47 c -2.37,3.03 -3.92,6.73 -4.83,10.46 0.05,3.46 3.89,4.56 6.63,5.26 -0.37,0.36 -1.11,1.09 -1.49,1.45 -2.23,-1.79 -4.57,-3.47 -7.26,-4.53 -0.33,4.59 4.12,6.99 7.81,8.33 1.94,0.77 4.72,0.74 5.71,-1.44 2.69,-4.56 4.99,-9.35 7.37,-14.08 -2.06,-1.16 -4.21,-2.16 -6.36,-3.13 -2.16,-1.37 -4.96,-4.19 -7.58,-2.32 z"
       id="path161"
       inkscape:connector-curvature="0"
       style="opacity:1;fill:#ae2315" />
    <path
       d="m 310.2,38.59 c 0.8,0 2.39,0 3.19,0 0.83,3.75 -2.95,6.97 -0.94,10.5 -0.12,0.72 -0.35,2.16 -0.47,2.88 -0.69,-0.06 -2.07,-0.16 -2.77,-0.21 0.16,-4.4 0.5,-8.79 0.99,-13.17 z"
       id="path163"
       inkscape:connector-curvature="0"
       style="opacity:1;fill:#ae2315" />
    <path
       d="m 261.05,40.67 c 1.89,0.24 2.17,1.95 2.53,3.49 -0.54,0.14 -1.62,0.42 -2.16,0.56 -0.14,-1.35 -0.26,-2.7 -0.37,-4.05 z"
       id="path165"
       inkscape:connector-curvature="0"
       style="opacity:1;fill:#ae2315" />
    <path
       d="m 220.27,49.04 c 0.48,0.2 1.43,0.59 1.91,0.78 1.53,3.46 2.37,7.24 2.62,11.01 -0.34,-0.05 -1.02,-0.17 -1.36,-0.22 -1.59,-3.68 -2.3,-7.67 -3.17,-11.57 z"
       id="path167"
       inkscape:connector-curvature="0"
       style="opacity:1;fill:#ae2315" />
    <path
       d="m 328,56.14 c -1.27,-2.18 0.18,-4.12 1.95,-5.39 -0.43,1.84 0.12,4.41 -1.95,5.39 z"
       id="path169"
       inkscape:connector-curvature="0"
       style="opacity:1;fill:#ae2315" />
    <path
       d="m 202.2,52.37 c 1.5,0.13 3.98,-0.98 4.09,1.34 1.24,1.93 -0.46,3.27 -1.81,4.45 -0.75,-1.93 -1.51,-3.86 -2.28,-5.79 z"
       id="path171"
       inkscape:connector-curvature="0"
       style="opacity:1;fill:#ae2315" />
    <path
       d="m 394.71,79.47 c 0.55,-3.67 1.6,-8.56 5.54,-9.94 -1.09,3.65 -2.42,7.5 -5.54,9.94 z"
       id="path173"
       inkscape:connector-curvature="0"
       style="opacity:1;fill:#ae2315" />
    <path
       d="m 271.6,78.99 c 28.72,-1.96 57.88,1.91 84.96,11.75 32.13,11.54 61.34,31.19 83.99,56.74 26.86,29.84 44.44,67.81 50.22,107.51 5.11,36.12 1.07,73.63 -12.66,107.5 -14.68,36.8 -40.34,69.08 -72.73,91.87 -29.98,21.19 -65.71,34.04 -102.3,36.94 -22.12,1.43 -44.54,0.23 -66.09,-5.25 -35.34,-8.46 -68.21,-26.65 -94.34,-51.88 -26.7,-25.63 -46.23,-58.63 -55.9,-94.36 -14.18,-51.61 -7.44,-108.68 18.86,-155.35 12.24,-22.31 28.92,-42.11 48.46,-58.38 32.95,-27.53 74.72,-44.12 117.53,-47.09 m -9.33,48.49 c -0.02,3.05 -0.04,6.1 -0.05,9.15 6.41,0.72 13.09,1.21 18.95,4.12 4.12,2.04 4.82,7.11 4.84,11.22 -0.06,96.09 0.06,192.18 -0.06,288.27 -29.52,-2.51 -58.31,-13.4 -81.84,-31.45 -13.84,-10.73 -26.03,-23.65 -35.57,-38.35 -16.86,-25.8 -25.72,-56.62 -25.41,-87.42 24.67,-0.04 49.34,-0.01 74.01,-0.01 0.85,-5.66 1.52,-11.33 2.18,-17.01 -25.07,-0.03 -50.15,0.05 -75.23,-0.04 2.53,-22.58 9.91,-44.63 21.75,-64.04 17.55,-29.2 45.13,-52.19 76.97,-64.29 0.01,-3.17 -0.06,-6.33 -0.13,-9.5 -49.28,14.44 -90.48,53.41 -107.65,101.81 -8.73,23.9 -11.6,49.8 -8.87,75.07 3.29,29.84 14.88,58.74 33.22,82.51 14.43,18.29 32.33,34.06 53.04,44.86 23.76,12.69 50.68,19.54 77.63,19.4 37.11,0.4 74.16,-12.47 103.21,-35.53 13.93,-11.44 26.72,-24.64 36.15,-40.09 -1.17,-0.61 -2.34,-1.22 -3.5,-1.82 -7.02,9.67 -14.81,18.85 -23.8,26.75 -27.69,25.05 -64.78,39.36 -102.11,39.52 0,-100.87 0.01,-201.74 -0.01,-302.61 12.04,0.17 24.1,-0.89 36.11,0.29 8.19,0.82 16.33,4.58 21.38,11.23 5.22,6.64 6.98,15.24 7.49,23.49 0.42,8.94 -0.84,18.44 -6.05,25.95 -5.97,9.07 -16.78,14.19 -27.45,14.66 -9.49,0.36 -18.99,-0.14 -28.47,0.28 0,3.7 0,7.4 0,11.1 10.67,-0.01 21.34,0.01 32.01,0 17.02,-0.28 34.48,-6.09 46.7,-18.29 9.56,-9.57 14.36,-23.27 13.85,-36.7 0.34,-11.38 -4.89,-22.69 -13.8,-29.78 -11.13,-9.27 -25.96,-12.64 -40.17,-12.64 -26.44,-0.24 -52.88,-0.02 -79.32,-0.11 m -6.15,86.25 c -3.46,29.49 -7.07,58.97 -10.5,88.46 2.77,1.09 5.54,2.17 8.33,3.21 6.44,-8.66 16.35,-14.3 27.04,-15.67 0.02,-4.23 0.02,-8.47 -0.04,-12.7 -7.19,2.11 -13.92,5.46 -20.33,9.29 2.66,-20.45 5.56,-40.87 8.64,-61.26 3.91,-0.07 7.82,-0.07 11.74,-0.06 0,-3.76 0,-7.51 0,-11.26 -8.3,0 -16.59,0.01 -24.88,-0.01 M 304,276.39 c 0.01,5.74 -0.05,11.48 0.06,17.22 12.36,7.43 18.36,22.39 17.72,36.4 0.46,16.13 -4.14,33.99 -17.78,43.94 -0.01,4.49 0,8.99 0.01,13.49 21.6,-5.53 39.89,-23.77 43.56,-46.04 2.1,-13.91 1.52,-29.23 -6.4,-41.36 C 333.24,286.93 319,278.56 304,276.39 m -62.8,64.83 c -5.33,2.68 -7.18,9.26 -7.05,14.82 -0.15,7.77 4.26,14.88 9.99,19.8 10.09,8.95 23.57,13.11 36.86,13.77 0.01,-3.44 0,-6.87 -0.03,-10.31 -8.05,-0.7 -15.97,-3.26 -22.42,-8.22 1.34,-7.13 4.21,-14.33 2.88,-21.68 -2.4,-8.3 -12.83,-11.18 -20.23,-8.18 z"
       id="path175"
       inkscape:connector-curvature="0"
       style="opacity:1;fill:#ae2315" />
    <path
       d="m 28.72,281.25 c 11.96,-0.48 23.95,-0.25 35.92,-0.13 -0.01,2.25 -0.02,4.5 -0.02,6.75 -11.96,0.16 -23.94,0.3 -35.9,-0.07 0,-2.19 0,-4.37 0,-6.55 z"
       id="path177"
       inkscape:connector-curvature="0"
       style="opacity:1;fill:#ae2315" />
    <path
       d="m 507.85,281.07 c 12.19,-0.04 24.39,-0.25 36.59,0.11 -0.01,2.22 0,4.43 0.01,6.65 -12.18,0.34 -24.37,0.13 -36.55,0.11 -0.01,-2.29 -0.03,-4.58 -0.05,-6.87 z"
       id="path179"
       inkscape:connector-curvature="0"
       style="opacity:1;fill:#ae2315" />
    <path
       d="m 506.72,308.17 c 12.29,-0.28 24.6,-0.26 36.89,-0.01 -1.67,14.78 -3.88,29.53 -7.76,43.91 -9.87,36.98 -28.05,71.73 -52.84,100.9 -25.18,29.66 -57.27,53.37 -92.93,68.9 -59.91,26.54 -130.02,28.54 -191.54,6.2 -37.11,-13.57 -71.19,-35.5 -98.47,-64.13 -39.56,-41.57 -65.14,-96.6 -69.93,-153.9 11.98,-0.02 23.96,-0.14 35.95,0.07 6.25,61.27 39.99,119.11 90.12,154.88 36.06,26.16 80.22,41.11 124.79,41.84 40.25,1.24 80.72,-9.1 115.61,-29.13 29.83,-16.94 55.53,-41.05 74.45,-69.65 19.7,-29.76 32.24,-64.33 35.66,-99.88 M 352.5,505.39 c -1.95,2.27 -0.91,5.32 -0.54,7.95 1.48,-0.37 2.97,-0.74 4.45,-1.1 -0.16,-2.02 -1.77,-4.59 0.57,-6 2.42,6.92 -2.13,13.69 -1.19,20.68 3.76,-1.08 7.49,-2.22 11.23,-3.38 -0.26,-1.11 -0.51,-2.21 -0.76,-3.3 -1.61,0.5 -3.22,1 -4.83,1.51 1.08,-4.97 3.42,-10.42 1.15,-15.37 -1.81,-3.8 -7.4,-3.74 -10.08,-0.99 m -134.54,0.56 c -2.26,2.22 -3.26,6.4 -0.92,8.92 1.75,2.62 5.41,4.7 4.38,8.33 -0.77,-0.16 -2.31,-0.48 -3.08,-0.63 0.3,-1.3 0.61,-2.6 0.93,-3.88 -1.97,-0.52 -3.93,-1.05 -5.88,-1.6 -0.24,1.93 -0.83,3.88 -0.57,5.86 1.95,3.96 7.08,5.08 11.12,4.44 3.51,-0.84 3.95,-5.42 3.39,-8.37 -1.71,-3.12 -4.35,-5.6 -6.32,-8.55 0.65,-0.17 1.95,-0.49 2.6,-0.66 -0.16,0.8 -0.47,2.4 -0.63,3.2 1.92,0.35 3.85,0.72 5.78,1.09 -0.11,-2.28 1.03,-5.22 -1.17,-6.81 -2.64,-1.94 -6.65,-3.19 -9.63,-1.34 m 15.35,2.05 c -1.7,7.18 -3.27,14.4 -5.1,21.55 1.97,0.46 3.96,0.94 5.93,1.46 1.49,-7.33 3.08,-14.64 4.57,-21.97 -1.8,-0.36 -3.6,-0.69 -5.4,-1.04 m 105.94,0.23 c -1.85,0.75 -3.39,2.63 -3.22,4.72 0.37,4.46 1.36,8.88 2.61,13.17 1.99,6.46 14.26,3.6 12.92,-3.14 -0.75,-4.18 -1.85,-8.31 -3.28,-12.29 -1.29,-3.61 -6.02,-3.84 -9.03,-2.46 m -102.06,23.34 c 1.98,0.32 3.95,0.67 5.93,1.05 0.67,-2.89 1.35,-5.76 2.12,-8.62 0.31,3.05 0.61,6.09 0.91,9.15 1.58,0.24 3.16,0.49 4.75,0.74 1.14,-7.36 2.12,-14.75 3.19,-22.12 -1.82,-0.22 -3.64,-0.46 -5.46,-0.69 -0.58,2.75 -1.2,5.51 -1.97,8.22 -0.33,-2.95 -0.58,-5.91 -0.84,-8.87 -1.41,-0.26 -2.81,-0.51 -4.22,-0.76 -1.56,7.28 -2.87,14.61 -4.41,21.9 m 86.12,-20 c -1.71,0.78 -2.98,2.53 -2.81,4.47 0.12,4.33 0.82,8.65 1.74,12.89 1.5,7.01 14.8,4.39 13.01,-2.88 -0.66,-4.26 -1.2,-8.62 -2.78,-12.65 -1.64,-3.32 -6.25,-3.19 -9.16,-1.83 m -66.7,5.32 c -0.94,4.62 -1.71,9.38 -1.47,14.11 1.32,4.17 7.03,4.97 10.66,3.69 3.81,-1.3 3.72,-5.87 4.07,-9.16 -1.91,-0.16 -3.83,-0.31 -5.74,-0.46 -0.22,2.01 -0.45,4.02 -0.7,6.03 -1.09,-0.34 -2.8,-0.3 -2.57,-1.93 0,-4.03 0.75,-8.02 1.36,-11.99 0.61,0.07 1.84,0.2 2.46,0.27 -0.07,1.67 -0.14,3.34 -0.21,5.03 1.9,0.08 3.8,0.19 5.7,0.29 -0.09,-2.94 0.83,-7.06 -2.45,-8.66 -3.55,-1.98 -9.8,-1.88 -11.11,2.78 m 50.66,-2.57 c -1.95,1.86 -1.37,4.82 -1.67,7.24 1.55,-0.1 3.1,-0.19 4.66,-0.28 0.01,-1.9 0.08,-3.78 0.14,-5.67 0.86,0.92 2.51,1.9 1.7,3.43 -1.13,5.74 -4.81,10.65 -5.45,16.52 4.05,-0.27 8.1,-0.67 12.13,-1.16 -0.21,-0.76 -0.61,-2.27 -0.81,-3.03 -1.56,-0.01 -3.11,0.13 -4.66,0.23 2.1,-4.56 5.06,-9.34 4.07,-14.57 -0.94,-4.41 -7.02,-5.61 -10.11,-2.71 m -34.3,-0.61 c -0.47,7.41 -0.89,14.82 -1.31,22.24 3.87,0.24 7.73,0.35 11.61,0.34 -0.01,-1.44 -0.01,-2.87 -0.01,-4.3 -1.85,0 -3.7,-0.01 -5.55,0 0.05,-1.6 0.11,-3.18 0.18,-4.76 1.45,0.01 2.91,0.02 4.37,0.04 0,-1.43 0,-2.85 0.01,-4.27 -1.45,-0.01 -2.89,-0.02 -4.32,-0.02 0.12,-1.59 0.25,-3.17 0.38,-4.75 1.34,0.02 2.69,0.05 4.03,0.08 0.09,-1.4 0.18,-2.8 0.28,-4.18 -3.22,-0.12 -6.45,-0.26 -9.67,-0.42 z"
       id="path181"
       inkscape:connector-curvature="0"
       style="opacity:1;fill:#ae2315" />
    <path
       d="m 341.09,510.64 c 1.32,0.44 2.07,1.51 2.3,2.86 1.13,4.37 2.34,8.75 2.74,13.26 -1.32,-0.79 -2.08,-2.08 -2.34,-3.56 -1.01,-4.16 -2.01,-8.33 -2.7,-12.56 z"
       id="path183"
       inkscape:connector-curvature="0"
       style="opacity:1;fill:#ae2315" />
    <path
       d="m 325.9,513.33 c 1.25,1.25 1.98,2.85 2.15,4.61 0.61,4.12 2.01,8.25 1.2,12.45 -2.78,-5.19 -2.85,-11.32 -3.35,-17.06 z"
       id="path185"
       inkscape:connector-curvature="0"
       style="opacity:1;fill:#ae2315" />
  </g>
</svg>
