<?xml version="1.0" encoding="utf-8"?>
<!-- Generator: Adobe Illustrator 23.0.2, SVG Export Plug-In . SVG Version: 6.00 Build 0)  -->
<svg version="1.1" id="Layer_1" xmlns="http://www.w3.org/2000/svg" xmlns:xlink="http://www.w3.org/1999/xlink" x="0px" y="0px"
	 width="64px" height="64px" viewBox="0 0 64 64" style="enable-background:new 0 0 64 64;" xml:space="preserve">
<g>
	<g>
		<path style="fill:#71CE36;" d="M35.184,6.771c1.52,0,3.041,0.026,4.56-0.006c2.323-0.049,4.645-0.019,6.968-0.033
			c0.062,0,0.125-0.001,0.187,0.003c0.259,0.013,0.306,0.06,0.271,0.313c-0.201,1.443-0.475,2.871-0.792,4.293
			c-0.353,1.581-0.76,3.146-1.221,4.699c-0.788,2.658-1.73,5.261-2.807,7.815c-1.29,3.058-2.771,6.023-4.413,8.907
			c-2.195,3.857-4.614,7.566-7.334,11.075c-1.528,1.972-3.145,3.869-4.847,5.692c-1.537,1.647-3.137,3.232-4.821,4.73
			c-1.404,1.249-2.907,2.375-4.396,3.517c-0.037,0.028-0.077,0.055-0.119,0.072c-0.04,0.016-0.086,0.061-0.127,0.017
			c-0.039-0.043-0.003-0.089,0.022-0.126c0.031-0.044,0.068-0.085,0.107-0.123c3.28-3.313,6.266-6.873,8.987-10.656
			c1.961-2.727,3.723-5.582,5.413-8.485c2.306-3.962,4.148-8.134,5.758-12.417c0.988-2.63,1.888-5.29,2.656-7.993
			c0.53-1.865,0.995-3.746,1.316-5.659c0.049-0.292,0.088-0.584,0.16-0.872c0.07-0.281,0.033-0.326-0.268-0.326
			c-1.886,0-3.773,0.001-5.659,0.002c-5.714,0.002-11.428,0.005-17.141,0.008c-0.148,0-0.296,0.006-0.444,0.01
			c-0.08,0.002-0.166,0.006-0.198-0.084c-0.034-0.094,0.046-0.139,0.11-0.183c0.659-0.457,1.32-0.911,1.978-1.37
			c1.175-0.819,2.351-1.639,3.522-2.464c0.331-0.234,0.689-0.338,1.093-0.337c3.827,0.004,7.655,0.003,11.482,0.003
			C35.184,6.784,35.184,6.777,35.184,6.771z"/>
		<path style="fill:#71CE36;" d="M25.828,51.113c-0.017-0.129,0.062-0.213,0.144-0.295c1.476-1.48,2.879-3.026,4.24-4.611
			c3.057-3.56,5.788-7.356,8.254-11.345c1.705-2.757,3.28-5.585,4.67-8.514c1.265-2.667,2.361-5.403,3.365-8.177
			c0.906-2.502,1.74-5.029,2.447-7.595c0.484-1.756,0.886-3.533,1.196-5.329c0.028-0.161,0.059-0.322,0.087-0.482
			c0.048-0.269-0.024-0.36-0.303-0.359c-0.358,0.001-0.717,0.015-1.075,0.016C46,4.433,43.148,4.431,40.295,4.455
			c-4.373,0.037-8.746,0.008-13.118,0.02c-0.117,0-0.234,0.004-0.351,0.006c-0.077,0.001-0.17,0.02-0.192-0.083
			c-0.017-0.08,0.054-0.117,0.114-0.158c0.423-0.291,0.846-0.584,1.267-0.878c1.455-1.018,2.91-2.035,4.363-3.056
			c0.252-0.177,0.522-0.257,0.831-0.258c2.338-0.001,4.677,0.003,7.015-0.019C45.571-0.021,50.918,0.016,56.265,0
			c0.07,0,0.14,0,0.21,0.003c0.172,0.008,0.229,0.106,0.207,0.267c-0.113,0.833-0.25,1.663-0.418,2.487
			C56.012,4,55.748,5.24,55.436,6.47c-0.421,1.66-0.898,3.303-1.432,4.93c-1.815,5.524-4.299,10.741-7.228,15.755
			c-1.829,3.13-3.813,6.157-5.998,9.05c-1.729,2.289-3.555,4.497-5.525,6.586c-1.809,1.918-3.688,3.761-5.701,5.465
			c-1.154,0.977-2.342,1.91-3.57,2.791C25.939,51.079,25.903,51.126,25.828,51.113z"/>
		<path style="fill:#71CE36;" d="M7.541,17.678c0.499-0.355,0.965-0.691,1.436-1.02c1.372-0.96,2.75-1.911,4.117-2.878
			c0.347-0.245,0.712-0.352,1.134-0.352c4.139-0.001,8.279,0.014,12.418-0.024c3.492-0.032,6.984-0.016,10.476-0.035
			c0.078,0,0.156-0.002,0.234,0.001c0.241,0.008,0.31,0.083,0.271,0.32c-0.107,0.653-0.213,1.306-0.334,1.957
			c-0.262,1.4-0.565,2.791-0.91,4.174c-0.586,2.351-1.309,4.659-2.14,6.934c-1.278,3.499-2.791,6.894-4.543,10.181
			c-2.481,4.655-5.273,9.112-8.501,13.289c-2.708,3.503-5.687,6.761-8.919,9.787c-1.492,1.397-3.098,2.656-4.72,3.896
			c-0.062,0.047-0.139,0.147-0.219,0.055c-0.08-0.091,0.027-0.153,0.082-0.211c1.187-1.237,2.351-2.495,3.476-3.79
			c2.112-2.433,4.081-4.976,5.913-7.623c2.352-3.398,4.46-6.944,6.37-10.606c1.174-2.251,2.167-4.586,3.112-6.941
			c1.003-2.499,1.907-5.034,2.725-7.6c0.768-2.411,1.441-4.848,1.93-7.333c0.114-0.58,0.23-1.161,0.34-1.742
			c0.068-0.363,0.006-0.44-0.36-0.429c-1.792,0.052-3.585,0.036-5.378,0.014c-1.177-0.014-2.354-0.045-3.53-0.014
			c-1.816,0.048-3.632,0.031-5.448,0.052c-2.861,0.032-5.721,0.01-8.582,0.019C7.854,17.759,7.715,17.766,7.541,17.678z"/>
	</g>
</g>
</svg>
