<?xml version="1.0" encoding="utf-8"?>
<!-- Generator: Adobe Illustrator 22.0.0, SVG Export Plug-In . SVG Version: 6.00 Build 0)  -->
<svg version="1.1" id="Camada_1" xmlns="http://www.w3.org/2000/svg" xmlns:xlink="http://www.w3.org/1999/xlink" x="0px" y="0px"
	 width="64px" height="64px" viewBox="0 0 64 64" enable-background="new 0 0 64 64" xml:space="preserve">
<g>
	<g>
		<path fill="#CD142E" d="M0,38.622c0.231-0.765,0.888-0.882,1.531-0.952c0.935-0.102,1.878-0.037,2.817-0.046
			c1.268-0.012,2.531-0.109,3.797-0.163c0.83-0.035,1.541,0.229,2.135,0.815c0.505,0.499,1.028,0.98,1.528,1.484
			c0.401,0.405,0.863,0.604,1.439,0.58c0.716-0.03,1.434-0.024,2.15-0.039c0.627-0.013,1.024-0.419,1.018-1.048
			c-0.005-0.48,0.004-0.96-0.025-1.44c-0.042-0.691-0.33-1.255-0.831-1.719c-0.831-0.769-1.538-1.626-1.959-2.693
			c-0.294-0.744-0.461-1.509-0.487-2.312c-0.081-2.525-0.189-5.05-0.268-7.575c-0.058-1.871-0.152-3.743-0.06-5.616
			c0.019-0.382,0.048-0.763,0.157-1.134c0.035-0.117,0.092-0.163,0.219-0.167c0.563-0.019,1.126-0.054,1.69-0.076
			c0.119-0.005,0.203-0.032,0.283-0.132c0.146-0.184,0.271-0.158,0.367,0.065c0.143,0.331,0.172,0.688,0.2,1.04
			c0.127,1.585,0.091,3.172,0.064,4.759c-0.05,2.923-0.211,5.844-0.141,8.769c0.026,1.099,0.455,2.035,1.216,2.824
			c0.319,0.33,0.666,0.633,0.955,0.993c0.695,0.865,1.059,1.856,1.082,2.961c0.014,0.667,0.068,1.339-0.03,2.002
			c-0.228,1.546-1.36,2.731-2.917,2.887c-1.234,0.123-2.49,0.12-3.723-0.102c-0.693-0.125-1.287-0.484-1.787-0.978
			c-0.564-0.558-1.117-1.128-1.663-1.704c-0.177-0.187-0.369-0.268-0.624-0.271c-1.615-0.015-3.23-0.008-4.845,0.016
			c-0.061,0.001-0.136-0.014-0.161,0.06c-0.024,0.068,0.032,0.116,0.076,0.16c1.332,1.336,2.661,2.675,4,4.004
			c0.423,0.42,0.949,0.618,1.548,0.62c2.805,0.011,5.611,0.021,8.416,0.034c1.03,0.005,2.06,0.021,3.091,0.025
			c1.381,0.005,2.467-0.874,2.74-2.219c0.071-0.35,0.053-0.707,0.055-1.062c0.013-2.242-0.003-4.484,0.046-6.724
			c0.043-1.947,0.954-3.434,2.586-4.481c0.632-0.405,1.282-0.782,1.916-1.184c0.693-0.439,1.101-1.079,1.202-1.889
			c0.056-0.447,0.041-0.903,0.051-1.355c0.021-0.974,0.037-1.949,0.057-2.923c0.007-0.335,0.053-0.663,0.19-0.976
			c0.203-0.465,0.808-0.938,1.471-0.907c4.775,0.22,8.826,2.056,12.203,5.416c0.088,0.088,0.17,0.181,0.258,0.275
			c0.059-0.057,0.031-0.123,0.031-0.179c0.005-0.696,0.005-1.392,0.01-2.088c0.004-0.478,0.107-0.938,0.267-1.386
			c0.085-0.24,0.384-0.337,0.626-0.212c0.46,0.239,0.877,0.535,1.237,0.911c0.751,0.785,1.501,1.569,2.264,2.343
			c0.779,0.791,1.158,1.724,1.118,2.842c-0.066,1.829-0.116,3.66-0.134,5.49c-0.001,0.066,0,0.132,0.018,0.203
			c0.344-0.796,0.894-1.436,1.473-2.057c0.612-0.656,1.352-1.131,2.138-1.543c0.674-0.353,1.382-0.615,2.129-0.77
			c0.067-0.014,0.183,0.02,0.147-0.148c-0.295-1.379-0.567-2.765-1.002-4.108c-0.747-2.308-1.627-4.56-2.763-6.714
			c-2.379-4.514-5.767-8.084-10.01-10.874c-1.182-0.777-2.507-1.253-3.811-1.767c-1.007-0.397-2.013-0.802-3.052-1.113
			c-0.545-0.163-1.088-0.341-1.641-0.474C31.49,4.74,30.88,4.744,30.276,4.7c-0.744-0.054-1.489,0.014-2.233-0.04
			c-0.272-0.02-0.539-0.066-0.79-0.178c-0.362-0.162-0.499-0.431-0.392-0.811c0.083-0.295,0.061-0.594,0.069-0.891
			c0.02-0.717,0.033-1.434,0.033-2.151c0-0.247,0.12-0.372,0.331-0.441c0.367-0.119,0.742-0.086,1.118-0.061
			c1.062,0.069,2.084,0.336,3.095,0.645c1.408,0.43,2.835,0.802,4.22,1.301c1.882,0.678,3.651,1.599,5.353,2.646
			c0.316,0.194,0.57,0.466,0.845,0.712c0.239,0.214,0.495,0.403,0.76,0.584c1.133,0.774,2.211,1.616,3.232,2.534
			c1.821,1.637,3.401,3.48,4.793,5.492c1.232,1.781,2.053,3.746,2.673,5.805c0.37,1.23,0.827,2.433,1.109,3.69
			c0.422,1.881,0.665,3.78,0.606,5.711c-0.005,0.153-0.015,0.306-0.036,0.458c-0.02,0.151-0.007,0.22,0.185,0.192
			c0.808-0.115,1.622-0.148,2.437-0.091c2.099,0.146,3.968,0.856,5.545,2.273c0.285,0.256,0.549,0.535,0.725,0.882
			c0.053,0.104,0.1,0.165-0.106,0.168c-0.836,0.01-1.662-0.134-2.497-0.136c-0.736-0.001-1.452,0.077-2.148,0.346
			c-0.692,0.267-1.425,0.427-2.075,0.802c-0.168,0.097-0.423,0.173-0.471,0.315c-0.051,0.151,0.23,0.234,0.353,0.361
			c0.599,0.618,0.88,1.36,0.878,2.209c-0.002,0.856-0.02,1.712-0.04,2.568c-0.003,0.142,0.037,0.205,0.17,0.256
			c1.237,0.468,2.514,0.644,3.83,0.538c0.069-0.006,0.139-0.01,0.208-0.014c0.451-0.026,0.451-0.026,0.656,0.464
			c0.108,0.257,0.025,0.576-0.206,0.773c-0.058,0.049-0.123,0.093-0.19,0.127c-1.179,0.601-2.433,0.937-3.748,1.059
			c-0.43,0.04-0.862,0.054-1.293,0.039c-0.115-0.004-0.169,0.036-0.223,0.135c-0.469,0.865-1.106,1.577-1.922,2.135
			c-2.494,1.703-4.887,3.546-7.316,5.339c-0.838,0.619-1.765,0.953-2.817,0.924c-0.786-0.022-1.573-0.02-2.36-0.034
			c-0.125-0.002-0.195,0.031-0.263,0.145c-0.423,0.715-1.074,1.025-1.887,1.002c-0.808-0.023-1.426-0.38-1.808-1.104
			c-0.054-0.102-0.118-0.114-0.212-0.116c-0.341-0.007-0.682-0.009-1.017-0.086c-0.358-0.082-0.67-0.261-0.979-0.447
			c-0.005-0.018-0.013-0.037-0.034-0.021c-0.005,0.004,0.006,0.03,0.009,0.046c0.501,1.198,1.025,2.387,1.496,3.597
			c0.352,0.903,0.881,1.648,1.601,2.3c1.61,1.458,3.18,2.959,4.771,4.438c0.39,0.363,0.727,0.765,1.002,1.222
			c0.295,0.489,0.08,1.132-0.46,1.323c-0.375,0.133-0.762,0.211-1.162,0.214c-2.409,0.016-4.817,0.037-7.226,0.048
			c-0.554,0.002-1.03-0.221-1.424-0.604c-0.713-0.695-1.409-1.407-2.126-2.097c-0.45-0.433-0.645-0.926-0.555-1.556
			c0.158-1.115,0.279-2.236,0.418-3.354c0.028-0.224,0.017-0.435-0.075-0.651c-0.714-1.689-1.421-3.38-2.123-5.074
			c-0.115-0.278-0.296-0.448-0.582-0.548c-0.834-0.291-1.681-0.534-2.529-0.776c-0.721-0.206-1.207-0.644-1.497-1.334
			c-0.518-1.229-1.054-2.45-1.583-3.674c-0.03-0.069-0.063-0.136-0.101-0.218c-0.251,0.483-0.578,0.886-0.97,1.236
			c-0.851,0.762-1.861,1.137-2.991,1.145c-3.898,0.026-7.797,0.042-11.696,0.043c-1.139,0.001-2.11-0.465-2.916-1.253
			c-1.135-1.11-2.251-2.238-3.376-3.358c-0.454-0.452-0.908-0.904-1.365-1.353C0.558,40.058,0.224,39.587,0,39.039
			C0,38.9,0,38.761,0,38.622z M44.309,32.162c-0.041-0.047-0.057-0.07-0.077-0.089c-0.836-0.801-1.162-1.807-1.174-2.935
			c-0.007-0.661,0.001-1.322,0.008-1.984c0.001-0.107-0.028-0.178-0.11-0.25c-2.559-2.258-5.465-3.849-8.812-4.599
			c-1.055-0.236-2.124-0.357-3.2-0.429c-0.595-0.04-0.901,0.279-0.884,0.852c0.032,1.05,0.021,2.102,0.029,3.153
			c0.004,0.556,0.044,1.113-0.075,1.664c-0.252,1.164-0.933,2.01-1.926,2.633c-0.553,0.347-1.104,0.7-1.646,1.065
			c-1.235,0.831-1.835,1.998-1.797,3.485c0.043,1.718,0.095,3.437,0.143,5.155c0.011,0.385,0.012,0.371,0.392,0.366
			c0.959-0.013,1.798-0.317,2.496-0.987c0.569-0.545,0.874-1.222,1.025-1.986c0.071-0.359,0.149-0.72,0.378-1.028
			c0.411-0.552,0.996-0.687,1.628-0.666c0.716,0.024,1.43,0.095,2.133,0.24c2.171,0.45,4.018,1.47,5.501,3.13
			c0.033,0.037,0.05,0.104,0.134,0.086c0-0.703-0.009-1.406,0.002-2.108c0.018-1.12,0.453-2.05,1.311-2.774
			c0.421-0.355,0.924-0.56,1.428-0.761C42.239,32.989,43.262,32.58,44.309,32.162z M47.217,32.793
			c-0.1,0.037-0.159,0.056-0.216,0.08c-1.162,0.479-2.324,0.958-3.486,1.436c-0.719,0.296-1.445,0.577-2.156,0.892
			c-0.744,0.331-1.13,0.918-1.131,1.741c-0.003,2.04-0.005,4.079-0.001,6.119c0,0.16-0.05,0.269-0.162,0.379
			c-0.797,0.787-1.587,1.583-2.383,2.372c-0.277,0.275-0.417,0.603-0.418,0.99c-0.002,0.543-0.003,1.086,0.001,1.629
			c0.004,0.505,0.313,0.819,0.819,0.83c0.257,0.005,0.515-0.011,0.772-0.014c0.757-0.011,1.289,0.34,1.574,1.037
			c0.018,0.043,0.016,0.107,0.076,0.111c0.078,0.005,0.072-0.073,0.091-0.119c0.282-0.718,0.813-1.086,1.587-1.088
			c0.884-0.002,1.768-0.014,2.652,0.008c0.672,0.017,1.244-0.188,1.777-0.594c1.272-0.97,2.562-1.918,3.845-2.874
			c1.177-0.877,2.368-1.737,3.499-2.674c0.697-0.578,1.114-1.337,1.224-2.234c0.126-1.021-0.007-2.049,0.023-3.078
			c-0.147,0.286-0.272,0.576-0.46,0.835c-0.333,0.458-0.761,0.819-1.221,1.128c-0.687,0.461-1.447,0.65-2.283,0.481
			c-1.232-0.249-2.04-1.014-2.605-2.087c-0.071-0.135-0.131-0.275-0.196-0.412c-0.035,0.824-0.041,1.639-0.031,2.453
			c0.002,0.172-0.05,0.275-0.192,0.374c-1.915,1.339-3.822,2.69-5.741,4.025c-0.423,0.294-0.626,0.667-0.617,1.176
			c0.007,0.431,0.001,0.863-0.014,1.294c-0.032,0.927-0.613,1.422-1.517,1.304c-0.524-0.069-0.954-0.526-0.976-1.04
			c-0.025-0.574,0.325-1.035,0.876-1.157c0.182-0.04,0.36,0.002,0.54,0.015c0.341,0.026,0.357,0.025,0.33-0.319
			c-0.066-0.855,0.264-1.494,0.959-1.998c1.02-0.738,2.007-1.521,3.014-2.278c0.115-0.086,0.137-0.152,0.086-0.288
			c-0.312-0.842,0.153-1.727,1.023-1.963c0.377-0.102,0.742-0.064,1.114,0.127C47.268,37.2,47.243,35.011,47.217,32.793z
			 M30.778,39.002c-0.03,0.063-0.05,0.099-0.066,0.136c-0.796,1.844-2.2,2.959-4.13,3.443c-0.265,0.067-0.266,0.064-0.17,0.316
			c0.513,1.343,1.03,2.684,1.537,4.029c0.06,0.158,0.15,0.248,0.307,0.304c0.843,0.302,1.683,0.613,2.525,0.919
			c0.769,0.279,1.314,0.791,1.626,1.547c0.738,1.791,1.475,3.583,2.211,5.376c0.159,0.387,0.211,0.786,0.154,1.206
			c-0.153,1.123-0.291,2.248-0.442,3.372c-0.019,0.141,0.022,0.233,0.119,0.33c0.616,0.614,1.23,1.231,1.838,1.854
			c0.122,0.125,0.248,0.177,0.422,0.177c1.587,0.004,3.175,0.014,4.762,0.024c0.32,0.002,0.64,0.012,0.96,0.015
			c0.069,0.001,0.146-0.003,0.182-0.076c0.039-0.079-0.023-0.129-0.07-0.18c-0.09-0.097-0.18-0.194-0.272-0.288
			c-1.394-1.422-2.787-2.844-4.182-4.265c-0.519-0.529-0.898-1.144-1.172-1.832c-1.974-4.963-3.798-9.982-5.636-14.996
			C31.113,39.952,30.951,39.487,30.778,39.002z M35.353,48.181c0.014-0.002,0.028-0.003,0.043-0.005
			c0.023-0.454,0.053-0.908,0.069-1.363c0.031-0.888,0.347-1.65,0.979-2.278c0.296-0.294,0.592-0.588,0.887-0.884
			c0.049-0.049,0.123-0.083,0.059-0.185c-0.153-0.242-0.225-0.521-0.333-0.784c-1.065-2.586-3.009-4.056-5.741-4.526
			c-0.086-0.015-0.192-0.062-0.25,0.034c-0.06,0.1-0.029,0.21,0.021,0.317c1.23,2.606,2.367,5.253,3.506,7.9
			C34.846,46.997,35.099,47.589,35.353,48.181z M61.953,32.115c-0.025-0.032-0.031-0.047-0.042-0.052
			c-1.054-0.492-2.146-0.841-3.32-0.883c-0.572-0.021-1.139,0.064-1.708,0.093c-1.297,0.066-2.541,0.342-3.731,0.874
			c-1.303,0.583-2.237,1.497-2.715,2.856c-0.159,0.454-0.218,0.921-0.183,1.396c0.028,0.374,0.164,0.693,0.503,0.91
			c0.315,0.202,0.645,0.369,1.012,0.423c0.806,0.119,1.175-0.068,1.482-0.721c0.105-0.225,0.171-0.467,0.226-0.713
			c0.268-1.211,0.854-2.226,1.884-2.951c1.639-1.154,3.475-1.564,5.452-1.433C61.192,31.941,61.562,32.03,61.953,32.115z
			 M47.167,32.712c0-1.415,0.007-2.813-0.003-4.211c-0.004-0.498-0.192-0.942-0.541-1.297c-0.585-0.595-1.185-1.175-1.78-1.762
			c-0.034-0.033-0.064-0.084-0.121-0.059c-0.057,0.025-0.036,0.084-0.036,0.13c0.006,1.238,0.004,2.476,0.023,3.714
			c0.008,0.525,0.161,1.021,0.489,1.437C45.789,31.413,46.516,32.031,47.167,32.712z"/>
		<path fill="#FEFEFE" d="M36.449,50.755c-0.004-0.016-0.014-0.042-0.009-0.046c0.021-0.015,0.029,0.004,0.034,0.021
			C36.466,50.739,36.457,50.747,36.449,50.755z"/>
	</g>
</g>
</svg>
