<?xml version="1.0" encoding="utf-8"?>
<!-- Generator: Adobe Illustrator 16.0.0, SVG Export Plug-In . SVG Version: 6.00 Build 0)  -->
<!DOCTYPE svg PUBLIC "-//W3C//DTD SVG 1.1//EN" "http://www.w3.org/Graphics/SVG/1.1/DTD/svg11.dtd">
<svg version="1.1" id="Layer_1" xmlns="http://www.w3.org/2000/svg" xmlns:xlink="http://www.w3.org/1999/xlink" x="0px" y="0px"
	 width="64px" height="64px" viewBox="0 0 64 64" enable-background="new 0 0 64 64" xml:space="preserve">
<g>
	<g>
		<path fill-rule="evenodd" clip-rule="evenodd" fill="#FFFFFF" d="M0.022,32.625c0-0.391,0-0.782,0-1.173c0.03,0,0.061,0,0.091,0
			c-0.001,0.391-0.002,0.782-0.003,1.173C0.081,32.625,0.052,32.625,0.022,32.625z"/>
		<path fill-rule="evenodd" clip-rule="evenodd" fill="#FFFFFF" d="M30.889,0c0.163,0,0.326,0,0.488,0
			c0.001,0.028,0.001,0.055-0.002,0.083c-0.162,0.001-0.325,0.002-0.487,0.004C30.889,0.058,30.89,0.029,30.889,0z"/>
		<path fill-rule="evenodd" clip-rule="evenodd" fill="#FFFFFF" d="M32.159,0c0.163,0,0.325,0,0.488,0c0,0.027,0,0.054,0,0.082
			c-0.162,0-0.324,0-0.486,0C32.159,0.054,32.158,0.027,32.159,0z"/>
		<path fill-rule="evenodd" clip-rule="evenodd" fill="#FFFFFF" d="M0.113,31.452c-0.03,0-0.061,0-0.091,0c0-0.163,0-0.325,0-0.488
			c0.032,0,0.063,0,0.095,0C0.116,31.126,0.114,31.289,0.113,31.452z"/>
		<path fill-rule="evenodd" clip-rule="evenodd" fill="#FFFFFF" d="M0.022,32.625c0.029,0,0.059,0,0.088,0
			c0.002,0.163,0.004,0.325,0.007,0.488c-0.031,0-0.063,0-0.095,0C0.022,32.95,0.022,32.787,0.022,32.625z"/>
		<path fill-rule="evenodd" clip-rule="evenodd" fill="#FFFFFF" d="M32.647,0.082c0-0.027,0-0.054,0-0.082c0.13,0,0.261,0,0.391,0
			c0,0.028,0,0.057,0.001,0.085C32.909,0.084,32.778,0.083,32.647,0.082z"/>
		<path fill-rule="evenodd" clip-rule="evenodd" fill="#FFFFFF" d="M33.624,0c0,0.03,0.001,0.06,0.001,0.089
			c-0.13-0.001-0.26-0.003-0.391-0.005c0-0.028-0.001-0.056-0.001-0.084C33.363,0,33.494,0,33.624,0z"/>
		<path fill-rule="evenodd" clip-rule="evenodd" fill="#FFFFFF" d="M30.889,0c0.001,0.029,0,0.058-0.001,0.087
			c-0.098,0-0.195,0.001-0.293,0.001C30.596,0.059,30.597,0.03,30.596,0C30.693,0,30.791,0,30.889,0z"/>
		<path fill-rule="evenodd" clip-rule="evenodd" fill="#FFFFFF" d="M31.375,0.083C31.378,0.055,31.378,0.028,31.377,0
			c0.098,0,0.196,0,0.294,0c-0.001,0.027,0,0.054,0.001,0.082C31.573,0.082,31.474,0.083,31.375,0.083z"/>
		<path fill-rule="evenodd" clip-rule="evenodd" fill="#FFFFFF" d="M32.159,0c-0.001,0.027,0,0.054,0.002,0.082
			c-0.099,0-0.198,0.001-0.298,0.001C31.866,0.056,31.867,0.028,31.866,0C31.964,0,32.062,0,32.159,0z"/>
		<path fill-rule="evenodd" clip-rule="evenodd" fill="#FFFFFF" d="M31.866,0c0.001,0.028,0,0.056-0.003,0.083
			c-0.063,0-0.127-0.001-0.191-0.001C31.671,0.054,31.67,0.027,31.671,0C31.735,0,31.801,0,31.866,0z"/>
		<path fill-rule="evenodd" clip-rule="evenodd" fill="#FFFFFF" d="M33.233,0c0,0.028,0.001,0.056,0.001,0.084
			c-0.064,0-0.13,0-0.195,0C33.038,0.057,33.038,0.028,33.038,0C33.104,0,33.168,0,33.233,0z"/>
		<path fill-rule="evenodd" clip-rule="evenodd" fill="#FFFFFF" d="M33.039,0.085c0.065,0,0.131,0,0.195,0
			c0.131,0.001,0.261,0.003,0.391,0.005c3.218,0.204,6.366,0.782,9.372,1.954c10.597,4.129,17.476,11.679,20.104,22.747
			c3.927,16.537-5.695,32.982-21.988,37.825c-8.394,2.495-16.525,1.598-24.252-2.525c-5.92-3.158-10.337-7.82-13.368-13.798
			c-1.992-3.929-3.055-8.108-3.321-12.498c-0.014-0.228-0.036-0.454-0.055-0.681c-0.003-0.163-0.005-0.325-0.007-0.488
			c0.001-0.391,0.002-0.782,0.003-1.173c0.001-0.163,0.003-0.326,0.004-0.488c0.143-2.589,0.482-5.148,1.216-7.642
			C3.71,15.246,8.487,8.996,15.678,4.621c4.237-2.579,8.863-4.004,13.804-4.419c0.371-0.031,0.742-0.076,1.113-0.114
			c0.098,0,0.195-0.001,0.293-0.001c0.162-0.001,0.325-0.003,0.487-0.004c0.099,0,0.198-0.001,0.297-0.001
			c0.064,0,0.128,0.001,0.191,0.001c0.1,0,0.199-0.001,0.298-0.001c0.162,0,0.324,0,0.486,0C32.778,0.083,32.909,0.084,33.039,0.085
			z M61.275,31.683C60.897,15.458,47.751,2.699,31.844,2.832C15.606,2.968,2.722,16.236,2.859,32.241
			C3,48.505,16.321,61.415,32.378,61.212C48.67,61.006,61.32,47.644,61.275,31.683z"/>
		<path fill-rule="evenodd" clip-rule="evenodd" fill="#FFFFFF" d="M3.827,32.509C3.471,16.7,16.053,4.021,31.583,3.774
			C47.2,3.526,59.866,15.744,60.311,31.162c0.46,15.979-12.002,28.708-27.429,29.122C16.782,60.715,3.958,48.045,3.827,32.509z
			 M8.399,41.546c0.094-0.024,0.156-0.038,0.218-0.057c7.673-2.281,15.346-4.561,23.015-6.854c0.345-0.103,0.51-0.047,0.698,0.261
			c1.163,1.901,2.35,3.788,3.527,5.681c0.063,0.102,0.112,0.213,0.214,0.405c-8.707,1.341-17.346,2.67-26.021,4.006
			c1.444,2.436,3.208,4.558,5.368,6.416c0.057-0.202,0.104-0.352,0.142-0.504c0.431-1.736,0.867-3.472,1.285-5.212
			c0.074-0.311,0.19-0.456,0.534-0.492c0.776-0.081,1.546-0.224,2.318-0.342c0.928-0.143,1.856-0.286,2.872-0.443
			c-1.318,3.164-2.604,6.251-3.905,9.371c4.682,2.831,9.73,4.092,15.167,3.725c4.329-0.293,8.327-1.622,12.004-3.972
			c-9.541-14.154-18.183-28.791-26.698-43.502C7.789,16.585,3.782,30.604,8.399,41.546z M42.408,31.652
			c5.003-1.247,9.918-2.472,14.832-3.697c-1.432-9.947-9.484-19.021-20.408-20.987c-1.397,3.963-2.796,7.932-4.22,11.968
			c-2.086-2.621-4.086-5.126-6.068-7.644c-0.103-0.131-0.123-0.396-0.073-0.566c0.275-0.953,0.586-1.896,0.882-2.843
			c0.099-0.314,0.192-0.63,0.294-0.965c-1.346,0.119-4.471,1.038-5.123,1.499C32.78,21.195,42.922,34.061,52.359,47.533
			c2.398-3.172,3.978-6.658,4.759-10.573c-0.243,0.049-0.4,0.081-0.558,0.112c-2.743,0.555-5.489,1.1-8.229,1.675
			c-0.42,0.089-0.642-0.027-0.884-0.357c-1.127-1.535-2.28-3.051-3.423-4.573C43.512,33.131,43,32.443,42.408,31.652z"/>
		<path fill-rule="evenodd" clip-rule="evenodd" fill="#FFFFFF" d="M19.067,36.951c1.516-5.561,3.002-11.01,4.521-16.581
			c0.146,0.219,0.218,0.316,0.279,0.419c1.554,2.615,3.104,5.232,4.666,7.842c0.158,0.264,0.181,0.478,0.063,0.767
			c-0.679,1.672-1.328,3.357-2.013,5.026c-0.078,0.19-0.297,0.395-0.492,0.454C23.804,35.57,21.508,36.235,19.067,36.951z"/>
	</g>
</g>
</svg>
