<?xml version="1.0" encoding="utf-8"?>
<!-- Generator: Adobe Illustrator 23.0.2, SVG Export Plug-In . SVG Version: 6.00 Build 0)  -->
<svg version="1.1" id="Layer_1" xmlns="http://www.w3.org/2000/svg" xmlns:xlink="http://www.w3.org/1999/xlink" x="0px" y="0px"
	 width="64px" height="64px" viewBox="0 0 64 64" enable-background="new 0 0 64 64" xml:space="preserve">
<g>
	<path fill="#011D44" stroke="#011D44" stroke-width="0.0938" d="M29.709,0h4.429c0.437,0.054,0.877,0.007,1.316,0.035
		c1.342-0.004,2.679,0.128,4.012,0.264c4.737,0.509,9.435,1.578,13.842,3.409c1.175,0.486,2.342,1.002,3.44,1.646
		c0.405,0.248,0.827,0.491,1.135,0.859c0.195,0.245,0.24,0.566,0.285,0.866c0.149,1.104,0.163,2.221,0.18,3.333
		c0.029,1.224,0.026,2.45,0.027,3.675c0.025,9.592-0.011,19.184-0.007,28.777c-0.025,4.04-0.004,8.08-0.029,12.12
		c-0.389,0.405-0.813,0.792-1.341,1.005c-1.341,0.561-2.733,0.989-4.108,1.459c-6.113,2.005-12.256,3.915-18.385,5.87
		c-0.663,0.198-1.317,0.429-1.983,0.615c-0.306,0.092-0.634,0.092-0.935-0.017c-4.109-1.239-8.196-2.542-12.287-3.838
		c-3.068-0.987-6.144-1.948-9.206-2.953c-0.923-0.316-1.858-0.603-2.763-0.971c-0.64-0.248-1.226-0.66-1.662-1.188
		C5.658,48.618,5.647,42.268,5.637,35.92c-0.021-4.184,0-8.366-0.021-12.55C5.642,18.184,5.6,12.997,5.699,7.812
		c0.007-0.499,0.019-1.039,0.316-1.464c0.284-0.389,0.706-0.644,1.111-0.891c1.932-1.068,3.951-1.976,6.039-2.695
		c4.406-1.52,9.035-2.313,13.672-2.674C27.792,0.005,28.754,0.063,29.709,0 M28.114,1.076c-3.145,0.158-6.271,0.606-9.351,1.256
		c-0.99,0.205-1.981,0.417-2.948,0.712c-0.714,0.208-1.42,0.44-2.134,0.65c-0.626,0.176-1.214,0.457-1.823,0.679
		c-1.278,0.449-2.464,1.113-3.655,1.751C7.755,6.378,7.297,6.631,6.916,6.983C6.825,7.089,6.72,7.201,6.69,7.342
		c-0.028,2.47-0.045,4.941-0.056,7.412c-0.025,1.624,0.01,3.251-0.035,4.875c-0.009,7.432-0.009,14.865,0,22.297
		c0.008,0.512-0.019,1.026,0.02,1.537c0.014,3.471,0,6.943,0.097,10.413c0.035,0.367,0.059,0.809,0.388,1.044
		c0.278,0.198,0.611,0.295,0.929,0.411c3.436,1.134,6.886,2.226,10.332,3.33c4.364,1.388,8.724,2.791,13.083,4.193
		c0.437,0.174,0.902,0.036,1.329-0.098c1.67-0.541,3.348-1.055,5.021-1.588c6.146-1.944,12.282-3.914,18.426-5.864
		c0.277-0.111,0.634-0.143,0.802-0.423c0.193-0.296,0.226-0.657,0.26-1c0.079-0.978,0.025-1.962,0.077-2.941
		c0.049-7.41,0.041-14.819,0.041-22.23c0.024-7.145-0.002-14.291,0.014-21.436c-0.368-0.421-0.811-0.766-1.305-1.028
		c-1.117-0.606-2.255-1.178-3.427-1.669c-4.173-1.709-8.613-2.689-13.086-3.188c-2.02-0.226-4.048-0.405-6.082-0.407
		C31.715,0.974,29.912,0.942,28.114,1.076z"/>
	<path fill="#FFFFFF" stroke="#FFFFFF" stroke-width="0.0938" d="M28.114,1.076c1.797-0.134,3.601-0.101,5.401-0.094
		c2.034,0.002,4.063,0.181,6.082,0.407c4.473,0.499,8.913,1.48,13.086,3.188c1.172,0.491,2.31,1.064,3.427,1.669
		c0.493,0.261,0.937,0.607,1.305,1.028c-0.016,7.145,0.01,14.291-0.014,21.436c0.001,7.41,0.008,14.82-0.041,22.23
		c-0.051,0.979,0.002,1.963-0.077,2.941c-0.034,0.343-0.067,0.704-0.26,1c-0.168,0.28-0.525,0.312-0.802,0.423
		c-6.144,1.95-12.28,3.92-18.426,5.864c-1.672,0.533-3.351,1.047-5.021,1.588c-0.427,0.134-0.891,0.272-1.329,0.098
		c-4.36-1.402-8.719-2.805-13.083-4.193c-3.446-1.104-6.896-2.196-10.332-3.33c-0.318-0.116-0.651-0.212-0.929-0.411
		c-0.328-0.236-0.353-0.677-0.388-1.044c-0.097-3.47-0.083-6.942-0.097-10.413c-0.039-0.511-0.012-1.025-0.02-1.537
		c-0.009-7.432-0.009-14.865,0-22.297c0.045-1.624,0.01-3.251,0.035-4.875c0.011-2.471,0.028-4.942,0.056-7.412
		c0.03-0.141,0.135-0.252,0.226-0.359c0.381-0.353,0.84-0.605,1.289-0.861c1.19-0.638,2.377-1.301,3.655-1.751
		c0.609-0.222,1.197-0.503,1.823-0.679c0.714-0.21,1.42-0.442,2.134-0.65c0.967-0.295,1.958-0.507,2.948-0.712
		C21.844,1.681,24.969,1.233,28.114,1.076 M26.844,2.131c-1.666,0.139-3.326,0.343-4.981,0.583
		c-0.439,0.057-0.871,0.214-1.186,0.536c-1.976,1.896-3.924,3.821-5.894,5.724c-0.713,0.665-1.401,1.357-2.147,1.985
		c-0.553,0.487-1.179,0.88-1.791,1.287c-0.933,0.59-1.879,1.176-2.918,1.56c-0.182,0.066-0.302,0.239-0.314,0.431
		c-0.093,0.771-0.056,1.55-0.041,2.325c0.015,0.166-0.007,0.345,0.073,0.497c0.395,0.131,0.801,0.224,1.208,0.31
		c1.355,0.281,2.724,0.5,4.1,0.656c0.64,0.105,1.291,0.113,1.938,0.094c0.714,0.006,1.427-0.033,2.141-0.059
		c1.823-0.111,3.64-0.446,5.355-1.083c1.527-0.582,2.974-1.399,4.206-2.478c0.964-0.833,1.824-1.779,2.642-2.753
		c0.562-0.663,1.149-1.304,1.753-1.929c0.648-0.64,1.341-1.23,2.035-1.819c0.835-0.688,1.66-1.394,2.566-1.988
		c1.188-0.778,2.387-1.54,3.606-2.267c0.223-0.111,0.297-0.378,0.274-0.61c-0.023-0.264-0.083-0.543-0.27-0.742
		c-0.185-0.097-0.405-0.089-0.606-0.128c-1.313-0.116-2.627-0.233-3.946-0.272C32.044,1.979,29.441,1.96,26.844,2.131 M44.053,3.461
		c-0.759,0.334-1.498,0.711-2.229,1.103c-0.168,0.101-0.402,0.202-0.393,0.434c0.003,0.901,0.148,1.793,0.25,2.687
		c0.332,2.721,0.97,5.403,1.871,7.992c0.461,1.287,0.877,2.595,1.455,3.834c0.032,0.017,0.095,0.051,0.128,0.069
		c0.495,0.001,0.976-0.146,1.471-0.167c0.555-0.023,1.112-0.037,1.666,0.011c0.781,0.114,1.527,0.384,2.277,0.621
		c0.821,0.257,1.678,0.367,2.533,0.425c0.974,0.046,1.944,0.186,2.919,0.197c-0.045-0.232-0.25-0.383-0.376-0.572
		c-0.848-1.027-1.7-2.052-2.486-3.127c-0.857-1.17-1.61-2.414-2.247-3.716c-0.537-1.074-1.005-2.191-1.279-3.363
		c-0.29-1.247-0.445-2.537-0.326-3.816c0.032-0.515,0.148-1.03,0.079-1.547c-0.302-0.161-0.641-0.226-0.966-0.323
		c-0.849-0.246-1.706-0.465-2.562-0.688C45.259,3.378,44.62,3.16,44.053,3.461 M14.883,4.414c-0.202,0.071-0.411,0.137-0.587,0.263
		c0.003,0.025,0.011,0.075,0.015,0.101c0.37,0.177,0.779,0.252,1.17,0.369c0.206,0.047,0.404,0.137,0.615,0.154
		c0.62-0.251,1.076-0.782,1.445-1.323c0.069-0.074,0.062-0.173,0.045-0.265c-0.146-0.01-0.292-0.001-0.432,0.041
		C16.388,3.939,15.629,4.161,14.883,4.414 M51.199,6.139c-0.024,0.802-0.019,1.608,0.086,2.406c0.15,0.817,0.334,1.633,0.661,2.4
		c0.503,1.227,1.059,2.442,1.815,3.538c0.69,1.014,1.413,2.006,2.179,2.966c0.109,0.138,0.222,0.279,0.377,0.37
		c0.059-0.869,0.059-1.74,0.073-2.611c0.017-1.954,0.023-3.908,0.001-5.861c-0.013-0.404,0.002-0.815-0.105-1.209
		c-0.083-0.284-0.32-0.483-0.549-0.651c-0.602-0.414-1.243-0.766-1.884-1.115c-0.52-0.274-1.039-0.551-1.581-0.778
		c-0.296-0.136-0.606-0.266-0.938-0.253C51.216,5.59,51.221,5.87,51.199,6.139 M38.871,6.158c-1.084,0.628-2.116,1.341-3.12,2.09
		c-2.014,1.472-3.788,3.248-5.406,5.14c-0.615,0.736-1.223,1.485-1.945,2.121c-1.327,1.144-2.822,2.093-4.428,2.795
		c-0.889,0.417-1.822,0.726-2.733,1.087c-0.087,0.045-0.203,0.066-0.248,0.164c0.17,0.376,0.471,0.671,0.704,1.007
		c0.385,0.475,0.735,0.987,1.2,1.39c0.296-0.162,0.555-0.38,0.835-0.569c0.734-0.494,1.472-0.991,2.275-1.364
		c0.849-0.36,1.744-0.599,2.647-0.773c0.943-0.171,1.899-0.29,2.86-0.294c0.721,0.02,1.44,0.087,2.149,0.222
		c0.28-0.069,0.545-0.186,0.805-0.312c0.856-0.381,1.677-0.836,2.531-1.221c0.383-0.174,0.771-0.362,1.193-0.409
		c0.593-0.032,1.215,0.132,1.673,0.518c0.217,0.172,0.259,0.503,0.527,0.618c0.252,0.057,0.501-0.047,0.743-0.103
		c0.379-0.112,0.78-0.089,1.167-0.16c-0.132-0.598-0.373-1.163-0.542-1.75c-0.457-1.478-0.845-2.976-1.191-4.484
		c-0.326-1.453-0.64-2.912-0.849-4.387c-0.057-0.405-0.053-0.818-0.12-1.222c-0.031-0.114-0.034-0.252-0.137-0.329
		C39.243,5.919,39.057,6.064,38.871,6.158 M9.448,6.661C8.968,6.92,8.456,7.143,8.05,7.515C7.82,7.758,7.61,8.069,7.625,8.418
		c-0.001,1.018-0.011,2.036,0.005,3.053c-0.007,0.15,0.064,0.284,0.174,0.383c0.808-0.405,1.563-0.903,2.313-1.404
		c1.267-0.868,2.417-1.891,3.567-2.906c0.238-0.238,0.519-0.439,0.711-0.721c-0.409-0.141-0.831-0.242-1.247-0.362
		c-0.788-0.189-1.588-0.499-2.41-0.351C10.283,6.225,9.87,6.46,9.448,6.661 M38.117,19.303c-1.196,0.535-2.354,1.15-3.525,1.737
		c-1.176,0.616-2.361,1.216-3.531,1.842c-0.239,0.146-0.506,0.254-0.709,0.453c-0.064,0.611-0.073,1.225-0.128,1.837
		c-0.029,0.801-0.001,1.604-0.062,2.403c0.002,0.601,0.001,1.201,0.001,1.802c0.079,0.99-0.001,1.989,0.121,2.977
		c0.124-0.003,0.254,0.008,0.369-0.048c1.391-0.493,2.77-1.025,4.116-1.632c0.116-0.064,0.267-0.112,0.316-0.25
		c0.172-0.572,0.095-1.186,0.278-1.755c0.065-0.198,0.311-0.116,0.455-0.066c0.586,0.226,1.203,0.443,1.668,0.882
		c0.255,0.24,0.511,0.493,0.672,0.81c0.15,0.357,0.218,0.755,0.168,1.141c-0.058,0.495-0.367,0.914-0.688,1.277
		c-0.586,0.582-1.345,1.034-2.183,1.094c-1.226,0.023-2.454,0.031-3.681-0.009c-0.603-0.098-1.17-0.344-1.679-0.677
		c-0.883-0.567-1.477-1.492-1.799-2.476c-0.157-0.502-0.294-1.012-0.369-1.533c-0.107-0.595-0.054-1.202-0.057-1.803
		c-0.019-0.595,0.175-1.168,0.381-1.718c0.273-0.733,0.632-1.435,1.075-2.079c0.517-0.657,1.13-1.232,1.771-1.765
		c0.334-0.28,0.777-0.416,1.076-0.733c-0.406-0.14-0.843-0.069-1.263-0.079c-0.674-0.009-1.348,0.062-2.004,0.218
		c-0.174,0.05-0.349,0.098-0.525,0.137c-0.345,0.091-0.683,0.205-1.016,0.332c-1.274,0.503-2.503,1.226-3.37,2.306
		c-0.334,0.376-0.592,0.811-0.885,1.216c-0.17,0.049-0.277-0.091-0.375-0.204c-1.039-1.214-2.005-2.49-3.037-3.71
		c-0.107-0.093-0.192-0.31-0.365-0.222c-0.413,0.267-0.797,0.578-1.186,0.878c-0.089,0.084-0.238,0.083-0.322-0.007
		c-0.586-0.476-1.181-0.989-1.924-1.196c-0.572-0.147-1.17-0.093-1.755-0.096c-1.167-0.011-2.267,0.553-3.119,1.321
		c-0.123,0.127-0.322,0.226-0.327,0.424c0.568-0.049,1.152-0.121,1.718-0.027c0.126,0.046,0.255,0.09,0.362,0.174
		c0.738,0.545,1.239,1.334,1.741,2.086c0.049,0.23-0.176,0.383-0.25,0.58c-0.195,0.31-0.418,0.602-0.625,0.905
		c-0.49,0.652-0.915,1.349-1.418,1.991c-1.44,1.989-2.889,3.971-4.329,5.96c0.772,0.079,1.571-0.014,2.318,0.234
		c0.065,0.021,0.13,0.042,0.195,0.064c0.384,0.156,0.747,0.363,1.063,0.632c0.111,0.085,0.266,0.243,0.403,0.112
		c0.957-0.861,1.874-1.768,2.851-2.609c0.3-0.265,0.638-0.494,0.863-0.833c-0.009-0.265-0.213-0.467-0.371-0.661
		c-0.262,0.146-0.508,0.319-0.744,0.504c-0.079,0.051-0.158,0.134-0.262,0.105c-0.311-0.23-0.59-0.499-0.888-0.746
		c-0.114-0.122-0.292-0.233-0.285-0.42c0.152-0.258,0.388-0.512,0.701-0.554c1.134-0.129,2.278-0.083,3.417-0.076
		c0.089,0,0.178,0.013,0.265,0.031c0.383,0.033,0.779-0.01,1.15,0.114c0.09,0.031,0.15,0.109,0.214,0.177
		c0.776,0.925,1.498,1.893,2.229,2.855c0.206,0.359,0.167,0.789,0.204,1.186c0.051,0.343,0.049,0.691,0.065,1.037
		c0.088-0.003,0.184,0.005,0.254-0.057c0.656-0.429,1.307-0.865,1.964-1.291c1.264,0.998,2.62,1.918,4.145,2.465
		c0.602,0.185,1.228,0.295,1.856,0.338c0.826,0.005,1.652,0.005,2.478-0.003c0.621-0.067,1.248-0.023,1.87-0.071
		c0.083-0.029,0.171-0.042,0.26-0.047c1.214-0.142,2.378-0.562,3.472-1.096c0.885-0.417,1.72-0.937,2.492-1.537
		c0.607-0.475,1.132-1.046,1.61-1.648c0.68-0.844,1.146-1.851,1.393-2.904c0.043-0.763-0.08-1.544-0.376-2.25
		c-0.285-0.701-0.882-1.194-1.407-1.711c-0.064-0.041-0.078-0.11-0.081-0.18c0.277-0.156,0.549-0.324,0.843-0.448
		c0.315-0.156,0.648-0.301,1.005-0.308c0.537-0.011,1.076-0.039,1.611,0.005c0.948,0.15,1.867,0.438,2.793,0.683
		c1.232,0.348,2.524,0.651,3.808,0.425c0.242-0.047,0.483-0.113,0.693-0.246c0.643-0.391,1.209-0.893,1.762-1.399
		c0.395-0.338,0.77-0.702,1.107-1.098c0.004-0.055,0.01-0.109,0.016-0.162c-1.032-0.142-2.083-0.134-3.109-0.324
		c-0.296-0.037-0.588-0.1-0.877-0.174c-0.893-0.212-1.757-0.53-2.654-0.724c-1.369-0.233-2.783,0.14-3.956,0.855
		c-0.913,0.541-1.673,1.29-2.461,1.99c-0.274,0.261-0.553,0.523-0.869,0.734c-0.288,0.188-0.658,0.024-0.875-0.198
		c-0.138-0.104-0.137-0.314-0.036-0.443c0.2-0.305,0.484-0.541,0.746-0.791c0.471-0.405,0.955-0.796,1.461-1.158
		c0.33-0.248,0.682-0.467,0.989-0.743c-0.001-0.017-0.003-0.051-0.003-0.069c-0.294-0.264-0.551-0.57-0.863-0.814
		c-0.227-0.172-0.407-0.426-0.693-0.502c-0.377,0.255-0.694,0.598-1.112,0.791c-0.435,0.205-0.97,0.236-1.414,0.043
		c-0.198-0.105-0.429-0.197-0.522-0.419c-0.188-0.457-0.068-0.965-0.185-1.435C38.319,19.25,38.211,19.254,38.117,19.303
		 M7.571,20.387c0.007,2.952-0.005,5.904,0.035,8.856c0.053,0.497-0.034,1.016,0.132,1.497c0.091-0.051,0.174-0.114,0.239-0.196
		c0.369-0.437,0.686-0.915,1.03-1.371c0.657-0.903,1.327-1.797,1.956-2.72c0.411-0.617,0.847-1.223,1.156-1.9
		c-0.039-0.051-0.077-0.101-0.116-0.152c-0.718-0.143-1.464-0.005-2.186-0.132c-0.304-0.092-0.568-0.302-0.746-0.564
		c-0.347-0.468-0.564-1.094-0.358-1.666c0.142-0.509,0.497-0.919,0.665-1.416c-0.089-0.114-0.238-0.122-0.369-0.145
		C8.533,20.412,8.053,20.356,7.571,20.387 M52.709,25.69c-0.628,0.339-1.289,0.618-1.883,1.017c0.124,0.138,0.248,0.278,0.4,0.387
		c0.624,0.459,1.326,0.804,2.05,1.076c0.543,0.205,1.151,0.087,1.668-0.14c0.471-0.222,0.886-0.568,1.175-1.003
		c0.173-0.291,0.216-0.632,0.209-0.965c-0.636,0.033-1.262,0.36-1.905,0.186c-0.456-0.173-0.875-0.427-1.318-0.628
		C52.969,25.55,52.828,25.626,52.709,25.69 M45.943,26.384c-0.548,0.514-1.125,1.003-1.6,1.589c0.266,0.414,0.684,0.692,1.024,1.038
		c0.751,0.668,1.504,1.336,2.199,2.064c-0.001,0.029-0.001,0.088-0.001,0.118c-0.198,0.156-0.453,0.171-0.693,0.208
		c-1.026,0.063-2.079,0.186-3.014,0.644c-0.63,0.286-1.251,0.63-1.734,1.135c-0.229,0.232-0.48,0.465-0.594,0.78
		c0.092-0.008,0.186-0.016,0.28-0.025c0.726-0.301,1.542-0.18,2.254,0.101c0.663,0.242,1.309,0.565,2.004,0.698
		c0.383-0.134,0.716-0.369,1.073-0.556c1.012-0.597,2-1.232,2.98-1.879c0.856-0.584,1.747-1.136,2.48-1.875
		c0.197-0.214,0.399-0.437,0.499-0.716c0.066-0.282-0.116-0.535-0.272-0.75c-0.379-0.371-0.828-0.661-1.276-0.941
		c-1.257-0.794-2.578-1.478-3.91-2.135c-0.205-0.112-0.421-0.201-0.642-0.273C46.582,25.762,46.287,26.117,45.943,26.384
		 M55.191,30.216c-0.198,0.172-0.301,0.416-0.434,0.635c-0.437,0.69-1.044,1.251-1.528,1.903c0.024-0.007,0.072-0.022,0.095-0.029
		c0.768,0.772,1.519,1.561,2.305,2.314c0.219,0.21,0.429,0.431,0.677,0.608c0.107-1.353,0.085-2.713,0.098-4.069
		c-0.019-0.577,0.012-1.158-0.063-1.731c-0.013-0.102-0.043-0.264-0.179-0.25C55.799,29.731,55.478,29.96,55.191,30.216
		 M17.714,31.937c-0.171,0.238-0.264,0.523-0.433,0.762c-0.3,0.411-0.698,0.73-1.068,1.074c-0.385,0.33-0.748,0.682-1.124,1.022
		c-0.938,0.891-1.9,1.761-2.767,2.722c-0.015,1.227-0.055,2.462,0.096,3.684c0.212,0.994,0.572,1.951,0.822,2.936
		c0.202,0.644,0.103,1.357-0.207,1.949c-0.236,0.401-0.678,0.605-1.096,0.763c-0.709,0.258-1.448,0.423-2.165,0.659
		c-0.094,0.031-0.175,0.091-0.258,0.146c0.038,0.302,0.318,0.473,0.507,0.682c0.868,0.776,1.783,1.5,2.663,2.263
		c2.795,2.329,5.588,4.664,8.406,6.966c0.469,0.359,0.913,0.774,1.474,0.988c1.137,0.451,2.303,0.831,3.477,1.172
		c0.312,0.105,0.699,0.097,0.933-0.166c2.138-2.097,3.953-4.499,6.132-6.557c0.223-0.198,0.43-0.444,0.735-0.513
		c0.592-0.136,1.204-0.092,1.806-0.099c0.45-0.007,0.899,0.033,1.343,0.105c1.353,0.162,2.711,0.341,4.077,0.336
		c0.567-0.242,1.037-0.655,1.502-1.051c0.355-0.28,0.718-0.58,1.162-0.702c0.325-0.077,0.666-0.105,0.998-0.049
		c0.204,0.021,0.4,0.104,0.608,0.095c0.274-0.057,0.439-0.305,0.62-0.496c1.252-1.458,2.584-2.855,4.052-4.097
		c0.438-0.373,0.925-0.68,1.371-1.044c0.383-0.314,0.831-0.532,1.243-0.805c1.22-0.792,2.533-1.427,3.838-2.065
		c-0.021-1.275-0.015-2.549-0.033-3.824c0.015-0.131-0.061-0.244-0.142-0.337c-1.476-1.577-3.035-3.073-4.535-4.625
		c-0.052-0.039-0.111-0.156-0.183-0.085c-1.401,0.89-2.802,1.779-4.238,2.611c-0.45,0.218-0.963,0.338-1.462,0.253
		c-0.96-0.164-1.857-0.567-2.803-0.789c-0.386-0.118-0.76,0.084-1.13,0.172c-0.54,0.174-1.126,0.049-1.667,0.218
		c-0.377,0.154-0.704,0.403-1.062,0.595c-1.212,0.673-2.542,1.101-3.885,1.426c-0.492,0.092-0.988,0.157-1.482,0.24
		c-0.951,0.112-1.909,0.148-2.866,0.142c-1.287,0.009-2.593-0.072-3.83-0.449c-1.222-0.356-2.315-1.03-3.384-1.702
		c-0.152-0.079-0.329-0.225-0.506-0.136c-0.316,0.148-0.593,0.367-0.903,0.527c-0.471,0.276-1.028,0.482-1.578,0.345
		c-0.549-0.167-1.02-0.568-1.313-1.056c-0.31-0.7-0.095-1.5-0.324-2.222c-0.107-0.378-0.341-0.7-0.572-1.012
		c-0.208-0.297-0.427-0.588-0.664-0.863C17.846,32.004,17.799,31.898,17.714,31.937 M8.175,36.036
		c-0.347,0.071-0.52,0.414-0.525,0.743c-0.13,2.093-0.083,4.192-0.075,6.287C7.595,44.044,7.587,45.024,7.659,46
		c-0.004,0.112,0.114,0.198,0.218,0.132c0.946-0.31,1.901-0.593,2.866-0.843c0.203-0.061,0.409-0.12,0.597-0.219
		c0.159-0.09,0.128-0.286,0.096-0.435c-0.19-0.939-0.602-1.817-0.77-2.761c-0.13-0.71-0.245-1.426-0.28-2.149
		c-0.009-0.845-0.019-1.697,0.137-2.53c0.078-0.386-0.233-0.679-0.524-0.869C9.459,35.994,8.788,35.943,8.175,36.036 M55.625,45.076
		c-1.693,0.914-3.306,1.985-4.751,3.259c-0.655,0.567-1.303,1.145-1.899,1.775c-1.883,2.038-3.493,4.356-4.561,6.926
		c-0.083,0.194-0.174,0.391-0.18,0.606c0.082,0.006,0.168,0.027,0.25-0.002c2.066-0.634,4.115-1.325,6.179-1.966
		c0.288-0.12,0.644-0.156,0.846-0.421c0.184-0.243,0.276-0.537,0.413-0.807c0.18-0.41,0.449-0.774,0.751-1.103
		c0.445-0.468,0.895-0.937,1.413-1.326c0.718-0.548,1.539-0.937,2.344-1.338c-0.01-1.492,0.022-2.984-0.023-4.476
		c-0.009-0.463-0.002-0.931-0.098-1.385C56.057,44.821,55.844,44.972,55.625,45.076 M7.683,49.019
		c-0.077,0.526-0.047,1.06-0.085,1.589c0.013,0.923-0.061,1.855,0.093,2.77c-0.136,0.099,0.077,0.161,0.128,0.234
		c0.206,0.209,0.449,0.382,0.728,0.479c1.338,0.503,2.702,0.936,4.064,1.369c1.265,0.419,2.538,0.816,3.804,1.232
		c0.144,0.05,0.296,0.073,0.449,0.081c-0.001-0.031-0.001-0.095-0.001-0.127c-0.947-0.883-1.964-1.689-2.948-2.528
		c-2.028-1.695-4.039-3.41-6.098-5.068C7.783,49.043,7.717,49.027,7.683,49.019 M56.105,52.975
		c-0.547,0.234-1.015,0.614-1.472,0.989c-0.169,0.148-0.351,0.291-0.47,0.485c0.024,0.013,0.073,0.041,0.098,0.054
		c0.494-0.101,0.955-0.33,1.388-0.584c0.3-0.225,0.629-0.475,0.762-0.84C56.434,52.895,56.214,52.905,56.105,52.975 M42.582,54.181
		c-0.511,0.332-1.118,0.481-1.72,0.529c-1.188,0.074-2.37-0.113-3.539-0.296c-0.924-0.167-1.868-0.113-2.801-0.111
		c-0.349,0.12-0.586,0.429-0.843,0.679c-0.997,1.052-1.93,2.161-2.879,3.254c-0.606,0.709-1.23,1.405-1.795,2.148
		c-0.093,0.08-0.093,0.264,0.05,0.284c0.738,0.303,1.507,0.528,2.263,0.785c0.238,0.059,0.481,0.209,0.73,0.109
		c1.932-0.555,3.844-1.179,5.759-1.791c0.841-0.286,1.699-0.531,2.515-0.887c1.001-0.438,1.765-1.283,2.321-2.204
		c0.426-0.653,0.785-1.347,1.108-2.056c0.205-0.485,0.435-0.971,0.495-1.5c-0.043-0.016-0.131-0.048-0.174-0.064
		C43.525,53.365,43.114,53.855,42.582,54.181z"/>
	<path fill="#011D44" stroke="#011D44" stroke-width="0.0938" d="M26.844,2.131c2.597-0.171,5.2-0.152,7.802-0.14
		c1.319,0.039,2.633,0.156,3.946,0.272c0.201,0.038,0.421,0.03,0.606,0.128c0.188,0.199,0.248,0.478,0.27,0.742
		c0.023,0.232-0.051,0.499-0.274,0.61c-1.219,0.728-2.418,1.49-3.606,2.267c-0.907,0.594-1.731,1.3-2.566,1.988
		c-0.694,0.589-1.387,1.179-2.035,1.819c-0.604,0.625-1.191,1.266-1.753,1.929c-0.818,0.975-1.678,1.92-2.642,2.753
		c-1.232,1.079-2.679,1.896-4.206,2.478c-1.715,0.637-3.532,0.971-5.355,1.083c-0.714,0.026-1.427,0.065-2.141,0.059
		c-0.647,0.019-1.297,0.011-1.938-0.094c-1.376-0.156-2.745-0.375-4.1-0.656c-0.407-0.085-0.813-0.179-1.208-0.31
		c-0.08-0.153-0.058-0.332-0.073-0.497c-0.015-0.774-0.051-1.554,0.041-2.325c0.011-0.192,0.132-0.365,0.314-0.431
		c1.04-0.384,1.986-0.971,2.918-1.56c0.612-0.407,1.238-0.799,1.791-1.287c0.746-0.628,1.434-1.32,2.147-1.985
		c1.97-1.903,3.918-3.828,5.894-5.724c0.314-0.322,0.747-0.479,1.186-0.536C23.518,2.474,25.178,2.27,26.844,2.131z"/>
	<path fill="#011D44" stroke="#011D44" stroke-width="0.0938" d="M44.053,3.461c0.567-0.301,1.206-0.083,1.786,0.053
		c0.856,0.222,1.713,0.442,2.562,0.688c0.325,0.097,0.664,0.162,0.966,0.323c0.069,0.517-0.047,1.032-0.079,1.547
		c-0.118,1.279,0.036,2.57,0.326,3.816c0.274,1.172,0.742,2.289,1.279,3.363c0.637,1.303,1.39,2.546,2.247,3.716
		c0.786,1.075,1.638,2.1,2.486,3.127c0.126,0.189,0.331,0.34,0.376,0.572c-0.975-0.011-1.945-0.151-2.919-0.197
		c-0.855-0.057-1.713-0.168-2.533-0.425c-0.75-0.237-1.496-0.507-2.277-0.621c-0.554-0.048-1.112-0.034-1.666-0.011
		c-0.495,0.021-0.975,0.168-1.471,0.167c-0.032-0.017-0.095-0.051-0.128-0.069c-0.579-1.24-0.994-2.548-1.455-3.834
		c-0.901-2.589-1.539-5.27-1.871-7.992c-0.101-0.893-0.247-1.786-0.25-2.687c-0.009-0.232,0.225-0.333,0.393-0.434
		C42.555,4.172,43.294,3.795,44.053,3.461z"/>
	<path fill="#011D44" stroke="#011D44" stroke-width="0.0938" d="M14.883,4.414c0.746-0.253,1.505-0.475,2.271-0.661
		c0.14-0.041,0.286-0.051,0.432-0.041c0.017,0.092,0.025,0.191-0.045,0.265c-0.369,0.54-0.825,1.072-1.445,1.323
		c-0.211-0.017-0.409-0.106-0.615-0.154c-0.391-0.117-0.801-0.192-1.17-0.369c-0.004-0.025-0.011-0.076-0.015-0.101
		C14.471,4.551,14.68,4.485,14.883,4.414z"/>
	<path fill="#011D44" stroke="#011D44" stroke-width="0.0938" d="M51.199,6.139c0.023-0.269,0.017-0.549,0.134-0.8
		c0.332-0.013,0.642,0.118,0.938,0.253c0.542,0.227,1.061,0.505,1.581,0.778c0.641,0.349,1.282,0.701,1.884,1.115
		c0.23,0.168,0.466,0.367,0.549,0.651c0.107,0.394,0.092,0.805,0.105,1.209c0.023,1.954,0.016,3.908-0.001,5.861
		c-0.015,0.871-0.015,1.741-0.073,2.611c-0.155-0.091-0.267-0.232-0.377-0.37c-0.766-0.959-1.49-1.952-2.179-2.966
		c-0.756-1.096-1.311-2.311-1.815-3.538c-0.326-0.766-0.511-1.583-0.661-2.4C51.18,7.748,51.175,6.941,51.199,6.139z"/>
	<path fill="#011D44" stroke="#011D44" stroke-width="0.0938" d="M38.871,6.158c0.186-0.094,0.372-0.239,0.59-0.224
		c0.103,0.077,0.106,0.216,0.137,0.329c0.067,0.404,0.063,0.817,0.12,1.222c0.209,1.476,0.523,2.934,0.849,4.387
		c0.346,1.508,0.734,3.006,1.191,4.484c0.169,0.587,0.411,1.152,0.542,1.75c-0.387,0.071-0.788,0.048-1.167,0.16
		c-0.242,0.056-0.491,0.16-0.743,0.103c-0.268-0.115-0.31-0.446-0.527-0.618c-0.458-0.387-1.08-0.55-1.673-0.518
		c-0.422,0.047-0.811,0.235-1.193,0.409c-0.854,0.385-1.675,0.84-2.531,1.221c-0.26,0.126-0.525,0.243-0.805,0.312
		c-0.709-0.135-1.428-0.202-2.149-0.222c-0.96,0.005-1.916,0.124-2.86,0.294c-0.903,0.174-1.799,0.413-2.647,0.773
		c-0.804,0.373-1.542,0.87-2.275,1.364c-0.279,0.189-0.538,0.407-0.835,0.569c-0.465-0.403-0.815-0.915-1.2-1.39
		c-0.232-0.337-0.534-0.632-0.704-1.007c0.045-0.098,0.162-0.119,0.248-0.164c0.911-0.361,1.845-0.67,2.733-1.087
		c1.606-0.702,3.101-1.652,4.428-2.795c0.722-0.636,1.33-1.385,1.945-2.121c1.618-1.891,3.392-3.667,5.406-5.14
		C36.755,7.499,37.787,6.787,38.871,6.158z"/>
	<path fill="#011D44" stroke="#011D44" stroke-width="0.0938" d="M9.448,6.661C9.87,6.46,10.283,6.225,10.739,6.11
		c0.821-0.148,1.622,0.162,2.41,0.351c0.415,0.12,0.837,0.221,1.247,0.362c-0.192,0.282-0.473,0.483-0.711,0.721
		c-1.15,1.015-2.299,2.038-3.567,2.906c-0.75,0.501-1.506,0.999-2.313,1.404c-0.11-0.099-0.181-0.232-0.174-0.383
		c-0.016-1.018-0.006-2.036-0.005-3.053C7.61,8.069,7.82,7.758,8.05,7.515C8.456,7.143,8.968,6.92,9.448,6.661z"/>
	<path fill="#FE0E1A" stroke="#FE0E1A" stroke-width="0.0938" d="M38.117,19.303c0.094-0.049,0.202-0.053,0.305-0.069
		c0.117,0.471-0.003,0.979,0.185,1.435c0.093,0.222,0.324,0.314,0.522,0.419c0.444,0.192,0.979,0.162,1.414-0.043
		c0.417-0.193,0.735-0.536,1.112-0.791c0.286,0.076,0.466,0.33,0.693,0.502c0.312,0.244,0.568,0.55,0.863,0.814
		c0.001,0.017,0.003,0.051,0.003,0.069c-0.307,0.276-0.66,0.495-0.989,0.743c-0.505,0.362-0.989,0.753-1.461,1.158
		c-0.262,0.25-0.545,0.486-0.746,0.791c-0.101,0.128-0.102,0.339,0.036,0.443c0.217,0.222,0.588,0.385,0.875,0.198
		c0.315-0.211,0.594-0.473,0.869-0.734c0.788-0.7,1.548-1.449,2.461-1.99c1.173-0.714,2.587-1.088,3.956-0.855
		c0.897,0.194,1.761,0.511,2.654,0.724c0.288,0.074,0.58,0.138,0.877,0.174c1.026,0.19,2.076,0.182,3.109,0.324
		c-0.006,0.053-0.012,0.107-0.016,0.162c-0.336,0.397-0.712,0.76-1.107,1.098c-0.553,0.507-1.119,1.008-1.762,1.399
		c-0.21,0.134-0.451,0.2-0.693,0.246c-1.283,0.226-2.576-0.077-3.808-0.425c-0.926-0.245-1.845-0.533-2.793-0.683
		c-0.535-0.044-1.074-0.017-1.611-0.005c-0.358,0.007-0.69,0.152-1.005,0.308c-0.293,0.124-0.566,0.292-0.843,0.448
		c0.003,0.069,0.017,0.138,0.081,0.18c0.525,0.517,1.122,1.01,1.407,1.711c0.296,0.706,0.419,1.487,0.376,2.25
		c-0.246,1.054-0.712,2.06-1.393,2.904c-0.478,0.602-1.003,1.172-1.61,1.648c-0.772,0.6-1.607,1.12-2.492,1.537
		c-1.094,0.533-2.257,0.954-3.472,1.096c-0.089,0.005-0.176,0.018-0.26,0.047c-0.622,0.049-1.249,0.004-1.87,0.071
		c-0.826,0.008-1.652,0.008-2.478,0.003c-0.628-0.043-1.254-0.153-1.856-0.338c-1.526-0.547-2.882-1.467-4.145-2.465
		c-0.657,0.426-1.308,0.862-1.964,1.291c-0.071,0.063-0.166,0.054-0.254,0.057c-0.017-0.346-0.014-0.694-0.065-1.037
		c-0.037-0.397,0.001-0.828-0.204-1.186c-0.731-0.961-1.453-1.93-2.229-2.855c-0.063-0.067-0.124-0.146-0.214-0.177
		c-0.371-0.124-0.766-0.081-1.15-0.114c-0.087-0.019-0.176-0.031-0.265-0.031c-1.139-0.007-2.283-0.053-3.417,0.076
		c-0.313,0.042-0.549,0.296-0.701,0.554c-0.007,0.187,0.172,0.298,0.285,0.42c0.298,0.246,0.577,0.516,0.888,0.746
		c0.104,0.029,0.183-0.053,0.262-0.105c0.236-0.185,0.482-0.358,0.744-0.504c0.158,0.194,0.362,0.396,0.371,0.661
		c-0.225,0.339-0.563,0.568-0.863,0.833c-0.977,0.841-1.893,1.747-2.851,2.609c-0.137,0.131-0.291-0.027-0.403-0.112
		c-0.316-0.269-0.679-0.475-1.063-0.632c-0.065-0.022-0.13-0.043-0.195-0.064c-0.747-0.248-1.546-0.155-2.318-0.234
		c1.44-1.988,2.889-3.971,4.329-5.96c0.503-0.642,0.928-1.339,1.418-1.991c0.207-0.302,0.43-0.594,0.625-0.905
		c0.075-0.197,0.3-0.35,0.25-0.58c-0.502-0.752-1.003-1.541-1.741-2.086c-0.107-0.084-0.236-0.128-0.362-0.174
		c-0.566-0.094-1.15-0.023-1.718,0.027c0.005-0.198,0.204-0.297,0.327-0.424c0.851-0.768,1.952-1.332,3.119-1.321
		c0.585,0.003,1.182-0.051,1.755,0.096c0.743,0.206,1.339,0.72,1.924,1.196c0.084,0.09,0.233,0.091,0.322,0.007
		c0.389-0.3,0.772-0.611,1.186-0.878c0.172-0.088,0.257,0.129,0.365,0.222c1.032,1.22,1.998,2.496,3.037,3.71
		c0.098,0.112,0.206,0.252,0.375,0.204c0.294-0.406,0.551-0.841,0.885-1.216c0.867-1.08,2.096-1.803,3.37-2.306
		c0.332-0.128,0.671-0.241,1.016-0.332c0.176-0.039,0.351-0.087,0.525-0.137c0.656-0.156,1.33-0.226,2.004-0.218
		c0.421,0.01,0.857-0.06,1.263,0.079c-0.299,0.317-0.742,0.453-1.076,0.733c-0.642,0.533-1.255,1.108-1.771,1.765
		c-0.443,0.644-0.802,1.346-1.075,2.079c-0.206,0.549-0.401,1.123-0.381,1.718c0.003,0.601-0.049,1.208,0.057,1.803
		c0.075,0.521,0.212,1.031,0.369,1.533c0.322,0.984,0.916,1.91,1.799,2.476c0.509,0.333,1.076,0.579,1.679,0.677
		c1.226,0.039,2.454,0.032,3.681,0.009c0.838-0.061,1.597-0.513,2.183-1.094c0.321-0.363,0.63-0.782,0.688-1.277
		c0.05-0.386-0.018-0.784-0.168-1.141c-0.16-0.316-0.417-0.57-0.672-0.81c-0.465-0.439-1.083-0.656-1.668-0.882
		c-0.144-0.049-0.389-0.132-0.455,0.066c-0.182,0.568-0.105,1.183-0.278,1.755c-0.049,0.138-0.2,0.186-0.316,0.25
		c-1.346,0.608-2.725,1.139-4.116,1.632c-0.115,0.056-0.246,0.045-0.369,0.048c-0.122-0.988-0.041-1.987-0.121-2.977
		c0-0.601,0.001-1.201-0.001-1.802c0.061-0.799,0.033-1.602,0.062-2.403c0.055-0.612,0.064-1.226,0.128-1.837
		c0.203-0.198,0.47-0.306,0.709-0.453c1.17-0.626,2.355-1.226,3.531-1.842C35.763,20.453,36.921,19.838,38.117,19.303
		 M35.365,23.387c-0.127,0.765-0.095,1.546-0.075,2.319c0.053,0.306,0.017,0.632,0.147,0.92c0.682-0.439,1.292-0.977,1.933-1.472
		c0.521-0.443,1.086-0.842,1.547-1.349c-0.338-0.053-0.662,0.073-0.989,0.13c-0.375,0.088-0.763,0.093-1.144,0.05
		c-0.425-0.114-0.828-0.302-1.177-0.572C35.525,23.404,35.445,23.395,35.365,23.387 M15.807,26.497
		c-0.377,0.439-0.696,0.923-1.016,1.404c-0.002,0.058-0.006,0.173-0.008,0.231c0.145,0.027,0.289,0.066,0.438,0.069
		c0.661,0.011,1.323,0.001,1.984,0.005c0.015-0.15-0.083-0.265-0.159-0.383c-0.332-0.459-0.644-0.933-1.013-1.364
		C15.958,26.463,15.863,26.429,15.807,26.497z"/>
	<path fill="#011D44" stroke="#011D44" stroke-width="0.0938" d="M7.571,20.387c0.481-0.031,0.961,0.025,1.437,0.091
		c0.131,0.023,0.28,0.031,0.369,0.145c-0.168,0.497-0.523,0.907-0.665,1.416c-0.206,0.572,0.011,1.198,0.358,1.666
		c0.178,0.262,0.442,0.472,0.746,0.564c0.722,0.126,1.468-0.011,2.186,0.132c0.039,0.051,0.077,0.101,0.116,0.152
		c-0.309,0.677-0.746,1.283-1.156,1.9c-0.628,0.923-1.299,1.817-1.956,2.72c-0.344,0.457-0.661,0.934-1.03,1.371
		c-0.065,0.082-0.148,0.145-0.239,0.196c-0.166-0.481-0.078-0.999-0.132-1.497C7.566,26.291,7.578,23.339,7.571,20.387z"/>
	<path fill="#FFFFFF" stroke="#FFFFFF" stroke-width="0.0938" d="M35.365,23.387c0.079,0.008,0.16,0.017,0.241,0.026
		c0.349,0.269,0.752,0.457,1.177,0.572c0.381,0.043,0.769,0.038,1.144-0.05c0.328-0.056,0.652-0.183,0.989-0.13
		c-0.461,0.507-1.026,0.907-1.547,1.349c-0.641,0.494-1.251,1.033-1.933,1.472c-0.13-0.288-0.093-0.614-0.147-0.92
		C35.27,24.934,35.238,24.153,35.365,23.387z"/>
	<path fill="#FE0E1A" stroke="#FE0E1A" stroke-width="0.0938" d="M52.709,25.69c0.119-0.064,0.26-0.14,0.395-0.069
		c0.443,0.201,0.862,0.455,1.318,0.628c0.643,0.174,1.269-0.154,1.905-0.186c0.007,0.333-0.036,0.674-0.209,0.965
		c-0.289,0.435-0.704,0.78-1.175,1.003c-0.517,0.226-1.125,0.345-1.668,0.14c-0.724-0.272-1.425-0.617-2.05-1.076
		c-0.152-0.109-0.276-0.25-0.4-0.387C51.42,26.308,52.081,26.029,52.709,25.69z"/>
	<path fill="#FE0E1A" stroke="#FE0E1A" stroke-width="0.0938" d="M45.943,26.384c0.344-0.267,0.639-0.622,1.056-0.777
		c0.221,0.072,0.437,0.161,0.642,0.273c1.332,0.656,2.654,1.341,3.91,2.135c0.448,0.28,0.897,0.571,1.276,0.941
		c0.156,0.215,0.339,0.467,0.272,0.75c-0.1,0.278-0.302,0.501-0.499,0.716c-0.733,0.74-1.624,1.292-2.48,1.875
		c-0.98,0.646-1.968,1.282-2.98,1.879c-0.357,0.187-0.69,0.423-1.073,0.556c-0.696-0.133-1.341-0.456-2.004-0.698
		c-0.712-0.281-1.528-0.402-2.254-0.101c-0.093,0.009-0.188,0.017-0.28,0.025c0.114-0.314,0.365-0.547,0.594-0.78
		c0.483-0.505,1.104-0.849,1.734-1.135c0.935-0.458,1.988-0.58,3.014-0.644c0.24-0.037,0.495-0.051,0.693-0.208
		c0-0.029,0-0.088,0.001-0.118c-0.694-0.728-1.447-1.396-2.199-2.064c-0.341-0.346-0.758-0.624-1.024-1.038
		C44.818,27.387,45.395,26.898,45.943,26.384z"/>
	<path fill="#FFFFFF" stroke="#FFFFFF" stroke-width="0.0938" d="M15.807,26.497c0.056-0.069,0.151-0.035,0.226-0.037
		c0.369,0.431,0.68,0.905,1.013,1.364c0.075,0.118,0.174,0.233,0.159,0.383c-0.662-0.005-1.323,0.006-1.984-0.005
		c-0.149-0.003-0.293-0.041-0.438-0.069c0.002-0.058,0.006-0.173,0.008-0.231C15.111,27.421,15.43,26.936,15.807,26.497z"/>
	<path fill="#011D44" stroke="#011D44" stroke-width="0.0938" d="M55.191,30.216c0.287-0.256,0.608-0.485,0.972-0.619
		c0.136-0.015,0.166,0.148,0.179,0.25c0.075,0.574,0.044,1.154,0.063,1.731c-0.013,1.356,0.009,2.715-0.098,4.069
		c-0.248-0.176-0.458-0.398-0.677-0.608c-0.786-0.753-1.537-1.542-2.305-2.314c-0.023,0.007-0.071,0.022-0.095,0.029
		c0.483-0.653,1.09-1.214,1.528-1.903C54.889,30.632,54.993,30.388,55.191,30.216z"/>
	<path fill="#011D44" stroke="#011D44" stroke-width="0.0938" d="M17.714,31.937c0.085-0.039,0.133,0.067,0.187,0.111
		c0.237,0.274,0.455,0.566,0.664,0.863c0.23,0.312,0.464,0.634,0.572,1.012c0.228,0.722,0.013,1.522,0.324,2.222
		c0.293,0.489,0.763,0.889,1.313,1.056c0.55,0.137,1.108-0.069,1.578-0.345c0.31-0.16,0.587-0.379,0.903-0.527
		c0.177-0.089,0.355,0.056,0.506,0.136c1.069,0.672,2.162,1.346,3.384,1.702c1.238,0.377,2.543,0.458,3.83,0.449
		c0.957,0.006,1.915-0.03,2.866-0.142c0.493-0.083,0.989-0.148,1.482-0.24c1.343-0.325,2.673-0.753,3.885-1.426
		c0.358-0.192,0.684-0.441,1.062-0.595c0.541-0.169,1.127-0.044,1.667-0.218c0.369-0.087,0.744-0.29,1.13-0.172
		c0.945,0.222,1.843,0.624,2.803,0.789c0.499,0.085,1.012-0.035,1.462-0.253c1.436-0.832,2.838-1.721,4.238-2.611
		c0.071-0.07,0.131,0.047,0.183,0.085c1.501,1.552,3.06,3.048,4.535,4.625c0.081,0.093,0.158,0.206,0.142,0.337
		c0.017,1.275,0.011,2.549,0.033,3.824c-1.305,0.638-2.618,1.273-3.838,2.065c-0.412,0.273-0.86,0.491-1.243,0.805
		c-0.446,0.363-0.933,0.671-1.371,1.044c-1.468,1.243-2.8,2.639-4.052,4.097c-0.181,0.191-0.345,0.439-0.62,0.496
		c-0.208,0.009-0.404-0.074-0.608-0.095c-0.332-0.056-0.673-0.028-0.998,0.049C43.288,51.2,42.924,51.5,42.57,51.78
		c-0.465,0.396-0.935,0.809-1.502,1.051c-1.366,0.005-2.723-0.175-4.077-0.336c-0.444-0.071-0.893-0.111-1.343-0.105
		c-0.602,0.007-1.214-0.037-1.806,0.099c-0.305,0.069-0.512,0.315-0.735,0.513c-2.179,2.058-3.994,4.46-6.132,6.557
		c-0.234,0.262-0.621,0.271-0.933,0.166c-1.174-0.342-2.34-0.721-3.477-1.172c-0.561-0.214-1.005-0.63-1.474-0.988
		c-2.818-2.302-5.611-4.636-8.406-6.966c-0.88-0.763-1.795-1.486-2.663-2.263c-0.19-0.208-0.469-0.379-0.507-0.682
		c0.083-0.054,0.164-0.115,0.258-0.146c0.716-0.236,1.455-0.401,2.165-0.659c0.418-0.158,0.861-0.362,1.096-0.763
		c0.31-0.592,0.409-1.305,0.207-1.949c-0.25-0.985-0.61-1.942-0.822-2.936c-0.152-1.222-0.111-2.457-0.096-3.684
		c0.867-0.961,1.829-1.831,2.767-2.722c0.376-0.339,0.74-0.692,1.124-1.022c0.371-0.343,0.768-0.663,1.068-1.074
		C17.45,32.46,17.543,32.175,17.714,31.937 M33.816,42.778c-0.574,0.085-1.226,0.509-1.214,1.151
		c-0.009,0.295-0.055,0.591-0.017,0.886c0.073,0.469,0.44,0.878,0.897,1.008c0.353,0.117,0.735,0.103,1.099,0.053
		c0.633-0.09,1.154-0.705,1.112-1.346c-0.006-0.234,0.011-0.469-0.014-0.702c-0.087-0.36-0.321-0.69-0.656-0.857
		C34.654,42.784,34.225,42.71,33.816,42.778 M18.126,45.902c0.799-0.019,1.599-0.004,2.399-0.008
		c-0.004-0.222-0.004-0.443,0.002-0.664c-0.491-0.007-0.982-0.017-1.473-0.009c-0.055-0.175-0.007-0.36-0.013-0.539
		c0.416-0.015,0.836,0.021,1.25-0.036c0.048-0.201,0.008-0.423,0.021-0.632c-0.425-0.029-0.85-0.029-1.275-0.032
		c-0.025-0.17-0.022-0.343,0.006-0.512c0.494-0.025,0.989-0.022,1.484-0.023c-0.006-0.222-0.003-0.445-0.009-0.666
		c-0.797,0.009-1.594,0.011-2.39,0C18.118,43.821,18.123,44.862,18.126,45.902 M22.999,43.228c-0.203,0.334-0.224,0.835,0.101,1.102
		c0.328,0.286,0.789,0.299,1.155,0.51c0.166,0.082,0.085,0.336-0.073,0.376c-0.411,0.099-0.836-0.001-1.247-0.056
		c-0.005,0.217-0.01,0.435,0.011,0.652c0.419,0.103,0.855,0.126,1.285,0.088c0.424-0.049,0.874-0.31,0.969-0.756
		c0.111-0.369-0.103-0.769-0.439-0.933c-0.349-0.204-0.811-0.174-1.099-0.484c0.08-0.099,0.152-0.248,0.3-0.243
		c0.369-0.019,0.738,0.001,1.107-0.007c-0.029-0.207,0.06-0.46-0.067-0.636c-0.332-0.1-0.686-0.085-1.028-0.059
		C23.618,42.825,23.214,42.912,22.999,43.228 M27.65,42.834c-0.006,1.024-0.027,2.048,0.001,3.071
		c0.273-0.019,0.547-0.009,0.821-0.008c0.037-0.281-0.042-0.584,0.062-0.849c0.479,0.021,1.016-0.035,1.377-0.386
		c0.22-0.2,0.236-0.517,0.247-0.793c0.025-0.447-0.285-0.905-0.722-1.022C28.843,42.789,28.243,42.755,27.65,42.834 M38.309,42.84
		c-0.147,0.112-0.091,0.328-0.126,0.49c-0.015,0.855-0.015,1.711-0.015,2.566c0.277-0.003,0.554-0.005,0.832,0.003
		c0.009-0.349,0.005-0.698,0.04-1.046c0.053-0.001,0.162-0.004,0.216-0.005c0.3,0.314,0.491,0.717,0.766,1.046
		c0.302,0.007,0.604-0.007,0.906,0.007c-0.247-0.399-0.503-0.793-0.778-1.172c0.053-0.071,0.116-0.132,0.184-0.186
		c0.5-0.376,0.488-1.315-0.109-1.59C39.625,42.665,38.944,42.777,38.309,42.84 M42.842,42.785c0.001,0.215,0.001,0.43-0.003,0.646
		c0.323,0.048,0.659-0.023,0.975,0.067c-0.023,0.8,0.008,1.6-0.007,2.4c0.295-0.005,0.59-0.008,0.885,0.001
		c-0.002-0.814,0.009-1.628,0.012-2.442c0.332,0,0.666-0.005,0.999-0.014c0.001-0.212,0.002-0.423,0.005-0.634
		C44.756,42.758,43.798,42.804,42.842,42.785z"/>
	<path fill="#011D44" stroke="#011D44" stroke-width="0.0938" d="M8.175,36.036c0.613-0.093,1.285-0.041,1.825,0.29
		c0.291,0.19,0.602,0.483,0.524,0.869c-0.156,0.833-0.146,1.685-0.137,2.53c0.035,0.722,0.15,1.438,0.28,2.149
		c0.168,0.944,0.58,1.823,0.77,2.761c0.032,0.149,0.063,0.345-0.096,0.435c-0.188,0.099-0.394,0.158-0.597,0.219
		c-0.964,0.25-1.92,0.533-2.866,0.843C7.773,46.198,7.655,46.112,7.659,46c-0.073-0.977-0.064-1.956-0.085-2.935
		c-0.007-2.095-0.055-4.194,0.075-6.287C7.655,36.449,7.828,36.107,8.175,36.036z"/>
	<path fill="#FFFFFF" stroke="#FFFFFF" stroke-width="0.0938" d="M33.816,42.778c0.409-0.068,0.838,0.006,1.206,0.193
		c0.334,0.167,0.569,0.497,0.656,0.857c0.025,0.233,0.008,0.468,0.014,0.702c0.041,0.641-0.479,1.256-1.112,1.346
		c-0.364,0.05-0.746,0.064-1.099-0.053c-0.457-0.13-0.824-0.539-0.897-1.008c-0.038-0.295,0.008-0.591,0.017-0.886
		C32.59,43.287,33.243,42.864,33.816,42.778 M33.508,43.837c-0.076,0.312-0.091,0.645-0.017,0.96
		c0.038,0.178,0.188,0.298,0.301,0.43c0.32,0.035,0.754,0.052,0.935-0.272c0.112-0.352,0.103-0.74,0.038-1.1
		C34.603,43.315,33.677,43.288,33.508,43.837z"/>
	<path fill="#FFFFFF" stroke="#FFFFFF" stroke-width="0.0938" d="M18.126,45.902c-0.003-1.04-0.007-2.081,0.003-3.121
		c0.797,0.011,1.594,0.009,2.39,0c0.005,0.222,0.003,0.444,0.009,0.666c-0.495,0.001-0.99-0.002-1.484,0.023
		c-0.028,0.17-0.031,0.342-0.006,0.512c0.425,0.003,0.851,0.003,1.275,0.032c-0.013,0.208,0.027,0.431-0.021,0.632
		c-0.414,0.057-0.834,0.021-1.25,0.036c0.006,0.179-0.043,0.364,0.013,0.539c0.491-0.008,0.982,0.002,1.473,0.009
		c-0.006,0.222-0.006,0.443-0.002,0.664C19.725,45.898,18.925,45.883,18.126,45.902z"/>
	<path fill="#FFFFFF" stroke="#FFFFFF" stroke-width="0.0938" d="M22.999,43.228c0.214-0.316,0.619-0.403,0.974-0.446
		c0.342-0.027,0.696-0.041,1.028,0.059c0.127,0.176,0.038,0.429,0.067,0.636c-0.369,0.008-0.738-0.012-1.107,0.007
		c-0.148-0.005-0.22,0.144-0.3,0.243c0.288,0.31,0.75,0.28,1.099,0.484c0.336,0.164,0.55,0.564,0.439,0.933
		c-0.095,0.445-0.545,0.706-0.969,0.756c-0.429,0.038-0.865,0.015-1.285-0.088c-0.021-0.217-0.016-0.435-0.011-0.652
		c0.411,0.055,0.835,0.155,1.247,0.056c0.158-0.04,0.239-0.294,0.073-0.376c-0.366-0.211-0.827-0.224-1.155-0.51
		C22.776,44.062,22.796,43.561,22.999,43.228z"/>
	<path fill="#FFFFFF" stroke="#FFFFFF" stroke-width="0.0938" d="M27.65,42.834c0.593-0.079,1.192-0.045,1.786,0.013
		c0.437,0.117,0.747,0.574,0.722,1.022c-0.011,0.276-0.027,0.594-0.247,0.793c-0.361,0.351-0.897,0.407-1.377,0.386
		c-0.104,0.266-0.025,0.568-0.062,0.849c-0.273-0.001-0.547-0.011-0.821,0.008C27.623,44.881,27.644,43.857,27.65,42.834
		 M28.543,43.361c-0.103,0.34-0.052,0.702-0.054,1.053c0.163,0.008,0.328,0.025,0.491,0.006c0.343-0.109,0.444-0.542,0.282-0.839
		C29.093,43.364,28.793,43.36,28.543,43.361z"/>
	<path fill="#FFFFFF" stroke="#FFFFFF" stroke-width="0.0938" d="M38.309,42.84c0.635-0.063,1.316-0.175,1.916,0.112
		c0.598,0.275,0.61,1.214,0.109,1.59c-0.069,0.054-0.132,0.115-0.184,0.186c0.276,0.379,0.531,0.773,0.778,1.172
		c-0.302-0.013-0.604,0-0.906-0.007c-0.275-0.329-0.465-0.732-0.766-1.046c-0.054,0.001-0.162,0.004-0.216,0.005
		c-0.035,0.348-0.031,0.698-0.04,1.046c-0.278-0.007-0.555-0.006-0.832-0.003c0-0.855-0.001-1.711,0.015-2.566
		C38.219,43.169,38.163,42.952,38.309,42.84 M39.026,44.21c0.217,0.006,0.443,0.038,0.65-0.046c0.161-0.143,0.33-0.397,0.139-0.59
		c-0.152-0.246-0.457-0.22-0.706-0.197C39.033,43.647,39.012,43.929,39.026,44.21z"/>
	<path fill="#FFFFFF" stroke="#FFFFFF" stroke-width="0.0938" d="M42.842,42.785c0.955,0.019,1.914-0.027,2.868,0.023
		c-0.003,0.211-0.005,0.423-0.005,0.634c-0.334,0.009-0.667,0.014-0.999,0.014c-0.003,0.815-0.014,1.628-0.012,2.442
		c-0.295-0.009-0.59-0.007-0.885-0.001c0.015-0.801-0.015-1.6,0.007-2.4c-0.316-0.09-0.652-0.019-0.975-0.067
		C42.844,43.215,42.843,43,42.842,42.785z"/>
	<path fill="#011D44" stroke="#011D44" stroke-width="0.0938" d="M28.543,43.361c0.25-0.001,0.55,0.003,0.719,0.22
		c0.162,0.296,0.061,0.73-0.282,0.839c-0.163,0.019-0.328,0.002-0.491-0.006C28.491,44.063,28.44,43.701,28.543,43.361z"/>
	<path fill="#011D44" stroke="#011D44" stroke-width="0.0938" d="M39.026,44.21c-0.014-0.28,0.007-0.563,0.083-0.833
		c0.248-0.023,0.554-0.049,0.706,0.197c0.191,0.193,0.022,0.447-0.139,0.59C39.469,44.248,39.243,44.216,39.026,44.21z"/>
	<path fill="#011D44" stroke="#011D44" stroke-width="0.0938" d="M33.508,43.837c0.169-0.549,1.095-0.522,1.257,0.018
		c0.065,0.36,0.074,0.748-0.038,1.1c-0.18,0.324-0.615,0.307-0.935,0.272c-0.114-0.132-0.263-0.252-0.301-0.43
		C33.417,44.482,33.432,44.15,33.508,43.837z"/>
	<path fill="#011D44" stroke="#011D44" stroke-width="0.0938" d="M55.625,45.076c0.22-0.104,0.433-0.256,0.684-0.258
		c0.096,0.455,0.089,0.923,0.098,1.385c0.045,1.492,0.013,2.984,0.023,4.476c-0.805,0.401-1.626,0.79-2.344,1.338
		c-0.517,0.389-0.968,0.858-1.413,1.326c-0.302,0.328-0.571,0.693-0.751,1.103c-0.138,0.269-0.23,0.564-0.413,0.807
		c-0.202,0.266-0.557,0.301-0.846,0.421c-2.064,0.641-4.113,1.332-6.179,1.966c-0.081,0.029-0.168,0.008-0.25,0.002
		c0.006-0.215,0.096-0.412,0.18-0.606c1.068-2.57,2.678-4.889,4.561-6.926c0.596-0.63,1.245-1.208,1.899-1.775
		C52.318,47.061,53.932,45.99,55.625,45.076z"/>
	<path fill="#011D44" stroke="#011D44" stroke-width="0.0938" d="M7.683,49.019c0.033,0.008,4.205,3.404,6.233,5.1
		c0.985,0.839,2.001,1.645,2.948,2.528c0,0.032,0.001,0.095,0.001,0.127c-0.152-0.009-0.304-0.031-0.449-0.081
		c-1.267-0.416-2.539-0.813-3.804-1.232c-1.362-0.433-2.726-0.866-4.064-1.369c-0.279-0.097-0.523-0.27-0.728-0.479
		c-0.051-0.073,0,0-0.128-0.234c-0.155-0.915-0.081-1.847-0.093-2.77C7.637,50.079,7.607,49.545,7.683,49.019z"/>
	<path fill="#011D44" stroke="#011D44" stroke-width="0.0938" d="M56.105,52.975c0.109-0.069,0.328-0.08,0.306,0.104
		c-0.133,0.365-0.461,0.615-0.762,0.84c-0.433,0.254-0.894,0.483-1.388,0.584c-0.025-0.013-0.074-0.041-0.098-0.054
		c0.12-0.194,0.301-0.337,0.47-0.485C55.09,53.589,55.558,53.209,56.105,52.975z"/>
	<path fill="#011D44" stroke="#011D44" stroke-width="0.0938" d="M42.582,54.181c0.532-0.326,0.943-0.817,1.489-1.121
		c0.043,0.016,0.131,0.048,0.174,0.064c-0.059,0.529-0.29,1.015-0.495,1.5c-0.322,0.709-0.682,1.403-1.108,2.056
		c-0.556,0.921-1.32,1.766-2.321,2.204c-0.816,0.356-1.674,0.602-2.515,0.887c-1.915,0.612-3.826,1.236-5.759,1.791
		c-0.248,0.1-0.492-0.049-0.73-0.109c-0.756-0.257-1.524-0.482-2.263-0.785c-0.143-0.021-0.144-0.204-0.05-0.284
		c0.564-0.743,1.188-1.439,1.795-2.148c0.949-1.093,1.882-2.203,2.879-3.254c0.256-0.25,0.494-0.559,0.843-0.679
		c0.933-0.001,1.877-0.055,2.801,0.111c1.169,0.183,2.351,0.37,3.539,0.296C41.463,54.662,42.07,54.513,42.582,54.181z"/>
</g>
</svg>
