<?xml version="1.0" encoding="utf-8"?>
<!-- Generator: Adobe Illustrator 23.0.2, SVG Export Plug-In . SVG Version: 6.00 Build 0)  -->
<svg version="1.1" id="Layer_1" xmlns="http://www.w3.org/2000/svg" xmlns:xlink="http://www.w3.org/1999/xlink" x="0px" y="0px"
	 width="64px" height="64px" viewBox="0 0 64 64" enable-background="new 0 0 64 64" xml:space="preserve">
<g>
	<g>
		<path fill="#C4C4C4" d="M15.396,18.529c0.001-0.097-0.07-0.152-0.13-0.211c-1.136-1.113-2.253-2.247-3.415-3.332
			c-0.929-0.868-1.791-1.801-2.73-2.657c-0.069-0.063-0.119-0.147-0.151-0.276c0.32,0.142,0.641,0.281,0.958,0.428
			c1.267,0.587,2.533,1.178,3.8,1.764c0.075,0.035,0.162,0.044,0.244,0.066l0.026,0.015L13.982,14.3
			c-0.459-0.446-0.982-0.815-1.48-1.213c-1.707-1.363-3.421-2.717-5.133-4.074c-0.48-0.38-0.962-0.757-1.408-1.199
			C6.49,8.03,7.018,8.246,7.547,8.46c2.402,0.97,4.805,1.936,7.206,2.909c2.905,1.177,5.807,2.359,8.711,3.538
			c2.222,0.902,4.45,1.789,6.665,2.708c2.255,0.935,4.5,1.895,6.744,2.854c1.972,0.842,3.954,1.661,5.854,2.664
			c2.24,1.183,4.379,2.525,6.403,4.048c0.988,0.743,1.952,1.517,2.872,2.345c0.85,0.764,1.694,1.534,2.477,2.367
			c1.542,1.642,3.009,3.344,4.195,5.271c0.127,0.207,0.196,0.414,0.198,0.66c0.004,0.479,0.044,0.958,0.059,1.437
			c0.006,0.191,0.121,0.316,0.234,0.44c0.6,0.652,1.215,1.289,1.806,1.949c1.086,1.213,2.081,2.489,2.65,4.041
			c0.095,0.259,0.17,0.527,0.247,0.792c0.022,0.075,0.028,0.15,0.132,0.144c0,0.043,0,0.086,0,0.128
			c-0.048,0.064-0.048,0.128,0,0.192c0,0.599,0,1.197,0,1.796c-0.048,0.064-0.048,0.128,0,0.192c0,0.043,0,0.086,0,0.128
			c-0.104-0.005-0.112,0.069-0.131,0.146c-0.453,1.861-1.716,3.046-3.312,3.943c-1.655,0.931-3.453,1.424-5.311,1.753
			c-1.59,0.282-3.17,0.621-4.754,0.934c-0.573,0.113-1.147,0.225-1.721,0.334c-0.057,0.011-0.124,0.033-0.2-0.043
			c0.447-0.425,0.888-0.852,1.338-1.271c0.382-0.356,0.779-0.696,1.161-1.052c0.945-0.879,1.884-1.765,2.83-2.644
			c0.185-0.172,0.057-0.244-0.08-0.334c-0.722-0.474-1.455-0.932-2.21-1.352c-2.215-1.23-4.525-2.252-6.922-3.07
			c-1.823-0.623-3.68-1.133-5.57-1.513c-1.365-0.275-2.736-0.508-4.123-0.646c-0.402-0.04-0.799-0.117-1.205-0.123
			c-0.136-0.002-0.231-0.097-0.333-0.175c-2.936-2.242-6.042-4.231-9.186-6.164c-2.771-1.704-5.59-3.326-8.418-4.933
			c-1.725-0.98-3.47-1.925-5.213-2.872c-1.509-0.819-3.013-1.649-4.548-2.419c-1.868-0.937-3.766-1.815-5.651-2.72
			C0.29,24.77,0.144,24.688,0,24.586c2.459-0.015,4.913,0.144,7.37,0.11l0.005-0.005c-0.228-0.321-0.535-0.567-0.818-0.832
			c-0.544-0.51-1.112-0.993-1.662-1.497c-0.896-0.82-1.786-1.649-2.679-2.472c-0.07-0.064-0.147-0.12-0.221-0.18
			c0.015-0.037,0.031-0.074,0.046-0.111c4.515,0.718,9.03,1.436,13.594,2.161c-0.154-0.254-0.344-0.409-0.52-0.568
			c-0.968-0.873-1.842-1.841-2.796-2.727c-0.743-0.691-1.446-1.421-2.175-2.125c-0.076-0.073-0.139-0.159-0.208-0.239l0.002-0.002
			c0.334,0.05,0.614,0.237,0.911,0.372c1.474,0.672,2.942,1.357,4.413,2.036c0.038,0.018,0.081,0.023,0.122,0.035l0.023,0.009
			L15.396,18.529z"/>
		<path fill="#FEFEFE" d="M64,46.947c-0.081-0.064-0.094-0.128,0-0.192C64,46.819,64,46.883,64,46.947z"/>
		<path fill="#FEFEFE" d="M64,48.935c-0.095-0.064-0.079-0.128,0-0.192C64,48.807,64,48.871,64,48.935z"/>
		<path fill="#C4C4C4" d="M9.936,16.101c-0.01-0.01-0.019-0.021-0.029-0.031c0.007,0.001,0.017,0,0.021,0.004
			c0.006,0.006,0.007,0.017,0.01,0.025C9.938,16.098,9.936,16.101,9.936,16.101z"/>
		<path fill="#020102" d="M14.715,19.327c1.657,0.755,3.314,1.512,4.973,2.263c0.089,0.04,0.174,0.137,0.357,0.047
			c-2.156-2.106-4.293-4.193-6.429-6.28c0.013-0.027,0.026-0.055,0.039-0.082c2.421,1.116,4.843,2.233,7.264,3.349
			c0.015-0.024,0.03-0.048,0.044-0.072c-3.045-2.412-6.089-4.824-9.139-7.239c0.145-0.068,0.264,0.024,0.38,0.071
			c4.424,1.785,8.85,3.568,13.27,5.363c4.085,1.659,8.144,3.382,12.202,5.105c2.644,1.122,5.23,2.348,7.666,3.876
			c4.382,2.748,8.233,6.088,11.357,10.232c0.276,0.366,0.509,0.766,0.798,1.12c0.368,0.451,0.51,0.973,0.459,1.52
			c-0.084,0.908,0.273,1.574,0.901,2.199c0.976,0.971,1.919,1.977,2.721,3.105c0.635,0.894,1.182,1.838,1.386,2.925
			c0.38,2.018-0.261,3.655-1.925,4.877c-1.293,0.95-2.756,1.539-4.3,1.898c-1.608,0.374-3.238,0.657-4.859,0.975
			c-0.065,0.013-0.142,0.067-0.208-0.009l0.008,0.004c1.084-1.017,2.168-2.035,3.253-3.051c0.14-0.131,0.28-0.261,0.366-0.437
			c0.06-0.123,0.137-0.246,0.046-0.388c-0.357-0.745-0.848-1.382-1.528-1.859c-0.674-0.472-1.38-0.895-2.097-1.298
			c-1.87-1.05-3.844-1.863-5.872-2.543c-2.468-0.828-4.999-1.405-7.59-1.663c-1.196-0.119-2.402-0.191-3.608-0.144
			c-0.17,0.007-0.341,0.02-0.511-0.014c-0.143,0.001-0.262-0.044-0.38-0.134c-3.327-2.545-6.872-4.761-10.456-6.917
			c-5.28-3.176-10.664-6.17-16.114-9.045c-0.903-0.476-1.821-0.925-2.79-1.415c1.855,0,3.652,0,5.505,0
			c-1.671-1.547-3.309-3.063-5.011-4.639c4.571,0.727,9.052,1.439,13.561,2.156c-0.438-0.452-0.843-0.883-1.261-1.301
			c-0.838-0.836-1.683-1.666-2.526-2.498C14.672,19.357,14.688,19.337,14.715,19.327z"/>
		<path fill="#F50363" d="M34.139,43.178c2.053-0.148,4.087,0.015,6.114,0.348c3.074,0.505,6.027,1.408,8.88,2.65
			c1.684,0.733,3.305,1.587,4.806,2.652c0.589,0.418,1.068,0.946,1.356,1.625c0.034,0.08,0.065,0.157,0.052,0.246
			c-1.303-0.912-2.648-1.754-4.056-2.496c-3.163-1.667-6.484-2.914-9.949-3.789c-2.142-0.541-4.315-0.904-6.505-1.172
			C34.605,43.214,34.367,43.251,34.139,43.178z"/>
		<path fill="#FEFEFE" d="M15.396,18.529c0.028,0.011,0.056,0.023,0.083,0.034c-0.006,0.008-0.017,0.024-0.019,0.023
			c-0.026-0.014-0.05-0.029-0.075-0.045C15.385,18.541,15.396,18.529,15.396,18.529z"/>
		<path fill="#FEFEFE" d="M13.982,14.3c0.009,0.012,0.019,0.024,0.028,0.036c-0.013-0.009-0.026-0.017-0.038-0.026
			C13.972,14.31,13.982,14.3,13.982,14.3z"/>
		<path fill="#020102" d="M14.667,19.386c-0.018-0.019-0.054-0.05-0.05-0.057c0.027-0.048,0.064-0.021,0.097-0.003
			C14.699,19.346,14.683,19.366,14.667,19.386z"/>
		<path fill="#FEFEFE" d="M7.375,24.691c0.009,0.01,0.018,0.02,0.026,0.029c-0.011-0.008-0.021-0.016-0.032-0.024
			C7.37,24.696,7.375,24.691,7.375,24.691z"/>
		<path fill="#020102" d="M51.673,54.57c0.006,0.013,0.012,0.026,0.018,0.039c-0.013,0.002-0.025,0.004-0.038,0.006
			c0.01-0.013,0.019-0.027,0.029-0.04C51.681,54.575,51.673,54.57,51.673,54.57z"/>
		<path fill="#C4C4C4" d="M45.648,31.438c-0.774-0.266-1.508-0.629-2.259-0.95c-0.841-0.359-1.674-0.735-2.513-1.099
			c-0.1-0.043-0.202-0.118-0.332-0.055c0.938,0.625,1.813,1.315,2.564,2.153c0.571,0.638,0.978,1.357,1.142,2.211
			c0.242,1.256,0.587,2.483,1.166,3.632c-0.069,0.136-0.201,0.152-0.329,0.155c-1.666,0.036-3.329,0.003-4.971-0.323
			c-0.208-0.041-0.417-0.085-0.619-0.153l0.005,0.002c-0.084-0.074-0.203-0.004-0.288-0.071c-3.111-1.01-6.173-2.156-9.225-3.327
			c-2.794-1.072-5.578-2.168-8.366-3.253c-0.039-0.015-0.082-0.023-0.123-0.035c-0.356-0.04-0.64-0.288-0.956-0.336
			c0.283,0.099,0.606,0.192,0.874,0.406c2.181,1.021,4.356,2.053,6.509,3.134c5.528,2.776,10.949,5.748,16.246,8.943
			c0.402,0.242,0.801,0.489,1.202,0.733c0.071,0.043,0.165,0.066,0.148,0.203c-0.517-0.145-1.031-0.294-1.546-0.433
			c-2.772-0.751-5.592-1.212-8.467-1.186c-0.778,0.007-1.357-0.191-1.97-0.641c-3.709-2.727-7.642-5.111-11.604-7.446
			c-3.702-2.181-7.453-4.277-11.235-6.316c-0.086-0.046-0.201-0.067-0.271-0.22c6.18,0.917,12.328,1.829,18.476,2.741
			c0.021-0.034,0.042-0.067,0.064-0.101c-0.909-0.876-1.819-1.751-2.728-2.627c0.016-0.029,0.032-0.058,0.048-0.087
			c2.683-0.077,5.363-0.188,8.115-0.4c-0.919-0.761-1.777-1.478-2.643-2.186c-2.425-1.981-5.024-3.726-7.572-5.54
			c-1.139-0.811-2.253-1.657-3.378-2.489c-0.041-0.03-0.071-0.076-0.106-0.114l0.005-0.027l0.026-0.006
			c1.098,0.438,2.198,0.868,3.293,1.314c3.038,1.238,6.081,2.462,9.091,3.766c2.609,1.13,5.271,2.143,7.809,3.433
			c5.211,2.647,9.761,6.142,13.538,10.619c0.661,0.783,1.276,1.602,1.854,2.45c0.175,0.256,0.161,0.52,0.173,0.794
			c0.002,0.05,0.001,0.097-0.066,0.125c-0.258,0.109-0.855-0.048-1.032-0.272c-2.693-3.414-5.633-6.595-9.053-9.295
			c-2.349-1.855-4.978-3.204-7.883-3.98c-0.445-0.119-0.891-0.267-1.432-0.267c2.105,0.982,4.052,2.094,5.829,3.487
			c1.012,0.793,1.956,1.657,2.717,2.703c0.044,0.06,0.078,0.127,0.117,0.191C45.688,31.419,45.673,31.433,45.648,31.438z"/>
		<path fill="#919191" d="M42.745,39.556c0.24,0.079,0.48,0.157,0.719,0.236c1.582,0.524,3.212,0.758,4.873,0.819
			c1.842,0.068,3.667-0.116,5.494-0.305c0.859-0.089,1.719-0.205,2.587-0.159c0.113,0.006,0.238-0.025,0.315,0.102
			c0.581,0.948,1.413,1.681,2.149,2.495c0.581,0.642,1.163,1.281,1.66,1.991c0.307,0.439,0.28,0.725-0.113,1.092
			c-0.466,0.435-1.045,0.663-1.642,0.832c-1.615,0.457-3.236,0.512-4.862,0.033c-0.815-0.24-1.489-0.729-2.184-1.185
			c-1.964-1.288-4.013-2.438-6.004-3.682c-0.933-0.583-1.854-1.183-2.694-1.898c-0.117-0.1-0.226-0.21-0.338-0.316
			C42.72,39.593,42.733,39.575,42.745,39.556z"/>
		<path fill="#804FF6" d="M49.898,34.793c-0.85,0.472-1.05,1.198-0.577,2.045c0.377,0.676,1.166,1.114,1.855,1.03
			c0.499-0.061,0.786-0.278,0.99-0.753c0.027,0.01,0.066,0.011,0.079,0.03c0.344,0.482,0.38,0.364-0.1,0.709
			c-1.464,1.052-3.007,0.998-4.413-0.15c-1.106-0.903-1.784-2.03-1.748-3.503c0.014-0.554,0.155-1.077,0.5-1.525
			c0.053-0.069,0.085-0.209,0.242-0.107C47.81,33.269,48.893,33.968,49.898,34.793z"/>
		<path fill="#F60062" d="M20.454,19.885c0.925,0.354,1.804,0.81,2.704,1.22c1.572,0.715,3.135,1.449,4.702,2.173
			c0.698,0.322,1.238,0.867,1.857,1.301c0.165,0.115,0.317,0.249,0.521,0.411c-0.359,0.047-0.646-0.064-0.936-0.108
			c-1.454-0.223-2.907-0.46-4.36-0.688c-0.11-0.017-0.196-0.048-0.279-0.13c-1.359-1.33-2.722-2.655-4.081-3.985
			c-0.054-0.053-0.156-0.088-0.125-0.199L20.454,19.885z"/>
		<path fill="#F40062" d="M19.085,25.723c-2.441,0-4.8,0-7.159-0.001c-0.104,0-0.211,0.017-0.303-0.065
			c-0.675-0.601-1.352-1.2-2.029-1.799c0.012-0.032,0.024-0.064,0.035-0.096C12.758,24.411,15.886,25.06,19.085,25.723z"/>
		<path fill="#F50263" d="M39.499,37.008c0.566,0.012,1.114,0.157,1.673,0.225c1.36,0.164,2.724,0.191,4.091,0.134
			c0.052-0.002,0.103-0.025,0.155-0.038c0.422,0.692,0.899,1.338,1.647,1.865c-0.998-0.104-1.89-0.251-2.749-0.527
			c-1.57-0.505-3.128-1.049-4.691-1.578C39.577,37.073,39.517,37.071,39.499,37.008z"/>
		<path fill="#222222" d="M21.419,30.394c-0.317-0.136-0.633-0.271-0.95-0.407c0.376,0.022,0.706,0.175,1.032,0.337
			C21.474,30.347,21.447,30.37,21.419,30.394z"/>
		<path fill="#F50263" d="M39.215,36.938c0.101,0.005,0.211-0.03,0.288,0.071C39.397,37.027,39.303,36.996,39.215,36.938z"/>
		<path fill="#C4C4C4" d="M20.706,16.361c-0.036-0.011-0.114,0.02-0.091-0.049c0.014-0.044,0.083-0.019,0.122,0.016
			C20.728,16.34,20.717,16.351,20.706,16.361z"/>
		<path fill="#F60062" d="M20.458,19.88c-0.026-0.004-0.052-0.009-0.079-0.013c0.004-0.009,0.008-0.017,0.011-0.026
			c0.021,0.015,0.042,0.029,0.064,0.044C20.454,19.885,20.458,19.88,20.458,19.88z"/>
		<path fill="#F40062" d="M9.526,23.75c0.006,0.005,0.012,0.011,0.018,0.016c-0.006,0.005-0.013,0.014-0.019,0.013
			c-0.006,0-0.012-0.01-0.018-0.015C9.513,23.759,9.52,23.755,9.526,23.75z"/>
		<path fill="#C4C4C4" d="M10.354,27.18c-0.005-0.006-0.011-0.012-0.017-0.018c0.007-0.005,0.014-0.013,0.02-0.013
			c0.006,0.001,0.012,0.01,0.018,0.016C10.369,27.17,10.362,27.174,10.354,27.18z"/>
		<path fill="#C4C4C4" d="M45.695,31.395c0.006,0.024,0.013,0.048,0.019,0.072c-0.022-0.01-0.044-0.02-0.066-0.03
			C45.663,31.422,45.678,31.408,45.695,31.395z"/>
		<path fill="#030303" d="M56.17,42.418c0.684,0.646,1.238,1.32,1.79,1.972c-0.519,0-1.023,0-1.528,0
			c-0.093,0-0.131-0.045-0.137-0.134C56.256,43.667,56.215,43.078,56.17,42.418z"/>
	</g>
</g>
</svg>
