<?xml version="1.0" encoding="UTF-8" standalone="no"?>
<svg
   xmlns:dc="http://purl.org/dc/elements/1.1/"
   xmlns:cc="http://creativecommons.org/ns#"
   xmlns:rdf="http://www.w3.org/1999/02/22-rdf-syntax-ns#"
   xmlns:svg="http://www.w3.org/2000/svg"
   xmlns="http://www.w3.org/2000/svg"
   xmlns:sodipodi="http://sodipodi.sourceforge.net/DTD/sodipodi-0.dtd"
   xmlns:inkscape="http://www.inkscape.org/namespaces/inkscape"
   width="64"
   height="64"
   viewBox="0 0 47.999998 48.000002"
   version="1.1"
   id="svg246"
   sodipodi:docname="alt.svg"
   inkscape:version="0.92.3 (2405546, 2018-03-11)">
  <metadata
     id="metadata252">
    <rdf:RDF>
      <cc:Work
         rdf:about="">
        <dc:format>image/svg+xml</dc:format>
        <dc:type
           rdf:resource="http://purl.org/dc/dcmitype/StillImage" />
        <dc:title></dc:title>
      </cc:Work>
    </rdf:RDF>
  </metadata>
  <defs
     id="defs250" />
  <sodipodi:namedview
     pagecolor="#ffffff"
     bordercolor="#666666"
     borderopacity="1"
     objecttolerance="10"
     gridtolerance="10"
     guidetolerance="10"
     inkscape:pageopacity="0"
     inkscape:pageshadow="2"
     inkscape:window-width="1920"
     inkscape:window-height="1017"
     id="namedview248"
     showgrid="false"
     units="px"
     inkscape:pagecheckerboard="true"
     inkscape:zoom="0.25786692"
     inkscape:cx="116.21654"
     inkscape:cy="-201.46624"
     inkscape:window-x="-8"
     inkscape:window-y="-8"
     inkscape:window-maximized="1"
     inkscape:current-layer="svg246" />
  <g
     id="#1a1a18ff"
     transform="matrix(0.09914129,0,0,0.09914129,-0.03965564,2.3886859)">
    <path
       d="m 262.72,2.28 c 9.03,-1.3 18.17,-1.59 27.28,-1.65 13.24,0.06 26.54,0.93 39.52,3.65 39.58,7.17 76.69,26.69 105.54,54.65 16.75,16.26 30.84,35.43 40.27,56.83 5.75,12.93 9.71,26.95 9.18,41.21 0.21,11.44 -3.78,23.33 -12.39,31.14 -5.58,5.36 -13.14,7.7 -20.37,9.86 -2.4,0.94 -5.08,1.81 -6.61,4.03 -1.62,2.23 -2.84,4.72 -4.15,7.13 -6.1,11.42 -12.86,22.46 -19.31,33.68 -2.11,3.79 -5.03,7.18 -6.42,11.33 0.08,2.58 1.48,4.88 2.55,7.17 13.52,25.66 24.68,52.46 36.79,78.79 -15.43,-4.38 -30.89,-8.66 -46.35,-12.97 -23.31,-5.62 -46.77,-10.77 -70.55,-14.06 -18.86,-3.17 -37.94,-4.65 -56.96,-6.59 2.24,-0.19 4.46,-0.59 6.69,-0.94 -4.49,-0.71 -9.02,-0.5 -13.49,0.14 -1,-0.09 -2,-0.19 -2.99,-0.28 -3.99,-1.51 -8.25,-1.51 -12.31,-0.24 -13.88,0.21 -27.76,-0.77 -41.64,-0.03 -31.29,0.32 -62.46,3.61 -93.42,7.95 -14.48,2.61 -29.05,4.77 -43.36,8.21 -15.45,2.93 -30.56,7.29 -45.72,11.41 -9.65,2.72 -19.12,6.04 -28.87,8.38 2.19,-8.5 5.27,-16.72 8.17,-24.99 9.5,-29.2 19.98,-58.09 31.44,-86.59 3.35,-9.3 7.21,-18.41 10.91,-27.57 3.02,-7.79 6.62,-15.32 9.72,-23.07 3.09,-7.51 5.4,-15.3 7.98,-22.99 3.51,-10.53 6.94,-21.08 10.44,-31.6 39.91,-0.48 79.83,-0.12 119.74,-0.48 6.25,-0.26 12.35,1.4 17.96,4.06 0.05,-14.19 0.15,-28.39 -0.06,-42.58 -3.56,-0.4 -7.09,-0.97 -10.62,-1.58 15.41,0.33 30.83,-0.34 46.22,-1.27 9.9,-0.58 19.7,-2.1 29.54,-3.23 4.41,-0.52 8.79,-1.28 13.14,-2.17 -1.27,-5.45 -3.03,-10.78 -5.32,-15.88 -12.94,1.66 -25.84,3.7 -38.89,4.23 -11.39,1.03 -22.83,0.95 -34.26,1.18 -23.56,0.31 -47.15,-1.51 -70.39,-5.4 -12.15,-2.42 -24.39,-4.59 -36.25,-8.26 -9.52,-2.58 -18.58,-6.54 -28,-9.39 -2.86,8.21 -5.09,16.72 -9.27,24.4 -8.82,16.35 -21.77,30.24 -36.62,41.29 -4.04,3.12 -8.87,5.28 -12.32,9.11 -1.04,3.79 -0.44,7.79 -0.28,11.66 1.58,19.36 4.06,38.7 8.73,57.58 1.8,7.72 3.35,15.53 6.03,23.01 0.98,3.41 2.74,7.02 1.53,10.6 -1.42,4.41 -3.49,8.57 -5.13,12.9 -1.24,-2.42 -2.39,-4.9 -3.29,-7.48 -7.74,-23.7 -13.07,-48.16 -16.41,-72.86 -2.15,-13.76 -3.3,-27.67 -3.38,-41.6 4.94,-3.18 9.89,-6.35 14.74,-9.66 19.08,-13.33 35.49,-31.81 42.51,-54.34 1.96,-6.59 3.7,-13.25 6.02,-19.74 6.73,2.39 13.28,5.26 19.99,7.71 21.03,8.16 43.25,12.82 65.56,15.73 22.33,3.45 44.99,3.75 67.54,3.58 3.62,0.12 6.84,-1.65 9.77,-3.58 7.6,-4.96 15.77,-8.97 23.74,-13.28 5.01,-2.77 10.43,-4.61 15.69,-6.82 -4.09,-0.94 -8.22,-1.77 -12.41,-2.11 -19.56,-1.43 -39.19,-1.49 -58.79,-0.99 -6.8,0.09 -13.6,0.59 -20.41,0.45 8.36,-7.2 18.65,-11.61 28.73,-15.83 13.78,-5.86 28.56,-8.93 43.35,-10.95 m -13.15,11.13 c -6.47,1.01 -12.9,2.28 -19.21,4.05 -6.55,1.89 -13.3,3.23 -19.5,6.13 6.16,-0.86 12.3,-1.87 18.5,-2.41 8.18,-0.84 16.41,-0.56 24.62,-0.56 7.75,0.14 15.51,0.45 23.2,1.43 10.34,1.63 20.75,2.99 30.82,5.96 8.86,2.58 18.11,5.3 25.26,11.41 -11.16,-2.31 -22.63,-2.58 -33.97,-1.83 -14.12,1.77 -28.13,6.38 -39.69,14.84 9.95,-2.17 20.14,-4.82 30.41,-3.34 4.67,0.64 9.16,3.08 11.92,6.96 2.56,3.62 3.77,7.95 5.02,12.14 2.46,8.66 4.86,17.51 9.65,25.22 3.08,5.06 7.11,9.45 11.45,13.44 -3.92,-9.5 -8.49,-19.34 -7.39,-29.9 0.24,-5.38 3.85,-10.41 8.84,-12.4 4.3,-1.47 8.97,-0.96 13.39,-0.31 10.59,1.84 20.65,5.88 30.35,10.42 13.83,6.3 27.07,13.89 39.57,22.54 7.74,5.43 15.23,11.34 21.54,18.43 6.2,6.95 11.79,14.49 16.48,22.55 5.89,10.28 10.43,21.85 9.97,33.88 0.06,5.23 -1.77,10.17 -3.53,15 3.36,-1.77 6.77,-3.59 9.48,-6.3 3.25,-3.09 5.42,-7.14 6.81,-11.36 3.18,-9.09 2.62,-19.04 0.56,-28.31 -3.06,-14.62 -9.45,-28.34 -17.24,-41.01 -26.49,-42.13 -70.07,-73 -118.42,-84.6 -7.75,-1.7 -15.47,-3.7 -23.4,-4.34 -5.03,-0.42 -10.06,-0.72 -15.09,-1.15 -9.67,-0.81 -19.38,-0.14 -29.05,0.37 -7.2,0.35 -14.24,1.96 -21.35,3.05 m -71.66,49.86 c 0.18,1.61 3.98,1.55 4.17,-0.04 -1.06,-1.01 -3.13,-0.97 -4.17,0.04 m 7.79,1.04 c 5.15,1.08 10.47,1.22 15.63,0.08 -5.19,-0.64 -10.44,-0.62 -15.63,-0.08 m 178.66,32.78 c -3.3,1.63 -4.74,5.43 -5.06,8.89 -1.34,14.8 4.25,29.75 13.78,40.98 5.46,6.5 12.99,10.64 20.29,14.72 8.25,4.7 17.03,8.38 25.86,11.83 8.01,2.79 16.25,5.53 24.82,5.57 2.5,-0.1 5.24,-0.2 7.37,-1.69 2.21,-1.72 2.77,-4.76 2.61,-7.41 -0.43,-5.82 -3.12,-11.14 -5.91,-16.15 -6.65,-11.24 -15.52,-21.13 -25.82,-29.14 -12.17,-9.56 -25.07,-18.38 -39.21,-24.77 -5.83,-2.37 -12.48,-4.9 -18.73,-2.83 M 91.14,129.79 C 87,143.08 82.6,156.3 78.86,169.71 c 2.87,0.04 5.79,0.32 8.62,-0.25 1.92,-1.77 2.07,-4.75 2.98,-7.11 3.67,-0.02 7.34,0.02 11.01,0.1 0.69,2.36 1.33,4.75 2.02,7.11 3.47,0.12 6.93,0.2 10.4,0.23 -4.39,-13.14 -8.62,-26.34 -12.25,-39.7 -3.49,-0.28 -7,-0.36 -10.5,-0.3 m 24.76,0.38 c -0.42,13.2 -0.36,26.42 -0.04,39.63 7.51,-0.38 15.1,0.6 22.57,-0.47 0.47,-2.51 0.47,-5.11 -0.02,-7.62 -4.34,-0.69 -8.76,-0.48 -13.14,-0.67 0.03,-10.29 0.34,-20.59 -0.13,-30.88 -3.08,0 -6.16,0 -9.24,0.01 m 16.53,0.25 c -0.08,2.78 -0.16,5.56 -0.24,8.34 3.2,0.1 6.41,0.18 9.62,0.29 -0.01,10.31 -0.31,20.64 0.14,30.95 3.26,0.02 6.52,-0.01 9.79,-0.08 -0.08,-10.31 -0.27,-20.62 0.06,-30.92 3.06,-0.09 6.12,-0.14 9.18,-0.23 0.01,-2.84 0,-5.68 -0.02,-8.52 -9.51,0.18 -19.02,-0.04 -28.53,0.17 m 31.84,-0.15 c 0.13,13.16 0.13,26.32 0,39.49 7.96,-0.03 15.93,-0.03 23.9,0 0.01,-2.82 0,-5.64 -0.05,-8.46 -4.49,0.04 -8.98,0 -13.47,-0.11 -0.02,-2.48 -0.02,-4.96 -0.01,-7.43 3.46,-0.06 6.91,-0.09 10.37,-0.09 0.07,-2.87 0.11,-5.75 0.13,-8.62 -3.65,-0.11 -7.3,-0.18 -10.95,-0.24 0,-1.92 0,-3.84 0,-5.76 4.57,-0.16 9.14,-0.23 13.71,-0.24 -0.01,-2.85 -0.02,-5.71 -0.03,-8.56 -7.87,0.11 -15.73,0.11 -23.6,0.02 m 28.98,0 c 0.13,13.22 0.12,26.45 0,39.68 3.22,0.05 6.45,0.06 9.68,0.02 0.48,-10.74 -0.16,-21.51 0.35,-32.25 2.25,0.81 5.66,0.9 6.27,3.77 1.19,4.2 -2.12,7.68 -4.44,10.76 1.75,4.41 3.5,8.82 5.42,13.15 0.75,1.53 1.45,3.21 2.8,4.32 3.22,0.68 6.54,0.28 9.8,0.14 -2.34,-5.7 -5.32,-11.09 -8.07,-16.6 2.47,-3.27 5.24,-6.87 4.82,-11.23 0.32,-5.5 -4.03,-10.24 -9.16,-11.54 -5.72,-1.44 -11.67,-0.65 -17.47,-0.22 m 33,-0.22 c 0.14,13.3 0.13,26.6 0.01,39.89 2.95,0.05 5.89,0.07 8.84,0.08 0.39,-7.04 0.16,-14.08 0.24,-21.13 4.66,6.81 8.54,14.11 12.91,21.1 2.15,0.07 4.32,0.22 6.48,0.03 1.58,-1.54 1.07,-3.98 1.27,-5.96 -0.14,-11.31 0.14,-22.61 -0.12,-33.91 -2.9,0 -5.8,0.01 -8.69,0.02 0,6.79 0.28,13.59 -0.28,20.36 -5.13,-5.99 -7.7,-13.68 -12.66,-19.75 -2.53,-0.99 -5.34,-0.6 -8,-0.73 m 44.13,0 c -3.49,13.41 -8.08,26.5 -12.29,39.69 3.24,0 6.48,0.01 9.73,0 0.65,-2.42 1.23,-4.85 1.86,-7.27 3.87,-0.15 7.74,-0.14 11.62,0.01 0.63,2.42 1.21,4.85 1.88,7.27 3.25,0 6.51,-0.01 9.76,-0.03 -3.49,-13.46 -8.11,-26.59 -11.98,-39.93 -3.53,-0.05 -7.06,0.01 -10.58,0.26 m 19.55,0.21 c -0.05,2.84 -0.07,5.69 -0.06,8.53 3.1,0.08 6.2,0.12 9.3,0.19 0.34,10.32 0.14,20.64 0.08,30.95 3.23,0.06 6.45,0.07 9.68,0.05 0.41,-10.32 0.09,-20.64 0.17,-30.95 3.24,-0.1 6.48,-0.19 9.72,-0.29 -0.11,-2.77 -0.2,-5.53 -0.28,-8.3 -9.53,-0.26 -19.07,-0.01 -28.61,-0.18 m 32.1,0 c -0.38,13.17 -0.25,26.36 -0.04,39.53 7.92,-0.07 15.85,-0.06 23.77,-0.01 0,-2.84 -0.01,-5.68 0,-8.52 -4.69,0.09 -9.38,0.07 -14.06,-0.08 0.04,-2.61 0.1,-5.21 0.19,-7.81 3.61,-0.01 7.22,-0.1 10.82,-0.29 0,-2.65 0.01,-5.3 0.04,-7.95 -3.83,-0.16 -7.66,-0.29 -11.49,-0.4 0,-1.86 0,-3.73 -0.01,-5.59 4.66,-0.24 9.32,-0.32 13.98,-0.31 -0.01,-2.85 -0.04,-5.7 -0.11,-8.55 -7.7,0.06 -15.4,0.08 -23.09,-0.02 m -246,53.96 c -11.71,26.05 -22.02,52.69 -32.22,79.36 -4.56,12.49 -9.29,24.91 -13.59,37.5 -2.23,7.22 -5.19,14.19 -7.21,21.49 11.79,-2.8 23.3,-6.67 35.14,-9.29 2.07,-5.85 4.25,-11.67 6.55,-17.44 9.76,-1.82 19.45,-4.07 29.31,-5.24 2.02,4.49 4.07,8.97 6.24,13.39 11.61,-1.76 23.13,-4.14 34.81,-5.46 -3.23,-7.54 -7.07,-14.78 -10.43,-22.26 -10.12,-21.82 -20.13,-43.69 -29.49,-65.85 11.93,0.34 23.81,-1.2 35.73,-0.75 2.23,0.96 4.62,1.44 6.99,1.95 0.35,17.47 0.04,34.95 0.04,52.43 0.03,2.11 0.61,4.16 1.21,6.18 0.16,9.12 0.1,18.23 -0.08,27.35 11.02,-0.6 21.94,-2.34 32.96,-2.99 0.33,-7.19 0.22,-14.39 0.26,-21.59 -0.03,-16.34 0.28,-32.67 0.29,-49 0.03,-4.39 -0.19,-8.79 0.14,-13.18 11.73,-1.78 23.63,-0.29 35.43,-0.9 0.33,3.68 0.21,7.39 0.2,11.08 -0.09,23.75 -0.03,47.51 -0.22,71.26 11.04,0.12 22.08,-0.17 33.12,-0.16 0.18,-27.79 0.09,-55.58 0.02,-83.37 14.83,-0.32 29.68,-0.25 44.51,0.21 -2.41,6.31 -5.63,12.25 -8.55,18.33 -7.68,15.25 -15.25,30.58 -22.92,45.84 -3.12,6.32 -6.45,12.53 -9.33,18.97 8.37,0.55 16.79,0.12 25.15,0.96 3.26,0.24 6.55,0.68 9.82,0.28 3.18,-3.83 4.83,-8.63 7.35,-12.88 7.53,1.09 15.11,1.8 22.71,2.23 2.18,0.17 4.39,0.28 6.52,0.84 3.39,4.04 3.94,9.73 7.09,13.97 2.23,0.81 4.62,1.03 6.96,1.36 13.21,1.61 26.29,4.05 39.38,6.41 3.52,-6.07 6.91,-12.22 9.93,-18.56 0.72,-1.21 1.16,-2.89 2.67,-3.33 3.63,7.85 6.92,15.86 10.36,23.8 0.82,1.6 1.54,3.77 3.62,4.02 12.8,2.97 25.53,6.25 38.16,9.9 -10.34,-23.36 -21.38,-46.41 -33.04,-69.15 13.73,-22.18 27.07,-44.62 39.43,-67.61 -13.18,0.02 -26.35,-0.17 -39.52,0.1 -6.05,11.4 -12.53,22.57 -19.23,33.6 -5.94,-11.36 -12.09,-22.62 -18.48,-33.74 -95.93,-0.13 -191.86,-0.09 -287.79,-0.06 m 168.58,109.11 c 4.84,1.03 9.84,1.1 14.72,0.27 -4.85,-0.95 -9.85,-1.18 -14.72,-0.27 z"
       id="path132"
       inkscape:connector-curvature="0"
       style="opacity:1;fill:#1a1a18" />
    <path
       d="m 317.92,209.41 c 6.05,-0.05 12.09,0.01 18.13,0.02 1.32,0.14 2.83,-0.14 4.01,0.61 1.18,1.16 2.01,2.61 2.87,4.02 4.49,7.83 9.37,15.44 13.74,23.34 1.94,3.59 4.45,6.9 5.88,10.75 -0.31,2.36 -2.01,4.25 -3.17,6.25 -4.42,6.42 -8.2,13.27 -12.69,19.64 -8.94,-21.83 -19.1,-43.12 -28.77,-64.63 z"
       id="path134"
       inkscape:connector-curvature="0"
       style="opacity:1;fill:#1a1a18" />
    <path
       d="m 198.94,308.98 c 21.01,-0.98 42.05,-0.8 63.06,-0.06 5.74,0.24 11.53,0.33 17.17,1.57 2.95,1.12 6.07,1.15 9.12,0.45 10.03,0.06 19.93,1.85 29.9,2.69 14.49,1.8 28.99,3.66 43.28,6.7 -4.62,7.58 -10.17,14.52 -15.62,21.51 -25.98,32.85 -58.33,60.81 -95.26,80.68 -7.19,3.54 -14.29,7.29 -21.61,10.57 -2.25,0.94 -4.53,1.99 -6.98,2.25 -3.21,-0.4 -6.13,-1.92 -9.05,-3.21 -7.01,-3.31 -13.97,-6.75 -20.87,-10.28 -38.23,-20.93 -71.5,-50.46 -97.89,-85.08 -3.33,-4.33 -6.43,-8.86 -10.1,-12.92 26.1,-5.59 52.51,-9.91 79.13,-12.12 1.25,2.3 4.02,1.35 5.47,-0.18 9.96,-1.96 20.16,-1.86 30.25,-2.57 m -20.8,23.15 c -11.61,1.98 -23.04,4.81 -34.5,7.45 -3,0.64 -5.78,1.98 -8.33,3.65 -0.25,-0.21 -0.76,-0.63 -1.01,-0.84 -4.18,0.33 -8.16,1.8 -12.16,2.96 -1.53,0.61 -3.48,0.88 -4.3,2.51 1.46,2.19 3.21,4.17 5.02,6.09 0.73,2.14 1.63,4.29 3.29,5.9 3.55,3.59 6.98,7.43 11.38,10.02 -0.16,-0.45 -0.49,-1.34 -0.65,-1.78 10.67,9.39 21.45,18.73 33.12,26.88 8.07,5.33 15.91,11.06 24.53,15.49 8.83,5.05 18.11,9.22 27.33,13.49 30.89,-12.87 59.15,-31.72 83.57,-54.54 10.98,-10.04 20.89,-21.17 30.39,-32.59 2,-2.4 3.76,-4.98 5.43,-7.62 -5.94,-0.78 -11.92,-2.17 -17.92,-1.66 -2.81,1.21 -4.38,4.22 -6.43,6.39 -24.5,28.39 -54.45,52.26 -88.26,68.63 -2.33,1.05 -4.73,1.92 -7.13,2.79 0.39,-4.11 0.63,-8.23 0.58,-12.35 -0.22,-22.24 0.14,-44.49 -0.18,-66.73 -14.68,1.26 -29.24,3.47 -43.77,5.86 z"
       id="path136"
       inkscape:connector-curvature="0"
       style="opacity:1;fill:#1a1a18" />
  </g>
  <g
     id="#e3000fff"
     transform="matrix(0.09914129,0,0,0.09914129,-0.03965564,2.3886859)">
    <path
       d="m 249.57,13.41 c 7.11,-1.09 14.15,-2.7 21.35,-3.05 9.67,-0.51 19.38,-1.18 29.05,-0.37 5.03,0.43 10.06,0.73 15.09,1.15 7.93,0.64 15.65,2.64 23.4,4.34 48.35,11.6 91.93,42.47 118.42,84.6 7.79,12.67 14.18,26.39 17.24,41.01 2.06,9.27 2.62,19.22 -0.56,28.31 -1.39,4.22 -3.56,8.27 -6.81,11.36 -2.71,2.71 -6.12,4.53 -9.48,6.3 1.76,-4.83 3.59,-9.77 3.53,-15 0.46,-12.03 -4.08,-23.6 -9.97,-33.88 -4.69,-8.06 -10.28,-15.6 -16.48,-22.55 -6.31,-7.09 -13.8,-13 -21.54,-18.43 -12.5,-8.65 -25.74,-16.24 -39.57,-22.54 -9.7,-4.54 -19.76,-8.58 -30.35,-10.42 -4.42,-0.65 -9.09,-1.16 -13.39,0.31 -4.99,1.99 -8.6,7.02 -8.84,12.4 -1.1,10.56 3.47,20.4 7.39,29.9 -4.34,-3.99 -8.37,-8.38 -11.45,-13.44 -4.79,-7.71 -7.19,-16.56 -9.65,-25.22 -1.25,-4.19 -2.46,-8.52 -5.02,-12.14 -2.76,-3.88 -7.25,-6.32 -11.92,-6.96 -10.27,-1.48 -20.46,1.17 -30.41,3.34 11.56,-8.46 25.57,-13.07 39.69,-14.84 11.34,-0.75 22.81,-0.48 33.97,1.83 -7.15,-6.11 -16.4,-8.83 -25.26,-11.41 -10.07,-2.97 -20.48,-4.33 -30.82,-5.96 -7.69,-0.98 -15.45,-1.29 -23.2,-1.43 -8.21,0 -16.44,-0.28 -24.62,0.56 -6.2,0.54 -12.34,1.55 -18.5,2.41 6.2,-2.9 12.95,-4.24 19.5,-6.13 6.31,-1.77 12.74,-3.04 19.21,-4.05 z"
       id="path139"
       inkscape:connector-curvature="0"
       style="opacity:1;fill:#e3000f" />
  </g>
  <g
     id="#ffffffff"
     transform="matrix(0.09914129,0,0,0.09914129,-0.03965564,2.3886859)">
    <path
       d="m 87.1,43.5 c 9.42,2.85 18.48,6.81 28,9.39 11.86,3.67 24.1,5.84 36.25,8.26 23.24,3.89 46.83,5.71 70.39,5.4 0.2,5.54 0.21,11.08 0.21,16.62 -3.82,0.19 -7.63,0.42 -11.45,0.44 -5.81,-0.55 -11.64,-0.91 -17.47,-1.22 -18.39,-0.99 -36.67,-3.51 -54.79,-6.77 -14.17,-2.76 -28.21,-6.31 -41.75,-11.34 -6.57,17.81 -18.16,33.39 -31.87,46.37 -6.23,5.83 -12.84,11.31 -20.08,15.85 -0.32,13.51 2.31,26.83 4.6,40.08 1.23,6.88 2.24,13.82 4.01,20.59 1.26,4.86 2.75,9.71 3,14.76 -3.7,9.16 -7.56,18.27 -10.91,27.57 -11.46,28.5 -21.94,57.39 -31.44,86.59 -2.9,8.27 -5.98,16.49 -8.17,24.99 9.75,-2.34 19.22,-5.66 28.87,-8.38 15.16,-4.12 30.27,-8.48 45.72,-11.41 14.31,-3.44 28.88,-5.6 43.36,-8.21 30.96,-4.34 62.13,-7.63 93.42,-7.95 13.88,-0.74 27.76,0.24 41.64,0.03 4.1,0.16 8.21,0.24 12.31,0.24 0.99,0.09 1.99,0.19 2.99,0.28 2.26,0.28 4.52,0.6 6.8,0.8 19.02,1.94 38.1,3.42 56.96,6.59 23.78,3.29 47.24,8.44 70.55,14.06 15.46,4.31 30.92,8.59 46.35,12.97 -12.11,-26.33 -23.27,-53.13 -36.79,-78.79 -1.07,-2.29 -2.47,-4.59 -2.55,-7.17 1.39,-4.15 4.31,-7.54 6.42,-11.33 6.45,-11.22 13.21,-22.26 19.31,-33.68 1.31,-2.41 2.53,-4.9 4.15,-7.13 1.53,-2.22 4.21,-3.09 6.61,-4.03 -1.65,2.35 -3.14,4.79 -4.54,7.29 -7.5,13.4 -15.17,26.7 -23.05,39.87 -1.81,3.19 -4.26,6.13 -5.26,9.71 0.71,2.45 1.98,4.68 3.13,6.95 4.32,8.21 8.11,16.68 12.14,25.03 9.27,19.45 17.52,39.36 26.67,58.86 -9.45,-3.23 -19.11,-5.77 -28.69,-8.54 -23.29,-6.68 -46.84,-12.48 -70.68,-16.81 -14.29,-3.04 -28.79,-4.9 -43.28,-6.7 -9.97,-0.84 -19.87,-2.63 -29.9,-2.69 -3.04,-0.21 -6.08,-0.31 -9.12,-0.45 -5.64,-1.24 -11.43,-1.33 -17.17,-1.57 -21.01,-0.74 -42.05,-0.92 -63.06,0.06 -10.09,0.71 -20.29,0.61 -30.25,2.57 -1.83,-0.15 -3.67,-0.15 -5.47,0.18 -26.62,2.21 -53.03,6.53 -79.13,12.12 -8.02,2 -16.13,3.63 -24.13,5.69 -12.63,2.9 -25.01,6.75 -37.48,10.25 -7.38,2.06 -14.58,4.74 -22.08,6.37 4.32,-15.82 10.48,-31.07 15.33,-46.73 7.7,-21.91 15.57,-43.76 24.04,-65.38 1.64,-4.33 3.71,-8.49 5.13,-12.9 1.21,-3.58 -0.55,-7.19 -1.53,-10.6 -2.68,-7.48 -4.23,-15.29 -6.03,-23.01 -4.67,-18.88 -7.15,-38.22 -8.73,-57.58 -0.16,-3.87 -0.76,-7.87 0.28,-11.66 3.45,-3.83 8.28,-5.99 12.32,-9.11 C 56.06,98.14 69.01,84.25 77.83,67.9 82.01,60.22 84.24,51.71 87.1,43.5 Z"
       id="path142"
       inkscape:connector-curvature="0"
       style="opacity:1;fill:#ffffff" />
    <path
       d="m 364.36,97.09 c 6.25,-2.07 12.9,0.46 18.73,2.83 14.14,6.39 27.04,15.21 39.21,24.77 10.3,8.01 19.17,17.9 25.82,29.14 2.79,5.01 5.48,10.33 5.91,16.15 0.16,2.65 -0.4,5.69 -2.61,7.41 -2.13,1.49 -4.87,1.59 -7.37,1.69 -8.57,-0.04 -16.81,-2.78 -24.82,-5.57 -8.83,-3.45 -17.61,-7.13 -25.86,-11.83 -7.3,-4.08 -14.83,-8.22 -20.29,-14.72 -9.53,-11.23 -15.12,-26.18 -13.78,-40.98 0.32,-3.46 1.76,-7.26 5.06,-8.89 m 53.47,60.23 c 1.14,2.34 2.19,4.88 4.29,6.54 4.85,3.95 11.02,6.11 17.24,6.5 1.8,0.1 3.71,0.03 5.35,-0.84 1.45,-1.67 -0.11,-3.68 -1.24,-5.02 -3.83,-3.97 -9.31,-5.62 -14.47,-7.05 0.26,1.08 0.53,2.17 0.79,3.25 -3.08,-0.59 -6.19,-1.07 -9.22,-1.87 2.76,-0.29 5.52,-0.66 8.27,-1.04 -3.46,-1.8 -7.37,-1.34 -11.01,-0.47 z"
       id="path144"
       inkscape:connector-curvature="0"
       style="opacity:1;fill:#ffffff" />
    <path
       d="m 76.03,184.22 c 95.93,-0.03 191.86,-0.07 287.79,0.06 6.39,11.12 12.54,22.38 18.48,33.74 6.7,-11.03 13.18,-22.2 19.23,-33.6 13.17,-0.27 26.34,-0.08 39.52,-0.1 -12.36,22.99 -25.7,45.43 -39.43,67.61 11.66,22.74 22.7,45.79 33.04,69.15 -12.63,-3.65 -25.36,-6.93 -38.16,-9.9 -2.08,-0.25 -2.8,-2.42 -3.62,-4.02 -3.44,-7.94 -6.73,-15.95 -10.36,-23.8 -1.51,0.44 -1.95,2.12 -2.67,3.33 -3.02,6.34 -6.41,12.49 -9.93,18.56 -13.09,-2.36 -26.17,-4.8 -39.38,-6.41 -2.34,-0.33 -4.73,-0.55 -6.96,-1.36 -3.15,-4.24 -3.7,-9.93 -7.09,-13.97 -2.13,-0.56 -4.34,-0.67 -6.52,-0.84 -7.6,-0.43 -15.18,-1.14 -22.71,-2.23 -2.52,4.25 -4.17,9.05 -7.35,12.88 -3.27,0.4 -6.56,-0.04 -9.82,-0.28 -8.36,-0.84 -16.78,-0.41 -25.15,-0.96 2.88,-6.44 6.21,-12.65 9.33,-18.97 7.67,-15.26 15.24,-30.59 22.92,-45.84 2.92,-6.08 6.14,-12.02 8.55,-18.33 -14.83,-0.46 -29.68,-0.53 -44.51,-0.21 0.07,27.79 0.16,55.58 -0.02,83.37 -11.04,-0.01 -22.08,0.28 -33.12,0.16 0.19,-23.75 0.13,-47.51 0.22,-71.26 0.01,-3.69 0.13,-7.4 -0.2,-11.08 l -0.12,-1.04 c -11.67,-0.59 -23.39,-0.19 -35.08,0.01 -0.06,0.48 -0.17,1.45 -0.23,1.93 -0.33,4.39 -0.11,8.79 -0.14,13.18 -0.01,16.33 -0.32,32.66 -0.29,49 -0.04,7.2 0.07,14.4 -0.26,21.59 -11.02,0.65 -21.94,2.39 -32.96,2.99 0.18,-9.12 0.24,-18.23 0.08,-27.35 0.28,-20.19 0.36,-40.39 0.29,-60.59 -2.85,0 -5.69,0.07 -8.53,0.03 -11.92,-0.45 -23.8,1.09 -35.73,0.75 9.36,22.16 19.37,44.03 29.49,65.85 3.36,7.48 7.2,14.72 10.43,22.26 -11.68,1.32 -23.2,3.7 -34.81,5.46 -2.17,-4.42 -4.22,-8.9 -6.24,-13.39 -9.86,1.17 -19.55,3.42 -29.31,5.24 -2.3,5.77 -4.48,11.59 -6.55,17.44 -11.84,2.62 -23.35,6.49 -35.14,9.29 2.02,-7.3 4.98,-14.27 7.21,-21.49 4.3,-12.59 9.03,-25.01 13.59,-37.5 10.2,-26.67 20.51,-53.31 32.22,-79.36 m 3.22,4.72 c -3.63,5.45 -5.39,11.9 -8.18,17.8 15.63,0.08 31.24,-1.18 46.87,-1.2 8.73,-0.03 17.43,-0.92 26.16,-0.7 -0.01,11.65 -0.5,23.29 -0.22,34.94 0.23,17.69 -0.57,35.4 0.07,53.08 7.78,-0.81 15.51,-2.06 23.31,-2.73 0.38,-11.31 0.21,-22.62 0.22,-33.93 0.48,-8.06 0.15,-16.13 0.44,-24.2 0.33,-9.21 0.18,-18.43 0.4,-27.65 6.27,-0.09 12.53,-0.1 18.8,-0.22 0.19,-5.13 0.22,-10.26 0.04,-15.38 -33.72,-0.4 -67.45,0.04 -101.18,-0.22 -2.25,0.01 -4.51,-0.03 -6.73,0.41 m 114.68,-0.19 c -0.24,5.12 -0.28,10.25 -0.1,15.37 6.3,0.11 12.61,0.05 18.91,0.06 -0.09,7.91 -0.24,15.83 0.05,23.75 -0.17,16.02 -0.02,32.05 -0.13,48.07 -0.04,3.92 0.04,7.85 0.25,11.77 7.92,-0.44 15.87,-0.18 23.79,-0.6 -0.18,-20.06 -0.04,-40.11 -0.07,-60.16 0.09,-7.62 -0.27,-15.24 0.34,-22.84 4.33,-0.41 8.69,-0.06 13.03,-0.04 13.34,0.1 26.69,0.08 40.04,0.12 15.31,0.38 30.64,0.58 45.96,0.47 -3.18,-5.45 -6.35,-10.9 -9.91,-16.11 -38.69,-0.04 -77.39,0.01 -116.09,-0.02 -5.36,-0.03 -10.72,-0.03 -16.07,0.16 m 138.82,0.15 c 5.09,9.09 11.11,17.63 16.11,26.78 l 0.75,-0.07 c 3.46,7.22 8.06,13.81 11.93,20.81 2.08,3.86 4.79,7.44 6.26,11.6 -0.23,1.99 -1.41,3.69 -2.35,5.4 -5.1,8.22 -10.4,16.31 -15.32,24.65 3.25,6.5 5.1,13.67 8.73,19.97 2.51,1.04 5.3,1.33 8.01,1.25 2.31,-1.94 3.46,-4.86 4.94,-7.42 3.55,-6.36 6.76,-12.94 10.84,-19 4.41,9.75 9.16,19.36 13.13,29.32 0.58,1.36 1.14,2.77 1.99,4.01 1.81,1.24 4.08,1.46 6.15,2.02 7.68,1.56 15.16,3.96 22.77,5.85 -3.93,-7.78 -7.37,-15.79 -11.17,-23.63 -6.5,-12.83 -12.7,-25.81 -19.38,-38.54 4.61,-7.92 9.74,-15.52 14.38,-23.43 3.02,-5.02 6.3,-9.92 8.58,-15.34 1.57,-1.16 2.42,-3 3.41,-4.63 3.53,-6.57 7.58,-12.85 10.7,-19.63 -6.73,-0.34 -13.47,-0.16 -20.21,-0.27 -2.6,0 -5.24,-0.13 -7.8,0.35 -2.01,1.5 -3.04,3.9 -4.28,6 -3.24,6.16 -7.16,11.94 -10.18,18.21 -2.95,4.59 -5.39,9.52 -8.71,13.86 -2.68,-4.1 -4.68,-8.59 -6.71,-13.04 l -0.82,0.07 c -1.81,-5.59 -5.19,-10.45 -7.92,-15.6 -1.76,-3.29 -3.62,-6.51 -5.54,-9.7 -9.43,-0.09 -18.87,-0.29 -28.29,0.15 m -14.83,20.51 c 9.67,21.51 19.83,42.8 28.77,64.63 4.49,-6.37 8.27,-13.22 12.69,-19.64 1.16,-2 2.86,-3.89 3.17,-6.25 -1.43,-3.85 -3.94,-7.16 -5.88,-10.75 -4.37,-7.9 -9.25,-15.51 -13.74,-23.34 -0.86,-1.41 -1.69,-2.86 -2.87,-4.02 -1.18,-0.75 -2.69,-0.47 -4.01,-0.61 -6.04,-0.01 -12.08,-0.07 -18.13,-0.02 m -31.39,9.07 c -3.85,7.35 -7.21,14.93 -10.78,22.42 -7.82,15.61 -15.57,31.27 -23.7,46.72 8.55,0.44 17.11,0.82 25.67,1.12 2.16,-4.18 4.33,-8.37 6.42,-12.59 7.3,0.08 14.54,1.09 21.81,1.58 4.86,0.35 9.71,0.81 14.52,1.59 2.02,4.7 3.55,9.66 6.21,14.05 1.66,0.8 3.54,0.95 5.35,1.24 6.42,0.76 12.78,1.97 19.24,2.46 -10.68,-26.79 -22.73,-53 -34.26,-79.43 -1.09,-2.45 -2.05,-4.99 -3.6,-7.2 -2.65,-1.1 -5.61,-0.76 -8.4,-0.87 -4.61,0.13 -9.25,-0.28 -13.82,0.37 -2.3,2.36 -3.32,5.6 -4.66,8.54 M 69.57,212.67 c -1.86,1.68 -2.53,4.22 -3.51,6.44 -3.41,9.12 -7.3,18.04 -10.71,27.16 -1.97,5.28 -4.46,10.44 -5.24,16.09 -1.46,0.46 -1.51,2.42 -2.21,3.6 -5.99,16.62 -12.2,33.16 -17.84,49.9 8.24,-1.85 16.19,-4.79 24.48,-6.45 2.43,-5.63 3.95,-11.65 6.82,-17.07 1.82,-1.07 3.97,-1.32 6.01,-1.74 6.98,-1.14 13.93,-2.39 20.87,-3.73 2.81,-0.48 5.63,-1.13 8.49,-1.02 2.53,4.03 4.04,8.58 5.9,12.93 8.55,-0.71 16.86,-2.96 25.36,-3.98 -7.02,-16.05 -14.84,-31.75 -21.74,-47.86 -5.12,-11.61 -10.2,-23.23 -15.34,-34.83 -7.11,0.29 -14.26,-0.06 -21.34,0.56 z"
       id="path146"
       inkscape:connector-curvature="0"
       style="opacity:1;fill:#ffffff" />
    <path
       d="m 301.45,236.72 c 0.28,-0.02 0.85,-0.06 1.14,-0.08 3.56,9.15 7.62,18.11 10.92,27.37 -7.79,-0.21 -15.54,-0.95 -23.32,-1.35 4.16,-8.47 7.52,-17.29 11.26,-25.94 z"
       id="path148"
       inkscape:connector-curvature="0"
       style="opacity:1;fill:#ffffff" />
    <path
       d="m 74.96,254.15 c 1.36,-3.9 2.87,-7.76 4.62,-11.5 1.84,4.45 3.65,8.92 5.45,13.4 1.76,4.92 3.76,9.75 5.33,14.74 -7.47,1.21 -14.95,2.42 -22.48,3.28 2.2,-6.7 4.67,-13.3 7.08,-19.92 z"
       id="path150"
       inkscape:connector-curvature="0"
       style="opacity:1;fill:#ffffff" />
    <path
       d="m 122.14,345.35 c 4,-1.16 7.98,-2.63 12.16,-2.96 0.25,0.21 0.76,0.63 1.01,0.84 19.81,21.11 42.73,39.42 68.16,53.32 5.8,3.36 11.76,6.44 18.04,8.8 0.53,6.18 0.52,12.4 0.35,18.6 -9.22,-4.27 -18.5,-8.44 -27.33,-13.49 -8.62,-4.43 -16.46,-10.16 -24.53,-15.49 -11.67,-8.15 -22.45,-17.49 -33.12,-26.88 -4.54,-4.85 -9.37,-9.41 -14.02,-14.14 -1.81,-1.92 -3.56,-3.9 -5.02,-6.09 0.82,-1.63 2.77,-1.9 4.3,-2.51 z"
       id="path152"
       inkscape:connector-curvature="0"
       style="opacity:1;fill:#ffffff" />
  </g>
  <g
     id="#565655ff"
     transform="matrix(0.09914129,0,0,0.09914129,-0.03965564,2.3886859)">
    <path
       d="m 256,65.37 c 13.05,-0.53 25.95,-2.57 38.89,-4.23 2.29,5.1 4.05,10.43 5.32,15.88 -4.35,0.89 -8.73,1.65 -13.14,2.17 -9.84,1.13 -19.64,2.65 -29.54,3.23 -15.39,0.93 -30.81,1.6 -46.22,1.27 l -0.81,-0.08 c 3.82,-0.02 7.63,-0.25 11.45,-0.44 0,-5.54 -0.01,-11.08 -0.21,-16.62 11.43,-0.23 22.87,-0.15 34.26,-1.18 z"
       id="path155"
       inkscape:connector-curvature="0"
       style="opacity:1;fill:#565655" />
    <path
       d="m 79.25,188.94 c 2.22,-0.44 4.48,-0.4 6.73,-0.41 33.73,0.26 67.46,-0.18 101.18,0.22 0.18,5.12 0.15,10.25 -0.04,15.38 -6.27,0.12 -12.53,0.13 -18.8,0.22 -0.22,9.22 -0.07,18.44 -0.4,27.65 -0.29,8.07 0.04,16.14 -0.44,24.2 -0.16,-7.03 -0.13,-14.07 -0.17,-21.1 -7.87,1.27 -15.74,2.58 -23.43,4.68 -0.28,-11.65 0.21,-23.29 0.22,-34.94 -8.73,-0.22 -17.43,0.67 -26.16,0.7 -15.63,0.02 -31.24,1.28 -46.87,1.2 2.79,-5.9 4.55,-12.35 8.18,-17.8 z"
       id="path157"
       inkscape:connector-curvature="0"
       style="opacity:1;fill:#565655" />
    <path
       d="m 193.93,188.75 c 5.35,-0.19 10.71,-0.19 16.07,-0.16 38.7,0.03 77.4,-0.02 116.09,0.02 3.56,5.21 6.73,10.66 9.91,16.11 -15.32,0.11 -30.65,-0.09 -45.96,-0.47 -13.35,-0.04 -26.7,-0.02 -40.04,-0.12 -4.34,-0.02 -8.7,-0.37 -13.03,0.04 l -0.89,0.11 c -0.04,6.85 0.19,13.69 -0.17,20.53 -7.7,1.06 -15.42,2.01 -23.12,3.12 -0.29,-7.92 -0.14,-15.84 -0.05,-23.75 -6.3,-0.01 -12.61,0.05 -18.91,-0.06 -0.18,-5.12 -0.14,-10.25 0.1,-15.37 z"
       id="path159"
       inkscape:connector-curvature="0"
       style="opacity:1;fill:#565655" />
    <path
       d="m 332.75,188.9 c 9.42,-0.44 18.86,-0.24 28.29,-0.15 1.92,3.19 3.78,6.41 5.54,9.7 2.73,5.15 6.11,10.01 7.92,15.6 -8.28,0.87 -16.62,0.61 -24.89,1.56 l -0.75,0.07 c -5,-9.15 -11.02,-17.69 -16.11,-26.78 z"
       id="path161"
       inkscape:connector-curvature="0"
       style="opacity:1;fill:#565655" />
    <path
       d="m 400.92,194.95 c 1.24,-2.1 2.27,-4.5 4.28,-6 2.56,-0.48 5.2,-0.35 7.8,-0.35 6.74,0.11 13.48,-0.07 20.21,0.27 -3.12,6.78 -7.17,13.06 -10.7,19.63 -0.99,1.63 -1.84,3.47 -3.41,4.63 -9.45,0.37 -18.91,0.36 -28.36,0.03 3.02,-6.27 6.94,-12.05 10.18,-18.21 z"
       id="path163"
       inkscape:connector-curvature="0"
       style="opacity:1;fill:#565655" />
    <path
       d="m 286.53,218.48 c 1.34,-2.94 2.36,-6.18 4.66,-8.54 4.57,-0.65 9.21,-0.24 13.82,-0.37 2.79,0.11 5.75,-0.23 8.4,0.87 1.55,2.21 2.51,4.75 3.6,7.2 -10.19,-0.41 -20.3,2.1 -30.48,0.84 z"
       id="path165"
       inkscape:connector-curvature="0"
       style="opacity:1;fill:#565655" />
    <path
       d="m 69.57,212.67 c 7.08,-0.62 14.23,-0.27 21.34,-0.56 5.14,11.6 10.22,23.22 15.34,34.83 -7.1,2.61 -14.52,4.18 -21.77,6.27 0.13,0.71 0.41,2.13 0.55,2.84 -1.8,-4.48 -3.61,-8.95 -5.45,-13.4 -1.75,3.74 -3.26,7.6 -4.62,11.5 -7.56,4.64 -16.43,5.95 -24.85,8.21 0.78,-5.65 3.27,-10.81 5.24,-16.09 3.41,-9.12 7.3,-18.04 10.71,-27.16 0.98,-2.22 1.65,-4.76 3.51,-6.44 z"
       id="path167"
       inkscape:connector-curvature="0"
       style="opacity:1;fill:#565655" />
    <path
       d="m 316.9,333.93 c 2.05,-2.17 3.62,-5.18 6.43,-6.39 6,-0.51 11.98,0.88 17.92,1.66 -1.67,2.64 -3.43,5.22 -5.43,7.62 -9.5,11.42 -19.41,22.55 -30.39,32.59 -24.42,22.82 -52.68,41.67 -83.57,54.54 0.17,-6.2 0.18,-12.42 -0.35,-18.6 2.4,-0.87 4.8,-1.74 7.13,-2.79 33.81,-16.37 63.76,-40.24 88.26,-68.63 z"
       id="path169"
       inkscape:connector-curvature="0"
       style="opacity:1;fill:#565655" />
  </g>
  <g
     id="#030302fe"
     transform="matrix(0.09914129,0,0,0.09914129,-0.03965564,2.3886859)">
    <path
       d="m 177.91,63.27 c 1.04,-1.01 3.11,-1.05 4.17,-0.04 -0.19,1.59 -3.99,1.65 -4.17,0.04 z"
       id="path172"
       inkscape:connector-curvature="0"
       style="opacity:1;fill:#030302" />
  </g>
  <g
     id="#3b3b39ff"
     transform="matrix(0.09914129,0,0,0.09914129,-0.03965564,2.3886859)">
    <path
       d="m 96.49,64.28 c 13.54,5.03 27.58,8.58 41.75,11.34 18.12,3.26 36.4,5.78 54.79,6.77 5.83,0.31 11.66,0.67 17.47,1.22 l 0.81,0.08 c 3.53,0.61 7.06,1.18 10.62,1.58 0.21,14.19 0.11,28.39 0.06,42.58 -5.61,-2.66 -11.71,-4.32 -17.96,-4.06 -39.91,0.36 -79.83,0 -119.74,0.48 -3.5,10.52 -6.93,21.07 -10.44,31.6 -2.58,7.69 -4.89,15.48 -7.98,22.99 -3.1,7.75 -6.7,15.28 -9.72,23.07 -0.25,-5.05 -1.74,-9.9 -3,-14.76 -1.77,-6.77 -2.78,-13.71 -4.01,-20.59 -2.29,-13.25 -4.92,-26.57 -4.6,-40.08 7.24,-4.54 13.85,-10.02 20.08,-15.85 13.71,-12.98 25.3,-28.56 31.87,-46.37 z"
       id="path175"
       inkscape:connector-curvature="0"
       style="opacity:1;fill:#3b3b39" />
    <path
       d="m 178.14,332.13 c 14.53,-2.39 29.09,-4.6 43.77,-5.86 0.32,22.24 -0.04,44.49 0.18,66.73 0.05,4.12 -0.19,8.24 -0.58,12.35 -6.28,-2.36 -12.24,-5.44 -18.04,-8.8 -25.43,-13.9 -48.35,-32.21 -68.16,-53.32 2.55,-1.67 5.33,-3.01 8.33,-3.65 11.46,-2.64 22.89,-5.47 34.5,-7.45 z"
       id="path177"
       inkscape:connector-curvature="0"
       style="opacity:1;fill:#3b3b39" />
  </g>
  <g
     id="#070705ff"
     transform="matrix(0.09914129,0,0,0.09914129,-0.03965564,2.3886859)">
    <path
       d="m 185.7,64.31 c 5.19,-0.54 10.44,-0.56 15.63,0.08 -5.16,1.14 -10.48,1 -15.63,-0.08 z"
       id="path180"
       inkscape:connector-curvature="0"
       style="opacity:1;fill:#070705" />
  </g>
  <g
     id="#e4000fff"
     transform="matrix(0.09914129,0,0,0.09914129,-0.03965564,2.3886859)">
    <path
       d="m 91.14,129.79 c 3.5,-0.06 7.01,0.02 10.5,0.3 3.63,13.36 7.86,26.56 12.25,39.7 -3.47,-0.03 -6.93,-0.11 -10.4,-0.23 -0.69,-2.36 -1.33,-4.75 -2.02,-7.11 -3.67,-0.08 -7.34,-0.12 -11.01,-0.1 -0.91,2.36 -1.06,5.34 -2.98,7.11 -2.83,0.57 -5.75,0.29 -8.62,0.25 C 82.6,156.3 87,143.08 91.14,129.79 m 1.13,24.96 c 2.48,-0.01 4.96,-0.01 7.45,0 -1.52,-4.6 -2.54,-9.33 -3.58,-14.05 -1.62,4.58 -2.75,9.32 -3.87,14.05 z"
       id="path183"
       inkscape:connector-curvature="0"
       style="opacity:1;fill:#e4000f" />
    <path
       d="m 193.25,130.27 c 5.8,-0.43 11.75,-1.22 17.47,0.22 5.13,1.3 9.48,6.04 9.16,11.54 0.42,4.36 -2.35,7.96 -4.82,11.23 2.75,5.51 5.73,10.9 8.07,16.6 -3.26,0.14 -6.58,0.54 -9.8,-0.14 -1.35,-1.11 -2.05,-2.79 -2.8,-4.32 -1.92,-4.33 -3.67,-8.74 -5.42,-13.15 2.32,-3.08 5.63,-6.56 4.44,-10.76 -0.61,-2.87 -4.02,-2.96 -6.27,-3.77 -0.51,10.74 0.13,21.51 -0.35,32.25 -3.23,0.04 -6.46,0.03 -9.68,-0.02 0.12,-13.23 0.13,-26.46 0,-39.68 z"
       id="path185"
       inkscape:connector-curvature="0"
       style="opacity:1;fill:#e4000f" />
    <path
       d="m 226.25,130.05 c 2.66,0.13 5.47,-0.26 8,0.73 4.96,6.07 7.53,13.76 12.66,19.75 0.56,-6.77 0.28,-13.57 0.28,-20.36 2.89,-0.01 5.79,-0.02 8.69,-0.02 0.26,11.3 -0.02,22.6 0.12,33.91 -0.2,1.98 0.31,4.42 -1.27,5.96 -2.16,0.19 -4.33,0.04 -6.48,-0.03 -4.37,-6.99 -8.25,-14.29 -12.91,-21.1 -0.08,7.05 0.15,14.09 -0.24,21.13 -2.95,-0.01 -5.89,-0.03 -8.84,-0.08 0.12,-13.29 0.13,-26.59 -0.01,-39.89 z"
       id="path187"
       inkscape:connector-curvature="0"
       style="opacity:1;fill:#e4000f" />
    <path
       d="m 270.38,130.05 c 3.52,-0.25 7.05,-0.31 10.58,-0.26 3.87,13.34 8.49,26.47 11.98,39.93 -3.25,0.02 -6.51,0.03 -9.76,0.03 -0.67,-2.42 -1.25,-4.85 -1.88,-7.27 -3.88,-0.15 -7.75,-0.16 -11.62,-0.01 -0.63,2.42 -1.21,4.85 -1.86,7.27 -3.25,0.01 -6.49,0 -9.73,0 4.21,-13.19 8.8,-26.28 12.29,-39.69 m 1.62,24.59 c 2.29,0.05 4.58,0.09 6.87,0.12 -0.82,-4.41 -1.82,-8.79 -3.09,-13.09 -1.69,4.19 -2.9,8.55 -3.78,12.97 z"
       id="path189"
       inkscape:connector-curvature="0"
       style="opacity:1;fill:#e4000f" />
    <path
       d="m 322.03,130.26 c 7.69,0.1 15.39,0.08 23.09,0.02 0.07,2.85 0.1,5.7 0.11,8.55 -4.66,-0.01 -9.32,0.07 -13.98,0.31 0.01,1.86 0.01,3.73 0.01,5.59 3.83,0.11 7.66,0.24 11.49,0.4 -0.03,2.65 -0.04,5.3 -0.04,7.95 -3.6,0.19 -7.21,0.28 -10.82,0.29 -0.09,2.6 -0.15,5.2 -0.19,7.81 4.68,0.15 9.37,0.17 14.06,0.08 -0.01,2.84 0,5.68 0,8.52 -7.92,-0.05 -15.85,-0.06 -23.77,0.01 -0.21,-13.17 -0.34,-26.36 0.04,-39.53 z"
       id="path191"
       inkscape:connector-curvature="0"
       style="opacity:1;fill:#e4000f" />
  </g>
  <g
     id="#e5000fff"
     transform="matrix(0.09914129,0,0,0.09914129,-0.03965564,2.3886859)">
    <path
       d="m 115.9,130.17 c 3.08,-0.01 6.16,-0.01 9.24,-0.01 0.47,10.29 0.16,20.59 0.13,30.88 4.38,0.19 8.8,-0.02 13.14,0.67 0.49,2.51 0.49,5.11 0.02,7.62 -7.47,1.07 -15.06,0.09 -22.57,0.47 -0.32,-13.21 -0.38,-26.43 0.04,-39.63 z"
       id="path194"
       inkscape:connector-curvature="0"
       style="opacity:1;fill:#e5000f" />
    <path
       d="m 132.43,130.42 c 9.51,-0.21 19.02,0.01 28.53,-0.17 0.02,2.84 0.03,5.68 0.02,8.52 -3.06,0.09 -6.12,0.14 -9.18,0.23 -0.33,10.3 -0.14,20.61 -0.06,30.92 -3.27,0.07 -6.53,0.1 -9.79,0.08 -0.45,-10.31 -0.15,-20.64 -0.14,-30.95 -3.21,-0.11 -6.42,-0.19 -9.62,-0.29 0.08,-2.78 0.16,-5.56 0.24,-8.34 z"
       id="path196"
       inkscape:connector-curvature="0"
       style="opacity:1;fill:#e5000f" />
    <path
       d="m 164.27,130.27 c 7.87,0.09 15.73,0.09 23.6,-0.02 0.01,2.85 0.02,5.71 0.03,8.56 -4.57,0.01 -9.14,0.08 -13.71,0.24 0,1.92 0,3.84 0,5.76 3.65,0.06 7.3,0.13 10.95,0.24 -0.02,2.87 -0.06,5.75 -0.13,8.62 -3.46,0 -6.91,0.03 -10.37,0.09 -0.01,2.47 -0.01,4.95 0.01,7.43 4.49,0.11 8.98,0.15 13.47,0.11 0.05,2.82 0.06,5.64 0.05,8.46 -7.97,-0.03 -15.94,-0.03 -23.9,0 0.13,-13.17 0.13,-26.33 0,-39.49 z"
       id="path198"
       inkscape:connector-curvature="0"
       style="opacity:1;fill:#e5000f" />
    <path
       d="m 289.93,130.26 c 9.54,0.17 19.08,-0.08 28.61,0.18 0.08,2.77 0.17,5.53 0.28,8.3 -3.24,0.1 -6.48,0.19 -9.72,0.29 -0.08,10.31 0.24,20.63 -0.17,30.95 -3.23,0.02 -6.45,0.01 -9.68,-0.05 0.06,-10.31 0.26,-20.63 -0.08,-30.95 -3.1,-0.07 -6.2,-0.11 -9.3,-0.19 -0.01,-2.84 0.01,-5.69 0.06,-8.53 z"
       id="path200"
       inkscape:connector-curvature="0"
       style="opacity:1;fill:#e5000f" />
  </g>
  <g
     id="#111b18ff"
     transform="matrix(0.09914129,0,0,0.09914129,-0.03965564,2.3886859)">
    <path
       d="m 92.27,154.75 c 1.12,-4.73 2.25,-9.47 3.87,-14.05 1.04,4.72 2.06,9.45 3.58,14.05 -2.49,-0.01 -4.97,-0.01 -7.45,0 z"
       id="path203"
       inkscape:connector-curvature="0"
       style="opacity:1;fill:#111b18" />
  </g>
  <g
     id="#121b18ff"
     transform="matrix(0.09914129,0,0,0.09914129,-0.03965564,2.3886859)">
    <path
       d="m 272,154.64 c 0.88,-4.42 2.09,-8.78 3.78,-12.97 1.27,4.3 2.27,8.68 3.09,13.09 -2.29,-0.03 -4.58,-0.07 -6.87,-0.12 z"
       id="path206"
       inkscape:connector-curvature="0"
       style="opacity:1;fill:#121b18" />
  </g>
  <g
     id="#191917ff"
     transform="matrix(0.09914129,0,0,0.09914129,-0.03965564,2.3886859)">
    <path
       d="m 417.83,157.32 c 3.64,-0.87 7.55,-1.33 11.01,0.47 -2.75,0.38 -5.51,0.75 -8.27,1.04 3.03,0.8 6.14,1.28 9.22,1.87 -0.26,-1.08 -0.53,-2.17 -0.79,-3.25 5.16,1.43 10.64,3.08 14.47,7.05 1.13,1.34 2.69,3.35 1.24,5.02 -1.64,0.87 -3.55,0.94 -5.35,0.84 -6.22,-0.39 -12.39,-2.55 -17.24,-6.5 -2.1,-1.66 -3.15,-4.2 -4.29,-6.54 z"
       id="path209"
       inkscape:connector-curvature="0"
       style="opacity:1;fill:#191917" />
  </g>
  <g
     id="#2a2a29ff"
     transform="matrix(0.09914129,0,0,0.09914129,-0.03965564,2.3886859)">
    <path
       d="m 236.08,204.28 0.89,-0.11 c -0.61,7.6 -0.25,15.22 -0.34,22.84 0.03,20.05 -0.11,40.1 0.07,60.16 -7.92,0.42 -15.87,0.16 -23.79,0.6 -0.21,-3.92 -0.29,-7.85 -0.25,-11.77 0.11,-16.02 -0.04,-32.05 0.13,-48.07 7.7,-1.11 15.42,-2.06 23.12,-3.12 0.36,-6.84 0.13,-13.68 0.17,-20.53 z"
       id="path212"
       inkscape:connector-curvature="0"
       style="opacity:1;fill:#2a2a29" />
    <path
       d="m 390.74,213.16 c 9.45,0.33 18.91,0.34 28.36,-0.03 -2.28,5.42 -5.56,10.32 -8.58,15.34 -4.64,7.91 -9.77,15.51 -14.38,23.43 6.68,12.73 12.88,25.71 19.38,38.54 3.8,7.84 7.24,15.85 11.17,23.63 -7.61,-1.89 -15.09,-4.29 -22.77,-5.85 -2.07,-0.56 -4.34,-0.78 -6.15,-2.02 -0.85,-1.24 -1.41,-2.65 -1.99,-4.01 -3.97,-9.96 -8.72,-19.57 -13.13,-29.32 -4.08,6.06 -7.29,12.64 -10.84,19 -1.48,2.56 -2.63,5.48 -4.94,7.42 -2.71,0.08 -5.5,-0.21 -8.01,-1.25 -3.63,-6.3 -5.48,-13.47 -8.73,-19.97 4.92,-8.34 10.22,-16.43 15.32,-24.65 0.94,-1.71 2.12,-3.41 2.35,-5.4 -1.47,-4.16 -4.18,-7.74 -6.26,-11.6 -3.87,-7 -8.47,-13.59 -11.93,-20.81 8.27,-0.95 16.61,-0.69 24.89,-1.56 l 0.82,-0.07 c 2.03,4.45 4.03,8.94 6.71,13.04 3.32,-4.34 5.76,-9.27 8.71,-13.86 z"
       id="path214"
       inkscape:connector-curvature="0"
       style="opacity:1;fill:#2a2a29" />
    <path
       d="m 286.53,218.48 c 10.18,1.26 20.29,-1.25 30.48,-0.84 11.53,26.43 23.58,52.64 34.26,79.43 -6.46,-0.49 -12.82,-1.7 -19.24,-2.46 -1.81,-0.29 -3.69,-0.44 -5.35,-1.24 -2.66,-4.39 -4.19,-9.35 -6.21,-14.05 -4.81,-0.78 -9.66,-1.24 -14.52,-1.59 -7.27,-0.49 -14.51,-1.5 -21.81,-1.58 -2.09,4.22 -4.26,8.41 -6.42,12.59 -8.56,-0.3 -17.12,-0.68 -25.67,-1.12 8.13,-15.45 15.88,-31.11 23.7,-46.72 3.57,-7.49 6.93,-15.07 10.78,-22.42 m 14.92,18.24 c -3.74,8.65 -7.1,17.47 -11.26,25.94 7.78,0.4 15.53,1.14 23.32,1.35 -3.3,-9.26 -7.36,-18.22 -10.92,-27.37 -0.29,0.02 -0.86,0.06 -1.14,0.08 z"
       id="path216"
       inkscape:connector-curvature="0"
       style="opacity:1;fill:#2a2a29" />
    <path
       d="m 143.88,239.78 c 7.69,-2.1 15.56,-3.41 23.43,-4.68 0.04,7.03 0.01,14.07 0.17,21.1 -0.01,11.31 0.16,22.62 -0.22,33.93 -7.8,0.67 -15.53,1.92 -23.31,2.73 -0.64,-17.68 0.16,-35.39 -0.07,-53.08 z"
       id="path218"
       inkscape:connector-curvature="0"
       style="opacity:1;fill:#2a2a29" />
    <path
       d="m 84.48,253.21 c 7.25,-2.09 14.67,-3.66 21.77,-6.27 6.9,16.11 14.72,31.81 21.74,47.86 -8.5,1.02 -16.81,3.27 -25.36,3.98 -1.86,-4.35 -3.37,-8.9 -5.9,-12.93 -2.86,-0.11 -5.68,0.54 -8.49,1.02 -6.94,1.34 -13.89,2.59 -20.87,3.73 -2.04,0.42 -4.19,0.67 -6.01,1.74 -2.87,5.42 -4.39,11.44 -6.82,17.07 -8.29,1.66 -16.24,4.6 -24.48,6.45 5.64,-16.74 11.85,-33.28 17.84,-49.9 0.7,-1.18 0.75,-3.14 2.21,-3.6 8.42,-2.26 17.29,-3.57 24.85,-8.21 -2.41,6.62 -4.88,13.22 -7.08,19.92 7.53,-0.86 15.01,-2.07 22.48,-3.28 -1.57,-4.99 -3.57,-9.82 -5.33,-14.74 -0.14,-0.71 -0.42,-2.13 -0.55,-2.84 z"
       id="path220"
       inkscape:connector-curvature="0"
       style="opacity:1;fill:#2a2a29" />
  </g>
  <g
     id="#070704ff"
     transform="matrix(0.09914129,0,0,0.09914129,-0.03965564,2.3886859)">
    <path
       d="m 172.91,208.89 c 11.69,-0.2 23.41,-0.6 35.08,-0.01 l 0.12,1.04 c -11.8,0.61 -23.7,-0.88 -35.43,0.9 0.06,-0.48 0.17,-1.45 0.23,-1.93 z"
       id="path223"
       inkscape:connector-curvature="0"
       style="opacity:1;fill:#070704" />
  </g>
  <g
     id="#060604ff"
     transform="matrix(0.09914129,0,0,0.09914129,-0.03965564,2.3886859)">
    <path
       d="m 130.87,209.67 c 2.84,0.04 5.68,-0.03 8.53,-0.03 0.07,20.2 -0.01,40.4 -0.29,60.59 -0.6,-2.02 -1.18,-4.07 -1.21,-6.18 0,-17.48 0.31,-34.96 -0.04,-52.43 -2.37,-0.51 -4.76,-0.99 -6.99,-1.95 z"
       id="path226"
       inkscape:connector-curvature="0"
       style="opacity:1;fill:#060604" />
    <path
       d="m 273.94,305.68 c 4.47,-0.64 9,-0.85 13.49,-0.14 -2.23,0.35 -4.45,0.75 -6.69,0.94 -2.28,-0.2 -4.54,-0.52 -6.8,-0.8 z"
       id="path228"
       inkscape:connector-curvature="0"
       style="opacity:1;fill:#060604" />
  </g>
  <g
     id="#030302ff"
     transform="matrix(0.09914129,0,0,0.09914129,-0.03965564,2.3886859)">
    <path
       d="m 244.61,293.33 c 4.87,-0.91 9.87,-0.68 14.72,0.27 -4.88,0.83 -9.88,0.76 -14.72,-0.27 z"
       id="path231"
       inkscape:connector-curvature="0"
       style="opacity:1;fill:#030302" />
  </g>
  <g
     id="#020201fe"
     transform="matrix(0.09914129,0,0,0.09914129,-0.03965564,2.3886859)">
    <path
       d="m 258.64,305.16 c 4.06,-1.27 8.32,-1.27 12.31,0.24 -4.1,0 -8.21,-0.08 -12.31,-0.24 z"
       id="path234"
       inkscape:connector-curvature="0"
       style="opacity:1;fill:#020201" />
  </g>
  <g
     id="#050503fe"
     transform="matrix(0.09914129,0,0,0.09914129,-0.03965564,2.3886859)">
    <path
       d="m 279.17,310.49 c 3.04,0.14 6.08,0.24 9.12,0.45 -3.05,0.7 -6.17,0.67 -9.12,-0.45 z"
       id="path237"
       inkscape:connector-curvature="0"
       style="opacity:1;fill:#050503" />
  </g>
  <g
     id="#040403fe"
     transform="matrix(0.09914129,0,0,0.09914129,-0.03965564,2.3886859)">
    <path
       d="m 163.22,311.73 c 1.8,-0.33 3.64,-0.33 5.47,-0.18 -1.45,1.53 -4.22,2.48 -5.47,0.18 z"
       id="path240"
       inkscape:connector-curvature="0"
       style="opacity:1;fill:#040403" />
  </g>
  <g
     id="#151513fb"
     transform="matrix(0.09914129,0,0,0.09914129,-0.03965564,2.3886859)">
    <path
       d="m 122.86,353.95 c 4.65,4.73 9.48,9.29 14.02,14.14 0.16,0.44 0.49,1.33 0.65,1.78 -4.4,-2.59 -7.83,-6.43 -11.38,-10.02 -1.66,-1.61 -2.56,-3.76 -3.29,-5.9 z"
       id="path243"
       inkscape:connector-curvature="0"
       style="opacity:1;fill:#151513" />
  </g>
</svg>
