<?xml version="1.0" encoding="utf-8"?>
<!-- Generator: Adobe Illustrator 22.0.0, SVG Export Plug-In . SVG Version: 6.00 Build 0)  -->
<svg version="1.1" id="Camada_1" xmlns="http://www.w3.org/2000/svg" xmlns:xlink="http://www.w3.org/1999/xlink" x="0px" y="0px"
	 width="64px" height="64px" viewBox="0 0 64 64" style="enable-background:new 0 0 64 64;" xml:space="preserve">
<g>
	<g>
		<path style="fill:#FDFCFC;" d="M31.271,8.104c1.163-0.001,2.326-0.001,3.488-0.002c1.972,0.147,3.919,0.442,5.834,0.942
			c2.268,0.593,4.348,1.632,6.382,2.757c5.275,2.918,9.83,6.748,13.942,11.127c1.032,1.099,1.99,2.26,2.915,3.45
			c0.214,0.275,0.214,0.528,0.05,0.814c-2.201,3.836-4.779,7.403-7.663,10.753c-2.647,3.075-5.492,5.951-8.588,8.574
			c-0.789,0.669-1.622,1.287-2.42,1.946c-0.196,0.162-0.316,0.114-0.482-0.021c-0.669-0.541-1.348-1.069-2.044-1.575
			c-0.26-0.189-0.398-0.142-0.596,0.076c-1.675,1.844-3.433,3.605-5.266,5.292c-1.356,1.249-2.778,2.419-4.24,3.542
			c-0.213,0.164-0.349,0.156-0.558-0.003c-2.854-2.174-5.478-4.601-7.964-7.181c-0.597-0.62-1.18-1.254-1.752-1.897
			c-0.209-0.236-0.361-0.274-0.637-0.077c-0.809,0.58-1.606,1.174-2.373,1.808c-0.204,0.169-0.332,0.166-0.547,0.002
			c-3.529-2.696-6.715-5.758-9.692-9.046c-2.504-2.766-4.794-5.698-6.854-8.808c-0.742-1.12-1.431-2.273-2.11-3.433
			c-0.185-0.315-0.084-0.549,0.111-0.804c1.546-2.026,3.272-3.89,5.096-5.666c4.269-4.157,8.982-7.688,14.394-10.238
			c2.767-1.304,5.678-2.023,8.726-2.228c0.644-0.043,1.284-0.082,1.929-0.035C30.662,8.196,30.969,8.174,31.271,8.104z
			 M35.478,9.653c-0.543-0.107-1.095-0.109-1.644-0.127c-1.987-0.063-3.972-0.037-5.948,0.204c-0.053,0.005-0.107,0.009-0.16,0.014
			c-0.194-0.017-0.381,0.018-0.566,0.068c-0.107,0.008-0.215,0.01-0.321,0.025c-2.295,0.329-4.474,1.024-6.561,2.032
			c-4.568,2.207-8.58,5.197-12.261,8.658c-1.103,1.037-2.149,2.128-3.168,3.248c-0.752,0.827-1.441,1.706-2.145,2.572
			c-0.235,0.289-0.239,0.505-0.057,0.822c2.896,5.049,6.491,9.558,10.554,13.709c0.262,0.267,0.363,0.268,0.584-0.046
			c5.379-7.655,10.768-15.303,16.158-22.95c0.075-0.106,0.127-0.245,0.283-0.309c0.031,0.211-0.071,0.347-0.129,0.492
			c-3.595,8.991-7.192,17.981-10.788,26.971c-0.129,0.322-0.412,0.698-0.331,0.958c0.09,0.289,0.527,0.461,0.792,0.707
			c0.204,0.189,0.35,0.199,0.576,0.011c0.714-0.592,1.448-1.161,2.218-1.68c0.136-0.092,0.245-0.201,0.405-0.014
			c0.276,0.324,0.615,0.598,0.885,0.918c1.042,1.239,2.222,2.338,3.379,3.462c0.2,0.194,0.462,0.329,0.645,0.536
			c0.652,0.735,1.415,1.342,2.173,1.957c0.181,0.163,0.361,0.325,0.575,0.517c0.003-0.206,0.189-0.329,0.083-0.514
			c0.003-0.076,0.005-0.153,0.008-0.229c0.144-0.086,0.127-0.208,0.074-0.337c-0.039-0.125,0.14-0.192,0.087-0.322
			c0.036-0.056,0.037-0.11-0.007-0.162c0.003-0.076,0.005-0.152,0.008-0.229c0.145-0.086,0.13-0.207,0.074-0.337
			c-0.04-0.126,0.142-0.192,0.087-0.322c0.073-0.458,0.147-0.916,0.22-1.374c0.343-2.151,0.685-4.302,1.028-6.453
			c0.031,0.001,0.061,0.002,0.092,0.003c0.501,3.415,1.003,6.829,1.512,10.297c1.313-1.054,2.505-2.137,3.674-3.245
			c1.29-1.224,2.529-2.497,3.72-3.816c0.163-0.18,0.281-0.291,0.519-0.092c0.371,0.31,0.772,0.584,1.158,0.875
			c0.322,0.243,0.628,0.659,0.966,0.686c0.369,0.029,0.65-0.463,1.001-0.681c0.222-0.138,0.247-0.278,0.154-0.524
			c-1.001-2.638-1.986-5.282-2.98-7.922c-0.643-1.709-1.294-3.415-1.941-5.122c0.001-0.218-0.125-0.25-0.316-0.25
			c-2.672,0.008-5.344,0.01-8.016,0.013c-0.048-0.102,0.02-0.18,0.057-0.262c0.71-1.589,1.422-3.177,2.133-4.765
			c1.383,0,2.766,0,4.201,0c-0.289-0.743-0.549-1.414-0.81-2.085c-0.012-0.051-0.018-0.105-0.037-0.154
			c-1.52-4.063-3.043-8.124-4.557-12.189c-0.049-0.133-0.206-0.246-0.129-0.436c0.214,0.084,0.261,0.284,0.356,0.434
			c5.837,9.245,11.67,18.492,17.504,27.738c0.101,0.16,0.138,0.371,0.404,0.098c4.004-4.112,7.548-8.574,10.41-13.562
			c0.178-0.31,0.154-0.509-0.06-0.786c-1.402-1.814-2.938-3.506-4.577-5.106c-3.897-3.804-8.194-7.048-13.114-9.436
			C41.034,10.591,38.317,9.907,35.478,9.653z"/>
		<path style="fill:#181815;" d="M34.021,27.326c-0.711,1.588-1.423,3.176-2.133,4.765c-0.037,0.083-0.104,0.161-0.057,0.262
			c-0.005,0.289,0.22,0.148,0.325,0.148c2.444,0.01,4.889,0.009,7.333,0.005c0.23,0,0.454,0.014,0.673,0.083
			c0.647,1.707,1.298,3.413,1.941,5.122c0.994,2.64,1.979,5.284,2.98,7.922c0.093,0.246,0.068,0.386-0.154,0.524
			c-0.351,0.219-0.632,0.71-1.001,0.681c-0.338-0.026-0.644-0.443-0.966-0.686c-0.387-0.291-0.787-0.566-1.158-0.875
			c-0.239-0.199-0.357-0.088-0.519,0.092c-1.192,1.319-2.431,2.592-3.72,3.816c-1.168,1.109-2.36,2.191-3.674,3.245
			c-0.509-3.468-1.01-6.883-1.512-10.297c-0.031-0.001-0.061-0.002-0.092-0.003c-0.343,2.151-0.685,4.302-1.028,6.453
			c-0.253,0.429-0.359,0.882-0.22,1.374c0.055,0.13-0.127,0.196-0.087,0.322c-0.119,0.092-0.07,0.22-0.074,0.337
			c-0.003,0.076-0.005,0.152-0.008,0.229c-0.084,0.058-0.076,0.112,0.007,0.162c0.054,0.13-0.125,0.196-0.087,0.322
			c-0.118,0.092-0.07,0.22-0.074,0.337c-0.003,0.076-0.005,0.153-0.008,0.229c-0.221,0.346-0.438-0.077-0.657-0.004
			c-0.758-0.615-1.521-1.222-2.173-1.957c-0.183-0.207-0.445-0.342-0.645-0.536c-1.157-1.123-2.338-2.223-3.379-3.462
			c-0.27-0.321-0.609-0.595-0.885-0.918c-0.159-0.187-0.268-0.078-0.405,0.014c-0.77,0.519-1.504,1.088-2.218,1.68
			c-0.226,0.188-0.372,0.178-0.576-0.011c-0.265-0.246-0.701-0.418-0.792-0.707c-0.081-0.26,0.202-0.636,0.331-0.958
			c3.596-8.99,7.193-17.98,10.788-26.971c0.058-0.145,0.16-0.281,0.129-0.492c-0.156,0.064-0.208,0.203-0.283,0.309
			c-5.39,7.647-10.78,15.295-16.158,22.95c-0.22,0.313-0.322,0.313-0.584,0.046c-4.064-4.15-7.658-8.659-10.554-13.709
			c-0.182-0.317-0.178-0.533,0.057-0.822c0.704-0.867,1.392-1.746,2.145-2.572c1.019-1.119,2.065-2.211,3.168-3.248
			c3.681-3.461,7.693-6.451,12.261-8.658c2.087-1.008,4.266-1.704,6.561-2.032c0.106-0.015,0.214-0.017,0.321-0.025
			c0.203,0.098,0.404,0.174,0.566-0.068c0.053-0.005,0.107-0.009,0.16-0.014c0.046,0.024,0.092,0.067,0.14,0.07
			c0.684,0.035,1.36-0.085,2.042-0.115c1.423-0.063,2.845-0.067,4.267,0.003c0.384,0.019,0.766,0.105,1.144-0.035
			c2.839,0.255,5.556,0.939,8.134,2.19c4.92,2.388,9.217,5.632,13.114,9.436c1.639,1.6,3.175,3.293,4.577,5.106
			c0.214,0.276,0.238,0.476,0.06,0.786c-2.862,4.988-6.407,9.45-10.41,13.562c-0.266,0.273-0.303,0.062-0.404-0.098
			c-5.834-9.247-11.667-18.494-17.504-27.738c-0.095-0.151-0.142-0.35-0.356-0.434c-0.077,0.19,0.08,0.303,0.129,0.436
			c1.515,4.065,3.037,8.127,4.557,12.189c0.018,0.049,0.025,0.103,0.037,0.154c-0.097,0.073-0.067,0.158-0.031,0.251
			c0.162,0.425,0.318,0.853,0.48,1.277c0.155,0.405,0.158,0.406-0.293,0.407c-1.047,0.001-2.094-0.003-3.141,0.004
			C34.284,27.181,34.09,27.095,34.021,27.326z M29.984,33.145c-0.051-0.132,0.147-0.264-0.001-0.396
			c0.874-1.961,1.751-3.921,2.619-5.885c0.08-0.181,0.209-0.172,0.359-0.171c0.639,0.003,1.277,0.001,1.964,0.001
			c-0.983-2.217-1.942-4.379-2.921-6.588c-0.07,0.133-0.11,0.202-0.144,0.273c-2.397,5.046-4.792,10.092-7.193,15.136
			c-0.235,0.494-0.425,1.011-0.735,1.467c0.04,0.335,0.303,0.204,0.472,0.204c5.083,0.007,10.167,0.006,15.25,0.005
			c0.108,0,0.217,0.01,0.322-0.007c0.066-0.011,0.044-0.082,0.031-0.133c-0.001-0.061-0.002-0.123-0.003-0.184
			c-0.086-0.562-0.336-1.041-0.725-1.452c-0.379-0.73-0.757-1.46-1.136-2.19c-0.122-0.129-0.279-0.063-0.418-0.064
			C35.146,33.154,32.565,33.15,29.984,33.145z M45.764,26.18c-0.016-0.091-0.038-0.182-0.047-0.275
			c-0.344-3.678-1.856-6.787-4.546-9.319c-1.136-1.069-2.427-1.913-3.847-2.558c-0.087-0.04-0.188-0.149-0.29-0.039
			c-0.096,0.103-0.003,0.199,0.043,0.292c0.024,0.048,0.048,0.096,0.073,0.144c2.67,5.2,5.34,10.401,8.012,15.6
			c0.051,0.099,0.061,0.234,0.212,0.295c0.212-0.773,0.274-1.558,0.374-2.337c0.144-0.023,0.15-0.13,0.149-0.242
			c-0.001-0.43-0.001-0.86,0-1.291C45.898,26.337,45.877,26.236,45.764,26.18z M53.905,30.007c0.093-0.005,0.187-0.004,0.26-0.077
			c0.451-0.451,0.901-0.901,1.352-1.352c0.073-0.073,0.072-0.167,0.076-0.26c0.297-0.328,0.58-0.671,0.897-0.979
			c0.219-0.213,0.182-0.343-0.011-0.552c-2.346-2.554-4.891-4.888-7.672-6.963c-0.099-0.074-0.199-0.242-0.341-0.141
			c-0.156,0.111,0.002,0.248,0.046,0.357c0.499,1.238,0.898,2.504,1.098,3.827c-0.024,0.06-0.076,0.124-0.069,0.179
			c0.088,0.622,0.105,1.251,0.176,1.871c0.126,1.102,0.001,2.184-0.072,3.276c-0.023,0.347-0.207,0.698-0.034,1.053
			c-0.2,1.337-0.603,2.615-1.111,3.864c-0.04,0.099-0.175,0.22-0.051,0.326c0.146,0.125,0.235-0.056,0.342-0.115
			c0.082-0.045,0.15-0.112,0.226-0.168c1.244-0.92,2.408-1.939,3.588-2.937c0.28-0.01,0.439-0.152,0.472-0.432
			C53.354,30.526,53.63,30.267,53.905,30.007z M14.368,29.857c0.139-0.156,0.204-0.304-0.046-0.417
			c-0.013-0.076-0.026-0.151-0.04-0.227c0.163-0.181,0.218-0.353-0.04-0.5c-0.013-0.103-0.026-0.205-0.039-0.308
			c0.114-0.063,0.113-0.172,0.113-0.28c0-0.712,0-1.423,0-2.135c0-0.108,0.002-0.218-0.113-0.281c0.131-1.92,0.57-3.769,1.295-5.551
			c0.04-0.099,0.077-0.201,0.12-0.299c0.031-0.07,0.03-0.136-0.03-0.181c-0.061-0.045-0.129-0.017-0.185,0.023
			c-0.077,0.054-0.151,0.112-0.226,0.168c-2.75,2.067-5.274,4.381-7.601,6.914c-0.189,0.205-0.226,0.324-0.016,0.552
			c2.354,2.559,4.906,4.898,7.693,6.979c0.097,0.072,0.198,0.246,0.337,0.13c0.132-0.111-0.008-0.247-0.055-0.363
			C14.989,32.717,14.574,31.316,14.368,29.857z M18.268,27.016c0.033,1.012,0.123,2.001,0.332,2.978
			c0.032,0.152,0.018,0.359,0.219,0.39c0.224,0.035,0.217-0.202,0.28-0.328c2.614-5.224,5.223-10.45,7.828-15.679
			c0.059-0.118,0.232-0.247,0.086-0.388c-0.122-0.118-0.252,0.025-0.363,0.079C21.287,16.725,18.573,21.093,18.268,27.016z"/>
		<path style="fill:#0B0B08;" d="M40.163,32.589c-0.219-0.069-0.444-0.083-0.673-0.083c-2.444,0.004-4.889,0.004-7.333-0.005
			c-0.106,0-0.33,0.141-0.325-0.148c2.672-0.003,5.344-0.005,8.016-0.013C40.038,32.339,40.164,32.371,40.163,32.589z"/>
		<path style="fill:#262626;" d="M35.478,9.653c-0.378,0.14-0.759,0.054-1.144,0.035c-1.422-0.07-2.844-0.066-4.267-0.003
			c-0.681,0.03-1.357,0.15-2.042,0.115c-0.048-0.002-0.093-0.045-0.14-0.07c1.977-0.241,3.962-0.267,5.948-0.204
			C34.383,9.543,34.935,9.545,35.478,9.653z"/>
		<path style="fill:#0B0B08;" d="M34.021,27.326c0.069-0.23,0.262-0.144,0.406-0.145c1.047-0.007,2.094-0.003,3.141-0.004
			c0.45-0.001,0.448-0.002,0.293-0.407c-0.163-0.425-0.318-0.852-0.48-1.277c-0.036-0.093-0.066-0.178,0.031-0.251
			c0.261,0.671,0.521,1.342,0.81,2.085C36.787,27.326,35.404,27.326,34.021,27.326z"/>
		<path style="fill:#0B0B08;" d="M31.041,49.958c-0.139-0.492-0.033-0.945,0.22-1.374C31.188,49.042,31.114,49.5,31.041,49.958z"/>
		<path style="fill:#0B0B08;" d="M30.053,51.892c0.22-0.073,0.436,0.349,0.657,0.004c0.106,0.185-0.079,0.307-0.083,0.514
			C30.414,52.217,30.233,52.054,30.053,51.892z"/>
		<path style="fill:#262626;" d="M27.725,9.744c-0.162,0.242-0.363,0.167-0.566,0.068C27.345,9.762,27.532,9.727,27.725,9.744z"/>
		<path style="fill:#0B0B08;" d="M30.879,50.617c0.004-0.117-0.044-0.246,0.074-0.337C31.009,50.409,31.024,50.531,30.879,50.617z"
			/>
		<path style="fill:#0B0B08;" d="M30.718,51.667c0.004-0.117-0.044-0.245,0.074-0.337C30.845,51.459,30.862,51.58,30.718,51.667z"/>
		<path style="fill:#0B0B08;" d="M30.879,51.007c-0.083-0.051-0.091-0.104-0.007-0.162C30.916,50.898,30.914,50.952,30.879,51.007z"
			/>
		<path style="fill:#FDB900;" d="M23.933,36.984c0.31-0.457,0.5-0.974,0.735-1.467c2.401-5.044,4.796-10.091,7.193-15.136
			c0.034-0.071,0.073-0.14,0.144-0.273c0.979,2.209,1.938,4.371,2.921,6.588c-0.687,0-1.325,0.002-1.964-0.001
			c-0.15-0.001-0.279-0.01-0.359,0.171c-0.868,1.964-1.745,3.924-2.619,5.885c-0.058,0.107-0.116,0.213-0.174,0.32
			c-0.056,0.032-0.07,0.063,0.003,0.091l0.006,0.005c-0.005,0.027-0.003,0.053,0.006,0.079c0.111,0.111,0.253,0.07,0.383,0.071
			c2.524,0.002,5.048,0.002,7.572,0c0.118,0,0.243,0.031,0.352-0.047c0.014-0.01,0.019-0.024,0.014-0.041
			c0.379,0.73,0.757,1.46,1.136,2.19c0.242,0.484,0.483,0.968,0.725,1.452c0.001,0.061,0.002,0.123,0.003,0.184
			c-0.175-0.003-0.349-0.009-0.524-0.009c-5.027-0.001-10.054,0-15.081-0.002C24.246,37.042,24.079,37.086,23.933,36.984z"/>
		<path style="fill:#FCFCFC;" d="M14.203,28.405c0.013,0.103,0.026,0.205,0.039,0.308c0.004,0.168-0.049,0.34,0.04,0.5
			c0.013,0.076,0.026,0.151,0.04,0.227c0.012,0.14-0.057,0.288,0.046,0.417c0.206,1.459,0.621,2.859,1.169,4.224
			c0.047,0.117,0.187,0.253,0.055,0.363c-0.139,0.116-0.24-0.057-0.337-0.13c-2.787-2.08-5.339-4.419-7.693-6.979
			c-0.21-0.229-0.173-0.347,0.016-0.552c2.327-2.533,4.851-4.847,7.601-6.914c0.075-0.056,0.149-0.114,0.226-0.168
			c0.057-0.04,0.124-0.068,0.185-0.023c0.06,0.044,0.061,0.111,0.03,0.181c-0.043,0.098-0.08,0.199-0.12,0.299
			c-0.725,1.782-1.163,3.631-1.295,5.551C14.118,26.607,14.12,27.506,14.203,28.405z"/>
		<path style="fill:#FCFCFC;" d="M49.611,23.867c-0.2-1.323-0.599-2.589-1.098-3.827c-0.044-0.109-0.201-0.246-0.046-0.357
			c0.142-0.101,0.242,0.067,0.341,0.141c2.78,2.075,5.325,4.409,7.672,6.963c0.193,0.21,0.229,0.34,0.011,0.552
			c-0.317,0.308-0.6,0.651-0.897,0.979c-0.563,0.563-1.126,1.126-1.688,1.689c-0.276,0.259-0.552,0.519-0.827,0.778
			c-0.157,0.144-0.314,0.288-0.472,0.432c-1.18,0.998-2.344,2.016-3.588,2.937c-0.076,0.056-0.144,0.124-0.226,0.168
			c-0.107,0.059-0.196,0.24-0.342,0.115c-0.124-0.106,0.011-0.227,0.051-0.326c0.508-1.249,0.912-2.527,1.111-3.864
			C50.02,28.12,50.016,25.993,49.611,23.867z"/>
		<path style="fill:#FCB900;" d="M18.268,27.016c0.304-5.922,3.019-10.29,8.383-12.947c0.11-0.055,0.24-0.197,0.363-0.079
			c0.147,0.141-0.027,0.27-0.086,0.388c-2.605,5.228-5.214,10.455-7.828,15.679c-0.063,0.126-0.056,0.362-0.28,0.328
			c-0.201-0.031-0.187-0.238-0.219-0.39C18.391,29.017,18.302,28.027,18.268,27.016z"/>
		<path style="fill:#FCB900;" d="M45.749,27.984c-0.1,0.779-0.163,1.565-0.374,2.337c-0.152-0.06-0.161-0.195-0.212-0.295
			c-2.673-5.199-5.342-10.4-8.012-15.6c-0.025-0.048-0.049-0.096-0.073-0.144c-0.046-0.093-0.138-0.19-0.043-0.292
			c0.102-0.11,0.203-0.001,0.29,0.039c1.42,0.645,2.71,1.488,3.847,2.558c2.69,2.531,4.202,5.641,4.546,9.319
			c0.009,0.092,0.031,0.183,0.047,0.275C45.759,26.782,45.754,27.383,45.749,27.984z"/>
		<path style="fill:#010717;" d="M23.933,36.984c0.146,0.102,0.313,0.058,0.471,0.058c5.027,0.002,10.054,0.002,15.081,0.002
			c0.175,0,0.349,0.006,0.524,0.009c0.012,0.051,0.035,0.122-0.031,0.133c-0.105,0.017-0.214,0.007-0.322,0.007
			c-5.083,0-10.167,0.001-15.25-0.005C24.236,37.188,23.973,37.319,23.933,36.984z"/>
		<path style="fill:#262626;" d="M49.611,23.867c0.405,2.127,0.408,4.253,0.002,6.38c-0.173-0.355,0.011-0.707,0.034-1.053
			c0.073-1.092,0.198-2.175,0.072-3.276c-0.071-0.621-0.088-1.25-0.176-1.871C49.535,23.99,49.587,23.927,49.611,23.867z"/>
		<path style="fill:#B67F00;" d="M29.825,33.244c-0.009-0.026-0.011-0.052-0.006-0.079c0.055-0.007,0.11-0.013,0.166-0.02
			c2.581,0.005,5.162,0.008,7.742,0.018c0.139,0.001,0.296-0.065,0.418,0.064c0.005,0.017,0,0.03-0.014,0.041
			c-0.066-0.011-0.132-0.03-0.197-0.03C35.231,33.238,32.528,33.241,29.825,33.244z"/>
		<path style="fill:#050504;" d="M14.203,28.405c-0.083-0.899-0.085-1.797,0.001-2.696c0.114,0.063,0.113,0.172,0.113,0.281
			c0,0.712,0,1.423,0,2.135C14.316,28.233,14.317,28.342,14.203,28.405z"/>
		<path style="fill:#0B0B08;" d="M53.905,30.007c0.563-0.563,1.126-1.126,1.688-1.689c-0.005,0.093-0.003,0.187-0.076,0.26
			c-0.451,0.451-0.901,0.901-1.352,1.352C54.093,30.003,53.998,30.003,53.905,30.007z"/>
		<path style="fill:#010717;" d="M40.005,36.869c-0.242-0.484-0.483-0.968-0.725-1.452C39.67,35.827,39.919,36.307,40.005,36.869z"
			/>
		<path style="fill:#010717;" d="M45.749,27.984c0.005-0.601,0.011-1.202,0.016-1.804c0.113,0.056,0.134,0.157,0.134,0.271
			c-0.001,0.43-0.001,0.86,0,1.291C45.898,27.854,45.893,27.961,45.749,27.984z"/>
		<path style="fill:#0B0B08;" d="M52.606,31.217c0.157-0.144,0.314-0.288,0.472-0.432C53.045,31.065,52.886,31.207,52.606,31.217z"
			/>
		<path style="fill:#050504;" d="M14.282,29.213c-0.089-0.161-0.036-0.333-0.04-0.5C14.5,28.86,14.445,29.032,14.282,29.213z"/>
		<path style="fill:#050504;" d="M14.368,29.857c-0.103-0.129-0.034-0.278-0.046-0.417C14.572,29.553,14.506,29.701,14.368,29.857z"
			/>
		<path style="fill:#010717;" d="M29.984,33.145c-0.055,0.007-0.11,0.013-0.166,0.02c0,0-0.006-0.005-0.006-0.005
			c-0.001-0.03-0.002-0.061-0.003-0.091c0.058-0.107,0.116-0.213,0.174-0.32C30.132,32.881,29.933,33.014,29.984,33.145z"/>
		<path style="fill:#FECF00;" d="M29.825,33.244c2.703-0.003,5.406-0.006,8.108-0.007c0.066,0,0.132,0.02,0.197,0.03
			c-0.109,0.078-0.234,0.047-0.352,0.047c-2.524,0.002-5.048,0.002-7.572,0C30.078,33.315,29.936,33.355,29.825,33.244z"/>
		<path style="fill:#B67F00;" d="M29.81,33.07c0.001,0.03,0.002,0.061,0.003,0.091C29.74,33.133,29.754,33.102,29.81,33.07z"/>
	</g>
</g>
</svg>
