<?xml version="1.0" encoding="utf-8"?>
<!-- Generator: Adobe Illustrator 22.0.0, SVG Export Plug-In . SVG Version: 6.00 Build 0)  -->
<svg version="1.1" id="Camada_1" xmlns="http://www.w3.org/2000/svg" xmlns:xlink="http://www.w3.org/1999/xlink" x="0px" y="0px"
	 width="64px" height="64px" viewBox="0 0 64 64" enable-background="new 0 0 64 64" xml:space="preserve">
<g>
	<g>
		<path fill="#FDFCFC" d="M33.458,8.065c0.349,0.154,0.72,0.086,1.071,0.059c1.03-0.079,2.031,0.122,3.039,0.256
			c5.028,0.672,9.303,3.087,13.404,5.867c3.63,2.461,6.872,5.38,9.87,8.574c1.067,1.137,2.057,2.34,3.018,3.568
			c0.187,0.239,0.177,0.433,0.029,0.69c-2.354,4.103-5.133,7.897-8.255,11.447c-2.489,2.83-5.147,5.49-8.024,7.925
			c-0.779,0.659-1.599,1.268-2.386,1.918c-0.2,0.165-0.324,0.148-0.514-0.003c-0.652-0.518-1.325-1.008-1.975-1.529
			c-0.276-0.221-0.449-0.204-0.691,0.068c-1.378,1.547-2.849,3.004-4.346,4.435c-1.594,1.523-3.273,2.948-5.025,4.288
			c-0.105,0.081-0.28,0.116-0.268,0.305c-0.054,0-0.108,0-0.161,0c-0.446-0.52-1.033-0.872-1.558-1.295
			c-2.863-2.308-5.499-4.854-7.966-7.576c-0.688-0.759-0.682-0.779-1.505-0.176c-0.628,0.46-1.248,0.932-1.85,1.426
			c-0.238,0.195-0.385,0.217-0.645,0.017c-3.199-2.452-6.116-5.206-8.859-8.152c-2.807-3.015-5.361-6.227-7.634-9.663
			c-0.748-1.131-1.444-2.294-2.128-3.464c-0.145-0.247-0.127-0.433,0.043-0.655c2.171-2.84,4.656-5.386,7.315-7.765
			c2.115-1.893,4.354-3.629,6.742-5.165c2.637-1.697,5.368-3.216,8.363-4.197c1.908-0.625,3.873-0.952,5.874-1.106
			c0.767-0.059,1.527-0.024,2.29-0.028c0.132-0.001,0.27,0.033,0.389-0.059C31.896,8.072,32.677,8.069,33.458,8.065z M30.876,50.932
			c0.036-0.056,0.037-0.11-0.007-0.162c0.003-0.076,0.005-0.152,0.008-0.229c0.145-0.086,0.13-0.207,0.074-0.337
			c-0.04-0.126,0.142-0.192,0.087-0.321c0.073-0.458,0.146-0.915,0.22-1.373c0.342-2.149,0.685-4.298,1.027-6.447
			c0.031,0.001,0.061,0.002,0.092,0.003c0.501,3.412,1.002,6.824,1.51,10.288c1.313-1.052,2.503-2.134,3.671-3.242
			c1.289-1.223,2.527-2.495,3.717-3.813c0.162-0.18,0.28-0.291,0.519-0.092c0.371,0.309,0.771,0.584,1.157,0.875
			c0.322,0.242,0.628,0.659,0.965,0.685c0.369,0.029,0.65-0.462,1.001-0.681c0.222-0.138,0.247-0.278,0.154-0.524
			c-1-2.636-1.984-5.277-2.977-7.916c-0.643-1.708-1.293-3.412-1.94-5.118c0.001-0.218-0.125-0.25-0.316-0.249
			c-2.67,0.008-5.34,0.01-8.009,0.013c-0.048-0.102,0.02-0.18,0.057-0.262c0.71-1.587,1.421-3.174,2.131-4.761
			c1.382,0,2.763,0,4.198,0c-0.288-0.742-0.549-1.413-0.809-2.083c-0.012-0.051-0.018-0.105-0.036-0.154
			c-1.519-4.06-3.041-8.12-4.555-12.182c-0.049-0.131-0.207-0.244-0.122-0.443c0.166,0.076,0.212,0.224,0.287,0.343
			c2.687,4.256,5.373,8.514,8.059,12.771c3.166,5.018,6.332,10.036,9.499,15.053c0.089,0.14,0.113,0.379,0.374,0.111
			c4.035-4.134,7.597-8.629,10.471-13.653c0.147-0.257,0.102-0.431-0.069-0.648c-4.076-5.182-8.908-9.513-14.571-12.894
			c-2.336-1.394-4.759-2.61-7.435-3.255c-3.279-0.791-6.598-0.876-9.943-0.692c-3.233,0.178-6.314,0.912-9.231,2.349
			c-4.497,2.215-8.466,5.164-12.103,8.586c-1.102,1.036-2.149,2.125-3.166,3.245c-0.751,0.827-1.439,1.705-2.143,2.57
			c-0.236,0.29-0.236,0.506-0.055,0.822c2.894,5.045,6.486,9.55,10.546,13.697c0.265,0.27,0.365,0.262,0.583-0.048
			c5.375-7.649,10.76-15.29,16.147-22.93c0.073-0.104,0.11-0.261,0.285-0.285c0.026,0.187-0.075,0.324-0.133,0.469
			c-3.592,8.984-7.186,17.966-10.779,26.949c-0.129,0.322-0.412,0.698-0.331,0.957c0.09,0.289,0.527,0.461,0.791,0.706
			c0.204,0.19,0.35,0.198,0.576,0.011c0.714-0.591,1.447-1.16,2.217-1.679c0.136-0.092,0.245-0.2,0.404-0.014
			c0.276,0.323,0.615,0.597,0.884,0.918c1.041,1.238,2.22,2.336,3.377,3.459c0.2,0.194,0.461,0.329,0.645,0.535
			c0.651,0.734,1.414,1.341,2.172,1.955c0.18,0.162,0.361,0.325,0.574,0.517c0.003-0.206,0.189-0.328,0.083-0.513
			c0.003-0.076,0.005-0.153,0.008-0.229c0.144-0.086,0.127-0.207,0.074-0.337C30.751,51.129,30.93,51.062,30.876,50.932z"/>
		<path fill="#181815" d="M31.038,49.884c0.055,0.13-0.127,0.196-0.087,0.321c-0.118,0.092-0.07,0.22-0.074,0.337
			c-0.003,0.076-0.005,0.152-0.008,0.229c-0.084,0.058-0.076,0.111,0.007,0.162c0.054,0.129-0.125,0.196-0.086,0.322
			c-0.118,0.092-0.07,0.22-0.074,0.337c-0.003,0.076-0.005,0.153-0.008,0.229c-0.221,0.345-0.437-0.077-0.657-0.004
			c-0.757-0.614-1.52-1.221-2.172-1.955c-0.183-0.206-0.445-0.341-0.645-0.535c-1.156-1.122-2.336-2.221-3.377-3.459
			c-0.27-0.32-0.608-0.594-0.884-0.918c-0.159-0.187-0.268-0.078-0.404,0.014c-0.77,0.519-1.503,1.087-2.217,1.679
			c-0.226,0.187-0.372,0.179-0.576-0.011c-0.264-0.246-0.701-0.418-0.791-0.706c-0.081-0.259,0.202-0.635,0.331-0.957
			c3.593-8.983,7.187-17.966,10.779-26.949c0.058-0.145,0.159-0.281,0.133-0.469c-0.175,0.024-0.211,0.182-0.285,0.285
			c-5.387,7.64-10.772,15.282-16.147,22.93c-0.218,0.31-0.318,0.318-0.583,0.048c-4.06-4.147-7.652-8.652-10.546-13.697
			c-0.181-0.316-0.181-0.532,0.055-0.822c0.704-0.866,1.392-1.744,2.143-2.57c1.016-1.12,2.064-2.208,3.166-3.245
			c3.637-3.422,7.606-6.37,12.103-8.586c2.917-1.437,5.998-2.171,9.231-2.349c3.344-0.184,6.663-0.099,9.943,0.692
			c2.676,0.646,5.099,1.861,7.435,3.255c5.664,3.381,10.496,7.712,14.571,12.894c0.171,0.217,0.216,0.391,0.069,0.648
			c-2.874,5.025-6.436,9.519-10.471,13.653c-0.261,0.268-0.286,0.029-0.374-0.111c-3.167-5.017-6.333-10.035-9.499-15.053
			c-2.686-4.257-5.372-8.515-8.059-12.771c-0.075-0.119-0.121-0.267-0.287-0.343c-0.084,0.199,0.074,0.312,0.122,0.443
			c1.514,4.062,3.035,8.122,4.555,12.182c0.018,0.049,0.025,0.102,0.036,0.154c-0.097,0.073-0.067,0.157-0.031,0.251
			c0.162,0.425,0.317,0.852,0.48,1.276c0.155,0.405,0.158,0.406-0.292,0.407c-1.046,0.001-2.093-0.003-3.139,0.004
			c-0.144,0.001-0.337-0.085-0.406,0.145c-0.711,1.587-1.421,3.174-2.131,4.761c-0.037,0.082-0.104,0.161-0.057,0.262
			c-0.005,0.289,0.22,0.148,0.325,0.148c2.442,0.01,4.885,0.009,7.327,0.005c0.23,0,0.454,0.014,0.673,0.083
			c0.647,1.706,1.297,3.411,1.94,5.118c0.993,2.638,1.977,5.28,2.977,7.916c0.093,0.246,0.068,0.385-0.154,0.524
			c-0.351,0.219-0.632,0.71-1.001,0.681c-0.337-0.026-0.643-0.443-0.965-0.685c-0.386-0.291-0.786-0.565-1.157-0.875
			c-0.239-0.199-0.356-0.088-0.519,0.092c-1.191,1.318-2.429,2.59-3.717,3.813c-1.167,1.108-2.358,2.189-3.671,3.242
			c-0.509-3.464-1.009-6.876-1.51-10.288c-0.031-0.001-0.061-0.002-0.092-0.003c-0.342,2.149-0.685,4.298-1.027,6.447
			C31.006,48.94,30.9,49.392,31.038,49.884z M29.983,33.085c-0.01-0.181,0.117-0.342,0.073-0.528
			c0.004-0.039-0.001-0.083,0.015-0.118c0.835-1.861,1.674-3.721,2.506-5.584c0.079-0.177,0.186-0.223,0.371-0.22
			c0.641,0.011,1.282,0.004,1.973,0.004c-0.979-2.209-1.937-4.371-2.922-6.592c-0.073,0.149-0.113,0.23-0.152,0.312
			c-2.391,5.031-4.78,10.064-7.175,15.093c-0.235,0.493-0.425,1.01-0.735,1.467c0.04,0.335,0.303,0.204,0.472,0.204
			c5.079,0.007,10.159,0.006,15.238,0.005c0.107,0,0.217,0.01,0.322-0.007c0.066-0.011,0.043-0.082,0.031-0.133
			c-0.001-0.061-0.002-0.123-0.003-0.184c-0.086-0.561-0.336-1.041-0.724-1.45c-0.378-0.73-0.756-1.459-1.135-2.189
			c-0.122-0.129-0.279-0.063-0.418-0.064C35.14,33.093,32.561,33.09,29.983,33.085z M45.75,26.125
			c-0.016-0.091-0.038-0.182-0.047-0.274c-0.344-3.675-1.854-6.782-4.543-9.311c-1.135-1.068-2.425-1.911-3.844-2.556
			c-0.087-0.04-0.188-0.149-0.29-0.039c-0.095,0.103-0.003,0.199,0.043,0.292c0.024,0.048,0.048,0.096,0.073,0.144
			c2.668,5.196,5.336,10.392,8.006,15.587c0.051,0.099,0.06,0.234,0.212,0.295c0.211-0.772,0.274-1.557,0.374-2.335
			c0.144-0.023,0.15-0.13,0.149-0.242c-0.001-0.43-0.001-0.86,0-1.29C45.884,26.282,45.863,26.181,45.75,26.125z M52.587,31.158
			c0.28-0.01,0.438-0.152,0.471-0.432c0.276-0.259,0.551-0.518,0.827-0.777c0.093-0.005,0.187-0.004,0.26-0.077
			c0.45-0.45,0.901-0.901,1.351-1.351c0.073-0.073,0.072-0.167,0.076-0.26c0.297-0.328,0.58-0.671,0.896-0.979
			c0.218-0.212,0.182-0.342-0.011-0.552c-2.344-2.552-4.887-4.884-7.665-6.957c-0.099-0.074-0.198-0.242-0.341-0.141
			c-0.155,0.111,0.002,0.248,0.046,0.356c0.499,1.237,0.897,2.502,1.097,3.824c-0.024,0.06-0.076,0.124-0.069,0.179
			c0.088,0.621,0.105,1.25,0.176,1.87c0.126,1.101,0.001,2.183-0.072,3.274c-0.023,0.346-0.207,0.698-0.034,1.052
			c-0.2,1.336-0.603,2.613-1.11,3.861c-0.04,0.099-0.175,0.22-0.051,0.326c0.146,0.125,0.235-0.056,0.342-0.115
			c0.082-0.045,0.15-0.112,0.226-0.168C50.244,33.173,51.407,32.156,52.587,31.158z M14.214,28.348
			c0.114-0.063,0.113-0.172,0.113-0.28c0-0.711,0-1.422,0-2.133c0-0.108,0.002-0.218-0.113-0.28c0.131-1.919,0.57-3.767,1.294-5.548
			c0.035-0.087,0.071-0.174,0.106-0.261c0.03-0.076,0.068-0.161-0.017-0.218c-0.079-0.052-0.151-0.002-0.217,0.05
			c-0.063,0.05-0.13,0.095-0.194,0.143c-2.749,2.065-5.271,4.379-7.596,6.91c-0.192,0.209-0.218,0.327-0.011,0.552
			c2.352,2.558,4.903,4.895,7.689,6.974c0.095,0.071,0.192,0.249,0.335,0.126c0.133-0.115-0.011-0.247-0.057-0.362
			c-0.548-1.364-0.961-2.764-1.168-4.221c0.139-0.156,0.204-0.304-0.046-0.417c-0.013-0.075-0.026-0.151-0.04-0.226
			c0.163-0.181,0.218-0.353-0.04-0.5C14.239,28.553,14.226,28.451,14.214,28.348z M18.275,26.995
			c0.036,1.011,0.13,1.999,0.338,2.975c0.03,0.141,0.027,0.32,0.208,0.356c0.215,0.043,0.21-0.173,0.267-0.287
			c2.623-5.244,5.242-10.49,7.857-15.738c0.053-0.107,0.209-0.227,0.073-0.355c-0.127-0.119-0.253,0.021-0.362,0.075
			C21.28,16.683,18.568,21.06,18.275,26.995z"/>
		<path fill="#0B0B08" d="M40.153,32.529c-0.219-0.069-0.443-0.083-0.673-0.083c-2.442,0.004-4.885,0.004-7.327-0.005
			c-0.106,0-0.33,0.141-0.325-0.148c2.67-0.003,5.34-0.005,8.009-0.013C40.028,32.279,40.154,32.311,40.153,32.529z"/>
		<path fill="#0B0B08" d="M34.016,27.27c0.069-0.23,0.262-0.144,0.406-0.145c1.046-0.007,2.093-0.003,3.139-0.004
			c0.45-0.001,0.447-0.002,0.292-0.407c-0.163-0.424-0.318-0.852-0.48-1.276c-0.036-0.093-0.066-0.178,0.031-0.251
			c0.26,0.67,0.521,1.341,0.809,2.083C36.78,27.27,35.398,27.27,34.016,27.27z"/>
		<path fill="#0B0B08" d="M31.038,49.884c-0.139-0.492-0.033-0.944,0.22-1.373C31.185,48.968,31.112,49.426,31.038,49.884z"/>
		<path fill="#0B0B08" d="M30.051,51.816c0.219-0.073,0.436,0.349,0.657,0.004c0.106,0.185-0.079,0.307-0.083,0.513
			C30.412,52.141,30.231,51.979,30.051,51.816z"/>
		<path fill="#0B0B08" d="M30.877,50.542c0.004-0.117-0.044-0.245,0.074-0.337C31.007,50.335,31.022,50.456,30.877,50.542z"/>
		<path fill="#0B0B08" d="M30.716,51.591c0.004-0.117-0.044-0.245,0.074-0.337C30.843,51.384,30.86,51.505,30.716,51.591z"/>
		<path fill="#0B0B08" d="M30.876,50.932c-0.083-0.051-0.091-0.104-0.007-0.162C30.913,50.823,30.912,50.877,30.876,50.932z"/>
		<path fill="#FDB900" d="M38.137,33.166c0.378,0.73,0.756,1.459,1.135,2.189c0.241,0.483,0.483,0.967,0.724,1.45
			c0.001,0.061,0.002,0.123,0.003,0.184c-0.174-0.003-0.349-0.009-0.523-0.009c-5.023,0-10.046,0-15.069-0.002
			c-0.157,0-0.324,0.045-0.47-0.058c0.31-0.456,0.5-0.973,0.735-1.467c2.394-5.03,4.784-10.062,7.175-15.093
			c0.039-0.082,0.08-0.163,0.152-0.312c0.985,2.221,1.943,4.383,2.922,6.592c-0.691,0-1.332,0.007-1.973-0.004
			c-0.185-0.003-0.292,0.043-0.371,0.22c-0.831,1.863-1.67,3.723-2.506,5.584c-0.015,0.034-0.01,0.078-0.015,0.118
			c-0.082,0.151-0.165,0.301-0.247,0.452c-0.056,0.032-0.07,0.063,0.003,0.091l0.006,0.005c-0.005,0.027-0.003,0.053,0.006,0.079
			c0.111,0.111,0.253,0.07,0.382,0.071c2.522,0.002,5.044,0.002,7.566,0c0.118,0,0.243,0.031,0.351-0.047
			C38.137,33.197,38.141,33.183,38.137,33.166z"/>
		<path fill="#FCFCFC" d="M14.293,29.156c0.013,0.075,0.026,0.151,0.04,0.226c0.012,0.139-0.057,0.288,0.046,0.417
			c0.207,1.458,0.621,2.858,1.168,4.221c0.046,0.115,0.19,0.247,0.057,0.362c-0.143,0.123-0.24-0.056-0.335-0.126
			c-2.786-2.079-5.337-4.416-7.689-6.974c-0.207-0.225-0.181-0.343,0.011-0.552c2.326-2.531,4.848-4.844,7.596-6.91
			c0.064-0.048,0.131-0.093,0.194-0.143c0.066-0.052,0.138-0.102,0.217-0.05c0.086,0.057,0.047,0.142,0.017,0.218
			c-0.035,0.087-0.071,0.174-0.106,0.261c-0.725,1.781-1.163,3.629-1.294,5.548c-0.085,0.898-0.084,1.796-0.001,2.694
			c0.013,0.103,0.026,0.205,0.039,0.308C14.256,28.823,14.204,28.995,14.293,29.156z"/>
		<path fill="#FCFCFC" d="M49.594,23.813c-0.2-1.322-0.598-2.587-1.097-3.824c-0.044-0.109-0.201-0.246-0.046-0.356
			c0.142-0.101,0.242,0.067,0.341,0.141c2.778,2.073,5.321,4.405,7.665,6.957c0.192,0.209,0.229,0.339,0.011,0.552
			c-0.317,0.308-0.599,0.651-0.896,0.979c-0.562,0.563-1.125,1.125-1.687,1.688c-0.276,0.259-0.551,0.518-0.827,0.777
			c-0.157,0.144-0.314,0.288-0.471,0.432c-1.179,0.997-2.342,2.015-3.585,2.935c-0.076,0.056-0.144,0.124-0.226,0.168
			c-0.107,0.058-0.195,0.24-0.342,0.115c-0.124-0.106,0.011-0.227,0.051-0.326c0.508-1.248,0.911-2.525,1.11-3.861
			C50.002,28.063,49.998,25.938,49.594,23.813z"/>
		<path fill="#FCB900" d="M18.275,26.995c0.293-5.934,3.005-10.312,8.381-12.974c0.109-0.054,0.236-0.194,0.362-0.075
			c0.136,0.128-0.02,0.248-0.073,0.355c-2.615,5.248-5.234,10.494-7.857,15.738c-0.057,0.114-0.052,0.33-0.267,0.287
			c-0.181-0.036-0.178-0.216-0.208-0.356C18.406,28.994,18.311,28.006,18.275,26.995z"/>
		<path fill="#FCB900" d="M45.734,27.927c-0.1,0.778-0.163,1.563-0.374,2.335c-0.152-0.06-0.161-0.195-0.212-0.295
			c-2.67-5.195-5.338-10.391-8.006-15.587c-0.025-0.048-0.049-0.096-0.073-0.144c-0.046-0.093-0.138-0.189-0.043-0.292
			c0.102-0.11,0.203,0,0.29,0.039c1.419,0.644,2.708,1.487,3.844,2.556c2.688,2.529,4.198,5.637,4.543,9.311
			c0.009,0.092,0.031,0.183,0.047,0.274C45.745,26.726,45.74,27.327,45.734,27.927z"/>
		<path fill="#010717" d="M23.936,36.92c0.146,0.102,0.313,0.057,0.47,0.058c5.023,0.002,10.046,0.002,15.069,0.002
			c0.174,0,0.349,0.006,0.523,0.009c0.012,0.051,0.035,0.122-0.031,0.133c-0.105,0.017-0.214,0.007-0.322,0.007
			c-5.079,0-10.159,0.001-15.238-0.005C24.239,37.124,23.976,37.255,23.936,36.92z"/>
		<path fill="#262626" d="M49.594,23.813c0.404,2.125,0.408,4.25,0.002,6.375c-0.173-0.354,0.011-0.706,0.034-1.052
			c0.073-1.091,0.198-2.173,0.072-3.274c-0.071-0.62-0.088-1.249-0.176-1.87C49.518,23.937,49.57,23.873,49.594,23.813z"/>
		<path fill="#B67F00" d="M29.823,33.183c-0.009-0.026-0.011-0.052-0.006-0.079c0.055-0.007,0.11-0.013,0.165-0.02
			c2.579,0.005,5.157,0.008,7.736,0.018c0.139,0.001,0.296-0.065,0.418,0.064c0.005,0.017,0,0.03-0.014,0.041
			c-0.066-0.011-0.131-0.03-0.197-0.03C35.225,33.178,32.524,33.181,29.823,33.183z"/>
		<path fill="#050504" d="M14.214,28.348c-0.083-0.898-0.085-1.796,0.001-2.694c0.114,0.063,0.113,0.172,0.113,0.28
			c0,0.711,0,1.422,0,2.133C14.327,28.176,14.328,28.285,14.214,28.348z"/>
		<path fill="#0B0B08" d="M53.885,29.949c0.562-0.563,1.125-1.125,1.687-1.688c-0.005,0.093-0.003,0.187-0.076,0.26
			c-0.45,0.45-0.901,0.901-1.351,1.351C54.072,29.945,53.977,29.945,53.885,29.949z"/>
		<path fill="#010717" d="M39.996,36.805c-0.241-0.483-0.483-0.967-0.724-1.45C39.66,35.765,39.91,36.244,39.996,36.805z"/>
		<path fill="#010717" d="M45.734,27.927c0.005-0.601,0.011-1.201,0.016-1.802c0.113,0.056,0.134,0.157,0.134,0.27
			c-0.001,0.43-0.001,0.86,0,1.29C45.884,27.798,45.878,27.905,45.734,27.927z"/>
		<path fill="#0B0B08" d="M52.587,31.158c0.157-0.144,0.314-0.288,0.471-0.432C53.025,31.006,52.866,31.148,52.587,31.158z"/>
		<path fill="#050504" d="M14.293,29.156c-0.089-0.161-0.036-0.332-0.04-0.5C14.511,28.803,14.456,28.975,14.293,29.156z"/>
		<path fill="#050504" d="M14.378,29.799c-0.103-0.129-0.034-0.278-0.046-0.417C14.582,29.495,14.517,29.643,14.378,29.799z"/>
		<path fill="#010717" d="M29.983,33.085c-0.055,0.007-0.11,0.013-0.165,0.02c0,0-0.006-0.005-0.006-0.005
			c-0.001-0.03-0.002-0.061-0.003-0.091c0.082-0.151,0.165-0.301,0.247-0.452C30.099,32.742,29.973,32.904,29.983,33.085z"/>
		<path fill="#FECF00" d="M29.823,33.183c2.701-0.003,5.401-0.006,8.102-0.007c0.066,0,0.131,0.02,0.197,0.03
			c-0.109,0.078-0.233,0.047-0.351,0.047c-2.522,0.002-5.044,0.002-7.566,0C30.076,33.254,29.935,33.294,29.823,33.183z"/>
		<path fill="#B67F00" d="M29.808,33.009c0.001,0.03,0.002,0.061,0.003,0.091C29.738,33.072,29.753,33.042,29.808,33.009z"/>
	</g>
</g>
</svg>
