<?xml version="1.0" encoding="UTF-8" standalone="no"?>
<svg
   xmlns:dc="http://purl.org/dc/elements/1.1/"
   xmlns:cc="http://creativecommons.org/ns#"
   xmlns:rdf="http://www.w3.org/1999/02/22-rdf-syntax-ns#"
   xmlns:svg="http://www.w3.org/2000/svg"
   xmlns="http://www.w3.org/2000/svg"
   xmlns:sodipodi="http://sodipodi.sourceforge.net/DTD/sodipodi-0.dtd"
   xmlns:inkscape="http://www.inkscape.org/namespaces/inkscape"
   width="64"
   height="64"
   viewBox="0 0 48 48"
   version="1.1"
   id="svg64"
   sodipodi:docname="ape.svg"
   inkscape:version="0.92.3 (2405546, 2018-03-11)">
  <metadata
     id="metadata70">
    <rdf:RDF>
      <cc:Work
         rdf:about="">
        <dc:format>image/svg+xml</dc:format>
        <dc:type
           rdf:resource="http://purl.org/dc/dcmitype/StillImage" />
        <dc:title></dc:title>
      </cc:Work>
    </rdf:RDF>
  </metadata>
  <defs
     id="defs68" />
  <sodipodi:namedview
     pagecolor="#ffffff"
     bordercolor="#666666"
     borderopacity="1"
     objecttolerance="10"
     gridtolerance="10"
     guidetolerance="10"
     inkscape:pageopacity="0"
     inkscape:pageshadow="2"
     inkscape:window-width="1920"
     inkscape:window-height="1017"
     id="namedview66"
     showgrid="false"
     units="px"
     inkscape:pagecheckerboard="true"
     inkscape:zoom="0.40958098"
     inkscape:cx="425.98455"
     inkscape:cy="98.598986"
     inkscape:window-x="-8"
     inkscape:window-y="-8"
     inkscape:window-maximized="1"
     inkscape:current-layer="svg64" />
  <g
     id="#969696ac"
     transform="matrix(0.08,0,0,0.08,0,2.0345792)">
    <path
       d="m 157.8,130.58 c 3.04,-0.28 6.09,-0.34 9.14,-0.36 35.36,0.07 70.71,0.01 106.06,0.04 7.51,0.02 15.03,-0.18 22.54,0.2 -1.62,3.6 -3.49,7.09 -5.45,10.51 1.62,-3.27 2.91,-6.68 4.22,-10.08 -8.43,-0.39 -16.87,-0.31 -25.31,-0.27 -37.07,-0.01 -74.14,0.02 -111.2,-0.04 z"
       id="path41"
       inkscape:connector-curvature="0"
       style="opacity:0.67000002;fill:#969696" />
  </g>
  <g
     id="#9a9a9ab1"
     transform="matrix(0.08,0,0,0.08,0,2.0345792)">
    <path
       d="m 305.11,130.66 c 8.61,-0.69 17.26,-0.38 25.89,-0.4 34.02,-0.03 68.04,0.03 102.06,-0.04 3.05,0.03 6.1,0.08 9.14,0.36 -45.7,0.1 -91.4,-0.01 -137.09,0.08 z"
       id="path44"
       inkscape:connector-curvature="0"
       style="opacity:0.68999999;fill:#9a9a9a" />
    <path
       d="m 154.39,418.4 c 48.53,-0.06 97.07,0 145.61,-0.03 10.4,0.06 20.8,-0.11 31.2,0.11 -2.72,0.14 -5.44,0.25 -8.16,0.29 -49.35,-0.05 -98.69,0 -148.04,-0.03 -6.87,0.01 -13.76,0.22 -20.61,-0.34 z"
       id="path46"
       inkscape:connector-curvature="0"
       style="opacity:0.68999999;fill:#9a9a9a" />
  </g>
  <g
     id="#ffffffff"
     transform="matrix(0.08,0,0,0.08,0,2.0345792)">
    <path
       d="m 146.66,137.72 c 2.51,-3.77 6.52,-6.78 11.14,-7.14 37.06,0.06 74.13,0.03 111.2,0.04 8.44,-0.04 16.88,-0.12 25.31,0.27 -1.31,3.4 -2.6,6.81 -4.22,10.08 -7.47,13.63 -14.28,27.6 -21.79,41.21 -16.56,31.75 -33.39,63.36 -49.77,95.21 -5.62,9.9 -10.43,20.21 -15.96,30.16 -5.38,10.39 -10.9,20.72 -16.1,31.21 -7.88,13.97 -15.05,28.32 -22.35,42.6 -5.57,10.08 -10.8,20.33 -16.15,30.53 -1.26,2.14 -2.66,4.21 -4.02,6.29 -4.65,0.09 -9.31,0.2 -13.96,0.22 -34.33,-0.05 -68.66,0 -102.99,-0.02 -9,0.04 -18,0.06 -27,-0.21 V 416.5 C 5.14,405.74 11.16,395.43 16.49,384.76 26.81,365.21 37.18,345.7 47.21,326 c 5.39,-9.31 10.01,-19.03 15.21,-28.45 11.8,-22.94 24.16,-45.58 35.78,-68.62 12.36,-22.64 24.13,-45.59 36.12,-68.42 4.04,-7.64 7.45,-15.64 12.34,-22.79 z"
       id="path49"
       inkscape:connector-curvature="0"
       style="opacity:1;fill:#ffffff" />
    <path
       d="m 305.11,130.66 c 45.69,-0.09 91.39,0.02 137.09,-0.08 4.62,0.36 8.63,3.36 11.14,7.14 5.01,7.35 8.5,15.57 12.68,23.39 4.07,7.59 7.74,15.4 12.07,22.86 3.87,6.68 6.99,13.75 10.66,20.54 9.5,18.13 19.09,36.22 28.57,54.36 4.85,8.24 8.75,17 13.46,25.32 3.22,5.87 6.03,11.96 9.33,17.79 3.85,6.87 7.09,14.07 10.97,20.93 4.03,7.17 7.44,14.65 11.39,21.86 4.92,9.82 10.41,19.34 15.38,29.14 5.26,9.36 9.89,19.05 14.95,28.53 2.38,4.69 5.03,9.25 7.2,14.06 v 1.67 c -9,0.27 -18,0.25 -27,0.21 -34.33,0.02 -68.66,-0.04 -103,0.02 -4.65,-0.02 -9.3,-0.13 -13.94,-0.22 -1.38,-2.08 -2.77,-4.15 -4.03,-6.29 -5.36,-10.2 -10.58,-20.45 -16.15,-30.53 -7.46,-14.59 -14.84,-29.23 -22.74,-43.58 -9.29,-18.02 -18.73,-35.95 -28.21,-53.86 -3.83,-6.66 -7.09,-13.62 -10.62,-20.43 -18.78,-35.88 -37.61,-71.74 -56.48,-107.57 -4.2,-8.44 -9.1,-16.55 -12.72,-25.26 z"
       id="path51"
       inkscape:connector-curvature="0"
       style="opacity:1;fill:#ffffff" />
    <path
       d="m 280.73,309.38 c 11.72,-1.17 23.51,-0.71 35.27,-0.77 24.2,-0.03 48.41,0.04 72.61,-0.03 -2.66,6.39 -5.97,12.47 -9.35,18.5 -15.92,30.52 -32.11,60.89 -48.06,91.4 -10.4,-0.22 -20.8,-0.05 -31.2,-0.11 -48.54,0.03 -97.08,-0.03 -145.61,0.03 1.35,-3.16 2.85,-6.25 4.5,-9.26 3.73,-6.73 6.82,-13.79 10.64,-20.47 2.15,-3.73 4.06,-7.59 5.99,-11.44 2.62,-5.31 5.73,-10.35 8.34,-15.66 4.08,-8.07 9.88,-15.12 16.36,-21.37 9.62,-10.06 22.04,-17.03 34.98,-21.89 6.17,-2.2 12.42,-4.27 18.9,-5.31 8.86,-1.34 17.69,-2.97 26.63,-3.62 z"
       id="path53"
       inkscape:connector-curvature="0"
       style="opacity:1;fill:#ffffff" />
  </g>
  <g
     id="#979797ad"
     transform="matrix(0.08,0,0,0.08,0,2.0345792)">
    <path
       d="m 254.1,313 c 9.75,-3.01 20,-3.56 30.1,-4.43 4.59,-0.38 9.19,-0.32 13.79,-0.32 22.34,-0.08 44.67,-0.03 67.01,-0.03 7.87,0.05 15.76,-0.32 23.61,0.36 -24.2,0.07 -48.41,0 -72.61,0.03 -11.76,0.06 -23.55,-0.4 -35.27,0.77 -8.94,0.65 -17.77,2.28 -26.63,3.62 z"
       id="path56"
       inkscape:connector-curvature="0"
       style="opacity:0.68000034;fill:#979797" />
  </g>
  <g
     id="#989898ae"
     transform="matrix(0.08,0,0,0.08,0,2.0345792)">
    <path
       d="m 143.95,418.18 c 1.36,-2.08 2.76,-4.15 4.02,-6.29 -1.13,2.17 -2.02,4.52 -3.66,6.38 -5.01,1.19 -10.22,0.38 -15.32,0.49 C 93.66,418.72 58.33,418.77 23,418.74 15.33,418.69 7.66,418.75 0,418.9 v -0.73 c 9,0.27 18,0.25 27,0.21 34.33,0.02 68.66,-0.03 102.99,0.02 4.65,-0.02 9.31,-0.13 13.96,-0.22 z"
       id="path59"
       inkscape:connector-curvature="0"
       style="opacity:0.68000034;fill:#989898" />
    <path
       d="m 452.03,411.89 c 1.26,2.14 2.65,4.21 4.03,6.29 4.64,0.09 9.29,0.2 13.94,0.22 34.34,-0.06 68.67,0 103,-0.02 9,0.04 18,0.06 27,-0.21 v 0.73 c -14.67,-0.3 -29.33,-0.1 -44,-0.15 -32.04,0.05 -64.09,-0.12 -96.13,0.11 -1.41,-0.08 -2.84,-0.15 -4.18,-0.59 -1.64,-1.86 -2.54,-4.21 -3.66,-6.38 z"
       id="path61"
       inkscape:connector-curvature="0"
       style="opacity:0.68000034;fill:#989898" />
  </g>
</svg>
