<?xml version="1.0" encoding="utf-8"?>
<!-- Generator: Adobe Illustrator 23.0.3, SVG Export Plug-In . SVG Version: 6.00 Build 0)  -->
<svg version="1.1" id="Layer_1" xmlns="http://www.w3.org/2000/svg" xmlns:xlink="http://www.w3.org/1999/xlink" x="0px" y="0px"
	 width="64px" height="64px" viewBox="0 0 64 64" enable-background="new 0 0 64 64" xml:space="preserve">
<path fill-rule="evenodd" clip-rule="evenodd" fill="#EE3A44" d="M8.035,39.83c0-0.046,0-0.09,0-0.135c4.261,0,8.523,0,12.828,0
	c3.432-10.643,6.846-21.231,10.26-31.819c0.848,2.426,1.737,4.838,2.537,7.279c2.674,8.17,5.317,16.35,7.976,24.539
	c4.317,0,8.563,0,12.809,0c0,0.046,0,0.09,0,0.135c-0.262,0.152-0.541,0.281-0.786,0.458C42.77,48.19,31.883,56.095,20.996,64
	c-0.003-0.095-0.005-0.19-0.008-0.286c1.218-3.814,2.436-7.627,3.654-11.441c-0.004-0.147-0.007-0.294-0.011-0.441
	C19.1,47.832,13.567,43.83,8.035,39.83z M25.022,51.408c-0.044,0.11-0.088,0.22-0.199,0.502c0.221-0.189,0.299-0.256,0.377-0.323
	c2.015-1.454,4.03-2.908,6.042-4.359c2.042,1.477,4.041,2.923,6.04,4.367c0.081,0.064,0.162,0.127,0.395,0.31
	c-0.125-0.281-0.171-0.384-0.217-0.487c-0.755-2.361-1.51-4.721-2.262-7.073c2.113-1.542,4.164-3.037,6.384-4.657
	c-2.78,0-5.332,0-7.904,0c-0.799-2.448-1.586-4.857-2.441-7.478c-0.86,2.639-1.65,5.056-2.45,7.511c-2.586,0-5.134,0-7.846,0
	c2.19,1.597,4.248,3.097,6.338,4.621C26.519,46.722,25.77,49.065,25.022,51.408z"/>
<polygon fill="#C2944F" points="19.368,12.721 20.1,10.031 17.936,8.452 23.112,10.112 23.995,12.844 21.65,9.755 19.368,12.721 "/>
<polygon fill="#E1B54F" points="21.723,9.635 17.936,8.453 20.775,8.415 21.603,9.466 21.641,5.753 21.69,5.768 22.527,8.538 
	21.723,9.635 "/>
<polygon fill="#E1B54F" points="19.368,12.721 21.662,9.675 21.66,11.162 19.326,12.85 19.368,12.721 "/>
<polygon fill="#C2944F" points="21.723,9.635 22.543,8.415 25.443,8.421 25.319,8.496 25.321,8.493 21.729,9.64 21.723,9.635 "/>
<polygon fill="#C2944F" points="21.641,5.753 21.651,9.628 20.775,8.415 21.641,5.753 "/>
<polygon fill="#A47C4D" points="21.66,11.162 21.662,9.675 23.891,12.766 21.66,11.162 "/>
<polygon fill="#A47C4D" points="21.729,9.64 25.321,8.493 23.112,10.112 21.729,9.64 "/>
<polygon fill="#A47C4D" points="25.319,8.496 25.349,8.484 25.319,8.496 "/>
<polygon fill="#C2944F" points="28.919,7.278 29.651,4.588 27.487,3.01 32.663,4.669 33.546,7.401 31.201,4.313 28.919,7.278 "/>
<polygon fill="#E1B54F" points="31.274,4.192 27.487,3.01 30.326,2.972 31.154,4.023 31.192,0.31 31.241,0.325 32.078,3.095 
	31.274,4.192 "/>
<polygon fill="#E1B54F" points="28.919,7.278 31.213,4.232 31.211,5.719 28.877,7.408 28.919,7.278 "/>
<polygon fill="#C2944F" points="31.274,4.192 32.094,2.972 34.994,2.978 34.869,3.053 34.872,3.05 31.28,4.197 31.274,4.192 "/>
<polygon fill="#C2944F" points="31.192,0.31 31.201,4.186 30.326,2.972 31.192,0.31 "/>
<polygon fill="#A47C4D" points="31.211,5.719 31.213,4.232 33.442,7.323 31.211,5.719 "/>
<polygon fill="#A47C4D" points="31.28,4.197 34.872,3.05 32.663,4.669 31.28,4.197 "/>
<polygon fill="#A47C4D" points="34.869,3.053 34.899,3.041 34.869,3.053 "/>
<polygon fill="#C2944F" points="38.034,12.447 38.765,9.757 36.602,8.178 41.778,9.838 42.66,12.57 40.316,9.481 38.034,12.447 "/>
<polygon fill="#E1B54F" points="40.388,9.361 36.602,8.178 39.44,8.141 40.268,9.192 40.307,5.478 40.355,5.494 41.192,8.263 
	40.388,9.361 "/>
<polygon fill="#E1B54F" points="38.034,12.447 40.327,9.401 40.325,10.888 37.991,12.576 38.034,12.447 "/>
<polygon fill="#C2944F" points="40.388,9.361 41.209,8.141 44.109,8.147 43.984,8.222 43.986,8.218 40.395,9.366 40.388,9.361 "/>
<polygon fill="#C2944F" points="40.307,5.478 40.316,9.354 39.44,8.141 40.307,5.478 "/>
<polygon fill="#A47C4D" points="40.325,10.888 40.327,9.401 42.557,12.491 40.325,10.888 "/>
<polygon fill="#A47C4D" points="40.395,9.366 43.986,8.218 41.778,9.838 40.395,9.366 "/>
<polygon fill="#A47C4D" points="43.984,8.222 44.014,8.21 43.984,8.222 "/>
</svg>
