<?xml version="1.0" encoding="UTF-8" standalone="no"?>
<svg
   xmlns:dc="http://purl.org/dc/elements/1.1/"
   xmlns:cc="http://creativecommons.org/ns#"
   xmlns:rdf="http://www.w3.org/1999/02/22-rdf-syntax-ns#"
   xmlns:svg="http://www.w3.org/2000/svg"
   xmlns="http://www.w3.org/2000/svg"
   xmlns:sodipodi="http://sodipodi.sourceforge.net/DTD/sodipodi-0.dtd"
   xmlns:inkscape="http://www.inkscape.org/namespaces/inkscape"
   width="64"
   height="64"
   viewBox="0 0 48.000001 47.999999"
   version="1.1"
   id="svg48"
   sodipodi:docname="atk.svg"
   inkscape:version="0.92.3 (2405546, 2018-03-11)">
  <metadata
     id="metadata54">
    <rdf:RDF>
      <cc:Work
         rdf:about="">
        <dc:format>image/svg+xml</dc:format>
        <dc:type
           rdf:resource="http://purl.org/dc/dcmitype/StillImage" />
        <dc:title></dc:title>
      </cc:Work>
    </rdf:RDF>
  </metadata>
  <defs
     id="defs52" />
  <sodipodi:namedview
     pagecolor="#ffffff"
     bordercolor="#666666"
     borderopacity="1"
     objecttolerance="10"
     gridtolerance="10"
     guidetolerance="10"
     inkscape:pageopacity="0"
     inkscape:pageshadow="2"
     inkscape:window-width="1920"
     inkscape:window-height="1017"
     id="namedview50"
     showgrid="false"
     units="px"
     inkscape:pagecheckerboard="true"
     inkscape:zoom="4.8332163"
     inkscape:cx="93.660583"
     inkscape:cy="54.543297"
     inkscape:window-x="-8"
     inkscape:window-y="-8"
     inkscape:window-maximized="1"
     inkscape:current-layer="svg48" />
  <g
     id="#c1272dff"
     transform="matrix(0.08340428,0,0,0.08340428,-1.9733439,13.618895)">
    <path
       d="m 109.44,21.16 c 6.52,-0.15 13.04,-0.24 19.56,-0.18 26.68,0.1 53.36,-0.1 80.03,0.1 2.12,28.95 4.13,57.9 6.28,86.85 0.36,5.3 0.75,10.61 1.42,15.88 -21.97,-0.13 -43.93,-0.06 -65.9,-0.03 -0.94,-14.95 -1.08,-29.93 -1.9,-44.88 -5.82,14.9 -11.7,29.78 -17.47,44.7 -21.51,0.3 -43.02,0.11 -64.53,0.1 5.15,-13.22 10.93,-26.18 16.27,-39.33 8.62,-21.12 17.69,-42.06 26.24,-63.21 z"
       id="path33"
       inkscape:connector-curvature="0"
       style="opacity:1;fill:#c1272d" />
    <path
       d="M 254.59,21.16 C 268.06,20.81 281.53,21.08 295,21 c 37.72,0.08 75.45,-0.16 113.18,0.11 -2.94,18 -6.16,35.94 -9.23,53.9 -15.22,0.06 -30.44,-0.17 -45.65,0.11 -2.71,16.21 -5.44,32.41 -8.42,48.56 -22,0.11 -44,0.09 -66,0.02 2.51,-16.27 5.54,-32.45 8.09,-48.71 -13.78,-0.03 -27.56,0.11 -41.34,-0.06 2.74,-17.97 6.29,-35.8 8.96,-53.77 z"
       id="path35"
       inkscape:connector-curvature="0"
       style="opacity:1;fill:#c1272d" />
    <path
       d="m 432.52,21.15 c 21.21,-0.3 42.42,-0.15 63.62,-0.08 -2.64,16.92 -5.73,33.76 -8.58,50.64 -1.52,9.15 -3.46,18.24 -4.57,27.46 7.79,-11.79 14.64,-24.18 21.95,-36.26 7.01,-11.98 14.32,-23.78 21.15,-35.86 1.24,-2.01 2.38,-4.23 4.33,-5.66 2.12,-0.51 4.32,-0.46 6.49,-0.49 20.75,0.25 41.5,-0.03 62.26,0.15 -20.5,32.82 -41.38,65.41 -61.87,98.23 -0.93,1.36 -1.87,2.76 -3.16,3.82 -1.59,0.66 -3.36,0.62 -5.04,0.72 -38.01,-0.13 -76.02,-0.11 -114.03,-0.02 5.48,-34.27 12,-68.37 17.45,-102.65 z"
       id="path37"
       inkscape:connector-curvature="0"
       style="opacity:1;fill:#c1272d" />
    <path
       d="m 60.09,139.87 c 6.3,-0.09 12.6,-0.19 18.91,-0.16 46.22,0.14 92.44,-0.14 138.66,0.14 1.98,29.37 4.17,58.73 6.28,88.09 -23.07,0.09 -46.14,0.12 -69.21,-0.01 -0.6,-10.88 -0.8,-21.77 -1.48,-32.64 -16.66,-0.04 -33.32,-0.09 -49.98,0.03 -4.28,10.81 -8.53,21.64 -12.66,32.52 -6.2,0.15 -12.41,0.21 -18.61,0.19 -16.11,-0.18 -32.23,0.21 -48.34,-0.19 2.09,-6.12 4.58,-12.08 7.16,-18 9.81,-23.3 19.4,-46.69 29.27,-69.97 z"
       id="path39"
       inkscape:connector-curvature="0"
       style="opacity:1;fill:#c1272d" />
    <path
       d="m 275.7,140.06 c 10.42,-0.6 20.86,-0.23 31.3,-0.32 11.71,0.07 23.42,-0.17 35.13,0.16 -4.8,29.34 -10.28,58.57 -14.96,87.93 -22.08,0.39 -44.18,0.06 -66.27,0.18 4.55,-29.38 10.35,-58.56 14.8,-87.95 z"
       id="path41"
       inkscape:connector-curvature="0"
       style="opacity:1;fill:#c1272d" />
    <path
       d="m 412.16,139.84 c 21.14,-0.16 42.28,-0.19 63.42,0.02 -4.58,29.4 -10.13,58.64 -14.96,88 -21.19,0.33 -42.38,0.03 -63.56,0.17 4.93,-29.42 10.18,-58.77 15.1,-88.19 z"
       id="path43"
       inkscape:connector-curvature="0"
       style="opacity:1;fill:#c1272d" />
    <path
       d="m 476.26,139.79 c 21.56,-0.05 43.12,-0.17 64.67,0.07 8.41,29.35 16.87,58.68 25.13,88.07 -22.86,0.05 -45.71,0.26 -68.56,-0.11 -6.87,-29.39 -14.2,-58.67 -21.24,-88.03 z"
       id="path45"
       inkscape:connector-curvature="0"
       style="opacity:1;fill:#c1272d" />
  </g>
</svg>
