<?xml version="1.0" encoding="UTF-8" standalone="no"?>
<svg
   xmlns:dc="http://purl.org/dc/elements/1.1/"
   xmlns:cc="http://creativecommons.org/ns#"
   xmlns:rdf="http://www.w3.org/1999/02/22-rdf-syntax-ns#"
   xmlns:svg="http://www.w3.org/2000/svg"
   xmlns="http://www.w3.org/2000/svg"
   xmlns:sodipodi="http://sodipodi.sourceforge.net/DTD/sodipodi-0.dtd"
   xmlns:inkscape="http://www.inkscape.org/namespaces/inkscape"
   width="64"
   height="64"
   viewBox="0 0 48 48"
   version="1.1"
   id="svg48"
   sodipodi:docname="atk.svg"
   inkscape:version="0.92.3 (2405546, 2018-03-11)">
  <metadata
     id="metadata54">
    <rdf:RDF>
      <cc:Work
         rdf:about="">
        <dc:format>image/svg+xml</dc:format>
        <dc:type
           rdf:resource="http://purl.org/dc/dcmitype/StillImage" />
        <dc:title></dc:title>
      </cc:Work>
    </rdf:RDF>
  </metadata>
  <defs
     id="defs52" />
  <sodipodi:namedview
     pagecolor="#ffffff"
     bordercolor="#666666"
     borderopacity="1"
     objecttolerance="10"
     gridtolerance="10"
     guidetolerance="10"
     inkscape:pageopacity="0"
     inkscape:pageshadow="2"
     inkscape:window-width="1920"
     inkscape:window-height="1017"
     id="namedview50"
     showgrid="false"
     units="px"
     inkscape:pagecheckerboard="true"
     inkscape:zoom="2.12"
     inkscape:cx="119.43362"
     inkscape:cy="-64.556992"
     inkscape:window-x="-8"
     inkscape:window-y="-8"
     inkscape:window-maximized="1"
     inkscape:current-layer="svg48" />
  <g
     id="#c1272dff"
     transform="matrix(0.08687783,0,0,0.08687783,-2.0590051,-2.0624003)">
    <path
       d="m 105.96,200.72 c 31.86,-0.18 63.73,-0.01 95.59,-0.09 1.04,10.79 1.69,21.59 2.32,32.41 1.84,22.09 3,44.26 5.04,66.36 -21.06,-0.04 -42.12,-0.01 -63.19,-0.02 -0.56,-12.45 -1.11,-24.9 -1.45,-37.36 -0.05,-1.96 -0.49,-3.86 -0.82,-5.77 -0.8,3.98 -2.62,7.63 -4.04,11.41 -4.13,10.54 -8.28,21.08 -12.25,31.68 -20.67,0.1 -41.35,0.02 -62.02,0.04 4.36,-11.43 9.47,-22.57 14.07,-33.9 8.25,-20.29 16.78,-40.47 25.31,-60.64 0.57,-1.35 1.03,-2.73 1.44,-4.12 z"
       id="path33"
       inkscape:connector-curvature="0"
       style="opacity:1;fill:#c1272d" />
    <path
       d="m 236.57,252.42 c 3.15,-17.24 5.99,-34.53 9.09,-51.78 49.06,0.02 98.12,-0.02 147.17,0.02 -2.66,17.31 -6.02,34.5 -8.81,51.79 -14.58,0.04 -29.16,0.06 -43.73,-0.01 -2.76,15.64 -5.57,31.27 -8.2,46.94 -21.15,0.01 -42.3,0 -63.45,0 2.63,-15.64 5.27,-31.28 7.94,-46.91 -13.34,-0.02 -26.67,0.07 -40.01,-0.05 z"
       id="path35"
       inkscape:connector-curvature="0"
       style="opacity:1;fill:#c1272d" />
    <path
       d="m 416.53,200.62 c 20.31,0.07 40.62,-0.01 60.94,0.05 -3.2,16.36 -5.65,32.86 -8.61,49.26 -1.35,8.92 -3.25,17.76 -4.4,26.71 15.06,-25.36 30.05,-50.75 45.23,-76.03 22.17,0.11 44.34,-0.04 66.51,0.08 -20.67,32.91 -41.57,65.68 -62.19,98.63 -38.23,0.16 -76.47,0.01 -114.7,0.07 5.57,-32.95 11.38,-65.87 17.22,-98.77 z"
       id="path37"
       inkscape:connector-curvature="0"
       style="opacity:1;fill:#c1272d" />
    <path
       d="m 24.81,395.74 c 11.31,-27.04 22.46,-54.16 33.97,-81.13 50.31,0.09 100.62,0.01 150.94,0.04 2.2,28.22 4.11,56.48 6.19,84.71 -22.15,-0.02 -44.3,-0.01 -66.45,0 -0.13,-10.37 -1.16,-20.7 -0.99,-31.07 -1.13,-0.31 -2.27,-0.49 -3.44,-0.54 -14.82,-0.02 -29.65,0.13 -44.47,-0.07 -4.66,10.32 -8.69,20.95 -12.58,31.59 -21.43,0.16 -42.86,0.09 -64.28,0.03 0.33,-1.2 0.7,-2.39 1.11,-3.56 z"
       id="path39"
       inkscape:connector-curvature="0"
       style="opacity:1;fill:#c1272d" />
    <path
       d="m 254.08,383.02 c 3.83,-22.8 7.92,-45.56 11.79,-68.35 21.21,-0.03 42.42,-0.01 63.63,-0.01 -1.49,8.48 -3.18,16.94 -4.27,25.49 l -0.48,0.68 c -2.77,19.56 -6.7,38.96 -9.75,58.48 -21.23,0.09 -42.46,0.02 -63.69,0.04 0.91,-5.45 1.8,-10.9 2.77,-16.33 z"
       id="path41"
       inkscape:connector-curvature="0"
       style="opacity:1;fill:#c1272d" />
    <path
       d="m 396.16,318.07 c 0.16,-1.14 0.31,-2.27 0.47,-3.4 20.4,-0.03 40.8,-0.02 61.2,-0.01 -3.76,20.43 -7.24,40.9 -10.75,61.37 -1.29,7.76 -2.83,15.48 -3.84,23.28 -20.39,0.08 -40.79,0.04 -61.18,0.02 4.33,-24.79 8.76,-49.57 12.84,-74.41 0.49,-2.27 0.78,-4.58 1.26,-6.85 z"
       id="path43"
       inkscape:connector-curvature="0"
       style="opacity:1;fill:#c1272d" />
    <path
       d="m 457.99,314.54 c 20.74,0.25 41.49,0.05 62.23,0.11 6.01,20.97 12.14,41.91 17.99,62.93 2.23,7.2 3.83,14.59 6.29,21.72 -21.93,0.12 -43.86,0.02 -65.79,0.05 -7.13,-28.22 -13.35,-56.66 -20.72,-84.81 z"
       id="path45"
       inkscape:connector-curvature="0"
       style="opacity:1;fill:#c1272d" />
  </g>
</svg>
