<?xml version="1.0" encoding="utf-8"?>
<!-- Generator: Adobe Illustrator 22.0.0, SVG Export Plug-In . SVG Version: 6.00 Build 0)  -->
<svg version="1.1" id="Camada_1" xmlns="http://www.w3.org/2000/svg" xmlns:xlink="http://www.w3.org/1999/xlink" x="0px" y="0px"
	 width="64px" height="64px" viewBox="0 0 64 64" style="enable-background:new 0 0 64 64;" xml:space="preserve">
<g>
	<g>
		<path style="fill:#00C7B2;" d="M0,59.621c0.095-0.003,0.102-0.09,0.135-0.147c0.999-1.724,1.996-3.448,2.993-5.173
			c0.357-0.618,0.718-1.234,1.069-1.856c0.069-0.122,0.143-0.187,0.285-0.164c0.049,0.008,0.1,0.001,0.15,0.001
			c15.422,0,30.844,0,46.266,0c0.092,0,0.185,0,0.27,0c0.049-0.074-0.002-0.119-0.028-0.165c-0.419-0.724-0.84-1.446-1.257-2.171
			c-0.098-0.171-0.224-0.327-0.286-0.518c0.058-0.134,0.178-0.096,0.279-0.096c2.724-0.001,5.448-0.001,8.172-0.001
			c0.227,0.329,0.41,0.685,0.61,1.03c1.746,3.016,3.49,6.033,5.233,9.051c0.041,0.072,0.096,0.139,0.108,0.229
			c-0.078,0.031-0.149,0.019-0.217,0.019c-21.175,0.001-42.351,0.001-63.526,0.001c-0.085,0-0.171,0.002-0.256,0.003
			C0,59.649,0,59.635,0,59.621z"/>
		<path style="fill:#00C2D0;" d="M34.751,23.776c-0.299-0.518-0.597-1.037-0.897-1.555c-0.359-0.62-0.718-1.239-1.078-1.858
			c-0.241-0.416-0.483-0.833-0.723-1.247c-0.079,0.014-0.118,0.063-0.149,0.12c-0.201,0.362-0.42,0.715-0.618,1.078
			c-1.018,1.867-2.123,3.683-3.172,5.531c-0.049,0.086-0.089,0.179-0.16,0.251c-0.164,0.013-0.321-0.047-0.486-0.047
			c-2.666,0.005-5.331,0.003-7.997,0.003c0.208-0.366,0.413-0.733,0.624-1.097c1.614-2.794,3.229-5.587,4.844-8.38
			c0.042-0.073,0.073-0.155,0.138-0.214c4.63,0,9.259,0.001,13.889,0.001c0.05,0.049,0.098,0.098,0.134,0.161
			c1.36,2.357,2.722,4.712,4.083,7.068c0.01,0.018,0.016,0.039,0.023,0.059c-0.108,0.045-0.222,0.043-0.336,0.043
			c-2.604-0.001-5.208,0-7.812,0c-0.064,0-0.128,0.001-0.193,0.002C34.81,23.697,34.772,23.725,34.751,23.776z"/>
		<path style="fill:#00C5BE;" d="M34.926,40.029c0.181,0.306,0.364,0.611,0.542,0.919c0.717,1.238,1.433,2.477,2.149,3.716
			c0.039,0.067,0.089,0.129,0.106,0.208c-0.1,0.001-0.2,0.002-0.3,0.002c-9.502,0-19.004,0-28.506,0c-0.064,0-0.129,0-0.193,0
			c-0.044,0-0.086-0.005-0.114-0.045c0.298-0.557,0.626-1.096,0.941-1.643c0.401-0.694,0.802-1.388,1.203-2.082
			c0.224-0.386,0.449-0.772,0.673-1.158c0.024,0.062,0.073,0.083,0.136,0.083c0.071,0,0.143,0.001,0.214,0.001
			C19.494,40.028,27.21,40.029,34.926,40.029z"/>
		<path style="fill:#00C5BD;" d="M58.049,49.331c-2.724,0-5.448,0-8.172,0.001c-0.101,0-0.221-0.038-0.279,0.096
			c-0.188-0.25-0.321-0.532-0.477-0.8c-0.591-1.018-1.175-2.039-1.765-3.057c-0.635-1.097-1.272-2.192-1.909-3.288
			c-0.558-0.961-1.119-1.921-1.673-2.884c-0.31-0.54-0.612-1.085-0.938-1.616c-0.014-0.023-0.015-0.055-0.023-0.082
			c0.017-0.068,0.048-0.118,0.129-0.115c0.064,0.002,0.128,0,0.192,0c2.58,0,5.161,0,7.741,0.001c0.122,0,0.241-0.003,0.357-0.044
			c0.228,0.337,0.417,0.697,0.621,1.048c2.038,3.523,4.075,7.046,6.111,10.57C57.997,49.215,58.04,49.265,58.049,49.331z"/>
		<path style="fill:#01C0D7;" d="M38.966,16.363c-4.63,0-9.259-0.001-13.889-0.001c0.035-0.118,0.11-0.215,0.17-0.32
			c2.218-3.84,4.438-7.679,6.658-11.518c0.035-0.061,0.061-0.129,0.13-0.188c0.05,0.037,0.073,0.096,0.102,0.147
			c1.834,3.171,3.667,6.343,5.501,9.515c0.415,0.717,0.83,1.434,1.243,2.152C38.919,16.216,38.983,16.274,38.966,16.363z"/>
		<path style="fill:#01C4C2;" d="M34.926,40.029c-7.716,0-15.432,0-23.148,0c-0.071,0-0.143-0.001-0.214-0.001
			c-0.062,0-0.112-0.02-0.136-0.083c0.273-0.474,0.547-0.948,0.82-1.421c0.779-1.348,1.558-2.696,2.338-4.043
			c0.032-0.055,0.054-0.117,0.106-0.159c0.1,0.002,0.2,0.004,0.3,0.004c2.593,0,5.185,0,7.778-0.001c0.136,0,0.271,0.002,0.4,0.05
			c-0.037,0.094-0.088,0.178-0.146,0.26c-0.182,0.259-0.337,0.536-0.49,0.812c-0.217,0.393-0.442,0.783-0.666,1.172
			c-0.163,0.282-0.279,0.588-0.493,0.861c0.106,0.051,0.191,0.035,0.272,0.035c2.494,0,4.987,0,7.481-0.001
			c1.379,0,2.758,0.003,4.137-0.004c0.166-0.001,0.253,0.049,0.334,0.194c0.414,0.734,0.841,1.461,1.262,2.191
			C34.886,39.938,34.905,39.984,34.926,40.029z"/>
		<path style="fill:#00C3C5;" d="M51.233,37.541c-0.116,0.041-0.236,0.044-0.357,0.044c-2.58-0.001-5.161-0.001-7.741-0.001
			c-0.064,0-0.128,0.003-0.192,0c-0.081-0.003-0.112,0.047-0.129,0.115c-0.137-0.232-0.275-0.464-0.411-0.698
			c-0.6-1.028-1.201-2.055-1.797-3.084c-0.497-0.857-0.986-1.719-1.482-2.577c-0.343-0.595-0.692-1.186-1.037-1.78
			c-0.028-0.048-0.065-0.094-0.064-0.154c0.107-0.107,0.245-0.096,0.379-0.096c2.691,0,5.382,0,8.073-0.001
			c0.124,0.158,0.21,0.339,0.31,0.511c1.463,2.528,2.925,5.057,4.387,7.586C51.195,37.449,51.212,37.496,51.233,37.541z"/>
		<path style="fill:#00C3C8;" d="M23.17,34.375c-0.13-0.048-0.264-0.05-0.4-0.05c-2.593,0.001-5.185,0.001-7.778,0.001
			c-0.1,0-0.2-0.003-0.3-0.004c0.212-0.421,0.461-0.821,0.697-1.228c1.32-2.288,2.644-4.575,3.966-6.862
			c0.036-0.062,0.077-0.12,0.115-0.18c2.666,0,5.331,0.001,7.997-0.003c0.166,0,0.322,0.059,0.486,0.047
			c-0.025,0.139-0.139,0.226-0.204,0.342c-0.236,0.423-0.491,0.836-0.735,1.255c-0.187,0.322-0.352,0.657-0.552,0.969
			c-0.257,0.403-0.472,0.829-0.72,1.238c-0.196,0.323-0.38,0.655-0.566,0.986c-0.45,0.804-0.91,1.602-1.369,2.401
			C23.601,33.652,23.384,34.013,23.17,34.375z"/>
		<path style="fill:#00C2CB;" d="M46.474,29.31c-2.691,0-5.382,0-8.073,0.001c-0.135,0-0.272-0.011-0.379,0.096
			c-0.186-0.25-0.32-0.532-0.476-0.8c-0.568-0.971-1.134-1.943-1.697-2.917c-0.369-0.637-0.732-1.276-1.098-1.915
			c0.021-0.051,0.059-0.079,0.115-0.079c0.064-0.001,0.128-0.002,0.193-0.002c2.604,0,5.208,0,7.812,0
			c0.114,0,0.228,0.002,0.336-0.043c0.238,0.405,0.478,0.808,0.714,1.215c0.828,1.43,1.654,2.86,2.48,4.291
			C46.429,29.206,46.468,29.25,46.474,29.31z"/>
		<path style="fill:#53E6E2;" d="M8.61,44.827c0.028,0.04,0.07,0.045,0.114,0.045c0.064,0,0.129,0,0.193,0
			c9.502,0,19.004,0,28.506,0c0.1,0,0.2-0.001,0.3-0.002c-0.01,0.032-0.033,0.043-0.064,0.043c-0.064,0.001-0.129,0.002-0.193,0.002
			c-9.546,0-19.091,0-28.637,0c-0.071,0-0.144,0.004-0.213-0.009C8.568,44.897,8.578,44.857,8.61,44.827z"/>
	</g>
</g>
<g>
	<g>
		<path style="fill:#00C7B2;" d="M0,59.616c0.095-0.003,0.102-0.09,0.135-0.147c1.013-1.748,2.024-3.498,3.036-5.247
			c0.143-0.247,0.291-0.49,0.437-0.735c0.098,0.063,0.208,0.04,0.313,0.04c18.733,0.001,37.466,0.001,56.199,0.001
			c0.057,0,0.114,0.003,0.171-0.001c0.074-0.005,0.141,0.015,0.208,0.041c0.272,0.411,0.502,0.846,0.749,1.271
			c0.886,1.525,1.767,3.053,2.649,4.581c0.038,0.066,0.086,0.129,0.101,0.208c-0.059,0.044-0.117,0.022-0.171,0.027
			c-0.05,0.004-0.1,0.001-0.15,0.001c-21.105,0-42.21,0-63.316,0c-0.121,0-0.242,0.002-0.363,0.003C0,59.645,0,59.631,0,59.616z"/>
		<path style="fill:#00C5BD;" d="M35.32,40.711c0.196,0.29,0.359,0.6,0.534,0.902c0.588,1.013,1.174,2.027,1.76,3.041
			c0.039,0.067,0.075,0.136,0.11,0.2c-0.009,0.016-0.012,0.023-0.016,0.028c-0.004,0.005-0.01,0.012-0.015,0.012
			c-9.694,0.001-19.389,0.001-29.082,0.001c-0.037-0.048,0-0.082,0.02-0.117c0.779-1.348,1.558-2.695,2.338-4.043
			c0.014-0.024,0.034-0.045,0.052-0.067c0.073,0.111,0.186,0.084,0.29,0.084c6.692,0,13.383,0,20.075,0c1.221,0,2.442,0,3.664,0
			C35.142,40.753,35.237,40.767,35.32,40.711z"/>
		<path style="fill:#00C6B6;" d="M60.5,53.569c-0.067-0.026-0.135-0.046-0.208-0.041c-0.057,0.004-0.114,0.001-0.171,0.001
			c-18.733,0-37.466,0-56.199-0.001c-0.105,0-0.215,0.023-0.313-0.04c0.192-0.383,0.426-0.742,0.632-1.117
			c0.041-0.074,0.096-0.097,0.174-0.093c0.064,0.004,0.129,0.001,0.193,0.001c15.443,0,30.886,0,46.33-0.001
			c0.084,0,0.17,0.014,0.275-0.018c-0.14-0.26-0.278-0.514-0.415-0.768c-0.002-0.028-0.014-0.05-0.038-0.064l0,0
			c-0.001-0.037-0.009-0.069-0.048-0.085c0,0,0.002,0.003,0.002,0.003c0.002-0.039-0.004-0.074-0.049-0.087
			c0,0,0.005,0.005,0.005,0.005c-0.012-0.017-0.024-0.035-0.035-0.052c0,0-0.001-0.002-0.001-0.002
			c-0.002-0.035-0.011-0.066-0.047-0.082c0,0,0.001,0.002,0.001,0.002c0-0.038-0.006-0.072-0.048-0.086c0,0,0.002,0.003,0.002,0.003
			c0.002-0.04-0.003-0.075-0.05-0.087c0,0,0.005,0.005,0.005,0.005c-0.002-0.024-0.014-0.042-0.036-0.053l-0.001-0.001
			c-0.002-0.036-0.01-0.068-0.047-0.083c0,0,0.001,0.002,0.001,0.002c0.001-0.038-0.005-0.073-0.048-0.087
			c0,0,0.004,0.005,0.004,0.005c-0.012-0.017-0.023-0.034-0.035-0.051c0,0-0.002-0.004-0.002-0.004
			c-0.003-0.034-0.012-0.064-0.045-0.081l0,0c-0.001-0.036-0.009-0.069-0.047-0.084c0,0,0.002,0.003,0.002,0.003
			c0.001-0.039-0.005-0.074-0.05-0.086c0,0,0.005,0.005,0.005,0.005c-0.012-0.017-0.024-0.035-0.035-0.052
			c0,0-0.001-0.002-0.001-0.002c-0.002-0.035-0.011-0.066-0.046-0.082c0,0,0.001,0.001,0.001,0.001c0-0.037-0.008-0.07-0.048-0.085
			c0,0,0.002,0.003,0.002,0.003c0.002-0.04-0.004-0.075-0.049-0.087c0,0,0.005,0.005,0.005,0.005
			c-0.012-0.018-0.024-0.035-0.035-0.053c0,0-0.001-0.002-0.001-0.002c-0.002-0.035-0.011-0.067-0.047-0.082
			c0,0,0.001,0.002,0.001,0.002c0.001-0.038-0.006-0.072-0.048-0.086c0,0,0.003,0.004,0.003,0.004
			c0.003-0.04-0.002-0.076-0.05-0.087c0,0,0.005,0.005,0.005,0.005c-0.002-0.025-0.014-0.042-0.036-0.053l0,0
			c-0.001-0.036-0.01-0.068-0.047-0.084c0,0,0.002,0.002,0.002,0.002c0.001-0.039-0.005-0.073-0.049-0.086
			c0,0,0.004,0.005,0.004,0.005c-0.012-0.017-0.024-0.034-0.035-0.052l-0.001-0.003c-0.003-0.034-0.011-0.065-0.046-0.081l0,0.001
			c0-0.037-0.008-0.07-0.047-0.085c0,0,0,0.002,0,0.002c0.077-0.08,0.175-0.045,0.264-0.045c2.267-0.002,4.535,0,6.802-0.003
			c0.462-0.001,0.925,0.036,1.385-0.041c0.201,0.287,0.359,0.599,0.534,0.9c0.621,1.068,1.238,2.137,1.856,3.207
			C60.463,53.477,60.48,53.524,60.5,53.569z"/>
		<path style="fill:#00C4C1;" d="M35.32,40.711c-0.084,0.055-0.178,0.042-0.27,0.042c-1.221,0-2.442,0-3.664,0
			c-6.692,0-13.383,0-20.075,0c-0.104,0-0.218,0.027-0.29-0.084c-0.002-0.023,0.005-0.04,0.028-0.048
			c0.025-0.003,0.047-0.007,0.02-0.038c0.192-0.382,0.42-0.743,0.632-1.113c0.55-0.957,1.104-1.912,1.657-2.868
			c0.028-0.049,0.063-0.093,0.095-0.14c0.116,0.037,0.235,0.049,0.357,0.047c0.335-0.004,0.67-0.001,1.006-0.001
			c2.282,0,4.565,0,6.847,0.001c0.082,0,0.173-0.033,0.243,0.041c0,0,0,0,0,0c-0.022,0.011-0.034,0.028-0.036,0.053
			c0,0,0.005-0.006,0.005-0.006c-0.047,0.011-0.053,0.047-0.05,0.087c0,0,0.003-0.004,0.003-0.004
			c-0.042,0.014-0.049,0.048-0.048,0.086c0,0,0.001-0.002,0.001-0.002c-0.036,0.016-0.045,0.047-0.047,0.083
			c0,0-0.001,0.002-0.001,0.002c-0.012,0.017-0.024,0.035-0.036,0.052c0,0,0.005-0.005,0.005-0.005
			c-0.045,0.013-0.051,0.048-0.049,0.087c0,0,0.002-0.003,0.002-0.003c-0.04,0.015-0.048,0.048-0.048,0.086
			c0,0,0.001-0.001,0.001-0.001c-0.064,0.026-0.091,0.073-0.083,0.141c-0.042,0.089-0.084,0.177-0.132,0.28
			c0.088,0.04,0.173,0.024,0.254,0.024c3.022,0,6.044,0,9.066-0.001c0.857,0,1.715,0.004,2.572-0.003
			c0.148-0.001,0.227,0.047,0.301,0.176c0.548,0.961,1.106,1.918,1.66,2.876C35.274,40.608,35.296,40.661,35.32,40.711z"/>
		<path style="fill:#00C1D3;" d="M37.851,14.389c0.207,0.3,0.373,0.624,0.556,0.938c0.671,1.154,1.338,2.312,2.005,3.468
			c0.025,0.043,0.042,0.09,0.063,0.134c-0.086,0.001-0.171,0.001-0.257,0.001c-5.439,0-10.879,0-16.318,0
			c-0.114,0-0.229-0.008-0.337,0.04c0.219-0.433,0.476-0.844,0.718-1.264c0.621-1.082,1.248-2.161,1.873-3.241
			c0.025-0.043,0.056-0.081,0.085-0.121c0.061,0.092,0.153,0.085,0.247,0.085c3.712-0.001,7.424-0.001,11.136,0
			C37.702,14.431,37.78,14.433,37.851,14.389z"/>
		<path style="fill:#00C6B9;" d="M58.048,49.327c-0.46,0.078-0.923,0.041-1.385,0.041c-2.267,0.004-4.535,0.001-6.802,0.003
			c-0.088,0-0.187-0.035-0.264,0.045c-0.178-0.248-0.314-0.521-0.468-0.783c-0.305-0.52-0.605-1.043-0.906-1.566
			c-0.032-0.055-0.074-0.105-0.084-0.17c-0.012-0.019-0.024-0.038-0.036-0.058c0,0-0.001-0.003-0.001-0.003
			c-0.003-0.034-0.011-0.065-0.046-0.082c0,0,0,0.001,0,0.001c0-0.037-0.008-0.07-0.047-0.085c0,0,0.002,0.003,0.002,0.003
			c0.002-0.039-0.004-0.074-0.05-0.086c0,0,0.005,0.005,0.005,0.005c-0.012-0.017-0.024-0.035-0.036-0.052
			c0,0-0.001-0.002-0.001-0.002c-0.002-0.035-0.01-0.067-0.046-0.083c0,0,0.001,0.002,0.001,0.002c0-0.038-0.006-0.072-0.048-0.086
			c0,0,0.003,0.004,0.003,0.004c0.003-0.04-0.003-0.075-0.05-0.087c0,0,0.005,0.005,0.005,0.005
			c-0.002-0.025-0.014-0.042-0.036-0.053c0,0-0.001-0.001-0.001-0.001c-0.002-0.036-0.01-0.068-0.048-0.083
			c0,0,0.002,0.002,0.002,0.002c0.001-0.039-0.005-0.073-0.049-0.086c0,0,0.003,0.004,0.003,0.004
			c0.004-0.041-0.001-0.077-0.05-0.087c0,0,0.006,0.005,0.006,0.005c-0.001-0.025-0.014-0.043-0.037-0.053l0,0
			c-0.001-0.037-0.009-0.069-0.047-0.085c0,0,0.002,0.003,0.002,0.003c0.002-0.039-0.004-0.074-0.049-0.087
			c0,0,0.005,0.005,0.005,0.005c-0.012-0.017-0.024-0.035-0.036-0.052c0,0-0.001-0.002-0.001-0.002
			c-0.002-0.035-0.011-0.066-0.047-0.082c0,0,0.001,0.002,0.001,0.002c0-0.038-0.008-0.071-0.047-0.086c0,0,0.002,0.003,0.002,0.003
			c0.002-0.04-0.004-0.075-0.05-0.087c0,0,0.005,0.005,0.005,0.005c-0.002-0.024-0.014-0.042-0.036-0.053
			c0,0-0.001-0.001-0.001-0.001c-0.002-0.036-0.01-0.067-0.047-0.083c0,0,0.001,0.002,0.001,0.002
			c0.001-0.038-0.006-0.073-0.049-0.086c0,0,0.003,0.004,0.003,0.004c0.008-0.066-0.022-0.109-0.08-0.135l0,0
			c-0.001-0.036-0.01-0.068-0.047-0.084c0,0,0.002,0.003,0.002,0.003c0.001-0.039-0.005-0.074-0.05-0.086
			c0,0,0.005,0.005,0.005,0.005c-0.012-0.017-0.023-0.035-0.035-0.052c0,0-0.001-0.003-0.001-0.003
			c-0.002-0.034-0.011-0.066-0.046-0.082l0,0.001c0.008-0.045,0.027-0.082,0.08-0.084c0.064-0.002,0.128-0.003,0.193-0.003
			c2.726-0.001,5.453-0.001,8.179-0.002c0.178,0.25,0.317,0.523,0.47,0.788c0.709,1.221,1.415,2.444,2.121,3.667
			C58.01,49.235,58.027,49.282,58.048,49.327z"/>
		<path style="fill:#00C3C8;" d="M37.646,28.75c-0.011-0.004-0.015-0.012-0.011-0.024c-0.002-0.028-0.014-0.049-0.038-0.063
			c0,0,0,0,0,0c-0.001-0.036-0.009-0.069-0.047-0.085c0,0,0.002,0.003,0.002,0.003c0.001-0.039-0.005-0.073-0.049-0.086
			c0,0,0.004,0.005,0.004,0.005c-0.012-0.017-0.024-0.034-0.036-0.052c0,0-0.001-0.003-0.001-0.003
			c-0.002-0.035-0.011-0.066-0.046-0.082c0,0,0.001,0.001,0.001,0.001c0-0.037-0.008-0.07-0.047-0.086c0,0,0.002,0.003,0.002,0.003
			c0.002-0.04-0.004-0.074-0.05-0.087c0,0,0.005,0.005,0.005,0.005c-0.012-0.018-0.024-0.035-0.036-0.052
			c0,0-0.001-0.002-0.001-0.002c-0.002-0.035-0.011-0.067-0.047-0.082c0,0,0.001,0.002,0.001,0.002c0-0.038-0.006-0.072-0.049-0.086
			c0,0,0.003,0.004,0.003,0.004c0.003-0.04-0.002-0.076-0.05-0.087c0,0,0.005,0.005,0.005,0.005
			c-0.002-0.025-0.014-0.042-0.036-0.053c0,0,0-0.001,0-0.001c-0.002-0.036-0.01-0.068-0.047-0.083c0,0,0.002,0.002,0.002,0.002
			c0.001-0.039-0.005-0.073-0.049-0.086c0,0,0.004,0.005,0.004,0.005c-0.012-0.017-0.023-0.034-0.035-0.052
			c0,0-0.002-0.003-0.002-0.003c-0.003-0.034-0.011-0.065-0.046-0.081l0,0.001c0-0.037-0.009-0.07-0.048-0.085
			c0,0,0.002,0.003,0.002,0.003c0-0.082,0.025-0.139,0.123-0.134c0.057,0.003,0.114,0,0.171,0c2.591,0,5.181,0,7.772,0.001
			c0.115,0,0.228-0.003,0.337-0.042c0.196,0.289,0.358,0.598,0.533,0.899c0.637,1.097,1.272,2.195,1.906,3.294
			c0.049,0.086,0.111,0.166,0.137,0.264c-2.675,0-5.349,0-8.024,0c-0.149,0-0.297,0.003-0.428,0.09
			c-0.143-0.187-0.243-0.399-0.361-0.6c-0.298-0.508-0.591-1.02-0.885-1.53c-0.028-0.049-0.05-0.101-0.075-0.151
			c-0.003-0.034-0.011-0.064-0.045-0.08l0,0c-0.001-0.037-0.009-0.069-0.047-0.085c0,0,0.003,0.003,0.003,0.003
			c-0.011-0.015-0.021-0.031-0.032-0.046c-0.012-0.006-0.017-0.016-0.013-0.029c-0.002-0.026-0.014-0.046-0.036-0.059
			c0,0-0.001-0.002-0.001-0.002c-0.002-0.035-0.011-0.066-0.046-0.082c0,0,0.001,0.001,0.001,0.001c0-0.038-0.008-0.071-0.048-0.086
			c0,0,0.002,0.004,0.002,0.004c0.003-0.04-0.003-0.075-0.049-0.087c0,0,0.005,0.005,0.005,0.005
			c-0.002-0.024-0.014-0.041-0.036-0.053c0,0-0.001-0.002-0.001-0.002c-0.002-0.035-0.011-0.067-0.048-0.082
			c0,0,0.001,0.002,0.001,0.002c0.001-0.038-0.006-0.073-0.049-0.086c0,0,0.004,0.005,0.004,0.005
			C37.669,28.783,37.657,28.767,37.646,28.75z"/>
		<path style="fill:#00C0D7;" d="M37.851,14.389c-0.071,0.044-0.149,0.042-0.228,0.042c-3.712,0-7.424,0-11.136,0
			c-0.094,0-0.187,0.007-0.247-0.085c0.149-0.315,0.339-0.608,0.512-0.909c0.503-0.876,1.009-1.75,1.515-2.624
			c0.032-0.055,0.071-0.105,0.106-0.158c0.093,0.001,0.186,0.003,0.279,0.003c2.257,0,4.515,0,6.772,0
			c0.099,0,0.201-0.011,0.293,0.041c0.252,0.379,0.464,0.781,0.693,1.174c0.454,0.781,0.906,1.563,1.358,2.345
			C37.799,14.273,37.823,14.332,37.851,14.389z"/>
		<path style="fill:#00C5BD;" d="M55.394,44.738c-2.726,0.001-5.453,0.001-8.179,0.002c-0.064,0-0.128,0.001-0.193,0.003
			c-0.053,0.002-0.071,0.039-0.08,0.084c-0.182-0.255-0.322-0.535-0.479-0.805c-0.32-0.546-0.635-1.096-0.951-1.645
			c-0.028-0.049-0.067-0.093-0.074-0.152c-0.002-0.025-0.014-0.045-0.036-0.059c0,0-0.001-0.003-0.001-0.003
			c-0.003-0.034-0.011-0.065-0.046-0.082c0,0,0.001,0.001,0.001,0.001c0-0.037-0.008-0.07-0.048-0.085c0,0,0.002,0.003,0.002,0.003
			c0.002-0.04-0.004-0.075-0.049-0.087c0,0,0.005,0.005,0.005,0.005c-0.012-0.017-0.024-0.035-0.036-0.052
			c0,0-0.001-0.002-0.001-0.002c-0.002-0.035-0.011-0.067-0.047-0.082c0,0,0.001,0.002,0.001,0.002
			c0.001-0.038-0.006-0.072-0.048-0.087c0,0,0.003,0.004,0.003,0.004c0.003-0.04-0.003-0.076-0.05-0.087
			c0,0,0.006,0.005,0.006,0.005c-0.002-0.025-0.014-0.042-0.036-0.053l0,0c-0.001-0.036-0.009-0.068-0.047-0.084
			c0,0,0.001,0.002,0.001,0.002c0.001-0.039-0.006-0.073-0.049-0.086c0,0,0.004,0.005,0.004,0.005
			c-0.012-0.017-0.024-0.035-0.035-0.052c0,0-0.001-0.003-0.001-0.003c-0.003-0.034-0.011-0.065-0.046-0.082c0,0,0,0.001,0,0.001
			c0-0.037-0.009-0.07-0.047-0.085c0,0,0.002,0.003,0.002,0.003c0.002-0.039-0.004-0.074-0.05-0.087c0,0,0.005,0.005,0.005,0.005
			c-0.012-0.017-0.024-0.035-0.035-0.052c0,0-0.001-0.002-0.001-0.002c-0.002-0.035-0.011-0.066-0.047-0.082
			c0,0,0.001,0.002,0.001,0.002c0-0.038-0.006-0.072-0.048-0.086c0,0,0.003,0.004,0.003,0.004c0.003-0.04-0.003-0.075-0.049-0.087
			c0,0,0.005,0.005,0.005,0.005c-0.002-0.024-0.014-0.042-0.036-0.053c0,0-0.001-0.001-0.001-0.001
			c-0.002-0.036-0.01-0.068-0.047-0.083c0,0,0.001,0.002,0.001,0.002c0.048-0.162,0.183-0.131,0.3-0.131
			c2.634-0.001,5.268-0.001,7.902-0.001c0.086,0,0.171-0.001,0.25,0.042c0.274,0.416,0.507,0.856,0.757,1.286
			c0.527,0.905,1.048,1.812,1.572,2.719C55.349,44.635,55.388,44.679,55.394,44.738z"/>
		<path style="fill:#00C2CC;" d="M18.779,27.249c0.107-0.242,0.254-0.461,0.385-0.689c0.572-0.995,1.148-1.989,1.723-2.983
			c0.021-0.036,0.05-0.068,0.075-0.102c0.091,0.057,0.192,0.044,0.291,0.044c2.632,0,5.264,0,7.896,0.002
			c0.088,0,0.187-0.036,0.264,0.044c0,0,0-0.002,0-0.002c-0.038,0.016-0.046,0.048-0.047,0.085c0,0,0,0,0,0
			c-0.024,0.014-0.036,0.035-0.038,0.063c0.004,0.011,0.001,0.019-0.011,0.024c-0.011,0.016-0.023,0.032-0.034,0.049
			c0,0,0.004-0.004,0.004-0.004c-0.042,0.014-0.049,0.048-0.048,0.086c0,0,0.001-0.002,0.001-0.002
			c-0.036,0.016-0.045,0.047-0.047,0.083c0,0-0.001,0.002-0.001,0.002c-0.021,0.011-0.033,0.028-0.036,0.052
			c0,0,0.005-0.005,0.005-0.005c-0.046,0.013-0.052,0.048-0.049,0.088c0,0,0.002-0.004,0.002-0.004
			c-0.04,0.015-0.048,0.048-0.049,0.085l0.001-0.001c-0.035,0.016-0.044,0.047-0.046,0.081c0,0-0.001,0.003-0.001,0.003
			c-0.012,0.017-0.023,0.035-0.035,0.052c0,0,0.005-0.005,0.004-0.005c-0.044,0.013-0.051,0.048-0.049,0.087
			c0,0,0.002-0.003,0.002-0.003c-0.038,0.016-0.047,0.048-0.047,0.085c0,0,0,0,0,0c-0.034,0.016-0.042,0.047-0.045,0.08
			c-0.141,0.296-0.32,0.571-0.482,0.855c-0.354,0.618-0.71,1.235-1.068,1.851c-0.035,0.061-0.061,0.129-0.118,0.175
			c0.002-0.084-0.026-0.138-0.123-0.132c-0.057,0.003-0.114,0-0.171,0c-2.591,0-5.182,0-7.772,0.001
			C19.001,27.293,18.888,27.287,18.779,27.249z"/>
		<path style="fill:#00C3C8;" d="M18.779,27.249c0.109,0.038,0.222,0.044,0.336,0.043c2.591-0.001,5.182-0.001,7.772-0.001
			c0.057,0,0.114,0.003,0.171,0c0.097-0.006,0.125,0.048,0.123,0.132c0,0,0.001-0.002,0.001-0.002
			c-0.037,0.016-0.045,0.048-0.047,0.084c0,0,0,0.001,0,0.001c-0.022,0.011-0.034,0.028-0.036,0.053c0,0,0.005-0.005,0.005-0.005
			c-0.047,0.012-0.052,0.047-0.05,0.087c0,0,0.002-0.004,0.002-0.004c-0.042,0.014-0.048,0.048-0.048,0.086
			c0,0,0.001-0.001,0.001-0.001c-0.062,0.024-0.092,0.068-0.082,0.136c0,0,0.003-0.005,0.003-0.005
			c-0.045,0.013-0.051,0.048-0.049,0.087c0,0,0.002-0.003,0.002-0.003c-0.039,0.015-0.047,0.048-0.048,0.085l0-0.001
			c-0.023,0.01-0.035,0.028-0.037,0.053c0,0,0.005-0.006,0.005-0.006c-0.049,0.011-0.054,0.047-0.05,0.087
			c0,0,0.003-0.004,0.003-0.004c-0.043,0.014-0.05,0.048-0.049,0.087c0,0,0.002-0.002,0.002-0.002
			c-0.037,0.016-0.046,0.048-0.047,0.084c0,0,0,0.001,0,0.001c-0.024,0.014-0.035,0.035-0.037,0.063
			c0.004,0.012,0.001,0.02-0.011,0.024c-0.011,0.016-0.022,0.032-0.034,0.049c0,0,0.004-0.005,0.004-0.004
			c-0.042,0.014-0.049,0.048-0.049,0.085c0,0,0.001-0.001,0.001-0.001c-0.036,0.016-0.044,0.048-0.046,0.083
			c0,0-0.001,0.002-0.001,0.002c-0.021,0.011-0.034,0.028-0.036,0.052c0,0,0.005-0.005,0.005-0.005
			c-0.046,0.012-0.052,0.047-0.05,0.087c0,0,0.002-0.003,0.002-0.003c-0.039,0.016-0.047,0.049-0.047,0.086
			c0,0,0.001-0.001,0.001-0.001c-0.035,0.016-0.044,0.047-0.047,0.081c0,0-0.002,0.003-0.002,0.003
			c-0.012,0.017-0.023,0.034-0.035,0.051c0,0,0.004-0.005,0.004-0.005c-0.044,0.014-0.05,0.048-0.048,0.087
			c0,0,0.002-0.003,0.002-0.003c-0.038,0.016-0.046,0.048-0.047,0.084c0,0,0,0,0,0c-0.024,0.014-0.036,0.035-0.038,0.063
			c0.004,0.011,0.001,0.019-0.011,0.024c-0.011,0.018-0.022,0.036-0.034,0.053c-0.214,0.431-0.474,0.837-0.711,1.255
			c-0.087,0.153-0.16,0.316-0.275,0.451c-0.01-0.044-0.026-0.083-0.079-0.085c-0.064-0.003-0.128-0.004-0.192-0.004
			c-2.588,0-5.177-0.001-7.765,0.002c-0.132,0-0.255-0.016-0.367-0.087c0.231-0.456,0.504-0.889,0.757-1.333
			c0.402-0.704,0.81-1.403,1.216-2.104C18.719,27.328,18.751,27.29,18.779,27.249z"/>
		<path style="fill:#00C1D0;" d="M23.563,18.972c0.108-0.048,0.223-0.04,0.337-0.04c5.439,0,10.879,0,16.318,0
			c0.086,0,0.171-0.001,0.257-0.001c0.277,0.418,0.507,0.864,0.763,1.295c0.064,0.109,0.141,0.212,0.18,0.335
			c-2.697,0-5.394,0.001-8.091,0.001c-0.121,0-0.242,0.001-0.358,0.044c-0.017-0.013-0.034-0.026-0.052-0.039
			c0,0,0.004,0.004,0.004,0.003c-0.011-0.016-0.023-0.033-0.034-0.049c-0.011-0.004-0.015-0.012-0.01-0.023
			c-0.002-0.028-0.014-0.05-0.038-0.064l0,0c-0.001-0.036-0.009-0.069-0.047-0.084c0,0,0.002,0.003,0.002,0.003
			c-0.01-0.015-0.021-0.03-0.031-0.045c-0.012-0.007-0.017-0.017-0.014-0.03c-0.012-0.019-0.024-0.039-0.036-0.058
			c0,0-0.001-0.003-0.001-0.003c-0.002-0.034-0.011-0.066-0.046-0.082c0,0,0.001,0.001,0.001,0.001c0-0.037-0.008-0.07-0.048-0.085
			c0,0,0.002,0.003,0.002,0.003c0.002-0.04-0.004-0.075-0.049-0.087c0,0,0.005,0.005,0.005,0.005
			c-0.012-0.018-0.024-0.035-0.035-0.052c0,0-0.001-0.002-0.001-0.002c-0.002-0.035-0.011-0.067-0.047-0.082
			c0,0,0.001,0.002,0.001,0.002c0-0.038-0.006-0.072-0.049-0.086c0,0,0.003,0.004,0.003,0.004c0.003-0.04-0.002-0.076-0.049-0.088
			c0,0,0.005,0.005,0.005,0.005c-0.002-0.025-0.015-0.042-0.037-0.053c0,0,0,0,0,0c-0.001-0.036-0.01-0.068-0.047-0.084
			c0,0,0.002,0.002,0.002,0.002c0.001-0.039-0.005-0.073-0.049-0.087c0,0,0.004,0.005,0.004,0.005
			c-0.012-0.017-0.024-0.034-0.036-0.051c0,0-0.002-0.003-0.002-0.003c-0.003-0.034-0.011-0.065-0.046-0.081c0,0,0,0.001,0,0.001
			c0-0.037-0.008-0.07-0.047-0.086c0,0,0.002,0.003,0.002,0.003c0.002-0.039-0.004-0.074-0.05-0.087c0,0,0.005,0.005,0.005,0.005
			c-0.003-0.024-0.016-0.041-0.037-0.052c0,0-0.001-0.001-0.001-0.001c-0.033-0.044-0.061-0.043-0.083,0.009
			c0,0,0.005-0.006,0.005-0.006c-0.043,0.014-0.049,0.048-0.049,0.086c0,0,0.001-0.002,0.001-0.002
			c-0.037,0.016-0.045,0.048-0.047,0.083c0,0-0.001,0.001-0.001,0.001c-0.023,0.014-0.035,0.035-0.037,0.062
			c0.004,0.012,0,0.021-0.011,0.026c-0.011,0.016-0.022,0.032-0.033,0.048c0,0,0.003-0.004,0.003-0.004
			c-0.04,0.015-0.048,0.048-0.048,0.085c0,0,0.001-0.001,0.001-0.001c-0.035,0.016-0.044,0.048-0.046,0.083
			c0,0-0.001,0.002-0.001,0.002c-0.012,0.017-0.024,0.035-0.036,0.052c0,0,0.005-0.005,0.005-0.005
			c-0.045,0.013-0.051,0.048-0.049,0.087c0,0,0.002-0.003,0.002-0.003c-0.039,0.016-0.047,0.049-0.047,0.086c0,0,0-0.001,0-0.001
			c-0.034,0.016-0.043,0.046-0.046,0.08c0,0-0.002,0.004-0.002,0.004c-0.012,0.017-0.023,0.034-0.035,0.051
			c0,0,0.004-0.005,0.004-0.005c-0.043,0.014-0.049,0.048-0.048,0.087c0,0,0.002-0.003,0.002-0.003
			c-0.037,0.016-0.046,0.048-0.047,0.084c0,0,0,0.001,0,0.001c-0.024,0.014-0.035,0.035-0.037,0.062c0.004,0.012,0,0.02-0.011,0.026
			c-0.011,0.016-0.022,0.032-0.033,0.048c0,0,0.004-0.005,0.004-0.005c-0.042,0.014-0.049,0.048-0.049,0.086
			c0,0,0.001-0.002,0.001-0.002c-0.036,0.016-0.044,0.047-0.046,0.082c-0.026,0.083-0.067,0.156-0.127,0.219
			c-0.084-0.105-0.203-0.087-0.316-0.087c-2.712-0.001-5.425-0.001-8.137-0.002c0.098-0.229,0.237-0.435,0.361-0.649
			C23.208,19.567,23.367,19.259,23.563,18.972z"/>
		<path style="fill:#00C4C1;" d="M52.992,40.581c-0.078-0.044-0.164-0.042-0.25-0.042c-2.634,0.001-5.268,0-7.902,0.001
			c-0.117,0-0.252-0.031-0.3,0.131c-0.105-0.133-0.184-0.281-0.254-0.435c-0.002-0.035-0.01-0.066-0.046-0.082
			c0,0,0.001,0.002,0.001,0.002c0-0.038-0.008-0.071-0.048-0.086c0,0,0.002,0.003,0.002,0.003c0.002-0.04-0.003-0.075-0.05-0.087
			c0,0,0.005,0.005,0.005,0.005c-0.002-0.024-0.014-0.042-0.036-0.053c0,0-0.001-0.001-0.001-0.001
			c-0.002-0.035-0.01-0.067-0.047-0.083c0,0,0.001,0.002,0.001,0.002c0.001-0.038-0.006-0.073-0.049-0.086
			c0,0,0.004,0.005,0.004,0.005c-0.011-0.017-0.022-0.033-0.034-0.05c-0.011-0.004-0.015-0.012-0.01-0.023
			c-0.002-0.028-0.013-0.049-0.038-0.063l0,0c-0.001-0.036-0.01-0.069-0.048-0.084c0,0,0.002,0.003,0.002,0.003
			c0.001-0.039-0.005-0.074-0.049-0.087c0,0,0.005,0.005,0.005,0.005c-0.012-0.017-0.024-0.035-0.035-0.052
			c0,0-0.001-0.003-0.001-0.003c-0.003-0.034-0.011-0.066-0.046-0.081c0,0,0.001,0.001,0.001,0.001c0-0.037-0.008-0.07-0.048-0.086
			c0,0,0.002,0.003,0.002,0.003c0.002-0.04-0.004-0.075-0.049-0.087c0,0,0.005,0.005,0.005,0.005
			c-0.012-0.017-0.024-0.035-0.036-0.052c0,0-0.001-0.002-0.001-0.002c-0.002-0.035-0.01-0.067-0.047-0.083
			c0,0,0.001,0.002,0.001,0.002c0.001-0.038-0.006-0.072-0.048-0.086c0,0,0.003,0.004,0.003,0.004
			c0.003-0.04-0.003-0.076-0.05-0.087c0,0,0.006,0.005,0.006,0.005c-0.002-0.025-0.014-0.042-0.036-0.053l0,0
			c-0.001-0.036-0.009-0.068-0.047-0.084c0,0,0.001,0.002,0.001,0.002c0.001-0.039-0.006-0.073-0.05-0.086
			c0,0,0.005,0.005,0.005,0.005c-0.012-0.017-0.024-0.035-0.035-0.052c0,0-0.001-0.003-0.001-0.003
			c-0.003-0.034-0.011-0.065-0.046-0.082c0,0,0,0.001,0,0.001c-0.001-0.037-0.009-0.07-0.048-0.085c0,0,0.002,0.003,0.002,0.003
			c0.002-0.039-0.004-0.074-0.049-0.087c0,0,0.005,0.005,0.005,0.005c-0.012-0.017-0.024-0.035-0.035-0.052
			c0,0-0.001-0.002-0.001-0.002c-0.002-0.035-0.011-0.066-0.047-0.082c0,0,0.001,0.002,0.001,0.002c0-0.038-0.006-0.072-0.048-0.086
			c0,0,0.003,0.004,0.003,0.004c0.003-0.04-0.003-0.075-0.049-0.087c0,0,0.005,0.005,0.005,0.005
			c-0.002-0.024-0.014-0.042-0.036-0.053c0,0-0.001-0.001-0.001-0.001c-0.002-0.036-0.01-0.068-0.047-0.083
			c0,0,0.002,0.002,0.002,0.002c0.001-0.039-0.005-0.073-0.049-0.087c0,0,0.004,0.005,0.004,0.005
			c-0.012-0.017-0.023-0.034-0.035-0.051c0,0-0.002-0.004-0.002-0.004c-0.003-0.034-0.012-0.064-0.046-0.081c0,0,0,0,0,0
			c-0.001-0.037-0.009-0.069-0.047-0.085c0,0,0.002,0.003,0.002,0.003c0.001-0.039-0.005-0.074-0.049-0.086
			c0,0,0.005,0.005,0.005,0.005c-0.012-0.017-0.024-0.035-0.036-0.052c0,0-0.001-0.002-0.001-0.002
			c-0.002-0.035-0.011-0.066-0.046-0.082c0,0,0,0.001,0,0.001c0.085-0.104,0.203-0.087,0.316-0.087
			c2.712-0.001,5.424-0.001,8.136-0.002c0.252,0.381,0.466,0.784,0.695,1.178c0.381,0.654,0.759,1.31,1.137,1.965
			C52.961,40.502,52.975,40.542,52.992,40.581z"/>
		<path style="fill:#00C2D0;" d="M22.672,20.516c2.712,0.001,5.425,0.001,8.137,0.002c0.113,0,0.231-0.018,0.316,0.087
			c-0.174,0.36-0.391,0.695-0.588,1.042c-0.332,0.583-0.669,1.162-1.006,1.742c-0.035,0.061-0.061,0.129-0.118,0.176
			c-0.077-0.08-0.175-0.044-0.264-0.044c-2.632-0.002-5.264-0.002-7.896-0.002c-0.099,0-0.201,0.014-0.291-0.044
			c0.141-0.304,0.325-0.585,0.491-0.875c0.364-0.638,0.734-1.272,1.103-1.907C22.591,20.632,22.615,20.563,22.672,20.516z"/>
		<path style="fill:#00C3C6;" d="M16.721,30.808c0.112,0.071,0.235,0.087,0.367,0.087c2.588-0.002,5.177-0.002,7.765-0.002
			c0.064,0,0.128,0.001,0.192,0.004c0.053,0.002,0.07,0.041,0.079,0.085c0,0,0.001-0.002,0.001-0.002
			c-0.037,0.016-0.046,0.048-0.047,0.084c0,0,0,0.001,0,0.001c-0.022,0.011-0.034,0.028-0.036,0.053c0,0,0.005-0.006,0.005-0.006
			c-0.047,0.011-0.053,0.047-0.05,0.087c0,0,0.003-0.004,0.003-0.004c-0.042,0.014-0.049,0.048-0.049,0.086
			c0,0,0.001-0.001,0.001-0.001c-0.036,0.016-0.044,0.048-0.046,0.083l-0.001,0.001c-0.021,0.011-0.034,0.028-0.036,0.052
			c0,0,0.005-0.005,0.005-0.005c-0.046,0.012-0.052,0.047-0.05,0.087c0,0,0.002-0.003,0.002-0.003
			c-0.039,0.016-0.047,0.049-0.047,0.086c0,0,0.001-0.001,0.001-0.001c-0.061,0.025-0.091,0.068-0.082,0.135
			c0,0,0.003-0.004,0.003-0.004c-0.044,0.014-0.05,0.048-0.048,0.087c0,0,0.002-0.003,0.002-0.003
			c-0.038,0.016-0.046,0.048-0.047,0.084c0,0,0,0,0,0c-0.024,0.014-0.036,0.035-0.038,0.063c0.004,0.011,0.001,0.019-0.01,0.024
			c-0.011,0.016-0.022,0.033-0.034,0.049c0,0,0.004-0.005,0.004-0.005c-0.043,0.014-0.049,0.048-0.049,0.086
			c0,0,0.001-0.002,0.001-0.002c-0.037,0.016-0.045,0.047-0.047,0.083c0,0-0.001,0.002-0.001,0.002
			c-0.021,0.011-0.033,0.029-0.035,0.053c0,0,0.005-0.005,0.005-0.005c-0.046,0.012-0.052,0.047-0.05,0.087
			c0,0,0.002-0.004,0.002-0.004c-0.04,0.015-0.048,0.048-0.048,0.085c0,0,0.001-0.001,0.001-0.001
			c-0.035,0.016-0.043,0.047-0.046,0.082c0,0-0.001,0.003-0.001,0.003c-0.012,0.017-0.023,0.035-0.035,0.052
			c0,0,0.005-0.005,0.005-0.005c-0.045,0.013-0.051,0.048-0.049,0.087c0,0,0.002-0.003,0.002-0.003
			c-0.038,0.016-0.046,0.049-0.047,0.085l0-0.001c-0.034,0.016-0.043,0.047-0.046,0.081c0,0-0.002,0.004-0.002,0.004
			c-0.012,0.017-0.023,0.034-0.035,0.051c0,0,0.004-0.005,0.004-0.005c-0.043,0.014-0.049,0.048-0.048,0.087
			c0,0,0.001-0.002,0.001-0.002c-0.037,0.016-0.045,0.048-0.047,0.084c0,0,0,0.001,0,0.001c-0.023,0.014-0.035,0.034-0.037,0.061
			c0.004,0.012,0,0.021-0.012,0.026c-0.011,0.016-0.022,0.032-0.032,0.048c0,0,0.004-0.004,0.004-0.004
			c-0.042,0.014-0.049,0.048-0.048,0.086c0,0,0.001-0.002,0.001-0.002c-0.036,0.016-0.044,0.047-0.047,0.081l-0.001,0.003
			c-0.012,0.017-0.023,0.035-0.035,0.052c0,0,0.005-0.005,0.005-0.005c-0.045,0.013-0.051,0.048-0.049,0.087
			c0,0,0.002-0.003,0.002-0.003c-0.039,0.015-0.047,0.048-0.048,0.085c0,0,0-0.001,0-0.001c-0.034,0.016-0.043,0.047-0.046,0.081
			c0,0-0.002,0.004-0.002,0.004c-0.012,0.017-0.023,0.034-0.035,0.052c0,0,0.004-0.005,0.004-0.005
			c-0.044,0.013-0.05,0.048-0.049,0.086c0,0,0.002-0.002,0.002-0.002c-0.037,0.016-0.046,0.048-0.047,0.084l0,0
			c-0.024,0.014-0.036,0.036-0.037,0.063c0.004,0.012,0.001,0.02-0.011,0.024c-0.011,0.018-0.023,0.035-0.034,0.053
			c-0.002,0.034-0.014,0.061-0.045,0.078c-0.042-0.151-0.166-0.131-0.278-0.131c-2.649,0-5.297,0-7.946-0.001
			c-0.08,0-0.157,0.005-0.228,0.043c0.123-0.274,0.29-0.523,0.438-0.782c0.415-0.724,0.834-1.446,1.253-2.168
			C16.64,30.924,16.682,30.867,16.721,30.808z"/>
		<path style="fill:#00C4C3;" d="M51.107,37.322c-2.712,0.001-5.424,0.001-8.136,0.002c-0.113,0-0.231-0.017-0.316,0.087
			c-0.161-0.234-0.3-0.48-0.426-0.735c-0.002-0.034-0.011-0.065-0.046-0.081c0,0,0.001,0.001,0.001,0.001
			c0-0.037-0.008-0.07-0.047-0.086c0,0,0.002,0.003,0.002,0.003c0.002-0.039-0.004-0.074-0.05-0.087c0,0,0.005,0.005,0.005,0.005
			c-0.002-0.024-0.015-0.041-0.036-0.052c0,0-0.001-0.002-0.001-0.002c-0.002-0.035-0.01-0.067-0.047-0.083
			c0,0,0.001,0.002,0.001,0.002c0.001-0.038-0.006-0.072-0.048-0.086c0,0,0.004,0.004,0.004,0.004
			c-0.011-0.016-0.022-0.032-0.033-0.048c-0.012-0.004-0.015-0.012-0.011-0.024c-0.002-0.027-0.013-0.049-0.037-0.063
			c0,0,0-0.001,0-0.001c-0.001-0.036-0.01-0.068-0.047-0.084c0,0,0.002,0.003,0.002,0.003c-0.01-0.015-0.021-0.03-0.031-0.045
			c-0.012-0.006-0.017-0.016-0.014-0.03c-0.012-0.019-0.024-0.039-0.035-0.058c0,0-0.001-0.003-0.001-0.003
			c-0.003-0.034-0.011-0.065-0.046-0.082c0,0,0,0.001,0,0.001c-0.001-0.037-0.009-0.07-0.048-0.085c0,0,0.002,0.003,0.002,0.003
			c0.002-0.039-0.004-0.074-0.049-0.087c0,0,0.005,0.005,0.005,0.005c-0.012-0.017-0.024-0.035-0.035-0.052
			c0,0-0.001-0.002-0.001-0.002c-0.002-0.035-0.011-0.066-0.047-0.082c0,0,0.001,0.002,0.001,0.002c0-0.038-0.006-0.072-0.048-0.086
			c0,0,0.003,0.004,0.003,0.004c0.003-0.04-0.003-0.075-0.049-0.087c0,0,0.005,0.005,0.005,0.005
			c-0.002-0.024-0.015-0.042-0.036-0.053c0,0,0-0.001,0-0.001c-0.002-0.036-0.01-0.068-0.047-0.083c0,0,0.001,0.002,0.001,0.002
			c0.001-0.038-0.005-0.073-0.049-0.086c0,0,0.004,0.005,0.004,0.005c-0.012-0.017-0.024-0.034-0.035-0.051
			c0,0-0.002-0.004-0.002-0.004c-0.003-0.034-0.011-0.065-0.046-0.081l0,0c-0.001-0.037-0.009-0.069-0.047-0.085
			c0,0,0.002,0.003,0.002,0.003c0.001-0.039-0.005-0.074-0.049-0.086c0,0,0.005,0.005,0.005,0.005
			c-0.012-0.017-0.024-0.035-0.036-0.052c0,0-0.001-0.002-0.001-0.002c-0.002-0.035-0.01-0.066-0.046-0.082
			c0,0,0.001,0.001,0.001,0.001c0-0.037-0.008-0.07-0.048-0.086c0,0,0.002,0.003,0.002,0.003c0.002-0.04-0.003-0.075-0.05-0.087
			c0,0,0,0.003,0,0.003c0.059-0.114,0.165-0.093,0.263-0.093c2.646,0,5.292,0,7.938-0.001c0.094,0,0.185,0.006,0.273,0.039
			c0.245,0.374,0.454,0.77,0.68,1.155c0.302,0.515,0.598,1.032,0.895,1.549C51.054,37.206,51.098,37.256,51.107,37.322z"/>
		<path style="fill:#00C0DB;" d="M35.716,10.699c-0.092-0.053-0.194-0.041-0.293-0.041c-2.257,0-4.515,0-6.772,0
			c-0.093,0-0.186-0.002-0.279-0.003c0.206-0.416,0.454-0.808,0.685-1.209c0.947-1.645,1.899-3.288,2.85-4.93
			c0.035-0.06,0.057-0.131,0.122-0.175c0.058,0.013,0.065,0.069,0.088,0.108c1.187,2.051,2.373,4.102,3.558,6.153
			C35.693,10.632,35.703,10.667,35.716,10.699z"/>
		<path style="fill:#00C2CC;" d="M45.311,27.293c-0.109,0.039-0.222,0.043-0.337,0.042c-2.591-0.001-5.181-0.001-7.772-0.001
			c-0.057,0-0.114,0.003-0.171,0c-0.098-0.006-0.122,0.052-0.123,0.134c-0.241-0.358-0.441-0.741-0.658-1.112
			c-0.071-0.121-0.158-0.235-0.2-0.372c-0.002-0.028-0.014-0.049-0.038-0.063c0,0,0,0,0,0c-0.001-0.036-0.009-0.069-0.047-0.085
			c0,0,0.002,0.003,0.002,0.003c0.001-0.039-0.005-0.073-0.049-0.086c0,0,0.005,0.005,0.005,0.005
			c-0.012-0.017-0.024-0.034-0.036-0.052c0,0-0.001-0.002-0.001-0.002c-0.002-0.035-0.011-0.066-0.046-0.082
			c0,0,0.001,0.001,0.001,0.001c0-0.037-0.008-0.07-0.048-0.085c0,0,0.002,0.003,0.002,0.003c0.002-0.04-0.004-0.075-0.05-0.087
			c0,0,0.005,0.005,0.005,0.005c-0.012-0.018-0.024-0.035-0.036-0.053c0,0-0.001-0.002-0.001-0.002
			c-0.002-0.035-0.011-0.067-0.047-0.082c0,0,0.001,0.002,0.001,0.002c0-0.038-0.006-0.072-0.049-0.086c0,0,0.003,0.004,0.003,0.004
			c0.003-0.04-0.002-0.076-0.05-0.088c0,0,0.005,0.005,0.005,0.005c-0.002-0.025-0.014-0.042-0.036-0.053c0,0,0-0.001,0-0.001
			c-0.001-0.036-0.01-0.068-0.047-0.084c0,0,0.002,0.002,0.002,0.002c0.001-0.039-0.005-0.073-0.049-0.086
			c0,0,0.004,0.005,0.004,0.005c-0.012-0.017-0.024-0.034-0.035-0.052c0,0-0.002-0.003-0.002-0.003
			c-0.003-0.034-0.011-0.065-0.046-0.081c0,0,0,0.001,0,0.001c0-0.037-0.009-0.07-0.048-0.085c0,0,0.002,0.003,0.002,0.003
			c0.016-0.143,0.122-0.133,0.224-0.133c2.673,0,5.347,0,8.02-0.001c0.073,0,0.142,0.008,0.206,0.043
			c0.151,0.207,0.265,0.437,0.394,0.658c0.359,0.615,0.714,1.233,1.07,1.849C45.265,27.189,45.286,27.242,45.311,27.293z"/>
		<path style="fill:#00C4C4;" d="M14.914,33.936c0.072-0.037,0.149-0.043,0.228-0.043c2.649,0.001,5.297,0.001,7.946,0.001
			c0.112,0,0.236-0.02,0.278,0.131c-0.15,0.322-0.346,0.619-0.522,0.927c-0.281,0.494-0.568,0.985-0.854,1.477
			c-0.025,0.042-0.056,0.081-0.084,0.121c-0.071-0.074-0.162-0.041-0.243-0.041c-2.282-0.002-4.565-0.001-6.847-0.001
			c-0.335,0-0.671-0.003-1.006,0.001c-0.122,0.001-0.241-0.01-0.357-0.047c0.135-0.291,0.312-0.558,0.47-0.835
			c0.304-0.531,0.611-1.06,0.918-1.589C14.862,34.002,14.89,33.97,14.914,33.936z"/>
		<path style="fill:#00C2CE;" d="M43.772,24.633c-0.064-0.036-0.133-0.043-0.206-0.043c-2.673,0.001-5.347,0.001-8.02,0.001
			c-0.102,0-0.208-0.009-0.224,0.133c-0.25-0.384-0.478-0.78-0.687-1.188c-0.002-0.026-0.014-0.047-0.037-0.06
			c0,0-0.001-0.001-0.001-0.001c-0.002-0.035-0.01-0.067-0.047-0.083c0,0,0.001,0.002,0.001,0.002
			c0.001-0.038-0.005-0.073-0.048-0.087c0,0,0.004,0.005,0.004,0.004c-0.011-0.016-0.023-0.033-0.034-0.049
			c-0.011-0.004-0.015-0.012-0.01-0.023c-0.002-0.028-0.014-0.049-0.038-0.064c0,0,0,0,0,0c-0.001-0.036-0.009-0.069-0.047-0.085
			c0,0,0.002,0.002,0.002,0.002c0.001-0.039-0.005-0.073-0.049-0.086c0,0,0.005,0.005,0.005,0.005
			c-0.012-0.017-0.024-0.035-0.036-0.052c0,0-0.001-0.002-0.001-0.002c-0.002-0.035-0.011-0.066-0.046-0.082
			c0,0,0.001,0.001,0.001,0.001c0-0.037-0.008-0.07-0.048-0.085c0,0,0.002,0.003,0.002,0.003c0.002-0.04-0.004-0.075-0.05-0.087
			c0,0,0.005,0.005,0.005,0.005c-0.012-0.018-0.024-0.035-0.035-0.053c0,0-0.001-0.002-0.001-0.002c0-0.028-0.001-0.055-0.001-0.083
			c0.077-0.048,0.163-0.043,0.249-0.043c2.652,0,5.303,0,7.955,0c0.086,0,0.171,0.004,0.25,0.04c0,0-0.004-0.004-0.004-0.004
			c0.012,0.017,0.023,0.034,0.035,0.051c0,0,0.002,0.004,0.002,0.004c0.003,0.034,0.012,0.064,0.045,0.08
			c0.185,0.26,0.329,0.545,0.488,0.821C43.356,23.893,43.586,24.251,43.772,24.633z"/>
		<path style="fill:#00C2D0;" d="M42.579,22.573c-0.08-0.037-0.164-0.04-0.25-0.04c-2.652,0.001-5.303,0.001-7.955,0
			c-0.086,0-0.172-0.005-0.249,0.043c-0.015,0-0.03,0.001-0.045,0.001c0,0,0.001,0.001,0.001,0.001c0-0.038-0.006-0.072-0.049-0.086
			c0,0,0.003,0.004,0.003,0.004c0.003-0.04-0.002-0.076-0.049-0.088c0,0,0.005,0.005,0.005,0.005
			c-0.002-0.025-0.014-0.042-0.036-0.053c0,0,0-0.001,0-0.001c-0.001-0.036-0.01-0.068-0.047-0.084c0,0,0.002,0.002,0.002,0.002
			c0.001-0.039-0.005-0.073-0.049-0.087c0,0,0.004,0.005,0.004,0.005c-0.012-0.017-0.024-0.034-0.035-0.051
			c0,0-0.002-0.003-0.002-0.003c-0.003-0.034-0.011-0.065-0.046-0.081c0,0,0,0.001,0,0.001c0-0.037-0.008-0.07-0.047-0.085
			c0,0,0.002,0.003,0.002,0.003c0.002-0.039-0.004-0.074-0.049-0.087c0,0,0.005,0.005,0.005,0.005
			c-0.012-0.017-0.024-0.035-0.036-0.052c0,0-0.001-0.002-0.001-0.002c-0.002-0.035-0.011-0.066-0.047-0.082
			c0,0,0.001,0.002,0.001,0.002c0-0.038-0.006-0.072-0.048-0.086c0,0,0.002,0.004,0.002,0.004c0.003-0.04-0.003-0.075-0.05-0.087
			c0,0,0.003,0.004,0.003,0.004c0.012-0.069-0.018-0.112-0.081-0.136c0,0,0.001,0.002,0.001,0.002
			c0.001-0.038-0.006-0.073-0.049-0.086c0,0,0.003,0.004,0.003,0.004c0.004-0.041-0.001-0.076-0.05-0.087
			c0,0,0.006,0.005,0.006,0.005c-0.001-0.025-0.014-0.043-0.036-0.053c0,0,0,0,0,0c-0.001-0.037-0.009-0.069-0.048-0.084
			c0,0,0.002,0.003,0.002,0.003c0.002-0.039-0.005-0.074-0.049-0.087c0,0,0.005,0.005,0.005,0.005
			c-0.012-0.017-0.024-0.035-0.035-0.052c0,0-0.001-0.003-0.001-0.003c-0.003-0.034-0.011-0.066-0.047-0.081
			c0,0,0.001,0.001,0.001,0.001c0-0.038-0.008-0.071-0.048-0.086c0,0,0.002,0.003,0.002,0.003c0.002-0.04-0.003-0.075-0.049-0.087
			c0,0,0.005,0.005,0.005,0.005c-0.002-0.024-0.015-0.041-0.036-0.052c0,0-0.001-0.001-0.001-0.001
			c-0.002-0.035-0.01-0.067-0.047-0.083c0,0,0.001,0.002,0.001,0.002c0.001-0.015,0.002-0.031,0.003-0.046
			c0.116-0.043,0.236-0.044,0.358-0.044c2.697,0,5.394,0,8.091-0.001c0.279,0.422,0.513,0.87,0.768,1.305
			C42.322,22.098,42.472,22.324,42.579,22.573z"/>
		<path style="fill:#00C3C5;" d="M49.448,34.447c-0.088-0.033-0.179-0.039-0.273-0.039c-2.646,0.001-5.292,0.001-7.938,0.001
			c-0.098,0-0.205-0.021-0.263,0.093c-0.209-0.298-0.372-0.623-0.556-0.936c-0.086-0.147-0.185-0.288-0.247-0.448
			c-0.002-0.034-0.011-0.065-0.045-0.081c0,0,0,0.001,0,0.001c-0.001-0.037-0.009-0.07-0.048-0.085c0,0,0.002,0.003,0.002,0.003
			c0.002-0.016,0.003-0.032,0.005-0.048c1.291,0,2.583,0,3.874,0c1.393,0,2.785,0,4.178,0c0.057,0,0.115,0.005,0.171-0.002
			c0.078-0.009,0.159-0.021,0.177-0.121c0.264,0.397,0.483,0.822,0.725,1.232C49.294,34.158,49.388,34.293,49.448,34.447z"/>
		<path style="fill:#00C3C6;" d="M48.485,32.785c-0.018,0.1-0.099,0.112-0.177,0.121c-0.056,0.006-0.114,0.002-0.171,0.002
			c-1.393,0-2.785,0-4.178,0c-1.291,0-2.583,0-3.874,0c-0.011-0.022-0.028-0.035-0.053-0.038c0,0,0.005,0.004,0.005,0.004
			c-0.012-0.017-0.024-0.035-0.036-0.052c0,0-0.001-0.002-0.001-0.002c-0.002-0.035-0.011-0.066-0.047-0.082
			c0,0,0.001,0.002,0.001,0.002c0.001-0.038-0.006-0.072-0.048-0.086c0,0,0.003,0.004,0.003,0.004
			c0.003-0.04-0.003-0.075-0.05-0.087c0,0,0.005,0.005,0.005,0.005c-0.002-0.025-0.015-0.042-0.036-0.053l0-0.001
			c-0.001-0.036-0.01-0.068-0.047-0.084c0,0,0.001,0.002,0.001,0.002c0.001-0.038-0.006-0.073-0.049-0.086
			c0,0,0.004,0.005,0.004,0.005c-0.012-0.017-0.024-0.034-0.035-0.051c0,0-0.002-0.003-0.002-0.003
			c-0.003-0.034-0.011-0.065-0.045-0.081c0,0,0,0,0,0c-0.001-0.037-0.009-0.069-0.047-0.085c0,0,0.002,0.003,0.002,0.003
			c0.001-0.039-0.005-0.074-0.05-0.086c0,0,0.005,0.005,0.005,0.005c-0.012-0.017-0.024-0.035-0.036-0.052
			c0,0-0.001-0.002-0.001-0.002c-0.002-0.035-0.011-0.066-0.046-0.082c0,0,0.001,0.001,0.001,0.001c0-0.037-0.008-0.07-0.048-0.085
			c0,0,0,0.002,0,0.002c0.131-0.087,0.278-0.09,0.428-0.09c2.675,0,5.349,0,8.024,0C48.104,32.085,48.304,32.43,48.485,32.785z"/>
		<path style="fill:#00C3C8;" d="M24.699,31.715c-0.009-0.067,0.021-0.11,0.082-0.135C24.772,31.635,24.746,31.682,24.699,31.715z"
			/>
		<path style="fill:#00C2CC;" d="M26.929,27.857c-0.01-0.068,0.02-0.111,0.082-0.136C27.002,27.777,26.976,27.824,26.929,27.857z"/>
		<path style="fill:#00C4C4;" d="M21.526,37.208c-0.008-0.068,0.019-0.115,0.083-0.141C21.599,37.125,21.57,37.171,21.526,37.208z"
			/>
		<path style="fill:#00C5BD;" d="M47.115,45.126c0.059,0.026,0.089,0.069,0.08,0.135C47.148,45.229,47.124,45.182,47.115,45.126z"/>
		<path style="fill:#00C1D0;" d="M33.436,21.463c0.063,0.024,0.093,0.068,0.081,0.136C33.47,21.566,33.446,21.518,33.436,21.463z"/>
		<path style="fill:#00C1D3;" d="M31.985,19.112c0.022-0.053,0.05-0.053,0.083-0.009C32.04,19.106,32.012,19.109,31.985,19.112z"/>
		<path style="fill:#00C1D3;" d="M31.941,19.192c-0.001-0.038,0.006-0.073,0.049-0.086C31.987,19.142,31.975,19.174,31.941,19.192z"
			/>
		<path style="fill:#00C6B9;" d="M49.722,49.631c0.044,0.013,0.05,0.048,0.049,0.086C49.736,49.699,49.725,49.667,49.722,49.631z"/>
		<path style="fill:#00C1D3;" d="M32.1,19.15c0.045,0.013,0.051,0.047,0.05,0.087C32.115,19.218,32.104,19.186,32.1,19.15z"/>
		<path style="fill:#00C1D3;" d="M31.895,19.274c0.002-0.036,0.01-0.067,0.047-0.083C31.941,19.226,31.926,19.254,31.895,19.274z"/>
		<path style="fill:#00C1D3;" d="M32.148,19.234c0.039,0.016,0.047,0.048,0.047,0.086C32.163,19.3,32.15,19.27,32.148,19.234z"/>
		<path style="fill:#00C6B9;" d="M49.769,49.715c0.038,0.016,0.046,0.048,0.047,0.084C49.784,49.78,49.771,49.75,49.769,49.715z"/>
		<path style="fill:#00C1D3;" d="M32.195,19.318c0.035,0.016,0.043,0.047,0.046,0.081C32.211,19.381,32.195,19.354,32.195,19.318z"
			/>
		<path style="fill:#00C4C1;" d="M44.618,40.801c0.047,0.012,0.052,0.047,0.049,0.087C44.632,40.87,44.621,40.837,44.618,40.801z"/>
		<path style="fill:#00C1D3;" d="M31.768,19.491c0-0.037,0.008-0.07,0.048-0.085C31.814,19.442,31.802,19.472,31.768,19.491z"/>
		<path style="fill:#00C6B9;" d="M49.847,49.847c0.047,0.012,0.053,0.047,0.05,0.087C49.861,49.916,49.851,49.883,49.847,49.847z"/>
		<path style="fill:#00C1D3;" d="M32.274,19.449c0.043,0.013,0.05,0.048,0.049,0.087C32.288,19.517,32.277,19.486,32.274,19.449z"/>
		<path style="fill:#00C1D3;" d="M31.723,19.572c0.002-0.035,0.011-0.066,0.046-0.083C31.768,19.525,31.754,19.554,31.723,19.572z"
			/>
		<path style="fill:#00C1D3;" d="M32.321,19.533c0.038,0.016,0.046,0.048,0.047,0.084C32.335,19.599,32.322,19.569,32.321,19.533z"
			/>
		<path style="fill:#00C6B9;" d="M49.894,49.93c0.043,0.014,0.049,0.048,0.048,0.086C49.909,49.998,49.897,49.967,49.894,49.93z"/>
		<path style="fill:#00C1D3;" d="M31.642,19.708c-0.002-0.039,0.004-0.074,0.049-0.087C31.688,19.658,31.677,19.69,31.642,19.708z"
			/>
		<path style="fill:#00C6B9;" d="M49.941,50.014c0.036,0.016,0.045,0.047,0.047,0.082C49.958,50.078,49.943,50.05,49.941,50.014z"/>
		<path style="fill:#00C1D3;" d="M32.399,19.665c0.047,0.012,0.053,0.047,0.049,0.088C32.413,19.734,32.403,19.702,32.399,19.665z"
			/>
		<path style="fill:#00C1D3;" d="M31.597,19.791c0-0.037,0.008-0.07,0.047-0.086C31.642,19.741,31.629,19.772,31.597,19.791z"/>
		<path style="fill:#00C1D3;" d="M32.446,19.749c0.043,0.014,0.049,0.048,0.049,0.086C32.46,19.816,32.448,19.786,32.446,19.749z"/>
		<path style="fill:#00C1D3;" d="M31.551,19.87c0.003-0.034,0.012-0.064,0.046-0.08C31.596,19.825,31.581,19.852,31.551,19.87z"/>
		<path style="fill:#00C1D3;" d="M32.493,19.833c0.036,0.016,0.045,0.047,0.047,0.082C32.509,19.897,32.495,19.869,32.493,19.833z"
			/>
		<path style="fill:#00C6B9;" d="M50.02,50.146c0.046,0.012,0.052,0.047,0.049,0.087C50.034,50.215,50.023,50.182,50.02,50.146z"/>
		<path style="fill:#00C1D3;" d="M31.47,20.007c-0.001-0.038,0.005-0.073,0.048-0.087C31.515,19.957,31.504,19.989,31.47,20.007z"/>
		<path style="fill:#00C6B9;" d="M50.067,50.23c0.04,0.015,0.048,0.048,0.048,0.085C50.083,50.296,50.069,50.266,50.067,50.23z"/>
		<path style="fill:#00C1D3;" d="M32.572,19.965c0.046,0.012,0.052,0.047,0.049,0.087C32.586,20.033,32.575,20.001,32.572,19.965z"
			/>
		<path style="fill:#00C1D3;" d="M31.424,20.089c0.001-0.036,0.01-0.068,0.047-0.084C31.47,20.041,31.456,20.07,31.424,20.089z"/>
		<path style="fill:#00C1D3;" d="M32.619,20.049c0.04,0.015,0.048,0.048,0.048,0.085C32.634,20.115,32.621,20.085,32.619,20.049z"/>
		<path style="fill:#00C6B9;" d="M50.115,50.314c0.035,0.016,0.043,0.048,0.046,0.082C50.13,50.377,50.115,50.35,50.115,50.314z"/>
		<path style="fill:#00C1D3;" d="M32.666,20.133c0.035,0.016,0.043,0.047,0.046,0.082C32.682,20.196,32.667,20.168,32.666,20.133z"
			/>
		<path style="fill:#00C6B9;" d="M50.192,50.446c0.045,0.012,0.051,0.047,0.05,0.086C50.207,50.514,50.196,50.482,50.192,50.446z"/>
		<path style="fill:#00C1D3;" d="M31.297,20.306c0-0.038,0.006-0.072,0.049-0.086C31.343,20.257,31.331,20.288,31.297,20.306z"/>
		<path style="fill:#00C6B9;" d="M50.24,50.529c0.038,0.016,0.046,0.048,0.047,0.084C50.256,50.595,50.243,50.565,50.24,50.529z"/>
		<path style="fill:#00C1D3;" d="M31.252,20.386c0.002-0.035,0.011-0.066,0.046-0.082C31.297,20.34,31.282,20.368,31.252,20.386z"/>
		<path style="fill:#00C6B9;" d="M50.288,50.614c0.033,0.017,0.042,0.047,0.045,0.081C50.303,50.676,50.288,50.649,50.288,50.614z"
			/>
		<path style="fill:#00C1D3;" d="M32.792,20.348c0.038,0.016,0.046,0.048,0.047,0.084C32.807,20.413,32.794,20.384,32.792,20.348z"
			/>
		<path style="fill:#00C6B9;" d="M50.366,50.745c0.043,0.014,0.049,0.048,0.048,0.087C50.38,50.813,50.368,50.781,50.366,50.745z"/>
		<path style="fill:#00C6B9;" d="M50.412,50.829c0.037,0.016,0.046,0.047,0.047,0.083C50.428,50.894,50.414,50.865,50.412,50.829z"
			/>
		<path style="fill:#00C1D3;" d="M32.969,20.604c-0.001,0.015-0.002,0.03-0.003,0.046c-0.034-0.018-0.045-0.049-0.048-0.085
			C32.935,20.578,32.952,20.591,32.969,20.604z"/>
		<path style="fill:#00C1D0;" d="M32.965,20.648c0.037,0.016,0.045,0.048,0.047,0.083C32.98,20.712,32.966,20.683,32.965,20.648z"/>
		<path style="fill:#00C6B9;" d="M50.491,50.961c0.046,0.012,0.052,0.047,0.05,0.087C50.506,51.029,50.495,50.997,50.491,50.961z"/>
		<path style="fill:#00C1D0;" d="M33.043,20.779c0.046,0.012,0.052,0.047,0.049,0.087C33.057,20.848,33.046,20.816,33.043,20.779z"
			/>
		<path style="fill:#00C1D0;" d="M33.09,20.863c0.04,0.015,0.048,0.048,0.048,0.086C33.105,20.93,33.092,20.9,33.09,20.863z"/>
		<path style="fill:#00C1D0;" d="M33.137,20.948c0.035,0.016,0.044,0.047,0.047,0.081C33.153,21.01,33.138,20.983,33.137,20.948z"/>
		<path style="fill:#00C6B9;" d="M50.538,51.044c0.041,0.015,0.048,0.048,0.048,0.086C50.553,51.111,50.541,51.081,50.538,51.044z"
			/>
		<path style="fill:#00C1D0;" d="M33.216,21.079c0.044,0.013,0.05,0.048,0.049,0.087C33.23,21.147,33.219,21.115,33.216,21.079z"/>
		<path style="fill:#00C1D0;" d="M33.263,21.163c0.038,0.015,0.047,0.048,0.048,0.084C33.278,21.228,33.265,21.199,33.263,21.163z"
			/>
		<path style="fill:#00C6B9;" d="M50.585,51.129c0.036,0.016,0.044,0.047,0.047,0.082C50.602,51.192,50.586,51.164,50.585,51.129z"
			/>
		<path style="fill:#00C1D0;" d="M33.341,21.295c0.048,0.011,0.054,0.047,0.05,0.087C33.355,21.364,33.345,21.332,33.341,21.295z"/>
		<path style="fill:#00C1D0;" d="M33.388,21.379c0.043,0.013,0.05,0.047,0.049,0.086C33.403,21.446,33.391,21.415,33.388,21.379z"/>
		<path style="fill:#00C1D0;" d="M33.514,21.595c0.047,0.012,0.053,0.047,0.05,0.087C33.529,21.663,33.517,21.631,33.514,21.595z"/>
		<path style="fill:#00C1D0;" d="M33.561,21.678c0.042,0.014,0.048,0.048,0.048,0.086C33.576,21.745,33.564,21.714,33.561,21.678z"
			/>
		<path style="fill:#00C1D0;" d="M33.608,21.762c0.036,0.016,0.044,0.047,0.047,0.082C33.624,21.826,33.61,21.798,33.608,21.762z"/>
		<path style="fill:#00C6B9;" d="M50.664,51.26c0.045,0.013,0.051,0.048,0.049,0.087C50.678,51.329,50.667,51.297,50.664,51.26z"/>
		<path style="fill:#00C1D0;" d="M33.687,21.894c0.045,0.013,0.051,0.048,0.049,0.087C33.702,21.962,33.69,21.93,33.687,21.894z"/>
		<path style="fill:#00C1D0;" d="M33.734,21.977c0.039,0.016,0.047,0.048,0.047,0.085C33.749,22.044,33.736,22.014,33.734,21.977z"
			/>
		<path style="fill:#00C1D0;" d="M33.781,22.062c0.035,0.016,0.043,0.047,0.046,0.081C33.797,22.124,33.782,22.097,33.781,22.062z"
			/>
		<path style="fill:#00C6B9;" d="M50.711,51.344c0.039,0.015,0.047,0.048,0.048,0.085C50.726,51.41,50.713,51.38,50.711,51.344z"/>
		<path style="fill:#00C1D0;" d="M33.86,22.193c0.044,0.013,0.05,0.048,0.049,0.087C33.874,22.261,33.863,22.229,33.86,22.193z"/>
		<path style="fill:#00C1D0;" d="M33.907,22.277c0.037,0.016,0.046,0.048,0.047,0.084C33.922,22.342,33.909,22.313,33.907,22.277z"
			/>
		<path style="fill:#00C1D0;" d="M33.985,22.409c0.047,0.012,0.053,0.047,0.049,0.088C33.999,22.478,33.989,22.446,33.985,22.409z"
			/>
		<path style="fill:#00C1D0;" d="M34.032,22.493c0.043,0.014,0.049,0.048,0.049,0.086C34.047,22.56,34.034,22.529,34.032,22.493z"/>
		<path style="fill:#00C1D0;" d="M34.08,22.578c0.015,0,0.03-0.001,0.045-0.001c0,0.028,0.001,0.055,0.001,0.083
			C34.095,22.641,34.081,22.613,34.08,22.578z"/>
		<path style="fill:#00C2D0;" d="M42.657,22.704c-0.034-0.016-0.042-0.047-0.045-0.08C42.642,22.642,42.656,22.669,42.657,22.704z"
			/>
		<path style="fill:#00C1D0;" d="M34.158,22.709c0.046,0.012,0.052,0.047,0.05,0.087C34.172,22.777,34.161,22.745,34.158,22.709z"/>
		<path style="fill:#00C1D0;" d="M34.205,22.792c0.039,0.015,0.047,0.048,0.048,0.085C34.22,22.858,34.207,22.828,34.205,22.792z"/>
		<path style="fill:#00C1D0;" d="M34.252,22.877c0.035,0.016,0.043,0.048,0.046,0.082C34.268,22.94,34.253,22.912,34.252,22.877z"/>
		<path style="fill:#00C1D0;" d="M34.331,23.008c0.044,0.013,0.05,0.047,0.049,0.086C34.346,23.076,34.334,23.044,34.331,23.008z"/>
		<path style="fill:#00C1D0;" d="M34.378,23.092c0.038,0.016,0.046,0.048,0.047,0.085C34.393,23.157,34.38,23.128,34.378,23.092z"/>
		<path style="fill:#00C1D0;" d="M34.503,23.307c0.043,0.014,0.049,0.048,0.048,0.087C34.517,23.375,34.506,23.344,34.503,23.307z"
			/>
		<path style="fill:#00C1D0;" d="M34.55,23.392c0.037,0.016,0.045,0.047,0.047,0.083C34.566,23.456,34.552,23.427,34.55,23.392z"/>
		<path style="fill:#00C2D0;" d="M29.367,23.648c0.001-0.036,0.009-0.069,0.047-0.085C29.412,23.599,29.399,23.629,29.367,23.648z"
			/>
		<path style="fill:#00C2D0;" d="M29.24,23.865c-0.001-0.038,0.006-0.072,0.048-0.086C29.285,23.815,29.274,23.846,29.24,23.865z"/>
		<path style="fill:#00C2D0;" d="M29.194,23.946c0.002-0.035,0.01-0.067,0.047-0.083C29.24,23.899,29.226,23.927,29.194,23.946z"/>
		<path style="fill:#00C2D0;" d="M29.114,24.082c-0.003-0.04,0.003-0.075,0.049-0.088C29.16,24.031,29.149,24.064,29.114,24.082z"/>
		<path style="fill:#00C2D0;" d="M29.068,24.164c0-0.037,0.008-0.07,0.049-0.085C29.114,24.115,29.101,24.145,29.068,24.164z"/>
		<path style="fill:#00C2D0;" d="M29.022,24.244c0.003-0.034,0.011-0.065,0.046-0.081C29.067,24.198,29.052,24.225,29.022,24.244z"
			/>
		<path style="fill:#00C2D0;" d="M28.941,24.381c-0.002-0.039,0.005-0.074,0.049-0.087C28.987,24.331,28.975,24.362,28.941,24.381z"
			/>
		<path style="fill:#00C2D0;" d="M28.895,24.463c0.001-0.037,0.009-0.069,0.047-0.085C28.941,24.414,28.927,24.443,28.895,24.463z"
			/>
		<path style="fill:#00C2D0;" d="M28.85,24.543c0.003-0.034,0.011-0.064,0.045-0.08C28.895,24.498,28.88,24.524,28.85,24.543z"/>
		<path style="fill:#00C2CE;" d="M35.32,24.721c0.039,0.015,0.047,0.048,0.048,0.085C35.335,24.788,35.322,24.757,35.32,24.721z"/>
		<path style="fill:#00C2CE;" d="M35.367,24.806c0.035,0.016,0.043,0.047,0.046,0.081C35.384,24.868,35.368,24.841,35.367,24.806z"
			/>
		<path style="fill:#00C2CE;" d="M35.446,24.937c0.044,0.013,0.05,0.048,0.049,0.086C35.46,25.005,35.449,24.973,35.446,24.937z"/>
		<path style="fill:#00C2CE;" d="M35.493,25.021c0.037,0.016,0.046,0.048,0.047,0.084C35.508,25.086,35.495,25.057,35.493,25.021z"
			/>
		<path style="fill:#00C2CE;" d="M35.571,25.153c0.047,0.012,0.053,0.047,0.05,0.088C35.585,25.222,35.575,25.19,35.571,25.153z"/>
		<path style="fill:#00C2CE;" d="M35.618,25.237c0.043,0.014,0.049,0.048,0.049,0.086C35.633,25.304,35.621,25.273,35.618,25.237z"
			/>
		<path style="fill:#00C2CE;" d="M35.666,25.321c0.036,0.016,0.045,0.047,0.047,0.082C35.682,25.384,35.667,25.356,35.666,25.321z"
			/>
		<path style="fill:#00C2CE;" d="M35.744,25.452c0.046,0.012,0.052,0.047,0.05,0.087C35.759,25.521,35.747,25.489,35.744,25.452z"/>
		<path style="fill:#00C2CE;" d="M35.791,25.536c0.039,0.015,0.047,0.048,0.048,0.085C35.807,25.602,35.794,25.572,35.791,25.536z"
			/>
		<path style="fill:#00C2CE;" d="M35.839,25.62c0.035,0.016,0.043,0.047,0.046,0.082C35.854,25.684,35.839,25.656,35.839,25.62z"/>
		<path style="fill:#00C2CE;" d="M35.917,25.752c0.044,0.013,0.05,0.048,0.049,0.086C35.932,25.819,35.92,25.788,35.917,25.752z"/>
		<path style="fill:#00C2CE;" d="M35.964,25.836c0.038,0.016,0.046,0.048,0.047,0.085C35.979,25.901,35.966,25.871,35.964,25.836z"
			/>
		<path style="fill:#00C2CC;" d="M27.137,27.505c0.001-0.036,0.01-0.068,0.047-0.084C27.182,27.457,27.168,27.486,27.137,27.505z"/>
		<path style="fill:#00C2CC;" d="M36.906,27.465c0.039,0.015,0.047,0.048,0.048,0.085C36.921,27.531,36.908,27.501,36.906,27.465z"
			/>
		<path style="fill:#00C2CC;" d="M27.056,27.641c-0.003-0.04,0.003-0.075,0.05-0.087C27.102,27.59,27.091,27.622,27.056,27.641z"/>
		<path style="fill:#00C2CC;" d="M36.954,27.549c0.035,0.016,0.043,0.047,0.046,0.081C36.97,27.612,36.954,27.585,36.954,27.549z"/>
		<path style="fill:#00C2CC;" d="M27.01,27.723c0-0.038,0.006-0.072,0.048-0.086C27.056,27.673,27.044,27.704,27.01,27.723z"/>
		<path style="fill:#00C2CC;" d="M37.032,27.681c0.044,0.013,0.05,0.048,0.049,0.086C37.046,27.749,37.035,27.717,37.032,27.681z"/>
		<path style="fill:#00C2CC;" d="M37.079,27.765c0.037,0.016,0.046,0.048,0.047,0.083C37.095,27.829,37.081,27.8,37.079,27.765z"/>
		<path style="fill:#00C2CC;" d="M26.883,27.94c-0.002-0.039,0.004-0.074,0.049-0.087C26.93,27.889,26.918,27.921,26.883,27.94z"/>
		<path style="fill:#00C2CC;" d="M37.157,27.897c0.047,0.012,0.053,0.047,0.05,0.087C37.171,27.966,37.161,27.934,37.157,27.897z"/>
		<path style="fill:#00C2CC;" d="M26.838,28.022c0-0.037,0.009-0.07,0.048-0.085C26.884,27.973,26.871,28.003,26.838,28.022z"/>
		<path style="fill:#00C2CC;" d="M37.204,27.98c0.043,0.014,0.049,0.048,0.049,0.086C37.219,28.047,37.207,28.017,37.204,27.98z"/>
		<path style="fill:#00C2CC;" d="M26.757,28.156c-0.004-0.041,0.002-0.076,0.05-0.087C26.803,28.105,26.792,28.138,26.757,28.156z"
			/>
		<path style="fill:#00C2CC;" d="M37.252,28.064c0.036,0.016,0.045,0.047,0.047,0.082C37.268,28.128,37.254,28.1,37.252,28.064z"/>
		<path style="fill:#00C2CC;" d="M26.711,28.239c-0.001-0.039,0.005-0.073,0.049-0.087C26.757,28.188,26.745,28.22,26.711,28.239z"
			/>
		<path style="fill:#00C2CC;" d="M37.33,28.196c0.046,0.012,0.052,0.047,0.05,0.087C37.345,28.264,37.333,28.233,37.33,28.196z"/>
		<path style="fill:#00C2CC;" d="M26.665,28.32c0.001-0.036,0.01-0.068,0.047-0.084C26.711,28.272,26.697,28.301,26.665,28.32z"/>
		<path style="fill:#00C2CC;" d="M37.378,28.28c0.039,0.016,0.047,0.049,0.047,0.086C37.393,28.346,37.38,28.316,37.378,28.28z"/>
		<path style="fill:#00C2CC;" d="M37.424,28.364c0.035,0.016,0.044,0.047,0.046,0.082C37.44,28.427,37.425,28.4,37.424,28.364z"/>
		<path style="fill:#00C2CC;" d="M26.538,28.537c0-0.038,0.007-0.072,0.049-0.085C26.584,28.488,26.572,28.518,26.538,28.537z"/>
		<path style="fill:#00C2CC;" d="M37.503,28.495c0.044,0.013,0.05,0.048,0.049,0.086C37.518,28.563,37.507,28.532,37.503,28.495z"/>
		<path style="fill:#00C2CC;" d="M26.493,28.619c0.002-0.035,0.01-0.067,0.046-0.083C26.538,28.571,26.524,28.6,26.493,28.619z"/>
		<path style="fill:#00C2CC;" d="M37.551,28.579c0.038,0.016,0.046,0.048,0.047,0.085C37.565,28.645,37.552,28.615,37.551,28.579z"
			/>
		<path style="fill:#00C2CC;" d="M26.412,28.754c-0.002-0.04,0.004-0.075,0.05-0.087C26.458,28.704,26.447,28.736,26.412,28.754z"/>
		<path style="fill:#00C2CC;" d="M26.367,28.837c0-0.037,0.008-0.07,0.047-0.086C26.412,28.787,26.4,28.818,26.367,28.837z"/>
		<path style="fill:#00C2CC;" d="M37.676,28.795c0.043,0.014,0.049,0.048,0.049,0.086C37.69,28.863,37.678,28.831,37.676,28.795z"/>
		<path style="fill:#00C2CC;" d="M26.321,28.917c0.003-0.034,0.012-0.065,0.047-0.081C26.366,28.871,26.351,28.898,26.321,28.917z"
			/>
		<path style="fill:#00C2CC;" d="M37.723,28.879c0.037,0.015,0.045,0.047,0.048,0.082C37.739,28.943,37.725,28.915,37.723,28.879z"
			/>
		<path style="fill:#00C2CC;" d="M26.24,29.054c-0.001-0.039,0.005-0.073,0.048-0.087C26.285,29.003,26.274,29.035,26.24,29.054z"/>
		<path style="fill:#00C2CC;" d="M37.802,29.011c0.046,0.012,0.052,0.047,0.049,0.087C37.816,29.08,37.805,29.047,37.802,29.011z"/>
		<path style="fill:#00C2CC;" d="M26.194,29.135c0.001-0.036,0.009-0.069,0.047-0.084C26.24,29.087,26.226,29.116,26.194,29.135z"/>
		<path style="fill:#00C2CC;" d="M37.848,29.095c0.04,0.015,0.048,0.048,0.048,0.086C37.863,29.161,37.851,29.131,37.848,29.095z"/>
		<path style="fill:#00C2CC;" d="M37.896,29.179c0.035,0.016,0.044,0.047,0.046,0.082C37.912,29.242,37.897,29.214,37.896,29.179z"
			/>
		<path style="fill:#00C2CC;" d="M38.022,29.394c0.038,0.016,0.046,0.048,0.047,0.085C38.037,29.46,38.024,29.43,38.022,29.394z"/>
		<path style="fill:#00C2CC;" d="M38.069,29.478c0.034,0.016,0.042,0.047,0.045,0.08C38.084,29.54,38.069,29.513,38.069,29.478z"/>
		<path style="fill:#00C3C8;" d="M25.079,31.064c0.001-0.036,0.01-0.068,0.047-0.084C25.125,31.016,25.111,31.045,25.079,31.064z"/>
		<path style="fill:#00C3C8;" d="M24.998,31.199c-0.003-0.04,0.003-0.076,0.05-0.087C25.045,31.149,25.034,31.181,24.998,31.199z"/>
		<path style="fill:#00C3C8;" d="M24.952,31.281c0-0.038,0.007-0.072,0.049-0.086C24.998,31.232,24.986,31.262,24.952,31.281z"/>
		<path style="fill:#00C3C8;" d="M24.907,31.363c0.002-0.035,0.01-0.067,0.046-0.083C24.952,31.315,24.938,31.344,24.907,31.363z"/>
		<path style="fill:#00C3C8;" d="M24.826,31.498c-0.002-0.04,0.004-0.075,0.05-0.087C24.872,31.448,24.861,31.48,24.826,31.498z"/>
		<path style="fill:#00C3C8;" d="M24.781,31.581c0-0.037,0.008-0.07,0.047-0.086C24.826,31.531,24.814,31.562,24.781,31.581z"/>
		<path style="fill:#00C3C8;" d="M24.654,31.797c-0.001-0.039,0.005-0.073,0.048-0.087C24.699,31.747,24.688,31.779,24.654,31.797z"
			/>
		<path style="fill:#00C3C8;" d="M24.608,31.879c0.001-0.036,0.009-0.069,0.047-0.084C24.654,31.831,24.64,31.86,24.608,31.879z"/>
		<path style="fill:#00C3C8;" d="M39.435,31.838c0.04,0.015,0.048,0.048,0.048,0.085C39.45,31.905,39.437,31.875,39.435,31.838z"/>
		<path style="fill:#00C3C8;" d="M39.482,31.923c0.035,0.016,0.044,0.048,0.046,0.082C39.498,31.986,39.483,31.958,39.482,31.923z"
			/>
		<path style="fill:#00C3C8;" d="M24.481,32.096c-0.001-0.038,0.006-0.072,0.049-0.086C24.527,32.046,24.515,32.078,24.481,32.096z"
			/>
		<path style="fill:#00C3C8;" d="M39.56,32.054c0.045,0.013,0.051,0.047,0.05,0.086C39.575,32.122,39.564,32.09,39.56,32.054z"/>
		<path style="fill:#00C3C8;" d="M24.435,32.177c0.002-0.035,0.011-0.067,0.047-0.083C24.481,32.13,24.467,32.158,24.435,32.177z"/>
		<path style="fill:#00C3C8;" d="M39.608,32.138c0.038,0.016,0.047,0.048,0.047,0.085C39.623,32.203,39.61,32.174,39.608,32.138z"/>
		<path style="fill:#00C3C8;" d="M24.355,32.313c-0.002-0.04,0.003-0.075,0.05-0.087C24.402,32.263,24.39,32.295,24.355,32.313z"/>
		<path style="fill:#00C3C8;" d="M39.655,32.222c0.034,0.016,0.043,0.047,0.045,0.081C39.671,32.284,39.655,32.258,39.655,32.222z"
			/>
		<path style="fill:#00C3C8;" d="M24.309,32.395c0-0.037,0.008-0.07,0.048-0.085C24.355,32.346,24.342,32.376,24.309,32.395z"/>
		<path style="fill:#00C3C8;" d="M39.733,32.353c0.043,0.013,0.05,0.048,0.049,0.086C39.748,32.421,39.736,32.39,39.733,32.353z"/>
		<path style="fill:#00C3C8;" d="M24.263,32.476c0.003-0.034,0.011-0.066,0.046-0.082C24.308,32.429,24.294,32.457,24.263,32.476z"
			/>
		<path style="fill:#00C3C8;" d="M39.781,32.437c0.037,0.016,0.045,0.048,0.047,0.084C39.795,32.503,39.782,32.473,39.781,32.437z"
			/>
		<path style="fill:#00C3C8;" d="M24.182,32.612c-0.001-0.039,0.005-0.074,0.049-0.087C24.228,32.562,24.217,32.593,24.182,32.612z"
			/>
		<path style="fill:#00C3C8;" d="M39.859,32.569c0.047,0.012,0.052,0.047,0.05,0.087C39.873,32.638,39.862,32.606,39.859,32.569z"/>
		<path style="fill:#00C3C8;" d="M24.137,32.695c0-0.037,0.009-0.069,0.047-0.085C24.182,32.645,24.169,32.675,24.137,32.695z"/>
		<path style="fill:#00C3C8;" d="M39.906,32.653c0.042,0.014,0.048,0.048,0.048,0.086C39.92,32.72,39.908,32.689,39.906,32.653z"/>
		<path style="fill:#00C3C8;" d="M24.091,32.774c0.003-0.034,0.012-0.064,0.046-0.081C24.137,32.729,24.121,32.756,24.091,32.774z"
			/>
		<path style="fill:#00C3C8;" d="M39.953,32.737c0.036,0.016,0.045,0.047,0.047,0.082C39.969,32.801,39.954,32.773,39.953,32.737z"
			/>
		<path style="fill:#00C4C4;" d="M21.826,36.687c-0.003-0.04,0.003-0.076,0.05-0.087C21.873,36.636,21.861,36.668,21.826,36.687z"/>
		<path style="fill:#00C3C8;" d="M24.01,32.911c-0.001-0.038,0.006-0.073,0.048-0.087C24.055,32.861,24.044,32.892,24.01,32.911z"/>
		<path style="fill:#00C3C8;" d="M40.032,32.87c0.025,0.003,0.042,0.016,0.053,0.038c-0.001,0.016-0.003,0.032-0.005,0.048
			C40.046,32.937,40.036,32.906,40.032,32.87z"/>
		<path style="fill:#00C3C8;" d="M23.964,32.993c0.001-0.036,0.01-0.068,0.047-0.084C24.01,32.945,23.996,32.974,23.964,32.993z"/>
		<path style="fill:#00C3C8;" d="M40.079,32.953c0.039,0.015,0.047,0.048,0.048,0.085C40.094,33.019,40.081,32.989,40.079,32.953z"
			/>
		<path style="fill:#00C3C8;" d="M40.126,33.037c0.034,0.016,0.043,0.047,0.045,0.081C40.142,33.099,40.127,33.072,40.126,33.037z"
			/>
		<path style="fill:#00C3C8;" d="M23.838,33.21c0-0.038,0.006-0.072,0.048-0.086C23.884,33.161,23.872,33.192,23.838,33.21z"/>
		<path style="fill:#00C3C8;" d="M23.792,33.29c0.003-0.035,0.011-0.066,0.047-0.081C23.837,33.244,23.823,33.272,23.792,33.29z"/>
		<path style="fill:#00C3C8;" d="M23.711,33.427c-0.002-0.039,0.004-0.074,0.049-0.087C23.757,33.377,23.746,33.409,23.711,33.427z"
			/>
		<path style="fill:#00C3C8;" d="M23.665,33.509c0.001-0.037,0.009-0.07,0.048-0.085C23.711,33.46,23.698,33.49,23.665,33.509z"/>
		<path style="fill:#00C3C8;" d="M23.62,33.589c0.003-0.034,0.012-0.065,0.046-0.081C23.665,33.544,23.649,33.57,23.62,33.589z"/>
		<path style="fill:#00C3C8;" d="M23.539,33.726c-0.001-0.039,0.005-0.073,0.049-0.086C23.585,33.676,23.573,33.707,23.539,33.726z"
			/>
		<path style="fill:#00C3C8;" d="M23.493,33.808c0.001-0.036,0.009-0.068,0.047-0.084C23.538,33.759,23.525,33.789,23.493,33.808z"
			/>
		<path style="fill:#00C3C5;" d="M40.974,34.498c0.046,0.012,0.052,0.047,0.05,0.087C40.988,34.567,40.977,34.535,40.974,34.498z"/>
		<path style="fill:#00C3C5;" d="M41.021,34.582c0.04,0.015,0.048,0.048,0.048,0.086C41.036,34.649,41.023,34.618,41.021,34.582z"/>
		<path style="fill:#00C3C5;" d="M41.068,34.666c0.035,0.016,0.044,0.048,0.046,0.082C41.084,34.73,41.069,34.702,41.068,34.666z"/>
		<path style="fill:#00C3C5;" d="M41.147,34.798c0.045,0.013,0.051,0.047,0.049,0.086C41.162,34.866,41.15,34.834,41.147,34.798z"/>
		<path style="fill:#00C3C5;" d="M41.194,34.881c0.038,0.016,0.046,0.048,0.047,0.085C41.209,34.947,41.196,34.917,41.194,34.881z"
			/>
		<path style="fill:#00C3C5;" d="M41.241,34.966c0.034,0.016,0.043,0.047,0.046,0.081C41.257,35.028,41.242,35.001,41.241,34.966z"
			/>
		<path style="fill:#00C3C5;" d="M41.319,35.097c0.043,0.014,0.05,0.048,0.049,0.086C41.334,35.165,41.323,35.133,41.319,35.097z"/>
		<path style="fill:#00C3C5;" d="M41.367,35.181c0.037,0.016,0.046,0.048,0.047,0.083C41.382,35.246,41.369,35.217,41.367,35.181z"
			/>
		<path style="fill:#00C3C5;" d="M41.445,35.313c0.047,0.012,0.052,0.047,0.049,0.087C41.459,35.382,41.449,35.35,41.445,35.313z"/>
		<path style="fill:#00C3C5;" d="M41.492,35.397c0.042,0.014,0.049,0.048,0.048,0.086C41.507,35.464,41.494,35.433,41.492,35.397z"
			/>
		<path style="fill:#00C3C5;" d="M41.539,35.481c0.036,0.016,0.045,0.047,0.047,0.082C41.555,35.544,41.54,35.517,41.539,35.481z"/>
		<path style="fill:#00C3C5;" d="M41.618,35.612c0.045,0.013,0.051,0.048,0.049,0.087C41.632,35.681,41.621,35.649,41.618,35.612z"
			/>
		<path style="fill:#00C3C5;" d="M41.665,35.696c0.039,0.015,0.047,0.048,0.048,0.085C41.68,35.762,41.667,35.732,41.665,35.696z"/>
		<path style="fill:#00C3C5;" d="M41.712,35.781c0.034,0.016,0.043,0.047,0.046,0.082C41.729,35.843,41.713,35.816,41.712,35.781z"
			/>
		<path style="fill:#00C3C5;" d="M41.838,35.996c0.037,0.016,0.046,0.048,0.047,0.084C41.854,36.061,41.84,36.031,41.838,35.996z"/>
		<path style="fill:#00C3C5;" d="M41.964,36.211c0.042,0.014,0.049,0.048,0.048,0.086C41.978,36.279,41.966,36.248,41.964,36.211z"
			/>
		<path style="fill:#00C3C5;" d="M42.01,36.296c0.037,0.016,0.045,0.047,0.047,0.083C42.026,36.36,42.012,36.331,42.01,36.296z"/>
		<path style="fill:#00C3C5;" d="M42.089,36.427c0.046,0.012,0.052,0.047,0.05,0.087C42.104,36.495,42.092,36.464,42.089,36.427z"/>
		<path style="fill:#00C3C5;" d="M42.137,36.511c0.039,0.016,0.047,0.049,0.047,0.086C42.151,36.578,42.138,36.547,42.137,36.511z"
			/>
		<path style="fill:#00C3C5;" d="M42.183,36.595c0.035,0.016,0.044,0.047,0.046,0.081C42.199,36.658,42.184,36.631,42.183,36.595z"
			/>
		<path style="fill:#00C4C4;" d="M21.78,36.769c0-0.038,0.006-0.072,0.048-0.086C21.826,36.719,21.814,36.75,21.78,36.769z"/>
		<path style="fill:#00C4C4;" d="M21.735,36.85c0.002-0.035,0.01-0.067,0.047-0.083C21.78,36.803,21.766,36.831,21.735,36.85z"/>
		<path style="fill:#00C4C4;" d="M21.654,36.986c-0.002-0.04,0.004-0.075,0.049-0.087C21.7,36.935,21.689,36.967,21.654,36.986z"/>
		<path style="fill:#00C4C4;" d="M21.608,37.068c0-0.037,0.008-0.07,0.048-0.086C21.654,37.019,21.641,37.049,21.608,37.068z"/>
		<path style="fill:#00C4C3;" d="M42.655,37.41c0.036,0.016,0.044,0.048,0.046,0.082C42.67,37.474,42.655,37.446,42.655,37.41z"/>
		<path style="fill:#00C4C3;" d="M42.733,37.541c0.045,0.013,0.051,0.047,0.049,0.086C42.748,37.609,42.736,37.578,42.733,37.541z"
			/>
		<path style="fill:#00C4C3;" d="M42.78,37.625c0.038,0.016,0.046,0.048,0.047,0.085C42.795,37.691,42.782,37.661,42.78,37.625z"/>
		<path style="fill:#00C4C3;" d="M42.827,37.71c0.034,0.016,0.043,0.047,0.046,0.081C42.843,37.772,42.828,37.745,42.827,37.71z"/>
		<path style="fill:#00C4C3;" d="M42.906,37.841c0.043,0.014,0.05,0.048,0.049,0.087C42.92,37.909,42.909,37.877,42.906,37.841z"/>
		<path style="fill:#00C4C3;" d="M42.953,37.925c0.037,0.016,0.046,0.047,0.047,0.083C42.968,37.99,42.955,37.961,42.953,37.925z"/>
		<path style="fill:#00C4C3;" d="M43.031,38.057c0.047,0.012,0.052,0.047,0.049,0.087C43.045,38.126,43.035,38.093,43.031,38.057z"
			/>
		<path style="fill:#00C4C3;" d="M43.078,38.141c0.042,0.014,0.049,0.048,0.048,0.086C43.093,38.208,43.081,38.177,43.078,38.141z"
			/>
		<path style="fill:#00C4C3;" d="M43.125,38.225c0.036,0.016,0.045,0.047,0.047,0.082C43.142,38.288,43.127,38.26,43.125,38.225z"/>
		<path style="fill:#00C4C3;" d="M43.204,38.356c0.045,0.012,0.051,0.047,0.049,0.087C43.218,38.425,43.207,38.393,43.204,38.356z"
			/>
		<path style="fill:#00C4C3;" d="M43.251,38.44c0.039,0.015,0.047,0.048,0.048,0.085C43.267,38.506,43.254,38.476,43.251,38.44z"/>
		<path style="fill:#00C4C3;" d="M43.299,38.524c0.035,0.016,0.043,0.047,0.046,0.082C43.315,38.587,43.299,38.56,43.299,38.524z"/>
		<path style="fill:#00C4C3;" d="M43.376,38.656c0.044,0.013,0.05,0.047,0.05,0.086C43.392,38.723,43.38,38.692,43.376,38.656z"/>
		<path style="fill:#00C4C3;" d="M43.425,38.74c0.037,0.016,0.046,0.048,0.047,0.084C43.44,38.805,43.427,38.775,43.425,38.74z"/>
		<path style="fill:#00C4C3;" d="M43.502,38.872c0.048,0.011,0.053,0.047,0.05,0.087C43.517,38.941,43.506,38.909,43.502,38.872z"/>
		<path style="fill:#00C4C3;" d="M43.55,38.955c0.042,0.014,0.049,0.048,0.048,0.086C43.564,39.023,43.552,38.991,43.55,38.955z"/>
		<path style="fill:#00C4C3;" d="M43.596,39.04c0.037,0.016,0.045,0.047,0.047,0.083C43.612,39.104,43.598,39.075,43.596,39.04z"/>
		<path style="fill:#00C4C3;" d="M43.675,39.171c0.046,0.013,0.051,0.048,0.049,0.087C43.69,39.239,43.679,39.207,43.675,39.171z"/>
		<path style="fill:#00C4C3;" d="M43.722,39.255c0.04,0.015,0.048,0.048,0.048,0.086C43.737,39.322,43.724,39.291,43.722,39.255z"/>
		<path style="fill:#00C4C3;" d="M43.769,39.339c0.035,0.016,0.044,0.047,0.046,0.081C43.786,39.402,43.77,39.375,43.769,39.339z"/>
		<path style="fill:#00C4C3;" d="M43.848,39.471c0.044,0.013,0.051,0.048,0.049,0.087C43.862,39.539,43.851,39.507,43.848,39.471z"
			/>
		<path style="fill:#00C4C3;" d="M43.895,39.554c0.038,0.015,0.046,0.048,0.048,0.084C43.911,39.62,43.897,39.59,43.895,39.554z"/>
		<path style="fill:#00C4C3;" d="M44.02,39.77c0.043,0.013,0.05,0.047,0.049,0.086C44.035,39.837,44.023,39.807,44.02,39.77z"/>
		<path style="fill:#00C4C3;" d="M44.068,39.854c0.037,0.016,0.045,0.048,0.047,0.083C44.084,39.918,44.07,39.89,44.068,39.854z"/>
		<path style="fill:#00C4C3;" d="M44.146,39.986c0.047,0.012,0.052,0.047,0.05,0.087C44.161,40.055,44.149,40.023,44.146,39.986z"/>
		<path style="fill:#00C4C3;" d="M44.194,40.069c0.04,0.015,0.048,0.048,0.048,0.086C44.209,40.136,44.196,40.106,44.194,40.069z"/>
		<path style="fill:#00C4C3;" d="M44.24,40.154c0.036,0.016,0.044,0.047,0.046,0.082C44.256,40.217,44.241,40.189,44.24,40.154z"/>
		<path style="fill:#00C4C1;" d="M44.539,40.669c0.037,0.015,0.046,0.047,0.047,0.083C44.555,40.733,44.541,40.704,44.539,40.669z"
			/>
		<path style="fill:#00C4C1;" d="M44.665,40.884c0.042,0.014,0.049,0.048,0.048,0.086C44.679,40.951,44.667,40.921,44.665,40.884z"
			/>
		<path style="fill:#00C4C1;" d="M44.712,40.969c0.036,0.016,0.044,0.047,0.047,0.082C44.728,41.032,44.713,41.004,44.712,40.969z"
			/>
		<path style="fill:#00C4C1;" d="M44.79,41.1c0.045,0.012,0.051,0.047,0.05,0.087C44.805,41.168,44.793,41.137,44.79,41.1z"/>
		<path style="fill:#00C4C1;" d="M44.838,41.184c0.039,0.016,0.047,0.048,0.047,0.085C44.853,41.25,44.84,41.22,44.838,41.184z"/>
		<path style="fill:#00C4C1;" d="M44.885,41.268c0.035,0.016,0.043,0.047,0.046,0.082C44.901,41.331,44.885,41.304,44.885,41.268z"
			/>
		<path style="fill:#00C4C1;" d="M44.963,41.4c0.044,0.013,0.05,0.047,0.049,0.086C44.978,41.467,44.966,41.436,44.963,41.4z"/>
		<path style="fill:#00C4C1;" d="M45.011,41.483c0.037,0.016,0.046,0.048,0.047,0.084C45.025,41.549,45.013,41.519,45.011,41.483z"
			/>
		<path style="fill:#00C4C1;" d="M45.088,41.616c0.047,0.011,0.053,0.047,0.05,0.087C45.103,41.684,45.092,41.652,45.088,41.616z"/>
		<path style="fill:#00C4C1;" d="M45.136,41.699c0.042,0.014,0.049,0.048,0.048,0.087C45.15,41.766,45.138,41.735,45.136,41.699z"/>
		<path style="fill:#00C4C1;" d="M45.183,41.783c0.037,0.016,0.045,0.047,0.047,0.082C45.198,41.847,45.184,41.819,45.183,41.783z"
			/>
		<path style="fill:#00C4C1;" d="M45.262,41.915c0.045,0.013,0.051,0.048,0.049,0.087C45.276,41.983,45.265,41.951,45.262,41.915z"
			/>
		<path style="fill:#00C4C1;" d="M45.309,41.998c0.04,0.015,0.048,0.048,0.048,0.085C45.323,42.065,45.311,42.035,45.309,41.998z"/>
		<path style="fill:#00C4C1;" d="M45.356,42.083c0.035,0.016,0.044,0.047,0.046,0.082C45.372,42.145,45.357,42.118,45.356,42.083z"
			/>
		<path style="fill:#00C5BD;" d="M46.942,44.827c0.035,0.016,0.043,0.047,0.046,0.082C46.958,44.889,46.943,44.862,46.942,44.827z"
			/>
		<path style="fill:#00C5BD;" d="M47.02,44.958c0.045,0.013,0.051,0.047,0.05,0.086C47.035,45.026,47.023,44.995,47.02,44.958z"/>
		<path style="fill:#00C5BD;" d="M47.068,45.042c0.038,0.015,0.046,0.048,0.047,0.084C47.083,45.107,47.07,45.078,47.068,45.042z"/>
		<path style="fill:#00C5BD;" d="M47.193,45.257c0.043,0.014,0.049,0.048,0.049,0.086C47.208,45.325,47.196,45.294,47.193,45.257z"
			/>
		<path style="fill:#00C5BD;" d="M47.241,45.342c0.037,0.016,0.045,0.048,0.047,0.083C47.256,45.406,47.242,45.377,47.241,45.342z"
			/>
		<path style="fill:#00C5BD;" d="M47.319,45.473c0.046,0.012,0.052,0.047,0.05,0.087C47.333,45.542,47.322,45.51,47.319,45.473z"/>
		<path style="fill:#00C5BD;" d="M47.366,45.557c0.04,0.015,0.048,0.049,0.047,0.086C47.381,45.624,47.369,45.593,47.366,45.557z"/>
		<path style="fill:#00C5BD;" d="M47.413,45.641c0.036,0.016,0.044,0.047,0.047,0.082C47.429,45.705,47.414,45.677,47.413,45.641z"
			/>
		<path style="fill:#00C5BD;" d="M47.492,45.773c0.045,0.013,0.051,0.048,0.049,0.087C47.506,45.841,47.495,45.809,47.492,45.773z"
			/>
		<path style="fill:#00C5BD;" d="M47.539,45.857c0.039,0.016,0.047,0.048,0.047,0.085C47.554,45.922,47.541,45.893,47.539,45.857z"
			/>
		<path style="fill:#00C5BD;" d="M47.617,45.989c0.049,0.011,0.054,0.047,0.05,0.087C47.631,46.058,47.621,46.026,47.617,45.989z"/>
		<path style="fill:#00C5BD;" d="M47.664,46.072c0.044,0.013,0.05,0.048,0.049,0.086C47.678,46.14,47.667,46.109,47.664,46.072z"/>
		<path style="fill:#00C5BD;" d="M47.711,46.156c0.037,0.015,0.046,0.047,0.048,0.083C47.727,46.221,47.713,46.192,47.711,46.156z"
			/>
		<path style="fill:#00C5BD;" d="M47.79,46.288c0.047,0.012,0.053,0.047,0.05,0.087C47.804,46.357,47.793,46.325,47.79,46.288z"/>
		<path style="fill:#00C5BD;" d="M47.837,46.372c0.042,0.014,0.049,0.048,0.048,0.086C47.852,46.439,47.839,46.408,47.837,46.372z"
			/>
		<path style="fill:#00C5BD;" d="M47.884,46.456c0.036,0.016,0.044,0.048,0.046,0.083C47.9,46.52,47.886,46.492,47.884,46.456z"/>
		<path style="fill:#00C5BD;" d="M47.962,46.588c0.045,0.012,0.051,0.047,0.05,0.086C47.977,46.656,47.966,46.624,47.962,46.588z"/>
		<path style="fill:#00C5BD;" d="M48.01,46.671c0.039,0.016,0.047,0.048,0.047,0.085C48.025,46.737,48.012,46.707,48.01,46.671z"/>
		<path style="fill:#00C5BD;" d="M48.057,46.756c0.035,0.016,0.043,0.047,0.046,0.082C48.073,46.818,48.058,46.791,48.057,46.756z"
			/>
		<path style="fill:#00C6B9;" d="M49.597,49.415c0.039,0.016,0.047,0.048,0.047,0.085C49.611,49.481,49.598,49.451,49.597,49.415z"
			/>
		<path style="fill:#00C6B9;" d="M49.643,49.499c0.035,0.016,0.043,0.047,0.046,0.081C49.66,49.562,49.644,49.535,49.643,49.499z"/>
		<path style="fill:#00C1D3;" d="M32.068,19.103c0.022,0.011,0.034,0.028,0.037,0.052C32.08,19.147,32.07,19.128,32.068,19.103z"/>
		<path style="fill:#00C1D3;" d="M31.858,19.336c0.002-0.027,0.013-0.048,0.037-0.062C31.894,19.302,31.882,19.323,31.858,19.336z"
			/>
		<path style="fill:#00C1D3;" d="M31.813,19.41c0.011-0.016,0.022-0.032,0.033-0.048C31.847,19.386,31.836,19.402,31.813,19.41z"/>
		<path style="fill:#00C1D3;" d="M32.242,19.403c0.012,0.017,0.024,0.034,0.036,0.051C32.253,19.446,32.243,19.428,32.242,19.403z"
			/>
		<path style="fill:#00C1D3;" d="M31.687,19.626c0.012-0.017,0.024-0.035,0.036-0.052C31.722,19.6,31.712,19.618,31.687,19.626z"/>
		<path style="fill:#00C1D3;" d="M32.368,19.618c0.022,0.011,0.035,0.028,0.037,0.053C32.379,19.663,32.369,19.643,32.368,19.618z"
			/>
		<path style="fill:#00C1D3;" d="M31.514,19.925c0.012-0.017,0.023-0.034,0.035-0.051C31.549,19.899,31.538,19.917,31.514,19.925z"
			/>
		<path style="fill:#00C1D3;" d="M32.541,19.917c0.012,0.017,0.024,0.035,0.035,0.052C32.551,19.962,32.542,19.943,32.541,19.917z"
			/>
		<path style="fill:#00C1D3;" d="M31.387,20.151c0.002-0.027,0.014-0.048,0.037-0.062C31.423,20.117,31.411,20.137,31.387,20.151z"
			/>
		<path style="fill:#00C1D3;" d="M31.342,20.225c0.011-0.016,0.022-0.032,0.033-0.048C31.376,20.201,31.366,20.217,31.342,20.225z"
			/>
		<path style="fill:#00C1D3;" d="M32.713,20.217c0.012,0.019,0.024,0.039,0.036,0.058C32.726,20.263,32.714,20.244,32.713,20.217z"
			/>
		<path style="fill:#00C1D3;" d="M32.763,20.306c0.01,0.015,0.021,0.03,0.031,0.045C32.772,20.344,32.761,20.329,32.763,20.306z"/>
		<path style="fill:#00C1D3;" d="M32.839,20.433c0.025,0.014,0.036,0.036,0.038,0.064C32.853,20.482,32.84,20.461,32.839,20.433z"/>
		<path style="fill:#00C1D3;" d="M32.887,20.519c0.011,0.016,0.023,0.033,0.034,0.049C32.898,20.56,32.887,20.544,32.887,20.519z"/>
		<path style="fill:#00C1D0;" d="M33.012,20.732c0.021,0.011,0.034,0.028,0.036,0.052C33.023,20.776,33.013,20.757,33.012,20.732z"
			/>
		<path style="fill:#00C1D0;" d="M33.185,21.032c0.012,0.017,0.024,0.035,0.035,0.052C33.195,21.075,33.186,21.057,33.185,21.032z"
			/>
		<path style="fill:#00C1D0;" d="M33.31,21.247c0.022,0.011,0.035,0.028,0.036,0.053C33.321,21.292,33.311,21.273,33.31,21.247z"/>
		<path style="fill:#00C1D0;" d="M33.656,21.847c0.012,0.017,0.024,0.035,0.036,0.052C33.666,21.891,33.656,21.872,33.656,21.847z"
			/>
		<path style="fill:#00C1D0;" d="M33.829,22.146c0.012,0.017,0.024,0.034,0.035,0.051C33.839,22.19,33.829,22.171,33.829,22.146z"/>
		<path style="fill:#00C1D0;" d="M33.954,22.362c0.022,0.011,0.034,0.028,0.036,0.053C33.965,22.406,33.955,22.387,33.954,22.362z"
			/>
		<path style="fill:#00C4C1;" d="M45.231,41.867c0.012,0.017,0.024,0.035,0.036,0.052C45.241,41.912,45.231,41.893,45.231,41.867z"
			/>
		<path style="fill:#00C3C8;" d="M23.927,33.055c0.002-0.027,0.014-0.047,0.037-0.061C23.963,33.021,23.951,33.041,23.927,33.055z"
			/>
		<path style="fill:#00C3C8;" d="M23.756,33.345c0.012-0.017,0.023-0.035,0.035-0.052C23.79,33.318,23.781,33.337,23.756,33.345z"/>
		<path style="fill:#00C3C5;" d="M42.058,36.38c0.021,0.011,0.034,0.028,0.036,0.052C42.068,36.424,42.059,36.405,42.058,36.38z"/>
		<path style="fill:#00C4C1;" d="M45.403,42.167c0.022,0.014,0.033,0.033,0.036,0.059C45.415,42.213,45.404,42.194,45.403,42.167z"
			/>
		<path style="fill:#00C2CC;" d="M37.993,29.351c0.011,0.015,0.021,0.031,0.032,0.046C38.002,29.39,37.991,29.375,37.993,29.351z"/>
		<path style="fill:#00C4C3;" d="M43.346,38.609c0.012,0.017,0.024,0.035,0.035,0.052C43.356,38.652,43.346,38.634,43.346,38.609z"
			/>
		<path style="fill:#00C5BD;" d="M46.989,44.911c0.012,0.017,0.023,0.035,0.035,0.052C46.999,44.955,46.989,44.936,46.989,44.911z"
			/>
		<path style="fill:#00C3C5;" d="M41.288,35.05c0.012,0.017,0.024,0.034,0.035,0.051C41.299,35.094,41.288,35.076,41.288,35.05z"/>
		<path style="fill:#00C3C8;" d="M24.399,32.232c0.002-0.024,0.014-0.042,0.035-0.053C24.434,32.204,24.425,32.223,24.399,32.232z"
			/>
		<path style="fill:#00C2CC;" d="M37.943,29.263c0.022,0.014,0.034,0.033,0.036,0.059C37.956,29.31,37.944,29.29,37.943,29.263z"/>
		<path style="fill:#00C4C3;" d="M43.471,38.824c0.022,0.011,0.035,0.028,0.036,0.053C43.481,38.869,43.472,38.85,43.471,38.824z"/>
		<path style="fill:#00C3C8;" d="M23.456,33.871c0.002-0.027,0.013-0.049,0.037-0.063C23.492,33.836,23.48,33.857,23.456,33.871z"/>
		<path style="fill:#00C5BD;" d="M47.288,45.426c0.022,0.011,0.034,0.028,0.036,0.053C47.298,45.47,47.289,45.451,47.288,45.426z"/>
		<path style="fill:#00C4C4;" d="M21.871,36.605c0.001-0.025,0.014-0.042,0.036-0.053C21.906,36.577,21.897,36.597,21.871,36.605z"
			/>
		<path style="fill:#00C3C8;" d="M24.054,32.829c0.012-0.017,0.023-0.034,0.035-0.051C24.089,32.803,24.079,32.821,24.054,32.829z"
			/>
		<path style="fill:#00C4C3;" d="M43.644,39.124c0.012,0.017,0.024,0.035,0.036,0.052C43.655,39.168,43.645,39.149,43.644,39.124z"
			/>
		<path style="fill:#00C5BD;" d="M47.461,45.726c0.012,0.017,0.024,0.035,0.036,0.052C47.471,45.769,47.461,45.751,47.461,45.726z"
			/>
		<path style="fill:#00C3C8;" d="M24.227,32.53c0.012-0.017,0.023-0.035,0.035-0.052C24.262,32.504,24.252,32.522,24.227,32.53z"/>
		<path style="fill:#00C3C5;" d="M41.414,35.266c0.022,0.011,0.034,0.028,0.036,0.053C41.425,35.31,41.415,35.291,41.414,35.266z"/>
		<path style="fill:#00C5BD;" d="M47.586,45.941c0.023,0.011,0.035,0.028,0.037,0.053C47.597,45.986,47.587,45.967,47.586,45.941z"
			/>
		<path style="fill:#00C3C8;" d="M23.411,33.948c0.011-0.018,0.023-0.035,0.034-0.053C23.445,33.92,23.433,33.937,23.411,33.948z"/>
		<path style="fill:#00C4C3;" d="M43.817,39.423c0.012,0.017,0.024,0.035,0.035,0.052C43.827,39.467,43.817,39.449,43.817,39.423z"
			/>
		<path style="fill:#00C4C4;" d="M21.698,36.904c0.012-0.017,0.024-0.035,0.036-0.052C21.733,36.877,21.723,36.896,21.698,36.904z"
			/>
		<path style="fill:#00C5BD;" d="M47.759,46.24c0.022,0.011,0.034,0.028,0.036,0.053C47.769,46.285,47.76,46.266,47.759,46.24z"/>
		<path style="fill:#00C3C8;" d="M39.702,32.307c0.012,0.017,0.024,0.034,0.035,0.051C39.713,32.35,39.702,32.332,39.702,32.307z"/>
		<path style="fill:#00C4C3;" d="M43.943,39.639c0.024,0.014,0.036,0.036,0.038,0.063C43.956,39.688,43.944,39.666,43.943,39.639z"
			/>
		<path style="fill:#00C4C3;" d="M43.991,39.725c0.011,0.017,0.022,0.033,0.034,0.05C44,39.767,43.99,39.75,43.991,39.725z"/>
		<path style="fill:#00C5BD;" d="M47.932,46.54c0.012,0.017,0.024,0.035,0.036,0.052C47.942,46.585,47.932,46.566,47.932,46.54z"/>
		<path style="fill:#00C3C8;" d="M40.001,32.821c0.012,0.017,0.024,0.035,0.036,0.052C40.012,32.865,40.002,32.847,40.001,32.821z"
			/>
		<path style="fill:#00C3C8;" d="M39.529,32.007c0.012,0.017,0.024,0.035,0.036,0.052C39.54,32.051,39.53,32.032,39.529,32.007z"/>
		<path style="fill:#00C4C3;" d="M44.116,39.938c0.021,0.011,0.034,0.028,0.036,0.053C44.125,39.983,44.116,39.964,44.116,39.938z"
			/>
		<path style="fill:#00C5BD;" d="M48.104,46.84c0.012,0.019,0.024,0.038,0.036,0.058C48.117,46.886,48.104,46.867,48.104,46.84z"/>
		<path style="fill:#00C2CC;" d="M26.112,29.276c0.011-0.018,0.022-0.036,0.034-0.053C26.146,29.247,26.134,29.265,26.112,29.276z"
			/>
		<path style="fill:#00C3C8;" d="M24.526,32.015c0.011-0.016,0.022-0.033,0.034-0.049C24.56,31.99,24.55,32.007,24.526,32.015z"/>
		<path style="fill:#00C3C5;" d="M41.587,35.565c0.012,0.017,0.024,0.035,0.035,0.052C41.597,35.609,41.588,35.59,41.587,35.565z"/>
		<path style="fill:#00C6B9;" d="M49.691,49.584c0.012,0.017,0.024,0.034,0.035,0.052C49.701,49.627,49.691,49.609,49.691,49.584z"
			/>
		<path style="fill:#00C4C3;" d="M42.702,37.494c0.012,0.017,0.024,0.035,0.036,0.052C42.712,37.538,42.702,37.52,42.702,37.494z"/>
		<path style="fill:#00C3C8;" d="M24.57,31.942c0.002-0.027,0.014-0.049,0.038-0.063C24.607,31.907,24.594,31.928,24.57,31.942z"/>
		<path style="fill:#00C5BD;" d="M11.069,40.583c0.028,0.031,0.005,0.035-0.02,0.038C11.055,40.608,11.062,40.596,11.069,40.583z"/>
		<path style="fill:#00C3C8;" d="M23.883,33.129c0.011-0.016,0.022-0.032,0.032-0.048C23.917,33.105,23.907,33.122,23.883,33.129z"
			/>
		<path style="fill:#00C3C8;" d="M24.87,31.416c0.002-0.024,0.015-0.041,0.036-0.052C24.906,31.389,24.896,31.408,24.87,31.416z"/>
		<path style="fill:#00C4C1;" d="M44.587,40.753c0.022,0.011,0.034,0.028,0.036,0.053C44.597,40.798,44.588,40.778,44.587,40.753z"
			/>
		<path style="fill:#00C6B9;" d="M49.99,50.099c0.012,0.017,0.024,0.035,0.035,0.053C50,50.143,49.99,50.124,49.99,50.099z"/>
		<path style="fill:#00C3C8;" d="M25.043,31.118c0.001-0.025,0.014-0.042,0.036-0.053C25.078,31.09,25.069,31.109,25.043,31.118z"/>
		<path style="fill:#00C3C8;" d="M39.828,32.522c0.022,0.011,0.034,0.028,0.036,0.053C39.838,32.567,39.829,32.547,39.828,32.522z"
			/>
		<path style="fill:#00C3C5;" d="M41.115,34.751c0.012,0.017,0.024,0.035,0.036,0.052C41.126,34.795,41.116,34.776,41.115,34.751z"
			/>
		<path style="fill:#00C6B9;" d="M50.162,50.398c0.012,0.017,0.024,0.035,0.035,0.052C50.172,50.442,50.162,50.424,50.162,50.398z"
			/>
		<path style="fill:#00C4C1;" d="M44.76,41.053c0.012,0.017,0.024,0.035,0.035,0.052C44.77,41.097,44.76,41.078,44.76,41.053z"/>
		<path style="fill:#00C4C3;" d="M42.875,37.794c0.012,0.017,0.023,0.034,0.035,0.051C42.885,37.837,42.875,37.819,42.875,37.794z"
			/>
		<path style="fill:#00C3C5;" d="M41.759,35.865c0.012,0.019,0.024,0.039,0.035,0.058C41.772,35.911,41.76,35.892,41.759,35.865z"/>
		<path style="fill:#00C6B9;" d="M50.335,50.698c0.012,0.017,0.023,0.034,0.035,0.051C50.345,50.741,50.335,50.723,50.335,50.698z"
			/>
		<path style="fill:#00C3C5;" d="M41.809,35.953c0.01,0.015,0.021,0.03,0.031,0.045C41.818,35.991,41.807,35.977,41.809,35.953z"/>
		<path style="fill:#00C4C1;" d="M44.932,41.353c0.012,0.017,0.024,0.034,0.035,0.052C44.942,41.396,44.932,41.378,44.932,41.353z"
			/>
		<path style="fill:#00C6B9;" d="M50.46,50.913c0.022,0.011,0.034,0.028,0.036,0.053C50.471,50.958,50.461,50.939,50.46,50.913z"/>
		<path style="fill:#00C4C3;" d="M43.001,38.009c0.022,0.011,0.034,0.028,0.036,0.053C43.011,38.054,43.001,38.035,43.001,38.009z"
			/>
		<path style="fill:#00C3C8;" d="M23.583,33.645c0.012-0.017,0.023-0.034,0.035-0.052C23.618,33.618,23.608,33.636,23.583,33.645z"
			/>
		<path style="fill:#00C4C1;" d="M45.057,41.568c0.022,0.011,0.035,0.028,0.036,0.053C45.068,41.613,45.058,41.593,45.057,41.568z"
			/>
		<path style="fill:#00C6B9;" d="M50.633,51.213c0.012,0.017,0.024,0.035,0.035,0.052C50.643,51.257,50.633,51.238,50.633,51.213z"
			/>
		<path style="fill:#00C3C5;" d="M41.885,36.08c0.024,0.014,0.036,0.036,0.037,0.063C41.898,36.13,41.886,36.108,41.885,36.08z"/>
		<path style="fill:#00C3C5;" d="M41.934,36.167c0.011,0.016,0.022,0.032,0.033,0.048C41.944,36.208,41.933,36.191,41.934,36.167z"
			/>
		<path style="fill:#00C6B9;" d="M50.759,51.428c0.025,0.014,0.037,0.036,0.038,0.064C50.772,51.478,50.76,51.457,50.759,51.428z"/>
		<path style="fill:#00C2CC;" d="M26.156,29.198c0.002-0.027,0.014-0.049,0.038-0.063C26.193,29.163,26.181,29.184,26.156,29.198z"
			/>
		<path style="fill:#00C2CC;" d="M37.771,28.963c0.021,0.011,0.033,0.028,0.036,0.053C37.781,29.008,37.772,28.988,37.771,28.963z"
			/>
		<path style="fill:#00C2CC;" d="M26.284,28.971c0.012-0.017,0.024-0.034,0.035-0.051C26.319,28.945,26.309,28.963,26.284,28.971z"
			/>
		<path style="fill:#00C2CC;" d="M37.646,28.75c0.011,0.016,0.022,0.033,0.033,0.049C37.656,28.792,37.646,28.775,37.646,28.75z"/>
		<path style="fill:#00C2CC;" d="M37.598,28.664c0.024,0.014,0.036,0.035,0.038,0.063C37.611,28.713,37.599,28.692,37.598,28.664z"
			/>
		<path style="fill:#00C2CC;" d="M26.457,28.673c0.002-0.024,0.015-0.041,0.036-0.052C26.492,28.646,26.482,28.665,26.457,28.673z"
			/>
		<path style="fill:#00C2CC;" d="M37.472,28.449c0.012,0.017,0.024,0.034,0.036,0.052C37.483,28.492,37.472,28.474,37.472,28.449z"
			/>
		<path style="fill:#00C2CC;" d="M26.584,28.456c0.011-0.016,0.022-0.032,0.034-0.049C26.618,28.432,26.607,28.449,26.584,28.456z"
			/>
		<path style="fill:#00C2CC;" d="M26.628,28.383c0.002-0.027,0.013-0.049,0.037-0.063C26.664,28.348,26.652,28.369,26.628,28.383z"
			/>
		<path style="fill:#00C2CC;" d="M37.3,28.149c0.012,0.017,0.024,0.035,0.036,0.052C37.31,28.193,37.3,28.174,37.3,28.149z"/>
		<path style="fill:#00C2CC;" d="M26.802,28.074c0.001-0.025,0.014-0.043,0.037-0.053C26.837,28.047,26.828,28.066,26.802,28.074z"
			/>
		<path style="fill:#00C2CC;" d="M37.127,27.849c0.022,0.011,0.034,0.028,0.036,0.053C37.137,27.894,37.128,27.874,37.127,27.849z"
			/>
		<path style="fill:#00C2CC;" d="M37.001,27.634c0.012,0.017,0.023,0.034,0.035,0.052C37.011,27.677,37.001,27.659,37.001,27.634z"
			/>
		<path style="fill:#00C2CC;" d="M27.101,27.559c0.002-0.025,0.014-0.042,0.036-0.053C27.136,27.531,27.126,27.551,27.101,27.559z"
			/>
		<path style="fill:#00C2CE;" d="M36.011,25.92c0.025,0.014,0.036,0.036,0.038,0.063C36.025,25.969,36.013,25.948,36.011,25.92z"/>
		<path style="fill:#00C2CE;" d="M35.886,25.705c0.012,0.017,0.024,0.034,0.036,0.052C35.896,25.748,35.886,25.73,35.886,25.705z"/>
		<path style="fill:#00C2CE;" d="M35.713,25.405c0.012,0.017,0.024,0.035,0.036,0.053C35.723,25.449,35.714,25.43,35.713,25.405z"/>
		<path style="fill:#00C2CE;" d="M35.541,25.105c0.022,0.011,0.034,0.028,0.036,0.053C35.551,25.15,35.542,25.131,35.541,25.105z"/>
		<path style="fill:#00C2CE;" d="M35.415,24.89c0.012,0.017,0.024,0.034,0.035,0.052C35.425,24.933,35.415,24.915,35.415,24.89z"/>
		<path style="fill:#00C2D0;" d="M28.985,24.299c0.012-0.017,0.023-0.035,0.035-0.052C29.02,24.272,29.01,24.291,28.985,24.299z"/>
		<path style="fill:#00C4C3;" d="M43.173,38.309c0.012,0.017,0.024,0.035,0.035,0.052C43.184,38.353,43.174,38.334,43.173,38.309z"
			/>
		<path style="fill:#00C2D0;" d="M29.158,24c0.002-0.024,0.015-0.041,0.036-0.052C29.193,23.973,29.183,23.992,29.158,24z"/>
		<path style="fill:#00C2D0;" d="M29.284,23.783c0.011-0.016,0.023-0.032,0.034-0.049C29.318,23.759,29.308,23.775,29.284,23.783z"
			/>
		<path style="fill:#00C2D0;" d="M29.329,23.711c0.002-0.028,0.014-0.049,0.038-0.063C29.366,23.676,29.353,23.697,29.329,23.711z"
			/>
		<path style="fill:#00C1D0;" d="M34.598,23.476c0.023,0.014,0.035,0.034,0.037,0.06C34.611,23.523,34.599,23.503,34.598,23.476z"/>
		<path style="fill:#00C1D0;" d="M34.474,23.263c0.011,0.016,0.023,0.033,0.034,0.049C34.484,23.304,34.473,23.287,34.474,23.263z"
			/>
		<path style="fill:#00C1D0;" d="M34.425,23.176c0.025,0.014,0.036,0.036,0.038,0.064C34.439,23.226,34.426,23.204,34.425,23.176z"
			/>
		<path style="fill:#00C1D0;" d="M34.299,22.961c0.012,0.017,0.024,0.034,0.036,0.052C34.31,23.005,34.3,22.986,34.299,22.961z"/>
		<path style="fill:#00C1D0;" d="M34.128,22.661c0.012,0.017,0.024,0.035,0.035,0.053C34.137,22.705,34.128,22.686,34.128,22.661z"
			/>
		<path style="fill:#00C2D0;" d="M42.61,22.62c-0.012-0.017-0.023-0.034-0.035-0.051C42.599,22.577,42.61,22.595,42.61,22.62z"/>
		<path style="fill:#00C6B9;" d="M49.816,49.799c0.022,0.011,0.035,0.028,0.036,0.053C49.827,49.844,49.817,49.824,49.816,49.799z"
			/>
	</g>
</g>
</svg>
