<?xml version="1.0" encoding="UTF-8" standalone="no"?>
<svg
   xmlns:dc="http://purl.org/dc/elements/1.1/"
   xmlns:cc="http://creativecommons.org/ns#"
   xmlns:rdf="http://www.w3.org/1999/02/22-rdf-syntax-ns#"
   xmlns:svg="http://www.w3.org/2000/svg"
   xmlns="http://www.w3.org/2000/svg"
   xmlns:sodipodi="http://sodipodi.sourceforge.net/DTD/sodipodi-0.dtd"
   xmlns:inkscape="http://www.inkscape.org/namespaces/inkscape"
   width="64"
   height="64"
   viewBox="0 0 48 48"
   version="1.1"
   id="svg60"
   sodipodi:docname="avant.svg"
   inkscape:version="0.92.3 (2405546, 2018-03-11)">
  <metadata
     id="metadata66">
    <rdf:RDF>
      <cc:Work
         rdf:about="">
        <dc:format>image/svg+xml</dc:format>
        <dc:type
           rdf:resource="http://purl.org/dc/dcmitype/StillImage" />
        <dc:title></dc:title>
      </cc:Work>
    </rdf:RDF>
  </metadata>
  <defs
     id="defs64" />
  <sodipodi:namedview
     pagecolor="#ffffff"
     bordercolor="#666666"
     borderopacity="1"
     objecttolerance="10"
     gridtolerance="10"
     guidetolerance="10"
     inkscape:pageopacity="0"
     inkscape:pageshadow="2"
     inkscape:window-width="1920"
     inkscape:window-height="1017"
     id="namedview62"
     showgrid="false"
     inkscape:pagecheckerboard="true"
     units="px"
     inkscape:zoom="1.0816327"
     inkscape:cx="173.74482"
     inkscape:cy="-8.7663437"
     inkscape:window-x="-8"
     inkscape:window-y="-8"
     inkscape:window-maximized="1"
     inkscape:current-layer="svg60" />
  <g
     id="#051028ff"
     transform="matrix(0.32653061,0,0,0.32653061,1.65e-7,0.01795935)">
    <path
       d="m 73.27,0 h 0.42 c 7.24,15.37 15.19,30.4 22.63,45.67 1.5,2.21 -0.74,4.07 -1.96,5.73 -2.95,3.36 -5.2,7.24 -7.25,11.18 -4.58,-8.91 -8.97,-17.91 -13.49,-26.85 -8.56,15.9 -16.19,32.3 -24.47,48.35 -0.96,1.71 -2.1,3.29 -3.3,4.83 -8.98,11.31 -17.72,22.81 -26.73,34.1 -3.59,-4.14 -6.78,-8.59 -9.65,-13.25 C 17.29,99.49 25.32,89.37 33.26,79.19 35.92,75.74 37.61,71.7 39.55,67.83 48.93,49.11 58.29,30.39 67.65,11.67 69.5,7.77 71.74,4.05 73.27,0 Z"
       id="path39"
       inkscape:connector-curvature="0"
       style="opacity:1;fill:#051028" />
    <path
       d="M 26.13,17.27 C 36.4,8.78 48.91,2.69 62.19,1.01 58.9,7.97 55.68,15.04 51.77,21.64 46.52,24.25 41.56,27.32 36.91,30.9 32.99,26.64 29.68,21.84 26.13,17.27 Z"
       id="path41"
       inkscape:connector-curvature="0"
       style="opacity:1;fill:#051028" />
    <path
       d="m 84.79,1.01 c 13.29,1.67 25.79,7.78 36.08,16.25 -3.6,4.53 -6.79,9.54 -10.88,13.57 -3.53,-2.39 -6.79,-5.22 -10.69,-7.01 -1.84,-1.07 -4.32,-1.62 -5.18,-3.81 -3.1,-6.34 -6.45,-12.56 -9.33,-19 z"
       id="path43"
       inkscape:connector-curvature="0"
       style="opacity:1;fill:#051028" />
    <path
       d="m 9.46,37.21 c 2.87,-4.67 6.04,-9.15 9.67,-13.26 6.54,8.24 13.03,16.52 19.41,24.88 -2.69,5.07 -5.2,10.23 -7.75,15.36 C 23.3,55.52 16.55,46.21 9.46,37.21 Z"
       id="path45"
       inkscape:connector-curvature="0"
       style="opacity:1;fill:#051028" />
    <path
       d="m 104.62,53.64 c 7.76,-9.89 15.42,-19.86 23.25,-29.69 3.61,4.12 6.8,8.58 9.66,13.25 -7.98,10.44 -16.13,20.74 -24.2,31.09 -2.67,3.57 -4.24,7.79 -6.32,11.69 -11.26,22.28 -22.16,44.75 -33.63,66.91 -7.44,-15.26 -15.19,-30.38 -22.72,-45.6 -0.95,-1.35 -0.51,-2.89 0.59,-3.98 3.16,-3.76 6.1,-7.69 8.09,-12.2 0.27,0.06 0.8,0.2 1.07,0.27 4.6,8.49 8.3,17.49 13.29,25.76 7.75,-15.72 15.7,-31.34 23.47,-47.05 1.88,-3.89 4.88,-7.03 7.45,-10.45 z"
       id="path47"
       inkscape:connector-curvature="0"
       style="opacity:1;fill:#051028" />
    <path
       d="M 4.93,47.06 C 9.49,52.6 13.81,58.35 18.25,63.99 17.03,70.26 17.52,76.61 18,82.91 14.05,88.84 9.34,94.27 4.92,99.87 2.41,93.64 1.17,87.02 0,80.44 V 69.23 C 0.53,61.65 2.15,54.14 4.93,47.06 Z"
       id="path49"
       inkscape:connector-curvature="0"
       style="opacity:1;fill:#051028" />
    <path
       d="m 128.75,63.99 c 4.46,-5.67 8.79,-11.43 13.37,-17 2.64,7.16 4.39,14.66 4.88,22.28 v 11.07 c -1.18,6.22 -2.13,12.57 -4.53,18.47 -0.29,0 -0.87,0.02 -1.16,0.02 -4.44,-5.07 -8.34,-10.61 -12.54,-15.89 1.05,-6.27 1.04,-12.68 -0.02,-18.95 z"
       id="path51"
       inkscape:connector-curvature="0"
       style="opacity:1;fill:#051028" />
    <path
       d="m 116.12,82.82 c 1.08,0.96 2.11,1.99 2.99,3.15 6.06,7.99 12.4,15.77 18.41,23.8 -2.87,4.65 -6.05,9.11 -9.65,13.23 -6.55,-8.22 -12.98,-16.53 -19.4,-24.84 2.62,-5.08 5.2,-10.18 7.65,-15.34 z"
       id="path53"
       inkscape:connector-curvature="0"
       style="opacity:1;fill:#051028" />
    <path
       d="m 26.12,129.72 c 3.58,-4.56 6.79,-9.5 10.86,-13.6 3.33,2.26 6.4,4.94 10.07,6.68 2.04,1.23 4.86,1.76 5.86,4.18 3.06,6.35 6.47,12.52 9.27,18.98 -13.27,-1.75 -25.77,-7.78 -36.06,-16.24 z"
       id="path55"
       inkscape:connector-curvature="0"
       style="opacity:1;fill:#051028" />
    <path
       d="m 99.96,122.79 c 3.65,-1.72 6.68,-4.41 10.02,-6.61 4.16,3.85 7.1,9.04 10.91,13.31 -10.1,8.81 -22.87,14.68 -36.16,16.46 2.97,-6.39 6.25,-12.63 9.36,-18.96 0.99,-2.44 3.82,-2.96 5.87,-4.2 z"
       id="path57"
       inkscape:connector-curvature="0"
       style="opacity:1;fill:#051028" />
  </g>
</svg>
