<?xml version="1.0" encoding="UTF-8" standalone="no"?>
<svg
   xmlns:dc="http://purl.org/dc/elements/1.1/"
   xmlns:cc="http://creativecommons.org/ns#"
   xmlns:rdf="http://www.w3.org/1999/02/22-rdf-syntax-ns#"
   xmlns:svg="http://www.w3.org/2000/svg"
   xmlns="http://www.w3.org/2000/svg"
   xmlns:sodipodi="http://sodipodi.sourceforge.net/DTD/sodipodi-0.dtd"
   xmlns:inkscape="http://www.inkscape.org/namespaces/inkscape"
   width="64"
   height="64"
   viewBox="0 0 48 48"
   version="1.1"
   id="svg520"
   sodipodi:docname="baec.svg"
   inkscape:version="0.92.3 (2405546, 2018-03-11)">
  <metadata
     id="metadata526">
    <rdf:RDF>
      <cc:Work
         rdf:about="">
        <dc:format>image/svg+xml</dc:format>
        <dc:type
           rdf:resource="http://purl.org/dc/dcmitype/StillImage" />
        <dc:title></dc:title>
      </cc:Work>
    </rdf:RDF>
  </metadata>
  <defs
     id="defs524" />
  <sodipodi:namedview
     pagecolor="#ffffff"
     bordercolor="#666666"
     borderopacity="1"
     objecttolerance="10"
     gridtolerance="10"
     guidetolerance="10"
     inkscape:pageopacity="0"
     inkscape:pageshadow="2"
     inkscape:window-width="1920"
     inkscape:window-height="1017"
     id="namedview522"
     showgrid="false"
     units="px"
     inkscape:pagecheckerboard="true"
     inkscape:zoom="6.5176799"
     inkscape:cx="-26.408902"
     inkscape:cy="-0.8549618"
     inkscape:window-x="-8"
     inkscape:window-y="-8"
     inkscape:window-maximized="1"
     inkscape:current-layer="svg520" />
  <g
     id="#fff5fbff"
     transform="matrix(0.11034483,0,0,0.11034483,-5.2499999e-7,8.7724135)">
    <path
       d="m 161.01,0 v 0 c 1.73,2.37 4.76,1.82 6.65,0 h 5.95 c 3.15,0.53 6.63,2.04 9.57,0 h 0.5 c 1.54,1.8 4.49,0.73 6.61,1.2 1.6,0.7 3.34,0.87 5.04,1.16 1.64,0.52 3.36,0.68 5.07,0.88 0.99,0.42 2,0.83 3.01,1.22 1.33,0.34 2.68,0.59 4.04,0.86 1,0.36 2,0.71 3.02,1.04 1.01,0.34 2.04,0.67 3.07,0.97 1.59,0.77 3.21,1.48 4.88,2.08 1.03,0.3 2.07,0.58 3.11,0.85 0.97,0.53 1.94,1.06 2.91,1.59 0.48,0.11 1.44,0.32 1.92,0.42 1.05,0.37 2.12,0.72 3.19,1.05 0.98,0.52 1.95,1.04 2.92,1.57 0.51,0.07 1.51,0.21 2.01,0.28 0.51,0.31 1.52,0.92 2.02,1.23 1,0.32 2,0.61 3.01,0.9 0.5,0.25 1.51,0.77 2.01,1.03 2.69,0.97 5.32,2.12 8.03,3.04 1.63,0.79 3.31,1.49 5.08,1.94 0.95,0.53 1.89,1.06 2.84,1.6 0.51,0.05 1.52,0.16 2.03,0.21 0.97,0.6 1.95,1.2 2.93,1.79 0.49,0.08 1.48,0.22 1.97,0.29 1.62,0.87 3.3,1.62 5.04,2.23 1.06,0.29 2.13,0.57 3.2,0.83 0.94,0.55 1.87,1.12 2.81,1.68 0.52,0.04 1.56,0.13 2.09,0.17 0.95,0.6 1.9,1.2 2.87,1.79 0.48,0.09 1.46,0.26 1.95,0.35 1.02,0.38 2.04,0.75 3.07,1.09 0.99,0.36 1.99,0.72 2.99,1.06 1.3,0.37 2.63,0.66 3.95,0.97 1.33,0.4 2.69,0.68 4.05,1.01 1.71,0.48 3.44,0.87 5.14,1.41 1.59,0.21 3.19,0.38 4.79,0.6 1.94,0.56 3.97,0.73 5.98,1 3.78,1.11 7.78,0.54 11.67,0.73 4.22,-0.17 8.57,0.45 12.68,-0.74 1.99,-0.26 4,-0.44 5.96,-0.94 1.68,-0.32 3.37,-0.62 5.02,-1.07 0.47,-0.14 1.41,-0.42 1.88,-0.56 1.34,-0.54 2.7,-1.03 4.04,-1.58 0.48,-0.1 1.46,-0.28 1.95,-0.37 1.34,-0.74 2.7,-1.45 4.07,-2.14 2,-0.99 4,-1.99 6.01,-2.99 0.95,-0.47 1.9,-0.94 2.87,-1.41 2.42,-1.52 4.73,-3.21 7.22,-4.62 1.29,-1.21 2.57,-2.44 3.82,-3.69 0.52,-0.01 1.57,-0.01 2.09,-0.01 0.52,1.21 1.07,2.41 1.62,3.62 0.26,0.49 0.79,1.48 1.05,1.98 0.25,0.5 0.75,1.51 1,2.02 0.67,1.32 1.32,2.64 1.97,3.98 0.51,0.96 1.03,1.92 1.56,2.88 0.09,0.2 0.26,0.6 0.34,0.8 C 372.17,51.5 350.28,60.27 327.97,59.54 302.25,58.84 278.01,49 254.5,39.45 234.98,31.59 215.7,22.72 195.1,18.01 c -17.65,-3.94 -36.37,-5.28 -53.86,0.16 -12.19,3.82 -23.8,10.04 -33.27,18.65 0.1,-0.3 0.31,-0.88 0.41,-1.18 0.22,-0.55 0.66,-1.67 0.88,-2.22 0.49,-0.94 0.97,-1.87 1.47,-2.79 1.15,-2.44 2.67,-4.66 4.01,-7 0.86,-1.93 1.74,-4.03 3.77,-4.98 2.03,-1.29 4.01,-2.66 6.03,-3.96 0.98,-0.69 1.97,-1.37 2.98,-2.03 1.29,-0.84 2.61,-1.63 3.97,-2.37 1.37,-0.82 2.68,-1.75 4.04,-2.6 2.08,-0.65 4.13,-1.42 6.04,-2.48 0.49,-0.08 1.47,-0.24 1.96,-0.32 0.96,-0.54 1.93,-1.08 2.9,-1.62 1.4,-0.22 2.8,-0.51 4.18,-0.86 1.36,-0.35 2.72,-0.72 4.06,-1.18 2.14,-0.2 4.39,-0.13 6.34,-1.23 z"
       id="path269"
       inkscape:connector-curvature="0"
       style="opacity:1;fill:#fff5fb" />
  </g>
  <g
     id="#e6dbdeff"
     transform="matrix(0.11034483,0,0,0.11034483,-5.2499999e-7,8.7724135)">
    <path
       d="m 161.01,0 h 6.65 c -1.89,1.82 -4.92,2.37 -6.65,0 z"
       id="path272"
       inkscape:connector-curvature="0"
       style="opacity:1;fill:#e6dbde" />
  </g>
  <g
     id="#eadfe2ff"
     transform="matrix(0.11034483,0,0,0.11034483,-5.2499999e-7,8.7724135)">
    <path
       d="m 173.61,0 h 9.57 c -2.94,2.04 -6.42,0.53 -9.57,0 z"
       id="path275"
       inkscape:connector-curvature="0"
       style="opacity:1;fill:#eadfe2" />
  </g>
  <g
     id="#ff1f67ff"
     transform="matrix(0.11034483,0,0,0.11034483,-5.2499999e-7,8.7724135)">
    <path
       d="m 141.24,18.17 c 17.49,-5.44 36.21,-4.1 53.86,-0.16 -0.49,0.11 -1.48,0.32 -1.98,0.43 -0.29,1.57 -0.64,3.17 -0.44,4.78 9.07,3.12 18.45,5.3 27.44,8.7 9.66,3.91 19.4,7.62 29.07,11.49 0.6,-0.35 1.2,-0.69 1.8,-1.03 1.2,1.3 2.27,2.86 3.97,3.57 12.73,5.22 25.44,10.72 38.78,14.21 4.96,0.44 9.36,3.02 14.25,3.77 10.24,1.86 20.68,3.3 31.09,2.42 12.6,-0.59 24.7,-4.86 35.89,-10.45 5.93,-3.76 11.68,-7.83 17.24,-12.12 l 0.42,0.49 c 0.74,1.37 1.39,2.78 2.06,4.19 1.43,2.75 3.18,5.33 4.63,8.07 0.78,1.65 1.57,3.29 2.35,4.94 0.94,1.74 1.97,3.43 3.03,5.11 -11.67,9.48 -24.91,17.39 -39.52,21.33 -20.04,5.64 -41.39,3.92 -61.3,-1.36 -10.18,-2.42 -19.93,-6.24 -29.78,-9.69 0.06,0.69 0.19,2.08 0.25,2.77 -14.34,-5.33 -28.31,-11.61 -42.54,-17.23 -0.07,1.88 -0.14,3.77 -0.21,5.66 26.09,10.55 51.81,22.53 79.33,28.95 19,4.43 39.17,5.34 58.07,-0.08 14.84,-4.03 28.16,-12.15 40.15,-21.59 0.4,1.04 0.79,2.08 1.17,3.13 1.1,1.64 2.09,3.33 3,5.08 0.46,0.96 0.93,1.92 1.41,2.89 0.5,1.04 1.02,2.07 1.54,3.12 0.82,1.62 1.62,3.26 2.42,4.9 0.87,1.64 1.8,3.26 2.81,4.83 -19.32,16.35 -43.98,26.93 -69.46,27.34 -15.97,0.54 -31.85,-2.37 -47.16,-6.7 -9.27,-2.71 -18.54,-5.55 -27.39,-9.43 -0.24,0.74 -0.7,2.21 -0.93,2.94 C 262.3,107.65 248.1,101.72 233.89,95.83 210.36,86.49 186.33,77.33 160.99,74.6 152.66,74.04 144.27,73.94 135.93,74.45 114.57,76.34 94.4,85.6 77.5,98.53 c -0.46,-1.2 -0.91,-2.4 -1.36,-3.61 -10.25,3.37 -18.22,10.94 -27.46,16.17 0.8,-1.92 1.67,-3.8 2.53,-5.69 1.09,-2.08 2.22,-4.15 3.65,-6.02 0.06,-0.45 0.19,-1.34 0.26,-1.79 0.96,-1.28 1.84,-2.61 2.72,-3.94 0.32,-0.91 0.66,-1.8 1.02,-2.69 8.89,-7.9 19.28,-14.01 30.11,-18.87 1.72,-3.31 3.48,-6.6 5.17,-9.93 7,-4.67 13.06,-10.86 20.99,-14.05 17.21,-8.48 36.84,-12.22 55.94,-9.95 20.64,1.75 40.04,9.51 59.33,16.48 1.58,-1.87 1.17,-5.7 -1.39,-6.59 -11.06,-4.21 -22.21,-8.29 -33.61,-11.5 -19.32,-4.52 -39.94,-7.34 -59.3,-1.49 -7.99,2.04 -15.46,5.6 -22.81,9.26 -2.67,1.33 -4.51,3.76 -6.85,5.52 -2.65,1.58 -5.57,2.66 -8.16,4.34 l 0.76,-1.39 c 1.75,-2.24 3.05,-4.79 4.22,-7.37 1.31,-2.7 2.95,-5.21 4.43,-7.81 l 0.28,-0.79 c 9.47,-8.61 21.08,-14.83 33.27,-18.65 M 253.13,55.2 c 0.49,0.52 0.49,0.52 0,0 M 81.46,87.46 c -1.68,1.47 -2.47,3.61 -3.32,5.62 4,-2.63 7.59,-5.81 11.7,-8.28 12.08,-8.15 25.77,-13.91 40.11,-16.57 17.57,-3.24 35.71,-1.62 53.01,2.41 29,6.55 55.74,19.97 83.48,30.19 -0.28,-1.9 -0.56,-3.78 -0.85,-5.67 C 251.06,89.15 236.55,83.08 221.91,77.31 198.65,68.37 174.19,60.69 148.99,61.37 124.25,61.46 100.2,71.59 81.46,87.46 m 2.55,-8.38 c -1.63,2.97 3.31,0.24 0,0 M 231.15,89.3 c -0.48,1.61 0.09,2.16 1.73,1.62 0.47,-1.62 -0.1,-2.16 -1.73,-1.62 z"
       id="path278"
       inkscape:connector-curvature="0"
       style="opacity:1;fill:#ff1f67" />
  </g>
  <g
     id="#fe1a4dff"
     transform="matrix(0.11034483,0,0,0.11034483,-5.2499999e-7,8.7724135)">
    <path
       d="m 193.12,18.44 c 0.5,-0.11 1.49,-0.32 1.98,-0.43 20.6,4.71 39.88,13.58 59.4,21.44 23.51,9.55 47.75,19.39 73.47,20.09 22.31,0.73 44.2,-8.04 61.18,-22.26 0.84,1.76 1.77,3.48 2.6,5.24 0.12,0.32 0.35,0.95 0.46,1.26 -5.56,4.29 -11.31,8.36 -17.24,12.12 -11.19,5.59 -23.29,9.86 -35.89,10.45 -10.41,0.88 -20.85,-0.56 -31.09,-2.42 -4.89,-0.75 -9.29,-3.33 -14.25,-3.77 -13.34,-3.49 -26.05,-8.99 -38.78,-14.21 -1.7,-0.71 -2.77,-2.27 -3.97,-3.57 -0.6,0.34 -1.2,0.68 -1.8,1.03 -9.67,-3.87 -19.41,-7.58 -29.07,-11.49 -8.99,-3.4 -18.37,-5.58 -27.44,-8.7 -0.2,-1.61 0.15,-3.21 0.44,-4.78 z"
       id="path281"
       inkscape:connector-curvature="0"
       style="opacity:1;fill:#fe1a4d" />
  </g>
  <g
     id="#ff1a4dff"
     transform="matrix(0.11034483,0,0,0.11034483,-5.2499999e-7,8.7724135)">
    <path
       d="m 136.1,35.06 c 19.36,-5.85 39.98,-3.03 59.3,1.49 11.4,3.21 22.55,7.29 33.61,11.5 2.56,0.89 2.97,4.72 1.39,6.59 -19.29,-6.97 -38.69,-14.73 -59.33,-16.48 -19.1,-2.27 -38.73,1.47 -55.94,9.95 -7.93,3.19 -13.99,9.38 -20.99,14.05 1.33,-2.68 2.7,-5.35 4.14,-7.98 2.59,-1.68 5.51,-2.76 8.16,-4.34 2.34,-1.76 4.18,-4.19 6.85,-5.52 7.35,-3.66 14.82,-7.22 22.81,-9.26 z"
       id="path284"
       inkscape:connector-curvature="0"
       style="opacity:1;fill:#ff1a4d" />
  </g>
  <g
     id="#ffeff6ff"
     transform="matrix(0.11034483,0,0,0.11034483,-5.2499999e-7,8.7724135)">
    <path
       d="m 96.58,54.97 c 0.82,-0.73 1.64,-1.45 2.46,-2.18 l -0.76,1.39 c -1.44,2.63 -2.81,5.3 -4.14,7.98 -1.69,3.33 -3.45,6.62 -5.17,9.93 -10.83,4.86 -21.22,10.97 -30.11,18.87 0.12,-0.33 0.37,-0.99 0.5,-1.31 0.23,-0.56 0.68,-1.67 0.91,-2.23 0.47,-0.94 0.97,-1.86 1.5,-2.78 0.24,-0.5 0.71,-1.52 0.95,-2.03 0.26,-0.49 0.77,-1.49 1.03,-1.99 0.24,-0.51 0.72,-1.52 0.95,-2.03 0.9,-1.74 1.85,-3.46 2.9,-5.13 1.06,-1.53 2.35,-2.88 3.72,-4.12 1.5,-0.83 2.83,-1.92 4.15,-3.01 2.68,-1.66 5.25,-3.52 8.01,-5.06 2.02,-1.21 4.01,-2.48 6.11,-3.57 0.51,-0.22 1.54,-0.68 2.05,-0.9 0.98,-0.55 1.96,-1.11 2.94,-1.67 0.5,-0.04 1.5,-0.12 2,-0.16 z"
       id="path287"
       inkscape:connector-curvature="0"
       style="opacity:1;fill:#ffeff6" />
  </g>
  <g
     id="#ff43b5ff"
     transform="matrix(0.11034483,0,0,0.11034483,-5.2499999e-7,8.7724135)">
    <path
       d="m 253.13,55.2 c 0.49,0.52 0.49,0.52 0,0 z"
       id="path290"
       inkscape:connector-curvature="0"
       style="opacity:1;fill:#ff43b5" />
  </g>
  <g
     id="#ff97b9ff"
     transform="matrix(0.11034483,0,0,0.11034483,-5.2499999e-7,8.7724135)">
    <path
       d="m 81.46,87.46 c 18.74,-15.87 42.79,-26 67.53,-26.09 25.2,-0.68 49.66,7 72.92,15.94 14.64,5.77 29.15,11.84 43.68,17.85 0.29,1.89 0.57,3.77 0.85,5.67 -27.74,-10.22 -54.48,-23.64 -83.48,-30.19 -17.3,-4.03 -35.44,-5.65 -53.01,-2.41 -14.34,2.66 -28.03,8.42 -40.11,16.57 -4.11,2.47 -7.7,5.65 -11.7,8.28 0.85,-2.01 1.64,-4.15 3.32,-5.62 z"
       id="path293"
       inkscape:connector-curvature="0"
       style="opacity:1;fill:#ff97b9" />
    <path
       d="m 46.14,138.08 c 11.45,-7.1 24.03,-12.28 37.23,-15.04 0.15,1.04 0.28,2.08 0.4,3.13 0.01,0.58 0.04,1.74 0.05,2.32 -21.79,4.53 -42.19,14.87 -59.06,29.33 0.61,-1.44 1.25,-2.85 1.91,-4.26 0.62,-1.18 1.25,-2.35 1.92,-3.5 6.02,-3.76 11.29,-8.59 17.55,-11.98 z"
       id="path295"
       inkscape:connector-curvature="0"
       style="opacity:1;fill:#ff97b9" />
  </g>
  <g
     id="#ff94b8ff"
     transform="matrix(0.11034483,0,0,0.11034483,-5.2499999e-7,8.7724135)">
    <path
       d="m 231.81,62.4 c 14.23,5.62 28.2,11.9 42.54,17.23 23.33,9.24 48.34,16.34 73.67,14.61 21.49,-1.51 41.59,-11.23 58.16,-24.65 l 0.42,0.68 c 0.3,0.53 0.89,1.59 1.18,2.12 0.25,0.54 0.76,1.61 1.01,2.14 0.09,0.2 0.27,0.6 0.36,0.81 -11.99,9.44 -25.31,17.56 -40.15,21.59 -18.9,5.42 -39.07,4.51 -58.07,0.08 -27.52,-6.42 -53.24,-18.4 -79.33,-28.95 0.07,-1.89 0.14,-3.78 0.21,-5.66 z"
       id="path298"
       inkscape:connector-curvature="0"
       style="opacity:1;fill:#ff94b8" />
    <path
       d="m 202.93,121.83 c 5.04,1.53 9.8,3.79 14.65,5.81 11.46,4.95 23.06,9.57 34.59,14.38 0.03,-1.14 0.05,-2.29 0.08,-3.44 0.74,1.25 0.57,3.37 2.05,4.04 27.33,10.87 56.62,19.08 86.31,16.6 0.38,0.46 1.12,1.37 1.5,1.82 3.25,1.04 6.75,1.87 10.06,0.56 0.87,0.25 1.74,0.51 2.62,0.78 1.14,-0.53 2.29,-1.05 3.44,-1.58 0.3,0.65 0.89,1.93 1.19,2.57 -27.47,7.03 -56.45,2.64 -83.02,-6.01 -19.39,-6.17 -38.08,-14.33 -56.89,-22.03 -5.38,-2.78 -11.39,-4.24 -16.56,-7.38 -0.21,-2.03 -0.08,-4.08 -0.02,-6.12 z"
       id="path300"
       inkscape:connector-curvature="0"
       style="opacity:1;fill:#ff94b8" />
    <path
       d="m 178.57,134.3 c 21.7,7.89 42.8,17.33 64.13,26.15 0.04,2.22 0.09,4.43 0.14,6.64 -21.58,-8.26 -42.45,-18.3 -64.28,-25.94 -0.02,-2.29 -0.02,-4.57 0.01,-6.85 z"
       id="path302"
       inkscape:connector-curvature="0"
       style="opacity:1;fill:#ff94b8" />
    <path
       d="m 74.03,176.85 c 18.48,-3.66 37.63,-2.6 56.01,1.18 35.45,7.24 68.07,23.38 101.43,36.75 0.08,2.35 0.16,4.7 0.23,7.05 -13.36,-5.72 -26.86,-11.13 -40.17,-16.97 0.55,-0.33 1.65,-1.01 2.2,-1.35 -0.12,-1.13 -0.23,-2.25 -0.35,-3.38 -2.13,0.93 -4.23,1.91 -6.3,2.95 -12.07,-4.38 -23.88,-9.53 -36.28,-12.96 -18.36,-5.86 -37.54,-9.4 -56.85,-9.44 -10.89,0.53 -21.83,1.85 -32.29,5.02 -17.96,5.1 -34.41,14.78 -48.56,26.84 l 0.29,-0.92 c 0.2,-0.57 0.58,-1.71 0.78,-2.28 0.85,-1.35 1.75,-2.68 2.67,-3.98 16.47,-13.78 36.02,-24.29 57.19,-28.51 z"
       id="path304"
       inkscape:connector-curvature="0"
       style="opacity:1;fill:#ff94b8" />
  </g>
  <g
     id="#ffffffff"
     transform="matrix(0.11034483,0,0,0.11034483,-5.2499999e-7,8.7724135)">
    <path
       d="m 365.18,87.91 c 14.61,-3.94 27.85,-11.85 39.52,-21.33 0.53,0.98 1.03,1.99 1.48,3.01 -16.57,13.42 -36.67,23.14 -58.16,24.65 -25.33,1.73 -50.34,-5.37 -73.67,-14.61 -0.06,-0.69 -0.19,-2.08 -0.25,-2.77 9.85,3.45 19.6,7.27 29.78,9.69 19.91,5.28 41.26,7 61.3,1.36 z"
       id="path307"
       inkscape:connector-curvature="0"
       style="opacity:1;fill:#ffffff" />
    <path
       d="m 77.5,98.53 c 16.9,-12.93 37.07,-22.19 58.43,-24.08 8.34,-0.51 16.73,-0.41 25.06,0.15 25.34,2.73 49.37,11.89 72.9,21.23 14.21,5.89 28.41,11.82 42.67,17.61 0.23,-0.73 0.69,-2.2 0.93,-2.94 8.85,3.88 18.12,6.72 27.39,9.43 15.31,4.33 31.19,7.24 47.16,6.7 25.48,-0.41 50.14,-10.99 69.46,-27.34 0.2,0.32 0.59,0.98 0.79,1.3 0.66,1.34 1.32,2.67 1.98,4.01 0.57,1.12 1.13,2.24 1.69,3.36 -18.89,15.54 -42.19,26.7 -66.92,27.72 -9.32,0.08 -18.72,0.43 -27.95,-1.13 -29.46,-4.34 -56.91,-16.48 -84.32,-27.52 -28.5,-12.02 -57.67,-23.97 -88.7,-27.24 -12.73,-0.86 -25.68,-0.77 -38.13,2.36 -18.11,4.11 -34.72,13.32 -48.98,25.08 0.52,-1.43 1.05,-2.86 1.63,-4.26 1.5,-1.63 3.17,-3.08 4.91,-4.44 z"
       id="path309"
       inkscape:connector-curvature="0"
       style="opacity:1;fill:#ffffff" />
    <path
       d="m 125.53,104.74 c 0.02,-1.76 0,-3.52 0.14,-5.27 0.16,0.73 0.49,2.18 0.65,2.9 3.08,-0.34 6,-1.42 8.42,-3.38 0.21,0.25 0.64,0.74 0.85,0.99 0.01,1.64 -0.09,3.28 -0.15,4.93 1.3,-0.76 2.6,-1.51 3.9,-2.26 1.47,0.75 2.95,1.49 4.43,2.22 -0.31,-1.4 -0.63,-2.79 -0.97,-4.17 0.25,-0.31 0.76,-0.92 1.01,-1.23 l 0.34,-0.36 c 0.07,1.93 0.16,3.87 0.26,5.81 0.33,-1.17 0.66,-2.34 0.99,-3.5 2.48,-0.61 4.96,-1.25 7.46,-1.76 0.25,0.08 0.75,0.23 1,0.31 -0.1,1.63 -0.2,3.27 -0.31,4.91 1.44,-0.78 2.87,-1.56 4.31,-2.34 1.29,0.8 2.58,1.59 3.89,2.38 -0.16,-1.87 -0.33,-3.74 -0.52,-5.6 l 0.55,0.35 c 1.66,0.98 3.21,2.48 5.24,2.54 1.35,-0.37 2.66,-0.89 4,-1.31 0.22,0 0.67,-0.01 0.89,-0.01 l 0.11,1.03 0.12,1.25 c 0.32,7.95 0,15.9 0.12,23.85 -0.04,2.68 0.88,5.21 1.68,7.73 -0.43,-0.11 -1.27,-0.32 -1.7,-0.43 -0.27,11.01 0.67,22.09 -0.51,33.04 -27.08,-0.22 -54.16,-0.02 -81.24,-0.07 -0.1,-17.08 -0.07,-34.16 0.01,-51.23 0,-0.49 -0.01,-1.46 -0.01,-1.94 1.16,-0.3 2.32,-0.59 3.48,-0.88 0.57,-0.81 1.15,-1.61 1.72,-2.42 3.58,-0.24 6.72,-2.04 9.72,-3.86 0.12,0.69 0.35,2.05 0.47,2.74 2.59,-1.35 5.21,-2.86 8.19,-3.08 1.97,-0.07 3.55,-1.24 5.07,-2.36 0.84,-0.5 1.7,-0.96 2.58,-1.38 1.34,0.46 2.54,1.23 3.81,1.86 m -22.78,6.52 c -0.55,1.37 -1.11,2.74 -1.66,4.12 -1.3,0.07 -2.61,0.15 -3.91,0.22 0.07,0.47 0.22,1.4 0.29,1.86 0.55,0.35 1.65,1.05 2.2,1.4 -0.11,1.65 -0.24,3.31 -0.37,4.97 2.59,-2.18 5.62,-1.43 8.39,-0.05 -0.41,-1.34 -0.83,-2.68 -1.25,-4.02 1.19,-1.34 2.37,-2.68 3.55,-4.03 -1.46,-0.09 -2.92,-0.17 -4.38,-0.25 -0.55,-1.2 -1.1,-2.39 -1.64,-3.59 -0.3,-0.16 -0.91,-0.47 -1.22,-0.63 m 52.52,4.23 c -1.4,0.05 -2.78,0.11 -4.17,0.17 2.53,2.16 3.29,5.12 2.48,8.32 1.35,-0.77 2.72,-1.52 4.07,-2.3 1.36,0.75 2.72,1.51 4.08,2.27 -0.13,-1.62 -0.26,-3.23 -0.36,-4.85 1.13,-0.95 2.15,-2.03 2.76,-3.4 -1.43,-0.1 -2.86,-0.2 -4.28,-0.3 -0.69,-1.44 -1.37,-2.87 -2.05,-4.3 -0.85,1.46 -1.69,2.93 -2.53,4.39 m -34.15,-3.26 c -0.65,1.06 -1.15,2.22 -1.94,3.18 -1.37,0.2 -2.74,0.33 -4.12,0.4 1.17,1.31 2.34,2.62 3.5,3.95 -0.31,0.98 -0.93,2.93 -1.24,3.91 2.72,-1.54 5.74,-1.68 8.38,0.05 -0.12,-1.61 -0.25,-3.21 -0.37,-4.8 0.56,-0.41 1.69,-1.21 2.26,-1.62 0.05,-0.43 0.14,-1.28 0.19,-1.71 -1.29,-0.06 -2.58,-0.12 -3.87,-0.2 -0.69,-1.09 -0.89,-3.86 -2.79,-3.16 m 15.98,3.2 c -1.3,0.05 -2.59,0.1 -3.88,0.14 0.08,0.38 0.25,1.15 0.34,1.53 2.9,1.3 2.18,4.28 1.89,6.86 2.43,-2.24 5.52,-1.86 8.15,-0.25 -0.42,-2.5 -0.99,-5.28 1.66,-6.7 0.14,-0.35 0.42,-1.07 0.56,-1.43 -1.34,-0.03 -2.68,-0.06 -4.01,-0.09 -0.61,-1.16 -1.18,-2.35 -1.88,-3.46 -1.73,-0.09 -1.86,2.38 -2.83,3.4 m -34.26,13.91 c -0.57,1.32 -1.14,2.65 -1.69,3.98 -1.4,0.15 -2.79,0.31 -4.19,0.47 0.48,1.37 1.46,2.41 2.6,3.29 -0.05,1.57 -0.15,3.14 -0.24,4.71 2.59,-1.97 5.56,-1.38 8.28,-0.03 -0.36,-1.31 -0.75,-2.63 -1.02,-3.97 0.97,-1.44 2.18,-2.71 3.3,-4.03 -1.43,-0.08 -2.86,-0.15 -4.28,-0.21 -0.58,-1.18 -1.16,-2.36 -1.72,-3.54 -0.26,-0.17 -0.78,-0.51 -1.04,-0.67 m 18.18,0.57 c -0.52,1.21 -1.06,2.41 -1.59,3.61 -1.39,0.06 -2.78,0.12 -4.17,0.18 0.14,0.32 0.43,0.95 0.57,1.27 0.92,0.9 1.83,1.81 2.73,2.73 -0.42,1.36 -0.84,2.73 -1.24,4.11 2.76,-1.38 5.71,-2 8.36,-0.03 -0.1,-1.57 -0.19,-3.14 -0.24,-4.72 1.08,-0.92 2.08,-1.95 2.62,-3.29 -1.41,-0.13 -2.82,-0.25 -4.23,-0.37 -0.55,-1.31 -1.11,-2.62 -1.66,-3.92 -0.29,0.1 -0.87,0.32 -1.15,0.43 m 16.01,3.64 c -1.39,0.04 -2.77,0.09 -4.16,0.14 0.62,1.42 1.76,2.44 2.94,3.4 -0.13,1.59 -0.29,3.17 -0.46,4.76 2.53,-1.76 5.6,-1.92 8.14,-0.04 -0.8,-3.12 0.05,-5.98 2.52,-8.04 -1.42,-0.11 -2.84,-0.21 -4.26,-0.32 -0.7,-1.42 -1.4,-2.84 -2.09,-4.26 -0.89,1.44 -1.76,2.9 -2.63,4.36 m 18.17,-0.05 c -1.3,0.05 -2.6,0.1 -3.89,0.14 0.08,0.34 0.25,1.02 0.34,1.36 2.75,1.31 2.24,4.29 1.96,6.79 2.51,-1.83 5.51,-1.73 8.04,-0.06 -0.09,-1.55 -0.18,-3.11 -0.24,-4.67 1.13,-0.9 2.11,-1.97 2.66,-3.32 -1.4,-0.1 -2.8,-0.2 -4.19,-0.29 -0.67,-1.43 -1.33,-2.87 -2,-4.29 -0.91,1.43 -1.8,2.88 -2.68,4.34 m -52.31,13.81 c -0.61,1.31 -1.23,2.62 -1.83,3.94 -1.3,0.14 -2.59,0.27 -3.88,0.41 0.07,0.43 0.21,1.27 0.28,1.7 0.55,0.37 1.65,1.12 2.19,1.5 -0.1,1.64 -0.2,3.28 -0.3,4.93 2.54,-2.04 5.61,-1.64 8.3,-0.08 -0.31,-0.98 -0.92,-2.93 -1.23,-3.91 1.14,-1.32 2.3,-2.62 3.45,-3.91 -2.85,0.19 -5.42,-1.02 -6.03,-3.98 -0.24,-0.15 -0.71,-0.45 -0.95,-0.6 m 18.1,0.47 c -0.31,3.1 -2.99,4.29 -5.84,4.07 1.1,1.33 2.24,2.62 3.37,3.92 -0.29,0.98 -0.86,2.95 -1.14,3.93 2.72,-1.65 5.71,-1.84 8.28,0.14 -0.11,-1.66 -0.22,-3.32 -0.33,-4.97 0.58,-0.42 1.73,-1.25 2.31,-1.67 0.02,-0.39 0.07,-1.18 0.1,-1.57 -1.31,-0.11 -2.61,-0.22 -3.9,-0.34 -0.55,-1.27 -1.1,-2.55 -1.64,-3.82 -0.3,0.08 -0.91,0.23 -1.21,0.31 m 34.24,3.62 c -1.33,0.07 -2.65,0.14 -3.97,0.22 0.11,0.33 0.33,1 0.45,1.34 2.81,1.34 2.12,4.3 1.83,6.84 1.41,-0.6 2.75,-1.51 4.31,-1.66 1.38,0.31 2.61,1.08 3.89,1.66 -0.14,-1.59 -0.29,-3.19 -0.4,-4.78 1.1,-0.95 2.17,-1.96 2.83,-3.28 -1.44,-0.16 -2.88,-0.31 -4.32,-0.45 -0.67,-1.47 -1.34,-2.94 -1.99,-4.4 -0.88,1.5 -1.75,3.01 -2.63,4.51 m -18.11,-0.11 c -1.31,0.13 -2.61,0.26 -3.91,0.39 0.1,0.33 0.32,1 0.42,1.33 2.83,1.44 2.11,4.35 1.7,6.92 1.38,-0.74 2.75,-1.48 4.13,-2.23 1.4,0.77 2.82,1.52 4.25,2.26 -0.32,-1.42 -0.66,-2.84 -1.02,-4.25 0.87,-0.93 1.76,-1.83 2.66,-2.73 0.11,-0.3 0.33,-0.9 0.44,-1.2 -1.27,-0.16 -2.53,-0.37 -3.78,-0.64 -1,-1.06 -1.5,-2.63 -2.83,-3.34 -0.74,1.13 -1.39,2.31 -2.06,3.49 z"
       id="path311"
       inkscape:connector-curvature="0"
       style="opacity:1;fill:#ffffff" />
    <path
       d="m 41.27,152.26 c 13.05,-7.71 27.52,-12.94 42.46,-15.45 -0.03,2.65 -0.09,5.29 -0.08,7.95 -0.38,-0.64 -0.77,-1.27 -1.16,-1.9 -18.36,2.97 -35.97,10.06 -51.42,20.39 -5.31,3.57 -10.71,7.14 -15.21,11.74 0.12,-0.34 0.37,-1.01 0.5,-1.35 0.21,-0.56 0.63,-1.67 0.84,-2.23 0.92,-1.49 1.89,-2.94 2.81,-4.42 6.83,-5.26 13.76,-10.44 21.26,-14.73 z"
       id="path313"
       inkscape:connector-curvature="0"
       style="opacity:1;fill:#ffffff" />
    <path
       d="m 252.25,138.58 c 26.47,10.05 54.34,18.98 83.03,17.06 1.86,-0.07 3.72,-0.25 5.58,-0.44 2.34,-0.23 4.66,-0.59 6.99,-0.96 2.02,1.22 1.75,2.57 -0.07,3.7 -2.39,0.43 -4.77,0.89 -7.17,1.28 -29.69,2.48 -58.98,-5.73 -86.31,-16.6 -1.48,-0.67 -1.31,-2.79 -2.05,-4.04 z"
       id="path315"
       inkscape:connector-curvature="0"
       style="opacity:1;fill:#ffffff" />
    <path
       d="m 178.59,157.42 c -0.01,-2.32 -0.02,-4.64 -0.01,-6.95 25.92,9.95 51.3,21.27 77.1,31.54 0,-0.78 0.01,-2.33 0.01,-3.11 6.54,1.96 12.79,4.76 19.32,6.76 23.19,7.69 47.53,13.37 72.11,11.88 28.37,-1.53 55.47,-13.79 76.81,-32.27 0.87,1.44 1.76,2.87 2.71,4.26 0.56,1.73 1.3,3.4 2.1,5.04 0.08,0.2 0.26,0.6 0.35,0.8 -14.31,12.42 -31.11,22.16 -49.21,27.87 -21.25,6.67 -44.11,6.87 -65.92,3.02 -18.51,-3.2 -36.44,-9.1 -53.93,-15.84 -27.44,-10.27 -53.92,-22.93 -81.44,-33 z"
       id="path317"
       inkscape:connector-curvature="0"
       style="opacity:1;fill:#ffffff" />
    <path
       d="m 67.14,192.18 c 23.14,-4.98 47.2,-2.47 69.93,3.37 24.29,6.44 47.65,15.87 70.7,25.78 12.14,5.06 24.17,10.44 36.56,14.87 0.04,-0.79 0.12,-2.37 0.16,-3.16 26.69,10.36 54.65,19.05 83.54,19.26 15.04,-0.26 30.14,-2.72 44.18,-8.25 12.43,-4.94 24.23,-11.55 34.76,-19.8 1.9,-1.45 3.75,-2.97 5.52,-4.57 1.04,1.57 1.97,3.21 2.79,4.91 0.51,0.92 1,1.86 1.47,2.81 0.39,0.82 0.73,1.66 1.01,2.54 -10.07,8.18 -20.8,15.7 -32.61,21.16 -18.94,9.02 -40.21,13.04 -61.12,11.89 -37.89,-1.82 -73.29,-16.89 -107.84,-31.28 -35.55,-14.8 -71.39,-31.12 -110.12,-35.12 -16.68,-2.02 -33.69,-0.4 -49.86,4.07 -18.99,5.4 -36.49,15.42 -51.49,28.16 0.53,-1.12 1.05,-2.24 1.56,-3.37 0.6,-1.16 1.19,-2.33 1.8,-3.48 17.03,-14.27 37.21,-25.22 59.06,-29.79 z"
       id="path319"
       inkscape:connector-curvature="0"
       style="opacity:1;fill:#ffffff" />
  </g>
  <g
     id="#493493ff"
     transform="matrix(0.11034483,0,0,0.11034483,-5.2499999e-7,8.7724135)">
    <path
       d="m 84.01,79.08 c 3.31,0.24 -1.63,2.97 0,0 z"
       id="path322"
       inkscape:connector-curvature="0"
       style="opacity:1;fill:#493493" />
  </g>
  <g
     id="#ff1a67ff"
     transform="matrix(0.11034483,0,0,0.11034483,-5.2499999e-7,8.7724135)">
    <path
       d="m 119.94,82.15 c 12.45,-3.13 25.4,-3.22 38.13,-2.36 31.03,3.27 60.2,15.22 88.7,27.24 27.41,11.04 54.86,23.18 84.32,27.52 9.23,1.56 18.63,1.21 27.95,1.13 24.73,-1.02 48.03,-12.18 66.92,-27.72 0.59,1.18 1.2,2.34 1.83,3.5 l 0.17,0.42 c -8.01,6.62 -16.79,12.24 -26.05,16.92 -6.21,3.66 -13.41,4.9 -19.8,8.12 -7.08,0.57 -13.91,2.87 -21.04,3.02 -21.83,1.56 -43.59,-2.95 -64.21,-9.81 -16.55,-5.76 -32.9,-12.08 -48.96,-19.07 -14.75,-5.15 -28.77,-12.2 -43.7,-16.82 -0.47,1.94 -0.93,3.88 -1.39,5.83 -8.03,-2.69 -16.15,-5.14 -24.4,-7.03 -2.16,-0.43 -4.33,-0.78 -6.49,-1.23 -3.61,-0.76 -7.24,-1.44 -10.9,-1.92 l -0.6,-0.08 c -18.88,-2.5 -38.46,-1.06 -56.43,5.44 -2.14,0.8 -4.27,1.63 -6.39,2.51 -2.44,1.04 -4.85,2.16 -7.21,3.35 -2.28,1.17 -4.5,2.45 -6.7,3.76 0.03,4.9 -0.07,9.8 0,14.7 0.03,2.2 0.05,4.4 0.08,6.6 -0.12,-1.05 -0.25,-2.09 -0.4,-3.13 -13.2,2.76 -25.78,7.94 -37.23,15.04 -6.26,3.39 -11.53,8.22 -17.55,11.98 0.85,-2.02 1.89,-3.96 3.26,-5.68 0.08,-0.44 0.23,-1.31 0.3,-1.74 1.2,-1.63 2.24,-3.37 3.17,-5.17 0.78,-1.65 1.58,-3.29 2.4,-4.91 0.25,-0.52 0.73,-1.54 0.97,-2.05 0.18,-0.46 0.53,-1.39 0.71,-1.85 l 0.69,-1.12 c 0.5,1.16 1.01,2.31 1.55,3.46 -0.83,1.2 -1.67,2.39 -2.53,3.57 1.52,-0.83 3.05,-1.62 4.58,-2.41 -0.74,-2.03 -1.8,-3.91 -2.92,-5.75 0.49,-0.99 0.99,-1.99 1.47,-2.98 1.04,-1.98 1.84,-4.19 3.66,-5.59 8.98,-4.76 16.48,-12.71 26.69,-14.87 -0.58,1.4 -1.11,2.83 -1.63,4.26 14.26,-11.76 30.87,-20.97 48.98,-25.08 m -37.73,28.84 c -3.57,1.43 -3.96,5.74 -4.98,8.94 1.32,0.6 2.64,1.19 3.97,1.8 1.3,-1.27 2.17,-2.91 1.96,-4.79 -0.21,-1.95 0.8,-4.53 -0.95,-5.95 z"
       id="path325"
       inkscape:connector-curvature="0"
       style="opacity:1;fill:#ff1a67" />
    <path
       d="m 178.59,157.42 c 27.52,10.07 54,22.73 81.44,33 17.49,6.74 35.42,12.64 53.93,15.84 21.81,3.85 44.67,3.65 65.92,-3.02 18.1,-5.71 34.9,-15.45 49.21,-27.87 0.58,1.03 1.15,2.07 1.7,3.13 0.12,0.37 0.36,1.11 0.49,1.48 -8.79,7.92 -19.06,14.01 -29.33,19.81 -24.96,13.04 -54.3,16.73 -81.94,12.03 -7.24,-0.84 -14.43,-2.11 -21.39,-4.33 -11.11,-2.75 -22.01,-6.3 -32.69,-10.4 -8.47,-2.58 -16.4,-6.54 -24.72,-9.5 -15.83,-6.33 -31.25,-13.64 -47.22,-19.64 -4.9,-1.47 -9.51,-4.25 -14.74,-4.29 -0.05,2.07 -0.11,4.15 -0.22,6.22 -0.03,0.62 -0.1,1.86 -0.13,2.48 -0.42,-4.97 -0.28,-9.96 -0.31,-14.94 z"
       id="path327"
       inkscape:connector-curvature="0"
       style="opacity:1;fill:#ff1a67" />
    <path
       d="m 56.21,200.66 c 16.17,-4.47 33.18,-6.09 49.86,-4.07 38.73,4 74.57,20.32 110.12,35.12 34.55,14.39 69.95,29.46 107.84,31.28 20.91,1.15 42.18,-2.87 61.12,-11.89 11.81,-5.46 22.54,-12.98 32.61,-21.16 0.15,0.37 0.46,1.12 0.61,1.49 0.61,1.06 1.24,2.1 1.88,3.15 -8.14,5.77 -15.95,12.06 -24.52,17.19 -8.06,3.64 -15.98,7.66 -24.43,10.35 -18.27,6.3 -37.91,6.67 -56.99,5.22 -24.93,-3.22 -48.85,-11.34 -72.15,-20.49 -12.51,-4.46 -24.39,-10.48 -36.8,-15.19 -9.37,-3.58 -18.43,-7.96 -27.99,-11.04 -6.09,-1.93 -11.55,-5.43 -17.78,-7 -0.62,2.14 -1.22,4.35 -0.97,6.61 -1.08,-0.31 -2.14,-0.63 -3.2,-0.97 -0.46,-0.12 -1.38,-0.37 -1.84,-0.5 -1.35,-0.5 -2.71,-0.97 -4.06,-1.45 -1.04,-0.35 -2.07,-0.7 -3.09,-1.07 -0.46,-0.12 -1.37,-0.37 -1.83,-0.5 -1.71,-0.53 -3.45,-0.96 -5.16,-1.48 -0.46,-0.13 -1.37,-0.4 -1.82,-0.53 -1.74,-0.52 -3.49,-0.96 -5.23,-1.47 -0.91,-0.2 -1.82,-0.39 -2.73,-0.57 -1.65,-0.44 -3.33,-0.73 -5.01,-1.03 -2.1,-0.5 -4.24,-0.84 -6.31,-1.45 -1.88,-0.17 -3.77,-0.29 -5.65,-0.47 -2.56,-0.94 -5.31,-0.76 -7.97,-0.98 -1.82,-0.73 -3.79,-0.83 -5.72,-0.81 -6.64,0.03 -13.28,-0.02 -19.93,-0.01 -2.62,0.02 -5.31,-0.13 -7.81,0.77 -2.34,0.22 -4.7,0.33 -6.98,0.94 -2,0.28 -4.01,0.5 -5.97,1.01 -0.9,0.21 -1.8,0.42 -2.7,0.64 -2.06,0.53 -4.17,0.87 -6.23,1.41 -0.48,0.11 -1.44,0.32 -1.93,0.43 -0.97,0.57 -1.95,1.15 -2.92,1.73 -0.49,0.09 -1.46,0.27 -1.94,0.35 -1.05,0.36 -2.11,0.71 -3.17,1.04 -1.65,0.85 -3.31,1.7 -4.94,2.59 -0.5,0.07 -1.5,0.21 -2,0.27 -0.96,0.55 -1.92,1.1 -2.89,1.65 -0.52,0.23 -1.56,0.67 -2.08,0.9 -2.73,1.48 -5.3,3.25 -8.11,4.6 -6.83,3.9 -13.03,8.78 -19.4,13.38 v -0.94 c 1.5,-2.74 2.97,-5.5 4.25,-8.35 l 0.47,-0.54 c 15,-12.74 32.5,-22.76 51.49,-28.16 z"
       id="path329"
       inkscape:connector-curvature="0"
       style="opacity:1;fill:#ff1a67" />
  </g>
  <g
     id="#9ca09eff"
     transform="matrix(0.11034483,0,0,0.11034483,-5.2499999e-7,8.7724135)">
    <path
       d="m 103.99,95.25 c 17.97,-6.5 37.55,-7.94 56.43,-5.44 -0.54,1.35 -1.07,2.71 -1.61,4.07 -0.24,-0.47 -0.73,-1.41 -0.97,-1.88 -0.41,0.66 -0.82,1.31 -1.24,1.95 -4.63,-0.11 -9.42,-0.95 -13.96,0.25 -0.3,0.43 -0.88,1.31 -1.18,1.75 -0.69,-1.3 -1.41,-2.58 -2.13,-3.85 -0.68,1.38 -1.35,2.77 -2.02,4.16 -1.5,0.2 -2.99,0.39 -4.48,0.63 -1.7,0.28 -3.39,0.59 -5.06,0.99 -0.06,-0.33 -0.18,-0.99 -0.24,-1.32 -1.19,-0.14 -2.37,-0.26 -3.56,-0.36 -0.7,-1.4 -1.4,-2.8 -2.09,-4.2 -0.9,1.45 -1.78,2.9 -2.66,4.35 -1.34,0.09 -2.67,0.17 -4.01,0.26 0.38,0.48 1.13,1.45 1.5,1.94 -2.67,1.57 -5.56,2.73 -8.62,3.26 -0.13,1.22 -0.25,2.44 -0.37,3.67 -0.67,-0.14 -2.01,-0.42 -2.69,-0.56 l -0.26,-1.28 c 0.65,0.2 1.96,0.6 2.62,0.8 -0.23,-1.43 -0.46,-2.85 -0.68,-4.28 1.06,-1.07 2.11,-2.16 3.17,-3.24 -1.97,-0.55 -3.93,-1.1 -5.89,-1.67 z"
       id="path332"
       inkscape:connector-curvature="0"
       style="opacity:1;fill:#9ca09e" />
  </g>
  <g
     id="#ff3096ff"
     transform="matrix(0.11034483,0,0,0.11034483,-5.2499999e-7,8.7724135)">
    <path
       d="m 231.15,89.3 c 1.63,-0.54 2.2,0 1.73,1.62 -1.64,0.54 -2.21,-0.01 -1.73,-1.62 z"
       id="path335"
       inkscape:connector-curvature="0"
       style="opacity:1;fill:#ff3096" />
  </g>
  <g
     id="#bbbdbeff"
     transform="matrix(0.11034483,0,0,0.11034483,-5.2499999e-7,8.7724135)">
    <path
       d="m 160.42,89.81 0.6,0.08 c 0.4,1.15 0.75,2.32 1.11,3.48 3.17,0.73 6.41,1.23 9.68,1.14 -0.04,1.3 -0.06,2.6 -0.06,3.91 -2.62,0.25 -5.27,-0.04 -7.64,-1.22 -1.34,-0.56 -2.78,-0.84 -4.17,-1.2 -0.38,-0.7 -0.76,-1.41 -1.13,-2.12 0.54,-1.36 1.07,-2.72 1.61,-4.07 z"
       id="path338"
       inkscape:connector-curvature="0"
       style="opacity:1;fill:#bbbdbe" />
    <path
       d="m 357.2,152.12 c 1.53,-0.38 3.05,-0.84 4.58,-1.29 1.36,0.2 2.72,0.41 4.08,0.65 -0.69,0.97 -1.39,1.93 -2.08,2.91 -2.04,0.39 -4.06,0.85 -6.05,1.42 -1.88,-1.05 -3.9,-1.84 -5.97,-2.39 1.82,-0.39 3.63,-0.84 5.44,-1.3 z"
       id="path340"
       inkscape:connector-curvature="0"
       style="opacity:1;fill:#bbbdbe" />
  </g>
  <g
     id="#a49ea0ff"
     transform="matrix(0.11034483,0,0,0.11034483,-5.2499999e-7,8.7724135)">
    <path
       d="m 161.02,89.89 c 3.66,0.48 7.29,1.16 10.9,1.92 -0.03,0.68 -0.08,2.03 -0.11,2.7 -3.27,0.09 -6.51,-0.41 -9.68,-1.14 -0.36,-1.16 -0.71,-2.33 -1.11,-3.48 z"
       id="path343"
       inkscape:connector-curvature="0"
       style="opacity:1;fill:#a49ea0" />
  </g>
  <g
     id="#051f67ff"
     transform="matrix(0.11034483,0,0,0.11034483,-5.2499999e-7,8.7724135)">
    <path
       d="m 156.6,93.95 c 0.42,-0.64 0.83,-1.29 1.24,-1.95 0.24,0.47 0.73,1.41 0.97,1.88 0.37,0.71 0.75,1.42 1.13,2.12 1.39,0.36 2.83,0.64 4.17,1.2 -0.58,0.61 -1.75,1.85 -2.33,2.47 l -0.55,-0.35 c -2.07,-1.21 -4.32,-2.08 -6.65,-2.63 0.71,-0.89 1.39,-1.8 2.02,-2.74 z"
       id="path346"
       inkscape:connector-curvature="0"
       style="opacity:1;fill:#051f67" />
    <path
       d="m 171.92,91.81 c 2.16,0.45 4.33,0.8 6.49,1.23 0.01,1.99 0.01,3.98 0.05,5.98 -0.6,-0.13 -1.79,-0.39 -2.39,-0.52 -1.33,1.54 -2.64,3.09 -3.93,4.67 l -0.12,-1.25 -0.11,-1.03 c -0.07,-0.83 -0.13,-1.65 -0.16,-2.47 0,-1.31 0.02,-2.61 0.06,-3.91 0.03,-0.67 0.08,-2.02 0.11,-2.7 z"
       id="path348"
       inkscape:connector-curvature="0"
       style="opacity:1;fill:#051f67" />
    <path
       d="m 119.22,96.35 c 0.88,-1.45 1.76,-2.9 2.66,-4.35 0.69,1.4 1.39,2.8 2.09,4.2 1.19,0.1 2.37,0.22 3.56,0.36 0.06,0.33 0.18,0.99 0.24,1.32 -0.53,0.4 -1.58,1.19 -2.1,1.59 -0.14,1.75 -0.12,3.51 -0.14,5.27 -1.27,-0.63 -2.47,-1.4 -3.81,-1.86 -0.88,0.42 -1.74,0.88 -2.58,1.38 l -1.5,0.62 c 0.07,-0.78 0.2,-2.34 0.27,-3.13 -0.12,-1.16 -0.54,-2.24 -1.2,-3.2 -0.37,-0.49 -1.12,-1.46 -1.5,-1.94 1.34,-0.09 2.67,-0.17 4.01,-0.26 z"
       id="path350"
       inkscape:connector-curvature="0"
       style="opacity:1;fill:#051f67" />
    <path
       d="m 137.31,96.26 c 0.67,-1.39 1.34,-2.78 2.02,-4.16 0.72,1.27 1.44,2.55 2.13,3.85 1.31,0.27 2.63,0.55 3.93,0.85 l 0.04,1.13 c -0.32,0.29 -0.96,0.88 -1.28,1.18 l -0.34,0.36 c -1.88,-0.68 -3.75,-1.36 -5.63,-2.03 -0.86,0.84 -1.73,1.69 -2.59,2.54 -0.21,-0.25 -0.64,-0.74 -0.85,-0.99 -0.48,-0.53 -1.44,-1.58 -1.91,-2.1 1.49,-0.24 2.98,-0.43 4.48,-0.63 z"
       id="path352"
       inkscape:connector-curvature="0"
       style="opacity:1;fill:#051f67" />
    <path
       d="m 97.6,97.76 c 2.12,-0.88 4.25,-1.71 6.39,-2.51 1.96,0.57 3.92,1.12 5.89,1.67 -1.06,1.08 -2.11,2.17 -3.17,3.24 0.22,1.43 0.45,2.85 0.68,4.28 -0.66,-0.2 -1.97,-0.6 -2.62,-0.8 -0.46,-0.12 -1.37,-0.37 -1.82,-0.49 -1.28,0.58 -2.54,1.22 -3.81,1.79 0.17,-1.18 0.35,-2.37 0.53,-3.55 -0.68,-1.22 -1.37,-2.43 -2.07,-3.63 z"
       id="path354"
       inkscape:connector-curvature="0"
       style="opacity:1;fill:#051f67" />
    <path
       d="m 83.69,104.87 c 2.2,-1.31 4.42,-2.59 6.7,-3.76 0.09,4.34 0.07,8.67 0.1,13.01 0,0.48 0.01,1.45 0.01,1.94 -0.54,-0.13 -1.62,-0.38 -2.17,-0.5 -1.54,1.34 -3.09,2.68 -4.64,4.01 -0.07,-4.9 0.03,-9.8 0,-14.7 z"
       id="path356"
       inkscape:connector-curvature="0"
       style="opacity:1;fill:#051f67" />
  </g>
  <g
     id="#c2b8b8ff"
     transform="matrix(0.11034483,0,0,0.11034483,-5.2499999e-7,8.7724135)">
    <path
       d="m 142.64,94.2 c 4.54,-1.2 9.33,-0.36 13.96,-0.25 -0.63,0.94 -1.31,1.85 -2.02,2.74 -0.87,-0.1 -2.61,-0.29 -3.48,-0.39 0.91,1.23 1.83,2.45 2.76,3.67 -0.25,-0.08 -0.75,-0.23 -1,-0.31 -1.31,-1 -2.58,-2.06 -3.85,-3.12 -1.2,0.45 -2.4,0.9 -3.58,1.39 l -0.04,-1.13 c -1.3,-0.3 -2.62,-0.58 -3.93,-0.85 0.3,-0.44 0.88,-1.32 1.18,-1.75 z"
       id="path359"
       inkscape:connector-curvature="0"
       style="opacity:1;fill:#c2b8b8" />
  </g>
  <g
     id="#b30d41ff"
     transform="matrix(0.11034483,0,0,0.11034483,-5.2499999e-7,8.7724135)">
    <path
       d="m 178.41,93.04 c 8.25,1.89 16.37,4.34 24.4,7.03 36.26,12.53 70.63,30.15 107.56,40.83 -2.51,-0.21 -5.02,-0.3 -7.53,-0.33 6.5,3.83 14.26,4.6 21.52,6.16 1.04,0.31 1.87,1.04 2.76,1.64 5.94,-0.13 11.86,1.13 17.53,2.8 0.15,-0.45 0.45,-1.37 0.6,-1.83 3.91,1.2 7.87,2.3 11.95,2.78 -1.81,0.46 -3.62,0.91 -5.44,1.3 -1.32,0.26 -2.61,0.57 -3.91,0.82 -2.33,0.37 -4.65,0.73 -6.99,0.96 -3.96,-1.5 -8.23,-2.09 -12.07,-3.91 -2.12,-0.98 -4.44,-1.29 -6.73,-1.62 -9.07,-1.4 -17.5,-5.12 -26.31,-7.5 -3.91,-1.49 -7.42,-3.94 -11.52,-4.95 -4.06,-0.98 -7.29,-4.03 -11.45,-4.68 -3.7,-0.69 -6.89,-2.88 -10.53,-3.76 -5.51,-1.17 -9.89,-4.96 -15.13,-6.84 -10.31,-2.26 -19.33,-8.22 -29.44,-11.12 -5.05,-1.29 -9.84,-3.88 -15.18,-3.73 -0.13,0.47 -0.41,1.42 -0.54,1.89 -0.26,-0.36 -0.78,-1.08 -1.04,-1.44 -4.38,-0.19 -8.26,-2.41 -12.35,-3.73 -0.62,-0.49 -1.24,-0.97 -1.87,-1.44 l -1.05,-0.05 c -2.39,-0.02 -4.78,-0.14 -7.13,-0.54 -0.03,-0.92 -0.05,-1.84 -0.06,-2.76 -0.04,-2 -0.04,-3.99 -0.05,-5.98 z"
       id="path362"
       inkscape:connector-curvature="0"
       style="opacity:1;fill:#b30d41" />
  </g>
  <g
     id="#fd1a4dff"
     transform="matrix(0.11034483,0,0,0.11034483,-5.2499999e-7,8.7724135)">
    <path
       d="m 204.2,94.24 c 14.93,4.62 28.95,11.67 43.7,16.82 16.06,6.99 32.41,13.31 48.96,19.07 20.62,6.86 42.38,11.37 64.21,9.81 7.13,-0.15 13.96,-2.45 21.04,-3.02 6.39,-3.22 13.59,-4.46 19.8,-8.12 9.26,-4.68 18.04,-10.3 26.05,-16.92 0.54,1.2 1.13,2.39 1.71,3.58 0.46,0.75 0.93,1.5 1.41,2.24 -4.9,4.03 -10.09,7.73 -15.48,11.07 -2.06,1.22 -4.09,2.48 -6.23,3.56 -0.46,0.7 -0.93,1.39 -1.42,2.06 -6.69,3.01 -13.45,5.84 -20.43,8.1 -4.33,1.27 -8.76,2.18 -13.11,3.35 -11.76,1.4 -23.68,2.02 -35.47,0.6 -9.65,-1.12 -19.18,-3.07 -28.57,-5.54 -36.93,-10.68 -71.3,-28.3 -107.56,-40.83 0.46,-1.95 0.92,-3.89 1.39,-5.83 z"
       id="path365"
       inkscape:connector-curvature="0"
       style="opacity:1;fill:#fd1a4d" />
    <path
       d="m 179.25,163.66 c 5.23,0.04 9.84,2.82 14.74,4.29 15.97,6 31.39,13.31 47.22,19.64 8.32,2.96 16.25,6.92 24.72,9.5 10.68,4.1 21.58,7.65 32.69,10.4 6.96,2.22 14.15,3.49 21.39,4.33 27.64,4.7 56.98,1.01 81.94,-12.03 10.27,-5.8 20.54,-11.89 29.33,-19.81 l 0.32,0.21 c 0.29,0.57 0.87,1.7 1.16,2.27 0.75,1.45 1.48,2.9 2.24,4.35 v 0.63 c -6.95,4.57 -13.08,10.34 -20.45,14.27 -2.05,1.35 -3.97,2.88 -5.98,4.28 -0.63,0 -1.89,0.01 -2.52,0.02 -0.04,0.43 -0.11,1.3 -0.15,1.74 -10.23,4.84 -20.83,9.06 -31.99,11.23 -15.6,3.79 -31.75,3.43 -47.64,2.16 -11.94,-2.2 -23.95,-4.27 -35.59,-7.83 -8.51,-2.7 -17.06,-5.33 -25.35,-8.64 -3.76,-1.49 -7.45,-3.17 -11.34,-4.3 -3.68,-1.42 -7.21,-3.26 -10.98,-4.43 -0.33,-0.1 -0.98,-0.31 -1.31,-0.41 -20.78,-8.83 -41.58,-17.6 -62.67,-25.65 0.11,-2.07 0.17,-4.15 0.22,-6.22 z"
       id="path367"
       inkscape:connector-curvature="0"
       style="opacity:1;fill:#fd1a4d" />
    <path
       d="m 158.62,220.23 c -0.25,-2.26 0.35,-4.47 0.97,-6.61 6.23,1.57 11.69,5.07 17.78,7 9.56,3.08 18.62,7.46 27.99,11.04 12.41,4.71 24.29,10.73 36.8,15.19 23.3,9.15 47.22,17.27 72.15,20.49 19.08,1.45 38.72,1.08 56.99,-5.22 8.45,-2.69 16.37,-6.71 24.43,-10.35 8.57,-5.13 16.38,-11.42 24.52,-17.19 l 0.39,0.71 c 0.75,1.4 1.47,2.83 2.23,4.23 0.06,0.53 0.17,1.6 0.23,2.13 -1.59,1.4 -3.21,2.77 -4.99,3.91 -0.05,0.25 -0.15,0.74 -0.2,0.99 -4.33,2.4 -8.14,5.57 -12.3,8.23 -1.7,0.96 -3.35,1.99 -5.04,2.95 -1.39,0.83 -2.74,1.72 -4.11,2.57 -1.64,0.8 -3.28,1.6 -4.91,2.41 -2.04,1.01 -4.07,2.05 -6.07,3.14 -0.5,0.07 -1.51,0.19 -2.01,0.26 -0.99,0.59 -1.98,1.18 -2.96,1.78 -0.48,0.07 -1.45,0.23 -1.93,0.31 -1.02,0.39 -2.03,0.76 -3.05,1.13 -1,0.36 -2.01,0.71 -3.01,1.06 -1.33,0.33 -2.66,0.61 -3.99,0.89 -1,0.38 -2,0.75 -2.99,1.11 -2.07,0.46 -4.16,0.79 -6.2,1.33 -1.23,0.19 -2.45,0.37 -3.66,0.57 -3.46,1.31 -7.36,0.02 -10.72,1.71 h -23.18 c -3.19,-1.88 -7.1,-0.33 -10.47,-1.68 -2.02,-0.28 -4.06,-0.45 -6,-1.07 -1.56,-0.19 -3.12,-0.32 -4.68,-0.47 -1.72,-0.54 -3.47,-0.97 -5.2,-1.48 -1.35,-0.3 -2.7,-0.6 -4.02,-0.95 -1.34,-0.33 -2.68,-0.65 -4,-1.01 -1.34,-0.32 -2.68,-0.64 -4,-1 -1.32,-0.31 -2.63,-0.61 -3.94,-0.96 -1,-0.35 -1.99,-0.71 -2.98,-1.08 -1.01,-0.32 -2.01,-0.65 -3.01,-1 -1.01,-0.31 -2.02,-0.63 -3.02,-0.96 -1.01,-0.36 -2.02,-0.74 -3.01,-1.12 -0.47,-0.11 -1.42,-0.33 -1.89,-0.44 -1,-0.4 -2.01,-0.78 -3.02,-1.14 -1.03,-0.31 -2.05,-0.61 -3.08,-0.89 -0.96,-0.5 -1.93,-0.99 -2.89,-1.48 -1.05,-0.33 -2.1,-0.67 -3.14,-1.02 -0.46,-0.13 -1.38,-0.38 -1.84,-0.51 -1.05,-0.35 -2.1,-0.68 -3.16,-0.99 -0.98,-0.55 -1.96,-1.09 -2.93,-1.64 -0.51,-0.05 -1.53,-0.15 -2.03,-0.2 -0.98,-0.61 -1.95,-1.22 -2.92,-1.83 -0.52,-0.04 -1.56,-0.12 -2.08,-0.16 -0.98,-0.61 -1.95,-1.22 -2.93,-1.83 -0.5,-0.05 -1.52,-0.16 -2.03,-0.22 -1.66,-0.92 -3.35,-1.82 -5.01,-2.74 -0.51,-0.06 -1.53,-0.17 -2.04,-0.22 -0.98,-0.61 -1.95,-1.21 -2.93,-1.82 -0.5,-0.05 -1.51,-0.16 -2.01,-0.21 -1.67,-0.93 -3.36,-1.83 -5.02,-2.76 -0.51,-0.05 -1.52,-0.16 -2.03,-0.22 -0.98,-0.6 -1.96,-1.21 -2.93,-1.81 -0.5,-0.05 -1.5,-0.16 -2.01,-0.21 -1.67,-0.93 -3.36,-1.82 -5.02,-2.74 -0.5,-0.07 -1.5,-0.21 -2,-0.28 -1.67,-0.92 -3.35,-1.81 -5.01,-2.73 -0.51,-0.06 -1.53,-0.17 -2.04,-0.22 -0.98,-0.61 -1.96,-1.22 -2.93,-1.83 -0.52,-0.04 -1.54,-0.12 -2.05,-0.16 -0.99,-0.62 -1.97,-1.23 -2.95,-1.84 -0.51,-0.04 -1.54,-0.12 -2.05,-0.16 -0.99,-0.62 -1.97,-1.23 -2.95,-1.84 -0.51,-0.04 -1.53,-0.12 -2.03,-0.17 -1,-0.61 -1.98,-1.21 -2.97,-1.82 -0.51,-0.05 -1.54,-0.15 -2.05,-0.19 -0.96,-0.57 -1.93,-1.13 -2.89,-1.68 -1.05,-0.27 -2.09,-0.55 -3.13,-0.84 -1.01,-0.39 -2.02,-0.78 -3.03,-1.19 -0.48,-0.08 -1.45,-0.24 -1.93,-0.32 -0.98,-0.57 -1.96,-1.13 -2.94,-1.69 -0.59,-0.09 -1.76,-0.27 -2.35,-0.36 z"
       id="path369"
       inkscape:connector-curvature="0"
       style="opacity:1;fill:#fd1a4d" />
  </g>
  <g
     id="#f91a49ff"
     transform="matrix(0.11034483,0,0,0.11034483,-5.2499999e-7,8.7724135)">
    <path
       d="m 48.68,111.09 c 9.24,-5.23 17.21,-12.8 27.46,-16.17 0.45,1.21 0.9,2.41 1.36,3.61 -1.74,1.36 -3.41,2.81 -4.91,4.44 -10.21,2.16 -17.71,10.11 -26.69,14.87 0.06,-0.58 0.17,-1.74 0.22,-2.32 0.76,-1.4 1.48,-2.83 2.26,-4.21 z"
       id="path372"
       inkscape:connector-curvature="0"
       style="opacity:1;fill:#f91a49" />
  </g>
  <g
     id="#d9d1d3ff"
     transform="matrix(0.11034483,0,0,0.11034483,-5.2499999e-7,8.7724135)">
    <path
       d="m 127.77,97.88 c 1.67,-0.4 3.36,-0.71 5.06,-0.99 0.47,0.52 1.43,1.57 1.91,2.1 -2.42,1.96 -5.34,3.04 -8.42,3.38 -0.16,-0.72 -0.49,-2.17 -0.65,-2.9 0.52,-0.4 1.57,-1.19 2.1,-1.59 z"
       id="path375"
       inkscape:connector-curvature="0"
       style="opacity:1;fill:#d9d1d3" />
    <path
       d="m 347.85,154.24 c 1.3,-0.25 2.59,-0.56 3.91,-0.82 2.07,0.55 4.09,1.34 5.97,2.39 -0.97,0.31 -2.9,0.92 -3.86,1.22 -2.03,0.36 -4.07,0.58 -6.09,0.91 1.82,-1.13 2.09,-2.48 0.07,-3.7 z"
       id="path377"
       inkscape:connector-curvature="0"
       style="opacity:1;fill:#d9d1d3" />
  </g>
  <g
     id="#102d88ff"
     transform="matrix(0.11034483,0,0,0.11034483,-5.2499999e-7,8.7724135)">
    <path
       d="m 138.18,97.44 c 1.88,0.67 3.75,1.35 5.63,2.03 -0.25,0.31 -0.76,0.92 -1.01,1.23 0.34,1.38 0.66,2.77 0.97,4.17 -1.48,-0.73 -2.96,-1.47 -4.43,-2.22 -1.3,0.75 -2.6,1.5 -3.9,2.26 0.06,-1.65 0.16,-3.29 0.15,-4.93 0.86,-0.85 1.73,-1.7 2.59,-2.54 z"
       id="path380"
       inkscape:connector-curvature="0"
       style="opacity:1;fill:#102d88" />
    <path
       d="m 151.1,96.3 c 0.87,0.1 2.61,0.29 3.48,0.39 2.33,0.55 4.58,1.42 6.65,2.63 0.19,1.86 0.36,3.73 0.52,5.6 -1.31,-0.79 -2.6,-1.58 -3.89,-2.38 -1.44,0.78 -2.87,1.56 -4.31,2.34 0.11,-1.64 0.21,-3.28 0.31,-4.91 -0.93,-1.22 -1.85,-2.44 -2.76,-3.67 z"
       id="path382"
       inkscape:connector-curvature="0"
       style="opacity:1;fill:#102d88" />
  </g>
  <g
     id="#dfdeddff"
     transform="matrix(0.11034483,0,0,0.11034483,-5.2499999e-7,8.7724135)">
    <path
       d="m 145.43,97.93 c 1.18,-0.49 2.38,-0.94 3.58,-1.39 1.27,1.06 2.54,2.12 3.85,3.12 -2.5,0.51 -4.98,1.15 -7.46,1.76 -0.33,1.16 -0.66,2.33 -0.99,3.5 -0.1,-1.94 -0.19,-3.88 -0.26,-5.81 0.32,-0.3 0.96,-0.89 1.28,-1.18 z"
       id="path385"
       inkscape:connector-curvature="0"
       style="opacity:1;fill:#dfdedd" />
    <path
       d="m 107.72,105.48 c 3.74,0.03 6.93,-2.2 10.19,-3.73 -0.07,0.79 -0.2,2.35 -0.27,3.13 l 1.5,-0.62 c -1.52,1.12 -3.1,2.29 -5.07,2.36 -2.98,0.22 -5.6,1.73 -8.19,3.08 -0.12,-0.69 -0.35,-2.05 -0.47,-2.74 -0.09,-0.51 -0.28,-1.53 -0.38,-2.04 0.68,0.14 2.02,0.42 2.69,0.56 z"
       id="path387"
       inkscape:connector-curvature="0"
       style="opacity:1;fill:#dfdedd" />
  </g>
  <g
     id="#eee8eaff"
     transform="matrix(0.11034483,0,0,0.11034483,-5.2499999e-7,8.7724135)">
    <path
       d="m 164.11,97.2 c 2.37,1.18 5.02,1.47 7.64,1.22 0.03,0.82 0.09,1.64 0.16,2.47 -0.22,0 -0.67,0.01 -0.89,0.01 -1.34,0.42 -2.65,0.94 -4,1.31 -2.03,-0.06 -3.58,-1.56 -5.24,-2.54 0.58,-0.62 1.75,-1.86 2.33,-2.47 z"
       id="path390"
       inkscape:connector-curvature="0"
       style="opacity:1;fill:#eee8ea" />
  </g>
  <g
     id="#b1b0b0ff"
     transform="matrix(0.11034483,0,0,0.11034483,-5.2499999e-7,8.7724135)">
    <path
       d="m 90.39,101.11 c 2.36,-1.19 4.77,-2.31 7.21,-3.35 0.7,1.2 1.39,2.41 2.07,3.63 -1.5,-0.19 -2.89,-0.78 -4.24,-1.41 -1.32,1.39 -2.61,2.79 -3.91,4.19 0.78,0.66 1.56,1.32 2.34,1.98 0.95,-0.47 1.91,-0.93 2.87,-1.4 0.7,0.11 1.41,0.21 2.12,0.29 l 0.29,-0.1 c 1.27,-0.57 2.53,-1.21 3.81,-1.79 0.45,0.12 1.36,0.37 1.82,0.49 l 0.26,1.28 c 0.1,0.51 0.29,1.53 0.38,2.04 -3,1.82 -6.14,3.62 -9.72,3.86 -0.57,0.81 -1.15,1.61 -1.72,2.42 -1.16,0.29 -2.32,0.58 -3.48,0.88 -0.03,-4.34 -0.01,-8.67 -0.1,-13.01 z"
       id="path393"
       inkscape:connector-curvature="0"
       style="opacity:1;fill:#b1b0b0" />
  </g>
  <g
     id="#13349bff"
     transform="matrix(0.11034483,0,0,0.11034483,-5.2499999e-7,8.7724135)">
    <path
       d="m 176.07,98.5 c 0.6,0.13 1.79,0.39 2.39,0.52 0.01,0.92 0.03,1.84 0.06,2.76 0.18,10.84 0.1,21.68 0.05,32.52 -0.03,2.28 -0.03,4.56 -0.01,6.85 0.05,3.1 0.05,6.21 0.02,9.32 -0.01,2.31 0,4.63 0.01,6.95 0.03,4.98 -0.11,9.97 0.31,14.94 l 0.03,1.1 c -5.5,0.42 -11.01,0 -16.5,0.28 -26.23,-0.3 -52.46,-0.02 -78.69,-0.15 0.01,-3.37 -0.05,-6.74 0.04,-10.12 -0.05,-3.12 0.43,-6.47 -1.06,-9.35 l -0.4,-0.38 c 0.17,-0.19 0.53,-0.55 0.71,-0.73 1.31,-2.56 0.69,-5.51 0.62,-8.25 -0.01,-2.66 0.05,-5.3 0.08,-7.95 0.04,-2.78 0.09,-5.55 0.09,-8.32 -0.01,-0.58 -0.04,-1.74 -0.05,-2.32 -0.03,-2.2 -0.05,-4.4 -0.08,-6.6 1.55,-1.33 3.1,-2.67 4.64,-4.01 0.55,0.12 1.63,0.37 2.17,0.5 -0.08,17.07 -0.11,34.15 -0.01,51.23 27.08,0.05 54.16,-0.15 81.24,0.07 1.18,-10.95 0.24,-22.03 0.51,-33.04 0.43,0.11 1.27,0.32 1.7,0.43 -0.8,-2.52 -1.72,-5.05 -1.68,-7.73 -0.12,-7.95 0.2,-15.9 -0.12,-23.85 1.29,-1.58 2.6,-3.13 3.93,-4.67 m -63.45,69.48 c -0.63,1.32 0.37,3.16 1.68,3.65 1.88,-0.65 0.08,-4.65 -1.68,-3.65 z"
       id="path396"
       inkscape:connector-curvature="0"
       style="opacity:1;fill:#13349b" />
    <path
       d="m 102.75,111.26 c 0.31,0.16 0.92,0.47 1.22,0.63 0.54,1.2 1.09,2.39 1.64,3.59 1.46,0.08 2.92,0.16 4.38,0.25 -1.18,1.35 -2.36,2.69 -3.55,4.03 0.42,1.34 0.84,2.68 1.25,4.02 -2.77,-1.38 -5.8,-2.13 -8.39,0.05 0.13,-1.66 0.26,-3.32 0.37,-4.97 -0.55,-0.35 -1.65,-1.05 -2.2,-1.4 -0.07,-0.46 -0.22,-1.39 -0.29,-1.86 1.3,-0.07 2.61,-0.15 3.91,-0.22 0.55,-1.38 1.11,-2.75 1.66,-4.12 z"
       id="path398"
       inkscape:connector-curvature="0"
       style="opacity:1;fill:#13349b" />
    <path
       d="m 155.27,115.49 c 0.84,-1.46 1.68,-2.93 2.53,-4.39 0.68,1.43 1.36,2.86 2.05,4.3 1.42,0.1 2.85,0.2 4.28,0.3 -0.61,1.37 -1.63,2.45 -2.76,3.4 0.1,1.62 0.23,3.23 0.36,4.85 -1.36,-0.76 -2.72,-1.52 -4.08,-2.27 -1.35,0.78 -2.72,1.53 -4.07,2.3 0.81,-3.2 0.05,-6.16 -2.48,-8.32 1.39,-0.06 2.77,-0.12 4.17,-0.17 z"
       id="path400"
       inkscape:connector-curvature="0"
       style="opacity:1;fill:#13349b" />
    <path
       d="m 121.12,112.23 c 1.9,-0.7 2.1,2.07 2.79,3.16 1.29,0.08 2.58,0.14 3.87,0.2 -0.05,0.43 -0.14,1.28 -0.19,1.71 -0.57,0.41 -1.7,1.21 -2.26,1.62 0.12,1.59 0.25,3.19 0.37,4.8 -2.64,-1.73 -5.66,-1.59 -8.38,-0.05 0.31,-0.98 0.93,-2.93 1.24,-3.91 -1.16,-1.33 -2.33,-2.64 -3.5,-3.95 1.38,-0.07 2.75,-0.2 4.12,-0.4 0.79,-0.96 1.29,-2.12 1.94,-3.18 z"
       id="path402"
       inkscape:connector-curvature="0"
       style="opacity:1;fill:#13349b" />
    <path
       d="m 137.1,115.43 c 0.97,-1.02 1.1,-3.49 2.83,-3.4 0.7,1.11 1.27,2.3 1.88,3.46 1.33,0.03 2.67,0.06 4.01,0.09 -0.14,0.36 -0.42,1.08 -0.56,1.43 -2.65,1.42 -2.08,4.2 -1.66,6.7 -2.63,-1.61 -5.72,-1.99 -8.15,0.25 0.29,-2.58 1.01,-5.56 -1.89,-6.86 -0.09,-0.38 -0.26,-1.15 -0.34,-1.53 1.29,-0.04 2.58,-0.09 3.88,-0.14 z"
       id="path404"
       inkscape:connector-curvature="0"
       style="opacity:1;fill:#13349b" />
    <path
       d="m 102.84,129.34 c 0.26,0.16 0.78,0.5 1.04,0.67 0.56,1.18 1.14,2.36 1.72,3.54 1.42,0.06 2.85,0.13 4.28,0.21 -1.12,1.32 -2.33,2.59 -3.3,4.03 0.27,1.34 0.66,2.66 1.02,3.97 -2.72,-1.35 -5.69,-1.94 -8.28,0.03 0.09,-1.57 0.19,-3.14 0.24,-4.71 -1.14,-0.88 -2.12,-1.92 -2.6,-3.29 1.4,-0.16 2.79,-0.32 4.19,-0.47 0.55,-1.33 1.12,-2.66 1.69,-3.98 z"
       id="path406"
       inkscape:connector-curvature="0"
       style="opacity:1;fill:#13349b" />
    <path
       d="m 121.02,129.91 c 0.28,-0.11 0.86,-0.33 1.15,-0.43 0.55,1.3 1.11,2.61 1.66,3.92 1.41,0.12 2.82,0.24 4.23,0.37 -0.54,1.34 -1.54,2.37 -2.62,3.29 0.05,1.58 0.14,3.15 0.24,4.72 -2.65,-1.97 -5.6,-1.35 -8.36,0.03 0.4,-1.38 0.82,-2.75 1.24,-4.11 -0.9,-0.92 -1.81,-1.83 -2.73,-2.73 -0.14,-0.32 -0.43,-0.95 -0.57,-1.27 1.39,-0.06 2.78,-0.12 4.17,-0.18 0.53,-1.2 1.07,-2.4 1.59,-3.61 z"
       id="path408"
       inkscape:connector-curvature="0"
       style="opacity:1;fill:#13349b" />
    <path
       d="m 137.03,133.55 c 0.87,-1.46 1.74,-2.92 2.63,-4.36 0.69,1.42 1.39,2.84 2.09,4.26 1.42,0.11 2.84,0.21 4.26,0.32 -2.47,2.06 -3.32,4.92 -2.52,8.04 -2.54,-1.88 -5.61,-1.72 -8.14,0.04 0.17,-1.59 0.33,-3.17 0.46,-4.76 -1.18,-0.96 -2.32,-1.98 -2.94,-3.4 1.39,-0.05 2.77,-0.1 4.16,-0.14 z"
       id="path410"
       inkscape:connector-curvature="0"
       style="opacity:1;fill:#13349b" />
    <path
       d="m 155.2,133.5 c 0.88,-1.46 1.77,-2.91 2.68,-4.34 0.67,1.42 1.33,2.86 2,4.29 1.39,0.09 2.79,0.19 4.19,0.29 -0.55,1.35 -1.53,2.42 -2.66,3.32 0.06,1.56 0.15,3.12 0.24,4.67 -2.53,-1.67 -5.53,-1.77 -8.04,0.06 0.28,-2.5 0.79,-5.48 -1.96,-6.79 -0.09,-0.34 -0.26,-1.02 -0.34,-1.36 1.29,-0.04 2.59,-0.09 3.89,-0.14 z"
       id="path412"
       inkscape:connector-curvature="0"
       style="opacity:1;fill:#13349b" />
    <path
       d="m 102.89,147.31 c 0.24,0.15 0.71,0.45 0.95,0.6 0.61,2.96 3.18,4.17 6.03,3.98 -1.15,1.29 -2.31,2.59 -3.45,3.91 0.31,0.98 0.92,2.93 1.23,3.91 -2.69,-1.56 -5.76,-1.96 -8.3,0.08 0.1,-1.65 0.2,-3.29 0.3,-4.93 -0.54,-0.38 -1.64,-1.13 -2.19,-1.5 -0.07,-0.43 -0.21,-1.27 -0.28,-1.7 1.29,-0.14 2.58,-0.27 3.88,-0.41 0.6,-1.32 1.22,-2.63 1.83,-3.94 z"
       id="path414"
       inkscape:connector-curvature="0"
       style="opacity:1;fill:#13349b" />
    <path
       d="m 120.99,147.78 c 0.3,-0.08 0.91,-0.23 1.21,-0.31 0.54,1.27 1.09,2.55 1.64,3.82 1.29,0.12 2.59,0.23 3.9,0.34 -0.03,0.39 -0.08,1.18 -0.1,1.57 -0.58,0.42 -1.73,1.25 -2.31,1.67 0.11,1.65 0.22,3.31 0.33,4.97 -2.57,-1.98 -5.56,-1.79 -8.28,-0.14 0.28,-0.98 0.85,-2.95 1.14,-3.93 -1.13,-1.3 -2.27,-2.59 -3.37,-3.92 2.85,0.22 5.53,-0.97 5.84,-4.07 z"
       id="path416"
       inkscape:connector-curvature="0"
       style="opacity:1;fill:#13349b" />
    <path
       d="m 155.23,151.4 c 0.88,-1.5 1.75,-3.01 2.63,-4.51 0.65,1.46 1.32,2.93 1.99,4.4 1.44,0.14 2.88,0.29 4.32,0.45 -0.66,1.32 -1.73,2.33 -2.83,3.28 0.11,1.59 0.26,3.19 0.4,4.78 -1.28,-0.58 -2.51,-1.35 -3.89,-1.66 -1.56,0.15 -2.9,1.06 -4.31,1.66 0.29,-2.54 0.98,-5.5 -1.83,-6.84 -0.12,-0.34 -0.34,-1.01 -0.45,-1.34 1.32,-0.08 2.64,-0.15 3.97,-0.22 z"
       id="path418"
       inkscape:connector-curvature="0"
       style="opacity:1;fill:#13349b" />
    <path
       d="m 137.12,151.29 c 0.67,-1.18 1.32,-2.36 2.06,-3.49 1.33,0.71 1.83,2.28 2.83,3.34 1.25,0.27 2.51,0.48 3.78,0.64 -0.11,0.3 -0.33,0.9 -0.44,1.2 -0.9,0.9 -1.79,1.8 -2.66,2.73 0.36,1.41 0.7,2.83 1.02,4.25 -1.43,-0.74 -2.85,-1.49 -4.25,-2.26 -1.38,0.75 -2.75,1.49 -4.13,2.23 0.41,-2.57 1.13,-5.48 -1.7,-6.92 -0.1,-0.33 -0.32,-1 -0.42,-1.33 1.3,-0.13 2.6,-0.26 3.91,-0.39 z"
       id="path420"
       inkscape:connector-curvature="0"
       style="opacity:1;fill:#13349b" />
  </g>
  <g
     id="#c2bdbeff"
     transform="matrix(0.11034483,0,0,0.11034483,-5.2499999e-7,8.7724135)">
    <path
       d="m 108.09,101.81 c 3.06,-0.53 5.95,-1.69 8.62,-3.26 0.66,0.96 1.08,2.04 1.2,3.2 -3.26,1.53 -6.45,3.76 -10.19,3.73 0.12,-1.23 0.24,-2.45 0.37,-3.67 z"
       id="path423"
       inkscape:connector-curvature="0"
       style="opacity:1;fill:#c2bdbe" />
  </g>
  <g
     id="#9c9a9bff"
     transform="matrix(0.11034483,0,0,0.11034483,-5.2499999e-7,8.7724135)">
    <path
       d="m 91.52,104.17 c 1.3,-1.4 2.59,-2.8 3.91,-4.19 1.35,0.63 2.74,1.22 4.24,1.41 -0.18,1.18 -0.36,2.37 -0.53,3.55 l -0.29,0.1 c -0.71,-0.08 -1.42,-0.18 -2.12,-0.29 -0.96,0.47 -1.92,0.93 -2.87,1.4 -0.78,-0.66 -1.56,-1.32 -2.34,-1.98 z"
       id="path426"
       inkscape:connector-curvature="0"
       style="opacity:1;fill:#9c9a9b" />
  </g>
  <g
     id="#ff1e67ff"
     transform="matrix(0.11034483,0,0,0.11034483,-5.2499999e-7,8.7724135)">
    <path
       d="m 178.52,101.78 c 2.35,0.4 4.74,0.52 7.13,0.54 0.45,1.51 0.76,3.08 1.49,4.49 4.51,2.18 9.31,3.73 13.89,5.78 0.43,0.17 0.86,0.33 1.29,0.51 3.94,-0.6 8.18,0.73 10.43,4.18 0.29,-0.27 0.88,-0.79 1.17,-1.05 1.71,1.15 3.33,2.48 5.25,3.28 2.13,0.18 4.13,-0.94 6.25,-1.08 3.42,0.93 5.72,3.98 8.97,5.29 2.7,1.17 6.02,1.37 7.86,3.97 0.36,-0.92 0.72,-1.83 1.08,-2.75 0.28,0.52 0.83,1.54 1.11,2.05 5.79,0.14 8.38,6.64 14.03,7.05 4.06,0.41 7.72,2.24 10.92,4.7 2.24,-1.41 4.33,-3.02 6.32,-4.76 -0.16,1.27 -0.31,2.55 -0.46,3.82 5.56,3.56 12.16,4.65 18.01,7.57 1.62,0.81 3.33,-0.35 4.92,-0.71 3.4,2.51 7.24,4.46 11.46,5.05 4.86,0.6 8.55,4.46 13.43,4.91 4.06,0.44 8.13,0.7 12.21,1.02 -28.69,1.92 -56.56,-7.01 -83.03,-17.06 -0.03,1.15 -0.05,2.3 -0.08,3.44 -11.53,-4.81 -23.13,-9.43 -34.59,-14.38 -4.85,-2.02 -9.61,-4.28 -14.65,-5.81 -0.06,2.04 -0.19,4.09 0.02,6.12 5.17,3.14 11.18,4.6 16.56,7.38 18.81,7.7 37.5,15.86 56.89,22.03 26.57,8.65 55.55,13.04 83.02,6.01 4.58,-1.09 9.02,-2.69 13.41,-4.39 2.21,-0.81 4.42,-1.62 6.57,-2.58 3.76,0.4 7.48,-0.53 10.86,-2.14 2.13,0 4.51,0.67 6.4,-0.65 3.66,-2.36 7.71,-3.99 11.58,-5.96 1.76,-0.49 3.52,-0.98 5.29,-1.41 l 0.05,0.06 c 1.38,2 2.64,4.08 3.74,6.25 0.46,0.97 0.92,1.93 1.39,2.89 1.43,3.18 3.33,6.11 5.16,9.07 0.01,0.19 0.05,0.57 0.06,0.76 -21.34,18.48 -48.44,30.74 -76.81,32.27 -24.58,1.49 -48.92,-4.19 -72.11,-11.88 -6.53,-2 -12.78,-4.8 -19.32,-6.76 0,0.78 -0.01,2.33 -0.01,3.11 -25.8,-10.27 -51.18,-21.59 -77.1,-31.54 0.03,-3.11 0.03,-6.22 -0.02,-9.32 21.83,7.64 42.7,17.68 64.28,25.94 -0.05,-2.21 -0.1,-4.42 -0.14,-6.64 -21.33,-8.82 -42.43,-18.26 -64.13,-26.15 0.05,-10.84 0.13,-21.68 -0.05,-32.52 m 23.75,53.51 c -0.55,1.67 -0.02,2.23 1.58,1.71 0.54,-1.67 0.01,-2.24 -1.58,-1.71 m 48.86,4.98 c -1.56,2.98 3.33,0.14 0,0 z"
       id="path429"
       inkscape:connector-curvature="0"
       style="opacity:1;fill:#ff1e67" />
  </g>
  <g
     id="#e71447ff"
     transform="matrix(0.11034483,0,0,0.11034483,-5.2499999e-7,8.7724135)">
    <path
       d="m 185.65,102.32 1.05,0.05 c 0.63,0.47 1.25,0.95 1.87,1.44 4.09,1.32 7.97,3.54 12.35,3.73 0.26,0.36 0.78,1.08 1.04,1.44 -0.32,1.2 -0.63,2.41 -0.93,3.61 -4.58,-2.05 -9.38,-3.6 -13.89,-5.78 -0.73,-1.41 -1.04,-2.98 -1.49,-4.49 z"
       id="path432"
       inkscape:connector-curvature="0"
       style="opacity:1;fill:#e71447" />
  </g>
  <g
     id="#e81556ff"
     transform="matrix(0.11034483,0,0,0.11034483,-5.2499999e-7,8.7724135)">
    <path
       d="m 202.5,107.09 c 5.34,-0.15 10.13,2.44 15.18,3.73 10.11,2.9 19.13,8.86 29.44,11.12 5.24,1.88 9.62,5.67 15.13,6.84 3.64,0.88 6.83,3.07 10.53,3.76 4.16,0.65 7.39,3.7 11.45,4.68 4.1,1.01 7.61,3.46 11.52,4.95 8.81,2.38 17.24,6.1 26.31,7.5 2.29,0.33 4.61,0.64 6.73,1.62 3.84,1.82 8.11,2.41 12.07,3.91 -1.86,0.19 -3.72,0.37 -5.58,0.44 -4.08,-0.32 -8.15,-0.58 -12.21,-1.02 -4.88,-0.45 -8.57,-4.31 -13.43,-4.91 -4.22,-0.59 -8.06,-2.54 -11.46,-5.05 -1.59,0.36 -3.3,1.52 -4.92,0.71 -5.85,-2.92 -12.45,-4.01 -18.01,-7.57 0.15,-1.27 0.3,-2.55 0.46,-3.82 -1.99,1.74 -4.08,3.35 -6.32,4.76 -3.2,-2.46 -6.86,-4.29 -10.92,-4.7 -5.65,-0.41 -8.24,-6.91 -14.03,-7.05 -0.28,-0.51 -0.83,-1.53 -1.11,-2.05 -0.36,0.92 -0.72,1.83 -1.08,2.75 -1.84,-2.6 -5.16,-2.8 -7.86,-3.97 -3.25,-1.31 -5.55,-4.36 -8.97,-5.29 -2.12,0.14 -4.12,1.26 -6.25,1.08 -1.92,-0.8 -3.54,-2.13 -5.25,-3.28 -0.29,0.26 -0.88,0.78 -1.17,1.05 -2.25,-3.45 -6.49,-4.78 -10.43,-4.18 -0.43,-0.18 -0.86,-0.34 -1.29,-0.51 0.3,-1.2 0.61,-2.41 0.93,-3.61 0.13,-0.47 0.41,-1.42 0.54,-1.89 z"
       id="path435"
       inkscape:connector-curvature="0"
       style="opacity:1;fill:#e81556" />
    <path
       d="m 64.57,167.41 c 0.92,0.12 1.84,0.24 2.76,0.34 -1.96,3.6 -4.29,7.5 -8.8,7.98 -0.31,-0.69 -0.92,-2.08 -1.23,-2.77 -1.45,1.38 -2.85,2.81 -4.28,4.2 -1.99,2.46 -5.49,1.68 -8.25,2.09 -0.32,1.46 -0.29,3.07 -1.09,4.39 -2.57,1.6 -5.47,2.57 -8.22,3.83 -0.22,1.02 -0.45,2.05 -0.67,3.08 -1.13,-0.83 -2.26,-1.65 -3.39,-2.47 -1.81,2.74 -3.86,5.33 -6.23,7.62 -0.66,-0.18 -1.98,-0.54 -2.64,-0.72 1.14,-2.22 2.22,-4.47 3.34,-6.7 5.69,-1.36 10.87,-4.34 15.43,-7.94 4.24,-3.44 9.69,-4.77 14.27,-7.66 2.48,-1.61 5.16,-2.92 8.08,-3.54 0.23,-0.43 0.69,-1.3 0.92,-1.73 z"
       id="path437"
       inkscape:connector-curvature="0"
       style="opacity:1;fill:#e81556" />
  </g>
  <g
     id="#d1114bff"
     transform="matrix(0.11034483,0,0,0.11034483,-5.2499999e-7,8.7724135)">
    <path
       d="m 82.21,110.99 c 1.75,1.42 0.74,4 0.95,5.95 0.21,1.88 -0.66,3.52 -1.96,4.79 -1.33,-0.61 -2.65,-1.2 -3.97,-1.8 1.02,-3.2 1.41,-7.51 4.98,-8.94 z"
       id="path440"
       inkscape:connector-curvature="0"
       style="opacity:1;fill:#d1114b" />
    <path
       d="m 178.93,173.46 c 3.85,1.01 7.59,2.39 11.16,4.17 0.37,-0.18 1.1,-0.53 1.47,-0.7 0,0.38 0.01,1.14 0.01,1.52 -0.04,0.79 -0.12,2.37 -0.16,3.16 -5.01,-1.24 -9.84,-3.11 -14.72,-4.76 -0.11,-0.4 -0.34,-1.19 -0.46,-1.58 -4.62,-0.3 -9.33,-0.16 -13.8,-1.53 5.49,-0.28 11,0.14 16.5,-0.28 z"
       id="path442"
       inkscape:connector-curvature="0"
       style="opacity:1;fill:#d1114b" />
    <path
       d="m 402.58,222.37 c 2.84,-2.23 6.27,-3.48 9.91,-2.69 -1.77,1.6 -3.62,3.12 -5.52,4.57 -6.87,-0.8 -12.25,4.56 -18.95,4.85 -3.37,0.15 -6.46,1.64 -9.74,2.19 -4.59,-0.56 -9.21,-0.35 -13.82,-0.09 -6.49,0.11 -12.97,0.73 -19.47,0.58 -1.96,0.2 -3.14,-1.6 -4.53,-2.64 15.38,-1.54 31.37,0.99 46.24,-4.24 5.03,-1.28 10.96,0.05 15.22,-3.53 0.17,0.25 0.5,0.75 0.66,1 z"
       id="path444"
       inkscape:connector-curvature="0"
       style="opacity:1;fill:#d1114b" />
  </g>
  <g
     id="#ffbce6ff"
     transform="matrix(0.11034483,0,0,0.11034483,-5.2499999e-7,8.7724135)">
    <path
       d="m 40.09,127.54 c 0.17,-0.28 0.51,-0.85 0.68,-1.13 1.12,1.84 2.18,3.72 2.92,5.75 -1.53,0.79 -3.06,1.58 -4.58,2.41 0.86,-1.18 1.7,-2.37 2.53,-3.57 -0.54,-1.15 -1.05,-2.3 -1.55,-3.46 z"
       id="path447"
       inkscape:connector-curvature="0"
       style="opacity:1;fill:#ffbce6" />
    <path
       d="m 187.08,203.08 c 2.07,-1.04 4.17,-2.02 6.3,-2.95 0.12,1.13 0.23,2.25 0.35,3.38 -0.55,0.34 -1.65,1.02 -2.2,1.35 -1.47,-0.63 -2.95,-1.23 -4.45,-1.78 z"
       id="path449"
       inkscape:connector-curvature="0"
       style="opacity:1;fill:#ffbce6" />
  </g>
  <g
     id="#ff1a63ff"
     transform="matrix(0.11034483,0,0,0.11034483,-5.2499999e-7,8.7724135)">
    <path
       d="m 24.76,157.82 c 16.87,-14.46 37.27,-24.8 59.06,-29.33 0,2.77 -0.05,5.54 -0.09,8.32 -14.94,2.51 -29.41,7.74 -42.46,15.45 -7.5,4.29 -14.43,9.47 -21.26,14.73 l 0.3,-0.57 c 1.03,-1.96 1.96,-3.96 2.9,-5.97 0.28,-0.53 0.85,-1.6 1.14,-2.13 z"
       id="path452"
       inkscape:connector-curvature="0"
       style="opacity:1;fill:#ff1a63" />
    <path
       d="m 75.39,162.28 c 2.82,0.16 5.66,0.41 8.39,1.19 -0.09,3.38 -0.03,6.75 -0.04,10.12 26.23,0.13 52.46,-0.15 78.69,0.15 4.47,1.37 9.18,1.23 13.8,1.53 0.12,0.39 0.35,1.18 0.46,1.58 4.88,1.65 9.71,3.52 14.72,4.76 1.2,2.31 4.06,2.68 6.22,3.7 19.59,7.82 38.72,16.83 58.74,23.55 2.08,4.08 6.8,4.64 10.65,6.13 4.69,1.82 9.31,3.86 13.72,6.3 0.33,-0.36 0.98,-1.07 1.3,-1.42 4.63,1.82 8.93,4.67 13.94,5.35 3.73,0.53 7.25,2.33 11.1,1.9 2.06,-0.44 2.68,1.9 3.78,3.13 7.69,2.14 15.8,1.32 23.58,3.02 4.96,1.18 10.15,0.65 15.08,1.95 0.24,-0.68 0.49,-1.35 0.76,-2.01 0.68,0.76 1.36,1.52 2.05,2.29 2.15,-0.57 4.3,-1.14 6.45,-1.7 0.67,0.48 1.34,0.96 2.02,1.44 1.9,-0.62 3.81,-1.2 5.75,-1.73 -0.7,-0.77 -1.4,-1.54 -2.09,-2.31 4.61,-0.26 9.23,-0.47 13.82,0.09 3.28,-0.55 6.37,-2.04 9.74,-2.19 6.7,-0.29 12.08,-5.65 18.95,-4.85 -10.53,8.25 -22.33,14.86 -34.76,19.8 -14.04,5.53 -29.14,7.99 -44.18,8.25 -28.89,-0.21 -56.85,-8.9 -83.54,-19.26 -0.04,0.79 -0.12,2.37 -0.16,3.16 -12.39,-4.43 -24.42,-9.81 -36.56,-14.87 -23.05,-9.91 -46.41,-19.34 -70.7,-25.78 -22.73,-5.84 -46.79,-8.35 -69.93,-3.37 -21.85,4.57 -42.03,15.52 -59.06,29.79 0.17,-0.36 0.51,-1.06 0.68,-1.41 0.24,-0.5 0.7,-1.5 0.94,-1.99 1.01,-1.66 2.09,-3.28 3.04,-4.97 0.09,-0.27 0.27,-0.79 0.36,-1.06 14.15,-12.06 30.6,-21.74 48.56,-26.84 10.46,-3.17 21.4,-4.49 32.29,-5.02 19.31,0.04 38.49,3.58 56.85,9.44 12.4,3.43 24.21,8.58 36.28,12.96 1.5,0.55 2.98,1.15 4.45,1.78 13.31,5.84 26.81,11.25 40.17,16.97 -0.07,-2.35 -0.15,-4.7 -0.23,-7.05 -33.36,-13.37 -65.98,-29.51 -101.43,-36.75 -18.38,-3.78 -37.53,-4.84 -56.01,-1.18 -21.17,4.22 -40.72,14.73 -57.19,28.51 l 0.46,-0.89 c 0.68,-1.34 1.31,-2.71 1.93,-4.07 1.02,-1.75 2.12,-3.45 3.16,-5.19 l 0.14,-0.23 c 0.66,0.18 1.98,0.54 2.64,0.72 2.37,-2.29 4.42,-4.88 6.23,-7.62 1.13,0.82 2.26,1.64 3.39,2.47 0.22,-1.03 0.45,-2.06 0.67,-3.08 2.75,-1.26 5.65,-2.23 8.22,-3.83 0.8,-1.32 0.77,-2.93 1.09,-4.39 2.76,-0.41 6.26,0.37 8.25,-2.09 1.43,-1.39 2.83,-2.82 4.28,-4.2 0.31,0.69 0.92,2.08 1.23,2.77 4.51,-0.48 6.84,-4.38 8.8,-7.98 2.91,-0.21 5.77,-0.79 8.63,-1.27 -0.28,-0.75 -0.84,-2.27 -1.12,-3.03 0.14,-0.29 0.41,-0.88 0.55,-1.17 z"
       id="path454"
       inkscape:connector-curvature="0"
       style="opacity:1;fill:#ff1a63" />
  </g>
  <g
     id="#a95369ff"
     transform="matrix(0.11034483,0,0,0.11034483,-5.2499999e-7,8.7724135)">
    <path
       d="m 387.52,142.49 c 6.98,-2.26 13.74,-5.09 20.43,-8.1 0.25,0.65 0.74,1.94 0.99,2.58 -4.52,3.93 -9.29,7.58 -14.25,10.93 -1.28,0.77 -2.59,1.5 -3.89,2.25 -4.13,-0.39 -8.26,0.12 -12.23,1.3 -1.1,-0.58 -2.19,-1.15 -3.28,-1.73 4.3,-1.99 8.44,-4.37 12.23,-7.23 z"
       id="path457"
       inkscape:connector-curvature="0"
       style="opacity:1;fill:#a95369" />
  </g>
  <g
     id="#aa0c39ff"
     transform="matrix(0.11034483,0,0,0.11034483,-5.2499999e-7,8.7724135)">
    <path
       d="m 394.69,147.9 c 4.96,-3.35 9.73,-7 14.25,-10.93 1,2.02 2.1,4 3.06,6.04 -4.4,2.32 -9.24,3.71 -13.49,6.35 -1.28,-0.49 -2.55,-0.98 -3.82,-1.46 z"
       id="path460"
       inkscape:connector-curvature="0"
       style="opacity:1;fill:#aa0c39" />
  </g>
  <g
     id="#9d0a36ff"
     transform="matrix(0.11034483,0,0,0.11034483,-5.2499999e-7,8.7724135)">
    <path
       d="m 302.84,140.57 c 2.51,0.03 5.02,0.12 7.53,0.33 9.39,2.47 18.92,4.42 28.57,5.54 11.79,1.42 23.71,0.8 35.47,-0.6 -4.16,1.8 -8.35,3.53 -12.63,4.99 -1.53,0.45 -3.05,0.91 -4.58,1.29 -4.08,-0.48 -8.04,-1.58 -11.95,-2.78 -0.15,0.46 -0.45,1.38 -0.6,1.83 -5.67,-1.67 -11.59,-2.93 -17.53,-2.8 -0.89,-0.6 -1.72,-1.33 -2.76,-1.64 -7.26,-1.56 -15.02,-2.33 -21.52,-6.16 z"
       id="path463"
       inkscape:connector-curvature="0"
       style="opacity:1;fill:#9d0a36" />
    <path
       d="m 66.37,156.79 c 5.47,-0.23 10.48,-2.81 15.95,-3.05 l 0.4,0.38 c 1.49,2.88 1.01,6.23 1.06,9.35 -2.73,-0.78 -5.57,-1.03 -8.39,-1.19 -0.14,0.29 -0.41,0.88 -0.55,1.17 -0.17,0.35 -0.52,1.05 -0.7,1.41 -0.64,-0.56 -1.28,-1.11 -1.91,-1.66 -0.22,0.41 -0.64,1.22 -0.86,1.63 0.15,-1.99 0.35,-4.12 -1.22,-5.66 -0.26,1.94 -0.48,3.89 -0.67,5.84 -1.78,0.08 -3.56,0.14 -5.34,0.2 -1.4,1.27 -2.8,2.59 -4.52,3.41 -9.82,4.5 -19.39,9.55 -28.81,14.81 -0.3,-1 -0.59,-2.01 -0.87,-3.02 0.03,-0.23 0.1,-0.7 0.13,-0.94 0.47,-0.5 1.41,-1.5 1.88,-1.99 0.02,-0.52 0.05,-1.56 0.06,-2.07 1.09,-1.58 2.21,-3.13 3.35,-4.66 -0.42,-0.38 -1.27,-1.13 -1.69,-1.5 10.72,-4.55 21.17,-10.2 32.7,-12.46 z"
       id="path465"
       inkscape:connector-curvature="0"
       style="opacity:1;fill:#9d0a36" />
    <path
       d="m 179.03,169.88 c 21.09,8.05 41.89,16.82 62.67,25.65 -1.78,-0.15 -3.6,-0.21 -5.28,-0.88 -13.76,-5.5 -27.24,-11.73 -41.15,-16.87 l -0.2,-0.08 c -0.99,-0.76 -2.31,-1.75 -3.51,-0.77 -0.37,0.17 -1.1,0.52 -1.47,0.7 -3.57,-1.78 -7.31,-3.16 -11.16,-4.17 l -0.03,-1.1 c 0.03,-0.62 0.1,-1.86 0.13,-2.48 z"
       id="path467"
       inkscape:connector-curvature="0"
       style="opacity:1;fill:#9d0a36" />
    <path
       d="m 373.91,218.98 c 11.16,-2.17 21.76,-6.39 31.99,-11.23 1.9,4.13 3.96,8.2 6.59,11.93 -3.64,-0.79 -7.07,0.46 -9.91,2.69 -0.16,-0.25 -0.49,-0.75 -0.66,-1 -4.26,3.58 -10.19,2.25 -15.22,3.53 -14.87,5.23 -30.86,2.7 -46.24,4.24 -3.62,0.25 -7.25,0.19 -10.87,0.14 -0.27,-0.42 -0.8,-1.25 -1.07,-1.66 -5.58,-1.36 -10.94,-3.72 -16.73,-4.11 -3.28,-0.2 -6.64,-0.8 -9.18,-3.05 7.89,0.27 15.76,1.38 23.66,0.68 15.89,1.27 32.04,1.63 47.64,-2.16 z"
       id="path469"
       inkscape:connector-curvature="0"
       style="opacity:1;fill:#9d0a36" />
  </g>
  <g
     id="#ff1c67ff"
     transform="matrix(0.11034483,0,0,0.11034483,-5.2499999e-7,8.7724135)">
    <path
       d="m 31.07,163.25 c 15.45,-10.33 33.06,-17.42 51.42,-20.39 0.39,0.63 0.78,1.26 1.16,1.9 0.07,2.74 0.69,5.69 -0.62,8.25 -0.18,0.18 -0.54,0.54 -0.71,0.73 -5.47,0.24 -10.48,2.82 -15.95,3.05 -11.53,2.26 -21.98,7.91 -32.7,12.46 -0.28,0.11 -0.83,0.33 -1.1,0.44 -2.1,1.2 -4.06,2.61 -6.04,3.99 -5.58,3.17 -10.27,7.68 -15.83,10.85 1.2,-2.4 2.69,-4.64 4.1,-6.92 0.35,-0.88 0.7,-1.76 1.06,-2.62 4.5,-4.6 9.9,-8.17 15.21,-11.74 z"
       id="path472"
       inkscape:connector-curvature="0"
       style="opacity:1;fill:#ff1c67" />
  </g>
  <g
     id="#9fa8a6ff"
     transform="matrix(0.11034483,0,0,0.11034483,-5.2499999e-7,8.7724135)">
    <path
       d="m 374.41,145.84 c 4.35,-1.17 8.78,-2.08 13.11,-3.35 -3.79,2.86 -7.93,5.24 -12.23,7.23 -3.7,1.58 -7.45,3.05 -11.15,4.6 l -0.36,0.07 c 0.69,-0.98 1.39,-1.94 2.08,-2.91 -1.36,-0.24 -2.72,-0.45 -4.08,-0.65 4.28,-1.46 8.47,-3.19 12.63,-4.99 z"
       id="path475"
       inkscape:connector-curvature="0"
       style="opacity:1;fill:#9fa8a6" />
  </g>
  <g
     id="#c41146ff"
     transform="matrix(0.11034483,0,0,0.11034483,-5.2499999e-7,8.7724135)">
    <path
       d="m 398.51,149.36 c 4.25,-2.64 9.09,-4.03 13.49,-6.35 0.51,1.07 1.02,2.15 1.53,3.23 -1.77,0.43 -3.53,0.92 -5.29,1.41 -3.87,1.97 -7.92,3.6 -11.58,5.96 -1.89,1.32 -4.27,0.65 -6.4,0.65 -3.38,1.61 -7.1,2.54 -10.86,2.14 1.52,-0.76 3.02,-1.56 4.52,-2.36 2.34,-1.23 4.61,-2.55 6.88,-3.89 1.3,-0.75 2.61,-1.48 3.89,-2.25 1.27,0.48 2.54,0.97 3.82,1.46 m -4.35,2.1 c -0.93,1.16 -0.7,1.84 0.7,2.03 0.92,-1.16 0.69,-1.84 -0.7,-2.03 z"
       id="path478"
       inkscape:connector-curvature="0"
       style="opacity:1;fill:#c41146" />
  </g>
  <g
     id="#c25f78ff"
     transform="matrix(0.11034483,0,0,0.11034483,-5.2499999e-7,8.7724135)">
    <path
       d="m 364.14,154.32 c 3.7,-1.55 7.45,-3.02 11.15,-4.6 1.09,0.58 2.18,1.15 3.28,1.73 3.97,-1.18 8.1,-1.69 12.23,-1.3 -2.27,1.34 -4.54,2.66 -6.88,3.89 -6.59,-2.01 -13.14,1.83 -19.78,0.28 z"
       id="path481"
       inkscape:connector-curvature="0"
       style="opacity:1;fill:#c25f78" />
  </g>
  <g
     id="#fb1b60ff"
     transform="matrix(0.11034483,0,0,0.11034483,-5.2499999e-7,8.7724135)">
    <path
       d="m 394.16,151.46 c 1.39,0.19 1.62,0.87 0.7,2.03 -1.4,-0.19 -1.63,-0.87 -0.7,-2.03 z"
       id="path484"
       inkscape:connector-curvature="0"
       style="opacity:1;fill:#fb1b60" />
  </g>
  <g
     id="#e47491ff"
     transform="matrix(0.11034483,0,0,0.11034483,-5.2499999e-7,8.7724135)">
    <path
       d="m 364.14,154.32 c 6.64,1.55 13.19,-2.29 19.78,-0.28 -1.5,0.8 -3,1.6 -4.52,2.36 -2.15,0.96 -4.36,1.77 -6.57,2.58 -5.84,-3.45 -12.93,1.07 -18.96,-1.95 0.96,-0.3 2.89,-0.91 3.86,-1.22 1.99,-0.57 4.01,-1.03 6.05,-1.42 z"
       id="path487"
       inkscape:connector-curvature="0"
       style="opacity:1;fill:#e47491" />
  </g>
  <g
     id="#ff47b4ff"
     transform="matrix(0.11034483,0,0,0.11034483,-5.2499999e-7,8.7724135)">
    <path
       d="m 202.27,155.29 c 1.59,-0.53 2.12,0.04 1.58,1.71 -1.6,0.52 -2.13,-0.04 -1.58,-1.71 z"
       id="path490"
       inkscape:connector-curvature="0"
       style="opacity:1;fill:#ff47b4" />
  </g>
  <g
     id="#ff86aaff"
     transform="matrix(0.11034483,0,0,0.11034483,-5.2499999e-7,8.7724135)">
    <path
       d="m 347.78,157.94 c 2.02,-0.33 4.06,-0.55 6.09,-0.91 6.03,3.02 13.12,-1.5 18.96,1.95 -4.39,1.7 -8.83,3.3 -13.41,4.39 -0.3,-0.64 -0.89,-1.92 -1.19,-2.57 -1.15,0.53 -2.3,1.05 -3.44,1.58 -0.88,-0.27 -1.75,-0.53 -2.62,-0.78 -3.31,1.31 -6.81,0.48 -10.06,-0.56 -0.38,-0.45 -1.12,-1.36 -1.5,-1.82 2.4,-0.39 4.78,-0.85 7.17,-1.28 z"
       id="path493"
       inkscape:connector-curvature="0"
       style="opacity:1;fill:#ff86aa" />
  </g>
  <g
     id="#c71248ff"
     transform="matrix(0.11034483,0,0,0.11034483,-5.2499999e-7,8.7724135)">
    <path
       d="m 70.15,159.17 c 1.57,1.54 1.37,3.67 1.22,5.66 0.22,-0.41 0.64,-1.22 0.86,-1.63 0.63,0.55 1.27,1.1 1.91,1.66 0.18,-0.36 0.53,-1.06 0.7,-1.41 0.28,0.76 0.84,2.28 1.12,3.03 -2.86,0.48 -5.72,1.06 -8.63,1.27 -0.92,-0.1 -1.84,-0.22 -2.76,-0.34 -0.23,0.43 -0.69,1.3 -0.92,1.73 -2.92,0.62 -5.6,1.93 -8.08,3.54 -4.58,2.89 -10.03,4.22 -14.27,7.66 -4.56,3.6 -9.74,6.58 -15.43,7.94 l 0.41,-0.83 c 1.16,-2.38 2.35,-4.74 3.66,-7.04 0.28,1.01 0.57,2.02 0.87,3.02 9.42,-5.26 18.99,-10.31 28.81,-14.81 1.72,-0.82 3.12,-2.14 4.52,-3.41 1.78,-0.06 3.56,-0.12 5.34,-0.2 0.19,-1.95 0.41,-3.9 0.67,-5.84 z"
       id="path496"
       inkscape:connector-curvature="0"
       style="opacity:1;fill:#c71248" />
  </g>
  <g
     id="#ff51cfff"
     transform="matrix(0.11034483,0,0,0.11034483,-5.2499999e-7,8.7724135)">
    <path
       d="m 251.13,160.27 c 3.33,0.14 -1.56,2.98 0,0 z"
       id="path499"
       inkscape:connector-curvature="0"
       style="opacity:1;fill:#ff51cf" />
  </g>
  <g
     id="#244eccff"
     transform="matrix(0.11034483,0,0,0.11034483,-5.2499999e-7,8.7724135)">
    <path
       d="m 112.62,167.98 c 1.76,-1 3.56,3 1.68,3.65 -1.31,-0.49 -2.31,-2.33 -1.68,-3.65 z"
       id="path502"
       inkscape:connector-curvature="0"
       style="opacity:1;fill:#244ecc" />
  </g>
  <g
     id="#af566dff"
     transform="matrix(0.11034483,0,0,0.11034483,-5.2499999e-7,8.7724135)">
    <path
       d="m 191.56,176.93 c 1.2,-0.98 2.52,0.01 3.51,0.77 -1.11,0.68 -2.27,0.93 -3.5,0.75 0,-0.38 -0.01,-1.14 -0.01,-1.52 z"
       id="path505"
       inkscape:connector-curvature="0"
       style="opacity:1;fill:#af566d" />
  </g>
  <g
     id="#f3809eff"
     transform="matrix(0.11034483,0,0,0.11034483,-5.2499999e-7,8.7724135)">
    <path
       d="m 191.57,178.45 c 1.23,0.18 2.39,-0.07 3.5,-0.75 l 0.2,0.08 c 0.48,1.64 0.01,4.19 2.04,4.9 2.61,1.18 5.45,1.81 8.07,2.99 12.94,6.4 27.13,9.97 39.77,17.02 0.72,-0.32 1.45,-0.64 2.19,-0.96 1.7,2.58 4.41,3.24 7.26,2.21 0.37,0.66 0.74,1.32 1.12,1.99 3.1,1.44 6.21,2.85 9.41,4.03 0.3,0.55 0.91,1.64 1.21,2.18 -3.31,-1.13 -6.65,-2.17 -9.97,-3.28 -20.02,-6.72 -39.15,-15.73 -58.74,-23.55 -2.16,-1.02 -5.02,-1.39 -6.22,-3.7 0.04,-0.79 0.12,-2.37 0.16,-3.16 z"
       id="path508"
       inkscape:connector-curvature="0"
       style="opacity:1;fill:#f3809e" />
  </g>
  <g
     id="#c3637bff"
     transform="matrix(0.11034483,0,0,0.11034483,-5.2499999e-7,8.7724135)">
    <path
       d="m 195.27,177.78 c 13.91,5.14 27.39,11.37 41.15,16.87 1.68,0.67 3.5,0.73 5.28,0.88 0.33,0.1 0.98,0.31 1.31,0.41 -0.4,0.2 -1.21,0.59 -1.62,0.79 3.94,1.85 8.02,4.75 12.6,3.64 3.89,1.13 7.58,2.81 11.34,4.3 8.29,3.31 16.84,5.94 25.35,8.64 11.64,3.56 23.65,5.63 35.59,7.83 -7.9,0.7 -15.77,-0.41 -23.66,-0.68 -12.24,-2.05 -24.52,-4.24 -36.27,-8.32 -0.3,-0.54 -0.91,-1.63 -1.21,-2.18 -3.2,-1.18 -6.31,-2.59 -9.41,-4.03 -0.38,-0.67 -0.75,-1.33 -1.12,-1.99 -2.85,1.03 -5.56,0.37 -7.26,-2.21 -0.74,0.32 -1.47,0.64 -2.19,0.96 -12.64,-7.05 -26.83,-10.62 -39.77,-17.02 -2.62,-1.18 -5.46,-1.81 -8.07,-2.99 -2.03,-0.71 -1.56,-3.26 -2.04,-4.9 z"
       id="path511"
       inkscape:connector-curvature="0"
       style="opacity:1;fill:#c3637b" />
  </g>
  <g
     id="#b7818fff"
     transform="matrix(0.11034483,0,0,0.11034483,-5.2499999e-7,8.7724135)">
    <path
       d="m 241.39,196.73 c 0.41,-0.2 1.22,-0.59 1.62,-0.79 3.77,1.17 7.3,3.01 10.98,4.43 -4.58,1.11 -8.66,-1.79 -12.6,-3.64 z"
       id="path514"
       inkscape:connector-curvature="0"
       style="opacity:1;fill:#b7818f" />
  </g>
  <g
     id="#dc1352ff"
     transform="matrix(0.11034483,0,0,0.11034483,-5.2499999e-7,8.7724135)">
    <path
       d="m 256.37,208.86 c 3.32,1.11 6.66,2.15 9.97,3.28 11.75,4.08 24.03,6.27 36.27,8.32 2.54,2.25 5.9,2.85 9.18,3.05 5.79,0.39 11.15,2.75 16.73,4.11 0.27,0.41 0.8,1.24 1.07,1.66 3.62,0.05 7.25,0.11 10.87,-0.14 1.39,1.04 2.57,2.84 4.53,2.64 6.5,0.15 12.98,-0.47 19.47,-0.58 0.69,0.77 1.39,1.54 2.09,2.31 -1.94,0.53 -3.85,1.11 -5.75,1.73 -0.68,-0.48 -1.35,-0.96 -2.02,-1.44 -2.15,0.56 -4.3,1.13 -6.45,1.7 -0.69,-0.77 -1.37,-1.53 -2.05,-2.29 -0.27,0.66 -0.52,1.33 -0.76,2.01 -4.93,-1.3 -10.12,-0.77 -15.08,-1.95 -7.78,-1.7 -15.89,-0.88 -23.58,-3.02 -1.1,-1.23 -1.72,-3.57 -3.78,-3.13 -3.85,0.43 -7.37,-1.37 -11.1,-1.9 -5.01,-0.68 -9.31,-3.53 -13.94,-5.35 -0.32,0.35 -0.97,1.06 -1.3,1.42 -4.41,-2.44 -9.03,-4.48 -13.72,-6.3 -3.85,-1.49 -8.57,-2.05 -10.65,-6.13 z"
       id="path517"
       inkscape:connector-curvature="0"
       style="opacity:1;fill:#dc1352" />
  </g>
</svg>
