<?xml version="1.0" encoding="utf-8"?>
<!-- Generator: Adobe Illustrator 22.0.0, SVG Export Plug-In . SVG Version: 6.00 Build 0)  -->
<svg version="1.1" id="Camada_1" xmlns="http://www.w3.org/2000/svg" xmlns:xlink="http://www.w3.org/1999/xlink" x="0px" y="0px"
	 width="64px" height="64px" viewBox="0 0 64 64" enable-background="new 0 0 64 64" xml:space="preserve">
<g>
	<g>
		<path fill="#86F4BF" d="M12.104,0c-0.016,0.041-0.014,0.081,0.008,0.12C9.94,0.119,7.768,0.117,5.597,0.116
			C5.611,0.078,5.615,0.04,5.608,0C7.773,0,9.939,0,12.104,0z"/>
		<path fill="#32ED91" d="M5.597,0.116C7.768,0.117,9.94,0.119,12.112,0.12c1.952,0.105,3.862,0.394,5.634,1.287
			c0.128,0.065,0.241,0.16,0.361,0.241c-0.387,0.246-0.48,0.564-0.241,0.967c0.091,0.153,0.137,0.325,0.061,0.487
			c-0.291,0.615-0.059,1.278-0.202,1.916c-0.252,1.119,0.428,2.219,0.144,3.364c-0.047,0.191,0.199,0.485,0.055,0.666
			c-0.296,0.371-0.143,0.725-0.04,1.074c0.106,0.358,0.119,0.613-0.315,0.733c-0.221,0.061-0.252,0.245-0.19,0.463
			c0.427,1.502,0.075,3.057,0.31,4.579c0.143,0.925-0.328,1.831-0.086,2.82c0.165,0.676,0.238,1.474-0.14,2.196
			c-0.255,0.487,0.102,0.975,0.117,1.468c0.024,0.843,0.085,1.679,0.392,2.476c0.011,0.261-0.18,0.42-0.313,0.605
			c-4.297,5.937-4.292,14.45-0.001,20.413c0.215,0.299,0.556,0.535,0.579,0.955c-0.194,0.405,0.386,0.706,0.139,1.134
			c-0.228,0.395-0.269,0.797,0.104,1.156c0.134,0.129,0.177,0.327,0.074,0.468c-0.305,0.419-0.322,0.822-0.109,1.295
			c0.084,0.185,0.009,0.458-0.038,0.682c-0.04,0.192-0.118,0.391,0.039,0.538c0.234,0.219,0.229,0.446,0.166,0.737
			c-0.21,0.97,0.292,1.974-0.125,2.942c-0.019,0.045,0.011,0.132,0.046,0.177c0.366,0.463,0.188,0.818-0.222,1.118
			c-0.25,0.184-0.323,0.582-0.144,0.633c0.597,0.17,0.229,0.47,0.179,0.734c-2.777-1.591-5.532-3.214-7.879-5.43
			c-2.349-2.217-3.601-4.982-4.094-8.135c-0.401-2.564-0.506-5.146-0.507-7.735C5.86,26.829,5.859,16.516,5.868,6.204
			c0.001-1.543-0.151-3.046-0.806-4.466C4.983,1.565,4.921,1.382,4.873,1.199C4.688,0.489,4.835,0.274,5.597,0.116z"/>
		<path fill="#35EC7F" d="M45.611,12.699c3.16,1.776,6.29,3.597,8.961,6.09c2.466,2.301,3.734,5.211,4.139,8.506
			c0.672,5.47,0.591,10.952,0.116,16.433c-0.446,5.148-3.044,8.96-7.309,11.743c-2.005,1.309-4.028,2.585-6.157,3.684
			c-0.231-0.545,0.76-0.969,0.153-1.551c0.352-0.617,0.15-1.184,0.033-1.84c-0.107-0.601,0.571-1.307-0.059-1.971
			c0.253-0.495,0.138-1.014,0.141-1.536c0.004-0.92,0.202-1.847,0.071-2.757c-0.067-0.467,0.171-0.99-0.203-1.409
			c0.107-0.131,0.21-0.266,0.322-0.392c2.429-2.719,3.983-5.854,4.516-9.477c0.121-0.821,0.054-0.902-0.803-0.904
			c-2.542-0.007-5.083-0.014-7.625-0.021c0.043-0.518,0.221-1.033,0.01-1.557c-0.033-0.081,0.013-0.211,0.057-0.302
			c0.217-0.446,0.207-0.941,0.315-1.41c0.233-0.007,0.466-0.02,0.699-0.02c2.228-0.002,4.456,0.001,6.684-0.003
			c0.667-0.001,0.779-0.149,0.688-0.797c-0.116-0.82-0.292-1.625-0.519-2.421c-0.842-2.958-2.407-5.494-4.499-7.722
			c0.099-0.415-0.04-0.823-0.046-1.219c-0.01-0.693-0.024-1.439,0.075-2.073c0.095-0.611-0.426-1.325,0.203-1.868
			c0.075-0.065-0.068-0.222-0.174-0.301c-0.386-0.286-0.393-0.648-0.128-0.993c0.203-0.264,0.137-0.414-0.047-0.648
			c-0.174-0.22-0.349-0.672-0.143-0.787c0.577-0.323,0.337-0.88,0.32-1.222C45.378,13.488,45.443,13.101,45.611,12.699z"/>
		<path fill="#33ED8C" d="M17.971,24.857c-0.307-0.798-0.368-1.634-0.392-2.476c-0.014-0.493-0.371-0.981-0.117-1.468
			c0.378-0.722,0.305-1.52,0.14-2.196c-0.242-0.989,0.229-1.895,0.086-2.82c-0.235-1.522,0.117-3.077-0.31-4.579
			c-0.062-0.218-0.031-0.402,0.19-0.463c0.434-0.119,0.42-0.375,0.315-0.733c-0.103-0.348-0.256-0.703,0.04-1.074
			c0.144-0.18-0.102-0.474-0.055-0.666c0.284-1.145-0.396-2.246-0.144-3.364c0.144-0.638-0.089-1.301,0.202-1.916
			c0.076-0.162,0.03-0.334-0.061-0.487c-0.239-0.403-0.146-0.721,0.241-0.967c2.12,1.251,3.001,3.253,3.445,5.559
			c0.251,1.308,0.393,2.617,0.367,4.035c3.069-1.486,6.029-3.009,9.417-3.268c-0.014,0.421,0.039,0.858-0.06,1.258
			c-0.118,0.479-0.174,1.059-0.107,1.426c0.149,0.811,0.041,1.582,0.058,2.371c0.008,0.354,0.03,0.708-0.028,1.053
			c-0.075,0.455-0.237,0.896,0.104,1.325c0.088,0.111,0.024,0.288-0.052,0.422c-0.13,0.229-0.154,0.444-0.081,0.719
			c0.107,0.401,0.115,0.827,0.166,1.243c-0.864,0.081-1.723,0.195-2.576,0.36c-2.189,0.423-4.205,1.304-6.083,2.456
			c-1.36,0.834-2.629,1.816-3.648,3.096C18.712,24.1,18.399,24.542,17.971,24.857z"/>
		<path fill="#33ED8B" d="M18.345,58.441c0.051-0.264,0.419-0.564-0.179-0.734c-0.179-0.051-0.106-0.449,0.144-0.633
			c0.41-0.301,0.588-0.656,0.222-1.118c-0.035-0.045-0.066-0.132-0.046-0.177c0.417-0.967-0.085-1.972,0.125-2.942
			c0.063-0.291,0.068-0.518-0.166-0.737c-0.156-0.146-0.079-0.346-0.039-0.538c0.047-0.224,0.122-0.496,0.038-0.682
			c-0.213-0.472-0.196-0.876,0.109-1.295c0.103-0.141,0.06-0.339-0.074-0.468c-0.374-0.359-0.332-0.762-0.104-1.156
			c0.247-0.427-0.333-0.728-0.139-1.134c0.795,0.68,1.413,1.525,2.206,2.224c1.568,1.382,3.344,2.363,5.235,3.166
			c2.21,0.938,4.543,1.3,6.933,1.338c-0.061,0.698,0.071,1.396,0.166,2.071c0.098,0.694-0.125,1.334-0.153,1.989
			c-0.04,0.951,0.414,1.987-0.246,2.89c-0.031,0.043-0.029,0.131-0.009,0.186c0.396,1.076,0.075,2.202,0.24,3.294
			c-1.834,0.086-3.57-0.361-5.262-1.001c-2.544-0.961-4.917-2.276-7.293-3.58C19.479,59.092,18.914,58.763,18.345,58.441z"/>
		<path fill="#34EC85" d="M31.336,17.79c-0.051-0.416-0.059-0.842-0.166-1.243c-0.073-0.274-0.049-0.49,0.081-0.719
			c0.076-0.134,0.14-0.311,0.052-0.422c-0.34-0.428-0.179-0.87-0.104-1.325c0.057-0.345,0.035-0.699,0.028-1.053
			c-0.017-0.788,0.091-1.559-0.058-2.371c-0.067-0.367-0.011-0.947,0.107-1.426c0.099-0.4,0.046-0.837,0.06-1.258
			c1.867-0.21,3.69,0.047,5.468,0.591c3.129,0.958,6.008,2.465,8.808,4.134c-0.168,0.403-0.234,0.79-0.21,1.255
			c0.017,0.342,0.257,0.9-0.32,1.222c-0.206,0.115-0.03,0.567,0.143,0.787c0.185,0.234,0.25,0.384,0.047,0.648
			c-0.265,0.345-0.258,0.706,0.128,0.993c0.106,0.078,0.249,0.236,0.174,0.301c-0.629,0.543-0.108,1.257-0.203,1.868
			c-0.099,0.634-0.084,1.38-0.075,2.073c0.006,0.397,0.145,0.804,0.046,1.219c-1.629-1.532-3.416-2.827-5.474-3.738
			C37.145,18.122,34.3,17.636,31.336,17.79z"/>
		<path fill="#34EC84" d="M32.607,63.987c-0.164-1.091,0.157-2.218-0.24-3.294c-0.02-0.055-0.022-0.143,0.009-0.186
			c0.66-0.903,0.207-1.94,0.246-2.89c0.027-0.655,0.251-1.295,0.153-1.989c-0.095-0.674-0.228-1.372-0.166-2.071
			c1.57-0.059,3.121-0.233,4.645-0.645c3.188-0.86,5.894-2.534,8.243-4.823c0.374,0.42,0.136,0.942,0.203,1.409
			c0.132,0.91-0.067,1.837-0.071,2.757c-0.002,0.522,0.112,1.041-0.141,1.536c0.63,0.665-0.048,1.37,0.059,1.971
			c0.117,0.656,0.318,1.224-0.033,1.84c0.607,0.582-0.384,1.006-0.153,1.551c-3.269,1.854-6.529,3.732-10.248,4.576
			C34.292,63.917,33.457,64.043,32.607,63.987z"/>
		<path fill="#34EC88" d="M41.907,37.296c-1.611-0.244-2.744,0.473-3.804,1.642c-1.479,1.632-3.113,3.123-4.681,4.675
			c-0.796,0.788-1.176,0.786-1.967,0.002c-2.351-2.329-4.704-4.654-7.053-6.984c-0.809-0.802-0.795-1.157,0.009-1.951
			c2.37-2.339,4.735-4.683,7.101-7.026c0.725-0.718,1.091-0.744,1.817-0.031c1.846,1.814,3.691,3.628,5.501,5.478
			c0.64,0.654,1.328,1.012,2.253,0.914c0.397-0.042,0.804,0.006,1.207,0.013c-0.108,0.469-0.099,0.964-0.315,1.41
			c-0.044,0.091-0.09,0.221-0.057,0.302C42.128,36.263,41.95,36.778,41.907,37.296z"/>
	</g>
</g>
</svg>
