<?xml version="1.0" encoding="utf-8"?>
<!-- Generator: Adobe Illustrator 23.0.2, SVG Export Plug-In . SVG Version: 6.00 Build 0)  -->
<svg version="1.1" id="Layer_1" xmlns="http://www.w3.org/2000/svg" xmlns:xlink="http://www.w3.org/1999/xlink" x="0px" y="0px"
	 width="64px" height="64px" viewBox="0 0 64 64" enable-background="new 0 0 64 64" xml:space="preserve">
<g>
	<path fill="#DDAE22" stroke="#FFFFFF" stroke-width="0.0938" d="M28.432,0.039c4.542-0.059,9.084,0,13.626-0.039
		c0.509,0,1.038,0.02,1.547,0.059c-1.038,0.294-2.056,0.607-3.113,0.744c-1.821,0.255-3.661,0.529-5.482,0.352
		c-1.586,0.117-3.152-0.137-4.699-0.431C29.646,0.587,29.039,0.333,28.432,0.039z"/>
	<path fill="#DDAE22" stroke="#FFFFFF" stroke-width="0.0938" d="M48.343,0.02c3.563,0,7.126,0,10.67,0.313
		c-0.215,1.997-0.607,3.955-0.901,5.932c-0.196,1.684-0.529,3.328-0.764,4.992c-0.313-0.411-0.685-0.783-0.881-1.273
		c-0.431-1.096,0.372-2.33-0.255-3.387c-0.489-0.783-1.136-1.547-1.194-2.506c-0.02-0.724-0.47-1.488-1.214-1.645
		C51.788,2.114,50.007,1.096,48.343,0.02z"/>
	<path fill="#DDAE22" stroke="#FFFFFF" stroke-width="0.0938" d="M23.537,0.861c1.351-0.313,2.819-0.313,4.111,0.235
		c0.94,0.274,1.801,0.764,2.643,1.253c1.488,0.235,3.015-0.039,4.503-0.039c1.625-0.098,3.25-0.392,4.875-0.392
		c0.078-0.02,0.255-0.098,0.352-0.117c1.057-0.255,2.173-0.294,3.211-0.646c0.548-0.196,1.136-0.157,1.684-0.313
		c2.212-0.294,4.444,0.646,5.971,2.232c0.607,0.646,1.507,0.568,2.31,0.489c0.607,0.235,0.489,1.018,0.607,1.527
		c0.039,0.764,0.568,1.351,0.822,2.056c0.157,0.548,0.02,1.116,0.196,1.664c0.157,0.587,0.47,1.136,0.47,1.742
		c0.02,0.705-0.47,1.37-1.155,1.547c-0.587,0.137-1.018,1.038-1.684,0.607c-0.685-0.783-1.292-1.645-2.036-2.369
		c-0.313,0.529,0.255,0.92,0.489,1.331c0.666,0.861,0.489,1.997,0.587,3.015c0.196,1.136-1.468,1.742-2.193,0.979
		c-0.313-0.274-0.352-0.685-0.431-1.077c-0.646,0.098-1.292,0.313-1.938,0.176c-0.411-0.372-0.626-0.94-0.626-1.488
		c0.098-0.783,0.803-1.273,1.488-1.566c-0.215-0.274-0.431-0.646-0.842-0.607c-1.038-0.02-1.938,0.626-2.956,0.744
		c-0.47,0.039-0.744-0.352-0.998-0.705c-1.273,0.587-2.682,0.92-4.092,0.803c-2.526-0.255-4.934-1.136-7.322-1.879
		c-0.685-0.255-1.507-0.372-2.173,0.02c-0.724,0.411-1.194,1.136-1.84,1.645c-1.312,1.136-2.995,1.723-4.699,1.958
		c-0.685,0.098-1.37,0.059-2.017,0.352c-0.861,0.313-1.566,0.92-2.33,1.41c0.196-1.116,0.313-2.251,0.47-3.367
		c0.059-0.568,0.47-0.998,0.764-1.449c-0.157-0.059-0.45-0.176-0.587-0.235c0.157-1.096,0.294-2.193,0.47-3.27
		c0.274,0.137,0.529,0.294,0.783,0.45c0.724,0.059,1.507,0.117,2.173-0.235c0.842-0.372,1.214-1.273,1.801-1.919
		c0.842-1.057,2.017-1.879,3.367-2.134c-1.018-0.705-2.291-1.077-3.524-0.783c-1.312,0.372-2.526,1.057-3.524,1.977
		c-2.349,2.036-4.542,4.522-7.616,5.443c-1.273,0.489-2.76-0.059-3.524-1.175C8.462,7.165,8.188,5.11,8.541,3.23
		c0.078-0.548,0.568-0.861,0.92-1.233c0.313,0.372,0.744,0.744,0.764,1.273c0.059,1.39-0.352,2.937,0.45,4.17
		c0.411,0.783,1.429,1.018,2.212,0.705c1.723-0.333,3.015-1.605,4.307-2.702C19.191,3.818,20.953,1.645,23.537,0.861z"/>
	<path fill="#DDAE22" stroke="#FFFFFF" stroke-width="0.0938" d="M20.797,4.875c1.645-1.116,3.622-2.193,5.678-1.625
		c-1.605,0.294-2.604,1.664-3.563,2.858c-0.607,0.764-1.645,0.783-2.526,0.764C20.522,6.206,20.659,5.541,20.797,4.875z"/>
	<path fill="#DDAE22" stroke="#FFFFFF" stroke-width="0.0938" d="M29.098,11.942c0.352-0.45,0.783-0.881,1.37-0.94
		c1.41-0.196,2.565,0.783,3.837,1.175c2.643,1.175,5.795,1.625,8.497,0.352c0.587,0.255,1.175,0.529,1.821,0.626
		c0.392,0,0.724-0.274,1.057-0.411c-0.117,0.626-0.352,1.488,0.255,1.938c0.685,0.666,1.723,0.489,2.545,0.822
		c0.215,0.313,0.255,0.724,0.352,1.077c-4.346,0-8.712-0.039-13.058-0.059c-0.431,0.098-0.626-0.333-0.901-0.587
		c-0.587-0.705-1.547-1.077-1.938-1.958c-0.078-0.431-0.039-0.881-0.039-1.312c-0.705-0.039-1.41-0.098-2.095-0.137
		c0.098-0.196,0.176-0.392,0.274-0.587C30.409,11.942,29.763,11.962,29.098,11.942z"/>
	<path fill="#DDAE22" stroke="#FFFFFF" stroke-width="0.0938" d="M26.22,13.352c1.175-0.489,2.428-0.685,3.7-0.568
		c-0.02,0.098-0.078,0.294-0.117,0.392c0.705,0,1.429,0,2.134,0.02c-0.235,0.274-0.47,0.548-0.685,0.842
		c0.294,0.137,0.587,0.294,0.881,0.431c0.352,0.979,1.37,1.449,2.017,2.212c-0.02,0.059-0.059,0.157-0.078,0.215l-0.098-0.313
		c-0.196-0.039-0.607-0.078-0.803-0.117c0.313,1.292,0.959,2.506,1.801,3.544c0.372,0.529,0.94,1.096,0.724,1.782
		c-0.294,0.646-0.744,1.194-1.116,1.782c-0.274,0.431-0.744,0.92-1.292,0.744c-0.666-0.313-1.273-0.764-1.899-1.155
		c-0.352,0.685-0.548,1.468-1.077,2.056c-0.235,0.255-0.176,0.626-0.235,0.94c-0.098-0.078-0.274-0.255-0.352-0.352
		c-0.059,0.509-0.117,1.038-0.157,1.547c-0.098-0.039-0.294-0.117-0.392-0.157c-0.117,0.705-0.489,1.527-1.312,1.586
		c0.059,0.137,0.176,0.411,0.235,0.548c-1.038,0.568-2.056,1.253-2.663,2.31c-0.313-0.411-0.607-0.822-0.92-1.253
		c-0.117,0.157-0.255,0.313-0.372,0.47c0-0.157,0-0.47,0-0.626c-0.157,0.157-0.313,0.313-0.47,0.489
		c-0.059-0.411-0.117-0.822-0.235-1.214c-0.196,0.489-0.392,0.998-0.568,1.488c-0.255-0.666-0.411-1.351-0.587-2.036
		c-0.117,0.313-0.235,0.626-0.333,0.94c-0.117-0.313-0.235-0.646-0.352-0.959c-0.137,0.255-0.274,0.489-0.431,0.744
		c-0.137-0.274-0.274-0.548-0.411-0.803c-0.235,1.194-0.431,2.408-0.607,3.602c-1.038-0.137-2.036-0.411-3.054-0.646
		c-0.137-0.901-0.235-1.782-0.392-2.682c0.548-3.818,1.096-7.655,1.645-11.473c0.157-0.059,0.294-0.098,0.45-0.157
		c-0.392-0.059-0.431-0.352-0.392-0.685c0.783-0.372,1.547-0.764,2.31-1.155l-0.215-0.274c0.724-0.137,1.468-0.294,2.193-0.411
		c-0.078-0.098-0.235-0.294-0.313-0.372C23.694,14.331,24.967,13.861,26.22,13.352z"/>
	<path fill="#DDAE22" stroke="#FFFFFF" stroke-width="0.0938" d="M36.772,21.085c2.232,0.137,4.464,0.411,6.696,0.607
		c2.017,0.313,4.131,0.372,6.01,1.292c2.428,1.057,4.483,2.898,6.03,5.032c-0.998-0.705-2.154-1.136-3.328-1.468
		c-2.095-0.489-4.229-0.803-6.363-0.998c-1.547-0.176-2.212-1.84-3.563-2.408c-1.136-0.529-2.388-0.587-3.602-0.764
		C37.849,22.201,37.242,21.653,36.772,21.085z"/>
	<path fill="#DDAE22" stroke="#FFFFFF" stroke-width="0.0938" d="M36.518,23.826c0.705-0.352,1.39-0.959,2.232-0.901
		c0.959,0.157,1.782,0.744,2.643,1.155c1.018,0.646,1.84,1.566,2.839,2.232c1.018,0.646,2.271,0.392,3.387,0.685
		c2.349,0.255,4.62,0.94,6.852,1.664c0.548,0.196,1.233,0.235,1.684,0.607c2.349,3.72,3.994,8.144,3.367,12.608
		c-0.626,3.504-1.41,7.048-3.093,10.2c-0.255-0.45-0.509-0.901-0.822-1.331c0.587-0.822,0.626-1.86,0.646-2.839
		c-0.039-1.057-0.94-1.821-1.821-2.251c-1.077-0.431-2.232-0.724-3.407-0.587c-0.411,0.039-0.861,0.235-1.018,0.666
		c-0.059,0.509,0.313,0.94,0.548,1.351c-1.077-0.294-2.193-0.274-3.289-0.117c-0.959,0.117-1.899,0.45-2.878,0.235
		c0.45-0.313,1.136-0.235,1.449-0.724c0.274-0.333,0.039-0.783-0.176-1.077c-0.431-0.705-1.37-0.92-2.154-0.822
		c-1.018,0.137-1.762,0.959-2.251,1.801c-0.666-0.039-1.351-0.02-2.036,0.039c1.312-1.84,1.703-4.209,1.214-6.402
		c-0.352-1.136-0.842-2.31-1.782-3.093c-1.116-0.489-2.388,0.255-3.524-0.235c-0.94-0.45-1.801-1.057-2.741-1.547
		c-0.842-0.489-1.723,0.117-2.565,0.274c-0.02-0.529,0.176-0.998,0.372-1.468c-1.664,0.587-3.093,1.742-4.855,2.056
		c-2.114,0.587-4.366,0.255-6.402-0.509c-0.842-0.313-1.762-0.509-2.526-0.998c-0.959-0.509-1.723-1.449-2.839-1.625
		c-0.157,0.059-0.47,0.196-0.607,0.274c-0.548-0.196-1.038-0.901-0.646-1.449c0.137-0.333,0.568-0.137,0.842-0.137
		c0.861,0.117,1.742,0.098,2.526,0.509c1.977,0.94,4.053,1.997,6.324,1.879c1.625-0.098,3.113-0.861,4.366-1.86
		c1.273-1.096,2.682-2.036,4.053-2.995c0.411-0.294,0.842-0.568,1.155-0.979c0.411-0.509,0.529-1.175,0.842-1.723
		c0.509-0.294,1.096-0.431,1.605-0.744C35.03,25.236,35.597,24.296,36.518,23.826z"/>
	<path fill="#DDAE22" stroke="#FFFFFF" stroke-width="0.0938" d="M42.567,45.91c0.626-0.94,2.271-0.685,2.76,0.235
		c-0.568,0.117-1.468-0.45-1.762,0.274c-0.235,0.529,0.059,1.096,0.196,1.625c1.136-0.117,2.291,0.157,3.407-0.117
		c0.881-0.235,1.821-0.45,2.721-0.274c0.92,0.235,1.742,0.744,2.565,1.214c0.372,0.313,0.92-0.078,0.881-0.529
		c-0.039-0.568-0.235-1.233-0.744-1.547c-0.529-0.235-1.116-0.313-1.625-0.587c1.782-0.842,4.013,0.626,4.209,2.526
		c0.157,0.803-0.372,1.507-0.901,2.056c0.431,0.352,0.861,0.705,1.253,1.116c-0.059,0.059-0.176,0.157-0.235,0.215
		c0.176,0.235,0.372,0.489,0.548,0.724l-0.548-0.059c0.117,0.137,0.352,0.411,0.47,0.548c-0.392-0.215-0.764-0.411-1.175-0.607
		c0.02,0.45,0.235,0.842,0.431,1.214c-0.313-0.196-0.646-0.352-0.959-0.509c-0.02,0.724,0.509,1.507,0.137,2.193
		c-0.45,0.255-0.901,0.489-1.39,0.666c-0.587,0.039-1.155-0.215-1.742-0.215c-0.724,0.372-1.507,0.489-2.31,0.607
		c-0.764,0.333-1.586,0.783-1.938,1.586c-0.313,0.685-1.038,1.057-1.37,1.723c-0.607,1.057-1.351,2.036-2.31,2.8
		c-1.664,0.489-3.387,0.626-5.09,0.94c-0.255-0.489-0.294-1.136-0.744-1.488c-1.214-0.215-2.31,0.47-3.485,0.626
		c-0.744,0-1.488-0.059-2.212-0.078c0.352-1.586,1.116-3.074,1.507-4.64c0.294-1.449,0.372-2.995-0.176-4.385
		c-0.705-1.742-1.899-3.27-3.387-4.385c2.545,0.02,5.11-0.255,7.557-1.018c1.664-0.744,3.524-0.352,5.286-0.255
		C42.332,47.339,42.176,46.556,42.567,45.91z"/>
	<path fill="#DDAE22" stroke="#FFFFFF" stroke-width="0.0938" d="M11.477,47.731c-0.059-0.548-0.157-1.194,0.411-1.547
		c0.352,0.607,0.783,1.331,1.586,1.312c0.842-0.078,1.449-0.744,2.173-1.096c0.783-0.274,1.625,0.176,1.997,0.881
		c0.352,0.666,1.194,0.626,1.821,0.803c0.861,0.176,1.547,0.861,2.447,0.901c0.979,0.059,1.958-0.157,2.937-0.098
		c2.604,0.098,5.012,1.605,6.5,3.7c0.822,1.468,1.116,3.23,0.685,4.875c-0.333,0.901-0.705,1.782-0.959,2.721
		c-0.176,0.685-0.059,1.39-0.255,2.075c-0.157,0.568-0.157,1.155-0.137,1.742c-0.666-0.059-1.331-0.137-1.997-0.235
		c0.215-1.233,0.372-2.526,0.137-3.779c-0.137-0.45-0.47-1.37-1.077-0.94c-0.724,0.411-0.235,1.331-0.117,1.958
		c0.313,0.861,0.02,1.742-0.255,2.565c-0.666-0.098-1.331-0.215-1.997-0.313c0.294-1.038-0.431-1.958-0.626-2.956
		c-0.861,0.215-1.879-0.215-2.623,0.411c-0.568,0.431-0.764,1.175-1.057,1.801c-0.881-0.137-1.742-0.333-2.604-0.568
		c0-0.411,0.196-0.901-0.098-1.273c-0.392-0.47-1.057-0.47-1.605-0.509c-0.117,0.372-0.235,0.764-0.352,1.136
		c-1.116-0.45-2.232-0.979-3.152-1.762c-1.038-0.803-0.215-2.271-0.685-3.328c-1.214,0.705-2.604,1.155-3.994,1.37
		c-0.666,0.157-1.175-0.392-1.723-0.685c-0.45-0.313-1.077-0.548-1.214-1.136c-0.039-0.783,0.078-1.605-0.235-2.349
		c-0.626-1.41-1.194-2.937-1.038-4.503c0-0.313,0.196-0.548,0.333-0.803c0.568,1.449,0.998,3.367,2.682,3.896
		c0.45-0.352,0.979-0.685,1.566-0.705c1.194,0.02,2.232-1.233,1.938-2.408c-0.117-0.489-0.548-0.822-0.803-1.253
		c-0.157-0.352-0.059-0.764-0.039-1.136C10.538,46.928,11.008,47.32,11.477,47.731z"/>
</g>
</svg>
