<?xml version="1.0" encoding="utf-8"?>
<!-- Generator: Adobe Illustrator 23.0.2, SVG Export Plug-In . SVG Version: 6.00 Build 0)  -->
<svg version="1.1" id="Layer_1" xmlns="http://www.w3.org/2000/svg" xmlns:xlink="http://www.w3.org/1999/xlink" x="0px" y="0px"
	 width="64px" height="64px" viewBox="0 0 64 64" enable-background="new 0 0 64 64" xml:space="preserve">
<g>
	<g>
		<path fill="#CEA9AC" d="M35.369,63.826c-0.004,0.058-0.007,0.116-0.011,0.174c-0.215,0-0.43,0-0.646,0
			c0.001-0.352,0.264-0.411,0.527-0.469C35.329,63.609,35.369,63.708,35.369,63.826z"/>
		<path fill="#ED292A" d="M18.403,56.087c-1.14-2.56-1.452-5.253-1.288-8.023c0.246-0.404-0.105-0.922,0.247-1.307
			c0.359-0.329,0.792-0.421,1.265-0.421c0.966,0.001,1.936,0.047,2.899-0.017c0.688-0.046,1.208,0.113,1.542,0.738
			c0.281,0.328,0.607,0.627,0.684,1.084c0.161,0.194,0.395,0.328,0.481,0.584c0.197,0.076,0.381,0.115,0.455-0.16
			c-0.031-0.634-0.408-1.243-0.132-1.898c0.283-0.199,0.612-0.186,0.933-0.189c2.958-0.028,5.916,0.049,8.873-0.047
			c0.437-0.014,0.683,0.261,0.991,0.461c1.02,0.869,2.22,0.97,3.476,0.796c0.335-0.046,0.77-0.055,0.887-0.42
			c0.108-0.336-0.429-0.344-0.515-0.636c0.011-0.547,0.474-0.568,0.805-0.577c1.797-0.05,3.599-0.202,5.387,0.1
			c0.373,0.063,0.753,0.01,1.118,0.118c0.238,0.059,0.184,0.321,0.315,0.455c0.289,3.024-0.014,5.962-1.275,8.761
			c-0.443-0.484-0.096-0.965,0.023-1.434c0.262-1.03,0.214-1.113-0.846-1.118c-1.207-0.006-2.416-0.051-3.613,0.165
			c-0.601,0.108-1.154-0.182-1.75-0.176c-2.227,0.023-4.455,0.02-6.683,0.001c-0.531-0.005-0.939,0.135-1.214,0.597
			c-0.923-1.035-1.847-2.069-1.614-3.789c-0.675,0.685-0.897,1.352-0.949,2.069c-0.082,1.126-0.045,2.245,0.512,3.276
			c0.066,0.123,0.1,0.247-0.016,0.363c-0.596-0.293-0.762-0.853-0.904-1.435c-0.221-0.907-0.832-1.24-1.717-0.929
			c-0.182,0.064-0.358,0.105-0.549,0.091c-2.415-0.179-4.834-0.046-7.25-0.077c-0.877-0.011-0.928,0.078-0.767,0.933
			c0.075,0.398,0.191,0.782,0.337,1.16c0.04,0.131,0.058,0.265,0.057,0.403C18.598,55.781,18.563,55.96,18.403,56.087z"/>
		<path fill="#ED2C29" d="M35.352,46.893c-0.5-0.363-1.058-0.163-1.594-0.163c-3.071,0-6.142,0-9.213,0
			c-0.176,0.017-0.234-0.087-0.234-0.238c-0.002-1.016-0.029-2.032,0.013-3.047c0.023-0.547,0.323-0.84,0.871-0.823
			c2.537,0.078,5.073-0.089,7.61,0.011c0.107,0.004,0.21,0.038,0.31,0.074c0.137,0.057,0.217,0.167,0.269,0.301
			c0.079,0.277-0.021,0.577,0.106,0.849c0.152,0.169,0.094,0.438,0.281,0.591C34.115,45.381,34.679,46.172,35.352,46.893z"/>
		<path fill="#ED272B" d="M31.468,53.526c-0.238-0.7,0.156-0.828,0.729-0.827c2.519,0.005,5.047-0.136,7.553,0.048
			c1.85,0.136,3.666-0.221,5.502-0.057c0.847,0.075,0.821,0.073,0.665,0.942c-0.112,0.622-0.547,1.184-0.366,1.859
			c-0.661,1.837-1.681,3.443-3.093,4.795c-0.252,0.147-0.367,0.054-0.31-0.211c0.059-0.272,0.285-0.446,0.467-0.641
			c0.846-0.911,1.491-1.959,2.05-3.061c0.304-0.599,0.24-0.693-0.414-0.716c-0.589-0.02-1.18,0.03-1.767-0.035
			c-0.653-0.072-0.983,0.181-1.106,0.844c-0.198,1.062-0.637,2.044-1.223,2.95c-0.257,0.397-0.3,0.387-0.617,0.195
			c0.493-1.193,1.202-2.308,1.318-3.637c0.143-0.261,0.035-0.55,0.09-0.821c0.13-0.548,0.034-1.088-0.06-1.624
			c-0.094-0.066-0.184-0.044-0.273,0.013c-0.272,0.639-0.677,1.071-1.444,0.986c-0.128-0.014-0.271,0.034-0.383,0.103
			c-1.687,1.041-3.539,0.382-5.313,0.511c-0.376,0.027-0.617-0.261-0.822-0.561c-0.208-0.304-0.389-0.649-0.796-0.745
			c-0.166-0.062-0.27-0.199-0.389-0.318L31.468,53.526z"/>
		<path fill="#ED272B" d="M18.412,55.284c-0.494-0.623-0.4-1.415-0.596-2.124c-0.082-0.299,0.236-0.299,0.444-0.294
			c2.673,0.069,5.351-0.156,8.021,0.119c0.105,0.011,0.288,0.04,0.306,0.001c0.47-1.004,1.06,0.162,1.6-0.084
			c0.224-0.102,0.361,0.227,0.4,0.489c0.112,0.746,0.356,1.443,0.814,2.053c0.607,1.149,0.78,2.42,1.016,3.671
			c0.074,0.396-0.258,0.333-0.481,0.322c-2.547-0.128-4.818-1.128-5.728-3.807c-0.065-0.093-0.131-0.186-0.156-0.3
			c-0.105,0.01,0.138-0.411-0.164-0.136c-0.119,0.108-0.223,0.222-0.384,0.269c-1.352,0.27-2.719,0.243-4.085,0.22
			C19.034,55.676,18.671,55.611,18.412,55.284z"/>
		<path fill="#ED2D29" d="M46.654,46.407c-2.066-0.121-4.133-0.215-6.203-0.164c-0.458,0.011-0.911,0.013-1.251,0.391
			c-0.669-0.541-1.287-1.124-1.603-1.954c-0.17-0.53-0.569-1.014-0.331-1.628c0.269-0.364,0.663-0.434,1.074-0.438
			c2.278-0.018,4.557-0.024,6.835,0.002c0.891,0.01,0.916,0.068,1.279,1.388C46.587,44.799,46.872,45.582,46.654,46.407z"/>
		<path fill="#ED3028" d="M33.258,42.856c-1.844,0.08-3.688-0.069-5.54,0.106c-0.814,0.077-1.697-0.085-2.551-0.112
			c-0.374-0.012-0.651,0.08-0.692,0.48c-0.115,1.135-0.235,2.273,0.069,3.4c0.048,0.612,0.095,1.223,0.142,1.835
			c-0.627-2.401-0.729-4.813-0.153-7.239c0.086-0.515,0.371-0.963,0.487-1.468c-0.007-0.124,0.01-0.233,0.162-0.258
			c2.405-0.115,4.812-0.038,7.218-0.059c0.321-0.003,0.643-0.014,0.96,0.052c0.334,0.069,0.567,0.244,0.428,0.613
			C33.466,41.063,33.456,41.978,33.258,42.856z"/>
		<path fill="#EC262C" d="M39.536,59.611c0.205,0.212,0.262-0.008,0.338-0.125c0.617-0.946,1.092-1.955,1.298-3.074
			c0.178-0.971,0.299-1.05,1.306-0.993c0.694,0.039,1.392,0.039,2.087,0.019c0.568-0.016,0.747,0.146,0.462,0.696
			c-0.677,1.308-1.389,2.587-2.451,3.635c-0.252,0.248-0.246,0.254-0.119,0.517c-0.74,0.946-1.766,1.522-2.802,2.044
			c-1.356,0.684-2.787,1.199-4.286,1.495c-0.117-0.066-0.141-0.173-0.13-0.295C36.998,62.582,38.36,61.199,39.536,59.611z"/>
		<path fill="#EE3A27" d="M36.353,35.787c-0.166,0.355-0.269,0.754-0.669,0.943c-0.298-0.359-0.682-0.426-1.136-0.433
			c-1.81-0.026-3.625,0.127-5.431-0.1c-0.343-0.043-0.614,0.108-0.882,0.301c-0.245,0.177-0.478,0.475-0.838,0.202
			c1.384-1.545,3.033-2.8,4.569-4.18c0.316-0.284,0.653-0.546,0.98-0.819c0.366-0.08,0.657,0.136,0.975,0.245
			c0.59,0.371,0.511,0.998,0.589,1.613c0.534-0.295,1.011-0.56,1.161-1.215c0.08-0.35,0.415-0.533,0.797-0.553
			c0.121,0.024,0.203,0.089,0.233,0.212c-0.025,0.274-0.157,0.592,0.131,0.784c0.241,0.161,0.342-0.131,0.491-0.25
			c0.061-0.05,0.129-0.083,0.205-0.101c0.231-0.014,0.361,0.118,0.451,0.309c0.019,0.074,0.031,0.15,0.035,0.226
			c-0.002,0.08-0.008,0.174-0.065,0.222C37.126,33.88,36.926,34.948,36.353,35.787z"/>
		<path fill="#ED2D29" d="M23.067,47.058c-1.56-1.006-3.29-0.281-4.932-0.468c-0.224-0.025-0.475,0.189-0.713,0.292
			c-0.214-0.237-0.048-0.498-0.049-0.749c0.154-0.4,0.227-0.822,0.314-1.24c0.121-0.369,0.15-0.757,0.229-1.135l0.007-0.033
			c0.157-0.257,0.258-0.535,0.305-0.832c-0.013-0.278,0.362-0.361,0.326-0.651c0.101-0.218,0.124-0.497,0.431-0.554
			c0.828,0.95,1.89,0.896,2.7-0.136c0.095-0.12,0.198-0.287,0.351-0.05c0.092,1.145-0.226,2.322,0.272,3.434
			C22.562,45.643,22.814,46.35,23.067,47.058z"/>
		<path fill="#EE3527" d="M33.258,42.856c-0.024-0.806,0.09-1.6,0.341-2.359c0.173-0.52,0.116-0.723-0.489-0.717
			c-2.436,0.024-4.872,0.002-7.308,0.027c-0.261,0.003-0.46,0.006-0.62-0.207c0.121-0.303,0.226-0.616,0.491-0.833
			c0.673-1.112,1.676-1.259,2.892-1.183c1.795,0.113,3.602,0.005,5.403,0.045c0.435,0.01,1.014-0.013,0.76,0.748
			c-0.257,0.7-0.672,1.324-0.898,2.045c-0.422,1.347-0.394,2.679-0.06,4.026c-0.222-0.075-0.248-0.298-0.351-0.463
			c-0.186-0.242,0.038-0.565-0.158-0.806C33.26,43.072,33.259,42.964,33.258,42.856z"/>
		<path fill="#ED272B" d="M31.808,53.671c0.498-0.057,0.722,0.283,0.903,0.651c0.258,0.524,0.657,0.69,1.234,0.651
			c0.746-0.05,1.5-0.054,2.245-0.002c1.004,0.07,1.943-0.056,2.783-0.645c0.141-0.099,0.266-0.15,0.441-0.086
			c0.501,0.182,0.754-0.003,0.811-0.534c0.027-0.253,0.239-0.406,0.461-0.52c0.154,0.149,0.173,0.332,0.139,0.53
			c-0.015,0.074-0.039,0.146-0.069,0.216c-0.265,0.522-0.669,0.968-0.85,1.537c-0.9,1.306-2.295,1.804-3.722,2.179
			c-0.675,0.177-1.262,0.403-1.767,1.052c-0.324-1.091-0.89-1.964-1.333-2.899c-0.262-0.535-0.56-1.046-0.988-1.47l0.011,0.017
			C32.092,54.085,31.706,53.985,31.808,53.671z"/>
		<path fill="#EE3727" d="M34.728,38.377c0.028-0.582-0.378-0.526-0.759-0.526c-1.949,0.003-3.897,0.012-5.846-0.004
			c-0.823-0.007-1.712-0.239-2.073,0.864c-0.018,0.054-0.247,0.039-0.377,0.056c0.459-0.786,1.01-1.496,1.725-2.067
			c0.054,0,0.137,0.023,0.156-0.003c0.775-1.016,1.844-0.641,2.849-0.626c1.53,0.023,3.062,0.049,4.589-0.016
			c0.591-0.025,0.738,0.164,0.692,0.674C35.468,37.338,35.198,37.916,34.728,38.377z"/>
		<path fill="#EF4424" d="M36.649,32.042c-0.054-0.054-0.107-0.108-0.161-0.162c-0.875-0.171-1.709,0.315-2.582,0.162
			c-0.372,0.033-0.661-0.167-0.959-0.341c0.715-0.885,1.563-1.639,2.385-2.419c0.38,0.204,0.282-0.304,0.503-0.339
			c0.111-0.068,0.231-0.09,0.359-0.086c0.88,0.084,1.762,0.016,2.642,0.059c0.836,0.041,0.988,0.269,0.749,1.062
			c-0.225,0.746-0.673,1.39-0.973,2.102c-0.031,0.338-0.275,0.548-0.47,0.788c-0.074,0.075-0.14,0.069-0.2-0.017l-0.002-0.003
			c-0.164-0.103,0.034-0.747-0.482-0.322l0,0C36.958,32.747,36.678,32.604,36.649,32.042z"/>
		<path fill="#ED3729" d="M22.31,44.936c-0.404-0.393-0.347-0.903-0.349-1.396c-0.004-0.711-0.001-1.423-0.001-2.134
			c-0.294-0.38,0.011-0.779-0.037-1.166c-0.031-0.245,0.167-0.628-0.206-0.68c-0.382-0.054-0.824-0.403-1.186,0.078
			c-0.113,0.15-0.239,0.292-0.391,0.405c-0.19,0.14-0.346,0.127-0.431-0.122c1.203-2.069,2.713-3.858,4.722-5.193
			c0.253,0.14,0.245,0.324,0.088,0.532c-0.9,1.687-1.649,3.434-2.139,5.289C21.993,42.009,22.039,43.468,22.31,44.936z"/>
		<path fill="#ED3029" d="M46.334,44.146c-0.492-1.29-0.492-1.29-1.984-1.29c-1.98,0-3.96,0.008-5.939-0.006
			c-0.416-0.003-0.795,0.043-1.115,0.329c-0.392-0.377-0.298-0.775-0.049-1.179c1.311-0.698,2.656-0.675,4.022-0.185
			c0.129,0.046,0.257,0.067,0.392,0.058c0.053-0.028,0.103-0.025,0.153,0.009c0.294,0.173,0.597,0.098,0.842-0.058
			c0.967-0.618,2.002-0.069,2.996-0.198c0.304-0.04,0.377,0.337,0.534,0.546C46.326,42.823,46.574,43.466,46.334,44.146z"/>
		<path fill="#EC3128" d="M19.708,39.919c0.286,0.24,0.32-0.113,0.476-0.19c0.315-0.156,0.338-0.873,0.96-0.469
			c0.3,0.195,0.901-0.159,1.015,0.196c0.134,0.415-0.045,0.932-0.098,1.404c-0.021,0.183-0.067,0.363-0.102,0.545
			c-0.375,0.992-1.598,1.492-2.645,1.117c-0.421-0.151-0.112-0.615-0.407-0.795c-0.057-0.029-0.08-0.065-0.071-0.107
			c0.01-0.045,0.023-0.067,0.039-0.067c0.011-0.092,0.022-0.183,0.033-0.275c0.177-0.167,0.309-0.364,0.401-0.589
			c0.113-0.259,0.242-0.51,0.388-0.753L19.708,39.919z"/>
		<path fill="#EE3629" d="M37.296,42.049c-0.218,0.377-0.217,0.753,0,1.13c-0.081,0.537,0.296,0.982,0.301,1.501
			c-0.39-0.413-0.525-0.948-0.57-1.472c-0.179-2.111,0.319-4.039,1.679-5.704c0.435-0.354,0.711-0.844,1.066-1.266
			c0.36-0.429,0.73-0.6,1.233-0.312c0.523,0.3,0.019,0.642,0.022,0.965L41.025,36.9c-0.374,0.713-0.728,1.433-0.813,2.25
			l0.004,0.004c-0.196,0.133,0.014,0.511-0.333,0.553c-0.582-0.025-1.211,0.298-1.705-0.182
			C37.549,40.227,37.661,41.218,37.296,42.049z"/>
		<path fill="#EF4824" d="M38.612,32.08c0.065-0.69,0.551-1.202,0.769-1.829c0.339-0.977,0.252-1.082-0.761-1.123
			c-0.872-0.036-1.761,0.184-2.616-0.153c0.44-1.655,2.248-2.575,3.752-1.912c0.338,0.149,0.433,0.412,0.451,0.768
			c0.036,0.721-0.359,1.33-0.467,2.011C39.529,30.672,39.123,31.402,38.612,32.08z"/>
		<path fill="#ED3128" d="M37.296,42.049c-0.007-0.842-0.007-1.681,0.589-2.374c0.067-0.078,0.113-0.173,0.168-0.26
			c0.57,0.393,1.244-0.096,1.824,0.213c0.177,0.109,0.142,0.375,0.346,0.464c0.232,0.793,0.685,1.408,1.437,1.781
			c-0.104,0.165-0.266,0.206-0.418,0.122c-0.887-0.491-1.849-0.167-2.769-0.273C38.023,41.67,37.777,42.27,37.296,42.049z"/>
		<path fill="#F04D23" d="M39.74,29.843c-0.137-0.683,0.414-1.242,0.32-1.943c-0.068-0.502-0.224-0.74-0.732-0.699
			c-0.026,0.002-0.053,0.001-0.08,0c-1.988-0.057-1.988-0.057-3.244,1.775c-0.054,0.054-0.108,0.108-0.162,0.161
			c-0.138,0.056-0.213-0.013-0.264-0.132c0.459-0.662,0.918-1.324,1.378-1.986c0.129-0.139,0.227-0.296,0.303-0.47
			c0.189-0.435,0.31-1.078,0.783-1.129c0.791-0.086,1.648-0.298,2.407,0.216c0.049,0.96-0.041,1.91-0.229,2.851
			C40.195,28.986,39.993,29.424,39.74,29.843z"/>
		<path fill="#ED3128" d="M46.011,42.21c-0.192-0.261-0.31-0.625-0.779-0.372c-0.166,0.089-0.432,0.082-0.622,0.021
			c-0.726-0.233-1.398-0.17-2.062,0.213c-0.265,0.153-0.611,0.332-0.735-0.19c0.965-0.215,1.837-0.583,2.398-1.462
			c0.297-0.202,0.235-0.544,0.325-0.827c0.007-0.243,0.013-0.486,0.02-0.729c0.121-0.54,0.235-1.082,0.277-1.635
			C45.39,37.408,45.1,38,45.364,38.322l0.01,0.031c0.112,0.42,0.123,0.866,0.322,1.263l0.003,0.014
			c0.113,0.479,0.076,0.992,0.326,1.44l-0.002,0.005C46.099,41.455,46.174,41.833,46.011,42.21z"/>
		<path fill="#F05824" d="M31.461,25.088c0.115-0.629,0.231-1.259,0.346-1.888c0.197-0.39-0.03-0.851,0.207-1.234
			c0.237-0.264,0.203-0.707,0.578-0.882c2.035-0.37,2.285-0.105,1.822,1.935c-0.028,0.43-0.219,0.79-0.48,1.121
			c-0.206-0.021-0.293-0.216-0.448-0.308c-0.585-0.346-1.084-0.173-1.374,0.45c-0.133,0.286-0.211,0.603-0.44,0.84
			C31.595,25.151,31.525,25.138,31.461,25.088z"/>
		<path fill="#F05222" d="M31.644,25.102c-0.041-0.572,0.413-0.973,0.519-1.506c0.057-0.285,1.39-0.122,1.586,0.187
			c0.071,0.113,0.125,0.237,0.186,0.356c0,0-0.022,0.014-0.022,0.014c-0.18,0.116-0.225,0.318-0.315,0.491
			c-0.333,0.858-0.994,1.494-1.502,2.234c-0.176,0.126-0.325,0.277-0.449,0.455c-0.221,0.223-0.442,0.445-0.664,0.668
			c-0.254,0.018-0.386-0.196-0.318-0.345C31.046,26.825,31.078,25.86,31.644,25.102z"/>
		<path fill="#F15A23" d="M40.219,28.487c-0.013-0.97,0.248-1.926,0.141-2.901c-0.097-0.098-0.174-0.215-0.169-0.351
			c0.024-0.656-0.023-1.149-0.823-1.466c-0.452-0.179-0.487-0.059-0.659,0.188c-0.104,0.149-0.183,0.379-0.402,0.33
			c-0.233-0.051-0.101-0.328-0.202-0.476c0.056-0.164,0.112-0.328,0.168-0.492c0.179-0.349,0.223-0.751,0.436-1.087
			c0.057-0.207,0.024-0.42,0.05-0.628c0.103-0.812,0.44-0.999,1.237-0.689c0.084,0.097,0.122,0.226,0.22,0.314
			C40.714,23.647,40.866,26.067,40.219,28.487z"/>
		<path fill="#F26921" d="M34.397,17.839c0.104,0.281,0.209,0.562,0.313,0.842c0.117,0.145,0.089,0.302,0.036,0.46
			c-0.207,0.088-0.353-0.045-0.514-0.136c-0.993-0.563-1.412-0.463-1.992,0.474c-0.094,0.02-0.154-0.016-0.181-0.108
			c-0.078-0.398,0.122-0.822-0.114-1.205c-0.159-0.634-0.317-1.268-0.476-1.902c-0.066-0.333-0.217-0.754,0.397-0.388
			c0.115,0.069,0.237,0.2,0.356,0.17c1.189-0.298,1.485,0.652,1.945,1.372C34.254,17.553,34.276,17.723,34.397,17.839z"/>
		<path fill="#F05224" d="M38.105,23.811c0.072,0.107,0.144,0.213,0.261,0.387c0.102-0.406,0.539-0.606,0.466-1.097
			c0.51,0.187,0.648,1.071,1.428,0.727c0.143-0.063,0.094,0.202,0.096,0.312c0.012,0.482,0.005,0.964,0.005,1.447
			c-0.478,0-0.968,0.069-1.431-0.015c-0.866-0.156-1.309,0.24-1.568,0.995c-0.068,0.199-0.164,0.398-0.406,0.453
			C37.339,25.95,37.722,24.88,38.105,23.811z"/>
		<path fill="#F7A01A" d="M30.831,4.593c-0.032-0.237,0.013-0.453,0.179-0.634c0.342-0.384,0.477-0.898,0.815-1.289
			c0.249-0.287,0.507-0.478,0.904-0.325c0.412,0.159,0.355,0.48,0.287,0.807c-0.027,0.621-0.029,1.246-0.206,1.851
			c-0.044,0.717-0.102,1.433-0.148,2.149c-0.073,0.073-0.155,0.085-0.247,0.037c-0.242-0.314-0.178-0.684-0.187-1.039
			c-0.01-0.132,0.006-0.265,0-0.397c-0.013-0.309,0.07-0.69-0.392-0.742c-0.484-0.055-0.631,0.289-0.721,0.68
			c-0.078,0.34-0.039,0.689-0.103,1.031c-0.06,0.16-0.104,0.337-0.337,0.306l-0.01,0.001c-0.112-0.541-0.112-1.082,0-1.624
			l-0.001-0.001C30.884,5.167,30.652,4.838,30.831,4.593z"/>
		<path fill="#ED3A2A" d="M41.026,36.891c-0.173-0.255,0.379-0.634-0.206-0.862c-0.512-0.199-0.745,0.073-1.015,0.366
			c-0.353,0.384-0.55,0.92-1.1,1.109c0.264-0.602,0.74-1.053,1.122-1.57c0.23-0.304,0.565-0.526,0.7-0.903
			c0.357-0.378,0.679-0.782,0.93-1.239c0.216-0.22,0.213-0.536,0.35-0.791c0.018-0.171-0.061-0.368,0.129-0.494
			c0.172-0.026,0.12-0.442,0.357-0.264c0.28,0.209,0.126,0.513,0.016,0.777l0-0.002c-0.226,0.221,0.029,0.553-0.18,0.778
			C41.888,34.872,41.653,35.952,41.026,36.891z"/>
		<path fill="#F37021" d="M34.397,17.839c-0.464-0.31-0.551-0.887-0.904-1.273c-0.183-0.2-0.317-0.521-0.701-0.363
			c-0.424,0.174-0.82,0.184-1.123-0.239c-0.04-0.056-0.115-0.142-0.162-0.013c-0.035,0.096-0.026,0.208-0.037,0.313
			c-0.188-0.371-0.434-0.717-0.489-1.145c-0.12-0.429-0.309-0.822-0.562-1.191c-0.122-0.178-0.336-0.423,0.117-0.482l-0.003,0.002
			c0.194,0.196,0.388,0.394,0.657,0.49L31.18,13.93c0.174,0.207,0.402,0.351,0.608,0.52C32.954,15.351,33.943,16.389,34.397,17.839z
			"/>
		<path fill="#ED272B" d="M18.403,56.087c0.003-0.16,0.006-0.32,0.008-0.48c0.403-0.025,0.451,0.332,0.574,0.571
			c1.559,3.028,3.869,5.169,7.176,6.164c0.295,0.089,0.646,0.119,0.836,0.434c0.001,0.092-0.04,0.157-0.124,0.195
			c-0.299,0.072-0.582-0.018-0.866-0.09l-0.025-0.008c-0.529-0.237-1.078-0.425-1.617-0.635
			C21.67,60.874,19.602,58.901,18.403,56.087z"/>
		<path fill="#F48B1F" d="M33.214,11.408c-0.837-0.657-1.449-1.487-1.894-2.447c0.096-0.368-0.431-0.713-0.038-1.092
			c1.097-0.184,1.233-0.101,1.607,0.953c0.114,0.321,0.289,0.624,0.284,0.978c-0.273,0.317-0.338,0.611,0.063,0.894
			c0.149,0.105,0.28,0.261,0.329,0.444C33.657,11.48,33.466,11.493,33.214,11.408z"/>
		<path fill="#ED272B" d="M23.873,56.559c0.402,3.183,2.179,5.318,5.046,6.623c0.044,0.094,0.024,0.171-0.06,0.231
			c-0.673-0.033-1.413,0.164-1.893-0.543l0.001-0.001c0.199-0.172,0.057-0.235-0.086-0.338c-2.019-1.443-3.141-3.433-3.554-5.854
			c-0.045-0.266-0.065-0.535-0.021-0.797c0.042-0.254,0.078-0.568,0.487-0.404C23.874,55.834,23.738,56.207,23.873,56.559z"/>
		<path fill="#F15F21" d="M40.036,21.067c-0.836-0.281-0.995-0.192-1.12,0.626c-0.035,0.227,0.065,0.488-0.167,0.665
			c-0.265-0.718,0.106-1.411,0.082-2.119c0.021-0.76-0.273-1.497-0.16-2.263c0.027-0.182-0.107-0.453,0.243-0.471l0.004,0.015
			c0.087,0.218,0.15,0.448,0.292,0.641c0.22,0.606,0.44,1.212,0.66,1.817C39.908,20.344,40.15,20.678,40.036,21.067z"/>
		<path fill="#F3A821" d="M32.958,3.192c-0.057-0.26,0.077-0.576-0.334-0.711c-0.391-0.128-0.506,0.172-0.724,0.334
			c-0.404,0.299-0.313,0.981-0.889,1.144c0.519-1.276,1.165-2.459,2.356-3.249c0.2-0.058,0.266,0.028,0.235,0.219
			c0.012,0.034,0.014,0.068,0.007,0.103c-0.012,0.29-0.121,0.561-0.171,0.843c-0.105,0.407-0.209,0.814-0.314,1.221
			C33.085,3.157,33.03,3.189,32.958,3.192z"/>
		<path fill="#EF5D24" d="M34.414,23.018c-0.008-0.186-0.033-0.374-0.02-0.558c0.087-1.232,0.09-1.232-1.141-1.232
			c-0.267,0-0.533,0-0.8,0c-0.253-0.698-0.135-0.936,0.54-1.032c0.394-0.056,0.792-0.04,1.188-0.004
			c0.475,0.044,0.725,0.284,0.687,0.778c-0.043,0.354-0.055,0.712-0.132,1.062C34.731,22.394,34.648,22.731,34.414,23.018z"/>
		<path fill="#F6941C" d="M31.163,7.994c0.073,0.319,0.409,0.596,0.157,0.968c-0.347-0.6-0.543-1.25-0.642-1.933
			c0.129-0.072,0.159-0.193,0.163-0.327c0.229-0.726,0.49-0.83,1.612-0.644c0,0.376,0.001,0.752,0.001,1.128
			c-0.107,0.139-0.266,0.196-0.422,0.182C31.549,7.323,31.306,7.583,31.163,7.994z"/>
		<path fill="#F18623" d="M33.214,11.408c0.13-0.046,0.376-0.035,0.187-0.271c-0.18-0.224-0.406-0.409-0.6-0.622
			c-0.117-0.129-0.346-0.235-0.263-0.44c0.102-0.251,0.367-0.108,0.559-0.145c0.095,0.051,0.152,0.132,0.193,0.229
			c0.028,0.066,0.004,0.153,0.078,0.201c-0.008-0.088,0.039-0.133,0.118-0.154c0.226,0.053,0.143,0.312,0.283,0.422
			c0.051,0.122,0.129,0.24,0.147,0.366c0.056,0.395,0.638,0.851,0.212,1.117C33.808,12.313,33.518,11.673,33.214,11.408z"/>
		<path fill="#F05127" d="M31.644,25.102c-0.282,0.828-0.569,1.654-0.841,2.484c-0.055,0.167,0.043,0.309,0.18,0.415
			c-0.072,0.367-0.537,0.322-0.664,0.632c-0.211,0.147-0.321,0.112-0.297-0.164c0.629-1.063,1.029-2.224,1.439-3.381
			C31.522,25.093,31.583,25.097,31.644,25.102z"/>
		<path fill="#EC3A2F" d="M46.011,42.21c0.004-0.378,0.008-0.756,0.011-1.134c0.488,1.854,0.825,3.728,0.802,5.654
			c-0.135-0.066-0.164-0.188-0.17-0.323c-0.003-0.768-0.101-1.523-0.32-2.261C46.331,43.484,46.383,42.812,46.011,42.21z"/>
		<path fill="#ED4029" d="M37.941,32.851c0.067,0.006,0.134,0.011,0.2,0.017c-0.456,1.059-1.12,1.99-1.788,2.919
			c0.012-0.361-0.005-0.697,0.394-0.944c0.146-0.09,0.481-0.349,0.191-0.789c-0.206-0.313,0.378-0.469,0.596-0.688
			C37.696,33.204,37.929,33.128,37.941,32.851z"/>
		<path fill="#F16724" d="M34.736,22.032c-0.008-0.322-0.015-0.644-0.023-0.966c0.172-0.313,0.052-0.597-0.061-0.898
			c-0.129-0.344-0.236-0.708,0.054-1.039c0.001-0.15,0.002-0.299,0.004-0.449C35.239,19.794,35.125,20.912,34.736,22.032z"/>
		<path fill="#F26B33" d="M38.907,20.258c-0.053,0.7-0.106,1.4-0.158,2.099c-0.195,0.302-0.156,0.72-0.475,0.961
			c0.26-1.003,0.353-2.03,0.464-3.055C38.791,20.187,38.848,20.188,38.907,20.258z"/>
		<path fill="#EC262C" d="M26.965,62.871c0.535,0.578,1.323,0.153,1.92,0.483c0.038,0.338-0.225,0.249-0.368,0.22
			c-0.36-0.072-0.732-0.094-1.081-0.219c-0.474-0.164-1.016-0.122-1.428-0.473C26.326,62.878,26.645,62.874,26.965,62.871z"/>
		<path fill="#E8D3D4" d="M27.435,63.355c0.483-0.154,0.967,0.286,1.45-0.001c0.011-0.057,0.022-0.114,0.034-0.172
			c0.21,0.001,0.494-0.031,0.509,0.237c0.016,0.292-0.281,0.254-0.48,0.257C28.421,63.683,27.885,63.715,27.435,63.355z"/>
		<path fill="#EC7033" d="M38.907,20.258c-0.057,0.002-0.113,0.004-0.17,0.005c-0.052-0.836-0.104-1.672-0.157-2.508
			c-0.053-0.189-0.172-0.402,0.045-0.543c0.133-0.087,0.22,0.053,0.276,0.172c0.036,0.037,0.04,0.077,0.012,0.121
			c-0.331,0.525-0.165,1.1-0.105,1.639C38.85,19.515,38.906,19.883,38.907,20.258z"/>
		<path fill="#ED292A" d="M39.904,55.469c-0.134-0.739,0.491-1.096,0.809-1.607c0.107,0.162,0.11,0.314-0.044,0.451
			C40.437,54.714,40.317,55.188,39.904,55.469z"/>
		<path fill="#F57D2B" d="M30.536,13.447c-0.303,0.246,0,0.397,0.088,0.586c0.162,0.348,0.438,0.659,0.358,1.087
			c-0.317-0.542-0.635-1.084-0.952-1.626c-0.093-0.171-0.139-0.32,0.146-0.314C30.296,13.269,30.416,13.358,30.536,13.447z"/>
		<path fill="#ED3A2A" d="M40.212,39.15c-0.061-0.87,0.292-1.59,0.813-2.25C40.754,37.65,40.483,38.4,40.212,39.15z"/>
		<path fill="#ED9B1E" d="M32.751,4.934c0.015,0.053,0.031,0.106,0.046,0.16c0.148,0.329-0.048,0.707,0.145,1.029
			c-0.238,0.237-0.094,0.546-0.153,0.817c0.049,0.064,0.054,0.132,0.022,0.204c-0.057,0.057-0.124,0.068-0.198,0.04
			C32.677,6.435,32.465,5.669,32.751,4.934z"/>
		<path fill="#D5C8C7" d="M42.284,31.214c0.061-0.253,0.266-0.378,0.299-0.063c0.059,0.562,0.22,1.165-0.141,1.704
			c-0.077-0.382-0.124-0.767-0.139-1.157C42.271,31.538,42.431,31.37,42.284,31.214z"/>
		<path fill="#ED292A" d="M32.094,54.332c0.562,0.334,0.867,0.84,0.988,1.47C32.653,55.378,32.36,54.864,32.094,54.332z"/>
		<path fill="#DCB450" d="M33.601,0.929c-0.078-0.073-0.157-0.146-0.235-0.219c0.042-0.386,0.301-0.564,0.705-0.71
			C33.991,0.395,34.02,0.765,33.601,0.929z"/>
		<path fill="#EC5C48" d="M42.462,31.569c-0.007,0.429-0.013,0.857-0.02,1.286c-0.044,0.055-0.088,0.11-0.132,0.164
			c-0.205-0.112,0.37-0.792-0.373-0.512c0.051-0.156,0.103-0.313,0.154-0.469C42.355,31.993,42.046,31.494,42.462,31.569z"/>
		<path fill="#EC262C" d="M24.365,62.238c0.602,0.052,1.139,0.27,1.617,0.635C25.384,62.811,24.87,62.537,24.365,62.238z"/>
		<path fill="#EC3A2F" d="M44.886,37.216c-0.011-0.137-0.011-0.267,0.173-0.288c0.141,0.457,0.301,0.909,0.306,1.395
			C45.017,38.034,45.174,37.529,44.886,37.216z"/>
		<path fill="#EDA740" d="M30.668,5.406c0,0.541,0,1.083,0,1.624C30.483,6.488,30.445,5.947,30.668,5.406z"/>
		<path fill="#EC3A2F" d="M46.025,41.071c-0.384-0.418-0.351-0.93-0.326-1.44C45.882,40.094,46.034,40.564,46.025,41.071z"/>
		<path fill="#A97F66" d="M38.902,17.385c-0.514-0.229-0.211,0.25-0.321,0.371c-0.057-0.183-0.115-0.366-0.172-0.549
			c-0.026-0.19-0.224-0.438,0.165-0.487C38.688,16.939,38.933,17.093,38.902,17.385z"/>
		<path fill="#EC7033" d="M40.036,21.067c-0.078-0.36-0.218-0.71-0.167-1.089c0.271,0.374,0.349,0.8,0.346,1.25
			C40.155,21.174,40.096,21.121,40.036,21.067z"/>
		<path fill="#ED3A2A" d="M40.223,40.092c-0.353,0.022-0.344-0.225-0.346-0.464c0.113-0.158,0.225-0.316,0.338-0.474
			C40.218,39.467,40.221,39.78,40.223,40.092z"/>
		<path fill="#8C3032" d="M17.479,46.067c-0.019-0.112-0.037-0.225-0.056-0.337c0.055-0.251,0.109-0.501,0.164-0.752
			c0.038-0.073,0.089-0.084,0.153-0.032C17.773,45.348,17.602,45.702,17.479,46.067z"/>
		<path fill="#EC3A2F" d="M45.696,39.617c-0.329-0.365-0.36-0.805-0.322-1.263C45.56,38.754,45.711,39.164,45.696,39.617z"/>
		<path fill="#ED292A" d="M31.808,53.671c0.092,0.229,0.371,0.376,0.297,0.677c-0.28-0.226-0.517-0.485-0.641-0.831
			C31.578,53.569,31.693,53.62,31.808,53.671z"/>
		<path fill="#F16724" d="M32.119,19.461c-0.046-0.007-0.091-0.021-0.133-0.042c-0.013-0.418-0.026-0.835-0.04-1.253
			C32.312,18.557,32.058,19.03,32.119,19.461z"/>
		<path fill="#C7B8AE" d="M38.574,16.719c-0.192,0.116-0.111,0.324-0.165,0.487c-0.176-0.169-0.147-0.393-0.15-0.603
			c-0.002-0.114-0.037-0.31,0.183-0.23C38.582,16.424,38.591,16.58,38.574,16.719z"/>
		<path fill="#DBA378" d="M30.176,13.179c-0.144,0.06-0.115,0.201-0.147,0.314c-0.16-0.165-0.421-0.36-0.221-0.575
			C29.941,12.776,30.126,12.977,30.176,13.179z"/>
		<path fill="#EF4824" d="M35.578,29.005c0.088,0.044,0.176,0.088,0.264,0.132c-0.145,0.135-0.189,0.624-0.51,0.146
			C35.414,29.19,35.496,29.097,35.578,29.005z"/>
		<path fill="#DC7E69" d="M30.022,28.469c0.058,0.129,0.165,0.17,0.297,0.164c-0.103,0.225-0.293,0.341-0.53,0.423
			C29.671,28.773,29.868,28.629,30.022,28.469z"/>
		<path fill="#EC3A2F" d="M44.536,39.592c0.024,0.328,0.106,0.679-0.325,0.827C44.319,40.144,44.428,39.868,44.536,39.592z"/>
		<path fill="#C5877E" d="M42.462,31.569c-0.124,0.156-0.247,0.312-0.371,0.468c0.064-0.274,0.129-0.549,0.193-0.823
			C42.447,31.281,42.484,31.411,42.462,31.569z"/>
		<path fill="#EC5C48" d="M41.808,33.001c0.024,0.326-0.032,0.616-0.35,0.791C41.496,33.493,41.607,33.227,41.808,33.001z"/>
		<path fill="#F57D2B" d="M31.788,14.45c-0.322-0.033-0.513-0.22-0.608-0.519C31.454,14.02,31.707,14.134,31.788,14.45z"/>
		<path fill="#F57D2B" d="M31.191,13.938c-0.364,0.031-0.544-0.184-0.657-0.489C30.841,13.493,31.024,13.705,31.191,13.938z"/>
		<path fill="#F05127" d="M31.646,27.333c0.02-0.28,0.167-0.434,0.449-0.455C32.025,27.109,31.852,27.237,31.646,27.333z"/>
		<path fill="#EC5C48" d="M42.131,33.795c0.029-0.266-0.104-0.57,0.18-0.778C42.324,33.294,42.374,33.578,42.131,33.795z"/>
		<path fill="#F05824" d="M33.598,24.645c-0.011-0.238-0.05-0.494,0.315-0.491C33.92,24.389,33.841,24.57,33.598,24.645z"/>
		<path fill="#EC7033" d="M39.209,18.161c-0.271-0.135-0.334-0.364-0.292-0.641C39.077,17.705,39.222,17.897,39.209,18.161z"/>
		<path fill="#EDA740" d="M30.831,4.593c-0.004,0.281,0.121,0.588-0.164,0.812C30.623,5.114,30.652,4.838,30.831,4.593z"/>
		<path fill="#CFC7C9" d="M23.915,55.608c0.007-0.124,0.013-0.248,0.02-0.372c0.09,0.031,0.18,0.061,0.271,0.092
			c0,0.101,0.001,0.201,0.001,0.302C24.11,55.623,24.013,55.616,23.915,55.608z"/>
		<path fill="#EC262C" d="M23.739,55.285c-0.001,0.054-0.003,0.108-0.004,0.161c-0.484,0.365-0.239,0.854-0.175,1.278
			c0.391,2.595,1.755,4.576,3.93,6.028c-0.168,0.2-0.362,0.08-0.525,0.117c-1.272-0.522-2.616-0.877-3.78-1.645
			c-0.774-0.511-1.428-1.15-2.11-1.778c-1.198-1.104-1.799-2.547-2.664-3.839c0-0.108,0-0.215,0-0.323
			c1.292,0.307,2.604,0.185,3.901,0.098C22.785,55.35,23.263,55.309,23.739,55.285z"/>
		<path fill="#ED3028" d="M33.261,43.18c0.266,0.227,0.122,0.534,0.158,0.806C33.153,43.759,33.298,43.451,33.261,43.18z"/>
		<path fill="#ED272B" d="M37.011,53.492c0.056-0.051,0.074-0.081,0.096-0.085c0.429-0.066,0.707,0.163,0.912,0.496
			c0.065,0.105-0.014,0.212-0.14,0.226C37.381,54.184,37.194,53.844,37.011,53.492z"/>
		<path fill="#ED292A" d="M41.015,53.19c-0.04,0.133-0.08,0.266-0.119,0.399c-0.064,0.086-0.129,0.173-0.193,0.261
			c-0.006-0.221-0.012-0.442-0.019-0.663C40.794,53.188,40.905,53.189,41.015,53.19z"/>
		<path fill="#EC262B" d="M27.076,55.284c0.214,0,0.429,0,0.643,0c1.437,0,1.453,0.017,1.827,1.416
			c0.178,0.667,0.373,1.33,0.571,1.991c0.091,0.305,0.049,0.46-0.322,0.425c-1.296-0.123-2.505-0.549-3.606-1.199
			c-0.667-0.394-1.082-1.106-1.389-1.826c-0.226-0.531,0.142-0.757,0.588-0.793c0.559-0.045,1.125-0.011,1.687-0.011
			C27.076,55.286,27.076,55.285,27.076,55.284z"/>
		<path fill="#EF3E26" d="M33.905,32.042c0.848-0.254,1.694-0.546,2.582-0.162c-0.347,0.203-0.646,0.312-0.723,0.882
			c-0.081,0.607-0.916,0.763-1.439,1.199C34.232,33.268,34.404,32.574,33.905,32.042z"/>
		<path fill="#ED4029" d="M36.649,32.042c0.169,0.329,0.418,0.523,0.807,0.484c-0.195,0.225-0.104,0.883-0.688,0.521
			C36.374,32.803,36.259,32.428,36.649,32.042z"/>
		<path fill="#ED4029" d="M37.456,32.526c0.027-0.264,0.155-0.547,0.427-0.435c0.392,0.161-0.062,0.504,0.056,0.757
			C37.772,32.749,37.706,32.5,37.456,32.526z"/>
		<path fill="#F16123" d="M34.707,19.13c-0.119,0.646,0.458,1.29,0.006,1.937c0.054-0.463-0.111-0.701-0.616-0.651
			c-0.288,0.029-0.586,0.038-0.871-0.002c-0.659-0.092-0.857,0.218-0.772,0.813c-0.003,0.315,0.052,0.654-0.336,0.81
			c0.001-0.856,0.002-1.713,0.003-2.569c0.227-0.457,0.142-1.109,1.049-1.027C33.821,18.501,34.262,18.752,34.707,19.13z"/>
		<path fill="#F6991B" d="M32.452,6.057c-0.235,0.135-0.494,0.206-0.756,0.155c-0.439-0.085-0.673,0.148-0.856,0.489
			c0.02-0.372,0.007-0.741,0.06-1.117c0.094-0.675,0.428-0.895,1.085-0.826c0.744,0.078,0.374,0.626,0.463,0.979
			C32.474,5.837,32.452,5.95,32.452,6.057z"/>
		<path fill="#F58F1C" d="M33.284,9.769c0.051,0.15,0.103,0.3,0.154,0.45c-0.026,0.07-0.053,0.141-0.079,0.211
			c-0.219-0.098-0.23-0.304-0.261-0.5c-0.117-0.291-0.307-0.575-0.339-0.876c-0.106-1.03-0.752-1.178-1.596-1.061
			c-0.224-0.703,0.075-0.918,0.744-0.812c0.178,0.028,0.364,0.004,0.546,0.004c0.053,0,0.106,0,0.159-0.002
			c0.044,0.002,0.088,0.005,0.131,0.007c0,0,0.058,0.024,0.058,0.024c0.149,0.342-0.062,0.727,0.13,1.064
			c0,0,0.019,0.038,0.019,0.038C32.899,8.838,33.091,9.303,33.284,9.769z"/>
	</g>
</g>
</svg>
