<?xml version="1.0" encoding="utf-8"?>
<!-- Generator: Adobe Illustrator 23.0.2, SVG Export Plug-In . SVG Version: 6.00 Build 0)  -->
<svg version="1.1" id="Layer_1" xmlns="http://www.w3.org/2000/svg" xmlns:xlink="http://www.w3.org/1999/xlink" x="0px" y="0px"
	 width="64px" height="64px" viewBox="0 0 64 64" enable-background="new 0 0 64 64" xml:space="preserve">
<g>
	<g>
		<path fill="#FFFFFF" d="M64,28.307c-0.025,0.03-0.049,0.06-0.073,0.089c-1.416,1.653-2.834,3.305-4.247,4.961
			c-0.089,0.104-0.135,0.077-0.223,0.008c-4.412-3.463-9.256-6.156-14.519-8.091c-2.233-0.821-4.521-1.449-6.865-1.868
			c-2.705-0.483-5.428-0.667-8.174-0.489c-4.146,0.268-8.127,1.253-11.984,2.765c-4.75,1.862-9.142,4.358-13.172,7.489
			c-0.12,0.093-0.249,0.266-0.359,0.255c-0.112-0.011-0.207-0.203-0.307-0.319c-1.334-1.556-2.665-3.114-4.003-4.667
			c-0.103-0.12-0.104-0.173,0.019-0.273c1.966-1.601,4.055-3.026,6.225-4.335c3.984-2.403,8.177-4.347,12.624-5.731
			c2.486-0.774,5.017-1.346,7.598-1.697c2.295-0.312,4.6-0.427,6.914-0.341c3.389,0.126,6.714,0.674,9.981,1.574
			c5.34,1.471,10.316,3.762,15.01,6.683c1.886,1.174,3.707,2.44,5.425,3.85C63.918,28.211,63.981,28.237,64,28.307z"/>
		<path fill="#FFFFFF" d="M31.967,47.963c-3.315-0.006-6.498-0.689-9.579-1.879c-3.67-1.418-7.011-3.399-10.036-5.913
			c-0.3-0.25-0.298-0.252-0.042-0.534c1.399-1.542,2.799-3.082,4.193-4.628c0.107-0.119,0.16-0.115,0.279-0.018
			c2.976,2.428,6.262,4.283,9.957,5.378c1.835,0.543,3.71,0.827,5.627,0.781c2.194-0.053,4.311-0.514,6.364-1.272
			c3.104-1.146,5.918-2.8,8.47-4.9c0.117-0.096,0.171-0.085,0.267,0.021c1.44,1.598,2.884,3.194,4.332,4.786
			c0.101,0.111,0.086,0.158-0.019,0.247c-1.82,1.554-3.795,2.882-5.888,4.038c-2.54,1.404-5.204,2.495-8.03,3.176
			C35.925,47.711,33.962,47.966,31.967,47.963z"/>
	</g>
</g>
</svg>
