<?xml version="1.0" encoding="UTF-8" standalone="no"?>
<svg
   xmlns:dc="http://purl.org/dc/elements/1.1/"
   xmlns:cc="http://creativecommons.org/ns#"
   xmlns:rdf="http://www.w3.org/1999/02/22-rdf-syntax-ns#"
   xmlns:svg="http://www.w3.org/2000/svg"
   xmlns="http://www.w3.org/2000/svg"
   xmlns:sodipodi="http://sodipodi.sourceforge.net/DTD/sodipodi-0.dtd"
   xmlns:inkscape="http://www.inkscape.org/namespaces/inkscape"
   width="64"
   height="64"
   viewBox="0 0 47.999999 48"
   version="1.1"
   id="svg412"
   sodipodi:docname="blueja.svg"
   inkscape:version="0.92.3 (2405546, 2018-03-11)">
  <metadata
     id="metadata418">
    <rdf:RDF>
      <cc:Work
         rdf:about="">
        <dc:format>image/svg+xml</dc:format>
        <dc:type
           rdf:resource="http://purl.org/dc/dcmitype/StillImage" />
        <dc:title></dc:title>
      </cc:Work>
    </rdf:RDF>
  </metadata>
  <defs
     id="defs416" />
  <sodipodi:namedview
     pagecolor="#ffffff"
     bordercolor="#666666"
     borderopacity="1"
     objecttolerance="10"
     gridtolerance="10"
     guidetolerance="10"
     inkscape:pageopacity="0"
     inkscape:pageshadow="2"
     inkscape:window-width="1920"
     inkscape:window-height="1017"
     id="namedview414"
     showgrid="false"
     units="px"
     inkscape:pagecheckerboard="true"
     inkscape:zoom="8.2140623"
     inkscape:cx="32.547672"
     inkscape:cy="27.276245"
     inkscape:window-x="-8"
     inkscape:window-y="-8"
     inkscape:window-maximized="1"
     inkscape:current-layer="svg412" />
  <g
     id="#f2f2f2ff"
     transform="matrix(0.04804516,0,0,0.04804516,-0.04516148,2.9502996)">
    <path
       d="m 485.7,2.95 c 6.68,-0.89 13.42,-2.66 20.18,-1.47 20.69,3.26 41.38,6.47 62.07,9.73 41.39,6.75 82.87,12.96 124.27,19.64 30.6,4.83 61.18,9.7 91.8,14.44 23.38,4.16 46.96,7.06 70.3,11.47 -0.61,0.34 -1.83,1.03 -2.44,1.37 -4.28,0.42 -8.59,0.24 -12.88,0.26 -36.67,-0.02 -73.34,0 -110,0 -7.12,-0.02 -14.3,0.41 -21.35,-0.87 C 640.59,47 573.54,36.41 506.5,25.72 c -6.89,-1.41 -13.81,0.37 -20.62,1.37 -50.64,7.82 -101.31,15.49 -151.9,23.57 -9.3,1.62 -18.68,2.69 -27.98,4.26 -8.65,1.19 -17.23,3.09 -25.98,3.44 -42.98,0.02 -85.97,-0.11 -128.95,0.06 -4.27,0.23 -8.51,-0.46 -12.58,-1.7 9.37,-2.28 19.01,-3.03 28.49,-4.73 13.78,-2.06 27.5,-4.47 41.3,-6.39 34.6,-5.1 69.13,-10.63 103.71,-15.82 31.9,-4.94 63.82,-9.72 95.69,-14.82 8.13,-0.98 16.18,-2.49 24.26,-3.77 17.97,-2.42 35.82,-5.65 53.76,-8.24 z"
       id="path215"
       inkscape:connector-curvature="0"
       style="opacity:1;fill:#f2f2f2" />
    <path
       d="m 131.91,240.17 c 3.99,5.94 8.57,11.45 12.44,17.47 1.53,2.35 3.39,4.46 5.35,6.46 0.03,-4.8 0.13,-9.61 0.75,-14.37 0.46,9.24 -0.39,18.53 0.83,27.72 0.84,6.85 0.81,13.75 1.06,20.63 0.3,9.01 1.2,17.98 2.25,26.92 0.95,8.01 1.41,16.06 2.54,24.05 3.76,27.1 9.37,53.93 16.57,80.32 2.96,10.22 5.56,20.55 9.27,30.53 5.16,16.12 11.23,31.93 17.68,47.57 1.13,2.37 0.93,5.02 0.19,7.48 -3,10.48 -2.02,22.23 3.44,31.76 1.32,2.66 3.25,5.16 3.62,8.18 -0.41,2.25 -1.73,4.19 -2.92,6.11 -9.69,14.17 -18.17,29.36 -23.3,45.81 -6.26,17.89 -7.28,37.24 -5.07,55.94 3.23,20.3 10.92,39.73 21.31,57.4 8.31,14.09 17.5,27.65 26.66,41.2 0.87,1.52 2.45,2.25 4.01,2.9 4.04,-8.04 7.59,-16.4 13.05,-23.63 6.42,-9.23 15.4,-16.4 25.24,-21.69 15.04,-7.95 31.39,-12.91 47.64,-17.68 1.98,-0.47 4.01,-1.31 6.07,-0.94 3.19,2.51 5.46,5.95 8.18,8.92 12.17,13.79 24.72,27.26 37.72,40.27 1.02,1.24 2.69,2.44 2.32,4.29 -0.45,4.34 -2.04,8.46 -3.57,12.52 -7.53,19.09 -20.5,35.61 -35.38,49.55 -1.69,1.62 -3.27,3.36 -4.82,5.13 14.93,1.69 29.99,0.43 44.98,0.64 8.67,0.26 17.25,-1.2 25.9,-1.39 6.63,-0.25 13.26,-0.47 19.84,-1.33 5.95,-0.77 11.97,-0.84 17.92,-1.59 2.36,-0.24 4.73,-0.66 7.11,-0.39 2.99,1.17 5.32,3.48 7.85,5.39 11.26,8.83 22.96,17.09 34.78,25.15 5.52,3.42 10.71,7.4 16.54,10.3 4.87,-2.61 9.48,-5.65 14.03,-8.76 6.54,-4.5 13.35,-8.59 19.68,-13.38 32.44,-23.43 63.01,-49.4 91.83,-77.14 5.34,-4.99 10.3,-10.36 15.71,-15.27 8.2,-7.46 16.06,-15.33 23.08,-23.92 8.87,-11.09 18.62,-21.43 27.47,-32.53 1.58,-1.99 3.3,-3.87 5.06,-5.69 4.23,8.59 6.5,17.95 8.73,27.21 1.51,6.1 2.27,12.35 3.04,18.58 0.92,-0.15 1.84,-0.29 2.78,-0.41 6.57,-11.08 12.06,-22.81 16.22,-35.01 7.01,-18.87 12.39,-38.32 16.7,-57.97 1.59,-7.5 2.87,-15.06 4.5,-22.55 0.89,-4.53 3.57,-8.37 5.93,-12.24 3.46,-5.57 6.75,-11.25 10.06,-16.91 9.91,-16.86 18.33,-34.52 27.09,-51.99 8.86,-18.91 16.66,-38.31 23.83,-57.93 2.65,-8 5.36,-15.99 7.99,-24 7.37,-24.7 13.83,-49.71 18.2,-75.12 4.57,-24.01 6.99,-48.37 8.6,-72.74 0.31,-9.92 0.65,-19.83 0.96,-29.75 0.38,-3.77 0.31,-7.95 2.75,-11.09 5.17,-5.93 8.61,-13.21 14.41,-18.61 0.83,13.14 0.27,26.32 0.1,39.47 -0.1,27.47 -3.09,54.83 -7,81.99 -3.62,20.74 -7.53,41.46 -12.81,61.85 -10.21,39.4 -24.26,77.77 -41.43,114.66 -10.15,20.54 -20.15,41.21 -32.28,60.69 -3.46,5.34 -3.73,11.86 -4.78,17.95 -2.11,12.79 -4.45,25.56 -7.99,38.05 -5.29,21.88 -12.62,43.24 -21.37,63.97 -4.94,11.64 -12.06,22.14 -19.38,32.38 -6.59,10.07 -13.76,19.75 -20.25,29.89 -1.53,2.36 -3.3,4.56 -5.25,6.6 -1.01,-3.47 -1.75,-7 -2.33,-10.56 -2.67,-15.87 -5.87,-31.64 -8.44,-47.52 -3.89,4.29 -7.3,8.98 -11.19,13.26 -10.88,11.83 -22.94,22.57 -35.87,32.12 -5.59,4.1 -11.73,7.44 -17.09,11.87 -5.13,4.18 -9.49,9.21 -14.53,13.49 -10.97,9.39 -21.91,18.82 -33.27,27.74 -8.42,6.99 -17.39,13.26 -26.07,19.91 -10.01,7.4 -20.38,14.3 -30.7,21.25 -6.56,4.49 -14.83,6.28 -22.67,5.29 -8.03,-1.24 -14.63,-6.34 -21.21,-10.72 -9.38,-6.59 -19.01,-12.85 -27.88,-20.13 -2.03,-1.53 -4.24,-3.29 -6.93,-3.11 -4.75,0.07 -9.42,0.99 -14.14,1.44 -17.24,1.71 -34.54,2.69 -51.86,3.04 -21.01,0.14 -42.34,1.97 -63.04,-2.51 -1.51,-1.63 -2.11,-3.85 -2.94,-5.84 -1.74,-4.9 -4,-9.75 -4.26,-15.02 -0.25,-4.64 0.48,-9.45 2.85,-13.49 2.26,-3.92 5.61,-7.01 8.91,-10.04 6.47,-5.88 12.21,-12.54 17.42,-19.55 5.31,-7.34 10.18,-15.21 12.68,-23.99 -1.88,-2.31 -3.83,-4.54 -5.94,-6.63 -7.22,-7.26 -13.86,-15.06 -20.84,-22.54 -3.53,0.58 -6.97,1.52 -10.33,2.72 -10.46,3.42 -20.95,7.02 -30.63,12.33 -8.56,4.72 -15.53,11.98 -20.58,20.3 -3.75,6.38 -5.22,14.15 -10.62,19.51 -8.28,8.45 -22.65,9.81 -32.27,2.87 -5.86,-3.96 -9.01,-10.48 -12.8,-16.21 -8.27,-12.46 -16.93,-24.71 -24.04,-37.9 -7.72,-13.11 -13.62,-27.24 -18.12,-41.76 -3.95,-13.17 -5.97,-26.92 -5.89,-40.67 -0.15,-13.13 1.21,-26.32 4.72,-38.99 4.81,-17.55 12.25,-34.41 22.08,-49.73 0.81,-1.41 1.73,-2.79 2.13,-4.38 -0.45,-3.36 -1.95,-6.46 -2.86,-9.7 -2.68,-8.35 -2.8,-17.28 -1.98,-25.93 0.38,-4.49 2.18,-8.73 2.47,-13.22 -0.32,-2.67 -1.48,-5.14 -2.43,-7.62 -13.86,-35.33 -23.9,-72.05 -31.66,-109.16 -5.24,-28.86 -9.43,-57.97 -10.87,-87.28 -1.52,-20.24 -0.53,-40.56 -1.24,-60.82 z"
       id="path217"
       inkscape:connector-curvature="0"
       style="opacity:1;fill:#f2f2f2" />
  </g>
  <g
     id="#0f1723ff"
     transform="matrix(0.04804516,0,0,0.04804516,-0.04516148,2.9502996)">
    <path
       d="m 485.88,27.09 c 6.81,-1 13.73,-2.78 20.62,-1.37 67.04,10.69 134.09,21.28 201.15,31.8 7.05,1.28 14.23,0.85 21.35,0.87 36.66,0 73.33,-0.02 110,0 4.29,-0.02 8.6,0.16 12.88,-0.26 0.26,7.2 -0.12,14.4 0.29,21.59 30.27,-0.21 60.55,0.15 90.83,-0.41 3.79,-0.11 7.59,-0.08 11.37,0.41 -6.06,8.71 -13.02,16.75 -19.26,25.34 -1.74,2.29 -3.27,4.81 -5.51,6.65 -4.47,0.95 -9.08,0.35 -13.6,0.45 -21.32,0.03 -42.64,-0.07 -63.96,0.03 -0.39,4.48 -0.37,8.99 0.13,13.47 15.94,-0.08 31.89,-0.05 47.83,-0.05 6.32,0.02 12.65,-0.19 18.97,0.19 -7.4,10.55 -15.76,20.38 -23.25,30.87 -1.49,1.91 -2.83,4.09 -4.95,5.37 -4.22,0.73 -8.52,0.25 -12.77,0.31 -8.62,0.03 -17.24,-0.06 -25.86,-0.04 -0.49,4.45 -0.49,8.95 -0.04,13.4 9.61,0.17 19.23,-0.31 28.83,0.18 -7.18,10.42 -15.37,20.1 -22.61,30.48 -2.82,4.23 -7.18,8.11 -7.2,13.57 -0.47,16.77 0.21,33.54 0.33,50.31 -0.31,9.92 -0.65,19.83 -0.96,29.75 -1.61,24.37 -4.03,48.73 -8.6,72.74 -4.37,25.41 -10.83,50.42 -18.2,75.12 -2.63,8.01 -5.34,16 -7.99,24 -7.17,19.62 -14.97,39.02 -23.83,57.93 -8.76,17.47 -17.18,35.13 -27.09,51.99 -3.31,5.66 -6.6,11.34 -10.06,16.91 -2.36,3.87 -5.04,7.71 -5.93,12.24 -1.63,7.49 -2.91,15.05 -4.5,22.55 -4.31,19.65 -9.69,39.1 -16.7,57.97 -4.16,12.2 -9.65,23.93 -16.22,35.01 -0.94,0.12 -1.86,0.26 -2.78,0.41 -0.77,-6.23 -1.53,-12.48 -3.04,-18.58 -2.23,-9.26 -4.5,-18.62 -8.73,-27.21 -1.76,1.82 -3.48,3.7 -5.06,5.69 -8.85,11.1 -18.6,21.44 -27.47,32.53 -7.02,8.59 -14.88,16.46 -23.08,23.92 -5.41,4.91 -10.37,10.28 -15.71,15.27 -28.82,27.74 -59.39,53.71 -91.83,77.14 -6.33,4.79 -13.14,8.88 -19.68,13.38 -4.55,3.11 -9.16,6.15 -14.03,8.76 -5.83,-2.9 -11.02,-6.88 -16.54,-10.3 -11.82,-8.06 -23.52,-16.32 -34.78,-25.15 -2.53,-1.91 -4.86,-4.22 -7.85,-5.39 -2.38,-0.27 -4.75,0.15 -7.11,0.39 -5.95,0.75 -11.97,0.82 -17.92,1.59 -6.58,0.86 -13.21,1.08 -19.84,1.33 -8.65,0.19 -17.23,1.65 -25.9,1.39 -14.99,-0.21 -30.05,1.05 -44.98,-0.64 1.55,-1.77 3.13,-3.51 4.82,-5.13 14.88,-13.94 27.85,-30.46 35.38,-49.55 1.53,-4.06 3.12,-8.18 3.57,-12.52 0.37,-1.85 -1.3,-3.05 -2.32,-4.29 -13,-13.01 -25.55,-26.48 -37.72,-40.27 -2.72,-2.97 -4.99,-6.41 -8.18,-8.92 -2.06,-0.37 -4.09,0.47 -6.07,0.94 -16.25,4.77 -32.6,9.73 -47.64,17.68 -9.84,5.29 -18.82,12.46 -25.24,21.69 -5.46,7.23 -9.01,15.59 -13.05,23.63 -1.56,-0.65 -3.14,-1.38 -4.01,-2.9 -9.16,-13.55 -18.35,-27.11 -26.66,-41.2 -10.39,-17.67 -18.08,-37.1 -21.31,-57.4 -2.21,-18.7 -1.19,-38.05 5.07,-55.94 5.13,-16.45 13.61,-31.64 23.3,-45.81 1.19,-1.92 2.51,-3.86 2.92,-6.11 -0.37,-3.02 -2.3,-5.52 -3.62,-8.18 -5.46,-9.53 -6.44,-21.28 -3.44,-31.76 0.74,-2.46 0.94,-5.11 -0.19,-7.48 -6.45,-15.64 -12.52,-31.45 -17.68,-47.57 -3.71,-9.98 -6.31,-20.31 -9.27,-30.53 -7.2,-26.39 -12.81,-53.22 -16.57,-80.32 -1.13,-7.99 -1.59,-16.04 -2.54,-24.05 -1.05,-8.94 -1.95,-17.91 -2.25,-26.92 -0.25,-6.88 -0.22,-13.78 -1.06,-20.63 -1.22,-9.19 -0.37,-18.48 -0.83,-27.72 0.34,-6.25 0.15,-12.51 0.27,-18.77 -0.03,-2.47 0.12,-4.98 -0.49,-7.39 -0.8,-2.27 -2.36,-4.15 -3.75,-6.08 -6.77,-8.93 -13.16,-18.16 -19.79,-27.21 -3.54,-5.1 -7.59,-9.84 -10.79,-15.17 12.06,-0.38 24.13,0.15 36.18,-0.2 0.4,-4.6 0.4,-9.22 0,-13.82 -11.02,-0.25 -22.05,-0.02 -33.08,-0.08 -4.48,-0.12 -9.09,0.55 -13.48,-0.54 -1.44,-1.25 -2.53,-2.84 -3.65,-4.38 -5.47,-7.82 -11.04,-15.59 -16.75,-23.24 -1.91,-2.55 -3.64,-5.21 -5.26,-7.95 6.7,-0.41 13.42,-0.16 20.14,-0.2 17.34,-0.03 34.68,0.03 52.01,0 0.61,-4.43 0.6,-8.93 -0.09,-13.35 -23.64,0.09 -47.27,0.01 -70.91,0.06 -3.59,-0.05 -7.23,0.28 -10.78,-0.38 -2.36,-1.34 -3.64,-3.92 -5.25,-6.02 C 58.85,95.85 51.67,87.4 45.89,78 54.93,77.63 63.97,77.93 73,77.84 c 16.33,0.26 32.67,0.13 49,0.16 9.55,0.07 19.12,-0.35 28.64,0.6 0.22,-6.73 -0.23,-13.47 0.43,-20.18 42.98,-0.17 85.97,-0.04 128.95,-0.06 8.75,-0.35 17.33,-2.25 25.98,-3.44 9.3,-1.57 18.68,-2.64 27.98,-4.26 50.59,-8.08 101.26,-15.75 151.9,-23.57 M 169.05,75.97 c -1.14,5.94 -0.63,12.01 -0.7,18.02 -0.06,51.91 0.07,103.81 -0.07,155.72 6.79,-1.7 13.76,-2.55 20.59,-4.09 6.98,-1.56 14.11,-2.24 21.06,-3.93 5.39,-1.35 10.94,-1.91 16.34,-3.2 4.58,-1.11 9.27,-1.68 13.92,-2.41 2.19,-0.48 4.95,-0.5 6.1,-2.79 2.32,-4.72 2.13,-10.15 2.38,-15.28 0.04,-12.31 0.06,-24.61 0.01,-36.91 0.04,-5.15 -1.74,-10.54 -5.78,-13.92 -1.77,-1 -3.84,-1.2 -5.79,-1.66 2.83,-1.49 5.97,-3 7.52,-5.98 2.57,-4.38 2.59,-9.63 2.68,-14.56 -0.01,-14.99 -0.01,-29.98 0,-44.96 -0.09,-4.69 -0.07,-9.66 -2.35,-13.9 -1.79,-3.3 -4.17,-6.59 -7.68,-8.18 -3.88,-1.54 -8.13,-1.55 -12.23,-1.58 -13.69,0.07 -27.37,0.01 -41.05,0.04 -4.5,0.04 -9.01,-0.23 -13.5,0.22 -0.36,-0.16 -1.09,-0.49 -1.45,-0.65 m 93.25,-0.05 c -0.35,6.02 0.11,12.05 0.04,18.08 -0.08,45.68 0.09,91.37 -0.09,137.05 5.76,0.48 11.23,-1.82 16.86,-2.65 13.02,-2.12 25.86,-5.3 38.94,-7.06 1.2,-0.26 2.41,-0.51 3.62,-0.76 1.25,-5.57 2.63,-11.12 3.52,-16.76 -10.2,0.79 -20.17,3.26 -30.37,4.08 -0.47,-6.62 -0.12,-13.27 -0.21,-19.9 0.03,-36.98 -0.09,-73.97 0.06,-110.95 -4.51,-0.82 -9.11,-0.39 -13.67,-0.44 -5.45,0.09 -10.94,-0.43 -16.34,0.51 -0.74,-0.49 -1.52,-0.9 -2.36,-1.2 M 383.98,75.7 c -1.68,5.28 -0.65,10.88 -0.88,16.3 -0.35,32.01 0.25,64.01 -0.14,96.02 0.02,2.01 0.2,4.02 0.41,6.03 -5.34,1.1 -10.75,2.66 -16.25,2.02 -0.21,-2.02 -0.4,-4.03 -0.45,-6.06 0.07,-37.69 -0.02,-75.38 0.06,-113.07 -5.22,-0.69 -10.49,-0.24 -15.73,-0.32 -5.42,0.06 -10.86,-0.35 -16.25,0.37 l 0.56,0.71 c -0.77,7.07 -0.62,14.2 -0.64,21.3 0,27.66 0.01,55.33 0,83 0,6.31 -0.18,12.65 0.6,18.93 0.65,5.02 2.51,10.05 6,13.79 0.82,1.12 2.22,1.24 3.5,1.1 7.82,-0.7 15.42,-2.84 23.17,-4.02 6.19,-0.95 12.29,-2.4 18.46,-3.47 8.97,-1.45 17.72,-4.1 26.8,-4.86 l -0.69,-0.2 c 2.92,-5.96 2.43,-12.82 2.66,-19.27 -0.02,-30 -0.01,-60 -0.01,-90 -0.03,-5.73 0.14,-11.46 -0.14,-17.19 -5.67,-0.42 -11.35,-0.14 -17.02,-0.21 -4.12,-0.04 -8.28,-0.22 -12.35,0.53 -0.42,-0.35 -1.25,-1.07 -1.67,-1.43 m 44.35,-0.24 0.11,1.01 c -1.35,5.07 -0.69,10.34 -0.77,15.51 -0.02,34.68 -0.01,69.35 -0.04,104.03 0.16,1.49 -0.19,3.45 1.28,4.42 l 0.06,-1.19 c 4.17,0.07 8.2,-1.04 12.27,-1.74 13.91,-1.98 27.57,-5.32 41.41,-7.71 1.96,-0.37 3.94,-0.68 5.84,-1.31 1.15,-1.17 0.99,-2.96 1.34,-4.44 0.88,-3.18 1.64,-6.39 2.03,-9.67 -10.61,-0.15 -21.23,0.18 -31.84,-0.15 -0.43,-5.05 -0.46,-10.14 0.06,-15.19 8.18,0.59 16.41,0.38 24.59,0.07 l -0.03,-0.85 c 1.05,-10.02 0.58,-20.14 0.42,-30.2 -8.43,-0.27 -16.86,0.34 -25.28,-0.21 -0.09,-5.96 -0.26,-11.93 0.22,-17.88 11.04,0.16 22.09,0.32 33.12,-0.02 -0.43,-5.38 -1.7,-10.63 -2.31,-15.98 -0.87,-5.89 -2.08,-11.71 -3.06,-17.58 -15.58,0 -31.17,0.03 -46.75,0.01 -3.83,-0.04 -7.67,-0.11 -11.49,0.24 -0.29,-0.29 -0.88,-0.88 -1.18,-1.17 m 92.82,0.91 c -1.48,5.82 -2.3,11.79 -3.02,17.74 -0.87,5.28 -2.22,10.49 -2.36,15.86 10.98,0.43 21.97,-0.18 32.95,0.28 -0.25,22.19 0.28,44.39 -0.31,66.57 -5.6,0.48 -10.92,-1.35 -16.27,-2.63 0.29,-7.34 0.35,-14.69 -0.07,-22.02 -9.93,-0.02 -19.86,-0.09 -29.78,0.04 -0.12,7.69 0.05,15.37 0,23.06 -0.34,3.66 -0.75,7.76 1.46,10.95 1.08,1.53 3.13,1.64 4.8,2.06 8.7,1.46 17.38,3.03 26,4.94 3.75,0.61 7.52,1.54 11.35,1.46 3.58,-0.96 6.53,-3.43 9.29,-5.8 0.54,-0.18 1.63,-0.54 2.17,-0.72 2.27,-1.39 4.57,-2.8 6.42,-4.75 4.65,-2.81 9.02,-6.05 13.29,-9.4 1.54,-1.25 3.32,-2.73 3.06,-4.95 0.07,-25.02 0.01,-50.04 0.02,-75.06 -0.06,-5.9 0.28,-11.82 -0.29,-17.71 -19.57,0.14 -39.14,-0.02 -58.71,0.08 m 93.57,-0.02 c -0.78,4.58 -1.38,9.2 -2.72,13.65 -1.67,5.59 -2.19,11.44 -3.7,17.07 -1.52,5.6 -2.22,11.37 -3.4,17.04 -2.47,10.55 -4.53,21.19 -6.81,31.78 4.94,-4.46 8.7,-10.09 13.98,-14.17 -0.09,13.96 -4.39,27.6 -4.04,41.6 -2.2,7.59 -2.6,15.65 -2.14,23.5 4.25,1.01 8.57,1.7 12.93,2.01 1.05,-4.38 1.48,-8.88 2.5,-13.27 0.44,-2.2 0.99,-4.43 0.87,-6.69 0.9,-0.73 1.56,-2.11 2.89,-2.07 4.88,-0.38 9.8,-0.34 14.66,0.28 2.01,8.79 2.09,17.92 4.52,26.63 8.49,2.36 17.29,3.25 25.86,5.25 1.41,0.25 2.84,0.41 4.29,0.49 -0.23,-2.83 -0.65,-5.63 -1.23,-8.4 -5.13,-27.99 -10.36,-55.95 -15.56,-83.92 -3.37,-16.9 -6.09,-33.92 -9.87,-50.74 -10.36,0.1 -20.74,-0.26 -31.09,0.23 -0.49,-0.07 -1.45,-0.2 -1.94,-0.27 m 50.22,-0.01 c 0.34,0.36 1.02,1.09 1.36,1.46 -0.38,5.54 1.52,10.82 2.65,16.16 1.96,9.59 4.52,19.04 6.54,28.61 5.56,25.03 11.5,49.98 17.1,75 0.83,3.43 2.02,6.81 2.11,10.37 0.18,5.28 -0.49,10.58 0.32,15.84 5.51,1.62 11.26,2.06 16.87,3.25 5.25,0.9 10.43,2.23 15.74,2.87 0.55,-8.31 0.24,-16.65 0.28,-24.98 7.46,-32.28 14.64,-64.63 22.2,-96.89 2.15,-10.59 5.32,-20.98 6.86,-31.68 -10.73,-0.02 -21.45,-0.02 -32.17,0 l 0.32,0.58 c -1.05,1.47 -1.02,3.32 -1.24,5.03 -2.71,19.55 -6.49,38.93 -9.62,58.42 -1.11,5.32 -2.08,10.68 -2.42,16.12 -0.43,-0.11 -1.31,-0.32 -1.75,-0.43 -1.51,-9.69 -2.58,-19.45 -4.36,-29.1 -3.24,-16.78 -5.72,-33.7 -8.2,-50.61 -10.86,-0.07 -21.73,0.13 -32.59,-0.02 m 102.65,7.52 c -2.27,3.67 -4.09,7.74 -4.23,12.12 -0.7,20.69 0.08,41.38 -0.04,62.07 0.13,5.37 -0.05,11.11 2.7,15.92 2.01,3.67 5.85,6.23 10.01,6.7 8.18,0.95 16.46,-0.32 24.63,0.66 0.33,0.24 0.99,0.71 1.33,0.94 0.59,3.55 0.35,7.16 0.36,10.73 -0.19,6.64 0.65,13.37 -0.98,19.89 -12.03,-0.41 -23.64,-4.06 -35.57,-5.19 0.12,4.74 0.52,9.47 1.29,14.14 l 0.88,0.16 c -0.69,5.3 0.6,10.56 1.14,15.81 5.94,1.74 12.17,2.15 18.17,3.67 9.67,1.77 19.33,3.58 28.99,5.4 2.96,0.49 6.13,1.66 9.02,0.23 5.13,-4.92 7.6,-12.01 7.6,-19.02 0.26,-17.36 0.03,-34.73 0.12,-52.09 -0.06,-4.88 0.26,-9.81 -0.64,-14.63 -0.88,-5.41 -5.91,-9.71 -11.29,-10.15 -9.02,-0.82 -18.17,0.69 -27.11,-1.03 -0.23,-5.06 -0.4,-10.12 -0.33,-15.19 0.11,-8.09 -0.29,-16.2 0.45,-24.28 2.94,-0.43 5.9,-0.84 8.89,-0.86 9.73,0.03 19.46,0.11 29.19,0.03 -0.21,-6.13 -1.22,-12.25 -3.04,-18.1 -0.16,-5.01 -1.26,-9.9 -2.23,-14.8 -5.94,-0.75 -11.93,-0.28 -17.9,-0.38 -9.01,0.07 -18.02,-0.14 -27.02,0.06 -5.57,0.08 -11.07,2.67 -14.39,7.19 M 572.43,210.47 c -26.02,15.31 -53.46,28.06 -81.32,39.66 -44.52,18.97 -90.59,34.92 -132.54,59.4 -4.27,2.67 -9.04,4.68 -12.59,8.36 9.29,-3.11 18.03,-8.37 28.06,-8.87 -2.05,1.68 -4.2,3.21 -6.4,4.66 -42.7,28.62 -74.5,73.38 -86.57,123.44 -1.91,6.74 -2.61,13.73 -3.58,20.65 -0.51,4.28 -5.13,5.67 -8.5,7.16 -6.05,2.66 -12.67,6.67 -14.44,13.51 -1.07,5.98 1.32,11.89 3.65,17.29 2.05,4.24 4.04,8.58 7.05,12.25 4.89,-0.56 9.78,-1.9 14.73,-1.15 7.51,0.98 14.76,3.44 21.62,6.6 2.06,0.98 4.26,1.57 6.5,1.97 0.52,-6 -0.38,-12.15 1.33,-18.01 1.79,-6.48 4.56,-12.85 9.04,-17.94 5.79,-6.6 13.54,-11.48 22.02,-13.8 2.62,-0.87 5.82,-1.21 7.4,-3.79 8.77,-12.83 13.77,-27.83 17.27,-42.86 2.21,-7.38 3.17,-15.06 5.26,-22.48 2.11,-7.59 3.61,-15.37 6.36,-22.78 4.11,-11.1 9.27,-21.96 16.61,-31.32 8.11,-10.6 18.59,-19.23 30.01,-26.06 4.36,-2.55 8.67,-5.32 13.57,-6.72 -1.65,4.6 -4.22,8.78 -5.94,13.35 -2.79,6.63 -4.05,13.91 -3.14,21.08 1.72,-0.97 3.42,-1.97 5.02,-3.15 16.74,-12.88 37.89,-20.49 59.12,-19.63 26.78,0.34 52.9,11.19 73.17,28.49 21.86,18.25 38.02,42.47 49.81,68.21 3.38,7.12 6.18,14.49 9.16,21.79 0.6,1.55 1.38,3.04 2.52,4.28 1.91,-4.6 1.73,-9.84 4.02,-14.29 3.29,7.7 4.8,16 6.55,24.15 1.81,7.96 2.55,16.11 3.26,24.24 0.33,5.63 -0.02,11.3 0.65,16.92 4.36,-6.82 7.12,-14.51 9.76,-22.13 0.49,-1.38 1.19,-2.67 1.92,-3.93 2.1,10.82 1.98,21.9 1.74,32.88 -0.49,10.92 -1.35,21.85 -3.3,32.62 -1.27,6.21 -2.55,12.43 -3.11,18.76 4.32,-3.67 6.73,-8.94 9.16,-13.93 2.89,-5.98 4.45,-12.49 7.34,-18.46 0.66,6.69 2.24,13.31 2.03,20.07 0.05,14.62 -0.34,29.3 -2.28,43.81 -1.23,6.84 -1.68,13.79 -3.18,20.59 -3.96,20.42 -8.84,40.94 -18.07,59.7 -1.55,2.84 -2.8,6.1 -5.62,7.95 -2.9,-11.87 -6.37,-23.93 -13.47,-34.05 -1.95,-2.66 -3.85,-5.56 -6.82,-7.19 -6.57,17.82 -15.08,34.96 -25.81,50.65 -9.48,14.53 -20.93,27.63 -32.9,40.13 -23.97,24.37 -51.59,45.21 -81.94,60.98 -3.86,2.06 -8.03,3.58 -11.56,6.22 5.17,-0.37 10.29,-1.18 15.38,-2.16 7.88,-1.58 15.84,-2.78 23.69,-4.52 26.08,-5.92 51.32,-15.44 74.9,-28.03 26.35,-14.38 50.81,-32.83 70.03,-56.03 17.52,-20.69 30.54,-45 39.12,-70.67 2.21,-7.53 4.25,-15.13 6.16,-22.75 1.22,-4.53 0.99,-9.5 3.25,-13.7 2.12,5.02 3.4,10.32 5.19,15.46 3.26,9.44 5.8,19.1 8.09,28.82 1.18,4.7 1.82,9.53 3.34,14.15 1.99,-3.36 2.5,-7.27 3.19,-11.04 1.54,-8.69 3.89,-17.23 5.03,-25.99 1.49,-10.78 4.03,-21.43 4.62,-32.32 1.12,-13.3 2.57,-26.61 2.3,-39.97 0.01,-11.09 -0.02,-22.26 -1.81,-33.23 -0.74,-5.24 -0.82,-10.65 -2.75,-15.64 -1.93,-5.2 -6.02,-9.39 -10.86,-11.98 -40.04,-21.63 -75.33,-52.91 -99.25,-91.83 -7.93,-13.11 -14.27,-27.15 -19.41,-41.58 -5.43,-16.68 -9.63,-33.78 -12.02,-51.17 -4.28,-22.25 -5.29,-45 -4.87,-67.61 0.22,-7.09 1.58,-14.08 1.83,-21.16 -2.72,0.93 -5.33,2.17 -7.78,3.67 m -87.02,9.07 c -6.93,0.97 -13.69,3.07 -20.7,3.42 -4.19,-0.88 -8.34,0.56 -12.45,1.25 -17.43,3.17 -34.78,6.77 -52.22,9.84 -2.14,0.4 -4.34,0.95 -5.95,2.5 -5.75,1.48 -11.6,2.54 -17.38,3.88 -7.81,1.79 -15.82,2.53 -23.61,4.45 -11.02,2 -22.06,3.91 -32.97,6.46 -5.94,0.79 -11.83,1.93 -17.71,3.05 -18.44,3.72 -37.02,6.78 -55.4,10.8 -7.05,0.62 -13.93,2.37 -20.84,3.8 -14.75,2.61 -29.4,5.74 -44.15,8.27 -0.75,5.24 0.13,10.51 0.15,15.77 0.24,4.89 -0.08,9.9 1.2,14.68 -0.68,4.8 -0.24,9.65 0.39,14.44 3.85,39.02 11.35,77.72 22.97,115.2 1.46,4.44 2.55,9.04 4.58,13.28 0.46,2.03 1.12,4.05 2.54,5.63 0.31,-1.07 0.61,-2.13 0.9,-3.19 2.83,-2.95 5.61,-5.94 8.22,-9.09 3.58,-4.42 8.85,-7.16 12.12,-11.86 1.65,-2.74 2.13,-5.97 3.01,-9 1.21,-5.06 3.23,-9.87 4.46,-14.92 3.11,-9.34 7.09,-18.36 11.5,-27.15 2.28,-4.59 5.08,-8.92 7.2,-13.6 2.73,-3.43 4.84,-7.28 7.39,-10.83 4.82,-6.77 9.88,-13.38 15.54,-19.47 1.04,-1.4 2.7,-2.73 2.66,-4.62 5.15,-1.55 7.96,-6.48 11.83,-9.83 10.46,-9.5 21.98,-17.72 33.09,-26.43 21.17,-13.05 43.2,-24.77 66.16,-34.34 5.24,0.28 9.73,-2.71 14.4,-4.58 15.82,-6.56 31.61,-13.21 47.56,-19.45 1.69,-0.72 4.04,-1.7 3.76,-3.95 4.84,-1.26 9.27,-3.61 13.91,-5.42 6.11,-2.45 12.1,-5.19 18.2,-7.69 2.3,-0.99 4.8,-1.85 6.47,-3.83 -5.7,0.16 -11.21,1.8 -16.83,2.53 M 604.99,237 c -0.74,5.64 -0.22,11.33 0.03,16.99 0.39,13.04 1.57,26.08 3.85,38.93 1.46,8.26 2.24,16.65 4.34,24.79 5.07,23.33 14.2,46.06 28.39,65.36 1.42,2.3 2.96,4.53 4.72,6.61 4.6,5.51 8.99,11.22 14,16.38 2.56,3.59 5.83,6.58 8.94,9.68 14.2,13.75 29.92,25.88 46.66,36.37 1.58,0.98 3.27,1.79 4.97,2.57 6.13,3.31 12.31,6.56 18.32,10.11 2.39,1.49 4.93,3.11 6.27,5.71 1.15,2.19 1.98,4.53 2.92,6.83 -1.19,1.21 -0.36,3.07 -0.21,4.53 4.23,18.08 6.29,36.64 6.17,55.21 0.93,-1.32 1.85,-2.64 2.61,-4.05 14.2,-28.12 26.28,-57.33 35.8,-87.37 2.04,-6.3 4.32,-12.54 5.81,-19 1.57,-1.84 1.76,-4.41 2.47,-6.64 3.45,-12.78 6.68,-25.62 9.32,-38.6 1.04,-5.43 2.54,-10.82 2.67,-16.39 0.24,-10.48 2.98,-20.69 3.99,-31.09 0.52,-5.99 1.58,-11.92 2.03,-17.91 0.31,-8.4 1.42,-16.75 1.61,-25.15 0.04,-1.75 -0.5,-3.43 -0.95,-5.1 1.56,-2.23 1.49,-5.02 1.27,-7.62 -6.85,-1.07 -13.57,-2.87 -20.44,-3.86 -6.05,-0.88 -11.95,-2.54 -17.95,-3.67 -12.91,-1.99 -25.62,-5.02 -38.53,-7.03 -2.84,-0.86 -5.73,-1.57 -8.65,-2.09 -14.28,-2.69 -28.55,-5.46 -42.84,-8.11 -5.86,-1.06 -11.68,-2.95 -17.7,-2.44 l 0.17,-0.81 c -7.97,-1.81 -16.11,-2.65 -24.09,-4.39 -6.28,-1.43 -12.68,-2.27 -18.95,-3.73 -6.2,-1.42 -12.57,-1.95 -18.74,-3.52 -2.73,-0.69 -5.5,-1.17 -8.28,-1.5 M 290.85,362.67 c 5.95,-3.62 12.65,-6.17 17.72,-11.08 5,-4.69 9.86,-9.55 15.33,-13.71 2.42,-1.82 4.81,-3.7 7.02,-5.78 -16.12,5.56 -30.67,16.26 -40.07,30.57 m 106.81,7.97 c -2.39,8.55 -2.04,17.52 -2.02,26.31 -0.01,3.84 0.2,7.72 1.43,11.38 3.11,-3.92 4.82,-8.67 7.28,-12.99 1.4,-2.74 3.19,-5.37 3.85,-8.42 0.37,-3.3 -0.14,-6.61 -0.2,-9.91 -0.7,-15.32 4.3,-30.25 10.9,-43.86 -10.96,9.7 -17.71,23.45 -21.24,37.49 m -110.02,6.97 c -12.08,13.76 -21.47,30.05 -26.42,47.73 -1.48,4.25 -1.87,8.9 -4,12.91 -2.76,3.69 -7.34,5.28 -10.75,8.25 -8.98,7.18 -13.69,19.85 -10.08,31 1.49,4.26 2.98,8.87 6.55,11.9 0.48,-6.57 -0.7,-13.42 1.74,-19.71 2.47,-7.16 8.22,-12.97 15.22,-15.76 2,-0.95 4.27,-1.53 5.92,-3.07 1.12,-2.08 0.93,-4.59 1.33,-6.86 3.1,-23.17 11.24,-45.59 23.38,-65.54 1.51,-2.47 2.94,-4.99 4.17,-7.61 -2.66,1.91 -4.97,4.24 -7.06,6.76 m 206.44,-3.59 c -11.64,3.29 -21.57,10.66 -30.43,18.65 -2.23,2.11 -4.76,4.06 -6.22,6.82 -0.89,2.84 1.09,5.45 2.17,7.93 2.82,5.25 3.83,11.18 5.15,16.92 1.62,7.16 1.13,14.53 1.31,21.81 3.91,-1.62 7.7,-3.69 11.94,-4.35 5.95,-1.2 12.07,-0.6 18,0.45 -4.37,2.89 -9.07,5.29 -13.13,8.62 -18.96,15.29 -33.87,34.83 -52.11,50.9 -11.4,10.31 -24.4,19.23 -39.1,24.04 -13.96,5.08 -29.23,5.59 -43.77,3.08 -3.47,-0.7 -7.04,-0.24 -10.23,1.28 1.42,2.26 4.2,2.73 6.44,3.82 13.93,6.25 28.66,11.15 43.92,12.59 9.12,0.34 18.4,0.67 27.37,-1.39 19.9,-4.05 37.94,-14.53 53.45,-27.37 5.66,-4.62 10.83,-9.79 16.13,-14.82 0.42,6.73 -1.54,13.28 -4.67,19.16 -2.1,4.79 -5.79,8.54 -8.72,12.79 1.54,5.16 4.07,10.05 4.79,15.44 1.14,8.18 0.42,16.46 0.33,24.68 0.03,5.67 -1.51,11.19 -1.55,16.86 -0.12,6.73 -1.14,13.4 -1.71,20.1 -0.33,10.49 -0.62,21.02 0.2,31.5 1.84,16.77 7.6,33.41 18.1,46.75 1.31,1.7 2.37,3.58 3.33,5.51 -5.4,0.31 -10.6,-1.42 -15.97,-1.58 -8.85,-0.3 -17.81,-0.36 -26.5,1.57 -15.14,2.97 -29.33,10.65 -40.09,21.7 -3.48,3.24 -2.19,8.34 -2.28,12.55 0.54,16.66 -3.22,33.43 -11,48.18 -3.42,6.31 -7.79,12.02 -12.04,17.79 13.62,-6.07 27.4,-11.9 40.26,-19.51 39.02,-21.07 74.57,-48.85 103.5,-82.54 13.96,-16.27 26.65,-33.83 35.95,-53.21 6.99,-13.28 12.35,-27.42 15.89,-42 3.46,-12.26 4.25,-25.17 3.13,-37.83 -0.34,-4.13 -1.27,-8.18 -2.59,-12.09 -1.63,-4.8 -3.23,-9.73 -6.32,-13.82 -4.57,-6.17 -10.74,-11.46 -18.13,-13.85 -6.02,-2.27 -12.59,-2.23 -18.92,-1.75 -5.72,0.51 -11.14,2.56 -16.78,3.54 1.1,-3.03 2.53,-5.92 3.91,-8.82 9.1,-20.49 16.58,-41.93 19.41,-64.25 1.29,-16.16 1.82,-33.01 -4.04,-48.41 -4.32,-12.24 -13.29,-23.73 -26,-27.83 -7.27,-2.07 -15.18,-1.88 -22.38,0.39 m 79.97,7.15 c 1.98,3.88 4.36,7.55 6.43,11.4 6.87,13.02 12.71,26.6 17.37,40.58 3.35,9.77 5.42,19.91 7.9,29.92 2.88,14.82 4.87,29.81 5.86,44.88 0.46,13.7 0.97,27.41 0.6,41.13 2.9,-5.39 4.97,-11.18 7.03,-16.93 1.82,-5.5 3.92,-10.93 5.25,-16.57 1.73,-7.44 3.7,-14.86 4.21,-22.5 0.4,-6.39 0.71,-12.81 0.18,-19.2 -2.05,2.66 -3.63,5.72 -6.1,8.04 -0.39,-0.04 -1.17,-0.13 -1.56,-0.17 -2.01,-6.9 -2.7,-14.13 -4.86,-21 -6.28,-23.87 -17.23,-46.46 -31.62,-66.49 -3.32,-4.55 -6.35,-9.43 -10.69,-13.09 m -189.6,17.38 c -1.31,24.11 -8.34,47.62 -18.3,69.52 -1.35,2.73 -2.85,5.92 -5.91,7.03 -3.57,1 -7.37,1 -10.84,2.38 -4.54,1.73 -8.81,4.26 -12.44,7.51 -7.09,6.25 -10.88,15.79 -10.88,25.16 3.12,-2.61 5.24,-6.14 8.21,-8.89 5.76,-5.47 13.06,-9.12 20.68,-11.19 4.04,-1.13 8.29,-0.98 12.37,-1.89 2.18,-0.46 3.71,-2.27 4.59,-4.21 1.92,-4.04 3.17,-8.35 4.62,-12.57 8.35,-23.43 11.03,-48.69 9.19,-73.43 -0.32,0.15 -0.97,0.44 -1.29,0.58 m 57.92,16.58 c -7.55,2.81 -13.84,8.86 -17.06,16.22 -0.84,2.09 -1.95,4.64 -0.49,6.74 2.2,3.74 5.2,6.94 7.44,10.67 3.83,6.35 7.01,13.11 9.36,20.15 2.76,-1.55 3.62,-4.84 4.9,-7.51 6.1,-14.06 5.72,-30.58 -0.22,-44.62 -0.49,-1.69 -2.39,-2.55 -3.93,-1.65 m -30.14,30.69 c -1.6,2.25 -4.53,4.61 -3.73,7.69 1.51,2.03 3.46,3.8 5.78,4.86 -1.61,0.66 -3.36,1.09 -4.75,2.18 -1.76,2.16 -2.27,5.35 -1.14,7.92 1.51,3.64 6.61,5.02 9.85,2.86 1.35,-1.04 2.31,-2.49 3.4,-3.78 0.45,1.66 1.45,3.1 2.26,4.61 1.94,3.34 3.1,7.05 4.4,10.68 1.43,-0.84 3.08,-1.97 3.04,-3.84 0.22,-5.41 -1.57,-10.67 -3.73,-15.55 -2.63,-5.97 -6.58,-11.34 -11.49,-15.61 -1.09,-1.03 -2.52,-1.53 -3.89,-2.02 m -8.73,31.66 c -2.65,1.19 -2.55,4.6 -2.01,7 1.64,3.67 7.4,3.42 9.36,0.18 0.76,-1.88 0.75,-4.27 -0.62,-5.86 -1.65,-1.85 -4.51,-2.21 -6.73,-1.32 m -177.32,47.5 c -0.49,4.98 1.45,9.72 3.98,13.9 3.25,-3.66 6.11,-7.67 9.66,-11.06 1.88,-1.8 3.72,-3.65 5.3,-5.73 -3.81,-4.68 -8.14,-8.9 -12.4,-13.17 -4.09,4.25 -6.06,10.27 -6.54,16.06 m 42.45,-1.31 c -8.03,5.04 -15.34,11.24 -21.67,18.29 -1.32,1.4 -2.22,3.12 -2.99,4.87 4.7,-0.2 9.36,-1.07 14.08,-0.86 6.31,0.26 12.63,1.34 18.57,3.53 12.74,4.65 24.34,11.83 35.59,19.29 2.8,1.77 5.58,3.58 8.05,5.81 -6.43,-1.93 -12.44,-4.98 -18.8,-7.08 -8.85,-3.18 -17.96,-5.5 -27.07,-7.75 -6.33,-1.56 -12.89,-1.89 -19.39,-1.88 -4.91,0.08 -10.03,0.41 -14.48,2.71 -3.41,1.71 -6.05,4.59 -8.23,7.67 -8.41,12.05 -16.05,24.71 -21.72,38.3 -3.75,8.05 -5.59,16.77 -7.41,25.4 -1.21,5.95 -0.79,12.06 -0.87,18.09 -0.05,8.62 2.08,17.06 4.51,25.27 3.52,12.12 9.47,23.34 15.53,34.34 0.96,1.78 2.25,3.35 3.6,4.86 1.4,-1.84 2.74,-3.73 3.99,-5.67 12.74,-19.7 31.19,-35.57 52.4,-45.53 5.5,-2.55 10.89,-5.34 16.56,-7.48 6.8,-2.59 13.32,-6.31 18.26,-11.72 4.14,-4.62 7.26,-10.02 11.12,-14.86 10.24,-13.88 22.11,-26.83 36.57,-36.4 13.03,-8.48 27.69,-14.78 43.17,-16.91 4.97,-0.66 9.9,-1.79 14.94,-1.67 7.7,0.18 15.5,-0.52 23.08,1.15 -3.37,4.41 -9.02,7.18 -10.7,12.79 0.17,3.67 1.92,7.03 2.77,10.57 3.58,13.75 4.94,28.03 4.58,42.21 -0.19,5 0.51,10.29 -1.59,14.99 -8.34,-3.48 -16.63,-7.27 -25.45,-9.36 -9.43,-1.83 -18.99,-3.38 -28.63,-3.05 -13.82,-0.28 -27.67,1.51 -40.91,5.51 -9.97,2.64 -19.35,7.28 -27.67,13.35 -7.14,5.17 -15.5,8.13 -23.59,11.43 -12.71,5.66 -25.31,12.59 -34.72,23.05 4.73,-1.66 9.19,-3.95 13.8,-5.88 13.94,-5.47 27.73,-11.36 41.98,-15.99 12.96,-3.96 25.96,-7.88 39.36,-10.03 15.29,-3.57 31.08,-3.68 46.69,-3.3 7.09,0.26 14.14,1.2 21.06,2.74 -1.27,1.77 -3.38,2.51 -5.27,3.42 -4.31,1.94 -8.37,4.45 -12.91,5.85 -3.29,1 -6.61,1.91 -9.77,3.28 1.14,2.42 2.45,4.76 3.81,7.08 3.2,5.54 5.14,11.66 7.43,17.6 4.06,-2.75 7.86,-5.85 12.09,-8.34 14.57,-8.98 31.57,-13.62 48.57,-14.72 -2.82,-8.76 -6.36,-17.4 -7.13,-26.66 -2.17,-11.54 -1.94,-23.33 -1.62,-35.01 0.03,-18.06 4,-35.88 3.51,-53.96 0.32,-6.06 -0.51,-12.07 -2.15,-17.89 -3.53,-1.22 -6.55,1.5 -9.53,2.94 -15.66,8.26 -33.2,13.72 -51.03,13.34 -12.54,0.26 -25.22,-1.15 -37.16,-5.09 -18.11,-5.34 -35.11,-13.71 -51.88,-22.26 -8.61,-4.18 -17.1,-8.83 -26.35,-11.45 -4.9,-1.17 -10.55,-1.92 -14.98,1.07 m 142.36,66.3 c -7.61,1.69 -15.32,3.31 -22.43,6.64 -16.14,6.87 -29.83,18.52 -40.95,31.94 -1.14,1.4 -1.99,2.99 -2.81,4.6 8.77,-1.62 17.47,-3.76 26.36,-4.61 14.43,-0.91 29.07,-0.91 43.25,2.25 4.26,0.87 8.4,2.4 12.78,2.6 0.07,-4.74 -0.12,-9.48 -0.69,-14.17 -0.13,-2.42 -2.75,-3.33 -4.7,-3.87 -10.1,-2.46 -20.58,-1.8 -30.87,-1.61 5.98,-3.08 12.37,-5.26 18.78,-7.25 4.14,-1.34 8.53,-1.3 12.78,-2.06 0.38,-1.74 1,-3.54 0.4,-5.29 -1.03,-3.39 -2.04,-7.01 -4.34,-9.77 -2.53,-0.36 -5.08,0.11 -7.56,0.6 m 103.37,213.26 c -1.44,0.47 -3.23,0.54 -4.26,1.78 -5.21,-0.02 -10.16,1.73 -15.23,2.65 -3.93,0.73 -7.89,1.37 -11.71,2.58 3.88,3.56 8.36,6.42 12.84,9.16 3.19,-2.59 6.07,-5.53 9.01,-8.4 1.5,1.51 2.75,3.75 4.98,4.2 3.14,-1.42 5.75,-3.72 8.55,-5.68 4.89,-3.67 10.1,-6.98 14.41,-11.36 -6.16,1.85 -12.31,3.72 -18.59,5.07 z"
       id="path220"
       inkscape:connector-curvature="0"
       style="opacity:1;fill:#0f1723" />
    <path
       d="m 199.91,108.1 c 5.49,-0.21 10.99,0.01 16.48,-0.42 0.62,3.06 1.08,6.16 1.03,9.29 -0.11,9.01 -0.16,18.03 0.01,27.04 0.08,3.34 -0.4,6.66 -1.05,9.93 -5.42,0.61 -10.87,0.46 -16.3,0.29 -0.68,-8.39 -0.33,-16.82 -0.39,-25.23 0.06,-6.97 -0.26,-13.94 0.22,-20.9 z"
       id="path222"
       inkscape:connector-curvature="0"
       style="opacity:1;fill:#0f1723" />
    <path
       d="m 631.4,143.76 c 2.13,5.13 3.32,10.56 4.66,15.93 -3.01,0.01 -6,0.03 -9,0.08 1.17,-5.41 2.7,-10.73 4.34,-16.01 z"
       id="path224"
       inkscape:connector-curvature="0"
       style="opacity:1;fill:#0f1723" />
    <path
       d="m 200.01,182.12 c 4.71,-0.14 9.42,-0.38 14.14,-0.3 1.05,0.23 1.9,0.79 2.54,1.68 0.86,3.08 0.68,6.33 0.72,9.5 -0.21,9.34 0.16,18.69 -0.31,28.02 -5.67,1.07 -11.38,1.96 -17.09,2.82 -0.22,-13.9 -0.35,-27.82 0,-41.72 z"
       id="path226"
       inkscape:connector-curvature="0"
       style="opacity:1;fill:#0f1723" />
    <path
       d="m 323.99,385.01 c 3.08,-3.86 5.98,-7.91 9.72,-11.17 -1.58,3.28 -3.47,6.4 -5.22,9.6 -10.5,19.56 -19,40.31 -23.93,62 -0.87,4.46 -2.05,8.95 -1.66,13.54 4.83,-0.35 9.5,-1.85 14.36,-1.92 -0.78,1.24 -1.58,2.51 -2.73,3.46 -4.99,4.3 -10.93,7.92 -17.57,8.75 -3.26,0.47 -6.9,-0.7 -8.7,-3.58 -2.65,-4.05 -2.02,-9.16 -1.94,-13.75 1.99,0.97 3.92,2.06 5.8,3.23 1.79,-6.8 3.1,-13.72 5.57,-20.32 5.72,-18.01 14.91,-34.81 26.3,-49.84 z"
       id="path228"
       inkscape:connector-curvature="0"
       style="opacity:1;fill:#0f1723" />
    <path
       d="m 299.32,547.75 c -0.72,-1.92 0.71,-3.88 2.73,-3.96 6.3,-0.49 12.6,1.6 18,4.77 -2.36,0.46 -4.78,0.74 -7.05,1.57 -2.76,1.01 -4.43,3.59 -6.17,5.81 -2.91,-2.28 -6.05,-4.69 -7.51,-8.19 z"
       id="path230"
       inkscape:connector-curvature="0"
       style="opacity:1;fill:#0f1723" />
  </g>
  <g
     id="#ffffffff"
     transform="matrix(0.04804516,0,0,0.04804516,-0.04516148,2.9502996)">
    <path
       d="m 118.99,58.02 c 6.53,0.23 13.06,-0.22 19.5,-1.3 4.07,1.24 8.31,1.93 12.58,1.7 -0.66,6.71 -0.21,13.45 -0.43,20.18 C 141.12,77.65 131.55,78.07 122,78 105.67,77.97 89.33,78.1 73,77.84 63.97,77.93 54.93,77.63 45.89,78 c 5.78,9.4 12.96,17.85 19.09,27.01 1.61,2.1 2.89,4.68 5.25,6.02 3.55,0.66 7.19,0.33 10.78,0.38 23.64,-0.05 47.27,0.03 70.91,-0.06 0.69,4.42 0.7,8.92 0.09,13.35 -17.33,0.03 -34.67,-0.03 -52.01,0 -6.72,0.04 -13.44,-0.21 -20.14,0.2 1.62,2.74 3.35,5.4 5.26,7.95 5.71,7.65 11.28,15.42 16.75,23.24 1.12,1.54 2.21,3.13 3.65,4.38 4.39,1.09 9,0.42 13.48,0.54 11.03,0.06 22.06,-0.17 33.08,0.08 0.4,4.6 0.4,9.22 0,13.82 -12.05,0.35 -24.12,-0.18 -36.18,0.2 3.2,5.33 7.25,10.07 10.79,15.17 6.63,9.05 13.02,18.28 19.79,27.21 1.39,1.93 2.95,3.81 3.75,6.08 0.61,2.41 0.46,4.92 0.49,7.39 -0.12,6.26 0.07,12.52 -0.27,18.77 -0.62,4.76 -0.72,9.57 -0.75,14.37 -1.96,-2 -3.82,-4.11 -5.35,-6.46 -3.87,-6.02 -8.45,-11.53 -12.44,-17.47 C 91.78,184.6 51.75,128.94 11.65,73.34 8.12,68.23 4.3,63.32 0.94,58.08 40.29,57.9 79.64,58.03 118.99,58.02 Z"
       id="path233"
       inkscape:connector-curvature="0"
       style="opacity:1;fill:#ffffff" />
    <path
       d="m 854.32,56.76 c 5.18,0.88 10.43,1.41 15.69,1.41 36.33,-0.04 72.66,-0.01 108.99,-0.02 7,-0.03 14.01,0.19 21,-0.4 v 0.71 c -3.08,2.82 -5.65,6.13 -7.96,9.59 -38.57,53.43 -77.08,106.91 -115.55,160.42 -2.98,3.78 -5.86,7.69 -7.88,12.08 -5.8,5.4 -9.24,12.68 -14.41,18.61 -2.44,3.14 -2.37,7.32 -2.75,11.09 -0.12,-16.77 -0.8,-33.54 -0.33,-50.31 0.02,-5.46 4.38,-9.34 7.2,-13.57 7.24,-10.38 15.43,-20.06 22.61,-30.48 -9.6,-0.49 -19.22,-0.01 -28.83,-0.18 -0.45,-4.45 -0.45,-8.95 0.04,-13.4 8.62,-0.02 17.24,0.07 25.86,0.04 4.25,-0.06 8.55,0.42 12.77,-0.31 2.12,-1.28 3.46,-3.46 4.95,-5.37 7.49,-10.49 15.85,-20.32 23.25,-30.87 -6.32,-0.38 -12.65,-0.17 -18.97,-0.19 -15.94,0 -31.89,-0.03 -47.83,0.05 -0.5,-4.48 -0.52,-8.99 -0.13,-13.47 21.32,-0.1 42.64,0 63.96,-0.03 4.52,-0.1 9.13,0.5 13.6,-0.45 2.24,-1.84 3.77,-4.36 5.51,-6.65 6.24,-8.59 13.2,-16.63 19.26,-25.34 -3.78,-0.49 -7.58,-0.52 -11.37,-0.41 -30.28,0.56 -60.56,0.2 -90.83,0.41 -0.41,-7.19 -0.03,-14.39 -0.29,-21.59 0.61,-0.34 1.83,-1.03 2.44,-1.37 z"
       id="path235"
       inkscape:connector-curvature="0"
       style="opacity:1;fill:#ffffff" />
    <path
       d="m 170.5,76.62 c 4.49,-0.45 9,-0.18 13.5,-0.22 13.68,-0.03 27.36,0.03 41.05,-0.04 4.1,0.03 8.35,0.04 12.23,1.58 3.51,1.59 5.89,4.88 7.68,8.18 2.28,4.24 2.26,9.21 2.35,13.9 -0.01,14.98 -0.01,29.97 0,44.96 -0.09,4.93 -0.11,10.18 -2.68,14.56 -1.55,2.98 -4.69,4.49 -7.52,5.98 1.95,0.46 4.02,0.66 5.79,1.66 4.04,3.38 5.82,8.77 5.78,13.92 0.05,12.3 0.03,24.6 -0.01,36.91 -0.25,5.13 -0.06,10.56 -2.38,15.28 -4.52,-1.7 -9.13,-3.19 -13.49,-5.3 0.83,-14.31 0.45,-28.65 0.56,-42.97 -0.07,-3.88 0.08,-7.83 -0.91,-11.61 -0.57,-2.41 -2.77,-4.08 -5.1,-4.6 -3.39,-0.74 -6.89,-0.55 -10.33,-0.62 -10.73,-0.15 -21.46,0.48 -32.18,-0.19 4.75,-4.95 10.69,-8.59 15.24,-13.77 5.43,0.17 10.88,0.32 16.3,-0.29 5.38,3.91 8.41,10.08 13.55,14.24 2.45,-3.19 3.43,-7.16 3.36,-11.14 0.14,-16.34 -0.02,-32.68 0.06,-49.03 -0.06,-3.87 0.05,-7.81 -0.87,-11.6 -0.52,-2.08 -1.85,-4.15 -3.96,-4.85 -2.44,-0.78 -5.02,-0.83 -7.55,-0.97 -10.33,-0.34 -20.67,-0.32 -31.01,-0.16 -2.62,-0.14 -5.68,0.32 -7.81,-1.57 -4.34,-3.63 -7.91,-8.03 -11.65,-12.24 z"
       id="path237"
       inkscape:connector-curvature="0"
       style="opacity:1;fill:#ffffff" />
    <path
       d="m 429.51,76.63 c 3.82,-0.35 7.66,-0.28 11.49,-0.24 15.58,0.02 31.17,-0.01 46.75,-0.01 0.98,5.87 2.19,11.69 3.06,17.58 -14.99,0.2 -29.98,-0.22 -44.96,0.25 l -0.55,-0.57 c -5,-5.92 -10.87,-11.02 -15.79,-17.01 z"
       id="path239"
       inkscape:connector-curvature="0"
       style="opacity:1;fill:#ffffff" />
    <path
       d="m 521.15,76.37 c 19.57,-0.1 39.14,0.06 58.71,-0.08 0.57,5.89 0.23,11.81 0.29,17.71 -0.01,25.02 0.05,50.04 -0.02,75.06 0.26,2.22 -1.52,3.7 -3.06,4.95 -4.27,3.35 -8.64,6.59 -13.29,9.4 -0.61,-5.78 -0.49,-11.61 -0.43,-17.41 0.02,-14.35 -0.04,-28.7 -0.01,-43.04 0.21,-9.63 0.46,-19.25 0.36,-28.87 -2.9,-0.17 -5.79,-0.28 -8.68,-0.21 -12.3,0.33 -24.6,-0.09 -36.89,0.23 0.72,-5.95 1.54,-11.92 3.02,-17.74 z"
       id="path241"
       inkscape:connector-curvature="0"
       style="opacity:1;fill:#ffffff" />
    <path
       d="m 616.66,76.62 c 10.35,-0.49 20.73,-0.13 31.09,-0.23 3.78,16.82 6.5,33.84 9.87,50.74 5.2,27.97 10.43,55.93 15.56,83.92 0.58,2.77 1,5.57 1.23,8.4 -1.45,-0.08 -2.88,-0.24 -4.29,-0.49 -3.6,-3.08 -6.99,-6.41 -10.19,-9.9 -2.74,-2.77 -2.94,-6.84 -3.44,-10.48 -0.76,-6.68 -2.13,-13.26 -3.07,-19.91 -1.09,-7.75 -3.26,-15.29 -5.13,-22.88 -2.82,-10.91 -5.05,-21.96 -8.06,-32.82 -2.5,-10.09 -4.38,-20.36 -7.6,-30.26 -0.1,-0.37 -0.31,-1.12 -0.41,-1.49 -0.83,-3.88 -4.51,-5.85 -7.48,-7.97 -2.92,-1.92 -5.44,-4.37 -8.08,-6.63 z"
       id="path243"
       inkscape:connector-curvature="0"
       style="opacity:1;fill:#ffffff" />
    <path
       d="m 664.94,76.34 c 10.86,0.15 21.73,-0.05 32.59,0.02 2.48,16.91 4.96,33.83 8.2,50.61 1.78,9.65 2.85,19.41 4.36,29.1 1.97,11.45 5.17,22.63 7.37,34.03 2.43,-8.1 3.81,-16.48 5.71,-24.71 2.32,-13.61 6.32,-26.86 8.76,-40.45 1.32,-6.42 2.77,-12.82 4.12,-19.24 0.68,-3.44 2.02,-6.83 1.82,-10.38 -0.63,-1.92 -1.91,-3.52 -3.11,-5.1 -3.43,-4.27 -7.05,-8.44 -9.64,-13.29 l -0.32,-0.58 c 10.72,-0.02 21.44,-0.02 32.17,0 -1.54,10.7 -4.71,21.09 -6.86,31.68 -7.56,32.26 -14.74,64.61 -22.2,96.89 -1.36,8.02 0.07,16.17 -0.8,24.23 -4.43,-2.55 -8.47,-5.7 -12.69,-8.58 -1.57,-1.15 -3.22,-2.27 -4.37,-3.87 -0.68,-3.21 -0.29,-6.52 -0.43,-9.77 -0.09,-5.95 -2.05,-11.62 -3.29,-17.38 -3.28,-12.8 -6.02,-25.73 -9.19,-38.57 -3.35,-16.04 -7.68,-31.86 -11.02,-47.9 -0.74,-3.31 -1.31,-6.91 -3.76,-9.45 -5.2,-5.43 -10.58,-10.69 -16.06,-15.83 -0.34,-0.37 -1.02,-1.1 -1.36,-1.46 z"
       id="path245"
       inkscape:connector-curvature="0"
       style="opacity:1;fill:#ffffff" />
    <path
       d="m 264.66,77.12 c 5.4,-0.94 10.89,-0.42 16.34,-0.51 4.56,0.05 9.16,-0.38 13.67,0.44 -0.15,36.98 -0.03,73.97 -0.06,110.95 0.09,6.63 -0.26,13.28 0.21,19.9 10.2,-0.82 20.17,-3.29 30.37,-4.08 -0.89,5.64 -2.27,11.19 -3.52,16.76 -1.21,0.25 -2.42,0.5 -3.62,0.76 -2.45,-1.76 -4.7,-3.83 -7.35,-5.3 -3.58,-0.4 -7.12,0.64 -10.65,1.06 -7.07,0.89 -14.01,2.63 -21.12,3.13 -0.54,-7.06 -0.18,-14.15 -0.25,-21.23 0,-34.66 -0.02,-69.34 0.02,-104 0.18,-2.88 -1.92,-5.03 -3.79,-6.9 -3.68,-3.41 -7.15,-7.03 -10.25,-10.98 z"
       id="path247"
       inkscape:connector-curvature="0"
       style="opacity:1;fill:#ffffff" />
    <path
       d="m 334.75,76.99 c 5.39,-0.72 10.83,-0.31 16.25,-0.37 5.24,0.08 10.51,-0.37 15.73,0.32 -0.08,37.69 0.01,75.38 -0.06,113.07 0.05,2.03 0.24,4.04 0.45,6.06 5.5,0.64 10.91,-0.92 16.25,-2.02 5.84,0.71 11.33,3.06 16.67,5.42 -6.33,3.42 -13.73,3.05 -20.64,4.18 -6.16,0.68 -12.18,2.63 -18.41,2.58 -4.45,0.05 -8.6,-3.21 -9.68,-7.51 -1.05,-4.49 -0.63,-9.15 -0.67,-13.72 0.08,-29.03 -0.12,-58.05 0.1,-87.07 -0.04,-2.1 -0.1,-4.44 -1.71,-6.01 -4.35,-4.95 -9.65,-9.01 -13.72,-14.22 z"
       id="path249"
       inkscape:connector-curvature="0"
       style="opacity:1;fill:#ffffff" />
    <path
       d="m 385.65,77.13 c 4.07,-0.75 8.23,-0.57 12.35,-0.53 5.67,0.07 11.35,-0.21 17.02,0.21 0.28,5.73 0.11,11.46 0.14,17.19 0,30 -0.01,60 0.01,90 -0.23,6.45 0.26,13.31 -2.66,19.27 -3.8,-1.05 -7.56,-2.25 -11.24,-3.64 -0.47,-4.53 -0.5,-9.09 -0.39,-13.63 0.08,-28.36 -0.07,-56.72 0.09,-85.08 0.15,-2.97 -0.78,-5.88 -2.79,-8.08 -4.31,-5.13 -8.73,-10.17 -12.53,-15.71 z"
       id="path251"
       inkscape:connector-curvature="0"
       style="opacity:1;fill:#ffffff" />
    <path
       d="m 767.59,83.86 c 3.32,-4.52 8.82,-7.11 14.39,-7.19 9,-0.2 18.01,0.01 27.02,-0.06 5.97,0.1 11.96,-0.37 17.9,0.38 0.97,4.9 2.07,9.79 2.23,14.8 -13.06,-0.3 -26.12,0 -39.17,-0.21 -3.98,-0.26 -7.65,1.4 -11.01,3.33 -4.14,-3.31 -7.68,-7.26 -11.36,-11.05 z"
       id="path253"
       inkscape:connector-curvature="0"
       style="opacity:1;fill:#ffffff" />
    <path
       d="m 445.5,143.41 c 4.75,-5.2 9.34,-10.55 14.28,-15.57 8.42,0.55 16.85,-0.06 25.28,0.21 0.16,10.06 0.63,20.18 -0.42,30.2 -0.19,-4.65 -0.23,-9.31 -0.63,-13.95 -5.34,-0.09 -10.67,0.01 -16.01,0.04 -7.09,0.06 -14.23,-0.52 -21.25,0.68 -0.31,-0.4 -0.94,-1.21 -1.25,-1.61 z"
       id="path255"
       inkscape:connector-curvature="0"
       style="opacity:1;fill:#ffffff" />
    <path
       d="m 793.97,150.19 c 8.94,1.72 18.09,0.21 27.11,1.03 5.38,0.44 10.41,4.74 11.29,10.15 0.9,4.82 0.58,9.75 0.64,14.63 -0.09,17.36 0.14,34.73 -0.12,52.09 0,7.01 -2.47,14.1 -7.6,19.02 -2.44,-5.14 -6.16,-9.55 -8.53,-14.7 -0.17,-3.83 2.07,-7.47 1.93,-11.38 0.04,-12.69 -0.14,-25.37 0.05,-38.06 -0.01,-2.77 0.09,-5.58 -0.48,-8.31 -0.65,-3.16 -3.34,-5.88 -6.62,-6.12 -8.19,-0.85 -16.45,0.38 -24.64,-0.39 -1.96,-0.18 -3.74,-1.05 -5.44,-1.95 3.81,-5.59 8.46,-10.52 12.41,-16.01 z"
       id="path257"
       inkscape:connector-curvature="0"
       style="opacity:1;fill:#ffffff" />
    <path
       d="m 502.29,152.21 c 9.92,-0.13 19.85,-0.06 29.78,-0.04 0.42,7.33 0.36,14.68 0.07,22.02 -4.96,1.29 -9.68,3.33 -14.45,5.16 -1.1,-3.87 -0.59,-7.94 -1.25,-11.87 -0.74,-1.49 -1.95,-2.66 -3.07,-3.85 -3.29,-3.23 -6.34,-6.8 -10.4,-9.1 -0.68,6.9 0.13,13.85 -0.68,20.74 0.05,-7.69 -0.12,-15.37 0,-23.06 z"
       id="path259"
       inkscape:connector-curvature="0"
       style="opacity:1;fill:#ffffff" />
    <path
       d="m 627.06,159.77 c 3,-0.05 5.99,-0.07 9,-0.08 4.91,3.34 9.82,6.75 14,11 -11.74,0.01 -23.48,-0.11 -35.22,0.05 3.93,-3.82 8.08,-7.39 12.22,-10.97 z"
       id="path261"
       inkscape:connector-curvature="0"
       style="opacity:1;fill:#ffffff" />
    <path
       d="m 460.02,174.22 c 10.61,0.33 21.23,0 31.84,0.15 -0.39,3.28 -1.15,6.49 -2.03,9.67 -8.07,0.68 -16.09,1.89 -24.14,2.79 -6.58,0.73 -13.07,2.41 -19.73,2.16 4.63,-4.98 9.49,-9.74 14.06,-14.77 z"
       id="path263"
       inkscape:connector-curvature="0"
       style="opacity:1;fill:#ffffff" />
    <path
       d="m 200.01,223.84 c 5.71,-0.86 11.42,-1.75 17.09,-2.82 3.73,3.41 7.87,6.43 11.01,10.44 -13.55,1.78 -26.9,4.73 -40.35,7.09 0.25,-1.25 0.25,-2.65 1.19,-3.62 3.41,-3.96 7.44,-7.34 11.06,-11.09 z"
       id="path265"
       inkscape:connector-curvature="0"
       style="opacity:1;fill:#ffffff" />
  </g>
  <g
     id="#848484ff"
     transform="matrix(0.04804516,0,0,0.04804516,-0.04516148,2.9502996)">
    <path
       d="m 169.05,75.97 c 0.36,0.16 1.09,0.49 1.45,0.65 3.74,4.21 7.31,8.61 11.65,12.24 2.13,1.89 5.19,1.43 7.81,1.57 10.34,-0.16 20.68,-0.18 31.01,0.16 2.53,0.14 5.11,0.19 7.55,0.97 2.11,0.7 3.44,2.77 3.96,4.85 0.92,3.79 0.81,7.73 0.87,11.6 -0.08,16.35 0.08,32.69 -0.06,49.03 0.07,3.98 -0.91,7.95 -3.36,11.14 -5.14,-4.16 -8.17,-10.33 -13.55,-14.24 0.65,-3.27 1.13,-6.59 1.05,-9.93 -0.17,-9.01 -0.12,-18.03 -0.01,-27.04 0.05,-3.13 -0.41,-6.23 -1.03,-9.29 -4.73,-1.19 -9.6,-0.45 -14.4,-0.78 -1.57,-0.03 -3,-0.78 -4.14,-1.82 -4.84,-4.19 -8.48,-9.62 -13.68,-13.41 -0.45,5.43 -0.28,10.89 -0.26,16.33 -0.01,39 0.05,78 0.11,117 -0.03,4.7 -0.05,9.39 0.23,14.08 1.17,-0.17 2.34,-0.35 3.51,-0.53 13.45,-2.36 26.8,-5.31 40.35,-7.09 -3.14,-4.01 -7.28,-7.03 -11.01,-10.44 0.47,-9.33 0.1,-18.68 0.31,-28.02 -0.04,-3.17 0.14,-6.42 -0.72,-9.5 -0.64,-0.89 -1.49,-1.45 -2.54,-1.68 -4.35,-0.8 -8.78,-0.24 -13.15,-0.65 -2.1,-0.14 -3.69,-1.68 -5.24,-2.94 -3.72,-3.32 -7.48,-6.61 -10.92,-10.23 10.72,0.67 21.45,0.04 32.18,0.19 3.44,0.07 6.94,-0.12 10.33,0.62 2.33,0.52 4.53,2.19 5.1,4.6 0.99,3.78 0.84,7.73 0.91,11.61 -0.11,14.32 0.27,28.66 -0.56,42.97 4.36,2.11 8.97,3.6 13.49,5.3 -1.15,2.29 -3.91,2.31 -6.1,2.79 -4.65,0.73 -9.34,1.3 -13.92,2.41 -5.4,1.29 -10.95,1.85 -16.34,3.2 -6.95,1.69 -14.08,2.37 -21.06,3.93 -6.83,1.54 -13.8,2.39 -20.59,4.09 0.14,-51.91 0.01,-103.81 0.07,-155.72 0.07,-6.01 -0.44,-12.08 0.7,-18.02 z"
       id="path268"
       inkscape:connector-curvature="0"
       style="opacity:1;fill:#848484" />
    <path
       d="m 262.3,75.92 c 0.84,0.3 1.62,0.71 2.36,1.2 3.1,3.95 6.57,7.57 10.25,10.98 1.87,1.87 3.97,4.02 3.79,6.9 -0.04,34.66 -0.02,69.34 -0.02,104 0.07,7.08 -0.29,14.17 0.25,21.23 7.11,-0.5 14.05,-2.24 21.12,-3.13 3.53,-0.42 7.07,-1.46 10.65,-1.06 2.65,1.47 4.9,3.54 7.35,5.3 -13.08,1.76 -25.92,4.94 -38.94,7.06 -5.63,0.83 -11.1,3.13 -16.86,2.65 0.18,-45.68 0.01,-91.37 0.09,-137.05 0.07,-6.03 -0.39,-12.06 -0.04,-18.08 z"
       id="path270"
       inkscape:connector-curvature="0"
       style="opacity:1;fill:#848484" />
    <path
       d="m 383.98,75.7 c 0.42,0.36 1.25,1.08 1.67,1.43 3.8,5.54 8.22,10.58 12.53,15.71 2.01,2.2 2.94,5.11 2.79,8.08 -0.16,28.36 -0.01,56.72 -0.09,85.08 -0.11,4.54 -0.08,9.1 0.39,13.63 3.68,1.39 7.44,2.59 11.24,3.64 l 0.69,0.2 c -9.08,0.76 -17.83,3.41 -26.8,4.86 -6.17,1.07 -12.27,2.52 -18.46,3.47 -7.75,1.18 -15.35,3.32 -23.17,4.02 -1.28,0.14 -2.68,0.02 -3.5,-1.1 -3.49,-3.74 -5.35,-8.77 -6,-13.79 -0.78,-6.28 -0.6,-12.62 -0.6,-18.93 0.01,-27.67 0,-55.34 0,-83 0.02,-7.1 -0.13,-14.23 0.64,-21.3 4.07,5.21 9.37,9.27 13.72,14.22 1.61,1.57 1.67,3.91 1.71,6.01 -0.22,29.02 -0.02,58.04 -0.1,87.07 0.04,4.57 -0.38,9.23 0.67,13.72 1.08,4.3 5.23,7.56 9.68,7.51 6.23,0.05 12.25,-1.9 18.41,-2.58 6.91,-1.13 14.31,-0.76 20.64,-4.18 -5.34,-2.36 -10.83,-4.71 -16.67,-5.42 -0.21,-2.01 -0.39,-4.02 -0.41,-6.03 0.39,-32.01 -0.21,-64.01 0.14,-96.02 0.23,-5.42 -0.8,-11.02 0.88,-16.3 z"
       id="path272"
       inkscape:connector-curvature="0"
       style="opacity:1;fill:#848484" />
    <path
       d="m 428.33,75.46 c 0.3,0.29 0.89,0.88 1.18,1.17 4.92,5.99 10.79,11.09 15.79,17.01 -0.86,16.35 -0.34,32.74 -0.25,49.1 -0.12,15.46 -0.37,30.93 0.05,46.38 l 0.86,-0.13 c 6.66,0.25 13.15,-1.43 19.73,-2.16 8.05,-0.9 16.07,-2.11 24.14,-2.79 -0.35,1.48 -0.19,3.27 -1.34,4.44 -1.9,0.63 -3.88,0.94 -5.84,1.31 -13.84,2.39 -27.5,5.73 -41.41,7.71 -4.07,0.7 -8.1,1.81 -12.27,1.74 0.08,-36.08 -0.01,-72.16 0.04,-108.24 0.11,-4.85 0.14,-9.72 -0.57,-14.53 z"
       id="path274"
       inkscape:connector-curvature="0"
       style="opacity:1;fill:#848484" />
    <path
       d="m 614.72,76.35 c 0.49,0.07 1.45,0.2 1.94,0.27 2.64,2.26 5.16,4.71 8.08,6.63 2.97,2.12 6.65,4.09 7.48,7.97 -3.39,6.84 -4.33,14.47 -6.24,21.78 -4.19,16.86 -8.15,33.77 -12.38,50.62 -0.57,2.35 -1,4.74 -1.42,7.12 0.67,0 2,0 2.66,0 11.74,-0.16 23.48,-0.04 35.22,-0.05 -4.18,-4.25 -9.09,-7.66 -14,-11 -1.34,-5.37 -2.53,-10.8 -4.66,-15.93 0.5,-10.25 0.17,-20.5 0.28,-30.76 0.09,-6.77 -0.68,-13.63 0.95,-20.29 3.22,9.9 5.1,20.17 7.6,30.26 3.01,10.86 5.24,21.91 8.06,32.82 1.87,7.59 4.04,15.13 5.13,22.88 0.94,6.65 2.31,13.23 3.07,19.91 0.5,3.64 0.7,7.71 3.44,10.48 3.2,3.49 6.59,6.82 10.19,9.9 -8.57,-2 -17.37,-2.89 -25.86,-5.25 -2.43,-8.71 -2.51,-17.84 -4.52,-26.63 -4.86,-0.62 -9.78,-0.66 -14.66,-0.28 -1.33,-0.04 -1.99,1.34 -2.89,2.07 -1.46,-6.65 -6.57,-11.64 -10.44,-16.99 -1.55,3.71 -2.64,7.58 -3.72,11.44 -0.35,-14 3.95,-27.64 4.04,-41.6 -5.28,4.08 -9.04,9.71 -13.98,14.17 2.28,-10.59 4.34,-21.23 6.81,-31.78 1.18,-5.67 1.88,-11.44 3.4,-17.04 1.51,-5.63 2.03,-11.48 3.7,-17.07 1.34,-4.45 1.94,-9.07 2.72,-13.65 z"
       id="path276"
       inkscape:connector-curvature="0"
       style="opacity:1;fill:#848484" />
    <path
       d="m 723.88,81.96 c 0.22,-1.71 0.19,-3.56 1.24,-5.03 2.59,4.85 6.21,9.02 9.64,13.29 1.2,1.58 2.48,3.18 3.11,5.1 0.2,3.55 -1.14,6.94 -1.82,10.38 -1.35,6.42 -2.8,12.82 -4.12,19.24 -2.44,13.59 -6.44,26.84 -8.76,40.45 -1.9,8.23 -3.28,16.61 -5.71,24.71 -2.2,-11.4 -5.4,-22.58 -7.37,-34.03 0.44,0.11 1.32,0.32 1.75,0.43 0.34,-5.44 1.31,-10.8 2.42,-16.12 3.13,-19.49 6.91,-38.87 9.62,-58.42 z"
       id="path278"
       inkscape:connector-curvature="0"
       style="opacity:1;fill:#848484" />
    <path
       d="m 666.3,77.8 c 5.48,5.14 10.86,10.4 16.06,15.83 2.45,2.54 3.02,6.14 3.76,9.45 3.34,16.04 7.67,31.86 11.02,47.9 3.17,12.84 5.91,25.77 9.19,38.57 1.24,5.76 3.2,11.43 3.29,17.38 0.14,3.25 -0.25,6.56 0.43,9.77 1.15,1.6 2.8,2.72 4.37,3.87 4.22,2.88 8.26,6.03 12.69,8.58 0.87,-8.06 -0.56,-16.21 0.8,-24.23 -0.04,8.33 0.27,16.67 -0.28,24.98 -5.31,-0.64 -10.49,-1.97 -15.74,-2.87 -5.61,-1.19 -11.36,-1.63 -16.87,-3.25 -0.81,-5.26 -0.14,-10.56 -0.32,-15.84 -0.09,-3.56 -1.28,-6.94 -2.11,-10.37 -5.6,-25.02 -11.54,-49.97 -17.1,-75 -2.02,-9.57 -4.58,-19.02 -6.54,-28.61 -1.13,-5.34 -3.03,-10.62 -2.65,-16.16 z"
       id="path280"
       inkscape:connector-curvature="0"
       style="opacity:1;fill:#848484" />
    <path
       d="m 763.36,95.98 c 0.14,-4.38 1.96,-8.45 4.23,-12.12 3.68,3.79 7.22,7.74 11.36,11.05 3.36,-1.93 7.03,-3.59 11.01,-3.33 13.05,0.21 26.11,-0.09 39.17,0.21 1.82,5.85 2.83,11.97 3.04,18.1 -9.73,0.08 -19.46,0 -29.19,-0.03 -2.99,0.02 -5.95,0.43 -8.89,0.86 -4.39,-4.5 -9.07,-8.7 -13.96,-12.64 -0.34,18.97 0.03,37.95 -0.2,56.93 -0.08,3.78 0.07,7.67 1.63,11.19 1.7,0.9 3.48,1.77 5.44,1.95 8.19,0.77 16.45,-0.46 24.64,0.39 3.28,0.24 5.97,2.96 6.62,6.12 0.57,2.73 0.47,5.54 0.48,8.31 -0.19,12.69 -0.01,25.37 -0.05,38.06 0.14,3.91 -2.1,7.55 -1.93,11.38 2.37,5.15 6.09,9.56 8.53,14.7 -2.89,1.43 -6.06,0.26 -9.02,-0.23 -9.66,-1.82 -19.32,-3.63 -28.99,-5.4 -6,-1.52 -12.23,-1.93 -18.17,-3.67 -0.54,-5.25 -1.83,-10.51 -1.14,-15.81 15.04,2.72 30.04,5.77 45.16,7.99 -2.87,-6.33 -7.53,-11.65 -11.76,-17.1 1.63,-6.52 0.79,-13.25 0.98,-19.89 -0.01,-3.57 0.23,-7.18 -0.36,-10.73 -0.34,-0.23 -1,-0.7 -1.33,-0.94 -8.17,-0.98 -16.45,0.29 -24.63,-0.66 -4.16,-0.47 -8,-3.03 -10.01,-6.7 -2.75,-4.81 -2.57,-10.55 -2.7,-15.92 0.12,-20.69 -0.66,-41.38 0.04,-62.07 z"
       id="path282"
       inkscape:connector-curvature="0"
       style="opacity:1;fill:#848484" />
    <path
       d="m 445.85,94.21 c 14.98,-0.47 29.97,-0.05 44.96,-0.25 0.61,5.35 1.88,10.6 2.31,15.98 -11.03,0.34 -22.08,0.18 -33.12,0.02 -4.45,-5.48 -9.18,-10.74 -14.15,-15.75 z"
       id="path284"
       inkscape:connector-curvature="0"
       style="opacity:1;fill:#848484" />
    <path
       d="m 518.13,94.11 c 12.29,-0.32 24.59,0.1 36.89,-0.23 2.89,-0.07 5.78,0.04 8.68,0.21 0.1,9.62 -0.15,19.24 -0.36,28.87 -0.03,14.34 0.03,28.69 0.01,43.04 -0.06,5.8 -0.18,11.63 0.43,17.41 -1.85,1.95 -4.15,3.36 -6.42,4.75 -2.68,-4.01 -5.45,-7.99 -8.95,-11.34 0.59,-22.18 0.06,-44.38 0.31,-66.57 -10.98,-0.46 -21.97,0.15 -32.95,-0.28 0.14,-5.37 1.49,-10.58 2.36,-15.86 z"
       id="path286"
       inkscape:connector-curvature="0"
       style="opacity:1;fill:#848484" />
    <path
       d="m 446.75,145.02 c 7.02,-1.2 14.16,-0.62 21.25,-0.68 5.34,-0.03 10.67,-0.13 16.01,-0.04 0.4,4.64 0.44,9.3 0.63,13.95 l 0.03,0.85 c -8.18,0.31 -16.41,0.52 -24.59,-0.07 -4.11,-4.99 -9.32,-8.93 -13.33,-14.01 z"
       id="path288"
       inkscape:connector-curvature="0"
       style="opacity:1;fill:#848484" />
    <path
       d="m 502.97,154.53 c 4.06,2.3 7.11,5.87 10.4,9.1 1.12,1.19 2.33,2.36 3.07,3.85 0.66,3.93 0.15,8 1.25,11.87 2.68,1.95 5.8,3.19 9.04,3.85 9.45,2.05 18.96,3.87 28.46,5.68 -2.76,2.37 -5.71,4.84 -9.29,5.8 -3.83,0.08 -7.6,-0.85 -11.35,-1.46 -8.62,-1.91 -17.3,-3.48 -26,-4.94 -1.67,-0.42 -3.72,-0.53 -4.8,-2.06 -2.21,-3.19 -1.8,-7.29 -1.46,-10.95 0.81,-6.89 0,-13.84 0.68,-20.74 z"
       id="path290"
       inkscape:connector-curvature="0"
       style="opacity:1;fill:#848484" />
  </g>
  <g
     id="#abababff"
     transform="matrix(0.04804516,0,0,0.04804516,-0.04516148,2.9502996)">
    <path
       d="m 428.44,76.47 c 0.71,4.81 0.68,9.68 0.57,14.53 -0.05,36.08 0.04,72.16 -0.04,108.24 l -0.06,1.19 c -1.47,-0.97 -1.12,-2.93 -1.28,-4.42 0.03,-34.68 0.02,-69.35 0.04,-104.03 0.08,-5.17 -0.58,-10.44 0.77,-15.51 z"
       id="path293"
       inkscape:connector-curvature="0"
       style="opacity:1;fill:#ababab" />
  </g>
  <g
     id="#ccccccff"
     transform="matrix(0.04804516,0,0,0.04804516,-0.04516148,2.9502996)">
    <path
       d="m 184.17,91.67 c 5.2,3.79 8.84,9.22 13.68,13.41 1.14,1.04 2.57,1.79 4.14,1.82 4.8,0.33 9.67,-0.41 14.4,0.78 -5.49,0.43 -10.99,0.21 -16.48,0.42 -0.48,6.96 -0.16,13.93 -0.22,20.9 0.06,8.41 -0.29,16.84 0.39,25.23 -4.55,5.18 -10.49,8.82 -15.24,13.77 3.44,3.62 7.2,6.91 10.92,10.23 1.55,1.26 3.14,2.8 5.24,2.94 4.37,0.41 8.8,-0.15 13.15,0.65 -4.72,-0.08 -9.43,0.16 -14.14,0.3 -0.35,13.9 -0.22,27.82 0,41.72 -3.62,3.75 -7.65,7.13 -11.06,11.09 -0.94,0.97 -0.94,2.37 -1.19,3.62 -1.17,0.18 -2.34,0.36 -3.51,0.53 -0.28,-4.69 -0.26,-9.38 -0.23,-14.08 -0.06,-39 -0.12,-78 -0.11,-117 -0.02,-5.44 -0.19,-10.9 0.26,-16.33 z"
       id="path296"
       inkscape:connector-curvature="0"
       style="opacity:1;fill:#cccccc" />
    <path
       d="m 780.13,98.08 c 4.89,3.94 9.57,8.14 13.96,12.64 -0.74,8.08 -0.34,16.19 -0.45,24.28 -0.07,5.07 0.1,10.13 0.33,15.19 -3.95,5.49 -8.6,10.42 -12.41,16.01 -1.56,-3.52 -1.71,-7.41 -1.63,-11.19 0.23,-18.98 -0.14,-37.96 0.2,-56.93 z"
       id="path298"
       inkscape:connector-curvature="0"
       style="opacity:1;fill:#cccccc" />
    <path
       d="m 445.05,142.74 0.45,0.67 c 0.31,0.4 0.94,1.21 1.25,1.61 4.01,5.08 9.22,9.02 13.33,14.01 -0.52,5.05 -0.49,10.14 -0.06,15.19 -4.57,5.03 -9.43,9.79 -14.06,14.77 l -0.86,0.13 c -0.42,-15.45 -0.17,-30.92 -0.05,-46.38 z"
       id="path300"
       inkscape:connector-curvature="0"
       style="opacity:1;fill:#cccccc" />
    <path
       d="m 517.69,179.35 c 4.77,-1.83 9.49,-3.87 14.45,-5.16 5.35,1.28 10.67,3.11 16.27,2.63 3.5,3.35 6.27,7.33 8.95,11.34 -0.54,0.18 -1.63,0.54 -2.17,0.72 -9.5,-1.81 -19.01,-3.63 -28.46,-5.68 -3.24,-0.66 -6.36,-1.9 -9.04,-3.85 z"
       id="path302"
       inkscape:connector-curvature="0"
       style="opacity:1;fill:#cccccc" />
    <path
       d="m 765.8,207.7 c 11.93,1.13 23.54,4.78 35.57,5.19 4.23,5.45 8.89,10.77 11.76,17.1 -15.12,-2.22 -30.12,-5.27 -45.16,-7.99 l -0.88,-0.16 c -0.77,-4.67 -1.17,-9.4 -1.29,-14.14 z"
       id="path304"
       inkscape:connector-curvature="0"
       style="opacity:1;fill:#cccccc" />
  </g>
  <g
     id="#b3b3b3ff"
     transform="matrix(0.04804516,0,0,0.04804516,-0.04516148,2.9502996)">
    <path
       d="m 625.98,113 c 1.91,-7.31 2.85,-14.94 6.24,-21.78 0.1,0.37 0.31,1.12 0.41,1.49 -1.63,6.66 -0.86,13.52 -0.95,20.29 -0.11,10.26 0.22,20.51 -0.28,30.76 -1.64,5.28 -3.17,10.6 -4.34,16.01 -4.14,3.58 -8.29,7.15 -12.22,10.97 -0.66,0 -1.99,0 -2.66,0 0.42,-2.38 0.85,-4.77 1.42,-7.12 4.23,-16.85 8.19,-33.76 12.38,-50.62 z"
       id="path307"
       inkscape:connector-curvature="0"
       style="opacity:1;fill:#b3b3b3" />
    <path
       d="m 445.3,93.64 0.55,0.57 c 4.97,5.01 9.7,10.27 14.15,15.75 -0.48,5.95 -0.31,11.92 -0.22,17.88 -4.94,5.02 -9.53,10.37 -14.28,15.57 l -0.45,-0.67 c -0.09,-16.36 -0.61,-32.75 0.25,-49.1 z"
       id="path309"
       inkscape:connector-curvature="0"
       style="opacity:1;fill:#b3b3b3" />
    <path
       d="m 608.03,183.32 c 1.08,-3.86 2.17,-7.73 3.72,-11.44 3.87,5.35 8.98,10.34 10.44,16.99 0.12,2.26 -0.43,4.49 -0.87,6.69 -1.02,4.39 -1.45,8.89 -2.5,13.27 -4.36,-0.31 -8.68,-1 -12.93,-2.01 -0.46,-7.85 -0.06,-15.91 2.14,-23.5 z"
       id="path311"
       inkscape:connector-curvature="0"
       style="opacity:1;fill:#b3b3b3" />
  </g>
  <g
     id="#0f74bcff"
     transform="matrix(0.04804516,0,0,0.04804516,-0.04516148,2.9502996)">
    <path
       d="m 572.43,210.47 c 2.45,-1.5 5.06,-2.74 7.78,-3.67 -0.25,7.08 -1.61,14.07 -1.83,21.16 -0.42,22.61 0.59,45.36 4.87,67.61 2.39,17.39 6.59,34.49 12.02,51.17 5.14,14.43 11.48,28.47 19.41,41.58 23.92,38.92 59.21,70.2 99.25,91.83 4.84,2.59 8.93,6.78 10.86,11.98 1.93,4.99 2.01,10.4 2.75,15.64 1.79,10.97 1.82,22.14 1.81,33.23 0.27,13.36 -1.18,26.67 -2.3,39.97 -0.59,10.89 -3.13,21.54 -4.62,32.32 -1.14,8.76 -3.49,17.3 -5.03,25.99 -0.69,3.77 -1.2,7.68 -3.19,11.04 -1.52,-4.62 -2.16,-9.45 -3.34,-14.15 -2.29,-9.72 -4.83,-19.38 -8.09,-28.82 -1.79,-5.14 -3.07,-10.44 -5.19,-15.46 -2.26,4.2 -2.03,9.17 -3.25,13.7 -1.91,7.62 -3.95,15.22 -6.16,22.75 -8.58,25.67 -21.6,49.98 -39.12,70.67 -19.22,23.2 -43.68,41.65 -70.03,56.03 -23.58,12.59 -48.82,22.11 -74.9,28.03 -7.85,1.74 -15.81,2.94 -23.69,4.52 -5.09,0.98 -10.21,1.79 -15.38,2.16 3.53,-2.64 7.7,-4.16 11.56,-6.22 30.35,-15.77 57.97,-36.61 81.94,-60.98 11.97,-12.5 23.42,-25.6 32.9,-40.13 10.73,-15.69 19.24,-32.83 25.81,-50.65 2.97,1.63 4.87,4.53 6.82,7.19 7.1,10.12 10.57,22.18 13.47,34.05 2.82,-1.85 4.07,-5.11 5.62,-7.95 9.23,-18.76 14.11,-39.28 18.07,-59.7 1.5,-6.8 1.95,-13.75 3.18,-20.59 1.94,-14.51 2.33,-29.19 2.28,-43.81 0.21,-6.76 -1.37,-13.38 -2.03,-20.07 -2.89,5.97 -4.45,12.48 -7.34,18.46 -2.43,4.99 -4.84,10.26 -9.16,13.93 0.56,-6.33 1.84,-12.55 3.11,-18.76 1.95,-10.77 2.81,-21.7 3.3,-32.62 0.24,-10.98 0.36,-22.06 -1.74,-32.88 -0.73,1.26 -1.43,2.55 -1.92,3.93 -2.64,7.62 -5.4,15.31 -9.76,22.13 -0.67,-5.62 -0.32,-11.29 -0.65,-16.92 -0.71,-8.13 -1.45,-16.28 -3.26,-24.24 -1.75,-8.15 -3.26,-16.45 -6.55,-24.15 -2.29,4.45 -2.11,9.69 -4.02,14.29 -1.14,-1.24 -1.92,-2.73 -2.52,-4.28 -2.98,-7.3 -5.78,-14.67 -9.16,-21.79 -11.79,-25.74 -27.95,-49.96 -49.81,-68.21 -20.27,-17.3 -46.39,-28.15 -73.17,-28.49 -21.23,-0.86 -42.38,6.75 -59.12,19.63 -1.6,1.18 -3.3,2.18 -5.02,3.15 -0.91,-7.17 0.35,-14.45 3.14,-21.08 1.72,-4.57 4.29,-8.75 5.94,-13.35 -4.9,1.4 -9.21,4.17 -13.57,6.72 -11.42,6.83 -21.9,15.46 -30.01,26.06 -7.34,9.36 -12.5,20.22 -16.61,31.32 -2.75,7.41 -4.25,15.19 -6.36,22.78 -2.09,7.42 -3.05,15.1 -5.26,22.48 -3.5,15.03 -8.5,30.03 -17.27,42.86 -1.58,2.58 -4.78,2.92 -7.4,3.79 -8.48,2.32 -16.23,7.2 -22.02,13.8 -4.48,5.09 -7.25,11.46 -9.04,17.94 -1.71,5.86 -0.81,12.01 -1.33,18.01 -2.24,-0.4 -4.44,-0.99 -6.5,-1.97 -6.86,-3.16 -14.11,-5.62 -21.62,-6.6 -4.95,-0.75 -9.84,0.59 -14.73,1.15 -3.01,-3.67 -5,-8.01 -7.05,-12.25 -2.33,-5.4 -4.72,-11.31 -3.65,-17.29 1.77,-6.84 8.39,-10.85 14.44,-13.51 3.37,-1.49 7.99,-2.88 8.5,-7.16 0.97,-6.92 1.67,-13.91 3.58,-20.65 12.07,-50.06 43.87,-94.82 86.57,-123.44 2.2,-1.45 4.35,-2.98 6.4,-4.66 -10.03,0.5 -18.77,5.76 -28.06,8.87 3.55,-3.68 8.32,-5.69 12.59,-8.36 41.95,-24.48 88.02,-40.43 132.54,-59.4 27.86,-11.6 55.3,-24.35 81.32,-39.66 m -13.45,20.61 c -8,4.52 -16.25,8.56 -24.59,12.39 -15.9,7.75 -32.13,14.81 -48.53,21.44 -29.36,12.18 -59.01,23.71 -87.86,37.09 -5,2.65 -10.59,4.29 -15.02,7.93 3.32,-0.13 6.63,-0.49 9.94,-0.8 -4.01,2.66 -8.32,4.81 -12.37,7.38 -19.71,11.95 -37.9,26.57 -53.01,44.01 -9.2,10.78 -17.73,22.38 -23.49,35.39 2.9,-3.09 5.39,-6.54 8.05,-9.83 7.44,-8.83 15.13,-17.52 24,-24.95 6.92,-5.85 13.6,-12.44 22.05,-16.03 -2.12,4.96 -5.55,9.19 -8.07,13.94 -10.64,19.03 -19.53,39.08 -26.21,59.84 -1.97,6.59 -4.34,13.29 -3.85,20.28 3,-4.08 4.33,-9.04 6.64,-13.5 4.3,-8.62 8.35,-17.38 13.35,-25.62 2.75,-4.55 5.4,-9.22 9.07,-13.12 -0.05,7.06 -1.5,14 -1.93,21.03 -0.91,10.37 -1.46,20.82 -0.47,31.21 0.1,1.47 0.55,2.88 1.17,4.22 0.87,-2.46 1.52,-5 2.03,-7.57 4.38,-21.37 8.01,-43.02 15.33,-63.65 4.61,-12.59 10.36,-24.87 18.07,-35.88 5.48,-8.03 12.28,-15.08 19.61,-21.43 13.84,-11.59 31.26,-17.27 47.55,-24.42 5.2,-2.12 10.06,-5.1 15.53,-6.52 -3.9,5.42 -8.96,9.95 -12.35,15.76 -3.55,5.96 -7.2,12.28 -7.67,19.36 3.6,-0.38 7.06,-1.44 10.48,-2.56 15.01,-4.3 30.64,-7.96 46.35,-6.16 24.48,3.23 48.03,13.14 67.35,28.52 4.45,3.24 8.08,7.53 12.92,10.24 -1.19,-7.13 -3.56,-14 -5.12,-21.05 -2.06,-7.56 -3.24,-15.31 -5.14,-22.89 -3.91,3.6 -6.69,8.5 -11.7,10.79 2.37,-8.6 7.25,-16.88 6.05,-26.11 -4.89,4.65 -7.79,11.5 -14.34,14.26 4.32,-10.86 11.04,-21.28 11.32,-33.31 -2.24,2.26 -3.99,4.92 -5.95,7.41 -7.64,8.9 -17.13,16.42 -28.06,20.83 3.24,-4.05 6.99,-7.65 10.16,-11.75 10.42,-12.7 17.93,-27.64 22.63,-43.34 1.48,-4.98 3.04,-9.99 3.27,-15.21 -2.57,0.2 -4.99,1.08 -7.19,2.38 M 323.99,385.01 c -11.39,15.03 -20.58,31.83 -26.3,49.84 -2.47,6.6 -3.78,13.52 -5.57,20.32 -1.88,-1.17 -3.81,-2.26 -5.8,-3.23 -0.08,4.59 -0.71,9.7 1.94,13.75 1.8,2.88 5.44,4.05 8.7,3.58 6.64,-0.83 12.58,-4.45 17.57,-8.75 1.15,-0.95 1.95,-2.22 2.73,-3.46 -4.86,0.07 -9.53,1.57 -14.36,1.92 -0.39,-4.59 0.79,-9.08 1.66,-13.54 4.93,-21.69 13.43,-42.44 23.93,-62 1.75,-3.2 3.64,-6.32 5.22,-9.6 -3.74,3.26 -6.64,7.31 -9.72,11.17 m 329.93,68.07 c 1.27,3.89 3.11,7.55 4.66,11.33 4.42,11.38 5.8,23.62 6.87,35.69 4.75,-2.94 5.83,-8.94 8.91,-13.27 0.44,1.19 0.92,2.39 1.1,3.68 5.18,48.36 3.12,97.92 -10,144.93 -1.42,5.57 -3.85,10.89 -4.53,16.65 2.16,-2.45 3.54,-5.41 4.85,-8.37 14.03,-28.85 21.95,-60.36 25.74,-92.12 0.29,-3.3 0.63,-6.61 1.47,-9.81 2.34,3.67 3.8,7.8 5.39,11.84 5.51,14.06 9.46,28.67 13.08,43.32 0.94,-2.81 1.49,-5.73 1.9,-8.66 3.9,-24.16 6.42,-48.84 3.46,-73.25 -0.7,-5.46 -1.13,-11.09 -3.39,-16.17 -0.84,10.14 -2.78,20.15 -4.85,30.11 -1.91,-3.99 -2.78,-8.35 -3.96,-12.58 -2.41,-9 -4.88,-18.03 -8.38,-26.68 -2.35,-5.82 -6.62,-10.76 -12,-13.98 -10.73,-6.71 -19.78,-15.72 -30.32,-22.66 m -383.81,27.11 c -0.74,3.89 -0.58,8.42 2.15,11.56 2.54,2.91 5.31,6.11 9.22,7.08 1.98,-4.48 4.32,-9 8.25,-12.1 3.89,-3.48 9.18,-4.54 13.43,-7.45 -4.4,-0.47 -8.9,-0.45 -13.19,0.73 -4.64,1.18 -8.67,3.86 -12.95,5.89 -1.99,-4.02 0.22,-8.11 1.15,-12.07 -3.4,0.82 -6.83,2.95 -8.06,6.36 m 346.88,180.8 c -3.83,8.21 -8.38,16.07 -13.34,23.65 -16.87,26.08 -38.01,49.31 -61.93,69.07 -2,1.62 -3.88,3.37 -5.66,5.21 6.96,-1.77 13.34,-5.18 19.88,-8.05 26.35,-12.76 50.69,-29.8 71.33,-50.59 2.03,-2.07 4.34,-3.96 5.75,-6.54 0.85,-2.97 -1.39,-5.58 -2.6,-8.09 -5.46,-9.16 -5.37,-20.4 -10.57,-29.66 -1.05,1.61 -2.04,3.26 -2.86,5 z"
       id="path314"
       inkscape:connector-curvature="0"
       style="opacity:1;fill:#0f74bc" />
    <path
       d="m 397.66,370.64 c 3.53,-14.04 10.28,-27.79 21.24,-37.49 -6.6,13.61 -11.6,28.54 -10.9,43.86 0.06,3.3 0.57,6.61 0.2,9.91 -0.66,3.05 -2.45,5.68 -3.85,8.42 -2.46,4.32 -4.17,9.07 -7.28,12.99 -1.23,-3.66 -1.44,-7.54 -1.43,-11.38 -0.02,-8.79 -0.37,-17.76 2.02,-26.31 z"
       id="path316"
       inkscape:connector-curvature="0"
       style="opacity:1;fill:#0f74bc" />
    <path
       d="m 287.64,377.61 c 2.09,-2.52 4.4,-4.85 7.06,-6.76 -1.23,2.62 -2.66,5.14 -4.17,7.61 -12.14,19.95 -20.28,42.37 -23.38,65.54 -0.4,2.27 -0.21,4.78 -1.33,6.86 -1.65,1.54 -3.92,2.12 -5.92,3.07 -7,2.79 -12.75,8.6 -15.22,15.76 -2.44,6.29 -1.26,13.14 -1.74,19.71 -3.57,-3.03 -5.06,-7.64 -6.55,-11.9 -3.61,-11.15 1.1,-23.82 10.08,-31 3.41,-2.97 7.99,-4.56 10.75,-8.25 2.13,-4.01 2.52,-8.66 4,-12.91 4.95,-17.68 14.34,-33.97 26.42,-47.73 z"
       id="path318"
       inkscape:connector-curvature="0"
       style="opacity:1;fill:#0f74bc" />
    <path
       d="m 574.05,381.17 c 4.34,3.66 7.37,8.54 10.69,13.09 14.39,20.03 25.34,42.62 31.62,66.49 2.16,6.87 2.85,14.1 4.86,21 0.39,0.04 1.17,0.13 1.56,0.17 2.47,-2.32 4.05,-5.38 6.1,-8.04 0.53,6.39 0.22,12.81 -0.18,19.2 -0.51,7.64 -2.48,15.06 -4.21,22.5 -1.33,5.64 -3.43,11.07 -5.25,16.57 -2.06,5.75 -4.13,11.54 -7.03,16.93 0.37,-13.72 -0.14,-27.43 -0.6,-41.13 -0.99,-15.07 -2.98,-30.06 -5.86,-44.88 -2.48,-10.01 -4.55,-20.15 -7.9,-29.92 -4.66,-13.98 -10.5,-27.56 -17.37,-40.58 -2.07,-3.85 -4.45,-7.52 -6.43,-11.4 z"
       id="path320"
       inkscape:connector-curvature="0"
       style="opacity:1;fill:#0f74bc" />
    <path
       d="m 384.45,398.55 c 0.32,-0.14 0.97,-0.43 1.29,-0.58 1.84,24.74 -0.84,50 -9.19,73.43 -1.45,4.22 -2.7,8.53 -4.62,12.57 -0.88,1.94 -2.41,3.75 -4.59,4.21 -4.08,0.91 -8.33,0.76 -12.37,1.89 -7.62,2.07 -14.92,5.72 -20.68,11.19 -2.97,2.75 -5.09,6.28 -8.21,8.89 0,-9.37 3.79,-18.91 10.88,-25.16 3.63,-3.25 7.9,-5.78 12.44,-7.51 3.47,-1.38 7.27,-1.38 10.84,-2.38 3.06,-1.11 4.56,-4.3 5.91,-7.03 9.96,-21.9 16.99,-45.41 18.3,-69.52 z"
       id="path322"
       inkscape:connector-curvature="0"
       style="opacity:1;fill:#0f74bc" />
  </g>
  <g
     id="#127bc1ff"
     transform="matrix(0.04804516,0,0,0.04804516,-0.04516148,2.9502996)">
    <path
       d="m 485.41,219.54 c 5.62,-0.73 11.13,-2.37 16.83,-2.53 -1.67,1.98 -4.17,2.84 -6.47,3.83 -6.1,2.5 -12.09,5.24 -18.2,7.69 -4.64,1.81 -9.07,4.16 -13.91,5.42 -0.1,-3.7 0,-7.42 1.05,-10.99 7.01,-0.35 13.77,-2.45 20.7,-3.42 z"
       id="path325"
       inkscape:connector-curvature="0"
       style="opacity:1;fill:#127bc1" />
    <path
       d="m 514.36,803.23 c 6.28,-1.35 12.43,-3.22 18.59,-5.07 -4.31,4.38 -9.52,7.69 -14.41,11.36 -2.8,1.96 -5.41,4.26 -8.55,5.68 -2.23,-0.45 -3.48,-2.69 -4.98,-4.2 1.84,-1.87 3.43,-3.97 5.09,-5.99 1.03,-1.24 2.82,-1.31 4.26,-1.78 z"
       id="path327"
       inkscape:connector-curvature="0"
       style="opacity:1;fill:#127bc1" />
  </g>
  <g
     id="#19293eff"
     transform="matrix(0.04804516,0,0,0.04804516,-0.04516148,2.9502996)">
    <path
       d="m 452.26,224.21 c 4.11,-0.69 8.26,-2.13 12.45,-1.25 -1.05,3.57 -1.15,7.29 -1.05,10.99 0.28,2.25 -2.07,3.23 -3.76,3.95 -15.95,6.24 -31.74,12.89 -47.56,19.45 -4.67,1.87 -9.16,4.86 -14.4,4.58 0.94,-0.66 1.87,-1.36 2.79,-2.05 -1.93,-7.84 -3.1,-16.01 -6.64,-23.33 1.61,-1.55 3.81,-2.1 5.95,-2.5 17.44,-3.07 34.79,-6.67 52.22,-9.84 z"
       id="path330"
       inkscape:connector-curvature="0"
       style="opacity:1;fill:#19293e" />
  </g>
  <g
     id="#25a9e1ff"
     transform="matrix(0.04804516,0,0,0.04804516,-0.04516148,2.9502996)">
    <path
       d="m 558.98,231.08 c 2.2,-1.3 4.62,-2.18 7.19,-2.38 -0.23,5.22 -1.79,10.23 -3.27,15.21 -4.7,15.7 -12.21,30.64 -22.63,43.34 -3.17,4.1 -6.92,7.7 -10.16,11.75 10.93,-4.41 20.42,-11.93 28.06,-20.83 1.96,-2.49 3.71,-5.15 5.95,-7.41 -0.28,12.03 -7,22.45 -11.32,33.31 6.55,-2.76 9.45,-9.61 14.34,-14.26 1.2,9.23 -3.68,17.51 -6.05,26.11 5.01,-2.29 7.79,-7.19 11.7,-10.79 1.9,7.58 3.08,15.33 5.14,22.89 1.56,7.05 3.93,13.92 5.12,21.05 -4.84,-2.71 -8.47,-7 -12.92,-10.24 -19.32,-15.38 -42.87,-25.29 -67.35,-28.52 -15.71,-1.8 -31.34,1.86 -46.35,6.16 -3.42,1.12 -6.88,2.18 -10.48,2.56 0.47,-7.08 4.12,-13.4 7.67,-19.36 3.39,-5.81 8.45,-10.34 12.35,-15.76 -5.47,1.42 -10.33,4.4 -15.53,6.52 -16.29,7.15 -33.71,12.83 -47.55,24.42 -7.33,6.35 -14.13,13.4 -19.61,21.43 -7.71,11.01 -13.46,23.29 -18.07,35.88 -7.32,20.63 -10.95,42.28 -15.33,63.65 -0.51,2.57 -1.16,5.11 -2.03,7.57 -0.62,-1.34 -1.07,-2.75 -1.17,-4.22 -0.99,-10.39 -0.44,-20.84 0.47,-31.21 0.43,-7.03 1.88,-13.97 1.93,-21.03 -3.67,3.9 -6.32,8.57 -9.07,13.12 -5,8.24 -9.05,17 -13.35,25.62 -2.31,4.46 -3.64,9.42 -6.64,13.5 -0.49,-6.99 1.88,-13.69 3.85,-20.28 6.68,-20.76 15.57,-40.81 26.21,-59.84 2.52,-4.75 5.95,-8.98 8.07,-13.94 -8.45,3.59 -15.13,10.18 -22.05,16.03 -8.87,7.43 -16.56,16.12 -24,24.95 -2.66,3.29 -5.15,6.74 -8.05,9.83 5.76,-13.01 14.29,-24.61 23.49,-35.39 15.11,-17.44 33.3,-32.06 53.01,-44.01 4.05,-2.57 8.36,-4.72 12.37,-7.38 -3.31,0.31 -6.62,0.67 -9.94,0.8 4.43,-3.64 10.02,-5.28 15.02,-7.93 28.85,-13.38 58.5,-24.91 87.86,-37.09 16.4,-6.63 32.63,-13.69 48.53,-21.44 8.34,-3.83 16.59,-7.87 24.59,-12.39 z"
       id="path333"
       inkscape:connector-curvature="0"
       style="opacity:1;fill:#25a9e1" />
    <path
       d="m 653.92,453.08 c 10.54,6.94 19.59,15.95 30.32,22.66 5.38,3.22 9.65,8.16 12,13.98 3.5,8.65 5.97,17.68 8.38,26.68 1.18,4.23 2.05,8.59 3.96,12.58 2.07,-9.96 4.01,-19.97 4.85,-30.11 2.26,5.08 2.69,10.71 3.39,16.17 2.96,24.41 0.44,49.09 -3.46,73.25 -0.41,2.93 -0.96,5.85 -1.9,8.66 -3.62,-14.65 -7.57,-29.26 -13.08,-43.32 -1.59,-4.04 -3.05,-8.17 -5.39,-11.84 -0.84,3.2 -1.18,6.51 -1.47,9.81 -3.79,31.76 -11.71,63.27 -25.74,92.12 -1.31,2.96 -2.69,5.92 -4.85,8.37 0.68,-5.76 3.11,-11.08 4.53,-16.65 13.12,-47.01 15.18,-96.57 10,-144.93 -0.18,-1.29 -0.66,-2.49 -1.1,-3.68 -3.08,4.33 -4.16,10.33 -8.91,13.27 -1.07,-12.07 -2.45,-24.31 -6.87,-35.69 -1.55,-3.78 -3.39,-7.44 -4.66,-11.33 z"
       id="path335"
       inkscape:connector-curvature="0"
       style="opacity:1;fill:#25a9e1" />
    <path
       d="m 616.99,660.99 c 0.82,-1.74 1.81,-3.39 2.86,-5 5.2,9.26 5.11,20.5 10.57,29.66 1.21,2.51 3.45,5.12 2.6,8.09 -1.41,2.58 -3.72,4.47 -5.75,6.54 -20.64,20.79 -44.98,37.83 -71.33,50.59 -6.54,2.87 -12.92,6.28 -19.88,8.05 1.78,-1.84 3.66,-3.59 5.66,-5.21 23.92,-19.76 45.06,-42.99 61.93,-69.07 4.96,-7.58 9.51,-15.44 13.34,-23.65 z"
       id="path337"
       inkscape:connector-curvature="0"
       style="opacity:1;fill:#25a9e1" />
  </g>
  <g
     id="#137dc2ff"
     transform="matrix(0.04804516,0,0,0.04804516,-0.04516148,2.9502996)">
    <path
       d="m 376.71,240.43 c 5.78,-1.34 11.63,-2.4 17.38,-3.88 3.54,7.32 4.71,15.49 6.64,23.33 -0.92,0.69 -1.85,1.39 -2.79,2.05 -22.96,9.57 -44.99,21.29 -66.16,34.34 -1.25,-3.91 -2.38,-7.86 -3.31,-11.85 -2.57,-11.08 -6.07,-21.93 -8.34,-33.08 10.91,-2.55 21.95,-4.46 32.97,-6.46 7.79,-1.92 15.8,-2.66 23.61,-4.45 z"
       id="path340"
       inkscape:connector-curvature="0"
       style="opacity:1;fill:#137dc2" />
    <path
       d="m 226.18,268.99 c 6.91,-1.43 13.79,-3.18 20.84,-3.8 5.37,9.58 11.62,18.7 16.3,28.66 -2,-1.67 -3.89,-3.48 -5.47,-5.56 0.33,26.4 0,52.8 0.16,79.2 1.09,-0.02 2.17,-0.03 3.26,-0.04 -2.12,4.68 -4.92,9.01 -7.2,13.6 -4.41,8.79 -8.39,17.81 -11.5,27.15 -2.58,-3.44 -4.82,-7.12 -6.91,-10.87 -17.4,-29.89 -34.76,-59.81 -52.28,-89.62 -1.28,-4.78 -0.96,-9.79 -1.2,-14.68 -0.02,-5.26 -0.9,-10.53 -0.15,-15.77 14.75,-2.53 29.4,-5.66 44.15,-8.27 z"
       id="path342"
       inkscape:connector-curvature="0"
       style="opacity:1;fill:#137dc2" />
  </g>
  <g
     id="#209dd8ff"
     transform="matrix(0.04804516,0,0,0.04804516,-0.04516148,2.9502996)">
    <path
       d="m 604.99,237 c 2.78,0.33 5.55,0.81 8.28,1.5 6.17,1.57 12.54,2.1 18.74,3.52 6.27,1.46 12.67,2.3 18.95,3.73 7.98,1.74 16.12,2.58 24.09,4.39 l -0.17,0.81 c -1.62,7.43 -3.87,14.7 -5.75,22.06 -5.04,19.73 -9.6,39.57 -14.86,59.24 -2.92,11.79 -5.77,23.59 -8.82,35.34 -1.47,5.11 -2.87,10.24 -3.85,15.48 -14.19,-19.3 -23.32,-42.03 -28.39,-65.36 -2.1,-8.14 -2.88,-16.53 -4.34,-24.79 -2.28,-12.85 -3.46,-25.89 -3.85,-38.93 -0.25,-5.66 -0.77,-11.35 -0.03,-16.99 z"
       id="path345"
       inkscape:connector-curvature="0"
       style="opacity:1;fill:#209dd8" />
  </g>
  <g
     id="#17263aff"
     transform="matrix(0.04804516,0,0,0.04804516,-0.04516148,2.9502996)">
    <path
       d="m 302.42,254.39 c 5.88,-1.12 11.77,-2.26 17.71,-3.05 2.27,11.15 5.77,22 8.34,33.08 0.93,3.99 2.06,7.94 3.31,11.85 -11.11,8.71 -22.63,16.93 -33.09,26.43 -3.87,3.35 -6.68,8.28 -11.83,9.83 -8.58,-12.43 -14.9,-26.29 -23.54,-38.68 -4.68,-9.96 -10.93,-19.08 -16.3,-28.66 18.38,-4.02 36.96,-7.08 55.4,-10.8 z"
       id="path348"
       inkscape:connector-curvature="0"
       style="opacity:1;fill:#17263a" />
  </g>
  <g
     id="#162538ff"
     transform="matrix(0.04804516,0,0,0.04804516,-0.04516148,2.9502996)">
    <path
       d="m 674.88,250.95 c 6.02,-0.51 11.84,1.38 17.7,2.44 14.29,2.65 28.56,5.42 42.84,8.11 2.92,0.52 5.81,1.23 8.65,2.09 -3.31,4.97 -6.17,10.21 -9.14,15.39 -13.09,22.36 -26.11,44.75 -39.34,67.03 -5.92,9.96 -11.49,20.13 -17.43,30.09 -5.92,10 -11.43,20.25 -17.84,29.96 -5.01,-5.16 -9.4,-10.87 -14,-16.38 -1.76,-2.08 -3.3,-4.31 -4.72,-6.61 0.98,-5.24 2.38,-10.37 3.85,-15.48 3.05,-11.75 5.9,-23.55 8.82,-35.34 5.26,-19.67 9.82,-39.51 14.86,-59.24 1.88,-7.36 4.13,-14.63 5.75,-22.06 z"
       id="path351"
       inkscape:connector-curvature="0"
       style="opacity:1;fill:#162538" />
  </g>
  <g
     id="#21a0daff"
     transform="matrix(0.04804516,0,0,0.04804516,-0.04516148,2.9502996)">
    <path
       d="m 734.93,278.98 c 2.97,-5.18 5.83,-10.42 9.14,-15.39 12.91,2.01 25.62,5.04 38.53,7.03 6,1.13 11.9,2.79 17.95,3.67 6.87,0.99 13.59,2.79 20.44,3.86 0.22,2.6 0.29,5.39 -1.27,7.62 -1,1.62 -2.07,3.2 -3.07,4.82 -18.53,31.29 -36.71,62.79 -55.22,94.09 -2.9,0.13 -5.91,-0.08 -8.4,-1.7 -14.5,-8.56 -29.09,-16.96 -43.67,-25.37 -3.75,-2.24 -7.78,-4.02 -11.33,-6.59 -1.72,-1.08 -1.82,-3.29 -2.44,-5.01 13.23,-22.28 26.25,-44.67 39.34,-67.03 z"
       id="path354"
       inkscape:connector-curvature="0"
       style="opacity:1;fill:#21a0da" />
  </g>
  <g
     id="#132031ff"
     transform="matrix(0.04804516,0,0,0.04804516,-0.04516148,2.9502996)">
    <path
       d="m 816.65,290.59 c 1,-1.62 2.07,-3.2 3.07,-4.82 0.45,1.67 0.99,3.35 0.95,5.1 -0.19,8.4 -1.3,16.75 -1.61,25.15 -0.45,5.99 -1.51,11.92 -2.03,17.91 -1.01,10.4 -3.75,20.61 -3.99,31.09 -0.13,5.57 -1.63,10.96 -2.67,16.39 -2.64,12.98 -5.87,25.82 -9.32,38.6 -0.71,2.23 -0.9,4.8 -2.47,6.64 -5.87,5.1 -11.11,10.84 -16.5,16.43 -11.32,11.32 -22.12,23.16 -33.68,34.25 -0.94,-2.3 -1.77,-4.64 -2.92,-6.83 -1.34,-2.6 -3.88,-4.22 -6.27,-5.71 -6.01,-3.55 -12.19,-6.8 -18.32,-10.11 1.07,-2.16 2.15,-4.31 3.33,-6.41 12.42,-21.19 24.92,-42.33 37.21,-63.59 18.51,-31.3 36.69,-62.8 55.22,-94.09 z"
       id="path357"
       inkscape:connector-curvature="0"
       style="opacity:1;fill:#132031" />
  </g>
  <g
     id="#1581c5ff"
     transform="matrix(0.04804516,0,0,0.04804516,-0.04516148,2.9502996)">
    <path
       d="m 257.85,288.29 c 1.58,2.08 3.47,3.89 5.47,5.56 8.64,12.39 14.96,26.25 23.54,38.68 0.04,1.89 -1.62,3.22 -2.66,4.62 -5.66,6.09 -10.72,12.7 -15.54,19.47 -2.55,3.55 -4.66,7.4 -7.39,10.83 -1.09,0.01 -2.17,0.02 -3.26,0.04 -0.16,-26.4 0.17,-52.8 -0.16,-79.2 z"
       id="path360"
       inkscape:connector-curvature="0"
       style="opacity:1;fill:#1581c5" />
  </g>
  <g
     id="#142031ff"
     transform="matrix(0.04804516,0,0,0.04804516,-0.04516148,2.9502996)">
    <path
       d="m 183.38,307.71 c 17.52,29.81 34.88,59.73 52.28,89.62 2.09,3.75 4.33,7.43 6.91,10.87 -1.23,5.05 -3.25,9.86 -4.46,14.92 -0.88,3.03 -1.36,6.26 -3.01,9 -3.27,4.7 -8.54,7.44 -12.12,11.86 -2.61,3.15 -5.39,6.14 -8.22,9.09 -1.16,-0.8 -2.33,-1.59 -3.44,-2.44 -2.03,-4.24 -3.12,-8.84 -4.58,-13.28 -11.62,-37.48 -19.12,-76.18 -22.97,-115.2 -0.63,-4.79 -1.07,-9.64 -0.39,-14.44 z"
       id="path363"
       inkscape:connector-curvature="0"
       style="opacity:1;fill:#142031" />
  </g>
  <g
     id="#0e75bcff"
     transform="matrix(0.04804516,0,0,0.04804516,-0.04516148,2.9502996)">
    <path
       d="m 290.85,362.67 c 9.4,-14.31 23.95,-25.01 40.07,-30.57 -2.21,2.08 -4.6,3.96 -7.02,5.78 -5.47,4.16 -10.33,9.02 -15.33,13.71 -5.07,4.91 -11.77,7.46 -17.72,11.08 z"
       id="path366"
       inkscape:connector-curvature="0"
       style="opacity:1;fill:#0e75bc" />
  </g>
  <g
     id="#1d95d4ff"
     transform="matrix(0.04804516,0,0,0.04804516,-0.04516148,2.9502996)">
    <path
       d="m 678.16,376.1 c 5.94,-9.96 11.51,-20.13 17.43,-30.09 0.62,1.72 0.72,3.93 2.44,5.01 3.55,2.57 7.58,4.35 11.33,6.59 14.58,8.41 29.17,16.81 43.67,25.37 2.49,1.62 5.5,1.83 8.4,1.7 -12.29,21.26 -24.79,42.4 -37.21,63.59 -1.18,2.1 -2.26,4.25 -3.33,6.41 -1.7,-0.78 -3.39,-1.59 -4.97,-2.57 -16.74,-10.49 -32.46,-22.62 -46.66,-36.37 -3.11,-3.1 -6.38,-6.09 -8.94,-9.68 6.41,-9.71 11.92,-19.96 17.84,-29.96 z"
       id="path369"
       inkscape:connector-curvature="0"
       style="opacity:1;fill:#1d95d4" />
  </g>
  <g
     id="#d0d1d3ff"
     transform="matrix(0.04804516,0,0,0.04804516,-0.04516148,2.9502996)">
    <path
       d="m 494.08,374.02 c 7.2,-2.27 15.11,-2.46 22.38,-0.39 12.71,4.1 21.68,15.59 26,27.83 5.86,15.4 5.33,32.25 4.04,48.41 -2.83,22.32 -10.31,43.76 -19.41,64.25 -1.38,2.9 -2.81,5.79 -3.91,8.82 5.64,-0.98 11.06,-3.03 16.78,-3.54 6.33,-0.48 12.9,-0.52 18.92,1.75 7.39,2.39 13.56,7.68 18.13,13.85 3.09,4.09 4.69,9.02 6.32,13.82 1.32,3.91 2.25,7.96 2.59,12.09 1.12,12.66 0.33,25.57 -3.13,37.83 -3.54,14.58 -8.9,28.72 -15.89,42 -9.3,19.38 -21.99,36.94 -35.95,53.21 -28.93,33.69 -64.48,61.47 -103.5,82.54 -12.86,7.61 -26.64,13.44 -40.26,19.51 4.25,-5.77 8.62,-11.48 12.04,-17.79 7.78,-14.75 11.54,-31.52 11,-48.18 0.09,-4.21 -1.2,-9.31 2.28,-12.55 10.76,-11.05 24.95,-18.73 40.09,-21.7 8.69,-1.93 17.65,-1.87 26.5,-1.57 5.37,0.16 10.57,1.89 15.97,1.58 -0.96,-1.93 -2.02,-3.81 -3.33,-5.51 -10.5,-13.34 -16.26,-29.98 -18.1,-46.75 -0.82,-10.48 -0.53,-21.01 -0.2,-31.5 0.57,-6.7 1.59,-13.37 1.71,-20.1 0.04,-5.67 1.58,-11.19 1.55,-16.86 0.09,-8.22 0.81,-16.5 -0.33,-24.68 -0.72,-5.39 -3.25,-10.28 -4.79,-15.44 2.93,-4.25 6.62,-8 8.72,-12.79 3.13,-5.88 5.09,-12.43 4.67,-19.16 -5.3,5.03 -10.47,10.2 -16.13,14.82 -15.51,12.84 -33.55,23.32 -53.45,27.37 -8.97,2.06 -18.25,1.73 -27.37,1.39 -15.26,-1.44 -29.99,-6.34 -43.92,-12.59 -2.24,-1.09 -5.02,-1.56 -6.44,-3.82 3.19,-1.52 6.76,-1.98 10.23,-1.28 14.54,2.51 29.81,2 43.77,-3.08 14.7,-4.81 27.7,-13.73 39.1,-24.04 18.24,-16.07 33.15,-35.61 52.11,-50.9 4.06,-3.33 8.76,-5.73 13.13,-8.62 -5.93,-1.05 -12.05,-1.65 -18,-0.45 -4.24,0.66 -8.03,2.73 -11.94,4.35 -0.18,-7.28 0.31,-14.65 -1.31,-21.81 -1.32,-5.74 -2.33,-11.67 -5.15,-16.92 -1.08,-2.48 -3.06,-5.09 -2.17,-7.93 1.46,-2.76 3.99,-4.71 6.22,-6.82 8.86,-7.99 18.79,-15.36 30.43,-18.65 m -8.65,16.45 c -4.62,2.86 -9.14,6.08 -12.51,10.4 6.02,-1.22 11.85,-3.46 18.03,-3.83 7.2,-0.59 14.73,0.19 21.12,3.79 4.02,2.09 7.87,4.88 9.93,9.05 -7.33,-1.03 -14.57,-3 -22.03,-2.76 -7.47,0.16 -15.46,1.25 -21.51,6 1.87,1.18 4.13,1.18 6.26,1.39 7.52,0.62 15.06,1.89 22.15,4.58 3.85,1.54 7.92,3.34 10.26,6.97 -4.35,-0.45 -8.55,-1.66 -12.86,-2.34 -5.83,-0.93 -11.81,-0.28 -17.52,1.06 -3.04,0.71 -6.13,2.02 -7.84,4.78 4.52,0.32 9.09,0.15 13.57,0.98 6.89,1.21 13.47,3.91 19.4,7.58 1.51,0.93 2.78,2.2 4.01,3.47 -4.59,2.15 -9.36,3.95 -13.68,6.63 -13.01,7.86 -24.13,18.48 -34.07,29.89 -6.7,7.31 -13.23,14.78 -19.94,22.09 -11.51,12.03 -24.17,23.38 -39.2,30.8 -2.15,1.06 -4.16,2.34 -6.07,3.78 10.84,0.69 21.37,-3.03 30.86,-7.96 12.62,-6.42 23.59,-15.54 33.95,-25.08 11.18,-10.83 22.04,-21.98 33.11,-32.91 4.9,-4.45 9.6,-9.47 15.89,-11.92 -7.97,12.19 -16.27,24.62 -19.88,38.92 -1.81,6.52 -0.56,13.38 -2,19.95 -1.01,5.05 -3.29,9.74 -6.04,14.05 -1.28,2.09 -2.78,4.09 -3.61,6.42 -0.28,2.49 0.6,4.92 1.05,7.34 2.4,10.32 1.91,20.99 1.57,31.49 -0.65,15.34 -3.55,30.54 -3.17,45.93 0.03,5.37 -0.22,10.76 0.28,16.13 2.1,-1.22 4.13,-2.61 5.81,-4.38 7.14,-7.34 13.37,-15.53 18.86,-24.17 1.25,-2 2.71,-3.86 4.34,-5.56 -1.15,5.4 -3.4,10.48 -5.2,15.68 -4.86,13.56 -10.83,26.71 -15.67,40.27 2.24,-1.71 4.35,-3.59 6.19,-5.73 11.59,-13.44 21.37,-28.34 30.27,-43.67 2.48,-4.17 4.7,-8.5 7.43,-12.51 -4.88,20.63 -14.43,39.82 -24.76,58.22 -3.31,5.93 -7.44,11.4 -10.25,17.61 4.64,-2.49 8.17,-6.44 11.83,-10.11 10.92,-10.74 19.61,-23.48 27.35,-36.63 4.81,-8.66 9.64,-17.34 13.63,-26.42 0.87,-2.02 1.96,-3.93 3.17,-5.75 -0.24,5.1 -1.74,9.99 -3.04,14.89 -5.54,22.09 -14.99,43.03 -26.15,62.82 -3.12,5.8 -7.17,11.1 -9.73,17.2 4.46,-4.2 8.25,-9.03 12.07,-13.8 10.17,-13.25 19.01,-27.52 26.44,-42.47 7.83,-16.77 15.1,-34.19 17.2,-52.73 0.86,-8.86 1.14,-18.11 -2.01,-26.58 -3.45,-9.64 -11.13,-18.05 -21.1,-21.01 -9.9,-2.77 -20.41,-2.18 -30.39,-0.13 -5.21,1.03 -10.18,3.05 -15.43,3.88 0.47,-1.86 0.99,-3.71 1.82,-5.44 9.12,-19.19 17.07,-39.02 22.39,-59.62 3.25,-12.73 5.38,-25.83 5.3,-39 0.01,-10.19 -0.84,-20.7 -5.22,-30.05 -2.52,-5.72 -6.35,-10.95 -11.46,-14.61 -3.66,-2.56 -8.21,-3.64 -12.64,-3.52 -7.32,0.18 -14.36,2.88 -20.56,6.65 M 427.29,719.3 c -3.35,2.45 -6.32,6.21 -5.95,10.59 0.33,5.68 0.65,11.42 -0.4,17.06 -0.84,7.2 -3.46,14.05 -4.15,21.27 2.03,-0.69 4.04,-1.42 5.93,-2.44 25.33,-13.68 48.99,-30.41 70.46,-49.58 2.51,-2.42 5.86,-4.33 6.97,-7.84 -8.72,-0.89 -17.43,-2.01 -26.17,-2.73 -16.57,-1.23 -33.25,4.07 -46.69,13.67 z"
       id="path372"
       inkscape:connector-curvature="0"
       style="opacity:1;fill:#d0d1d3" />
    <path
       d="m 226.18,524.98 c 0.48,-5.79 2.45,-11.81 6.54,-16.06 4.26,4.27 8.59,8.49 12.4,13.17 -1.58,2.08 -3.42,3.93 -5.3,5.73 -3.55,3.39 -6.41,7.4 -9.66,11.06 -2.53,-4.18 -4.47,-8.92 -3.98,-13.9 z"
       id="path374"
       inkscape:connector-curvature="0"
       style="opacity:1;fill:#d0d1d3" />
    <path
       d="m 324.96,555.12 c 10.97,3.94 21.56,8.97 32.82,12.14 6.34,2.05 12.92,3.18 19.36,4.89 -1.07,0.95 -2.18,1.87 -3.42,2.6 -14.15,7.91 -27.26,17.77 -38.52,29.46 -9.38,9.03 -17.55,19.22 -25.27,29.68 -1.84,2.47 -3.76,4.96 -6.35,6.68 -3.58,2.35 -7.65,3.77 -11.58,5.41 -17.57,7.22 -34.8,16.17 -48.79,29.24 -4.54,4.45 -9.21,8.82 -13.17,13.82 -0.98,1.3 -2.22,2.38 -3.73,3.01 -7.23,-13.16 -11.42,-27.99 -12.2,-42.97 -0.41,-13.19 2.34,-26.38 7.4,-38.53 4.95,-11.77 11.56,-22.76 18.74,-33.29 1.53,-2.1 3.02,-4.53 5.59,-5.45 5.45,-2.04 11.39,-2.13 17.15,-2.08 8.87,0.04 17.57,2.03 26.14,4.15 2.76,0.78 5.7,1.46 7.94,3.36 0.52,2.52 -0.73,4.95 -1.6,7.25 -7.41,16.83 -18.91,31.39 -30.57,45.45 -5.78,6.79 -11.96,13.23 -17.72,20.03 9.7,-4.67 18,-11.71 26.36,-18.4 12.03,-9.58 22.68,-20.87 31.65,-33.35 2.69,-3.7 4.78,-7.82 7.85,-11.22 -0.31,2.81 -0.79,5.62 -1.76,8.3 -3.77,10.61 -9.81,20.32 -17.1,28.86 -3.35,3.93 -7.48,7.17 -10.32,11.53 11.95,-5.54 22.83,-13.38 31.95,-22.88 7.07,-7.06 13.04,-15.62 15.52,-25.4 1.26,-5.84 1.24,-11.98 0.02,-17.82 -1.04,-5.26 -4.39,-9.58 -6.39,-14.47 z"
       id="path376"
       inkscape:connector-curvature="0"
       style="opacity:1;fill:#d0d1d3" />
  </g>
  <g
     id="#fefefeff"
     transform="matrix(0.04804516,0,0,0.04804516,-0.04516148,2.9502996)">
    <path
       d="m 485.43,390.47 c 6.2,-3.77 13.24,-6.47 20.56,-6.65 4.43,-0.12 8.98,0.96 12.64,3.52 5.11,3.66 8.94,8.89 11.46,14.61 4.38,9.35 5.23,19.86 5.22,30.05 0.08,13.17 -2.05,26.27 -5.3,39 -5.32,20.6 -13.27,40.43 -22.39,59.62 -0.83,1.73 -1.35,3.58 -1.82,5.44 5.25,-0.83 10.22,-2.85 15.43,-3.88 9.98,-2.05 20.49,-2.64 30.39,0.13 9.97,2.96 17.65,11.37 21.1,21.01 3.15,8.47 2.87,17.72 2.01,26.58 -2.1,18.54 -9.37,35.96 -17.2,52.73 -7.43,14.95 -16.27,29.22 -26.44,42.47 -3.82,4.77 -7.61,9.6 -12.07,13.8 2.56,-6.1 6.61,-11.4 9.73,-17.2 11.16,-19.79 20.61,-40.73 26.15,-62.82 1.3,-4.9 2.8,-9.79 3.04,-14.89 -1.21,1.82 -2.3,3.73 -3.17,5.75 -3.99,9.08 -8.82,17.76 -13.63,26.42 -7.74,13.15 -16.43,25.89 -27.35,36.63 -3.66,3.67 -7.19,7.62 -11.83,10.11 2.81,-6.21 6.94,-11.68 10.25,-17.61 10.33,-18.4 19.88,-37.59 24.76,-58.22 -2.73,4.01 -4.95,8.34 -7.43,12.51 -8.9,15.33 -18.68,30.23 -30.27,43.67 -1.84,2.14 -3.95,4.02 -6.19,5.73 4.84,-13.56 10.81,-26.71 15.67,-40.27 1.8,-5.2 4.05,-10.28 5.2,-15.68 -1.63,1.7 -3.09,3.56 -4.34,5.56 -5.49,8.64 -11.72,16.83 -18.86,24.17 -1.68,1.77 -3.71,3.16 -5.81,4.38 -0.5,-5.37 -0.25,-10.76 -0.28,-16.13 -0.38,-15.39 2.52,-30.59 3.17,-45.93 0.34,-10.5 0.83,-21.17 -1.57,-31.49 -0.45,-2.42 -1.33,-4.85 -1.05,-7.34 0.83,-2.33 2.33,-4.33 3.61,-6.42 2.75,-4.31 5.03,-9 6.04,-14.05 1.44,-6.57 0.19,-13.43 2,-19.95 3.61,-14.3 11.91,-26.73 19.88,-38.92 -6.29,2.45 -10.99,7.47 -15.89,11.92 -11.07,10.93 -21.93,22.08 -33.11,32.91 -10.36,9.54 -21.33,18.66 -33.95,25.08 -9.49,4.93 -20.02,8.65 -30.86,7.96 1.91,-1.44 3.92,-2.72 6.07,-3.78 15.03,-7.42 27.69,-18.77 39.2,-30.8 6.71,-7.31 13.24,-14.78 19.94,-22.09 9.94,-11.41 21.06,-22.03 34.07,-29.89 4.32,-2.68 9.09,-4.48 13.68,-6.63 -1.23,-1.27 -2.5,-2.54 -4.01,-3.47 -5.93,-3.67 -12.51,-6.37 -19.4,-7.58 -4.48,-0.83 -9.05,-0.66 -13.57,-0.98 1.71,-2.76 4.8,-4.07 7.84,-4.78 5.71,-1.34 11.69,-1.99 17.52,-1.06 4.31,0.68 8.51,1.89 12.86,2.34 -2.34,-3.63 -6.41,-5.43 -10.26,-6.97 -7.09,-2.69 -14.63,-3.96 -22.15,-4.58 -2.13,-0.21 -4.39,-0.21 -6.26,-1.39 6.05,-4.75 14.04,-5.84 21.51,-6 7.46,-0.24 14.7,1.73 22.03,2.76 -2.06,-4.17 -5.91,-6.96 -9.93,-9.05 -6.39,-3.6 -13.92,-4.38 -21.12,-3.79 -6.18,0.37 -12.01,2.61 -18.03,3.83 3.37,-4.32 7.89,-7.54 12.51,-10.4 z"
       id="path379"
       inkscape:connector-curvature="0"
       style="opacity:1;fill:#fefefe" />
    <path
       d="m 442.37,415.13 c 1.54,-0.9 3.44,-0.04 3.93,1.65 5.94,14.04 6.32,30.56 0.22,44.62 -1.28,2.67 -2.14,5.96 -4.9,7.51 -2.35,-7.04 -5.53,-13.8 -9.36,-20.15 -2.24,-3.73 -5.24,-6.93 -7.44,-10.67 -1.46,-2.1 -0.35,-4.65 0.49,-6.74 3.22,-7.36 9.51,-13.41 17.06,-16.22 z"
       id="path381"
       inkscape:connector-curvature="0"
       style="opacity:1;fill:#fefefe" />
    <path
       d="m 410.99,589.97 c 2.48,-0.49 5.03,-0.96 7.56,-0.6 2.3,2.76 3.31,6.38 4.34,9.77 0.6,1.75 -0.02,3.55 -0.4,5.29 -4.25,0.76 -8.64,0.72 -12.78,2.06 -6.41,1.99 -12.8,4.17 -18.78,7.25 10.29,-0.19 20.77,-0.85 30.87,1.61 1.95,0.54 4.57,1.45 4.7,3.87 0.57,4.69 0.76,9.43 0.69,14.17 -4.38,-0.2 -8.52,-1.73 -12.78,-2.6 -14.18,-3.16 -28.82,-3.16 -43.25,-2.25 -8.89,0.85 -17.59,2.99 -26.36,4.61 0.82,-1.61 1.67,-3.2 2.81,-4.6 11.12,-13.42 24.81,-25.07 40.95,-31.94 7.11,-3.33 14.82,-4.95 22.43,-6.64 z"
       id="path383"
       inkscape:connector-curvature="0"
       style="opacity:1;fill:#fefefe" />
    <path
       d="m 427.29,719.3 c 13.44,-9.6 30.12,-14.9 46.69,-13.67 8.74,0.72 17.45,1.84 26.17,2.73 -1.11,3.51 -4.46,5.42 -6.97,7.84 -21.47,19.17 -45.13,35.9 -70.46,49.58 -1.89,1.02 -3.9,1.75 -5.93,2.44 0.69,-7.22 3.31,-14.07 4.15,-21.27 1.05,-5.64 0.73,-11.38 0.4,-17.06 -0.37,-4.38 2.6,-8.14 5.95,-10.59 z"
       id="path385"
       inkscape:connector-curvature="0"
       style="opacity:1;fill:#fefefe" />
  </g>
  <g
     id="#22a1dbff"
     transform="matrix(0.04804516,0,0,0.04804516,-0.04516148,2.9502996)">
    <path
       d="m 782.08,443.08 c 5.39,-5.59 10.63,-11.33 16.5,-16.43 -1.49,6.46 -3.77,12.7 -5.81,19 -9.52,30.04 -21.6,59.25 -35.8,87.37 -0.76,1.41 -1.68,2.73 -2.61,4.05 0.12,-18.57 -1.94,-37.13 -6.17,-55.21 -0.15,-1.46 -0.98,-3.32 0.21,-4.53 11.56,-11.09 22.36,-22.93 33.68,-34.25 z"
       id="path388"
       inkscape:connector-curvature="0"
       style="opacity:1;fill:#22a1db" />
  </g>
  <g
     id="#d6dd1fff"
     transform="matrix(0.04804516,0,0,0.04804516,-0.04516148,2.9502996)">
    <path
       d="m 412.23,445.82 c 1.37,0.49 2.8,0.99 3.89,2.02 4.91,4.27 8.86,9.64 11.49,15.61 2.16,4.88 3.95,10.14 3.73,15.55 0.04,1.87 -1.61,3 -3.04,3.84 -1.3,-3.63 -2.46,-7.34 -4.4,-10.68 -0.81,-1.51 -1.81,-2.95 -2.26,-4.61 -0.61,-2.12 -0.82,-4.39 -1.85,-6.37 -1.69,-1.2 -3.66,-1.92 -5.51,-2.81 -2.32,-1.06 -4.27,-2.83 -5.78,-4.86 -0.8,-3.08 2.13,-5.44 3.73,-7.69 z"
       id="path391"
       inkscape:connector-curvature="0"
       style="opacity:1;fill:#d6dd1f" />
  </g>
  <g
     id="#105487ff"
     transform="matrix(0.04804516,0,0,0.04804516,-0.04516148,2.9502996)">
    <path
       d="m 211.32,450.63 c 1.11,0.85 2.28,1.64 3.44,2.44 -0.29,1.06 -0.59,2.12 -0.9,3.19 -1.42,-1.58 -2.08,-3.6 -2.54,-5.63 z"
       id="path394"
       inkscape:connector-curvature="0"
       style="opacity:1;fill:#105487" />
  </g>
  <g
     id="#fbfbfaff"
     transform="matrix(0.04804516,0,0,0.04804516,-0.04516148,2.9502996)">
    <path
       d="m 409.53,460.55 c 1.39,-1.09 3.14,-1.52 4.75,-2.18 1.85,0.89 3.82,1.61 5.51,2.81 1.03,1.98 1.24,4.25 1.85,6.37 -1.09,1.29 -2.05,2.74 -3.4,3.78 -3.24,2.16 -8.34,0.78 -9.85,-2.86 -1.13,-2.57 -0.62,-5.76 1.14,-7.92 z"
       id="path397"
       inkscape:connector-curvature="0"
       style="opacity:1;fill:#fbfbfa" />
  </g>
  <g
     id="#24a9e1ff"
     transform="matrix(0.04804516,0,0,0.04804516,-0.04516148,2.9502996)">
    <path
       d="m 270.11,480.19 c 1.23,-3.41 4.66,-5.54 8.06,-6.36 -0.93,3.96 -3.14,8.05 -1.15,12.07 4.28,-2.03 8.31,-4.71 12.95,-5.89 4.29,-1.18 8.79,-1.2 13.19,-0.73 -4.25,2.91 -9.54,3.97 -13.43,7.45 -3.93,3.1 -6.27,7.62 -8.25,12.1 -3.91,-0.97 -6.68,-4.17 -9.22,-7.08 -2.73,-3.14 -2.89,-7.67 -2.15,-11.56 z"
       id="path400"
       inkscape:connector-curvature="0"
       style="opacity:1;fill:#24a9e1" />
  </g>
  <g
     id="#f9f9f9ff"
     transform="matrix(0.04804516,0,0,0.04804516,-0.04516148,2.9502996)">
    <path
       d="m 403.5,477.48 c 2.22,-0.89 5.08,-0.53 6.73,1.32 1.37,1.59 1.38,3.98 0.62,5.86 -1.96,3.24 -7.72,3.49 -9.36,-0.18 -0.54,-2.4 -0.64,-5.81 2.01,-7 z"
       id="path403"
       inkscape:connector-curvature="0"
       style="opacity:1;fill:#f9f9f9" />
  </g>
  <g
     id="#a7a8acff"
     transform="matrix(0.04804516,0,0,0.04804516,-0.04516148,2.9502996)">
    <path
       d="m 268.63,523.67 c 4.43,-2.99 10.08,-2.24 14.98,-1.07 9.25,2.62 17.74,7.27 26.35,11.45 16.77,8.55 33.77,16.92 51.88,22.26 11.94,3.94 24.62,5.35 37.16,5.09 17.83,0.38 35.37,-5.08 51.03,-13.34 2.98,-1.44 6,-4.16 9.53,-2.94 1.64,5.82 2.47,11.83 2.15,17.89 0.49,18.08 -3.48,35.9 -3.51,53.96 -0.32,11.68 -0.55,23.47 1.62,35.01 0.77,9.26 4.31,17.9 7.13,26.66 -17,1.1 -34,5.74 -48.57,14.72 -4.23,2.49 -8.03,5.59 -12.09,8.34 -2.29,-5.94 -4.23,-12.06 -7.43,-17.6 -1.36,-2.32 -2.67,-4.66 -3.81,-7.08 3.16,-1.37 6.48,-2.28 9.77,-3.28 4.54,-1.4 8.6,-3.91 12.91,-5.85 1.89,-0.91 4,-1.65 5.27,-3.42 -6.92,-1.54 -13.97,-2.48 -21.06,-2.74 -15.61,-0.38 -31.4,-0.27 -46.69,3.3 -13.4,2.15 -26.4,6.07 -39.36,10.03 -14.25,4.63 -28.04,10.52 -41.98,15.99 -4.61,1.93 -9.07,4.22 -13.8,5.88 9.41,-10.46 22.01,-17.39 34.72,-23.05 8.09,-3.3 16.45,-6.26 23.59,-11.43 8.32,-6.07 17.7,-10.71 27.67,-13.35 13.24,-4 27.09,-5.79 40.91,-5.51 9.64,-0.33 19.2,1.22 28.63,3.05 8.82,2.09 17.11,5.88 25.45,9.36 2.1,-4.7 1.4,-9.99 1.59,-14.99 0.36,-14.18 -1,-28.46 -4.58,-42.21 -0.85,-3.54 -2.6,-6.9 -2.77,-10.57 1.68,-5.61 7.33,-8.38 10.7,-12.79 -7.58,-1.67 -15.38,-0.97 -23.08,-1.15 -5.04,-0.12 -9.97,1.01 -14.94,1.67 -15.48,2.13 -30.14,8.43 -43.17,16.91 -14.46,9.57 -26.33,22.52 -36.57,36.4 -3.86,4.84 -6.98,10.24 -11.12,14.86 -4.94,5.41 -11.46,9.13 -18.26,11.72 -5.67,2.14 -11.06,4.93 -16.56,7.48 -21.21,9.96 -39.66,25.83 -52.4,45.53 -1.25,1.94 -2.59,3.83 -3.99,5.67 -1.35,-1.51 -2.64,-3.08 -3.6,-4.86 -6.06,-11 -12.01,-22.22 -15.53,-34.34 -2.43,-8.21 -4.56,-16.65 -4.51,-25.27 0.08,-6.03 -0.34,-12.14 0.87,-18.09 1.82,-8.63 3.66,-17.35 7.41,-25.4 5.67,-13.59 13.31,-26.25 21.72,-38.3 2.18,-3.08 4.82,-5.96 8.23,-7.67 4.45,-2.3 9.57,-2.63 14.48,-2.71 6.5,-0.01 13.06,0.32 19.39,1.88 9.11,2.25 18.22,4.57 27.07,7.75 6.36,2.1 12.37,5.15 18.8,7.08 -2.47,-2.23 -5.25,-4.04 -8.05,-5.81 -11.25,-7.46 -22.85,-14.64 -35.59,-19.29 -5.94,-2.19 -12.26,-3.27 -18.57,-3.53 -4.72,-0.21 -9.38,0.66 -14.08,0.86 0.77,-1.75 1.67,-3.47 2.99,-4.87 6.33,-7.05 13.64,-13.25 21.67,-18.29 m 30.69,24.08 c 1.46,3.5 4.6,5.91 7.51,8.19 1.74,-2.22 3.41,-4.8 6.17,-5.81 2.27,-0.83 4.69,-1.11 7.05,-1.57 -5.4,-3.17 -11.7,-5.26 -18,-4.77 -2.02,0.08 -3.45,2.04 -2.73,3.96 m 25.64,7.37 c 2,4.89 5.35,9.21 6.39,14.47 1.22,5.84 1.24,11.98 -0.02,17.82 -2.48,9.78 -8.45,18.34 -15.52,25.4 -9.12,9.5 -20,17.34 -31.95,22.88 2.84,-4.36 6.97,-7.6 10.32,-11.53 7.29,-8.54 13.33,-18.25 17.1,-28.86 0.97,-2.68 1.45,-5.49 1.76,-8.3 -3.07,3.4 -5.16,7.52 -7.85,11.22 -8.97,12.48 -19.62,23.77 -31.65,33.35 -8.36,6.69 -16.66,13.73 -26.36,18.4 5.76,-6.8 11.94,-13.24 17.72,-20.03 11.66,-14.06 23.16,-28.62 30.57,-45.45 0.87,-2.3 2.12,-4.73 1.6,-7.25 -2.24,-1.9 -5.18,-2.58 -7.94,-3.36 -8.57,-2.12 -17.27,-4.11 -26.14,-4.15 -5.76,-0.05 -11.7,0.04 -17.15,2.08 -2.57,0.92 -4.06,3.35 -5.59,5.45 -7.18,10.53 -13.79,21.52 -18.74,33.29 -5.06,12.15 -7.81,25.34 -7.4,38.53 0.78,14.98 4.97,29.81 12.2,42.97 1.51,-0.63 2.75,-1.71 3.73,-3.01 3.96,-5 8.63,-9.37 13.17,-13.82 13.99,-13.07 31.22,-22.02 48.79,-29.24 3.93,-1.64 8,-3.06 11.58,-5.41 2.59,-1.72 4.51,-4.21 6.35,-6.68 7.72,-10.46 15.89,-20.65 25.27,-29.68 11.26,-11.69 24.37,-21.55 38.52,-29.46 1.24,-0.73 2.35,-1.65 3.42,-2.6 -6.44,-1.71 -13.02,-2.84 -19.36,-4.89 -11.26,-3.17 -21.85,-8.2 -32.82,-12.14 z"
       id="path406"
       inkscape:connector-curvature="0"
       style="opacity:1;fill:#a7a8ac" />
  </g>
  <g
     id="#22a3ddff"
     transform="matrix(0.04804516,0,0,0.04804516,-0.04516148,2.9502996)">
    <path
       d="m 494.87,807.66 c 5.07,-0.92 10.02,-2.67 15.23,-2.65 -1.66,2.02 -3.25,4.12 -5.09,5.99 -2.94,2.87 -5.82,5.81 -9.01,8.4 -4.48,-2.74 -8.96,-5.6 -12.84,-9.16 3.82,-1.21 7.78,-1.85 11.71,-2.58 z"
       id="path409"
       inkscape:connector-curvature="0"
       style="opacity:1;fill:#22a3dd" />
  </g>
</svg>
