<?xml version="1.0" encoding="UTF-8" standalone="no"?>
<svg
   xmlns:dc="http://purl.org/dc/elements/1.1/"
   xmlns:cc="http://creativecommons.org/ns#"
   xmlns:rdf="http://www.w3.org/1999/02/22-rdf-syntax-ns#"
   xmlns:svg="http://www.w3.org/2000/svg"
   xmlns="http://www.w3.org/2000/svg"
   xmlns:sodipodi="http://sodipodi.sourceforge.net/DTD/sodipodi-0.dtd"
   xmlns:inkscape="http://www.inkscape.org/namespaces/inkscape"
   width="64"
   height="64"
   viewBox="0 0 48 48.000001"
   version="1.1"
   id="svg412"
   sodipodi:docname="blueja.svg"
   inkscape:version="0.92.3 (2405546, 2018-03-11)">
  <metadata
     id="metadata418">
    <rdf:RDF>
      <cc:Work
         rdf:about="">
        <dc:format>image/svg+xml</dc:format>
        <dc:type
           rdf:resource="http://purl.org/dc/dcmitype/StillImage" />
        <dc:title></dc:title>
      </cc:Work>
    </rdf:RDF>
  </metadata>
  <defs
     id="defs416" />
  <sodipodi:namedview
     pagecolor="#ffffff"
     bordercolor="#666666"
     borderopacity="1"
     objecttolerance="10"
     gridtolerance="10"
     guidetolerance="10"
     inkscape:pageopacity="0"
     inkscape:pageshadow="2"
     inkscape:window-width="1920"
     inkscape:window-height="1017"
     id="namedview414"
     showgrid="false"
     units="px"
     inkscape:pagecheckerboard="true"
     inkscape:zoom="6.8398466"
     inkscape:cx="72.485908"
     inkscape:cy="37.629765"
     inkscape:window-x="-8"
     inkscape:window-y="-8"
     inkscape:window-maximized="1"
     inkscape:current-layer="svg412" />
  <g
     id="#f2f2f2ff"
     transform="matrix(0.08020452,0,0,0.08020452,-0.06255882,2.8831106)">
    <path
       d="m 295,1.42 c 7.54,-1.12 15.05,0.67 22.48,1.8 29.62,4.59 59.19,9.43 88.82,14 8.65,1.2 17.29,2.53 25.88,4.1 20.43,3.24 40.85,6.53 61.3,9.59 6.27,1.18 12.71,1.61 18.79,3.68 l -1.03,0.09 c -8.05,0.93 -16.16,0.54 -24.24,0.58 -17.33,0.01 -34.66,-0.02 -51.99,0.04 -9.25,0.1 -18.33,-1.87 -27.42,-3.26 -12.99,-2.05 -25.99,-4.03 -38.94,-6.31 -21.38,-2.99 -42.59,-7.1 -63.97,-10.14 -5.22,-0.68 -10.44,0.19 -15.56,1.16 -6.85,1.31 -13.79,2.12 -20.7,3.06 -10.53,1.4 -20.92,3.72 -31.47,4.99 -19.59,2.5 -39.02,6.1 -58.53,9.19 -11.38,1.95 -22.95,0.99 -34.42,1.19 -17.91,0.19 -35.84,-0.4 -53.74,0.31 -1.27,-0.59 -2.54,-1.18 -3.82,-1.72 3.23,-0.97 6.56,-1.6 9.9,-2.08 23.41,-3.41 46.83,-6.74 70.15,-10.7 C 209.33,14.51 252.12,7.67 295,1.42 Z"
       id="path215"
       inkscape:connector-curvature="0"
       style="opacity:1;fill:#f2f2f2" />
    <path
       d="m 79.07,144.08 c 3.2,4.58 5.77,10.06 11.06,12.62 0.15,6.09 1.1,12.12 1.26,18.21 0.3,10.74 1.47,21.42 2.58,32.1 2.4,21.39 7.8,42.3 13.83,62.91 3.05,9.81 6.23,19.6 10.31,29.04 1.15,2.85 2.47,5.8 2.31,8.95 -0.14,4.27 -1.17,8.56 -0.44,12.83 0.74,4.44 2.91,8.45 4.9,12.43 -4.71,8.27 -10.25,16.13 -13.72,25.05 -5.89,13.65 -7.26,29.07 -4.66,43.65 2.89,13.11 8.76,25.45 15.94,36.75 4.69,6.94 8.98,14.18 14.18,20.76 3.87,-6.87 6.94,-14.46 12.81,-19.95 7.83,-7.57 18.19,-11.6 28.34,-15 4.55,-1.44 9.01,-3.61 13.84,-3.85 2.69,1.46 4.51,4.03 6.51,6.27 5.86,7.11 12.37,13.64 18.87,20.16 1.8,2.07 4.57,4.32 3.77,7.42 -1.47,7.27 -5.35,13.78 -9.36,19.92 -4.6,7.1 -10.9,12.81 -16.6,18.99 21.23,0.62 42.53,-0.05 63.64,-2.46 2.06,-0.14 4.19,-0.38 6.22,0.21 2.58,0.93 4.74,2.69 6.91,4.33 8.98,7.21 18.56,13.63 28.38,19.64 15.03,-8.93 29.05,-19.45 42.52,-30.57 12.92,-10.32 25.17,-21.47 36.93,-33.09 4.52,-4.49 9.33,-8.67 13.67,-13.33 8.59,-9.36 16.32,-19.47 24.94,-28.8 4.68,8.71 5.36,18.69 7.56,28.15 2.43,-3.28 4.64,-6.75 6.24,-10.52 3.87,-8.98 7.06,-18.25 9.75,-27.65 2.2,-7.69 4.65,-15.34 5.98,-23.24 0.88,-4.7 1.39,-9.59 3.65,-13.88 1.9,-3.65 4.25,-7.04 6.32,-10.6 8.83,-15.01 16.62,-30.62 23.42,-46.65 8.37,-19.03 14.38,-38.98 19.63,-59.06 2.32,-9.01 3.74,-18.21 5.35,-27.36 4.01,-21.64 4.88,-43.73 4.7,-65.69 0.41,0.62 1.23,1.86 1.65,2.47 2.99,-3.45 5.96,-6.94 8.59,-10.68 0.37,2.8 0.57,5.63 0.59,8.46 0.07,17.11 -0.93,34.21 -2.63,51.23 -3.5,26.74 -9.31,53.21 -18.03,78.74 -5.51,15.08 -11.04,30.2 -18.36,44.52 -4.91,9.37 -9.23,19.07 -14.86,28.05 -2.12,3.35 -4.18,6.88 -4.73,10.88 -3.05,18.8 -7.29,37.5 -14.21,55.27 -2.57,6.26 -4.8,12.71 -8.34,18.5 -7.23,11.46 -15.26,22.39 -22.68,33.73 -2.38,-11.89 -4.35,-23.86 -6.34,-35.81 -9.52,12.5 -21.34,23.21 -34.61,31.61 -5.54,3.61 -9.77,8.78 -14.82,12.98 -12.27,10.15 -24.41,20.5 -37.52,29.58 -4.51,3.11 -8.9,6.4 -13.52,9.35 -3.77,2.39 -8.17,4.19 -12.71,3.81 -5.08,-0.44 -9.58,-3.15 -13.67,-5.99 -5.66,-4.01 -11.43,-7.87 -16.9,-12.12 -1.57,-1.08 -3.17,-2.55 -5.2,-2.45 -3.63,0.11 -7.22,0.71 -10.83,1.01 -16.43,1.68 -32.96,1.93 -49.47,1.81 -5.88,-0.01 -11.74,-0.72 -17.49,-1.94 -1.37,-4.52 -3.47,-8.97 -3.35,-13.79 0.01,-3.18 0.97,-6.42 3.08,-8.84 2.62,-3 5.92,-5.31 8.56,-8.28 3.7,-4.12 6.85,-8.7 9.76,-13.4 1.44,-2.54 3.07,-5.16 3.3,-8.13 -1.27,-2.09 -3.09,-3.75 -4.78,-5.48 -3.94,-3.86 -7.49,-8.08 -11.16,-12.18 -6.88,2.07 -13.75,4.2 -20.35,7.05 -7.28,3.12 -13.58,8.72 -17.07,15.89 -1.89,3.63 -3.14,7.79 -6.23,10.65 -3.78,3.33 -9.26,5.04 -14.17,3.44 -4.46,-1.21 -7.8,-4.71 -10.27,-8.46 -7.57,-11.35 -15.03,-22.83 -21.19,-35.02 -9.52,-19.36 -12.61,-42.07 -7.24,-63.08 3.12,-11.75 8.31,-22.9 14.81,-33.15 -2,-6.46 -3.65,-13.2 -2.87,-20.01 0.28,-4.59 2.72,-9.4 0.39,-13.84 C 97.39,278.82 91.72,257.53 87.01,236.1 82.67,215 80.22,193.52 79.45,172 c -0.33,-9.3 0.12,-18.62 -0.38,-27.92 z"
       id="path217"
       inkscape:connector-curvature="0"
       style="opacity:1;fill:#f2f2f2" />
  </g>
  <g
     id="#0f1723ff"
     transform="matrix(0.08020452,0,0,0.08020452,-0.06255882,2.8831106)">
    <path
       d="m 289.12,16.75 c 5.12,-0.97 10.34,-1.84 15.56,-1.16 21.38,3.04 42.59,7.15 63.97,10.14 12.95,2.28 25.95,4.26 38.94,6.31 9.09,1.39 18.17,3.36 27.42,3.26 17.33,-0.06 34.66,-0.03 51.99,-0.04 8.08,-0.04 16.19,0.35 24.24,-0.58 -0.01,4.37 0.01,8.74 0.02,13.11 20.36,0.14 40.71,-0.35 61.06,0.08 -3.13,4.65 -6.48,9.14 -9.86,13.6 -1.49,1.86 -2.93,3.86 -4.97,5.16 -2.7,0.97 -5.64,0.74 -8.46,0.81 -12.59,-0.24 -25.19,0.03 -37.79,-0.23 0.08,2.66 0.16,5.33 0.28,7.99 13.25,0.5 26.51,-0.07 39.76,0.31 -4.04,5.86 -8.57,11.36 -12.69,17.16 -1.69,2.17 -3.52,5.01 -6.65,4.84 -6.93,0.31 -13.86,-0.15 -20.79,0.19 0,2.53 0,5.06 0,7.59 5.92,0.19 11.84,0.22 17.76,0.13 -3.9,4.95 -7.63,10.02 -11.5,14.98 -1.9,2.49 -3.88,4.94 -5.31,7.73 -1.44,2.69 -1.49,5.83 -1.56,8.8 -0.04,5.28 0.09,10.56 0.07,15.84 0.18,21.96 -0.69,44.05 -4.7,65.69 -1.61,9.15 -3.03,18.35 -5.35,27.36 -5.25,20.08 -11.26,40.03 -19.63,59.06 -6.8,16.03 -14.59,31.64 -23.42,46.65 -2.07,3.56 -4.42,6.95 -6.32,10.6 -2.26,4.29 -2.77,9.18 -3.65,13.88 -1.33,7.9 -3.78,15.55 -5.98,23.24 -2.69,9.4 -5.88,18.67 -9.75,27.65 -1.6,3.77 -3.81,7.24 -6.24,10.52 -2.2,-9.46 -2.88,-19.44 -7.56,-28.15 -8.62,9.33 -16.35,19.44 -24.94,28.8 -4.34,4.66 -9.15,8.84 -13.67,13.33 -11.76,11.62 -24.01,22.77 -36.93,33.09 -13.47,11.12 -27.49,21.64 -42.52,30.57 -9.82,-6.01 -19.4,-12.43 -28.38,-19.64 -2.17,-1.64 -4.33,-3.4 -6.91,-4.33 -2.03,-0.59 -4.16,-0.35 -6.22,-0.21 -21.11,2.41 -42.41,3.08 -63.64,2.46 5.7,-6.18 12,-11.89 16.6,-18.99 4.01,-6.14 7.89,-12.65 9.36,-19.92 0.8,-3.1 -1.97,-5.35 -3.77,-7.42 -6.5,-6.52 -13.01,-13.05 -18.87,-20.16 -2,-2.24 -3.82,-4.81 -6.51,-6.27 -4.83,0.24 -9.29,2.41 -13.84,3.85 -10.15,3.4 -20.51,7.43 -28.34,15 -5.87,5.49 -8.94,13.08 -12.81,19.95 -5.2,-6.58 -9.49,-13.82 -14.18,-20.76 -7.18,-11.3 -13.05,-23.64 -15.94,-36.75 -2.6,-14.58 -1.23,-30 4.66,-43.65 3.47,-8.92 9.01,-16.78 13.72,-25.05 -1.99,-3.98 -4.16,-7.99 -4.9,-12.43 -0.73,-4.27 0.3,-8.56 0.44,-12.83 0.16,-3.15 -1.16,-6.1 -2.31,-8.95 -4.08,-9.44 -7.26,-19.23 -10.31,-29.04 -6.03,-20.61 -11.43,-41.52 -13.83,-62.91 -1.11,-10.68 -2.28,-21.36 -2.58,-32.1 -0.16,-6.09 -1.11,-12.12 -1.26,-18.21 -0.05,-6.59 0.67,-13.19 0.08,-19.76 -0.33,-4.13 -3.14,-7.38 -5.43,-10.62 -5.05,-7.04 -10.52,-13.78 -15.11,-21.14 7.29,-0.17 14.59,-0.16 21.88,-0.37 -0.03,-2.63 -0.03,-5.26 -0.02,-7.9 C 85.02,96.5 78.48,96.54 71.95,96.7 69.19,96.68 66.35,96.9 63.66,96.16 61.62,94.99 60.36,92.9 58.99,91.07 55.4,85.77 51.63,80.58 48.3,75.11 c 14.31,-0.64 28.64,-0.09 42.96,-0.3 0.01,-2.56 0.02,-5.13 0.02,-7.7 -13.1,-0.41 -26.2,-0.15 -39.3,0.04 -3.16,-0.06 -6.39,0.08 -9.46,-0.79 -1.93,-0.95 -3.15,-2.84 -4.46,-4.47 -3.56,-4.92 -7.1,-9.86 -10.35,-15.01 20.86,-0.4 41.73,-0.05 62.59,-0.09 0.03,-3.77 0.01,-7.54 -0.04,-11.3 17.9,-0.71 35.83,-0.12 53.74,-0.31 11.47,-0.2 23.04,0.76 34.42,-1.19 19.51,-3.09 38.94,-6.69 58.53,-9.19 10.55,-1.27 20.94,-3.59 31.47,-4.99 6.91,-0.94 13.85,-1.75 20.7,-3.06 M 101.35,45.4 c -0.71,7.85 -0.39,15.73 -0.45,23.6 -0.01,19.33 -0.01,38.67 0,58 0.01,7.47 -0.23,14.95 0.07,22.41 12.24,-1.46 24.24,-4.41 36.41,-6.29 3.46,-0.63 7.12,-0.89 10.27,-2.55 1.8,-2.16 1.48,-5.2 1.72,-7.82 0.11,-5.25 -0.19,-10.5 -0.06,-15.75 -0.04,-4.11 0.28,-8.33 -0.84,-12.33 -0.71,-2.54 -3.03,-4.03 -4.93,-5.64 1.75,-1.77 3.88,-3.51 4.28,-6.12 0.72,-3.59 0.53,-7.28 0.55,-10.92 -0.1,-6.67 0.01,-13.35 -0.01,-20.03 -0.07,-3.82 -0.19,-7.84 -1.99,-11.31 -1.13,-2.24 -3.4,-3.74 -5.83,-4.19 -3.8,-0.74 -7.7,-0.57 -11.54,-0.52 -8.87,0.4 -17.77,-0.62 -26.6,0.54 -0.27,-0.27 -0.79,-0.81 -1.05,-1.08 m 56.16,0.13 c -0.34,6.48 -0.17,12.98 -0.17,19.47 -0.01,24.62 0.01,49.25 -0.03,73.87 4.95,-0.58 9.85,-1.51 14.71,-2.59 5.99,-1.35 12.38,-1.34 17.92,-4.28 1.04,0.37 2.11,0.66 3.2,0.91 0.69,-3.45 1.35,-6.91 1.96,-10.38 -6.16,0.4 -12.23,1.51 -18.36,2.12 -0.26,-26.15 -0.12,-52.31 -0.07,-78.46 -6.04,-0.4 -12.11,-0.47 -18.12,0.29 -0.26,-0.24 -0.78,-0.71 -1.04,-0.95 m 43.32,0.99 0.73,0.71 c -0.57,3.56 -0.97,7.15 -0.95,10.76 0.15,15.34 0.06,30.68 0.07,46.01 0.03,5.67 -0.28,11.37 0.51,17 0.45,3 1.49,6.22 4.06,8.08 2.66,0.32 5.34,-0.15 7.98,-0.53 9.16,-1.42 18.12,-3.93 27.35,-4.99 2.68,-0.32 5.28,-1.07 7.75,-2.14 0.49,-5.8 0.96,-11.6 0.83,-17.42 -0.19,-19.29 0.22,-38.58 -0.21,-57.87 -5.89,-0.36 -11.81,-0.38 -17.67,0.34 -0.27,-0.28 -0.79,-0.86 -1.05,-1.15 -0.8,7.54 -0.44,15.12 -0.52,22.68 -0.1,16.24 0.26,32.49 -0.1,48.74 -3.16,0.22 -6.33,0.4 -9.5,0.46 -0.44,-9.4 0.22,-18.8 -0.08,-28.2 -0.28,-14.29 0.44,-28.57 -0.15,-42.85 -6.35,-0.36 -12.73,-0.49 -19.05,0.37 m 55.73,-1.07 c -0.46,6.84 -0.17,13.7 -0.2,20.55 -0.08,17.98 -0.02,35.96 -0.07,53.94 9.83,-1.2 19.44,-3.68 29.22,-5.21 2.54,-0.46 5.15,-0.79 7.56,-1.77 2.01,-2.26 1.56,-5.53 1.81,-8.32 -6.34,0.14 -12.67,-0.13 -19,0 0.37,-2.93 0.18,-5.88 0.17,-8.82 4.97,-0.17 9.95,-0.22 14.93,-0.09 -0.04,-0.39 -0.13,-1.16 -0.17,-1.54 0.17,-2.7 0.31,-5.41 0.45,-8.11 -0.11,-3.19 -0.25,-6.38 -0.42,-9.57 -5.02,0.19 -10.07,0.31 -15.06,-0.39 0.44,-3.33 0.21,-6.7 0.19,-10.04 6.52,0.1 13.06,0.21 19.58,-0.05 -0.36,-3.21 -0.95,-6.4 -1.83,-9.51 l 0.82,-0.02 c -0.52,-3.23 -0.8,-6.5 -1.55,-9.68 -1.16,-0.75 -2.59,-0.76 -3.91,-0.88 -5.69,-0.27 -11.39,0.3 -17.08,0.05 -4.8,-0.2 -9.6,-0.05 -14.38,0.43 -0.27,-0.25 -0.8,-0.73 -1.06,-0.97 m 55.64,0.65 c -0.47,2.56 -1.03,5.12 -1.21,7.73 -0.89,4.03 -1.17,8.16 -1.3,12.27 6.42,0.13 12.85,0.11 19.28,0.08 0.65,13.27 0.16,26.56 0.18,39.83 -3.29,-0.34 -6.58,-1 -9.89,-0.8 0.09,-4.56 0.09,-9.13 0.1,-13.69 -6.03,-0.61 -12.1,-0.51 -18.15,-0.33 0.26,6.8 -1.14,13.92 1.03,20.49 2.3,1.55 5.22,1.7 7.86,2.31 5.39,0.85 10.69,2.38 16.15,2.68 2.86,0.23 4.97,-2.02 7.09,-3.57 l 0.89,0.14 c 1.61,-1.17 3.25,-2.31 4.87,-3.47 2.93,-2.24 6.48,-3.99 8.56,-7.14 0.74,-3.16 0.49,-6.43 0.52,-9.64 -0.22,-15.68 0.2,-31.37 -0.22,-47.05 -11.92,-0.13 -23.85,-0.38 -35.76,0.16 m 56.39,-0.41 c -2.55,15.83 -6.6,31.35 -9.48,47.12 2.56,-2.4 5.14,-4.78 7.8,-7.08 -0.39,11.26 -3.22,22.27 -3.45,33.54 -0.19,1.78 -0.28,3.57 -0.37,5.36 2.81,0.14 5.63,0.28 8.45,0.41 0.55,-4.12 1.53,-8.21 1.57,-12.38 3.6,-0.32 7.22,-0.46 10.85,-0.56 0.86,5.16 0.77,10.53 2.4,15.53 4.28,2.75 9.71,2.64 14.61,3.19 1.2,0.58 2.49,0.94 3.75,1.41 -0.64,-5.86 -1.83,-11.64 -2.91,-17.43 -2.71,-14.01 -5.37,-28.03 -7.89,-42.08 -1.92,-8.81 -3.63,-17.65 -5.11,-26.54 -6.35,-0.42 -12.74,-0.44 -19.07,0.26 -0.29,-0.19 -0.86,-0.57 -1.15,-0.75 m 30.85,0.6 c 0.33,0.33 1,0.99 1.33,1.32 -0.57,2.71 -0.52,5.52 0.3,8.19 2.75,9.55 4.45,19.36 6.78,29.01 2.37,11.01 5,21.96 7.58,32.93 1.33,5.55 1.29,11.29 1.65,16.96 4.99,0.91 9.98,1.92 15.06,2.22 1.46,0.33 2.92,0.66 4.39,0.98 0.09,-4.88 -0.13,-9.79 0.4,-14.66 1.07,-8.33 3.68,-16.34 5.42,-24.54 3.56,-17.66 7.85,-35.16 12.28,-52.61 -6.29,-0.31 -12.6,-0.5 -18.89,-0.21 -0.03,0.42 -0.09,1.25 -0.13,1.67 -2.82,6.98 -2.88,14.61 -4.43,21.89 -1.77,8.27 -2.89,16.66 -4.74,24.9 -2.69,-16.05 -5.31,-32.11 -7.91,-48.17 -6.35,-0.52 -12.74,-0.39 -19.09,0.12 m 60.8,3.6 c -1.46,4.22 -2.6,8.58 -2.52,13.08 -0.02,9.68 0.12,19.36 0.03,29.04 0.11,4.14 -0.04,8.54 1.87,12.34 1.24,2.49 3.91,3.95 6.63,4.11 4.95,0.45 9.92,0.17 14.89,0.38 0.34,6.22 0.26,12.45 -0.11,18.67 -7.28,-0.41 -14.45,-1.89 -21.69,-2.61 l 0.19,0.95 c -0.09,5.69 0.76,11.33 1.73,16.93 11.38,1.83 22.49,5.43 34.07,5.94 2.59,-3.51 4.26,-7.67 4.31,-12.07 0.31,-10.22 -0.05,-20.46 0.14,-30.69 -0.11,-4.01 0.35,-8.37 -1.69,-12 -1.41,-2.45 -4.41,-3.08 -7,-3.27 -4.84,-0.3 -9.7,-0.05 -14.54,-0.13 -0.54,-8.03 -0.39,-16.08 -0.28,-24.12 7.82,-0.78 15.68,-0.51 23.53,-0.62 -0.73,-4.36 -1.45,-8.73 -2.65,-12.98 0,-2.22 -0.34,-4.41 -0.58,-6.61 -9.16,-0.35 -18.35,-0.58 -27.51,-0.09 -3.34,0.04 -6.18,1.92 -8.82,3.75 m -126.43,81.92 c -20.63,11.24 -42.55,19.8 -64.23,28.77 -15.91,6.39 -31.86,12.84 -46.91,21.11 -5.1,2.73 -10.32,5.33 -14.86,8.97 5.7,-1.91 11.17,-4.56 17.12,-5.68 -5.55,4.46 -11.65,8.22 -16.93,13.03 -22.76,19.88 -38.66,48.17 -41.75,78.4 -3.92,2.27 -8.24,4.07 -11.57,7.22 -2.87,2.82 -2.16,7.26 -1.13,10.74 1.15,3.43 2.47,7.02 5.05,9.66 2.68,0.78 5.54,0.26 8.3,0.43 6.33,-0.01 12.05,3.03 17.74,5.43 0.16,-3.27 0.26,-6.56 0.75,-9.8 1.13,-8.27 7.01,-15.67 14.73,-18.8 2.6,-1.16 5.41,-1.87 7.81,-3.44 1.91,-1.52 2.96,-3.81 4.07,-5.92 5.4,-11.14 7.76,-23.4 10.57,-35.37 2.58,-10.39 5.95,-20.86 12.38,-29.58 6.91,-9.87 17.32,-16.49 27.86,-21.92 -3.49,6.56 -6.71,13.59 -6.15,21.22 5.9,-3.37 11.34,-7.65 17.85,-9.86 7.14,-2.89 14.9,-3.85 22.56,-3.41 12.81,0.29 25.24,5 35.74,12.21 15.04,10.35 26.12,25.45 34.3,41.58 3.15,6.27 5.41,12.93 8.22,19.35 1.14,-2.37 2.26,-4.76 3.39,-7.14 1.63,5.21 3.3,10.43 4.2,15.82 1.32,7.42 1.16,14.98 1.7,22.46 2.76,-4.94 4.63,-10.29 7.18,-15.33 2.23,17.03 0.64,34.41 -3.52,51.03 5.3,-5.38 7.52,-12.66 10.33,-19.46 0.96,3.74 1.36,7.59 1.32,11.45 -0.09,7.42 0.09,14.87 -0.84,22.25 -1.94,16.46 -5.2,32.93 -11.47,48.33 -1.17,2.93 -2.83,5.61 -4.57,8.23 -2.11,-5.21 -3.52,-10.69 -6.01,-15.73 -1.57,-3.24 -3.88,-6.03 -6.22,-8.73 -2.79,4.95 -4.72,10.3 -7.14,15.42 -9.59,19.27 -24.03,35.69 -40.02,49.92 -8.65,7.51 -17.94,14.3 -27.74,20.23 -5.21,3.19 -10.81,5.7 -16.04,8.86 5.81,0.05 11.52,-1.08 17.14,-2.47 26.53,-5.07 52,-16.3 73.28,-33 11.36,-8.96 21.25,-19.81 28.96,-32.05 4.79,-7.3 8.25,-15.34 11.58,-23.38 3.57,-8.66 4.97,-17.98 7.43,-26.97 4.71,11.05 7.58,22.77 10.22,34.46 2.64,-7.67 3.68,-15.75 5.26,-23.67 2.4,-12.42 3.57,-25.05 3.65,-37.69 0.05,-8.92 0.09,-17.87 -0.98,-26.73 -0.47,-3.33 -1.12,-6.81 -3.13,-9.58 -2.03,-2.72 -5.06,-4.39 -7.92,-6.06 -21.9,-12.08 -40.87,-29.49 -54.64,-50.38 -5.96,-8.93 -10.24,-18.84 -13.91,-28.89 -2.9,-8.62 -4.69,-17.56 -6.52,-26.44 -3.74,-18.7 -3.94,-37.92 -2.43,-56.87 -4.81,2.36 -9.41,5.11 -14.06,7.77 m -55.59,2.31 c -7.11,0.07 -14.04,1.77 -20.96,3.18 -6.82,1.44 -13.81,2.17 -20.42,4.49 -14.69,3.75 -29.68,6.14 -44.54,9.07 -12.52,1.04 -24.69,4.4 -37.07,6.39 -2.18,0.62 -5.09,0.41 -6.47,2.52 -5.19,0.11 -10.27,1.23 -15.33,2.3 -8.05,1.45 -16.09,3.01 -24.18,4.28 0.27,6.45 -0.97,13.2 1.09,19.43 -0.22,3.34 -0.32,6.7 -0.05,10.05 1.68,17.97 5.15,35.73 9.75,53.17 1.89,7.78 4.48,15.36 6.4,23.12 -0.57,2.27 3.75,1.94 2.86,-0.22 2.73,-3.45 5.92,-6.48 8.97,-9.64 4.47,-4.59 5.27,-11.23 7.14,-17.07 5.08,-14.32 12.4,-27.93 22.33,-39.47 1.5,-1.82 3.08,-3.6 4.22,-5.68 l -0.28,-0.64 c 4.46,-3.77 8.45,-8.05 12.99,-11.73 4.37,-3.58 9.13,-6.64 13.89,-9.68 13.52,-7.74 27,-15.8 41.72,-21.1 3.45,-0.87 6.84,-2.01 10.09,-3.49 6.78,-3.03 13.73,-5.64 20.62,-8.39 2.34,-0.97 4.72,-1.91 6.8,-3.38 l 0.11,-0.8 c 7.82,-3.38 16,-6.08 23.27,-10.59 -7.79,0.33 -15.24,2.88 -22.95,3.88 m 84.53,8.56 c 0.15,13.15 1.54,26.26 3.37,39.27 2.87,16.97 8.37,33.93 18.75,47.86 4.6,3.79 8.92,8.04 11.73,13.37 l -0.39,0.66 c 3.69,4.61 8.09,8.57 12.58,12.38 7.45,6.2 15.09,12.36 23.77,16.77 4.19,2.3 8.63,4.17 12.57,6.89 2.4,1.62 2.82,4.69 3.7,7.23 0.72,5.68 2.14,11.25 2.74,16.95 0.65,6.04 0.72,12.12 1.04,18.19 3.43,-5.37 5.97,-11.23 8.55,-17.03 4.01,-9.21 7.96,-18.45 11.18,-27.97 2.3,-6.94 5.17,-13.71 6.66,-20.9 2.21,-4.17 2.46,-9.07 3.79,-13.55 4.69,-17.32 7.38,-35.12 8.94,-52.98 0.41,-6.05 1.79,-12.23 0.06,-18.2 0.6,-1.38 1,-2.84 1.46,-4.27 -15.6,-3.46 -31.37,-6.07 -47.06,-9.13 -13.73,-2.24 -27.39,-4.88 -41.03,-7.58 -4.62,-1.42 -9.4,-2.16 -14.14,-3 -9.41,-1.77 -18.77,-3.81 -28.27,-4.96 m -187.7,74.36 c 4.02,-1.71 7.9,-3.86 11.08,-6.9 4.11,-3.88 8.41,-7.56 12.78,-11.14 -9.41,3.67 -18.21,9.51 -23.86,18.04 m 64.8,0.99 c -3.37,8.64 -3.05,18.15 -1.92,27.21 2.37,-3.76 5.07,-7.44 6.37,-11.74 0.95,-4.12 0.3,-8.39 0.64,-12.58 0.32,-7.34 3.76,-13.97 5.96,-20.85 -4.96,5.08 -8.75,11.23 -11.05,17.96 m -81.27,31.44 c -1.78,4.23 -2.25,8.9 -4.16,13.08 -2.48,3.47 -6.71,5.16 -9.41,8.46 -3.53,3.94 -4.55,9.62 -3.53,14.72 0.64,3.08 2.4,5.76 3.97,8.44 0.45,-5.04 0.1,-10.46 2.68,-15.01 2.51,-4.27 7.29,-6.24 11.43,-8.54 1.52,-11.06 4.15,-22.05 8.82,-32.23 2.43,-5.37 5.55,-10.4 8.26,-15.62 -8.16,7.19 -13.96,16.7 -18.06,26.7 m 123.08,-16.8 c -2.7,2.21 -5.65,4.4 -7.3,7.55 0.5,2.94 1.93,5.6 2.85,8.42 2.21,6.14 2.31,12.76 2.3,19.21 2.91,-1.22 5.83,-2.54 8.97,-3.06 3.21,-0.52 6.43,0.18 9.61,0.63 -3.82,2.34 -7.71,4.6 -11.08,7.57 -10.46,9.2 -19.2,20.17 -29.71,29.31 -6.15,5.42 -13.11,10.01 -20.76,13.01 -7.51,2.64 -15.61,3.57 -23.53,2.75 -3.74,-0.4 -7.51,-0.42 -11.24,0 12.38,7.29 26.91,10.94 41.27,10.17 12,-0.98 23.28,-6.27 32.96,-13.23 5.46,-3.8 10.11,-8.58 15.1,-12.94 -0.39,3.36 -0.63,6.83 -2.14,9.92 -1.6,3.29 -3.83,6.23 -5.91,9.23 1.61,5.46 3.23,11.03 3.06,16.79 -0.56,17.83 -4.06,35.76 -1.3,53.57 1.51,9.5 6.62,17.8 11.63,25.82 -6.38,-0.24 -12.76,-1.31 -19.15,-0.63 -8.92,1.05 -17.7,4.14 -24.85,9.67 -2.15,1.74 -4.78,3.32 -5.89,5.97 -0.72,3.5 -0.37,7.11 -0.59,10.66 -0.17,7.06 -1.81,14.05 -4.57,20.55 -2.18,5.09 -5.68,9.43 -8.59,14.1 7.18,-2.93 14.21,-6.24 21,-10 26.65,-14.26 51.07,-33.26 69.76,-57.15 13.88,-17.12 24.19,-37.54 27.64,-59.44 1.05,-8.36 0.99,-17.19 -2.39,-25.05 -2.64,-6.28 -7.94,-11.82 -14.74,-13.36 -6.6,-1.89 -13.44,-0.41 -19.96,1.05 3.5,-8.51 7.32,-16.91 9.98,-25.74 2.47,-7.47 3.4,-15.33 4.04,-23.13 0.59,-7.05 -0.12,-14.19 -1.88,-21.03 -1.71,-6.67 -5.58,-12.87 -11.17,-16.95 -4.6,-3.35 -10.66,-3.94 -16.14,-3 -6.49,1.13 -12.1,4.89 -17.28,8.76 m 62.76,-3.95 c 2.66,5.52 5.89,10.75 8.48,16.32 3.45,7.41 6.08,15.19 8.06,23.12 2.38,9 4.25,18.15 5.24,27.42 1.05,11.17 1.14,22.4 1.23,33.61 6.24,-13.49 10.74,-28.28 9.83,-43.29 -1.59,1.34 -3.17,2.69 -4.74,4.04 -3.37,-22.48 -13.13,-44.08 -28.1,-61.22 m -116.04,26.64 c -1.98,8.5 -4.65,16.85 -8.29,24.79 -0.96,1.8 -1.84,4.06 -3.96,4.77 -4.78,1.71 -10.25,2.39 -13.95,6.25 -4.11,3.51 -5.91,8.8 -6.48,14.03 4.43,-3.41 8.28,-7.91 13.74,-9.71 3.94,-1.41 8.26,-1.38 12.12,-3.02 1.47,-1.26 2.17,-3.15 2.93,-4.88 3.63,-9.45 5.45,-19.48 6.7,-29.5 0.64,-6.5 0.87,-13.07 0.08,-19.56 -1.65,5.48 -1.33,11.32 -2.89,16.83 m 26.18,6.59 c 1.28,2.99 3.47,5.46 5.07,8.26 2.11,3.69 3.75,7.63 6.02,11.24 5.87,-10.07 6.4,-22.88 1.22,-33.34 -5.77,2.56 -11.77,7.04 -12.31,13.84 m -7.53,5.37 c -0.68,1.5 -1.45,2.98 -1.83,4.6 0.39,1.35 1.24,2.54 2.28,3.48 -3.46,0.96 -4.03,7 -0.3,7.97 2.48,0.96 4.34,-1.32 6.17,-2.56 1.03,2.91 2.12,5.83 3.73,8.48 0.4,-0.15 1.2,-0.46 1.6,-0.62 0.61,-8.54 -4.58,-16.85 -11.65,-21.35 m -5.92,19.47 c -0.02,1.8 -0.03,3.6 -0.02,5.42 1.85,-0.13 3.7,-0.01 5.56,-0.14 -0.01,-1.72 -0.02,-3.43 -0.02,-5.13 -1.84,-0.15 -3.68,-0.03 -5.52,-0.15 m -105.38,27.18 c -0.44,3.26 0.94,6.35 2.06,9.33 3.08,-3.25 6.75,-6.12 8.94,-10.11 -2.02,-2.82 -4.69,-5.08 -7.2,-7.44 -1.67,2.51 -3.48,5.13 -3.8,8.22 m 25.56,0.41 c -6.01,3.6 -11.33,8.41 -15.37,14.15 4.33,-0.42 8.71,-1.01 13.06,-0.37 6.15,0.85 11.72,3.79 17.17,6.6 5.57,2.87 10.86,6.28 15.76,10.21 -9.65,-3.44 -19.15,-7.59 -29.31,-9.3 -5.4,-0.75 -11.01,-1 -16.33,0.38 -4.19,1.02 -6.73,4.81 -9.04,8.14 -6.49,9.85 -12.29,20.47 -14.77,32.1 -2.1,11.82 -1.05,24.34 3.8,35.38 2.03,4.61 4.21,9.16 6.49,13.65 0.78,1.21 1.31,2.96 2.92,3.29 2.49,-2.89 4.38,-6.23 6.77,-9.19 7.96,-10.02 18.69,-17.65 30.38,-22.74 5.92,-2.8 12.62,-4.68 17.13,-9.72 3.82,-4.26 6.78,-9.19 10.4,-13.62 9.8,-12.46 23.2,-22.7 38.85,-26.33 9.16,-1.94 18.62,-2.7 27.95,-1.65 -2,2.56 -4.62,4.81 -5.73,7.94 0.21,4.49 2.23,8.66 2.89,13.09 1.43,8.95 1.35,18.09 0.71,27.11 -5.87,-1.79 -11.43,-4.56 -17.46,-5.81 -6.92,-1.52 -14.07,-1.59 -21.12,-1.21 -8.94,0.55 -17.97,2.03 -26.17,5.79 -6.27,2.78 -11.34,7.7 -17.79,10.15 -9.72,3.82 -19.53,8.41 -26.64,16.31 5.87,-2.3 11.52,-5.13 17.4,-7.41 15.28,-6.13 31.17,-10.98 47.48,-13.39 10.87,-1.24 21.91,-0.83 32.71,0.84 -4.54,4.15 -10.52,5.94 -16.27,7.69 2.39,4.71 4.62,9.51 6.52,14.45 5.35,-3.19 10.49,-6.81 16.34,-9.06 6.29,-2.67 13.15,-3.34 19.85,-4.24 -1.86,-6.78 -4.23,-13.49 -4.72,-20.56 -1.31,-15.81 0.66,-31.65 2.12,-47.38 0.36,-4.38 -0.59,-8.7 -1.68,-12.9 -6.21,2.29 -11.91,5.83 -18.31,7.64 -10.43,3.33 -21.71,3.76 -32.43,1.6 -9.23,-1.99 -18.19,-5.17 -26.68,-9.29 -8.38,-3.87 -16.34,-8.63 -24.97,-11.93 -3.76,-1.32 -8.21,-2.56 -11.91,-0.41 m 71.75,43.83 c -10.74,4.96 -20.26,12.63 -27.05,22.36 11,-3.34 22.62,-4 34.03,-3.14 5.55,0.44 10.94,1.91 16.42,2.77 -0.31,-3.39 -0.75,-6.75 -1.37,-10.09 -6.61,-1.62 -13.43,-1.93 -20.2,-1.66 5.89,-3.46 12.58,-5.03 19.29,-5.92 -0.67,-3.18 -1.71,-6.26 -3.06,-9.21 -6.15,1.07 -12.35,2.27 -18.06,4.89 m 71.48,125.27 c -4.88,0.93 -9.76,1.9 -14.62,2.97 2.5,2.04 5.14,3.9 7.87,5.64 1.71,-1.64 3.62,-3.15 4.89,-5.18 1.11,0.85 2.23,1.72 3.34,2.6 4.87,-3.13 9.5,-6.59 13.98,-10.26 -5.14,1.48 -10.33,2.72 -15.46,4.23 z"
       id="path220"
       inkscape:connector-curvature="0"
       style="opacity:1;fill:#0f1723" />
    <path
       d="m 119.65,65.2 c 3.48,-0.11 6.95,-0.13 10.43,-0.09 0.45,9.04 0.41,18.09 0.05,27.14 -3.43,0.11 -6.87,0.06 -10.29,-0.21 -0.34,-8.94 0.11,-17.9 -0.19,-26.84 z"
       id="path222"
       inkscape:connector-curvature="0"
       style="opacity:1;fill:#0f1723" />
    <path
       d="m 376.59,95.38 c 0.75,-3.29 1.61,-6.56 2.21,-9.88 0.68,2.9 1.57,5.75 2.68,8.51 -1.63,0.46 -3.27,0.92 -4.89,1.37 z"
       id="path224"
       inkscape:connector-curvature="0"
       style="opacity:1;fill:#0f1723" />
    <path
       d="m 119.97,109.06 c 3.43,0.19 6.86,0.41 10.29,0.73 0.16,7.69 0.19,15.39 -0.07,23.08 -2.37,0.29 -4.75,0.56 -7.11,0.91 -0.74,0.1 -2.22,0.31 -2.96,0.41 -0.51,-8.37 -0.39,-16.76 -0.15,-25.13 z"
       id="path226"
       inkscape:connector-curvature="0"
       style="opacity:1;fill:#0f1723" />
    <path
       d="m 185.62,244.63 c 3.97,-7.06 8.43,-13.94 14.14,-19.73 -1.47,3.1 -3.08,6.13 -4.7,9.15 -4.8,8.89 -8.14,18.47 -11.03,28.12 -1.32,4.26 -1.99,8.69 -2.42,13.12 3.13,-0.32 6.25,-0.68 9.38,-1 -3.47,3.24 -7.21,6.82 -12.15,7.44 -2.26,0.35 -5.14,-0.15 -6.16,-2.48 -0.83,-2.23 -0.91,-4.64 -1.2,-6.98 1.22,0.11 2.45,0.22 3.68,0.33 2.74,-9.57 5.58,-19.23 10.46,-27.97 z"
       id="path228"
       inkscape:connector-curvature="0"
       style="opacity:1;fill:#0f1723" />
    <path
       d="m 179.38,326.72 c 4.33,-0.17 8.58,0.77 12.58,2.35 -2.96,1.27 -5.82,2.84 -8.94,3.71 -2.45,-0.98 -2.79,-3.9 -3.64,-6.06 z"
       id="path230"
       inkscape:connector-curvature="0"
       style="opacity:1;fill:#0f1723" />
  </g>
  <g
     id="#ffffffff"
     transform="matrix(0.08020452,0,0,0.08020452,-0.06255882,2.8831106)">
    <path
       d="m 60,34.74 c 7.38,-0.13 14.83,0.52 22.15,-0.72 1.42,-0.17 2.85,-0.43 4.29,-0.25 1.28,0.54 2.55,1.13 3.82,1.72 0.05,3.76 0.07,7.53 0.04,11.3 -20.86,0.04 -41.73,-0.31 -62.59,0.09 3.25,5.15 6.79,10.09 10.35,15.01 1.31,1.63 2.53,3.52 4.46,4.47 3.07,0.87 6.3,0.73 9.46,0.79 13.1,-0.19 26.2,-0.45 39.3,-0.04 0,2.57 -0.01,5.14 -0.02,7.7 -14.32,0.21 -28.65,-0.34 -42.96,0.3 3.33,5.47 7.1,10.66 10.69,15.96 1.37,1.83 2.63,3.92 4.67,5.09 2.69,0.74 5.53,0.52 8.29,0.54 6.53,-0.16 13.07,-0.2 19.58,0.21 -0.01,2.64 -0.01,5.27 0.02,7.9 -7.29,0.21 -14.59,0.2 -21.88,0.37 4.59,7.36 10.06,14.1 15.11,21.14 2.29,3.24 5.1,6.49 5.43,10.62 0.59,6.57 -0.13,13.17 -0.08,19.76 -5.29,-2.56 -7.86,-8.04 -11.06,-12.62 C 56.09,112.35 33.29,80.49 10.34,48.73 7.1,44.16 3.77,39.65 0.78,34.91 20.52,34.53 40.26,34.85 60,34.74 Z"
       id="path233"
       inkscape:connector-curvature="0"
       style="opacity:1;fill:#ffffff" />
    <path
       d="m 511.24,34.68 1.03,-0.09 c 28.98,0.54 57.98,-0.02 86.98,0.33 -9.82,14.23 -20.17,28.07 -30.18,42.16 -13.61,19.05 -27.44,37.96 -41.02,57.04 -2.52,3.39 -4.88,6.9 -7.2,10.44 -2.63,3.74 -5.6,7.23 -8.59,10.68 -0.42,-0.61 -1.24,-1.85 -1.65,-2.47 0.02,-5.28 -0.11,-10.56 -0.07,-15.84 0.07,-2.97 0.12,-6.11 1.56,-8.8 1.43,-2.79 3.41,-5.24 5.31,-7.73 3.87,-4.96 7.6,-10.03 11.5,-14.98 -5.92,0.09 -11.84,0.06 -17.76,-0.13 0,-2.53 0,-5.06 0,-7.59 6.93,-0.34 13.86,0.12 20.79,-0.19 3.13,0.17 4.96,-2.67 6.65,-4.84 4.12,-5.8 8.65,-11.3 12.69,-17.16 -13.25,-0.38 -26.51,0.19 -39.76,-0.31 -0.12,-2.66 -0.2,-5.33 -0.28,-7.99 12.6,0.26 25.2,-0.01 37.79,0.23 2.82,-0.07 5.76,0.16 8.46,-0.81 2.04,-1.3 3.48,-3.3 4.97,-5.16 3.38,-4.46 6.73,-8.95 9.86,-13.6 -20.35,-0.43 -40.7,0.06 -61.06,-0.08 -0.01,-4.37 -0.03,-8.74 -0.02,-13.11 z"
       id="path235"
       inkscape:connector-curvature="0"
       style="opacity:1;fill:#ffffff" />
    <path
       d="m 102.4,46.48 c 8.83,-1.16 17.73,-0.14 26.6,-0.54 3.84,-0.05 7.74,-0.22 11.54,0.52 2.43,0.45 4.7,1.95 5.83,4.19 1.8,3.47 1.92,7.49 1.99,11.31 0.02,6.68 -0.09,13.36 0.01,20.03 -0.02,3.64 0.17,7.33 -0.55,10.92 -0.4,2.61 -2.53,4.35 -4.28,6.12 1.9,1.61 4.22,3.1 4.93,5.64 1.12,4 0.8,8.22 0.84,12.33 -0.13,5.25 0.17,10.5 0.06,15.75 -0.51,2.25 -1.21,4.5 -2.39,6.5 -2.6,-0.42 -5.11,-1.27 -7.62,-2.04 0.53,-10.57 1.02,-21.19 -0.13,-31.74 -0.69,-6.5 0.7,-12.96 0.66,-19.46 0,-7.03 -0.01,-14.06 0.02,-21.08 -0.15,-3.07 -0.01,-6.4 -1.66,-9.11 -1.25,-0.95 -2.86,-1.2 -4.38,-1.39 -6.95,-0.69 -13.95,0.53 -20.9,-0.2 -4.69,-0.43 -7.46,-4.75 -10.57,-7.75 z"
       id="path237"
       inkscape:connector-curvature="0"
       style="opacity:1;fill:#ffffff" />
    <path
       d="m 158.55,46.48 c 6.01,-0.76 12.08,-0.69 18.12,-0.29 -0.05,26.15 -0.19,52.31 0.07,78.46 6.13,-0.61 12.2,-1.72 18.36,-2.12 -0.61,3.47 -1.27,6.93 -1.96,10.38 -1.09,-0.25 -2.16,-0.54 -3.2,-0.91 -2.58,-0.83 -5.1,-2.3 -7.91,-2.02 -4.95,0.39 -9.79,1.55 -14.71,2.2 -0.04,-23.42 -0.1,-46.85 0.1,-70.27 -0.11,-2.61 -0.22,-5.4 -1.7,-7.66 -1.92,-2.99 -4.62,-5.35 -7.17,-7.77 z"
       id="path239"
       inkscape:connector-curvature="0"
       style="opacity:1;fill:#ffffff" />
    <path
       d="m 200.83,46.52 c 6.32,-0.86 12.7,-0.73 19.05,-0.37 0.59,14.28 -0.13,28.56 0.15,42.85 0.3,9.4 -0.36,18.8 0.08,28.2 l 0.04,1 c 6.68,-1.09 13.52,-1.14 20.06,0.78 0.49,-16.65 -0.09,-33.32 0.29,-49.98 -0.01,-3.82 0.3,-7.78 -1.02,-11.44 -1.87,-4.26 -5.17,-7.64 -8.2,-11.09 5.86,-0.72 11.78,-0.7 17.67,-0.34 0.43,19.29 0.02,38.58 0.21,57.87 0.13,5.82 -0.34,11.62 -0.83,17.42 -10.22,-2.63 -20.17,2.24 -30.36,2.28 -2.45,0.01 -5.51,-0.43 -6.65,-2.93 -1.29,-3.06 -1.05,-6.48 -1.12,-9.72 0.29,-15.36 -0.12,-30.72 0.24,-46.08 -0.1,-3.52 0.28,-7.49 -1.98,-10.47 -1.97,-2.71 -4.53,-4.93 -6.9,-7.27 z"
       id="path241"
       inkscape:connector-curvature="0"
       style="opacity:1;fill:#ffffff" />
    <path
       d="m 257.62,46.42 c 4.78,-0.48 9.58,-0.63 14.38,-0.43 5.69,0.25 11.39,-0.32 17.08,-0.05 1.32,0.12 2.75,0.13 3.91,0.88 0.75,3.18 1.03,6.45 1.55,9.68 -9.17,-0.38 -18.34,0.02 -27.5,-0.34 -2.98,-3.39 -6.09,-6.69 -9.42,-9.74 z"
       id="path243"
       inkscape:connector-curvature="0"
       style="opacity:1;fill:#ffffff" />
    <path
       d="m 312.2,46.1 c 11.91,-0.54 23.84,-0.29 35.76,-0.16 0.42,15.68 0,31.37 0.22,47.05 -0.03,3.21 0.22,6.48 -0.52,9.64 -2.08,3.15 -5.63,4.9 -8.56,7.14 -2,-7.78 -0.95,-15.85 -1.17,-23.77 -0.24,-9.91 0.28,-19.82 0,-29.73 -8.91,-0.1 -17.86,0.7 -26.72,-0.45 -0.06,-0.5 -0.17,-1.5 -0.22,-1.99 0.18,-2.61 0.74,-5.17 1.21,-7.73 z"
       id="path245"
       inkscape:connector-curvature="0"
       style="opacity:1;fill:#ffffff" />
    <path
       d="m 369.74,46.44 c 6.33,-0.7 12.72,-0.68 19.07,-0.26 1.48,8.89 3.19,17.73 5.11,26.54 2.52,14.05 5.18,28.07 7.89,42.08 1.08,5.79 2.27,11.57 2.91,17.43 -1.26,-0.47 -2.55,-0.83 -3.75,-1.41 -2.79,-2.43 -5.43,-5.3 -6.57,-8.9 -1.14,-3.63 -1.46,-7.44 -2.01,-11.19 -0.9,-6.82 -2.4,-13.54 -4.05,-20.22 -2.82,-11.29 -5.54,-22.61 -8.67,-33.82 -0.18,-1.2 -0.36,-2.39 -0.53,-3.59 -3.08,-2.3 -6.18,-4.57 -9.4,-6.66 z"
       id="path247"
       inkscape:connector-curvature="0"
       style="opacity:1;fill:#ffffff" />
    <path
       d="m 399.44,46.29 c 6.35,-0.51 12.74,-0.64 19.09,-0.12 2.6,16.06 5.22,32.12 7.91,48.17 0.92,6.66 2.63,13.17 4.08,19.73 3.95,-16.54 7.12,-33.24 11.09,-49.77 0.51,-2.87 1.44,-6.11 -0.11,-8.83 -1.6,-2.89 -3.94,-5.27 -5.89,-7.92 0.04,-0.42 0.1,-1.25 0.13,-1.67 6.29,-0.29 12.6,-0.1 18.89,0.21 -4.43,17.45 -8.72,34.95 -12.28,52.61 -1.74,8.2 -4.35,16.21 -5.42,24.54 -0.53,4.87 -0.31,9.78 -0.4,14.66 -1.47,-0.32 -2.93,-0.65 -4.39,-0.98 0.46,0.04 1.38,0.11 1.85,0.14 -2.47,-2.21 -5.26,-4.15 -7.14,-6.92 -1.21,-2.41 -1.24,-5.19 -1.65,-7.81 -0.52,-4.91 -1.71,-9.71 -2.89,-14.49 -3.03,-12.8 -6.05,-25.61 -8.78,-38.48 -0.98,-4.13 -1.69,-8.43 -3.82,-12.16 -2.34,-3.73 -5.82,-6.54 -8.94,-9.59 -0.33,-0.33 -1,-0.99 -1.33,-1.32 z"
       id="path249"
       inkscape:connector-curvature="0"
       style="opacity:1;fill:#ffffff" />
    <path
       d="m 460.24,49.89 c 2.64,-1.83 5.48,-3.71 8.82,-3.75 9.16,-0.49 18.35,-0.26 27.51,0.09 0.24,2.2 0.58,4.39 0.58,6.61 -0.06,0.48 -0.18,1.45 -0.24,1.94 -7.61,0.81 -15.29,-0.09 -22.91,0.72 -2.45,0.14 -4.95,0.68 -7.39,0.22 -2.67,-1.21 -4.37,-3.79 -6.37,-5.83 z"
       id="path251"
       inkscape:connector-curvature="0"
       style="opacity:1;fill:#ffffff" />
    <path
       d="m 275.78,76.12 c 4.99,0.7 10.04,0.58 15.06,0.39 0.17,3.19 0.31,6.38 0.42,9.57 -7.85,0.49 -15.76,0.64 -23.54,-0.67 2.63,-2.52 5.09,-5.22 7.35,-8.07 0.18,-0.31 0.54,-0.92 0.71,-1.22 z"
       id="path253"
       inkscape:connector-curvature="0"
       style="opacity:1;fill:#ffffff" />
    <path
       d="m 469.34,99.37 c 2.29,-3.02 4.69,-5.97 7.21,-8.81 4.84,0.08 9.7,-0.17 14.54,0.13 2.59,0.19 5.59,0.82 7,3.27 2.04,3.63 1.58,7.99 1.69,12 -0.19,10.23 0.17,20.47 -0.14,30.69 -0.05,4.4 -1.72,8.56 -4.31,12.07 -1.43,-2.29 -2.98,-4.52 -4.02,-7.02 -1.05,-2.48 -0.77,-5.23 -0.64,-7.84 0.67,-8.61 0.87,-17.27 0.46,-25.9 -0.27,-2.32 -0.42,-5.45 -2.96,-6.47 -6.19,-1.35 -12.58,-1.2 -18.83,-2.12 z"
       id="path255"
       inkscape:connector-curvature="0"
       style="opacity:1;fill:#ffffff" />
    <path
       d="m 301.89,91.81 c 5.82,-0.17 11.64,-0.23 17.47,-0.29 -0.01,4.56 -0.01,9.13 -0.1,13.69 -2.96,0.38 -5.86,1.07 -8.75,1.75 -0.73,-2.96 -0.88,-6.26 -2.81,-8.76 -1.72,-2.32 -3.83,-4.31 -5.81,-6.39 z"
       id="path257"
       inkscape:connector-curvature="0"
       style="opacity:1;fill:#ffffff" />
    <path
       d="m 111.39,100.61 c 2.77,-2.6 5.6,-5.15 8.47,-7.65 3.58,-0.08 7.26,-0.61 10.78,0.28 2.86,1.99 4.61,5.13 6.63,7.89 -8.63,-0.31 -17.26,0.02 -25.88,-0.52 z"
       id="path259"
       inkscape:connector-curvature="0"
       style="opacity:1;fill:#ffffff" />
    <path
       d="m 375.94,97.08 c 2.34,-0.71 4.83,-0.55 7.26,-0.62 1.86,2.03 3.93,3.84 5.96,5.7 -6.51,0.37 -13.06,0.41 -19.53,-0.44 1.98,-1.68 3.84,-3.67 6.31,-4.64 z"
       id="path261"
       inkscape:connector-curvature="0"
       style="opacity:1;fill:#ffffff" />
    <path
       d="m 275.31,105.21 0.57,-0.57 c 6.33,-0.13 12.66,0.14 19,0 -0.45,1.77 -0.9,3.54 -1.28,5.33 -8.2,1.57 -16.47,2.83 -24.81,3.46 1.76,-3.04 3.97,-5.79 6.52,-8.22 z"
       id="path263"
       inkscape:connector-curvature="0"
       style="opacity:1;fill:#ffffff" />
    <path
       d="m 123.08,133.78 c 2.36,-0.35 4.74,-0.62 7.11,-0.91 2.11,1.81 4.2,3.64 6.26,5.51 -8.19,2.4 -16.73,3.24 -25.09,4.91 3.33,-3.8 6.98,-7.52 11.72,-9.51 z"
       id="path265"
       inkscape:connector-curvature="0"
       style="opacity:1;fill:#ffffff" />
  </g>
  <g
     id="#848484ff"
     transform="matrix(0.08020452,0,0,0.08020452,-0.06255882,2.8831106)">
    <path
       d="m 101.35,45.4 c 0.26,0.27 0.78,0.81 1.05,1.08 3.11,3 5.88,7.32 10.57,7.75 6.95,0.73 13.95,-0.49 20.9,0.2 1.52,0.19 3.13,0.44 4.38,1.39 1.65,2.71 1.51,6.04 1.66,9.11 -0.03,7.02 -0.02,14.05 -0.02,21.08 0.04,6.5 -1.35,12.96 -0.66,19.46 1.15,10.55 0.66,21.17 0.13,31.74 2.51,0.77 5.02,1.62 7.62,2.04 1.18,-2 1.88,-4.25 2.39,-6.5 -0.24,2.62 0.08,5.66 -1.72,7.82 -3.15,1.66 -6.81,1.92 -10.27,2.55 -12.17,1.88 -24.17,4.83 -36.41,6.29 -0.3,-7.46 -0.06,-14.94 -0.07,-22.41 -0.01,-19.33 -0.01,-38.67 0,-58 0.06,-7.87 -0.26,-15.75 0.45,-23.6 m 9.54,10.35 c -0.37,6.08 -0.31,12.16 -0.26,18.25 0.07,9.05 -0.19,18.11 0.16,27.16 l 0.6,-0.55 c 8.62,0.54 17.25,0.21 25.88,0.52 -2.02,-2.76 -3.77,-5.9 -6.63,-7.89 -3.52,-0.89 -7.2,-0.36 -10.78,-0.28 l -0.02,-0.92 c 3.42,0.27 6.86,0.32 10.29,0.21 0.36,-9.05 0.4,-18.1 -0.05,-27.14 -3.48,-0.04 -6.95,-0.02 -10.43,0.09 -1.44,-4.18 -5.61,-6.61 -8.76,-9.45 m 0.01,45.95 c -0.59,9.09 -0.1,18.2 -0.29,27.3 -0.15,4.77 -0.13,9.58 0.75,14.29 8.36,-1.67 16.9,-2.51 25.09,-4.91 -2.06,-1.87 -4.15,-3.7 -6.26,-5.51 0.26,-7.69 0.23,-15.39 0.07,-23.08 -3.43,-0.32 -6.86,-0.54 -10.29,-0.73 -2.86,-2.66 -5.88,-5.12 -9.07,-7.36 z"
       id="path268"
       inkscape:connector-curvature="0"
       style="opacity:1;fill:#848484" />
    <path
       d="m 157.51,45.53 c 0.26,0.24 0.78,0.71 1.04,0.95 2.55,2.42 5.25,4.78 7.17,7.77 1.48,2.26 1.59,5.05 1.7,7.66 -0.2,23.42 -0.14,46.85 -0.1,70.27 4.92,-0.65 9.76,-1.81 14.71,-2.2 2.81,-0.28 5.33,1.19 7.91,2.02 -5.54,2.94 -11.93,2.93 -17.92,4.28 -4.86,1.08 -9.76,2.01 -14.71,2.59 0.04,-24.62 0.02,-49.25 0.03,-73.87 0,-6.49 -0.17,-12.99 0.17,-19.47 z"
       id="path270"
       inkscape:connector-curvature="0"
       style="opacity:1;fill:#848484" />
    <path
       d="m 230.23,45.32 c 0.26,0.29 0.78,0.87 1.05,1.15 3.03,3.45 6.33,6.83 8.2,11.09 1.32,3.66 1.01,7.62 1.02,11.44 -0.38,16.66 0.2,33.33 -0.29,49.98 -6.54,-1.92 -13.38,-1.87 -20.06,-0.78 l -0.04,-1 c 3.17,-0.06 6.34,-0.24 9.5,-0.46 0.36,-16.25 0,-32.5 0.1,-48.74 0.08,-7.56 -0.28,-15.14 0.52,-22.68 z"
       id="path272"
       inkscape:connector-curvature="0"
       style="opacity:1;fill:#848484" />
    <path
       d="m 368.59,45.69 c 0.29,0.18 0.86,0.56 1.15,0.75 3.22,2.09 6.32,4.36 9.4,6.66 -3.76,16.16 -8.2,32.16 -11.61,48.39 0.52,0.06 1.57,0.17 2.1,0.23 6.47,0.85 13.02,0.81 19.53,0.44 -2.03,-1.86 -4.1,-3.67 -5.96,-5.7 -0.62,-0.79 -1.19,-1.61 -1.72,-2.45 -1.11,-2.76 -2,-5.61 -2.68,-8.51 0.26,-9.61 -0.36,-19.25 0.87,-28.81 3.13,11.21 5.85,22.53 8.67,33.82 1.65,6.68 3.15,13.4 4.05,20.22 0.55,3.75 0.87,7.56 2.01,11.19 1.14,3.6 3.78,6.47 6.57,8.9 -4.9,-0.55 -10.33,-0.44 -14.61,-3.19 -1.63,-5 -1.54,-10.37 -2.4,-15.53 -3.63,0.1 -7.25,0.24 -10.85,0.56 -1.52,-3.37 -3.77,-6.33 -6.05,-9.21 -1.65,5.15 -3.03,10.42 -3.6,15.82 0.23,-11.27 3.06,-22.28 3.45,-33.54 -2.66,2.3 -5.24,4.68 -7.8,7.08 2.88,-15.77 6.93,-31.29 9.48,-47.12 z"
       id="path274"
       inkscape:connector-curvature="0"
       style="opacity:1;fill:#848484" />
    <path
       d="m 200.61,57.99 c -0.02,-3.61 0.38,-7.2 0.95,-10.76 2.37,2.34 4.93,4.56 6.9,7.27 2.26,2.98 1.88,6.95 1.98,10.47 -0.36,15.36 0.05,30.72 -0.24,46.08 0.07,3.24 -0.17,6.66 1.12,9.72 1.14,2.5 4.2,2.94 6.65,2.93 10.19,-0.04 20.14,-4.91 30.36,-2.28 -2.47,1.07 -5.07,1.82 -7.75,2.14 -9.23,1.06 -18.19,3.57 -27.35,4.99 -2.64,0.38 -5.32,0.85 -7.98,0.53 -2.57,-1.86 -3.61,-5.08 -4.06,-8.08 -0.79,-5.63 -0.48,-11.33 -0.51,-17 -0.01,-15.33 0.08,-30.67 -0.07,-46.01 z"
       id="path276"
       inkscape:connector-curvature="0"
       style="opacity:1;fill:#848484" />
    <path
       d="m 401.07,55.8 c -0.82,-2.67 -0.87,-5.48 -0.3,-8.19 3.12,3.05 6.6,5.86 8.94,9.59 2.13,3.73 2.84,8.03 3.82,12.16 2.73,12.87 5.75,25.68 8.78,38.48 1.18,4.78 2.37,9.58 2.89,14.49 0.41,2.62 0.44,5.4 1.65,7.81 1.88,2.77 4.67,4.71 7.14,6.92 -0.47,-0.03 -1.39,-0.1 -1.85,-0.14 -5.08,-0.3 -10.07,-1.31 -15.06,-2.22 -0.36,-5.67 -0.32,-11.41 -1.65,-16.96 -2.58,-10.97 -5.21,-21.92 -7.58,-32.93 -2.33,-9.65 -4.03,-19.46 -6.78,-29.01 z"
       id="path278"
       inkscape:connector-curvature="0"
       style="opacity:1;fill:#848484" />
    <path
       d="m 431.18,69.44 c 1.55,-7.28 1.61,-14.91 4.43,-21.89 1.95,2.65 4.29,5.03 5.89,7.92 1.55,2.72 0.62,5.96 0.11,8.83 -3.97,16.53 -7.14,33.23 -11.09,49.77 -1.45,-6.56 -3.16,-13.07 -4.08,-19.73 1.85,-8.24 2.97,-16.63 4.74,-24.9 z"
       id="path280"
       inkscape:connector-curvature="0"
       style="opacity:1;fill:#848484" />
    <path
       d="m 457.72,62.97 c -0.08,-4.5 1.06,-8.86 2.52,-13.08 2,2.04 3.7,4.62 6.37,5.83 2.44,0.46 4.94,-0.08 7.39,-0.22 7.62,-0.81 15.3,0.09 22.91,-0.72 0.06,-0.49 0.18,-1.46 0.24,-1.94 1.2,4.25 1.92,8.62 2.65,12.98 -7.85,0.11 -15.71,-0.16 -23.53,0.62 -2.66,-2.56 -5.36,-5.07 -8.1,-7.54 -0.39,10.04 -0.06,20.08 -0.32,30.12 0.06,3.64 -0.24,7.48 1.27,10.89 1.41,1.13 3.27,1.46 5.03,1.65 4.66,0.41 9.34,-0.15 14.02,-0.07 2.54,1.02 2.69,4.15 2.96,6.47 0.41,8.63 0.21,17.29 -0.46,25.9 -0.13,2.61 -0.41,5.36 0.64,7.84 1.04,2.5 2.59,4.73 4.02,7.02 -11.58,-0.51 -22.69,-4.11 -34.07,-5.94 -0.97,-5.6 -1.82,-11.24 -1.73,-16.93 0.48,2.43 0.99,4.86 1.47,7.29 8.84,2.25 17.87,3.65 26.91,4.86 -2.27,-3.52 -4.55,-7.02 -6.88,-10.49 0.37,-6.22 0.45,-12.45 0.11,-18.67 -4.97,-0.21 -9.94,0.07 -14.89,-0.38 -2.72,-0.16 -5.39,-1.62 -6.63,-4.11 -1.91,-3.8 -1.76,-8.2 -1.87,-12.34 0.09,-9.68 -0.05,-19.36 -0.03,-29.04 z"
       id="path282"
       inkscape:connector-curvature="0"
       style="opacity:1;fill:#848484" />
    <path
       d="m 309.69,66.1 c 0.13,-4.11 0.41,-8.24 1.3,-12.27 0.05,0.49 0.16,1.49 0.22,1.99 8.86,1.15 17.81,0.35 26.72,0.45 0.28,9.91 -0.24,19.82 0,29.73 0.22,7.92 -0.83,15.99 1.17,23.77 -1.62,1.16 -3.26,2.3 -4.87,3.47 -1.67,-2.42 -3.37,-4.83 -5.08,-7.23 -0.02,-13.27 0.47,-26.56 -0.18,-39.83 -6.43,0.03 -12.86,0.05 -19.28,-0.08 z"
       id="path284"
       inkscape:connector-curvature="0"
       style="opacity:1;fill:#848484" />
    <path
       d="m 268.06,56.85 c 8.55,-0.45 17.11,0.07 25.66,-0.33 0.88,3.11 1.47,6.3 1.83,9.51 -6.52,0.26 -13.06,0.15 -19.58,0.05 0.02,3.34 0.25,6.71 -0.19,10.04 -0.17,0.3 -0.53,0.91 -0.71,1.22 0.21,-3.69 0.75,-7.47 -0.15,-11.11 -1.29,-3.74 -4.34,-6.46 -6.86,-9.38 z"
       id="path286"
       inkscape:connector-curvature="0"
       style="opacity:1;fill:#848484" />
    <path
       d="m 268.12,86.94 c 7.29,-0.38 14.61,-0.47 21.9,0.04 0.25,2.41 0.52,4.81 0.79,7.21 0.04,0.38 0.13,1.15 0.17,1.54 -4.98,-0.13 -9.96,-0.08 -14.93,0.09 0.01,2.94 0.2,5.89 -0.17,8.82 l -0.57,0.57 c 0.03,-3.27 0.44,-6.66 -0.57,-9.84 -1.39,-3.36 -4.21,-5.8 -6.62,-8.43 z"
       id="path288"
       inkscape:connector-curvature="0"
       style="opacity:1;fill:#848484" />
    <path
       d="m 301.21,91.19 c 6.05,-0.18 12.12,-0.28 18.15,0.33 -5.83,0.06 -11.65,0.12 -17.47,0.29 1.98,2.08 4.09,4.07 5.81,6.39 1.93,2.5 2.08,5.8 2.81,8.76 1.76,1.63 3.96,2.71 6.31,3.22 5.45,1.29 11.01,1.96 16.52,2.92 -2.12,1.55 -4.23,3.8 -7.09,3.57 -5.46,-0.3 -10.76,-1.83 -16.15,-2.68 -2.64,-0.61 -5.56,-0.76 -7.86,-2.31 -2.17,-6.57 -0.77,-13.69 -1.03,-20.49 z"
       id="path290"
       inkscape:connector-curvature="0"
       style="opacity:1;fill:#848484" />
  </g>
  <g
     id="#858585ff"
     transform="matrix(0.08020452,0,0,0.08020452,-0.06255882,2.8831106)">
    <path
       d="m 256.56,45.45 c 0.26,0.24 0.79,0.72 1.06,0.97 3.33,3.05 6.44,6.35 9.42,9.74 -0.16,9.73 -0.12,19.45 -0.14,29.18 -0.01,9.42 0.06,18.85 0.04,28.27 0.46,-0.04 1.39,-0.13 1.85,-0.18 8.34,-0.63 16.61,-1.89 24.81,-3.46 0.38,-1.79 0.83,-3.56 1.28,-5.33 -0.25,2.79 0.2,6.06 -1.81,8.32 -2.41,0.98 -5.02,1.31 -7.56,1.77 -9.78,1.53 -19.39,4.01 -29.22,5.21 0.05,-17.98 -0.01,-35.96 0.07,-53.94 0.03,-6.85 -0.26,-13.71 0.2,-20.55 z"
       id="path293"
       inkscape:connector-curvature="0"
       style="opacity:1;fill:#858585" />
  </g>
  <g
     id="#b3b3b3ff"
     transform="matrix(0.08020452,0,0,0.08020452,-0.06255882,2.8831106)">
    <path
       d="m 379.14,53.1 c 0.17,1.2 0.35,2.39 0.53,3.59 -1.23,9.56 -0.61,19.2 -0.87,28.81 -0.6,3.32 -1.46,6.59 -2.21,9.88 1.62,-0.45 3.26,-0.91 4.89,-1.37 0.53,0.84 1.1,1.66 1.72,2.45 -2.43,0.07 -4.92,-0.09 -7.26,0.62 -2.47,0.97 -4.33,2.96 -6.31,4.64 -0.53,-0.06 -1.58,-0.17 -2.1,-0.23 3.41,-16.23 7.85,-32.23 11.61,-48.39 z"
       id="path296"
       inkscape:connector-curvature="0"
       style="opacity:1;fill:#b3b3b3" />
    <path
       d="m 267.04,56.16 c 9.16,0.36 18.33,-0.04 27.5,0.34 l -0.82,0.02 c -8.55,0.4 -17.11,-0.12 -25.66,0.33 2.52,2.92 5.57,5.64 6.86,9.38 0.9,3.64 0.36,7.42 0.15,11.11 -2.26,2.85 -4.72,5.55 -7.35,8.07 l -0.82,-0.07 c 0.02,-9.73 -0.02,-19.45 0.14,-29.18 z"
       id="path298"
       inkscape:connector-curvature="0"
       style="opacity:1;fill:#b3b3b3" />
    <path
       d="m 367.06,103.45 c 2.28,2.88 4.53,5.84 6.05,9.21 -0.04,4.17 -1.02,8.26 -1.57,12.38 -2.82,-0.13 -5.64,-0.27 -8.45,-0.41 0.09,-1.79 0.18,-3.58 0.37,-5.36 0.57,-5.4 1.95,-10.67 3.6,-15.82 z"
       id="path300"
       inkscape:connector-curvature="0"
       style="opacity:1;fill:#b3b3b3" />
  </g>
  <g
     id="#ccccccff"
     transform="matrix(0.08020452,0,0,0.08020452,-0.06255882,2.8831106)">
    <path
       d="m 110.89,55.75 c 3.15,2.84 7.32,5.27 8.76,9.45 0.3,8.94 -0.15,17.9 0.19,26.84 l 0.02,0.92 c -2.87,2.5 -5.7,5.05 -8.47,7.65 l -0.6,0.55 C 110.44,92.11 110.7,83.05 110.63,74 c -0.05,-6.09 -0.11,-12.17 0.26,-18.25 z"
       id="path303"
       inkscape:connector-curvature="0"
       style="opacity:1;fill:#cccccc" />
    <path
       d="m 266.9,85.34 0.82,0.07 c 7.78,1.31 15.69,1.16 23.54,0.67 -0.14,2.7 -0.28,5.41 -0.45,8.11 -0.27,-2.4 -0.54,-4.8 -0.79,-7.21 -7.29,-0.51 -14.61,-0.42 -21.9,-0.04 2.41,2.63 5.23,5.07 6.62,8.43 1.01,3.18 0.6,6.57 0.57,9.84 -2.55,2.43 -4.76,5.18 -6.52,8.22 -0.46,0.05 -1.39,0.14 -1.85,0.18 0.02,-9.42 -0.05,-18.85 -0.04,-28.27 z"
       id="path305"
       inkscape:connector-curvature="0"
       style="opacity:1;fill:#cccccc" />
    <path
       d="m 110.9,101.7 c 3.19,2.24 6.21,4.7 9.07,7.36 -0.24,8.37 -0.36,16.76 0.15,25.13 0.74,-0.1 2.22,-0.31 2.96,-0.41 -4.74,1.99 -8.39,5.71 -11.72,9.51 -0.88,-4.71 -0.9,-9.52 -0.75,-14.29 0.19,-9.1 -0.3,-18.21 0.29,-27.3 z"
       id="path307"
       inkscape:connector-curvature="0"
       style="opacity:1;fill:#cccccc" />
    <path
       d="m 310.51,106.96 c 2.89,-0.68 5.79,-1.37 8.75,-1.75 3.31,-0.2 6.6,0.46 9.89,0.8 1.71,2.4 3.41,4.81 5.08,7.23 l -0.89,-0.14 c -5.51,-0.96 -11.07,-1.63 -16.52,-2.92 -2.35,-0.51 -4.55,-1.59 -6.31,-3.22 z"
       id="path309"
       inkscape:connector-curvature="0"
       style="opacity:1;fill:#cccccc" />
    <path
       d="m 459.34,124.9 c 7.24,0.72 14.41,2.2 21.69,2.61 2.33,3.47 4.61,6.97 6.88,10.49 -9.04,-1.21 -18.07,-2.61 -26.91,-4.86 -0.48,-2.43 -0.99,-4.86 -1.47,-7.29 z"
       id="path311"
       inkscape:connector-curvature="0"
       style="opacity:1;fill:#cccccc" />
  </g>
  <g
     id="#cbcbcbff"
     transform="matrix(0.08020452,0,0,0.08020452,-0.06255882,2.8831106)">
    <path
       d="m 468.17,58.9 c 2.74,2.47 5.44,4.98 8.1,7.54 -0.11,8.04 -0.26,16.09 0.28,24.12 -2.52,2.84 -4.92,5.79 -7.21,8.81 6.25,0.92 12.64,0.77 18.83,2.12 -4.68,-0.08 -9.36,0.48 -14.02,0.07 -1.76,-0.19 -3.62,-0.52 -5.03,-1.65 -1.51,-3.41 -1.21,-7.25 -1.27,-10.89 0.26,-10.04 -0.07,-20.08 0.32,-30.12 z"
       id="path314"
       inkscape:connector-curvature="0"
       style="opacity:1;fill:#cbcbcb" />
  </g>
  <g
     id="#0f74bcff"
     transform="matrix(0.08020452,0,0,0.08020452,-0.06255882,2.8831106)">
    <path
       d="m 333.81,131.81 c 4.65,-2.66 9.25,-5.41 14.06,-7.77 -1.51,18.95 -1.31,38.17 2.43,56.87 1.83,8.88 3.62,17.82 6.52,26.44 3.67,10.05 7.95,19.96 13.91,28.89 13.77,20.89 32.74,38.3 54.64,50.38 2.86,1.67 5.89,3.34 7.92,6.06 2.01,2.77 2.66,6.25 3.13,9.58 1.07,8.86 1.03,17.81 0.98,26.73 -0.08,12.64 -1.25,25.27 -3.65,37.69 -1.58,7.92 -2.62,16 -5.26,23.67 -2.64,-11.69 -5.51,-23.41 -10.22,-34.46 -2.46,8.99 -3.86,18.31 -7.43,26.97 -3.33,8.04 -6.79,16.08 -11.58,23.38 -7.71,12.24 -17.6,23.09 -28.96,32.05 -21.28,16.7 -46.75,27.93 -73.28,33 -5.62,1.39 -11.33,2.52 -17.14,2.47 5.23,-3.16 10.83,-5.67 16.04,-8.86 9.8,-5.93 19.09,-12.72 27.74,-20.23 15.99,-14.23 30.43,-30.65 40.02,-49.92 2.42,-5.12 4.35,-10.47 7.14,-15.42 2.34,2.7 4.65,5.49 6.22,8.73 2.49,5.04 3.9,10.52 6.01,15.73 1.74,-2.62 3.4,-5.3 4.57,-8.23 6.27,-15.4 9.53,-31.87 11.47,-48.33 0.93,-7.38 0.75,-14.83 0.84,-22.25 0.04,-3.86 -0.36,-7.71 -1.32,-11.45 -2.81,6.8 -5.03,14.08 -10.33,19.46 4.16,-16.62 5.75,-34 3.52,-51.03 -2.55,5.04 -4.42,10.39 -7.18,15.33 -0.54,-7.48 -0.38,-15.04 -1.7,-22.46 -0.9,-5.39 -2.57,-10.61 -4.2,-15.82 -1.13,2.38 -2.25,4.77 -3.39,7.14 -2.81,-6.42 -5.07,-13.08 -8.22,-19.35 -8.18,-16.13 -19.26,-31.23 -34.3,-41.58 -10.5,-7.21 -22.93,-11.92 -35.74,-12.21 -7.66,-0.44 -15.42,0.52 -22.56,3.41 -6.51,2.21 -11.95,6.49 -17.85,9.86 -0.56,-7.63 2.66,-14.66 6.15,-21.22 -10.54,5.43 -20.95,12.05 -27.86,21.92 -6.43,8.72 -9.8,19.19 -12.38,29.58 -2.81,11.97 -5.17,24.23 -10.57,35.37 -1.11,2.11 -2.16,4.4 -4.07,5.92 -2.4,1.57 -5.21,2.28 -7.81,3.44 -7.72,3.13 -13.6,10.53 -14.73,18.8 -0.49,3.24 -0.59,6.53 -0.75,9.8 -5.69,-2.4 -11.41,-5.44 -17.74,-5.43 -2.76,-0.17 -5.62,0.35 -8.3,-0.43 -2.58,-2.64 -3.9,-6.23 -5.05,-9.66 -1.03,-3.48 -1.74,-7.92 1.13,-10.74 3.33,-3.15 7.65,-4.95 11.57,-7.22 3.09,-30.23 18.99,-58.52 41.75,-78.4 5.28,-4.81 11.38,-8.57 16.93,-13.03 -5.95,1.12 -11.42,3.77 -17.12,5.68 4.54,-3.64 9.76,-6.24 14.86,-8.97 15.05,-8.27 31,-14.72 46.91,-21.11 21.68,-8.97 43.6,-17.53 64.23,-28.77 m -3.48,9.54 c -32.41,17 -67.59,27.81 -100.27,44.22 1.31,0.28 2.62,0.57 3.94,0.86 -4.37,2.85 -8.88,5.48 -13.2,8.4 -12.85,8.89 -24.35,19.91 -32.98,32.99 -1.46,2.28 -2.67,4.7 -3.85,7.14 9.52,-9.53 17.94,-20.74 30.07,-27.14 -2.67,5.9 -6.26,11.33 -9.04,17.18 -4.09,8.55 -7.78,17.31 -10.71,26.33 -1.25,3.8 -1.87,7.76 -2.26,11.72 5.72,-10.03 9.56,-21.21 17.03,-30.19 -0.41,11.11 -2.2,22.24 -0.63,33.35 1.08,-3.35 1.99,-6.75 2.64,-10.21 2.64,-14.07 5.55,-28.27 11.59,-41.34 5.04,-10.84 12.21,-20.99 22.09,-27.92 7.16,-5.1 15.54,-7.96 23.48,-11.56 3.47,-1.57 7,-3.02 10.58,-4.34 -4.57,6.25 -9.98,12.37 -11.18,20.33 7.7,-1.03 15.01,-3.93 22.73,-4.77 5.75,-0.69 11.6,-0.34 17.24,0.94 11.2,2.42 22.01,6.96 31.26,13.78 3.63,2.71 7.15,5.56 10.85,8.18 -2.1,-8.48 -3.89,-17.03 -6.26,-25.43 -2.06,1.77 -4.13,3.54 -6.2,5.29 1.47,-4.94 2.61,-9.98 3.13,-15.11 -2.54,2.9 -5.21,5.72 -8.18,8.19 2.07,-6.1 5.19,-11.9 6,-18.38 -3.17,2.94 -6,6.25 -9.28,9.07 -2.65,2.29 -5.8,3.85 -8.94,5.34 3.64,-5.72 8.39,-10.68 11.56,-16.72 4.05,-7.66 6.96,-15.95 8.35,-24.52 -3.25,1.3 -6.46,2.71 -9.56,4.32 M 185.62,244.63 c -4.88,8.74 -7.72,18.4 -10.46,27.97 -1.23,-0.11 -2.46,-0.22 -3.68,-0.33 0.29,2.34 0.37,4.75 1.2,6.98 1.02,2.33 3.9,2.83 6.16,2.48 4.94,-0.62 8.68,-4.2 12.15,-7.44 -3.13,0.32 -6.25,0.68 -9.38,1 0.43,-4.43 1.1,-8.86 2.42,-13.12 2.89,-9.65 6.23,-19.23 11.03,-28.12 1.62,-3.02 3.23,-6.05 4.7,-9.15 -5.71,5.79 -10.17,12.67 -14.14,19.73 m 207.43,28.27 c 1.57,4.82 3.47,9.55 4.45,14.54 0.82,4.19 1.29,8.45 1.95,12.67 1.76,-2.36 3.49,-4.76 5.23,-7.14 0.9,4.61 1.41,9.28 1.62,13.98 1.56,21.9 -0.07,44.06 -4.8,65.51 -1.45,6.62 -3.6,13.07 -5.17,19.66 11.59,-20.2 16.58,-43.41 19.28,-66.33 5.84,9.66 7.53,21.01 11.32,31.5 2.13,-8.13 2.85,-16.53 3.56,-24.87 0.88,-10.52 0.4,-21.21 -1.95,-31.52 -1.32,5.17 -2.16,10.44 -3.52,15.59 -3.44,-7.84 -4.24,-16.61 -8.27,-24.21 -1.78,-3.46 -4.99,-5.8 -8.1,-7.95 -5.34,-3.63 -10.14,-7.98 -15.6,-11.43 m -230.64,14.66 c -0.97,2.11 -0.7,4.67 0.22,6.77 1.2,2.17 3.33,3.59 5.18,5.17 3.46,-4.91 8.09,-8.75 13.24,-11.79 -5.17,0.08 -10.18,1.39 -14.94,3.34 0.05,-2.26 0.09,-4.51 0.11,-6.76 -1.31,1.04 -2.69,2.02 -3.81,3.27 m 206.34,112.11 c -8.07,15.78 -19.26,29.81 -31.93,42.14 -4.49,4.56 -9.55,8.52 -13.91,13.21 2.98,-0.95 5.95,-1.97 8.79,-3.3 15.24,-7.21 29.52,-16.62 41.66,-28.36 2.31,-2.3 4.95,-4.46 6.37,-7.47 -0.42,-1.95 -1.27,-3.75 -2.02,-5.58 -2.34,-5.33 -3.69,-11.01 -5.77,-16.44 -1.09,1.92 -2.16,3.85 -3.19,5.8 z"
       id="path317"
       inkscape:connector-curvature="0"
       style="opacity:1;fill:#0f74bc" />
    <path
       d="m 239.85,218.03 c 2.3,-6.73 6.09,-12.88 11.05,-17.96 -2.2,6.88 -5.64,13.51 -5.96,20.85 -0.34,4.19 0.31,8.46 -0.64,12.58 -1.3,4.3 -4,7.98 -6.37,11.74 -1.13,-9.06 -1.45,-18.57 1.92,-27.21 z"
       id="path319"
       inkscape:connector-curvature="0"
       style="opacity:1;fill:#0f74bc" />
    <path
       d="m 158.58,249.47 c 4.1,-10 9.9,-19.51 18.06,-26.7 -2.71,5.22 -5.83,10.25 -8.26,15.62 -4.67,10.18 -7.3,21.17 -8.82,32.23 -4.14,2.3 -8.92,4.27 -11.43,8.54 -2.58,4.55 -2.23,9.97 -2.68,15.01 -1.57,-2.68 -3.33,-5.36 -3.97,-8.44 -1.02,-5.1 0,-10.78 3.53,-14.72 2.7,-3.3 6.93,-4.99 9.41,-8.46 1.91,-4.18 2.38,-8.85 4.16,-13.08 z"
       id="path321"
       inkscape:connector-curvature="0"
       style="opacity:1;fill:#0f74bc" />
    <path
       d="m 344.42,228.72 c 14.97,17.14 24.73,38.74 28.1,61.22 1.57,-1.35 3.15,-2.7 4.74,-4.04 0.91,15.01 -3.59,29.8 -9.83,43.29 -0.09,-11.21 -0.18,-22.44 -1.23,-33.61 -0.99,-9.27 -2.86,-18.42 -5.24,-27.42 -1.98,-7.93 -4.61,-15.71 -8.06,-23.12 -2.59,-5.57 -5.82,-10.8 -8.48,-16.32 z"
       id="path323"
       inkscape:connector-curvature="0"
       style="opacity:1;fill:#0f74bc" />
    <path
       d="m 228.38,255.36 c 1.56,-5.51 1.24,-11.35 2.89,-16.83 0.79,6.49 0.56,13.06 -0.08,19.56 -1.25,10.02 -3.07,20.05 -6.7,29.5 -0.76,1.73 -1.46,3.62 -2.93,4.88 -3.86,1.64 -8.18,1.61 -12.12,3.02 -5.46,1.8 -9.31,6.3 -13.74,9.71 0.57,-5.23 2.37,-10.52 6.48,-14.03 3.7,-3.86 9.17,-4.54 13.95,-6.25 2.12,-0.71 3,-2.97 3.96,-4.77 3.64,-7.94 6.31,-16.29 8.29,-24.79 z"
       id="path325"
       inkscape:connector-curvature="0"
       style="opacity:1;fill:#0f74bc" />
  </g>
  <g
     id="#127ac0ff"
     transform="matrix(0.08020452,0,0,0.08020452,-0.06255882,2.8831106)">
    <path
       d="m 278.22,134.12 c 7.71,-1 15.16,-3.55 22.95,-3.88 -7.27,4.51 -15.45,7.21 -23.27,10.59 0.19,-2.23 0.24,-4.47 0.32,-6.71 z"
       id="path328"
       inkscape:connector-curvature="0"
       style="opacity:1;fill:#127ac0" />
  </g>
  <g
     id="#19293eff"
     transform="matrix(0.08020452,0,0,0.08020452,-0.06255882,2.8831106)">
    <path
       d="m 257.26,137.3 c 6.92,-1.41 13.85,-3.11 20.96,-3.18 -0.08,2.24 -0.13,4.48 -0.32,6.71 l -0.11,0.8 c -2.08,1.47 -4.46,2.41 -6.8,3.38 -6.89,2.75 -13.84,5.36 -20.62,8.39 -3.25,1.48 -6.64,2.62 -10.09,3.49 -0.92,-5.08 -2.07,-10.12 -3.44,-15.1 6.61,-2.32 13.6,-3.05 20.42,-4.49 z"
       id="path331"
       inkscape:connector-curvature="0"
       style="opacity:1;fill:#19293e" />
  </g>
  <g
     id="#25a9e1ff"
     transform="matrix(0.08020452,0,0,0.08020452,-0.06255882,2.8831106)">
    <path
       d="m 330.33,141.35 c 3.1,-1.61 6.31,-3.02 9.56,-4.32 -1.39,8.57 -4.3,16.86 -8.35,24.52 -3.17,6.04 -7.92,11 -11.56,16.72 3.14,-1.49 6.29,-3.05 8.94,-5.34 3.28,-2.82 6.11,-6.13 9.28,-9.07 -0.81,6.48 -3.93,12.28 -6,18.38 2.97,-2.47 5.64,-5.29 8.18,-8.19 -0.52,5.13 -1.66,10.17 -3.13,15.11 2.07,-1.75 4.14,-3.52 6.2,-5.29 2.37,8.4 4.16,16.95 6.26,25.43 -3.7,-2.62 -7.22,-5.47 -10.85,-8.18 -9.25,-6.82 -20.06,-11.36 -31.26,-13.78 -5.64,-1.28 -11.49,-1.63 -17.24,-0.94 -7.72,0.84 -15.03,3.74 -22.73,4.77 1.2,-7.96 6.61,-14.08 11.18,-20.33 -3.58,1.32 -7.11,2.77 -10.58,4.34 -7.94,3.6 -16.32,6.46 -23.48,11.56 -9.88,6.93 -17.05,17.08 -22.09,27.92 -6.04,13.07 -8.95,27.27 -11.59,41.34 -0.65,3.46 -1.56,6.86 -2.64,10.21 -1.57,-11.11 0.22,-22.24 0.63,-33.35 -7.47,8.98 -11.31,20.16 -17.03,30.19 0.39,-3.96 1.01,-7.92 2.26,-11.72 2.93,-9.02 6.62,-17.78 10.71,-26.33 2.78,-5.85 6.37,-11.28 9.04,-17.18 -12.13,6.4 -20.55,17.61 -30.07,27.14 1.18,-2.44 2.39,-4.86 3.85,-7.14 8.63,-13.08 20.13,-24.1 32.98,-32.99 4.32,-2.92 8.83,-5.55 13.2,-8.4 -1.32,-0.29 -2.63,-0.58 -3.94,-0.86 32.68,-16.41 67.86,-27.22 100.27,-44.22 z"
       id="path334"
       inkscape:connector-curvature="0"
       style="opacity:1;fill:#25a9e1" />
    <path
       d="m 393.05,272.9 c 5.46,3.45 10.26,7.8 15.6,11.43 3.11,2.15 6.32,4.49 8.1,7.95 4.03,7.6 4.83,16.37 8.27,24.21 1.36,-5.15 2.2,-10.42 3.52,-15.59 2.35,10.31 2.83,21 1.95,31.52 -0.71,8.34 -1.43,16.74 -3.56,24.87 -3.79,-10.49 -5.48,-21.84 -11.32,-31.5 -2.7,22.92 -7.69,46.13 -19.28,66.33 1.57,-6.59 3.72,-13.04 5.17,-19.66 4.73,-21.45 6.36,-43.61 4.8,-65.51 -0.21,-4.7 -0.72,-9.37 -1.62,-13.98 -1.74,2.38 -3.47,4.78 -5.23,7.14 -0.66,-4.22 -1.13,-8.48 -1.95,-12.67 -0.98,-4.99 -2.88,-9.72 -4.45,-14.54 z"
       id="path336"
       inkscape:connector-curvature="0"
       style="opacity:1;fill:#25a9e1" />
    <path
       d="m 368.75,399.67 c 1.03,-1.95 2.1,-3.88 3.19,-5.8 2.08,5.43 3.43,11.11 5.77,16.44 0.75,1.83 1.6,3.63 2.02,5.58 -1.42,3.01 -4.06,5.17 -6.37,7.47 -12.14,11.74 -26.42,21.15 -41.66,28.36 -2.84,1.33 -5.81,2.35 -8.79,3.3 4.36,-4.69 9.42,-8.65 13.91,-13.21 12.67,-12.33 23.86,-26.36 31.93,-42.14 z"
       id="path338"
       inkscape:connector-curvature="0"
       style="opacity:1;fill:#25a9e1" />
  </g>
  <g
     id="#137dc2ff"
     transform="matrix(0.08020452,0,0,0.08020452,-0.06255882,2.8831106)">
    <path
       d="m 192.3,150.86 c 14.86,-2.93 29.85,-5.32 44.54,-9.07 1.37,4.98 2.52,10.02 3.44,15.1 -14.72,5.3 -28.2,13.36 -41.72,21.1 -1.75,-9.12 -4.51,-18.01 -6.26,-27.13 z"
       id="path341"
       inkscape:connector-curvature="0"
       style="opacity:1;fill:#137dc2" />
    <path
       d="m 133.43,162.07 c 5.06,-1.07 10.14,-2.19 15.33,-2.3 7.19,13.46 15.41,26.35 22.92,39.63 l 0.28,0.64 c -1.14,2.08 -2.72,3.86 -4.22,5.68 -9.93,11.54 -17.25,25.15 -22.33,39.47 -12,-19.62 -22.98,-39.85 -35.07,-59.41 -2.06,-6.23 -0.82,-12.98 -1.09,-19.43 8.09,-1.27 16.13,-2.83 24.18,-4.28 z"
       id="path343"
       inkscape:connector-curvature="0"
       style="opacity:1;fill:#137dc2" />
  </g>
  <g
     id="#209dd8ff"
     transform="matrix(0.08020452,0,0,0.08020452,-0.06255882,2.8831106)">
    <path
       d="m 362.75,142.68 c 9.5,1.15 18.86,3.19 28.27,4.96 4.74,0.84 9.52,1.58 14.14,3 -4.73,16.18 -8.47,32.62 -12.61,48.95 -2.72,10.03 -5.3,20.1 -7.68,30.22 -10.38,-13.93 -15.88,-30.89 -18.75,-47.86 -1.83,-13.01 -3.22,-26.12 -3.37,-39.27 z"
       id="path346"
       inkscape:connector-curvature="0"
       style="opacity:1;fill:#209dd8" />
  </g>
  <g
     id="#17263aff"
     transform="matrix(0.08020452,0,0,0.08020452,-0.06255882,2.8831106)">
    <path
       d="m 155.23,157.25 c 12.38,-1.99 24.55,-5.35 37.07,-6.39 1.75,9.12 4.51,18.01 6.26,27.13 -4.76,3.04 -9.52,6.1 -13.89,9.68 -4.54,3.68 -8.53,7.96 -12.99,11.73 -7.51,-13.28 -15.73,-26.17 -22.92,-39.63 1.38,-2.11 4.29,-1.9 6.47,-2.52 z"
       id="path349"
       inkscape:connector-curvature="0"
       style="opacity:1;fill:#17263a" />
  </g>
  <g
     id="#162538ff"
     transform="matrix(0.08020452,0,0,0.08020452,-0.06255882,2.8831106)">
    <path
       d="m 405.16,150.64 c 13.64,2.7 27.3,5.34 41.03,7.58 -5.63,10.3 -11.96,20.21 -17.45,30.59 -11.28,17.78 -21.14,36.41 -32.14,54.37 -2.81,-5.33 -7.13,-9.58 -11.73,-13.37 2.38,-10.12 4.96,-20.19 7.68,-30.22 4.14,-16.33 7.88,-32.77 12.61,-48.95 z"
       id="path352"
       inkscape:connector-curvature="0"
       style="opacity:1;fill:#162538" />
  </g>
  <g
     id="#22a1dbff"
     transform="matrix(0.08020452,0,0,0.08020452,-0.06255882,2.8831106)">
    <path
       d="m 446.19,158.22 c 15.69,3.06 31.46,5.67 47.06,9.13 -0.46,1.43 -0.86,2.89 -1.46,4.27 -1.26,2.41 -2.73,4.7 -4.16,7.01 -6.27,10.08 -11.88,20.57 -18.42,30.48 -1.85,2.22 -3.85,4.31 -5.79,6.46 -12.06,-6.7 -23.89,-13.78 -35.94,-20.5 0.4,-2.09 0.76,-4.19 1.26,-6.26 5.49,-10.38 11.82,-20.29 17.45,-30.59 z"
       id="path355"
       inkscape:connector-curvature="0"
       style="opacity:1;fill:#22a1db" />
    <path
       d="m 448.83,287.11 c 10.01,-10.3 19.8,-20.82 30.17,-30.76 -1.49,7.19 -4.36,13.96 -6.66,20.9 -3.22,9.52 -7.17,18.76 -11.18,27.97 -2.58,5.8 -5.12,11.66 -8.55,17.03 -0.32,-6.07 -0.39,-12.15 -1.04,-18.19 -0.6,-5.7 -2.02,-11.27 -2.74,-16.95 z"
       id="path357"
       inkscape:connector-curvature="0"
       style="opacity:1;fill:#22a1db" />
  </g>
  <g
     id="#132031ff"
     transform="matrix(0.08020452,0,0,0.08020452,-0.06255882,2.8831106)">
    <path
       d="m 487.63,178.63 c 1.43,-2.31 2.9,-4.6 4.16,-7.01 1.73,5.97 0.35,12.15 -0.06,18.2 -1.56,17.86 -4.25,35.66 -8.94,52.98 -1.33,4.48 -1.58,9.38 -3.79,13.55 -10.37,9.94 -20.16,20.46 -30.17,30.76 -0.88,-2.54 -1.3,-5.61 -3.7,-7.23 -3.94,-2.72 -8.38,-4.59 -12.57,-6.89 3.25,-6.16 6.69,-12.21 10.27,-18.18 6.62,-11.07 13.03,-22.27 19.65,-33.34 2.43,-4.02 4.45,-8.26 6.73,-12.36 6.54,-9.91 12.15,-20.4 18.42,-30.48 z"
       id="path360"
       inkscape:connector-curvature="0"
       style="opacity:1;fill:#132031" />
  </g>
  <g
     id="#142031ff"
     transform="matrix(0.08020452,0,0,0.08020452,-0.06255882,2.8831106)">
    <path
       d="m 110.34,185.78 c 12.09,19.56 23.07,39.79 35.07,59.41 -1.87,5.84 -2.67,12.48 -7.14,17.07 -3.05,3.16 -6.24,6.19 -8.97,9.64 -1,-0.54 -1.95,-0.46 -2.86,0.22 -1.92,-7.76 -4.51,-15.34 -6.4,-23.12 -4.6,-17.44 -8.07,-35.2 -9.75,-53.17 -0.27,-3.35 -0.17,-6.71 0.05,-10.05 z"
       id="path363"
       inkscape:connector-curvature="0"
       style="opacity:1;fill:#142031" />
  </g>
  <g
     id="#1e97d5ff"
     transform="matrix(0.08020452,0,0,0.08020452,-0.06255882,2.8831106)">
    <path
       d="m 396.6,243.18 c 11,-17.96 20.86,-36.59 32.14,-54.37 -0.5,2.07 -0.86,4.17 -1.26,6.26 12.05,6.72 23.88,13.8 35.94,20.5 1.94,-2.15 3.94,-4.24 5.79,-6.46 -2.28,4.1 -4.3,8.34 -6.73,12.36 -6.62,11.07 -13.03,22.27 -19.65,33.34 -3.58,5.97 -7.02,12.02 -10.27,18.18 -8.68,-4.41 -16.32,-10.57 -23.77,-16.77 -4.49,-3.81 -8.89,-7.77 -12.58,-12.38 z"
       id="path366"
       inkscape:connector-curvature="0"
       style="opacity:1;fill:#1e97d5" />
  </g>
  <g
     id="#0e74bcff"
     transform="matrix(0.08020452,0,0,0.08020452,-0.06255882,2.8831106)">
    <path
       d="m 175.05,217.04 c 5.65,-8.53 14.45,-14.37 23.86,-18.04 -4.37,3.58 -8.67,7.26 -12.78,11.14 -3.18,3.04 -7.06,5.19 -11.08,6.9 z"
       id="path369"
       inkscape:connector-curvature="0"
       style="opacity:1;fill:#0e74bc" />
  </g>
  <g
     id="#d0d1d3ff"
     transform="matrix(0.08020452,0,0,0.08020452,-0.06255882,2.8831106)">
    <path
       d="m 281.66,232.67 c 5.18,-3.87 10.79,-7.63 17.28,-8.76 5.48,-0.94 11.54,-0.35 16.14,3 5.59,4.08 9.46,10.28 11.17,16.95 1.76,6.84 2.47,13.98 1.88,21.03 -0.64,7.8 -1.57,15.66 -4.04,23.13 -2.66,8.83 -6.48,17.23 -9.98,25.74 6.52,-1.46 13.36,-2.94 19.96,-1.05 6.8,1.54 12.1,7.08 14.74,13.36 3.38,7.86 3.44,16.69 2.39,25.05 -3.45,21.9 -13.76,42.32 -27.64,59.44 -18.69,23.89 -43.11,42.89 -69.76,57.15 -6.79,3.76 -13.82,7.07 -21,10 2.91,-4.67 6.41,-9.01 8.59,-14.1 2.76,-6.5 4.4,-13.49 4.57,-20.55 0.22,-3.55 -0.13,-7.16 0.59,-10.66 1.11,-2.65 3.74,-4.23 5.89,-5.97 7.15,-5.53 15.93,-8.62 24.85,-9.67 6.39,-0.68 12.77,0.39 19.15,0.63 -5.01,-8.02 -10.12,-16.32 -11.63,-25.82 -2.76,-17.81 0.74,-35.74 1.3,-53.57 0.17,-5.76 -1.45,-11.33 -3.06,-16.79 2.08,-3 4.31,-5.94 5.91,-9.23 1.51,-3.09 1.75,-6.56 2.14,-9.92 -4.99,4.36 -9.64,9.14 -15.1,12.94 -9.68,6.96 -20.96,12.25 -32.96,13.23 -14.36,0.77 -28.89,-2.88 -41.27,-10.17 3.73,-0.42 7.5,-0.4 11.24,0 7.92,0.82 16.02,-0.11 23.53,-2.75 7.65,-3 14.61,-7.59 20.76,-13.01 10.51,-9.14 19.25,-20.11 29.71,-29.31 3.37,-2.97 7.26,-5.23 11.08,-7.57 -3.18,-0.45 -6.4,-1.15 -9.61,-0.63 -3.14,0.52 -6.06,1.84 -8.97,3.06 0.01,-6.45 -0.09,-13.07 -2.3,-19.21 -0.92,-2.82 -2.35,-5.48 -2.85,-8.42 1.65,-3.15 4.6,-5.34 7.3,-7.55 m 3.06,7.16 c 6.32,-0.85 12.9,-2.7 19.19,-0.69 3.74,1.06 6.57,3.85 9.21,6.55 -6.01,-0.49 -12.06,-1.57 -18.1,-0.82 -3.05,0.31 -5.73,1.9 -8.3,3.46 7.76,1.11 16.34,1.16 22.62,6.56 -4.36,-0.14 -8.71,-0.77 -13.08,-0.58 -2.91,0.1 -5.57,1.41 -8.19,2.54 7.13,1.79 14.91,2.6 20.8,7.45 -0.91,1.68 -2.75,2.42 -4.33,3.3 -3.26,1.6 -6.44,3.39 -9.28,5.67 -14.32,10.96 -23.79,26.91 -38.05,37.94 -4.54,3.65 -9.79,6.27 -14.43,9.77 3.83,-0.19 7.72,-0.5 11.33,-1.87 9.61,-3.52 17.79,-9.93 25.26,-16.77 7.39,-6.58 14.24,-13.72 21.21,-20.74 2.52,-2.58 5.42,-4.75 8.47,-6.68 -3.37,6.96 -8.23,13.23 -10.36,20.75 -1.48,4.85 -1.21,10 -2.2,14.95 -0.82,4.19 -3.87,7.5 -4.96,11.59 -0.32,4.3 1.14,8.5 1.27,12.79 0.6,15.83 -3.55,31.57 -1.64,47.4 7.07,-5.05 11.33,-12.79 16.7,-19.41 -2.65,10.76 -8.1,20.55 -10.99,31.23 5.46,-4.41 9.34,-10.32 13.27,-16.04 4.08,-5.96 7.35,-12.44 11.66,-18.25 -2.33,8.69 -5.83,17.02 -9.91,25.03 -3.31,6.53 -7.44,12.61 -10.6,19.22 10.37,-7.72 17.75,-18.69 24.17,-29.74 2.92,-5.14 5.37,-10.54 8.54,-15.53 -0.6,4.47 -1.48,8.91 -2.92,13.2 -3.79,11.51 -8.82,22.61 -14.95,33.07 -1.46,2.52 -2.82,5.11 -4.11,7.73 3.14,-3.2 6.04,-6.62 8.64,-10.27 8.53,-11.82 15.57,-24.78 20.38,-38.55 2.76,-8.05 4.56,-16.59 3.97,-25.13 -0.43,-6.56 -3.65,-13.06 -9.05,-16.92 -4.02,-2.88 -9.14,-3.48 -13.96,-3.46 -6.41,0 -12.62,1.78 -18.76,3.39 3.02,-7.49 6.68,-14.72 9.39,-22.33 4.36,-12.11 8.2,-24.65 8.48,-37.61 0.2,-7.79 -0.27,-16.02 -4.23,-22.94 -2.33,-4.04 -6.02,-7.87 -10.9,-8.37 -8.11,-0.91 -15.88,3.31 -21.26,9.11 m -26.31,190.64 c -1.91,1.32 -4.01,2.74 -4.92,4.98 -0.75,2.79 -0.58,5.72 -0.75,8.59 -0.11,5.8 -1.65,11.44 -2.63,17.13 7.53,-3.05 14.28,-7.63 21.08,-11.99 10.3,-7.03 20.51,-14.47 29.03,-23.64 -6.38,-0.93 -12.79,-1.86 -19.25,-1.84 -7.97,0 -15.85,2.51 -22.56,6.77 z"
       id="path372"
       inkscape:connector-curvature="0"
       style="opacity:1;fill:#d0d1d3" />
    <path
       d="m 135.73,313.97 c 0.32,-3.09 2.13,-5.71 3.8,-8.22 2.51,2.36 5.18,4.62 7.2,7.44 -2.19,3.99 -5.86,6.86 -8.94,10.11 -1.12,-2.98 -2.5,-6.07 -2.06,-9.33 z"
       id="path374"
       inkscape:connector-curvature="0"
       style="opacity:1;fill:#d0d1d3" />
    <path
       d="m 195.03,333.24 c 10.03,4.28 20.29,8.05 30.99,10.28 -2.81,2.05 -5.69,3.99 -8.63,5.85 -10.42,6.64 -19.31,15.45 -26.84,25.2 -2.51,3.13 -4.7,6.56 -7.76,9.2 -2.7,2.24 -6.03,3.46 -9.22,4.8 -7.76,3.1 -15.15,7.15 -21.89,12.09 -5.87,4.25 -10.46,9.91 -15.8,14.74 -7.05,-11.52 -8.74,-25.72 -6.22,-38.84 1.83,-8.71 6.08,-16.66 10.66,-24.2 1.65,-2.64 3.25,-5.36 5.46,-7.57 1.89,-1.96 4.72,-2.44 7.31,-2.67 8.6,-0.64 17.14,1.33 25.23,4.07 -1.9,10.18 -8.76,18.31 -14.78,26.37 -4.19,5.77 -9.67,10.46 -13.65,16.4 3.5,-1.7 6.83,-3.76 9.83,-6.23 5.29,-4.34 10.75,-8.55 15.35,-13.65 4.66,-5.06 8.42,-10.84 12.82,-16.11 -1.12,4.23 -2.45,8.45 -4.66,12.25 -3.21,5.87 -7.9,10.69 -12.06,15.86 8.01,-3.74 15.22,-9.22 20.92,-15.97 3.94,-4.85 7.12,-10.71 7.19,-17.09 0.28,-5.28 -2.05,-10.14 -4.25,-14.78 z"
       id="path376"
       inkscape:connector-curvature="0"
       style="opacity:1;fill:#d0d1d3" />
  </g>
  <g
     id="#fefefeff"
     transform="matrix(0.08020452,0,0,0.08020452,-0.06255882,2.8831106)">
    <path
       d="m 284.72,239.83 c 5.38,-5.8 13.15,-10.02 21.26,-9.11 4.88,0.5 8.57,4.33 10.9,8.37 3.96,6.92 4.43,15.15 4.23,22.94 -0.28,12.96 -4.12,25.5 -8.48,37.61 -2.71,7.61 -6.37,14.84 -9.39,22.33 6.14,-1.61 12.35,-3.39 18.76,-3.39 4.82,-0.02 9.94,0.58 13.96,3.46 5.4,3.86 8.62,10.36 9.05,16.92 0.59,8.54 -1.21,17.08 -3.97,25.13 -4.81,13.77 -11.85,26.73 -20.38,38.55 -2.6,3.65 -5.5,7.07 -8.64,10.27 1.29,-2.62 2.65,-5.21 4.11,-7.73 6.13,-10.46 11.16,-21.56 14.95,-33.07 1.44,-4.29 2.32,-8.73 2.92,-13.2 -3.17,4.99 -5.62,10.39 -8.54,15.53 -6.42,11.05 -13.8,22.02 -24.17,29.74 3.16,-6.61 7.29,-12.69 10.6,-19.22 4.08,-8.01 7.58,-16.34 9.91,-25.03 -4.31,5.81 -7.58,12.29 -11.66,18.25 -3.93,5.72 -7.81,11.63 -13.27,16.04 2.89,-10.68 8.34,-20.47 10.99,-31.23 -5.37,6.62 -9.63,14.36 -16.7,19.41 -1.91,-15.83 2.24,-31.57 1.64,-47.4 -0.13,-4.29 -1.59,-8.49 -1.27,-12.79 1.09,-4.09 4.14,-7.4 4.96,-11.59 0.99,-4.95 0.72,-10.1 2.2,-14.95 2.13,-7.52 6.99,-13.79 10.36,-20.75 -3.05,1.93 -5.95,4.1 -8.47,6.68 -6.97,7.02 -13.82,14.16 -21.21,20.74 -7.47,6.84 -15.65,13.25 -25.26,16.77 -3.61,1.37 -7.5,1.68 -11.33,1.87 4.64,-3.5 9.89,-6.12 14.43,-9.77 14.26,-11.03 23.73,-26.98 38.05,-37.94 2.84,-2.28 6.02,-4.07 9.28,-5.67 1.58,-0.88 3.42,-1.62 4.33,-3.3 -5.89,-4.85 -13.67,-5.66 -20.8,-7.45 2.62,-1.13 5.28,-2.44 8.19,-2.54 4.37,-0.19 8.72,0.44 13.08,0.58 -6.28,-5.4 -14.86,-5.45 -22.62,-6.56 2.57,-1.56 5.25,-3.15 8.3,-3.46 6.04,-0.75 12.09,0.33 18.1,0.82 -2.64,-2.7 -5.47,-5.49 -9.21,-6.55 -6.29,-2.01 -12.87,-0.16 -19.19,0.69 z"
       id="path379"
       inkscape:connector-curvature="0"
       style="opacity:1;fill:#fefefe" />
    <path
       d="m 254.56,261.95 c 0.54,-6.8 6.54,-11.28 12.31,-13.84 5.18,10.46 4.65,23.27 -1.22,33.34 -2.27,-3.61 -3.91,-7.55 -6.02,-11.24 -1.6,-2.8 -3.79,-5.27 -5.07,-8.26 z"
       id="path381"
       inkscape:connector-curvature="0"
       style="opacity:1;fill:#fefefe" />
    <path
       d="m 233.04,358.21 c 5.71,-2.62 11.91,-3.82 18.06,-4.89 1.35,2.95 2.39,6.03 3.06,9.21 -6.71,0.89 -13.4,2.46 -19.29,5.92 6.77,-0.27 13.59,0.04 20.2,1.66 0.62,3.34 1.06,6.7 1.37,10.09 -5.48,-0.86 -10.87,-2.33 -16.42,-2.77 -11.41,-0.86 -23.03,-0.2 -34.03,3.14 6.79,-9.73 16.31,-17.4 27.05,-22.36 z"
       id="path383"
       inkscape:connector-curvature="0"
       style="opacity:1;fill:#fefefe" />
    <path
       d="m 258.41,430.47 c 6.71,-4.26 14.59,-6.77 22.56,-6.77 6.46,-0.02 12.87,0.91 19.25,1.84 -8.52,9.17 -18.73,16.61 -29.03,23.64 -6.8,4.36 -13.55,8.94 -21.08,11.99 0.98,-5.69 2.52,-11.33 2.63,-17.13 0.17,-2.87 0,-5.8 0.75,-8.59 0.91,-2.24 3.01,-3.66 4.92,-4.98 z"
       id="path385"
       inkscape:connector-curvature="0"
       style="opacity:1;fill:#fefefe" />
  </g>
  <g
     id="#d6dd1fff"
     transform="matrix(0.08020452,0,0,0.08020452,-0.06255882,2.8831106)">
    <path
       d="m 247.03,267.32 c 7.07,4.5 12.26,12.81 11.65,21.35 -0.4,0.16 -1.2,0.47 -1.6,0.62 -1.61,-2.65 -2.7,-5.57 -3.73,-8.48 -0.46,-1.3 -0.91,-2.6 -1.36,-3.9 -1.5,-0.5 -3.01,-1.01 -4.51,-1.51 -1.04,-0.94 -1.89,-2.13 -2.28,-3.48 0.38,-1.62 1.15,-3.1 1.83,-4.6 z"
       id="path388"
       inkscape:connector-curvature="0"
       style="opacity:1;fill:#d6dd1f" />
  </g>
  <g
     id="#104067ff"
     transform="matrix(0.08020452,0,0,0.08020452,-0.06255882,2.8831106)">
    <path
       d="m 126.44,272.12 c 0.91,-0.68 1.86,-0.76 2.86,-0.22 0.89,2.16 -3.43,2.49 -2.86,0.22 z"
       id="path391"
       inkscape:connector-curvature="0"
       style="opacity:1;fill:#104067" />
  </g>
  <g
     id="#fbfbfaff"
     transform="matrix(0.08020452,0,0,0.08020452,-0.06255882,2.8831106)">
    <path
       d="m 247.18,283.37 c -3.73,-0.97 -3.16,-7.01 0.3,-7.97 1.5,0.5 3.01,1.01 4.51,1.51 0.45,1.3 0.9,2.6 1.36,3.9 -1.83,1.24 -3.69,3.52 -6.17,2.56 z"
       id="path394"
       inkscape:connector-curvature="0"
       style="opacity:1;fill:#fbfbfa" />
  </g>
  <g
     id="#24a8e0ff"
     transform="matrix(0.08020452,0,0,0.08020452,-0.06255882,2.8831106)">
    <path
       d="m 162.41,287.56 c 1.12,-1.25 2.5,-2.23 3.81,-3.27 -0.02,2.25 -0.06,4.5 -0.11,6.76 4.76,-1.95 9.77,-3.26 14.94,-3.34 -5.15,3.04 -9.78,6.88 -13.24,11.79 -1.85,-1.58 -3.98,-3 -5.18,-5.17 -0.92,-2.1 -1.19,-4.66 -0.22,-6.77 z"
       id="path397"
       inkscape:connector-curvature="0"
       style="opacity:1;fill:#24a8e0" />
  </g>
  <g
     id="#fafafaff"
     transform="matrix(0.08020452,0,0,0.08020452,-0.06255882,2.8831106)">
    <path
       d="m 241.11,286.79 c 1.84,0.12 3.68,0 5.52,0.15 0,1.7 0.01,3.41 0.02,5.13 -1.86,0.13 -3.71,0.01 -5.56,0.14 -0.01,-1.82 0,-3.62 0.02,-5.42 z"
       id="path400"
       inkscape:connector-curvature="0"
       style="opacity:1;fill:#fafafa" />
  </g>
  <g
     id="#a7a8acff"
     transform="matrix(0.08020452,0,0,0.08020452,-0.06255882,2.8831106)">
    <path
       d="m 161.29,314.38 c 3.7,-2.15 8.15,-0.91 11.91,0.41 8.63,3.3 16.59,8.06 24.97,11.93 8.49,4.12 17.45,7.3 26.68,9.29 10.72,2.16 22,1.73 32.43,-1.6 6.4,-1.81 12.1,-5.35 18.31,-7.64 1.09,4.2 2.04,8.52 1.68,12.9 -1.46,15.73 -3.43,31.57 -2.12,47.38 0.49,7.07 2.86,13.78 4.72,20.56 -6.7,0.9 -13.56,1.57 -19.85,4.24 -5.85,2.25 -10.99,5.87 -16.34,9.06 -1.9,-4.94 -4.13,-9.74 -6.52,-14.45 5.75,-1.75 11.73,-3.54 16.27,-7.69 -10.8,-1.67 -21.84,-2.08 -32.71,-0.84 -16.31,2.41 -32.2,7.26 -47.48,13.39 -5.88,2.28 -11.53,5.11 -17.4,7.41 7.11,-7.9 16.92,-12.49 26.64,-16.31 6.45,-2.45 11.52,-7.37 17.79,-10.15 8.2,-3.76 17.23,-5.24 26.17,-5.79 7.05,-0.38 14.2,-0.31 21.12,1.21 6.03,1.25 11.59,4.02 17.46,5.81 0.64,-9.02 0.72,-18.16 -0.71,-27.11 -0.66,-4.43 -2.68,-8.6 -2.89,-13.09 1.11,-3.13 3.73,-5.38 5.73,-7.94 -9.33,-1.05 -18.79,-0.29 -27.95,1.65 -15.65,3.63 -29.05,13.87 -38.85,26.33 -3.62,4.43 -6.58,9.36 -10.4,13.62 -4.51,5.04 -11.21,6.92 -17.13,9.72 -11.69,5.09 -22.42,12.72 -30.38,22.74 -2.39,2.96 -4.28,6.3 -6.77,9.19 -1.61,-0.33 -2.14,-2.08 -2.92,-3.29 -2.28,-4.49 -4.46,-9.04 -6.49,-13.65 -4.85,-11.04 -5.9,-23.56 -3.8,-35.38 2.48,-11.63 8.28,-22.25 14.77,-32.1 2.31,-3.33 4.85,-7.12 9.04,-8.14 5.32,-1.38 10.93,-1.13 16.33,-0.38 10.16,1.71 19.66,5.86 29.31,9.3 -4.9,-3.93 -10.19,-7.34 -15.76,-10.21 -5.45,-2.81 -11.02,-5.75 -17.17,-6.6 -4.35,-0.64 -8.73,-0.05 -13.06,0.37 4.04,-5.74 9.36,-10.55 15.37,-14.15 m 18.09,12.34 c 0.85,2.16 1.19,5.08 3.64,6.06 3.12,-0.87 5.98,-2.44 8.94,-3.71 -4,-1.58 -8.25,-2.52 -12.58,-2.35 m 15.65,6.52 c 2.2,4.64 4.53,9.5 4.25,14.78 -0.07,6.38 -3.25,12.24 -7.19,17.09 -5.7,6.75 -12.91,12.23 -20.92,15.97 4.16,-5.17 8.85,-9.99 12.06,-15.86 2.21,-3.8 3.54,-8.02 4.66,-12.25 -4.4,5.27 -8.16,11.05 -12.82,16.11 -4.6,5.1 -10.06,9.31 -15.35,13.65 -3,2.47 -6.33,4.53 -9.83,6.23 3.98,-5.94 9.46,-10.63 13.65,-16.4 6.02,-8.06 12.88,-16.19 14.78,-26.37 -8.09,-2.74 -16.63,-4.71 -25.23,-4.07 -2.59,0.23 -5.42,0.71 -7.31,2.67 -2.21,2.21 -3.81,4.93 -5.46,7.57 -4.58,7.54 -8.83,15.49 -10.66,24.2 -2.52,13.12 -0.83,27.32 6.22,38.84 5.34,-4.83 9.93,-10.49 15.8,-14.74 6.74,-4.94 14.13,-8.99 21.89,-12.09 3.19,-1.34 6.52,-2.56 9.22,-4.8 3.06,-2.64 5.25,-6.07 7.76,-9.2 7.53,-9.75 16.42,-18.56 26.84,-25.2 2.94,-1.86 5.82,-3.8 8.63,-5.85 -10.7,-2.23 -20.96,-6 -30.99,-10.28 z"
       id="path403"
       inkscape:connector-curvature="0"
       style="opacity:1;fill:#a7a8ac" />
  </g>
  <g
     id="#127bc1ff"
     transform="matrix(0.08020452,0,0,0.08020452,-0.06255882,2.8831106)">
    <path
       d="m 304.52,483.48 c 5.13,-1.51 10.32,-2.75 15.46,-4.23 -4.48,3.67 -9.11,7.13 -13.98,10.26 -1.11,-0.88 -2.23,-1.75 -3.34,-2.6 0.67,-1.13 1.27,-2.28 1.86,-3.43 z"
       id="path406"
       inkscape:connector-curvature="0"
       style="opacity:1;fill:#127bc1" />
  </g>
  <g
     id="#22a3ddff"
     transform="matrix(0.08020452,0,0,0.08020452,-0.06255882,2.8831106)">
    <path
       d="m 289.9,486.45 c 4.86,-1.07 9.74,-2.04 14.62,-2.97 -0.59,1.15 -1.19,2.3 -1.86,3.43 -1.27,2.03 -3.18,3.54 -4.89,5.18 -2.73,-1.74 -5.37,-3.6 -7.87,-5.64 z"
       id="path409"
       inkscape:connector-curvature="0"
       style="opacity:1;fill:#22a3dd" />
  </g>
</svg>
