<?xml version="1.0" encoding="utf-8"?>
<!-- Generator: Adobe Illustrator 22.0.0, SVG Export Plug-In . SVG Version: 6.00 Build 0)  -->
<svg version="1.1" id="Camada_1" xmlns="http://www.w3.org/2000/svg" xmlns:xlink="http://www.w3.org/1999/xlink" x="0px" y="0px"
	 width="64px" height="64px" viewBox="0 0 64 64" enable-background="new 0 0 64 64" xml:space="preserve">
<g>
	<g>
		<path fill="#E7112E" d="M26.342,44.237c0.074,0.793,0.146,1.585,0.222,2.378c0.26,2.681,0.521,5.361,0.783,8.042
			c0.148,1.516,0.292,3.033,0.455,4.547c0.05,0.469-0.08,0.825-0.482,1.082c-1.879,1.204-3.76,2.404-5.63,3.621
			c-0.378,0.246-0.364-0.053-0.427-0.252c-1.403-4.39-2.804-8.781-4.207-13.171c-0.052-0.162-0.071-0.344-0.228-0.51
			c-0.72,2.36-1.43,4.686-2.174,7.123c-0.897-1.15-2.113-1.939-2.578-3.328c-0.531-1.586-0.391-3.16,0.122-4.821
			c0.41,0.55,0.777,1.042,1.2,1.611c0.171-0.619,0.319-1.148,0.464-1.677c0.193-0.708,0.393-1.414,0.575-2.124
			c0.428-1.671,2.653-2.803,4.335-1.355c0.571,0.491,0.98,1.081,1.223,1.797c0.993,2.923,1.997,5.843,2.996,8.764
			c0.022,0.064,0.034,0.134,0.067,0.192c0.041,0.072,0.022,0.225,0.164,0.18c0.125-0.04,0.063-0.162,0.053-0.247
			c-0.205-1.729-0.411-3.457-0.62-5.185c-0.355-2.93-0.708-5.86-1.075-8.789c-0.033-0.262,0.114-0.326,0.283-0.42
			c4.043-2.245,8.088-4.488,12.128-6.738c6.501-3.621,13-7.246,19.5-10.869c0.141-0.078,0.285-0.15,0.473-0.249
			c-0.125,1.016-0.321,1.981-0.346,2.951c-0.039,1.541-0.841,2.387-2.148,3.105c-7.083,3.888-14.123,7.855-21.186,11.782
			c-0.347,0.193-0.399,0.328-0.179,0.663c0.41,0.625,0.786,1.274,1.146,1.93c0.17,0.31,0.301,0.375,0.64,0.186
			c5.954-3.318,11.916-6.62,17.876-9.925c0.997-0.553,1.995-1.103,3.074-1.699c-0.066,0.569-0.12,1.058-0.18,1.547
			c-0.107,0.878-0.211,1.756-0.327,2.633c-0.109,0.821-0.571,1.38-1.294,1.767c-3.97,2.125-7.934,4.259-11.901,6.391
			c-1.737,0.934-3.471,1.874-5.215,2.797c-0.275,0.146-0.347,0.254-0.164,0.542c0.424,0.666,0.826,1.346,1.202,2.039
			c0.17,0.314,0.303,0.346,0.618,0.169c4-2.238,8.009-4.461,12.017-6.687c1.249-0.694,2.5-1.384,3.751-2.075
			c0.104-0.058,0.212-0.109,0.398-0.204c-0.059,0.489-0.108,0.911-0.16,1.333c-0.1,0.81-0.212,1.619-0.301,2.431
			c-0.094,0.858-0.539,1.449-1.287,1.861c-3.79,2.086-7.575,4.182-11.361,6.276c-0.964,0.533-1.925,1.071-2.889,1.604
			c-1.343,0.742-2.526,0.422-3.302-0.89c-1.927-3.254-3.852-6.509-5.779-9.763c-0.08-0.134-0.169-0.263-0.254-0.394
			C26.391,44.219,26.366,44.228,26.342,44.237z"/>
		<path fill="#E7112F" d="M22.807,0c0.247,0.416,0.457,0.764,0.662,1.114c5.069,8.666,10.138,17.333,15.206,26
			c0.814,1.393,0.507,2.53-0.9,3.315c-1.235,0.689-2.5,1.331-3.699,2.078c-0.8,0.498-1.603,0.568-2.458,0.339
			c-0.414-0.111-0.607-0.061-0.739,0.39c-0.257,0.881-0.794,1.523-1.653,1.957c-1.467,0.742-2.883,1.585-4.323,2.383
			c-1,0.554-1.784,0.341-2.377-0.647c-3.019-5.026-6.033-10.056-9.059-15.078c-0.479-0.795-0.521-1.569-0.101-2.398
			c0.545-1.075,1.059-2.165,1.589-3.256c0.193,0.099,0.237,0.266,0.317,0.401c3.147,5.299,6.294,10.598,9.427,15.905
			c0.2,0.339,0.342,0.385,0.676,0.179c0.659-0.406,1.34-0.78,2.03-1.132c0.312-0.159,0.367-0.269,0.171-0.593
			c-3.372-5.56-6.715-11.139-10.104-16.689c-0.628-1.029-0.721-1.96-0.135-3.02c0.544-0.984,0.996-2.019,1.522-3.102
			c0.124,0.198,0.215,0.337,0.3,0.48c4.002,6.769,8.006,13.537,11.998,20.311c0.181,0.308,0.311,0.387,0.639,0.186
			c0.672-0.411,1.365-0.792,2.067-1.152c0.312-0.16,0.36-0.278,0.171-0.599C30.18,20.801,26.34,14.222,22.497,7.644
			c-0.419-0.717-0.84-1.432-1.254-2.151c-0.355-0.616-0.44-1.273-0.145-1.921C21.632,2.397,22.209,1.241,22.807,0z"/>
		<path fill="#E7112F" d="M12.215,48.918c-2.72-2.606-3.096-6.447,0.015-8.822c0.996-0.76,2.118-1.332,3.183-1.991
			c1.434-0.888,2.879-1.758,4.309-2.652c0.275-0.172,0.402-0.138,0.558,0.141c0.365,0.653,0.766,1.286,1.148,1.93
			c0.479,0.807,0.312,1.493-0.494,1.976c-2.322,1.392-4.645,2.783-6.976,4.16c-0.27,0.159-0.409,0.353-0.488,0.649
			C13.065,45.832,12.644,47.351,12.215,48.918z"/>
	</g>
</g>
</svg>
