<?xml version="1.0" encoding="UTF-8" standalone="no"?>
<svg
   xmlns:dc="http://purl.org/dc/elements/1.1/"
   xmlns:cc="http://creativecommons.org/ns#"
   xmlns:rdf="http://www.w3.org/1999/02/22-rdf-syntax-ns#"
   xmlns:svg="http://www.w3.org/2000/svg"
   xmlns="http://www.w3.org/2000/svg"
   xmlns:sodipodi="http://sodipodi.sourceforge.net/DTD/sodipodi-0.dtd"
   xmlns:inkscape="http://www.inkscape.org/namespaces/inkscape"
   width="64"
   height="64"
   viewBox="0 0 47.999998 47.999999"
   version="1.1"
   id="svg240"
   sodipodi:docname="boot.svg"
   inkscape:version="0.92.3 (2405546, 2018-03-11)">
  <metadata
     id="metadata246">
    <rdf:RDF>
      <cc:Work
         rdf:about="">
        <dc:format>image/svg+xml</dc:format>
        <dc:type
           rdf:resource="http://purl.org/dc/dcmitype/StillImage" />
        <dc:title></dc:title>
      </cc:Work>
    </rdf:RDF>
  </metadata>
  <defs
     id="defs244" />
  <sodipodi:namedview
     pagecolor="#ffffff"
     bordercolor="#666666"
     borderopacity="1"
     objecttolerance="10"
     gridtolerance="10"
     guidetolerance="10"
     inkscape:pageopacity="0"
     inkscape:pageshadow="2"
     inkscape:window-width="1920"
     inkscape:window-height="1017"
     id="namedview242"
     showgrid="false"
     units="px"
     inkscape:pagecheckerboard="true"
     inkscape:zoom="6.4766144"
     inkscape:cx="-15.996138"
     inkscape:cy="18.960045"
     inkscape:window-x="-8"
     inkscape:window-y="-8"
     inkscape:window-maximized="1"
     inkscape:current-layer="svg240" />
  <g
     id="#000000ff"
     transform="matrix(0.04320432,0,0,0.04320432,6.0287791,-5.1000005e-7)">
    <path
       d="m 412.09,0 h 0.65 c 7.79,11.5 16.7,22.19 24.97,33.34 23.99,31.32 47.85,62.74 71.92,93.99 2.19,2.63 2.54,6.14 2.03,9.42 -1.54,12.01 -3.94,23.91 -4.79,36 9.1,2.69 18.14,5.69 27.49,7.45 -1.05,-9.94 -4.23,-19.48 -7.67,-28.82 -2.46,-6.44 -4.92,-12.9 -7.88,-19.14 C 508.99,111.85 497.5,92.33 486.32,72.67 477.34,57.09 468.1,41.65 459.07,26.1 c 6.49,3.37 12.81,7.06 19.21,10.59 100.96,56.05 201.87,112.2 302.86,168.19 2.49,1.28 3.75,3.89 4.29,6.53 7.63,34.22 15.6,68.36 23.45,102.53 5.61,25.32 11.77,50.51 17.3,75.85 3.47,15.83 4.71,32.06 4.98,48.24 0.3,24.77 -1.96,49.55 -6.43,73.92 -2.28,11.61 -4.16,23.31 -7.18,34.76 -2.41,8.84 -4.23,17.86 -7.31,26.51 -21.77,61.26 -43.39,122.57 -65.15,183.84 -2.1,6.09 -4.06,12.25 -6.64,18.17 -3.92,-20.85 -6.02,-41.98 -9.5,-62.9 -1.59,-10.67 -3.2,-21.33 -4.52,-32.03 -5.21,-33.8 -9.93,-67.68 -14.97,-101.51 -4.54,26.46 -9.02,52.94 -13.53,79.4 -1.96,9.49 -1.27,19.2 -1.32,28.81 -0.05,90.84 0.08,181.68 -0.06,272.52 -91.37,48.92 -182.65,98.01 -274.02,146.94 -2.46,1.38 -4.81,2.93 -7.12,4.54 h -1.21 c -2.99,-1.74 -5.87,-3.64 -8.89,-5.3 -89.73,-48.27 -179.33,-96.81 -269.09,-145.04 -0.5,-11.55 -0.1,-23.11 -0.22,-34.66 0.09,-23.67 -0.25,-47.34 0.3,-71 0.01,-47.33 0.01,-94.67 -0.01,-142 -0.11,-13.69 0.54,-27.37 0.35,-41.06 -0.06,-2.97 -0.26,-5.93 -0.67,-8.87 -4.44,-28.08 -9.01,-56.13 -13.35,-84.22 -1.59,7.65 -2.49,15.43 -3.83,23.13 -8.38,49.7 -16.58,99.43 -24.87,149.14 -0.98,6 -2.02,11.99 -3.33,17.93 -3.69,-8.41 -6.7,-17.1 -10,-25.67 C 66.23,711.36 54.04,679.29 41.73,647.25 21.5,600.2 8.11,550.09 3.24,499.06 -0.47,461.15 -0.18,422.79 4.88,385.02 5.93,374.48 8.57,364.2 10.76,353.86 18.24,318.31 26,282.82 33.46,247.27 c 2.51,-11.49 5.02,-22.98 7.25,-34.53 0.77,-3.37 1.38,-7.44 4.78,-9.21 56.9,-31.34 113.65,-62.99 170.44,-94.56 43.15,-23.83 86.23,-47.76 129.33,-71.69 5.87,-3.3 11.67,-6.74 17.83,-9.49 -2.8,6.76 -6.37,13.17 -9.74,19.67 -12,23 -23.86,46.08 -35.88,69.07 -3.94,8.07 -8.77,15.72 -11.83,24.2 -4.6,12.52 -8.55,25.41 -9.9,38.73 8.54,-1.62 16.82,-4.29 25.12,-6.81 -0.95,-11.47 -2.46,-22.88 -4.05,-34.28 -0.39,-3.35 -0.95,-6.74 -0.49,-10.11 0.59,-2.92 2.65,-5.23 4.39,-7.54 5.14,-6.26 9.9,-12.8 14.83,-19.23 23.54,-30.77 46.96,-61.64 70.54,-92.38 2.21,-2.9 4.2,-5.95 6.01,-9.11 m -9.98,45.13 c -21.34,27.96 -42.6,55.98 -64.02,83.88 -1.22,1.77 -2.83,3.64 -2.45,5.96 0.25,4.57 1.07,9.08 1.51,13.64 1.27,12.76 2.93,25.48 4.13,38.25 -12.81,3.11 -25.45,6.87 -38.12,10.49 -7.42,2.14 -14.75,4.64 -22.31,6.29 -2,-4 -3.6,-8.26 -4,-12.75 -1.42,-13.16 1.79,-26.22 5.24,-38.82 6.3,-21.44 15.5,-41.89 25.25,-61.96 2.38,-4.8 5.1,-9.42 7.46,-14.23 -5.31,2.58 -10.4,5.57 -15.56,8.42 -79.26,44.06 -158.6,87.96 -237.84,132.04 -2.78,1.24 -3.09,4.47 -3.7,7.08 -3.43,17.51 -7.45,34.91 -11.05,52.39 -7.16,33.07 -14.08,66.2 -21.24,99.28 -0.77,3.71 -1.3,7.47 -1.78,11.24 -4.56,35.01 -5.18,70.51 -2.14,105.67 4.48,49.37 16.52,98.05 35.78,143.74 8.46,20.65 15.84,41.73 24.23,62.41 2.98,-18.29 6.07,-36.56 9.1,-54.83 7.73,-44.72 15.02,-89.52 22.76,-134.24 2.75,-15.07 5.08,-30.22 8.1,-45.24 9.55,61.3 19.51,122.53 29.13,183.82 1.23,7.4 2.87,14.8 2.71,22.35 -0.18,26 0.25,52 -0.31,77.99 0.02,50.67 0,101.33 0.02,152 -0.18,10.33 -0.39,20.66 -0.28,31 0.16,5.92 -0.44,11.87 0.27,17.77 1.31,1.49 3.16,2.36 4.87,3.33 4.59,2.36 9.16,4.79 13.69,7.29 73.22,39.44 146.4,78.98 219.62,118.43 7.15,3.84 14.19,7.9 21.55,11.34 13.5,-6.84 26.71,-14.24 40.09,-21.33 59.2,-31.78 118.43,-63.52 177.64,-95.3 13.71,-7.27 27.27,-14.8 41.05,-21.95 1.25,-0.71 2.52,-1.43 3.62,-2.37 0.78,-2.31 0.61,-4.79 0.66,-7.17 -0.09,-5.35 -0.13,-10.7 -0.1,-16.04 0.01,-81.33 0,-162.66 0.01,-244 0.03,-7.51 -0.46,-15.09 0.98,-22.51 5.02,-27.1 8.95,-54.39 14.04,-81.48 2.14,-14.08 4.61,-28.11 7,-42.15 2.45,-11.97 3.86,-24.11 6.14,-36.1 2.28,-12.28 4.04,-24.66 6.43,-36.92 1.78,8.78 2.88,17.69 4.46,26.51 4.27,28.58 8.84,57.11 13.07,85.7 3.11,22.52 6.81,44.95 9.83,67.49 3.14,18.51 5.3,37.16 8.13,55.72 2.5,-4.68 4.05,-9.77 5.74,-14.77 13.83,-38.86 27.54,-77.76 41.35,-116.63 4.7,-14.65 7.74,-29.77 11.02,-44.78 2.12,-9.28 3.18,-18.75 4.78,-28.12 1.1,-6.45 1.37,-12.99 2.12,-19.48 1.15,-9.45 1.33,-18.98 1.54,-28.48 0.02,-16.77 -0.81,-33.66 -4.3,-50.11 -12.49,-54.99 -25.21,-109.93 -37.78,-164.9 -0.86,-3.53 -1.18,-7.26 -2.79,-10.55 -1.6,-1.79 -3.83,-2.82 -5.87,-3.99 -6.08,-3.2 -12.04,-6.6 -18.05,-9.92 C 674.5,167.2 605.51,128.79 536.45,90.5 c -8.17,-4.49 -16.16,-9.31 -24.57,-13.35 5.83,11.45 12.39,22.52 17.91,34.12 8.98,18.56 17.29,37.61 21.98,57.75 1.52,7.16 2.2,14.59 1.29,21.87 -0.51,4.52 -2.87,8.49 -5.26,12.24 -5.25,-1.07 -10.36,-2.69 -15.48,-4.21 -10.24,-2.83 -20.54,-5.42 -30.77,-8.25 -5.05,-1.45 -10.33,-2.12 -15.2,-4.14 -0.7,-3.87 0.26,-7.78 0.78,-11.61 1.64,-9.74 2.48,-19.6 4.25,-29.32 0.55,-4.24 1.99,-9.21 -1.21,-12.79 -22.3,-29.04 -44.48,-58.18 -66.74,-87.25 -3.53,-4.64 -6.95,-9.37 -10.76,-13.8 -3.78,4.25 -7.1,8.87 -10.56,13.37 z"
       id="path129"
       inkscape:connector-curvature="0"
       style="opacity:1;fill:#000000" />
    <path
       d="m 358.75,130.76 c 17.95,-23.95 35.9,-47.9 53.86,-71.84 12.76,17.03 25.84,33.81 38.71,50.76 6.84,8.83 13.47,17.83 20.48,26.53 1.56,2.13 3.41,4.26 3.93,6.92 0.28,3.1 -0.59,6.16 -1.19,9.17 -3.06,13.09 -4.85,26.45 -7.99,39.52 -1.1,4.56 -1.94,9.17 -2.59,13.81 20.94,5.1 41.6,11.27 62.31,17.2 10.83,3.08 21.47,6.85 32.45,9.37 3.56,-6.63 6.71,-13.5 8.89,-20.72 4.37,-13.19 4.62,-27.41 2.87,-41.09 -3.96,-25.42 -17.36,-48.46 -34.26,-67.5 6.61,3.97 13.04,8.23 19.54,12.38 58.7,37.61 117.37,75.26 176.08,112.83 5.28,3.52 11.6,6.38 14.77,12.19 2.45,4.94 3.41,10.43 5.47,15.53 13.94,36.39 24.44,74.09 31.49,112.41 1.89,12.24 4.38,24.4 5.36,36.76 0.81,9.71 1.76,19.4 2.48,29.12 0.53,12.63 0.74,25.27 0.38,37.91 -0.02,10.69 -1.35,21.31 -2.14,31.96 -0.83,10.02 -2.66,19.92 -4.62,29.77 -1.86,9.24 -3.79,18.5 -6.8,27.45 -7.02,20.77 -13.56,41.69 -20.51,62.48 -2.04,6.5 -4.02,13.02 -6.48,19.37 2.29,-25.64 1.09,-51.5 -1.94,-77.02 -1.46,-15.01 -3.87,-29.9 -6.48,-44.75 -1.73,-10.67 -3.83,-21.27 -6.18,-31.82 -8.44,-39.15 -19.05,-77.82 -31.26,-115.96 -2.23,-6.99 -4.4,-14.02 -7.24,-20.79 -0.78,17.47 -1.55,34.97 -3.65,52.36 -1.32,15.85 -3.99,31.54 -6.31,47.27 -6.01,35.27 -14.2,70.21 -25.64,104.13 -2.61,7.29 -4.09,14.99 -7.64,21.93 -10.6,-59.88 -21.2,-119.77 -31.7,-179.68 -2.37,6.31 -4.14,12.83 -6.14,19.26 -7.31,22.67 -14.02,45.54 -21.51,68.16 -3.79,-10.03 -5.8,-20.59 -8.82,-30.85 -2.85,-10.16 -5.18,-20.47 -8.42,-30.52 0.02,5.75 0.36,11.49 0.74,17.22 0.58,8.99 0.17,18.08 1.97,26.96 2.05,10.28 5.37,20.26 8.63,30.22 7,20.84 14.88,41.39 23.53,61.61 1.47,3.52 2.77,7.13 4.65,10.47 2.34,4.15 6.04,7.24 9.25,10.69 14.79,15.9 24.69,36.27 27.98,57.75 0.98,6.71 1.18,13.52 1.09,20.3 -0.45,24.33 0.22,48.68 -0.42,73.02 -0.19,22.98 0.25,45.96 -0.34,68.94 0.05,36.68 -0.13,73.37 -0.07,110.05 -0.01,9.85 -0.11,19.7 -0.61,29.53 -80.76,42.15 -161.36,84.57 -242.07,126.8 -16.32,-8.68 -32.5,-17.62 -48.82,-26.3 -64.14,-34.83 -128.47,-69.3 -192.53,-104.27 -0.17,-38.59 0.28,-77.18 -0.3,-115.76 0.01,-39.67 0.03,-79.34 -0.01,-119 -0.39,-13.33 -0.2,-26.67 -0.27,-40 -0.02,-6.4 0.06,-12.8 0.77,-19.16 2.11,-20.18 10.26,-39.64 22.97,-55.43 3.16,-3.87 6.14,-7.87 9.22,-11.79 3.66,-4.69 8.16,-8.85 10.58,-14.38 10.66,-24.2 19.85,-49.04 27.75,-74.27 3.01,-10.14 6.14,-20.43 6.33,-31.09 0.22,-10.04 0.5,-20.08 0.49,-30.12 -5.34,20.49 -11.13,40.86 -16.41,61.37 -7.05,-23.58 -13.81,-47.24 -20.75,-70.85 -1.77,-6.22 -3.4,-12.49 -5.8,-18.51 -11.36,60.09 -22.8,120.16 -34.19,180.24 C 165.26,558.39 158.03,538 152.79,517.04 138.69,463.12 131.02,407.56 129.7,351.86 103.94,414.72 86.04,481.18 80.44,549.01 c -1.54,22.64 -2.51,45.32 -3.9,67.98 -0.62,9.07 0.3,18.15 0.33,27.22 C 68.23,617.42 59.4,590.7 50.73,563.92 44.26,545.12 40.93,525.43 38.5,505.75 32.55,451.59 37.49,396.64 49.39,343.6 c 5.57,-25.59 13.17,-50.71 21.92,-75.39 2.4,-6.83 5.26,-13.5 7.24,-20.48 1.23,-4.32 2.78,-8.84 6.29,-11.88 4.54,-3.99 9.97,-6.76 14.98,-10.1 59.52,-38.11 119.02,-76.27 178.51,-114.42 4.85,-3.09 9.68,-6.2 14.45,-9.41 -14.99,18.07 -27.43,38.74 -33.49,61.58 -3.23,11.45 -4.09,23.52 -2.79,35.34 1.38,12 6.23,23.35 12.76,33.43 6.41,-1.31 12.71,-3.11 19.03,-4.78 23.68,-6.05 47.36,-12.13 71.2,-17.53 -0.75,-9.19 -2.55,-18.23 -3.84,-27.34 -1.58,-11.03 -3.31,-22.03 -5.12,-33.02 -0.29,-2.83 -1.13,-6.01 0.52,-8.59 2.22,-3.66 5.16,-6.81 7.7,-10.25 m 53.48,-50.16 0.04,1.12 c -3.12,3.78 -5.88,7.84 -8.58,11.92 -9.81,14.53 -19.53,29.12 -29.49,43.55 -1.62,2.38 -3.45,4.67 -4.52,7.37 -0.8,2.73 -0.21,5.62 0.01,8.4 2.87,22.84 5.36,45.73 8.19,68.58 -14.75,2.6 -29.27,6.35 -43.85,9.72 -11.48,3.22 -23.19,5.54 -34.64,8.89 -7.62,2.19 -15.42,3.67 -23,6.01 -0.77,14.35 -1.49,28.7 -2.78,43.02 -1.3,16.32 -1.49,32.71 -2.99,49.01 -0.93,14.86 -1.62,29.73 -2.21,44.61 -1.14,11.04 -1.07,22.15 -1.9,33.21 -0.2,14.68 -1.03,29.35 -0.81,44.04 0.29,9.41 -2.55,18.48 -5.11,27.42 -5.97,21.13 -14.56,41.37 -22.5,61.79 8.47,-4.72 16.95,-9.46 25.85,-13.33 26.35,-11.26 53.77,-19.77 81.35,-27.43 6.19,-1.59 12.34,-3.39 18.59,-4.73 l 0.02,-0.9 c 2.25,-0.33 4.49,-0.68 6.73,-1.03 -0.03,-3.6 -0.04,-7.19 -0.04,-10.78 -2.16,0.61 -4.31,1.21 -6.47,1.81 -11.54,2.87 -22.78,6.78 -34.17,10.17 -2.89,0.73 -6.2,1.55 -8.94,-0.08 -4.8,-2.52 -6.03,-10.16 -1.65,-13.65 3.35,-2.47 7.54,-3.32 11.44,-4.59 11.05,-3.18 21.91,-6.97 33.02,-9.95 l 0.02,-0.88 c 1.96,-0.37 3.94,-0.71 5.83,-1.38 1.2,-2.25 0.97,-4.94 0.63,-7.38 -1.9,-1.17 -4.07,-1.76 -6.17,-2.44 -13.4,-4.56 -27.11,-8.15 -40.63,-12.33 -3.08,-0.96 -6.15,-3.09 -6.73,-6.48 -1.26,-4.55 1.89,-9.66 6.53,-10.51 2.73,-0.36 5.41,0.54 8.01,1.3 10.8,3.5 21.62,6.99 32.53,10.13 2.35,1.3 5.06,1.66 7.66,2.19 0.3,-11.69 1.24,-23.35 1.7,-35.03 0.45,-11.48 1.53,-22.93 1.65,-34.42 -22.02,-7.28 -43.78,-15.3 -65.73,-22.78 -0.24,-12.03 -0.14,-24.07 -0.05,-36.1 4.99,1.6 9.88,3.52 14.76,5.44 14.23,5.48 28.47,10.95 42.72,16.41 5.43,2.03 10.72,4.53 16.42,5.78 0.48,7.9 0.28,15.84 0.96,23.73 0.55,5.98 0.25,11.98 0.53,17.96 0.08,4.07 3.2,7.05 5.41,10.16 7.43,9.51 14.02,19.66 21.77,28.92 -0.12,-33.36 0.14,-66.71 0.04,-100.06 -0.05,-6 0.11,-12 0.27,-17.99 0.24,-23 -0.28,-46.01 0.34,-69.01 0.17,-22.32 -0.29,-44.64 0.32,-66.95 0.04,-26.42 -0.1,-52.83 0.19,-79.24 4.78,4.49 8.14,10.18 12.07,15.38 6.84,9.15 13.42,18.49 20.34,27.58 1.26,1.75 2.65,3.46 3.43,5.5 0.36,1.92 0.03,3.88 -0.14,5.8 -2.39,18.82 -4.28,37.7 -6.61,56.53 -0.82,7.88 -1.88,15.74 -2.46,23.65 14.5,2.93 29.21,4.61 43.75,7.32 22.5,3.4 44.89,7.52 67.41,10.72 -35.49,-10.66 -71.18,-20.65 -106.67,-31.31 1.62,-2.72 3.41,-5.33 4.91,-8.12 1.63,-2.98 1.64,-6.49 2.02,-9.79 1.44,-17.14 3.61,-34.22 5.07,-51.37 0.35,-2.42 -0.64,-4.7 -2.08,-6.58 -8.95,-12.41 -17.56,-25.05 -26.42,-37.52 -5.16,-6.93 -9.59,-14.41 -15.19,-21 m -194.38,83.27 c -40.03,25.63 -80.08,51.22 -120.12,76.83 -1.95,1.43 -4.49,2.82 -4.92,5.43 -0.41,2.45 1.53,4.38 2.92,6.14 8.51,9.42 17.34,18.57 25.55,28.25 6.14,5.97 11.46,12.73 17.64,18.67 0.95,-17.52 5.96,-34.95 15.44,-49.79 10.37,-16.62 25.5,-29.93 42.44,-39.58 3.95,-2.31 8.11,-4.22 12.33,-5.95 -0.07,7.21 -0.42,14.72 2.53,21.48 3.3,7.69 8.27,14.73 14.57,20.24 -7.26,15.87 -14.05,32.23 -16.84,49.57 -1.74,11.99 -3.5,24.16 -2.11,36.29 2.31,-4.52 4.12,-9.26 6.06,-13.94 8.51,-20.49 16.64,-41.15 25.49,-61.5 7.74,5.2 16.08,9.53 24.68,13.14 1.08,-5.33 1.17,-10.79 1.55,-16.2 0.05,-1.89 0.27,-3.82 -0.2,-5.66 -1.49,-2.77 -3.87,-4.89 -5.82,-7.31 -12.96,-15.58 -21.42,-35.52 -20.82,-56 -0.14,-13.99 4.18,-27.64 10.45,-40.02 -10.1,6.9 -20.56,13.26 -30.82,19.91 m 362.11,-18.7 c 6.88,14.2 10.6,30.12 8.97,45.92 -1.75,17.95 -9.51,35.04 -21.09,48.78 -1.98,2.45 -4.34,4.63 -5.92,7.38 -0.65,2.52 -0.22,5.15 -0.12,7.7 0.46,5.13 0.5,10.29 0.81,15.43 -0.01,-0.38 -0.02,-1.15 -0.02,-1.53 3.53,-0.89 6.96,-2.2 10.16,-3.96 5.19,-2.82 10.48,-5.54 15.15,-9.18 11.25,25.19 21.65,50.76 31.65,76.48 2.28,-29.96 -5.59,-60.03 -18.89,-86.72 7.08,-6.24 12.71,-14.31 15.55,-23.34 1.92,-5.89 1.45,-12.16 1.6,-18.25 16.3,6.81 31.05,17.29 43.04,30.25 10.4,11.17 18.13,24.76 22.59,39.35 2.51,8.32 3.66,16.96 4.66,25.57 6.15,-5.91 11.38,-12.69 17.56,-18.58 8.25,-9.96 17.32,-19.21 25.98,-28.82 1.27,-1.54 2.7,-3.36 2.34,-5.5 -0.14,-2.12 -2.02,-3.44 -3.56,-4.6 -50.16,-32.11 -100.28,-64.3 -150.46,-96.38 M 89.46,256.19 c -5.32,14.69 -10.65,29.38 -15.05,44.38 -9.59,31.3 -16.44,63.42 -20.61,95.88 -3.96,32.72 -4.74,65.87 -1.76,98.71 1.14,10.69 2.35,21.41 4.71,31.91 -0.04,-1.9 -0.09,-3.8 -0.23,-5.68 0.79,-9.09 0.7,-18.24 1.88,-27.3 4.44,-34.95 13.48,-69.12 24.21,-102.61 5.76,-17.84 12.38,-35.39 19.03,-52.91 6.12,-16.01 13.18,-31.64 19.78,-47.44 -4.79,-5.49 -9.61,-10.96 -14.73,-16.14 -5.63,-6.36 -11.3,-12.7 -17.23,-18.8 m 630.51,18.72 c -1.4,1.63 -2.77,3.28 -4.05,5 -4.3,3.46 -8.23,7.45 -11,12.25 l 0.58,-0.5 c 6.66,15.34 13.33,30.68 19.47,46.24 8.57,22.31 16.73,44.8 23.6,67.71 4.41,13.09 7.37,26.6 10.93,39.94 3.7,15.31 6.69,30.8 8.5,46.45 1.62,9.37 1.44,18.9 2.3,28.34 -0.11,2.27 -0.09,4.54 -0.05,6.82 8.94,-49.1 7.82,-99.65 0.18,-148.84 -5.4,-32.74 -13.32,-65.09 -24.06,-96.5 -2.94,-8.48 -5.66,-17.07 -9.3,-25.28 -5.93,5.9 -11.31,12.32 -17.1,18.37 m -198.74,32.33 c -30.66,11.74 -61.36,23.39 -92.07,34.99 -0.21,2.78 -0.4,5.55 -0.53,8.33 4.79,-1.29 9.44,-3.05 14.05,-4.88 21.55,-8.13 43.15,-16.14 64.69,-24.3 2.58,-0.95 5.2,-1.79 7.82,-2.6 0.33,12.01 0.33,24.04 0.01,36.05 -20.32,7.04 -40.57,14.27 -60.92,21.21 -1.53,0.57 -3.11,1.15 -4.37,2.22 -0.46,2.55 -0.24,5.16 -0.07,7.74 1.08,11.52 1.1,23.1 1.81,34.65 0.76,8.78 0.6,17.61 1.6,26.38 2.47,-0.69 4.93,-1.41 7.39,-2.13 0.26,-20.28 0.64,-40.55 0.66,-60.82 8.71,-3.78 17.69,-6.88 26.51,-10.39 9.4,-3.5 18.65,-7.39 28.1,-10.77 2.29,-0.9 4.7,-1.72 6.67,-3.26 0.99,-2.05 0.98,-4.39 1.23,-6.6 0.79,-12.39 2.38,-24.71 3.08,-37.1 0.33,-2.37 0,-5.35 2.22,-6.91 4.43,-3.58 9.41,-6.41 13.88,-9.95 -7.33,2.52 -14.5,5.46 -21.76,8.14 M 501.36,436.3 c -4.72,0.96 -9.23,2.74 -13.85,4.1 -35.19,10.75 -70.39,21.44 -105.53,32.32 -18.03,5.25 -35.87,11.14 -53.92,16.35 -2.36,0.81 -5.01,1.32 -6.88,3.09 -1,1.74 -0.94,3.83 -1.28,5.77 6.37,-1.38 12.48,-3.65 18.7,-5.56 52.32,-16.89 104.67,-33.7 157,-50.57 3.76,-1.18 7.54,-2.36 11.14,-4.01 -1.69,-0.78 -3.42,-2.07 -5.38,-1.49 m -181.62,3.99 c 23.37,7.08 46.79,14.04 70.19,21.03 2.76,0.82 5.49,1.84 8.37,2.2 3.18,0.22 6.09,-1.37 8.92,-2.59 -22.39,-6.65 -44.72,-13.45 -67.13,-20 -5.05,-1.36 -9.94,-3.51 -15.16,-4.1 -2.39,-0.28 -3.74,1.99 -5.19,3.46 m 110.78,32.29 c -0.43,-0.11 -1.29,-0.33 -1.72,-0.44 2.83,1.78 5.96,3.04 9.19,3.88 7.1,1.82 13.96,4.57 21.22,5.75 9.25,3.4 18.84,5.76 28.24,8.73 7.24,1.92 14.23,5.11 21.8,5.51 -0.9,-1.76 -1.44,-3.93 -3.21,-5.06 -2.87,-1.82 -6.25,-2.54 -9.47,-3.47 -14.25,-3.81 -28.18,-8.8 -42.5,-12.3 -5.15,-2.36 -10.59,-4.09 -16.22,-4.75 -2.59,0.04 -4.95,1.29 -7.33,2.15 m -72.05,39.63 c -7.36,1.11 -14.4,3.62 -21.49,5.79 -17.8,5.72 -35.52,11.81 -52.61,19.43 -4.76,2.15 -9.65,4.1 -14.09,6.88 -8.6,3.89 -16.56,9.14 -23.78,15.2 -5.24,4.51 -10.35,10.17 -10.73,17.46 16.04,-8.4 32.91,-16.3 51.18,-17.96 -14.44,11.4 -27.62,24.42 -39.01,38.87 -9.67,12.58 -17.89,26.54 -22.36,41.85 -2.76,9.13 -3.4,18.85 -2.25,28.31 0.27,1.74 0.45,3.6 1.35,5.17 3.8,1.9 7.96,2.91 11.94,4.37 14.3,5.53 29.12,9.55 43.82,13.85 26.27,7.03 52.88,12.92 79.85,16.51 38.25,5.98 77.11,7.34 115.76,5.93 3.67,-0.11 7.33,-0.43 10.96,-0.94 12.13,-1.2 24.47,-4.26 34.59,-11.31 6.09,-4.36 10.9,-10.67 12.92,-17.93 2.03,-7.61 0.83,-15.82 -2.43,-22.91 -4.72,-10.28 -11.59,-19.4 -19.1,-27.78 -12.98,-14.45 -28.08,-26.84 -43.96,-37.95 -4.06,-2.76 -8.23,-5.36 -12.16,-8.29 21.37,-4.17 44.02,-4.87 64.83,2.38 12.34,4.04 23.59,11.24 32.48,20.7 2.48,2.57 4.43,5.6 7.05,8.04 2.64,-0.03 5.03,-1.36 7.36,-2.46 5.05,-2.67 10,-5.7 14.08,-9.74 3.42,-3.44 6.24,-7.8 6.72,-12.72 0.52,-4.82 -1.33,-9.51 -3.81,-13.54 -4.22,-6.9 -9.56,-13.05 -15.27,-18.74 -17.86,-17.57 -40.46,-29.61 -63.98,-37.8 -11.6,-4.07 -23.62,-6.81 -35.64,-9.35 -3.65,-0.78 -7.36,-1.29 -11.09,-1.38 -4.37,-1.24 -8.96,-1.16 -13.43,-1.73 -11.34,-1.44 -22.78,-1.29 -34.18,-1.71 -17.88,0.25 -35.81,0.82 -53.52,3.5 M 199.08,687 c 9.29,5.35 19.11,9.68 28.86,14.11 14.19,6.39 28.86,11.66 43.65,16.47 9.56,3.39 19.35,6.03 29.16,8.6 22.6,5.95 45.61,10.42 68.84,13.05 6.51,0.74 13.07,0.96 19.59,1.7 8.58,1.01 17.23,0.8 25.85,1.19 7.33,0.36 14.66,0.04 21.99,-0.21 16.52,-0.31 33.03,-1.53 49.41,-3.71 13.76,-2.16 27.58,-4.1 41.09,-7.54 29.02,-6.87 57.45,-16.56 84.03,-30.14 5.6,-2.9 11.2,-5.83 16.46,-9.33 -6.89,2.61 -13.54,5.79 -20.46,8.32 -18.29,6.79 -37,12.48 -56,16.92 -7.36,1.47 -14.59,3.51 -21.96,4.88 -10.7,1.77 -21.33,3.89 -32.06,5.46 -9.46,1.76 -19.07,2.47 -28.59,3.83 -9.61,1.09 -19.25,2.1 -28.93,2.1 -25.06,0.67 -50.2,0.24 -75.12,-2.67 -49.4,-5 -97.97,-17.11 -144.37,-34.68 -7.2,-2.67 -14.15,-5.93 -21.44,-8.35 m -17.57,28.41 c -0.31,-0.14 -0.94,-0.42 -1.25,-0.56 3.04,7.13 5.87,14.39 7.64,21.95 1.72,7.28 0.9,14.81 1.15,22.21 0.45,12 0.07,24.01 0.28,36.01 0.32,11.6 -0.04,23.2 0.21,34.8 0.44,11.71 -0.02,23.43 0.29,35.15 0.3,8.34 0.11,16.69 0.22,25.04 -0.01,3.8 0.09,7.86 -1.85,11.29 -2.1,3.82 -5.01,7.12 -7.54,10.66 19,9.93 38.1,19.66 57.24,29.32 4.05,2 7.87,4.49 12.13,6.06 7.69,1.61 15.78,1.32 23.21,-1.33 -0.03,4.82 0,9.64 0.16,14.46 5.62,2.81 11.05,5.98 16.75,8.62 3.16,-1.83 6.31,-3.64 9.48,-5.45 0.1,-8.39 0.23,-16.79 -0.11,-25.18 -5.58,-2.71 -11.22,-5.31 -16.61,-8.38 0.16,-10.69 0.14,-21.39 -0.2,-32.08 -0.04,-35 -0.02,-70 0,-105 0.08,-6.33 -0.18,-12.65 -0.27,-18.97 -0.12,-5.98 0.53,-12.19 -1.65,-17.91 -3.26,-8.51 -9.6,-15.96 -17.84,-19.98 -4.9,-2.39 -10.1,-4.07 -15.16,-6.07 -16.09,-6.24 -32.19,-12.47 -48.27,-18.71 -1.98,-0.67 -4.1,-1.49 -6.21,-0.94 -4.18,0.98 -7.98,3.07 -11.8,4.99 m 445.97,2.04 c -27.34,10.11 -54.77,19.98 -82.14,29.98 -7.17,2.8 -14.55,5.04 -21.56,8.22 1.88,3.9 3.73,7.93 4.16,12.3 0.97,9 0.21,18.07 0.38,27.1 0.07,1.31 0.1,2.7 0.68,3.93 5.08,2.68 10.72,4.09 16.06,6.19 7.43,-2.5 14.71,-5.44 22.13,-7.99 0.28,47.54 0.02,95.08 0.13,142.62 3.83,1.94 7.74,3.72 11.68,5.41 3.81,-1.53 7.54,-3.24 11.13,-5.22 7.97,-4.47 16.3,-8.25 24.37,-12.52 0.1,-43.82 0.01,-87.65 0.04,-131.47 0.03,-7.74 -0.13,-15.48 0.14,-23.21 1.79,1.32 3.46,2.89 5.5,3.84 4.55,-1.18 8.63,-3.62 13.02,-5.24 2.75,-1.24 5.84,-1.98 8.19,-3.96 0.81,-11.02 -0.94,-22.2 1.18,-33.12 0.87,-4.72 2.78,-9.17 5.06,-13.37 -0.3,0.13 -0.92,0.4 -1.22,0.53 -4.39,-1.73 -8.79,-3.52 -13.4,-4.54 -1.86,-0.48 -3.77,-0.11 -5.53,0.52 m -314.36,58.5 c -5.4,3.16 -9.3,8.8 -10.25,15 -0.75,4.98 -0.36,10.03 -0.42,15.05 0.02,47.98 0,95.95 0.01,143.93 -0.02,8.74 2.58,17.6 8.12,24.46 3.49,4.61 8.23,8.11 13.37,10.71 10.74,5.52 21.45,11.12 32.15,16.75 2.52,1.28 5.06,2.61 7.81,3.38 6.55,1.91 13.72,2.26 20.27,0.12 6.08,-2.04 10.65,-7.09 13.55,-12.66 4.24,-8.19 5.82,-17.51 5.9,-26.66 -0.03,-46.01 -0.02,-92.02 -0.01,-138.03 -0.08,-6.45 0.61,-13.05 -1.2,-19.33 -1.91,-6.61 -5.76,-12.63 -10.86,-17.23 -3.32,-3.03 -7.51,-4.81 -11.65,-6.39 -10.32,-3.96 -20.59,-8.06 -30.9,-12.06 -5.49,-2.14 -10.95,-5.11 -17.02,-4.82 -7.04,0.06 -13.33,3.77 -18.87,7.78 m 174.13,-6.62 c -12.82,4.74 -25.38,10.15 -38.23,14.83 -5.04,1.94 -10.37,3.71 -14.4,7.47 -5.12,4.8 -8.38,11.32 -10.08,18.08 -1.78,6.95 -1.18,14.19 -1.24,21.29 0.01,42 0.01,84 0,126 0.03,6.66 -0.3,13.37 0.69,20 0.96,6.74 3.3,13.31 6.88,19.11 3.15,5.2 8.48,9.03 14.41,10.36 5.87,1.15 11.98,0.53 17.66,-1.28 3.7,-1.1 7.09,-3.02 10.52,-4.77 7.17,-3.81 14.34,-7.62 21.59,-11.28 5.63,-2.93 11.59,-5.47 16.37,-9.75 5.42,-4.63 9.37,-10.89 11.31,-17.73 2.08,-7.03 1.48,-14.44 1.55,-21.66 0,-47.68 -0.04,-95.35 0.02,-143.03 -0.04,-3.62 -0.29,-7.32 -1.64,-10.71 -1.73,-4.54 -5.3,-8.19 -9.41,-10.67 -7.2,-5.6 -16.95,-9.45 -26,-6.26 m 47.37,170.55 c 0.07,7.99 -0.53,16.02 0.18,23.98 2.4,3.15 6.37,4.52 9.8,6.28 4.83,-2.75 10,-4.85 14.7,-7.81 2.04,-0.94 1.91,-3.39 2.05,-5.26 0.17,-6.22 -0.12,-12.44 -0.15,-18.65 -3.16,-2.59 -6.64,-4.73 -10.2,-6.7 -5.5,2.65 -10.96,5.38 -16.38,8.16 m -133.28,57.2 -0.73,-0.45 c -0.1,7.47 -0.1,14.95 -0.12,22.42 0.2,1.69 -0.34,3.98 1.41,5.05 3.44,2.47 7.39,4.09 11.05,6.21 l -0.04,-0.99 c 4.23,-1.14 8.11,-3.21 11.75,-5.58 -0.05,-8.84 -0.05,-17.67 0,-26.5 -3.82,-2.08 -7.48,-4.76 -11.79,-5.66 -4.34,0.39 -7.92,3.3 -11.53,5.5 z"
       id="path131"
       inkscape:connector-curvature="0"
       style="opacity:1;fill:#000000" />
    <path
       d="m 221.87,768.69 c 8.17,2.73 16.1,6.11 24.08,9.33 0.11,8 0.01,16 0.1,24 0.06,3.81 -0.24,7.62 -0.93,11.38 -7.92,-2.77 -15.53,-6.3 -23.23,-9.62 -0.54,-11.69 -0.37,-23.4 -0.02,-35.09 z"
       id="path133"
       inkscape:connector-curvature="0"
       style="opacity:1;fill:#000000" />
    <path
       d="m 340.89,816.81 c 5.38,2.11 11.04,4 15.52,7.8 5.85,4.98 9.08,12.7 8.88,20.35 -0.05,30.68 -0.01,61.36 -0.02,92.04 -0.04,7.12 0.24,14.25 -0.35,21.36 -5.51,-3.05 -11.19,-5.78 -16.93,-8.38 -2.39,-1.22 -5.04,-2.28 -6.76,-4.42 -1.19,-5.1 -0.47,-10.39 -0.56,-15.56 0.06,-28 0,-56 0.02,-84 0.03,-9.73 -0.14,-19.46 0.2,-29.19 z"
       id="path135"
       inkscape:connector-curvature="0"
       style="opacity:1;fill:#000000" />
    <path
       d="m 473.41,822.38 c 3.88,-2.42 8.22,-3.97 12.47,-5.63 0.28,31.75 0.04,63.5 0.12,95.25 -0.13,11.51 0.3,23.04 -0.24,34.55 -8.09,3.75 -16.05,7.77 -24.06,11.67 -0.4,-36.74 0.01,-73.48 -0.21,-110.21 -0.01,-3.59 -0.04,-7.22 0.88,-10.7 1.6,-6.14 5.66,-11.57 11.04,-14.93 z"
       id="path137"
       inkscape:connector-curvature="0"
       style="opacity:1;fill:#000000" />
    <path
       d="m 221.76,843.98 c 8.14,3.51 16.01,7.62 24.14,11.19 0.23,11.96 0.01,23.93 0.15,35.9 0.19,3.61 -0.8,7.13 -2.44,10.33 -4.47,-2.22 -8.98,-4.35 -13.59,-6.27 -2.56,-1.15 -5.25,-2.15 -7.45,-3.93 -1.34,-2.85 -0.99,-6.12 -1.08,-9.17 0.31,-12.69 -0.07,-25.37 0.27,-38.05 z"
       id="path139"
       inkscape:connector-curvature="0"
       style="opacity:1;fill:#000000" />
  </g>
  <g
     id="#ffffffff"
     transform="matrix(0.04320432,0,0,0.04320432,6.0287791,-5.1000005e-7)">
    <path
       d="m 402.11,45.13 c 3.46,-4.5 6.78,-9.12 10.56,-13.37 -0.15,9.06 -0.12,18.11 -0.06,27.16 -17.96,23.94 -35.91,47.89 -53.86,71.84 -2.54,3.44 -5.48,6.59 -7.7,10.25 -1.65,2.58 -0.81,5.76 -0.52,8.59 1.81,10.99 3.54,21.99 5.12,33.02 1.29,9.11 3.09,18.15 3.84,27.34 -23.84,5.4 -47.52,11.48 -71.2,17.53 -6.32,1.67 -12.62,3.47 -19.03,4.78 -6.53,-10.08 -11.38,-21.43 -12.76,-33.43 -1.3,-11.82 -0.44,-23.89 2.79,-35.34 6.06,-22.84 18.5,-43.51 33.49,-61.58 -4.77,3.21 -9.6,6.32 -14.45,9.41 -59.49,38.15 -118.99,76.31 -178.51,114.42 -5.01,3.34 -10.44,6.11 -14.98,10.1 -3.51,3.04 -5.06,7.56 -6.29,11.88 -1.98,6.98 -4.84,13.65 -7.24,20.48 -8.75,24.68 -16.35,49.8 -21.92,75.39 -11.9,53.04 -16.84,107.99 -10.89,162.15 2.43,19.68 5.76,39.37 12.23,58.17 8.67,26.78 17.5,53.5 26.14,80.29 -0.03,-9.07 -0.95,-18.15 -0.33,-27.22 1.39,-22.66 2.36,-45.34 3.9,-67.98 5.6,-67.83 23.5,-134.29 49.26,-197.15 1.32,55.7 8.99,111.26 23.09,165.18 5.24,20.96 12.47,41.35 18.88,61.97 11.39,-60.08 22.83,-120.15 34.19,-180.24 2.4,6.02 4.03,12.29 5.8,18.51 6.94,23.61 13.7,47.27 20.75,70.85 5.28,-20.51 11.07,-40.88 16.41,-61.37 0.01,10.04 -0.27,20.08 -0.49,30.12 -0.19,10.66 -3.32,20.95 -6.33,31.09 -7.9,25.23 -17.09,50.07 -27.75,74.27 -2.42,5.53 -6.92,9.69 -10.58,14.38 -3.08,3.92 -6.06,7.92 -9.22,11.79 -12.71,15.79 -20.86,35.25 -22.97,55.43 -0.71,6.36 -0.79,12.76 -0.77,19.16 0.07,13.33 -0.12,26.67 0.27,40 0.04,39.66 0.02,79.33 0.01,119 0.58,38.58 0.13,77.17 0.3,115.76 64.06,34.97 128.39,69.44 192.53,104.27 16.32,8.68 32.5,17.62 48.82,26.3 -0.11,6.94 -0.11,13.89 0.09,20.83 -7.36,-3.44 -14.4,-7.5 -21.55,-11.34 -73.22,-39.45 -146.4,-78.99 -219.62,-118.43 -4.53,-2.5 -9.1,-4.93 -13.69,-7.29 -1.71,-0.97 -3.56,-1.84 -4.87,-3.33 -0.71,-5.9 -0.11,-11.85 -0.27,-17.77 -0.11,-10.34 0.1,-20.67 0.28,-31 -0.02,-50.67 0,-101.33 -0.02,-152 0.56,-25.99 0.13,-51.99 0.31,-77.99 0.16,-7.55 -1.48,-14.95 -2.71,-22.35 -9.62,-61.29 -19.58,-122.52 -29.13,-183.82 -3.02,15.02 -5.35,30.17 -8.1,45.24 -7.74,44.72 -15.03,89.52 -22.76,134.24 -3.03,18.27 -6.12,36.54 -9.1,54.83 C 73.11,677.47 65.73,656.39 57.27,635.74 38.01,590.05 25.97,541.37 21.49,492 c -3.04,-35.16 -2.42,-70.66 2.14,-105.67 0.48,-3.77 1.01,-7.53 1.78,-11.24 7.16,-33.08 14.08,-66.21 21.24,-99.28 3.6,-17.48 7.62,-34.88 11.05,-52.39 0.61,-2.61 0.92,-5.84 3.7,-7.08 79.24,-44.08 158.58,-87.98 237.84,-132.04 5.16,-2.85 10.25,-5.84 15.56,-8.42 -2.36,4.81 -5.08,9.43 -7.46,14.23 -9.75,20.07 -18.95,40.52 -25.25,61.96 -3.45,12.6 -6.66,25.66 -5.24,38.82 0.4,4.49 2,8.75 4,12.75 7.56,-1.65 14.89,-4.15 22.31,-6.29 12.67,-3.62 25.31,-7.38 38.12,-10.49 -1.2,-12.77 -2.86,-25.49 -4.13,-38.25 -0.44,-4.56 -1.26,-9.07 -1.51,-13.64 -0.38,-2.32 1.23,-4.19 2.45,-5.96 21.42,-27.9 42.68,-55.92 64.02,-83.88 z"
       id="path142"
       inkscape:connector-curvature="0"
       style="opacity:1;fill:#ffffff" />
    <path
       d="m 412.23,80.6 c 5.6,6.59 10.03,14.07 15.19,21 8.86,12.47 17.47,25.11 26.42,37.52 1.44,1.88 2.43,4.16 2.08,6.58 -1.46,17.15 -3.63,34.23 -5.07,51.37 -0.38,3.3 -0.39,6.81 -2.02,9.79 -1.5,2.79 -3.29,5.4 -4.91,8.12 35.49,10.66 71.18,20.65 106.67,31.31 -22.52,-3.2 -44.91,-7.32 -67.41,-10.72 -14.54,-2.71 -29.25,-4.39 -43.75,-7.32 0.58,-7.91 1.64,-15.77 2.46,-23.65 2.33,-18.83 4.22,-37.71 6.61,-56.53 0.17,-1.92 0.5,-3.88 0.14,-5.8 -0.78,-2.04 -2.17,-3.75 -3.43,-5.5 -6.92,-9.09 -13.5,-18.43 -20.34,-27.58 -3.93,-5.2 -7.29,-10.89 -12.07,-15.38 -0.19,-4.03 -0.41,-8.06 -0.53,-12.09 z"
       id="path144"
       inkscape:connector-curvature="0"
       style="opacity:1;fill:#ffffff" />
    <path
       d="m 217.85,163.87 c 10.26,-6.65 20.72,-13.01 30.82,-19.91 -6.27,12.38 -10.59,26.03 -10.45,40.02 -0.6,20.48 7.86,40.42 20.82,56 1.95,2.42 4.33,4.54 5.82,7.31 0.47,1.84 0.25,3.77 0.2,5.66 -0.38,5.41 -0.47,10.87 -1.55,16.2 0.23,-3.35 0.52,-6.7 0.8,-10.04 -7.12,-5.27 -14.03,-10.84 -20.5,-16.91 -4.28,-4.04 -8.83,-7.85 -12.51,-12.47 -4.66,-5.87 -6.96,-13.29 -7.54,-20.69 -0.97,-12.5 0.7,-25.17 4.8,-37.02 -8,3.84 -16.23,7.22 -23.93,11.64 -19.38,11.13 -36.83,25.64 -51.23,42.75 -7.8,9.2 -14.71,19.22 -19.92,30.12 -1.92,3.96 -3.08,8.25 -3.48,12.62 -0.47,3.26 -0.46,6.76 -2.12,9.71 -1.27,2.46 -4.38,1.49 -6.6,1.66 -8.21,-9.68 -17.04,-18.83 -25.55,-28.25 -1.39,-1.76 -3.33,-3.69 -2.92,-6.14 0.43,-2.61 2.97,-4 4.92,-5.43 40.04,-25.61 80.09,-51.2 120.12,-76.83 z"
       id="path146"
       inkscape:connector-curvature="0"
       style="opacity:1;fill:#ffffff" />
    <path
       d="m 579.96,145.17 c 50.18,32.08 100.3,64.27 150.46,96.38 1.54,1.16 3.42,2.48 3.56,4.6 0.36,2.14 -1.07,3.96 -2.34,5.5 -8.66,9.61 -17.73,18.86 -25.98,28.82 -1.92,0.02 -3.91,0.27 -5.75,-0.36 -2.62,-2.18 -2.38,-6 -2.86,-9.07 -0.31,-5.25 -1.49,-10.46 -3.94,-15.14 -9.42,-18.83 -23.26,-35.13 -38.82,-49.19 -16.26,-14.34 -34.82,-26.29 -55.19,-33.86 2.39,9.88 4.62,19.91 4.35,30.14 -0.12,7.21 -1.05,14.61 -4.39,21.09 -2.67,5.36 -6.97,9.64 -11.27,13.72 -6.03,5.63 -12.08,11.3 -18.78,16.14 -2.1,1.65 -4.48,3.13 -5.93,5.43 -0.85,3.08 -0.47,6.32 -0.49,9.48 0,0.38 0.01,1.15 0.02,1.53 -0.31,-5.14 -0.35,-10.3 -0.81,-15.43 -0.1,-2.55 -0.53,-5.18 0.12,-7.7 1.58,-2.75 3.94,-4.93 5.92,-7.38 11.58,-13.74 19.34,-30.83 21.09,-48.78 1.63,-15.8 -2.09,-31.72 -8.97,-45.92 z"
       id="path148"
       inkscape:connector-curvature="0"
       style="opacity:1;fill:#ffffff" />
    <path
       d="m 226.23,245.59 c 4.25,3.42 8.38,6.97 12.6,10.42 -8.85,20.35 -16.98,41.01 -25.49,61.5 -1.94,4.68 -3.75,9.42 -6.06,13.94 -1.39,-12.13 0.37,-24.3 2.11,-36.29 2.79,-17.34 9.58,-33.7 16.84,-49.57 z"
       id="path150"
       inkscape:connector-curvature="0"
       style="opacity:1;fill:#ffffff" />
    <path
       d="m 587.9,255.71 c 4.28,-3.39 8.55,-6.77 12.76,-10.24 13.3,26.69 21.17,56.76 18.89,86.72 -10,-25.72 -20.4,-51.29 -31.65,-76.48 z"
       id="path152"
       inkscape:connector-curvature="0"
       style="opacity:1;fill:#ffffff" />
    <path
       d="m 89.46,256.19 c 5.93,6.1 11.6,12.44 17.23,18.8 -4.13,6.77 -8.57,13.36 -12.23,20.4 -11.53,21.91 -20.11,45.34 -25.92,69.4 -3.66,13.85 -6.01,28 -8.32,42.12 -2.49,18.59 -4.41,37.28 -4.89,56.05 -0.56,19.47 -0.55,39 1.19,58.43 0.14,1.88 0.19,3.78 0.23,5.68 -2.36,-10.5 -3.57,-21.22 -4.71,-31.91 -2.98,-32.84 -2.2,-65.99 1.76,-98.71 4.17,-32.46 11.02,-64.58 20.61,-95.88 4.4,-15 9.73,-29.69 15.05,-44.38 z"
       id="path154"
       inkscape:connector-curvature="0"
       style="opacity:1;fill:#ffffff" />
    <path
       d="m 719.97,274.91 c 5.79,-6.05 11.17,-12.47 17.1,-18.37 3.64,8.21 6.36,16.8 9.3,25.28 10.74,31.41 18.66,63.76 24.06,96.5 7.64,49.19 8.76,99.74 -0.18,148.84 -0.04,-2.28 -0.06,-4.55 0.05,-6.82 1.56,-23.48 1.17,-47.04 -0.22,-70.52 -0.88,-15.5 -3.02,-30.88 -4.98,-46.27 -3.07,-20.04 -7.75,-39.81 -13.45,-59.26 -7.55,-24.33 -17.69,-48.03 -31.68,-69.38 z"
       id="path156"
       inkscape:connector-curvature="0"
       style="opacity:1;fill:#ffffff" />
    <path
       d="m 281.93,299.21 c 33.58,12.9 67.09,25.99 100.62,39.04 0.13,2.68 0.28,5.36 0.42,8.04 -5.7,-1.25 -10.99,-3.75 -16.42,-5.78 -14.25,-5.46 -28.49,-10.93 -42.72,-16.41 -4.88,-1.92 -9.77,-3.84 -14.76,-5.44 -0.09,12.03 -0.19,24.07 0.05,36.1 21.95,7.48 43.71,15.5 65.73,22.78 -0.12,11.49 -1.2,22.94 -1.65,34.42 -0.46,11.68 -1.4,23.34 -1.7,35.03 -2.6,-0.53 -5.31,-0.89 -7.66,-2.19 -0.41,-15.93 -0.45,-31.86 -0.5,-47.79 -0.05,-4.21 0.37,-8.49 -0.51,-12.64 -2.16,-1.84 -4.92,-2.71 -7.52,-3.7 -9.52,-3.36 -18.88,-7.17 -28.32,-10.75 -8.52,-3.35 -17.18,-6.35 -25.55,-10.08 -0.91,-14.02 -2.54,-27.97 -3.49,-41.98 -0.23,-2.32 -0.34,-4.7 -1.14,-6.91 -0.81,-1.7 -2.48,-2.75 -3.92,-3.87 -3.69,-2.58 -7.44,-5.06 -10.96,-7.87 z"
       id="path158"
       inkscape:connector-curvature="0"
       style="opacity:1;fill:#ffffff" />
    <path
       d="m 501.36,436.3 c 1.96,-0.58 3.69,0.71 5.38,1.49 -3.6,1.65 -7.38,2.83 -11.14,4.01 -52.33,16.87 -104.68,33.68 -157,50.57 -6.22,1.91 -12.33,4.18 -18.7,5.56 0.34,-1.94 0.28,-4.03 1.28,-5.77 1.87,-1.77 4.52,-2.28 6.88,-3.09 18.05,-5.21 35.89,-11.1 53.92,-16.35 35.14,-10.88 70.34,-21.57 105.53,-32.32 4.62,-1.36 9.13,-3.14 13.85,-4.1 z"
       id="path160"
       inkscape:connector-curvature="0"
       style="opacity:1;fill:#ffffff" />
    <path
       d="m 319.74,440.29 c 1.45,-1.47 2.8,-3.74 5.19,-3.46 5.22,0.59 10.11,2.74 15.16,4.1 22.41,6.55 44.74,13.35 67.13,20 -2.83,1.22 -5.74,2.81 -8.92,2.59 -2.88,-0.36 -5.61,-1.38 -8.37,-2.2 -23.4,-6.99 -46.82,-13.95 -70.19,-21.03 z"
       id="path162"
       inkscape:connector-curvature="0"
       style="opacity:1;fill:#ffffff" />
    <path
       d="m 459.6,512.15 c 3.73,0.09 7.44,0.6 11.09,1.38 12.02,2.54 24.04,5.28 35.64,9.35 23.52,8.19 46.12,20.23 63.98,37.8 5.71,5.69 11.05,11.84 15.27,18.74 2.48,4.03 4.33,8.72 3.81,13.54 -0.48,4.92 -3.3,9.28 -6.72,12.72 -4.08,4.04 -9.03,7.07 -14.08,9.74 -2.33,1.1 -4.72,2.43 -7.36,2.46 -2.62,-2.44 -4.57,-5.47 -7.05,-8.04 -8.89,-9.46 -20.14,-16.66 -32.48,-20.7 -20.81,-7.25 -43.46,-6.55 -64.83,-2.38 3.93,2.93 8.1,5.53 12.16,8.29 15.88,11.11 30.98,23.5 43.96,37.95 7.51,8.38 14.38,17.5 19.1,27.78 3.26,7.09 4.46,15.3 2.43,22.91 -2.02,7.26 -6.83,13.57 -12.92,17.93 -10.12,7.05 -22.46,10.11 -34.59,11.31 1.52,-7.9 3.46,-15.76 3.69,-23.83 1.07,-21.06 -4.78,-41.97 -14.33,-60.6 -10.59,-20.2 -25.59,-37.79 -42.6,-52.88 11.98,-5.34 25.17,-7.5 38.22,-7.62 13.67,-0.34 27.37,1.24 40.63,4.54 5.62,1.37 11.91,2.09 17.22,-0.73 2.43,-1.23 4.66,-3.77 4.06,-6.68 -0.74,-3.93 -3.51,-7.04 -6.19,-9.82 -6.47,-6.37 -13.96,-11.59 -21.51,-16.58 -14.89,-9.93 -30.7,-18.39 -46.6,-26.58 z"
       id="path164"
       inkscape:connector-curvature="0"
       style="opacity:1;fill:#ffffff" />
    <path
       d="m 246.5,559.51 c 7.22,-6.06 15.18,-11.31 23.78,-15.2 -5.6,3.53 -10.09,8.65 -12.57,14.8 5.02,-1.71 9.88,-3.94 15.08,-5.05 8.43,-1.73 17.35,-1.46 25.49,1.46 -7.17,8.08 -14.85,15.7 -21.66,24.1 -9.08,10.82 -17.12,22.46 -24.47,34.51 -4.15,6.91 -7.45,14.3 -10.35,21.81 -3.23,8.34 -5.55,17.11 -6.12,26.06 -0.35,5.21 0.32,10.41 0.94,15.58 -3.98,-1.46 -8.14,-2.47 -11.94,-4.37 -0.9,-1.57 -1.08,-3.43 -1.35,-5.17 -1.15,-9.46 -0.51,-19.18 2.25,-28.31 4.47,-15.31 12.69,-29.27 22.36,-41.85 11.39,-14.45 24.57,-27.47 39.01,-38.87 -18.27,1.66 -35.14,9.56 -51.18,17.96 0.38,-7.29 5.49,-12.95 10.73,-17.46 z"
       id="path166"
       inkscape:connector-curvature="0"
       style="opacity:1;fill:#ffffff" />
    <path
       d="m 180.26,714.85 c 0.31,0.14 0.94,0.42 1.25,0.56 21.37,8.81 43.06,16.82 64.46,25.56 5.78,2.46 11.18,5.94 15.46,10.57 4.24,4.57 8.13,10.04 8.69,16.44 0.52,5.99 0.1,12.01 0.17,18.02 0.04,48.02 -0.08,96.04 0.06,144.06 -0.03,4.36 -0.73,9.11 -3.93,12.35 -4.12,4.48 -10.66,5.09 -16.39,4.93 -4.26,-1.57 -8.08,-4.06 -12.13,-6.06 -19.14,-9.66 -38.24,-19.39 -57.24,-29.32 2.53,-3.54 5.44,-6.84 7.54,-10.66 1.94,-3.43 1.84,-7.49 1.85,-11.29 -0.11,-8.35 0.08,-16.7 -0.22,-25.04 -0.31,-11.72 0.15,-23.44 -0.29,-35.15 -0.25,-11.6 0.11,-23.2 -0.21,-34.8 -0.21,-12 0.17,-24.01 -0.28,-36.01 -0.25,-7.4 0.57,-14.93 -1.15,-22.21 -1.77,-7.56 -4.6,-14.82 -7.64,-21.95 m 25.94,47.34 c 1.71,3.72 3.63,7.55 3.55,11.76 0.12,11.92 -0.35,23.85 0.18,35.77 5.67,2.35 11.2,5.01 16.74,7.65 3.1,1.41 6.5,2.92 9.98,2.21 3.63,-0.66 6.06,-3.67 8.47,-6.18 0.69,-3.76 0.99,-7.57 0.93,-11.38 -0.09,-8 0.01,-16 -0.1,-24 -7.98,-3.22 -15.91,-6.6 -24.08,-9.33 -5.17,-2.3 -10.44,-4.36 -15.67,-6.5 m 3.65,75.96 c -0.32,15.97 -0.06,31.95 -0.1,47.92 0.15,3.27 -1.66,6.1 -3.29,8.79 5.92,3.43 11.97,6.67 18.13,9.68 3.18,1.52 6.68,2.92 10.28,2.38 3.61,-0.44 6.16,-3.26 8.74,-5.52 1.64,-3.2 2.63,-6.72 2.44,-10.33 -0.14,-11.97 0.08,-23.94 -0.15,-35.9 -8.13,-3.57 -16,-7.68 -24.14,-11.19 -3.97,-1.96 -7.93,-3.91 -11.91,-5.83 z"
       id="path168"
       inkscape:connector-curvature="0"
       style="opacity:1;fill:#ffffff" />
    <path
       d="m 646.41,721.47 c 0.3,-0.13 0.92,-0.4 1.22,-0.53 -2.28,4.2 -4.19,8.65 -5.06,13.37 -2.12,10.92 -0.37,22.1 -1.18,33.12 -2.35,1.98 -5.44,2.72 -8.19,3.96 -4.39,1.62 -8.47,4.06 -13.02,5.24 -2.04,-0.95 -3.71,-2.52 -5.5,-3.84 -0.27,7.73 -0.11,15.47 -0.14,23.21 -0.03,43.82 0.06,87.65 -0.04,131.47 -8.07,4.27 -16.4,8.05 -24.37,12.52 -3.59,1.98 -7.32,3.69 -11.13,5.22 -0.01,-52.41 0,-104.82 0.01,-157.23 -3.03,4.08 -6.8,7.77 -11.82,9.2 -7.42,2.55 -14.7,5.49 -22.13,7.99 -0.11,-9.08 -0.13,-18.16 0.11,-27.23 -0.03,-3.05 0.15,-6.23 -0.98,-9.11 -1.36,-2.97 -3.95,-5.09 -6.17,-7.39 27.55,-10.44 55.31,-20.31 82.98,-30.45 8.47,-3.16 17.1,-5.93 25.41,-9.52 z"
       id="path170"
       inkscape:connector-curvature="0"
       style="opacity:1;fill:#ffffff" />
    <path
       d="m 313.12,775.95 c 3.74,-1.57 7.77,-2.61 11.85,-2.38 4.28,0.21 8.31,1.79 12.26,3.31 8.13,3.24 16.31,6.36 24.49,9.45 3.82,1.45 7.69,2.78 11.33,4.66 8.97,4.6 15.5,13.49 17.53,23.34 1.63,7.78 1.06,15.78 1.14,23.67 0,46.99 -0.03,93.98 0.02,140.97 -0.08,4.09 -0.29,8.27 -1.6,12.19 -1.82,5.53 -6.21,10.03 -11.45,12.44 -4.62,2.1 -9.84,2.08 -14.78,1.63 -2.75,-0.77 -5.29,-2.1 -7.81,-3.38 -10.7,-5.63 -21.41,-11.23 -32.15,-16.75 -5.14,-2.6 -9.88,-6.1 -13.37,-10.71 -5.54,-6.86 -8.14,-15.72 -8.12,-24.46 -0.01,-47.98 0.01,-95.95 -0.01,-143.93 0.06,-5.02 -0.33,-10.07 0.42,-15.05 0.95,-6.2 4.85,-11.84 10.25,-15 m 12.95,34.71 c 1.33,3.62 2.76,7.33 2.69,11.27 -0.1,35.69 -0.02,71.38 -0.05,107.07 -0.06,4.63 0.3,9.28 -0.08,13.92 -0.22,2.63 -1.93,4.77 -3.24,6.96 8.16,4.08 16.29,8.23 24.51,12.19 2.78,1.18 5.77,2.78 8.89,2.12 2.98,-0.66 4.51,-3.55 6.13,-5.83 0.59,-7.11 0.31,-14.24 0.35,-21.36 0.01,-30.68 -0.03,-61.36 0.02,-92.04 0.2,-7.65 -3.03,-15.37 -8.88,-20.35 -4.48,-3.8 -10.14,-5.69 -15.52,-7.8 -4.8,-2.37 -9.73,-4.48 -14.82,-6.15 z"
       id="path172"
       inkscape:connector-curvature="0"
       style="opacity:1;fill:#ffffff" />
    <path
       d="m 485.52,778.56 c 4.42,-1.79 8.79,-3.88 13.52,-4.72 4.78,-0.85 9.71,0.05 14.21,1.75 4.11,2.48 7.68,6.13 9.41,10.67 1.35,3.39 1.6,7.09 1.64,10.71 -0.06,47.68 -0.02,95.35 -0.02,143.03 -0.07,7.22 0.53,14.63 -1.55,21.66 -1.94,6.84 -5.89,13.1 -11.31,17.73 -4.78,4.28 -10.74,6.82 -16.37,9.75 -7.25,3.66 -14.42,7.47 -21.59,11.28 -3.43,1.75 -6.82,3.67 -10.52,4.77 -5.2,0.49 -10.69,0.43 -15.51,-1.8 -4.59,-2.11 -8.03,-6.28 -9.66,-11.01 -2.43,-6.84 -2.72,-14.2 -2.79,-21.38 0.06,-48.01 -0.01,-96.02 0.03,-144.03 -0.04,-9.55 1.73,-19.57 7.66,-27.32 3.52,-4.71 8.73,-7.78 14.14,-9.86 9.56,-3.78 19.24,-7.23 28.71,-11.23 m 0.36,38.19 c -4.25,1.66 -8.59,3.21 -12.47,5.63 -5.38,3.36 -9.44,8.79 -11.04,14.93 -0.92,3.48 -0.89,7.11 -0.88,10.7 0.22,36.73 -0.19,73.47 0.21,110.21 1.72,2.37 3.42,5.25 6.51,5.95 3.1,0.74 6.06,-0.98 8.8,-2.21 7.92,-4.12 15.97,-8 23.93,-12.07 -1.13,-2.22 -2.59,-4.38 -2.83,-6.91 -0.42,-4.65 -0.05,-9.33 -0.11,-13.98 -0.03,-35.69 0.06,-71.39 -0.05,-107.08 -0.21,-4.34 1.72,-8.29 3.63,-12.05 -5.28,2.19 -10.53,4.45 -15.7,6.88 z"
       id="path174"
       inkscape:connector-curvature="0"
       style="opacity:1;fill:#ffffff" />
    <path
       d="m 534.62,939.88 c 5.42,-2.78 10.88,-5.51 16.38,-8.16 3.56,1.97 7.04,4.11 10.2,6.7 -5.3,2.61 -11.23,4.28 -15.82,8.12 -0.94,2.34 -0.85,4.92 -0.92,7.41 0.02,5.39 0.17,10.79 0.14,16.19 -3.43,-1.76 -7.4,-3.13 -9.8,-6.28 -0.71,-7.96 -0.11,-15.99 -0.18,-23.98 z"
       id="path176"
       inkscape:connector-curvature="0"
       style="opacity:1;fill:#ffffff" />
    <path
       d="m 273.3,937.08 c 5.51,2.7 11.77,4.27 16.49,8.33 1.31,7.8 0.23,15.8 0.36,23.68 -5.7,-2.64 -11.13,-5.81 -16.75,-8.62 -0.16,-4.82 -0.19,-9.64 -0.16,-14.46 0.01,-2.98 0.03,-5.96 0.06,-8.93 z"
       id="path178"
       inkscape:connector-curvature="0"
       style="opacity:1;fill:#ffffff" />
    <path
       d="m 400.61,996.63 0.73,0.45 c 3.84,2.3 7.63,4.68 11.37,7.13 0.05,8.36 -0.13,16.74 0.2,25.11 l 0.04,0.99 c -3.66,-2.12 -7.61,-3.74 -11.05,-6.21 -1.75,-1.07 -1.21,-3.36 -1.41,-5.05 0.02,-7.47 0.02,-14.95 0.12,-22.42 z"
       id="path180"
       inkscape:connector-curvature="0"
       style="opacity:1;fill:#ffffff" />
  </g>
  <g
     id="#e71e10ff"
     transform="matrix(0.04320432,0,0,0.04320432,6.0287791,-5.1000005e-7)">
    <path
       d="m 412.67,31.76 c 3.81,4.43 7.23,9.16 10.76,13.8 22.26,29.07 44.44,58.21 66.74,87.25 3.2,3.58 1.76,8.55 1.21,12.79 -1.77,9.72 -2.61,19.58 -4.25,29.32 -0.52,3.83 -1.48,7.74 -0.78,11.61 4.87,2.02 10.15,2.69 15.2,4.14 10.23,2.83 20.53,5.42 30.77,8.25 5.12,1.52 10.23,3.14 15.48,4.21 2.39,-3.75 4.75,-7.72 5.26,-12.24 0.91,-7.28 0.23,-14.71 -1.29,-21.87 -4.69,-20.14 -13,-39.19 -21.98,-57.75 -5.52,-11.6 -12.08,-22.67 -17.91,-34.12 8.41,4.04 16.4,8.86 24.57,13.35 69.06,38.29 138.05,76.7 207.09,115.03 6.01,3.32 11.97,6.72 18.05,9.92 2.04,1.17 4.27,2.2 5.87,3.99 1.61,3.29 1.93,7.02 2.79,10.55 12.57,54.97 25.29,109.91 37.78,164.9 3.49,16.45 4.32,33.34 4.3,50.11 -0.21,9.5 -0.39,19.03 -1.54,28.48 -0.75,6.49 -1.02,13.03 -2.12,19.48 -1.6,9.37 -2.66,18.84 -4.78,28.12 -3.28,15.01 -6.32,30.13 -11.02,44.78 -13.81,38.87 -27.52,77.77 -41.35,116.63 -1.69,5 -3.24,10.09 -5.74,14.77 -2.83,-18.56 -4.99,-37.21 -8.13,-55.72 -3.02,-22.54 -6.72,-44.97 -9.83,-67.49 -4.23,-28.59 -8.8,-57.12 -13.07,-85.7 -1.58,-8.82 -2.68,-17.73 -4.46,-26.51 -2.39,12.26 -4.15,24.64 -6.43,36.92 -2.28,11.99 -3.69,24.13 -6.14,36.1 -2.39,14.04 -4.86,28.07 -7,42.15 -5.09,27.09 -9.02,54.38 -14.04,81.48 -1.44,7.42 -0.95,15 -0.98,22.51 -0.01,81.34 0,162.67 -0.01,244 -0.03,5.34 0.01,10.69 0.1,16.04 -0.05,2.38 0.12,4.86 -0.66,7.17 -1.1,0.94 -2.37,1.66 -3.62,2.37 -13.78,7.15 -27.34,14.68 -41.05,21.95 -59.21,31.78 -118.44,63.52 -177.64,95.3 -13.38,7.09 -26.59,14.49 -40.09,21.33 -0.2,-6.94 -0.2,-13.89 -0.09,-20.83 80.71,-42.23 161.31,-84.65 242.07,-126.8 0.5,-9.83 0.6,-19.68 0.61,-29.53 -0.06,-36.68 0.12,-73.37 0.07,-110.05 0.59,-22.98 0.15,-45.96 0.34,-68.94 0.64,-24.34 -0.03,-48.69 0.42,-73.02 0.09,-6.78 -0.11,-13.59 -1.09,-20.3 -3.29,-21.48 -13.19,-41.85 -27.98,-57.75 -3.21,-3.45 -6.91,-6.54 -9.25,-10.69 -1.88,-3.34 -3.18,-6.95 -4.65,-10.47 -8.65,-20.22 -16.53,-40.77 -23.53,-61.61 -3.26,-9.96 -6.58,-19.94 -8.63,-30.22 -1.8,-8.88 -1.39,-17.97 -1.97,-26.96 -0.38,-5.73 -0.72,-11.47 -0.74,-17.22 3.24,10.05 5.57,20.36 8.42,30.52 3.02,10.26 5.03,20.82 8.82,30.85 7.49,-22.62 14.2,-45.49 21.51,-68.16 2,-6.43 3.77,-12.95 6.14,-19.26 10.5,59.91 21.1,119.8 31.7,179.68 3.55,-6.94 5.03,-14.64 7.64,-21.93 11.44,-33.92 19.63,-68.86 25.64,-104.13 2.32,-15.73 4.99,-31.42 6.31,-47.27 2.1,-17.39 2.87,-34.89 3.65,-52.36 2.84,6.77 5.01,13.8 7.24,20.79 12.21,38.14 22.82,76.81 31.26,115.96 2.35,10.55 4.45,21.15 6.18,31.82 2.61,14.85 5.02,29.74 6.48,44.75 3.03,25.52 4.23,51.38 1.94,77.02 2.46,-6.35 4.44,-12.87 6.48,-19.37 6.95,-20.79 13.49,-41.71 20.51,-62.48 3.01,-8.95 4.94,-18.21 6.8,-27.45 1.96,-9.85 3.79,-19.75 4.62,-29.77 0.79,-10.65 2.12,-21.27 2.14,-31.96 0.36,-12.64 0.15,-25.28 -0.38,-37.91 -0.72,-9.72 -1.67,-19.41 -2.48,-29.12 -0.98,-12.36 -3.47,-24.52 -5.36,-36.76 -7.05,-38.32 -17.55,-76.02 -31.49,-112.41 -2.06,-5.1 -3.02,-10.59 -5.47,-15.53 -3.17,-5.81 -9.49,-8.67 -14.77,-12.19 -58.71,-37.57 -117.38,-75.22 -176.08,-112.83 -6.5,-4.15 -12.93,-8.41 -19.54,-12.38 16.9,19.04 30.3,42.08 34.26,67.5 1.75,13.68 1.5,27.9 -2.87,41.09 -2.18,7.22 -5.33,14.09 -8.89,20.72 -10.98,-2.52 -21.62,-6.29 -32.45,-9.37 -20.71,-5.93 -41.37,-12.1 -62.31,-17.2 0.65,-4.64 1.49,-9.25 2.59,-13.81 3.14,-13.07 4.93,-26.43 7.99,-39.52 0.6,-3.01 1.47,-6.07 1.19,-9.17 -0.52,-2.66 -2.37,-4.79 -3.93,-6.92 -7.01,-8.7 -13.64,-17.7 -20.48,-26.53 -12.87,-16.95 -25.95,-33.73 -38.71,-50.76 -0.06,-9.05 -0.09,-18.1 0.06,-27.16 z"
       id="path183"
       inkscape:connector-curvature="0"
       style="opacity:1;fill:#e71e10" />
    <path
       d="m 403.69,93.64 c 2.7,-4.08 5.46,-8.14 8.58,-11.92 0.12,4.03 0.34,8.06 0.53,12.09 -0.29,26.41 -0.15,52.82 -0.19,79.24 -0.61,22.31 -0.15,44.63 -0.32,66.95 -0.62,23 -0.1,46.01 -0.34,69.01 -0.16,5.99 -0.32,11.99 -0.27,17.99 0.1,33.35 -0.16,66.7 -0.04,100.06 -7.75,-9.26 -14.34,-19.41 -21.77,-28.92 -2.21,-3.11 -5.33,-6.09 -5.41,-10.16 -0.28,-5.98 0.02,-11.98 -0.53,-17.96 -0.68,-7.89 -0.48,-15.83 -0.96,-23.73 -0.14,-2.68 -0.29,-5.36 -0.42,-8.04 -33.53,-13.05 -67.04,-26.14 -100.62,-39.04 3.52,2.81 7.27,5.29 10.96,7.87 1.44,1.12 3.11,2.17 3.92,3.87 0.8,2.21 0.91,4.59 1.14,6.91 0.95,14.01 2.58,27.96 3.49,41.98 8.37,3.73 17.03,6.73 25.55,10.08 9.44,3.58 18.8,7.39 28.32,10.75 2.6,0.99 5.36,1.86 7.52,3.7 0.88,4.15 0.46,8.43 0.51,12.64 0.05,15.93 0.09,31.86 0.5,47.79 -10.91,-3.14 -21.73,-6.63 -32.53,-10.13 -2.6,-0.76 -5.28,-1.66 -8.01,-1.3 -4.64,0.85 -7.79,5.96 -6.53,10.51 0.58,3.39 3.65,5.52 6.73,6.48 13.52,4.18 27.23,7.77 40.63,12.33 -0.1,3.73 -0.18,7.47 -0.29,11.2 l -0.02,0.88 c -11.11,2.98 -21.97,6.77 -33.02,9.95 -3.9,1.27 -8.09,2.12 -11.44,4.59 -4.38,3.49 -3.15,11.13 1.65,13.65 2.74,1.63 6.05,0.81 8.94,0.08 11.39,-3.39 22.63,-7.3 34.17,-10.17 -0.05,3.33 -0.14,6.66 -0.22,10 l -0.02,0.9 c -6.25,1.34 -12.4,3.14 -18.59,4.73 -27.58,7.66 -55,16.17 -81.35,27.43 -8.9,3.87 -17.38,8.61 -25.85,13.33 7.94,-20.42 16.53,-40.66 22.5,-61.79 2.56,-8.94 5.4,-18.01 5.11,-27.42 -0.22,-14.69 0.61,-29.36 0.81,-44.04 0.83,-11.06 0.76,-22.17 1.9,-33.21 0.59,-14.88 1.28,-29.75 2.21,-44.61 1.5,-16.3 1.69,-32.69 2.99,-49.01 1.29,-14.32 2.01,-28.67 2.78,-43.02 7.58,-2.34 15.38,-3.82 23,-6.01 11.45,-3.35 23.16,-5.67 34.64,-8.89 14.58,-3.37 29.1,-7.12 43.85,-9.72 -2.83,-22.85 -5.32,-45.74 -8.19,-68.58 -0.22,-2.78 -0.81,-5.67 -0.01,-8.4 1.07,-2.7 2.9,-4.99 4.52,-7.37 9.96,-14.43 19.68,-29.02 29.49,-43.55 z"
       id="path185"
       inkscape:connector-curvature="0"
       style="opacity:1;fill:#e71e10" />
    <path
       d="m 204.63,183.66 c 7.7,-4.42 15.93,-7.8 23.93,-11.64 -4.1,11.85 -5.77,24.52 -4.8,37.02 0.58,7.4 2.88,14.82 7.54,20.69 3.68,4.62 8.23,8.43 12.51,12.47 6.47,6.07 13.38,11.64 20.5,16.91 -0.28,3.34 -0.57,6.69 -0.8,10.04 -8.6,-3.61 -16.94,-7.94 -24.68,-13.14 -4.22,-3.45 -8.35,-7 -12.6,-10.42 -6.3,-5.51 -11.27,-12.55 -14.57,-20.24 -2.95,-6.76 -2.6,-14.27 -2.53,-21.48 -4.22,1.73 -8.38,3.64 -12.33,5.95 -16.94,9.65 -32.07,22.96 -42.44,39.58 -9.48,14.84 -14.49,32.27 -15.44,49.79 -6.18,-5.94 -11.5,-12.7 -17.64,-18.67 2.22,-0.17 5.33,0.8 6.6,-1.66 1.66,-2.95 1.65,-6.45 2.12,-9.71 0.4,-4.37 1.56,-8.66 3.48,-12.62 5.21,-10.9 12.12,-20.92 19.92,-30.12 14.4,-17.11 31.85,-31.62 51.23,-42.75 z"
       id="path187"
       inkscape:connector-curvature="0"
       style="opacity:1;fill:#e71e10" />
    <path
       d="m 599.1,172.85 c 20.37,7.57 38.93,19.52 55.19,33.86 15.56,14.06 29.4,30.36 38.82,49.19 2.45,4.68 3.63,9.89 3.94,15.14 0.48,3.07 0.24,6.89 2.86,9.07 1.84,0.63 3.83,0.38 5.75,0.36 -6.18,5.89 -11.41,12.67 -17.56,18.58 -1,-8.61 -2.15,-17.25 -4.66,-25.57 -4.46,-14.59 -12.19,-28.18 -22.59,-39.35 -11.99,-12.96 -26.74,-23.44 -43.04,-30.25 -0.15,6.09 0.32,12.36 -1.6,18.25 -2.84,9.03 -8.47,17.1 -15.55,23.34 -4.21,3.47 -8.48,6.85 -12.76,10.24 -4.67,3.64 -9.96,6.36 -15.15,9.18 -3.2,1.76 -6.63,3.07 -10.16,3.96 0.02,-3.16 -0.36,-6.4 0.49,-9.48 1.45,-2.3 3.83,-3.78 5.93,-5.43 6.7,-4.84 12.75,-10.51 18.78,-16.14 4.3,-4.08 8.6,-8.36 11.27,-13.72 3.34,-6.48 4.27,-13.88 4.39,-21.09 0.27,-10.23 -1.96,-20.26 -4.35,-30.14 z"
       id="path189"
       inkscape:connector-curvature="0"
       style="opacity:1;fill:#e71e10" />
    <path
       d="m 106.69,274.99 c 5.12,5.18 9.94,10.65 14.73,16.14 -6.6,15.8 -13.66,31.43 -19.78,47.44 -6.65,17.52 -13.27,35.07 -19.03,52.91 -10.73,33.49 -19.77,67.66 -24.21,102.61 -1.18,9.06 -1.09,18.21 -1.88,27.3 -1.74,-19.43 -1.75,-38.96 -1.19,-58.43 0.48,-18.77 2.4,-37.46 4.89,-56.05 2.31,-14.12 4.66,-28.27 8.32,-42.12 5.81,-24.06 14.39,-47.49 25.92,-69.4 3.66,-7.04 8.1,-13.63 12.23,-20.4 z"
       id="path191"
       inkscape:connector-curvature="0"
       style="opacity:1;fill:#e71e10" />
    <path
       d="m 715.92,279.91 c 1.28,-1.72 2.65,-3.37 4.05,-5 13.99,21.35 24.13,45.05 31.68,69.38 5.7,19.45 10.38,39.22 13.45,59.26 1.96,15.39 4.1,30.77 4.98,46.27 1.39,23.48 1.78,47.04 0.22,70.52 -0.86,-9.44 -0.68,-18.97 -2.3,-28.34 -1.81,-15.65 -4.8,-31.14 -8.5,-46.45 -3.56,-13.34 -6.52,-26.85 -10.93,-39.94 -6.87,-22.91 -15.03,-45.4 -23.6,-67.71 -6.14,-15.56 -12.81,-30.9 -19.47,-46.24 4.05,-3.36 7.41,-7.45 10.42,-11.75 z"
       id="path193"
       inkscape:connector-curvature="0"
       style="opacity:1;fill:#e71e10" />
    <path
       d="m 521.23,307.24 c 7.26,-2.68 14.43,-5.62 21.76,-8.14 -4.47,3.54 -9.45,6.37 -13.88,9.95 -2.22,1.56 -1.89,4.54 -2.22,6.91 -0.7,12.39 -2.29,24.71 -3.08,37.1 -0.25,2.21 -0.24,4.55 -1.23,6.6 -1.97,1.54 -4.38,2.36 -6.67,3.26 -9.45,3.38 -18.7,7.27 -28.1,10.77 -8.82,3.51 -17.8,6.61 -26.51,10.39 -0.02,20.27 -0.4,40.54 -0.66,60.82 -2.46,0.72 -4.92,1.44 -7.39,2.13 -1,-8.77 -0.84,-17.6 -1.6,-26.38 -0.71,-11.55 -0.73,-23.13 -1.81,-34.65 -0.17,-2.58 -0.39,-5.19 0.07,-7.74 1.26,-1.07 2.84,-1.65 4.37,-2.22 20.35,-6.94 40.6,-14.17 60.92,-21.21 0.32,-12.01 0.32,-24.04 -0.01,-36.05 -2.62,0.81 -5.24,1.65 -7.82,2.6 -21.54,8.16 -43.14,16.17 -64.69,24.3 -4.61,1.83 -9.26,3.59 -14.05,4.88 0.13,-2.78 0.32,-5.55 0.53,-8.33 30.71,-11.6 61.41,-23.25 92.07,-34.99 z"
       id="path195"
       inkscape:connector-curvature="0"
       style="opacity:1;fill:#e71e10" />
    <path
       d="m 430.52,472.58 c 2.38,-0.86 4.74,-2.11 7.33,-2.15 5.27,1.99 10.62,3.86 16.22,4.75 14.32,3.5 28.25,8.49 42.5,12.3 3.22,0.93 6.6,1.65 9.47,3.47 1.77,1.13 2.31,3.3 3.21,5.06 -7.57,-0.4 -14.56,-3.59 -21.8,-5.51 -9.4,-2.97 -18.99,-5.33 -28.24,-8.73 -9.3,-3.84 -19.09,-6.27 -28.69,-9.19 z"
       id="path197"
       inkscape:connector-curvature="0"
       style="opacity:1;fill:#e71e10" />
    <path
       d="m 358.47,512.21 c 17.71,-2.68 35.64,-3.25 53.52,-3.5 11.4,0.42 22.84,0.27 34.18,1.71 4.47,0.57 9.06,0.49 13.43,1.73 15.9,8.19 31.71,16.65 46.6,26.58 7.55,4.99 15.04,10.21 21.51,16.58 2.68,2.78 5.45,5.89 6.19,9.82 0.6,2.91 -1.63,5.45 -4.06,6.68 -5.31,2.82 -11.6,2.1 -17.22,0.73 -13.26,-3.3 -26.96,-4.88 -40.63,-4.54 -13.05,0.12 -26.24,2.28 -38.22,7.62 17.01,15.09 32.01,32.68 42.6,52.88 9.55,18.63 15.4,39.54 14.33,60.6 -0.23,8.07 -2.17,15.93 -3.69,23.83 -3.63,0.51 -7.29,0.83 -10.96,0.94 -38.65,1.41 -77.51,0.05 -115.76,-5.93 -26.97,-3.59 -53.58,-9.48 -79.85,-16.51 -14.7,-4.3 -29.52,-8.32 -43.82,-13.85 -0.62,-5.17 -1.29,-10.37 -0.94,-15.58 0.57,-8.95 2.89,-17.72 6.12,-26.06 2.9,-7.51 6.2,-14.9 10.35,-21.81 7.35,-12.05 15.39,-23.69 24.47,-34.51 6.81,-8.4 14.49,-16.02 21.66,-24.1 -8.14,-2.92 -17.06,-3.19 -25.49,-1.46 -5.2,1.11 -10.06,3.34 -15.08,5.05 2.48,-6.15 6.97,-11.27 12.57,-14.8 4.44,-2.78 9.33,-4.73 14.09,-6.88 17.09,-7.62 34.81,-13.71 52.61,-19.43 7.09,-2.17 14.13,-4.68 21.49,-5.79 z"
       id="path199"
       inkscape:connector-curvature="0"
       style="opacity:1;fill:#e71e10" />
    <path
       d="m 199.08,687 c 7.29,2.42 14.24,5.68 21.44,8.35 46.4,17.57 94.97,29.68 144.37,34.68 24.92,2.91 50.06,3.34 75.12,2.67 9.68,0 19.32,-1.01 28.93,-2.1 9.52,-1.36 19.13,-2.07 28.59,-3.83 10.73,-1.57 21.36,-3.69 32.06,-5.46 7.37,-1.37 14.6,-3.41 21.96,-4.88 19,-4.44 37.71,-10.13 56,-16.92 6.92,-2.53 13.57,-5.71 20.46,-8.32 -5.26,3.5 -10.86,6.43 -16.46,9.33 -26.58,13.58 -55.01,23.27 -84.03,30.14 -13.51,3.44 -27.33,5.38 -41.09,7.54 -16.38,2.18 -32.89,3.4 -49.41,3.71 -7.33,0.25 -14.66,0.57 -21.99,0.21 -8.62,-0.39 -17.27,-0.18 -25.85,-1.19 -6.52,-0.74 -13.08,-0.96 -19.59,-1.7 -23.23,-2.63 -46.24,-7.1 -68.84,-13.05 -9.81,-2.57 -19.6,-5.21 -29.16,-8.6 -14.79,-4.81 -29.46,-10.08 -43.65,-16.47 -9.75,-4.43 -19.57,-8.76 -28.86,-14.11 z"
       id="path201"
       inkscape:connector-curvature="0"
       style="opacity:1;fill:#e71e10" />
    <path
       d="m 181.51,715.41 c 3.82,-1.92 7.62,-4.01 11.8,-4.99 2.11,-0.55 4.23,0.27 6.21,0.94 16.08,6.24 32.18,12.47 48.27,18.71 5.06,2 10.26,3.68 15.16,6.07 8.24,4.02 14.58,11.47 17.84,19.98 2.18,5.72 1.53,11.93 1.65,17.91 0.09,6.32 0.35,12.64 0.27,18.97 -0.02,35 -0.04,70 0,105 0.34,10.69 0.36,21.39 0.2,32.08 5.39,3.07 11.03,5.67 16.61,8.38 0.34,8.39 0.21,16.79 0.11,25.18 -3.17,1.81 -6.32,3.62 -9.48,5.45 -0.13,-7.88 0.95,-15.88 -0.36,-23.68 -4.72,-4.06 -10.98,-5.63 -16.49,-8.33 -0.03,2.97 -0.05,5.95 -0.06,8.93 -7.43,2.65 -15.52,2.94 -23.21,1.33 5.73,0.16 12.27,-0.45 16.39,-4.93 3.2,-3.24 3.9,-7.99 3.93,-12.35 -0.14,-48.02 -0.02,-96.04 -0.06,-144.06 -0.07,-6.01 0.35,-12.03 -0.17,-18.02 -0.56,-6.4 -4.45,-11.87 -8.69,-16.44 -4.28,-4.63 -9.68,-8.11 -15.46,-10.57 -21.4,-8.74 -43.09,-16.75 -64.46,-25.56 z"
       id="path203"
       inkscape:connector-curvature="0"
       style="opacity:1;fill:#e71e10" />
    <path
       d="m 627.48,717.45 c 1.76,-0.63 3.67,-1 5.53,-0.52 4.61,1.02 9.01,2.81 13.4,4.54 -8.31,3.59 -16.94,6.36 -25.41,9.52 -27.67,10.14 -55.43,20.01 -82.98,30.45 2.22,2.3 4.81,4.42 6.17,7.39 1.13,2.88 0.95,6.06 0.98,9.11 -0.24,9.07 -0.22,18.15 -0.11,27.23 -5.34,-2.1 -10.98,-3.51 -16.06,-6.19 -0.58,-1.23 -0.61,-2.62 -0.68,-3.93 -0.17,-9.03 0.59,-18.1 -0.38,-27.1 -0.43,-4.37 -2.28,-8.4 -4.16,-12.3 7.01,-3.18 14.39,-5.42 21.56,-8.22 27.37,-10 54.8,-19.87 82.14,-29.98 z"
       id="path205"
       inkscape:connector-curvature="0"
       style="opacity:1;fill:#e71e10" />
    <path
       d="m 206.2,762.19 c 5.23,2.14 10.5,4.2 15.67,6.5 -0.35,11.69 -0.52,23.4 0.02,35.09 7.7,3.32 15.31,6.85 23.23,9.62 -2.41,2.51 -4.84,5.52 -8.47,6.18 -3.48,0.71 -6.88,-0.8 -9.98,-2.21 -5.54,-2.64 -11.07,-5.3 -16.74,-7.65 -0.53,-11.92 -0.06,-23.85 -0.18,-35.77 0.08,-4.21 -1.84,-8.04 -3.55,-11.76 z"
       id="path207"
       inkscape:connector-curvature="0"
       style="opacity:1;fill:#e71e10" />
    <path
       d="m 313.12,775.95 c 5.54,-4.01 11.83,-7.72 18.87,-7.78 6.07,-0.29 11.53,2.68 17.02,4.82 10.31,4 20.58,8.1 30.9,12.06 4.14,1.58 8.33,3.36 11.65,6.39 5.1,4.6 8.95,10.62 10.86,17.23 1.81,6.28 1.12,12.88 1.2,19.33 -0.01,46.01 -0.02,92.02 0.01,138.03 -0.08,9.15 -1.66,18.47 -5.9,26.66 -2.9,5.57 -7.47,10.62 -13.55,12.66 -6.55,2.14 -13.72,1.79 -20.27,-0.12 4.94,0.45 10.16,0.47 14.78,-1.63 5.24,-2.41 9.63,-6.91 11.45,-12.44 1.31,-3.92 1.52,-8.1 1.6,-12.19 -0.05,-46.99 -0.02,-93.98 -0.02,-140.97 -0.08,-7.89 0.49,-15.89 -1.14,-23.67 -2.03,-9.85 -8.56,-18.74 -17.53,-23.34 -3.64,-1.88 -7.51,-3.21 -11.33,-4.66 -8.18,-3.09 -16.36,-6.21 -24.49,-9.45 -3.95,-1.52 -7.98,-3.1 -12.26,-3.31 -4.08,-0.23 -8.11,0.81 -11.85,2.38 z"
       id="path209"
       inkscape:connector-curvature="0"
       style="opacity:1;fill:#e71e10" />
    <path
       d="m 487.25,769.33 c 9.05,-3.19 18.8,0.66 26,6.26 -4.5,-1.7 -9.43,-2.6 -14.21,-1.75 -4.73,0.84 -9.1,2.93 -13.52,4.72 -9.47,4 -19.15,7.45 -28.71,11.23 -5.41,2.08 -10.62,5.15 -14.14,9.86 -5.93,7.75 -7.7,17.77 -7.66,27.32 -0.04,48.01 0.03,96.02 -0.03,144.03 0.07,7.18 0.36,14.54 2.79,21.38 1.63,4.73 5.07,8.9 9.66,11.01 4.82,2.23 10.31,2.29 15.51,1.8 -5.68,1.81 -11.79,2.43 -17.66,1.28 -5.93,-1.33 -11.26,-5.16 -14.41,-10.36 -3.58,-5.8 -5.92,-12.37 -6.88,-19.11 -0.99,-6.63 -0.66,-13.34 -0.69,-20 0.01,-42 0.01,-84 0,-126 0.06,-7.1 -0.54,-14.34 1.24,-21.29 1.7,-6.76 4.96,-13.28 10.08,-18.08 4.03,-3.76 9.36,-5.53 14.4,-7.47 12.85,-4.68 25.41,-10.09 38.23,-14.83 z"
       id="path211"
       inkscape:connector-curvature="0"
       style="opacity:1;fill:#e71e10" />
    <path
       d="m 567.19,797.18 c 5.02,-1.43 8.79,-5.12 11.82,-9.2 -0.01,52.41 -0.02,104.82 -0.01,157.23 -3.94,-1.69 -7.85,-3.47 -11.68,-5.41 -0.11,-47.54 0.15,-95.08 -0.13,-142.62 z"
       id="path213"
       inkscape:connector-curvature="0"
       style="opacity:1;fill:#e71e10" />
    <path
       d="m 485.88,816.75 c 5.17,-2.43 10.42,-4.69 15.7,-6.88 -1.91,3.76 -3.84,7.71 -3.63,12.05 0.11,35.69 0.02,71.39 0.05,107.08 0.06,4.65 -0.31,9.33 0.11,13.98 0.24,2.53 1.7,4.69 2.83,6.91 -7.96,4.07 -16.01,7.95 -23.93,12.07 -2.74,1.23 -5.7,2.95 -8.8,2.21 -3.09,-0.7 -4.79,-3.58 -6.51,-5.95 8.01,-3.9 15.97,-7.92 24.06,-11.67 0.54,-11.51 0.11,-23.04 0.24,-34.55 -0.08,-31.75 0.16,-63.5 -0.12,-95.25 z"
       id="path215"
       inkscape:connector-curvature="0"
       style="opacity:1;fill:#e71e10" />
    <path
       d="m 326.07,810.66 c 5.09,1.67 10.02,3.78 14.82,6.15 -0.34,9.73 -0.17,19.46 -0.2,29.19 -0.02,28 0.04,56 -0.02,84 0.09,5.17 -0.63,10.46 0.56,15.56 1.72,2.14 4.37,3.2 6.76,4.42 5.74,2.6 11.42,5.33 16.93,8.38 -1.62,2.28 -3.15,5.17 -6.13,5.83 -3.12,0.66 -6.11,-0.94 -8.89,-2.12 -8.22,-3.96 -16.35,-8.11 -24.51,-12.19 1.31,-2.19 3.02,-4.33 3.24,-6.96 0.38,-4.64 0.02,-9.29 0.08,-13.92 0.03,-35.69 -0.05,-71.38 0.05,-107.07 0.07,-3.94 -1.36,-7.65 -2.69,-11.27 z"
       id="path217"
       inkscape:connector-curvature="0"
       style="opacity:1;fill:#e71e10" />
    <path
       d="m 209.85,838.15 c 3.98,1.92 7.94,3.87 11.91,5.83 -0.34,12.68 0.04,25.36 -0.27,38.05 0.09,3.05 -0.26,6.32 1.08,9.17 2.2,1.78 4.89,2.78 7.45,3.93 4.61,1.92 9.12,4.05 13.59,6.27 -2.58,2.26 -5.13,5.08 -8.74,5.52 -3.6,0.54 -7.1,-0.86 -10.28,-2.38 -6.16,-3.01 -12.21,-6.25 -18.13,-9.68 1.63,-2.69 3.44,-5.52 3.29,-8.79 0.04,-15.97 -0.22,-31.95 0.1,-47.92 z"
       id="path219"
       inkscape:connector-curvature="0"
       style="opacity:1;fill:#e71e10" />
    <path
       d="m 545.38,946.54 c 4.59,-3.84 10.52,-5.51 15.82,-8.12 0.03,6.21 0.32,12.43 0.15,18.65 -0.14,1.87 -0.01,4.32 -2.05,5.26 -4.7,2.96 -9.87,5.06 -14.7,7.81 0.03,-5.4 -0.12,-10.8 -0.14,-16.19 0.07,-2.49 -0.02,-5.07 0.92,-7.41 z"
       id="path221"
       inkscape:connector-curvature="0"
       style="opacity:1;fill:#e71e10" />
    <path
       d="m 401.34,997.08 c 3.61,-2.2 7.19,-5.11 11.53,-5.5 4.31,0.9 7.97,3.58 11.79,5.66 -0.05,8.83 -0.05,17.66 0,26.5 -3.64,2.37 -7.52,4.44 -11.75,5.58 -0.33,-8.37 -0.15,-16.75 -0.2,-25.11 -3.74,-2.45 -7.53,-4.83 -11.37,-7.13 z"
       id="path223"
       inkscape:connector-curvature="0"
       style="opacity:1;fill:#e71e10" />
  </g>
  <g
     id="#af4e47ff"
     transform="matrix(0.04320432,0,0,0.04320432,6.0287791,-5.1000005e-7)">
    <path
       d="m 704.92,292.16 c 2.77,-4.8 6.7,-8.79 11,-12.25 -3.01,4.3 -6.37,8.39 -10.42,11.75 z"
       id="path226"
       inkscape:connector-curvature="0"
       style="opacity:1;fill:#af4e47" />
  </g>
  <g
     id="#bdbebeff"
     transform="matrix(0.04320432,0,0,0.04320432,6.0287791,-5.1000005e-7)">
    <path
       d="m 364.13,462.69 c 2.1,0.68 4.27,1.27 6.17,2.44 0.34,2.44 0.57,5.13 -0.63,7.38 -1.89,0.67 -3.87,1.01 -5.83,1.38 0.11,-3.73 0.19,-7.47 0.29,-11.2 z"
       id="path229"
       inkscape:connector-curvature="0"
       style="opacity:1;fill:#bdbebe" />
    <path
       d="m 364.12,492.87 c 2.16,-0.6 4.31,-1.2 6.47,-1.81 0,3.59 0.01,7.18 0.04,10.78 -2.24,0.35 -4.48,0.7 -6.73,1.03 0.08,-3.34 0.17,-6.67 0.22,-10 z"
       id="path231"
       inkscape:connector-curvature="0"
       style="opacity:1;fill:#bdbebe" />
  </g>
  <g
     id="#a54c46ff"
     transform="matrix(0.04320432,0,0,0.04320432,6.0287791,-5.1000005e-7)">
    <path
       d="m 437.85,470.43 c 5.63,0.66 11.07,2.39 16.22,4.75 -5.6,-0.89 -10.95,-2.76 -16.22,-4.75 z"
       id="path234"
       inkscape:connector-curvature="0"
       style="opacity:1;fill:#a54c46" />
  </g>
  <g
     id="#af4a44ff"
     transform="matrix(0.04320432,0,0,0.04320432,6.0287791,-5.1000005e-7)">
    <path
       d="m 428.8,472.14 c 0.43,0.11 1.29,0.33 1.72,0.44 9.6,2.92 19.39,5.35 28.69,9.19 -7.26,-1.18 -14.12,-3.93 -21.22,-5.75 -3.23,-0.84 -6.36,-2.1 -9.19,-3.88 z"
       id="path237"
       inkscape:connector-curvature="0"
       style="opacity:1;fill:#af4a44" />
  </g>
</svg>
