<?xml version="1.0" encoding="UTF-8" standalone="no"?>
<svg
   xmlns:dc="http://purl.org/dc/elements/1.1/"
   xmlns:cc="http://creativecommons.org/ns#"
   xmlns:rdf="http://www.w3.org/1999/02/22-rdf-syntax-ns#"
   xmlns:svg="http://www.w3.org/2000/svg"
   xmlns="http://www.w3.org/2000/svg"
   xmlns:sodipodi="http://sodipodi.sourceforge.net/DTD/sodipodi-0.dtd"
   xmlns:inkscape="http://www.inkscape.org/namespaces/inkscape"
   width="64"
   height="64"
   viewBox="0 0 48 48.000002"
   version="1.1"
   id="svg150"
   sodipodi:docname="bpro.svg"
   inkscape:version="0.92.3 (2405546, 2018-03-11)">
  <metadata
     id="metadata156">
    <rdf:RDF>
      <cc:Work
         rdf:about="">
        <dc:format>image/svg+xml</dc:format>
        <dc:type
           rdf:resource="http://purl.org/dc/dcmitype/StillImage" />
        <dc:title></dc:title>
      </cc:Work>
    </rdf:RDF>
  </metadata>
  <defs
     id="defs154" />
  <sodipodi:namedview
     pagecolor="#ffffff"
     bordercolor="#666666"
     borderopacity="1"
     objecttolerance="10"
     gridtolerance="10"
     guidetolerance="10"
     inkscape:pageopacity="0"
     inkscape:pageshadow="2"
     inkscape:window-width="1920"
     inkscape:window-height="1017"
     id="namedview152"
     showgrid="false"
     units="px"
     inkscape:pagecheckerboard="true"
     inkscape:zoom="7.5266931"
     inkscape:cx="1.2314092"
     inkscape:cy="23.091097"
     inkscape:window-x="-8"
     inkscape:window-y="-8"
     inkscape:window-maximized="1"
     inkscape:current-layer="svg150" />
  <g
     id="#000000ff"
     transform="matrix(0.08009428,0,0,0.08009428,-0.02215509,4.8603793)">
    <path
       d="m 265.67,1.84 c 4.62,-2.95 10.3,-1.33 15.34,-0.7 7.22,0.96 13.98,3.75 20.95,5.62 6.36,-0.84 12.32,-3.6 18.72,-4.3 12.5,-1.69 25.47,-0.12 37.35,4.04 -0.59,-1.19 -1.18,-2.38 -1.78,-3.57 0.95,-2.8 3.59,-2.52 5.88,-1.64 9.71,2.68 19.47,5.46 28.57,9.86 18.41,9.8 33.42,25.67 42.65,44.34 0.55,1.13 1.31,2.18 2.46,2.78 6.27,4.01 13.06,7.23 20.14,9.54 1.47,0.5 3.01,0.97 4.2,2.04 6.27,5.36 11.12,12.37 18.1,16.88 8.37,2.22 17.31,2.62 25.12,6.76 11.35,1.18 22.17,5.9 31.08,12.99 1.09,0.82 1.13,2.33 1.54,3.53 0.85,3.92 1.73,7.94 1.27,11.99 -0.23,2.69 -1.26,5.24 -1.47,7.94 2.92,11.86 5.59,23.79 8.54,35.65 0.49,0.32 1.45,0.96 1.94,1.27 3.07,7.88 7.02,15.57 7.87,24.11 1.47,14.75 -2.7,29.41 -8.42,42.87 -4.09,8.94 -9.22,17.34 -13.75,26.06 -1.15,1.91 -1.94,4.29 -4.04,5.39 -1.39,-0.06 -2.5,-1.15 -2.83,-2.44 -1.44,-3.87 -2.53,-7.85 -3.78,-11.78 -1.14,0.53 -2.28,1.06 -3.44,1.5 -2.37,-1.52 -4.09,-3.83 -6.26,-5.58 -0.52,8.27 0.66,16.58 2.94,24.53 27.15,-0.05 54.3,-0.03 81.46,-0.01 2.4,-0.6 4.58,2.26 3.03,4.33 -9.48,15.73 -19.06,31.41 -28.67,47.06 9.67,18.99 14.66,40.07 17.02,61.15 1.96,17.61 0.58,36.07 -6.94,52.32 -7.34,16.04 -21.83,28.93 -39.07,33.25 -18.58,5.23 -37.82,1.05 -56.49,-1.39 -13.01,-1.56 -25.86,-4.63 -38.99,-4.93 -28.93,-2.1 -57.88,-3.64 -86.88,-4.16 -12.32,-0.89 -24.68,-0.37 -37.02,-0.78 -27.33,-0.15 -54.68,-0.35 -82,0.5 -22,0.89 -44,1.76 -65.98,2.95 -30.34,2.23 -60.7,4.23 -90.96,7.33 -22.72,2.31 -45.39,5.12 -68.05,7.93 -2.66,0.35 -5.36,1 -8.05,0.61 -2.33,-0.46 -1.64,-3.2 -1.37,-4.82 9.41,-46.69 19.04,-93.35 28.84,-139.97 0.57,-1.5 -0.42,-2.8 -1.15,-3.99 C 22.3,311.31 11.62,293.53 0.82,275.83 c -1.33,-1.66 -0.07,-4.58 2.17,-4.3 23.07,-0.14 46.15,0.09 69.23,-0.11 3.55,-15.49 8.23,-30.79 14.64,-45.34 5.38,-8.82 12.52,-16.4 19.22,-24.22 -6.82,2.67 -13.16,6.38 -19.8,9.45 -1.5,0.81 -3.2,0.3 -4.8,0.17 -0.07,-1.49 -0.19,-3.06 0.6,-4.4 9.44,-20.07 17.42,-40.91 29.14,-59.82 8.67,-14.73 19,-28.38 29.63,-41.73 -3.23,1.19 -6.38,2.91 -9.91,2.95 -0.36,-0.65 -1.09,-1.94 -1.46,-2.59 0.93,-1.2 1.89,-2.38 3,-3.42 12.7,-11.61 25.45,-23.15 38.09,-34.83 28.34,-26.3 60.5,-48.54 95.1,-65.8 M 187.59,60.6 c -7.39,6.29 -14.39,13.02 -21.61,19.5 -5.89,5.76 -12.49,10.82 -18.04,16.92 0.8,0.59 1.62,1.17 2.45,1.72 0.27,0.56 0.81,1.68 1.08,2.25 -0.69,1.67 -1.44,3.36 -2.67,4.72 -15.66,18.55 -29.79,38.48 -41,60.05 -6.05,11.86 -11.15,24.17 -16.72,36.25 7.48,-3.34 14.81,-7.01 22.13,-10.69 2.39,-1.42 6.32,-1.63 7.29,1.62 0.52,3.26 -2.53,5.1 -4.42,7.19 -8.42,9.25 -17.19,18.37 -23.92,28.97 -6.7,15.05 -11.12,31.01 -15.01,46.98 -1.59,0.81 -3.28,1.54 -5.11,1.39 -21.01,-0.03 -42.03,0.01 -63.04,-0.02 10.09,16.73 20.26,33.42 30.55,50.03 2.09,2.85 0.79,6.49 0.16,9.6 -9.5,44.73 -18.62,89.53 -27.72,134.34 33.64,-4.13 67.3,-8.3 101.09,-10.99 20.63,-1.51 41.25,-3.39 61.9,-4.59 28.66,-1.37 57.32,-2.97 86.01,-3.45 34,-0.13 68.04,-0.3 102.01,0.82 30.68,0.71 61.31,2.68 91.92,4.59 21.02,2.85 41.91,6.8 63.09,8.36 5.09,0.43 10.18,-0.32 15.23,-0.9 13.86,-1.97 26.79,-9.52 35.19,-20.74 11.36,-14.83 14.67,-34.29 13.74,-52.56 -1.65,-21.09 -6.08,-42.19 -14.87,-61.51 -1.3,-3.28 -4.5,-6.86 -2.29,-10.47 8.7,-14.12 17.31,-28.31 25.91,-42.5 -25.63,-0.06 -51.27,0.02 -76.9,-0.03 -1.82,-0.01 -4.34,-0.43 -4.82,-2.52 -3.04,-10.67 -4.46,-21.93 -3.18,-32.99 0.14,-2.21 2.35,-2.75 4.01,-3.52 2.83,1.28 5.11,3.41 7.23,5.63 1.85,-1.8 4.84,-3.88 7.14,-1.48 2.1,3.12 2.41,7.1 3.76,10.58 0.33,-0.4 0.99,-1.19 1.32,-1.59 8.38,-14.47 16.36,-29.73 18.44,-46.57 1.79,-10.25 -0.5,-20.69 -4.86,-30 -0.6,-3.18 -4.18,-4.61 -4.57,-7.84 -2.81,-11.69 -5.53,-23.4 -8.36,-35.09 -1.08,-3.06 0.48,-6.09 0.96,-9.09 0.9,-4.03 -0.31,-8.06 -0.92,-12.03 -5.69,-4.55 -12.27,-7.86 -19.21,-10.02 -3.75,-1.19 -7.94,-0.57 -11.49,-2.44 -6.66,-3.43 -14.24,-4.02 -21.46,-5.51 -3.22,-0.52 -5.77,-2.74 -8.04,-4.93 -4.19,-4.17 -8.34,-8.38 -12.53,-12.55 -1.98,-2.12 -5.03,-2.36 -7.58,-3.41 -6.46,-2.46 -12.68,-5.61 -18.46,-9.41 -2.05,-1.08 -2.85,-3.32 -3.87,-5.24 -9.01,-17.68 -23.43,-32.71 -41.19,-41.69 -5.8,-2.56 -11.8,-4.62 -17.86,-6.48 -0.13,1.67 0.92,4.08 -0.8,5.27 -1.95,1.94 -4.69,0.52 -6.75,-0.42 -9.27,-4.56 -19.71,-5.84 -29.9,-6.41 -3.41,-0.07 -6.8,0.36 -10.18,0.78 -6.41,0.89 -12.42,3.67 -18.85,4.33 -4.29,-0.31 -8.13,-2.52 -12.27,-3.52 -6.35,-1.66 -12.97,-3.59 -19.57,-2.85 -29.68,14.43 -57.28,33 -82.57,54.16 z"
       id="path84"
       inkscape:connector-curvature="0"
       style="opacity:1;fill:#000000" />
    <path
       d="m 269.86,12.97 c 2.18,-1.35 4.81,-0.75 7.21,-0.48 9.62,1.55 18.83,4.96 27.75,8.8 16.8,7.16 32.6,16.42 48.24,25.79 -1.4,-2.83 -3.74,-5.01 -5.7,-7.44 -8.31,-9.47 -17.29,-18.67 -28.38,-24.89 13.09,-3.27 27.11,-1.8 39.43,3.58 14.9,6.31 27.59,16.83 38.52,28.6 -3.49,-8.99 -7.43,-17.91 -12.67,-26.03 16.41,9.26 30.41,23.21 38.24,40.48 0.98,2.88 3.44,4.73 5.89,6.32 7.27,4.94 15.26,8.75 23.52,11.7 1.06,0.43 2.17,0.86 3.04,1.66 6.43,6.18 12.07,13.55 20.07,17.8 7.02,2.77 14.85,2.5 21.9,5.17 2.26,0.9 4.24,2.35 6.46,3.34 3.16,0.6 6.52,-0.25 9.61,0.98 4.39,1.54 8.8,3.31 12.59,6.07 1.37,6.3 -1.45,12.5 -5.16,17.43 3.01,4.45 5.27,9.33 7.11,14.37 -1.22,2.2 -4.03,4.07 -3.16,6.88 1.42,7.58 1.28,15.52 -0.82,22.96 -2.01,-5.99 -5,-11.58 -8.47,-16.84 -3.81,3.58 -7.78,7.03 -11.16,11.03 -2.15,4.34 -1.12,9.41 -0.15,13.93 7.42,3.27 16.05,4.15 23.93,2.39 2.94,-4.54 4.88,-9.68 6.42,-14.85 1.58,4.19 2.37,8.62 2.74,13.07 1.44,-0.27 2.88,-0.55 4.33,-0.82 4.16,10.9 1.97,22.96 -1.41,33.76 -1.62,5.28 -3.88,10.35 -6.24,15.34 -1.97,-2.71 -3.44,-5.76 -5.7,-8.26 -1.42,2.78 -2.91,5.56 -5.04,7.88 -6.93,-6.54 -14.31,-12.85 -23.17,-16.62 -0.37,18.38 0.2,36.95 4.38,54.93 -7.49,-7.19 -14.86,-14.84 -23.97,-19.97 4.3,7.8 9.63,15.01 13.99,22.79 -51.67,-0.02 -103.35,0 -155.02,-0.01 -1.09,0.06 -2.07,-0.2 -2.94,-0.8 -10.58,-9.05 -20.67,-18.65 -30.55,-28.45 -9.45,-9.15 -18.87,-18.47 -29.82,-25.84 46.16,17.65 92.41,35.55 140.34,47.89 11.73,2.75 23.68,5.58 35.82,4.75 -0.1,-0.24 -0.3,-0.74 -0.4,-0.99 l -0.12,-0.26 c -25.16,-5.76 -49.31,-15.3 -72.89,-25.68 -34.8,-15.2 -68.03,-34.26 -104.38,-45.69 -25.14,-8.02 -52.14,-10.71 -78.21,-6.14 -11.05,2.08 -22.32,4.49 -32.11,10.29 -17.56,10.04 -31.08,25.81 -41.74,42.76 -1.57,2.34 -2.91,4.83 -4.21,7.34 16.99,-5.11 33.88,-10.59 51.01,-15.23 9.01,-2.37 17.93,-5.34 27.25,-6.24 11.45,-0.83 23.07,-0.44 34.24,2.41 29.22,6.95 54.91,23.29 79.89,39.32 l 0.68,0.45 c -48.94,0.26 -97.89,0.04 -146.83,0.11 -26.9,-0.12 -53.81,0.24 -80.7,-0.18 3.77,-13.37 7.4,-26.86 13.1,-39.56 1.72,-3.07 4.08,-5.73 6.2,-8.53 17.85,-22.06 39.24,-40.96 61.35,-58.61 0.28,-0.38 0.84,-1.14 1.12,-1.52 -19.93,2.83 -39.84,7.22 -58.21,15.68 12.23,-27.98 30.39,-52.96 50.2,-76.05 3.19,-3.42 5.85,-7.46 9.92,-9.95 17.87,-12.05 36.46,-23.2 56.23,-31.86 2.95,-1.39 6.18,-2.13 9.01,-3.79 -10.5,-0.01 -20.96,1.87 -30.94,5.08 -4.89,1.31 -9.54,3.34 -14.47,4.48 25.27,-21.91 53.12,-40.97 83.01,-56.03 m -7.81,22.87 c -7.64,2.77 -14.8,7.28 -20.02,13.57 19.5,5.48 36.53,16.99 52.21,29.45 -8,-10.88 -19.31,-18.77 -30.69,-25.76 5.13,0.5 9.87,2.73 14.39,5.08 13.06,7.04 23.36,17.93 35.18,26.69 11.13,8.53 24.68,14.74 38.94,14.49 -1.85,-0.98 -3.81,-1.75 -5.84,-2.23 -13.93,-5.76 -24.65,-16.88 -33.73,-28.57 -8.3,-10.27 -15.42,-21.89 -26.24,-29.77 -6.89,-5.11 -16.28,-5.91 -24.2,-2.95 m 132.99,40.99 c 0.23,5.36 1.91,10.62 5.15,14.93 5.14,7.29 12.61,14.08 12.74,23.67 -3.58,0.4 -7.52,0.68 -10.5,2.91 -4.82,4.77 -8.26,10.72 -11.52,16.6 -1.98,4.03 -4.7,8.38 -3.36,13.06 2.01,8.55 3.99,17.2 7.48,25.29 3.55,-4.1 7.97,-7.43 13.01,-9.49 -2.82,4.73 -5.7,9.63 -6.36,15.21 -0.79,4.81 1.15,9.44 3.42,13.56 14.69,-7.62 31.6,-7.77 47.45,-11.2 6.41,-4.36 6.89,-13.01 8.33,-19.96 1.15,1.33 2.18,2.78 3.09,4.3 l 0.45,-0.43 c 0.07,0.12 0.21,0.38 0.28,0.5 0.51,5.72 1.44,11.44 1.42,17.22 -0.28,7.1 5.36,13.43 11.98,15.29 16.06,3.65 31.11,11.27 44.02,21.44 1.79,-2.16 3.5,-4.39 5.08,-6.73 3.66,-5.35 5.57,-11.85 4.95,-18.35 -9.66,0.42 -20.2,-0.39 -28.01,-6.74 -4.8,-3.08 -3.81,-9.51 -5.22,-14.32 0.04,-1.31 -0.06,-2.76 -1.25,-3.54 -1.07,6.75 -1.39,13.75 -0.06,20.49 -0.13,1.49 -0.16,2.99 -0.28,4.48 -2.99,-7.95 -4.09,-16.74 -2.9,-25.16 -3.88,-1.34 -9.9,-1.54 -10.42,-6.76 4.78,2.06 10.1,1.6 15.15,1.27 2.93,-0.07 4.98,-2.42 6.82,-4.41 2.83,-3.26 5.55,-6.66 7.73,-10.4 1.91,-3.04 0.56,-6.77 -0.1,-9.99 -0.43,-1.62 -0.87,-3.23 -1.32,-4.83 -1.87,0.21 -3.77,0.64 -5.65,0.35 -2.62,-0.86 -4.77,-3.38 -7.76,-2.9 -1.73,0.08 -2.71,1.6 -3.7,2.78 1.31,1.32 2.59,2.7 4.01,3.91 -4.24,-0.8 -8.48,-2.29 -11.97,-4.88 3.84,-2.37 7.58,-4.92 11.5,-7.17 1.83,-0.43 3.74,0.28 5.56,0.59 4.72,-2.72 9.06,-6.42 11.29,-11.5 -4.86,-3.17 -10.55,-4.61 -16.09,-6.14 -7.93,-1.8 -15.97,-3.43 -24.13,-3.66 0.47,3.99 -0.15,7.97 -2.6,11.25 7.42,-0.93 15.21,-0.93 22.26,1.84 -1.54,0.17 -3.1,0.24 -4.63,0.43 -7.72,-0.04 -15.67,1.06 -22.8,4.15 -0.08,-2.23 -0.1,-4.79 -2.14,-6.21 -5.3,-3.71 -12.28,-4.15 -18.34,-2.24 -3.89,1.28 -8.17,1.76 -11.62,4.09 -3.51,0.65 -6.78,2.15 -10.23,3.02 4.66,-4.37 10.25,-7.57 15.87,-10.53 -2.33,-0.82 -4.54,-2.17 -7.03,-2.34 -2.41,0.51 -4.7,1.46 -7.08,2.08 3.55,-3.86 8.27,-6.34 12.83,-8.79 1.56,-0.94 3.45,-0.41 5.18,-0.5 3.77,0.19 7.48,-0.65 11.2,-1.19 2.51,-0.79 5.04,-1.56 7.59,-2.24 -4.17,-2.68 -8.61,-5.09 -11.89,-8.89 -4.84,1.24 -9.91,1.96 -14.88,1.09 3.01,-1.61 5.9,-3.5 8.32,-5.94 0.83,-0.89 0.66,-1.54 -0.52,-1.95 -4.28,-2.03 -9.03,-2.7 -13.63,-3.57 -11.83,-1.9 -23.86,-3.08 -35.83,-2.21 -0.08,-0.16 -0.25,-0.48 -0.34,-0.64 m -29.59,19.83 c -4.09,2.02 -6.48,6.8 -5.44,11.29 1.15,5.64 3.96,10.96 7.83,15.22 0.66,-1.6 1.35,-3.18 2.08,-4.74 0.97,-1.1 1.95,-2.2 2.93,-3.3 -1.4,-2.35 -2.93,-4.62 -4.52,-6.83 3,1.13 5.87,2.61 8.65,4.22 1.4,-0.6 2.8,-1.18 4.22,-1.73 -1.08,-2.14 -3.32,-3.14 -5.17,-4.46 4.46,-0.23 8.77,1.03 13.03,2.16 4.3,0.13 8.57,-0.66 12.87,-0.84 -6.38,-5.42 -13.47,-10.53 -21.78,-12.37 -4.9,-1.4 -10.09,-0.63 -14.7,1.38 m 86.62,13.14 c 4.99,2.15 10.92,-1.37 15.48,2.05 -0.38,-3.03 -0.51,-6.78 -3.44,-8.55 -3.93,2.34 -7.89,4.58 -12.04,6.5 m -242.12,2.11 c -25.2,4.15 -48.88,18.01 -63.96,38.76 24.06,-4.21 48.7,-6.42 73.06,-3.49 15.23,1.38 30.11,5.22 44.8,9.37 19.22,5.76 38.11,12.74 56.3,21.26 0.9,0.36 1.83,0.67 2.79,0.92 -0.71,-0.48 -1.43,-0.95 -2.14,-1.41 -35.56,-27.34 -80.9,-40.8 -125.55,-39.82 7.44,-1.76 15.19,-0.83 22.75,-1.66 37.21,-0.13 74.21,6.58 109.75,17.37 3.33,0.97 6.56,2.38 10.06,2.61 1.47,1.05 3.27,1.44 5.03,1.73 -0.9,-0.43 -1.77,-0.9 -2.62,-1.39 -13.18,-9.18 -26.69,-17.91 -40.69,-25.79 -14.65,-7.99 -30,-15.13 -46.43,-18.5 -14.23,-3.04 -28.9,-2.5 -43.15,0.04 z"
       id="path86"
       inkscape:connector-curvature="0"
       style="opacity:1;fill:#000000" />
    <path
       d="m 21.62,284.7 c 168.12,-0.16 336.24,-0.02 504.35,-0.07 17.44,0.05 34.87,-0.09 52.3,0.07 -7.52,12.57 -14.99,25.19 -23,37.45 8.19,14.51 13.68,30.45 16.68,46.83 3.26,17.14 4.93,35.17 0.23,52.21 -3.49,12.93 -11.61,25.01 -23.53,31.51 -8.95,5.05 -19.46,6.57 -29.61,6.38 -20.98,-1.5 -41.69,-5.39 -62.5,-8.27 -28.15,-1.97 -56.33,-3.6 -84.54,-4.45 -28.63,-1.34 -57.32,-0.82 -85.96,-1.41 -15.32,0.45 -30.66,0.33 -45.98,0.74 -34.02,1.58 -68.07,2.55 -101.99,5.67 -39.13,2.5 -78.09,7.09 -117.02,11.63 8.8,-44.77 18.18,-89.43 27.64,-134.07 C 39.54,314.26 30.46,299.56 21.62,284.7 m 19.11,10.62 c 5.87,10.72 12.71,20.91 19.08,31.35 4.74,-0.02 9.48,-0.2 14.22,-0.05 -2.17,2.05 -5.15,3.21 -7,5.52 0.95,1.71 2.58,3.05 2.94,5.05 -4.17,0.18 -8.33,0.57 -12.45,1.25 -4.03,19.08 -8,38.17 -12,57.25 24.82,-13.86 49.87,-27.32 74.71,-41.13 1.18,-0.65 2.47,-1.07 3.75,-1.48 -1.08,0.54 -2.18,1.05 -3.25,1.63 -25.24,15.18 -50.81,29.83 -76.04,45.04 -3.49,17 -6.93,34.01 -10.46,51.01 16.97,-1.96 33.93,-4 50.94,-5.64 9.28,-1.16 18.75,-1.13 27.86,-3.46 8.84,-2.09 18.23,-3.57 25.8,-8.95 11.95,-8.93 20.06,-22.83 21.87,-37.65 1.52,-9.32 0.69,-19.79 -5.31,-27.47 -3.83,-4.93 -9.81,-7.21 -15.43,-9.4 17.96,-5.85 27.77,-27.36 22.58,-45.09 -2.3,-6.87 -7.59,-12.86 -14.46,-15.37 -4.8,-1.86 -9.97,-2.53 -15.1,-2.42 -30.75,0.01 -61.5,0 -92.25,0.01 m 150.8,0.01 c -5.12,47.5 -10.21,95 -15.25,142.51 13.41,-0.38 26.78,-1.67 40.2,-1.52 0.19,-0.55 0.57,-1.65 0.76,-2.2 1.41,-18.25 2.36,-36.53 4.04,-54.75 6.87,0.04 13.73,-0.25 20.6,-0.23 -2.16,-9.45 -4.64,-19.12 -7.15,-28.3 -2.04,-9.45 -4.55,-18.82 -7.18,-28.13 0.1,-0.55 0.3,-1.65 0.4,-2.2 l 0.1,0.7 c 1.65,-0.05 3.3,-0.11 4.95,-0.2 5.04,0.42 10.77,-0.49 15.03,2.86 6.7,5.53 6.1,17.23 -0.5,22.62 -2.85,2.71 -6.9,3.18 -10.57,4.02 2.59,9.46 5.51,18.83 8.13,28.28 11.98,-0.29 24.71,-3.87 32.93,-13.07 8,-8.8 11.01,-21.03 10.76,-32.69 0.08,-9.82 -2.19,-20.37 -9.19,-27.67 -6.69,-7.29 -17.01,-9.79 -26.57,-10.02 -20.5,-0.04 -40.99,-0.01 -61.49,-0.01 m 116.75,0 c 0.28,29.25 0.43,58.51 0.58,87.76 0.14,0.73 0.43,2.19 0.57,2.92 16.38,-13.09 33.29,-25.5 49.88,-38.32 -4.32,-0.13 -8.63,-0.13 -12.95,-0.1 -0.43,-9 -0.96,-17.99 -1.08,-27.01 8.34,0.37 16.76,-0.47 25.01,1.14 9.61,2.5 12.54,17.15 4.56,23.03 -4.33,2.03 -9.25,2.75 -14.01,2.95 -17.08,13.9 -34.19,27.79 -51.24,41.74 -1.64,1.45 -0.22,3.75 -0.41,5.59 0.17,13.15 0.17,26.32 0.24,39.48 13.64,0.16 27.31,-0.2 40.92,0.72 -0.82,-8.72 -0.77,-17.48 -1.14,-26.23 -0.95,-8.98 -0.47,-18.05 -1.39,-27.04 -0.2,-2.75 -0.2,-5.51 -0.22,-8.26 7.12,-0.64 14.26,2.94 17.41,9.45 9.66,17.57 18.47,35.6 27.8,53.34 2.99,0.09 5.99,0.19 8.99,0.27 -2.69,-9.15 -5.28,-18.33 -7.93,-27.49 -0.29,-1.04 -0.59,-2.08 -0.89,-3.11 -0.93,-3.39 -1.87,-6.77 -2.75,-10.17 4.69,13.67 8.82,27.53 13.51,41.19 11.68,0.05 23.29,1.27 34.96,1.66 -7.73,-14.51 -15.16,-29.18 -22.9,-43.68 -3.05,-6.27 -7.34,-11.82 -11.79,-17.14 -3.18,-3.88 -7.74,-6.29 -12.37,-7.96 -0.02,-0.27 -0.06,-0.82 -0.08,-1.09 12.6,-1.52 22.5,-12.73 24.41,-24.98 1.53,-10.76 -0.32,-22.16 -5.82,-31.6 -3.06,0.16 -6.12,0.4 -9.12,1 0.99,-2.68 3.07,-4.73 4.49,-7.17 -8.6,-9.03 -21.67,-10.68 -33.51,-10.86 -21.24,-0.09 -42.49,-0.03 -63.73,-0.03 m 146.83,4.69 c 7.42,9.53 14.35,19.42 21.7,29 7.57,-7.15 20.07,-5.68 28.05,0.04 10.95,7.93 15.05,21.66 17.65,34.29 1.56,9.86 3.82,19.98 2.05,29.97 9.9,13.47 20.14,26.71 29.81,40.35 3.65,-4.21 5.71,-9.52 7.39,-14.76 4.19,-14.31 2.88,-29.47 0.5,-43.97 -3.19,-17.83 -8.39,-35.71 -18.6,-50.86 -0.86,-0.94 -0.64,-2.24 0.06,-3.18 5.27,-8.5 10.58,-16.98 15.71,-25.57 -29.82,-0.05 -59.64,0.02 -89.46,-0.03 -5.39,-0.43 -10.15,2.58 -14.86,4.72 m -21.88,40.13 c -0.99,6.58 -0.04,13.19 0.34,19.78 1.94,17.77 6.9,35.58 16.95,50.54 8.59,13.21 20.51,24.98 35.47,30.58 1.64,-3.76 2.97,-7.69 5.09,-11.22 0.66,3.61 1.33,7.23 2.15,10.81 2.5,-0.53 4.95,-1.26 7.38,-2.07 -0.51,2.35 -1.24,4.65 -2.05,6.91 8.3,1.98 16.84,3.22 25.4,2.93 9.76,-0.26 19.64,-3.46 26.82,-10.27 -9.34,-12.94 -18.22,-26.2 -27.42,-39.23 l 0.14,-0.25 c -14.05,-19.71 -27.73,-39.7 -41.61,-59.53 -2.11,-2.88 -3.79,-6.12 -6.48,-8.53 l 0.2,-0.33 c -6.79,-10.06 -13.93,-19.91 -20.76,-29.96 -13.79,8.18 -20.84,24.3 -21.62,39.84 z"
       id="path88"
       inkscape:connector-curvature="0"
       style="opacity:1;fill:#000000" />
    <path
       d="m 226.52,318.6 c -1.93,-7.58 -3.67,-15.2 -5.77,-22.73 2.87,7.62 4.93,15.57 7.01,23.45 -0.48,0.57 -0.96,1.16 -1.42,1.75 2.81,9.71 4.4,19.73 7.25,29.43 -3.43,0.08 -6.86,0.13 -10.28,0.18 0.33,-7.62 1.16,-15.2 1.61,-22.81 0.46,-3.1 -0.03,-6.47 1.6,-9.27 z"
       id="path90"
       inkscape:connector-curvature="0"
       style="opacity:1;fill:#000000" />
    <path
       d="m 97.61,322.43 c 6.72,0 13.44,-0.29 20.15,-0.04 3.92,0.07 8.07,2.59 8.79,6.66 1.09,6.92 -1.85,15.19 -8.72,17.97 -7.74,2.91 -16.21,0.96 -24.22,2.41 -0.26,-0.3 -0.78,-0.92 -1.04,-1.23 2.17,-8.47 3.29,-17.2 5.04,-25.77 z"
       id="path92"
       inkscape:connector-curvature="0"
       style="opacity:1;fill:#000000" />
    <path
       d="m 475.18,330.96 c 4.21,4.2 6.92,9.58 10.43,14.33 12.35,18.25 24.91,36.36 37.12,54.7 -1.51,2.64 -3.38,5.21 -6.09,6.73 -4.35,2.72 -9.75,2.25 -14.62,1.81 -9.91,-1.71 -17.77,-9.39 -22.32,-18.03 -5.82,-11.62 -8.02,-24.68 -9.05,-37.52 -0.3,-7.49 -0.2,-15.77 4.53,-22.02 z"
       id="path94"
       inkscape:connector-curvature="0"
       style="opacity:1;fill:#000000" />
    <path
       d="m 87.55,377.61 c 8.55,0.09 17.05,-1.55 25.58,-0.76 4.13,0.36 8.13,2.89 9.22,7.06 1.39,6.42 -0.69,13.5 -5.17,18.28 -4.33,4.69 -11.04,5.95 -17.15,6.24 -6.19,0.08 -12.32,1.12 -18.52,1.2 2.31,-10.62 3.8,-21.39 6.04,-32.02 z"
       id="path96"
       inkscape:connector-curvature="0"
       style="opacity:1;fill:#000000" />
  </g>
  <g
     id="#7e7e7fff"
     transform="matrix(0.08009428,0,0,0.08009428,-0.02215509,4.8603793)">
    <path
       d="m 187.59,60.6 c 25.29,-21.16 52.89,-39.73 82.57,-54.16 6.6,-0.74 13.22,1.19 19.57,2.85 4.14,1 7.98,3.21 12.27,3.52 6.43,-0.66 12.44,-3.44 18.85,-4.33 3.38,-0.42 6.77,-0.85 10.18,-0.78 10.19,0.57 20.63,1.85 29.9,6.41 2.06,0.94 4.8,2.36 6.75,0.42 1.72,-1.19 0.67,-3.6 0.8,-5.27 6.06,1.86 12.06,3.92 17.86,6.48 17.76,8.98 32.18,24.01 41.19,41.69 1.02,1.92 1.82,4.16 3.87,5.24 5.78,3.8 12,6.95 18.46,9.41 2.55,1.05 5.6,1.29 7.58,3.41 4.19,4.17 8.34,8.38 12.53,12.55 2.27,2.19 4.82,4.41 8.04,4.93 7.22,1.49 14.8,2.08 21.46,5.51 3.55,1.87 7.74,1.25 11.49,2.44 6.94,2.16 13.52,5.47 19.21,10.02 0.61,3.97 1.82,8 0.92,12.03 -0.48,3 -2.04,6.03 -0.96,9.09 2.83,11.69 5.55,23.4 8.36,35.09 0.39,3.23 3.97,4.66 4.57,7.84 4.36,9.31 6.65,19.75 4.86,30 -2.08,16.84 -10.06,32.1 -18.44,46.57 -0.33,0.4 -0.99,1.19 -1.32,1.59 -1.35,-3.48 -1.66,-7.46 -3.76,-10.58 -2.3,-2.4 -5.29,-0.32 -7.14,1.48 -2.12,-2.22 -4.4,-4.35 -7.23,-5.63 -1.66,0.77 -3.87,1.31 -4.01,3.52 -1.28,11.06 0.14,22.32 3.18,32.99 0.48,2.09 3,2.51 4.82,2.52 25.63,0.05 51.27,-0.03 76.9,0.03 -8.6,14.19 -17.21,28.38 -25.91,42.5 -2.21,3.61 0.99,7.19 2.29,10.47 8.79,19.32 13.22,40.42 14.87,61.51 0.93,18.27 -2.38,37.73 -13.74,52.56 -8.4,11.22 -21.33,18.77 -35.19,20.74 -5.05,0.58 -10.14,1.33 -15.23,0.9 -21.18,-1.56 -42.07,-5.51 -63.09,-8.36 -30.61,-1.91 -61.24,-3.88 -91.92,-4.59 -33.97,-1.12 -68.01,-0.95 -102.01,-0.82 -28.69,0.48 -57.35,2.08 -86.01,3.45 -20.65,1.2 -41.27,3.08 -61.9,4.59 -33.79,2.69 -67.45,6.86 -101.09,10.99 9.1,-44.81 18.22,-89.61 27.72,-134.34 0.63,-3.11 1.93,-6.75 -0.16,-9.6 C 29.26,310.87 19.09,294.18 9,277.45 c 21.01,0.03 42.03,-0.01 63.04,0.02 1.83,0.15 3.52,-0.58 5.11,-1.39 3.89,-15.97 8.31,-31.93 15.01,-46.98 6.73,-10.6 15.5,-19.72 23.92,-28.97 1.89,-2.09 4.94,-3.93 4.42,-7.19 -0.97,-3.25 -4.9,-3.04 -7.29,-1.62 -7.32,3.68 -14.65,7.35 -22.13,10.69 5.57,-12.08 10.67,-24.39 16.72,-36.25 11.21,-21.57 25.34,-41.5 41,-60.05 1.23,-1.36 1.98,-3.05 2.67,-4.72 -0.27,-0.57 -0.81,-1.69 -1.08,-2.25 -0.83,-0.55 -1.65,-1.13 -2.45,-1.72 5.55,-6.1 12.15,-11.16 18.04,-16.92 7.22,-6.48 14.22,-13.21 21.61,-19.5 M 269.86,12.97 C 239.97,28.03 212.12,47.09 186.85,69 c 4.93,-1.14 9.58,-3.17 14.47,-4.48 9.98,-3.21 20.44,-5.09 30.94,-5.08 -2.83,1.66 -6.06,2.4 -9.01,3.79 -19.77,8.66 -38.36,19.81 -56.23,31.86 -4.07,2.49 -6.73,6.53 -9.92,9.95 -19.81,23.09 -37.97,48.07 -50.2,76.05 18.37,-8.46 38.28,-12.85 58.21,-15.68 -0.28,0.38 -0.84,1.14 -1.12,1.52 -22.11,17.65 -43.5,36.55 -61.35,58.61 -2.12,2.8 -4.48,5.46 -6.2,8.53 -5.7,12.7 -9.33,26.19 -13.1,39.56 26.89,0.42 53.8,0.06 80.7,0.18 48.94,-0.07 97.89,0.15 146.83,-0.11 l -0.68,-0.45 c 5.61,1.33 11.6,0.43 17.35,0.42 3.06,0.35 6.16,0.12 9.23,-0.03 l -0.7,-0.63 c 0.87,0.6 1.85,0.86 2.94,0.8 51.67,0.01 103.35,-0.01 155.02,0.01 -4.36,-7.78 -9.69,-14.99 -13.99,-22.79 9.11,5.13 16.48,12.78 23.97,19.97 -4.18,-17.98 -4.75,-36.55 -4.38,-54.93 8.86,3.77 16.24,10.08 23.17,16.62 2.13,-2.32 3.62,-5.1 5.04,-7.88 2.26,2.5 3.73,5.55 5.7,8.26 2.36,-4.99 4.62,-10.06 6.24,-15.34 3.38,-10.8 5.57,-22.86 1.41,-33.76 -1.45,0.27 -2.89,0.55 -4.33,0.82 -0.37,-4.45 -1.16,-8.88 -2.74,-13.07 -1.54,5.17 -3.48,10.31 -6.42,14.85 -7.88,1.76 -16.51,0.88 -23.93,-2.39 -0.97,-4.52 -2,-9.59 0.15,-13.93 3.38,-4 7.35,-7.45 11.16,-11.03 3.47,5.26 6.46,10.85 8.47,16.84 2.1,-7.44 2.24,-15.38 0.82,-22.96 -0.87,-2.81 1.94,-4.68 3.16,-6.88 -1.84,-5.04 -4.1,-9.92 -7.11,-14.37 3.71,-4.93 6.53,-11.13 5.16,-17.43 -3.79,-2.76 -8.2,-4.53 -12.59,-6.07 -3.09,-1.23 -6.45,-0.38 -9.61,-0.98 -2.22,-0.99 -4.2,-2.44 -6.46,-3.34 -7.05,-2.67 -14.88,-2.4 -21.9,-5.17 -8,-4.25 -13.64,-11.62 -20.07,-17.8 -0.87,-0.8 -1.98,-1.23 -3.04,-1.66 -8.26,-2.95 -16.25,-6.76 -23.52,-11.7 -2.45,-1.59 -4.91,-3.44 -5.89,-6.32 -7.83,-17.27 -21.83,-31.22 -38.24,-40.48 5.24,8.12 9.18,17.04 12.67,26.03 C 386,35.16 373.31,24.64 358.41,18.33 c -12.32,-5.38 -26.34,-6.85 -39.43,-3.58 11.09,6.22 20.07,15.42 28.38,24.89 1.96,2.43 4.3,4.61 5.7,7.44 -15.64,-9.37 -31.44,-18.63 -48.24,-25.79 -8.92,-3.84 -18.13,-7.25 -27.75,-8.8 -2.4,-0.27 -5.03,-0.87 -7.21,0.48 M 21.62,284.7 c 8.84,14.86 17.92,29.56 27.07,44.22 -9.46,44.64 -18.84,89.3 -27.64,134.07 38.93,-4.54 77.89,-9.13 117.02,-11.63 33.92,-3.12 67.97,-4.09 101.99,-5.67 15.32,-0.41 30.66,-0.29 45.98,-0.74 28.64,0.59 57.33,0.07 85.96,1.41 28.21,0.85 56.39,2.48 84.54,4.45 20.81,2.88 41.52,6.77 62.5,8.27 10.15,0.19 20.66,-1.33 29.61,-6.38 11.92,-6.5 20.04,-18.58 23.53,-31.51 4.7,-17.04 3.03,-35.07 -0.23,-52.21 -3,-16.38 -8.49,-32.32 -16.68,-46.83 8.01,-12.26 15.48,-24.88 23,-37.45 -17.43,-0.16 -34.86,-0.02 -52.3,-0.07 -168.11,0.05 -336.23,-0.09 -504.35,0.07 z"
       id="path99"
       inkscape:connector-curvature="0"
       style="opacity:1;fill:#7e7e7f" />
  </g>
  <g
     id="#ffffffff"
     transform="matrix(0.08009428,0,0,0.08009428,-0.02215509,4.8603793)">
    <path
       d="m 262.05,35.84 c 7.92,-2.96 17.31,-2.16 24.2,2.95 10.82,7.88 17.94,19.5 26.24,29.77 9.08,11.69 19.8,22.81 33.73,28.57 -15.32,-4.15 -28.56,-13.74 -40.2,-24.26 -8.53,-7.76 -16.03,-16.72 -25.55,-23.33 -5.28,-3.71 -12.3,-5.59 -18.55,-3.5 -3.29,1.83 -1.29,6.08 1.63,7.06 11.38,6.99 22.69,14.88 30.69,25.76 -15.68,-12.46 -32.71,-23.97 -52.21,-29.45 5.22,-6.29 12.38,-10.8 20.02,-13.57 z"
       id="path102"
       inkscape:connector-curvature="0"
       style="opacity:1;fill:#ffffff" />
    <path
       d="m 395.38,77.47 c 11.97,-0.87 24,0.31 35.83,2.21 4.6,0.87 9.35,1.54 13.63,3.57 1.18,0.41 1.35,1.06 0.52,1.95 -2.42,2.44 -5.31,4.33 -8.32,5.94 4.97,0.87 10.04,0.15 14.88,-1.09 3.28,3.8 7.72,6.21 11.89,8.89 -2.55,0.68 -5.08,1.45 -7.59,2.24 -3.72,0.54 -7.43,1.38 -11.2,1.19 -1.73,0.09 -3.62,-0.44 -5.18,0.5 -4.56,2.45 -9.28,4.93 -12.83,8.79 2.38,-0.62 4.67,-1.57 7.08,-2.08 2.49,0.17 4.7,1.52 7.03,2.34 -5.62,2.96 -11.21,6.16 -15.87,10.53 3.45,-0.87 6.72,-2.37 10.23,-3.02 6.75,-0.83 13.48,-3.04 20.35,-1.99 4.46,1.07 7.36,5.11 8.88,9.21 8.42,-2.81 17.02,-5.04 25.67,-7.01 1.53,-0.19 3.09,-0.26 4.63,-0.43 -7.05,-2.77 -14.84,-2.77 -22.26,-1.84 2.45,-3.28 3.07,-7.26 2.6,-11.25 8.16,0.23 16.2,1.86 24.13,3.66 5.54,1.53 11.23,2.97 16.09,6.14 -2.23,5.08 -6.57,8.78 -11.29,11.5 -1.82,-0.31 -3.73,-1.02 -5.56,-0.59 -3.92,2.25 -7.66,4.8 -11.5,7.17 3.49,2.59 7.73,4.08 11.97,4.88 4.74,1 9.61,0.84 14.42,0.69 0.66,3.22 2.01,6.95 0.1,9.99 -2.18,3.74 -4.9,7.14 -7.73,10.4 -1.84,1.99 -3.89,4.34 -6.82,4.41 -5.05,0.33 -10.37,0.79 -15.15,-1.27 0.52,5.22 6.54,5.42 10.42,6.76 -1.19,8.42 -0.09,17.21 2.9,25.16 0.12,-1.49 0.15,-2.99 0.28,-4.48 0.83,-5.62 0.66,-11.32 1.31,-16.95 1.41,4.81 0.42,11.24 5.22,14.32 7.81,6.35 18.35,7.16 28.01,6.74 0.62,6.5 -1.29,13 -4.95,18.35 -8.96,-5.1 -18.2,-9.94 -28.17,-12.71 -7.27,-2.1 -14.99,-3.01 -21.78,-6.51 -5.25,-2.83 -5.89,-9.48 -6.28,-14.79 0.05,-5.1 -2.89,-9.63 -6.27,-13.21 -0.07,-0.12 -0.21,-0.38 -0.28,-0.5 -0.9,-1.61 -2.11,-3 -3.31,-4.37 -2.75,4.7 -5.55,10.43 -11.04,12.3 -9.25,0.09 -18.54,-2.31 -26.72,-6.6 -3,-1.2 -3.35,-4.84 -2.92,-7.61 0.54,-4.46 3.71,-7.88 6.34,-11.28 -5.88,-1.23 -11.27,1.4 -16.63,3.29 -3.58,-6.45 -0.35,-14.08 2.86,-20.01 3.13,-6.18 8.6,-12.69 6,-20.05 -3.72,-13.84 -17.9,-20.8 -23.62,-33.48 z"
       id="path104"
       inkscape:connector-curvature="0"
       style="opacity:1;fill:#ffffff" />
    <path
       d="m 365.45,96.66 c 4.61,-2.01 9.8,-2.78 14.7,-1.38 8.31,1.84 15.4,6.95 21.78,12.37 -4.3,0.18 -8.57,0.97 -12.87,0.84 -4.26,-1.13 -8.57,-2.39 -13.03,-2.16 1.85,1.32 4.09,2.32 5.17,4.46 -1.42,0.55 -2.82,1.13 -4.22,1.73 -2.78,-1.61 -5.65,-3.09 -8.65,-4.22 1.59,2.21 3.12,4.48 4.52,6.83 -0.98,1.1 -1.96,2.2 -2.93,3.3 -1.72,-3.03 -3.65,-6.06 -4.35,-9.52 -0.74,-4.05 -0.33,-8.17 -0.12,-12.25 z"
       id="path106"
       inkscape:connector-curvature="0"
       style="opacity:1;fill:#ffffff" />
    <path
       d="m 452.07,109.8 c 4.15,-1.92 8.11,-4.16 12.04,-6.5 2.93,1.77 3.06,5.52 3.44,8.55 -4.56,-3.42 -10.49,0.1 -15.48,-2.05 z"
       id="path108"
       inkscape:connector-curvature="0"
       style="opacity:1;fill:#ffffff" />
    <path
       d="m 209.95,111.91 c 14.25,-2.54 28.92,-3.08 43.15,-0.04 16.43,3.37 31.78,10.51 46.43,18.5 14,7.88 27.51,16.61 40.69,25.79 0.85,0.49 1.72,0.96 2.62,1.39 -1.76,-0.29 -3.56,-0.68 -5.03,-1.73 -4.61,-3.31 -9.95,-5.37 -15.04,-7.82 -31.74,-14.18 -65.81,-24.6 -100.78,-25.55 -8.79,0.23 -18.85,-0.44 -25.99,5.65 -2.99,2.32 -4.3,6.04 -4.59,9.71 1.28,-0.1 2.56,-0.2 3.84,-0.31 44.65,-0.98 89.99,12.48 125.55,39.82 0.71,0.46 1.43,0.93 2.14,1.41 -0.96,-0.25 -1.89,-0.56 -2.79,-0.92 -18.19,-8.52 -37.08,-15.5 -56.3,-21.26 -14.69,-4.15 -29.57,-7.99 -44.8,-9.37 -24.36,-2.93 -49,-0.72 -73.06,3.49 15.08,-20.75 38.76,-34.61 63.96,-38.76 z"
       id="path110"
       inkscape:connector-curvature="0"
       style="opacity:1;fill:#ffffff" />
    <path
       d="m 195.86,192.6 c 26.07,-4.57 53.07,-1.88 78.21,6.14 36.35,11.43 69.58,30.49 104.38,45.69 23.58,10.38 47.73,19.92 72.89,25.68 l 0.12,0.26 c -3.09,0.16 -6.19,0.07 -9.22,-0.57 -22.63,-4.04 -44.4,-11.64 -66.05,-19.18 -37.06,-13.19 -73.43,-28.18 -109.98,-42.69 -2.83,-1.11 -5.65,-2.61 -8.78,-2.4 0.77,1.75 1.43,3.72 3.07,4.88 4.56,3.6 10.02,5.76 15.2,8.31 10.95,7.37 20.37,16.69 29.82,25.84 9.88,9.8 19.97,19.4 30.55,28.45 l 0.7,0.63 c -3.07,0.15 -6.17,0.38 -9.23,0.03 -26.75,-19.89 -53.79,-40.81 -85.87,-51.33 -25.54,-8.72 -53.77,-9.08 -79.55,-1.13 -10.97,3.31 -21.62,8.16 -30.6,15.36 -3.45,2.73 -6.3,6.09 -9.51,9.08 10.66,-16.95 24.18,-32.72 41.74,-42.76 9.79,-5.8 21.06,-8.21 32.11,-10.29 z"
       id="path112"
       inkscape:connector-curvature="0"
       style="opacity:1;fill:#ffffff" />
    <path
       d="m 40.73,295.32 c 30.75,-0.01 61.5,0 92.25,-0.01 5.13,-0.11 10.3,0.56 15.1,2.42 6.87,2.51 12.16,8.5 14.46,15.37 5.19,17.73 -4.62,39.24 -22.58,45.09 5.62,2.19 11.6,4.47 15.43,9.4 6,7.68 6.83,18.15 5.31,27.47 -1.81,14.82 -9.92,28.72 -21.87,37.65 -7.57,5.38 -16.96,6.86 -25.8,8.95 -9.11,2.33 -18.58,2.3 -27.86,3.46 -17.01,1.64 -33.97,3.68 -50.94,5.64 3.53,-17 6.97,-34.01 10.46,-51.01 25.23,-15.21 50.8,-29.86 76.04,-45.04 1.07,-0.58 2.17,-1.09 3.25,-1.63 -1.28,0.41 -2.57,0.83 -3.75,1.48 -24.84,13.81 -49.89,27.27 -74.71,41.13 4,-19.08 7.97,-38.17 12,-57.25 4.12,-0.68 8.28,-1.07 12.45,-1.25 -0.36,-2 -1.99,-3.34 -2.94,-5.05 1.85,-2.31 4.83,-3.47 7,-5.52 -4.74,-0.15 -9.48,0.03 -14.22,0.05 C 53.44,316.23 46.6,306.04 40.73,295.32 m 56.88,27.11 c -1.75,8.57 -2.87,17.3 -5.04,25.77 0.26,0.31 0.78,0.93 1.04,1.23 8.01,-1.45 16.48,0.5 24.22,-2.41 6.87,-2.78 9.81,-11.05 8.72,-17.97 -0.72,-4.07 -4.87,-6.59 -8.79,-6.66 -6.71,-0.25 -13.43,0.04 -20.15,0.04 m -10.06,55.18 c -2.24,10.63 -3.73,21.4 -6.04,32.02 6.2,-0.08 12.33,-1.12 18.52,-1.2 6.11,-0.29 12.82,-1.55 17.15,-6.24 4.48,-4.78 6.56,-11.86 5.17,-18.28 -1.09,-4.17 -5.09,-6.7 -9.22,-7.06 -8.53,-0.79 -17.03,0.85 -25.58,0.76 z"
       id="path114"
       inkscape:connector-curvature="0"
       style="opacity:1;fill:#ffffff" />
    <path
       d="m 191.53,295.33 c 20.5,0 40.99,-0.03 61.49,0.01 9.56,0.23 19.88,2.73 26.57,10.02 7,7.3 9.27,17.85 9.19,27.67 0.25,11.66 -2.76,23.89 -10.76,32.69 -8.22,9.2 -20.95,12.78 -32.93,13.07 -2.62,-9.45 -5.54,-18.82 -8.13,-28.28 3.67,-0.84 7.72,-1.31 10.57,-4.02 6.6,-5.39 7.2,-17.09 0.5,-22.62 -4.26,-3.35 -9.99,-2.44 -15.03,-2.86 -1.65,0.09 -3.3,0.15 -4.95,0.2 l -0.1,-0.7 c -0.05,-0.3 -0.14,-0.89 -0.19,-1.19 -2.08,-7.88 -4.14,-15.83 -7.01,-23.45 2.1,7.53 3.84,15.15 5.77,22.73 -1.63,2.8 -1.14,6.17 -1.6,9.27 -0.45,7.61 -1.28,15.19 -1.61,22.81 3.42,-0.05 6.85,-0.1 10.28,-0.18 0.28,0.08 0.86,0.26 1.14,0.34 2.51,9.18 4.99,18.85 7.15,28.3 -6.87,-0.02 -13.73,0.27 -20.6,0.23 -1.68,18.22 -2.63,36.5 -4.04,54.75 -0.19,0.55 -0.57,1.65 -0.76,2.2 -13.42,-0.15 -26.79,1.14 -40.2,1.52 5.04,-47.51 10.13,-95.01 15.25,-142.51 z"
       id="path116"
       inkscape:connector-curvature="0"
       style="opacity:1;fill:#ffffff" />
    <path
       d="m 308.28,295.33 c 21.24,0 42.49,-0.06 63.73,0.03 11.84,0.18 24.91,1.83 33.51,10.86 -1.42,2.44 -3.5,4.49 -4.49,7.17 3,-0.6 6.06,-0.84 9.12,-1 5.5,9.44 7.35,20.84 5.82,31.6 -1.91,12.25 -11.81,23.46 -24.41,24.98 0.02,0.27 0.06,0.82 0.08,1.09 4.63,1.67 9.19,4.08 12.37,7.96 4.45,5.32 8.74,10.87 11.79,17.14 7.74,14.5 15.17,29.17 22.9,43.68 -11.67,-0.39 -23.28,-1.61 -34.96,-1.66 -4.69,-13.66 -8.82,-27.52 -13.51,-41.19 0.88,3.4 1.82,6.78 2.75,10.17 0.3,1.03 0.6,2.07 0.89,3.11 2.65,9.16 5.24,18.34 7.93,27.49 -3,-0.08 -6,-0.18 -8.99,-0.27 -9.33,-17.74 -18.14,-35.77 -27.8,-53.34 -3.15,-6.51 -10.29,-10.09 -17.41,-9.45 0.02,2.75 0.02,5.51 0.22,8.26 0.92,8.99 0.44,18.06 1.39,27.04 0.37,8.75 0.32,17.51 1.14,26.23 -13.61,-0.92 -27.28,-0.56 -40.92,-0.72 -0.07,-13.16 -0.07,-26.33 -0.24,-39.48 0.19,-1.84 -1.23,-4.14 0.41,-5.59 17.05,-13.95 34.16,-27.84 51.24,-41.74 4.76,-0.2 9.68,-0.92 14.01,-2.95 7.98,-5.88 5.05,-20.53 -4.56,-23.03 -8.25,-1.61 -16.67,-0.77 -25.01,-1.14 0.12,9.02 0.65,18.01 1.08,27.01 4.32,-0.03 8.63,-0.03 12.95,0.1 -16.59,12.82 -33.5,25.23 -49.88,38.32 -0.14,-0.73 -0.43,-2.19 -0.57,-2.92 -0.15,-29.25 -0.3,-58.51 -0.58,-87.76 z"
       id="path118"
       inkscape:connector-curvature="0"
       style="opacity:1;fill:#ffffff" />
    <path
       d="m 455.11,300.02 c 4.71,-2.14 9.47,-5.15 14.86,-4.72 29.82,0.05 59.64,-0.02 89.46,0.03 -5.13,8.59 -10.44,17.07 -15.71,25.57 -0.7,0.94 -0.92,2.24 -0.06,3.18 10.21,15.15 15.41,33.03 18.6,50.86 2.38,14.5 3.69,29.66 -0.5,43.97 -1.68,5.24 -3.74,10.55 -7.39,14.76 -9.67,-13.64 -19.91,-26.88 -29.81,-40.35 1.77,-9.99 -0.49,-20.11 -2.05,-29.97 -2.6,-12.63 -6.7,-26.36 -17.65,-34.29 -7.98,-5.72 -20.48,-7.19 -28.05,-0.04 -7.35,-9.58 -14.28,-19.47 -21.7,-29 z"
       id="path120"
       inkscape:connector-curvature="0"
       style="opacity:1;fill:#ffffff" />
    <path
       d="m 433.23,340.15 c 0.78,-15.54 7.83,-31.66 21.62,-39.84 6.83,10.05 13.97,19.9 20.76,29.96 l -0.2,0.33 c -0.06,0.09 -0.18,0.27 -0.23,0.36 -4.73,6.25 -4.83,14.53 -4.53,22.02 1.03,12.84 3.23,25.9 9.05,37.52 4.55,8.64 12.41,16.32 22.32,18.03 4.87,0.44 10.27,0.91 14.62,-1.81 2.71,-1.52 4.58,-4.09 6.09,-6.73 0.16,-0.27 0.47,-0.81 0.63,-1.08 9.2,13.03 18.08,26.29 27.42,39.23 -7.18,6.81 -17.06,10.01 -26.82,10.27 -8.56,0.29 -17.1,-0.95 -25.4,-2.93 0.81,-2.26 1.54,-4.56 2.05,-6.91 -2.43,0.81 -4.88,1.54 -7.38,2.07 -0.82,-3.58 -1.49,-7.2 -2.15,-10.81 -2.12,3.53 -3.45,7.46 -5.09,11.22 -14.96,-5.6 -26.88,-17.37 -35.47,-30.58 -10.05,-14.96 -15.01,-32.77 -16.95,-50.54 -0.38,-6.59 -1.33,-13.2 -0.34,-19.78 z"
       id="path122"
       inkscape:connector-curvature="0"
       style="opacity:1;fill:#ffffff" />
  </g>
  <g
     id="#3792d0ff"
     transform="matrix(0.08009428,0,0,0.08009428,-0.02215509,4.8603793)">
    <path
       d="m 261.92,46.04 c 6.25,-2.09 13.27,-0.21 18.55,3.5 9.52,6.61 17.02,15.57 25.55,23.33 11.64,10.52 24.88,20.11 40.2,24.26 2.03,0.48 3.99,1.25 5.84,2.23 C 337.8,99.61 324.25,93.4 313.12,84.87 301.3,76.11 291,65.22 277.94,58.18 c -4.52,-2.35 -9.26,-4.58 -14.39,-5.08 -2.92,-0.98 -4.92,-5.23 -1.63,-7.06 z"
       id="path125"
       inkscape:connector-curvature="0"
       style="opacity:1;fill:#3792d0" />
    <path
       d="m 395.04,76.83 c 0.09,0.16 0.26,0.48 0.34,0.64 5.72,12.68 19.9,19.64 23.62,33.48 2.6,7.36 -2.87,13.87 -6,20.05 -3.21,5.93 -6.44,13.56 -2.86,20.01 5.36,-1.89 10.75,-4.52 16.63,-3.29 -2.63,3.4 -5.8,6.82 -6.34,11.28 -0.43,2.77 -0.08,6.41 2.92,7.61 8.18,4.29 17.47,6.69 26.72,6.6 5.49,-1.87 8.29,-7.6 11.04,-12.3 1.2,1.37 2.41,2.76 3.31,4.37 l -0.45,0.43 c -0.91,-1.52 -1.94,-2.97 -3.09,-4.3 -1.44,6.95 -1.92,15.6 -8.33,19.96 -15.85,3.43 -32.76,3.58 -47.45,11.2 -2.27,-4.12 -4.21,-8.75 -3.42,-13.56 0.66,-5.58 3.54,-10.48 6.36,-15.21 -5.04,2.06 -9.46,5.39 -13.01,9.49 -3.49,-8.09 -5.47,-16.74 -7.48,-25.29 -1.34,-4.68 1.38,-9.03 3.36,-13.06 3.26,-5.88 6.7,-11.83 11.52,-16.6 2.98,-2.23 6.92,-2.51 10.5,-2.91 -0.13,-9.59 -7.6,-16.38 -12.74,-23.67 -3.24,-4.31 -4.92,-9.57 -5.15,-14.93 z"
       id="path127"
       inkscape:connector-curvature="0"
       style="opacity:1;fill:#3792d0" />
    <path
       d="m 360.01,107.95 c -1.04,-4.49 1.35,-9.27 5.44,-11.29 -0.21,4.08 -0.62,8.2 0.12,12.25 0.7,3.46 2.63,6.49 4.35,9.52 -0.73,1.56 -1.42,3.14 -2.08,4.74 -3.87,-4.26 -6.68,-9.58 -7.83,-15.22 z"
       id="path129"
       inkscape:connector-curvature="0"
       style="opacity:1;fill:#3792d0" />
    <path
       d="m 447.1,115.34 c 6.06,-1.91 13.04,-1.47 18.34,2.24 2.04,1.42 2.06,3.98 2.14,6.21 7.13,-3.09 15.08,-4.19 22.8,-4.15 -8.65,1.97 -17.25,4.2 -25.67,7.01 -1.52,-4.1 -4.42,-8.14 -8.88,-9.21 -6.87,-1.05 -13.6,1.16 -20.35,1.99 3.45,-2.33 7.73,-2.81 11.62,-4.09 z"
       id="path131"
       inkscape:connector-curvature="0"
       style="opacity:1;fill:#3792d0" />
    <path
       d="m 196,128.1 c 7.14,-6.09 17.2,-5.42 25.99,-5.65 34.97,0.95 69.04,11.37 100.78,25.55 5.09,2.45 10.43,4.51 15.04,7.82 -3.5,-0.23 -6.73,-1.64 -10.06,-2.61 -35.54,-10.79 -72.54,-17.5 -109.75,-17.37 -7.56,0.83 -15.31,-0.1 -22.75,1.66 -1.28,0.11 -2.56,0.21 -3.84,0.31 0.29,-3.67 1.6,-7.39 4.59,-9.71 z"
       id="path133"
       inkscape:connector-curvature="0"
       style="opacity:1;fill:#3792d0" />
    <path
       d="m 495.18,134.97 c 0.99,-1.18 1.97,-2.7 3.7,-2.78 2.99,-0.48 5.14,2.04 7.76,2.9 1.88,0.29 3.78,-0.14 5.65,-0.35 0.45,1.6 0.89,3.21 1.32,4.83 -4.81,0.15 -9.68,0.31 -14.42,-0.69 -1.42,-1.21 -2.7,-2.59 -4.01,-3.91 z"
       id="path135"
       inkscape:connector-curvature="0"
       style="opacity:1;fill:#3792d0" />
    <path
       d="m 464.7,165.78 c 3.38,3.58 6.32,8.11 6.27,13.21 0.39,5.31 1.03,11.96 6.28,14.79 6.79,3.5 14.51,4.41 21.78,6.51 9.97,2.77 19.21,7.61 28.17,12.71 -1.58,2.34 -3.29,4.57 -5.08,6.73 -12.91,-10.17 -27.96,-17.79 -44.02,-21.44 -6.62,-1.86 -12.26,-8.19 -11.98,-15.29 0.02,-5.78 -0.91,-11.5 -1.42,-17.22 z"
       id="path137"
       inkscape:connector-curvature="0"
       style="opacity:1;fill:#3792d0" />
    <path
       d="m 497.67,170.05 c 1.19,0.78 1.29,2.23 1.25,3.54 -0.65,5.63 -0.48,11.33 -1.31,16.95 -1.33,-6.74 -1.01,-13.74 0.06,-20.49 z"
       id="path139"
       inkscape:connector-curvature="0"
       style="opacity:1;fill:#3792d0" />
    <path
       d="m 257.43,205.53 c 3.13,-0.21 5.95,1.29 8.78,2.4 36.55,14.51 72.92,29.5 109.98,42.69 21.65,7.54 43.42,15.14 66.05,19.18 3.03,0.64 6.13,0.73 9.22,0.57 0.1,0.25 0.3,0.75 0.4,0.99 -12.14,0.83 -24.09,-2 -35.82,-4.75 -47.93,-12.34 -94.18,-30.24 -140.34,-47.89 -5.18,-2.55 -10.64,-4.71 -15.2,-8.31 -1.64,-1.16 -2.3,-3.13 -3.07,-4.88 z"
       id="path141"
       inkscape:connector-curvature="0"
       style="opacity:1;fill:#3792d0" />
    <path
       d="m 162.12,221.21 c 25.78,-7.95 54.01,-7.59 79.55,1.13 32.08,10.52 59.12,31.44 85.87,51.33 -5.75,0.01 -11.74,0.91 -17.35,-0.42 -24.98,-16.03 -50.67,-32.37 -79.89,-39.32 -11.17,-2.85 -22.79,-3.24 -34.24,-2.41 -9.32,0.9 -18.24,3.87 -27.25,6.24 -17.13,4.64 -34.02,10.12 -51.01,15.23 1.3,-2.51 2.64,-5 4.21,-7.34 3.21,-2.99 6.06,-6.35 9.51,-9.08 8.98,-7.2 19.63,-12.05 30.6,-15.36 z"
       id="path143"
       inkscape:connector-curvature="0"
       style="opacity:1;fill:#3792d0" />
    <path
       d="m 226.34,321.07 c 0.46,-0.59 0.94,-1.18 1.42,-1.75 0.05,0.3 0.14,0.89 0.19,1.19 -0.1,0.55 -0.3,1.65 -0.4,2.2 2.63,9.31 5.14,18.68 7.18,28.13 -0.28,-0.08 -0.86,-0.26 -1.14,-0.34 -2.85,-9.7 -4.44,-19.72 -7.25,-29.43 z"
       id="path145"
       inkscape:connector-curvature="0"
       style="opacity:1;fill:#3792d0" />
    <path
       d="m 475.18,330.96 c 0.05,-0.09 0.17,-0.27 0.23,-0.36 2.69,2.41 4.37,5.65 6.48,8.53 13.88,19.83 27.56,39.82 41.61,59.53 l -0.14,0.25 c -0.16,0.27 -0.47,0.81 -0.63,1.08 -12.21,-18.34 -24.77,-36.45 -37.12,-54.7 -3.51,-4.75 -6.22,-10.13 -10.43,-14.33 z"
       id="path147"
       inkscape:connector-curvature="0"
       style="opacity:1;fill:#3792d0" />
  </g>
</svg>
