<?xml version="1.0" encoding="iso-8859-1"?>
<!-- Generator: Adobe Illustrator 16.0.0, SVG Export Plug-In . SVG Version: 6.00 Build 0)  -->
<!DOCTYPE svg PUBLIC "-//W3C//DTD SVG 1.1//EN" "http://www.w3.org/Graphics/SVG/1.1/DTD/svg11.dtd">
<svg version="1.1" id="Layer_1" xmlns="http://www.w3.org/2000/svg" xmlns:xlink="http://www.w3.org/1999/xlink" x="0px" y="0px"
	 width="64px" height="64px" viewBox="0 0 64 64" style="enable-background:new 0 0 64 64;" xml:space="preserve">
<g>
	<path style="fill-rule:evenodd;clip-rule:evenodd;fill:#389ACA;" d="M11.728,4.082c4.316-1.407,8.411-2.768,12.531-4.043
		c0.432-0.134,1.127,0.101,1.522,0.4c6.676,5.064,13.325,10.165,19.979,15.258c0.182,0.139,0.367,0.273,0.67,0.497
		c1.519-4.268,3.007-8.45,4.562-12.82c2.026,2.778,3.946,5.4,5.853,8.032c0.776,1.071,1.992,2.097,2.155,3.262
		c0.162,1.161-0.742,2.473-1.183,3.717c-2.413,6.813-4.827,13.626-7.237,20.441c-0.126,0.358-0.215,0.73-0.365,1.245
		c4.517,0.126,8.931,0.25,13.566,0.379c-1.108,1.529-2.082,2.873-3.059,4.215c-1.467,2.017-2.971,4.007-4.385,6.06
		c-0.501,0.728-1.019,0.979-1.908,0.951c-8.185-0.256-16.37-0.458-24.555-0.673c-0.385-0.01-0.771-0.001-1.289-0.001
		c1.277,4.324,2.524,8.549,3.838,12.998c-0.876-0.265-1.533-0.451-2.181-0.661c-3.291-1.067-6.57-2.169-9.874-3.194
		c-0.826-0.256-1.246-0.64-1.499-1.504c-2.401-8.205-4.861-16.393-7.359-24.769c-3.724,2.549-7.389,5.058-11.19,7.66
		c-0.036-0.441-0.078-0.727-0.078-1.012c-0.004-3.939,0.021-7.878-0.022-11.817c-0.009-0.764,0.251-1.189,0.859-1.605
		C7.9,22.441,14.705,17.76,21.513,13.083c0.311-0.213,0.615-0.434,1.02-0.718C18.921,9.597,15.411,6.905,11.728,4.082z
		 M11.965,33.547c0.454,0.171,0.727,0.287,1.008,0.379c3.547,1.159,7.086,2.341,10.648,3.452c0.765,0.238,1.154,0.619,1.339,1.38
		c0.285,1.169,0.655,2.319,0.999,3.473c0.801,2.691,1.609,5.381,2.467,8.249c0.386-0.508,0.645-0.836,0.891-1.174
		c2.135-2.927,4.285-5.844,6.385-8.796c0.411-0.578,0.833-0.809,1.534-0.771c1.634,0.087,3.272,0.126,4.91,0.141
		c2.432,0.021,4.865,0.005,7.396,0.005c-2.383-3.274-4.729-6.515-7.1-9.737c-0.443-0.603-0.645-1.123-0.313-1.892
		c0.582-1.354,1.03-2.766,1.521-4.158c0.847-2.397,1.684-4.797,2.579-7.353c-0.451,0.117-0.708,0.169-0.956,0.25
		c-3.625,1.171-7.253,2.333-10.866,3.536c-0.622,0.207-1.063,0.13-1.578-0.271c-3.016-2.343-6.058-4.653-9.095-6.969
		c-0.222-0.169-0.473-0.3-0.827-0.521c0,4.197-0.02,8.211,0.018,12.224c0.007,0.743-0.189,1.208-0.824,1.62
		c-1.764,1.146-3.482,2.362-5.216,3.552C15.289,31.262,13.693,32.359,11.965,33.547z"/>
</g>
</svg>
