<?xml version="1.0" encoding="UTF-8" standalone="no"?>
<svg
   xmlns:dc="http://purl.org/dc/elements/1.1/"
   xmlns:cc="http://creativecommons.org/ns#"
   xmlns:rdf="http://www.w3.org/1999/02/22-rdf-syntax-ns#"
   xmlns:svg="http://www.w3.org/2000/svg"
   xmlns="http://www.w3.org/2000/svg"
   xmlns:sodipodi="http://sodipodi.sourceforge.net/DTD/sodipodi-0.dtd"
   xmlns:inkscape="http://www.inkscape.org/namespaces/inkscape"
   width="64"
   height="64"
   viewBox="0 0 48 47.999999"
   version="1.1"
   id="svg734"
   sodipodi:docname="btrg.svg"
   inkscape:version="0.92.3 (2405546, 2018-03-11)">
  <metadata
     id="metadata740">
    <rdf:RDF>
      <cc:Work
         rdf:about="">
        <dc:format>image/svg+xml</dc:format>
        <dc:type
           rdf:resource="http://purl.org/dc/dcmitype/StillImage" />
        <dc:title></dc:title>
      </cc:Work>
    </rdf:RDF>
  </metadata>
  <defs
     id="defs738" />
  <sodipodi:namedview
     pagecolor="#ffffff"
     bordercolor="#666666"
     borderopacity="1"
     objecttolerance="10"
     gridtolerance="10"
     guidetolerance="10"
     inkscape:pageopacity="0"
     inkscape:pageshadow="2"
     inkscape:window-width="1920"
     inkscape:window-height="1017"
     id="namedview736"
     showgrid="false"
     units="px"
     inkscape:pagecheckerboard="true"
     inkscape:zoom="1.9751553"
     inkscape:cx="-124.82366"
     inkscape:cy="6.9488024"
     inkscape:window-x="-8"
     inkscape:window-y="-8"
     inkscape:window-maximized="1"
     inkscape:current-layer="svg734" />
  <g
     id="#604171a0"
     transform="matrix(0.07453416,0,0,0.07453416,1.6557044,2.3e-7)">
    <path
       d="m 226.29,0 h 10.35 l 1.17,0.87 c -4.3,0.09 -8.6,0.06 -12.89,-0.05 z"
       id="path376"
       inkscape:connector-curvature="0"
       style="opacity:0.62999998;fill:#604171" />
  </g>
  <g
     id="#601986ff"
     transform="matrix(0.07453416,0,0,0.07453416,1.6557044,2.3e-7)">
    <path
       d="m 185.98,32.02 c 5.71,-16.64 21.49,-29.18 38.94,-31.2 4.29,0.11 8.59,0.14 12.89,0.05 12.04,1.6 22.93,8.5 30.48,17.89 1.38,1.87 2.63,3.84 4.29,5.49 4.51,-6.81 10.8,-12.83 18.87,-14.98 -5,13 -16.62,21.93 -28.34,28.64 1.79,-3.15 3.91,-6.16 4.93,-9.68 -26.76,15.36 -54.37,31.46 -73.48,56.33 -5.3,6.48 -9.1,13.94 -13.28,21.15 -1.6,-3.44 -2.98,-6.97 -3.98,-10.63 -4.22,8.41 -7.15,17.4 -10.82,26.06 -3.54,10.53 -7.78,20.85 -10.45,31.65 -2.53,2.01 -3.17,5.26 -4.22,8.13 -1.79,4.85 -2.07,10.06 -2.92,15.13 0.12,-1.4 0.15,-2.85 -0.48,-4.14 -8.19,-6.15 -15.24,-13.68 -21.87,-21.46 -6.23,-7.87 -11.82,-16.48 -14.66,-26.19 -2.64,-5.72 -2.38,-12.11 -3.05,-18.23 -0.32,-4.05 0.46,-8.06 0.72,-12.08 0.26,-5.9 2.97,-11.25 4.78,-16.76 7.44,-13.97 19.61,-25.78 34.66,-31.15 11.18,-3.11 23.78,-2.71 34.09,2.96 0.92,-5.66 1.47,-11.41 2.9,-16.98 z"
       id="path379"
       inkscape:connector-curvature="0"
       style="opacity:1;fill:#601986" />
    <path
       d="m 418.89,51.96 c 7.42,-12.25 24.53,-18.42 37.55,-11.51 9.18,3.95 15.58,13.58 15.36,23.6 0.05,4.17 -1.6,8.1 -3.22,11.86 -4.15,7.24 -15.01,9.27 -21.54,4.08 -3.74,-2.72 -5.39,-8.09 -3.37,-12.34 1,-3.51 4,-5.7 6.79,-7.74 1,-0.2 1.91,-0.66 2.66,-1.36 -3.12,-0.31 -6.52,-0.87 -9.29,0.97 -8.03,3.35 -10.63,13.59 -7.32,21.15 2.44,6.83 9.35,10.49 16.01,12.11 3.33,1.26 6.93,0.81 10.41,0.78 6.17,-0.19 12.31,0.69 18.48,0.45 15.31,2.4 30.12,10.38 39.22,23.12 7.52,10.81 9.24,25.16 4.83,37.52 -3.09,11.52 -10.62,21.31 -19.41,29.13 2.54,-5.44 5.46,-10.87 6.32,-16.88 0.83,-5.72 1.09,-11.55 0.3,-17.29 -1.07,-11.1 -8.47,-20.79 -17.92,-26.34 -6.68,-3.5 -14.02,-6.45 -21.72,-5.83 -6.67,-0.36 -12.81,2.47 -18.9,4.73 -9.45,4.44 -19.08,11.1 -22.22,21.61 -0.21,1.22 -0.35,2.45 -0.47,3.69 -0.61,1.96 -1.32,3.89 -2.09,5.79 -1.4,-4.33 -2.51,-8.75 -3.26,-13.24 -1.39,-10.54 -8.1,-19.19 -12.3,-28.69 4.8,-3.79 9.87,-7.22 15.24,-10.15 -6.15,-5.64 -11.22,-12.68 -13.44,-20.81 -3.42,-9.34 -1.64,-19.96 3.3,-28.41 z"
       id="path381"
       inkscape:connector-curvature="0"
       style="opacity:1;fill:#601986" />
    <path
       d="m 18.52,162.47 c 8.43,-17.08 23.89,-31.1 42.43,-36.11 9.17,-1.55 18.67,-1.75 27.84,-0.12 8.94,2.57 17.11,7.82 23.2,14.85 3.17,4.37 5.97,9.38 6.03,14.94 1.09,8.95 -2.75,17.82 -8.79,24.27 3.85,0.9 7.86,1.92 10.83,4.7 5.27,4.14 7.4,11.01 7.49,17.5 -4.5,-5.06 -6.69,-12.69 -13.21,-15.57 0.46,13.02 3.89,25.74 3.88,38.79 -1.55,0.92 -3,1.99 -4.26,3.27 -6.23,6.16 -14.36,10.17 -22.88,12.02 -12.86,2.41 -27.35,-1.93 -35.41,-12.57 -8.23,-10.8 -9.67,-28.09 0.7,-38.02 4.27,-4.98 11.56,-5.72 17.56,-4.09 6.42,2.42 12.62,6.62 15.53,13.05 2.04,4.51 4.82,9.52 3.14,14.6 -1.52,4.09 -4.73,8.46 -9.59,8.3 -6.59,0.95 -12.66,-3.63 -15.28,-9.42 -1.66,-3.59 -0.66,-7.65 -1.02,-11.46 -3.03,5.07 -4.37,11.72 -1.39,17.12 4.93,9.2 18.02,13.46 27.1,7.83 5.63,-3.27 9.71,-9.71 9.37,-16.34 0.62,-6.25 -2.67,-11.83 -5.94,-16.84 -5.47,-7.15 -12.98,-13.35 -22.1,-14.81 -7.88,-1.21 -16.57,-0.75 -23.25,4.07 -9.13,6.59 -13.64,18.47 -12.45,29.5 0.18,4.87 2.58,9.22 4.44,13.6 6.54,10.47 14.64,21.61 27.22,24.92 8.74,2.89 18.07,0.99 26.37,-2.36 -5.62,9.22 -15,16.81 -26.17,17.21 -7.93,0.06 -15.66,2.04 -23.09,4.64 -14.87,6.71 -25.77,20.21 -31.7,35.15 -3.29,9.03 -5.54,18.5 -5.71,28.15 -2.18,-3.67 -3.21,-7.82 -4.46,-11.85 -1.76,-8.2 -3.49,-16.43 -3.98,-24.82 -0.17,-4.76 0.09,-9.53 -0.3,-14.28 0.5,-10.65 3.54,-21.05 7.86,-30.74 3.81,-8.68 10.13,-15.87 16.29,-22.94 -0.57,-1.76 -1.9,-3.15 -2.73,-4.77 C 11.43,205.49 9.53,181.85 18.52,162.47 Z"
       id="path383"
       inkscape:connector-curvature="0"
       style="opacity:1;fill:#601986" />
    <path
       d="m 470.6,129.56 c 0.69,0.07 2.06,0.2 2.75,0.26 7.12,4.46 12.67,11.44 14.92,19.59 1.23,7.77 1.16,15.78 -0.51,23.47 -1.87,5.06 -2.95,10.53 -6.16,14.97 -0.31,0.47 -0.93,1.4 -1.24,1.86 -2.44,-0.25 -4.89,-0.41 -7.33,-0.49 -0.25,-1.34 -0.52,-2.67 -0.81,-3.99 -2.85,0.63 -3.72,3.64 -5.18,5.77 -4.91,7.91 -8.14,16.76 -13.03,24.65 1.07,-1.81 1.94,-3.71 2.74,-5.65 l -1.34,0.31 c -2.79,0.56 -5.56,1.19 -8.32,1.82 -2.11,-8.02 -5.81,-15.5 -7.94,-23.5 0.76,-8.56 -0.42,-17.18 -2.97,-25.37 4.67,4.78 11.96,7.81 18.53,5.49 6.98,-2.43 11.18,-9.12 14.37,-15.36 4.99,-6.95 4.22,-16.15 1.52,-23.83 z"
       id="path385"
       inkscape:connector-curvature="0"
       style="opacity:1;fill:#601986" />
    <path
       d="m 534.62,165.37 c 7.65,-2.61 16.03,-0.97 23.29,2.08 12.47,5.54 21.05,17.27 25.89,29.7 1.34,4.17 3.74,8.06 4.13,12.5 0.2,3.03 0.73,6.03 1.84,8.87 2.02,10.78 2,22.07 -0.42,32.8 -1.86,9.01 -5.75,17.4 -9.27,25.85 -6.07,13.11 -12.97,25.88 -21.12,37.82 -0.98,1.28 -1.9,3.01 -3.76,2.95 1.59,-7.23 4.45,-14.06 6.36,-21.19 2.4,-6.46 3.62,-13.24 5.55,-19.83 6.01,-21.14 6.62,-44.66 -2.42,-65.04 -2.12,-5.38 -4.71,-10.7 -8.49,-15.13 -2.47,-3.05 -6.4,-4.46 -10.15,-5.08 -4.61,0.03 -9.61,2.89 -10.62,7.68 -1.38,3.34 0.18,6.7 1.34,9.83 0.68,0.3 2.04,0.89 2.72,1.19 0.03,0.3 0.09,0.9 0.12,1.2 0.18,-0.04 0.52,-0.11 0.69,-0.14 -1.23,-3.01 -0.69,-6.23 0.21,-9.25 2.95,-4.3 9.36,-2.51 12.32,0.93 5.28,5.62 7.91,14.59 4.29,21.77 -1.78,4.07 -5.93,6.33 -9.69,8.28 -6.93,2.16 -15.19,1.97 -21.24,-2.4 -6.68,-4.05 -10.72,-11.07 -13.49,-18.15 -1.95,-7.79 -1.52,-16.03 0.05,-23.85 3.39,-10.37 10.94,-20.39 21.87,-23.39 z"
       id="path387"
       inkscape:connector-curvature="0"
       style="opacity:1;fill:#601986" />
    <path
       d="m 482.66,224.31 c 0.38,-0.07 1.13,-0.21 1.5,-0.28 22.41,6.23 38.51,26.8 43.66,48.89 1.39,10.06 1.54,20.84 -2.74,30.28 -4.31,12.11 -14,21.62 -25,27.87 -8.77,5.19 -18.8,7.72 -28.8,9.16 -10.92,0.24 -21.84,0.15 -32.66,-1.53 -1.95,-4.91 -3.93,-10.28 -1.9,-15.53 2.84,-7.46 8.52,-13.35 13.82,-19.15 l -0.56,2.16 c 9.45,-4.72 18.25,-11.23 23.97,-20.25 3.61,-4.78 4.25,-11.14 3.48,-16.91 -0.72,-5.68 -3.09,-11.95 -8.26,-14.94 2.19,-3.37 4.56,-6.82 4.5,-11.03 0.67,-2.37 1.46,-4.71 2.09,-7.09 1.38,0.77 2.81,1.48 4.24,2.18 14.76,9.74 24.18,28.4 19.7,46.05 -0.4,1.56 -0.75,3.12 -1.12,4.69 0.68,-0.89 1.4,-1.76 2.04,-2.68 6.26,-8.28 8.5,-19.46 5.76,-29.49 -3.3,-13.41 -12.69,-24.47 -23.72,-32.4 z"
       id="path389"
       inkscape:connector-curvature="0"
       style="opacity:1;fill:#601986" />
    <path
       d="m 543.19,263.94 c 1.37,-5.6 1.14,-11.4 1.9,-17.09 3.37,6.21 3.42,13.4 4.9,20.16 1.87,9.18 2.21,18.61 1.37,27.93 -2.5,19.1 -7.18,38.38 -17.94,54.63 -10.22,15.31 -25.95,26.58 -43.37,32.28 -18.9,5.73 -38.92,7.26 -57.42,14.37 0.96,-15.82 9.67,-30.46 7.97,-46.57 3.27,0.03 6.55,0.12 9.82,0.41 11.14,2.02 22.49,0.96 33.54,-1.09 23.24,-5.94 43.97,-24.12 50.11,-47.69 0.97,-2.38 1.78,-4.82 2.24,-7.36 0.9,-5.1 3.41,-9.78 3.96,-14.97 0.63,-5.06 1.8,-10.04 2.92,-15.01 z"
       id="path391"
       inkscape:connector-curvature="0"
       style="opacity:1;fill:#601986" />
    <path
       d="m 595.54,266.15 c 0.22,0.03 0.67,0.09 0.89,0.12 5.81,21.71 3.09,44.97 -4.29,65.93 -3.44,8.59 -8.23,16.68 -14.34,23.65 -9.5,9.75 -20.73,17.63 -32.47,24.44 -7.71,4.27 -13.97,11.29 -16.64,19.74 -0.44,4.48 -0.92,9.54 1.75,13.46 1.59,2.86 3.88,5.24 6.36,7.34 3.84,3.08 9.53,2.78 13.7,0.51 3.1,-1.63 6.1,-4.13 7.03,-7.66 3.53,-6.73 -5.38,-16.37 -12.22,-12.37 -2.83,3.41 -4.88,8.11 -3.04,12.52 -4.93,-4.12 -7.29,-11.57 -5.09,-17.78 1.12,-2.09 2.62,-3.94 3.83,-5.97 2.62,-1.68 4.87,-4.03 7.9,-5.01 9.85,-4.11 21.88,-0.71 28.76,7.28 6.15,6.34 7,15.9 5.7,24.24 -2.96,12.53 -11.41,23.85 -22.88,29.83 -5.8,3.62 -12.71,4.94 -19.36,6.08 -19.44,0.28 -37.37,-15.26 -40.59,-34.31 -0.65,-6.63 -0.81,-13.63 1.92,-19.85 2.28,-5.33 5.33,-10.39 9.16,-14.75 7.99,-7.97 17.11,-14.67 25.83,-21.8 7.34,-4.97 13.86,-11.01 20.35,-17.02 4.99,-5.38 10.44,-10.42 14.41,-16.64 9.55,-13.53 14.94,-29.37 19.67,-45.07 0.86,-5.72 2.97,-11.16 3.66,-16.91 z"
       id="path393"
       inkscape:connector-curvature="0"
       style="opacity:1;fill:#601986" />
    <path
       d="m 65.81,288.03 c 7.98,-3.23 16.75,-2.54 25.16,-2.43 6.65,0.12 12.94,2.4 19.19,4.4 9.34,3.96 18.49,8.79 25.98,15.74 3.48,2.89 6.05,6.71 9.68,9.43 -0.49,-2.3 -1.31,-4.51 -2.54,-6.5 3.09,3.68 4.22,8.86 2.79,13.47 -3.54,9.37 -10.06,17.3 -13.39,26.76 -6.4,-10.67 -17.04,-18.27 -28.74,-22.15 -4.76,-1.73 -9.96,-1.76 -14.93,-1.19 -9,2.01 -17.03,8.94 -19.14,18.11 -1.11,3.84 -1.34,8.22 0.8,11.76 2.95,5.58 8.68,10.44 15.3,10.11 7.06,0.59 12.83,-5.52 14.56,-11.91 1.18,-3.71 0.26,-7.58 -0.44,-11.27 2.9,1.89 6.04,3.52 8.46,6.05 4,4.05 6.55,9.27 8.6,14.5 1.48,8.59 1.82,18.05 -2.26,26.01 -4.34,10.4 -14.2,17.69 -24.71,21.07 -9.57,3.84 -20.68,3.85 -30.29,0.13 -11.27,-3.75 -21.33,-11.1 -28.49,-20.56 -4.23,-5.53 -6.64,-12.14 -8.97,-18.61 -1.24,-7.21 -2.25,-14.6 -1.63,-21.92 0.73,-6.06 0.76,-12.35 3.38,-17.98 6.26,-19.64 21.63,-36.9 41.63,-43.02 z"
       id="path395"
       inkscape:connector-curvature="0"
       style="opacity:1;fill:#601986" />
    <path
       d="m 134.67,352.78 c 4.81,-2.92 9.29,-6.94 15.01,-7.88 1.4,9.9 4.34,19.49 6.79,29.16 2.88,13.3 -0.93,26.7 -2.1,39.95 -0.23,5.36 -0.51,11.85 3.58,15.91 1.75,-1.25 3.37,-2.66 5.18,-3.81 -2,1.7 -3.61,3.79 -5.09,5.95 -8.08,11.82 -19.46,21.02 -31.69,28.28 -7.6,4.36 -15.84,7.62 -24.36,9.7 -9.68,3.08 -19.96,3.13 -30,2.53 -18.14,-2.14 -35.5,-11.19 -47.14,-25.35 -8.67,-9.91 -13.33,-22.6 -16.54,-35.19 -2.43,-8.12 -3.07,-16.64 -3.72,-25.05 0.03,-4.45 -0.63,-9.03 0.7,-13.35 9.07,22.48 25.39,42.72 47.23,53.81 3.86,2.16 8.27,2.97 12.34,4.65 20.5,4.94 43.11,-1.35 58.45,-15.72 16.32,-16.06 22.24,-42.97 11.36,-63.59 z"
       id="path397"
       inkscape:connector-curvature="0"
       style="opacity:1;fill:#601986" />
    <path
       d="m 449.21,411.19 c 4.51,-2.55 9.84,-2.05 14.82,-1.96 5.17,-0.01 9.78,2.64 14.5,4.42 16.72,8.66 29.84,24.74 33.54,43.37 1.99,13.26 0.75,27.52 -6.53,39.09 1.98,4.37 3.01,9.05 4.14,13.7 10.71,-10.54 20.41,-22.29 27.32,-35.7 0.99,-2.05 2.47,-3.79 3.98,-5.47 -0.19,4.78 -1.38,9.43 -3.26,13.81 -5.52,18.22 -15.92,34.68 -28.49,48.82 -3.03,12.55 -7.78,24.91 -15.74,35.2 -0.94,1.22 -2.22,3.36 -0.39,4.43 9.13,6.49 17.92,13.46 26.95,20.1 10.06,7.85 20.65,15.07 30.42,23.28 -5.82,0.41 -11.66,0.13 -17.48,0.2 -28.99,-0.04 -57.97,0.08 -86.96,-0.05 -6.59,-6.17 -12.4,-13.16 -19.32,-18.98 -0.31,6.35 0.09,12.71 -0.25,19.06 -20.64,-0.08 -41.27,0.01 -61.9,-0.05 -0.01,-1.84 -0.02,-3.67 -0.02,-5.5 -1.45,0.24 -2.9,0.48 -4.31,0.83 -13.95,4.29 -28.8,3.82 -43.17,2.58 -5.6,10.41 -10.42,21.23 -16.04,31.63 h -0.78 c -13.01,-13.48 -26.42,-26.57 -39.64,-39.84 -0.13,-6.74 0.5,-13.6 -0.32,-20.26 -4.31,-5.08 -9.38,-9.53 -13.11,-15.09 -2.51,-3.91 -5.71,-7.45 -7.19,-11.92 6.59,5.12 13.19,10.39 20.65,14.2 0.02,-12.98 0.01,-25.96 0.01,-38.95 -3.62,0.12 -7.02,1.48 -10.59,1.88 -7.19,0.83 -14.36,1.81 -21.52,2.83 -0.22,-0.9 -0.68,-2.7 -0.9,-3.6 -0.04,-0.25 -0.11,-0.74 -0.15,-0.98 -0.54,0.01 -1.61,0.03 -2.15,0.04 -0.55,0.94 -0.66,1.93 -0.32,2.99 l 0.36,0.2 c 3.84,2.58 5.17,7.3 6.81,11.37 3.18,11.08 1.12,23.59 -5.64,32.97 -3.13,3.69 -0.85,8.93 -2.66,13.16 -3.52,12.66 -16.46,20.26 -28.91,21.48 -35.27,-0.02 -70.54,0.05 -105.81,-0.04 -0.69,-29.67 0.24,-59.38 -0.43,-89.05 l -0.94,-0.04 c -22.23,-0.11 -44.48,0.26 -66.7,-0.19 3.03,-2.76 6.69,-4.66 9.96,-7.09 22.83,-15.14 45.54,-30.48 68.39,-45.56 14.01,0.48 28.04,0.22 42.05,0.16 l 0.08,-0.86 c 0.39,-13.73 9.86,-26.91 23.07,-30.99 5.34,-1.31 10.69,-2.91 16.26,-2.78 0.3,1.02 0.62,2.05 0.97,3.07 1.61,3.25 3.68,6.27 5.88,9.15 2.58,3.34 6.56,5.02 10.11,7.1 4.78,2.64 8.26,6.96 12.36,10.48 4.25,3.73 3.87,10.23 7.86,14.14 1.43,1.46 3.21,3.86 5.52,2.46 6.7,-3.98 13.79,-7.26 20.46,-11.28 3.18,-2.23 7.21,-1.21 10.82,-1.37 -0.2,-0.65 -0.58,-1.96 -0.78,-2.61 0.7,0.85 1.43,1.68 2.15,2.53 27.08,0.09 54.15,0.01 81.23,0.03 12.04,0.08 24.09,0.12 36.14,0.06 2.22,-2.83 4.81,-5.53 8.32,-6.69 3.08,-1.44 7.7,-2.98 7.52,-7.13 -0.09,-4.63 2.6,-9.29 6.99,-11.01 3.61,3.84 7.73,7.17 11.58,10.76 0.87,-3.97 1.75,-7.95 3.09,-11.8 2.16,-6.23 3.24,-12.79 5.76,-18.9 -1.21,6.06 -4.45,11.76 -4.26,18.05 1.33,8.41 7.53,15.54 14.98,19.36 6.32,2.39 13.68,3.23 19.94,0.18 3.93,-2.28 6.66,-6.35 7.86,-10.67 1.12,-6.04 -2.78,-11.82 -7.76,-14.86 -0.05,2.82 0.55,5.95 -1.15,8.44 -2.99,5.13 -11.5,3.95 -13.99,-1.05 -4.35,-7.43 -2.97,-17.19 2.14,-23.9 3.95,-4.8 8.65,-9.18 14.57,-11.39 m -210.26,85.4 c -1.85,1.09 -4.48,1.59 -5.63,3.48 0.33,2.98 2.21,5.5 3.1,8.32 0.91,2.89 2.04,5.7 3.37,8.42 2.75,-0.01 5.5,-0.11 8.24,-0.39 2.75,-2.4 5.93,-4.23 8.79,-6.5 1.59,-1.01 3.11,-2.59 5.14,-2.46 29.05,0.03 58.1,-0.05 87.16,0.03 3.16,-5.86 6.64,-11.66 8.79,-17.98 -35.3,0.06 -70.61,-0.08 -105.91,0.08 -4.38,2.1 -8.78,4.56 -13.05,7 m 142.98,-6.95 c -3.37,6.33 -8.4,11.59 -11.91,17.83 21,-0.03 42,0.03 63,-0.03 3.96,-0.2 7.68,1.39 11.46,2.34 5.86,2.56 12.02,6.53 13.72,13.13 3.15,9.01 -1.88,18.21 -6.89,25.48 -6.75,8.44 -15.04,15.67 -24.24,21.32 2.25,3.41 5.73,5.74 8.43,8.79 5.77,6.2 12.2,11.77 17.78,18.14 14.62,0.12 29.25,0.13 43.88,-0.01 -1.24,-1.73 -3.1,-2.79 -4.75,-4.03 -7.75,-5.93 -15.6,-11.71 -23.35,-17.63 -2.04,-1.82 -5.24,-2.69 -6.03,-5.58 3.62,-1.11 6.46,-3.71 9.41,-5.96 8.65,-8.15 14.63,-18.9 17.71,-30.32 2.81,-9.51 3.23,-20.09 -0.8,-29.31 -3.86,-9.41 -14.43,-15.26 -24.41,-14.28 -27.67,0.08 -55.35,-0.15 -83.01,0.12 M 83.63,504.4 c -1.34,0.88 -2.87,1.56 -3.82,2.94 27.39,0.31 54.79,-0.02 82.18,0.16 4.58,0.17 9.13,1.01 13.59,2.04 4,1.65 7.94,4.47 9.79,8.5 0.67,5.12 1.06,10.84 -1.77,15.43 -1.47,2.59 -2.38,5.51 -4.31,7.83 3.99,3.83 8.83,6.66 13.24,9.99 1.33,1.31 2.63,-0.22 3.47,-1.23 5.39,-6.76 10.24,-14.04 13.36,-22.13 2.35,-7.66 4.45,-15.96 1.94,-23.85 -0.98,-4.43 -3.82,-8.25 -7.55,-10.75 -3.74,-1.72 -7.47,-4.18 -11.76,-3.83 -28.72,0.09 -57.44,-0.07 -86.15,0.08 -7.4,4.95 -14.75,9.96 -22.21,14.82 m 22.01,12.14 c -0.15,26.66 0.07,53.32 -0.11,79.99 17.81,0.43 35.65,0.07 53.47,0.19 12.33,-0.16 24.68,0.33 36.99,-0.24 3.97,-1.69 9.05,-3.3 10.46,-7.87 1.56,-3.48 0,-7.27 -1.17,-10.63 -5.22,-9.48 -13.66,-16.51 -21.82,-23.36 -1.67,-1.32 -3.29,-2.8 -5.31,-3.53 -1.15,-1.66 -2.98,-2.58 -4.55,-3.75 -6.75,-4.74 -13.97,-8.77 -21.49,-12.16 4.21,3.41 8.93,6.14 13.05,9.68 3.86,2.82 7.07,6.43 10.94,9.24 1.96,3.55 5.46,6.19 6.34,10.35 1.71,3.24 0.54,7.56 -2.47,9.6 -4.1,3.41 -9.74,3.42 -14.73,4.42 -10.95,0.49 -21.92,0.11 -32.88,0.2 0.07,-20.71 0.02,-41.42 0.02,-62.12 -8.91,-0.07 -17.82,-0.05 -26.74,-0.01 m 172.71,80.1 c 6.18,5.55 11.41,12.12 17.88,17.33 4.52,-9.16 9.27,-18.21 13.58,-27.47 1.55,-3.03 4,-5.9 3.78,-9.5 -0.03,-20.18 0.14,-40.35 -0.09,-60.53 -11.68,0.05 -23.36,0.06 -35.04,-0.01 -0.36,26.72 -0.14,53.46 -0.11,80.18 m 103.96,0.07 c 8.82,0.01 17.63,0 26.45,0.01 0.07,-26.72 -0.04,-53.44 0.06,-80.16 -8.79,-0.18 -17.58,0.08 -26.36,-0.12 -0.32,26.76 -0.02,53.52 -0.15,80.27 M 331.65,525.4 c 0.04,3.09 0.05,6.18 0.01,9.27 3.33,-0.98 6.76,-2.02 10.27,-1.78 9.55,0.89 16.79,10.7 15.81,20.07 -0.81,8.87 -5.84,17.79 -14.02,21.78 -3.42,2.5 -7.8,2.27 -11.76,3.1 -0.59,2.01 0.1,4.3 -0.94,6.19 -1.12,2 -1.96,4.15 -2.64,6.34 9.17,-1.16 18.48,-3.4 26.15,-8.78 3.96,-2.43 6.8,-6.19 9.94,-9.53 0.06,-12.66 0.16,-25.32 -0.04,-37.98 -3.03,-3.33 -6.25,-6.71 -10.42,-8.6 -7.44,-0.26 -14.91,-0.03 -22.36,-0.08 m 94.94,0 c -0.02,3.61 -0.02,7.22 0.08,10.83 3.4,0.78 6.86,1.24 10.35,1.41 1.19,-1.82 2.61,-3.54 3.37,-5.59 0.37,-1.74 1.17,-4.57 -1.27,-5.08 -3.8,-2.25 -8.34,-1.54 -12.53,-1.57 m -95.26,10.85 c -0.42,6.55 -0.19,13.15 -0.15,19.72 -0.4,1.98 2.14,0.95 2.92,0.36 4.05,-2.79 7.82,-7.85 6.46,-13.01 -1.63,-3.22 -4.63,-5.65 -7.94,-7.03 l 0.17,-0.73 c -0.37,0.17 -1.09,0.52 -1.46,0.69 z"
       id="path399"
       inkscape:connector-curvature="0"
       style="opacity:1;fill:#601986" />
  </g>
  <g
     id="#601985ff"
     transform="matrix(0.07453416,0,0,0.07453416,1.6557044,2.3e-7)">
    <path
       d="m 292.07,8.33 c 11.98,-2.9 25.26,-0.11 34.5,8.17 4.83,4.24 7.67,10.1 10.47,15.76 4.6,-2 8.9,-4.91 13.97,-5.64 19.76,-3.41 40.2,15.33 37.77,35.4 0.13,3.38 -2.22,6.67 -0.95,9.98 -2.26,-2.67 -4.39,-5.45 -6.69,-8.08 -0.07,5.21 2.4,9.96 2.74,15.11 -4.68,-4.98 -9.53,-9.8 -14.92,-14 -0.3,-1.96 -0.9,-3.89 -2.38,-5.28 -3.04,-2.19 -6.21,-5.85 -10.34,-4.97 -14.23,-10.1 -28.83,-19.7 -43.01,-29.87 -0.13,4.31 2.45,8.01 2.62,12.26 -5.32,-5.75 -8.69,-12.93 -12.45,-19.73 -0.25,-0.04 -0.77,-0.12 -1.03,-0.16 -1.92,2.17 -2.52,5.68 -5.39,6.84 -1.95,-5.16 -2.78,-10.68 -4.91,-15.79 z"
       id="path402"
       inkscape:connector-curvature="0"
       style="opacity:1;fill:#601985" />
    <path
       d="m 138.74,283.74 c 1.16,-2.44 3.8,-3.49 6.09,-4.57 2.07,1.88 4.47,3.94 4.78,6.92 0.45,4.6 0.93,10.18 -3,13.5 -1.73,2.55 -5,1.7 -7.59,1.88 0.6,1.24 1.22,2.47 1.86,3.69 -1.32,-1.96 -2.65,-3.9 -4.12,-5.75 1.67,0.56 3.33,1.12 5,1.66 -3.69,-4.96 -4.6,-11.42 -3.02,-17.33 z"
       id="path404"
       inkscape:connector-curvature="0"
       style="opacity:1;fill:#601985" />
  </g>
  <g
     id="#000000ff"
     transform="matrix(0.07453416,0,0,0.07453416,1.6557044,2.3e-7)">
    <path
       d="m 291.45,9.27 c 0.16,-0.24 0.47,-0.71 0.62,-0.94 2.13,5.11 2.96,10.63 4.91,15.79 2.87,-1.16 3.47,-4.67 5.39,-6.84 0.26,0.04 0.78,0.12 1.03,0.16 3.76,6.8 7.13,13.98 12.45,19.73 -0.17,-4.25 -2.75,-7.95 -2.62,-12.26 14.18,10.17 28.78,19.77 43.01,29.87 3.47,2.6 6.96,5.16 10.2,8.04 0.83,0.74 1.66,1.48 2.52,2.21 5.39,4.2 10.24,9.02 14.92,14 -0.34,-5.15 -2.81,-9.9 -2.74,-15.11 2.3,2.63 4.43,5.41 6.69,8.08 0.37,0.42 1.12,1.27 1.49,1.69 -0.77,1.79 0.68,3.88 2.68,3.42 0.27,0.5 0.8,1.51 1.07,2.02 4.73,5.96 8.43,12.63 12.83,18.82 2.81,4.35 5.68,8.7 7.89,13.38 4.2,9.5 10.91,18.15 12.3,28.69 0.75,4.49 1.86,8.91 3.26,13.24 0.77,-1.9 1.48,-3.83 2.09,-5.79 1.26,4.1 1.65,8.36 1.92,12.62 -12.91,-8.25 -26.69,-15.32 -41.33,-19.92 -6.24,-2.56 -13.01,-3.35 -19.39,-5.52 -8.59,-1.47 -17.26,-2.53 -25.89,-3.69 -12.2,-0.97 -24.52,-0.54 -36.59,1.42 -2.68,0.27 -3.94,3.15 -3.68,5.55 0.07,5.95 1.89,13.6 8.35,15.47 17.03,0.16 34.15,0.68 50.93,3.91 8.54,0.8 16.67,3.6 24.94,5.69 13.58,4.62 27.37,9.64 38.85,18.48 3.25,2.31 5.17,6.91 9.6,7.15 2.13,8 5.83,15.48 7.94,23.5 0.52,2.01 0.96,4.04 1.41,6.07 -3.03,1.48 -6.32,2.56 -8.99,4.68 -0.44,0.38 -1.32,1.16 -1.76,1.54 -0.08,0.09 -0.24,0.27 -0.32,0.36 -1.19,1.48 -2.36,2.98 -3.47,4.52 -2.02,2.48 -2.84,5.63 -3.51,8.69 -0.75,2.97 -1.16,6.01 -1.36,9.07 4.54,-4.19 8.64,-8.84 12.35,-13.78 5.74,-4.07 8.99,-10.32 11.89,-16.53 0.08,-0.14 0.24,-0.4 0.33,-0.54 l 0.35,-0.56 c 4.89,-7.89 8.12,-16.74 13.03,-24.65 1.46,-2.13 2.33,-5.14 5.18,-5.77 0.29,1.32 0.56,2.65 0.81,3.99 0.15,1.6 0.23,3.21 0.27,4.83 0.02,2.47 -0.11,4.94 -0.27,7.41 -0.72,-1.07 -1.42,-2.13 -2.09,-3.23 -0.31,-0.54 -0.93,-1.61 -1.24,-2.15 -0.93,0.44 -2.18,0.52 -2.72,1.52 -1.97,3.37 -3.77,6.84 -5.73,10.21 -1.1,3.24 -2.6,6.32 -4.4,9.22 -0.63,1 -0.83,2.09 -0.58,3.27 -0.96,0.68 -1.48,1.61 -1.57,2.78 -1.82,3.45 -3.21,7.1 -4.59,10.75 1.6,-3.59 3.26,-7.15 5.42,-10.44 0.8,-0.75 1.28,-1.68 1.44,-2.77 0.22,-0.32 0.65,-0.97 0.87,-1.29 1.73,-2.73 3.17,-5.61 4.66,-8.47 0.06,-0.11 0.19,-0.32 0.25,-0.42 0.27,-0.43 0.81,-1.29 1.08,-1.72 1.25,-1.98 2.46,-3.98 3.84,-5.88 0.59,1.01 1.17,2.04 1.73,3.07 0.21,2.74 -0.03,5.5 -0.61,8.19 -0.17,6 -2.08,11.64 -3.88,17.29 -2.05,7.49 -5.69,14.42 -8.89,21.46 -0.78,1.44 -1.6,2.87 -2.45,4.27 -3.87,7.24 -9.09,13.56 -14.57,19.62 6.14,-5.67 11.51,-12.11 16.58,-18.73 1.34,-1.94 2.73,-3.84 4.17,-5.71 3.78,-6.19 7.68,-12.49 9.68,-19.52 0.49,0.63 0.98,1.27 1.47,1.92 -0.59,6.22 -3.09,12.03 -5.82,17.58 -0.91,2.11 -2.04,4.12 -3.38,6 -4.02,6.05 -8.82,11.55 -12.77,17.64 5.57,-4.9 10.86,-10.29 14.93,-16.52 1.11,-1.85 2.21,-3.71 3.41,-5.5 0.24,0.75 0.73,2.26 0.97,3.01 -0.77,1.43 -1.73,2.75 -2.62,4.11 -2.05,3.46 -5.51,6.63 -5.26,10.97 -0.13,4.15 3.08,7.73 2.32,11.94 -0.58,2.79 -1.6,5.48 -2.72,8.1 -1.26,2.06 -2.82,3.92 -3.98,6.05 -2.26,-0.11 -4.28,1.81 -3.66,4.14 -0.44,0.45 -1.34,1.35 -1.78,1.8 -5.3,5.8 -10.98,11.69 -13.82,19.15 -2.03,5.25 -0.05,10.62 1.9,15.53 1.25,3.52 1.74,7.24 1.98,10.95 1.7,16.11 -7.01,30.75 -7.97,46.57 -1.01,10.93 -3.18,21.73 -4.47,32.64 -0.27,-0.33 -0.81,-0.97 -1.08,-1.29 -1.52,-3.64 -2.75,-7.51 -5.31,-10.58 -0.48,-0.75 -1.09,-0.85 -1.83,-0.29 -1.61,3.09 -2.28,6.54 -2.94,9.93 l -0.12,0.4 c -2.52,6.11 -3.6,12.67 -5.76,18.9 -1.34,3.85 -2.22,7.83 -3.09,11.8 -3.85,-3.59 -7.97,-6.92 -11.58,-10.76 -4.39,1.72 -7.08,6.38 -6.99,11.01 0.18,4.15 -4.44,5.69 -7.52,7.13 -3.51,1.16 -6.1,3.86 -8.32,6.69 -12.05,0.06 -24.1,0.02 -36.14,-0.06 5.7,-6.59 9.13,-14.69 13.66,-22.03 0.81,3.46 1.44,6.96 2.02,10.46 8.93,-8.9 14.45,-20.54 18.85,-32.19 2.02,-7.87 4.29,-15.78 4.46,-23.97 1.02,-26.63 -11.1,-53.84 -32.65,-69.8 -1.96,1.7 -2.27,4.26 -2.87,6.62 -2.37,5.07 -5.98,9.41 -9.67,13.55 2.18,-10.29 4.95,-21.36 0.87,-31.56 -3.31,-6.73 -10.47,-11.55 -18.03,-11.46 -6.96,0.52 -12.59,5.09 -17.95,9.1 -5.34,-5.22 -12.42,-9.52 -20.15,-8.89 -6.5,0.85 -13.14,4.48 -15.91,10.66 -2.78,4.79 -1.93,10.58 -1.28,15.82 1.28,5.79 2.62,11.58 2.92,17.53 -7.69,-6.12 -9.02,-16.56 -9.23,-25.75 -12.86,8.14 -22.35,20.76 -28.45,34.54 -8.85,20.56 -11.47,43.95 -6.26,65.8 3.12,11.6 8.62,22.87 17.67,31 0.22,-5.93 -1.12,-11.78 -0.91,-17.7 6.78,8.36 12.85,17.27 19.53,25.71 0.2,0.65 0.58,1.96 0.78,2.61 -3.61,0.16 -7.64,-0.86 -10.82,1.37 -6.67,4.02 -13.76,7.3 -20.46,11.28 -2.31,1.4 -4.09,-1 -5.52,-2.46 -3.99,-3.91 -3.61,-10.41 -7.86,-14.14 -4.1,-3.52 -7.58,-7.84 -12.36,-10.48 -3.55,-2.08 -7.53,-3.76 -10.11,-7.1 -2.2,-2.88 -4.27,-5.9 -5.88,-9.15 -1.26,-8.01 -2.8,-15.97 -4.47,-23.91 l -0.75,-0.42 -0.12,0.08 c -3.97,2.44 -7.57,5.41 -11.31,8.19 -0.71,0.33 -1.4,0.68 -2.09,1.06 -1.81,1.15 -3.43,2.56 -5.18,3.81 -4.09,-4.06 -3.81,-10.55 -3.58,-15.91 1.17,-13.25 4.98,-26.65 2.1,-39.95 -2.45,-9.67 -5.39,-19.26 -6.79,-29.16 -5.72,0.94 -10.2,4.96 -15.01,7.88 -0.56,0.24 -1.7,0.72 -2.26,0.96 0.05,-1.62 0.1,-3.24 0.27,-4.84 3.33,-9.46 9.85,-17.39 13.39,-26.76 1.43,-4.61 0.3,-9.79 -2.79,-13.47 -0.81,-1.17 -1.64,-2.32 -2.4,-3.51 -0.64,-1.22 -1.26,-2.45 -1.86,-3.69 2.59,-0.18 5.86,0.67 7.59,-1.88 3.93,-3.32 3.45,-8.9 3,-13.5 -0.31,-2.98 -2.71,-5.04 -4.78,-6.92 -4.09,-2.04 -7.92,1.89 -9.42,5.39 -2.2,4.86 -0.52,10.19 1.35,14.85 -0.62,-0.79 -1.24,-1.59 -1.83,-2.4 -2.31,-4.28 -5.73,-8.15 -6.39,-13.14 -1.09,-4.54 2.62,-8.42 2.17,-12.93 0.04,-3.39 -1.94,-6.27 -3.65,-9.03 -3.04,-4.75 -5.34,-9.92 -7.61,-15.07 -2.64,-5.97 -2.56,-12.73 -1.58,-19.06 0.09,-0.52 0.26,-1.55 0.35,-2.06 0.01,-13.05 -3.42,-25.77 -3.88,-38.79 6.52,2.88 8.71,10.51 13.21,15.57 1.28,2.04 2.55,4.11 3.47,6.36 0.25,1.79 1.28,3.3 2.9,4.14 0.37,0.67 1.12,2 1.49,2.67 3.48,6.04 7.25,12.09 13.09,16.15 3.24,2.8 6.13,5.98 8.86,9.27 1.43,1.88 3.08,3.58 5.03,4.94 -0.01,-3.09 0.02,-6.24 -0.97,-9.2 -0.79,-2.31 -1.9,-4.49 -3.03,-6.65 -2.63,-5.26 -7.78,-8.39 -12.98,-10.67 -0.49,-6.2 0,-12.49 0.7,-18.66 0.9,-6.23 1.47,-12.53 3.07,-18.64 0.38,-0.27 1.15,-0.8 1.53,-1.07 2.44,-2 4.39,-4.53 6.92,-6.44 7.3,-5.75 16.17,-8.94 24.86,-11.92 8.09,-2.04 16.09,-4.65 24.43,-5.46 16.8,-3.42 34.03,-3.9 51.12,-3.68 3.16,-0.01 6.4,0.4 9.52,-0.33 3.57,-1.58 5.91,-5.07 6.61,-8.85 0.67,-3.48 2.36,-7.85 -0.33,-10.88 -0.11,-0.05 -0.33,-0.16 -0.43,-0.21 -5.41,-2.51 -11.55,-2.61 -17.36,-3.46 -16.67,-0.7 -33.63,-1.29 -49.95,2.83 -7.94,0.77 -15.34,3.75 -22.93,5.96 -8.86,3.39 -17.88,6.88 -25.44,12.75 -0.59,0.43 -1.15,0.87 -1.7,1.34 2.67,-10.8 6.91,-21.12 10.45,-31.65 3.67,-8.66 6.6,-17.65 10.82,-26.06 1,3.66 2.38,7.19 3.98,10.63 4.18,-7.21 7.98,-14.67 13.28,-21.15 19.11,-24.87 46.72,-40.97 73.48,-56.33 -1.02,3.52 -3.14,6.53 -4.93,9.68 11.72,-6.71 23.34,-15.64 28.34,-28.64 m -78.84,165.52 c -0.11,0.23 -0.33,0.69 -0.44,0.92 2.93,0.91 5.94,1.55 8.92,2.28 -10.46,16.93 -23.05,32.66 -31.02,50.98 -1.33,5.38 -4.15,10.37 -4.38,16 -0.22,6.77 -1.61,13.42 -2.48,20.12 -1.71,9.35 -2.35,19.12 -0.56,28.51 2.09,6.89 4.19,14.09 9.27,19.44 1.1,1 1.87,2.22 2.3,3.66 -4.05,-0.87 -8.13,-1.66 -12.3,-1.55 7.95,4.78 15.64,10.15 24.39,13.41 4.41,1.32 9.09,1.12 13.64,1.05 8.74,0.07 16.82,-4.04 24.1,-8.49 5.35,-4.2 9.21,-9.78 12.35,-15.74 0.79,0.77 1.58,1.55 2.37,2.34 0.12,-0.68 0.35,-2.04 0.47,-2.71 0.71,0.44 2.1,1.36 2.65,0.2 6.19,-4.12 13.86,-4.59 21.04,-3.61 4.78,1.07 8.74,4.16 12.88,6.62 4.62,-3.91 9.86,-8 16.23,-8 8.21,-0.36 15.14,4.77 21.33,9.5 -0.11,-0.27 -0.35,-0.8 -0.47,-1.07 1.13,-1.08 2.25,-2.16 3.37,-3.24 3.81,9.27 11.68,16.2 20.66,20.32 3.83,1.85 7.81,3.72 12.16,3.81 6.01,0.3 12.27,0.62 18.04,-1.4 8.26,-3.2 16.29,-7.88 21.94,-14.8 -2.98,0.34 -5.81,1.52 -8.83,1.48 2.9,-6.49 7.37,-12.55 8.18,-19.8 0.52,-12.67 0.3,-25.36 0.16,-38.03 0.17,-10.25 -2.27,-20.35 -5.37,-30.04 -2.01,-3.22 -2.33,-7.23 -4.86,-10.15 -3.47,-6.55 -8.49,-12.02 -12.81,-18 -4.78,-6.99 -9.99,-13.73 -14.32,-21.02 2.39,-1.02 6.27,-0.53 7.68,-2.75 -8.06,-2.16 -16.66,-1.77 -24.95,-1.31 -8.2,0.48 -15.98,3.23 -23.97,4.86 -0.27,0.2 -0.83,0.59 -1.1,0.79 2.15,0.79 4.56,1.1 6.42,2.56 -7.61,2.89 -15.63,4.38 -23.34,6.94 -6.79,1.51 -13.64,3.97 -20.69,2.7 -6.07,-1.49 -12.26,-2.6 -18.13,-4.83 -5.45,-1.06 -10.67,-2.94 -16.01,-4.41 0.64,-2.5 4.29,-1.89 6.14,-3.11 -0.66,-0.53 -1.41,-0.84 -2.25,-0.95 -5.36,-1.05 -10.59,-2.69 -15.98,-3.62 -10.72,-1.63 -21.74,-1.85 -32.43,0.14 m -94.33,27.18 c 0.05,6.84 2.37,13.39 3.36,20.12 0.1,0.59 0.29,1.78 0.38,2.37 -0.52,4.17 -1.95,8.28 -1.51,12.53 0.39,3.34 0.81,6.71 1.71,9.96 4.04,11.17 10.9,21.07 18.69,29.95 -2.89,-7.26 -7.75,-13.57 -10.55,-20.9 -1.96,-5.53 -4.94,-10.88 -5.05,-16.89 0.92,4.72 3.24,8.98 5.35,13.24 5.18,8.82 10.89,17.56 18.31,24.68 -2.84,-5.72 -6.42,-11.02 -9.32,-16.7 -5.75,-11.95 -13.43,-23.4 -14.87,-36.92 -0.56,-1.75 -1.03,-3.56 -2.19,-5.03 1.02,-4.2 -1.5,-8.61 -1.01,-13 2.14,0.42 3.42,2.38 5.1,3.6 l 0.01,0.27 c 2.41,2.75 5.44,5.15 6.93,8.56 -0.12,-0.57 -0.37,-1.69 -0.49,-2.25 -2.6,-2.43 -4.03,-5.78 -6.54,-8.28 -1.1,-3.45 -4.14,-6.09 -6.71,-8.56 -2,-0.58 -1.44,2.17 -1.6,3.25 m 324.47,77.91 c -7.51,4.08 -7.35,16.37 -0.92,21.44 1.94,0.67 4.03,0.39 6.03,0.25 2.06,-2.16 4.58,-4.46 4.62,-7.68 0.19,-3.35 0.53,-7 -1.16,-10.04 -1.57,-3 -5.15,-5.42 -8.57,-3.97 z"
       id="path407"
       inkscape:connector-curvature="0"
       style="opacity:1;fill:#000000" />
    <path
       d="m 471.51,227.16 c -0.05,-1.77 0.38,-3.5 1.22,-5.06 l 1.09,1.43 c 1.65,3.88 2.98,8.19 1.94,12.43 -0.63,2.38 -1.42,4.72 -2.09,7.09 -1.34,-2.99 -0.4,-6.27 -0.32,-9.4 -0.11,-1.52 -0.27,-3.08 -1,-4.45 l -0.68,-0.97 z"
       id="path409"
       inkscape:connector-curvature="0"
       style="opacity:1;fill:#000000" />
    <path
       d="m 295.75,368.2 c 0.47,5.41 4.6,10.52 10.31,10.66 4.99,-0.04 9.98,-0.45 14.97,-0.68 8.31,-1.19 16.87,0.12 25.05,-1.99 3.23,-0.79 6.64,-0.6 9.79,-1.77 -1.14,3.77 -6.45,3.91 -8.34,7.35 1.42,1.81 1.48,4.23 2.09,6.37 0.56,2.65 1.95,5.08 2.19,7.8 -0.27,2.1 -1.25,4.01 -2.01,5.96 -2.02,8.59 -6.06,16.52 -10.88,23.86 -2.13,3.49 -4.26,7.12 -4.7,11.27 -2.71,7.62 5.15,14.66 2.1,22.24 -0.96,2.27 -1.66,4.9 -4.09,6.06 -3.33,0.64 -5.66,3.85 -9.14,4.02 -16.39,0.07 -32.78,0 -49.16,0.03 -5.82,-0.04 -10.96,-3.22 -16.62,-4.04 -1.46,-3.71 -2.87,-7.47 -3.81,-11.35 -0.56,-2.82 2.1,-4.71 3.11,-7.07 2.09,-3.33 0.81,-7.33 0.65,-10.96 -0.63,-3 -0.51,-6.35 -2.43,-8.9 -3.32,-5.89 -8.29,-10.88 -10.12,-17.55 -2.1,-3.66 -3.78,-7.49 -5.11,-11.49 0.59,-4.81 1.05,-9.66 1.85,-14.44 -4.48,-2.15 -9.46,-3.55 -13.21,-6.98 0.39,0.16 1.17,0.49 1.56,0.66 18.42,3.34 37.19,2.05 55.79,2 3.04,-0.66 6.95,-1.34 8.24,-4.61 1.11,-1.98 1.69,-4.2 1.92,-6.45 m 33.41,14.72 c 0.2,2.62 0.3,5.29 1.17,7.8 2.34,5.65 -0.79,11.58 -0.74,17.42 2.64,-0.63 3.78,-3.26 5.56,-5.02 4.15,-4.24 6.08,-9.98 8.51,-15.26 0.85,-1.76 0.81,-3.75 1.06,-5.64 -5.2,0.06 -10.37,0.44 -15.56,0.7 m -59.43,3.8 c -1.68,2.45 -0.15,5.56 0.07,8.26 1.44,1.73 3.22,3.23 4.07,5.39 0.33,0.06 1,0.17 1.33,0.23 0.12,-1.55 0.26,-3.1 0.43,-4.64 0.3,-0.63 0.9,-1.89 1.2,-2.52 11.76,0.1 23.55,-0.09 35.27,0.81 3.39,-0.02 2.46,4.44 2.68,6.61 2.18,-1.16 3.4,-3.49 5.53,-4.74 0.67,-2.64 3.31,-5.99 1.07,-8.45 -6.26,-2.06 -12.78,-3.26 -19.35,-3.6 -6.34,-1.02 -12.68,0.4 -19.02,0.46 -4.54,-0.03 -8.86,1.45 -13.28,2.19 m -24.44,-2.33 c 0.27,3.44 0.28,7.16 2.64,9.94 1.95,4.76 5.03,8.93 6.87,13.76 1.78,0.92 3.43,2.06 5.07,3.2 0.16,-3.5 -1.77,-6.75 -1.25,-10.24 0.83,-5.27 1.1,-10.68 3.14,-15.68 -5.47,-0.76 -10.98,-0.63 -16.47,-0.98 m 39.57,43.66 c -2.11,-1.74 -3.75,-3.94 -5.27,-6.18 -2.2,5.89 0.21,12.2 3.49,17.17 2.06,2.95 5.75,3.93 9,4.97 -1.39,-1.66 -3.51,-3.02 -3.74,-5.35 2.47,0.93 4.95,1.93 7.59,2.27 -3.85,-5.44 -4.57,-12.71 -2.36,-18.94 2.76,3.71 7.48,5.65 9.26,10.12 1.88,2.74 -0.7,8.48 4.07,8.45 -1.15,1.29 -2.2,2.7 -2.96,4.28 4.83,-2.42 8.84,-7.29 8.82,-12.87 0.13,-3.19 0.42,-6.95 -2.19,-9.28 -2.74,0.29 -3.52,-2.68 -5.11,-4.25 -2.65,-2.79 -6.17,-4.52 -9.48,-6.39 -3.05,-1.76 -4.99,-4.88 -6.36,-8.04 -6.01,6.49 -5.94,15.81 -4.76,24.04 m 8.89,15.8 c 0.56,0.37 1.67,1.11 2.23,1.47 1.85,0.15 3.86,-2.39 2.07,-3.77 -1.81,-1.02 -2.99,1.46 -4.3,2.3 m 31.95,-0.33 c -0.49,2.45 -0.79,5.01 -1.86,7.3 -1.8,2.41 -4.18,4.33 -6.48,6.25 0.06,-0.72 0.16,-2.16 0.21,-2.88 -7.85,3.08 -16.43,1.81 -24.64,1.87 -6.78,-1.24 -14.2,1.38 -20.51,-2 0.09,0.92 0.27,2.76 0.37,3.69 -2.84,-2.75 -5.68,-5.5 -8.13,-8.59 -0.38,-1.73 -0.84,-3.43 -1.26,-5.13 -1.13,0.1 -1.89,0.89 -1.99,2.01 -0.61,2.39 -1.7,4.6 -2.77,6.81 1.13,2.43 1.71,5.08 2.07,7.73 2.72,0.93 5.8,4.51 8.58,1.81 0.42,0.45 1.26,1.35 1.68,1.8 15.02,0.06 30.04,-0.02 45.06,0.04 2.69,0.04 5.29,-0.82 7.98,-0.92 1.46,-0.67 2.94,-1.29 4.43,-1.91 0.73,-2.2 2.24,-4.06 2.96,-6.23 -0.55,-4.15 -1.89,-8.19 -4.15,-11.72 -0.39,0.02 -1.16,0.06 -1.55,0.07 z"
       id="path411"
       inkscape:connector-curvature="0"
       style="opacity:1;fill:#000000" />
  </g>
  <g
     id="#1e162240"
     transform="matrix(0.07453416,0,0,0.07453416,1.6557044,2.3e-7)">
    <path
       d="m 356.24,54.78 c 4.13,-0.88 7.3,2.78 10.34,4.97 0.03,1.03 -0.01,2.05 -0.14,3.07 -3.24,-2.88 -6.73,-5.44 -10.2,-8.04 z"
       id="path414"
       inkscape:connector-curvature="0"
       style="opacity:0.25;fill:#1e1622" />
  </g>
  <g
     id="#ffffffff"
     transform="matrix(0.07453416,0,0,0.07453416,1.6557044,2.3e-7)">
    <path
       d="m 443.83,59.52 c 2.77,-1.84 6.17,-1.28 9.29,-0.97 -0.75,0.7 -1.66,1.16 -2.66,1.36 -1.81,-2.19 -4.45,-1.48 -6.63,-0.39 z"
       id="path417"
       inkscape:connector-curvature="0"
       style="opacity:1;fill:#ffffff" />
    <path
       d="m 212.61,174.79 c 10.69,-1.99 21.71,-1.77 32.43,-0.14 5.39,0.93 10.62,2.57 15.98,3.62 0.84,0.11 1.59,0.42 2.25,0.95 -1.85,1.22 -5.5,0.61 -6.14,3.11 5.34,1.47 10.56,3.35 16.01,4.41 5.87,2.23 12.06,3.34 18.13,4.83 7.05,1.27 13.9,-1.19 20.69,-2.7 7.71,-2.56 15.73,-4.05 23.34,-6.94 -1.86,-1.46 -4.27,-1.77 -6.42,-2.56 0.27,-0.2 0.83,-0.59 1.1,-0.79 7.99,-1.63 15.77,-4.38 23.97,-4.86 8.29,-0.46 16.89,-0.85 24.95,1.31 -1.41,2.22 -5.29,1.73 -7.68,2.75 4.33,7.29 9.54,14.03 14.32,21.02 4.32,5.98 9.34,11.45 12.81,18 2.53,2.92 2.85,6.93 4.86,10.15 3.1,9.69 5.54,19.79 5.37,30.04 0.14,12.67 0.36,25.36 -0.16,38.03 -0.81,7.25 -5.28,13.31 -8.18,19.8 3.02,0.04 5.85,-1.14 8.83,-1.48 -5.65,6.92 -13.68,11.6 -21.94,14.8 -5.77,2.02 -12.03,1.7 -18.04,1.4 -4.35,-0.09 -8.33,-1.96 -12.16,-3.81 -8.98,-4.12 -16.85,-11.05 -20.66,-20.32 -2.53,-3.98 -4.6,-8.22 -7.07,-12.23 5.69,2.6 10.91,6.26 16.89,8.33 5.24,1.64 10.41,3.91 15.98,4.05 5.35,0.11 10.92,0.45 16,-1.57 4.44,-1.83 9.22,-2.95 13.17,-5.8 -13.99,1.54 -29.27,3.48 -42.17,-3.57 7.02,0.21 14.07,0 20.98,-1.42 8,-2.69 15.54,-7.65 19.84,-15.09 0.82,-1.23 1.53,-2.53 2.06,-3.91 -5.67,4.4 -11.76,8.28 -18.44,10.92 -3.65,0.86 -7.42,1.05 -11.15,1.26 0.01,-0.12 0.02,-0.36 0.03,-0.48 9.62,-3.88 18.95,-9.62 25.1,-18.18 2.73,-4.23 5.53,-8.65 6.06,-13.79 0.82,-4.36 0.42,-10.14 -4.24,-12.16 -9.36,-4.47 -20.08,-4.86 -30.27,-4.47 -11.53,0.44 -21.04,8.3 -28.3,16.59 -5.29,6.51 -10.24,14.68 -18.93,16.85 -2.29,0.81 -4.74,0.86 -7.14,0.97 -0.97,-10.35 1.66,-20.86 7.4,-29.5 6.32,-10.24 15.8,-17.97 25.7,-24.55 -4.5,0.27 -8.81,1.67 -12.91,3.47 -15.5,6.31 -25.84,21.94 -28.97,37.98 -0.89,-2.64 -1.68,-5.31 -2.41,-8 -4.19,-13.3 -14.17,-25.11 -27.42,-29.95 -3.82,-1.8 -7.86,-3.09 -12.02,-3.84 4.09,2.73 8.5,4.99 12.27,8.17 5.64,4.48 10.13,10.27 13.64,16.53 4.86,9.11 6.98,19.33 8.63,29.44 -2.51,0.04 -5.09,0.37 -7.54,-0.36 -9.46,-2.23 -15.49,-10.67 -21.18,-17.9 -6.11,-9.75 -17.48,-15.5 -28.84,-15.86 -10.17,-0.39 -21.27,-0.37 -30.01,5.57 -4.96,3.69 -3.83,10.83 -1.38,15.68 5.38,13.07 17.61,21.61 30.01,27.35 -0.01,0.11 -0.01,0.32 -0.02,0.43 -3.71,-0.22 -7.46,-0.42 -11.1,-1.19 -6.97,-2.68 -13.29,-6.87 -18.79,-11.89 2.38,8.28 9.08,14.97 17.24,17.61 7.87,3.72 16.74,2.71 25.16,3.51 -2.26,2.04 -5.07,3.32 -8.08,3.76 -11.17,2.73 -22.7,1.08 -33.87,-0.66 3.06,3.07 7.24,4.37 11.14,5.98 6.46,2.93 13.79,2.5 20.68,1.94 10.01,-3.3 19.84,-7.14 29.59,-11.15 -1.78,3.68 -3.75,7.26 -5.19,11.1 -3.14,5.96 -7,11.54 -12.35,15.74 -7.28,4.45 -15.36,8.56 -24.1,8.49 -4.55,0.07 -9.23,0.27 -13.64,-1.05 -8.75,-3.26 -16.44,-8.63 -24.39,-13.41 4.17,-0.11 8.25,0.68 12.3,1.55 -0.43,-1.44 -1.2,-2.66 -2.3,-3.66 -5.08,-5.35 -7.18,-12.55 -9.27,-19.44 -1.79,-9.39 -1.15,-19.16 0.56,-28.51 0.87,-6.7 2.26,-13.35 2.48,-20.12 0.23,-5.63 3.05,-10.62 4.38,-16 7.97,-18.32 20.56,-34.05 31.02,-50.98 -2.98,-0.73 -5.99,-1.37 -8.92,-2.28 0.11,-0.23 0.33,-0.69 0.44,-0.92 z"
       id="path419"
       inkscape:connector-curvature="0"
       style="opacity:1;fill:#ffffff" />
    <path
       d="m 540.65,201.6 c -0.03,0.15 -0.1,0.44 -0.14,0.58 -0.9,3.02 -1.44,6.24 -0.21,9.25 -0.17,0.03 -0.51,0.1 -0.69,0.14 -0.03,-0.3 -0.09,-0.9 -0.12,-1.2 -0.28,-2.97 -0.6,-6.14 1.16,-8.77 z"
       id="path421"
       inkscape:connector-curvature="0"
       style="opacity:1;fill:#ffffff" />
    <path
       d="m 469.4,205.91 c 0.51,0.33 1.52,0.99 2.02,1.33 0.02,2.51 -0.04,5.02 -0.06,7.54 -2.06,0.5 -2.55,1.86 -1.46,4.08 -0.28,-0.16 -0.84,-0.5 -1.12,-0.67 -0.01,-1.37 -0.01,-2.73 0.01,-4.09 0.58,-2.69 0.82,-5.45 0.61,-8.19 z"
       id="path423"
       inkscape:connector-curvature="0"
       style="opacity:1;fill:#ffffff" />
    <path
       d="m 126.68,208.98 c -0.02,-0.42 -0.07,-1.28 -0.09,-1.7 2.51,2.5 3.94,5.85 6.54,8.28 0.12,0.56 0.37,1.68 0.49,2.25 -1.49,-3.41 -4.52,-5.81 -6.93,-8.56 z"
       id="path425"
       inkscape:connector-curvature="0"
       style="opacity:1;fill:#ffffff" />
    <path
       d="m 456.27,220.3 c -0.25,-1.18 -0.05,-2.27 0.58,-3.27 0.25,0.58 0.74,1.73 0.99,2.3 -0.22,0.32 -0.65,0.97 -0.87,1.29 z"
       id="path427"
       inkscape:connector-curvature="0"
       style="opacity:1;fill:#ffffff" />
    <path
       d="m 450.11,233.83 c 1.38,-3.65 2.77,-7.3 4.59,-10.75 l 0.83,0.31 c -2.16,3.29 -3.82,6.85 -5.42,10.44 z"
       id="path429"
       inkscape:connector-curvature="0"
       style="opacity:1;fill:#ffffff" />
    <path
       d="m 498.58,288.88 c 0.37,-1.57 0.72,-3.13 1.12,-4.69 0.23,0.5 0.69,1.51 0.92,2.01 -0.64,0.92 -1.36,1.79 -2.04,2.68 z"
       id="path431"
       inkscape:connector-curvature="0"
       style="opacity:1;fill:#ffffff" />
    <path
       d="m 295.06,291.17 c 6.84,-2.3 14.3,-3.07 21.36,-1.35 8.05,3.44 13.11,11.08 16.48,18.83 0.12,0.27 0.36,0.8 0.47,1.07 -6.19,-4.73 -13.12,-9.86 -21.33,-9.5 -6.37,0 -11.61,4.09 -16.23,8 -4.14,-2.46 -8.1,-5.55 -12.88,-6.62 -7.18,-0.98 -14.85,-0.51 -21.04,3.61 -0.43,-0.26 -1.29,-0.79 -1.72,-1.05 4.55,-10.58 17.67,-17.35 28.8,-13.48 1.96,0.51 4.07,1.18 6.09,0.49 z"
       id="path433"
       inkscape:connector-curvature="0"
       style="opacity:1;fill:#ffffff" />
    <path
       d="m 296.17,320.46 c 5.36,-4.01 10.99,-8.58 17.95,-9.1 7.56,-0.09 14.72,4.73 18.03,11.46 4.08,10.2 1.31,21.27 -0.87,31.56 3.69,-4.14 7.3,-8.48 9.67,-13.55 0.6,-2.36 0.91,-4.92 2.87,-6.62 21.55,15.96 33.67,43.17 32.65,69.8 -0.17,8.19 -2.44,16.1 -4.46,23.97 -4.4,11.65 -9.92,23.29 -18.85,32.19 -0.58,-3.5 -1.21,-7 -2.02,-10.46 -4.53,7.34 -7.96,15.44 -13.66,22.03 -27.08,-0.02 -54.15,0.06 -81.23,-0.03 -0.72,-0.85 -1.45,-1.68 -2.15,-2.53 -6.68,-8.44 -12.75,-17.35 -19.53,-25.71 -0.21,5.92 1.13,11.77 0.91,17.7 -9.05,-8.13 -14.55,-19.4 -17.67,-31 -5.21,-21.85 -2.59,-45.24 6.26,-65.8 6.1,-13.78 15.59,-26.4 28.45,-34.54 0.21,9.19 1.54,19.63 9.23,25.75 -0.3,-5.95 -1.64,-11.74 -2.92,-17.53 -0.65,-5.24 -1.5,-11.03 1.28,-15.82 2.77,-6.18 9.41,-9.81 15.91,-10.66 7.73,-0.63 14.81,3.67 20.15,8.89 m 14.37,5.94 c -5.99,5.75 -7.73,14.57 -7.18,22.58 0.28,1.86 -0.25,4.31 1.8,5.33 0.32,-5.22 4.12,-9.45 8.71,-11.56 1.96,-0.6 4.15,-0.76 5.89,-1.89 1.45,-1.56 2.89,-3.14 4.33,-4.71 1.39,-2.84 0.49,-6.36 -1.97,-8.3 -2.31,-3.94 -8.31,-4.45 -11.58,-1.45 m -36.94,-1.1 c -1.06,2.22 -3.34,4.18 -2.99,6.83 1.24,2.66 2.95,5.18 5.37,6.9 2.14,1.99 5.34,1.74 7.71,3.28 1.94,1.9 3.49,4.36 3.83,7.1 0.34,1.24 -0.07,2.96 1.41,3.56 0.82,-6.54 1.91,-14.06 -2.14,-19.8 -2.65,-4.53 -7.65,-8.56 -13.19,-7.87 m 22.15,42.9 c -0.23,2.25 -0.81,4.47 -1.92,6.45 -1.29,3.27 -5.2,3.95 -8.24,4.61 -18.6,0.05 -37.37,1.34 -55.79,-2 -0.39,-0.17 -1.17,-0.5 -1.56,-0.66 3.75,3.43 8.73,4.83 13.21,6.98 -0.8,4.78 -1.26,9.63 -1.85,14.44 1.33,4 3.01,7.83 5.11,11.49 1.83,6.67 6.8,11.66 10.12,17.55 1.92,2.55 1.8,5.9 2.43,8.9 0.16,3.63 1.44,7.63 -0.65,10.96 -1.01,2.36 -3.67,4.25 -3.11,7.07 0.94,3.88 2.35,7.64 3.81,11.35 5.66,0.82 10.8,4 16.62,4.04 16.38,-0.03 32.77,0.04 49.16,-0.03 3.48,-0.17 5.81,-3.38 9.14,-4.02 2.43,-1.16 3.13,-3.79 4.09,-6.06 3.05,-7.58 -4.81,-14.62 -2.1,-22.24 0.44,-4.15 2.57,-7.78 4.7,-11.27 4.82,-7.34 8.86,-15.27 10.88,-23.86 0.76,-1.95 1.74,-3.86 2.01,-5.96 -0.24,-2.72 -1.63,-5.15 -2.19,-7.8 -0.61,-2.14 -0.67,-4.56 -2.09,-6.37 1.89,-3.44 7.2,-3.58 8.34,-7.35 -3.15,1.17 -6.56,0.98 -9.79,1.77 -8.18,2.11 -16.74,0.8 -25.05,1.99 -4.99,0.23 -9.98,0.64 -14.97,0.68 -5.71,-0.14 -9.84,-5.25 -10.31,-10.66 z"
       id="path435"
       inkscape:connector-curvature="0"
       style="opacity:1;fill:#ffffff" />
    <path
       d="m 329.16,382.92 c 5.19,-0.26 10.36,-0.64 15.56,-0.7 -0.25,1.89 -0.21,3.88 -1.06,5.64 -2.43,5.28 -4.36,11.02 -8.51,15.26 -1.78,1.76 -2.92,4.39 -5.56,5.02 -0.05,-5.84 3.08,-11.77 0.74,-17.42 -0.87,-2.51 -0.97,-5.18 -1.17,-7.8 z"
       id="path437"
       inkscape:connector-curvature="0"
       style="opacity:1;fill:#ffffff" />
    <path
       d="m 269.73,386.72 c 4.42,-0.74 8.74,-2.22 13.28,-2.19 6.34,-0.06 12.68,-1.48 19.02,-0.46 6.57,0.34 13.09,1.54 19.35,3.6 2.24,2.46 -0.4,5.81 -1.07,8.45 -2.13,1.25 -3.35,3.58 -5.53,4.74 -0.22,-2.17 0.71,-6.63 -2.68,-6.61 -11.72,-0.9 -23.51,-0.71 -35.27,-0.81 -0.3,0.63 -0.9,1.89 -1.2,2.52 -0.17,1.54 -0.31,3.09 -0.43,4.64 -0.33,-0.06 -1,-0.17 -1.33,-0.23 -0.85,-2.16 -2.63,-3.66 -4.07,-5.39 -0.22,-2.7 -1.75,-5.81 -0.07,-8.26 z"
       id="path439"
       inkscape:connector-curvature="0"
       style="opacity:1;fill:#ffffff" />
    <path
       d="m 245.29,384.39 c 5.49,0.35 11,0.22 16.47,0.98 -2.04,5 -2.31,10.41 -3.14,15.68 -0.52,3.49 1.41,6.74 1.25,10.24 -1.64,-1.14 -3.29,-2.28 -5.07,-3.2 -1.84,-4.83 -4.92,-9 -6.87,-13.76 -2.36,-2.78 -2.37,-6.5 -2.64,-9.94 z"
       id="path441"
       inkscape:connector-curvature="0"
       style="opacity:1;fill:#ffffff" />
    <path
       d="m 325.7,443.52 c 0.39,-0.01 1.16,-0.05 1.55,-0.07 2.26,3.53 3.6,7.57 4.15,11.72 -0.72,2.17 -2.23,4.03 -2.96,6.23 -1.49,0.62 -2.97,1.24 -4.43,1.91 -2.69,0.1 -5.29,0.96 -7.98,0.92 -15.02,-0.06 -30.04,0.02 -45.06,-0.04 -0.42,-0.45 -1.26,-1.35 -1.68,-1.8 -2.78,2.7 -5.86,-0.88 -8.58,-1.81 -0.36,-2.65 -0.94,-5.3 -2.07,-7.73 1.07,-2.21 2.16,-4.42 2.77,-6.81 0.1,-1.12 0.86,-1.91 1.99,-2.01 0.42,1.7 0.88,3.4 1.26,5.13 2.45,3.09 5.29,5.84 8.13,8.59 -0.1,-0.93 -0.28,-2.77 -0.37,-3.69 6.31,3.38 13.73,0.76 20.51,2 8.21,-0.06 16.79,1.21 24.64,-1.87 -0.05,0.72 -0.15,2.16 -0.21,2.88 2.3,-1.92 4.68,-3.84 6.48,-6.25 1.07,-2.29 1.37,-4.85 1.86,-7.3 z"
       id="path443"
       inkscape:connector-curvature="0"
       style="opacity:1;fill:#ffffff" />
    <path
       d="m 225.33,532.31 c 0.54,-0.01 1.61,-0.03 2.15,-0.04 0.04,0.24 0.11,0.73 0.15,0.98 -0.8,0.7 -1.56,1.45 -2.26,2.25 l -0.36,-0.2 c -0.34,-1.06 -0.23,-2.05 0.32,-2.99 z"
       id="path445"
       inkscape:connector-curvature="0"
       style="opacity:1;fill:#ffffff" />
  </g>
  <g
     id="#462d53b2"
     transform="matrix(0.07453416,0,0,0.07453416,1.6557044,2.3e-7)">
    <path
       d="m 366.58,59.75 c 1.48,1.39 2.08,3.32 2.38,5.28 -0.86,-0.73 -1.69,-1.47 -2.52,-2.21 0.13,-1.02 0.17,-2.04 0.14,-3.07 z"
       id="path448"
       inkscape:connector-curvature="0"
       style="opacity:0.7;fill:#462d53" />
  </g>
  <g
     id="#18171acb"
     transform="matrix(0.07453416,0,0,0.07453416,1.6557044,2.3e-7)">
    <path
       d="m 389.32,73.69 c 1.18,0.88 2.21,1.98 2.68,3.42 -2,0.46 -3.45,-1.63 -2.68,-3.42 z"
       id="path451"
       inkscape:connector-curvature="0"
       style="opacity:0.8;fill:#18171a" />
  </g>
  <g
     id="#5c1e7fff"
     transform="matrix(0.07453416,0,0,0.07453416,1.6557044,2.3e-7)">
    <path
       d="m 393.07,79.13 c 3,2.07 7.21,2.25 9.34,5.52 3.44,3.5 3.38,8.74 3.49,13.3 -4.4,-6.19 -8.1,-12.86 -12.83,-18.82 z"
       id="path454"
       inkscape:connector-curvature="0"
       style="opacity:1;fill:#5c1e7f" />
  </g>
  <g
     id="#5b2971c4"
     transform="matrix(0.07453416,0,0,0.07453416,1.6557044,2.3e-7)">
    <path
       d="m 452.52,92.78 c 9.64,0.02 19.37,-0.61 28.89,1.23 -6.17,0.24 -12.31,-0.64 -18.48,-0.45 -3.48,0.03 -7.08,0.48 -10.41,-0.78 z"
       id="path457"
       inkscape:connector-curvature="0"
       style="opacity:0.76999996;fill:#5b2971" />
  </g>
  <g
     id="#4e2a5f9f"
     transform="matrix(0.07453416,0,0,0.07453416,1.6557044,2.3e-7)">
    <path
       d="m 468.99,127.89 c 1.47,0.58 2.95,1.18 4.36,1.93 -0.69,-0.06 -2.06,-0.19 -2.75,-0.26 2.7,7.68 3.47,16.88 -1.52,23.83 1.09,-4.13 3.1,-8.1 2.88,-12.47 0.3,-4.56 -1.58,-8.8 -2.97,-13.03 z"
       id="path460"
       inkscape:connector-curvature="0"
       style="opacity:0.62000002;fill:#4e2a5f" />
  </g>
  <g
     id="#b7851cff"
     transform="matrix(0.07453416,0,0,0.07453416,1.6557044,2.3e-7)">
    <path
       d="m 206.1,132.74 c 16.32,-4.12 33.28,-3.53 49.95,-2.83 5.81,0.85 11.95,0.95 17.36,3.46 -15.89,-2.03 -31.97,-4.32 -47.98,-2.28 -19.13,1.75 -38.24,5.87 -55.56,14.41 -4.18,1.74 -7.73,4.75 -12.14,5.95 7.56,-5.87 16.58,-9.36 25.44,-12.75 7.59,-2.21 14.99,-5.19 22.93,-5.96 z"
       id="path463"
       inkscape:connector-curvature="0"
       style="opacity:1;fill:#b7851c" />
  </g>
  <g
     id="#df5417ff"
     transform="matrix(0.07453416,0,0,0.07453416,1.6557044,2.3e-7)">
    <path
       d="m 310.16,132.38 c 12.07,-1.96 24.39,-2.39 36.59,-1.42 8.63,1.16 17.3,2.22 25.89,3.69 6.38,2.17 13.15,2.96 19.39,5.52 14.64,4.6 28.42,11.67 41.33,19.92 0.21,0.47 0.64,1.41 0.86,1.88 -1.9,-1.24 -3.88,-2.33 -5.88,-3.39 1.49,3.35 4.43,6.81 2.95,10.71 -0.93,2.79 -4.08,3.14 -6.52,3.69 2.55,-1.52 5.86,-3.41 5.44,-6.91 -0.67,-3.76 -2.83,-7.13 -5.24,-10.02 -2.92,-2.22 -6.48,-3.41 -9.66,-5.22 -10.96,-5.49 -22.45,-9.86 -34.33,-12.85 -6.99,-1.33 -13.74,-3.95 -20.9,-4.33 -8.53,-0.45 -16.99,-2.16 -25.55,-1.9 -8.33,-0.17 -16.75,0.35 -24.93,1.86 -1.97,2.98 -1.33,6.97 -0.83,10.34 0.86,5.59 8.03,8.44 12.64,5.56 -4.11,-1.91 -9.64,-2.82 -11.34,-7.68 -1.51,-2.49 0.86,-4.74 2.75,-6.07 2.62,-2 6.1,-1.29 9.16,-1.46 -3.42,1.05 -8.64,1.4 -9.51,5.68 -0.21,4.25 3.75,6.23 7.02,7.75 6.94,4.27 15.45,3.13 23.21,4.04 11.39,1.71 23.07,1.88 34.14,5.31 5.6,0.98 11.05,2.51 16.36,4.53 -0.63,0.35 -1.88,1.05 -2.5,1.39 -8.27,-2.09 -16.4,-4.89 -24.94,-5.69 -16.78,-3.23 -33.9,-3.75 -50.93,-3.91 -6.46,-1.87 -8.28,-9.52 -8.35,-15.47 -0.26,-2.4 1,-5.28 3.68,-5.55 z"
       id="path466"
       inkscape:connector-curvature="0"
       style="opacity:1;fill:#df5417" />
  </g>
  <g
     id="#fff002ff"
     transform="matrix(0.07453416,0,0,0.07453416,1.6557044,2.3e-7)">
    <path
       d="m 225.43,131.09 c 16.01,-2.04 32.09,0.25 47.98,2.28 0.1,0.05 0.32,0.16 0.43,0.21 -0.29,3.54 0.1,7.14 -0.57,10.64 -0.97,2.82 -3.13,5.27 -5.92,6.37 -2.34,-0.23 -4.63,-0.73 -6.88,-1.39 4.07,-1.6 9.64,-2.72 10.91,-7.61 1.19,-3 -1.63,-5.61 -4.11,-6.71 -2.74,-0.7 -5.61,-0.52 -8.4,-0.85 -3.65,-0.53 -7.4,-0.65 -10.99,0.3 -3.37,1.43 -6.61,3.25 -9.14,5.94 2.58,3.66 7.65,4.38 11.77,3.52 2.2,-1.06 4.23,-2.64 4.75,-5.18 2.38,-0.62 2.93,1.78 2.01,3.6 -3.25,3.54 -8.55,3.18 -12.9,2.68 -4.6,-1 -9.01,-2.83 -13.7,-3.41 -3.63,-0.27 -7.19,0.75 -10.74,1.39 -4.64,1.01 -9.04,3.11 -13.86,3.3 -4.4,0.72 -8.83,-0.44 -13.23,0.17 8.92,5.83 19.94,2.94 29.3,-0.04 6.52,-0.87 12.98,0.97 19.12,2.99 -0.34,0.52 -1.02,1.55 -1.36,2.07 -9.37,-0.18 -18.6,1.61 -27.91,2.31 -7.96,0.8 -15.62,3.22 -23.46,4.71 -11.28,3.46 -23.12,6.96 -32.14,14.96 -2.45,2.01 -4.22,5.66 -7.91,5.21 0.1,-0.62 0.31,-1.88 0.41,-2.5 0.85,-5.07 1.13,-10.28 2.92,-15.13 1.05,-2.87 1.69,-6.12 4.22,-8.13 0.55,-0.47 1.11,-0.91 1.7,-1.34 4.41,-1.2 7.96,-4.21 12.14,-5.95 17.32,-8.54 36.43,-12.66 55.56,-14.41 m -49.1,20.24 c -4.59,0.89 -9.46,-0.33 -13.92,1.41 -4.62,1.4 -9.58,6.64 -6.77,11.62 2.92,4.15 8.76,2.01 11.69,-0.98 3.29,-0.48 3.63,-5.65 0.94,-7.24 2.45,-0.15 4.96,-0.08 7.37,-0.65 4.07,-2.02 7.19,-5.45 10.75,-8.21 1.45,-1.18 3.84,-1.09 4.71,-2.92 -6.22,-1.22 -9.59,5.15 -14.77,6.97 z"
       id="path469"
       inkscape:connector-curvature="0"
       style="opacity:1;fill:#fff002" />
  </g>
  <g
     id="#f7c413ff"
     transform="matrix(0.07453416,0,0,0.07453416,1.6557044,2.3e-7)">
    <path
       d="m 309.6,133.61 c 8.18,-1.51 16.6,-2.03 24.93,-1.86 -1.92,1.23 -4.15,1.59 -6.38,1.65 2.11,0.65 4.16,1.47 6.19,2.34 -1.49,0.26 -2.98,0.55 -4.47,0.86 2.03,0.78 4.1,1.44 6.14,2.18 -0.34,0.27 -1.03,0.81 -1.38,1.08 -1.55,-0.29 -3.11,-0.58 -4.64,-0.98 -1.05,-0.49 -2.19,-0.56 -3.18,0.13 -0.4,2.94 2.87,4.55 5.39,4.71 2.85,0.46 5.73,0.6 8.61,0.78 0.62,0.18 1.85,0.54 2.47,0.72 -3.35,1.62 -8.05,-0.05 -10.45,3.26 4.09,0.31 8.2,0.48 12.3,0.33 -0.83,0.97 -1.64,1.96 -2.43,2.96 -7.76,-0.91 -16.27,0.23 -23.21,-4.04 -3.27,-1.52 -7.23,-3.5 -7.02,-7.75 0.87,-4.28 6.09,-4.63 9.51,-5.68 -3.06,0.17 -6.54,-0.54 -9.16,1.46 -1.89,1.33 -4.26,3.58 -2.75,6.07 1.7,4.86 7.23,5.77 11.34,7.68 -4.61,2.88 -11.78,0.03 -12.64,-5.56 -0.5,-3.37 -1.14,-7.36 0.83,-10.34 z"
       id="path472"
       inkscape:connector-curvature="0"
       style="opacity:1;fill:#f7c413" />
  </g>
  <g
     id="#fcc103ff"
     transform="matrix(0.07453416,0,0,0.07453416,1.6557044,2.3e-7)">
    <path
       d="m 334.53,131.75 c 8.56,-0.26 17.02,1.45 25.55,1.9 7.16,0.38 13.91,3 20.9,4.33 11.88,2.99 23.37,7.36 34.33,12.85 0.63,1.51 1.82,3.12 0.81,4.77 -3.48,-0.38 -7.24,0.55 -10.48,-1.15 -2.22,-1.09 -4.34,-2.36 -6.55,-3.46 2.41,3.2 5.48,5.8 8.69,8.14 2.08,1 4.42,0.94 6.67,1.07 -0.71,2.82 -0.03,6.19 -2.16,8.48 -6.27,-2.6 -12.56,-5.22 -19.09,-7.07 -5.31,-2.02 -10.76,-3.55 -16.36,-4.53 -11.07,-3.43 -22.75,-3.6 -34.14,-5.31 0.79,-1 1.6,-1.99 2.43,-2.96 4.74,-1.57 9.84,-2.88 14.84,-1.74 4.03,0.89 8,2.13 12.13,2.52 -2.2,-1.51 -4.65,-2.61 -7.2,-3.37 -4.23,-1.28 -8.45,-3.12 -12.95,-2.94 -3.01,-0.01 -5.85,1.04 -8.67,1.94 -0.62,-0.18 -1.85,-0.54 -2.47,-0.72 0.53,-0.5 1.59,-1.51 2.12,-2.02 -0.64,-4.36 -5.07,-5.46 -8.59,-6.74 -2.03,-0.87 -4.08,-1.69 -6.19,-2.34 2.23,-0.06 4.46,-0.42 6.38,-1.65 z"
       id="path475"
       inkscape:connector-curvature="0"
       style="opacity:1;fill:#fcc103" />
  </g>
  <g
     id="#f6c512ff"
     transform="matrix(0.07453416,0,0,0.07453416,1.6557044,2.3e-7)">
    <path
       d="m 247.88,134.33 c 3.59,-0.95 7.34,-0.83 10.99,-0.3 3.79,0.79 8.25,1.5 10.59,4.95 0.66,5.99 -5.8,8.43 -10.42,9.84 0.36,0.1 1.07,0.29 1.43,0.38 2.25,0.66 4.54,1.16 6.88,1.39 -2.73,0.75 -5.57,0.8 -8.37,0.71 -6.36,-0.19 -12.72,-0.01 -19.08,0.06 0.34,-0.52 1.02,-1.55 1.36,-2.07 1.17,-0.52 2.36,-1.02 3.48,-1.65 -0.11,-0.92 -0.24,-1.84 -0.37,-2.75 4.35,0.5 9.65,0.86 12.9,-2.68 0.92,-1.82 0.37,-4.22 -2.01,-3.6 -0.89,-0.24 -1.75,-0.53 -2.59,-0.87 -1.64,-1.09 -3.21,-2.26 -4.79,-3.41 z"
       id="path478"
       inkscape:connector-curvature="0"
       style="opacity:1;fill:#f6c512" />
  </g>
  <g
     id="#d14725ff"
     transform="matrix(0.07453416,0,0,0.07453416,1.6557044,2.3e-7)">
    <path
       d="m 258.87,134.03 c 2.79,0.33 5.66,0.15 8.4,0.85 2.48,1.1 5.3,3.71 4.11,6.71 -1.27,4.89 -6.84,6.01 -10.91,7.61 -0.36,-0.09 -1.07,-0.28 -1.43,-0.38 4.62,-1.41 11.08,-3.85 10.42,-9.84 -2.34,-3.45 -6.8,-4.16 -10.59,-4.95 z"
       id="path481"
       inkscape:connector-curvature="0"
       style="opacity:1;fill:#d14725" />
    <path
       d="m 390.7,163 c 0.62,-0.34 1.87,-1.04 2.5,-1.39 6.53,1.85 12.82,4.47 19.09,7.07 3.5,1.6 6.92,3.4 10.25,5.34 5.28,3.07 9.98,7.06 13.89,11.76 0.81,-0.78 1.24,-1.71 1.29,-2.79 0.17,-6.77 -0.6,-13.59 -2.85,-20.01 l 1.31,0.28 c 2.55,8.19 3.73,16.81 2.97,25.37 -4.43,-0.24 -6.35,-4.84 -9.6,-7.15 C 418.07,172.64 404.28,167.62 390.7,163 Z"
       id="path483"
       inkscape:connector-curvature="0"
       style="opacity:1;fill:#d14725" />
  </g>
  <g
     id="#d7411fff"
     transform="matrix(0.07453416,0,0,0.07453416,1.6557044,2.3e-7)">
    <path
       d="m 273.84,133.58 c 2.69,3.03 1,7.4 0.33,10.88 -0.7,3.78 -3.04,7.27 -6.61,8.85 -3.12,0.73 -6.36,0.32 -9.52,0.33 -17.09,-0.22 -34.32,0.26 -51.12,3.68 -8.34,0.81 -16.34,3.42 -24.43,5.46 -8.69,2.98 -17.56,6.17 -24.86,11.92 -2.53,1.91 -4.48,4.44 -6.92,6.44 -1.84,0.4 -2.04,-1.2 -2.23,-2.59 3.69,0.45 5.46,-3.2 7.91,-5.21 9.02,-8 20.86,-11.5 32.14,-14.96 7.84,-1.49 15.5,-3.91 23.46,-4.71 9.31,-0.7 18.54,-2.49 27.91,-2.31 6.36,-0.07 12.72,-0.25 19.08,-0.06 2.8,0.09 5.64,0.04 8.37,-0.71 2.79,-1.1 4.95,-3.55 5.92,-6.37 0.67,-3.5 0.28,-7.1 0.57,-10.64 z"
       id="path486"
       inkscape:connector-curvature="0"
       style="opacity:1;fill:#d7411f" />
  </g>
  <g
     id="#f9ca25ff"
     transform="matrix(0.07453416,0,0,0.07453416,1.6557044,2.3e-7)">
    <path
       d="m 238.74,140.27 c 2.53,-2.69 5.77,-4.51 9.14,-5.94 1.58,1.15 3.15,2.32 4.79,3.41 0.45,2.5 -2.47,3.69 -2.16,6.05 -4.12,0.86 -9.19,0.14 -11.77,-3.52 z"
       id="path489"
       inkscape:connector-curvature="0"
       style="opacity:1;fill:#f9ca25" />
  </g>
  <g
     id="#fccd2cff"
     transform="matrix(0.07453416,0,0,0.07453416,1.6557044,2.3e-7)">
    <path
       d="m 329.87,136.6 c 1.49,-0.31 2.98,-0.6 4.47,-0.86 3.52,1.28 7.95,2.38 8.59,6.74 -0.53,0.51 -1.59,1.52 -2.12,2.02 -2.88,-0.18 -5.76,-0.32 -8.61,-0.78 -1.19,-1.38 -3.5,-2.7 -2.21,-4.84 1.53,0.4 3.09,0.69 4.64,0.98 0.85,2.97 4.24,-0.26 1.38,-1.08 -2.04,-0.74 -4.11,-1.4 -6.14,-2.18 z"
       id="path492"
       inkscape:connector-curvature="0"
       style="opacity:1;fill:#fccd2c" />
  </g>
  <g
     id="#dfa11bff"
     transform="matrix(0.07453416,0,0,0.07453416,1.6557044,2.3e-7)">
    <path
       d="m 252.67,137.74 c 0.84,0.34 1.7,0.63 2.59,0.87 -0.52,2.54 -2.55,4.12 -4.75,5.18 -0.31,-2.36 2.61,-3.55 2.16,-6.05 z"
       id="path495"
       inkscape:connector-curvature="0"
       style="opacity:1;fill:#dfa11b" />
  </g>
  <g
     id="#e48d14ff"
     transform="matrix(0.07453416,0,0,0.07453416,1.6557044,2.3e-7)">
    <path
       d="m 326.81,139.01 c 0.99,-0.69 2.13,-0.62 3.18,-0.13 -1.29,2.14 1.02,3.46 2.21,4.84 -2.52,-0.16 -5.79,-1.77 -5.39,-4.71 z"
       id="path498"
       inkscape:connector-curvature="0"
       style="opacity:1;fill:#e48d14" />
  </g>
  <g
     id="#db9218ff"
     transform="matrix(0.07453416,0,0,0.07453416,1.6557044,2.3e-7)">
    <path
       d="m 334.63,139.86 c 0.35,-0.27 1.04,-0.81 1.38,-1.08 2.86,0.82 -0.53,4.05 -1.38,1.08 z"
       id="path501"
       inkscape:connector-curvature="0"
       style="opacity:1;fill:#db9218" />
  </g>
  <g
     id="#fad137ff"
     transform="matrix(0.07453416,0,0,0.07453416,1.6557044,2.3e-7)">
    <path
       d="m 219.93,142.87 c 3.55,-0.64 7.11,-1.66 10.74,-1.39 4.69,0.58 9.1,2.41 13.7,3.41 0.13,0.91 0.26,1.83 0.37,2.75 -1.12,0.63 -2.31,1.13 -3.48,1.65 -6.14,-2.02 -12.6,-3.86 -19.12,-2.99 -1.4,-0.22 -2.79,-0.46 -4.18,-0.72 0.66,-0.9 1.31,-1.81 1.97,-2.71 z"
       id="path504"
       inkscape:connector-curvature="0"
       style="opacity:1;fill:#fad137" />
    <path
       d="m 469.9,218.86 c -1.09,-2.22 -0.6,-3.58 1.46,-4.08 0.49,1.27 1.16,2.46 2,3.55 0.76,1.02 1.68,1.9 2.63,2.76 1.55,0.31 2.62,1.17 3.21,2.56 -1.8,-0.02 -3.59,-0.06 -5.38,-0.12 l -1.09,-1.43 c -0.55,-0.45 -1.11,-0.88 -1.67,-1.29 -0.29,-0.48 -0.87,-1.46 -1.16,-1.95 z"
       id="path506"
       inkscape:connector-curvature="0"
       style="opacity:1;fill:#fad137" />
  </g>
  <g
     id="#f4c60fff"
     transform="matrix(0.07453416,0,0,0.07453416,1.6557044,2.3e-7)">
    <path
       d="m 206.07,146.17 c 4.82,-0.19 9.22,-2.29 13.86,-3.3 -0.66,0.9 -1.31,1.81 -1.97,2.71 1.39,0.26 2.78,0.5 4.18,0.72 -9.36,2.98 -20.38,5.87 -29.3,0.04 4.4,-0.61 8.83,0.55 13.23,-0.17 z"
       id="path509"
       inkscape:connector-curvature="0"
       style="opacity:1;fill:#f4c60f" />
  </g>
  <g
     id="#fbd141ff"
     transform="matrix(0.07453416,0,0,0.07453416,1.6557044,2.3e-7)">
    <path
       d="m 343.28,145.22 c 2.82,-0.9 5.66,-1.95 8.67,-1.94 4.5,-0.18 8.72,1.66 12.95,2.94 2.55,0.76 5,1.86 7.2,3.37 -4.13,-0.39 -8.1,-1.63 -12.13,-2.52 -5,-1.14 -10.1,0.17 -14.84,1.74 -4.1,0.15 -8.21,-0.02 -12.3,-0.33 2.4,-3.31 7.1,-1.64 10.45,-3.26 z"
       id="path512"
       inkscape:connector-curvature="0"
       style="opacity:1;fill:#fbd141" />
  </g>
  <g
     id="#f8d225ff"
     transform="matrix(0.07453416,0,0,0.07453416,1.6557044,2.3e-7)">
    <path
       d="m 176.33,151.33 c 5.18,-1.82 8.55,-8.19 14.77,-6.97 -0.87,1.83 -3.26,1.74 -4.71,2.92 -3.56,2.76 -6.68,6.19 -10.75,8.21 -2.41,0.57 -4.92,0.5 -7.37,0.65 2.69,1.59 2.35,6.76 -0.94,7.24 -0.66,-0.03 -1.99,-0.07 -2.65,-0.1 -0.18,-1.95 -0.29,-3.91 -0.51,-5.85 l -0.28,-1 c -0.45,-1.25 -0.99,-2.47 -1.48,-3.69 4.46,-1.74 9.33,-0.52 13.92,-1.41 z"
       id="path515"
       inkscape:connector-curvature="0"
       style="opacity:1;fill:#f8d225" />
  </g>
  <g
     id="#2a1f2390"
     transform="matrix(0.07453416,0,0,0.07453416,1.6557044,2.3e-7)">
    <path
       d="m 431.44,147.47 c 0.12,-1.24 0.26,-2.47 0.47,-3.69 2.31,6.32 0.64,13.63 4.27,19.48 l -1.31,-0.28 c -0.16,-0.25 -0.49,-0.76 -0.65,-1.01 -0.22,-0.47 -0.65,-1.41 -0.86,-1.88 -0.27,-4.26 -0.66,-8.52 -1.92,-12.62 z"
       id="path518"
       inkscape:connector-curvature="0"
       style="opacity:0.56000001;fill:#2a1f23" />
  </g>
  <g
     id="#fcd140ff"
     transform="matrix(0.07453416,0,0,0.07453416,1.6557044,2.3e-7)">
    <path
       d="m 399.09,150.99 c 2.21,1.1 4.33,2.37 6.55,3.46 3.24,1.7 7,0.77 10.48,1.15 2.23,0.96 4.43,1.99 6.68,2.92 -0.29,0.3 -0.86,0.89 -1.15,1.19 -4.61,-0.38 -9.23,-0.94 -13.87,-0.58 -3.21,-2.34 -6.28,-4.94 -8.69,-8.14 z"
       id="path521"
       inkscape:connector-curvature="0"
       style="opacity:1;fill:#fcd140" />
  </g>
  <g
     id="#f9c316ff"
     transform="matrix(0.07453416,0,0,0.07453416,1.6557044,2.3e-7)">
    <path
       d="m 415.31,150.83 c 3.18,1.81 6.74,3 9.66,5.22 2.41,2.89 4.57,6.26 5.24,10.02 0.42,3.5 -2.89,5.39 -5.44,6.91 -0.56,0.26 -1.67,0.78 -2.23,1.04 -3.33,-1.94 -6.75,-3.74 -10.25,-5.34 2.13,-2.29 1.45,-5.66 2.16,-8.48 -2.25,-0.13 -4.59,-0.07 -6.67,-1.07 4.64,-0.36 9.26,0.2 13.87,0.58 0.29,-0.3 0.86,-0.89 1.15,-1.19 -2.25,-0.93 -4.45,-1.96 -6.68,-2.92 1.01,-1.65 -0.18,-3.26 -0.81,-4.77 z"
       id="path524"
       inkscape:connector-curvature="0"
       style="opacity:1;fill:#f9c316" />
  </g>
  <g
     id="#f6c50fff"
     transform="matrix(0.07453416,0,0,0.07453416,1.6557044,2.3e-7)">
    <path
       d="m 155.64,164.36 c -2.81,-4.98 2.15,-10.22 6.77,-11.62 0.49,1.22 1.03,2.44 1.48,3.69 -1.18,1.58 -4.21,3.08 -2.72,5.38 0.69,1.26 2.31,1.14 3.51,1.47 0.66,0.03 1.99,0.07 2.65,0.1 -2.93,2.99 -8.77,5.13 -11.69,0.98 z"
       id="path527"
       inkscape:connector-curvature="0"
       style="opacity:1;fill:#f6c50f" />
  </g>
  <g
     id="#fbe40aff"
     transform="matrix(0.07453416,0,0,0.07453416,1.6557044,2.3e-7)">
    <path
       d="m 161.17,161.81 c -1.49,-2.3 1.54,-3.8 2.72,-5.38 l 0.28,1 c 0.22,1.94 0.33,3.9 0.51,5.85 -1.2,-0.33 -2.82,-0.21 -3.51,-1.47 z"
       id="path530"
       inkscape:connector-curvature="0"
       style="opacity:1;fill:#fbe40a" />
  </g>
  <g
     id="#fcc107ff"
     transform="matrix(0.07453416,0,0,0.07453416,1.6557044,2.3e-7)">
    <path
       d="m 428.34,158.58 c 2,1.06 3.98,2.15 5.88,3.39 0.16,0.25 0.49,0.76 0.65,1.01 2.25,6.42 3.02,13.24 2.85,20.01 -0.05,1.08 -0.48,2.01 -1.29,2.79 -3.91,-4.7 -8.61,-8.69 -13.89,-11.76 0.56,-0.26 1.67,-0.78 2.23,-1.04 2.44,-0.55 5.59,-0.9 6.52,-3.69 1.48,-3.9 -1.46,-7.36 -2.95,-10.71 z"
       id="path533"
       inkscape:connector-curvature="0"
       style="opacity:1;fill:#fcc107" />
  </g>
  <g
     id="#36242398"
     transform="matrix(0.07453416,0,0,0.07453416,1.6557044,2.3e-7)">
    <path
       d="m 148.41,171.91 c 0.63,1.29 0.6,2.74 0.48,4.14 -0.1,0.62 -0.31,1.88 -0.41,2.5 0.19,1.39 0.39,2.99 2.23,2.59 -0.38,0.27 -1.15,0.8 -1.53,1.07 -1.6,6.11 -2.17,12.41 -3.07,18.64 -0.18,-0.69 -0.56,-2.06 -0.74,-2.74 2.28,-8.56 2.82,-17.39 3.04,-26.2 z"
       id="path536"
       inkscape:connector-curvature="0"
       style="opacity:0.6;fill:#362423" />
  </g>
  <g
     id="#f2b12aff"
     transform="matrix(0.07453416,0,0,0.07453416,1.6557044,2.3e-7)">
    <path
       d="m 480.36,189.71 c 0.31,-0.46 0.93,-1.39 1.24,-1.86 -0.24,0.53 -0.7,1.57 -0.94,2.1 -0.19,1.53 -0.34,3.07 -0.35,4.62 -0.9,-0.23 -1.79,-0.45 -2.68,-0.65 -1.45,0 -2.89,0.04 -4.33,0.13 -0.04,-1.62 -0.12,-3.23 -0.27,-4.83 2.44,0.08 4.89,0.24 7.33,0.49 z"
       id="path539"
       inkscape:connector-curvature="0"
       style="opacity:1;fill:#f2b12a" />
  </g>
  <g
     id="#e88133ff"
     transform="matrix(0.07453416,0,0,0.07453416,1.6557044,2.3e-7)">
    <path
       d="m 480.66,189.95 c 2.04,1.74 4.34,3.49 5.15,6.19 1.83,4.4 0.74,10.51 -3.64,12.97 -0.76,-0.04 -2.29,-0.11 -3.05,-0.15 -0.16,-0.62 -0.48,-1.85 -0.64,-2.47 -0.77,-0.43 -1.53,-0.87 -2.27,-1.32 1.72,0.06 3.36,-0.5 5,-0.97 5.52,0.7 5.1,-9.44 -0.38,-8.62 -0.13,-0.25 -0.39,-0.76 -0.52,-1.01 0.01,-1.55 0.16,-3.09 0.35,-4.62 z"
       id="path542"
       inkscape:connector-curvature="0"
       style="opacity:1;fill:#e88133" />
  </g>
  <g
     id="#57207cff"
     transform="matrix(0.07453416,0,0,0.07453416,1.6557044,2.3e-7)">
    <path
       d="m 473.3,194.05 c 1.44,-0.09 2.88,-0.13 4.33,-0.13 -1.11,1.84 -2.48,3.5 -4.06,4.96 0.02,1.44 0.07,2.88 0.16,4.33 -0.62,-0.62 -1.22,-1.24 -1.82,-1.86 -0.31,-1.05 -0.64,-2.09 -0.97,-3.12 0.67,1.1 1.37,2.16 2.09,3.23 0.16,-2.47 0.29,-4.94 0.27,-7.41 z"
       id="path545"
       inkscape:connector-curvature="0"
       style="opacity:1;fill:#57207c" />
    <path
       d="m 470.9,234.7 c 0.61,-0.26 1.83,-0.79 2.45,-1.05 -0.08,3.13 -1.02,6.41 0.32,9.4 0.06,4.21 -2.31,7.66 -4.5,11.03 -0.23,0.71 -0.7,2.12 -0.93,2.83 -0.24,-0.75 -0.73,-2.26 -0.97,-3.01 0.15,-0.25 0.47,-0.74 0.62,-0.99 -0.94,-0.21 -1.88,-0.43 -2.81,-0.63 2.73,-5.55 5.23,-11.36 5.82,-17.58 z"
       id="path547"
       inkscape:connector-curvature="0"
       style="opacity:1;fill:#57207c" />
  </g>
  <g
     id="#5c2172ff"
     transform="matrix(0.07453416,0,0,0.07453416,1.6557044,2.3e-7)">
    <path
       d="m 466.98,197.6 c 0.54,-1 1.79,-1.08 2.72,-1.52 -2.32,0.59 -2.53,3.12 -2.04,5.08 0.54,1.59 1.14,3.17 1.74,4.75 -0.56,-1.03 -1.14,-2.06 -1.73,-3.07 -1.38,1.9 -2.59,3.9 -3.84,5.88 0.24,-0.61 0.71,-1.83 0.95,-2.44 -1.18,0.51 -2.36,1.02 -3.53,1.53 1.96,-3.37 3.76,-6.84 5.73,-10.21 z"
       id="path550"
       inkscape:connector-curvature="0"
       style="opacity:1;fill:#5c2172" />
    <path
       d="m 433.05,238.34 c 2.45,-2.22 5.15,-4.16 8.39,-5.06 -3.71,4.94 -7.81,9.59 -12.35,13.78 0.2,-3.06 0.61,-6.1 1.36,-9.07 0,0.6 0.01,1.81 0.01,2.42 0.87,-0.69 1.73,-1.38 2.59,-2.07 z"
       id="path552"
       inkscape:connector-curvature="0"
       style="opacity:1;fill:#5c2172" />
    <path
       d="m 161.42,236.83 c 0.99,2.96 0.96,6.11 0.97,9.2 -1.95,-1.36 -3.6,-3.06 -5.03,-4.94 1.42,0.49 2.87,0.9 4.32,1.34 -0.06,-1.87 -0.11,-3.74 -0.26,-5.6 z"
       id="path554"
       inkscape:connector-curvature="0"
       style="opacity:1;fill:#5c2172" />
    <path
       d="m 439,276.74 c 5.48,-6.06 10.7,-12.38 14.57,-19.62 0.5,0.22 1.5,0.66 2.01,0.89 -5.07,6.62 -10.44,13.06 -16.58,18.73 z"
       id="path556"
       inkscape:connector-curvature="0"
       style="opacity:1;fill:#5c2172" />
    <path
       d="m 448.93,275.92 c 3.95,-6.09 8.75,-11.59 12.77,-17.64 l -0.25,1.42 c 0.6,-0.08 1.81,-0.23 2.41,-0.3 -4.07,6.23 -9.36,11.62 -14.93,16.52 z"
       id="path558"
       inkscape:connector-curvature="0"
       style="opacity:1;fill:#5c2172" />
    <path
       d="m 539.39,469.21 c 0.35,0.63 0.35,0.63 0,0 z"
       id="path560"
       inkscape:connector-curvature="0"
       style="opacity:1;fill:#5c2172" />
  </g>
  <g
     id="#efbb8eff"
     transform="matrix(0.07453416,0,0,0.07453416,1.6557044,2.3e-7)">
    <path
       d="m 480.83,195.58 c 5.48,-0.82 5.9,9.32 0.38,8.62 1.61,-2.79 1.55,-6.01 -0.38,-8.62 z"
       id="path563"
       inkscape:connector-curvature="0"
       style="opacity:1;fill:#efbb8e" />
  </g>
  <g
     id="#e1d152ff"
     transform="matrix(0.07453416,0,0,0.07453416,1.6557044,2.3e-7)">
    <path
       d="m 467.66,201.16 c -0.49,-1.96 -0.28,-4.49 2.04,-5.08 0.31,0.54 0.93,1.61 1.24,2.15 0.33,1.03 0.66,2.07 0.97,3.12 -1.42,-0.07 -2.84,-0.13 -4.25,-0.19 z"
       id="path566"
       inkscape:connector-curvature="0"
       style="opacity:1;fill:#e1d152" />
  </g>
  <g
     id="#5b2073ff"
     transform="matrix(0.07453416,0,0,0.07453416,1.6557044,2.3e-7)">
    <path
       d="m 118.28,201.97 c 0.16,-1.08 -0.4,-3.83 1.6,-3.25 2.57,2.47 5.61,5.11 6.71,8.56 0.02,0.42 0.07,1.28 0.09,1.7 -1.68,-1.22 -2.96,-3.18 -5.1,-3.6 -0.49,4.39 2.03,8.8 1.01,13 -0.23,0.93 -0.71,2.78 -0.95,3.71 -0.99,-6.73 -3.31,-13.28 -3.36,-20.12 z"
       id="path569"
       inkscape:connector-curvature="0"
       style="opacity:1;fill:#5b2073" />
  </g>
  <g
     id="#5f1a84ff"
     transform="matrix(0.07453416,0,0,0.07453416,1.6557044,2.3e-7)">
    <path
       d="m 138.36,206.56 c 1.45,-3.45 4.35,-5.94 7.01,-8.45 0.18,0.68 0.56,2.05 0.74,2.74 -0.7,6.17 -1.19,12.46 -0.7,18.66 5.2,2.28 10.35,5.41 12.98,10.67 -3.32,-0.13 -7.2,-0.82 -9.89,1.64 -5.84,-4.06 -9.61,-10.11 -13.09,-16.15 1.12,-3 1.8,-6.13 2.95,-9.11 z"
       id="path572"
       inkscape:connector-curvature="0"
       style="opacity:1;fill:#5f1a84" />
    <path
       d="m 441.83,301.32 c -6.43,-5.07 -6.59,-17.36 0.92,-21.44 1.92,1.12 4.55,1.76 5.45,4.01 2.08,5.7 1.05,12.04 -1.53,17.4 l 1.19,0.28 c -2,0.14 -4.09,0.42 -6.03,-0.25 z"
       id="path574"
       inkscape:connector-curvature="0"
       style="opacity:1;fill:#5f1a84" />
  </g>
  <g
     id="#f2c718ff"
     transform="matrix(0.07453416,0,0,0.07453416,1.6557044,2.3e-7)">
    <path
       d="m 467.66,201.16 c 1.41,0.06 2.83,0.12 4.25,0.19 0.6,0.62 1.2,1.24 1.82,1.86 0.74,0.75 1.57,1.4 2.48,1.96 0.74,0.45 1.5,0.89 2.27,1.32 0.16,0.62 0.48,1.85 0.64,2.47 -1.81,0.05 -3.61,0.2 -5.39,0.44 l -0.17,0.01 -0.18,-0.17 c -0.65,-0.69 -1.3,-1.36 -1.96,-2 -0.5,-0.34 -1.51,-1 -2.02,-1.33 -0.6,-1.58 -1.2,-3.16 -1.74,-4.75 z"
       id="path577"
       inkscape:connector-curvature="0"
       style="opacity:1;fill:#f2c718" />
  </g>
  <g
     id="#1716184d"
     transform="matrix(0.07453416,0,0,0.07453416,1.6557044,2.3e-7)">
    <path
       d="m 461.25,207.81 c 1.17,-0.51 2.35,-1.02 3.53,-1.53 -0.24,0.61 -0.71,1.83 -0.95,2.44 -0.27,0.43 -0.81,1.29 -1.08,1.72 -0.06,0.1 -0.19,0.31 -0.25,0.42 -1.49,2.86 -2.93,5.74 -4.66,8.47 -0.25,-0.57 -0.74,-1.72 -0.99,-2.3 1.8,-2.9 3.3,-5.98 4.4,-9.22 z"
       id="path580"
       inkscape:connector-curvature="0"
       style="opacity:0.3;fill:#171618" />
  </g>
  <g
     id="#010101ff"
     transform="matrix(0.07453416,0,0,0.07453416,1.6557044,2.3e-7)">
    <path
       d="m 471.42,207.24 c 0.66,0.64 1.31,1.31 1.96,2 -0.63,3.03 0.91,6.14 -0.02,9.09 -0.84,-1.09 -1.51,-2.28 -2,-3.55 0.02,-2.52 0.08,-5.03 0.06,-7.54 z"
       id="path583"
       inkscape:connector-curvature="0"
       style="opacity:1;fill:#010101" />
    <path
       d="m 273.6,325.3 c 5.54,-0.69 10.54,3.34 13.19,7.87 4.05,5.74 2.96,13.26 2.14,19.8 -1.48,-0.6 -1.07,-2.32 -1.41,-3.56 -0.34,-2.74 -1.89,-5.2 -3.83,-7.1 -2.37,-1.54 -5.57,-1.29 -7.71,-3.28 -2.42,-1.72 -4.13,-4.24 -5.37,-6.9 -0.35,-2.65 1.93,-4.61 2.99,-6.83 z"
       id="path585"
       inkscape:connector-curvature="0"
       style="opacity:1;fill:#010101" />
  </g>
  <g
     id="#1a191b85"
     transform="matrix(0.07453416,0,0,0.07453416,1.6557044,2.3e-7)">
    <path
       d="m 131.02,208.86 c 2.18,0.06 3.18,2.2 2.9,4.14 -1.62,-0.84 -2.65,-2.35 -2.9,-4.14 z"
       id="path588"
       inkscape:connector-curvature="0"
       style="opacity:0.51999996;fill:#1a191b" />
  </g>
  <g
     id="#f1c861ff"
     transform="matrix(0.07453416,0,0,0.07453416,1.6557044,2.3e-7)">
    <path
       d="m 473.56,209.41 0.17,-0.01 c 1.78,-0.24 3.58,-0.39 5.39,-0.44 0.76,0.04 2.29,0.11 3.05,0.15 -1.11,0.56 -2.21,1.12 -3.32,1.67 1.59,1.62 3.32,3.13 4.63,5 0.96,2.73 -0.6,5.35 -2.17,7.47 0.72,0.19 2.14,0.58 2.85,0.78 -0.37,0.07 -1.12,0.21 -1.5,0.28 -0.39,-0.18 -1.19,-0.54 -1.58,-0.72 l -0.91,0.18 c 0.21,-2.69 0.63,-5.36 0.99,-8.04 -0.3,-0.23 -0.9,-0.68 -1.21,-0.91 -1.93,-0.88 -4.05,-1.29 -6.17,-0.88 -0.05,-1.51 -0.1,-3.02 -0.22,-4.53 z"
       id="path591"
       inkscape:connector-curvature="0"
       style="opacity:1;fill:#f1c861" />
  </g>
  <g
     id="#291f2f9b"
     transform="matrix(0.07453416,0,0,0.07453416,1.6557044,2.3e-7)">
    <path
       d="m 447.09,212.13 c 2.76,-0.63 5.53,-1.26 8.32,-1.82 -2.4,0.91 -4.78,1.87 -7.21,2.7 0.36,2.02 0.72,4.05 1.08,6.08 -3.19,1.43 -6.48,2.63 -9.77,3.79 2.67,-2.12 5.96,-3.2 8.99,-4.68 -0.45,-2.03 -0.89,-4.06 -1.41,-6.07 z"
       id="path594"
       inkscape:connector-curvature="0"
       style="opacity:0.61000001;fill:#291f2f" />
  </g>
  <g
     id="#23232488"
     transform="matrix(0.07453416,0,0,0.07453416,1.6557044,2.3e-7)">
    <path
       d="m 462.5,210.86 c 0.06,-0.11 0.19,-0.32 0.25,-0.42 -0.06,0.1 -0.19,0.31 -0.25,0.42 z"
       id="path597"
       inkscape:connector-curvature="0"
       style="opacity:0.52999998;fill:#232324" />
  </g>
  <g
     id="#4d2c5a92"
     transform="matrix(0.07453416,0,0,0.07453416,1.6557044,2.3e-7)">
    <path
       d="m 587.93,209.65 c 1.21,2.79 1.88,5.82 1.84,8.87 -1.11,-2.84 -1.64,-5.84 -1.84,-8.87 z"
       id="path600"
       inkscape:connector-curvature="0"
       style="opacity:0.56999966;fill:#4d2c5a" />
  </g>
  <g
     id="#312d2b90"
     transform="matrix(0.07453416,0,0,0.07453416,1.6557044,2.3e-7)">
    <path
       d="m 464.91,231.39 c 1.8,-5.65 3.71,-11.29 3.88,-17.29 -0.02,1.36 -0.02,2.72 -0.01,4.09 0.28,0.17 0.84,0.51 1.12,0.67 0.29,0.49 0.87,1.47 1.16,1.95 0.09,2.12 0.16,4.25 0.45,6.35 l 0.16,1.07 c -2,-2.17 -0.97,-5.36 -1.87,-7.94 -0.22,0.01 -0.65,0.03 -0.87,0.04 -1.01,3.63 -1.81,7.31 -3.03,10.88 2.13,0.5 3.52,-1.05 4.83,-2.42 l 0.21,1.09 c -0.66,0.79 -1.32,1.56 -1.99,2.33 -1.35,-0.3 -2.7,-0.57 -4.04,-0.82 z"
       id="path603"
       inkscape:connector-curvature="0"
       style="opacity:0.56000001;fill:#312d2b" />
  </g>
  <g
     id="#79593ba3"
     transform="matrix(0.07453416,0,0,0.07453416,1.6557044,2.3e-7)">
    <path
       d="m 479.95,214.82 c 0.31,0.23 0.91,0.68 1.21,0.91 -0.36,2.68 -0.78,5.35 -0.99,8.04 -1.74,0.42 -3.51,0.64 -5.28,0.82 1.54,3.4 1.54,7.14 1.37,10.79 1.24,0.93 2.47,1.86 3.74,2.76 -1.43,-0.7 -2.86,-1.41 -4.24,-2.18 1.04,-4.24 -0.29,-8.55 -1.94,-12.43 1.79,0.06 3.58,0.1 5.38,0.12 -0.59,-1.39 -1.66,-2.25 -3.21,-2.56 1.22,-0.35 2.59,-0.45 3.64,-1.24 0.58,-1.6 0.22,-3.36 0.32,-5.03 z"
       id="path606"
       inkscape:connector-curvature="0"
       style="opacity:0.63999999;fill:#79593b" />
  </g>
  <g
     id="#2c2c2ea3"
     transform="matrix(0.07453416,0,0,0.07453416,1.6557044,2.3e-7)">
    <path
       d="m 453.33,216.75 c 0.08,-0.14 0.24,-0.4 0.33,-0.54 -0.09,0.14 -0.25,0.4 -0.33,0.54 z"
       id="path609"
       inkscape:connector-curvature="0"
       style="opacity:0.63999999;fill:#2c2c2e" />
  </g>
  <g
     id="#010001ff"
     transform="matrix(0.07453416,0,0,0.07453416,1.6557044,2.3e-7)">
    <path
       d="m 254.04,217.32 c 4.16,0.75 8.2,2.04 12.02,3.84 13.25,4.84 23.23,16.65 27.42,29.95 0.73,2.69 1.52,5.36 2.41,8 3.13,-16.04 13.47,-31.67 28.97,-37.98 4.1,-1.8 8.41,-3.2 12.91,-3.47 -9.9,6.58 -19.38,14.31 -25.7,24.55 -5.74,8.64 -8.37,19.15 -7.4,29.5 2.4,-0.11 4.85,-0.16 7.14,-0.97 8.69,-2.17 13.64,-10.34 18.93,-16.85 7.26,-8.29 16.77,-16.15 28.3,-16.59 10.19,-0.39 20.91,0 30.27,4.47 4.66,2.02 5.06,7.8 4.24,12.16 -0.53,5.14 -3.33,9.56 -6.06,13.79 -6.15,8.56 -15.48,14.3 -25.1,18.18 -0.01,0.12 -0.02,0.36 -0.03,0.48 3.73,-0.21 7.5,-0.4 11.15,-1.26 6.68,-2.64 12.77,-6.52 18.44,-10.92 -0.53,1.38 -1.24,2.68 -2.06,3.91 -4.3,7.44 -11.84,12.4 -19.84,15.09 -6.91,1.42 -13.96,1.63 -20.98,1.42 12.9,7.05 28.18,5.11 42.17,3.57 -3.95,2.85 -8.73,3.97 -13.17,5.8 -5.08,2.02 -10.65,1.68 -16,1.57 -5.57,-0.14 -10.74,-2.41 -15.98,-4.05 -5.98,-2.07 -11.2,-5.73 -16.89,-8.33 2.47,4.01 4.54,8.25 7.07,12.23 -1.12,1.08 -2.24,2.16 -3.37,3.24 -3.37,-7.75 -8.43,-15.39 -16.48,-18.83 -7.06,-1.72 -14.52,-0.95 -21.36,1.35 -2.02,0.69 -4.13,0.02 -6.09,-0.49 -11.13,-3.87 -24.25,2.9 -28.8,13.48 0.43,0.26 1.29,0.79 1.72,1.05 -0.55,1.16 -1.94,0.24 -2.65,-0.2 -0.12,0.67 -0.35,2.03 -0.47,2.71 -0.79,-0.79 -1.58,-1.57 -2.37,-2.34 1.44,-3.84 3.41,-7.42 5.19,-11.1 -9.75,4.01 -19.58,7.85 -29.59,11.15 -6.89,0.56 -14.22,0.99 -20.68,-1.94 -3.9,-1.61 -8.08,-2.91 -11.14,-5.98 11.17,1.74 22.7,3.39 33.87,0.66 3.01,-0.44 5.82,-1.72 8.08,-3.76 -8.42,-0.8 -17.29,0.21 -25.16,-3.51 -8.16,-2.64 -14.86,-9.33 -17.24,-17.61 5.5,5.02 11.82,9.21 18.79,11.89 3.64,0.77 7.39,0.97 11.1,1.19 0.01,-0.11 0.01,-0.32 0.02,-0.43 -12.4,-5.74 -24.63,-14.28 -30.01,-27.35 -2.45,-4.85 -3.58,-11.99 1.38,-15.68 8.74,-5.94 19.84,-5.96 30.01,-5.57 11.36,0.36 22.73,6.11 28.84,15.86 5.69,7.23 11.72,15.67 21.18,17.9 2.45,0.73 5.03,0.4 7.54,0.36 -1.65,-10.11 -3.77,-20.33 -8.63,-29.44 -3.51,-6.26 -8,-12.05 -13.64,-16.53 -3.77,-3.18 -8.18,-5.44 -12.27,-8.17 m 123.59,33.3 c -3.44,1.82 -7.3,2.78 -11.18,3.01 -3.58,0.93 -7.28,1.37 -10.75,2.68 -2.37,1.06 -4.78,2.03 -7.08,3.24 -3.54,1.95 -7.7,2.7 -10.78,5.45 -2.27,3.49 -5.48,6.22 -7.89,9.6 2.55,2.25 5.78,3.29 8.85,4.58 3.38,1.92 7.41,1.35 11.14,1.7 3.12,0.3 5.9,-1.27 8.74,-2.27 2.01,-0.83 4.49,-1.11 5.64,-3.21 2.76,-4.12 6.23,-7.91 7.73,-12.73 0.52,-1.66 0.97,-3.35 1.7,-4.92 1.63,-2.64 4.59,-3.97 6.62,-6.23 1.16,-2.05 1.81,-4.34 2.47,-6.59 -1.74,1.89 -2.82,4.5 -5.21,5.69 M 203.01,245.9 c 0.64,2.14 1.49,4.36 3.19,5.9 2.06,1.41 4.75,1.75 6.61,3.47 1.7,2.2 2.76,4.81 4.19,7.18 1.6,5.31 6.43,8.58 9.78,12.73 1.44,1.99 3.75,2.65 6.12,2.39 l -0.05,0.19 1.03,0.08 c 6.24,3.55 13.29,0.67 19.76,-0.41 5.4,-1.46 8.88,-6.44 14.18,-7.95 -4.75,-0.19 -8.36,-3.78 -12.56,-5.57 -6.59,-4.04 -13.82,-6.82 -20.54,-10.6 -6.35,-2.34 -13.28,-1.83 -19.92,-2.09 -2.08,-0.51 -4.25,-0.83 -6.15,-1.86 -1.85,-1.21 -3.39,-2.99 -5.64,-3.46 z"
       id="path612"
       inkscape:connector-curvature="0"
       style="opacity:1;fill:#010001" />
  </g>
  <g
     id="#1b161d4a"
     transform="matrix(0.07453416,0,0,0.07453416,1.6557044,2.3e-7)">
    <path
       d="m 122.59,218.38 c 1.16,1.47 1.63,3.28 2.19,5.03 -0.69,0.26 -2.07,0.79 -2.76,1.05 -0.09,-0.59 -0.28,-1.78 -0.38,-2.37 0.24,-0.93 0.72,-2.78 0.95,-3.71 z"
       id="path615"
       inkscape:connector-curvature="0"
       style="opacity:0.28999999;fill:#1b161d" />
  </g>
  <g
     id="#4d422af9"
     transform="matrix(0.07453416,0,0,0.07453416,1.6557044,2.3e-7)">
    <path
       d="m 471.06,220.81 c 0.56,0.41 1.12,0.84 1.67,1.29 -0.84,1.56 -1.27,3.29 -1.22,5.06 -0.29,-2.1 -0.36,-4.23 -0.45,-6.35 z"
       id="path618"
       inkscape:connector-curvature="0"
       style="opacity:0.98000004;fill:#4d422a" />
  </g>
  <g
     id="#5a1f7bff"
     transform="matrix(0.07453416,0,0,0.07453416,1.6557044,2.3e-7)">
    <path
       d="m 122.02,224.46 c 0.69,-0.26 2.07,-0.79 2.76,-1.05 1.44,13.52 9.12,24.97 14.87,36.92 2.9,5.68 6.48,10.98 9.32,16.7 -7.42,-7.12 -13.13,-15.86 -18.31,-24.68 -2.11,-4.26 -4.43,-8.52 -5.35,-13.24 0.11,6.01 3.09,11.36 5.05,16.89 2.8,7.33 7.66,13.64 10.55,20.9 -7.79,-8.88 -14.65,-18.78 -18.69,-29.95 -0.9,-3.25 -1.32,-6.62 -1.71,-9.96 -0.44,-4.25 0.99,-8.36 1.51,-12.53 z"
       id="path621"
       inkscape:connector-curvature="0"
       style="opacity:1;fill:#5a1f7b" />
  </g>
  <g
     id="#232325bb"
     transform="matrix(0.07453416,0,0,0.07453416,1.6557044,2.3e-7)">
    <path
       d="m 437.43,224.78 c 0.08,-0.09 0.24,-0.27 0.32,-0.36 -0.08,0.09 -0.24,0.27 -0.32,0.36 z"
       id="path624"
       inkscape:connector-curvature="0"
       style="opacity:0.73000004;fill:#232325" />
  </g>
  <g
     id="#5f1a85ff"
     transform="matrix(0.07453416,0,0,0.07453416,1.6557044,2.3e-7)">
    <path
       d="m 109.65,248.04 c -0.86,-7.61 2.57,-15.26 8.22,-20.26 -0.98,6.33 -1.06,13.09 1.58,19.06 2.27,5.15 4.57,10.32 7.61,15.07 1.71,2.76 3.69,5.64 3.65,9.03 0.45,4.51 -3.26,8.39 -2.17,12.93 0.66,4.99 4.08,8.86 6.39,13.14 -2.49,-2.91 -3.7,-7.14 -7.49,-8.7 -4.1,-2 -7.2,-5.84 -8.1,-10.32 -0.8,-4.62 2.06,-8.69 4.36,-12.41 -7.25,-3 -13.56,-9.39 -14.05,-17.54 z"
       id="path627"
       inkscape:connector-curvature="0"
       style="opacity:1;fill:#5f1a85" />
  </g>
  <g
     id="#241c28ac"
     transform="matrix(0.07453416,0,0,0.07453416,1.6557044,2.3e-7)">
    <path
       d="m 472.35,229.2 c 0.73,1.37 0.89,2.93 1,4.45 -0.62,0.26 -1.84,0.79 -2.45,1.05 -0.49,-0.65 -0.98,-1.29 -1.47,-1.92 l -0.48,-0.57 c 0.67,-0.77 1.33,-1.54 1.99,-2.33 l 0.3,1.37 c 0.28,-0.51 0.83,-1.54 1.11,-2.05 z"
       id="path630"
       inkscape:connector-curvature="0"
       style="opacity:0.67000002;fill:#241c28" />
  </g>
  <g
     id="#1c191e8b"
     transform="matrix(0.07453416,0,0,0.07453416,1.6557044,2.3e-7)">
    <path
       d="m 430.45,237.99 c 0.67,-3.06 1.49,-6.21 3.51,-8.69 -0.98,2.98 -1.85,6 -2.59,9.05 l 1.68,-0.01 c -0.86,0.69 -1.72,1.38 -2.59,2.07 0,-0.61 -0.01,-1.82 -0.01,-2.42 z"
       id="path633"
       inkscape:connector-curvature="0"
       style="opacity:0.55;fill:#1c191e" />
  </g>
  <g
     id="#5c1d7dff"
     transform="matrix(0.07453416,0,0,0.07453416,1.6557044,2.3e-7)">
    <path
       d="m 464.91,231.39 c 1.34,0.25 2.69,0.52 4.04,0.82 l 0.48,0.57 c -2,7.03 -5.9,13.33 -9.68,19.52 -1.36,-1 -2.63,-0.49 -3.73,0.55 3.2,-7.04 6.84,-13.97 8.89,-21.46 z"
       id="path636"
       inkscape:connector-curvature="0"
       style="opacity:1;fill:#5c1d7d" />
  </g>
  <g
     id="#d11921ff"
     transform="matrix(0.07453416,0,0,0.07453416,1.6557044,2.3e-7)">
    <path
       d="m 377.63,250.62 c 2.39,-1.19 3.47,-3.8 5.21,-5.69 -0.66,2.25 -1.31,4.54 -2.47,6.59 -2.03,2.26 -4.99,3.59 -6.62,6.23 -0.73,1.57 -1.18,3.26 -1.7,4.92 -3.81,-1.24 -5.53,-5.31 -5.6,-9.04 3.88,-0.23 7.74,-1.19 11.18,-3.01 z"
       id="path639"
       inkscape:connector-curvature="0"
       style="opacity:1;fill:#d11921" />
  </g>
  <g
     id="#d4181eff"
     transform="matrix(0.07453416,0,0,0.07453416,1.6557044,2.3e-7)">
    <path
       d="m 203.01,245.9 c 2.25,0.47 3.79,2.25 5.64,3.46 1.9,1.03 4.07,1.35 6.15,1.86 2.36,0.5 4.75,0.83 7.14,1.17 -0.05,3.97 -2.1,7.42 -4.94,10.06 -1.43,-2.37 -2.49,-4.98 -4.19,-7.18 -1.86,-1.72 -4.55,-2.06 -6.61,-3.47 -1.7,-1.54 -2.55,-3.76 -3.19,-5.9 z"
       id="path642"
       inkscape:connector-curvature="0"
       style="opacity:1;fill:#d4181e" />
  </g>
  <g
     id="#9f181cff"
     transform="matrix(0.07453416,0,0,0.07453416,1.6557044,2.3e-7)">
    <path
       d="m 214.8,251.22 c 6.64,0.26 13.57,-0.25 19.92,2.09 -0.83,4.22 0.77,8.39 0.4,12.62 -0.24,3.96 -1.2,7.82 -2.22,11.64 -2.37,0.26 -4.68,-0.4 -6.12,-2.39 -3.35,-4.15 -8.18,-7.42 -9.78,-12.73 2.84,-2.64 4.89,-6.09 4.94,-10.06 -2.39,-0.34 -4.78,-0.67 -7.14,-1.17 z"
       id="path645"
       inkscape:connector-curvature="0"
       style="opacity:1;fill:#9f181c" />
  </g>
  <g
     id="#1a171c4a"
     transform="matrix(0.07453416,0,0,0.07453416,1.6557044,2.3e-7)">
    <path
       d="m 456.02,252.85 c 1.1,-1.04 2.37,-1.55 3.73,-0.55 -1.44,1.87 -2.83,3.77 -4.17,5.71 -0.51,-0.23 -1.51,-0.67 -2.01,-0.89 0.85,-1.4 1.67,-2.83 2.45,-4.27 z"
       id="path648"
       inkscape:connector-curvature="0"
       style="opacity:0.28999999;fill:#1a171c" />
  </g>
  <g
     id="#db151cff"
     transform="matrix(0.07453416,0,0,0.07453416,1.6557044,2.3e-7)">
    <path
       d="m 235.12,265.93 c 0.37,-4.23 -1.23,-8.4 -0.4,-12.62 6.72,3.78 13.95,6.56 20.54,10.6 -0.09,4.2 -0.06,8.6 -1.97,12.46 -6.22,2.21 -12.92,2.29 -19.41,1.47 l -1.03,-0.08 0.05,-0.19 c 1.02,-3.82 1.98,-7.68 2.22,-11.64 z"
       id="path651"
       inkscape:connector-curvature="0"
       style="opacity:1;fill:#db151c" />
  </g>
  <g
     id="#9e181cff"
     transform="matrix(0.07453416,0,0,0.07453416,1.6557044,2.3e-7)">
    <path
       d="m 355.7,256.31 c 3.47,-1.31 7.17,-1.75 10.75,-2.68 0.07,3.73 1.79,7.8 5.6,9.04 -1.5,4.82 -4.97,8.61 -7.73,12.73 -1.15,2.1 -3.63,2.38 -5.64,3.21 -2.84,1 -5.62,2.57 -8.74,2.27 -3.73,-0.35 -7.76,0.22 -11.14,-1.7 -3.07,-1.29 -6.3,-2.33 -8.85,-4.58 2.41,-3.38 5.62,-6.11 7.89,-9.6 0.37,4.63 0.12,10.06 3.57,13.65 5.53,1.65 11.78,1.05 17.04,-1.42 -2.22,-6.75 -3.3,-13.82 -2.75,-20.92 z"
       id="path654"
       inkscape:connector-curvature="0"
       style="opacity:1;fill:#9e181c" />
  </g>
  <g
     id="#da161cff"
     transform="matrix(0.07453416,0,0,0.07453416,1.6557044,2.3e-7)">
    <path
       d="m 348.62,259.55 c 2.3,-1.21 4.71,-2.18 7.08,-3.24 -0.55,7.1 0.53,14.17 2.75,20.92 -5.26,2.47 -11.51,3.07 -17.04,1.42 -3.45,-3.59 -3.2,-9.02 -3.57,-13.65 3.08,-2.75 7.24,-3.5 10.78,-5.45 z"
       id="path657"
       inkscape:connector-curvature="0"
       style="opacity:1;fill:#da161c" />
  </g>
  <g
     id="#5f1a86ff"
     transform="matrix(0.07453416,0,0,0.07453416,1.6557044,2.3e-7)">
    <path
       d="m 460.36,271.99 c -0.25,-4.34 3.21,-7.51 5.26,-10.97 l -0.3,1.03 c 4.86,4.72 5.35,12.49 2.83,18.5 -1.84,2.57 -4.94,4.12 -6.16,7.14 -0.69,1.44 -1.28,2.92 -2.03,4.34 1.12,-2.62 2.14,-5.31 2.72,-8.1 0.76,-4.21 -2.45,-7.79 -2.32,-11.94 z"
       id="path660"
       inkscape:connector-curvature="0"
       style="opacity:1;fill:#5f1a86" />
  </g>
  <g
     id="#92181bff"
     transform="matrix(0.07453416,0,0,0.07453416,1.6557044,2.3e-7)">
    <path
       d="m 255.26,263.91 c 4.2,1.79 7.81,5.38 12.56,5.57 -5.3,1.51 -8.78,6.49 -14.18,7.95 -6.47,1.08 -13.52,3.96 -19.76,0.41 6.49,0.82 13.19,0.74 19.41,-1.47 1.91,-3.86 1.88,-8.26 1.97,-12.46 z"
       id="path663"
       inkscape:connector-curvature="0"
       style="opacity:1;fill:#92181b" />
  </g>
  <g
     id="#b6122cff"
     transform="matrix(0.07453416,0,0,0.07453416,1.6557044,2.3e-7)">
    <path
       d="m 135.41,284.56 c 1.5,-3.5 5.33,-7.43 9.42,-5.39 -2.29,1.08 -4.93,2.13 -6.09,4.57 -1.58,5.91 -0.67,12.37 3.02,17.33 -1.67,-0.54 -3.33,-1.1 -5,-1.66 -1.87,-4.66 -3.55,-9.99 -1.35,-14.85 z"
       id="path666"
       inkscape:connector-curvature="0"
       style="opacity:1;fill:#b6122c" />
  </g>
  <g
     id="#da3935ff"
     transform="matrix(0.07453416,0,0,0.07453416,1.6557044,2.3e-7)">
    <path
       d="m 442.75,279.88 c 3.42,-1.45 7,0.97 8.57,3.97 1.69,3.04 1.35,6.69 1.16,10.04 -0.04,3.22 -2.56,5.52 -4.62,7.68 l -1.19,-0.28 c 2.58,-5.36 3.61,-11.7 1.53,-17.4 -0.9,-2.25 -3.53,-2.89 -5.45,-4.01 z"
       id="path669"
       inkscape:connector-curvature="0"
       style="opacity:1;fill:#da3935" />
  </g>
  <g
     id="#553266a6"
     transform="matrix(0.07453416,0,0,0.07453416,1.6557044,2.3e-7)">
    <path
       d="m 0,281.07 0.67,1.22 c 0.39,4.75 0.13,9.52 0.3,14.28 L 0,297.81 Z"
       id="path672"
       inkscape:connector-curvature="0"
       style="opacity:0.65;fill:#553266" />
  </g>
  <g
     id="#43234e85"
     transform="matrix(0.07453416,0,0,0.07453416,1.6557044,2.3e-7)">
    <path
       d="m 0,297.81 0.97,-1.24 c 0.49,8.39 2.22,16.62 3.98,24.82 C 1.84,314.98 2.19,307.69 0,301.05 Z"
       id="path675"
       inkscape:connector-curvature="0"
       style="opacity:0.51999996;fill:#43234e" />
  </g>
  <g
     id="#1d181d98"
     transform="matrix(0.07453416,0,0,0.07453416,1.6557044,2.3e-7)">
    <path
       d="m 452.32,302.22 c -0.62,-2.33 1.4,-4.25 3.66,-4.14 -0.68,1.8 -2.03,3.16 -3.66,4.14 z"
       id="path678"
       inkscape:connector-curvature="0"
       style="opacity:0.6;fill:#1d181d" />
  </g>
  <g
     id="#000101ff"
     transform="matrix(0.07453416,0,0,0.07453416,1.6557044,2.3e-7)">
    <path
       d="m 310.54,326.4 c 3.27,-3 9.27,-2.49 11.58,1.45 2.46,1.94 3.36,5.46 1.97,8.3 -1.44,1.57 -2.88,3.15 -4.33,4.71 -1.74,1.13 -3.93,1.29 -5.89,1.89 -4.59,2.11 -8.39,6.34 -8.71,11.56 -2.05,-1.02 -1.52,-3.47 -1.8,-5.33 -0.55,-8.01 1.19,-16.83 7.18,-22.58 z"
       id="path681"
       inkscape:connector-curvature="0"
       style="opacity:1;fill:#000101" />
  </g>
  <g
     id="#37203e80"
     transform="matrix(0.07453416,0,0,0.07453416,1.6557044,2.3e-7)">
    <path
       d="m 438.62,338.7 c 10.82,1.68 21.74,1.77 32.66,1.53 -10.44,1.7 -21.07,0.46 -31.5,-0.73 0.56,3.04 1.02,6.09 1.42,9.16 3.11,0.19 6.19,0.65 9.22,1.4 -3.27,-0.29 -6.55,-0.38 -9.82,-0.41 -0.24,-3.71 -0.73,-7.43 -1.98,-10.95 z"
       id="path684"
       inkscape:connector-curvature="0"
       style="opacity:0.5;fill:#37203e" />
  </g>
  <g
     id="#532a61ac"
     transform="matrix(0.07453416,0,0,0.07453416,1.6557044,2.3e-7)">
    <path
       d="m 70.67,355.43 c -2.14,-3.54 -1.91,-7.92 -0.8,-11.76 -0.04,3.93 0.13,7.88 0.8,11.76 z"
       id="path687"
       inkscape:connector-curvature="0"
       style="opacity:0.67000002;fill:#532a61" />
  </g>
  <g
     id="#e20314ff"
     transform="matrix(0.07453416,0,0,0.07453416,1.6557044,2.3e-7)">
    <path
       d="m 284.86,428.05 c -1.18,-8.23 -1.25,-17.55 4.76,-24.04 1.37,3.16 3.31,6.28 6.36,8.04 3.31,1.87 6.83,3.6 9.48,6.39 1.59,1.57 2.37,4.54 5.11,4.25 2.61,2.33 2.32,6.09 2.19,9.28 0.02,5.58 -3.99,10.45 -8.82,12.87 0.76,-1.58 1.81,-2.99 2.96,-4.28 -4.77,0.03 -2.19,-5.71 -4.07,-8.45 -1.78,-4.47 -6.5,-6.41 -9.26,-10.12 -2.21,6.23 -1.49,13.5 2.36,18.94 -2.64,-0.34 -5.12,-1.34 -7.59,-2.27 0.23,2.33 2.35,3.69 3.74,5.35 -3.25,-1.04 -6.94,-2.02 -9,-4.97 -3.28,-4.97 -5.69,-11.28 -3.49,-17.17 1.52,2.24 3.16,4.44 5.27,6.18 z"
       id="path690"
       inkscape:connector-curvature="0"
       style="opacity:1;fill:#e20314" />
  </g>
  <g
     id="#19191a7f"
     transform="matrix(0.07453416,0,0,0.07453416,1.6557044,2.3e-7)">
    <path
       d="m 419.94,416.7 c 0.74,-0.56 1.35,-0.46 1.83,0.29 2.56,3.07 3.79,6.94 5.31,10.58 -2.62,-2.67 -3.42,-6.46 -5.54,-9.46 -0.29,0.01 -0.86,0.02 -1.15,0.02 -1.18,2.81 -2.14,5.71 -3.39,8.5 0.66,-3.39 1.33,-6.84 2.94,-9.93 z"
       id="path693"
       inkscape:connector-curvature="0"
       style="opacity:0.5;fill:#19191a" />
  </g>
  <g
     id="#15151689"
     transform="matrix(0.07453416,0,0,0.07453416,1.6557044,2.3e-7)">
    <path
       d="m 165.22,425.05 c 3.74,-2.78 7.34,-5.75 11.31,-8.19 -2.8,3.85 -6.91,6.51 -11.31,8.19 z"
       id="path696"
       inkscape:connector-curvature="0"
       style="opacity:0.54000005;fill:#151516" />
  </g>
  <g
     id="#2b203088"
     transform="matrix(0.07453416,0,0,0.07453416,1.6557044,2.3e-7)">
    <path
       d="m 176.65,416.78 0.75,0.42 c 1.67,7.94 3.21,15.9 4.47,23.91 -0.35,-1.02 -0.67,-2.05 -0.97,-3.07 -5.57,-0.13 -10.92,1.47 -16.26,2.78 4.85,-2.64 10.43,-3.01 15.79,-3.73 -1.16,-6.79 -2.85,-13.48 -3.78,-20.31 z"
       id="path699"
       inkscape:connector-curvature="0"
       style="opacity:0.52999998;fill:#2b2030" />
  </g>
  <g
     id="#572f68ac"
     transform="matrix(0.07453416,0,0,0.07453416,1.6557044,2.3e-7)">
    <path
       d="m 536.8,420.83 c 4.44,1.54 9.14,1.19 13.7,0.51 -4.17,2.27 -9.86,2.57 -13.7,-0.51 z"
       id="path702"
       inkscape:connector-curvature="0"
       style="opacity:0.67000002;fill:#572f68" />
  </g>
  <g
     id="#811621ff"
     transform="matrix(0.07453416,0,0,0.07453416,1.6557044,2.3e-7)">
    <path
       d="m 293.75,443.85 c 1.31,-0.84 2.49,-3.32 4.3,-2.3 1.79,1.38 -0.22,3.92 -2.07,3.77 -0.56,-0.36 -1.67,-1.1 -2.23,-1.47 z"
       id="path705"
       inkscape:connector-curvature="0"
       style="opacity:1;fill:#811621" />
  </g>
  <g
     id="#5e277ad4"
     transform="matrix(0.07453416,0,0,0.07453416,1.6557044,2.3e-7)">
    <path
       d="m 99.44,472.51 c 1.79,-0.62 3.68,-0.76 5.55,-0.74 12.19,0.09 24.38,0.01 36.58,0.04 l -0.08,0.86 c -14.01,0.06 -28.04,0.32 -42.05,-0.16 z"
       id="path708"
       inkscape:connector-curvature="0"
       style="opacity:0.82999998;fill:#5e277a" />
  </g>
  <g
     id="#fff000ff"
     transform="matrix(0.07453416,0,0,0.07453416,1.6557044,2.3e-7)">
    <path
       d="m 238.95,496.59 c 4.27,-2.44 8.67,-4.9 13.05,-7 35.3,-0.16 70.61,-0.02 105.91,-0.08 -2.15,6.32 -5.63,12.12 -8.79,17.98 -29.06,-0.08 -58.11,0 -87.16,-0.03 -2.03,-0.13 -3.55,1.45 -5.14,2.46 -2.86,2.27 -6.04,4.1 -8.79,6.5 -2.74,0.28 -5.49,0.38 -8.24,0.39 -1.33,-2.72 -2.46,-5.53 -3.37,-8.42 -0.89,-2.82 -2.77,-5.34 -3.1,-8.32 1.15,-1.89 3.78,-2.39 5.63,-3.48 z"
       id="path711"
       inkscape:connector-curvature="0"
       style="opacity:1;fill:#fff000" />
    <path
       d="m 83.63,504.4 c 7.46,-4.86 14.81,-9.87 22.21,-14.82 28.71,-0.15 57.43,0.01 86.15,-0.08 4.29,-0.35 8.02,2.11 11.76,3.83 3.73,2.5 6.57,6.32 7.55,10.75 2.51,7.89 0.41,16.19 -1.94,23.85 -3.12,8.09 -7.97,15.37 -13.36,22.13 -0.84,1.01 -2.14,2.54 -3.47,1.23 -4.41,-3.33 -9.25,-6.16 -13.24,-9.99 1.93,-2.32 2.84,-5.24 4.31,-7.83 2.83,-4.59 2.44,-10.31 1.77,-15.43 -1.85,-4.03 -5.79,-6.85 -9.79,-8.5 -4.46,-1.03 -9.01,-1.87 -13.59,-2.04 -27.39,-0.18 -54.79,0.15 -82.18,-0.16 0.95,-1.38 2.48,-2.06 3.82,-2.94 z"
       id="path713"
       inkscape:connector-curvature="0"
       style="opacity:1;fill:#fff000" />
    <path
       d="m 105.64,516.54 c 8.92,-0.04 17.83,-0.06 26.74,0.01 0,20.7 0.05,41.41 -0.02,62.12 10.96,-0.09 21.93,0.29 32.88,-0.2 4.99,-1 10.63,-1.01 14.73,-4.42 3.01,-2.04 4.18,-6.36 2.47,-9.6 -0.88,-4.16 -4.38,-6.8 -6.34,-10.35 -0.59,-1.31 -1.13,-2.63 -1.69,-3.94 1.25,0.3 2.5,0.59 3.74,0.93 2.02,0.73 3.64,2.21 5.31,3.53 8.16,6.85 16.6,13.88 21.82,23.36 1.17,3.36 2.73,7.15 1.17,10.63 -1.41,4.57 -6.49,6.18 -10.46,7.87 -12.31,0.57 -24.66,0.08 -36.99,0.24 -17.82,-0.12 -35.66,0.24 -53.47,-0.19 0.18,-26.67 -0.04,-53.33 0.11,-79.99 z"
       id="path715"
       inkscape:connector-curvature="0"
       style="opacity:1;fill:#fff000" />
    <path
       d="m 278.35,596.64 c -0.03,-26.72 -0.25,-53.46 0.11,-80.18 11.68,0.07 23.36,0.06 35.04,0.01 0.23,20.18 0.06,40.35 0.09,60.53 0.22,3.6 -2.23,6.47 -3.78,9.5 -4.31,9.26 -9.06,18.31 -13.58,27.47 -6.47,-5.21 -11.7,-11.78 -17.88,-17.33 z"
       id="path717"
       inkscape:connector-curvature="0"
       style="opacity:1;fill:#fff000" />
  </g>
  <g
     id="#fff100ff"
     transform="matrix(0.07453416,0,0,0.07453416,1.6557044,2.3e-7)">
    <path
       d="m 381.93,489.64 c 27.66,-0.27 55.34,-0.04 83.01,-0.12 9.98,-0.98 20.55,4.87 24.41,14.28 4.03,9.22 3.61,19.8 0.8,29.31 -3.08,11.42 -9.06,22.17 -17.71,30.32 -2.95,2.25 -5.79,4.85 -9.41,5.96 0.79,2.89 3.99,3.76 6.03,5.58 7.75,5.92 15.6,11.7 23.35,17.63 1.65,1.24 3.51,2.3 4.75,4.03 -14.63,0.14 -29.26,0.13 -43.88,0.01 -5.58,-6.37 -12.01,-11.94 -17.78,-18.14 -2.7,-3.05 -6.18,-5.38 -8.43,-8.79 9.2,-5.65 17.49,-12.88 24.24,-21.32 5.01,-7.27 10.04,-16.47 6.89,-25.48 -1.7,-6.6 -7.86,-10.57 -13.72,-13.13 -3.78,-0.95 -7.5,-2.54 -11.46,-2.34 -21,0.06 -42,0 -63,0.03 3.51,-6.24 8.54,-11.5 11.91,-17.83 z"
       id="path720"
       inkscape:connector-curvature="0"
       style="opacity:1;fill:#fff100" />
    <path
       d="m 382.31,596.71 c 0.13,-26.75 -0.17,-53.51 0.15,-80.27 8.78,0.2 17.57,-0.06 26.36,0.12 -0.1,26.72 0.01,53.44 -0.06,80.16 -8.82,-0.01 -17.63,0 -26.45,-0.01 z"
       id="path722"
       inkscape:connector-curvature="0"
       style="opacity:1;fill:#fff100" />
  </g>
  <g
     id="#692c8aee"
     transform="matrix(0.07453416,0,0,0.07453416,1.6557044,2.3e-7)">
    <path
       d="m 87.79,525.35 0.94,0.04 c 0.67,29.67 -0.26,59.38 0.43,89.05 l -1.23,-0.07 c -0.28,-29.67 0,-59.35 -0.14,-89.02 z"
       id="path725"
       inkscape:connector-curvature="0"
       style="opacity:0.93000034;fill:#692c8a" />
  </g>
  <g
     id="#ffeb22ff"
     transform="matrix(0.07453416,0,0,0.07453416,1.6557044,2.3e-7)">
    <path
       d="m 152.11,535.18 c 7.52,3.39 14.74,7.42 21.49,12.16 1.57,1.17 3.4,2.09 4.55,3.75 -1.24,-0.34 -2.49,-0.63 -3.74,-0.93 0.56,1.31 1.1,2.63 1.69,3.94 -3.87,-2.81 -7.08,-6.42 -10.94,-9.24 -4.12,-3.54 -8.84,-6.27 -13.05,-9.68 z"
       id="path728"
       inkscape:connector-curvature="0"
       style="opacity:1;fill:#ffeb22" />
  </g>
  <g
     id="#53336295"
     transform="matrix(0.07453416,0,0,0.07453416,1.6557044,2.3e-7)">
    <path
       d="m 331.33,536.25 c 0.37,-0.17 1.09,-0.52 1.46,-0.69 l -0.17,0.73 c -1.25,6.7 -0.21,13.59 -0.58,20.37 0.51,-0.08 1.55,-0.25 2.06,-0.33 -0.78,0.59 -3.32,1.62 -2.92,-0.36 -0.04,-6.57 -0.27,-13.17 0.15,-19.72 z"
       id="path731"
       inkscape:connector-curvature="0"
       style="opacity:0.57999998;fill:#533362" />
  </g>
</svg>
