<?xml version="1.0" encoding="utf-8"?>
<!-- Generator: Adobe Illustrator 23.0.2, SVG Export Plug-In . SVG Version: 6.00 Build 0)  -->
<svg version="1.1" id="Layer_1" xmlns="http://www.w3.org/2000/svg" xmlns:xlink="http://www.w3.org/1999/xlink" x="0px" y="0px"
	 width="64px" height="64px" viewBox="0 0 64 64" enable-background="new 0 0 64 64" xml:space="preserve">
<g>
	<g>
		<path fill="#FFFFFF" d="M58.407,20.757c-0.071,0.114,0.039,0.068,0.069,0.07c0.36,0.023,0.72,0.042,1.079,0.06
			c1.08,0.055,2.16,0.11,3.24,0.164c0.061,0.003,0.122,0.001,0.183,0.001c0.056,0.002,0.111,0.004,0.167,0.005
			c0.27,0.035,0.541,0.042,0.813,0.038c0.014,0.005,0.028,0.011,0.043,0.016c-0.301,0.153-0.623,0.255-0.936,0.38
			c-1.904,0.761-3.834,1.458-5.714,2.279c-2.766,1.208-5.406,2.65-7.971,4.236c-0.061,0.038-0.117,0.086-0.191,0.097
			c0,0-0.01-0.001-0.01-0.001c-0.012-0.009-0.025-0.018-0.037-0.028c0,0-0.002-0.001-0.002-0.001
			c0.051-0.004,0.073-0.042,0.093-0.082c0.038-0.021,0.066-0.051,0.082-0.092c0.446-0.456,0.878-0.925,1.338-1.367
			c0.624-0.601,1.265-1.182,1.93-1.738c0.034-0.028,0.064-0.06,0.096-0.091c0.028-0.013,0.073-0.033,0.048-0.062
			c-0.035-0.041-0.085-0.015-0.124,0.014c-0.55,0.15-1.102,0.296-1.651,0.452c-2.624,0.746-5.236,1.529-7.845,2.324
			c-0.058,0.018-0.118,0.028-0.178,0.042c-0.016-0.011-0.035-0.019-0.03-0.045c0.548-0.223,1.097-0.445,1.644-0.67
			c2.052-0.847,4.11-1.68,6.175-2.495c0.041-0.016,0.081-0.034,0.122-0.051c0.061-0.022,0.123-0.044,0.219-0.078
			c-0.102-0.008-0.165-0.02-0.229,0.007c-1.922,0.286-3.822,0.687-5.713,1.134c-2.624,0.621-5.22,1.347-7.82,2.059
			c-0.015,0.004-0.028,0.016-0.042,0.025c-0.028,0.004-0.055,0.009-0.083,0.013c-0.039-0.01-0.075,0-0.113,0.01
			c-0.783,0.222-1.569,0.435-2.349,0.666c-0.207,0.061-0.431,0.082-0.619,0.205c-0.016,0.003-0.033,0.005-0.049,0.01
			c-3.151,0.893-6.303,1.787-9.454,2.678c-0.094,0.027-0.132,0.072-0.15,0.167c-0.446,2.28,0.179,4.218,1.957,5.707
			c1.546,1.295,3.343,1.64,5.297,1.097c0.052-0.015,0.079,0.024,0.11,0.054c0.116,0.11,0.232,0.221,0.348,0.331
			c0.627,0.593,1.254,1.187,1.881,1.78c-0.818,0.44-1.691,0.715-2.606,0.862c-0.257,0.041-0.516,0.068-0.775,0.101
			c-0.056,0.002-0.111,0.004-0.167,0.005c-0.289,0-0.578,0-0.867,0c-0.044-0.001-0.089-0.003-0.133-0.004
			c-0.657-0.069-1.313-0.157-1.942-0.369c-3.281-1.109-5.289-3.355-6.003-6.75c-0.069-0.327-0.088-0.66-0.131-0.99
			c-0.002-0.067-0.004-0.133-0.006-0.2c0-0.234,0-0.467,0.001-0.701c0.014-0.193,0.014-0.193-0.092-0.165
			c-0.674,0.181-1.349,0.358-2.023,0.542c-2.605,0.713-5.224,1.369-7.871,1.911c-1.941,0.397-3.89,0.749-5.853,1.022
			c-1.523,0.212-3.047,0.412-4.575,0.586c-0.11,0.013-0.22,0.028-0.329,0.043c-0.033,0.002-0.067,0.003-0.1,0.005
			C0.382,35.973,0.208,36.032,0,35.999c2.529-1.022,5.078-1.89,7.617-2.785c4-1.41,7.969-2.906,11.952-4.362
			c5.043-1.843,10.146-3.503,15.32-4.941c2.85-0.792,5.717-1.511,8.622-2.075c1.652-0.321,3.314-0.576,4.988-0.751
			c1.525-0.16,3.055-0.251,4.587-0.297c0.03-0.001,0.069,0.014,0.083-0.031c1.312,0,2.625,0,3.937,0
			c0.175,0.066,0.356,0.025,0.534,0.031c0.18,0.01,0.361,0.022,0.541,0.031c0.038,0.002,0.1,0.016,0.059-0.062
			C58.296,20.757,58.352,20.757,58.407,20.757z"/>
		<path fill="#FFFFFF" d="M43.548,34.731c-0.212,0.218-0.425,0.436-0.637,0.655c-0.526,0.541-1.078,1.053-1.622,1.575
			c-0.032,0.009-0.056,0.028-0.069,0.059c-0.606,0.522-1.207,1.05-1.837,1.544c-1.277,1.001-2.545,2.013-3.929,2.867
			c-1.288,0.795-2.665,1.362-4.159,1.629c-0.24,0.043-0.483,0.072-0.724,0.11c-0.034,0.005-0.12-0.012-0.053,0.073
			c-0.033,0-0.067,0-0.1,0c-0.047-0.136-0.135-0.013-0.2-0.032c-0.089,0.01-0.185-0.036-0.267,0.032c-0.089,0-0.178,0-0.267,0
			c-0.234-0.052-0.467-0.054-0.701,0c-0.089,0-0.178,0-0.267,0c-0.082-0.066-0.177-0.029-0.267-0.036
			c-0.121-0.036-0.122-0.036-0.133,0.036c-0.044,0-0.089,0-0.133,0c0.059-0.112-0.05-0.076-0.083-0.082
			c-0.279-0.05-0.56-0.084-0.838-0.138c-1.19-0.232-2.338-0.609-3.481-1.003c-4.265-1.469-8.581-2.761-12.988-3.739
			c-1.664-0.369-3.342-0.661-5.027-0.914c-0.746-0.112-1.491-0.235-2.237-0.352c-0.06-0.009-0.121-0.011-0.182-0.017
			c0.001-0.01-0.003-0.018-0.01-0.025c0.977-0.079,1.953-0.158,2.93-0.238c0.099-0.008,0.198-0.022,0.296-0.034
			c0.044-0.001,0.089-0.003,0.133-0.004c0.713-0.055,1.426-0.113,2.14-0.163c1.056-0.074,2.113-0.141,3.17-0.21
			c0.122-0.008,0.243-0.012,0.365-0.017c-0.002,0.02-0.003,0.039-0.005,0.059c-0.852,0.18-1.705,0.359-2.557,0.539
			c-0.037,0.008-0.074,0.022-0.11,0.033c-0.041,0-0.083-0.009-0.122,0.018c0.039,0.023,0.08,0.025,0.122,0.021
			c0.499,0.074,0.998,0.147,1.497,0.222c1.878,0.282,3.735,0.673,5.581,1.117c2.812,0.677,5.569,1.536,8.306,2.466
			c1.004,0.341,2.019,0.643,3.072,0.799c1.686,0.249,3.321,0.039,4.911-0.552c1.11-0.413,2.124-1.009,3.106-1.659
			c2.025-1.341,4.026-2.715,5.878-4.292c0.207-0.176,0.41-0.357,0.614-0.535c0.023-0.019,0.047-0.037,0.07-0.056
			c0.716-0.606,1.406-1.241,2.067-1.906c0.126-0.095,0.232-0.211,0.335-0.329c0.127-0.095,0.236-0.208,0.333-0.333
			c0.135-0.118,0.263-0.243,0.379-0.38c0.224-0.219,0.445-0.439,0.648-0.678c0.04-0.019,0.067-0.05,0.087-0.089
			c0.148-0.148,0.296-0.296,0.444-0.444c0.009,0.007,0.018,0.014,0.027,0.021c-0.097,0.148-0.194,0.296-0.292,0.445
			c-0.037,0.025-0.06,0.06-0.074,0.102c-0.393,0.516-0.782,1.034-1.179,1.546c-0.561,0.724-1.167,1.41-1.785,2.085
			c-0.033,0.036-0.063,0.076-0.095,0.114C43.59,34.66,43.564,34.691,43.548,34.731z"/>
		<path fill="#FEFEFE" d="M58.24,20.757c0.04,0.078-0.022,0.063-0.059,0.062c-0.18-0.009-0.361-0.02-0.541-0.031
			c0-0.01,0-0.021,0-0.031C57.84,20.757,58.04,20.757,58.24,20.757z"/>
		<path fill="#FFFFFF" d="M28.982,43.243c0.234-0.054,0.467-0.052,0.701,0C29.449,43.243,29.215,43.243,28.982,43.243z"/>
		<path fill="#FEFEFE" d="M57.64,20.757c0,0.01,0,0.021,0,0.031c-0.178-0.006-0.359,0.035-0.534-0.031
			C57.284,20.757,57.462,20.757,57.64,20.757z"/>
		<path fill="#FEFEFE" d="M28.448,43.207c0.09,0.007,0.185-0.031,0.267,0.036c-0.089,0-0.178,0-0.267,0
			C28.448,43.231,28.448,43.219,28.448,43.207z"/>
		<path fill="#FEFEFE" d="M29.949,43.243c0.082-0.068,0.178-0.022,0.267-0.032c0,0.011,0,0.021,0,0.032
			C30.127,43.243,30.038,43.243,29.949,43.243z"/>
		<path fill="#FEFEFE" d="M30.216,43.243c0-0.011,0-0.021,0-0.032c0.065,0.019,0.154-0.103,0.2,0.032
			C30.349,43.243,30.283,43.243,30.216,43.243z"/>
		<path fill="#FEFEFE" d="M28.448,43.207c0,0.012,0,0.024,0,0.036c-0.044,0-0.089,0-0.133,0
			C28.326,43.172,28.327,43.171,28.448,43.207z"/>
		<path fill="#FE508C" d="M34.091,28.255c0.188-0.123,0.411-0.144,0.619-0.205c0.78-0.231,1.566-0.444,2.349-0.666
			c0.038-0.011,0.074-0.02,0.113-0.01c0.004,0.036,0.004,0.072,0.041,0.094c0.006,0.01,0.011,0.02,0.017,0.03
			c0.008,0.011,0.017,0.022,0.025,0.033c0.203,0.328,0.401,0.659,0.578,1.002c0.007,0.011,0.015,0.021,0.022,0.032
			c0.003,0.011,0.006,0.023,0.01,0.034c0.008,0.012,0.015,0.024,0.023,0.036c0.228,0.52,0.428,1.049,0.575,1.598
			c-0.004,0.027,0.003,0.051,0.025,0.069c-0.009,0.082,0.031,0.154,0.045,0.232c0.008,0.022,0.015,0.044,0.023,0.066
			c0.014,0.089,0.029,0.179,0.043,0.268c0.007,0.023,0.014,0.047,0.021,0.07c-0.004,0.01-0.003,0.019,0.004,0.027
			c-0.001,0.069-0.01,0.14,0.032,0.202c0.003,0.045,0.006,0.089,0.009,0.134c-0.005,0.038-0.007,0.075,0.022,0.105
			c0.003,0.054,0.007,0.107,0.01,0.161c-0.003,0.059-0.016,0.12,0.023,0.173c0.004,0.143,0.007,0.285,0.011,0.428
			c0,0.143,0,0.286,0,0.429c-0.004,0.143-0.008,0.285-0.011,0.428c-0.041,0.053-0.026,0.114-0.023,0.173
			c-0.003,0.055-0.006,0.109-0.01,0.164c-0.03,0.029-0.027,0.066-0.022,0.103c-0.003,0.045-0.006,0.09-0.01,0.136
			c-0.041,0.062-0.033,0.132-0.031,0.2c-0.006,0.009-0.008,0.018-0.004,0.028c-0.02,0.019-0.027,0.043-0.021,0.07
			c-0.004,0.042-0.009,0.084-0.013,0.126c-0.023,0.02-0.027,0.046-0.022,0.075c-0.025,0.122-0.051,0.243-0.076,0.365
			c-0.021,0.018-0.029,0.041-0.025,0.069c-0.253,0.938-0.636,1.818-1.172,2.63c-0.261,0.394-0.558,0.759-0.868,1.115
			c-0.149,0.152-0.299,0.303-0.448,0.455c-0.376,0.318-0.75,0.638-1.167,0.902c-0.252,0.159-0.502,0.322-0.777,0.442
			c-0.627-0.593-1.254-1.187-1.881-1.78c-0.116-0.11-0.232-0.221-0.348-0.331c-0.031-0.029-0.057-0.068-0.11-0.053
			c-0.021-0.025-0.04-0.053-0.064-0.075c-0.607-0.579-1.213-1.158-1.822-1.735c-0.766-0.726-1.537-1.447-2.299-2.176
			c-0.199-0.19-0.376-0.402-0.566-0.607c2.411-0.727,4.844-1.462,7.278-2.196c-0.004,0.052-0.022,0.073-0.04,0.092
			c-0.805,0.852-1.609,1.705-2.418,2.553c-0.088,0.092-0.086,0.139,0.007,0.222c0.257,0.229,0.505,0.468,0.755,0.705
			c0.541,0.512,1.08,1.025,1.621,1.535c0.054,0.051,0.096,0.132,0.194,0.026c1.706-1.838,1.98-4.727,0.652-6.879
			C34.735,28.969,34.429,28.6,34.091,28.255z"/>
		<path fill="#FFFFFF" d="M1.245,37.364c0.982,0.076,1.967,0.237,2.946,0.442c1.33,0.278,2.653,0.591,3.956,0.975
			c1.086,0.32,2.092,0.828,3.028,1.467c0.058,0.04,0.178,0.064,0.144,0.154c-0.032,0.084-0.14,0.033-0.211,0.025
			c-1.453-0.166-2.845-0.554-4.205-1.092c-1.837-0.725-3.707-1.356-5.632-1.813c-0.07-0.017-0.141-0.03-0.211-0.046
			c-0.05-0.012-0.136,0.003-0.124-0.073c0.011-0.072,0.093-0.03,0.142-0.036C1.128,37.36,1.178,37.364,1.245,37.364z"/>
		<path fill="#FEFEFE" d="M35.974,38.734c0.15-0.152,0.299-0.303,0.448-0.455C36.404,38.45,36.14,38.719,35.974,38.734z"/>
		<path fill="#FEFEFE" d="M45.847,31.538c-0.115,0.137-0.244,0.262-0.379,0.38C45.48,31.753,45.681,31.551,45.847,31.538z"/>
		<path fill="#FEFEFE" d="M45.135,32.252c-0.103,0.118-0.209,0.234-0.335,0.329c0.01-0.105,0.194-0.342,0.29-0.367
			C45.101,32.211,45.12,32.238,45.135,32.252z"/>
		<path fill="#FEFEFE" d="M47.031,30.3c-0.011-0.128,0.09-0.148,0.178-0.18c-0.045,0.063-0.033,0.172-0.146,0.18
			C47.052,30.3,47.041,30.3,47.031,30.3z"/>
		<path fill="#FFFFFF" d="M12.365,36.366c0.002-0.02,0.003-0.039,0.005-0.059c0.082-0.007,0.164-0.014,0.267-0.023
			C12.544,36.354,12.453,36.356,12.365,36.366z"/>
		<path fill="#FEFEFE" d="M21.308,31.868c0.107-0.027,0.107-0.027,0.092,0.165C21.296,32.02,21.309,31.94,21.308,31.868z"/>
		<path fill="#FEFEFE" d="M42.897,27.43c-0.005,0.025,0.014,0.034,0.03,0.045c-0.004,0.072-0.071,0.027-0.099,0.054
			c-0.023,0.022-0.049,0.031-0.059-0.007c-0.004-0.015,0.009-0.046,0.024-0.054C42.824,27.451,42.861,27.443,42.897,27.43z"/>
		<path fill="#FEFEFE" d="M38.731,32.598c0-0.143,0-0.286,0-0.429C38.773,32.312,38.772,32.455,38.731,32.598z"/>
		<path fill="#FEFEFE" d="M21.4,32.734c0.002,0.067,0.004,0.133,0.006,0.2C21.305,32.87,21.312,32.803,21.4,32.734z"/>
		<path fill="#FEFEFE" d="M63.145,21.058c-0.056-0.002-0.111-0.004-0.167-0.005C63.037,20.953,63.092,20.951,63.145,21.058z"/>
		<path fill="#FEFEFE" d="M30.483,41.047c0.056-0.002,0.111-0.004,0.167-0.005C30.598,41.148,30.542,41.144,30.483,41.047z"/>
		<path fill="#FEFEFE" d="M50.829,24.142c0.064-0.026,0.127-0.015,0.229-0.007c-0.097,0.034-0.158,0.056-0.219,0.078
			C50.835,24.19,50.832,24.166,50.829,24.142z"/>
		<path fill="#FEFEFE" d="M38.656,31.168c-0.042-0.062-0.033-0.133-0.032-0.202C38.749,31.015,38.614,31.105,38.656,31.168z"/>
		<path fill="#FEFEFE" d="M52.601,24.657c0.039-0.029,0.089-0.055,0.124-0.014c0.025,0.029-0.02,0.049-0.048,0.062
			C52.652,24.689,52.626,24.673,52.601,24.657z"/>
		<path fill="#FEFEFE" d="M38.625,33.802c-0.001-0.069-0.01-0.139,0.031-0.2C38.614,33.663,38.748,33.752,38.625,33.802z"/>
		<path fill="#FEFEFE" d="M6.696,36.697c-0.044,0.001-0.089,0.003-0.133,0.004C6.604,36.611,6.648,36.61,6.696,36.697z"/>
		<path fill="#FEFEFE" d="M29.482,41.042c0.044,0.001,0.089,0.003,0.133,0.004C29.568,41.135,29.524,41.135,29.482,41.042z"/>
		<path fill="#FEFEFE" d="M37.213,27.467c-0.036-0.021-0.037-0.058-0.041-0.094c0.027-0.004,0.055-0.009,0.083-0.013
			C37.255,27.402,37.259,27.444,37.213,27.467z"/>
		<path fill="#FEFEFE" d="M0.557,35.976c0.033-0.002,0.067-0.003,0.1-0.005c-0.004,0.033-0.013,0.064-0.056,0.06
			C0.568,36.029,0.562,36.002,0.557,35.976z"/>
		<path fill="#FEFEFE" d="M42.612,27.584c-0.018,0.015-0.027,0.03-0.04,0.032c-0.009,0.002-0.021-0.013-0.032-0.02
			c0.01-0.01,0.018-0.024,0.029-0.027C42.58,27.566,42.593,27.577,42.612,27.584z"/>
		<path fill="#FEFEFE" d="M49.313,27.901c-0.015,0.041-0.044,0.07-0.082,0.092C49.231,27.938,49.242,27.892,49.313,27.901z"/>
		<path fill="#FEFEFE" d="M38.697,33.199c-0.003-0.059-0.018-0.12,0.023-0.173C38.718,33.084,38.743,33.146,38.697,33.199z"/>
		<path fill="#FEFEFE" d="M42.733,34.487c-0.023,0.019-0.047,0.037-0.07,0.056c0-0.032-0.013-0.07,0.023-0.089
			C42.71,34.442,42.723,34.468,42.733,34.487z"/>
		<path fill="#FEFEFE" d="M43.548,34.731c0.017-0.04,0.042-0.071,0.082-0.09C43.629,34.695,43.618,34.74,43.548,34.731z"/>
		<path fill="#FEFEFE" d="M38.72,31.741c-0.04-0.053-0.026-0.114-0.023-0.173C38.743,31.621,38.717,31.683,38.72,31.741z"/>
		<path fill="#FEFEFE" d="M41.219,37.02c0.013-0.031,0.037-0.05,0.069-0.059c-0.003,0.032,0.019,0.074-0.026,0.092
			C41.237,37.062,41.23,37.036,41.219,37.02z"/>
		<path fill="#FEFEFE" d="M46.688,30.896c0.014-0.042,0.037-0.077,0.074-0.102C46.765,30.847,46.764,30.899,46.688,30.896z"/>
		<path fill="#FEFEFE" d="M46.582,30.771c-0.02,0.039-0.046,0.071-0.087,0.089C46.495,30.803,46.511,30.76,46.582,30.771z"/>
		<path fill="#FEFEFE" d="M49.139,28.075c0,0,0.002,0.001,0.002,0.001c-0.006,0.037,0.005,0.083-0.046,0.106
			C49.062,28.12,49.123,28.108,49.139,28.075z"/>
		<path fill="#FEFEFE" d="M9.698,36.977c-0.042,0.004-0.083,0.002-0.122-0.021c0.039-0.027,0.081-0.018,0.122-0.018
			C9.698,36.951,9.698,36.964,9.698,36.977z"/>
		<path fill="#FEFEFE" d="M38.665,33.465c-0.005-0.037-0.008-0.074,0.022-0.103C38.689,33.399,38.697,33.436,38.665,33.465z"/>
		<path fill="#FEFEFE" d="M38.687,31.407c-0.029-0.031-0.026-0.068-0.022-0.105C38.698,31.332,38.689,31.37,38.687,31.407z"/>
		<path fill="#FEFEFE" d="M38.62,30.938c-0.007-0.023-0.014-0.047-0.021-0.07C38.606,30.892,38.613,30.915,38.62,30.938z"/>
		<path fill="#FEFEFE" d="M38.599,33.899c-0.006-0.027,0.001-0.051,0.021-0.07C38.613,33.853,38.606,33.876,38.599,33.899z"/>
		<path fill="#FEFEFE" d="M38.564,34.1c-0.005-0.029-0.001-0.055,0.022-0.075C38.589,34.053,38.588,34.08,38.564,34.1z"/>
		<path fill="#FEFEFE" d="M38.463,34.534c-0.004-0.027,0.004-0.051,0.025-0.069C38.49,34.492,38.487,34.517,38.463,34.534z"/>
		<path fill="#FEFEFE" d="M38.488,30.303c-0.022-0.018-0.029-0.042-0.025-0.069C38.487,30.251,38.49,30.276,38.488,30.303z"/>
		<path fill="#FEFEFE" d="M38.556,30.6c-0.008-0.022-0.015-0.044-0.023-0.066C38.54,30.556,38.548,30.578,38.556,30.6z"/>
		<path fill="#FEFEFE" d="M64,21.112c-0.014-0.005-0.028-0.011-0.043-0.016C63.974,21.094,63.993,21.089,64,21.112z"/>
		<path fill="#FEFEFE" d="M37.255,27.531c-0.008-0.011-0.017-0.022-0.025-0.033C37.238,27.509,37.246,27.52,37.255,27.531z"/>
		<path fill="#020202" d="M47.031,30.3c0.01,0,0.021,0,0.031-0.001c-0.003,0.017-0.006,0.033-0.009,0.05
			c-0.009-0.007-0.018-0.014-0.027-0.021C47.025,30.318,47.027,30.309,47.031,30.3z"/>
		<path fill="#FEFEFE" d="M3.336,36.974c0.007,0.007,0.01,0.015,0.01,0.025c-0.009-0.002-0.019-0.004-0.028-0.006
			C3.324,36.987,3.33,36.98,3.336,36.974z"/>
		<path fill="#FEFEFE" d="M37.888,28.635c-0.008-0.012-0.015-0.024-0.023-0.036C37.872,28.611,37.88,28.623,37.888,28.635z"/>
		<path fill="#FEFEFE" d="M37.855,28.565c-0.007-0.011-0.015-0.021-0.022-0.032C37.84,28.543,37.848,28.554,37.855,28.565z"/>
		<path fill="#FEFEFE" d="M49.178,28.103c0,0,0.01,0.001,0.01,0.001c-0.002,0.01-0.005,0.02-0.007,0.03
			C49.18,28.124,49.179,28.114,49.178,28.103z"/>
	</g>
</g>
</svg>
