<?xml version="1.0" encoding="utf-8"?>
<!-- Generator: Adobe Illustrator 23.0.2, SVG Export Plug-In . SVG Version: 6.00 Build 0)  -->
<svg version="1.1" id="Layer_1" xmlns="http://www.w3.org/2000/svg" xmlns:xlink="http://www.w3.org/1999/xlink" x="0px" y="0px"
	 width="64px" height="64px" viewBox="0 0 64 64" style="enable-background:new 0 0 64 64;" xml:space="preserve">
<g>
	<g>
		<path style="fill:#FFFFFF;" d="M24.965,41.015c-0.005,1.906-0.007,3.812-0.017,5.719c-0.001,0.143,0.071,0.224,0.157,0.311
			c2.24,2.238,4.48,4.476,6.715,6.719c0.142,0.143,0.213,0.145,0.357,0.001c2.234-2.244,4.474-4.482,6.717-6.717
			c0.123-0.123,0.156-0.249,0.155-0.413c-0.006-0.87,0.003-1.739-0.007-2.609c-0.002-0.184,0.056-0.31,0.183-0.437
			c1.218-1.21,2.436-2.42,3.644-3.641c1.055-1.067,2.096-2.148,3.147-3.22c0.064-0.065,0.116-0.203,0.227-0.155
			c0.106,0.046,0.049,0.178,0.05,0.271c0.003,4.226,0.001,8.451,0.006,12.677c0,0.193-0.053,0.33-0.191,0.467
			c-4.624,4.616-9.244,9.236-13.859,13.861c-0.192,0.193-0.292,0.208-0.494,0.006c-4.614-4.626-9.235-9.245-13.859-13.861
			c-0.15-0.149-0.196-0.297-0.196-0.499c0.004-5.129,0.004-10.258,0.003-15.387c0-0.133-0.01-0.266-0.016-0.399
			c0.005-0.044,0.015-0.088,0.015-0.132c-0.001-3.424-0.003-6.847-0.005-10.271c-0.001-0.027-0.001-0.054-0.002-0.08
			c0.003-2.876,0.01-5.753,0.001-8.629c-0.001-0.293,0.091-0.49,0.295-0.693c4.586-4.575,9.167-9.155,13.741-13.743
			c0.213-0.214,0.317-0.217,0.532-0.001C36.87,4.78,41.483,9.391,46.1,13.998c0.148,0.148,0.2,0.294,0.199,0.497
			c-0.007,1.918-0.006,3.835-0.001,5.753c0.001,0.177-0.04,0.308-0.169,0.437c-2.77,2.777-5.539,5.555-8.298,8.344
			c-0.212,0.215-0.319,0.212-0.515-0.006c-0.781-0.869-1.602-1.703-2.364-2.587c-0.815-0.946-1.498-1.987-2.011-3.132
			c-0.233-0.52-0.41-1.572-0.326-2.209c0.49,1.052,1.379,1.479,2.402,1.697c0.652,0.139,1.316,0.182,1.98,0.132
			c0.233-0.018,0.404,0.06,0.566,0.2c0.509,0.44,1.08,0.801,1.563,1.274c0.211,0.207,0.738,0.193,1.021-0.021
			c0.268-0.203,0.233-0.481,0.135-0.762c-0.014-0.039,0-0.089-0.017-0.126c-0.06-0.138-0.113-0.298,0.001-0.406
			c0.112-0.105,0.27-0.026,0.405,0.015c0.199,0.061,0.394,0.135,0.595,0.185c0.308,0.077,0.442-0.033,0.544-0.349
			c0.176-0.548,0.071-1.099,0.047-1.649c-0.009-0.213-0.165-0.378-0.32-0.512c-0.789-0.682-1.585-1.356-2.377-2.033
			c-0.233-0.2-0.416-0.455-0.689-0.612c-0.162-0.093-0.154-0.245-0.138-0.407c0.084-0.864-0.154-1.628-0.839-2.174
			c-0.369-0.294-0.824-0.481-1.244-0.71c-0.54-0.295-1.084-0.584-1.626-0.875c-0.02-0.011-0.039-0.022-0.06-0.03
			c-0.113-0.04-0.23-0.063-0.346-0.089c-0.186-0.042-0.038-0.162-0.005-0.24c0.046-0.109,0.115-0.208,0.168-0.314
			c0.492-0.985,1.037-1.937,1.755-2.847c-1.811,0.134-3.126,1.013-4.183,2.484c0-0.426-0.026-0.769,0.008-1.105
			c0.033-0.332-0.098-0.371-0.365-0.289c-0.926,0.287-1.826,0.642-2.66,1.135c-1.294,0.765-2.466,1.692-3.448,2.834
			c-1.174,1.364-1.959,2.935-2.355,4.695c-0.362,1.609-0.381,3.228-0.147,4.857c0.246,1.714,0.755,3.346,1.473,4.918
			c0.056,0.122,0.113,0.238,0.206,0.335c-0.014,0.071-0.017,0.137,0.078,0.152c0,0-0.002-0.003-0.002-0.003
			c-0.031,0.147,0.067,0.252,0.125,0.368c0.469,0.935,0.995,1.838,1.574,2.71c0.064,0.096,0.171,0.177,0.158,0.322
			c-0.343,0.057-0.695-0.047-1.025,0.075c-0.295,0.108-0.616,0.229-0.617,0.606C24.95,36.695,24.96,38.855,24.965,41.015z"/>
		<path style="fill:#FE6720;" d="M24.965,41.015c-0.005-2.16-0.015-4.32-0.009-6.48c0.001-0.377,0.323-0.498,0.617-0.606
			c0.331-0.121,0.682-0.018,1.025-0.075c0.013-0.145-0.094-0.226-0.158-0.322c-0.579-0.872-1.104-1.775-1.574-2.71
			c-0.058-0.115-0.156-0.221-0.125-0.368c0.154-0.024,0.198,0.119,0.276,0.196c2.235,2.228,4.468,4.456,6.691,6.696
			c0.207,0.209,0.306,0.209,0.514,0c8.241-8.252,16.488-16.497,24.732-24.746c0.093-0.093,0.155-0.217,0.213-0.3
			c0.201,0.094,0.153,0.196,0.153,0.275c0.002,8.641,0.002,17.281,0.005,25.922c0,0.156-0.043,0.266-0.152,0.38
			c-2.413,2.504-4.911,4.924-7.357,7.395c-0.059,0.06-0.128,0.109-0.239,0.202c0-5.345,0-10.631,0-15.918
			c-0.038-0.029-0.076-0.058-0.115-0.087c-0.081,0.114-0.147,0.242-0.244,0.34c-5.642,5.647-11.289,11.29-16.926,16.942
			c-0.237,0.237-0.349,0.242-0.588,0.001c-2.126-2.147-4.267-4.279-6.404-6.415C25.192,41.227,25.077,41.122,24.965,41.015z"/>
		<path style="fill:#FE671F;" d="M17.697,23.307c0.002,3.424,0.004,6.847,0.005,10.271c0,0.044-0.01,0.088-0.015,0.132
			c-1.054-1.07-2.108-2.141-3.163-3.211c-0.025,0.015-0.051,0.03-0.076,0.046c0,5.285,0,10.57,0,15.843
			c-0.148,0.072-0.188-0.038-0.243-0.093c-2.461-2.457-4.918-4.918-7.383-7.372c-0.151-0.15-0.148-0.307-0.148-0.485
			c0-7.925,0-15.851,0-23.776c0-0.757,0-1.515,0-2.297c0.142,0.038,0.206,0.147,0.287,0.227c3.454,3.451,6.906,6.903,10.359,10.355
			c0.102,0.102,0.212,0.194,0.319,0.29C17.658,23.261,17.678,23.284,17.697,23.307z"/>
		<path style="fill:#FE6720;" d="M24.743,30.458c-0.096-0.014-0.092-0.08-0.078-0.152C24.702,30.351,24.796,30.366,24.743,30.458z"
			/>
		<path style="fill:#BEBEBE;" d="M17.697,23.307c-0.019-0.023-0.039-0.047-0.058-0.07c0.017-0.014,0.035-0.018,0.056-0.01
			C17.696,23.254,17.696,23.281,17.697,23.307z"/>
	</g>
</g>
</svg>
