<?xml version="1.0" encoding="UTF-8" standalone="no"?>
<svg
   xmlns:dc="http://purl.org/dc/elements/1.1/"
   xmlns:cc="http://creativecommons.org/ns#"
   xmlns:rdf="http://www.w3.org/1999/02/22-rdf-syntax-ns#"
   xmlns:svg="http://www.w3.org/2000/svg"
   xmlns="http://www.w3.org/2000/svg"
   xmlns:sodipodi="http://sodipodi.sourceforge.net/DTD/sodipodi-0.dtd"
   xmlns:inkscape="http://www.inkscape.org/namespaces/inkscape"
   width="64"
   height="64"
   viewBox="0 0 47.999999 48"
   version="1.1"
   id="svg108"
   sodipodi:docname="chief.svg"
   inkscape:version="0.92.3 (2405546, 2018-03-11)">
  <metadata
     id="metadata114">
    <rdf:RDF>
      <cc:Work
         rdf:about="">
        <dc:format>image/svg+xml</dc:format>
        <dc:type
           rdf:resource="http://purl.org/dc/dcmitype/StillImage" />
        <dc:title></dc:title>
      </cc:Work>
    </rdf:RDF>
  </metadata>
  <defs
     id="defs112" />
  <sodipodi:namedview
     pagecolor="#ffffff"
     bordercolor="#666666"
     borderopacity="1"
     objecttolerance="10"
     gridtolerance="10"
     guidetolerance="10"
     inkscape:pageopacity="0"
     inkscape:pageshadow="2"
     inkscape:window-width="1920"
     inkscape:window-height="1017"
     id="namedview110"
     showgrid="false"
     units="px"
     inkscape:pagecheckerboard="true"
     inkscape:zoom="0.1249222"
     inkscape:cx="1601.5152"
     inkscape:cy="-66.524531"
     inkscape:window-x="-8"
     inkscape:window-y="-8"
     inkscape:window-maximized="1"
     inkscape:current-layer="svg108" />
  <g
     id="#f4f5f5ff"
     transform="matrix(0.06065354,0,0,0.06065354,3.0369209,-2.3018013)">
    <path
       d="m 345.54,37.95 c 84.44,48.7 168.8,97.54 253.21,146.3 20.72,11.89 41.3,24.02 62.09,35.77 0.27,53.31 0.13,106.64 0.07,159.97 C 556.66,319.55 452.37,259.16 348.12,198.72 c -1,-0.8 -2.25,-0.75 -3.27,-0.04 -66.43,38.36 -132.93,76.61 -199.37,114.96 -2.73,-7.41 -4.56,-15.11 -6.28,-22.81 -8.94,-42.08 -11.81,-85.25 -11.4,-128.2 C 200.41,121.13 273,79.58 345.54,37.95 Z"
       id="path63"
       inkscape:connector-curvature="0"
       style="opacity:1;fill:#f4f5f5" />
  </g>
  <g
     id="#e7e8e6ff"
     transform="matrix(0.06065354,0,0,0.06065354,3.0369209,-2.3018013)">
    <path
       d="m 30.47,218.47 c 32.38,-18.71 64.94,-37.14 97.33,-55.84 -0.41,42.95 2.46,86.12 11.4,128.2 1.72,7.7 3.55,15.4 6.28,22.81 -38.45,22.05 -76.76,44.33 -115.23,66.33 -0.01,-53.34 0,-106.67 -0.01,-160.01 0.06,-0.37 0.17,-1.12 0.23,-1.49 z"
       id="path66"
       inkscape:connector-curvature="0"
       style="opacity:1;fill:#e7e8e6" />
  </g>
  <g
     id="#2aafe5ff"
     transform="matrix(0.06065354,0,0,0.06065354,3.0369209,-2.3018013)">
    <path
       d="m 206.95,307.87 c 46.53,-26.61 92.99,-53.35 139.45,-80.09 74.29,42.68 148.51,85.48 222.78,128.2 30.32,17.36 60.48,35.01 90.9,52.19 -4.74,15.19 -10.79,29.95 -15.92,45.01 -9.41,25.65 -18.4,51.45 -27.95,77.04 C 529.66,479.92 442.9,429.96 356.3,379.75 c -3.43,-1.67 -6.46,-4.33 -10.11,-5.41 -35.04,19.99 -70,40.17 -104.93,60.36 -4.63,-12.01 -9.11,-24.1 -12.4,-36.57 -8.41,-29.8 -15.48,-59.97 -21.91,-90.26 z"
       id="path69"
       inkscape:connector-curvature="0"
       style="opacity:1;fill:#2aafe5" />
    <path
       d="m 253.63,462.52 c 31.54,-18.26 63.04,-36.62 94.45,-55.11 59.09,34.72 118.33,69.2 177.33,104.06 -39.92,0.22 -79.85,0.02 -119.77,0.1 -5.9,30.86 -11.67,61.74 -17.43,92.62 -13.73,-5.67 -26.32,-13.64 -38.79,-21.63 -18.93,-12.47 -37.01,-26.15 -55.07,-39.82 -0.14,-0.1 -0.41,-0.3 -0.55,-0.4 -1.34,-10.04 -3.46,-19.95 -5.17,-29.93 -3.16,-0.11 -6.32,-0.12 -9.48,-0.01 -5.73,-7.29 -9.32,-15.88 -13.5,-24.08 -4.25,-8.49 -7.43,-17.48 -12.02,-25.8 z"
       id="path71"
       inkscape:connector-curvature="0"
       style="opacity:1;fill:#2aafe5" />
  </g>
  <g
     id="#298dcdff"
     transform="matrix(0.06065354,0,0,0.06065354,3.0369209,-2.3018013)">
    <path
       d="m 152.82,338.98 c 18.07,-10.33 36.13,-20.66 54.13,-31.11 6.43,30.29 13.5,60.46 21.91,90.26 3.29,12.47 7.77,24.56 12.4,36.57 -9.98,5.51 -19.72,11.45 -29.72,16.93 -15.94,-18.39 -28.06,-39.74 -38.57,-61.6 -7.9,-16.52 -14.56,-33.62 -20.15,-51.05 z"
       id="path74"
       inkscape:connector-curvature="0"
       style="opacity:1;fill:#298dcd" />
    <path
       d="m 229.29,476.81 c 8.07,-4.84 16.32,-9.37 24.34,-14.29 4.59,8.32 7.77,17.31 12.02,25.8 4.18,8.2 7.77,16.79 13.5,24.08 -6.88,-0.11 -13.77,-0.14 -20.65,0.02 -4.3,-4.71 -9.02,-9.03 -12.98,-14.04 -5.63,-7.02 -11.01,-14.24 -16.23,-21.57 z"
       id="path76"
       inkscape:connector-curvature="0"
       style="opacity:1;fill:#298dcd" />
    <path
       d="m 294.35,542.74 c 18.06,13.67 36.14,27.35 55.07,39.82 12.47,7.99 25.06,15.96 38.79,21.63 -2.01,10.35 -3.89,20.72 -5.85,31.08 -6.89,-5.6 -13.13,-11.93 -19.45,-18.14 -11.62,-11.4 -23.24,-22.82 -34.57,-34.5 -7.01,-7.97 -14.89,-15.13 -21.66,-23.31 -4.37,-4.76 -7.95,-10.14 -12.18,-15.01 -0.04,-0.39 -0.11,-1.17 -0.15,-1.57 z"
       id="path78"
       inkscape:connector-curvature="0"
       style="opacity:1;fill:#298dcd" />
  </g>
  <g
     id="#0972bcff"
     transform="matrix(0.06065354,0,0,0.06065354,3.0369209,-2.3018013)">
    <path
       d="m 122.78,356.27 c 10,-5.78 20.07,-11.45 30.04,-17.29 5.59,17.43 12.25,34.53 20.15,51.05 10.51,21.86 22.63,43.21 38.57,61.6 l 0.14,0.17 c -29.63,16.65 -58.93,33.91 -88.48,50.72 -0.5,-26.83 -0.06,-53.68 -0.23,-80.52 -0.17,-21.91 0.3,-43.82 -0.19,-65.73 z"
       id="path81"
       inkscape:connector-curvature="0"
       style="opacity:1;fill:#0972bc" />
  </g>
  <g
     id="#1374bbff"
     transform="matrix(0.06065354,0,0,0.06065354,3.0369209,-2.3018013)">
    <path
       d="m 33.46,407.72 c 29.66,-17.34 59.57,-34.25 89.32,-51.45 0.49,21.91 0.02,43.82 0.19,65.73 0.17,26.84 -0.27,53.69 0.23,80.52 -15.43,9.04 -31.07,17.73 -46.44,26.87 C 62.06,488.93 48.11,448.2 33.46,407.72 Z"
       id="path84"
       inkscape:connector-curvature="0"
       style="opacity:1;fill:#1374bb" />
  </g>
  <g
     id="#0a73bcff"
     transform="matrix(0.06065354,0,0,0.06065354,3.0369209,-2.3018013)">
    <path
       d="m 202.06,492.82 c 8.92,-5.57 18.18,-10.64 27.23,-16.01 5.22,7.33 10.6,14.55 16.23,21.57 3.96,5.01 8.68,9.33 12.98,14.04 -10.45,-0.8 -20.96,0.06 -31.44,-0.26 -12.15,-1.09 -24.37,0.03 -36.54,-0.68 3.73,-0.77 8.02,0.08 11.43,-1.47 0.53,-5.72 -0.16,-11.46 0.11,-17.19 z"
       id="path87"
       inkscape:connector-curvature="0"
       style="opacity:1;fill:#0a73bc" />
  </g>
  <g
     id="#1474bbff"
     transform="matrix(0.06065354,0,0,0.06065354,3.0369209,-2.3018013)">
    <path
       d="m 169.86,511.29 c 10.88,-5.89 21.33,-12.55 32.2,-18.47 -0.27,5.73 0.42,11.47 -0.11,17.19 -3.41,1.55 -7.7,0.7 -11.43,1.47 -6.88,0.06 -13.79,0.35 -20.66,-0.19 z"
       id="path90"
       inkscape:connector-curvature="0"
       style="opacity:1;fill:#1474bb" />
  </g>
  <g
     id="#c7c5c4ff"
     transform="matrix(0.06065354,0,0,0.06065354,3.0369209,-2.3018013)">
    <path
       d="m 148.4,532.48 c 29.81,-0.22 59.64,-0.03 89.46,-0.1 16.21,90.15 32.74,180.23 48.85,270.4 -34.15,-20.06 -62.94,-47.97 -88.46,-77.98 -36.63,-43.54 -67.29,-91.87 -93.71,-142.19 -3.19,-6.33 -6.77,-12.48 -9.36,-19.08 17.8,-10.23 35.35,-21.01 53.22,-31.05 z"
       id="path93"
       inkscape:connector-curvature="0"
       style="opacity:1;fill:#c7c5c4" />
  </g>
  <g
     id="#dededfff"
     transform="matrix(0.06065354,0,0,0.06065354,3.0369209,-2.3018013)">
    <path
       d="m 440.2,624.02 c 5.45,-30.79 10.83,-61.6 16.37,-92.37 29.24,0.05 58.5,-0.12 87.75,0.08 18.23,10.92 36.06,22.55 54.35,33.39 -14.57,30.52 -32.01,59.61 -50.18,88.11 -28.84,-0.7 -58.14,-3.75 -85.11,-14.61 -6.7,-2.71 -13.34,-5.7 -19.48,-9.54 -1.95,-1.06 -3.03,-3.04 -3.7,-5.06 z"
       id="path96"
       inkscape:connector-curvature="0"
       style="opacity:1;fill:#dededf" />
  </g>
  <g
     id="#0c73bcff"
     transform="matrix(0.06065354,0,0,0.06065354,3.0369209,-2.3018013)">
    <path
       d="m 294.5,544.31 c 4.23,4.87 7.81,10.25 12.18,15.01 6.77,8.18 14.65,15.34 21.66,23.31 11.33,11.68 22.95,23.1 34.57,34.5 6.32,6.21 12.56,12.54 19.45,18.14 -8.95,46.94 -17.67,93.93 -26.58,140.88 -3.12,17.76 -6.91,35.39 -9.88,53.18 -0.85,-2.34 -1.35,-4.77 -1.7,-7.21 -16.43,-91.08 -32.64,-182.2 -49.09,-273.27 -0.27,-1.51 -0.47,-3.02 -0.61,-4.54 z"
       id="path99"
       inkscape:connector-curvature="0"
       style="opacity:1;fill:#0c73bc" />
  </g>
  <g
     id="#c9c9c8ff"
     transform="matrix(0.06065354,0,0,0.06065354,3.0369209,-2.3018013)">
    <path
       d="m 440.2,624.02 c 0.67,2.02 1.75,4 3.7,5.06 6.14,3.84 12.78,6.83 19.48,9.54 26.97,10.86 56.27,13.91 85.11,14.61 -13.81,20.99 -28.45,41.44 -44.16,61.05 -9,-3.09 -17.54,-7.38 -26.04,-11.61 -14.82,-7.22 -29.42,-15.27 -42.08,-25.92 -2.23,-1.75 -3.41,-4.38 -4.12,-7.04 2.77,-15.22 5.37,-30.47 8.11,-45.69 z"
       id="path102"
       inkscape:connector-curvature="0"
       style="opacity:1;fill:#c9c9c8" />
  </g>
  <g
     id="#bdbcbcff"
     transform="matrix(0.06065354,0,0,0.06065354,3.0369209,-2.3018013)">
    <path
       d="m 408.57,801.84 c 8.06,-44.01 15.65,-88.09 23.52,-132.13 0.71,2.66 1.89,5.29 4.12,7.04 12.66,10.65 27.26,18.7 42.08,25.92 8.5,4.23 17.04,8.52 26.04,11.61 -23.81,29.05 -49.97,56.62 -80.91,78.18 -4.9,3.2 -9.64,6.67 -14.85,9.38 z"
       id="path105"
       inkscape:connector-curvature="0"
       style="opacity:1;fill:#bdbcbc" />
  </g>
</svg>
