<?xml version="1.0" encoding="utf-8"?>
<!-- Generator: Adobe Illustrator 23.0.2, SVG Export Plug-In . SVG Version: 6.00 Build 0)  -->
<svg version="1.1" id="Layer_1" xmlns="http://www.w3.org/2000/svg" xmlns:xlink="http://www.w3.org/1999/xlink" x="0px" y="0px"
	 width="64px" height="64px" viewBox="0 0 64 64" style="enable-background:new 0 0 64 64;" xml:space="preserve">
<g>
	<g>
		<path style="fill:#B6B6B6;" d="M6.586,20.186l-0.012,0.002l-0.012-0.004c0-0.478,0-0.956,0-1.435
			c0.008-0.004,0.016-0.005,0.024-0.002C6.586,19.227,6.586,19.707,6.586,20.186z"/>
		<path style="fill:#0A0A0A;" d="M6.586,20.186c0-0.479,0-0.959,0-1.438c0.014-0.659,0.023-1.319,0.043-1.978
			c0.018-0.568,0.051-1.136,0.071-1.704c0.003-0.094,0.063-0.117,0.123-0.152c1.962-1.139,3.923-2.279,5.885-3.418
			c5.295-3.074,10.589-6.148,15.884-9.223c1.185-0.688,2.371-1.376,3.554-2.067c0.08-0.046,0.134-0.053,0.218-0.004
			C38.6,3.834,44.838,7.462,51.076,11.09c2.196,1.277,4.392,2.555,6.589,3.83c0.074,0.043,0.107,0.089,0.116,0.176
			c0.096,0.985,0.148,1.972,0.181,2.961c0.034,1.018,0.034,2.036,0.014,3.054c-0.027,1.337-0.1,2.673-0.213,4.006
			c-0.109,1.291-0.258,2.577-0.449,3.858c-0.296,1.99-0.687,3.961-1.186,5.91c-0.847,3.306-1.985,6.505-3.482,9.574
			c-1.829,3.748-4.13,7.173-6.977,10.227c-2.085,2.237-4.401,4.203-6.937,5.912c-2.021,1.361-4.145,2.534-6.362,3.543
			c-0.08,0.037-0.147,0.038-0.23,0.007c-1.513-0.564-2.944-1.295-4.334-2.109c-2.539-1.487-4.868-3.254-7.008-5.271
			c-3.469-3.27-6.27-7.043-8.465-11.27c-1.659-3.195-2.907-6.547-3.819-10.026c-0.537-2.048-0.95-4.122-1.254-6.216
			c-0.303-2.096-0.502-4.203-0.596-6.319C6.623,22.02,6.593,21.103,6.586,20.186z M21.01,37.651
			c-0.012,0.107,0.07,0.059,0.109,0.059c1.414,0.002,2.828,0.001,4.243-0.001c0.056,0,0.115,0.018,0.166-0.021
			c0.696,0.001,1.392,0.001,2.088,0.003c0.371,0.001,0.305-0.04,0.379,0.306c0.115,0.539,0.226,1.078,0.339,1.618
			c0.007,0.057,0.011,0.114,0.022,0.17c0.269,1.34,0.541,2.68,0.81,4.021c0.279,1.392,0.554,2.784,0.832,4.176
			c0.231,1.158,0.464,2.316,0.695,3.474c0.282,1.415,0.563,2.831,0.846,4.246c0.196,0.981,0.392,1.962,0.592,2.942
			c0.055,0.268,0.091,0.54,0.186,0.83c0.02-0.075,0.035-0.119,0.045-0.165c0.09-0.424,0.18-0.848,0.267-1.273
			c0.246-1.199,0.49-2.399,0.734-3.598c0.185-0.91,0.368-1.821,0.555-2.731c0.263-1.278,0.529-2.556,0.792-3.834
			c0.266-1.292,0.53-2.585,0.792-3.878c0.086-0.424,0.182-0.847,0.245-1.276c0.011-0.021,0.027-0.04,0.031-0.062
			c0.276-1.345,0.55-2.69,0.829-4.034c0.064-0.307,0.108-0.618,0.2-0.919c0.033-0.003,0.067-0.008,0.1-0.008
			c2.228,0,4.457,0,6.685-0.001c0.039,0,0.087,0.019,0.119-0.043c-0.056-0.036-0.11-0.073-0.166-0.108
			c-3.618-2.256-7.236-4.511-10.854-6.767c-0.424-0.265-0.354-0.243-0.731,0c-0.402,0.258-0.821,0.488-1.208,0.77
			c-0.059,0.032-0.119,0.06-0.175,0.096c-1.126,0.704-2.251,1.408-3.376,2.113c-1.189,0.746-2.378,1.493-3.567,2.239
			c-0.521,0.326-1.044,0.65-1.563,0.978C21.715,37.197,21.351,37.406,21.01,37.651z M21.683,34.1
			c0.128-0.042,0.239-0.118,0.354-0.185c1.877-1.088,3.754-2.174,5.628-3.267c0.524-0.305,1.061-0.588,1.568-0.923
			c0.097-0.051,0.196-0.099,0.291-0.154c0.864-0.501,1.73-1,2.59-1.508c0.16-0.095,0.286-0.096,0.448-0.002
			c1.929,1.122,3.862,2.237,5.795,3.354c2.967,1.714,5.936,3.425,8.903,5.141c1.415,0.818,2.841,1.617,4.241,2.462
			c0.086,0.052,0.137,0.047,0.171-0.055c0.028-0.086,0.066-0.169,0.099-0.253c1.057-2.626,1.859-5.328,2.388-8.11
			c0.05-0.261,0.05-0.261-0.173-0.389c-2.338-1.341-4.676-2.682-7.015-4.022c-4.76-2.729-9.52-5.457-14.277-8.191
			c-0.204-0.117-0.347-0.132-0.563-0.005c-2.046,1.197-4.102,2.377-6.154,3.563c-0.239,0.138-0.485,0.266-0.71,0.429
			c-0.081,0.041-0.164,0.077-0.242,0.123c-1.699,0.981-3.398,1.961-5.096,2.944c-1.062,0.615-2.121,1.233-3.182,1.849
			c-0.051,0.026-0.104,0.049-0.153,0.077c-1.874,1.082-3.747,2.166-5.623,3.245c-0.115,0.066-0.154,0.139-0.128,0.266
			c0.234,1.126,0.473,2.25,0.768,3.362c0.445,1.681,0.959,3.34,1.577,4.966c0.074,0.194,0.079,0.2,0.253,0.092
			c0.568-0.353,1.153-0.679,1.731-1.014c1.636-0.95,3.273-1.898,4.908-2.849C20.616,34.735,21.149,34.416,21.683,34.1z
			 M39.356,43.397c-0.005,0.013-0.014,0.025-0.016,0.039c-0.14,0.829-0.278,1.658-0.419,2.487c-0.359,2.109-0.72,4.218-1.079,6.327
			c-0.325,1.912-0.65,3.823-0.974,5.735c-0.035,0.204-0.066,0.409-0.101,0.623c0.112-0.016,0.172-0.082,0.239-0.132
			c1.857-1.361,3.536-2.921,5.108-4.599c2.563-2.738,4.769-5.74,6.643-8.987c0.255-0.442,0.509-0.886,0.74-1.342
			c0.034-0.057,0.071-0.113,0.101-0.172c0.24-0.467,0.478-0.935,0.718-1.403c0.085-0.165,0.087-0.165-0.078-0.263
			c-1.227-0.731-2.455-1.461-3.681-2.194c-0.127-0.076-0.256-0.114-0.406-0.113c-1.974,0.003-3.948,0.002-5.922,0.002
			c-0.208,0-0.206,0-0.241,0.209c-0.139,0.819-0.281,1.638-0.419,2.457C39.495,42.512,39.427,42.955,39.356,43.397z M12.872,15.387
			c-0.043,0.02-0.088,0.036-0.129,0.059c-0.87,0.499-1.739,1-2.61,1.498c-0.126,0.072-0.175,0.181-0.185,0.318
			c-0.017,0.252-0.036,0.505-0.054,0.757c-0.036,0.506-0.027,1.013-0.03,1.519c-0.005,0.86-0.015,1.721,0.015,2.581
			c0.022,0.62,0.062,1.239,0.107,1.858c0.022,0.305,0.037,0.61,0.072,0.914c0.082,0.706,0.117,1.418,0.238,2.12
			c0.053,0.31,0.079,0.625,0.115,0.938c0.009,0.077,0.042,0.104,0.114,0.069c0.043-0.021,0.084-0.045,0.126-0.068
			c0.999-0.571,1.999-1.142,2.997-1.714c0.712-0.408,1.43-0.807,2.129-1.239c0.183-0.061,0.338-0.177,0.503-0.271
			c5.22-2.996,10.439-5.993,15.658-8.99c0.438-0.251,0.316-0.248,0.737-0.006c3.466,1.983,6.932,3.965,10.398,5.948
			c2.923,1.672,5.845,3.344,8.768,5.015c0.85,0.486,1.7,0.972,2.552,1.455c0.143,0.081,0.158,0.07,0.177-0.098
			c0.033-0.299,0.056-0.599,0.096-0.898c0.193-1.457,0.242-2.922,0.272-4.389c0.016-0.785-0.035-1.567-0.06-2.349
			c-0.033-1.055-0.125-2.107-0.239-3.157c-0.016-0.15-0.068-0.238-0.199-0.314c-2.472-1.432-4.941-2.868-7.41-4.304
			c-4.835-2.812-9.67-5.624-14.502-8.44c-0.116-0.067-0.198-0.049-0.302,0.011c-2.56,1.48-5.12,2.959-7.681,4.436
			c-3.666,2.114-7.335,4.224-11,6.339C13.318,15.114,13.073,15.214,12.872,15.387z M27.984,58.568
			c0.018-0.044,0.001-0.086-0.006-0.128c-0.193-1.13-0.387-2.259-0.579-3.389c-0.282-1.662-0.563-3.325-0.845-4.987
			c-0.332-1.954-0.665-3.908-0.996-5.863c-0.262-1.544-0.521-3.089-0.782-4.634c-0.033-0.196-0.033-0.196-0.238-0.196
			c-0.999,0-1.999,0.003-2.998-0.001c-0.961-0.004-1.922,0.017-2.883-0.012c-0.161-0.005-0.308,0.035-0.449,0.12
			c-1.229,0.738-2.46,1.474-3.694,2.205c-0.118,0.07-0.13,0.125-0.071,0.245c1.052,2.129,2.24,4.178,3.582,6.137
			c1.861,2.719,3.961,5.237,6.347,7.513c1.094,1.043,2.231,2.037,3.463,2.917C27.88,58.529,27.918,58.579,27.984,58.568z"/>
		<path style="fill:#F4F4F4;" d="M12.872,15.387c0.201-0.173,0.446-0.274,0.672-0.404c3.666-2.115,7.334-4.226,11-6.339
			c2.562-1.477,5.122-2.956,7.681-4.436c0.103-0.06,0.186-0.078,0.302-0.011c4.833,2.816,9.668,5.628,14.502,8.44
			c2.469,1.436,4.938,2.872,7.41,4.304c0.131,0.076,0.183,0.164,0.199,0.314c0.114,1.05,0.205,2.102,0.239,3.157
			c0.025,0.783,0.076,1.565,0.06,2.349c-0.03,1.467-0.079,2.932-0.272,4.389c-0.04,0.298-0.062,0.599-0.096,0.898
			c-0.019,0.168-0.035,0.179-0.177,0.098c-0.852-0.483-1.702-0.969-2.552-1.455c-2.923-1.671-5.846-3.343-8.768-5.015
			c-3.466-1.982-6.932-3.965-10.398-5.948c-0.422-0.241-0.299-0.245-0.737,0.006c-5.219,2.997-10.438,5.994-15.658,8.99
			c-0.165,0.095-0.319,0.21-0.503,0.271c0.005-0.093-0.026-0.176-0.064-0.26c-0.144-0.317-0.292-0.632-0.418-0.956
			c-0.277-0.709-0.553-1.419-0.807-2.137c-0.283-0.799-0.527-1.608-0.762-2.421c-0.235-0.813-0.439-1.634-0.615-2.461
			C13.013,16.306,12.898,15.854,12.872,15.387z"/>
		<path style="fill:#3B95D6;" d="M25.266,21.986c0.225-0.163,0.471-0.291,0.71-0.429c2.052-1.186,4.108-2.366,6.154-3.563
			c0.217-0.127,0.359-0.113,0.563,0.005c4.757,2.734,9.517,5.462,14.277,8.191c2.338,1.341,4.677,2.682,7.015,4.022
			c0.223,0.128,0.223,0.128,0.173,0.389c-0.529,2.782-1.331,5.483-2.388,8.11c-0.034,0.084-0.071,0.167-0.099,0.253
			c-0.034,0.102-0.085,0.107-0.171,0.055c-1.399-0.845-2.826-1.643-4.241-2.462c-2.966-1.716-5.935-3.427-8.903-5.141
			c-1.933-1.116-3.866-2.232-5.795-3.354c-0.163-0.095-0.288-0.093-0.448,0.002c-0.86,0.508-1.726,1.007-2.59,1.508
			c-0.095,0.055-0.194,0.103-0.291,0.154c0.001-0.063-0.042-0.107-0.075-0.151c-0.295-0.386-0.571-0.785-0.833-1.192
			c-0.387-0.6-0.767-1.205-1.094-1.841c-0.285-0.554-0.567-1.11-0.828-1.676c-0.295-0.641-0.561-1.292-0.802-1.955
			C25.488,22.603,25.378,22.294,25.266,21.986z"/>
		<path style="fill:#999994;" d="M27.984,58.568c-0.067,0.011-0.104-0.04-0.149-0.072c-1.232-0.88-2.369-1.874-3.463-2.917
			c-2.386-2.275-4.486-4.794-6.347-7.513c-1.342-1.96-2.53-4.008-3.582-6.137c-0.059-0.12-0.048-0.175,0.071-0.245
			c1.234-0.731,2.464-1.467,3.694-2.205c0.141-0.085,0.287-0.125,0.449-0.12c0.961,0.029,1.922,0.008,2.883,0.012
			c0.999,0.004,1.999,0.001,2.998,0.001c0.205,0,0.205,0,0.238,0.196c0.261,1.545,0.52,3.089,0.782,4.634
			c0.331,1.954,0.665,3.908,0.996,5.863c0.282,1.662,0.562,3.325,0.845,4.987c0.192,1.13,0.386,2.26,0.579,3.389
			C27.986,58.482,28.003,58.524,27.984,58.568z"/>
		<path style="fill:#999994;" d="M49.497,43.548c-0.231,0.456-0.485,0.899-0.74,1.342c-1.874,3.247-4.08,6.249-6.643,8.987
			c-1.571,1.678-3.25,3.238-5.108,4.599c-0.068,0.049-0.128,0.116-0.239,0.132c0.035-0.214,0.066-0.419,0.101-0.623
			c0.324-1.912,0.648-3.824,0.974-5.735c0.359-2.109,0.72-4.218,1.079-6.327c0.141-0.829,0.279-1.658,0.419-2.487
			c0.002-0.013,0.011-0.026,0.016-0.039c0.062,0.003,0.125,0,0.186,0.011c0.558,0.098,1.121,0.152,1.683,0.214
			c0.51,0.057,1.024,0.092,1.537,0.114c0.557,0.024,1.115,0.035,1.672,0.057c0.295,0.012,0.591-0.004,0.886-0.016
			c0.571-0.023,1.144-0.026,1.715-0.062c0.399-0.025,0.8-0.031,1.198-0.067c0.156-0.014,0.313-0.025,0.469-0.036
			C48.967,43.593,49.229,43.532,49.497,43.548z"/>
		<path style="fill:#2888D1;" d="M25.266,21.986c0.111,0.309,0.222,0.617,0.334,0.926c0.241,0.662,0.507,1.314,0.802,1.955
			c0.261,0.567,0.543,1.122,0.828,1.676c0.327,0.636,0.707,1.241,1.094,1.841c0.263,0.408,0.539,0.806,0.833,1.192
			c0.033,0.044,0.076,0.088,0.075,0.151c-0.507,0.335-1.044,0.618-1.568,0.923c-1.874,1.092-3.751,2.179-5.628,3.267
			c-0.115,0.067-0.226,0.143-0.354,0.185c-0.46-0.522-0.896-1.064-1.334-1.603c-0.566-0.696-1.084-1.428-1.582-2.173
			c-0.408-0.61-0.803-1.23-1.164-1.871c-0.29-0.515-0.572-1.034-0.857-1.552c1.06-0.617,2.12-1.235,3.182-1.849
			c1.698-0.983,3.397-1.964,5.096-2.944C25.103,22.063,25.186,22.026,25.266,21.986z"/>
		<path style="fill:#1F5DB7;" d="M36.806,37.703c-0.092,0.301-0.137,0.612-0.2,0.919c-0.279,1.344-0.552,2.689-0.829,4.034
			c-0.004,0.022-0.021,0.041-0.031,0.062c-0.031-0.083-0.102-0.105-0.179-0.124c-1.115-0.284-2.203-0.653-3.27-1.081
			c-1.317-0.528-2.592-1.144-3.815-1.866c-0.049-0.029-0.093-0.045-0.148-0.031c-0.113-0.539-0.224-1.079-0.339-1.618
			c-0.074-0.345-0.008-0.304-0.379-0.306c-0.696-0.002-1.392-0.002-2.088-0.003c-0.009-0.01-0.018-0.02-0.026-0.029
			c-0.028-0.032-0.052-0.07-0.085-0.095c-0.479-0.363-0.929-0.76-1.388-1.147c-0.147-0.124-0.309-0.24-0.397-0.422
			c1.189-0.746,2.378-1.493,3.567-2.239c1.125-0.705,2.25-1.409,3.376-2.113c0.056-0.035,0.117-0.064,0.175-0.096
			c0.029,0.025,0.062,0.045,0.086,0.074c0.232,0.292,0.519,0.532,0.764,0.812c0.175,0.2,0.386,0.368,0.576,0.556
			c0.312,0.308,0.658,0.578,0.99,0.863c0.414,0.356,0.843,0.695,1.287,1.015c0.73,0.527,1.48,1.024,2.256,1.481
			c0.765,0.45,1.553,0.86,2.35,1.25c0.025,0.012,0.067,0.012,0.064,0.061c-0.723,0-1.445-0.001-2.167,0.001
			C36.906,37.66,36.84,37.631,36.806,37.703z"/>
		<path style="fill:#0A3EAC;" d="M16.747,26.902c0.285,0.517,0.567,1.037,0.857,1.552c0.361,0.64,0.756,1.26,1.164,1.871
			c0.498,0.745,1.016,1.477,1.582,2.173c0.439,0.54,0.875,1.081,1.334,1.603c-0.534,0.316-1.067,0.634-1.603,0.946
			c-1.635,0.951-3.272,1.899-4.908,2.849c-0.578,0.336-1.163,0.661-1.731,1.014c-0.175,0.109-0.18,0.103-0.253-0.092
			c-0.618-1.626-1.132-3.285-1.577-4.966c-0.294-1.112-0.533-2.236-0.768-3.362c-0.026-0.127,0.013-0.2,0.128-0.266
			c1.876-1.079,3.749-2.163,5.623-3.245C16.643,26.95,16.695,26.927,16.747,26.902z"/>
		<path style="fill:#08227C;" d="M28.334,39.615c0.055-0.014,0.099,0.003,0.148,0.031c1.223,0.722,2.498,1.338,3.815,1.866
			c1.067,0.428,2.155,0.797,3.27,1.081c0.076,0.019,0.148,0.041,0.179,0.124c-0.062,0.429-0.159,0.852-0.245,1.276
			c-0.262,1.293-0.527,2.586-0.792,3.878c-0.263,1.278-0.529,2.556-0.792,3.834c-0.187,0.91-0.369,1.821-0.555,2.731
			c-0.244,1.199-0.489,2.399-0.734,3.598c-0.087,0.425-0.177,0.848-0.267,1.273c-0.01,0.046-0.024,0.091-0.045,0.165
			c-0.094-0.29-0.131-0.562-0.186-0.83c-0.2-0.98-0.396-1.961-0.592-2.942c-0.283-1.415-0.564-2.831-0.846-4.246
			c-0.231-1.158-0.464-2.316-0.695-3.474c-0.278-1.392-0.553-2.784-0.832-4.176c-0.269-1.341-0.54-2.681-0.81-4.021
			C28.345,39.729,28.342,39.672,28.334,39.615z"/>
		<path style="fill:#E7E7E7;" d="M12.872,15.387c0.025,0.467,0.14,0.919,0.237,1.373c0.176,0.827,0.38,1.648,0.615,2.461
			c0.235,0.813,0.48,1.623,0.762,2.421c0.254,0.718,0.53,1.428,0.807,2.137c0.126,0.324,0.274,0.639,0.418,0.956
			c0.038,0.085,0.069,0.167,0.064,0.26c-0.699,0.431-1.417,0.831-2.129,1.239c-0.999,0.572-1.998,1.143-2.997,1.714
			c-0.041,0.024-0.083,0.047-0.126,0.068c-0.072,0.036-0.105,0.008-0.114-0.069c-0.036-0.313-0.062-0.628-0.115-0.938
			c-0.12-0.702-0.155-1.414-0.238-2.12c-0.035-0.303-0.051-0.609-0.072-0.914c-0.044-0.619-0.085-1.238-0.107-1.858
			c-0.03-0.86-0.019-1.721-0.015-2.581c0.003-0.506-0.007-1.013,0.03-1.519c0.018-0.252,0.037-0.505,0.054-0.757
			c0.009-0.137,0.058-0.246,0.185-0.318c0.871-0.498,1.74-0.999,2.61-1.498C12.784,15.423,12.829,15.407,12.872,15.387z"/>
		<path style="fill:#C6C6C4;" d="M49.497,43.548c-0.268-0.016-0.53,0.045-0.796,0.065c-0.156,0.011-0.313,0.022-0.469,0.036
			c-0.398,0.036-0.799,0.042-1.198,0.067c-0.571,0.036-1.144,0.039-1.715,0.062c-0.296,0.012-0.592,0.028-0.886,0.016
			c-0.557-0.022-1.115-0.033-1.672-0.057c-0.513-0.022-1.026-0.058-1.537-0.114c-0.562-0.062-1.125-0.117-1.683-0.214
			c-0.061-0.011-0.124-0.007-0.186-0.011c0.071-0.442,0.139-0.884,0.213-1.326c0.138-0.819,0.28-1.638,0.419-2.457
			c0.035-0.209,0.033-0.209,0.241-0.209c1.974,0,3.948,0.001,5.922-0.002c0.149,0,0.278,0.037,0.406,0.113
			c1.226,0.733,2.454,1.463,3.681,2.194c0.165,0.098,0.163,0.098,0.078,0.263c-0.24,0.467-0.478,0.936-0.718,1.403
			C49.568,43.435,49.531,43.491,49.497,43.548z"/>
		<path style="fill:#3070BE;" d="M36.806,37.703c0.034-0.073,0.1-0.043,0.152-0.043c0.722-0.002,1.443-0.001,2.167-0.001
			c0.003-0.05-0.039-0.049-0.064-0.061c-0.798-0.39-1.585-0.799-2.35-1.25c-0.776-0.457-1.526-0.954-2.256-1.481
			c-0.444-0.32-0.873-0.66-1.287-1.015c-0.332-0.285-0.678-0.554-0.99-0.863c-0.19-0.188-0.401-0.356-0.576-0.556
			c-0.246-0.28-0.532-0.52-0.764-0.812c-0.023-0.029-0.057-0.05-0.086-0.074c0.386-0.282,0.806-0.512,1.208-0.77
			c0.377-0.243,0.307-0.265,0.731,0c3.618,2.256,7.236,4.512,10.854,6.767c0.056,0.035,0.111,0.072,0.166,0.108
			c-0.032,0.062-0.08,0.043-0.119,0.043c-2.228,0.001-4.457,0.001-6.685,0.001C36.873,37.695,36.839,37.701,36.806,37.703z"/>
		<path style="fill:#08227C;" d="M23.632,35.994c0.088,0.182,0.25,0.298,0.397,0.422c0.459,0.387,0.909,0.785,1.388,1.147
			c0.033,0.025,0.057,0.063,0.085,0.095c-1.431,0-2.861,0-4.292-0.001c-0.067,0-0.133-0.005-0.2-0.007
			c0.341-0.245,0.704-0.454,1.058-0.678C22.588,36.644,23.111,36.32,23.632,35.994z"/>
		<path style="fill:#153D83;" d="M21.01,37.651c0.067,0.002,0.133,0.007,0.2,0.007c1.431,0.001,2.861,0.001,4.292,0.001
			c0.009,0.01,0.018,0.02,0.026,0.029c-0.051,0.039-0.111,0.021-0.166,0.021c-1.414,0.002-2.828,0.003-4.243,0.001
			C21.081,37.71,20.998,37.758,21.01,37.651z"/>
	</g>
</g>
</svg>
