<?xml version="1.0" encoding="UTF-8" standalone="no"?>
<svg
   xmlns:dc="http://purl.org/dc/elements/1.1/"
   xmlns:cc="http://creativecommons.org/ns#"
   xmlns:rdf="http://www.w3.org/1999/02/22-rdf-syntax-ns#"
   xmlns:svg="http://www.w3.org/2000/svg"
   xmlns="http://www.w3.org/2000/svg"
   xmlns:sodipodi="http://sodipodi.sourceforge.net/DTD/sodipodi-0.dtd"
   xmlns:inkscape="http://www.inkscape.org/namespaces/inkscape"
   version="1.0"
   width="64"
   height="64"
   viewBox="0 0 640 640"
   preserveAspectRatio="xMidYMid meet"
   id="svg34"
   sodipodi:docname="89px-Copenhagen_Flames_2018_teamcardimage.svg"
   inkscape:version="0.92.3 (2405546, 2018-03-11)">
  <metadata
     id="metadata40">
    <rdf:RDF>
      <cc:Work
         rdf:about="">
        <dc:format>image/svg+xml</dc:format>
        <dc:type
           rdf:resource="http://purl.org/dc/dcmitype/StillImage" />
        <dc:title></dc:title>
      </cc:Work>
    </rdf:RDF>
  </metadata>
  <defs
     id="defs38" />
  <sodipodi:namedview
     pagecolor="#ffffff"
     bordercolor="#666666"
     borderopacity="1"
     objecttolerance="10"
     gridtolerance="10"
     guidetolerance="10"
     inkscape:pageopacity="0"
     inkscape:pageshadow="2"
     inkscape:window-width="1920"
     inkscape:window-height="1017"
     id="namedview36"
     showgrid="false"
     inkscape:pagecheckerboard="true"
     inkscape:zoom="8.1581844"
     inkscape:cx="28.594517"
     inkscape:cy="35.951238"
     inkscape:window-x="-8"
     inkscape:window-y="-8"
     inkscape:window-maximized="1"
     inkscape:current-layer="svg34" />
  <g
     id="layer101"
     style="fill:#1e2a4e;stroke:none"
     transform="matrix(0.43606923,0,0,0.43606923,125.61741,2.8316009e-6)">
    <path
       d="m 355,1466 c -5,-3 -22,-7 -37,-10 -75,-17 -114,-243 -67,-387 37,-114 115,-252 249,-444 43,-60 85,-125 94,-142 9,-18 20,-33 24,-33 4,1 37,50 75,109 l 67,109 -76,108 c -42,60 -107,162 -146,226 -72,122 -82,160 -42,166 17,2 30,-14 72,-87 63,-111 214,-341 224,-341 11,0 52,86 78,162 33,98 26,217 -17,311 -44,93 -118,169 -211,215 -70,34 -82,37 -176,39 -56,1 -105,1 -111,-1 z"
       id="path26"
       inkscape:connector-curvature="0" />
    <path
       d="M 128,1343 C 83,1295 40,1218 18,1146 1,1088 -2,1061 3,971 10,840 30,778 134,575 190,466 215,405 226,350 247,245 250,245 284,340 l 23,62 21,-58 C 369,231 381,123 361,38 354,6 355,0 368,0 c 26,0 131,116 158,174 56,122 42,213 -51,350 -188,275 -253,390 -299,528 -30,88 -34,183 -12,266 15,61 5,68 -36,25 z"
       id="path28"
       inkscape:connector-curvature="0" />
  </g>
  <g
     id="layer102"
     style="fill:#f07d13;stroke:none"
     transform="matrix(0.43606923,0,0,0.43606923,125.61741,2.8316009e-6)">
    <path
       d="M 128,1343 C 83,1295 40,1218 18,1146 1,1088 -2,1061 3,971 10,840 25,795 130,585 188,470 215,404 226,350 247,245 250,245 284,340 l 23,62 21,-58 C 369,231 381,123 361,38 354,6 355,0 368,0 c 26,0 131,116 158,174 56,122 42,213 -51,350 -188,275 -253,390 -299,528 -30,88 -34,183 -12,266 15,61 5,68 -36,25 z"
       id="path31"
       inkscape:connector-curvature="0" />
  </g>
</svg>
