<?xml version="1.0" encoding="iso-8859-1"?>
<!-- Generator: Adobe Illustrator 16.0.0, SVG Export Plug-In . SVG Version: 6.00 Build 0)  -->
<!DOCTYPE svg PUBLIC "-//W3C//DTD SVG 1.1//EN" "http://www.w3.org/Graphics/SVG/1.1/DTD/svg11.dtd">
<svg version="1.1" id="Layer_1" xmlns="http://www.w3.org/2000/svg" xmlns:xlink="http://www.w3.org/1999/xlink" x="0px" y="0px"
	 width="64px" height="64px" viewBox="0 0 64 64" style="enable-background:new 0 0 64 64;" xml:space="preserve">
<g>
	<path style="fill-rule:evenodd;clip-rule:evenodd;fill:#F9B82D;" d="M60.043,14.592c1.049,0.834,1.549,2.225,2.93,2.894
		c0.049,2.641-1.413,4.304-3.813,5.383c-0.244,0.89-0.102,1.843-0.486,2.761c1.748,0.708,3.517,0.867,5.255,1.454
		c0,3.638,0,7.263,0,11.058c-2.038,0.813-4.163,1.662-6.368,2.542c0,3.728,0,7.418,0,11.208c-2.48,1.282-5.054,2.209-7.573,3.297
		c-1.196-0.731-2.141-1.794-3.593-2.26C42.245,57.332,37.557,61.049,32.191,64c-5.356-2.939-10.102-6.668-14.309-11.194
		c-1.392,0.498-2.478,1.406-3.723,2.425c-2.457-1.03-4.976-2.085-7.607-3.189c0-3.772,0-7.512,0-11.321
		c-2.23-0.89-4.36-1.74-6.481-2.586c0-3.719,0-7.35,0-11.066c1.84-0.462,3.634-0.914,5.493-1.381
		c-0.113-1.594-0.408-3.116-0.193-4.724c1.081-0.69,2.399-0.941,3.639-1.559c0-3.608,0-7.188,0-10.778
		c2.062-1.451,4.245-2.486,6.509-3.344c3.825-1.45,7.773-2.379,11.864-2.719c1.209-0.1,2.413-0.294,3.629-0.251
		c0.595,0.021,1.055-0.257,1.552-0.489c1.645-0.767,3.285-1.557,5.165-1.544c0.399-0.137,0.8-0.275,1.141,0.124
		c-0.188,0.838-0.957,0.821-1.546,0.964c-2.818,0.68-5.224,2.06-7.223,4.142c-0.797,0.831-1.762,1.332-2.847,1.599
		c-3.199,0.788-5.85,2.656-8.227,4.738c-0.92,0.805-1.816,1.741-2.809,2.528c-0.718,1.643-1.771,2.957-3.523,3.583
		c-0.243-0.158-0.347-0.396-0.395-0.67c0.087-1.71,0.124-3.419,0.12-5.131c-0.002-0.659-0.012-1.335,0.441-1.892
		c1.683-0.383,2.011-0.065,2.233,2.378c3.319-3.948,7.522-6.272,12.21-7.822c0.226-0.154,0.508-0.23,0.707-0.613
		c-1.15-0.136-2.213,0.158-3.265,0.32c-4.068,0.627-7.946,1.875-11.705,3.562c-1.701,0.765-2.401,1.878-2.282,3.745
		c0.131,2.038-0.036,4.092,0.048,6.134c0.074,1.781-0.465,3.019-2.321,3.455c-0.373,0.088-0.717,0.291-1.024,0.608
		c-0.431,0.688-0.234,1.456-0.142,2.22c0.266,2.176-0.125,2.723-2.28,3.262c-0.956,0.24-1.978,0.28-2.977,0.976
		c-0.451,2.016-0.167,4.137-0.215,6.58c20.146-4.923,40.11-4.908,60.012-0.086c0.439-1.593,0.442-4.885,0.063-6.452
		c-0.738-0.763-1.791-0.729-2.737-0.97c-1.981-0.502-2.335-1.056-2.154-3.034c0.146-1.601,0.604-2.862,2.289-3.463
		c0.778-0.278,1.344-0.952,1.706-1.802c-0.614-1.417-0.831-3.042-1.979-4.249c-0.112-0.281-0.03-0.519,0.162-0.733
		C59.62,14.028,59.86,14.233,60.043,14.592z"/>
	<path style="fill-rule:evenodd;clip-rule:evenodd;fill:#F9B82D;" d="M38.815,0.59c-0.265-0.447-0.724-0.211-1.087-0.31
		c0.43-0.369,0.936-0.274,1.433-0.237c0.436,0.162,0.871,0.168,1.305-0.005c0.651-0.043,1.31-0.132,1.959,0.291
		c-0.393,0.929-1.232,1.549-1.542,2.542c0.586,0.526,1.238,0.392,1.968,0.243c2.271-0.463,4.559-0.785,6.916,0.018
		c-0.35,0.88-1.514,0.797-1.945,1.656c1.279,0.553,2.566,1.079,3.828,1.662c1.244,0.574,2.464,1.206,3.721,2.154
		c0,2.677,0,5.459,0,8.299c0.915-0.124,1.305-0.624,1.523-1.044c0.302-0.697-0.035-1.142-0.096-1.621
		c0.041-0.174,0.135-0.313,0.282-0.416c0.086-0.011,0.17-0.022,0.255-0.034c0.08,0.028,0.161,0.057,0.241,0.083
		c0.068,0.048,0.135,0.1,0.204,0.147c1.115,1.896,0.978,2.973-0.793,4.003c-0.667,0.387-0.561,0.93-0.726,1.35
		c-0.711,0.49-1.369,0.67-2.101,0.312c-0.63-0.551-0.538-1.303-0.545-2.008c-0.022-2.211-0.046-4.423,0.006-6.633
		c0.029-1.257-0.409-2.086-1.58-2.62c-1.358-0.619-2.688-1.298-4.088-1.821c-0.688-0.257-1.37-0.467-2.159,0.261
		c0.993,0.665,2.063,1.038,3.024,1.592c0.704,0.407,1.547,0.678,1.738,1.637c-1.106,2.519-0.511,5.165-0.561,7.759
		c-0.013,0.658,0.398,1.115,1.096,1.232c0.439,0.074,0.856,0.186,1.025,0.689c-0.63,0.755-1.497,0.575-2.289,0.589
		c-1.153,0.021-2.288,0.095-3.383,0.5c-1.152,0.426-1.916,1.22-2.314,2.373c-0.079,0.148-0.188,0.272-0.324,0.372
		c-0.851,0.081-1.385-0.502-1.701-1.099c-0.925-1.739-2.433-2.221-4.236-2.332c-1.737-0.107-3.378,0.124-4.784,0.822
		c-0.43,0.525-0.146,0.886-0.104,1.253c-0.007,0.166-0.068,0.307-0.181,0.427c-1.642,0.298-2.617-0.056-3.744-1.368
		c0.009-0.878,0.712-1.166,1.33-1.514c2.46-1.387,5.176-1.476,7.887-1.448c1.429,0.015,2.859,0.167,4.282,0.407
		c2.803,0.472,5.11-1.632,5.093-4.634c-1.295-1.444-3.515-1.42-4.812-2.657c-0.198-0.734,0.314-1.097,0.328-1.597
		c-0.011-0.515-0.424-0.897-0.487-1.635c0.38-2.102,2.301-3.12,4.184-4.458c-2.973,0.094-5.458,1.113-8.034,2.107
		c-0.635-1.989,0.94-3.068,1.204-4.511C39.741,0.911,39.048,1.11,38.815,0.59z"/>
	<path style="fill-rule:evenodd;clip-rule:evenodd;fill:#CB962B;" d="M56.704,13.013c0.253,0.353,0.84,0.063,1.031,0.536
		c0.083,0.084,0.117,0.173,0.102,0.268c-0.016,0.096-0.036,0.145-0.061,0.145c-0.149,0.094-0.282,0.075-0.401-0.055l0.014,0.024
		c-0.097-0.118-0.202-0.134-0.319-0.029l-0.017,0.076c-0.145,0.071-0.279,0.057-0.407-0.041c-0.354-0.17-0.456-0.494-0.566-0.79
		C56.301,12.916,56.508,13.01,56.704,13.013z"/>
	<path style="fill-rule:evenodd;clip-rule:evenodd;fill:#F9B82D;" d="M40.466,0.039c-0.433,0.444-0.867,0.444-1.305,0.005
		C39.597,0.042,40.031,0.041,40.466,0.039z"/>
	<path style="fill-rule:evenodd;clip-rule:evenodd;fill:#F9B82D;" d="M56.646,13.937c0.135,0.013,0.271,0.027,0.407,0.041
		c-0.085,0.087-0.17,0.174-0.255,0.261C56.748,14.138,56.696,14.038,56.646,13.937z"/>
	<path style="fill-rule:evenodd;clip-rule:evenodd;fill:#010101;" d="M57.375,13.907c0.12-0.006,0.24-0.011,0.359-0.017
		c0.309-0.184,0.485,0.129,0.729,0.192c0.204,0.048,0.367,0.165,0.508,0.315c0.039,0.056,0.077,0.112,0.115,0.168
		c1.196,1.024,2.259,2.111,1.798,3.869c0.345,0.246,0.654-0.009,0.929-0.015c0.502,0.982-1.428,2.825-4.055,3.917
		c0.07,1.386-0.546,2.758-0.281,4.256c1.673,0.564,3.452,0.685,5.148,1.356c0,2.521,0,5.05,0,7.759
		c-20.392-5.09-40.772-5.11-61.215,0.007c0-2.572,0-5.096,0-7.744c1.689-0.788,3.675-0.768,5.485-1.49
		c0.286-1.604-0.507-3.165-0.161-4.862c1.007-0.658,2.3-0.815,3.548-1.428c0-3.65,0-7.333,0-10.896
		c3.438-2.818,13.217-5.85,19.182-5.658c-0.615,0.854-1.242,1.512-2.251,1.701c-4.28,1.052-8.623,1.928-12.449,4.289
		c-0.481,0.297-1.056,0.323-1.525,0.622c-0.367,0.211-0.26,0.572-0.262,0.884c-0.01,1.324-0.039,2.649,0.008,3.972
		c0.03,0.839-0.106,1.626-0.418,2.394c-0.125,0.282-0.042,0.638-0.302,0.869c-0.075,0.078-0.124,0.173-0.143,0.279
		c-0.014,0.091-0.019,0.187-0.011,0.278c0.001-0.004-0.123,0.028-0.123,0.028s0.125-0.046,0.126-0.05
		c0.005-0.104,0.017-0.203,0.037-0.305c0.048-0.105,0.113-0.193,0.198-0.269c0.166-0.175,0.354-0.316,0.558-0.441
		c0.862-1.001,1.762-1.965,2.827-2.755c-0.114-0.332-0.497-0.125-0.68-0.396c0.952-0.973,2.182-1.558,3.332-2.269
		c-0.108-0.317-0.477-0.087-0.63-0.299c-0.08-0.069-0.058-0.148,0.071-0.228c0.606-0.377,1.222-0.739,1.818-1.13
		c0.609-0.401,1.408-0.528,1.668-1.43c0.091-0.315,0.678-0.516,1.066-0.712c1.664-0.844,3.389-1.537,5.18-2.067
		c0.687-0.203,1.295-0.484,1.816-1.038c2.57-2.732,5.738-4.366,9.438-4.97c0.662,0.007,1.323,0.009,1.985,0.027
		c0.097,0.002,0.191,0.086,0.372,0.173c-0.949,1.452-2.043,2.833-2.422,4.816c2.988-1.579,5.956-2.442,9.462-2.222
		c-2.069,1.566-4.347,2.549-5.247,4.962c0.262,0.674,1.069,0.974,1.192,1.701c-0.234,0.558-1.005,0.513-1.185,1.215
		c1.756,0.836,3.681,1.354,5.296,2.403c0.329,3.092-1.868,4.402-3.885,5.881c-3.76-0.758-7.522-1.205-11.303-0.308
		c-1.394,0.331-2.712,0.884-3.947,1.905c1.061,1.074,2.34,1.347,3.709,1.401c0.123-0.019,0.229,0.173,0.362,0.029
		c-0.155-0.082-0.27-0.21-0.389-0.334c-0.438-0.153-0.733-0.447-0.905-0.861c1.758-1.822,5.339-2.218,9.154-1.039
		c0.836,1.125,1.428,2.459,2.734,3.18l0.027,0.05c0,0,0.053,0.023,0.053,0.022c0,0-0.049,0.03-0.048,0.029
		c0,0-0.004-0.056-0.004-0.057l-0.054-0.018c-0.166-1.031,0.275-1.764,1.074-2.384c1.088-0.844,2.335-1.17,3.665-1.225
		c1.093-0.044,2.188-0.009,3.477-0.009c0.001,0.001-0.162-0.466-0.244-0.261s0.074-0.014-0.144-0.055
		c-0.161-0.029-0.324-0.051-0.486-0.077c-0.649-0.666-0.549-1.519-0.568-2.336c-0.06-2.415,0.107-4.833-0.135-7.245
		c-1.639-1.236-3.506-2.033-5.477-2.827c0.246-0.7,0.883-1.027,1.334-1.475c2.286,0.505,5.602,1.984,7.779,3.484
		c0,3.375,0,6.832,0,10.274c0.912,0.361,1.577-0.142,2.318-0.297c-0.313-0.374-0.916-0.137-1.17-0.716
		c0.95-0.495,2.133-0.685,2.69-1.628C58.455,15.608,57.75,14.791,57.375,13.907z"/>
	<path style="fill-rule:evenodd;clip-rule:evenodd;fill:#010101;" d="M18.235,50.942c-1.681,0.615-3.021,1.463-4.326,2.512
		c-1.974-0.833-3.938-1.661-6.002-2.53c0-3.757,0-7.5,0-11.33c-2.088-0.842-4.104-1.654-6.405-2.583
		c20.458-5.129,40.569-5.132,61.026-0.001c-2.3,0.928-4.314,1.741-6.356,2.565c0,3.8,0,7.495,0,11.312
		c-1.979,0.846-3.936,1.684-5.956,2.548c-1.299-0.884-2.552-1.878-4.155-2.399c-3.971,4.442-8.527,8.142-13.83,11.166
		C26.926,59.322,22.352,55.498,18.235,50.942z"/>
	<path style="fill-rule:evenodd;clip-rule:evenodd;fill:#C5892B;" d="M13.239,10.247c1.238-1.307,2.875-1.95,4.468-2.659
		c2.769-1.233,5.718-1.801,8.686-2.283c0.265-0.043,0.547,0.019,0.821,0.032c-2.18,0.854-4.373,1.67-6.419,2.83
		c-1.543,0.873-1.586,0.88-2.062,2.023c-1.152,0.336-1.825,1.458-2.938,2.027c-0.282,0.525-0.217,1.331-1.146,1.532
		c0-0.97,0-1.93,0-2.806C14.18,10.495,13.753,10.281,13.239,10.247z"/>
	<path style="fill-rule:evenodd;clip-rule:evenodd;fill:#DBA12B;" d="M12.908,17.885c-0.054,0.321-0.261,0.531-0.512,0.709
		c-0.137,0.132-0.264,0.124-0.381-0.025c0.152-0.374,0.17-0.816,0.552-1.072C12.615,17.684,12.71,17.83,12.908,17.885z"/>
	<path style="fill-rule:evenodd;clip-rule:evenodd;fill:#F9B82D;" d="M59.073,14.188c0.102,0.044,0.202,0.088,0.304,0.132
		c-0.097,0.081-0.193,0.163-0.29,0.245l-0.022-0.011c-0.1-0.084-0.13-0.166-0.095-0.246S59.039,14.188,59.073,14.188z"/>
	<path style="fill-rule:evenodd;clip-rule:evenodd;fill:#C2872B;" d="M50.414,9.957c0.819,0.234,0.641,0.913,0.646,1.491
		c0.025,2.696,0.039,5.393,0.057,8.09c-0.584,0.093-1.076-0.129-1.613-0.507c0-2.64,0-5.336,0-8.269
		C49.586,10.483,50.33,10.528,50.414,9.957z"/>
	<path style="fill-rule:evenodd;clip-rule:evenodd;fill:#926D2A;" d="M32.817,22.241c0.439-0.004,0.702,0.458,1.414,0.231
		c-0.684,0.549-1.055,0.478-1.388,0.073C32.851,22.443,32.842,22.341,32.817,22.241z"/>
	<path style="fill-rule:evenodd;clip-rule:evenodd;fill:#886628;" d="M57.069,13.902c0.059-0.073,0.117-0.146,0.176-0.219
		c0.048,0.083,0.096,0.166,0.144,0.248l-0.163,0.015L57.069,13.902z"/>
	<path style="fill-rule:evenodd;clip-rule:evenodd;fill:#F9B82D;" d="M59.073,14.188c-0.003,0.122-0.006,0.244-0.009,0.366
		c-0.225-0.125-0.449-0.249-0.673-0.374c-0.089-0.078-0.114-0.152-0.079-0.223c0.034-0.068,0.067-0.103,0.1-0.103
		C58.671,13.887,58.951,13.881,59.073,14.188z"/>
	<path style="fill-rule:evenodd;clip-rule:evenodd;fill:#F9B82D;" d="M58.412,13.854c-0.014,0.108-0.02,0.217-0.021,0.326
		c-0.22-0.096-0.438-0.193-0.657-0.29c0-0.114,0.001-0.228,0.001-0.341C57.99,13.585,58.28,13.542,58.412,13.854z"/>
	<path style="fill-rule:evenodd;clip-rule:evenodd;fill:#949494;" d="M25.543,16.172c0.697,0.146,1.395,0.292,2.201,0.459
		c-0.559,0.6-1.313,0.575-1.863,0.941c-0.842,0.558-1.669,1.124-1.655,2.291c0.013,1.082,0.716,1.674,1.559,2.167
		c1.097,0.642,2.301,0.997,3.615,1.335c-3.729,0.642-7.632-0.684-9.213-3.112c0.355-1.187,1.369-1.767,2.343-2.385
		c0.072-0.07,0.117-0.154,0.133-0.252c-0.112-0.224-0.287-0.178-0.468-0.104c-2.901,0.419-5.296,1.851-7.453,3.75
		c-0.363,0.321-0.725,0.646-1.086,0.969c-0.115,0.152-0.221,0.146-0.315-0.019c0.628-1.779,2.095-2.923,3.253-4.301
		c0.092-0.118,0.155-0.257,0.255-0.362c-0.004,0.004,0.097-0.059,0.097-0.059s-0.116-0.021-0.119-0.019
		c-0.003,0.003-0.124,0.042-0.124,0.042l-0.128-0.002c-0.219,0.014-0.438,0.027-0.656,0.041l0.024,0.024
		c0.64-1.236,1.838-1.842,2.932-2.542c1.727-1.103,3.611-1.832,5.646-2.148c0.196-0.143,0.591-0.18,0.309-0.579
		c-0.917-0.156-1.833-0.312-3.002-0.51c1.664-1.26,3.442-1.41,5.211-1.605c-0.308-0.687-1.198-0.415-1.688-1.069
		c0.907-0.374,1.726-0.807,2.645-0.864c0.354,0.375,0.117,0.818,0.424,1.329c1.222-2.068,2.396-4.07,4.348-5.468
		c1.951-1.397,4.056-2.344,6.665-2.882c-1.581,2.228-3.641,3.999-3.23,6.983c0.498-0.341,0.594-0.977,1.168-1.177
		c0.515,0.029,0.962,0.383,1.472,0.559c0.22,0.356-0.358,0.529-0.175,0.926c0.599,0.513,1.778,0.426,1.983,1.638
		c-0.854,0.453-1.672,0.313-2.494,0.102c-1.482-0.564-2.927-1.249-4.556-1.399c0.239-0.472,0.908-0.16,1.095-0.696
		c-0.064-2.036,1.063-3.609,2.118-5.213c0.063-0.048,0.133-0.083,0.209-0.104c0,0,0.073-0.091,0.073-0.091s-0.07,0.093-0.07,0.092
		c-0.079,0.019-0.142,0.062-0.188,0.129c-0.813,0.025-1.388,0.54-2.003,0.972c-2.104,1.46-3.751,3.327-4.961,5.58
		c-0.046,0.22-0.358,0.44,0.018,0.658c0.11,0.092,0.191,0.2,0.254,0.327c0.087,0.216,0.13,0.438,0.15,0.669
		c0.026,0.59,0.064,1.181-0.161,1.747c-0.14,0.236-0.304,0.429-0.621,0.325c-0.186-0.152-0.37-0.303-0.566-0.464
		c-0.168,0.488-0.063,0.949-0.036,1.408c0.1,0.142,0.085,0.271-0.044,0.387c-0.812-0.534-1.682-0.371-2.541-0.186
		c-1.388,0.3-2.807,0.502-4.077,1.203c-0.209,0.599,0.274,0.438,0.534,0.459C23.698,16.142,24.628,15.961,25.543,16.172z"/>
	<path style="fill-rule:evenodd;clip-rule:evenodd;fill:#F9F9F9;" d="M40.442,16.934c-1.907-0.236-3.814-0.473-5.656-0.702
		c-0.324,0.248-0.013,0.421-0.094,0.634c-1.371,0.208-2.771,0.42-4.172,0.633c-0.118-0.064-0.16-0.131-0.126-0.204
		c0.036-0.074,0.072-0.111,0.109-0.111c0.494-0.503,1.221-0.403,1.835-0.786c0.082-0.226-0.478-0.212-0.218-0.695
		c1-0.143,2.161-0.308,3.412-0.486c-0.848-1.039-1.455-2.046-0.667-3.426c1.001,1.081,2.029,1.963,3.436,2.23
		c0.578-0.167,0.616-0.915,1.186-1.096c0.541,0,1.088,0,1.636,0c0.199,0.166,0.447,0.053,0.66,0.116
		c-0.004-0.002,0.145,0.041,0.14,0.039s0.14,0.007,0.137-0.01c-0.117-0.013-0.212-0.053-0.29-0.145
		c-0.056-0.12-0.053-0.233,0.005-0.344c0.582-0.003,1.145,0.088,1.667,0.362c0.629,0.486,1.839,0.056,2.004,1.272
		c-0.847,0-1.693,0-2.643,0c0.326,0.654,0.655,1.164,1.311,1.379c0.254,0.18,0.65,0.132,0.816,0.556
		c0.116,0.565-0.228,0.951-0.729,1.314C42.916,17.682,41.712,17.053,40.442,16.934z"/>
	<path style="fill-rule:evenodd;clip-rule:evenodd;fill:#484848;" d="M29.514,9.577c1.015-2.59,2.84-4.414,5.316-5.623
		c-0.695,0.753-1.433,1.474-2.078,2.269c-1.119,1.379-1.823,2.943-1.925,4.896c0.893-0.296,1.675-0.556,2.678-0.889
		c-0.243,0.839-0.429,1.487-0.636,2.202c0.147,0.676,0.404,1.382,0.926,2.111c-0.742-0.021-1.392,0.258-1.97-0.247
		c-0.033-0.451-0.235-0.836-0.459-1.207c-0.444-0.502-1.069,0.402-1.49-0.204c0.006-0.651,0.013-1.302,0.02-1.954
		c0.096-0.218,0.277-0.442-0.05-0.626l-0.155-0.004l-0.153,0.021C29.339,10.081,29.333,9.832,29.514,9.577z"/>
	<path style="fill-rule:evenodd;clip-rule:evenodd;fill:#F2B32D;" d="M52.375,23.479c-0.407,0.033-0.813,0.066-1.221,0.099
		c-0.555,0.554-1.224,0.986-1.732,1.592c-1.109,0.163-2.129-0.392-3.295-0.327c0.027-1.113,0.771-1.414,1.551-1.639
		c1.22-0.351,2.471-0.395,3.729-0.277C51.624,23.294,52.425,22.638,52.375,23.479z"/>
	<path style="fill-rule:evenodd;clip-rule:evenodd;fill:#E9E7E6;" d="M56.487,30.814c-0.2,0.677-0.2,0.677-0.803,1.083
		c-0.358-1.029-0.21-2.015-0.12-3.031c1.216-0.218,0.914,1.115,1.728,1.341c0.36-0.154-0.21-0.835,0.443-1.095
		c0.732,0.943,0.088,2.028,0.425,3.057C57.215,31.909,57.215,31.909,56.487,30.814z"/>
	<path style="fill-rule:evenodd;clip-rule:evenodd;fill:#DCDBDA;" d="M46.812,28.465c0.336,0.471,0.466,0.971,0.204,1.561
		c-0.721,0.714-1.44,0.483-2.184-0.09c-0.442-0.863-0.492-1.734,0.061-2.609c0.73-0.305,1.403-0.297,1.982,0.266
		c0.322,0.314,0.394,0.656-0.093,0.914c-0.424-0.271-0.837-0.482-1.273,0.451C45.957,28.129,46.381,28.278,46.812,28.465z"/>
	<path style="fill-rule:evenodd;clip-rule:evenodd;fill:#E5E3E3;" d="M22.372,26.84c0.765,0.029,1.478-0.44,2.261-0.035
		c-0.196,0.81-0.977,0.432-1.359,0.852c0.33,0.412,0.96-0.056,1.255,0.411c-0.047,0.889-1.165,0.084-1.332,0.876
		c0.401,0.518,1.173-0.096,1.626,0.525c-0.731,0.716-1.6,0.287-2.504,0.397C22.243,28.805,22.176,27.849,22.372,26.84z"/>
	<path style="fill-rule:evenodd;clip-rule:evenodd;fill:#E5E4E3;" d="M50.168,27.853c0.926-0.005,1.718-0.061,2.333,0.545
		c-0.412,0.805-0.985-0.075-1.419,0.412c0.171,0.641,1.056,0.103,1.266,0.756c-0.176,0.677-1.012-0.037-1.275,0.505
		c0.175,0.805,1.395-0.017,1.48,1.016c-0.819,0.228-1.585,0.07-2.385-0.316C50.168,29.85,50.168,28.931,50.168,27.853z"/>
	<path style="fill-rule:evenodd;clip-rule:evenodd;fill:#E1DFDF;" d="M35.653,29.58c-0.632-0.22-0.362-0.735-0.419-0.833
		c-0.364-0.362-0.587-0.282-0.787-0.279c-0.49,0.201-0.002,0.898-0.561,1.058c-0.576-0.038-0.649-1.578-0.137-3.038
		c0.716,0.017,0.254,0.733,0.658,1.039c0.122,0.016,0.33,0.043,0.484,0.063c0.528-0.211,0.046-0.928,0.614-1.065
		c0.119,0.016,0.299,0.001,0.317,0.048C36.225,27.616,36.158,28.694,35.653,29.58z"/>
	<path style="fill-rule:evenodd;clip-rule:evenodd;fill:#EAE9E8;" d="M13.937,30.154c-0.59,0.988-1.298,1.194-2.164,0.921
		c-0.654-1.199-0.657-2.32,0.052-2.847c0.67-0.498,1.389-0.659,2.008,0.131C14.042,28.959,13.886,29.561,13.937,30.154z"/>
	<path style="fill-rule:evenodd;clip-rule:evenodd;fill:#484848;" d="M38.152,10.265c0.738-0.064,1.5,0.152,2.3-0.167
		c-0.613-1.19-2.045-1.107-2.854-1.902c0.339-0.473,1.051,0.044,1.24-0.596c0.571-0.035,1.078,0.103,1.532,0.617
		c-0.481,0.041-0.901,0.077-1.544,0.132c1.219,0.589,2.341,0.932,3.367,1.811C40.758,10.88,39.47,10.909,38.152,10.265z"/>
	<path style="fill-rule:evenodd;clip-rule:evenodd;fill:#E8E7E6;" d="M41.777,29.855c-0.702,0.105-0.901-0.659-1.391-0.504
		c-0.613-0.218-0.798,0.722-1.506,0.303c0.367-1.02,0.561-2.12,1.445-3.151C41.309,27.501,41.456,28.695,41.777,29.855z"/>
	<path style="fill-rule:evenodd;clip-rule:evenodd;fill:#F6F6F5;" d="M27.865,29.493c-0.143-0.986-0.233-1.971,0.062-2.948
		c0.965-0.08,0.896,0.931,1.468,1.195c0.362-0.335-0.131-0.985,0.593-1.292c0.535,1.014,0.25,2.028,0.184,3.035
		c-0.978,0.124-0.922-0.878-1.491-1.169c-0.131,0.426-0.261,0.848-0.391,1.271C28.148,29.554,28.007,29.523,27.865,29.493z"/>
	<path style="fill-rule:evenodd;clip-rule:evenodd;fill:#F2F1F1;" d="M17.021,30.492c-0.223-1.054-0.069-2.069-0.095-3.131
		c0.752-0.223,1.379-0.202,1.89-0.129c0.631,0.536,0.579,1.054,0.364,1.599c-0.356,0.468-0.907,0.569-1.402,0.743
		C17.491,29.817,17.781,30.401,17.021,30.492z"/>
	<path style="fill-rule:evenodd;clip-rule:evenodd;fill:#959494;" d="M40.442,16.934c1.218-0.273,2.344,0.557,3.667,0.261
		c0.326-0.149,0.538-0.51,0.674-0.895c-0.053-0.438-0.548-0.384-0.67-0.704c0.79,0.29,1.472-0.519,2.369-0.272
		c-0.443,1.231-1.519,1.754-2.288,2.608C42.915,17.625,41.625,17.495,40.442,16.934z"/>
	<path style="fill-rule:evenodd;clip-rule:evenodd;fill:#909191;" d="M29.876,12.886c0.73,0.126,0.916-0.712,1.529-0.851
		c0.399,0.656,0.475,1.461,1.065,2.087c-0.336,0.09-0.491,0.132-0.646,0.174c-0.864-0.14-1.759-0.211-2.316-1.036
		C29.71,13.214,29.827,13.084,29.876,12.886z"/>
	<path style="fill-rule:evenodd;clip-rule:evenodd;fill:#EDECEB;" d="M6.681,29.938c0.062,0.509-0.176,1.092,0.23,1.438
		c0.719,0.26,0.732-0.773,1.339-0.5c-0.224,1.304-0.768,1.54-2.215,0.901c-0.008-0.751-0.365-1.554,0.258-2.274
		C6.629,29.464,6.797,29.574,6.681,29.938z"/>
	<path style="fill-rule:evenodd;clip-rule:evenodd;fill:#B9822B;" d="M49.422,25.169c0.021-0.363,0.043-0.727,0.065-1.116
		c0.584-0.167,1.126-0.321,1.667-0.476c-0.05,0.586-0.1,1.171-0.147,1.732C50.397,25.692,49.938,25.167,49.422,25.169z"/>
	<path style="fill-rule:evenodd;clip-rule:evenodd;fill:#848483;" d="M45.445,14.217c-0.385-0.87-1.498-0.592-2.004-1.272
		c1.209,0.013,2.243,0.54,3.358,1.077C46.335,14.501,45.952,14.838,45.445,14.217z"/>
	<path style="fill-rule:evenodd;clip-rule:evenodd;fill:#404040;" d="M42.465,4.957c-0.609,0.529-1.217,1.059-1.826,1.588
		c-0.316,0.081-0.515-0.077-0.737-0.443c0.699-0.733,1.717-0.971,2.563-1.474c0.122,0.073,0.162,0.146,0.122,0.22
		S42.506,4.957,42.465,4.957z"/>
	<path style="fill-rule:evenodd;clip-rule:evenodd;fill:#292929;" d="M25.543,16.172c-1.375,0-2.749,0-4.136,0
		c0.105-0.42,0.473-0.49,0.837-0.564c0.403,0.559,0.986,0.188,1.479,0.283C24.326,16.006,25.002,15.651,25.543,16.172z"/>
	<path style="fill-rule:evenodd;clip-rule:evenodd;fill:#DEDDDC;" d="M6.681,29.938c-0.054-0.212-0.164-0.374-0.388-0.435
		c0.43-0.777,1.101-0.751,1.774-0.593c0.301,0.238,0.381,0.465,0.107,0.85C7.737,29.813,7.104,29.298,6.681,29.938z"/>
	<path style="fill-rule:evenodd;clip-rule:evenodd;fill:#A87D2A;" d="M52.375,23.479c-0.173-0.448-0.784-0.125-0.969-0.552
		c0.828-0.262,1.536,0.333,2.328,0.326c0.121,0.052,0.161,0.104,0.121,0.156c-0.04,0.052-0.08,0.078-0.121,0.078
		C53.28,23.484,52.828,23.481,52.375,23.479z"/>
	<path style="fill-rule:evenodd;clip-rule:evenodd;fill:#646464;" d="M24.827,12.305c0.26-0.026,0.541-0.101,0.633,0.303
		c-0.192,0.461-0.593,0.291-0.941,0.276C24.622,12.691,24.726,12.498,24.827,12.305z"/>
	<path style="fill-rule:evenodd;clip-rule:evenodd;fill:#565656;" d="M22.194,17.511c0.323-0.404,0.729-0.322,1.175-0.201
		c-0.188,0.355-0.496,0.483-0.84,0.557C22.51,17.662,22.353,17.586,22.194,17.511z"/>
	<path style="fill-rule:evenodd;clip-rule:evenodd;fill:#ACACAC;" d="M30.202,17.574c-0.253,0.363-0.616,0.389-1.008,0.322
		l0.002,0.001c0.002-0.479,0.397-0.478,0.708-0.578C30.045,17.355,30.145,17.439,30.202,17.574z"/>
	<path style="fill-rule:evenodd;clip-rule:evenodd;fill:#020202;" d="M42.124,13.21c-0.38,0.071-0.725,0.017-1.001-0.283
		c0.2-0.048,0.317-0.175,0.361-0.373c0.124-0.058,0.236-0.04,0.334,0.055l-0.044-0.027c0.12,0.109,0.241,0.218,0.362,0.327
		c0.084,0.07,0.11,0.138,0.079,0.204C42.185,13.178,42.154,13.21,42.124,13.21z"/>
	<path style="fill-rule:evenodd;clip-rule:evenodd;fill:#C4882B;" d="M37.82,11.672c0.314,0.04,0.573,0.188,0.879,0.452
		c-0.389,0.148-0.68,0.227-0.878-0.198c-0.09-0.057-0.12-0.113-0.091-0.169C37.761,11.701,37.79,11.672,37.82,11.672z"/>
	<path style="fill-rule:evenodd;clip-rule:evenodd;fill:#282827;" d="M42.797,4.627c0.161-0.395,0.47-0.332,1.067-0.284
		c-0.503,0.29-0.785,0.452-1.068,0.615c-0.097-0.073-0.129-0.147-0.097-0.221C42.732,4.664,42.764,4.627,42.797,4.627z"/>
	<path style="fill-rule:evenodd;clip-rule:evenodd;fill:#151515;" d="M16.573,17.509c0.142-0.304,0.408-0.284,0.678-0.261
		l-0.015-0.017c-0.036,0.395-0.336,0.542-0.644,0.679C16.587,17.776,16.58,17.643,16.573,17.509z"/>
	<path style="fill-rule:evenodd;clip-rule:evenodd;fill:#646464;" d="M12.948,23.203c-0.012-0.264-0.088-0.555,0.276-0.663
		c0.102-0.125,0.212-0.134,0.333-0.028c-0.083,0.338-0.251,0.6-0.617,0.683L12.948,23.203z"/>
	<path style="fill-rule:evenodd;clip-rule:evenodd;fill:#FFFFFF;" d="M30.202,17.574c-0.1-0.085-0.198-0.17-0.298-0.255
		c0.199-0.045,0.399-0.09,0.6-0.134c0.008,0.104,0.013,0.209,0.017,0.314C30.424,17.562,30.317,17.586,30.202,17.574z"/>
	<path style="fill-rule:evenodd;clip-rule:evenodd;fill:#A97E2C;" d="M11.933,19.208c0.023,0.212,0.05,0.425-0.149,0.592
		c-0.245-0.283-0.166-0.463,0.176-0.566L11.933,19.208z"/>
	<path style="fill-rule:evenodd;clip-rule:evenodd;fill:#916D29;" d="M53.734,23.487c0.007-0.078,0.008-0.156,0-0.234
		c0.196-0.039,0.387-0.053,0.537,0.118C54.121,23.542,53.931,23.528,53.734,23.487z"/>
	<path style="fill-rule:evenodd;clip-rule:evenodd;fill:#595959;" d="M40.591,12.086c0.123-0.137,0.254-0.162,0.414-0.026
		C40.881,12.313,40.74,12.233,40.591,12.086z"/>
	<path style="fill-rule:evenodd;clip-rule:evenodd;fill:#6D6D6D;" d="M28.862,14.591c0.015-0.129,0.029-0.258,0.044-0.387
		c0.207,0.109,0.311,0.268,0.248,0.513C28.97,14.883,28.911,14.749,28.862,14.591z"/>
	<path style="fill-rule:evenodd;clip-rule:evenodd;fill:#825C24;" d="M37.506,11.592c-0.087-0.044-0.173-0.088-0.269-0.135
		c0.245-0.198,0.211,0.038,0.25,0.153L37.506,11.592z"/>
	<path style="fill-rule:evenodd;clip-rule:evenodd;fill:#444444;" d="M42.797,4.627c0,0.11,0,0.221,0,0.331
		c-0.001,0-0.166,0-0.166,0s-0.166,0-0.166,0c0-0.11,0-0.221,0-0.33C42.576,4.626,42.688,4.626,42.797,4.627z"/>
	<path style="fill-rule:evenodd;clip-rule:evenodd;fill:#936E2A;" d="M44.104,23.873c0.202,0.014,0.317,0.119,0.335,0.323
		l0.013-0.013c-0.206-0.016-0.313-0.128-0.324-0.333L44.104,23.873z"/>
	<path style="fill-rule:evenodd;clip-rule:evenodd;fill:#CF992A;" d="M43.775,23.548c0.257-0.041,0.326,0.107,0.328,0.324
		l0.023-0.022c-0.226,0.006-0.335-0.104-0.326-0.329L43.775,23.548z"/>
	<path style="fill-rule:evenodd;clip-rule:evenodd;fill:#C8942B;" d="M12.25,18.885c0.002,0.213-0.08,0.345-0.317,0.324l0.026,0.026
		c0.012-0.118,0.023-0.236,0.036-0.354C12.081,18.766,12.167,18.773,12.25,18.885z"/>
	<path style="fill-rule:evenodd;clip-rule:evenodd;fill:#5D451A;" d="M44.438,24.196c0.082,0.045,0.166,0.09,0.258,0.14
		c-0.236,0.184-0.191-0.064-0.245-0.153L44.438,24.196z"/>
	<path style="fill-rule:evenodd;clip-rule:evenodd;fill:#3D3D3D;" d="M12.94,23.195c-0.044,0.082-0.09,0.163-0.139,0.251
		c-0.185-0.229,0.053-0.193,0.146-0.244L12.94,23.195z"/>
	<path style="fill-rule:evenodd;clip-rule:evenodd;fill:#F3B329;" d="M12.25,18.885l-0.128,0.001l-0.127-0.005
		c-0.054-0.108-0.047-0.211,0.021-0.311c0.127,0.008,0.254,0.017,0.381,0.025C12.366,18.701,12.317,18.797,12.25,18.885z"/>
	<path style="fill-rule:evenodd;clip-rule:evenodd;fill:#888888;" d="M29.194,17.896c-0.023,0.15-0.065,0.275-0.262,0.205
		c-0.027-0.23,0.133-0.197,0.264-0.204L29.194,17.896z"/>
	<path style="fill-rule:evenodd;clip-rule:evenodd;fill:#414242;" d="M15.597,17.875c-0.046,0.084-0.091,0.168-0.141,0.26
		c-0.181-0.242,0.063-0.194,0.158-0.243L15.597,17.875z"/>
	<path style="fill-rule:evenodd;clip-rule:evenodd;fill:#7D7D7D;" d="M15.614,17.892c-0.004-0.222,0.104-0.329,0.327-0.318
		l-0.024-0.024c0.013,0.225-0.111,0.317-0.32,0.326L15.614,17.892z"/>
	<path style="fill-rule:evenodd;clip-rule:evenodd;fill:#949494;" d="M13.558,22.512c-0.111,0.009-0.222,0.019-0.333,0.028
		c0.038-0.109,0.076-0.22,0.115-0.329c0.104,0,0.21,0.006,0.315,0.019C13.651,22.333,13.618,22.428,13.558,22.512z"/>
	<path style="fill-rule:evenodd;clip-rule:evenodd;fill:#F9F9F9;" d="M41.818,12.609c-0.111-0.018-0.223-0.037-0.334-0.055
		C41.656,12.215,41.734,12.427,41.818,12.609z"/>
	<path style="fill-rule:evenodd;clip-rule:evenodd;fill:#C4882B;" d="M37.82,11.672c0,0.084,0,0.169,0.001,0.253
		c-0.218-0.005-0.332-0.109-0.316-0.334c0.001,0-0.018,0.017-0.018,0.017C37.599,11.63,37.709,11.651,37.82,11.672z"/>
	<path style="fill-rule:evenodd;clip-rule:evenodd;fill:#C4882B;" d="M22.133,49.669c1.262-0.58,2.649-0.69,3.978-0.833
		c2.015-0.217,4.035-0.614,6.084-0.379c0.229,0.23,0.35,0.51,0.382,0.83c0.021,0.15,0.024,0.303,0.021,0.455
		c-0.008,0.294-0.052,0.583-0.123,0.868c-0.141,0.401-0.163,0.804-0.01,1.212c0.038,0.146,0.058,0.291,0.067,0.441
		c0.001,0.319-0.058,0.619-0.264,0.876c-0.184,0.161-0.401,0.249-0.635,0.3c-0.149,0.033-0.301,0.049-0.452,0.058
		c-0.751,0.133-1.606-0.096-2.18,0.627c0.103,0.145,0.232,0.255,0.369,0.361c0.21,0.146,0.426,0.275,0.64,0.413
		c0.279,0.186,0.552,0.38,0.846,0.543c0.187,0.097,0.374,0.192,0.564,0.287c0.14,0.059,0.271,0.13,0.4,0.206
		c0.28,0.167,0.522,0.367,0.643,0.683c0.166,0.522,0.106,1-0.282,1.41c-0.924,0.206-1.352-0.601-1.991-0.977
		c-0.119-0.112-0.212-0.253-0.371-0.319l0.022,0.023c-0.065-0.128-0.162-0.167-0.294-0.103c-0.324-0.044-0.555-0.216-0.699-0.508
		c-0.093-0.178-0.275-0.26-0.415-0.39c-0.133-0.147-0.271-0.287-0.412-0.426c-0.244-0.252-0.546-0.411-0.869-0.538
		c-0.161-0.146-0.323-0.289-0.481-0.438C25.042,52.904,23.601,51.273,22.133,49.669z"/>
	<path style="fill-rule:evenodd;clip-rule:evenodd;fill:#969595;" d="M16.538,36.753c0.11-0.219,0.268-0.331,0.637-0.173
		c0,2.768,0,5.591,0,8.145c0.315,0.785,0.624,1.23,0.995,1.635c0.244,0.133,0.276,0.348,0.227,0.593
		c-0.071,0.146-0.188,0.225-0.349,0.238c-0.888-0.097-0.821-1.431-1.812-1.398c-0.992,0.634-1.222,1.826-1.941,2.66
		c-1.143-0.269-2.306,0.869-3.44-0.048c-0.102-2.28-0.14-4.56,0.009-6.601c0.538-0.691,1.193-0.592,1.66-1.008
		c0.363-0.958,0.269-1.977,0.098-2.901c-0.249-0.576-0.838-0.679-1.063-1.137c0.522-0.553,1.288-0.118,1.996-0.691
		c0,3.659,0,7.085,0,10.561c0.772-0.183,0.955-0.688,1.093-1.229c0.431-1.194-0.325-2.544,0.481-3.688
		c0.34-0.265,0.844-0.222,1.162-0.62C16.664,39.678,16.238,38.192,16.538,36.753z"/>
	<path style="fill-rule:evenodd;clip-rule:evenodd;fill:#F8B72D;" d="M32.181,58.028c0.009-0.529,0.018-1.058,0.026-1.587
		c0.344-1.038,1.496-1.158,2.121-1.877c0.209-0.152,0.451-0.263,0.619-0.458c-0.729-0.876-2.034-0.222-2.764-1.062
		c-0.001-0.322-0.002-0.644-0.003-0.966c0.212-0.246,0.486-0.359,0.805-0.38c0.148-0.011,0.299-0.003,0.446,0.015
		c0.143,0.019,0.284,0.052,0.423,0.092c0.326,0.106,0.658,0.184,1.006,0.155c0.357,0.005,0.634-0.195,0.922-0.362
		c0.197-0.076,0.395-0.084,0.594-0.015c0.264,0.168,0.413,0.469,0.696,0.614c0.05,0.008,0.068,0.101,0.141,0.053
		c-0.197-0.127-0.394-0.251-0.523-0.453c-0.065-0.109-0.131-0.215-0.202-0.319c-0.28-0.286-0.468-0.637-0.699-0.959
		c-0.235-0.36-0.615-0.327-0.97-0.354c-0.151,0.002-0.301-0.01-0.449-0.026c-0.229-0.021-0.453-0.065-0.676-0.125
		c-0.511-0.176-1.095-0.152-1.519-0.561c0.007-0.331,0.013-0.663,0.02-0.994c3.023-0.083,5.997,0.285,8.932,0.994
		c0.475,0.788-0.213,1.174-0.585,1.658c-1.505,1.96-3.454,3.451-5.335,5.013c-0.704,0.66-1.524,1.144-2.379,1.577
		c-0.081,0.12-0.192,0.196-0.334,0.228C32.389,57.961,32.284,57.995,32.181,58.028z"/>
	<path style="fill-rule:evenodd;clip-rule:evenodd;fill:#949494;" d="M52.735,40.812c0.156,0,0.314,0,0.641,0
		c0,2.789,0,5.538,0,8.288c-1.511,0.133-2.921-0.374-4.361-0.693c-0.334-0.038-0.641-0.169-0.956-0.28
		c-0.161-0.061-0.31-0.146-0.45-0.247c-0.209-0.173-0.362-0.383-0.443-0.644c-0.031-0.179-0.046-0.358-0.048-0.539
		c0.12-1.074-0.305-2.202,0.324-3.224c0.624-0.115,1.25-0.229,2.021-0.371c0,1.568,0,3.018,0,4.356
		c0.498,0.444,0.792,0.394,1.014-0.056c0.635-1.708,0.09-3.487,0.313-5.217C51.025,41.143,52.197,41.427,52.735,40.812z"/>
	<path style="fill-rule:evenodd;clip-rule:evenodd;fill:#F7F7F7;" d="M52.735,40.812c0.055,0.15,0.108,0.301,0.185,0.509
		c-0.566,0.299-1.18,0.42-1.813,0.474c-0.21,0.185-0.416,0.187-0.613-0.02c-1.097-0.647-2.374-0.55-3.635-0.782
		c0-1.483,0-2.887,0-4.269c0.651-0.494,1.313-0.554,2.054-0.394c1.932,0.418,3.873,0.795,5.81,1.188
		c0.217,0.182,0.205,0.361-0.01,0.535c-1.352,0.418-2.704,0.836-4.045,1.251c-0.48-0.548-0.014-1.227-0.361-1.743
		c-0.962,0.361-0.962,0.361-0.843,2.358C50.445,40.535,51.673,40.392,52.735,40.812z"/>
	<path style="fill-rule:evenodd;clip-rule:evenodd;fill:#EAE9E9;" d="M21.96,43.767c0-2.008,0-4.016,0-6.119
		c0.327-0.704,0.945-1.018,1.803-0.883c0.81-0.195,1.617-0.176,2.667,0.037c0.176,2.243,0.223,4.519-0.032,6.788
		c-0.065,0.587-0.65,0.993-1.229,1.237c-0.946-0.28-0.73-1.1-0.762-1.757c-0.066-1.373,0.023-2.75-0.048-4.125
		c-0.012-0.22-0.109-0.361-0.08-0.142c0.001,0.004-0.102,0.022-0.151,0.053c-0.226,1.198-0.037,2.39-0.109,3.574
		c-0.052,0.866-0.194,1.647-1.306,1.696C22.413,44.106,22.165,43.98,21.96,43.767z"/>
	<path style="fill-rule:evenodd;clip-rule:evenodd;fill:#F6F6F5;" d="M40.527,43.768c0-0.991,0-1.983,0-3.082
		c0.238-0.363,0.537-0.819,0.84-1.278c-0.236-0.812-1.388-1.355-0.674-2.541c1.507,0.238,3.091,0.24,4.532,0.604
		c0.359,0.368,0.254,0.704,0.237,1.1c-0.527,0.333-1.086,0.639-1.751,0.523c-0.429-0.2-0.022-0.82-0.597-0.951
		c-0.093,0.058-0.312,0.118-0.338,0.226c-0.101,0.42-0.159,0.856,0.086,1.318c0.822,0.32,1.819,0.125,2.572,0.587
		c0.092,0.348-0.007,0.527-0.285,0.746c-0.715-0.14-1.516-0.319-2.332-0.221c-0.444,0.918-0.015,1.914-0.264,2.872
		c-0.283,0.468-0.754,0.52-1.257,0.496C40.99,44.131,40.74,43.983,40.527,43.768z"/>
	<path style="fill-rule:evenodd;clip-rule:evenodd;fill:#F6F6F5;" d="M11.559,36.756c0.488,0.024,0.978,0.049,1.588,0.08
		c0,1.596,0,3.198,0,4.762c-0.634,0.429-1.197-0.164-1.87,0.009c-0.606,1.031-0.206,2.198-0.275,3.303
		c-0.071,1.146-0.023,2.3-0.028,3.451c0.13,0.498,1.038-0.121,0.962,0.671c-0.209,0.021-0.418,0.041-0.627,0.061
		c-0.205,0.163-0.407,0.186-0.604-0.014c0-3.229,0-6.459,0-9.871c0.075-0.228,0.593-0.194,0.814-0.612
		c-1.084-0.432-2.297-0.387-3.426-0.989C9.238,37.08,10.407,36.952,11.559,36.756z"/>
	<path style="fill-rule:evenodd;clip-rule:evenodd;fill:#E4E3E2;" d="M27.933,36.813c0.593-0.799,1.347-0.188,2.07-0.341
		c0.366,2.8-0.231,5.539,0.353,8.22c0.01,0.044,0.19,0.05,0.333,0.083c0.707-0.684-0.262-1.724,0.473-2.398
		c0.438,0.279,0.334,0.743,0.389,1.169c0.547-0.473,0.434-1.292,0.965-1.753c0.066-0.122,0.212-0.178,0.242-0.095
		c0.151,0.413,0.218,3.549,0.113,4.126c-1.453-0.012-2.902-0.205-4.355-0.115c-0.219,0.103,0.164,0.208,0.034,0.029
		c0.449-0.138,0.91-0.359,1.264,0.178c-0.568,0.221-1.14,0.087-1.756,0.104c-0.299-0.786-0.168-1.521-0.131-2.25
		c0.306-0.374,0.806-0.569,1.058-1.3C28.604,40.735,30.155,38.464,27.933,36.813z"/>
	<path style="fill-rule:evenodd;clip-rule:evenodd;fill:#F7F7F7;" d="M34.191,37.797c-0.718-0.246-1.416-0.535-2.008-1.027
		l-0.103-0.124l0.103-0.124c0.443-0.129,0.887-0.107,1.33-0.001c0.591,0.249,1.211,0.066,1.815,0.126
		c0.284,0.001,0.548,0.043,0.709,0.318c0.262,2.062,0.066,4.131,0.114,6.191c0.006,0.163-0.023,0.325-0.085,0.476
		c-0.159,0.417-0.738,0.401-0.873,0.842c0.171,0.518,0.679,0.43,1.04,0.602c0.296,0.142,0.801,0.125,0.602,0.701
		c-0.854,0.283-1.705,0.234-2.691,0.026c0.183-2.259-0.27-4.495,0.256-6.712c0.173-0.037,0.301-0.15,0.434-0.256
		c0.047-0.086,0.117-0.112,0.209-0.078c0.414-0.359-0.067-0.438-0.195-0.626c-0.119-0.043-0.238-0.086-0.357-0.128
		C34.362,37.975,34.262,37.909,34.191,37.797z"/>
	<path style="fill-rule:evenodd;clip-rule:evenodd;fill:#979797;" d="M20.567,37.177c0.046-0.207,0.269-0.229,0.27-0.081
		c0.02,3.202,0.012,6.405-0.009,9.606c0,0.125-0.177,0.25-0.271,0.374c-0.472,0.108-0.857,0.435-1.323,0.541
		c-0.459,0.104-1.001,0.279-0.981-0.532l-0.01,0.013c0.411-1.601-0.004-3.244,0.236-4.823c0.292-0.555,0.933-0.603,1.311-1.036
		C20.416,39.974,19.548,38.392,20.567,37.177z"/>
	<path style="fill-rule:evenodd;clip-rule:evenodd;fill:#F0EFEE;" d="M36.785,43.394c0.721-1.746,0.205-3.597,0.44-5.451
		c0.533-0.33,1.081-0.668,1.813-1.121c0.193,2.138,0.086,4.084,0.077,6.026c-0.002,0.416-0.314,0.688-0.623,0.933
		C37.829,44.071,37.139,44.476,36.785,43.394z"/>
	<path style="fill-rule:evenodd;clip-rule:evenodd;fill:#F6F6F5;" d="M20.567,37.177c0,1.583,0,3.166,0,4.658
		c-0.649,0.486-1.245,0.163-1.839,0.417c-0.289,1.062-0.051,2.212-0.144,3.34c-0.043,0.511,0.26,1.118-0.343,1.506
		c-0.025-0.247-0.049-0.493-0.072-0.739c0-2.611,0-5.221,0-7.86C19.011,38.037,19.579,37.25,20.567,37.177z"/>
	<path style="fill-rule:evenodd;clip-rule:evenodd;fill:#FAFBFB;" d="M16.538,36.753c0.111,0.108,0.317,0.216,0.319,0.326
		c0.021,1.635,0.014,3.27,0.014,4.834c-0.643,0.332-1.071-0.12-1.557-0.104c-0.229,0.16-0.451,0.171-0.663-0.027
		c0-1.261,0-2.521,0-3.899C15.243,37.528,15.891,37.141,16.538,36.753z"/>
	<path style="fill-rule:evenodd;clip-rule:evenodd;fill:#F6F7F7;" d="M27.933,36.813c0.48,0,0.961,0,1.517,0c0,2.326,0,4.502,0,6.72
		c-0.425,0.436-1.005,0.166-1.523,0.237c0-0.986,0-1.973,0-3.139c0.245-0.403,0.583-0.958,0.916-1.505
		c-0.123-0.589-0.5-0.984-0.979-1.301C27.889,37.464,27.91,37.139,27.933,36.813z"/>
	<path style="fill-rule:evenodd;clip-rule:evenodd;fill:#E1DFDF;" d="M24.922,44.768c0.312-0.528,0.508-1.168,1.253-1.174
		c0-2.253,0-4.387,0-6.567c-0.78-0.425-1.629-0.092-2.412-0.262c0.94-0.385,1.906-0.254,3.046-0.223
		c0,2.839-0.002,5.608,0.004,8.376c0.001,0.22,0.031,0.43-0.226,0.531c-1.024,0.367-2.075,0.572-3.17,0.476
		c-0.54-0.34-0.123-0.534,0.112-0.757C23.977,44.982,24.418,44.767,24.922,44.768z"/>
	<path style="fill-rule:evenodd;clip-rule:evenodd;fill:#A09F9F;" d="M36.785,43.394c0.42,0.789,1.135,0.273,1.708,0.386
		c-0.553,0.666-1.104,1.332-1.657,1.998c-0.483-0.78-1.332-0.088-1.764-0.395c-0.621-0.347-0.538-0.809-0.558-1.235
		c0.347-0.434,0.948,0.014,1.308-0.378l0.003-0.002c0.29-2.313,0.287-4.626,0.002-6.939c-0.202-0.015-0.406-0.03-0.608-0.045
		c-0.122-0.03-0.173-0.079-0.153-0.148c0.021-0.078,0.048-0.117,0.081-0.117c0.379-0.121,0.756-0.08,1.324,0.057
		c0,1.75-0.026,3.547,0.018,5.342C36.5,42.407,36.152,43.015,36.785,43.394z"/>
	<path style="fill-rule:evenodd;clip-rule:evenodd;fill:#C4892B;" d="M35.206,56.123c0.03-0.511,0.436-0.798,0.777-1.013
		c2.01-1.262,3.191-3.327,4.858-4.916c0.213-0.204,0.308-0.45,0.284-0.743c0.476-0.089,0.828,0.208,1.405,0.464
		C40.219,52.225,38.065,54.576,35.206,56.123z"/>
	<path style="fill-rule:evenodd;clip-rule:evenodd;fill:#F2F1F1;" d="M48.758,48.031c1.523,0.422,3.141,0.449,4.618,1.068
		c-0.013,0.157-0.025,0.314-0.048,0.584c-2.166-0.548-4.409-0.589-6.508-1.51c0-1.616-0.003-3.088,0.012-4.559
		c0-0.047,0.169-0.092,0.259-0.138c0.489,1.187-0.104,2.472,0.331,3.664c-0.011,0.106,0.015,0.203,0.075,0.291
		c0.063,0.111,0.153,0.197,0.268,0.258c0.099,0.059,0.204,0.083,0.317,0.075C48.271,47.948,48.551,47.896,48.758,48.031z"/>
	<path style="fill-rule:evenodd;clip-rule:evenodd;fill:#F4B42D;" d="M22.133,49.669c0.747,0.021,1.141,0.585,1.565,1.062
		c1.074,1.205,2.119,2.437,3.175,3.659c0.09,0.065,0.12,0.132,0.093,0.2c-0.028,0.068-0.057,0.103-0.086,0.103
		c-2.005-1.286-3.587-3.042-5.248-4.683C21.699,49.703,21.931,49.709,22.133,49.669z"/>
	<path style="fill-rule:evenodd;clip-rule:evenodd;fill:#8B8B8B;" d="M45.402,42.529c0.391,0.057,0.35,0.369,0.319,0.616
		c-0.136,1.09,0.34,2.231-0.275,3.279c-0.757-0.292-1.822,0.593-2.341-0.611c0.133-0.135,0.268-0.271,0.4-0.405
		c0.479-0.455,0.13-1.146,0.467-1.642C44.432,43.333,44.99,43.017,45.402,42.529z"/>
	<path style="fill-rule:evenodd;clip-rule:evenodd;fill:#999999;" d="M41.171,43.797c0.373-0.027,0.746-0.055,1.146-0.083
		c0.254-0.727,0.094-1.437,0.144-2.129c0.022-0.303-0.096-0.676,0.358-0.784c0.001,1.648,0.003,3.297,0.005,4.945
		c-0.556,0.483-1.146,0.415-1.75,0.104C40.694,45.146,40.684,44.459,41.171,43.797z"/>
	<path style="fill-rule:evenodd;clip-rule:evenodd;fill:#DCDADA;" d="M18.252,47.085c0.373,0.571,0.846,0.257,1.31,0.167
		c0.33-0.063,0.589-0.56,0.995-0.176c-0.701,0.924-1.677,1.053-2.76,0.987c-0.527-0.769-1.044-1.52-1.561-2.271
		c0.03-0.21-0.008-0.443,0.268-0.628C17.394,45.495,17.39,46.707,18.252,47.085z"/>
	<path style="fill-rule:evenodd;clip-rule:evenodd;fill:#D7D7D7;" d="M50.494,41.774c0.204,0.006,0.409,0.013,0.613,0.02
		c0,1.795,0,3.589,0,5.203c-0.19,0.436-0.422,0.393-0.631,0.404C50.482,45.525,50.488,43.65,50.494,41.774z"/>
	<path style="fill-rule:evenodd;clip-rule:evenodd;fill:#E6E5E4;" d="M41.175,45.74c0.55,0.002,1.1,0.004,1.648,0.006
		c0.093,0.031,0.186,0.054,0.282,0.067c0.459,0.421,1.027,0.188,1.546,0.256c0.305,0.041,0.668-0.074,0.795,0.354
		c-0.844,0.665-1.79,0.281-2.691,0.231c-0.65-0.035-1.296-0.192-1.943-0.295C40.589,45.952,40.6,45.681,41.175,45.74z"/>
	<path style="fill-rule:evenodd;clip-rule:evenodd;fill:#E4E3E3;" d="M32.515,41.792c0,0.547,0,1.094,0,1.576
		c-0.247,0.567-1,0.304-1.354,0.874c0-0.622,0-1.244,0-1.866C31.538,42.009,31.96,41.749,32.515,41.792z"/>
	<path style="fill-rule:evenodd;clip-rule:evenodd;fill:#E4E3E3;" d="M29.813,45.916c-0.4-0.369-0.977,0.066-1.496-0.4
		c1.481-0.141,2.856-0.099,4.229-0.024c0.112,0.006,0.216,0.216,0.324,0.332C31.86,46.19,30.836,46.003,29.813,45.916z"/>
	<path style="fill-rule:evenodd;clip-rule:evenodd;fill:#E2E1E1;" d="M45.402,42.529c-0.063,0.315,0.029,0.662-0.185,0.948
		c-0.268,0.378-0.682,0.269-1.049,0.319c-0.22,0.173-0.435,0.178-0.641-0.024c-0.068-0.32-0.143-0.641,0.057-1.01
		C44.112,42.335,44.753,42.397,45.402,42.529z"/>
	<path style="fill-rule:evenodd;clip-rule:evenodd;fill:#D2D3D3;" d="M21.96,43.767c0.215,0.014,0.431,0.028,0.646,0.042
		c0.318,0.356,0.355,0.782,0.306,1.227c-0.015,0.193-0.033,0.387-0.021,0.582c0.116,0.359,0.578,0.227,0.739,0.519
		c-0.486,0.295-1.004,0.256-1.583,0.206C21.813,45.453,21.91,44.608,21.96,43.767z"/>
	<path style="fill-rule:evenodd;clip-rule:evenodd;fill:#E1E0E0;" d="M11.935,49.032c-0.138-0.485-0.924-0.042-0.962-0.671
		c0.698,0.106,1.38,0.101,2.068-0.13c0.421-0.142,0.939-0.414,1.254,0.222C13.572,48.906,12.761,48.999,11.935,49.032z"/>
	<path style="fill-rule:evenodd;clip-rule:evenodd;fill:#EAE9E9;" d="M23.631,46.136c-0.442-0.205-1.055,0.236-1.395-0.366
		c0.105-0.097,0.229-0.158,0.368-0.18c0.221-0.069,0.411-0.03,0.568,0.145c1.17,0.291,2.26-0.393,3.414-0.285
		c-0.057,0.311-0.294,0.354-0.549,0.373c-0.2-0.016-0.334,0.121-0.489,0.206C24.909,46.064,24.271,46.1,23.631,46.136z"/>
	<path style="fill-rule:evenodd;clip-rule:evenodd;fill:#D8D8D7;" d="M41.175,45.74c-0.325,0.087-0.371,0.338-0.363,0.621
		c-0.723-0.795-0.199-1.728-0.284-2.593c0.214,0.01,0.43,0.02,0.644,0.029C41.173,44.444,41.174,45.092,41.175,45.74z"/>
	<path style="fill-rule:evenodd;clip-rule:evenodd;fill:#EFEFEF;" d="M14.651,41.782c0.221,0.009,0.441,0.018,0.663,0.027
		c-0.497,0.564-0.28,1.257-0.36,1.9c-0.07,0.565,0.299,1.22-0.307,1.687C14.648,44.191,14.649,42.987,14.651,41.782z"/>
	<path style="fill-rule:evenodd;clip-rule:evenodd;fill:#969696;" d="M47.422,47.141c-0.536-0.554-0.212-1.241-0.275-1.865
		c-0.059-0.595-0.041-1.198-0.056-1.798c0.116-0.001,0.233-0.004,0.351-0.006C47.435,44.694,47.429,45.918,47.422,47.141z"/>
	<path style="fill-rule:evenodd;clip-rule:evenodd;fill:#D7D7D7;" d="M43.528,43.771c0.213,0.008,0.428,0.016,0.641,0.024
		c-0.024,0.477-0.051,0.954-0.072,1.357c-0.159,0.319-0.387,0.254-0.591,0.255C43.514,44.862,43.521,44.316,43.528,43.771z"/>
	<path style="fill-rule:evenodd;clip-rule:evenodd;fill:#F0EEEE;" d="M35.146,36.518c0.016,0.091,0.04,0.179,0.072,0.265
		c-0.571-0.073-1.208,0.29-1.705-0.262C34.058,36.521,34.602,36.519,35.146,36.518z"/>
	<path style="fill-rule:evenodd;clip-rule:evenodd;fill:#F9B82D;" d="M27.198,54.77c0.522-0.104,0.811,0.172,0.994,0.616
		c0,0-0.069,0.144-0.069,0.145c-0.104-0.023-0.204-0.061-0.297-0.114c-0.207-0.156-0.414-0.313-0.62-0.469
		C27.203,54.889,27.2,54.829,27.198,54.77z"/>
	<path style="fill-rule:evenodd;clip-rule:evenodd;fill:#B7B6B6;" d="M54.713,38.053c0.004-0.178,0.007-0.357,0.01-0.535
		c0.209-0.069,0.401-0.047,0.579,0.099C55.146,37.819,55.034,38.074,54.713,38.053z"/>
	<path style="fill-rule:evenodd;clip-rule:evenodd;fill:#F0EEEE;" d="M34.848,38.13c0.235,0.024,0.524-0.02,0.577,0.308
		c0.043,0.274-0.185,0.294-0.382,0.318C34.978,38.548,34.912,38.339,34.848,38.13z"/>
	<path style="fill-rule:evenodd;clip-rule:evenodd;fill:#EFEFEE;" d="M10.703,49.08c0.201,0.004,0.403,0.009,0.604,0.014
		C11.104,49.209,10.893,49.595,10.703,49.08z"/>
	<path style="fill-rule:evenodd;clip-rule:evenodd;fill:#F9B82D;" d="M27.198,54.77c0.005,0.059,0.008,0.119,0.008,0.178
		c-0.184,0.011-0.267-0.108-0.326-0.255c-0.003-0.101-0.005-0.202-0.007-0.303C27.082,54.43,27.188,54.56,27.198,54.77z"/>
	<path style="fill-rule:evenodd;clip-rule:evenodd;fill:#ECAB26;" d="M28.192,55.386c0.207,0.047,0.313,0.181,0.34,0.387
		l0.003,0.162c-0.112-0.072-0.225-0.144-0.336-0.215c-0.087-0.076-0.115-0.151-0.086-0.225c0.029-0.075,0.058-0.112,0.087-0.112
		L28.192,55.386z"/>
	<path style="fill-rule:evenodd;clip-rule:evenodd;fill:#E1DFDF;" d="M25.549,46.028c0.105-0.201,0.278-0.249,0.489-0.206
		C25.924,46.009,25.762,46.08,25.549,46.028z"/>
	<path style="fill-rule:evenodd;clip-rule:evenodd;fill:#F0EEEE;" d="M34.834,38.835c-0.078,0.199-0.227,0.278-0.434,0.256
		C34.479,38.895,34.622,38.808,34.834,38.835z"/>
	<path style="fill-rule:evenodd;clip-rule:evenodd;fill:#F0EEEE;" d="M32.184,36.523c0.001,0.083,0.001,0.165,0,0.247
		c-0.133-0.004-0.283-0.003-0.24-0.196C31.951,36.541,32.1,36.539,32.184,36.523z"/>
	<path style="fill-rule:evenodd;clip-rule:evenodd;fill:#F0EEEE;" d="M34.191,37.797c0.101,0.068,0.199,0.137,0.299,0.206
		C34.391,37.934,34.292,37.865,34.191,37.797z"/>
	<path style="fill-rule:evenodd;clip-rule:evenodd;fill:#C4882B;" d="M28.2,55.381c0,0.113-0.001,0.225-0.001,0.337
		c-0.207,0-0.322-0.112-0.373-0.303C27.95,55.405,28.075,55.393,28.2,55.381z"/>
	<path style="fill-rule:evenodd;clip-rule:evenodd;fill:#F1B126;" d="M28.535,55.934l-0.003-0.162
		c0.246,0.004,0.302,0.171,0.315,0.373C28.743,56.075,28.64,56.005,28.535,55.934z"/>
	<path style="fill-rule:evenodd;clip-rule:evenodd;fill:#E0A026;" d="M29.547,56.653c0.066-0.055,0.134-0.11,0.202-0.166
		c0.03,0.09,0.061,0.179,0.092,0.268C29.729,56.757,29.632,56.723,29.547,56.653z"/>
	<path style="fill-rule:evenodd;clip-rule:evenodd;fill:#D89E28;" d="M29.818,56.732c0.203,0.014,0.327,0.12,0.371,0.319
		C29.989,57.035,29.858,56.936,29.818,56.732z"/>
	<path style="fill-rule:evenodd;clip-rule:evenodd;fill:#C4882B;" d="M32.493,57.928c0.054-0.161,0.167-0.234,0.334-0.229
		C32.77,57.855,32.686,57.972,32.493,57.928z"/>
	<path style="fill-rule:evenodd;clip-rule:evenodd;fill:#5D5D5D;" d="M29.846,10.306c0.062-0.068,0.123-0.135,0.239-0.264
		c0.141,0.377,0.194,0.669-0.189,0.891C29.879,10.724,29.862,10.515,29.846,10.306z"/>
	<path style="fill-rule:evenodd;clip-rule:evenodd;fill:#535353;" d="M29.514,9.577c0.008,0.249,0.016,0.497,0.023,0.746
		c-0.087,0.152-0.243,0.229-0.308,0.041C29.125,10.056,29.18,9.753,29.514,9.577z"/>
	<path style="fill-rule:evenodd;clip-rule:evenodd;fill:#7B7B7B;" d="M37.156,2.643c0.064-0.222,0.191-0.341,0.493-0.253
		c0.036,0.369-0.231,0.472-0.512,0.565c-0.075-0.074-0.097-0.145-0.067-0.213C37.101,2.676,37.129,2.643,37.156,2.643z"/>
	<path style="fill-rule:evenodd;clip-rule:evenodd;fill:#535353;" d="M17.251,17.248c0.088-0.29,0.235-0.41,0.51-0.178
		c-0.142,0.186-0.333,0.178-0.524,0.161L17.251,17.248z"/>
	<path style="fill-rule:evenodd;clip-rule:evenodd;fill:#353535;" d="M37.156,2.643c0.001,0.104-0.005,0.208-0.018,0.312
		c-0.109,0.001-0.22,0.002-0.329,0.002l0.023,0.026C36.813,2.748,36.954,2.667,37.156,2.643z"/>
	<path style="fill-rule:evenodd;clip-rule:evenodd;fill:#8F8F8F;" d="M42.452,13.252c0.202-0.03,0.398-0.039,0.543,0.163
		c-0.269,0.211-0.448,0.17-0.53-0.176L42.452,13.252z"/>
	<path style="fill-rule:evenodd;clip-rule:evenodd;fill:#414141;" d="M42.124,13.21c0-0.101,0.004-0.201,0.013-0.301
		c0.254-0.023,0.354,0.096,0.315,0.343l0.013-0.013C42.351,13.229,42.238,13.22,42.124,13.21z"/>
	<path style="fill-rule:evenodd;clip-rule:evenodd;" d="M46.812,28.465c-0.313,0.075-0.626,0.149-0.894,0.213
		c-0.303,0.462,0.392,0.476,0.279,0.82c-0.893,0.006-0.893,0.006-0.626-1.579c0.601-0.21,0.893,0.215,1.211,0.587L46.812,28.465z"/>
	<path style="fill-rule:evenodd;clip-rule:evenodd;" d="M12.874,28.423c0.448,0.901,0.541,1.559-0.23,2.132
		C11.819,29.536,11.834,29.359,12.874,28.423z"/>
	<path style="fill-rule:evenodd;clip-rule:evenodd;" d="M40.199,28.197c0.02-0.086,0.024-0.241,0.061-0.249
		c0.199-0.043,0.181,0.116,0.187,0.243l-0.121,0.089L40.199,28.197z"/>
	<path style="fill-rule:evenodd;clip-rule:evenodd;fill:#030303;" d="M40.199,28.197c0.082-0.003,0.165-0.005,0.247-0.006
		c-0.013,0.094-0.01,0.262-0.042,0.269C40.181,28.512,40.183,28.354,40.199,28.197z"/>
	<path style="fill-rule:evenodd;clip-rule:evenodd;" d="M18.589,28.074c-0.033,0.59-0.327,0.742-0.754,0.718
		c-0.266-0.207-0.265-0.458-0.146-0.749C17.949,27.797,18.232,27.763,18.589,28.074z"/>
	<path style="fill-rule:evenodd;clip-rule:evenodd;fill:#CA3438;" d="M32.184,53.043c1.327-0.002,2.609,0.273,3.904,0.519
		c-0.06,0.653-0.478,0.767-0.89,0.887c-1.193,0.279-2.382,0.729-3.57,0.105c-0.476-0.486-0.488-0.966-0.108-1.469
		C31.741,53.072,31.962,53.058,32.184,53.043z"/>
	<path style="fill-rule:evenodd;clip-rule:evenodd;fill:#C63137;" d="M28.846,54.437c-0.455-0.065-0.794-0.265-0.98-0.879
		c1.173-0.095,2.21-0.521,3.337-0.459c0.207,0.466,0.229,0.922-0.059,1.383C30.366,55.018,29.606,54.686,28.846,54.437z"/>
	<path style="fill-rule:evenodd;clip-rule:evenodd;fill:#CD4148;" d="M34.57,54.855c-0.638,0.751-1.566,1.07-2.363,1.585
		c-0.258-0.055-0.548-0.029-0.718-0.295c-0.279-0.479-0.273-0.926,0.194-1.421C32.617,54.581,33.6,54.258,34.57,54.855z"/>
	<path style="fill-rule:evenodd;clip-rule:evenodd;fill:#F6E2E0;" d="M34.57,54.855c-0.917-0.106-1.832-0.12-2.654-0.006
		c-0.485,0.405-0.236,0.912-0.427,1.296c-0.108-0.042-0.217-0.083-0.325-0.125c-0.318-0.901-1.098-1.074-1.904-1.203
		c-0.137-0.126-0.275-0.253-0.414-0.38c0.688-0.042,1.373-0.085,2.041-0.127c0.408-0.349,0.183-0.826,0.315-1.212
		c0.105-0.013,0.211-0.017,0.317-0.012c0.056,0.365,0.111,0.73,0.175,1.152c1.161,0.309,2.355-0.04,3.504,0.211
		C35.083,54.729,34.791,54.736,34.57,54.855z"/>
	<path style="fill-rule:evenodd;clip-rule:evenodd;fill:#3D2F11;" d="M33.1,52.034c-0.307,0.015-0.613,0.028-0.919,0.043
		c-0.025-0.124-0.05-0.247-0.075-0.371c-0.11-0.316-0.128-0.631,0.021-0.941c0.027-0.317,0.055-0.635,0.082-0.952
		c0.367-0.446,0.61-0.132,0.863,0.138C33.334,50.642,33.48,51.335,33.1,52.034z"/>
	<path style="fill-rule:evenodd;clip-rule:evenodd;fill:#805A23;" d="M28.194,51.421c0.038-0.535,0.26-0.993,0.593-1.404
		c0.607,0.275,0.334,1.024,0.759,1.395c0.104,0.08,0.201,0.17,0.292,0.265c0.081,0.116,0.088,0.236,0.021,0.361
		c-0.55,0.545-1.105,0.567-1.665,0.015c0,0-0.025-0.158-0.026-0.158c-0.029-0.105-0.029-0.211-0.002-0.316
		C28.165,51.579,28.194,51.421,28.194,51.421z"/>
	<path style="fill-rule:evenodd;clip-rule:evenodd;fill:#4D3711;" d="M29.514,51.754c-0.071,0.157-0.177,0.267-0.496,0.239
		c-0.351-0.577-0.05-1.32-0.23-1.976c0.398-0.505,0.94-0.172,1.414-0.242c0.07,0.077,0.102,0.16,0.095,0.248
		c-0.007,0.09-0.02,0.136-0.036,0.136c-0.073,0.118-0.159,0.227-0.255,0.326C29.603,50.815,29.645,51.319,29.514,51.754z"/>
	<path style="fill-rule:evenodd;clip-rule:evenodd;fill:#CF4854;" d="M29.26,54.817c0.541,0,1.082,0,1.616,0
		c0.458,0.322,0.237,0.795,0.288,1.203c-0.181-0.008-0.277-0.115-0.33-0.274c-0.235-0.359-0.638-0.458-0.988-0.638
		C29.626,55.059,29.371,55.082,29.26,54.817z"/>
	<path style="fill-rule:evenodd;clip-rule:evenodd;fill:#412F0F;" d="M27.154,51.141c-0.383-0.215-0.652-0.516-0.753-0.971
		c0.619-0.23,0.946,0.015,1.087,0.592C27.385,50.896,27.377,51.112,27.154,51.141z"/>
	<path style="fill-rule:evenodd;clip-rule:evenodd;fill:#4C3612;" d="M28.194,52.053c-0.184,0.068-0.368,0.138-0.582,0.219
		c-0.135-0.31-0.258-0.596-0.382-0.88c0.118-0.123,0.139-0.338,0.35-0.373c0.205,0.134,0.409,0.269,0.614,0.402l-0.012-0.018
		c0.21,0.222,0.21,0.444,0,0.667L28.194,52.053z"/>
	<path style="fill-rule:evenodd;clip-rule:evenodd;fill:#BF8D2C;" d="M32.893,50.081c-0.114-0.383-0.388-0.354-0.684-0.268
		c-0.012-0.121-0.022-0.241-0.034-0.362c0.565,0.044,1.188-0.281,1.68,0.256c-0.049,0.123-0.126,0.223-0.235,0.298
		C33.388,50.126,33.153,50.241,32.893,50.081z"/>
	<path style="fill-rule:evenodd;clip-rule:evenodd;fill:#37280D;" d="M31.188,51.731h-0.162l-0.16,0.001
		c-0.106-0.081-0.205-0.168-0.298-0.265c-0.149-0.237-0.227-0.488-0.149-0.769c0.103-0.188,0.25-0.317,0.47-0.347
		c0.335,0.278,0.479,0.664,0.605,1.061C31.423,51.549,31.322,51.657,31.188,51.731z"/>
	<path style="fill-rule:evenodd;clip-rule:evenodd;fill:#C42E2E;" d="M29.846,55.107c0.267,0,0.535,0,0.717,0
		c0.322,0.191,0.253,0.429,0.271,0.638C30.383,55.722,30.048,55.515,29.846,55.107z"/>
	<path style="fill-rule:evenodd;clip-rule:evenodd;fill:#050504;" d="M30.889,50.352c-0.101,0.126-0.203,0.251-0.305,0.377
		c-0.232,0.011-0.39-0.107-0.507-0.294c-0.041-0.143-0.003-0.263,0.113-0.357c0.001-0.102,0.004-0.203,0.011-0.303
		C30.68,49.67,30.855,49.928,30.889,50.352z"/>
	<path style="fill-rule:evenodd;clip-rule:evenodd;fill:#D99B28;" d="M32.127,50.765c0.096,0.316,0.117,0.63-0.021,0.941
		C31.734,51.384,31.745,51.07,32.127,50.765z"/>
	<path style="fill-rule:evenodd;clip-rule:evenodd;fill:#0B0907;" d="M31.188,51.731c0.031-0.174,0.126-0.287,0.306-0.318
		c-0.014,0.159-0.028,0.318-0.041,0.466C31.294,51.92,31.216,51.868,31.188,51.731z"/>
	<path style="fill-rule:evenodd;clip-rule:evenodd;fill:#382913;" d="M29.859,52.038c0.012-0.09,0.02-0.18,0.023-0.27l0.082-0.14
		c0.094-0.064,0.197-0.089,0.311-0.073c0,0,0.155,0.053,0.155,0.052s0.105,0.123,0.105,0.123
		C30.447,52.134,30.146,52.07,29.859,52.038z"/>
	<path style="fill-rule:evenodd;clip-rule:evenodd;fill:#795522;" d="M26.875,52.402c-0.054,0.237-0.205,0.325-0.443,0.282
		c-0.184-0.164-0.048-0.225,0.094-0.284C26.643,52.29,26.759,52.296,26.875,52.402z"/>
	<path style="fill-rule:evenodd;clip-rule:evenodd;fill:#030403;" d="M27.58,51.019c-0.057,0.181-0.146,0.331-0.35,0.373
		c-0.039-0.08-0.064-0.163-0.076-0.25c0.055-0.177,0.138-0.328,0.334-0.379C27.536,50.841,27.567,50.927,27.58,51.019z"/>
	<path style="fill-rule:evenodd;clip-rule:evenodd;fill:#C4882B;" d="M30.81,51.42c0.052,0.099,0.07,0.203,0.057,0.313l-0.165,0.002
		l-0.165-0.004l-0.015,0.007C30.425,51.456,30.541,51.369,30.81,51.42z"/>
	<path style="fill-rule:evenodd;clip-rule:evenodd;fill:#2D2211;" d="M26.875,52.402c-0.117-0.001-0.233-0.001-0.35-0.002
		c0.036-0.128,0.059-0.292,0.243-0.241C26.822,52.173,26.841,52.317,26.875,52.402z"/>
	<path style="fill-rule:evenodd;clip-rule:evenodd;fill:#DAA12C;" d="M34.461,49.765c0.152,0.008,0.304,0.015,0.454,0.022
		c0.259,0.213,0.607,0.293,0.828,0.562c0.213,0.362,0.515,0.651,0.787,0.965c0.079,0.128,0.096,0.265,0.063,0.41
		c-0.072,0-0.145,0-0.218,0c-0.177,0.003-0.353,0.007-0.529,0.01c-0.074,0.085-0.154,0.161-0.244,0.228
		c-0.137,0.101-0.29,0.17-0.442,0.241c-0.108,0.035-0.203,0.091-0.283,0.172c-0.37,0.002-0.78,0.167-1.046-0.256
		C33.91,51.299,33.475,50.342,34.461,49.765z"/>
	<path style="fill-rule:evenodd;clip-rule:evenodd;fill:#DDA32C;" d="M32.893,50.081c0.238-0.102,0.478-0.203,0.717-0.304
		c0.6,0.781,0.673,1.545-0.076,2.28c-0.145-0.008-0.289-0.015-0.434-0.023C32.734,51.414,32.817,50.747,32.893,50.081z"/>
	<path style="fill-rule:evenodd;clip-rule:evenodd;fill:#2A1F05;" d="M33.533,52.058c0.355-0.749,0.307-1.512,0.076-2.28
		c0.094,0.021,0.176-0.002,0.245-0.07c0.202,0.02,0.405,0.039,0.606,0.058c-0.396,0.706-0.228,1.457-0.172,2.216
		c-0.153,0.046-0.306,0.092-0.458,0.138C33.737,52.071,33.638,52.05,33.533,52.058z"/>
	<path style="fill-rule:evenodd;clip-rule:evenodd;fill:#493816;" d="M35.504,50.406c-0.243-0.161-0.497-0.313-0.589-0.619
		c0.479,0.038,1.169-0.312,1.156,0.629l-0.074,0.117c0,0-0.14-0.002-0.139-0.001c-0.056-0.073-0.13-0.119-0.222-0.135
		C35.637,50.399,35.504,50.406,35.504,50.406z"/>
	<path style="fill-rule:evenodd;clip-rule:evenodd;fill:#392C10;" d="M35.787,50.396c0.095,0.011,0.189,0.019,0.284,0.021
		c0.234,0.33,0.693,0.505,0.691,0.999c-0.12,0.152-0.247,0.15-0.38,0.016c-0.443-0.212-0.641-0.637-0.879-1.025l0.08-0.041
		C35.652,50.375,35.721,50.385,35.787,50.396z"/>
	<path style="fill-rule:evenodd;clip-rule:evenodd;fill:#443412;" d="M37.104,52.483c-0.471-0.034-0.567-0.426-0.729-0.758
		c0.064-0.017,0.125-0.009,0.182,0.024c0.118-0.144,0.251-0.157,0.396-0.041c0.262,0.17,0.489,0.369,0.563,0.692
		C37.401,52.529,37.262,52.552,37.104,52.483z"/>
	<path style="fill-rule:evenodd;clip-rule:evenodd;fill:#634B1D;" d="M37.657,50.171c-0.164,0.318-0.457,0.331-0.74,0.449
		C36.781,49.773,37.287,50.13,37.657,50.171z"/>
	<path style="fill-rule:evenodd;clip-rule:evenodd;fill:#816126;" d="M35.474,51.779c0.125-0.015,0.249-0.03,0.373-0.045
		c-0.014,0.162-0.027,0.323-0.04,0.481c-0.276,0.27-0.615,0.139-0.93,0.16c-0.005-0.2,0.128-0.27,0.294-0.307
		C35.27,51.969,35.37,51.873,35.474,51.779z"/>
	<path style="fill-rule:evenodd;clip-rule:evenodd;fill:#96702A;" d="M37.104,52.483c0.139-0.027,0.276-0.055,0.413-0.083
		c0.064,0.062,0.13,0.123,0.199,0.19C37.459,52.813,37.276,52.681,37.104,52.483z"/>
	<path style="fill-rule:evenodd;clip-rule:evenodd;fill:#010101;" d="M36.954,51.708c-0.132,0.013-0.265,0.027-0.396,0.041
		c-0.058-0.106-0.116-0.211-0.175-0.317c0.127-0.005,0.253-0.01,0.38-0.016C36.827,51.513,36.891,51.611,36.954,51.708z"/>
	<path style="fill-rule:evenodd;clip-rule:evenodd;fill:#969696;" d="M48.758,48.031c-0.28,0.049-0.53,0.024-0.676-0.267
		C48.345,47.76,48.62,47.722,48.758,48.031z"/>
	<path style="fill-rule:evenodd;clip-rule:evenodd;fill:#969696;" d="M47.765,47.69c-0.183,0.01-0.267-0.081-0.268-0.258
		C47.585,47.518,47.675,47.604,47.765,47.69z"/>
	<path style="fill-rule:evenodd;clip-rule:evenodd;fill:#0B0C0C;" d="M24.922,44.768c-0.109,0.532-0.443,0.707-0.954,0.6
		c-0.217-0.182-0.454-0.413-0.409-0.685c0.382-2.286-0.065-4.607,0.308-6.892c0.212-0.356,0.522-0.333,1.056-0.155
		C24.922,39.97,24.922,42.369,24.922,44.768z"/>
	<path style="fill-rule:evenodd;clip-rule:evenodd;fill:#989797;" d="M23.866,37.792c0.033,2.525,0.067,5.051,0.102,7.576
		c-0.271,0.108-0.61,0.07-0.795,0.367c-0.181-0.002-0.361-0.005-0.543-0.008c-0.117-0.031-0.17-0.084-0.159-0.158
		c0.014-0.084,0.035-0.126,0.066-0.126c0.023-0.544,0.046-1.089,0.069-1.634c0.27-0.026,0.538-0.053,0.863-0.085
		c0.207-1.485,0.027-2.957,0.112-4.417C23.611,38.798,23.303,38.206,23.866,37.792z"/>
	<path style="fill-rule:evenodd;clip-rule:evenodd;fill:#F0EEEE;" d="M35.827,36.828c0.096,0.12,0.271,0.24,0.273,0.361
		c0.016,2.071,0.015,4.143-0.003,6.214c-0.001,0.122-0.178,0.243-0.272,0.364C35.826,41.454,35.827,39.141,35.827,36.828z"/>
	<path style="fill-rule:evenodd;clip-rule:evenodd;fill:#F0EEEE;" d="M35.822,43.77c-0.316,0.54-0.89,0.189-1.308,0.378
		C34.796,43.482,35.383,43.882,35.822,43.77z"/>
	<path style="fill-rule:evenodd;clip-rule:evenodd;fill:#E1DFDF;" d="M22.537,45.442c0.023,0.097,0.054,0.192,0.093,0.284
		c-0.131,0.014-0.262,0.029-0.394,0.043C22.258,45.589,22.354,45.476,22.537,45.442z"/>
	<path style="fill-rule:evenodd;clip-rule:evenodd;fill:#BA812A;" d="M29.514,51.754c-0.387-0.664-0.51-1.273,0.347-1.68
		c0.316,0.557,0.455,1.115,0.012,1.677l0.011,0.016C29.759,51.763,29.636,51.759,29.514,51.754z"/>
	<path style="fill-rule:evenodd;clip-rule:evenodd;fill:#C4882B;" d="M28.183,52.07c0-0.223,0-0.444,0-0.667
		C28.681,51.625,28.646,51.847,28.183,52.07z"/>
	<path style="fill-rule:evenodd;clip-rule:evenodd;fill:#966A27;" d="M29.872,51.752c-0.004-0.56-0.008-1.119-0.012-1.677
		c0.11-0.003,0.22-0.002,0.33,0.004c0.024,0.085,0.029,0.173,0.015,0.261c0.209,0.451,0.272,0.902,0.001,1.354
		C30.095,51.713,29.983,51.732,29.872,51.752z"/>
	<path style="fill-rule:evenodd;clip-rule:evenodd;fill:#B47F2B;" d="M30.206,51.693c0-0.451-0.001-0.902-0.001-1.354
		c0.127,0.13,0.252,0.26,0.379,0.39c0.075,0.229,0.15,0.46,0.226,0.69c-0.177,0.032-0.262,0.148-0.288,0.317
		C30.415,51.737,30.31,51.723,30.206,51.693z"/>
	<path style="fill-rule:evenodd;clip-rule:evenodd;fill:#5B441A;" d="M35.474,51.779c-0.021,0.181-0.138,0.261-0.303,0.289
		C35.165,51.859,35.281,51.78,35.474,51.779z"/>
	<path style="fill-rule:evenodd;clip-rule:evenodd;" d="M35.787,50.396c-0.07,0.01-0.138,0-0.203-0.03
		c0.034-0.063,0.068-0.126,0.103-0.189C35.721,50.25,35.754,50.322,35.787,50.396z"/>
</g>
</svg>
