<?xml version="1.0" encoding="utf-8"?>
<!-- Generator: Adobe Illustrator 22.0.0, SVG Export Plug-In . SVG Version: 6.00 Build 0)  -->
<svg version="1.1" id="Camada_1" xmlns="http://www.w3.org/2000/svg" xmlns:xlink="http://www.w3.org/1999/xlink" x="0px" y="0px"
	 width="64px" height="64px" viewBox="0 0 64 64" style="enable-background:new 0 0 64 64;" xml:space="preserve">
<g>
	<g>
		<path style="fill:#DDDDDD;" d="M18.667,0.059c0.004,0.052,0.021,0.091,0.075,0.115c0.3,0.134,0.472,0.378,0.575,0.679
			c0.546,1.593,1.216,3.128,2.138,4.543c0.415,0.636,0.834,1.27,1.263,1.897C23.056,7.784,23.033,8.691,22.474,9
			c-0.223,0.123-0.461,0.201-0.724,0.162c-0.067-0.01-0.152-0.033-0.194,0.031c-0.042,0.065,0.022,0.129,0.054,0.188
			c0.033,0.061,0.092,0.113,0.106,0.177c0.129,0.606,0.542,0.825,1.116,0.95c1.069,0.234,1.886,0.88,2.49,1.78
			c0.164,0.245,0.37,0.332,0.629,0.369c0.693,0.099,1.346,0.335,2.014,0.531c0.899,0.264,1.714,0.678,2.518,1.133
			c0.099,0.056,0.179,0.043,0.277-0.003c0.467-0.219,0.757-0.749,0.685-1.264c-0.141-1.022-0.674-1.67-1.7-1.958
			c-0.982-0.276-1.909-0.716-2.659-1.431C26.45,9.061,25.9,8.377,25.497,7.589c-0.251-0.492-0.52-0.977-0.729-1.487
			c-0.17-0.416-0.296-0.858-0.381-1.3c-0.088-0.457,0.205-1.02,0.56-1.19c0.562-0.27,1.115-0.177,1.543,0.277
			c0.395,0.419,0.797,0.822,1.277,1.136c0.628,0.41,1.29,0.744,2.002,1.001c0.69,0.249,1.392,0.425,2.11,0.544
			c0.495,0.082,0.993,0.146,1.48,0.268c1.146,0.288,2.194,0.775,3.109,1.537c0.611,0.509,1.163,1.073,1.626,1.717
			c0.622,0.865,1.045,1.822,1.329,2.854c0.239,0.869,0.351,1.747,0.28,2.635c-0.104,1.307-0.469,2.529-1.326,3.573
			c-0.433,0.527-0.943,0.953-1.494,1.337c-0.159,0.111-0.157,0.207-0.069,0.341c0.582,0.886,1.045,1.832,1.464,2.804
			c0.52,1.204,0.134,2.54-0.877,3.342c-0.432,0.343-0.894,0.615-1.389,0.838c-0.122,0.055-0.164,0.124-0.163,0.246
			c0.002,0.307-0.014,0.615,0.004,0.921c0.023,0.395,0.237,0.713,0.504,0.979c0.561,0.558,1.107,1.131,1.699,1.659
			c0.568,0.507,1.089,1.075,1.418,1.771c0.448,0.947,0.279,2.036-0.712,2.752c-0.463,0.335-0.945,0.645-1.429,0.949
			c-0.139,0.087-0.169,0.145-0.095,0.295c0.795,1.601,1.664,3.16,2.641,4.658c0.237,0.364,0.483,0.723,0.71,1.093
			c0.096,0.156,0.212,0.208,0.389,0.208c0.285,0.001,0.568-0.02,0.856,0.045c0.433,0.098,0.692,0.351,0.817,0.764
			c0.254,0.841,0.507,1.681,0.762,2.521c0.02,0.065,0.049,0.128,0.104,0.268c0.173-0.546,0.328-1.028,0.479-1.512
			c0.144-0.461,0.273-0.927,0.429-1.384c0.15-0.438,0.562-0.7,1.096-0.705c0.862-0.008,1.724-0.016,2.585,0.005
			c0.341,0.008,0.691,0.06,0.932,0.363c0.056,0.07,0.134,0.147,0.216,0.035c0.268-0.364,0.672-0.39,1.062-0.399
			c0.772-0.019,1.545-0.008,2.318-0.005c0.728,0.003,1.168,0.439,1.17,1.164c0.004,1.119,0.001,2.239,0.001,3.358
			c0,4.923-0.001,9.847,0.001,14.77c0,0.521-0.135,0.956-0.664,1.176c-0.026,0.011-0.034,0.065-0.05,0.099c-0.079,0-0.159,0-0.238,0
			c-0.021-0.147-0.135-0.118-0.229-0.118c-0.799-0.001-1.597-0.001-2.396,0c-0.094,0-0.208-0.028-0.229,0.118
			c-0.099,0-0.198,0-0.297,0c-0.308-0.382-0.58-0.382-0.892,0c-0.079,0-0.159,0-0.238,0c-0.021-0.147-0.135-0.118-0.229-0.118
			c-0.878-0.001-1.756-0.001-2.634,0c-0.094,0-0.208-0.028-0.229,0.118c-0.079,0-0.159,0-0.238,0
			c-0.004-0.052-0.021-0.093-0.076-0.114c-0.363-0.138-0.543-0.411-0.654-0.78c-0.322-1.077-0.673-2.144-1.028-3.267
			c-0.332,1.041-0.669,2.029-0.959,3.031c-0.133,0.458-0.288,0.859-0.765,1.05c-0.017,0.007-0.018,0.053-0.026,0.081
			c-0.079,0-0.159,0-0.238,0c-0.021-0.147-0.135-0.118-0.229-0.118c-0.858-0.001-1.716-0.001-2.574,0
			c-0.094,0-0.208-0.028-0.229,0.118c-0.099,0-0.198,0-0.297,0c-0.016-0.034-0.023-0.087-0.049-0.1
			c-0.633-0.304-0.769-0.885-0.496-1.606c0.521-1.375,1.024-2.757,1.534-4.137c0.534-1.444,1.065-2.89,1.603-4.332
			c0.08-0.215,0.087-0.41,0.007-0.629c-0.477-1.307-0.946-2.618-1.411-3.93c-0.068-0.192-0.188-0.279-0.384-0.315
			c-0.926-0.171-1.764-0.552-2.545-1.071c-0.1-0.066-0.173-0.257-0.301-0.179c-0.1,0.061-0.036,0.24-0.036,0.365
			c-0.002,3.733-0.004,7.466,0,11.2c0.001,0.515-0.046,1.017-0.163,1.523c-0.353,1.532-1.598,2.756-3.133,3.031
			c-0.125,0.022-0.286-0.001-0.333,0.177c-0.178,0-0.357,0-0.535,0c-0.021-0.147-0.136-0.118-0.23-0.118
			c-1.888-0.001-3.776-0.001-5.664,0c-0.094,0-0.209-0.029-0.229,0.118c-0.099,0-0.198,0-0.297,0
			c-0.014-0.035-0.019-0.09-0.045-0.102c-0.507-0.252-0.615-0.689-0.614-1.211c0.008-3.516,0.004-7.033,0.004-10.549
			c0-0.069-0.004-0.139,0.001-0.208c0.015-0.207-0.052-0.29-0.252-0.17c-0.228,0.138-0.465,0.264-0.678,0.423
			c-0.777,0.582-1.492,1.233-2.107,1.986c-0.268,0.327-0.579,0.653-0.69,1.059c-0.15,0.547-0.266,1.109-0.32,1.679
			c-0.052,0.55-0.293,0.828-0.861,0.984c-0.468,0.128-0.86-0.022-1.151-0.4c-0.192-0.249-0.37-0.512-0.521-0.788
			c-0.461-0.841-0.664-1.768-0.846-2.698c-0.029-0.149-0.066-0.169-0.21-0.137c-0.5,0.112-0.992,0.254-1.488,0.381
			c-1.173,0.3-2.36,0.554-3.492,0.992c-0.634,0.245-1.244,0.543-1.793,0.957c-0.398,0.301-0.713,0.684-1.074,1.021
			c-0.446,0.415-0.961,0.532-1.53,0.321C7.355,57.271,7.043,56.93,7.005,56.4c-0.071-0.988-0.445-1.869-0.912-2.725
			c-0.354-0.65-0.76-1.267-1.136-1.903c-0.343-0.579-0.721-1.136-1.2-1.607c-0.811-0.796-1.793-1.308-2.87-1.653
			c-0.376-0.12-0.66-0.356-0.763-0.758C0.104,47.681,0.09,47.621,0,47.62c0-0.119,0-0.238,0-0.357
			c0.033-0.017,0.094-0.032,0.096-0.052c0.039-0.462,0.378-0.708,0.707-0.935c1.365-0.941,2.7-1.916,3.957-3.003
			c0.869-0.751,1.536-1.616,1.89-2.7c0.192-0.586,0.322-1.196,0.079-1.815c-0.113-0.287-0.12-0.6,0.021-0.866
			c0.268-0.506,0.278-1.039,0.27-1.586c-0.005-0.386-0.146-0.738-0.372-1.009C6.3,34.878,6.196,34.419,6.18,33.902
			c-0.027-0.852,0.052-1.7,0.077-2.549c0.011-0.364,0.108-0.733,0.329-1.058c0.161-0.238,0.388-0.392,0.593-0.574
			c0.09-0.08,0.121-0.136,0.101-0.269c-0.083-0.564-0.169-1.131-0.195-1.699c-0.041-0.917-0.021-1.836,0.16-2.742
			c0.042-0.212,0.143-0.439,0.1-0.634c-0.052-0.236-0.354-0.251-0.546-0.361c-1.065-0.607-1.992-1.364-2.753-2.336
			c-1.099-1.404-1.56-2.979-1.303-4.738c0.267-1.826,1.28-3.216,2.662-4.379c0.604-0.508,1.104-1.105,1.329-1.889
			c0.125-0.435,0.111-0.879,0.101-1.323C6.819,8.585,7.557,8.009,8.299,8.238c0.498,0.154,0.693,0.527,0.847,0.947
			c0.165,0.451,0.312,0.907,0.417,1.379c0.21,0.946,0.422,1.891,0.242,2.865c-0.119,0.649-0.234,1.306-0.707,1.82
			c-0.084,0.091-0.08,0.202-0.038,0.307c0.121,0.308,0.318,0.565,0.561,0.788c0.54,0.494,1.213,0.566,1.899,0.601
			c0.18,0.009,0.318-0.059,0.457-0.172c0.696-0.568,1.409-1.111,2.202-1.542c0.406-0.22,0.808-0.45,0.826-0.998
			c0.003-0.085,0.061-0.167,0.084-0.252c0.349-1.281,1.157-2.201,2.281-2.86c0.178-0.104,0.265-0.231,0.282-0.414
			c0.016-0.177,0.005-0.356,0.008-0.535c0.002-0.121-0.022-0.169-0.171-0.146c-0.333,0.051-0.665,0.012-0.999-0.055
			c-0.767-0.155-1.086-1.111-0.62-1.771c0.233-0.33,0.405-0.681,0.525-1.054c0.308-0.955,0.37-1.95,0.429-2.943
			c0.04-0.673-0.052-1.342-0.071-2.014c-0.007-0.252-0.04-0.51-0.057-0.765C16.65,0.758,16.943,0.356,17.433,0.2
			c0.083-0.026,0.217,0.013,0.223-0.141C17.994,0.059,18.33,0.059,18.667,0.059z M38.288,46.369l0.003,0.001
			c-0.047-0.446-0.249-0.844-0.403-1.254c-0.204-0.543-0.239-1.047,0.135-1.527c0.294-0.133,0.589-0.259,0.921-0.252
			c0.132,0.022,0.264,0.03,0.423-0.006c-0.073-0.111-0.126-0.193-0.18-0.274c-1.244-1.9-2.367-3.867-3.319-5.931
			c-0.11-0.239-0.108-0.364,0.137-0.514c0.683-0.42,1.348-0.869,2.015-1.315c0.591-0.396,0.715-0.921,0.375-1.543
			c-0.196-0.36-0.463-0.667-0.753-0.953c-0.656-0.647-1.324-1.281-1.977-1.931c-1.022-1.017-1.213-2.22-0.777-3.56
			c0.06-0.183,0.158-0.298,0.34-0.374c0.511-0.215,1.02-0.437,1.449-0.802c0.723-0.616,0.889-1.306,0.514-2.174
			c-0.531-1.231-1.186-2.394-1.939-3.503c-0.239-0.351-0.24-0.354,0.144-0.502c1.8-0.692,2.834-2.015,3.126-3.898
			c0.576-3.716-2.052-7.448-5.756-8.208c-0.756-0.155-1.529-0.219-2.277-0.421c-1.851-0.5-3.533-1.289-4.817-2.772
			c-0.037-0.042-0.078-0.095-0.161-0.035c0.015,0.087,0.024,0.184,0.049,0.278c0.2,0.773,0.549,1.483,0.931,2.178
			c0.786,1.432,1.899,2.472,3.503,2.927c0.171,0.048,0.337,0.116,0.504,0.179c0.559,0.209,1.038,0.522,1.399,1.012
			c1.273,1.731,0.729,3.711-1.205,4.371c-0.127,0.043-0.232,0.056-0.36-0.025c-1.645-1.052-3.434-1.705-5.38-1.909
			c-0.107-0.011-0.176-0.041-0.226-0.15c-0.615-1.324-1.706-1.954-3.112-2.11c-0.168-0.019-0.261-0.078-0.343-0.223
			c-0.477-0.847-0.896-1.721-1.224-2.637c-0.108-0.303-0.223-0.605-0.28-0.939c0.983,0.374,1.611,0.504,2.064,0.424
			c-0.155-0.237-0.298-0.473-0.456-0.697c-1.305-1.846-2.389-3.806-3.069-5.973c-0.072-0.231-0.206-0.14-0.343-0.129
			c-0.188,0.015-0.177,0.126-0.162,0.27c0.168,1.642,0.21,3.282-0.084,4.915c-0.139,0.772-0.331,1.529-0.744,2.211
			c-0.058,0.095-0.223,0.189-0.138,0.289c0.064,0.074,0.24,0.067,0.367,0.069c0.134,0.002,0.238-0.09,0.338-0.172
			c0.246-0.202,0.452-0.443,0.665-0.678c0.141-0.156,0.254-0.343,0.451-0.479c0.086,0.749,0.143,1.469,0.161,2.191
			c0.014,0.546-0.031,1.091-0.228,1.609c-0.079,0.209-0.164,0.413-0.398,0.528c-1.392,0.687-2.107,1.841-2.257,3.361
			c-0.02,0.203-0.102,0.29-0.264,0.371c-1.191,0.599-2.297,1.326-3.298,2.21c-0.082,0.073-0.161,0.131-0.282,0.141
			c-0.466,0.037-0.93,0.04-1.394-0.026c-1.161-0.163-2.024-0.765-2.58-1.792c-0.314-0.58-0.318-1.153,0.129-1.688
			c0.261-0.313,0.389-0.688,0.442-1.087c0.177-1.335-0.124-2.597-0.59-3.834C8.073,9.54,8.076,9.447,7.969,9.426
			c0.09,1.693-0.611,3.01-1.898,4.054c-0.37,0.3-0.712,0.632-1.008,1.006c-1.343,1.699-1.755,3.555-0.74,5.539
			c0.871,1.701,2.28,2.843,4.098,3.45c0.237,0.079,0.274,0.151,0.207,0.383c-0.568,1.977-0.505,3.976-0.143,5.974
			c0.058,0.318,0.013,0.449-0.283,0.588c-0.413,0.194-0.798,0.453-0.826,0.995c-0.045,0.871-0.077,1.742-0.081,2.614
			c-0.001,0.153,0.027,0.293,0.122,0.418c0.894,1.17,0.935,2.437,0.417,3.762c-0.052,0.132-0.046,0.237-0.014,0.367
			c0.069,0.274,0.206,0.525,0.179,0.831c-0.162,1.873-0.973,3.393-2.385,4.628c-1.323,1.157-2.747,2.178-4.18,3.188
			c-0.082,0.058-0.196,0.09-0.237,0.227c0.127,0.042,0.247,0.081,0.368,0.121c1.476,0.497,2.735,1.321,3.651,2.586
			c0.918,1.268,1.735,2.605,2.378,4.037c0.256,0.571,0.45,1.163,0.455,1.802c0.002,0.179,0.009,0.373,0.22,0.444
			c0.2,0.067,0.313-0.087,0.42-0.212c0.938-1.092,2.128-1.803,3.477-2.243c1.742-0.568,3.533-0.96,5.309-1.409
			c0.218-0.055,0.283-0.137,0.279-0.355c-0.012-0.792-0.006-1.585-0.003-2.378c0-0.09-0.048-0.218,0.095-0.246
			c0.428-0.085,0.859-0.161,1.324-0.247c-0.49,1.239-0.754,2.467-0.695,3.757c0.063,1.38,0.632,3.056,1.222,3.534
			c0.034-0.216,0.054-0.432,0.104-0.641c0.136-0.576,0.151-1.201,0.485-1.703c1.106-1.661,2.508-3.007,4.321-3.885
			c0.177-0.086,0.244-0.171,0.243-0.373c-0.009-1.823-0.007-3.646-0.005-5.469c0.001-0.798,0.414-1.216,1.205-1.217
			c1.833-0.003,3.666-0.021,5.498,0.007c1.087,0.017,2.116,0.271,2.993,0.979c0.397,0.32,0.689,0.723,1.011,1.182
			c0.013-0.202,0.023-0.343,0.032-0.485c0.648,1.389,1.735,2.203,3.23,2.641c-0.123-0.319-0.221-0.575-0.319-0.831
			c-0.023-0.123-0.062-0.239-0.145-0.335C38.361,46.451,38.371,46.39,38.288,46.369z M25.854,53.601
			c0,3.001,0.002,6.003-0.004,9.004c0,0.209,0.032,0.289,0.269,0.287c1.833-0.011,3.665,0.001,5.498-0.008
			c2.053-0.01,3.452-1.332,3.46-3.316c0.017-3.952,0.01-7.905,0.001-11.857c-0.002-0.858-0.25-1.643-0.848-2.286
			c-0.732-0.788-1.674-1.056-2.712-1.059c-1.783-0.005-3.566,0.005-5.349-0.008c-0.268-0.002-0.322,0.071-0.321,0.328
			C25.857,47.657,25.854,50.629,25.854,53.601z M43.541,50.284c-0.019,0.003-0.039,0.005-0.058,0.008
			c-0.029-0.091-0.06-0.182-0.088-0.274c-0.548-1.788-1.101-3.575-1.638-5.367c-0.065-0.217-0.145-0.297-0.379-0.293
			c-0.792,0.017-1.585,0.019-2.377,0c-0.293-0.007-0.289,0.074-0.204,0.31c1.015,2.801,2.018,5.606,3.032,8.407
			c0.082,0.227,0.088,0.421,0.003,0.652c-1.095,2.951-2.177,5.906-3.273,8.856c-0.098,0.265-0.045,0.313,0.219,0.308
			c0.782-0.014,1.565-0.015,2.348,0.001c0.235,0.005,0.341-0.055,0.414-0.293c0.608-1.977,1.233-3.949,1.853-5.922
			c0.024-0.077,0.032-0.163,0.113-0.235c0.089,0.283,0.172,0.546,0.254,0.811c0.557,1.786,1.113,3.572,1.674,5.356
			c0.037,0.117,0.021,0.283,0.235,0.281c0.938-0.008,1.876-0.003,2.84-0.003c-0.032-0.103-0.052-0.177-0.079-0.25
			c-1.091-3.015-2.181-6.031-3.277-9.044c-0.065-0.178-0.068-0.329-0.002-0.509c1.032-2.805,2.055-5.613,3.087-8.418
			c0.081-0.221,0.088-0.313-0.198-0.307c-0.812,0.017-1.625,0.011-2.437,0.002c-0.179-0.002-0.259,0.05-0.309,0.225
			c-0.187,0.646-0.392,1.288-0.59,1.931C44.315,47.772,43.928,49.028,43.541,50.284z M50.015,53.623c0,2.99,0.003,5.981-0.005,8.971
			c-0.001,0.231,0.053,0.303,0.293,0.298c0.732-0.017,1.466-0.016,2.198,0c0.232,0.005,0.298-0.054,0.296-0.292
			c-0.012-1.485-0.006-2.971-0.006-4.456c0-4.496-0.002-8.991,0.005-13.487c0-0.227-0.047-0.305-0.29-0.299
			c-0.722,0.017-1.446,0.018-2.168,0c-0.259-0.007-0.33,0.057-0.329,0.324C50.019,47.662,50.015,50.643,50.015,53.623z
			 M48.983,45.666c-0.054,0.073-0.077,0.093-0.086,0.118c-0.446,1.214-0.891,2.428-1.335,3.642
			c-0.444,1.215-0.883,2.431-1.333,3.643c-0.066,0.177-0.07,0.332-0.005,0.51c0.791,2.181,1.57,4.366,2.367,6.545
			c0.114,0.312,0.183,0.649,0.392,0.983C48.983,55.94,48.983,50.831,48.983,45.666z"/>
		<path style="fill:#DEDEDE;" d="M59.926,63.909c-0.079-0.186-0.294-0.189-0.427-0.319c-0.294-0.287-0.34-0.64-0.341-1.004
			c-0.006-2.96-0.004-5.921-0.004-8.881c0-3,0.002-6-0.003-9c0-0.253,0.053-0.491,0.133-0.723c0.175-0.509,0.621-0.616,1.069-0.633
			c0.821-0.03,1.644-0.026,2.465-0.001c0.423,0.013,0.821,0.142,1.03,0.575c0.024,0.051,0.068,0.068,0.12,0.071
			c0,6.421,0,12.841,0,19.262c-0.238,0.218-0.476,0.436-0.713,0.654C62.145,63.909,61.036,63.909,59.926,63.909z M62.96,53.655
			c0-3-0.003-6.001,0.005-9.001c0.001-0.234-0.058-0.3-0.294-0.295c-0.723,0.016-1.446,0.019-2.168-0.001
			c-0.267-0.008-0.326,0.068-0.325,0.328c0.01,2.743,0.006,5.486,0.006,8.229c0,3.228,0.003,6.457-0.006,9.685
			c-0.001,0.238,0.063,0.298,0.296,0.293c0.723-0.015,1.446-0.019,2.168,0.002c0.266,0.008,0.324-0.066,0.323-0.326
			C62.956,59.596,62.96,56.625,62.96,53.655z"/>
		<path style="fill:#DBDBDB;" d="M54.754,63.909c-0.015-0.034-0.021-0.088-0.047-0.1c-0.508-0.241-0.659-0.691-0.66-1.197
			c-0.006-5.991-0.005-11.982,0.001-17.974c0-0.354,0.076-0.7,0.347-0.976c0.234-0.239,0.529-0.309,0.832-0.315
			c0.812-0.017,1.625-0.028,2.436,0.001c0.745,0.027,1.198,0.349,1.197,1.215c-0.008,6.011-0.007,12.022,0,18.033
			c0.001,0.523-0.109,0.958-0.615,1.211c-0.025,0.013-0.03,0.067-0.044,0.103c-0.099,0-0.198,0-0.297,0
			c-0.02-0.147-0.135-0.118-0.229-0.118c-0.799-0.001-1.598-0.001-2.397,0c-0.094,0-0.208-0.028-0.229,0.118
			C54.952,63.909,54.853,63.909,54.754,63.909z M55.087,53.625c0,2.992,0.003,5.983-0.006,8.975
			c-0.001,0.238,0.065,0.295,0.296,0.291c0.743-0.015,1.486-0.011,2.229-0.002c0.186,0.002,0.253-0.038,0.253-0.243
			c-0.006-6.013-0.006-12.026,0-18.04c0-0.202-0.061-0.248-0.251-0.246c-0.733,0.01-1.466,0.016-2.199-0.002
			c-0.256-0.006-0.33,0.051-0.329,0.321C55.092,47.661,55.087,50.643,55.087,53.625z"/>
		<path style="fill:#DEDEDE;" d="M25.801,63.909c0.021-0.147,0.136-0.118,0.229-0.118c1.888-0.001,3.776-0.001,5.664,0
			c0.094,0,0.209-0.029,0.23,0.118C29.884,63.909,27.843,63.909,25.801,63.909z"/>
		<path style="fill:#DEDEDE;" d="M45.479,63.909c0.021-0.147,0.135-0.118,0.229-0.118c0.878-0.001,1.756-0.001,2.634,0
			c0.094,0,0.208-0.028,0.229,0.118C47.54,63.909,46.51,63.909,45.479,63.909z"/>
		<path style="fill:#DEDEDE;" d="M38.464,63.909c0.021-0.147,0.135-0.118,0.229-0.118c0.858-0.001,1.716-0.001,2.574,0
			c0.094,0,0.208-0.028,0.229,0.118C40.486,63.909,39.475,63.909,38.464,63.909z"/>
		<path style="fill:#DEDEDE;" d="M49.998,63.909c0.021-0.147,0.135-0.118,0.229-0.118c0.799-0.001,1.597-0.001,2.396,0
			c0.094,0,0.208-0.028,0.229,0.118C51.9,63.909,50.949,63.909,49.998,63.909z"/>
		<path style="fill:#DEDEDE;" d="M55.051,63.909c0.02-0.147,0.135-0.118,0.229-0.118c0.799-0.001,1.598-0.001,2.397,0
			c0.094,0,0.208-0.028,0.229,0.118C56.953,63.909,56.002,63.909,55.051,63.909z"/>
		<path style="fill:#FEFEFE;" d="M63.255,63.909c0.238-0.218,0.476-0.436,0.713-0.654c0,0.218,0.085,0.521-0.024,0.63
			c-0.109,0.109-0.412,0.024-0.63,0.024C63.295,63.909,63.275,63.909,63.255,63.909z"/>
		<path style="fill:#FEFEFE;" d="M48.809,63.909c0.312-0.382,0.584-0.382,0.892,0C49.403,63.909,49.106,63.909,48.809,63.909z"/>
		<path style="fill:#242021;" d="M38.496,46.848c0.098,0.256,0.197,0.512,0.319,0.831c-1.495-0.438-2.582-1.252-3.23-2.641
			c-0.009,0.142-0.019,0.284-0.032,0.485c-0.322-0.459-0.614-0.862-1.011-1.182c-0.877-0.708-1.905-0.963-2.993-0.979
			c-1.832-0.028-3.666-0.01-5.498-0.007c-0.792,0.001-1.204,0.419-1.205,1.217c-0.003,1.823-0.005,3.646,0.005,5.469
			c0.001,0.202-0.066,0.287-0.243,0.373c-1.814,0.877-3.215,2.224-4.321,3.885c-0.335,0.503-0.349,1.128-0.485,1.703
			c-0.049,0.209-0.07,0.424-0.104,0.641c-0.59-0.478-1.159-2.154-1.222-3.534c-0.059-1.289,0.205-2.518,0.695-3.757
			c-0.465,0.086-0.895,0.162-1.324,0.247c-0.143,0.028-0.095,0.156-0.095,0.246c-0.003,0.793-0.009,1.585,0.003,2.378
			c0.003,0.218-0.061,0.3-0.279,0.355c-1.775,0.448-3.566,0.841-5.309,1.409c-1.35,0.44-2.54,1.151-3.477,2.243
			c-0.107,0.125-0.22,0.279-0.42,0.212c-0.211-0.071-0.219-0.265-0.22-0.444c-0.006-0.638-0.199-1.231-0.455-1.802
			c-0.644-1.433-1.46-2.77-2.378-4.037c-0.916-1.265-2.175-2.089-3.651-2.586c-0.12-0.041-0.241-0.08-0.368-0.121
			c0.041-0.136,0.155-0.168,0.237-0.227c1.433-1.011,2.856-2.031,4.18-3.188c1.412-1.235,2.223-2.755,2.385-4.628
			c0.026-0.307-0.111-0.557-0.179-0.831c-0.032-0.13-0.038-0.235,0.014-0.367c0.518-1.324,0.477-2.592-0.417-3.762
			c-0.095-0.125-0.123-0.265-0.122-0.418c0.004-0.872,0.035-1.743,0.081-2.614c0.028-0.542,0.414-0.801,0.826-0.995
			c0.296-0.139,0.341-0.269,0.283-0.588c-0.362-1.998-0.425-3.997,0.143-5.974c0.067-0.232,0.03-0.303-0.207-0.383
			c-1.818-0.608-3.228-1.749-4.098-3.45c-1.015-1.984-0.603-3.84,0.74-5.539C5.358,14.112,5.7,13.78,6.071,13.48
			c1.287-1.044,1.988-2.361,1.898-4.054c0.107,0.021,0.104,0.114,0.129,0.18c0.466,1.236,0.767,2.499,0.59,3.834
			c-0.053,0.399-0.181,0.774-0.442,1.087c-0.446,0.535-0.443,1.108-0.129,1.688c0.556,1.027,1.418,1.629,2.58,1.792
			c0.463,0.065,0.928,0.062,1.394,0.026c0.122-0.01,0.2-0.068,0.282-0.141c1.001-0.883,2.107-1.611,3.298-2.21
			c0.162-0.081,0.244-0.169,0.264-0.371c0.15-1.52,0.865-2.674,2.257-3.361c0.234-0.115,0.318-0.319,0.398-0.528
			c0.196-0.517,0.241-1.063,0.228-1.609c-0.018-0.722-0.075-1.442-0.161-2.191c-0.197,0.136-0.31,0.322-0.451,0.479
			c-0.213,0.235-0.419,0.476-0.665,0.678c-0.1,0.082-0.203,0.174-0.338,0.172c-0.127-0.002-0.303,0.006-0.367-0.069
			c-0.085-0.099,0.08-0.194,0.138-0.289c0.413-0.682,0.605-1.439,0.744-2.211c0.294-1.633,0.252-3.274,0.084-4.915
			c-0.015-0.144-0.026-0.255,0.162-0.27c0.137-0.011,0.27-0.102,0.343,0.129c0.679,2.167,1.764,4.126,3.069,5.973
			c0.159,0.224,0.301,0.46,0.456,0.697c-0.453,0.08-1.081-0.05-2.064-0.424c0.056,0.333,0.171,0.636,0.28,0.939
			c0.327,0.916,0.747,1.79,1.224,2.637c0.082,0.145,0.174,0.204,0.343,0.223c1.405,0.156,2.497,0.787,3.112,2.11
			c0.05,0.109,0.119,0.139,0.226,0.15c1.947,0.204,3.735,0.857,5.38,1.909c0.128,0.082,0.232,0.069,0.36,0.025
			c1.934-0.66,2.478-2.639,1.205-4.371c-0.36-0.49-0.84-0.803-1.399-1.012c-0.167-0.062-0.333-0.13-0.504-0.179
			c-1.604-0.455-2.716-1.495-3.503-2.927C26.109,6.38,25.76,5.67,25.56,4.898c-0.024-0.093-0.034-0.19-0.049-0.278
			c0.083-0.059,0.124-0.007,0.161,0.035c1.284,1.483,2.966,2.273,4.817,2.772c0.748,0.202,1.521,0.266,2.277,0.421
			c3.704,0.76,6.332,4.491,5.756,8.208c-0.292,1.883-1.326,3.206-3.126,3.898c-0.385,0.148-0.383,0.151-0.144,0.502
			c0.753,1.108,1.408,2.272,1.939,3.503c0.374,0.867,0.209,1.558-0.514,2.174c-0.429,0.366-0.938,0.588-1.449,0.802
			c-0.182,0.076-0.28,0.191-0.34,0.374c-0.435,1.34-0.245,2.543,0.777,3.56c0.653,0.65,1.321,1.284,1.977,1.931
			c0.29,0.286,0.557,0.593,0.753,0.953c0.34,0.623,0.216,1.147-0.375,1.543c-0.666,0.446-1.332,0.895-2.015,1.315
			c-0.245,0.151-0.247,0.276-0.137,0.514c0.952,2.064,2.075,4.031,3.319,5.931c0.053,0.081,0.107,0.163,0.18,0.274
			c-0.16,0.037-0.291,0.028-0.423,0.006c-0.046-0.076-0.088-0.154-0.137-0.228c-1.53-2.319-2.899-4.724-3.935-7.309
			c-0.852-2.126-1.467-4.306-1.547-6.615c-0.016-0.449,0.047-0.897,0.008-1.374c-0.219,0.099-0.407,0.183-0.593,0.271
			c-0.043,0.02-0.078,0.058-0.117,0.088c-0.262,0.05-0.475,0.209-0.712,0.315c-0.198,0.088-0.393,0.186-0.595,0.262
			c-0.17,0.064-0.229,0.165-0.243,0.351c-0.08,1.091,0.005,2.173,0.131,3.254c0.28,2.399,0.912,4.699,2.046,6.837
			c1.08,2.036,2.212,4.044,3.329,6.06C37.008,46.026,37.679,46.529,38.496,46.848z M23.827,44.515c-0.02,0.02-0.04,0.039-0.06,0.059
			c-1.055,1.02-2.075,2.073-2.912,3.285c-1.21,1.753-1.966,3.654-1.842,5.832c0.036,0.635,0.162,1.247,0.386,1.85
			c0.024-0.019,0.034-0.023,0.035-0.028c0.007-0.059,0.015-0.117,0.017-0.176c0.016-0.675,0.148-1.317,0.526-1.89
			c0.18-0.273,0.327-0.578,0.552-0.807c0.33-0.336,0.36-0.71,0.324-1.14c-0.081-0.972,0.056-1.914,0.465-2.809
			c0.429-0.94,0.972-1.815,1.545-2.672c0.313-0.468,0.632-0.933,0.948-1.4c0.017-0.022,0.034-0.044,0.051-0.067
			c0.022-0.021,0.04-0.044,0.005-0.066C23.862,44.481,23.841,44.504,23.827,44.515z M16.409,15.871
			c-0.039,0.002-0.071,0.011-0.063,0.062l0.003-0.002c-0.11-0.045-0.191,0.03-0.274,0.074c-0.351,0.183-0.704,0.361-1.045,0.56
			c-2.191,1.279-3.971,2.962-5.128,5.251c-0.705,1.395-1.09,2.88-1.203,4.433c-0.036,0.502-0.012,1.008,0,1.512
			c0.002,0.089-0.041,0.33,0.193,0.189c0.601-0.362,1.18-0.757,1.682-1.254c0.048-0.034,0.098-0.066,0.143-0.104
			c0.96-0.807,1.932-1.598,2.988-2.282c0.904-0.585,1.821-0.854,2.915-0.553c1.153,0.317,2.306,0.64,3.414,1.079
			c1.712,0.678,3.48,0.928,5.304,0.894c0.267,0.003,0.534,0.001,0.801,0.009c0.131,0.004,0.197-0.028,0.199-0.179
			c0.008-0.575-0.003-1.144-0.2-1.697c-0.888-2.488-2.149-4.774-3.757-6.866c-1.079-1.404-2.548-1.937-4.285-1.808
			c-0.513,0.095-0.966,0.35-1.445,0.537c-0.042,0.029-0.083,0.059-0.125,0.088l0.004-0.003c-0.053-0.003-0.101,0.002-0.123,0.062
			L16.409,15.871z M32.162,20.693c0.036-0.006,0.071-0.014,0.064-0.063l-0.004,0.004c0.064,0.021,0.114-0.014,0.165-0.044
			c0.901-0.523,1.856-0.928,2.817-1.326c1.235-0.511,2.015-1.435,2.374-2.714c0.67-2.387-0.331-5.232-2.395-6.868
			c-1.015-0.804-2.185-1.197-3.443-1.422c-1.992-0.355-3.815-1.102-5.347-2.467c-0.059-0.052-0.112-0.117-0.214-0.07
			c0.093,0.136,0.184,0.269,0.275,0.402c-0.024,0.107,0.034,0.192,0.081,0.278c0.874,1.568,2.079,2.704,3.89,3.131
			c0.94,0.222,1.717,0.748,2.214,1.615c0.616,1.075,0.832,2.211,0.335,3.376c-0.562,1.318-1.745,1.739-3.044,1.942
			c-0.744,0.116-1.502-0.014-2.244,0.132c-0.24,0.012-0.464,0.092-0.692,0.154c-0.807,0.221-1.345,0.73-1.611,1.522
			c-0.433,1.288,0.069,2.838,1.182,3.656c1.109,0.815,2.212,0.86,3.277,0.133c0.755-0.391,1.473-0.844,2.2-1.282
			c0.041-0.031,0.083-0.062,0.124-0.093L32.162,20.693z M23.721,28.77c-0.019-0.003-0.037-0.001-0.054,0.008
			c-1.074,0.781-2.303,1.184-3.582,1.468c0.736-0.433,1.533-0.752,2.311-1.272c-0.796-0.107-1.481-0.399-2.225-0.317
			c-0.265,0.029-0.531,0.039-0.797,0.059c-0.571,0.043-1.143,0.074-1.712,0.132c-1.03,0.105-2.06,0.211-3.086,0.343
			c-1.037,0.134-2.074,0.284-3.063,0.649c-0.093,0.035-0.19,0.063-0.252,0.147c-0.182,0.25-0.409,0.459-0.634,0.666
			c-0.153,0.14-0.147,0.206,0.03,0.317c0.321,0.201,0.643,0.406,0.912,0.687c-0.168-0.05-0.323-0.125-0.474-0.206
			c-0.53-0.288-1.055-0.585-1.59-0.866c-0.386-0.203-1.436,0.292-1.54,0.714c-0.007,0.028-0.007,0.059-0.006,0.089
			c0.055,1.155-0.133,2.338,0.406,3.436c0.013,0.026,0.01,0.059,0.02,0.087c0.422,1.285,0.362,2.592,0.154,3.899
			c-0.037,0.231,0.054,0.334,0.191,0.445c0.66,0.534,1.382,0.952,2.206,1.185c0.199,0.056,0.301,0.003,0.375-0.167
			c0.064-0.145,0.129-0.289,0.192-0.434c0.242-0.557,0.808-1.088,1.435-1.057c-0.165,0.115-0.314,0.209-0.452,0.316
			c-0.118,0.092-0.234,0.194-0.174,0.373c-0.151-0.016-0.205,0.079-0.245,0.203c-0.095,0.29-0.184,0.583-0.3,0.865
			c-0.091,0.22-0.228,0.46-0.486,0.468c-0.301,0.009-0.343,0.17-0.342,0.394c0.002,0.963-0.156,1.905-0.433,2.82
			c-0.301,0.995-0.727,1.927-1.673,2.498c-0.175,0.106-0.122,0.174,0.012,0.262c0.731,0.478,1.38,1.053,1.979,1.685
			c0.629,0.663,1.067,1.43,1.312,2.316c0.205,0.743,0.304,1.502,0.4,2.262c0.022,0.174,0.067,0.186,0.217,0.143
			c1.413-0.397,2.826-0.795,4.244-1.174c0.203-0.054,0.246-0.143,0.245-0.326c-0.006-0.644-0.013-1.287,0.003-1.931
			c0.006-0.252-0.116-0.278-0.309-0.256c-0.886,0.102-1.771,0.107-2.65-0.064c-0.866-0.169-1.569-0.55-1.932-1.426
			c-0.212-0.514-0.39-1.036-0.5-1.575c-0.202-0.98-0.128-1.928,0.492-2.765c0.336-0.454,0.653-0.92,0.88-1.436
			c0.185-0.42,0.363-0.848,0.285-1.333c-0.099-0.616-0.518-1.004-0.956-1.38c-0.083-0.071-0.185-0.117-0.19-0.245
			c0.833,0.121,1.647,0.964,1.742,1.803c0.027,0.535-0.083,1.043-0.295,1.532c-0.237,0.546-0.517,1.069-0.87,1.551
			c-0.226,0.309-0.185,0.444,0.171,0.643c0.149,0.222,0.395,0.292,0.624,0.363c1.569,0.487,3.132,0.334,4.691-0.067
			c0.053,0.071,0.116,0.044,0.186,0.028c0.471-0.105,0.932-0.242,1.396-0.373c0.915-0.26,1.79-0.616,2.664-0.981
			c0.308-0.128,0.632-0.229,0.894-0.454c0.125-0.107,0.137-0.186,0.006-0.303c-0.38-0.337-0.685-0.738-0.936-1.176
			c-0.408-0.713-0.563-1.435-0.12-2.209c0.154-0.269,0.365-0.515,0.429-0.833c0.113-0.135-0.046-0.151-0.097-0.182
			c-0.382-0.23-0.778-0.427-1.214-0.538c-0.429-0.109-0.861-0.141-1.303-0.075c0.071-0.049,0.143-0.075,0.217-0.097
			c0.841-0.251,1.643-0.085,2.42,0.253c0.244,0.106,0.443,0.133,0.63-0.078l0.004,0.004c0.051,0.138-0.162,0.31,0.087,0.433
			c0.415,0.204,0.814,0.439,1.217,0.668c0.281,0.16,0.556,0.173,0.834,0c0.086-0.081,0.184-0.153,0.256-0.245
			c0.726-0.942,1.504-1.84,2.275-2.745c0.872-1.024,1.139-2.167,0.691-3.461c-0.207-0.6-0.332-1.224-0.411-1.853
			c-0.162-1.304-0.906-2.231-1.906-2.996c-0.352-0.27-0.762-0.409-1.201-0.31c-0.628,0.142-1.151,0.49-1.611,0.934l0.004-0.002
			c-0.062-0.021-0.099,0.008-0.122,0.063L23.721,28.77z M18.443,3.254c0.011,0.064,0.022,0.129,0.034,0.193
			c-0.11,0.422-0.062,0.858-0.093,1.286c-0.052,0.73-0.13,1.452-0.276,2.169c-0.045,0.22-0.151,0.432-0.136,0.726
			c0.253-0.285,0.472-0.524,0.68-0.771c0.202-0.24,0.237-0.241,0.348,0.06c0.118,0.318,0.129,0.655,0.158,0.99
			c0.1,1.16,0.246,2.32-0.055,3.474c-0.043,0.164-0.014,0.207,0.169,0.169c0.433-0.091,0.868-0.196,1.315-0.192
			c0.226,0.002,0.227-0.078,0.13-0.24c-0.353-0.586-0.626-1.211-0.889-1.841c-0.409-0.977-0.703-1.984-0.79-3.054
			c0.133,0.027,0.163,0.147,0.239,0.216c0.15,0.136,0.2,0.368,0.421,0.433c0.291,0.383,0.727,0.448,1.161,0.543
			c-0.888-1.324-1.721-2.663-2.321-4.133c-0.03-0.095-0.027-0.207-0.151-0.28C18.369,3.105,18.398,3.181,18.443,3.254z
			 M14.152,48.92c0.472,0.149,0.959,0.209,1.45,0.245c0.153,0.011,0.207-0.023,0.166-0.199c-0.209-0.89-0.404-1.783-0.599-2.676
			c-0.022-0.1-0.056-0.155-0.168-0.164c-0.662-0.055-1.297-0.219-1.906-0.484c-0.151-0.124-0.302-0.247-0.466-0.383
			c-0.023,0.053-0.045,0.085-0.05,0.12c-0.013,0.087-0.024,0.176-0.026,0.264c-0.012,0.733,0.224,1.416,0.422,2.108
			C13.148,48.366,13.534,48.758,14.152,48.92z M27.579,38.755c-0.329,0.272-0.58,0.618-0.878,0.92
			c-0.742,0.75-1.435,0.821-2.307,0.224c-0.302-0.207-0.597-0.426-0.886-0.651c-0.14-0.109-0.193-0.076-0.241,0.08
			c-0.073,0.236-0.148,0.474-0.249,0.699c-0.222,0.494-0.149,0.965,0.075,1.432c0.233,0.485,0.557,0.91,0.878,1.339
			c0.112,0.149,0.172,0.094,0.267-0.004c0.531-0.547,1.077-1.08,1.599-1.637c0.678-0.723,1.321-1.475,1.772-2.37
			c0.023-0.025,0.052-0.048,0.013-0.083C27.608,38.721,27.593,38.738,27.579,38.755z M3.203,47.074
			c1.311-0.428,2.589-0.935,3.803-1.593c0.719-0.39,1.405-0.819,1.828-1.559c0.619-1.083,0.801-2.265,0.809-3.488
			c0.001-0.083-0.009-0.158-0.088-0.207c-0.299-0.186-0.598-0.373-0.894-0.558c-0.027,0.037-0.037,0.044-0.037,0.051
			c0.002,0.128,0.002,0.257,0.008,0.385c0.075,1.706-0.534,3.138-1.746,4.322c-1.08,1.055-2.324,1.876-3.674,2.543
			c-0.146,0.034-0.283,0.086-0.446,0.252C2.965,47.175,3.092,47.154,3.203,47.074z M17.471,14.856
			c1.129-0.419,2.269-0.8,3.454-1.033c0.619-0.122,1.245-0.178,1.87-0.253c0.422-0.001,0.845-0.005,1.267-0.001
			c0.191,0.002,0.161-0.086,0.095-0.199c-0.114-0.197-0.246-0.381-0.405-0.545c-0.848-0.873-1.915-1.07-3.071-0.998
			c-0.497,0.02-0.985,0.1-1.463,0.238c-1.593,0.388-2.569,1.57-2.797,3.057c-0.02,0.133,0.013,0.193,0.157,0.129
			C16.875,15.117,17.173,14.987,17.471,14.856z M10.458,28.114l0.016,0.016c-0.027,0.256-0.248,0.387-0.372,0.58
			c-0.008,0.012-0.016,0.024-0.025,0.036c0.012-0.008,0.024-0.016,0.037-0.024c0.055-0.005,0.11-0.009,0.166-0.014l0.013,0.013
			c0.016,0.074-0.097,0.131-0.028,0.218c0.141-0.022,0.247-0.108,0.361-0.18c0.301-0.191,0.508-0.486,0.788-0.7l0.002,0.002
			c-0.02,0.243-0.206,0.394-0.323,0.582c-0.201,0.322-0.517,0.551-0.795,0.908c0.383-0.075,0.581-0.347,0.871-0.429l0.014,0.012
			c-0.115,0.356-0.368,0.605-0.655,0.82c-0.166,0.124-0.352,0.22-0.525,0.335c-0.051,0.034-0.141,0.071-0.083,0.158
			c0.043,0.064,0.121,0.07,0.188,0.04c0.053-0.024,0.098-0.065,0.145-0.101c0.605-0.453,1.095-1.03,1.652-1.534
			c0.625-0.566,1.299-1.075,2.066-1.431c1.094-0.508,2.218-0.452,3.359-0.138c1.757,0.483,3.461,1.191,5.314,1.291
			c0.214,0.011,0.385-0.003,0.547-0.139c0.227-0.191,0.456-0.38,0.689-0.563c0.721-0.566,1.486-0.988,2.452-0.713
			c0.743,0.355,1.347,0.879,1.85,1.525c0.077,0.099,0.191,0.086,0.3,0.089c0.524,0.016,1.042-0.08,1.568-0.072
			c0.195,0.003,0.409-0.029,0.602-0.122c0.801-0.387,1.604-0.771,2.411-1.147c0.609-0.284,1.228-0.546,1.834-0.834
			c0.604-0.287,1.256-0.502,1.702-1.045c0.288-0.35,0.46-0.72,0.269-1.192c-0.164-0.404-0.36-0.792-0.546-1.185
			c-0.077-0.163-0.144-0.189-0.311-0.084c-1.555,0.981-3.144,1.904-4.801,2.704c-0.559,0.27-1.12,0.582-1.742,0.644
			c-0.892,0.088-1.792,0.085-2.688,0.14c-0.151,0.009-0.3-0.137-0.447-0.002c-0.858-0.027-1.715-0.084-2.567-0.191
			c-0.882-0.111-1.757-0.267-2.586-0.607c-1.462-0.599-2.903-1.259-4.439-1.655c-0.577-0.149-1.162-0.345-1.769-0.115
			c-0.297,0.113-0.581,0.253-0.85,0.42c-1.134,0.701-2.11,1.594-3.056,2.525c-0.43,0.423-0.835,0.873-1.308,1.251
			c-0.27,0.216-0.532,0.442-0.801,0.659c-0.067,0.054-0.13,0.109-0.09,0.196c0.057,0.121,0.134,0.019,0.198-0.002
			c0.065-0.021,0.123-0.062,0.186-0.093C9.7,28.749,10.044,28.382,10.458,28.114z M8.539,55.706c0.27-0.233,0.51-0.467,0.777-0.662
			c0.172-0.126,0.183-0.232,0.103-0.416c-0.346-0.79-0.76-1.544-1.217-2.274c-0.524-0.839-1.044-1.684-1.795-2.349
			c-0.088-0.078-0.152-0.22-0.296-0.176C7.24,51.642,8.221,53.513,8.539,55.706z M2.677,47.246c0.008-0.003,0.015-0.007,0.023-0.01
			c-0.007-0.005-0.013-0.013-0.02-0.014c-0.007-0.001-0.015,0.006-0.023,0.01C2.663,47.236,2.67,47.241,2.677,47.246z"/>
		<path style="fill:#242021;" d="M25.854,53.601c0-2.972,0.004-5.944-0.006-8.915c-0.001-0.257,0.053-0.33,0.321-0.328
			c1.783,0.014,3.566,0.003,5.349,0.008c1.038,0.003,1.98,0.272,2.712,1.059c0.598,0.643,0.846,1.428,0.848,2.286
			c0.008,3.952,0.015,7.905-0.001,11.857c-0.008,1.983-1.407,3.306-3.46,3.316c-1.833,0.009-3.665-0.003-5.498,0.008
			c-0.237,0.001-0.27-0.078-0.269-0.287C25.856,59.604,25.854,56.602,25.854,53.601z M28.63,53.624c0,2.169,0,4.339,0,6.508
			c0,0.069,0.003,0.139-0.001,0.208c-0.006,0.108,0.031,0.166,0.151,0.163c0.772-0.021,1.547,0.058,2.315-0.045
			c0.723-0.097,1.139-0.569,1.193-1.301c0.009-0.128,0.009-0.257,0.009-0.386c0-3.388,0-6.776,0-10.163
			c0-0.168,0.004-0.337-0.006-0.505c-0.046-0.772-0.458-1.227-1.226-1.323c-0.68-0.085-1.366-0.006-2.048-0.041
			c-0.297-0.016-0.397,0.053-0.394,0.377C28.638,49.285,28.63,51.455,28.63,53.624z"/>
		<path style="fill:#242021;" d="M43.541,50.284c0.387-1.256,0.774-2.512,1.162-3.768c0.198-0.643,0.403-1.284,0.59-1.931
			c0.051-0.175,0.131-0.228,0.309-0.225c0.812,0.01,1.625,0.015,2.437-0.002c0.286-0.006,0.279,0.087,0.198,0.307
			c-1.032,2.805-2.055,5.613-3.087,8.418c-0.066,0.18-0.063,0.331,0.002,0.509c1.096,3.013,2.186,6.029,3.277,9.044
			c0.026,0.072,0.047,0.147,0.079,0.25c-0.964,0-1.902-0.004-2.84,0.003c-0.214,0.002-0.199-0.164-0.235-0.281
			c-0.561-1.784-1.117-3.57-1.674-5.356c-0.082-0.264-0.166-0.528-0.254-0.811c-0.081,0.073-0.089,0.158-0.113,0.235
			c-0.62,1.973-1.244,3.945-1.853,5.922c-0.073,0.238-0.179,0.298-0.414,0.293c-0.782-0.016-1.565-0.015-2.348-0.001
			c-0.264,0.005-0.317-0.043-0.219-0.308c1.096-2.95,2.178-5.906,3.273-8.856c0.086-0.231,0.08-0.425-0.003-0.652
			c-1.014-2.801-2.017-5.606-3.032-8.407c-0.085-0.236-0.089-0.317,0.204-0.31c0.792,0.019,1.585,0.017,2.377,0
			c0.235-0.005,0.314,0.076,0.379,0.293c0.537,1.792,1.09,3.579,1.638,5.367c0.028,0.092,0.058,0.183,0.088,0.274
			C43.502,50.289,43.522,50.286,43.541,50.284z"/>
		<path style="fill:#252122;" d="M50.015,53.623c0-2.981,0.004-5.961-0.007-8.942c-0.001-0.267,0.07-0.331,0.329-0.324
			c0.722,0.019,1.446,0.018,2.168,0c0.242-0.006,0.29,0.071,0.29,0.299c-0.007,4.496-0.005,8.991-0.005,13.487
			c0,1.485-0.006,2.971,0.006,4.456c0.002,0.238-0.064,0.297-0.296,0.292c-0.732-0.015-1.466-0.016-2.198,0
			c-0.24,0.005-0.293-0.067-0.293-0.298C50.018,59.604,50.015,56.614,50.015,53.623z"/>
		<path style="fill:#5E5E5E;" d="M31.91,28.486c0.237-0.106,0.451-0.265,0.712-0.315c0.032,1.602,0.158,3.196,0.433,4.777
			c0.314,1.8,0.785,3.552,1.597,5.199c0.644,1.307,1.399,2.55,2.197,3.768c0.374,0.57,0.736,1.15,1.174,1.675
			c-0.374,0.48-0.34,0.984-0.135,1.527c0.154,0.41,0.356,0.808,0.403,1.254c-0.081-0.008-0.114-0.075-0.152-0.129
			c-1.212-1.736-2.389-3.494-3.335-5.396c-0.679-1.366-1.222-2.788-1.774-4.207c-0.761-1.957-1.153-3.979-1.17-6.077
			C31.856,29.868,31.852,29.177,31.91,28.486z"/>
		<path style="fill:#AAABAA;" d="M38.023,43.589c-0.438-0.526-0.8-1.105-1.174-1.675c-0.798-1.217-1.553-2.46-2.197-3.768
			c-0.812-1.647-1.283-3.399-1.597-5.199c-0.275-1.58-0.401-3.174-0.433-4.777c0.039-0.03,0.073-0.068,0.116-0.088
			c0.186-0.088,0.374-0.172,0.593-0.271c0.039,0.477-0.024,0.925-0.008,1.374c0.08,2.309,0.695,4.489,1.547,6.615
			c1.036,2.584,2.405,4.99,3.935,7.309c0.049,0.074,0.092,0.152,0.137,0.228C38.612,43.33,38.316,43.456,38.023,43.589z"/>
		<path style="fill:#D82027;" d="M31.91,28.486c-0.058,0.691-0.054,1.382-0.048,2.074c0.017,2.097,0.408,4.12,1.17,6.077
			c0.552,1.42,1.094,2.841,1.774,4.207c0.946,1.902,2.122,3.66,3.335,5.396c0.038,0.055,0.071,0.122,0.152,0.129
			c0,0-0.003-0.001-0.003-0.001c-0.016,0.064,0.022,0.105,0.063,0.144c0.083,0.097,0.122,0.212,0.145,0.335
			c-0.818-0.319-1.488-0.821-1.919-1.598c-1.117-2.016-2.249-4.024-3.329-6.06c-1.134-2.138-1.766-4.438-2.046-6.837
			c-0.126-1.081-0.211-2.164-0.131-3.254c0.014-0.186,0.073-0.287,0.243-0.351C31.517,28.672,31.712,28.574,31.91,28.486z"/>
		<path style="fill:#5E5E5E;" d="M38.351,46.513c-0.041-0.039-0.079-0.08-0.063-0.144C38.371,46.39,38.361,46.451,38.351,46.513z"/>
		<path style="fill:#252122;" d="M62.96,53.655c0,2.971-0.004,5.942,0.006,8.912c0.001,0.26-0.056,0.334-0.323,0.326
			c-0.722-0.021-1.446-0.017-2.168-0.002c-0.233,0.005-0.297-0.055-0.296-0.293c0.009-3.228,0.006-6.456,0.006-9.685
			c0-2.743,0.004-5.486-0.006-8.229c-0.001-0.26,0.058-0.336,0.325-0.328c0.722,0.02,1.446,0.017,2.168,0.001
			c0.236-0.005,0.294,0.061,0.294,0.295C62.957,47.654,62.96,50.654,62.96,53.655z"/>
		<path style="fill:#242021;" d="M55.087,53.625c0-2.982,0.004-5.964-0.007-8.945c-0.001-0.27,0.072-0.327,0.329-0.321
			c0.733,0.018,1.466,0.012,2.199,0.002c0.19-0.003,0.251,0.043,0.251,0.246c-0.006,6.013-0.006,12.026,0,18.04
			c0,0.205-0.067,0.245-0.253,0.243c-0.743-0.009-1.486-0.013-2.229,0.002c-0.23,0.005-0.296-0.053-0.296-0.291
			C55.09,59.608,55.087,56.617,55.087,53.625z"/>
		<path style="fill:#5D5E5E;" d="M18.43,45.303c-1.558,0.401-3.121,0.554-4.691,0.067c-0.23-0.071-0.476-0.141-0.624-0.363
			c0.248-0.355,0.514-0.699,0.741-1.067c0.518-0.84,0.609-1.73,0.252-2.658c-0.095-0.839-0.909-1.681-1.742-1.803
			c-0.017-0.004-0.035-0.005-0.053-0.005c-0.06-0.179,0.055-0.282,0.174-0.373c0.138-0.107,0.287-0.202,0.452-0.316
			c-0.627-0.031-1.193,0.5-1.435,1.057c-0.063,0.145-0.129,0.289-0.192,0.434c-0.075,0.17-0.176,0.223-0.375,0.167
			c-0.825-0.233-1.546-0.651-2.206-1.185c-0.137-0.111-0.228-0.214-0.191-0.445c0.208-1.307,0.268-2.614-0.154-3.899
			c-0.009-0.028-0.007-0.061-0.02-0.087c-0.539-1.098-0.351-2.281-0.406-3.436c-0.001-0.029-0.001-0.06,0.006-0.089
			c0.104-0.423,1.153-0.917,1.54-0.714c0.534,0.28,1.059,0.578,1.59,0.866c0.151,0.082,0.305,0.157,0.474,0.206
			c-0.269-0.281-0.591-0.485-0.912-0.687c-0.177-0.111-0.183-0.177-0.03-0.317c0.225-0.207,0.452-0.416,0.634-0.666
			c0.062-0.085,0.158-0.113,0.252-0.147c0.989-0.366,2.026-0.516,3.063-0.649c1.026-0.132,2.056-0.239,3.086-0.343
			c0.569-0.058,1.141-0.089,1.712-0.132c0.266-0.02,0.532-0.03,0.797-0.059c0.744-0.082,1.429,0.21,2.225,0.317
			c-0.778,0.521-1.575,0.84-2.311,1.272c1.279-0.284,2.508-0.687,3.582-1.468c0.026,0.049,0.042,0.035,0.054-0.008
			c0,0-0.004,0.003-0.004,0.003c0.052,0.001,0.103,0.001,0.122-0.063l-0.004,0.002c0.18,0.009,0.318-0.102,0.466-0.175
			c0.7-0.346,1.379-0.402,2.029,0.115c0.093,0.074,0.195,0.136,0.289,0.208c0.629,0.48,1.146,1.035,1.253,1.867
			c0.049,0.382,0.103,0.763,0.162,1.143c0.103,0.662,0.419,1.254,0.616,1.886c0.117,0.375,0.188,0.748,0.04,1.132
			c-0.252,0.655-0.593,1.253-1.118,1.729c-0.458,0.415-0.849,0.887-1.199,1.392c-0.291,0.42-0.613,0.833-0.63,1.381
			c-0.278,0.173-0.553,0.16-0.834,0c-0.402-0.229-0.802-0.464-1.217-0.668c-0.25-0.123-0.036-0.295-0.087-0.433
			c0.009-0.009,0.018-0.019,0.026-0.028c-0.01,0.008-0.02,0.017-0.03,0.025c-0.188,0.211-0.386,0.184-0.63,0.078
			c-0.776-0.338-1.578-0.504-2.42-0.253c-0.074,0.022-0.146,0.048-0.217,0.097c0.443-0.065,0.874-0.034,1.303,0.075
			c0.436,0.111,0.833,0.308,1.214,0.538c0.051,0.03,0.209,0.047,0.097,0.182c-0.18,0.012-0.306,0.138-0.444,0.226
			c-0.795,0.504-1.3,1.176-1.219,2.175c0.039,0.483,0.115,0.961,0.248,1.425c0.072,0.249,0.02,0.442-0.111,0.64
			c-0.306,0.46-0.749,0.761-1.225,1.005C19.617,44.767,19.019,45.027,18.43,45.303z M11.715,31.742
			c-0.012-0.009-0.024-0.018-0.036-0.027c0.01,0.011,0.019,0.023,0.029,0.034c0.02,0.015,0.04,0.03,0.059,0.045
			c0.007-0.01,0.014-0.02,0.022-0.031C11.765,31.756,11.74,31.749,11.715,31.742z M15.755,37.103l0.007-0.002
			c-0.314-0.001-0.353,0.263-0.404,0.468c-0.191,0.776-0.328,1.563-0.43,2.356c-0.021,0.166-0.013,0.334-0.046,0.501
			c-0.061,0.306,0.075,0.544,0.317,0.716c0.251,0.178,0.539,0.187,0.781,0.018c0.3-0.209,0.585-0.208,0.922-0.115
			c0.359,0.099,0.731,0.172,1.11,0.161c0.44,0.155,0.888,0.157,1.336,0.056c0.403-0.091,0.547-0.375,0.399-0.755
			c-0.351-0.899-0.875-1.686-1.588-2.332c-0.447-0.406-0.956-0.731-1.568-0.848c-0.181-0.08-0.297-0.326-0.552-0.215
			c-0.075-0.005-0.15-0.009-0.225-0.014C15.79,37.046,15.77,37.052,15.755,37.103z M14.988,31.68
			c-0.013-0.007-0.026-0.015-0.039-0.022c0.008,0.012,0.016,0.025,0.024,0.037c0.011,0.494,0.067,0.99-0.043,1.479
			c-0.113,0.503-0.401,0.625-0.855,0.376c-0.06-0.033-0.123-0.069-0.171-0.117c-0.64-0.64-1.457-0.93-2.299-1.175
			c-0.218-0.063-0.44-0.123-0.646-0.214c-0.533-0.235-1.083-0.285-1.65-0.186c-0.511,0.089-0.668,0.307-0.69,0.833
			c-0.036,0.835,0.155,1.623,0.411,2.408c0.189,0.579,0.395,1.165,0.244,1.796c-0.051,0.211-0.092,0.425-0.021,0.643
			c0.223,0.685,0.663,1.209,1.244,1.611c0.281,0.194,0.597,0.117,0.826-0.143c0.132-0.149,0.218-0.329,0.316-0.501
			c0.259-0.454,0.443-0.962,0.851-1.313c0.367-0.315,0.76-0.572,1.28-0.277c0.23,0.13,0.495,0.199,0.741,0.303
			c0.177,0.075,0.312,0.124,0.245-0.169c-0.042-0.181-0.044-0.372-0.064-0.558c-0.017-0.159-0.011-0.265,0.208-0.301
			c0.946-0.158,1.89-0.125,2.838-0.044c0.161,0.014,0.159,0.112,0.159,0.226c-0.001,0.379,0,0.758,0,1.136
			c0.205-0.287,0.38-0.572,0.519-0.875c0.094-0.206,0.222-0.265,0.438-0.252c1.193,0.073,2.337,0.366,3.462,0.751
			c0.715,0.245,1.442,0.396,2.206,0.395c0.511-0.001,0.865-0.201,1.144-0.608c0.262-0.383,0.544-0.75,0.906-1.053
			c0.318-0.266,0.622-0.552,0.912-0.849c0.595-0.608,0.873-1.28,0.43-2.117c-0.17-0.321-0.233-0.688-0.273-1.056
			c-0.058-0.53-0.212-1.035-0.595-1.425c-0.353-0.36-0.763-0.658-1.167-0.959c-0.272-0.203-0.576-0.292-0.918-0.275
			c-0.476,0.024-0.888,0.26-1.332,0.39c-1.494,0.438-2.732,1.316-3.895,2.32c-0.631,0.545-1.285,1.057-2.148,1.194
			c-0.442,0.07-0.854-0.13-1.079-0.555c-0.245-0.462-0.205-0.703,0.167-1.09c0.263-0.273,0.561-0.5,0.887-0.691
			c0.221-0.129,0.443-0.257,0.664-0.385c-0.333,0.019-0.623,0.141-0.916,0.253c-0.575,0.22-1.136,0.468-1.584,0.906
			c-0.124,0.121-0.177,0.359-0.314,0.412C15.251,32.002,15.181,31.696,14.988,31.68z M12.044,30.226
			c0.425,0.12,0.832,0.101,1.231,0.144c0.805,0.087,1.535,0.293,2.004,1.022c0.116,0.18,0.178,0.029,0.24-0.037
			c1.073-1.135,2.357-1.793,3.948-1.827c0.321-0.007,0.669,0.016,1.058-0.165c-1.036,0.033-1.99,0.067-2.937,0.218
			c-0.635,0.101-1.284,0.193-1.832,0.547c-0.318,0.206-0.575,0.253-0.954,0.154C13.908,30.045,12.989,30.136,12.044,30.226z"/>
		<path style="fill:#5E5E5E;" d="M25.336,25.73c-1.824,0.033-3.592-0.216-5.304-0.894c-1.108-0.439-2.26-0.762-3.414-1.079
			c-1.094-0.301-2.011-0.032-2.915,0.553c-1.056,0.684-2.027,1.475-2.988,2.282c-0.045,0.038-0.095,0.069-0.143,0.104
			c-0.048-1.15,0.219-2.253,0.482-3.361c0.63-2.658,1.976-4.851,4.148-6.524c0.382-0.294,0.764-0.587,1.146-0.881
			c0,0-0.003,0.002-0.003,0.002c0.039-0.002,0.065-0.017,0.063-0.062c0,0-0.003,0.002-0.003,0.002
			c0.056,0.01,0.103,0.001,0.123-0.062c0,0-0.004,0.003-0.004,0.003c0.062,0,0.109-0.022,0.125-0.088
			c0.479-0.187,0.932-0.442,1.445-0.537c0.006,0.042,0.025,0.071,0.07,0.082c1.608,0.383,2.847,1.333,3.889,2.564
			c0.951,1.125,1.682,2.393,2.256,3.744C24.872,22.905,25.422,24.241,25.336,25.73z"/>
		<path style="fill:#5E5E5E;" d="M32.042,20.782c-0.727,0.439-1.446,0.891-2.2,1.282c-0.325-0.012-0.652,0.036-0.975-0.047
			c-0.762-0.194-1.282-0.683-1.639-1.358c-0.513-0.971-0.753-1.973-0.297-3.043c0.171-0.401,0.471-0.702,0.755-1.017
			c0.742-0.145,1.5-0.015,2.244-0.132c1.299-0.203,2.482-0.624,3.044-1.942c0.497-1.166,0.28-2.301-0.335-3.376
			c-0.497-0.867-1.274-1.393-2.214-1.615c-1.811-0.427-3.016-1.563-3.89-3.131c-0.048-0.086-0.105-0.17-0.081-0.278
			c0.115,0.03,0.169,0.133,0.241,0.211c1.032,1.118,2.25,1.966,3.683,2.481C31.4,9.185,32.443,9.5,33.468,9.861
			c1.008,0.355,1.953,0.845,2.486,1.818c0.801,1.463,1.189,3.039,0.946,4.713c-0.144,0.988-0.662,1.768-1.54,2.283
			c-0.598,0.35-1.204,0.686-1.791,1.053c-0.458,0.287-0.942,0.539-1.348,0.905c0,0,0.004-0.004,0.004-0.004
			c-0.021,0.021-0.043,0.042-0.064,0.063c0,0,0.004-0.004,0.004-0.004C32.104,20.692,32.058,20.717,32.042,20.782z"/>
		<path style="fill:#5D5E5E;" d="M10.279,28.708c-0.055,0.005-0.11,0.009-0.166,0.014c0,0-0.012-0.012-0.012-0.012
			c0.125-0.193,0.346-0.324,0.372-0.58c0.016-0.023,0.032-0.047,0.048-0.07c0.008-0.002,0.016-0.003,0.022-0.008
			c0.004-0.003,0.003-0.011,0.005-0.016c-0.009,0.008-0.017,0.017-0.026,0.025c-0.022,0.018-0.044,0.035-0.066,0.053
			c-0.414,0.268-0.758,0.636-1.207,0.854c-0.062,0.03-0.121,0.072-0.186,0.093c-0.063,0.02-0.141,0.122-0.198,0.002
			c-0.041-0.087,0.023-0.142,0.09-0.196c0.269-0.217,0.531-0.444,0.801-0.659c0.473-0.378,0.878-0.828,1.308-1.251
			c0.946-0.93,1.922-1.824,3.056-2.525c0.269-0.166,0.553-0.307,0.85-0.42c0.607-0.231,1.192-0.034,1.769,0.115
			c1.536,0.396,2.977,1.056,4.439,1.655c0.83,0.34,1.704,0.496,2.586,0.607c0.852,0.107,1.709,0.163,2.567,0.191
			c0,0.194-0.001,0.387-0.001,0.581c-0.966-0.275-1.731,0.146-2.452,0.713c-0.233,0.183-0.462,0.372-0.689,0.563
			c-0.162,0.136-0.333,0.15-0.547,0.139c-1.853-0.099-3.556-0.807-5.314-1.291c-1.141-0.314-2.265-0.369-3.359,0.138
			c-0.767,0.356-1.44,0.866-2.066,1.431c-0.557,0.504-1.047,1.081-1.652,1.534c-0.047,0.035-0.093,0.077-0.145,0.101
			c-0.067,0.031-0.146,0.024-0.188-0.04c-0.058-0.087,0.032-0.124,0.083-0.158c0.173-0.115,0.359-0.211,0.525-0.335
			c0.287-0.216,0.54-0.465,0.655-0.821c0.014-0.022,0.028-0.045,0.04-0.068c0.001-0.002-0.013-0.012-0.02-0.018
			c-0.011,0.024-0.023,0.049-0.034,0.073c-0.29,0.082-0.488,0.354-0.871,0.429c0.279-0.357,0.594-0.585,0.795-0.908
			c0.118-0.188,0.303-0.34,0.323-0.582c0.009-0.01,0.019-0.019,0.028-0.029c-0.007,0.001-0.015-0.001-0.019,0.003
			c-0.006,0.006-0.008,0.015-0.012,0.023c-0.28,0.214-0.487,0.509-0.788,0.7c-0.114,0.073-0.221,0.158-0.361,0.18
			c-0.068-0.087,0.045-0.144,0.028-0.218c0.008-0.012,0.016-0.025,0.024-0.037C10.304,28.692,10.292,28.7,10.279,28.708z"/>
		<path style="fill:#312E2B;" d="M12.314,39.473c0.018,0,0.035,0.002,0.053,0.005c0.005,0.127,0.108,0.173,0.19,0.245
			c0.438,0.376,0.857,0.765,0.956,1.38c0.078,0.484-0.1,0.912-0.285,1.333c-0.227,0.517-0.544,0.983-0.88,1.436
			c-0.621,0.837-0.694,1.785-0.492,2.765c0.111,0.539,0.288,1.061,0.5,1.575c0.362,0.877,1.065,1.258,1.932,1.426
			c0.878,0.171,1.764,0.167,2.65,0.064c0.193-0.022,0.315,0.004,0.309,0.256c-0.016,0.643-0.009,1.287-0.003,1.931
			c0.002,0.183-0.041,0.271-0.245,0.326c-1.418,0.379-2.831,0.776-4.244,1.174c-0.15,0.042-0.195,0.031-0.217-0.143
			c-0.096-0.76-0.195-1.519-0.4-2.262c-0.244-0.886-0.683-1.653-1.312-2.316c-0.599-0.632-1.248-1.208-1.979-1.685
			c-0.134-0.088-0.187-0.156-0.012-0.262c0.946-0.571,1.372-1.503,1.673-2.498c0.277-0.915,0.434-1.858,0.433-2.82
			c0-0.224,0.041-0.385,0.342-0.394c0.257-0.007,0.394-0.248,0.486-0.468c0.117-0.281,0.206-0.575,0.3-0.865
			C12.109,39.552,12.163,39.457,12.314,39.473z"/>
		<path style="fill:#2E2F2E;" d="M26.332,27.16c0.001-0.194,0.001-0.387,0.001-0.581c0.147-0.136,0.296,0.011,0.447,0.002
			c0.896-0.055,1.796-0.051,2.688-0.14c0.621-0.062,1.183-0.375,1.742-0.644c1.657-0.799,3.246-1.722,4.801-2.704
			c0.167-0.105,0.234-0.079,0.311,0.084c0.186,0.393,0.382,0.78,0.546,1.185c0.191,0.471,0.019,0.841-0.269,1.192
			c-0.447,0.543-1.098,0.758-1.702,1.045c-0.607,0.288-1.226,0.55-1.834,0.834c-0.806,0.376-1.609,0.76-2.411,1.147
			c-0.193,0.093-0.407,0.125-0.602,0.122c-0.525-0.008-1.044,0.088-1.568,0.072c-0.109-0.003-0.223,0.01-0.3-0.089
			C27.679,28.039,27.076,27.515,26.332,27.16z"/>
		<path style="fill:#D82027;" d="M16.349,15.93c-0.382,0.294-0.765,0.587-1.146,0.881c-2.172,1.673-3.518,3.866-4.148,6.524
			c-0.262,1.108-0.53,2.21-0.482,3.361c-0.501,0.497-1.08,0.892-1.682,1.254C8.657,28.09,8.7,27.85,8.698,27.761
			c-0.012-0.504-0.036-1.011,0-1.512c0.113-1.554,0.497-3.038,1.203-4.433c1.158-2.289,2.937-3.972,5.128-5.251
			c0.341-0.199,0.695-0.378,1.045-0.56C16.158,15.96,16.239,15.885,16.349,15.93z"/>
		<path style="fill:#AAABAA;" d="M32.222,20.633c0.406-0.366,0.89-0.618,1.348-0.905c0.587-0.368,1.193-0.703,1.791-1.053
			c0.878-0.514,1.396-1.294,1.54-2.283c0.243-1.674-0.145-3.25-0.946-4.713c-0.533-0.973-1.478-1.463-2.486-1.818
			C32.443,9.5,31.4,9.185,30.377,8.817c-1.433-0.516-2.651-1.363-3.683-2.481c-0.072-0.078-0.126-0.181-0.241-0.211
			c-0.091-0.133-0.183-0.267-0.275-0.402c0.102-0.046,0.155,0.018,0.214,0.07c1.532,1.365,3.355,2.112,5.347,2.467
			c1.258,0.224,2.429,0.618,3.443,1.422c2.064,1.636,3.065,4.481,2.395,6.868c-0.359,1.279-1.139,2.203-2.374,2.714
			c-0.961,0.397-1.916,0.803-2.817,1.326C32.336,20.619,32.286,20.654,32.222,20.633z"/>
		<path style="fill:#AAABAA;" d="M25.336,25.73c0.085-1.489-0.464-2.825-1.027-4.149c-0.574-1.351-1.305-2.62-2.256-3.744
			c-1.042-1.232-2.281-2.182-3.889-2.564c-0.045-0.011-0.064-0.04-0.07-0.082c1.737-0.129,3.206,0.404,4.285,1.808
			c1.608,2.091,2.869,4.377,3.757,6.866c0.197,0.553,0.208,1.122,0.2,1.697c-0.002,0.151-0.068,0.183-0.199,0.179
			C25.87,25.731,25.603,25.732,25.336,25.73z"/>
		<path style="fill:#D82027;" d="M23.812,44.617c-0.316,0.466-0.635,0.931-0.948,1.4c-0.573,0.857-1.116,1.732-1.545,2.672
			c-0.408,0.895-0.546,1.837-0.465,2.809c0.036,0.43,0.005,0.804-0.324,1.14c-0.225,0.229-0.372,0.535-0.552,0.807
			c-0.379,0.573-0.511,1.216-0.526,1.89c-0.001,0.059-0.01,0.118-0.017,0.176c-0.001,0.005-0.011,0.009-0.035,0.028
			c-0.225-0.602-0.35-1.214-0.386-1.85c-0.124-2.178,0.632-4.079,1.842-5.832c0.836-1.212,1.857-2.265,2.912-3.285
			C23.782,44.588,23.797,44.603,23.812,44.617z"/>
		<path style="fill:#D82027;" d="M27.686,16.599c-0.284,0.315-0.584,0.617-0.755,1.017c-0.457,1.069-0.216,2.072,0.297,3.043
			c0.357,0.675,0.877,1.164,1.639,1.358c0.323,0.082,0.65,0.035,0.975,0.047c-1.065,0.727-2.168,0.682-3.277-0.133
			c-1.113-0.818-1.615-2.368-1.182-3.656c0.266-0.792,0.805-1.301,1.611-1.522C27.222,16.691,27.447,16.611,27.686,16.599z"/>
		<path style="fill:#5D5E5E;" d="M19.219,12.065c0.478-0.138,0.966-0.218,1.463-0.238c0.125,0.105,0.288,0.118,0.433,0.17
			c0.79,0.28,1.384,0.766,1.679,1.573c-0.625,0.075-1.251,0.132-1.87,0.253c-1.185,0.233-2.325,0.613-3.454,1.033
			c0.001-0.317,0.079-0.625,0.104-0.938c0.054-0.667,0.437-1.092,0.966-1.438C18.764,12.335,19.024,12.254,19.219,12.065z"/>
		<path style="fill:#D82027;" d="M3.213,46.969c1.35-0.667,2.594-1.488,3.674-2.543c1.212-1.184,1.821-2.615,1.746-4.322
			c-0.006-0.128-0.006-0.257-0.008-0.385c0-0.007,0.01-0.014,0.037-0.051c0.296,0.185,0.595,0.372,0.894,0.558
			c0.079,0.049,0.088,0.124,0.088,0.207c-0.008,1.224-0.19,2.406-0.809,3.488c-0.423,0.74-1.11,1.17-1.828,1.559
			c-1.214,0.658-2.492,1.166-3.803,1.593C3.206,47.039,3.21,47.004,3.213,46.969z"/>
		<path style="fill:#312E2B;" d="M18.43,45.303c0.589-0.276,1.187-0.535,1.766-0.832c0.476-0.244,0.919-0.544,1.225-1.005
			c0.132-0.198,0.183-0.391,0.111-0.64c-0.134-0.464-0.209-0.942-0.248-1.425c-0.081-0.999,0.425-1.671,1.219-2.175
			c0.139-0.088,0.265-0.214,0.444-0.226c-0.064,0.317-0.276,0.564-0.429,0.833c-0.443,0.775-0.287,1.497,0.12,2.209
			c0.251,0.439,0.556,0.839,0.936,1.176c0.131,0.116,0.119,0.196-0.006,0.303c-0.262,0.225-0.586,0.326-0.894,0.454
			c-0.873,0.365-1.749,0.721-2.664,0.981c-0.464,0.132-0.925,0.269-1.396,0.373C18.546,45.346,18.483,45.374,18.43,45.303z"/>
		<path style="fill:#AAABAA;" d="M25.742,39.389c0.016-0.548,0.339-0.961,0.63-1.381c0.349-0.505,0.741-0.977,1.199-1.392
			c0.525-0.476,0.866-1.074,1.118-1.729c0.148-0.384,0.077-0.756-0.04-1.132c-0.197-0.632-0.514-1.224-0.616-1.886
			c-0.059-0.38-0.113-0.762-0.162-1.143c-0.107-0.832-0.624-1.387-1.253-1.867c-0.094-0.072-0.196-0.134-0.289-0.208
			c-0.65-0.516-1.329-0.46-2.029-0.115c-0.148,0.073-0.285,0.184-0.466,0.175c0.46-0.444,0.983-0.792,1.611-0.934
			c0.439-0.099,0.849,0.041,1.201,0.31c0.999,0.765,1.744,1.693,1.906,2.996c0.078,0.629,0.203,1.253,0.411,1.853
			c0.448,1.294,0.181,2.437-0.691,3.461c-0.771,0.905-1.549,1.803-2.275,2.745C25.927,39.236,25.828,39.308,25.742,39.389z"/>
		<path style="fill:#DBDBDB;" d="M27.609,38.786c-0.451,0.894-1.094,1.646-1.772,2.369c-0.522,0.556-1.067,1.09-1.599,1.637
			c-0.095,0.098-0.156,0.153-0.267,0.004c-0.321-0.428-0.645-0.853-0.878-1.339c-0.224-0.466-0.297-0.938-0.075-1.432
			c0.101-0.225,0.176-0.463,0.249-0.699c0.048-0.156,0.101-0.189,0.241-0.08c0.289,0.225,0.583,0.444,0.886,0.651
			c0.872,0.597,1.565,0.526,2.307-0.224c0.298-0.301,0.55-0.648,0.878-0.92C27.589,38.766,27.599,38.776,27.609,38.786z"/>
		<path style="fill:#5D5E5E;" d="M13.094,45.643c0.609,0.265,1.244,0.429,1.906,0.484c0.112,0.009,0.146,0.064,0.168,0.164
			c0.196,0.893,0.391,1.786,0.599,2.676c0.041,0.176-0.013,0.21-0.166,0.199c-0.491-0.037-0.978-0.096-1.45-0.245
			c0.003-0.148-0.082-0.265-0.15-0.382C13.485,47.64,13.247,46.655,13.094,45.643z"/>
		<path style="fill:#5D5E5E;" d="M19.698,6.871c-0.221-0.065-0.271-0.298-0.421-0.433C19.2,6.369,19.17,6.249,19.037,6.222
			c0.087,1.07,0.381,2.077,0.79,3.054c0.263,0.63,0.536,1.255,0.889,1.841c0.097,0.162,0.096,0.242-0.13,0.24
			c-0.447-0.004-0.881,0.101-1.315,0.192c-0.183,0.039-0.212-0.005-0.169-0.169c0.301-1.153,0.154-2.314,0.055-3.474
			c-0.029-0.334-0.04-0.672-0.158-0.99c-0.112-0.302-0.147-0.3-0.348-0.06c-0.208,0.247-0.428,0.486-0.68,0.771
			c-0.015-0.294,0.091-0.506,0.136-0.726c0.146-0.717,0.224-1.439,0.276-2.169c0.03-0.428-0.017-0.864,0.093-1.286
			c0.085,0.024,0.08,0.107,0.1,0.167c0.191,0.578,0.372,1.16,0.57,1.736C19.322,5.86,19.513,6.364,19.698,6.871z"/>
		<path style="fill:#D82027;" d="M8.539,55.706c-0.317-2.193-1.298-4.064-2.427-5.876c0.144-0.045,0.208,0.098,0.296,0.176
			c0.752,0.665,1.271,1.51,1.795,2.349c0.456,0.73,0.871,1.483,1.217,2.274c0.08,0.184,0.069,0.29-0.103,0.416
			C9.048,55.24,8.808,55.473,8.539,55.706z"/>
		<path style="fill:#AAABAA;" d="M22.795,13.57c-0.295-0.807-0.889-1.293-1.679-1.573c-0.146-0.052-0.308-0.065-0.433-0.17
			c1.155-0.073,2.223,0.125,3.071,0.998c0.159,0.164,0.291,0.347,0.405,0.545c0.065,0.113,0.096,0.201-0.095,0.199
			C23.64,13.565,23.217,13.569,22.795,13.57z"/>
		<path style="fill:#D82027;" d="M13.094,45.643c0.153,1.012,0.391,1.997,0.908,2.895c0.068,0.117,0.153,0.234,0.15,0.382
			c-0.618-0.162-1.003-0.554-1.178-1.168c-0.197-0.692-0.434-1.375-0.422-2.108c0.001-0.088,0.013-0.177,0.026-0.264
			c0.005-0.035,0.027-0.067,0.05-0.12C12.792,45.396,12.943,45.52,13.094,45.643z"/>
		<path style="fill:#D82027;" d="M19.219,12.065c-0.194,0.189-0.455,0.271-0.678,0.416c-0.529,0.345-0.912,0.771-0.966,1.438
			c-0.025,0.313-0.103,0.621-0.104,0.938c-0.298,0.131-0.596,0.261-0.893,0.394c-0.144,0.065-0.177,0.004-0.157-0.129
			C16.65,13.635,17.626,12.453,19.219,12.065z"/>
		<path style="fill:#AAABAA;" d="M19.698,6.871c-0.184-0.507-0.376-1.011-0.551-1.521c-0.197-0.576-0.378-1.158-0.57-1.736
			c-0.02-0.06-0.015-0.143-0.1-0.167c-0.011-0.064-0.022-0.129-0.034-0.193c0.032,0.009,0.063,0.018,0.094,0.027
			c0.6,1.47,1.433,2.809,2.321,4.133C20.425,7.319,19.989,7.254,19.698,6.871z"/>
		<path style="fill:#D82027;" d="M14.108,41.281c0.358,0.928,0.266,1.818-0.252,2.658c-0.227,0.368-0.493,0.712-0.741,1.067
			c-0.357-0.199-0.398-0.333-0.172-0.642c0.353-0.482,0.633-1.005,0.87-1.551C14.026,42.324,14.136,41.816,14.108,41.281z"/>
		<path style="fill:#8F1D21;" d="M3.213,46.969c-0.003,0.035-0.007,0.07-0.01,0.104c-0.11,0.081-0.238,0.101-0.436,0.148
			C2.93,47.056,3.067,47.003,3.213,46.969z"/>
		<path style="fill:#5D5E5E;" d="M18.538,3.281c-0.031-0.009-0.063-0.018-0.094-0.027c-0.046-0.073-0.074-0.149-0.057-0.253
			C18.511,3.074,18.508,3.185,18.538,3.281z"/>
		<path style="fill:#AAABAA;" d="M23.839,28.71c-0.019,0.064-0.07,0.064-0.122,0.063C23.74,28.718,23.777,28.689,23.839,28.71z"/>
		<path style="fill:#8F1D21;" d="M2.677,47.246c-0.007-0.005-0.013-0.01-0.02-0.014c0.008-0.004,0.016-0.01,0.023-0.01
			c0.007,0.001,0.013,0.009,0.02,0.014C2.692,47.239,2.684,47.242,2.677,47.246z"/>
		<path style="fill:#AAABAA;" d="M32.042,20.782c0.016-0.065,0.062-0.09,0.124-0.093C32.125,20.72,32.084,20.751,32.042,20.782z"/>
		<path style="fill:#D82027;" d="M16.529,15.812c-0.02,0.062-0.067,0.072-0.123,0.062C16.427,15.814,16.476,15.809,16.529,15.812z"
			/>
		<path style="fill:#D82027;" d="M16.649,15.726c-0.016,0.066-0.063,0.088-0.125,0.088C16.566,15.785,16.608,15.756,16.649,15.726z"
			/>
		<path style="fill:#D82027;" d="M23.766,44.574c0.02-0.02,0.04-0.039,0.06-0.059c0.012,0.012,0.023,0.024,0.036,0.036
			c-0.017,0.022-0.034,0.044-0.051,0.067C23.797,44.603,23.782,44.588,23.766,44.574z"/>
		<path style="fill:#AAABAA;" d="M23.721,28.77c-0.012,0.043-0.029,0.057-0.054,0.008C23.684,28.77,23.702,28.767,23.721,28.77z"/>
		<path style="fill:#5D5E5E;" d="M10.114,28.722c-0.012,0.008-0.024,0.016-0.037,0.024c0.008-0.012,0.016-0.024,0.025-0.036
			C10.101,28.71,10.114,28.722,10.114,28.722z"/>
		<path style="fill:#DBDBDB;" d="M27.579,38.755c0.014-0.017,0.029-0.035,0.043-0.052c0.039,0.035,0.01,0.058-0.013,0.083
			C27.599,38.776,27.589,38.766,27.579,38.755z"/>
		<path style="fill:#D82027;" d="M16.409,15.871c0.002,0.044-0.024,0.059-0.063,0.062C16.338,15.882,16.37,15.873,16.409,15.871z"/>
		<path style="fill:#AAABAA;" d="M32.162,20.693c0.021-0.021,0.043-0.042,0.064-0.063C32.233,20.679,32.198,20.687,32.162,20.693z"
			/>
		<path style="fill:#D82027;" d="M23.827,44.515c0.014-0.011,0.036-0.034,0.041-0.031c0.035,0.022,0.017,0.045-0.005,0.066
			C23.85,44.539,23.838,44.527,23.827,44.515z"/>
		<path style="fill:#DEDEDE;" d="M28.63,53.624c0-2.169,0.008-4.339-0.009-6.508c-0.002-0.325,0.097-0.393,0.394-0.377
			c0.682,0.036,1.368-0.044,2.048,0.041c0.769,0.096,1.18,0.55,1.226,1.323c0.01,0.168,0.006,0.337,0.006,0.505
			c0,3.388,0,6.776,0,10.163c0,0.129,0.001,0.258-0.009,0.386c-0.054,0.732-0.469,1.204-1.193,1.301
			c-0.768,0.103-1.543,0.024-2.315,0.045c-0.12,0.003-0.156-0.055-0.151-0.163c0.004-0.069,0.001-0.139,0.001-0.208
			C28.63,57.963,28.63,55.794,28.63,53.624z M31.273,54.848c0-1.059,0-2.118,0-3.176c0-0.346-0.003-0.693,0.001-1.039
			c0.002-0.159-0.02-0.244-0.219-0.179c-0.265,0.087-0.547,0.119-0.809,0.228c-0.116,0.048-0.254,0.096-0.371,0.077
			c-0.273-0.044-0.326,0.094-0.326,0.315c0.001,2.711,0.003,5.423-0.003,8.134c0,0.224,0.097,0.302,0.3,0.302
			c0.287-0.001,0.574-0.01,0.861,0.003c0.402,0.018,0.566-0.128,0.566-0.537C31.273,57.599,31.272,56.223,31.273,54.848z
			 M29.631,48.717c0,0.247,0.014,0.495-0.004,0.741c-0.015,0.209,0.065,0.232,0.238,0.181c0.246-0.072,0.499-0.123,0.745-0.197
			c0.682-0.205,0.681-0.208,0.68-0.929c0-0.109-0.005-0.218-0.002-0.326c0.008-0.286-0.142-0.42-0.414-0.425
			c-0.346-0.007-0.692,0.003-1.038-0.013c-0.183-0.008-0.214,0.071-0.208,0.227C29.638,48.222,29.631,48.47,29.631,48.717z"/>
		<path style="fill:#242021;" d="M14.988,31.68c0.193,0.016,0.263,0.322,0.421,0.261c0.137-0.053,0.19-0.291,0.314-0.412
			c0.447-0.438,1.009-0.685,1.584-0.906c0.293-0.112,0.583-0.234,0.916-0.253c-0.221,0.128-0.443,0.256-0.664,0.385
			c-0.327,0.191-0.624,0.417-0.887,0.691c-0.372,0.387-0.412,0.628-0.167,1.09c0.225,0.425,0.638,0.626,1.079,0.555
			c0.864-0.137,1.517-0.649,2.148-1.194c1.163-1.004,2.401-1.882,3.895-2.32c0.444-0.13,0.856-0.366,1.332-0.39
			c0.342-0.017,0.646,0.072,0.918,0.275c0.404,0.301,0.814,0.599,1.167,0.959c0.382,0.39,0.537,0.895,0.595,1.425
			c0.04,0.368,0.104,0.736,0.273,1.056c0.442,0.837,0.165,1.508-0.43,2.117c-0.29,0.297-0.594,0.583-0.912,0.849
			c-0.362,0.303-0.643,0.67-0.906,1.053c-0.279,0.407-0.634,0.607-1.144,0.608c-0.764,0.001-1.491-0.15-2.206-0.395
			c-1.125-0.385-2.269-0.679-3.462-0.751c-0.216-0.013-0.344,0.046-0.438,0.252c-0.138,0.302-0.313,0.588-0.519,0.875
			c0-0.379-0.001-0.758,0-1.136c0-0.114,0.002-0.213-0.159-0.226c-0.948-0.081-1.892-0.114-2.838,0.044
			c-0.219,0.036-0.224,0.142-0.208,0.301c0.019,0.186,0.022,0.377,0.064,0.558c0.067,0.293-0.067,0.243-0.245,0.169
			c-0.246-0.104-0.51-0.173-0.741-0.303c-0.52-0.294-0.913-0.038-1.28,0.277c-0.408,0.35-0.592,0.859-0.851,1.313
			c-0.098,0.172-0.184,0.351-0.316,0.501c-0.229,0.26-0.545,0.337-0.826,0.143c-0.581-0.402-1.02-0.926-1.244-1.611
			c-0.071-0.218-0.03-0.432,0.021-0.643c0.151-0.631-0.055-1.217-0.244-1.796c-0.256-0.785-0.447-1.573-0.411-2.408
			c0.023-0.526,0.179-0.744,0.69-0.833c0.567-0.099,1.117-0.049,1.65,0.186c0.207,0.091,0.428,0.151,0.646,0.214
			c0.842,0.244,1.659,0.535,2.299,1.175c0.048,0.048,0.111,0.084,0.171,0.117c0.455,0.249,0.743,0.127,0.855-0.376
			c0.109-0.489,0.053-0.985,0.043-1.479L14.988,31.68z M18.309,35.141c0.029,0.305,0.187,0.45,0.491,0.471
			c0.489,0.034,0.962-0.06,1.435-0.159c0.644-0.136,1.296-0.229,1.941-0.364c0.98-0.205,1.979-0.318,2.956-0.547
			c0.556-0.13,0.835-0.512,0.851-1.088c0.011-0.416-0.128-0.794-0.233-1.184c-0.219-0.812-0.822-1.136-1.578-0.803
			c-0.733,0.322-1.452,0.677-2.173,1.024c-0.49,0.236-0.965,0.502-1.462,0.721c-0.635,0.28-1.248,0.601-1.864,0.918
			c-0.4,0.206-0.579,0.676-0.428,1.001C18.267,35.133,18.288,35.137,18.309,35.141z M10.842,33.827c-0.069,0-0.138,0-0.208,0
			c-0.546,0.001-0.802,0.218-0.891,0.766c-0.068,0.42,0.037,0.82,0.193,1.2c0.216,0.524,0.601,0.834,1.198,0.766
			c0.958-0.11,1.89-0.358,2.828-0.569c0.333-0.075,0.705-0.564,0.541-1.011c-0.124-0.337-0.374-0.527-0.71-0.606
			c-0.363-0.085-0.728-0.171-1.096-0.225C12.075,34.057,11.477,33.829,10.842,33.827z"/>
		<path style="fill:#252122;" d="M16.039,37.111c0.255-0.11,0.371,0.135,0.552,0.215c0.014,0.046,0.015,0.103,0.044,0.136
			c0.507,0.58,0.915,1.23,1.33,1.876c0.528,0.822,0.541,1.219,0.047,1.867c-0.379,0.011-0.751-0.062-1.11-0.161
			c-0.337-0.093-0.621-0.094-0.922,0.115c-0.242,0.169-0.53,0.16-0.781-0.018c-0.242-0.172-0.379-0.41-0.317-0.716
			c0.034-0.167,0.025-0.335,0.046-0.501c0.102-0.793,0.239-1.58,0.43-2.356c0.05-0.205,0.089-0.469,0.403-0.468
			c-0.101,0.108-0.207,0.21-0.232,0.368c-0.159,0.992-0.154,1.992-0.132,2.991c0.003,0.148,0.087,0.232,0.235,0.144
			c0.228-0.136,0.421-0.328,0.68-0.418c0.086-0.03,0.051-0.119,0.044-0.184C16.253,39.038,16.146,38.075,16.039,37.111z"/>
		<path style="fill:#312E2B;" d="M18.012,41.206c0.494-0.648,0.481-1.044-0.047-1.867c-0.415-0.646-0.823-1.296-1.33-1.876
			c-0.029-0.033-0.03-0.09-0.044-0.136c0.612,0.117,1.121,0.443,1.568,0.848c0.712,0.646,1.237,1.434,1.588,2.332
			c0.148,0.38,0.004,0.664-0.399,0.755C18.9,41.363,18.452,41.36,18.012,41.206z"/>
		<path style="fill:#252122;" d="M12.044,30.226c0.945-0.09,1.865-0.182,2.758,0.054c0.379,0.1,0.635,0.052,0.954-0.154
			c0.548-0.354,1.196-0.446,1.832-0.547c0.947-0.15,1.901-0.185,2.937-0.218c-0.389,0.181-0.738,0.159-1.058,0.165
			c-1.591,0.034-2.875,0.692-3.948,1.827c-0.062,0.066-0.125,0.217-0.24,0.037c-0.469-0.729-1.198-0.935-2.004-1.022
			C12.876,30.327,12.468,30.346,12.044,30.226z"/>
		<path style="fill:#DBDBDB;" d="M16.039,37.111c0.107,0.963,0.214,1.927,0.32,2.89c0.007,0.064,0.041,0.154-0.044,0.184
			c-0.259,0.09-0.452,0.282-0.68,0.418c-0.148,0.088-0.232,0.004-0.235-0.144c-0.022-1-0.028-1.999,0.132-2.991
			c0.025-0.157,0.131-0.26,0.232-0.368c0,0-0.007,0.002-0.007,0.002c0.02-0.002,0.039-0.004,0.059-0.006
			C15.889,37.102,15.964,37.107,16.039,37.111z"/>
		<path style="fill:#242021;" d="M11.715,31.742c0.025,0.007,0.049,0.014,0.074,0.021c-0.007,0.01-0.014,0.02-0.022,0.031
			c-0.02-0.015-0.04-0.03-0.059-0.045L11.715,31.742z"/>
		<path style="fill:#242021;" d="M14.973,31.695c-0.008-0.012-0.016-0.025-0.024-0.037c0.013,0.007,0.026,0.015,0.039,0.022
			C14.988,31.68,14.973,31.695,14.973,31.695z"/>
		<path style="fill:#242021;" d="M11.708,31.749c-0.01-0.011-0.019-0.023-0.029-0.034c0.012,0.009,0.024,0.018,0.036,0.027
			C11.715,31.742,11.708,31.749,11.708,31.749z"/>
		<path style="fill:#242021;" d="M23.6,38.284c0.01-0.008,0.02-0.017,0.03-0.025c-0.009,0.009-0.018,0.019-0.026,0.028
			C23.604,38.288,23.6,38.284,23.6,38.284z"/>
		<path style="fill:#252122;" d="M15.814,37.098c-0.02,0.002-0.039,0.004-0.059,0.006C15.77,37.052,15.79,37.046,15.814,37.098z"/>
		<path style="fill:#242021;" d="M11.168,29.123c0.011-0.024,0.023-0.049,0.034-0.073c0.007,0.006,0.021,0.016,0.02,0.018
			c-0.012,0.023-0.026,0.045-0.04,0.068C11.182,29.135,11.168,29.123,11.168,29.123z"/>
		<path style="fill:#242021;" d="M10.458,28.114c0.022-0.018,0.044-0.035,0.066-0.053l-0.001-0.001
			c-0.016,0.023-0.032,0.046-0.048,0.07C10.474,28.13,10.458,28.114,10.458,28.114z"/>
		<path style="fill:#242021;" d="M11.414,28.059c0.004-0.008,0.006-0.017,0.012-0.023c0.004-0.004,0.012-0.002,0.019-0.003
			c-0.009,0.01-0.019,0.019-0.028,0.029C11.416,28.062,11.414,28.059,11.414,28.059z"/>
		<path style="fill:#242021;" d="M10.523,28.061c0.009-0.008,0.017-0.017,0.026-0.025c-0.002,0.006-0.001,0.014-0.005,0.016
			c-0.006,0.004-0.015,0.005-0.022,0.008C10.522,28.06,10.523,28.061,10.523,28.061z"/>
		<path style="fill:#242021;" d="M10.279,28.708c0.012-0.008,0.025-0.016,0.037-0.024c-0.008,0.012-0.016,0.025-0.024,0.037
			C10.293,28.721,10.279,28.708,10.279,28.708z"/>
		<path style="fill:#252122;" d="M29.631,48.717c0-0.247,0.007-0.495-0.002-0.741c-0.006-0.156,0.025-0.236,0.208-0.227
			c0.345,0.016,0.692,0.005,1.038,0.013c0.273,0.006,0.423,0.14,0.414,0.425c-0.003,0.109,0.001,0.217,0.002,0.326
			c0,0.721,0.001,0.724-0.68,0.929c-0.246,0.074-0.498,0.125-0.745,0.197c-0.173,0.051-0.253,0.028-0.238-0.181
			C29.645,49.212,29.631,48.964,29.631,48.717z"/>
		<path style="fill:#8F1D21;" d="M18.309,35.141c-0.021-0.004-0.043-0.008-0.064-0.011c0.112-0.185,0.368-0.168,0.487-0.344
			c0.103,0.002,0.187-0.054,0.28-0.088c0.294-0.109,0.491-0.343,0.729-0.529c0.445-0.348,0.977-0.552,1.478-0.804
			c0.843-0.423,1.688-0.845,2.544-1.241c0.262-0.121,0.526-0.335,0.856-0.187c-0.178,0.15-0.408,0.193-0.611,0.292
			c-0.735,0.361-1.456,0.752-2.208,1.081c-0.334,0.146-0.653,0.325-0.979,0.49c0.009,0.026,0.019,0.053,0.028,0.079
			c0.076,0,0.156,0.017,0.227-0.003c0.548-0.153,1.096-0.304,1.639-0.473c0.831-0.259,1.592-0.669,2.328-1.128
			c0.324,0.34,0.385,0.749,0.315,1.31c-0.096-0.409-0.243-0.359-0.416-0.182c-0.032,0.033-0.085,0.046-0.128,0.069
			c-0.28,0.15-0.559,0.3-0.896,0.481c0.393,0.12,0.704-0.103,1.023-0.005c-0.084,0.057-0.171,0.098-0.262,0.115
			c-0.501,0.095-1.003,0.19-1.506,0.273c-0.784,0.13-1.56,0.301-2.352,0.393c-0.642,0.075-1.289,0.132-1.92,0.292
			C18.704,35.063,18.507,35.102,18.309,35.141z"/>
		<path style="fill:#391F20;" d="M18.733,34.786c-0.119,0.176-0.375,0.158-0.487,0.344c-0.151-0.325,0.027-0.795,0.428-1.001
			c0.616-0.317,1.229-0.637,1.864-0.918c0.497-0.219,0.972-0.485,1.462-0.721c0.722-0.347,1.44-0.702,2.173-1.024
			c0.757-0.333,1.36-0.009,1.578,0.803c0.105,0.39,0.244,0.768,0.233,1.184c-0.016,0.576-0.295,0.958-0.851,1.088
			c-0.977,0.229-1.976,0.342-2.956,0.547c-0.645,0.135-1.297,0.229-1.941,0.364c-0.473,0.099-0.946,0.193-1.435,0.159
			c-0.304-0.021-0.462-0.166-0.491-0.471c0.198-0.039,0.395-0.078,0.593-0.118c-0.011,0.138,0.083,0.18,0.189,0.228
			c0.314,0.142,0.634,0.028,0.932-0.018c1.204-0.187,2.402-0.41,3.598-0.642c0.463-0.09,0.936-0.132,1.385-0.289
			c0.342-0.12,0.615-0.33,0.663-0.691c0.071-0.527-0.002-1.047-0.289-1.515c-0.235-0.383-0.593-0.535-1.036-0.409
			c-0.245,0.07-0.483,0.173-0.712,0.284c-0.666,0.323-1.316,0.678-1.99,0.983c-0.719,0.326-1.427,0.674-2.122,1.047
			C19.189,34.181,18.826,34.354,18.733,34.786z"/>
		<path style="fill:#391F20;" d="M10.842,33.827c0.636,0.002,1.233,0.23,1.854,0.321c0.369,0.054,0.733,0.14,1.096,0.225
			c0.336,0.079,0.586,0.269,0.71,0.606c0.164,0.447-0.208,0.937-0.541,1.011c-0.938,0.211-1.87,0.459-2.828,0.569
			c-0.597,0.068-0.982-0.242-1.198-0.766c-0.157-0.38-0.261-0.78-0.193-1.2c0.089-0.549,0.346-0.766,0.891-0.766
			C10.703,33.827,10.772,33.827,10.842,33.827z M10.279,34.349c-0.02,0.023-0.04,0.047-0.06,0.07
			C9.901,34.527,9.984,34.8,9.993,35.02c0.028,0.699,0.508,1.4,1.266,1.292c0.747-0.106,1.494-0.246,2.218-0.472
			c0.243-0.076,0.484-0.197,0.5-0.515c0.119-0.022,0.242-0.036,0.369-0.147c-0.151-0.043-0.262-0.074-0.372-0.106
			c-0.039-0.336-0.303-0.449-0.567-0.523c-0.434-0.12-0.876-0.218-1.319-0.3c-0.452-0.083-0.9-0.222-1.368-0.182
			C10.532,34.085,10.301,34.062,10.279,34.349z"/>
		<path style="fill:#561F20;" d="M18.733,34.786c0.093-0.431,0.457-0.605,0.789-0.783c0.695-0.373,1.402-0.721,2.122-1.047
			c0.673-0.305,1.324-0.66,1.99-0.983c0.23-0.111,0.467-0.215,0.712-0.284c0.443-0.126,0.801,0.026,1.036,0.409
			c0.287,0.468,0.36,0.987,0.289,1.515c-0.049,0.362-0.322,0.572-0.663,0.691c-0.45,0.157-0.923,0.199-1.385,0.289
			c-1.196,0.232-2.395,0.455-3.598,0.642c-0.298,0.046-0.618,0.16-0.932,0.018c-0.106-0.048-0.2-0.09-0.189-0.228
			c0.63-0.16,1.278-0.217,1.92-0.292c0.792-0.093,1.568-0.264,2.352-0.393c0.503-0.083,1.005-0.178,1.506-0.273
			c0.091-0.017,0.178-0.059,0.262-0.115c-0.32-0.098-0.631,0.125-1.023,0.005c0.337-0.181,0.617-0.331,0.896-0.481
			c0.043-0.023,0.096-0.036,0.128-0.069c0.173-0.177,0.32-0.227,0.416,0.182c0.069-0.561,0.008-0.971-0.316-1.31
			c-0.055-0.443-0.071-0.455-0.424-0.339c-0.33-0.148-0.594,0.066-0.856,0.187c-0.856,0.396-1.701,0.817-2.544,1.241
			c-0.501,0.252-1.033,0.456-1.478,0.804c-0.237,0.185-0.435,0.42-0.729,0.529C18.92,34.731,18.836,34.788,18.733,34.786z"/>
		<path style="fill:#D82027;" d="M24.619,31.937c0.353-0.116,0.368-0.104,0.424,0.339c-0.735,0.46-1.496,0.869-2.328,1.128
			c-0.543,0.169-1.091,0.32-1.639,0.473c-0.07,0.02-0.151,0.003-0.227,0.003c-0.009-0.026-0.019-0.053-0.028-0.079
			c0.326-0.164,0.645-0.343,0.979-0.49c0.751-0.329,1.472-0.72,2.208-1.081C24.211,32.13,24.441,32.087,24.619,31.937z"/>
		<path style="fill:#8F1D21;" d="M13.972,35.073c0.111,0.031,0.222,0.063,0.372,0.106c-0.127,0.11-0.249,0.125-0.369,0.147
			c-0.192,0.036-0.415,0.033-0.553,0.172c-0.173,0.175-0.379,0.24-0.599,0.291c-0.43,0.099-0.86,0.204-1.294,0.285
			c-0.973,0.181-1.366-0.547-1.285-1.223c0.018-0.153,0.02-0.288-0.025-0.43c0.02-0.023,0.04-0.047,0.06-0.07
			c0.159,0.029,0.315,0.015,0.465-0.047c0.121-0.05,0.246-0.07,0.377-0.044c0.491,0.098,0.985,0.185,1.472,0.299
			c0.256,0.06,0.569,0.054,0.743,0.255C13.522,35.025,13.733,35.055,13.972,35.073z"/>
		<path style="fill:#561F20;" d="M10.219,34.419c0.045,0.141,0.043,0.276,0.025,0.43c-0.081,0.676,0.312,1.404,1.285,1.223
			c0.434-0.081,0.864-0.185,1.294-0.285c0.22-0.051,0.425-0.116,0.599-0.291c0.138-0.139,0.361-0.136,0.553-0.172
			c-0.016,0.317-0.256,0.439-0.5,0.515c-0.724,0.226-1.471,0.366-2.218,0.472c-0.758,0.108-1.237-0.594-1.266-1.292
			C9.984,34.8,9.901,34.527,10.219,34.419z"/>
		<path style="fill:#561F20;" d="M13.972,35.073c-0.24-0.018-0.45-0.048-0.636-0.262c-0.174-0.2-0.487-0.195-0.743-0.255
			c-0.487-0.114-0.981-0.201-1.472-0.299c-0.13-0.026-0.255-0.006-0.377,0.044c-0.15,0.062-0.305,0.076-0.465,0.047
			c0.022-0.287,0.252-0.264,0.439-0.28c0.468-0.04,0.915,0.099,1.368,0.182c0.443,0.082,0.885,0.179,1.319,0.3
			C13.669,34.623,13.933,34.737,13.972,35.073z"/>
	</g>
</g>
</svg>
