<?xml version="1.0" encoding="utf-8"?>
<!-- Generator: Adobe Illustrator 23.0.2, SVG Export Plug-In . SVG Version: 6.00 Build 0)  -->
<svg version="1.1" id="Layer_1" xmlns="http://www.w3.org/2000/svg" xmlns:xlink="http://www.w3.org/1999/xlink" x="0px" y="0px"
	 width="64px" height="64px" viewBox="0 0 64 64" enable-background="new 0 0 64 64" xml:space="preserve">
<g>
	<g>
		<path fill="#FFFFFF" d="M33.793,51.568c-3.081-0.244-5.177-2.071-5.962-5.189c-0.249-0.989-0.381-1.991-0.391-3.01
			c-0.001-0.105,0-0.21,0-0.338c-0.675,0.14-1.32,0.287-1.977,0.352c-0.834,0.084-1.662,0.077-2.468-0.212
			c-0.278-0.1-0.515-0.249-0.737-0.435c-1.074-0.898-1.925-1.945-2.183-3.365c-0.284-1.566-0.054-3.087,0.497-4.561
			c0.927-2.482,2.334-4.691,3.918-6.795c0.804-1.067,1.665-2.088,2.539-3.098c0.1-0.116,0.171-0.178,0.34-0.094
			c1.176,0.586,2.187,1.363,2.964,2.436c0.14,0.193,0.102,0.277-0.054,0.436c-2.581,2.627-5.021,5.366-6.775,8.641
			c-0.431,0.804-0.772,1.642-0.826,2.568c-0.036,0.608,0.094,1.165,0.514,1.633c0.125,0.139,0.25,0.185,0.446,0.155
			c1.675-0.261,3.036-1.14,4.33-2.16c0.136-0.107,0.133-0.265,0.169-0.403c0.992-3.805,2.767-7.193,5.404-10.117
			c1.632-1.809,3.522-3.292,5.698-4.399c0.189-0.096,0.284-0.214,0.342-0.417c0.33-1.161,0.655-2.32,0.712-3.536
			c0.044-0.944-0.09-1.856-0.476-2.718c-0.605-1.35-1.702-2.102-3.101-2.443c-1.785-0.435-3.582-0.371-5.374-0.039
			c-3.235,0.6-6.296,1.756-9.345,2.948c-5.239,2.048-10.094,4.818-14.795,7.877c-1.959,1.275-3.897,2.582-5.784,3.964
			c-0.447,0.328-0.91,0.634-1.418,0.87c-0.011-0.341,0.13-0.626,0.421-0.866c5.05-4.149,10.367-7.916,16.083-11.095
			c3.254-1.81,6.608-3.415,10.183-4.509c2.068-0.633,4.175-1.065,6.335-1.215c0.537,0,1.073-0.001,1.61-0.001
			c0.984,0.053,1.952,0.2,2.905,0.455c4.174,1.117,6.887,4.386,7.209,8.692c0.036,0.486,0.036,0.474,0.527,0.442
			c0.79-0.052,1.582-0.067,2.356,0.139c1.519,0.404,2.478,1.584,2.714,3.29c0.193,1.4,0.011,2.773-0.294,4.131
			c-0.85,3.791-2.387,7.303-4.412,10.607c-0.446,0.727-0.622,0.756-1.377,0.313c-0.064-0.038-0.131-0.074-0.189-0.12
			c-1.163-0.911-2.28-1.868-3.18-3.055c-0.171-0.226-0.167-0.37,0.003-0.599c1.662-2.239,3.192-4.563,4.405-7.082
			c0.528-1.095,1.058-2.192,1.228-3.415c0.09-0.648,0.049-1.27-0.346-1.84c-0.274-0.395-0.721-0.371-1.089-0.538
			c-0.293-0.133-0.387-0.036-0.468,0.259c-0.403,1.479-0.764,2.969-1.446,4.361c-2.36,4.814-5.9,8.595-10.198,11.719
			c-1.073,0.78-2.26,1.37-3.417,2.009c-0.17,0.094-0.225,0.184-0.161,0.377c0.093,0.283,0.135,0.583,0.232,0.864
			c0.532,1.545,1.464,2.729,3.086,3.208c1.07,0.316,2.181,0.412,3.296,0.392c2.54-0.044,4.928-0.713,7.21-1.794
			c3.583-1.697,6.613-4.138,9.322-6.996c3.205-3.382,5.839-7.185,8.169-11.207c1.083-1.869,2.109-3.769,3-5.742
			c0.156,0.083,0.132,0.293,0.283,0.37c0,0.171,0,0.342,0,0.513c-0.103,0.028-0.096,0.129-0.125,0.2
			c-1.791,4.379-4.04,8.51-6.755,12.383c-2.291,3.268-4.771,6.382-7.71,9.101c-2.807,2.597-5.899,4.778-9.428,6.299
			c-1.632,0.703-3.297,1.287-5.092,1.395C34.524,51.567,34.159,51.568,33.793,51.568z M38.143,26.298
			c-4.001,2.51-6.649,6.082-8.255,10.563C33.29,33.79,36.095,30.344,38.143,26.298z"/>
		<path fill="#B8B7B7" d="M34.63,12.377c-0.005,0.019-0.004,0.038,0.003,0.056c-0.537,0-1.073,0.001-1.61,0.001
			c0.009-0.019,0.01-0.038,0.003-0.057C33.561,12.377,34.096,12.377,34.63,12.377z"/>
		<path fill="#C4C3C4" d="M34.889,51.567c-0.006,0.018-0.007,0.037-0.003,0.056c-0.363,0-0.727,0-1.09,0
			c0.001-0.018,0-0.036-0.003-0.055C34.159,51.568,34.524,51.567,34.889,51.567z"/>
	</g>
</g>
</svg>
