<?xml version="1.0" encoding="UTF-8" ?>
<!DOCTYPE svg PUBLIC "-//W3C//DTD SVG 1.1//EN" "http://www.w3.org/Graphics/SVG/1.1/DTD/svg11.dtd">
<svg width="64" height="64" viewBox="0 0 547 600" version="1.1" xmlns="http://www.w3.org/2000/svg">
<g id="#2f90ffff">
<path fill="#2f90ff" opacity="1.00" d=" M 243.38 0.00 L 300.60 0.00 C 303.45 1.00 306.41 2.31 308.23 4.85 C 310.23 7.42 310.69 10.76 310.75 13.92 C 310.69 50.62 310.67 87.32 310.77 124.02 C 310.70 127.26 310.43 130.73 308.49 133.46 C 306.03 137.16 301.49 139.24 297.07 138.80 C 292.72 138.53 289.35 135.45 286.10 132.88 C 273.56 122.58 259.81 113.77 245.13 106.85 C 241.91 105.24 238.38 103.85 236.02 101.01 C 233.73 98.22 233.45 94.45 233.37 91.00 C 233.43 65.99 233.47 40.98 233.35 15.97 C 233.41 12.42 233.51 8.61 235.53 5.53 C 237.28 2.71 240.39 1.19 243.38 0.00 Z" />
<path fill="#2f90ff" opacity="1.00" d=" M 450.30 125.30 C 452.50 124.94 454.74 124.96 456.97 124.95 C 469.65 125.05 482.32 124.98 495.00 125.00 C 499.31 125.04 503.65 124.70 507.94 125.24 C 512.94 125.94 516.74 130.54 517.47 135.38 C 517.97 139.23 517.71 143.13 517.72 147.00 C 517.58 155.71 518.00 164.42 517.41 173.11 C 516.37 186.89 513.87 200.60 509.59 213.75 C 498.56 248.43 475.72 279.12 446.02 300.08 C 442.81 302.42 439.02 304.44 437.17 308.13 C 435.00 312.59 436.22 318.00 439.30 321.72 C 474.10 366.23 508.87 410.78 543.67 455.29 C 547.82 460.48 547.34 468.85 542.17 473.18 C 539.78 475.56 536.30 476.06 533.08 476.03 C 514.39 475.98 495.69 475.99 477.00 476.01 C 473.02 475.98 469.01 476.27 465.05 475.77 C 461.55 475.36 459.09 472.56 456.96 470.02 C 426.25 430.72 395.54 391.40 364.83 352.10 C 361.62 348.46 362.04 343.41 362.97 339.01 C 366.59 320.56 367.13 301.62 365.83 282.91 C 365.52 276.52 364.04 270.28 363.53 263.92 C 363.37 260.79 364.01 257.48 366.00 254.99 C 368.10 252.09 371.62 250.87 374.90 249.85 C 402.10 241.82 424.89 220.37 434.69 193.78 C 439.55 181.49 440.77 168.11 440.43 155.00 C 440.52 148.80 440.14 142.58 440.56 136.39 C 440.90 131.10 444.99 126.15 450.30 125.30 Z" />
<path fill="#2f90ff" opacity="1.00" d=" M 286.71 466.67 C 289.76 464.25 292.98 461.44 297.07 461.19 C 301.71 460.75 306.48 463.11 308.89 467.11 C 310.51 469.76 310.69 472.96 310.76 475.98 C 310.68 512.34 310.67 548.71 310.77 585.07 C 310.72 588.54 310.39 592.26 308.23 595.14 C 306.43 597.70 303.45 599.00 300.59 600.00 L 243.38 600.00 C 240.61 598.88 237.73 597.55 235.93 595.06 C 233.75 592.20 233.44 588.46 233.37 584.99 C 233.45 559.66 233.45 534.33 233.37 509.00 C 233.43 505.33 233.81 501.25 236.48 498.46 C 239.62 495.28 243.97 493.84 247.86 491.84 C 261.68 484.92 274.77 476.50 286.71 466.67 Z" />
</g>
<g id="#ffffffff">
<path fill="#ffffff" opacity="1.00" d=" M 5.14 127.18 C 9.07 124.11 14.37 125.11 19.00 124.95 C 67.02 125.09 115.04 124.93 163.06 125.02 C 205.43 127.53 246.66 146.29 276.26 176.75 C 289.51 189.62 300.07 205.03 308.56 221.38 C 321.89 248.11 328.17 278.23 326.98 308.06 C 325.60 336.47 317.81 364.76 303.20 389.25 C 295.71 402.25 286.52 414.30 275.76 424.75 C 248.35 452.74 211.09 470.71 172.20 475.19 C 163.85 476.42 155.40 475.93 147.00 476.00 C 104.33 476.04 61.67 475.93 19.00 476.05 C 14.37 475.89 9.07 476.89 5.14 473.82 C 2.07 471.69 0.77 468.00 0.00 464.52 L 0.00 136.48 C 0.78 132.99 2.07 129.31 5.14 127.18 M 88.32 202.24 C 83.02 202.20 77.82 206.44 78.00 211.97 C 78.00 270.99 78.00 330.01 78.00 389.03 C 77.87 392.68 80.27 395.99 83.40 397.67 C 86.41 398.92 89.74 399.05 92.96 399.04 C 109.64 398.96 126.33 399.00 143.01 399.02 C 149.03 399.06 155.01 398.23 161.02 398.00 C 177.20 396.47 193.00 390.72 206.29 381.34 C 214.03 376.25 220.58 369.60 226.75 362.74 C 240.44 346.03 248.89 324.72 249.04 303.02 C 250.05 277.10 239.75 250.91 221.43 232.57 C 207.67 218.07 189.32 207.86 169.62 204.24 C 162.20 202.63 154.56 202.75 147.03 202.06 C 131.36 201.90 115.68 202.07 100.00 201.99 C 96.11 202.02 92.20 201.80 88.32 202.24 Z" />
</g>
</svg>
