<?xml version="1.0" encoding="utf-8"?>
<!-- Generator: Adobe Illustrator 23.0.2, SVG Export Plug-In . SVG Version: 6.00 Build 0)  -->
<svg version="1.1" id="Layer_1" xmlns="http://www.w3.org/2000/svg" xmlns:xlink="http://www.w3.org/1999/xlink" x="0px" y="0px"
	 width="64px" height="64px" viewBox="0 0 64 64" style="enable-background:new 0 0 64 64;" xml:space="preserve">
<g>
	<g>
		<path style="fill:#F7E004;" d="M35.546,42.293c-5.373,0-10.745,0.011-16.118-0.006c-2.11-0.007-4.22-0.073-6.33-0.118
			c-0.426-0.009-0.852-0.04-1.277-0.066c-0.397-0.024-0.768-0.124-1.124-0.32c-2.146-1.18-4.325-2.305-6.44-3.538
			c-1.071-0.625-1.737-1.608-1.734-2.933c0.005-2.335,0.005-4.669,0-7.004c-0.003-1.378,0.608-2.387,1.805-3.047
			c1.922-1.059,3.849-2.106,5.769-3.169c0.478-0.265,0.968-0.391,1.522-0.391c15.788,0.009,31.576,0.007,47.363,0.007
			c2.461,0,4.682,1.987,4.966,4.434C63.984,26.463,64,26.781,64,27.1c-0.001,3.305,0.002,6.609-0.001,9.914
			c-0.002,2.504-1.681,4.585-4.124,5.129c-0.398,0.089-0.8,0.109-1.206,0.11c-5.021,0.003-10.042,0.009-15.063,0.013
			c-2.686,0.002-5.373,0-8.059,0C35.546,42.275,35.546,42.284,35.546,42.293z M40.14,41.806c0.317,0.005,0.635,0.016,0.952,0.015
			c1.282-0.005,2.564-0.013,3.846-0.02c0.339,0.005,0.678,0.016,1.017,0.015c1.644-0.004,3.288-0.012,4.932-0.018
			c1.401,0.005,2.802,0.013,4.203,0.014c0.881,0.001,1.761-0.009,2.642-0.014c0.575,0.035,1.159,0.074,1.722-0.013
			c2.748-0.425,4.123-2.688,4.107-4.746c-0.025-3.228-0.008-6.456-0.005-9.684c0-0.384-0.006-0.769-0.07-1.147
			c-0.286-1.69-1.202-2.919-2.771-3.605c-0.901-0.394-1.876-0.454-2.855-0.379c-0.721-0.005-1.443-0.015-2.164-0.014
			c-1.603,0.002-3.205,0.009-4.808,0.014c-0.116-0.005-0.233-0.015-0.349-0.015c-1.891-0.001-3.782-0.002-5.673,0.001
			c-0.722,0.001-1.444,0.009-2.166,0.014c-0.551-0.005-1.103-0.015-1.654-0.014c-1.624,0.002-3.247,0.009-4.871,0.014
			c-1.663,0-3.326,0-4.99,0c-0.116-0.005-0.233-0.014-0.349-0.014c-2.104-0.001-4.208-0.002-6.312,0
			c-0.658,0.001-1.317,0.009-1.975,0.014c-0.127-0.005-0.255-0.014-0.382-0.014c-3.43-0.001-6.86,0.015-10.29-0.012
			c-0.731-0.006-1.354,0.196-1.937,0.598c-0.417,0.223-0.835,0.446-1.252,0.668c-0.137,0.076-0.274,0.152-0.412,0.227
			c-1.266,0.694-2.54,1.374-3.797,2.085c-0.981,0.555-1.471,1.414-1.458,2.552c0.007,0.682,0.003,1.364,0.003,2.046
			c0,1.673,0.001,3.346-0.003,5.019c-0.001,0.562,0.101,1.08,0.534,1.484c0.037,0.034,0.06,0.087,0.08,0.135
			c0.172,0.401,0.475,0.674,0.85,0.878c2.195,1.195,4.39,2.39,6.585,3.584c0.121,0.066,0.241,0.128,0.385,0.142
			c0.774,0.074,1.55,0.124,2.328,0.112c1.066,0.053,2.132,0.085,3.199,0.064c3.061,0.079,6.123,0.051,9.184,0.049
			c0.031,0,0.062-0.013,0.093-0.019c1.367,0.006,2.734,0.014,4.1,0.017c0.359,0.001,0.719-0.015,1.078-0.023
			c1.049,0.007,2.098,0.021,3.147,0.019c0.55-0.001,1.101,0.034,1.651-0.022C37.538,41.851,38.839,41.83,40.14,41.806z"/>
		<path style="fill:#19141F;" d="M0.927,32.704c-0.213,0-0.426-0.007-0.638,0.002c-0.168,0.007-0.274-0.001-0.271-0.227
			c0.003-0.205,0.067-0.265,0.256-0.239c0.073,0.01,0.15-0.006,0.223,0.003c0.171,0.021,0.262-0.03,0.235-0.221
			c-0.01-0.073-0.012-0.151,0-0.223c0.043-0.247-0.064-0.304-0.297-0.298c-0.13,0.004-0.333,0.125-0.403-0.097
			c-0.083-0.263-0.001-0.352,0.286-0.352c0.457-0.001,0.915,0.011,1.372-0.005c0.214-0.008,0.203,0.103,0.211,0.253
			c0.008,0.167-0.042,0.237-0.212,0.212c-0.062-0.009-0.129,0.008-0.191-0.003c-0.297-0.052-0.376,0.05-0.393,0.365
			c-0.022,0.404,0.181,0.388,0.451,0.369c0.189-0.014,0.394-0.054,0.349,0.272c-0.021,0.155-0.065,0.197-0.211,0.191
			C1.438,32.698,1.183,32.704,0.927,32.704z"/>
		<path style="fill:#19141F;" d="M0.909,29.367C0.655,29.338,0.18,29.5,0.083,29.309c-0.151-0.297-0.049-0.723-0.056-1.094
			C0.026,28.139,0.053,28.1,0.137,28.1c0.15-0.001,0.307-0.029,0.276,0.214c-0.018,0.136-0.002,0.276-0.003,0.414
			c-0.001,0.111-0.007,0.205,0.16,0.201c0.145-0.003,0.183-0.059,0.176-0.188c-0.007-0.127,0.004-0.255-0.003-0.383
			c-0.007-0.134,0.011-0.215,0.181-0.22c0.188-0.006,0.209,0.083,0.198,0.231c-0.008,0.116,0.004,0.234-0.003,0.351
			c-0.008,0.134,0.007,0.212,0.181,0.211c0.175-0.001,0.216-0.066,0.205-0.222C1.495,28.56,1.512,28.41,1.5,28.262
			C1.488,28.1,1.538,28.04,1.712,28.04c0.168,0,0.19,0.073,0.187,0.211c-0.007,0.297-0.013,0.596,0.002,0.893
			c0.01,0.192-0.068,0.235-0.24,0.226C1.427,29.358,1.193,29.367,0.909,29.367z"/>
		<path style="fill:#19141F;" d="M0.027,34.913c0-0.18,0.007-0.361-0.002-0.541c-0.007-0.149,0.014-0.236,0.2-0.23
			c0.163,0.005,0.212,0.074,0.185,0.213c-0.061,0.305,0.093,0.35,0.351,0.333c0.296-0.02,0.594,0,0.891-0.007
			c0.153-0.004,0.261-0.004,0.251,0.208c-0.008,0.177-0.025,0.271-0.239,0.258c-0.328-0.02-0.658,0.004-0.987-0.009
			c-0.192-0.008-0.3,0.025-0.268,0.252c0.02,0.143,0.042,0.289-0.206,0.282c-0.247-0.007-0.166-0.164-0.173-0.281
			C0.021,35.231,0.027,35.072,0.027,34.913z"/>
		<path style="fill:#19141F;" d="M9.94,22.795c0.583-0.402,1.205-0.604,1.937-0.598c3.43,0.026,6.86,0.011,10.29,0.012
			c0.127,0,0.255,0.009,0.382,0.014c0.098,0.398,0.055,0.804,0.064,1.206c-2.115-0.234-4.234-0.076-6.355-0.098
			c1.176,0.667,2.351,1.307,3.539,1.925c0.674,0.35,1.213,0.821,1.545,1.511c0.054,0.113,0.114,0.183,0.256,0.193
			c0.508,0.034,0.994,0.186,1.466,0.359c1.24,0.454,2.113,1.294,2.55,2.551c0.342,0.984,0.396,2.001,0.258,3.027
			c-0.228,1.703-1.076,2.957-2.694,3.628c-0.54,0.224-1.104,0.365-1.688,0.433c-0.121,0.014-0.284-0.032-0.356,0.144
			c-0.219,0.536-0.656,0.841-1.146,1.103c-1.472,0.786-2.938,1.585-4.406,2.378c-0.154-0.072-0.203-0.196-0.2-0.362
			c0.007-0.371,0.002-0.742,0.002-1.112c1.313-0.721,2.627-1.442,3.94-2.163c0.194-0.106,0.452-0.189,0.464-0.438
			c0.013-0.269-0.269-0.333-0.457-0.434c-2.069-1.114-4.142-2.22-6.215-3.328c-0.589-0.315-1.174-0.321-1.765,0.003
			c-0.391,0.214-0.792,0.409-1.189,0.613c-0.128-0.008-0.16-0.089-0.151-0.2c0.352-0.195,0.706-0.387,1.056-0.586
			c0.624-0.355,0.974-0.904,0.981-1.611c0.023-2.319,0.022-4.638,0.018-6.956c-0.001-0.57-0.458-0.829-0.97-0.569
			c-0.341,0.173-0.674,0.361-1.01,0.542c-0.102-0.271-0.068-0.555-0.077-0.835C10.004,23.029,10.056,22.894,9.94,22.795z
			 M20.246,31.916c0-1.193,0.006-2.386-0.002-3.58c-0.005-0.828-0.357-1.452-1.123-1.816c-0.163-0.078-0.321-0.165-0.48-0.25
			c-1.75-0.939-3.498-1.881-5.251-2.814c-0.636-0.338-1.078-0.071-1.083,0.637c-0.016,2.248-0.03,4.496-0.004,6.744
			c0.01,0.83,0.365,1.415,1.092,1.802c2.017,1.074,4.029,2.157,6.044,3.235c0.094,0.05,0.187,0.104,0.287,0.139
			c0.288,0.101,0.454,0.006,0.505-0.294c0.02-0.114,0.015-0.234,0.015-0.351C20.247,34.217,20.246,33.067,20.246,31.916z
			 M21.414,31.943c0,0.617,0,1.234,0,1.851c0,0.36,0.027,0.381,0.378,0.3c0.829-0.191,1.403-0.857,1.563-1.813
			c0.188-1.126-0.546-2.246-1.611-2.477c-0.238-0.052-0.347-0.036-0.337,0.256C21.429,30.687,21.414,31.316,21.414,31.943z"/>
		<path style="fill:#0F0834;" d="M50.888,41.798c-1.644,0.006-3.288,0.014-4.932,0.018c-0.339,0.001-0.678-0.01-1.017-0.015
			c0.264-0.246,0.29-0.562,0.255-0.892c-0.013-0.126-0.041-0.25-0.062-0.375c0.218-0.048,0.437-0.092,0.653-0.146
			c1.503-0.375,2.804-1.099,3.862-2.241c0.08-0.086,0.25-0.16,0.069-0.327c-0.843-0.782-1.68-1.57-2.517-2.359
			c-0.083-0.078-0.148-0.117-0.223,0.002c-0.133,0.211-0.353,0.332-0.527,0.501c-0.39,0.378-0.843,0.659-1.378,0.79
			c0.09-0.537,0.06-1.079,0.06-1.62c0.004-2.65,0.005-5.3,0.008-7.95c0.698,0.165,1.215,0.618,1.698,1.107
			c0.151,0.153,0.203,0.1,0.313-0.011c0.781-0.786,1.563-1.572,2.355-2.348c0.143-0.14,0.131-0.218,0.001-0.353
			c-0.571-0.59-1.24-1.036-1.981-1.379c-1.45-0.671-2.982-0.91-4.568-0.863c0.064-0.406,0.141-0.815-0.255-1.115
			c0.722-0.005,1.444-0.013,2.166-0.014c1.891-0.002,3.782-0.001,5.673-0.001c0.116,0,0.233,0.01,0.349,0.015
			c0.008,0.07,0.048,0.099,0.114,0.128c0.165,0.073,0.422-0.022,0.497,0.184c0.061,0.167,0.024,0.371,0.028,0.559
			c0.002,0.073,0,0.146,0,0.22c-0.287,0.006-0.576,0.035-0.86,0.011c-0.297-0.025-0.364,0.076-0.364,0.366
			c0.009,5.538,0.007,11.076,0.007,16.614c0,0.053,0.006,0.107-0.001,0.16c-0.02,0.155,0.046,0.201,0.198,0.198
			c0.297-0.006,0.595,0.007,0.893,0.012c0.055,0.215,0.068,0.434,0.066,0.656c-0.001,0.18-0.06,0.268-0.253,0.283
			C51.089,41.623,50.928,41.618,50.888,41.798z"/>
		<path style="fill:#09023E;" d="M57.86,22.224c0.979-0.075,1.954-0.015,2.855,0.379c1.569,0.686,2.486,1.915,2.771,3.605
			c0.064,0.378,0.07,0.763,0.07,1.147c-0.002,3.228-0.02,6.456,0.005,9.684c0.016,2.058-1.359,4.321-4.107,4.746
			c-0.563,0.087-1.148,0.048-1.722,0.013c0.206-0.235,0.314-0.501,0.249-0.819c-0.021-0.101-0.038-0.203-0.057-0.304
			c0.308-0.005,0.616-0.011,0.923-0.016c1.856-0.026,3.348-1.39,3.547-3.23c0.029-0.273-0.027-0.361-0.325-0.358
			c-1.36,0.013-2.72-0.002-4.081-0.008c0.011-0.15,0.105-0.194,0.24-0.192c0.106,0.002,0.212,0,0.318,0c0.53,0,0.53,0,0.53-0.542
			c0-0.944,0-1.889,0-2.833c0.735-0.004,1.47-0.017,2.205-0.006c0.228,0.003,0.283-0.065,0.28-0.286
			c-0.012-0.916-0.014-1.833,0-2.749c0.004-0.246-0.055-0.324-0.314-0.322c-1.107,0.01-2.215-0.004-3.323-0.009
			c0-0.755-0.005-1.509,0.001-2.264c0.003-0.337,0.028-0.673-0.194-0.963c0.117-0.004,0.234-0.012,0.35-0.012
			c1.353-0.001,2.706-0.003,4.058,0.002c0.169,0.001,0.269-0.004,0.262-0.231c-0.041-1.479-1.313-2.945-2.768-3.228
			c-0.529-0.103-1.057-0.067-1.584-0.115C58.049,22.94,58.116,22.554,57.86,22.224z"/>
		<path style="fill:#150F25;" d="M22.613,23.43c-0.009-0.403,0.034-0.808-0.064-1.206c0.658-0.005,1.317-0.013,1.975-0.014
			c2.104-0.002,4.208-0.001,6.312,0c0.116,0,0.233,0.009,0.349,0.014c0.1,0.162,0.323,0.244,0.264,0.51
			c-0.047,0.213,0.019,0.398,0.306,0.398c0.087,0,0.186,0.052,0.198,0.171c-0.33,0.004-0.662,0.033-0.989,0.005
			c-0.308-0.027-0.358,0.093-0.358,0.371c0.008,5.42,0.005,10.84,0.008,16.26c0,0.24-0.104,0.539,0.053,0.706
			c0.135,0.143,0.426,0.025,0.646,0.048c0.021,0.002,0.041,0.009,0.062,0.014c0.115,0.364,0.046,0.738,0.063,1.107
			c-0.359,0.008-0.719,0.024-1.078,0.023c-1.367-0.003-2.734-0.011-4.1-0.017c-0.001-0.616,0-1.232-0.003-1.848
			c-0.001-0.231,0.08-0.502-0.254-0.592c0.072-0.046,0.142-0.093,0.215-0.136c1.79-1.061,3.011-2.574,3.603-4.574
			c0.414-1.4,0.466-2.83,0.28-4.271c-0.353-2.744-1.708-4.786-4.227-6.009C24.84,23.887,23.737,23.621,22.613,23.43z"/>
		<path style="fill:#130D29;" d="M31.952,23.303c-0.011-0.12-0.111-0.171-0.198-0.171c-0.287-0.001-0.354-0.185-0.306-0.398
			c0.059-0.266-0.164-0.348-0.264-0.51c1.663,0,3.326,0,4.99,0c0.327,0.188,0.255,0.506,0.255,0.797
			c0.002,0.985-0.001,1.971,0.003,2.956c0,0.12-0.05,0.26,0.087,0.349c-0.009,0.019-0.016,0.04-0.029,0.057
			c-1.764,2.202-2.208,4.713-1.738,7.436c0.246,1.426,0.866,2.684,1.751,3.818c-0.197,0.035-0.134,0.192-0.134,0.306
			c-0.004,1.012-0.002,2.024-0.003,3.036c0,0.283,0.036,0.573-0.129,0.83c-0.55,0.056-1.101,0.021-1.651,0.022
			c-1.049,0.002-2.098-0.011-3.147-0.019c-0.017-0.369,0.052-0.743-0.063-1.107c0.681-0.006,1.363-0.027,2.044-0.009
			c0.294,0.008,0.371-0.074,0.37-0.369c-0.009-4.891-0.007-9.783-0.007-14.674c0-0.693-0.007-1.385,0.004-2.078
			c0.004-0.211-0.061-0.271-0.271-0.266C32.996,23.321,32.474,23.307,31.952,23.303z"/>
		<path style="fill:#201B12;" d="M13.784,41.727c-0.778,0.012-1.554-0.038-2.328-0.112c-0.145-0.014-0.264-0.076-0.385-0.142
			c-2.195-1.194-4.39-2.389-6.585-3.584c-0.375-0.204-0.678-0.477-0.85-0.878c-0.021-0.048-0.043-0.101-0.08-0.135
			c-0.433-0.404-0.536-0.923-0.534-1.484c0.004-1.673,0.003-3.346,0.003-5.019c0-0.682,0.005-1.364-0.003-2.046
			c-0.012-1.138,0.477-1.996,1.458-2.552c1.256-0.711,2.53-1.391,3.797-2.085c0.137-0.075,0.275-0.151,0.412-0.227
			c0.189,0.1,0.262,0.256,0.236,0.467c-0.028,0.22,0.025,0.435,0.062,0.649c-1.283,0.71-2.564,1.425-3.851,2.129
			c-0.663,0.362-0.984,0.912-0.985,1.661c-0.005,2.333-0.013,4.665-0.018,6.998c0,0.116,0.003,0.235,0.027,0.349
			c0.066,0.319,0.225,0.41,0.532,0.293c0.178-0.068,0.345-0.165,0.513-0.256c1.259-0.678,2.518-1.358,3.777-2.038
			c0.002,0.093,0.004,0.185,0.007,0.278c-1.282,0.694-2.565,1.385-3.845,2.083c-0.181,0.099-0.435,0.168-0.445,0.413
			c-0.01,0.267,0.251,0.344,0.443,0.448c2.047,1.112,4.096,2.219,6.143,3.332c0.629,0.342,1.252,0.36,1.884,0.016
			c0.223-0.122,0.453-0.231,0.68-0.346C13.816,40.535,13.92,41.135,13.784,41.727z"/>
		<path style="fill:#120B2C;" d="M36.519,26.326c-0.137-0.089-0.086-0.229-0.087-0.349c-0.004-0.985-0.001-1.971-0.003-2.956
			c0-0.292,0.071-0.609-0.255-0.797c1.624-0.005,3.247-0.012,4.871-0.014c0.551-0.001,1.103,0.009,1.654,0.014
			c0.396,0.301,0.319,0.709,0.255,1.115c-0.041,0.008-0.082,0.022-0.124,0.024C40.338,23.522,38.204,24.445,36.519,26.326z"/>
		<path style="fill:#19141F;" d="M26.003,39.38c0.334,0.09,0.253,0.361,0.254,0.592c0.003,0.616,0.002,1.232,0.003,1.848
			c-0.031,0.007-0.062,0.019-0.093,0.019c-3.062,0.002-6.123,0.03-9.184-0.049c0.041-0.176,0.184-0.185,0.321-0.183
			c0.193,0.002,0.26-0.092,0.255-0.273c-0.006-0.22-0.001-0.441,0-0.661c0.852-0.005,1.705-0.031,2.556-0.01
			C22.185,40.716,24.159,40.35,26.003,39.38z"/>
		<path style="fill:#120B2C;" d="M36.237,41.809c0.165-0.258,0.129-0.547,0.129-0.83c0.001-1.012-0.001-2.024,0.003-3.036
			c0-0.114-0.062-0.271,0.134-0.306c1.003,1.178,2.256,1.988,3.702,2.515c0.079,0.555,0.136,1.109-0.064,1.654
			C38.839,41.83,37.538,41.851,36.237,41.809z"/>
		<path style="fill:#0B033B;" d="M57.924,40.675c0.019,0.101,0.036,0.203,0.057,0.304c0.065,0.318-0.043,0.584-0.249,0.819
			c-0.881,0.005-1.761,0.015-2.642,0.014c-1.401-0.001-2.802-0.009-4.203-0.014c0.04-0.18,0.202-0.175,0.325-0.185
			c0.193-0.015,0.252-0.103,0.253-0.283c0.001-0.222-0.011-0.44-0.066-0.656c1.072-0.005,2.143-0.014,3.215-0.014
			C55.718,40.661,56.821,40.67,57.924,40.675z"/>
		<path style="fill:#0B033B;" d="M57.86,22.224c0.255,0.33,0.188,0.716,0.192,1.09c-0.912,0.006-1.825,0.016-2.737,0.016
			c-1.263-0.001-2.525-0.01-3.788-0.016c0-0.073,0.002-0.146,0-0.22c-0.005-0.188,0.033-0.391-0.028-0.559
			c-0.076-0.206-0.332-0.111-0.497-0.184c-0.066-0.029-0.106-0.058-0.114-0.128c1.603-0.005,3.205-0.012,4.808-0.014
			C56.417,22.209,57.139,22.219,57.86,22.224z"/>
		<path style="fill:#10092F;" d="M40.14,41.806c0.201-0.544,0.143-1.098,0.064-1.654c1.611,0.53,3.255,0.628,4.926,0.382
			c0.021,0.125,0.049,0.249,0.062,0.375c0.035,0.33,0.009,0.646-0.255,0.892c-1.282,0.007-2.564,0.015-3.846,0.02
			C40.775,41.822,40.458,41.811,40.14,41.806z"/>
		<path style="fill:#231D1A;" d="M17.559,40.673c0,0.22-0.005,0.441,0,0.661c0.005,0.181-0.062,0.275-0.255,0.273
			c-0.137-0.002-0.28,0.007-0.321,0.183c-1.067,0.022-2.133-0.011-3.199-0.064c0.136-0.592,0.032-1.192,0.063-1.787
			c0.497-0.303,1.01-0.579,1.536-0.83c0,0.371,0.005,0.742-0.002,1.112c-0.003,0.166,0.045,0.289,0.2,0.362
			c0.064,0.132,0.184,0.069,0.277,0.07C16.425,40.666,16.992,40.668,17.559,40.673z"/>
		<path style="fill:#231D1A;" d="M8.986,24.581c-0.037-0.215-0.09-0.429-0.062-0.649c0.026-0.211-0.046-0.367-0.236-0.467
			c0.417-0.223,0.835-0.446,1.252-0.669c0.116,0.099,0.064,0.233,0.068,0.353c0.01,0.28-0.024,0.563,0.077,0.835
			C9.719,24.182,9.352,24.381,8.986,24.581z"/>
		<path style="fill:#FDE400;" d="M17.559,40.673c-0.567-0.005-1.135-0.008-1.702-0.019c-0.093-0.002-0.213,0.062-0.277-0.07
			c1.468-0.794,2.934-1.592,4.406-2.378c0.49-0.262,0.928-0.567,1.146-1.103c0.072-0.176,0.235-0.13,0.356-0.144
			c0.584-0.067,1.148-0.209,1.688-0.433c1.618-0.671,2.466-1.925,2.694-3.628c0.138-1.026,0.084-2.042-0.258-3.027
			c-0.437-1.258-1.309-2.098-2.55-2.551c-0.473-0.173-0.958-0.325-1.466-0.359c-0.142-0.01-0.202-0.08-0.256-0.193
			c-0.331-0.69-0.871-1.161-1.545-1.511c-1.187-0.618-2.362-1.258-3.539-1.925c2.121,0.022,4.24-0.135,6.355,0.098
			c1.125,0.192,2.227,0.458,3.261,0.96c2.519,1.224,3.874,3.265,4.227,6.009c0.185,1.441,0.133,2.871-0.28,4.271
			c-0.591,2-1.812,3.514-3.603,4.574c-0.073,0.043-0.143,0.091-0.215,0.136c-1.845,0.97-3.818,1.336-5.888,1.283
			C19.264,40.642,18.411,40.669,17.559,40.673z"/>
		<path style="fill:#868686;" d="M15.383,39.11c-0.526,0.251-1.038,0.526-1.536,0.83c-0.227,0.115-0.457,0.224-0.68,0.346
			c-0.632,0.344-1.256,0.326-1.884-0.016c-2.046-1.113-4.096-2.22-6.143-3.332c-0.192-0.104-0.453-0.181-0.443-0.448
			c0.01-0.244,0.263-0.314,0.445-0.413c1.28-0.698,2.563-1.389,3.845-2.083c0.407-0.181,0.8-0.39,1.175-0.631
			c0.397-0.204,0.798-0.398,1.189-0.613c0.591-0.325,1.176-0.318,1.765-0.003c2.072,1.108,4.145,2.214,6.215,3.328
			c0.187,0.101,0.47,0.165,0.457,0.434c-0.012,0.249-0.27,0.332-0.464,0.438C18.01,37.669,16.697,38.389,15.383,39.11z
			 M8.592,37.324c0.26,0.015,0.517-0.037,0.75-0.181c0.346-0.214,0.363-0.558,0.042-0.802c-0.411-0.313-1.218-0.299-1.617,0.028
			c-0.265,0.216-0.266,0.511,0.005,0.726C8.008,37.283,8.287,37.334,8.592,37.324z M15.877,37.324
			c0.329,0.009,0.632-0.037,0.878-0.257c0.233-0.208,0.229-0.448,0.001-0.661c-0.391-0.364-1.257-0.388-1.669-0.046
			c-0.289,0.24-0.275,0.562,0.041,0.768C15.358,37.278,15.615,37.338,15.877,37.324z"/>
		<path style="fill:#CACACA;" d="M8.986,24.581c0.366-0.199,0.733-0.399,1.099-0.598c0.337-0.181,0.67-0.369,1.01-0.542
			c0.512-0.26,0.969-0.001,0.97,0.569c0.004,2.319,0.005,4.638-0.018,6.956c-0.007,0.708-0.357,1.256-0.981,1.611
			c-0.35,0.199-0.704,0.391-1.056,0.586c-0.358,0.158-0.699,0.346-1.031,0.553c-1.259,0.679-2.517,1.359-3.777,2.038
			c-0.168,0.091-0.335,0.188-0.513,0.256c-0.308,0.117-0.466,0.026-0.532-0.293c-0.023-0.113-0.027-0.232-0.027-0.349
			c0.005-2.333,0.013-4.665,0.018-6.998c0.002-0.75,0.322-1.299,0.985-1.661C6.422,26.006,7.703,25.291,8.986,24.581z M9.739,31.85
			c0.534-0.003,1.072-0.399,1.233-0.906c0.124-0.391-0.081-0.682-0.489-0.697c-0.498-0.018-1.113,0.435-1.257,0.924
			C9.112,31.559,9.335,31.852,9.739,31.85z M6.263,32.696c-0.545-0.005-1.088,0.415-1.221,0.943
			c-0.104,0.416,0.126,0.71,0.555,0.661c0.545-0.062,0.952-0.355,1.168-0.864C6.951,32.996,6.738,32.701,6.263,32.696z M6.172,27.57
			c-0.445,0.006-1.006,0.44-1.149,0.889c-0.149,0.467,0.168,0.822,0.649,0.712c0.462-0.106,0.8-0.387,1.015-0.807
			C6.902,27.943,6.653,27.563,6.172,27.57z M10.983,25.791c-0.002-0.204-0.266-0.426-0.534-0.449
			c-0.466-0.04-1.096,0.414-1.208,0.87c-0.09,0.369,0.167,0.722,0.539,0.74C10.306,26.977,10.988,26.319,10.983,25.791z"/>
		<path style="fill:#E6E6E6;" d="M20.246,31.916c0,1.151,0,2.301-0.001,3.452c0,0.117,0.005,0.236-0.015,0.351
			c-0.051,0.3-0.218,0.395-0.505,0.294c-0.099-0.035-0.193-0.089-0.287-0.139c-2.015-1.079-4.027-2.161-6.044-3.235
			c-0.727-0.387-1.083-0.972-1.092-1.802c-0.026-2.248-0.012-4.496,0.004-6.744c0.005-0.708,0.447-0.975,1.083-0.637
			c1.753,0.933,3.501,1.876,5.251,2.814c0.159,0.085,0.317,0.173,0.48,0.25c0.766,0.364,1.118,0.988,1.123,1.816
			C20.252,29.53,20.246,30.723,20.246,31.916z M13.993,25.351c-0.488-0.006-0.721,0.327-0.541,0.779
			c0.215,0.54,0.645,0.797,1.197,0.867c0.325,0.041,0.546-0.178,0.549-0.51C15.205,25.935,14.593,25.358,13.993,25.351z
			 M15.201,28.861c0.006-0.577-0.717-1.199-1.317-1.131c-0.366,0.041-0.554,0.322-0.46,0.686c0.125,0.484,0.743,0.954,1.243,0.946
			C15.005,29.356,15.198,29.175,15.201,28.861z M18.837,34.318c0.47,0.008,0.697-0.287,0.555-0.719
			c-0.156-0.474-0.718-0.884-1.213-0.885c-0.467-0.001-0.684,0.298-0.536,0.736C17.796,33.902,18.356,34.31,18.837,34.318z
			 M13.968,30.249c-0.464,0.001-0.68,0.302-0.53,0.74c0.158,0.464,0.707,0.866,1.191,0.873c0.453,0.007,0.676-0.305,0.533-0.746
			C15.015,30.663,14.444,30.248,13.968,30.249z M18.198,27.575c-0.39,0-0.668,0.377-0.551,0.747c0.134,0.427,0.688,0.85,1.134,0.866
			c0.327,0.012,0.661-0.264,0.634-0.522C19.359,28.138,18.729,27.574,18.198,27.575z M18.771,31.766
			c0.425,0.009,0.711-0.254,0.632-0.583c-0.113-0.472-0.609-0.931-1.09-1.009c-0.446-0.073-0.785,0.327-0.644,0.759
			C17.814,31.381,18.31,31.756,18.771,31.766z"/>
		<path style="fill:#E6E6E6;" d="M21.414,31.943c0-0.628,0.015-1.256-0.007-1.883c-0.01-0.292,0.099-0.308,0.337-0.256
			c1.065,0.231,1.798,1.351,1.611,2.477c-0.159,0.956-0.734,1.623-1.563,1.813c-0.351,0.081-0.378,0.06-0.378-0.3
			C21.413,33.177,21.414,32.56,21.414,31.943z"/>
		<path style="fill:#231D1A;" d="M8.98,33.717c0.331-0.208,0.673-0.396,1.031-0.553c-0.009,0.111,0.023,0.192,0.151,0.2
			c-0.375,0.241-0.768,0.45-1.175,0.631C8.985,33.902,8.982,33.809,8.98,33.717z"/>
		<path style="fill:#FDE400;" d="M51.527,23.314c1.263,0.006,2.525,0.015,3.788,0.016c0.912,0.001,1.825-0.01,2.737-0.016
			c0.527,0.048,1.055,0.012,1.584,0.115c1.455,0.283,2.726,1.749,2.768,3.228c0.006,0.227-0.093,0.232-0.262,0.231
			c-1.353-0.004-2.706-0.003-4.058-0.002c-0.117,0-0.234,0.008-0.35,0.012c-1.063-0.004-2.126-0.006-3.188-0.015
			c-0.146-0.001-0.204,0.034-0.203,0.193c0.007,0.957,0.006,1.914,0,2.87c-0.001,0.157,0.057,0.198,0.204,0.196
			c1.126-0.01,2.253-0.013,3.379-0.018c1.108,0.005,2.215,0.019,3.323,0.009c0.259-0.002,0.317,0.076,0.314,0.322
			c-0.014,0.916-0.013,1.833,0,2.749c0.003,0.221-0.053,0.29-0.28,0.286c-0.735-0.011-1.47,0.002-2.205,0.006
			c-1.557,0.001-3.115,0.001-4.672,0.002c-0.042-0.012-0.057,0.003-0.046,0.045c-0.001,1.153-0.002,2.305-0.002,3.458
			c-0.007,0.04-0.001,0.068,0.05,0.06c1.194,0.031,2.388,0.027,3.583,0.003c1.36,0.005,2.721,0.021,4.081,0.008
			c0.298-0.003,0.355,0.085,0.325,0.358c-0.198,1.839-1.691,3.204-3.547,3.23c-0.308,0.004-0.616,0.01-0.923,0.016
			c-1.103-0.005-2.207-0.014-3.31-0.014c-1.072,0-2.143,0.009-3.215,0.014c-0.298-0.005-0.596-0.018-0.893-0.012
			c-0.152,0.003-0.218-0.043-0.198-0.198c0.007-0.052,0.001-0.106,0.001-0.16c0-5.538,0.002-11.076-0.007-16.614
			c0-0.289,0.067-0.391,0.364-0.366C50.951,23.35,51.24,23.32,51.527,23.314z"/>
		<path style="fill:#FDE400;" d="M45.13,40.534c-1.671,0.246-3.315,0.148-4.926-0.382c-1.445-0.527-2.698-1.338-3.702-2.515
			c-0.885-1.135-1.504-2.393-1.751-3.818c-0.471-2.723-0.026-5.234,1.738-7.436c0.013-0.016,0.019-0.038,0.029-0.057
			c1.685-1.881,3.819-2.804,6.312-2.963c0.042-0.003,0.083-0.016,0.124-0.024c1.586-0.047,3.118,0.192,4.568,0.863
			c0.741,0.343,1.41,0.788,1.981,1.379c0.13,0.135,0.142,0.212-0.001,0.353c-0.792,0.776-1.573,1.562-2.355,2.348
			c-0.11,0.111-0.162,0.164-0.313,0.011c-0.483-0.489-1-0.942-1.698-1.107c-1.719-0.629-3.81-0.08-5.005,1.314
			c-1.552,1.811-1.628,4.903-0.178,6.8c1.341,1.754,3.669,2.005,5.114,1.456c0.536-0.13,0.988-0.411,1.378-0.79
			c0.174-0.169,0.394-0.29,0.527-0.501c0.075-0.119,0.14-0.08,0.223-0.002c0.837,0.789,1.674,1.578,2.517,2.359
			c0.181,0.167,0.011,0.241-0.069,0.327c-1.057,1.142-2.359,1.866-3.862,2.241C45.567,40.442,45.348,40.486,45.13,40.534z"/>
		<path style="fill:#10092F;" d="M45.069,36.754c-1.445,0.549-3.773,0.298-5.114-1.456c-1.45-1.897-1.375-4.989,0.178-6.8
			c1.195-1.394,3.286-1.943,5.005-1.314c-0.002,2.65-0.004,5.3-0.008,7.95C45.129,35.675,45.159,36.217,45.069,36.754z"/>
		<path style="fill:#0B033B;" d="M54.356,37.001c0.001-1.153,0.002-2.305,0.002-3.458c0.015-0.015,0.031-0.03,0.046-0.045
			c1.557-0.001,3.115-0.001,4.672-0.002c0,0.944,0,1.889,0,2.833c0,0.542,0,0.542-0.53,0.542c-0.106,0-0.212,0.002-0.318,0
			c-0.134-0.002-0.228,0.042-0.24,0.192c-1.194,0.025-2.389,0.029-3.583-0.003C54.389,37.041,54.373,37.021,54.356,37.001z"/>
		<path style="fill:#0B033B;" d="M57.925,30.125c-1.126,0.005-2.253,0.008-3.379,0.018c-0.148,0.001-0.205-0.039-0.204-0.196
			c0.006-0.957,0.006-1.914,0-2.87c-0.001-0.16,0.057-0.195,0.203-0.193c1.063,0.009,2.125,0.011,3.188,0.015
			c0.222,0.289,0.197,0.626,0.194,0.963C57.92,28.615,57.925,29.37,57.925,30.125z"/>
		<path style="fill:#FDE400;" d="M31.952,23.303c0.522,0.004,1.044,0.019,1.565,0.007c0.21-0.005,0.274,0.055,0.271,0.266
			c-0.012,0.692-0.004,1.385-0.004,2.078c0,4.891-0.003,9.783,0.007,14.674c0.001,0.295-0.077,0.377-0.37,0.369
			c-0.681-0.017-1.363,0.004-2.044,0.009c-0.021-0.005-0.041-0.012-0.062-0.014c-0.221-0.023-0.512,0.095-0.646-0.048
			c-0.157-0.167-0.053-0.465-0.053-0.706c-0.003-5.42-0.001-10.84-0.008-16.26c0-0.278,0.05-0.397,0.358-0.371
			C31.291,23.336,31.622,23.307,31.952,23.303z"/>
		<path style="fill:#201B12;" d="M8.592,37.324c-0.305,0.01-0.585-0.041-0.82-0.228c-0.271-0.216-0.269-0.51-0.005-0.726
			c0.4-0.327,1.206-0.341,1.617-0.028c0.321,0.244,0.304,0.588-0.042,0.802C9.11,37.287,8.852,37.338,8.592,37.324z"/>
		<path style="fill:#19141F;" d="M15.877,37.324c-0.262,0.013-0.519-0.046-0.749-0.196c-0.316-0.206-0.33-0.527-0.041-0.768
			c0.412-0.342,1.278-0.318,1.669,0.046c0.228,0.213,0.232,0.453-0.001,0.661C16.509,37.287,16.206,37.333,15.877,37.324z"/>
		<path style="fill:#231D1A;" d="M9.739,31.85c-0.405,0.002-0.627-0.291-0.513-0.678c0.144-0.49,0.759-0.942,1.257-0.924
			c0.408,0.015,0.613,0.306,0.489,0.697C10.812,31.451,10.273,31.846,9.739,31.85z"/>
		<path style="fill:#201B12;" d="M6.263,32.696c0.475,0.004,0.688,0.3,0.502,0.739c-0.216,0.509-0.623,0.802-1.168,0.864
			c-0.429,0.049-0.659-0.245-0.555-0.661C5.175,33.111,5.718,32.691,6.263,32.696z"/>
		<path style="fill:#201B12;" d="M6.172,27.57c0.48-0.007,0.73,0.373,0.515,0.794c-0.215,0.42-0.553,0.7-1.015,0.807
			c-0.48,0.111-0.797-0.245-0.649-0.712C5.166,28.01,5.727,27.576,6.172,27.57z"/>
		<path style="fill:#231D1A;" d="M10.983,25.791c0.005,0.528-0.677,1.186-1.202,1.161c-0.373-0.018-0.63-0.371-0.539-0.74
			c0.112-0.455,0.742-0.909,1.208-0.87C10.718,25.364,10.982,25.586,10.983,25.791z"/>
		<path style="fill:#19141F;" d="M13.993,25.351c0.6,0.007,1.212,0.584,1.205,1.137c-0.004,0.332-0.224,0.551-0.549,0.51
			c-0.552-0.07-0.981-0.327-1.197-0.867C13.272,25.678,13.505,25.345,13.993,25.351z"/>
		<path style="fill:#231D1A;" d="M15.201,28.861c-0.003,0.314-0.196,0.495-0.534,0.5c-0.501,0.008-1.118-0.461-1.243-0.946
			c-0.094-0.364,0.094-0.645,0.46-0.686C14.483,27.662,15.207,28.284,15.201,28.861z"/>
		<path style="fill:#19141F;" d="M18.837,34.318c-0.481-0.008-1.041-0.415-1.194-0.868c-0.148-0.438,0.069-0.737,0.536-0.736
			c0.495,0.001,1.057,0.411,1.213,0.885C19.534,34.031,19.306,34.326,18.837,34.318z"/>
		<path style="fill:#19141F;" d="M13.968,30.249c0.476-0.001,1.046,0.413,1.194,0.868c0.143,0.44-0.08,0.752-0.533,0.746
			c-0.485-0.007-1.033-0.409-1.191-0.873C13.289,30.551,13.504,30.251,13.968,30.249z"/>
		<path style="fill:#19141F;" d="M18.198,27.575c0.531,0,1.161,0.564,1.217,1.09c0.027,0.258-0.307,0.534-0.634,0.522
			c-0.446-0.016-1-0.438-1.134-0.866C17.531,27.952,17.809,27.575,18.198,27.575z"/>
		<path style="fill:#19141F;" d="M18.771,31.766c-0.461-0.01-0.957-0.385-1.103-0.833c-0.14-0.433,0.199-0.832,0.644-0.759
			c0.481,0.079,0.976,0.537,1.09,1.009C19.482,31.512,19.196,31.776,18.771,31.766z"/>
		<path style="fill:#09023E;" d="M54.404,33.498c-0.015,0.015-0.031,0.03-0.046,0.045C54.347,33.502,54.362,33.487,54.404,33.498z"
			/>
		<path style="fill:#09023E;" d="M54.356,37.001c0.017,0.02,0.033,0.04,0.05,0.06C54.355,37.069,54.349,37.041,54.356,37.001z"/>
	</g>
</g>
<g>
	<g>
		<path style="fill:#FEE500;" d="M35.284,21.705c7.91,0,15.82,0,23.73,0c2.399,0,4.638,1.99,4.926,4.372
			c0.042,0.35,0.06,0.7,0.06,1.052c-0.002,3.283,0,6.567-0.002,9.85c-0.002,2.543-1.682,4.629-4.157,5.168
			c-0.408,0.089-0.823,0.101-1.24,0.101c-5.757,0.005-11.513,0.002-17.27,0.021c-7.281,0.024-14.562,0.047-21.843,0.015
			c-2.11-0.009-4.22-0.073-6.33-0.118c-0.437-0.009-0.873-0.04-1.309-0.065c-0.419-0.024-0.807-0.131-1.183-0.338
			c-2.126-1.172-4.285-2.288-6.384-3.506c-1.086-0.63-1.763-1.612-1.761-2.949c0.003-2.335,0.004-4.669,0-7.004
			C2.518,26.94,3.115,25.929,4.3,25.274c1.976-1.093,3.96-2.17,5.938-3.258c0.392-0.216,0.801-0.315,1.252-0.315
			C19.421,21.707,27.352,21.705,35.284,21.705z M50.311,22.217c-0.81,0-1.621,0-2.431,0c-0.7-0.005-1.4-0.015-2.1-0.014
			c-1.39,0.002-2.78,0.009-4.169,0.014c-0.551-0.005-1.103-0.015-1.654-0.014c-1.581,0.002-3.162,0.009-4.743,0.015
			c-1.253-0.005-2.506-0.014-3.759-0.014c-1.306,0-2.612,0.009-3.918,0.014c-0.116-0.005-0.233-0.015-0.349-0.015
			c-2.38-0.001-4.761-0.001-7.141,0.001c-0.425,0-0.849,0.009-1.274,0.014c-0.116-0.005-0.233-0.015-0.349-0.015
			c-2.251-0.001-4.503-0.001-6.754,0.001c-0.127,0-0.254,0.012-0.38,0.019c-0.547,0.01-0.957,0.35-1.408,0.589
			c-1.161,0.616-2.322,1.231-3.457,1.896c-0.763,0.396-1.531,0.783-2.242,1.269c-0.782,0.544-1.158,1.303-1.161,2.244
			c-0.006,2.404,0.008,4.808-0.007,7.212c-0.006,0.937,0.548,1.562,1.111,2.195c0.699,0.507,1.487,0.857,2.239,1.271
			c1.107,0.606,2.214,1.212,3.321,1.817c0.369,0.202,0.749,0.387,1.105,0.61c0.453,0.285,0.942,0.356,1.459,0.333
			c1.447,0.099,2.897,0.125,4.347,0.123c0.214,0.001,0.429,0.002,0.643,0.004c0.576,0.005,1.152,0.01,1.729,0.014
			c0.849,0.059,1.698,0.05,2.547,0.023c0.095,0.006,0.191,0.016,0.286,0.016c5.25-0.002,10.5-0.004,15.75-0.012
			c0.531-0.001,1.063,0.036,1.593-0.028c0.353,0.034,0.705,0.032,1.058,0.001c0.871,0.005,1.741,0.015,2.612,0.013
			c1.668-0.003,3.335-0.013,5.003-0.02c1.045,0.025,2.09,0.027,3.135,0c1.024,0.026,2.047,0.027,3.071,0
			c1.777,0.024,3.554,0.032,5.331-0.006c0.082-0.002,0.164-0.036,0.245-0.055c0.921-0.135,1.731-0.5,2.4-1.159
			c0.137-0.131,0.287-0.251,0.41-0.394c0.765-0.89,1.149-1.925,1.149-3.1c0-3.279-0.01-6.558,0.004-9.837
			c0.006-1.459-0.414-2.728-1.498-3.741c-0.22-0.277-0.519-0.455-0.81-0.642c-0.505-0.326-1.073-0.476-1.656-0.582
			c-0.234-0.099-0.482-0.068-0.724-0.071c-0.639-0.008-1.277-0.004-1.916-0.002c-1.341,0.004-2.682,0.01-4.022,0.015
			C52.06,22.217,51.186,22.217,50.311,22.217z"/>
		<path style="fill:#010101;" d="M0.937,32.695c-0.234,0-0.47-0.015-0.702,0.004c-0.215,0.017-0.202-0.103-0.211-0.252
			c-0.011-0.175,0.055-0.231,0.217-0.205c0.01,0.002,0.021,0,0.032,0c0.442-0.007,0.596-0.206,0.452-0.635
			c-0.075-0.226-0.296-0.096-0.441-0.095c-0.21,0.001-0.273-0.06-0.261-0.267c0.008-0.151,0.046-0.2,0.2-0.197
			c0.489,0.009,0.979,0.012,1.469-0.001c0.185-0.005,0.207,0.075,0.203,0.226C1.89,31.41,1.901,31.53,1.702,31.505
			c-0.115-0.014-0.236,0.011-0.351-0.005c-0.21-0.03-0.242,0.067-0.241,0.252c0.004,0.488-0.005,0.493,0.481,0.487
			c0.183-0.002,0.33-0.019,0.307,0.251c-0.015,0.173-0.068,0.215-0.227,0.208C1.427,32.686,1.182,32.695,0.937,32.695z"/>
		<path style="fill:#020202;" d="M0.96,29.362C0.656,29.329,0.186,29.49,0.083,29.3c-0.153-0.28-0.046-0.7-0.056-1.06
			c-0.003-0.112,0.041-0.137,0.147-0.145c0.178-0.014,0.253,0.04,0.233,0.227c-0.015,0.137,0.002,0.276-0.004,0.414
			c-0.006,0.126,0.022,0.192,0.173,0.192c0.152,0,0.177-0.07,0.172-0.194c-0.006-0.138,0.006-0.277-0.003-0.414
			c-0.01-0.147,0.062-0.176,0.191-0.179c0.134-0.003,0.195,0.033,0.183,0.177c-0.011,0.127,0.004,0.255-0.004,0.382
			c-0.009,0.148,0.012,0.23,0.199,0.23c0.195,0,0.199-0.098,0.193-0.238c-0.006-0.138,0.003-0.276-0.002-0.414
			c-0.005-0.138-0.005-0.239,0.191-0.24c0.189-0.001,0.21,0.085,0.197,0.231c-0.005,0.053,0,0.106-0.001,0.159
			c-0.005,0.297,0.103,0.693-0.047,0.864C1.67,29.491,1.264,29.327,0.96,29.362z"/>
		<path style="fill:#010101;" d="M1.173,35.132c-0.106,0-0.214,0.008-0.319-0.002c-0.288-0.027-0.532-0.019-0.45,0.387
			c0.03,0.148-0.089,0.138-0.185,0.136c-0.092-0.001-0.194,0.028-0.192-0.13c0.006-0.415,0.006-0.83,0-1.245
			c-0.003-0.157,0.096-0.132,0.189-0.131c0.095,0.001,0.22-0.011,0.188,0.136c-0.098,0.451,0.19,0.41,0.477,0.399
			c0.276-0.011,0.554,0.009,0.83-0.006c0.175-0.01,0.192,0.074,0.182,0.209c-0.009,0.121,0.039,0.266-0.177,0.249
			C1.535,35.121,1.354,35.132,1.173,35.132z"/>
		<path style="fill:#08003F;" d="M62.063,23.5c1.083,1.013,1.504,2.282,1.498,3.741c-0.014,3.279-0.004,6.558-0.004,9.837
			c0,1.175-0.383,2.21-1.149,3.1c-0.123,0.143-0.273,0.263-0.41,0.394c-0.08-0.053-0.096-0.11-0.067-0.212
			c0.143-0.499,0.133-1.004,0.025-1.509c0.218-0.463,0.386-0.94,0.441-1.454c0.025-0.231-0.012-0.336-0.289-0.331
			c-0.903,0.015-1.807-0.003-2.711-0.008c0-0.021,0-0.043,0-0.064c0.235,0,0.469,0,0.704,0c0.533,0,1.065,0,1.598,0
			c0.43,0,0.449-0.018,0.449-0.452c0.001-1.79,0-3.579,0-5.369c0-1.278-0.004-2.557,0.003-3.835
			c0.001-0.278-0.083-0.409-0.388-0.394c-0.446,0.022-0.895,0.006-1.342,0.006c-0.34-0.032-0.688,0.067-1.023-0.058
			c0.894-0.004,1.789-0.027,2.683-0.003c0.321,0.008,0.345-0.116,0.313-0.368c-0.052-0.404-0.176-0.786-0.311-1.166
			c0.069-0.279,0.067-0.564,0.067-0.849C62.147,24.168,62.157,23.83,62.063,23.5z"/>
		<path style="fill:#1E1A10;" d="M4.125,37.628c-0.563-0.634-1.117-1.259-1.111-2.195c0.016-2.404,0.001-4.808,0.007-7.212
			c0.002-0.941,0.378-1.701,1.161-2.244c0.124,0.372,0.046,0.756,0.071,1.134c0.007,0.105-0.057,0.245,0.113,0.289
			c-0.185,0.382-0.216,0.787-0.215,1.206c0.002,1.645-0.015,3.29-0.024,4.934c-0.101,0.081-0.065,0.194-0.066,0.295
			c-0.003,0.507-0.003,1.013,0,1.52c0.001,0.101-0.035,0.214,0.062,0.297c0.058,0.131,0.078,0.281,0.192,0.384
			c-0.126,0.27-0.045,0.557-0.062,0.835C4.238,37.128,4.293,37.396,4.125,37.628z"/>
		<path style="fill:#1B1717;" d="M9.881,22.811c0.452-0.238,0.861-0.579,1.408-0.589c0.443,0.128,0.895,0.025,1.342,0.059
			c0,0.262-0.001,0.524,0,0.787c0,0.103-0.019,0.22,0.133,0.239c-0.288,0.124-0.459,0.321-0.461,0.655
			c-0.014,2.355-0.043,4.709,0.007,7.064c0.011,0.539,0.237,0.989,0.658,1.33c0.573,0.465,1.253,0.742,1.901,1.075
			c0,0.07,0.003,0.142-0.075,0.18c-0.526-0.198-1.01-0.484-1.488-0.769c-0.764-0.456-1.467-0.396-2.217,0.034
			c-0.811,0.464-1.658,0.867-2.489,1.297c-0.021-0.08-0.042-0.159-0.064-0.239c0.827-0.446,1.655-0.891,2.482-1.337
			c0.681-0.367,1.026-0.952,1.031-1.713c0.016-2.278,0.017-4.555,0.016-6.833c-0.001-0.631-0.457-0.887-1.018-0.592
			c-0.347,0.182-0.693,0.367-1.04,0.55c-0.039-0.15-0.07-0.3-0.067-0.459C9.945,23.303,9.978,23.051,9.881,22.811z"/>
		<path style="fill:#1A1519;" d="M16.596,41.783c-1.45,0.002-2.9-0.025-4.347-0.123c0.211-0.058,0.262-0.193,0.264-0.408
			c0.002-0.247-0.117-0.527,0.119-0.74c0.272-0.09,0.524-0.223,0.776-0.358c0.699-0.374,1.401-0.743,2.102-1.115
			c0,0.394,0.001,0.788,0.001,1.182c0,0.132-0.005,0.264,0.171,0.292c0.027,0.051-0.181,0.078-0.019,0.134
			c0.076,0.026,0.168,0.007,0.253,0.007c1.827-0.001,3.653-0.003,5.48-0.004c-0.021,0.018-0.043,0.037-0.064,0.055
			c-1.087,0.002-2.174,0.005-3.262,0.007c-0.627-0.002-1.254-0.006-1.882-0.007c-0.766-0.001-0.759,0-0.747,0.755
			c0.003,0.21,0.071,0.27,0.276,0.275C16.01,41.742,16.309,41.663,16.596,41.783z"/>
		<path style="fill:#1C1814;" d="M9.881,22.811c0.097,0.24,0.064,0.492,0.06,0.739c-0.002,0.159,0.029,0.308,0.067,0.459
			c-1.157,0.669-2.329,1.311-3.516,1.926c-0.028-0.409,0.057-0.824-0.068-1.228C7.558,24.042,8.72,23.427,9.881,22.811z"/>
		<path style="fill:#1D1912;" d="M8.537,33.933c0.021,0.08,0.042,0.159,0.064,0.239c-1.194,0.654-2.389,1.308-3.583,1.963
			c-0.149,0.082-0.328,0.167-0.337,0.354c-0.01,0.209,0.182,0.293,0.339,0.382C5.51,37.147,6,37.423,6.49,37.698
			c0,0.263-0.006,0.527,0.002,0.79c0.005,0.155-0.013,0.296-0.128,0.411c-0.752-0.414-1.54-0.764-2.239-1.271
			c0.168-0.232,0.113-0.499,0.128-0.758c0.016-0.279-0.064-0.565,0.062-0.835c0.173,0.03,0.34,0.007,0.495-0.077
			C6.053,35.284,7.295,34.608,8.537,33.933z"/>
		<path style="fill:#1C1814;" d="M6.364,38.899c0.115-0.115,0.133-0.255,0.128-0.411c-0.008-0.263-0.002-0.527-0.002-0.79
			c1.109,0.6,2.218,1.2,3.326,1.8c-0.147,0.395,0.02,0.824-0.131,1.218C8.578,40.11,7.471,39.505,6.364,38.899z"/>
		<path style="fill:#110A2D;" d="M40.201,41.801c-0.353,0.031-0.705,0.033-1.058-0.001c-0.496-0.006-0.992-0.013-1.489-0.019
			c0.353-0.111,0.715-0.043,1.072-0.046c0.254-0.002,0.335-0.095,0.33-0.341c-0.011-0.575-0.001-1.151,0-1.726
			c0.096,0.055,0.2,0.094,0.3,0.139c0.705,0.316,1.445,0.519,2.191,0.705c0,0.406,0,0.811,0,1.217c-0.202,0-0.405-0.013-0.605,0.003
			C40.695,41.751,40.436,41.653,40.201,41.801z"/>
		<path style="fill:#17121F;" d="M37.654,41.781c0.496,0.006,0.992,0.013,1.489,0.019c-0.53,0.063-1.062,0.027-1.593,0.028
			c-5.25,0.008-10.5,0.009-15.75,0.012c-0.095,0-0.191-0.011-0.286-0.016c-0.138-0.061-0.112-0.184-0.121-0.3
			c-0.02-0.273,0.063-0.554-0.062-0.818c0.021-0.018,0.043-0.037,0.064-0.055c0.798-0.069,1.587-0.194,2.365-0.381
			c-0.135,0.457-0.038,0.924-0.055,1.385c-0.006,0.156,0.132,0.137,0.235,0.137c0.794-0.002,1.588-0.006,2.382-0.009
			c0.469,0,0.938,0,1.407,0c0.682,0,1.365-0.001,2.047-0.001c0.789,0,1.579,0,2.368-0.001c0.833,0,1.666-0.001,2.5-0.001
			c0.534,0,1.068,0.001,1.602,0.001C36.716,41.781,37.185,41.781,37.654,41.781z"/>
		<path style="fill:#18131E;" d="M21.332,40.705c0.125,0.265,0.042,0.546,0.062,0.818c0.008,0.116-0.017,0.239,0.121,0.3
			c-0.849,0.027-1.699,0.036-2.547-0.023c-0.289-0.152-0.6-0.035-0.898-0.072c0-0.339,0.001-0.678,0.001-1.016
			C19.157,40.71,20.244,40.707,21.332,40.705z"/>
		<path style="fill:#09013E;" d="M61.955,38.852c0.109,0.505,0.118,1.01-0.025,1.509c-0.029,0.102-0.013,0.159,0.067,0.212
			c-0.668,0.659-1.478,1.024-2.4,1.159c-0.177,0.012-0.199-0.092-0.206-0.241c-0.013-0.282,0.066-0.573-0.06-0.847
			c0.163-0.043,0.325-0.085,0.487-0.13C60.759,40.253,61.438,39.656,61.955,38.852z"/>
		<path style="fill:#09013E;" d="M62.063,23.5c0.094,0.33,0.085,0.668,0.085,1.006c0,0.285,0.002,0.57-0.067,0.849
			c-0.44-0.801-1.044-1.428-1.908-1.769c-0.231-0.091-0.475-0.149-0.714-0.223c0.152-0.33,0.302-0.66,0.079-1.02
			c-0.005-0.008,0.038-0.044,0.058-0.068c0.583,0.106,1.15,0.256,1.656,0.582C61.543,23.045,61.842,23.223,62.063,23.5z"/>
		<path style="fill:#1B1716;" d="M9.685,40.716c0.151-0.394-0.015-0.823,0.131-1.218c0.404,0.211,0.822,0.399,1.208,0.638
			c0.5,0.31,1.027,0.441,1.607,0.375c-0.235,0.213-0.116,0.493-0.119,0.74c-0.002,0.215-0.053,0.351-0.264,0.408
			c-0.517,0.023-1.006-0.048-1.459-0.333C10.434,41.103,10.054,40.918,9.685,40.716z"/>
		<path style="fill:#0A023C;" d="M59.597,22.276c-0.02,0.023-0.063,0.06-0.058,0.068c0.223,0.36,0.073,0.69-0.079,1.02
			c-0.348-0.013-0.695-0.03-1.043-0.037c-0.569-0.01-1.139-0.013-1.708-0.019c-0.011-0.214,0.083-0.413,0.069-0.631
			c-0.018-0.279-0.105-0.413-0.422-0.404c-0.777,0.022-1.556,0.007-2.333,0.007c-0.363,0-0.725,0-1.088,0c0-0.021,0-0.042,0-0.063
			c1.341-0.005,2.682-0.011,4.022-0.015c0.639-0.002,1.278-0.006,1.916,0.002C59.115,22.208,59.363,22.177,59.597,22.276z"/>
		<path style="fill:#0A023C;" d="M59.331,40.644c0.126,0.274,0.047,0.564,0.06,0.847c0.007,0.148,0.029,0.252,0.206,0.241
			c-0.082,0.019-0.163,0.053-0.245,0.055c-1.777,0.039-3.554,0.031-5.331,0.006c0-0.022,0-0.043,0-0.065c0.021,0,0.043,0,0.064,0
			c0.783,0,1.566,0.001,2.35-0.002c0.107,0,0.267,0.042,0.265-0.136c-0.003-0.293,0.068-0.592-0.052-0.878
			c0.74-0.002,1.48-0.003,2.219-0.009c0.112-0.001,0.234,0.037,0.334-0.052C59.245,40.649,59.288,40.647,59.331,40.644z"/>
		<path style="fill:#1D1912;" d="M6.424,24.707c0.125,0.404,0.04,0.819,0.068,1.228c-0.474,0.27-0.95,0.537-1.422,0.812
			c-0.282,0.164-0.544,0.355-0.705,0.652c-0.17-0.044-0.106-0.184-0.113-0.289c-0.025-0.378,0.053-0.762-0.071-1.134
			C4.893,25.49,5.661,25.103,6.424,24.707z"/>
		<path style="fill:#1A151B;" d="M18.07,40.712c0,0.339-0.001,0.678-0.001,1.016c-0.276,0.033-0.561-0.069-0.83,0.058
			c-0.214-0.001-0.429-0.002-0.643-0.004c-0.286-0.12-0.586-0.041-0.878-0.048c-0.206-0.005-0.273-0.065-0.276-0.275
			c-0.012-0.755-0.019-0.756,0.747-0.755C16.816,40.706,17.443,40.71,18.07,40.712z"/>
		<path style="fill:#100C21;" d="M18.773,22.218c0.425-0.005,0.849-0.014,1.274-0.014c2.38-0.002,4.761-0.001,7.141-0.001
			c0.116,0,0.233,0.01,0.349,0.015c0,0.021,0,0.042,0,0.063c-0.853,0-1.706,0-2.559,0c-1.215,0-2.431,0-3.646,0
			c-0.853,0-1.706,0-2.559,0C18.773,22.26,18.773,22.239,18.773,22.218z"/>
		<path style="fill:#0E0928;" d="M27.537,22.281c0-0.021,0-0.042,0-0.063c1.306-0.005,2.612-0.014,3.918-0.014
			c1.253,0,2.506,0.009,3.759,0.014c0,0.021,0,0.042,0,0.063c-0.085,0-0.171,0-0.256,0c-0.874,0-1.749,0-2.623,0
			c-0.874,0-1.749,0-2.623,0c-0.704,0-1.407,0-2.111,0C27.58,22.281,27.558,22.281,27.537,22.281z"/>
		<path style="fill:#0B0632;" d="M40.201,41.801c0.235-0.148,0.494-0.05,0.74-0.069c0.201-0.016,0.403-0.003,0.605-0.003
			c0.768,0,1.535,0,2.303,0c0.746,0,1.493,0,2.239,0c0.576,0,1.152,0,1.727,0c0,0.022,0,0.044,0,0.066
			c-1.668,0.007-3.335,0.017-5.003,0.02C41.943,41.816,41.072,41.806,40.201,41.801z"/>
		<path style="fill:#130F1A;" d="M18.773,22.218c0,0.021,0,0.042,0,0.063c-0.235,0-0.469,0-0.704,0c-0.832,0-1.663,0-2.495,0
			c-0.981,0-1.962,0-2.943,0c-0.447-0.034-0.899,0.07-1.342-0.059c0.127-0.006,0.254-0.018,0.38-0.019
			c2.251-0.001,4.503-0.001,6.754-0.001C18.54,22.203,18.656,22.213,18.773,22.218z"/>
		<path style="fill:#0C072D;" d="M35.214,22.281c0-0.021,0-0.042,0-0.063c1.581-0.005,3.162-0.012,4.743-0.015
			c0.551-0.001,1.103,0.009,1.654,0.014c0,0.021,0,0.042,0,0.063c-0.043,0-0.085,0-0.128,0c-0.789,0-1.578,0-2.367,0
			c-0.725,0-1.45,0-2.175,0C36.365,22.281,35.789,22.281,35.214,22.281z"/>
		<path style="fill:#0A0633;" d="M41.611,22.281c0-0.021,0-0.042,0-0.063c1.39-0.005,2.78-0.013,4.169-0.014
			c0.7-0.001,1.4,0.009,2.1,0.014c0,0.021,0,0.042,0,0.063c-0.576,0-1.152,0-1.727,0c-0.789,0-1.578,0-2.367,0
			C43.061,22.281,42.336,22.281,41.611,22.281z"/>
		<path style="fill:#0C0537;" d="M47.816,41.794c0-0.022,0-0.044,0-0.066c0.213,0,0.426,0,0.64,0c0.832,0,1.663,0,2.495,0
			c0,0.022,0,0.043,0,0.065C49.906,41.821,48.861,41.819,47.816,41.794z"/>
		<path style="fill:#0B0339;" d="M50.951,41.794c0-0.022,0-0.043,0-0.065c0.043,0,0.085,0,0.128,0c0.981,0,1.962,0,2.943,0
			c0,0.022,0,0.043,0,0.065C52.998,41.821,51.975,41.82,50.951,41.794z"/>
		<path style="fill:#0B0339;" d="M52.934,22.217c0,0.021,0,0.042,0,0.063c-0.661,0-1.322,0-1.983,0c-0.213,0-0.426,0-0.64,0
			c0-0.021,0-0.042,0-0.063C51.186,22.217,52.06,22.217,52.934,22.217z"/>
		<path style="fill:#0C0537;" d="M50.311,22.217c0,0.021,0,0.042,0,0.063c-0.618,0-1.237,0-1.855,0c-0.192,0-0.384,0-0.576,0
			c0-0.021,0-0.042,0-0.063C48.691,22.217,49.501,22.217,50.311,22.217z"/>
		<path style="fill:#120E1D;" d="M17.239,41.786c0.269-0.127,0.554-0.025,0.83-0.058c0.298,0.037,0.609-0.08,0.898,0.072
			C18.391,41.796,17.815,41.791,17.239,41.786z"/>
		<path style="fill:#FEE500;" d="M59.331,40.644c-0.043,0.003-0.086,0.005-0.13,0.008c-0.021-0.007-0.042-0.014-0.064-0.02
			c-0.111-0.096-0.245-0.052-0.369-0.053c-2.665-0.003-5.329-0.008-7.994,0.006c-0.321,0.002-0.409-0.076-0.408-0.404
			c0.011-5.478,0.008-10.957,0.006-16.435c0-0.124,0.038-0.257-0.043-0.373c0.153-0.107,0.333-0.002,0.492-0.063
			c1.045,0.029,2.09,0.029,3.135,0c0.917,0.029,1.834,0.029,2.751,0c0.569,0.006,1.139,0.009,1.708,0.019
			c0.348,0.006,0.695,0.024,1.043,0.037c0.238,0.073,0.482,0.131,0.714,0.223c0.864,0.341,1.468,0.968,1.908,1.769
			c0.135,0.38,0.259,0.762,0.311,1.166c0.032,0.251,0.008,0.376-0.313,0.368c-0.894-0.023-1.788-0.001-2.683,0.003
			c-0.81,0-1.621,0-2.431,0c-0.853,0.001-1.706,0.001-2.558,0.002c-0.128,0.07-0.059,0.189-0.06,0.282
			c-0.006,0.882,0.005,1.765-0.009,2.647c-0.004,0.246,0.055,0.32,0.312,0.319c2.179-0.011,4.359-0.006,6.538-0.005
			c0.127,0,0.253,0.017,0.38,0.027l-0.01-0.011c-0.001,1.106-0.003,2.213-0.004,3.319c0,0,0.011-0.013,0.011-0.013
			c-0.02,0.005-0.041,0.006-0.061,0.001c-0.061-0.057-0.137-0.047-0.211-0.047c-2.23,0-4.46,0-6.689,0.001
			c-0.091,0-0.196-0.03-0.258,0.075c0,0.884-0.007,1.767,0.002,2.651c0.003,0.305-0.141,0.731,0.058,0.884
			c0.223,0.171,0.632,0.059,0.96,0.036c0.853,0.026,1.706,0.026,2.559,0c0.49,0.026,0.981,0.026,1.471,0
			c0.904,0.005,1.808,0.023,2.711,0.008c0.278-0.005,0.314,0.1,0.289,0.331c-0.055,0.514-0.223,0.991-0.441,1.454
			c-0.517,0.804-1.196,1.401-2.136,1.663C59.657,40.559,59.494,40.601,59.331,40.644z"/>
		<path style="fill:#09013E;" d="M60.419,26.951c0.447,0,0.896,0.016,1.342-0.006c0.305-0.015,0.39,0.116,0.388,0.394
			c-0.006,1.278-0.003,2.557-0.003,3.835c0,1.79,0,3.579,0,5.369c0,0.434-0.019,0.451-0.449,0.452c-0.533,0-1.065,0-1.598,0
			c0-1.151,0-2.302,0-3.453c0.393,0,0.787,0.002,1.18-0.003c0.099-0.001,0.218,0.044,0.286-0.079c0,0-0.011,0.013-0.011,0.013
			c0.11-0.059,0.079-0.164,0.079-0.255c0.002-0.935,0.002-1.87,0-2.806c0-0.091,0.03-0.196-0.075-0.258c0,0,0.01,0.011,0.01,0.011
			c-0.071-0.118-0.189-0.074-0.289-0.077c-0.287-0.007-0.573-0.007-0.86-0.01C60.419,29.034,60.419,27.993,60.419,26.951z"/>
		<path style="fill:#0A023C;" d="M60.099,33.541c0,1.151,0,2.302,0,3.453c-0.235,0-0.469,0-0.704,0
			c-0.201,0-0.403-0.012-0.603,0.003c-0.289,0.022-0.588-0.074-0.869,0.061c-0.853,0.026-1.706,0.026-2.559,0
			c0.083-0.098,0.197-0.062,0.299-0.063c0.554-0.003,1.109-0.019,1.661,0.005c0.311,0.013,0.425-0.057,0.415-0.398
			c-0.027-0.915,0-1.832-0.015-2.748c-0.004-0.259,0.081-0.326,0.328-0.32C58.736,33.55,59.418,33.541,60.099,33.541z"/>
		<path style="fill:#09013E;" d="M60.419,26.951c0,1.042,0,2.084,0,3.125c-0.362,0-0.725,0-1.087,0c0-0.934-0.008-1.869,0.004-2.803
			c0.003-0.244-0.056-0.339-0.318-0.328c-0.498,0.02-0.998,0.013-1.497,0.002c-0.185-0.004-0.381,0.065-0.556-0.055
			c0.81,0,1.621,0,2.431,0C59.731,27.018,60.079,26.918,60.419,26.951z"/>
		<path style="fill:#09013E;" d="M57.924,37.059c0.281-0.136,0.579-0.039,0.869-0.061c0.2-0.015,0.402-0.003,0.603-0.003
			c0,0.021,0,0.043,0,0.064C58.905,37.085,58.414,37.084,57.924,37.059z"/>
		<path style="fill:#CBCBCB;" d="M4.365,27.398c0.161-0.298,0.422-0.488,0.705-0.652c0.472-0.274,0.948-0.541,1.422-0.812
			c1.187-0.615,2.359-1.257,3.516-1.926c0.346-0.184,0.692-0.368,1.04-0.55c0.562-0.295,1.018-0.039,1.018,0.592
			c0.002,2.278,0.001,4.555-0.016,6.833c-0.005,0.761-0.35,1.345-1.031,1.713c-0.827,0.446-1.655,0.892-2.482,1.337
			c-1.242,0.675-2.485,1.351-3.727,2.025c-0.154,0.084-0.321,0.106-0.495,0.077c-0.114-0.103-0.134-0.253-0.192-0.384
			c0.001-0.704,0.002-1.408,0.003-2.112c0.01-1.645,0.026-3.29,0.024-4.934C4.15,28.185,4.181,27.781,4.365,27.398z M6.816,33.175
			c0.004-0.257-0.105-0.406-0.342-0.465c-0.627-0.155-1.404,0.41-1.457,1.057c-0.022,0.277,0.101,0.446,0.366,0.514
			C5.956,34.428,6.807,33.77,6.816,33.175z M9.727,31.839c0.532,0.006,1.074-0.383,1.24-0.89c0.132-0.404-0.082-0.703-0.506-0.705
			c-0.498-0.003-1.087,0.433-1.231,0.911C9.111,31.548,9.32,31.835,9.727,31.839z M6.167,27.567
			c-0.434,0.007-0.988,0.422-1.137,0.859c-0.067,0.197-0.096,0.402,0.06,0.573c0.166,0.181,0.38,0.221,0.614,0.158
			c0.446-0.12,0.774-0.393,0.982-0.801C6.901,27.933,6.651,27.56,6.167,27.567z M10.378,25.334c-0.442,0-1.018,0.435-1.133,0.856
			c-0.122,0.447,0.261,0.845,0.715,0.733c0.443-0.109,0.75-0.394,0.937-0.802C11.095,25.69,10.855,25.334,10.378,25.334z"/>
		<path style="fill:#19140C;" d="M4.126,33.539c-0.001,0.704-0.002,1.408-0.003,2.112c-0.097-0.083-0.062-0.196-0.062-0.297
			c-0.003-0.507-0.003-1.013,0-1.52C4.061,33.733,4.025,33.62,4.126,33.539z"/>
		<path style="fill:#868686;" d="M12.631,40.511c-0.58,0.066-1.107-0.065-1.607-0.375c-0.386-0.239-0.804-0.427-1.208-0.638
			c-1.109-0.6-2.218-1.2-3.326-1.8C6,37.423,5.51,37.147,5.021,36.871c-0.157-0.089-0.349-0.173-0.339-0.382
			c0.009-0.187,0.188-0.272,0.337-0.354c1.194-0.656,2.388-1.309,3.583-1.963c0.831-0.43,1.678-0.833,2.489-1.297
			c0.75-0.429,1.453-0.489,2.217-0.034c0.477,0.285,0.962,0.571,1.488,0.769c0.289,0.189,0.593,0.351,0.907,0.493
			c0.277,0.155,0.551,0.313,0.83,0.464c0.996,0.54,1.999,1.068,2.989,1.619c0.369,0.205,0.362,0.394,0.018,0.633
			c-0.087,0.06-0.184,0.105-0.277,0.157c-0.463,0.259-0.926,0.518-1.389,0.777c-0.803,0.4-1.59,0.831-2.364,1.285
			c-0.701,0.371-1.403,0.741-2.102,1.115C13.155,40.288,12.903,40.421,12.631,40.511z M8.596,37.32c0.324,0,0.6-0.072,0.786-0.205
			c0.293-0.208,0.308-0.51,0.037-0.748c-0.397-0.348-1.267-0.343-1.661,0.011C7.495,36.614,7.5,36.884,7.784,37.1
			C8.022,37.283,8.304,37.323,8.596,37.32z M15.856,37.321c0.35-0.002,0.634-0.043,0.869-0.234c0.262-0.213,0.261-0.485,0.009-0.704
			c-0.396-0.344-1.244-0.359-1.645-0.03c-0.291,0.239-0.28,0.561,0.033,0.768C15.361,37.278,15.629,37.334,15.856,37.321z"/>
		<path style="fill:#E7E7E7;" d="M14.87,33.431c-0.648-0.332-1.329-0.61-1.901-1.075c-0.42-0.341-0.646-0.792-0.658-1.33
			c-0.05-2.354-0.021-4.709-0.007-7.064c0.002-0.334,0.173-0.531,0.461-0.655c0.252-0.017,0.476,0.061,0.697,0.18
			c0.68,0.367,1.365,0.725,2.048,1.087c0.809,0.434,1.617,0.868,2.426,1.302c0.249,0.138,0.496,0.279,0.746,0.414
			c0.417,0.225,0.869,0.4,1.174,0.79c0.274,0.386,0.389,0.819,0.389,1.288c-0.001,2.37-0.001,4.74-0.001,7.11
			c0,0.053-0.001,0.106-0.005,0.159c-0.022,0.271-0.132,0.447-0.441,0.409c-0.312-0.053-0.554-0.252-0.823-0.396
			c-1.074-0.577-2.15-1.148-3.226-1.722C15.483,33.714,15.169,33.586,14.87,33.431z M14.009,25.346
			c-0.507-0.014-0.745,0.325-0.553,0.792c0.221,0.538,0.653,0.792,1.205,0.854c0.324,0.036,0.537-0.189,0.536-0.524
			C15.195,25.928,14.595,25.361,14.009,25.346z M18.213,32.708c-0.489-0.016-0.723,0.283-0.573,0.732
			c0.16,0.479,0.749,0.888,1.255,0.872c0.414-0.013,0.617-0.287,0.508-0.685C19.275,33.162,18.707,32.724,18.213,32.708z
			 M13.963,27.722c-0.434,0.005-0.665,0.316-0.519,0.73c0.183,0.52,0.583,0.8,1.11,0.887c0.482,0.08,0.754-0.251,0.616-0.72
			C15.034,28.154,14.446,27.717,13.963,27.722z M13.973,30.244c-0.478-0.003-0.693,0.309-0.526,0.763
			c0.166,0.452,0.7,0.838,1.174,0.849c0.454,0.011,0.681-0.299,0.542-0.74C15.021,30.666,14.451,30.248,13.973,30.244z
			 M18.21,27.569c-0.389-0.006-0.678,0.366-0.57,0.734c0.127,0.435,0.708,0.875,1.158,0.878c0.33,0.003,0.649-0.279,0.613-0.541
			C19.34,28.119,18.732,27.577,18.21,27.569z M18.751,31.761c0.563,0.022,0.803-0.337,0.548-0.829
			c-0.201-0.387-0.51-0.646-0.939-0.749c-0.209-0.05-0.41-0.028-0.555,0.143c-0.158,0.186-0.229,0.396-0.128,0.648
			C17.844,31.388,18.316,31.744,18.751,31.761z"/>
		<path style="fill:#1A1519;" d="M15.51,24.574c-0.683-0.362-1.368-0.72-2.048-1.087c-0.22-0.119-0.444-0.197-0.697-0.18
			c-0.152-0.02-0.133-0.136-0.133-0.239c-0.001-0.262,0-0.524,0-0.787c0.981,0,1.962,0,2.943,0
			C15.544,23.045,15.641,23.813,15.51,24.574z"/>
		<path style="fill:#1A151C;" d="M14.87,33.431c0.299,0.155,0.613,0.284,0.879,0.497c-0.057,0.048-0.045,0.114-0.047,0.176
			c-0.314-0.142-0.618-0.304-0.907-0.493C14.873,33.573,14.87,33.501,14.87,33.431z"/>
		<path style="fill:#FEE500;" d="M23.761,40.269c-0.779,0.187-1.568,0.312-2.365,0.381c-1.827,0.001-3.653,0.003-5.48,0.004
			c-0.085,0-0.177,0.019-0.253-0.007c-0.163-0.056,0.046-0.083,0.019-0.134c0.805-0.383,1.582-0.818,2.35-1.268
			c0.67-0.33,1.324-0.689,1.966-1.07c0.499-0.21,0.895-0.536,1.114-1.04c0.061-0.14,0.157-0.15,0.271-0.168
			c0.439-0.068,0.885-0.107,1.3-0.288c1.357-0.377,2.353-1.19,2.856-2.512c0.562-1.475,0.562-2.986,0.006-4.464
			c-0.499-1.327-1.499-2.133-2.86-2.501c-0.32-0.15-0.668-0.195-1.011-0.236c-0.198-0.024-0.284-0.107-0.37-0.273
			c-0.267-0.515-0.632-0.947-1.156-1.224c-0.658-0.394-1.334-0.755-2.03-1.077c-0.584-0.414-1.265-0.658-1.942-1.097
			c1.713,0,3.338,0,4.962,0c0.043,0.001,0.087,0.001,0.13,0.002c1.264,0.092,2.507,0.29,3.71,0.699
			c0.921,0.351,1.778,0.818,2.557,1.424c0.897,0.781,1.568,1.725,2.042,2.813c0.303,0.888,0.519,1.793,0.587,2.734
			c0.111,1.539-0.054,3.037-0.603,4.485c-0.452,1.04-1.09,1.952-1.902,2.744c-0.431,0.351-0.869,0.692-1.338,0.993
			C25.513,39.656,24.655,40.005,23.761,40.269z"/>
		<path style="fill:#19141B;" d="M18.031,39.244c-0.768,0.451-1.546,0.885-2.35,1.268c-0.176-0.027-0.172-0.16-0.171-0.292
			c0-0.394,0-0.788-0.001-1.182c0.774-0.454,1.561-0.885,2.364-1.285c0.139,0.416,0.048,0.843,0.057,1.265
			C17.932,39.124,17.911,39.206,18.031,39.244z"/>
		<path style="fill:#FEE500;" d="M41.547,40.512c-0.746-0.186-1.486-0.389-2.191-0.705c-0.1-0.045-0.204-0.084-0.3-0.139
			c-0.401-0.253-0.824-0.472-1.196-0.77c-0.309-0.247-0.612-0.501-0.918-0.752c-0.013-0.119-0.119-0.17-0.186-0.247
			c-0.871-0.996-1.542-2.102-1.868-3.398c-0.427-1.753-0.426-3.502,0.057-5.245c0.202-0.682,0.44-1.344,0.855-1.939
			c0.352-0.505,0.734-0.984,1.126-1.456c0.035-0.039,0.068-0.081,0.106-0.117c0.645-0.597,1.39-1.049,2.15-1.479
			c0.743-0.327,1.514-0.574,2.302-0.765c0.699-0.102,1.404-0.152,2.109-0.19c0.862,0.055,1.719,0.154,2.558,0.368
			c0.782,0.241,1.532,0.559,2.24,0.97c0.362,0.275,0.728,0.544,1.056,0.864c0.177,0.173,0.216,0.278,0.006,0.467
			c-0.354,0.318-0.672,0.676-1.005,1.016c-0.415,0.407-0.834,0.809-1.242,1.222c-0.148,0.149-0.241,0.254-0.423,0.012
			c-0.152-0.202-0.387-0.34-0.586-0.507c-0.868-0.662-1.862-0.839-2.922-0.764c-0.588,0.021-1.147,0.152-1.666,0.435
			c-0.599,0.235-1.079,0.633-1.489,1.115c-1.407,1.652-1.616,4.401-0.477,6.317c0.455,0.766,1.064,1.375,1.903,1.723
			c0.56,0.3,1.162,0.429,1.794,0.437c0.202,0.002,0.405,0.022,0.605,0.004c0.823-0.077,1.604-0.279,2.255-0.829
			c0.247-0.22,0.542-0.389,0.737-0.664c0.1-0.14,0.167-0.132,0.286-0.018c0.404,0.387,0.818,0.762,1.228,1.141
			c0.399,0.381,0.791,0.769,1.202,1.137c0.161,0.144,0.148,0.228,0.009,0.376c-0.388,0.413-0.824,0.769-1.271,1.113
			c-0.718,0.464-1.494,0.807-2.303,1.076c-0.613,0.14-1.232,0.248-1.857,0.325c-0.181,0.001-0.361,0-0.542,0.004
			C42.972,40.665,42.257,40.622,41.547,40.512z"/>
		<path style="fill:#110B2B;" d="M36.942,38.146c0.306,0.251,0.609,0.505,0.918,0.752c0.372,0.297,0.795,0.516,1.196,0.77
			c-0.001,0.575-0.011,1.151,0,1.726c0.005,0.246-0.076,0.339-0.33,0.341c-0.357,0.002-0.719-0.065-1.072,0.046
			c-0.469,0-0.939,0-1.408,0c0.027-0.016,0.056-0.049,0.079-0.046c0.374,0.056,0.436-0.138,0.43-0.463
			c-0.018-0.891-0.008-1.782-0.005-2.673C36.751,38.426,36.725,38.232,36.942,38.146z"/>
		<path style="fill:#10092F;" d="M41.547,40.512c0.71,0.111,1.425,0.154,2.144,0.139c0.181-0.004,0.361-0.002,0.542-0.004
			c-0.385,0.02-0.42,0.266-0.386,0.574c0.019,0.167,0.003,0.338,0.003,0.507c-0.768,0-1.535,0-2.303,0
			C41.547,41.323,41.547,40.917,41.547,40.512z"/>
		<path style="fill:#130D29;" d="M34.945,29.256c-0.483,1.743-0.484,3.492-0.057,5.245c-0.146,0.132-0.122,0.307-0.122,0.476
			c0,2.095-0.002,4.191,0.002,6.286c0,0.187-0.024,0.359-0.125,0.517c-0.833,0-1.666,0.001-2.5,0.001
			c0.308-0.626,0.272-0.775-0.257-1.079c0.511-0.006,1.022-0.03,1.531-0.01c0.292,0.011,0.371-0.071,0.371-0.368
			c-0.009-5.559-0.007-11.118-0.008-16.677c0-0.115,0.029-0.235-0.039-0.343c-0.347-0.137-0.71-0.059-1.063-0.054
			c-0.29,0.005-0.377-0.09-0.349-0.364c0.021-0.2,0.004-0.403,0.004-0.605c0.874,0,1.749,0,2.623,0
			c-0.069,2.299,0.147,4.604-0.125,6.9C34.821,29.276,34.868,29.289,34.945,29.256z"/>
		<path style="fill:#140E26;" d="M31.887,40.701c0.529,0.304,0.565,0.454,0.257,1.079c-0.789,0-1.579,0-2.368,0.001
			c0-1.918,0.002-3.837-0.003-5.756c-0.001-0.21,0.036-0.448-0.212-0.573c0.549-1.448,0.714-2.947,0.603-4.485
			c-0.068-0.94-0.284-1.845-0.587-2.734c0.161-0.122,0.135-0.299,0.135-0.467c0-1.828,0-3.657,0-5.485c0.874,0,1.749,0,2.623,0
			c0,0.202,0.017,0.405-0.004,0.605c-0.028,0.275,0.059,0.369,0.349,0.364c0.353-0.006,0.715-0.083,1.063,0.054
			c-0.937,0.002-1.874,0.015-2.811-0.002c-0.273-0.005-0.327,0.078-0.327,0.337c0.01,2.918,0.006,5.836,0.006,8.754
			c0,2.641,0.004,5.282-0.006,7.924c-0.001,0.278,0.048,0.402,0.358,0.374C31.268,40.664,31.579,40.696,31.887,40.701z"/>
		<path style="fill:#120C2A;" d="M34.644,41.78c0.1-0.158,0.125-0.33,0.125-0.517c-0.004-2.095-0.003-4.191-0.002-6.286
			c0-0.169-0.025-0.344,0.122-0.476c0.326,1.296,0.997,2.402,1.868,3.398c0.067,0.077,0.173,0.128,0.186,0.247
			c-0.217,0.086-0.191,0.28-0.191,0.454c-0.003,0.891-0.013,1.782,0.005,2.673c0.007,0.325-0.056,0.519-0.43,0.463
			c-0.024-0.004-0.053,0.03-0.079,0.046C35.712,41.781,35.178,41.78,34.644,41.78z"/>
		<path style="fill:#150F25;" d="M29.561,35.452c0.248,0.125,0.211,0.363,0.212,0.573c0.005,1.919,0.003,3.837,0.003,5.756
			c-0.682,0-1.365,0.001-2.047,0.001c0-0.276,0.008-0.552-0.002-0.827c-0.031-0.92,0.078-1.843-0.068-2.759
			C28.471,37.405,29.109,36.493,29.561,35.452z"/>
		<path style="fill:#161121;" d="M23.761,40.269c0.894-0.264,1.752-0.613,2.561-1.08c0,0.864,0,1.729,0.001,2.593
			c-0.794,0.003-1.588,0.007-2.382,0.009c-0.103,0-0.241,0.019-0.235-0.137C23.723,41.193,23.625,40.726,23.761,40.269z"/>
		<path style="fill:#151023;" d="M26.322,41.782c0-0.864,0-1.729-0.001-2.593c0.468-0.301,0.907-0.642,1.338-0.993
			c0.146,0.917,0.037,1.84,0.068,2.759c0.009,0.275,0.002,0.551,0.002,0.827C27.26,41.782,26.791,41.782,26.322,41.782z"/>
		<path style="fill:#0C0537;" d="M53.958,23.308c-1.045,0.029-2.09,0.029-3.135,0c0.212-0.321,0.102-0.683,0.129-1.028
			c0.661,0,1.322,0,1.983,0c0.363,0,0.725,0,1.088,0C54.005,22.624,54.069,22.971,53.958,23.308z"/>
		<path style="fill:#0B0339;" d="M53.958,23.308c0.111-0.337,0.048-0.685,0.064-1.028c0.778,0,1.556,0.015,2.333-0.007
			c0.317-0.009,0.404,0.125,0.422,0.404c0.014,0.218-0.08,0.418-0.069,0.631C55.792,23.337,54.875,23.337,53.958,23.308z"/>
		<path style="fill:#0D0635;" d="M50.951,22.281c-0.027,0.345,0.083,0.706-0.129,1.028c-0.159,0.061-0.339-0.044-0.492,0.063
			c-0.007,0.084-0.021,0.168-0.021,0.253c-0.001,5.582,0.001,11.163-0.007,16.745c0,0.252,0.078,0.29,0.305,0.29
			c2.716-0.008,5.433-0.005,8.149-0.007c0.127,0,0.255-0.014,0.382-0.021c0.021,0.007,0.042,0.014,0.064,0.02
			c-0.1,0.089-0.222,0.051-0.334,0.052c-0.74,0.006-1.48,0.006-2.219,0.009c-0.854,0-1.708,0-2.562,0
			c-0.944-0.002-1.887-0.006-2.831-0.006c-0.108,0-0.267-0.033-0.214,0.168c0.075,0.283,0.019,0.57,0.038,0.854
			c-0.043,0-0.085,0-0.128,0c-0.832,0-1.663,0-2.495,0c0-0.479,0.008-0.958-0.003-1.437c-0.008-0.349,0.056-0.702-0.061-1.045
			c0.447-0.345,0.883-0.7,1.271-1.113c0.139-0.148,0.152-0.232-0.009-0.376c-0.411-0.368-0.802-0.757-1.202-1.137
			c0.055-0.174,0.07-0.351,0.069-0.533c-0.003-2.842-0.003-5.684,0-8.526c0-0.193-0.013-0.381-0.073-0.565
			c0.333-0.341,0.652-0.698,1.005-1.016c0.209-0.188,0.17-0.294-0.006-0.467c-0.328-0.32-0.694-0.589-1.056-0.864
			c0.071-0.114,0.065-0.242,0.065-0.369c-0.001-0.666,0-1.332,0-1.998c0.618,0,1.237,0,1.855,0
			C50.524,22.281,50.738,22.281,50.951,22.281z"/>
		<path style="fill:#0C0537;" d="M51.079,41.729c-0.019-0.284,0.037-0.571-0.038-0.854c-0.053-0.201,0.106-0.168,0.214-0.168
			c0.944,0,1.887,0.003,2.831,0.006c0,0.339-0.001,0.677-0.001,1.016c-0.021,0-0.043,0-0.064,0
			C53.041,41.729,52.06,41.729,51.079,41.729z"/>
		<path style="fill:#0B0339;" d="M54.086,41.729c0-0.339,0.001-0.677,0.001-1.016c0.854,0,1.708,0,2.562,0
			c0.12,0.286,0.05,0.585,0.052,0.878c0.002,0.178-0.158,0.136-0.265,0.136C55.652,41.73,54.869,41.729,54.086,41.729z"/>
		<path style="fill:#151023;" d="M27.535,25.42c-0.779-0.606-1.636-1.072-2.557-1.424c0-0.572,0-1.144,0-1.716
			c0.853,0,1.706,0,2.559,0c0.021,0,0.043,0,0.064,0c0,0.913,0,1.825,0,2.738C27.601,25.156,27.612,25.295,27.535,25.42z"/>
		<path style="fill:#171120;" d="M24.978,22.281c0,0.572,0,1.144,0,1.716c-1.204-0.409-2.447-0.608-3.71-0.699
			c0.114-0.333,0.045-0.677,0.064-1.016C22.547,22.281,23.762,22.281,24.978,22.281z"/>
		<path style="fill:#18131D;" d="M21.331,22.281c-0.019,0.339,0.05,0.683-0.064,1.016c-0.043-0.001-0.087-0.001-0.13-0.002
			c-0.1-0.092-0.223-0.052-0.335-0.053c-0.807-0.003-1.614-0.012-2.421,0.004c-0.261,0.005-0.337-0.084-0.317-0.329
			c0.017-0.211,0.004-0.424,0.004-0.637c0.235,0,0.469,0,0.704,0C19.626,22.281,20.479,22.281,21.331,22.281z"/>
		<path style="fill:#120C2A;" d="M34.945,29.256c-0.076,0.033-0.124,0.021-0.112-0.075c0.272-2.296,0.056-4.6,0.125-6.9
			c0.085,0,0.171,0,0.256,0c0.576,0,1.152,0,1.727,0c0,0.977-0.011,1.955,0.008,2.932c0.004,0.219-0.161,0.429-0.024,0.648
			c-0.393,0.472-0.774,0.951-1.126,1.456C35.385,27.911,35.147,28.573,34.945,29.256z"/>
		<path style="fill:#150F25;" d="M27.535,25.42c0.077-0.125,0.066-0.264,0.066-0.402c0-0.913,0-1.825,0-2.738
			c0.704,0,1.407,0,2.111,0c0,1.828,0,3.657,0,5.485c0,0.168,0.026,0.345-0.135,0.467C29.103,27.146,28.432,26.201,27.535,25.42z"/>
		<path style="fill:#0E0733;" d="M48.392,39.246c0.117,0.342,0.054,0.696,0.061,1.045c0.01,0.479,0.003,0.958,0.003,1.437
			c-0.213,0-0.426,0-0.64,0c-0.576,0-1.152,0-1.727,0c0-0.469,0-0.937,0-1.406C46.899,40.053,47.674,39.711,48.392,39.246z"/>
		<path style="fill:#0F0831;" d="M46.089,40.323c0,0.469,0,0.937,0,1.406c-0.746,0-1.493,0-2.239,0c0-0.169,0.015-0.34-0.003-0.507
			c-0.034-0.308,0.001-0.555,0.386-0.574C44.857,40.571,45.476,40.463,46.089,40.323z"/>
		<path style="fill:#19141B;" d="M18.069,22.281c0,0.212,0.014,0.426-0.004,0.637c-0.02,0.245,0.055,0.334,0.317,0.329
			c0.807-0.017,1.614-0.008,2.421-0.004c0.113,0,0.235-0.039,0.335,0.053c-1.625,0-3.249,0-4.962,0
			c0.676,0.439,1.358,0.684,1.942,1.097c-0.169,0.046-0.101,0.186-0.111,0.29c-0.037,0.397,0.073,0.802-0.07,1.193
			c-0.809-0.434-1.617-0.868-2.426-1.302c0.131-0.761,0.034-1.529,0.064-2.293C16.406,22.281,17.237,22.281,18.069,22.281z"/>
		<path style="fill:#110B2B;" d="M36.926,25.861c-0.137-0.219,0.028-0.429,0.024-0.648c-0.019-0.977-0.008-1.955-0.008-2.932
			c0.725,0,1.45,0,2.175,0c-0.023,0.604,0.049,1.21-0.041,1.812c-0.014,0.094,0.037,0.136,0.107,0.172
			c-0.76,0.43-1.505,0.882-2.15,1.479C36.993,25.779,36.961,25.822,36.926,25.861z"/>
		<path style="fill:#100A2D;" d="M39.182,24.265c-0.07-0.036-0.121-0.079-0.107-0.172c0.09-0.602,0.017-1.208,0.041-1.812
			c0.789,0,1.578,0,2.367,0c0,0.406,0.001,0.813,0.001,1.219C40.696,23.691,39.925,23.938,39.182,24.265z"/>
		<path style="fill:#10092F;" d="M41.484,23.5c0-0.406-0.001-0.813-0.001-1.219c0.043,0,0.085,0,0.128,0c0.725,0,1.45,0,2.175,0
			c-0.033,0.349,0.113,0.731-0.193,1.029C42.888,23.348,42.184,23.398,41.484,23.5z"/>
		<path style="fill:#0E0733;" d="M48.456,22.281c0,0.666-0.001,1.332,0,1.998c0,0.127,0.006,0.254-0.065,0.369
			c-0.709-0.411-1.458-0.729-2.24-0.97c0.001-0.466,0.001-0.932,0.002-1.398c0.576,0,1.152,0,1.727,0
			C48.072,22.281,48.264,22.281,48.456,22.281z"/>
		<path style="fill:#0F0831;" d="M46.153,22.281c-0.001,0.466-0.001,0.932-0.002,1.398c-0.84-0.214-1.696-0.313-2.558-0.368
			c0.306-0.298,0.16-0.68,0.193-1.029C44.575,22.281,45.364,22.281,46.153,22.281z"/>
		<path style="fill:#0B033A;" d="M60.099,33.541c-0.682,0-1.364,0.009-2.045-0.006c-0.247-0.006-0.332,0.061-0.328,0.32
			c0.015,0.916-0.012,1.833,0.015,2.748c0.01,0.341-0.104,0.411-0.415,0.398c-0.553-0.024-1.108-0.008-1.661-0.005
			c-0.102,0.001-0.216-0.035-0.299,0.063c-0.328,0.024-0.737,0.136-0.96-0.036c-0.199-0.153-0.055-0.579-0.058-0.884
			c-0.008-0.884-0.002-1.767-0.002-2.651c2.185-0.003,4.369-0.006,6.554-0.01c0.202,0,0.403-0.012,0.605-0.018
			c0.02,0.005,0.041,0.005,0.061-0.001c-0.068,0.123-0.187,0.078-0.286,0.079C60.886,33.543,60.492,33.541,60.099,33.541z"/>
		<path style="fill:#0A023B;" d="M56.965,26.892c0.175,0.119,0.371,0.051,0.556,0.055c0.499,0.011,0.999,0.018,1.497-0.002
			c0.262-0.011,0.321,0.085,0.318,0.328c-0.012,0.934-0.004,1.869-0.004,2.803c-0.788,0.003-1.576-0.006-2.363,0.015
			c-0.281,0.008-0.334-0.098-0.33-0.351c0.014-0.83-0.003-1.661,0.01-2.491c0.004-0.243-0.076-0.314-0.311-0.304
			c-0.382,0.017-0.767,0.015-1.149,0.001c-0.261-0.01-0.529,0.066-0.782-0.053C55.26,26.894,56.113,26.893,56.965,26.892z"/>
		<path style="fill:#0B0339;" d="M54.407,26.894c0.253,0.119,0.522,0.043,0.782,0.053c0.383,0.014,0.767,0.016,1.149-0.001
			c0.235-0.011,0.315,0.061,0.311,0.304c-0.014,0.83,0.003,1.661-0.01,2.491c-0.004,0.252,0.049,0.358,0.33,0.351
			c0.787-0.021,1.575-0.012,2.363-0.015c0.362,0,0.725,0,1.087,0c0.287,0.003,0.573,0.003,0.86,0.01
			c0.1,0.003,0.217-0.041,0.289,0.077c-0.126-0.009-0.253-0.027-0.38-0.027c-2.179-0.002-4.359-0.006-6.538,0.005
			c-0.257,0.001-0.316-0.073-0.312-0.319c0.015-0.882,0.003-1.765,0.009-2.647C54.348,27.083,54.279,26.964,54.407,26.894z"/>
		<path style="fill:#FCE900;" d="M59.138,40.632c-0.127,0.007-0.255,0.021-0.382,0.021c-2.716,0.001-5.433-0.001-8.149,0.007
			c-0.227,0.001-0.305-0.038-0.305-0.29c0.008-5.582,0.006-11.163,0.007-16.745c0-0.084,0.013-0.168,0.021-0.253
			c0.081,0.117,0.043,0.249,0.043,0.373c0.002,5.478,0.005,10.957-0.006,16.435c-0.001,0.328,0.087,0.406,0.408,0.404
			c2.665-0.013,5.329-0.008,7.994-0.006C58.893,40.579,59.027,40.535,59.138,40.632z"/>
		<path style="fill:#FEED00;" d="M61.504,33.46c-0.202,0.006-0.403,0.018-0.605,0.018c-2.185,0.004-4.369,0.007-6.554,0.01
			c0.062-0.105,0.167-0.075,0.258-0.075c2.23-0.001,4.46-0.001,6.689-0.001C61.366,33.412,61.442,33.403,61.504,33.46z"/>
		<path style="fill:#08003F;" d="M61.558,30.153c0.105,0.063,0.075,0.167,0.075,0.258c0.002,0.935,0.002,1.87,0,2.806
			c0,0.091,0.031,0.196-0.079,0.255C61.555,32.365,61.557,31.259,61.558,30.153z"/>
		<path style="fill:#1D1912;" d="M6.816,33.175c-0.01,0.595-0.86,1.253-1.433,1.106c-0.265-0.068-0.389-0.237-0.366-0.514
			c0.053-0.646,0.83-1.212,1.457-1.057C6.711,32.769,6.82,32.918,6.816,33.175z"/>
		<path style="fill:#1B1716;" d="M9.727,31.839c-0.407-0.004-0.616-0.292-0.498-0.684c0.144-0.478,0.733-0.914,1.231-0.911
			c0.424,0.002,0.639,0.302,0.506,0.705C10.8,31.457,10.259,31.845,9.727,31.839z"/>
		<path style="fill:#1D1912;" d="M6.167,27.567c0.484-0.008,0.734,0.366,0.519,0.789c-0.208,0.408-0.536,0.681-0.982,0.801
			C5.47,29.22,5.256,29.18,5.09,28.999c-0.156-0.17-0.127-0.375-0.06-0.573C5.179,27.99,5.733,27.574,6.167,27.567z"/>
		<path style="fill:#1B1716;" d="M10.378,25.334c0.477,0,0.717,0.355,0.519,0.787c-0.187,0.408-0.494,0.693-0.937,0.802
			c-0.455,0.112-0.837-0.286-0.715-0.733C9.359,25.769,9.935,25.334,10.378,25.334z"/>
		<path style="fill:#18131C;" d="M18.031,39.244c-0.12-0.038-0.099-0.121-0.101-0.225c-0.009-0.422,0.082-0.849-0.057-1.265
			c0.463-0.259,0.926-0.518,1.389-0.777c0.093-0.052,0.19-0.097,0.277-0.157c0.344-0.239,0.351-0.428-0.018-0.633
			c-0.99-0.551-1.992-1.079-2.989-1.619c-0.279-0.151-0.554-0.309-0.83-0.464c0.001-0.062-0.01-0.128,0.047-0.176
			c1.076,0.573,2.153,1.145,3.226,1.722c0.269,0.145,0.51,0.343,0.823,0.396c0.139,0.059,0.197,0.147,0.194,0.314
			c-0.011,0.605,0.002,1.21,0.005,1.815C19.355,38.555,18.701,38.914,18.031,39.244z"/>
		<path style="fill:#1C1815;" d="M8.596,37.32c-0.291,0.003-0.573-0.037-0.812-0.219c-0.283-0.216-0.289-0.486-0.025-0.723
			c0.394-0.354,1.264-0.359,1.661-0.011c0.27,0.237,0.255,0.539-0.037,0.748C9.196,37.247,8.919,37.319,8.596,37.32z"/>
		<path style="fill:#19151A;" d="M15.856,37.321c-0.227,0.013-0.495-0.043-0.734-0.201c-0.313-0.207-0.324-0.529-0.033-0.768
			c0.401-0.329,1.249-0.313,1.645,0.03c0.252,0.219,0.253,0.491-0.009,0.704C16.49,37.278,16.206,37.319,15.856,37.321z"/>
		<path style="fill:#18121E;" d="M19.997,38.174c-0.004-0.605-0.016-1.21-0.005-1.815c0.003-0.167-0.054-0.255-0.194-0.314
			c0.309,0.038,0.419-0.138,0.441-0.409c0.004-0.053,0.005-0.106,0.005-0.159c0.001-2.37,0.001-4.74,0.001-7.11
			c0-0.469-0.115-0.902-0.389-1.288c0.151-0.067,0.132-0.202,0.132-0.329c0-0.341,0.001-0.682,0-1.023
			c0-0.12-0.008-0.243,0.159-0.259c0.524,0.277,0.889,0.708,1.156,1.224c0.086,0.166,0.172,0.249,0.37,0.273
			c0.342,0.042,0.691,0.086,1.011,0.236c-0.014,0.015-0.042,0.031-0.04,0.045c0.071,0.756,0.015,1.514,0.031,2.271
			c0.005,0.231,0.022,0.464-0.061,0.687c-0.359-0.252-0.738-0.446-1.192-0.433c-0.119,0.051-0.088,0.159-0.088,0.249
			c-0.002,1.278-0.002,2.556,0,3.834c0,0.091-0.031,0.197,0.08,0.255c0.457,0.044,0.828-0.167,1.189-0.404
			c0.079,0.135,0.074,0.284,0.074,0.433c0.001,0.846,0.004,1.692,0.006,2.537c-0.414,0.181-0.86,0.221-1.3,0.288
			c-0.115,0.018-0.21,0.028-0.271,0.168C20.893,37.638,20.497,37.965,19.997,38.174z"/>
		<path style="fill:#18131D;" d="M20.147,25.47c-0.168,0.016-0.16,0.139-0.159,0.259c0.001,0.341,0,0.682,0,1.023
			c0,0.127,0.02,0.262-0.132,0.329c-0.306-0.391-0.757-0.565-1.174-0.79c-0.25-0.135-0.497-0.276-0.746-0.414
			c0.143-0.391,0.033-0.796,0.07-1.193c0.01-0.105-0.059-0.244,0.111-0.29C18.813,24.714,19.489,25.075,20.147,25.47z"/>
		<path style="fill:#1A1519;" d="M14.009,25.346c0.586,0.016,1.186,0.583,1.188,1.122c0.001,0.335-0.212,0.561-0.536,0.524
			c-0.553-0.062-0.984-0.316-1.205-0.854C13.264,25.671,13.502,25.332,14.009,25.346z"/>
		<path style="fill:#18131C;" d="M18.213,32.708c0.494,0.016,1.062,0.454,1.19,0.919c0.109,0.399-0.093,0.672-0.508,0.685
			c-0.506,0.016-1.095-0.393-1.255-0.872C17.49,32.991,17.724,32.692,18.213,32.708z"/>
		<path style="fill:#1A1519;" d="M13.963,27.722c0.483-0.005,1.071,0.432,1.207,0.897c0.137,0.468-0.134,0.799-0.616,0.72
			c-0.527-0.087-0.927-0.367-1.11-0.887C13.298,28.038,13.529,27.727,13.963,27.722z"/>
		<path style="fill:#1A1519;" d="M13.973,30.244c0.478,0.003,1.048,0.421,1.191,0.873c0.139,0.44-0.088,0.75-0.542,0.74
			c-0.475-0.011-1.008-0.397-1.174-0.849C13.28,30.553,13.495,30.241,13.973,30.244z"/>
		<path style="fill:#18131C;" d="M18.21,27.569c0.522,0.008,1.129,0.55,1.201,1.071c0.036,0.262-0.283,0.544-0.613,0.541
			c-0.451-0.004-1.031-0.444-1.158-0.878C17.532,27.935,17.821,27.563,18.21,27.569z"/>
		<path style="fill:#18131C;" d="M18.751,31.761c-0.435-0.017-0.907-0.373-1.074-0.788c-0.101-0.252-0.03-0.462,0.128-0.648
			c0.144-0.171,0.345-0.193,0.555-0.143c0.43,0.103,0.739,0.362,0.939,0.749C19.554,31.423,19.314,31.783,18.751,31.761z"/>
		<path style="fill:#161121;" d="M22.682,36.678c-0.002-0.846-0.005-1.692-0.006-2.537c0-0.149,0.005-0.298-0.074-0.433
			c1.036-1.093,1.04-2.37,0.011-3.502c0.083-0.224,0.066-0.457,0.061-0.687c-0.016-0.757,0.04-1.515-0.031-2.271
			c-0.001-0.014,0.026-0.03,0.04-0.045c1.361,0.367,2.361,1.173,2.86,2.501c0.556,1.477,0.556,2.988-0.006,4.464
			C25.035,35.488,24.038,36.301,22.682,36.678z"/>
		<path style="fill:#0F0831;" d="M43.276,26.959c1.06-0.075,2.055,0.102,2.922,0.764c-0.073,0.094-0.043,0.205-0.043,0.308
			c-0.002,2.607-0.002,5.214,0,7.821c0,0.103-0.031,0.214,0.046,0.307c-0.651,0.55-1.432,0.752-2.255,0.829
			c-0.2,0.019-0.403-0.001-0.605-0.004c0.367-0.014,0.39-0.239,0.389-0.546c-0.011-2.935-0.007-5.871-0.007-8.806
			C43.722,27.097,43.722,27.097,43.276,26.959z"/>
		<path style="fill:#10092F;" d="M43.276,26.959c0.446,0.139,0.446,0.139,0.446,0.674c0,2.935-0.005,5.871,0.007,8.806
			c0.001,0.308-0.021,0.532-0.389,0.546c-0.631-0.008-1.233-0.137-1.794-0.437c-0.097-0.186,0.007-0.372,0.007-0.558
			c-0.009-2.72-0.006-5.441-0.006-8.161c0-0.148-0.016-0.299,0.063-0.435C42.129,27.111,42.688,26.98,43.276,26.959z"/>
		<path style="fill:#0E0733;" d="M46.2,36.16c-0.077-0.093-0.046-0.204-0.046-0.307c-0.002-2.607-0.002-5.214,0-7.821
			c0-0.104-0.03-0.214,0.043-0.308c0.198,0.167,0.434,0.305,0.586,0.507c0.182,0.242,0.275,0.138,0.423-0.012
			c0.409-0.413,0.828-0.816,1.242-1.222c0.061,0.184,0.074,0.372,0.073,0.565c-0.003,2.842-0.003,5.684,0,8.526
			c0,0.183-0.015,0.36-0.069,0.533c-0.41-0.38-0.825-0.755-1.228-1.141c-0.119-0.114-0.187-0.122-0.286,0.018
			C46.743,35.771,46.447,35.94,46.2,36.16z"/>
		<path style="fill:#100A2E;" d="M41.609,27.394c-0.079,0.137-0.062,0.287-0.063,0.435c0,2.72-0.003,5.441,0.006,8.161
			c0.001,0.186-0.104,0.372-0.007,0.558c-0.839-0.348-1.448-0.957-1.903-1.723c-1.139-1.916-0.93-4.665,0.477-6.317
			C40.531,28.027,41.011,27.628,41.609,27.394z"/>
		<path style="fill:#FEE500;" d="M31.887,40.701c-0.308-0.006-0.619-0.037-0.924-0.01c-0.31,0.028-0.359-0.096-0.358-0.374
			c0.01-2.641,0.006-5.282,0.006-7.924c0-2.918,0.004-5.836-0.006-8.754c-0.001-0.259,0.054-0.342,0.327-0.337
			c0.937,0.016,1.874,0.003,2.811,0.002c0.067,0.108,0.039,0.228,0.039,0.343c0.001,5.559-0.001,11.118,0.008,16.677
			c0,0.296-0.079,0.379-0.371,0.368C32.909,40.672,32.398,40.696,31.887,40.701z"/>
		<path style="fill:#E7E7E7;" d="M22.613,30.206c1.029,1.132,1.025,2.409-0.011,3.502c-0.362,0.237-0.732,0.448-1.189,0.404
			c0.003-1.446,0.005-2.892,0.008-4.338C21.875,29.76,22.254,29.954,22.613,30.206z"/>
		<path style="fill:#120E19;" d="M21.42,29.772c-0.003,1.446-0.005,2.892-0.008,4.338c-0.111-0.059-0.08-0.164-0.08-0.255
			c-0.002-1.278-0.002-2.556,0-3.834C21.333,29.931,21.302,29.824,21.42,29.772z"/>
	</g>
</g>
</svg>
