<?xml version="1.0" encoding="utf-8"?>
<!-- Generator: Adobe Illustrator 23.0.2, SVG Export Plug-In . SVG Version: 6.00 Build 0)  -->
<svg version="1.1" id="Layer_1" xmlns="http://www.w3.org/2000/svg" xmlns:xlink="http://www.w3.org/1999/xlink" x="0px" y="0px"
	 width="64px" height="64px" viewBox="0 0 64 64" enable-background="new 0 0 64 64" xml:space="preserve">
<g>
	<g>
		<path fill="#FEE500" d="M35.284,21.705c7.91,0,15.82,0,23.73,0c2.399,0,4.638,1.99,4.926,4.372c0.042,0.35,0.06,0.7,0.06,1.052
			c-0.002,3.283,0,6.567-0.002,9.85c-0.002,2.543-1.682,4.629-4.157,5.168c-0.408,0.089-0.823,0.101-1.24,0.101
			c-5.757,0.005-11.513,0.002-17.27,0.021c-7.281,0.024-14.562,0.047-21.843,0.015c-2.11-0.009-4.22-0.073-6.33-0.118
			c-0.437-0.009-0.873-0.04-1.309-0.065c-0.419-0.024-0.807-0.131-1.183-0.338c-2.126-1.172-4.285-2.288-6.384-3.506
			c-1.086-0.63-1.763-1.612-1.761-2.949c0.003-2.335,0.004-4.669,0-7.004C2.518,26.94,3.115,25.929,4.3,25.274
			c1.976-1.093,3.96-2.17,5.938-3.258c0.392-0.216,0.801-0.315,1.252-0.315C19.421,21.707,27.352,21.705,35.284,21.705z"/>
		<path fill="#010101" d="M0.937,32.695c-0.234,0-0.47-0.015-0.702,0.004c-0.215,0.017-0.202-0.103-0.211-0.252
			c-0.011-0.175,0.055-0.231,0.217-0.205c0.01,0.002,0.021,0,0.032,0c0.442-0.007,0.596-0.206,0.452-0.635
			c-0.075-0.226-0.296-0.096-0.441-0.095c-0.21,0.001-0.273-0.06-0.261-0.267c0.008-0.151,0.046-0.2,0.2-0.197
			c0.489,0.009,0.979,0.012,1.469-0.001c0.185-0.005,0.207,0.075,0.203,0.226C1.89,31.41,1.901,31.53,1.702,31.505
			c-0.115-0.014-0.236,0.011-0.351-0.005c-0.21-0.03-0.242,0.067-0.241,0.252c0.004,0.488-0.005,0.493,0.481,0.487
			c0.183-0.002,0.33-0.019,0.307,0.251c-0.015,0.173-0.068,0.215-0.227,0.208C1.427,32.686,1.182,32.695,0.937,32.695z"/>
		<path fill="#020202" d="M0.96,29.362C0.656,29.329,0.186,29.49,0.083,29.3c-0.153-0.28-0.046-0.7-0.056-1.06
			c-0.003-0.112,0.041-0.137,0.147-0.145c0.178-0.014,0.253,0.04,0.233,0.227c-0.015,0.137,0.002,0.276-0.004,0.414
			c-0.006,0.126,0.022,0.192,0.173,0.192c0.152,0,0.177-0.07,0.172-0.194c-0.006-0.138,0.006-0.277-0.003-0.414
			c-0.01-0.147,0.062-0.176,0.191-0.179c0.134-0.003,0.195,0.033,0.183,0.177c-0.011,0.127,0.004,0.255-0.004,0.382
			c-0.009,0.148,0.012,0.23,0.199,0.23c0.195,0,0.199-0.098,0.193-0.238c-0.006-0.138,0.003-0.276-0.002-0.414
			c-0.005-0.138-0.005-0.239,0.191-0.24c0.189-0.001,0.21,0.085,0.197,0.231c-0.005,0.053,0,0.106-0.001,0.159
			c-0.005,0.297,0.103,0.693-0.047,0.864C1.67,29.491,1.264,29.327,0.96,29.362z"/>
		<path fill="#010101" d="M1.173,35.132c-0.106,0-0.214,0.008-0.319-0.002c-0.288-0.027-0.532-0.019-0.45,0.387
			c0.03,0.148-0.089,0.138-0.185,0.136c-0.092-0.001-0.194,0.028-0.192-0.13c0.006-0.415,0.006-0.83,0-1.245
			c-0.003-0.157,0.096-0.132,0.189-0.131c0.095,0.001,0.22-0.011,0.188,0.136c-0.098,0.451,0.19,0.41,0.477,0.399
			c0.276-0.011,0.554,0.009,0.83-0.006c0.175-0.01,0.192,0.074,0.182,0.209c-0.009,0.121,0.039,0.266-0.177,0.249
			C1.535,35.121,1.354,35.132,1.173,35.132z"/>
		<path fill="#08003F" d="M62.063,23.5c1.083,1.013,1.504,2.282,1.498,3.741c-0.014,3.279-0.004,6.558-0.004,9.837
			c0,1.175-0.383,2.21-1.149,3.1c-0.123,0.143-0.273,0.263-0.41,0.394c-0.156-0.012-0.158-0.121-0.135-0.231
			c0.109-0.505,0.085-1.012,0.036-1.52c0.122-0.405,0.305-0.79,0.368-1.214c0.06-0.402,0.03-0.452-0.369-0.454
			c-0.689-0.004-1.378,0.001-2.067-0.002c-0.147-0.001-0.299,0.019-0.43-0.077c-0.025-0.037-0.022-0.072,0.008-0.105
			c0.227-0.122,0.472-0.058,0.71-0.069c0.468-0.019,0.937-0.004,1.406-0.008c0.488-0.004,0.516-0.03,0.519-0.531
			c0.003-0.373,0.001-0.746,0.001-1.118c0-2.482,0-4.963,0-7.445c0-0.107,0.002-0.213-0.001-0.319
			c-0.012-0.377-0.053-0.419-0.43-0.426c-0.394-0.008-0.788,0.009-1.182-0.009c-0.241,0.011-0.481,0.011-0.722,0.001
			c-0.121-0.005-0.258,0.007-0.327-0.134c0.101-0.151,0.262-0.117,0.404-0.119c0.688-0.006,1.376-0.001,2.065-0.003
			c0.458-0.002,0.483-0.041,0.404-0.504c-0.054-0.315-0.179-0.609-0.25-0.918c0.043-0.565,0.108-1.131-0.027-1.694
			C61.962,23.604,61.961,23.522,62.063,23.5z"/>
		<path fill="#1E1A10" d="M4.125,37.628c-0.563-0.634-1.117-1.259-1.111-2.195c0.016-2.404,0.001-4.808,0.007-7.212
			c0.002-0.941,0.378-1.701,1.161-2.244c0.174,0.12,0.152,0.307,0.164,0.482c0.022,0.321-0.049,0.648,0.064,0.964
			C4.228,28,4.272,28.591,4.278,29.187c0.014,1.445-0.067,2.889-0.082,4.335c-0.087,0.681-0.061,1.364-0.014,2.046
			c0.051,0.174,0.168,0.324,0.184,0.511c-0.035,0.366-0.011,0.733-0.026,1.099C4.332,37.354,4.327,37.54,4.125,37.628z"/>
		<path fill="#1B1717" d="M9.881,22.811c0.452-0.238,0.861-0.579,1.408-0.589c0.443,0.069,0.891-0.005,1.335,0.04
			c0.117,0.106,0.098,0.25,0.099,0.385c0.002,0.222,0.002,0.444,0.057,0.661c-0.42,0.339-0.381,0.808-0.379,1.278
			c0.007,2.057,0.014,4.115-0.002,6.172c-0.007,0.892,0.405,1.49,1.163,1.901c0.44,0.238,0.895,0.447,1.314,0.723
			c0.054,0.087,0.057,0.169-0.023,0.244c-0.16,0.074-0.292-0.016-0.419-0.085c-0.449-0.244-0.907-0.469-1.355-0.715
			c-0.578-0.317-1.152-0.305-1.706,0.005c-0.78,0.436-1.601,0.794-2.377,1.237c-0.125,0.072-0.25,0.171-0.415,0.119
			c-0.08-0.085-0.114-0.179-0.061-0.292c0.3-0.263,0.675-0.399,1.013-0.599c0.486-0.288,1.001-0.523,1.489-0.808
			c0.63-0.368,0.934-0.927,0.937-1.638c0.011-2.249,0.009-4.498,0.001-6.747c-0.002-0.61-0.363-0.817-0.915-0.542
			c-0.248,0.124-0.48,0.277-0.73,0.398c-0.104,0.05-0.203,0.126-0.329,0.062C9.761,23.633,9.845,23.22,9.881,22.811z"/>
		<path fill="#1A1519" d="M16.596,41.783c-1.45,0.002-2.9-0.025-4.347-0.123c0.161-0.212,0.179-0.456,0.168-0.71
			c-0.007-0.168-0.011-0.342,0.145-0.462c0.914-0.436,1.785-0.952,2.687-1.411c0.1-0.051,0.209-0.134,0.309,0.006
			c0.086,0.303,0.029,0.613,0.044,0.919c0.008,0.17-0.006,0.343,0.122,0.481c0.097,0.099,0.221,0.059,0.334,0.059
			c1.608,0,3.216,0,4.824,0.002c0.168,0,0.343-0.026,0.496,0.078c0.057,0.078-0.008,0.107-0.058,0.141
			c-0.101,0.044-0.208,0.045-0.314,0.045c-0.97-0.003-1.939,0.013-2.909-0.007c-0.732,0.009-1.464-0.002-2.197,0.006
			c-0.122,0.001-0.283-0.026-0.324,0.133c-0.053,0.204-0.078,0.422,0.028,0.62c0.042,0.079,0.15,0.066,0.234,0.07
			c0.159,0.007,0.319-0.008,0.477,0.009C16.424,41.649,16.561,41.623,16.596,41.783z"/>
		<path fill="#1C1814" d="M9.881,22.811c0.097,0.24,0.064,0.492,0.06,0.739c-0.002,0.159,0.029,0.308,0.067,0.459
			c0.022,0.113-0.07,0.147-0.14,0.185c-1.035,0.568-2.068,1.137-3.103,1.704c-0.109,0.06-0.233,0.136-0.331-0.027
			c-0.046-0.388-0.085-0.775-0.01-1.164C7.558,24.042,8.72,23.427,9.881,22.811z"/>
		<path fill="#1D1912" d="M8.537,33.933c0.021,0.08,0.042,0.159,0.064,0.239c-0.146,0.246-0.419,0.314-0.643,0.442
			c-0.951,0.543-1.913,1.067-2.881,1.579c-0.131,0.069-0.284,0.146-0.29,0.313c-0.006,0.178,0.165,0.229,0.291,0.304
			c0.403,0.238,0.821,0.449,1.229,0.679c0.102,0.058,0.209,0.109,0.259,0.226c0.044,0.301,0.009,0.602,0.002,0.903
			c-0.003,0.131-0.056,0.245-0.203,0.281c-0.752-0.414-1.54-0.764-2.239-1.271c0.168-0.232,0.113-0.499,0.128-0.758
			c0.016-0.279-0.064-0.565,0.062-0.835c1.373-0.53,2.59-1.361,3.902-2.007C8.316,33.978,8.405,33.877,8.537,33.933z"/>
		<path fill="#1C1814" d="M6.364,38.899c0.115-0.115,0.133-0.255,0.128-0.411c-0.008-0.263-0.002-0.527-0.002-0.79
			c0.114-0.085,0.201,0.003,0.29,0.05c0.911,0.483,1.811,0.986,2.722,1.469c0.146,0.078,0.313,0.146,0.363,0.336
			c-0.008,0.255-0.02,0.511-0.024,0.766c-0.002,0.148-0.01,0.302-0.156,0.397C8.578,40.11,7.471,39.505,6.364,38.899z"/>
		<path fill="#110A2D" d="M40.201,41.801c-0.353,0.031-0.705,0.033-1.058-0.001c-0.492,0.049-0.984,0.017-1.476,0.017
			c-0.048-0.196,0.119-0.16,0.209-0.174c0.188-0.03,0.381-0.012,0.572-0.013c0.49-0.003,0.496-0.016,0.508-0.494
			c0.012-0.465-0.048-0.932,0.04-1.395c0.073-0.133,0.184-0.081,0.279-0.046c0.698,0.258,1.389,0.534,2.121,0.688
			c0.086,0.018,0.155,0.068,0.193,0.153c0.038,0.407,0.148,0.816-0.051,1.213c-0.345,0.024-0.691,0.001-1.036,0.013
			C40.401,41.765,40.292,41.72,40.201,41.801z"/>
		<path fill="#17121F" d="M37.654,41.781c0.496,0.006,0.992,0.013,1.489,0.019c-0.53,0.063-1.062,0.027-1.593,0.028
			c-5.25,0.008-10.5,0.009-15.75,0.012c-0.095,0-0.191-0.011-0.286-0.016c-0.14,0.007-0.192-0.086-0.196-0.2
			c-0.01-0.306-0.055-0.613,0.013-0.918c0.021-0.018,0.043-0.037,0.064-0.055c0.12-0.13,0.289-0.126,0.44-0.139
			c0.547-0.05,1.083-0.159,1.619-0.27c0.11-0.023,0.227-0.07,0.327,0.032c0.043,0.349,0.002,0.699,0.015,1.048
			c0.012,0.333,0.038,0.367,0.367,0.371c0.722,0.009,1.444-0.006,2.165,0.007c0.467-0.012,0.935-0.011,1.402-0.001
			c0.681-0.012,1.362-0.013,2.043,0c0.788-0.012,1.577-0.015,2.365,0.001c0.83-0.014,1.66-0.011,2.489-0.004
			c0.536-0.002,1.072-0.01,1.608,0c0.341,0.025,0.681-0.016,1.022-0.003C37.396,41.697,37.539,41.678,37.654,41.781z"/>
		<path fill="#18131E" d="M21.332,40.705c0.125,0.265,0.042,0.546,0.062,0.818c0.008,0.116-0.017,0.239,0.121,0.3
			c-0.849,0.027-1.699,0.036-2.547-0.023c-0.3-0.114-0.621,0.027-0.921-0.077c-0.111-0.34-0.14-0.678,0.024-1.011
			C19.157,40.71,20.244,40.707,21.332,40.705z"/>
		<path fill="#09013E" d="M61.955,38.852c0.109,0.505,0.118,1.01-0.025,1.509c-0.029,0.102-0.013,0.159,0.067,0.212
			c-0.668,0.659-1.478,1.024-2.4,1.159c-0.228,0.086-0.278-0.059-0.289-0.233c-0.017-0.26-0.013-0.521-0.016-0.781
			c0.027-0.158,0.158-0.184,0.282-0.213c0.907-0.212,1.618-0.711,2.157-1.466C61.787,38.96,61.811,38.831,61.955,38.852z"/>
		<path fill="#09013E" d="M62.063,23.5c0.094,0.33,0.085,0.668,0.085,1.006c0,0.285,0.002,0.57-0.067,0.849
			c-0.141,0.008-0.162-0.115-0.214-0.2c-0.507-0.831-1.22-1.389-2.166-1.638c-0.113-0.03-0.23-0.049-0.284-0.174
			c-0.018-0.064-0.018-0.13,0.017-0.184c0.137-0.211,0.155-0.427,0.065-0.662c-0.033-0.087-0.076-0.212,0.098-0.222
			c0.583,0.106,1.15,0.256,1.656,0.582C61.543,23.045,61.842,23.223,62.063,23.5z"/>
		<path fill="#1B1716" d="M9.685,40.716c0.151-0.394-0.015-0.823,0.131-1.218c0.152-0.068,0.269,0.03,0.384,0.094
			c0.363,0.201,0.739,0.378,1.097,0.586c0.306,0.178,0.622,0.262,0.972,0.253c0.124-0.004,0.258-0.022,0.362,0.08
			c-0.235,0.213-0.116,0.493-0.119,0.74c-0.002,0.215-0.053,0.351-0.264,0.408c-0.517,0.023-1.006-0.048-1.459-0.333
			C10.434,41.103,10.054,40.918,9.685,40.716z"/>
		<path fill="#0A023C" d="M59.597,22.276c-0.02,0.023-0.063,0.06-0.058,0.068c0.223,0.36,0.073,0.69-0.079,1.02
			c-0.07,0.081-0.167,0.096-0.263,0.085c-0.723-0.084-1.448-0.022-2.171-0.045c-0.107-0.003-0.214-0.008-0.308-0.068
			c-0.105-0.105-0.075-0.234-0.065-0.359c0.045-0.552,0.003-0.596-0.56-0.598c-0.689-0.003-1.377,0.007-2.066-0.005
			c-0.354-0.014-0.713,0.058-1.062-0.055c-0.039-0.025-0.049-0.059-0.03-0.102c1.341-0.005,2.682-0.011,4.022-0.015
			c0.639-0.002,1.278-0.006,1.916,0.002C59.115,22.208,59.363,22.177,59.597,22.276z"/>
		<path fill="#0A023C" d="M59.331,40.644c0.126,0.274,0.047,0.564,0.06,0.847c0.007,0.148,0.029,0.252,0.206,0.241
			c-0.082,0.019-0.163,0.053-0.245,0.055c-1.777,0.039-3.554,0.031-5.331,0.006c-0.02-0.04-0.012-0.073,0.024-0.1
			c0.033-0.021,0.068-0.035,0.106-0.044c0.681-0.04,1.362-0.008,2.044-0.018c0.394-0.006,0.408-0.024,0.418-0.417
			c0.005-0.178-0.056-0.362,0.039-0.533c0.135-0.091,0.288-0.062,0.435-0.065c0.692-0.015,1.384,0.025,2.075-0.023
			C59.226,40.588,59.284,40.597,59.331,40.644z"/>
		<path fill="#1D1912" d="M6.424,24.707c0.125,0.404,0.04,0.819,0.068,1.228c-0.03,0.191-0.21,0.224-0.337,0.297
			c-0.283,0.162-0.569,0.32-0.858,0.473c-0.347,0.184-0.641,0.437-0.932,0.694c-0.17-0.044-0.106-0.184-0.113-0.289
			c-0.025-0.378,0.053-0.762-0.071-1.134C4.893,25.49,5.661,25.103,6.424,24.707z"/>
		<path fill="#1A151B" d="M18.07,40.712c0,0.339-0.001,0.678-0.001,1.016c-0.272,0.085-0.558-0.02-0.83,0.058
			c-0.214-0.001-0.429-0.002-0.643-0.004c-0.286-0.12-0.586-0.041-0.878-0.048c-0.206-0.005-0.273-0.065-0.276-0.275
			c-0.012-0.755-0.019-0.756,0.747-0.755C16.816,40.706,17.443,40.71,18.07,40.712z"/>
		<path fill="#100C21" d="M18.773,22.218c0.425-0.005,0.849-0.014,1.274-0.014c2.38-0.002,4.761-0.001,7.141-0.001
			c0.116,0,0.233,0.01,0.349,0.015c0.018,0.045,0.006,0.08-0.036,0.104c-0.107,0.059-0.224,0.059-0.34,0.059
			c-0.73-0.001-1.46,0.01-2.189-0.005c-1.21,0.013-2.419,0.015-3.629,0c-0.742,0.014-1.484,0.005-2.226,0.005
			c-0.106,0-0.213-0.004-0.309-0.058C18.766,22.298,18.754,22.263,18.773,22.218z"/>
		<path fill="#0E0928" d="M27.537,22.281c0-0.021,0-0.042,0-0.063c1.306-0.005,2.612-0.014,3.918-0.014
			c1.253,0,2.506,0.009,3.759,0.014c0.019,0.041,0.01,0.074-0.027,0.099c-0.089,0.054-0.189,0.051-0.288,0.058
			c-0.855,0.013-1.711,0.013-2.566,0.001c-0.869,0.012-1.738,0.014-2.608,0c-0.695-0.005-1.391,0.041-2.086-0.026
			C27.599,22.336,27.565,22.313,27.537,22.281z"/>
		<path fill="#0B0632" d="M40.201,41.801c0.235-0.148,0.494-0.05,0.74-0.069c0.201-0.016,0.403-0.003,0.605-0.003
			c0.103-0.093,0.231-0.101,0.358-0.1c0.646,0,1.293-0.012,1.939,0.006c0.744-0.011,1.488-0.014,2.231,0
			c0.456-0.013,0.912-0.004,1.368-0.004c0.116,0,0.234,0,0.341,0.06c0.041,0.026,0.051,0.061,0.032,0.104
			c-1.668,0.007-3.335,0.017-5.003,0.02C41.943,41.816,41.072,41.806,40.201,41.801z"/>
		<path fill="#130F1A" d="M18.773,22.218c0,0.021,0,0.042,0,0.063c-0.222,0.165-0.477,0.079-0.718,0.094
			c-0.828,0.014-1.655,0.013-2.483,0.001c-0.86,0.018-1.721,0.006-2.581,0.006c-0.128,0-0.256-0.007-0.359-0.101
			c-0.447-0.034-0.899,0.07-1.342-0.059c0.127-0.006,0.254-0.018,0.38-0.019c2.251-0.001,4.503-0.001,6.754-0.001
			C18.54,22.203,18.656,22.213,18.773,22.218z"/>
		<path fill="#0C072D" d="M35.214,22.281c0-0.021,0-0.042,0-0.063c1.581-0.005,3.162-0.012,4.743-0.015
			c0.551-0.001,1.103,0.009,1.654,0.014c0.019,0.041,0.01,0.075-0.028,0.1c-0.052,0.033-0.111,0.044-0.17,0.053
			c-0.767,0.018-1.535,0.013-2.302,0.004c-0.723,0.012-1.445,0.013-2.167,0c-0.457,0.016-0.915,0.007-1.372,0.005
			C35.445,22.38,35.313,22.384,35.214,22.281z"/>
		<path fill="#0A0633" d="M41.611,22.281c0-0.021,0-0.042,0-0.063c1.39-0.005,2.78-0.013,4.169-0.014c0.7-0.001,1.4,0.009,2.1,0.014
			c0.019,0.044,0.007,0.078-0.034,0.103c-0.564,0.126-1.135,0.035-1.703,0.055c-0.786,0.013-1.571,0.013-2.357,0.001
			c-0.606,0.017-1.212,0.007-1.818,0.005C41.842,22.381,41.71,22.384,41.611,22.281z"/>
		<path fill="#0C0537" d="M47.816,41.794c0-0.022,0-0.044,0-0.066c0.199-0.155,0.431-0.082,0.651-0.094
			c0.713-0.016,1.427-0.006,2.14-0.005c0.106,0,0.214,0.004,0.31,0.059c0.041,0.026,0.052,0.061,0.033,0.105
			C49.906,41.821,48.861,41.819,47.816,41.794z"/>
		<path fill="#0B0339" d="M50.951,41.794c0-0.022,0-0.043,0-0.065c0.044-0.051,0.103-0.071,0.166-0.083
			c0.87-0.041,1.741-0.014,2.611-0.015c0.106,0,0.214,0.011,0.294,0.097c0,0.022,0,0.043,0,0.065
			C52.998,41.821,51.975,41.82,50.951,41.794z"/>
		<path fill="#0B0339" d="M52.934,22.217c0,0.021,0,0.042,0,0.063c-0.099,0.103-0.231,0.099-0.357,0.099
			c-0.53,0.001-1.06,0.013-1.589-0.006c-0.217-0.008-0.438,0.038-0.648-0.056c-0.039-0.025-0.048-0.059-0.029-0.101
			C51.186,22.217,52.06,22.217,52.934,22.217z"/>
		<path fill="#0C0537" d="M50.311,22.217c0,0.021,0,0.042,0,0.063c-0.098,0.102-0.229,0.099-0.354,0.099
			c-0.494,0.001-0.988,0.013-1.483-0.005c-0.202-0.01-0.415,0.056-0.595-0.094c0-0.021,0-0.042,0-0.063
			C48.691,22.217,49.501,22.217,50.311,22.217z"/>
		<path fill="#120E1D" d="M17.239,41.786c0.269-0.127,0.554-0.025,0.83-0.058c0.298,0.037,0.609-0.08,0.898,0.072
			C18.391,41.796,17.815,41.791,17.239,41.786z"/>
		<path fill="#FEE500" d="M59.331,40.644c-0.043,0.003-0.086,0.005-0.13,0.008c-0.042,0.008-0.084,0.006-0.125-0.005
			c-2.673,0.004-5.346,0.033-8.019,0.021c-0.772-0.003-0.772-0.001-0.773-0.765c-0.003-5.507,0.006-11.014-0.005-16.521
			c0.125-0.257,0.362-0.151,0.559-0.172c1.039-0.012,2.079-0.016,3.118,0c0.787-0.019,1.574-0.006,2.361-0.007
			c0.139,0,0.279,0.002,0.39,0.105c0.569,0.006,1.139,0.009,1.708,0.019c0.348,0.006,0.695,0.024,1.043,0.037
			c0.238,0.073,0.482,0.131,0.714,0.223c0.864,0.341,1.468,0.968,1.908,1.769c0.135,0.38,0.259,0.762,0.311,1.166
			c0.032,0.251,0.008,0.376-0.313,0.368c-0.894-0.023-1.788-0.001-2.683,0.003c-0.114,0.107-0.257,0.082-0.391,0.083
			c-0.676,0.006-1.352-0.005-2.028,0.007c-0.695-0.009-1.391-0.007-2.086-0.005c-0.124,0-0.255-0.026-0.365,0.062
			c-0.106,0.116-0.081,0.26-0.082,0.396c-0.003,0.713-0.003,1.426-0.001,2.139c0.001,0.449,0.023,0.471,0.465,0.473
			c2.043,0.009,4.086,0.016,6.13,0.013c0.159,0,0.32-0.018,0.476,0.031c0.039,0.017,0.07,0.042,0.094,0.077
			c0.026,0.047,0.043,0.098,0.043,0.152c0.005,1.022,0.032,2.044-0.013,3.066c-0.012,0.04-0.034,0.076-0.063,0.105
			c-0.038,0.018-0.079,0.024-0.12,0.02c-2.222-0.021-4.444-0.003-6.666-0.009c-0.107,0-0.215-0.004-0.291,0.091
			c-0.067,0.106-0.056,0.226-0.056,0.342c-0.001,0.861-0.002,1.722,0,2.583c0.001,0.423,0.019,0.437,0.458,0.441
			c0.159,0.001,0.319-0.009,0.478,0.003c0.847,0.01,1.694,0.01,2.54-0.003c0.361,0.019,0.723,0.003,1.084,0.009
			c0.137,0.003,0.279-0.015,0.393,0.089c0.904,0.005,1.808,0.023,2.711,0.008c0.278-0.005,0.314,0.1,0.289,0.331
			c-0.055,0.514-0.223,0.991-0.441,1.454c-0.517,0.804-1.196,1.401-2.136,1.663C59.657,40.559,59.494,40.601,59.331,40.644z"/>
		<path fill="#09013E" d="M60.419,26.951c0.447,0,0.896,0.016,1.342-0.006c0.305-0.015,0.39,0.116,0.388,0.394
			c-0.006,1.278-0.003,2.557-0.003,3.835c0,1.79,0,3.579,0,5.369c0,0.434-0.019,0.451-0.449,0.452c-0.533,0-1.065,0-1.598,0
			c-0.094-0.103-0.101-0.232-0.101-0.36c-0.004-0.916-0.004-1.832,0-2.749c0-0.117,0.003-0.235,0.071-0.339
			c0.205-0.136,0.434-0.05,0.652-0.069c0.281-0.024,0.564,0.03,0.844-0.019l-0.011,0.013c0.071-0.041,0.049-0.112,0.049-0.172
			c0.001-0.99,0.001-1.981,0-2.971c0-0.061,0.018-0.13-0.045-0.176l0.01,0.011c-0.231-0.102-0.475-0.02-0.711-0.047
			c-0.154-0.017-0.316,0.044-0.465-0.042c-0.08-0.112-0.075-0.242-0.075-0.369c-0.003-0.788-0.003-1.575,0-2.363
			C60.318,27.204,60.317,27.064,60.419,26.951z"/>
		<path fill="#0A023C" d="M60.099,33.541c0,1.151,0,2.302,0,3.453c-0.235,0-0.469,0-0.704,0c-0.365,0.067-0.733,0.012-1.1,0.032
			c-0.124,0.007-0.253-0.033-0.372,0.032c-0.853,0.026-1.706,0.026-2.559,0c0.054-0.206,0.232-0.157,0.366-0.161
			c0.468-0.015,0.937-0.004,1.405-0.006c0.483-0.002,0.491-0.009,0.492-0.507c0.002-0.798-0.003-1.597,0.002-2.395
			c0.003-0.474,0.045-0.512,0.505-0.513c0.543-0.001,1.086-0.002,1.629,0.001C59.878,33.479,60.002,33.448,60.099,33.541z"/>
		<path fill="#09013E" d="M60.419,26.951c0,1.042,0,2.084,0,3.125c-0.364,0.077-0.73,0.043-1.096,0.018
			c-0.115-0.136-0.09-0.301-0.091-0.458c-0.004-0.713,0-1.427-0.002-2.14c-0.002-0.429-0.015-0.441-0.454-0.443
			c-0.479-0.002-0.958,0.008-1.437-0.006c-0.135-0.004-0.311,0.046-0.372-0.155c0.81,0,1.621,0,2.431,0
			C59.731,27.018,60.079,26.918,60.419,26.951z"/>
		<path fill="#09013E" d="M57.924,37.059c0.281-0.136,0.579-0.039,0.869-0.061c0.2-0.015,0.402-0.003,0.603-0.003
			c0,0.021,0,0.043,0,0.064C58.905,37.085,58.414,37.084,57.924,37.059z"/>
		<path fill="#CBCBCB" d="M4.365,27.398c0.161-0.298,0.422-0.488,0.705-0.652c0.472-0.274,0.948-0.541,1.422-0.812
			c1.187-0.615,2.359-1.257,3.516-1.926c0.346-0.184,0.692-0.368,1.04-0.55c0.562-0.295,1.018-0.039,1.018,0.592
			c0.002,2.278,0.001,4.555-0.016,6.833c-0.005,0.761-0.35,1.345-1.031,1.713c-0.827,0.446-1.655,0.892-2.482,1.337
			c-1.242,0.675-2.485,1.351-3.727,2.025c-0.154,0.084-0.321,0.106-0.495,0.077c-0.114-0.103-0.134-0.253-0.192-0.384
			c-0.049-0.704-0.054-1.408,0.003-2.112c0.01-1.645,0.026-3.29,0.024-4.934C4.15,28.185,4.181,27.781,4.365,27.398z"/>
		<path fill="#19140C" d="M4.126,33.539c-0.001,0.704-0.002,1.408-0.003,2.112c-0.097-0.083-0.062-0.196-0.062-0.297
			c-0.003-0.507-0.003-1.013,0-1.52C4.061,33.733,4.025,33.62,4.126,33.539z"/>
		<path fill="#868686" d="M12.631,40.511c-0.58,0.066-1.107-0.065-1.607-0.375c-0.386-0.239-0.804-0.427-1.208-0.638
			c-1.109-0.6-2.218-1.2-3.326-1.8C6,37.423,5.51,37.147,5.021,36.871c-0.157-0.089-0.349-0.173-0.339-0.382
			c0.009-0.187,0.188-0.272,0.337-0.354c1.194-0.656,2.388-1.309,3.583-1.963c0.831-0.43,1.678-0.833,2.489-1.297
			c0.75-0.429,1.453-0.489,2.217-0.034c0.477,0.285,0.962,0.571,1.488,0.769c0.367,0.042,0.622,0.325,0.955,0.44
			c1.222,0.653,2.438,1.316,3.661,1.965c0.192,0.102,0.437,0.196,0.438,0.462c0.001,0.272-0.229,0.392-0.435,0.505
			c-0.505,0.276-1.006,0.559-1.515,0.827c-0.612,0.315-1.207,0.659-1.813,0.984c-0.184,0.099-0.352,0.239-0.577,0.244
			c-0.701,0.371-1.403,0.741-2.102,1.115C13.155,40.288,12.903,40.421,12.631,40.511z"/>
		<path fill="#E7E7E7" d="M14.87,33.431c-0.648-0.332-1.329-0.61-1.901-1.075c-0.42-0.341-0.646-0.792-0.658-1.33
			c-0.05-2.354-0.021-4.709-0.007-7.064c0.002-0.334,0.173-0.531,0.461-0.655c0.199-0.157,0.386-0.051,0.566,0.035
			c0.75,0.36,1.463,0.79,2.205,1.164c0.8,0.451,1.617,0.871,2.426,1.307c0.433,0.217,0.846,0.471,1.284,0.68
			c0.299,0.143,0.546,0.356,0.741,0.626c0.265,0.359,0.352,0.776,0.353,1.207c0.008,2.364,0.006,4.728,0.001,7.092
			c-0.001,0.464-0.101,0.609-0.437,0.7c-0.175,0.013-0.336-0.038-0.486-0.121c-1.187-0.655-2.393-1.275-3.582-1.925
			c-0.037-0.02-0.07-0.047-0.103-0.074C15.475,33.764,15.09,33.723,14.87,33.431z"/>
		<path fill="#1A1519" d="M15.51,24.574c-0.683-0.362-1.368-0.72-2.048-1.087c-0.22-0.119-0.444-0.197-0.697-0.18
			c-0.152-0.02-0.133-0.136-0.133-0.239c-0.001-0.262,0-0.524,0-0.787c0.981,0,1.962,0,2.943,0c0.178,0.732,0.137,1.465,0.019,2.199
			C15.587,24.52,15.546,24.549,15.51,24.574z"/>
		<path fill="#1A151C" d="M14.87,33.431c0.299,0.155,0.613,0.284,0.879,0.497c-0.018,0.058,0.024,0.132-0.047,0.176
			c-0.314-0.142-0.618-0.304-0.907-0.493C14.873,33.573,14.87,33.501,14.87,33.431z"/>
		<path fill="#FEE500" d="M23.761,40.269c-0.779,0.187-1.568,0.312-2.365,0.381c-1.827,0.001-3.653,0.003-5.48,0.004
			c-0.085,0-0.177,0.019-0.253-0.007c-0.163-0.056,0.046-0.083,0.019-0.134c0.02-0.15,0.16-0.154,0.257-0.206
			c0.685-0.361,1.369-0.721,2.034-1.119c0.686-0.34,1.354-0.71,2.014-1.098c0.441-0.213,0.822-0.488,1.027-0.956
			c0.096-0.218,0.303-0.253,0.505-0.276c0.392-0.045,0.774-0.136,1.153-0.243c1.81-0.548,2.931-1.943,3.129-3.833
			c0.073-0.696,0.062-1.38-0.06-2.064c-0.316-1.774-1.336-2.926-3.062-3.45c-0.305-0.095-0.615-0.188-0.931-0.21
			c-0.299-0.021-0.443-0.171-0.573-0.418c-0.248-0.468-0.621-0.83-1.071-1.11c-0.58-0.333-1.167-0.655-1.77-0.945
			c-0.105-0.051-0.215-0.091-0.307-0.167c-0.441-0.235-0.873-0.486-1.323-0.702c-0.115-0.055-0.225-0.119-0.329-0.194
			c-0.068-0.049-0.169-0.099-0.153-0.187c0.02-0.112,0.143-0.113,0.234-0.116c0.478-0.018,0.955-0.011,1.433-0.007
			c1.072,0.009,2.145,0.003,3.217,0.003c0.055-0.007,0.111-0.001,0.166,0.001c1.257,0.081,2.494,0.268,3.686,0.692
			c0.934,0.373,1.837,0.803,2.613,1.461c0.955,0.784,1.62,1.779,2.098,2.908c0.361,0.932,0.529,1.898,0.591,2.896
			c0.061,0.985-0.003,1.952-0.197,2.916c-0.091,0.451-0.252,0.879-0.397,1.313c-0.478,1.068-1.086,2.046-1.955,2.846
			c-0.437,0.361-0.877,0.721-1.368,1.009c-0.725,0.437-1.496,0.767-2.306,1.006C23.946,40.287,23.854,40.333,23.761,40.269z"/>
		<path fill="#19141B" d="M18.031,39.244c-0.768,0.451-1.546,0.885-2.35,1.268c-0.176-0.027-0.172-0.16-0.171-0.292
			c0-0.394,0-0.788-0.001-1.182c0.774-0.454,1.561-0.885,2.364-1.285c0.17,0.079,0.152,0.239,0.157,0.383
			C18.046,38.506,18.021,38.875,18.031,39.244z"/>
		<path fill="#FEE500" d="M41.547,40.512c-0.746-0.186-1.486-0.389-2.191-0.705c-0.1-0.045-0.204-0.084-0.3-0.139
			c-0.116,0.027-0.205-0.036-0.295-0.09c-0.675-0.403-1.324-0.842-1.886-1.398c-0.596-0.653-1.09-1.381-1.515-2.153
			c-0.271-0.493-0.473-1.019-0.568-1.58c-0.231-0.936-0.356-1.884-0.31-2.848c0.037-0.778,0.141-1.547,0.372-2.294
			c0.152-0.725,0.445-1.388,0.856-2.004c0.349-0.521,0.731-1.015,1.157-1.475c0.52-0.605,1.21-0.984,1.875-1.394
			c0.143-0.088,0.302-0.153,0.45-0.236c0.74-0.378,1.531-0.599,2.337-0.776c0.674-0.167,1.368-0.135,2.052-0.206
			c0.693,0.086,1.397,0.081,2.078,0.261c0.154,0.041,0.31,0.068,0.46,0.123c0.801,0.23,1.575,0.525,2.279,0.981
			c0.413,0.267,0.788,0.578,1.13,0.932c0.178,0.184,0.193,0.325,0.004,0.508c-0.352,0.34-0.696,0.689-1.039,1.039
			c-0.415,0.406-0.826,0.818-1.233,1.232c-0.184,0.187-0.329,0.217-0.523,0.002c-0.182-0.203-0.415-0.358-0.618-0.544
			c-0.742-0.504-1.566-0.723-2.457-0.712c-0.127,0.002-0.254,0-0.381,0.004c-0.578,0.013-1.115,0.19-1.64,0.41
			c-1.271,0.611-2.065,1.624-2.426,2.965c-0.435,1.615-0.264,3.167,0.645,4.598c0.42,0.662,1.008,1.145,1.719,1.477
			c0.559,0.246,1.136,0.412,1.752,0.416c1.015,0.051,1.954-0.169,2.788-0.772c0.253-0.255,0.578-0.429,0.799-0.722
			c0.126-0.167,0.264-0.091,0.375,0.029c0.375,0.404,0.826,0.729,1.203,1.131c0.367,0.386,0.801,0.701,1.159,1.097
			c0.238,0.264,0.24,0.314-0.008,0.58c-0.372,0.399-0.783,0.751-1.229,1.064c-0.735,0.479-1.521,0.848-2.364,1.094
			c-0.611,0.166-1.231,0.277-1.863,0.326c-0.74,0.007-1.479,0.035-2.217-0.054C41.815,40.657,41.657,40.652,41.547,40.512z"/>
		<path fill="#110B2B" d="M36.942,38.146c0.306,0.251,0.609,0.505,0.918,0.752c0.372,0.297,0.795,0.516,1.196,0.77
			c-0.001,0.575-0.011,1.151,0,1.726c0.005,0.246-0.076,0.339-0.33,0.341c-0.357,0.002-0.719-0.065-1.072,0.046
			c-0.469,0-0.939,0-1.408,0c0.005-0.03-0.001-0.074,0.036-0.081c0.388-0.07,0.373-0.357,0.371-0.654
			c-0.007-0.764-0.003-1.527-0.002-2.291c0-0.148-0.007-0.3,0.051-0.44C36.743,38.216,36.772,38.074,36.942,38.146z"/>
		<path fill="#10092F" d="M41.547,40.512c0.71,0.111,1.425,0.154,2.144,0.139c0.181-0.004,0.361-0.002,0.542-0.004
			c-0.295,0.201-0.321,0.498-0.295,0.817c0.008,0.096-0.018,0.19-0.087,0.264c-0.768,0-1.535,0-2.303,0
			C41.547,41.323,41.547,40.917,41.547,40.512z"/>
		<path fill="#130D29" d="M34.945,29.256c-0.483,1.743-0.484,3.492-0.057,5.245c-0.076,0.165-0.019,0.336-0.019,0.503
			c-0.002,2.073,0.001,4.146-0.004,6.219c0,0.21,0.014,0.435-0.221,0.557c-0.833,0-1.666,0.001-2.5,0.001
			c-0.015-0.016-0.035-0.04-0.028-0.054c0.178-0.365,0.196-0.686-0.2-0.936c-0.1-0.063-0.003-0.121,0.068-0.154
			c0.403-0.068,0.808-0.024,1.212-0.033c0.476-0.011,0.506-0.031,0.506-0.51c0.002-3.59,0.001-7.18,0.001-10.77
			c0-1.8,0.001-3.601-0.001-5.401c0-0.168,0.028-0.343-0.074-0.496c-0.098-0.11-0.228-0.095-0.355-0.096
			c-0.106,0-0.213,0.009-0.317-0.002c-0.223-0.023-0.523,0.106-0.644-0.134c-0.142-0.281-0.14-0.613,0.023-0.914
			c0.874,0,1.749,0,2.623,0c0.109,0.124,0.099,0.276,0.099,0.424c0.002,1.819,0,3.638,0.002,5.458c0,0.281-0.075,0.547-0.123,0.818
			C34.919,29.075,34.88,29.166,34.945,29.256z"/>
		<path fill="#140E26" d="M31.887,40.701c0.529,0.304,0.565,0.454,0.257,1.079c-0.789,0-1.579,0-2.368,0
			c-0.138-0.152-0.1-0.34-0.101-0.516c-0.003-1.666-0.002-3.332-0.001-4.999c0-0.277-0.016-0.551-0.113-0.814
			c0.549-1.448,0.714-2.947,0.603-4.485c-0.068-0.94-0.284-1.845-0.587-2.734c0.072-1.8,0.013-3.6,0.034-5.4
			c0.002-0.188-0.036-0.387,0.101-0.552c0.874,0,1.749,0,2.623,0c0,0.202,0.017,0.405-0.004,0.605
			c-0.028,0.275,0.059,0.369,0.349,0.364c0.353-0.006,0.715-0.083,1.063,0.054c-0.13,0.128-0.297,0.101-0.454,0.102
			c-0.704,0.005-1.407,0-2.111,0.003c-0.448,0.001-0.466,0.018-0.466,0.47C30.71,27.439,30.711,31,30.711,34.561
			c0,1.823,0,3.646,0,5.469c0,0.57,0.001,0.565,0.559,0.574C31.479,40.607,31.701,40.551,31.887,40.701z"/>
		<path fill="#120C2A" d="M34.644,41.78c0.1-0.158,0.125-0.33,0.125-0.517c-0.004-2.095-0.003-4.191-0.002-6.286
			c0-0.169-0.025-0.344,0.122-0.476c0.326,1.296,0.997,2.402,1.868,3.398c0.067,0.077,0.173,0.128,0.186,0.247
			c-0.217,0.086-0.191,0.28-0.191,0.454c-0.003,0.891-0.013,1.782,0.005,2.673c0.007,0.325-0.056,0.519-0.43,0.463
			c-0.024-0.004-0.053,0.03-0.079,0.046C35.712,41.781,35.178,41.78,34.644,41.78z"/>
		<path fill="#150F25" d="M29.561,35.452c0.248,0.125,0.211,0.363,0.212,0.573c0.005,1.919,0.003,3.837,0.003,5.756
			c-0.682,0-1.365,0.001-2.047,0.001c-0.116-0.12-0.099-0.274-0.101-0.42c-0.015-0.974,0.023-1.948-0.022-2.921
			c-0.004-0.087,0.018-0.168,0.054-0.245C28.471,37.405,29.109,36.493,29.561,35.452z"/>
		<path fill="#161121" d="M23.761,40.269c0.894-0.264,1.752-0.613,2.561-1.08c0.095,0.089,0.097,0.209,0.099,0.325
			c0.006,0.647,0.006,1.295,0,1.942c-0.001,0.117-0.006,0.235-0.098,0.326c-0.794,0.003-1.588,0.007-2.382,0.009
			c-0.103,0-0.241,0.019-0.235-0.137C23.723,41.193,23.625,40.726,23.761,40.269z"/>
		<path fill="#151023" d="M26.322,41.782c0-0.864,0-1.729-0.001-2.593c0.468-0.301,0.907-0.642,1.338-0.993
			c0.146,0.917,0.037,1.84,0.068,2.759c0.009,0.275,0.002,0.551,0.002,0.827C27.26,41.782,26.791,41.782,26.322,41.782z"/>
		<path fill="#0C0537" d="M53.958,23.308c-1.045,0.029-2.09,0.029-3.135,0c0.042-0.343-0.027-0.699,0.129-1.028
			c0.661,0,1.322,0,1.983,0c0.363,0,0.725,0,1.088,0C54.159,22.633,54.209,22.98,53.958,23.308z"/>
		<path fill="#0B0339" d="M53.958,23.308c0.111-0.337,0.048-0.685,0.064-1.028c0.778,0,1.556,0.015,2.333-0.007
			c0.317-0.009,0.404,0.125,0.422,0.404c0.014,0.218-0.08,0.418-0.069,0.631C55.792,23.337,54.875,23.337,53.958,23.308z"/>
		<path fill="#0D0635" d="M50.951,22.281c-0.027,0.345,0.083,0.706-0.129,1.028c-0.159,0.061-0.339-0.044-0.492,0.063
			c0.023,0.127,0.011,0.255,0.011,0.383c0.001,5.487,0,10.975,0.001,16.462c0,0.439-0.044,0.393,0.392,0.393
			c2.685,0.001,5.37,0,8.055,0.001c0.116,0,0.234-0.02,0.349,0.021c0.021,0.007,0.042,0.014,0.064,0.02
			c-0.1,0.089-0.222,0.051-0.334,0.052c-0.74,0.006-1.48,0.006-2.219,0.009c-0.092,0.09-0.211,0.091-0.326,0.092
			c-0.738,0.002-1.476,0.014-2.213-0.005c-0.842,0.01-1.684,0.001-2.526,0.005c-0.412,0.002-0.409,0.003-0.408,0.403
			c0.001,0.179,0.034,0.366-0.096,0.522c-0.043,0-0.085,0-0.128,0c-0.832,0-1.663,0-2.495,0c-0.085-0.094-0.096-0.21-0.098-0.327
			c-0.01-0.668,0.007-1.336-0.011-2.005c-0.001-0.054,0.016-0.104,0.045-0.15c0.447-0.345,0.883-0.7,1.271-1.113
			c0.139-0.148,0.152-0.232-0.009-0.376c-0.411-0.368-0.802-0.757-1.202-1.137c-0.046-0.088-0.047-0.183-0.047-0.28
			c0.016-3.021,0.018-6.042-0.001-9.063c-0.001-0.097,0.006-0.191,0.044-0.281c0.333-0.341,0.652-0.698,1.005-1.016
			c0.209-0.188,0.17-0.294-0.006-0.467c-0.328-0.32-0.694-0.589-1.056-0.864c-0.077-0.721-0.03-1.444-0.023-2.166
			c0.001-0.076,0.037-0.143,0.087-0.201c0.618,0,1.237,0,1.855,0C50.524,22.281,50.738,22.281,50.951,22.281z"/>
		<path fill="#0C0537" d="M51.079,41.729c-0.019-0.284,0.037-0.571-0.038-0.854c-0.053-0.201,0.106-0.168,0.214-0.168
			c0.944,0,1.887,0.003,2.831,0.006c0.153,0.339,0.149,0.677-0.001,1.016c-0.021,0-0.043,0-0.064,0
			C53.041,41.729,52.06,41.729,51.079,41.729z"/>
		<path fill="#0B0339" d="M54.086,41.729c0-0.339,0.001-0.677,0.001-1.016c0.854,0,1.708,0,2.562,0
			c0.12,0.286,0.05,0.585,0.052,0.878c0.002,0.178-0.158,0.136-0.265,0.136C55.652,41.73,54.869,41.729,54.086,41.729z"/>
		<path fill="#151023" d="M27.535,25.42c-0.779-0.606-1.636-1.072-2.557-1.424c-0.185-0.313-0.087-0.656-0.096-0.985
			c-0.007-0.244-0.07-0.506,0.096-0.731c0.853,0,1.706,0,2.559,0c0.021,0,0.043,0,0.064,0c0.094,0.103,0.1,0.232,0.101,0.36
			c0.004,0.787,0.006,1.574-0.002,2.361C27.699,25.158,27.712,25.329,27.535,25.42z"/>
		<path fill="#171120" d="M24.978,22.281c0,0.572,0,1.144,0,1.716c-1.204-0.409-2.447-0.608-3.71-0.699
			c-0.053-0.343-0.089-0.686,0.064-1.016C22.547,22.281,23.762,22.281,24.978,22.281z"/>
		<path fill="#18131D" d="M21.331,22.281c-0.019,0.339,0.05,0.683-0.064,1.016c-0.043-0.001-0.087-0.001-0.13-0.002
			c-0.828-0.054-1.657-0.001-2.485-0.029c-0.21-0.007-0.504,0.133-0.617-0.097c-0.133-0.271-0.132-0.597,0.034-0.888
			c0.235,0,0.469,0,0.704,0C19.626,22.281,20.479,22.281,21.331,22.281z"/>
		<path fill="#120C2A" d="M34.945,29.256c-0.076,0.033-0.124,0.021-0.112-0.075c0.272-2.296,0.056-4.6,0.125-6.9
			c0.085,0,0.171,0,0.256,0c0.576,0,1.152,0,1.727,0c0.109,0.123,0.099,0.274,0.1,0.422c0.002,0.825-0.002,1.65,0.003,2.475
			c0.001,0.238-0.072,0.457-0.118,0.684c-0.393,0.472-0.774,0.951-1.126,1.456C35.385,27.911,35.147,28.573,34.945,29.256z"/>
		<path fill="#150F25" d="M27.535,25.42c0.077-0.125,0.066-0.264,0.066-0.402c0-0.913,0-1.825,0-2.738c0.704,0,1.407,0,2.111,0
			c0,1.828,0,3.657,0,5.485c0,0.168,0.026,0.345-0.135,0.467C29.103,27.146,28.432,26.201,27.535,25.42z"/>
		<path fill="#0E0733" d="M48.392,39.246c0.117,0.342,0.054,0.696,0.061,1.045c0.01,0.479,0.003,0.958,0.003,1.437
			c-0.213,0-0.426,0-0.64,0c-0.576,0-1.152,0-1.727,0c-0.162-0.469-0.162-0.937,0-1.406C46.899,40.053,47.674,39.711,48.392,39.246z
			"/>
		<path fill="#0F0831" d="M46.089,40.323c0,0.469,0,0.937,0,1.406c-0.746,0-1.493,0-2.239,0c0-0.169,0.015-0.34-0.003-0.507
			c-0.034-0.308,0.001-0.555,0.386-0.574C44.857,40.571,45.476,40.463,46.089,40.323z"/>
		<path fill="#19141B" d="M18.069,22.281c0,0.212,0.014,0.426-0.004,0.637c-0.02,0.245,0.055,0.334,0.317,0.329
			c0.807-0.017,1.614-0.008,2.421-0.004c0.113,0,0.235-0.039,0.335,0.053c-1.625,0-3.249,0-4.962,0
			c0.676,0.439,1.358,0.684,1.942,1.097c-0.028,0.357-0.008,0.714-0.02,1.071c-0.005,0.153,0.018,0.324-0.161,0.413
			c-0.809-0.434-1.617-0.868-2.426-1.302c0.131-0.761,0.034-1.529,0.064-2.293C16.406,22.281,17.237,22.281,18.069,22.281z"/>
		<path fill="#110B2B" d="M36.926,25.861c-0.137-0.219,0.028-0.429,0.024-0.648c-0.019-0.977-0.008-1.955-0.008-2.932
			c0.725,0,1.45,0,2.175,0c0.076,0.085,0.093,0.189,0.093,0.297c-0.001,0.562,0.023,1.125-0.027,1.687
			c-0.76,0.43-1.505,0.882-2.15,1.479C36.993,25.779,36.961,25.822,36.926,25.861z"/>
		<path fill="#100A2D" d="M39.182,24.265c-0.07-0.036-0.121-0.079-0.107-0.172c0.09-0.602,0.017-1.208,0.041-1.812
			c0.789,0,1.578,0,2.367,0c0.161,0.406,0.158,0.813,0.001,1.219C40.696,23.691,39.925,23.938,39.182,24.265z"/>
		<path fill="#10092F" d="M41.484,23.5c0-0.406-0.001-0.813-0.001-1.219c0.043,0,0.085,0,0.128,0c0.725,0,1.45,0,2.175,0
			c0.196,0.427,0.124,0.81-0.193,1.029C42.888,23.348,42.184,23.398,41.484,23.5z"/>
		<path fill="#0E0733" d="M48.456,22.281c0,0.666-0.001,1.332,0,1.998c0,0.127,0.006,0.254-0.065,0.369
			c-0.709-0.411-1.458-0.729-2.24-0.97c-0.027-0.017-0.07-0.03-0.071-0.059c-0.025-0.449-0.099-0.9,0.073-1.338
			c0.576,0,1.152,0,1.727,0C48.072,22.281,48.264,22.281,48.456,22.281z"/>
		<path fill="#0F0831" d="M46.153,22.281c-0.001,0.466-0.001,0.932-0.002,1.398c-0.84-0.214-1.696-0.313-2.558-0.368
			c0.306-0.298,0.16-0.68,0.193-1.029C44.575,22.281,45.364,22.281,46.153,22.281z"/>
		<path fill="#0B033A" d="M60.099,33.541c-0.682,0-1.364,0.009-2.045-0.006c-0.247-0.006-0.332,0.061-0.328,0.32
			c0.015,0.916-0.012,1.833,0.015,2.748c0.01,0.341-0.104,0.411-0.415,0.398c-0.553-0.024-1.108-0.008-1.661-0.005
			c-0.102,0.001-0.216-0.035-0.299,0.063c-0.328,0.024-0.737,0.136-0.96-0.036c-0.199-0.153-0.055-0.579-0.058-0.884
			c-0.008-0.884-0.002-1.767-0.002-2.651c0.059-0.066,0.139-0.042,0.21-0.043c2.274-0.001,4.548-0.001,6.822-0.001
			c0.043,0,0.085,0.004,0.126,0.015c0.02,0.005,0.041,0.005,0.061-0.001c-0.068,0.123-0.187,0.078-0.286,0.079
			C60.886,33.543,60.492,33.541,60.099,33.541z"/>
		<path fill="#0A023B" d="M56.965,26.892c0.175,0.119,0.371,0.051,0.556,0.055c0.499,0.011,0.999,0.018,1.497-0.002
			c0.262-0.011,0.321,0.085,0.318,0.328c-0.012,0.934-0.004,1.869-0.004,2.803c-0.226,0.085-0.461,0.034-0.692,0.037
			c-0.554,0.009-1.108,0.003-1.662,0.003c-0.394,0-0.428-0.028-0.433-0.437c-0.008-0.618-0.002-1.236-0.003-1.854
			c0-0.128,0.002-0.256-0.001-0.384c-0.01-0.352-0.037-0.382-0.387-0.387c-0.458-0.006-0.917,0.007-1.375-0.007
			c-0.134-0.004-0.311,0.048-0.372-0.154C55.26,26.894,56.113,26.893,56.965,26.892z"/>
		<path fill="#0B0339" d="M54.407,26.894c0.253,0.119,0.522,0.043,0.782,0.053c0.383,0.014,0.767,0.016,1.149-0.001
			c0.235-0.011,0.315,0.061,0.311,0.304c-0.014,0.83,0.003,1.661-0.01,2.491c-0.004,0.252,0.049,0.358,0.33,0.351
			c0.787-0.021,1.575-0.012,2.363-0.015c0.362,0,0.725,0,1.087,0c0.287,0.003,0.573,0.003,0.86,0.01
			c0.1,0.003,0.217-0.041,0.289,0.077c-0.126-0.009-0.253-0.027-0.38-0.027c-2.179-0.002-4.359-0.006-6.538,0.005
			c-0.257,0.001-0.316-0.073-0.312-0.319c0.015-0.882,0.003-1.765,0.009-2.647C54.348,27.083,54.279,26.964,54.407,26.894z"/>
		<path fill="#FCE900" d="M59.138,40.632c-0.127,0.007-0.255,0.021-0.382,0.021c-2.716,0.001-5.433-0.001-8.149,0.007
			c-0.227,0.001-0.305-0.038-0.305-0.29c0.008-5.582,0.006-11.163,0.007-16.745c0-0.084,0.013-0.168,0.021-0.253
			c0.081,0.117,0.043,0.249,0.043,0.373c0.002,5.478,0.005,10.957-0.006,16.435c-0.001,0.328,0.087,0.406,0.408,0.404
			c2.665-0.013,5.329-0.008,7.994-0.006C58.893,40.579,59.027,40.535,59.138,40.632z"/>
		<path fill="#FEED00" d="M61.504,33.46c-0.202,0.006-0.403,0.018-0.605,0.018c-2.185,0.004-4.369,0.007-6.554,0.01
			c0.062-0.105,0.167-0.075,0.258-0.075c2.23-0.001,4.46-0.001,6.689-0.001C61.366,33.412,61.442,33.403,61.504,33.46z"/>
		<path fill="#08003F" d="M61.558,30.153c0.105,0.063,0.075,0.167,0.075,0.258c0.002,0.935,0.002,1.87,0,2.806
			c0,0.091,0.031,0.196-0.079,0.255C61.555,32.365,61.557,31.259,61.558,30.153z"/>
		<path fill="#1D1912" d="M6.816,33.175c-0.01,0.595-0.86,1.253-1.433,1.106c-0.265-0.068-0.389-0.237-0.366-0.514
			c0.053-0.646,0.83-1.212,1.457-1.057C6.711,32.769,6.82,32.918,6.816,33.175z"/>
		<path fill="#1B1716" d="M9.727,31.839c-0.407-0.004-0.616-0.292-0.498-0.684c0.144-0.478,0.733-0.914,1.231-0.911
			c0.424,0.002,0.639,0.302,0.506,0.705C10.8,31.457,10.259,31.845,9.727,31.839z"/>
		<path fill="#1D1912" d="M6.167,27.567c0.484-0.008,0.734,0.366,0.519,0.789c-0.208,0.408-0.536,0.681-0.982,0.801
			C5.47,29.22,5.256,29.18,5.09,28.999c-0.156-0.17-0.127-0.375-0.06-0.573C5.179,27.99,5.733,27.574,6.167,27.567z"/>
		<path fill="#1B1716" d="M10.378,25.334c0.477,0,0.717,0.355,0.519,0.787c-0.187,0.408-0.494,0.693-0.937,0.802
			c-0.455,0.112-0.837-0.286-0.715-0.733C9.359,25.769,9.935,25.334,10.378,25.334z"/>
		<path fill="#18131C" d="M18.031,39.244c-0.12-0.038-0.099-0.121-0.101-0.225c-0.009-0.422,0.082-0.849-0.057-1.265
			c0.463-0.259,0.926-0.518,1.389-0.777c0.093-0.052,0.19-0.097,0.277-0.157c0.344-0.239,0.351-0.428-0.018-0.633
			c-0.99-0.551-1.992-1.079-2.989-1.619c-0.279-0.151-0.554-0.309-0.83-0.464c0.001-0.062-0.01-0.128,0.047-0.176
			c1.076,0.573,2.153,1.145,3.226,1.722c0.269,0.145,0.51,0.343,0.823,0.396c0.146,0.018,0.268,0.06,0.27,0.242
			c0.008,0.539,0.029,1.078,0.013,1.617c-0.003,0.099-0.04,0.185-0.084,0.27C19.355,38.555,18.701,38.914,18.031,39.244z"/>
		<path fill="#1C1815" d="M8.596,37.32c-0.291,0.003-0.573-0.037-0.812-0.219c-0.283-0.216-0.289-0.486-0.025-0.723
			c0.394-0.354,1.264-0.359,1.661-0.011c0.27,0.237,0.255,0.539-0.037,0.748C9.196,37.247,8.919,37.319,8.596,37.32z"/>
		<path fill="#19151A" d="M15.856,37.321c-0.227,0.013-0.495-0.043-0.734-0.201c-0.313-0.207-0.324-0.529-0.033-0.768
			c0.401-0.329,1.249-0.313,1.645,0.03c0.252,0.219,0.253,0.491-0.009,0.704C16.49,37.278,16.206,37.319,15.856,37.321z"/>
		<path fill="#18121E" d="M19.997,38.174c-0.004-0.605-0.016-1.21-0.005-1.815c0.003-0.167-0.054-0.255-0.194-0.314
			c0.309,0.038,0.419-0.138,0.441-0.409c0.004-0.053,0.005-0.106,0.005-0.159c0.001-2.37,0.001-4.74,0.001-7.11
			c0-0.469-0.115-0.902-0.389-1.288c0.059-0.44,0.012-0.882,0.041-1.322c0.009-0.145-0.01-0.346,0.25-0.288
			c0.524,0.277,0.889,0.708,1.156,1.224c0.086,0.166,0.172,0.249,0.37,0.273c0.342,0.042,0.691,0.086,1.011,0.236
			c0.064,0.137,0.087,0.282,0.088,0.432c0.003,0.711,0.003,1.422-0.001,2.133c-0.001,0.138-0.008,0.277-0.089,0.397
			c-0.125,0.141-0.235,0.031-0.335-0.032c-0.183-0.116-0.379-0.191-0.589-0.236c-0.104-0.022-0.209-0.058-0.296,0.042
			c-0.049,0.078-0.04,0.165-0.04,0.25c-0.001,1.162-0.001,2.323,0,3.485c0,0.095-0.011,0.193,0.049,0.277
			c0.291,0.153,0.525-0.03,0.773-0.13c0.139-0.056,0.264-0.205,0.433-0.066c0.088,0.106,0.094,0.235,0.094,0.362
			c0.004,0.732,0.005,1.464,0,2.196c-0.001,0.129-0.021,0.254-0.089,0.366c-0.414,0.181-0.86,0.221-1.3,0.288
			c-0.115,0.018-0.21,0.028-0.271,0.168C20.893,37.638,20.497,37.965,19.997,38.174z"/>
		<path fill="#18131D" d="M20.147,25.47c-0.168,0.016-0.16,0.139-0.159,0.259c0.001,0.341,0,0.682,0,1.023
			c0,0.127,0.02,0.262-0.132,0.329c-0.306-0.391-0.757-0.565-1.174-0.79c-0.25-0.135-0.497-0.276-0.746-0.414
			c0.143-0.391,0.033-0.796,0.07-1.193c0.01-0.105-0.059-0.244,0.111-0.29C18.813,24.714,19.489,25.075,20.147,25.47z"/>
		<path fill="#1A1519" d="M14.009,25.346c0.586,0.016,1.186,0.583,1.188,1.122c0.001,0.335-0.212,0.561-0.536,0.524
			c-0.553-0.062-0.984-0.316-1.205-0.854C13.264,25.671,13.502,25.332,14.009,25.346z"/>
		<path fill="#18131C" d="M18.213,32.708c0.494,0.016,1.062,0.454,1.19,0.919c0.109,0.399-0.093,0.672-0.508,0.685
			c-0.506,0.016-1.095-0.393-1.255-0.872C17.49,32.991,17.724,32.692,18.213,32.708z"/>
		<path fill="#1A1519" d="M13.963,27.722c0.483-0.005,1.071,0.432,1.207,0.897c0.137,0.468-0.134,0.799-0.616,0.72
			c-0.527-0.087-0.927-0.367-1.11-0.887C13.298,28.038,13.529,27.727,13.963,27.722z"/>
		<path fill="#1A1519" d="M13.973,30.244c0.478,0.003,1.048,0.421,1.191,0.873c0.139,0.44-0.088,0.75-0.542,0.74
			c-0.475-0.011-1.008-0.397-1.174-0.849C13.28,30.553,13.495,30.241,13.973,30.244z"/>
		<path fill="#18131C" d="M18.21,27.569c0.522,0.008,1.129,0.55,1.201,1.071c0.036,0.262-0.283,0.544-0.613,0.541
			c-0.451-0.004-1.031-0.444-1.158-0.878C17.532,27.935,17.821,27.563,18.21,27.569z"/>
		<path fill="#18131C" d="M18.751,31.761c-0.435-0.017-0.907-0.373-1.074-0.788c-0.101-0.252-0.03-0.462,0.128-0.648
			c0.144-0.171,0.345-0.193,0.555-0.143c0.43,0.103,0.739,0.362,0.939,0.749C19.554,31.423,19.314,31.783,18.751,31.761z"/>
		<path fill="#161121" d="M22.682,36.678c-0.002-0.846-0.005-1.692-0.006-2.537c0-0.149,0.005-0.298-0.074-0.433
			c-0.002-0.132,0.094-0.211,0.166-0.299c0.715-0.869,0.696-2.134-0.06-2.955c-0.061-0.066-0.147-0.133-0.095-0.247
			c0.083-0.224,0.066-0.457,0.061-0.687c-0.016-0.757,0.04-1.515-0.031-2.271c-0.001-0.014,0.026-0.03,0.04-0.045
			c1.361,0.367,2.361,1.173,2.86,2.501c0.556,1.477,0.556,2.988-0.006,4.464C25.035,35.488,24.038,36.301,22.682,36.678z"/>
		<path fill="#0F0831" d="M43.276,26.959c1.06-0.075,2.055,0.102,2.922,0.764c0.05,0.197,0.06,0.397,0.059,0.6
			c-0.002,2.412-0.002,4.825,0,7.237c0,0.203-0.012,0.402-0.057,0.6c-0.651,0.55-1.432,0.752-2.255,0.829
			c-0.2,0.019-0.403-0.001-0.605-0.004c0.303-0.223,0.284-0.544,0.283-0.872c-0.005-2.715-0.003-5.429-0.003-8.144
			C43.62,27.593,43.712,27.186,43.276,26.959z"/>
		<path fill="#10092F" d="M43.276,26.959c0.446,0.139,0.446,0.139,0.446,0.674c0,2.935-0.005,5.871,0.007,8.806
			c0.001,0.308-0.021,0.532-0.389,0.546c-0.631-0.008-1.233-0.137-1.794-0.437c-0.12-0.073-0.116-0.189-0.115-0.309
			c0.027-2.753,0.004-5.507,0.014-8.26c0.001-0.207-0.045-0.434,0.164-0.586C42.129,27.111,42.688,26.98,43.276,26.959z"/>
		<path fill="#0E0733" d="M46.2,36.16c-0.077-0.093-0.046-0.204-0.046-0.307c-0.002-2.607-0.002-5.214,0-7.821
			c0-0.104-0.03-0.214,0.043-0.308c0.198,0.167,0.434,0.305,0.586,0.507c0.182,0.242,0.275,0.138,0.423-0.012
			c0.409-0.413,0.828-0.816,1.242-1.222c0.061,0.184,0.074,0.372,0.073,0.565c-0.003,2.842-0.003,5.684,0,8.526
			c0,0.183-0.015,0.36-0.069,0.533c-0.41-0.38-0.825-0.755-1.228-1.141c-0.119-0.114-0.187-0.122-0.286,0.018
			C46.743,35.771,46.447,35.94,46.2,36.16z"/>
		<path fill="#100A2E" d="M41.609,27.394c-0.079,0.137-0.062,0.287-0.063,0.435c0,2.72-0.003,5.441,0.006,8.161
			c0.001,0.186-0.104,0.372-0.007,0.558c-0.839-0.348-1.448-0.957-1.903-1.723c-1.139-1.916-0.93-4.665,0.477-6.317
			C40.531,28.027,41.011,27.628,41.609,27.394z"/>
		<path fill="#FEE500" d="M31.887,40.701c-0.308-0.006-0.619-0.037-0.924-0.01c-0.31,0.028-0.359-0.096-0.358-0.374
			c0.01-2.641,0.006-5.282,0.006-7.924c0-2.918,0.004-5.836-0.006-8.754c-0.001-0.259,0.054-0.342,0.327-0.337
			c0.937,0.016,1.874,0.003,2.811,0.002c0.067,0.108,0.039,0.228,0.039,0.343c0.001,5.559-0.001,11.118,0.008,16.677
			c0,0.296-0.079,0.379-0.371,0.368C32.909,40.672,32.398,40.696,31.887,40.701z"/>
		<path fill="#E7E7E7" d="M22.613,30.206c1.029,1.132,1.025,2.409-0.011,3.502c-0.362,0.237-0.732,0.448-1.189,0.404
			c-0.074-0.056-0.047-0.136-0.047-0.207c-0.002-1.311-0.002-2.622,0.001-3.932c0-0.068-0.037-0.153,0.054-0.199
			C21.875,29.76,22.254,29.954,22.613,30.206z"/>
		<path fill="#120E19" d="M21.42,29.772c-0.003,1.446-0.005,2.892-0.008,4.338c-0.111-0.059-0.08-0.164-0.08-0.255
			c-0.002-1.278-0.002-2.556,0-3.834C21.333,29.931,21.302,29.824,21.42,29.772z"/>
	</g>
</g>
</svg>
