<?xml version="1.0" encoding="utf-8"?>
<!-- Generator: Adobe Illustrator 23.0.2, SVG Export Plug-In . SVG Version: 6.00 Build 0)  -->
<svg version="1.1" id="Layer_1" xmlns="http://www.w3.org/2000/svg" xmlns:xlink="http://www.w3.org/1999/xlink" x="0px" y="0px"
	 width="64px" height="64px" viewBox="0 0 64 64" enable-background="new 0 0 64 64" xml:space="preserve">
<g>
	<g>
		<path fill="#FECC01" d="M36.392,0.001c0.494-0.01,0.98,0.055,1.464,0.123c4.017,0.562,7.537,2.196,10.506,4.964
			c3.239,3.02,5.177,6.745,5.879,11.114c0.127,0.792,0.187,1.592,0.21,2.394c0.005,0.159,0.049,0.282,0.143,0.408
			c2.392,3.208,4.035,6.762,4.919,10.666c0.361,1.593,0.535,3.211,0.669,4.836c0.113,1.369,0.008,2.727-0.122,4.085
			c-0.251,2.619-0.845,5.16-1.834,7.6c-2.666,6.578-7.16,11.502-13.456,14.771c-2.816,1.462-5.808,2.419-8.955,2.796
			c-8.976,1.075-16.824-1.423-23.41-7.642c-4.003-3.78-6.593-8.416-7.883-13.77c-0.443-1.837-0.678-3.704-0.736-5.595
			c-0.146-4.752,0.78-9.283,2.964-13.503C10.805,15.411,17.153,10.43,25.744,8.37c3.615-0.867,7.275-0.921,10.94-0.296
			c0.188,0.032,0.247-0.036,0.308-0.182c1.088-2.626,0.92-5.171-0.488-7.638C36.462,0.18,36.388,0.12,36.392,0.001z M41.484,6.42
			c0.028,0.108,0.041,0.158,0.053,0.207c0.732,2.804-0.486,5.696-2.976,7.075c-0.139,0.077-0.26,0.101-0.419,0.052
			c-3.616-1.104-7.295-1.348-11.017-0.701c-5.516,0.96-10.188,3.514-13.862,7.734c-5.09,5.845-6.928,12.659-5.557,20.273
			c0.931,5.174,3.433,9.547,7.318,13.091c4.457,4.066,9.739,6.125,15.763,6.277c1.481,0.037,2.956-0.085,4.416-0.345
			c5.757-1.025,10.568-3.745,14.289-8.245c4.691-5.673,6.393-12.212,5.174-19.465c-0.799-4.751-2.962-8.849-6.29-12.33
			c-0.155-0.162-0.187-0.292-0.138-0.504c0.269-1.176,0.335-2.368,0.215-3.569c-0.291-2.907-1.509-5.361-3.623-7.37
			C43.864,7.683,42.759,6.971,41.484,6.42z"/>
		<path fill="#0F0F0F" d="M41.484,6.42c1.275,0.551,2.38,1.264,3.346,2.182c2.114,2.009,3.331,4.463,3.623,7.37
			c0.12,1.201,0.055,2.393-0.215,3.569c-0.048,0.211-0.016,0.342,0.138,0.504c3.328,3.48,5.491,7.578,6.29,12.33
			c1.219,7.253-0.483,13.792-5.174,19.465c-3.721,4.5-8.532,7.22-14.289,8.245c-1.46,0.26-2.935,0.382-4.416,0.345
			c-6.024-0.152-11.305-2.211-15.763-6.277c-3.885-3.544-6.387-7.917-7.318-13.091c-1.371-7.614,0.468-14.428,5.557-20.273
			c3.675-4.22,8.346-6.775,13.862-7.734c3.722-0.647,7.4-0.403,11.017,0.701c0.159,0.049,0.28,0.025,0.419-0.052
			c2.49-1.378,3.708-4.271,2.976-7.075C41.524,6.577,41.512,6.528,41.484,6.42z M44.291,35.037c0.02-1.084-0.101-2.141-0.504-3.159
			c-0.795-2.013-2.739-2.522-4.232-2.067c-1.568,0.478-2.954,1.279-4.223,2.289c-3.093,2.462-5.442,5.52-7.154,9.071
			c-0.804,1.667-1.405,3.401-1.479,5.275c-0.034,0.855,0.075,1.692,0.49,2.457c0.776,1.431,2.267,2.005,3.936,1.842
			c1.374-0.134,2.636-0.624,3.818-1.309c3.534-2.05,6.147-4.959,7.918-8.626C43.739,38.99,44.245,37.068,44.291,35.037z
			 M10.774,36.757c-0.005,0.532,0.049,1.216,0.161,1.895c0.704,4.276,2.768,7.713,6.334,10.21c0.871,0.61,1.812,1.087,2.883,1.25
			c1.034,0.157,1.699-0.361,1.808-1.388c0.077-0.728-0.079-1.419-0.293-2.101c-0.561-1.786-1.328-3.486-2.151-5.163
			c-1.207-2.462-2.521-4.863-4.127-7.092c-0.561-0.78-1.146-1.545-1.931-2.123c-0.515-0.379-1.071-0.329-1.529,0.118
			c-0.31,0.302-0.506,0.675-0.658,1.072C10.881,34.456,10.771,35.52,10.774,36.757z"/>
		<path fill="#FECC00" d="M44.291,35.037c-0.046,2.03-0.552,3.953-1.43,5.772c-1.771,3.667-4.384,6.576-7.918,8.626
			c-1.182,0.686-2.443,1.175-3.818,1.309c-1.67,0.163-3.16-0.412-3.936-1.842c-0.415-0.765-0.524-1.601-0.49-2.457
			c0.074-1.874,0.675-3.608,1.479-5.275c1.712-3.551,4.061-6.609,7.154-9.071c1.269-1.01,2.655-1.811,4.223-2.289
			c1.492-0.455,3.437,0.054,4.232,2.067C44.189,32.896,44.311,33.954,44.291,35.037z"/>
		<path fill="#FDCC00" d="M10.774,36.757c-0.003-1.237,0.107-2.301,0.497-3.32c0.152-0.397,0.348-0.77,0.658-1.072
			c0.459-0.447,1.015-0.498,1.529-0.118c0.784,0.578,1.369,1.343,1.931,2.123c1.605,2.23,2.92,4.631,4.127,7.092
			c0.822,1.677,1.59,3.377,2.151,5.163c0.214,0.682,0.371,1.373,0.293,2.101c-0.109,1.026-0.774,1.545-1.808,1.388
			c-1.071-0.163-2.012-0.64-2.883-1.25c-3.565-2.497-5.63-5.934-6.334-10.21C10.823,37.974,10.769,37.29,10.774,36.757z"/>
	</g>
</g>
</svg>
