<?xml version="1.0" encoding="utf-8"?>
<!-- Generator: Adobe Illustrator 23.0.2, SVG Export Plug-In . SVG Version: 6.00 Build 0)  -->
<svg version="1.1"
	 id="svg34" inkscape:version="0.92.3 (2405546, 2018-03-11)" sodipodi:docname="159px-DIVIZON2017_no_text.svg" xmlns:cc="http://creativecommons.org/ns#" xmlns:dc="http://purl.org/dc/elements/1.1/" xmlns:inkscape="http://www.inkscape.org/namespaces/inkscape" xmlns:rdf="http://www.w3.org/1999/02/22-rdf-syntax-ns#" xmlns:sodipodi="http://sodipodi.sourceforge.net/DTD/sodipodi-0.dtd" xmlns:svg="http://www.w3.org/2000/svg"
	 xmlns="http://www.w3.org/2000/svg" xmlns:xlink="http://www.w3.org/1999/xlink" x="0px" y="0px" viewBox="0 0 64 64"
	 style="enable-background:new 0 0 64 64;" xml:space="preserve" height="64" width="64">
<style type="text/css">
	.st0{fill:#FF2700;}
	.st1{fill:#FFFFFF;}
</style>
<sodipodi:namedview  bordercolor="#666666" borderopacity="1" gridtolerance="10" guidetolerance="10" id="namedview36" inkscape:current-layer="svg34" inkscape:cx="67.58753" inkscape:cy="23.520065" inkscape:pagecheckerboard="true" inkscape:pageopacity="0" inkscape:pageshadow="2" inkscape:window-height="1017" inkscape:window-maximized="1" inkscape:window-width="1920" inkscape:window-x="-8" inkscape:window-y="-8" inkscape:zoom="5.7687075" objecttolerance="10" pagecolor="#ffffff" showgrid="false">
	</sodipodi:namedview>
<g id="layer101" transform="matrix(0.40397256,0,0,0.40397256,-0.29651132,22.55798)">
	<path id="path26" inkscape:connector-curvature="0" class="st0" d="M127.7,82.7l-11.2-14.1l1.6-4.6c1.3-3.7,1.6-9.4,1.6-28.2
		c0-21.8-0.1-23.8-2.1-27.8c-3.3-6.9-7.1-8.3-22.1-8.3c-14,0-18.9,1-21.6,4.5c-1.1,1.4-2.2,2.5-2.5,2.5c-0.8,0-22.7-29.8-22.7-31
		c0-1.7,10-5.8,17.4-7.1c4.3-0.7,15.9-0.9,33.3-0.7c24.5,0.4,27.3,0.7,32.8,2.7c12,4.3,19.5,11.1,24.8,22.1c2.1,4.4,2.2,5.6,2.2,43
		v38.5l-2.5,5c-2.7,5.5-13.9,17.5-16.3,17.5C139.6,96.7,133.9,90.4,127.7,82.7z"/>
</g>
<g id="layer102" transform="matrix(0.40397256,0,0,0.40397256,-0.29651132,22.55798)">
	<path id="path31" inkscape:connector-curvature="0" class="st1" d="M41.2,78.7c-5.5-0.5-11.4-1.2-13-1.8
		C17.7,73.6,9.1,66.3,4.1,56.7l-2.9-5.5L0.9,13.1C0.6-23.7,0.7-25.2,2.7-30.7c3.8-10,14.1-20.7,18.6-19.2
		c1.6,0.5,19.9,23.4,22.8,28.4c0.6,0.9,0.3,2.4-0.7,4.2c-1.3,2.1-1.6,7.1-1.9,28.1c-0.3,23.9-0.2,25.6,1.7,28.8
		c4,6.9,6.1,7.6,20.9,7.6c13.2,0,13.3,0,18.5-3.2c2.9-1.8,5.6-3.3,6.1-3.3c1.5,0,23,28.2,23,30.2c0,2.7-5.2,4.6-16.8,6.2
		C82.8,78.9,54.5,79.7,41.2,78.7z"/>
</g>
</svg>
