<?xml version="1.0" encoding="utf-8"?>
<!-- Generator: Adobe Illustrator 23.0.2, SVG Export Plug-In . SVG Version: 6.00 Build 0)  -->
<svg version="1.1" id="Layer_1" xmlns="http://www.w3.org/2000/svg" xmlns:xlink="http://www.w3.org/1999/xlink" x="0px" y="0px"
	 width="64px" height="64px" viewBox="0 0 64 64" enable-background="new 0 0 64 64" xml:space="preserve">
<g>
	<g>
		<path fill="#FFFFFF" d="M0.054,27.014c0-4.072-0.142-8.15,0.036-12.214C0.311,9.779,2.716,5.893,6.873,3.073
			c0.752-0.51,1.246-0.585,1.879,0.268c2.596,3.5,5.267,6.944,7.929,10.395c0.384,0.498,0.557,0.796,0.015,1.391
			c-0.776,0.852-0.845,2.034-0.855,3.156c-0.047,5.623-0.11,11.247-0.102,16.87c0.006,4.798,2.242,6.955,7.07,6.952
			c2.036-0.001,4.076-0.082,6.107,0.022c2.125,0.109,3.933-0.574,5.432-1.977c0.803-0.751,1.141-0.532,1.712,0.214
			c2.619,3.424,5.262,6.829,7.965,10.186c0.634,0.788,0.446,1.047-0.351,1.399c-2.611,1.153-5.387,1.548-8.185,1.8
			c-7.058,0.637-14.143,0.931-21.192,0.167C5.56,52.97,0.018,46.546,0.008,37.776c-0.004-3.587-0.001-7.175-0.001-10.762
			C0.023,27.014,0.038,27.014,0.054,27.014z"/>
		<path fill="#FD2802" d="M28.37,24.759c-2.921-3.894-5.719-7.662-8.569-11.391c-0.576-0.753-0.02-0.875,0.425-1.122
			c2.497-1.382,5.174-2.249,8.021-2.303c6.592-0.126,13.193-0.295,19.778,0.076c8.283,0.467,14.049,5.452,15.639,13.293
			c0.211,1.038,0.31,2.116,0.314,3.176c0.027,6.934,0.026,13.868,0.01,20.803c-0.013,5.718-2.226,10.319-6.952,13.659
			c-0.751,0.531-1.132,0.489-1.713-0.26c-2.524-3.255-5.107-6.465-7.708-9.658c-0.49-0.602-0.593-1.03-0.217-1.772
			c0.73-1.437,1.008-3.024,1.008-4.645c0-4.898-0.007-9.795-0.006-14.693c0-1.273-0.199-2.516-0.63-3.707
			c-0.936-2.589-2.984-4.06-5.748-4.085c-2.909-0.026-5.819-0.028-8.727,0.043C31.316,22.22,29.62,22.958,28.37,24.759z"/>
	</g>
</g>
</svg>
