<?xml version="1.0" encoding="UTF-8" standalone="no"?>
<svg
   xmlns:dc="http://purl.org/dc/elements/1.1/"
   xmlns:cc="http://creativecommons.org/ns#"
   xmlns:rdf="http://www.w3.org/1999/02/22-rdf-syntax-ns#"
   xmlns:svg="http://www.w3.org/2000/svg"
   xmlns="http://www.w3.org/2000/svg"
   xmlns:sodipodi="http://sodipodi.sourceforge.net/DTD/sodipodi-0.dtd"
   xmlns:inkscape="http://www.inkscape.org/namespaces/inkscape"
   version="1.0"
   width="64"
   height="64"
   viewBox="0 0 640 640"
   preserveAspectRatio="xMidYMid meet"
   id="svg34"
   sodipodi:docname="159px-DIVIZON2017_no_text.svg"
   inkscape:version="0.92.3 (2405546, 2018-03-11)">
  <metadata
     id="metadata40">
    <rdf:RDF>
      <cc:Work
         rdf:about="">
        <dc:format>image/svg+xml</dc:format>
        <dc:type
           rdf:resource="http://purl.org/dc/dcmitype/StillImage" />
        <dc:title></dc:title>
      </cc:Work>
    </rdf:RDF>
  </metadata>
  <defs
     id="defs38" />
  <sodipodi:namedview
     pagecolor="#ffffff"
     bordercolor="#666666"
     borderopacity="1"
     objecttolerance="10"
     gridtolerance="10"
     guidetolerance="10"
     inkscape:pageopacity="0"
     inkscape:pageshadow="2"
     inkscape:window-width="1920"
     inkscape:window-height="1017"
     id="namedview36"
     showgrid="false"
     inkscape:pagecheckerboard="true"
     inkscape:zoom="5.7687075"
     inkscape:cx="67.58753"
     inkscape:cy="23.520065"
     inkscape:window-x="-8"
     inkscape:window-y="-8"
     inkscape:window-maximized="1"
     inkscape:current-layer="svg34" />
  <g
     id="layer101"
     style="fill:#ff2700;stroke:none"
     transform="matrix(0.40397256,0,0,0.40397256,-0.29651132,22.55798)">
    <path
       d="m 1270,1330 -112,-141 16,-46 c 13,-37 16,-94 16,-282 0,-218 -1,-238 -21,-278 -33,-69 -71,-83 -221,-83 -140,0 -189,10 -216,45 -11,14 -22,25 -25,25 -8,0 -227,-298 -227,-310 0,-17 100,-58 174,-71 43,-7 159,-9 333,-7 245,4 273,7 328,27 120,43 195,111 248,221 21,44 22,56 22,430 v 385 l -25,50 c -27,55 -139,175 -163,175 -8,0 -65,-63 -127,-140 z"
       id="path26"
       inkscape:connector-curvature="0" />
    <path
       d="M 390,1290 C 298,1281 269,1274 205,1243 137,1209 75,1147 37,1075 L 5,1015 2,634 C -1,266 0,251 20,196 58,96 161,-11 206,4 c 16,5 199,234 228,284 6,9 3,24 -7,42 -13,21 -16,71 -19,281 -3,239 -2,256 17,288 40,69 61,76 209,76 132,0 133,0 185,-32 29,-18 56,-33 61,-33 9,0 210,252 229,288 10,18 8,24 -12,37 -40,26 -153,45 -332,55 -186,11 -261,11 -375,0 z"
       id="path28"
       inkscape:connector-curvature="0" />
  </g>
  <g
     id="layer102"
     style="fill:#ffffff;stroke:none"
     transform="matrix(0.40397256,0,0,0.40397256,-0.29651132,22.55798)">
    <path
       d="M 405,1290 C 350,1285 291,1278 275,1272 170,1239 84,1166 34,1070 L 5,1015 2,634 C -1,266 0,251 20,196 58,96 161,-11 206,4 c 16,5 199,234 228,284 6,9 3,24 -7,42 -13,21 -16,71 -19,281 -3,239 -2,256 17,288 40,69 61,76 209,76 132,0 133,0 185,-32 29,-18 56,-33 61,-33 15,0 230,282 230,302 0,27 -52,46 -168,62 -121,18 -404,26 -537,16 z"
       id="path31"
       inkscape:connector-curvature="0" />
  </g>
</svg>
