<?xml version="1.0" encoding="UTF-8" standalone="no"?>
<svg
   xmlns:dc="http://purl.org/dc/elements/1.1/"
   xmlns:cc="http://creativecommons.org/ns#"
   xmlns:rdf="http://www.w3.org/1999/02/22-rdf-syntax-ns#"
   xmlns:svg="http://www.w3.org/2000/svg"
   xmlns="http://www.w3.org/2000/svg"
   xmlns:sodipodi="http://sodipodi.sourceforge.net/DTD/sodipodi-0.dtd"
   xmlns:inkscape="http://www.inkscape.org/namespaces/inkscape"
   width="64"
   height="64"
   viewBox="0 0 48 48"
   version="1.1"
   id="svg412"
   sodipodi:docname="dream.svg"
   inkscape:version="0.92.3 (2405546, 2018-03-11)">
  <metadata
     id="metadata418">
    <rdf:RDF>
      <cc:Work
         rdf:about="">
        <dc:format>image/svg+xml</dc:format>
        <dc:type
           rdf:resource="http://purl.org/dc/dcmitype/StillImage" />
        <dc:title></dc:title>
      </cc:Work>
    </rdf:RDF>
  </metadata>
  <defs
     id="defs416" />
  <sodipodi:namedview
     pagecolor="#ffffff"
     bordercolor="#666666"
     borderopacity="1"
     objecttolerance="10"
     gridtolerance="10"
     guidetolerance="10"
     inkscape:pageopacity="0"
     inkscape:pageshadow="2"
     inkscape:window-width="1920"
     inkscape:window-height="1017"
     id="namedview414"
     showgrid="false"
     units="px"
     inkscape:pagecheckerboard="true"
     inkscape:zoom="16.792079"
     inkscape:cx="50.813369"
     inkscape:cy="34.586391"
     inkscape:window-x="-8"
     inkscape:window-y="-8"
     inkscape:window-maximized="1"
     inkscape:current-layer="svg412" />
  <g
     id="#ffffffff"
     transform="matrix(0.07922622,0,0,0.07922622,0.232134,1.1754e-6)">
    <path
       d="m 261.41,0 h 1.09 c 3.6,12.4 9.25,24.18 15.35,35.55 7.02,-4.09 14.38,-7.76 22.16,-10.18 7.79,2.39 15.15,6.08 22.18,10.18 5.77,-10.23 10.37,-21.06 14.46,-32.05 0.4,-1.14 0.67,-2.3 0.8,-3.5 h 1.08 c 0.65,0.83 1.35,1.62 2.1,2.37 24.42,22.33 38.45,54.15 43.49,86.46 20.69,7.48 40.78,16.89 59.13,29.11 52.66,34.35 92.1,88.37 108.57,149.07 10.51,38.52 12.32,79.46 4.53,118.64 14.54,0.07 29.09,-0.05 43.64,0.07 -14.29,16.52 -28.86,32.8 -43.03,49.42 6.74,6.07 14.37,11.09 21.22,17.05 -7.96,7.99 -16.56,15.35 -24.93,22.91 -0.14,36.9 -0.02,73.81 -0.06,110.71 -20.77,-5.42 -41.57,-10.7 -62.32,-16.15 5.5,7.89 9.91,16.44 14.05,25.1 -56.14,-7.21 -113.14,-0.81 -168.18,11.1 2.83,-5.5 5.8,-10.93 8.54,-16.48 -21.9,3.67 -44.07,5.6 -66.25,6.4 -34.69,1.44 -70.39,-2.86 -102.06,-17.82 -9.74,-4.75 -19.19,-10.33 -27.25,-17.62 -1.29,-1.53 -3.25,-0.12 -4.79,0.04 -32.55,8.61 -65.22,16.79 -97.76,25.41 -0.7,-8.9 0.44,-17.83 -0.25,-26.75 0.31,-21.67 0.08,-43.35 -0.05,-65.03 -0.22,-6.28 1.07,-12.75 -0.32,-18.91 -8.02,-7.85 -16.9,-14.83 -24.66,-22.94 6.97,-5.86 14.38,-11.19 21.4,-16.98 -14.45,-16.47 -28.82,-33.01 -43.28,-49.47 14.56,-0.1 29.11,0 43.67,-0.05 -10.53,-53.46 -3.46,-110.14 19.56,-159.5 0.94,-3.86 0.62,-8.04 0.18,-11.95 -1.02,-4.97 -5.97,-7.08 -9.27,-10.32 -3.76,-3.58 -7.55,-7.3 -10.25,-11.75 -2.11,-15.4 -2.46,-31.57 2.73,-46.42 2.84,-8.14 12.31,-9.79 19.29,-12.74 3.63,-3.91 6.48,-8.93 11.52,-11.24 3.64,-1.08 7.55,-0.67 11.22,-1.48 5.5,-4.1 11.19,-8.85 18.31,-9.48 4.41,0.01 8.79,0.75 13.13,1.54 3.84,-1.51 7.56,-4.27 11.91,-3.65 8.11,0.46 16.27,1.5 24.06,3.9 1.7,0.44 2.59,2.15 3.81,3.27 17.25,-11.64 36.14,-21.1 56.2,-26.8 4.14,-29.27 16.23,-57.76 36.28,-79.69 2.88,-3.25 6.4,-5.89 9.05,-9.35 m -12.12,35.54 c -11.75,19.66 -16.51,42.5 -19.58,64.93 -20.7,6.16 -40.56,15.11 -58.93,26.45 -5.3,3.19 -10.23,6.94 -15.52,10.13 -2.1,-3.89 -4.42,-7.65 -7.06,-11.18 -5.44,-0.96 -10.91,-2.1 -16.44,-2.1 -3.33,1.11 -6.38,2.92 -9.71,4.01 -4.75,-0.46 -9.44,-1.51 -14.19,-2.03 -5.25,1.89 -9.02,6.12 -13.24,9.52 -3.74,0.52 -7.67,-0.15 -11.27,1.18 -3.31,2.71 -5.44,6.52 -8.38,9.58 -4.44,1.86 -9.45,2.7 -13.52,5.34 -4.11,8.17 -4.38,17.73 -4.13,26.71 0.44,3.14 -0.36,6.95 2.15,9.4 4.74,5.07 9.84,9.89 15.86,13.42 0.47,3.29 1.18,6.66 3.39,9.26 0.07,6.18 0.32,12.4 -0.09,18.57 -2.72,6.48 -5.96,12.75 -8.32,19.39 -18.63,48.34 -21.19,102.61 -7.71,152.59 -9.76,0.06 -19.52,-0.01 -29.27,0.04 9.16,10.74 18.57,21.25 27.82,31.91 1.38,2.13 0.45,4.92 0.65,7.33 -5.67,4.26 -11.12,8.8 -16.78,13.07 4.85,4.84 10.17,9.16 15.14,13.88 0.83,0.79 1.91,1.62 1.67,2.94 0.17,32.15 -0.29,64.3 0.32,96.44 11.91,-3.2 23.84,-6.28 35.79,-9.31 18.34,-4.64 36.57,-9.75 55,-14.03 12.31,11.6 27.07,20.48 42.93,26.31 18.31,6.83 37.76,10.01 57.21,11.15 22.7,0.98 45.45,-0.04 68.01,-2.67 16.62,-1.56 33.12,-4.43 49.82,-5.09 -1.7,4.03 -4.25,7.64 -5.85,11.73 37.04,-7.6 75.15,-9.05 112.82,-6.87 -7.43,-13.01 -17.17,-24.68 -28.75,-34.21 24.69,6.26 49.3,12.8 73.99,19.06 5.01,1.2 9.89,2.99 15.03,3.63 0,-30.99 0.03,-61.98 -0.02,-92.97 0.08,-1.54 -0.21,-3.15 0.31,-4.62 5.26,-5.41 11.3,-9.99 16.58,-15.39 -5.67,-4.27 -11.13,-8.82 -16.81,-13.07 0.21,-2.54 -0.92,-5.63 1.01,-7.7 9.19,-10.5 18.44,-20.95 27.55,-31.52 -9.78,-0.07 -19.56,0.05 -29.33,-0.06 10.31,-37.86 11.13,-78.22 3.03,-116.58 C 531.63,243.04 511.99,204.37 484.03,173.02 453.87,138.87 413.99,113.44 370.31,100.44 369.55,94.97 368.84,89.48 367.7,84.06 363.66,63.08 357.28,41.48 343.01,25.04 339.18,36.19 333.92,46.9 327.1,56.53 318.72,50.45 309.57,45.41 300,41.48 c -8.12,3.41 -16.01,7.48 -23.28,12.47 -1.34,0.74 -2.58,2.27 -4.26,1.86 -6.62,-9.43 -11.65,-19.93 -15.44,-30.78 -2.81,3.32 -5.52,6.75 -7.73,10.51 z"
       id="path215"
       inkscape:connector-curvature="0"
       style="opacity:1;fill:#ffffff" />
    <path
       d="m 280.67,104.63 c 3.8,-4.19 6.69,-9.05 9.82,-13.73 -0.39,12.33 -3.52,25.88 -13.49,34.08 -6.99,5.8 -15.97,11.02 -25.39,9.43 -1.61,-6.49 3.98,-11.7 9.02,-14.69 7.38,-3.98 14.71,-8.49 20.04,-15.09 z"
       id="path217"
       inkscape:connector-curvature="0"
       style="opacity:1;fill:#ffffff" />
    <path
       d="m 128.08,142.12 c 0.77,-2.03 3.41,-2.59 4.98,-3.91 1.8,0.43 3.88,0.27 5.46,1.35 2.19,3.21 3.51,6.92 5.01,10.49 -3.74,0.59 -7.42,1.57 -11.21,1.88 -1.32,-3.31 -3.15,-6.41 -4.24,-9.81 z"
       id="path219"
       inkscape:connector-curvature="0"
       style="opacity:1;fill:#ffffff" />
    <path
       d="m 106.04,148 c 0.91,-2.47 2.57,-4.74 4.74,-6.26 1.91,0.12 3.8,0.51 5.7,0.81 1.84,4.19 3.52,8.49 4.45,12.99 -3.22,1.18 -6.46,2.3 -9.79,3.12 -1.49,-3.65 -3.89,-6.89 -5.1,-10.66 z"
       id="path221"
       inkscape:connector-curvature="0"
       style="opacity:1;fill:#ffffff" />
    <path
       d="m 327.96,147.43 c 3.27,-0.71 6.63,-0.84 9.97,-0.66 0.01,4.59 -2.87,9.33 -7.53,10.41 -4.1,0.86 -8.34,0.82 -12.5,0.58 -2.59,-0.03 -4.46,-1.95 -5.98,-3.81 2.38,-3.53 5.1,1.03 8.12,0.63 4.12,0.23 7.31,-3.29 7.92,-7.15 z"
       id="path223"
       inkscape:connector-curvature="0"
       style="opacity:1;fill:#ffffff" />
    <path
       d="m 261.76,154.21 c 1.64,-2.96 4.84,-4.95 8.29,-3.92 3.5,-0.53 2.95,3.82 5.32,5.18 2.99,2.8 7.15,-2.59 9.61,1.48 -2.16,2.63 -5.89,3 -8.97,2.1 -4.85,-1.31 -9.52,-3.18 -14.25,-4.84 z"
       id="path225"
       inkscape:connector-curvature="0"
       style="opacity:1;fill:#ffffff" />
    <path
       d="m 92.11,166.91 c -2.82,-4.87 -3.92,-11.27 -0.18,-15.96 2.14,-0.32 4.31,-0.31 6.47,-0.4 0.86,4.16 1.8,8.29 2.95,12.38 -3.1,1.29 -6.15,2.68 -9.24,3.98 z"
       id="path227"
       inkscape:connector-curvature="0"
       style="opacity:1;fill:#ffffff" />
    <path
       d="m 164.6,153.56 c 15.43,4.45 31.05,8.27 46.38,13.03 -7.06,3.29 -13.62,7.59 -20.03,12.01 -9.35,-4.33 -18.4,-9.28 -27.75,-13.61 0.29,-3.83 0.89,-7.62 1.4,-11.43 z"
       id="path229"
       inkscape:connector-curvature="0"
       style="opacity:1;fill:#ffffff" />
    <path
       d="m 389.1,166.52 c 16.28,-4.67 32.67,-9.03 49.08,-13.26 6.04,3.55 10.91,8.81 16.42,13.13 -15.15,4.16 -30.32,8.27 -45.54,12.21 -6.34,-4.5 -12.99,-8.64 -19.96,-12.08 z"
       id="path231"
       inkscape:connector-curvature="0"
       style="opacity:1;fill:#ffffff" />
    <path
       d="m 72.63,164.59 c 2.37,-1.16 4.87,-2.01 7.45,-2.54 0.13,3.63 0.46,7.26 0.71,10.89 -3.01,1.31 -5.59,3.72 -8.82,4.47 -0.44,-4.28 0.29,-8.56 0.66,-12.82 z"
       id="path233"
       inkscape:connector-curvature="0"
       style="opacity:1;fill:#ffffff" />
    <path
       d="m 178.17,209.88 c 12.6,-11.78 26.61,-22.08 42.02,-29.89 1.37,3.51 2.54,7.09 3.78,10.64 -6.72,-0.34 -12.64,4.03 -15.79,9.71 -10.19,2.58 -20.17,5.87 -30.01,9.54 z"
       id="path235"
       inkscape:connector-curvature="0"
       style="opacity:1;fill:#ffffff" />
    <path
       d="m 379.85,180 c 15.42,7.79 29.46,18.09 42.03,29.9 -9.84,-3.72 -19.85,-6.97 -30.04,-9.57 -3.06,-5.74 -9.09,-10.01 -15.77,-9.69 1.26,-3.55 2.42,-7.13 3.78,-10.64 z"
       id="path237"
       inkscape:connector-curvature="0"
       style="opacity:1;fill:#ffffff" />
    <path
       d="m 469.79,181.88 c 4.71,5.04 9.42,10.23 13.11,16.05 -3.79,16.56 -8.8,32.85 -12.9,49.35 -3.75,-6.96 -7.85,-13.74 -12.36,-20.23 4.02,-15.07 8.1,-30.11 12.15,-45.17 z"
       id="path239"
       inkscape:connector-curvature="0"
       style="opacity:1;fill:#ffffff" />
    <path
       d="m 284.45,203.37 c 11.94,-1.32 24.19,-1.66 35.65,-5.73 -1.32,3.28 -3.29,6.28 -5.91,8.67 -9.03,0.53 -18.12,0.72 -27.14,-0.04 -0.87,-0.98 -1.73,-1.94 -2.6,-2.9 z"
       id="path241"
       inkscape:connector-curvature="0"
       style="opacity:1;fill:#ffffff" />
    <path
       d="m 360.25,289.72 c 15.1,-15.77 27.06,-35.11 31.53,-56.68 1.57,3.97 2.88,8.03 3.91,12.17 4.26,-3.88 8.47,-8.49 14.34,-9.75 2.41,-0.55 4.6,0.68 6.66,1.75 3.31,1.78 7.64,1.89 10.08,5.1 2.84,4.01 4.75,8.62 6.56,13.17 4.91,13.66 7.56,28.2 7.4,42.73 -2.61,-6.13 -4.26,-13.41 -9.72,-17.68 -4.82,-0.87 -7.31,4.35 -9.54,7.67 -2.61,-7.11 -4.24,-14.54 -6.82,-21.66 -1.55,-3.99 -2.41,-8.36 -4.95,-11.88 -3.12,14.3 -5.92,29.13 -13.27,41.96 -1.45,-6.53 -2.99,-13.33 -7.52,-18.51 -8.68,5.69 -18.4,9.83 -28.66,11.61 z"
       id="path243"
       inkscape:connector-curvature="0"
       style="opacity:1;fill:#ffffff" />
    <path
       d="m 232.68,241.39 c 0.54,-1.89 2.5,-2.78 4.34,-2.13 2.79,1.43 3.91,4.6 5.27,7.22 10.27,22.03 22.28,43.21 35.39,63.66 -12.65,-10.93 -24.26,-22.99 -36.15,-34.72 0.5,13.66 2.75,27.2 5.17,40.64 -7.77,-12.3 -12.28,-26.27 -16.22,-40.17 -2.47,-9.48 -4.59,-19.07 -5.82,-28.79 3.08,2.74 5.93,5.76 9.31,8.16 -0.8,-4.55 -2.47,-9.24 -1.29,-13.87 z"
       id="path245"
       inkscape:connector-curvature="0"
       style="opacity:1;fill:#ffffff" />
    <path
       d="m 111.44,259.34 c 1.49,-3.31 2.25,-6.93 4.06,-10.08 1.04,3.39 2.27,6.71 3.49,10.04 -2.51,-0.11 -5.04,-0.11 -7.55,0.04 z"
       id="path247"
       inkscape:connector-curvature="0"
       style="opacity:1;fill:#ffffff" />
    <path
       d="m 95.94,257.39 c 3.24,1.5 6.48,3.02 9.75,4.47 -2.06,1.38 -3.8,3.14 -5.24,5.15 -1.76,-3.08 -3.18,-6.33 -4.51,-9.62 z"
       id="path249"
       inkscape:connector-curvature="0"
       style="opacity:1;fill:#ffffff" />
    <path
       d="m 124.93,261.88 c 3.27,-1.5 6.52,-3.06 9.81,-4.55 -1.45,3.27 -2.98,6.5 -4.44,9.76 -1.59,-1.93 -3.37,-3.7 -5.37,-5.21 z"
       id="path251"
       inkscape:connector-curvature="0"
       style="opacity:1;fill:#ffffff" />
    <path
       d="m 87.87,276.89 c 3.2,-1.45 6.51,-2.6 9.81,-3.78 -0.07,2.5 -0.07,4.99 -0.02,7.49 -3.26,-1.26 -6.55,-2.42 -9.79,-3.71 z"
       id="path253"
       inkscape:connector-curvature="0"
       style="opacity:1;fill:#ffffff" />
    <path
       d="m 132.67,273.1 c 3.44,1.18 6.87,2.38 10.22,3.82 -3.42,1.23 -6.85,2.42 -10.24,3.71 0.44,-2.5 0.42,-5.03 0.02,-7.53 z"
       id="path255"
       inkscape:connector-curvature="0"
       style="opacity:1;fill:#ffffff" />
    <path
       d="m 483.2,279.08 c 14.76,8.49 29.48,17.04 44.23,25.54 0.98,6.84 1.57,13.75 1.91,20.65 -13.68,-7.43 -26.98,-15.58 -40.56,-23.2 -1.43,-7.76 -3.32,-15.43 -5.58,-22.99 z"
       id="path257"
       inkscape:connector-curvature="0"
       style="opacity:1;fill:#ffffff" />
    <path
       d="m 100.12,286.76 c 1.74,1.72 3.46,3.45 5.19,5.17 -3.09,1.43 -6.15,2.94 -9.34,4.16 1.31,-3.14 2.81,-6.2 4.15,-9.33 z"
       id="path259"
       inkscape:connector-curvature="0"
       style="opacity:1;fill:#ffffff" />
    <path
       d="m 125.42,291.98 c 1.12,-1.83 3.11,-3.78 5.12,-4.87 1.44,2.95 2.72,5.98 4.14,8.94 -3.14,-1.21 -6.33,-2.5 -9.26,-4.07 z"
       id="path261"
       inkscape:connector-curvature="0"
       style="opacity:1;fill:#ffffff" />
    <path
       d="m 111.48,294.43 c 2.5,0.08 5,0.08 7.5,-0.01 -1.17,3.3 -2.3,6.62 -3.79,9.79 -1.28,-3.25 -2.4,-6.55 -3.71,-9.78 z"
       id="path263"
       inkscape:connector-curvature="0"
       style="opacity:1;fill:#ffffff" />
    <path
       d="m 488.71,370.51 c 13.52,-7.87 27.05,-15.74 40.66,-23.45 -0.41,6.99 -0.89,13.99 -2.03,20.91 -14.8,8.25 -29.26,17.14 -44.16,25.22 2.32,-7.43 4.2,-15.01 5.53,-22.68 z"
       id="path265"
       inkscape:connector-curvature="0"
       style="opacity:1;fill:#ffffff" />
    <path
       d="m 68.97,417.52 c 17.2,-0.14 34.4,-0.04 51.6,-0.05 4.39,3.96 8.79,7.9 13.1,11.95 0.07,3.95 0.08,7.9 -0.03,11.86 -6.43,-0.06 -12.87,-0.04 -19.3,-0.01 -0.08,-3.9 -0.05,-7.79 -0.05,-11.68 -5.33,-0.02 -10.65,0.01 -15.98,-0.02 0,7.88 -0.1,15.76 0.06,23.64 5.79,0.12 11.63,-0.33 17.39,0.2 4.56,3.73 8.54,8.12 13.09,11.88 -10.18,0.08 -20.36,0.04 -30.54,0.02 -0.03,16.41 -0.04,32.83 0.01,49.25 5.3,-1.5 10.68,-2.67 15.97,-4.23 -0.01,-3.52 -0.04,-7.03 0.09,-10.54 6.43,0.06 12.87,-0.01 19.31,0.05 0.07,8.56 -0.02,17.12 0.05,25.68 -18.37,4.71 -36.68,9.61 -55.06,14.22 -0.13,-25.87 0.19,-51.75 -0.16,-77.61 -3.05,-3.09 -6.42,-5.88 -9.55,-8.91 3.21,-0.04 6.42,-0.04 9.63,-0.02 0.13,-8.92 0.06,-17.85 0.05,-26.78 -3.15,-3.05 -6.45,-5.94 -9.68,-8.9 z"
       id="path267"
       inkscape:connector-curvature="0"
       style="opacity:1;fill:#ffffff" />
    <path
       d="m 482.41,417.48 c 16.24,-0.01 32.48,-0.11 48.71,0.05 -3.25,2.93 -6.56,5.8 -9.68,8.86 -0.04,5.67 -0.01,11.34 -0.02,17.02 -6.56,0 -13.11,0.01 -19.67,-0.01 0,-4.61 0.01,-9.22 -0.01,-13.82 -5.33,0.02 -10.67,-0.02 -16,0.02 0.03,7.86 -0.01,15.72 0.03,23.59 15.1,0.03 30.19,-0.05 45.29,0.04 -3.18,2.92 -6.26,5.94 -9.57,8.72 -0.18,25.94 0,51.87 -0.09,77.81 -18.4,-4.63 -36.72,-9.54 -55.09,-14.24 0.09,-8.58 -0.1,-17.16 0.11,-25.73 6.41,0.04 12.82,0.04 19.24,0 0.13,3.51 0.1,7.02 0.09,10.53 5.29,1.58 10.68,2.77 16.01,4.21 -0.02,-16.41 0,-32.81 -0.01,-49.21 -11.8,0.03 -23.6,-0.01 -35.4,0.02 -0.03,-11.97 -0.05,-23.94 0.01,-35.91 5.35,-3.98 10.72,-7.94 16.05,-11.95 z"
       id="path269"
       inkscape:connector-curvature="0"
       style="opacity:1;fill:#ffffff" />
    <path
       d="m 146.33,443.36 c 16.23,-0.06 32.47,0.02 48.71,-0.04 1.26,0.11 2.83,-0.3 3.78,0.81 4.19,3.78 8.25,7.7 12.46,11.45 -0.09,19.48 0.01,38.97 -0.05,58.46 0.07,1.27 -0.22,2.85 1.11,3.6 2.74,2.56 5.56,5.03 8.08,7.81 -9.61,0.11 -19.23,0.02 -28.84,0.04 0,-11.66 0,-23.33 0,-34.99 -5.36,0 -10.72,0 -16.08,0 0.05,8.6 -0.08,17.2 0.05,25.8 2.84,3.38 6.51,5.98 9.6,9.13 -9.76,0.13 -19.52,0.08 -29.27,0.02 -0.21,-12.81 0.61,-25.63 -0.11,-38.43 -3.27,-2.77 -6.36,-5.75 -9.57,-8.59 3.22,-0.02 6.44,-0.02 9.67,-0.01 0.26,-8.51 -0.04,-17 0.2,-25.5 -2.65,-3.7 -6.65,-6.23 -9.74,-9.56 m 29.17,12.01 c 0.01,7.68 -0.01,15.37 0.01,23.05 5.35,-0.01 10.71,-0.01 16.06,0 0.02,-7.68 0.01,-15.37 0.01,-23.05 -5.36,0.01 -10.72,0 -16.08,0 z"
       id="path271"
       inkscape:connector-curvature="0"
       style="opacity:1;fill:#ffffff" />
    <path
       d="m 220.1,443.35 c 18.75,0 37.5,-0.08 56.25,0.04 4.06,4.22 8.62,7.9 12.88,11.91 -6.7,0.15 -13.41,0.04 -20.11,0.07 -0.31,19.56 0.22,39.13 -0.25,58.69 -0.05,1.35 0.23,2.86 1.41,3.71 2.76,2.49 5.61,4.92 8.12,7.67 -9.66,0.13 -19.32,0.02 -28.98,0.06 0,-23.37 -0.01,-46.75 0,-70.12 -5.4,-0.04 -10.8,0.05 -16.2,-0.06 -4.45,-3.9 -8.78,-7.94 -13.12,-11.97 z"
       id="path273"
       inkscape:connector-curvature="0"
       style="opacity:1;fill:#ffffff" />
    <path
       d="m 302,443.39 c 17.2,-0.01 34.42,-0.23 51.61,0.1 4.47,3.78 8.79,7.78 12.99,11.88 0.36,3.92 0.14,7.88 0.01,11.82 -6.41,-0.07 -12.82,-0.05 -19.23,-0.01 -0.18,-3.93 -0.12,-7.86 -0.11,-11.78 -5.35,-0.04 -10.69,-0.06 -16.04,0.01 0.09,7.67 -0.02,15.35 0.07,23.03 5.75,-0.04 11.51,-0.04 17.27,-0.01 4.26,4.02 8.91,7.66 12.84,12.02 -10.04,0.11 -20.09,0.04 -30.13,0.04 -0.03,7.65 -0.02,15.32 0,22.98 5.33,-0.03 10.66,0.01 15.99,-0.04 -0.01,-3.95 0,-7.89 -0.01,-11.83 6.48,-0.04 12.96,0.02 19.45,-0.04 0.06,3.64 0.04,7.29 0.04,10.95 -4.25,-0.18 -8.5,-0.24 -12.75,-0.11 1.88,4.4 4,8.69 5.93,13.07 -16.11,0.06 -32.23,0.01 -48.34,0.03 -0.08,-12.72 0.15,-25.44 -0.11,-38.15 -2.94,-3.2 -6.34,-5.94 -9.55,-8.86 3.22,-0.11 6.43,-0.08 9.65,-0.07 -0.04,-8.8 0.11,-17.6 -0.08,-26.4 -3.3,-2.73 -6.31,-5.78 -9.5,-8.63 z"
       id="path275"
       inkscape:connector-curvature="0"
       style="opacity:1;fill:#ffffff" />
    <path
       d="m 379.38,443.38 c 16.86,-0.08 33.72,-0.06 50.58,-0.01 1.28,-0.15 2.08,0.96 2.97,1.68 3.06,2.97 6.16,5.9 9.42,8.65 0.87,0.88 2.18,1.79 1.84,3.26 0.05,7.1 -0.05,14.2 0.03,21.3 -2.42,1.91 -4.93,3.7 -7.33,5.63 2.37,2.34 5.22,4.23 7.22,6.92 0.26,8.65 -0.1,17.31 0.17,25.96 3.18,2.74 6.27,5.61 9.13,8.69 -9.62,0.09 -19.24,0.01 -28.86,0.04 -0.04,-10.84 0.07,-21.68 -0.07,-32.52 -5.22,4.13 -10.5,8.2 -15.93,12.06 -0.04,3.34 -0.11,6.69 -0.04,10.03 -0.39,1.57 1.08,2.43 2.01,3.37 2.41,2.19 4.81,4.4 7.32,6.49 -9.32,-3.96 -18.79,-7.67 -28.8,-9.5 -0.64,-9.41 0.1,-18.86 -0.37,-28.26 -2.99,-3.06 -6.32,-5.77 -9.4,-8.73 3.17,-0.03 6.35,-0.03 9.53,-0.02 0,-8.78 0.02,-17.57 -0.01,-26.35 -3.23,-2.8 -6.36,-5.7 -9.41,-8.69 m 29.13,11.99 c 0.02,9.59 -0.05,19.19 0.03,28.78 5.52,-3.72 10.57,-8.07 16,-11.91 0,-5.63 0.01,-11.25 0,-16.88 -5.35,0.02 -10.69,0.01 -16.03,0.01 z"
       id="path277"
       inkscape:connector-curvature="0"
       style="opacity:1;fill:#ffffff" />
  </g>
  <g
     id="#000000ff"
     transform="matrix(0.07922622,0,0,0.07922622,0.232134,1.1754e-6)">
    <path
       d="m 249.29,35.54 c 2.21,-3.76 4.92,-7.19 7.73,-10.51 3.79,10.85 8.82,21.35 15.44,30.78 1.68,0.41 2.92,-1.12 4.26,-1.86 7.27,-4.99 15.16,-9.06 23.28,-12.47 9.57,3.93 18.72,8.97 27.1,15.05 6.82,-9.63 12.08,-20.34 15.91,-31.49 14.27,16.44 20.65,38.04 24.69,59.02 1.14,5.42 1.85,10.91 2.61,16.38 43.68,13 83.56,38.43 113.72,72.58 27.96,31.35 47.6,70.02 56.44,111.09 8.1,38.36 7.28,78.72 -3.03,116.58 9.77,0.11 19.55,-0.01 29.33,0.06 -9.11,10.57 -18.36,21.02 -27.55,31.52 -1.93,2.07 -0.8,5.16 -1.01,7.7 5.68,4.25 11.14,8.8 16.81,13.07 -5.28,5.4 -11.32,9.98 -16.58,15.39 -0.52,1.47 -0.23,3.08 -0.31,4.62 0.05,30.99 0.02,61.98 0.02,92.97 -5.14,-0.64 -10.02,-2.43 -15.03,-3.63 -24.69,-6.26 -49.3,-12.8 -73.99,-19.06 11.58,9.53 21.32,21.2 28.75,34.21 -37.67,-2.18 -75.78,-0.73 -112.82,6.87 1.6,-4.09 4.15,-7.7 5.85,-11.73 -16.7,0.66 -33.2,3.53 -49.82,5.09 -22.56,2.63 -45.31,3.65 -68.01,2.67 -19.45,-1.14 -38.9,-4.32 -57.21,-11.15 -15.86,-5.83 -30.62,-14.71 -42.93,-26.31 -18.43,4.28 -36.66,9.39 -55,14.03 -11.95,3.03 -23.88,6.11 -35.79,9.31 -0.61,-32.14 -0.15,-64.29 -0.32,-96.44 0.24,-1.32 -0.84,-2.15 -1.67,-2.94 -4.97,-4.72 -10.29,-9.04 -15.14,-13.88 5.66,-4.27 11.11,-8.81 16.78,-13.07 -0.2,-2.41 0.73,-5.2 -0.65,-7.33 C 51.9,422 42.49,411.49 33.33,400.75 c 9.75,-0.05 19.51,0.02 29.27,-0.04 -13.48,-49.98 -10.92,-104.25 7.71,-152.59 2.36,-6.64 5.6,-12.91 8.32,-19.39 0.41,-6.17 0.16,-12.39 0.09,-18.57 -2.21,-2.6 -2.92,-5.97 -3.39,-9.26 -6.02,-3.53 -11.12,-8.35 -15.86,-13.42 -2.51,-2.45 -1.71,-6.26 -2.15,-9.4 -0.25,-8.98 0.02,-18.54 4.13,-26.71 4.07,-2.64 9.08,-3.48 13.52,-5.34 2.94,-3.06 5.07,-6.87 8.38,-9.58 3.6,-1.33 7.53,-0.66 11.27,-1.18 4.22,-3.4 7.99,-7.63 13.24,-9.52 4.75,0.52 9.44,1.57 14.19,2.03 3.33,-1.09 6.38,-2.9 9.71,-4.01 5.53,0 11,1.14 16.44,2.1 2.64,3.53 4.96,7.29 7.06,11.18 5.29,-3.19 10.22,-6.94 15.52,-10.13 18.37,-11.34 38.23,-20.29 58.93,-26.45 3.07,-22.43 7.83,-45.27 19.58,-64.93 m 5.85,7.35 c -6.97,15.78 -10.06,33.12 -10.78,50.28 2.5,-5.61 5.46,-11.26 10.27,-15.25 0.9,2.02 1.92,4 3.06,5.9 4.2,-3.5 7.06,-8.37 7.81,-13.81 -5.03,-8.33 -8.56,-17.55 -10.36,-27.12 m 89.73,0.89 c -2.16,9.17 -5.35,18.17 -10.32,26.22 0.73,5.44 3.61,10.3 7.81,13.79 3.03,-6.12 4.17,-13.01 4.47,-19.77 0.11,-6.78 0.16,-13.73 -1.96,-20.24 m -64.52,20.73 c -1.4,12.86 -4.86,26.3 -14.23,35.77 0.19,-2.19 0.4,-4.38 0.65,-6.56 -4.73,5.92 -9.91,11.61 -16.2,15.91 -1.5,1.1 -3.28,2.05 -4.1,3.8 -6.29,12.61 -11.48,25.84 -14.69,39.58 -0.59,1.83 0.11,3.68 0.51,5.47 5.53,21.47 13.11,42.4 22.3,62.57 -5.31,-23.95 -9.73,-48.18 -11.37,-72.69 22.16,-0.77 44.68,-11.14 56.8,-30.22 8.7,1.28 16.84,4.87 24.73,8.61 -4.51,-5.98 -9.33,-11.79 -13.04,-18.33 -3.21,-6.21 -7.38,-11.83 -11.56,-17.41 2.14,-1.61 4.28,-3.23 6.44,-4.83 -0.89,-6.21 -3.53,-13.03 -0.41,-19 1.91,-3.64 6.19,-4.72 9.99,-4.95 -5.14,-3.43 -10.43,-6.79 -16.15,-9.15 -6.99,2.97 -13.37,7.22 -19.67,11.43 M 178.8,141.32 c 11.65,3.5 23.46,6.57 35.27,9.5 2.32,-10.88 6.49,-21.23 10.68,-31.49 -16.07,5.58 -31.56,12.91 -45.95,21.99 m 196.52,-21.89 c 4.3,10.22 8.27,20.63 10.75,31.46 11.73,-2.95 23.36,-6.29 35.08,-9.27 -3.33,-2.71 -7.13,-4.73 -10.87,-6.79 -11.23,-6.03 -22.82,-11.46 -34.96,-15.4 m -252.55,19.35 c -4.5,-1.14 -9.09,-2.73 -13.78,-2.27 -3.54,1.82 -6.06,4.98 -9.17,7.36 -3.72,1.01 -7.79,0.24 -11.46,1.65 -3.26,2.08 -4.4,6.27 -7.46,8.51 -3.79,1.45 -7.74,2.54 -11.33,4.51 -1.61,7.06 -2.25,14.38 -1.84,21.6 1.22,2.31 2.95,4.49 5.17,5.91 3.02,-1.23 5.8,-2.97 8.83,-4.2 3.26,4.49 7.48,8.2 12.34,10.88 -5.08,-9.54 -9.48,-19.82 -9.61,-30.81 2.17,5.02 4.05,10.16 6.37,15.12 3.75,-1.63 7.5,-3.29 11.26,-4.92 3.39,5.84 7.24,11.63 12.61,15.85 -4.54,-10.95 -8.56,-22.24 -10.51,-33.95 2.48,4.6 4.74,9.32 7.08,13.99 3.76,-1.05 7.42,-2.38 11.06,-3.78 2.52,6.25 4.98,12.54 7.35,18.86 -0.29,-12.56 -3.78,-24.74 -5.38,-37.13 2.77,5.04 5.08,10.31 7.42,15.56 4.78,-1.42 9.59,-2.8 14.57,-3.36 0.81,2.56 1.65,5.11 2.53,7.64 0.86,-4.8 3.01,-9.93 0.87,-14.7 -2.19,-5.96 -5.13,-11.7 -9.22,-16.58 -2.51,-0.29 -5,-0.8 -7.53,-0.7 -3.67,0.98 -6.91,3.07 -10.17,4.96 m 228.25,-4.81 c 1.54,5.12 4.61,9.76 5.68,15 -1.48,24.27 -5.98,48.27 -11.25,71.98 9.82,-21.26 17.63,-43.47 23.25,-66.2 -5.33,-7.38 -11.12,-14.46 -17.68,-20.78 m -23.06,13.46 c -0.61,3.86 -3.8,7.38 -7.92,7.15 -3.02,0.4 -5.74,-4.16 -8.12,-0.63 1.52,1.86 3.39,3.78 5.98,3.81 4.16,0.24 8.4,0.28 12.5,-0.58 4.66,-1.08 7.54,-5.82 7.53,-10.41 -3.34,-0.18 -6.7,-0.05 -9.97,0.66 m -66.2,6.78 c 4.73,1.66 9.4,3.53 14.25,4.84 3.08,0.9 6.81,0.53 8.97,-2.1 -2.46,-4.07 -6.62,1.32 -9.61,-1.48 -2.37,-1.36 -1.82,-5.71 -5.32,-5.18 -3.45,-1.03 -6.65,0.96 -8.29,3.92 m -97.16,-0.65 c -0.51,3.81 -1.11,7.6 -1.4,11.43 9.35,4.33 18.4,9.28 27.75,13.61 6.41,-4.42 12.97,-8.72 20.03,-12.01 -15.33,-4.76 -30.95,-8.58 -46.38,-13.03 m 132.88,0.99 c -4.38,3.31 -6.63,8.8 -11.45,11.6 -4.84,2.79 -10.68,3.33 -16.15,2.8 1.34,-0.85 2.69,-1.68 4.05,-2.52 -7.62,-0.93 -15.26,-2.41 -22.16,-5.9 -2.41,4.06 -1.14,8.89 1.44,12.52 2.61,3.5 4.87,7.25 6.92,11.11 -1.34,0.06 -2.68,0.12 -4.02,0.18 5.75,7.83 11.18,16.13 13.94,25.54 1.41,5.02 4.43,9.42 8.43,12.74 2.32,1.33 4.8,2.61 7.56,2.48 4.35,-0.33 8.53,-1.86 12.93,-1.83 4.75,-0.3 9.35,1.06 14.01,1.76 4.84,0.6 9.27,-2.32 12.17,-5.97 4,-4.5 4.91,-10.63 7.32,-15.96 2.97,-6.71 7.09,-12.84 11.41,-18.73 -1.34,-0.08 -2.68,-0.15 -4.01,-0.21 2.42,-4.78 5.65,-9.08 8.4,-13.66 1.86,-3.11 1.62,-6.87 0.01,-10.01 -6.91,3.61 -14.63,4.99 -22.29,5.96 1.32,0.84 2.63,1.69 3.95,2.56 -5.42,0.43 -11.18,-0.11 -15.95,-2.9 -5.03,-2.92 -7.25,-8.79 -12.03,-11.98 -1.33,-0.98 -3.3,-0.62 -4.48,0.42 m 91.62,11.97 c 6.97,3.44 13.62,7.58 19.96,12.08 15.22,-3.94 30.39,-8.05 45.54,-12.21 -5.51,-4.32 -10.38,-9.58 -16.42,-13.13 -16.41,4.23 -32.8,8.59 -49.08,13.26 m -248.91,9.41 c 0.1,3.67 -0.19,7.37 0.17,11.03 2.35,4.08 6.88,5.99 10.74,8.33 -5.48,1.06 -10.97,-0.05 -16,-2.29 -4.92,2.88 -10.61,3.91 -16.26,3.73 0.1,11.78 -0.19,23.58 0.16,35.36 4.33,0.53 8.57,1.57 12.69,3 0.67,-7.24 1.39,-14.51 3.28,-21.55 -2.06,-0.61 -4.11,-1.26 -6.16,-1.88 0.68,-0.4 1.37,-0.8 2.06,-1.19 4.62,-0.29 9.22,-1.28 13.52,-2.99 2.92,-1.23 3.87,-4.6 5.27,-7.15 2.86,-0.27 5.66,-1.07 8.41,-1.91 3.67,-0.99 6.02,-4.19 8.7,-6.65 -0.01,-3.81 -0.01,-7.62 -0.06,-11.42 -2.27,-1.92 -4.53,-3.86 -6.77,-5.81 -6.57,0.38 -13.52,-1.3 -19.75,1.39 m 37.98,33.95 c 9.84,-3.67 19.82,-6.96 30.01,-9.54 3.15,-5.68 9.07,-10.05 15.79,-9.71 -1.24,-3.55 -2.41,-7.13 -3.78,-10.64 -15.41,7.81 -29.42,18.11 -42.02,29.89 M 379.85,180 c -1.36,3.51 -2.52,7.09 -3.78,10.64 6.68,-0.32 12.71,3.95 15.77,9.69 10.19,2.6 20.2,5.85 30.04,9.57 -12.57,-11.81 -26.61,-22.11 -42.03,-29.9 m 89.94,1.88 c -4.05,15.06 -8.13,30.1 -12.15,45.17 4.51,6.49 8.61,13.27 12.36,20.23 4.1,-16.5 9.11,-32.79 12.9,-49.35 -3.69,-5.82 -8.4,-11.01 -13.11,-16.05 m -44.95,8.67 c 7.47,6.43 14.12,13.68 21.03,20.68 2.43,-9.44 4.93,-18.86 7.52,-28.24 -9.55,2.37 -19.07,4.91 -28.55,7.56 M 89.23,203.04 c 1.88,7.44 10.47,8.88 17,8.51 -4.57,2.97 -10.12,3.45 -15.41,3.78 -0.2,7.94 -0.12,15.88 -0.05,23.83 6.36,-3.56 13.22,-6.3 20.52,-7.05 0.09,-10.77 0.01,-21.54 0.04,-32.31 -3.47,-0.3 -6.9,-0.83 -10.33,-1.41 -3.65,2.17 -7.65,3.65 -11.77,4.65 m 132.63,0.8 c -2.13,10.42 0.7,21.13 3.74,31.1 -4.67,-6.87 -7.69,-14.65 -11.84,-21.8 0.7,23.84 3.7,47.67 9.18,70.9 5.02,21.85 12.43,43.23 23.12,62.98 -11.3,-11.7 -20.11,-25.65 -26.84,-40.42 0.84,7.68 3.52,15 5.46,22.44 -6.12,-8.41 -9.58,-18.41 -12.51,-28.3 -4.35,-14.58 -6.3,-29.75 -7.29,-44.88 -4.83,15.2 -4.82,31.46 -4.46,47.27 0.51,16.97 2.9,34 8.38,50.12 4.32,11.91 10.11,23.58 19.06,32.72 -1.99,-8.56 -3.35,-17.27 -3.64,-26.06 8.3,11.05 19.85,19.13 31.72,25.93 -3.1,-5.28 -6.15,-10.74 -6.83,-16.96 12.43,7.76 27.15,11.5 41.72,11.85 -16.48,-24.36 -29,-51.28 -38.27,-79.15 -0.65,-1.89 -1.15,-3.83 -1.55,-5.78 12.93,17.55 26.98,34.33 42.65,49.51 15.31,14.4 31.6,28.2 50.46,37.73 -20.66,-21.78 -39.94,-45.1 -55.24,-71 13.13,12.19 27.54,23.07 43.05,32.05 -36.4,-35.81 -68.6,-76.25 -92.97,-121.23 -3.41,-5.86 -5.22,-12.82 -10.23,-17.63 -1.7,-1.82 -4.62,-2.93 -6.87,-1.39 m 146.62,4.7 c -5.9,9.26 -7.76,20.31 -11.49,30.49 -8.33,26.29 -21.24,50.83 -35.43,74.38 16.3,0.66 31.03,-8.47 43.22,-18.39 0.89,8.33 -0.32,16.7 0.16,25.05 0.5,6.78 -0.74,13.61 0.51,20.35 2.97,-6.64 5.98,-13.26 8.35,-20.14 0.17,-0.01 0.51,-0.01 0.68,-0.02 1.63,2.89 2.87,5.98 4.68,8.77 2.12,-10.45 4.02,-20.95 6.25,-31.38 1.7,28.83 4.35,57.59 7.69,86.28 0.99,-8.65 1.65,-17.34 2.81,-25.97 3.09,-25.86 10.45,-51 13.13,-76.93 2.58,27 4.66,54.06 7.29,81.04 1.86,-16.07 3.47,-32.25 7.43,-47.97 1.05,-3.57 1.97,-7.56 5.16,-9.88 3.22,3.1 4.44,7.49 5.5,11.69 4.36,18.1 5.85,36.71 8.18,55.14 2.58,-14.94 3.63,-30.12 6.64,-44.99 0.93,-3.63 1.51,-7.87 4.87,-10.15 2.91,3.05 4.07,7.18 5.22,11.12 3.87,14.45 6.07,29.27 8.26,44.04 0.1,-11.3 0.08,-22.6 0.05,-33.9 1.2,0.56 2.41,1.14 3.62,1.72 0,-26.72 -5.93,-53.51 -17.8,-77.48 -4.93,-9.29 -10.02,-18.83 -17.81,-26.07 -2.5,-2.69 -6.57,-2.27 -9.33,-4.53 -2.42,-1.84 -5.46,-2.21 -8.37,-2.57 -1.97,-1.62 -4.24,-3.07 -6.89,-3.07 -4.26,-0.49 -7.44,2.87 -10.55,5.21 -0.38,-2.96 -0.59,-6.11 -2.19,-8.72 -3.04,-2.88 -7.31,-4.35 -11.48,-4.23 -3.76,17.06 -11.39,33.45 -22.86,46.69 6.69,-16.78 13.47,-33.94 14.72,-52.16 0.05,-2.7 0.28,-5.49 -0.51,-8.1 -3.96,-2.43 -7.61,1.72 -9.71,4.68 m 113.91,51.95 c 8.17,4.92 16.47,9.63 24.75,14.37 5.47,3.1 10.74,6.63 16.51,9.18 -5.71,-24.5 -15.56,-47.99 -28.81,-69.36 -4.33,15.22 -7.91,30.65 -12.45,45.81 M 161.63,231.6 c -4.46,7.25 -3.94,16.39 -1.44,24.23 2.42,7.53 3.83,15.35 4.38,23.23 15.47,-7.06 24.98,-24.29 24.17,-41.07 -0.22,-4.12 -0.72,-8.76 2.13,-12.16 1.93,-2.77 5.21,-3.84 8.27,-4.82 -5.09,-1.94 -10.68,-1.89 -16.03,-1.41 -8.28,0.99 -16.92,4.7 -21.48,12 m 128.04,14.91 c -0.79,0.05 -2.35,0.16 -3.14,0.22 -0.19,11.3 5.16,21.95 12.48,30.27 0.66,0.96 1.32,0.96 1.99,0.02 7.35,-8.3 12.75,-18.98 12.48,-30.29 -0.78,-0.06 -2.34,-0.17 -3.12,-0.23 -2.4,-3.6 -5.86,-7.12 -10.41,-7.42 -4.51,0.4 -7.85,3.91 -10.28,7.43 m -198.98,4.22 c 5.74,2.36 11.25,5.18 16.86,7.81 2.35,-5.96 4.63,-11.97 6.53,-18.1 -8.55,0.65 -17.76,3.53 -23.39,10.29 m 25.63,-10.3 c 2.11,6.06 4.41,12.05 6.54,18.11 5.75,-2.69 11.49,-5.43 17.29,-8.05 -6.33,-6.22 -15.02,-9.61 -23.83,-10.06 m -4.88,18.91 c 2.51,-0.15 5.04,-0.15 7.55,-0.04 -1.22,-3.33 -2.45,-6.65 -3.49,-10.04 -1.81,3.15 -2.57,6.77 -4.06,10.08 m -32.5,16.35 c 6.06,-1.97 12,-4.32 18,-6.46 -2.67,-5.77 -5.44,-11.49 -7.99,-17.32 -6.21,6.32 -9.63,14.97 -10.01,23.78 m 54.7,-6.55 c 5.93,2.36 11.96,4.47 17.98,6.62 -0.19,-8.9 -4.04,-17.29 -9.83,-23.94 -2.78,5.74 -5.46,11.53 -8.15,17.32 m -37.7,-11.75 c 1.33,3.29 2.75,6.54 4.51,9.62 1.44,-2.01 3.18,-3.77 5.24,-5.15 -3.27,-1.45 -6.51,-2.97 -9.75,-4.47 m 28.99,4.49 c 2,1.51 3.78,3.28 5.37,5.21 1.46,-3.26 2.99,-6.49 4.44,-9.76 -3.29,1.49 -6.54,3.05 -9.81,4.55 m -13.5,2.53 c 1.23,1.37 2.49,2.73 3.75,4.08 1.46,-1.35 2.85,-2.77 4.05,-4.35 -2.59,-0.44 -5.28,-0.63 -7.8,0.27 m -7.31,5.57 c 1.37,1.84 3.12,3.34 4.8,4.89 1.33,-1.36 2.75,-2.65 3.9,-4.18 -0.37,-2.16 -2.83,-3.37 -4.13,-5.05 -1.68,1.26 -3.47,2.5 -4.57,4.34 m 13.13,0.28 c 1.51,1.55 3.06,3.07 4.62,4.58 1.58,-1.63 3.16,-3.25 4.74,-4.87 -1.21,-1.32 -2.37,-2.71 -3.8,-3.81 -2.51,-0.04 -3.76,2.77 -5.56,4.1 m -29.38,6.63 c 3.24,1.29 6.53,2.45 9.79,3.71 -0.05,-2.5 -0.05,-4.99 0.02,-7.49 -3.3,1.18 -6.61,2.33 -9.81,3.78 m 14.69,-3.99 c -0.18,2.43 -0.24,4.88 -0.19,7.33 1.78,-0.73 3.25,-1.97 4.61,-3.29 -1.43,-1.4 -2.88,-2.77 -4.42,-4.04 m 8.58,4.17 c 1.06,1.78 2.81,2.96 4.45,4.15 1.41,-1.46 2.84,-2.91 4.27,-4.35 -1.54,-1.58 -3.1,-3.14 -4.69,-4.67 -1.31,1.6 -3.45,2.81 -4.03,4.87 m 12.56,-0.73 c 1.18,1.63 2.52,3.12 3.92,4.58 0.98,-2.58 0.75,-5.35 0.43,-8.02 -1.47,1.11 -2.91,2.28 -4.35,3.44 m 8.97,-3.24 c 0.4,2.5 0.42,5.03 -0.02,7.53 3.39,-1.29 6.82,-2.48 10.24,-3.71 -3.35,-1.44 -6.78,-2.64 -10.22,-3.82 m -53.63,4.88 c 0.09,8.9 3.9,17.4 9.88,23.9 2.49,-5.91 5.44,-11.6 7.97,-17.48 -5.96,-2.12 -11.85,-4.43 -17.85,-6.42 m 24.91,5.52 c 1.31,1.79 2.89,3.36 4.71,4.63 1.33,-1.69 3.65,-2.99 4.15,-5.13 -1.07,-1.51 -2.44,-2.79 -3.89,-3.92 -1.86,1.23 -3.39,2.87 -4.97,4.42 m 13.26,-0.36 c 1.52,1.65 3,3.37 4.77,4.77 1.82,-0.91 3.93,-2.59 3.95,-4.78 -1.19,-1.57 -2.65,-2.89 -4.03,-4.28 -1.57,1.43 -3.15,2.84 -4.69,4.29 m 16.64,1.12 c 2.09,6.08 5.28,11.71 7.91,17.56 5.83,-6.58 9.64,-14.98 9.84,-23.84 -5.98,1.92 -11.8,4.29 -17.75,6.28 m 349.35,-5.18 c 2.26,7.56 4.15,15.23 5.58,22.99 13.58,7.62 26.88,15.77 40.56,23.2 -0.34,-6.9 -0.93,-13.81 -1.91,-20.65 -14.75,-8.5 -29.47,-17.05 -44.23,-25.54 m -371.99,10.33 c 2.63,0.34 5.3,0.38 7.94,0.18 -1.19,-1.53 -2.32,-3.21 -4.03,-4.19 -1.43,1.2 -2.65,2.64 -3.91,4.01 m -11.09,-2.65 c -1.34,3.13 -2.84,6.19 -4.15,9.33 3.19,-1.22 6.25,-2.73 9.34,-4.16 -1.73,-1.72 -3.45,-3.45 -5.19,-5.17 m 25.3,5.22 c 2.93,1.57 6.12,2.86 9.26,4.07 -1.42,-2.96 -2.7,-5.99 -4.14,-8.94 -2.01,1.09 -4,3.04 -5.12,4.87 m -13.94,2.45 c 1.31,3.23 2.43,6.53 3.71,9.78 1.49,-3.17 2.62,-6.49 3.79,-9.79 -2.5,0.09 -5,0.09 -7.5,0.01 m -21.17,9.03 c 6.67,5.56 14.89,9.63 23.74,9.52 -1.99,-6.01 -4.13,-11.98 -6.52,-17.84 -5.65,2.96 -11.65,5.21 -17.22,8.32 m 32.52,-8.3 c -2.07,5.97 -4.35,11.86 -6.43,17.84 8.64,-0.03 17.05,-3.59 23.37,-9.41 -0.16,-1.19 -1.87,-1.25 -2.67,-1.87 -4.82,-2.05 -9.49,-4.43 -14.27,-6.56 m -39.02,13.68 c -0.25,11.26 0.02,22.53 -0.15,33.8 -1.85,2.09 -3.96,4.01 -5.46,6.39 1.95,10.58 5.31,20.87 7.26,31.46 1.61,-11.27 0.16,-22.7 0.92,-34.03 2.51,0.91 5.05,1.74 7.62,2.46 -1.8,-2.19 -3.67,-4.31 -5.61,-6.37 -0.11,-9.96 -0.07,-19.93 -0.02,-29.89 -1.51,-1.29 -3.03,-2.56 -4.56,-3.82 m 58.53,3.43 v 0.29 c -7.47,4.71 -15.77,8.57 -24.74,9.03 -1.49,-0.02 -2.98,-0.02 -4.46,0 -5.13,-0.2 -10.11,-1.52 -14.91,-3.27 2.53,8.12 7.59,15.57 14.91,20.1 -0.08,5.24 0.2,10.5 -0.09,15.74 -0.99,2.64 -3.87,3.98 -5.83,5.86 2.58,10.72 4.95,21.5 7.97,32.11 0.35,-10.98 0.04,-21.98 0.16,-32.96 2.53,0.75 5.08,1.45 7.66,2.01 -1.77,-2.06 -3.61,-4.06 -5.42,-6.07 0,-5.56 -0.01,-11.12 0.01,-16.67 9.64,-4.61 18.33,-11.37 24.74,-19.95 -0.04,15.47 0.09,30.95 -0.06,46.42 -2,2.19 -4.25,4.22 -5.79,6.79 2.58,10.71 5.26,21.4 7.81,32.12 0.25,-11.59 0.03,-23.19 0.12,-34.78 2.59,0.74 5.19,1.45 7.82,2.03 -1.77,-2.13 -3.62,-4.19 -5.55,-6.17 -0.17,-18.68 0.03,-37.36 -0.11,-56.03 -1.41,1.13 -2.82,2.27 -4.24,3.4 m 348.93,9.35 c 0.6,9.77 0.62,19.58 -0.02,29.35 8.65,-4.81 17.19,-9.8 25.72,-14.82 -8.68,-4.64 -16.92,-10.07 -25.7,-14.53 m -2.56,48.89 c -1.33,7.67 -3.21,15.25 -5.53,22.68 14.9,-8.08 29.36,-16.97 44.16,-25.22 1.14,-6.92 1.62,-13.92 2.03,-20.91 -13.61,7.71 -27.14,15.58 -40.66,23.45 m -318.06,31.96 c 1.44,1.69 3.02,3.26 4.7,4.72 0.23,6.76 0.04,13.53 0.12,20.3 6.17,0.02 12.35,0 18.53,0.01 4.59,-0.14 9.77,1.07 13.46,-2.44 0.05,-6.69 0.07,-13.37 -0.01,-20.06 -1.73,-1.01 -3.3,-2.74 -5.47,-2.59 -10.44,0.01 -20.89,-0.06 -31.33,0.06 m 57.19,0.02 c 0.01,3.28 0.01,6.56 -0.02,9.84 -1.62,0.01 -3.24,0.02 -4.85,0.04 1.62,1.54 3.41,2.96 4.74,4.79 0.35,3.42 0.08,6.87 0.13,10.3 2.65,0.03 5.31,0.04 7.97,0.05 0,-3.31 0,-6.62 0.01,-9.92 0.83,0.02 2.49,0.06 3.31,0.08 4.37,2.61 7.86,6.44 11.66,9.79 3.36,0.05 6.72,0.05 10.08,0.02 -3.54,-3.42 -7.43,-6.45 -11,-9.83 3.44,-0.08 6.89,-0.07 10.34,-0.11 -0.07,-5.05 0.15,-10.11 -0.22,-15.16 -10.72,0.11 -21.44,-0.09 -32.15,0.11 m 53.57,-0.08 c 0,3.3 0,6.6 0,9.9 -1.59,0.01 -3.18,0.04 -4.77,0.07 1.46,1.67 3.04,3.25 4.69,4.74 0.1,3.45 0.09,6.91 0.09,10.37 10.68,0 21.37,0.06 32.06,-0.03 -0.06,-1.75 -0.1,-3.5 -0.14,-5.25 -8.03,0.04 -16.06,0.09 -24.09,-0.03 -0.02,-1.51 -0.04,-3.02 -0.05,-4.52 5.49,-0.13 10.97,-0.05 16.46,-0.07 0,-1.76 0,-3.51 0.01,-5.26 -5.49,-0.03 -10.98,0.07 -16.46,-0.08 0.01,-1.46 0.03,-2.91 0.07,-4.36 8.02,-0.17 16.05,-0.06 24.08,-0.06 0.04,-1.78 0.08,-3.56 0.13,-5.34 -10.69,-0.19 -21.39,-0.03 -32.08,-0.08 m 61.78,0.01 c -1.21,3.34 -2.43,6.67 -3.79,9.96 -1.58,-0.02 -3.17,-0.02 -4.75,-0.02 1.13,1.26 2.28,2.49 3.43,3.73 -1.34,3.82 -2.92,7.55 -4.09,11.42 2.71,0.01 5.42,-0.03 8.13,-0.12 1.09,-3.31 2.29,-6.58 3.57,-9.82 3.22,0.02 6.44,0.02 9.67,-0.02 1.31,3.25 2.59,6.51 3.68,9.85 2.69,0.1 5.4,0.1 8.1,0.03 -3.09,-8.3 -5.84,-16.78 -9.32,-24.91 -4.87,-0.31 -9.76,-0.02 -14.63,-0.1 m 72.24,0.02 c -3.1,3.15 -5.99,6.55 -9.4,9.38 -3.25,-2.91 -6.17,-6.16 -9.15,-9.34 -3.1,-0.08 -6.2,-0.09 -9.3,-0.07 0.02,8.36 0.01,16.72 0,25.08 2.63,0.01 5.26,0.02 7.89,0.04 0.08,-5.54 -0.04,-11.07 0.11,-16.61 2.43,2.49 4.82,5.02 7.26,7.5 2.15,0 4.31,0.02 6.47,0.06 2.57,-2.42 4.96,-5.02 7.38,-7.59 0.11,5.51 0.07,11.02 0.03,16.53 2.6,0.06 5.21,0.09 7.81,0.09 0.11,-6.58 -0.16,-13.16 0.1,-19.73 1.32,-1.98 3.19,-3.5 4.72,-5.31 -4.64,-0.12 -9.28,-0.06 -13.92,-0.03 M 68.97,417.52 c 3.23,2.96 6.53,5.85 9.68,8.9 0.01,8.93 0.08,17.86 -0.05,26.78 -3.21,-0.02 -6.42,-0.02 -9.63,0.02 3.13,3.03 6.5,5.82 9.55,8.91 0.35,25.86 0.03,51.74 0.16,77.61 18.38,-4.61 36.69,-9.51 55.06,-14.22 -0.07,-8.56 0.02,-17.12 -0.05,-25.68 -6.44,-0.06 -12.88,0.01 -19.31,-0.05 -0.13,3.51 -0.1,7.02 -0.09,10.54 -5.29,1.56 -10.67,2.73 -15.97,4.23 -0.05,-16.42 -0.04,-32.84 -0.01,-49.25 10.18,0.02 20.36,0.06 30.54,-0.02 -4.55,-3.76 -8.53,-8.15 -13.09,-11.88 -5.76,-0.53 -11.6,-0.08 -17.39,-0.2 -0.16,-7.88 -0.06,-15.76 -0.06,-23.64 5.33,0.03 10.65,0 15.98,0.02 0,3.89 -0.03,7.78 0.05,11.68 6.43,-0.03 12.87,-0.05 19.3,0.01 0.11,-3.96 0.1,-7.91 0.03,-11.86 -4.31,-4.05 -8.71,-7.99 -13.1,-11.95 -17.2,0.01 -34.4,-0.09 -51.6,0.05 m 413.44,-0.04 c -5.33,4.01 -10.7,7.97 -16.05,11.95 -0.06,11.97 -0.04,23.94 -0.01,35.91 11.8,-0.03 23.6,0.01 35.4,-0.02 0.01,16.4 -0.01,32.8 0.01,49.21 -5.33,-1.44 -10.72,-2.63 -16.01,-4.21 0.01,-3.51 0.04,-7.02 -0.09,-10.53 -6.42,0.04 -12.83,0.04 -19.24,0 -0.21,8.57 -0.02,17.15 -0.11,25.73 18.37,4.7 36.69,9.61 55.09,14.24 0.09,-25.94 -0.09,-51.87 0.09,-77.81 3.31,-2.78 6.39,-5.8 9.57,-8.72 -15.1,-0.09 -30.19,-0.01 -45.29,-0.04 -0.04,-7.87 0,-15.73 -0.03,-23.59 5.33,-0.04 10.67,0 16,-0.02 0.02,4.6 0.01,9.21 0.01,13.82 6.56,0.02 13.11,0.01 19.67,0.01 0.01,-5.68 -0.02,-11.35 0.02,-17.02 3.12,-3.06 6.43,-5.93 9.68,-8.86 -16.23,-0.16 -32.47,-0.06 -48.71,-0.05 m -336.08,25.88 c 3.09,3.33 7.09,5.86 9.74,9.56 -0.24,8.5 0.06,16.99 -0.2,25.5 -3.23,-0.01 -6.45,-0.01 -9.67,0.01 3.21,2.84 6.3,5.82 9.57,8.59 0.72,12.8 -0.1,25.62 0.11,38.43 9.75,0.06 19.51,0.11 29.27,-0.02 -3.09,-3.15 -6.76,-5.75 -9.6,-9.13 -0.13,-8.6 0,-17.2 -0.05,-25.8 5.36,0 10.72,0 16.08,0 0,11.66 0,23.33 0,34.99 9.61,-0.02 19.23,0.07 28.84,-0.04 -2.52,-2.78 -5.34,-5.25 -8.08,-7.81 -1.33,-0.75 -1.04,-2.33 -1.11,-3.6 0.06,-19.49 -0.04,-38.98 0.05,-58.46 -4.21,-3.75 -8.27,-7.67 -12.46,-11.45 -0.95,-1.11 -2.52,-0.7 -3.78,-0.81 -16.24,0.06 -32.48,-0.02 -48.71,0.04 m 73.77,-0.01 c 4.34,4.03 8.67,8.07 13.12,11.97 5.4,0.11 10.8,0.02 16.2,0.06 -0.01,23.37 0,46.75 0,70.12 9.66,-0.04 19.32,0.07 28.98,-0.06 -2.51,-2.75 -5.36,-5.18 -8.12,-7.67 -1.18,-0.85 -1.46,-2.36 -1.41,-3.71 0.47,-19.56 -0.06,-39.13 0.25,-58.69 6.7,-0.03 13.41,0.08 20.11,-0.07 -4.26,-4.01 -8.82,-7.69 -12.88,-11.91 -18.75,-0.12 -37.5,-0.04 -56.25,-0.04 m 81.9,0.04 c 3.19,2.85 6.2,5.9 9.5,8.63 0.19,8.8 0.04,17.6 0.08,26.4 -3.22,-0.01 -6.43,-0.04 -9.65,0.07 3.21,2.92 6.61,5.66 9.55,8.86 0.26,12.71 0.03,25.43 0.11,38.15 16.11,-0.02 32.23,0.03 48.34,-0.03 -1.93,-4.38 -4.05,-8.67 -5.93,-13.07 4.25,-0.13 8.5,-0.07 12.75,0.11 0,-3.66 0.02,-7.31 -0.04,-10.95 -6.49,0.06 -12.97,0 -19.45,0.04 0.01,3.94 0,7.88 0.01,11.83 -5.33,0.05 -10.66,0.01 -15.99,0.04 -0.02,-7.66 -0.03,-15.33 0,-22.98 10.04,0 20.09,0.07 30.13,-0.04 -3.93,-4.36 -8.58,-8 -12.84,-12.02 -5.76,-0.03 -11.52,-0.03 -17.27,0.01 -0.09,-7.68 0.02,-15.36 -0.07,-23.03 5.35,-0.07 10.69,-0.05 16.04,-0.01 -0.01,3.92 -0.07,7.85 0.11,11.78 6.41,-0.04 12.82,-0.06 19.23,0.01 0.13,-3.94 0.35,-7.9 -0.01,-11.82 -4.2,-4.1 -8.52,-8.1 -12.99,-11.88 -17.19,-0.33 -34.41,-0.11 -51.61,-0.1 m 77.38,-0.01 c 3.05,2.99 6.18,5.89 9.41,8.69 0.03,8.78 0.01,17.57 0.01,26.35 -3.18,-0.01 -6.36,-0.01 -9.53,0.02 3.08,2.96 6.41,5.67 9.4,8.73 0.47,9.4 -0.27,18.85 0.37,28.26 10.01,1.83 19.48,5.54 28.8,9.5 -2.51,-2.09 -4.91,-4.3 -7.32,-6.49 -0.93,-0.94 -2.4,-1.8 -2.01,-3.37 -0.07,-3.34 0,-6.69 0.04,-10.03 5.43,-3.86 10.71,-7.93 15.93,-12.06 0.14,10.84 0.03,21.68 0.07,32.52 9.62,-0.03 19.24,0.05 28.86,-0.04 -2.86,-3.08 -5.95,-5.95 -9.13,-8.69 -0.27,-8.65 0.09,-17.31 -0.17,-25.96 -2,-2.69 -4.85,-4.58 -7.22,-6.92 2.4,-1.93 4.91,-3.72 7.33,-5.63 -0.08,-7.1 0.02,-14.2 -0.03,-21.3 0.34,-1.47 -0.97,-2.38 -1.84,-3.26 -3.26,-2.75 -6.36,-5.68 -9.42,-8.65 -0.89,-0.72 -1.69,-1.83 -2.97,-1.68 -16.86,-0.05 -33.72,-0.07 -50.58,0.01 m -1.24,84.85 c 2.76,3.93 4.88,8.31 5.99,13 -9.52,0.14 -19.06,-0.11 -28.55,0.78 -26.62,2.18 -53.06,5.94 -79.56,9.22 -14.32,1.48 -28.78,2.64 -43.18,1.43 -20.84,-1.18 -42,-4.95 -60.77,-14.46 8.17,7.03 17.85,12.04 27.8,16.04 16.32,6.24 33.79,8.59 51.13,9.82 26.07,1.36 52.13,-1.1 78.02,-4.02 40.16,-5.43 81.47,-6.17 121.19,2.8 -15.16,-14.3 -33.63,-25.15 -53.58,-31.21 -6.02,-1.78 -12.18,-3.42 -18.49,-3.4 z"
       id="path280"
       inkscape:connector-curvature="0"
       style="opacity:1;fill:#000000" />
    <path
       d="m 308.79,178.65 c 1.34,1.59 3.35,3.08 3.1,5.42 -0.06,2.44 -2.69,3.47 -4.63,4.17 -5.87,1.74 -12.44,1.4 -17.95,-1.37 -1.22,-1.74 -1.43,-4.45 0.56,-5.72 2.94,1.05 5.78,2.75 9.02,2.56 2.79,-0.09 6.49,0.14 8.2,-2.56 0.42,-0.63 1.28,-1.87 1.7,-2.5 z"
       id="path282"
       inkscape:connector-curvature="0"
       style="opacity:1;fill:#000000" />
    <path
       d="m 279.56,198.54 c 17.05,-0.03 34.25,-2.74 50.17,-9 -1.84,7.15 -5.81,13.47 -10.32,19.23 0.33,0.92 0.98,2.75 1.3,3.66 -14.01,1.7 -28.27,0.77 -42,-2.48 -0.31,-0.24 -0.92,-0.73 -1.23,-0.97 1.16,-0.48 2.31,-0.96 3.47,-1.43 -2.28,-2.77 -4.3,-5.74 -6,-8.89 1.53,-0.06 3.06,-0.11 4.61,-0.12 m 4.89,4.83 c 0.87,0.96 1.73,1.92 2.6,2.9 9.02,0.76 18.11,0.57 27.14,0.04 2.62,-2.39 4.59,-5.39 5.91,-8.67 -11.46,4.07 -23.71,4.41 -35.65,5.73 z"
       id="path284"
       inkscape:connector-curvature="0"
       style="opacity:1;fill:#000000" />
    <path
       d="m 183.39,407.79 c 5.39,0.03 10.78,0.03 16.17,0 0.11,4.82 0.08,9.64 0.05,14.47 -5.42,-0.02 -10.83,-0.02 -16.25,0 -0.04,-4.83 -0.06,-9.65 0.03,-14.47 z"
       id="path286"
       inkscape:connector-curvature="0"
       style="opacity:1;fill:#000000" />
    <path
       d="m 235.69,412.31 c 0.36,-1.42 -0.56,-3.7 1.17,-4.42 5.1,-0.27 10.21,0 15.32,-0.07 0.01,1.5 0.03,2.99 0.05,4.49 -5.51,0.03 -11.03,0.03 -16.54,0 z"
       id="path288"
       inkscape:connector-curvature="0"
       style="opacity:1;fill:#000000" />
    <path
       d="m 347.94,412.33 c 0.56,-1.78 0.58,-4.87 3.21,-4.7 1.67,0.99 1.47,3.08 1.9,4.74 -1.71,-0.01 -3.41,-0.03 -5.11,-0.04 z"
       id="path290"
       inkscape:connector-curvature="0"
       style="opacity:1;fill:#000000" />
    <path
       d="m 175.5,455.37 c 5.36,0 10.72,0.01 16.08,0 0,7.68 0.01,15.37 -0.01,23.05 -5.35,-0.01 -10.71,-0.01 -16.06,0 -0.02,-7.68 0,-15.37 -0.01,-23.05 z"
       id="path292"
       inkscape:connector-curvature="0"
       style="opacity:1;fill:#000000" />
    <path
       d="m 408.51,455.37 c 5.34,0 10.68,0.01 16.03,-0.01 0.01,5.63 0,11.25 0,16.88 -5.43,3.84 -10.48,8.19 -16,11.91 -0.08,-9.59 -0.01,-19.19 -0.03,-28.78 z"
       id="path294"
       inkscape:connector-curvature="0"
       style="opacity:1;fill:#000000" />
  </g>
  <g
     id="#b01c00ff"
     transform="matrix(0.07922622,0,0,0.07922622,0.232134,1.1754e-6)">
    <path
       d="m 255.14,42.89 c 1.8,9.57 5.33,18.79 10.36,27.12 -0.75,5.44 -3.61,10.31 -7.81,13.81 -1.14,-1.9 -2.16,-3.88 -3.06,-5.9 -4.81,3.99 -7.77,9.64 -10.27,15.25 0.72,-17.16 3.81,-34.5 10.78,-50.28 m -5.77,34.2 c 1.88,-1.86 4.4,-3.54 5.15,-6.17 0.1,-5.06 -0.15,-10.13 -0.75,-15.15 -2.61,6.81 -3.29,14.16 -4.4,21.32 z"
       id="path297"
       inkscape:connector-curvature="0"
       style="opacity:1;fill:#b01c00" />
    <path
       d="m 344.87,43.78 c 2.12,6.51 2.07,13.46 1.96,20.24 -0.3,6.76 -1.44,13.65 -4.47,19.77 -4.2,-3.49 -7.08,-8.35 -7.81,-13.79 4.97,-8.05 8.16,-17.05 10.32,-26.22 z"
       id="path299"
       inkscape:connector-curvature="0"
       style="opacity:1;fill:#b01c00" />
    <path
       d="m 122.77,138.78 c 3.26,-1.89 6.5,-3.98 10.17,-4.96 2.53,-0.1 5.02,0.41 7.53,0.7 4.09,4.88 7.03,10.62 9.22,16.58 2.14,4.77 -0.01,9.9 -0.87,14.7 -0.88,-2.53 -1.72,-5.08 -2.53,-7.64 -4.98,0.56 -9.79,1.94 -14.57,3.36 -2.34,-5.25 -4.65,-10.52 -7.42,-15.56 1.6,12.39 5.09,24.57 5.38,37.13 -2.37,-6.32 -4.83,-12.61 -7.35,-18.86 -3.64,1.4 -7.3,2.73 -11.06,3.78 -2.34,-4.67 -4.6,-9.39 -7.08,-13.99 1.95,11.71 5.97,23 10.51,33.95 -5.37,-4.22 -9.22,-10.01 -12.61,-15.85 -3.76,1.63 -7.51,3.29 -11.26,4.92 -2.32,-4.96 -4.2,-10.1 -6.37,-15.12 0.13,10.99 4.53,21.27 9.61,30.81 -4.86,-2.68 -9.08,-6.39 -12.34,-10.88 -3.03,1.23 -5.81,2.97 -8.83,4.2 -2.22,-1.42 -3.95,-3.6 -5.17,-5.91 -0.41,-7.22 0.23,-14.54 1.84,-21.6 3.59,-1.97 7.54,-3.06 11.33,-4.51 3.06,-2.24 4.2,-6.43 7.46,-8.51 3.67,-1.41 7.74,-0.64 11.46,-1.65 3.11,-2.38 5.63,-5.54 9.17,-7.36 4.69,-0.46 9.28,1.13 13.78,2.27 m 5.31,3.34 c 1.09,3.4 2.92,6.5 4.24,9.81 3.79,-0.31 7.47,-1.29 11.21,-1.88 -1.5,-3.57 -2.82,-7.28 -5.01,-10.49 -1.58,-1.08 -3.66,-0.92 -5.46,-1.35 -1.57,1.32 -4.21,1.88 -4.98,3.91 M 106.04,148 c 1.21,3.77 3.61,7.01 5.1,10.66 3.33,-0.82 6.57,-1.94 9.79,-3.12 -0.93,-4.5 -2.61,-8.8 -4.45,-12.99 -1.9,-0.3 -3.79,-0.69 -5.7,-0.81 -2.17,1.52 -3.83,3.79 -4.74,6.26 m -13.93,18.91 c 3.09,-1.3 6.14,-2.69 9.24,-3.98 -1.15,-4.09 -2.09,-8.22 -2.95,-12.38 -2.16,0.09 -4.33,0.08 -6.47,0.4 -3.74,4.69 -2.64,11.09 0.18,15.96 m -19.48,-2.32 c -0.37,4.26 -1.1,8.54 -0.66,12.82 3.23,-0.75 5.81,-3.16 8.82,-4.47 -0.25,-3.63 -0.58,-7.26 -0.71,-10.89 -2.58,0.53 -5.08,1.38 -7.45,2.54 z"
       id="path301"
       inkscape:connector-curvature="0"
       style="opacity:1;fill:#b01c00" />
    <path
       d="m 297.48,154.55 c 1.18,-1.04 3.15,-1.4 4.48,-0.42 4.78,3.19 7,9.06 12.03,11.98 4.77,2.79 10.53,3.33 15.95,2.9 -1.32,-0.87 -2.63,-1.72 -3.95,-2.56 7.66,-0.97 15.38,-2.35 22.29,-5.96 1.61,3.14 1.85,6.9 -0.01,10.01 -2.75,4.58 -5.98,8.88 -8.4,13.66 1.33,0.06 2.67,0.13 4.01,0.21 -4.32,5.89 -8.44,12.02 -11.41,18.73 -2.41,5.33 -3.32,11.46 -7.32,15.96 -2.9,3.65 -7.33,6.57 -12.17,5.97 -4.66,-0.7 -9.26,-2.06 -14.01,-1.76 -4.4,-0.03 -8.58,1.5 -12.93,1.83 -2.76,0.13 -5.24,-1.15 -7.56,-2.48 6.13,-0.58 12.33,-1.71 17.61,-5.06 -6.18,-1.46 -12.78,-2.86 -17.38,-7.61 13.73,3.25 27.99,4.18 42,2.48 -0.32,-0.91 -0.97,-2.74 -1.3,-3.66 4.51,-5.76 8.48,-12.08 10.32,-19.23 -15.92,6.26 -33.12,8.97 -50.17,9 3.44,-2.04 7.4,-3.11 10.68,-5.41 2.12,-1.79 -0.25,-4.33 -0.93,-6.26 5.51,2.77 12.08,3.11 17.95,1.37 1.94,-0.7 4.57,-1.73 4.63,-4.17 0.25,-2.34 -1.76,-3.83 -3.1,-5.42 -0.42,0.63 -1.28,1.87 -1.7,2.5 0.06,-0.49 0.18,-1.47 0.24,-1.96 -2.39,0.36 -4.78,0.74 -7.16,1.12 0.01,-4.17 -0.05,-8.35 -0.22,-12.52 -6.7,3.07 -13.46,6.35 -20.9,7.11 -8.66,1.47 -17.31,-0.5 -25.84,-1.85 -2.58,-3.63 -3.85,-8.46 -1.44,-12.52 6.9,3.49 14.54,4.97 22.16,5.9 -1.36,0.84 -2.71,1.67 -4.05,2.52 5.47,0.53 11.31,-0.01 16.15,-2.8 4.82,-2.8 7.07,-8.29 11.45,-11.6 m 42.94,16.06 c -5.23,2.18 -10.8,3.01 -16.41,3.34 -3.87,-0.09 -4.32,5.72 -1.21,7.22 6.98,3.48 15.77,-0.29 19.51,-6.75 1.04,-1.5 0.46,-4.96 -1.89,-3.81 z"
       id="path303"
       inkscape:connector-curvature="0"
       style="opacity:1;fill:#b01c00" />
    <path
       d="m 140.19,175.93 c 6.23,-2.69 13.18,-1.01 19.75,-1.39 2.24,1.95 4.5,3.89 6.77,5.81 0.05,3.8 0.05,7.61 0.06,11.42 -2.68,2.46 -5.03,5.66 -8.7,6.65 -2.75,0.84 -5.55,1.64 -8.41,1.91 -6.61,-1.27 -14.12,-1.8 -19.85,2.4 -2.19,1.73 -5.23,3.92 -4.64,7.1 1.78,0.83 3.8,0.61 5.7,0.64 -0.69,0.39 -1.38,0.79 -2.06,1.19 2.05,0.62 4.1,1.27 6.16,1.88 -1.89,7.04 -2.61,14.31 -3.28,21.55 -4.12,-1.43 -8.36,-2.47 -12.69,-3 -0.35,-11.78 -0.06,-23.58 -0.16,-35.36 5.65,0.18 11.34,-0.85 16.26,-3.73 5.03,2.24 10.52,3.35 16,2.29 -3.86,-2.34 -8.39,-4.25 -10.74,-8.33 -0.36,-3.66 -0.07,-7.36 -0.17,-11.03 m 9.11,3.31 c 0.09,2.31 -0.32,4.74 0.41,6.98 1.99,1.89 4.43,3.68 7.23,4 3.64,-1.55 4.86,-5.94 3.26,-9.37 -2.62,-3.21 -7.35,-1.61 -10.9,-1.61 z"
       id="path305"
       inkscape:connector-curvature="0"
       style="opacity:1;fill:#b01c00" />
    <path
       d="m 89.23,203.04 c 4.12,-1 8.12,-2.48 11.77,-4.65 3.43,0.58 6.86,1.11 10.33,1.41 -0.03,10.77 0.05,21.54 -0.04,32.31 -7.3,0.75 -14.16,3.49 -20.52,7.05 -0.07,-7.95 -0.15,-15.89 0.05,-23.83 5.29,-0.33 10.84,-0.81 15.41,-3.78 -6.53,0.37 -15.12,-1.07 -17,-8.51 z"
       id="path307"
       inkscape:connector-curvature="0"
       style="opacity:1;fill:#b01c00" />
    <path
       d="m 161.63,231.6 c 4.56,-7.3 13.2,-11.01 21.48,-12 5.35,-0.48 10.94,-0.53 16.03,1.41 -3.06,0.98 -6.34,2.05 -8.27,4.82 -2.85,3.4 -2.35,8.04 -2.13,12.16 0.81,16.78 -8.7,34.01 -24.17,41.07 -0.55,-7.88 -1.96,-15.7 -4.38,-23.23 -2.5,-7.84 -3.02,-16.98 1.44,-24.23 m 9.68,-2.21 c -2.61,0.65 -4.94,2.45 -6,4.96 -2.39,5.1 -2.94,11.21 -1.17,16.58 0.66,2.32 3.2,4.35 5.52,2.67 6.72,-4.18 9.19,-13.18 7.45,-20.61 -0.33,-2.7 -3.28,-4.32 -5.8,-3.6 z"
       id="path309"
       inkscape:connector-curvature="0"
       style="opacity:1;fill:#b01c00" />
    <path
       d="m 289.67,246.51 c 2.43,-3.52 5.77,-7.03 10.28,-7.43 4.55,0.3 8.01,3.82 10.41,7.42 0.78,0.06 2.34,0.17 3.12,0.23 0.27,11.31 -5.13,21.99 -12.48,30.29 -0.67,0.94 -1.33,0.94 -1.99,-0.02 -7.32,-8.32 -12.67,-18.97 -12.48,-30.27 0.79,-0.06 2.35,-0.17 3.14,-0.22 m 3.89,9.78 c 1.01,5.06 3.09,9.95 6.18,14.09 0.61,-8.21 0.61,-16.48 0.07,-24.7 -3.76,2.03 -7.17,6.09 -6.25,10.61 z"
       id="path311"
       inkscape:connector-curvature="0"
       style="opacity:1;fill:#b01c00" />
    <path
       d="m 117.6,321.59 c 8.97,-0.46 17.27,-4.32 24.74,-9.03 0,1.97 0,3.95 0,5.93 -6.41,8.58 -15.1,15.34 -24.74,19.95 -0.01,-5.62 -0.02,-11.24 0,-16.85 z"
       id="path313"
       inkscape:connector-curvature="0"
       style="opacity:1;fill:#b01c00" />
    <path
       d="m 98.23,318.32 c 4.8,1.75 9.78,3.07 14.91,3.27 0.03,5.61 0.01,11.22 0,16.83 -7.32,-4.53 -12.38,-11.98 -14.91,-20.1 z"
       id="path315"
       inkscape:connector-curvature="0"
       style="opacity:1;fill:#b01c00" />
    <path
       d="m 378.14,528.23 c 6.31,-0.02 12.47,1.62 18.49,3.4 19.95,6.06 38.42,16.91 53.58,31.21 -39.72,-8.97 -81.03,-8.23 -121.19,-2.8 -25.89,2.92 -51.95,5.38 -78.02,4.02 -17.34,-1.23 -34.81,-3.58 -51.13,-9.82 -9.95,-4 -19.63,-9.01 -27.8,-16.04 18.77,9.51 39.93,13.28 60.77,14.46 14.4,1.21 28.86,0.05 43.18,-1.43 26.5,-3.28 52.94,-7.04 79.56,-9.22 9.49,-0.89 19.03,-0.64 28.55,-0.78 -1.11,-4.69 -3.23,-9.07 -5.99,-13 m 12.81,7.99 c 1.31,3.15 2.56,6.34 3.29,9.68 -12.12,-0.12 -24.26,-0.16 -36.32,1.13 -3.48,0.47 -7.21,0.2 -10.39,1.93 4.47,0.66 8.97,-0.08 13.46,-0.15 22.77,-0.57 45.86,-0.51 68.12,4.91 -3.25,-3.25 -7.46,-5.22 -11.48,-7.32 -8.59,-4.11 -17.47,-7.69 -26.68,-10.18 z"
       id="path317"
       inkscape:connector-curvature="0"
       style="opacity:1;fill:#b01c00" />
  </g>
  <g
     id="#c6a375ff"
     transform="matrix(0.07922622,0,0,0.07922622,0.232134,1.1754e-6)">
    <path
       d="m 280.35,64.51 c 6.3,-4.21 12.68,-8.46 19.67,-11.43 5.72,2.36 11.01,5.72 16.15,9.15 -3.8,0.23 -8.08,1.31 -9.99,4.95 -3.12,5.97 -0.48,12.79 0.41,19 -2.16,1.6 -4.3,3.22 -6.44,4.83 4.18,5.58 8.35,11.2 11.56,17.41 3.71,6.54 8.53,12.35 13.04,18.33 -7.89,-3.74 -16.03,-7.33 -24.73,-8.61 -12.12,19.08 -34.64,29.45 -56.8,30.22 1.64,24.51 6.06,48.74 11.37,72.69 -9.19,-20.17 -16.77,-41.1 -22.3,-62.57 -0.4,-1.79 -1.1,-3.64 -0.51,-5.47 3.21,-13.74 8.4,-26.97 14.69,-39.58 0.82,-1.75 2.6,-2.7 4.1,-3.8 6.29,-4.3 11.47,-9.99 16.2,-15.91 -0.25,2.18 -0.46,4.37 -0.65,6.56 9.37,-9.47 12.83,-22.91 14.23,-35.77 m 0.32,40.12 c -5.33,6.6 -12.66,11.11 -20.04,15.09 -5.04,2.99 -10.63,8.2 -9.02,14.69 9.42,1.59 18.4,-3.63 25.39,-9.43 9.97,-8.2 13.1,-21.75 13.49,-34.08 -3.13,4.68 -6.02,9.54 -9.82,13.73 z"
       id="path320"
       inkscape:connector-curvature="0"
       style="opacity:1;fill:#c6a375" />
    <path
       d="m 351.02,133.97 c 6.56,6.32 12.35,13.4 17.68,20.78 -5.62,22.73 -13.43,44.94 -23.25,66.2 5.27,-23.71 9.77,-47.71 11.25,-71.98 -1.07,-5.24 -4.14,-9.88 -5.68,-15 z"
       id="path322"
       inkscape:connector-curvature="0"
       style="opacity:1;fill:#c6a375" />
    <path
       d="m 221.86,203.84 c 2.25,-1.54 5.17,-0.43 6.87,1.39 5.01,4.81 6.82,11.77 10.23,17.63 24.37,44.98 56.57,85.42 92.97,121.23 -15.51,-8.98 -29.92,-19.86 -43.05,-32.05 15.3,25.9 34.58,49.22 55.24,71 -18.86,-9.53 -35.15,-23.33 -50.46,-37.73 -15.67,-15.18 -29.72,-31.96 -42.65,-49.51 0.4,1.95 0.9,3.89 1.55,5.78 9.27,27.87 21.79,54.79 38.27,79.15 -14.57,-0.35 -29.29,-4.09 -41.72,-11.85 0.68,6.22 3.73,11.68 6.83,16.96 -11.87,-6.8 -23.42,-14.88 -31.72,-25.93 0.29,8.79 1.65,17.5 3.64,26.06 -8.95,-9.14 -14.74,-20.81 -19.06,-32.72 -5.48,-16.12 -7.87,-33.15 -8.38,-50.12 -0.36,-15.81 -0.37,-32.07 4.46,-47.27 0.99,15.13 2.94,30.3 7.29,44.88 2.93,9.89 6.39,19.89 12.51,28.3 -1.94,-7.44 -4.62,-14.76 -5.46,-22.44 6.73,14.77 15.54,28.72 26.84,40.42 -10.69,-19.75 -18.1,-41.13 -23.12,-62.98 -5.48,-23.23 -8.48,-47.06 -9.18,-70.9 4.15,7.15 7.17,14.93 11.84,21.8 -3.04,-9.97 -5.87,-20.68 -3.74,-31.1 m 10.82,37.55 c -1.18,4.63 0.49,9.32 1.29,13.87 -3.38,-2.4 -6.23,-5.42 -9.31,-8.16 1.23,9.72 3.35,19.31 5.82,28.79 3.94,13.9 8.45,27.87 16.22,40.17 -2.42,-13.44 -4.67,-26.98 -5.17,-40.64 11.89,11.73 23.5,23.79 36.15,34.72 -13.11,-20.45 -25.12,-41.63 -35.39,-63.66 -1.36,-2.62 -2.48,-5.79 -5.27,-7.22 -1.84,-0.65 -3.8,0.24 -4.34,2.13 z"
       id="path324"
       inkscape:connector-curvature="0"
       style="opacity:1;fill:#c6a375" />
    <path
       d="m 368.48,208.54 c 2.1,-2.96 5.75,-7.11 9.71,-4.68 0.79,2.61 0.56,5.4 0.51,8.1 -1.25,18.22 -8.03,35.38 -14.72,52.16 11.47,-13.24 19.1,-29.63 22.86,-46.69 4.17,-0.12 8.44,1.35 11.48,4.23 1.6,2.61 1.81,5.76 2.19,8.72 3.11,-2.34 6.29,-5.7 10.55,-5.21 2.65,0 4.92,1.45 6.89,3.07 2.91,0.36 5.95,0.73 8.37,2.57 2.76,2.26 6.83,1.84 9.33,4.53 7.79,7.24 12.88,16.78 17.81,26.07 11.87,23.97 17.8,50.76 17.8,77.48 -1.21,-0.58 -2.42,-1.16 -3.62,-1.72 0.03,11.3 0.05,22.6 -0.05,33.9 -2.19,-14.77 -4.39,-29.59 -8.26,-44.04 -1.15,-3.94 -2.31,-8.07 -5.22,-11.12 -3.36,2.28 -3.94,6.52 -4.87,10.15 -3.01,14.87 -4.06,30.05 -6.64,44.99 -2.33,-18.43 -3.82,-37.04 -8.18,-55.14 -1.06,-4.2 -2.28,-8.59 -5.5,-11.69 -3.19,2.32 -4.11,6.31 -5.16,9.88 -3.96,15.72 -5.57,31.9 -7.43,47.97 -2.63,-26.98 -4.71,-54.04 -7.29,-81.04 -2.68,25.93 -10.04,51.07 -13.13,76.93 -1.16,8.63 -1.82,17.32 -2.81,25.97 -3.34,-28.69 -5.99,-57.45 -7.69,-86.28 -2.23,10.43 -4.13,20.93 -6.25,31.38 -1.81,-2.79 -3.05,-5.88 -4.68,-8.77 -0.17,0.01 -0.51,0.01 -0.68,0.02 -2.37,6.88 -5.38,13.5 -8.35,20.14 -1.25,-6.74 -0.01,-13.57 -0.51,-20.35 -0.48,-8.35 0.73,-16.72 -0.16,-25.05 -12.19,9.92 -26.92,19.05 -43.22,18.39 14.19,-23.55 27.1,-48.09 35.43,-74.38 3.73,-10.18 5.59,-21.23 11.49,-30.49 m -8.23,81.18 c 10.26,-1.78 19.98,-5.92 28.66,-11.61 4.53,5.18 6.07,11.98 7.52,18.51 7.35,-12.83 10.15,-27.66 13.27,-41.96 2.54,3.52 3.4,7.89 4.95,11.88 2.58,7.12 4.21,14.55 6.82,21.66 2.23,-3.32 4.72,-8.54 9.54,-7.67 5.46,4.27 7.11,11.55 9.72,17.68 0.16,-14.53 -2.49,-29.07 -7.4,-42.73 -1.81,-4.55 -3.72,-9.16 -6.56,-13.17 -2.44,-3.21 -6.77,-3.32 -10.08,-5.1 -2.06,-1.07 -4.25,-2.3 -6.66,-1.75 -5.87,1.26 -10.08,5.87 -14.34,9.75 -1.03,-4.14 -2.34,-8.2 -3.91,-12.17 -4.47,21.57 -16.43,40.91 -31.53,56.68 z"
       id="path326"
       inkscape:connector-curvature="0"
       style="opacity:1;fill:#c6a375" />
    <path
       d="m 90.69,250.73 c 5.63,-6.76 14.84,-9.64 23.39,-10.29 -1.9,6.13 -4.18,12.14 -6.53,18.1 -5.61,-2.63 -11.12,-5.45 -16.86,-7.81 z"
       id="path328"
       inkscape:connector-curvature="0"
       style="opacity:1;fill:#c6a375" />
    <path
       d="m 116.32,240.43 c 8.81,0.45 17.5,3.84 23.83,10.06 -5.8,2.62 -11.54,5.36 -17.29,8.05 -2.13,-6.06 -4.43,-12.05 -6.54,-18.11 z"
       id="path330"
       inkscape:connector-curvature="0"
       style="opacity:1;fill:#c6a375" />
    <path
       d="m 78.94,275.69 c 0.38,-8.81 3.8,-17.46 10.01,-23.78 2.55,5.83 5.32,11.55 7.99,17.32 -6,2.14 -11.94,4.49 -18,6.46 z"
       id="path332"
       inkscape:connector-curvature="0"
       style="opacity:1;fill:#c6a375" />
    <path
       d="m 133.64,269.14 c 2.69,-5.79 5.37,-11.58 8.15,-17.32 5.79,6.65 9.64,15.04 9.83,23.94 -6.02,-2.15 -12.05,-4.26 -17.98,-6.62 z"
       id="path334"
       inkscape:connector-curvature="0"
       style="opacity:1;fill:#c6a375" />
    <path
       d="m 79.04,277.98 c 6,1.99 11.89,4.3 17.85,6.42 -2.53,5.88 -5.48,11.57 -7.97,17.48 -5.98,-6.5 -9.79,-15 -9.88,-23.9 z"
       id="path336"
       inkscape:connector-curvature="0"
       style="opacity:1;fill:#c6a375" />
    <path
       d="m 133.85,284.26 c 5.95,-1.99 11.77,-4.36 17.75,-6.28 -0.2,8.86 -4.01,17.26 -9.84,23.84 -2.63,-5.85 -5.82,-11.48 -7.91,-17.56 z"
       id="path338"
       inkscape:connector-curvature="0"
       style="opacity:1;fill:#c6a375" />
    <path
       d="m 90.31,303.46 c 5.57,-3.11 11.57,-5.36 17.22,-8.32 2.39,5.86 4.53,11.83 6.52,17.84 -8.85,0.11 -17.07,-3.96 -23.74,-9.52 z"
       id="path340"
       inkscape:connector-curvature="0"
       style="opacity:1;fill:#c6a375" />
    <path
       d="m 122.83,295.16 c 4.78,2.13 9.45,4.51 14.27,6.56 0.8,0.62 2.51,0.68 2.67,1.87 -6.32,5.82 -14.73,9.38 -23.37,9.41 2.08,-5.98 4.36,-11.87 6.43,-17.84 z"
       id="path342"
       inkscape:connector-curvature="0"
       style="opacity:1;fill:#c6a375" />
    <path
       d="m 83.81,308.84 c 1.53,1.26 3.05,2.53 4.56,3.82 -0.05,9.96 -0.09,19.93 0.02,29.89 1.94,2.06 3.81,4.18 5.61,6.37 -2.57,-0.72 -5.11,-1.55 -7.62,-2.46 -0.76,11.33 0.69,22.76 -0.92,34.03 -1.95,-10.59 -5.31,-20.88 -7.26,-31.46 1.5,-2.38 3.61,-4.3 5.46,-6.39 0.17,-11.27 -0.1,-22.54 0.15,-33.8 z"
       id="path344"
       inkscape:connector-curvature="0"
       style="opacity:1;fill:#c6a375" />
    <path
       d="m 113.14,321.59 c 1.48,-0.02 2.97,-0.02 4.46,0 -0.02,5.61 -0.01,11.23 0,16.85 -0.02,5.55 -0.01,11.11 -0.01,16.67 1.81,2.01 3.65,4.01 5.42,6.07 -2.58,-0.56 -5.13,-1.26 -7.66,-2.01 -0.12,10.98 0.19,21.98 -0.16,32.96 -3.02,-10.61 -5.39,-21.39 -7.97,-32.11 1.96,-1.88 4.84,-3.22 5.83,-5.86 0.29,-5.24 0.01,-10.5 0.09,-15.74 0.01,-5.61 0.03,-11.22 0,-16.83 z"
       id="path346"
       inkscape:connector-curvature="0"
       style="opacity:1;fill:#c6a375" />
  </g>
  <g
     id="#e12500ff"
     transform="matrix(0.07922622,0,0,0.07922622,0.232134,1.1754e-6)">
    <path
       d="m 249.37,77.09 c 1.11,-7.16 1.79,-14.51 4.4,-21.32 0.6,5.02 0.85,10.09 0.75,15.15 -0.75,2.63 -3.27,4.31 -5.15,6.17 z"
       id="path349"
       inkscape:connector-curvature="0"
       style="opacity:1;fill:#e12500" />
  </g>
  <g
     id="#e02500ff"
     transform="matrix(0.07922622,0,0,0.07922622,0.232134,1.1754e-6)">
    <path
       d="m 178.8,141.32 c 14.39,-9.08 29.88,-16.41 45.95,-21.99 -4.19,10.26 -8.36,20.61 -10.68,31.49 -11.81,-2.93 -23.62,-6 -35.27,-9.5 z"
       id="path352"
       inkscape:connector-curvature="0"
       style="opacity:1;fill:#e02500" />
    <path
       d="m 375.32,119.43 c 12.14,3.94 23.73,9.37 34.96,15.4 3.74,2.06 7.54,4.08 10.87,6.79 -11.72,2.98 -23.35,6.32 -35.08,9.27 -2.48,-10.83 -6.45,-21.24 -10.75,-31.46 z"
       id="path354"
       inkscape:connector-curvature="0"
       style="opacity:1;fill:#e02500" />
    <path
       d="m 279.05,174.9 c 7.44,-0.76 14.2,-4.04 20.9,-7.11 0.17,4.17 0.23,8.35 0.22,12.52 2.38,-0.38 4.77,-0.76 7.16,-1.12 -0.06,0.49 -0.18,1.47 -0.24,1.96 -1.71,2.7 -5.41,2.47 -8.2,2.56 -3.24,0.19 -6.08,-1.51 -9.02,-2.56 -1.99,1.27 -1.78,3.98 -0.56,5.72 0.68,1.93 3.05,4.47 0.93,6.26 -3.28,2.3 -7.24,3.37 -10.68,5.41 -1.55,0.01 -3.08,0.06 -4.61,0.12 1.7,3.15 3.72,6.12 6,8.89 -1.16,0.47 -2.31,0.95 -3.47,1.43 0.31,0.24 0.92,0.73 1.23,0.97 4.6,4.75 11.2,6.15 17.38,7.61 -5.28,3.35 -11.48,4.48 -17.61,5.06 -4,-3.32 -7.02,-7.72 -8.43,-12.74 -2.76,-9.41 -8.19,-17.71 -13.94,-25.54 1.34,-0.06 2.68,-0.12 4.02,-0.18 -2.05,-3.86 -4.31,-7.61 -6.92,-11.11 8.53,1.35 17.18,3.32 25.84,1.85 z"
       id="path356"
       inkscape:connector-curvature="0"
       style="opacity:1;fill:#e02500" />
    <path
       d="m 340.42,170.61 c 2.35,-1.15 2.93,2.31 1.89,3.81 -3.74,6.46 -12.53,10.23 -19.51,6.75 -3.11,-1.5 -2.66,-7.31 1.21,-7.22 5.61,-0.33 11.18,-1.16 16.41,-3.34 z"
       id="path358"
       inkscape:connector-curvature="0"
       style="opacity:1;fill:#e02500" />
    <path
       d="m 149.3,179.24 c 3.55,0 8.28,-1.6 10.9,1.61 1.6,3.43 0.38,7.82 -3.26,9.37 -2.8,-0.32 -5.24,-2.11 -7.23,-4 -0.73,-2.24 -0.32,-4.67 -0.41,-6.98 z"
       id="path360"
       inkscape:connector-curvature="0"
       style="opacity:1;fill:#e02500" />
    <path
       d="m 424.84,190.55 c 9.48,-2.65 19,-5.19 28.55,-7.56 -2.59,9.38 -5.09,18.8 -7.52,28.24 -6.91,-7 -13.56,-14.25 -21.03,-20.68 z"
       id="path362"
       inkscape:connector-curvature="0"
       style="opacity:1;fill:#e02500" />
    <path
       d="m 129.81,202.73 c 5.73,-4.2 13.24,-3.67 19.85,-2.4 -1.4,2.55 -2.35,5.92 -5.27,7.15 -4.3,1.71 -8.9,2.7 -13.52,2.99 -1.9,-0.03 -3.92,0.19 -5.7,-0.64 -0.59,-3.18 2.45,-5.37 4.64,-7.1 z"
       id="path364"
       inkscape:connector-curvature="0"
       style="opacity:1;fill:#e02500" />
    <path
       d="m 482.39,260.49 c 4.54,-15.16 8.12,-30.59 12.45,-45.81 13.25,21.37 23.1,44.86 28.81,69.36 -5.77,-2.55 -11.04,-6.08 -16.51,-9.18 -8.28,-4.74 -16.58,-9.45 -24.75,-14.37 z"
       id="path366"
       inkscape:connector-curvature="0"
       style="opacity:1;fill:#e02500" />
    <path
       d="m 171.31,229.39 c 2.52,-0.72 5.47,0.9 5.8,3.6 1.74,7.43 -0.73,16.43 -7.45,20.61 -2.32,1.68 -4.86,-0.35 -5.52,-2.67 -1.77,-5.37 -1.22,-11.48 1.17,-16.58 1.06,-2.51 3.39,-4.31 6,-4.96 z"
       id="path368"
       inkscape:connector-curvature="0"
       style="opacity:1;fill:#e02500" />
    <path
       d="m 293.56,256.29 c -0.92,-4.52 2.49,-8.58 6.25,-10.61 0.54,8.22 0.54,16.49 -0.07,24.7 -3.09,-4.14 -5.17,-9.03 -6.18,-14.09 z"
       id="path370"
       inkscape:connector-curvature="0"
       style="opacity:1;fill:#e02500" />
    <path
       d="m 104.12,269.98 c 1.1,-1.84 2.89,-3.08 4.57,-4.34 1.3,1.68 3.76,2.89 4.13,5.05 -1.15,1.53 -2.57,2.82 -3.9,4.18 -1.68,-1.55 -3.43,-3.05 -4.8,-4.89 z"
       id="path372"
       inkscape:connector-curvature="0"
       style="opacity:1;fill:#e02500" />
    <path
       d="m 117.25,270.26 c 1.8,-1.33 3.05,-4.14 5.56,-4.1 1.43,1.1 2.59,2.49 3.8,3.81 -1.58,1.62 -3.16,3.24 -4.74,4.87 -1.56,-1.51 -3.11,-3.03 -4.62,-4.58 z"
       id="path374"
       inkscape:connector-curvature="0"
       style="opacity:1;fill:#e02500" />
    <path
       d="m 111.14,277.07 c 0.58,-2.06 2.72,-3.27 4.03,-4.87 1.59,1.53 3.15,3.09 4.69,4.67 -1.43,1.44 -2.86,2.89 -4.27,4.35 -1.64,-1.19 -3.39,-2.37 -4.45,-4.15 z"
       id="path376"
       inkscape:connector-curvature="0"
       style="opacity:1;fill:#e02500" />
    <path
       d="m 103.95,283.5 c 1.58,-1.55 3.11,-3.19 4.97,-4.42 1.45,1.13 2.82,2.41 3.89,3.92 -0.5,2.14 -2.82,3.44 -4.15,5.13 -1.82,-1.27 -3.4,-2.84 -4.71,-4.63 z"
       id="path378"
       inkscape:connector-curvature="0"
       style="opacity:1;fill:#e02500" />
    <path
       d="m 117.21,283.14 c 1.54,-1.45 3.12,-2.86 4.69,-4.29 1.38,1.39 2.84,2.71 4.03,4.28 -0.02,2.19 -2.13,3.87 -3.95,4.78 -1.77,-1.4 -3.25,-3.12 -4.77,-4.77 z"
       id="path380"
       inkscape:connector-curvature="0"
       style="opacity:1;fill:#e02500" />
    <path
       d="m 491.27,321.62 c 8.78,4.46 17.02,9.89 25.7,14.53 -8.53,5.02 -17.07,10.01 -25.72,14.82 0.64,-9.77 0.62,-19.58 0.02,-29.35 z"
       id="path382"
       inkscape:connector-curvature="0"
       style="opacity:1;fill:#e02500" />
    <path
       d="m 170.65,402.47 c 10.44,-0.12 20.89,-0.05 31.33,-0.06 2.17,-0.15 3.74,1.58 5.47,2.59 0.08,6.69 0.06,13.37 0.01,20.06 -3.69,3.51 -8.87,2.3 -13.46,2.44 -6.18,-0.01 -12.36,0.01 -18.53,-0.01 -0.08,-6.77 0.11,-13.54 -0.12,-20.3 -1.68,-1.46 -3.26,-3.03 -4.7,-4.72 m 12.74,5.32 c -0.09,4.82 -0.07,9.64 -0.03,14.47 5.42,-0.02 10.83,-0.02 16.25,0 0.03,-4.83 0.06,-9.65 -0.05,-14.47 -5.39,0.03 -10.78,0.03 -16.17,0 z"
       id="path384"
       inkscape:connector-curvature="0"
       style="opacity:1;fill:#e02500" />
    <path
       d="m 227.84,402.49 c 10.71,-0.2 21.43,0 32.15,-0.11 0.37,5.05 0.15,10.11 0.22,15.16 -3.45,0.04 -6.9,0.03 -10.34,0.11 3.57,3.38 7.46,6.41 11,9.83 -3.36,0.03 -6.72,0.03 -10.08,-0.02 -3.8,-3.35 -7.29,-7.18 -11.66,-9.79 -0.82,-0.02 -2.48,-0.06 -3.31,-0.08 -0.01,3.3 -0.01,6.61 -0.01,9.92 -2.66,-0.01 -5.32,-0.02 -7.97,-0.05 -0.05,-3.43 0.22,-6.88 -0.13,-10.3 -1.33,-1.83 -3.12,-3.25 -4.74,-4.79 1.61,-0.02 3.23,-0.03 4.85,-0.04 0.03,-3.28 0.03,-6.56 0.02,-9.84 m 7.85,9.82 c 5.51,0.03 11.03,0.03 16.54,0 -0.02,-1.5 -0.04,-2.99 -0.05,-4.49 -5.11,0.07 -10.22,-0.2 -15.32,0.07 -1.73,0.72 -0.81,3 -1.17,4.42 z"
       id="path386"
       inkscape:connector-curvature="0"
       style="opacity:1;fill:#e02500" />
    <path
       d="m 281.41,402.41 c 10.69,0.05 21.39,-0.11 32.08,0.08 -0.05,1.78 -0.09,3.56 -0.13,5.34 -8.03,0 -16.06,-0.11 -24.08,0.06 -0.04,1.45 -0.06,2.9 -0.07,4.36 5.48,0.15 10.97,0.05 16.46,0.08 -0.01,1.75 -0.01,3.5 -0.01,5.26 -5.49,0.02 -10.97,-0.06 -16.46,0.07 0.01,1.5 0.03,3.01 0.05,4.52 8.03,0.12 16.06,0.07 24.09,0.03 0.04,1.75 0.08,3.5 0.14,5.25 -10.69,0.09 -21.38,0.03 -32.06,0.03 0,-3.46 0.01,-6.92 -0.09,-10.37 -1.65,-1.49 -3.23,-3.07 -4.69,-4.74 1.59,-0.03 3.18,-0.06 4.77,-0.07 0,-3.3 0,-6.6 0,-9.9 z"
       id="path388"
       inkscape:connector-curvature="0"
       style="opacity:1;fill:#e02500" />
    <path
       d="m 343.19,402.42 c 4.87,0.08 9.76,-0.21 14.63,0.1 3.48,8.13 6.23,16.61 9.32,24.91 -2.7,0.07 -5.41,0.07 -8.1,-0.03 -1.09,-3.34 -2.37,-6.6 -3.68,-9.85 -3.23,0.04 -6.45,0.04 -9.67,0.02 -1.28,3.24 -2.48,6.51 -3.57,9.82 -2.71,0.09 -5.42,0.13 -8.13,0.12 1.17,-3.87 2.75,-7.6 4.09,-11.42 -1.15,-1.24 -2.3,-2.47 -3.43,-3.73 1.58,0 3.17,0 4.75,0.02 1.36,-3.29 2.58,-6.62 3.79,-9.96 m 4.75,9.91 c 1.7,0.01 3.4,0.03 5.11,0.04 -0.43,-1.66 -0.23,-3.75 -1.9,-4.74 -2.63,-0.17 -2.65,2.92 -3.21,4.7 z"
       id="path390"
       inkscape:connector-curvature="0"
       style="opacity:1;fill:#e02500" />
    <path
       d="m 415.43,402.44 c 4.64,-0.03 9.28,-0.09 13.92,0.03 -1.53,1.81 -3.4,3.33 -4.72,5.31 -0.26,6.57 0.01,13.15 -0.1,19.73 -2.6,0 -5.21,-0.03 -7.81,-0.09 0.04,-5.51 0.08,-11.02 -0.03,-16.53 -2.42,2.57 -4.81,5.17 -7.38,7.59 -2.16,-0.04 -4.32,-0.06 -6.47,-0.06 -2.44,-2.48 -4.83,-5.01 -7.26,-7.5 -0.15,5.54 -0.03,11.07 -0.11,16.61 -2.63,-0.02 -5.26,-0.03 -7.89,-0.04 0.01,-8.36 0.02,-16.72 0,-25.08 3.1,-0.02 6.2,-0.01 9.3,0.07 2.98,3.18 5.9,6.43 9.15,9.34 3.41,-2.83 6.3,-6.23 9.4,-9.38 z"
       id="path392"
       inkscape:connector-curvature="0"
       style="opacity:1;fill:#e02500" />
    <path
       d="m 390.95,536.22 c 9.21,2.49 18.09,6.07 26.68,10.18 4.02,2.1 8.23,4.07 11.48,7.32 -22.26,-5.42 -45.35,-5.48 -68.12,-4.91 -4.49,0.07 -8.99,0.81 -13.46,0.15 3.18,-1.73 6.91,-1.46 10.39,-1.93 12.06,-1.29 24.2,-1.25 36.32,-1.13 -0.73,-3.34 -1.98,-6.53 -3.29,-9.68 z"
       id="path394"
       inkscape:connector-curvature="0"
       style="opacity:1;fill:#e02500" />
  </g>
  <g
     id="#d82400ff"
     transform="matrix(0.07922622,0,0,0.07922622,0.232134,1.1754e-6)">
    <path
       d="m 111.43,264.41 c 2.52,-0.9 5.21,-0.71 7.8,-0.27 -1.2,1.58 -2.59,3 -4.05,4.35 -1.26,-1.35 -2.52,-2.71 -3.75,-4.08 z"
       id="path397"
       inkscape:connector-curvature="0"
       style="opacity:1;fill:#d82400" />
  </g>
  <g
     id="#e32500ff"
     transform="matrix(0.07922622,0,0,0.07922622,0.232134,1.1754e-6)">
    <path
       d="m 102.56,272.9 c 1.54,1.27 2.99,2.64 4.42,4.04 -1.36,1.32 -2.83,2.56 -4.61,3.29 -0.05,-2.45 0.01,-4.9 0.19,-7.33 z"
       id="path400"
       inkscape:connector-curvature="0"
       style="opacity:1;fill:#e32500" />
  </g>
  <g
     id="#de2500ff"
     transform="matrix(0.07922622,0,0,0.07922622,0.232134,1.1754e-6)">
    <path
       d="m 123.7,276.34 c 1.44,-1.16 2.88,-2.33 4.35,-3.44 0.32,2.67 0.55,5.44 -0.43,8.02 -1.4,-1.46 -2.74,-2.95 -3.92,-4.58 z"
       id="path403"
       inkscape:connector-curvature="0"
       style="opacity:1;fill:#de2500" />
  </g>
  <g
     id="#e32600ff"
     transform="matrix(0.07922622,0,0,0.07922622,0.232134,1.1754e-6)">
    <path
       d="m 111.21,289.41 c 1.26,-1.37 2.48,-2.81 3.91,-4.01 1.71,0.98 2.84,2.66 4.03,4.19 -2.64,0.2 -5.31,0.16 -7.94,-0.18 z"
       id="path406"
       inkscape:connector-curvature="0"
       style="opacity:1;fill:#e32600" />
  </g>
  <g
     id="#c7a476ff"
     transform="matrix(0.07922622,0,0,0.07922622,0.232134,1.1754e-6)">
    <path
       d="m 142.34,312.27 c 1.42,-1.13 2.83,-2.27 4.24,-3.4 0.14,18.67 -0.06,37.35 0.11,56.03 1.93,1.98 3.78,4.04 5.55,6.17 -2.63,-0.58 -5.23,-1.29 -7.82,-2.03 -0.09,11.59 0.13,23.19 -0.12,34.78 -2.55,-10.72 -5.23,-21.41 -7.81,-32.12 1.54,-2.57 3.79,-4.6 5.79,-6.79 0.15,-15.47 0.02,-30.95 0.06,-46.42 0,-1.98 0,-3.96 0,-5.93 z"
       id="path409"
       inkscape:connector-curvature="0"
       style="opacity:1;fill:#c7a476" />
  </g>
</svg>
