<?xml version="1.0" encoding="utf-8"?>
<!-- Generator: Adobe Illustrator 23.0.2, SVG Export Plug-In . SVG Version: 6.00 Build 0)  -->
<svg version="1.1" id="Layer_1" xmlns="http://www.w3.org/2000/svg" xmlns:xlink="http://www.w3.org/1999/xlink" x="0px" y="0px"
	 width="64px" height="64px" viewBox="0 0 64 64" enable-background="new 0 0 64 64" xml:space="preserve">
<g>
	<g>
		<path fill="#025BBB" d="M64,30.72c0,0.868,0,1.735,0,2.603c-0.051,0.042-0.042,0.102-0.042,0.158
			c-0.002,0.142-0.002,0.283-0.002,0.425c0.001,0.043,0.004,0.085,0.003,0.128c-0.019,0.804-0.117,1.601-0.225,2.396
			c-0.219,1.607-0.562,3.187-1.025,4.742c-2.537,8.511-8.577,15.652-16.551,19.568c-2.59,1.272-5.301,2.18-8.137,2.715
			c-0.936,0.177-1.877,0.313-2.825,0.406c-0.445,0.044-0.89,0.093-1.339,0.094c-0.261,0.002-0.521,0.003-0.782,0.006
			c-0.062,0.001-0.129-0.016-0.178,0.041c-0.54,0-1.081,0-1.621,0c-0.025-0.027-0.056-0.04-0.092-0.04
			c-0.187,0.004-0.374-0.017-0.56,0.009c-0.167-0.002-0.333-0.003-0.5-0.005c-0.474-0.043-0.948-0.082-1.422-0.129
			c-1.359-0.134-2.702-0.363-4.03-0.68c-5.483-1.307-10.29-3.884-14.417-7.717c-3.496-3.247-6.131-7.094-7.914-11.522
			c-0.804-1.996-1.393-4.055-1.776-6.171c-0.222-1.224-0.376-2.458-0.444-3.701c-0.018-0.326-0.039-0.652-0.059-0.978
			c0.003-0.042,0.011-0.084,0.009-0.126c-0.032-0.614-0.032-1.228,0-1.842c0.002-0.042-0.006-0.084-0.009-0.126
			c0.006-0.042,0.016-0.084,0.017-0.126c0.03-1.031,0.124-2.056,0.257-3.079c0.218-1.666,0.557-3.306,1.051-4.911
			C3.714,15.301,8.203,9.363,14.832,5.057c3.318-2.155,6.937-3.598,10.817-4.385c1.332-0.27,2.674-0.46,4.03-0.551
			c0.461-0.031,0.922-0.058,1.383-0.086c0.654,0,1.309,0,1.963,0c0.042,0.004,0.085,0.01,0.127,0.012
			c1.557,0.061,3.102,0.221,4.636,0.5c2.329,0.422,4.59,1.079,6.759,2.024c7.328,3.193,12.768,8.377,16.309,15.543
			c1.195,2.419,2.029,4.964,2.557,7.61c0.195,0.976,0.345,1.958,0.448,2.947c0.051,0.487,0.113,0.974,0.095,1.466
			c0,0.092-0.006,0.185,0.002,0.276C63.966,30.516,63.923,30.627,64,30.72z M32.022,62.132
			c16.603,0.031,30.112-13.433,30.134-30.062C62.179,15.314,48.593,1.925,32.075,1.907C15.58,1.89,1.974,15.213,1.931,31.943
			C1.887,48.723,15.495,62.142,32.022,62.132z"/>
		<path fill="#F8FAFC" d="M0.059,33.068c-0.02,0-0.039-0.001-0.059-0.001c0-0.697,0-1.394,0-2.091c0.02,0,0.039-0.001,0.059-0.001
			c0.003,0.042,0.011,0.084,0.009,0.126c-0.032,0.614-0.032,1.228,0,1.842C0.07,32.984,0.062,33.026,0.059,33.068z"/>
		<path fill="#F8FAFC" d="M33.024,0c0,0.012,0.001,0.023,0,0.035c-0.654,0-1.309,0-1.963,0c0-0.012,0-0.023,0-0.035
			C31.716,0,32.37,0,33.024,0z"/>
		<path fill="#038DD4" d="M33.856,63.953c-0.007,0.022,0,0.038,0.022,0.047c-0.327,0-0.654,0-0.981,0
			c0.049-0.057,0.117-0.04,0.178-0.041C33.335,63.956,33.595,63.955,33.856,63.953z"/>
		<path fill="#038DD4" d="M30.622,63.97c0.186-0.026,0.374-0.006,0.56-0.009c0.036-0.001,0.068,0.012,0.092,0.04
			c-0.213,0-0.427,0-0.64,0C30.624,63.993,30.62,63.983,30.622,63.97z"/>
		<path fill="#038DD4" d="M63.955,30.137c0.02,0.009,0.034,0.004,0.045-0.015c0,0.199,0,0.398,0,0.597
			c-0.077-0.093-0.034-0.204-0.043-0.306C63.949,30.322,63.955,30.229,63.955,30.137z"/>
		<path fill="#038DD4" d="M64,33.92c-0.01-0.019-0.025-0.023-0.045-0.015c0.001-0.142,0.001-0.284,0.002-0.425
			c0.001-0.056-0.009-0.115,0.042-0.158C64,33.522,64,33.721,64,33.92z"/>
		<path fill="#F8FAFC" d="M30.622,63.97c-0.002,0.013,0.002,0.023,0.012,0.03c-0.171,0-0.341,0-0.512,0c0-0.012,0-0.023,0-0.035
			C30.289,63.966,30.456,63.968,30.622,63.97z"/>
		<path fill="#FEFEFE" d="M32.022,62.132C15.495,62.142,1.887,48.723,1.931,31.943C1.974,15.213,15.58,1.89,32.075,1.907
			C48.593,1.925,62.179,15.314,62.157,32.07C62.135,48.699,48.625,62.163,32.022,62.132z M55.263,22.007
			c0.198,0.107,0.389,0.224,0.627,0.237c0.753,0.039,1.402-0.556,1.418-1.307c0.009-0.446-0.128-0.854-0.319-1.246
			c-0.274-0.561-0.56-1.116-0.841-1.673c-0.083-0.165-0.085-0.166-0.246-0.084c-0.772,0.391-1.544,0.782-2.317,1.173
			c-0.709,0.359-1.418,0.717-2.128,1.075c-0.076,0.038-0.156,0.055-0.09,0.181c0.34,0.655,0.667,1.316,1.008,1.971
			c0.152,0.291,0.348,0.553,0.604,0.765c0.351,0.292,0.746,0.392,1.194,0.282c0.73-0.178,1.09-0.63,1.067-1.347
			C55.246,22.023,55.254,22.015,55.263,22.007z M52.39,32.027c-0.012-11.335-9.207-20.339-20.326-20.35
			C20.944,11.665,11.72,20.651,11.7,31.985c-0.02,11.36,9.205,20.377,20.333,20.382C43.163,52.373,52.373,43.367,52.39,32.027z
			 M33.221,54.396c-0.401,0-0.77,0.005-1.138-0.003c-0.119-0.003-0.173,0.035-0.218,0.145c-0.249,0.603-0.506,1.203-0.764,1.803
			c-0.026,0.062-0.031,0.14-0.109,0.178c-0.281-0.661-0.564-1.32-0.84-1.981c-0.045-0.107-0.099-0.146-0.22-0.145
			c-0.725,0.007-1.45,0.007-2.175,0c-0.124-0.001-0.191,0.044-0.256,0.141c-0.42,0.625-0.845,1.246-1.27,1.868
			c-0.029,0.043-0.049,0.097-0.124,0.134c0-0.091,0-0.16,0-0.229c0-0.583,0.001-1.166,0-1.749c0-0.159-0.003-0.161-0.164-0.162
			c-0.299-0.001-0.597,0.004-0.896-0.003c-0.109-0.003-0.159,0.027-0.144,0.141c0.005,0.035,0.001,0.071,0.001,0.107
			c0,1.5,0,3,0,4.499c0,0.043,0.003,0.086-0.001,0.128c-0.009,0.093,0.032,0.122,0.123,0.121c0.306-0.004,0.611-0.001,0.917-0.002
			c0.16-0.001,0.162-0.003,0.163-0.164c0.001-0.334-0.001-0.668,0.001-1.002c0-0.062-0.02-0.131,0.028-0.184
			c0.149-0.166,0.3-0.331,0.46-0.506c0.052,0.089,0.088,0.15,0.123,0.212c0.282,0.493,0.57,0.983,0.843,1.481
			c0.072,0.131,0.156,0.173,0.3,0.168c0.291-0.011,0.583-0.003,0.874-0.003c0.103,0,0.207,0,0.341,0
			c-0.052-0.094-0.087-0.162-0.126-0.226c-0.485-0.802-0.972-1.603-1.457-2.405c-0.092-0.152-0.092-0.154,0.013-0.291
			c0.435-0.571,0.87-1.141,1.307-1.711c0.027-0.036,0.043-0.089,0.109-0.093c0.016,0.03,0.034,0.06,0.05,0.092
			c0.452,0.9,0.904,1.802,1.358,2.701c0.05,0.099,0.069,0.198,0.068,0.307c-0.003,0.49-0.002,0.981-0.001,1.471
			c0.001,0.153,0.004,0.155,0.15,0.156c0.306,0.002,0.611,0.002,0.917,0c0.148-0.001,0.151-0.003,0.151-0.153
			c0.001-0.483,0.004-0.967-0.002-1.45c-0.002-0.132,0.029-0.248,0.088-0.365c0.465-0.918,0.927-1.838,1.39-2.757
			C33.132,54.587,33.166,54.511,33.221,54.396z M24.329,9.143c0.174-0.053,0.327-0.089,0.471-0.148
			c0.139-0.057,0.228-0.028,0.331,0.083c0.395,0.429,0.804,0.845,1.201,1.271c0.079,0.084,0.145,0.109,0.257,0.068
			c0.206-0.075,0.42-0.131,0.63-0.196c0.174-0.054,0.347-0.109,0.528-0.167c-0.024-0.09-0.086-0.131-0.134-0.18
			c-0.482-0.493-0.966-0.985-1.448-1.478c-0.113-0.115-0.114-0.118-0.008-0.228c0.414-0.429,0.513-0.932,0.364-1.498
			c-0.152-0.579-0.477-0.993-1.078-1.148c-0.324-0.084-0.651-0.079-0.972-0.002C23.697,5.708,22.948,5.98,22.185,6.2
			c-0.081,0.023-0.098,0.069-0.063,0.143c0.015,0.032,0.02,0.068,0.03,0.102c0.398,1.296,0.797,2.591,1.196,3.887
			c0.1,0.324,0.202,0.648,0.308,0.985c0.412-0.127,0.81-0.25,1.223-0.377C24.695,10.338,24.514,9.749,24.329,9.143z M22.394,10.743
			c0-0.078,0.01-0.158-0.002-0.234c-0.158-1.002-0.608-1.844-1.414-2.469c-0.494-0.383-1.068-0.523-1.689-0.4
			c-1.129,0.224-2.185,1.251-1.851,2.74c0.162,0.723,0.522,1.345,1.022,1.888c0.096,0.105,0.206,0.196,0.321,0.28
			c0.692,0.501,1.437,0.591,2.214,0.245C21.876,12.401,22.377,11.731,22.394,10.743z M53.322,14.143
			c-0.241-0.3-0.479-0.592-0.71-0.889c-0.062-0.08-0.114-0.099-0.186-0.022c-0.014,0.015-0.033,0.027-0.049,0.041
			c-0.848,0.681-1.696,1.362-2.545,2.043c-0.128,0.103-0.248,0.213-0.353,0.34c-0.339,0.413-0.494,0.883-0.377,1.41
			c0.189,0.85,0.695,1.465,1.47,1.853c0.299,0.15,0.623,0.182,0.956,0.119c0.368-0.069,0.676-0.249,0.962-0.479
			c0.847-0.682,1.696-1.362,2.544-2.044c0.038-0.03,0.087-0.052,0.098-0.119c-0.257-0.319-0.518-0.644-0.782-0.972
			c-0.057,0.044-0.097,0.074-0.136,0.105c-0.804,0.645-1.608,1.291-2.412,1.936c-0.105,0.084-0.21,0.171-0.323,0.245
			c-0.434,0.286-0.799,0.217-1.106-0.204c-0.025-0.034-0.049-0.07-0.07-0.107c-0.154-0.268-0.138-0.528,0.042-0.778
			c0.092-0.129,0.211-0.23,0.333-0.328c0.821-0.658,1.641-1.317,2.461-1.976C53.199,14.266,53.269,14.227,53.322,14.143z
			 M36.727,6.294c0.007-0.047,0.014-0.074,0.014-0.101C36.758,5.593,36.5,5.137,36,4.819c-0.487-0.31-1.03-0.391-1.595-0.36
			c-0.351,0.019-0.689,0.1-0.996,0.28c-0.463,0.273-0.695,0.68-0.679,1.218c0.011,0.358,0.168,0.655,0.414,0.909
			c0.231,0.238,0.509,0.41,0.801,0.557c0.234,0.118,0.475,0.225,0.711,0.34c0.154,0.075,0.303,0.158,0.428,0.276
			c0.162,0.153,0.193,0.345,0.141,0.55c-0.048,0.19-0.186,0.298-0.374,0.338c-0.327,0.07-0.638,0.015-0.923-0.153
			c-0.162-0.095-0.243-0.255-0.266-0.441c-0.008-0.063-0.013-0.128-0.009-0.191c0.005-0.079-0.021-0.114-0.105-0.121
			c-0.347-0.027-0.694-0.063-1.041-0.091c-0.135-0.011-0.139-0.006-0.141,0.138c-0.007,0.541,0.19,0.995,0.628,1.312
			c0.783,0.567,1.661,0.704,2.573,0.418c1.137-0.358,1.161-1.656,0.634-2.26c-0.17-0.195-0.367-0.356-0.586-0.491
			c-0.249-0.153-0.514-0.272-0.781-0.39c-0.221-0.098-0.441-0.2-0.627-0.358c-0.142-0.121-0.241-0.267-0.195-0.465
			c0.046-0.2,0.187-0.313,0.375-0.372c0.181-0.057,0.363-0.053,0.547-0.009c0.332,0.079,0.499,0.263,0.525,0.605
			c0.007,0.086,0.024,0.124,0.118,0.131C35.955,6.219,36.33,6.257,36.727,6.294z M12.482,14.836
			c-0.046-0.035-0.073-0.058-0.102-0.077c-0.556-0.358-1.229-0.329-1.816,0.095c-0.543,0.392-0.899,0.923-1.08,1.566
			c-0.086,0.305-0.095,0.618,0.005,0.925c0.209,0.642,0.896,1.01,1.59,0.856c0.439-0.097,0.814-0.327,1.183-0.57
			c0.196-0.129,0.385-0.267,0.594-0.375c0.114-0.059,0.23-0.112,0.361-0.119c0.379-0.021,0.644,0.317,0.532,0.678
			c-0.041,0.132-0.114,0.244-0.198,0.35c-0.356,0.451-0.605,0.508-1.119,0.252c-0.055-0.028-0.086-0.029-0.124,0.021
			c-0.235,0.318-0.473,0.635-0.708,0.951c0.416,0.355,1.04,0.486,1.615,0.228c0.863-0.388,1.414-1.059,1.654-1.968
			c0.156-0.59-0.074-1.122-0.578-1.466c-0.433-0.295-0.896-0.327-1.382-0.158c-0.352,0.122-0.666,0.316-0.97,0.526
			c-0.187,0.129-0.372,0.261-0.577,0.362c-0.121,0.06-0.245,0.113-0.384,0.115c-0.229,0.003-0.414-0.15-0.438-0.378
			c-0.037-0.348,0.138-0.602,0.391-0.807c0.222-0.18,0.469-0.186,0.714-0.035c0.065,0.04,0.099,0.022,0.14-0.032
			C12.01,15.467,12.24,15.161,12.482,14.836z M11.303,23.854c0.254-0.521,0.495-1.019,0.738-1.516
			c0.267-0.548,0.534-1.098,0.805-1.644c0.046-0.092,0.058-0.145-0.055-0.195c-0.227-0.1-0.449-0.211-0.67-0.325
			c-0.076-0.039-0.116-0.032-0.145,0.049c-0.017,0.046-0.044,0.089-0.066,0.134c-0.283,0.58-0.567,1.16-0.849,1.741
			c-0.093,0.192-0.067,0.178-0.26,0.085c-0.275-0.132-0.549-0.266-0.823-0.401c-0.141-0.069-0.141-0.072-0.07-0.218
			c0.242-0.498,0.485-0.995,0.727-1.493c0.027-0.055,0.07-0.105,0.062-0.182c-0.271-0.132-0.544-0.265-0.83-0.404
			c-0.298,0.609-0.59,1.205-0.887,1.811c-0.343-0.169-0.671-0.329-1.004-0.493c0.354-0.727,0.697-1.432,1.044-2.146
			c-0.307-0.149-0.592-0.288-0.885-0.431c-0.033,0.063-0.06,0.113-0.084,0.163c-0.175,0.357-0.35,0.714-0.524,1.071
			c-0.311,0.638-0.622,1.275-0.932,1.914c-0.08,0.165-0.097,0.138,0.083,0.226c0.019,0.009,0.037,0.02,0.057,0.03
			c1.218,0.594,2.436,1.188,3.654,1.782C10.686,23.555,10.985,23.7,11.303,23.854z M12.269,12.784
			c0.03,0.036,0.061,0.075,0.094,0.112c0.807,0.907,1.615,1.815,2.422,2.722c0.297,0.334,0.595,0.669,0.892,1.003
			c0.133,0.15,0.11,0.126,0.243,0.009c0.234-0.207,0.467-0.415,0.7-0.623c0.133-0.119,0.143-0.096,0.013-0.242
			c-0.33-0.371-0.659-0.745-0.993-1.113c-0.075-0.082-0.078-0.129,0.01-0.202c0.186-0.154,0.363-0.318,0.542-0.48
			c0.212-0.191,0.399-0.404,0.547-0.649c0.183-0.305,0.29-0.635,0.269-0.992c-0.06-1.006-1.079-1.768-2.064-1.556
			c-0.428,0.093-0.791,0.306-1.114,0.593c-0.483,0.429-0.966,0.859-1.448,1.289C12.341,12.693,12.291,12.723,12.269,12.784z
			 M46.969,10.748c0.212-0.355,0.284-0.894,0.2-1.308c-0.212-1.053-1.409-1.743-2.198-1.759c-0.652-0.013-1.192,0.242-1.634,0.702
			c-0.52,0.542-0.88,1.187-1.085,1.908c-0.184,0.648-0.122,1.283,0.31,1.82c0.543,0.675,1.261,1.029,2.139,0.992
			c0.631-0.027,1.09-0.358,1.429-0.869c-0.035-0.065-0.093-0.082-0.141-0.11c-0.259-0.149-0.518-0.295-0.778-0.443
			c-0.165-0.094-0.166-0.095-0.281,0.05c-0.176,0.221-0.394,0.348-0.684,0.304c-0.299-0.045-0.552-0.181-0.749-0.411
			c-0.105-0.123-0.152-0.27-0.152-0.433c-0.001-0.211,0.059-0.408,0.14-0.598c0.194-0.452,0.436-0.877,0.721-1.278
			c0.103-0.145,0.222-0.277,0.363-0.388c0.28-0.222,0.58-0.248,0.896-0.084c0.114,0.059,0.22,0.131,0.315,0.217
			c0.232,0.212,0.315,0.466,0.216,0.77c-0.024,0.074-0.054,0.147-0.084,0.218c-0.024,0.057-0.009,0.091,0.044,0.121
			C46.294,10.362,46.632,10.555,46.969,10.748z M34.903,54.396c0.03,0.09,0.05,0.15,0.07,0.21c0.204,0.612,0.407,1.225,0.611,1.837
			c0.31,0.928,0.623,1.855,0.928,2.785c0.04,0.121,0.091,0.167,0.221,0.163c0.319-0.01,0.639-0.003,0.959-0.003
			c0.187,0,0.188,0,0.248-0.178c0.519-1.539,1.039-3.077,1.556-4.617c0.02-0.059,0.058-0.115,0.039-0.197
			c-0.38,0-0.763-0.001-1.146,0c-0.167,0-0.168,0.001-0.212,0.161c-0.282,1.026-0.562,2.052-0.845,3.077
			c-0.03,0.108-0.041,0.225-0.114,0.338c-0.021-0.064-0.038-0.111-0.051-0.158c-0.173-0.636-0.345-1.273-0.519-1.909
			c-0.125-0.458-0.253-0.916-0.375-1.375c-0.023-0.086-0.046-0.137-0.15-0.136C35.725,54.4,35.327,54.396,34.903,54.396z
			 M31.39,4.348c-0.064,0.005-0.128,0.009-0.191,0.015c-0.82,0.084-1.64,0.167-2.46,0.252c-0.481,0.05-0.961,0.101-1.441,0.154
			c-0.15,0.017-0.149,0.02-0.135,0.161c0.022,0.219,0.043,0.439,0.063,0.658c0.017,0.183,0.017,0.183,0.208,0.163
			c0.389-0.041,0.777-0.082,1.166-0.12c0.203-0.02,0.203-0.016,0.229,0.183c0.002,0.014,0.003,0.028,0.005,0.042
			c0.131,1.301,0.263,2.602,0.394,3.903c0.015,0.148,0.015,0.153,0.165,0.14c0.319-0.028,0.637-0.061,0.955-0.093
			c0.169-0.017,0.173-0.02,0.156-0.196c-0.038-0.389-0.081-0.777-0.121-1.166c-0.096-0.933-0.19-1.866-0.286-2.799
			c-0.017-0.167-0.02-0.166,0.138-0.182c0.431-0.043,0.862-0.092,1.294-0.128c0.118-0.01,0.143-0.053,0.129-0.16
			c-0.028-0.218-0.047-0.438-0.073-0.657C31.565,4.336,31.563,4.336,31.39,4.348z M48.838,15.603
			c-0.033-0.064-0.082-0.095-0.125-0.132c-0.313-0.268-0.626-0.535-0.939-0.803c-0.178-0.152-0.354-0.307-0.534-0.457
			c-0.06-0.05-0.082-0.091-0.017-0.153c0.041-0.039,0.074-0.086,0.11-0.13c0.804-0.939,1.608-1.877,2.411-2.816
			c0.073-0.085,0.145-0.171,0.227-0.269c-0.327-0.28-0.644-0.551-0.96-0.822c-0.153,0.14-3.356,3.884-3.452,4.033
			c0.194,0.2,2.506,2.168,2.664,2.266C48.429,16.081,48.635,15.84,48.838,15.603z M7.346,40.758c1.887-0.01,3.372-1.509,3.366-3.397
			c-0.006-1.843-1.531-3.349-3.386-3.342c-1.859,0.007-3.367,1.531-3.357,3.394C3.979,39.267,5.494,40.767,7.346,40.758z
			 M56.741,40.758c1.867-0.002,3.374-1.51,3.371-3.375c-0.003-1.848-1.515-3.359-3.367-3.364c-1.863-0.005-3.375,1.505-3.376,3.371
			C53.368,39.259,54.87,40.76,56.741,40.758z M33.459,56.897c0,0.767,0,1.534,0,2.301c0,0.19-0.016,0.192,0.181,0.191
			c0.284-0.001,0.568,0.001,0.852-0.001c0.165-0.001,0.168-0.002,0.168-0.158c0.001-1.562,0.001-3.125,0-4.687
			c0-0.143-0.004-0.145-0.157-0.145c-0.291-0.001-0.582-0.001-0.873,0c-0.168,0.001-0.17,0.002-0.17,0.178
			C33.458,55.349,33.459,56.123,33.459,56.897z"/>
		<path fill="#090905" d="M52.39,32.027c-0.017,11.34-9.227,20.346-20.357,20.341C20.905,52.362,11.68,43.345,11.7,31.985
			c0.02-11.334,9.245-20.32,20.364-20.309C43.183,11.688,52.378,20.692,52.39,32.027z M32.038,52.007
			c11.119-0.008,19.984-9.027,19.988-19.963c0.004-11.037-8.93-20.005-19.966-20.005c-11.145-0.001-19.994,9.045-20,19.973
			C12.054,42.953,20.908,51.992,32.038,52.007z"/>
		<path fill="#030303" d="M33.221,54.396c-0.054,0.114-0.089,0.191-0.127,0.266c-0.462,0.919-0.924,1.839-1.39,2.757
			c-0.059,0.117-0.09,0.233-0.088,0.365c0.006,0.483,0.003,0.967,0.002,1.45c0,0.15-0.003,0.152-0.151,0.153
			c-0.306,0.002-0.611,0.002-0.917,0c-0.147-0.001-0.15-0.003-0.15-0.156c-0.002-0.49-0.002-0.981,0.001-1.471
			c0.001-0.109-0.018-0.208-0.068-0.307c-0.455-0.899-0.906-1.8-1.358-2.701c-0.016-0.031-0.034-0.062-0.05-0.092
			c-0.065,0.004-0.081,0.058-0.109,0.093c-0.437,0.57-0.872,1.14-1.307,1.711c-0.105,0.138-0.105,0.139-0.013,0.291
			c0.486,0.802,0.972,1.603,1.457,2.405c0.039,0.065,0.074,0.132,0.126,0.226c-0.134,0-0.237,0-0.341,0
			c-0.291,0-0.583-0.007-0.874,0.003c-0.144,0.005-0.228-0.037-0.3-0.168c-0.273-0.498-0.561-0.988-0.843-1.481
			c-0.035-0.061-0.071-0.122-0.123-0.212c-0.16,0.175-0.311,0.34-0.46,0.506c-0.048,0.054-0.028,0.122-0.028,0.184
			c-0.002,0.334,0,0.668-0.001,1.002c-0.001,0.161-0.003,0.163-0.163,0.164c-0.306,0.001-0.611-0.002-0.917,0.002
			c-0.091,0.001-0.132-0.027-0.123-0.121c0.004-0.042,0.001-0.085,0.001-0.128c0-1.5,0-3,0-4.499c0-0.036,0.004-0.072-0.001-0.107
			c-0.016-0.114,0.034-0.144,0.144-0.141c0.298,0.007,0.597,0.001,0.896,0.003c0.161,0.001,0.164,0.003,0.164,0.162
			c0.001,0.583,0,1.166,0,1.749c0,0.069,0,0.138,0,0.229c0.075-0.037,0.095-0.091,0.124-0.134c0.424-0.622,0.85-1.243,1.27-1.868
			c0.065-0.097,0.132-0.143,0.256-0.141c0.725,0.007,1.45,0.007,2.175,0c0.12-0.001,0.175,0.038,0.22,0.145
			c0.276,0.661,0.559,1.32,0.84,1.981c0.078-0.038,0.083-0.116,0.109-0.178c0.257-0.6,0.515-1.2,0.764-1.803
			c0.045-0.11,0.1-0.147,0.218-0.145C32.451,54.402,32.819,54.396,33.221,54.396z"/>
		<path fill="#030303" d="M55.238,22.031c0.024,0.717-0.337,1.169-1.067,1.347c-0.448,0.109-0.843,0.009-1.194-0.282
			c-0.255-0.212-0.452-0.473-0.604-0.765c-0.34-0.655-0.667-1.316-1.008-1.971c-0.065-0.126,0.014-0.142,0.09-0.181
			c0.71-0.358,1.419-0.716,2.128-1.075c0.772-0.391,1.544-0.782,2.317-1.173c0.161-0.082,0.163-0.081,0.246,0.084
			c0.282,0.557,0.568,1.112,0.841,1.673c0.191,0.392,0.329,0.8,0.319,1.246c-0.016,0.751-0.665,1.346-1.418,1.307
			c-0.238-0.012-0.429-0.129-0.628-0.237c-0.009-0.009-0.025-0.027-0.027-0.026C55.213,21.997,55.219,22.015,55.238,22.031z
			 M52.778,20.951c0.038,0.08,0.067,0.144,0.098,0.206c0.107,0.209,0.213,0.417,0.323,0.624c0.026,0.05,0.06,0.097,0.097,0.14
			c0.214,0.253,0.48,0.292,0.782,0.118c0.305-0.176,0.416-0.426,0.287-0.733c-0.131-0.313-0.294-0.612-0.449-0.931
			C53.527,20.572,53.156,20.76,52.778,20.951z M56.2,20.499c-0.006-0.039-0.01-0.111-0.029-0.178
			c-0.084-0.289-0.248-0.541-0.374-0.811c-0.029-0.061-0.069-0.052-0.121-0.025c-0.303,0.156-0.607,0.311-0.913,0.46
			c-0.092,0.045-0.083,0.092-0.043,0.167c0.097,0.182,0.186,0.368,0.282,0.549c0.06,0.113,0.133,0.218,0.23,0.305
			c0.176,0.156,0.372,0.162,0.576,0.071C56.025,20.938,56.198,20.8,56.2,20.499z"/>
		<path fill="#030303" d="M24.329,9.143c0.186,0.606,0.366,1.195,0.55,1.797c-0.412,0.127-0.81,0.25-1.223,0.377
			c-0.105-0.337-0.208-0.66-0.308-0.985c-0.399-1.295-0.797-2.591-1.196-3.887c-0.01-0.034-0.015-0.07-0.03-0.102
			c-0.035-0.074-0.018-0.12,0.063-0.143c0.764-0.22,1.512-0.492,2.285-0.679c0.321-0.077,0.648-0.082,0.972,0.002
			c0.601,0.155,0.926,0.57,1.078,1.148c0.149,0.566,0.05,1.069-0.364,1.498c-0.106,0.11-0.105,0.113,0.008,0.228
			c0.482,0.493,0.966,0.985,1.448,1.478c0.048,0.049,0.109,0.09,0.134,0.18c-0.181,0.057-0.354,0.113-0.528,0.167
			c-0.21,0.065-0.424,0.121-0.63,0.196c-0.112,0.041-0.178,0.016-0.257-0.068c-0.398-0.426-0.806-0.842-1.201-1.271
			c-0.102-0.111-0.191-0.141-0.331-0.083C24.656,9.054,24.503,9.089,24.329,9.143z M24.658,6.513
			c-0.063,0.008-0.143,0.01-0.217,0.031c-0.238,0.068-0.473,0.148-0.713,0.214c-0.103,0.028-0.116,0.075-0.087,0.168
			c0.122,0.385,0.243,0.77,0.357,1.158c0.03,0.103,0.074,0.111,0.167,0.077c0.166-0.06,0.339-0.104,0.508-0.157
			c0.121-0.038,0.245-0.071,0.356-0.136c0.245-0.143,0.36-0.378,0.305-0.668c-0.058-0.305-0.18-0.571-0.514-0.667
			C24.773,6.518,24.722,6.52,24.658,6.513z"/>
		<path fill="#030303" d="M22.394,10.743c-0.017,0.988-0.517,1.658-1.398,2.05c-0.777,0.346-1.523,0.256-2.214-0.245
			c-0.115-0.084-0.225-0.175-0.321-0.28c-0.5-0.543-0.86-1.165-1.022-1.888c-0.334-1.488,0.721-2.515,1.851-2.74
			c0.621-0.123,1.195,0.017,1.689,0.4c0.806,0.625,1.255,1.467,1.414,2.469C22.404,10.585,22.394,10.665,22.394,10.743z
			 M21.198,11.015c0-0.036,0.002-0.071-0.001-0.106c-0.003-0.035-0.008-0.071-0.016-0.105c-0.157-0.705-0.505-1.305-0.999-1.824
			c-0.108-0.114-0.243-0.196-0.391-0.252c-0.503-0.193-1.091,0.134-1.201,0.662c-0.05,0.24-0.004,0.469,0.074,0.69
			c0.168,0.479,0.417,0.916,0.729,1.317c0.118,0.152,0.259,0.282,0.424,0.385c0.306,0.191,0.615,0.196,0.928,0.022
			C21.053,11.632,21.194,11.362,21.198,11.015z"/>
		<path fill="#030303" d="M53.322,14.143c-0.053,0.084-0.122,0.123-0.182,0.171c-0.82,0.659-1.64,1.318-2.461,1.976
			c-0.122,0.098-0.241,0.199-0.333,0.328c-0.18,0.251-0.196,0.51-0.042,0.778c0.021,0.037,0.045,0.073,0.07,0.107
			c0.308,0.421,0.673,0.49,1.106,0.204c0.112-0.074,0.217-0.16,0.323-0.245c0.804-0.645,1.608-1.29,2.412-1.936
			c0.039-0.031,0.078-0.061,0.136-0.105c0.264,0.328,0.525,0.653,0.782,0.972c-0.011,0.067-0.06,0.089-0.098,0.119
			c-0.848,0.682-1.696,1.362-2.544,2.044c-0.286,0.23-0.595,0.409-0.962,0.479c-0.334,0.063-0.657,0.031-0.956-0.119
			c-0.775-0.388-1.281-1.002-1.47-1.853c-0.117-0.527,0.038-0.998,0.377-1.41c0.104-0.127,0.225-0.237,0.353-0.34
			c0.848-0.681,1.696-1.362,2.545-2.043c0.017-0.013,0.035-0.025,0.049-0.041c0.072-0.077,0.124-0.058,0.186,0.022
			C52.843,13.551,53.081,13.843,53.322,14.143z"/>
		<path fill="#030303" d="M36.727,6.294c-0.397-0.037-0.772-0.075-1.147-0.104c-0.094-0.007-0.112-0.046-0.118-0.131
			c-0.026-0.341-0.193-0.526-0.525-0.605c-0.184-0.044-0.366-0.048-0.547,0.009c-0.187,0.059-0.329,0.172-0.375,0.372
			C33.969,6.033,34.067,6.179,34.21,6.3c0.186,0.158,0.406,0.26,0.627,0.358c0.266,0.118,0.532,0.237,0.781,0.39
			c0.219,0.135,0.416,0.295,0.586,0.491c0.527,0.604,0.503,1.902-0.634,2.26c-0.912,0.287-1.79,0.149-2.573-0.418
			c-0.438-0.317-0.636-0.771-0.628-1.312c0.002-0.144,0.005-0.149,0.141-0.138c0.347,0.028,0.694,0.063,1.041,0.091
			c0.084,0.007,0.11,0.041,0.105,0.121c-0.004,0.063,0.001,0.128,0.009,0.191c0.023,0.186,0.104,0.346,0.266,0.441
			c0.285,0.168,0.596,0.223,0.923,0.153c0.188-0.04,0.326-0.148,0.374-0.338c0.052-0.204,0.021-0.397-0.141-0.55
			c-0.125-0.119-0.275-0.202-0.428-0.276c-0.236-0.115-0.476-0.222-0.711-0.34c-0.293-0.148-0.571-0.319-0.801-0.557
			c-0.246-0.254-0.403-0.552-0.414-0.909c-0.016-0.538,0.216-0.945,0.679-1.218c0.307-0.181,0.645-0.261,0.996-0.28
			c0.565-0.031,1.108,0.05,1.595,0.36c0.5,0.319,0.758,0.774,0.741,1.375C36.741,6.22,36.734,6.247,36.727,6.294z"/>
		<path fill="#030303" d="M12.482,14.836c-0.243,0.325-0.472,0.631-0.7,0.939c-0.04,0.054-0.075,0.072-0.14,0.032
			c-0.244-0.151-0.492-0.145-0.714,0.035c-0.252,0.205-0.428,0.459-0.391,0.807c0.024,0.228,0.21,0.382,0.438,0.378
			c0.139-0.002,0.263-0.056,0.384-0.115c0.205-0.101,0.39-0.232,0.577-0.362c0.304-0.211,0.618-0.404,0.97-0.526
			c0.486-0.169,0.949-0.137,1.382,0.158c0.504,0.344,0.734,0.876,0.578,1.466c-0.24,0.909-0.79,1.581-1.654,1.968
			c-0.574,0.258-1.199,0.127-1.615-0.228c0.236-0.316,0.473-0.633,0.708-0.951c0.037-0.051,0.068-0.049,0.124-0.021
			c0.514,0.256,0.763,0.198,1.119-0.252c0.084-0.106,0.157-0.218,0.198-0.35c0.112-0.36-0.153-0.699-0.532-0.678
			c-0.131,0.007-0.247,0.061-0.361,0.119c-0.209,0.108-0.398,0.246-0.594,0.375c-0.369,0.242-0.744,0.472-1.183,0.57
			c-0.694,0.154-1.381-0.215-1.59-0.856c-0.1-0.307-0.092-0.619-0.005-0.925c0.181-0.643,0.537-1.174,1.08-1.566
			c0.588-0.424,1.26-0.452,1.816-0.095C12.409,14.778,12.436,14.801,12.482,14.836z"/>
		<path fill="#030303" d="M11.303,23.854c-0.318-0.154-0.617-0.299-0.916-0.445c-1.218-0.594-2.436-1.188-3.654-1.782
			c-0.019-0.009-0.037-0.02-0.057-0.03c-0.18-0.088-0.163-0.061-0.083-0.226c0.31-0.638,0.621-1.276,0.932-1.914
			c0.174-0.357,0.349-0.714,0.524-1.071c0.025-0.05,0.051-0.1,0.084-0.163c0.293,0.143,0.578,0.281,0.885,0.431
			c-0.348,0.715-0.691,1.419-1.044,2.146c0.333,0.164,0.661,0.324,1.004,0.493c0.297-0.606,0.589-1.202,0.887-1.811
			c0.287,0.14,0.559,0.272,0.83,0.404c0.008,0.078-0.035,0.128-0.062,0.182c-0.242,0.498-0.485,0.995-0.727,1.493
			c-0.071,0.146-0.07,0.149,0.07,0.218c0.274,0.135,0.547,0.269,0.823,0.401c0.194,0.093,0.167,0.107,0.26-0.085
			c0.283-0.581,0.566-1.161,0.849-1.741c0.022-0.045,0.049-0.087,0.066-0.134c0.029-0.081,0.07-0.088,0.145-0.049
			c0.221,0.114,0.443,0.226,0.67,0.325c0.114,0.05,0.101,0.103,0.055,0.195c-0.271,0.547-0.538,1.096-0.805,1.644
			C11.798,22.835,11.557,23.333,11.303,23.854z"/>
		<path fill="#030303" d="M12.269,12.784c0.022-0.062,0.072-0.092,0.114-0.129c0.483-0.43,0.965-0.86,1.448-1.289
			c0.323-0.287,0.686-0.501,1.114-0.593c0.985-0.213,2.004,0.55,2.064,1.556c0.021,0.357-0.086,0.687-0.269,0.992
			c-0.148,0.246-0.335,0.458-0.547,0.649c-0.179,0.162-0.356,0.327-0.542,0.48c-0.089,0.073-0.085,0.12-0.01,0.202
			c0.335,0.368,0.663,0.741,0.993,1.113c0.13,0.146,0.12,0.123-0.013,0.242c-0.233,0.208-0.466,0.416-0.7,0.623
			c-0.133,0.117-0.11,0.141-0.243-0.009c-0.298-0.334-0.595-0.669-0.892-1.003c-0.807-0.907-1.615-1.814-2.422-2.722
			C12.33,12.86,12.299,12.821,12.269,12.784z M13.869,12.658c0.327,0.368,0.648,0.728,0.968,1.089
			c0.047,0.053,0.082,0.032,0.124-0.006c0.201-0.181,0.409-0.354,0.603-0.541c0.345-0.333,0.342-0.703,0.002-1.042
			c-0.04-0.04-0.083-0.079-0.128-0.112c-0.281-0.207-0.615-0.209-0.886,0.012C14.321,12.245,14.104,12.45,13.869,12.658z"/>
		<path fill="#030303" d="M46.969,10.748c-0.337-0.192-0.675-0.386-1.013-0.577c-0.053-0.03-0.069-0.064-0.044-0.121
			c0.031-0.072,0.06-0.144,0.084-0.218c0.1-0.304,0.016-0.558-0.216-0.77c-0.095-0.087-0.201-0.158-0.315-0.217
			c-0.316-0.164-0.615-0.138-0.896,0.084c-0.141,0.111-0.26,0.243-0.363,0.388c-0.285,0.401-0.527,0.826-0.721,1.278
			c-0.081,0.189-0.141,0.387-0.14,0.598c0.001,0.163,0.048,0.31,0.152,0.433c0.197,0.231,0.45,0.366,0.749,0.411
			c0.291,0.044,0.509-0.083,0.684-0.304c0.114-0.144,0.116-0.143,0.281-0.05c0.259,0.147,0.519,0.294,0.778,0.443
			c0.048,0.028,0.106,0.045,0.141,0.11c-0.339,0.511-0.798,0.842-1.429,0.869c-0.878,0.037-1.596-0.317-2.139-0.992
			c-0.432-0.537-0.494-1.172-0.31-1.82c0.204-0.721,0.564-1.365,1.085-1.908c0.442-0.461,0.982-0.716,1.634-0.702
			c0.789,0.016,1.985,0.706,2.198,1.759C47.253,9.854,47.181,10.393,46.969,10.748z"/>
		<path fill="#030303" d="M34.903,54.396c0.424,0,0.821,0.003,1.219-0.002c0.104-0.001,0.128,0.05,0.15,0.136
			c0.122,0.459,0.25,0.917,0.375,1.375c0.173,0.636,0.346,1.273,0.519,1.909c0.013,0.048,0.03,0.094,0.051,0.158
			c0.073-0.113,0.084-0.229,0.114-0.338c0.283-1.025,0.563-2.052,0.845-3.077c0.044-0.16,0.046-0.161,0.212-0.161
			c0.383-0.001,0.766,0,1.146,0c0.019,0.082-0.019,0.138-0.039,0.197c-0.517,1.539-1.037,3.078-1.556,4.617
			c-0.06,0.177-0.061,0.178-0.248,0.178c-0.32,0-0.64-0.007-0.959,0.003c-0.131,0.004-0.182-0.042-0.221-0.163
			c-0.305-0.93-0.618-1.857-0.928-2.785c-0.204-0.612-0.408-1.224-0.611-1.837C34.953,54.547,34.933,54.487,34.903,54.396z"/>
		<path fill="#030303" d="M31.39,4.348c0.173-0.012,0.175-0.012,0.196,0.169c0.026,0.219,0.044,0.438,0.073,0.657
			c0.014,0.107-0.012,0.15-0.129,0.16c-0.432,0.036-0.863,0.084-1.294,0.128c-0.158,0.016-0.155,0.015-0.138,0.182
			c0.096,0.933,0.19,1.866,0.286,2.799c0.04,0.389,0.083,0.777,0.121,1.166c0.017,0.177,0.013,0.179-0.156,0.196
			c-0.318,0.033-0.636,0.065-0.955,0.093c-0.15,0.013-0.15,0.008-0.165-0.14c-0.131-1.301-0.263-2.602-0.394-3.903
			c-0.001-0.014-0.003-0.028-0.005-0.042C28.803,5.614,28.803,5.61,28.6,5.63c-0.389,0.038-0.778,0.079-1.166,0.12
			c-0.192,0.02-0.191,0.02-0.208-0.163c-0.021-0.219-0.042-0.439-0.063-0.658c-0.014-0.14-0.015-0.144,0.135-0.161
			c0.48-0.053,0.961-0.104,1.441-0.154c0.82-0.085,1.64-0.168,2.46-0.252C31.262,4.356,31.326,4.353,31.39,4.348z"/>
		<path fill="#030303" d="M48.838,15.603c-0.203,0.237-0.409,0.478-0.614,0.717c-0.159-0.097-2.471-2.066-2.664-2.266
			c0.096-0.149,3.298-3.892,3.452-4.033c0.316,0.271,0.633,0.542,0.96,0.822c-0.082,0.098-0.154,0.184-0.227,0.269
			c-0.804,0.939-1.608,1.877-2.411,2.816c-0.037,0.043-0.07,0.091-0.11,0.13c-0.065,0.062-0.043,0.103,0.017,0.153
			c0.18,0.15,0.356,0.304,0.534,0.457c0.313,0.268,0.626,0.535,0.939,0.803C48.757,15.508,48.805,15.539,48.838,15.603z"/>
		<path fill="#090905" d="M7.346,40.758c-1.853,0.009-3.367-1.491-3.377-3.346c-0.01-1.862,1.498-3.387,3.357-3.394
			c1.854-0.007,3.38,1.499,3.386,3.342C10.718,39.249,9.233,40.748,7.346,40.758z M10.3,37.383
			c-0.005-1.645-1.331-2.956-2.984-2.951c-1.626,0.005-2.942,1.342-2.932,2.979c0.009,1.634,1.341,2.953,2.971,2.944
			C8.988,40.345,10.305,39.016,10.3,37.383z"/>
		<path fill="#090905" d="M56.741,40.758c-1.871,0.002-3.373-1.498-3.372-3.368c0.001-1.865,1.513-3.375,3.376-3.371
			c1.852,0.005,3.365,1.516,3.367,3.364C60.115,39.247,58.608,40.756,56.741,40.758z M59.696,37.401
			c0.004-1.638-1.309-2.963-2.943-2.969c-1.642-0.007-2.98,1.322-2.979,2.96c0,1.626,1.335,2.962,2.96,2.962
			C58.367,40.355,59.692,39.034,59.696,37.401z"/>
		<path fill="#030303" d="M33.459,56.897c0-0.774,0-1.548,0-2.322c0-0.175,0.002-0.177,0.17-0.178c0.291-0.001,0.582-0.001,0.873,0
			c0.153,0.001,0.157,0.003,0.157,0.145c0.001,1.562,0.001,3.125,0,4.687c0,0.156-0.003,0.158-0.168,0.158
			c-0.284,0.001-0.568-0.001-0.852,0.001c-0.196,0.001-0.181-0.001-0.181-0.191C33.459,58.431,33.459,57.664,33.459,56.897z"/>
		<path fill="#F4D213" d="M32.038,52.007c-11.13-0.015-19.984-9.054-19.978-19.996c0.006-10.928,8.855-19.973,20-19.973
			c11.036,0.001,19.97,8.968,19.966,20.005C52.021,42.98,43.157,51.998,32.038,52.007z M22.964,38.513
			c-0.199-0.09-0.403-0.167-0.61-0.236c-0.237-0.113-0.472-0.229-0.711-0.336c-0.111-0.05-0.181-0.121-0.222-0.237
			c-0.064-0.18-0.146-0.354-0.211-0.534c-0.034-0.092-0.086-0.129-0.185-0.141c-0.303-0.038-0.604-0.088-0.905-0.135
			c-0.198-0.031-0.198-0.033-0.243-0.225c-0.023-0.097-0.048-0.193-0.07-0.29c-0.075-0.33-0.15-0.661-0.226-0.998
			c0.121-0.024,0.226-0.004,0.331,0.003c0.248,0.017,0.495,0.037,0.742,0.056c0.021,0.004,0.041,0.01,0.063,0.012
			c0.664,0.055,1.329,0.111,1.993,0.165c0.233,0.019,0.467,0.036,0.7,0.052c0.048,0.003,0.098,0.013,0.114-0.059
			c0.04-0.182-0.047-0.397-0.211-0.496c-0.258-0.156-0.538-0.254-0.836-0.296c-0.164-0.023-0.314-0.082-0.462-0.152
			c-0.222-0.106-0.376-0.246-0.3-0.523c0.039-0.141-0.031-0.227-0.155-0.284c-0.328-0.15-0.655-0.303-0.982-0.455
			c-0.074-0.069-0.17-0.1-0.255-0.149c-0.135-0.078-0.139-0.078-0.094-0.23c0.115-0.387,0.242-0.77,0.393-1.145
			c0.061-0.152,0.111-0.306,0.1-0.473c0.04-0.395-0.072-0.775-0.122-1.161c-0.009-0.073-0.07-0.082-0.121-0.104
			c-0.241-0.101-0.438-0.26-0.605-0.459c-0.228-0.272-0.375-0.585-0.463-0.926c-0.062-0.24-0.113-0.482-0.169-0.724
			c-0.02-0.369-0.093-0.733-0.094-1.103c0-0.091,0.009-0.182-0.12-0.211c-0.066-0.015-0.058-0.095-0.049-0.148
			c0.037-0.203-0.008-0.435,0.194-0.584c0.03-0.023,0.024-0.065,0.029-0.099c0.013-0.091,0.025-0.183,0.039-0.274
			c0.119-0.811,0.276-1.61,0.727-2.318c0.263-0.342,0.625-0.525,1.029-0.638c0.17-0.047,0.342-0.085,0.514-0.128
			c0.144,0.012,0.283-0.026,0.421-0.052c0.622-0.121,1.167-0.362,1.474-0.966c0.019-0.038,0.034-0.091,0.093-0.097
			c0.022,0.047,0.007,0.087-0.011,0.126c-0.165,0.374-0.401,0.685-0.78,0.868c-0.076,0.037-0.15,0.077-0.226,0.115
			c-0.399,0.127-0.805,0.222-1.216,0.296c-0.486,0.087-0.825,0.383-1.089,0.781c-0.014,0.015-0.032,0.028-0.042,0.046
			c-0.386,0.691-0.513,1.453-0.599,2.223c-0.014,0.125,0.072,0.269,0.181,0.313c0.237,0.095,0.496,0.123,0.749,0.061
			c0.098-0.024,0.19-0.048,0.29-0.041c0.156,0.01,0.312,0.021,0.468,0.027c0.108,0.004,0.212,0.009,0.294,0.096
			c0.056,0.059,0.129,0.046,0.2,0.033c0.3,0.005,0.611,0.074,0.875-0.142c0.01-0.008,0.026-0.012,0.04-0.014
			c0.404-0.07,0.807-0.181,1.212-0.007c0.036,0.022,0.069,0.049,0.107,0.065c0.099,0.042,0.126,0.022,0.127-0.08
			c0.001-0.127-0.075-0.169-0.184-0.181c-0.084-0.046-0.113-0.123-0.118-0.213c-0.004-0.063,0.003-0.129-0.045-0.181
			c-0.056-0.062-0.049-0.13-0.016-0.198c0.052-0.106,0.053-0.216,0.048-0.332c-0.011-0.243,0.101-0.403,0.325-0.494
			c0.2-0.081,0.387-0.004,0.578,0.042c0.091,0.099,0.193,0.191,0.213,0.333c0.019,0.135,0.01,0.276,0.134,0.375
			c0.032,0.026,0.028,0.079,0.025,0.122c-0.011,0.134-0.031,0.267-0.072,0.395c-0.025,0.077-0.062,0.151-0.142,0.175
			c-0.099,0.029-0.109,0.093-0.104,0.178c0.013,0.255,0.044,0.297,0.286,0.378c0.04,0.013,0.083,0.023,0.119,0.044
			c0.261,0.152,0.485,0.344,0.481,0.672c-0.003,0.249,0.043,0.493,0.049,0.739c-0.067,0.286-0.068,0.577-0.06,0.869
			c0.013,0.455,0.085,0.905,0.092,1.361c0.002,0.111,0.045,0.222,0.067,0.333c0.01,0.052,0.034,0.094,0.086,0.113
			c0.085,0.031,0.16,0.088,0.251,0.094c0.029-0.035,0.025-0.072,0.028-0.106c0.031-0.39,0.068-0.779,0.181-1.155
			c0.028-0.093-0.01-0.136-0.077-0.17c-0.288-0.147-0.37-0.41-0.416-0.701c-0.033-0.211-0.032-0.425-0.051-0.637
			c0.018-0.305,0.025-0.61,0.046-0.915c0.01-0.149,0.067-0.208,0.199-0.25c0.216-0.069,0.431-0.147,0.632-0.253
			c0.064-0.034,0.114-0.084,0.125-0.162c0.013-0.087-0.061-0.098-0.111-0.135c-0.164-0.119-0.223-0.301-0.15-0.485
			c0.048-0.123,0.059-0.247,0.06-0.376c0.001-0.352,0.121-0.485,0.471-0.533c0.035-0.005,0.071-0.005,0.106-0.008
			c0.251,0.116,0.388,0.312,0.424,0.585c0.018,0.138,0.017,0.285,0.126,0.395c0.002,0.031,0.011,0.057,0.041,0.071l-0.002,0.008
			c0.032,0.154-0.021,0.271-0.171,0.318c-0.183,0.058-0.107,0.202-0.121,0.317c-0.016,0.126,0.089,0.125,0.165,0.15
			c0.337,0.109,0.575,0.321,0.696,0.659c0.029,0.08,0.059,0.159,0.096,0.235c0.026,0.055,0.02,0.129,0.092,0.166
			c0.071-0.122,0.137-0.245,0.174-0.382c0.033-0.17,0.028-0.337-0.047-0.497c-0.044-0.094-0.064-0.196-0.003-0.285
			c0.067-0.096,0.063-0.199,0.063-0.304c0.001-1.184,0.003-2.368,0.004-3.552c0-0.092-0.005-0.184-0.008-0.276
			c0.004-0.718,0.007-1.436,0.013-2.153c0.001-0.08-0.019-0.14-0.099-0.166c-0.119-0.039-0.111-0.117-0.083-0.218
			c0.089-0.329,0.171-0.66,0.255-0.99c0.012-0.046,0.003-0.104,0.074-0.12c0.096,0.378,0.189,0.757,0.29,1.134
			c0.023,0.086,0.036,0.154-0.07,0.183c-0.103,0.028-0.12,0.102-0.116,0.197c0.005,0.135,0.001,0.27,0.001,0.405
			c0.003,0.576,0.006,1.151,0.008,1.727c-0.003,0.071-0.009,0.142-0.009,0.212c-0.001,0.604-0.002,1.208-0.002,1.811
			c0,0.597,0,1.193-0.001,1.79c0,0.086-0.012,0.176,0.088,0.219c0.167,0.072,0.206,0.2,0.167,0.365
			c-0.007,0.028-0.004,0.056,0.03,0.077c0.064-0.012,0.134-0.025,0.203-0.038c0.227-0.043,0.215-0.045,0.253-0.264
			c0.023-0.136-0.081-0.149-0.146-0.201c-0.143-0.115-0.155-0.162-0.018-0.283c0.089-0.078,0.116-0.15,0.077-0.259
			c-0.024-0.066-0.032-0.138-0.044-0.208c-0.039-0.239,0.035-0.383,0.251-0.482c0.13-0.059,0.269-0.086,0.41-0.11
			c0.14-0.024,0.251,0.012,0.339,0.122c0.068,0.221,0.104,0.455,0.276,0.633c0.048,0.049,0.087,0.123-0.02,0.169
			c-0.046,0.02-0.047,0.062-0.043,0.108c0.008,0.086,0.028,0.168,0.059,0.247c0.029,0.074,0.046,0.15,0.03,0.229
			c-0.021,0.104-0.077,0.144-0.182,0.129c-0.035-0.005-0.069-0.018-0.101-0.031c-0.078-0.034-0.117-0.012-0.13,0.074
			c-0.012,0.079,0.004,0.129,0.082,0.17c0.467,0.246,0.851,0.584,1.129,1.036c0.033,0.077,0.066,0.154,0.098,0.23
			c0.032,0.077,0.094,0.097,0.17,0.088c0.153-0.02,0.29-0.155,0.331-0.325c0.004-0.056,0.011-0.113,0.013-0.169
			c0.025-1.177,0.051-2.354,0.074-3.531c0.008-0.404,0.024-0.808,0.007-1.212c0.017-0.199,0.019-0.397,0.006-0.596
			c0.016-0.198,0.023-0.397,0.006-0.596c0.039-0.425,0.023-0.852,0.039-1.278c0.005-0.128-0.019-0.221-0.151-0.264
			c-0.088-0.029-0.116-0.084-0.09-0.18c0.103-0.384,0.199-0.769,0.302-1.17c0.022,0.037,0.043,0.059,0.05,0.084
			c0.095,0.371,0.186,0.744,0.285,1.114c0.021,0.08-0.001,0.12-0.068,0.151c-0.065,0.031-0.126,0.06-0.124,0.151
			c0.006,0.32-0.032,0.639-0.011,0.959c-0.023,0.342-0.023,0.685-0.012,1.028c-0.018,0.341-0.024,0.683-0.011,1.025
			c-0.028,0.147-0.021,0.296-0.024,0.445c-0.017,1.013-0.034,2.026-0.048,3.04c-0.005,0.333-0.002,0.666-0.002,0.998
			c-0.028,0.084,0.006,0.148,0.054,0.215c0.083,0.115,0.161,0.234,0.237,0.353c0.078,0.123,0.063,0.245-0.025,0.356
			c-0.043,0.055-0.094,0.111-0.154,0.144c-0.108,0.059-0.147,0.142-0.141,0.259c0.004,0.071-0.006,0.142-0.008,0.213
			c-0.016,0.986-0.032,1.973-0.047,2.959c-0.001,0.049,0.005,0.099,0.007,0.148c-0.018,0.243-0.021,0.485-0.008,0.728
			c-0.019,0.255-0.021,0.51-0.009,0.765c-0.038,0.543-0.031,1.088-0.042,1.632c-0.002,0.086,0.019,0.131,0.116,0.128
			c0.304-0.01,0.608-0.014,0.911-0.02c0.647,0.02,1.293-0.029,1.94-0.046c0.561-0.015,1.121-0.059,1.682-0.09
			c0.564-0.023,1.125-0.073,1.686-0.133c0.237-0.025,0.477-0.032,0.709-0.099c0.476-0.033,0.937-0.141,1.393-0.272
			c0.334-0.096,0.656-0.226,0.951-0.414c0.193-0.123,0.368-0.266,0.493-0.461c0.051-0.08,0.107-0.162,0.09-0.273
			c-0.116,0-0.222-0.001-0.328,0c-0.404,0.006-0.401,0.007-0.389-0.393c0.003-0.095,0.041-0.112,0.124-0.123
			c0.196-0.025,0.394-0.051,0.561-0.173c0.036-0.022,0.076-0.039,0.107-0.066c0.213-0.188,0.206-0.356-0.021-0.522
			c-0.11-0.08-0.233-0.136-0.359-0.184c-0.159-0.06-0.17-0.063-0.146-0.222c0.02-0.133-0.032-0.21-0.132-0.284
			c-0.201-0.148-0.406-0.287-0.625-0.405c-0.244-0.133-0.473-0.288-0.689-0.463c-0.168-0.137-0.166-0.137-0.09-0.336
			c0.132-0.344,0.358-0.628,0.588-0.908c0.152-0.186,0.292-0.385,0.465-0.55c0.176-0.168,0.328-0.348,0.443-0.561
			c0.195-0.272,0.314-0.575,0.378-0.903c0.087-0.203,0.113-0.423,0.173-0.633c0.093-0.323,0.244-0.604,0.533-0.795
			c0.041-0.027,0.078-0.061,0.115-0.095c0.189-0.171,0.208-0.28,0.073-0.502c-0.095-0.157-0.204-0.305-0.337-0.434
			c-0.067-0.051-0.146-0.046-0.223-0.048c-0.127-0.003-0.255-0.004-0.382-0.007c-0.19-0.005-0.358-0.065-0.508-0.185
			c-0.122-0.097-0.246-0.191-0.379-0.271c-0.18-0.107-0.363-0.175-0.568-0.027c-0.137,0.099-0.308,0.14-0.474,0.178
			c-0.138,0.032-0.276,0.061-0.414,0.091c-0.086-0.011-0.169,0.013-0.254,0.02c-0.212,0.018-0.426,0.04-0.635-0.025
			c-0.21-0.065-0.278-0.199-0.218-0.411c0.023-0.081,0.113-0.152,0.083-0.231c-0.029-0.077-0.142-0.08-0.211-0.131
			c-0.115-0.084-0.129-0.15-0.044-0.265c0.021-0.028,0.044-0.057,0.072-0.078c0.117-0.085,0.108-0.189,0.051-0.301
			c-0.065-0.126-0.137-0.249-0.196-0.378c-0.076-0.166-0.065-0.194,0.084-0.324c0.253-0.047,0.506-0.057,0.763-0.031
			c0.496,0.05,0.979,0.164,1.455,0.306c0.175,0.052,0.314,0.053,0.434-0.095c0.118-0.147,0.268-0.167,0.439-0.112
			c0.034,0.011,0.069,0.018,0.103,0.025c0.29,0.061,0.503,0.253,0.728,0.426c0.081,0.062,0.163,0.188,0.268,0.132
			c0.095-0.05,0.062-0.193,0.077-0.297c0.01-0.069-0.024-0.12-0.054-0.178c-0.135-0.26-0.021-0.502,0.263-0.568
			c0.069-0.016,0.139-0.031,0.209-0.04c0.212-0.03,0.527,0.166,0.52,0.398c-0.003,0.093,0.04,0.16,0.1,0.225
			c0.045,0.049,0.109,0.1,0.006,0.168c-0.063,0.041-0.023,0.116-0.013,0.177c-0.02,0.193-0.02,0.193-0.203,0.21
			c-0.014,0.001-0.028,0-0.042,0.002c-0.082,0.009-0.115,0.054-0.085,0.131c0.025,0.066,0.055,0.131,0.09,0.192
			c0.079,0.136,0.19,0.246,0.307,0.351c0.142,0.126,0.247,0.275,0.261,0.471c0.016,0.212,0.027,0.425,0.042,0.637
			c0.056,0.773,0.028,1.545-0.018,2.317c-0.005,0.013-0.014,0.026-0.015,0.039c-0.07,0.631-0.215,1.243-0.462,1.829
			c-0.013,0.031-0.031,0.063,0.013,0.106c0.13-0.011,0.271-0.024,0.412-0.033c0.12-0.008,0.241-0.016,0.361-0.015
			c0.085,0.001,0.144,0.049,0.181,0.127c0.037,0.078-0.02,0.117-0.062,0.163c-0.158,0.173-0.245,0.381-0.284,0.609
			c-0.128,0.757,0.026,1.479,0.292,2.184c0.027,0.131,0.069,0.255,0.137,0.371c0.157,0.477,0.332,0.95,0.425,1.446
			c0.002,0.071,0.004,0.142,0.006,0.213c0.01,0.285,0.005,0.567-0.076,0.844c-0.217,0.746-0.685,1.297-1.324,1.714
			c-0.34,0.222-0.714,0.377-1.094,0.519c-0.359,0.135-0.731,0.225-1.095,0.344c-0.631,0.132-1.261,0.27-1.901,0.358
			c-0.184,0.025-0.365,0.063-0.472,0.082c0.094,0.026,0.266,0.008,0.439,0.009c0.49,0.002,0.98,0.001,1.47,0
			c0.085,0,0.17,0.014,0.254-0.015c0.062,0.024,0.126,0.015,0.19,0.015c1.923,0.001,3.847,0.001,5.77,0
			c0.063,0,0.128,0.012,0.189-0.015c0.129,0.021,0.126-0.094,0.155-0.162c0.534-1.253,0.922-2.55,1.147-3.894
			c0.081-0.483,0.15-0.968,0.174-1.459c0.046-0.287,0.052-0.578,0.062-0.868c0.022-0.652,0.014-1.303-0.066-1.951
			c-0.026-0.489-0.096-0.974-0.179-1.456c-0.064-0.37-0.126-0.741-0.234-1.102c-0.065-0.382-0.175-0.751-0.304-1.116
			c-0.303-1.005-0.714-1.966-1.208-2.891c-0.276-0.518-0.566-1.028-0.914-1.503c-0.286-0.472-0.619-0.908-0.984-1.321
			c-0.02-0.028-0.039-0.058-0.061-0.085c-0.884-1.06-1.882-2-2.994-2.818c-0.045-0.033-0.084-0.077-0.143-0.087l0.003,0.004
			c-0.006-0.027-0.024-0.039-0.05-0.041c-0.276-0.231-0.574-0.431-0.893-0.599c-0.23-0.163-0.472-0.305-0.724-0.429
			c-0.035-0.048-0.091-0.066-0.14-0.092c-1.126-0.615-2.307-1.097-3.544-1.439c-0.191-0.053-0.377-0.127-0.579-0.133
			c-0.259-0.098-0.532-0.135-0.801-0.186c-0.415-0.08-0.832-0.157-1.256-0.184c-0.055-0.011-0.11-0.027-0.166-0.033
			c-1.025-0.105-2.052-0.136-3.08-0.045c-0.225,0.02-0.454,0.014-0.675,0.078c-0.311,0.012-0.617,0.07-0.922,0.123
			c-0.381,0.067-0.765,0.124-1.134,0.246c-0.073-0.008-0.139,0.016-0.208,0.033c-0.825,0.208-1.63,0.48-2.412,0.814
			c-0.547,0.234-1.088,0.48-1.598,0.788c-0.306,0.158-0.601,0.336-0.888,0.527c-0.347,0.205-0.685,0.424-0.992,0.689
			c-0.313,0.198-0.592,0.44-0.873,0.678c-0.814,0.69-1.566,1.441-2.229,2.279c-0.335,0.388-0.646,0.794-0.91,1.235
			c-0.26,0.347-0.476,0.721-0.69,1.097c-0.588,1.033-1.066,2.114-1.417,3.25c-0.136,0.379-0.249,0.765-0.319,1.162
			c-0.119,0.41-0.191,0.829-0.258,1.249c-0.055,0.35-0.121,0.699-0.126,1.055c-0.068,0.32-0.07,0.647-0.086,0.972
			c-0.035,0.701-0.028,1.402,0.052,2.101c-0.001,0.021-0.005,0.043-0.003,0.063c0.112,1.247,0.345,2.471,0.724,3.665
			c0.182,0.574,0.384,1.142,0.639,1.689c-0.002,0.038,0.014,0.066,0.047,0.084c0.069,0.056,0.151,0.027,0.225,0.027
			c1.92,0.002,3.839,0.002,5.759,0.001c0.078,0,0.156,0.013,0.233-0.014c0.028,0.015,0.056,0.015,0.085,0
			c0.525,0.035,1.051,0.004,1.579,0.003C23.891,38.802,23.428,38.654,22.964,38.513z M31.365,33.41
			c-0.012,0.048-0.028,0.096-0.036,0.145c-0.062,0.4-0.125,0.8-0.181,1.201c-0.016,0.116-0.032,0.212-0.183,0.203
			c-0.048-0.003-0.101,0.018-0.112,0.079c-0.033,0.172-0.098,0.346,0.038,0.506c0.056,0.099,0.157,0.113,0.254,0.127
			c0.098,0.014,0.197,0.021,0.296,0.029c0.063,0.005,0.127,0.031,0.121,0.094c-0.018,0.177,0.096,0.154,0.203,0.151
			c0.071-0.002,0.142-0.009,0.212-0.002c0.118,0.012,0.144-0.045,0.143-0.15c-0.002-0.269,0.005-0.539,0.007-0.808
			c0.002-0.439,0.002-0.878,0.004-1.318c0.021-0.086,0.023-0.172,0.004-0.259c0.018-0.056,0.02-0.113,0.003-0.17
			c0.037-0.338,0.037-0.677,0.013-0.921c-0.016,0.132-0.044,0.359-0.072,0.585c-0.008,0.061-0.045,0.102-0.098,0.13
			c-0.049,0.027-0.099,0.053-0.149,0.079c-0.089,0.017-0.179,0.033-0.268,0.052C31.376,33.203,31.376,33.204,31.365,33.41z
			 M26.196,34.137c-0.172-0.031-0.174-0.032-0.244,0.108c-0.076,0.152-0.149,0.306-0.218,0.461
			c-0.064,0.144-0.101,0.294-0.097,0.454c0.002,0.083,0.018,0.142,0.094,0.196c0.164,0.118,0.159,0.125,0.062,0.307
			c0.214,0.058,0.437,0.044,0.653,0.084c0.09,0.017,0.138-0.014,0.118-0.113c-0.046-0.232-0.046-0.463,0.016-0.694
			c0.01-0.039-0.003-0.084-0.005-0.126c0-0.106,0.009-0.213-0.001-0.318C26.539,34.138,26.615,34.151,26.196,34.137z M21.156,28.033
			c0.142-0.201,0.284-0.401,0.438-0.618c-0.606-0.224-1.188-0.441-1.772-0.653c-0.065-0.024-0.139-0.029-0.209-0.031
			c-0.077-0.003-0.134,0.024-0.139,0.12c-0.019,0.397-0.009,0.793,0.069,1.184c0.036,0.707,0.515,1.611,0.978,1.846
			c0.006-0.012,0.019-0.024,0.018-0.034c-0.07-0.446,0.082-0.84,0.285-1.221C20.93,28.426,21.045,28.231,21.156,28.033z
			 M28.086,33.411c-0.02,0.211-0.039,0.423-0.06,0.634c-0.015,0.15-0.017,0.162-0.162,0.149c-0.128-0.011-0.16,0.043-0.17,0.153
			c-0.021,0.226-0.053,0.45-0.073,0.676c-0.027,0.309,0.116,0.495,0.419,0.567c0.132,0.031,0.268,0.028,0.4,0.048
			c0.147,0.022,0.156,0.048,0.094,0.192c-0.008,0.018-0.019,0.037,0.005,0.052c0.13-0.009,0.134-0.009,0.135-0.093
			c0.003-0.149,0.002-0.298,0.001-0.446c0-0.049,0.015-0.106-0.017-0.145c-0.072-0.086-0.059-0.186-0.06-0.284
			c-0.004-0.284,0.019-0.566,0.052-0.848c0.026-0.218,0.029-0.438-0.004-0.656c0.026-0.177-0.007-0.353-0.01-0.53
			c-0.006-0.44,0.019-0.878,0.032-1.317c0.025-0.801,0.007-1.603,0.006-2.405c0-0.062,0.016-0.128-0.021-0.188
			c-0.092-0.005-0.183-0.009-0.275-0.014c-0.075-0.035-0.149-0.069-0.243-0.113c-0.015,0.16-0.045,0.296,0.035,0.427
			c0.052,0.198,0.096,0.397,0.098,0.604c0.006,0.758-0.023,1.513-0.088,2.268C28.143,32.564,28.117,32.988,28.086,33.411z
			 M16.888,39.74c2.277,4.759,7.956,9.472,15.533,9.311c2.598-0.055,5.06-0.673,7.375-1.861c2.282-1.171,4.202-2.777,5.767-4.808
			c0.632-0.821,1.186-1.691,1.664-2.642C37.094,39.74,27,39.74,16.888,39.74z"/>
		<path fill="#F8FAFC" d="M52.778,20.951c0.377-0.191,0.749-0.379,1.138-0.576c0.155,0.318,0.318,0.618,0.449,0.931
			c0.129,0.307,0.018,0.557-0.287,0.733c-0.302,0.174-0.567,0.135-0.782-0.118c-0.037-0.043-0.071-0.09-0.097-0.14
			c-0.11-0.207-0.216-0.416-0.323-0.624C52.845,21.095,52.817,21.031,52.778,20.951z"/>
		<path fill="#F8FAFC" d="M56.2,20.499c-0.002,0.301-0.175,0.439-0.393,0.537c-0.204,0.092-0.4,0.086-0.576-0.071
			c-0.097-0.086-0.17-0.192-0.23-0.305c-0.097-0.182-0.185-0.368-0.282-0.549c-0.04-0.075-0.048-0.123,0.043-0.167
			c0.307-0.149,0.61-0.304,0.913-0.46c0.052-0.027,0.092-0.036,0.121,0.025c0.127,0.269,0.29,0.522,0.374,0.811
			C56.191,20.388,56.194,20.46,56.2,20.499z"/>
		<path fill="#FEFEFE" d="M55.238,22.031c-0.019-0.016-0.025-0.034-0.002-0.051c0.002-0.001,0.018,0.017,0.027,0.026
			C55.254,22.015,55.246,22.023,55.238,22.031z"/>
		<path fill="#F8FAFC" d="M24.658,6.513c0.064,0.007,0.116,0.005,0.163,0.019c0.334,0.096,0.456,0.362,0.514,0.667
			c0.056,0.29-0.059,0.525-0.305,0.668c-0.112,0.065-0.235,0.098-0.356,0.136C24.505,8.056,24.332,8.1,24.166,8.16
			c-0.094,0.034-0.137,0.026-0.167-0.077c-0.114-0.387-0.235-0.773-0.357-1.158c-0.029-0.093-0.016-0.14,0.087-0.168
			c0.239-0.066,0.474-0.146,0.713-0.214C24.515,6.522,24.595,6.521,24.658,6.513z"/>
		<path fill="#FEFEFE" d="M21.198,11.015c-0.004,0.347-0.145,0.616-0.453,0.788c-0.313,0.174-0.622,0.17-0.928-0.022
			c-0.165-0.103-0.306-0.233-0.424-0.385c-0.311-0.401-0.561-0.838-0.729-1.317c-0.078-0.221-0.124-0.45-0.074-0.69
			c0.11-0.528,0.698-0.855,1.201-0.662c0.148,0.057,0.283,0.138,0.391,0.252c0.494,0.519,0.842,1.12,0.999,1.824
			c0.008,0.035,0.013,0.07,0.016,0.105C21.2,10.944,21.198,10.98,21.198,11.015z"/>
		<path fill="#F8FAFC" d="M13.869,12.658c0.236-0.208,0.453-0.413,0.683-0.601c0.271-0.22,0.605-0.218,0.886-0.012
			c0.046,0.034,0.088,0.072,0.128,0.112c0.34,0.34,0.342,0.709-0.002,1.042c-0.194,0.188-0.402,0.36-0.603,0.541
			c-0.042,0.038-0.077,0.059-0.124,0.006C14.517,13.386,14.196,13.026,13.869,12.658z"/>
		<path fill="#F3D214" d="M10.3,37.383c0.005,1.633-1.312,2.963-2.945,2.972c-1.63,0.01-2.962-1.31-2.971-2.944
			c-0.009-1.637,1.306-2.974,2.932-2.979C8.969,34.427,10.295,35.738,10.3,37.383z M5.048,36.881
			c0.034,0.009,0.054,0.019,0.073,0.019c0.532,0.001,1.064-0.002,1.596,0.004c0.123,0.001,0.138-0.059,0.137-0.157
			c-0.002-0.497,0-0.993-0.002-1.49c-0.001-0.159-0.019-0.171-0.177-0.125c-0.477,0.141-0.871,0.408-1.18,0.797
			C5.274,36.21,5.116,36.522,5.048,36.881z M5.056,37.886c0.099,0.664,0.674,1.509,1.663,1.773c0.122,0.033,0.133,0.026,0.134-0.109
			c0.002-0.505,0.002-1.01,0-1.515c-0.001-0.146-0.005-0.148-0.162-0.15c-0.178-0.002-0.356-0.001-0.533-0.001
			C5.796,37.886,5.434,37.886,5.056,37.886z M7.859,35.122c-0.005,0.027-0.014,0.054-0.014,0.081c-0.001,0.517-0.002,1.035,0,1.552
			c0.001,0.142,0.005,0.145,0.164,0.145c0.454,0.002,0.907,0.002,1.361,0c0.084,0,0.169,0.017,0.251-0.017
			C9.502,35.959,8.534,35.167,7.859,35.122z M7.87,39.666c0.744-0.101,1.617-0.867,1.751-1.758c-0.03-0.024-0.066-0.021-0.101-0.021
			c-0.504,0-1.008-0.001-1.512,0c-0.159,0-0.162,0.004-0.163,0.168c-0.002,0.497-0.001,0.994,0,1.491
			C7.845,39.587,7.836,39.632,7.87,39.666z"/>
		<path fill="#F3D214" d="M59.696,37.401c-0.004,1.633-1.329,2.954-2.963,2.954c-1.625,0-2.96-1.336-2.96-2.962
			c0-1.638,1.338-2.967,2.979-2.96C58.386,34.439,59.699,35.763,59.696,37.401z M59.023,36.886
			c-0.128-0.802-0.894-1.612-1.657-1.765c-0.117-0.024-0.134-0.014-0.135,0.117c-0.003,0.505-0.002,1.009,0,1.514
			c0.001,0.145,0.005,0.148,0.162,0.149c0.441,0.002,0.881,0.002,1.322,0C58.813,36.9,58.913,36.914,59.023,36.886z M59.002,37.903
			c-0.02-0.005-0.04-0.014-0.06-0.014c-0.526-0.001-1.052,0-1.578-0.004c-0.104-0.001-0.135,0.039-0.135,0.138
			c0.003,0.505,0,1.009,0.002,1.514c0.001,0.152,0.01,0.159,0.162,0.113c0.797-0.247,1.326-0.77,1.593-1.559
			C59.006,38.031,59.029,37.97,59.002,37.903z M56.241,35.118c-0.787,0.052-1.741,1.015-1.778,1.783c0.561,0,1.121,0,1.681,0
			c0.075,0,0.098-0.04,0.097-0.107c-0.001-0.135,0-0.27,0-0.405C56.241,35.971,56.241,35.553,56.241,35.118z M56.226,39.673
			c0.006-0.039,0.013-0.067,0.013-0.094c0.001-0.512,0.002-1.024,0-1.536c-0.001-0.15-0.004-0.154-0.154-0.155
			c-0.512-0.002-1.024-0.001-1.536,0c-0.033,0-0.071-0.006-0.092,0.032C54.605,38.775,55.408,39.537,56.226,39.673z"/>
		<path fill="#015BBB" d="M16.888,39.74c10.112,0,20.206,0,30.339,0c-0.478,0.951-1.032,1.822-1.664,2.642
			c-1.565,2.031-3.485,3.638-5.767,4.808c-2.314,1.187-4.777,1.805-7.375,1.861C24.844,49.212,19.165,44.499,16.888,39.74z
			 M31.155,43.783c-0.007-0.234,0.012-0.468-0.047-0.699c-0.117-0.453-0.43-0.708-0.886-0.712c-0.471-0.004-0.793,0.246-0.91,0.707
			c-0.028,0.111-0.046,0.223-0.046,0.337c0,0.234,0,0.469,0,0.703c0,0.122,0.019,0.241,0.05,0.358
			c0.119,0.446,0.446,0.697,0.902,0.693c0.459-0.004,0.772-0.256,0.889-0.709C31.165,44.237,31.149,44.01,31.155,43.783z
			 M38.647,43.764c0.006-0.198,0.006-0.404-0.036-0.607c-0.067-0.322-0.215-0.587-0.538-0.716c-0.583-0.234-1.171,0.075-1.285,0.69
			c-0.078,0.421-0.075,0.851,0,1.273c0.061,0.341,0.24,0.614,0.592,0.716c0.52,0.151,1.103-0.023,1.235-0.752
			C38.651,44.17,38.652,43.971,38.647,43.764z M26.416,44.638c-0.005-0.016-0.01-0.032-0.014-0.048
			c0.092-0.108,0.182-0.217,0.277-0.322c0.1-0.111,0.207-0.215,0.306-0.327c0.147-0.165,0.278-0.341,0.339-0.56
			c0.121-0.433-0.077-0.829-0.483-0.956c-0.178-0.056-0.363-0.072-0.548-0.048c-0.427,0.055-0.761,0.368-0.815,0.757
			c-0.018,0.13-0.006,0.147,0.127,0.151c0.071,0.003,0.142,0.003,0.213,0c0.084-0.003,0.176,0.024,0.252-0.017
			c0.07-0.038,0.028-0.133,0.068-0.192c0.016-0.023,0.024-0.052,0.039-0.075c0.078-0.119,0.196-0.163,0.332-0.129
			c0.128,0.032,0.183,0.125,0.201,0.246c0.017,0.116-0.003,0.226-0.06,0.329c-0.086,0.157-0.198,0.294-0.321,0.423
			c-0.21,0.221-0.413,0.451-0.635,0.661c-0.142,0.135-0.193,0.281-0.178,0.471c0.008,0.102,0.039,0.134,0.139,0.133
			c0.547-0.003,1.094-0.004,1.641,0c0.107,0.001,0.139-0.044,0.13-0.14c-0.003-0.028,0-0.057,0-0.085
			c-0.003-0.31,0.033-0.269-0.274-0.271C26.907,44.637,26.661,44.638,26.416,44.638z M33.858,44.638
			c0.207-0.275,0.418-0.477,0.612-0.694c0.133-0.149,0.253-0.307,0.321-0.498c0.138-0.39,0.027-0.942-0.58-1.05
			c-0.127-0.023-0.254-0.033-0.381-0.023c-0.418,0.031-0.761,0.314-0.848,0.692c-0.048,0.209-0.04,0.219,0.168,0.221
			c0.05,0,0.1-0.003,0.149,0.001c0.171,0.013,0.331,0.012,0.334-0.225c0-0.019,0.018-0.038,0.029-0.056
			c0.073-0.115,0.177-0.16,0.309-0.14c0.131,0.02,0.192,0.105,0.225,0.225c0.032,0.118,0.006,0.225-0.045,0.329
			c-0.075,0.155-0.181,0.288-0.298,0.413c-0.224,0.237-0.441,0.483-0.679,0.706c-0.135,0.126-0.173,0.263-0.16,0.434
			c0.011,0.157,0.006,0.16,0.171,0.16c0.483,0.001,0.966,0.002,1.448,0c0.307-0.002,0.272,0.045,0.274-0.268
			c0.002-0.255,0.014-0.225-0.231-0.226C34.416,44.637,34.157,44.638,33.858,44.638z"/>
		<path fill="#018CD5" d="M36.06,15.482c0.202,0.006,0.388,0.08,0.579,0.133c1.237,0.342,2.418,0.824,3.544,1.439
			c0.049,0.027,0.105,0.044,0.14,0.092c-0.092,0.002-0.185,0.004-0.277,0.004c-1.556,0-3.112,0-4.667,0c-0.075,0-0.151,0-0.259,0
			c1.036,1.794,2.053,3.557,3.068,5.314c0.052-0.014,0.067-0.038,0.081-0.063c0.338-0.59,0.676-1.18,1.015-1.771
			c0.279-0.486,0.557-0.971,0.837-1.456c0.308-0.534,0.617-1.067,0.926-1.6c0.319,0.168,0.616,0.368,0.893,0.599
			c0.01,0.022,0.026,0.037,0.05,0.041c0,0-0.003-0.004-0.003-0.004c-0.009,0.059,0.009,0.108,0.04,0.16
			c0.091,0.151,0.175,0.307,0.263,0.461c0.24,0.417,0.482,0.833,0.723,1.249c0.287,0.496,0.573,0.993,0.86,1.489
			c0.172,0.298,0.346,0.594,0.538,0.923c0.11-0.189,0.203-0.353,0.301-0.515c0.157-0.26,0.279-0.54,0.474-0.777
			c0.365,0.413,0.698,0.85,0.984,1.321c-0.05,0.001-0.099,0.003-0.149,0.003c-4.486,0-8.973,0-13.459,0
			c-0.011-0.343-0.01-0.686,0.012-1.028c0.135-0.233,0.271-0.465,0.406-0.698c0.344-0.595,0.687-1.19,1.031-1.785
			c0.241-0.417,0.483-0.834,0.723-1.251c0.111-0.193,0.238-0.377,0.328-0.601c-2.047,0-4.073,0-6.104,0
			c0.097,0.241,2.915,5.152,3.069,5.294c0.107-0.175,0.191-0.364,0.316-0.526c0.016,0.199,0.01,0.397-0.006,0.596
			c-1.132,0-2.265,0-3.397,0c-0.003-0.576-0.006-1.151-0.008-1.727c-0.001-0.135,0.004-0.27-0.001-0.405
			c-0.004-0.095,0.013-0.169,0.116-0.197c0.106-0.029,0.093-0.097,0.07-0.183c-0.1-0.377-0.194-0.756-0.29-1.134
			c-0.07,0.016-0.062,0.074-0.074,0.12c-0.085,0.33-0.166,0.661-0.255,0.99c-0.027,0.1-0.036,0.179,0.083,0.218
			c0.08,0.026,0.099,0.086,0.099,0.166c-0.006,0.718-0.009,1.436-0.013,2.153c-0.937-0.007-1.875,0.016-2.812-0.013
			c-0.005,0-0.011-0.008-0.015-0.013c-0.004-0.006-0.007-0.013-0.017-0.034c1.013-1.756,2.031-3.52,3.052-5.289
			c-0.103-0.041-0.182-0.025-0.258-0.026c-1.52-0.001-3.041,0-4.561-0.002c-0.083,0-0.171,0.027-0.247-0.032
			c0.51-0.308,1.051-0.555,1.598-0.788c0.783-0.334,1.587-0.606,2.412-0.814c0.069-0.017,0.136-0.042,0.208-0.033
			c0.006,0.058,0.034,0.108,0.062,0.157c0.205,0.356,0.406,0.714,0.62,1.065c0.078,0.128,0.126,0.279,0.239,0.385
			c0.023-0.016,0.038-0.022,0.044-0.033c0.283-0.491,0.57-0.979,0.845-1.474c0.085-0.154,0.203-0.292,0.246-0.469
			c0.22-0.064,0.45-0.058,0.675-0.078c1.028-0.091,2.055-0.06,3.08,0.045c0.056,0.006,0.111,0.022,0.166,0.033
			c0.262,0.517,0.577,1.004,0.858,1.51c0.087,0.157,0.183,0.31,0.283,0.478c0.029-0.042,0.047-0.063,0.06-0.086
			c0.276-0.469,0.552-0.939,0.825-1.409C36.051,15.57,36.051,15.523,36.06,15.482z"/>
		<path fill="#008CD6" d="M32.477,28.034c0-0.333-0.003-0.666,0.002-0.998c0.014-1.013,0.03-2.027,0.048-3.04
			c0.003-0.148-0.004-0.297,0.024-0.445c0.108,0.132,0.178,0.288,0.263,0.434c0.241,0.417,0.481,0.834,0.722,1.251
			c0.287,0.497,0.575,0.993,0.861,1.49c0.226,0.393,0.45,0.787,0.678,1.179c0.054,0.093,0.09,0.093,0.146-0.003
			c0.208-0.354,0.413-0.71,0.619-1.066c0.241-0.417,0.48-0.835,0.721-1.252c0.29-0.503,0.582-1.005,0.872-1.508
			c0.23-0.399,0.456-0.8,0.69-1.196c0.034-0.057,0.055-0.133,0.147-0.166c0.113,0.141,0.196,0.302,0.267,0.47
			c-0.148,0.13-0.159,0.158-0.084,0.324c0.059,0.129,0.131,0.252,0.196,0.378c0.058,0.112,0.066,0.216-0.051,0.301
			c-0.028,0.02-0.052,0.049-0.072,0.078c-0.085,0.115-0.071,0.181,0.044,0.265c0.069,0.05,0.181,0.054,0.211,0.131
			c0.03,0.078-0.06,0.15-0.083,0.231c-0.06,0.212,0.008,0.346,0.218,0.411c0.209,0.065,0.422,0.043,0.635,0.025
			c0.085-0.007,0.168-0.031,0.254-0.02c0.012,0.079,0.055,0.146,0.094,0.212c0.456,0.788,0.913,1.575,1.37,2.363
			c0.028,0.048,0.047,0.106,0.118,0.107c0,0.014,0,0.027,0,0.041c-0.014,0.002-0.028,0.004-0.043,0.006
			c-0.085-0.001-0.17-0.004-0.256-0.004c-1.883,0-3.766-0.001-5.65,0.001c-0.088,0-0.209-0.048-0.257,0.039
			c-0.052,0.094,0.048,0.182,0.096,0.265c0.28,0.485,0.564,0.967,0.844,1.452c0.301,0.522,0.597,1.047,0.898,1.569
			c0.361,0.627,0.724,1.252,1.086,1.877c0.089,0.168,0.089,0.168-0.09,0.172c-0.05,0.001-0.099,0-0.149,0
			c-1.825,0-3.649,0.001-5.474,0.001c-0.013-0.243-0.011-0.486,0.008-0.728c0.023-0.027,0.05-0.051,0.067-0.081
			c0.189-0.324,0.377-0.65,0.565-0.975c0.277-0.478,0.555-0.956,0.832-1.435c0.309-0.534,0.618-1.067,0.923-1.603
			c0.096-0.17,0.221-0.326,0.282-0.553C34.191,28.034,33.334,28.034,32.477,28.034z"/>
		<path fill="#015ABB" d="M23.808,17.118c0.076,0.059,0.165,0.032,0.247,0.032c1.52,0.002,3.041,0.001,4.561,0.002
			c0.076,0,0.155-0.016,0.258,0.026c-1.021,1.77-2.039,3.534-3.052,5.289c0.011,0.022,0.013,0.029,0.017,0.034
			c0.004,0.005,0.01,0.013,0.015,0.013c0.937,0.029,1.874,0.006,2.812,0.013c0.003,0.092,0.008,0.184,0.008,0.276
			c-0.001,1.184-0.003,2.368-0.004,3.552c0,0.106,0.003,0.208-0.063,0.304c-0.061,0.088-0.041,0.19,0.003,0.285
			c0.075,0.16,0.08,0.327,0.047,0.497c-0.078-0.02-0.105-0.093-0.139-0.151c-0.139-0.236-0.265-0.48-0.408-0.714
			c-0.123-0.202-0.21-0.429-0.384-0.598c0,0,0.002-0.008,0.002-0.009c-0.002-0.031-0.014-0.056-0.041-0.071
			c-0.109-0.11-0.108-0.257-0.126-0.395c-0.037-0.274-0.174-0.469-0.424-0.585c-0.012-0.033-0.021-0.068-0.038-0.098
			c-0.131-0.228-0.263-0.454-0.395-0.681c-0.26-0.448-0.518-0.897-0.779-1.344c-0.064-0.11-0.092-0.108-0.157-0.004
			c-0.011,0.018-0.02,0.038-0.03,0.056c-0.322,0.559-0.644,1.118-0.966,1.678c-0.025,0.043-0.045,0.09-0.104,0.096
			c-0.19-0.046-0.377-0.123-0.578-0.042c-0.224,0.09-0.336,0.25-0.325,0.494c0.005,0.115,0.004,0.226-0.048,0.332
			c-0.033,0.068-0.04,0.136,0.016,0.198c0.048,0.053,0.041,0.118,0.045,0.181c0.005,0.09,0.034,0.167,0.118,0.213
			c-0.013,0.067-0.057,0.125-0.05,0.197c-0.405-0.174-0.808-0.063-1.212,0.007c-0.014,0.002-0.029,0.006-0.04,0.014
			c-0.265,0.216-0.575,0.147-0.875,0.142c-0.017-0.085-0.064-0.158-0.106-0.231c-0.397-0.686-0.799-1.368-1.191-2.057
			c-0.087-0.152-0.204-0.291-0.244-0.469c0.265-0.398,0.603-0.694,1.089-0.781c0.412-0.074,0.818-0.169,1.216-0.296
			c1.083,0,2.166,0,3.266,0c-0.035-0.126-0.09-0.215-0.144-0.306c-0.129-0.22-0.259-0.439-0.386-0.66
			c-0.296-0.516-0.59-1.033-0.887-1.548c-0.35-0.607-0.699-1.216-1.055-1.819c-0.11-0.187-0.191-0.395-0.358-0.546
			C23.208,17.454,23.502,17.276,23.808,17.118z"/>
		<path fill="#015ABB" d="M38.538,23.184c-0.072-0.168-0.155-0.329-0.267-0.47c-0.092,0.034-0.113,0.109-0.147,0.166
			c-0.234,0.396-0.46,0.797-0.69,1.196c-0.29,0.503-0.582,1.005-0.872,1.508c-0.241,0.417-0.48,0.835-0.721,1.252
			c-0.205,0.356-0.411,0.711-0.619,1.066c-0.056,0.096-0.092,0.096-0.146,0.003c-0.227-0.392-0.451-0.786-0.678-1.179
			c-0.287-0.497-0.574-0.993-0.861-1.49c-0.241-0.417-0.481-0.835-0.722-1.251c-0.085-0.146-0.155-0.301-0.263-0.434
			c-0.012-0.342-0.006-0.683,0.011-1.025c4.486,0,8.973,0,13.459,0c0.05,0,0.099-0.002,0.149-0.003
			c0.348,0.475,0.638,0.985,0.914,1.503c0.494,0.925,0.904,1.886,1.208,2.891c-0.074,0.007-0.103,0.062-0.136,0.119
			c-0.15,0.263-0.305,0.523-0.454,0.786c-0.032,0.057-0.09,0.113-0.05,0.21c0.311,0,0.627,0,0.944,0
			c0.108,0.361,0.17,0.732,0.234,1.102c0.083,0.482,0.153,0.967,0.179,1.456c-0.015-0.015-0.035-0.027-0.045-0.045
			c-0.481-0.88-1.042-1.715-1.473-2.624c-0.157-0.332-0.36-0.642-0.545-0.96c-0.393-0.68-0.79-1.358-1.182-2.039
			c-0.343-0.595-0.679-1.194-1.029-1.784c-0.085-0.143-0.135-0.312-0.291-0.439c-0.206,0.345-0.408,0.682-0.609,1.02
			c-0.01-0.061-0.05-0.136,0.013-0.177c0.103-0.068,0.039-0.119-0.006-0.168c-0.06-0.065-0.103-0.132-0.1-0.225
			c0.007-0.231-0.308-0.427-0.52-0.398c-0.07,0.01-0.14,0.024-0.209,0.04c-0.284,0.067-0.397,0.309-0.263,0.568
			c0.03,0.058,0.064,0.109,0.054,0.178c-0.015,0.104,0.018,0.246-0.077,0.297c-0.105,0.056-0.187-0.07-0.268-0.132
			c-0.225-0.173-0.437-0.365-0.728-0.426c-0.035-0.007-0.07-0.014-0.103-0.025c-0.17-0.056-0.32-0.036-0.439,0.112
			c-0.119,0.149-0.258,0.148-0.434,0.095c-0.476-0.142-0.959-0.255-1.455-0.306C39.043,23.127,38.79,23.138,38.538,23.184z"/>
		<path fill="#015BBB" d="M19.244,28.034c0.056,0.241,0.107,0.484,0.169,0.724c0.088,0.341,0.235,0.654,0.463,0.926
			c0.167,0.199,0.364,0.358,0.605,0.459c0.051,0.021,0.111,0.031,0.121,0.104c0.05,0.386,0.162,0.765,0.122,1.161
			c-0.387,0.65-0.762,1.307-1.156,1.997c0.367,0,0.69,0,1.013,0c0.327,0.152,0.654,0.305,0.982,0.455
			c0.124,0.057,0.194,0.143,0.155,0.284c-0.077,0.277,0.077,0.416,0.3,0.523c0.148,0.071,0.298,0.129,0.462,0.152
			c0.298,0.043,0.578,0.14,0.836,0.296c0.163,0.099,0.251,0.314,0.211,0.496c-0.016,0.072-0.066,0.062-0.114,0.059
			c-0.233-0.016-0.467-0.033-0.7-0.052c-0.664-0.054-1.329-0.11-1.993-0.165c-0.021-0.002-0.042-0.008-0.063-0.012
			c-0.002-0.051-0.02-0.094-0.047-0.138c-0.091-0.152-0.175-0.307-0.264-0.461c-0.219-0.38-0.437-0.761-0.658-1.14
			c-0.051-0.088-0.094-0.09-0.154,0c-0.059,0.088-0.104,0.185-0.158,0.277c-0.281,0.483-0.563,0.966-0.843,1.45
			c-0.3,0.521-0.597,1.045-0.897,1.566c-0.36,0.626-0.722,1.25-1.084,1.875c-0.045,0.002-0.081-0.023-0.118-0.042
			c-0.255-0.547-0.457-1.114-0.639-1.689c-0.379-1.194-0.612-2.418-0.724-3.665c-0.002-0.021,0.002-0.042,0.003-0.064
			c1.415,0,2.83,0,4.245-0.001c0.057,0,0.113-0.004,0.17-0.008c0.007,0,0.014-0.004,0.019-0.009c0.005-0.004,0.007-0.012,0.02-0.032
			c-0.111-0.201-0.224-0.412-0.344-0.619c-0.338-0.583-0.679-1.163-1.017-1.746c-0.48-0.828-0.96-1.657-1.434-2.488
			c-0.08-0.141-0.19-0.268-0.224-0.433c0.016-0.014,0.031-0.028,0.047-0.043C17.451,28.033,18.348,28.033,19.244,28.034z"/>
		<path fill="#008CD6" d="M43.834,23.719c0.202-0.337,0.403-0.675,0.609-1.02c0.156,0.127,0.207,0.296,0.291,0.439
			c0.35,0.591,0.686,1.19,1.029,1.784c0.393,0.68,0.789,1.359,1.182,2.039c0.184,0.319,0.388,0.629,0.545,0.96
			c0.43,0.909,0.992,1.744,1.473,2.624c0.01,0.018,0.03,0.03,0.045,0.045c0.08,0.648,0.088,1.299,0.066,1.951
			c-0.01,0.29-0.015,0.58-0.062,0.868c-1.419,0-2.837,0.001-4.256,0.001c-0.067-0.116-0.11-0.241-0.137-0.371
			c0.257-0.441,0.515-0.882,0.77-1.324c0.297-0.516,0.591-1.035,0.888-1.551c0.39-0.676,0.783-1.349,1.174-2.024
			c0.014-0.023,0.028-0.051-0.012-0.11c-1.072,0-2.164,0-3.256,0c0.046-0.772,0.074-1.544,0.018-2.317
			c-0.015-0.212-0.026-0.425-0.042-0.637c-0.015-0.196-0.12-0.345-0.261-0.471c-0.117-0.104-0.228-0.214-0.307-0.351
			c-0.035-0.061-0.065-0.126-0.09-0.192c-0.03-0.077,0.003-0.122,0.085-0.131c0.014-0.002,0.028-0.001,0.042-0.002
			C43.814,23.913,43.814,23.913,43.834,23.719z"/>
		<path fill="#015BBB" d="M32.393,33.411c1.825,0,3.649-0.001,5.474-0.001c0.05,0,0.099,0.001,0.149,0
			c0.179-0.004,0.179-0.004,0.09-0.172c0.068,0,0.137,0,0.205,0c-0.089,0.168-0.089,0.168,0.089,0.172c0.042,0.001,0.085,0,0.127,0
			c1.175,0,2.351,0,3.526,0.001c0.076,0,0.157-0.022,0.227,0.029c-0.167,0.122-0.365,0.148-0.561,0.173
			c-0.083,0.011-0.122,0.028-0.124,0.123c-0.012,0.4-0.015,0.4,0.389,0.393c0.106-0.002,0.211,0,0.328,0
			c0.017,0.112-0.039,0.193-0.09,0.273c-0.125,0.195-0.3,0.338-0.493,0.461c-0.295,0.188-0.617,0.317-0.951,0.414
			c-0.456,0.131-0.917,0.239-1.393,0.272c-0.35-0.615-0.7-1.23-1.052-1.844c-0.051-0.09-0.09-0.091-0.155-0.006
			c-0.026,0.033-0.043,0.073-0.065,0.11c-0.251,0.435-0.504,0.869-0.753,1.305c-0.126,0.221-0.269,0.432-0.371,0.666
			c-0.56,0.031-1.121,0.075-1.682,0.09c-0.646,0.017-1.292,0.065-1.94,0.046c-0.004-0.042-0.009-0.083-0.032-0.121
			c-0.146-0.249-0.285-0.503-0.436-0.749c-0.177-0.288-0.318-0.596-0.518-0.87C32.372,33.921,32.374,33.666,32.393,33.411z"/>
		<path fill="#018CD5" d="M22.921,17.645c0.167,0.151,0.247,0.359,0.358,0.546c0.357,0.603,0.705,1.212,1.055,1.819
			c0.297,0.515,0.591,1.033,0.887,1.548c0.127,0.221,0.257,0.44,0.386,0.66c0.053,0.091,0.108,0.18,0.144,0.306
			c-1.1,0-2.183,0-3.266,0c0.075-0.038,0.15-0.079,0.226-0.115c0.379-0.182,0.615-0.493,0.78-0.868
			c0.017-0.039,0.033-0.079,0.011-0.126c-0.058,0.006-0.073,0.059-0.093,0.097c-0.307,0.604-0.852,0.845-1.474,0.966
			c-0.138,0.027-0.277,0.065-0.421,0.052c-0.135-0.001-0.27-0.004-0.404-0.004c-1.064-0.001-2.128-0.002-3.192-0.003
			c0.264-0.441,0.575-0.846,0.91-1.235c0.061,0.04,0.098,0.099,0.134,0.162c0.184,0.327,0.371,0.653,0.558,0.979
			c0.009,0.015,0.033,0.021,0.061,0.038c0.119-0.206,0.234-0.407,0.351-0.608c0.337-0.583,0.674-1.165,1.011-1.748
			c0.287-0.497,0.575-0.994,0.862-1.49c0.053-0.092,0.119-0.177,0.125-0.289C22.236,18.069,22.573,17.85,22.921,17.645z"/>
		<path fill="#015ABB" d="M41.048,17.576c-0.309,0.533-0.618,1.066-0.926,1.6c-0.28,0.485-0.558,0.971-0.837,1.456
			c-0.338,0.59-0.677,1.18-1.015,1.771c-0.014,0.025-0.029,0.049-0.081,0.063c-1.015-1.758-2.033-3.521-3.068-5.314
			c0.108,0,0.184,0,0.259,0c1.556,0,3.112,0,4.667,0c0.092,0,0.185-0.003,0.277-0.004C40.576,17.271,40.818,17.413,41.048,17.576z"
			/>
		<path fill="#015ABB" d="M32.344,21.931c-0.125,0.163-0.209,0.351-0.316,0.526c-0.154-0.142-2.971-5.053-3.069-5.294
			c2.031,0,4.057,0,6.104,0c-0.089,0.223-0.217,0.408-0.328,0.601c-0.24,0.418-0.482,0.834-0.723,1.251
			c-0.344,0.595-0.687,1.19-1.031,1.785c-0.135,0.233-0.271,0.465-0.406,0.698c-0.021-0.32,0.017-0.639,0.011-0.959
			c-0.002-0.091,0.059-0.121,0.124-0.151c0.067-0.031,0.089-0.072,0.068-0.151c-0.099-0.37-0.19-0.743-0.285-1.114
			c-0.007-0.025-0.027-0.047-0.05-0.084c-0.103,0.401-0.199,0.786-0.302,1.17c-0.026,0.096,0.003,0.151,0.09,0.18
			c0.132,0.043,0.155,0.137,0.151,0.264C32.367,21.079,32.383,21.506,32.344,21.931z"/>
		<path fill="#008CD6" d="M16.507,28.075c0.034,0.165,0.144,0.292,0.224,0.433c0.475,0.831,0.955,1.66,1.434,2.488
			c0.338,0.583,0.68,1.163,1.017,1.746c0.12,0.207,0.232,0.418,0.344,0.619c-0.012,0.021-0.015,0.028-0.02,0.032
			c-0.005,0.004-0.013,0.008-0.019,0.009c-0.057,0.003-0.113,0.008-0.17,0.008c-1.415,0.001-2.83,0.001-4.245,0.001
			c-0.08-0.699-0.087-1.399-0.052-2.101c0.016-0.325,0.017-0.651,0.086-0.972c0.07-0.035,0.088-0.108,0.123-0.168
			c0.084-0.147,0.166-0.296,0.251-0.442c0.319-0.549,0.648-1.093,0.948-1.653C16.455,28.075,16.481,28.075,16.507,28.075z"/>
		<path fill="#038DD4" d="M16.551,38.869c0.361-0.625,0.724-1.249,1.084-1.875c0.3-0.521,0.596-1.045,0.897-1.566
			c0.279-0.484,0.562-0.967,0.843-1.45c0.053-0.092,0.099-0.189,0.158-0.277c0.061-0.09,0.103-0.088,0.154,0
			c0.22,0.379,0.439,0.76,0.658,1.14c0.088,0.153,0.172,0.309,0.264,0.461c0.027,0.044,0.045,0.087,0.047,0.138
			c-0.247-0.019-0.495-0.038-0.742-0.056c-0.105-0.007-0.21-0.028-0.331-0.003c0.076,0.337,0.151,0.668,0.226,0.998
			c0.022,0.097,0.047,0.193,0.07,0.29c0.045,0.192,0.044,0.194,0.243,0.225c0.301,0.047,0.603,0.097,0.905,0.135
			c0.098,0.012,0.151,0.049,0.185,0.141c0.066,0.18,0.147,0.354,0.211,0.534c0.041,0.116,0.111,0.187,0.222,0.237
			c0.239,0.107,0.474,0.223,0.711,0.336c0.076,0.236,0.237,0.427,0.343,0.647c-0.076,0.027-0.155,0.014-0.233,0.014
			c-1.92,0.001-3.839,0.001-5.759-0.001c-0.075,0-0.156,0.029-0.225-0.027C16.512,38.91,16.539,38.902,16.551,38.869z"/>
		<path fill="#015BBB" d="M44.757,33.411c1.419,0,2.837-0.001,4.256-0.001c-0.024,0.49-0.093,0.976-0.174,1.459
			c-0.225,1.344-0.613,2.641-1.147,3.894c-0.029,0.068-0.027,0.183-0.155,0.162c-0.273-0.481-0.544-0.964-0.819-1.444
			c-0.342-0.597-0.683-1.194-1.033-1.787c-0.165-0.28-0.31-0.573-0.503-0.837C45.089,34.361,44.915,33.888,44.757,33.411z"/>
		<path fill="#018CD5" d="M45.182,34.857c0.193,0.264,0.338,0.557,0.503,0.837c0.35,0.592,0.691,1.19,1.033,1.787
			c0.275,0.48,0.546,0.962,0.819,1.444c-0.061,0.027-0.126,0.015-0.189,0.015c-1.923,0.001-3.847,0.001-5.77,0
			c-0.063,0-0.128,0.01-0.19-0.015c0.045-0.157,0.147-0.286,0.211-0.433c0.364-0.119,0.736-0.209,1.095-0.344
			c0.38-0.142,0.754-0.298,1.094-0.519c0.639-0.417,1.108-0.968,1.324-1.714c0.081-0.277,0.086-0.56,0.076-0.844
			C45.185,34.999,45.184,34.928,45.182,34.857z"/>
		<path fill="#015BBB" d="M44.185,28.03c1.092,0,2.184,0,3.256,0c0.04,0.059,0.025,0.086,0.012,0.11
			c-0.391,0.675-0.784,1.349-1.174,2.024c-0.298,0.516-0.591,1.035-0.888,1.551c-0.255,0.442-0.513,0.883-0.77,1.324
			c-0.266-0.706-0.42-1.427-0.292-2.184c0.038-0.227,0.125-0.436,0.284-0.609c0.042-0.046,0.099-0.085,0.062-0.163
			c-0.037-0.078-0.096-0.126-0.181-0.127c-0.12-0.001-0.241,0.007-0.361,0.015c-0.141,0.009-0.282,0.022-0.412,0.033
			c-0.044-0.043-0.026-0.075-0.013-0.106c0.248-0.586,0.392-1.198,0.462-1.829C44.172,28.056,44.18,28.043,44.185,28.03z"/>
		<path fill="#015BBB" d="M17.917,22.524c1.064,0.001,2.128,0.002,3.192,0.003c0.135,0,0.269,0.002,0.404,0.004
			c-0.171,0.042-0.344,0.08-0.514,0.128c-0.404,0.113-0.766,0.296-1.029,0.638c-0.089-0.162-0.175-0.325-0.268-0.484
			c-0.068-0.116-0.099-0.115-0.173-0.006c-0.036,0.053-0.069,0.107-0.101,0.162c-0.252,0.436-0.504,0.872-0.756,1.308
			c-0.277,0.479-0.554,0.958-0.831,1.437c-0.305,0.528-0.611,1.055-0.912,1.586c-0.129,0.227-0.286,0.439-0.376,0.688
			c-0.066,0.003-0.101-0.036-0.13-0.09c-0.07-0.13-0.138-0.261-0.216-0.386c-0.133-0.213-0.233-0.447-0.398-0.641
			c0.351-1.136,0.829-2.217,1.417-3.25C17.441,23.246,17.657,22.871,17.917,22.524z"/>
		<path fill="#008CD6" d="M42.28,33.439c-0.07-0.051-0.151-0.028-0.227-0.029c-1.175-0.001-2.351-0.001-3.526-0.001
			c-0.042,0-0.085,0.001-0.127,0c-0.178-0.004-0.178-0.004-0.089-0.172c0.423-0.731,0.847-1.46,1.267-2.192
			c0.513-0.891,1.022-1.785,1.536-2.676c0.063-0.109,0.11-0.233,0.231-0.299c0.134,0.302,0.328,0.572,0.476,0.866
			c-0.115,0.213-0.267,0.393-0.443,0.561c-0.173,0.165-0.312,0.364-0.465,0.55c-0.23,0.281-0.456,0.564-0.588,0.908
			c-0.077,0.199-0.079,0.199,0.09,0.336c0.215,0.175,0.444,0.33,0.689,0.463c0.219,0.119,0.425,0.258,0.625,0.405
			c0.101,0.074,0.152,0.151,0.132,0.284c-0.024,0.158-0.013,0.161,0.146,0.222c0.127,0.048,0.25,0.103,0.359,0.184
			c0.227,0.167,0.234,0.334,0.021,0.522C42.356,33.4,42.316,33.417,42.28,33.439z"/>
		<path fill="#015BBB" d="M28.94,22.527c1.132,0,2.265,0,3.397,0c0.013,0.199,0.012,0.397-0.006,0.596
			c-0.077-0.093-0.132-0.199-0.189-0.305c-0.074-0.138-0.1-0.139-0.175-0.011c-0.129,0.219-0.252,0.441-0.379,0.661
			c-0.35,0.604-0.701,1.208-1.051,1.812c-0.088-0.11-0.199-0.146-0.339-0.122c-0.141,0.024-0.28,0.051-0.41,0.11
			c-0.216,0.099-0.29,0.243-0.251,0.482c0.011,0.07,0.02,0.142,0.044,0.208c0.039,0.109,0.012,0.181-0.077,0.259
			c-0.137,0.12-0.125,0.167,0.018,0.283c0.065,0.052,0.169,0.065,0.146,0.201c-0.037,0.219-0.026,0.222-0.253,0.264
			c-0.069,0.013-0.139,0.026-0.203,0.038c-0.034-0.021-0.037-0.049-0.03-0.077c0.039-0.165,0.001-0.293-0.167-0.365
			c-0.1-0.043-0.088-0.133-0.088-0.219c0.001-0.597,0.001-1.193,0.001-1.79c0-0.604,0.001-1.208,0.002-1.811
			C28.931,22.668,28.937,22.597,28.94,22.527z"/>
		<path fill="#018CD5" d="M16.554,27.987c0.09-0.249,0.247-0.461,0.376-0.688c0.301-0.531,0.607-1.058,0.912-1.586
			c0.276-0.479,0.554-0.958,0.831-1.437c0.252-0.436,0.503-0.872,0.756-1.308c0.032-0.055,0.065-0.11,0.101-0.162
			c0.074-0.109,0.105-0.11,0.173,0.006c0.093,0.159,0.179,0.323,0.268,0.484c-0.45,0.707-0.608,1.506-0.727,2.318
			c-0.013,0.091-0.026,0.183-0.039,0.274c-0.005,0.035,0.001,0.077-0.029,0.099c-0.202,0.15-0.156,0.381-0.194,0.584
			c-0.01,0.053-0.017,0.133,0.049,0.148c0.128,0.029,0.12,0.12,0.12,0.211c0,0.37,0.074,0.734,0.094,1.103
			c-0.897-0.001-1.793-0.002-2.69-0.002C16.554,28.017,16.554,28.002,16.554,27.987z"/>
		<path fill="#038DD4" d="M30.538,25.279c0.35-0.604,0.701-1.207,1.051-1.812c0.127-0.22,0.25-0.442,0.379-0.661
			c0.075-0.128,0.101-0.126,0.175,0.011c0.057,0.106,0.112,0.212,0.189,0.305c0.017,0.404,0,0.808-0.007,1.212
			c-0.023,1.177-0.049,2.354-0.074,3.531c-0.001,0.056-0.008,0.113-0.013,0.169c-0.2,0.002-0.399,0.005-0.599,0.007
			c-0.279-0.452-0.662-0.791-1.129-1.036c-0.078-0.041-0.094-0.09-0.082-0.17c0.013-0.086,0.052-0.108,0.13-0.074
			c0.032,0.014,0.066,0.026,0.101,0.031c0.105,0.015,0.161-0.024,0.182-0.129c0.016-0.079-0.001-0.155-0.03-0.229
			c-0.031-0.08-0.052-0.161-0.059-0.247c-0.004-0.046-0.004-0.088,0.043-0.108c0.107-0.046,0.067-0.12,0.02-0.169
			C30.641,25.733,30.606,25.5,30.538,25.279z"/>
		<path fill="#038DD4" d="M24.668,24.622c0.059-0.006,0.079-0.053,0.104-0.096c0.322-0.559,0.644-1.119,0.966-1.678
			c0.011-0.018,0.019-0.038,0.03-0.056c0.065-0.105,0.092-0.106,0.157,0.004c0.261,0.447,0.52,0.896,0.779,1.344
			c0.132,0.227,0.264,0.454,0.395,0.681c0.017,0.03,0.026,0.065,0.038,0.098c-0.035,0.003-0.071,0.003-0.106,0.008
			c-0.35,0.048-0.47,0.182-0.471,0.533c0,0.129-0.011,0.253-0.06,0.376c-0.073,0.184-0.014,0.366,0.15,0.485
			c0.05,0.036,0.123,0.047,0.111,0.135c-0.012,0.078-0.061,0.129-0.125,0.162c-0.202,0.106-0.416,0.184-0.632,0.253
			c-0.132,0.042-0.189,0.101-0.199,0.25c-0.021,0.305-0.028,0.61-0.046,0.915c-0.034,0-0.067,0-0.101,0
			c-0.006-0.247-0.052-0.49-0.049-0.739c0.004-0.327-0.22-0.52-0.481-0.672c-0.036-0.021-0.079-0.031-0.119-0.044
			c-0.243-0.081-0.273-0.123-0.286-0.378c-0.004-0.085,0.005-0.149,0.104-0.178c0.08-0.024,0.117-0.098,0.142-0.175
			c0.041-0.129,0.061-0.261,0.072-0.395c0.003-0.043,0.007-0.096-0.025-0.122c-0.124-0.099-0.116-0.24-0.134-0.375
			C24.862,24.813,24.759,24.72,24.668,24.622z"/>
		<path fill="#015BBB" d="M32.477,28.034c0.857,0,1.713,0,2.592,0c-0.061,0.227-0.186,0.384-0.282,0.553
			c-0.304,0.536-0.614,1.07-0.923,1.603c-0.277,0.479-0.554,0.957-0.832,1.435c-0.188,0.325-0.376,0.65-0.565,0.975
			c-0.017,0.03-0.045,0.054-0.067,0.081c-0.003-0.049-0.008-0.099-0.007-0.148c0.015-0.986,0.031-1.973,0.047-2.959
			c0.001-0.071,0.011-0.142,0.008-0.213c-0.006-0.118,0.034-0.2,0.141-0.259c0.06-0.033,0.111-0.089,0.154-0.144
			c0.088-0.11,0.102-0.233,0.025-0.356c-0.076-0.12-0.153-0.239-0.237-0.353C32.483,28.183,32.45,28.118,32.477,28.034z"/>
		<path fill="#015BBB" d="M41.387,27.99c-0.071-0.001-0.09-0.059-0.118-0.107c-0.457-0.787-0.915-1.574-1.37-2.363
			c-0.039-0.067-0.082-0.133-0.094-0.212c0.138-0.03,0.276-0.059,0.414-0.091c0.166-0.038,0.337-0.079,0.474-0.178
			c0.205-0.149,0.388-0.081,0.568,0.027c0.133,0.079,0.258,0.174,0.379,0.271c0.15,0.119,0.319,0.18,0.508,0.185
			c0.127,0.003,0.255,0.005,0.382,0.007c0.078,0.002,0.157-0.003,0.223,0.048c-0.169,0.374-0.403,0.713-0.602,1.07
			C41.902,27.096,41.642,27.542,41.387,27.99z"/>
		<path fill="#015BBB" d="M45.186,21.202c-0.194,0.237-0.317,0.517-0.474,0.777c-0.098,0.161-0.191,0.326-0.301,0.515
			c-0.192-0.329-0.366-0.626-0.538-0.923c-0.287-0.496-0.573-0.993-0.86-1.489c-0.241-0.417-0.482-0.833-0.723-1.249
			c-0.088-0.153-0.172-0.309-0.263-0.461c-0.031-0.052-0.049-0.101-0.04-0.16c0.059,0.01,0.098,0.054,0.143,0.087
			c1.112,0.818,2.11,1.758,2.994,2.818C45.148,21.144,45.166,21.174,45.186,21.202z"/>
		<path fill="#015BBB" d="M21.929,18.333c-0.006,0.112-0.072,0.197-0.125,0.289c-0.288,0.497-0.575,0.993-0.862,1.49
			c-0.337,0.583-0.674,1.165-1.011,1.748c-0.116,0.201-0.232,0.403-0.351,0.608c-0.028-0.017-0.052-0.023-0.061-0.038
			c-0.187-0.325-0.374-0.651-0.558-0.979c-0.035-0.063-0.072-0.122-0.134-0.162c0.663-0.838,1.415-1.589,2.229-2.279
			C21.337,18.773,21.616,18.531,21.929,18.333z"/>
		<path fill="#038DD4" d="M20.179,23.601c0.04,0.178,0.157,0.316,0.244,0.469c0.392,0.689,0.794,1.371,1.191,2.057
			c0.042,0.073,0.089,0.145,0.106,0.231c-0.071,0.013-0.144,0.026-0.2-0.033c-0.082-0.086-0.185-0.092-0.294-0.096
			c-0.156-0.005-0.312-0.017-0.468-0.027c-0.1-0.006-0.193,0.017-0.29,0.041c-0.253,0.062-0.512,0.034-0.749-0.061
			c-0.109-0.043-0.195-0.187-0.181-0.313c0.087-0.77,0.213-1.532,0.599-2.223C20.146,23.629,20.165,23.616,20.179,23.601z"/>
		<path fill="#018CD5" d="M36.991,35.78c0.102-0.234,0.245-0.445,0.371-0.666c0.248-0.437,0.502-0.87,0.753-1.305
			c0.021-0.037,0.039-0.076,0.065-0.11c0.065-0.084,0.103-0.084,0.155,0.006c0.351,0.614,0.701,1.229,1.052,1.844
			c-0.231,0.067-0.472,0.073-0.709,0.099C38.116,35.707,37.554,35.757,36.991,35.78z"/>
		<path fill="#038DD4" d="M28.378,28.956c0.092,0.005,0.183,0.009,0.275,0.014c0.037,0.06,0.021,0.125,0.021,0.188
			c0.001,0.802,0.018,1.604-0.006,2.405c-0.014,0.439-0.038,0.878-0.032,1.317c0.002,0.177,0.036,0.353,0.01,0.53
			c-0.187,0-0.373,0.001-0.56,0.001c0.031-0.423,0.057-0.846,0.094-1.269c0.065-0.755,0.094-1.511,0.088-2.268
			c-0.002-0.207-0.045-0.406-0.098-0.604C28.268,29.185,28.303,29.057,28.378,28.956z"/>
		<path fill="#038DD4" d="M19.543,28.035c-0.078-0.391-0.089-0.787-0.069-1.184c0.005-0.096,0.061-0.123,0.139-0.12
			c0.07,0.002,0.144,0.007,0.209,0.031c0.584,0.212,1.167,0.429,1.772,0.653c-0.153,0.216-0.295,0.417-0.438,0.618
			C20.618,28.034,20.08,28.034,19.543,28.035z"/>
		<path fill="#015BBB" d="M30.083,15.112c-0.043,0.176-0.16,0.315-0.246,0.469c-0.275,0.495-0.562,0.984-0.845,1.474
			c-0.006,0.011-0.022,0.017-0.044,0.033c-0.113-0.106-0.161-0.257-0.239-0.385c-0.214-0.35-0.415-0.709-0.62-1.065
			c-0.028-0.049-0.057-0.099-0.062-0.157c0.369-0.122,0.753-0.179,1.134-0.246C29.466,15.182,29.772,15.124,30.083,15.112z"/>
		<path fill="#015BBB" d="M36.06,15.482c-0.009,0.041-0.009,0.088-0.029,0.122c-0.273,0.471-0.549,0.94-0.825,1.409
			c-0.014,0.023-0.031,0.045-0.06,0.086c-0.1-0.169-0.196-0.321-0.283-0.478c-0.282-0.506-0.596-0.993-0.858-1.51
			c0.424,0.027,0.84,0.104,1.255,0.184C35.529,15.347,35.802,15.385,36.06,15.482z"/>
		<path fill="#025BBB" d="M28.086,33.411c0.187,0,0.373-0.001,0.56-0.001c0.032,0.219,0.029,0.438,0.004,0.656
			c-0.033,0.282-0.056,0.564-0.052,0.848c0.001,0.098-0.012,0.198,0.06,0.284c0.033,0.039,0.017,0.096,0.017,0.145
			c0.001,0.149,0.002,0.298-0.001,0.446c-0.002,0.084-0.006,0.084-0.135,0.093c-0.024-0.015-0.013-0.034-0.005-0.052
			c0.063-0.144,0.053-0.17-0.094-0.192c-0.133-0.02-0.268-0.017-0.4-0.048c-0.303-0.072-0.446-0.258-0.419-0.567
			c0.02-0.226,0.053-0.45,0.073-0.676c0.01-0.11,0.043-0.165,0.17-0.153c0.145,0.013,0.147,0.001,0.162-0.149
			C28.046,33.833,28.066,33.622,28.086,33.411z"/>
		<path fill="#025BBB" d="M19.543,28.035c0.538-0.001,1.075-0.001,1.613-0.002c-0.111,0.197-0.226,0.393-0.333,0.593
			c-0.203,0.381-0.355,0.775-0.285,1.221c0.002,0.01-0.011,0.023-0.018,0.034C20.058,29.646,19.579,28.742,19.543,28.035z"/>
		<path fill="#038DD4" d="M32.13,33.667c-0.001,0.439-0.001,0.878-0.004,1.318c-0.001,0.269-0.009,0.539-0.007,0.808
			c0.001,0.106-0.025,0.162-0.143,0.15c-0.07-0.007-0.142,0.001-0.212,0.002c-0.107,0.003-0.221,0.026-0.203-0.151
			c0.007-0.063-0.058-0.089-0.121-0.094c-0.099-0.008-0.198-0.015-0.296-0.029c-0.097-0.014-0.198-0.029-0.254-0.127
			c0.035-0.044,0.075-0.085,0.103-0.134c0.237-0.41,0.472-0.821,0.708-1.232c0.092-0.159,0.187-0.316,0.276-0.477
			C32.018,33.625,32.066,33.623,32.13,33.667z"/>
		<path fill="#038DD4" d="M41.387,27.99c0.256-0.448,0.515-0.894,0.766-1.344c0.199-0.357,0.433-0.696,0.602-1.07
			c0.133,0.129,0.242,0.277,0.337,0.434c0.135,0.222,0.116,0.332-0.073,0.502c-0.037,0.033-0.074,0.067-0.115,0.095
			c-0.289,0.191-0.44,0.472-0.533,0.795c-0.06,0.21-0.086,0.43-0.173,0.633c-0.27-0.001-0.541-0.002-0.811-0.003
			C41.387,28.018,41.387,28.004,41.387,27.99z"/>
		<path fill="#025BBB" d="M16.429,28.075c-0.301,0.56-0.629,1.104-0.948,1.653c-0.085,0.146-0.167,0.295-0.251,0.442
			c-0.035,0.061-0.053,0.133-0.123,0.168c0.005-0.356,0.071-0.705,0.126-1.055c0.067-0.42,0.139-0.84,0.258-1.249
			c0.246,0,0.493-0.001,0.739,0.001C16.298,28.035,16.373,28.013,16.429,28.075z"/>
		<path fill="#038DD4" d="M26.575,34.813c0.002,0.042,0.016,0.087,0.005,0.126c-0.062,0.231-0.062,0.461-0.016,0.694
			c0.02,0.099-0.029,0.13-0.118,0.113c-0.216-0.04-0.439-0.026-0.653-0.084c0.097-0.182,0.102-0.188-0.062-0.307
			c-0.075-0.054-0.091-0.114-0.094-0.196c-0.004-0.16,0.033-0.31,0.097-0.454c0.069-0.155,0.142-0.309,0.218-0.461
			c0.07-0.14,0.072-0.139,0.244-0.108C26.29,34.38,26.449,34.588,26.575,34.813z"/>
		<path fill="#025BBB" d="M25.658,28.034c0.034,0,0.067,0,0.101,0c0.019,0.212,0.018,0.425,0.051,0.637
			c0.045,0.291,0.128,0.555,0.416,0.701c0.067,0.034,0.105,0.078,0.077,0.17c-0.113,0.376-0.15,0.765-0.181,1.155
			c-0.003,0.035,0.002,0.072-0.028,0.106c-0.091-0.006-0.166-0.064-0.251-0.094c-0.051-0.019-0.075-0.06-0.086-0.113
			c-0.022-0.111-0.065-0.222-0.067-0.333c-0.007-0.455-0.079-0.906-0.092-1.361C25.59,28.611,25.591,28.321,25.658,28.034z"/>
		<path fill="#025BBB" d="M32.13,33.667c-0.064-0.043-0.111-0.042-0.153,0.035c-0.088,0.161-0.184,0.318-0.276,0.477
			c-0.236,0.411-0.47,0.822-0.708,1.232c-0.028,0.048-0.068,0.089-0.103,0.134c-0.135-0.159-0.071-0.334-0.038-0.506
			c0.012-0.06,0.064-0.082,0.112-0.079c0.151,0.009,0.167-0.087,0.183-0.203c0.056-0.401,0.119-0.801,0.181-1.201
			c0.008-0.049,0.024-0.096,0.036-0.145c0.106,0,0.211,0.004,0.316-0.002c0.087-0.006,0.206,0.048,0.254-0.04
			c0.054-0.099-0.065-0.172-0.104-0.257c0.05-0.026,0.099-0.052,0.149-0.079c0.052-0.028,0.09-0.069,0.098-0.13
			c0.028-0.226,0.056-0.452,0.072-0.585c0.024,0.244,0.024,0.583-0.013,0.921c-0.109,0.109-0.109,0.128-0.003,0.17
			C32.153,33.494,32.15,33.581,32.13,33.667z"/>
		<path fill="#038DD4" d="M32.384,34.176c0.2,0.274,0.341,0.582,0.518,0.87c0.151,0.246,0.29,0.5,0.436,0.749
			c0.023,0.039,0.028,0.079,0.032,0.121c-0.304,0.006-0.608,0.011-0.911,0.02c-0.098,0.003-0.118-0.042-0.116-0.128
			C32.353,35.264,32.346,34.719,32.384,34.176z"/>
		<path fill="#038DD4" d="M27.728,25.978c0.175,0.169,0.261,0.396,0.384,0.598c0.143,0.234,0.268,0.478,0.408,0.714
			c0.034,0.057,0.06,0.131,0.139,0.151c-0.037,0.137-0.103,0.261-0.174,0.382c-0.072-0.037-0.066-0.111-0.092-0.166
			c-0.036-0.076-0.067-0.156-0.096-0.235c-0.121-0.338-0.359-0.55-0.696-0.659c-0.076-0.024-0.181-0.024-0.165-0.15
			c0.015-0.114-0.061-0.259,0.121-0.317C27.707,26.248,27.76,26.132,27.728,25.978z"/>
		<path fill="#038DD4" d="M20.58,33.405c-0.323,0-0.646,0-1.013,0c0.394-0.69,0.77-1.347,1.156-1.997
			c0.011,0.167-0.039,0.321-0.1,0.473c-0.151,0.375-0.278,0.758-0.393,1.145c-0.045,0.152-0.041,0.152,0.094,0.23
			C20.41,33.305,20.506,33.336,20.58,33.405z"/>
		<path fill="#038DD4" d="M16.429,28.075c-0.057-0.061-0.131-0.04-0.199-0.04c-0.246-0.002-0.493-0.001-0.739-0.001
			c0.071-0.397,0.184-0.783,0.319-1.162c0.165,0.193,0.265,0.427,0.398,0.641c0.078,0.125,0.146,0.256,0.216,0.386
			c0.029,0.053,0.064,0.092,0.13,0.09c0,0.015,0,0.03,0.001,0.044c-0.016,0.014-0.031,0.028-0.047,0.043
			C16.481,28.075,16.455,28.075,16.429,28.075z"/>
		<path fill="#038DD4" d="M48.596,28.033c-0.317,0-0.633,0-0.944,0c-0.04-0.097,0.018-0.153,0.05-0.21
			c0.148-0.264,0.304-0.524,0.454-0.786c0.033-0.057,0.061-0.112,0.136-0.119C48.421,27.282,48.531,27.651,48.596,28.033z"/>
		<path fill="#038DD4" d="M41.599,38.492c-0.065,0.147-0.166,0.277-0.211,0.433c-0.083,0.028-0.169,0.014-0.254,0.015
			c-0.49,0.001-0.98,0.002-1.47,0c-0.172-0.001-0.345,0.017-0.439-0.009c0.107-0.019,0.288-0.057,0.472-0.082
			C40.337,38.762,40.967,38.623,41.599,38.492z"/>
		<path fill="#025BBB" d="M41.387,28.031c0.27,0.001,0.541,0.002,0.811,0.003c-0.063,0.327-0.183,0.631-0.378,0.903
			c-0.148-0.295-0.342-0.564-0.476-0.866c-0.001-0.011-0.001-0.022-0.001-0.033C41.358,28.035,41.372,28.033,41.387,28.031z"/>
		<path fill="#038DD4" d="M22.964,38.513c0.464,0.141,0.927,0.289,1.397,0.415c-0.528,0.001-1.053,0.032-1.579-0.003
			C22.807,38.772,22.946,38.669,22.964,38.513z"/>
		<path fill="#025BBB" d="M22.964,38.513c-0.018,0.156-0.156,0.259-0.182,0.412c-0.028,0.015-0.056,0.015-0.085,0
			c-0.107-0.22-0.267-0.411-0.343-0.647C22.561,38.346,22.765,38.423,22.964,38.513z"/>
		<path fill="#025BBB" d="M31.638,28.042c0.2-0.002,0.399-0.005,0.599-0.007c-0.041,0.17-0.178,0.306-0.331,0.325
			c-0.076,0.01-0.138-0.011-0.17-0.088C31.704,28.195,31.671,28.118,31.638,28.042z"/>
		<path fill="#038DD4" d="M31.831,33.11c0.04,0.086,0.159,0.158,0.104,0.257c-0.048,0.088-0.167,0.035-0.254,0.04
			c-0.105,0.007-0.211,0.002-0.316,0.002c0.012-0.207,0.012-0.207,0.199-0.248C31.652,33.144,31.741,33.128,31.831,33.11z"/>
		<path fill="#025BBB" d="M26.575,34.813c-0.126-0.225-0.285-0.432-0.379-0.676c0.419,0.014,0.343,0,0.378,0.358
			C26.585,34.6,26.575,34.707,26.575,34.813z"/>
		<path fill="#025BBB" d="M28.378,28.956c-0.075,0.101-0.11,0.229-0.209,0.314c-0.08-0.131-0.049-0.267-0.035-0.427
			C28.229,28.887,28.304,28.921,28.378,28.956z"/>
		<path fill="#038DD4" d="M23.847,26.194c-0.007-0.071,0.037-0.13,0.05-0.197c0.109,0.012,0.185,0.055,0.184,0.181
			c-0.001,0.102-0.027,0.123-0.127,0.08C23.916,26.242,23.882,26.216,23.847,26.194z"/>
		<path fill="#038DD4" d="M32.134,33.408c-0.106-0.042-0.106-0.061,0.003-0.17C32.153,33.295,32.152,33.351,32.134,33.408z"/>
		<path fill="#025BBB" d="M16.551,38.869c-0.013,0.032-0.04,0.041-0.071,0.042c-0.033-0.018-0.049-0.046-0.047-0.084
			C16.471,38.847,16.506,38.871,16.551,38.869z"/>
		<path fill="#038DD4" d="M27.688,25.898c0.027,0.016,0.039,0.041,0.041,0.071C27.699,25.955,27.69,25.928,27.688,25.898z"/>
		<path fill="#015BBB" d="M41.99,18.217c-0.024-0.005-0.041-0.019-0.05-0.041C41.966,18.178,41.985,18.189,41.99,18.217z"/>
		<path fill="#FFFEF9" d="M5.048,36.881c0.067-0.358,0.226-0.671,0.448-0.951c0.309-0.389,0.702-0.656,1.18-0.797
			c0.158-0.047,0.176-0.035,0.177,0.125c0.002,0.497,0,0.993,0.002,1.49c0,0.098-0.014,0.158-0.137,0.157
			c-0.532-0.006-1.064-0.003-1.596-0.004C5.102,36.899,5.082,36.889,5.048,36.881z"/>
		<path fill="#FFFEF9" d="M5.056,37.886c0.378,0,0.74,0,1.102,0c0.178,0,0.356-0.002,0.533,0.001
			c0.157,0.002,0.161,0.004,0.162,0.15c0.002,0.505,0.002,1.01,0,1.515c-0.001,0.134-0.012,0.141-0.134,0.109
			C5.73,39.395,5.155,38.55,5.056,37.886z"/>
		<path fill="#FFFEF9" d="M7.859,35.122c0.675,0.045,1.643,0.837,1.761,1.761C9.539,36.917,9.453,36.9,9.37,36.9
			c-0.454,0.002-0.907,0.002-1.361,0C7.85,36.9,7.845,36.897,7.845,36.755c-0.002-0.517-0.001-1.035,0-1.552
			C7.845,35.176,7.854,35.148,7.859,35.122z"/>
		<path fill="#FEFEFE" d="M7.87,39.666c-0.034-0.035-0.025-0.079-0.025-0.12c-0.001-0.497-0.001-0.994,0-1.491
			c0.001-0.164,0.004-0.167,0.163-0.168c0.504-0.002,1.008-0.001,1.512,0c0.035,0,0.071-0.002,0.101,0.021
			C9.487,38.799,8.614,39.565,7.87,39.666z"/>
		<path fill="#FFFEF9" d="M59.023,36.886c-0.11,0.029-0.209,0.014-0.308,0.015c-0.441,0.002-0.881,0.002-1.322,0
			c-0.157-0.001-0.162-0.004-0.162-0.149c-0.002-0.505-0.002-1.009,0-1.514c0.001-0.131,0.018-0.141,0.135-0.117
			C58.129,35.274,58.895,36.083,59.023,36.886z"/>
		<path fill="#FFFEF9" d="M59.002,37.903c0.028,0.067,0.004,0.128-0.016,0.187c-0.267,0.789-0.796,1.312-1.593,1.559
			c-0.151,0.047-0.161,0.039-0.162-0.113c-0.002-0.505,0.001-1.009-0.002-1.514c-0.001-0.099,0.031-0.139,0.135-0.138
			c0.526,0.004,1.052,0.003,1.578,0.004C58.961,37.889,58.982,37.898,59.002,37.903z"/>
		<path fill="#FFFEF9" d="M56.241,35.118c0,0.436,0,0.854,0,1.272c0,0.135-0.001,0.27,0,0.405c0,0.067-0.022,0.107-0.097,0.107
			c-0.56-0.001-1.12,0-1.681,0C54.5,36.132,55.454,35.17,56.241,35.118z"/>
		<path fill="#FEFEFE" d="M56.226,39.673c-0.818-0.136-1.622-0.897-1.769-1.753c0.021-0.037,0.059-0.031,0.092-0.032
			c0.512-0.001,1.024-0.002,1.536,0c0.15,0,0.154,0.004,0.154,0.155c0.002,0.512,0.001,1.024,0,1.536
			C56.239,39.606,56.232,39.633,56.226,39.673z"/>
		<path fill="#F8FAFC" d="M31.154,43.783c-0.006,0.227,0.011,0.454-0.048,0.678c-0.118,0.452-0.431,0.705-0.889,0.709
			c-0.456,0.004-0.783-0.247-0.902-0.693c-0.031-0.117-0.051-0.236-0.05-0.358c0.001-0.234,0-0.469,0-0.703
			c0-0.114,0.018-0.226,0.046-0.337c0.117-0.461,0.439-0.711,0.91-0.707c0.456,0.004,0.769,0.259,0.886,0.712
			C31.167,43.315,31.148,43.549,31.154,43.783z M30.513,43.779c0.003,0,0.006,0,0.009,0c0-0.114,0-0.227,0-0.341
			c0-0.014,0.001-0.029-0.001-0.043c-0.009-0.092-0.009-0.186-0.03-0.275c-0.042-0.178-0.142-0.26-0.291-0.257
			c-0.142,0.003-0.229,0.08-0.274,0.25c-0.014,0.054-0.021,0.112-0.023,0.168c-0.014,0.327-0.012,0.653,0,0.98
			c0.003,0.086,0.018,0.17,0.054,0.248c0.049,0.106,0.128,0.165,0.249,0.167c0.121,0.001,0.202-0.055,0.253-0.16
			c0.035-0.071,0.053-0.147,0.054-0.226C30.514,44.12,30.513,43.949,30.513,43.779z"/>
		<path fill="#F8FAFC" d="M38.647,43.764c0.004,0.208,0.003,0.406-0.032,0.603c-0.131,0.729-0.714,0.903-1.235,0.752
			c-0.352-0.102-0.531-0.375-0.592-0.716c-0.076-0.422-0.078-0.851,0-1.273c0.114-0.615,0.703-0.924,1.285-0.69
			c0.323,0.13,0.471,0.394,0.538,0.716C38.654,43.359,38.653,43.566,38.647,43.764z M38.013,43.777
			C38.013,43.777,38.014,43.777,38.013,43.777c0.001-0.135,0-0.27,0.001-0.405c0.001-0.101-0.016-0.199-0.047-0.293
			c-0.049-0.151-0.141-0.218-0.28-0.215c-0.13,0.003-0.216,0.069-0.26,0.212c-0.023,0.074-0.042,0.153-0.043,0.23
			c-0.005,0.313-0.004,0.625,0.001,0.938c0.001,0.092,0.023,0.183,0.061,0.269c0.048,0.107,0.129,0.164,0.25,0.165
			c0.121,0.001,0.204-0.054,0.251-0.162c0.043-0.098,0.064-0.203,0.065-0.311C38.014,44.061,38.013,43.919,38.013,43.777z"/>
		<path fill="#F8FAFC" d="M26.416,44.638c0.246,0,0.491-0.001,0.737,0c0.307,0.002,0.271-0.039,0.274,0.271
			c0,0.028-0.002,0.057,0,0.085c0.01,0.096-0.023,0.141-0.13,0.14c-0.547-0.004-1.094-0.004-1.641,0
			c-0.1,0.001-0.131-0.031-0.139-0.133c-0.016-0.19,0.035-0.336,0.178-0.471c0.222-0.21,0.425-0.439,0.635-0.661
			c0.123-0.129,0.235-0.266,0.321-0.423c0.057-0.104,0.077-0.213,0.06-0.329c-0.018-0.121-0.073-0.214-0.201-0.246
			c-0.136-0.034-0.254,0.01-0.332,0.129c-0.015,0.024-0.024,0.052-0.039,0.075c-0.04,0.059,0.001,0.154-0.068,0.192
			c-0.076,0.042-0.167,0.014-0.252,0.017c-0.071,0.003-0.142,0.003-0.213,0c-0.133-0.005-0.145-0.021-0.127-0.151
			c0.054-0.389,0.388-0.702,0.815-0.757c0.185-0.024,0.37-0.008,0.548,0.048c0.406,0.127,0.604,0.523,0.483,0.956
			c-0.061,0.218-0.192,0.394-0.339,0.56c-0.099,0.111-0.206,0.216-0.306,0.327c-0.095,0.105-0.185,0.215-0.277,0.322
			C26.406,44.606,26.411,44.622,26.416,44.638z"/>
		<path fill="#F8FAFC" d="M33.858,44.638c0.299,0,0.559-0.001,0.818,0c0.245,0.001,0.233-0.029,0.231,0.226
			c-0.002,0.313,0.033,0.266-0.274,0.268c-0.483,0.003-0.966,0.001-1.448,0c-0.165,0-0.16-0.003-0.171-0.16
			c-0.012-0.172,0.026-0.308,0.16-0.434c0.238-0.223,0.454-0.469,0.679-0.706c0.117-0.124,0.224-0.257,0.298-0.413
			c0.05-0.104,0.077-0.211,0.045-0.329c-0.033-0.12-0.094-0.204-0.225-0.225c-0.132-0.02-0.235,0.025-0.309,0.14
			c-0.011,0.018-0.029,0.037-0.029,0.056C33.63,43.3,33.47,43.3,33.299,43.287c-0.049-0.004-0.099,0-0.149-0.001
			c-0.208-0.002-0.216-0.012-0.168-0.221c0.087-0.379,0.43-0.661,0.848-0.692c0.127-0.009,0.254,0,0.381,0.023
			c0.608,0.108,0.719,0.661,0.58,1.05c-0.068,0.191-0.188,0.349-0.321,0.498C34.276,44.161,34.065,44.363,33.858,44.638z"/>
		<path fill="#015ABB" d="M41.344,28.037c0,0.011,0,0.022,0.001,0.033c-0.121,0.066-0.168,0.189-0.231,0.299
			c-0.513,0.891-1.023,1.785-1.536,2.676c-0.421,0.732-0.845,1.461-1.267,2.192c-0.068,0-0.137,0-0.205,0
			c-0.362-0.626-0.725-1.251-1.086-1.877c-0.301-0.522-0.597-1.047-0.898-1.569c-0.28-0.485-0.564-0.967-0.844-1.452
			c-0.048-0.083-0.148-0.17-0.096-0.265c0.048-0.087,0.169-0.039,0.257-0.039c1.883-0.002,3.766-0.002,5.65-0.001
			C41.173,28.034,41.259,28.036,41.344,28.037z"/>
		<path fill="#025BBB" d="M30.513,43.779c0,0.17,0.001,0.341,0,0.511c-0.001,0.079-0.019,0.155-0.054,0.226
			c-0.051,0.105-0.132,0.162-0.253,0.16c-0.121-0.001-0.2-0.061-0.249-0.167c-0.036-0.078-0.051-0.162-0.054-0.248
			c-0.012-0.327-0.013-0.653,0-0.98c0.002-0.056,0.009-0.114,0.023-0.168c0.045-0.17,0.132-0.247,0.274-0.25
			c0.149-0.003,0.249,0.079,0.291,0.257c0.021,0.089,0.021,0.183,0.03,0.275c0.001,0.014,0.001,0.028,0.001,0.043
			c0,0.114,0,0.227,0,0.341C30.519,43.779,30.516,43.779,30.513,43.779z"/>
		<path fill="#025BBB" d="M38.013,43.777c0,0.142,0.001,0.284,0,0.426c-0.001,0.108-0.022,0.212-0.065,0.311
			c-0.048,0.108-0.13,0.163-0.251,0.162c-0.121-0.001-0.202-0.058-0.25-0.165c-0.038-0.085-0.06-0.177-0.061-0.269
			c-0.005-0.313-0.005-0.625-0.001-0.938c0.001-0.077,0.02-0.155,0.043-0.23c0.044-0.143,0.13-0.208,0.26-0.212
			c0.139-0.003,0.231,0.064,0.28,0.215c0.031,0.095,0.048,0.193,0.047,0.293C38.013,43.507,38.014,43.642,38.013,43.777
			C38.014,43.777,38.013,43.777,38.013,43.777z"/>
	</g>
</g>
</svg>
