<?xml version="1.0" encoding="utf-8"?>
<!-- Generator: Adobe Illustrator 16.0.0, SVG Export Plug-In . SVG Version: 6.00 Build 0)  -->
<!DOCTYPE svg PUBLIC "-//W3C//DTD SVG 1.1//EN" "http://www.w3.org/Graphics/SVG/1.1/DTD/svg11.dtd">
<svg version="1.1" id="Layer_1" xmlns="http://www.w3.org/2000/svg" xmlns:xlink="http://www.w3.org/1999/xlink" x="0px" y="0px"
	 width="64px" height="64px" viewBox="0 0 64 64" enable-background="new 0 0 64 64" xml:space="preserve">
<g>
	<g>
		<path fill-rule="evenodd" clip-rule="evenodd" fill="#FFFFFF" d="M27.788,9.667c2.626-0.02,5.231,0.212,7.819,0.653
			c4.097,0.697,8.037,1.891,11.798,3.664c3.424,1.614,6.574,3.643,9.345,6.235c2.231,2.088,4.109,4.447,5.453,7.208
			c0.879,1.806,1.479,3.697,1.697,5.696c0.421,3.867-0.498,7.403-2.694,10.607c-1.415,2.065-3.214,3.744-5.271,5.154
			c-2.578,1.768-5.402,3.008-8.393,3.889c-2.146,0.631-4.33,1.074-6.556,1.289c-1.278,0.123-2.563,0.199-3.848,0.25
			c-1.757,0.07-3.513-0.014-5.262-0.186c-5.477-0.536-10.721-1.922-15.683-4.322c-3.103-1.5-5.972-3.355-8.537-5.668
			c-1.863-1.68-3.499-3.555-4.819-5.693c-1.229-1.99-2.129-4.115-2.557-6.424c-0.677-3.659-0.133-7.128,1.66-10.391
			c1.367-2.487,3.289-4.482,5.568-6.146c2.271-1.658,4.768-2.878,7.418-3.795c2.165-0.75,4.385-1.269,6.649-1.602
			c1.597-0.235,3.204-0.378,4.818-0.417C26.859,9.657,27.324,9.667,27.788,9.667z M35.805,51.387c0.268,0,0.535,0.002,0.804,0
			c1.305-0.01,2.604-0.107,3.899-0.266c2.356-0.287,4.665-0.789,6.911-1.564c2.765-0.955,5.341-2.262,7.621-4.113
			c1.925-1.563,3.504-3.409,4.58-5.658c1.282-2.68,1.661-5.49,1.163-8.416c-0.37-2.174-1.201-4.173-2.356-6.042
			c-1.547-2.501-3.544-4.595-5.844-6.409c-3.266-2.576-6.914-4.437-10.843-5.767c-2.906-0.984-5.887-1.632-8.937-1.975
			c-2.128-0.239-4.262-0.315-6.401-0.223c-2.217,0.096-4.41,0.378-6.574,0.877c-2.974,0.685-5.804,1.734-8.422,3.319
			c-2.171,1.315-4.09,2.922-5.586,4.988c-2.515,3.471-3.367,7.31-2.458,11.514c0.496,2.294,1.501,4.364,2.834,6.282
			c1.747,2.513,3.933,4.586,6.413,6.358c3.077,2.2,6.443,3.826,10.032,4.997C26.918,50.685,31.307,51.383,35.805,51.387z"/>
		<path fill-rule="evenodd" clip-rule="evenodd" fill="#FFFFFF" d="M24.43,21.474c-0.8,0.353-1.534,0.791-2.209,1.324
			c-1.065,0.842-1.916,1.849-2.383,3.145c-0.205,0.569-0.312,1.156-0.324,1.784c0.062-0.016,0.111-0.025,0.158-0.04
			c2.669-0.839,5.339-1.678,8.006-2.523c0.124-0.039,0.188-0.015,0.271,0.078c2.255,2.568,4.514,5.134,6.772,7.7
			c0.031,0.035,0.06,0.073,0.104,0.126c-2.905,1.031-5.797,2.059-8.746,3.105c0.54,0.193,1.026,0.381,1.521,0.544
			c1.598,0.528,3.235,0.882,4.908,1.063c2.061,0.223,4.113,0.17,6.147-0.255c0.112-0.023,0.171-0.001,0.243,0.08
			c1.753,2.003,3.51,4.003,5.265,6.004c0.99,1.128,1.979,2.257,2.968,3.386c0.051,0.059,0.101,0.117,0.174,0.201
			c-0.459,0.146-0.895,0.296-1.336,0.426c-2.175,0.637-4.396,1.051-6.648,1.281c-2.269,0.23-4.54,0.263-6.814,0.088
			c-3.64-0.28-7.141-1.123-10.522-2.506c-2.922-1.195-5.667-2.695-8.199-4.58c-2.057-1.53-3.899-3.281-5.384-5.385
			c-1.234-1.75-2.136-3.65-2.578-5.754c-0.179-0.851-0.188-1.714-0.134-2.578c0.207-3.31,1.436-6.184,3.701-8.607
			c1.784-1.908,3.957-3.246,6.35-4.24c0.789-0.328,1.606-0.586,2.408-0.883c0.126-0.047,0.199-0.024,0.286,0.077
			c1.415,1.643,2.833,3.282,4.251,4.921C23.261,20.124,23.838,20.79,24.43,21.474z"/>
		<path fill-rule="evenodd" clip-rule="evenodd" fill="#FFFFFF" d="M30.383,24.493c0.537-0.171,1.062-0.339,1.588-0.507
			c3.967-1.265,7.933-2.531,11.899-3.796c1.494-0.477,2.989-0.95,4.48-1.434c0.149-0.048,0.254-0.024,0.378,0.05
			c1.52,0.907,2.924,1.963,4.192,3.199c1.651,1.609,3.007,3.436,4.037,5.5c0.468,0.937,0.896,1.896,1.11,2.926
			c0.212,1.021,0.282,2.063,0.269,3.108c-0.024,1.918-0.41,3.755-1.23,5.492c-1.089,2.307-2.736,4.138-4.824,5.578
			c-0.488,0.338-1.019,0.613-1.526,0.921c-0.103,0.062-0.168,0.056-0.255-0.04c-2.565-2.785-5.135-5.566-7.702-8.349
			c-0.201-0.218-0.401-0.437-0.601-0.651c0.395-0.303,0.792-0.586,1.166-0.896c0.969-0.805,1.79-1.73,2.288-2.904
			c0.416-0.98,0.549-1.99,0.267-3.034c-0.02-0.074-0.05-0.146-0.08-0.233c-0.511,0.176-1.015,0.349-1.518,0.521
			c-2.219,0.762-4.438,1.524-6.655,2.289c-0.109,0.038-0.176,0.029-0.259-0.062c-2.315-2.529-4.636-5.054-6.954-7.581
			C30.43,24.565,30.412,24.534,30.383,24.493z"/>
		<path fill-rule="evenodd" clip-rule="evenodd" fill="#FFFFFF" d="M45.473,17.03c-0.702,0.219-1.354,0.422-2.005,0.624
			c-3.145,0.971-6.29,1.938-9.434,2.915c-0.24,0.074-0.46,0.003-0.685-0.025c-1.77-0.22-3.538-0.253-5.305,0.015
			c-0.317,0.048-0.633,0.111-0.944,0.188c-0.122,0.03-0.183-0.001-0.256-0.085c-1.222-1.384-2.446-2.765-3.668-4.147
			c-0.773-0.874-1.547-1.748-2.32-2.622c-0.023-0.027-0.045-0.055-0.089-0.106c4.19-1.009,8.401-1.207,12.646-0.626
			C37.643,13.737,41.665,14.974,45.473,17.03z"/>
	</g>
</g>
</svg>
