<svg width="64" height="64" viewBox="0 0 64 64" fill="none" xmlns="http://www.w3.org/2000/svg">
<path d="M55.5588 14.4997C53.077 15.9516 50.5846 17.3851 48.0946 18.8229C44.9442 20.6421 41.793 22.4601 38.6421 24.2787C38.5622 24.3132 38.4779 24.3402 38.403 24.3835C37.7022 24.7889 37.0041 25.199 36.3031 25.6041C35.1582 26.2658 34.0037 26.9116 32.8701 27.592C32.4659 27.8346 32.1339 27.8324 31.7285 27.592C30.1093 26.6319 28.475 25.6973 26.8442 24.7567C26.553 24.5887 26.2524 24.4371 25.9561 24.278C22.9116 22.5181 19.8678 20.7571 16.8225 18.9987C14.1863 17.4765 11.5469 15.96 8.91412 14.432C8.69122 14.3026 8.51242 14.2826 8.30532 14.4359C8.21472 14.5029 8.10252 14.5406 8.00012 14.5916C8.00012 26.3594 8.00012 38.1272 8.00012 49.895C8.40102 50.4121 9.01322 50.62 9.54852 50.9336C11.6573 52.1688 13.7774 53.3847 15.8931 54.6079C17.0211 55.2601 18.1486 55.9133 19.2771 56.5647C19.6916 56.804 20.1944 56.5124 20.1944 56.0317C20.195 49.3586 20.193 42.6855 20.2009 36.0124C20.2013 35.7127 20.0482 35.5883 19.8268 35.4549C19.6139 35.3266 19.4479 35.3611 19.2481 35.4785C18.1072 36.1488 16.9609 36.8099 15.8151 37.4717C15.4365 37.6904 14.9756 37.4253 14.9754 36.9866C14.9737 33.65 14.9738 30.3135 14.9753 26.9769C14.9755 26.5371 15.4312 26.2808 15.8133 26.5012C19.1759 28.4414 22.5384 30.3818 25.9006 32.3226C27.8534 33.4499 29.8034 34.5823 31.7604 35.7023C32.1215 35.909 32.2827 36.1777 32.2821 36.6011C32.274 42.8689 32.2743 49.1368 32.2816 55.4047C32.2821 55.8281 32.1435 56.106 31.7636 56.3218C29.8968 57.3822 28.0425 58.4647 26.1835 59.5388C25.8398 59.7374 25.8371 60.348 26.1862 60.5504C27.6055 61.3733 29.0268 62.1927 30.4477 63.0129C30.9155 63.2829 31.3856 63.5489 31.8511 63.8228C31.9226 63.8649 31.9746 63.9401 32.0356 64C32.2112 64 32.3869 64 32.5625 64C32.6428 63.9314 32.7147 63.8484 32.8045 63.7963C34.504 62.8112 36.2059 61.8302 37.9068 60.8475C39.6777 59.8243 41.4481 58.8 43.2188 57.7764C45.72 56.3306 48.2207 54.884 50.7227 53.4396C52.5466 52.3866 54.3739 51.3394 56.194 50.28C56.3504 50.189 56.4643 50.025 56.598 49.8949C56.598 38.1271 56.598 26.3593 56.598 14.5915C56.5366 14.5635 56.4659 14.5471 56.4155 14.5057C56.1287 14.2706 55.8738 14.3154 55.5588 14.4997ZM49.6243 36.9203C49.6242 37.2784 49.465 37.4963 49.1149 37.5516C48.9983 37.57 48.8526 37.5072 48.7418 37.4438C47.7399 36.8711 46.7434 36.2891 45.7441 35.7117C43.8567 34.6211 41.9684 33.532 40.0808 32.4418C39.7607 32.2569 39.7634 31.71 40.0882 31.5224C41.8588 30.4994 43.6307 29.4788 45.4018 28.4567C46.5299 27.8057 47.6577 27.1541 48.785 26.5016C49.1654 26.2814 49.6227 26.5358 49.6233 26.9756C49.6255 28.6432 49.6242 30.3107 49.6242 31.9783C49.6245 33.6256 49.6248 35.273 49.6243 36.9203Z" fill="#00FF93"/>
<path d="M56.2146 0.3418C56.0607 0.2416 55.9167 0.2442 55.7616 0.3421C55.6021 0.4429 55.4337 0.5295 55.27 0.6238C54.0244 1.3411 52.7785 2.0579 51.5336 2.7765C50.464 3.3939 49.3959 4.014 48.3266 4.6321C47.158 5.3076 45.9881 5.9809 44.8206 6.6582C44.5744 6.801 44.3354 6.7971 44.0911 6.6618C43.7371 6.4657 43.3825 6.2708 43.0282 6.0753C42.9685 6.0317 42.9121 5.9822 42.8485 5.9453C42.3695 5.6678 41.8887 5.3934 41.4093 5.1167C39.5495 4.0433 37.6904 2.9687 35.8294 1.8972C35.7198 1.8341 35.5964 1.7951 35.4794 1.7449C35.3322 1.6617 35.1849 1.5785 35.0377 1.4952C35.0377 1.4952 35.0377 1.4952 35.0376 1.4952C34.9953 1.4527 34.9598 1.3987 34.9097 1.3695C34.5614 1.1657 34.2101 0.9669 33.8598 0.7666C33.5625 0.6055 33.2652 0.4443 32.9679 0.2832C32.8329 0.1888 32.6976 0.0944 32.5624 0C32.4138 0 32.2652 0 32.1165 0C32.076 0 32.0354 0 31.9949 0C31.9187 0.0551 31.8467 0.1174 31.7657 0.1642C30.2403 1.0457 28.714 1.9259 27.1875 2.8054C25.5968 3.7219 24.0047 4.6358 22.4156 5.5551C22.1307 5.7199 21.8576 5.9051 21.579 6.0809C21.2117 6.2946 20.8469 6.5129 20.4761 6.7203C20.2368 6.8542 20.0036 6.8207 19.7668 6.6837C17.4548 5.345 15.1403 4.0106 12.8264 2.6752C11.5409 1.9333 10.2511 1.1989 8.9731 0.4443C8.7118 0.29 8.4976 0.2558 8.2541 0.4459C8.1818 0.5023 8.0853 0.5278 8 0.5674C8 2.9723 8 5.3772 8 7.7821C8.3401 8.2838 8.9047 8.4738 9.393 8.7595C11.4669 9.9734 13.553 11.1666 15.6348 12.367C17.3014 13.328 18.9688 14.2874 20.6348 15.2494C22.1137 16.1033 23.5906 16.9609 25.0695 17.8148C26.9927 18.9251 28.917 20.0334 30.841 21.1423C31.2211 21.3614 31.6012 21.5804 31.9827 21.7969C32.1932 21.9164 32.4079 21.9167 32.618 21.796C33.8646 21.0798 35.111 20.3635 36.3564 19.6452C38.6251 18.3366 40.8931 17.0268 43.1612 15.7172C46.6862 13.6818 50.2109 11.6461 53.7358 9.6106C54.5483 9.1414 55.3653 8.6796 56.1701 8.1973C56.336 8.0979 56.4564 7.9225 56.5978 7.7821C56.5978 5.3907 56.5978 2.9993 56.5978 0.6079C56.5978 0.5944 56.5978 0.5809 56.5978 0.5674C56.4698 0.4926 56.3387 0.4227 56.2146 0.3418Z" fill="#00FF93"/>
</svg>
