<?xml version="1.0" encoding="UTF-8" standalone="no"?>
<svg
   xmlns:dc="http://purl.org/dc/elements/1.1/"
   xmlns:cc="http://creativecommons.org/ns#"
   xmlns:rdf="http://www.w3.org/1999/02/22-rdf-syntax-ns#"
   xmlns:svg="http://www.w3.org/2000/svg"
   xmlns="http://www.w3.org/2000/svg"
   xmlns:sodipodi="http://sodipodi.sourceforge.net/DTD/sodipodi-0.dtd"
   xmlns:inkscape="http://www.inkscape.org/namespaces/inkscape"
   width="64"
   height="64"
   viewBox="0 0 48 48.000001"
   version="1.1"
   id="svg152"
   sodipodi:docname="epikk.svg"
   inkscape:version="0.92.3 (2405546, 2018-03-11)">
  <metadata
     id="metadata158">
    <rdf:RDF>
      <cc:Work
         rdf:about="">
        <dc:format>image/svg+xml</dc:format>
        <dc:type
           rdf:resource="http://purl.org/dc/dcmitype/StillImage" />
        <dc:title></dc:title>
      </cc:Work>
    </rdf:RDF>
  </metadata>
  <defs
     id="defs156" />
  <sodipodi:namedview
     pagecolor="#ffffff"
     bordercolor="#666666"
     borderopacity="1"
     objecttolerance="10"
     gridtolerance="10"
     guidetolerance="10"
     inkscape:pageopacity="0"
     inkscape:pageshadow="2"
     inkscape:window-width="1920"
     inkscape:window-height="1017"
     id="namedview154"
     showgrid="false"
     units="px"
     inkscape:pagecheckerboard="true"
     inkscape:zoom="6.2352847"
     inkscape:cx="-17.973921"
     inkscape:cy="30.974814"
     inkscape:window-x="-8"
     inkscape:window-y="-8"
     inkscape:window-maximized="1"
     inkscape:current-layer="svg152" />
  <g
     id="#bdccd3ff"
     transform="matrix(0.08235954,0,0,0.08235954,-0.82767364,0.23927296)">
    <path
       d="m 313.27,0 h 66.51 c 0,12.94 -0.01,25.89 0,38.83 7.22,0.04 14.43,0 21.65,0.03 0.01,-2.81 0.01,-5.61 0.03,-8.41 8.48,-8.21 17.31,-16.03 25.72,-24.31 1.93,-1.72 3.88,-4.21 6.79,-3.77 12.23,0.02 24.46,0.05 36.69,0.04 0.05,12.45 -0.1,24.91 0.08,37.37 20.14,0.13 40.28,0.02 60.42,0.06 2.62,19.87 2.76,41.54 -7.94,59.25 1.7,3.17 4.12,5.89 5.85,9.05 6.09,10.8 8.45,23.35 8.53,35.65 22.47,12.2 43.39,31.11 50.29,56.55 4.8,13.24 6.07,27.64 4.04,41.55 -2.62,17.59 -11.08,33.95 -22.67,47.29 -11.45,13.68 -26.85,23.7 -43.42,30.05 -0.96,0.28 -1.63,0.87 -2.01,1.77 -3.86,7.56 -6.64,15.66 -10.95,23 -9.25,15.34 -25.03,25.81 -41.84,31.25 -9.61,3.22 -19.71,4.47 -29.78,5.23 0.19,3.18 0.5,6.35 0.54,9.54 0.11,5.03 1.44,10.01 0.87,15.06 -0.88,8.93 -6.12,16.98 -13.08,22.45 -9.78,8.34 -20.02,16.13 -29.86,24.39 -5.52,6.21 -10.08,13.21 -15.18,19.77 5.36,6.91 10.66,13.87 15.84,20.91 -6.29,8.94 -12.05,18.28 -19.12,26.65 -6.27,7.36 -13.71,13.6 -21.05,19.83 0.15,6.6 1.54,13.13 1.69,19.73 -4.93,3.27 -10.53,5.34 -15.68,8.22 -9.63,5.06 -20.18,8.04 -30.84,9.97 h -31.68 c -14.76,-2.39 -28.4,-8.71 -41.97,-14.67 0,-6.95 0.36,-13.93 -0.63,-20.83 -1.34,-2.45 -3.5,-4.33 -5.3,-6.44 -10.71,-12.55 -21.72,-24.84 -32.55,-37.29 2.16,-3.91 4.22,-7.89 6.27,-11.87 -8.52,-11.63 -16.86,-23.38 -25.4,-34.99 2.85,-3.16 5.7,-6.33 8.31,-9.69 -11.41,-8.75 -22.86,-17.46 -34.2,-26.31 -0.08,-12.23 0.06,-24.45 -0.07,-36.68 -8.03,-0.92 -16.13,-1.24 -24.06,-2.93 C 114.34,371.55 94.59,361.83 83.37,344.53 78.18,336.97 76.75,327.77 74.26,319.14 61.73,314.22 50.23,306.72 40.47,297.46 32.98,289.72 26.34,281.08 21.3,271.53 10.13,249.55 6.84,223.4 13.41,199.53 16.2,190.49 21.05,182.18 26.7,174.65 37.11,161.2 50.52,150.35 65.02,141.59 60.75,128.88 58.78,115.21 61.03,101.89 64.01,83.51 74.39,66.46 89.27,55.27 103.38,44.47 121.29,38.8 139.04,39.4 c 18.95,0.78 37.46,8.89 50.89,22.29 5.84,-5.19 12.02,-10.15 19.18,-13.42 21.34,-11.01 47.7,-11.05 69.25,-0.54 0.01,-5.26 0.1,-10.53 -0.1,-15.79 C 289.94,21.31 301.58,10.62 313.27,0 m 5.1,10.33 c -9.11,7.86 -17.77,16.29 -26.82,24.23 -0.88,1 -2.49,1.79 -2.31,3.34 -0.09,10.36 0.03,20.71 -0.05,31.07 -3.29,-2.43 -6.18,-5.36 -9.62,-7.59 -14.02,-9.6 -32.05,-12.51 -48.59,-9.21 -16.5,3.06 -31.61,12.88 -41.02,26.8 -9.65,-14.14 -24.9,-24.4 -41.78,-27.49 -18.09,-3.5 -37.54,1.13 -52.12,12.39 -14.12,10.63 -23.66,27.38 -24.85,45.08 -1.11,13.02 2.49,25.88 7.75,37.67 -18.91,9.68 -36.52,23.11 -48.09,41.18 -4.56,6.99 -7.56,14.92 -8.82,23.17 -3.15,21.36 1.07,43.96 12.87,62.17 11.13,17.72 28.59,31.08 48.37,37.76 2.14,6.89 3.64,13.96 5.83,20.82 4.63,11.87 14.93,20.7 26.21,26.07 16.6,7.92 35.36,9.49 53.51,9.33 0.01,13.3 -0.02,26.61 0,39.92 -0.19,1.41 0.42,2.73 1.62,3.49 9.44,7.23 18.84,14.51 28.28,21.75 3.3,2.5 6.01,5.66 8.89,8.61 -3.18,3.61 -6.53,7.07 -9.45,10.89 8.2,10.93 16.07,22.11 24.14,33.14 -2.02,3.71 -3.89,7.5 -5.88,11.22 11.94,13.66 23.85,27.35 35.81,41 0.18,6 0.18,12.01 0.38,18.01 8.53,3.5 16.92,7.57 25.99,9.54 24.36,5.84 50.69,0.81 71.86,-12.31 -0.74,-6.09 -1.21,-12.21 -1.92,-18.3 7.18,-5.23 13.89,-11.08 20.11,-17.42 7.12,-7 12.6,-15.41 18.08,-23.69 -4.9,-7.32 -10.59,-14.11 -15.83,-21.2 5.9,-8.33 12.21,-16.36 18.21,-24.61 2.21,-3.14 5.49,-5.22 8.4,-7.64 8.84,-7.17 17.73,-14.3 26.46,-21.61 5.19,-4.32 8.67,-11.03 7.67,-17.9 -1.02,-10.16 -1.06,-20.38 -1.99,-30.54 15.88,0.52 32.18,-1.33 46.74,-8.05 11.7,-5.39 22.41,-13.94 28.46,-25.5 2.98,-6.29 5.8,-12.67 8.72,-18.99 -2.22,-0.91 -4.41,-1.89 -6.54,-2.98 14.99,-4.05 29.58,-10.4 41.79,-20.12 12.78,-10.57 23.28,-24.23 28.84,-39.96 5.9,-16.37 5.56,-34.78 -0.47,-51.06 -2.68,-9.82 -8.05,-18.71 -14.8,-26.26 -10,-11.07 -22.52,-19.6 -35.8,-26.26 0.2,-6.5 0.16,-13.06 -1.11,-19.47 -2.01,-12.07 -7.9,-24.01 -18.31,-30.94 3.3,-2.98 6.73,-5.99 8.63,-10.12 6.03,-12.03 6.25,-25.92 5.53,-39.07 -20.54,-0.1 -41.09,0.14 -61.64,-0.13 0.11,-12.4 0.02,-24.8 0.05,-37.21 -8.1,0.05 -16.2,0.07 -24.3,0.17 -7.63,7.32 -15.48,14.4 -23.1,21.74 0,4.86 0,9.73 0,14.6 -14.48,-0.01 -28.97,0.11 -43.45,-0.05 -0.14,-13.23 -0.03,-26.46 -0.06,-39.68 -5.28,0.07 -10.57,-0.02 -15.84,-0.23 -11.54,0.56 -23.12,-0.16 -34.64,0.43 z"
       id="path85"
       inkscape:connector-curvature="0"
       style="opacity:1;fill:#bdccd3" />
    <path
       d="m 230.52,238.89 c 11.17,-2.16 22.52,-3.98 33.88,-4.31 5.6,2.66 11.89,3.66 17.24,6.86 4.32,2.56 5.26,7.95 5.47,12.56 0.69,17.56 0,35.15 -0.52,52.71 4.14,-3.55 7.07,-8.24 11.18,-11.82 -2.74,15.08 -7.05,29.82 -9.9,44.88 2.04,-0.26 4.08,-0.53 6.12,-0.79 -3,14.58 -6.47,29.05 -9.49,43.62 -0.78,3.79 -0.83,7.78 0.33,11.5 3.92,12.86 11.72,23.97 19.24,34.93 4.26,6.23 9.41,11.81 13.57,18.12 -9.7,3.87 -19.12,8.46 -29,11.86 -1.12,0.41 -2.22,0.9 -3.31,1.4 13.1,5.99 26.28,11.83 39.53,17.48 0.19,-2.72 0.38,-5.43 0.61,-8.13 5.31,5.95 9.84,12.54 14.85,18.74 -22,-2.87 -44.27,-3.38 -66.41,-2.05 -5.97,0.45 -12.44,-0.28 -17.92,2.55 -2.38,1.11 -1.93,3.99 -1.54,6.11 1.41,6.98 3.79,13.72 5.35,20.67 -6.46,-7.54 -13.07,-14.95 -19.74,-22.29 13.92,-29.16 18.53,-61.65 21.18,-93.54 0.72,-12.74 1.47,-25.48 1.27,-38.24 -21.14,-10.12 -42.32,-20.14 -63.47,-30.24 2.25,-5.44 7.59,-8.61 12.91,-10.49 8.33,-3.07 17.26,-3.76 26.04,-4.55 -14.5,-3.06 -29.08,-6.3 -42.87,-11.83 6.05,-13.19 9.05,-27.5 11.85,-41.66 0.44,-2.22 1.77,-4.09 2.98,-5.94 3.44,-5.16 7.32,-10.03 11.56,-14.56 2.2,-2.65 5.94,-2.66 9.01,-3.55 z"
       id="path87"
       inkscape:connector-curvature="0"
       style="opacity:1;fill:#bdccd3" />
    <path
       d="m 107.2,324.73 c 7.22,-2.03 14.52,-3.83 21.9,-5.12 9.22,-1.75 17.54,3.89 24.93,8.6 -6.37,0.43 -12.78,0.91 -18.97,2.6 3.14,3.74 7.5,6.16 11.9,8.12 8.61,3.81 17.78,6.13 26.93,8.22 -13.31,0.94 -26.89,0.29 -39.84,-3.1 -10.74,-2.95 -22.12,-8.59 -26.85,-19.32 z"
       id="path89"
       inkscape:connector-curvature="0"
       style="opacity:1;fill:#bdccd3" />
    <path
       d="m 188.46,399.7 c 0.04,-11.49 -0.07,-22.98 0.05,-34.47 7.63,4.58 15.44,8.86 23.06,13.46 0.47,13.49 1.53,26.94 2.08,40.42 -8.42,-6.44 -16.84,-12.89 -25.19,-19.41 z"
       id="path91"
       inkscape:connector-curvature="0"
       style="opacity:1;fill:#bdccd3" />
    <path
       d="m 227.72,387.94 c 11.53,11.38 17.61,27.94 16.27,44.08 -0.83,11.87 -4.63,23.45 -10.49,33.77 -1.28,0.11 -1.76,-1.19 -2.44,-1.99 -2.57,-3.66 -5.18,-7.29 -7.86,-10.87 2.29,-3.24 4.58,-6.84 4.46,-10.97 0.28,-5.31 -2.32,-10.22 -5.58,-14.22 1.22,-13.34 3.86,-26.52 5.64,-39.8 z"
       id="path93"
       inkscape:connector-curvature="0"
       style="opacity:1;fill:#bdccd3" />
    <path
       d="m 271.75,532.23 c 18.19,6.72 38.55,5.74 56.95,0.36 0.44,2.88 0.74,5.78 0.98,8.69 -18.16,7.89 -39.5,8.48 -57.84,0.82 -0.04,-3.3 -0.06,-6.58 -0.09,-9.87 z"
       id="path95"
       inkscape:connector-curvature="0"
       style="opacity:1;fill:#bdccd3" />
  </g>
  <g
     id="#000000ff"
     transform="matrix(0.08235954,0,0,0.08235954,-0.82767364,0.23927296)">
    <path
       d="m 318.37,10.33 c 11.52,-0.59 23.1,0.13 34.64,-0.43 5.27,0.21 10.56,0.3 15.84,0.23 0.03,13.22 -0.08,26.45 0.06,39.68 14.48,0.16 28.97,0.04 43.45,0.05 0,-4.87 0,-9.74 0,-14.6 7.62,-7.34 15.47,-14.42 23.1,-21.74 8.1,-0.1 16.2,-0.12 24.3,-0.17 -0.03,12.41 0.06,24.81 -0.05,37.21 20.55,0.27 41.1,0.03 61.64,0.13 0.72,13.15 0.5,27.04 -5.53,39.07 -1.9,4.13 -5.33,7.14 -8.63,10.12 10.41,6.93 16.3,18.87 18.31,30.94 1.27,6.41 1.31,12.97 1.11,19.47 13.28,6.66 25.8,15.19 35.8,26.26 6.75,7.55 12.12,16.44 14.8,26.26 6.03,16.28 6.37,34.69 0.47,51.06 -5.56,15.73 -16.06,29.39 -28.84,39.96 -12.21,9.72 -26.8,16.07 -41.79,20.12 2.13,1.09 4.32,2.07 6.54,2.98 -2.92,6.32 -5.74,12.7 -8.72,18.99 -6.05,11.56 -16.76,20.11 -28.46,25.5 -14.56,6.72 -30.86,8.57 -46.74,8.05 0.93,10.16 0.97,20.38 1.99,30.54 1,6.87 -2.48,13.58 -7.67,17.9 -8.73,7.31 -17.62,14.44 -26.46,21.61 -2.91,2.42 -6.19,4.5 -8.4,7.64 -6,8.25 -12.31,16.28 -18.21,24.61 5.24,7.09 10.93,13.88 15.83,21.2 -5.48,8.28 -10.96,16.69 -18.08,23.69 -6.22,6.34 -12.93,12.19 -20.11,17.42 0.71,6.09 1.18,12.21 1.92,18.3 -21.17,13.12 -47.5,18.15 -71.86,12.31 -9.07,-1.97 -17.46,-6.04 -25.99,-9.54 -0.2,-6 -0.2,-12.01 -0.38,-18.01 -11.96,-13.65 -23.87,-27.34 -35.81,-41 1.99,-3.72 3.86,-7.51 5.88,-11.22 -8.07,-11.03 -15.94,-22.21 -24.14,-33.14 2.92,-3.82 6.27,-7.28 9.45,-10.89 -2.88,-2.95 -5.59,-6.11 -8.89,-8.61 -9.44,-7.24 -18.84,-14.52 -28.28,-21.75 -1.2,-0.76 -1.81,-2.08 -1.62,-3.49 -0.02,-13.31 0.01,-26.62 0,-39.92 -18.15,0.16 -36.91,-1.41 -53.51,-9.33 C 104.05,352.42 93.75,343.59 89.12,331.72 86.93,324.86 85.43,317.79 83.29,310.9 63.51,304.22 46.05,290.86 34.92,273.14 23.12,254.93 18.9,232.33 22.05,210.97 23.31,202.72 26.31,194.79 30.87,187.8 42.44,169.73 60.05,156.3 78.96,146.62 73.7,134.83 70.1,121.97 71.21,108.95 72.4,91.25 81.94,74.5 96.06,63.87 c 14.58,-11.26 34.03,-15.89 52.12,-12.39 16.88,3.09 32.13,13.35 41.78,27.49 9.41,-13.92 24.52,-23.74 41.02,-26.8 16.54,-3.3 34.57,-0.39 48.59,9.21 3.44,2.23 6.33,5.16 9.62,7.59 0.08,-10.36 -0.04,-20.71 0.05,-31.07 -0.18,-1.55 1.43,-2.34 2.31,-3.34 9.05,-7.94 17.71,-16.37 26.82,-24.23 m -14.79,29.35 c -1.91,1.45 -1.72,3.9 -1.64,6.04 6.73,-0.02 13.46,-0.01 20.19,-0.01 0.09,-8.16 0.13,-16.32 -0.02,-24.47 -6.37,5.96 -12.33,12.33 -18.53,18.44 m 32.76,0.68 c -1.24,0.84 -1,2.37 -1.05,3.66 0.06,40.03 -0.04,80.07 0.05,120.1 6.65,-0.14 13.36,0.5 19.97,-0.41 -0.16,-17.1 -0.03,-34.19 -0.07,-51.29 7.9,0.27 16.27,-1.08 23.67,2.45 9.58,4.03 16.43,13.73 17.03,24.11 0.51,8.37 0.02,16.77 0.27,25.16 6.65,-0.11 13.34,0.35 19.98,-0.33 -0.71,-14.33 2.24,-29.54 -4.06,-43 -3.67,-8.37 -10.05,-15.12 -17.08,-20.76 10.13,-9.31 16.55,-22.65 16.47,-36.51 -6.73,-0.04 -13.45,0.01 -20.18,-0.04 -0.33,8.45 -3.97,16.89 -10.76,22.13 -6.97,5.86 -16.56,7.22 -25.35,6.19 0.01,-23.57 0.03,-47.15 -0.01,-70.73 -6.35,6.37 -12.58,12.85 -18.88,19.27 M 427.6,39.7 c -0.96,0.84 -1.68,1.9 -1.44,3.24 0.02,40.4 -0.07,80.8 0.05,121.2 6.52,0.01 13.04,0.03 19.56,-0.01 0.24,-17.23 -0.22,-34.47 0.24,-51.7 7.25,0.26 14.8,-0.94 21.76,1.69 10.72,3.73 18.84,14.42 18.87,25.87 0.06,8.03 -0.01,16.07 0.04,24.11 6.65,-0.06 13.35,0.37 19.99,-0.19 0.23,-8.64 0.04,-17.29 0.09,-25.94 -0.12,-15.21 -9.09,-29.27 -21.32,-37.86 10.56,-9.02 16.7,-22.7 16.84,-36.55 -6.81,-0.06 -13.61,-0.08 -20.42,0.01 0.16,10.91 -6.65,21.4 -16.6,25.8 -5.94,3.08 -12.82,2.6 -19.27,2.36 -0.41,-23.5 -0.01,-47.02 -0.2,-70.52 -6.05,6.17 -12.12,12.33 -18.19,18.49 M 302.15,63.44 c -0.06,19.2 -0.16,38.37 -0.03,57.57 0.01,12.66 0.05,25.33 -0.02,37.99 0.03,1.72 0.07,3.44 0.13,5.16 6.67,-0.23 13.4,0.49 20.03,-0.45 -0.13,-33.39 -0.06,-66.78 -0.04,-100.17 -6.69,-0.17 -13.38,0 -20.07,-0.1 m -182.31,7.29 c -14.7,6.33 -25.8,20.37 -28.37,36.19 -2.28,12.11 0.53,25.01 7.29,35.28 7.55,11.63 20.4,19.71 34.17,21.4 13.83,2.04 28.38,-2.49 38.81,-11.77 10.42,-9.06 16.2,-22.67 16.58,-36.37 -6.84,-0.24 -13.68,-0.13 -20.51,-0.07 -0.03,5.59 -1.58,11.17 -4.79,15.79 -6.71,10.16 -20.31,15.07 -31.94,11.3 -10.07,-3.1 -18.11,-12.15 -19.67,-22.61 -0.49,-5.04 -0.43,-10.32 1.66,-15.02 4.28,-10.61 15.37,-18.47 26.98,-17.72 6.94,-0.28 13.43,2.9 18.82,7.01 -10.87,11.26 -21.84,22.42 -32.81,33.58 8.92,-0.03 17.85,0.16 26.76,-0.08 11.6,-10.86 22.62,-22.39 33.97,-33.54 -6.67,-6.34 -12.35,-13.82 -20.01,-19.03 -13.53,-9.4 -31.91,-11.06 -46.94,-4.34 m 90.53,9.57 c -9.34,8.95 -14.95,21.74 -14.96,34.69 0,24.78 -0.01,49.57 0,74.35 6.65,6.6 13.16,13.34 19.85,19.9 0.17,-31.43 0.01,-62.86 0.08,-94.29 -0.02,-9.67 5.55,-19.04 13.86,-23.92 12.16,-7.59 29.78,-4.09 37.9,7.81 8.16,10.76 6.77,27.06 -2.65,36.61 -7.01,7.17 -17.91,10.55 -27.64,7.69 -1.53,6.53 -3.33,12.99 -4.74,19.54 11.48,2.8 23.94,1.34 34.39,-4.2 13.2,-6.74 22.83,-19.87 25.55,-34.41 1.85,-10.86 0.2,-22.37 -5.36,-31.95 -7.08,-12.91 -20.2,-22.35 -34.74,-24.76 -14.86,-2.79 -30.8,2.4 -41.54,12.94 m 165.07,93.42 c 0.23,7.74 -0.14,15.5 0.18,23.24 0.73,7.02 7.24,12 13.99,12.6 0.05,-1.96 0.08,-3.93 0.11,-5.88 -3.23,-0.75 -6.72,-2.31 -7.79,-5.75 -0.89,-3.62 -0.34,-7.41 -0.38,-11.1 2.67,0.01 5.33,0.02 8.01,0.06 0,-1.97 0,-3.94 0,-5.9 -2.72,0.15 -5.43,0.07 -8.13,-0.13 0.06,-4.35 0.1,-8.69 -0.02,-13.03 -2.09,1.86 -4.08,3.83 -5.97,5.89 m 150.3,-2.74 c -0.88,1.91 -0.97,4.6 -3.15,5.59 -9.2,5.19 -18.48,10.25 -27.65,15.5 -1.52,0.71 -0.5,2.66 -0.45,3.89 1.45,5.88 2.01,12.09 4.85,17.54 4.3,9.53 8.3,19.29 10.67,29.5 -7.05,-6.47 -13.05,-14.17 -20.92,-19.69 -18.19,9.34 -39.44,15.29 -59.8,10.21 0.11,6.33 1.89,12.45 3.72,18.46 -6.66,-5.66 -13.19,-11.46 -19.73,-17.25 -0.98,-0.69 -1.99,-1.94 -3.34,-1.41 -7.54,1.35 -14.96,3.34 -22.51,4.67 11.98,21.72 24.12,43.37 36.86,64.66 3.39,4.63 6.68,12.14 13.66,10.88 6.38,-1.34 12.24,-4.6 18.77,-5.47 -4.75,-13.39 -10.6,-26.36 -16.78,-39.14 7.74,7.33 14.81,15.31 21.87,23.28 3.02,3.33 5.57,7.09 8.99,10.03 0.16,-3.78 -1.23,-7.32 -2.64,-10.75 4.16,2.3 8.28,4.68 12.53,6.82 1.67,0.88 3.59,0.24 5.37,0.11 13.02,-2.02 25.91,-5.59 37.69,-11.6 16.26,-8.11 29.39,-22.56 35.59,-39.67 5.33,-14.59 3.61,-31.22 -3.7,-44.82 -6.57,-13.18 -17.93,-23.15 -29.9,-31.34 m -294.52,25.06 c 0.01,8.69 9.64,15.46 17.85,12.71 6.08,-1.51 9.88,-7.4 10.59,-13.37 -2.12,-0.14 -4.43,0.19 -6.21,-1.22 1.95,-1.59 3.77,-3.34 5.54,-5.14 -3.44,-3.77 -7.47,-8.07 -13.03,-7.87 -8.12,-0.87 -15.71,6.77 -14.74,14.89 m 41.69,-6.94 c -1.79,3.39 -0.59,7.71 -3,10.83 -1.52,2.15 -4.24,2.74 -6.54,3.68 0.07,1.95 0.13,3.92 0.21,5.88 4.9,-0.63 9.8,-2.98 12.26,-7.46 2.55,-3.63 0.85,-8.83 3.96,-12.15 1.44,-1.87 3.82,-2.41 5.95,-3.12 -0.05,-1.93 -0.11,-3.87 -0.17,-5.8 -5.36,0.08 -10.45,3.23 -12.67,8.14 m 17.49,5.87 c -0.04,7.21 0.01,14.43 0,21.65 1.78,1.84 3.53,3.74 5.53,5.36 0.72,-9.24 -0.06,-18.54 0.36,-27.8 0.3,-5.19 6.61,-8.92 11.28,-6.54 5.08,1.84 6.72,9.04 3,12.94 -2.02,2.58 -5.41,3.05 -8.47,2.89 -0.36,1.93 -0.7,3.87 -1,5.81 6.83,0.97 14.31,-2.57 16.61,-9.32 3.54,-8.43 -3.59,-18.91 -12.68,-18.82 -7.66,-0.77 -14.88,6.21 -14.63,13.83 m 42.1,-13.19 c -6.24,2.04 -10.31,8.82 -9.24,15.3 0.68,7.89 9.16,13.76 16.8,11.84 8.03,-1.48 13.53,-10.85 10.38,-18.52 -2.36,-7.2 -10.86,-11.07 -17.94,-8.62 m 24.29,12.19 c -0.05,5.04 -0.25,10.11 0.13,15.14 1.87,0.39 3.8,0.23 5.71,0.28 0.17,-5.14 -0.2,-10.29 0.17,-15.41 0.38,-4.14 4.28,-6.55 8.01,-7.34 0,-1.89 0,-3.78 0,-5.66 -7.07,0.06 -13.72,5.79 -14.02,12.99 m 46.87,-5.5 c -1.86,3.2 -1.18,7.13 -2.67,10.43 -1.43,2.79 -4.58,3.74 -7.29,4.78 0.05,1.92 0.09,3.84 0.15,5.76 4.67,-0.49 9.39,-2.53 11.95,-6.65 2.36,-3.15 1.94,-7.26 3.06,-10.84 1.17,-3.08 4.34,-4.54 7.37,-5.08 0,-1.91 -0.02,-3.82 -0.02,-5.73 -5.19,-0.31 -10.24,2.71 -12.55,7.33 m -359.7,19.49 c -4.17,14.93 -3.77,31.4 2.54,45.68 6.31,14.67 18.63,26.1 32.73,33.23 13.01,6.54 27.34,10.41 41.79,11.86 4.35,-1.64 8.16,-4.46 12.4,-6.37 -0.9,2.94 -1.75,5.89 -2.33,8.91 9.96,-11.05 18.68,-23.2 28.56,-34.33 -3.81,13.18 -7.65,26.35 -11.51,39.52 7.72,3.24 15.62,6.04 23.33,9.3 6.06,-9.2 12.28,-18.37 16.93,-28.4 8.47,-17.23 17.4,-34.25 25.6,-51.62 -9.54,-0.14 -19.07,-0.63 -28.6,-1.16 -4.87,5.52 -9.36,11.37 -14.26,16.87 0.33,-5.13 1.37,-10.16 1.78,-15.27 -15.72,-0.15 -31.86,-0.87 -46.76,-6.37 -5.15,-1.81 -9.74,-4.88 -13.58,-8.72 -6.43,6.69 -12.97,13.29 -19.34,20.04 4.01,-16.17 10.64,-31.52 17.76,-46.53 -18.06,-2.01 -36.09,-4.38 -54.07,-7.07 -5.47,5.95 -10.79,12.49 -12.97,20.43 m 220.44,26.62 c -11.36,0.33 -22.71,2.15 -33.88,4.31 -3.07,0.89 -6.81,0.9 -9.01,3.55 -4.24,4.53 -8.12,9.4 -11.56,14.56 -1.21,1.85 -2.54,3.72 -2.98,5.94 -2.8,14.16 -5.8,28.47 -11.85,41.66 13.79,5.53 28.37,8.77 42.87,11.83 -8.78,0.79 -17.71,1.48 -26.04,4.55 -5.32,1.88 -10.66,5.05 -12.91,10.49 21.15,10.1 42.33,20.12 63.47,30.24 0.2,12.76 -0.55,25.5 -1.27,38.24 -2.65,31.89 -7.26,64.38 -21.18,93.54 6.67,7.34 13.28,14.75 19.74,22.29 -1.56,-6.95 -3.94,-13.69 -5.35,-20.67 -0.39,-2.12 -0.84,-5 1.54,-6.11 5.48,-2.83 11.95,-2.1 17.92,-2.55 22.14,-1.33 44.41,-0.82 66.41,2.05 3.48,0.36 8.65,1.38 8.86,5.73 -1.17,7.45 -5.06,14.07 -8.03,20.9 8.24,-5.78 15.52,-13.07 21.37,-21.26 l 0.01,-0.82 c -7.53,-10.3 -15.47,-20.3 -23.03,-30.58 -7.15,-0.25 -14.28,-0.87 -21.44,-0.81 -10.01,-0.07 -19.99,-1.14 -30,-0.95 l 0.58,-1.7 c 9.88,-3.4 19.3,-7.99 29,-11.86 5.04,-2.05 10,-4.34 15.12,-6.22 -3.38,-27.58 -7.3,-55.14 -9.17,-82.88 -0.36,-8.41 -1.37,-16.83 -0.63,-25.25 6.6,9.43 11.89,19.73 17.99,29.49 20.06,-10.6 40.16,-21.15 60.01,-32.14 -9,-5.28 -18.98,-8.73 -29.25,-10.44 10.58,-5.44 22.43,-7.74 34.03,-9.91 -4.4,-10.75 -8,-21.84 -10.53,-33.18 -2.63,-10.04 -5.59,-20.15 -10.69,-29.25 -2.71,-5.19 -8.68,-7.16 -13.95,-8.65 -13.09,-3.22 -26.61,-3.91 -39.98,-5.1 -6.86,-0.08 -13.67,-1.25 -20.53,-1.11 -3.23,0.19 -4.67,3.69 -5.06,6.47 -2.11,11.63 -4.06,23.28 -6.09,34.93 -3.35,-13.73 -6.02,-27.62 -9.3,-41.37 -8.39,0.72 -16.9,0.55 -25.21,2.04 m -157.2,90.15 c 4.73,10.73 16.11,16.37 26.85,19.32 12.95,3.39 26.53,4.04 39.84,3.1 -9.15,-2.09 -18.32,-4.41 -26.93,-8.22 -4.4,-1.96 -8.76,-4.38 -11.9,-8.12 6.19,-1.69 12.6,-2.17 18.97,-2.6 -7.39,-4.71 -15.71,-10.35 -24.93,-8.6 -7.38,1.29 -14.68,3.09 -21.9,5.12 m 335.49,3.02 c -0.96,0.57 -2.37,0.82 -2.71,2.04 6.02,1.2 12.26,1.74 18,4.09 -0.25,1.79 -2.31,2.54 -3.57,3.58 -10.28,6.11 -22.16,8.53 -33.59,11.52 5.32,1.08 10.8,0.75 16.2,0.85 14.99,0.05 30.78,-3.47 42.51,-13.28 2.9,-2.8 6.41,-5.54 7.57,-9.55 -8.89,-3.48 -18.5,-6.39 -28.16,-5.26 -5.78,0.84 -10.96,3.73 -16.25,6.01 m -72.83,35.15 c -2.6,2.07 -5.46,4.05 -6.86,7.19 4.33,3.04 10.1,3.41 15.09,2.1 5.98,-3.3 6.63,-12.13 2.08,-16.94 -3.48,2.49 -6.95,5 -10.31,7.65 m -154.92,-4.89 c -1.69,4.62 -1.37,11.81 4.05,13.77 5.16,1.52 12.1,0.62 15.11,-4.36 -4.84,-3.4 -9.8,-6.64 -14.89,-9.64 -1.36,-0.78 -3.62,-2.01 -4.27,0.23 m 184.85,10.62 c -4.01,2.11 -8.19,3.87 -12.09,6.17 -1.13,0.61 -0.72,2.09 -0.87,3.12 -0.04,15.37 -1.12,30.71 -1.25,46.08 9,-7.16 17.97,-14.36 26.72,-21.82 -1.2,-12.67 -1.77,-25.4 -2.19,-38.12 -3.73,0.8 -6.92,2.97 -10.32,4.57 M 188.46,399.7 c 8.35,6.52 16.77,12.97 25.19,19.41 -0.55,-13.48 -1.61,-26.93 -2.08,-40.42 -7.62,-4.6 -15.43,-8.88 -23.06,-13.46 -0.12,11.49 -0.01,22.98 -0.05,34.47 m 39.26,-11.76 c -1.78,13.28 -4.42,26.46 -5.64,39.8 3.26,4 5.86,8.91 5.58,14.22 0.12,4.13 -2.17,7.73 -4.46,10.97 2.68,3.58 5.29,7.21 7.86,10.87 0.68,0.8 1.16,2.1 2.44,1.99 5.86,-10.32 9.66,-21.9 10.49,-33.77 1.34,-16.14 -4.74,-32.7 -16.27,-44.08 m 130.42,21.14 c -2.21,12.1 1.9,24.51 8.49,34.59 1.12,0.13 1.51,-1.15 2.18,-1.79 2.67,-3.66 5.35,-7.31 8.12,-10.91 -1.79,-14.32 -4.41,-28.54 -6.71,-42.79 -5.93,5.6 -10.62,12.77 -12.08,20.9 m -86.39,123.15 c 0.03,3.29 0.05,6.57 0.09,9.87 18.34,7.66 39.68,7.07 57.84,-0.82 -0.24,-2.91 -0.54,-5.81 -0.98,-8.69 -18.4,5.38 -38.76,6.36 -56.95,-0.36 z"
       id="path98"
       inkscape:connector-curvature="0"
       style="opacity:1;fill:#000000" />
    <path
       d="m 239.95,188.96 c 3.09,-3 7.63,-2.15 10.99,-0.11 -3.04,3.34 -6.49,6.31 -9.3,9.86 3.71,-0.01 8.55,1.18 10.39,-3.14 0.51,0.59 1.02,1.19 1.52,1.8 -1.96,4.05 -6.72,7.59 -11.29,5.39 -5.58,-1.94 -7.02,-10.19 -2.31,-13.8 z"
       id="path100"
       inkscape:connector-curvature="0"
       style="opacity:1;fill:#000000" />
    <path
       d="m 334.42,187.44 c 4.31,-1.47 9.43,0.98 10.59,5.47 2.06,5.72 -4.25,12 -9.97,10.11 -3.19,-0.88 -5.69,-3.66 -6.14,-6.96 -0.44,-3.66 2.01,-7.47 5.52,-8.62 z"
       id="path102"
       inkscape:connector-curvature="0"
       style="opacity:1;fill:#000000" />
  </g>
  <g
     id="#f07d00ff"
     transform="matrix(0.08235954,0,0,0.08235954,-0.82767364,0.23927296)">
    <path
       d="m 303.58,39.68 c 6.2,-6.11 12.16,-12.48 18.53,-18.44 0.15,8.15 0.11,16.31 0.02,24.47 -6.73,0 -13.46,-0.01 -20.19,0.01 -0.08,-2.14 -0.27,-4.59 1.64,-6.04 z"
       id="path105"
       inkscape:connector-curvature="0"
       style="opacity:1;fill:#f07d00" />
    <path
       d="m 375.44,173.72 c 1.89,-2.06 3.88,-4.03 5.97,-5.89 0.12,4.34 0.08,8.68 0.02,13.03 2.7,0.2 5.41,0.28 8.13,0.13 0,1.96 0,3.93 0,5.9 -2.68,-0.04 -5.34,-0.05 -8.01,-0.06 0.04,3.69 -0.51,7.48 0.38,11.1 1.07,3.44 4.56,5 7.79,5.75 -0.03,1.95 -0.06,3.92 -0.11,5.88 -6.75,-0.6 -13.26,-5.58 -13.99,-12.6 -0.32,-7.74 0.05,-15.5 -0.18,-23.24 z"
       id="path107"
       inkscape:connector-curvature="0"
       style="opacity:1;fill:#f07d00" />
    <path
       d="m 525.74,170.98 c 11.97,8.19 23.33,18.16 29.9,31.34 7.31,13.6 9.03,30.23 3.7,44.82 -6.2,17.11 -19.33,31.56 -35.59,39.67 -11.78,6.01 -24.67,9.58 -37.69,11.6 -1.78,0.13 -3.7,0.77 -5.37,-0.11 -4.25,-2.14 -8.37,-4.52 -12.53,-6.82 1.41,3.43 2.8,6.97 2.64,10.75 -3.42,-2.94 -5.97,-6.7 -8.99,-10.03 -7.06,-7.97 -14.13,-15.95 -21.87,-23.28 6.18,12.78 12.03,25.75 16.78,39.14 -6.53,0.87 -12.39,4.13 -18.77,5.47 -6.98,1.26 -10.27,-6.25 -13.66,-10.88 -12.74,-21.29 -24.88,-42.94 -36.86,-64.66 7.55,-1.33 14.97,-3.32 22.51,-4.67 1.35,-0.53 2.36,0.72 3.34,1.41 6.54,5.79 13.07,11.59 19.73,17.25 -1.83,-6.01 -3.61,-12.13 -3.72,-18.46 20.36,5.08 41.61,-0.87 59.8,-10.21 7.87,5.52 13.87,13.22 20.92,19.69 -2.37,-10.21 -6.37,-19.97 -10.67,-29.5 -2.84,-5.45 -3.4,-11.66 -4.85,-17.54 -0.05,-1.23 -1.07,-3.18 0.45,-3.89 9.17,-5.25 18.45,-10.31 27.65,-15.5 2.18,-0.99 2.27,-3.68 3.15,-5.59 z"
       id="path109"
       inkscape:connector-curvature="0"
       style="opacity:1;fill:#f07d00" />
    <path
       d="m 231.22,196.04 c -0.97,-8.12 6.62,-15.76 14.74,-14.89 5.56,-0.2 9.59,4.1 13.03,7.87 -1.77,1.8 -3.59,3.55 -5.54,5.14 1.78,1.41 4.09,1.08 6.21,1.22 -0.71,5.97 -4.51,11.86 -10.59,13.37 -8.21,2.75 -17.84,-4.02 -17.85,-12.71 m 8.73,-7.08 c -4.71,3.61 -3.27,11.86 2.31,13.8 4.57,2.2 9.33,-1.34 11.29,-5.39 -0.5,-0.61 -1.01,-1.21 -1.52,-1.8 -1.84,4.32 -6.68,3.13 -10.39,3.14 2.81,-3.55 6.26,-6.52 9.3,-9.86 -3.36,-2.04 -7.9,-2.89 -10.99,0.11 z"
       id="path111"
       inkscape:connector-curvature="0"
       style="opacity:1;fill:#f07d00" />
    <path
       d="m 272.91,189.1 c 2.22,-4.91 7.31,-8.06 12.67,-8.14 0.06,1.93 0.12,3.87 0.17,5.8 -2.13,0.71 -4.51,1.25 -5.95,3.12 -3.11,3.32 -1.41,8.52 -3.96,12.15 -2.46,4.48 -7.36,6.83 -12.26,7.46 -0.08,-1.96 -0.14,-3.93 -0.21,-5.88 2.3,-0.94 5.02,-1.53 6.54,-3.68 2.41,-3.12 1.21,-7.44 3,-10.83 z"
       id="path113"
       inkscape:connector-curvature="0"
       style="opacity:1;fill:#f07d00" />
    <path
       d="m 290.4,194.97 c -0.25,-7.62 6.97,-14.6 14.63,-13.83 9.09,-0.09 16.22,10.39 12.68,18.82 -2.3,6.75 -9.78,10.29 -16.61,9.32 0.3,-1.94 0.64,-3.88 1,-5.81 3.06,0.16 6.45,-0.31 8.47,-2.89 3.72,-3.9 2.08,-11.1 -3,-12.94 -4.67,-2.38 -10.98,1.35 -11.28,6.54 -0.42,9.26 0.36,18.56 -0.36,27.8 -2,-1.62 -3.75,-3.52 -5.53,-5.36 0.01,-7.22 -0.04,-14.44 0,-21.65 z"
       id="path115"
       inkscape:connector-curvature="0"
       style="opacity:1;fill:#f07d00" />
    <path
       d="m 332.5,181.78 c 7.08,-2.45 15.58,1.42 17.94,8.62 3.15,7.67 -2.35,17.04 -10.38,18.52 -7.64,1.92 -16.12,-3.95 -16.8,-11.84 -1.07,-6.48 3,-13.26 9.24,-15.3 m 1.92,5.66 c -3.51,1.15 -5.96,4.96 -5.52,8.62 0.45,3.3 2.95,6.08 6.14,6.96 5.72,1.89 12.03,-4.39 9.97,-10.11 -1.16,-4.49 -6.28,-6.94 -10.59,-5.47 z"
       id="path117"
       inkscape:connector-curvature="0"
       style="opacity:1;fill:#f07d00" />
    <path
       d="m 356.79,193.97 c 0.3,-7.2 6.95,-12.93 14.02,-12.99 0,1.88 0,3.77 0,5.66 -3.73,0.79 -7.63,3.2 -8.01,7.34 -0.37,5.12 0,10.27 -0.17,15.41 -1.91,-0.05 -3.84,0.11 -5.71,-0.28 -0.38,-5.03 -0.18,-10.1 -0.13,-15.14 z"
       id="path119"
       inkscape:connector-curvature="0"
       style="opacity:1;fill:#f07d00" />
    <path
       d="m 403.66,188.47 c 2.31,-4.62 7.36,-7.64 12.55,-7.33 0,1.91 0.02,3.82 0.02,5.73 -3.03,0.54 -6.2,2 -7.37,5.08 -1.12,3.58 -0.7,7.69 -3.06,10.84 -2.56,4.12 -7.28,6.16 -11.95,6.65 -0.06,-1.92 -0.1,-3.84 -0.15,-5.76 2.71,-1.04 5.86,-1.99 7.29,-4.78 1.49,-3.3 0.81,-7.23 2.67,-10.43 z"
       id="path121"
       inkscape:connector-curvature="0"
       style="opacity:1;fill:#f07d00" />
    <path
       d="m 43.96,207.96 c 2.18,-7.94 7.5,-14.48 12.97,-20.43 17.98,2.69 36.01,5.06 54.07,7.07 -7.12,15.01 -13.75,30.36 -17.76,46.53 6.37,-6.75 12.91,-13.35 19.34,-20.04 3.84,3.84 8.43,6.91 13.58,8.72 14.9,5.5 31.04,6.22 46.76,6.37 -0.41,5.11 -1.45,10.14 -1.78,15.27 4.9,-5.5 9.39,-11.35 14.26,-16.87 9.53,0.53 19.06,1.02 28.6,1.16 -8.2,17.37 -17.13,34.39 -25.6,51.62 -4.65,10.03 -10.87,19.2 -16.93,28.4 -7.71,-3.26 -15.61,-6.06 -23.33,-9.3 3.86,-13.17 7.7,-26.34 11.51,-39.52 -9.88,11.13 -18.6,23.28 -28.56,34.33 0.58,-3.02 1.43,-5.97 2.33,-8.91 -4.24,1.91 -8.05,4.73 -12.4,6.37 -14.45,-1.45 -28.78,-5.32 -41.79,-11.86 -14.1,-7.13 -26.42,-18.56 -32.73,-33.23 -6.31,-14.28 -6.71,-30.75 -2.54,-45.68 z"
       id="path123"
       inkscape:connector-curvature="0"
       style="opacity:1;fill:#f07d00" />
    <path
       d="m 369.86,362.9 c 3.36,-2.65 6.83,-5.16 10.31,-7.65 4.55,4.81 3.9,13.64 -2.08,16.94 -4.99,1.31 -10.76,0.94 -15.09,-2.1 1.4,-3.14 4.26,-5.12 6.86,-7.19 z"
       id="path125"
       inkscape:connector-curvature="0"
       style="opacity:1;fill:#f07d00" />
    <path
       d="m 214.94,358.01 c 0.65,-2.24 2.91,-1.01 4.27,-0.23 5.09,3 10.05,6.24 14.89,9.64 -3.01,4.98 -9.95,5.88 -15.11,4.36 -5.42,-1.96 -5.74,-9.15 -4.05,-13.77 z"
       id="path127"
       inkscape:connector-curvature="0"
       style="opacity:1;fill:#f07d00" />
  </g>
  <g
     id="#ffffffff"
     transform="matrix(0.08235954,0,0,0.08235954,-0.82767364,0.23927296)">
    <path
       d="m 336.34,40.36 c 6.3,-6.42 12.53,-12.9 18.88,-19.27 0.04,23.58 0.02,47.16 0.01,70.73 8.79,1.03 18.38,-0.33 25.35,-6.19 6.79,-5.24 10.43,-13.68 10.76,-22.13 6.73,0.05 13.45,0 20.18,0.04 0.08,13.86 -6.34,27.2 -16.47,36.51 7.03,5.64 13.41,12.39 17.08,20.76 6.3,13.46 3.35,28.67 4.06,43 -6.64,0.68 -13.33,0.22 -19.98,0.33 -0.25,-8.39 0.24,-16.79 -0.27,-25.16 -0.6,-10.38 -7.45,-20.08 -17.03,-24.11 -7.4,-3.53 -15.77,-2.18 -23.67,-2.45 0.04,17.1 -0.09,34.19 0.07,51.29 -6.61,0.91 -13.32,0.27 -19.97,0.41 -0.09,-40.03 0.01,-80.07 -0.05,-120.1 0.05,-1.29 -0.19,-2.82 1.05,-3.66 z"
       id="path130"
       inkscape:connector-curvature="0"
       style="opacity:1;fill:#ffffff" />
    <path
       d="m 427.6,39.7 c 6.07,-6.16 12.14,-12.32 18.19,-18.49 0.19,23.5 -0.21,47.02 0.2,70.52 6.45,0.24 13.33,0.72 19.27,-2.36 9.95,-4.4 16.76,-14.89 16.6,-25.8 6.81,-0.09 13.61,-0.07 20.42,-0.01 -0.14,13.85 -6.28,27.53 -16.84,36.55 12.23,8.59 21.2,22.65 21.32,37.86 -0.05,8.65 0.14,17.3 -0.09,25.94 -6.64,0.56 -13.34,0.13 -19.99,0.19 -0.05,-8.04 0.02,-16.08 -0.04,-24.11 -0.03,-11.45 -8.15,-22.14 -18.87,-25.87 -6.96,-2.63 -14.51,-1.43 -21.76,-1.69 -0.46,17.23 0,34.47 -0.24,51.7 -6.52,0.04 -13.04,0.02 -19.56,0.01 -0.12,-40.4 -0.03,-80.8 -0.05,-121.2 -0.24,-1.34 0.48,-2.4 1.44,-3.24 z"
       id="path132"
       inkscape:connector-curvature="0"
       style="opacity:1;fill:#ffffff" />
    <path
       d="m 302.15,63.44 c 6.69,0.1 13.38,-0.07 20.07,0.1 -0.02,33.39 -0.09,66.78 0.04,100.17 -6.63,0.94 -13.36,0.22 -20.03,0.45 -0.06,-1.72 -0.1,-3.44 -0.13,-5.16 0.07,-12.66 0.03,-25.33 0.02,-37.99 -0.13,-19.2 -0.03,-38.37 0.03,-57.57 z"
       id="path134"
       inkscape:connector-curvature="0"
       style="opacity:1;fill:#ffffff" />
    <path
       d="m 119.84,70.73 c 15.03,-6.72 33.41,-5.06 46.94,4.34 7.66,5.21 13.34,12.69 20.01,19.03 -11.35,11.15 -22.37,22.68 -33.97,33.54 -8.91,0.24 -17.84,0.05 -26.76,0.08 10.97,-11.16 21.94,-22.32 32.81,-33.58 -5.39,-4.11 -11.88,-7.29 -18.82,-7.01 -11.61,-0.75 -22.7,7.11 -26.98,17.72 -2.09,4.7 -2.15,9.98 -1.66,15.02 1.56,10.46 9.6,19.51 19.67,22.61 11.63,3.77 25.23,-1.14 31.94,-11.3 3.21,-4.62 4.76,-10.2 4.79,-15.79 6.83,-0.06 13.67,-0.17 20.51,0.07 -0.38,13.7 -6.16,27.31 -16.58,36.37 -10.43,9.28 -24.98,13.81 -38.81,11.77 -13.77,-1.69 -26.62,-9.77 -34.17,-21.4 C 92,131.93 89.19,119.03 91.47,106.92 94.04,91.1 105.14,77.06 119.84,70.73 Z"
       id="path136"
       inkscape:connector-curvature="0"
       style="opacity:1;fill:#ffffff" />
    <path
       d="m 210.37,80.3 c 10.74,-10.54 26.68,-15.73 41.54,-12.94 14.54,2.41 27.66,11.85 34.74,24.76 5.56,9.58 7.21,21.09 5.36,31.95 -2.72,14.54 -12.35,27.67 -25.55,34.41 -10.45,5.54 -22.91,7 -34.39,4.2 1.41,-6.55 3.21,-13.01 4.74,-19.54 9.73,2.86 20.63,-0.52 27.64,-7.69 9.42,-9.55 10.81,-25.85 2.65,-36.61 -8.12,-11.9 -25.74,-15.4 -37.9,-7.81 -8.31,4.88 -13.88,14.25 -13.86,23.92 -0.07,31.43 0.09,62.86 -0.08,94.29 -6.69,-6.56 -13.2,-13.3 -19.85,-19.9 -0.01,-24.78 0,-49.57 0,-74.35 0.01,-12.95 5.62,-25.74 14.96,-34.69 z"
       id="path138"
       inkscape:connector-curvature="0"
       style="opacity:1;fill:#ffffff" />
  </g>
  <g
     id="#aeb9bfff"
     transform="matrix(0.08235954,0,0,0.08235954,-0.82767364,0.23927296)">
    <path
       d="m 264.4,234.58 c 8.31,-1.49 16.82,-1.32 25.21,-2.04 3.28,13.75 5.95,27.64 9.3,41.37 2.03,-11.65 3.98,-23.3 6.09,-34.93 0.39,-2.78 1.83,-6.28 5.06,-6.47 6.86,-0.14 13.67,1.03 20.53,1.11 13.37,1.19 26.89,1.88 39.98,5.1 5.27,1.49 11.24,3.46 13.95,8.65 5.1,9.1 8.06,19.21 10.69,29.25 2.53,11.34 6.13,22.43 10.53,33.18 -11.6,2.17 -23.45,4.47 -34.03,9.91 10.27,1.71 20.25,5.16 29.25,10.44 -19.85,10.99 -39.95,21.54 -60.01,32.14 -6.1,-9.76 -11.39,-20.06 -17.99,-29.49 -0.74,8.42 0.27,16.84 0.63,25.25 1.87,27.74 5.79,55.3 9.17,82.88 -5.12,1.88 -10.08,4.17 -15.12,6.22 -4.16,-6.31 -9.31,-11.89 -13.57,-18.12 -7.52,-10.96 -15.32,-22.07 -19.24,-34.93 -1.16,-3.72 -1.11,-7.71 -0.33,-11.5 3.02,-14.57 6.49,-29.04 9.49,-43.62 -2.04,0.26 -4.08,0.53 -6.12,0.79 2.85,-15.06 7.16,-29.8 9.9,-44.88 -4.11,3.58 -7.04,8.27 -11.18,11.82 0.52,-17.56 1.21,-35.15 0.52,-52.71 -0.21,-4.61 -1.15,-10 -5.47,-12.56 -5.35,-3.2 -11.64,-4.2 -17.24,-6.86 z"
       id="path141"
       inkscape:connector-curvature="0"
       style="opacity:1;fill:#aeb9bf" />
    <path
       d="m 442.69,327.75 c 5.29,-2.28 10.47,-5.17 16.25,-6.01 9.66,-1.13 19.27,1.78 28.16,5.26 -1.16,4.01 -4.67,6.75 -7.57,9.55 -11.73,9.81 -27.52,13.33 -42.51,13.28 -5.4,-0.1 -10.88,0.23 -16.2,-0.85 11.43,-2.99 23.31,-5.41 33.59,-11.52 1.26,-1.04 3.32,-1.79 3.57,-3.58 -5.74,-2.35 -11.98,-2.89 -18,-4.09 0.34,-1.22 1.75,-1.47 2.71,-2.04 z"
       id="path143"
       inkscape:connector-curvature="0"
       style="opacity:1;fill:#aeb9bf" />
    <path
       d="m 399.79,368.63 c 3.4,-1.6 6.59,-3.77 10.32,-4.57 0.42,12.72 0.99,25.45 2.19,38.12 -8.75,7.46 -17.72,14.66 -26.72,21.82 0.13,-15.37 1.21,-30.71 1.25,-46.08 0.15,-1.03 -0.26,-2.51 0.87,-3.12 3.9,-2.3 8.08,-4.06 12.09,-6.17 z"
       id="path145"
       inkscape:connector-curvature="0"
       style="opacity:1;fill:#aeb9bf" />
    <path
       d="m 358.14,409.08 c 1.46,-8.13 6.15,-15.3 12.08,-20.9 2.3,14.25 4.92,28.47 6.71,42.79 -2.77,3.6 -5.45,7.25 -8.12,10.91 -0.67,0.64 -1.06,1.92 -2.18,1.79 -6.59,-10.08 -10.7,-22.49 -8.49,-34.59 z"
       id="path147"
       inkscape:connector-curvature="0"
       style="opacity:1;fill:#aeb9bf" />
    <path
       d="m 285.33,460.41 c 1.09,-0.5 2.19,-0.99 3.31,-1.4 l -0.58,1.7 c 10.01,-0.19 19.99,0.88 30,0.95 7.16,-0.06 14.29,0.56 21.44,0.81 7.56,10.28 15.5,20.28 23.03,30.58 l -0.01,0.82 c -5.85,8.19 -13.13,15.48 -21.37,21.26 2.97,-6.83 6.86,-13.45 8.03,-20.9 -0.21,-4.35 -5.38,-5.37 -8.86,-5.73 -5.01,-6.2 -9.54,-12.79 -14.85,-18.74 -0.23,2.7 -0.42,5.41 -0.61,8.13 -13.25,-5.65 -26.43,-11.49 -39.53,-17.48 z"
       id="path149"
       inkscape:connector-curvature="0"
       style="opacity:1;fill:#aeb9bf" />
  </g>
</svg>
