<?xml version="1.0" encoding="iso-8859-1"?>
<!-- Generator: Adobe Illustrator 16.0.0, SVG Export Plug-In . SVG Version: 6.00 Build 0)  -->
<!DOCTYPE svg PUBLIC "-//W3C//DTD SVG 1.1//EN" "http://www.w3.org/Graphics/SVG/1.1/DTD/svg11.dtd">
<svg version="1.1" id="Layer_1" xmlns="http://www.w3.org/2000/svg" xmlns:xlink="http://www.w3.org/1999/xlink" x="0px" y="0px"
	 width="64px" height="64px" viewBox="0 0 64 64" style="enable-background:new 0 0 64 64;" xml:space="preserve">
<g>
	<path style="fill-rule:evenodd;clip-rule:evenodd;fill:none;" d="M0,64C0,42.667,0,21.333,0,0c21.333,0,42.667,0,64,0
		c0,21.333,0,42.667,0,64C42.667,64,21.333,64,0,64z M11.482,53.961c0.825,0.009,1.651,0.02,2.477,0.023
		c0.134,0.001,0.318,0.058,0.322-0.184c0.025-0.16-0.046-0.236-0.205-0.236c-1.034,0-2.068,0-3.132,0c0,1.593,0,3.131,0,4.684
		c1.093,0,2.151,0,3.21,0c0.26-0.124,0.271-0.247-0.003-0.367c-0.851,0.001-1.701,0.002-2.551,0.003
		c-0.042-0.002-0.084-0.005-0.126-0.007c-0.145-0.573-0.037-1.147-0.084-1.77c0.783,0,1.498,0,2.212,0
		c0.251,0,0.488-0.006,0.305-0.431c-0.813,0-1.647,0-2.482,0c-0.078-0.536,0.065-1.023-0.077-1.494
		c0.016-0.039,0.021-0.08,0.018-0.122C11.404,54.027,11.443,53.994,11.482,53.961z M36.589,56.478c0.485,0,0.971,0,1.476,0
		c0.439,0.582,0.885,1.173,1.322,1.752c0.183,0.046,0.343,0.084,0.54-0.033c-0.446-0.607-0.888-1.207-1.34-1.822
		c1.007-0.413,1.322-0.818,1.251-1.537c-0.07-0.702-0.53-1.176-1.377-1.25c-0.75-0.066-1.51-0.014-2.294-0.014
		c0,1.582,0,3.105,0,4.622c0.088,0.089,0.193,0.074,0.299,0.052C36.774,57.677,36.536,57.067,36.589,56.478z M41.563,5.604
		c1.861,0.656,3.533,1.613,4.958,3.004c0.483,0.473,1.13,0.737,1.776,0.964c1.158,0.408,2.36,0.507,3.572,0.511
		c3.354,0.012,6.707,0.006,10.06,0c0.152,0,0.336,0.082,0.48-0.117c-1.264-1.604-2.757-2.928-4.611-3.802
		c-1.097-0.517-2.239-0.909-3.487-0.814c-0.252-0.014-0.505-0.039-0.758-0.039C50.017,5.31,46.48,5.311,42.944,5.311
		c-0.751,0-1.502,0-2.252,0c-0.008,0.032-0.016,0.064-0.023,0.096C40.967,5.473,41.265,5.539,41.563,5.604z M2.014,34.657
		c-0.132,0.013-0.283-0.046-0.38,0.106c0.137,0.083,0.275,0.068,0.415,0.031c11.809,0,23.616,0.006,35.425-0.004
		c2.913-0.002,5.72-0.577,8.409-1.704c4.592-1.925,8.36-4.956,11.634-8.653c0.61-0.689,1.211-1.386,1.756-2.225
		c-0.211,0-0.314,0-0.418,0c-8.792,0-17.584,0.001-26.377-0.002c-1.888,0-3.772,0.063-5.645,0.315
		c-3.856,0.519-7.328,1.91-10.137,4.676c-3.999,3.937-8.938,6.019-14.269,7.359c-0.052,0.012-0.104,0.023-0.156,0.035
		C2.186,34.613,2.1,34.635,2.014,34.657z M23.479,20.417c7.071-0.111,13.994,0.16,20.91-0.148c2.791-0.125,5.412-0.978,7.454-2.972
		c2.71-2.646,5.959-4.194,9.56-5.136c0.192-0.05,0.445-0.004,0.543-0.235c-0.353,0-0.713,0-1.074,0
		c-7.539,0-15.078-0.003-22.617,0.006c-0.677,0.001-1.358,0.047-2.028,0.141c-3.354,0.467-6.214,2.001-8.782,4.14
		C25.992,17.42,24.69,18.769,23.479,20.417z M55.526,42.085c0,2.621,0,5.177,0,7.737c0.545,0,1.047,0,1.624,0
		c0-1.618,0-3.208,0-4.969c1.354,1.771,2.596,3.395,3.793,4.961c0.528,0,0.966,0,1.438,0c0-2.593,0-5.148,0-7.702
		c-0.575,0-1.093,0-1.673,0c0,1.571,0,3.098,0,4.77c-0.679-0.892-1.264-1.662-1.851-2.43c-0.603-0.79-1.207-1.58-1.809-2.368
		C56.541,42.085,56.056,42.085,55.526,42.085z M51.855,45.974c0.021-2.264-1.751-4.017-4.081-4.038
		c-2.291-0.021-4.159,1.712-4.187,3.884c-0.03,2.326,1.686,4.131,3.954,4.16C50.005,50.011,51.835,48.313,51.855,45.974z
		 M6.626,45.131c-1.24,0-2.438,0-3.624,0c0-0.546,0-1.028,0-1.583c1.396,0,2.763,0,4.137,0c0-0.533,0-0.989,0-1.429
		c-1.953,0-3.871,0-5.793,0c0,2.59,0,5.129,0,7.691c1.971,0,3.907,0,5.853,0c0-0.495,0-0.947,0-1.468c-1.433,0-2.824,0-4.202,0
		c0-0.577,0-1.082,0-1.651c1.218,0,2.414,0,3.63,0C6.626,46.165,6.626,45.702,6.626,45.131z M12.523,47.546
		c0.751-0.025,1.43,0.002,2.104-0.109c1.327-0.218,2.234-1.093,2.344-2.299c0.132-1.451-0.474-2.496-1.754-2.871
		c-1.426-0.417-2.885-0.106-4.319-0.211c0,2.66,0,5.201,0,7.754c0.554,0,1.071,0,1.625,0C12.523,49.054,12.523,48.337,12.523,47.546
		z M19.855,48.728c0.957,0.827,2.024,1.213,3.195,1.234c1.071,0.019,2.104-0.224,2.673-1.259c0.72-1.308,0.157-2.654-1.311-3.206
		c-0.671-0.252-1.374-0.419-2.054-0.648c-0.35-0.118-0.585-0.372-0.526-0.769c0.058-0.386,0.336-0.565,0.708-0.615
		c0.406-0.054,0.806-0.033,1.184,0.132c0.384,0.166,0.759,0.352,1.187,0.552c0.268-0.388,0.54-0.78,0.835-1.207
		c-1.085-0.848-2.283-1.147-3.589-0.91c-1.205,0.22-1.938,1.054-1.998,2.142c-0.063,1.151,0.429,1.805,1.726,2.248
		c0.579,0.197,1.179,0.337,1.755,0.542c0.386,0.137,0.778,0.336,0.68,0.856c-0.092,0.481-0.471,0.594-0.905,0.635
		c-0.989,0.093-1.807-0.303-2.573-0.898C20.51,47.95,20.198,48.32,19.855,48.728z M37.062,48.344c0-2.146,0-4.195,0-6.24
		c-0.579,0-1.101,0-1.635,0c0,2.592,0,5.151,0,7.705c1.878,0,3.716,0,5.564,0c0-0.5,0-0.956,0-1.464
		C39.694,48.344,38.429,48.344,37.062,48.344z M29.697,42.1c0,2.602,0,5.154,0,7.718c0.565,0,1.084,0,1.632,0
		c0-2.584,0-5.136,0-7.718C30.779,42.1,30.259,42.1,29.697,42.1z M33.436,55.892c-0.002-1.353-1.021-2.395-2.359-2.413
		c-1.324-0.018-2.416,1.083-2.419,2.441c-0.003,1.375,1.061,2.452,2.405,2.437C32.422,58.342,33.438,57.287,33.436,55.892z
		 M23.318,56.627c0.676-0.063,1.275,0.04,1.856-0.125c0.697-0.199,1.153-0.749,1.178-1.419c0.022-0.599-0.39-1.199-1.017-1.39
		c-0.822-0.25-1.662-0.108-2.492-0.122c0,1.615,0,3.139,0,4.658c0.172,0.045,0.313,0.084,0.475-0.079
		C23.318,57.682,23.318,57.178,23.318,56.627z M51.261,53.993c-0.706-0.505-1.497-0.664-2.348-0.298
		c-0.465,0.2-0.71,0.592-0.715,1.108c-0.005,0.501,0.258,0.829,0.696,1.043c0.443,0.216,0.936,0.265,1.396,0.418
		c0.422,0.14,0.803,0.347,0.727,0.888c-0.077,0.539-0.467,0.708-0.953,0.752c-0.671,0.062-1.229-0.213-1.719-0.595
		c-0.159,0.083-0.254,0.156-0.268,0.313c0.5,0.511,1.146,0.705,1.833,0.736c0.828,0.037,1.505-0.485,1.596-1.164
		c0.094-0.697-0.263-1.129-1.169-1.407c-0.363-0.111-0.733-0.201-1.094-0.322c-0.381-0.128-0.608-0.388-0.557-0.814
		c0.052-0.422,0.353-0.62,0.728-0.69c0.545-0.102,1.049,0.036,1.509,0.344c0.048,0.032,0.107,0.046,0.154,0.066
		C51.203,54.291,51.297,54.21,51.261,53.993z M16.704,57.597c0.542,0.54,1.202,0.75,1.914,0.76c0.825,0.011,1.453-0.493,1.534-1.153
		c0.089-0.717-0.252-1.137-1.155-1.416c-0.384-0.118-0.773-0.217-1.152-0.348c-0.364-0.125-0.549-0.392-0.502-0.785
		c0.047-0.39,0.305-0.593,0.662-0.677c0.569-0.134,1.091,0.001,1.571,0.324c0.047,0.031,0.113,0.035,0.194,0.058
		c0.066-0.104,0.197-0.164,0.135-0.358c-0.604-0.479-1.311-0.611-2.07-0.413c-0.562,0.146-0.937,0.518-0.977,1.117
		c-0.041,0.605,0.278,1.01,0.843,1.201c0.44,0.149,0.894,0.259,1.339,0.395c0.405,0.124,0.681,0.37,0.635,0.827
		c-0.048,0.472-0.37,0.695-0.81,0.758c-0.569,0.082-1.099-0.037-1.568-0.373C17.095,57.369,16.909,57.212,16.704,57.597z
		 M45.859,54.02c0.008-0.268,0.016-0.448-0.18-0.451c-1.155-0.013-2.312-0.006-3.444-0.006c-0.06,0.199-0.091,0.321,0.117,0.474
		c0.398,0,0.877,0,1.395,0c0,1.428,0,2.798,0,4.148c0.198,0.116,0.351,0.126,0.532-0.002c0-1.355,0-2.726,0-4.163
		C44.807,54.02,45.305,54.02,45.859,54.02z"/>
	<linearGradient id="SVGID_2_" gradientUnits="userSpaceOnUse" x1="30.6426" y1="14.8521" x2="30.6426" y2="58.0757">
		<stop  offset="0" style="stop-color:#FFFFFF"/>
		<stop  offset="1" style="stop-color:#231F20"/>
	</linearGradient>
	<path style="fill-rule:evenodd;clip-rule:evenodd;fill:url(#SVGID_2_);" d="M2.428,34.556c5.33-1.341,10.27-3.422,14.269-7.359
		c2.809-2.766,6.28-4.157,10.137-4.676c1.872-0.251,3.757-0.315,5.645-0.315c8.793,0.003,17.585,0.002,26.377,0.002
		c0.104,0,0.207,0,0.418,0c-0.545,0.839-1.146,1.536-1.756,2.225c-3.273,3.697-7.042,6.728-11.634,8.653
		c-2.689,1.127-5.496,1.702-8.409,1.704c-11.809,0.01-23.616,0.004-35.425,0.004c-0.012-0.045-0.023-0.091-0.035-0.137
		c0.086-0.022,0.172-0.044,0.258-0.066C2.35,34.696,2.389,34.624,2.428,34.556z"/>
	<linearGradient id="SVGID_3_" gradientUnits="userSpaceOnUse" x1="42.7119" y1="5.6089" x2="42.7119" y2="49.7312">
		<stop  offset="0" style="stop-color:#FFFFFF"/>
		<stop  offset="1" style="stop-color:#231F20"/>
	</linearGradient>
	<path style="fill-rule:evenodd;clip-rule:evenodd;fill:url(#SVGID_3_);" d="M23.479,20.29c1.212-1.648,2.514-2.998,3.965-4.205
		c2.568-2.138,5.428-3.673,8.782-4.14c0.67-0.093,1.352-0.139,2.028-0.14c7.539-0.01,15.078-0.006,22.617-0.006
		c0.361,0,0.722,0,1.074,0c-0.098,0.23-0.351,0.185-0.543,0.235c-3.601,0.941-6.85,2.49-9.56,5.136
		c-2.042,1.994-4.663,2.848-7.454,2.972C37.473,20.45,30.55,20.179,23.479,20.29z"/>
	<path style="fill-rule:evenodd;clip-rule:evenodd;fill:#0F5599;" d="M54.311,5.352c1.248-0.095,2.391,0.297,3.487,0.814
		c1.854,0.874,3.348,2.199,4.611,3.802c-0.145,0.198-0.328,0.117-0.48,0.117c-3.353,0.006-6.706,0.012-10.06,0
		c-1.212-0.004-2.414-0.104-3.572-0.511c-0.646-0.227-1.293-0.492-1.776-0.964c-1.425-1.391-3.097-2.349-4.958-3.004
		c0.213-0.211,0.481-0.118,0.725-0.118c3.768-0.006,7.536-0.002,11.304-0.009C53.833,5.478,54.104,5.577,54.311,5.352z"/>
	<linearGradient id="SVGID_5_" gradientUnits="userSpaceOnUse" x1="58.9531" y1="36.6528" x2="58.9531" y2="64.9583">
		<stop  offset="0" style="stop-color:#FFFFFF"/>
		<stop  offset="1" style="stop-color:#231F20"/>
	</linearGradient>
	<path style="fill-rule:evenodd;clip-rule:evenodd;fill:url(#SVGID_5_);" d="M55.526,42.085c0.529,0,1.015,0,1.522,0
		c0.602,0.788,1.206,1.578,1.809,2.368c0.587,0.769,1.172,1.538,1.851,2.43c0-1.671,0-3.198,0-4.77c0.58,0,1.098,0,1.673,0
		c0,2.554,0,5.109,0,7.702c-0.472,0-0.909,0-1.438,0c-1.197-1.567-2.439-3.191-3.793-4.961c0,1.761,0,3.351,0,4.969
		c-0.577,0-1.079,0-1.624,0C55.526,47.262,55.526,44.706,55.526,42.085z"/>
	<linearGradient id="SVGID_6_" gradientUnits="userSpaceOnUse" x1="47.7217" y1="36.6543" x2="47.7217" y2="64.9571">
		<stop  offset="0" style="stop-color:#FFFFFF"/>
		<stop  offset="1" style="stop-color:#231F20"/>
	</linearGradient>
	<path style="fill-rule:evenodd;clip-rule:evenodd;fill:url(#SVGID_6_);" d="M51.855,45.974c-0.021,2.338-1.851,4.037-4.313,4.006
		c-2.269-0.029-3.984-1.834-3.954-4.16c0.027-2.172,1.896-3.906,4.187-3.884C50.104,41.958,51.876,43.71,51.855,45.974z
		 M47.742,43.483c-1.361-0.021-2.371,1.001-2.391,2.419c-0.021,1.438,0.991,2.529,2.356,2.541c1.316,0.011,2.364-1.021,2.396-2.363
		C50.14,44.617,49.128,43.504,47.742,43.483z"/>
	<linearGradient id="SVGID_7_" gradientUnits="userSpaceOnUse" x1="4.2715" y1="36.6533" x2="4.2715" y2="64.9581">
		<stop  offset="0" style="stop-color:#FFFFFF"/>
		<stop  offset="1" style="stop-color:#231F20"/>
	</linearGradient>
	<path style="fill-rule:evenodd;clip-rule:evenodd;fill:url(#SVGID_7_);" d="M6.626,45.131c0,0.571,0,1.033,0,1.56
		c-1.216,0-2.412,0-3.63,0c0,0.569,0,1.074,0,1.651c1.378,0,2.77,0,4.202,0c0,0.521,0,0.974,0,1.468c-1.945,0-3.882,0-5.853,0
		c0-2.562,0-5.101,0-7.691c1.922,0,3.84,0,5.793,0c0,0.439,0,0.896,0,1.429c-1.374,0-2.741,0-4.137,0c0,0.556,0,1.037,0,1.583
		C4.188,45.131,5.386,45.131,6.626,45.131z"/>
	<linearGradient id="SVGID_8_" gradientUnits="userSpaceOnUse" x1="13.9434" y1="36.6538" x2="13.9434" y2="64.9577">
		<stop  offset="0" style="stop-color:#FFFFFF"/>
		<stop  offset="1" style="stop-color:#231F20"/>
	</linearGradient>
	<path style="fill-rule:evenodd;clip-rule:evenodd;fill:url(#SVGID_8_);" d="M12.523,47.546c0,0.791,0,1.508,0,2.264
		c-0.554,0-1.071,0-1.625,0c0-2.553,0-5.094,0-7.754c1.435,0.105,2.894-0.207,4.319,0.211c1.28,0.375,1.886,1.42,1.754,2.871
		c-0.109,1.206-1.017,2.082-2.344,2.299C13.953,47.548,13.274,47.521,12.523,47.546z M12.559,43.61c0,0.807,0,1.577,0,2.386
		c0.484,0,0.928,0,1.371,0c0.085,0,0.171,0.015,0.255,0.008c0.632-0.058,1.103-0.545,1.127-1.163
		c0.025-0.667-0.349-1.156-1.028-1.221C13.721,43.568,13.149,43.61,12.559,43.61z"/>
	<linearGradient id="SVGID_9_" gradientUnits="userSpaceOnUse" x1="22.9453" y1="36.6528" x2="22.9453" y2="64.959">
		<stop  offset="0" style="stop-color:#FFFFFF"/>
		<stop  offset="1" style="stop-color:#231F20"/>
	</linearGradient>
	<path style="fill-rule:evenodd;clip-rule:evenodd;fill:url(#SVGID_9_);" d="M19.855,48.728c0.343-0.407,0.654-0.777,0.985-1.171
		c0.767,0.596,1.584,0.991,2.573,0.898c0.435-0.041,0.813-0.153,0.905-0.635c0.099-0.52-0.294-0.719-0.68-0.856
		c-0.576-0.204-1.176-0.344-1.755-0.542c-1.297-0.442-1.789-1.096-1.726-2.248c0.06-1.088,0.793-1.922,1.998-2.142
		c1.306-0.238,2.504,0.062,3.589,0.91c-0.295,0.427-0.567,0.819-0.835,1.207c-0.428-0.2-0.803-0.386-1.187-0.552
		c-0.378-0.165-0.777-0.186-1.184-0.132c-0.372,0.049-0.65,0.229-0.708,0.615c-0.059,0.397,0.177,0.651,0.526,0.769
		c0.68,0.229,1.383,0.396,2.054,0.648c1.468,0.552,2.03,1.898,1.311,3.206c-0.569,1.035-1.602,1.277-2.673,1.259
		C21.88,49.941,20.813,49.554,19.855,48.728z"/>
	<linearGradient id="SVGID_10_" gradientUnits="userSpaceOnUse" x1="38.209" y1="36.6538" x2="38.209" y2="64.9571">
		<stop  offset="0" style="stop-color:#FFFFFF"/>
		<stop  offset="1" style="stop-color:#231F20"/>
	</linearGradient>
	<path style="fill-rule:evenodd;clip-rule:evenodd;fill:url(#SVGID_10_);" d="M37.062,48.344c1.367,0,2.633,0,3.93,0
		c0,0.508,0,0.965,0,1.464c-1.849,0-3.687,0-5.564,0c0-2.553,0-5.112,0-7.705c0.534,0,1.056,0,1.635,0
		C37.062,44.149,37.062,46.198,37.062,48.344z"/>
	<linearGradient id="SVGID_11_" gradientUnits="userSpaceOnUse" x1="30.5137" y1="36.6533" x2="30.5137" y2="64.9584">
		<stop  offset="0" style="stop-color:#FFFFFF"/>
		<stop  offset="1" style="stop-color:#231F20"/>
	</linearGradient>
	<path style="fill-rule:evenodd;clip-rule:evenodd;fill:url(#SVGID_11_);" d="M29.697,42.1c0.562,0,1.082,0,1.632,0
		c0,2.582,0,5.134,0,7.718c-0.548,0-1.066,0-1.632,0C29.697,47.254,29.697,44.702,29.697,42.1z"/>
	<path style="fill-rule:evenodd;clip-rule:evenodd;fill:#5E5E5F;" d="M33.436,55.892c0.002,1.395-1.014,2.45-2.373,2.465
		c-1.345,0.015-2.408-1.063-2.405-2.437c0.003-1.358,1.095-2.459,2.419-2.441C32.415,53.498,33.434,54.539,33.436,55.892z
		 M29.175,55.862c-0.016,1.175,0.772,2.033,1.875,2.043c1.086,0.01,1.868-0.806,1.879-1.958c0.01-1.139-0.768-1.991-1.837-2.015
		C30.013,53.908,29.19,54.737,29.175,55.862z"/>
	<path style="fill-rule:evenodd;clip-rule:evenodd;fill:#616162;" d="M36.466,58.249c-0.105,0.021-0.211,0.037-0.299-0.052
		c0-1.517,0-3.041,0-4.622c0.784,0,1.544-0.052,2.294,0.014c0.847,0.075,1.307,0.548,1.377,1.25
		c0.071,0.719-0.244,1.124-1.251,1.537c0.452,0.615,0.894,1.215,1.34,1.822c-0.197,0.117-0.357,0.08-0.54,0.033
		c-0.438-0.579-0.883-1.17-1.322-1.752c-0.505,0-0.99,0-1.476,0C36.317,57.052,36.52,57.66,36.466,58.249z M36.608,54.059
		c-0.253,0.59-0.217,1.184-0.023,1.779c0.599,0.316,1.234,0.139,1.849,0.106c0.549-0.03,0.915-0.393,0.927-0.947
		c0.013-0.568-0.354-0.883-0.916-0.942C37.833,53.991,37.22,53.985,36.608,54.059z"/>
	<path style="fill-rule:evenodd;clip-rule:evenodd;fill:#616163;" d="M23.318,56.627c0,0.551,0,1.054,0,1.523
		c-0.161,0.163-0.303,0.124-0.475,0.079c0-1.519,0-3.042,0-4.658c0.83,0.013,1.67-0.128,2.492,0.122
		c0.627,0.19,1.039,0.791,1.017,1.39c-0.024,0.67-0.48,1.221-1.178,1.419C24.594,56.667,23.994,56.564,23.318,56.627z
		 M23.351,56.138c0.59,0.038,1.139,0.08,1.674-0.056c0.527-0.134,0.836-0.489,0.813-1.053c-0.022-0.563-0.345-0.914-0.896-0.965
		c-0.516-0.049-1.039-0.011-1.592-0.011C23.351,54.736,23.351,55.402,23.351,56.138z"/>
	<path style="fill-rule:evenodd;clip-rule:evenodd;fill:#5D5D5F;" d="M11.348,54.183c0.143,0.471-0.001,0.958,0.077,1.494
		c0.835,0,1.669,0,2.482,0c0.184,0.425-0.054,0.432-0.305,0.431c-0.714-0.001-1.429,0-2.212,0c0.047,0.623-0.061,1.197,0.084,1.77
		c0.021,0.025,0.04,0.049,0.061,0.076c0.022-0.024,0.044-0.046,0.065-0.068c0.85-0.001,1.7-0.002,2.551-0.003
		c0.001,0.122,0.002,0.245,0.003,0.367c-1.059,0-2.117,0-3.21,0c0-1.552,0-3.09,0-4.684c1.063,0,2.098,0,3.132,0
		c0.159,0,0.23,0.076,0.205,0.236c-0.749,0-1.498-0.007-2.247,0.004c-0.189,0.003-0.429-0.104-0.552,0.157
		c-0.039,0.033-0.078,0.066-0.117,0.1c-0.027,0.017-0.054,0.034-0.083,0.052C11.305,54.137,11.326,54.16,11.348,54.183z"/>
	<path style="fill-rule:evenodd;clip-rule:evenodd;fill:#605F61;" d="M51.261,53.993c0.036,0.217-0.058,0.298-0.183,0.376
		c-0.047-0.02-0.106-0.034-0.154-0.066c-0.46-0.308-0.964-0.446-1.509-0.344c-0.375,0.07-0.676,0.269-0.728,0.69
		c-0.052,0.426,0.176,0.686,0.557,0.814c0.36,0.121,0.73,0.211,1.094,0.322c0.906,0.277,1.263,0.71,1.169,1.407
		c-0.091,0.679-0.768,1.201-1.596,1.164c-0.687-0.031-1.333-0.225-1.833-0.736c0.014-0.157,0.108-0.23,0.268-0.313
		c0.49,0.382,1.048,0.657,1.719,0.595c0.486-0.044,0.876-0.213,0.953-0.752c0.076-0.541-0.305-0.748-0.727-0.888
		c-0.461-0.153-0.953-0.202-1.396-0.418c-0.438-0.214-0.701-0.542-0.696-1.043c0.005-0.516,0.25-0.908,0.715-1.108
		C49.764,53.33,50.555,53.488,51.261,53.993z"/>
	<path style="fill-rule:evenodd;clip-rule:evenodd;fill:#5F5F61;" d="M16.704,57.597c0.205-0.385,0.391-0.228,0.593-0.083
		c0.47,0.336,0.999,0.455,1.568,0.373c0.439-0.063,0.762-0.286,0.81-0.758c0.046-0.457-0.229-0.703-0.635-0.827
		c-0.445-0.136-0.898-0.246-1.339-0.395c-0.564-0.191-0.884-0.596-0.843-1.201c0.04-0.6,0.415-0.971,0.977-1.117
		c0.76-0.198,1.466-0.066,2.07,0.413c0.063,0.194-0.068,0.253-0.135,0.358c-0.081-0.023-0.147-0.027-0.194-0.058
		c-0.48-0.322-1.002-0.458-1.571-0.324c-0.357,0.084-0.615,0.288-0.662,0.677c-0.047,0.393,0.138,0.66,0.502,0.785
		c0.379,0.13,0.769,0.229,1.152,0.348c0.903,0.279,1.244,0.699,1.155,1.416c-0.081,0.66-0.709,1.164-1.534,1.153
		C17.906,58.347,17.246,58.137,16.704,57.597z"/>
	<path style="fill-rule:evenodd;clip-rule:evenodd;fill:#6A686A;" d="M45.859,54.02c-0.555,0-1.053,0-1.58,0
		c0,1.437,0,2.808,0,4.163c-0.182,0.128-0.334,0.118-0.532,0.002c0-1.351,0-2.72,0-4.148c-0.518,0-0.996,0-1.395,0
		c-0.208-0.152-0.177-0.275-0.117-0.474c1.133,0,2.289-0.007,3.444,0.006C45.875,53.571,45.867,53.751,45.859,54.02z"/>
	<path style="fill-rule:evenodd;clip-rule:evenodd;fill:#1D4B95;" d="M54.311,5.352c-0.207,0.225-0.478,0.126-0.72,0.126
		c-3.768,0.007-7.536,0.003-11.304,0.009c-0.243,0-0.512-0.093-0.725,0.118c-0.298-0.066-0.596-0.132-0.894-0.198
		c0.008-0.032,0.016-0.064,0.023-0.096c0.75,0,1.501,0,2.252,0c3.536,0,7.072-0.001,10.608,0.001
		C53.806,5.313,54.059,5.338,54.311,5.352z"/>
	<path style="fill-rule:evenodd;clip-rule:evenodd;fill:#4D4C4E;" d="M11.482,53.961c0.123-0.261,0.362-0.154,0.552-0.157
		c0.749-0.011,1.498-0.004,2.247-0.004c-0.004,0.241-0.188,0.185-0.322,0.184C13.134,53.98,12.308,53.97,11.482,53.961z"/>
	<path style="fill-rule:evenodd;clip-rule:evenodd;fill:#424143;" d="M36.466,58.249c0.054-0.589-0.148-1.197,0.123-1.771
		C36.536,57.067,36.774,57.677,36.466,58.249z"/>
	<path style="fill-rule:evenodd;clip-rule:evenodd;fill:#928F90;" d="M2.014,34.657c0.012,0.046,0.023,0.091,0.035,0.137
		c-0.14,0.038-0.278,0.052-0.415-0.031C1.73,34.611,1.882,34.669,2.014,34.657z"/>
	<path style="fill-rule:evenodd;clip-rule:evenodd;fill:#444446;" d="M14.154,58.248c-0.001-0.122-0.002-0.245-0.003-0.367
		C14.425,58.001,14.414,58.124,14.154,58.248z"/>
	<path style="fill-rule:evenodd;clip-rule:evenodd;fill:#928F90;" d="M2.428,34.556c-0.039,0.068-0.078,0.14-0.156,0.035
		C2.324,34.579,2.376,34.567,2.428,34.556z"/>
	<path style="fill-rule:evenodd;clip-rule:evenodd;fill:#4D4C4E;" d="M11.348,54.183c-0.021-0.023-0.043-0.045-0.065-0.07
		c0.029-0.018,0.056-0.035,0.083-0.052C11.369,54.103,11.363,54.144,11.348,54.183z"/>
	<path style="fill-rule:evenodd;clip-rule:evenodd;fill:#444446;" d="M11.601,57.885c-0.021,0.022-0.043,0.044-0.065,0.068
		c-0.021-0.026-0.04-0.051-0.061-0.076C11.517,57.88,11.559,57.882,11.601,57.885z"/>
	<path style="fill-rule:evenodd;clip-rule:evenodd;fill:none;" d="M47.742,43.483c1.386,0.021,2.397,1.134,2.362,2.597
		c-0.032,1.341-1.08,2.374-2.396,2.363c-1.365-0.012-2.377-1.103-2.356-2.541C45.371,44.484,46.381,43.462,47.742,43.483z"/>
	<path style="fill-rule:evenodd;clip-rule:evenodd;fill:none;" d="M12.559,43.61c0.591,0,1.162-0.042,1.725,0.011
		c0.68,0.064,1.054,0.553,1.028,1.221c-0.024,0.618-0.495,1.105-1.127,1.163c-0.084,0.007-0.17-0.008-0.255-0.008
		c-0.443-0.001-0.887,0-1.371,0C12.559,45.187,12.559,44.417,12.559,43.61z"/>
	<path style="fill-rule:evenodd;clip-rule:evenodd;fill:none;" d="M29.175,55.862c0.016-1.125,0.838-1.954,1.917-1.93
		c1.069,0.024,1.847,0.876,1.837,2.015c-0.011,1.153-0.793,1.969-1.879,1.958C29.947,57.896,29.159,57.037,29.175,55.862z"/>
	<path style="fill-rule:evenodd;clip-rule:evenodd;fill:none;" d="M36.608,54.059c0.611-0.074,1.225-0.068,1.836-0.004
		c0.563,0.059,0.929,0.374,0.916,0.942c-0.012,0.554-0.378,0.917-0.927,0.947c-0.614,0.033-1.25,0.21-1.849-0.106
		C36.593,55.246,36.601,54.652,36.608,54.059z"/>
	<path style="fill-rule:evenodd;clip-rule:evenodd;fill:#434244;" d="M36.608,54.059c-0.008,0.593-0.016,1.187-0.023,1.779
		C36.392,55.243,36.355,54.649,36.608,54.059z"/>
	<path style="fill-rule:evenodd;clip-rule:evenodd;fill:none;" d="M23.351,56.138c0-0.736,0-1.402,0-2.085
		c0.553,0,1.076-0.038,1.592,0.011c0.551,0.051,0.873,0.402,0.896,0.965c0.022,0.564-0.286,0.919-0.813,1.053
		C24.489,56.218,23.94,56.176,23.351,56.138z"/>
</g>
</svg>
