<?xml version="1.0" encoding="utf-8"?>
<!-- Generator: Adobe Illustrator 23.0.2, SVG Export Plug-In . SVG Version: 6.00 Build 0)  -->
<svg version="1.1" id="Layer_1" xmlns="http://www.w3.org/2000/svg" xmlns:xlink="http://www.w3.org/1999/xlink" x="0px" y="0px"
	 width="64px" height="64px" viewBox="0 0 64 64" style="enable-background:new 0 0 64 64;" xml:space="preserve">
<g>
	<g>
		<path style="fill:#0E111B;" d="M43.228,19.128c-1.459,0.224-2.678,0.906-3.727,1.928c-1.332,1.296-1.467,2.859-1.042,4.553
			c0.042,0.167,0.099,0.33,0.154,0.494c1.02,3.042,2.62,4.222,5.845,4.301c0.454,0.011,0.908-0.015,1.362-0.012
			c2.496,0.017,4.245,1.297,4.912,3.698c0.175,0.629,0.39,0.725,0.992,0.591c4.119-0.917,8.203-1.968,12.275-3.069
			c0,0.303,0,0.606,0,0.909c-0.101,0.025-0.119,0.103-0.128,0.193c-0.17,1.611-0.4,3.218-0.48,4.833
			c-0.027,0.55-0.666,1.012-0.451,1.296c0.398,0.524,0.284,1.018,0.257,1.525c-0.103,1.899-0.271,3.795-0.359,5.694
			c-0.027,0.591-0.235,0.794-0.81,0.882c-5.224,0.801-10.441,1.643-15.677,2.364c-3.891,0.536-7.781,1.077-11.695,1.429
			c-0.516,0.047-1.061-0.03-1.552,0.218c-0.865,0-1.731,0-2.596,0c-0.082-0.194-0.258-0.11-0.394-0.126
			c-3.066-0.357-6.135-0.69-9.198-1.068c-2.889-0.357-5.775-0.746-8.658-1.148c-2.799-0.39-5.59-0.836-8.391-1.207
			c-0.689-0.091-0.973-0.412-1.162-1.039c-1.106-3.67-1.596-7.457-2.2-11.224C0.349,34.179,0.4,33.179,0,32.26
			c0-0.216,0-0.433,0-0.649c0.138-0.025,0.248,0.033,0.362,0.105c1.875,1.191,4.025,1.469,6.145,1.829
			c2.81,0.476,5.647,0.732,8.48,1.024c0.39,0.04,0.597-0.013,0.758-0.445c0.935-2.511,2.822-3.709,5.452-3.816
			c1.23-0.05,2.465-0.073,3.654-0.434c3.115-0.947,4.641-4.613,3.165-7.536c-0.107-0.212-0.444-0.371-0.245-0.699
			c0.09-0.099,0.145-0.023,0.189,0.045c0.57,0.889,0.917,1.871,1.02,2.908c0.234,2.343-1.754,5.126-4.029,5.718
			c-1.097,0.285-2.226,0.319-3.345,0.381c-2.425,0.135-4.307,1.026-5.176,3.465c-0.072,0.202-0.22,0.378-0.281,0.582
			c-0.135,0.457-0.412,0.561-0.867,0.503c-4.753-0.604-9.539-1.009-14.251-2.354c0.178,1.339,0.343,2.66,0.53,3.978
			c0.416,2.932,0.838,5.863,1.419,8.769c0.1,0.501,0.283,0.735,0.851,0.823c7.153,1.108,14.307,2.201,21.48,3.172
			c3.233,0.438,6.45,0.832,9.748,0.412c8.961-1.143,17.905-2.397,26.85-3.654c0.489-0.069,0.625-0.264,0.634-0.731
			c0.034-1.773,0.094-3.546,0.167-5.318c0.026-0.639,0.094-1.269-0.718-1.675c0.8-0.211,0.719-0.758,0.737-1.275
			c0.047-1.318,0.082-2.638,0.179-3.953c0.038-0.519-0.086-0.55-0.55-0.445c-3.916,0.887-7.821,1.823-11.782,2.499
			c-0.509-2.679-1.184-3.706-2.802-4.265c-0.078-0.064-0.157-0.122-0.265-0.067c-0.06-0.022-0.12-0.045-0.18-0.067
			c-1.007-0.394-2.074-0.335-3.117-0.354c-2.459-0.044-4.38-0.955-5.546-3.205c-0.07-0.193-0.166-0.315-0.375-0.143l0.004,0.013
			c0.595-0.121,0.111-0.449,0.061-0.584c-1.478-3.979,0.776-7.647,4.875-7.897C43.228,18.988,43.228,19.058,43.228,19.128z"/>
		<path style="fill:#161821;" d="M43.228,19.128c0-0.07,0-0.14,0-0.21c0.918-0.134,1.84-0.068,2.761-0.053
			c0.642,0.01,1.284-0.008,1.857-0.364c0.062-0.067,0.124-0.134,0.185-0.202c0.411,0.108,0.594-0.181,0.785-0.454l-0.012,0.01
			c0.108,0.014,0.167-0.021,0.141-0.141l-0.011,0.011c0.117,0.023,0.164-0.024,0.141-0.141l-0.011,0.011
			c0.121,0.027,0.152-0.036,0.143-0.141l-0.013,0.013c0.109,0.015,0.143-0.047,0.144-0.142l-0.012,0.014
			c0.187-0.078,0.202-0.166,0.013-0.263c-0.096-0.169-0.455-0.322-0.033-0.524c0.206,0.28,0.296,0.035,0.435-0.083
			c0.65-0.557,0.736-1.35,0.936-2.107c0.126-0.476,0.004-0.577-0.467-0.578c-2.443-0.003-4.886-0.074-7.329-0.055
			c-2.652,0.02-4.932,0.973-6.748,2.937c-0.958,1.036-1.87,2.11-2.59,3.379c-0.161-0.248-0.287-0.449-0.42-0.645
			c-1.79-2.627-3.971-4.732-7.23-5.39c-0.933-0.188-1.876-0.31-2.824-0.377c-2.138-0.151-4.277-0.114-6.416-0.012
			c-0.453,0.022-0.577,0.166-0.493,0.63c0.123,0.685,0.25,1.364,0.586,1.975c0.198,0.359,0.299,0.817,0.773,0.963
			c0.059,0.377,0.606,0.132,0.659,0.517c-0.072,0.042-0.216-0.054-0.215,0.108c0,0.013,0.141,0.026,0.216,0.039l-0.009-0.007
			c0.054,0.207,0.196,0.283,0.399,0.268l-0.011-0.008c0.03,0.165,0.138,0.177,0.271,0.136l-0.009-0.007
			c0.041,0.226,0.256,0.171,0.393,0.242c0.346,0.105,0.692,0.209,1.038,0.314c-0.008,0.061-0.017,0.123-0.025,0.184
			c-2.414-0.183-4.355-2.529-4.414-5.116c-0.01-0.442,0.135-0.541,0.544-0.549c0.972-0.02,1.943-0.09,2.915-0.143
			c0.119-0.007,0.267,0.047,0.331-0.119c0.216,0,0.433,0,0.649,0c0.736,0.21,1.471,0.212,2.207,0c0.13,0,0.26,0,0.389,0
			c0.899,0.149,1.801,0.282,2.696,0.451c3.364,0.636,5.919,2.478,7.825,5.279c0.069,0.101,0.147,0.195,0.253,0.335
			c0.778-1.375,1.76-2.513,2.902-3.499c1.731-1.495,3.754-2.227,6.055-2.204c2.615,0.026,5.23,0.033,7.845,0.002
			c0.601-0.007,0.651,0.199,0.569,0.702c-0.224,1.369-0.69,2.614-1.623,3.67c-0.793,0.897-1.776,1.333-2.965,1.334
			C45.346,19.118,44.287,19.124,43.228,19.128z"/>
		<path style="fill:#1A1E29;" d="M22.458,13.047c-0.736,0.212-1.471,0.21-2.207,0C20.987,13.047,21.723,13.047,22.458,13.047z"/>
		<path style="fill:#EDEEEF;" d="M20.252,18.79c-0.346-0.105-0.692-0.209-1.038-0.314c0.004-0.068,0.007-0.136,0.01-0.203
			c1.31,0.239,2.632,0.076,3.948,0.113c5.107,0.143,7.713,4.353,5.528,8.939c-0.036,0.076-0.161,0.165,0.029,0.307
			c1.211-1.232,1.481-2.825,1.692-4.495c0.534,0.447,0.704,1.028,0.936,1.607c0.24-0.621,0.265-1.11,0.114-1.68
			c-0.633-2.392-2.108-4.066-4.337-5.1c0.051-0.045,0.102-0.09,0.153-0.136c2.482,1.082,4.143,2.821,4.489,5.611
			c-0.164,0.211-0.15,0.423-0.001,0.635c-0.065,0.852-0.237,1.672-0.76,2.567c-0.01-0.889,0.059-1.635-0.496-2.406
			c-0.135,2.593-2.023,3.946-3.352,5.661c0.116,0.013,0.239,0.027,0.361,0.04c-0.629,0.607-1.44,0.829-2.251,1.029
			c-1.49,0.368-3.013,0.198-4.523,0.227c-1.522,0.029-2.631,0.723-3.422,1.988c-0.473,0.756-0.808,1.574-1.038,2.432
			c-0.08,0.298-0.182,0.423-0.52,0.387c-3.439-0.362-6.86-0.843-10.261-1.47c-1.09-0.201-2.179-0.412-3.323-0.629
			c0.098,0.899,0.186,1.713,0.274,2.526c0.315,2.923,0.629,5.846,0.947,8.768c0.037,0.339,0.044,0.635,0.548,0.702
			c2.721,0.357,5.436,0.77,8.154,1.151c5.242,0.734,10.486,1.453,15.749,2.025c1.847,0.201,3.7,0.512,5.557,0.378
			c2.305-0.166,4.603-0.449,6.897-0.737c7.075-0.888,14.147-1.807,21.222-2.698c0.422-0.053,0.591-0.186,0.603-0.624
			c0.042-1.599,0.104-3.199,0.188-4.797c0.048-0.902-0.05-1.683-1.233-1.874c1.04-0.484,1.039-0.484,1.116-1.549
			c0.012-0.173,0.037-0.344,0.048-0.517c0.063-1.027,0.123-2.055,0.185-3.086c-0.108,0-0.153-0.008-0.194,0.001
			c-3.725,0.864-7.48,1.563-11.256,2.159c-0.552,0.087-0.785,0.04-0.857-0.593c-0.192-1.677-0.884-3.061-2.547-3.764
			c0.061-0.049,0.121-0.099,0.182-0.148c1.618,0.56,2.293,1.586,2.802,4.265c3.961-0.676,7.866-1.612,11.782-2.499
			c0.464-0.105,0.588-0.074,0.55,0.445c-0.097,1.315-0.133,2.635-0.179,3.953c-0.018,0.517,0.062,1.064-0.737,1.275
			c0.812,0.406,0.745,1.036,0.718,1.675c-0.072,1.772-0.133,3.545-0.167,5.318c-0.009,0.467-0.145,0.662-0.634,0.731
			c-8.945,1.258-17.889,2.512-26.85,3.654c-3.298,0.42-6.514,0.026-9.748-0.412c-7.173-0.971-14.327-2.065-21.48-3.172
			c-0.568-0.088-0.751-0.322-0.851-0.823c-0.581-2.906-1.003-5.837-1.419-8.769c-0.187-1.318-0.352-2.639-0.53-3.978
			c4.712,1.346,9.498,1.75,14.251,2.354c0.455,0.058,0.733-0.047,0.867-0.503c0.06-0.204,0.209-0.38,0.281-0.582
			c0.869-2.438,2.751-3.33,5.176-3.465c1.119-0.062,2.248-0.096,3.345-0.381c2.274-0.592,4.263-3.376,4.029-5.718
			c-0.104-1.038-0.451-2.02-1.02-2.908c-0.044-0.068-0.099-0.144-0.189-0.045c0,0,0.006-0.017,0.005-0.017
			c0.042-0.238-0.003-0.359-0.262-0.197c0,0-0.001-0.001-0.001-0.001c0.307-0.212-0.012-0.329-0.093-0.435
			c-0.823-1.071-1.908-1.702-3.235-1.977C22.88,18.741,21.557,18.967,20.252,18.79z"/>
		<path style="fill:#0591FE;" d="M26.373,26.023c-0.366,0.693-1.005,0.894-1.718,0.903c-1.332,0.016-2.664,0.001-3.996-0.001
			c0.632-0.251,1.354-0.114,2.022-0.47c-1.338-0.249-2.643-0.433-3.784-1.146c-0.007-0.004-0.052,0.052-0.079,0.081l-0.002-0.002
			c0.007-0.048,0.085-0.078,0.015-0.147c-0.069-0.069-0.099,0.01-0.146,0.017l-0.003-0.004c0.183-0.185-0.027-0.293-0.093-0.418
			c-0.188-0.357-0.428-0.69-0.493-1.156c2.213,0.073,4.388-0.15,6.566-0.003c1.328,0.382,1.503,0.709,1.113,2.083
			c-0.14,0.197-0.28,0.395-0.458,0.647C25.789,26.428,26.018,26.057,26.373,26.023z"/>
		<path style="fill:#0F1633;" d="M20.246,26.589c-1.929-0.322-3.045-1.488-3.258-3.399c-0.026-0.236-0.123-0.471,0.291-0.459
			c2.55,0.069,5.102-0.121,7.649,0.058c1.162,0.082,1.822,0.826,1.839,1.877c0.007,0.442-0.142,0.798-0.469,1.087
			c-0.111,0.006-0.222,0.011-0.333,0.017c0.54-1.522,0.232-2.073-1.298-2.318c-2.316-0.262-4.631-0.039-7.05-0.046
			c0.355,0.682,0.466,1.396,1.066,1.848c0,0,0.003,0.004,0.003,0.004c-0.009,0.097,0.04,0.134,0.131,0.129
			c0,0,0.002,0.002,0.002,0.002c0.674,0.739,1.647,0.83,2.594,1.135C20.972,26.686,20.605,26.542,20.246,26.589z"/>
		<path style="fill:#0E111B;" d="M20.252,18.79c1.305,0.177,2.628-0.049,3.934,0.222c1.327,0.275,2.412,0.907,3.235,1.977
			c0.081,0.106,0.4,0.223,0.093,0.435c-0.305-0.288-0.601-0.587-0.918-0.862c-1.294-1.126-2.876-1.36-4.507-1.447
			c-0.622-0.033-1.242-0.093-1.862-0.141C20.235,18.913,20.244,18.851,20.252,18.79z"/>
		<path style="fill:#CDDAE7;" d="M20.246,26.589c0.36-0.047,0.726,0.097,1.167-0.065c-0.947-0.305-1.92-0.395-2.594-1.135
			c0.027-0.028,0.072-0.085,0.079-0.081c1.141,0.714,2.446,0.897,3.784,1.146c-0.669,0.357-1.391,0.219-2.022,0.47
			C20.379,26.988,20.239,26.878,20.246,26.589z"/>
		<path style="fill:#CDDAE7;" d="M25.965,25.769c0.111-0.006,0.222-0.011,0.333-0.017c0.103,0.027,0.256-0.008,0.252,0.16
			c-0.001,0.039-0.115,0.075-0.176,0.112c-0.355,0.033-0.584,0.405-1.054,0.383c0.178-0.252,0.318-0.449,0.458-0.647
			C25.839,25.762,25.902,25.766,25.965,25.769z"/>
		<path style="fill:#0E111B;" d="M27.514,21.425c0.259-0.162,0.304-0.04,0.262,0.197C27.533,21.763,27.539,21.573,27.514,21.425z"/>
		<path style="fill:#0591FE;" d="M46.208,26.93c-1.309,0-2.619-0.002-3.928,0.002c-0.634,0.002-1.164-0.223-1.621-0.664
			c-0.158-0.153-0.083-0.249-0.005-0.373c0.082,0.042,0.164,0.083,0.246,0.125c0.601,0.053,0.244-0.292,0.183-0.475
			c-0.326-0.969-0.029-1.535,0.966-1.793c0.167-0.043,0.341-0.082,0.511-0.081c1.988,0.003,3.976,0.016,5.964,0.019
			c0.298,0.001,0.333,0.134,0.219,0.361c-0.22,0.438-0.447,0.872-0.671,1.307c-0.14,0.097-0.279,0.195-0.419,0.292
			c-1.139,0.29-2.254,0.678-3.506,0.791C44.849,26.787,45.573,26.664,46.208,26.93z"/>
		<path style="fill:#0F1633;" d="M47.654,25.65c0.14-0.097,0.279-0.195,0.419-0.292c0.652-0.244,0.698-0.919,0.999-1.411
			c0.222-0.363,0.207-0.556-0.323-0.554c-1.832,0.007-3.664-0.038-5.496-0.045c-0.538-0.002-1.078,0.046-1.596,0.215
			c-0.827,0.269-1.116,0.799-0.918,1.645c0.063,0.269,0.23,0.518,0.162,0.812c-0.082-0.042-0.164-0.083-0.246-0.125
			c-1.125-1.25-0.267-3.054,1.454-3.132c2.523-0.115,5.046,0.035,7.568-0.031c0.349-0.009,0.312,0.179,0.285,0.411
			c-0.234,1.972-1.372,3.149-3.35,3.453c-0.355-0.051-0.722,0.099-1.136-0.092c0.276-0.068,0.5-0.111,0.717-0.179
			C46.708,26.164,47.282,26.123,47.654,25.65z"/>
		<path style="fill:#CDDAE7;" d="M47.654,25.65c-0.372,0.473-0.946,0.514-1.461,0.676c-0.217,0.068-0.441,0.111-0.717,0.179
			c0.414,0.191,0.781,0.04,1.136,0.092c0.015,0.292-0.13,0.39-0.404,0.333c-0.634-0.266-1.358-0.143-2.06-0.489
			C45.399,26.328,46.515,25.94,47.654,25.65z"/>
		<path style="fill:#070B16;" d="M47.59,31.371c1.663,0.703,2.355,2.087,2.547,3.764c0.073,0.633,0.305,0.68,0.857,0.593
			c3.776-0.596,7.532-1.295,11.256-2.159c0.041-0.009,0.086-0.001,0.194-0.001c-0.062,1.032-0.122,2.059-0.185,3.086
			c-0.011,0.173-0.036,0.344-0.048,0.517c-0.077,1.065-0.077,1.065-1.116,1.549c1.182,0.19,1.28,0.972,1.233,1.874
			c-0.084,1.598-0.146,3.197-0.188,4.797c-0.012,0.438-0.181,0.571-0.603,0.624c-7.075,0.891-14.147,1.81-21.222,2.698
			c-2.294,0.288-4.592,0.571-6.897,0.737c-1.858,0.134-3.71-0.177-5.557-0.378c-5.263-0.572-10.507-1.29-15.749-2.025
			c-2.718-0.381-5.433-0.794-8.154-1.151c-0.504-0.066-0.511-0.363-0.548-0.702c-0.318-2.922-0.632-5.845-0.947-8.768
			c-0.088-0.814-0.176-1.627-0.274-2.526c1.144,0.217,2.233,0.428,3.323,0.629c3.401,0.626,6.822,1.108,10.261,1.47
			c0.338,0.036,0.441-0.09,0.52-0.387c0.23-0.858,0.565-1.675,1.038-2.432c0.792-1.265,1.901-1.959,3.422-1.988
			c1.509-0.029,3.033,0.141,4.523-0.227c0.81-0.2,1.621-0.423,2.251-1.029c0.295-0.223,0.589-0.446,0.884-0.669
			c0.447-0.006,0.246,0.224,0.135,0.395c-0.496,0.764-1.178,1.313-1.994,1.707c-1.153,0.557-2.382,0.751-3.648,0.771
			c-1.186,0.019-2.256,0.359-3.158,1.152c-0.312,0.274-0.597,0.573-0.738,0.999c0.586-0.294,1.141-0.612,1.747-0.817
			c0.598-0.203,1.218-0.293,1.842-0.362c0.615-0.068,1.224-0.24,1.858-0.148c-1.374,0.627-2.633,1.376-3.699,2.504
			c4.714,1.323,8.453-0.166,11.533-3.745c-0.128,0.832-0.683,1.429-0.912,2.178c0.493-0.293,0.84-0.722,1.162-1.165
			c0.333-0.459,0.63-0.945,0.956-1.44c0.855,1.81,1.766,2.941,2.692,3.278c-0.553-0.903-1.127-1.71-1.492-2.628
			c0.047-0.041,0.095-0.082,0.142-0.123c0.378,0.384,0.748,0.777,1.136,1.151c2.539,2.446,5.54,3.413,9.028,2.795
			c0.406-0.072,0.821-0.129,1.228-0.341c-1.119-1.119-2.389-1.896-3.791-2.495c1.949,0.162,3.92,0.207,5.618,1.422
			c-0.416-0.817-1.042-1.357-1.816-1.734c-0.734-0.357-1.517-0.466-2.325-0.487c-1.558-0.041-3.045-0.35-4.338-1.29
			c-0.661-0.48-0.999-0.911-1.154-1.44c0.019-0.005,0.043-0.02,0.057-0.013c0.076,0.037,0.156,0.071,0.223,0.122
			c1.237,0.925,2.601,1.5,4.157,1.635c1.444,0.126,2.897-0.094,4.336,0.146c0.157,0.026,0.17-0.081,0.133-0.202
			c0.06,0.022,0.12,0.045,0.18,0.067C47.36,31.296,47.433,31.35,47.59,31.371z M34.594,40.217c0.81,1.401,1.531,2.846,2.14,4.347
			c0.267,0.657,0.316,1.603,0.855,1.895c0.564,0.306,1.43,0.054,2.165,0.046c0.043,0,0.087-0.006,0.13-0.002
			c0.288,0.031,0.373-0.101,0.354-0.379c-0.045-0.647-0.078-1.295-0.091-1.943c-0.006-0.314-0.018-0.556-0.444-0.494
			c-0.322,0.047-0.242-0.226-0.254-0.399c-0.106-1.486-0.104-2.982-0.435-4.445c-0.032-0.139-0.061-0.229,0.122-0.288
			c0.152-0.049,0.542,0.16,0.402-0.255c-0.099-0.294-0.132-0.711-0.621-0.705c-0.796,0.009-1.592,0.003-2.478,0.003
			c0.655,1.185,0.739,2.344,0.779,3.516c-0.231-0.27-0.418-0.553-0.597-0.84c-1.294-2.071-3.063-3.098-5.597-2.466
			c0.307,0.246,0.185,0.933,0.915,0.81c0.22-0.037,0.231,0.212,0.267,0.377c0.315,1.467,0.355,2.958,0.4,4.449
			c0.005,0.154,0.014,0.351-0.203,0.32c-0.538-0.075-0.462,0.271-0.45,0.597c0.013,0.367,0.009,0.735,0.019,1.102
			c0.033,1.172,0.034,1.172,1.233,1.168c0.346-0.001,0.694-0.03,1.037,0c0.43,0.038,0.55-0.114,0.525-0.546
			c-0.101-1.726-0.169-3.454-0.237-5.182c-0.009-0.226-0.124-0.473,0.07-0.682L34.594,40.217z M18.83,37.128
			c0.366,0.474,0.073,1.259,0.965,1.231c0.209-0.007,0.175,0.264,0.204,0.426c0.269,1.476,0.26,2.971,0.304,4.462
			c0.004,0.143,0.042,0.37-0.171,0.344c-0.621-0.076-0.506,0.338-0.504,0.691c0.003,0.541,0.021,1.082,0.001,1.622
			c-0.012,0.31,0.098,0.415,0.402,0.423c0.886,0.024,1.773,0.059,2.658,0.116c0.329,0.021,0.407-0.099,0.394-0.403
			c-0.026-0.648-0.018-1.298-0.034-1.947c-0.003-0.138,0.055-0.395-0.127-0.382c-0.779,0.055-0.575-0.499-0.581-0.901
			c-0.023-1.534-0.018-1.521,1.532-1.486c0.362,0.008,0.491,0.11,0.493,0.471c0.004,0.973,0.043,1.946,0.057,2.92
			c0.025,1.797,0.033,1.808,1.803,1.837c0.963,0.016,0.963,0.016,0.944-0.916c-0.008-0.389-0.006-0.779-0.021-1.168
			c-0.014-0.353,0.161-0.821-0.515-0.765c-0.259,0.021-0.157-0.258-0.167-0.406c-0.042-0.626,0.045-1.287-0.132-1.869
			c-0.161-0.531-0.244-0.981-0.128-1.537c0.082-0.39-0.099-0.849-0.21-1.264c-0.266-0.995-0.417-1.105-1.423-1.158
			c-0.734-0.039-1.469-0.076-2.203-0.121C21.233,37.281,20.095,37.208,18.83,37.128z M11.437,44.168
			c0-0.433-0.016-0.866,0.005-1.298c0.018-0.383-0.246-0.383-0.469-0.333c-0.523,0.117-1.24-0.426-1.535,0.229
			c-0.165,0.365-0.258,0.426-0.585,0.414c-1.487-0.051-1.487-0.046-1.488-1.518c0-0.087,0.01-0.175-0.002-0.259
			c-0.052-0.362,0.126-0.439,0.45-0.415c0.582,0.042,1.167,0.051,1.751,0.076c0.267,0.012,0.595,0.038,0.467-0.366
			c-0.107-0.339,0.363-0.95-0.411-0.996c-0.561-0.033-1.126-0.065-1.686-0.032c-0.485,0.028-0.618-0.139-0.629-0.616
			c-0.033-1.421-0.055-1.421,1.346-1.289c0.108,0.01,0.215,0.031,0.323,0.03c0.177-0.001,0.297,0.058,0.29,0.255
			c-0.014,0.375,0.235,0.386,0.514,0.406c1.611,0.116,1.611,0.12,1.345-1.493c-0.011-0.064-0.036-0.127-0.036-0.191
			c-0.004-0.338-0.16-0.459-0.509-0.504c-2.186-0.283-4.367-0.599-6.551-0.903c-0.743-0.103-0.744-0.102-0.649,0.629
			c0.178,1.374,0.177,1.379,1.553,1.531c0.241,0.026,0.394,0.041,0.392,0.355c-0.01,1.601,0.001,3.202,0.011,4.803
			c0.001,0.211-0.049,0.344-0.289,0.283c-0.345-0.088-0.406,0.087-0.389,0.379c0.017,0.302,0.048,0.613-0.005,0.907
			c-0.114,0.635,0.188,0.794,0.755,0.843c1.486,0.13,2.969,0.302,4.45,0.476C11.436,45.755,11.435,45.765,11.437,44.168z
			 M61.151,42.303c0-0.606,0.004-1.212-0.001-1.817c-0.006-0.731-0.24-0.945-0.99-0.917c-0.886,0.033-1.773,0.054-2.658,0.106
			c-0.348,0.02-0.485-0.057-0.501-0.445c-0.062-1.437-0.078-1.436,1.35-1.517c0.13-0.007,0.26-0.01,0.389-0.023
			c0.193-0.02,0.356-0.005,0.328,0.253c-0.029,0.267,0.068,0.319,0.332,0.268c2.067-0.399,2.172-0.527,2.136-2.618
			c-0.005-0.299,0.003-0.455-0.407-0.38c-1.933,0.352-3.843,0.831-5.792,1.099c-0.424,0.058-0.603,0.326-0.558,0.788
			c0.099,1.011,0.157,2.027,0.223,3.041c0.051,0.778,0.214,0.942,0.993,0.923c0.887-0.022,1.773-0.063,2.659-0.085
			c0.192-0.005,0.466-0.109,0.46,0.262c-0.01,0.58,0.184,1.289-0.083,1.7c-0.225,0.347-1.003,0.141-1.534,0.203
			c-0.021,0.002-0.043,0-0.065,0.003c-0.21,0.027-0.348-0.041-0.313-0.277c0.074-0.488-0.226-0.452-0.553-0.423
			c-0.366,0.032-0.735,0.05-1.102,0.042c-0.309-0.007-0.412,0.1-0.393,0.415c0.046,0.756,0.076,1.513,0.077,2.27
			c0.001,0.324,0.101,0.4,0.414,0.368c1.592-0.164,3.186-0.306,4.778-0.462c0.569-0.056,0.836-0.374,0.817-0.957
			C61.136,43.515,61.151,42.909,61.151,42.303z M15.485,46.055c1.191,0.078,2.12,0.124,3.045,0.206
			c0.354,0.031,0.452-0.081,0.433-0.422c-0.027-0.496-0.009-0.994-0.011-1.491c-0.007-1.677-0.007-1.677-1.686-1.606
			c-0.065,0.003-0.13-0.002-0.194,0.001c-0.128,0.006-0.205,0.075-0.183,0.203c0.132,0.756-0.387,0.575-0.793,0.556
			c-0.281-0.013-0.562-0.053-0.841-0.039c-0.351,0.018-0.442-0.137-0.426-0.462c0.028-0.578-0.19-1.316,0.09-1.691
			c0.268-0.358,1.047-0.057,1.601-0.086c0.172-0.009,0.346,0.003,0.519,0.006c0.255,0.005,0.591,0.064,0.468-0.359
			c-0.098-0.339,0.311-0.952-0.473-0.962c-0.605-0.008-1.21-0.047-1.815-0.033c-0.395,0.009-0.504-0.148-0.531-0.527
			c-0.089-1.272-0.105-1.277,1.167-1.171c0.325,0.027,0.771-0.132,0.808,0.461c0.008,0.128,0.218,0.094,0.343,0.098
			c0.41,0.013,0.824-0.004,1.231,0.039c0.41,0.044,0.424-0.149,0.338-0.45c-0.083-0.29-0.175-0.578-0.24-0.871
			c-0.068-0.301-0.239-0.401-0.544-0.43c-1.914-0.181-3.826-0.384-5.739-0.577c-0.12-0.012-0.268-0.081-0.355,0.056
			c-0.156,0.246,0.321,1.431,0.607,1.469c0.227,0.03,0.277,0.137,0.298,0.334c0.171,1.571,0.178,3.149,0.215,4.726
			c0.004,0.155,0.01,0.36-0.202,0.319c-0.596-0.116-0.496,0.28-0.496,0.619c0.001,0.411,0.025,0.824-0.011,1.231
			c-0.038,0.424,0.071,0.611,0.539,0.633C13.682,45.881,14.715,45.991,15.485,46.055z M39.995,37.581
			c0.272,0.29,0.035,0.924,0.565,0.915c0.479-0.008,0.522,0.256,0.577,0.584c0.222,1.326,0.276,2.666,0.34,4.005
			c0.016,0.33,0.109,0.671-0.438,0.603c-0.275-0.034-0.211,0.199-0.204,0.365c0.025,0.648,0.072,1.297,0.064,1.945
			c-0.005,0.388,0.146,0.462,0.498,0.444c1.641-0.086,3.284-0.145,4.926-0.225c0.45-0.022,1.049,0.08,1.31-0.164
			c0.311-0.291,0.008-0.891,0.032-1.357c0.007-0.129-0.005-0.259-0.009-0.389c-0.05-1.691-0.05-1.682-1.736-1.555
			c-0.282,0.021-0.405,0.096-0.347,0.377c0.082,0.398-0.126,0.445-0.462,0.456c-1.592,0.055-1.592,0.064-1.634-1.516
			c-0.003-0.13,0.01-0.262-0.013-0.389c-0.052-0.286,0.056-0.376,0.343-0.374c0.649,0.004,1.298-0.02,1.946-0.043
			c0.154-0.005,0.336,0.061,0.391-0.208c0.157-0.76-0.106-1.092-0.882-1.068c-0.151,0.005-0.303,0.01-0.454,0.014
			c-1.482,0.035-1.482,0.035-1.693-1.488c0.082-0.015,0.164-0.04,0.247-0.043c0.497-0.02,0.994-0.038,1.491-0.05
			c0.083-0.002,0.229,0.006,0.239,0.042c0.204,0.685,0.763,0.385,1.167,0.392c1.154,0.021,1.138,0.001,0.83-1.132
			c-0.118-0.433-0.31-0.581-0.772-0.527c-0.858,0.101-1.724,0.136-2.588,0.186C42.484,37.453,41.24,37.515,39.995,37.581z
			 M54.449,42.825c-0.042,0-0.083,0-0.125,0c0-0.713,0.022-1.426-0.006-2.138c-0.028-0.715-0.247-0.902-0.971-0.887
			c-0.907,0.02-1.814,0.062-2.722,0.085c-0.175,0.004-0.422,0.102-0.464-0.196c-0.06-0.428-0.097-0.858-0.146-1.287
			c-0.012-0.104,0.038-0.169,0.134-0.175c0.56-0.04,1.121-0.067,1.681-0.11c0.356-0.028,0.222,0.303,0.345,0.445
			c0.084,0.097,0.195,0.064,0.298,0.071c1.69,0.116,1.937-0.187,1.558-1.848c-0.06-0.264-0.157-0.296-0.388-0.272
			c-1.805,0.189-3.611,0.368-5.416,0.551c-0.398,0.041-0.573,0.22-0.451,0.649c0.243,0.856,0.309,1.741,0.379,2.623
			c0.055,0.699,0.252,0.89,0.981,0.881c0.908-0.012,1.815-0.043,2.723-0.053c0.166-0.002,0.443-0.13,0.445,0.195
			c0.005,0.644,0.283,1.396-0.039,1.895c-0.235,0.364-1.01,0.12-1.544,0.163c-0.021,0.002-0.043-0.002-0.065,0.001
			c-0.212,0.026-0.342-0.05-0.31-0.28c0.069-0.491-0.222-0.511-0.587-0.482c-0.344,0.027-0.692,0.037-1.037,0.023
			c-0.332-0.013-0.456,0.099-0.433,0.447c0.058,0.862,0.091,1.726,0.114,2.59c0.007,0.271,0.072,0.375,0.371,0.351
			c1.615-0.131,3.232-0.243,4.849-0.356c0.594-0.042,0.831-0.376,0.826-0.941C54.444,44.121,54.449,43.473,54.449,42.825z
			 M26.936,37.664c0.272,0.24,0.15,0.828,0.619,0.844c0.501,0.017,0.547,0.297,0.612,0.646c0.247,1.323,0.279,2.664,0.332,4.004
			c0.014,0.337,0.084,0.664-0.454,0.597c-0.254-0.032-0.216,0.205-0.211,0.376c0.019,0.692,0.046,1.383,0.052,2.075
			c0.002,0.253,0.043,0.399,0.348,0.398c0.908-0.004,1.816,0.011,2.724,0.029c0.239,0.005,0.357-0.059,0.349-0.326
			c-0.023-0.735-0.03-1.47-0.035-2.205c-0.001-0.196-0.034-0.359-0.274-0.328c-0.47,0.061-0.457-0.242-0.462-0.564
			c-0.022-1.298-0.092-2.591-0.29-3.877c-0.043-0.277-0.478-0.798,0.32-0.76c0.124,0.006,0.107-0.13,0.076-0.198
			c-0.137-0.303-0.19-0.704-0.642-0.708C28.993,37.657,27.984,37.664,26.936,37.664z M18.554,47.037
			c1.072,0.18,2.14,0.383,3.216,0.535c2.379,0.335,4.759,0.661,7.143,0.958c2.157,0.269,4.284,0.242,6.423-0.07
			c1.761-0.257,3.523-0.505,5.286-0.752c1.689-0.237,3.379-0.467,5.068-0.7c-1.435,0.105-2.875,0.088-4.308,0.145
			c-1.851,0.074-3.704,0.168-5.56,0.183c-3.78,0.03-7.555-0.22-11.334-0.151c-0.215,0.004-0.432-0.006-0.645-0.035
			C22.09,46.908,20.318,47.23,18.554,47.037z M22.275,31.657c-1.47-0.429-3.5,0.295-4.332,1.457
			c-0.963,1.344-1.446,2.708-1.113,3.225c0.222-0.657,0.358-1.331,0.766-1.935c0.147,0.368-0.211,0.663,0.042,1.088
			C18.237,33.024,19.691,31.652,22.275,31.657z M49.841,36.157c0.164-1.139-0.171-2.157-0.81-3.09
			c-0.849-1.24-3.067-1.593-4.156-1.391c2.009,0.321,3.926,0.838,4.428,3.314c0.019-0.18,0.039-0.36,0.063-0.59
			C49.824,34.96,49.675,35.592,49.841,36.157z M36.541,35.421c0.327,0.228,0.526,0.557,0.956,0.391
			c0.163-0.063,0.271-0.002,0.38,0.138c0.342,0.439,0.553,0.511,1.189,0.434C38.316,35.829,37.606,35.289,36.541,35.421z
			 M30.386,35.338c-0.701-0.105-1.318,0.098-1.876,0.506c-0.142,0.104-0.431,0.165-0.269,0.39c0.122,0.168,0.366,0.024,0.525-0.077
			c0.173-0.11,0.244-0.435,0.487-0.366C29.762,35.938,30.029,35.558,30.386,35.338z"/>
		<path style="fill:#EFF2F6;" d="M47.327,31.089c0.037,0.121,0.024,0.228-0.133,0.202c-1.439-0.24-2.892-0.02-4.336-0.146
			c-1.557-0.135-2.921-0.71-4.157-1.635c-0.067-0.05-0.147-0.084-0.223-0.122c-0.013-0.007-0.037,0.008-0.057,0.013
			c0.156,0.529,0.494,0.96,1.154,1.44c1.293,0.94,2.78,1.249,4.338,1.29c0.809,0.021,1.591,0.13,2.325,0.487
			c0.775,0.377,1.4,0.917,1.816,1.734c-1.698-1.215-3.668-1.26-5.618-1.422c1.402,0.599,2.673,1.376,3.791,2.495
			c-0.407,0.212-0.822,0.269-1.228,0.341c-3.488,0.619-6.489-0.348-9.028-2.795c-0.388-0.374-0.758-0.767-1.136-1.151
			c-0.073-0.096-0.163-0.103-0.265-0.053c0.041,0.059,0.082,0.117,0.123,0.176c0.365,0.919,0.939,1.725,1.492,2.628
			c-0.927-0.337-1.837-1.467-2.692-3.278c-0.327,0.495-0.623,0.981-0.956,1.44c-0.322,0.443-0.669,0.872-1.162,1.165
			c0.23-0.748,0.784-1.345,0.912-2.178c-3.08,3.579-6.819,5.067-11.533,3.745c1.066-1.128,2.325-1.877,3.699-2.504
			c-0.633-0.092-1.243,0.08-1.858,0.148c-0.624,0.069-1.244,0.159-1.842,0.362c-0.606,0.206-1.161,0.523-1.747,0.817
			c0.141-0.425,0.426-0.725,0.738-0.999c0.902-0.793,1.973-1.133,3.158-1.152c1.266-0.02,2.495-0.214,3.648-0.771
			c0.815-0.394,1.498-0.943,1.994-1.707c0.111-0.171,0.312-0.401-0.135-0.395c0.15-0.401,0.458-0.67,0.816-1.061
			c-0.227,2.802-2.262,3.512-4.347,4.217c0.722,0,1.443,0,2.165,0c-1.997,0.475-3.663,1.562-5.453,2.703
			c2.666,0.572,5.022,0.146,7.202-1.213c2.165-1.35,3.741-3.21,4.637-5.674c2.29,5.891,8.133,7.991,11.91,6.842
			c-1.761-1.13-3.478-2.216-5.536-2.624c0.755-0.09,1.487-0.106,2.278-0.067c-2.182-0.629-4.063-1.55-4.444-4.179
			c0.544,0.383,0.842,0.921,1.372,1.179c0.023,0.037,0.055,0.065,0.094,0.083c0.069,0.028,0.139,0.057,0.208,0.085
			c0.025,0.015,0.051,0.03,0.076,0.045c-0.016-0.026-0.032-0.052-0.049-0.078c0.018-0.087-0.033-0.128-0.103-0.156
			c-0.042-0.045-0.083-0.091-0.125-0.136c-0.43-0.545-0.798-1.138-1.313-1.62c-0.131-0.123-0.48-0.255-0.229-0.571
			c0.329,0.054,0.337,0.529,0.702,0.535c0.13-0.016,0.259-0.033,0.389-0.049c1.166,2.251,3.088,3.161,5.546,3.205
			C45.253,30.754,46.32,30.695,47.327,31.089z"/>
		<path style="fill:#091127;" d="M38.274,27.578c-0.365-0.007-0.373-0.481-0.702-0.535c0,0-0.035,0.003-0.035,0.003
			c-0.487-1.209-0.896-2.44-1.04-3.745c-0.012-0.033-0.025-0.067-0.037-0.1c-0.038,0.034-0.075,0.067-0.113,0.101
			c-0.388,0.411-0.653,0.88-0.687,1.458c-0.068,0.022-0.136,0.043-0.203,0.065c-0.01-0.074-0.02-0.149-0.03-0.223
			c-0.011-0.531-0.138-1.048,0.025-1.594c0.664-2.225,1.969-3.893,4.083-4.905c0.202-0.097,0.473-0.106,0.581-0.361
			c0.335-0.12,0.657-0.284,1.023-0.298c0.955-0.083,1.909-0.154,2.871-0.123c0.809,0.026,1.623,0.09,2.43-0.057
			c1.342-0.06,2.391-0.654,3.164-1.746c0.274,0.451-0.309,0.657-0.296,1.034c-0.422,0.202-0.063,0.355,0.033,0.524
			c-0.021,0.087-0.175,0.167-0.013,0.263c0,0,0.012-0.014,0.012-0.014c-0.05-0.003-0.1-0.006-0.151-0.008
			c0.002,0.05,0.004,0.1,0.006,0.151c0,0,0.013-0.013,0.013-0.013c-0.05-0.003-0.099-0.005-0.149-0.008
			c0.002,0.05,0.004,0.099,0.006,0.149c0,0,0.011-0.011,0.011-0.011c-0.049-0.002-0.099-0.005-0.148-0.007
			c0.002,0.049,0.005,0.099,0.007,0.148c0,0,0.011-0.011,0.011-0.011c-0.049-0.002-0.099-0.005-0.148-0.007
			c0.002,0.049,0.005,0.099,0.007,0.148c0,0,0.012-0.01,0.012-0.01c-0.362-0.022-0.62,0.135-0.786,0.454
			c-0.062,0.067-0.124,0.134-0.185,0.202c0.055-0.24-0.093-0.247-0.256-0.211c-0.791,0.177-1.593,0.085-2.39,0.097
			c-0.799,0.012-1.595-0.003-2.393,0.089c-4.483,0.517-6.735,4.959-4.514,8.924c0,0-0.004-0.013-0.004-0.013
			C38.284,27.45,38.279,27.514,38.274,27.578z"/>
		<path style="fill:#EFF2F6;" d="M38.292,27.399c-2.222-3.965,0.031-8.406,4.514-8.924c0.798-0.092,1.595-0.077,2.393-0.089
			c0.797-0.012,1.599,0.079,2.39-0.097c0.163-0.036,0.311-0.029,0.256,0.211c-0.573,0.356-1.215,0.374-1.857,0.364
			c-0.921-0.014-1.843-0.08-2.761,0.053c-4.099,0.25-6.353,3.918-4.875,7.897C38.404,26.95,38.888,27.278,38.292,27.399z"/>
		<path style="fill:#EDEEEF;" d="M38.274,27.578c0.005-0.064,0.009-0.128,0.014-0.192c0.209-0.172,0.306-0.05,0.375,0.143
			C38.534,27.546,38.404,27.562,38.274,27.578z"/>
		<path style="fill:#EFF2F6;" d="M47.59,31.371c-0.157-0.022-0.231-0.076-0.083-0.215c0.108-0.055,0.187,0.003,0.265,0.067
			C47.712,31.273,47.651,31.322,47.59,31.371z"/>
		<path style="fill:#EDF1F4;" d="M49.307,16.551c-0.013-0.377,0.57-0.582,0.296-1.034c-0.093-0.002-0.186-0.004-0.279-0.007
			c0.03-0.063,0.061-0.125,0.091-0.188c0.036-0.048,0.072-0.095,0.108-0.143c0.015-0.052,0.054-0.141,0.041-0.149
			c-0.074-0.046-0.099,0.018-0.121,0.076c-0.044,0.042-0.089,0.084-0.133,0.126c-0.117,0.063-0.244,0.118-0.243,0.282l0.006-0.007
			c-0.647,0.368-1.266,0.761-2.05,0.851c-1.676,0.192-3.339-0.505-5.012-0.037c-0.084,0.023-0.185-0.029-0.174-0.129
			c0.007-0.069,0.07-0.163,0.133-0.19c0.7-0.307,1.381-0.689,2.188-0.618c-0.177,0.242-0.503,0.156-0.815,0.387
			c1.397-0.03,2.684,0.224,3.984,0.094c1.056-0.106,1.758-0.71,2.282-1.7c-2.263-0.062-4.456-0.15-6.631,0.24
			c-0.482,0.086-0.939,0.306-1.408,0.463c-0.24,0.08-0.211,0.172-0.015,0.274c-0.112,0.194-0.277,0.294-0.505,0.284
			c-0.005-0.054-0.01-0.107-0.015-0.161c0.029-0.05,0.059-0.099,0.085-0.15c0.001-0.003-0.03-0.022-0.047-0.033
			c-0.02,0.056-0.04,0.112-0.059,0.167c-0.108,0.079-0.021,0.134,0.024,0.193c-0.204,0.086-0.409,0.172-0.613,0.258
			c-0.017-0.106-0.034-0.211-0.051-0.316c0.01-0.018,0.02-0.036,0.03-0.054c-0.01,0.018-0.02,0.036-0.03,0.054
			c-0.1-0.02-0.199-0.041-0.299-0.061c0.192-0.094,0.384-0.188,0.576-0.283c0.02,0.074,0.04,0.148,0.06,0.222
			c0.001-0.08,0.002-0.16,0.003-0.24c0.248-0.246,0.668-0.207,0.842-0.555c-3.951,0.841-6.563,3.273-8.118,7.001
			c-1.54-3.876-5.828-7.429-8.32-6.925c0.177,0.092,0.34,0.176,0.502,0.26c-0.212,0.129-0.319,0.315-0.306,0.566
			c-0.131-0.044-0.262-0.089-0.393-0.133c-0.066-0.019-0.133-0.039-0.199-0.058c-0.663-0.014-1.325-0.028-1.988-0.042
			c-0.186-0.029-0.321,0.091-0.474,0.16c-0.295-0.068-0.59-0.136-0.885-0.204c1.266-0.217,2.516-0.241,3.772-0.178
			c-2.546-1.084-5.206-0.737-7.928-0.767c0.611,1.122,1.421,1.665,2.588,1.753c1.116,0.085,2.217-0.26,3.343-0.022
			c0.437,0.092,0.074-0.213,0.056-0.341c0.859-0.075,1.536,0.383,2.236,0.77c-0.062,0.045-0.125,0.09-0.187,0.135
			c-1.033-0.297-2.071-0.335-3.138-0.178c-0.872,0.128-1.754,0.204-2.645,0.041c-0.515-0.094-0.937-0.41-1.429-0.539
			c-0.095,0.189,0.126,0.363-0.047,0.51c-0.291-0.175-0.388-0.615-0.832-0.624c0.142,0.272,0.322,0.505,0.381,0.766
			c0.055,0.24-0.142,0.504-0.025,0.768c-0.474-0.145-0.575-0.604-0.773-0.963c-0.336-0.611-0.463-1.29-0.586-1.975
			c-0.084-0.464,0.04-0.608,0.493-0.63c2.139-0.102,4.278-0.139,6.416,0.012c0.949,0.067,1.891,0.189,2.824,0.377
			c3.259,0.658,5.439,2.763,7.23,5.39c0.133,0.195,0.258,0.396,0.42,0.645c0.72-1.269,1.633-2.344,2.59-3.379
			c1.816-1.964,4.096-2.917,6.748-2.937c2.443-0.018,4.886,0.052,7.329,0.055c0.471,0.001,0.593,0.102,0.467,0.578
			c-0.2,0.758-0.286,1.551-0.936,2.107C49.602,16.587,49.512,16.831,49.307,16.551z M17.657,15.25
			c-0.074-0.081-0.116-0.156-0.179-0.188c-0.081-0.041-0.179-0.016-0.153,0.099c0.015,0.066,0.09,0.129,0.154,0.169
			C17.503,15.345,17.571,15.291,17.657,15.25z M50.059,14.439c-0.036-0.016-0.079-0.051-0.105-0.041
			c-0.026,0.01-0.034,0.066-0.049,0.102c0.036,0.016,0.079,0.051,0.105,0.041C50.036,14.531,50.044,14.475,50.059,14.439z
			 M16.944,15.16c0.019-0.037,0.051-0.071,0.05-0.103c-0.001-0.033-0.035-0.064-0.054-0.096c-0.018,0.033-0.05,0.066-0.05,0.098
			C16.89,15.091,16.923,15.124,16.944,15.16z M17.881,15.535c-0.005-0.018-0.007-0.04-0.018-0.054
			c-0.004-0.005-0.03,0.007-0.047,0.012c0.005,0.018,0.007,0.04,0.018,0.054C17.839,15.552,17.865,15.54,17.881,15.535z"/>
		<path style="fill:#091127;" d="M17.52,17.187c-0.117-0.264,0.08-0.527,0.025-0.768c-0.059-0.261-0.24-0.494-0.381-0.766
			c0.444,0.009,0.542,0.449,0.831,0.623c0.02,0.027,0.048,0.051,0.085,0.072c0.68,0.582,1.471,0.871,2.361,0.902
			c1.463,0.207,2.932,0.01,4.398,0.067c0.33-0.046,0.641,0.021,0.943,0.151c0.451,0.165,0.902,0.331,1.352,0.496
			c2.229,1.034,3.704,2.708,4.337,5.1c0.151,0.57,0.127,1.059-0.114,1.68c-0.232-0.579-0.402-1.16-0.936-1.607
			c-0.21,1.67-0.48,3.263-1.692,4.495c-0.19-0.142-0.065-0.231-0.029-0.307c2.185-4.586-0.422-8.796-5.528-8.939
			c-1.316-0.037-2.638,0.126-3.948-0.113c-0.136-0.002-0.25-0.225-0.404-0.038c0,0,0.009,0.007,0.009,0.007
			c-0.015-0.196-0.102-0.249-0.271-0.136c0,0,0.011,0.008,0.011,0.008c-0.026-0.248-0.172-0.317-0.399-0.268
			c0,0,0.009,0.007,0.009,0.007c0.013-0.016,0.039-0.035,0.037-0.049c-0.006-0.034-0.024-0.066-0.038-0.098
			C18.126,17.319,17.579,17.564,17.52,17.187z"/>
		<path style="fill:#EDEEEF;" d="M48.031,18.299c0.165-0.319,0.424-0.476,0.786-0.454C48.625,18.118,48.442,18.406,48.031,18.299z"
			/>
		<path style="fill:#CDDAE7;" d="M18.171,17.845c0.226-0.049,0.372,0.02,0.399,0.268C18.367,18.127,18.225,18.052,18.171,17.845z"/>
		<path style="fill:#CDDAE7;" d="M18.821,18.234c0.153-0.187,0.268,0.036,0.404,0.038c-0.003,0.068-0.007,0.136-0.01,0.203
			C19.077,18.406,18.862,18.461,18.821,18.234z"/>
		<path style="fill:#EDEEEF;" d="M49.327,17.339c-0.161-0.096-0.008-0.176,0.013-0.263C49.529,17.173,49.514,17.26,49.327,17.339z"
			/>
		<path style="fill:#CDDAE7;" d="M18.179,17.704c0.013,0.033,0.032,0.064,0.038,0.098c0.002,0.014-0.024,0.032-0.037,0.049
			c-0.075-0.013-0.216-0.026-0.216-0.039C17.963,17.65,18.107,17.746,18.179,17.704z"/>
		<path style="fill:#CDDAE7;" d="M18.559,18.105c0.17-0.112,0.257-0.059,0.271,0.136C18.697,18.282,18.589,18.27,18.559,18.105z"/>
		<path style="fill:#EDEEEF;" d="M48.805,17.855c-0.002-0.049-0.005-0.099-0.007-0.148c0.049,0.002,0.099,0.005,0.148,0.007
			C48.972,17.833,48.913,17.869,48.805,17.855z"/>
		<path style="fill:#EDEEEF;" d="M48.935,17.725c-0.002-0.049-0.005-0.099-0.007-0.148c0.049,0.002,0.099,0.005,0.148,0.007
			C49.098,17.7,49.051,17.748,48.935,17.725z"/>
		<path style="fill:#EDEEEF;" d="M49.064,17.595c-0.002-0.05-0.004-0.099-0.006-0.149c0.05,0.003,0.099,0.005,0.149,0.008
			C49.217,17.559,49.185,17.622,49.064,17.595z"/>
		<path style="fill:#EDEEEF;" d="M49.194,17.466c-0.002-0.05-0.004-0.1-0.006-0.151c0.05,0.003,0.1,0.005,0.151,0.008
			C49.338,17.42,49.304,17.481,49.194,17.466z"/>
		<path style="fill:#0591FE;" d="M18.079,16.348c-0.036-0.02-0.065-0.044-0.085-0.071c0.174-0.146-0.047-0.32,0.048-0.509
			c0.491,0.13,0.914,0.445,1.429,0.539c0.89,0.163,1.773,0.087,2.645-0.041c1.067-0.157,2.105-0.119,3.138,0.178
			c0.112,0.105,0.287,0.185,0.372,0.074c0.098-0.128-0.081-0.171-0.185-0.21c-0.7-0.387-1.377-0.845-2.236-0.77
			c0,0,0.023-0.006,0.023-0.006c-0.019-0.261-0.244-0.137-0.37-0.199c-0.042-0.065-0.084-0.131-0.126-0.196
			c0.663,0.014,1.325,0.028,1.988,0.042c0.067,0.019,0.133,0.039,0.199,0.058c0.131,0.044,0.262,0.089,0.393,0.133
			c0.116-0.034,0.231-0.067,0.347-0.101c0.146,0.423,0.595,0.342,0.887,0.524c0.752,0.47,1.532,0.896,2.3,1.34
			c-0.808-1.167-1.901-1.912-3.233-2.311c0,0,0.004-0.018,0.004-0.018c-0.162-0.084-0.325-0.168-0.502-0.26
			c2.492-0.504,6.78,3.049,8.32,6.925c1.555-3.728,4.168-6.161,8.118-7.001c-0.174,0.348-0.595,0.309-0.842,0.556
			c-0.022,0.003-0.043,0.008-0.063,0.017c-0.192,0.094-0.384,0.188-0.576,0.283c0,0,0.003,0.011,0.003,0.011
			c-0.886,0.372-1.564,0.98-2.047,1.816c0.706-0.44,1.412-0.88,2.118-1.32c0,0,0.011-0.034,0.011-0.034s-0.007,0.035-0.007,0.035
			c0.086-0.045,0.172-0.09,0.257-0.135c0,0,0.015,0.005,0.015,0.005c0.204-0.086,0.409-0.172,0.613-0.259
			c0,0,0.012-0.015,0.012-0.015c0.227,0.01,0.392-0.091,0.505-0.285c0.079-0.007,0.158-0.014,0.237-0.022
			c0.133,0.04,0.267,0.081,0.4,0.121c0.554-0.179,1.125-0.082,1.689-0.109c0.212-0.01,0.205,0.146,0.264,0.261l0.013-0.01
			c-0.807-0.071-1.488,0.311-2.188,0.618c-0.062,0.027-0.125,0.121-0.133,0.19c-0.011,0.1,0.091,0.153,0.174,0.129
			c1.673-0.468,3.336,0.23,5.012,0.037c0.783-0.09,1.402-0.483,2.05-0.851c0.145,0.213-0.074,0.287-0.166,0.388
			c-0.716,0.79-1.651,1.106-2.679,1.214c-1.254-0.009-2.509-0.057-3.76-0.006c-0.441,0.018-0.96-0.049-1.33,0.34
			c-0.366,0.013-0.688,0.177-1.023,0.298c-0.69-0.008-1.233,0.375-1.752,0.737c-2.128,1.488-3.526,3.37-3.14,6.151
			c0.046,0.219,0.016,0.459,0.183,0.643l-0.013,0.021c0.04,0.471,0.235,0.879,0.533,1.426c0.044-0.901-0.103-1.669,0.445-2.443
			c0.145,0.945,0.344,1.731,0.77,2.433c0.087,0.143,0.099,0.423,0.396,0.336c0,0,0.035-0.003,0.035-0.003
			c-0.251,0.315,0.097,0.448,0.229,0.571c0.515,0.482,0.882,1.075,1.313,1.62c-0.034,0.052-0.068,0.105-0.102,0.157
			c-0.53-0.258-0.828-0.796-1.372-1.179c0.38,2.629,2.261,3.549,4.444,4.179c-0.791-0.039-1.523-0.022-2.278,0.067
			c2.058,0.408,3.775,1.494,5.536,2.624c-3.777,1.149-9.621-0.951-11.91-6.842c-0.896,2.464-2.471,4.323-4.637,5.674
			c-2.18,1.359-4.536,1.785-7.202,1.213c1.79-1.141,3.456-2.228,5.453-2.703c-0.722,0-1.443,0-2.165,0
			c2.084-0.705,4.119-1.415,4.347-4.217c-0.358,0.39-0.666,0.66-0.816,1.061c-0.295,0.223-0.589,0.446-0.884,0.669
			c-0.122-0.014-0.244-0.027-0.361-0.04c1.329-1.715,3.217-3.069,3.352-5.661c0.554,0.771,0.486,1.517,0.496,2.406
			c0.523-0.895,0.695-1.715,0.76-2.567c0-0.212,0.001-0.423,0.001-0.635c-0.346-2.79-2.007-4.529-4.489-5.611
			c-0.483-0.198-0.925-0.566-1.505-0.36c-0.302-0.129-0.613-0.196-0.943-0.151c-0.192-0.399-0.57-0.266-0.844-0.222
			c-0.359,0.058-0.72,0.156-1.071,0.085c-0.763-0.154-1.529-0.007-2.29-0.079c-0.809-0.052-1.538-0.316-2.186-0.807
			C18.32,16.199,18.149,15.971,18.079,16.348z M41.414,16.303c-0.122,0.055-0.284,0.053-0.337,0.224
			c0.197,0.044,0.381,0.068,0.527-0.101C41.619,16.263,41.538,16.249,41.414,16.303z"/>
		<path style="fill:#CDDAE7;" d="M25.781,17.468c0.58-0.206,1.022,0.162,1.505,0.36c-0.051,0.045-0.102,0.09-0.153,0.136
			C26.683,17.799,26.232,17.633,25.781,17.468z"/>
		<path style="fill:#CDDAE7;" d="M31.776,23.439c0,0.212-0.001,0.423-0.001,0.635C31.626,23.862,31.611,23.65,31.776,23.439z"/>
		<path style="fill:#CDDAE7;" d="M18.683,25.254c-0.6-0.453-0.712-1.166-1.066-1.848c2.419,0.007,4.734-0.217,7.05,0.046
			c-0.001,0.075-0.002,0.15-0.003,0.225c-2.178-0.147-4.354,0.076-6.566,0.003c0.065,0.466,0.305,0.799,0.493,1.156
			C18.656,24.961,18.865,25.069,18.683,25.254z"/>
		<path style="fill:#EDF1F4;" d="M24.663,23.676c0.001-0.075,0.002-0.15,0.003-0.225c1.53,0.245,1.839,0.795,1.298,2.318
			c-0.063-0.003-0.125-0.007-0.188-0.01C26.166,24.385,25.992,24.059,24.663,23.676z"/>
		<path style="fill:#CDDAE7;" d="M18.817,25.387c-0.091,0.005-0.14-0.033-0.131-0.129c0.048-0.008,0.077-0.086,0.146-0.017
			C18.901,25.309,18.824,25.34,18.817,25.387z"/>
		<path style="fill:#CDDAE7;" d="M40.901,26.02c0.068-0.295-0.099-0.544-0.162-0.812c-0.198-0.847,0.091-1.376,0.918-1.645
			c0.518-0.169,1.058-0.217,1.596-0.215c1.832,0.007,3.664,0.052,5.496,0.045c0.53-0.002,0.545,0.19,0.323,0.554
			c-0.301,0.492-0.347,1.167-0.999,1.411c0.224-0.436,0.451-0.87,0.671-1.307c0.114-0.227,0.08-0.36-0.219-0.361
			c-1.988-0.003-3.976-0.016-5.964-0.019c-0.171,0-0.345,0.038-0.511,0.081c-0.995,0.258-1.292,0.824-0.966,1.793
			C41.145,25.727,41.502,26.073,40.901,26.02z"/>
		<path style="fill:#F9F9F9;" d="M34.597,40.218c-0.194,0.209-0.079,0.456-0.07,0.682c0.069,1.728,0.136,3.456,0.237,5.182
			c0.025,0.433-0.095,0.584-0.525,0.546c-0.343-0.03-0.691-0.002-1.037,0c-1.199,0.004-1.2,0.004-1.233-1.168
			c-0.01-0.367-0.006-0.735-0.019-1.102c-0.012-0.326-0.087-0.671,0.45-0.597c0.218,0.03,0.208-0.167,0.203-0.32
			c-0.045-1.491-0.084-2.982-0.4-4.449c-0.035-0.164-0.047-0.414-0.267-0.377c-0.73,0.123-0.608-0.564-0.915-0.81
			c2.534-0.631,4.303,0.395,5.597,2.466c0.179,0.287,0.366,0.57,0.597,0.84c-0.04-1.172-0.124-2.33-0.779-3.516
			c0.885,0,1.682,0.007,2.478-0.003c0.489-0.006,0.522,0.411,0.621,0.705c0.14,0.415-0.25,0.207-0.402,0.255
			c-0.184,0.059-0.154,0.149-0.122,0.288c0.331,1.463,0.329,2.96,0.435,4.445c0.012,0.173-0.068,0.446,0.254,0.399
			c0.426-0.062,0.437,0.18,0.444,0.494c0.013,0.648,0.046,1.297,0.091,1.943c0.019,0.278-0.065,0.41-0.354,0.379
			c-0.043-0.005-0.086,0.001-0.13,0.002c-0.734,0.008-1.6,0.26-2.165-0.046c-0.539-0.292-0.588-1.238-0.855-1.895
			c-0.609-1.501-1.329-2.946-2.14-4.347c-0.013,0.015-0.033,0.046-0.038,0.043c-0.062-0.028-0.075-0.017-0.043,0.038
			C34.54,40.272,34.569,40.245,34.597,40.218z"/>
		<path style="fill:#F9F9F9;" d="M18.83,37.128c1.264,0.079,2.403,0.153,3.541,0.221c0.734,0.044,1.469,0.082,2.203,0.121
			c1.006,0.053,1.157,0.163,1.423,1.158c0.111,0.415,0.292,0.874,0.21,1.264c-0.116,0.556-0.033,1.006,0.128,1.537
			c0.177,0.582,0.09,1.243,0.132,1.869c0.01,0.149-0.092,0.428,0.167,0.406c0.676-0.056,0.501,0.412,0.515,0.765
			c0.015,0.389,0.013,0.779,0.021,1.168c0.019,0.932,0.019,0.932-0.944,0.916c-1.769-0.029-1.778-0.041-1.803-1.837
			c-0.014-0.973-0.052-1.946-0.057-2.92c-0.002-0.361-0.13-0.463-0.493-0.471c-1.55-0.035-1.555-0.048-1.532,1.486
			c0.006,0.402-0.198,0.956,0.581,0.901c0.182-0.013,0.124,0.244,0.127,0.382c0.016,0.649,0.007,1.298,0.034,1.947
			c0.012,0.304-0.066,0.424-0.394,0.403c-0.885-0.057-1.771-0.093-2.658-0.116c-0.304-0.008-0.414-0.114-0.402-0.423
			c0.02-0.54,0.002-1.082-0.001-1.622c-0.002-0.353-0.116-0.767,0.504-0.691c0.213,0.026,0.175-0.202,0.171-0.344
			C20.26,41.756,20.269,40.26,20,38.785c-0.029-0.161,0.005-0.432-0.204-0.426C18.903,38.387,19.196,37.602,18.83,37.128z
			 M23.045,38.448c-1.101-0.047-1.102-0.047-0.939,0.952c0.014,0.085,0.048,0.169,0.049,0.254c0.002,0.27,0.119,0.376,0.397,0.367
			c0.452-0.014,0.906,0.005,1.359,0.012c0.158,0.002,0.277,0.002,0.301-0.224c0.092-0.878-0.275-1.33-1.138-1.361
			C23.031,38.446,22.987,38.448,23.045,38.448z"/>
		<path style="fill:#F9F9F9;" d="M11.437,44.168c-0.002,1.596-0.001,1.587-1.582,1.402c-1.482-0.174-2.964-0.346-4.45-0.476
			c-0.568-0.05-0.869-0.209-0.755-0.843c0.053-0.293,0.022-0.605,0.005-0.907c-0.017-0.292,0.044-0.467,0.389-0.379
			c0.241,0.061,0.29-0.072,0.289-0.283c-0.01-1.601-0.02-3.202-0.011-4.803c0.002-0.314-0.152-0.328-0.392-0.355
			c-1.376-0.151-1.375-0.157-1.553-1.531c-0.095-0.731-0.095-0.733,0.649-0.629c2.183,0.304,4.365,0.619,6.551,0.903
			c0.349,0.045,0.504,0.166,0.509,0.504c0.001,0.064,0.026,0.127,0.036,0.191c0.266,1.613,0.266,1.609-1.345,1.493
			c-0.28-0.02-0.528-0.031-0.514-0.406c0.007-0.197-0.113-0.255-0.29-0.255c-0.108,0-0.215-0.02-0.323-0.03
			c-1.401-0.132-1.379-0.132-1.346,1.289c0.011,0.477,0.145,0.644,0.629,0.616c0.56-0.033,1.125-0.001,1.686,0.032
			c0.774,0.046,0.304,0.657,0.411,0.996c0.128,0.404-0.2,0.378-0.467,0.366c-0.584-0.025-1.168-0.034-1.751-0.076
			c-0.324-0.023-0.502,0.053-0.45,0.415c0.012,0.085,0.002,0.173,0.002,0.259c0.001,1.473,0.002,1.468,1.488,1.518
			c0.327,0.011,0.42-0.05,0.585-0.414c0.295-0.655,1.013-0.112,1.535-0.229c0.223-0.05,0.487-0.05,0.469,0.333
			C11.421,43.302,11.437,43.736,11.437,44.168z"/>
		<path style="fill:#F9F9F9;" d="M61.151,42.303c0,0.606-0.015,1.212,0.004,1.817c0.019,0.583-0.248,0.901-0.817,0.957
			c-1.592,0.157-3.187,0.298-4.778,0.462c-0.313,0.032-0.413-0.044-0.414-0.368c-0.002-0.757-0.031-1.514-0.077-2.27
			c-0.019-0.315,0.084-0.422,0.393-0.415c0.367,0.008,0.736-0.011,1.102-0.042c0.327-0.028,0.627-0.065,0.553,0.423
			c-0.036,0.236,0.102,0.304,0.313,0.277c0.021-0.003,0.043,0,0.065-0.003c0.531-0.062,1.31,0.143,1.534-0.203
			c0.267-0.411,0.073-1.12,0.083-1.7c0.006-0.371-0.268-0.267-0.46-0.262c-0.887,0.022-1.773,0.063-2.659,0.085
			c-0.78,0.019-0.943-0.145-0.993-0.923c-0.066-1.014-0.123-2.03-0.223-3.041c-0.045-0.462,0.134-0.729,0.558-0.788
			c1.95-0.268,3.859-0.747,5.792-1.099c0.409-0.075,0.401,0.081,0.407,0.38c0.037,2.091-0.069,2.22-2.136,2.618
			c-0.264,0.051-0.361-0.001-0.332-0.268c0.028-0.258-0.135-0.273-0.328-0.253c-0.129,0.013-0.259,0.016-0.389,0.023
			c-1.428,0.081-1.412,0.08-1.35,1.517c0.017,0.388,0.153,0.465,0.501,0.445c0.885-0.051,1.772-0.073,2.658-0.106
			c0.75-0.028,0.985,0.186,0.99,0.917C61.155,41.091,61.151,41.697,61.151,42.303z"/>
		<path style="fill:#F9F9F9;" d="M15.485,46.055c-0.77-0.063-1.802-0.173-2.838-0.221c-0.468-0.022-0.577-0.209-0.539-0.633
			c0.037-0.408,0.012-0.821,0.011-1.231c-0.001-0.339-0.1-0.736,0.496-0.619c0.211,0.041,0.205-0.164,0.202-0.319
			c-0.037-1.577-0.045-3.155-0.215-4.726c-0.021-0.196-0.071-0.303-0.298-0.334c-0.287-0.038-0.763-1.223-0.607-1.469
			c0.087-0.137,0.235-0.068,0.355-0.056c1.913,0.192,3.825,0.396,5.739,0.577c0.305,0.029,0.476,0.129,0.544,0.43
			c0.066,0.294,0.157,0.582,0.24,0.871c0.086,0.301,0.072,0.494-0.338,0.45c-0.407-0.044-0.82-0.026-1.231-0.039
			c-0.125-0.004-0.335,0.03-0.343-0.098c-0.036-0.592-0.482-0.433-0.808-0.461c-1.271-0.106-1.256-0.1-1.167,1.171
			c0.027,0.379,0.135,0.536,0.531,0.527c0.604-0.014,1.21,0.026,1.815,0.033c0.784,0.01,0.374,0.622,0.473,0.962
			c0.123,0.423-0.214,0.364-0.468,0.359c-0.173-0.003-0.346-0.015-0.519-0.006c-0.554,0.029-1.333-0.272-1.601,0.086
			c-0.281,0.375-0.063,1.113-0.09,1.691c-0.016,0.325,0.075,0.479,0.426,0.462c0.279-0.014,0.561,0.026,0.841,0.039
			c0.406,0.019,0.926,0.201,0.793-0.556c-0.022-0.127,0.055-0.197,0.183-0.203c0.065-0.003,0.13,0.002,0.194-0.001
			c1.679-0.071,1.679-0.071,1.686,1.606c0.002,0.497-0.016,0.995,0.011,1.491c0.019,0.341-0.079,0.453-0.433,0.422
			C17.605,46.179,16.676,46.132,15.485,46.055z"/>
		<path style="fill:#F9F9F9;" d="M39.995,37.581c1.245-0.066,2.49-0.128,3.734-0.2c0.864-0.05,1.73-0.085,2.588-0.186
			c0.462-0.054,0.654,0.094,0.772,0.527c0.308,1.134,0.323,1.153-0.83,1.132c-0.405-0.007-0.964,0.293-1.167-0.392
			c-0.01-0.035-0.157-0.044-0.239-0.042c-0.497,0.013-0.994,0.03-1.491,0.05c-0.083,0.003-0.165,0.028-0.247,0.043
			c0.212,1.523,0.212,1.523,1.693,1.488c0.151-0.004,0.303-0.009,0.454-0.014c0.777-0.024,1.039,0.307,0.882,1.068
			c-0.055,0.269-0.238,0.203-0.391,0.208c-0.648,0.023-1.297,0.047-1.946,0.043c-0.287-0.002-0.395,0.088-0.343,0.374
			c0.023,0.126,0.009,0.259,0.013,0.389c0.043,1.58,0.042,1.571,1.634,1.516c0.336-0.012,0.544-0.058,0.462-0.456
			c-0.058-0.281,0.066-0.355,0.347-0.377c1.686-0.128,1.685-0.137,1.736,1.555c0.004,0.13,0.015,0.26,0.009,0.389
			c-0.024,0.467,0.28,1.066-0.032,1.357c-0.261,0.244-0.859,0.142-1.31,0.164c-1.642,0.079-3.285,0.138-4.926,0.225
			c-0.352,0.019-0.503-0.056-0.498-0.444c0.008-0.648-0.039-1.297-0.064-1.945c-0.006-0.167-0.071-0.4,0.204-0.365
			c0.547,0.068,0.454-0.273,0.438-0.603c-0.064-1.339-0.118-2.679-0.34-4.005c-0.055-0.328-0.098-0.592-0.577-0.584
			C40.03,38.505,40.267,37.872,39.995,37.581z"/>
		<path style="fill:#F9F9F9;" d="M54.449,42.825c0,0.648-0.004,1.296,0.001,1.944c0.005,0.565-0.232,0.9-0.826,0.941
			c-1.617,0.113-3.233,0.226-4.849,0.356c-0.299,0.024-0.364-0.08-0.371-0.351c-0.024-0.864-0.057-1.728-0.114-2.59
			c-0.023-0.348,0.102-0.46,0.433-0.447c0.345,0.013,0.692,0.004,1.037-0.023c0.365-0.029,0.656-0.009,0.587,0.482
			c-0.032,0.23,0.098,0.306,0.31,0.28c0.021-0.003,0.043,0.001,0.065-0.001c0.533-0.043,1.308,0.202,1.544-0.163
			c0.322-0.499,0.044-1.251,0.039-1.895c-0.002-0.325-0.279-0.197-0.445-0.195c-0.908,0.01-1.815,0.041-2.723,0.053
			c-0.729,0.01-0.926-0.182-0.981-0.881c-0.07-0.882-0.136-1.768-0.379-2.623c-0.122-0.43,0.053-0.609,0.451-0.649
			c1.805-0.184,3.611-0.362,5.416-0.551c0.231-0.024,0.328,0.009,0.388,0.272c0.379,1.661,0.132,1.964-1.558,1.848
			c-0.103-0.007-0.214,0.026-0.298-0.071c-0.123-0.142,0.011-0.473-0.345-0.445c-0.56,0.044-1.121,0.071-1.681,0.11
			c-0.095,0.007-0.145,0.071-0.134,0.175c0.048,0.429,0.086,0.86,0.146,1.287c0.042,0.298,0.289,0.2,0.464,0.196
			c0.907-0.023,1.814-0.065,2.722-0.085c0.724-0.016,0.943,0.172,0.971,0.887c0.028,0.712,0.006,1.425,0.006,2.138
			C54.365,42.825,54.407,42.825,54.449,42.825z"/>
		<path style="fill:#F9F9F9;" d="M26.936,37.664c1.049,0,2.057-0.006,3.065,0.003c0.452,0.004,0.505,0.405,0.642,0.708
			c0.031,0.068,0.048,0.204-0.076,0.198c-0.798-0.039-0.363,0.482-0.32,0.76c0.199,1.286,0.268,2.579,0.29,3.877
			c0.005,0.322-0.008,0.625,0.462,0.564c0.24-0.031,0.273,0.132,0.274,0.328c0.005,0.735,0.012,1.471,0.035,2.205
			c0.008,0.267-0.11,0.33-0.349,0.326c-0.908-0.018-1.816-0.033-2.724-0.029c-0.304,0.001-0.346-0.145-0.348-0.398
			c-0.006-0.692-0.033-1.384-0.052-2.075c-0.005-0.171-0.043-0.408,0.211-0.376c0.538,0.067,0.468-0.259,0.454-0.597
			c-0.054-1.34-0.086-2.68-0.332-4.004c-0.065-0.349-0.111-0.629-0.612-0.646C27.086,38.492,27.208,37.904,26.936,37.664z"/>
		<path style="fill:#1A1E29;" d="M18.554,47.037c1.764,0.194,3.535-0.128,5.289,0.113c0.213,0.029,0.43,0.039,0.645,0.035
			c3.779-0.069,7.554,0.182,11.334,0.151c1.856-0.015,3.709-0.11,5.56-0.183c1.433-0.057,2.873-0.04,4.308-0.145
			c-1.689,0.233-3.379,0.463-5.068,0.7c-1.762,0.247-3.525,0.495-5.286,0.752c-2.138,0.312-4.266,0.339-6.423,0.07
			c-2.384-0.298-4.764-0.624-7.143-0.958C20.695,47.42,19.626,47.216,18.554,47.037z"/>
		<path style="fill:#1A1E29;" d="M22.275,31.657c-2.584-0.005-4.038,1.367-4.636,3.835c-0.253-0.425,0.105-0.72-0.042-1.088
			c-0.408,0.604-0.544,1.278-0.766,1.935c-0.333-0.517,0.15-1.881,1.113-3.225C18.775,31.952,20.805,31.227,22.275,31.657z"/>
		<path style="fill:#1A1E29;" d="M49.841,36.157c-0.166-0.565-0.017-1.196-0.474-1.756c-0.025,0.23-0.044,0.41-0.063,0.59
			c-0.502-2.476-2.419-2.993-4.428-3.314c1.089-0.202,3.307,0.15,4.156,1.391C49.67,34,50.005,35.018,49.841,36.157z"/>
		<path style="fill:#D12204;" d="M36.541,35.421c1.065-0.132,1.775,0.408,2.525,0.963c-0.636,0.076-0.847,0.004-1.189-0.434
			c-0.109-0.14-0.216-0.201-0.38-0.138C37.067,35.978,36.868,35.648,36.541,35.421z"/>
		<path style="fill:#D12204;" d="M30.386,35.338c-0.357,0.221-0.624,0.6-1.133,0.454c-0.242-0.07-0.314,0.255-0.487,0.366
			c-0.159,0.101-0.403,0.246-0.525,0.077c-0.163-0.225,0.127-0.286,0.269-0.39C29.068,35.436,29.685,35.233,30.386,35.338z"/>
		<path style="fill:#070B16;" d="M34.694,31.945c-0.041-0.059-0.082-0.117-0.123-0.176c0.102-0.05,0.192-0.043,0.265,0.053
			C34.789,31.864,34.741,31.904,34.694,31.945z"/>
		<path style="fill:#0591FE;" d="M39.342,29.526c0.016,0.026,0.032,0.052,0.049,0.078c-0.025-0.015-0.051-0.03-0.076-0.045
			C39.315,29.559,39.342,29.526,39.342,29.526z"/>
		<path style="fill:#0591FE;" d="M39.315,29.559c-0.069-0.028-0.139-0.057-0.208-0.085c0.044-0.035,0.088-0.069,0.132-0.104
			c0.07,0.029,0.121,0.07,0.103,0.156C39.342,29.526,39.315,29.559,39.315,29.559z"/>
		<path style="fill:#0591FE;" d="M39.114,29.234c0.042,0.045,0.083,0.091,0.125,0.136c-0.044,0.034-0.088,0.069-0.132,0.104
			c-0.04-0.018-0.071-0.046-0.094-0.083C39.046,29.339,39.08,29.286,39.114,29.234z"/>
		<path style="fill:#EDEEEF;" d="M35.223,24.629c-0.386-2.781,1.012-4.663,3.14-6.151c0.519-0.363,1.062-0.746,1.752-0.737
			c-0.109,0.255-0.379,0.264-0.581,0.361c-2.113,1.012-3.419,2.68-4.083,4.905c-0.163,0.547-0.036,1.064-0.025,1.594
			C35.359,24.611,35.291,24.62,35.223,24.629z"/>
		<path style="fill:#EFF2F6;" d="M37.538,27.046c-0.297,0.086-0.309-0.194-0.396-0.336c-0.427-0.702-0.625-1.488-0.77-2.433
			c-0.548,0.774-0.401,1.542-0.445,2.443c-0.298-0.547-0.493-0.955-0.533-1.426c0.302-0.072,0.333-0.278,0.266-0.534
			c0.034-0.578,0.3-1.047,0.687-1.458c0.05,0,0.1,0,0.15,0C36.642,24.606,37.05,25.837,37.538,27.046z"/>
		<path style="fill:#CDDAE7;" d="M41.137,17.443c0.37-0.389,0.89-0.322,1.33-0.34c1.251-0.051,2.507-0.003,3.76,0.006
			c0.07,0.051,0.14,0.102,0.21,0.154c-0.807,0.146-1.621,0.083-2.43,0.057C43.046,17.289,42.092,17.36,41.137,17.443z"/>
		<path style="fill:#EDEEEF;" d="M46.438,17.263c-0.07-0.051-0.14-0.102-0.21-0.154c1.028-0.107,1.963-0.423,2.679-1.214
			c0.092-0.101,0.311-0.175,0.166-0.388c0,0-0.006,0.007-0.006,0.007c0.088,0.14,0.172,0.011,0.257-0.003
			c0.093,0.002,0.186,0.004,0.279,0.007C48.829,16.609,47.781,17.203,46.438,17.263z"/>
		<path style="fill:#EDEEEF;" d="M35.66,24.759c0.067,0.255,0.036,0.462-0.266,0.534c0,0,0.013-0.021,0.013-0.021
			c0.016-0.149,0.033-0.298,0.049-0.447C35.524,24.803,35.592,24.781,35.66,24.759z"/>
		<path style="fill:#EFF2F6;" d="M35.456,24.825c-0.016,0.149-0.033,0.298-0.049,0.447c-0.167-0.184-0.138-0.424-0.184-0.642
			c0.067-0.009,0.135-0.019,0.202-0.028C35.436,24.676,35.446,24.75,35.456,24.825z"/>
		<path style="fill:#EDEEEF;" d="M36.497,23.302c-0.05,0-0.1,0-0.15,0c0.038-0.034,0.075-0.067,0.113-0.101
			C36.473,23.235,36.485,23.268,36.497,23.302z"/>
		<path style="fill:#091127;" d="M41.792,15.12c-0.079,0.007-0.158,0.014-0.237,0.022c-0.196-0.102-0.225-0.194,0.015-0.274
			c0.469-0.157,0.926-0.377,1.408-0.463c2.175-0.39,4.369-0.302,6.631-0.24c-0.524,0.99-1.227,1.594-2.282,1.7
			c-1.3,0.131-2.587-0.123-3.984-0.094c0.312-0.231,0.638-0.146,0.815-0.387c0,0-0.013,0.01-0.013,0.01
			c0.608-0.085,0.832-0.156,1.218-0.395c-1.076-0.039-2.123-0.226-3.172,0.006C42.047,15.007,41.876,14.914,41.792,15.12z"/>
		<path style="fill:#091127;" d="M23.205,15.538c0.017,0.128,0.381,0.433-0.056,0.341c-1.125-0.238-2.226,0.107-3.343,0.022
			c-1.167-0.089-1.977-0.631-2.588-1.753c2.722,0.03,5.381-0.318,7.928,0.767c-1.257-0.063-2.506-0.039-3.772,0.178
			c0.295,0.068,0.59,0.136,0.885,0.203c0.197,0.066,0.393,0.132,0.59,0.197c0.126,0.02,0.238,0.172,0.38,0.038L23.205,15.538z"/>
		<path style="fill:#CDDAE7;" d="M25.66,15.269c-0.116,0.034-0.231,0.067-0.347,0.101c-0.013-0.251,0.094-0.437,0.306-0.566
			c0,0-0.004,0.018-0.005,0.018C25.32,15.003,26.094,15.073,25.66,15.269z"/>
		<path style="fill:#CDDAE7;" d="M22.848,15.493c-0.197-0.066-0.393-0.132-0.59-0.197c0.153-0.069,0.288-0.19,0.474-0.16
			c0.042,0.066,0.084,0.131,0.126,0.197C22.855,15.386,22.851,15.44,22.848,15.493z"/>
		<path style="fill:#EDEEEF;" d="M17.657,15.25c-0.086,0.041-0.154,0.095-0.178,0.08c-0.064-0.04-0.139-0.103-0.154-0.169
			c-0.026-0.115,0.072-0.14,0.153-0.099C17.541,15.094,17.583,15.169,17.657,15.25z"/>
		<path style="fill:#EDEEEF;" d="M40.373,15.383c0.017,0.105,0.034,0.211,0.051,0.316c0,0-0.015-0.004-0.016-0.005
			c-0.133-0.044-0.241-0.041-0.257,0.136l0.007-0.035c0,0-0.011,0.034-0.011,0.033c-0.419-0.11-0.011-0.336-0.07-0.495
			c0,0-0.003-0.011-0.003-0.011C40.174,15.343,40.273,15.363,40.373,15.383C40.373,15.383,40.373,15.383,40.373,15.383z"/>
		<path style="fill:#EDEEEF;" d="M50.059,14.44c-0.016,0.036-0.024,0.091-0.05,0.102c-0.025,0.01-0.069-0.026-0.105-0.041
			c0.016-0.036,0.023-0.091,0.049-0.102C49.98,14.388,50.023,14.424,50.059,14.44z"/>
		<path style="fill:#EFF2F6;" d="M25.441,16.308c0.104,0.039,0.284,0.082,0.185,0.21c-0.085,0.11-0.26,0.031-0.372-0.074
			C25.316,16.398,25.379,16.353,25.441,16.308z"/>
		<path style="fill:#EDEEEF;" d="M16.944,15.16c-0.021-0.036-0.054-0.069-0.054-0.101c0-0.033,0.032-0.066,0.05-0.098
			c0.019,0.032,0.053,0.064,0.054,0.096C16.995,15.089,16.963,15.123,16.944,15.16z"/>
		<path style="fill:#0591FE;" d="M49.324,15.511c-0.086,0.015-0.17,0.143-0.257,0.003c0-0.164,0.126-0.219,0.243-0.282
			c0.035,0.03,0.07,0.061,0.105,0.091C49.385,15.386,49.354,15.449,49.324,15.511z"/>
		<path style="fill:#EDEEEF;" d="M17.881,15.535c-0.016,0.004-0.042,0.017-0.046,0.012c-0.011-0.014-0.013-0.035-0.018-0.054
			c0.016-0.004,0.042-0.017,0.047-0.012C17.874,15.496,17.876,15.517,17.881,15.535z"/>
		<path style="fill:#EDEEEF;" d="M40.65,15.04c0.02-0.009,0.042-0.015,0.063-0.017c-0.001,0.079-0.002,0.159-0.003,0.239
			C40.69,15.188,40.67,15.114,40.65,15.04z"/>
		<path style="fill:#EDEEEF;" d="M41.014,15.248c0.02-0.056,0.04-0.112,0.059-0.167c0.016,0.012,0.048,0.031,0.047,0.033
			c-0.026,0.051-0.056,0.101-0.085,0.15C41.035,15.265,41.014,15.248,41.014,15.248z"/>
		<path style="fill:#CDDAE7;" d="M24.92,15.236c-0.066-0.02-0.133-0.039-0.199-0.058C24.787,15.197,24.853,15.217,24.92,15.236z"/>
		<path style="fill:#EDEEEF;" d="M40.373,15.383c0.01-0.018,0.02-0.036,0.03-0.054C40.393,15.348,40.383,15.366,40.373,15.383
			C40.373,15.383,40.373,15.383,40.373,15.383z"/>
		<path style="fill:#EDEEEF;" d="M41.035,15.265c0.005,0.053,0.01,0.107,0.015,0.161c0,0-0.012,0.015-0.012,0.016
			c-0.046-0.059-0.132-0.114-0.025-0.193C41.014,15.248,41.035,15.265,41.035,15.265z"/>
		<path style="fill:#0591FE;" d="M49.443,15.106c0.021-0.058,0.047-0.122,0.121-0.076c0.013,0.008-0.026,0.098-0.041,0.149
			C49.496,15.156,49.469,15.131,49.443,15.106z"/>
		<path style="fill:#0591FE;" d="M49.522,15.18c-0.036,0.048-0.072,0.095-0.108,0.143c-0.035-0.03-0.07-0.061-0.105-0.091
			c0.044-0.042,0.089-0.084,0.133-0.126C49.469,15.131,49.496,15.156,49.522,15.18z"/>
		<path style="fill:#CDDAE7;" d="M20.633,17.102c0.761,0.071,1.527-0.076,2.29,0.079c0.351,0.071,0.712-0.028,1.071-0.085
			c0.275-0.044,0.652-0.177,0.844,0.222c-1.465-0.057-2.935,0.14-4.398-0.067C20.505,17.201,20.569,17.152,20.633,17.102z"/>
		<path style="fill:#EDEEEF;" d="M20.633,17.102c-0.064,0.05-0.128,0.099-0.192,0.149c-0.889-0.032-1.681-0.32-2.361-0.902
			c0.069-0.377,0.24-0.15,0.367-0.053C19.095,16.786,19.824,17.05,20.633,17.102z"/>
		<path style="fill:#EDF1F4;" d="M25.66,15.269c0.434-0.195-0.34-0.266-0.046-0.447c1.333,0.399,2.426,1.143,3.234,2.311
			c-0.769-0.444-1.548-0.87-2.3-1.34C26.255,15.61,25.806,15.691,25.66,15.269z"/>
		<path style="fill:#EDF1F4;" d="M40.077,15.334c0.059,0.16-0.349,0.386,0.07,0.495c-0.706,0.44-1.412,0.88-2.117,1.32
			C38.513,16.313,39.192,15.705,40.077,15.334z"/>
		<path style="fill:#EDF1F4;" d="M42.191,15.005c1.048-0.233,2.095-0.045,3.172-0.006c-0.385,0.24-0.61,0.311-1.218,0.395
			c-0.059-0.115-0.052-0.272-0.264-0.261c-0.564,0.027-1.135-0.07-1.689,0.109C42.192,15.162,42.191,15.083,42.191,15.005z"/>
		<path style="fill:#EFF2F6;" d="M41.604,16.425c-0.146,0.169-0.33,0.145-0.527,0.101c0.053-0.171,0.215-0.169,0.337-0.224
			C41.477,16.343,41.54,16.384,41.604,16.425z"/>
		<path style="fill:#CDDAE7;" d="M42.191,15.005c0,0.079,0.001,0.158,0.001,0.236c-0.133-0.04-0.267-0.081-0.4-0.121
			C41.876,14.914,42.047,15.007,42.191,15.005z"/>
		<path style="fill:#EDF1F4;" d="M22.848,15.493c0.003-0.054,0.007-0.107,0.01-0.161c0.126,0.062,0.351-0.061,0.37,0.199
			C23.086,15.666,22.974,15.513,22.848,15.493z"/>
		<path style="fill:#EDF1F4;" d="M40.152,15.831c0.016-0.177,0.124-0.18,0.257-0.136C40.323,15.741,40.238,15.786,40.152,15.831z"/>
		<path style="fill:#EDF1F4;" d="M41.604,16.425c-0.063-0.041-0.126-0.082-0.19-0.123C41.538,16.249,41.619,16.263,41.604,16.425z"
			/>
		<path style="fill:#070B16;" d="M34.597,40.218c-0.028,0.027-0.057,0.054-0.085,0.081c-0.032-0.056-0.018-0.066,0.043-0.038
			c0.005,0.002,0.025-0.028,0.038-0.043C34.594,40.217,34.597,40.218,34.597,40.218z"/>
		<path style="fill:#0E111B;" d="M23.045,38.448c-0.058,0-0.014-0.001,0.029,0c0.863,0.031,1.23,0.483,1.138,1.361
			c-0.024,0.226-0.142,0.226-0.301,0.224c-0.453-0.007-0.906-0.026-1.359-0.012c-0.278,0.009-0.395-0.098-0.397-0.367
			c-0.001-0.085-0.035-0.169-0.049-0.254C21.943,38.401,21.943,38.401,23.045,38.448z"/>
	</g>
</g>
<g>
	<g id="_x23_010612ff">
		<path style="fill:#010612;" d="M15.746,13.337c1.519-0.088,3.039-0.166,4.557-0.264c1.608-0.07,3.225,0.034,4.809,0.321
			c1.442,0.273,2.874,0.702,4.144,1.452c1.771,1.039,3.225,2.56,4.336,4.275c0.457-0.962,1.173-1.761,1.886-2.54
			c1.747-2.047,4.426-3.277,7.123-3.207c2.82,0.02,5.641-0.037,8.46,0.045c-0.108,1.146-0.335,2.313-0.933,3.314
			c-0.393,0.645-0.857,1.27-1.475,1.717c-0.57,0.403-1.255,0.652-1.956,0.673c-1.097,0.017-2.195-0.018-3.292,0.015
			c-1.443,0.128-2.793,0.848-3.825,1.846c-0.714,0.694-1.288,1.602-1.331,2.623c-0.094,1.817,0.621,3.612,1.714,5.04
			c0.711,0.952,1.871,1.443,3.018,1.612c1.063,0.184,2.144,0.084,3.216,0.113c0.616,0.016,1.22,0.183,1.776,0.445
			c0.586,0.279,1.178,0.593,1.613,1.088c0.731,0.808,1.108,1.859,1.363,2.901c4.388-0.91,8.729-2.035,13.05-3.223
			c-0.232,2.245-0.476,4.488-0.697,6.734c-0.18,0.142-0.362,0.283-0.542,0.425c0.185,0.231,0.567,0.406,0.509,0.75
			c-0.171,2.451-0.325,4.904-0.501,7.354c-4.912,0.795-9.827,1.567-14.753,2.274c-4.467,0.634-8.937,1.264-13.432,1.664
			c-1.525,0.124-3.062,0.256-4.589,0.071c-4.81-0.471-9.601-1.121-14.394-1.749c-3.875-0.524-7.749-1.048-11.614-1.647
			c-0.326-0.059-0.662-0.085-0.977-0.191c-0.223-0.313-0.309-0.698-0.437-1.054c-0.509-1.644-0.827-3.338-1.136-5.028
			C0.852,37.862,0.394,34.515,0,31.163c0.703,0.367,1.322,0.891,2.074,1.161c1.144,0.425,2.342,0.674,3.535,0.914
			c3.27,0.619,6.578,1.018,9.889,1.341c0.507-1.584,1.548-3.094,3.13-3.743c1.816-0.818,3.862-0.385,5.753-0.862
			c1.147-0.267,2.267-0.849,2.974-1.816c0.667-0.92,1.066-2.03,1.17-3.16c0.122-1.283-0.388-2.553-1.162-3.556
			c-0.636-0.818-1.483-1.5-2.478-1.821c-1.086-0.358-2.235-0.509-3.377-0.499c-1.23-0.053-2.558-0.184-3.554-0.983
			C16.443,17.062,15.652,15.168,15.746,13.337 M16.073,13.662c0.042,1.095,0.322,2.201,0.933,3.121
			c0.669,1.038,1.799,1.725,3.004,1.948c1.115,0.26,2.263,0.011,3.388,0.17c1.154,0.138,2.353,0.469,3.224,1.28
			c0.948,0.886,1.763,1.966,2.137,3.223c0.354,1.148,0.241,2.408-0.235,3.504c-0.496,1.118-1.226,2.185-2.277,2.844
			c-0.819,0.519-1.791,0.715-2.744,0.8c-1.201,0.105-2.413,0.154-3.597,0.403c-0.704,0.151-1.403,0.412-1.96,0.88
			c-0.504,0.413-0.879,0.96-1.167,1.54c-0.318,0.639-0.64,1.277-0.941,1.924c-3.994-0.425-7.99-0.898-11.937-1.661
			c-0.986-0.21-1.983-0.414-2.914-0.811c0.11,1.235,0.295,2.463,0.459,3.692c0.347,2.466,0.71,4.93,1.14,7.383
			c0.152,0.823,0.288,1.652,0.529,2.455c6.824,1.077,13.655,2.117,20.498,3.069c2.321,0.309,4.642,0.637,6.975,0.844
			c1.374,0.144,2.747-0.08,4.113-0.205c4.807-0.543,9.6-1.201,14.393-1.859c4.466-0.618,8.929-1.255,13.392-1.9
			c0.097-2.329,0.167-4.659,0.237-6.989c-0.223-0.217-0.439-0.44-0.66-0.658c0.204-0.122,0.409-0.242,0.615-0.36
			c0.091-1.807,0.158-3.615,0.239-5.422c-3.128,0.712-6.257,1.428-9.399,2.077c-1.003,0.218-2.025,0.335-3.021,0.588
			c-0.001-0.967-0.242-1.947-0.766-2.765c-0.547-0.869-1.452-1.474-2.437-1.735c-1.467-0.4-3.007-0.181-4.495-0.432
			c-1.308-0.205-2.572-0.855-3.394-1.909c-0.914-1.169-1.451-2.624-1.554-4.102c-0.076-1.162,0.182-2.401,0.954-3.305
			c0.825-0.934,1.83-1.769,3.043-2.132c1.443-0.442,2.969-0.307,4.456-0.297c0.965,0.005,1.926-0.369,2.626-1.036
			c1.106-1.05,1.634-2.565,1.824-4.048c-2.852-0.008-5.705-0.057-8.557-0.051c-2.347,0.2-4.668,1.247-6.21,3.056
			c-0.903,1.034-1.854,2.064-2.467,3.305c-0.652-1.141-1.465-2.186-2.383-3.124c-1.163-1.171-2.55-2.164-4.136-2.666
			c-1.295-0.397-2.647-0.567-3.993-0.678C20.698,13.455,18.379,13.493,16.073,13.662z"/>
		<path style="fill:#010612;" d="M25.507,30.913c1.238-0.325,2.333-1.027,3.316-1.828c-0.5,1.183-1.573,2.035-2.748,2.493
			c-1.128,0.453-2.354,0.571-3.559,0.592c-1.616,0.069-3.152,1.04-3.872,2.494c0.638-0.522,1.357-0.952,2.145-1.202
			c0.65-0.224,1.338-0.28,2.014-0.379c0.72-0.095,1.437-0.215,2.158-0.296l0.054-0.127c0.011,0.028,0.034,0.082,0.045,0.11
			c-0.855,0.349-1.707,0.718-2.499,1.197c-0.678,0.434-1.296,0.957-1.888,1.501c2.334,0.709,4.949,0.703,7.191-0.321
			c1.925-0.891,3.535-2.361,4.811-4.037c-0.495,1.158-1.073,2.286-1.816,3.307c1.117-0.844,1.997-1.981,2.606-3.236
			c0.529,1.667,1.752,3.058,3.245,3.942c-1.092-1.116-1.808-2.534-2.414-3.957c1.295,1.652,2.889,3.124,4.816,3.998
			c2.234,1.007,4.835,1.01,7.156,0.302c-0.603-0.544-1.224-1.075-1.911-1.511c-0.786-0.474-1.635-0.83-2.474-1.196
			c1.075,0.163,2.152,0.309,3.228,0.46c1.176,0.163,2.286,0.688,3.187,1.455c-0.563-1.11-1.584-1.981-2.787-2.316
			c-0.81-0.256-1.667-0.169-2.499-0.268c-1.296-0.142-2.604-0.536-3.632-1.364c-0.548-0.433-0.988-0.999-1.264-1.64
			c0.919,0.745,1.928,1.412,3.071,1.756c1.62,0.522,3.339,0.292,5.009,0.35c0.998,0.018,2.031,0.342,2.725,1.09
			c0.889,0.953,1.194,2.287,1.305,3.55c4.105-0.586,8.182-1.363,12.222-2.301c-0.09,1.576-0.202,3.152-0.294,4.728
			c-0.385,0.162-0.765,0.34-1.157,0.484c0.371,0.053,0.78,0.127,1.036,0.43c0.303,0.328,0.315,0.803,0.302,1.224
			c-0.054,1.852-0.149,3.703-0.236,5.553c-4.978,0.65-9.956,1.3-14.937,1.929c-4.347,0.543-8.692,1.109-13.052,1.555
			c-1.305,0.164-2.617,0.004-3.92-0.097c-4.492-0.422-8.965-1.027-13.438-1.619c-4.448-0.603-8.892-1.232-13.333-1.888
			c-0.432-3.981-0.866-7.963-1.301-11.945c4.625,0.963,9.299,1.705,14.004,2.147c0.378-1.415,0.928-2.868,2.024-3.888
			c0.612-0.564,1.427-0.873,2.251-0.929C22.099,31.093,23.842,31.381,25.507,30.913 M20.708,31.591
			c-0.752,0.098-1.559,0.25-2.14,0.776c-0.977,0.875-1.58,2.092-1.945,3.334c-0.117,0.31,0.01,0.622,0.118,0.914
			c0.21-0.77,0.437-1.546,0.838-2.242c-0.068,0.517-0.176,1.031-0.155,1.556c0.366-0.939,0.627-1.942,1.225-2.77
			c0.324-0.466,0.842-0.737,1.342-0.973c0.949-0.431,2.006-0.45,3.025-0.546C22.264,31.433,21.473,31.524,20.708,31.591
			 M43.79,31.645c0.633,0.066,1.275,0.065,1.902,0.189c0.702,0.138,1.377,0.415,1.979,0.803c0.358,0.228,0.731,0.468,0.959,0.837
			c0.363,0.552,0.489,1.209,0.645,1.839c0.018-0.376,0.038-0.751,0.055-1.127c0.332,0.674,0.384,1.424,0.397,2.163
			c0.35-0.247,0.22-0.696,0.178-1.051c-0.137-1.029-0.555-2.056-1.335-2.764c-0.623-0.548-1.47-0.71-2.265-0.831
			C45.472,31.599,44.624,31.512,43.79,31.645 M55.404,36.306c-0.304,0.035-0.701,0.226-0.65,0.59
			c0.114,1.067,0.188,2.137,0.224,3.209c0.019,0.255-0.009,0.549,0.174,0.756c0.155,0.19,0.415,0.234,0.648,0.22
			c1.105-0.038,2.21-0.065,3.315-0.1c0.004,0.696,0.011,1.391,0.015,2.086c-0.678,0.024-1.354,0.071-2.032,0.098
			c-0.002-0.242-0.004-0.484-0.005-0.725c-0.678,0.04-1.358,0.035-2.036,0.083c0.029,1.023,0.066,2.045,0.086,3.069
			c1.757-0.145,3.511-0.323,5.264-0.509c0.409-0.005,0.768-0.37,0.743-0.784c0.004-1.332,0.002-2.664,0.002-3.996
			c0.04-0.41-0.347-0.771-0.751-0.722c-1.124,0.053-2.25,0.075-3.374,0.133c-0.012-0.629-0.053-1.256-0.072-1.883
			c0.696-0.06,1.394-0.1,2.09-0.157c0.006,0.213,0.013,0.427,0.021,0.641c0.789-0.253,1.592-0.457,2.399-0.642
			c-0.008-0.841,0.071-1.679,0.063-2.519C59.48,35.5,57.463,36.024,55.404,36.306 M3.245,35.26c0.027,0.747,0.216,1.473,0.34,2.207
			c0.553,0.038,1.107,0.059,1.66,0.09c0.025,1.812,0.031,3.625,0.028,5.438c-0.228-0.01-0.456-0.02-0.684-0.031
			c0,0.68-0.001,1.36,0,2.04c2.261,0.285,4.527,0.525,6.795,0.74c0.006-1.058,0.006-2.116,0.004-3.174
			c-0.681-0.046-1.364-0.034-2.044-0.087c-0.002,0.247-0.001,0.496,0,0.744c-0.678-0.036-1.357-0.066-2.035-0.109
			c0.002-0.703-0.001-1.407-0.003-2.11c0.904,0.016,1.807,0.053,2.711,0.079c-0.021-0.453-0.038-0.905-0.044-1.358
			c-0.9-0.012-1.798-0.063-2.698-0.076c-0.006-0.655-0.025-1.31-0.056-1.964c0.661,0.054,1.324,0.078,1.984,0.139
			c0.012,0.2,0.025,0.4,0.038,0.601c0.666,0.037,1.333,0.067,2,0.097c-0.062-0.733-0.145-1.464-0.285-2.187
			C8.38,36.022,5.811,35.646,3.245,35.26 M29.449,35.38c-0.332,0.069-0.612,0.271-0.898,0.441c-0.281,0.179-0.555,0.368-0.816,0.575
			c0.417-0.082,1.156,0.027,1.225-0.542c0.176-0.111,0.362-0.066,0.537,0.02c0.35-0.17,0.689-0.36,1.015-0.571
			C30.157,35.311,29.799,35.311,29.449,35.38 M36.426,35.421c0.272,0.175,0.552,0.336,0.842,0.481
			c0.14-0.047,0.275-0.162,0.432-0.128c0.101,0.091,0.185,0.199,0.273,0.304l-0.193,0.075c0.442,0.227,0.93,0.357,1.428,0.357
			c-0.216-0.169-0.429-0.35-0.677-0.47c-0.281-0.176-0.552-0.377-0.865-0.494C37.266,35.423,36.84,35.437,36.426,35.421
			 M11.606,36.418c0.103,0.514,0.186,1.032,0.246,1.553c0.222,0.015,0.444,0.032,0.666,0.049c0.21,1.782,0.228,3.579,0.232,5.371
			c-0.225-0.012-0.45-0.025-0.675-0.037c0.002,0.816-0.004,1.632-0.008,2.448c2.279,0.198,4.56,0.366,6.845,0.488
			c0.003-1.169-0.007-2.337-0.025-3.506c-0.683-0.021-1.367-0.03-2.051-0.045c0.004,0.266,0.009,0.532,0.014,0.798
			c-0.68-0.012-1.36-0.052-2.04-0.069c-0.028-0.754-0.018-1.509-0.048-2.263c0.907,0.024,1.814,0.03,2.72,0.049
			c-0.016-0.442-0.052-0.883-0.073-1.325c-0.897-0.034-1.796-0.026-2.692-0.07c-0.086-0.576-0.104-1.161-0.201-1.735
			c0.667,0.026,1.335,0.057,2.002,0.091c0.029,0.174,0.058,0.349,0.086,0.524c0.673,0.015,1.345,0.054,2.018,0.056
			c-0.102-0.592-0.245-1.179-0.489-1.729C15.953,36.893,13.778,36.667,11.606,36.418 M48.294,37.063
			c-0.24,0.012-0.473,0.101-0.635,0.283c0.324,1.06,0.408,2.171,0.496,3.27c0.019,0.332,0.309,0.628,0.649,0.617
			c1.159,0.005,2.317-0.057,3.476-0.061c0.047,0.732,0.061,1.467,0.089,2.2c-0.679,0.017-1.357,0.051-2.035,0.073
			c-0.012-0.26-0.023-0.52-0.029-0.779c-0.681,0.014-1.36,0.046-2.04,0.053c0.038,1.123,0.077,2.247,0.139,3.369
			c1.773-0.064,3.542-0.237,5.311-0.368c0.471,0.008,0.781-0.482,0.73-0.917c-0.041-1.436-0.078-2.873-0.138-4.308
			c0.013-0.378-0.342-0.693-0.71-0.678c-1.143,0.012-2.285,0.085-3.427,0.072c-0.074-0.55-0.101-1.106-0.191-1.655
			c0.695-0.037,1.391-0.072,2.087-0.103c0.021,0.178,0.043,0.357,0.065,0.536c0.691-0.026,1.382-0.06,2.073-0.098
			c-0.052-0.699-0.127-1.396-0.239-2.088C52.078,36.707,50.188,36.9,48.294,37.063 M18.799,37.12
			c0.17,0.389,0.305,0.793,0.401,1.206c0.223,0.007,0.446,0.013,0.669,0.021c0.367,1.736,0.356,3.521,0.402,5.287
			c-0.23-0.005-0.459-0.008-0.688-0.012c0.013,0.903-0.006,1.807,0.021,2.711c1.144,0.051,2.286,0.111,3.43,0.153
			c-0.007-0.932-0.009-1.864-0.028-2.796c-0.229-0.004-0.458-0.007-0.687-0.009c-0.008-0.784-0.041-1.568-0.07-2.351
			c0.681,0.006,1.361,0.011,2.042,0.029c0.093,1.413,0.071,2.829,0.115,4.243c0.001,0.381,0.175,0.857,0.596,0.935
			c0.719,0.06,1.444,0.034,2.165,0.055c-0.026-0.944-0.04-1.889-0.052-2.834c-0.229-0.003-0.458-0.004-0.687-0.006
			c-0.02-0.803-0.042-1.608-0.097-2.409c-0.024-0.329-0.304-0.549-0.592-0.654c0.249-0.091,0.524-0.275,0.487-0.58
			c-0.069-0.724-0.192-1.458-0.488-2.127c-0.131-0.386-0.587-0.445-0.937-0.478C22.799,37.4,20.797,37.287,18.799,37.12
			 M39.869,37.583c0.186,0.303,0.324,0.632,0.431,0.97c0.229-0.006,0.458-0.013,0.687-0.017c0.39,1.686,0.399,3.427,0.491,5.146
			c-0.225,0.003-0.449,0.006-0.673,0.009c0.012,0.931,0.069,1.861,0.088,2.792c2.278-0.079,4.555-0.195,6.832-0.33
			c-0.069-1.137-0.094-2.276-0.147-3.414c-0.682,0.016-1.364,0.024-2.046,0.041c0.015,0.268,0.027,0.536,0.038,0.805
			c-0.682,0.046-1.366,0.035-2.048,0.054c-0.032-0.771-0.064-1.542-0.115-2.311c0.91-0.005,1.82-0.026,2.73-0.044
			c-0.02-0.433-0.056-0.865-0.095-1.296c-0.915,0.005-1.828,0.046-2.743,0.043c-0.051-0.52-0.133-1.037-0.246-1.547
			c0.691-0.006,1.382-0.046,2.073-0.058c0.029,0.154,0.059,0.31,0.089,0.466c0.691-0.005,1.383-0.025,2.073-0.054
			c-0.091-0.565-0.209-1.129-0.426-1.661C44.535,37.367,42.202,37.485,39.869,37.583 M26.819,37.582
			c0.213,0.296,0.368,0.628,0.487,0.972c0.226,0.003,0.452,0.007,0.679,0.013c0.441,1.696,0.428,3.462,0.494,5.201
			c-0.225-0.003-0.449-0.004-0.674-0.005c0.012,0.951,0.019,1.902,0.05,2.853c1.144,0.006,2.288,0.029,3.431,0.035
			c-0.016-0.959-0.04-1.917-0.069-2.875c-0.228-0.001-0.457-0.001-0.685,0c-0.075-1.735-0.055-3.501-0.512-5.19
			c0.228,0.002,0.456,0.004,0.685,0.001c-0.119-0.324-0.276-0.635-0.487-0.909C29.085,37.652,27.952,37.628,26.819,37.582
			 M36.399,37.679c0.238,0.331,0.411,0.706,0.507,1.104c0.216,0.85,0.292,1.728,0.353,2.601c-0.834-1.49-1.916-3.015-3.569-3.651
			c-0.924-0.091-1.86-0.015-2.789-0.049c0.213,0.279,0.371,0.594,0.49,0.924c0.227,0,0.454,0.001,0.681,0.005
			c0.45,1.68,0.434,3.437,0.518,5.162c-0.227,0-0.454,0-0.681,0.001c0.016,0.959,0.051,1.917,0.067,2.876
			c0.916-0.003,1.833-0.016,2.749-0.025c-0.069-2.175-0.088-4.356-0.308-6.523c1.348,1.985,2.203,4.247,3.055,6.475
			c0.916-0.006,1.831-0.051,2.746-0.07c-0.044-0.931-0.074-1.863-0.102-2.794c-0.232,0.001-0.463,0.004-0.693,0.006
			c-0.081-1.721-0.09-3.467-0.505-5.149c0.231-0.004,0.463-0.007,0.694-0.013c-0.113-0.33-0.249-0.651-0.436-0.946
			C38.25,37.624,37.325,37.66,36.399,37.679 M18.09,46.943c0.661,0.221,1.359,0.286,2.041,0.412
			c3.277,0.525,6.562,1.013,9.866,1.338c1.086,0.089,2.185,0.215,3.272,0.061c2.199-0.293,4.396-0.601,6.594-0.902
			c2.15-0.316,4.31-0.571,6.454-0.921c-0.483-0.033-0.967-0.015-1.448,0.024c-1.424,0.078-2.848,0.146-4.272,0.222
			c-2.166,0.117-4.334,0.104-6.502,0.107C28.758,47.276,23.424,47.112,18.09,46.943z"/>
		<path style="fill:#010612;" d="M21.89,38.421c0.676,0.007,1.35,0.047,2.025,0.057c0.13,0.512,0.213,1.035,0.276,1.56
			c-0.68-0.007-1.36-0.012-2.04-0.021C22.093,39.48,22.015,38.946,21.89,38.421z"/>
	</g>
	<g id="_x23_ffffffff">
		<path style="fill:#FFFFFF;" d="M16.073,13.662c2.306-0.169,4.625-0.207,6.933-0.039c1.346,0.111,2.698,0.281,3.993,0.678
			c1.586,0.502,2.973,1.495,4.136,2.666c0.918,0.938,1.731,1.983,2.383,3.124c0.613-1.241,1.564-2.271,2.467-3.305
			c1.542-1.809,3.863-2.856,6.21-3.056c2.852-0.006,5.705,0.043,8.557,0.051c-0.19,1.483-0.718,2.998-1.824,4.048
			c-0.7,0.667-1.661,1.041-2.626,1.036c-1.487-0.01-3.013-0.145-4.456,0.297c-1.213,0.363-2.218,1.198-3.043,2.132
			c-0.772,0.904-1.03,2.143-0.954,3.305c0.103,1.478,0.64,2.933,1.554,4.102c0.822,1.054,2.086,1.704,3.394,1.909
			c1.488,0.251,3.028,0.032,4.495,0.432c0.985,0.261,1.89,0.866,2.437,1.735c0.524,0.818,0.765,1.798,0.766,2.765
			c0.996-0.253,2.018-0.37,3.021-0.588c3.142-0.649,6.271-1.365,9.399-2.077c-0.081,1.807-0.148,3.615-0.239,5.422
			c-0.206,0.118-0.411,0.238-0.615,0.36c0.221,0.218,0.437,0.441,0.66,0.658c-0.07,2.33-0.14,4.66-0.237,6.989
			c-4.462,0.645-8.925,1.282-13.392,1.9c-4.792,0.658-9.585,1.316-14.393,1.859c-1.366,0.125-2.739,0.349-4.113,0.205
			c-2.333-0.207-4.654-0.535-6.975-0.844c-6.843-0.952-13.674-1.992-20.498-3.069c-0.241-0.803-0.377-1.632-0.529-2.455
			c-0.43-2.453-0.793-4.917-1.14-7.383c-0.164-1.229-0.349-2.457-0.459-3.692c0.931,0.397,1.928,0.601,2.914,0.811
			c3.946,0.763,7.942,1.236,11.937,1.661c0.301-0.647,0.623-1.285,0.941-1.924c0.288-0.58,0.663-1.127,1.167-1.54
			c0.557-0.468,1.256-0.729,1.96-0.88c1.184-0.249,2.396-0.298,3.597-0.403c0.953-0.085,1.925-0.281,2.744-0.8
			c1.051-0.659,1.781-1.726,2.277-2.844c0.476-1.096,0.589-2.356,0.235-3.504c-0.374-1.257-1.189-2.337-2.137-3.223
			c-0.871-0.811-2.07-1.142-3.224-1.28c-1.125-0.159-2.273,0.09-3.388-0.17c-1.205-0.223-2.335-0.91-3.004-1.948
			C16.395,15.863,16.115,14.757,16.073,13.662 M17.166,14.161c0.386,0.731,1.001,1.403,1.827,1.616
			c1.019,0.239,2.067,0.079,3.097,0.023c0.723-0.055,1.44,0.079,2.155,0.162c-1.124-0.314-2.209-0.81-3.382-0.91
			c0.845-0.07,1.69-0.141,2.537-0.159c1.212-0.006,2.413,0.285,3.512,0.79c-0.933-0.493-1.896-0.943-2.911-1.239
			c-0.619-0.192-1.27-0.224-1.912-0.268C20.449,14.102,18.806,14.117,17.166,14.161 M43.107,14.357
			c-1.129,0.281-2.194,0.771-3.217,1.317c1.097-0.506,2.3-0.789,3.51-0.781c0.847,0.019,1.692,0.093,2.536,0.159
			c-1.2,0.091-2.304,0.615-3.456,0.92c0.737-0.094,1.479-0.227,2.225-0.172c1.045,0.06,2.112,0.221,3.143-0.039
			c0.796-0.234,1.385-0.888,1.765-1.599c-1.202-0.031-2.405-0.055-3.607-0.026C45.038,14.161,44.06,14.164,43.107,14.357
			 M24.155,14.239c1.051,0.375,2.114,0.748,3.069,1.335c0.755,0.464,1.427,1.078,1.903,1.829c-1.146-0.773-2.304-1.579-3.628-2.019
			c-1.008-0.288-2.082-0.332-3.117-0.185c0.634,0.156,1.275,0.299,1.884,0.54c0.88,0.321,1.655,0.855,2.448,1.342
			c-1.049-0.464-2.147-0.929-3.313-0.938c-1.334,0.072-2.677,0.389-4.011,0.143c-1.062-0.176-1.854-0.993-2.505-1.79
			c0.678,1.17,1.722,2.281,3.114,2.514c1.351,0.331,2.728-0.055,4.092,0.073c1.96,0.13,3.936,0.794,5.409,2.127
			c0.852,0.779,1.561,1.74,1.961,2.828c0.557,1.573,0.259,3.343-0.526,4.785c0.052-0.869,0.139-1.848-0.417-2.586
			c-0.131,1.089-0.467,2.174-1.14,3.055c-0.28,0.414-0.734,0.672-0.99,1.104c-0.467,0.709-1.082,1.314-1.772,1.805
			c1.016-0.324,1.895-0.99,2.5-1.867c-0.101,1.286-0.778,2.631-1.988,3.197c-1.047,0.528-2.198,0.81-3.343,1.034
			c1.21-0.125,2.433-0.259,3.647-0.119c-1.037,0.283-2.114,0.49-3.065,1.018c-0.967,0.518-1.932,1.055-2.823,1.699
			c0.843,0.176,1.708,0.202,2.565,0.253c1.34-0.075,2.662-0.447,3.863-1.043c2.51-1.284,4.564-3.528,5.454-6.22
			c0.609,1.857,1.784,3.499,3.27,4.759c1.689,1.467,3.861,2.393,6.102,2.507c0.867-0.066,1.753-0.052,2.598-0.278
			c-0.943-0.625-1.917-1.207-2.922-1.726c-0.933-0.5-1.982-0.698-2.993-0.976c1.215-0.118,2.438-0.016,3.646,0.132
			c-1.282-0.283-2.6-0.575-3.727-1.277c-0.586-0.35-0.945-0.959-1.23-1.558c-0.209-0.436-0.31-0.913-0.347-1.392
			c0.574,0.79,1.342,1.453,2.278,1.771c-0.634-0.498-1.22-1.069-1.657-1.75c-0.254-0.411-0.682-0.669-0.955-1.065
			c-0.679-0.884-1.012-1.976-1.149-3.07c-0.537,0.749-0.485,1.718-0.41,2.59c-0.849-1.531-1.118-3.459-0.408-5.095
			c0.718-1.606,2.024-2.937,3.607-3.704c1.595-0.777,3.408-1.056,5.17-0.936c1.1,0.121,2.247,0.104,3.295-0.288
			c0.616-0.226,1.108-0.679,1.55-1.149c0.349-0.392,0.695-0.805,0.875-1.304c-0.629,0.766-1.334,1.579-2.32,1.868
			c-1.35,0.359-2.748,0.044-4.11-0.06c-1.198-0.079-2.316,0.434-3.408,0.851c0.436-0.273,0.876-0.538,1.32-0.797
			c0.887-0.505,1.879-0.769,2.865-1.003c-1.024-0.16-2.087-0.099-3.085,0.179c-1.321,0.442-2.48,1.241-3.624,2.017
			c0.501-0.802,1.232-1.439,2.042-1.914c0.919-0.534,1.923-0.896,2.925-1.241c-1.393,0.124-2.765,0.515-3.994,1.185
			c-2.392,1.317-4.333,3.508-5.2,6.113C32.089,17.607,28.345,14.519,24.155,14.239 M47.928,16.923
			c-0.89,0.376-1.877,0.401-2.828,0.405c-1.083,0.015-2.17-0.122-3.247,0.035c-1.487,0.222-2.888,0.893-4.052,1.835
			c-1.212,0.981-1.976,2.416-2.391,3.899c-0.239,0.731,0.052,1.484,0.143,2.215c-0.032-0.845,0.36-1.646,0.936-2.245
			c0.139,1.788,0.577,3.782,2.079,4.93c-0.494-0.832-0.891-1.733-1.052-2.692c-0.29-1.589,0.015-3.346,1.076-4.603
			c1.007-1.182,2.454-2.007,4.002-2.203c1.161-0.16,2.336-0.11,3.503-0.088c0.702-0.016,1.446-0.003,2.082-0.344
			c0.803-0.416,1.386-1.17,1.725-1.996c-0.33,0.395-0.645,0.825-1.124,1.05c0.672-0.62,0.946-1.519,1.308-2.331
			C49.567,15.666,48.878,16.498,47.928,16.923 M16.799,14.848c0.357,0.794,0.621,1.685,1.301,2.274
			c-0.484-0.213-0.803-0.637-1.125-1.037c0.336,0.865,0.971,1.637,1.818,2.036c0.594,0.279,1.268,0.273,1.911,0.29
			c1.293-0.018,2.6-0.09,3.88,0.14c1.163,0.197,2.233,0.782,3.113,1.553c0.898,0.79,1.506,1.9,1.676,3.085
			c0.272,1.668-0.193,3.388-1.083,4.803c1.512-1.138,1.946-3.144,2.081-4.93c0.568,0.6,0.982,1.396,0.923,2.242
			c0.117-0.723,0.398-1.475,0.159-2.202c-0.228-0.824-0.564-1.621-1.02-2.344c-0.968-1.557-2.607-2.596-4.326-3.148
			c-2.229-0.732-4.63,0.117-6.867-0.57C18.159,16.688,17.384,15.782,16.799,14.848 M25.507,30.913
			c-1.665,0.468-3.408,0.18-5.108,0.303c-0.824,0.056-1.639,0.365-2.251,0.929c-1.096,1.02-1.646,2.473-2.024,3.888
			c-4.704-0.442-9.378-1.184-14.004-2.147c0.435,3.981,0.869,7.963,1.301,11.945c4.44,0.656,8.884,1.285,13.333,1.888
			c4.472,0.592,8.945,1.197,13.438,1.619c1.303,0.101,2.615,0.261,3.92,0.097c4.359-0.446,8.704-1.012,13.052-1.555
			c4.98-0.629,9.958-1.279,14.937-1.929c0.087-1.85,0.182-3.701,0.236-5.553c0.013-0.421,0.001-0.896-0.302-1.224
			c-0.256-0.303-0.665-0.377-1.036-0.43c0.392-0.144,0.772-0.322,1.157-0.484c0.092-1.576,0.204-3.152,0.294-4.728
			c-4.039,0.938-8.116,1.715-12.222,2.301c-0.111-1.263-0.416-2.597-1.305-3.55c-0.694-0.748-1.727-1.072-2.725-1.09
			c-1.67-0.058-3.389,0.172-5.009-0.35c-1.143-0.344-2.152-1.011-3.071-1.756c0.276,0.641,0.716,1.207,1.264,1.64
			c1.028,0.828,2.336,1.222,3.632,1.364c0.832,0.099,1.689,0.012,2.499,0.268c1.203,0.335,2.224,1.206,2.787,2.316
			c-0.901-0.767-2.011-1.292-3.187-1.455c-1.076-0.151-2.153-0.297-3.228-0.46c0.839,0.366,1.688,0.722,2.474,1.196
			c0.687,0.436,1.308,0.967,1.911,1.511c-2.321,0.708-4.922,0.705-7.156-0.302c-1.927-0.874-3.521-2.346-4.816-3.998
			c0.606,1.423,1.322,2.841,2.414,3.957c-1.493-0.884-2.716-2.275-3.245-3.942c-0.609,1.255-1.489,2.392-2.606,3.236
			c0.743-1.021,1.321-2.149,1.816-3.307c-1.276,1.676-2.886,3.146-4.811,4.037c-2.242,1.024-4.857,1.03-7.191,0.321
			c0.592-0.544,1.21-1.067,1.888-1.501c0.792-0.479,1.644-0.848,2.499-1.197c-0.011-0.028-0.034-0.082-0.045-0.11l-0.054,0.127
			c-0.721,0.081-1.438,0.201-2.158,0.296c-0.676,0.099-1.364,0.155-2.014,0.379c-0.788,0.25-1.507,0.68-2.145,1.202
			c0.72-1.454,2.256-2.425,3.872-2.494c1.205-0.021,2.431-0.139,3.559-0.592c1.175-0.458,2.248-1.31,2.748-2.493
			C27.84,29.886,26.745,30.588,25.507,30.913z"/>
		<path style="fill:#FFFFFF;" d="M15.978,22.171c2.608-0.003,5.215-0.006,7.822,0.01c0.776,0.027,1.571,0.055,2.309,0.321
			c0.449,0.146,0.732,0.56,0.945,0.957c0.445,0.848,0.374,1.909-0.093,2.732c-0.471,0.81-1.432,1.273-2.356,1.229
			c-1.402-0.003-2.805-0.002-4.207,0c-0.555,0.012-1.118-0.073-1.628-0.3c-0.797-0.349-1.41-1.019-1.83-1.768
			C16.394,24.377,16.11,23.275,15.978,22.171 M16.873,22.739c0.131,1.132,0.494,2.332,1.401,3.086
			c0.998,0.79,2.37,0.919,3.589,0.718c-1.002-0.126-2.025-0.357-2.877-0.923c-0.765-0.491-1.039-1.41-1.384-2.2
			c1.899-0.043,3.8-0.074,5.7-0.053c0.647-0.008,1.305,0.013,1.927,0.207c0.366,0.113,0.747,0.324,0.885,0.704
			c0.237,0.591-0.033,1.216-0.3,1.746c0.286-0.21,0.647-0.372,0.797-0.715c0.193-0.468,0.134-1.009-0.062-1.466
			c-0.239-0.537-0.779-0.888-1.341-1.006c-0.922-0.193-1.87-0.115-2.804-0.099C20.56,22.739,18.717,22.736,16.873,22.739
			 M17.965,23.683c0.308,0.713,0.615,1.538,1.355,1.906c1.069,0.533,2.268,0.702,3.435,0.888c-0.842,0.28-1.73,0.285-2.603,0.364
			c0.708,0.124,1.428,0.086,2.143,0.09c0.832-0.007,1.665,0.013,2.496-0.007c0.746-0.011,1.41-0.49,1.768-1.126
			c-0.441,0.274-0.882,0.555-1.369,0.743c0.351-0.456,0.721-0.947,0.766-1.543c0.044-0.46-0.22-0.926-0.652-1.1
			c-0.914-0.395-1.938-0.307-2.909-0.274C20.918,23.637,19.442,23.668,17.965,23.683z"/>
		<path style="fill:#FFFFFF;" d="M41.593,22.287c1.093-0.155,2.201-0.099,3.301-0.115c1.982-0.004,3.964-0.005,5.946-0.001
			c-0.174,1.456-0.609,2.953-1.597,4.074c-0.635,0.721-1.574,1.156-2.535,1.172c-1.502,0.006-3.004-0.002-4.506,0.003
			c-0.836,0.035-1.695-0.341-2.201-1.015c-0.798-1.088-0.698-2.768,0.319-3.685C40.681,22.438,41.154,22.364,41.593,22.287
			 M41.692,22.829c-0.569,0.113-1.127,0.455-1.37,1c-0.204,0.462-0.271,1.013-0.067,1.487c0.155,0.338,0.511,0.503,0.799,0.706
			c-0.335-0.6-0.616-1.419-0.142-2.024c0.511-0.521,1.304-0.57,1.991-0.625c2.119-0.03,4.239-0.001,6.358,0.046
			c-0.34,0.783-0.611,1.689-1.36,2.185c-0.851,0.577-1.883,0.807-2.888,0.939c1.202,0.2,2.552,0.072,3.544-0.693
			c0.928-0.75,1.303-1.966,1.433-3.11c-1.728-0.006-3.455-0.001-5.183-0.002C43.77,22.746,42.719,22.624,41.692,22.829
			 M41.661,23.852c-0.401,0.139-0.727,0.501-0.745,0.937c-0.058,0.681,0.366,1.27,0.783,1.764c-0.504-0.196-0.963-0.482-1.416-0.773
			c0.338,0.591,0.924,1.073,1.621,1.13c0.732,0.051,1.466,0.007,2.199,0.021c0.859-0.017,1.727,0.057,2.579-0.088
			c-0.875-0.079-1.76-0.099-2.606-0.367c1.021-0.146,2.051-0.31,3.018-0.684c0.382-0.153,0.772-0.339,1.035-0.668
			c0.346-0.426,0.559-0.938,0.767-1.441c-1.466-0.014-2.931-0.046-4.397-0.058C43.552,23.592,42.566,23.509,41.661,23.852z"/>
		<path style="fill:#FFFFFF;" d="M55.404,36.306c2.059-0.282,4.076-0.806,6.124-1.152c0.008,0.84-0.071,1.678-0.063,2.519
			c-0.807,0.185-1.61,0.389-2.399,0.642c-0.008-0.214-0.015-0.428-0.021-0.641c-0.696,0.057-1.394,0.097-2.09,0.157
			c0.019,0.627,0.06,1.254,0.072,1.883c1.124-0.058,2.25-0.08,3.374-0.133c0.404-0.049,0.791,0.312,0.751,0.722
			c0,1.332,0.002,2.664-0.002,3.996c0.025,0.414-0.334,0.779-0.743,0.784c-1.753,0.186-3.507,0.364-5.264,0.509
			c-0.02-1.024-0.057-2.046-0.086-3.069c0.678-0.048,1.358-0.043,2.036-0.083c0.001,0.241,0.003,0.483,0.005,0.725
			c0.678-0.027,1.354-0.074,2.032-0.098c-0.004-0.695-0.011-1.39-0.015-2.086c-1.105,0.035-2.21,0.062-3.315,0.1
			c-0.233,0.014-0.493-0.03-0.648-0.22c-0.183-0.207-0.155-0.501-0.174-0.756c-0.036-1.072-0.11-2.142-0.224-3.209
			C54.703,36.532,55.1,36.341,55.404,36.306z"/>
		<path style="fill:#FFFFFF;" d="M3.245,35.26c2.566,0.386,5.135,0.762,7.711,1.079c0.14,0.723,0.223,1.454,0.285,2.187
			c-0.667-0.03-1.334-0.06-2-0.097c-0.013-0.201-0.026-0.401-0.038-0.601c-0.66-0.061-1.323-0.085-1.984-0.139
			c0.031,0.654,0.05,1.309,0.056,1.964c0.9,0.013,1.798,0.064,2.698,0.076c0.006,0.453,0.023,0.905,0.044,1.358
			c-0.904-0.026-1.807-0.063-2.711-0.079c0.002,0.703,0.005,1.407,0.003,2.11c0.678,0.043,1.357,0.073,2.035,0.109
			c-0.001-0.248-0.002-0.497,0-0.744c0.68,0.053,1.363,0.041,2.044,0.087c0.002,1.058,0.002,2.116-0.004,3.174
			c-2.268-0.215-4.534-0.455-6.795-0.74c-0.001-0.68,0-1.36,0-2.04c0.228,0.011,0.456,0.021,0.684,0.031
			c0.003-1.813-0.003-3.626-0.028-5.438c-0.553-0.031-1.107-0.052-1.66-0.09C3.461,36.733,3.272,36.007,3.245,35.26z"/>
		<path style="fill:#FFFFFF;" d="M11.606,36.418c2.172,0.249,4.347,0.475,6.527,0.648c0.244,0.55,0.387,1.137,0.489,1.729
			c-0.673-0.002-1.345-0.041-2.018-0.056c-0.028-0.175-0.057-0.35-0.086-0.524c-0.667-0.034-1.335-0.065-2.002-0.091
			c0.097,0.574,0.115,1.159,0.201,1.735c0.896,0.044,1.795,0.036,2.692,0.07c0.021,0.442,0.057,0.883,0.073,1.325
			c-0.906-0.019-1.813-0.025-2.72-0.049c0.03,0.754,0.02,1.509,0.048,2.263c0.68,0.017,1.36,0.057,2.04,0.069
			c-0.005-0.266-0.01-0.532-0.014-0.798c0.684,0.015,1.368,0.024,2.051,0.045c0.018,1.169,0.028,2.337,0.025,3.506
			c-2.285-0.122-4.566-0.29-6.845-0.488c0.004-0.816,0.01-1.632,0.008-2.448c0.225,0.012,0.45,0.025,0.675,0.037
			c-0.004-1.792-0.022-3.589-0.232-5.371c-0.222-0.017-0.444-0.034-0.666-0.049C11.792,37.45,11.709,36.932,11.606,36.418z"/>
		<path style="fill:#FFFFFF;" d="M48.294,37.063c1.894-0.163,3.784-0.356,5.671-0.582c0.112,0.692,0.187,1.389,0.239,2.088
			c-0.691,0.038-1.382,0.072-2.073,0.098c-0.022-0.179-0.044-0.358-0.065-0.536c-0.696,0.031-1.392,0.066-2.087,0.103
			c0.09,0.549,0.117,1.105,0.191,1.655c1.142,0.013,2.284-0.06,3.427-0.072c0.368-0.015,0.723,0.3,0.71,0.678
			c0.06,1.435,0.097,2.872,0.138,4.308c0.051,0.435-0.259,0.925-0.73,0.917c-1.769,0.131-3.538,0.304-5.311,0.368
			c-0.062-1.122-0.101-2.246-0.139-3.369c0.68-0.007,1.359-0.039,2.04-0.053c0.006,0.259,0.017,0.519,0.029,0.779
			c0.678-0.022,1.356-0.056,2.035-0.073c-0.028-0.733-0.042-1.468-0.089-2.2c-1.159,0.004-2.317,0.066-3.476,0.061
			c-0.34,0.011-0.63-0.285-0.649-0.617c-0.088-1.099-0.172-2.21-0.496-3.27C47.821,37.164,48.054,37.075,48.294,37.063z"/>
		<path style="fill:#FFFFFF;" d="M18.799,37.12c1.998,0.167,4,0.28,6.002,0.384c0.35,0.033,0.806,0.092,0.937,0.478
			c0.296,0.669,0.419,1.403,0.488,2.127c0.037,0.305-0.238,0.489-0.487,0.58c0.288,0.105,0.568,0.325,0.592,0.654
			c0.055,0.801,0.077,1.606,0.097,2.409c0.229,0.002,0.458,0.003,0.687,0.006c0.012,0.945,0.026,1.89,0.052,2.834
			c-0.721-0.021-1.446,0.005-2.165-0.055c-0.421-0.078-0.595-0.554-0.596-0.935c-0.044-1.414-0.022-2.83-0.115-4.243
			c-0.681-0.018-1.361-0.023-2.042-0.029c0.029,0.783,0.062,1.567,0.07,2.351c0.229,0.002,0.458,0.005,0.687,0.009
			c0.019,0.932,0.021,1.864,0.028,2.796c-1.144-0.042-2.286-0.102-3.43-0.153c-0.027-0.904-0.008-1.808-0.021-2.711
			c0.229,0.004,0.458,0.007,0.688,0.012c-0.046-1.766-0.035-3.551-0.402-5.287c-0.223-0.008-0.446-0.014-0.669-0.021
			C19.104,37.913,18.969,37.509,18.799,37.12 M21.89,38.421c0.125,0.525,0.203,1.059,0.261,1.596c0.68,0.009,1.36,0.014,2.04,0.021
			c-0.063-0.525-0.146-1.048-0.276-1.56C23.24,38.468,22.566,38.428,21.89,38.421z"/>
		<path style="fill:#FFFFFF;" d="M39.869,37.583c2.333-0.098,4.666-0.216,6.993-0.406c0.217,0.532,0.335,1.096,0.426,1.661
			c-0.69,0.029-1.382,0.049-2.073,0.054c-0.03-0.156-0.06-0.312-0.089-0.466c-0.691,0.012-1.382,0.052-2.073,0.058
			c0.113,0.51,0.195,1.027,0.246,1.547c0.915,0.003,1.828-0.038,2.743-0.043c0.039,0.431,0.075,0.863,0.095,1.296
			c-0.91,0.018-1.82,0.039-2.73,0.044c0.051,0.769,0.083,1.54,0.115,2.311c0.682-0.019,1.366-0.008,2.048-0.054
			c-0.011-0.269-0.023-0.537-0.038-0.805c0.682-0.017,1.364-0.025,2.046-0.041c0.053,1.138,0.078,2.277,0.147,3.414
			c-2.277,0.135-4.554,0.251-6.832,0.33c-0.019-0.931-0.076-1.861-0.088-2.792c0.224-0.003,0.448-0.006,0.673-0.009
			c-0.092-1.719-0.101-3.46-0.491-5.146c-0.229,0.004-0.458,0.011-0.687,0.017C40.193,38.215,40.055,37.886,39.869,37.583z"/>
		<path style="fill:#FFFFFF;" d="M26.819,37.582c1.133,0.046,2.266,0.07,3.399,0.096c0.211,0.274,0.368,0.585,0.487,0.909
			c-0.229,0.003-0.457,0.001-0.685-0.001c0.457,1.689,0.437,3.455,0.512,5.19c0.228-0.001,0.457-0.001,0.685,0
			c0.029,0.958,0.053,1.916,0.069,2.875c-1.143-0.006-2.287-0.029-3.431-0.035c-0.031-0.951-0.038-1.902-0.05-2.853
			c0.225,0.001,0.449,0.002,0.674,0.005c-0.066-1.739-0.053-3.505-0.494-5.201c-0.227-0.006-0.453-0.01-0.679-0.013
			C27.187,38.21,27.032,37.878,26.819,37.582z"/>
		<path style="fill:#FFFFFF;" d="M36.399,37.679c0.926-0.019,1.851-0.055,2.777-0.066c0.187,0.295,0.323,0.616,0.436,0.946
			c-0.231,0.006-0.463,0.009-0.694,0.013c0.415,1.682,0.424,3.428,0.505,5.149c0.23-0.002,0.461-0.005,0.693-0.006
			c0.028,0.931,0.058,1.863,0.102,2.794c-0.915,0.019-1.83,0.064-2.746,0.07c-0.852-2.228-1.707-4.49-3.055-6.475
			c0.22,2.167,0.239,4.348,0.308,6.523c-0.916,0.009-1.833,0.022-2.749,0.025c-0.016-0.959-0.051-1.917-0.067-2.876
			c0.227-0.001,0.454-0.001,0.681-0.001c-0.084-1.725-0.068-3.482-0.518-5.162c-0.227-0.004-0.454-0.005-0.681-0.005
			c-0.119-0.33-0.277-0.645-0.49-0.924c0.929,0.034,1.865-0.042,2.789,0.049c1.653,0.636,2.735,2.161,3.569,3.651
			c-0.061-0.873-0.137-1.751-0.353-2.601C36.81,38.385,36.637,38.01,36.399,37.679z"/>
	</g>
	<g id="_x23_020c23ff">
		<path style="fill:#020C23;" d="M17.166,14.161c1.64-0.044,3.283-0.059,4.923,0.015c0.642,0.044,1.293,0.076,1.912,0.268
			c1.015,0.296,1.978,0.746,2.911,1.239c-1.099-0.505-2.3-0.796-3.512-0.79c-0.847,0.018-1.692,0.089-2.537,0.159
			c1.173,0.1,2.258,0.596,3.382,0.91c-0.715-0.083-1.432-0.217-2.155-0.162c-1.03,0.056-2.078,0.216-3.097-0.023
			C18.167,15.564,17.552,14.892,17.166,14.161z"/>
		<path style="fill:#020C23;" d="M43.107,14.357c0.953-0.193,1.931-0.196,2.899-0.221c1.202-0.029,2.405-0.005,3.607,0.026
			c-0.38,0.711-0.969,1.365-1.765,1.599c-1.031,0.26-2.098,0.099-3.143,0.039c-0.746-0.055-1.488,0.078-2.225,0.172
			c1.152-0.305,2.256-0.829,3.456-0.92c-0.844-0.066-1.689-0.14-2.536-0.159c-1.21-0.008-2.413,0.275-3.51,0.781
			C40.913,15.128,41.978,14.638,43.107,14.357z"/>
		<path style="fill:#020C23;" d="M47.928,16.923c0.95-0.425,1.639-1.257,2.16-2.133c-0.362,0.812-0.636,1.711-1.308,2.331
			c0.479-0.225,0.794-0.655,1.124-1.05c-0.339,0.826-0.922,1.58-1.725,1.996c-0.636,0.341-1.38,0.328-2.082,0.344
			c-1.167-0.022-2.342-0.072-3.503,0.088c-1.548,0.196-2.995,1.021-4.002,2.203c-1.061,1.257-1.366,3.014-1.076,4.603
			c0.161,0.959,0.558,1.86,1.052,2.692c-1.502-1.148-1.94-3.142-2.079-4.93c-0.576,0.599-0.968,1.4-0.936,2.245
			c-0.091-0.731-0.382-1.484-0.143-2.215c0.415-1.483,1.179-2.918,2.391-3.899c1.164-0.942,2.565-1.613,4.052-1.835
			c1.077-0.157,2.164-0.02,3.247-0.035C46.051,17.324,47.038,17.299,47.928,16.923z"/>
		<path style="fill:#020C23;" d="M16.799,14.848c0.585,0.934,1.36,1.84,2.441,2.192c2.237,0.687,4.638-0.162,6.867,0.57
			c1.719,0.552,3.358,1.591,4.326,3.148c0.456,0.723,0.792,1.52,1.02,2.344c0.239,0.727-0.042,1.479-0.159,2.202
			c0.059-0.846-0.355-1.642-0.923-2.242c-0.135,1.786-0.569,3.792-2.081,4.93c0.89-1.415,1.355-3.135,1.083-4.803
			c-0.17-1.185-0.778-2.295-1.676-3.085c-0.88-0.771-1.95-1.356-3.113-1.553c-1.28-0.23-2.587-0.158-3.88-0.14
			c-0.643-0.017-1.317-0.011-1.911-0.29c-0.847-0.399-1.482-1.171-1.818-2.036c0.322,0.4,0.641,0.824,1.125,1.037
			C17.42,16.533,17.156,15.642,16.799,14.848z"/>
	</g>
	<g id="_x23_0090ffff">
		<path style="fill:#0090FF;" d="M24.155,14.239c4.19,0.28,7.933,3.368,9.275,7.303c0.867-2.605,2.808-4.796,5.2-6.113
			c1.229-0.67,2.601-1.061,3.994-1.185c-1.002,0.345-2.006,0.707-2.925,1.241c-0.81,0.475-1.541,1.112-2.042,1.914
			c1.144-0.776,2.303-1.575,3.624-2.017c0.998-0.278,2.061-0.339,3.085-0.179c-0.986,0.234-1.978,0.498-2.865,1.003
			c-0.444,0.259-0.884,0.524-1.32,0.797c1.092-0.417,2.21-0.93,3.408-0.851c1.362,0.104,2.76,0.419,4.11,0.06
			c0.986-0.289,1.691-1.102,2.32-1.868c-0.18,0.499-0.526,0.912-0.875,1.304c-0.442,0.47-0.934,0.923-1.55,1.149
			c-1.048,0.392-2.195,0.409-3.295,0.288c-1.762-0.12-3.575,0.159-5.17,0.936c-1.583,0.767-2.889,2.098-3.607,3.704
			c-0.71,1.636-0.441,3.564,0.408,5.095c-0.075-0.872-0.127-1.841,0.41-2.59c0.137,1.094,0.47,2.186,1.149,3.07
			c0.273,0.396,0.701,0.654,0.955,1.065c0.437,0.681,1.023,1.252,1.657,1.75c-0.936-0.318-1.704-0.981-2.278-1.771
			c0.037,0.479,0.138,0.956,0.347,1.392c0.285,0.599,0.644,1.208,1.23,1.558c1.127,0.702,2.445,0.994,3.727,1.277
			c-1.208-0.148-2.431-0.25-3.646-0.132c1.011,0.278,2.06,0.476,2.993,0.976c1.005,0.519,1.979,1.101,2.922,1.726
			c-0.845,0.226-1.731,0.212-2.598,0.278c-2.241-0.114-4.413-1.04-6.102-2.507c-1.486-1.26-2.661-2.902-3.27-4.759
			c-0.89,2.692-2.944,4.936-5.454,6.22c-1.201,0.596-2.523,0.968-3.863,1.043c-0.857-0.051-1.722-0.077-2.565-0.253
			c0.891-0.644,1.856-1.181,2.823-1.699c0.951-0.528,2.028-0.735,3.065-1.018c-1.214-0.14-2.437-0.006-3.647,0.119
			c1.145-0.224,2.296-0.506,3.343-1.034c1.21-0.566,1.887-1.911,1.988-3.197c-0.605,0.877-1.484,1.543-2.5,1.867
			c0.69-0.491,1.305-1.096,1.772-1.805c0.256-0.432,0.71-0.69,0.99-1.104c0.673-0.881,1.009-1.966,1.14-3.055
			c0.556,0.738,0.469,1.717,0.417,2.586c0.785-1.442,1.083-3.212,0.526-4.785c-0.4-1.088-1.109-2.049-1.961-2.828
			c-1.473-1.333-3.449-1.997-5.409-2.127c-1.364-0.128-2.741,0.258-4.092-0.073c-1.392-0.233-2.436-1.344-3.114-2.514
			c0.651,0.797,1.443,1.614,2.505,1.79c1.334,0.246,2.677-0.071,4.011-0.143c1.166,0.009,2.264,0.474,3.313,0.938
			c-0.793-0.487-1.568-1.021-2.448-1.342c-0.609-0.241-1.25-0.384-1.884-0.54c1.035-0.147,2.109-0.103,3.117,0.185
			c1.324,0.44,2.482,1.246,3.628,2.019c-0.476-0.751-1.148-1.365-1.903-1.829C26.269,14.987,25.206,14.614,24.155,14.239z"/>
		<path style="fill:#0090FF;" d="M17.965,23.683c1.477-0.015,2.953-0.046,4.43-0.059c0.971-0.033,1.995-0.121,2.909,0.274
			c0.432,0.174,0.696,0.64,0.652,1.1c-0.045,0.596-0.415,1.087-0.766,1.543c0.487-0.188,0.928-0.469,1.369-0.743
			c-0.358,0.636-1.022,1.115-1.768,1.126c-0.831,0.02-1.664,0-2.496,0.007c-0.715-0.004-1.435,0.034-2.143-0.09
			c0.873-0.079,1.761-0.084,2.603-0.364c-1.167-0.186-2.366-0.355-3.435-0.888C18.58,25.221,18.273,24.396,17.965,23.683z"/>
		<path style="fill:#0090FF;" d="M41.661,23.852c0.905-0.343,1.891-0.26,2.838-0.227c1.466,0.012,2.931,0.044,4.397,0.058
			c-0.208,0.503-0.421,1.015-0.767,1.441c-0.263,0.329-0.653,0.515-1.035,0.668c-0.967,0.374-1.997,0.538-3.018,0.684
			c0.846,0.268,1.731,0.288,2.606,0.367c-0.852,0.145-1.72,0.071-2.579,0.088c-0.733-0.014-1.467,0.03-2.199-0.021
			c-0.697-0.057-1.283-0.539-1.621-1.13c0.453,0.291,0.912,0.577,1.416,0.773c-0.417-0.494-0.841-1.083-0.783-1.764
			C40.934,24.353,41.26,23.991,41.661,23.852z"/>
	</g>
	<g id="_x23_05102eff">
		<path style="fill:#05102E;" d="M16.873,22.739c1.844-0.003,3.687,0,5.531-0.001c0.934-0.016,1.882-0.094,2.804,0.099
			c0.562,0.118,1.102,0.469,1.341,1.006c0.196,0.457,0.255,0.998,0.062,1.466c-0.15,0.343-0.511,0.505-0.797,0.715
			c0.267-0.53,0.537-1.155,0.3-1.746c-0.138-0.38-0.519-0.591-0.885-0.704c-0.622-0.194-1.28-0.215-1.927-0.207
			c-1.9-0.021-3.801,0.01-5.7,0.053c0.345,0.79,0.619,1.709,1.384,2.2c0.852,0.566,1.875,0.797,2.877,0.923
			c-1.219,0.201-2.591,0.072-3.589-0.718C17.367,25.071,17.004,23.871,16.873,22.739z"/>
		<path style="fill:#05102E;" d="M41.692,22.829c1.027-0.205,2.078-0.083,3.115-0.091c1.728,0.001,3.455-0.004,5.183,0.002
			c-0.13,1.144-0.505,2.36-1.433,3.11c-0.992,0.765-2.342,0.893-3.544,0.693c1.005-0.132,2.037-0.362,2.888-0.939
			c0.749-0.496,1.02-1.402,1.36-2.185c-2.119-0.047-4.239-0.076-6.358-0.046c-0.687,0.055-1.48,0.104-1.991,0.625
			c-0.474,0.605-0.193,1.424,0.142,2.024c-0.288-0.203-0.644-0.368-0.799-0.706c-0.204-0.474-0.137-1.025,0.067-1.487
			C40.565,23.284,41.123,22.942,41.692,22.829z"/>
	</g>
	<g id="_x23_1b1f2aff">
		<path style="fill:#1B1F2A;" d="M20.708,31.591c0.765-0.067,1.556-0.158,2.308,0.049c-1.019,0.096-2.076,0.115-3.025,0.546
			c-0.5,0.236-1.018,0.507-1.342,0.973c-0.598,0.828-0.859,1.831-1.225,2.77c-0.021-0.525,0.087-1.039,0.155-1.556
			c-0.401,0.696-0.628,1.472-0.838,2.242c-0.108-0.292-0.235-0.604-0.118-0.914c0.365-1.242,0.968-2.459,1.945-3.334
			C19.149,31.841,19.956,31.689,20.708,31.591z"/>
		<path style="fill:#1B1F2A;" d="M43.79,31.645c0.834-0.133,1.682-0.046,2.515,0.058c0.795,0.121,1.642,0.283,2.265,0.831
			c0.78,0.708,1.198,1.735,1.335,2.764c0.042,0.355,0.172,0.804-0.178,1.051c-0.013-0.739-0.065-1.489-0.397-2.163
			c-0.017,0.376-0.037,0.751-0.055,1.127c-0.156-0.63-0.282-1.287-0.645-1.839c-0.228-0.369-0.601-0.609-0.959-0.837
			c-0.602-0.388-1.277-0.665-1.979-0.803C45.065,31.71,44.423,31.711,43.79,31.645z"/>
		<path style="fill:#1B1F2A;" d="M18.09,46.943c5.334,0.169,10.668,0.333,16.006,0.341c2.168-0.003,4.336,0.01,6.502-0.107
			c1.424-0.076,2.848-0.144,4.272-0.222c0.481-0.039,0.965-0.057,1.448-0.024c-2.144,0.35-4.304,0.605-6.454,0.921
			c-2.198,0.301-4.395,0.609-6.594,0.902c-1.087,0.154-2.186,0.028-3.272-0.061c-3.304-0.325-6.589-0.813-9.866-1.338
			C19.449,47.229,18.751,47.164,18.09,46.943z"/>
	</g>
	<g id="_x23_f22e01ff">
		<path style="fill:#F22E01;" d="M29.449,35.38c0.35-0.069,0.708-0.069,1.063-0.077c-0.326,0.211-0.665,0.401-1.015,0.571
			c-0.175-0.086-0.361-0.131-0.537-0.02c-0.136-0.011-0.273-0.022-0.409-0.033C28.837,35.651,29.117,35.449,29.449,35.38z"/>
	</g>
	<g id="_x23_f32e01ff">
		<path style="fill:#F32E01;" d="M36.426,35.421c0.414,0.016,0.84,0.002,1.24,0.125c0.313,0.117,0.584,0.318,0.865,0.494
			c-0.187-0.002-0.374,0.011-0.558,0.038c-0.088-0.105-0.172-0.213-0.273-0.304c-0.157-0.034-0.292,0.081-0.432,0.128
			C36.978,35.757,36.698,35.596,36.426,35.421z"/>
	</g>
	<g id="_x23_c81406ff">
		<path style="fill:#C81406;" d="M27.735,36.396c0.261-0.207,0.535-0.396,0.816-0.575c0.136,0.011,0.273,0.022,0.409,0.033
			C28.891,36.423,28.152,36.314,27.735,36.396z"/>
	</g>
	<g id="_x23_b30f07ff">
		<path style="fill:#B30F07;" d="M38.531,36.04c0.248,0.12,0.461,0.301,0.677,0.47c-0.498,0-0.986-0.13-1.428-0.357l0.193-0.075
			C38.157,36.051,38.344,36.038,38.531,36.04z"/>
	</g>
</g>
</svg>
