<?xml version="1.0" encoding="utf-8"?>
<!-- Generator: Adobe Illustrator 16.0.0, SVG Export Plug-In . SVG Version: 6.00 Build 0)  -->
<!DOCTYPE svg PUBLIC "-//W3C//DTD SVG 1.1//EN" "http://www.w3.org/Graphics/SVG/1.1/DTD/svg11.dtd">
<svg version="1.1" id="Layer_1" xmlns="http://www.w3.org/2000/svg" xmlns:xlink="http://www.w3.org/1999/xlink" x="0px" y="0px"
	 width="64px" height="64px" viewBox="0 0 64 64" enable-background="new 0 0 64 64" xml:space="preserve">
<g>
	<g>
		<path fill-rule="evenodd" clip-rule="evenodd" fill="none" d="M0.131,24.822C0.087,24.819,0.044,24.816,0,24.813
			c0-7.73,0-15.461,0-23.191c10.644,0,21.286,0,31.929,0c0.002,0.041,0.004,0.081,0.005,0.121c-0.025,0.104-0.046,0.209-0.079,0.312
			c-2.407,7.414-4.819,14.826-7.213,22.244c-0.141,0.434-0.337,0.561-0.787,0.56c-7.675-0.015-15.35-0.011-23.024-0.012
			C0.597,24.846,0.364,24.831,0.131,24.822z"/>
		<path fill-rule="evenodd" clip-rule="evenodd" fill="#0081C7" d="M0.131,24.822c0.233,0.008,0.466,0.023,0.699,0.023
			c7.675,0.001,15.35-0.003,23.024,0.012c0.45,0.001,0.646-0.126,0.787-0.56c2.394-7.418,4.806-14.831,7.213-22.244
			c0.033-0.102,0.054-0.208,0.079-0.312c0.078,0.129,0.184,0.249,0.229,0.388c1.684,5.156,3.364,10.313,5.03,15.475
			c0.075,0.233,0.075,0.533,0,0.767c-1.171,3.641-2.366,7.275-3.535,10.917c-0.127,0.394-0.303,0.515-0.716,0.514
			c-5.68-0.015-11.359-0.01-17.04-0.01c-0.175,0-0.35,0-0.525,0c-0.02,0.038-0.04,0.077-0.06,0.115
			c4.882,3.544,9.765,7.088,14.665,10.647c-0.61,1.877-1.214,3.736-1.818,5.594c-0.629,1.93-1.253,3.86-1.896,5.785
			c-0.074,0.222-0.217,0.467-0.4,0.601c-4.441,3.241-8.893,6.47-13.343,9.7c-0.056,0.04-0.122,0.068-0.261,0.145
			c0.066-0.236,0.106-0.402,0.16-0.564c2.399-7.378,4.798-14.756,7.212-22.129c0.116-0.357,0.057-0.533-0.242-0.75
			c-6.318-4.571-12.629-9.154-18.937-13.739C0.326,25.102,0.238,24.948,0.131,24.822z"/>
		<path fill-rule="evenodd" clip-rule="evenodd" fill="#FFFFFF" d="M52.196,33.432c-2.574,1.863-5.146,3.729-7.728,5.584
			c-0.238,0.172-0.249,0.316-0.163,0.579c0.971,2.948,1.926,5.903,2.885,8.855c0.025,0.08,0.048,0.161,0.106,0.355
			c-1.22-0.884-2.346-1.699-3.472-2.517c-1.453-1.055-2.913-2.1-4.353-3.174c-0.281-0.209-0.44-0.158-0.689,0.024
			c-2.508,1.833-5.024,3.655-7.538,5.479c-0.057,0.041-0.118,0.074-0.271,0.17c1.053-3.236,2.075-6.379,3.112-9.57
			c-2.663-1.928-5.321-3.854-7.979-5.779c0.183-0.031,0.366-0.09,0.55-0.091c2.944-0.006,5.889-0.002,8.832-0.009
			c0.18-0.001,0.359-0.074,0.539-0.115c1.021-3.122,2.042-6.245,3.102-9.484c0.097,0.261,0.166,0.429,0.223,0.602
			c0.948,2.92,1.895,5.84,2.843,8.76c0.017,0.049,0.053,0.092,0.08,0.137c0.183,0.033,0.365,0.096,0.548,0.096
			c2.941,0.006,5.884,0.003,8.825,0.009C51.831,33.343,52.014,33.4,52.196,33.432z"/>
		<path fill-rule="evenodd" clip-rule="evenodd" fill="#0082C7" d="M64,24.875c-1.321,0.959-2.538,1.843-3.755,2.726
			c-0.887,0.644-1.766,1.3-2.669,1.921c-0.219,0.151-0.519,0.259-0.781,0.26c-3.847,0.017-7.693,0.01-11.54,0.015
			c-0.265,0-0.473,0.003-0.575-0.324c-0.461-1.475-0.946-2.941-1.42-4.412c-0.015-0.045,0.003-0.102,0.007-0.186
			C50.134,24.875,56.99,24.875,64,24.875z"/>
		<path fill-rule="evenodd" clip-rule="evenodd" fill="#0081C7" d="M51.645,62.35c-5.542-4.023-11.085-8.045-16.688-12.111
			c1.424-1.035,2.783-2.024,4.179-3.039c1.329,0.963,2.65,1.918,3.97,2.876c1.904,1.382,3.812,2.757,5.702,4.155
			c0.226,0.167,0.428,0.439,0.517,0.703c0.782,2.33,1.535,4.67,2.298,7.007c0.037,0.115,0.074,0.23,0.111,0.346
			C51.704,62.307,51.674,62.328,51.645,62.35z"/>
	</g>
</g>
</svg>
