<svg id="Layer_1" data-name="Layer 1" xmlns="http://www.w3.org/2000/svg" viewBox="0 0 549 393" height="64" width="64"><defs><style>.cls-1{fill:#f0b34f;}.cls-2{fill:#f2bb62;}.cls-3{fill:#f3c372;}.cls-4{fill:#f4c77e;}.cls-5{fill:#f4cc88;}.cls-6{fill:#fcf1e0;}.cls-7{fill:#fae9cc;}.cls-8{fill:#f7d7a2;}.cls-9{fill:#f3c16d;}.cls-10{fill:#fdfaf4;}.cls-11{fill:#fcf3e4;}.cls-12{fill:#f5cf8f;}.cls-13{fill:#fae8ca;}.cls-14{fill:#f9e0b7;}.cls-15{fill:#fdf4e7;}.cls-16{fill:#fae6c6;}.cls-17{fill:#f6d59c;}.cls-18{fill:#f4c579;}.cls-19{fill:#fec055;}.cls-20{fill:#f6ba51;}.cls-21{fill:#f8bb52;}.cls-22{fill:#fdbe53;}.cls-23{fill:#fcbd53;}.cls-24{fill:#fdbf54;}.cls-25{fill:#fcbe54;}.cls-26{fill:#fcbf54;}.cls-27{fill:#fcbe53;}.cls-28{fill:#fdbe54;}.cls-29{fill:#febf54;}.cls-30{fill:#fbbe54;}.cls-31{fill:#fec054;}.cls-32{fill:#fdbf53;}.cls-33{fill:#fdc054;}.cls-34{fill:#fcbf53;}.cls-35{fill:#febe54;}.cls-36{fill:#fec155;}.cls-37{fill:#fec256;}.cls-38{fill:#fec356;}.cls-39{fill:#fec456;}.cls-40{fill:#fec255;}.cls-41{fill:#fec355;}.cls-42{fill:#daa549;}.cls-43{fill:#fec156;}.cls-44{fill:#fec257;}.cls-45{fill:#febf55;}.cls-46{fill:#fefefe;}.cls-47{fill:silver;}.cls-48{fill:#ecb14e;}.cls-49{fill:#eeb24e;}.cls-50{fill:#ccc;}.cls-51{fill:#c7c7c7;}.cls-52{fill:#c9c9c9;}.cls-53{fill:#cacaca;}.cls-54{fill:#f4b952;}.cls-55{fill:#eab34f;}.cls-56{fill:#efb851;}.cls-57{fill:#f2b951;}.cls-58{fill:#cecece;}.cls-59{fill:#f1b851;}.cls-60{fill:#cbcbcb;}.cls-61{fill:#cdcdcd;}.cls-62{fill:#acacac;}.cls-63{fill:#fabc52;}.cls-64{fill:#dfaf4e;}.cls-65{fill:#d1d1d1;}.cls-66{fill:#cfcfcf;}.cls-67{fill:#a5a5a5;}.cls-68{fill:#d6d6d6;}.cls-69{fill:#664e22;}.cls-70{fill:#797979;}.cls-71{fill:#6f6f6f;}.cls-72{fill:#b9b9b9;}.cls-73{fill:#b0b0b0;}.cls-74{fill:#d0d0d0;}.cls-75{fill:#e4ae4c;}.cls-76{fill:#d2d2d2;}.cls-77{fill:#a07935;}.cls-78{fill:#9f7b36;}.cls-79{fill:#a3a3a3;}.cls-80{fill:#a17b36;}.cls-81{fill:#d3d3d3;}.cls-82{fill:#dcdcdc;}.cls-83{fill:#fed05c;}.cls-84{fill:#e1e1e1;}</style></defs><title>Team_eu4ia_2017</title><path class="cls-1" d="M549,57q-17.32,29.19-34.66,58.39c-4.58,7.74-9.22,15.45-13.6,23.3-2.21,4-4.21,7.75-10.58,5.85,2.53,10.6,4.84,20.39,7.19,30.17,4.21,17.47,8.53,34.91,12.54,52.43a16.54,16.54,0,0,1-.5,8.6c-13.71,39.58-38.86,70.59-72.27,95.2-37.21,27.4-79.24,44.11-123.81,55-9.69,2.36-19.53,4.09-29.3,6.11l-2,.05-2,0-2,0-2,1h-3l-2.05-.93h-4l-2-.05a427.8,427.8,0,0,1-72.81-19.12c-42.94-15.71-82-37.54-113.36-71.62a184.93,184.93,0,0,1-39.4-66,15.5,15.5,0,0,1-.34-8.14c6-25.75,12.3-51.46,18.49-77.18.35-1.45.61-2.92,1.08-5.23-7.09,2.31-8.63-3.14-11.1-7.35L1.72,59.42C1.22,58.57.58,57.8,0,57V56c25.15.06,50.3,0,75.45.3,4.14,0,6.4-1.06,6.54-5.2.27-7.75,5.76-10.94,11.67-14a291.08,291.08,0,0,1,79.68-26.91C194.4,6.26,215.77,4,237,1l3,0,3,0,4-.05,2,0L253,1h3l5,0h30l5,0,4,0,2,0h3l4,0,3,0c16,2,32.1,3.49,48,6.15,32.64,5.44,64.26,14.38,94,29.27,7,3.49,13,7.3,13.36,16.16.09,2.36,1.29,3.71,4.18,3.69,25.82-.18,51.63-.19,77.45-.25ZM120.71,319.11l.36-.15,2.87,2.08-.2.4.23-.39,4.1,2.89-.25.43.23-.44,3,2-.25.43L131,326l3,2a1.69,1.69,0,0,0-.32.19c-.06.05-.07.15-.1.23l.4-.43,3.07,2c-.15.14-.3.28-.07.06l.06-.07L139,331l-.22.41L139,331l3.12,1.89-.11.1.1-.11L144,334l-.22.41.23-.4,5.09,2.91a1.69,1.69,0,0,0-.32.19c-.06,0-.07.15-.1.23l.41-.43,2,1.06-.23.42L151,338l5.3,2.84-.4.93,1.07-.64,3.29,1.74-.36.91c.36-.2.71-.41,1.06-.62l3.33,1.69-.39.92,1.06-.64,8.1,3.83-.25.43.23-.44,4.28,1.88-.4.93,1.06-.68,14.29,5.8-1.43.46.28.68,1.85-.92,7.33,2.74-.35.93,1-.72,5.27,1.82-.3.92,1-.71,5.36,1.76-1.49.48.31.69,1.83-1,20.32,5.84-1.46.49.32.68,1.82-1,3.33.84-1.47.49.29.7,1.85-1,8.19,1.92-2.18.44.25.8,2.73-1.1,26.34,4.77-2.29.44.06.52h6.8l.06-.52-2.3-.44L302,373.05l2.86,1,.22-.83-2.27-.29,4.17-1,1.88.81.19-.54-1.41-.42L311,371l1.89.78.18-.53-1.39-.41L315,370l1.94.81.15-.54-1.39-.42L339,363.05l2,.74.13-.54-1.37-.39L348,360l1,.72-.33-.93,7.31-2.74,2,.69.11-.53-1.36-.38L384,345.12l1.05.64-.35-.92,7.3-3.71,1.06.62-.38-.92L398,338l.4.24L398,338l1.95-1.06.41.25-.43-.24L405,334l.4.23L405,334l1.89-1.11a1.74,1.74,0,0,0,.18.33c0,.06.15.07.23.1l-.43-.42L410,331l.4.24L410,331l1.86-1.14.08.09c.21.2.06.06-.09-.08l3.07-1.95.41.25-.43-.24,3-2,.41.25L418,326l3-2,.41.25L421,324l4.09-2.89.41.22-.37-.24c1-.7,1.92-1.4,2.89-2.09l.4.25L428,319l4-3,.36.15.64-.1c.14-.07.41-.17.4-.22a4.09,4.09,0,0,0-.24-.75L437,312l1,0,.36-.14-.25-.43-.09-.28L443,306.9l1.05,0,.91-.92,1-1,1-1,1-1c.15-.07.41-.13.42-.21a3.5,3.5,0,0,0-.08-.78l9.86-9.91,1-.27,1-1,.9-.88,1-1c0-.35-.06-.7-.08-1.05q1.62-1.95,3.25-3.89l.24.07.54-.1,1-1-.06-1.06,3.09-4,.42.25L470,278l3-4,.42.25-.43-.24,2.05-3,.41.24L475,271l2-3,.42.23L477,268c.65-1,1.3-2.05,2-3.07l.42.26-.43-.24,1.12-1.87.4.19-.39-.22c.63-1,1.25-2.08,1.87-3.12a1.69,1.69,0,0,0,.19.32c.05.06.15.07.23.1l-.43-.4c.37-.64.73-1.29,1.09-1.93l.41.22L483,258l1.81-3.32.93.41-.63-1.07,1.73-3.3.91.36-.63-1.06,1.67-3.38.94.43c-.23-.35-.45-.71-.67-1.06l2.77-6.3.92.34-.68-1,1.74-4.33.93.36-.71-1-.09-9,.82-1.88-.53-.19-.43,1.41c-.28-1.11-.55-2.23-.83-3.35.27-.62.53-1.25.79-1.88l-.53-.19-.42,1.4c-.27-1.11-.54-2.22-.82-3.33v-4c-.09-1-.18-2-.26-3.05h-.53l-.33,2.29Q488.44,202.13,486,192l.81-1.94-.54-.14-.42,1.39L479,163l1-2.83-.79-.2c-.13.78-.25,1.56-.38,2.33L474.13,143l.81-2.77-.71-.19-.43,1.36c-.28-1.12-.56-2.24-.83-3.36l.89-7h14v-1h-16.7c4.45-.26,8.92-.34,13.34-.87,1.88-.23,3.65-1.4,5.47-2.14l.41.23L490,127l3-5,.42.25L493,122l3-5,.43.25-.44-.24L497,115l.4.21L497,115l3-5,.41.23L500,110l3-5,.42.24L503,105l5.94-10.08.09.1-.1-.09L510,93l.41.22L510,93l3-5,.42.24L513,88l5.94-10.08c.13.14.27.29.09.09.2.18,0,0-.1-.08.37-.64.73-1.28,1.1-1.91l.41.23L520,76l1.49-4.14c-20.52,0-40.57,0-60.63-.08-1.59,0-3.17-1.16-4.76-1.78H457a19.68,19.68,0,0,0,4.19.92q28.63.09,57.28,0a13.85,13.85,0,0,0,2.28-.36l-.07-.59H457l-.21-3.07-.59,0c-.09.74-.17,1.48-.26,2.22-1-3.67-1.84-7.42-3.15-11-.93-2.5-2.53-4.75-3.83-7.12l.24-.42L449,51l-2-1,.22-.41L447,50l-6-3,.22-.41L441,47l-1-.29-1.15-.64a.85.85,0,0,1-.84-.3l-1.26-.65-2-1,.34-.91-1.05.65-29.3-10.75,1.43-.47-.28-.69L404,33l-9.38-2.77,1.5-.49-.31-.69L394,30l-3.29-.87,1.44-.49-.29-.69L390,29l-7.25-1.86,1.4-.49-.32-.66L382,27l-3.36-.79,1.48-.51-.32-.68L378,26l-4.2-.94,2.2-.44-.27-.81L373,25l-9.19-1.89,3.2-.35-.16-.9L363,23l-4.3-.82,2.28-.5-.24-.83L357,21.9l-18.23-2.8,5.2-.34-.12-1L337,18.92l-6.23-.81,3.26-.39-.17-.91L329,17.94c-1.65,0-3.31-.08-5-.14-21.76-.71-43.52-2-65.28-1.92C242.83,16,226.92,17.9,211,19l-4.81-1.24-.16,1,4.16.36L192,21.91,188.14,21l-.12.76,2.28.4L186,23l-3.81-1.13-.21.89,3.21.36L176,25l-2.83-1-.22.81,2.29.33L167,27l-2-.79-.14.53,1.37.41L163,28l-2-.78-.13.53,1.36.41L159,29l-1.9-.77-.18.52,1.4.42L152,30.94l-2-.74-.13.52,1.35.39L145,33l-1.94-.77-.13.55,1.38.4L115,43.92l-1-.67.38.93-4.25,1.89-.41-.26.43.26L108,47l-.4-.25L108,47l-6,3-.4-.25L102,50c-4,1.78-5.49,5.07-6.19,9.19a91.5,91.5,0,0,1-2.78,9.89l-.25-2.2-.6,0L92,70H28.14a1.57,1.57,0,0,0,1.4.94q29.39,0,58.77,0A15.58,15.58,0,0,0,92,70h.9c-1.42.62-2.84,1.77-4.26,1.78-16.92.12-33.84.08-50.76.08H27.29L29,76l-.24.4L29,76c.37.63.73,1.27,1.1,1.91-.15.13-.3.26-.11.09l.1-.11L39,93l-.24.4L39,93c.36.64.73,1.27,1.1,1.91-.15.13-.3.26-.11.1-.17.18,0,0,.1-.12l3,5.06-.25.41.25-.43,3,5-.25.4L46,105l3,5-.24.4L49,110l1.11,1.9L50,112c-.16.17,0,0,.11-.12L52,115l-.23.41.25-.39c.36.64.73,1.27,1.09,1.9l-.26.41.25-.43,3,5-.25.4L56,122l3,5-.24.4L59,127c1.82.73,3.59,1.89,5.48,2.12,4.41.53,8.88.61,13.33.87H61.29c3.45,1,6.93.65,10.3,1.12,1.89.27,3.6,1.87,5.4,2.87-.6,2.45-1.21,4.9-1.81,7.35l-.49-1.48-.7.29L75,142l-4.89,20.27-.45-2.3-.84.29L70,163q-.91,3.67-1.81,7.35l-.5-1.48-.69.32L68,171l-3.92,16.23L63.69,185l-.83.27L64,188l-.82,3.31-.49-1.44-.67.31L63,192l-.84,3.31-.49-1.45-.69.3L62,196l-3.9,16.22L57.67,210l-.81.26L58,213l-1.79,7.31-.49-1.44-.68.31L56,221l-.83,3.33-.5-1.46-.68.31L55,225q0,4.5-.07,9l-.71,1,.93-.36L56.92,239l-.68,1,.92-.34L59.94,246l-.68,1.07.94-.43L61.87,250l-.63,1.06.91-.36,1.74,3.3-.63,1.07.92-.42L66,258l-.24.4L66,258l1.08,1.93a2.11,2.11,0,0,0-.33.18c-.06,0-.06.14-.09.22l.41-.42c.63,1,1.25,2.08,1.87,3.13l-.23.41.25-.38,1.12,1.86a1.74,1.74,0,0,0-.33.18c-.06,0-.07.15-.09.23l.41-.43c.65,1,1.3,2,2,3.07l-.25.4L72,268l2,3-.25.4L74,271l2.06,3a1.74,1.74,0,0,0-.33.18c-.06,0-.07.15-.09.23l.41-.42,3,4-.25.41L79,278,83,283l.09,1,.55.1.25-.07,3.25,3.88L87,289c.34.34.68.68,1,1l.9.9,1,1,1,1,1,.3,8.88,8.88c-.09.13-.29.33-.26.37a4.84,4.84,0,0,0,.58.62l.83.83,1,1,1,1,1,1,1-.07,4.92,4.18-.1.28-.33.12.44.47h1l3.9,3.09c-.12.11-.35.28-.33.32a4.88,4.88,0,0,0,.46.66l.66.09.36-.15,2.8,2.1c-.1.11-.32.29-.3.33a6.12,6.12,0,0,0,.5.64Z"/><path class="cls-2" d="M284,1H265c0-.33,0-.66,0-1h19C284,.33,284,.66,284,1Z"/><path class="cls-3" d="M284,1c0-.33,0-.66,0-1h7c0,.33,0,.66,0,1Z"/><path class="cls-4" d="M261,1l-5,0V0h5C261,.33,261,.65,261,1Z"/><path class="cls-5" d="M291,1c0-.33,0-.66,0-1h5c0,.32,0,.63,0,1Z"/><path class="cls-6" d="M309,.94l-4,0c0-.29,0-.59,0-.89h4C309,.31,309,.63,309,.94Z"/><path class="cls-7" d="M247,.88l-4,.05c0-.31,0-.62,0-.93h4C247,.29,247,.59,247,.88Z"/><path class="cls-8" d="M253,1l-4-.07c0-.3,0-.61,0-.92h4Z"/><path class="cls-9" d="M261,1c0-.33,0-.65,0-1h4c0,.33,0,.66,0,1Z"/><path class="cls-8" d="M296,1c0-.32,0-.63,0-.95h4c0,.31,0,.62,0,.93Z"/><path class="cls-10" d="M237,1V0h3c0,.32,0,.63,0,1Z"/><path class="cls-11" d="M240,1c0-.32,0-.63,0-.95h3c0,.31,0,.62,0,.93Z"/><path class="cls-12" d="M253,1V0h3V1Z"/><path class="cls-13" d="M305,0c0,.3,0,.6,0,.89h-3c0-.29,0-.59,0-.89Z"/><path class="cls-10" d="M309,.94c0-.31,0-.63,0-.94h3V1Z"/><path class="cls-14" d="M249,0c0,.31,0,.62,0,.92l-2,0c0-.29,0-.59,0-.88Z"/><path class="cls-14" d="M302,0c0,.3,0,.6,0,.89l-2,0c0-.31,0-.62,0-.93Z"/><path class="cls-15" d="M265,392l2,.05c0,.31,0,.61,0,.92h-2C265,392.68,265,392.35,265,392Z"/><path class="cls-16" d="M267,393c0-.31,0-.61,0-.92h2a7.23,7.23,0,0,1,0,.93Z"/><path class="cls-17" d="M269,393a7.23,7.23,0,0,0,0-.93h2c0,.31.05.62.05.93Z"/><path class="cls-18" d="M271,393c0-.31,0-.62-.05-.93L273,393Z"/><path class="cls-18" d="M276,393l2-1c0,.33,0,.65,0,1Z"/><path class="cls-17" d="M278,393c0-.33,0-.65,0-1l2,0a7.32,7.32,0,0,0,0,.94Z"/><path class="cls-16" d="M280,393a7.32,7.32,0,0,1,0-.94h2c0,.31,0,.62,0,.93Z"/><path class="cls-15" d="M282,393c0-.31,0-.62,0-.93l2,0c0,.32,0,.65,0,1Z"/><path d="M479,163l6.84,28.31a.48.48,0,0,0,.15.69q2.46,10.13,4.9,20.24a.56.56,0,0,0,.15.76l.84,3.32a.46.46,0,0,0,.13.68c.28,1.11.55,2.22.82,3.33a.46.46,0,0,0,.16.67c.28,1.12.55,2.24.83,3.35a.44.44,0,0,0,.14.66l.09,9a.5.5,0,0,0-.22.68L492.08,239a.55.55,0,0,0-.24.7l-2.77,6.3a.47.47,0,0,0-.27.63L487.13,250a.57.57,0,0,0-.28.7l-1.73,3.3a.53.53,0,0,0-.3.66L483,258h0c-.36.64-.72,1.29-1.09,1.93v0c-.62,1-1.24,2.08-1.87,3.12v0l-1.12,1.87v0c-.66,1-1.31,2.05-2,3.07h0l-2,3h0l-2.05,3h0l-3,4h0l-3.09,4-.83,1.06-.92,1.05Q463.5,286,461.88,288L461,289l-.94,1.05c-.34.36-.67.73-1,1.1l-1,1-9.86,9.91-1,1-1.05,1-1.07,1c-.37.32-.73.65-1.09,1l-1.05.89L438,311.07,437,312,433.09,315l-1.16.92-4,3h0c-1,.69-1.93,1.39-2.89,2.09l0,0L421,324h0l-3,2h0l-3,2h0l-3.07,1.95h0L410,331h0l-3.12,1.9h0L405,334h0L399.93,337h0L398,338h0l-5.29,2.83a.54.54,0,0,0-.68.3l-7.3,3.71a.57.57,0,0,0-.7.28l-27.29,11.75a.54.54,0,0,0-.72.22l-7.31,2.74a.52.52,0,0,0-.7.21l-8.28,2.82a.54.54,0,0,0-.72.19l-23.31,6.79a.49.49,0,0,0-.7.15l-3.32.84a.47.47,0,0,0-.68.16l-3.35.82a.43.43,0,0,0-.66.15l-4.17,1a.63.63,0,0,0-.81.14l-26.35,4.77h-2.33L247,373.05a.61.61,0,0,0-.8-.14L238,371a.46.46,0,0,0-.67-.16L234,370a.46.46,0,0,0-.68-.15L213,364a.44.44,0,0,0-.65-.18L207,362.06a.56.56,0,0,0-.73-.21L201,360a.48.48,0,0,0-.68-.21L193,357.08a.53.53,0,0,0-.7-.22L178,351.06a.49.49,0,0,0-.66-.25l-4.28-1.88h0l-8.1-3.83a.52.52,0,0,0-.67-.28L161,343.14a.57.57,0,0,0-.7-.29L157,341.11a.54.54,0,0,0-.67-.29L151,338h0l-2-1.06h0L144,334h0l-1.88-1.12h0L139,331h0l-1.87-1.14h0l-3.07-2h0l-3-2h0l-3-2h0l-4.1-2.89h0L121.07,319l-1.19-.91-2.8-2.1-1.15-.92-3.9-3.09-1.06-.88-4.92-4.18-1-.89-1-.92-1-.94-1.08-1-1.07-1.05-8.88-8.88-1-1-1-1.06L89,290,88,289l-.89-1.05-3.25-3.88L83,283,79,278h0l-3-4h0L74,271h0l-2-3h0c-.66-1-1.31-2-2-3.07v0L69,263.07l0,0c-.62-1.05-1.24-2.09-1.87-3.13v0L66,258h0l-1.82-3.32a.51.51,0,0,0-.29-.65l-1.74-3.3a.56.56,0,0,0-.28-.7l-1.67-3.38a.49.49,0,0,0-.26-.64c-.93-2.09-1.85-4.19-2.78-6.29a.54.54,0,0,0-.24-.7l-1.74-4.33A.5.5,0,0,0,55,234q0-4.5.07-9a.46.46,0,0,0,.14-.68L56,221a.49.49,0,0,0,.16-.7L58,213a.59.59,0,0,0,.16-.77L62,196a.48.48,0,0,0,.15-.69L63,192a.5.5,0,0,0,.15-.7L64,188a.54.54,0,0,0,.15-.75L68,171a.45.45,0,0,0,.15-.66q.9-3.67,1.81-7.35a.51.51,0,0,0,.14-.72L75,142a.44.44,0,0,0,.15-.66c.6-2.45,1.21-4.9,1.81-7.35l.81-4c-4.45-.26-8.92-.34-13.33-.87-1.89-.23-3.66-1.39-5.48-2.12h0l-3-5h0l-3-5v0L52,115.05l0,0-1.86-3.13h0L49,110h0l-3-5h0l-3-5v0l-3-5.06v0L39,93h0L30.09,77.89v0L29,76h0l-1.71-4.15H37.88c16.92,0,33.84,0,50.76-.08,1.42,0,2.84-1.16,4.26-1.78a.79.79,0,0,0,.15-.89,91.5,91.5,0,0,0,2.78-9.89c.7-4.12,2.22-7.41,6.19-9.19h0l6-3h0l2.06-1h0l4.25-1.89h.39l.28-.27L144.3,33.16l.39.06L145,33l6.24-1.87.41.06.34-.23,6.33-1.77.38.07L159,29l3.26-.86.4.06L163,28l3.28-.84.39.08L167,27l8.23-1.87.41.08L176,25l9.19-1.89.43.1L186,23l4.31-.81,1.68-.25,18.21-2.81.42.11L211,19c15.92-1.11,31.83-3.06,47.76-3.13,21.76-.1,43.52,1.21,65.28,1.92,1.66.06,3.32.1,5,.14l1.78.17,6.23.81,1.77.18L357,21.9l1.69.24L363,23l.38.22.43-.1L373,25l.36.22.42-.09L378,26l.29.23.37-.08L382,27l.34.22.4-.07L390,29l.31.24.39-.07L394,30l.28.23.36-.07L404,33l.31.24.4-.06L434,43.89l.31.27h.4l2,1,1.26.65a.85.85,0,0,0,.84.3l1.15.64,1,.29h0l6,3h0l2,1h0c1.3,2.37,2.9,4.62,3.83,7.12,1.31,3.56,2.12,7.31,3.15,11a.73.73,0,0,0,.15.86c1.59.62,3.17,1.77,4.76,1.78,20.06.12,40.11.08,60.63.08L520,76h0c-.37.63-.73,1.27-1.1,1.91h0L513,88h0l-3,5h0l-1.11,1.9h0L503,105h0l-3,5h0l-3,5v0l-1.1,1.9h0l-3,5v0l-3,5h0c-1.82.74-3.59,1.91-5.47,2.14-4.42.53-8.89.61-13.34.87q.88,4,1.78,8c.27,1.12.55,2.24.83,3.36l.33,1.6,4.71,19.33A.49.49,0,0,0,479,163Zm-31,93.92c.34-.33.69-.65,1-1l1-1,2-2,.4-.78-1.42.72-1,.83L448,255a.94.94,0,0,0-.91.27l-1.15.68h0l-2,1h0l-2,1-4,2.06h0l-32.24,13.9a.5.5,0,0,0-.69.22l-10.28,3.81a.54.54,0,0,0-.72.2l-8.21,2.84a.61.61,0,0,0-.78.2l-8.37,2.71a.45.45,0,0,0-.66.18l-6.26,1.87a.53.53,0,0,0-.73.18l-10.31,2.8a.48.48,0,0,0-.7.16l-3.28.85a.5.5,0,0,0-.72.15l-8.19,1.9a.59.59,0,0,0-.79.15l-20.18,3.87a.62.62,0,0,0-.83.11l-5.3.81a.48.48,0,0,0-.73.1l-7.22.93-1.75.17c-4.46.31-8.92.92-13.37.87-18.55-.18-37.1-.56-55.65-.87l-1.75-.17L231,297a.48.48,0,0,0-.73-.1L225,296a.66.66,0,0,0-.84-.11L204,292.07a.62.62,0,0,0-.81-.15L195,290a.54.54,0,0,0-.74-.15L191,289a.5.5,0,0,0-.71-.16L187,288a.43.43,0,0,0-.66-.16L180,286.06a.56.56,0,0,0-.75-.18L173,284a.47.47,0,0,0-.68-.17L152,277.07a.54.54,0,0,0-.72-.22L129,268.07a.52.52,0,0,0-.69-.24L118,263.17a.63.63,0,0,0-.76-.28l-2.13-1h0l-2-1h0L107,258h0L105,257l-2-1h0l-2-1.08L98,253l-1.45-.79.26.81,2.89,3.15,1,.95,1.16,1.12-.1-.09,1.12,1.16,5,4.89,1,.95,1,1,1,1,1,.93,1,.95,1,1,1.08,1,4.79,4.18L121,276l1,.95,3.83,3.14,2.19,1.81,2.89,2.25,1.1.82,1.86,1.51,1,.71L136,288l4,3h0L143,293h0l3,2.08,1.1.79,1.86,1.2h0l3,2h0l3.06,2h0L158,303h0l1.87,1.12h0L163,306h0l1.91,1.1h0L170,310h0l1.94,1h0l2,1h0l2,1h0l3.16,1.72a.62.62,0,0,0,.74.3l5.26,2.68a.63.63,0,0,0,.77.3l2.12,1h0l8.12,3.77.34.27h.43l4.22,1.83.29.26.39,0L206,327l.29.27.39,0L248,340l.3.24.37-.09L252,341l.38.22.43-.08L269,344l1.67.17,1.16.16,1.2.26.9-.55q.29-10,.56-19.92l51.7-8,.42.08L327,316l3.29-.81.39.09L331,315l3.33-.83.37.08.3-.24,3.31-.85.38.07L339,313l3.2-.89.42.06.36-.23,9.35-2.76.38.06L353,309l14.31-4.81.39,0L368,304l7.3-2.79.39,0,.3-.26,4.28-1.79.41,0,.3-.27,4.11-1.83h0l2.17-.95h.42l.31-.27L398,291h0l5.92-3.05,0,0,5.14-2.86h0L411,284h0l5-3h0l3.09-1.93h0l1-.6.89-.65,1.06-.7,1.9-1.23,1.09-.8,3-2.08h0l3-2.11,1.07-.82,2.85-2.15,1.16-.93,3.9-3.13,1-.95,1-.89,4-3.33.84-.79.11-.06,1-.92Zm-92.83,12-.1.09-.91-2.27a.6.6,0,0,0-.22-.73l-.87-2,.09-1.53,2-1.37,1.38-.89a.4.4,0,0,0,.54-.31l1.12-.79,0,0,1.68-1.11-9.64-2.28a.56.56,0,0,0-.23-.7c-.66-1.92-1.32-3.85-2.37-6.94L345,256h0l-10,2,2,1.06,1.74,1.12,3.45,3.83a.73.73,0,0,0-.26.83l-2.79,6.13.73.61,6.24-4.46h0L352,269l1,.7,2,1.32.58.61.23-.73a.65.65,0,0,0-.07-.82ZM208,268l1,.75,3,2.26,1.45.78-.24-1.83L211.85,267l-.84-2h0l3.17-4.9L216,259l1.56-.94c-7,1.11-10.9-1.83-12.45-9.28-.95,8.05-5.78,9.72-12.29,9.58l5.11,2.85,1.11.77.91,1.07a1.3,1.3,0,0,0,0,.85l-2.06,5c-.31.73-.61,1.47-1.38,3.33l2.64-2.08c1-.67,2-1.34,3-2L204,267l2.94.25ZM429.84,71c-.29-1.33-.59-2.66-.88-4l-1.86-7.22A.58.58,0,0,0,427,59l-1-1.89a.46.46,0,0,0-.62-.33l-4.3-1.85h0l-2.07-.9a.47.47,0,0,0-.66-.24L399,47a.49.49,0,0,0-.71-.18L392,45.05a.54.54,0,0,0-.73-.18L388,44a.43.43,0,0,0-.66-.16L384,43a.48.48,0,0,0-.7-.15L380,42a.53.53,0,0,0-.75-.15L371,40.05a.63.63,0,0,0-.83-.12L360,38a.51.51,0,0,0-.73-.12L354,37a.51.51,0,0,0-.75-.1L348,36l-1.64-.23a8.06,8.06,0,0,0-1.85-.62c-22.72-1.75-45.43-4.53-68.17-4.88-19.2-.3-38.45,2.23-57.68,3.5L217,34l-7.21.9-1.77.19-33.3,5.77A.49.49,0,0,0,174,41l-8.2,1.9a.58.58,0,0,0-.78.16l-10.36,2.76A.45.45,0,0,0,154,46l-6.26,1.88a.53.53,0,0,0-.72.2l-2.29.78A.53.53,0,0,0,144,49c-6.72,2.48-13.46,4.9-20.13,7.51-.81.32-1.23,1.62-1.83,2.46a.61.61,0,0,0-.15.79L120,67l-1.39,4.79c12.66,0,24.57.07,36.47-.11,1,0,2-1.67,2.94-2.55l3.27-5,.37.07L162,64l6.21-1.88.42.06.36-.24,15.29-3.79.39.1L185,58l21.2-3.9.42.11L207,54l5.36-.8L214,53l6.3-.82L222,52l7.37-.79L232,51l31.28-1.83h22.46L317,51l2.63.23L327,52l1.7.17L335,53l1.63.21L342,54l.39.22.42-.11L348,55l.41.21.45-.1L354,56l.37.22.41-.09L387,64l.29.25.39,0,3.24,5c-.41,3.45,2.14,2.63,4,2.64q15.19.06,30.4,0A27.77,27.77,0,0,0,429.84,71ZM261.12,285.74l8.94-5.7h0l3-2h2.84l3.05,2h0q3.9,2.61,7.79,5.23l1.1.76.15-1a1.41,1.41,0,0,0-.22-.93c-.21-.41-.41-.83-.62-1.24a88.79,88.79,0,0,1-3.1-8.77c-.3-1.22.55-2.73.88-4.1l0,0,4.17-2.81h0l1.83-1.19,3-2,.25-1.61a44.29,44.29,0,0,0-5.88.08c-5.6.79-9.85-.46-11.23-6.67a.59.59,0,0,0-.23-.74l-2.48-7.17c-1.06,3.25-1.69,5.21-2.33,7.16a.59.59,0,0,0-.23.74c-1.44,5.67-5,7.77-10.74,6.7a35.69,35.69,0,0,0-6.38-.1L255,264l3,2,1.84,1.18h0l4.16,2.81,0,0c.33,1.38,1.18,2.88.88,4.1a90.34,90.34,0,0,1-3.08,8.77l-.62,1.24a1.51,1.51,0,0,0-.24.93l-.38.29ZM161,182.62H262.72V85.08H60.56c5.07,8.13,9.89,15.5,14.31,23.11,1.81,3.11,3.8,4.38,7.48,4.25,8.39-.3,16.81-.1,25.54-.1-8,41.21-15.8,81.66-23.64,122.17a14.22,14.22,0,0,0,1.93.33q86.49,0,173-.11a7.92,7.92,0,0,0,5.25-2.73c8-9.62,15.71-19.42,23.49-29.2a15.46,15.46,0,0,0,1.31-2.83H130c4.81-29.7,9.56-59,14.28-88.21h84c-.81,13.65-1.59,26.89-2.39,40.47-13.74,0-27-.09-40.33.1-1.87,0-4.47.82-5.44,2.18C173.69,163.57,167.56,172.88,161,182.62Zm125.21.11H418c2.94,17.61,5.82,34.81,8.65,51.76h42.54c-8.51-41.11-16.94-81.81-25.49-123.13,10.09,0,19.7,0,29.3,0,1.52,0,3.85-.28,4.42-1.24,4.76-8.11,9.2-16.41,13.93-25h-90c3.48,22.2,6.92,44.14,10.38,66.24H326.39c-1.21-22.22-2.4-44.11-3.6-66.1H286.18Z"/><path class="cls-19" d="M92,70a15.58,15.58,0,0,1-3.69.92q-29.39.09-58.77,0a1.57,1.57,0,0,1-1.4-.94Z"/><path class="cls-19" d="M457,70h63.68l.07.59a13.85,13.85,0,0,1-2.28.36q-28.65,0-57.28,0A19.68,19.68,0,0,1,457,70Z"/><path class="cls-20" d="M473,138q-.9-4-1.78-8h16.7v1h-14Z"/><path class="cls-21" d="M77.8,130,77,134c-1.8-1-3.51-2.6-5.4-2.87-3.37-.47-6.85-.13-10.3-1.12Z"/><path class="cls-22" d="M273.33,377.82h2.33l2.3.44-.06.52h-6.8l-.06-.52Z"/><path class="cls-23" d="M338.79,19.1,337,18.92l6.85-1.18.12,1Z"/><path class="cls-24" d="M330.79,18.11,329,17.94l4.87-1.13.17.91Z"/><path class="cls-22" d="M211,19l-.39.2-.42-.11L206,18.74l.16-1Z"/><path class="cls-23" d="M192,21.91l-1.68.25-2.28-.4.12-.76Z"/><path class="cls-23" d="M358.71,22.14,357,21.9l3.73-1.09.24.83Z"/><path class="cls-25" d="M186,23l-.38.22-.43-.1L182,22.73l.21-.89Z"/><path class="cls-25" d="M363.82,23.08l-.43.1L363,23l3.85-1.13.16.9Z"/><path class="cls-23" d="M373.79,25.1l-.42.09L373,25l2.71-1.12.27.81Z"/><path class="cls-23" d="M176,25l-.35.22-.41-.08-2.29-.33.22-.81Z"/><path class="cls-19" d="M93.05,69.1a.79.79,0,0,1-.15.89H92c.07-1,.13-2,.2-3.07l.6,0Z"/><path class="cls-19" d="M456.09,70a.73.73,0,0,1-.15-.86c.09-.74.17-1.48.26-2.22l.59,0L457,70h-.91Z"/><path class="cls-26" d="M302,373.05a.63.63,0,0,1,.81-.14l2.27.29-.22.83Z"/><path class="cls-25" d="M246.19,372.91a.61.61,0,0,1,.8.14l-2.73,1.1-.25-.8Z"/><path class="cls-23" d="M474.13,143l-.33-1.6.43-1.36.71.19Z"/><path class="cls-27" d="M70.14,162.28A.51.51,0,0,1,70,163l-1.15-2.73.84-.29Z"/><path class="cls-27" d="M479,163a.49.49,0,0,1-.15-.7c.13-.77.25-1.55.38-2.33l.79.2Z"/><path class="cls-25" d="M64.12,187.24A.54.54,0,0,1,64,188l-1.11-2.71.83-.27Z"/><path class="cls-27" d="M58.11,212.22A.59.59,0,0,1,58,213l-1.09-2.72.81-.26Z"/><path class="cls-27" d="M491,213a.56.56,0,0,1-.15-.76l.33-2.29h.53c.08,1,.17,2,.26,3.05h-1Z"/><path class="cls-22" d="M492,217a.46.46,0,0,1-.13-.68c.05-1.11.09-2.22.13-3.32h0Z"/><path class="cls-26" d="M307,372a.43.43,0,0,1,.66-.15l1.41.42-.19.54Z"/><path class="cls-28" d="M311,371a.47.47,0,0,1,.68-.16l1.39.41-.18.53Z"/><path class="cls-28" d="M237.33,370.83a.46.46,0,0,1,.67.16l-1.85,1-.29-.7Z"/><path class="cls-29" d="M315,370a.49.49,0,0,1,.7-.15l1.39.42-.15.54Z"/><path class="cls-29" d="M233.32,369.84a.46.46,0,0,1,.68.15l-1.82,1-.32-.68Z"/><path class="cls-27" d="M212.35,363.82a.44.44,0,0,1,.65.18l-1.83,1-.31-.69Z"/><path class="cls-22" d="M339,363.05a.54.54,0,0,1,.72-.19l1.37.39-.13.54Z"/><path class="cls-27" d="M356,357.09a.54.54,0,0,1,.72-.22l1.36.38-.11.53Z"/><path class="cls-30" d="M192.28,356.86a.53.53,0,0,1,.7.22l-1.85.92-.28-.68Z"/><path class="cls-28" d="M75.18,141.35A.44.44,0,0,1,75,142l-1-1.85.7-.29Z"/><path class="cls-31" d="M378.65,26.19l-.37.08L378,26l1.82-1,.32.68Z"/><path class="cls-28" d="M68.19,170.35A.45.45,0,0,1,68,171l-1-1.82.69-.32Z"/><path class="cls-29" d="M167,27l-.34.23-.39-.08-1.37-.41.14-.53Z"/><path class="cls-24" d="M63.15,191.3a.5.5,0,0,1-.15.7l-1-1.83.67-.31Z"/><path class="cls-32" d="M486,192a.48.48,0,0,1-.15-.69l.42-1.39.54.14Z"/><path class="cls-25" d="M62.16,195.31A.48.48,0,0,1,62,196l-1-1.84.69-.3Z"/><path class="cls-29" d="M382.75,27.13l-.4.07L382,27l1.82-1,.32.66Z"/><path class="cls-22" d="M163,28l-.33.22-.4-.06-1.36-.41.13-.53Z"/><path class="cls-28" d="M159,29l-.31.24-.38-.07-1.39-.42.18-.52Z"/><path class="cls-28" d="M56.16,220.3a.49.49,0,0,1-.16.7l-1-1.83.68-.31Z"/><path class="cls-22" d="M493,221a.46.46,0,0,1-.16-.67l.42-1.4.53.19Z"/><path class="cls-24" d="M55.17,224.33A.46.46,0,0,1,55,225l-1-1.83.68-.31Z"/><path class="cls-33" d="M494,225a.44.44,0,0,1-.14-.66c.14-.47.28-.94.43-1.41l.53.19Z"/><path class="cls-28" d="M390.7,29.16l-.39.07L390,29l1.85-1,.29.69Z"/><path class="cls-26" d="M394.63,30.19l-.36.07L394,30l1.83-1,.31.69Z"/><path class="cls-28" d="M152,30.94l-.34.23-.41-.06-1.35-.39.13-.52Z"/><path class="cls-34" d="M145,33l-.3.24-.39-.06-1.38-.4.13-.55Z"/><path class="cls-24" d="M404.72,33.14l-.4.06L404,33l1.86-1,.28.69Z"/><path class="cls-28" d="M115,43.92l-.28.27h-.39l-.38-.93Z"/><path class="cls-35" d="M434.73,44.15h-.4l-.31-.27,1.05-.65Z"/><path class="cls-29" d="M392,341.13a.54.54,0,0,1,.68-.3l.38.92Z"/><path class="cls-28" d="M160.27,342.85a.57.57,0,0,1,.7.29c-.35.21-.7.42-1.06.62Z"/><path class="cls-24" d="M164.3,344.83a.52.52,0,0,1,.67.28l-1.06.64Z"/><path class="cls-26" d="M384,345.12a.57.57,0,0,1,.7-.28l.35.92Z"/><path class="cls-29" d="M177.33,350.81a.49.49,0,0,1,.66.25l-1.06.68Z"/><path class="cls-31" d="M200.31,359.82a.48.48,0,0,1,.68.21l-1,.72Z"/><path class="cls-36" d="M348,360a.52.52,0,0,1,.7-.21l.33.93Z"/><path class="cls-19" d="M206.26,361.85a.56.56,0,0,1,.73.21l-1,.71Z"/><path class="cls-19" d="M55,234a.5.5,0,0,1,.22.68l-.93.36Z"/><path class="cls-36" d="M493.82,234.69A.5.5,0,0,1,494,234l.71,1Z"/><path class="cls-24" d="M56.92,239a.54.54,0,0,1,.24.7l-.92.34Z"/><path class="cls-29" d="M491.84,239.72a.55.55,0,0,1,.24-.7c.23.35.45.7.68,1Z"/><path class="cls-24" d="M59.94,246a.49.49,0,0,1,.26.64l-.94.43Z"/><path class="cls-24" d="M488.8,246.65a.47.47,0,0,1,.27-.63c.22.35.44.71.67,1.06Z"/><path class="cls-25" d="M61.87,250a.56.56,0,0,1,.28.7l-.91.36Z"/><path class="cls-25" d="M486.85,250.73a.57.57,0,0,1,.28-.7l.63,1.06Z"/><path class="cls-24" d="M63.89,254a.51.51,0,0,1,.29.65l-.92.42Z"/><path class="cls-33" d="M484.82,254.69a.53.53,0,0,1,.3-.66l.63,1.07Z"/><path class="cls-19" d="M466.05,283l.83-1.06c0,.35,0,.7.07,1.06Z"/><path class="cls-37" d="M83,283l.89,1.06-.25.07a1.28,1.28,0,0,0-.55-.1Z"/><path class="cls-38" d="M466.05,283h.9l-1,1a1.24,1.24,0,0,0-.54.1l-.24-.07Z"/><path class="cls-19" d="M87.14,287.94,88,289H87Z"/><path class="cls-19" d="M461,289l.89-1.05c0,.35.05.7.08,1.05Z"/><path class="cls-19" d="M87,289h1L89,290l-.09.1a4.31,4.31,0,0,0-.8-.13Z"/><path class="cls-19" d="M461,289h1l-1,1a3.6,3.6,0,0,0-.8.12l-.08-.09Z"/><path class="cls-39" d="M89,290l1,1.09a6.57,6.57,0,0,1,0,.77l-1-1a2.86,2.86,0,0,0-.1-.77Z"/><path class="cls-38" d="M459,291.15c.34-.37.67-.74,1-1.1l.08.09a2.78,2.78,0,0,0-.1.76l-1,1A6.26,6.26,0,0,1,459,291.15Z"/><path class="cls-40" d="M90,291.9a6.57,6.57,0,0,0,0-.77l1,1.06a5.45,5.45,0,0,1,0,.7Z"/><path class="cls-38" d="M459,291.15a6.26,6.26,0,0,0,0,.75l-1,.26Z"/><path class="cls-40" d="M91,292.89a5.45,5.45,0,0,0,0-.7l1,1Z"/><path class="cls-19" d="M100.81,302.07l1.07,1.05,0,0a2.25,2.25,0,0,0-.73-.09,4.84,4.84,0,0,1-.58-.62S100.72,302.2,100.81,302.07Z"/><path class="cls-36" d="M447.22,303.05l1-1a3.5,3.5,0,0,1,.08.78c0,.08-.27.14-.42.21A2.73,2.73,0,0,0,447.22,303.05Z"/><path class="cls-38" d="M101.88,303.12l1.08,1a6.77,6.77,0,0,1,0,.78l-1-1a2.32,2.32,0,0,0-.1-.74Z"/><path class="cls-40" d="M447.22,303.05a2.73,2.73,0,0,1,.64,0l-1,1a4.21,4.21,0,0,0-.71,0Z"/><path class="cls-38" d="M103,304.91a6.77,6.77,0,0,0,0-.78l1,.94c0,.29,0,.58,0,.86Z"/><path class="cls-40" d="M446.17,304a4.21,4.21,0,0,1,.71,0l-1,1a5.34,5.34,0,0,0-.8,0Z"/><path class="cls-38" d="M104,305.93c0-.28,0-.57,0-.86l1,.92v1Z"/><path class="cls-40" d="M445.1,305a5.34,5.34,0,0,1,.8,0l-1,1a3.07,3.07,0,0,0-.79.11L444,306Z"/><path class="cls-19" d="M105,307v-1l1,.89Z"/><path class="cls-36" d="M443,306.9,444,306l.12.12a3.69,3.69,0,0,0-.12.81Z"/><path class="cls-40" d="M111,311.06l1.06.88h-1a1.51,1.51,0,0,0-.11-.59Z"/><path class="cls-37" d="M437,312l1.06-.89.09.27a1.46,1.46,0,0,0-.11.58Z"/><path class="cls-40" d="M115.93,315l1.15.92-.35.15a2.52,2.52,0,0,0-.67-.09,4.88,4.88,0,0,1-.46-.66S115.81,315.14,115.93,315Z"/><path class="cls-37" d="M431.93,316l1.16-.92a4.09,4.09,0,0,1,.24.75s-.26.15-.4.22a2,2,0,0,0-.64.1Z"/><path class="cls-41" d="M119.88,318.05l1.19.91-.36.15a1.66,1.66,0,0,0-.63-.09,6.12,6.12,0,0,1-.5-.64S119.78,318.16,119.88,318.05Z"/><path class="cls-29" d="M156.31,340.82a.54.54,0,0,1,.67.29l-1.07.64Z"/><path class="cls-37" d="M110.08,46.07l-.43-.26.41.26Z"/><path class="cls-37" d="M108,47l-.41-.24.4.25Z"/><path class="cls-42" d="M440,46.71l-1.15-.64Z"/><path class="cls-43" d="M441,47l.22-.41L441,47Z"/><path class="cls-43" d="M102,50l-.41-.25.4.25Z"/><path class="cls-37" d="M447,50l.22-.41L447,50Z"/><path class="cls-19" d="M449,51l.23-.43L449,51Z"/><path class="cls-37" d="M29,76l-.24.4L29,76Z"/><path class="cls-37" d="M520,76l.41.23L520,76Z"/><path class="cls-36" d="M30.09,77.89,30,78c-.19.17,0,0,.11-.09Z"/><path class="cls-36" d="M518.89,77.9c.15.13.3.26.1.08.18.2,0,0-.09-.09Z"/><path class="cls-44" d="M513,88l.43.23L513,88Z"/><path class="cls-40" d="M39,93l-.24.4L39,93Z"/><path class="cls-43" d="M510,93l.41.22L510,93Z"/><path class="cls-29" d="M40.09,94.89c-.13.15-.27.3-.1.12-.19.16,0,0,.11-.1Z"/><path class="cls-40" d="M481.92,259.94l.43.4c-.08,0-.18,0-.23-.1a1.69,1.69,0,0,1-.19-.32Z"/><path class="cls-41" d="M74,271l-.24.41L74,271Z"/><path class="cls-39" d="M88.87,290.14a2.86,2.86,0,0,1,.1.77l-.9-.9A4.31,4.31,0,0,1,88.87,290.14Z"/><path class="cls-40" d="M67.07,259.91l-.41.42c0-.08,0-.18.09-.22a2.11,2.11,0,0,1,.33-.18Z"/><path class="cls-38" d="M475,271l.41.23L475,271Z"/><path class="cls-38" d="M460,290.9a2.78,2.78,0,0,1,.1-.76,3.6,3.6,0,0,1,.8-.12Z"/><path class="cls-19" d="M76.07,273.92l-.41.42c0-.08,0-.19.09-.23a1.74,1.74,0,0,1,.33-.18Z"/><path class="cls-19" d="M483,258l.41.22L483,258Z"/><path class="cls-37" d="M72,268l-.24.41L72,268Z"/><path class="cls-19" d="M66,258l-.24.4L66,258Z"/><path class="cls-19" d="M472.93,273.94l.43.24-.42-.25Z"/><path class="cls-38" d="M101.86,303.15a2.32,2.32,0,0,1,.1.74l-.83-.83A2.25,2.25,0,0,1,101.86,303.15Z"/><path class="cls-43" d="M477,268l.42.22L477,268Z"/><path class="cls-41" d="M79,278l-.24.42.25-.41Z"/><path class="cls-40" d="M70.07,264.91l-.41.43c0-.08,0-.19.09-.23a1.74,1.74,0,0,1,.33-.18Z"/><path class="cls-39" d="M444,306.94a3.69,3.69,0,0,1,.12-.81,3.07,3.07,0,0,1,.79-.11Z"/><path class="cls-38" d="M110.87,311.34a1.51,1.51,0,0,1,.11.59l-.44-.47Z"/><path class="cls-37" d="M470,278l.43.24L470,278Z"/><path class="cls-37" d="M438,311.92a1.46,1.46,0,0,1,.11-.58l.25.44Z"/><path class="cls-40" d="M116.06,316a2.52,2.52,0,0,1,.67.09Z"/><path class="cls-38" d="M432.29,316.11a2,2,0,0,1,.64-.1Z"/><path class="cls-37" d="M480.06,263l.39.22-.4-.19Z"/><path class="cls-41" d="M120.08,319a1.88,1.88,0,0,1,.63.08Z"/><path class="cls-38" d="M428,319l.42.25L428,319Z"/><path class="cls-38" d="M124,321.05l-.23.39.2-.4Z"/><path class="cls-38" d="M425.08,321.05l.37.24-.41-.22Z"/><path class="cls-29" d="M128.05,323.93l-.23.44.25-.43Z"/><path class="cls-42" d="M438,45.77l-1.26-.65Z"/><path class="cls-36" d="M421,324l.42.24L421,324Z"/><path class="cls-40" d="M131,326l-.23.43.25-.43Z"/><path class="cls-40" d="M478.93,264.94l.43.24-.42-.26Z"/><path class="cls-36" d="M418,326l.42.24L418,326Z"/><path class="cls-36" d="M134.06,327.92l-.4.43c0-.08,0-.18.1-.23a1.69,1.69,0,0,1,.32-.19Z"/><path class="cls-40" d="M414.93,328l.43.24-.41-.25Z"/><path class="cls-35" d="M137.12,329.87l-.06.07c-.23.22-.08.08.07-.06Z"/><path class="cls-29" d="M411.88,329.89c.15.14.3.28.09.08l-.08-.09Z"/><path class="cls-38" d="M139,331l-.22.41L139,331Z"/><path class="cls-38" d="M410,331l.39.24L410,331Z"/><path class="cls-19" d="M142.1,332.89l-.1.11.11-.1Z"/><path class="cls-36" d="M406.9,332.92l.43.42c-.08,0-.19,0-.23-.1a1.74,1.74,0,0,1-.18-.33Z"/><path class="cls-36" d="M144,334l-.23.4L144,334Z"/><path class="cls-36" d="M405,334l.39.24L405,334Z"/><path class="cls-19" d="M149.07,336.92l-.41.43c0-.08,0-.19.1-.23a1.69,1.69,0,0,1,.32-.19Z"/><path class="cls-36" d="M399.93,337l.43.24-.41-.25Z"/><path class="cls-38" d="M151,338l-.22.42L151,338Z"/><path class="cls-37" d="M398,338l.4.24L398,338Z"/><path class="cls-43" d="M490,127l.41.23L490,127Z"/><path class="cls-37" d="M59,127l-.24.39L59,127Z"/><path class="cls-19" d="M173.05,348.93l-.23.44.25-.43Z"/><path class="cls-40" d="M493,122l.42.23L493,122Z"/><path class="cls-40" d="M56,122l-.24.41L56,122Z"/><path class="cls-37" d="M83.09,284a1.28,1.28,0,0,1,.55.1Z"/><path class="cls-40" d="M69,263.07l-.25.38.23-.41Z"/><path class="cls-43" d="M495.93,116.94l.44.24-.43-.25Z"/><path class="cls-37" d="M53.05,116.93l-.25.43.26-.41Z"/><path class="cls-37" d="M497,115l.39.23L497,115Z"/><path class="cls-37" d="M52,115.05l-.25.39L52,115Z"/><path class="cls-29" d="M50.09,111.9c-.14.14-.27.29-.11.12l.12-.11Z"/><path class="cls-38" d="M500,110l.41.23L500,110Z"/><path class="cls-37" d="M49,110l-.24.4L49,110Z"/><path class="cls-43" d="M503,105l.43.23L503,105Z"/><path class="cls-43" d="M46,105l-.24.41L46,105Z"/><path class="cls-36" d="M43.06,99.93l-.25.43.25-.41Z"/><path class="cls-45" d="M508.89,94.9l.1.09-.09-.1Z"/><path class="cls-38" d="M465.37,284.13a1.24,1.24,0,0,1,.54-.1Z"/><path class="cls-46" d="M161,182.62c6.59-9.74,12.72-19.05,19.2-28.11,1-1.36,3.57-2.16,5.44-2.18,13.29-.19,26.59-.1,40.33-.1.8-13.58,1.58-26.82,2.39-40.47h-84c-4.72,29.17-9.47,58.51-14.28,88.21H289.21a15.46,15.46,0,0,1-1.31,2.83c-7.78,9.78-15.52,19.58-23.49,29.2a7.92,7.92,0,0,1-5.25,2.73q-86.49.21-173,.11a14.22,14.22,0,0,1-1.93-.33c7.84-40.51,15.67-81,23.64-122.17-8.73,0-17.15-.2-25.54.1-3.68.13-5.67-1.14-7.48-4.25-4.42-7.61-9.24-15-14.31-23.11H262.72v97.54Z"/><path class="cls-46" d="M286.18,182.73V85.22h36.61c1.2,22,2.39,43.88,3.6,66.1h85.37c-3.46-22.1-6.9-44-10.38-66.24h90c-4.73,8.58-9.17,16.88-13.93,25-.57,1-2.9,1.22-4.42,1.24-9.6.1-19.21,0-29.3,0,8.55,41.32,17,82,25.49,123.13H426.69c-2.83-17-5.71-34.15-8.65-51.76Z"/><path class="cls-47" d="M165,307.07,163,306l.21-.4L163,306l-3.11-1.88c.14-.13.29-.27.12-.12l-.11.13L158.05,303l.2-.41-.22.4L155,301l.24-.41L155,301l-3.06-2c.14-.14.29-.27.13-.12l-.11.13-3-2c.15-.13.3-.27.13-.11.15-.18,0,0-.11.12l-1.86-1.2.08-.31.33-.08-.44-.4H146L143,293l.24-.41L143,293,140,291l.21-.4L140,291l-4-3,.12-.34.34-.13-.46-.48-1.08.13-1-.72-1.05-1.5-.84-.88-1.07.06-2.89-2.25.08-.3.33-.07-.43-.4L126.94,280l-.66-.09-.42.17L122,276.94l.1-.36.33-.06-.42-.38-1-1.07-1.06.05-4.79-4.18-.32-1-.81-.8-1-1-1-1-1-1-1-1-1-1-1.09.15-5-4.89-1.12-1.16.1.09-1.16-1.12-1-.95a1.92,1.92,0,0,0,.57-.24,5.94,5.94,0,0,0,.75.08l2,0h0l2,1,1.94,1-.22.41.23-.4,6.06,2.94-.25.42L113,261l2,1-.25.43.24-.44,2.13,1-.58.6,1.34-.32,10.33,4.66-.35.93,1-.69,22.28,8.78-.31.92,1-.7,20.33,6.78-1.45.48.3.67,1.83-1,6.25,1.86-1.39.48.3.66,1.84-1,6.35,1.77-1.47.49.31.68,1.82-1,3.28.87-1.42.49.29.68,1.84-1,3.26.85-1.39.49.31.66,1.82-1,8.18,1.9-2.16.44.24.79,2.73-1.08,20.17,3.86-3.17.35.2.88L225,296l5.3.81-3.17.49.22.89L231,297l7.22.93-4.25.38.13,1,5.87-1.18c18.55.31,37.1.69,55.65.87,4.45.05,8.91-.56,13.37-.87l5.86,1.18.14-1-4.25-.38L318,297l3.85,1.09.16-.8-3.28-.39L324,296l3.81,1.12.21-.88-3.19-.35L345,292.06l2.84,1,.22-.81-2.27-.31L354,290l2,.79.14-.53-1.38-.41L358,289l1.95.78.13-.53-1.38-.41,10.31-2.8,2,.75.13-.54-1.36-.39L376,284l1.88.76.18-.53-1.4-.41,8.37-2.71a15.77,15.77,0,0,0,1.61.76c.08,0,.32-.33.48-.51l-1.31-.45,8.21-2.84,2,.72.12-.53-1.36-.39L405,274.06l1,.7-.34-.92L438,259.94l.4.26-.42-.25,4-2.06a1,1,0,0,0,.28.43l.79.66c-.33.68-.66,1.37-1,2.06l-1,1-1,1.06-.41.37.33.05.07.32-3.9,3.13-.41-.13-.52.08c-.14.07-.42.15-.41.21a3.45,3.45,0,0,0,.18.77L432,270.1H431l-.37.12.27.39.08.31L428,273l-.4-.25.41.24-3,2.08H424l-2,.9h0l-1,1.09c-.29.47-.58.93-.88,1.39l-1,.6a2.11,2.11,0,0,0-.18-.33c0-.05-.15-.06-.22-.09l.42.41L416,281l-.4-.25.4.25-5,3-.4-.24.39.25-1.91,1.09c-.13-.15-.26-.3-.12-.13-.16-.15,0,0,.14.12L404,287.94l-.4-.23.37.25L398,291l-.4-.25.4.25L388,295.87l-1-.65.3.91-2.17.95-.4-.27.42.26L381,298.9l-1-.67.33.91L376,300.93l-1-.69.35.92L368,304l-1-.7.36.93L353,309l-1.89-.75-.17.53,1.39.4L343,311.93a16.88,16.88,0,0,0-1.59-.8c-.09,0-.34.32-.51.5l1.32.47L339,313l-1.94-.78-.14.54,1.39.41L335,314l-1.88-.78-.19.53,1.4.41L331,315l-1.95-.81-.15.53,1.38.42L327,316l-2.85-1-.22.8,2.28.32-51.7,8c-.5,4.44-1.4,8.89-1.37,13.33,0,3.41-.79,5.58-4.12,6.55l-16.19-2.87,2.17-.44-.27-.8L252,341l-3.35-.77,1.47-.51-.32-.68L248,340l-41.3-12.84.36-.94-1,.7-4.31-1.77.36-.93-1,.69-4.22-1.83.57-.6-1.34.34-8.12-3.77c.14-.14.29-.27.13-.12l-.11.13-2.12-1,.28-.9-1.05.6-5.26-2.68.31-.91-1.05.61-3.16-1.72.11-.1c.17-.2,0-.05-.09.1l-2-1,.26-.43-.24.43-2-1,.24-.42L172,311,170,310l.2-.41-.22.4-5.09-2.91.25-.42Z"/><path class="cls-47" d="M229.36,51.19,222,52l-4.79-1.13-.16.89,3.25.41L214,53l-3.81-1-.14.76,2.32.43L207,54l-3.88-1-.15.83,3.23.32L185,58l-2.82-1-.23.78,2.32.37L169,61.92c-.53-.27-1-.57-1.6-.79-.08,0-.33.32-.5.5l1.32.47L162,64l-1.89-.74-.17.52,1.4.4-3.27,5c-.09-.65-.18-1.29-.16-1.16-1.74.68-3.43,1.89-5.14,1.93-9.1.19-18.21.25-27.3,0C123.62,69.8,121.84,68,120,67l1.86-7.21.44,2.19.81-.24L122.05,59c.6-.84,1-2.14,1.83-2.46,6.67-2.61,13.41-5,20.13-7.51l1,.73-.3-.92,2.29-.78,2,.72.12-.53-1.36-.39L154,46l1.88.78.18-.53-1.4-.42L165,43.06l2.84,1,.21-.78-2.27-.34L174,41l2.83,1,.21-.79-2.32-.37L208,35.09l5.86,1.14.13-1-4.22-.36L217,34l6.87,1.27.13-1-5.35-.43c19.23-1.27,38.48-3.8,57.68-3.5,22.74.35,45.45,3.13,68.17,4.88a8.06,8.06,0,0,1,1.85.62l-3.26.52.22.93L348,36l5.27.83-3.14.46.23.89L354,37l5.26.89-3.15.46.2.9L360,38l10.16,2-3.18.34.2.88,3.81-1.1,8.25,1.83-1.38.49.29.67L380,42l3.31.81-1.44.5.32.67L384,43l3.34.83-1.47.5.31.68L388,44l3.26.89-1.41.48.31.67,1.83-1,6.29,1.81-1.43.48.3.67L399,47l19.34,6.77-.39.93,1.05-.69,2.07.9-.24.42.23-.43,4.3,1.85-.46.94,1.08-.61L427,59l-1,2.84.79.22c.12-.76.23-1.52.34-2.28L429,67c-1.82,1-3.62,2.81-5.47,2.85C413,70.14,402.5,70,392,70c-.07-1.34-.13-2.68-.2-4h-.55c-.11,1.07-.21,2.13-.32,3.2l-3.24-5,1.45-.48-.29-.68L387,64l-32.23-7.85,2.2-.45-.25-.82L354,56l-5.13-.92,3.15-.34-.2-.88L348,55l-5.2-.86,3.21-.36-.17-.9L342,54l-5.36-.79,2.34-.53-.26-.86L335,53l-6.3-.83,3.16-.51-.2-.93L327,52l-7.37-.79,5.37-.44-.09-1L317,51l-31.28-1.83H303v-.89H247v.89h16.24L232,51l-7.89-1.22-.11,1Z"/><path class="cls-1" d="M286.74,285.27q-3.89-2.62-7.79-5.23l.25-.42-.23.43-3.05-2a2.17,2.17,0,0,0,.33-.19c.05-.05.06-.15.09-.23l-.4.43h-2.88a1.23,1.23,0,0,0-.17-.32c-.05-.06-.15-.07-.23-.1l.42.41-3,2-.41-.25.43.24-8.94,5.7A.72.72,0,0,0,261,285a1.51,1.51,0,0,1,.24-.93c.2-.42.41-.83.62-1.24a90.34,90.34,0,0,0,3.08-8.77c.3-1.22-.55-2.72-.88-4.1l.2-.4-.23.38-4.16-2.81c.15-.14.3-.28,0,0,.25-.27.11-.11,0,0L258,266l.16-.28.3-.16-.47-.46,10.92-1.61,0-.76L255,264l-.27-1.61a35.69,35.69,0,0,1,6.38.1c5.75,1.07,9.3-1,10.74-6.7l.91.29-.68-1c.64-2,1.27-3.91,2.33-7.16L276.9,255l-.67,1,.9-.28c1.38,6.21,5.63,7.46,11.23,6.67a44.29,44.29,0,0,1,5.88-.08L294,264l-13.89-1.29,0,.76L291,265.05l-.36.14.19.47.15.28-1.83,1.19c-.14-.15-.28-.31,0,0l0,0L285,269.94l-.41-.22.38.24c-.33,1.37-1.18,2.88-.88,4.1a88.79,88.79,0,0,0,3.1,8.77c.21.41.41.83.62,1.24a1.41,1.41,0,0,1,.22.93Z"/><path class="cls-48" d="M199.94,263l-.91-1.07.08-.29.35-.12-.46-.47-1.08.11-5.11-2.85c6.51.14,11.34-1.53,12.29-9.58,1.55,7.45,5.49,10.39,12.45,9.28L216,259l-6.73-1.14,0,.78,5,1.49L211,265l-2,2-1,.06-1.1.15L204,267l-.34-.22L202,267h0c-.12.06-.36.14-.36.19a3.42,3.42,0,0,0,.2.59l.29.37c-1,.66-2,1.33-3,2a2.51,2.51,0,0,0-.32-.41.5.5,0,0,0-.51-.52,2.67,2.67,0,0,0-.43-.32l2.06-5,.68.46Z"/><path class="cls-49" d="M342.18,264l-3.45-3.83,5.26-1.7-.16-.79L337,259,335,258l10-2,.41.23L345,256l2.56-7.91c1.05,3.09,1.71,5,2.37,6.94l0,1.9,8.16,2.19,0,0-1.12.79a.4.4,0,0,1-.54.31L355,260l-.91,1-1,1.45L353,264l.87,2a.6.6,0,0,1,.22.73c.3.76.6,1.52.91,2.27l.1-.09c.19.39.39.79.59,1.18a.65.65,0,0,1,.07.82,1,1,0,0,0-.81.12l-2-1.32-1-.7-5.91-1.9c-.14-.15-.27-.3-.1-.12-.18-.16,0,0,.11.11l-6.24,4.46-.73-.61,2.79-6.13c.15.43.31.86.47,1.28.6-1,1.19-1.95,1.78-2.93l-.65-.39Z"/><path class="cls-50" d="M120,67c1.8,1,3.58,2.79,5.42,2.85,9.09.3,18.2.24,27.3,0,1.71,0,3.4-1.25,5.14-1.93,0-.13.07.51.16,1.16-1,.88-1.95,2.53-2.94,2.55-11.9.18-23.81.11-36.47.11Z"/><path class="cls-51" d="M263.27,49.13H247v-.89H303v.89h-39.7Z"/><path class="cls-52" d="M390.93,69.16c.11-1.07.21-2.13.32-3.2h.55c.07,1.34.13,2.68.2,4a28.83,28.83,0,0,0,5.14,1c10.9.09,21.8,0,32.7.06a27.77,27.77,0,0,1-4.55.78q-15.19.1-30.4,0C393.07,71.79,390.52,72.61,390.93,69.16Z"/><path class="cls-50" d="M429.84,71c-10.9,0-21.8,0-32.7-.06A28.83,28.83,0,0,1,392,70c10.5,0,21,.15,31.49-.13,1.85,0,3.65-1.85,5.47-2.85Z"/><path class="cls-53" d="M269,344c3.33-1,4.14-3.14,4.12-6.55,0-4.44.87-8.89,1.37-13.33q-.28,10-.56,19.92l-.9.55-1.2-.26-1.16-.16Z"/><path class="cls-54" d="M255,264l13.89-1.29,0,.76L258,265.05a1.51,1.51,0,0,0,.17.62L258,266Z"/><path class="cls-54" d="M291,265.05l-10.92-1.61,0-.76L294,264l-3,2-.15-.28A1.43,1.43,0,0,0,291,265.05Z"/><path class="cls-55" d="M358.11,259.11,350,256.92c.07-.4.13-.8.2-1.2l9.64,2.28Z"/><path class="cls-56" d="M209,267l2-2h0l.84,2,1.38,2.93L212,271l-3-2.26a7.34,7.34,0,0,0-.09-.82A5.14,5.14,0,0,0,209,267Z"/><path class="cls-57" d="M337,259l6.84-1.37.16.79-5.26,1.7Z"/><path class="cls-58" d="M442,261c.34-.69.67-1.38,1-2.06,0-.27,0-.53,0-.8l1-1.25h0l2,.05h1a5.28,5.28,0,0,0,0,.89l-.11.06-.84.79-4,3.33C442,261.71,442,261.38,442,261Z"/><path class="cls-59" d="M214.18,260.09l-5-1.49,0-.78L216,259Z"/><path class="cls-60" d="M229.36,51.19,224,50.75l.11-1L232,51Z"/><path class="cls-60" d="M317,51l7.91-1.23.09,1-5.37.44Z"/><path class="cls-50" d="M218.65,33.81l5.35.43-.13,1L217,34Z"/><path class="cls-50" d="M310.76,297.88l4.25.38-.14,1L309,298.05Z"/><path class="cls-50" d="M240,298.05l-5.87,1.18-.13-1,4.25-.38Z"/><path class="cls-60" d="M209.79,34.9l4.22.36-.13,1L208,35.09Z"/><path class="cls-61" d="M220.29,52.15,217,51.74l.16-.89L222,52Z"/><path class="cls-61" d="M327,52l4.66-1.27.2.93-3.16.51Z"/><path class="cls-62" d="M99.71,256.16,96.82,253,98,253l3.06,1.89a2.56,2.56,0,0,1-.23.47l-.56.57A1.92,1.92,0,0,1,99.71,256.16Z"/><path class="cls-60" d="M348,36l-4.68,1.22-.22-.93,3.26-.52Z"/><path class="cls-63" d="M342.18,264l1.34-1.21.65.39c-.59,1-1.18,2-1.78,2.93-.16-.42-.32-.85-.47-1.28A.73.73,0,0,1,342.18,264Z"/><path class="cls-60" d="M360,38l-3.68,1.24-.2-.9,3.15-.46A.51.51,0,0,1,360,38Z"/><path class="cls-60" d="M324.84,295.93l3.19.35-.21.88L324,296A.62.62,0,0,1,324.84,295.93Z"/><path class="cls-60" d="M371,40.05l-3.81,1.1-.2-.88,3.18-.34A.63.63,0,0,1,371,40.05Z"/><path class="cls-60" d="M225,296l-3.81,1.12-.2-.88,3.17-.35A.66.66,0,0,1,225,296Z"/><path class="cls-58" d="M231,297l-3.68,1.28-.22-.89,3.17-.49A.48.48,0,0,1,231,297Z"/><path class="cls-50" d="M212.36,53.19,210,52.76l.14-.76L214,53Z"/><path class="cls-60" d="M206.2,54.1,203,53.78l.15-.83L207,54l-.38.22Z"/><path class="cls-61" d="M348,55l3.81-1.11.2.88-3.15.34-.45.1Z"/><path class="cls-60" d="M342,54l3.85-1.15.17.9-3.21.36-.42.11Z"/><path class="cls-60" d="M335,53l3.71-1.18.26.86-2.34.53Z"/><path class="cls-61" d="M354,37l-3.66,1.25-.23-.89,3.14-.46A.51.51,0,0,1,354,37Z"/><path class="cls-58" d="M318.71,296.85l3.28.39-.16.8L318,297A.48.48,0,0,1,318.71,296.85Z"/><path class="cls-50" d="M184.27,58.13,182,57.76l.23-.78L185,58l-.34.23Z"/><path class="cls-60" d="M204,292.07l-2.73,1.08-.24-.79,2.16-.44A.62.62,0,0,1,204,292.07Z"/><path class="cls-60" d="M345.81,291.91l2.27.31-.22.81-2.84-1A.59.59,0,0,1,345.81,291.91Z"/><path class="cls-60" d="M354,56l2.73-1.14.25.82-2.2.45-.41.09Z"/><path class="cls-60" d="M252,341l2.71-1.1.27.8-2.17.44-.43.08Z"/><path class="cls-60" d="M174.72,40.86l2.32.37-.21.79L174,41A.49.49,0,0,1,174.72,40.86Z"/><path class="cls-64" d="M199.12,270.15l-2.64,2.08c.77-1.86,1.07-2.6,1.38-3.33a2.67,2.67,0,0,1,.43.32.46.46,0,0,0,.51.52A2.51,2.51,0,0,1,199.12,270.15Z"/><path class="cls-50" d="M122.05,59l1.1,2.74-.81.24-.44-2.19A.61.61,0,0,1,122.05,59Z"/><path class="cls-50" d="M427.1,59.79c-.11.76-.22,1.52-.34,2.28l-.79-.22L427,59A.58.58,0,0,1,427.1,59.79Z"/><path class="cls-60" d="M326.2,316.1l-2.28-.32.22-.8,2.85,1-.37.23Z"/><path class="cls-50" d="M165.8,42.9l2.27.34-.21.78-2.84-1A.58.58,0,0,1,165.8,42.9Z"/><path class="cls-61" d="M380,42l-1.84,1-.29-.67,1.38-.49A.53.53,0,0,1,380,42Z"/><path class="cls-50" d="M334.33,314.17l-1.4-.41.19-.53L335,314l-.3.24Z"/><path class="cls-50" d="M168.2,62.1l-1.32-.47c.17-.18.42-.54.5-.5.55.22,1.07.52,1.6.79l-.36.24Z"/><path class="cls-50" d="M161.33,64.16l-1.4-.4.17-.52L162,64l-.29.25Z"/><path class="cls-60" d="M387,64l1.84-1,.29.68-1.45.48-.39,0Z"/><path class="cls-61" d="M352.33,309.17l-1.39-.4.17-.53L353,309l-.29.24Z"/><path class="cls-61" d="M342.2,312.1l-1.32-.47c.17-.18.42-.54.51-.5a16.88,16.88,0,0,1,1.59.8l-.36.23Z"/><path class="cls-60" d="M147.74,47.87l1.36.39-.12.53-2-.72A.53.53,0,0,1,147.74,47.87Z"/><path class="cls-50" d="M399,47l-1.84,1-.3-.67,1.43-.48A.49.49,0,0,1,399,47Z"/><path class="cls-61" d="M154.66,45.82l1.4.42-.18.53L154,46A.45.45,0,0,1,154.66,45.82Z"/><path class="cls-50" d="M338.31,313.16l-1.39-.41.14-.54L339,313l-.31.24Z"/><path class="cls-58" d="M330.28,315.14l-1.38-.42.15-.53L331,315l-.33.23Z"/><path class="cls-58" d="M248,340l1.82-1,.32.68-1.47.51-.37.09Z"/><path class="cls-65" d="M446.92,257h-1l0-1.08h0c.38-.23.76-.46,1.15-.68A.94.94,0,0,1,448,255l.3.29a1.33,1.33,0,0,0-.26.58l0,1.1,0,0A3.35,3.35,0,0,0,446.92,257Z"/><path class="cls-60" d="M392,45.05l-1.83,1-.31-.67,1.41-.48A.54.54,0,0,1,392,45.05Z"/><path class="cls-1" d="M492,213c0,1.1-.08,2.21-.13,3.32L491,213Z"/><path class="cls-61" d="M354.72,289.86l1.38.41-.14.53-2-.79A.5.5,0,0,1,354.72,289.86Z"/><path class="cls-50" d="M385.81,280.91l1.31.45c-.16.18-.4.54-.48.51a15.77,15.77,0,0,1-1.61-.76A.61.61,0,0,1,385.81,280.91Z"/><path class="cls-61" d="M195,290l-1.82,1-.31-.66,1.39-.49A.54.54,0,0,1,195,290Z"/><path class="cls-60" d="M358.7,288.85l1.38.41-.13.53L358,289A.48.48,0,0,1,358.7,288.85Z"/><path class="cls-50" d="M191,289l-1.84,1-.29-.68,1.42-.49A.5.5,0,0,1,191,289Z"/><path class="cls-50" d="M187,288l-1.82,1-.31-.68,1.47-.49A.43.43,0,0,1,187,288Z"/><path class="cls-61" d="M388,44l-1.82,1-.31-.68,1.47-.5A.43.43,0,0,1,388,44Z"/><path class="cls-58" d="M384,43l-1.82,1-.32-.67,1.44-.5A.48.48,0,0,1,384,43Z"/><path class="cls-60" d="M369.74,285.87l1.36.39-.13.54-2-.75A.53.53,0,0,1,369.74,285.87Z"/><path class="cls-60" d="M180,286.06l-1.84,1-.3-.66,1.39-.48A.56.56,0,0,1,180,286.06Z"/><path class="cls-66" d="M126.94,280c.37.37.73.75,1.09,1.12l.1.47-.08.3-2.19-1.81.42-.17A3,3,0,0,0,126.94,280Z"/><path class="cls-67" d="M450,253.77l1-.83,1,.06-2,2Z"/><path class="cls-50" d="M376.66,283.82l1.4.41-.18.53L376,284A.45.45,0,0,1,376.66,283.82Z"/><path class="cls-68" d="M450,253.77l0,1.21-1,1a.6.6,0,0,0-.2-.55.64.64,0,0,0-.54-.16L448,255Z"/><path class="cls-50" d="M173,284l-1.83,1-.3-.67,1.45-.48A.47.47,0,0,1,173,284Z"/><path class="cls-50" d="M394.74,277.87l1.36.39-.12.53-2-.72A.54.54,0,0,1,394.74,277.87Z"/><path class="cls-69" d="M212,271l1.21-1,.24,1.83Z"/><path class="cls-66" d="M144.73,48.85l.3.92L144,49A.53.53,0,0,1,144.73,48.85Z"/><path class="cls-50" d="M419,54.05l-1.05.69.39-.93A.47.47,0,0,1,419,54.05Z"/><path class="cls-66" d="M426,57.12l-1.08.61.46-.94A.46.46,0,0,1,426,57.12Z"/><path class="cls-70" d="M98,253l-1.19,0c-.09-.27-.17-.54-.26-.81Z"/><path class="cls-71" d="M452,253l-1-.06,1.42-.72Z"/><path class="cls-72" d="M103.05,256l-2,0a3,3,0,0,0-.19-.65,2.56,2.56,0,0,0,.23-.47Z"/><path class="cls-29" d="M272.09,255l.68,1-.91-.29A.59.59,0,0,1,272.09,255Z"/><path class="cls-29" d="M277.13,255.77l-.9.28.67-1A.59.59,0,0,1,277.13,255.77Z"/><path class="cls-29" d="M350.15,255.72c-.07.4-.13.8-.2,1.2l0-1.9A.56.56,0,0,1,350.15,255.72Z"/><path class="cls-72" d="M105,257l-2-1Z"/><path class="cls-73" d="M445.93,255.91l0,1.08-2-.05Z"/><path class="cls-73" d="M444,256.93c-.33.42-.65.84-1,1.25a1.38,1.38,0,0,0-.77.14,1,1,0,0,1-.28-.43Z"/><path class="cls-36" d="M197.92,261.17l1.08-.11a2.36,2.36,0,0,0,.11.59l-.08.29Z"/><path class="cls-36" d="M353.11,262.43l1-1.44a3,3,0,0,0,.67-.08l.35.15Z"/><path class="cls-58" d="M442,261l0,1-1,.89c0-.28,0-.57,0-.85Z"/><path class="cls-74" d="M441,262.09c0,.28,0,.57,0,.85l-1,.95-.08-.32.09-.42Z"/><path class="cls-50" d="M107.91,264.19,109,264l0,1.11Z"/><path class="cls-50" d="M118,263.17l-1.34.32.58-.6A.63.63,0,0,1,118,263.17Z"/><path class="cls-19" d="M199.94,263l.66,1.31-.68-.46A1.3,1.3,0,0,1,199.94,263Z"/><path class="cls-58" d="M109,265.14l0-1.11,1,1,0,1.06Z"/><path class="cls-75" d="M353.89,266l-.87-2Z"/><path class="cls-58" d="M110,266.1l0-1.06,1,1,0,1Z"/><path class="cls-48" d="M211.85,267l-.84-2Z"/><path class="cls-66" d="M111,267.06l0-1,1,1V268Z"/><path class="cls-36" d="M206.9,267.21l1.1-.15a3,3,0,0,0,.11.65L208,268Z"/><path class="cls-66" d="M112,268v-.92l1,1c0,.28,0,.56,0,.84Z"/><path class="cls-48" d="M204,267l-1.83,1.19-.29-.37A2.09,2.09,0,0,0,202,267h0l1.62-.26Z"/><path class="cls-75" d="M355,269c-.31-.75-.61-1.51-.91-2.27C354.41,267.48,354.71,268.23,355,269Z"/><path class="cls-66" d="M434.89,268a3.45,3.45,0,0,1-.18-.77c0-.06.27-.14.41-.21a1.32,1.32,0,0,0,.52-.08l.41.13Z"/><path class="cls-76" d="M113,268.94c0-.28,0-.56,0-.84l1,1a2.7,2.7,0,0,0,.12.7l-.07.08Z"/><path class="cls-58" d="M129,268.07l-1,.69.35-.93A.52.52,0,0,1,129,268.07Z"/><path class="cls-74" d="M431,270.1H432l-1.07.82-.08-.31A1.45,1.45,0,0,0,431,270.1Z"/><path class="cls-66" d="M114.83,269.94l.32,1-1.08-1,.07-.08A2,2,0,0,0,114.83,269.94Z"/><path class="cls-61" d="M119.94,275.12c.36,0,.71,0,1.06-.06q0,.46,0,.93Z"/><path class="cls-61" d="M405.71,273.84l.34.92-1-.7A.5.5,0,0,1,405.71,273.84Z"/><path class="cls-61" d="M424,275.1h1.08l-1.09.8-.1-.25A1.46,1.46,0,0,0,424,275.1Z"/><path class="cls-66" d="M121,276q0-.47,0-.93l1,1.08.09.44-.1.36Z"/><path class="cls-66" d="M421,277.09l1-1.09.06,1.13-1.06.7C421,277.59,421,277.34,421,277.09Z"/><path class="cls-47" d="M422.06,277.13,422,276h0l1.86-.35.1.25Z"/><path class="cls-58" d="M152,277.07l-1,.7.31-.92A.54.54,0,0,1,152,277.07Z"/><path class="cls-61" d="M130.94,284.14l1.07-.06a3.47,3.47,0,0,0,.15.78l-.12.1Z"/><path class="cls-65" d="M132.85,285l1.05,1.5L132,285l.12-.1A1.78,1.78,0,0,0,132.85,285Z"/><path class="cls-77" d="M286.74,285.27,288,285l-.15,1Z"/><path class="cls-61" d="M134.92,287.18l1.08-.13a2.07,2.07,0,0,0,.12.61L136,288Z"/><path class="cls-58" d="M146,295.11H147a1.6,1.6,0,0,0,.11.48l-.08.31Z"/><path class="cls-61" d="M387.23,296.13l-.3-.91,1,.65-.31.27Z"/><path class="cls-61" d="M380.26,299.14l-.33-.91,1,.67-.3.27Z"/><path class="cls-50" d="M375.29,301.16l-.35-.92,1,.69-.3.26Z"/><path class="cls-61" d="M367.31,304.18l-.36-.93,1,.7-.29.26Z"/><path class="cls-61" d="M179,314.83l1.05-.61-.31.91A.62.62,0,0,1,179,314.83Z"/><path class="cls-50" d="M185,317.81l1.05-.6-.28.9A.63.63,0,0,1,185,317.81Z"/><path class="cls-50" d="M196,322.85l1.34-.34-.57.6h-.43Z"/><path class="cls-58" d="M201,324.94l1-.69-.36.93-.39,0Z"/><path class="cls-61" d="M206,327l1-.7-.36.94-.39,0Z"/><path class="cls-55" d="M355,260l1.48.17-1.38.89-.35-.15A2.25,2.25,0,0,0,355,260Z"/><path class="cls-78" d="M355,271a1,1,0,0,1,.81-.12l-.23.73Z"/><path class="cls-55" d="M357,259.86l1.12-.79Z"/><path class="cls-73" d="M446,258.72l.84-.79Z"/><path class="cls-72" d="M101.77,258.14l1.12,1.16Z"/><path class="cls-79" d="M446.92,257a3.35,3.35,0,0,1,1,0l-1,.92A5.28,5.28,0,0,1,446.92,257Z"/><path class="cls-48" d="M208.92,267.88a7.34,7.34,0,0,1,.09.82l-1-.75.09-.24A1.76,1.76,0,0,0,208.92,267.88Z"/><path class="cls-66" d="M421,277.09c0,.25,0,.5,0,.74l-.89.65C420.41,278,420.7,277.56,421,277.09Z"/><path class="cls-72" d="M100.71,257.11l1.16,1.12Z"/><path class="cls-79" d="M448,256.92l0-1.1a.87.87,0,0,0,.8-.42.6.6,0,0,1,.2.55Z"/><path class="cls-79" d="M447,255.22c-.39.22-.77.45-1.15.68C446.27,255.67,446.65,255.44,447,255.22Z"/><path class="cls-80" d="M261.86,282.83c-.21.41-.42.82-.62,1.24C261.44,283.65,261.65,283.24,261.86,282.83Z"/><path class="cls-47" d="M270.68,344.13l1.16.16Z"/><path class="cls-47" d="M273,344.55l.9-.55Z"/><path class="cls-77" d="M287.77,284.07c-.21-.41-.41-.83-.62-1.24C287.36,283.24,287.56,283.66,287.77,284.07Z"/><path class="cls-75" d="M352,269l1,.7Z"/><path class="cls-80" d="M261,285a.72.72,0,0,1,.12.74l-.5-.45Z"/><path class="cls-78" d="M355.71,270.08c-.2-.39-.4-.79-.59-1.18C355.31,269.29,355.51,269.69,355.71,270.08Z"/><path class="cls-74" d="M423.86,275.65,422,276l2-.9A1.46,1.46,0,0,1,423.86,275.65Z"/><path class="cls-66" d="M113,261l-.23.42.25-.42Z"/><path class="cls-66" d="M136.12,287.66a2.07,2.07,0,0,1-.12-.61l.46.48Z"/><path class="cls-66" d="M403.93,288l-.37-.25.4.23Z"/><path class="cls-74" d="M431,270.1a1.45,1.45,0,0,1-.1.51l-.27-.39Z"/><path class="cls-66" d="M437.93,260l.42.25-.4-.26Z"/><path class="cls-66" d="M140,291l.22-.39-.21.4Z"/><path class="cls-74" d="M398,291l-.4-.25.4.25Z"/><path class="cls-74" d="M428,273l-.41-.24.4.25Z"/><path class="cls-66" d="M143,293l.23-.42L143,293Z"/><path class="cls-65" d="M435.64,266.89a1.32,1.32,0,0,1-.52.08Z"/><path class="cls-65" d="M147.13,295.59a1.6,1.6,0,0,1-.11-.48c.15.13.3.26.44.4Z"/><path class="cls-61" d="M148.91,297.1c.13-.15.26-.3.11-.12.17-.16,0,0-.13.11Z"/><path class="cls-65" d="M442.21,258.32a1.38,1.38,0,0,1,.77-.14c0,.27,0,.53,0,.8Z"/><path class="cls-74" d="M385.08,297.07l-.42-.26.4.27Z"/><path class="cls-74" d="M107,258l-.23.4L107,258Z"/><path class="cls-66" d="M151.93,299.09,152,299c.16-.15,0,0-.13.12Z"/><path class="cls-66" d="M155,301l.23-.42L155,301Z"/><path class="cls-65" d="M158,303l.22-.4-.2.41Z"/><path class="cls-81" d="M122.13,276.58l-.09-.44.42.38Z"/><path class="cls-66" d="M159.92,304.09,160,304c.17-.15,0,0-.12.12Z"/><path class="cls-76" d="M114.83,269.94a2,2,0,0,1-.69-.11,2.7,2.7,0,0,1-.12-.7Z"/><path class="cls-65" d="M163,306l.23-.39-.21.4Z"/><path class="cls-58" d="M165,307.07l.23-.43-.25.42Z"/><path class="cls-74" d="M170,310l.22-.4-.2.41Z"/><path class="cls-74" d="M172,311l.22-.42L172,311Z"/><path class="cls-58" d="M419.09,279.07l-.42-.41c.07,0,.18,0,.22.09a2.11,2.11,0,0,1,.18.33Z"/><path class="cls-74" d="M173.94,312.07l.24-.43-.26.43Z"/><path class="cls-58" d="M175.9,313.11c.13-.15.26-.3.09-.1l-.11.1Z"/><path class="cls-66" d="M126.94,280a3,3,0,0,1-.66-.09Z"/><path class="cls-82" d="M100.84,255.35a3,3,0,0,1,.19.65,5.94,5.94,0,0,1-.75-.08Z"/><path class="cls-74" d="M416,281l-.4-.25.4.25Z"/><path class="cls-58" d="M187.93,319.09,188,319c.16-.15,0,0-.13.12Z"/><path class="cls-74" d="M128.13,281.59l-.1-.47.43.4Z"/><path class="cls-76" d="M440,263.15l-.09.42-.32-.05Z"/><path class="cls-65" d="M411,284l-.39-.25.4.24Z"/><path class="cls-65" d="M132.85,285a1.78,1.78,0,0,1-.69-.1,3.47,3.47,0,0,1-.15-.78Z"/><path class="cls-74" d="M115.07,261.92l-.24.44.25-.43Z"/><path class="cls-61" d="M409.1,285.08c-.15-.13-.3-.27-.14-.12-.14-.17,0,0,.12.13Z"/><path class="cls-66" d="M421.05,54.94l-.23.43.24-.42Z"/><path class="cls-37" d="M291,265.05a1.43,1.43,0,0,1-.17.61c-.06-.15-.13-.31-.19-.47Z"/><path class="cls-31" d="M259.87,267.13c.14-.15.28-.31,0,0,.27-.24.12-.1,0,0Z"/><path class="cls-31" d="M273.08,278.06l-.42-.41c.08,0,.18,0,.23.1a1.23,1.23,0,0,1,.17.32Z"/><path class="cls-31" d="M275.94,278.08l.4-.43c0,.08,0,.18-.09.23a2.17,2.17,0,0,1-.33.19Z"/><path class="cls-37" d="M258.19,265.67a1.51,1.51,0,0,1-.17-.62c.16.15.32.3.47.46Z"/><path class="cls-43" d="M270.06,280l-.43-.24.41.25Z"/><path class="cls-37" d="M279,280.05l.23-.43L279,280Z"/><path class="cls-38" d="M264,269.94l.23-.38-.2.4Z"/><path class="cls-38" d="M284.93,270l-.38-.24.41.22Z"/><path class="cls-31" d="M289.13,267.13l0,0c-.24-.27-.1-.11,0,0Z"/><path class="cls-36" d="M203.62,266.74,202,267Z"/><path class="cls-40" d="M208.92,267.88a1.76,1.76,0,0,1-.81-.17,3,3,0,0,1-.11-.65l1-.06A5.14,5.14,0,0,1,208.92,267.88Z"/><path class="cls-19" d="M202,267a2.09,2.09,0,0,1-.16.78,3.42,3.42,0,0,1-.2-.59C201.64,267.14,201.88,267.06,202,267Z"/><path class="cls-83" d="M198.8,269.74a.46.46,0,0,1-.51-.52A.5.5,0,0,1,198.8,269.74Z"/><path class="cls-36" d="M199.11,261.65a2.36,2.36,0,0,1-.11-.59l.46.47Z"/><path class="cls-40" d="M355,260a2.25,2.25,0,0,1-.25.91,3,3,0,0,1-.67.08Z"/><path class="cls-36" d="M346.1,267.09c-.15-.14-.29-.27-.11-.11-.17-.18,0,0,.1.12Z"/><path class="cls-19" d="M345,256l.41.22L345,256Z"/><path class="cls-84" d="M448.79,255.4a.87.87,0,0,1-.8.42,1.33,1.33,0,0,1,.26-.58A.64.64,0,0,1,448.79,255.4Z"/></svg>