<?xml version="1.0" encoding="UTF-8" standalone="no"?>
<svg
   xmlns:dc="http://purl.org/dc/elements/1.1/"
   xmlns:cc="http://creativecommons.org/ns#"
   xmlns:rdf="http://www.w3.org/1999/02/22-rdf-syntax-ns#"
   xmlns:svg="http://www.w3.org/2000/svg"
   xmlns="http://www.w3.org/2000/svg"
   xmlns:sodipodi="http://sodipodi.sourceforge.net/DTD/sodipodi-0.dtd"
   xmlns:inkscape="http://www.inkscape.org/namespaces/inkscape"
   width="64"
   height="64"
   viewBox="0 0 48 48"
   version="1.1"
   id="svg56"
   sodipodi:docname="euro.svg"
   inkscape:version="0.92.3 (2405546, 2018-03-11)">
  <metadata
     id="metadata62">
    <rdf:RDF>
      <cc:Work
         rdf:about="">
        <dc:format>image/svg+xml</dc:format>
        <dc:type
           rdf:resource="http://purl.org/dc/dcmitype/StillImage" />
        <dc:title></dc:title>
      </cc:Work>
    </rdf:RDF>
  </metadata>
  <defs
     id="defs60" />
  <sodipodi:namedview
     pagecolor="#ffffff"
     bordercolor="#666666"
     borderopacity="1"
     objecttolerance="10"
     gridtolerance="10"
     guidetolerance="10"
     inkscape:pageopacity="0"
     inkscape:pageshadow="2"
     inkscape:window-width="1920"
     inkscape:window-height="1017"
     id="namedview58"
     showgrid="false"
     inkscape:pagecheckerboard="true"
     units="px"
     inkscape:zoom="4.7111111"
     inkscape:cx="-66.356981"
     inkscape:cy="-50.993774"
     inkscape:window-x="-8"
     inkscape:window-y="-8"
     inkscape:window-maximized="1"
     inkscape:current-layer="svg56" />
  <g
     id="#ffffffff"
     transform="matrix(0.04444444,0,0,0.04444444,5.3335769,2.4e-6)">
    <path
       d="m 401.64,0 h 36.72 c 23.27,1.18 46.61,2.13 69.68,5.56 11.28,1.1 22.37,3.49 33.58,5.13 16.75,3.21 33.43,6.78 49.96,11.02 26.83,7.5 53.52,15.72 79.28,26.4 7.29,2.74 14.34,6.06 21.25,9.63 38.7,18.43 71.92,47.45 97.21,81.91 19.7,27.94 34.98,59.35 42.45,92.82 7.23,27.81 8.78,56.89 6.65,85.47 -1.32,13.03 -2,26.11 -3.64,39.1 -2.42,24.03 -6.45,47.84 -10.32,71.66 -4.36,23.63 -9.33,47.16 -15.18,70.47 -1.79,8.23 -4.06,16.34 -6.46,24.41 -3.93,15.58 -8.91,30.86 -13.82,46.15 -7.23,22.46 -15.25,44.66 -23.82,66.65 -8.25,20.42 -17.1,40.6 -26.42,60.55 -1.83,3.63 -3.69,7.25 -5,11.11 4.35,0.32 8.72,0.22 13.08,0.3 16.99,0.41 33.05,11.21 40.42,26.43 5.54,10.86 6.4,23.92 2.84,35.53 -2.41,7.11 -5.47,13.99 -8.05,21.04 -6.09,15.24 -11.93,30.59 -17.95,45.86 -4.42,10.92 -8.26,22.06 -12.93,32.89 -8.3,21.63 -16.75,43.21 -25.28,64.75 -2.29,6.04 -4.44,12.13 -7.01,18.05 -3.1,7.07 -5.35,14.47 -8.41,21.55 -3.16,7.39 -5.28,15.34 -9.95,22 -5.92,8.89 -15.04,15.44 -25.17,18.7 -5.92,1.87 -12.2,2.14 -18.36,2.17 -46.01,-0.06 -92.01,0.02 -138.01,-0.05 -4.63,0.02 -9.47,0.73 -13.35,3.45 -3.65,2.6 -6.73,5.9 -10.07,8.88 -9.24,8.78 -18.88,17.11 -28.45,25.52 -6.58,5.76 -13.07,11.67 -20.16,16.81 -6.56,4.77 -14.54,7 -22.49,8.08 h -8.92 c -9.39,-1.11 -18.61,-4.48 -25.92,-10.59 -16.56,-13.72 -32.65,-28.01 -48.33,-42.73 -3.55,-3.24 -7.13,-6.77 -11.8,-8.28 -5,-1.61 -10.33,-1.07 -15.49,-1.13 -42,0.05 -84,-0.02 -126.01,0.03 -7.28,0 -14.7,0.2 -21.79,-1.71 -10.97,-3.09 -20.9,-10.04 -27.12,-19.64 -3.69,-5.48 -5.9,-11.75 -8.14,-17.91 -25.52,-65.16 -50.93,-130.36 -76.42,-195.52 -2.02,-5.03 -4.25,-10.01 -5.48,-15.3 -2.45,-10.64 -1.34,-22.1 3.37,-31.96 6.41,-13.24 19.14,-23.34 33.64,-26.15 6.64,-1.34 13.44,-0.49 20.15,-1.08 -1.33,-4.12 -3.35,-7.95 -5.32,-11.79 C 93.25,680.03 86.19,663.55 79.12,647.09 73.82,633.54 68.18,620.12 63.53,606.32 57.32,590.16 52.4,573.55 46.89,557.14 42.11,541.8 37.87,526.29 33.54,510.82 31.5,502.77 29.67,494.67 27.59,486.63 25.59,478.94 24.34,471.09 22.45,463.37 19.89,452.79 18.14,442.03 16.04,431.35 13.1,413.93 9.94,396.53 7.93,378.97 7.31,373.48 6.39,368.04 5.76,362.55 4.19,345.73 2.1,328.96 1.21,312.08 c -1.82,-30.32 1.05,-61.05 9.7,-90.21 5.22,-19.58 13.45,-38.23 23.04,-56.03 21.28,-38.28 52.3,-71.08 89.27,-94.55 16.11,-10 33.15,-18.49 50.88,-25.21 23.41,-9.49 47.61,-16.81 71.89,-23.7 12.87,-3.15 25.67,-6.61 38.72,-8.94 16.7,-3.62 33.6,-6.24 50.55,-8.33 22,-3.12 44.22,-3.96 66.38,-5.11 m -28.55,26.64 c -13.42,0.49 -26.8,1.94 -40.07,3.98 -19.02,2.37 -37.85,6.03 -56.6,9.96 -19.02,5.02 -38.25,9.36 -56.83,15.87 -7.03,2.33 -14.07,4.67 -21.05,7.14 -15.38,5.82 -31,11.3 -45.36,19.44 -10.04,4.97 -19.28,11.33 -28.5,17.65 -19.86,14.5 -37.75,31.86 -52.17,51.83 -6.08,7.77 -11.05,16.31 -16.19,24.71 -6.24,11.88 -12.36,23.92 -16.54,36.71 -4.17,11.76 -7.95,23.73 -9.91,36.09 -4.64,23.17 -5.1,47 -3.13,70.5 1.41,8.81 1.07,17.79 2.69,26.58 0.9,12 2.39,23.94 4.3,35.82 0.72,10.25 3.3,20.22 4.7,30.37 3.47,20.88 7.73,41.61 12.15,62.3 4.96,18.89 9.35,37.94 15.02,56.64 3.38,10.98 6.24,22.12 10.16,32.92 7.01,21.51 14.71,42.79 23.22,63.75 8.16,20.77 17.1,41.23 26.84,61.31 3.23,5.65 5.04,12.03 8.62,17.48 3.02,1.13 6.4,0.51 9.57,0.65 39.34,-0.08 78.69,0 118.03,-0.03 3.79,0.15 6.51,-2.84 9.41,-4.8 46.5,-33.88 93.04,-67.71 139.61,-101.49 3.11,-2.32 6.67,-5.22 10.84,-4.13 4.03,1.25 7.07,4.38 10.5,6.69 40.27,29.02 80.31,58.36 120.5,87.48 5.89,4.48 12.08,8.54 17.84,13.19 1.62,1.14 3.18,2.66 5.25,2.9 4.32,0.42 8.67,0.1 13.01,0.16 37.35,0.02 74.7,-0.04 112.05,0.03 1.55,-0.05 3.1,-0.26 4.66,-0.44 2.48,-5.25 4.71,-10.62 7.48,-15.73 16.56,-33.88 30.69,-68.9 43.44,-104.38 11.22,-32.54 21.37,-65.48 29.36,-98.97 1.68,-6.94 3.82,-13.77 5.02,-20.82 3.11,-15.95 6.91,-31.77 9.36,-47.84 1.43,-8.71 3.01,-17.4 4.43,-26.11 0.67,-7.69 2.15,-15.26 3.26,-22.89 1.54,-13.75 2.66,-27.55 4.39,-41.28 0.65,-6.16 0.66,-12.37 1.18,-18.54 1.2,-11.44 0.72,-22.97 0.14,-34.43 -3.12,-38.68 -15.46,-76.64 -36.1,-109.54 -5.37,-7.93 -10.57,-16 -16.73,-23.36 C 735.59,112.45 701.9,87.77 664.47,72.48 645.89,64.85 626.85,58.39 607.69,52.42 c -10.14,-2.93 -20.31,-5.75 -30.49,-8.5 -8.71,-2.39 -17.64,-3.79 -26.42,-5.82 -9.05,-1.76 -18.06,-3.81 -27.22,-4.92 -23.25,-4.43 -46.9,-6.21 -70.48,-7.77 -13.69,-0.07 -27.37,-1.07 -41.06,-0.64 -8.03,0.22 -16.06,0.58 -24.1,0.6 -4.98,0 -9.87,1.08 -14.83,1.27 m -282.72,707 c -10.41,2.39 -18.03,12.78 -17.66,23.38 0.08,3.89 1.63,7.51 3.12,11.03 26.08,66.89 52.22,133.76 78.37,200.62 2,5.16 3.51,10.69 7.02,15.08 4.61,5.4 11.6,8.86 18.78,8.56 47.02,0 94.04,0.01 141.06,-0.01 5.22,0.06 10.54,0.34 15.53,2.06 6.47,2.31 12.8,5.46 17.8,10.27 16.31,15.4 33.09,30.29 50.29,44.68 4.23,3.65 9.74,5.74 15.32,5.9 5.83,-0.12 11.48,-2.57 15.87,-6.37 13.91,-11.69 27.62,-23.63 40.9,-36.05 6.96,-6.11 13.29,-13.52 22.21,-16.81 5.98,-2.59 12.48,-3.72 18.98,-3.67 47.34,-0.01 94.69,0.01 142.03,0 6.94,0.3 13.69,-2.93 18.3,-8.02 3.17,-3.58 4.74,-8.18 6.38,-12.58 3.1,-8.78 6.96,-17.26 10.1,-26.03 23.05,-58.97 46.11,-117.93 69.1,-176.92 1.43,-3.44 3.05,-6.9 3.34,-10.67 1.04,-9.71 -5.19,-19.43 -14.03,-23.27 -3.48,-1.63 -7.39,-1.76 -11.15,-1.82 -214.69,0 -429.37,0 -644.06,0 -2.54,0.05 -5.1,0.11 -7.6,0.64 z"
       id="path37"
       inkscape:connector-curvature="0"
       style="opacity:1;fill:#ffffff" />
    <path
       d="m 385.19,780.96 c 11.84,-3.94 24.53,-3.61 36.83,-3.04 8.15,0.24 16.06,2.51 23.65,5.37 8.55,3.4 16.11,8.99 22.46,15.6 0.66,0.9 1.8,1.7 1.79,2.94 -1.82,2.81 -4.65,4.75 -7.13,6.94 -4.99,4.11 -9.48,8.81 -14.8,12.51 -10.41,-8.31 -23.6,-13.06 -36.95,-13 -7.93,-0.46 -16.17,1.34 -22.63,6.1 -3.68,2.67 -6.39,6.98 -6.23,11.65 -0.5,6.25 4.21,11.82 9.82,13.98 11.45,5.02 24.24,4.11 36.31,6.43 13.31,2.41 27.29,6.26 37.16,16.08 9.74,8.92 13.69,22.64 13.28,35.54 0.16,7.41 -2.12,14.66 -5.48,21.2 -3.89,7.43 -10.28,13.25 -17.31,17.69 -6.15,3.85 -13.2,5.88 -20.09,7.94 -5.98,1.81 -12.24,2.27 -18.44,2.63 -11.6,0.47 -23.47,0.35 -34.65,-3.12 -15.05,-3.73 -29.47,-11.69 -39.15,-24.01 -1.32,-1.61 -2.3,-3.45 -3.15,-5.33 3.25,-3.93 6.98,-7.4 10.45,-11.12 3.66,-3.63 7,-7.58 10.95,-10.9 11.62,14.17 29.97,22.05 48.13,22.39 7.06,-0.01 14.42,-0.32 20.89,-3.46 4.79,-2.14 9.33,-5.62 11.27,-10.65 2.21,-6.8 0,-15.31 -6.34,-19.13 -10.56,-6.76 -23.62,-5.93 -35.54,-7.73 -9.11,-1.52 -18.35,-3.04 -26.83,-6.85 -10.11,-3.96 -19.3,-11.44 -23.35,-21.73 -3.61,-8.13 -3.9,-17.23 -3.15,-25.96 0.74,-8.69 4.95,-16.8 10.74,-23.2 7.34,-7.86 17.24,-12.87 27.49,-15.76 z"
       id="path39"
       inkscape:connector-curvature="0"
       style="opacity:1;fill:#ffffff" />
    <path
       d="m 537.2,785.18 c 18.28,-7.65 38.81,-9.3 58.25,-5.86 13.05,2.11 25.42,8.14 35.24,16.97 2.31,2 4.77,3.93 6.43,6.56 -3.63,4.13 -7.72,7.8 -11.54,11.73 -3.53,3.42 -6.78,7.13 -10.55,10.31 -3.21,-2.11 -6.21,-4.52 -9.55,-6.41 -14.46,-8.53 -32.68,-9.88 -48.5,-4.58 -10.38,3.39 -19.31,10.92 -24.36,20.6 -7.04,14.73 -7.95,32.24 -2.9,47.73 2.85,7.73 7.03,15.24 13.41,20.6 6.84,5.61 15.12,9.61 23.94,10.76 12.87,1.79 26.68,0.28 37.99,-6.47 2.08,-1.27 4.4,-2.37 5.94,-4.33 0.52,-2.91 0.32,-5.87 0.34,-8.8 -0.11,-5.24 0.28,-10.49 -0.37,-15.7 -12.69,-0.16 -25.38,0.36 -38.05,-0.2 -0.53,-6.36 -0.11,-12.73 -0.25,-19.09 -0.1,-3.58 -0.06,-7.16 0.37,-10.71 23.18,0.12 46.36,-0.16 69.53,0.14 0.34,21.2 -0.06,42.41 0.19,63.62 -0.1,2.48 0.33,5.3 -1.34,7.41 -9.9,13.36 -24.93,22.75 -41.26,25.87 -8.99,2.11 -18.25,2.78 -27.45,2.17 -20.37,-0.27 -41.41,-6.55 -56.53,-20.67 -16.61,-15.45 -25.08,-38.37 -25.11,-60.81 -0.4,-13.85 1.55,-27.92 7.15,-40.67 7.05,-17.84 21.37,-32.58 38.98,-40.17 z"
       id="path41"
       inkscape:connector-curvature="0"
       style="opacity:1;fill:#ffffff" />
    <path
       d="m 197.28,782.18 c 2.9,-0.18 5.81,-0.25 8.72,-0.21 37.03,0.14 74.06,-0.12 111.09,0.12 0.44,5.29 0.19,10.6 0.21,15.91 -0.04,5.63 0.25,11.28 -0.21,16.91 -28.05,0.28 -56.12,-0.1 -84.18,0.18 -0.49,5.95 -0.14,11.93 -0.22,17.91 -0.05,4.3 -0.13,8.61 0.21,12.91 26.4,0.28 52.8,-0.1 79.19,0.18 0.44,5.29 0.19,10.6 0.21,15.91 -0.04,5.23 0.32,10.49 -0.34,15.71 -20.98,-0.02 -41.97,-0.03 -62.96,-0.02 -5.36,0.02 -10.73,-0.22 -16.09,0.22 -0.43,5.35 -0.19,10.72 -0.21,16.09 0.01,5.3 -0.23,10.61 0.21,15.91 27.71,0.22 55.43,0.02 83.14,0.08 1.55,0.03 3.09,0.14 4.64,0.25 -0.22,11.07 0.18,22.16 -0.22,33.23 -5.48,0.37 -10.98,0.09 -16.47,0.15 -35.56,0.04 -71.11,-0.07 -106.67,0.05 -0.07,-53.83 0.04,-107.66 -0.05,-161.49 z"
       id="path43"
       inkscape:connector-curvature="0"
       style="opacity:1;fill:#ffffff" />
  </g>
  <g
     id="#1d428aff"
     transform="matrix(0.04444444,0,0,0.04444444,5.3335769,2.4e-6)">
    <path
       d="m 373.09,26.64 c 4.96,-0.19 9.85,-1.27 14.83,-1.27 8.04,-0.02 16.07,-0.38 24.1,-0.6 13.69,-0.43 27.37,0.57 41.06,0.64 23.58,1.56 47.23,3.34 70.48,7.77 9.16,1.11 18.17,3.16 27.22,4.92 8.78,2.03 17.71,3.43 26.42,5.82 10.18,2.75 20.35,5.57 30.49,8.5 19.16,5.97 38.2,12.43 56.78,20.06 37.43,15.29 71.12,39.97 96.47,71.53 6.16,7.36 11.36,15.43 16.73,23.36 20.64,32.9 32.98,70.86 36.1,109.54 0.58,11.46 1.06,22.99 -0.14,34.43 -0.52,6.17 -0.53,12.38 -1.18,18.54 -1.73,13.73 -2.85,27.53 -4.39,41.28 -1.11,7.63 -2.59,15.2 -3.26,22.89 -1.42,8.71 -3,17.4 -4.43,26.11 -2.45,16.07 -6.25,31.89 -9.36,47.84 -1.2,7.05 -3.34,13.88 -5.02,20.82 -7.99,33.49 -18.14,66.43 -29.36,98.97 -12.75,35.48 -26.88,70.5 -43.44,104.38 -2.77,5.11 -5,10.48 -7.48,15.73 -1.56,0.18 -3.11,0.39 -4.66,0.44 -37.35,-0.07 -74.7,-0.01 -112.05,-0.03 -4.34,-0.06 -8.69,0.26 -13.01,-0.16 -2.07,-0.24 -3.63,-1.76 -5.25,-2.9 -5.76,-4.65 -11.95,-8.71 -17.84,-13.19 -40.19,-29.12 -80.23,-58.46 -120.5,-87.48 -3.43,-2.31 -6.47,-5.44 -10.5,-6.69 -4.17,-1.09 -7.73,1.81 -10.84,4.13 -46.57,33.78 -93.11,67.61 -139.61,101.49 -2.9,1.96 -5.62,4.95 -9.41,4.8 -39.34,0.03 -78.69,-0.05 -118.03,0.03 -3.17,-0.14 -6.55,0.48 -9.57,-0.65 -3.58,-5.45 -5.39,-11.83 -8.62,-17.48 C 116.08,670.13 107.14,649.67 98.98,628.9 90.47,607.94 82.77,586.66 75.76,565.15 71.84,554.35 68.98,543.21 65.6,532.23 59.93,513.53 55.54,494.48 50.58,475.59 46.16,454.9 41.9,434.17 38.43,413.29 c -1.4,-10.15 -3.98,-20.12 -4.7,-30.37 -1.91,-11.88 -3.4,-23.82 -4.3,-35.82 -1.62,-8.79 -1.28,-17.77 -2.69,-26.58 -1.97,-23.5 -1.51,-47.33 3.13,-70.5 1.96,-12.36 5.74,-24.33 9.91,-36.09 4.18,-12.79 10.3,-24.83 16.54,-36.71 5.14,-8.4 10.11,-16.94 16.19,-24.71 14.42,-19.97 32.31,-37.33 52.17,-51.83 9.22,-6.32 18.46,-12.68 28.5,-17.65 14.36,-8.14 29.98,-13.62 45.36,-19.44 6.98,-2.47 14.02,-4.81 21.05,-7.14 18.58,-6.51 37.81,-10.85 56.83,-15.87 18.75,-3.93 37.58,-7.59 56.6,-9.96 13.27,-2.04 26.65,-3.49 40.07,-3.98 m -15.66,77 c -10.88,3.41 -17.28,14.23 -19.77,24.76 -2.42,12.67 -3.9,25.49 -5.2,38.32 -0.79,7.18 -2.26,14.27 -3.01,21.45 -1.19,8.21 -1.68,16.51 -2.95,24.71 -1.75,10.56 -2.96,21.2 -4.05,31.84 -0.68,6.61 -2.09,13.12 -2.77,19.74 -0.46,4.31 -0.86,8.69 -2.38,12.79 -4.28,12.13 -11.87,23.04 -21.45,31.59 -5.27,4.82 -11.99,7.49 -18.23,10.75 -12.73,6.18 -25.51,12.27 -38.02,18.9 -18.51,8.61 -36.83,17.65 -55.01,26.95 -8.32,3.7 -16.12,9.26 -21.08,17.02 -5.71,8.7 -4.84,21.15 2.12,28.92 5.75,6.42 14.14,9.83 22.46,11.39 11.92,2.05 24.08,1.88 36.03,3.69 12.57,1.3 25.18,2.3 37.76,3.54 4.68,0.46 9.93,2.66 11.66,7.39 1.67,4.72 -0.48,9.57 -1.95,14.05 -18.92,52.12 -37.91,104.21 -56.83,156.33 -1.23,3.68 -2.67,7.28 -3.76,11.01 -1.65,5.58 -2.02,11.47 -1.66,17.26 0.21,3.86 1.9,7.43 3.74,10.76 4.14,7.85 13.12,12.77 21.94,12.34 11.31,-0.09 21.28,-6.57 29.93,-13.25 41.75,-31.24 83.53,-62.44 125.29,-93.68 5.07,-3.92 10.43,-7.96 16.91,-9.07 8.61,-1.57 17.89,-2.03 26.09,1.51 4.57,1.79 8.49,4.79 12.37,7.71 37.59,27.42 75.11,54.9 112.72,82.29 9.11,6.69 18.95,13.76 30.61,14.61 9.46,0.85 19.2,-4.55 23.25,-13.17 3.64,-7.02 2.98,-15.35 1.41,-22.84 -3.06,-10.82 -8.48,-20.77 -12.7,-31.15 -16.38,-37.3 -32.77,-74.6 -49.04,-111.94 -3.09,-7.33 -7.24,-14.38 -8.32,-22.37 -2.11,-15.27 -0.51,-31.54 7.2,-45.12 40.03,-62.98 79.93,-126.04 119.92,-189.04 5.16,-9.03 10.76,-18.9 9.39,-29.72 -1.1,-9.16 -8.49,-17.03 -17.3,-19.4 -6.17,-1.09 -12.72,-0.62 -18.55,1.76 -5.32,2.1 -10.53,4.53 -15.37,7.59 -10.92,6.81 -22.2,13 -33.15,19.76 -10.27,5.65 -20.08,12.08 -30.31,17.8 -19.58,11.76 -39.38,23.14 -58.95,34.92 -8.57,4.67 -16.71,10.06 -25.18,14.87 -3.78,2.1 -7.79,4.27 -12.24,4.17 -5.8,0.13 -11.39,-3.04 -14.6,-7.81 -2.24,-3.32 -3.59,-7.13 -5.3,-10.73 -16.34,-35.65 -32.53,-71.37 -48.85,-107.04 -3.72,-8.1 -7,-16.54 -12.33,-23.77 -3.74,-5.21 -8.86,-9.49 -14.77,-11.99 -5.01,-1.76 -10.62,-1.81 -15.72,-0.4 z"
       id="path46"
       inkscape:connector-curvature="0"
       style="opacity:1;fill:#1d428a" />
    <path
       d="m 370.51,167.97 c 1.59,1.45 2.3,3.51 3.14,5.43 12.74,28.21 25.69,56.31 38.48,84.5 3.36,7.18 6.15,14.72 10.72,21.27 10.14,14.95 27.98,24.75 46.16,24.26 7.58,0.14 15.2,-1.22 22.13,-4.34 7.15,-3.23 13.75,-7.51 20.49,-11.49 31,-18.3 61.98,-36.66 92.99,-54.97 4.4,-2.54 8.6,-5.47 13.29,-7.51 -1.95,3.87 -4.52,7.36 -6.8,11.03 -30.74,48.56 -61.65,97.02 -92.29,145.64 -4.9,7.48 -7.92,15.99 -10.37,24.54 -1.59,6.79 -3.13,13.65 -3.49,20.64 -0.68,11.28 -0.4,22.74 2.46,33.72 1.78,8.68 6.04,16.51 9.31,24.66 15.46,35.12 30.84,70.27 46.23,105.42 -29.92,-22.02 -59.95,-43.87 -89.96,-65.76 -8.07,-5.79 -15.86,-12.32 -25.34,-15.7 -6.99,-2.45 -14.11,-4.91 -21.57,-5.26 -17.69,-1.62 -36.25,1.88 -51.08,11.99 -12.83,9.08 -25.12,18.92 -37.94,28.03 -23.73,17.96 -47.59,35.74 -71.41,53.57 -2.81,2.15 -5.64,4.27 -8.66,6.11 1.2,-4.19 2.87,-8.21 4.34,-12.3 15.6,-43.12 31.46,-86.13 46.93,-129.29 4.96,-12.35 5.62,-26.6 0.66,-39.05 -4.84,-12.77 -15.71,-22.74 -28.33,-27.63 -5.46,-1.93 -11.11,-3.46 -16.91,-3.9 -12.91,-1.1 -25.81,-2.3 -38.74,-3.08 2.05,-2.15 5.11,-2.67 7.66,-4.01 5.75,-2.84 11.32,-6.03 17.15,-8.71 11.59,-5.38 22.8,-11.54 34.51,-16.67 3.78,-1.75 7.41,-3.79 11.12,-5.67 6.74,-3.5 13.81,-6.49 19.85,-11.18 8.85,-6.75 16.67,-14.85 23.13,-23.91 8.88,-12.01 15.38,-25.91 18.14,-40.63 2.18,-11.73 2.51,-23.7 4.61,-35.44 2.28,-13.74 2.97,-27.68 5.38,-41.4 1.69,-10.93 2.47,-21.97 4.01,-32.91 z"
       id="path48"
       inkscape:connector-curvature="0"
       style="opacity:1;fill:#1d428a" />
    <path
       d="m 90.37,733.64 c 2.5,-0.53 5.06,-0.59 7.6,-0.64 214.69,0 429.37,0 644.06,0 3.76,0.06 7.67,0.19 11.15,1.82 8.84,3.84 15.07,13.56 14.03,23.27 -0.29,3.77 -1.91,7.23 -3.34,10.67 -22.99,58.99 -46.05,117.95 -69.1,176.92 -3.14,8.77 -7,17.25 -10.1,26.03 -1.64,4.4 -3.21,9 -6.38,12.58 -4.61,5.09 -11.36,8.32 -18.3,8.02 -47.34,0.01 -94.69,-0.01 -142.03,0 -6.5,-0.05 -13,1.08 -18.98,3.67 -8.92,3.29 -15.25,10.7 -22.21,16.81 -13.28,12.42 -26.99,24.36 -40.9,36.05 -4.39,3.8 -10.04,6.25 -15.87,6.37 -5.58,-0.16 -11.09,-2.25 -15.32,-5.9 -17.2,-14.39 -33.98,-29.28 -50.29,-44.68 -5,-4.81 -11.33,-7.96 -17.8,-10.27 -4.99,-1.72 -10.31,-2 -15.53,-2.06 -47.02,0.02 -94.04,0.01 -141.06,0.01 -7.18,0.3 -14.17,-3.16 -18.78,-8.56 -3.51,-4.39 -5.02,-9.92 -7.02,-15.08 -26.15,-66.86 -52.29,-133.73 -78.37,-200.62 -1.49,-3.52 -3.04,-7.14 -3.12,-11.03 -0.37,-10.6 7.25,-20.99 17.66,-23.38 m 294.82,47.32 c -10.25,2.89 -20.15,7.9 -27.49,15.76 -5.79,6.4 -10,14.51 -10.74,23.2 -0.75,8.73 -0.46,17.83 3.15,25.96 4.05,10.29 13.24,17.77 23.35,21.73 8.48,3.81 17.72,5.33 26.83,6.85 11.92,1.8 24.98,0.97 35.54,7.73 6.34,3.82 8.55,12.33 6.34,19.13 -1.94,5.03 -6.48,8.51 -11.27,10.65 -6.47,3.14 -13.83,3.45 -20.89,3.46 -18.16,-0.34 -36.51,-8.22 -48.13,-22.39 -3.95,3.32 -7.29,7.27 -10.95,10.9 -3.47,3.72 -7.2,7.19 -10.45,11.12 0.85,1.88 1.83,3.72 3.15,5.33 9.68,12.32 24.1,20.28 39.15,24.01 11.18,3.47 23.05,3.59 34.65,3.12 6.2,-0.36 12.46,-0.82 18.44,-2.63 6.89,-2.06 13.94,-4.09 20.09,-7.94 7.03,-4.44 13.42,-10.26 17.31,-17.69 3.36,-6.54 5.64,-13.79 5.48,-21.2 0.41,-12.9 -3.54,-26.62 -13.28,-35.54 -9.87,-9.82 -23.85,-13.67 -37.16,-16.08 -12.07,-2.32 -24.86,-1.41 -36.31,-6.43 -5.61,-2.16 -10.32,-7.73 -9.82,-13.98 -0.16,-4.67 2.55,-8.98 6.23,-11.65 6.46,-4.76 14.7,-6.56 22.63,-6.1 13.35,-0.06 26.54,4.69 36.95,13 5.32,-3.7 9.81,-8.4 14.8,-12.51 2.48,-2.19 5.31,-4.13 7.13,-6.94 0.01,-1.24 -1.13,-2.04 -1.79,-2.94 -6.35,-6.61 -13.91,-12.2 -22.46,-15.6 -7.59,-2.86 -15.5,-5.13 -23.65,-5.37 -12.3,-0.57 -24.99,-0.9 -36.83,3.04 m 152.01,4.22 c -17.61,7.59 -31.93,22.33 -38.98,40.17 -5.6,12.75 -7.55,26.82 -7.15,40.67 0.03,22.44 8.5,45.36 25.11,60.81 15.12,14.12 36.16,20.4 56.53,20.67 9.2,0.61 18.46,-0.06 27.45,-2.17 16.33,-3.12 31.36,-12.51 41.26,-25.87 1.67,-2.11 1.24,-4.93 1.34,-7.41 -0.25,-21.21 0.15,-42.42 -0.19,-63.62 -23.17,-0.3 -46.35,-0.02 -69.53,-0.14 -0.43,3.55 -0.47,7.13 -0.37,10.71 0.14,6.36 -0.28,12.73 0.25,19.09 12.67,0.56 25.36,0.04 38.05,0.2 0.65,5.21 0.26,10.46 0.37,15.7 -0.02,2.93 0.18,5.89 -0.34,8.8 -1.54,1.96 -3.86,3.06 -5.94,4.33 -11.31,6.75 -25.12,8.26 -37.99,6.47 -8.82,-1.15 -17.1,-5.15 -23.94,-10.76 -6.38,-5.36 -10.56,-12.87 -13.41,-20.6 -5.05,-15.49 -4.14,-33 2.9,-47.73 5.05,-9.68 13.98,-17.21 24.36,-20.6 15.82,-5.3 34.04,-3.95 48.5,4.58 3.34,1.89 6.34,4.3 9.55,6.41 3.77,-3.18 7.02,-6.89 10.55,-10.31 3.82,-3.93 7.91,-7.6 11.54,-11.73 -1.66,-2.63 -4.12,-4.56 -6.43,-6.56 -9.82,-8.83 -22.19,-14.86 -35.24,-16.97 -19.44,-3.44 -39.97,-1.79 -58.25,5.86 m -339.92,-3 c 0.09,53.83 -0.02,107.66 0.05,161.49 35.56,-0.12 71.11,-0.01 106.67,-0.05 5.49,-0.06 10.99,0.22 16.47,-0.15 0.4,-11.07 0,-22.16 0.22,-33.23 -1.55,-0.11 -3.09,-0.22 -4.64,-0.25 -27.71,-0.06 -55.43,0.14 -83.14,-0.08 -0.44,-5.3 -0.2,-10.61 -0.21,-15.91 0.02,-5.37 -0.22,-10.74 0.21,-16.09 5.36,-0.44 10.73,-0.2 16.09,-0.22 20.99,-0.01 41.98,0 62.96,0.02 0.66,-5.22 0.3,-10.48 0.34,-15.71 -0.02,-5.31 0.23,-10.62 -0.21,-15.91 -26.39,-0.28 -52.79,0.1 -79.19,-0.18 -0.34,-4.3 -0.26,-8.61 -0.21,-12.91 0.08,-5.98 -0.27,-11.96 0.22,-17.91 28.06,-0.28 56.13,0.1 84.18,-0.18 0.46,-5.63 0.17,-11.28 0.21,-16.91 -0.02,-5.31 0.23,-10.62 -0.21,-15.91 -37.03,-0.24 -74.06,0.02 -111.09,-0.12 -2.91,-0.04 -5.82,0.03 -8.72,0.21 z"
       id="path50"
       inkscape:connector-curvature="0"
       style="opacity:1;fill:#1d428a" />
  </g>
  <g
     id="#f1c400ff"
     transform="matrix(0.04444444,0,0,0.04444444,5.3335769,2.4e-6)">
    <path
       d="m 357.43,103.64 c 5.1,-1.41 10.71,-1.36 15.72,0.4 5.91,2.5 11.03,6.78 14.77,11.99 5.33,7.23 8.61,15.67 12.33,23.77 16.32,35.67 32.51,71.39 48.85,107.04 1.71,3.6 3.06,7.41 5.3,10.73 3.21,4.77 8.8,7.94 14.6,7.81 4.45,0.1 8.46,-2.07 12.24,-4.17 8.47,-4.81 16.61,-10.2 25.18,-14.87 19.57,-11.78 39.37,-23.16 58.95,-34.92 10.23,-5.72 20.04,-12.15 30.31,-17.8 10.95,-6.76 22.23,-12.95 33.15,-19.76 4.84,-3.06 10.05,-5.49 15.37,-7.59 5.83,-2.38 12.38,-2.85 18.55,-1.76 8.81,2.37 16.2,10.24 17.3,19.4 1.37,10.82 -4.23,20.69 -9.39,29.72 -39.99,63 -79.89,126.06 -119.92,189.04 -7.71,13.58 -9.31,29.85 -7.2,45.12 1.08,7.99 5.23,15.04 8.32,22.37 16.27,37.34 32.66,74.64 49.04,111.94 4.22,10.38 9.64,20.33 12.7,31.15 1.57,7.49 2.23,15.82 -1.41,22.84 -4.05,8.62 -13.79,14.02 -23.25,13.17 -11.66,-0.85 -21.5,-7.92 -30.61,-14.61 -37.61,-27.39 -75.13,-54.87 -112.72,-82.29 -3.88,-2.92 -7.8,-5.92 -12.37,-7.71 -8.2,-3.54 -17.48,-3.08 -26.09,-1.51 -6.48,1.11 -11.84,5.15 -16.91,9.07 -41.76,31.24 -83.54,62.44 -125.29,93.68 -8.65,6.68 -18.62,13.16 -29.93,13.25 -8.82,0.43 -17.8,-4.49 -21.94,-12.34 -1.84,-3.33 -3.53,-6.9 -3.74,-10.76 -0.36,-5.79 0.01,-11.68 1.66,-17.26 1.09,-3.73 2.53,-7.33 3.76,-11.01 18.92,-52.12 37.91,-104.21 56.83,-156.33 1.47,-4.48 3.62,-9.33 1.95,-14.05 -1.73,-4.73 -6.98,-6.93 -11.66,-7.39 -12.58,-1.24 -25.19,-2.24 -37.76,-3.54 -11.95,-1.81 -24.11,-1.64 -36.03,-3.69 -8.32,-1.56 -16.71,-4.97 -22.46,-11.39 -6.96,-7.77 -7.83,-20.22 -2.12,-28.92 4.96,-7.76 12.76,-13.32 21.08,-17.02 18.18,-9.3 36.5,-18.34 55.01,-26.95 12.51,-6.63 25.29,-12.72 38.02,-18.9 6.24,-3.26 12.96,-5.93 18.23,-10.75 9.58,-8.55 17.17,-19.46 21.45,-31.59 1.52,-4.1 1.92,-8.48 2.38,-12.79 0.68,-6.62 2.09,-13.13 2.77,-19.74 1.09,-10.64 2.3,-21.28 4.05,-31.84 1.27,-8.2 1.76,-16.5 2.95,-24.71 0.75,-7.18 2.22,-14.27 3.01,-21.45 1.3,-12.83 2.78,-25.65 5.2,-38.32 2.49,-10.53 8.89,-21.35 19.77,-24.76 m 13.08,64.33 c -1.54,10.94 -2.32,21.98 -4.01,32.91 -2.41,13.72 -3.1,27.66 -5.38,41.4 -2.1,11.74 -2.43,23.71 -4.61,35.44 -2.76,14.72 -9.26,28.62 -18.14,40.63 -6.46,9.06 -14.28,17.16 -23.13,23.91 -6.04,4.69 -13.11,7.68 -19.85,11.18 -3.71,1.88 -7.34,3.92 -11.12,5.67 -11.71,5.13 -22.92,11.29 -34.51,16.67 -5.83,2.68 -11.4,5.87 -17.15,8.71 -2.55,1.34 -5.61,1.86 -7.66,4.01 12.93,0.78 25.83,1.98 38.74,3.08 5.8,0.44 11.45,1.97 16.91,3.9 12.62,4.89 23.49,14.86 28.33,27.63 4.96,12.45 4.3,26.7 -0.66,39.05 -15.47,43.16 -31.33,86.17 -46.93,129.29 -1.47,4.09 -3.14,8.11 -4.34,12.3 3.02,-1.84 5.85,-3.96 8.66,-6.11 23.82,-17.83 47.68,-35.61 71.41,-53.57 12.82,-9.11 25.11,-18.95 37.94,-28.03 14.83,-10.11 33.39,-13.61 51.08,-11.99 7.46,0.35 14.58,2.81 21.57,5.26 9.48,3.38 17.27,9.91 25.34,15.7 30.01,21.89 60.04,43.74 89.96,65.76 -15.39,-35.15 -30.77,-70.3 -46.23,-105.42 -3.27,-8.15 -7.53,-15.98 -9.31,-24.66 -2.86,-10.98 -3.14,-22.44 -2.46,-33.72 0.36,-6.99 1.9,-13.85 3.49,-20.64 2.45,-8.55 5.47,-17.06 10.37,-24.54 30.64,-48.62 61.55,-97.08 92.29,-145.64 2.28,-3.67 4.85,-7.16 6.8,-11.03 -4.69,2.04 -8.89,4.97 -13.29,7.51 -31.01,18.31 -61.99,36.67 -92.99,54.97 -6.74,3.98 -13.34,8.26 -20.49,11.49 -6.93,3.12 -14.55,4.48 -22.13,4.34 -18.18,0.49 -36.02,-9.31 -46.16,-24.26 -4.57,-6.55 -7.36,-14.09 -10.72,-21.27 -12.79,-28.19 -25.74,-56.29 -38.48,-84.5 -0.84,-1.92 -1.55,-3.98 -3.14,-5.43 z"
       id="path53"
       inkscape:connector-curvature="0"
       style="opacity:1;fill:#f1c400" />
  </g>
</svg>
