<?xml version="1.0" encoding="utf-8"?>
<!-- Generator: Adobe Illustrator 16.0.0, SVG Export Plug-In . SVG Version: 6.00 Build 0)  -->
<!DOCTYPE svg PUBLIC "-//W3C//DTD SVG 1.1//EN" "http://www.w3.org/Graphics/SVG/1.1/DTD/svg11.dtd">
<svg version="1.1" id="Layer_1" xmlns="http://www.w3.org/2000/svg" xmlns:xlink="http://www.w3.org/1999/xlink" x="0px" y="0px"
	 width="64px" height="64px" viewBox="0 0 64 64" enable-background="new 0 0 64 64" xml:space="preserve">
<g>
	<g>
		<path fill-rule="evenodd" clip-rule="evenodd" fill="#FECB0F" d="M0.007,44.726c0-0.179,0-0.356,0-0.535
			c0.198-0.159,0.381-0.343,0.597-0.474c4.451-2.696,8.905-5.388,13.359-8.077c0.752-0.454,1.513-0.895,2.267-1.346
			c0.383-0.229,0.403-0.491,0.067-0.792c-0.124-0.111-0.255-0.215-0.384-0.322c-3.013-2.502-6.023-5.006-9.039-7.504
			c-2.286-1.894-4.578-3.778-6.867-5.666c0-0.245,0-0.49,0-0.735c0.066-0.044,0.134-0.089,0.2-0.134c0.066,0,0.134,0,0.2,0
			c0.151,0.022,0.302,0.064,0.452,0.064c5.087,0.003,10.174,0.003,15.261,0.003c1.714-0.001,3.428-0.004,5.142-0.006
			c0.04,0.174,0.121,0.35,0.111,0.521c-0.023,0.434,0.123,0.763,0.447,1.057c1.095,0.994,2.166,2.014,3.26,3.009
			c0.765,0.695,1.54,1.381,2.333,2.044c0.717,0.6,1.211,0.606,2.003,0.133c2.135-1.277,4.293-2.52,6.407-3.831
			c1.242-0.771,2.47-1.594,3.127-2.993c0.623,0,1.247,0,1.87,0c0.128,0.022,0.256,0.063,0.384,0.064
			c0.829,0.005,1.659,0.002,2.489,0.002c0.734,0,1.47,0,2.204,0c1.564,0,3.128,0.002,4.692-0.002c0.128,0,0.256-0.042,0.384-0.064
			c0.067,0,0.134,0,0.201,0c0.114,0.197,0,0.268-0.167,0.339c-0.479,0.207-0.972,0.393-1.424,0.649
			c-2.531,1.442-5.056,2.896-7.574,4.36c-1.412,0.82-2.877,1.56-4.122,2.644c-0.119,0.104-0.325,0.143-0.494,0.148
			c-0.5,0.019-1.002,0.026-1.502,0c-0.533-0.029-0.967,0.138-1.371,0.485c-0.612,0.527-1.256,1.02-1.93,1.562
			c-0.477-0.501-0.947-0.973-1.389-1.469c-0.248-0.279-0.512-0.503-0.898-0.504c-1.747-0.006-3.494-0.008-5.242,0.001
			c-0.116,0-0.291,0.063-0.333,0.149c-0.041,0.083,0.018,0.276,0.098,0.346c0.239,0.206,0.521,0.362,0.768,0.561
			c1.087,0.866,2.171,1.737,3.249,2.615c0.271,0.219,0.257,0.313-0.042,0.487c-1.182,0.689-2.368,1.368-3.545,2.065
			c-0.132,0.078-0.299,0.253-0.293,0.376c0.011,0.251,0.255,0.265,0.463,0.26c0.634-0.014,1.269-0.018,1.902-0.052
			c0.203-0.011,0.43-0.06,0.598-0.166c0.818-0.517,1.622-1.057,2.427-1.594c0.369-0.246,0.46-0.248,0.763,0.077
			c0.455,0.488,0.909,0.978,1.352,1.479c0.239,0.271,0.527,0.39,0.882,0.394c1.579,0.017,3.158,0.041,4.738,0.052
			c0.104,0.001,0.257-0.063,0.3-0.144c0.045-0.084,0.018-0.245-0.038-0.335c-0.092-0.149-0.22-0.282-0.354-0.396
			c-0.234-0.197-0.31-0.443-0.308-0.739c0.009-1.068,0.013-2.138,0.01-3.206c-0.003-1.43-0.156-1.397,1.16-2.431
			c0.297-0.233,0.604-0.348,0.979-0.345c1.18,0.01,2.359,0.002,3.538,0.003c1.703,0.002,3.406,0.002,5.109,0.01
			c0.751,0.003,0.785,0.034,0.961,0.769c0.027,0.113-0.019,0.245-0.03,0.367c-0.135-0.021-0.273-0.031-0.404-0.064
			c-0.23-0.059-0.457-0.187-0.687-0.189c-1.524-0.019-3.05-0.004-4.574-0.017c-0.592-0.005-1.054,0.348-1.061,0.938
			c-0.018,1.479-0.001,2.961,0.005,4.44c0.001,0.253,0.15,0.392,0.386,0.427c0.187,0.027,0.377,0.033,0.565,0.034
			c1.347,0.012,2.693,0.027,4.039,0.024c0.527-0.001,1.075,0.055,1.508-0.374c0.098-0.096,0.264-0.107,0.296,0.099
			c0.083,0.52-0.219,1.008-0.71,1.141c-0.126,0.034-0.264,0.037-0.396,0.037c-2.549,0-5.098-0.001-7.646-0.009
			c-0.332-0.001-0.664-0.05-0.997-0.058c-0.147-0.003-0.296,0.039-0.443,0.061c0.039,0.142,0.052,0.297,0.123,0.42
			c0.081,0.14,0.2,0.265,0.324,0.371c0.347,0.297,0.708,0.576,1.056,0.872c3.476,2.952,6.876,5.998,10.68,8.54
			c0.04,0.026,0.023,0.137,0.033,0.207c-0.156,0-0.313,0-0.468,0c-0.112-0.021-0.225-0.041-0.337-0.063
			c-0.066,0.001-0.133,0.002-0.199,0.003c-0.113,0.001-0.226,0.003-0.338,0.004c-2.003,0-4.005,0-6.008,0
			c-2.125-0.003-4.251-0.01-6.376-0.01c-2.571,0-5.142,0.005-7.712,0.008c-0.112,0-0.224,0.001-0.336,0.002
			c-0.045-0.002-0.089-0.004-0.134-0.005c-0.09,0.021-0.181,0.04-0.271,0.061c-0.089,0-0.178,0-0.267,0
			c-0.036-0.112-0.102-0.225-0.103-0.338c-0.004-0.336-0.142-0.602-0.385-0.819c-0.149-0.133-0.305-0.26-0.459-0.388
			c-2.311-1.92-4.625-3.836-6.931-5.762c-0.269-0.225-0.493-0.227-0.776-0.035c-3.137,2.113-6.276,4.222-9.42,6.325
			c-0.249,0.167-0.401,0.362-0.439,0.666c-0.013,0.103-0.118,0.194-0.181,0.292c-0.139,0-0.276,0-0.415,0c-0.066,0-0.132,0-0.198,0
			c-0.066,0.001-0.134,0.002-0.2,0.002c-0.535,0-1.07,0-1.604,0c-2.002,0-4.004,0-6.006,0c-0.356-0.001-0.713-0.001-1.07-0.002
			c-0.066,0-0.133,0.001-0.199,0.001c-0.045,0.001-0.09,0.001-0.135,0.001c-0.115-0.001-0.23-0.002-0.345-0.003
			C0.134,44.774,0.07,44.75,0.007,44.726z"/>
		<path fill-rule="evenodd" clip-rule="evenodd" fill="#FECB0F" d="M64,34.705c-0.135,0.042-0.269,0.12-0.403,0.121
			c-1.713,0.016-3.428,0.037-5.141,0.005c-0.235-0.005-0.507-0.255-0.691-0.457c-0.494-0.542-0.946-1.122-1.421-1.683
			c-0.978-1.155-1.961-2.307-2.937-3.463c-0.193-0.229-0.354-0.486-0.554-0.709c-0.067-0.075-0.225-0.139-0.31-0.111
			c-0.079,0.025-0.165,0.18-0.165,0.277c-0.01,1.77-0.011,3.539,0.004,5.309c0.001,0.145,0.134,0.287,0.203,0.432
			c0.04,0.085,0.123,0.187,0.101,0.253c-0.022,0.069-0.146,0.15-0.227,0.151c-0.689,0.009-1.38,0.005-2.069-0.004
			c-0.217-0.003-0.23-0.168-0.229-0.334c0.004-0.567,0.01-1.135,0.009-1.702c-0.003-1.881-0.005-3.762-0.017-5.643
			c-0.002-0.249,0.088-0.335,0.329-0.334c2.025,0.003,4.052-0.011,6.076,0.015c0.232,0.003,0.527,0.159,0.682,0.339
			c1.556,1.816,3.089,3.654,4.629,5.484c0.114,0.136,0.228,0.278,0.364,0.387c0.204,0.162,0.38,0.094,0.439-0.161
			c0.032-0.139,0.046-0.285,0.047-0.429c0-1.458-0.009-2.916-0.004-4.373c0.002-0.512-0.192-0.925-0.563-1.296
			c0.627,0.035,1.258-0.146,1.847,0.177C64,29.539,64,32.122,64,34.705z"/>
		<path fill-rule="evenodd" clip-rule="evenodd" fill="#FECB10" d="M64,37.912c-0.239,0.33-0.571,0.422-0.94,0.304
			c-0.362-0.115-0.498-0.412-0.513-0.792c0.23-0.071,0.42-0.122,0.517,0.192c0.028,0.092,0.188,0.144,0.288,0.213
			c0.081-0.118,0.224-0.235,0.226-0.354c0.003-0.134-0.103-0.286-0.198-0.399c-0.156-0.187-0.349-0.343-0.515-0.521
			c-0.36-0.386-0.379-0.96-0.049-1.255c0.343-0.307,0.813-0.225,1.185,0.208c0,0.111,0,0.223,0,0.334
			c-0.183,0.008-0.39,0.117-0.498-0.157c-0.022-0.056-0.216-0.113-0.247-0.083c-0.087,0.083-0.196,0.227-0.176,0.319
			c0.036,0.162,0.146,0.317,0.254,0.45c0.211,0.256,0.443,0.494,0.667,0.74C64,37.377,64,37.645,64,37.912z"/>
		<path fill-rule="evenodd" clip-rule="evenodd" fill="#FECD22" d="M21.249,19.141c0.001,0.021,0.006,0.042,0.013,0.062
			c-1.714,0.002-3.428,0.005-5.142,0.006c-5.087,0-10.174,0-15.261-0.003c-0.15,0-0.301-0.042-0.452-0.064
			C7.354,19.141,14.302,19.141,21.249,19.141z"/>
		<path fill-rule="evenodd" clip-rule="evenodd" fill="#FEF0C0" d="M30.071,44.801c2.57-0.003,5.141-0.008,7.712-0.008
			c2.125,0,4.251,0.007,6.376,0.01c0.001,0.019,0.001,0.037,0.001,0.056c-4.698,0-9.396,0-14.094,0
			C30.066,44.839,30.067,44.82,30.071,44.801z"/>
		<path fill-rule="evenodd" clip-rule="evenodd" fill="#FEF0C0" d="M1.947,44.802c2.002,0,4.004,0,6.006,0
			c0.001,0.019,0.002,0.038,0.003,0.057c-2.004,0-4.008,0-6.013,0C1.944,44.84,1.945,44.82,1.947,44.802z"/>
		<path fill-rule="evenodd" clip-rule="evenodd" fill="#FEEDB0" d="M44.16,44.858c0-0.019,0-0.037-0.001-0.056
			c2.003,0,4.005,0,6.008,0c0.002,0.019,0.004,0.037,0.006,0.056C48.168,44.858,46.164,44.858,44.16,44.858z"/>
		<path fill-rule="evenodd" clip-rule="evenodd" fill="#FECE26" d="M50.974,19.141c-0.128,0.022-0.256,0.064-0.384,0.064
			c-1.564,0.004-3.128,0.002-4.692,0.002c0-0.022,0-0.044,0-0.066C47.59,19.141,49.282,19.141,50.974,19.141z"/>
		<path fill-rule="evenodd" clip-rule="evenodd" fill="#FECB18" d="M43.693,19.207c-0.83,0-1.66,0.003-2.489-0.002
			c-0.128-0.001-0.256-0.042-0.384-0.064c0.958,0,1.915,0,2.873,0C43.693,19.163,43.693,19.186,43.693,19.207z"/>
		<path fill-rule="evenodd" clip-rule="evenodd" fill="#FECD21" d="M43.693,19.207c0-0.021,0-0.044,0-0.066c0.734,0,1.469,0,2.204,0
			c0,0.022,0,0.044,0,0.066C45.163,19.207,44.428,19.207,43.693,19.207z"/>
		<path fill-rule="evenodd" clip-rule="evenodd" fill="#FEE898" d="M7.956,44.858c-0.001-0.019-0.002-0.038-0.003-0.057
			c0.534,0,1.069,0,1.604,0c0.001,0.019,0.001,0.038,0.001,0.057C9.024,44.858,8.49,44.858,7.956,44.858z"/>
		<path fill-rule="evenodd" clip-rule="evenodd" fill="#FEE58E" d="M1.947,44.802c-0.002,0.019-0.003,0.038-0.004,0.057
			c-0.355,0-0.712,0-1.068,0c0-0.02,0.001-0.039,0.002-0.059C1.234,44.801,1.591,44.801,1.947,44.802z"/>
		<path fill-rule="evenodd" clip-rule="evenodd" fill="#FED854" d="M10.371,44.8c-0.006,0.019-0.009,0.039-0.011,0.059
			c-0.134,0-0.267,0-0.4,0c-0.001-0.02-0.002-0.039-0.004-0.059C10.095,44.8,10.232,44.8,10.371,44.8z"/>
		<path fill-rule="evenodd" clip-rule="evenodd" fill="#FED852" d="M0.198,44.799c0.114,0.001,0.229,0.002,0.345,0.003
			c-0.001,0.019-0.002,0.038-0.002,0.057c-0.111,0-0.223,0-0.334,0C0.207,44.838,0.204,44.818,0.198,44.799z"/>
		<path fill-rule="evenodd" clip-rule="evenodd" fill="#FEE27D" d="M30.071,44.801c-0.004,0.02-0.005,0.038-0.005,0.058
			c-0.111,0-0.223,0-0.334,0c0.001-0.019,0.002-0.037,0.003-0.056C29.848,44.802,29.959,44.801,30.071,44.801z"/>
		<path fill-rule="evenodd" clip-rule="evenodd" fill="#FED542" d="M50.704,44.796c0.112,0.021,0.225,0.042,0.337,0.063
			c-0.111,0-0.223,0-0.334,0C50.707,44.838,50.706,44.817,50.704,44.796z"/>
		<path fill-rule="evenodd" clip-rule="evenodd" fill="#FEE074" d="M50.173,44.858c-0.002-0.019-0.004-0.037-0.006-0.056
			c0.112-0.001,0.225-0.003,0.338-0.004c0.001,0.02,0.002,0.04,0.002,0.06C50.396,44.858,50.284,44.858,50.173,44.858z"/>
		<path fill-rule="evenodd" clip-rule="evenodd" fill="#FEFAE9" d="M0.207,19.141c-0.066,0.045-0.134,0.09-0.2,0.134
			C-0.034,19.068,0.122,19.158,0.207,19.141z"/>
		<path fill-rule="evenodd" clip-rule="evenodd" fill="#FEFBEF" d="M0.198,44.799c0.006,0.02,0.009,0.039,0.009,0.06
			c-0.085-0.018-0.241,0.073-0.2-0.133C0.07,44.75,0.134,44.774,0.198,44.799z"/>
		<path fill-rule="evenodd" clip-rule="evenodd" fill="#FED646" d="M29.331,44.858c0.09-0.021,0.181-0.04,0.271-0.061
			c-0.002,0.021-0.003,0.04-0.003,0.061C29.51,44.858,29.421,44.858,29.331,44.858z"/>
		<path fill-rule="evenodd" clip-rule="evenodd" fill="#FEE074" d="M0.877,44.8c-0.001,0.02-0.002,0.039-0.002,0.059
			c-0.066,0-0.134,0-0.2,0c0-0.019,0.001-0.038,0.003-0.058C0.744,44.801,0.811,44.8,0.877,44.8z"/>
		<path fill-rule="evenodd" clip-rule="evenodd" fill="#FEE075" d="M9.956,44.8c0.002,0.02,0.003,0.039,0.004,0.059
			c-0.067,0-0.134,0-0.2,0c0-0.02-0.001-0.039-0.002-0.059C9.824,44.8,9.89,44.8,9.956,44.8z"/>
		<path fill-rule="evenodd" clip-rule="evenodd" fill="#FEDB60" d="M50.507,44.858c0-0.02-0.001-0.04-0.002-0.06
			c0.066-0.001,0.133-0.002,0.199-0.003c0.002,0.021,0.003,0.042,0.003,0.063C50.64,44.858,50.573,44.858,50.507,44.858z"/>
		<path fill-rule="evenodd" clip-rule="evenodd" fill="#FEE48A" d="M9.758,44.8c0.001,0.02,0.002,0.039,0.002,0.059
			c-0.067,0-0.134,0-0.201,0c0-0.019,0-0.038-0.001-0.057C9.624,44.802,9.691,44.801,9.758,44.8z"/>
		<path fill-rule="evenodd" clip-rule="evenodd" fill="#FEDA5D" d="M0.678,44.801c-0.002,0.02-0.003,0.039-0.003,0.058
			c-0.045,0-0.089,0-0.134,0c0-0.019,0.001-0.038,0.002-0.057C0.588,44.802,0.633,44.802,0.678,44.801z"/>
		<path fill-rule="evenodd" clip-rule="evenodd" fill="#FEDC62" d="M29.599,44.858c0-0.021,0.001-0.04,0.003-0.061
			c0.045,0.001,0.089,0.003,0.134,0.005c-0.001,0.019-0.002,0.037-0.003,0.056C29.688,44.858,29.644,44.858,29.599,44.858z"/>
		<path fill-rule="evenodd" clip-rule="evenodd" fill="#FECB10" d="M58.212,36.948c0-0.586,0-1.173,0-1.785c0.153,0,0.279,0,0.43,0
			c0,1.018,0,2.033,0,3.053c-0.329,0.103-0.512,0.014-0.599-0.342c-0.113-0.46-0.284-0.905-0.487-1.351c0,0.557,0,1.112,0,1.695
			c-0.157,0-0.283,0-0.438,0c0-1.008,0-2.024,0-3.04c0.439-0.111,0.473-0.094,0.591,0.31c0.144,0.488,0.286,0.977,0.429,1.464
			C58.162,36.951,58.187,36.949,58.212,36.948z"/>
		<path fill-rule="evenodd" clip-rule="evenodd" fill="#FECB10" d="M61.179,38.229c-0.163,0-0.291,0-0.439,0
			c0-1.025,0-2.045,0-3.129c0.369,0.032,0.742,0.049,1.108,0.104c0.099,0.015,0.251,0.145,0.256,0.229
			c0.026,0.413,0.017,0.829,0.008,1.244c-0.005,0.198-0.076,0.401-0.05,0.594c0.044,0.316,0.143,0.624,0.217,0.934
			c-0.344,0.117-0.545,0.038-0.6-0.33c-0.033-0.219-0.096-0.436-0.172-0.644c-0.026-0.072-0.132-0.116-0.201-0.174
			c-0.042,0.076-0.117,0.15-0.121,0.229C61.171,37.594,61.179,37.902,61.179,38.229z M61.201,36.667
			c0.211-0.101,0.456-0.144,0.484-0.246c0.061-0.222,0.051-0.486-0.018-0.705c-0.029-0.092-0.282-0.112-0.467-0.178
			C61.201,35.934,61.201,36.241,61.201,36.667z"/>
		<path fill-rule="evenodd" clip-rule="evenodd" fill="#FECB10" d="M56.65,36.681c0.001,0.289,0.009,0.579-0.001,0.868
			c-0.014,0.396-0.287,0.678-0.662,0.701c-0.434,0.027-0.797-0.202-0.82-0.604c-0.037-0.643-0.032-1.29,0-1.933
			c0.018-0.343,0.416-0.6,0.786-0.579c0.385,0.022,0.675,0.294,0.694,0.678C56.662,36.102,56.65,36.392,56.65,36.681z
			 M55.645,36.681L55.645,36.681c-0.001,0.266-0.027,0.535,0.011,0.795c0.017,0.115,0.163,0.211,0.25,0.316
			c0.087-0.097,0.243-0.189,0.248-0.29c0.024-0.541,0.024-1.084-0.002-1.625c-0.005-0.101-0.165-0.193-0.254-0.289
			c-0.084,0.099-0.227,0.189-0.241,0.297C55.621,36.146,55.645,36.415,55.645,36.681z"/>
		<path fill-rule="evenodd" clip-rule="evenodd" fill="#FECB10" d="M52.072,35.129c0,0.5,0.002,0.953-0.001,1.406
			c-0.002,0.333-0.009,0.667-0.019,1c-0.013,0.423-0.253,0.689-0.636,0.713c-0.453,0.027-0.773-0.183-0.796-0.615
			c-0.039-0.776-0.031-1.556-0.01-2.333c0.002-0.079,0.229-0.151,0.353-0.227c0.03,0.027,0.061,0.055,0.091,0.081
			c0,0.642,0,1.282,0,1.924c0,0.133-0.034,0.281,0.012,0.396c0.048,0.121,0.173,0.212,0.265,0.316
			c0.083-0.109,0.234-0.216,0.238-0.327c0.022-0.689,0.012-1.379,0.013-2.068c0-0.066,0.005-0.133,0.011-0.244
			C51.731,35.146,51.867,35.139,52.072,35.129z"/>
		<path fill-rule="evenodd" clip-rule="evenodd" fill="#FECB10" d="M46.717,35.177c-0.121,0.299-0.214,0.583-0.348,0.847
			c-0.229,0.453-0.225,0.886,0.002,1.338c0.134,0.265,0.226,0.551,0.337,0.83c-0.448,0.116-0.469,0.105-0.617-0.298
			c-0.058-0.156-0.116-0.312-0.176-0.467c-0.008-0.02-0.024-0.035-0.06-0.084c-0.071,0.188-0.138,0.354-0.199,0.523
			c-0.151,0.407-0.15,0.408-0.633,0.355c0.151-0.397,0.33-0.778,0.438-1.179c0.061-0.228,0.057-0.499-0.006-0.728
			c-0.104-0.382-0.278-0.744-0.423-1.115c0.407-0.135,0.48-0.101,0.618,0.278c0.057,0.156,0.115,0.312,0.175,0.467
			c0.007,0.02,0.025,0.035,0.054,0.074c0.067-0.178,0.153-0.338,0.187-0.508C46.137,35.154,46.339,35.061,46.717,35.177z"/>
		<path fill-rule="evenodd" clip-rule="evenodd" fill="#FECB0F" d="M50.24,36.181c-0.172,0-0.302,0-0.454,0
			c-0.014-0.127,0.002-0.259-0.046-0.358c-0.047-0.095-0.175-0.229-0.241-0.217c-0.099,0.021-0.246,0.151-0.25,0.239
			c-0.022,0.567-0.021,1.136,0,1.703c0.003,0.083,0.153,0.235,0.218,0.227c0.103-0.013,0.228-0.119,0.272-0.219
			c0.052-0.112,0.026-0.261,0.036-0.419c0.141,0,0.278,0,0.418,0c0.173,0.7-0.149,1.16-0.785,1.112
			c-0.365-0.028-0.637-0.265-0.652-0.634c-0.025-0.601-0.032-1.202-0.013-1.803c0.015-0.429,0.348-0.681,0.802-0.666
			c0.408,0.013,0.67,0.275,0.694,0.7C50.245,35.945,50.24,36.045,50.24,36.181z"/>
		<path fill-rule="evenodd" clip-rule="evenodd" fill="#FECC11" d="M59.574,36.441c0.188,0.009,0.353,0.018,0.554,0.028
			c0.008,0.135,0.016,0.262,0.025,0.429c-0.199,0.011-0.382,0.021-0.588,0.032c0,0.281,0,0.552,0,0.863c0.271,0,0.532,0,0.809,0
			c0,0.16,0,0.278,0,0.426c-0.418,0-0.842,0-1.284,0c0-1.017,0-2.023,0-3.058c0.422,0,0.839,0,1.277,0c0,0.13,0,0.256,0,0.409
			c-0.259,0-0.511,0-0.793,0C59.574,35.868,59.574,36.138,59.574,36.441z"/>
		<path fill-rule="evenodd" clip-rule="evenodd" fill="#FECC11" d="M47.595,35.575c0,0.325,0,0.589,0,0.871
			c0.192,0.01,0.366,0.02,0.563,0.03c0,0.143,0,0.269,0,0.427c-0.177,0.011-0.36,0.021-0.563,0.032c0,0.277,0,0.539,0,0.842
			c0.258,0,0.518,0,0.803,0c0,0.167,0,0.294,0,0.445c-0.408,0-0.824,0-1.266,0c0-1.012,0-2.026,0-3.062c0.424,0,0.84,0,1.273,0
			c0,0.142,0,0.259,0,0.414C48.137,35.575,47.875,35.575,47.595,35.575z"/>
		<path fill-rule="evenodd" clip-rule="evenodd" fill="#FECB10" d="M43.879,36.443c0.197,0.012,0.371,0.022,0.561,0.035
			c0,0.144,0,0.263,0,0.419c-0.18,0.011-0.362,0.022-0.567,0.036c0,0.282,0,0.553,0,0.865c0.273,0,0.535,0,0.808,0
			c0,0.161,0,0.281,0,0.426c-0.415,0-0.832,0-1.275,0c0-1.001,0-2.005,0-3.042c0.425,0,0.83,0,1.263,0c0,0.111,0,0.235,0,0.389
			c-0.255,0-0.507,0-0.788,0C43.879,35.868,43.879,36.139,43.879,36.443z"/>
		<path fill-rule="evenodd" clip-rule="evenodd" fill="#FECC11" d="M53.45,38.237c-0.189,0-0.311,0-0.468,0c0-0.87,0-1.732,0-2.621
			c-0.183-0.02-0.331-0.035-0.494-0.053c0-0.14,0-0.266,0-0.412c0.473,0,0.924,0,1.398,0c0,0.135,0,0.261,0,0.408
			c-0.131,0.012-0.26,0.022-0.437,0.038C53.45,36.463,53.45,37.334,53.45,38.237z"/>
		<path fill-rule="evenodd" clip-rule="evenodd" fill="#FECB0F" d="M54.311,38.221c0-1.012,0-2.017,0-3.044c0.129,0,0.244,0,0.383,0
			c0,1.006,0,2.012,0,3.044C54.576,38.221,54.453,38.221,54.311,38.221z"/>
	</g>
</g>
</svg>
