<?xml version="1.0" encoding="utf-8"?>
<!-- Generator: Adobe Illustrator 23.0.2, SVG Export Plug-In . SVG Version: 6.00 Build 0)  -->
<svg version="1.1" id="Layer_1" xmlns="http://www.w3.org/2000/svg" xmlns:xlink="http://www.w3.org/1999/xlink" x="0px" y="0px"
	 width="64px" height="64px" viewBox="0 0 64 64" enable-background="new 0 0 64 64" xml:space="preserve">
<g>
	<g>
		<path fill="#E70437" d="M62.79,33.296c-1.788,1.798-3.5,3.681-5.379,5.379c-5.477,4.95-13.561,5.997-20.361,2.756
			c-7.892-3.762-15.79-7.509-23.686-11.262c-1.782-0.381-1.781-0.381-1.869,1.443c-0.114,2.358,0.323,4.617,1.212,6.796
			c0.146,0.396,0.319,0.78,0.514,1.154c0.209,0.48,0.471,0.929,0.785,1.349c0.241,0.387,0.482,0.775,0.74,1.151
			c0.159,0.223,0.343,0.424,0.533,0.62c0.114,0.117,0.215,0.244,0.306,0.379c0.168,0.28,0.361,0.541,0.616,0.751
			c0.506,0.4,1.041,0.763,1.497,1.221c0.685,0.638,1.53,1.036,2.31,1.531c0.468,0.33,0.99,0.558,1.508,0.793
			c0.414,0.194,0.855,0.313,1.291,0.445c0.113,0.031,0.221,0.072,0.329,0.117c0.217,0.09,0.433,0.182,0.657,0.253
			c0.335,0.114,0.698,0.104,1.028,0.217c1.01,0.347,1.788,0.093,2.328-0.842c0.175-0.157,0.512-0.019,0.603-0.331
			c-1.464-2.17-2.928-4.34-4.391-6.51c-0.148-0.41,0.172-0.362,0.397-0.408c0.426,0.074,0.786,0.309,1.172,0.482
			c0.356,0.193,0.722,0.369,1.088,0.543c0.397,0.226,0.826,0.379,1.256,0.527c0.366,0.163,0.724,0.343,1.084,0.517
			c0.349,0.19,0.708,0.362,1.066,0.536c0.35,0.189,0.709,0.359,1.068,0.532c0.353,0.189,0.716,0.358,1.078,0.53
			c0.549,0.325,1.178,0.465,1.746,0.746c0.207,0.101,0.41,0.207,0.616,0.311c0.499,0.276,1.014,0.517,1.527,0.765
			c0.345,0.188,0.699,0.36,1.053,0.533c0.34,0.186,0.69,0.354,1.039,0.523c0.198,0.098,0.395,0.198,0.592,0.297
			c0.341,0.183,0.693,0.346,1.042,0.514c0.346,0.184,0.697,0.355,1.058,0.507c0.414,0.182,0.852,0.305,1.255,0.513
			c0.344,0.187,0.696,0.36,1.048,0.531c0.199,0.098,0.397,0.2,0.595,0.301c0.343,0.185,0.697,0.348,1.047,0.518
			c0.351,0.187,0.708,0.359,1.075,0.513c0.384,0.16,0.774,0.307,1.14,0.508c0.456,0.239,0.96,0.381,1.379,0.691
			c0.656,0.485,0.149,0.642-0.238,0.832c-5.826,1.722-11.431,4.253-17.563,4.849C17.004,58.678,4.602,48.824,2.81,35.88
			c-0.671-4.848-0.169-9.535,1.806-14.027c0.318-0.724,0.316-1.267-0.147-1.925c-1.028-1.463-1.978-2.981-2.96-4.477
			c0.681-0.507,1.199,0.062,1.76,0.28c0.476,0.185,0.879,0.522,1.355,0.715c0.28,0.119,0.556,0.248,0.829,0.383
			c0.363,0.194,0.735,0.372,1.107,0.548c0.67,0.35,1.332,0.72,2.055,0.958c0.275,0.101,0.542,0.22,0.805,0.349
			c0.361,0.191,0.73,0.365,1.099,0.54c0.672,0.364,1.361,0.692,2.05,1.022c0.51,0.281,1.024,0.554,1.584,0.727
			c0.275,0.099,0.542,0.218,0.805,0.346c0.507,0.276,1.029,0.525,1.55,0.775c0.352,0.191,0.712,0.366,1.073,0.539
			c0.351,0.191,0.717,0.349,1.1,0.469c0.436,0.167,0.851,0.377,1.271,0.577c0.507,0.281,1.03,0.53,1.553,0.78
			c0.353,0.192,0.714,0.368,1.076,0.542c0.353,0.187,0.71,0.365,1.079,0.519c0.421,0.183,0.865,0.312,1.276,0.521
			c0.5,0.276,1.015,0.522,1.528,0.772c0.204,0.103,0.406,0.208,0.611,0.308c0.21,0.098,0.419,0.199,0.628,0.299
			c1.236,0.59,2.411,1.306,3.712,1.756c0.218,0.087,0.429,0.19,0.638,0.296c0.497,0.273,1,0.535,1.541,0.715
			c0.316,0.122,0.588,0.324,0.881,0.488c0.1,0.049,0.195,0.105,0.291,0.16c0.334,0.204,0.7,0.332,1.069,0.455
			c0.273,0.113,0.532,0.242,0.609,0.565c0.305,0.25,0.619,0.482,1.044,0.459c0.362,0.187,0.807,0.082,1.154,0.323
			c0.397,0.22,0.821,0.38,1.252,0.521c0.213,0.083,0.421,0.178,0.635,0.26c0.329,0.129,0.68,0.171,1.019,0.261
			c0.353,0.111,0.721,0.157,1.079,0.247c0.564,0.181,1.146,0.113,1.723,0.124c0.266-0.004,0.532-0.008,0.798-0.001
			c0.201-0.004,0.402-0.003,0.603-0.001c0.396-0.005,0.793,0.002,1.189,0c0.507,0.015,0.998-0.102,1.491-0.198
			c1.515-0.308,1.586-0.411,1.252-1.824c-0.049-0.431-0.367-0.684-0.644-0.96c-3.352-3.343-6.688-6.704-10.065-10.023
			c-3.268-3.212-7.216-4.706-11.8-4.493c-0.432,0.02-0.878,0.006-1.352,0.317c1.343,2.079,2.683,4.153,4.023,6.227
			c-0.058,0.073-0.117,0.145-0.175,0.218c-5.981-2.873-11.962-5.746-17.943-8.619c-0.349-0.593,0.132-0.858,0.475-1.158
			c0.356-0.312,0.746-0.584,1.135-0.853c0.376-0.28,0.755-0.56,1.148-0.817c0.278-0.191,0.57-0.361,0.845-0.556
			c0.273-0.193,0.562-0.36,0.857-0.517c0.346-0.171,0.695-0.336,1.034-0.519c0.345-0.167,0.692-0.33,1.029-0.512
			c0.195-0.101,0.393-0.195,0.596-0.277c0.257-0.095,0.522-0.169,0.772-0.287c0.207-0.1,0.414-0.199,0.627-0.285
			c0.287-0.108,0.575-0.209,0.868-0.302c0.759-0.233,1.551-0.316,2.314-0.532c0.565-0.099,1.144-0.12,1.694-0.304
			c1.782-0.136,3.566-0.042,5.348-0.064c0.732-0.018,1.415,0.309,2.145,0.303c0.137,0.013,0.272,0.042,0.404,0.077
			c0.627,0.201,1.271,0.34,1.911,0.497c0.596,0.113,1.082,0.44,1.555,0.793c0.209,0.196,0.457,0.293,0.744,0.292
			c0.754,0.204,1.498,0.435,2.18,0.827c0.512,0.292,1.052,0.53,1.57,0.812c0.379,0.266,0.765,0.522,1.136,0.801
			c0.339,0.312,0.742,0.542,1.098,0.833c0.37,0.37,0.802,0.665,1.217,0.979c0.217,0.187,0.414,0.395,0.618,0.596
			c0.275,0.284,0.557,0.561,0.845,0.833c0.403,0.406,0.809,0.808,1.213,1.211c0.269,0.283,0.542,0.564,0.822,0.837
			c0.267,0.276,0.538,0.548,0.815,0.814c0.345,0.354,0.695,0.702,1.05,1.045c0.349,0.359,0.703,0.712,1.065,1.059
			c0.436,0.448,0.88,0.889,1.332,1.322c0.407,0.416,0.822,0.826,1.233,1.238c0.203,0.207,0.405,0.416,0.614,0.618
			c0.325,0.329,0.653,0.655,0.982,0.98c0.279,0.292,0.563,0.578,0.855,0.857c0.327,0.331,0.656,0.659,0.987,0.986
			c0.279,0.292,0.563,0.579,0.856,0.857c0.325,0.329,0.653,0.656,0.982,0.982c0.276,0.289,0.556,0.574,0.845,0.851
			c0.241,0.242,0.48,0.485,0.721,0.726c0.198,0.202,0.394,0.406,0.598,0.602c0.208,0.203,0.419,0.403,0.632,0.602
			c0.369,0.362,0.756,0.709,1.085,1.107C62.883,32.418,63.221,32.798,62.79,33.296z"/>
		<path fill="#FCEBEF" d="M12.479,38.639c-1.273-2.726-1.541-5.595-1.288-8.559c0.075-0.884,0.384-0.935,1.037-0.543
			c0.372,0.223,0.757,0.422,1.137,0.632c-0.619,0.085-0.573,0.551-0.569,0.993c0.012,1.523-0.105,3.053,0.264,4.554
			c-0.256,0.56,0.125,1.091,0.078,1.634C13.095,37.851,13.342,38.542,12.479,38.639z"/>
		<path fill="#E91E4B" d="M4.637,16.761c-1.102-0.295-1.906-1.303-3.128-1.31C1.057,14.773,0.605,14.096,0,13.19
			c1.657,0.371,2.822,1.215,4.108,1.764C4.446,15.509,4.727,16.08,4.637,16.761z"/>
		<path fill="#EA2350" d="M13.578,12.811c-0.512,0.731-1.651,0.847-1.852,1.884c-0.238-0.076-0.474-0.159-0.714-0.228
			c-1.079-0.31-1.038-0.795-0.224-1.407c0.576-0.434,1.15-0.871,1.724-1.307C13.457,11.512,13.364,12.316,13.578,12.811z"/>
		<path fill="#EA2450" d="M47.542,52.567c-0.014-0.213,0.67-0.356,0.053-0.635c-0.465-0.21-0.913-0.457-1.368-0.687
			c0.236-0.433,0.065-1.248,0.98-1.045c1.059,0.374,2.105,0.776,3.186,1.43C49.428,52.135,48.508,52.416,47.542,52.567z"/>
		<path fill="#F38AA2" d="M19.896,46.778c-0.867-0.418-1.725-0.85-2.396-1.568c0.255-0.445,0.109-1.29,1.05-1.048
			c0.779,0.528,1.557,1.055,2.336,1.583C20.645,46.175,20.883,47.062,19.896,46.778z"/>
		<path fill="#EA234F" d="M62.79,33.296c0.072-1.175-1.187-1.446-1.571-2.311c0.139-0.441,0.118-1.001,0.781-1.054
			c0.214,0.216,0.405,0.464,0.646,0.644C64.425,31.896,64.428,31.892,62.79,33.296z"/>
		<path fill="#FDEEF2" d="M39.366,10.716c-0.824-0.117-1.438-0.665-2.137-1.04c0.173-0.025,0.456,0.007,0.503-0.084
			c0.955-1.843,1.816-0.343,2.704,0.063C40.215,10.145,40.311,10.955,39.366,10.716z"/>
		<path fill="#F9C2CE" d="M31.437,29.498c-1.312-0.625-2.625-1.251-3.937-1.876c-0.096-0.512,0.216-0.935,0.305-1.406
			c0.612,0.273,1.223,0.546,1.835,0.818c0.159,0.549,0.142,1.21,0.88,1.394c0.367,0.222,0.809,0.339,1.047,0.743
			C31.584,29.304,31.54,29.413,31.437,29.498z"/>
		<path fill="#EC365F" d="M8.585,18.602c-0.779-0.195-1.485-0.536-2.106-1.048c-0.371-0.504-0.545-1.037-0.251-1.643
			c0.5,0.071,0.905,0.344,1.309,0.618C8.465,16.927,8.93,17.56,8.585,18.602z"/>
		<path fill="#F9CED7" d="M14.625,42.304c-0.288-0.425-0.575-0.85-0.863-1.276c0.009-0.564-0.366-1.092-0.167-1.672
			c0.15-0.436,0.338-0.785,0.776-0.219c0.335,0.626,0.915,1.108,1.073,1.837C15.033,41.333,15.489,42.225,14.625,42.304z"/>
		<path fill="#EC3F65" d="M48.59,34.132c-0.528,0.084-1.023,0.376-1.585,0.25c-0.302-0.35-0.326-0.743-0.177-1.162
			c0.097-0.201,0.286-0.285,0.474-0.368c0.694-0.179,1.389-0.359,2.083-0.538C49.391,33.038,49.23,33.69,48.59,34.132z"/>
		<path fill="#EE5375" d="M12.532,20.455c-0.774-0.206-1.479-0.552-2.113-1.043c-0.36-0.505-0.53-1.039-0.248-1.641
			c0.582,0.151,1.113,0.407,1.587,0.778C12.269,19.082,12.641,19.671,12.532,20.455z"/>
		<path fill="#F06685" d="M14.885,21.535c-0.258-0.102-0.516-0.204-0.774-0.307c-1-0.459-1.375-1.34-1.576-2.338
			c0.764,0.211,1.47,0.544,2.107,1.019C15.23,20.375,15.891,20.831,14.885,21.535z"/>
		<path fill="#F27D97" d="M51.971,21.796c-0.441-0.438-0.881-0.875-1.322-1.313c0.058-0.556,0.068-1.148,0.877-1.11
			c0.516,0.362,0.967,0.789,1.321,1.315C52.805,21.254,52.778,21.833,51.971,21.796z"/>
		<path fill="#F6A6B8" d="M24.869,26.347c-0.427-0.213-0.853-0.426-1.28-0.639c-0.476-0.539-0.649-1.205-0.783-1.886
			c0.885,0.158,1.654,0.564,2.36,1.105C25.498,25.491,25.311,25.946,24.869,26.347z"/>
		<path fill="#F3879F" d="M19.884,23.929c-0.433-0.199-0.866-0.398-1.299-0.597c-0.633-0.546-0.845-1.306-1.048-2.07
			c0.774,0.192,1.471,0.542,2.104,1.025C20.273,22.753,20.39,23.295,19.884,23.929z"/>
		<path fill="#F6A6B8" d="M18.549,44.162c-0.723-0.024-0.28,1.12-1.05,1.048c-0.55-0.39-1.103-0.776-1.488-1.347
			c0.508-0.125,0.458-1.157,1.273-0.784C17.706,43.44,18.128,43.801,18.549,44.162z"/>
		<path fill="#F59CB0" d="M33.257,44.976c-0.624-0.212-1.272-0.372-1.778-0.835c0.169-0.994,0.667-1.331,1.599-0.799
			c0.406,0.065,0.768,0.22,1.054,0.526C33.949,44.324,34.029,44.986,33.257,44.976z"/>
		<path fill="#F06181" d="M19.896,46.778c0.75,0.058,0.297-1.036,0.989-1.033c0.453,0.515,1.194,0.363,1.709,0.734
			c-0.302,0.432-0.11,1.372-1.113,1.083C20.888,47.43,20.333,47.223,19.896,46.778z"/>
		<path fill="#F6A5B7" d="M47.303,32.852c-0.095,0.079-0.19,0.157-0.285,0.236c-0.274,0.249-0.607,0.326-0.964,0.335
			c-0.269,0.008-0.538,0.004-0.807,0.002c-0.192,0.004-0.384,0.002-0.575-0.003c-0.238,0-0.478-0.009-0.715,0.004
			c-0.596-0.061-0.567,0.607-0.939,0.809c-0.18,0.035-0.353,0.031-0.511-0.075c-0.38-0.004-0.761-0.005-1.085-0.251
			c0.288-0.601,0.331-1.515,1.411-1.102C44.324,32.82,45.813,32.836,47.303,32.852z"/>
		<path fill="#FBDBE3" d="M39.366,10.716c0.759,0.052,0.32-1.104,1.07-1.061c0.437,0.266,0.972,0.369,1.315,0.791
			c-0.017,0.594-0.023,1.197-0.892,1.101C40.277,11.421,39.846,11.025,39.366,10.716z"/>
		<path fill="#F8C1CD" d="M44.301,14.179c-0.443-0.336-0.979-0.564-1.264-1.084c0.037-0.548,0.054-1.113,0.838-1.084
			c0.507,0.267,1.033,0.512,1.309,1.063C44.934,13.477,45.093,14.208,44.301,14.179z"/>
		<path fill="#F9C8D3" d="M32.8,8.347c-0.7-0.095-1.401-0.19-2.101-0.284c-0.241-0.225-0.584-0.036-0.838-0.207
			c-0.073-0.451-0.281-0.882-0.218-1.355c0.617,0.072,1.282-0.206,1.847,0.252c0.328,0.251,0.271,0.791,0.718,0.951
			c0.222,0.087,0.452,0.156,0.632,0.324C32.905,8.143,32.892,8.25,32.8,8.347z"/>
		<path fill="#F388A0" d="M51.526,19.372c-0.584,0.139-0.44,0.854-0.877,1.11c-0.351-0.351-0.702-0.702-1.053-1.053
			c0.086-0.512-0.306-1.236,0.613-1.376C50.72,18.421,51.171,18.849,51.526,19.372z"/>
		<path fill="#F1728E" d="M51.971,21.796c0.584-0.138,0.454-0.842,0.875-1.109c0.421,0.281,0.784,0.62,1.054,1.052
			c-0.07,0.516,0.319,1.235-0.607,1.372C52.782,22.744,52.334,22.312,51.971,21.796z"/>
		<path fill="#F48FA6" d="M19.884,23.929c0.035-0.564,0.074-1.129-0.243-1.642c0.597,0.117,1.119,0.39,1.587,0.772
			c0.359,0.508,0.532,1.044,0.249,1.649C20.893,24.556,20.36,24.3,19.884,23.929z"/>
		<path fill="#F6AABB" d="M46.961,16.798c-0.515-0.369-0.969-0.799-1.328-1.324c0.228-0.42,0.184-1.056,0.881-1.1
			c0.427,0.276,0.784,0.623,1.059,1.052C47.517,15.949,47.902,16.669,46.961,16.798z"/>
		<path fill="#EF5E7F" d="M40.187,48.344c-0.414-0.054-0.789-0.189-1.067-0.52c0.203-0.506,0.129-1.29,1.065-1.058
			c0.597,0.138,1.131,0.408,1.62,0.772C41.35,47.975,40.993,48.61,40.187,48.344z"/>
		<path fill="#ED466B" d="M23.588,48.353c-0.181-0.084-0.362-0.167-0.543-0.251c-0.128-1.098,0.369-1.405,1.366-1.08
			c0.451,0.007,0.903,0.007,1.311,0.241c-0.026,0.06-0.053,0.121-0.078,0.182C25.176,48.238,24.608,48.81,23.588,48.353z"/>
		<path fill="#F7ADBE" d="M24.869,26.347c0.099-0.473,0.198-0.946,0.297-1.42c0.415,0.041,0.775,0.196,1.058,0.511
			c0.656,0.46,0.534,1.038,0.249,1.641C25.884,26.955,25.369,26.667,24.869,26.347z"/>
		<path fill="#FBDBE2" d="M14.371,39.138c-0.566-0.246-0.455,0.158-0.54,0.492c-0.12,0.473,0.544,0.971-0.07,1.399
			c-0.472-0.316-0.556-0.862-0.782-1.323c0.21-0.715-0.386-1.657,0.609-2.15C13.849,38.083,14.11,38.611,14.371,39.138z"/>
		<path fill="#FBDDE4" d="M33.593,30.421c-0.661,0.064-1.11-0.381-1.62-0.677c-0.183-0.531-0.099-1.003,0.305-1.407
			c0.414,0.051,0.781,0.195,1.053,0.528C33.93,29.298,34.073,29.807,33.593,30.421z"/>
		<path fill="#FDF0F3" d="M36.486,9.384c-0.527-0.177-1.053-0.353-1.58-0.53c-0.577-0.44-0.39-1.009-0.262-1.567
			C36.072,7.271,36.226,8.374,36.486,9.384z"/>
		<path fill="#EF5B7C" d="M12.535,18.891c0.8,0.595,0.791,1.734,1.576,2.338c-0.596-0.116-1.126-0.366-1.579-0.774
			c-0.499-0.537-0.531-1.264-0.774-1.905C12.018,18.663,12.276,18.777,12.535,18.891z"/>
		<path fill="#F16D8B" d="M14.885,21.535c0.497-0.628,0.108-1.124-0.243-1.626c0.598,0.115,1.11,0.409,1.59,0.767
			c0.35,0.509,0.518,1.045,0.245,1.646C15.888,22.178,15.351,21.929,14.885,21.535z"/>
		<path fill="#FCE6EB" d="M23.839,40.459c-0.19,0.025-0.406-0.003-0.48,0.247c-0.244-0.085-0.298-0.285-0.309-0.511
			c-0.314-1.361-0.298-1.387,0.803-1.321c0.351,0.176,0.702,0.351,1.052,0.527C24.683,39.888,24.782,40.698,23.839,40.459z"/>
		<path fill="#FAD0D9" d="M39.816,33.384c-0.471-0.065-0.915-0.192-1.262-0.544c0.464-0.332,0.39-1.351,1.346-1.053
			c0.242,0.409,0.829,0.084,1.066,0.502C41.084,33.18,40.822,33.673,39.816,33.384z"/>
		<path fill="#E91746" d="M48.59,34.132c0.323-0.581,0.259-1.331,0.796-1.818c0.098-0.095,0.197-0.191,0.295-0.286
			c0.741,0.174,0.665,0.89,0.534,1.256C49.98,33.94,49.29,34.142,48.59,34.132z"/>
		<path fill="#FCE2E7" d="M13.589,37.556c-0.657,0.588,0.159,1.593-0.609,2.15c-0.167-0.356-0.334-0.711-0.501-1.067
			c0.541-0.439,0.239-1.047,0.316-1.578c0.066-0.453-0.165-0.963,0.264-1.345C13.236,36.329,13.412,36.942,13.589,37.556z"/>
		<path fill="#F492A8" d="M50.209,18.053c-0.543,0.308-0.048,1.078-0.613,1.376c-0.352-0.351-0.704-0.701-1.057-1.052
			c0.091-0.506-0.298-1.226,0.608-1.37C49.578,17.277,49.934,17.625,50.209,18.053z"/>
		<path fill="#FBDEE5" d="M23.839,40.459c0.762,0.057,0.312-1.107,1.066-1.058c0.351,0.175,0.703,0.35,1.054,0.526
			c0.035,0.749,0.028,1.456-1.071,1.061C24.417,41.05,24.151,40.708,23.839,40.459z"/>
		<path fill="#FAD2DB" d="M24.888,40.987c0.892,0.187,0.688-0.733,1.071-1.061c0.508,0.306,1.183,0.274,1.591,0.784
			c-0.373,0.597-0.747,1.191-1.61,0.804C25.472,41.571,25.218,41.202,24.888,40.987z"/>
		<path fill="#F6A8BA" d="M33.078,43.343c-0.884-0.437-1.027,0.61-1.599,0.799c-0.407-0.075-0.786-0.209-1.084-0.513
			c0.236-0.482,0.132-1.309,1.083-1.066C32.078,42.686,32.615,42.939,33.078,43.343z"/>
		<path fill="#F389A1" d="M35.389,46.003c-0.603-0.122-1.127-0.408-1.615-0.77c0.392-0.42,0.626-1.107,1.423-0.843
			c0.411,0.063,0.784,0.208,1.08,0.512C35.97,45.26,36.434,46.24,35.389,46.003z"/>
		<path fill="#F48FA5" d="M23.004,6.995c0.406-0.324,0.892-0.214,1.351-0.25c0.423-0.202,0.863-0.105,1.299-0.071
			c0.388,0.407,0.283,0.778-0.079,1.131c-0.28,0.199-0.683,0.069-0.933,0.348c-0.248,0.065-0.499,0.064-0.749,0.015
			C23.761,7.654,23.411,7.303,23.004,6.995z"/>
		<path fill="#EE5275" d="M56.728,26.526c-0.428-0.275-0.784-0.623-1.061-1.051c0.047-0.561-0.152-1.317,0.873-1.101
			c0.313,0.209,0.645,0.401,0.72,0.819C57.105,25.647,57.646,26.378,56.728,26.526z"/>
		<path fill="#FAD6DE" d="M40.859,11.546c0.605-0.118,0.517-0.797,0.892-1.101c0.391,0.21,0.852,0.324,1.068,0.775
			c-0.006,0.583,0.166,1.305-0.856,1.09C41.596,12.056,41.227,11.801,40.859,11.546z"/>
		<path fill="#FCE5EA" d="M34.644,7.288c0.467,0.459-0.019,1.077,0.262,1.567c-0.63-0.141-1.259-0.281-1.889-0.422
			c-0.082-0.58,0.486-0.895,0.574-1.406C33.974,6.983,34.316,7.109,34.644,7.288z"/>
		<path fill="#F3819A" d="M23.861,8.068c0.26-0.005,0.521-0.01,0.781-0.015c0.116-0.088,0.218-0.079,0.304,0.043
			c-0.49,0.332-1.054,0.204-1.589,0.259c-1.051,0.389-1.795-0.123-2.468-0.842c0.484-0.411,1.068-0.165,1.602-0.245
			C23.317,6.9,23.595,7.474,23.861,8.068z"/>
		<path fill="#F7B3C2" d="M46.514,14.373c-0.455,0.238-0.104,1.121-0.881,1.1c-0.262-0.26-0.523-0.521-0.785-0.781
			c0.179-0.459-0.287-1.201,0.592-1.354C45.896,13.581,46.237,13.945,46.514,14.373z"/>
		<path fill="#FDF3F5" d="M39.9,31.787c-0.717,0.007-0.399,1.34-1.346,1.053c-0.409-0.066-0.769-0.233-1.066-0.525
			c0.227-0.103,0.596-0.153,0.657-0.317C38.613,30.747,39.268,31.429,39.9,31.787z"/>
		<path fill="#F1718E" d="M20.888,7.513c0.987-0.2,1.416,1.233,2.468,0.842c-0.756,0.316-1.55,0.468-2.363,0.541
			c-0.682-0.067-0.475-0.852-0.905-1.122C20.308,7.545,20.597,7.524,20.888,7.513z"/>
		<path fill="#ED4268" d="M58.58,28.362c-0.434-0.269-0.788-0.618-1.062-1.05c0.065-0.508-0.205-1.264,0.799-1.071
			c0.255,0.287,0.731,0.327,0.849,0.765C59.096,27.512,59.468,28.21,58.58,28.362z"/>
		<path fill="#EB315B" d="M60.164,29.933c-0.347-0.178-0.609-0.441-0.793-0.785c0.024-0.5-0.254-1.119,0.522-1.322
			c0.247,0.478,0.937,0.471,1.118,1.022C60.88,29.328,61.208,30.166,60.164,29.933z"/>
		<path fill="#EB2C57" d="M13.578,12.811c-0.748,0.043-0.299-1.12-1.066-1.058c0.251-0.18,0.503-0.36,0.754-0.54
			c0.993-0.636,1.177,0.092,1.368,0.81C14.282,12.286,13.93,12.548,13.578,12.811z"/>
		<path fill="#F8B8C7" d="M29.334,43.106c-0.409-0.057-0.761-0.23-1.057-0.516c0.09-0.517,0.104-1.094,0.854-1.096
			c0.41,0.058,0.777,0.206,1.066,0.516C30.188,42.594,30.333,43.3,29.334,43.106z"/>
		<path fill="#ED4268" d="M8.585,18.602c-0.332-0.7-0.228-1.62-1.048-2.073c0.585,0.124,1.107,0.381,1.578,0.748
			c0.607,0.458,0.745,0.989,0.251,1.618C9.105,18.797,8.845,18.7,8.585,18.602z"/>
		<path fill="#F06282" d="M54.877,24.688c-0.354-0.35-0.708-0.701-1.063-1.051c0.054-0.526,0.049-1.095,0.818-1.077
			c0.252,0.287,0.717,0.338,0.844,0.763C55.412,23.837,55.792,24.547,54.877,24.688z"/>
		<path fill="#F9CBD5" d="M41.964,12.31c0.764,0.013,0.409-0.853,0.856-1.09c0.507,0.056,0.806,0.389,1.055,0.79
			c-0.563,0.142-0.425,0.825-0.837,1.084C42.679,12.833,42.321,12.572,41.964,12.31z"/>
		<path fill="#EB2954" d="M4.637,16.761c-0.47-0.516-0.6-1.132-0.529-1.807c0.498-0.152,0.606,0.536,1.054,0.489
			c0.618,0.442,0.735,0.967,0.262,1.589C5.161,16.941,4.899,16.851,4.637,16.761z"/>
		<path fill="#F9C9D4" d="M25.939,41.514c0.78,0.22,0.902-0.88,1.61-0.804c0.413,0.055,0.781,0.202,1.065,0.52
			c-0.366,0.481-0.66,1.087-1.448,0.844C26.647,42.13,26.305,41.795,25.939,41.514z"/>
		<path fill="#F06987" d="M40.185,46.765c-0.761-0.056-0.314,1.104-1.065,1.058c-0.41-0.062-0.777-0.214-1.069-0.52
			c0.165-0.465,0.344-0.92,0.838-1.143C39.369,46.26,39.82,46.422,40.185,46.765z"/>
		<path fill="#F7AEBE" d="M29.334,43.106c0.765,0.01,0.402-0.867,0.862-1.097c0.448,0.136,0.925,0.205,1.282,0.553
			c-0.747-0.037-0.305,1.134-1.083,1.066C29.989,43.561,29.636,43.386,29.334,43.106z"/>
		<path fill="#EB2E58" d="M47.207,50.2c-0.69,0.008-0.223,1.1-0.98,1.045c-0.352-0.175-0.704-0.35-1.056-0.525
			c0.176-0.49-0.188-1.484,0.979-1.049C46.38,50.094,47.007,49.72,47.207,50.2z"/>
		<path fill="#F59DB0" d="M22.806,23.822c0.761,0.421,0.736,1.169,0.783,1.886c-0.406-0.053-0.763-0.211-1.06-0.497
			c-0.587-0.472-0.757-1.006-0.245-1.642C22.458,23.654,22.632,23.738,22.806,23.822z"/>
		<path fill="#F596AB" d="M22.284,23.57c-0.033,0.565-0.046,1.126,0.245,1.642c-0.401-0.063-0.754-0.229-1.053-0.504
			c-0.276-0.52-0.283-1.081-0.249-1.648C21.632,23.121,21.99,23.28,22.284,23.57z"/>
		<path fill="#ED496E" d="M9.365,18.895c0.025-0.556,0.051-1.112-0.251-1.618c0.404,0.055,0.752,0.229,1.058,0.494
			c0.275,0.518,0.282,1.076,0.248,1.64C10.01,19.357,9.65,19.203,9.365,18.895z"/>
		<path fill="#F17591" d="M16.477,22.323c-0.29-0.518-0.283-1.08-0.245-1.646c0.405,0.064,0.756,0.238,1.057,0.515
			c0.231,0.525,0.537,1.039,0.243,1.642C17.128,22.773,16.769,22.617,16.477,22.323z"/>
		<path fill="#EC3760" d="M46.15,49.672c-0.4,0.006-0.776,0.01-0.561,0.611c0.124,0.347-0.167,0.396-0.418,0.438
			c-0.415-0.05-0.783-0.193-1.06-0.523c0.181-1.315,0.181-1.315,1.577-0.79C45.886,49.419,46.08,49.437,46.15,49.672z"/>
		<path fill="#ED446A" d="M17.267,10.444c-0.265,0.338-0.633,0.477-1.042,0.532c-1.007,0.2-0.8-0.556-0.864-1.097
			c0.277-0.166,0.554-0.331,0.83-0.497C17.124,9.154,17.074,9.921,17.267,10.444z"/>
		<path fill="#EF5C7D" d="M54.877,24.688c0.547-0.303,0.049-1.065,0.6-1.365c0.432,0.273,0.796,0.614,1.064,1.053
			c-0.77-0.014-0.403,0.876-0.873,1.101C55.404,25.213,55.14,24.95,54.877,24.688z"/>
		<path fill="#F17591" d="M37.528,47.043c-0.407-0.067-0.774-0.218-1.071-0.513c-0.006-0.615-0.098-1.299,0.894-1.11
			c0.403,0.07,0.757,0.239,1.055,0.522C38.176,46.359,38.235,47.006,37.528,47.043z"/>
		<path fill="#EB305A" d="M5.424,17.032c0.011-0.546,0.05-1.096-0.262-1.589c0.436-0.028,0.757,0.205,1.065,0.469
			c0.258,0.521,0.278,1.078,0.251,1.643C6.062,17.511,5.697,17.363,5.424,17.032z"/>
		<path fill="#EE4F72" d="M17.267,10.444c-0.749,0.041-0.306-1.124-1.076-1.063c0.53-0.188,1.06-0.377,1.59-0.565
			c0.365,0.281,0.408,0.724,0.561,1.112C18.054,10.245,17.681,10.388,17.267,10.444z"/>
		<path fill="#FCEBEF" d="M34.64,30.992c-0.086-0.017-0.172-0.033-0.257-0.05c-0.354-0.589-0.446-1.133,0.261-1.543
			c0.351,0.175,0.702,0.35,1.054,0.525c0.301,0.355,0.308,0.715,0.02,1.081C35.355,31.313,34.999,31.017,34.64,30.992z"/>
		<path fill="#FDF3F5" d="M35.433,30.977c0.386-0.276,0.226-0.689,0.264-1.053c1.079,0.323,1.491,0.904,0.747,1.932
			c-0.251-0.135-0.501-0.27-0.752-0.405C35.502,31.35,35.282,31.265,35.433,30.977z"/>
		<path fill="#ED4A6E" d="M58.317,26.241c-0.733,0.009-0.323,0.87-0.799,1.071c-0.263-0.262-0.526-0.524-0.79-0.786
			c0.529-0.303,0.06-1.006,0.533-1.332C57.627,25.529,58.201,25.655,58.317,26.241z"/>
		<path fill="#F27F99" d="M37.351,45.42c-0.775-0.014-0.436,0.869-0.894,1.11c-0.406-0.074-0.772-0.23-1.067-0.527
			c0.773,0.018-0.031-1.236,0.888-1.101C36.682,44.977,37.046,45.137,37.351,45.42z"/>
		<path fill="#EF5779" d="M40.187,48.344c0.692,0.039,0.843-1.009,1.617-0.807c0.198,0.024,0.403,0.039,0.438,0.301
			c-0.109,0.464,0.296,1.31-0.782,1.055C41.006,48.779,40.538,48.697,40.187,48.344z"/>
		<path fill="#ED4067" d="M45.688,49.408c-0.913-0.132-0.913-0.132-1.577,0.79c-0.415-0.051-0.781-0.201-1.063-0.522
			c0.243-0.369,0.112-1.019,0.795-1.056C44.449,48.904,45.2,48.85,45.688,49.408z"/>
		<path fill="#F5A1B3" d="M46.961,16.798c0.568-0.295,0.073-1.064,0.611-1.372c0.263,0.264,0.525,0.528,0.788,0.792
			c-0.053,0.523,0.331,1.241-0.609,1.369C47.487,17.324,47.224,17.061,46.961,16.798z"/>
		<path fill="#F8BDCA" d="M15.347,43.114c-0.082-0.085-0.165-0.17-0.247-0.255c0.256-0.514-0.354-1.341,0.582-1.608
			c0.272,0.344,0.543,0.688,0.815,1.032c0.033,0.473,0.159,1.031-0.317,1.305C15.809,43.802,15.65,43.244,15.347,43.114z"/>
		<path fill="#EC345D" d="M14.634,12.023c-0.619,0.005-0.473-1.282-1.368-0.81c0.293-0.36,0.666-0.607,1.095-0.773
			c0.945-0.242,0.84,0.573,1.063,1.057C15.161,11.672,14.898,11.848,14.634,12.023z"/>
		<path fill="#EC3A62" d="M59.893,27.827c-0.472,0.323-0.004,1.017-0.521,1.322c-0.34-0.186-0.607-0.444-0.791-0.786
			c0.524-0.309,0.031-1.059,0.586-1.355C59.484,27.213,59.821,27.402,59.893,27.827z"/>
		<path fill="#FDF1F4" d="M23.852,38.874c-1.086-0.057-0.708,0.776-0.803,1.321c-0.368-0.589-0.739-1.175-1.098-1.769
			c-0.033-0.054,0.013-0.156,0.032-0.325C22.659,38.263,23.341,38.335,23.852,38.874z"/>
		<path fill="#F59AAE" d="M47.751,17.587c0.568-0.294,0.073-1.061,0.609-1.369c0.335,0.19,0.603,0.448,0.787,0.789
			c-0.532,0.31-0.039,1.076-0.608,1.37C48.276,18.114,48.014,17.85,47.751,17.587z"/>
		<path fill="#EE4C70" d="M41.461,48.893c0.739,0.003,0.393-0.798,0.782-1.055c0.281,0.403,0.874,0.051,1.146,0.474
			c-0.178,0.456,0.195,1.347-0.87,1.104C42.107,49.362,41.746,49.203,41.461,48.893z"/>
		<path fill="#F27B95" d="M17.533,22.834c-0.305-0.514-0.282-1.077-0.243-1.642c0.09-0.004,0.173,0.02,0.248,0.071
			c0.807,0.459,0.729,1.365,1.048,2.07C18.176,23.29,17.818,23.14,17.533,22.834z"/>
		<path fill="#F9CCD6" d="M30.432,28.609c-1.02-0.145-1.301-0.661-0.792-1.575c0.418,0.039,0.781,0.19,1.056,0.52
			C30.998,28.004,30.794,28.326,30.432,28.609z"/>
		<path fill="#F492A8" d="M35.197,44.389c-0.613,0.047-0.664,1.043-1.423,0.843c-0.172-0.085-0.345-0.171-0.517-0.256
			c0.516-0.192,0.115-1.108,0.875-1.107C34.545,43.924,34.908,44.082,35.197,44.389z"/>
		<path fill="#EC3E65" d="M15.424,11.496c-0.75,0.045-0.301-1.115-1.063-1.057c0.29-0.264,0.604-0.485,1-0.562
			c0.515,0.187,0.11,1.098,0.863,1.097C15.958,11.149,15.691,11.323,15.424,11.496z"/>
		<path fill="#F7B1C1" d="M27.011,6.493c0.438,0.001,0.877,0.002,1.315,0.003c0.68,0.183,1.35,0.373,1.118,1.325
			c-0.294,0.196-0.625,0.093-0.94,0.117c-0.58-0.088-0.723-0.772-1.258-0.922c-0.108-0.053-0.203-0.123-0.287-0.209
			C26.9,6.69,26.921,6.586,27.011,6.493z"/>
		<path fill="#EF5778" d="M21.481,47.562c0.751,0.029,0.328-1.147,1.113-1.083c0.292,0,0.566,0.054,0.787,0.266
			c-0.437,0.336-0.186,0.974-0.584,1.327C22.311,48.024,21.86,47.885,21.481,47.562z"/>
		<path fill="#F7ADBD" d="M15.347,43.114c1.181,0.827,0.693-0.655,1.149-0.831c0.333,0.195,0.61,0.447,0.788,0.796
			c-0.694-0.178-0.344,1.342-1.273,0.784C15.686,43.706,15.466,43.455,15.347,43.114z"/>
		<path fill="#FCE6EB" d="M34.643,29.399c-0.307,0.477-0.271,1.012-0.261,1.543c-0.393,0.023-0.462-0.444-0.789-0.521
			c0.008-0.535,0.038-1.073-0.262-1.556C33.769,29.043,34.206,29.221,34.643,29.399z"/>
		<path fill="#EF5D7D" d="M19.64,9.392c-0.187,0.274-0.477,0.267-0.76,0.28c-1.092,0.265-0.674-0.67-0.881-1.109
			c0.185-0.079,0.37-0.158,0.555-0.237C19.663,7.921,19.594,8.715,19.64,9.392z"/>
		<path fill="#F8C1CD" d="M27.167,42.074c0.677,0.052,0.66-1.085,1.448-0.844c0.172,0.088,0.345,0.176,0.517,0.264
			c-0.285,0.365-0.569,0.731-0.854,1.096C27.859,42.52,27.484,42.36,27.167,42.074z"/>
		<path fill="#F06A88" d="M20.088,7.774c0.988-0.18,0.693,0.675,0.905,1.121c-0.209,0.252-0.502,0.254-0.792,0.262
			c-0.816,0.044-0.401-0.896-0.89-1.114C19.52,7.81,19.798,7.774,20.088,7.774z"/>
		<path fill="#F8B9C7" d="M26.473,27.08c-0.242-0.523,0.193-1.148-0.249-1.641c0.411,0.052,0.775,0.2,1.058,0.515
			c0.34,0.546,0.36,1.026-0.284,1.368C26.823,27.241,26.648,27.16,26.473,27.08z"/>
		<path fill="#F8C3CF" d="M39.816,33.384c0.888,0.165,0.793-0.703,1.151-1.095c0.286,0.013,0.591-0.033,0.79,0.252
			c0.106,1.039-0.304,1.438-1.33,1.073C40.223,33.537,40.02,33.46,39.816,33.384z"/>
		<path fill="#F8BBC8" d="M29.386,7.786c-0.188-0.565-0.508-1.022-1.059-1.289c0.439,0.001,0.878,0.002,1.316,0.004
			c0.482,0.355,0.67,0.77,0.265,1.306C29.728,7.961,29.553,7.972,29.386,7.786z"/>
		<path fill="#FBDAE1" d="M32.278,28.337c0.037,0.499-0.048,0.972-0.305,1.407c-0.178-0.082-0.357-0.164-0.535-0.246
			c0.015-0.12,0.03-0.24,0.046-0.36c-0.324-0.395-0.486-0.823-0.259-1.326C31.639,27.859,32.004,28.006,32.278,28.337z"/>
		<path fill="#FBDDE4" d="M33.591,7.027c0.626,0.802-0.193,1.015-0.574,1.406c-0.084,0.001-0.156-0.027-0.217-0.086
			c0-0.09,0.001-0.18,0.001-0.27c-0.294-0.39-0.611-0.771-0.526-1.313C32.714,6.852,33.153,6.939,33.591,7.027z"/>
		<path fill="#F06887" d="M54.633,22.56c-0.551,0.147-0.388,0.837-0.818,1.077c-0.174-0.175-0.347-0.35-0.521-0.525
			c0.548-0.304,0.055-1.069,0.607-1.372C54.218,21.947,54.544,22.148,54.633,22.56z"/>
		<path fill="#EA2551" d="M62,29.93c-0.353,0.283-0.231,0.917-0.781,1.054c-0.176-0.174-0.352-0.348-0.528-0.522
			c0.228-0.419-0.173-1.084,0.519-1.321C61.473,29.404,61.736,29.667,62,29.93z"/>
		<path fill="#F16D8A" d="M37.528,47.043c0.434-0.254,0.111-1.111,0.877-1.101c0.162,0.073,0.323,0.146,0.484,0.219
			c-0.302,0.364-0.13,1.076-0.838,1.143C37.877,47.217,37.703,47.13,37.528,47.043z"/>
		<path fill="#FAD3DB" d="M31.223,27.813c0.245,0.411,0.294,0.86,0.259,1.326c-0.414-0.049-0.782-0.191-1.051-0.529
			c0.088-0.352,0.176-0.703,0.264-1.055C30.912,27.558,31.106,27.608,31.223,27.813z"/>
		<path fill="#F9C3CE" d="M15.682,41.251c-0.549,0.407,0.063,1.235-0.582,1.608c-0.158-0.185-0.317-0.37-0.475-0.555
			c0.356-0.241,0.285-0.615,0.27-0.952c-0.021-0.456,0.175-0.53,0.55-0.377C15.524,41.067,15.603,41.159,15.682,41.251z"/>
		<path fill="#F8B9C7" d="M26.999,27.322c0.257-0.422,0.302-0.888,0.284-1.368c0.174,0.087,0.348,0.175,0.522,0.262
			c0.412,0.58,0.143,1.012-0.305,1.406C27.333,27.522,27.166,27.422,26.999,27.322z"/>
		<path fill="#F7B0C0" d="M40.427,33.613c0.896,0.204,1.091-0.461,1.33-1.072c0.371,0.04,0.777-0.065,1.077,0.264
			c-0.961-0.262-0.641,1.117-1.411,1.102C41.065,33.898,40.709,33.879,40.427,33.613z"/>
		<path fill="#F06282" d="M19.312,8.044c0.773-0.01,0.426,0.875,0.889,1.113c-0.187,0.078-0.374,0.157-0.562,0.235
			c-0.652-0.06-0.012-1.435-1.085-1.065C18.758,8.102,19.023,8.043,19.312,8.044z"/>
		<path fill="#FAD5DD" d="M32.275,6.764c0.431,0.335,0.616,0.769,0.526,1.313c-0.261-0.01-0.522-0.021-0.783-0.031
			c-0.281-0.39-0.346-0.825-0.27-1.29C31.924,6.758,32.1,6.761,32.275,6.764z"/>
		<path fill="#F3879F" d="M23.861,8.068c-0.611-0.003-0.621-1.035-1.371-0.8c0.107-0.213,0.287-0.287,0.515-0.272
			C23.708,7.019,24.45,7.012,23.861,8.068z"/>
		<path fill="#F8B9C7" d="M45.44,13.338c-0.508,0.315-0.015,1.069-0.592,1.354c-0.182-0.171-0.365-0.343-0.547-0.514
			c0.531-0.179,0.124-1.107,0.883-1.105C45.269,13.162,45.355,13.25,45.44,13.338z"/>
		<path fill="#EE4E71" d="M22.797,48.071c0.089-0.489-0.275-1.177,0.584-1.327c0.363,0.019,0.729,0.028,1.03,0.278
			c-0.922-0.231-1.027,0.572-1.366,1.08C22.96,48.102,22.878,48.092,22.797,48.071z"/>
		<path fill="#ED456A" d="M42.519,49.416c0.76,0.003,0.369-0.902,0.87-1.104c0.205,0.023,0.41,0.046,0.455,0.307
			c-0.421,0.235-0.05,1.065-0.795,1.056C42.872,49.589,42.695,49.502,42.519,49.416z"/>
		<path fill="#EE5375" d="M17.999,8.564c0.503,0.203,0.119,1.111,0.881,1.109c-0.179,0.085-0.358,0.17-0.537,0.255
			c-0.733-0.095-0.488-0.684-0.561-1.112C17.854,8.732,17.926,8.648,17.999,8.564z"/>
		<path fill="#EB2B57" d="M61.209,29.141c-0.472,0.323-0.004,1.014-0.518,1.321c-0.176-0.176-0.351-0.353-0.526-0.529
			c0.752,0.005,0.357-0.885,0.847-1.085C61.155,28.893,61.25,28.972,61.209,29.141z"/>
		<path fill="#F6A8BA" d="M27.011,6.493c0,0.089,0,0.178,0,0.266c-0.439,0.401-0.882,0.329-1.327,0.009
			c-0.443-0.008-0.885-0.016-1.328-0.024C25.206,6.294,26.124,6.559,27.011,6.493z"/>
		<path fill="#FAD1DA" d="M31.748,6.756c0.243,0.398,0.291,0.837,0.27,1.29c-0.657-0.235-0.514-0.797-0.529-1.294
			C31.576,6.75,31.662,6.751,31.748,6.756z"/>
		<path fill="#ED466B" d="M27.75,47.216c0.004,0.319-0.234,0.346-0.462,0.385c-0.591,0.233-1.193,0.539-1.636-0.239
			c0,0,0.069-0.1,0.069-0.1C26.398,47.247,27.074,47.232,27.75,47.216z"/>
		<path fill="#EA214E" d="M25.652,47.363c0.507,0.34,1.097,0.116,1.636,0.238c-0.601,1.494-1.352,1.647-3.7,0.752
			c0.6-0.025,1.292,0.165,1.407-0.794C25.027,47.285,25.403,47.349,25.652,47.363z"/>
		<path fill="#F06080" d="M45.959,33.136c0.353-0.016,0.706-0.033,1.059-0.049c-0.004,0.432-0.008,0.863-0.012,1.295
			c-0.435,0.01-0.869,0.02-1.303,0.03C45.343,33.897,45.337,33.453,45.959,33.136z"/>
		<path fill="#F3879F" d="M29.386,7.786c0.174,0.007,0.348,0.014,0.522,0.02c0.281,0.031,0.59-0.023,0.791,0.257
			c-1.918,0.011-3.836,0.022-5.754,0.033c-0.101-0.014-0.202-0.028-0.304-0.043c0.204-0.283,0.511-0.231,0.797-0.244
			c0.542-0.383,1.161-0.385,1.785-0.357c0.404-0.019,0.749,0.164,1.1,0.326C28.678,7.781,29.032,7.783,29.386,7.786z"/>
		<path fill="#F3849D" d="M43.863,33.094c0.261,0.007,0.522,0.015,0.783,0.022c0.196,0.485,0.062,0.901-0.263,1.279
			c-0.636,0.005-1.286,0.126-1.876-0.237c0.179-0.016,0.358-0.033,0.537-0.049C43.462,33.887,43.514,33.371,43.863,33.094z"/>
		<path fill="#F27A95" d="M44.383,34.395c-0.018-0.448-0.007-0.89,0.263-1.279c0.18,0.008,0.361,0.015,0.541,0.023
			c0.331,0.427,0.291,0.85-0.012,1.27C44.911,34.404,44.647,34.4,44.383,34.395z"/>
		<path fill="#F16D8A" d="M45.175,34.409c0.004-0.424,0.008-0.847,0.012-1.271c0.257-0.001,0.515-0.002,0.772-0.002
			c-0.282,0.386-0.274,0.83-0.257,1.276C45.527,34.411,45.351,34.41,45.175,34.409z"/>
		<path fill="#FCE6EB" d="M35.433,30.977c0.086,0.158,0.173,0.316,0.259,0.473c-0.412-0.012-0.748-0.2-1.053-0.459
			C34.898,30.664,35.17,31.065,35.433,30.977z"/>
		<path fill="#F491A6" d="M43.863,33.094c0.006,0.564,0.043,1.152-0.819,1.015C43.063,33.565,43.028,32.979,43.863,33.094z"/>
		<path fill="#F5A1B3" d="M27.272,7.778c-0.611,0.01-1.222,0.02-1.833,0.03c0.167-0.327,0.303-0.66,0.246-1.04
			c0.442-0.003,0.884-0.006,1.327-0.009c0,0,0,0,0,0C27.283,7.052,27.452,7.371,27.272,7.778z"/>
		<path fill="#F6A8BA" d="M27.272,7.778c-0.199-0.311-0.296-0.648-0.261-1.018c0.866-0.213,1.068,0.431,1.313,1.018
			C27.973,7.778,27.623,7.778,27.272,7.778z"/>
	</g>
</g>
</svg>
