<svg id="Layer_1" data-name="Layer 1" xmlns="http://www.w3.org/2000/svg" viewBox="0 0 359.02 383.95" height="64" width="64"><defs><style>.cls-1{fill:#ec7000;}.cls-2{fill:#f0913c;}.cls-3{fill:#bd6a1d;}.cls-4{fill:#b45d0c;}.cls-5{fill:#c06d20;}.cls-6{fill:#b15a08;}.cls-7{fill:#bb6719;}.cls-8{fill:#b65f0f;}.cls-9{fill:#b96516;}.cls-10{fill:#b66111;}.cls-11{fill:#b86313;}.cls-12{fill:#fefefe;}.cls-13{fill:#ec7100;}.cls-14{fill:#fdfdfd;}</style></defs><title>Team_expert</title><path class="cls-1" d="M179.5,384c-3.26-2.22-6.57-4.38-9.78-6.68a359.23,359.23,0,0,1-41.74-35A413,413,0,0,1,50.05,237.29a424.51,424.51,0,0,1-36.24-96.2c-2.32-9.53-4.1-19.2-6.12-28.81a5.67,5.67,0,0,1-.06-.72c0-1,.69-.54,1.08-.43,7.7,2.17,15.39,4.38,23.08,6.57l8.73,2.47a7.45,7.45,0,0,1-.08,1A142.57,142.57,0,0,0,75.86,251.27a141.33,141.33,0,0,0,52.26,35.15,139.4,139.4,0,0,0,41.08,9.21c3.43.25,6.86.34,10.29.5q0,13.9,0,27.8Q179.51,353.95,179.5,384Z"/><path class="cls-2" d="M40.52,120.17l-8.73-2.47c-7.69-2.19-15.38-4.4-23.08-6.57-.39-.11-1.06-.53-1.08.43-.55-3.09-1.19-6.18-1.62-9.29-1.16-8.35-2.34-16.69-3.3-25.06C2,71.14,1.56,65,1.18,59,.7,51.29.42,43.63,0,36a1.77,1.77,0,0,1,1.25-2A344.54,344.54,0,0,1,56.79,14.81,431.62,431.62,0,0,1,99.94,6c9.12-1.37,18.27-2.6,27.45-3.42,11.26-1,22.55-1.7,33.84-2.19C170.52,0,179.84.12,189.15,0a3.35,3.35,0,0,1,.69.13c-2.87,0-5.74.06-8.62,0-1,0-1.28.27-1.28,1.27,0,3-.13,6.05-.2,9.08-4.31.23-8.62.37-12.92.71A134.4,134.4,0,0,0,139,16.46a143.1,143.1,0,0,0-94.71,90.85C42.84,111.54,41.76,115.88,40.52,120.17Z"/><path class="cls-3" d="M358.78,39.06c-.19,5.26-.28,10.53-.59,15.79-.35,6-.79,11.94-1.37,17.89-.63,6.55-1.47,13.08-2.23,19.62a2.59,2.59,0,0,1-.14.45h-45.4c-1-1.95-2-3.91-3-5.84a141.62,141.62,0,0,0-27-36c-2.79-2.68-5.73-5.22-8.6-7.82l-.3-.25-.42-.33-.21-.18h0l-.27-.22h0L269,42l-.43-.33-.21-.18h0l-.27-.22h0l-.29-.24-.19-.12a.38.38,0,0,0-.18-.15l0,0-.24-.2h0l-.26-.22h0l-.31-.23a.17.17,0,0,1-.17-.1l-.21-.18h0l-.27-.21h0l-.3-.24a.17.17,0,0,1-.18-.1l-.2-.17h0l-.27-.21h0l-.3-.24a.17.17,0,0,1-.18-.1l-.2-.17h0L264,38.1h0l-.31-.23a.17.17,0,0,1-.17-.1l-.22-.17h0l-.28-.22-.21-.11-.18-.15,0,0-.26-.2h0l-.31-.23a.17.17,0,0,1-.18-.09l-.22-.17h0l-.28-.22a.19.19,0,0,1-.2-.1,6.25,6.25,0,0,1,1.49-.37q47.26,0,94.53,0c.28,0,.56,0,.84,0,.64-.06.84.25.82.85C358.75,37.38,358.77,38.22,358.78,39.06Z"/><path class="cls-4" d="M179.51,323.93q0-13.9,0-27.8c6.65-.48,13.33-.71,19.93-1.5a130.82,130.82,0,0,0,39.06-11.19c4.56-2.09,9-4.53,13.43-6.82a17,17,0,0,0,2.12.26c9.77,0,19.53,0,29.3,0a8.63,8.63,0,0,1,2,.49c-3.77,5.35-7.45,10.77-11.32,16a386.62,386.62,0,0,1-24.78,30.17c-.26.3-.57.55-.85.83A4.69,4.69,0,0,0,247,324Q213.25,323.92,179.51,323.93Z"/><path class="cls-5" d="M358.78,39.06c0-.84,0-1.68,0-2.52,0-.6-.18-.91-.82-.85-.28,0-.56,0-.84,0q-47.26,0-94.53,0a6.25,6.25,0,0,0-1.49.37c-.17-.1-.35-.19-.51-.3a138.05,138.05,0,0,0-20.22-11.65,140.6,140.6,0,0,0-51.18-13.19c-3.14-.2-6.3-.3-9.44-.45.07-3,.2-6,.2-9.08,0-1,.29-1.28,1.28-1.27,2.88,0,5.75,0,8.62,0q20,.21,39.95,2.17a467.08,467.08,0,0,1,83,15.38,346.65,346.65,0,0,1,44.77,16.11A1.94,1.94,0,0,1,359,36.1C358.86,37.08,358.84,38.08,358.78,39.06Z"/><path class="cls-6" d="M179.51,323.93q33.74,0,67.49,0a4.69,4.69,0,0,1,1.4.49h0l-.26.25,0,0-.25.31c-2.78,3-5.52,6-8.36,8.91a368.72,368.72,0,0,1-45.51,40.17c-4.46,3.29-9.07,6.38-13.63,9.55a3.9,3.9,0,0,1-.92.35Q179.5,353.94,179.51,323.93Z"/><path class="cls-7" d="M309.05,92.82h45.4c-.57,4-1,8-1.74,12-1.82,9.76-3.79,19.5-5.71,29.25a7.24,7.24,0,0,1-.25.79H321.32a3,3,0,0,1-.17-.56,133,133,0,0,0-5.87-25.46c-1.51-4.48-3.33-8.86-5-13.28l-.16-.29-.06-.23-.16-.25-.08-.26-.23-.47v0l-.21-.45a.17.17,0,0,1-.07-.17l-.17-.31Z"/><path class="cls-8" d="M285.35,277.4a8.63,8.63,0,0,0-2-.49c-9.77,0-19.53,0-29.3,0a17,17,0,0,1-2.12-.26c.23-.16.44-.33.68-.47a139.12,139.12,0,0,0,25.15-19c3.28-3.15,6.36-6.5,9.53-9.76l.22-.24h0l.23-.26h0l.25-.26,0,0,.24-.31.34-.41.18-.21h0l.22-.25h0l.23-.26h0l.24-.29.33-.43.18-.2,0,0,.21-.25h0l.22-.26h0l.24-.3.33-.42.18-.21v0l.21-.26h0l.24-.29.32-.43.19-.22h0l.22-.26h0l.23-.31a.17.17,0,0,1,.11-.17l.17-.2,0,0,.21-.26h0l.23-.3.31-.43.19-.24h0l.23-.3.31-.43.19-.24h0l.23-.3.31-.43.19-.24h0l.23-.3a.17.17,0,0,1,.09-.18l.18-.21v0l.21-.28.29-.44a8.57,8.57,0,0,0,1.39.23c3.5,0,7,0,10.5,0,.54,0,1.18-.13,1.26.7v0l-.24.46h0l-.19.33a.14.14,0,0,1-.06.17l-.18.31a.14.14,0,0,1-.06.17l-.19.3a.17.17,0,0,1-.07.18l-.17.27a.22.22,0,0,1-.07.21l-.17.27a.21.21,0,0,1-.09.21l-.17.24-.08.24-.16.23h0l-.25.46v0l-.24.45v0l-.19.33a.14.14,0,0,1-.06.17l-.19.28a.21.21,0,0,1-.07.2l-.17.27a.21.21,0,0,1-.08.21l-.17.25-.09.23-.16.22h0l-.25.46v0l-.2.32a.14.14,0,0,1-.06.17l-.19.3a.17.17,0,0,1-.07.18l-.17.27a.21.21,0,0,1-.09.21l-.17.24-.1.25-.15.2v0l-.2.34a.11.11,0,0,1-.06.15l-.19.3a.17.17,0,0,1-.07.18l-.17.27a.21.21,0,0,1-.09.21l-.17.23h0l-.25.46v0l-.2.32a.14.14,0,0,1-.07.17l-.18.28a.21.21,0,0,1-.07.2l-.18.25-.1.23-.15.22h0l-.2.34a.11.11,0,0,1-.06.15l-.19.28a.21.21,0,0,1-.07.2l-.18.25-.1.23-.15.22h0l-.2.34a.11.11,0,0,1-.06.15l-.19.28a.21.21,0,0,1-.08.2l-.17.25-.11.24-.15.2v0l-.2.32a.14.14,0,0,1-.07.17l-.18.28a.2.2,0,0,1-.09.2l-.17.23h0l-.25.45v0l-.2.32a.17.17,0,0,1-.07.18l-.18.26-.1.22-.15.22h0l-.2.32a.15.15,0,0,1-.08.17l-.17.28a.2.2,0,0,1-.09.2l-.17.23h0l-.21.34a.11.11,0,0,1-.07.15l-.18.28a.2.2,0,0,1-.09.2l-.17.23h0l-.21.34a.11.11,0,0,1-.07.15l-.18.28a.2.2,0,0,1-.09.2l-.17.23h0l-.21.34a.11.11,0,0,1-.07.15l-.18.28a.2.2,0,0,1-.09.2l-.17.23h0l-.21.34Z"/><path class="cls-9" d="M321.32,134.81h25.43l0,.25-.17.53-.06.43-.17.55-.09.65-.17.48-.06.48-.18.51-.06.45-.17.52-.07.44-.17.53-.07.43-.17.53L345,142l-.17.53-.07.43-.17.53-.07.43-.17.53-.07.43-.17.53-.07.43-.18.51-.06.45-.18.51-.07.45-.17.48,0,.24-.18.56-.07.4L343,150c-1.11,4-2.14,8.08-3.36,12.08-1.69,5.56-3.51,11.09-5.29,16.62a3.18,3.18,0,0,1-.24.53c-.52-.24-1-.69-1.55-.7-4.06-.06-8.12,0-12.18,0,.42-3,1-6.06,1.21-9.1.43-5.83.67-11.68,1-17.51-.07-1.61-.13-3.21-.19-4.81l0-2.16L322.1,143l-.05-1.44c-.06-.48-.13-1-.19-1.44l-.06-1.18-.18-1.22-.05-1-.17-1Z"/><path class="cls-10" d="M309.32,237c-.08-.83-.72-.7-1.26-.7-3.5,0-7,0-10.5,0a8.57,8.57,0,0,1-1.39-.23A148.45,148.45,0,0,0,307.53,217c1.74-3.59,3.3-7.26,4.93-10.89a17.35,17.35,0,0,0,1.87.23c3.13,0,6.27,0,9.4,0-2,4.56-3.89,9.16-6,13.67-2.6,5.56-5.38,11-8.09,16.54A3.74,3.74,0,0,1,309.32,237Z"/><path class="cls-11" d="M323.73,206.33c-3.13,0-6.27,0-9.4,0a17.35,17.35,0,0,1-1.87-.23c1.65-5,3.44-9.92,4.89-15,1.2-4.16,2-8.43,3-12.65,4.06,0,8.12,0,12.18,0,.52,0,1,.46,1.55.7-1.73,4.84-3.39,9.7-5.22,14.5C327.23,198,325.44,202.13,323.73,206.33Z"/><path class="cls-7" d="M345.11,141.59l.17-.53Z"/><path class="cls-7" d="M345.82,138.69l.18-.51Z"/><path class="cls-7" d="M345.59,139.66l.17-.52Z"/><path class="cls-10" d="M309.08,237.51l.24-.46Z"/><path class="cls-7" d="M345.35,140.63l.17-.53Z"/><path class="cls-7" d="M344.87,142.55,345,142Z"/><path class="cls-7" d="M344.63,143.51l.17-.53Z"/><path class="cls-7" d="M344.39,144.47l.17-.53Z"/><path class="cls-7" d="M344.15,145.43l.17-.53Z"/><path class="cls-7" d="M346.55,135.59l.17-.53Z"/><path class="cls-7" d="M343.9,146.37l.18-.51Z"/><path class="cls-7" d="M346.32,136.57l.17-.55Z"/><path class="cls-7" d="M346.06,137.7l.17-.48Z"/><path class="cls-7" d="M343.66,147.33l.18-.51Z"/><path class="cls-7" d="M343.2,149.06l.18-.56Z"/><path class="cls-10" d="M306.92,241.58l.24-.45Z"/><path class="cls-10" d="M305.48,244.23l.25-.46Z"/><path class="cls-7" d="M343.42,148.26l.17-.48Z"/><path class="cls-10" d="M303.08,248.55l.25-.46Z"/><path class="cls-10" d="M299.24,255.26l.25-.45Z"/><path class="cls-7" d="M343,150l.18-.53Z"/><path class="cls-10" d="M307.16,241.11l.25-.46Z"/><path class="cls-10" d="M308.88,237.85l.19-.33Z"/><path class="cls-10" d="M308.64,238.33l.18-.31Z"/><path class="cls-10" d="M308.39,238.8l.19-.3Z"/><path class="cls-10" d="M308.15,239.25l.17-.27Z"/><path class="cls-10" d="M307.91,239.73l.17-.27Z"/><path class="cls-10" d="M307.65,240.18l.17-.24Z"/><path class="cls-10" d="M307.41,240.65l.16-.23Z"/><path class="cls-10" d="M306.72,241.93l.19-.33Z"/><path class="cls-10" d="M306.47,242.38l.19-.28Z"/><path class="cls-10" d="M306.23,242.85l.17-.27Z"/><path class="cls-10" d="M306,243.31l.17-.25Z"/><path class="cls-10" d="M305.73,243.76l.16-.22Z"/><path class="cls-10" d="M305.28,244.57l.2-.32Z"/><path class="cls-10" d="M305,245l.19-.3Z"/><path class="cls-10" d="M304.79,245.49l.17-.27Z"/><path class="cls-10" d="M304.53,245.94l.17-.24Z"/><path class="cls-10" d="M304.28,246.39l.15-.2Z"/><path class="cls-10" d="M304.08,246.75l.2-.34Z"/><path class="cls-10" d="M303.83,247.2l.19-.3Z"/><path class="cls-10" d="M303.59,247.65l.17-.27Z"/><path class="cls-10" d="M303.33,248.09l.17-.23Z"/><path class="cls-10" d="M302.88,248.89l.2-.32Z"/><path class="cls-10" d="M302.63,249.34l.18-.28Z"/><path class="cls-10" d="M302.38,249.79l.18-.25Z"/><path class="cls-10" d="M302.13,250.24l.15-.22Z"/><path class="cls-10" d="M301.92,250.59l.2-.34Z"/><path class="cls-10" d="M301.67,251l.19-.28Z"/><path class="cls-10" d="M301.42,251.47l.18-.25Z"/><path class="cls-10" d="M301.17,251.92l.15-.22Z"/><path class="cls-10" d="M301,252.27l.2-.34Z"/><path class="cls-10" d="M300.71,252.7l.19-.28Z"/><path class="cls-10" d="M300.46,253.15l.17-.25Z"/><path class="cls-10" d="M300.2,253.59l.15-.2Z"/><path class="cls-10" d="M300,253.93l.2-.32Z"/><path class="cls-10" d="M299.75,254.38l.18-.28Z"/><path class="cls-10" d="M299.49,254.81l.17-.23Z"/><path class="cls-10" d="M299,255.6l.2-.32Z"/><path class="cls-10" d="M298.78,256l.18-.26Z"/><path class="cls-10" d="M298.53,256.48l.15-.22Z"/><path class="cls-10" d="M298.32,256.81l.2-.32Z"/><path class="cls-10" d="M298.07,257.26l.17-.28Z"/><path class="cls-10" d="M297.81,257.69l.17-.23Z"/><path class="cls-10" d="M297.6,258l.21-.34Z"/><path class="cls-10" d="M297.35,258.46l.18-.28Z"/><path class="cls-10" d="M297.09,258.89l.17-.23Z"/><path class="cls-10" d="M296.88,259.23l.21-.34Z"/><path class="cls-10" d="M296.63,259.66l.18-.28Z"/><path class="cls-10" d="M296.37,260.09l.17-.23Z"/><path class="cls-10" d="M296.16,260.43l.21-.34Z"/><path class="cls-10" d="M295.91,260.86l.18-.28Z"/><path class="cls-10" d="M295.65,261.29l.17-.23Z"/><path class="cls-10" d="M295.44,261.63l.21-.34Z"/><path class="cls-4" d="M248.15,324.68l.26-.25Z"/><path class="cls-4" d="M247.92,325l.25-.31Z"/><path class="cls-12" d="M320.33,178.48c-1,4.22-1.78,8.49-3,12.65-1.45,5-3.24,10-4.89,15-1.63,3.63-3.19,7.3-4.93,10.89a148.45,148.45,0,0,1-11.36,19.11l-.29.44-.21.28v0l-.18.21a.17.17,0,0,0-.09.18l-.23.3h0l-.19.24-.31.43-.23.3h0l-.19.24-.31.43-.23.3h0l-.19.24-.31.43-.23.3h0l-.21.26,0,0-.17.2a.17.17,0,0,0-.11.17l-.23.31h0l-.22.26h0l-.19.22-.32.43-.24.29h0l-.21.26v0l-.18.21-.33.42-.24.3h0l-.22.26h0l-.21.25,0,0-.18.2-.33.43-.24.29h0l-.23.26h0l-.22.25h0l-.18.21-.34.41-.24.31,0,0-.25.26h0l-.23.26h0l-.22.24c-3.17,3.26-6.25,6.61-9.53,9.76a139.12,139.12,0,0,1-25.15,19c-.24.14-.45.31-.68.47-4.47,2.29-8.87,4.73-13.43,6.82a130.82,130.82,0,0,1-39.06,11.19c-6.6.79-13.28,1-19.93,1.5-3.43-.16-6.86-.25-10.29-.5a139.4,139.4,0,0,1-41.08-9.21A142.46,142.46,0,0,1,36.88,157.26a141.73,141.73,0,0,1,3.56-36.14,7.45,7.45,0,0,0,.08-1c1.24-4.29,2.32-8.63,3.75-12.86A143.1,143.1,0,0,1,139,16.46a134.4,134.4,0,0,1,27.84-5.26c4.3-.34,8.61-.48,12.92-.71,3.14.15,6.3.25,9.44.45a140.6,140.6,0,0,1,51.18,13.19,138.05,138.05,0,0,1,20.22,11.65c.16.11.34.2.51.3a.19.19,0,0,0,.2.1l.28.22h0l.22.17a.17.17,0,0,0,.18.09l.31.23h0l.26.2,0,0,.18.15.21.11.28.22h0l.22.17a.17.17,0,0,0,.17.1l.31.23h0l.27.21h0l.2.17a.17.17,0,0,0,.18.1l.3.24h0l.27.21h0l.2.17a.17.17,0,0,0,.18.1l.3.24h0l.27.21h0l.21.18a.17.17,0,0,0,.17.1l.31.23h0l.26.22h0l.24.2,0,0,.18.15.19.12.29.24h0l.27.22h0l.21.18L269,42l.29.24h0l.27.22h0l.21.18.42.33.3.25c2.87,2.6,5.81,5.14,8.6,7.82a141.62,141.62,0,0,1,27,36c1,1.93,2,3.89,3,5.84l.08.24.17.31a.17.17,0,0,0,.07.17l.21.45v0l.23.47.08.26.16.25.06.23.16.29c1.68,4.42,3.5,8.8,5,13.28a133,133,0,0,1,5.87,25.46,3,3,0,0,0,.17.56l.08,1,.17,1,.05,1,.18,1.22.06,1.18.19,1.44.05,1.44.19,1.92,0,2.16c.06,1.6.12,3.2.19,4.81-.32,5.83-.56,11.68-1,17.51C321.31,172.42,320.75,175.45,320.33,178.48ZM179.44,288.76A135,135,0,0,0,315,154.28C315.3,78.8,254.4,18.69,180.32,18.12S44.23,76.86,43.87,152.86C43.51,228.38,105,288.84,179.44,288.76Z"/><path class="cls-5" d="M264.22,38.31,264,38.1Z"/><path class="cls-5" d="M264.44,38.49l-.2-.17Z"/><path class="cls-5" d="M264.92,38.83l-.3-.24Z"/><path class="cls-5" d="M265.18,39l-.27-.21Z"/><path class="cls-5" d="M265.4,39.21l-.2-.17Z"/><path class="cls-5" d="M265.88,39.55l-.3-.24Z"/><path class="cls-5" d="M266.36,39.94l-.21-.18Z"/><path class="cls-5" d="M266.84,40.27l-.31-.23Z"/><path class="cls-5" d="M267.09,40.48l-.26-.22Z"/><path class="cls-5" d="M267.34,40.69l-.24-.2Z"/><path class="cls-5" d="M267.56,40.87l-.18-.15A.38.38,0,0,1,267.56,40.87Z"/><path class="cls-5" d="M268,41.23l-.29-.24Z"/><path class="cls-5" d="M268.3,41.44l-.27-.22Z"/><path class="cls-5" d="M268.52,41.62l-.21-.18Z"/><path class="cls-5" d="M269.24,42.19,269,42Z"/><path class="cls-5" d="M269.5,42.4l-.27-.22Z"/><path class="cls-5" d="M269.72,42.58l-.21-.18Z"/><path class="cls-5" d="M270.44,43.16l-.3-.25Z"/><path class="cls-5" d="M266.14,39.75l-.27-.21Z"/><path class="cls-5" d="M261.57,36.4l-.28-.22Z"/><path class="cls-5" d="M261.8,36.58l-.22-.17Z"/><path class="cls-5" d="M262.29,36.9l-.31-.23Z"/><path class="cls-5" d="M262.54,37.1l-.26-.2Z"/><path class="cls-5" d="M262.76,37.27l-.18-.15Z"/><path class="cls-5" d="M263.25,37.6l-.28-.22Z"/><path class="cls-5" d="M263.48,37.78l-.22-.17Z"/><path class="cls-5" d="M264,38.11l-.31-.23Z"/><path class="cls-3" d="M309.58,94l-.21-.45Z"/><path class="cls-3" d="M309.81,94.48l-.23-.47Z"/><path class="cls-3" d="M309.3,93.37l-.17-.31Z"/><path class="cls-3" d="M310.05,95l-.16-.25Z"/><path class="cls-3" d="M310.27,95.51l-.16-.29Z"/><path class="cls-10" d="M295.67,236.81l.21-.28Z"/><path class="cls-10" d="M295.48,237l.18-.21Z"/><path class="cls-10" d="M295.16,237.52l.23-.3Z"/><path class="cls-10" d="M295,237.76l.19-.24Z"/><path class="cls-10" d="M294.44,238.49l.23-.3Z"/><path class="cls-10" d="M294.26,238.72l.19-.24Z"/><path class="cls-10" d="M293.72,239.45l.23-.3Z"/><path class="cls-10" d="M293.54,239.68l.19-.24Z"/><path class="cls-10" d="M293,240.41l.23-.3Z"/><path class="cls-10" d="M292.8,240.66l.21-.26Z"/><path class="cls-10" d="M292.61,240.88l.17-.2Z"/><path class="cls-10" d="M292.27,241.36l.23-.31Z"/><path class="cls-10" d="M292.06,241.61l.22-.26Z"/><path class="cls-10" d="M291.87,241.84l.19-.22Z"/><path class="cls-10" d="M291.31,242.56l.24-.29Z"/><path class="cls-10" d="M291.11,242.81l.21-.26Z"/><path class="cls-10" d="M290.92,243l.18-.21Z"/><path class="cls-10" d="M290.35,243.76l.24-.3Z"/><path class="cls-10" d="M290.14,244l.22-.26Z"/><path class="cls-10" d="M289.92,244.26l.21-.25Z"/><path class="cls-10" d="M289.72,244.48l.18-.2Z"/><path class="cls-10" d="M289.15,245.2l.24-.29Z"/><path class="cls-10" d="M288.93,245.45l.23-.26Z"/><path class="cls-10" d="M288.71,245.7l.22-.25Z"/><path class="cls-10" d="M288.52,245.92l.18-.21Z"/><path class="cls-10" d="M287.94,246.64l.24-.31Z"/><path class="cls-10" d="M287.71,246.88l.25-.26Z"/><path class="cls-10" d="M287.49,247.13l.23-.26Z"/><path class="cls-10" d="M287.27,247.37l.22-.24Z"/><path class="cls-7" d="M322.53,151.87c-.07-1.61-.13-3.21-.19-4.81C322.4,148.66,322.46,150.26,322.53,151.87Z"/><path class="cls-7" d="M322.29,144.9,322.1,143Z"/><path class="cls-7" d="M322.05,141.54l-.19-1.44C321.92,140.58,322,141.06,322.05,141.54Z"/><path class="cls-7" d="M321.8,138.92l-.18-1.22Z"/><path class="cls-7" d="M321.57,136.74l-.17-1C321.45,136.1,321.51,136.42,321.57,136.74Z"/><path class="cls-13" d="M179.44,288.76c-74.46.08-135.93-60.38-135.57-135.9.36-76,62.45-135.31,136.45-134.74S315.3,78.8,315,154.28A135,135,0,0,1,179.44,288.76ZM51.61,153c.12,71.26,57.78,128.29,128.16,128.24,70.09-.05,126.65-55.9,127.8-125.33,1.19-72-56.39-129.26-126-130.42A127.65,127.65,0,0,0,51.61,153Z"/><path class="cls-14" d="M51.61,153a127.65,127.65,0,0,1,130-127.51c69.6,1.16,127.18,58.45,126,130.42-1.15,69.43-57.71,125.28-127.8,125.33C109.39,281.29,51.73,224.26,51.61,153ZM274.7,120.52c-.41,0-.53-.07-.65-.07q-33.78,0-67.56,0a1.68,1.68,0,0,0-1.23.78c-1.52,2.94-3,5.93-4.42,8.9-.34.69-.65,1.4-1,2.21h67.77a1.28,1.28,0,0,0,.48,0c.3-.14.71-.25.84-.5C270.83,128.15,272.72,124.42,274.7,120.52Zm-190.38-.07c1.88,3.75,3.67,7.27,5.41,10.8a1.85,1.85,0,0,0,2,1.14q33,0,66.08,0h1.41c-.18-.44-.27-.73-.4-1-1.6-3.26-3.23-6.5-4.77-9.78a1.79,1.79,0,0,0-1.92-1.15q-33.17,0-66.32,0Zm181.5,47.72a1.76,1.76,0,0,0-.06-.47c-1.75-3.58-3.49-7.18-5.31-10.72a1.75,1.75,0,0,0-1.34-.65q-5.33-.12-10.67-.12l-56.15.1c-.31,0-.62,0-1.17.07,1.88,3.67,3.7,7.21,5.49,10.76a1.81,1.81,0,0,0,1.9,1.05q29.57,0,59.15,0Zm-172.66,0h17.66l49.3,0c.44,0,.89-.11,1.32-.07.72.08,1-.28,1.34-.89,1.37-2.84,2.78-5.66,4.17-8.49.36-.72.67-1.46,1.13-2.47-6.18,0-12.09,0-18,0l-49.9.09a1.65,1.65,0,0,0-.59,0c-.27.1-.63.23-.74.46C97,160.47,95.14,164.19,93.16,168.17Zm57.31,24.24h-10.6q-28.8,0-57.59,0a1.3,1.3,0,0,0-1.35.87c-1,2.09-2.05,4.16-3.07,6.24-.74,1.52-1.47,3.05-2.25,4.69.48,0,.8,0,1.11,0,7.52,0,15,.1,22.56.09q22.07,0,44.15-.08a1.64,1.64,0,0,0,.59,0c.3-.13.7-.27.83-.53C146.7,200.07,148.51,196.39,150.47,192.41Zm58.4,0c.15.37.23.63.35.88,1.6,3.26,3.24,6.5,4.77,9.79a1.86,1.86,0,0,0,2,1.22q33.1,0,66.21,0h1.51c-1.94-3.91-3.77-7.66-5.67-11.39a1.3,1.3,0,0,0-1-.42c-2-.05-4-.06-6-.06h-62.2ZM84.42,186.1a2.75,2.75,0,0,0,.34.09q33.94,0,67.9,0a1.57,1.57,0,0,0,1.12-.75c1.06-2,2-4,3-6,.8-1.63,1.57-3.28,2.43-5.08H91.52a2.46,2.46,0,0,0-.72,0c-.28.08-.65.19-.76.41C88.16,178.53,86.31,182.28,84.42,186.1ZM168,150.41a4.47,4.47,0,0,0-.16-.55c-1.73-3.55-3.44-7.1-5.23-10.63a1.61,1.61,0,0,0-1.22-.59c-3.56-.07-7.11-.1-10.67-.09q-28.12,0-56.25.06c-.34,0-.68,0-1.19.07,1.8,3.66,3.57,7.18,5.26,10.74a1.44,1.44,0,0,0,1.52,1c5.84,0,11.68.05,17.51.05q24.66,0,49.3,0Zm-17.52-36.13c-1.91-3.86-3.71-7.41-5.44-11a1.35,1.35,0,0,0-1.44-.89c-7.4,0-14.8,0-22.2,0l-44.51,0H75.53c1.81,3.66,3.56,7.11,5.21,10.6a1.94,1.94,0,0,0,2.08,1.29q33,0,66,0Zm40.7,36.13h1.2c6.2,0,12.39,0,18.59,0l46.89,0c.52,0,1-.08,1.55,0,.68.08,1-.23,1.26-.81,1-2.12,2.08-4.22,3.12-6.33.73-1.5,1.44-3,2.2-4.6-.41,0-.68-.09-1-.09q-8.56,0-17.14,0l-50.12.09a1.17,1.17,0,0,0-1.26.79c-.89,1.91-1.86,3.79-2.79,5.69C192.88,146.83,192.06,148.55,191.16,150.41Zm92.53-47.89a2.27,2.27,0,0,0-.42-.1q-33.94,0-67.88,0a1.56,1.56,0,0,0-1.1.77c-1.36,2.62-2.66,5.27-4,7.92-.48,1-.91,2-1.41,3.08.42,0,.65.06.89.06q33.52,0,67,0a1.73,1.73,0,0,0,1.28-.73C280,109.91,281.81,106.27,283.69,102.52ZM200.1,174.61a6.58,6.58,0,0,0,.22.67c1.71,3.51,3.41,7,5.17,10.52a1.5,1.5,0,0,0,1.13.55q6,.09,12.11.09l54.81,0h1.31c-1.79-3.64-3.51-7.1-5.16-10.59a1.9,1.9,0,0,0-2-1.24q-33.1.06-66.2,0Zm-50.59-78.5h60.36c-.65-1.22-1.24-2.34-1.87-3.44-1.42-2.5-2.83-5-4.33-7.45a1.82,1.82,0,0,0-1.32-.74q-22.68-.06-45.35,0a1.41,1.41,0,0,0-1.06.52C153.82,88.6,151.74,92.23,149.51,96.11ZM209.6,210.62H149.44a4.79,4.79,0,0,0,.24.62c2,3.43,3.92,6.87,5.95,10.26a1.77,1.77,0,0,0,1.32.68q22.68,0,45.35,0a1.38,1.38,0,0,0,1.41-.82c1.78-3.26,3.6-6.49,5.39-9.74C209.27,211.36,209.4,211,209.6,210.62Zm-9.55-132c-2.3-3.91-4.48-7.66-6.73-11.37a1.67,1.67,0,0,0-1.27-.59c-8.31,0-16.62,0-24.93,0a1.38,1.38,0,0,0-1.41.8c-1.19,2.17-2.43,4.31-3.63,6.47-.85,1.52-1.67,3-2.58,4.73ZM159.46,228.32c2.22,3.92,4.32,7.67,6.49,11.39.15.26.73.4,1.11.4q12.58,0,25.17,0a1.72,1.72,0,0,0,1.27-.74c2-3.39,4-6.82,6-10.24a7.14,7.14,0,0,0,.37-.8ZM179.72,42.41c-3.44,6.16-6.76,12.09-10.15,18.17h20.34C186.51,54.51,183.18,48.59,179.72,42.41Zm10.15,204H169.6c3.34,6,6.6,11.77,9.85,17.57l.47.05Z"/><path class="cls-13" d="M274.7,120.52c-2,3.9-3.87,7.63-5.8,11.34-.13.25-.54.36-.84.5a1.28,1.28,0,0,1-.48,0H199.81c.38-.81.69-1.52,1-2.21,1.46-3,2.9-6,4.42-8.9a1.68,1.68,0,0,1,1.23-.78q33.78,0,67.56,0C274.17,120.45,274.29,120.48,274.7,120.52Z"/><path class="cls-13" d="M84.32,120.45h1.45q33.17,0,66.32,0a1.79,1.79,0,0,1,1.92,1.15c1.54,3.28,3.17,6.52,4.77,9.78.13.28.22.57.4,1h-1.41q-33,0-66.08,0a1.85,1.85,0,0,1-2-1.14C88,127.72,86.2,124.2,84.32,120.45Z"/><path class="cls-13" d="M265.82,168.17h-8.16q-29.58,0-59.15,0a1.81,1.81,0,0,1-1.9-1.05c-1.79-3.55-3.61-7.09-5.49-10.76.55,0,.86-.07,1.17-.07l56.15-.1q5.34,0,10.67.12a1.75,1.75,0,0,1,1.34.65c1.82,3.54,3.56,7.14,5.31,10.72A1.76,1.76,0,0,1,265.82,168.17Z"/><path class="cls-13" d="M93.16,168.17c2-4,3.82-7.7,5.69-11.39.11-.23.47-.36.74-.46a1.65,1.65,0,0,1,.59,0l49.9-.09c5.91,0,11.82,0,18,0-.46,1-.77,1.75-1.13,2.47-1.39,2.83-2.8,5.65-4.17,8.49-.3.61-.62,1-1.34.89-.43,0-.88.07-1.32.07l-49.3,0Z"/><path class="cls-13" d="M150.47,192.41c-2,4-3.77,7.66-5.62,11.32-.13.26-.53.4-.83.53a1.64,1.64,0,0,1-.59,0q-22.08,0-44.15.08c-7.52,0-15-.05-22.56-.09-.31,0-.63,0-1.11,0,.78-1.64,1.51-3.17,2.25-4.69,1-2.08,2.07-4.15,3.07-6.24a1.3,1.3,0,0,1,1.35-.87q28.78,0,57.59,0Z"/><path class="cls-13" d="M208.87,192.41h62.2c2,0,4,0,6,.06a1.3,1.3,0,0,1,1,.42c1.9,3.73,3.73,7.48,5.67,11.39H282.2q-33.1,0-66.21,0a1.86,1.86,0,0,1-2-1.22c-1.53-3.29-3.17-6.53-4.77-9.79C209.1,193,209,192.78,208.87,192.41Z"/><path class="cls-13" d="M84.42,186.1c1.89-3.82,3.74-7.57,5.62-11.3.11-.22.48-.33.76-.41a2.46,2.46,0,0,1,.72,0h67.72c-.86,1.8-1.63,3.45-2.43,5.08-1,2-2,4-3,6a1.57,1.57,0,0,1-1.12.75q-33.94,0-67.9,0A2.75,2.75,0,0,1,84.42,186.1Z"/><path class="cls-13" d="M168,150.41h-1.13q-24.65,0-49.3,0c-5.83,0-11.67-.06-17.51-.05a1.44,1.44,0,0,1-1.52-1c-1.69-3.56-3.46-7.08-5.26-10.74.51,0,.85-.07,1.19-.07q28.13,0,56.25-.06c3.56,0,7.11,0,10.67.09a1.61,1.61,0,0,1,1.22.59c1.79,3.53,3.5,7.08,5.23,10.63A4.47,4.47,0,0,1,168,150.41Z"/><path class="cls-13" d="M150.46,114.28h-1.65q-33,0-66,0A1.94,1.94,0,0,1,80.74,113c-1.65-3.49-3.4-6.94-5.21-10.6h1.34l44.51,0c7.4,0,14.8,0,22.2,0a1.35,1.35,0,0,1,1.44.89C146.75,106.87,148.55,110.42,150.46,114.28Z"/><path class="cls-13" d="M191.16,150.41c.9-1.86,1.72-3.58,2.55-5.29.93-1.9,1.9-3.78,2.79-5.69a1.17,1.17,0,0,1,1.26-.79l50.12-.09q8.56,0,17.14,0c.27,0,.54,0,1,.09-.76,1.6-1.47,3.1-2.2,4.6-1,2.11-2.11,4.21-3.12,6.33-.27.58-.58.89-1.26.81-.51,0-1,0-1.55,0l-46.89,0c-6.2,0-12.39,0-18.59,0Z"/><path class="cls-13" d="M283.69,102.52c-1.88,3.75-3.68,7.39-5.56,11a1.73,1.73,0,0,1-1.28.73q-33.53.06-67,0c-.24,0-.47,0-.89-.06.5-1.09.93-2.09,1.41-3.08,1.3-2.65,2.6-5.3,4-7.92a1.56,1.56,0,0,1,1.1-.77q33.95,0,67.88,0A2.27,2.27,0,0,1,283.69,102.52Z"/><path class="cls-13" d="M200.1,174.61h1.39q33.1,0,66.2,0a1.9,1.9,0,0,1,2,1.24c1.65,3.49,3.37,7,5.16,10.59h-1.31l-54.81,0q-6.06,0-12.11-.09a1.5,1.5,0,0,1-1.13-.55c-1.76-3.49-3.46-7-5.17-10.52A6.58,6.58,0,0,1,200.1,174.61Z"/><path class="cls-13" d="M149.51,96.11c2.23-3.88,4.31-7.51,6.43-11.12a1.41,1.41,0,0,1,1.06-.52q22.67,0,45.35,0a1.82,1.82,0,0,1,1.32.74c1.5,2.45,2.91,5,4.33,7.45.63,1.1,1.22,2.22,1.87,3.44Z"/><path class="cls-13" d="M209.6,210.62c-.2.42-.33.74-.5,1-1.79,3.25-3.61,6.48-5.39,9.74a1.38,1.38,0,0,1-1.41.82q-22.68,0-45.35,0a1.77,1.77,0,0,1-1.32-.68c-2-3.39-4-6.83-5.95-10.26a4.79,4.79,0,0,1-.24-.62Z"/><path class="cls-13" d="M200.05,78.6H159.5c.91-1.68,1.73-3.21,2.58-4.73,1.2-2.16,2.44-4.3,3.63-6.47a1.38,1.38,0,0,1,1.41-.8c8.31,0,16.62,0,24.93,0a1.67,1.67,0,0,1,1.27.59C195.57,70.94,197.75,74.69,200.05,78.6Z"/><path class="cls-13" d="M159.46,228.32h40.38a7.14,7.14,0,0,1-.37.8c-2,3.42-3.94,6.85-6,10.24a1.72,1.72,0,0,1-1.27.74q-12.58.06-25.17,0c-.38,0-1-.14-1.11-.4C163.78,236,161.68,232.24,159.46,228.32Z"/><path class="cls-13" d="M179.72,42.41c3.46,6.18,6.79,12.1,10.19,18.17H169.57C173,54.5,176.28,48.57,179.72,42.41Z"/><path class="cls-13" d="M189.87,246.42l-10,17.62-.47-.05c-3.25-5.8-6.51-11.6-9.85-17.57Z"/></svg>