<?xml version="1.0" encoding="utf-8"?>
<!-- Generator: Adobe Illustrator 22.0.0, SVG Export Plug-In . SVG Version: 6.00 Build 0)  -->
<svg version="1.1" id="Camada_1" xmlns="http://www.w3.org/2000/svg" xmlns:xlink="http://www.w3.org/1999/xlink" x="0px" y="0px"
	 width="64px" height="64px" viewBox="0 0 64 64" enable-background="new 0 0 64 64" xml:space="preserve">
<g>
	<g>
		<path fill="#B3E6B3" d="M63.155,0c0.016,0.079,0.017,0.158,0.004,0.238c-7.795,0.001-15.59,0.001-23.385,0.004
			C26.863,0.248,13.953,0.256,1.043,0.263C1.037,0.176,1.032,0.088,1.027,0C21.736,0,42.446,0,63.155,0z"/>
		<path fill="#FCFCFC" d="M1.027,0c0.005,0.088,0.011,0.176,0.016,0.263C1.032,2.942,1.016,5.62,1.011,8.298
			C0.995,16.009,0.983,23.719,0.969,31.43l-0.093,0.001L0.783,31.43c0-10.153-0.003-20.307,0.015-30.46
			C0.798,0.655,0.525,0.218,1.027,0z"/>
		<path fill="#34BD34" d="M0.969,31.43c0.013-7.711,0.025-15.421,0.041-23.132C1.016,5.62,1.032,2.942,1.043,0.263
			c12.91-0.007,25.821-0.015,38.731-0.021c7.795-0.003,15.59-0.003,23.385-0.004c0.022,0.485,0.063,0.969,0.064,1.454
			c0.004,9.049-0.135,18.1,0.047,27.146c0.14,6.987-2.09,13.049-6.258,18.496c-3.947,5.158-8.88,9.201-14.455,12.488
			c-0.054-0.062-0.107-0.124-0.161-0.186c0.854-0.797,1.627-1.71,2.577-2.368c2.549-1.763,2.716-4.311,2.467-7.003
			c-0.304-3.284-1.566-6.241-3.249-9.037c-0.375-0.622-0.776-1.229-1.166-1.842c0.062-0.053,0.117-0.112,0.166-0.177
			c4.376,2.788,7.35,6.513,7.916,11.847c3.121-2.071,4.696-7.299,2.483-10.889c-1.626-2.636-3.917-4.635-6.275-6.571
			c-2.062-1.693-4.272-3.186-6.515-4.694c0.342-0.258,0.601-0.117,0.855-0.039c3.182,0.976,6.28,2.164,9.247,3.682
			c3.049,1.56,5.001,4.054,6.168,7.22c0.125,0.34,0.246,0.681,0.374,1.02c0.011,0.029,0.059,0.044,0.09,0.066
			c1.446-3.347,0.43-8.933-2.111-11.543c-1.836-1.885-4.092-3.176-6.364-4.439c-1.523-0.847-3.104-1.6-4.381-2.828
			c-2.064-1.985-2.562-4.371-1.429-6.866c0.958-2.108,2.622-2.982,4.935-2.575c0.517,0.091,1.039,0.192,1.537,0.356
			c1.649,0.541,1.645,0.553,1.549-1.244c-0.111-2.077-1.395-3.948-3.546-4.216c-2.614-0.325-5.108-1.175-7.713-1.443
			c-3.132-0.323-5.821,0.664-8.102,2.843c-2.156,2.059-4.047,4.307-5.506,6.925c-1.51,2.709-1.644,5.281,0.449,7.763
			c0.309,0.366,0.525,0.809,0.785,1.216c-0.059,0.069-0.118,0.139-0.177,0.208c-4.382-2.873-7.323-6.619-7.143-12.146
			c0.087-2.674,0.996-5.144,2.3-7.465c0.395-0.704,0.835-1.384,1.254-2.075c0.077-0.113,0.32-0.199,0.146-0.36
			c-0.121-0.112-0.301-0.019-0.408,0.125c-4.786,2.307-7.205,6.324-8.196,11.365c-0.636,3.237,0.09,6.242,1.708,9.152
			c-0.641,0.067-0.892-0.352-1.188-0.632c-3.381-3.201-4.032-7.159-3.119-11.516c0.559-2.668,1.724-5.104,3.273-7.716
			c-2.649,0.889-4.62,2.242-6.282,4.039c-4.497,4.862-5.159,11.878-1.683,17.947c2.911,5.084,7.328,8.605,12.243,11.575
			c4.312,2.605,8.999,4.457,13.51,6.661c1.203,0.587,2.413,1.169,3.448,2.034c1.322,1.105,1.673,2.695,0.873,4.204
			c-3.19-4.041-7.759-5.603-12.407-6.947c-6.463-1.869-11.889-5.463-16.875-9.837c-0.365-0.32-0.727-0.644-1.093-0.962
			c-0.024-0.021-0.079-0.007-0.198-0.014c0.112,1.215,0.574,2.32,0.961,3.437c1.325,3.827,3.108,7.399,5.942,10.36
			c2.318,2.421,5.143,4.039,8.266,5.197c2.795,1.036,5.445,2.339,7.521,4.56c0.419,0.448,1.01,0.852,0.894,1.726
			c-3.786-3.527-8.871-2.793-13.275-4.262c3.724,3.359,7.449,6.719,11.173,10.078c-0.071,0.072-0.143,0.145-0.214,0.217
			c-8.461-4.041-16.128-9.134-21.878-16.713C3.513,42.424,1.332,37.273,0.969,31.43z"/>
		<path fill="#34BD34" d="M43.025,39.386c-0.071-0.105-0.316-0.164-0.183-0.315c0.102-0.116,0.283-0.044,0.349,0.138
			C43.142,39.274,43.087,39.333,43.025,39.386z"/>
		<path fill="#34BD34" d="M42.556,59.822c-0.176,0.103-0.353,0.175-0.535,0.014c0.125-0.067,0.25-0.134,0.375-0.2
			C42.449,59.698,42.503,59.76,42.556,59.822z"/>
		<path fill="#34BD34" d="M29.106,63.534c0.19,0.12,0.223,0.276,0.109,0.466c-0.108-0.083-0.215-0.166-0.323-0.249
			C28.963,63.678,29.034,63.606,29.106,63.534z"/>
		<path fill="#34BD34" d="M27.637,24.799c0.057,0.076,0.181,0.188,0.162,0.223c-0.106,0.196-0.225,0.045-0.339-0.015
			C27.519,24.937,27.578,24.868,27.637,24.799z"/>
		<path fill="#FDFDFD" d="M23.608,3.086c0.107-0.144,0.287-0.237,0.408-0.125c0.174,0.161-0.069,0.247-0.146,0.36
			C23.783,3.242,23.696,3.164,23.608,3.086z"/>
	</g>
</g>
</svg>
