<?xml version="1.0" encoding="iso-8859-1"?>
<!-- Generator: Adobe Illustrator 16.0.0, SVG Export Plug-In . SVG Version: 6.00 Build 0)  -->
<!DOCTYPE svg PUBLIC "-//W3C//DTD SVG 1.1//EN" "http://www.w3.org/Graphics/SVG/1.1/DTD/svg11.dtd">
<svg version="1.1" id="Layer_1" xmlns="http://www.w3.org/2000/svg" xmlns:xlink="http://www.w3.org/1999/xlink" x="0px" y="0px"
	 width="64px" height="64px" viewBox="0 0 64 64" style="enable-background:new 0 0 64 64;" xml:space="preserve">
<g>
	<path style="fill-rule:evenodd;clip-rule:evenodd;fill:#030301;" d="M64,10.799c-0.016,0.009-0.036,0.014-0.048,0.026
		c-3.085,3.085-6.169,6.169-9.253,9.254c-0.03,0.03-0.055,0.065-0.081,0.098c-5.642,0-11.272,0-16.909,0c0,3.272,0,6.535,0,9.813
		c7.231,0,14.459,0,21.683,0c-3.553,3.551-7.1,7.096-10.676,10.669c-2.672,0-5.397,0-8.127,0c-4.836,4.191-9.674,8.385-14.536,12.6
		c0-7.221,0-14.409,0-21.611c-2.767,0-5.517,0-8.27,0c-2.891-3.4-5.776-6.795-8.68-10.212c5.66,0,11.292,0,16.935,0
		c0-0.412,0-0.81,0-1.214c0.002,0.003-0.001-0.002-0.005-0.006c-0.004-0.003-0.008-0.008-0.013-0.009
		c-0.016-0.002-0.031-0.005-0.047-0.005c-5.968-0.001-11.935-0.002-17.902-0.003c-0.005,0-0.01-0.003-0.024-0.007
		c-0.427-0.502-0.858-1.01-1.29-1.517c-2.207-2.597-4.413-5.192-6.622-7.786C0.101,10.852,0.089,10.761,0,10.799
		c0-0.016,0-0.032,0-0.057c21.333,0,42.667,0,64,0C64,10.756,64,10.777,64,10.799z M27.751,29.921
		c0.01,0.021,0.013,0.026,0.015,0.03c0.002,0.006,0.004,0.011,0.005,0.016s0.001,0.011,0.001,0.017c0,0.005,0,0.01,0,0.016
		c0,6.453,0,12.907,0.001,19.361c0,0.011,0,0.021,0,0.031c0,0.006,0,0.011,0.001,0.017c0,0.005,0.001,0.011,0.003,0.016
		c0.002,0.004,0.004,0.008,0.008,0.011c0.004,0.004,0.01,0.005,0.026,0.012c4.041-3.502,8.086-7.008,12.135-10.518
		c2.704,0,5.407,0,8.062,0c2.422-2.409,4.815-4.79,7.208-7.171c0.002-0.002,0.001-0.01,0-0.015c-0.001-0.005-0.004-0.01-0.013-0.028
		c-6.402,0-12.81,0-19.221,0c0-4.428,0-8.841,0-13.266c5.977,0,11.943,0,17.895,0c0.4-0.348,5.882-5.854,5.942-5.969
		c-18.678,0-37.355,0-56.063,0c1.71,2.012,3.401,4.001,5.099,5.998c6.301,0,12.603,0,18.909,0c0,1.564,0,3.113,0,4.656
		c-0.015,0.008-0.02,0.011-0.024,0.013c-0.004,0.002-0.01,0.003-0.015,0.004c-0.005,0.001-0.011,0.001-0.016,0.001
		c-0.005,0.001-0.01,0.001-0.016,0.001s-0.011,0-0.016,0c-0.011,0-0.021,0-0.032,0c-4.88,0-9.76,0-14.64,0
		c-0.016,0-0.032,0.001-0.048,0.001c-0.005,0-0.011,0-0.016,0s-0.011,0-0.016,0c-0.011,0.001-0.021,0.002-0.032,0.004
		c-0.005,0.001-0.009,0.003-0.013,0.006c-0.003,0.004-0.005,0.01-0.017,0.03c1.9,2.236,3.805,4.477,5.718,6.727
		C21.642,29.921,24.701,29.921,27.751,29.921z"/>
	<path style="fill-rule:evenodd;clip-rule:evenodd;fill:#E43D2F;" d="M27.751,29.921c-3.051,0-6.11,0-9.171,0
		c-1.913-2.25-3.817-4.49-5.718-6.727c0.011-0.021,0.013-0.026,0.017-0.03c0.003-0.003,0.008-0.005,0.013-0.006
		c0.011-0.002,0.021-0.003,0.032-0.004c0.005,0,0.011,0,0.016,0s0.011,0,0.016,0c0.016,0,0.032-0.001,0.048-0.001
		c4.88,0,9.76,0,14.64,0c0.011,0,0.021,0,0.032,0c0.005,0,0.011,0,0.016,0s0.01,0,0.016-0.001c0.005,0,0.011,0,0.016-0.001
		c0.005-0.001,0.011-0.002,0.015-0.004c0.005-0.002,0.009-0.005,0.024-0.013c0-1.543,0-3.092,0-4.656c-6.306,0-12.607,0-18.909,0
		c-1.698-1.997-3.389-3.986-5.099-5.998c18.708,0,37.386,0,56.063,0c-0.06,0.114-5.542,5.621-5.942,5.969
		c-5.952,0-11.918,0-17.895,0c0,4.425,0,8.838,0,13.266c6.412,0,12.819,0,19.221,0c0.009,0.019,0.012,0.023,0.013,0.028
		c0.001,0.005,0.002,0.013,0,0.015c-2.393,2.381-4.786,4.762-7.208,7.171c-2.655,0-5.358,0-8.062,0
		c-4.049,3.51-8.094,7.016-12.135,10.518c-0.016-0.007-0.021-0.008-0.026-0.012c-0.004-0.003-0.006-0.007-0.008-0.011
		c-0.002-0.005-0.003-0.011-0.003-0.016c-0.001-0.006,0-0.011-0.001-0.017c0-0.011,0-0.021,0-0.031c0-6.454,0-12.908-0.001-19.361
		c0-0.006,0-0.011,0-0.016c0-0.006,0-0.012-0.001-0.017s-0.003-0.01-0.005-0.016C27.764,29.947,27.762,29.942,27.751,29.921z"/>
</g>
</svg>
