<svg id="Layer_1" data-name="Layer 1" xmlns="http://www.w3.org/2000/svg" viewBox="0 0 676.63 710" height="64" width="64"><defs><style>.cls-1{fill:#1b3767;}.cls-2{fill:#475d84;}.cls-3{fill:#465d83;}.cls-4{fill:#70819f;}.cls-5{fill:#98a5ba;}.cls-6{fill:#7586a3;}.cls-7{fill:#a6b1c3;}.cls-8{fill:#455c82;}.cls-9{fill:#9aa6bb;}.cls-10{fill:#6c7e9d;}.cls-11{fill:#fefdfd;}.cls-12{fill:#fdfcfd;}.cls-13{fill:#f5f5f7;}.cls-14{fill:#fdfdfd;}.cls-15{fill:#fdfcfc;}.cls-16{fill:#26406e;}.cls-17{fill:#203b6a;}.cls-18{fill:#7c8ba7;}.cls-19{fill:#fcfdfd;}.cls-20{fill:#fefefe;}.cls-21{fill:#1f3b69;}.cls-22{fill:#1e3969;}.cls-23{fill:#7c8ca7;}.cls-24{fill:#7f8da8;}.cls-25{fill:#364f79;}.cls-26{fill:#8997b0;}.cls-27{fill:#b9c0cf;}.cls-28{fill:#1d3968;}.cls-29{fill:#1e3a69;}.cls-30{fill:#1e3968;}.cls-31{fill:#1f3a69;}.cls-32{fill:#1c3868;}</style></defs><title>FCDB</title><path class="cls-1" d="M320.12,709.19q-129-7.91-223.92-95.49C52,572.77,20.8,523.2,1.25,466.26.87,465.16.42,464.09,0,463c1.08-.86,2-2.08,3.25-2.52q61.08-22.22,122.21-44.28a3.41,3.41,0,0,1,1-.14C164.71,517,235.59,572.27,345.17,574,448,566.3,514.65,511.85,549.93,415.75l126.7,45.87c-2.36,6.73-4.37,13.36-7,19.75Q601.91,647.89,429.14,697.71C405.42,704.56,381,708,356.35,709.19l-3.06-.08h-3l-2.09.88h-13l-9.07-.93-4,0ZM5.45,464.15C48,598,181.81,711.05,351.69,705,503,699.6,628.93,596.33,671.05,464.27L552.53,421.35C517,514.59,451.43,568.14,351.79,578,239,579.47,165.05,524.53,123.55,421.39Z"/><path class="cls-1" d="M355.29.9c157.44,8,279.58,116.89,319.77,243.73L548.71,290.27C509.46,191.42,438.92,138,331.73,136c-101,7.34-167.46,60.42-203.92,154.33L1.43,244.55C42.08,115.83,165.83,8.69,321.15.87l5,0,5,.12,10-1h6l3.07.92,2-.12Zm314.12,241C627.47,110.84,484-13.9,297.81,7.14c-149.58,16.9-258.2,128-290.45,235l117.53,42.53C164.63,189.3,233.5,132.64,338.17,132.62c104.87,0,173.82,56.86,213.21,152.1Z"/><path class="cls-2" d="M341.24,0l-10,1a5.25,5.25,0,0,0,0-1Z"/><path class="cls-3" d="M326.17,709.07l9.07.93h-9A4.86,4.86,0,0,0,326.17,709.07Z"/><path class="cls-4" d="M331.24,0a5.25,5.25,0,0,1,0,1l-5-.12a7.9,7.9,0,0,0,.07-.85Z"/><path class="cls-5" d="M326.24,0a7.9,7.9,0,0,1-.07.85l-5,0a4.28,4.28,0,0,0,.09-.87Z"/><path class="cls-6" d="M326.17,709.07a4.86,4.86,0,0,1,.07.93h-4a5.43,5.43,0,0,0,0-.9Z"/><path class="cls-7" d="M355.29.9l-3-.1c0-.27-.07-.53-.1-.8h3A1.46,1.46,0,0,0,355.29.9Z"/><path class="cls-8" d="M350.31.92,347.24,0h3A4.75,4.75,0,0,0,350.31.92Z"/><path class="cls-9" d="M353.29,709.11l3.06.08c0,.27-.07.54-.11.81h-3A4.39,4.39,0,0,1,353.29,709.11Z"/><path class="cls-10" d="M353.29,709.11a4.39,4.39,0,0,0-.05.89h-3a6.4,6.4,0,0,1,.09-.88Z"/><path class="cls-4" d="M350.31.92a4.75,4.75,0,0,1-.07-.92h2c0,.27.07.53.1.8Z"/><path class="cls-8" d="M350.33,709.12a6.4,6.4,0,0,0-.09.88h-2Z"/><path class="cls-9" d="M322.2,709.1a5.43,5.43,0,0,1,0,.9h-2a7.54,7.54,0,0,1-.12-.81Z"/><path class="cls-1" d="M332.29,566.27c-27.56-1.22-54-7.07-78.8-19.42a157.91,157.91,0,0,1-44.62-33.18,17.31,17.31,0,0,1-5.15-11.33c-1.56-22.24-3.54-44.44-5.38-66.66C194,383.33,182,333,158.43,285.79c-3.57-7.15-4.1-13.57-.85-20.4,13.44-28.22,31.11-53.06,57.54-70.73,1.37-.91,2.8-1.74,4.62-2.85v70.52h46.41V203h49v7.1q0,23.49,0,47c0,1.64.26,3.28.4,4.93l21.72,1.06c-6.1,14.91-11.93,29.19-17.77,43.48,10.08-.19,13.44-7,15.15-15.88.93,7.56.8,14.6,1,21.64.07,2.63-.87,3.72-3.25,4.6-8.66,3.22-12.57,8.6-12.46,16.6s4.15,13.09,12.75,16.5c1.11.44,2.61,1.77,2.65,2.73.24,5.91.12,11.83.12,18.84-5.65-2.33-10.4-4.17-15.06-6.23-4.85-2.15-9.49-4.84-14.44-6.71-16.52-6.26-29.93-2.73-39.71,11.87-5.16,7.7-8.68,16.7-11.84,25.5-4,11-6.36,22.62-10.22,33.69-2.47,7.09-7.43,12.67-15.1,14.83-4.12,1.15-8.36,1.41-11.47-2.42-4.85-6-1.41-17,5.95-19.31,2.27-.71,4.53-1.44,6.83-2.17-1.44-5.39-4.85-6.8-9.3-6.32-10.24,1.09-19.16,11.19-19.16,21.6s6.9,17.65,18.48,19c1.32.16,2.78-.16,4,.3,3,1.13,6.51,1.9,8.62,4q38.47,38.53,76.5,77.51c9,9.25,17.45,19.07,26.8,29.34ZM250.61,329.05c-5.92,5.53-6,6.77,1,9.65a48.23,48.23,0,0,0,14.81,3.5c5.73.4,9.77-3.16,10.67-7.79,1-4.9-.92-8.32-6.36-11.14-2.79-1.45-5.79-2.51-8.53-4-.94-.52-1.39-1.93-2.07-2.93,1.12-.5,2.41-1.63,3.31-1.38a53.08,53.08,0,0,1,10.08,3.77c1.94,1,3.24,2.18,5.05,0s1.6-4.12-.33-6.13c-4.21-4.37-16.23-7.16-21.46-4.16a13.69,13.69,0,0,0-5.54,7c-1.62,4.87,1.2,8.73,7.17,11.45,3.37,1.54,6.73,3.11,10.3,4.76C265,336.25,260.86,335.48,250.61,329.05Zm-36-11.12c4.37,1.47,8.22,2.55,11.89,4.07,2.74,1.13,4.44.58,5.42-2.13s.15-4.62-2.55-5.55c-3.45-1.18-6.95-2.21-10.42-3.35a6.9,6.9,0,0,1-1.42-1l1.48-3.89c4.39,1.42,8.36,2.56,12.22,4,2.49.93,4.35,1.26,5.52-1.83s0-4.76-2.82-5.72c-5.18-1.75-10.33-3.64-15.59-5.12-1.13-.32-3.55.53-3.89,1.41-3.52,9.22-6.74,18.55-10.19,28.27l22.63,8.31,2.62-7.59L213,322.19C213.64,320.52,214.08,319.34,214.62,317.93Zm77.44,28.73c.58-3.58,1.07-6.65,1.59-9.88,2,.11,3.83.27,5.64.3a39.1,39.1,0,0,0,5.93-.12c5.43-.75,8.69-4,9.66-9.26.85-4.64-1.26-9.77-6.09-11.38-5.41-1.8-11.26-2.48-17-3.05-1.3-.13-3.87,2-4.1,3.42-1.62,9.58-2.77,19.24-4.08,29Zm-45.71-26.14c-2.57-.66-4.75-1.54-7-1.64-1.2-.06-2.46,1.21-3.69,1.88.77,1.19,1.28,2.93,2.37,3.44,2.16,1,4.63,1.33,7.59,2.09C245.92,324.11,246.12,322.45,246.35,320.52Z"/><path class="cls-1" d="M362,262q.12-26,.25-52c0-2.15,0-4.31,0-7h48.5v59.51h46.52V192.31a13.65,13.65,0,0,1,2.41,1c27.94,18,46.57,43.72,60.09,73.53,2.87,6.31,1.84,12.16-1.26,18.56C502.23,319,489.07,353.91,484.45,391.2s-7.58,74.49-11.51,111.72a17.06,17.06,0,0,1-3.84,9.16c-25.72,28.35-58.2,44.33-95.52,50.8-10.29,1.79-20.83,2.1-31.26,3.09,3.62-4.51,6.91-9.34,10.92-13.47q45.57-47,91.49-93.58c1.71-1.73,4.9-2.72,7.44-2.8,16-.52,25.17-11.69,22-27.22-2-9.76-13.58-17.06-21.74-13.42-1.71.77-2.81,2.92-4.19,4.43a36.37,36.37,0,0,0,4.19,3.58c1.22.77,2.86.87,4.16,1.56,3.93,2.08,6.41,7.45,5.43,11.41-1.09,4.42-4.37,6.87-9.8,6.55-10.6-.61-17.67-6.57-21.27-16.14a187.4,187.4,0,0,1-6.69-23.37C421,389.44,417,375.75,406,365.55c-7.92-7.32-16.84-13.22-28.23-9.41-8.11,2.71-15.7,6.92-23.61,10.27-4,1.69-8.15,2.95-12.48,4.49V350.47c8.89-2.32,15-7.34,15.2-16.84.24-10.2-6.28-15.44-14.89-17.87V290.88c2.25,3.66,3.36,7.62,5.48,10.95,2.31,3.64,6.38,4.52,11.22,4.57a146.34,146.34,0,0,1-17.13-43.56c2.45,0,4.43.08,6.41,0C352.61,262.59,357.29,262.28,362,262Zm26.38,71.33c3.63-3.89,5.39-8.66,2.38-13.13a14.85,14.85,0,0,0-9-5.89c-4.78-.73-9.94.08-14.76,1.09-1.73.37-4.28,3.36-4.14,4.94.86,9.54,2.39,19,3.74,28.88l8.34-1.36c-.32-4-.59-7.35-.84-10.43,4.39-1.43,7.33-.27,8.79,3.29,2.67,6.56,7.55,6.15,13.78,4.44Zm52.1.14c8.78,1.29,16.62.15,23.56-4.94,3.7-2.72,5.14-6.47,3.64-11s-4.71-6.74-9.45-6.5c-3.31.17-6.6.85-9.9.86-1.72,0-3.44-.95-5.16-1.47,1.38-1.38,2.57-3.59,4.19-4,3.63-.87,7.48-.84,11.54-1.21,2-4,1.42-6.54-2.35-7.06-7.4-1-14.25.62-19.81,5.91-3,2.84-3.22,6.57-2,10.18s3.92,5.91,7.87,5.87c3.79,0,7.58-.71,11.38-.74,1.54,0,3.1.94,4.65,1.44-1.11,1.24-2,3.25-3.37,3.58-4.44,1.1-9,1.6-13.78,2.36C441.22,328.58,440.9,330.67,440.46,333.47Zm-25.66,8.91,8.68-1.78c-1.51-6.25-3-12-4.29-17.81-1.52-6.58-1.49-6.65,5.08-8.17,2.81-.66,5.1-1.38,4-5.11-.91-3.18-2.82-3.54-5.72-2.85-7.71,1.86-15.46,3.65-23.25,5.16-2.63.51-3.9,1.17-3.28,4.11.58,2.74,1.85,4.23,4.76,3.69,2.59-.48,5.16-1.09,8-1.69C410.76,325.91,412.68,333.74,414.8,342.38Z"/><path class="cls-11" d="M362,262c-4.69.28-9.37.59-14.06.82-2,.1-4,0-6.41,0a146.34,146.34,0,0,0,17.13,43.56c-4.84,0-8.91-.93-11.22-4.57-2.12-3.33-3.23-7.29-5.48-10.95v24.88c8.61,2.43,15.13,7.67,14.89,17.87-.22,9.5-6.31,14.52-15.2,16.84V370.9c4.33-1.54,8.5-2.8,12.48-4.49,7.91-3.35,15.5-7.56,23.61-10.27,11.39-3.81,20.31,2.09,28.23,9.41,11,10.2,15.05,23.89,18.34,37.95A187.4,187.4,0,0,0,431,426.87c3.6,9.57,10.67,15.53,21.27,16.14,5.43.32,8.71-2.13,9.8-6.55,1-4-1.5-9.33-5.43-11.41-1.3-.69-2.94-.79-4.16-1.56a36.37,36.37,0,0,1-4.19-3.58c1.38-1.51,2.48-3.66,4.19-4.43,8.16-3.64,19.76,3.66,21.74,13.42,3.14,15.53-6,26.7-22,27.22-2.54.08-5.73,1.07-7.44,2.8q-45.94,46.6-91.49,93.58c-4,4.13-7.3,9-10.92,13.47l-10,.3,4-.18c-9.35-10.27-17.78-20.09-26.8-29.34q-38-39-76.5-77.51c-2.11-2.11-5.64-2.88-8.62-4-1.18-.46-2.64-.14-4-.3-11.58-1.38-18.49-8.5-18.48-19s8.92-20.51,19.16-21.6c4.45-.48,7.86.93,9.3,6.32-2.3.73-4.56,1.46-6.83,2.17-7.36,2.31-10.8,13.32-5.95,19.31,3.11,3.83,7.35,3.57,11.47,2.42,7.67-2.16,12.63-7.74,15.1-14.83C248,418.62,250.45,407,254.4,396c3.16-8.8,6.68-17.8,11.84-25.5,9.78-14.6,23.19-18.13,39.71-11.87,4.95,1.87,9.59,4.56,14.44,6.71,4.66,2.06,9.41,3.9,15.06,6.23,0-7,.12-12.93-.12-18.84,0-1-1.54-2.29-2.65-2.73-8.6-3.41-12.64-8.53-12.75-16.5s3.8-13.38,12.46-16.6c2.38-.88,3.32-2,3.25-4.6-.2-7-.07-14.08-1-21.64-1.71,8.87-5.07,15.69-15.15,15.88,5.84-14.29,11.67-28.57,17.77-43.48L315.54,262ZM328.23,502.08,328,500.9c.88-1.19,1.55-2.66,2.68-3.53,4.39-3.38,5.42-7.73,5.38-13.15-.22-30.65-.17-61.31,0-92,0-3.75-1-6-4.59-7.05-7.63-2.29-15.15-5-22.89-6.84C297,375.66,286,376.45,277,385.52c-5.9,5.93-9.51,13.14-11.88,21.07-5.23,17.51-11.55,34.39-27.36,46L327,543.37l7.51-6.74-.61-1.48L328,536.83l-1.1-.83,6.93-10.07-1.29-.86-4.41,2.74c-.94-7.21-.9-7.15,3.75-11.17.93-.8,1.34-2.21,2-3.33l-1.27-.82-3.86,2.14c-4.89-6.67,4.05-9.46,5.33-15.88Zm20-.05-3.68-1.87-1,.89c.68,1.14,1.09,2.73,2.09,3.34,4.08,2.52,4.59,6,3.43,10.48l-4.45-2.81-1.15,1c.79,1.26,1.29,3,2.43,3.7,3.93,2.48,4.18,5.89,3.23,10.11l-6.23-3.41c.83,6.08,9.57,7.39,6.21,13.7l-5.21-2.42-1.24,1.65,7.9,7.13Q395.5,497.83,440,452.61c-12.5-11.77-20.43-25.88-26.87-41a179.14,179.14,0,0,0-9.46-19.76c-7.15-12.29-16.94-16.91-30.68-14-10.67,2.28-21.08,5.79-31.77,8.8v6.67c0,28.83.11,57.65-.09,86.46,0,7.32-.24,14.31,6.61,19.1.6.42.8,1.41,1.18,2.14ZM335.81,323.5c-6,2.29-8.14,5.4-7.52,10.63.53,4.4,2.72,7.49,7.52,8.59Zm5.64-.05v19.21c4.6-1.76,6.48-5,6.66-9.25C348.3,328.85,346.54,325.4,341.45,323.45Z"/><path class="cls-1" d="M49.12,366.62c4.37,0,8.35-.2,12.29.13,1.14.1,2.12,1.8,3.24,2.68s2.64,2.67,3.62,2.45c1.45-.32,3.44-1.91,3.67-3.23.55-3,.18-6.26.18-9.63-2.3,1-4.42,2.3-6.71,2.77-9.18,1.89-15.86-2.52-17.07-11.91a50.21,50.21,0,0,1,.47-15.76c1.33-6.88,5.87-11.62,13.09-12.64a43.16,43.16,0,0,1,12.38-.08c7.84,1.19,13.06,6.07,13.65,14.34A204.5,204.5,0,0,1,87.79,368c-.79,9-7.38,13.78-16.58,14-2.66.05-5.34.09-8-.08C54,381.32,49.56,376.64,49.12,366.62Zm23.36-25.79c-.25-2-.1-3.95-.8-5.56s-2.24-2.84-3.42-4.24c-1.33,1.49-3.55,2.83-3.82,4.49a37.76,37.76,0,0,0,0,10.93c.18,1.36,2.3,3.62,3.23,3.48,1.48-.23,3.2-1.89,3.91-3.37C72.39,344.85,72.23,342.67,72.48,340.83Z"/><path class="cls-1" d="M597.08,344.44c3.24-.9,6.18-2.22,9.19-2.45,8-.6,13.33,3.34,14.43,11.22a51,51,0,0,1-.22,15.8c-1.82,10-8,14-19.82,14-11.33,0-18.08-4.09-19.1-14.1a185.71,185.71,0,0,1,0-33.76c.65-7.92,6.56-12.43,14.65-13.15a48,48,0,0,1,11.92.25c8,1.34,12,6.68,11.61,14.87a15.45,15.45,0,0,1-1.86.25c-4,0-8,0-12.23,0-.41-1-.56-2.09-1.21-2.67-1.2-1.08-2.9-2.74-4-2.49a5.46,5.46,0,0,0-3.24,3.68C596.72,338.74,597.08,341.74,597.08,344.44Zm-.25,18.34c.14,2.4-.13,4.52.49,6.34.51,1.47,2.1,2.57,3.21,3.84,1.31-1.22,3.58-2.32,3.75-3.69a56.83,56.83,0,0,0,0-12.3c-.11-1.11-2.09-2.83-3.21-2.83a4.8,4.8,0,0,0-3.51,2.67C596.85,358.75,597,361,596.83,362.78Z"/><path class="cls-1" d="M666.08,352.71c-1,6.48-1.37,12.84-3.05,18.84-2.4,8.54-7.75,11.52-18,11.45-10.76-.08-16.2-3.07-18.51-11.65a69.6,69.6,0,0,1,.35-38.86c2-6.51,6.66-10.17,13.63-10.46,2.81-.11,5.62-.19,8.42,0,7.6.4,12.54,4.54,14.26,11.73C664.62,340,665.14,346.42,666.08,352.71Zm-16.51-.11c-.36-5.7-.52-11.52-1.25-17.27a4.85,4.85,0,0,0-3.58-3.16c-1.24,0-3.5,2-3.54,3.21-.29,11.27-.33,22.55-.05,33.81,0,1.33,2.39,2.59,3.67,3.88,1.25-1.31,3.4-2.51,3.6-4C649.15,363.69,649.24,358.2,649.57,352.6Z"/><path class="cls-1" d="M28,340.33H16.61v-9.75c3.14-.63,6.23-1.07,9.2-1.93,1.35-.39,3.17-1.37,3.55-2.5,2.57-7.63,8.58-5.39,14.34-5.36v59.93H28Z"/><path class="cls-11" d="M5.45,464.15l118.1-42.76C165.05,524.53,239,579.47,351.79,578c99.64-9.86,165.19-63.41,200.74-156.65l118.52,42.92C628.93,596.33,503,699.6,351.69,705,181.81,711.05,48,598,5.45,464.15Zm274.73,225a3.28,3.28,0,0,0,.87.45c47.07,7.74,93.91,6.65,140.08-5.51,99.55-26.21,172.75-85.71,220.5-176.66,6.14-11.69,10.9-24.11,16.49-36.63l-99.6-36c-.54,1.07-.9,1.62-1.13,2.23a229.83,229.83,0,0,1-57.57,87.08c-35.38,33.61-77.15,54.44-125.41,62.08a243,243,0,0,1-55.22,2.16c-6.77-.84-13.61-1.28-20.28-2.6Q169.7,560.18,119.46,438.35c-.48-1.15-1.06-2.27-1.62-3.47L19.1,470.67c.32,1.18.42,1.82.65,2.42C54.14,561.31,114,625.68,200.21,665.14A299.31,299.31,0,0,0,280.18,689.17Z"/><path class="cls-11" d="M669.41,241.94l-118,42.78C512,189.48,443,132.61,338.17,132.62c-104.67,0-173.54,56.68-213.28,152.09L7.36,242.18C39.61,135.18,148.23,24,297.81,7.14,484-13.9,627.47,110.84,669.41,241.94Zm-13.86-6.18C618.06,126.85,495.41,6,317.29,16.28,233.77,21.09,161.8,53.7,101.62,111.75a331.46,331.46,0,0,0-81.15,123.9l98.26,35.55c43.65-95.29,115.77-149.88,220.93-149.39,104.1.49,175.21,55.4,218.11,149.28Z"/><path class="cls-12" d="M250.61,329.05c10.25,6.43,14.38,7.2,18.15,2.56-3.57-1.65-6.93-3.22-10.3-4.76-6-2.72-8.79-6.58-7.17-11.45a13.69,13.69,0,0,1,5.54-7c5.23-3,17.25-.21,21.46,4.16,1.93,2,2.19,3.89.33,6.13s-3.11,1-5.05,0a53.08,53.08,0,0,0-10.08-3.77c-.9-.25-2.19.88-3.31,1.38.68,1,1.13,2.41,2.07,2.93,2.74,1.54,5.74,2.6,8.53,4,5.44,2.82,7.32,6.24,6.36,11.14-.9,4.63-4.94,8.19-10.67,7.79a48.23,48.23,0,0,1-14.81-3.5C244.64,335.82,244.69,334.58,250.61,329.05Z"/><path class="cls-12" d="M214.62,317.93c-.54,1.41-1,2.59-1.62,4.26l16.52,5.66-2.62,7.59-22.63-8.31c3.45-9.72,6.67-19.05,10.19-28.27.34-.88,2.76-1.73,3.89-1.41,5.26,1.48,10.41,3.37,15.59,5.12,2.85,1,4,2.64,2.82,5.72s-3,2.76-5.52,1.83c-3.86-1.44-7.83-2.58-12.22-4L217.54,310a6.9,6.9,0,0,0,1.42,1c3.47,1.14,7,2.17,10.42,3.35,2.7.93,3.49,2.93,2.55,5.55s-2.68,3.26-5.42,2.13C222.84,320.48,219,319.4,214.62,317.93Z"/><path class="cls-12" d="M292.06,346.66l-8.42-1c1.31-9.76,2.46-19.42,4.08-29,.23-1.4,2.8-3.55,4.1-3.42,5.71.57,11.56,1.25,17,3.05,4.83,1.61,6.94,6.74,6.09,11.38-1,5.29-4.23,8.51-9.66,9.26a39.1,39.1,0,0,1-5.93.12c-1.81,0-3.61-.19-5.64-.3C293.13,340,292.64,343.08,292.06,346.66ZM294,331c4.56-1,8.1-1.59,11.36-2.83.64-.25.87-4.35.2-4.73-3-1.69-6.44-2.67-10.37-4.16C294.73,323.66,294.45,326.4,294,331Z"/><path class="cls-13" d="M246.35,320.52c-.23,1.93-.43,3.59-.7,5.77-3-.76-5.43-1.08-7.59-2.09-1.09-.51-1.6-2.25-2.37-3.44,1.23-.67,2.49-1.94,3.69-1.88C241.6,319,243.78,319.86,246.35,320.52Z"/><path class="cls-12" d="M388.36,333.33l8.32,11.83c-6.23,1.71-11.11,2.12-13.78-4.44-1.46-3.56-4.4-4.72-8.79-3.29.25,3.08.52,6.46.84,10.43l-8.34,1.36c-1.35-9.87-2.88-19.34-3.74-28.88-.14-1.58,2.41-4.57,4.14-4.94,4.82-1,10-1.82,14.76-1.09a14.85,14.85,0,0,1,9,5.89C393.75,324.67,392,329.44,388.36,333.33Zm-16.18-3.08c9.16-.72,11.49-2,11-5.75s-4.18-4.68-12-2.75C371.51,324.45,371.83,327.2,372.18,330.25Z"/><path class="cls-14" d="M440.46,333.47c.44-2.8.76-4.89,1.05-6.7,4.74-.76,9.34-1.26,13.78-2.36,1.34-.33,2.26-2.34,3.37-3.58-1.55-.5-3.11-1.45-4.65-1.44-3.8,0-7.59.71-11.38.74-3.95,0-6.63-2.34-7.87-5.87s-1-7.34,2-10.18c5.56-5.29,12.41-6.93,19.81-5.91,3.77.52,4.31,3.08,2.35,7.06-4.06.37-7.91.34-11.54,1.21-1.62.39-2.81,2.6-4.19,4,1.72.52,3.44,1.48,5.16,1.47,3.3,0,6.59-.69,9.9-.86,4.74-.24,8,2,9.45,6.5s.06,8.28-3.64,11C457.08,333.62,449.24,334.76,440.46,333.47Z"/><path class="cls-15" d="M414.8,342.38c-2.12-8.64-4-16.47-6-24.45-2.81.6-5.38,1.21-8,1.69-2.91.54-4.18-.95-4.76-3.69-.62-2.94.65-3.6,3.28-4.11,7.79-1.51,15.54-3.3,23.25-5.16,2.9-.69,4.81-.33,5.72,2.85,1.06,3.73-1.23,4.45-4,5.11-6.57,1.52-6.6,1.59-5.08,8.17,1.33,5.79,2.78,11.56,4.29,17.81Z"/><path class="cls-1" d="M348.94,501c-.38-.73-.58-1.72-1.18-2.14-6.85-4.79-6.66-11.78-6.61-19.1.2-28.81.09-57.63.09-86.46v-6.67c10.69-3,21.1-6.52,31.77-8.8,13.74-2.93,23.53,1.69,30.68,14a179.14,179.14,0,0,1,9.46,19.76c6.44,15.12,14.37,29.23,26.87,41Q395.35,498,350.56,543.49l-7.9-7.13,1.24-1.65,5.21,2.42c3.36-6.31-5.38-7.62-6.21-13.7l6.23,3.41c.95-4.22.7-7.63-3.23-10.11-1.14-.72-1.64-2.44-2.43-3.7l1.15-1,4.45,2.81c1.16-4.48.65-8-3.43-10.48-1-.61-1.41-2.2-2.09-3.34l1-.89,3.68,1.87.63.49C348.88,502,348.91,501.53,348.94,501Z"/><path class="cls-1" d="M328.23,502.08l5.81-3.33c-1.28,6.42-10.22,9.21-5.33,15.88l3.86-2.14,1.27.82c-.65,1.12-1.06,2.53-2,3.33-4.65,4-4.69,4-3.75,11.17l4.41-2.74,1.29.86L326.87,536l1.1.83,5.89-1.68.61,1.48L327,543.37l-89.2-90.76c15.81-11.63,22.13-28.51,27.36-46,2.37-7.93,6-15.14,11.88-21.07,9-9.07,20-9.86,31.56-7.15,7.74,1.82,15.26,4.55,22.89,6.84,3.56,1.06,4.61,3.3,4.59,7.05-.16,30.65-.21,61.31,0,92,0,5.42-1,9.77-5.38,13.15-1.13.87-1.8,2.34-2.68,3.53l-.45,1.58Z"/><path class="cls-16" d="M335.81,323.5v19.22c-4.8-1.1-7-4.19-7.52-8.59C327.67,328.9,329.84,325.79,335.81,323.5Z"/><path class="cls-17" d="M341.45,323.45c5.09,1.95,6.85,5.4,6.66,10-.18,4.29-2.06,7.49-6.66,9.25Z"/><path class="cls-11" d="M348.94,501c0,.49-.06,1-.08,1.48l-.63-.49Z"/><path class="cls-18" d="M328.23,502.08l-.69.4.45-1.58Z"/><path class="cls-19" d="M72.48,340.83c-.25,1.84-.09,4-.91,5.73-.71,1.48-2.43,3.14-3.91,3.37-.93.14-3-2.12-3.23-3.48a37.76,37.76,0,0,1,0-10.93c.27-1.66,2.49-3,3.82-4.49,1.18,1.4,2.72,2.64,3.42,4.24S72.23,338.85,72.48,340.83Z"/><path class="cls-14" d="M596.83,362.78c.18-1.75,0-4,.76-6a4.8,4.8,0,0,1,3.51-2.67c1.12,0,3.1,1.72,3.21,2.83a56.83,56.83,0,0,1,0,12.3c-.17,1.37-2.44,2.47-3.75,3.69-1.11-1.27-2.7-2.37-3.21-3.84C596.7,367.3,597,365.18,596.83,362.78Z"/><path class="cls-20" d="M649.57,352.6c-.33,5.6-.42,11.09-1.15,16.5-.2,1.46-2.35,2.66-3.6,4-1.28-1.29-3.64-2.55-3.67-3.88-.28-11.26-.24-22.54.05-33.81,0-1.18,2.3-3.2,3.54-3.21a4.85,4.85,0,0,1,3.58,3.16C649.05,341.08,649.21,346.9,649.57,352.6Z"/><path class="cls-1" d="M319.19,588.34a243,243,0,0,0,55.22-2.16c48.26-7.64,90-28.47,125.41-62.08A229.83,229.83,0,0,0,557.39,437c.23-.61.59-1.16,1.13-2.23l99.6,36c-5.59,12.52-10.35,24.94-16.49,36.63-47.75,90.95-121,150.45-220.5,176.66-46.17,12.16-93,13.25-140.08,5.51a3.28,3.28,0,0,1-.87-.45c.68-7.28-2.4-15.46,5.05-21.11l7.58,1c1.79-7.38,3.46-14.25,5.12-21.11,5.52,1.07,9.77-.77,13.22-5.21,1.67-2.16,4-3.82,6-5.7.36,7,.36,13.94,1.16,20.84,1.11,9.53,6.69,14.57,16.83,14.81,9.39.23,17-1.6,18.76-12.85a123.93,123.93,0,0,0,.54-31.09c-.95-9.33-6.57-13.13-16-14-8.38-.76-14.9,2.1-19.06,9.65a43.1,43.1,0,0,1-.58-5.16C318.9,608.93,319.06,598.63,319.19,588.34Zm90,75.45a6.67,6.67,0,0,0,1.62.12c6-1.75,12.12-3.39,18.1-5.34C437,655.94,441,651,441,644c.06-8.24-3.66-13.4-11.78-16.36a54,54,0,0,0,2.3-5.32c3-9.77-5.09-19.92-14.85-18.07-7.58,1.43-15,3.93-23,6.11C399,628.59,404.08,646.3,409.15,663.79Zm57.52-44.18c6.92-5.59,10-5.12,14.18,2.12,1.83,3.16,3.37,6.51,5.52,9.43a5,5,0,0,0,4.45,1.51c3.06-1,5.85-2.88,8.2-4.11-2.81-4.63-5.36-8.79-7.87-13-2.66-4.44-5.44-8.7-11.81-7.84,4.13-7.52,2.14-13.85-2.52-19.72a11.24,11.24,0,0,0-13.52-3.59c-7.63,3-14.85,7.09-22.55,10.86,8.66,17,17.05,33.45,25.54,50.09l10.55-5.69Zm87.21-90c-4.66-1.82-8.12-4.05-11.77-4.41-7.7-.77-17,7.37-18.83,15.66a13.88,13.88,0,0,0,3,12.59c6.48,7.83,13.69,9.05,23.5,4.14,3.07-1.53,6.41-3.43,9.63-3.43,2.3,0,5.52,2.44,6.57,4.64.75,1.57-.79,5.53-2.47,6.6s-5,.41-7.52,0c-1.16-.17-2.15-1.42-3.44-2.33l-7.73,8.21c7.74,9,16.24,9.47,24.27,1.61a41.58,41.58,0,0,0,4.61-5.23c4.84-6.65,5-13.65.61-19.29-5.84-7.49-11.38-9.12-20-5.72-3.85,1.51-7.62,3.24-11.44,4.82s-6.76-.25-8.38-3.28c-.82-1.52-.34-4.51.7-6.09,2-3,4.86-2.64,7.9-.93a4.55,4.55,0,0,0,4.08-.47C549.19,535.1,550.8,532.93,553.88,529.59Zm-54.07,42.75,15.64-12c-2.13-2.71-4-5.13-6.14-7.82l-25.16,19.18,34.1,44.47L544,596.49,538,588.66l-16.34,12.26-8.26-11.06,14.44-11.34c-2.06-2.75-3.92-5.21-5.88-7.82l-14.8,11C504.6,578.52,502.47,575.78,499.81,572.34Zm75.77-85.82-8.48-5.22-19.48,30.32,8.17,5.15,7-9.77L593,526.45c8.48,5.46,8.49,5.46,13.69-3.1a11.52,11.52,0,0,0,.64-1.84L569.16,496.8Z"/><path class="cls-1" d="M319.19,588.34c-.13,10.29-.29,20.59-.35,30.88a43.1,43.1,0,0,0,.58,5.16L317.17,637c-2,1.88-4.35,3.54-6,5.7-3.45,4.44-7.7,6.28-13.22,5.21,2.32-10.82,4.65-21.63,7.09-33L288.34,611c-5.08,11.1-10,21.91-15,32.73l-.64-.39V607.48l-16.37-3.69c-4.1,18.39-8.11,36.42-12.18,54.7L255,660.72l8.85-38.83a18.23,18.23,0,0,1,.4,2q0,15.48,0,31c0,8.25,0,8.25,8,9.92.14,0,.3-.1.92-.31,4.95-10.27,10-20.86,15.14-31.45h1c-2.12,10-4.09,20-6.47,29.89-.68,2.82-.38,4.35,2.4,5.16-7.45,5.65-4.37,13.83-5.05,21.11a299.31,299.31,0,0,1-80-24C114,625.68,54.14,561.31,19.75,473.09c-.23-.6-.33-1.24-.65-2.42l98.74-35.79c.56,1.2,1.14,2.32,1.62,3.47q50.28,121.73,179.45,147.39C305.58,587.06,312.42,587.5,319.19,588.34ZM171.27,596l-1,0c2.24-7.47,4.5-14.93,6.71-22.41,3.41-11.58,3.4-11.59-6.74-18.41-.24-.16-.62-.11-1.37-.22l-32.62,44.49,8.85,6.58,19.22-26,1,1c-2.84,9.49-5.8,18.94-8.41,28.5-.47,1.73-.15,4.49,1,5.67,2.32,2.46,5.42,4.19,8.5,6.43l33.08-45.16c-3.1-2.24-6-4.29-8.94-6.43ZM109.13,480.6,61.9,511c4.27,6.34,8.13,12.51,12.43,18.35,4,5.41,9.78,7,16,5.16a64.57,64.57,0,0,0,28-17.37c5.35-5.56,6-12.08,2.06-18.74C117,492.51,113.16,486.89,109.13,480.6Zm114.75,170c3.38-18.72,6.75-37.41,10.18-56.37L221,588l-37.11,44.29c2.94,1.49,5.3,3.19,7.92,3.85a6.52,6.52,0,0,0,5.39-1.33c5.68-6.11,5.57-6.24,13-2.72,1.62.77,3.18,1.65,4.7,2.44C212.12,647.5,212.23,647.69,223.88,650.56Zm-121.41-84,9.4,9.86C123.67,558,144,555.81,161.76,548c-1.95-2.17-3.52-3.66-4.79-5.38-2.58-3.53-5.27-4-9.23-1.8-4.39,2.44-9.27,4-14.63,6.28,3.6-6.83,6.81-12.92,10.08-19.14L134,518.24C125.38,536.26,121.24,556,102.47,566.55Z"/><path class="cls-1" d="M655.55,235.76l-97.78,35.33c-42.9-93.88-114-148.79-218.11-149.28-105.16-.49-177.28,54.1-220.93,149.39L20.47,235.65a331.46,331.46,0,0,1,81.15-123.9c60.18-58,132.15-90.66,215.67-95.47C495.41,6,618.06,126.85,655.55,235.76Zm-66.23-24.92c6.95,2.23,12.45-.29,16.76-5.6,4.19-5.16,2.77-10.65-.2-15.77-3.4-5.86-7.14-11.54-10.93-17.61L547.5,201.71c4,6.28,7.46,12.13,11.34,17.69,7.95,11.37,21.89,10.15,28.46-2.35Zm-344.39-99a5.41,5.41,0,0,0,1.48.19c5.89-1.71,11.81-3.32,17.64-5.22,7.91-2.58,12.07-7.49,12.19-13.94.17-9.77-2.74-14-12-17.47a21.07,21.07,0,0,0,1.86-2.95c2.25-5.17,1.39-10.05-1.62-14.64-2.69-4.08-6.52-6.58-11.39-5.5-8,1.78-15.9,4.18-24.29,6.44C234.36,76.94,239.67,94.46,244.93,111.79Zm328.66,34.14c-9.52,8.81-18.61,17.33-27.82,25.72-5.57,5.08-8.47,5.53-11.48,2.23-2.83-3.1-1.82-6.32,3.53-11.25L565.54,137l-8.22-8.76c-10.56,9.79-20.93,18.89-30.67,28.61-6.74,6.73-6.44,14.06-.3,21.36a43.3,43.3,0,0,0,4.17,4.29c6,5.39,12.83,6.42,19,1.28,11.08-9.2,21.5-19.2,32.38-29ZM160.2,96.87c-15.44.94-25,15.81-17.63,28.55a129,129,0,0,0,16,21.44c7.3,8.08,15.24,8.26,23.89,1.82s10.94-14.7,5.13-23.88a161,161,0,0,0-16.72-21.56C168.24,100.3,163.82,99,160.2,96.87ZM119.6,134.8c-10,.31-14.85,5.54-18.64,11.77-3.33,5.47-3.09,11.65,1,16.28a174.56,174.56,0,0,0,21,20.31c8.68,6.9,16.84,5.55,24.23-2.49s8.09-16.16.57-24.32a175.86,175.86,0,0,0-19.56-17.6C125.44,136.5,121.51,135.64,119.6,134.8ZM301.52,86.59,315,85c1.4,3.82,2.69,7.37,4.11,11.26l12.23-1.52C325.51,79.62,319.84,65,314.15,50.29c-3.47-9-3.47-8.8-12.87-8.32-3.89.2-5.45,1.71-5.95,5.55-1.4,10.7-3.21,21.34-4.77,32-1,6.65-1.76,13.32-2.68,20.29l12-1.39C300.44,94.37,300.94,90.76,301.52,86.59Zm190.24,15.48c4.18-6.4,5.33-11.35,3.82-16-4.13-12.88-22.7-17.42-30.84-6.68-6.3,8.32-10.69,18.22-15.09,27.8a12.81,12.81,0,0,0,1.89,13.72c5,5.85,11.29,9.81,19.11,8.67s11.53-7.46,14.86-14.22L475.36,110c-1.78,2.52-3,5.25-5.13,6.94a9.91,9.91,0,0,1-6.77,2.18c-3.6-.49-4.3-4.21-3.08-6.68q6.87-14,14.87-27.33c.74-1.23,4.86-1.77,6.34-.86s2.35,4,2.38,6.17-1.35,4.28-2.15,6.54ZM98.14,204.68l9.76-15.8-8.36-5.09-9.9,15.34-10-6.38c2.09-3.38,4-6.46,5.91-9.51,4.79-7.52,4.8-7.52-3.2-11.72-.23-.12-.58,0-1.13,0L64.62,197.6l47.19,30,6.28-10.16Zm127.79-83.32-20.6-41,10.5-5.65L211.32,66,179.25,82.26l4.62,8.87,10.62-5.31,20.85,40.9ZM394.61,91.84C398,76.6,401.26,62,404.61,46.9l-11.77-2.25c-4.16,18.61-8.16,36.43-12.19,54.47l30.78,6.9,2.14-9.68Zm105.75,48.49,27.8-36.49-9.51-7.24L484.6,141l25.14,19.23c2.15-2.84,4-5.28,6-7.93Zm-157.42-100c-1,18.47-2,36.75-3.06,55.18,6,.36,10.92.79,15.87.93s10.15,0,15.34,0V87.33c-5.13-.33-9.75-.88-14.37-.87-3.94,0-4.73-1.89-4.43-5.26q.94-10.41,1.64-20.83c.43-6.57.72-13.15,1.08-20Z"/><path class="cls-21" d="M294,331c.47-4.61.75-7.35,1.19-11.72,3.93,1.49,7.34,2.47,10.37,4.16.67.38.44,4.48-.2,4.73C302.08,329.42,298.54,330,294,331Z"/><path class="cls-22" d="M372.18,330.25c-.35-3.05-.67-5.8-1-8.5,7.85-1.93,11.59-1,12,2.75S381.34,329.53,372.18,330.25Z"/><path class="cls-11" d="M288.34,633c-5.1,10.59-10.19,21.18-15.14,31.45-.62.21-.78.34-.92.31-8-1.67-8-1.67-8-9.92q0-15.48,0-31a18.23,18.23,0,0,0-.4-2L255,660.72l-10.78-2.23c4.07-18.28,8.08-36.31,12.18-54.7l16.37,3.69V643.3l.64.39c4.94-10.82,9.88-21.63,15-32.73L305,614.9c-2.44,11.38-4.77,22.19-7.09,33-1.66,6.86-3.33,13.73-5.12,21.11l-7.58-1c-2.78-.81-3.08-2.34-2.4-5.16C285.21,653,287.18,643,289.3,633l.8-2c0-.33.09-.65.14-1,.29-.72.59-1.44.89-2.15l-.62-.27-1.23,2.48a1.64,1.64,0,0,0,0,.93Z"/><path class="cls-11" d="M409.15,663.79c-5.07-17.49-10.19-35.2-15.46-53.41,8-2.18,15.42-4.68,23-6.11,9.76-1.85,17.87,8.3,14.85,18.07a54,54,0,0,1-2.3,5.32c8.12,3,11.84,8.12,11.78,16.36-.06,7-4.07,11.92-12.15,14.55-6,1.95-12.06,3.59-18.1,5.34A6.67,6.67,0,0,1,409.15,663.79ZM417.87,653c4.66-1.6,10.13-1.81,10.58-7.32a12.84,12.84,0,0,0-3.67-9.42c-3.45-3.05-7.73-.92-11.46,1.23C414.8,642.51,416.23,647.39,417.87,653ZM411,629l1.72,1.29c2.81-2.42,6.6-4.37,8.05-7.43.9-1.9-1-7-3-7.94-2.86-1.36-6.89-.26-11-.2C408.44,620.44,409.7,624.7,411,629Z"/><path class="cls-11" d="M466.67,619.61l10.17,20.08-10.55,5.69c-8.49-16.64-16.88-33.1-25.54-50.09,7.7-3.77,14.92-7.84,22.55-10.86A11.24,11.24,0,0,1,476.82,588c4.66,5.87,6.65,12.2,2.52,19.72,6.37-.86,9.15,3.4,11.81,7.84,2.51,4.19,5.06,8.35,7.87,13-2.35,1.23-5.14,3.06-8.2,4.11a5,5,0,0,1-4.45-1.51c-2.15-2.92-3.69-6.27-5.52-9.43C476.68,614.49,473.59,614,466.67,619.61Zm-4.54-7.25c4-2.38,9.16-3.35,8.85-8.61a12.54,12.54,0,0,0-4.67-8.54c-4-2.73-7.65.69-11.37,3Z"/><path class="cls-11" d="M317.17,637l2.25-12.62c4.16-7.55,10.68-10.41,19.06-9.65,9.41.85,15,4.65,16,14a123.93,123.93,0,0,1-.54,31.09c-1.74,11.25-9.37,13.08-18.76,12.85-10.14-.24-15.72-5.28-16.83-14.81C317.53,650.94,317.53,644,317.17,637Zm11.7,6.58c.4,5.37.54,10.34,1.21,15.24.47,3.53,2.89,5.54,6.58,5.51s6.22-2.37,6.35-5.76c.37-9.88.38-19.79.12-29.68-.09-3.53-2.65-5.69-6.34-5.72s-6.1,1.86-6.57,5.5C329.57,633.74,329.28,638.86,328.87,643.58Z"/><path class="cls-11" d="M553.88,529.59c-3.08,3.34-4.69,5.51-6.74,7.12a4.55,4.55,0,0,1-4.08.47c-3-1.71-5.95-2-7.9.93-1,1.58-1.52,4.57-.7,6.09,1.62,3,4.57,4.86,8.38,3.28s7.59-3.31,11.44-4.82c8.64-3.4,14.18-1.77,20,5.72,4.39,5.64,4.23,12.64-.61,19.29a41.58,41.58,0,0,1-4.61,5.23c-8,7.86-16.53,7.38-24.27-1.61l7.73-8.21c1.29.91,2.28,2.16,3.44,2.33,2.52.38,5.72,1.13,7.52,0s3.22-5,2.47-6.6c-1.05-2.2-4.27-4.64-6.57-4.64-3.22,0-6.56,1.9-9.63,3.43-9.81,4.91-17,3.69-23.5-4.14a13.88,13.88,0,0,1-3-12.59c1.88-8.29,11.13-16.43,18.83-15.66C545.76,525.54,549.22,527.77,553.88,529.59Z"/><path class="cls-11" d="M499.81,572.34c2.66,3.44,4.79,6.18,7.3,9.41l14.8-11c2,2.61,3.82,5.07,5.88,7.82l-14.44,11.34,8.26,11.06L538,588.66l6.06,7.83-25.76,19.66-34.1-44.47,25.16-19.18c2.12,2.69,4,5.11,6.14,7.82Z"/><path class="cls-11" d="M575.58,486.52l-6.42,10.28,38.16,24.71a11.52,11.52,0,0,1-.64,1.84c-5.2,8.56-5.21,8.56-13.69,3.1L562.75,507l-7,9.77-8.17-5.15L567.1,481.3Z"/><path class="cls-11" d="M164.29,580.05l-19.22,26-8.85-6.58L168.84,555c.75.11,1.13.06,1.37.22C180.35,562,180.36,562,177,573.59c-2.21,7.48-4.47,14.94-6.71,22.41l-.84,1.39.57.38,1.3-1.74,19.26-25.95c3,2.14,5.84,4.19,8.94,6.43l-33.08,45.16c-3.08-2.24-6.18-4-8.5-6.43-1.12-1.18-1.44-3.94-1-5.67,2.61-9.56,5.57-19,8.41-28.5.31-.87.62-1.74.94-2.61l-.82-.36C165.07,578.75,164.68,579.4,164.29,580.05Z"/><path class="cls-11" d="M109.13,480.6c4,6.29,7.88,11.91,11.31,17.76,3.9,6.66,3.29,13.18-2.06,18.74a64.57,64.57,0,0,1-28,17.37c-6.23,1.88-12,.25-16-5.16-4.3-5.84-8.16-12-12.43-18.35ZM75.87,515.69c4.12,9.25,7.6,10.72,15.94,6.25A111.65,111.65,0,0,0,107.3,512c7-5.39,6.88-10.65.17-16.75Z"/><path class="cls-11" d="M223.88,650.56c-11.65-2.87-11.76-3.06-9-16-1.52-.79-3.08-1.67-4.7-2.44-7.41-3.52-7.3-3.39-13,2.72a6.52,6.52,0,0,1-5.39,1.33c-2.62-.66-5-2.36-7.92-3.85L221,588l13,6.16C230.63,613.15,227.26,631.84,223.88,650.56ZM217.69,625l5.4-23.31-.89-.39L207.7,620.4Z"/><path class="cls-11" d="M102.47,566.55C121.24,556,125.38,536.26,134,518.24l9.24,9.76c-3.27,6.22-6.48,12.31-10.08,19.14,5.36-2.26,10.24-3.84,14.63-6.28,4-2.22,6.65-1.73,9.23,1.8,1.27,1.72,2.84,3.21,4.79,5.38-17.75,7.77-38.09,10-49.89,28.37Z"/><path class="cls-23" d="M164.29,580.05c.39-.65.78-1.3,1.16-1.95l.82.36c-.32.87-.63,1.74-.94,2.61Z"/><path class="cls-24" d="M171.27,596l-1.3,1.74-.57-.38.84-1.39Z"/><path class="cls-25" d="M288.34,633l1-2h.79l-.79,2h-1Z"/><path class="cls-11" d="M244.93,111.79c-5.26-17.33-10.57-34.85-16.11-53.09,8.39-2.26,16.27-4.66,24.29-6.44,4.87-1.08,8.7,1.42,11.39,5.5,3,4.59,3.87,9.47,1.62,14.64a21.07,21.07,0,0,1-1.86,2.95c9.24,3.43,12.15,7.7,12,17.47-.12,6.45-4.28,11.36-12.19,13.94-5.83,1.9-11.75,3.51-17.64,5.22A5.41,5.41,0,0,1,244.93,111.79Zm8.7-11.13c4.6-1,9.72-1.43,10.42-6.51a12.88,12.88,0,0,0-3.13-9.68c-3.52-3.46-8-1-12.1.8C250.47,90.55,252,95.56,253.63,100.66Zm-7-22.73c3-1.41,5.79-2.16,7.82-3.85,3.5-2.9,2.34-6.64.21-9.78-2.62-3.85-6.44-2.65-9.8-1.26-3.81,1.58-1.21,4.42-.73,6.68S245.57,74.43,246.66,77.93Z"/><path class="cls-11" d="M587.3,217.05c-6.57,12.5-20.51,13.72-28.46,2.35-3.88-5.56-7.33-11.41-11.34-17.69L595,171.86c3.79,6.07,7.53,11.75,10.93,17.61,3,5.12,4.39,10.61.2,15.77-4.31,5.31-9.81,7.83-16.76,5.6-.64.14-1.82.23-1.84.43C587.31,213.19,587.34,215.12,587.3,217.05ZM561,206.82c2.59,4.24,4.46,9.05,9.57,8.27a12.73,12.73,0,0,0,8.11-5.46c2.58-4.43-1.29-7.91-3.8-11.59Zm32.67-20.56c-3.27,2-6.41,3.83-9.43,5.83a4.15,4.15,0,0,0-1.91,2.54c-.13,3.74,6.18,7.84,9.89,6.61C599,199,599.58,194.23,593.67,186.26Z"/><path class="cls-11" d="M573.59,145.93l8.33,8.86c-10.88,9.82-21.3,19.82-32.38,29-6.19,5.14-13,4.11-19-1.28a43.3,43.3,0,0,1-4.17-4.29c-6.14-7.3-6.44-14.63.3-21.36,9.74-9.72,20.11-18.82,30.67-28.61l8.22,8.76-27.72,25.6c-5.35,4.93-6.36,8.15-3.53,11.25,3,3.3,5.91,2.85,11.48-2.23C555,163.26,564.07,154.74,573.59,145.93Z"/><path class="cls-11" d="M160.2,96.87c3.62,2.08,8,3.43,10.7,6.37a161,161,0,0,1,16.72,21.56c5.81,9.18,3.58,17.39-5.13,23.88s-16.59,6.26-23.89-1.82a129,129,0,0,1-16-21.44C135.2,112.68,144.76,97.81,160.2,96.87Zm20.18,41.27a12.35,12.35,0,0,0-.16-2.25,64.09,64.09,0,0,0-20.73-27.36c-1.31-1-5.13-.2-6.67,1.1s-2.87,4.76-2.18,6.38a66.51,66.51,0,0,0,19.85,26.33c1.34,1.07,4.58.89,6.34,0S179.61,139.12,180.38,138.14Z"/><path class="cls-11" d="M119.6,134.8c1.91.84,5.84,1.7,8.66,3.95a175.86,175.86,0,0,1,19.56,17.6c7.52,8.16,6.91,16.18-.57,24.32s-15.55,9.39-24.23,2.49a174.56,174.56,0,0,1-21-20.31c-4.13-4.63-4.37-10.81-1-16.28C104.75,140.34,109.55,135.11,119.6,134.8Zm23.33,35.3a7.47,7.47,0,0,0-.79-2.34,72,72,0,0,0-23.7-21.58c-1.74-1-5.45,0-7.43,1.35a5,5,0,0,0-.74,7.91,315.23,315.23,0,0,0,23.43,21.21C137.41,179.59,143,175.45,142.93,170.1Z"/><path class="cls-11" d="M301.52,86.59c-.58,4.17-1.08,7.78-1.65,11.85l-12,1.39c.92-7,1.72-13.64,2.68-20.29,1.56-10.68,3.37-21.32,4.77-32,.5-3.84,2.06-5.35,5.95-5.55,9.4-.48,9.4-.65,12.87,8.32,5.69,14.67,11.36,29.33,17.23,44.49L319.15,96.3c-1.42-3.89-2.71-7.44-4.11-11.26ZM312.68,76C310,68,307.52,60.76,305.06,53.47l-1,.22c-.72,7.65-1.43,15.3-2.18,23.39Z"/><path class="cls-11" d="M491.76,102.07l-9.94-5.16c.8-2.26,2.17-4.41,2.15-6.54s-.85-5.23-2.38-6.17-5.6-.37-6.34.86q-8,13.35-14.87,27.33c-1.22,2.47-.52,6.19,3.08,6.68a9.91,9.91,0,0,0,6.77-2.18c2.1-1.69,3.35-4.42,5.13-6.94l10.15,5.37c-3.33,6.76-7.05,13.08-14.86,14.22s-14.15-2.82-19.11-8.67a12.81,12.81,0,0,1-1.89-13.72c4.4-9.58,8.79-19.48,15.09-27.8,8.14-10.74,26.71-6.2,30.84,6.68C497.09,90.72,495.94,95.67,491.76,102.07Z"/><path class="cls-11" d="M98.14,204.68l20,12.8-6.28,10.16-47.19-30,16.6-26.09c.55,0,.9-.11,1.13,0,8,4.2,8,4.2,3.2,11.72-1.94,3-3.82,6.13-5.91,9.51l10,6.38,9.9-15.34,8.36,5.09Z"/><path class="cls-11" d="M225.93,121.36l-10.59,5.36-20.85-40.9-10.62,5.31-4.62-8.87L211.32,66l4.51,8.72-10.5,5.65Z"/><path class="cls-11" d="M394.61,91.84l19,4.5L411.43,106l-30.78-6.9c4-18,8-35.86,12.19-54.47l11.77,2.25C401.26,62,398,76.6,394.61,91.84Z"/><path class="cls-11" d="M500.36,140.33l15.41,12c-2,2.65-3.88,5.09-6,7.93L484.6,141l34-44.41,9.51,7.24Z"/><path class="cls-11" d="M342.94,40.32H355c-.36,6.9-.65,13.48-1.08,20q-.69,10.42-1.64,20.83c-.3,3.37.49,5.27,4.43,5.26,4.62,0,9.24.54,14.37.87v9.14c-5.19,0-10.27.11-15.34,0s-9.89-.57-15.87-.93C340.9,77.07,341.92,58.79,342.94,40.32Z"/><path class="cls-26" d="M587.3,217.05c0-1.93,0-3.86.18-5.78,0-.2,1.2-.29,1.84-.43Q588.31,213.95,587.3,217.05Z"/><path class="cls-27" d="M289.28,630.06l1.23-2.48.62.27c-.3.71-.6,1.43-.89,2.15A2,2,0,0,0,289.28,630.06Z"/><path class="cls-1" d="M289.28,630.06a2,2,0,0,1,1-.06c-.05.33-.1.65-.14,1h-.8A1.64,1.64,0,0,1,289.28,630.06Z"/><path class="cls-28" d="M417.87,653c-1.64-5.57-3.07-10.45-4.55-15.51,3.73-2.15,8-4.28,11.46-1.23a12.84,12.84,0,0,1,3.67,9.42C428,651.15,422.53,651.36,417.87,653Z"/><path class="cls-29" d="M411,629c-1.26-4.26-2.52-8.52-4.23-14.28,4.12-.06,8.15-1.16,11,.2,2,.93,3.89,6,3,7.94-1.45,3.06-5.24,5-8.05,7.43Z"/><path class="cls-30" d="M462.13,612.36l-7.19-14.19c3.72-2.27,7.35-5.69,11.37-3a12.54,12.54,0,0,1,4.67,8.54C471.29,609,466.1,610,462.13,612.36Z"/><path class="cls-1" d="M328.87,643.58c.41-4.72.7-9.84,1.35-14.91.47-3.64,2.93-5.53,6.57-5.5s6.25,2.19,6.34,5.72c.26,9.89.25,19.8-.12,29.68-.13,3.39-2.59,5.73-6.35,5.76s-6.11-2-6.58-5.51C329.41,653.92,329.27,649,328.87,643.58Z"/><path class="cls-1" d="M75.87,515.69l31.6-20.43c6.71,6.1,6.84,11.36-.17,16.75a111.65,111.65,0,0,1-15.49,9.93C83.47,526.41,80,524.94,75.87,515.69Z"/><path class="cls-31" d="M217.69,625l-10-4.56,14.5-19.14.89.39Z"/><path class="cls-32" d="M253.63,100.66c-1.6-5.1-3.16-10.11-4.81-15.39,4.15-1.85,8.58-4.26,12.1-.8a12.88,12.88,0,0,1,3.13,9.68C263.35,99.23,258.23,99.69,253.63,100.66Z"/><path class="cls-28" d="M246.66,77.93c-1.09-3.5-2-5.81-2.5-8.21s-3.08-5.1.73-6.68c3.36-1.39,7.18-2.59,9.8,1.26,2.13,3.14,3.29,6.88-.21,9.78C252.45,75.77,249.63,76.52,246.66,77.93Z"/><path class="cls-32" d="M561,206.82,574.88,198c2.51,3.68,6.38,7.16,3.8,11.59a12.73,12.73,0,0,1-8.11,5.46C565.46,215.87,563.59,211.06,561,206.82Z"/><path class="cls-29" d="M593.67,186.26c5.91,8,5.32,12.74-1.45,15-3.71,1.23-10-2.87-9.89-6.61a4.15,4.15,0,0,1,1.91-2.54C587.26,190.09,590.4,188.26,593.67,186.26Z"/><path class="cls-1" d="M180.38,138.14c-.77,1-1.78,3.39-3.55,4.24s-5,1-6.34,0A66.51,66.51,0,0,1,150.64,116c-.69-1.62.65-5.1,2.18-6.38s5.36-2.09,6.67-1.1a64.09,64.09,0,0,1,20.73,27.36A12.35,12.35,0,0,1,180.38,138.14Z"/><path class="cls-1" d="M142.93,170.1c.08,5.35-5.52,9.49-9.23,6.55a315.23,315.23,0,0,1-23.43-21.21,5,5,0,0,1,.74-7.91c2-1.32,5.69-2.33,7.43-1.35a72,72,0,0,1,23.7,21.58A7.47,7.47,0,0,1,142.93,170.1Z"/><path class="cls-31" d="M312.68,76l-10.8,1.09c.75-8.09,1.46-15.74,2.18-23.39l1-.22C307.52,60.76,310,68,312.68,76Z"/></svg>