<?xml version="1.0" encoding="UTF-8" standalone="no"?>
<svg
   xmlns:dc="http://purl.org/dc/elements/1.1/"
   xmlns:cc="http://creativecommons.org/ns#"
   xmlns:rdf="http://www.w3.org/1999/02/22-rdf-syntax-ns#"
   xmlns:svg="http://www.w3.org/2000/svg"
   xmlns="http://www.w3.org/2000/svg"
   xmlns:sodipodi="http://sodipodi.sourceforge.net/DTD/sodipodi-0.dtd"
   xmlns:inkscape="http://www.inkscape.org/namespaces/inkscape"
   width="64"
   height="64"
   viewBox="0 0 48 48.000001"
   version="1.1"
   id="svg150"
   sodipodi:docname="fierce.svg"
   inkscape:version="0.92.3 (2405546, 2018-03-11)">
  <metadata
     id="metadata156">
    <rdf:RDF>
      <cc:Work
         rdf:about="">
        <dc:format>image/svg+xml</dc:format>
        <dc:type
           rdf:resource="http://purl.org/dc/dcmitype/StillImage" />
        <dc:title></dc:title>
      </cc:Work>
    </rdf:RDF>
  </metadata>
  <defs
     id="defs154" />
  <sodipodi:namedview
     pagecolor="#ffffff"
     bordercolor="#666666"
     borderopacity="1"
     objecttolerance="10"
     gridtolerance="10"
     guidetolerance="10"
     inkscape:pageopacity="0"
     inkscape:pageshadow="2"
     inkscape:window-width="1920"
     inkscape:window-height="1017"
     id="namedview152"
     showgrid="false"
     units="px"
     inkscape:pagecheckerboard="true"
     inkscape:zoom="7.7679389"
     inkscape:cx="0.20441146"
     inkscape:cy="27.783913"
     inkscape:window-x="-8"
     inkscape:window-y="-8"
     inkscape:window-maximized="1"
     inkscape:current-layer="svg150" />
  <g
     id="#f47f32ff"
     transform="matrix(0.07328244,0,0,0.07328244,2.0152682,1.15e-6)">
    <path
       d="m 294.35,0 h 12.1 c 32.99,1.19 65.7,10.58 94.05,27.56 2.71,1.74 5.9,3 7.82,5.72 l -0.04,0.3 c -2.54,1.74 -5.06,3.52 -7.44,5.49 C 374.73,22.28 344.35,12.18 313.38,10.08 273.51,7.07 232.77,17.4 199.16,39.07 196.51,36.86 193.7,34.85 190.78,33.03 221.31,12.58 257.64,1.07 294.35,0 Z"
       id="path84"
       inkscape:connector-curvature="0"
       style="opacity:1;fill:#f47f32" />
    <path
       d="m 177.57,42.61 c 1.76,2.7 3.65,5.31 5.67,7.82 -20.07,16.05 -36.82,36.24 -48.84,58.96 -26.65,49.73 -28.84,111.64 -5.8,163.14 14.94,34.02 40.28,63.34 71.75,83.08 29.61,18.78 64.63,28.75 99.67,28.75 39.12,0.04 78.15,-12.52 109.76,-35.6 31.5,-22.73 55.63,-55.51 67.87,-92.38 14.04,-41.72 12.68,-88.37 -3.8,-129.18 -11.97,-29.96 -31.9,-56.64 -57.09,-76.77 2.02,-2.51 3.91,-5.12 5.67,-7.82 34.94,27.86 60.23,67.72 69.75,111.45 9.93,44.53 3.98,92.51 -17.09,133.03 -17.91,34.9 -46.54,64.19 -81,82.92 -43.17,23.79 -95.43,30.03 -143.1,17.76 -35.12,-8.95 -67.59,-27.93 -92.67,-54.09 -25.13,-25.89 -42.85,-58.89 -50.58,-94.13 -8.1,-36.95 -5.5,-76.26 7.84,-111.69 12.41,-33.37 34.24,-63.01 61.99,-85.25 z"
       id="path86"
       inkscape:connector-curvature="0"
       style="opacity:1;fill:#f47f32" />
    <path
       d="m 239.45,163.68 c 9.19,4.84 18.21,10.07 26.7,16.08 4.37,3.25 8.77,6.62 12.15,10.94 -5.94,-1.55 -11.95,-3.65 -18.19,-3.01 -2.17,0.09 -4.75,0.62 -6.46,-1.1 -7.41,-5.61 -11.49,-14.26 -14.2,-22.91 z"
       id="path88"
       inkscape:connector-curvature="0"
       style="opacity:1;fill:#f47f32" />
    <path
       d="m 333.82,179.77 c 8.49,-6.02 17.53,-11.26 26.74,-16.1 -2.82,9.02 -7.2,18.11 -15.21,23.62 -1.65,0.94 -3.64,0.38 -5.42,0.39 -6.24,-0.64 -12.25,1.44 -18.18,3.01 3.31,-4.35 7.73,-7.67 12.07,-10.92 z"
       id="path90"
       inkscape:connector-curvature="0"
       style="opacity:1;fill:#f47f32" />
  </g>
  <g
     id="#ffffffff"
     transform="matrix(0.07328244,0,0,0.07328244,2.0152682,1.15e-6)">
    <path
       d="m 148.92,7.04 c 3.39,0.19 6,2.49 8.74,4.21 11.27,6.9 22.08,14.53 33.12,21.78 2.92,1.82 5.73,3.83 8.38,6.04 18.14,13.89 36.22,28.22 51.06,45.72 13.52,15.28 24.5,32.95 31.35,52.21 7.04,19.67 10.34,40.44 12.91,61.09 -0.24,0.81 -0.5,1.62 -0.8,2.42 -4.65,-6.59 -9.17,-13.51 -15.66,-18.47 -7.33,-6.82 -15.72,-12.33 -23.91,-18.03 -10.4,-6.66 -21.23,-13.33 -28.89,-23.24 -5.42,-5.22 -9.38,-11.86 -11.51,-19.07 -3.2,-11.97 -5.29,-24.31 -10.23,-35.74 -5.45,-12.51 -12.02,-24.61 -20.24,-35.53 -2.02,-2.51 -3.91,-5.12 -5.67,-7.82 -5.44,-7.55 -11.45,-14.67 -17.51,-21.73 -3.61,-4.67 -8.7,-8.33 -11.14,-13.84 z"
       id="path93"
       inkscape:connector-curvature="0"
       style="opacity:1;fill:#ffffff" />
    <path
       d="m 442.3,11.27 c 2.76,-1.72 5.38,-4.05 8.79,-4.22 -1.93,4.43 -5.73,7.65 -8.88,11.2 -6.83,7.92 -13.67,15.87 -19.78,24.36 -1.76,2.7 -3.65,5.31 -5.67,7.82 -10.97,14.99 -19.95,31.68 -25.09,49.59 -3.21,10.85 -4.11,22.63 -10.17,32.44 -2,3.57 -5.03,6.36 -7.69,9.42 -8.62,11 -21.46,17.24 -32.52,25.35 -6.94,4.61 -13.64,9.61 -19.81,15.21 -6.49,4.88 -10.48,12.1 -15.61,18.21 -0.8,-3.58 0.58,-7.1 0.69,-10.67 2.46,-17.94 5.75,-35.9 11.87,-53 9.91,-28.04 28.72,-52.14 50.63,-71.88 9.98,-9.4 20.95,-17.65 31.78,-26.03 2.38,-1.97 4.9,-3.75 7.44,-5.49 11.41,-7.32 22.44,-15.25 34.02,-22.31 z"
       id="path95"
       inkscape:connector-curvature="0"
       style="opacity:1;fill:#ffffff" />
    <path
       d="m 399.17,127.05 c 1.12,-2.89 0.79,-6.65 3.81,-8.42 2.19,9.64 1.74,19.58 1.71,29.4 0.12,8.19 -1.68,16.28 -4.39,23.97 -1.47,3.16 -3.19,6.2 -5.14,9.08 -1.36,1.36 -2.71,2.71 -4.09,4.03 -2.75,1.94 -5.45,3.98 -8.09,6.07 -2.11,1.12 -4.15,2.36 -6.15,3.65 -0.51,0.25 -1.51,0.75 -2.01,1 -2,0.77 -4,1.52 -5.91,2.48 -2.89,0.01 -6.17,2.4 -8.56,-0.15 -0.33,-7.39 1.98,-14.68 5.44,-21.13 0.71,-1.02 1.4,-2.05 2.07,-3.09 2.74,-2.97 5.45,-6.02 8.7,-8.45 5.16,-3.77 9.18,-8.93 12.31,-14.46 2.39,-3.78 4.46,-7.79 5.91,-12.03 0.47,-1 0.94,-2 1.4,-3 0.3,-0.99 0.6,-1.98 0.93,-2.96 0.34,-1 0.68,-2 1.02,-3 0.33,-1 0.68,-2 1.04,-2.99 z"
       id="path97"
       inkscape:connector-curvature="0"
       style="opacity:1;fill:#ffffff" />
    <path
       d="m 195.8,131.82 c 1.5,-3.68 -0.99,-9.67 3.09,-11.8 1.92,5.29 2.82,10.93 5.3,16.03 0.57,1.7 1.24,3.36 1.99,4.99 1.24,3.52 2.9,6.89 4.96,10 3.55,7.03 9.24,12.71 15.48,17.39 3.01,2.41 5.19,5.61 7.58,8.58 3.93,6.58 6.15,14.24 5.52,21.94 -4.26,2.28 -9.31,-0.74 -13.54,-2.08 -0.5,-0.26 -1.51,-0.78 -2.01,-1.03 -6.38,-3.75 -12.81,-7.67 -17.88,-13.15 -2.9,-3.07 -4.73,-6.94 -6.57,-10.7 -4.38,-12.9 -4.97,-26.69 -3.92,-40.17 z"
       id="path99"
       inkscape:connector-curvature="0"
       style="opacity:1;fill:#ffffff" />
    <path
       d="m 255.18,197.12 c 6.32,-2.8 13.74,-4.18 20.35,-1.56 5.77,2.57 9.77,7.59 13.61,12.41 1.3,2.04 2.65,4.05 4.03,6.04 0.93,1.77 1.91,3.53 3.2,5.07 0.14,0.81 0.27,1.63 0.4,2.45 -0.42,0 -1.25,0.01 -1.67,0.02 -5.85,-6.61 -13.24,-11.83 -21.32,-15.34 -1.84,-0.98 -3.99,-0.74 -5.98,-0.65 -2.06,1.09 -0.99,3.72 -1.25,5.56 1.45,2.74 3.54,5.06 6,6.94 0,0.34 0.02,1.02 0.02,1.36 -3.59,0.5 -7.2,1.67 -9.47,4.68 -2.71,2.12 -2.81,6.47 -6.2,7.79 -8.81,3.8 -18.56,2.45 -27.88,2.65 -4.37,0.29 -8.6,-0.97 -12.95,-1.06 -0.36,-0.37 -1.09,-1.1 -1.45,-1.46 11.02,-2.14 22.41,-4.23 32.07,-10.29 4.25,-3.13 8.59,-7.81 7.53,-13.53 -0.57,-3.12 -3.58,-4.21 -6.12,-5.36 0.11,-0.47 0.33,-1.43 0.44,-1.91 2.31,-1.09 4.52,-2.39 6.64,-3.81 z"
       id="path101"
       inkscape:connector-curvature="0"
       style="opacity:1;fill:#ffffff" />
    <path
       d="m 326.78,194.76 c 6.1,-1.39 12.4,-0.16 18.04,2.36 2.12,1.43 4.33,2.72 6.65,3.81 0.1,0.49 0.3,1.48 0.4,1.98 -2.56,1.06 -5.51,2.18 -6.08,5.27 -1.08,5.73 3.27,10.43 7.54,13.56 5.69,3.6 12.13,5.77 18.63,7.4 4.13,0.87 8.21,2.03 12.4,2.66 2.01,1.93 -2.16,1.83 -3.34,1.89 -7.26,1.31 -14.65,0.74 -21.99,0.87 -5.41,0.21 -10.89,-0.64 -15.91,-2.67 -3.43,-1.31 -3.52,-5.72 -6.26,-7.84 -2.28,-2.99 -5.88,-4.13 -9.44,-4.65 0.01,-0.34 0.03,-1 0.04,-1.34 2.45,-1.88 4.53,-4.2 5.99,-6.94 0.03,-1.43 0.01,-2.86 -0.07,-4.28 -0.91,-2.19 -3.63,-1.17 -5.42,-1.25 -8.83,3.29 -16.78,8.94 -23.06,15.95 -0.42,-0.01 -1.25,-0.01 -1.67,-0.01 0.12,-0.82 0.26,-1.64 0.4,-2.45 1.29,-1.54 2.26,-3.3 3.2,-5.07 1.38,-1.99 2.73,-4 4.03,-6.05 4.29,-5.4 8.98,-11.25 15.92,-13.2 z"
       id="path103"
       inkscape:connector-curvature="0"
       style="opacity:1;fill:#ffffff" />
    <path
       d="m 400.12,194.48 c 0.42,0.01 1.28,0.04 1.71,0.05 -0.21,1.14 -0.37,2.32 -0.94,3.35 -3.87,8.02 -9.3,15.54 -16.91,20.4 -2.37,0.77 -4.78,1.41 -7.17,2.13 -7.3,0.02 -15.68,-1.02 -20.3,-7.41 -0.01,-0.67 -0.01,-1.33 -0.01,-1.99 2.07,-2.04 3.98,-4.51 6.85,-5.44 5.85,-0.89 11.77,0.16 17.65,-0.23 7.33,-1.37 14.17,-5.28 19.12,-10.86 z"
       id="path105"
       inkscape:connector-curvature="0"
       style="opacity:1;fill:#ffffff" />
    <path
       d="m 199.54,195.56 c 7.25,5.17 14.94,11.58 24.45,10.76 3.22,-0.72 6.49,-1.07 9.8,-0.74 3.85,0.6 7.22,2.5 9.79,5.42 0.26,1.86 -0.37,3.56 -1.32,5.13 -3.12,2 -6.4,4.18 -10.21,4.43 -5.02,0.17 -10.3,0.8 -15.04,-1.28 -4.78,-2.91 -8.5,-7.13 -12.2,-11.24 -1.68,-4.16 -6.17,-7.64 -5.27,-12.48 z"
       id="path107"
       inkscape:connector-curvature="0"
       style="opacity:1;fill:#ffffff" />
    <path
       d="m 264.56,233.41 c 0.66,-2.45 2.66,-4.15 4.97,-5 2.44,1 4.96,1.79 7.39,2.83 2.01,0.47 4,1.15 6.1,1.09 9.67,0.2 19.34,0.14 29.01,0.1 3.12,-0.09 6.31,0.12 9.36,-0.7 3.4,-0.52 6.3,-2.54 9.64,-3.3 1.92,0.21 2.91,2.31 4.32,3.46 1.59,4.19 1.59,8.83 0.46,13.14 -0.99,6.23 -3.32,12.11 -5.59,17.97 -1.14,2.39 -2.28,4.78 -3.45,7.17 -3.03,-2.04 -0.48,-6.29 -0.43,-9.18 -0.08,-6.13 1.29,-12.08 0.02,-18.14 -0.44,-0.49 -0.88,-0.99 -1.31,-1.48 -2.89,2.81 -3.55,7.46 -7.03,9.55 -0.56,-1.41 -1.19,-2.78 -1.71,-4.19 -0.92,-1.58 -1.99,-3.07 -3.24,-4.41 -1.83,1.47 -3.33,3.29 -4.31,5.44 -0.59,1.44 -1.23,2.87 -2.06,4.19 -0.69,-0.55 -1.36,-1.12 -2.02,-1.71 -0.16,-2.52 -1.9,-4.45 -3.72,-6.01 -4.47,-0.19 -3.8,6.02 -6.9,7.63 -0.95,-1.18 -1.64,-2.52 -2.31,-3.86 -1.08,-2.06 -2.01,-5.31 -4.77,-5.39 -1.36,1.13 -1.96,2.85 -2.74,4.38 -0.85,1.16 -1.2,3.59 -2.87,3.65 -2.43,-2.47 -2.68,-7.24 -6.28,-8.62 -2.24,1.8 -1.29,5.34 -1.52,7.95 -0.45,6.66 2.14,13.22 0.69,19.86 -3.99,-4.92 -5.44,-11.32 -7.63,-17.15 -2.34,-6.14 -2.84,-12.78 -2.07,-19.27 z"
       id="path109"
       inkscape:connector-curvature="0"
       style="opacity:1;fill:#ffffff" />
    <path
       d="m 250.65,242.77 c 2.35,-0.94 4.94,-0.45 7.38,-0.23 -1.26,5.02 -4.89,9.76 -9.73,11.74 -6.89,1.64 -13.41,-1.93 -19.37,-4.89 4.33,-0.09 8.84,0.68 13,-0.91 3.43,-1.05 5.62,-4.1 8.72,-5.71 z"
       id="path111"
       inkscape:connector-curvature="0"
       style="opacity:1;fill:#ffffff" />
    <path
       d="m 342.3,241.72 c 2.25,-0.19 4.58,-0.62 6.81,-0.01 3.37,1.33 5.49,4.62 8.93,5.84 4.37,1.78 9.17,0.99 13.74,0.88 -6.11,3.16 -12.86,6.76 -19.97,4.98 -4.76,-2.08 -8.08,-6.8 -9.51,-11.69 z"
       id="path113"
       inkscape:connector-curvature="0"
       style="opacity:1;fill:#ffffff" />
    <path
       d="m 257,290.95 c 1.66,-8.5 3.48,-17 6.12,-25.26 2.29,1.27 1.16,4.03 1.29,6.07 -1.51,6.59 -0.66,13.52 0.1,20.17 -0.2,4.19 1.24,8.17 2.26,12.17 0.98,3.69 3.49,6.78 7.07,8.21 7.77,1.88 15.83,1.23 23.54,-0.65 3.55,-1.07 6.99,0.79 10.52,0.96 5.98,1.37 12.23,1.04 18.16,-0.39 0.81,-0.35 1.62,-0.69 2.45,-1 2.3,-1.84 3.88,-4.31 4.72,-7.11 1.35,-4.59 2.51,-9.23 2.36,-14.05 1.27,-5.61 0.56,-11.41 0.65,-17.11 l -0.78,-1.06 c 0.03,-2.13 -0.05,-4.3 0.5,-6.39 1.39,1.03 1.75,2.74 2.24,4.28 1.98,7.72 3.78,15.48 5.22,23.32 0.26,2.38 0,4.85 0.97,7.11 0.17,2.85 0.16,5.71 0,8.57 -0.68,1.64 -0.87,3.4 -1.04,5.16 -0.73,1.36 -1.44,2.73 -2.13,4.11 -2.69,2.7 -5.1,5.67 -7.16,8.88 -2.7,4.5 -3.23,9.98 -3.51,15.11 -0.2,3.67 0.6,7.43 -0.37,11.03 -1.1,-0.64 -2.18,-1.27 -3.27,-1.93 -2.52,-3.26 -4.67,-6.78 -6.75,-10.33 -2.15,-5.36 -4.16,-11.74 -10.01,-14.11 -5.21,-1.75 -10.77,-1.26 -16.17,-1.07 -3.48,0.8 -7.18,2.02 -9.32,5.09 -2.11,3.09 -3.47,6.62 -4.82,10.09 -2.09,3.55 -4.23,7.07 -6.76,10.34 -1.09,0.65 -2.19,1.29 -3.29,1.93 -1.17,-5.63 0.51,-11.51 -0.97,-17.11 -0.49,-3.14 -1.07,-6.36 -2.89,-9.04 -2.05,-3.21 -4.46,-6.17 -7.15,-8.88 -0.7,-1.38 -1.4,-2.75 -2.12,-4.1 -0.19,-1.76 -0.39,-3.53 -1.05,-5.17 -0.17,-2.86 -0.17,-5.72 0,-8.57 1.23,-2.96 0.47,-6.24 1.39,-9.27 z"
       id="path115"
       inkscape:connector-curvature="0"
       style="opacity:1;fill:#ffffff" />
    <path
       d="m 270.61,300.69 c -1.13,-9.42 1.28,-18.88 4.37,-27.7 0.39,0.22 1.16,0.66 1.54,0.88 0.02,6.03 -0.05,12.06 0.03,18.09 -0.06,1.53 0.68,2.92 1.08,4.38 0.34,0.32 1.01,0.96 1.34,1.28 2.26,-1.19 3.73,-3.21 5.14,-5.27 2.02,1.16 2.96,4.17 5.63,4.94 0.54,0.23 1.62,0.69 2.16,0.92 2.63,0.87 5.33,1.39 8.09,1.62 3.1,-0.26 6.18,-0.62 9.16,-1.54 2.77,-1.15 5.06,-3.19 5.93,-6.15 2.24,1.56 3.37,4.29 5.95,5.48 0.33,-0.32 1,-0.96 1.34,-1.28 0.38,-1.43 1.11,-2.81 1.08,-4.32 0.08,-6.04 0.01,-12.09 0.03,-18.14 0.38,-0.22 1.15,-0.67 1.54,-0.9 2.26,5.47 3.16,11.39 4.42,17.15 0.11,4.62 0.93,9.57 -1.22,13.88 -1.39,1.76 -3.58,2.62 -5.6,3.41 -7.57,0.79 -15.18,0.13 -22.62,-1.36 -6.28,1.17 -12.6,1.93 -19,1.57 -4.43,0.35 -9.85,-2.04 -10.39,-6.94 z"
       id="path117"
       inkscape:connector-curvature="0"
       style="opacity:1;fill:#ffffff" />
    <path
       d="m 444.96,451.4 c 9.24,-1.73 18.72,-0.94 28.08,-0.89 8.4,1.19 16.79,3.05 24.65,6.35 -0.05,8.5 -1.47,16.85 -2.19,25.3 -0.24,0.12 -0.71,0.38 -0.95,0.5 -2.72,-1.53 -5.56,-2.82 -8.5,-3.83 -1.01,-0.31 -2,-0.65 -2.97,-1.01 -5.19,-1.9 -10.67,-2.28 -16.08,-3.08 -6.09,-0.46 -12.1,0.87 -18.03,2.08 -1,0.36 -2.01,0.72 -3.01,1.06 -0.98,0.32 -1.97,0.62 -2.95,0.92 -3.16,1.48 -6.38,2.96 -9.04,5.28 -6.95,4.7 -11.51,12.12 -14.39,19.86 -3.76,11.62 -4.3,24.39 -0.76,36.13 0.36,0.98 0.72,1.97 1.07,2.97 0.3,0.96 0.61,1.92 0.9,2.88 3.11,7.69 8.61,14.15 15.12,19.19 6.19,4.47 13.61,7.03 21.1,8.26 4.08,-0.09 8.08,1.56 12.11,0.21 9.66,0.21 18.84,-3.26 28.09,-5.53 1.04,5.01 -0.31,10.27 1.18,15.2 0.14,3.58 0.22,7.17 0.11,10.76 -1.34,1.93 -3.97,1.58 -5.93,2.33 -13.55,3.72 -27.74,3.81 -41.65,2.87 -12.98,-1.36 -25.66,-5.33 -36.91,-12.01 -3.4,-2.68 -6.88,-5.27 -10.15,-8.12 -5.84,-6.18 -10.67,-13.31 -14.11,-21.09 -2.65,-7.44 -4.92,-15.09 -5.35,-23 -0.26,-7.96 -0.3,-15.94 0.17,-23.89 1.34,-6.87 2.44,-13.88 5.6,-20.21 0.3,-0.92 0.61,-1.83 0.93,-2.73 4.61,-7.75 9.71,-15.54 17.08,-20.96 3.24,-2.99 7.14,-5.05 10.83,-7.39 1.31,-0.7 2.65,-1.38 3.98,-2.05 7.07,-2.84 14.37,-5.42 21.97,-6.36 z"
       id="path119"
       inkscape:connector-curvature="0"
       style="opacity:1;fill:#ffffff" />
    <path
       d="m 0,451.37 c 27.18,0.07 54.36,-0.13 81.54,0.1 0.09,8.34 0.14,16.68 -0.03,25.02 -17.02,0.07 -34.03,0.07 -51.05,0 0.09,11.25 0.01,22.49 0.05,33.74 15.17,0.01 30.35,0.02 45.52,-0.01 1.15,-0.02 2.28,0.09 3.41,0.33 0.38,7.4 0.1,14.84 0.15,22.26 0.29,1.45 -1.11,2.79 -2.55,2.62 -15.52,0.08 -31.03,0.02 -46.55,0.02 0.06,21.02 0.07,42.04 0,63.06 -10.16,0.21 -20.33,0.04 -30.49,0.1 z"
       id="path121"
       inkscape:connector-curvature="0"
       style="opacity:1;fill:#ffffff" />
    <path
       d="m 104.5,451.47 c 10.32,-0.12 20.66,-0.24 30.98,0.06 0.03,48.98 0.03,97.95 0.01,146.93 -10.33,0.26 -20.67,0.16 -31,0.05 -0.14,-49.01 -0.15,-98.03 0.01,-147.04 z"
       id="path123"
       inkscape:connector-curvature="0"
       style="opacity:1;fill:#ffffff" />
    <path
       d="m 158.52,451.53 c 29.32,-0.29 58.66,-0.2 87.98,-0.04 0.08,8.33 0.13,16.66 -0.03,25 -18.96,0.09 -37.93,0.04 -56.9,0.02 0.04,11.33 0.04,22.67 0,34.01 17.31,-0.04 34.62,-0.06 51.93,0 0.14,8.29 0.3,16.62 -0.06,24.9 -17.26,0.53 -34.57,0.07 -51.85,0.22 -0.01,12.62 0.03,25.23 -0.02,37.84 19.3,-0.02 38.59,-0.06 57.88,0.02 0.14,8.33 0.1,16.67 0.02,25.01 -29.65,0.13 -59.31,0.23 -88.95,-0.05 -0.03,-48.98 -0.03,-97.95 0,-146.93 z"
       id="path125"
       inkscape:connector-curvature="0"
       style="opacity:1;fill:#ffffff" />
    <path
       d="m 268.52,451.51 c 20.16,-0.27 40.33,-0.16 60.5,-0.04 6.14,0.66 12.35,1.39 18.17,3.66 6.97,2.21 12.34,7.43 17.03,12.82 1.71,3.3 3.51,6.57 4.78,10.08 0.75,4.3 1.8,8.6 1.57,13 0.22,4.76 -1.36,9.32 -2.27,13.94 -3.38,8.2 -10.29,14.66 -18.31,18.28 -1.05,0.33 -2.08,0.69 -3.1,1.08 -1.6,0.2 -3.2,0.39 -4.79,0.6 1.32,0.57 2.64,1.19 3.97,1.8 5.96,4.67 8.98,11.69 12.25,18.28 0.11,0.47 0.33,1.41 0.44,1.88 1.66,3.32 2.68,6.94 4.58,10.16 0.1,0.48 0.28,1.43 0.38,1.91 0.72,1.39 1.42,2.81 2.11,4.24 0.99,2.81 2.29,5.51 3.98,7.99 4.77,9.52 10.77,18.39 17.28,26.8 2.48,3.46 5.06,6.87 8,9.97 2.23,3.35 5.3,6.01 7.99,8.99 4.98,6.62 11.7,11.59 17.69,17.23 2.12,2.04 5.68,3.38 6.04,6.64 -1.56,-0.18 -3.23,-0.11 -4.62,-0.94 -6.04,-2.96 -12,-6.05 -18.01,-9.05 -3.86,-2.54 -8.09,-4.44 -12.14,-6.64 -2.82,-1.97 -5.98,-3.36 -8.98,-5 -6.83,-4.18 -13.82,-8.11 -20.12,-13.08 -7.46,-6.66 -14.39,-13.9 -20.11,-22.13 -3.78,-6.1 -7.04,-12.49 -10.06,-18.99 -0.55,-1.73 -1.21,-3.41 -1.98,-5.04 -1.05,-3.42 -2.35,-6.77 -3.98,-9.95 -1.99,-3.99 -4.34,-8.22 -8.76,-9.86 -5.72,-2.19 -12.41,-3.15 -18.46,-1.78 -0.07,20.02 0.33,40.09 -0.2,60.09 -10.27,0.29 -20.57,0.16 -30.84,0.05 -0.11,-48.99 -0.06,-97.99 -0.03,-146.99 m 31.01,23.96 c 0.08,12.95 0.01,25.9 0.04,38.84 8.55,0.03 17.25,0.45 25.52,-2.07 3,-1.12 5.98,-2.58 8.17,-4.97 5.22,-5.77 5.29,-14.56 3.07,-21.57 -2.18,-4.16 -5.91,-7.48 -10.45,-8.81 -8.54,-2.57 -17.58,-0.88 -26.35,-1.42 z"
       id="path127"
       inkscape:connector-curvature="0"
       style="opacity:1;fill:#ffffff" />
    <path
       d="m 512.27,451.6 c 4.23,-0.37 8.49,-0.21 12.75,-0.23 24.86,0.11 49.74,-0.21 74.6,0.16 0.03,8.31 0.08,16.61 -0.04,24.92 -18.96,0.19 -37.94,0.04 -56.9,0.07 0,11.33 0,22.65 -0.01,33.98 17.29,-0.01 34.59,-0.04 51.88,0.02 0.17,8.3 0.45,16.66 -0.11,24.94 -17.23,0.45 -34.5,0.05 -51.75,0.19 -0.02,12.6 -0.01,25.21 -0.01,37.81 19.1,-0.01 38.21,0 57.32,0 v 25.15 c -29.12,-0.11 -58.26,0.21 -87.37,-0.16 -0.65,-2.09 -0.34,-4.32 -0.41,-6.47 0.06,-46.79 -0.02,-93.59 0.05,-140.38 z"
       id="path129"
       inkscape:connector-curvature="0"
       style="opacity:1;fill:#ffffff" />
  </g>
  <g
     id="#f47e2fff"
     transform="matrix(0.07328244,0,0,0.07328244,2.0152682,1.15e-6)">
    <path
       d="m 37.89,612.85 c 5.84,-2.67 12.65,-1.87 18.67,-0.22 -0.25,2.31 -0.53,4.63 -0.83,6.94 -4.15,-1.47 -9.02,-3.22 -13.19,-0.88 -2.85,1.55 -2.93,6.23 -0.01,7.77 4.24,2.52 9.48,3.33 13.11,6.87 4.3,3.92 4.43,10.93 1.44,15.66 -2.51,3.85 -7.13,5.58 -11.53,6.01 h -5.24 c -2.67,-0.38 -5.27,-1.1 -7.86,-1.82 0.23,-2.54 0.52,-5.07 0.85,-7.59 4.24,2.06 9.42,3.99 13.95,1.62 2.94,-1.32 3.47,-5.61 1.71,-8.03 -4.07,-3.32 -9.77,-3.83 -13.71,-7.4 -5.88,-4.94 -4.41,-15.79 2.64,-18.93 z"
       id="path132"
       inkscape:connector-curvature="0"
       style="opacity:1;fill:#f47e2f" />
    <path
       d="m 108.53,614.58 c 9.32,-6.07 24.38,-4.41 29.89,6.05 4.18,7.99 3.98,18.25 -0.72,25.99 -3.13,5.18 -9.15,7.96 -15.03,8.38 h -4.11 c -4.49,-0.42 -8.98,-2.08 -12.21,-5.32 -4.44,-4.26 -6.19,-10.64 -6.04,-16.65 -0.1,-6.89 2.25,-14.45 8.22,-18.45 m 7.92,3.99 c -3.76,1.69 -5.78,5.69 -6.68,9.52 -1.03,5.93 -0.56,12.82 3.78,17.41 4.01,4.25 11.7,3.95 15.19,-0.81 4.54,-6.1 4.7,-14.93 1.15,-21.53 -2.49,-4.65 -8.62,-7.14 -13.44,-4.59 z"
       id="path134"
       inkscape:connector-curvature="0"
       style="opacity:1;fill:#f47e2f" />
    <path
       d="m 226.19,613.12 c 5.91,-3.02 13.02,-2.19 19.22,-0.48 -0.29,2.3 -0.59,4.61 -0.85,6.92 -4.09,-1.45 -8.91,-3.18 -13.04,-0.94 -3.02,1.49 -3.07,6.42 -0.02,7.92 4.45,2.59 10.01,3.42 13.58,7.4 3.17,3.25 3.21,8.31 2.14,12.45 -1.77,5.35 -7.44,8.16 -12.75,8.61 h -5.27 c -2.67,-0.36 -5.27,-1.08 -7.85,-1.79 0.19,-2.55 0.38,-5.1 0.56,-7.64 4.35,1.97 9.61,4.09 14.2,1.61 3.29,-1.58 3.81,-7.08 0.51,-8.89 -3.97,-2.47 -8.83,-3.3 -12.45,-6.38 -5.75,-4.8 -4.68,-15.33 2.02,-18.79 z"
       id="path136"
       inkscape:connector-curvature="0"
       style="opacity:1;fill:#f47e2f" />
    <path
       d="m 0,612.15 c 8.27,0 16.54,0.01 24.8,-0.01 0,2.22 0,4.45 0,6.68 -5.41,0 -10.83,0 -16.25,0 -0.03,3.45 -0.03,6.9 0,10.36 4.99,-0.01 9.99,-0.01 14.98,-0.01 -0.01,2.33 -0.03,4.66 -0.06,6.99 -4.96,-0.35 -9.93,-0.31 -14.9,-0.3 -0.05,3.8 -0.05,7.59 -0.02,11.4 5.56,0 11.12,-0.03 16.67,0.03 0,2.29 -0.01,4.58 -0.02,6.88 -8.4,0.03 -16.8,0.01 -25.2,0.02 z"
       id="path138"
       inkscape:connector-curvature="0"
       style="opacity:1;fill:#f47e2f" />
    <path
       d="m 67.2,612.14 c 7.09,0.48 14.62,-1.22 21.36,1.58 7.62,3.4 9.03,14.53 3.39,20.34 -4.11,4.54 -10.75,4.37 -16.37,4.19 0.01,5.31 0.04,10.62 -0.03,15.93 -2.75,0 -5.5,0 -8.24,0.04 -0.26,-14.02 -0.05,-28.05 -0.11,-42.08 m 8.39,6.3 c 0,4.4 -0.01,8.79 0.01,13.2 2.82,-0.22 6.08,0.39 8.45,-1.52 3.33,-2.51 3.09,-8.38 -0.53,-10.5 -2.39,-1.44 -5.28,-1.01 -7.93,-1.18 z"
       id="path140"
       inkscape:connector-curvature="0"
       style="opacity:1;fill:#f47e2f" />
    <path
       d="m 149.51,612.14 c 6.52,0.16 13.06,-0.33 19.56,0.31 4.47,0.42 8.5,3.89 9.17,8.42 1.31,5.39 -2.12,11.29 -7.78,12.1 1.59,1.35 3.13,2.85 3.91,4.84 2.11,4.73 3.94,9.58 5.96,14.36 l 0.7,1.7 c -3.19,0.04 -6.38,0.03 -9.56,-0.08 -1.92,-4.82 -3.38,-9.84 -5.77,-14.45 -1.31,-2.91 -4.85,-2.69 -7.5,-2.9 -0.15,5.62 0.19,11.25 -0.13,16.86 -2.15,1.95 -5.82,0.43 -8.54,0.89 -0.06,-14.02 -0.02,-28.04 -0.02,-42.05 m 8.66,6.42 c -0.02,3.92 -0.56,7.86 0.14,11.77 2.66,-0.16 5.41,-0.07 7.95,-1.01 3.68,-1.51 4.34,-7.33 1.04,-9.56 -2.72,-1.73 -6.09,-1.03 -9.13,-1.2 z"
       id="path142"
       inkscape:connector-curvature="0"
       style="opacity:1;fill:#f47e2f" />
    <path
       d="m 183.22,612.14 c 10.82,0.01 21.64,0.02 32.46,0 0.01,2.22 0.01,4.45 0.01,6.69 -4.01,-0.01 -8.02,-0.01 -12.03,-0.01 -0.1,11.79 0.04,23.58 -0.08,35.37 -2.78,-0.01 -5.56,-0.01 -8.34,0 -0.36,-11.81 0.48,-23.67 -0.44,-35.44 -3.86,0.1 -7.72,0.07 -11.58,0.07 0,-2.23 0,-4.46 0,-6.68 z"
       id="path144"
       inkscape:connector-curvature="0"
       style="opacity:1;fill:#f47e2f" />
  </g>
  <g
     id="#2d170830"
     transform="matrix(0.07328244,0,0,0.07328244,2.0152682,1.15e-6)">
    <path
       d="m 180.33,652.17 c 0.42,0.94 0.87,1.89 1.34,2.83 h -9.69 c -0.13,-0.3 -0.38,-0.9 -0.51,-1.21 3.18,0.11 6.37,0.12 9.56,0.08 z"
       id="path147"
       inkscape:connector-curvature="0"
       style="opacity:0.18999999;fill:#2d1708" />
  </g>
</svg>
