<?xml version="1.0" encoding="iso-8859-1"?>
<!-- Generator: Adobe Illustrator 16.0.0, SVG Export Plug-In . SVG Version: 6.00 Build 0)  -->
<!DOCTYPE svg PUBLIC "-//W3C//DTD SVG 1.1//EN" "http://www.w3.org/Graphics/SVG/1.1/DTD/svg11.dtd">
<svg version="1.1" id="Layer_1" xmlns="http://www.w3.org/2000/svg" xmlns:xlink="http://www.w3.org/1999/xlink" x="0px" y="0px"
	 width="64px" height="64px" viewBox="0 0 64 64" style="enable-background:new 0 0 64 64;" xml:space="preserve">
<g>
	<path style="fill-rule:evenodd;clip-rule:evenodd;fill:#EF9D33;" d="M1.501,13.615c0.062-0.017,0.168-0.018,0.181-0.052
		c0.583-1.633,1.9-2.478,3.365-3.18c2.255-1.082,4.66-1.684,7.082-2.226c4.548-1.019,9.148-1.585,13.816-1.447
		c0.845,0.025,1.711,0.166,2.522,0.408c1.462,0.437,2.251,1.488,2.415,3.016c0.256,2.394-0.096,4.739-0.548,7.075
		c-1.192,6.16-3.401,11.936-6.73,17.25c-3.988,6.364-9.098,11.718-15.044,16.288c-0.434,0.333-0.772,0.281-1.029-0.124
		c-0.332-0.522-0.663-1.067-0.868-1.647c-1.278-3.622-1.398-7.263-0.078-10.909c0.349-0.964,0.729-1.112,1.589-0.603
		c1.431,0.846,3.325,0.765,4.391-0.482c1.418-1.659,2.628-3.495,3.928-5.255c-0.043-0.046-0.085-0.092-0.128-0.138
		c-1.111,0.24-2.223,0.479-3.333,0.721c-0.994,0.216-1.983,0.456-2.983,0.641c-0.249,0.046-0.606,0.006-0.771-0.148
		c-0.125-0.117-0.089-0.497-0.015-0.725c0.689-2.132,2.126-3.472,4.278-4.12c1.761-0.53,3.476-1.195,5.03-2.214
		c0.927-0.607,1.607-1.38,1.93-2.472c0.817-2.77,1.679-5.525,2.495-8.295c0.211-0.719,0.02-0.968-0.702-0.932
		c-5.559,0.28-11.068,0.867-16.377,2.69c-0.655,0.225-1.04,0.562-1.212,1.24c-0.17,0.666-0.279,0.676-0.894,0.346
		c-1.034-0.556-1.644-1.447-2.025-2.528c-0.047-0.134-0.187-0.236-0.283-0.354C1.501,14.83,1.501,14.222,1.501,13.615z"/>
	<path style="fill-rule:evenodd;clip-rule:evenodd;fill:#EF9D33;" d="M62.499,15.33c-0.092,0.127-0.22,0.241-0.27,0.383
		c-0.411,1.169-1.076,2.125-2.196,2.724c-0.398,0.213-0.694,0.217-0.768-0.306c-0.1-0.706-0.554-1.029-1.178-1.282
		c-2.083-0.842-4.254-1.368-6.462-1.678c-3.162-0.444-6.343-0.752-9.516-1.114c-0.194-0.022-0.393-0.02-0.589-0.014
		c-0.545,0.015-0.696,0.154-0.589,0.688c0.231,1.153,0.454,2.313,0.773,3.443c1.854,6.553,4.74,12.604,8.869,18.041
		c1.167,1.537,2.671,2.107,4.25,1.621c0.337-0.104,0.657-0.276,0.971-0.442c0.78-0.413,1.373-0.217,1.659,0.596
		c1.435,4.07,1.143,8.068-0.527,12.003c-0.049,0.114-0.108,0.225-0.168,0.334c-0.42,0.753-0.77,0.891-1.443,0.366
		c-1.659-1.295-3.364-2.551-4.885-3.997c-5.667-5.388-10.385-11.477-13.493-18.721c-2.118-4.937-3.616-10.032-3.96-15.419
		c-0.06-0.936,0.029-1.889,0.128-2.826c0.136-1.288,0.925-2.131,2.106-2.525c0.854-0.285,1.761-0.495,2.656-0.552
		c3.48-0.223,6.916,0.236,10.331,0.855c3.605,0.654,7.154,1.527,10.567,2.887c1.367,0.544,2.585,1.3,3.321,2.647
		c0.128,0.236,0.248,0.476,0.371,0.714c0.014-0.011,0.028-0.022,0.042-0.033C62.499,14.258,62.499,14.794,62.499,15.33z"/>
	<path style="fill-rule:evenodd;clip-rule:evenodd;fill:#FAFAFA;" d="M26.372,64c0.007-2.196,0.014-4.391,0.021-6.587
		c0.005-1.495,0.54-2.18,1.985-2.232c2.122-0.077,4.249-0.033,6.373-0.041c0.122,0,0.243,0,0.411,0c0,2.981,0,5.921,0,8.86
		c-0.822,0-1.644,0-2.466,0c0-0.705,0-1.41,0-2.109c-1.301,0-2.554,0-3.859,0c0,0.727,0,1.418,0,2.109
		C28.016,64,27.194,64,26.372,64z M32.693,57.173c-1.076,0-2.09-0.006-3.104,0.003c-0.447,0.004-0.705,0.261-0.718,0.699
		c-0.021,0.707-0.006,1.416-0.006,2.142c1.3,0,2.556,0,3.828,0C32.693,59.07,32.693,58.15,32.693,57.173z"/>
	<path style="fill-rule:evenodd;clip-rule:evenodd;fill:#FAFAFA;" d="M16.081,64c0-2.928,0-5.855,0-8.824
		c0.14-0.013,0.274-0.035,0.409-0.035c1.911-0.002,3.822-0.002,5.733,0c0.178,0,0.357,0.011,0.534,0.03
		c1.387,0.154,2.082,0.904,2.09,2.294c0.012,1.964,0.002,3.929,0.004,5.894c0,0.214,0.013,0.428,0.02,0.641
		c-0.822,0-1.644,0-2.466,0c-0.007-0.16-0.022-0.32-0.022-0.48c-0.001-1.787-0.002-3.573,0-5.36
		c0.001-0.442-0.066-0.894-0.596-0.916c-1.077-0.045-2.157-0.014-3.242-0.014c0,2.271,0,4.52,0,6.77C17.724,64,16.902,64,16.081,64z
		"/>
	<path style="fill-rule:evenodd;clip-rule:evenodd;fill:#FAFAFA;" d="M7.611,64c0-2.938,0-5.876,0-8.835c2.366,0,4.695,0,7.046,0
		c0,0.662,0,1.298,0,1.993c-1.512,0-3.033,0-4.578,0c0,0.478,0,0.898,0,1.371c1.176,0,2.344,0,3.532,0c0,0.722,0,1.391,0,2.094
		c-1.172,0-2.327,0-3.535,0c0,1.147,0,2.262,0,3.377C9.255,64,8.433,64,7.611,64z"/>
	<path style="fill-rule:evenodd;clip-rule:evenodd;fill:#FBFBFB;" d="M50.6,64c-0.038-0.075-0.056-0.189-0.116-0.219
		c-0.905-0.439-1.294-1.167-1.282-2.159c0.017-1.446,0-2.892,0.005-4.338c0.004-1.381,0.519-2.025,1.881-2.083
		c1.724-0.074,3.452-0.018,5.245-0.018c-0.253,0.621-0.483,1.229-0.76,1.816c-0.049,0.104-0.291,0.163-0.445,0.166
		c-0.875,0.016-1.75,0.004-2.625,0.009c-0.645,0.004-0.828,0.187-0.831,0.828c-0.004,1.054-0.006,2.107,0.001,3.16
		c0.005,0.686,0.217,0.894,0.899,0.896c1.335,0.004,2.671,0.001,4.033,0.001c0,0.636,0,1.235,0,1.834
		c-0.037,0.036-0.074,0.072-0.112,0.107C54.531,64,52.565,64,50.6,64z"/>
	<path style="fill-rule:evenodd;clip-rule:evenodd;fill:#F9F9F9;" d="M39.236,64c0-2.261,0-4.522,0-6.829c-0.978,0-1.932,0-2.957,0
		c0.268-0.648,0.5-1.237,0.76-1.813c0.045-0.1,0.204-0.21,0.311-0.21c2.44-0.012,4.88-0.009,7.389-0.009
		c-0.273,0.657-0.512,1.264-0.786,1.854c-0.045,0.098-0.246,0.169-0.377,0.173c-0.601,0.018-1.202,0.008-1.845,0.008
		c0,1.812-0.006,3.556,0.003,5.301c0.002,0.509,0.048,1.018,0.074,1.526C40.952,64,40.094,64,39.236,64z"/>
	<path style="fill-rule:evenodd;clip-rule:evenodd;fill:#EE9C32;" d="M32.59,0c0.051,0.069,0.098,0.194,0.153,0.198
		c1.134,0.077,2.025,1.393,2.044,2.477c0.028,1.606-0.657,3.024-2.216,3.442c-1.643,0.44-3.224-0.724-3.5-2.562
		c-0.242-1.604,0.348-2.752,1.667-3.265c0.197-0.077,0.378-0.192,0.566-0.29C31.732,0,32.161,0,32.59,0z"/>
	<path style="fill-rule:evenodd;clip-rule:evenodd;fill:#F8F8F8;" d="M45.561,64c0.011-1.408,0.027-2.816,0.033-4.225
		c0.006-1.516,0.001-3.033,0.001-4.593c0.808,0,1.601,0,2.469,0c0,0.164,0,0.352,0,0.54c0,2.57-0.001,5.14,0.003,7.71
		c0,0.189,0.043,0.379,0.066,0.568C47.276,64,46.419,64,45.561,64z"/>
	<path style="fill-rule:evenodd;clip-rule:evenodd;fill:#EFEFEF;" d="M56.496,64c0.038-0.036,0.075-0.071,0.112-0.107
		c-0.001,0.036-0.003,0.072-0.004,0.107C56.567,64,56.532,64,56.496,64z"/>
	<path style="fill-rule:evenodd;clip-rule:evenodd;fill:#EE9C32;" d="M34.621,38.634c-0.102,3.123-0.2,6.246-0.307,9.369
		c-0.012,0.338-0.062,0.676-0.105,1.012c-0.149,1.142-0.8,1.785-1.906,1.89c-1.242,0.117-2.176-0.384-2.462-1.493
		c-0.243-0.943-0.385-1.929-0.437-2.903c-0.319-6.075-0.119-12.142,0.38-18.201c0.109-1.328,0.805-1.957,2.117-1.997
		c1.289-0.04,2.087,0.579,2.219,1.882c0.149,1.473,0.205,2.957,0.261,4.438c0.076,1.999,0.115,4,0.169,6
		C34.574,38.632,34.597,38.633,34.621,38.634z"/>
</g>
</svg>
