<svg id="Layer_1" data-name="Layer 1" xmlns="http://www.w3.org/2000/svg" viewBox="0 0 325 495" height="64" width="64"><defs><style>.cls-1{fill:#e1f9fe;}.cls-2{fill:#1e1e1e;}.cls-3{fill:#feba02;}.cls-4{fill:#1e1ecf;}.cls-5{fill:#711e1e;}.cls-6{fill:#fec324;}.cls-7{fill:#494949;}.cls-8{fill:#f2fcfe;}.cls-9{fill:#feca3d;}.cls-10{fill:#fedd86;}.cls-11{fill:#3d3dd6;}.cls-12{fill:#8686e5;}.cls-13{fill:#d8afaf;}.cls-14{fill:#c78989;}.cls-15{fill:#ababed;}.cls-16{fill:#b15b5b;}.cls-17{fill:#414141;}.cls-18{fill:#feeab4;}.cls-19{fill:#4747d8;}.cls-20{fill:#6060dd;}.cls-21{fill:#f4e9e9;}.cls-22{fill:#a13a3a;}.cls-23{fill:#951f1f;}.cls-24{fill:#e3e3f8;}.cls-25{fill:#833b3b;}.cls-26{fill:#2a2ad2;}.cls-27{fill:#9a2b2b;}.cls-28{fill:#fe5200;}.cls-29{fill:#780000;}.cls-30{fill:#8d0000;}.cls-31{fill:#ce1100;}.cls-32{fill:#cb0000;}.cls-33{fill:#fe3000;}.cls-34{fill:#fea300;}.cls-35{fill:#fe7d00;}.cls-36{fill:#e01c00;}.cls-37{fill:#5e0000;}.cls-38{fill:#8f0000;}.cls-39{fill:#ab0101;}.cls-40{fill:#b5ebfe;}.cls-41{fill:#00cefe;}.cls-42{fill:#00a7fe;}.cls-43{fill:#7ad3fe;}.cls-44{fill:#000fd8;}.cls-45{fill:#0040db;}.cls-46{fill:#002ae2;}.cls-47{fill:#cffbfe;}.cls-48{fill:#0000c9;}.cls-49{fill:#016cf4;}.cls-50{fill:#99dbfe;}.cls-51{fill:#006cf4;}.cls-52{fill:#850000;}.cls-53{fill:#a00;}.cls-54{fill:#0057f4;}.cls-55{fill:#f22900;}.cls-56{fill:#0613d8;}</style></defs><title>FrostFire</title><path class="cls-1" d="M324,17a132.71,132.71,0,0,1-17,54c-.69-13-1.27-26-2.09-38.95-.44-7-1.27-14-1.92-21.07L324,0q.5,6,1,12Z"/><path class="cls-3" d="M318.9,111.74,325,109v3l-1,6c0,1,.05,2,.07,3.07s0,2,.05,3l.06,2-1.05,5.18c-.65-3.35-1.25-6.7-2-10S319.66,114.9,318.9,111.74Z"/><path class="cls-4" d="M1.06,276.09a1.13,1.13,0,0,1-.21.87L0,277V228c.32,0,.64,0,1,0q0,23,0,46Z"/><path class="cls-5" d="M1.09,384.18a.81.81,0,0,1-.19.8c-.3,0-.6,0-.9,0V338l1,0q0,22,0,44Z"/><path class="cls-6" d="M324,118l1-6v6Z"/><path class="cls-7" d="M.93,425.92A7.3,7.3,0,0,1,0,426v-6a.52.52,0,0,1,.83-.2Z"/><path class="cls-8" d="M324,17l1-5v5Z"/><path class="cls-9" d="M324,118h1v3a5.72,5.72,0,0,0-.92.08C324.06,120.05,324,119,324,118Z"/><path class="cls-10" d="M324.08,121.08A5.72,5.72,0,0,1,325,121v3c-.29,0-.58,0-.87,0Z"/><path class="cls-11" d="M0,226v-3a6.4,6.4,0,0,0,.88-.06c0,1,0,2,0,3C.6,226,.3,226,0,226Z"/><path class="cls-12" d="M0,221v-3a7.69,7.69,0,0,0,.83,0v3C.56,221,.28,221,0,221Z"/><path class="cls-13" d="M0,326v-3L.42,323H.84v3C.55,326,.28,326,0,326Z"/><path class="cls-14" d="M0,326c.28,0,.55,0,.83,0l0,3A3.57,3.57,0,0,1,0,329Z"/><path class="cls-15" d="M.83,218A7.69,7.69,0,0,1,0,218v-3L.41,215H.83Z"/><path class="cls-16" d="M0,329a3.57,3.57,0,0,0,.86-.07c0,1,0,2,0,3A4.78,4.78,0,0,1,0,332Z"/><path class="cls-17" d="M0,492a5.9,5.9,0,0,0,.94,0L0,495Z"/><path class="cls-18" d="M324.13,124.05c.29,0,.58,0,.87,0v2a2.78,2.78,0,0,1-.81.07Z"/><path class="cls-19" d="M0,277l.85,0L0,279Z"/><path class="cls-20" d="M0,221c.28,0,.56,0,.83-.06,0,.67,0,1.33.05,2A6.4,6.4,0,0,1,0,223Z"/><path class="cls-21" d="M.84,323H.42L0,323v-2a6.32,6.32,0,0,1,.87,0Z"/><path class="cls-22" d="M0,332a4.78,4.78,0,0,0,.84-.08c0,.69.05,1.37.07,2.05-.3,0-.61,0-.91,0Z"/><path class="cls-23" d="M1,338l-1,0v-2c.32,0,.63,0,1,0,0,.67.05,1.34.07,2Z"/><path class="cls-24" d="M.83,215H.41L0,215v-2a6.18,6.18,0,0,1,.86,0Z"/><path class="cls-25" d="M0,385c.3,0,.6,0,.9,0L0,387Z"/><path class="cls-26" d="M0,226c.3,0,.6,0,.9,0L1,228c-.32,0-.64,0-1,0Z"/><path class="cls-27" d="M1,336c-.32,0-.63,0-.95,0v-2c.3,0,.61,0,.91,0C.93,334.64.94,335.31,1,336Z"/><path d="M.93,425.92l-.1-6.12c1.76-22.44,10.88-41.6,26-58s33.67-27.33,54.68-36.43c1,6.06,2.2,11.65,2.85,17.3,2.27,19.86,1.92,39.54-5.34,58.54a60.75,60.75,0,0,1-26.28,31.56C32.24,445,14.92,460.4,4.61,482.54c-1,2.1-1.8,4.28-2.69,6.43l-.91.18Z" style="fill:white;"/><path class="cls-28" d="M197.77,168.81q30.76-14.48,61.52-28.93c3.59-1.68,7.23-3.26,10.84-4.88.95,1.91,2.54,3.76,2.73,5.74.64,6.58.85,13.21,1.11,19.82q1.11,28.8,2.13,57.6L274,220c-6.11-2.88-12.16-5.87-18.32-8.62Q224.88,197.62,194,184c.38-1.79.71-3.6,1.16-5.37C196,175.36,196.9,172.09,197.77,168.81Z"/><path class="cls-29" d="M27,255.11c10.47-13.53,24.11-23,39.4-30.13,7.6-3.54,15.68-6.07,23.54-9.06-2.5,7.37-5,14.76-7.52,22.12Q67.24,282,52,325.94L49,328l-6-18c-2.34-7.88-4.73-15.74-7-23.63C33,276,30,265.54,27,255.11Z"/><path class="cls-30" d="M52,325.94Q67.22,282,82.45,238c2.55-7.36,5-14.75,7.52-22.12l2.77-1.09c.75,1.94,1.85,3.83,2.19,5.84,1.68,9.89,3.19,19.8,4.71,29.72q2.72,17.79,5.36,35.6l1,4,1,9.58c-9.08,4.05-18.26,7.89-27.22,12.19C70.41,316.27,61.24,321.2,52,325.94Z"/><path class="cls-31" d="M228,246.94l-53.92,23.28c.85-7.5,1.61-15,2.57-22.49C178,236.81,179.54,225.92,181,215c3.36-8.62,6.67-17.27,10.13-25.85A23,23,0,0,1,194,185Z"/><path class="cls-32" d="M130,199.12,144,193c.83,1.36,2,2.62,2.45,4.1Q158.32,234.51,170,272l-6,2.71a11,11,0,0,0-1.86-1.59Q139.59,261,117,249a39.52,39.52,0,0,1,.67-4.38Q123.79,221.85,130,199.12Z"/><path class="cls-33" d="M228,246.94,194,185c0-.33,0-.67,0-1q30.84,13.65,61.68,27.34c6.16,2.75,12.21,5.74,18.32,8.62C260.57,232.23,245,240.74,228,246.94Z"/><path class="cls-34" d="M318.9,111.74c.76,3.16,1.58,6.31,2.27,9.49s1.32,6.67,2,10c-2.66,22.2-10.89,42.35-23.66,60.46-6,8.47-13.54,15.8-20.38,23.65a49.63,49.63,0,0,1,1.63-5.7c7-17,13.87-34.09,21.1-51,1.32-3.11.8-4.91-1.52-6.86-7.86-6.61-15.66-13.27-23.49-19.9Z"/><path class="cls-35" d="M276.82,131.89c7.83,6.63,15.63,13.29,23.49,19.9,2.32,2,2.84,3.75,1.52,6.86-7.23,16.92-14.14,34-21.1,51a49.63,49.63,0,0,0-1.63,5.7l-3,2.8q-1.07-28.8-2.13-57.6c-.26-6.61-.47-13.24-1.11-19.82-.19-2-1.78-3.83-2.73-5.74Z"/><path class="cls-36" d="M170,272q-11.75-37.45-23.52-74.91c-.47-1.48-1.62-2.74-2.45-4.1l6.89-3,9.14,7.61L181,215c-1.47,10.9-3,21.79-4.38,32.71-1,7.48-1.72,15-2.57,22.49Z"/><path class="cls-37" d="M43,310l6,18c-9.13,7.92-18.61,15.47-27.29,23.85A82.82,82.82,0,0,0,1.9,382l-.9.08q0-22,0-44l0,0Z"/><path class="cls-38" d="M117,249q22.58,12,45.15,24.11A11,11,0,0,1,164,274.7l-19.68,8.41c-12,1.62-24,3.2-36,4.92-.85.12-1.55,1.29-2.32,2l-1-4c1-1.89,2.31-3.68,2.91-5.68C111,269.9,114,259.44,117,249Z"/><path class="cls-39" d="M106,290c.77-.68,1.47-1.85,2.32-2,12-1.72,24-3.3,36-4.92L107,299.58Z"/><path class="cls-25" d="M1,382.05l.9-.08-.81,2.21Z"/><path class="cls-17" d="M1,489.15l.91-.18-.79,2.26Z"/><path class="cls-40" d="M302.06,79l-1,2c-3.74.62-7.55,1-11.21,1.91-15.3,3.91-30.56,8-45.84,12l-58.1-29.12q18.68-8.75,37.35-17.49Q245.12,38.17,267,28c1.45,1.21,3.29,2.15,4.28,3.66C281.62,47.39,291.82,63.23,302.06,79Z"/><path class="cls-41" d="M190,155l-4.93,2.1c-2.64-2.49-5.2-5.07-7.94-7.44-9-7.8-18.1-15.51-27.13-23.29-10.17-8.76-20.34-17.5-30.4-26.39-1-.86-1.1-2.67-1.62-4l51.61-23,11.34-5,1.17-.65a1.23,1.23,0,0,1,.8-.15c.43,5.8.82,11.6,1.29,17.4Q187.1,119.78,190,155Z"/><path class="cls-42" d="M118,96c.52,1.36.65,3.17,1.62,4,10.06,8.89,20.23,17.63,30.4,26.39,9,7.78,18.12,15.49,27.13,23.29,2.74,2.37,5.3,4.95,7.94,7.44l-8,3.66c-1.54-.55-3-1.47-4.62-1.62-15.8-1.48-31.61-2.83-47.42-4.22-11.89-5.73-23.75-11.51-35.67-17.17-5.06-2.41-10.23-4.57-15.35-6.84,0-.3,0-.59,0-.89C80,125.53,86,121.11,91.81,116.47c8.13-6.47,16.12-13.12,24.17-19.7Z"/><path class="cls-43" d="M190,155q-2.91-35.25-5.81-70.49c-.47-5.8-.86-11.6-1.29-17.4l3-1.26L244,95c-2.7,3.54-5.33,7.14-8.12,10.6Q217.5,128.36,199,151.06Z"/><path class="cls-44" d="M69.05,207.84A182.53,182.53,0,0,0,15.18,250.4q.4-37.2.83-74.4v-6l-.75-6,4.84-8c2.31,2.35,4.69,4.63,6.92,7.05,6.69,7.28,13.32,14.61,20,21.92,5.52,5.36,11.12,10.65,16.55,16.11A85.27,85.27,0,0,1,69.05,207.84Z"/><path class="cls-45" d="M69.05,207.84a85.27,85.27,0,0,0-5.5-6.73c-5.43-5.46-11-10.75-16.55-16.11a63,63,0,0,1,1.43-6.74c6.13-18.89,12.38-37.75,18.48-56.65.48-1.49,2.72-3.81-1-4.64l8-3Q74,122,74.05,130c0,.3,0,.59,0,.89q0,37.38-.08,74.77Z"/><path class="cls-46" d="M66,117c3.67.83,1.43,3.15,1,4.64-6.1,18.9-12.35,37.76-18.48,56.65A63,63,0,0,0,47,185c-6.66-7.31-13.29-14.64-20-21.92-2.23-2.42-4.61-4.7-6.92-7.05C31.35,138.27,47.1,125.79,66,117Z"/><path class="cls-47" d="M302.06,79c-10.24-15.81-20.44-31.65-30.78-47.39-1-1.51-2.83-2.45-4.28-3.66l36-17c.65,7,1.48,14,1.92,21.07.82,13,1.4,26,2.09,39Z"/><path class="cls-48" d="M15.26,164l.75,6v6q-.42,37.2-.83,74.4L1.85,273.94A6,6,0,0,0,1,274q0-23,0-46L.9,226c0-1,0-2,0-3,0-.67,0-1.33-.05-2v-6l0-2C3,195.88,6.58,179.21,15.26,164Z"/><path class="cls-49" d="M74.05,130Q74,122,73.94,114l42-17.18c-8,6.58-16,13.23-24.17,19.7C86,121.11,80,125.53,74.05,130Z"/><path class="cls-43" d="M182.13,67.28l-1.17.65Z"/><path class="cls-50" d="M199,151.06q18.45-22.73,36.87-45.47c2.79-3.46,5.42-7.06,8.12-10.6,15.28-4,30.54-8.12,45.84-12,3.66-.94,7.47-1.29,11.21-1.91-12.47,19.54-28.66,35.47-49.08,46.18C234.87,136.21,216.72,143.19,199,151.06Z"/><path class="cls-51" d="M74,205.7q0-37.38.08-74.77c5.12,2.27,10.29,4.43,15.35,6.84,11.92,5.66,23.78,11.44,35.67,17.17a8.1,8.1,0,0,0-2.56,1.29C112.17,167.77,101.81,179.31,91.6,191c-2.74,3.14-5,6.73-7.42,10.12Z"/><path class="cls-52" d="M43,310,1,338c0-.67,0-1.34-.07-2s0-1.34,0-2-.05-1.36-.07-2.05c0-1,0-2,0-3l0-3c0-1,0-2,0-3l0-2c2.6-22,8.6-42.87,22-61,1.26-1.72,2.75-3.27,4.13-4.89C30,265.54,33,276,36,286.39,38.27,294.28,40.66,302.14,43,310Z"/><path class="cls-53" d="M117,249c-3,10.44-6,20.9-9.09,31.31-.6,2-1.92,3.79-2.91,5.68q-2.67-17.81-5.36-35.6c-1.52-9.92-3-19.83-4.71-29.72-.34-2-1.44-3.9-2.19-5.84L128,200l.85-.47,1.1-.37q-6.18,22.74-12.32,45.5A39.52,39.52,0,0,0,117,249Z"/><path class="cls-54" d="M84.18,201.11c2.46-3.39,4.68-7,7.42-10.12,10.21-11.68,20.57-23.22,30.93-34.76a8.1,8.1,0,0,1,2.56-1.29c15.81,1.39,31.62,2.74,47.42,4.22,1.57.15,3.08,1.07,4.62,1.62Z"/><path class="cls-55" d="M181,215l-20.95-17.46L150.92,190l46.85-21.14c-.87,3.28-1.77,6.55-2.6,9.84-.45,1.77-.78,3.58-1.16,5.37,0,.33,0,.67,0,1a23,23,0,0,0-2.85,4.15C187.68,197.75,184.37,206.4,181,215Z"/><path class="cls-19" d="M1,274a6,6,0,0,1,.85-.08c-.27.72-.53,1.44-.79,2.15Z"/><path class="cls-32" d="M128.89,199.49,128,200Z"/><path class="cls-56" d="M16,176v0Z"/></svg>