<?xml version="1.0" encoding="utf-8"?>
<!-- Generator: Adobe Illustrator 16.0.0, SVG Export Plug-In . SVG Version: 6.00 Build 0)  -->
<!DOCTYPE svg PUBLIC "-//W3C//DTD SVG 1.1//EN" "http://www.w3.org/Graphics/SVG/1.1/DTD/svg11.dtd">
<svg version="1.1" id="Layer_1" xmlns="http://www.w3.org/2000/svg" xmlns:xlink="http://www.w3.org/1999/xlink" x="0px" y="0px"
	 width="64px" height="64px" viewBox="0 0 64 64" enable-background="new 0 0 64 64" xml:space="preserve">
<g>
	<g>
		<path fill-rule="evenodd" clip-rule="evenodd" fill="#E1F9FE" d="M53.132,2.226c-0.229,2.517-0.98,4.868-2.225,7.064
			c-0.09-1.698-0.166-3.397-0.272-5.095c-0.059-0.921-0.167-1.839-0.252-2.758C51.299,0.958,52.215,0.479,53.131,0
			c0.043,0.523,0.087,1.047,0.131,1.569C53.219,1.788,53.175,2.007,53.132,2.226z"/>
		<path fill-rule="evenodd" clip-rule="evenodd" fill="#FEBA02" d="M52.463,14.62c0.267-0.12,0.532-0.239,0.799-0.359
			c0,0.131,0,0.262,0,0.393c-0.044,0.263-0.087,0.524-0.13,0.786c0.003,0.134,0.006,0.268,0.01,0.401
			c0.002,0.13,0.004,0.26,0.007,0.389c0.002,0.089,0.004,0.177,0.007,0.266c-0.046,0.226-0.092,0.451-0.138,0.677
			c-0.085-0.438-0.163-0.876-0.257-1.311C52.67,15.445,52.563,15.033,52.463,14.62z"/>
		<path fill-rule="evenodd" clip-rule="evenodd" fill="#1E1ECF" d="M10.877,36.123c0.007,0.042-0.002,0.08-0.027,0.114
			c-0.037,0.001-0.074,0.003-0.111,0.005c0-2.137,0-4.274,0-6.411c0.042,0,0.084,0,0.126-0.002c0.002,2.007,0.004,4.015,0.005,6.022
			C10.872,35.942,10.874,36.032,10.877,36.123z"/>
		<path fill-rule="evenodd" clip-rule="evenodd" fill="#711E1E" d="M10.882,50.265c0.01,0.04,0.001,0.075-0.026,0.105
			c-0.039,0.002-0.078,0.003-0.117,0.002c0-2.05,0-4.1,0-6.149c0.043,0,0.086,0.001,0.129,0.002c0,1.921,0.001,3.842,0.002,5.762
			C10.873,50.079,10.878,50.172,10.882,50.265z"/>
		<path fill-rule="evenodd" clip-rule="evenodd" fill="#FEC324" d="M53.132,15.439c0.043-0.262,0.086-0.523,0.13-0.786
			c0,0.262,0,0.523,0,0.785C53.218,15.438,53.175,15.438,53.132,15.439z"/>
		<path fill-rule="evenodd" clip-rule="evenodd" fill="#F2FCFE" d="M53.132,2.226c0.043-0.219,0.087-0.438,0.13-0.656
			c0,0.219,0,0.437,0,0.654C53.219,2.224,53.175,2.225,53.132,2.226z"/>
		<path fill-rule="evenodd" clip-rule="evenodd" fill="#FECA3D" d="M53.132,15.439c0.043-0.001,0.086-0.001,0.13-0.001
			c0,0.131,0,0.262,0,0.393c-0.041,0-0.081,0.004-0.12,0.01C53.138,15.707,53.135,15.573,53.132,15.439z"/>
		<path fill-rule="evenodd" clip-rule="evenodd" fill="#FEDD86" d="M53.142,15.841c0.039-0.006,0.079-0.01,0.12-0.01
			c0,0.131,0,0.262,0,0.393c-0.038,0.001-0.076,0.003-0.113,0.006C53.146,16.101,53.144,15.971,53.142,15.841z"/>
		<path fill-rule="evenodd" clip-rule="evenodd" fill="#3D3DD6" d="M10.738,29.569c0-0.131,0-0.262,0-0.393
			c0.039,0,0.077-0.002,0.115-0.008c0.001,0.132,0.002,0.263,0.002,0.395C10.816,29.568,10.777,29.569,10.738,29.569z"/>
		<path fill-rule="evenodd" clip-rule="evenodd" fill="#8686E5" d="M10.738,28.915c0-0.131,0-0.262,0-0.393
			c0.036,0.001,0.072-0.001,0.108-0.006c0.001,0.13,0.001,0.261,0.001,0.391C10.812,28.912,10.775,28.914,10.738,28.915z"/>
		<path fill-rule="evenodd" clip-rule="evenodd" fill="#D8AFAF" d="M10.738,42.653c0-0.131,0-0.262,0-0.393l0.055-0.007h0.055
			c0,0.131,0,0.262,0,0.394C10.812,42.65,10.774,42.652,10.738,42.653z"/>
		<path fill-rule="evenodd" clip-rule="evenodd" fill="#C78989" d="M10.738,42.653c0.036-0.001,0.073-0.003,0.109-0.006
			c0.001,0.13,0.002,0.26,0.003,0.39c-0.037,0.007-0.074,0.01-0.112,0.009C10.738,42.915,10.738,42.784,10.738,42.653z"/>
		<path fill-rule="evenodd" clip-rule="evenodd" fill="#ABABED" d="M10.847,28.517c-0.036,0.005-0.072,0.007-0.108,0.006
			c0-0.131,0-0.262,0-0.393l0.054-0.007h0.055C10.847,28.255,10.847,28.386,10.847,28.517z"/>
		<path fill-rule="evenodd" clip-rule="evenodd" fill="#B15B5B" d="M10.738,43.046c0.038,0.001,0.075-0.002,0.112-0.009
			c-0.001,0.13-0.002,0.261-0.002,0.391c-0.037,0.006-0.073,0.01-0.11,0.01C10.738,43.308,10.738,43.177,10.738,43.046z"/>
		<path fill-rule="evenodd" clip-rule="evenodd" fill="#FEEAB4" d="M53.148,16.229c0.037-0.003,0.075-0.005,0.113-0.006
			c0,0.087,0,0.175,0,0.262c-0.035,0.009-0.07,0.012-0.106,0.01C53.152,16.406,53.15,16.318,53.148,16.229z"/>
		<path fill-rule="evenodd" clip-rule="evenodd" fill="#4747D8" d="M10.738,36.242c0.037-0.002,0.074-0.004,0.111-0.005
			c-0.037,0.089-0.074,0.178-0.111,0.267C10.738,36.416,10.738,36.329,10.738,36.242z"/>
		<path fill-rule="evenodd" clip-rule="evenodd" fill="#6060DD" d="M10.738,28.915c0.037-0.001,0.073-0.003,0.109-0.008
			c0.002,0.087,0.004,0.175,0.006,0.262c-0.038,0.006-0.076,0.008-0.115,0.008C10.738,29.09,10.738,29.002,10.738,28.915z"/>
		<path fill-rule="evenodd" clip-rule="evenodd" fill="#F4E9E9" d="M10.848,42.254h-0.055l-0.055,0.007c0-0.088,0-0.175,0-0.262
			c0.038-0.003,0.076-0.004,0.114-0.002C10.851,42.083,10.85,42.168,10.848,42.254z"/>
		<path fill-rule="evenodd" clip-rule="evenodd" fill="#A13A3A" d="M10.738,43.438c0.037,0,0.073-0.004,0.11-0.01
			c0.003,0.09,0.006,0.179,0.009,0.268c-0.039,0.003-0.079,0.005-0.119,0.004C10.738,43.612,10.738,43.525,10.738,43.438z"/>
		<path fill-rule="evenodd" clip-rule="evenodd" fill="#951F1F" d="M10.866,44.225c-0.042-0.001-0.085-0.002-0.128-0.002
			c0-0.087,0-0.174,0-0.262c0.042,0.001,0.083,0,0.125-0.002c0.003,0.088,0.006,0.176,0.009,0.264L10.866,44.225z"/>
		<path fill-rule="evenodd" clip-rule="evenodd" fill="#E3E3F8" d="M10.847,28.123h-0.055l-0.054,0.007c0-0.087,0-0.174,0-0.262
			c0.037-0.003,0.075-0.004,0.112-0.002C10.85,27.952,10.848,28.037,10.847,28.123z"/>
		<path fill-rule="evenodd" clip-rule="evenodd" fill="#833B3B" d="M10.738,50.372c0.039,0.001,0.078,0,0.117-0.002
			c-0.039,0.088-0.078,0.176-0.117,0.264C10.738,50.547,10.738,50.46,10.738,50.372z"/>
		<path fill-rule="evenodd" clip-rule="evenodd" fill="#2A2AD2" d="M10.738,29.569c0.039,0,0.078-0.001,0.118-0.006
			c0.003,0.089,0.005,0.177,0.008,0.266c-0.042,0.002-0.084,0.002-0.126,0.002C10.738,29.744,10.738,29.656,10.738,29.569z"/>
		<path fill-rule="evenodd" clip-rule="evenodd" fill="#9A2B2B" d="M10.863,43.959c-0.042,0.002-0.083,0.003-0.125,0.002
			c0-0.087,0-0.174,0-0.262c0.04,0.001,0.08-0.001,0.119-0.004C10.859,43.783,10.861,43.871,10.863,43.959z"/>
		<path fill-rule="evenodd" clip-rule="evenodd" fill="#FFFFFF" d="M10.859,55.727c-0.004-0.267-0.008-0.534-0.012-0.801
			c0.23-2.936,1.423-5.443,3.405-7.588c1.971-2.132,4.405-3.576,7.153-4.767c0.133,0.794,0.289,1.524,0.373,2.265
			c0.298,2.599,0.252,5.172-0.697,7.658c-0.675,1.767-1.802,3.155-3.438,4.13c-2.687,1.6-4.953,3.613-6.302,6.511
			c-0.129,0.275-0.235,0.561-0.353,0.841C10.95,63.983,10.91,63.991,10.871,64C10.867,61.242,10.863,58.484,10.859,55.727z"/>
		<path fill-rule="evenodd" clip-rule="evenodd" fill="#FE5200" d="M36.615,22.087c2.683-1.263,5.365-2.525,8.049-3.785
			c0.47-0.221,0.945-0.427,1.419-0.639c0.124,0.25,0.331,0.492,0.356,0.752c0.084,0.86,0.111,1.728,0.145,2.592
			c0.098,2.513,0.188,5.024,0.279,7.536c-0.091,0.08-0.183,0.159-0.273,0.239c-0.799-0.377-1.591-0.769-2.397-1.129
			c-2.688-1.198-5.38-2.386-8.07-3.577c0.051-0.234,0.094-0.471,0.152-0.703C36.384,22.943,36.501,22.516,36.615,22.087z"/>
		<path fill-rule="evenodd" clip-rule="evenodd" fill="#780000" d="M14.275,33.378c1.369-1.77,3.154-3.01,5.154-3.941
			c0.995-0.464,2.052-0.795,3.081-1.186c-0.328,0.964-0.651,1.931-0.984,2.894c-1.327,3.834-2.658,7.667-3.987,11.501
			c-0.13,0.089-0.26,0.179-0.39,0.269c-0.262-0.784-0.523-1.568-0.785-2.353c-0.307-1.03-0.618-2.059-0.918-3.091
			C15.051,36.108,14.665,34.742,14.275,33.378z"/>
		<path fill-rule="evenodd" clip-rule="evenodd" fill="#8D0000" d="M17.539,42.646c1.329-3.834,2.66-7.667,3.987-11.501
			c0.333-0.963,0.656-1.93,0.984-2.894c0.12-0.048,0.241-0.096,0.361-0.143c0.099,0.254,0.242,0.5,0.287,0.764
			c0.22,1.293,0.417,2.591,0.616,3.888c0.237,1.553,0.468,3.105,0.701,4.658c0.044,0.176,0.087,0.351,0.13,0.525
			c0.044,0.417,0.089,0.835,0.133,1.253c-1.188,0.529-2.389,1.032-3.562,1.595C19.951,41.38,18.751,42.025,17.539,42.646z"/>
		<path fill-rule="evenodd" clip-rule="evenodd" fill="#CE1100" d="M40.566,32.31c-2.352,1.015-4.703,2.03-7.055,3.046
			c0.111-0.981,0.212-1.964,0.337-2.943c0.182-1.428,0.382-2.854,0.573-4.279c0.44-1.129,0.873-2.26,1.326-3.383
			c0.08-0.198,0.245-0.362,0.371-0.542C37.602,26.908,39.084,29.608,40.566,32.31z"/>
		<path fill-rule="evenodd" clip-rule="evenodd" fill="#CB0000" d="M27.745,26.053c0.613-0.268,1.226-0.535,1.838-0.804
			c0.109,0.179,0.259,0.343,0.32,0.536c1.032,3.266,2.054,6.534,3.078,9.802c-0.261,0.118-0.522,0.236-0.783,0.354
			c-0.081-0.07-0.152-0.16-0.244-0.209c-1.968-1.054-3.938-2.104-5.907-3.154c0.028-0.191,0.038-0.388,0.088-0.573
			C26.668,30.02,27.208,28.036,27.745,26.053z"/>
		<path fill-rule="evenodd" clip-rule="evenodd" fill="#FE3000" d="M40.566,32.31c-1.482-2.701-2.965-5.401-4.447-8.102
			c0.002-0.044,0.002-0.088,0.003-0.132c2.69,1.191,5.383,2.379,8.07,3.577c0.807,0.36,1.599,0.752,2.397,1.129
			C44.832,30.385,42.787,31.497,40.566,32.31z"/>
		<path fill-rule="evenodd" clip-rule="evenodd" fill="#FEA300" d="M52.463,14.62c0.1,0.413,0.207,0.825,0.298,1.241
			c0.094,0.435,0.172,0.873,0.257,1.311c-0.348,2.905-1.424,5.541-3.096,7.911c-0.78,1.107-1.771,2.067-2.666,3.094
			c0.07-0.249,0.115-0.508,0.213-0.745c0.91-2.229,1.814-4.461,2.761-6.675c0.174-0.407,0.105-0.642-0.198-0.897
			c-1.028-0.864-2.05-1.735-3.074-2.604C48.793,16.377,50.628,15.498,52.463,14.62z"/>
		<path fill-rule="evenodd" clip-rule="evenodd" fill="#FE7D00" d="M46.957,17.256c1.024,0.868,2.046,1.739,3.074,2.604
			c0.304,0.256,0.372,0.49,0.198,0.897c-0.946,2.214-1.851,4.445-2.761,6.675c-0.098,0.237-0.143,0.496-0.213,0.745
			c-0.131,0.122-0.262,0.244-0.393,0.367c-0.092-2.513-0.182-5.024-0.279-7.537c-0.033-0.864-0.061-1.731-0.145-2.592
			c-0.025-0.26-0.232-0.502-0.356-0.752C46.374,17.527,46.666,17.392,46.957,17.256z"/>
		<path fill-rule="evenodd" clip-rule="evenodd" fill="#E01C00" d="M32.981,35.587c-1.024-3.268-2.046-6.536-3.078-9.802
			c-0.062-0.193-0.211-0.357-0.32-0.536c0.301-0.132,0.601-0.265,0.901-0.396c0.398,0.332,0.798,0.663,1.196,0.996
			c0.914,0.761,1.828,1.522,2.741,2.284c-0.191,1.426-0.392,2.852-0.573,4.279c-0.125,0.979-0.226,1.962-0.337,2.943
			C33.335,35.433,33.158,35.51,32.981,35.587z"/>
		<path fill-rule="evenodd" clip-rule="evenodd" fill="#5E0000" d="M16.364,40.562c0.262,0.784,0.523,1.568,0.785,2.353
			c-1.194,1.035-2.435,2.024-3.57,3.12c-1.148,1.107-2.015,2.439-2.593,3.941c-0.039,0.003-0.078,0.007-0.117,0.011
			c-0.001-1.92-0.002-3.841-0.002-5.762c-0.001,0,0.005-0.002,0.005-0.002C12.703,43.002,14.533,41.782,16.364,40.562z"/>
		<path fill-rule="evenodd" clip-rule="evenodd" fill="#8F0000" d="M26.047,32.578c1.97,1.051,3.939,2.101,5.907,3.154
			c0.092,0.049,0.163,0.139,0.244,0.209c-0.858,0.366-1.717,0.733-2.575,1.101c-1.571,0.211-3.145,0.418-4.714,0.644
			c-0.111,0.016-0.202,0.168-0.303,0.258c-0.043-0.175-0.086-0.35-0.13-0.524c0.13-0.248,0.302-0.481,0.381-0.744
			C25.267,35.313,25.652,33.944,26.047,32.578z"/>
		<path fill-rule="evenodd" clip-rule="evenodd" fill="#AB0101" d="M24.606,37.943c0.101-0.09,0.191-0.242,0.303-0.258
			c1.569-0.226,3.143-0.433,4.714-0.644c-1.628,0.718-3.256,1.437-4.884,2.154C24.695,38.778,24.65,38.36,24.606,37.943z"/>
		<path fill-rule="evenodd" clip-rule="evenodd" fill="#833B3B" d="M10.869,49.986c0.039-0.004,0.078-0.008,0.117-0.011
			c-0.035,0.097-0.069,0.192-0.104,0.289C10.878,50.172,10.873,50.079,10.869,49.986z"/>
		<path fill-rule="evenodd" clip-rule="evenodd" fill="#B5EBFE" d="M50.261,10.341c-0.044,0.088-0.088,0.176-0.132,0.264
			c-0.489,0.081-0.988,0.127-1.467,0.249c-2.002,0.513-3.999,1.048-5.997,1.575c-2.534-1.271-5.068-2.541-7.603-3.811
			c1.629-0.764,3.257-1.528,4.887-2.289c1.907-0.891,3.815-1.778,5.724-2.667c0.189,0.158,0.431,0.281,0.56,0.479
			C47.585,6.2,48.92,8.272,50.261,10.341z"/>
		<path fill-rule="evenodd" clip-rule="evenodd" fill="#00CEFE" d="M35.602,20.283c-0.215,0.091-0.43,0.182-0.646,0.273
			c-0.345-0.325-0.68-0.662-1.037-0.973c-1.18-1.021-2.369-2.029-3.551-3.048c-1.331-1.146-2.662-2.29-3.977-3.453
			c-0.127-0.112-0.145-0.349-0.213-0.527c2.251-1.003,4.502-2.008,6.753-3.011c0.494-0.221,0.989-0.438,1.483-0.658
			c0.051-0.028,0.102-0.057,0.152-0.085c0.033-0.018,0.068-0.024,0.105-0.02c0.056,0.759,0.107,1.519,0.17,2.276
			C35.094,14.134,35.348,17.208,35.602,20.283z"/>
		<path fill-rule="evenodd" clip-rule="evenodd" fill="#00A7FE" d="M26.179,12.556c0.068,0.179,0.086,0.415,0.213,0.527
			c1.314,1.163,2.646,2.308,3.977,3.453c1.182,1.019,2.371,2.027,3.551,3.048c0.357,0.311,0.692,0.647,1.037,0.973
			c-0.347,0.16-0.694,0.32-1.042,0.479c-0.201-0.072-0.398-0.192-0.604-0.212c-2.067-0.193-4.137-0.371-6.205-0.553
			c-1.555-0.75-3.107-1.506-4.666-2.246c-0.662-0.314-1.339-0.598-2.009-0.896c-0.002-0.038-0.003-0.077-0.003-0.115
			c0.775-0.591,1.563-1.169,2.324-1.776c1.063-0.847,2.109-1.717,3.163-2.577C26.002,12.626,26.09,12.591,26.179,12.556z"/>
		<path fill-rule="evenodd" clip-rule="evenodd" fill="#7AD3FE" d="M35.602,20.283c-0.254-3.075-0.508-6.149-0.759-9.225
			c-0.063-0.758-0.114-1.518-0.17-2.276c0.13-0.055,0.26-0.109,0.39-0.164c2.534,1.27,5.068,2.54,7.603,3.811
			c-0.354,0.463-0.697,0.934-1.063,1.387c-1.604,1.985-3.215,3.966-4.823,5.948C36.386,19.937,35.994,20.109,35.602,20.283z"/>
		<path fill-rule="evenodd" clip-rule="evenodd" fill="#000FD8" d="M19.773,27.193c-2.713,1.397-5.041,3.28-7.049,5.569
			c0.036-3.245,0.072-6.49,0.108-9.735c0-0.262,0-0.523,0-0.784c-0.033-0.261-0.065-0.521-0.099-0.781
			c0.212-0.349,0.423-0.698,0.634-1.047c0.303,0.307,0.614,0.604,0.905,0.922c0.876,0.952,1.743,1.911,2.614,2.868
			c0.723,0.701,1.455,1.394,2.165,2.107C19.319,26.58,19.534,26.898,19.773,27.193z"/>
		<path fill-rule="evenodd" clip-rule="evenodd" fill="#0040DB" d="M19.773,27.193c-0.239-0.295-0.454-0.613-0.721-0.881
			c-0.71-0.714-1.442-1.406-2.165-2.107c0.061-0.295,0.096-0.598,0.188-0.882c0.803-2.472,1.619-4.939,2.417-7.412
			c0.063-0.195,0.357-0.498-0.124-0.607c0.349-0.132,0.696-0.263,1.045-0.395c0.004,0.701,0.009,1.403,0.014,2.105
			c0,0.038,0.001,0.077,0.003,0.116c-0.004,3.261-0.007,6.521-0.011,9.782C20.204,27.007,19.988,27.101,19.773,27.193z"/>
		<path fill-rule="evenodd" clip-rule="evenodd" fill="#002AE2" d="M19.368,15.304c0.481,0.109,0.188,0.412,0.124,0.607
			c-0.798,2.473-1.614,4.94-2.417,7.412c-0.092,0.284-0.127,0.587-0.188,0.882c-0.871-0.957-1.738-1.916-2.614-2.868
			c-0.291-0.317-0.603-0.615-0.905-0.922C14.841,18.091,16.9,16.458,19.368,15.304z"/>
		<path fill-rule="evenodd" clip-rule="evenodd" fill="#CFFBFE" d="M50.261,10.341c-1.341-2.068-2.676-4.141-4.028-6.2
			c-0.129-0.197-0.37-0.32-0.56-0.479c1.569-0.741,3.14-1.482,4.71-2.225c0.085,0.919,0.193,1.837,0.252,2.758
			c0.106,1.697,0.183,3.396,0.272,5.095C50.691,9.641,50.476,9.991,50.261,10.341z"/>
		<path fill-rule="evenodd" clip-rule="evenodd" fill="#0000C9" d="M12.734,21.462c0.033,0.261,0.065,0.521,0.099,0.781
			c0,0.261,0,0.522,0,0.784c-0.036,3.245-0.072,6.49-0.108,9.735c-0.582,1.026-1.163,2.053-1.744,3.079
			c-0.037,0.001-0.074,0.004-0.111,0.01c-0.001-2.008-0.003-4.016-0.005-6.022c-0.003-0.089-0.005-0.177-0.008-0.266
			c-0.001-0.132-0.002-0.263-0.003-0.395c-0.002-0.087-0.004-0.175-0.006-0.262c0-0.13,0-0.261-0.001-0.391c0-0.131,0-0.262,0-0.394
			c0.001-0.086,0.003-0.171,0.004-0.257C11.128,25.628,11.6,23.447,12.734,21.462z"/>
		<path fill-rule="evenodd" clip-rule="evenodd" fill="#016CF4" d="M20.427,17.015c-0.005-0.702-0.01-1.404-0.014-2.105
			c1.833-0.749,3.667-1.498,5.501-2.248c-1.054,0.86-2.1,1.73-3.163,2.577C21.989,15.846,21.202,16.424,20.427,17.015z"/>
		<path fill-rule="evenodd" clip-rule="evenodd" fill="#7AD3FE" d="M34.567,8.802c-0.051,0.028-0.102,0.057-0.152,0.085
			C34.466,8.858,34.517,8.83,34.567,8.802z"/>
		<path fill-rule="evenodd" clip-rule="evenodd" fill="#99DBFE" d="M36.778,19.764c1.608-1.982,3.219-3.963,4.823-5.948
			c0.366-0.453,0.71-0.924,1.063-1.387c1.998-0.527,3.995-1.063,5.997-1.575c0.479-0.122,0.978-0.168,1.467-0.249
			c-1.631,2.556-3.749,4.641-6.421,6.042C41.469,17.821,39.094,18.734,36.778,19.764z"/>
		<path fill-rule="evenodd" clip-rule="evenodd" fill="#006CF4" d="M20.419,26.913c0.004-3.261,0.007-6.521,0.011-9.782
			c0.67,0.297,1.347,0.58,2.009,0.895c1.559,0.74,3.111,1.496,4.666,2.246c-0.113,0.056-0.257,0.083-0.335,0.17
			c-1.354,1.51-2.711,3.02-4.046,4.547c-0.358,0.411-0.649,0.881-0.972,1.324C21.308,26.513,20.863,26.713,20.419,26.913z"/>
		<path fill-rule="evenodd" clip-rule="evenodd" fill="#850000" d="M16.364,40.562c-1.831,1.221-3.661,2.44-5.492,3.661
			c-0.003-0.088-0.006-0.176-0.009-0.264c-0.002-0.088-0.004-0.176-0.006-0.264c-0.003-0.089-0.006-0.178-0.009-0.268
			c0-0.13,0.001-0.261,0.002-0.391c-0.001-0.13-0.002-0.26-0.003-0.39c0-0.132,0-0.263,0-0.394c0.002-0.086,0.003-0.171,0.005-0.257
			c0.341-2.884,1.125-5.608,2.882-7.979c0.166-0.225,0.359-0.428,0.541-0.64c0.39,1.364,0.775,2.73,1.171,4.093
			C15.746,38.503,16.058,39.531,16.364,40.562z"/>
		<path fill-rule="evenodd" clip-rule="evenodd" fill="#AA0000" d="M26.047,32.578c-0.395,1.366-0.78,2.735-1.189,4.097
			c-0.079,0.263-0.251,0.496-0.381,0.744c-0.233-1.554-0.464-3.106-0.701-4.659c-0.199-1.297-0.396-2.595-0.616-3.888
			c-0.045-0.264-0.188-0.51-0.287-0.764c1.54-0.648,3.08-1.297,4.619-1.945c0.037-0.021,0.074-0.042,0.111-0.063
			c0.048-0.017,0.096-0.032,0.144-0.048c-0.538,1.983-1.078,3.967-1.611,5.952C26.085,32.19,26.075,32.387,26.047,32.578z"/>
		<path fill-rule="evenodd" clip-rule="evenodd" fill="#0057F4" d="M21.752,26.313c0.322-0.443,0.613-0.913,0.972-1.324
			c1.335-1.527,2.691-3.037,4.046-4.547c0.078-0.087,0.222-0.114,0.335-0.17c2.068,0.182,4.138,0.359,6.205,0.553
			c0.206,0.02,0.403,0.14,0.604,0.212C29.86,22.795,25.807,24.554,21.752,26.313z"/>
		<path fill-rule="evenodd" clip-rule="evenodd" fill="#F22900" d="M34.422,28.133c-0.913-0.762-1.827-1.523-2.741-2.284
			c-0.398-0.333-0.798-0.664-1.196-0.996c2.044-0.922,4.087-1.844,6.131-2.766c-0.114,0.429-0.231,0.856-0.341,1.286
			c-0.059,0.232-0.102,0.469-0.152,0.703c-0.001,0.044-0.001,0.088-0.003,0.132c-0.126,0.18-0.291,0.344-0.371,0.542
			C35.295,25.873,34.862,27.004,34.422,28.133z"/>
		<path fill-rule="evenodd" clip-rule="evenodd" fill="#4747D8" d="M10.869,35.852c0.037-0.006,0.074-0.009,0.111-0.01
			c-0.035,0.094-0.069,0.188-0.104,0.281C10.874,36.032,10.872,35.942,10.869,35.852z"/>
		<path fill-rule="evenodd" clip-rule="evenodd" fill="#CB0000" d="M27.603,26.101c-0.037,0.021-0.074,0.041-0.111,0.063
			C27.528,26.142,27.565,26.121,27.603,26.101z"/>
		<path fill-rule="evenodd" clip-rule="evenodd" fill="#0613D8" d="M12.833,23.027c0-0.262,0-0.523,0-0.784
			C12.833,22.504,12.833,22.766,12.833,23.027z"/>
	</g>
</g>
</svg>
