<?xml version="1.0" encoding="UTF-8" standalone="no"?>
<svg
   xmlns:dc="http://purl.org/dc/elements/1.1/"
   xmlns:cc="http://creativecommons.org/ns#"
   xmlns:rdf="http://www.w3.org/1999/02/22-rdf-syntax-ns#"
   xmlns:svg="http://www.w3.org/2000/svg"
   xmlns="http://www.w3.org/2000/svg"
   xmlns:sodipodi="http://sodipodi.sourceforge.net/DTD/sodipodi-0.dtd"
   xmlns:inkscape="http://www.inkscape.org/namespaces/inkscape"
   width="64"
   height="64"
   viewBox="0 0 48 48.000002"
   version="1.1"
   id="svg296"
   sodipodi:docname="full.svg"
   inkscape:version="0.92.3 (2405546, 2018-03-11)">
  <metadata
     id="metadata302">
    <rdf:RDF>
      <cc:Work
         rdf:about="">
        <dc:format>image/svg+xml</dc:format>
        <dc:type
           rdf:resource="http://purl.org/dc/dcmitype/StillImage" />
        <dc:title></dc:title>
      </cc:Work>
    </rdf:RDF>
  </metadata>
  <defs
     id="defs300" />
  <sodipodi:namedview
     pagecolor="#ffffff"
     bordercolor="#666666"
     borderopacity="1"
     objecttolerance="10"
     gridtolerance="10"
     guidetolerance="10"
     inkscape:pageopacity="0"
     inkscape:pageshadow="2"
     inkscape:window-width="1920"
     inkscape:window-height="1017"
     id="namedview298"
     showgrid="false"
     units="px"
     inkscape:pagecheckerboard="true"
     inkscape:zoom="0.063591617"
     inkscape:cx="5223.5084"
     inkscape:cy="702.97445"
     inkscape:window-x="-8"
     inkscape:window-y="-8"
     inkscape:window-maximized="1"
     inkscape:current-layer="svg296" />
  <g
     id="#33d12dff"
     transform="matrix(0.10057497,0,0,0.10057497,-12.310786,1.7895602)">
    <path
       d="m 250.06,12.41 c 12.31,-6.76 26.16,-10.11 40,-11.9 10.66,-0.49 21.37,-0.43 32.03,0.26 23.74,3.17 46.83,10.88 67.9,22.24 3.79,1.94 7.11,4.69 10.98,6.47 4.39,0.47 8.68,-1.01 13.05,-1.13 6.71,-0.23 13.54,-0.43 20.1,1.25 20.69,5.18 38.74,17.17 55.8,29.53 15.6,11.87 30.84,24.33 44.57,38.35 12.42,12.13 22.84,26.16 32.35,40.64 14.93,23.62 27.37,49.33 32.82,76.9 -4.69,1.81 -9.48,3.94 -14.62,3.68 -6.33,0.01 -12.37,-1.93 -18.4,-3.55 -0.09,0.85 -0.28,2.56 -0.38,3.42 -9.78,-0.56 -19.23,-3.83 -29.08,-3.99 0.19,2.68 0.61,5.34 1.2,7.97 -14.87,-1.75 -29.31,-6.19 -44.25,-7.54 -7.17,-1.18 -14.39,-1.99 -21.62,-2.77 -1.37,2.92 -1.12,6.21 -1.64,9.32 -2.26,13.81 -7.46,26.95 -13.94,39.3 -1.48,2.94 -4.16,5.62 -3.65,9.18 0.62,11.78 0.47,23.59 -0.2,35.36 -2.77,19.18 -8.27,38.74 -20.63,54.07 -7.64,9.34 -18.54,16.24 -30.58,18 -4.52,0.63 -9.38,0.36 -13.43,2.78 -6.32,3.64 -12.72,7.55 -19.98,8.98 -6.81,0.83 -13.79,0.78 -20.49,-0.79 -1.63,-0.58 -2.65,0.93 -3.61,1.93 -8.82,9.72 -18.52,18.95 -30.24,25.08 -26.26,14.62 -56.51,19.66 -86.04,22.66 -15.84,2.31 -31.92,1.73 -47.82,3.37 2.27,-5.8 6.16,-10.74 8.96,-16.27 5.95,-10.91 12.04,-21.85 15.99,-33.68 2.34,-7.4 3.05,-15.62 0.39,-23.02 -2.77,-5.03 -7.08,-9.09 -11.61,-12.55 -12.57,-8.86 -26.83,-14.84 -40.75,-21.19 -6.66,-3.09 -13.78,-5.71 -19.12,-10.94 -6.64,-6.55 -11.47,-15.42 -11.69,-24.9 -0.43,-12.48 4.53,-24.65 11.92,-34.52 1.76,-2.1 0.84,-4.96 0.62,-7.39 -0.83,-5.01 -0.14,-10.1 0.85,-15.02 1.24,-5.65 6.47,-8.94 9.67,-13.37 0.47,-3.5 -0.73,-7.19 0.38,-10.57 2.87,-4.75 7.75,-7.84 10.94,-12.35 0.66,-0.77 0.02,-1.84 -0.01,-2.7 -0.91,-4.75 -2.46,-9.34 -3.72,-14 -1.42,-6.1 -5.98,-10.71 -9.12,-15.95 -6.44,-10.4 -12.46,-21.25 -15.96,-33.03 -4.87,-14.71 -6.82,-30.69 -3.86,-45.99 2.25,-12.76 8.64,-24.86 18.33,-33.53 13.16,-12.11 31.06,-17.18 48.49,-18.95 7.01,-0.5 14.04,-0.25 21.07,-0.38 1.65,0.1 3.07,-0.88 4.12,-2.06 9.75,-10.63 20.86,-20.35 33.91,-26.71 M 273,11.69 c -20.96,5.49 -39.65,18.33 -53.16,35.16 -0.81,0.78 -1.49,2.16 -2.84,1.92 -18.32,-0.11 -37.38,0.09 -54.44,7.64 -14.16,6.2 -25.44,18.7 -29.65,33.64 -4.36,15.42 -2.47,31.92 2.27,47.02 4.36,13.41 10.82,26.13 19.18,37.49 5.83,7.33 7.29,16.83 10.22,25.47 0.56,2.75 2.47,6.24 0.08,8.64 -3.48,4.63 -8.32,8.21 -11.14,13.34 -0.71,3.95 0.43,7.93 0.24,11.9 -4.55,2.79 -9.71,5.92 -11.04,11.51 -0.86,6.31 -0.38,12.84 1.64,18.9 -6.11,7.53 -12.14,15.84 -13.57,25.68 -0.63,7.11 -1.1,14.89 2.96,21.16 5.67,10.61 17.9,14.31 28.15,18.93 13.55,6.32 27.55,12.26 39.31,21.68 7.15,5.73 13.2,13.72 14.08,23.11 0.89,10.8 -3.15,21.24 -7.54,30.9 -4.11,9.22 -9.22,17.94 -13.84,26.9 11.41,0.27 22.75,-1.26 34.11,-2.23 8.04,-0.57 15.94,-2.24 23.95,-3.1 21.66,-3.76 43.64,-9.13 62.38,-21.11 11.58,-7.24 21.27,-17.11 29.71,-27.77 7.81,3.31 16.64,5.12 24.95,2.62 7.44,-1.57 13.35,-6.55 19.7,-10.35 4.09,-0.68 8.31,-0.02 12.39,-0.93 11.58,-1.62 21.26,-9.46 27.96,-18.68 9.75,-13.78 14.2,-30.56 16.25,-47.11 0.53,-10.57 1.43,-21.18 0.32,-31.73 -0.12,-2.91 -0.94,-6.14 0.84,-8.72 8.43,-14.31 15.38,-29.96 17.03,-46.65 0.6,-4.87 -0.25,-9.83 0.59,-14.66 2.69,-0.16 5.27,0.82 7.87,1.35 8.73,1.83 17.53,3.35 26.44,3.9 -0.38,-2.09 -0.73,-4.17 -0.97,-6.27 8.85,6.95 19.98,11 31.19,11.56 -0.73,-3.83 -1.41,-7.69 -1.55,-11.59 3.52,2.5 7.56,4.2 11.82,4.96 5.69,1 11.33,2.49 17.13,2.72 -0.74,-3.77 -1.89,-7.46 -2.5,-11.26 9.19,5.71 18.51,12.34 29.53,13.68 2.43,0.02 6.26,0.59 7.39,-2.18 -3.75,-13.4 -8.15,-26.73 -14.61,-39.1 -9.01,-18.44 -19.87,-36.04 -33.06,-51.79 C 530.67,103.41 516.53,90.37 501.75,78.26 484.13,64.09 465.87,50.14 444.91,41.28 432.55,36.03 418.46,33.85 405.38,37.62 403.34,38.11 401,39.51 399.09,37.96 383.19,27.09 365.42,19.03 346.91,13.76 322.95,7.21 297.18,4.93 273,11.69 Z"
       id="path157"
       inkscape:connector-curvature="0"
       style="opacity:1;fill:#33d12d" />
  </g>
  <g
     id="#000000ff"
     transform="matrix(0.10057497,0,0,0.10057497,-12.310786,1.7895602)">
    <path
       d="m 273,11.69 c 24.18,-6.76 49.95,-4.48 73.91,2.07 18.51,5.27 36.28,13.33 52.18,24.2 1.91,1.55 4.25,0.15 6.29,-0.34 13.08,-3.77 27.17,-1.59 39.53,3.66 20.96,8.86 39.22,22.81 56.84,36.98 14.78,12.11 28.92,25.15 41.02,39.98 13.19,15.75 24.05,33.35 33.06,51.79 6.46,12.37 10.86,25.7 14.61,39.1 -1.13,2.77 -4.96,2.2 -7.39,2.18 -11.02,-1.34 -20.34,-7.97 -29.53,-13.68 0.61,3.8 1.76,7.49 2.5,11.26 -5.8,-0.23 -11.44,-1.72 -17.13,-2.72 -4.26,-0.76 -8.3,-2.46 -11.82,-4.96 0.14,3.9 0.82,7.76 1.55,11.59 -11.21,-0.56 -22.34,-4.61 -31.19,-11.56 0.24,2.1 0.59,4.18 0.97,6.27 -8.91,-0.55 -17.71,-2.07 -26.44,-3.9 -2.6,-0.53 -5.18,-1.51 -7.87,-1.35 -0.84,4.83 0.01,9.79 -0.59,14.66 -1.65,16.69 -8.6,32.34 -17.03,46.65 -1.78,2.58 -0.96,5.81 -0.84,8.72 1.11,10.55 0.21,21.16 -0.32,31.73 -2.05,16.55 -6.5,33.33 -16.25,47.11 -6.7,9.22 -16.38,17.06 -27.96,18.68 -4.08,0.91 -8.3,0.25 -12.39,0.93 -6.35,3.8 -12.26,8.78 -19.7,10.35 -8.31,2.5 -17.14,0.69 -24.95,-2.62 -8.44,10.66 -18.13,20.53 -29.71,27.77 -18.74,11.98 -40.72,17.35 -62.38,21.11 -8.01,0.86 -15.91,2.53 -23.95,3.1 -11.36,0.97 -22.7,2.5 -34.11,2.23 4.62,-8.96 9.73,-17.68 13.84,-26.9 4.39,-9.66 8.43,-20.1 7.54,-30.9 -0.88,-9.39 -6.93,-17.38 -14.08,-23.11 -11.76,-9.42 -25.76,-15.36 -39.31,-21.68 -10.25,-4.62 -22.48,-8.32 -28.15,-18.93 -4.06,-6.27 -3.59,-14.05 -2.96,-21.16 1.43,-9.84 7.46,-18.15 13.57,-25.68 -2.02,-6.06 -2.5,-12.59 -1.64,-18.9 1.33,-5.59 6.49,-8.72 11.04,-11.51 0.19,-3.97 -0.95,-7.95 -0.24,-11.9 2.82,-5.13 7.66,-8.71 11.14,-13.34 2.39,-2.4 0.48,-5.89 -0.08,-8.64 -2.93,-8.64 -4.39,-18.14 -10.22,-25.47 -8.36,-11.36 -14.82,-24.08 -19.18,-37.49 -4.74,-15.1 -6.63,-31.6 -2.27,-47.02 4.21,-14.94 15.49,-27.44 29.65,-33.64 17.06,-7.55 36.12,-7.75 54.44,-7.64 1.35,0.24 2.03,-1.14 2.84,-1.92 C 233.35,30.02 252.04,17.18 273,11.69 M 260.49,31.3 c -10.93,5.39 -21.21,12.49 -29.16,21.81 3.33,0.48 6.61,1.23 9.84,2.21 16.18,3.87 31.57,10.53 46.25,18.28 16.01,8.33 31.04,18.49 45.04,29.85 2.09,1.87 4.06,3.99 6.58,5.29 3.89,-0.51 7.43,-2.38 11.04,-3.84 8.81,-3.77 17.45,-9.7 21.34,-18.8 1.61,-4.5 3.32,-9.3 2.11,-14.13 -1.22,-6.19 -1.65,-12.62 -4.06,-18.51 -2.11,-5.52 -5.96,-10.26 -10.56,-13.91 -0.63,-0.39 -1.26,-0.79 -1.88,-1.18 l -0.27,-0.02 c -4.79,-3.82 -10.39,-6.41 -15.91,-8.98 -11.57,-5.17 -24.17,-8.39 -36.92,-7.89 -15.04,-0.61 -30.02,3.13 -43.44,9.82 m 145.6,21.77 c -8.7,4.18 -15.39,11.94 -19.26,20.7 -4.39,9.47 -8.86,19.19 -16.1,26.87 -5.27,5.8 -12.21,9.81 -19.46,12.62 -1.41,0.58 -2.86,1.12 -4.09,2.03 1.1,3.05 4.05,5.06 5.98,7.61 3.7,3.96 7.12,8.2 10.92,12.08 1.17,1.67 3.35,0.63 4.75,-0.16 9.8,-5.82 19.41,-12.4 26.74,-21.25 5.23,-6.13 8.85,-13.39 12.31,-20.61 2.8,-5.77 7.1,-11.2 13.17,-13.71 5.1,-2 10.57,0.09 15.09,2.57 9.79,5.41 19.43,11.08 28.83,17.13 19.56,13.01 37.48,28.39 53.7,45.35 13.07,13.32 25.07,27.63 38.02,41.05 3.73,3.67 7.48,7.41 11.92,10.22 2.16,2.24 5.49,3.07 8.31,4.28 -0.4,-1.7 -0.96,-3.37 -1.87,-4.87 C 557.48,165.53 540.84,134.96 516.87,110.07 501.28,94 483.08,80.74 464.34,68.61 454.26,62.37 443.92,56.28 432.6,52.59 423.98,50.5 414.44,49.24 406.09,53.07 M 145.2,83.79 c 2.22,-0.14 4.44,-0.21 6.66,-0.45 18.35,-1.64 37.04,-1.21 55.12,2.47 30.48,5.88 59.59,17.97 85.94,34.29 27.36,16.71 51.76,38.2 72.14,62.93 29.64,36.05 50.33,80.34 54.63,127.1 1.55,11.92 0.68,23.98 0.73,35.96 9.32,-14.85 12.79,-32.73 12.3,-50.1 -0.36,-4.87 0.52,-9.84 -0.66,-14.62 l -0.07,0.88 C 428.2,251.52 415.85,222.43 399.75,196.19 384,170.52 364.13,147.53 341.81,127.36 315.03,103.23 284.87,82.17 251.01,69.3 231.94,62.08 211.38,57.82 190.97,60.23 173.55,62.3 156.93,70.71 145.2,83.79 m 275.67,6.71 c -4.04,3.11 -5.56,8.28 -6.74,13.01 13.18,5.97 27.09,12.12 41.89,11.39 5.63,0.11 11.22,-1.02 16.47,-3.03 -1.16,-1.43 -2.86,-2.11 -4.55,-2.67 -9.27,-4.77 -18.72,-9.2 -27.79,-14.36 -3.69,-2.04 -7.36,-4.18 -11.29,-5.75 -2.66,-1.11 -5.97,-0.76 -7.99,1.41 m -275.28,9.1 c -1.25,14.05 -0.54,28.99 6.02,41.79 2.27,4.48 4.62,9.2 8.78,12.25 -0.05,-5.24 -1.3,-10.39 -1.2,-15.65 -0.37,-8.79 1.15,-17.75 5.24,-25.6 2.14,-4.02 5.47,-7.26 7.59,-11.3 -7.93,-4.4 -18.12,-5.2 -26.43,-1.49 m 266.61,11.15 c -2.53,2.68 -5.12,5.29 -7.87,7.73 -1.44,1.39 -4.13,2.31 -4.26,4.49 3.5,3.29 8.25,4.88 12.78,6.22 9.15,1.76 18.48,-0.34 27.17,-3.27 3.16,-1.16 6.59,-1.93 9.18,-4.24 -2.09,-0.23 -4.22,-0.95 -6.33,-0.66 -10.84,-0.96 -21.84,-3.59 -30.67,-10.27 m -200.17,6.13 c -3.67,1.74 -7.17,3.83 -10.63,5.97 v 0.19 c -4.41,3.19 -8.45,7.03 -11.05,11.88 4.21,3.13 10.71,6.69 8.91,13.01 -3.14,4.88 -8.02,8.26 -12.2,12.19 -5.63,5.36 -11.71,10.25 -17.08,15.89 -1.51,1.12 -0.84,3.44 0.7,4.2 5.58,4.25 13.04,3.09 19.6,3.31 9.17,7.54 10.86,21.06 21.09,27.59 l 0.02,0.16 c 2.48,1.06 5.02,1.98 7.42,3.22 -0.07,0.17 -0.22,0.52 -0.29,0.69 -6.36,4.23 -14.75,4.29 -21.72,1.61 -2.25,-0.7 -4.39,-1.92 -6.76,-2.1 -1.21,4.02 -1.9,8.4 -4.54,11.8 -1.35,1.91 -3.88,1.77 -5.95,1.87 0.28,-2.74 0.85,-5.47 0.7,-8.24 -0.51,-3.64 -2.57,-6.77 -4.07,-10.04 -4.86,4.35 -7.99,10.24 -11.43,15.7 3.36,3.01 6.72,6.03 10.1,9.03 6.19,-0.96 12.15,-2.94 18.31,-3.97 1.37,-0.36 2.23,0.96 3.07,1.78 4.52,5.35 8.49,11.14 12.95,16.53 1.79,2.71 3.72,5.34 5.92,7.74 2.73,3.1 7.37,2.98 10.42,5.64 0.66,1.2 -0.81,1.79 -1.41,2.59 -3.98,3.16 -2.33,8.78 -2.62,13.15 -4.5,-4 -7.05,-9.77 -11.64,-13.71 -2.08,-3.31 -5.13,-5.8 -7.81,-8.58 -3.34,-3.18 -6.78,-6.53 -11.09,-8.34 -5.95,-1.53 -11.95,1.32 -17.91,0.66 -3.2,-1.73 -5.69,-4.62 -9.1,-5.97 -1.89,-0.28 -3.79,0.02 -5.68,0.05 l 0.4,0.19 c -1.72,1.24 -3.79,2.26 -4.76,4.26 -3.09,5.11 0.51,12.29 6.12,13.65 9.54,2.32 19.64,1.39 28.98,4.68 5.37,1.66 9.9,5.12 14.27,8.54 l -0.02,0.12 c 1.28,1.55 3.46,2.84 3.38,5.1 0.2,4.29 -1.09,8.43 -1.59,12.66 -0.31,-0.02 -0.94,-0.04 -1.26,-0.05 -2.97,-4.7 -7.04,-8.68 -11.96,-11.29 -10.96,-6.34 -23.98,-7.43 -36.38,-7.47 l -0.13,0.31 c -4.01,1.96 -6.03,6.26 -7.96,10.05 -3.32,6.61 -4.31,15.08 0.06,21.46 4.43,5.31 11.59,6.72 17.68,9.28 21.17,7.44 42.73,14.28 65.03,17.27 8.96,0.64 18.11,1.04 27.01,-0.15 19.87,-2.14 37.01,-13.63 52.67,-25.23 3.62,-2.54 6.66,-5.96 10.83,-7.64 -1.31,9.33 -6.23,17.56 -11.33,25.25 -0.88,0.76 -1.74,1.56 -2.56,2.39 -11.48,12.72 -27.79,20.85 -44.78,22.81 -6.98,0.6 -13.97,0.7 -20.97,0.71 -1.64,-0.33 -1.22,1.74 -1.36,2.67 -0.22,12.34 0.44,24.78 -1.4,37.03 -1.43,9.17 -6.37,17.23 -11.99,24.42 4.67,-0.11 9.18,-1.36 13.69,-2.4 21.98,-4.82 43.36,-13.15 61.99,-25.88 3.09,-2.33 6.56,-4.3 9.11,-7.27 4.72,-3.07 8.42,-7.44 12.27,-11.5 11.08,-12.66 19.18,-29.14 17.78,-46.33 -0.65,-4.89 -0.25,-10.48 -3.66,-14.48 -3,-3.62 -6.54,-7.01 -8.08,-11.57 -1.64,-3.82 -1,-8.17 0.68,-11.85 0.35,0.08 1.05,0.25 1.4,0.33 3.5,6.5 8.5,13.03 16.12,14.72 8.02,0.95 16.02,-3.27 21.18,-9.17 6.33,-5.74 10.77,-13.26 14.37,-20.93 4.65,-10.2 7.57,-21.8 5.33,-32.97 -1.64,-5.46 -4.71,-12.34 -11.12,-13.11 -5.65,-0.81 -11.35,1.03 -15.88,4.39 -3.04,1.83 -5.54,5.18 -9.35,5.28 -3.73,0.09 -7.47,0.17 -11.18,-0.22 -7.43,-1.82 -13.99,-7.22 -16.87,-14.36 -1.89,-4.19 -1.83,-8.87 -2.85,-13.27 -2.42,-1.73 -5.53,-2.22 -7.83,-4.15 -5.84,-4.27 -8.31,-11.77 -8.15,-18.78 -10.82,-2.03 -19.86,-10.98 -22.02,-21.77 -1.95,-8.1 -0.04,-16.46 2.12,-24.25 -16.13,-8.35 -33.04,-16.15 -51.23,-18.43 -7.32,-0.04 -15.01,-1.14 -22.03,1.45 m 250.67,6.26 c 2.38,3.33 5.75,5.72 8.57,8.64 12.69,12.64 24.88,25.78 37.41,38.57 10.58,10.4 21.65,20.56 34.34,28.35 -0.44,-4.37 -0.97,-8.82 -2.7,-12.89 -3.17,-8.98 -9.16,-16.65 -15.7,-23.44 -12.44,-13.76 -26.41,-26.01 -39.56,-39.08 -3.18,0.8 -6.41,1.31 -9.67,1.49 -4.29,-0.08 -8.52,-0.71 -12.69,-1.64 m -79.27,12.28 c -2.26,0.97 -4.41,2.18 -6.5,3.46 5.84,3.46 11.77,7.16 18.55,8.43 10.73,1.55 21.92,-1.4 30.91,-7.3 -1.52,-0.34 -3.03,-0.64 -4.55,-0.92 -10.04,-1.51 -20.92,-3.74 -27.83,-11.88 -3.17,3.17 -6.66,6.03 -10.58,8.21 m 59.85,-1.41 c -3.07,0.98 -6.26,1.43 -9.45,1.69 2.12,2.72 5.09,4.56 7.52,6.97 10.08,9.57 19.84,19.47 29.88,29.09 5.25,4.81 10.11,10.06 15.81,14.36 8.43,6.53 17.7,11.91 27.3,16.51 1.44,0.68 3,1.04 4.55,1.42 -0.06,-3.66 -1.19,-7.14 -2.88,-10.34 l -0.3,-0.08 c -3.9,-6.67 -9.38,-12.18 -14.5,-17.89 -4.53,-5.1 -9.41,-9.86 -14.15,-14.76 -9.96,-10.04 -19.37,-20.63 -29.42,-30.57 -4.91,0.16 -9.53,2.64 -14.36,3.6 m -145.45,3.84 c -3.83,5.14 -4.94,12.06 -3.37,18.23 1.33,7.14 5.25,14.93 12.6,17.31 4.66,0.71 9.23,-1.92 12.56,-4.98 1.84,-1.75 3.31,-3.83 5.05,-5.67 1.28,2.17 3.3,4.45 2.43,7.19 -1.36,4.21 -4.9,7.23 -8.69,9.26 -0.83,0.43 -2.48,1.29 -3.31,1.72 2.26,5.82 6.94,10.62 12.78,12.87 5.06,1.81 10.89,0.53 14.8,-3.15 1.35,-2.42 2.17,-5.22 4.23,-7.17 1.15,5.04 2.94,10.74 0.41,15.64 -2.6,4.12 -8.09,4.49 -12.48,4.18 l -0.18,-0.48 c -2.03,-0.38 -4.06,-0.77 -6.07,-1.19 0.74,3.87 1.22,7.98 3.55,11.3 3.87,5.94 11.83,9.09 18.65,6.84 6.7,-2.71 11.13,-9.23 18.39,-10.81 -4.54,-10.53 -10.37,-20.62 -17.75,-29.44 -8.31,-10.09 -19.12,-17.61 -29.36,-25.59 -6.81,-5.41 -13.98,-10.34 -20.9,-15.61 -0.65,-1.02 -2.6,-1.8 -3.34,-0.45 m 131.36,11.37 c -2.87,1.99 -6.24,3.12 -9.7,3.5 -2.94,-0.05 -5.88,0.03 -8.82,0.2 4.42,6.26 10.79,10.8 16.4,15.92 17.36,13.9 37.56,25.64 59.94,28.6 -5.93,-4.85 -12.61,-8.71 -18.3,-13.87 l -0.31,-0.05 c -3.64,-4.01 -7.76,-7.58 -11.19,-11.79 -7.02,-8.21 -13.08,-17.58 -22.09,-23.81 -2,-1.76 -4.2,0.23 -5.93,1.3 m -38.44,10.75 c 1.08,2.21 2.36,4.34 3.9,6.27 5.21,6.91 9.47,14.57 15.19,21.06 1.68,-4.99 3.78,-9.92 7.74,-13.55 -3.05,-4.05 -6.89,-7.73 -11.49,-9.91 -5.05,-1.54 -10.3,-2.32 -15.34,-3.87 m 26,34.97 c -0.86,5.19 1.25,10.24 3.47,14.8 5.45,11.11 9.98,22.63 15,33.93 1.39,3.59 2.94,7.12 4.71,10.54 4.78,-6.03 7.85,-13.18 10.76,-20.24 3.8,-11.52 5.79,-24.13 2.63,-36.05 -2.31,-2.08 -4.84,-3.9 -7.56,-5.4 l -0.05,-0.32 c -2.97,-1.72 -5.52,-4.21 -8.73,-5.48 -3.64,-0.4 -7.35,-0.45 -10.99,-0.02 -4.37,0.64 -7.89,4.15 -9.24,8.24 M 171.9,190.12 c 0.64,3.94 1.42,8.01 3.56,11.44 7.18,2.53 13.16,7.74 20.74,9.27 -1.95,-4.86 -5.42,-8.95 -7.06,-13.95 -1.03,-1.98 -1.43,-5.34 -4.21,-5.46 -4.33,-0.56 -8.69,-0.79 -13.03,-1.3 m 219.29,91.05 c -3.16,5.7 -6.23,11.53 -10.37,16.61 -3.72,4.58 -9.39,7.33 -15.23,7.88 -1.94,-0.03 -3.88,-0.01 -5.82,0.03 1.69,7.01 5.71,14.18 12.83,16.78 l 0.02,0.1 c 2.45,0.77 4.91,1.53 7.37,2.31 -3.76,2.36 -8.48,3.25 -12.79,2.04 -3.32,-1.12 -5.74,-3.81 -8.39,-5.96 -1.33,-2.59 -2.7,-5.43 -5.24,-7.03 -1.2,11.19 4.56,21.99 13.25,28.76 l 0.1,0.32 c 2.45,1.76 4.92,3.48 7.42,5.18 -2.4,3.84 -7.5,3.65 -11.42,3.03 -4.48,-1.08 -7.29,-5 -10.27,-8.17 -0.23,-1.43 -0.89,-2.74 -1.38,-4.08 -3.99,6.44 -7.35,14.48 -4.66,22.05 1.98,5.51 7.51,9.71 13.43,9.74 3.61,0.02 7.37,0.28 10.85,-0.81 4.42,-0.88 9.35,-2.1 12.46,-5.57 9.74,-15.59 15.89,-33.84 15.28,-52.37 0.33,-11.27 -2.13,-22.36 -4.98,-33.19 -0.99,0.6 -2,1.23 -2.46,2.35 z"
       id="path160"
       inkscape:connector-curvature="0"
       style="opacity:1;fill:#000000" />
    <path
       d="m 259.51,234.59 c 2.75,-0.62 5.65,-1.16 8.41,-0.23 9.24,2.58 17.72,7.4 27.14,9.45 7.53,2.27 15.44,2.38 23.14,3.73 -3.06,1.68 -6.19,3.25 -9.43,4.55 -7.37,2.47 -14.93,5.26 -22.81,5.06 -4.11,-0.12 -7.88,-1.8 -11.48,-3.6 -1.79,-1.15 -2.71,1.29 -3.51,2.44 -5.87,10.29 -10.42,21.31 -17,31.19 -2.11,2.63 -4.47,5.71 -8.12,5.96 -0.43,-4.89 -0.31,-9.86 1.02,-14.62 3.04,-10.14 8.44,-19.44 10.97,-29.76 1.17,-4.64 0.41,-9.53 1.67,-14.17 z"
       id="path162"
       inkscape:connector-curvature="0"
       style="opacity:1;fill:#000000" />
    <path
       d="m 370.83,234.96 c 1.71,-0.88 3.65,-0.69 5.5,-0.57 0.45,6.93 1.07,14.27 -1.9,20.77 -1.19,2.82 -3.23,5.23 -5.89,6.77 -0.52,-5.13 -0.32,-10.32 -1.05,-15.43 -0.33,-0.23 -1,-0.69 -1.34,-0.92 -1.93,1.49 -4.95,2.87 -5.45,5.32 2.22,5.48 2.67,12.06 -0.46,17.29 -3.55,5.75 -9.61,10.77 -16.77,10.26 2.84,-4.12 7.01,-7.17 9.41,-11.62 3.77,-5.83 0.6,-13.25 2.54,-19.43 4.6,-4.7 9.28,-9.74 15.41,-12.44 z"
       id="path164"
       inkscape:connector-curvature="0"
       style="opacity:1;fill:#000000" />
  </g>
  <g
     id="#fedc9eff"
     transform="matrix(0.10057497,0,0,0.10057497,-12.310786,1.7895602)">
    <path
       d="m 260.49,31.3 c 13.42,-6.69 28.4,-10.43 43.44,-9.82 12.75,-0.5 25.35,2.72 36.92,7.89 5.52,2.57 11.12,5.16 15.91,8.98 -1.99,-0.06 -3.95,-0.56 -5.7,-1.51 -12.19,-6.61 -26.31,-9.07 -40.08,-8.58 -8.05,-0.05 -16.23,0.21 -23.96,2.69 -13.44,3.84 -26.48,9.8 -37.1,19.03 -2.62,2.2 -5.1,5.09 -8.75,5.34 -3.23,-0.98 -6.51,-1.73 -9.84,-2.21 7.95,-9.32 18.23,-16.42 29.16,-21.81 z"
       id="path167"
       inkscape:connector-curvature="0"
       style="opacity:1;fill:#fedc9e" />
  </g>
  <g
     id="#fec432ff"
     transform="matrix(0.10057497,0,0,0.10057497,-12.310786,1.7895602)">
    <path
       d="m 287.02,30.95 c 7.73,-2.48 15.91,-2.74 23.96,-2.69 13.77,-0.49 27.89,1.97 40.08,8.58 1.75,0.95 3.71,1.45 5.7,1.51 l 0.27,0.02 c 0.62,0.39 1.25,0.79 1.88,1.18 -1.06,3.85 1.8,7.07 2.79,10.59 2.48,7.97 3.5,16.46 3,24.79 -1.48,7.39 -5.66,14.61 -12.26,18.54 -6.14,4.28 -13.04,7.26 -19.98,9.98 -14,-11.36 -29.03,-21.52 -45.04,-29.85 -14.68,-7.75 -30.07,-14.41 -46.25,-18.28 3.65,-0.25 6.13,-3.14 8.75,-5.34 10.62,-9.23 23.66,-15.19 37.1,-19.03 z"
       id="path170"
       inkscape:connector-curvature="0"
       style="opacity:1;fill:#fec432" />
  </g>
  <g
     id="#e88015ff"
     transform="matrix(0.10057497,0,0,0.10057497,-12.310786,1.7895602)">
    <path
       d="m 358.91,39.55 c 4.6,3.65 8.45,8.39 10.56,13.91 2.41,5.89 2.84,12.32 4.06,18.51 1.21,4.83 -0.5,9.63 -2.11,14.13 -3.89,9.1 -12.53,15.03 -21.34,18.8 -3.61,1.46 -7.15,3.33 -11.04,3.84 -2.52,-1.3 -4.49,-3.42 -6.58,-5.29 6.94,-2.72 13.84,-5.7 19.98,-9.98 6.6,-3.93 10.78,-11.15 12.26,-18.54 0.5,-8.33 -0.52,-16.82 -3,-24.79 -0.99,-3.52 -3.85,-6.74 -2.79,-10.59 z"
       id="path173"
       inkscape:connector-curvature="0"
       style="opacity:1;fill:#e88015" />
  </g>
  <g
     id="#43c4a6ff"
     transform="matrix(0.10057497,0,0,0.10057497,-12.310786,1.7895602)">
    <path
       d="m 406.09,53.07 c 8.35,-3.83 17.89,-2.57 26.51,-0.48 11.32,3.69 21.66,9.78 31.74,16.02 18.74,12.13 36.94,25.39 52.53,41.46 23.97,24.89 40.61,55.46 58.18,84.91 0.91,1.5 1.47,3.17 1.87,4.87 -2.82,-1.21 -6.15,-2.04 -8.31,-4.28 -0.35,-1.38 -0.61,-2.81 -1.23,-4.1 -16.76,-28.24 -33.84,-57.09 -58.45,-79.32 -9.77,-9.4 -20.66,-17.54 -31.73,-25.32 -9.79,-6.65 -19.66,-13.27 -30.22,-18.65 -9.09,-4.29 -18.74,-8.38 -29,-7.99 -10.58,-0.31 -20.27,6.17 -26.07,14.67 -8.04,11.58 -11.46,26.17 -21.98,36.06 -4.63,5.24 -10.9,8.4 -16.77,11.98 -1.93,-2.55 -4.88,-4.56 -5.98,-7.61 1.23,-0.91 2.68,-1.45 4.09,-2.03 7.25,-2.81 14.19,-6.82 19.46,-12.62 7.24,-7.68 11.71,-17.4 16.1,-26.87 3.87,-8.76 10.56,-16.52 19.26,-20.7 z"
       id="path176"
       inkscape:connector-curvature="0"
       style="opacity:1;fill:#43c4a6" />
  </g>
  <g
     id="#fedc9cff"
     transform="matrix(0.10057497,0,0,0.10057497,-12.310786,1.7895602)">
    <path
       d="m 145.2,83.79 c 11.73,-13.08 28.35,-21.49 45.77,-23.56 20.41,-2.41 40.97,1.85 60.04,9.07 33.86,12.87 64.02,33.93 90.8,58.06 22.32,20.17 42.19,43.16 57.94,68.83 16.1,26.24 28.45,55.33 32.24,86.06 -0.12,0.57 0.07,3 -1.05,2.17 -1.5,-17.57 -8.14,-34.11 -15.18,-50.1 C 410.64,223.93 405.72,213.4 399.3,203.72 391.15,190.21 381.37,177.79 371.26,165.7 361.5,154.49 350.71,144.25 339.99,133.97 319.19,115.89 296.71,99.53 272.1,86.98 258.35,80.61 244.33,74.5 229.41,71.44 c -20.64,-5.1 -43.17,-4.76 -62.73,4.15 -5.07,2.36 -9.05,7 -14.82,7.75 -2.22,0.24 -4.44,0.31 -6.66,0.45 z"
       id="path179"
       inkscape:connector-curvature="0"
       style="opacity:1;fill:#fedc9c" />
  </g>
  <g
     id="#93e7d4ff"
     transform="matrix(0.10057497,0,0,0.10057497,-12.310786,1.7895602)">
    <path
       d="m 391.91,74.86 c 5.8,-8.5 15.49,-14.98 26.07,-14.67 10.26,-0.39 19.91,3.7 29,7.99 10.56,5.38 20.43,12 30.22,18.65 11.07,7.78 21.96,15.92 31.73,25.32 24.61,22.23 41.69,51.08 58.45,79.32 0.62,1.29 0.88,2.72 1.23,4.1 -4.44,-2.81 -8.19,-6.55 -11.92,-10.22 -12.95,-13.42 -24.95,-27.73 -38.02,-41.05 -16.22,-16.96 -34.14,-32.34 -53.7,-45.35 -9.4,-6.05 -19.04,-11.72 -28.83,-17.13 -4.52,-2.48 -9.99,-4.57 -15.09,-2.57 -6.07,2.51 -10.37,7.94 -13.17,13.71 -3.46,7.22 -7.08,14.48 -12.31,20.61 -7.33,8.85 -16.94,15.43 -26.74,21.25 -1.4,0.79 -3.58,1.83 -4.75,0.16 -3.8,-3.88 -7.22,-8.12 -10.92,-12.08 5.87,-3.58 12.14,-6.74 16.77,-11.98 10.52,-9.89 13.94,-24.48 21.98,-36.06 z"
       id="path182"
       inkscape:connector-curvature="0"
       style="opacity:1;fill:#93e7d4" />
  </g>
  <g
     id="#fdc434ff"
     transform="matrix(0.10057497,0,0,0.10057497,-12.310786,1.7895602)">
    <path
       d="m 166.68,75.59 c 19.56,-8.91 42.09,-9.25 62.73,-4.15 14.92,3.06 28.94,9.17 42.69,15.54 24.61,12.55 47.09,28.91 67.89,46.99 10.72,10.28 21.51,20.52 31.27,31.73 10.11,12.09 19.89,24.51 28.04,38.02 6.42,9.68 11.34,20.21 16.46,30.6 7.04,15.99 13.68,32.53 15.18,50.1 1.12,0.83 0.93,-1.6 1.05,-2.17 l 0.07,-0.88 c 1.18,4.78 0.3,9.75 0.66,14.62 0.49,17.37 -2.98,35.25 -12.3,50.1 -0.05,-11.98 0.82,-24.04 -0.73,-35.96 -4.3,-46.76 -24.99,-91.05 -54.63,-127.1 C 344.68,158.3 320.28,136.81 292.92,120.1 266.57,103.78 237.46,91.69 206.98,85.81 188.9,82.13 170.21,81.7 151.86,83.34 c 5.77,-0.75 9.75,-5.39 14.82,-7.75 z"
       id="path185"
       inkscape:connector-curvature="0"
       style="opacity:1;fill:#fdc434" />
  </g>
  <g
     id="#42c5a7ff"
     transform="matrix(0.10057497,0,0,0.10057497,-12.310786,1.7895602)">
    <path
       d="m 420.87,90.5 c 2.02,-2.17 5.33,-2.52 7.99,-1.41 3.93,1.57 7.6,3.71 11.29,5.75 9.07,5.16 18.52,9.59 27.79,14.36 -2.88,2.11 -6.6,1.54 -9.94,1.63 -8.84,0.17 -17.42,-2.43 -25.67,-5.33 -4.66,-1.87 -9.46,-3.59 -13.72,-6.32 0.12,-3 1.39,-5.83 2.26,-8.68 z"
       id="path188"
       inkscape:connector-curvature="0"
       style="opacity:1;fill:#42c5a7" />
    <path
       d="m 383.43,135.42 c 3.92,-2.18 7.41,-5.04 10.58,-8.21 6.91,8.14 17.79,10.37 27.83,11.88 -1.25,0.98 -2.38,2.23 -3.95,2.69 -11.57,3.38 -25.34,2.16 -34.46,-6.36 z"
       id="path190"
       inkscape:connector-curvature="0"
       style="opacity:1;fill:#42c5a7" />
  </g>
  <g
     id="#26947cff"
     transform="matrix(0.10057497,0,0,0.10057497,-12.310786,1.7895602)">
    <path
       d="m 414.13,103.51 c 1.18,-4.73 2.7,-9.9 6.74,-13.01 -0.87,2.85 -2.14,5.68 -2.26,8.68 4.26,2.73 9.06,4.45 13.72,6.32 8.25,2.9 16.83,5.5 25.67,5.33 3.34,-0.09 7.06,0.48 9.94,-1.63 1.69,0.56 3.39,1.24 4.55,2.67 -5.25,2.01 -10.84,3.14 -16.47,3.03 -14.8,0.73 -28.71,-5.42 -41.89,-11.39 z"
       id="path193"
       inkscape:connector-curvature="0"
       style="opacity:1;fill:#26947c" />
  </g>
  <g
     id="#1f2512ff"
     transform="matrix(0.10057497,0,0,0.10057497,-12.310786,1.7895602)">
    <path
       d="m 145.59,99.6 c 8.31,-3.71 18.5,-2.91 26.43,1.49 -2.12,4.04 -5.45,7.28 -7.59,11.3 -4.09,7.85 -5.61,16.81 -5.24,25.6 -0.1,5.26 1.15,10.41 1.2,15.65 -4.16,-3.05 -6.51,-7.77 -8.78,-12.25 -6.56,-12.8 -7.27,-27.74 -6.02,-41.79 z"
       id="path196"
       inkscape:connector-curvature="0"
       style="opacity:1;fill:#1f2512" />
  </g>
  <g
     id="#41c5a6ff"
     transform="matrix(0.10057497,0,0,0.10057497,-12.310786,1.7895602)">
    <path
       d="m 412.2,110.75 c 8.83,6.68 19.83,9.31 30.67,10.27 -4.12,3.52 -9.79,3.64 -14.91,4.24 -8.29,0.84 -17.62,-0.49 -23.63,-6.78 2.75,-2.44 5.34,-5.05 7.87,-7.73 z"
       id="path199"
       inkscape:connector-curvature="0"
       style="opacity:1;fill:#41c5a6" />
  </g>
  <g
     id="#e87e19ff"
     transform="matrix(0.10057497,0,0,0.10057497,-12.310786,1.7895602)">
    <path
       d="m 212.03,116.88 c 7.02,-2.59 14.71,-1.49 22.03,-1.45 18.19,2.28 35.1,10.08 51.23,18.43 -2.16,7.79 -4.07,16.15 -2.12,24.25 2.16,10.79 11.2,19.74 22.02,21.77 -0.16,7.01 2.31,14.51 8.15,18.78 2.3,1.93 5.41,2.42 7.83,4.15 1.02,4.4 0.96,9.08 2.85,13.27 2.88,7.14 9.44,12.54 16.87,14.36 3.71,0.39 7.45,0.31 11.18,0.22 3.81,-0.1 6.31,-3.45 9.35,-5.28 4.53,-3.36 10.23,-5.2 15.88,-4.39 6.41,0.77 9.48,7.65 11.12,13.11 2.24,11.17 -0.68,22.77 -5.33,32.97 -3.6,7.67 -8.04,15.19 -14.37,20.93 1.14,-2.89 2.31,-5.77 3.92,-8.43 4.64,-7.72 7.52,-16.31 10.09,-24.89 1.89,-6.03 2.3,-12.5 1.29,-18.73 -0.68,-4.52 -5.76,-6.82 -9.92,-6.35 -10.08,1.01 -18.14,8.26 -28.02,9.99 -4.71,0.62 -10.04,0.4 -13.79,-2.89 -7.98,-6.64 -11.2,-16.91 -14.81,-26.24 -2.76,-3.72 -8.15,-4.24 -11.16,-7.83 -4.91,-4.86 -5.56,-11.97 -6.69,-18.4 -3.05,-3.01 -7.39,-4.34 -10.43,-7.41 -8.32,-7.62 -11.68,-18.95 -13.14,-29.79 -0.42,-3.02 -0.23,-6.11 -0.92,-9.08 -1.12,-1.33 -2.63,-2.24 -4.09,-3.14 -13.76,-7.91 -28.63,-14.06 -44.22,-17.22 -4.87,-0.87 -9.86,-1.32 -14.8,-0.71 z"
       id="path202"
       inkscape:connector-curvature="0"
       style="opacity:1;fill:#e87e19" />
  </g>
  <g
     id="#ffae5dff"
     transform="matrix(0.10057497,0,0,0.10057497,-12.310786,1.7895602)">
    <path
       d="m 201.4,122.85 c 3.46,-2.14 6.96,-4.23 10.63,-5.97 4.94,-0.61 9.93,-0.16 14.8,0.71 15.59,3.16 30.46,9.31 44.22,17.22 1.46,0.9 2.97,1.81 4.09,3.14 0.69,2.97 0.5,6.06 0.92,9.08 1.46,10.84 4.82,22.17 13.14,29.79 3.04,3.07 7.38,4.4 10.43,7.41 1.13,6.43 1.78,13.54 6.69,18.4 3.01,3.59 8.4,4.11 11.16,7.83 3.61,9.33 6.83,19.6 14.81,26.24 3.75,3.29 9.08,3.51 13.79,2.89 9.88,-1.73 17.94,-8.98 28.02,-9.99 4.16,-0.47 9.24,1.83 9.92,6.35 1.01,6.23 0.6,12.7 -1.29,18.73 -2.57,8.58 -5.45,17.17 -10.09,24.89 -1.61,2.66 -2.78,5.54 -3.92,8.43 -5.16,5.9 -13.16,10.12 -21.18,9.17 -7.62,-1.69 -12.62,-8.22 -16.12,-14.72 -0.35,-0.08 -1.05,-0.25 -1.4,-0.33 -1.68,3.68 -2.32,8.03 -0.68,11.85 1.54,4.56 5.08,7.95 8.08,11.57 3.41,4 3.01,9.59 3.66,14.48 1.4,17.19 -6.7,33.67 -17.78,46.33 -3.85,4.06 -7.55,8.43 -12.27,11.5 -4.14,1.8 -7.96,4.19 -11.97,6.24 -16.12,7.3 -32.22,15.71 -49.99,18.07 1.56,-7.34 3.7,-14.63 3.86,-22.18 0.4,-6.22 -0.2,-12.48 0.59,-18.67 -0.17,-1.95 2.07,-1.97 3.4,-2.45 10.21,-2.13 20.2,-5.5 29.46,-10.33 10.14,-5.45 19.5,-13.84 22.92,-25.16 5.1,-7.69 10.02,-15.92 11.33,-25.25 -4.17,1.68 -7.21,5.1 -10.83,7.64 -15.66,11.6 -32.8,23.09 -52.67,25.23 1.68,-0.53 3.33,-1.12 4.99,-1.7 -16.11,-1.74 -32.14,-4.25 -48.1,-7.04 -17.88,-3.82 -36.16,-6.9 -53.05,-14.16 -3.61,-1.84 -8.06,-3.3 -9.93,-7.2 -1.86,-4.69 -1.74,-9.93 -0.9,-14.83 0.78,-4.66 3.51,-8.62 5.17,-12.98 l 0.13,-0.31 c 12.4,0.04 25.42,1.13 36.38,7.47 4.92,2.61 8.99,6.59 11.96,11.29 0.32,0.01 0.95,0.03 1.26,0.05 0.5,-4.23 1.79,-8.37 1.59,-12.66 0.08,-2.26 -2.1,-3.55 -3.38,-5.1 l 0.02,-0.12 c 0.12,-0.62 0.37,-1.85 0.49,-2.47 -1.95,-2.04 -3.91,-4.18 -6.49,-5.44 -10.38,-5.1 -21.89,-6.93 -32.94,-10.02 -2.65,-0.86 -5.52,-1.58 -7.63,-3.5 -1.48,-3.27 1.08,-6.61 1.96,-9.7 5.52,1.63 7.46,8.61 13.32,9.45 7.22,1.09 14.67,1.02 21.68,3.26 6.03,1.91 10.58,6.53 16.19,9.28 4.59,3.94 7.14,9.71 11.64,13.71 0.29,-4.37 -1.36,-9.99 2.62,-13.15 0.6,-0.8 2.07,-1.39 1.41,-2.59 -3.05,-2.66 -7.69,-2.54 -10.42,-5.64 -2.2,-2.4 -4.13,-5.03 -5.92,-7.74 0.45,0.03 1.33,0.08 1.78,0.1 -3.54,-6.19 -7.36,-12.21 -10.82,-18.44 -1.17,-1.75 -2.11,-3.99 -4.14,-4.87 -6.47,0.27 -12.2,4.12 -18.63,4.61 -3.03,-0.89 -5.01,-3.63 -7.24,-5.69 2.38,-4.77 5.03,-9.49 6.05,-14.78 1.5,3.27 3.56,6.4 4.07,10.04 0.15,2.77 -0.42,5.5 -0.7,8.24 2.07,-0.1 4.6,0.04 5.95,-1.87 2.64,-3.4 3.33,-7.78 4.54,-11.8 2.37,0.18 4.51,1.4 6.76,2.1 6.97,2.68 15.36,2.62 21.72,-1.61 0.07,-0.17 0.22,-0.52 0.29,-0.69 -2.4,-1.24 -4.94,-2.16 -7.42,-3.22 l -0.02,-0.16 c -0.31,-3.81 -2.5,-7.03 -3.89,-10.49 -2.49,-5.9 -4.01,-12.23 -7.26,-17.79 -1.04,-1.55 -2.08,-3.38 -3.91,-4.08 -6.45,-1.23 -13.33,0.81 -19.59,-1.47 -2.45,-1.16 -0.17,-3.33 1.08,-4.41 7.37,-6.3 14.82,-12.55 21.43,-19.65 2.48,-2.87 5.16,-6.56 4.2,-10.57 -0.94,-4.24 -5.36,-5.98 -8.59,-8.2 2.02,-3.34 4.41,-6.43 6.53,-9.7 0.01,-0.43 0.02,-1.29 0.03,-1.71 v -0.19 M 219.7,144 c -0.64,6.39 3.01,12.03 4.57,18 1.25,4.47 -3.78,8.58 -1.15,12.84 2.74,5.89 5.91,12.58 12.41,15.05 -0.44,-1.41 -0.91,-2.8 -1.25,-4.23 1.44,-2.56 1.37,-5.58 2.31,-8.31 3.02,2.41 5.85,5.16 9.42,6.76 5.4,2.5 11.37,3.2 17.04,4.89 4.11,1.06 7.94,3.06 12.14,3.86 0.4,0.34 1.22,1.03 1.62,1.38 -0.06,-3.09 -0.61,-6.19 -2.24,-8.85 -3.57,-6.95 -10.35,-11.25 -16.58,-15.56 -3.35,-2.45 -7.39,-3.89 -10.37,-6.86 3.67,-0.54 7.53,-0.87 11.05,0.56 9.77,3.57 15.35,13.73 25.2,17.14 -1.35,-2.35 -3,-4.51 -4.57,-6.71 0.7,-2.93 -1.34,-5.43 -2.42,-7.97 -3.31,-7.07 -7.54,-14.56 -14.9,-18.02 -8.74,-4.16 -18.65,-2.02 -27.93,-3.29 -3.99,-0.01 -6.35,-4 -10.21,-4.47 -0.48,-2.12 -0.67,-4.3 -1.12,-6.42 -1.76,3.13 -2.45,6.71 -3.02,10.21 m 39.81,90.59 c -1.26,4.64 -0.5,9.53 -1.67,14.17 -2.53,10.32 -7.93,19.62 -10.97,29.76 -1.33,4.76 -1.45,9.73 -1.02,14.62 3.65,-0.25 6.01,-3.33 8.12,-5.96 1.07,-0.63 2.22,-1.18 3.12,-2.06 6.56,-6.55 10.84,-14.91 15,-23.09 0.93,-1.88 2.48,-4.21 4.93,-3.22 11.3,1.75 24.11,0.83 33.21,-6.78 l -1.46,0.06 c 3.24,-1.3 6.37,-2.87 9.43,-4.55 -7.7,-1.35 -15.61,-1.46 -23.14,-3.73 -9.42,-2.05 -17.9,-6.87 -27.14,-9.45 -2.76,-0.93 -5.66,-0.39 -8.41,0.23 m 111.32,0.37 c -6.13,2.7 -10.81,7.74 -15.41,12.44 -1.94,6.18 1.23,13.6 -2.54,19.43 -2.4,4.45 -6.57,7.5 -9.41,11.62 7.16,0.51 13.22,-4.51 16.77,-10.26 3.13,-5.23 2.68,-11.81 0.46,-17.29 0.5,-2.45 3.52,-3.83 5.45,-5.32 0.34,0.23 1.01,0.69 1.34,0.92 0.73,5.11 0.53,10.3 1.05,15.43 2.66,-1.54 4.7,-3.95 5.89,-6.77 2.97,-6.5 2.35,-13.84 1.9,-20.77 -1.85,-0.12 -3.79,-0.31 -5.5,0.57 z"
       id="path205"
       inkscape:connector-curvature="0"
       style="opacity:1;fill:#ffae5d" />
  </g>
  <g
     id="#24947bff"
     transform="matrix(0.10057497,0,0,0.10057497,-12.310786,1.7895602)">
    <path
       d="m 400.07,122.97 c 0.13,-2.18 2.82,-3.1 4.26,-4.49 6.01,6.29 15.34,7.62 23.63,6.78 5.12,-0.6 10.79,-0.72 14.91,-4.24 2.11,-0.29 4.24,0.43 6.33,0.66 -2.59,2.31 -6.02,3.08 -9.18,4.24 -8.69,2.93 -18.02,5.03 -27.17,3.27 -4.53,-1.34 -9.28,-2.93 -12.78,-6.22 z"
       id="path208"
       inkscape:connector-curvature="0"
       style="opacity:1;fill:#24947b" />
  </g>
  <g
     id="#29947cff"
     transform="matrix(0.10057497,0,0,0.10057497,-12.310786,1.7895602)">
    <path
       d="m 462.7,123.14 c 4.17,0.93 8.4,1.56 12.69,1.64 1.76,4.79 6,7.82 9.32,11.45 4.86,4.85 9.27,10.12 14.11,14.98 4.97,5.02 9.26,10.69 14.66,15.29 8.41,7.67 17.18,14.98 26.52,21.51 0.08,-0.55 0.24,-1.65 0.32,-2.2 1.73,4.07 2.26,8.52 2.7,12.89 -12.69,-7.79 -23.76,-17.95 -34.34,-28.35 -12.53,-12.79 -24.72,-25.93 -37.41,-38.57 -2.82,-2.92 -6.19,-5.31 -8.57,-8.64 z"
       id="path211"
       inkscape:connector-curvature="0"
       style="opacity:1;fill:#29947c" />
  </g>
  <g
     id="#fddb9eff"
     transform="matrix(0.10057497,0,0,0.10057497,-12.310786,1.7895602)">
    <path
       d="m 190.35,134.92 c 2.6,-4.85 6.64,-8.69 11.05,-11.88 -0.01,0.42 -0.02,1.28 -0.03,1.71 -2.12,3.27 -4.51,6.36 -6.53,9.7 3.23,2.22 7.65,3.96 8.59,8.2 0.96,4.01 -1.72,7.7 -4.2,10.57 -6.61,7.1 -14.06,13.35 -21.43,19.65 -1.25,1.08 -3.53,3.25 -1.08,4.41 6.26,2.28 13.14,0.24 19.59,1.47 1.83,0.7 2.87,2.53 3.91,4.08 3.25,5.56 4.77,11.89 7.26,17.79 1.39,3.46 3.58,6.68 3.89,10.49 -10.23,-6.53 -11.92,-20.05 -21.09,-27.59 -6.56,-0.22 -14.02,0.94 -19.6,-3.31 -1.54,-0.76 -2.21,-3.08 -0.7,-4.2 5.37,-5.64 11.45,-10.53 17.08,-15.89 4.18,-3.93 9.06,-7.31 12.2,-12.19 1.8,-6.32 -4.7,-9.88 -8.91,-13.01 z"
       id="path214"
       inkscape:connector-curvature="0"
       style="opacity:1;fill:#fddb9e" />
  </g>
  <g
     id="#42c5a8ff"
     transform="matrix(0.10057497,0,0,0.10057497,-12.310786,1.7895602)">
    <path
       d="m 475.39,124.78 c 3.26,-0.18 6.49,-0.69 9.67,-1.49 13.15,13.07 27.12,25.32 39.56,39.08 6.54,6.79 12.53,14.46 15.7,23.44 -0.08,0.55 -0.24,1.65 -0.32,2.2 -9.34,-6.53 -18.11,-13.84 -26.52,-21.51 -5.4,-4.6 -9.69,-10.27 -14.66,-15.29 -4.84,-4.86 -9.25,-10.13 -14.11,-14.98 -3.32,-3.63 -7.56,-6.66 -9.32,-11.45 z"
       id="path217"
       inkscape:connector-curvature="0"
       style="opacity:1;fill:#42c5a8" />
    <path
       d="m 443.28,134.01 c 4.83,-0.96 9.45,-3.44 14.36,-3.6 10.05,9.94 19.46,20.53 29.42,30.57 4.74,4.9 9.62,9.66 14.15,14.76 5.12,5.71 10.6,11.22 14.5,17.89 -5.07,-1.15 -9.48,-4.02 -14.02,-6.42 -17.72,-10.28 -31.54,-25.7 -46.04,-39.88 -4.16,-4.41 -9,-8.23 -12.37,-13.32 z"
       id="path219"
       inkscape:connector-curvature="0"
       style="opacity:1;fill:#42c5a8" />
  </g>
  <g
     id="#000100ff"
     transform="matrix(0.10057497,0,0,0.10057497,-12.310786,1.7895602)">
    <path
       d="m 219.7,144 c 0.57,-3.5 1.26,-7.08 3.02,-10.21 0.45,2.12 0.64,4.3 1.12,6.42 1.05,4.28 4.44,8.25 9.19,8.1 10.22,0.25 21.26,-1.23 30.52,4.14 8.05,4.72 10.67,14.27 15.75,21.51 1.57,2.2 3.22,4.36 4.57,6.71 -9.85,-3.41 -15.43,-13.57 -25.2,-17.14 -3.52,-1.43 -7.38,-1.1 -11.05,-0.56 2.98,2.97 7.02,4.41 10.37,6.86 6.23,4.31 13.01,8.61 16.58,15.56 1.63,2.66 2.18,5.76 2.24,8.85 -0.4,-0.35 -1.22,-1.04 -1.62,-1.38 -3.68,-3.65 -8.24,-6.36 -13.32,-7.5 -5.31,-1.12 -10.79,-1.98 -15.63,-4.59 -4.64,-2.32 -7.88,-6.49 -11.37,-10.19 -1.4,4.89 -1.98,10.12 -0.59,15.08 0.34,1.43 0.81,2.82 1.25,4.23 -6.5,-2.47 -9.67,-9.16 -12.41,-15.05 -2.63,-4.26 2.4,-8.37 1.15,-12.84 -1.56,-5.97 -5.21,-11.61 -4.57,-18 z"
       id="path222"
       inkscape:connector-curvature="0"
       style="opacity:1;fill:#000100" />
  </g>
  <g
     id="#28957cff"
     transform="matrix(0.10057497,0,0,0.10057497,-12.310786,1.7895602)">
    <path
       d="m 433.83,135.7 c 3.19,-0.26 6.38,-0.71 9.45,-1.69 3.37,5.09 8.21,8.91 12.37,13.32 14.5,14.18 28.32,29.6 46.04,39.88 4.54,2.4 8.95,5.27 14.02,6.42 l 0.3,0.08 c 1.69,3.2 2.82,6.68 2.88,10.34 -1.55,-0.38 -3.11,-0.74 -4.55,-1.42 -9.6,-4.6 -18.87,-9.98 -27.3,-16.51 -5.7,-4.3 -10.56,-9.55 -15.81,-14.36 -10.04,-9.62 -19.8,-19.52 -29.88,-29.09 -2.43,-2.41 -5.4,-4.25 -7.52,-6.97 z"
       id="path225"
       inkscape:connector-curvature="0"
       style="opacity:1;fill:#28957c" />
  </g>
  <g
     id="#25947bff"
     transform="matrix(0.10057497,0,0,0.10057497,-12.310786,1.7895602)">
    <path
       d="m 376.93,138.88 c 2.09,-1.28 4.24,-2.49 6.5,-3.46 9.12,8.52 22.89,9.74 34.46,6.36 1.57,-0.46 2.7,-1.71 3.95,-2.69 1.52,0.28 3.03,0.58 4.55,0.92 -8.99,5.9 -20.18,8.85 -30.91,7.3 -6.78,-1.27 -12.71,-4.97 -18.55,-8.43 z"
       id="path228"
       inkscape:connector-curvature="0"
       style="opacity:1;fill:#25947b" />
  </g>
  <g
     id="#fcb059ff"
     transform="matrix(0.10057497,0,0,0.10057497,-12.310786,1.7895602)">
    <path
       d="m 297.83,137.85 c 0.74,-1.35 2.69,-0.57 3.34,0.45 0.86,9.29 -2.17,19.68 3.45,27.98 3.66,4.54 10.05,2.7 15,2.13 -3.33,3.06 -7.9,5.69 -12.56,4.98 -7.35,-2.38 -11.27,-10.17 -12.6,-17.31 -1.57,-6.17 -0.46,-13.09 3.37,-18.23 z"
       id="path231"
       inkscape:connector-curvature="0"
       style="opacity:1;fill:#fcb059" />
  </g>
  <g
     id="#e87f16ff"
     transform="matrix(0.10057497,0,0,0.10057497,-12.310786,1.7895602)">
    <path
       d="m 301.17,138.3 c 6.92,5.27 14.09,10.2 20.9,15.61 10.24,7.98 21.05,15.5 29.36,25.59 7.38,8.82 13.21,18.91 17.75,29.44 -7.26,1.58 -11.69,8.1 -18.39,10.81 -3.2,-2.05 -6.84,-3.35 -9.86,-5.67 -3.38,-2.66 -4.66,-6.93 -6.09,-10.8 4.39,0.31 9.88,-0.06 12.48,-4.18 2.53,-4.9 0.74,-10.6 -0.41,-15.64 -2.06,1.95 -2.88,4.75 -4.23,7.17 -5.69,-0.42 -12.06,0.19 -16.91,-3.37 -2.69,-2.47 -4.68,-5.58 -7.36,-8.07 3.79,-2.03 7.33,-5.05 8.69,-9.26 0.87,-2.74 -1.15,-5.02 -2.43,-7.19 -1.74,1.84 -3.21,3.92 -5.05,5.67 -4.95,0.57 -11.34,2.41 -15,-2.13 -5.62,-8.3 -2.59,-18.69 -3.45,-27.98 z"
       id="path234"
       inkscape:connector-curvature="0"
       style="opacity:1;fill:#e87f16" />
    <path
       d="m 306.74,325.76 c 0.82,-0.83 1.68,-1.63 2.56,-2.39 -3.42,11.32 -12.78,19.71 -22.92,25.16 -9.26,4.83 -19.25,8.2 -29.46,10.33 -1.33,0.48 -3.57,0.5 -3.4,2.45 -0.79,6.19 -0.19,12.45 -0.59,18.67 -0.16,7.55 -2.3,14.84 -3.86,22.18 17.77,-2.36 33.87,-10.77 49.99,-18.07 4.01,-2.05 7.83,-4.44 11.97,-6.24 -2.55,2.97 -6.02,4.94 -9.11,7.27 -18.63,12.73 -40.01,21.06 -61.99,25.88 -4.51,1.04 -9.02,2.29 -13.69,2.4 5.62,-7.19 10.56,-15.25 11.99,-24.42 1.84,-12.25 1.18,-24.69 1.4,-37.03 0.14,-0.93 -0.28,-3 1.36,-2.67 7,-0.01 13.99,-0.11 20.97,-0.71 16.99,-1.96 33.3,-10.09 44.78,-22.81 z"
       id="path236"
       inkscape:connector-curvature="0"
       style="opacity:1;fill:#e87f16" />
  </g>
  <g
     id="#feda98ff"
     transform="matrix(0.10057497,0,0,0.10057497,-12.310786,1.7895602)">
    <path
       d="m 223.84,140.21 c 3.86,0.47 6.22,4.46 10.21,4.47 9.28,1.27 19.19,-0.87 27.93,3.29 7.36,3.46 11.59,10.95 14.9,18.02 1.08,2.54 3.12,5.04 2.42,7.97 -5.08,-7.24 -7.7,-16.79 -15.75,-21.51 -9.26,-5.37 -20.3,-3.89 -30.52,-4.14 -4.75,0.15 -8.14,-3.82 -9.19,-8.1 z"
       id="path239"
       inkscape:connector-curvature="0"
       style="opacity:1;fill:#feda98" />
  </g>
  <g
     id="#42c5a9ff"
     transform="matrix(0.10057497,0,0,0.10057497,-12.310786,1.7895602)">
    <path
       d="m 429.19,149.22 c 1.73,-1.07 3.93,-3.06 5.93,-1.3 9.01,6.23 15.07,15.6 22.09,23.81 3.43,4.21 7.55,7.78 11.19,11.79 -2.4,-0.36 -4.79,-0.89 -6.99,-1.95 -11.65,-5.42 -22.6,-12.3 -32.69,-20.27 -3.37,-2.52 -6.49,-5.38 -9.23,-8.58 3.46,-0.38 6.83,-1.51 9.7,-3.5 z"
       id="path242"
       inkscape:connector-curvature="0"
       style="opacity:1;fill:#42c5a9" />
  </g>
  <g
     id="#28947cff"
     transform="matrix(0.10057497,0,0,0.10057497,-12.310786,1.7895602)">
    <path
       d="m 410.67,152.92 c 2.94,-0.17 5.88,-0.25 8.82,-0.2 2.74,3.2 5.86,6.06 9.23,8.58 10.09,7.97 21.04,14.85 32.69,20.27 2.2,1.06 4.59,1.59 6.99,1.95 l 0.31,0.05 c 5.69,5.16 12.37,9.02 18.3,13.87 -22.38,-2.96 -42.58,-14.7 -59.94,-28.6 -5.61,-5.12 -11.98,-9.66 -16.4,-15.92 z"
       id="path245"
       inkscape:connector-curvature="0"
       style="opacity:1;fill:#28947c" />
  </g>
  <g
     id="#1f2613ff"
     transform="matrix(0.10057497,0,0,0.10057497,-12.310786,1.7895602)">
    <path
       d="m 390.75,159.97 c 5.04,1.55 10.29,2.33 15.34,3.87 4.6,2.18 8.44,5.86 11.49,9.91 -3.96,3.63 -6.06,8.56 -7.74,13.55 -5.72,-6.49 -9.98,-14.15 -15.19,-21.06 -1.54,-1.93 -2.82,-4.06 -3.9,-6.27 z"
       id="path248"
       inkscape:connector-curvature="0"
       style="opacity:1;fill:#1f2613" />
  </g>
  <g
     id="#e78223ff"
     transform="matrix(0.10057497,0,0,0.10057497,-12.310786,1.7895602)">
    <path
       d="m 234.28,185.66 c -1.39,-4.96 -0.81,-10.19 0.59,-15.08 3.49,3.7 6.73,7.87 11.37,10.19 4.84,2.61 10.32,3.47 15.63,4.59 5.08,1.14 9.64,3.85 13.32,7.5 -4.2,-0.8 -8.03,-2.8 -12.14,-3.86 -5.67,-1.69 -11.64,-2.39 -17.04,-4.89 -3.57,-1.6 -6.4,-4.35 -9.42,-6.76 -0.94,2.73 -0.87,5.75 -2.31,8.31 z"
       id="path251"
       inkscape:connector-curvature="0"
       style="opacity:1;fill:#e78223" />
  </g>
  <g
     id="#fcaf54ff"
     transform="matrix(0.10057497,0,0,0.10057497,-12.310786,1.7895602)">
    <path
       d="m 315.1,180.91 c 0.83,-0.43 2.48,-1.29 3.31,-1.72 2.68,2.49 4.67,5.6 7.36,8.07 4.85,3.56 11.22,2.95 16.91,3.37 -3.91,3.68 -9.74,4.96 -14.8,3.15 -5.84,-2.25 -10.52,-7.05 -12.78,-12.87 z"
       id="path254"
       inkscape:connector-curvature="0"
       style="opacity:1;fill:#fcaf54" />
  </g>
  <g
     id="#fdc433ff"
     transform="matrix(0.10057497,0,0,0.10057497,-12.310786,1.7895602)">
    <path
       d="m 416.75,194.94 c 1.35,-4.09 4.87,-7.6 9.24,-8.24 3.64,-0.43 7.35,-0.38 10.99,0.02 3.21,1.27 5.76,3.76 8.73,5.48 l 0.05,0.32 c 2.13,9.71 1.65,19.79 -1.01,29.35 -2.18,7.63 -4.95,15.25 -9.53,21.8 -5.02,-11.3 -9.55,-22.82 -15,-33.93 -2.22,-4.56 -4.33,-9.61 -3.47,-14.8 z"
       id="path257"
       inkscape:connector-curvature="0"
       style="opacity:1;fill:#fdc433" />
  </g>
  <g
     id="#1e2614ff"
     transform="matrix(0.10057497,0,0,0.10057497,-12.310786,1.7895602)">
    <path
       d="m 171.9,190.12 c 4.34,0.51 8.7,0.74 13.03,1.3 2.78,0.12 3.18,3.48 4.21,5.46 1.64,5 5.11,9.09 7.06,13.95 -7.58,-1.53 -13.56,-6.74 -20.74,-9.27 -2.14,-3.43 -2.92,-7.5 -3.56,-11.44 z"
       id="path260"
       inkscape:connector-curvature="0"
       style="opacity:1;fill:#1e2614" />
  </g>
  <g
     id="#e87f14ff"
     transform="matrix(0.10057497,0,0,0.10057497,-12.310786,1.7895602)">
    <path
       d="m 445.76,192.52 c 2.72,1.5 5.25,3.32 7.56,5.4 3.16,11.92 1.17,24.53 -2.63,36.05 -2.91,7.06 -5.98,14.21 -10.76,20.24 -1.77,-3.42 -3.32,-6.95 -4.71,-10.54 4.58,-6.55 7.35,-14.17 9.53,-21.8 2.66,-9.56 3.14,-19.64 1.01,-29.35 z"
       id="path263"
       inkscape:connector-curvature="0"
       style="opacity:1;fill:#e87f14" />
  </g>
  <g
     id="#fcaf56ff"
     transform="matrix(0.10057497,0,0,0.10057497,-12.310786,1.7895602)">
    <path
       d="m 328.59,201.61 c 2.01,0.42 4.04,0.81 6.07,1.19 l 0.18,0.48 c 1.43,3.87 2.71,8.14 6.09,10.8 3.02,2.32 6.66,3.62 9.86,5.67 -6.82,2.25 -14.78,-0.9 -18.65,-6.84 -2.33,-3.32 -2.81,-7.43 -3.55,-11.3 z"
       id="path266"
       inkscape:connector-curvature="0"
       style="opacity:1;fill:#fcaf56" />
  </g>
  <g
     id="#fedb98ff"
     transform="matrix(0.10057497,0,0,0.10057497,-12.310786,1.7895602)">
    <path
       d="m 164.75,225.78 c 3.44,-5.46 6.57,-11.35 11.43,-15.7 -1.02,5.29 -3.67,10.01 -6.05,14.78 2.23,2.06 4.21,4.8 7.24,5.69 6.43,-0.49 12.16,-4.34 18.63,-4.61 2.03,0.88 2.97,3.12 4.14,4.87 3.46,6.23 7.28,12.25 10.82,18.44 -0.45,-0.02 -1.33,-0.07 -1.78,-0.1 -4.46,-5.39 -8.43,-11.18 -12.95,-16.53 -0.84,-0.82 -1.7,-2.14 -3.07,-1.78 -6.16,1.03 -12.12,3.01 -18.31,3.97 -3.38,-3 -6.74,-6.02 -10.1,-9.03 z"
       id="path269"
       inkscape:connector-curvature="0"
       style="opacity:1;fill:#fedb98" />
  </g>
  <g
     id="#ea7d18ff"
     transform="matrix(0.10057497,0,0,0.10057497,-12.310786,1.7895602)">
    <path
       d="m 158.26,242.38 c 1.89,-0.03 3.79,-0.33 5.68,-0.05 3.41,1.35 5.9,4.24 9.1,5.97 5.96,0.66 11.96,-2.19 17.91,-0.66 4.31,1.81 7.75,5.16 11.09,8.34 2.68,2.78 5.73,5.27 7.81,8.58 -5.61,-2.75 -10.16,-7.37 -16.19,-9.28 -7.01,-2.24 -14.46,-2.17 -21.68,-3.26 -5.86,-0.84 -7.8,-7.82 -13.32,-9.45 z"
       id="path272"
       inkscape:connector-curvature="0"
       style="opacity:1;fill:#ea7d18" />
  </g>
  <g
     id="#fedb9eff"
     transform="matrix(0.10057497,0,0,0.10057497,-12.310786,1.7895602)">
    <path
       d="m 153.9,246.83 c 0.97,-2 3.04,-3.02 4.76,-4.26 -0.88,3.09 -3.44,6.43 -1.96,9.7 2.11,1.92 4.98,2.64 7.63,3.5 11.05,3.09 22.56,4.92 32.94,10.02 2.58,1.26 4.54,3.4 6.49,5.44 -0.12,0.62 -0.37,1.85 -0.49,2.47 -4.37,-3.42 -8.9,-6.88 -14.27,-8.54 -9.34,-3.29 -19.44,-2.36 -28.98,-4.68 -5.61,-1.36 -9.21,-8.54 -6.12,-13.65 z"
       id="path275"
       inkscape:connector-curvature="0"
       style="opacity:1;fill:#fedb9e" />
  </g>
  <g
     id="#ea7f17ff"
     transform="matrix(0.10057497,0,0,0.10057497,-12.310786,1.7895602)">
    <path
       d="m 285.96,257.15 c 7.88,0.2 15.44,-2.59 22.81,-5.06 l 1.46,-0.06 c -9.1,7.61 -21.91,8.53 -33.21,6.78 -2.45,-0.99 -4,1.34 -4.93,3.22 -4.16,8.18 -8.44,16.54 -15,23.09 -0.9,0.88 -2.05,1.43 -3.12,2.06 6.58,-9.88 11.13,-20.9 17,-31.19 0.8,-1.15 1.72,-3.59 3.51,-2.44 3.6,1.8 7.37,3.48 11.48,3.6 z"
       id="path278"
       inkscape:connector-curvature="0"
       style="opacity:1;fill:#ea7f17" />
  </g>
  <g
     id="#fedb9aff"
     transform="matrix(0.10057497,0,0,0.10057497,-12.310786,1.7895602)">
    <path
       d="m 147.35,283.13 c 1.93,-3.79 3.95,-8.09 7.96,-10.05 -1.66,4.36 -4.39,8.32 -5.17,12.98 -0.84,4.9 -0.96,10.14 0.9,14.83 1.87,3.9 6.32,5.36 9.93,7.2 16.89,7.26 35.17,10.34 53.05,14.16 15.96,2.79 31.99,5.3 48.1,7.04 -1.66,0.58 -3.31,1.17 -4.99,1.7 -8.9,1.19 -18.05,0.79 -27.01,0.15 -22.3,-2.99 -43.86,-9.83 -65.03,-17.27 -6.09,-2.56 -13.25,-3.97 -17.68,-9.28 -4.37,-6.38 -3.38,-14.85 -0.06,-21.46 z"
       id="path281"
       inkscape:connector-curvature="0"
       style="opacity:1;fill:#fedb9a" />
  </g>
  <g
     id="#e87f15ff"
     transform="matrix(0.10057497,0,0,0.10057497,-12.310786,1.7895602)">
    <path
       d="m 391.19,281.17 c 0.46,-1.12 1.47,-1.75 2.46,-2.35 2.85,10.83 5.31,21.92 4.98,33.19 0.61,18.53 -5.54,36.78 -15.28,52.37 -3.11,3.47 -8.04,4.69 -12.46,5.57 0.85,-0.61 1.68,-1.24 2.52,-1.87 -5.29,-2.24 -11.13,-4.02 -15.1,-8.41 -3.94,-4.58 -5.19,-10.76 -5.66,-16.62 2.98,3.17 5.79,7.09 10.27,8.17 3.92,0.62 9.02,0.81 11.42,-3.03 -2.5,-1.7 -4.97,-3.42 -7.42,-5.18 l -0.1,-0.32 c -2.27,-7.39 -5.73,-14.34 -8.01,-21.73 2.65,2.15 5.07,4.84 8.39,5.96 4.31,1.21 9.03,0.32 12.79,-2.04 -2.46,-0.78 -4.92,-1.54 -7.37,-2.31 l -0.02,-0.1 c -1.38,-5.97 -5.28,-10.94 -7.01,-16.81 5.84,-0.55 11.51,-3.3 15.23,-7.88 4.14,-5.08 7.21,-10.91 10.37,-16.61 z"
       id="path284"
       inkscape:connector-curvature="0"
       style="opacity:1;fill:#e87f15" />
  </g>
  <g
     id="#f9b058ff"
     transform="matrix(0.10057497,0,0,0.10057497,-12.310786,1.7895602)">
    <path
       d="m 359.77,305.69 c 1.94,-0.04 3.88,-0.06 5.82,-0.03 1.73,5.87 5.63,10.84 7.01,16.81 -7.12,-2.6 -11.14,-9.77 -12.83,-16.78 z"
       id="path287"
       inkscape:connector-curvature="0"
       style="opacity:1;fill:#f9b058" />
  </g>
  <g
     id="#fcaf58ff"
     transform="matrix(0.10057497,0,0,0.10057497,-12.310786,1.7895602)">
    <path
       d="m 353.57,313.93 c 2.54,1.6 3.91,4.44 5.24,7.03 2.28,7.39 5.74,14.34 8.01,21.73 -8.69,-6.77 -14.45,-17.57 -13.25,-28.76 z"
       id="path290"
       inkscape:connector-curvature="0"
       style="opacity:1;fill:#fcaf58" />
  </g>
  <g
     id="#fdae5dff"
     transform="matrix(0.10057497,0,0,0.10057497,-12.310786,1.7895602)">
    <path
       d="m 346.61,361.02 c -2.69,-7.57 0.67,-15.61 4.66,-22.05 0.49,1.34 1.15,2.65 1.38,4.08 0.47,5.86 1.72,12.04 5.66,16.62 3.97,4.39 9.81,6.17 15.1,8.41 -0.84,0.63 -1.67,1.26 -2.52,1.87 -3.48,1.09 -7.24,0.83 -10.85,0.81 -5.92,-0.03 -11.45,-4.23 -13.43,-9.74 z"
       id="path293"
       inkscape:connector-curvature="0"
       style="opacity:1;fill:#fdae5d" />
  </g>
</svg>
