<svg id="Layer_1" data-name="Layer 1" xmlns="http://www.w3.org/2000/svg" viewBox="0 0 997.19 1072.57" height="64" width="64"><defs><style>.cls-1{fill:#d0af6d;}.cls-2{fill:#d1030c;}.cls-3{fill:#a88d58;}.cls-4{fill:#524834;}.cls-5{fill:#272114;}.cls-6{fill:#201b11;}.cls-7{fill:#d9be88;}.cls-8{fill:#413722;}.cls-9{fill:#dcc391;}.cls-10{fill:#dbc18c;}.cls-11{fill:#fefefe;}.cls-12{fill:#d0af6c;}.cls-13{fill:#fdfdfd;}.cls-14{fill:#ccac6c;}.cls-15{fill:#949494;}.cls-16{fill:#b89b60;}.cls-17{fill:#98804f;}.cls-18{fill:#4d4d4d;}.cls-19{fill:#5b5b5b;}.cls-20{fill:#463b25;}.cls-21{fill:#3b3b3b;}.cls-22{fill:#a78d57;}.cls-23{fill:#848484;}.cls-24{fill:#957e4e;}.cls-25{fill:#101010;}.cls-26{fill:#af020a;}.cls-27{fill:#b7030b;}.cls-28{fill:#800207;}.cls-29{fill:#353535;}.cls-30{fill:#90794b;}.cls-31{fill:#695837;}.cls-32{fill:#8b7548;}.cls-33{fill:#54472c;}.cls-34{fill:#2f2d28;}.cls-35{fill:#410104;}.cls-36{fill:#cecece;}.cls-37{fill:#890208;}.cls-38{fill:#690206;}.cls-39{fill:#7c6941;}.cls-40{fill:#454545;}.cls-41{fill:#4f4f4f;}.cls-42{fill:#1a1a1a;}.cls-43{fill:#221d12;}.cls-44{fill:#382f1d;}.cls-45{fill:#4e4229;}.cls-46{fill:#2b2517;}.cls-47{fill:#685836;}.cls-48{fill:#707070;}.cls-49{fill:#3c331f;}.cls-50{fill:#900208;}.cls-51{fill:#9d0209;}.cls-52{fill:#8f794b;}.cls-53{fill:#c3a466;}.cls-54{fill:#7b6d50;}.cls-55{fill:#9c9c9c;}.cls-56{fill:#151515;}.cls-57{fill:#5b4d30;}.cls-58{fill:#ece5d6;}.cls-59{fill:#990209;}.cls-60{fill:#e6e6e6;}.cls-61{fill:#7c0207;}.cls-62{fill:#8f0208;}.cls-63{fill:#7f7f7f;}.cls-64{fill:#b6995f;}.cls-65{fill:#9c8352;}.cls-66{fill:#826e44;}.cls-67{fill:#8e8e8e;}.cls-68{fill:#a98e59;}.cls-69{fill:#ca232a;}.cls-70{fill:#d7232a;}.cls-71{fill:#020202;}.cls-72{fill:#484848;}.cls-73{fill:#e8d8b8;}.cls-74{fill:#3e3e3e;}.cls-75{fill:#8f8f8f;}.cls-76{fill:#dec697;}.cls-77{fill:#a6a6a6;}.cls-78{fill:#e6d4b1;}.cls-79{fill:#606060;}.cls-80{fill:#585858;}.cls-81{fill:#e4d2ac;}.cls-82{fill:#d9d0bd;}.cls-83{fill:#9e9e9e;}.cls-84{fill:#292215;}.cls-85{fill:#f6f1e6;}.cls-86{fill:#bebebe;}.cls-87{fill:#f4edde;}.cls-88{fill:#505050;}.cls-89{fill:#4d4b47;}.cls-90{fill:#202020;}.cls-91{fill:#aeaeae;}.cls-92{fill:#76633d;}</style></defs><title>Furious_Gaming</title><path class="cls-1" d="M58.26,943.13V936.3c0-98.49-.13-197,.12-295.47,0-18.91-6.83-34.61-18.65-48.71-10.06-12-22.32-21.37-35.56-29.54-1-.6-1.9-1.23-4.17-2.71l111.9-12.09c-2.5-15.75-5.13-30.61-7.15-45.56-2.47-18.28-5-36.59-6.47-55-2.4-30.67-4.5-61.38-5.67-92.11-1-25.47-.52-51-.42-76.48,0-1.74,1.94-4.21,3.63-5.09,21.83-11.39,43.78-22.55,65.71-33.75,2-1,4.12-1.95,7.09-3.36-31.14-12.33-46.75-36.12-54.09-67.69,14.45,9.57,29.74,12.34,45.85,11,18.59-1.53,36.23-7,53.33-14.08,12.52-5.21,24.79-11,38.39-17.14-15.45-7.09-27.94-15.84-36-29.41-4.13-6.9-7.09-14.5-11-22.58,7.78,2.85,14,6,20.63,7.39,15.39,3.25,30.49.86,45-4.77,27.6-10.67,52.85-25.92,78.38-40.62,11.38-6.55,23.38-12,34.7-18.69,5.51-3.24,10-8.17,15.11-12.14C421.89,9.85,448,.94,477.05.08c24.53-.73,48,3.63,70.32,14,33.92,15.8,58.8,40.21,71.94,75.83a15.65,15.65,0,0,0,5.6,7c14.69,10,28,21.53,38.92,35.6,1.06,1.36,2.57,2.92,4.11,3.26,18.14,4,29,16.41,36.17,32.32,3.23,7.17,4.85,15.14,6.5,22.9.7,3.27,1.66,4.64,4.94,5.53,52.65,14.22,103.79,32.59,152.72,56.75,13,6.41,25.45,13.83,38,21a6.25,6.25,0,0,1,2.61,4.63c-.23,31.31-.16,62.63-1.21,93.92-.82,24.42-2.22,48.89-4.91,73.16-3.56,32.2-8.48,64.26-13.18,96.33-.67,4.54.57,5.34,4.51,5.82,28.72,3.46,57.41,7.12,86.11,10.7,5.41.67,10.83,1.22,17,1.91-7.8,5.77-15.23,10.68-22,16.38-14.48,12.23-26.55,26.28-30.48,45.6a52.49,52.49,0,0,0-.82,10.41q-.06,151.74,0,303.47v6.74c-7.68-3.48-14.63-6.52-21.49-9.76-41-19.29-82.41-37.45-125.69-51-12.84-4-25.88-7.4-38.81-11.15-3.74-1.08-6.17-.38-8.78,3C693.54,947.24,625,1005,545.18,1049.57c-13.95,7.79-28.23,15-42.41,22.36a5.22,5.22,0,0,1-4,.38c-49.17-24.45-96.13-52.44-138.93-87.08A657.56,657.56,0,0,1,250.58,873.15c-2-2.61-3.84-2.83-6.72-2A877.25,877.25,0,0,0,119,915.75c-18.67,8.39-37.27,16.93-55.91,25.4C61.73,941.75,60.37,942.26,58.26,943.13ZM714.34,402.06c.1-.1.32-.25.3-.29a4.21,4.21,0,0,0-.39-.64c-.57-1.69-1.15-3.38-1.62-4.74-5.88,1.22-11.55,2.35-17.19,3.6a29.72,29.72,0,0,0-7.06,2A61,61,0,0,1,661,408.4c-3.86.05-9.86,1.19-11,3.64-1.44,3.11.07,8.66,2.11,12.08a146.83,146.83,0,0,0,14.36,19.44c5,5.87,10.69,11.14,16.07,16.68a32.3,32.3,0,0,0,2.38,2.56c2.34,1.92,4.77,3.73,7.7,6L705.49,441c1.75.92,3.41,1.63,4.9,2.61,20.3,13.34,27,32.95,25.16,56.1-.55,7-.71,13.43,2.41,20.19,2.94,6.37,4,13.64,5.61,20.58.28,1.22-.8,2.75-1.25,4.14l-6.86-.75,1.34-.74c-3.51-9.38-7.06-18.74-10.5-28.15a10.88,10.88,0,0,1-.75-4.66c.39-3.44,1.15-6.85,1.76-10.27v-1.92c0-2.36,0-4.71,0-7.06,0-.64,0-1.29,0-1.93-2.12-13.56-5.95-26.18-17.67-34.37L693,484.94l-1.08-.92c.34-1.44.68-2.89,1.08-4.63-4.59-1.43-7.16-7.73-13.39-5.23-.44-7-4.44-10.84-11.43-10.88l-1-.18c.05-.35.1-.7.14-1v-1.94c-2.14-7.33-5.06-10-11.33-10,2.6-6.13-.64-10.27-4.9-13.87-6.32-5.36-9.51-12.12-10.18-20.34-.79-9.62-.94-9.65,8-13.28,2.8-1.14,5.82-2.92,8.62-2.71,10.63.79,20.47-1.08,29.68-6.52a12.66,12.66,0,0,1,6-1.79c7.56-.07,14.43-1.66,20.2-7,2.68-2.47,4.93-2.38,5.93,1.88,1.37,5.87,3,11.66,4.6,17.47a4.93,4.93,0,0,0,1.14-.25c.74-.39,1.45-.83,2.14-1.28,13.23-8.62,20.13-21.26,23.07-36.4.12-.08.35-.18.34-.24a3.62,3.62,0,0,0-.24-.7c1.55-17.58-5.23-31.39-17.85-43.48-11.32-10.86-16.08-25-4.76-39.2.85-1,.76-3.78,0-5-4.08-6.66-8.31-13.25-13-19.54-1.33-1.81-4-3-6.33-3.64-6.82-2-14.19-2.59-20.56-5.46-13.23-6-14.27-17.09-3.66-26.67,7.41-6.7,14.84-13.71,15.19-24.8.49-15.63-5.39-28.82-15.73-40.24a32.85,32.85,0,0,0-21.3-10.86,6.08,6.08,0,0,1-4-2.17c-10.67-16-24.92-28.11-40.84-38.4A20,20,0,0,1,609,94.75c-7.17-20.56-18.82-38.11-36-51.76C540.62,17.32,503.76,7.52,463.05,12.34c-16.48,1.95-32.22,6.75-45.9,16.77l-1.77,1.49.37.57,2.56-.94c1.81-.21,3.62-.45,5.43-.64,18.55-1.89,36.4-.32,52.39,10.54l-1.28,1.19A91,91,0,0,0,430,38.77c-19.66,3.59-38,10.88-55.61,20C348.71,72,323.5,86.19,297.84,99.51c-16.42,8.52-33.45,15.78-52.29,16.85-5.62.31-11.31-.57-17.55-.93,12.73,20.35,33.08,25.89,54.52,29.94a7.14,7.14,0,0,1-1.3,1.15c-27,12.13-53.69,24.79-81,36.14-14.86,6.18-30.7,9.9-47.14,9.28h-1l-19-3.18-1-.14.75,1.82c7.06,14.71,18.62,25.16,32.79,32.36,10.65,5.4,22.13,9.17,33.05,13.58-1,.4-2.61,1.11-4.28,1.76a653.58,653.58,0,0,0-87.28,41.36c-3.11,1.79-4.42,3.67-4.32,7.37,1.16,41.07,1.55,82.17,3.33,123.22C108,450,113.1,489.6,119.8,529c1.53,9,3.09,17.91,4.69,27.23l-7.4.65-.91.08-8.09.92-.91.08-76.24,9.79c2.87,2.48,4.63,3.95,6.34,5.47C57.9,591.51,69.8,613.2,69.57,642c-.72,92.49-.27,185-.27,277.48v6a23.24,23.24,0,0,0,2.73-.88c56.34-28.9,115.71-49.64,176.77-65.9,3.34-.89,4.7.22,6.45,2.59a607.65,607.65,0,0,0,60.42,69.85c49.64,49.36,106.21,89.07,168.19,121.49,11.75,6.14,20.42,6.55,32.52.24,90.44-47.2,167.83-109.69,228.9-191.78,1.93-2.6,3.54-3,6.57-2.17,60.61,16,119.48,36.65,175.7,64.54,1.38.69,2.8,1.28,4.75,2.16v-6.88c0-94.83.22-189.66-.17-284.49C932,614.36,939,598,952,583.66c4.63-5.12,9.36-10.16,14-15.2-.3-.05-1.23-.22-2.18-.35L897.11,559l-.93-.06-8.06-.95-.94-.07L876,556.81c.3-1.82.5-3.25.77-4.68,8.28-43.7,14.71-87.69,17-132.09,2.32-44,2.81-88.15,4.31-132.22.15-4.35-1.48-6.46-5-8.47-37.19-21.27-76.29-38.29-116.73-52.21-22.72-7.83-45.82-14.56-69-21.87-4.73,10.91-11.83,18.73-20,25.73-3.08,2.63-1.86,5.67.48,7.74a19.2,19.2,0,0,0,7.76,4.24c5.95,1.43,12.08,2.08,18.11,3.19,1.67.3,4,.58,4.76,1.72,7.41,10.8,14.56,21.78,21.74,32.65l-2.68,3.57a7.9,7.9,0,0,0-1.51,1.22c-7.91,10.62-6.73,22.06,3.63,31.6,12,11,19.24,24.38,19.26,40.75,0,23.95-12,41.25-31.65,53.83-3.36,2.15-7.06,3.78-11,5.84C715.54,411.58,714.94,406.82,714.34,402.06Z"/><path d="M153.11,191.94c16.44.62,32.28-3.1,47.14-9.28,27.28-11.35,54-24,81-36.14a7.14,7.14,0,0,0,1.3-1.15c-21.44-4.05-41.79-9.59-54.52-29.94,6.24.36,11.93,1.24,17.55.93,18.84-1.07,35.87-8.33,52.29-16.85C323.5,86.19,348.71,72,374.39,58.74c17.59-9.09,35.95-16.38,55.61-20a91,91,0,0,1,44.85,2.55l3.32,1.48,1,.29,1.28.84.4-.56-1.67-1.28-.9-.51-2.12-1.45c-16-10.86-33.84-12.43-52.39-10.54-1.81.19-3.62.43-5.43.64l-1.16-1.12c13.68-10,29.42-14.82,45.9-16.77,40.71-4.82,77.57,5,109.89,30.65,17.19,13.65,28.84,31.2,36,51.76a20,20,0,0,0,8.67,10.88c15.92,10.29,30.17,22.44,40.84,38.4a6.08,6.08,0,0,0,4,2.17,32.85,32.85,0,0,1,21.3,10.86c10.34,11.42,16.22,24.61,15.73,40.24-.35,11.09-7.78,18.1-15.19,24.8-10.61,9.58-9.57,20.71,3.66,26.67,6.37,2.87,13.74,3.49,20.56,5.46,2.3.66,5,1.83,6.33,3.64,4.64,6.29,8.87,12.88,13,19.54.77,1.27.86,4,0,5-11.32,14.19-6.56,28.34,4.76,39.2,12.62,12.09,19.4,25.9,17.85,43.48a.85.85,0,0,0-.1.94c-2.94,15.14-9.84,27.78-23.07,36.4-.69.45-1.4.89-2.14,1.28a4.93,4.93,0,0,1-1.14.25c-1.55-5.81-3.23-11.6-4.6-17.47-1-4.26-3.25-4.35-5.93-1.88-5.77,5.31-12.64,6.9-20.2,7a12.66,12.66,0,0,0-6,1.79c-9.21,5.44-19,7.31-29.68,6.52-2.8-.21-5.82,1.57-8.62,2.71-8.94,3.63-8.79,3.66-8,13.28.67,8.22,3.86,15,10.18,20.34,4.26,3.6,7.5,7.74,4.9,13.87,6.27,0,9.19,2.65,11.33,10,0,.65,0,1.29,0,1.94,0,.34-.09.69-.14,1l-.4.66,1.43-.48c7,0,11,3.85,11.43,10.88,6.23-2.5,8.8,3.8,13.39,5.23-.4,1.74-.74,3.19-1.08,4.63l-.78,2.35.66.32,1.2-1.75,16.63-30.17c11.72,8.19,15.55,20.81,17.67,34.37,0,.64,0,1.29,0,1.93,0,2.35,0,4.7,0,7.06,0,.64,0,1.28,0,1.92-.61,3.42-1.37,6.83-1.76,10.27a10.88,10.88,0,0,0,.75,4.66c3.44,9.41,7,18.77,10.5,28.15l-1.34.74,6.84.75,4.87.23.46.16.49-.08,49.06,3.92.46.17.47-.09c1.16.12,2.33.17,3.47.36,8.62,1.41,6.89,1.12,8.39-6.17,7.8-37.95,13.79-76.21,16.21-114.9,2.11-33.67,3.21-67.4,4.89-101.11.2-3.93-1.12-6-4.77-7.52-12.72-5.33-25.16-11.33-38-16.42-16.81-6.68-33.86-12.74-50.81-19.06l2.68-3.57c-7.18-10.87-14.33-21.85-21.74-32.65-.79-1.14-3.09-1.42-4.76-1.72-6-1.11-12.16-1.76-18.11-3.19a19.2,19.2,0,0,1-7.76-4.24c-2.34-2.07-3.56-5.11-.48-7.74,8.16-7,15.26-14.82,20-25.73,23.2,7.31,46.3,14,69,21.87,40.44,13.92,79.54,30.94,116.73,52.21,3.52,2,5.15,4.12,5,8.47-1.5,44.07-2,88.2-4.31,132.22-2.34,44.4-8.77,88.39-17,132.09-.27,1.43-.47,2.86-.77,4.68l11.22,1.06.46.18.48-.11,8.06.95.46.17.47-.11,66.72,9.16c.95.13,1.88.3,2.18.35-4.65,5-9.38,10.08-14,15.2-13,14.38-20,30.7-19.87,50.64.39,94.83.17,189.66.17,284.49v6.88c-1.95-.88-3.37-1.47-4.75-2.16-56.22-27.89-115.09-48.57-175.7-64.54-3-.8-4.64-.43-6.57,2.17-61.07,82.09-138.46,144.58-228.9,191.78-12.1,6.31-20.77,5.9-32.52-.24-62-32.42-118.55-72.13-168.19-121.49a607.65,607.65,0,0,1-60.42-69.85c-1.75-2.37-3.11-3.48-6.45-2.59C187.74,875,128.37,895.75,72,924.65a23.24,23.24,0,0,1-2.73.88v-6c0-92.49-.45-185,.27-277.48.23-28.83-11.67-50.52-32.29-68.83-1.71-1.52-3.47-3-6.34-5.47l76.24-9.79.47.11.44-.19,8.09-.92.47.11.44-.19,7.4-.65c-1.6-9.32-3.16-18.27-4.69-27.23-6.7-39.38-11.83-79-13.57-118.89-1.78-41-2.17-82.15-3.33-123.22-.1-3.7,1.21-5.58,4.32-7.37a653.58,653.58,0,0,1,87.28-41.36c1.67-.65,3.31-1.36,4.28-1.76-10.92-4.41-22.4-8.18-33.05-13.58-14.17-7.2-25.73-17.65-32.79-32.36.09-.56.18-1.12.26-1.68l19,3.18.47.12Zm261,45.2a1.61,1.61,0,0,0,0-1l-1.46-1.37.51,1.3,1,1,.15,1,1.77,3.08c5.7,11.66,9.67,23.73,9.09,36.8-3.76-6.95-7-14.21-11.36-20.69-6.43-9.48-14.25-17.81-24.72-23.12l-1-1-1-1.08-1.33-.45,1.31,1.5,1.08-.05,1,1c1.66,2,3.3,4.09,5,6.1,30.72,36.59,27.17,107.63-13.1,135.73l-.91.4-1.94,1-2,.83c-.48.46-.95.93-1.42,1.4l1.33-.5,2-1.16,2-.84,1-.19a72.37,72.37,0,0,0,6.69-3.24c16.33-9.93,27.63-24.2,35.45-41.43l1,3q-4.59,13.89-9.19,27.77l-2.64,4.15-.27,1-1.07,1c-.18.45-.35.91-.53,1.36l1.57-1.36,0-1.05,1.42-.88,2.68-3a20.24,20.24,0,0,0,1.68-1.8c13.65-18.26,19.57-39,19.34-61.57-.24-22.27-5.67-43-20.12-60.65l-1.82-2.07Zm11-143-1,.24-6.37,4.56c-13.56,9.7-23.56,22.36-30.68,37.32-11.87,25-13.74,51.43-11.54,78.47a9.91,9.91,0,0,0,.84,2.44l13.67-4.69A114.32,114.32,0,0,1,402,138.18c12.48-23.58,31.55-39.95,56-50.31l3.05-1,2.95-1,3.09-.79,2.3-1.4L469,83,467.15,84,463,85l-3.24.93-3.65,1.17c-16.35,4.88-30.55,13.68-43.83,24.13l-1.08-1,8-9.91,5-4.94c.32-.39.64-.79.95-1.19l1,0,2-2a1.47,1.47,0,0,0,.43-.16c.07,0,0-.2.08-.31l-.45.53-2,1Zm184,470-.3-1-13.74-20,1.06-1.06c17.07,8.56,30.08,21,37.24,39,.49,1.22,2.05,2.77,3.22,2.87,16.31,1.37,32.4.61,48.33-3.86,10.18-2.86,13.36-10.3,15.18-19.26l2.45-4.53c.94,3,1.7,5.47,2.45,7.91l1,6,1.48.76c4.07-3.93,10.12-7.19,11.76-12a37.53,37.53,0,0,0-1-26.16c-1.07-3.76-2.13-7.53-3.34-11.8-4.7,3.67-8.7,7.51-14.75,5.55-.51-.16-1.53.53-2,1.09-4.94,5.78-12,2.82-17.6,4.56-6.15,1.91-11.74,5.59-18.39,3.71-3.61-1-6.82-.38-10.32-.27-8.83.26-17.77.29-26.56-.32-7.39-.51-12.42-6.51-17.11-12-1.1-1.3-2.56-2.76-4.1-3.12-9.88-2.31-17.4-7.9-23.56-15.75a8.76,8.76,0,0,0-4.64-3.06c-6-1.21-10.2-4.54-13.35-9.59a6.74,6.74,0,0,0-2.63-2.51c-2.79-1.33-5.72-2.39-8.59-3.55l-1-.89-2.09-1.74c-.12-.24-.25-.48-.38-.72l-.29.51.74.11,1.89,3.18,1,1.07,20.22,21.48c0,.37-.07.73-.11,1.1-4.1-2.5-8.35-4.77-12.27-7.52-20.38-14.3-37.35-31.33-45.77-55.61a311.41,311.41,0,0,1-14.05-60.57l-.24-2.2-.59,0v2.15c-1.47,25.58,1.27,50.6,10,74.83l-1.1,1.13c-16.26-18.91-25-41.16-28.75-66.64-4,4.62-7.47,8.39-10.62,12.39-.59.73-.34,2.52.08,3.6,9.57,24.25,14.61,49.31,13.91,75.47a5.57,5.57,0,0,0,2.85,4.12c11.28,4.84,22.94,8.85,34,14.14,32.53,15.55,63.36,33.82,89.6,59l1.41.6ZM576.15,81l.59.62c-.19-.52-.39-1-.59-1.57L574.21,77c-1.81-2.57-3.43-5.29-5.45-7.68C550.69,48,527.05,36.62,500.21,31l-2.44-.84-.33.64,1.74,1.3c10.12,7.07,17.49,16.58,23.67,27.46a22.5,22.5,0,0,0,1.84-1.71c5.57-6.59,5.54-6.54,13.4-3.32,13.31,5.46,24.44,14.11,35,23.65ZM388.22,395l9.09-.73c12-.69,22.5-5.73,32.83-11.27,0,.38,0,.76,0,1.15-14.23,14.89-31.72,22.22-53.73,22.17,2.22,1.09,3,1.59,3.91,1.91,20,7.3,38.61,3.6,54.36-9.58,15-12.57,28.4-27.08,42.41-40.84,11.67-11.44,23.42-22.75,38-30.61,17.34-9.36,43.28-11.86,60,7.11q1.07,2.43,2.12,4.84l-1.18.25c-3.45-1.94-6.7-4.46-10.39-5.68-4.82-1.59-9.91-1.5-14.1,2.22-3.15,2.8-2.66,5.91,1.34,7.08,4.26,1.23,8.25,3.42,13.32,1.59,2.51-.91,6.36.93,9.24,2.3,2.24,1.07,3.91,3.32,5.94,5.14,9.37-9.55,20.29-11.46,32.55-5.62,2.35,3,2.58-.55,3-1.25,4.29-7.19,10.23-11.2,18.86-10.5,1.42.12,2.84.27,4.61.44-.51-5.26-1-10-1.43-14.8l1-3.1c2.12,5,4.23,9.93,6.55,15.39,6-9.68,14.5-11.36,24.94-8.14-1.84-6.61-3.46-12.47-5.09-18.33.26,0,.52,0,.79,0l11.66,18.83c5-6.5,11.89-6.47,19.47-4.68-1.26-3.4-2.28-6.17-3.31-8.94.41-.41.82-.83,1.22-1.25,3.08,4.24,6.09,8.54,9.3,12.69.76,1,2.19,2.12,3.26,2.08a78.37,78.37,0,0,0,9-1.35l-2.66-3.13a12.38,12.38,0,0,0-.93-2.25c-7.31-11.25-9.86-22.81-2.71-35.21a4.11,4.11,0,0,0-.23-3.53c-2.52-3.89-5.29-7.61-8-11.39-.67-.82-1.22-2.16-2-2.37-7.26-1.81-14.59-3.43-23.25-5.42l7.91,19-.73.88c-14.35-10.81-23.2-25.63-30.82-41.72l9.79-5.63-15.8-4.5L655,224c7.87-5.4,16-10.48,23.55-16.31,6.24-4.81,8-11.58,5.6-19.24-3.38-10.59-7.88-20.41-18.08-26.3-2.59-2.23-2.35.78-3.13,1.74q-7.41,9-14.75,18.08a.93.93,0,0,0,.08-.35A5.25,5.25,0,0,0,648,181c1.17-3.8,2.29-7.61,3.52-11.38,1.6-4.89,1.44-9.53-2.15-13.51-6.62-7.36-13.36-14.63-20-21.94-1.51-1.5-2.92-3.13-4.57-4.47a169.67,169.67,0,0,0-86.39-37.14c-34.73-4.52-64.73,6.38-88.18,33A68,68,0,0,0,434,160.36c21.8-10.92,43.65-9.26,65.55-3.06,15.38,4.35,29,12.32,41.52,22.08,1.41,1.51,2.83,3,4.25,4.52-.07.49-.14,1-.2,1.47l-16.65-7.25c-20.46-9-41.62-12.41-63.43-6.3-17,4.78-25,16-25.43,33.74-.38,16.22,5.51,30.14,15.57,42.53v1.15L441.26,242l-1-2.16-1.16.94c.31.81.63,1.61.94,2.42,8.84,25.5,24.52,45.42,48.87,58.72-1.85.41-3,.72-4.12.9-1.32.19-2.65.3-4,.39-13.05.95-21.66,6.91-24.81,20.34a90.27,90.27,0,0,1-7.22,19.06c-11.7,23.79-27.95,42.86-54.59,50.63l-6,1-1.33.2ZM351.32,803l1,.14,3.88-.34,3.23-.64,3.76-.33,4-.74,3-.21,4.25-.72,4.77-.36,4.06-.69,4.94-.31,5-.67,0-.07a21.41,21.41,0,0,0,1-4.39c.08-16.85.06-33.7.07-50.55l10-4.48c3.31,19.53,6.54,38.58,9.82,58l44-3.34c-.09-1.15-.09-2.31-.28-3.44q-5.86-34.51-11.77-69l9.13-8.55c1.08-4.6,3.07-9.19,3.1-13.79.25-38.66.14-77.33.13-116a44.26,44.26,0,0,0-.27-6c-1-7.6-5.74-12.84-13.21-14.39a46.36,46.36,0,0,0-9.9-1q-15.48.18-30.95.8c-17.6.72-35.19,1.6-52.79,2.42a31.67,31.67,0,0,0-.57,4.3q0,115,0,229.94a30.41,30.41,0,0,0,.61,4.31Zm447.91-93.27L798.1,709a2.3,2.3,0,0,0-.37-.33.43.43,0,0,0-.32,0,31.71,31.71,0,0,0-.41,3.88q0,52.44,0,104.9c0,13.6,4.93,20.36,17.81,25,17.17,6.23,34.37,12.38,51.45,18.85,11.47,4.35,22.75,9.19,34.11,13.81.64-.12,1.83-.19,1.85-.37.24-2.47.42-5,.43-7.45,0-43.12-.29-86.25.18-129.36.16-14.68-5.1-25.56-16.89-34-15.15-10.83-30-22.08-45-33.15V613c5.25.75,9.95,1.69,14.69,2,3.54.25,4.33,1.78,4.29,5.06q-.18,15.74.25,31.47a7.29,7.29,0,0,0,2.42,4.89c12.13,9.62,24.42,19,36.69,28.49a37.64,37.64,0,0,0,3.63,2.13V617.38c.77-11.45,5.52-21.24,13.51-30-17.22-2-33.54-4.05-49.88-5.88-16.84-1.9-33.68-3.91-50.57-5.22-4.27-.33-8.73,1.82-13.11,2.82-5.19,4.46-5.89,10.51-5.89,16.78,0,21.34.38,42.68-.15,64-.33,13.57,5,22.93,16.3,30.3,15,9.83,29.44,20.64,44,31.21a7.45,7.45,0,0,1,2.89,5.07q.26,46.5.05,93c0,1.35-1.12,2.71-1.73,4.06-4.24-1.46-8.41-3.21-12.75-4.27-4-1-5.09-2.88-5.05-7,.22-23.47.15-47,0-70.44,0-1.76-.53-4.33-1.74-5.17C825.74,727.53,812.46,718.68,799.23,709.76ZM301,193l1.1,1.1c-9.82,17.43-25.05,27.72-43.91,33.19l-2.51,1.11,1.55.59c20,3.18,37.84-2.62,54.55-12.94,1.67-1,2.85-3.81,3.18-5.94,1.94-12.29,3.24-24.68,5.41-36.93,1.05-5.91,3.51-11.58,5.46-17.76a46.86,46.86,0,0,0-4.62,1.5c-19.85,8.9-39.89,17.39-59.46,26.88-23,11.16-44.49,26.25-72.37,25.48C210.5,222.57,270.43,217.8,301,193ZM203.93,716.25c.07-1.65.2-3.31.2-5q0-65.88,0-131.77v-5.9l-118,13.71-1.15,1c10.84,10.35,13.2,23.53,13.18,37.78Q98,748.27,98.14,870.38v6l42.77-18.11.26-64.08c2.37-.72,4.74-1.41,7.09-2.17q16.83-5.43,33.64-10.9v-32.7l-40.74,11.21V616l20.14-3.25v115Zm528,72.64-1.55-.49L714,784.78c.05-.5.14-1,.14-1.49q0-92,0-183.93c0-3.58-.46-7.17-.66-10.13L669.4,604.54c0,.06-.09,1.05-.09,2q0,91.21,0,182.43c0,12.27,5.3,18.37,17.64,21.07,22.73,5,45.42,10.2,68.22,14.8,4.44.9,9.34-.56,14-.93,7.13-3.69,8.09-10.29,8.09-17.3V572.29l-43.14-2.9a43.57,43.57,0,0,0-.56,4.8c0,14.65,0,29.3,0,43.94q0,82.47,0,164.93c0,2-.25,4-.39,6ZM652.07,502.27l-5.41-.52-4.78,11.44c-4.46-13.8-8.78-27.14-13.35-41.25-10.44,9.23-15.67,20.22-20.87,31.43-.52-3.85-.42-7.58-.57-11.29-.06-1.32-.33-3-1.19-3.84-3.59-3.36-7.44-6.45-11.47-9.87l-8.22,3.6.07.07c1.22-2.63,2.44-5.26,3.69-8-2.39-1.29-5.29-2.15-7.16-4-3.9-3.93-7.55-3.64-11.58-.64l-.27-1.63,2.58-4.15-13.4-9.72-2.93,1.45c-.05-.47-.1-.95-.16-1.42,3.12-5.53,2.63-8.19-2.21-11.27a28.23,28.23,0,0,0-4-2c-6-2.57-11.15-5.76-11-13.48-6.85,3.78-8.91,8.43-6.55,15.11a100.86,100.86,0,0,0,5.44,12.27c2.28,4.46,5,8.61,10.64,8.88,2.08,12.08,5.83,15.81,15.65,15.86,4.3,12.48,8.08,14.74,16.55,10.78,2,3.71,3.26,8.28,6.22,10.77,4.6,3.87,10.45,6.21,15.63,9.44,2.68,1.67,5.62,3.42,7.45,5.87,7.19,9.71,15.78,13.2,27.68,10.65a3,3,0,0,1,2.16.17c5.67,4.33,11.24,2.8,16.78-.14,7.53,3.77,13.78,4.08,19.82-.06a9.34,9.34,0,0,1,8.49-1.45c4.34,1.08,8.1-.68,11.41-3.61a6,6,0,0,1,3.52-1.59c5.26,0,13-4.94,14.42-10.08a64.68,64.68,0,0,0-1-39.24,36.73,36.73,0,0,0-2.65-5c-4.23,8.53-8.17,16.5-12.55,25.32l11.35-4.89c.56,5.72,1,10.7,1.53,15.69l-1.56-1c-.69-3-1.38-6-2.12-9.16l-7.73,3.35c-.3,3.91-.58,7.48-.85,11.05l-1-.13c-.63-3.05-1.26-6.1-1.93-9.38l-12.23,2.67c-.77,4.36-1.51,8.59-2.26,12.81a1.62,1.62,0,0,0-.92-.12c-.52-3.87-1-7.74-1.57-11.76l-14.16,2.09c-1.63,5.1-3.14,9.8-4.65,14.49-.22-3.74-.63-7.49-.61-11.23,0-2.84-1-3.95-3.81-3.64C655,502.14,653.54,502.18,652.07,502.27Zm-360.19,65H287.1V785l-20,4V568.9L225,572.3c-.34.52-1,1-1,1.56q0,117.14.06,234.28a22,22,0,0,0,.83,6.38c2.81,9.21,11.13,12.76,22.81,10.12,20.59-4.64,41.25-9,61.76-13.9,5.48-1.32,10.55-4.34,15.8-6.58,1.67-2.93,4.1-5.69,4.8-8.83,1-4.48.92-9.24.92-13.87Q331,676.22,331,571v-6Zm187.25-6.18a33.57,33.57,0,0,0-.79,5.12q-.06,110.67,0,221.35v5.13h44.53c.06-1.17.13-2,.13-2.8q0-112.68,0-225.35a18.16,18.16,0,0,0-.59-3.3Zm249-229-.88-.29.84,2.29,1.26,5.75c-.38,1.06-.77,2.11-1.15,3.16-4.84-9.24-8.65-11.33-17.15-9v11.31c-1.33-1.59-1.72-3.42-2.71-4.84-3-4.3-5.77-8.88-9.46-12.52-3.44-3.38-8-2.72-12-.23s-5.47,6-4.18,10.71a33.55,33.55,0,0,1,.62,5.44c-.3,1-.59,2.06-.89,3.09-2.54-3.87-4.59-8.2-7.7-11.53-7.7-8.25-17.33-6.77-22.07,3.44-2.08,4.5-2.79,9.64-4.14,14.53-1.16-1.69-2.33-3.65-3.76-5.41-7.29-9-16.4-8-21.72,2.34-1.19,2.32-2.41,5-2.41,7.49,0,10.09-.06,20.23,1,30.23.76,7.2,5.66,10.14,13.18,9.86,9.59-.35,15.25-4.29,16.3-11.41.46-3.12.79-6.26,1.28-10.28,1.24,4.63,1.82,8.47,3.36,11.89.77,1.72,3.4,3.9,5,3.73a122.28,122.28,0,0,0,18.89-3.52c4.21-1.13,6.25-4.72,6.63-9.08.28-3.26.5-6.52.74-9.78l.86-.15,3.46,13.61c13.33,1.25,17.35-1.76,23.38-17.76,1,3.57,1.79,6.69,2.66,10a13.61,13.61,0,0,0,11.92-6l1.07,1.31c-1.18,2.68-2.33,5.36-3.55,8-.45,1-1.63,2-1.48,2.83.71,3.64,1.78,7.2,2.93,11.6,9.56-12,12.55-24.91,11.19-39C738.55,345.23,735.7,337.43,728.14,332.14ZM307.91,240.85l2.49-1.16-.35-.85-4,1.1c-9.4,3.68-19.28,6.47-28.1,11.23-19.83,10.7-35.42,26.92-52,41.82-12.61,11.33-25.48,22.44-38.95,32.71-9.71,7.4-21.19,11.14-33.8,9.49-2.14-.28-4.27-.67-7.72-1.23,2.53,2.73,3.94,4.57,5.66,6.05,10.83,9.34,23.95,12.68,37.72,14.06,23.06,2.3,45.47-1.35,67.43-8.1,13.89-4.27,27.25-9.86,38.88-18.82,1.63-1.25,3.74-3.73,3.48-5.27-2.55-14.64-2-29.17.64-43.7.09-.63.17-1.26.25-1.89L298,277c-8,6.54-16,12.95-23.85,19.66-12.66,10.87-25.55,21.41-41.29,27.56-6,2.33-12.32,3.72-18.5,5.54l-.54-1.41c16-5.69,27.93-16.59,37.95-29.74,7.66-10.06,14.84-20.48,22.48-30.55C283.21,256.21,293.41,245.83,307.91,240.85ZM239.05,512.09l-.66,1,1.66-1.09a37.65,37.65,0,0,1,25.48-7c11.6.82,23.2,2,34.73,3.53,21.42,2.91,42.78,6.48,64.54,4.51,15.11-1.37,29.64-4.81,42.4-13.33,6.59-4.39,12.48-9.82,18.95-15-3.07,17.33-12.54,29.22-29,35.68,19-.16,34.94-6.34,45.26-22.91,10.1-16.2,9.21-33.49,4.1-51.52-6.26,6.71-11.62,13.11-17.66,18.8-31.41,29.54-68.4,39.58-110.56,31.07a2.15,2.15,0,0,1,0-.62c29.13-2.09,55.83-10.49,78-30.38a97,97,0,0,0,22.21-28.72c-9.89,0-19.61-.1-29.32.11a6.59,6.59,0,0,0-4.33,2.34,95.24,95.24,0,0,1-29.77,24.69c-17.75,9.49-37.35,12.55-56.65,16.91a270.14,270.14,0,0,0-38.13,11.18A37.06,37.06,0,0,0,239.05,512.09Zm-10.91-114c25.44-9.8,50.11-8.35,74,5l0,1c-6.46-.56-12.93-1.73-19.37-1.56-26.57.7-50.7,8.75-71.52,25.55-15.68,12.65-27.59,28-31.49,48.32-1,5.14-.93,10.49-1.34,15.74l1.27.06c5.33-17.42,12.19-25.84,28.13-33.48a111.52,111.52,0,0,1,17.22-6.54c24.26-7,49.42-8.61,74.27-12.12,17.46-2.47,35-4.86,51.31-12,3.72-1.63,7.24-3.73,9.76-5.05-6.06-10.11-12.9-19.13-17.09-29.24-3.78-9.11-7.14-17.53-16.83-21.62a5.2,5.2,0,0,1-1.94-1.55c-2.74-3.49-6.55-4.17-10.66-4.4a122.9,122.9,0,0,0-47.62,6.8c-14.78,5.12-28.39,12.26-39.22,23.91l-3.48,1.61,1.48,1.55ZM649.12,617V605.8c-9-1.26-17.33-2.5-25.71-3.56-2.81-.36-3.49-1.9-4.41-4.4-1.37-3.69-3.18-7.86-6.09-10.24-9.39-7.69-19.42-14.58-29.1-21.91-9.5-7.2-19.92-5.29-29.92-2.33-3.58,1.06-7.06,5.13-8.88,8.69-2,3.79-2.59,8.62-2.6,13q-.24,92.69-.08,185.37a57,57,0,0,0,.7,8.44c1.36,8.93,5.87,13.56,14.73,15.19,2.62.47,5.27.73,7.92,1,17.56,1.61,35.12,3.27,52.69,4.75,8,.68,16.22,3,23.85-1.78,5.1-2,6.4-6.49,6.88-11.14a127.88,127.88,0,0,0,.21-13.43q0-66.46,0-132.92C649.3,632.68,649.18,624.86,649.12,617Zm-53.9,304.47a886.07,886.07,0,0,0-188.88-.23,14.33,14.33,0,0,0,1.33,1.7c28.05,23.22,58.38,43.09,90.19,60.72,1.34.74,3.88.46,5.34-.32,7.18-3.85,14.26-7.91,21.25-12.1A612.93,612.93,0,0,0,595.22,921.51Zm-144-103v71.32h14V847.51l.86-.16,16.48,33,16.5-33.54,1.2.46V889h13.68V817.33H499.29l-16.81,34.3c-3.9-7.82-8.32-14.64-10.77-22.11-3.37-10.26-9.64-13.55-19.65-11.35A6.14,6.14,0,0,0,451.22,818.56Zm123.43,31.78,1.15-.16c6.79,13.42,13.54,26.86,20.42,40.24.75,1.45,2.07,3.34,3.42,3.62,4.13.86,8.41,1,12.76,1.49V823.4L598.13,822v45.16c-7.55-14.39-14.31-28.92-21.15-43.42-.66-1.39-1.73-3.43-2.86-3.61-4.47-.71-9-.8-13.59-1.13V891l14.12,1.21ZM433.91,891.72c.41-.94.65-1.23.65-1.53q.06-32.21.07-64.43c0-4-1.91-6.2-6.2-5.83-10.43.91-20.89,1.58-31.3,2.73-8.5.94-9.14,1.9-9.15,10.28q0,29,0,57.95v4.83l14.26-1.51V869l18.36-1.65v25.1Zm-62-43.19c0-6,.1-11.52,0-17-.09-3.5-1.78-5.86-5.64-5.29-11.67,1.75-23.32,3.67-35,5.48-4.26.67-5.93,3.56-5.94,7.39q-.14,29.73,0,59.46c0,4.07,2,6.17,6.35,5.46,13.27-2.14,26.55-4.24,39.92-6.36V861.34L350,864.46v10.82l7.65-.43v12.93l-18,2.6c0-14.71,0-28.82.11-42.93a4,4,0,0,1,2.34-2.94c5.13-1,10.34-1.64,15.94-2.47v8.39Zm-44.87-552c0,15.29,1.82,25.86,7.75,35.33,7.35,11.75,18.94,11.82,25.3-.42,10.12-19.47,9.63-39.33-.35-58.82-2.68-5.22-7-9.39-13.21-9.32-6.53.09-10.33,4.82-13.19,10.12C328.78,281.91,327.08,291.16,327.09,296.48ZM675.14,855.69c0-5.54,0-10.52,0-15.51,0-6.18-1.54-8-7.58-9-10.18-1.61-20.38-3.15-30.57-4.75-6.57-1-8,.16-8,7q0,30,0,60c0,1.44.17,2.88.25,4.1l38.86,6.17c3.66.58,7,.36,7.09-4.44.14-10.29,0-20.59,0-31l-21.92-3.52v11l7.56,1.61v13.11l-17.59-2.76V842l17.79,2.79v8.48ZM289.55,125.5c1.12.4,1.69.64,2.29.82,1,.28,1.91.57,2.88.77,18.07,3.72,35.33,0,52.33-5.85a11.76,11.76,0,0,0,4.41-3.12C369.58,99.11,392,87,416.32,78.19a229.09,229.09,0,0,1,59.56-12.88c-7.11-3.57-14.72-4.84-22.49-5a107.75,107.75,0,0,0-48.91,10.34c-23.73,11.19-46.87,23.65-70.15,35.79C320.06,113.84,306.39,122.62,289.55,125.5Zm315,289.08c8.23-8.35,14-37.71,8.55-51.73-2.72-7.05-7.46-10-14.62-9.08-7.43,1-12.21,5.77-12.31,13.22,0,4.23.14,8.86,1.78,12.64C593,391.38,598.87,402.82,604.53,414.58Zm-73.85,403v72.31h13.46V818.18ZM560,362.65c1.22,3.19,1.8,5.86,3.19,8a34.75,34.75,0,0,0,6.88,8.29c3.24,2.62,6.74,1.33,7.68-2.7,1.53-6.6,1.42-13.24-2.34-19.24-3.29-5.24-7-6.36-13.13-4.45-.95.29-2.41.43-3.08-.08-6.87-5.33-14.17-3.56-21.37-1.26-3.92,1.26-5.21,4.41-4,8.36,1.77,5.72,5.59,8.11,11.58,7.57a8.78,8.78,0,0,1,3.83.56C556,370.28,556.57,370.07,560,362.65Z"/><path class="cls-2" d="M797.18,548.85l-49.06-3.92-1-.08-4.87-.23c.47-1.39,1.55-2.92,1.27-4.14-1.61-6.94-2.67-14.21-5.61-20.58-3.12-6.76-3-13.17-2.41-20.19,1.81-23.15-4.86-42.76-25.16-56.1-1.49-1-3.15-1.69-4.9-2.61l-12.92,27.79c-2.93-2.26-5.36-4.07-7.7-6a32.3,32.3,0,0,1-2.38-2.56c-5.38-5.54-11.08-10.81-16.07-16.68a146.83,146.83,0,0,1-14.36-19.44c-2-3.42-3.55-9-2.11-12.08,1.14-2.45,7.14-3.59,11-3.64A61,61,0,0,0,688.38,402a29.72,29.72,0,0,1,7.06-2c5.64-1.25,11.31-2.38,17.19-3.6.47,1.36,1,3.05,1.62,4.74a1.17,1.17,0,0,0,.09.93c.6,4.76,1.2,9.52,1.93,15.29,3.92-2.06,7.62-3.69,11-5.84,19.62-12.58,31.68-29.88,31.65-53.83,0-16.37-7.29-29.72-19.26-40.75-10.36-9.54-11.54-21-3.63-31.6a7.9,7.9,0,0,1,1.51-1.22c17,6.32,34,12.38,50.81,19.06,12.81,5.09,25.25,11.09,38,16.42,3.65,1.53,5,3.59,4.77,7.52-1.68,33.71-2.78,67.44-4.89,101.11-2.42,38.69-8.41,76.95-16.21,114.9-1.5,7.29.23,7.58-8.39,6.17-1.14-.19-2.31-.24-3.47-.36Z"/><path class="cls-3" d="M478.17,42.8l-3.32-1.48,1.28-1.19,2.12,1.45C478.23,42,478.2,42.39,478.17,42.8Z"/><path class="cls-4" d="M693,484.94l-1.2,1.75-.66-.32.78-2.35Z"/><path class="cls-5" d="M417.15,29.11l1.16,1.12-2.56.94-.37-.57Z"/><path class="cls-6" d="M133.2,188.76c-.08.56-.17,1.12-.26,1.68l-.75-1.82Z"/><path class="cls-7" d="M667.3,462.06c0-.65,0-1.29,0-1.94C667.3,460.77,667.3,461.41,667.3,462.06Z"/><path class="cls-8" d="M668.19,463.28l-1.43.48.4-.66Z"/><path class="cls-9" d="M727.33,491.07c0-.64,0-1.29,0-1.93C727.31,489.78,727.32,490.43,727.33,491.07Z"/><path class="cls-10" d="M727.31,500.05c0-.64,0-1.28,0-1.92C727.32,498.77,727.32,499.41,727.31,500.05Z"/><path class="cls-9" d="M888.12,557.94l-.48.11-.46-.18Z"/><path class="cls-9" d="M897.11,559l-.47.11-.46-.17Z"/><path class="cls-9" d="M750.28,366.08a.85.85,0,0,1,.1-.94,3.62,3.62,0,0,1,.24.7C750.63,365.9,750.4,366,750.28,366.08Z"/><path class="cls-9" d="M153.11,191.94l-.48.12-.47-.12Z"/><path class="cls-9" d="M714.34,402.06a1.17,1.17,0,0,1-.09-.93,4.21,4.21,0,0,1,.39.64S714.44,402,714.34,402.06Z"/><path class="cls-9" d="M117.09,556.86l-.44.19-.47-.11Z"/><path class="cls-9" d="M108.09,557.86l-.44.19-.47-.11Z"/><path class="cls-11" d="M577.24,339.12c-.7-1.62-1.41-3.23-2.12-4.85-5-11.28-14.84-16.54-25.75-20.1-15-4.9-30.12-3.36-45.17.05l-.92-1A75.79,75.79,0,0,1,540.1,301h2.34c0-.21,0-.43,0-.64l-2.3-.31c-1.28-.32-2.55-.67-3.84-1-18.45-4.3-34.34-12.85-46.3-27.91,0-.4.09-.79.13-1.18,3.81,2.34,7.48,5,11.46,7,17.56,8.77,36.33,9,55.13,6.57,13.78-1.78,27.37-5,41-7.56,2,11,.22,22.09-2.55,33.11l-.51.68c.16-.25.32-.49.47-.74,15.81-18.34,21.6-39.93,21.4-63.87H598.2l18.1-11a1.88,1.88,0,0,0,.42-.23c.06-.06,0-.22,0-.33l-4.84.37c-1.81-.09-3.62-.14-5.42-.27-15.11-1.13-28.79-6.33-41.36-14.63l-.79-.43.67,1.61q4.05,6.45,8.08,12.91a5.41,5.41,0,0,0,0,.9l-18.87-8.75c-13.49-9.92-26.15-21.33-40.68-29.37-17-9.38-35.7-12.94-54.42-2.93a2.5,2.5,0,0,0-.07-.9c9-11.85,21.85-16.34,35.79-16.72,11.16-.31,22.38,1.76,33.57,2.77l16.65,7.25,1,.86,1.32.68-.33-.82-1.76-2.19c-1.42-1.51-2.84-3-4.25-4.52-1.85-2.11-3.74-4.17-5.52-6.33-6.11-7.42-13-14.35-18.08-22.41-7.82-12.37-4.08-26,9.08-32.38a71.21,71.21,0,0,1,24.18-6.84c26.61-2.44,51,4.8,73.14,19.59,1.75,1.17,3.65,2.13,5.48,3.18,6.69,7.31,13.43,14.58,20,21.94,3.59,4,3.75,8.62,2.15,13.51-1.23,3.77-2.35,7.58-3.52,11.38l-.51,1.76.65-.78q7.36-9,14.75-18.08c.78-1,.54-4,3.13-1.74,7.62,12.58,9.7,25.79,4.6,39.85-3.19,8.79-9.24,15.53-15.67,22l-6.61,4.12,15.8,4.5-9.79,5.63c7.62,16.09,16.47,30.91,30.82,41.72l0,.06,2,1,.15.78.52-.35-.78-.35-.71-1.09-.46-.91-7.91-19c8.66,2,16,3.61,23.25,5.42.83.21,1.38,1.55,2,2.37,0,7.29-.91,14.29-6.15,20a3.4,3.4,0,0,0-.69,2.69c3.13,11.83,8.64,22.2,18.69,29.69l2.66,3.13a78.37,78.37,0,0,1-9,1.35c-1.07,0-2.5-1.1-3.26-2.08-3.21-4.15-6.22-8.45-9.3-12.69l-1.52-2-.58-.93-1.44-1.72-.56.56,1,1.15c.08.32.17.63.25.95l1.59,3.24c1,2.77,2,5.54,3.31,8.94-7.58-1.79-14.47-1.82-19.47,4.68l-11.66-18.83a1.18,1.18,0,0,0-.1-.92l-1.68-1.47.72,1.41.27,1c1.63,5.86,3.25,11.72,5.09,18.33-10.44-3.22-18.91-1.54-24.94,8.14-2.32-5.46-4.43-10.42-6.55-15.39-.73-1.56-1.47-3.12-2.2-4.69l-.79.27q1,3.75,2,7.52c.46,4.77.92,9.54,1.43,14.8-1.77-.17-3.19-.32-4.61-.44-8.63-.7-14.57,3.31-18.86,10.5-.42.7-.65,4.27-3,1.25-.33-6.17-.9-12.34-.9-18.51,0-5.57.62-11.13,1-16.7-.08-.42-.15-.84-.23-1.26l-.54,1.26c-1.53,7.28-6.07,12.24-12.25,16-7.6,4.59-15.17,9.24-22.75,13.87Zm63-139,.53-1.87-.59.84c-5.69,2-11.28,5-17.11,5.58-7.81.77-15.8-.4-23.71-.73l-2.21-.64-3-.32-2.35-.82c-.07.19-.14.37-.2.55l2.57,1.27c8.76,3.27,17.34,7.23,26.33,9.63,9.42,2.51,14.58-.81,18.42-9.75C639.44,202.69,639.78,201.41,640.2,200.16Zm37.08,87.59C664,275.34,656,260.31,649.08,244.57c-1.94-4.41-5.18-3.79-8.74-2.77s-4.59,2.64-3.8,6.54c2.76,13.62,3.65,27.32.76,41.12-1.71,8.14,0,9.94,8.5,10.08a49,49,0,0,0,7.41-.77c2.63-.37,4-1.67,4-4.62.07-4.69.64-9.36,1.09-15.24L670.2,293Z"/><path class="cls-1" d="M528.45,178.12c-11.19-1-22.41-3.08-33.57-2.77-13.94.38-26.8,4.87-35.79,16.72l-.58,1.39c.22-.16.44-.32.65-.49,18.72-10,37.45-6.45,54.42,2.93,14.53,8,27.19,19.45,40.68,29.37-1.75-.89-3.58-1.67-5.25-2.7-7.92-4.87-15.66-10-23.73-14.64A46.16,46.16,0,0,0,494.6,202c-12.6,2-22.46,11-24.63,22.8l-1,3.82.93.35,1.32-1.84c6.94-6,14.61-6.18,22.88-3.19,3.63,1.31,5.29,3,5,7.19-.59,7.85,0,15.71,3.74,22.87,2,3.92,4.64,7.56,7.11,11.53-7.87,3.43-15.59,1.54-23.72-.29l2.94,3.81.89,2.07c12,15.06,27.85,23.61,46.3,27.91,1.29.3,2.56.65,3.84,1,0,.32,0,.64-.08,1a75.79,75.79,0,0,0-36.82,12.23l-1.77,1.21.33.66,2.36-.86c15.05-3.41,30.17-5,45.17-.05,10.91,3.56,20.74,8.82,25.75,20.1-16.77-19-42.71-16.47-60-7.11-14.55,7.86-26.3,19.17-38,30.61-14,13.76-27.4,28.27-42.41,40.84-15.75,13.18-34.39,16.88-54.36,9.58-.88-.32-1.69-.82-3.91-1.91,22,.05,39.5-7.28,53.73-22.17.45-.63.9-1.25,1.36-1.87l-1.37.72c-10.33,5.54-20.83,10.58-32.83,11.27l-3.1-1c26.64-7.77,42.89-26.84,54.59-50.63A90.27,90.27,0,0,0,456,323.52c3.15-13.43,11.76-19.39,24.81-20.34,1.33-.09,2.66-.2,4-.39,1.14-.18,2.27-.49,4.12-.9-24.35-13.3-40-33.22-48.87-58.72l1.2-1.2,13.9,7.27.84.16-.84-1.31c-10.06-12.39-16-26.31-15.57-42.53.43-17.73,8.38-29,25.43-33.74C486.83,165.71,508,169.14,528.45,178.12Z"/><path class="cls-1" d="M642.22,798c-7.63,4.79-15.83,2.46-23.85,1.78-17.57-1.48-35.13-3.14-52.69-4.75-2.65-.24-5.3-.5-7.92-1-8.86-1.63-13.37-6.26-14.73-15.19a57,57,0,0,1-.7-8.44q0-92.68.08-185.37c0-4.38.65-9.21,2.6-13,1.82-3.56,5.3-7.63,8.88-8.69,10-3,20.42-4.87,29.92,2.33,9.68,7.33,19.71,14.22,29.1,21.91,2.91,2.38,4.72,6.55,6.09,10.24.92,2.5,1.6,4,4.41,4.4,8.38,1.06,16.73,2.3,25.71,3.56V617l-23-1c0,4,0,8,0,11.92q0,74.82-.19,149.65c0,4.17,1,7.13,4.48,9.75C634.64,790.49,638.31,794.39,642.22,798ZM587.14,593.21l-22.73-15.53c0,3,0,4.82,0,6.63q.3,90.71.61,181.42c0,10,2.46,12.51,12.56,13.22,8,.55,15.91,1.3,23.87,1.95l22.77,1.84.28-.89-18.33-11.92c.14-1.65.4-3.3.4-4.94q0-83.16,0-166.32c0-1.44-.16-2.88-.31-5.46Z"/><path class="cls-1" d="M769.22,823.94c-4.69.37-9.59,1.83-14,.93-22.8-4.6-45.49-9.84-68.22-14.8-12.34-2.7-17.63-8.8-17.64-21.07q-.08-91.21,0-182.43c0-1,.09-2,.09-2l44.09-15.31c.2,3,.66,6.55.66,10.13q.06,92,0,183.93c0,.49-.09,1-.13,1.49a41,41,0,0,1-.66-5.27q0-88.15,0-176.31v-6.49c-6.11,3.18-11.23,6.25-16.68,8.53-3.72,1.55-4.64,3.65-4.63,7.5q.21,83.16.09,166.31a70.89,70.89,0,0,0,.1,8c.5,4.17,2.11,7.92,6.68,9,17,3.83,34.05,7.5,51.07,11.23l2.48.9.35-.59-1.63-1.5-18-17c.14-2,.39-4,.39-6q0-82.45,0-164.93c0-14.64,0-29.29,0-43.94a41.31,41.31,0,0,1,.57-4.8c5.42,5.14,10.74,10.4,16.3,15.38,2.82,2.53,3.86,5.28,3.86,9.11-.12,68,0,136.1-.26,204.14,0,7.79,1.49,13.75,7.86,18.44C764.7,818.5,766.81,821.42,769.22,823.94Z"/><path class="cls-11" d="M802.88,579.07c4.38-1,8.84-3.15,13.11-2.82,16.89,1.31,33.73,3.32,50.57,5.22,16.34,1.83,32.66,3.84,49.88,5.88-8,8.79-12.74,18.58-13.51,30a41.76,41.76,0,0,0-.55,4.83q-.06,27.21,0,54.41v7.67l-1.29.43c-.2-.44-.38-.89-.6-1.32-6-11.69-12.09-23.32-17.91-35.09a17.37,17.37,0,0,1-1.35-7.23c-.17-11.48-.29-23-.09-34.44.07-3.83-1.11-5.21-5-5.6-9.57-1-19.09-2.44-28.64-3.66-8.8-1.12-17.61-2.19-26.41-3.28a111.72,111.72,0,0,0,14.65,14.4c3,2.52,4.5,5.13,4.43,9.27-.26,16-.13,31.94-.07,47.92a33,33,0,0,0,.84,5.16c15,11.07,29.82,22.32,45,33.15,11.79,8.43,17.05,19.31,16.89,34-.47,43.11-.16,86.24-.18,129.36,0,2.49-.19,5-.43,7.45,0,.18-1.21.25-1.85.37L881,849.1q0-59.19.08-118.39c0-8.62-3.41-15.31-10.41-20.42-14.25-10.39-28.18-21.22-42.61-31.36-6.55-4.61-9.24-10.1-9.11-18,.34-21.14.19-42.3,0-63.44a9.32,9.32,0,0,0-2.58-5.79C812.05,587.26,807.4,583.24,802.88,579.07Z"/><path class="cls-2" d="M302.12,403.11c-23.87-13.36-48.54-14.81-74-5L227,396.91c10.83-11.65,24.44-18.79,39.22-23.91a122.9,122.9,0,0,1,47.62-6.8c4.11.23,7.92.91,10.66,4.4a5.2,5.2,0,0,0,1.94,1.55c9.69,4.09,13,12.51,16.83,21.62,4.19,10.11,11,19.13,17.09,29.24-2.52,1.32-6,3.42-9.76,5.05-16.35,7.17-33.85,9.56-51.31,12-24.85,3.51-50,5.09-74.27,12.12a111.52,111.52,0,0,0-17.22,6.54c-15.94,7.64-22.8,16.06-28.13,33.48l-1.27-.06c.41-5.25.35-10.6,1.34-15.74,3.9-20.34,15.81-35.67,31.49-48.32,20.82-16.8,44.95-24.85,71.52-25.55,6.44-.17,12.91,1,19.37,1.56l.72.3Z"/><path class="cls-2" d="M318.33,495.91c42.16,8.51,79.15-1.53,110.56-31.07,6-5.69,11.4-12.09,17.66-18.8,5.11,18,6,35.32-4.1,51.52-10.32,16.57-26.3,22.75-45.26,22.91,16.42-6.46,25.89-18.35,29-35.68-6.47,5.17-12.36,10.6-18.95,15-12.76,8.52-27.29,12-42.4,13.33-21.76,2-43.12-1.6-64.54-4.51-11.53-1.56-23.13-2.71-34.73-3.53a37.65,37.65,0,0,0-25.48,7l-1,0a37.06,37.06,0,0,1,21.28-20.67,270.14,270.14,0,0,1,38.13-11.18c19.3-4.36,38.9-7.42,56.65-16.91a95.24,95.24,0,0,0,29.77-24.69,6.59,6.59,0,0,1,4.33-2.34c9.71-.21,19.43-.11,29.32-.11a97,97,0,0,1-22.21,28.72c-22.16,19.89-48.86,28.29-78,30.38l-1.31.15Z"/><path class="cls-2" d="M595.22,921.51a612.93,612.93,0,0,1-70.77,49.77c-7,4.19-14.07,8.25-21.25,12.1-1.46.78-4,1.06-5.34.32-31.81-17.63-62.14-37.5-90.19-60.72a14.33,14.33,0,0,1-1.33-1.7A886.07,886.07,0,0,1,595.22,921.51Z"/><path class="cls-1" d="M325.22,804.16c-5.25,2.24-10.32,5.26-15.8,6.58-20.51,4.93-41.17,9.26-61.76,13.9-11.68,2.64-20-.91-22.81-10.12a22,22,0,0,1-.83-6.38Q223.93,691,224,573.86c0-.52.65-1,1-1.56a20,20,0,0,0,2.94,3.08c4.55,3.07,9.09,6.19,13.86,8.9,3.6,2.05,4.77,4.63,4.76,8.82q-.21,97.7-.08,195.41a64,64,0,0,0,.58,7.94c.92,7.2,4.1,9.44,11.22,8.07l48.94-9.41,2.1-.06Z"/><path class="cls-2" d="M299.23,278.18c-2.64,14.53-3.19,29.06-.64,43.7.26,1.54-1.85,4-3.48,5.27-11.63,9-25,14.55-38.88,18.82-22,6.75-44.37,10.4-67.43,8.1-13.77-1.38-26.89-4.72-37.72-14.06-1.72-1.48-3.13-3.32-5.66-6.05,3.45.56,5.58,1,7.72,1.23,12.61,1.65,24.09-2.09,33.8-9.49,13.47-10.27,26.34-21.38,38.95-32.71,16.6-14.9,32.19-31.12,52-41.82,8.82-4.76,18.7-7.55,28.1-11.23l1.9.91c-14.5,5-24.7,15.36-33.65,27.16-7.64,10.07-14.82,20.49-22.48,30.55-10,13.15-21.94,24.05-37.95,29.74l.54,1.41c6.18-1.82,12.53-3.21,18.5-5.54,15.74-6.15,28.63-16.69,41.29-27.56C282,289.9,290.05,283.49,298,277Z"/><path class="cls-11" d="M141.16,616V759.68l40.74-11.21c0,11.27,0,22,0,32.7-3.63-3.64-7-7.53-11-10.8a8.62,8.62,0,0,0-6.45-1.62c-5.17,1.09-10.17,3-15.24,4.53l-31,9.63,22.91,11.33q-.13,32-.26,64.08c-5.47-2.39-10.81-5.15-16.45-7.05-5.36-1.81-6.57-5-6.56-10.41q.27-117.14.14-234.28c0-1.83.11-3.66.17-5.48l1.29-.14Z"/><path class="cls-1" d="M118.21,601.1c-.06,1.82-.17,3.65-.17,5.48q0,117.13-.14,234.28c0,5.39,1.2,8.6,6.56,10.41,5.64,1.9,11,4.66,16.45,7.05L98.14,876.43v-6q0-122.11.06-244.24c0-14.25-2.34-27.43-13.18-37.78l1.15-1c9.73,3.59,19.48,7.12,29.15,10.84C116.49,598.61,117.26,600.09,118.21,601.1Z"/><path class="cls-11" d="M769.22,823.94c-2.41-2.52-4.52-5.44-7.28-7.48-6.37-4.69-7.9-10.65-7.86-18.44.31-68,.14-136.09.26-204.14,0-3.83-1-6.58-3.86-9.11-5.56-5-10.88-10.24-16.3-15.38l43.13,2.9V806.64C777.31,813.65,776.35,820.25,769.22,823.94Z"/><path class="cls-11" d="M729.23,369.12a13.61,13.61,0,0,1-11.92,6c-.87-3.29-1.71-6.41-2.66-10-6,16-10,19-23.38,17.76l-3.46-13.61-.86.15c-.24,3.26-.46,6.52-.74,9.78-.38,4.36-2.42,7.95-6.63,9.08a122.28,122.28,0,0,1-18.89,3.52c-1.56.17-4.19-2-5-3.73-1.54-3.42-2.12-7.26-3.36-11.89-.49,4-.82,7.16-1.28,10.28-1.05,7.12-6.71,11.06-16.3,11.41-7.52.28-12.42-2.66-13.18-9.86-1.07-10-1-20.14-1-30.23,0-2.5,1.22-5.17,2.41-7.49C628.33,340,637.44,339,644.73,348c1.43,1.76,2.6,3.72,3.76,5.41,1.35-4.89,2.06-10,4.14-14.53,4.74-10.21,14.37-11.69,22.07-3.44,3.11,3.33,5.16,7.66,7.7,11.53.56,1,1.12,2,1.69,3l.61.4L684,350q-.36-3.07-.73-6.15a33.55,33.55,0,0,0-.62-5.44c-1.29-4.69.2-8.24,4.18-10.71s8.6-3.15,12,.23c3.69,3.64,6.47,8.22,9.46,12.52,1,1.42,1.38,3.25,2.71,4.84V334c8.5-2.3,12.31-.21,17.15,9l1.21,2.59,1-.33-1.08-5.42-1.26-5.75c0-.66,0-1.33,0-2,7.56,5.29,10.41,13.09,11.25,21.78,1.36,14.05-1.63,26.95-11.19,39-1.15-4.4-2.22-8-2.93-11.6-.15-.81,1-1.85,1.48-2.83,1.22-2.66,2.37-5.34,3.55-8,.32-1.5.65-3,1-4.5l-.74-.26Z"/><path class="cls-1" d="M802.88,579.07c4.52,4.17,9.17,8.19,13.46,12.59a9.32,9.32,0,0,1,2.58,5.79c.18,21.14.33,42.3,0,63.44-.13,7.94,2.56,13.43,9.11,18,14.43,10.14,28.36,21,42.61,31.36,7,5.11,10.42,11.8,10.41,20.42Q881,789.92,881,849.1l-1.82-.82c.07-.4.13-.8.2-1.21l-21-23.58c.6-1.35,1.71-2.71,1.72-4.06q.15-46.5-.05-93a7.45,7.45,0,0,0-2.89-5.07c-14.55-10.57-29-21.38-44-31.21-11.29-7.37-16.63-16.73-16.3-30.3.53-21.32.14-42.66.15-64C797,589.58,797.69,583.53,802.88,579.07Z"/><path class="cls-11" d="M307.17,795.11l-48.94,9.41c-7.12,1.37-10.3-.87-11.22-8.07a64,64,0,0,1-.58-7.94q0-97.71.08-195.41c0-4.19-1.16-6.77-4.76-8.82-4.77-2.71-9.31-5.83-13.86-8.9A20,20,0,0,1,225,572.3l42.17-3.4V789l20-4c3.17,1.4,6.4,2.67,9.48,4.23C300.18,791.08,303.64,793.15,307.17,795.11Z"/><path class="cls-12" d="M522.35,561.28a18.16,18.16,0,0,1,.59,3.3q0,112.68,0,225.35c0,.82-.07,1.63-.13,2.8H478.3V787.6q0-110.67,0-221.35a33.57,33.57,0,0,1,.79-5.12c5.64,4.12,11.15,8.44,17,12.28,3.17,2.09,4.14,4.46,4.13,8.19q-.18,93.46-.06,186.92c0,1.94-.32,4.67.78,5.71,6.52,6.21,13.41,12,21.14,18.83v-7.41q0-109.2,0-218.4C522.1,565.26,522.26,563.27,522.35,561.28Z"/><path class="cls-11" d="M325.22,804.16l-16-9.11c-.08-2.16-.23-4.32-.23-6.48q0-99.17.08-198.33c0-4.13-1.23-6.74-4.57-9.06-5.53-3.86-10.75-8.16-16.44-12.53l3.77-1.34L331,565v6q0,105.24,0,210.48c0,4.63.07,9.39-.92,13.87C329.32,798.47,326.89,801.23,325.22,804.16Z"/><path class="cls-11" d="M499.06,386.18a311.41,311.41,0,0,0,14.05,60.57c8.42,24.28,25.39,41.31,45.77,55.61,3.92,2.75,8.17,5,12.27,7.52l1,.35,1,.81,2,1,.76.86.39-.51-1.21-.26-1.94-2-1-.77-.84-.56L551,487.3c.07-.5.13-1,.2-1.52,2.87,1.16,5.8,2.22,8.59,3.55a6.74,6.74,0,0,1,2.63,2.51c3.15,5.05,7.37,8.38,13.35,9.59a8.76,8.76,0,0,1,4.64,3.06c6.16,7.85,13.68,13.44,23.56,15.75,1.54.36,3,1.82,4.1,3.12,4.69,5.54,9.72,11.54,17.11,12,8.79.61,17.73.58,26.56.32,3.5-.11,6.71-.76,10.32.27,6.65,1.88,12.24-1.8,18.39-3.71,5.61-1.74,12.66,1.22,17.6-4.56.48-.56,1.5-1.25,2-1.09,6,2,10-1.88,14.75-5.55,1.21,4.27,2.27,8,3.34,11.8,0,4.48-.05,9,0,13.43,0,9.21-3.71,15.62-13.11,17.92-.75-2.44-1.51-4.87-2.45-7.91l-2.45,4.53c-11.74,11-26.55,12.76-41.57,14.17-8.5.8-14.58-.8-19.64-9.22-7.7-12.8-20.9-20.25-33.38-27.95-20-12.32-40.38-23.91-59.93-36.83-14.2-9.38-26.67-21-35.55-35.93l-.88-2.08-1-2c-8.7-24.23-11.44-49.25-10-74.83l.41-.13Z"/><path class="cls-1" d="M629.33,134.19c-1.83-1.05-3.73-2-5.48-3.18-22.18-14.79-46.53-22-73.14-19.59a71.21,71.21,0,0,0-24.18,6.84c-13.16,6.41-16.9,20-9.08,32.38,5.1,8.06,12,15,18.08,22.41,1.78,2.16,3.67,4.22,5.52,6.33-12.57-9.76-26.14-17.73-41.52-22.08-21.9-6.2-43.75-7.86-65.55,3.06a68,68,0,0,1,16.21-34.78c23.45-26.62,53.45-37.52,88.18-33a169.67,169.67,0,0,1,86.39,37.14C626.41,131.06,627.82,132.69,629.33,134.19Z"/><path class="cls-11" d="M682.22,512.15c.75-4.22,1.49-8.45,2.26-12.81l12.23-2.67c.67,3.28,1.3,6.33,1.93,9.38l1,.13c.27-3.57.55-7.14.85-11.05l7.73-3.35c.74,3.18,1.43,6.17,2.12,9.16v3.48l.84.15.72-2.66c-.49-5-1-10-1.53-15.69l-11.35,4.89c4.38-8.82,8.32-16.79,12.55-25.32a36.73,36.73,0,0,1,2.65,5,64.68,64.68,0,0,1,1,39.24c-1.44,5.14-9.16,10-14.42,10.08a6,6,0,0,0-3.52,1.59c-3.31,2.93-7.07,4.69-11.41,3.61a9.34,9.34,0,0,0-8.49,1.45c-6,4.14-12.29,3.83-19.82.06-5.54,2.94-11.11,4.47-16.78.14a3,3,0,0,0-2.16-.17c-11.9,2.55-20.49-.94-27.68-10.65-1.83-2.45-4.77-4.2-7.45-5.87-5.18-3.23-11-5.57-15.63-9.44-3-2.49-4.18-7.06-6.22-10.77-8.47,4-12.25,1.7-16.55-10.78-9.82-.05-13.57-3.78-15.65-15.86-5.6-.27-8.36-4.42-10.64-8.88a100.86,100.86,0,0,1-5.44-12.27c-2.36-6.68-.3-11.33,6.55-15.11-.19,7.72,5,10.91,11,13.48a28.23,28.23,0,0,1,4,2c4.84,3.08,5.33,5.74,2.21,11.27l-2,2.18-.55.76,1.62-.74,1.05-.78,2.93-1.45,13.4,9.72L571,467.75c-.61.78-1.23,1.56-1.84,2.35l-.79,1.38,2-1.22.93-.88c4-3,7.68-3.29,11.58.64,1.87,1.89,4.77,2.75,7.16,4-1.25,2.72-2.47,5.35-3.69,8l-.45.64.38-.71,8.22-3.6c4,3.42,7.88,6.51,11.47,9.87.86.81,1.13,2.52,1.19,3.84.15,3.71,0,7.44.57,11.29,5.2-11.21,10.43-22.2,20.87-31.43,4.57,14.11,8.89,27.45,13.35,41.25l4.78-11.44,5.41.52,7.28,1.16v15l.89.06.68-1.65c1.51-4.69,3-9.39,4.65-14.49l14.16-2.09c.54,4,1,7.89,1.57,11.76v2.69l.55,0C682,513.89,682.1,513,682.22,512.15Z"/><path class="cls-11" d="M522.35,561.28c-.09,2-.25,4-.25,6q0,109.2,0,218.4v7.41c-7.73-6.79-14.62-12.62-21.14-18.83-1.1-1-.78-3.77-.78-5.71q0-93.46.06-186.92c0-3.73-1-6.1-4.13-8.19-5.82-3.84-11.33-8.16-17-12.28Z"/><path class="cls-1" d="M510.07,465.1C519,480,531.42,491.65,545.62,501c19.55,12.92,40,24.51,59.93,36.83,12.48,7.7,25.68,15.15,33.38,27.95,5.06,8.42,11.14,10,19.64,9.22,15-1.41,29.83-3.21,41.57-14.17-1.82,9-5,16.4-15.18,19.26-15.93,4.47-32,5.23-48.33,3.86-1.17-.1-2.73-1.65-3.22-2.87-7.16-18.06-20.17-30.48-37.24-39l-2.4-1.05-.4.78,1.74,1.33,13.74,20a1.44,1.44,0,0,0-.68.48.37.37,0,0,0,0,.59c-26.24-25.17-57.07-43.44-89.6-59-11.06-5.29-22.72-9.3-34-14.14a5.57,5.57,0,0,1-2.85-4.12c.7-26.16-4.34-51.22-13.91-75.47-.42-1.08-.67-2.87-.08-3.6,3.15-4,6.6-7.77,10.62-12.39,3.76,25.48,12.49,47.73,28.75,66.64l2,1.94Z"/><path class="cls-11" d="M394.17,743.15c0,16.85,0,33.7-.07,50.55a21.41,21.41,0,0,1-1,4.39c-5.85-3.79-11.57-7.81-17.59-11.3-3.47-2-4.64-4.33-4.63-8.33q.26-96.68.22-193.34c0-1.66.17-3.32.26-5l1.59,1,21.18,13V710.84l20-8.91,21.4,3.58c0,.4-.05.8-.08,1.19l-14.35,6.39-1.9.76-46.1,20.47.15,1.3Z"/><path class="cls-1" d="M371.41,580.15c-.09,1.65-.25,3.31-.26,5q-.07,96.66-.22,193.34c0,4,1.16,6.33,4.63,8.33,6,3.49,11.74,7.51,17.59,11.3l0,.07-5,.67-4.94.31-4.06.69-4.77.36-4.25.72-3,.21-4,.74-3.76.33-3.23.64-3.88.34-1-.14-.1-.1q0-117.84-.05-235.67c0-.83.13-1.66.21-2.49Z"/><path class="cls-1" d="M291.88,567.31l-3.77,1.34c5.69,4.37,10.91,8.67,16.44,12.53,3.34,2.32,4.58,4.93,4.57,9.06q-.19,99.16-.08,198.33c0,2.16.15,4.32.23,6.48l-2.1.06c-3.53-2-7-4-10.59-5.85-3.08-1.56-6.31-2.83-9.48-4.23V567.31Z"/><path class="cls-11" d="M733.18,789l18,17-1.2,1.19c-17-3.73-34.06-7.4-51.07-11.23-4.57-1-6.18-4.78-6.68-9a70.89,70.89,0,0,1-.1-8q0-83.16-.09-166.31c0-3.85.91-6,4.63-7.5,5.45-2.28,10.57-5.35,16.68-8.53v6.49q0,88.15,0,176.31a41,41,0,0,0,.66,5.27l16.34,3.62,1.56.49Z"/><path class="cls-11" d="M371.41,580.15l-20-15.38-.2-.39c17.6-.82,35.19-1.7,52.79-2.42q15.46-.63,30.95-.8a46.36,46.36,0,0,1,9.9,1c7.47,1.55,12.18,6.79,13.21,14.39a44.26,44.26,0,0,1,.27,6c0,38.66.12,77.33-.13,116,0,4.6-2,9.19-3.1,13.79-4.39-1.5-8.73-3.17-13.18-4.44-3.84-1.09-4.87-3.22-4.85-7.2q.27-55.12-.07-110.24c0-3.42-1.57-7.76-4-10-2.17-2-6.49-2.26-9.86-2.23-14.78.13-29.56.57-44.33,1.09-1.95.07-3.87,1.19-5.81,1.83Z"/><path class="cls-11" d="M118.21,601.1c-.95-1-1.72-2.49-2.89-2.94-9.67-3.72-19.42-7.25-29.15-10.84l118-13.71v5.9q0,65.9,0,131.77c0,1.66-.13,3.32-.2,5-6.42-4.71-12.77-9.53-19.3-14.09-2.77-1.93-3.58-4.23-3.56-7.53.17-26.65.15-53.29.18-79.94,0-7.45,0-14.89,0-22.47-1.6,0-2.44-.09-3.25,0q-27.7,3.43-55.38,7c-1.1.15-2.09,1.15-3.13,1.76Z"/><path class="cls-11" d="M642.22,798c-3.91-3.6-7.58-7.5-11.79-10.68-3.46-2.62-4.49-5.58-4.48-9.75q.24-74.82.19-149.65c0-3.95,0-7.91,0-11.92l23,1c.06,7.82.18,15.64.18,23.46q0,66.46,0,132.92a127.88,127.88,0,0,1-.21,13.43C648.62,791.5,647.32,796,642.22,798Z"/><path class="cls-1" d="M879.14,848.28l1.82.82,19.4,26.07c-11.36-4.62-22.64-9.46-34.11-13.81-17.08-6.47-34.28-12.62-51.45-18.85-12.88-4.67-17.79-11.43-17.81-25q0-52.46,0-104.9a31.71,31.71,0,0,1,.41-3.88.43.43,0,0,1,.32,0,2.3,2.3,0,0,1,.37.33c.33.73.66,1.45,1,2.18,5.67,8.81,11.55,17.5,16.9,26.5a21.42,21.42,0,0,1,3,10.16c.26,22.48.15,45,.12,67.46,0,6.23,2.13,11.14,8.29,13.41,16.83,6.23,33.71,12.35,50.57,18.51Z"/><path class="cls-2" d="M258.2,227.26c18.86-5.47,34.09-15.76,43.91-33.19l1.17-1.87c.18-.5.37-1,.56-1.5l-.69.38L301,193c-30.58,24.83-90.51,29.6-111.62,16.28,27.88.77,49.36-14.32,72.37-25.48,19.57-9.49,39.61-18,59.46-26.88a46.86,46.86,0,0,1,4.62-1.5c-1.95,6.18-4.41,11.85-5.46,17.76-2.17,12.25-3.47,24.64-5.41,36.93-.33,2.13-1.51,4.9-3.18,5.94-16.71,10.32-34.59,16.12-54.55,12.94Z"/><path class="cls-1" d="M373,581.13c1.94-.64,3.86-1.76,5.81-1.83,14.77-.52,29.55-1,44.33-1.09,3.37,0,7.69.24,9.86,2.23,2.4,2.2,3.95,6.54,4,10q.42,55.11.07,110.24c0,4,1,6.11,4.85,7.2,4.45,1.27,8.79,2.94,13.18,4.44l-9.13,8.56a49.23,49.23,0,0,0-6.07-2.66c-6.22-1.81-12.49-3.41-18.75-5.09l14.35-6.39c0-.39,0-.79.08-1.19l-21.4-3.58V593.18l-20,.93Z"/><path class="cls-1" d="M119.5,601c1-.61,2-1.61,3.13-1.76q27.68-3.59,55.38-7c.81-.1,1.65,0,3.25,0,0,7.58,0,15,0,22.47,0,26.65,0,53.29-.18,79.94,0,3.3.79,5.6,3.56,7.53,6.53,4.56,12.88,9.38,19.3,14.09L161.3,727.77v-115L141.16,616Z"/><path class="cls-11" d="M451.22,818.56a6.14,6.14,0,0,1,.84-.39c10-2.2,16.28,1.09,19.65,11.35,2.45,7.47,6.87,14.29,10.77,22.11l16.81-34.3h14.64V889H500.25V847.27l-1.2-.46-16.5,33.54-16.48-33-.86.16v42.37h-14Z"/><path class="cls-11" d="M878,847.21c-16.86-6.16-33.74-12.28-50.57-18.51-6.16-2.27-8.3-7.18-8.29-13.41,0-22.49.14-45-.12-67.46a21.42,21.42,0,0,0-3-10.16c-5.35-9-11.23-17.69-16.9-26.5l.15-1.41c13.23,8.92,26.51,17.77,39.61,26.89,1.21.84,1.73,3.41,1.74,5.17.11,23.48.18,47,0,70.44,0,4.08,1.1,6,5.05,7,4.34,1.06,8.51,2.81,12.76,4.27l21,23.58Z"/><path class="cls-11" d="M574.65,850.34v41.84L560.53,891V819c4.55.33,9.12.42,13.59,1.13,1.13.18,2.2,2.22,2.86,3.61,6.84,14.5,13.6,29,21.15,43.42V822l14.27,1.37v72.13c-4.35-.46-8.63-.63-12.76-1.49-1.35-.28-2.67-2.17-3.42-3.62-6.88-13.38-13.63-26.82-20.42-40.24Z"/><path class="cls-11" d="M433.91,891.72l-13.31.73v-25.1L402.24,869v25.21L388,895.72v-4.83q0-29,0-57.95c0-8.38.65-9.34,9.15-10.28,10.41-1.15,20.87-1.82,31.3-2.73,4.29-.37,6.2,1.78,6.2,5.83q0,32.22-.07,64.43C434.56,890.49,434.32,890.78,433.91,891.72ZM402.48,836.5v21.22L420.27,856V834.9Z"/><path class="cls-11" d="M372,848.53,358,850.43V842c-5.6.83-10.81,1.46-15.94,2.47a4,4,0,0,0-2.34,2.94c-.16,14.11-.11,28.22-.11,42.93l18-2.6V874.85l-7.65.43V864.46l21.66-3.12v36.33c-13.37,2.12-26.65,4.22-39.92,6.36-4.35.71-6.33-1.39-6.35-5.46q-.09-29.73,0-59.46c0-3.83,1.68-6.72,5.94-7.39,11.66-1.81,23.31-3.73,35-5.48,3.86-.57,5.55,1.79,5.64,5.29C372.06,837,372,842.5,372,848.53Z"/><path class="cls-1" d="M327.09,296.48c0-5.32,1.69-14.57,6.3-23.11,2.86-5.3,6.66-10,13.19-10.12,6.26-.07,10.53,4.1,13.21,9.32,10,19.49,10.47,39.35.35,58.82-6.36,12.24-17.95,12.17-25.3.42C328.91,322.34,327.11,311.77,327.09,296.48Z"/><path class="cls-11" d="M675.14,855.69l-14.06-2.46v-8.48L643.29,842v45.75l17.59,2.76V877.36l-7.56-1.61v-11l21.92,3.52c0,10.46.09,20.76,0,31-.06,4.8-3.43,5-7.09,4.44l-38.86-6.17c-.08-1.22-.25-2.66-.25-4.1q0-30,0-60c0-6.84,1.44-8,8-7,10.19,1.6,20.39,3.14,30.57,4.75,6,1,7.55,2.78,7.58,9C675.16,845.17,675.14,850.15,675.14,855.69Z"/><path class="cls-12" d="M381.07,375.9c40.27-28.1,43.82-99.14,13.1-135.73-1.69-2-3.33-4.07-5-6.1l-.07.08c10.47,5.3,18.29,13.63,24.72,23.11,4.38,6.48,7.6,13.74,11.36,20.69.58-13.07-3.39-25.14-9.09-36.8l1-1c14.45,17.64,19.88,38.38,20.12,60.65.23,22.53-5.69,43.31-19.34,61.57a20.24,20.24,0,0,1-1.68,1.8L415.08,363q4.59-13.89,9.19-27.77c.36-2,.72-4,1.07-6l-1-.12c-.37,1-.73,2.06-1.1,3.08-7.82,17.23-19.12,31.5-35.45,41.43a72.37,72.37,0,0,1-6.69,3.24A6.33,6.33,0,0,0,381.07,375.9Z"/><path class="cls-2" d="M289.55,125.5c16.84-2.88,30.51-11.66,44.78-19.1,23.28-12.14,46.42-24.6,70.15-35.79a107.75,107.75,0,0,1,48.91-10.34c7.77.2,15.38,1.47,22.49,5a229.09,229.09,0,0,0-59.56,12.88C392,87,369.58,99.11,351.46,118.12a11.76,11.76,0,0,1-4.41,3.12c-17,5.8-34.26,9.57-52.33,5.85-1-.2-1.93-.49-2.88-.77C291.24,126.14,290.67,125.9,289.55,125.5Z"/><path class="cls-1" d="M394.17,743.15l-20.9-7.53-.15-1.3,46.09-20.47a26.4,26.4,0,0,1,1.74,4.53c3.51,18,6.9,36.1,10.44,54.14.36,1.85,1,4.29,2.34,5.2,7.94,5.4,16.14,10.42,24.26,15.57l-44,3.34c-3.28-19.38-6.51-38.43-9.82-58Z"/><path class="cls-1" d="M841,670.85a33,33,0,0,1-.84-5.16c-.06-16-.19-32,.07-47.92.07-4.14-1.38-6.75-4.43-9.27a111.72,111.72,0,0,1-14.65-14.4c8.8,1.09,17.61,2.16,26.41,3.28,9.55,1.22,19.07,2.68,28.64,3.66,3.84.39,5,1.77,5,5.6-.2,11.47-.08,23,.09,34.44a17.37,17.37,0,0,0,1.35,7.23c5.82,11.77,11.91,23.4,17.91,35.09.22.43.4.88.6,1.32l1.29-.43v-7.67q0-27.2,0-54.41a41.76,41.76,0,0,1,.55-4.83v69.68a37.64,37.64,0,0,1-3.63-2.13c-12.27-9.45-24.56-18.87-36.69-28.49a7.29,7.29,0,0,1-2.42-4.89q-.44-15.72-.25-31.47c0-3.28-.75-4.81-4.29-5.06-4.74-.34-9.44-1.28-14.69-2Z"/><path class="cls-12" d="M412.26,111.19c13.28-10.45,27.48-19.25,43.83-24.13l1.92.81c-24.42,10.36-43.49,26.73-56,50.31a114.32,114.32,0,0,0-11.94,74.26l-13.67,4.69a9.91,9.91,0,0,1-.84-2.44c-2.2-27-.33-53.51,11.54-78.47,7.12-15,17.12-27.62,30.68-37.32l1.41,1.33-8,9.91L409.83,112l-.77,1.11-.39.76,1.57-.66,1.07-1C411.62,111.84,411.94,111.52,412.26,111.19Z"/><path class="cls-11" d="M458,793.29c-8.12-5.15-16.32-10.17-24.26-15.57-1.35-.91-2-3.35-2.34-5.2-3.54-18-6.93-36.1-10.44-54.14a26.4,26.4,0,0,0-1.74-4.53l1.91-.76c6.26,1.68,12.53,3.28,18.75,5.09a49.23,49.23,0,0,1,6.07,2.66q5.9,34.5,11.77,69C457.9,791,457.9,792.14,458,793.29Z"/><path class="cls-11" d="M604.53,414.58c-5.66-11.76-11.5-23.2-16.6-34.95-1.64-3.78-1.83-8.41-1.78-12.64.1-7.45,4.88-12.21,12.31-13.22,7.16-1,11.9,2,14.62,9.08C618.5,376.87,612.76,406.23,604.53,414.58Z"/><path class="cls-13" d="M530.68,817.56l13.46.62v71.69H530.68Z"/><path class="cls-11" d="M560,362.65c-3.44,7.42-4,7.63-10.75,5.06a8.78,8.78,0,0,0-3.83-.56c-6,.54-9.81-1.85-11.58-7.57-1.22-3.95.07-7.1,4-8.36,7.2-2.3,14.5-4.07,21.37,1.26.67.51,2.13.37,3.08.08,6.08-1.91,9.84-.79,13.13,4.45,3.76,6,3.87,12.64,2.34,19.24-.94,4-4.44,5.32-7.68,2.7a34.75,34.75,0,0,1-6.88-8.29C561.81,368.51,561.23,365.84,560,362.65Z"/><path class="cls-1" d="M614,311.18c-.35,5.57-1,11.13-1,16.7,0,6.17.57,12.34.9,18.51-12.26-5.84-23.18-3.93-32.55,5.62-2-1.82-3.7-4.07-5.94-5.14-2.88-1.37-6.73-3.21-9.24-2.3-5.07,1.83-9.06-.36-13.32-1.59-4-1.17-4.49-4.28-1.34-7.08,4.19-3.72,9.28-3.81,14.1-2.22,3.69,1.22,6.94,3.74,10.39,5.68l2.2,1.67c7.58-4.63,15.15-9.28,22.75-13.87,6.18-3.74,10.72-8.7,12.25-16l.38,0Z"/><path class="cls-1" d="M141.17,794.24l-22.91-11.33,31-9.63c5.07-1.57,10.07-3.44,15.24-4.53a8.62,8.62,0,0,1,6.45,1.62c3.93,3.27,7.35,7.16,11,10.8q-16.83,5.46-33.65,10.9C145.91,792.83,143.54,793.52,141.17,794.24Z"/><path class="cls-2" d="M573.07,78.15c-10.54-9.54-21.67-18.19-35-23.65-7.86-3.22-7.83-3.27-13.4,3.32a22.5,22.5,0,0,1-1.84,1.71c-6.18-10.88-13.55-20.39-23.67-27.46l1-1.1c26.84,5.65,50.48,17.05,68.55,38.35,2,2.39,3.64,5.11,5.45,7.68Z"/><path class="cls-1" d="M655,224c6.43-6.47,12.48-13.21,15.67-22,5.1-14.06,3-27.27-4.6-39.85,10.2,5.89,14.7,15.71,18.08,26.3,2.44,7.66.64,14.43-5.6,19.24C671,213.55,662.83,218.63,655,224Z"/><path class="cls-1" d="M715.15,320.33c-10-7.49-15.56-17.86-18.69-29.69a3.4,3.4,0,0,1,.69-2.69c5.24-5.71,6.13-12.71,6.15-20,2.69,3.78,5.46,7.5,8,11.39a4.11,4.11,0,0,1,.23,3.53c-7.15,12.4-4.6,24,2.71,35.21A12.38,12.38,0,0,1,715.15,320.33Z"/><path class="cls-12" d="M351.18,564.38l.2.39c-.08.83-.21,1.66-.21,2.49q0,117.84.05,235.67a30.41,30.41,0,0,1-.61-4.31q0-115,0-229.94A31.67,31.67,0,0,1,351.18,564.38Z"/><path class="cls-14" d="M705,564.24c9.4-2.3,13.15-8.71,13.11-17.92,0-4.47,0-9,0-13.43a37.53,37.53,0,0,1,1,26.16c-1.64,4.77-7.69,8-11.76,12l-1.48-.76Z"/><path class="cls-15" d="M660.92,516.85l-.68,1.65-.89-.06v-15l-7.28-1.16c1.47-.09,3-.13,4.43-.29,2.76-.31,3.82.8,3.81,3.64C660.29,509.36,660.7,513.11,660.92,516.85Z"/><path class="cls-16" d="M419.22,100.23l-1.41-1.33,6.37-4.56a6,6,0,0,1,0,1Z"/><path class="cls-17" d="M394.21,393.21l3.1,1-9.09.73a2.18,2.18,0,0,1,0-.72Z"/><path class="cls-18" d="M639,320.28q-1-3.76-2-7.52l.79-.27c.73,1.57,1.47,3.13,2.2,4.69Z"/><path class="cls-19" d="M729.36,339.89l1.08,5.42-1,.33-1.21-2.59C728.59,342,729,341,729.36,339.89Z"/><path class="cls-20" d="M423.28,332.2c.37-1,.73-2.05,1.1-3.08l1,.12c-.35,2-.71,4-1.07,6Z"/><path class="cls-21" d="M684.09,350c-.57-1-1.13-2-1.69-3,.3-1,.59-2.06.89-3.09q.38,3.08.73,6.15Z"/><path class="cls-22" d="M415.08,363l1.13,1.15-2.68,3-1.09,0Z"/><path class="cls-23" d="M711.93,501.91l-.72,2.66-.84-.15v-3.48Z"/><path class="cls-24" d="M458,87.87l-1.92-.81,3.65-1.17,1.32.94Z"/><path class="cls-25" d="M729.23,369.12l1.3-3.45.74.26c-.32,1.5-.65,3-1,4.5C729.94,370,729.59,369.55,729.23,369.12Z"/><path class="cls-26" d="M573.07,78.15,574.21,77l1.94,3.08a3.78,3.78,0,0,0,0,1Z"/><path class="cls-27" d="M227,396.91l1.11,1.19-3.11,2-1.48-1.55Z"/><path class="cls-28" d="M307.91,240.85l-1.9-.91,4-1.1.35.85Z"/><path class="cls-29" d="M695,311.29l-1.59-3.24h1.29l1.52,2C695.83,310.46,695.42,310.88,695,311.29Z"/><path class="cls-30" d="M417.11,240.13l-1,1-1.77-3.08h1Z"/><path class="cls-31" d="M463,85l4.17-.92c0,.33,0,.67,0,1l-3.09.79Z"/><path class="cls-32" d="M463,85l1,.88-2.95,1-1.32-.94Z"/><path class="cls-12" d="M388.2,798.83l5-.67Z"/><path class="cls-33" d="M595.11,543.13l-1.74-1.33.4-.78,2.4,1.05Z"/><path class="cls-34" d="M509.13,464.08l-2-1.94c.37-.37.74-.75,1.1-1.13l1,2Z"/><path class="cls-35" d="M301,193l2.14-1.89c0,.37.08.75.13,1.12l-1.17,1.87Z"/><path class="cls-36" d="M550.08,486.23l-1.89-3.18-.07.1,2.09,1.74C550.17,485.33,550.13,485.78,550.08,486.23Z"/><path class="cls-12" d="M379.2,799.83l4.06-.69Z"/><path class="cls-12" d="M370.18,800.91l4.25-.72Z"/><path class="cls-12" d="M363.19,801.86l4-.74Z"/><path class="cls-8" d="M467.1,85.05c0-.34,0-.68,0-1L469,83l.38.66Z"/><path class="cls-37" d="M258.2,227.26l-1,1.7-1.55-.59Z"/><path class="cls-38" d="M500.21,31l-1,1.1-1.74-1.3.33-.64Z"/><path class="cls-39" d="M441.26,242l-1.2,1.2c-.31-.81-.63-1.61-.94-2.42l1.16-.94Z"/><path class="cls-40" d="M546.07,186.23l-1-.86c.06-.49.13-1,.2-1.47l1.76,2.19Z"/><path class="cls-41" d="M682.22,512.15c-.12.87-.25,1.74-.37,2.61l-.55,0V512A1.62,1.62,0,0,1,682.22,512.15Z"/><path class="cls-42" d="M569.12,470.1c.61-.79,1.23-1.57,1.84-2.35l.27,1.63-.93.88Z"/><path class="cls-43" d="M376.15,379.06l-1.33.5c.47-.47.94-.94,1.42-1.4A1.72,1.72,0,0,0,376.15,379.06Z"/><path class="cls-44" d="M387.12,233.12l-1.31-1.5,1.33.45Z"/><path class="cls-45" d="M412.14,369.1l-1.57,1.36c.18-.45.35-.91.53-1.36Z"/><path class="cls-31" d="M479.15,42.09l1.67,1.28-.4.56-1.28-.84Z"/><path class="cls-46" d="M413.15,236.1l-.51-1.3,1.46,1.37A6.08,6.08,0,0,0,413.15,236.1Z"/><path class="cls-47" d="M426.14,93.11l2-1-.06-.06-2,2C426.11,93.74,426.12,93.43,426.14,93.11Z"/><path class="cls-45" d="M430.14,383l1.37-.72c-.46.62-.91,1.24-1.36,1.87Z"/><path class="cls-48" d="M499.06,386.18l-.42-.13-.41.13V384l.59,0Z"/><path class="cls-49" d="M412.26,111.19c-.32.33-.64.65-.95,1l-1.48-.18,1.35-1.85Z"/><path class="cls-50" d="M299.23,278.18,298,277l1.47-.66C299.4,276.92,299.32,277.55,299.23,278.18Z"/><path class="cls-51" d="M239.05,512.09l1,0-1.66,1.09Z"/><path class="cls-52" d="M376.15,379.06a1.72,1.72,0,0,1,.09-.9l2-.83a1,1,0,0,1-.09.57Z"/><path class="cls-53" d="M378.13,377.9a1,1,0,0,0,.09-.57l1.94-1a6.52,6.52,0,0,1,0,.76Z"/><path class="cls-54" d="M578.26,341l-2.2-1.67,1.18-.24Z"/><path class="cls-55" d="M728.14,332.14c0,.67,0,1.34,0,2l-.84-2.29Z"/><path class="cls-56" d="M555.09,456.09l2-2.18c.06.47.11.95.16,1.42l-1.05.78Z"/><path class="cls-12" d="M356.2,802.83l3.23-.64Z"/><path class="cls-57" d="M388.22,394.24a2.18,2.18,0,0,0,0,.72l-1.33-.52Z"/><path class="cls-58" d="M799.23,709.76l-.15,1.41c-.32-.73-.65-1.45-1-2.18Z"/><path class="cls-59" d="M302.12,403.11l.75,1.31-.72-.3Z"/><path class="cls-1" d="M731.94,788.89l-1.56-.49Z"/><path class="cls-60" d="M550.08,486.23c0-.45.09-.9.13-1.34l1,.89c-.07.51-.13,1-.2,1.52Z"/><path class="cls-61" d="M318.33,495.91l-1.31-.47,1.31-.15A2.15,2.15,0,0,0,318.33,495.91Z"/><path class="cls-57" d="M609.15,564.1l.43.71-1.41-.6a.36.36,0,0,1,0-.58Z"/><path class="cls-47" d="M455.16,248.09l.84,1.31-.84-.16Z"/><path class="cls-62" d="M576.15,81a3.78,3.78,0,0,1,0-1c.2.53.4,1,.59,1.57Z"/><path class="cls-63" d="M648.15,182l-.65.78L648,181a5.25,5.25,0,0,1,.22.63A.93.93,0,0,1,648.15,182Z"/><path d="M666.4,306.1l-.27-1h.48l.48.07a1.18,1.18,0,0,1,.1.92C666.92,306.1,666.66,306.1,666.4,306.1Z"/><path class="cls-64" d="M388.13,233.15l1,1,.07-.07-1-1Z"/><path class="cls-65" d="M412.14,369.1h-1l1.07-1-.06-.07Z"/><path class="cls-53" d="M412.44,367.15l1.09,0-1.42.88.06.07Z"/><path class="cls-66" d="M387.12,233.12l0-1.05,1,1.08.07-.08Z"/><path class="cls-1" d="M609.15,564.1l-1-.47a1.39,1.39,0,0,1,.68-.49Z"/><path class="cls-1" d="M424.19,95.29a6,6,0,0,0,0-1l1-.24h0Z"/><path d="M685.91,279.12l.46.91-1.15,0,0-.06Z"/><path class="cls-64" d="M426.14,93.11c0,.32,0,.63,0,.94l-1,0h0Z"/><path class="cls-57" d="M428.17,92.14l.45-.53c0,.11,0,.26-.08.31a1.47,1.47,0,0,1-.43.16Z"/><path class="cls-12" d="M351.32,803l1,.14Z"/><path class="cls-64" d="M479.15,42.09v1l-1-.29c0-.41.06-.81.08-1.22Z"/><path class="cls-67" d="M548.19,483.05l-.74-.11.29-.51c.13.24.26.48.38.72Z"/><path d="M571.26,508.78l.84.56a1.3,1.3,0,0,0,0,.89l-1-.35C571.19,509.51,571.22,509.15,571.26,508.78Z"/><path class="cls-1" d="M380.13,377.06a6.52,6.52,0,0,0,0-.76l.91-.4a6.33,6.33,0,0,1,.07,1Z"/><path class="cls-68" d="M415.29,238.06h-1l-.15-1-.07.08Z"/><path class="cls-52" d="M413.15,236.1a6.08,6.08,0,0,1,1,.07,1.64,1.64,0,0,1,0,1l.07-.08Z"/><path class="cls-69" d="M747.17,544.85l1,.08-.49.08Z"/><path class="cls-70" d="M797.18,548.85l.93.08-.47.09Z"/><path d="M470,224.83C472.14,213,482,204,494.6,202a46.16,46.16,0,0,1,30.68,5.9c8.07,4.6,15.81,9.77,23.73,14.64,1.67,1,3.5,1.81,5.25,2.7L573.13,234l.82.27-.84-1.17q-4-6.45-8.08-12.91l.12-1.18c12.57,8.3,26.25,13.5,41.36,14.63,1.8.13,3.61.18,5.42.27l4.37.19-18.1,11h18.42c.2,23.94-5.59,45.53-21.4,63.87l0,.06c2.77-11,4.5-22.11,2.55-33.11-13.68,2.57-27.27,5.78-41,7.56-18.8,2.43-37.57,2.2-55.13-6.57-4-2-7.65-4.62-11.46-7l-1-.89-2.94-3.81c8.13,1.83,15.85,3.72,23.72.29-2.47-4-5.07-7.61-7.11-11.53-3.72-7.16-4.33-15-3.74-22.87.32-4.15-1.34-5.88-5-7.19-8.27-3-15.94-2.84-22.88,3.19Z"/><path d="M677.28,287.75,670.2,293l-11.87-14.11c-.45,5.88-1,10.55-1.09,15.24,0,3-1.4,4.25-4,4.62a49,49,0,0,1-7.41.77c-8.55-.14-10.21-1.94-8.5-10.08,2.89-13.8,2-27.5-.76-41.12-.79-3.9.37-5.56,3.8-6.54s6.8-1.64,8.74,2.77C656,260.31,664,275.34,677.28,287.75Z"/><path class="cls-71" d="M599.32,204c7.91.33,15.9,1.5,23.71.73,5.83-.57,11.42-3.63,17.11-5.58l.06,1c-.42,1.25-.76,2.53-1.28,3.74-3.84,8.94-9,12.26-18.42,9.75-9-2.4-17.57-6.36-26.33-9.63,0-.34,0-.67,0-1l3,.32Z"/><path class="cls-72" d="M616.3,234.12l-4.37-.19,4.84-.37c0,.11,0,.27,0,.33A1.88,1.88,0,0,1,616.3,234.12Z"/><path class="cls-73" d="M504.2,314.22l-2.36.86-.33-.66,1.77-1.21Z"/><path class="cls-74" d="M594.15,203c0,.33,0,.66,0,1l-2.57-1.27c.06-.18.13-.36.2-.55Z"/><path class="cls-75" d="M667.09,305.16l-.48-.07h-.48l-.72-1.41Z"/><path class="cls-76" d="M540.1,301c0-.31.06-.63.08-1l2.3.31c0,.21,0,.43,0,.64Z"/><path class="cls-15" d="M693.17,307.1l-1-1.15.56-.56,1.44,1.72C693.81,307.09,693.49,307.09,693.17,307.1Z"/><path class="cls-77" d="M546.07,186.23l1-.14.33.82Z"/><path class="cls-78" d="M459.16,193c-.21.17-.43.33-.65.49l.58-1.39A2.5,2.5,0,0,1,459.16,193Z"/><path class="cls-79" d="M640.2,200.16l-.06-1,.59-.84Z"/><path class="cls-74" d="M599.32,204l-2.21-.64Z"/><path class="cls-80" d="M573.11,233.12l.84,1.17-.82-.27A5.41,5.41,0,0,1,573.11,233.12Z"/><path class="cls-81" d="M614,311.18l-.39,0-.38,0,.54-1.26C613.88,310.34,614,310.76,614,311.18Z"/><path class="cls-25" d="M685.22,280.06l1.15,0,.71,1.09.11-.08Z"/><path class="cls-79" d="M565.15,219l-.12,1.18-.67-1.61Z"/><path class="cls-82" d="M489.15,269.08l1,.89c0,.39-.09.78-.13,1.18Z"/><path class="cls-79" d="M687.08,281.12l.78.35-.52.35-.15-.78Z"/><path class="cls-25" d="M693.17,307.1c.32,0,.64,0,1,0l.58.93h-1.29C693.34,307.73,693.25,307.42,693.17,307.1Z"/><path class="cls-83" d="M595.22,309c-.15.25-.31.49-.47.74l.51-.68Z"/><path class="cls-84" d="M470,224.83l1.26,2.33L469.91,229l-.93-.35Z"/><path class="cls-11" d="M606.17,769.93l18.33,11.92-.28.89-22.77-1.84c-8-.65-15.9-1.4-23.87-1.95-10.1-.71-12.52-3.2-12.56-13.22q-.3-90.71-.61-181.42c0-1.81,0-3.61,0-6.63l22.73,15.53c0,1.16-.16,2.32-.16,3.49V765.05c0,1,.12,1.93.2,3.12Z"/><path d="M606.17,769.93l-19-1.76c-.08-1.19-.2-2.16-.2-3.12V596.7c0-1.17.11-2.33.16-3.49h19.13c.15,2.58.31,4,.31,5.46q0,83.16,0,166.32C606.57,766.63,606.31,768.28,606.17,769.93Z"/><path class="cls-85" d="M750,807.22l1.2-1.19,1.63,1.5-.35.59Z"/><path class="cls-86" d="M684,350l.68.34-.61-.4Z"/><path class="cls-87" d="M878,847.21l1.35-.14c-.07.41-.13.81-.2,1.21Z"/><path class="cls-88" d="M573.14,510.11l1.94,2,.06-.09-2-1C573.14,510.73,573.13,510.42,573.14,510.11Z"/><path class="cls-89" d="M509.13,464.08l.06-1.06.88,2.08Z"/><path class="cls-90" d="M573.14,510.11c0,.31,0,.62,0,.93l-1-.81a1.3,1.3,0,0,1,0-.89Z"/><path class="cls-67" d="M575.08,512.13l1.21.26-.39.51-.76-.86Z"/><path class="cls-48" d="M569.12,470.1l1.18.16-2,1.22Z"/><path class="cls-88" d="M555.09,456.09l1.07,0-1.62.74Z"/><path class="cls-91" d="M586.21,482l-.38.71.45-.64Z"/><path d="M394.18,594.11l20-.93V701.93l-20,8.91Z"/><path class="cls-61" d="M303.28,192.2c0-.37-.09-.75-.13-1.12l.69-.38C303.65,191.2,303.46,191.7,303.28,192.2Z"/><path class="cls-71" d="M402.48,836.5l17.79-1.6V856l-17.79,1.72Z"/><path class="cls-8" d="M409.83,112l1.48.18-1.07,1-1.18-.1Z"/><path class="cls-92" d="M409.06,113.1l1.18.1-1.57.66Z"/></svg>