<?xml version="1.0" encoding="utf-8"?>
<!-- Generator: Adobe Illustrator 22.0.0, SVG Export Plug-In . SVG Version: 6.00 Build 0)  -->
<svg version="1.1" id="Camada_1" xmlns="http://www.w3.org/2000/svg" xmlns:xlink="http://www.w3.org/1999/xlink" x="0px" y="0px"
	 width="64px" height="64px" viewBox="0 0 64 64" style="enable-background:new 0 0 64 64;" xml:space="preserve">
<g>
	<g>
		<path style="fill:#FE0173;" d="M38.475,53.43c1.325-0.566,2.592-1.237,3.749-2.102c3.031-2.265,5.129-5.195,6.265-8.809
			c0.012-0.038,0.035-0.073,0.053-0.11c0.134-0.003,0.209-0.088,0.257-0.197c0.065-0.147,0.171-0.258,0.282-0.369
			c2.822-2.821,5.645-5.642,8.462-8.468c0.16-0.16,0.317-0.261,0.546-0.221c0.35,1.969,0.414,3.952,0.296,5.944
			c-0.188,3.181-0.934,6.227-2.239,9.131c-2.21,4.917-5.64,8.781-10.165,11.688c-2.771,1.781-5.782,2.971-9.011,3.607
			c-2.354,0.463-4.731,0.575-7.12,0.389c-0.462-0.036-0.934-0.025-1.383-0.176c-0.027-0.191,0.069-0.319,0.179-0.471
			c0.273-0.377,0.666-0.622,0.975-0.959c0.411-0.448,0.823-0.895,1.281-1.3c0.371-0.328,0.704-0.699,1.052-1.054
			c0.427-0.436,0.84-0.886,1.28-1.308c0.38-0.364,0.761-0.734,1.122-1.112c0.414-0.434,0.861-0.835,1.273-1.272
			c0.366-0.388,0.76-0.76,1.144-1.133c0.458-0.445,0.896-0.912,1.365-1.348C38.255,53.672,38.412,53.594,38.475,53.43z"/>
		<path style="fill:#FFFFFF;" d="M32.007,12.981c-0.971,0.975-1.917,1.929-2.869,2.876c-0.204,0.203-0.384,0.567-0.632,0.55
			c-0.214-0.015-0.407-0.353-0.606-0.552c-1.894-1.894-3.785-3.79-5.682-5.681c-0.136-0.136-0.195-0.204-0.021-0.377
			c3.218-3.207,6.428-6.423,9.64-9.637C31.887,0.109,31.942,0.062,32.01,0c1.107,1.11,2.21,2.216,3.314,3.321
			c4.441,4.444,8.883,8.888,13.328,13.327c0.151,0.151,0.225,0.293,0.202,0.515c-0.198,1.907-0.532,3.788-1.068,5.629
			c-0.413,1.42-0.933,2.799-1.663,4.091c-0.025,0.044-0.054,0.086-0.075,0.12C41.369,22.331,36.698,17.665,32.007,12.981z"/>
		<path style="fill:#FE9001;" d="M5.769,34.154c0.132-1.495,0.476-2.947,0.907-4.378c1.314-4.365,3.629-8.123,6.871-11.324
			c2.179-2.151,4.334-4.326,6.491-6.5c0.18-0.181,0.264-0.159,0.427,0.008c0.727,0.745,1.47,1.476,2.204,2.214
			c0.539,0.543,1.074,1.089,1.611,1.635c-0.02,0.178-0.13,0.299-0.25,0.419C18.096,22.163,12.16,28.098,6.229,34.036
			C6.085,34.181,5.956,34.243,5.769,34.154z"/>
		<path style="fill:#FE473C;" d="M13.559,56.37c-0.72-0.636-1.343-1.363-1.96-2.095c-0.919-1.093-1.72-2.27-2.447-3.498
			c-0.037-0.062-0.061-0.131-0.092-0.196c0.042-0.125,0.147-0.199,0.234-0.287c2.116-2.118,4.233-4.234,6.351-6.35
			c0.08-0.08,0.172-0.148,0.258-0.222c0.417,0.971,0.883,1.917,1.432,2.822c0.413,0.68,0.9,1.303,1.396,1.922
			c0.402,0.503,0.866,0.949,1.304,1.419c-0.309,0.305-0.62,0.609-0.928,0.917c-1.255,1.254-2.51,2.508-3.763,3.763
			C14.748,55.163,14.155,55.768,13.559,56.37z"/>
		<path style="fill:#FE7D11;" d="M5.713,40.299c-0.141-1.085-0.177-2.174-0.138-3.267c0.219,0.103,0.383,0.047,0.547-0.136
			c0.264-0.294,0.555-0.564,0.835-0.844c6.128-6.128,12.256-12.256,18.384-18.384c0.14-0.14,0.295-0.269,0.316-0.485
			c0.32,0.313,0.634,0.631,0.962,0.936c0.19,0.176,0.011,0.25-0.079,0.34c-1.575,1.579-3.158,3.149-4.726,4.735
			c-1.142,1.155-2.347,2.25-3.362,3.527c-0.801,1.007-1.453,2.105-2.044,3.242c-0.209,0.01-0.331,0.159-0.463,0.291
			c-3.264,3.264-6.527,6.527-9.791,9.791C6.031,40.171,5.92,40.318,5.713,40.299z"/>
		<path style="fill:#FE840A;" d="M25.658,17.184c-0.021,0.217-0.176,0.346-0.316,0.485c-6.128,6.128-12.256,12.256-18.384,18.384
			c-0.28,0.28-0.572,0.549-0.835,0.844c-0.164,0.183-0.328,0.238-0.547,0.136c-0.026-0.965,0.046-1.924,0.193-2.878
			c0.187,0.089,0.316,0.026,0.46-0.118c5.931-5.939,11.867-11.874,17.803-17.808c0.12-0.12,0.23-0.241,0.25-0.419
			c0.291,0.263,0.574,0.532,0.82,0.843C25.26,16.852,25.471,17.008,25.658,17.184z"/>
		<path style="fill:#FE2D50;" d="M13.559,56.37c0.595-0.602,1.188-1.206,1.786-1.806c1.253-1.256,2.508-2.51,3.763-3.763
			c0.308-0.307,0.618-0.611,0.928-0.917c0.672,0.596,1.323,1.219,2.076,1.713c0.682,0.448,1.386,0.861,2.104,1.25
			c-0.039,0.183-0.214,0.245-0.327,0.359c-2.115,2.129-4.236,4.253-6.355,6.378c-0.855-0.513-1.631-1.134-2.397-1.767
			C14.588,57.361,14.041,56.901,13.559,56.37z"/>
		<path style="fill:#FE0C6B;" d="M38.475,53.43c-0.063,0.164-0.22,0.242-0.338,0.352c-0.469,0.436-0.906,0.904-1.365,1.348
			c-0.385,0.373-0.779,0.746-1.144,1.133c-0.412,0.437-0.859,0.838-1.273,1.272c-0.361,0.378-0.742,0.747-1.122,1.112
			c-0.44,0.422-0.853,0.872-1.28,1.308c-0.347,0.355-0.681,0.726-1.052,1.054c-0.458,0.405-0.87,0.852-1.281,1.3
			c-0.309,0.337-0.702,0.582-0.975,0.959c-0.11,0.152-0.206,0.28-0.179,0.471c-0.861-0.062-1.698-0.261-2.536-0.452
			c-0.601-0.137-1.202-0.279-1.779-0.502c-0.006-0.212,0.138-0.338,0.271-0.471c1.923-1.923,3.846-3.846,5.77-5.769
			c0.479-0.479,0.97-0.947,1.43-1.443c0.147-0.159,0.419-0.167,0.473-0.419c1.041-0.004,2.08-0.101,3.097-0.284
			c1.08-0.195,2.143-0.513,3.166-0.934C38.394,53.447,38.435,53.441,38.475,53.43z"/>
		<path style="fill:#FE1F5C;" d="M55.249,24.83c0.406,0.681,0.742,1.397,1.039,2.132c-0.148-0.021-0.253,0.045-0.356,0.148
			c-2.207,2.211-4.415,4.421-6.628,6.626c-0.121,0.12-0.155,0.333-0.368,0.357c-0.032-0.142-0.063-0.283-0.11-0.494
			c-3.119,3.119-6.207,6.208-9.31,9.311c-0.058-0.131,0.015-0.178,0.053-0.232c1.541-2.174,3.012-4.393,4.377-6.682
			c0.021-0.035,0.051-0.064,0.077-0.096c0.189-0.007,0.237-0.188,0.34-0.291c3.507-3.498,7.009-7.001,10.511-10.505
			C54.986,24.992,55.098,24.887,55.249,24.83z"/>
		<path style="fill:#FE7318;" d="M5.713,40.299c0.207,0.019,0.318-0.128,0.442-0.253c3.264-3.264,6.527-6.527,9.791-9.791
			c0.132-0.132,0.254-0.281,0.463-0.291c-0.407,0.953-0.794,1.912-1.066,2.914c-0.236,0.872-0.383,1.761-0.516,2.653
			c-0.175-0.025-0.26,0.107-0.361,0.208c-2.05,2.049-4.1,4.099-6.15,6.149c-0.55,0.55-1.101,1.101-1.651,1.651
			c-0.095,0.095-0.179,0.21-0.339,0.186c-0.297-0.967-0.43-1.966-0.565-2.965C5.742,40.607,5.73,40.453,5.713,40.299z"/>
		<path style="fill:#FE0C6B;" d="M58.089,33.155c-0.228-0.04-0.386,0.061-0.546,0.221c-2.817,2.826-5.64,5.647-8.462,8.468
			c-0.111,0.111-0.217,0.222-0.282,0.369c-0.048,0.109-0.123,0.194-0.257,0.197c0.313-1.184,0.572-2.378,0.658-3.603
			c0.032-0.466,0.038-0.933,0.055-1.4c0.235-0.049,0.29-0.284,0.433-0.427c2.375-2.369,4.747-4.742,7.118-7.116
			c0.131-0.131,0.274-0.222,0.464-0.223C57.644,30.789,57.915,31.961,58.089,33.155z"/>
		<path style="fill:#FE6821;" d="M6.327,43.725c0.16,0.023,0.244-0.091,0.339-0.186c0.55-0.55,1.101-1.101,1.651-1.651
			c2.05-2.05,4.099-4.1,6.15-6.149c0.101-0.101,0.187-0.233,0.361-0.208c-0.071,0.818-0.078,1.638-0.072,2.458
			c0.005,0.687,0.092,1.366,0.178,2.045c-0.189,0.031-0.305,0.169-0.43,0.294c-2.254,2.254-4.509,4.508-6.762,6.764
			C7.656,47.18,7.581,47.28,7.5,47.374C6.995,46.195,6.596,44.981,6.327,43.725z"/>
		<path style="fill:#FE5C2B;" d="M7.5,47.374c0.081-0.094,0.155-0.195,0.243-0.282c2.253-2.255,4.508-4.509,6.762-6.764
			c0.125-0.125,0.24-0.263,0.43-0.294c0.192,1.2,0.492,2.371,0.922,3.509c0.022,0.057,0.032,0.119,0.048,0.178
			c-0.086,0.074-0.178,0.142-0.258,0.222c-2.118,2.116-4.235,4.233-6.351,6.35c-0.087,0.087-0.192,0.162-0.234,0.287
			C8.442,49.56,7.922,48.491,7.5,47.374z"/>
		<path style="fill:#FE1464;" d="M57.269,29.642c-0.19,0.002-0.333,0.092-0.464,0.223c-2.371,2.374-4.743,4.747-7.118,7.116
			c-0.143,0.143-0.198,0.378-0.433,0.427c0.006-1.116-0.129-2.218-0.319-3.316c0.213-0.024,0.247-0.237,0.368-0.357
			c2.213-2.205,4.421-4.415,6.628-6.626c0.103-0.103,0.208-0.169,0.356-0.148C56.681,27.831,57.01,28.723,57.269,29.642z"/>
		<path style="fill:#FE1464;" d="M32.094,54.681c-0.055,0.252-0.326,0.26-0.473,0.419c-0.46,0.496-0.951,0.964-1.43,1.443
			c-1.923,1.923-3.846,3.846-5.77,5.769c-0.133,0.133-0.276,0.259-0.271,0.471c-0.832-0.258-1.656-0.536-2.44-0.921
			c0.038-0.169,0.145-0.297,0.262-0.414c2.23-2.232,4.462-4.462,6.688-6.697c0.104-0.105,0.298-0.133,0.306-0.328
			C30.005,54.559,31.045,54.676,32.094,54.681z"/>
		<path style="fill:#FE2656;" d="M55.249,24.83c-0.15,0.056-0.263,0.162-0.374,0.273c-3.502,3.504-7.004,7.007-10.511,10.505
			c-0.104,0.103-0.151,0.284-0.34,0.291c0.642-1.152,1.297-2.298,1.922-3.459c0.472-0.877,0.907-1.775,1.358-2.664
			c0.146,0.02,0.227-0.079,0.316-0.168c0.358-0.36,0.716-0.719,1.074-1.078c0.672-0.674,1.347-1.346,2.015-2.024
			c0.508-0.515,0.982-1.066,1.515-1.552c0.678-0.618,1.278-1.314,1.973-1.913c0.302,0.494,0.606,0.988,0.906,1.484
			C55.16,24.622,55.2,24.728,55.249,24.83z"/>
		<path style="fill:#FE1F5C;" d="M28.967,54.423c-0.008,0.195-0.201,0.223-0.306,0.328c-2.226,2.235-4.459,4.465-6.688,6.697
			c-0.117,0.117-0.223,0.245-0.262,0.414c-0.786-0.302-1.538-0.674-2.259-1.107c0.055-0.138,0.145-0.249,0.249-0.353
			c2.105-2.102,4.209-4.204,6.307-6.313c0.112-0.113,0.311-0.148,0.332-0.347C27.204,54.011,28.083,54.229,28.967,54.423z"/>
		<path style="fill:#FE2D50;" d="M54.196,23.042c-0.695,0.599-1.295,1.295-1.973,1.913c-0.533,0.486-1.008,1.037-1.515,1.552
			c-0.668,0.678-1.343,1.35-2.015,2.024c-0.358,0.359-0.717,0.718-1.074,1.078c-0.088,0.089-0.17,0.188-0.316,0.168
			c0.528-1.207,1.079-2.405,1.543-3.64c0.758-2.015,1.411-4.059,1.736-6.195c0.059-0.387,0.101-0.776,0.11-1.243
			C52.039,20.061,53.205,21.48,54.196,23.042z"/>
		<path style="fill:#FE2656;" d="M26.34,53.741c-0.021,0.2-0.22,0.235-0.332,0.347c-2.098,2.109-4.202,4.211-6.307,6.313
			c-0.105,0.105-0.194,0.216-0.249,0.353c-0.672-0.337-1.321-0.71-1.917-1.171c2.119-2.125,4.24-4.248,6.355-6.377
			c0.113-0.114,0.289-0.176,0.327-0.359C24.924,53.145,25.632,53.443,26.34,53.741z"/>
		<path style="fill:#FE1F5C;" d="M39.415,42.978c0.006-0.023,0.013-0.047,0.019-0.07c0.009,0.004,0.018,0.009,0.027,0.013
			c-0.016,0.018-0.032,0.035-0.049,0.053C39.412,42.974,39.415,42.978,39.415,42.978z"/>
		<path style="fill:#FE1F5C;" d="M39.412,42.974c-0.009,0.015-0.018,0.03-0.027,0.045c-0.006-0.013-0.012-0.025-0.017-0.038
			c0.016-0.001,0.032-0.002,0.048-0.004C39.415,42.978,39.412,42.974,39.412,42.974z"/>
	</g>
</g>
<g>
	<g>
		<path style="fill:#FE0074;" d="M39.284,53.087c1.116-0.56,2.198-1.177,3.19-1.942c2.258-1.742,3.998-3.898,5.2-6.486
			c0.03-0.065,0.069-0.126,0.104-0.189c0.114-0.234,0.292-0.411,0.473-0.597c0.871-0.892,1.766-1.762,2.63-2.662
			c0.575-0.599,1.193-1.159,1.775-1.753c1.659-1.694,3.328-3.378,5.009-5.05c0.088-0.088,0.173-0.182,0.285-0.241
			c0.107-0.056,0.216-0.098,0.291,0.048c0.119,0.626,0.151,1.262,0.175,1.895c0.269,7.018-1.804,13.255-6.388,18.587
			c-3.633,4.226-8.164,7.09-13.582,8.496c-2.818,0.731-5.683,0.943-8.582,0.729c-0.299-0.022-0.597-0.074-0.895-0.112
			c-0.082-0.087-0.27,0.036-0.302-0.152c-0.026-0.155,0.07-0.254,0.165-0.352c0.174-0.179,0.353-0.354,0.529-0.531
			c3.104-3.111,6.223-6.208,9.316-9.329C38.851,53.27,39.107,53.248,39.284,53.087z"/>
		<path style="fill:#FFFFFF;" d="M32.002,0c1.346,1.344,2.689,2.683,4.03,4.024c4.208,4.207,8.414,8.416,12.625,12.621
			c0.152,0.152,0.223,0.295,0.2,0.516c-0.198,1.907-0.532,3.788-1.069,5.63c-0.413,1.42-0.933,2.799-1.664,4.091
			c-0.025,0.044-0.054,0.086-0.077,0.122c-4.68-4.675-9.353-9.342-14.039-14.022c-1.081,1.083-2.141,2.144-3.201,3.206
			c-0.286,0.287-0.284,0.287-0.579-0.008c-2.011-2.013-4.022-4.027-6.037-6.037c-0.121-0.121-0.167-0.181-0.017-0.331
			c3.24-3.231,6.473-6.469,9.708-9.705C31.92,0.07,31.96,0.037,32.002,0z"/>
		<path style="fill:#FE9000;" d="M6.381,30.894c0.279-1.296,0.726-2.536,1.237-3.755c1.342-3.199,3.254-6.014,5.705-8.466
			c2.239-2.24,4.481-4.478,6.713-6.724c0.174-0.175,0.259-0.17,0.427,0.003c0.848,0.874,1.711,1.735,2.568,2.6
			c0.088,0.164-0.002,0.279-0.112,0.384c-0.919,0.874-1.793,1.793-2.7,2.68c-0.601,0.589-1.19,1.193-1.785,1.789
			c-1.028,1.031-2.049,2.07-3.087,3.091c-0.601,0.591-1.186,1.198-1.788,1.789c-0.81,0.794-1.607,1.602-2.408,2.405
			c-1.132,1.135-2.267,2.267-3.392,3.41c-0.314,0.319-0.659,0.606-0.951,0.947c-0.013,0.016-0.029,0.03-0.044,0.044
			c-0.101,0.086-0.202,0.225-0.347,0.139C6.293,31.157,6.35,31.012,6.381,30.894z"/>
		<path style="fill:#FE7D0F;" d="M25.777,17.325c0.337,0.229,0.583,0.554,0.875,0.83c0.16,0.152-0.031,0.219-0.101,0.29
			c-1.128,1.137-2.266,2.264-3.393,3.403c-1.477,1.492-3.004,2.936-4.417,4.492c-0.616,0.758-1.328,1.425-2.017,2.113
			c-3.529,3.521-7.045,7.055-10.575,10.574c-0.139,0.138-0.267,0.35-0.523,0.196c-0.085-0.583-0.065-1.169-0.052-1.755
			c1.452-1.344,2.818-2.775,4.217-4.172c5.293-5.286,10.585-10.574,15.868-15.87C25.695,17.388,25.735,17.356,25.777,17.325z"/>
		<path style="fill:#FE1F5B;" d="M39.656,42.581c0.779-1.154,1.565-2.305,2.336-3.465c0.5-0.753,0.979-1.52,1.467-2.281
			c0.442-0.706,1.123-1.188,1.687-1.778c0.849-0.888,1.756-1.724,2.615-2.602c2.356-2.406,4.759-4.764,7.129-7.155
			c0.131-0.133,0.254-0.324,0.498-0.228c0.276,0.486,0.543,0.975,0.722,1.507c-0.2-0.027-0.346,0.049-0.49,0.193
			c-2.147,2.156-4.299,4.307-6.454,6.455c-0.129,0.128-0.201,0.287-0.305,0.428c-0.158-0.023-0.21,0.12-0.291,0.202
			c-2.869,2.864-5.734,5.732-8.6,8.599c-0.073,0.073-0.152,0.141-0.228,0.211C39.668,42.683,39.639,42.654,39.656,42.581z"/>
		<path style="fill:#FE8A05;" d="M6.381,30.894c0.026,0.103-0.064,0.254,0.085,0.3c0.114,0.035,0.178-0.089,0.249-0.161
			c1.187-1.195,2.37-2.395,3.56-3.587c0.874-0.875,1.761-1.736,2.636-2.609c0.749-0.749,1.486-1.511,2.234-2.26
			c0.646-0.646,1.312-1.271,1.949-1.926c0.997-1.025,2.017-2.027,3.023-3.043c0.647-0.654,1.289-1.318,1.966-1.943
			c0.266-0.245,0.48-0.544,0.769-0.768c0.11-0.085,0.192-0.192,0.179-0.345c0.29,0.253,0.564,0.522,0.812,0.816
			c0.099,0.183-0.024,0.294-0.134,0.406c-0.607,0.614-1.215,1.226-1.825,1.836c-0.98,0.98-1.968,1.95-2.93,2.949
			c-0.605,0.629-1.26,1.213-1.863,1.844c-0.741,0.775-1.513,1.52-2.267,2.281c-0.672,0.678-1.336,1.367-2.028,2.028
			c-0.69,0.66-1.34,1.365-2.024,2.03c-0.686,0.666-1.342,1.361-2.03,2.026c-0.633,0.612-1.273,1.223-1.853,1.888
			c-0.173,0.198-0.398,0.336-0.583,0.519c-0.073,0.072-0.153,0.164-0.269,0.12c-0.122-0.047-0.077-0.18-0.107-0.275
			c0.006-0.04,0.013-0.08,0.019-0.12c0.041-0.079,0.056-0.163,0.053-0.251C6.071,32.051,6.199,31.467,6.381,30.894z"/>
		<path style="fill:#FE7814;" d="M5.624,39.222c0.157,0.016,0.273-0.045,0.385-0.157c2.413-2.418,4.829-4.833,7.244-7.248
			c0.578-0.578,1.156-1.156,1.734-1.734c0.902-0.902,1.799-1.808,2.709-2.703c0.273-0.268,0.561-0.518,0.778-0.838
			c0.061-0.09,0.138-0.187,0.266-0.203c-0.858,1.09-1.636,2.231-2.246,3.482c-0.291,0.598-0.521,1.222-0.79,1.829
			c-0.08,0.148-0.193,0.269-0.311,0.387c-0.794,0.794-1.594,1.583-2.385,2.379c-1.181,1.188-2.378,2.36-3.56,3.546
			c-0.962,0.966-1.929,1.928-2.883,2.902c-0.117,0.119-0.245,0.224-0.374,0.33c-0.18,0.148-0.293,0.113-0.369-0.098
			C5.702,40.477,5.639,39.852,5.624,39.222z"/>
		<path style="fill:#FE056F;" d="M39.284,53.087c-0.244,0.227-0.533,0.391-0.772,0.632c-3.153,3.17-6.317,6.328-9.478,9.489
			c-0.044,0.044-0.089,0.088-0.133,0.133c-0.266,0.271-0.26,0.309,0.067,0.469c-0.571-0.042-1.136-0.118-1.691-0.259
			c-0.24-0.057-0.238-0.187-0.113-0.361c0.092-0.128,0.204-0.236,0.315-0.346c2.748-2.748,5.497-5.493,8.239-8.247
			c0.252-0.254,0.526-0.433,0.874-0.5c0.094-0.018,0.179-0.052,0.258-0.105C37.676,53.732,38.484,53.419,39.284,53.087z"/>
		<path style="fill:#FE1960;" d="M48.86,33.656c-0.019-0.158,0.047-0.273,0.159-0.384c2.22-2.214,4.437-4.431,6.65-6.652
			c0.154-0.154,0.278-0.204,0.441-0.039c0.261,0.502,0.49,1.018,0.65,1.563c-0.222,0.052-0.381,0.194-0.54,0.348
			c-0.994,0.966-1.913,2.005-2.907,2.97c-0.777,0.755-1.524,1.539-2.307,2.289c-0.338,0.323-0.658,0.668-0.983,1.006
			c-0.26,0.271-0.534,0.526-0.855,0.724C49.066,34.872,48.963,34.264,48.86,33.656z"/>
		<path style="fill:#FE056F;" d="M58.241,34.214c-0.165-0.105-0.277,0.004-0.38,0.106c-1.172,1.169-2.346,2.336-3.511,3.511
			c-1.002,1.011-1.99,2.035-2.991,3.046c-0.974,0.984-1.956,1.959-2.933,2.939c-0.216,0.217-0.476,0.392-0.648,0.653
			c0.26-0.707,0.52-1.415,0.78-2.122c0.051-0.055,0.093-0.122,0.097-0.193c0.029-0.52,0.354-0.853,0.7-1.197
			c2.682-2.667,5.353-5.346,8.031-8.019c0.135-0.135,0.251-0.37,0.467-0.319c0.239,0.056,0.133,0.337,0.214,0.506
			c0.022,0.047,0.018,0.103,0.044,0.149C58.186,33.583,58.225,33.897,58.241,34.214z"/>
		<path style="fill:#FE840A;" d="M24.782,16.307c0.102,0.11,0.204,0.219,0.306,0.329c0.13,0.142,0.118,0.275-0.021,0.406
			c-0.083,0.079-0.161,0.163-0.242,0.244c-3.639,3.639-7.285,7.27-10.911,10.922c-0.989,0.996-1.983,1.986-2.962,2.992
			c-1.555,1.596-3.14,3.163-4.716,4.738c-0.066,0.066-0.13,0.136-0.201,0.196c-0.216,0.182-0.3,0.16-0.434-0.111
			c0.01-0.129-0.023-0.261,0.025-0.388c0.005-0.23-0.025-0.463,0.061-0.685c0.118,0.256,0.235,0.158,0.378,0.012
			c1.131-1.151,2.284-2.28,3.424-3.422c4.974-4.984,9.955-9.961,14.936-14.939C24.534,16.492,24.623,16.355,24.782,16.307z"/>
		<path style="fill:#FE592D;" d="M9.125,50.689c-0.364-0.563-0.679-1.153-0.94-1.771c0.418-0.294,0.779-0.649,1.125-1.023
			c0.38-0.411,0.767-0.82,1.192-1.184c0.326-0.279,0.604-0.605,0.894-0.912c0.4-0.423,0.819-0.83,1.238-1.229
			c0.414-0.395,0.791-0.824,1.207-1.217c0.368-0.348,0.738-0.7,1.076-1.081c0.114-0.129,0.212-0.293,0.429-0.245
			c0.204,0.607,0.408,1.214,0.612,1.821c-0.028,0.133-0.136,0.206-0.223,0.293c-2.113,2.115-4.227,4.229-6.342,6.342
			C9.313,50.563,9.246,50.662,9.125,50.689z"/>
		<path style="fill:#FE7218;" d="M5.822,41.097c0.104,0.107,0.198,0.202,0.336,0.026c0.074-0.096,0.194-0.154,0.282-0.241
			c0.811-0.808,1.62-1.618,2.43-2.428c1.395-1.395,2.789-2.789,4.184-4.184c0.798-0.798,1.596-1.597,2.396-2.394
			c0.08-0.08,0.17-0.151,0.256-0.226c-0.199,0.724-0.447,1.435-0.589,2.174c-0.033,0.172-0.073,0.342-0.11,0.513
			c-0.163,0.037-0.262,0.162-0.372,0.271c-2.659,2.658-5.316,5.318-7.978,7.973c-0.145,0.145-0.267,0.369-0.541,0.273
			C5.977,42.275,5.87,41.691,5.822,41.097z"/>
		<path style="fill:#FE5F28;" d="M15.346,42.027c-0.179,0.073-0.302,0.201-0.42,0.356c-0.264,0.346-0.633,0.589-0.921,0.921
			c-0.226,0.262-0.491,0.499-0.737,0.75c-0.674,0.684-1.411,1.31-2.049,2.025c-0.374,0.419-0.793,0.789-1.184,1.184
			c-0.443,0.446-0.825,0.96-1.347,1.329c-0.164,0.116-0.215,0.402-0.503,0.328c-0.293-0.52-0.519-1.07-0.725-1.629
			c0.219-0.124,0.398-0.295,0.575-0.472c1.891-1.895,3.785-3.786,5.677-5.68c0.404-0.404,0.827-0.79,1.184-1.239
			C15.045,40.608,15.196,41.318,15.346,42.027z"/>
		<path style="fill:#FE5232;" d="M9.125,50.689c0.058-0.072,0.111-0.15,0.176-0.216c2.155-2.157,4.31-4.312,6.467-6.467
			c0.058-0.058,0.127-0.106,0.19-0.159c0.264,0.565,0.528,1.129,0.792,1.694c-0.036,0.139-0.14,0.228-0.235,0.324
			c-2.016,2.016-4.032,4.033-6.049,6.048c-0.116,0.116-0.218,0.257-0.402,0.277C9.708,51.716,9.388,51.22,9.125,50.689z"/>
		<path style="fill:#FE8509;" d="M24.782,16.307c-0.088,0.102-0.171,0.209-0.265,0.304c-3.706,3.708-7.412,7.414-11.119,11.121
			c-1.389,1.389-2.778,2.778-4.166,4.166c-1.063,1.063-2.126,2.127-3.191,3.188c-0.077,0.077-0.143,0.218-0.272,0.171
			c-0.137-0.051-0.049-0.204-0.081-0.307c0.004-0.058,0.008-0.115,0.012-0.173c0.06-0.132,0.01-0.271,0.03-0.406
			c2.693-2.582,5.292-5.259,7.935-7.89c3.361-3.346,6.709-6.706,10.064-10.059c0.192-0.191,0.383-0.382,0.547-0.599
			C24.485,15.941,24.633,16.125,24.782,16.307z"/>
		<path style="fill:#FE8807;" d="M24.275,15.822c0.025,0.203-0.138,0.292-0.252,0.406c-5.203,5.206-10.408,10.41-15.612,15.614
			c-0.745,0.745-1.489,1.489-2.233,2.234c-0.118,0.119-0.232,0.242-0.412,0.264c-0.023-0.012-0.032-0.026-0.028-0.042
			c0.005-0.018,0.01-0.026,0.017-0.026c0.019-0.423,0.077-0.84,0.175-1.251c0.092,0.255,0.178,0.246,0.383,0.06
			c0.611-0.556,1.141-1.193,1.749-1.746c0.643-0.585,1.223-1.231,1.845-1.834c0.405-0.393,0.803-0.804,1.2-1.21
			c0.634-0.649,1.284-1.286,1.938-1.917c0.414-0.399,0.812-0.824,1.211-1.243c0.63-0.661,1.273-1.311,1.938-1.937
			c0.634-0.597,1.247-1.218,1.857-1.835c1.219-1.232,2.448-2.455,3.663-3.691c0.638-0.649,1.286-1.289,1.93-1.932
			c0.104-0.104,0.218-0.199,0.2-0.367C24.046,15.463,24.101,15.699,24.275,15.822z"/>
		<path style="fill:#FE6423;" d="M14.895,39.899c-0.019,0.166-0.119,0.282-0.232,0.395c-2.276,2.275-4.552,4.55-6.825,6.827
			c-0.108,0.108-0.215,0.197-0.378,0.17c-0.155-0.357-0.321-0.711-0.397-1.096c-0.105-0.24,0.039-0.388,0.192-0.54
			c1.751-1.749,3.501-3.499,5.25-5.249c0.61-0.61,1.219-1.222,1.832-1.829c0.113-0.112,0.211-0.269,0.413-0.229
			C14.799,38.864,14.847,39.381,14.895,39.899z"/>
		<path style="fill:#FE2C51;" d="M23.092,52.23c0.461,0.249,0.923,0.498,1.384,0.747c-0.237,0.17-0.439,0.38-0.644,0.585
			c-1.898,1.899-3.796,3.798-5.697,5.695c-0.147,0.147-0.274,0.312-0.436,0.443c-0.456-0.27-0.891-0.573-1.302-0.908
			c-0.045-0.231,0.143-0.333,0.268-0.459c1.536-1.542,3.077-3.081,4.616-4.62c0.449-0.449,0.899-0.898,1.348-1.348
			C22.76,52.234,22.893,52.124,23.092,52.23z"/>
		<path style="fill:#FE2656;" d="M45.453,33.395c0.558-1.082,1.115-2.164,1.673-3.247c0.323-0.505,0.792-0.875,1.208-1.293
			c1.829-1.84,3.666-3.673,5.504-5.504c0.106-0.106,0.187-0.296,0.401-0.21c0.284,0.342,0.516,0.716,0.688,1.126
			c-0.147,0.101-0.273,0.224-0.399,0.35c-2.734,2.735-5.468,5.468-8.201,8.204c-0.178,0.178-0.366,0.341-0.573,0.482
			C45.668,33.362,45.586,33.474,45.453,33.395z"/>
		<path style="fill:#FE314D;" d="M23.092,52.23c-0.158-0.019-0.273,0.047-0.384,0.159c-2.03,2.035-4.063,4.068-6.097,6.099
			c-0.09,0.09-0.163,0.188-0.213,0.304c-0.377-0.254-0.741-0.526-1.075-0.836c-0.191-0.164-0.171-0.308,0.006-0.484
			c2.018-2.012,4.032-4.029,6.05-6.041c0.081-0.081,0.155-0.21,0.31-0.136c0.376,0.248,0.752,0.496,1.127,0.744
			C22.908,52.101,22.999,52.166,23.092,52.23z"/>
		<path style="fill:#FE2358;" d="M45.453,33.395c0.284-0.135,0.523-0.33,0.744-0.55c2.803-2.803,5.605-5.606,8.411-8.406
			c0.083-0.083,0.136-0.26,0.319-0.172c0.18,0.254,0.348,0.514,0.46,0.806c-0.177,0.02-0.299,0.129-0.419,0.249
			c-1.971,1.973-3.944,3.945-5.916,5.918c-1.313,1.313-2.633,2.619-3.935,3.943c-0.414,0.421-0.824,0.842-1.282,1.215
			c-0.151,0.123-0.172,0.36-0.377,0.437C44.124,35.689,44.788,34.542,45.453,33.395z"/>
		<path style="fill:#FE810C;" d="M25.777,17.325c-0.007,0.157-0.138,0.227-0.23,0.32c-6.504,6.507-13.01,13.012-19.513,19.519
			c-0.135,0.135-0.275,0.25-0.461,0.303c0.001-0.271,0.002-0.542,0.004-0.814c0.022-0.039,0.038-0.083,0.09-0.091
			c0.092-0.008,0.198,0.008,0.262-0.075c0.216-0.284,0.521-0.474,0.758-0.741c0.421-0.473,0.892-0.9,1.337-1.352
			c0.386-0.392,0.791-0.763,1.168-1.165c0.384-0.409,0.803-0.784,1.188-1.192c0.413-0.438,0.849-0.853,1.278-1.275
			c0.697-0.686,1.365-1.4,2.071-2.077c0.352-0.337,0.687-0.694,1.037-1.034c1.022-0.995,1.988-2.045,3.026-3.023
			c0.333-0.314,0.646-0.648,0.97-0.971c1.071-1.064,2.138-2.132,3.205-3.201c1.052-1.055,2.107-2.107,3.15-3.171
			c0.115-0.117,0.222-0.257,0.418-0.23C25.653,17.111,25.703,17.228,25.777,17.325z"/>
		<path style="fill:#FE3F42;" d="M18.886,48.67c0.33,0.354,0.66,0.707,0.99,1.061c-0.1,0.2-0.259,0.351-0.413,0.505
			c-1.796,1.796-3.592,3.593-5.389,5.389c-0.213,0.213-0.429,0.424-0.622,0.656c-0.38-0.347-0.735-0.716-1.062-1.113
			c-0.034-0.141,0.077-0.208,0.154-0.284c2.017-2.021,4.036-4.04,6.057-6.057C18.679,48.749,18.746,48.639,18.886,48.67z"/>
		<path style="fill:#FE1364;" d="M30.297,54.604c0.724,0.025,1.448,0.05,2.172,0.074c0.002,0.127-0.103,0.124-0.176,0.123
			c-0.459-0.012-0.757,0.239-1.064,0.551c-1.696,1.722-3.412,3.424-5.12,5.133c-0.582,0.582-1.162,1.166-1.747,1.744
			c-0.149,0.148-0.287,0.297-0.336,0.508c-0.43-0.111-0.85-0.252-1.253-0.44c-0.169-0.082-0.168-0.191-0.052-0.32
			c0.07-0.077,0.144-0.15,0.218-0.224c1.229-1.229,2.477-2.441,3.682-3.694c0.821-0.854,1.698-1.65,2.502-2.522
			c0.265-0.287,0.526-0.588,0.841-0.83C30.066,54.628,30.159,54.553,30.297,54.604z"/>
		<path style="fill:#FE2C51;" d="M54.239,23.141c-0.156,0.008-0.227,0.139-0.319,0.231c-2.056,2.053-4.11,4.108-6.166,6.162
			c-0.207,0.207-0.419,0.409-0.628,0.613c0.615-1.341,1.213-2.689,1.753-4.063c0.275-0.422,0.658-0.746,1.008-1.099
			c1.007-1.013,2.018-2.023,3.031-3.029c0.115-0.114,0.223-0.316,0.435-0.13C53.681,22.243,54.013,22.657,54.239,23.141z"/>
		<path style="fill:#FE0D69;" d="M48.996,40.532c0.083-0.73,0.167-1.459,0.25-2.189c0.016-0.019,0.03-0.04,0.043-0.062
			c0.02-0.076,0.011-0.161,0.073-0.224c0.234-0.192,0.439-0.415,0.652-0.628c1.356-1.354,2.732-2.689,4.058-4.072
			c0.945-0.984,1.911-1.946,2.871-2.914c0.129-0.13,0.246-0.329,0.491-0.233c0.169,0.467,0.286,0.948,0.366,1.438
			c-0.16-0.047-0.284-0.014-0.411,0.113c-2.633,2.641-5.271,5.276-7.907,7.913c-0.174,0.174-0.309,0.361-0.304,0.626
			C49.18,40.41,49.164,40.54,48.996,40.532z"/>
		<path style="fill:#FE0D69;" d="M32.846,54.669c0.605-0.062,1.21-0.123,1.814-0.185c0.025,0.179-0.15,0.206-0.236,0.294
			c-2.67,2.701-5.365,5.378-8.053,8.06c-0.171,0.171-0.229,0.313-0.096,0.517c-0.468-0.08-0.925-0.206-1.38-0.343
			c-0.136-0.121-0.132-0.246-0.016-0.378c0.055-0.062,0.114-0.121,0.173-0.18c2.537-2.538,5.077-5.074,7.611-7.615
			C32.723,54.78,32.791,54.732,32.846,54.669z"/>
		<path style="fill:#FE2656;" d="M17.698,59.701c0.003-0.143,0.11-0.219,0.197-0.306c2.071-2.072,4.143-4.143,6.214-6.215
			c0.103-0.103,0.197-0.221,0.367-0.202c0.373,0.163,0.746,0.327,1.119,0.49c0.075,0.136,0.014,0.228-0.086,0.325
			c-2.105,2.041-4.152,4.14-6.235,6.203c-0.141,0.14-0.218,0.33-0.383,0.447C18.474,60.227,18.077,59.978,17.698,59.701z"/>
		<path style="fill:#FE1364;" d="M49.3,38.343c-0.018,0-0.036,0-0.054,0c-0.006-0.955,0.018-1.911-0.078-2.863
			c0.018-0.048,0.021-0.117,0.055-0.14c0.655-0.454,1.133-1.091,1.705-1.629c0.642-0.604,1.256-1.235,1.88-1.856
			c1.171-1.163,2.317-2.351,3.475-3.527c0.129-0.131,0.25-0.296,0.476-0.184c0.206,0.466,0.376,0.944,0.488,1.441
			c-0.068,0.03-0.113-0.008-0.156-0.052c-0.039-0.047-0.072-0.111-0.149-0.059c-0.07,0.047-0.123,0.111-0.182,0.17
			c-2.392,2.388-4.775,4.785-7.176,7.164c-0.117,0.116-0.153,0.239-0.151,0.39c-0.004,0.05-0.012,0.098-0.023,0.146
			C49.369,37.676,49.401,38.017,49.3,38.343z"/>
		<path style="fill:#FE3748;" d="M21.688,51.294c-0.129,0.013-0.19,0.12-0.269,0.199c-2.002,2-4.001,4.002-6.006,5.998
			c-0.15,0.15-0.232,0.276-0.09,0.465c-0.395-0.298-0.774-0.615-1.119-0.971c-0.174-0.21-0.023-0.365,0.115-0.478
			c0.519-0.422,0.95-0.933,1.424-1.399c0.881-0.868,1.735-1.765,2.617-2.631c0.653-0.64,1.264-1.323,1.954-1.925
			c0.082-0.071,0.144-0.189,0.287-0.142C20.963,50.705,21.325,51,21.688,51.294z"/>
		<path style="fill:#FE453D;" d="M18.886,48.67c-0.055,0.047-0.115,0.09-0.166,0.141c-2.064,2.063-4.127,4.126-6.19,6.19
			c-0.051,0.051-0.093,0.111-0.139,0.167c-0.299-0.289-0.569-0.604-0.813-0.941c-0.085-0.137-0.048-0.255,0.052-0.366
			c0.056-0.062,0.115-0.121,0.174-0.179c1.951-1.951,3.901-3.903,5.856-5.851c0.102-0.102,0.176-0.272,0.372-0.233
			C18.316,47.955,18.601,48.312,18.886,48.67z"/>
		<path style="fill:#FE1860;" d="M30.297,54.604c-0.296,0.081-0.473,0.324-0.676,0.52c-0.371,0.358-0.706,0.754-1.07,1.12
			c-1.899,1.905-3.802,3.805-5.705,5.707c-0.102,0.102-0.238,0.191-0.074,0.347c-0.455-0.142-0.895-0.321-1.317-0.544
			c-0.088-0.213,0.097-0.299,0.204-0.407c1.256-1.264,2.522-2.518,3.776-3.785c0.682-0.688,1.377-1.363,2.044-2.066
			c0.298-0.314,0.589-0.644,0.935-0.915c0.156-0.122,0.307-0.208,0.509-0.165C29.382,54.478,29.84,54.541,30.297,54.604z"/>
		<path style="fill:#FE4C37;" d="M10.063,52.19c1.512-1.505,3.024-3.01,4.537-4.514c0.716-0.712,1.433-1.423,2.15-2.134
			c0.231,0.396,0.462,0.792,0.694,1.188c-0.019,0.11-0.098,0.181-0.171,0.254c-2.109,2.114-4.226,4.219-6.33,6.336
			c-0.015,0.015-0.034,0.024-0.053,0.032C10.582,52.987,10.3,52.604,10.063,52.19z"/>
		<path style="fill:#FE096D;" d="M48.996,40.532c0.096-0.05,0.129-0.136,0.115-0.236c-0.038-0.281,0.116-0.472,0.296-0.653
			c2.667-2.667,5.335-5.332,7.998-8.003c0.153-0.153,0.267-0.23,0.395,0.007c0.148,0.534,0.249,1.076,0.311,1.626
			c-0.148-0.121-0.101-0.309-0.154-0.463c-0.058-0.17-0.132-0.201-0.263-0.077c-0.061,0.057-0.119,0.117-0.178,0.176
			c-2.734,2.734-5.466,5.469-8.204,8.199c-0.296,0.295-0.606,0.563-0.607,1.031c0,0.075-0.018,0.198-0.149,0.207
			C48.704,41.742,48.85,41.137,48.996,40.532z"/>
		<path style="fill:#FE096D;" d="M26.275,63.355c-0.29-0.227-0.29-0.227-0.014-0.503c2.438-2.438,4.875-4.876,7.314-7.312
			c0.357-0.357,0.723-0.704,1.085-1.056c0.73-0.164,1.459-0.329,2.188-0.493c-0.031,0.058-0.074,0.106-0.14,0.114
			c-0.496,0.058-0.797,0.407-1.121,0.732c-2.022,2.027-4.048,4.05-6.072,6.075c-0.72,0.72-1.445,1.437-2.157,2.165
			c-0.118,0.12-0.379,0.262-0.082,0.473C26.933,63.537,26.606,63.438,26.275,63.355z"/>
		<path style="fill:#FE1F5B;" d="M20.585,61.353c-0.272-0.138-0.544-0.275-0.817-0.413c-0.148-0.119-0.128-0.244-0.014-0.374
			c0.069-0.078,0.143-0.151,0.217-0.224c2.081-2.081,4.161-4.162,6.243-6.242c0.096-0.096,0.19-0.192,0.253-0.313
			c0.354,0.106,0.708,0.213,1.062,0.319c0.158,0.122,0.048,0.234-0.035,0.311c-0.585,0.547-1.121,1.143-1.697,1.698
			c-0.763,0.736-1.496,1.505-2.255,2.246c-0.632,0.617-1.232,1.266-1.873,1.874C21.294,60.594,20.934,60.968,20.585,61.353z"/>
		<path style="fill:#FE810C;" d="M25.534,17.055c-0.125,0.048-0.22,0.134-0.314,0.228c-0.949,0.952-1.9,1.902-2.85,2.852
			c-0.757,0.757-1.523,1.504-2.267,2.273c-0.698,0.721-1.406,1.434-2.116,2.141c-0.617,0.615-1.234,1.233-1.863,1.838
			c-0.648,0.624-1.288,1.258-1.909,1.91c-0.613,0.644-1.249,1.265-1.874,1.896c-0.412,0.416-0.837,0.832-1.251,1.248
			c-0.678,0.681-1.369,1.349-2.034,2.044c-0.339,0.355-0.697,0.703-1.06,1.042c-0.695,0.648-1.342,1.347-2.002,2.032
			c-0.125,0.13-0.235,0.096-0.362,0.033c-0.048-0.167-0.053-0.334,0.003-0.501c0.125,0.113,0.223,0.127,0.362-0.014
			c1.269-1.282,2.555-2.546,3.818-3.833c0.619-0.631,1.246-1.253,1.873-1.876c1.247-1.24,2.464-2.51,3.706-3.755
			c3.173-3.181,6.353-6.356,9.53-9.532c0.125-0.125,0.279-0.234,0.163-0.445C25.279,16.731,25.399,16.901,25.534,17.055z"/>
		<path style="fill:#FE1C5E;" d="M20.585,61.353c0.027-0.203,0.179-0.321,0.31-0.453c0.869-0.87,1.737-1.741,2.609-2.608
			c0.837-0.831,1.688-1.649,2.515-2.489c0.472-0.479,0.931-0.969,1.425-1.426c0.067-0.062,0.162-0.147,0.085-0.269
			c0.465,0.103,0.93,0.205,1.396,0.308c-0.342,0.028-0.573,0.273-0.763,0.495c-0.303,0.355-0.648,0.666-0.973,0.995
			c-1.825,1.853-3.671,3.684-5.509,5.524c-0.093,0.093-0.219,0.168-0.224,0.323C21.148,61.657,20.864,61.511,20.585,61.353z"/>
		<path style="fill:#FE483A;" d="M10.889,53.352c-0.002-0.108,0.077-0.166,0.142-0.231c2.112-2.112,4.225-4.224,6.337-6.336
			c0.022-0.022,0.05-0.037,0.075-0.056c0.196,0.289,0.392,0.579,0.588,0.868c-0.079,0.066-0.164,0.127-0.236,0.2
			c-2.003,2.001-4.005,4.004-6.008,6.005c-0.119,0.119-0.25,0.227-0.209,0.423C11.322,53.955,11.091,53.665,10.889,53.352z"/>
		<path style="fill:#FE1067;" d="M32.846,54.669c-0.004,0.157-0.134,0.229-0.227,0.321c-2.523,2.526-5.048,5.05-7.573,7.574
			c-0.126,0.126-0.278,0.238-0.151,0.447c-0.294-0.079-0.591-0.148-0.87-0.275c-0.111-0.194,0.023-0.301,0.143-0.421
			c2.173-2.171,4.344-4.344,6.517-6.514c0.509-0.508,0.936-1.151,1.783-1.123C32.595,54.675,32.721,54.672,32.846,54.669z"/>
		<path style="fill:#FE6820;" d="M14.751,38.346c-0.124,0.058-0.226,0.143-0.323,0.24c-2.39,2.392-4.78,4.784-7.174,7.171
			c-0.127,0.127-0.206,0.256-0.191,0.436c-0.186-0.321-0.256-0.682-0.353-1.034c0.017-0.095,0.067-0.166,0.137-0.235
			c2.515-2.489,5.002-5.005,7.517-7.493c0.224-0.221,0.209-0.483,0.259-0.741c0.021-0.111-0.006-0.229,0.03-0.341
			c0.021-0.044,0.048-0.078,0.104-0.069C14.755,36.969,14.753,37.658,14.751,38.346z"/>
		<path style="fill:#FE3B45;" d="M20.601,50.41c-0.262,0.232-0.517,0.472-0.772,0.713c-0.459,0.434-0.885,0.901-1.341,1.338
			c-0.34,0.326-0.672,0.671-1.007,1.007c-0.697,0.697-1.35,1.44-2.102,2.08c-0.115,0.098-0.175,0.231-0.283,0.328
			c-0.24,0.215-0.438,0.471-0.707,0.659c-0.141,0.099-0.256,0.246-0.186,0.451c-0.276-0.208-0.511-0.458-0.751-0.705
			c-0.021-0.176,0.12-0.256,0.219-0.356c1.936-1.939,3.872-3.878,5.817-5.809c0.129-0.128,0.183-0.334,0.388-0.384
			C20.118,49.957,20.359,50.184,20.601,50.41z"/>
		<path style="fill:#FE2259;" d="M26.467,53.787c0.087,0.18-0.08,0.239-0.165,0.324c-2.132,2.137-4.267,4.272-6.402,6.405
			c-0.121,0.121-0.253,0.23-0.131,0.423c-0.302-0.149-0.602-0.301-0.878-0.497c0.043-0.19,0.164-0.331,0.297-0.463
			c2.03-2.03,4.061-4.059,6.087-6.093c0.122-0.123,0.356-0.172,0.32-0.419C25.876,53.599,26.196,53.626,26.467,53.787z"/>
		<path style="fill:#FE6F1B;" d="M6.114,42.855c0.204-0.021,0.33-0.161,0.463-0.294c2.709-2.71,5.418-5.42,8.133-8.125
			c0.067-0.067,0.124-0.294,0.296-0.098c-0.019,0.085-0.037,0.169-0.056,0.254c-0.065,0.102,0.005,0.226-0.053,0.33
			c-0.006,0.057-0.011,0.114-0.017,0.171c-0.046,0.292-0.221,0.498-0.425,0.701c-2.553,2.544-5.099,5.095-7.651,7.641
			c-0.132,0.132-0.236,0.333-0.48,0.289C6.212,43.444,6.17,43.148,6.114,42.855z"/>
		<path style="fill:#FE6B1E;" d="M14.703,36.342c0.032,0.282-0.044,0.557-0.061,0.835c-0.005,0.079-0.038,0.128-0.094,0.183
			c-2.501,2.492-5,4.986-7.499,7.48c-0.11,0.109-0.225,0.213-0.338,0.319c-0.091-0.241-0.179-0.482-0.206-0.74
			c-0.04-0.089,0.027-0.133,0.078-0.182c2.573-2.51,5.087-5.079,7.641-7.609C14.355,36.497,14.459,36.295,14.703,36.342z"/>
		<path style="fill:#FE314C;" d="M53.353,21.827c-0.122-0.05-0.206-0.005-0.297,0.087c-1.29,1.297-2.582,2.593-3.885,3.877
			c-0.098,0.097-0.08,0.316-0.293,0.294c0.421-1.114,0.762-2.254,1.142-3.381c0.016-0.049-0.056-0.095,0.01-0.131
			c0.69-0.665,1.359-1.352,2.042-2.023c0.058-0.057,0.118-0.12,0.215-0.095c0.296,0.364,0.593,0.726,0.885,1.093
			C53.242,21.634,53.294,21.734,53.353,21.827z"/>
		<path style="fill:#FE1066;" d="M49.362,37.28c0-0.042,0-0.083,0-0.125c0.117-0.176,0.289-0.297,0.436-0.444
			c2.315-2.319,4.632-4.636,6.951-6.95c0.103-0.103,0.177-0.269,0.371-0.239c0.042,0.021,0.085,0.041,0.127,0.062
			c0.105,0.196,0.16,0.407,0.187,0.626c-0.168,0.016-0.28,0.122-0.392,0.234c-0.794,0.795-1.611,1.568-2.378,2.388
			c-1.613,1.724-3.33,3.346-4.981,5.032c-0.091,0.093-0.163,0.223-0.32,0.229C49.314,37.822,49.314,37.551,49.362,37.28z"/>
		<path style="fill:#FE6D1D;" d="M14.703,36.342c-0.162,0.059-0.276,0.181-0.394,0.299c-2.451,2.452-4.903,4.904-7.355,7.355
			c-0.146,0.145-0.3,0.282-0.45,0.423c-0.092-0.224-0.16-0.454-0.18-0.696c0.138-0.056,0.245-0.153,0.349-0.257
			c2.631-2.633,5.26-5.267,7.901-7.889c0.149-0.148,0.143-0.364,0.306-0.485c-0.041,0.396-0.082,0.792-0.123,1.188
			C14.739,36.301,14.721,36.321,14.703,36.342z"/>
		<path style="fill:#FE3748;" d="M52.288,20.454c-0.604,0.597-1.209,1.193-1.81,1.792c-0.133,0.132-0.274,0.25-0.447,0.326
			c0.249-1.009,0.497-2.019,0.61-3.055c0.027-0.247,0.041-0.496,0.066-0.802C51.286,19.281,51.813,19.843,52.288,20.454z"/>
		<path style="fill:#FE7D0F;" d="M5.636,36.091c-0.001,0.167-0.002,0.334-0.003,0.501c-0.019,0.021-0.037,0.041-0.056,0.062
			c-0.003-0.341-0.03-0.682,0.05-1.019C5.63,35.787,5.633,35.939,5.636,36.091z"/>
		<path style="fill:#FD356F;" d="M39.656,42.581c0.028,0.029,0.057,0.058,0.085,0.087c-0.087,0.124-0.19,0.228-0.362,0.274
			C39.471,42.822,39.564,42.701,39.656,42.581z"/>
		<path style="fill:#FE840A;" d="M5.755,34.271c0.004,0.023,0.008,0.046,0.012,0.069c-0.04,0.143,0.048,0.305-0.067,0.437
			C5.696,34.605,5.672,34.432,5.755,34.271z"/>
		<path style="fill:#FE8807;" d="M6.002,32.648c0.116,0.112,0.004,0.176-0.053,0.251C5.941,32.81,5.942,32.723,6.002,32.648z"/>
		<path style="fill:#FE6D1D;" d="M14.897,34.921c0.007-0.112-0.047-0.233,0.053-0.33C14.957,34.705,14.968,34.819,14.897,34.921z"/>
		<path style="fill:#FE1167;" d="M49.362,37.28c0,0.271,0,0.542,0,0.813c-0.009,0.086,0.029,0.184-0.063,0.25
			C49.335,37.99,49.226,37.628,49.362,37.28z"/>
		<path style="fill:#FE1167;" d="M57.12,29.522c-0.093,0.082-0.19,0.16-0.278,0.248c-2.363,2.361-4.725,4.723-7.086,7.086
			c-0.118,0.118-0.232,0.24-0.394,0.299c-0.069-0.26,0.144-0.362,0.285-0.503c1.875-1.876,3.751-3.752,5.627-5.628
			c0.537-0.537,1.073-1.074,1.612-1.61c0.049-0.049,0.093-0.137,0.173-0.11C57.164,29.34,57.104,29.447,57.12,29.522z"/>
	</g>
</g>
</svg>
