<svg id="Layer_1" data-name="Layer 1" xmlns="http://www.w3.org/2000/svg" viewBox="0 0 1349 1269.18" height="64" width="64"><defs><style>.cls-1{fill:#fe778c;}.cls-2{fill:#fea1b0;}.cls-3{fill:#fea097;}.cls-4{fill:#feb2ab;}.cls-5{fill:#fee0e4;}.cls-6{fill:#febdc7;}.cls-7{fill:#fed5d1;}.cls-8{fill:#fea0b0;}.cls-9{fill:#feb5ae;}.cls-10{fill:#feb1bc;}.cls-11{fill:#fe8d9f;}.cls-12{fill:#fedde2;}.cls-13{fill:#fec7d0;}.cls-14{fill:#fed5db;}.cls-15{fill:#fee6e4;}.cls-16{fill:#feccc8;}.cls-17{fill:#fe425e;}.cls-18{fill:#fe4937;}.cls-19{fill:#fe4165;}.cls-20{fill:#fe4a32;}.cls-21{fill:#fe483e;}.cls-22{fill:#fe4358;}.cls-23{fill:#fe435b;}.cls-24{fill:#fe483b;}.cls-25{fill:#fe4454;}.cls-26{fill:#fe454f;}.cls-27{fill:#fe4745;}.cls-28{fill:#fe4741;}.cls-29{fill:#fe4648;}.cls-30{fill:#fe4550;}.cls-31{fill:#fe4743;}.cls-32{fill:#fe483d;}.cls-33{fill:#fe454c;}.cls-34{fill:#fe4455;}.cls-35{fill:#fe4b2d;}.cls-36{fill:#fe4742;}.cls-37{fill:#fe4456;}.cls-38{fill:#fe4359;}.cls-39{fill:#fe464b;}.cls-40{fill:#fe483c;}.cls-41{fill:#fe4261;}.cls-42{fill:#fe464a;}.cls-43{fill:#fe4453;}.cls-44{fill:#fe4936;}.cls-45{fill:#fe4939;}.cls-46{fill:#fe406a;}.cls-47{fill:#fe454d;}.cls-48{fill:#fe483f;}.cls-49{fill:#fe4164;}.cls-50{fill:#fe4167;}.cls-51{fill:#fe406b;}</style></defs><title>Genuine_Gaming_2019</title><path class="cls-1" d="M1,436V409a7.11,7.11,0,0,0,.92-.06q0,13.55,0,27.1Z" transform="translate(-1 -1)"/><path class="cls-2" d="M404,1h26a7.87,7.87,0,0,0,0,.84L404,1.86C404,1.58,404,1.29,404,1Z" transform="translate(-1 -1)"/><path class="cls-3" d="M1350,837v20a7.69,7.69,0,0,1-.83,0q0-10,0-20.08Z" transform="translate(-1 -1)"/><path class="cls-4" d="M1349.17,857a7.69,7.69,0,0,0,.83,0v8l-.84,0C1349.16,862.38,1349.17,859.71,1349.17,857Z" transform="translate(-1 -1)"/><path class="cls-5" d="M444,1a7.86,7.86,0,0,0,0,.84l-7,0A5.56,5.56,0,0,1,437,1Z" transform="translate(-1 -1)"/><path class="cls-6" d="M437,1a5.56,5.56,0,0,0,.05.82l-7,0A7.87,7.87,0,0,1,430,1Z" transform="translate(-1 -1)"/><path class="cls-7" d="M1349.16,865.05l.84,0v7c-.28,0-.56,0-.84,0Z" transform="translate(-1 -1)"/><path class="cls-8" d="M1.91,408.94A6.84,6.84,0,0,1,1,409v-7a6,6,0,0,1,.85-.06Z" transform="translate(-1 -1)"/><path class="cls-9" d="M1350,837l-.85,0v-7c.29,0,.57,0,.85,0Z" transform="translate(-1 -1)"/><path class="cls-10" d="M1,449v-7a4.68,4.68,0,0,0,.84.07c0,2.32,0,4.65,0,7C1.56,449,1.28,449,1,449Z" transform="translate(-1 -1)"/><path class="cls-11" d="M1.84,442.07A4.68,4.68,0,0,1,1,442v-6l.92,0Q1.88,439.06,1.84,442.07Z" transform="translate(-1 -1)"/><path class="cls-12" d="M392,1.84q0-.42,0-.84h6c0,.28,0,.56,0,.83l-4,.35Z" transform="translate(-1 -1)"/><path class="cls-6" d="M398,1.83c0-.27,0-.55,0-.83h6c0,.29,0,.58,0,.86Z" transform="translate(-1 -1)"/><path class="cls-13" d="M1.85,401.94A6,6,0,0,0,1,402v-6a1.63,1.63,0,0,1,.82-.06Z" transform="translate(-1 -1)"/><path class="cls-14" d="M1,449c.28,0,.56,0,.83.05,0,1.66,0,3.33,0,5L1,454Z" transform="translate(-1 -1)"/><path class="cls-15" d="M1349.18,822a5.62,5.62,0,0,1,.82,0v4a5.76,5.76,0,0,0-.83,0C1349.17,824.64,1349.17,823.31,1349.18,822Z" transform="translate(-1 -1)"/><path class="cls-16" d="M1349.17,826a5.76,5.76,0,0,1,.83,0v4c-.28,0-.56,0-.85,0C1349.16,828.63,1349.16,827.3,1349.17,826Z" transform="translate(-1 -1)"/><path class="cls-17" d="M1.84,454c0-1.66,0-3.33,0-5,0-2.33,0-4.66,0-7q0-3,.08-6v-27.1q0-3.49-.07-7l0-6c.11-.65.21-1.29.32-1.94,2.19-1.4,4.71-2.47,6.52-4.26q24.15-23.89,48.1-48Q223.49,175,390.18,8.22c1.64-1.64,2.57-4,3.82-6l4-.35,6,0,26.08,0,7,0,7,0,29.18,2.07c-2,1.5-4.31,2.76-6.08,4.53Q237.28,238.17,7.49,468A29.72,29.72,0,0,1,3.11,471Q2.48,462.53,1.84,454Z" transform="translate(-1 -1)"/><path class="cls-18" d="M1349.17,826c0,1.33,0,2.66,0,4v7q0,10,0,20.08c0,2.67,0,5.34,0,8v7q-1,14-2.06,27.94c-1.88,1.35-4,2.46-5.59,4.08q-179.28,179.18-358.46,358.45c-1.61,1.61-2.72,3.72-4.07,5.59q-17.78.95-35.56,1.88c-2.47.12-4.95.13-7.42.2l-37-1.24a41.18,41.18,0,0,1,3.8-5.19q219.87-220,439.86-439.82c1.68-1.68,4.09-2.64,6.16-3.93.12.66.23,1.32.35,2Z" transform="translate(-1 -1)"/><path class="cls-19" d="M978,430.08a352.78,352.78,0,0,1,76,7.79,42.45,42.45,0,0,1-4,5.5q-86,86.11-172,172.18a43.33,43.33,0,0,0-4,5.48c-11.86,3.67-24.1,6.42-35.5,11.2-28,11.73-48.87,30.78-56.9,61.15-2.32,8.76-3,17.94-4.44,26.93-2.41-5.08-3.77,0-4.62.83q-83.86,83.57-167.49,167.37a29.62,29.62,0,0,0-3,4.37H564.89c7.34-9.65,14.24-18.73,21.15-27.79q71.57-93.84,143.15-187.67c.9-1.18,1.94-2.26,2.91-3.39,2.35-.9,5.34-1.16,7-2.78Q857.33,553.31,975.31,435.09C976.59,433.81,977.12,431.77,978,430.08Z" transform="translate(-1 -1)"/><path class="cls-20" d="M784.88,379c-1.3,2-2.46,4.22-3.93,6.14q-61.2,80.34-122.47,160.63c-.7.91-1.55,1.71-2.33,2.56-1.84.86-4.12,1.29-5.47,2.64Q508.29,693.14,366.07,835.5a44,44,0,0,0-4.09,5.58,345.9,345.9,0,0,1-70-8.26c1.21-2.3,1.94-5.08,3.69-6.84q84.93-85.18,170.07-170.14a53.59,53.59,0,0,1,6.24-4.7c12.6-3.53,25.61-6,37.71-10.8,37.75-14.88,60-42.14,63.47-83.36a42.8,42.8,0,0,0,5.15-3.84q84.87-84.76,169.64-169.63a31.82,31.82,0,0,0,3.07-4.36Z" transform="translate(-1 -1)"/><path class="cls-21" d="M1340.79,743q2.12,15,4.22,30a32.41,32.41,0,0,0-4.77,3.32Q1098.34,1018.14,856.51,1260c-1.24,1.23-2.35,2.58-3.69,4l4.15,1.78-49-7.78c1.6-2.44,2.83-5.26,4.85-7.28q91.65-91.86,183.43-183.6a41.2,41.2,0,0,0,3.74-5.07,142.83,142.83,0,0,0,43.31-34.17c.24-.27.48-.55.73-.82l.06-.09.88-1.07,0,0,1-1.14-.08.1c.35-.45.69-.91,1-1.36a.56.56,0,0,1,.36-.64l.77-.93h0l.92-1.14-.07.09,1-1.44a.43.43,0,0,1,.3-.55l.8-1,0,.05,1-1.35a.59.59,0,0,1,.33-.67l.76-1,0,0,.93-1.38a.55.55,0,0,1,.31-.64l.77-1.06-.06.07,1.14-1.88,0-.07.84-1.32a.63.63,0,0,1,.29-.7,52.77,52.77,0,0,0,5.41-4.16Q1196,870.54,1329.36,737.2c2.68-2.67,5.83-4.88,8.76-7.31h0l.78,3.08c.07.6.15,1.2.22,1.81.25,1.06.51,2.12.76,3.19.07.63.14,1.27.2,1.91Z" transform="translate(-1 -1)"/><path class="cls-22" d="M517.3,8.9l41,8c-2.07,1.19-4.53,2-6.16,3.64q-87,86.82-173.9,173.79a19.11,19.11,0,0,0-2.93,3.37c-.36.6,0,1.66.07,2.51-14.56,4.72-28.66,10.41-41.33,19.25-27.27,19-44,45.65-55.07,76.33-.9,2.48-1.91,4.91-2.87,7.37-2.52-4-3.68.11-4.66,1.09Q145.67,429.75,20.12,555.45c-1.35,1.35-2.18,3.21-3.25,4.83Q12.43,537.65,8,515a49.85,49.85,0,0,0,5.83-4.38Q262.63,261.92,511.4,13.17C513.1,11.48,515.32,10.31,517.3,8.9Z" transform="translate(-1 -1)"/><path class="cls-23" d="M517.3,8.9c-2,1.41-4.2,2.58-5.9,4.27Q262.58,261.87,13.81,510.62A49.85,49.85,0,0,1,8,515L3.9,479.35c-.24-2.1-.49-4.21-.73-6.31l-.06-2A29.72,29.72,0,0,0,7.49,468Q237.32,238.21,467.13,8.44c1.77-1.77,4-3,6.08-4.53l5.84.27,5.32.71Z" transform="translate(-1 -1)"/><path class="cls-24" d="M857,1265.84l-4.15-1.78c1.34-1.47,2.45-2.82,3.69-4q241.85-241.87,483.73-483.69A32.41,32.41,0,0,1,1345,773c.85,7.39,1.89,14.77,2.48,22.19.66,8.25.91,16.54,1.34,24.81-2.07,1.29-4.48,2.25-6.16,3.93q-220,219.84-439.86,439.82a41.18,41.18,0,0,0-3.8,5.19Z" transform="translate(-1 -1)"/><path class="cls-25" d="M16.87,560.28c1.07-1.62,1.9-3.48,3.25-4.83Q145.69,429.77,271.4,304.24c1-1,2.14-5.12,4.66-1.09a.91.91,0,0,1-.18.88l-.8,2.19c-3.13,14.75-6.76,29.41-9.25,44.26-2,11.92-2.64,24.06-3.88,36.11-.26,2.46-.56,4.92-.84,7.38a37.94,37.94,0,0,0-5.23,3.72q-108.55,108.44-217,217c-1.23,1.22-2,2.94-2.93,4.43A309.58,309.58,0,0,1,16.87,560.28Z" transform="translate(-1 -1)"/><path class="cls-26" d="M36,619.12c1-1.49,1.7-3.21,2.93-4.43q108.45-108.55,217-217a37.94,37.94,0,0,1,5.23-3.72q-.14,6.54-.29,13.08c-.28,4.73-.77,9.47-.76,14.21,0,5.23.49,10.47.76,15.7q.51,11.51,1,23c-1.89.79-4.25,1.09-5.59,2.43q-98.16,97.92-196.15,196c-1.16,1.17-2.14,2.52-3.2,3.79Z" transform="translate(-1 -1)"/><path class="cls-18" d="M472,651.14a53.59,53.59,0,0,0-6.24,4.7q-85.11,85-170.07,170.14c-1.75,1.76-2.48,4.54-3.69,6.84a316.8,316.8,0,0,1-63-19c.57-1.36.8-3,1.76-4q78.5-78.78,157.16-157.4c1-1,2.92-1.05,4.4-1.55,15,1,30,2.63,45.05,2.79C448.88,653.8,460.43,652.06,472,651.14Z" transform="translate(-1 -1)"/><path class="cls-27" d="M1311.85,645a.7.7,0,0,1,.22.77c.23.39.45.79.68,1.19l.27,1,.9,2a.46.46,0,0,1,.2.62l.7,1.37a.93.93,0,0,1,.23.89l.9,2.13a.36.36,0,0,1,.17.55l.71,1.43q5.54,16,11.08,32c-2.43,1.63-5.21,2.91-7.24,4.94q-116.16,116-232.2,232.07c-1.4,1.4-3,2.66-4.43,4q2.58-23.54,5.15-47,.36-5.12.73-10.23c.06-2.91.12-5.83.19-8.74a63,63,0,0,0,6.22-4.87Q1201.59,754,1306.78,648.77A43.28,43.28,0,0,1,1311.85,645Z" transform="translate(-1 -1)"/><path class="cls-28" d="M1084,930c1.48-1.33,3-2.59,4.43-4Q1204.55,810,1320.67,693.94c2-2,4.81-3.31,7.24-4.94q5.11,20.44,10.21,40.89c-2.93,2.43-6.08,4.64-8.76,7.31Q1196,870.49,1062.61,1003.84a52.77,52.77,0,0,1-5.41,4.16c13.27-23.82,21.48-49.37,26.16-76.14A10.65,10.65,0,0,1,1084,930Z" transform="translate(-1 -1)"/><path class="cls-29" d="M1311.85,645a43.28,43.28,0,0,0-5.07,3.77q-105.24,105.15-210.45,210.34a63,63,0,0,1-6.22,4.87q-.61-28.8-1.22-57.61c-.73-4.21,2.94-5.64,5.15-7.84q95.34-95.46,190.81-190.78c1.64-1.63,4-2.5,6.08-3.73Q1301.39,624.51,1311.85,645Z" transform="translate(-1 -1)"/><path class="cls-30" d="M607,32a241.65,241.65,0,0,1,53.4,26.78,40.79,40.79,0,0,0-3.46,2.81q-75.54,75.5-151,151.06a25.73,25.73,0,0,0-2.94,4.42c-16-11.37-33.8-18-53-21.21l-4.35-.74L444,195a40.12,40.12,0,0,1,3.77-5.2Q525.14,112.32,602.59,35A27.22,27.22,0,0,1,607,32Z" transform="translate(-1 -1)"/><path class="cls-31" d="M689.14,254.06c-18.78,7.13-37.55,14.31-56.35,21.39Q595,289.69,557.12,303.78c-1.38.52-2.82.89-4.78,1.51-.52-2.79-1-5.34-1.47-7.88,1.81-2.07,3.5-4.25,5.44-6.19Q640,207.46,723.78,123.78a39.52,39.52,0,0,1,5.08-3.73A303.44,303.44,0,0,1,766,175c-1.81,1-4,1.61-5.37,3q-34.9,34.67-69.6,69.53a20.2,20.2,0,0,0-3.27,4.33C687.53,252.22,688.64,253.31,689.14,254.06Z" transform="translate(-1 -1)"/><path class="cls-32" d="M484,539.94l-78-.15.09-2.81a48.42,48.42,0,0,0,5.53-4.16q74.14-74,148.19-148.19a48.48,48.48,0,0,0,4.16-5.51l78,0c-1.35,1.46-2.64,3-4,4.39Q563.79,457.72,489.65,532C487.38,534.23,485.87,537.26,484,539.94Z" transform="translate(-1 -1)"/><path class="cls-33" d="M1290.93,604c-2,1.23-4.44,2.1-6.08,3.73Q1189.36,703.06,1094,798.53c-2.21,2.2-5.88,3.63-5.15,7.84-1.27-10.46-2.41-21-3.86-31.39-1.16-8.33-2.69-16.6-4.06-24.89,1.85-2,3.63-4.16,5.57-6.11q86.54-86.57,173.14-173.05c1.75-1.75,4.31-2.68,6.49-4Z" transform="translate(-1 -1)"/><path class="cls-29" d="M269.86,521q4.65,16.49,9.29,33a28.55,28.55,0,0,0-2.72,2.15Q192,640.51,107.58,725a22.5,22.5,0,0,0-2.6,4.06l-23-28L81.13,700l-.08-.14a1.64,1.64,0,0,0-.64-.74l-.48-.86c-.3-.41-.61-.82-.92-1.22v0l-.76-.94a.62.62,0,0,1-.36-.67l-1-1.34,0,0c-.27-.34-.54-.69-.8-1l-.6-.85c1.64-1.39,3.39-2.67,4.9-4.18q80-80,160-160c6.83-6.83,13.57-13.75,20.56-20.41,1.45-1.38,3.83-1.78,5.78-2.63.1.9.19,1.8.28,2.71l.75,3.28.21,1.85c.26,1,.52,2.1.77,3.15l.24,1.84C269.33,518.87,269.6,519.92,269.86,521Z" transform="translate(-1 -1)"/><path class="cls-34" d="M607,32a27.22,27.22,0,0,0-4.41,3q-77.46,77.36-154.81,154.81A40.12,40.12,0,0,0,444,195l-41.66.13-4.31.72-2.9.22-4.1.79-1.91.2-3.09.76-1.93.24-3.08.81-1.68.27-2.32.72-1.7.36c0-.85-.43-1.91-.07-2.51a19.11,19.11,0,0,1,2.93-3.37q86.91-86.94,173.9-173.79c1.63-1.64,4.09-2.45,6.16-3.64l1.79.29,2.27.71,1.73.29,2.2.73Z" transform="translate(-1 -1)"/><path class="cls-29" d="M728.86,120.05a39.52,39.52,0,0,0-5.08,3.73Q640,207.45,556.31,291.22c-1.94,1.94-3.63,4.12-5.44,6.19L538,261l-1-2h0l-1-2h0l-1.06-2,0,0-.7-1a.92.92,0,0,1-.33-.85c-.24-.39-.49-.77-.74-1.16a.7.7,0,0,1-.31-.73c1.06-1.63,1.88-3.5,3.22-4.84Q614.18,168.27,692.36,90.2a32.76,32.76,0,0,1,4.8-3.33l-.09,0,1.25,1.07,1.76,1.5a1.65,1.65,0,0,0,.66.65l.21.18.85.82.16.14.87.86.13.11.92.88.09.08.94.9Z" transform="translate(-1 -1)"/><path class="cls-35" d="M362,841.08a44,44,0,0,1,4.09-5.58Q508.3,693.15,650.68,550.94c1.35-1.35,3.63-1.78,5.47-2.64a.78.78,0,0,1-.46.75l-.72.85-.05.08-.88,1.1,0-.05-1,1.26a.76.76,0,0,1-.46.77l-.68.79-.08.12-.86,1.08,0,0-1,1.24c-.16.27-.33.54-.5.81a1.66,1.66,0,0,0-.63.73l-.1.16L648,559h0l-.94,1.14.08-.1-1,1.39a.51.51,0,0,1-.37.6L645,563h0l-.92,1.14.07-.09c-.34.45-.68.89-1,1.34a.62.62,0,0,1-.4.67l-.74.88,0,.05c-.3.37-.6.75-.91,1.12l.06-.07-1,1.29a.73.73,0,0,1-.44.74c-.24.27-.47.55-.71.83l-.05.08-.88,1.1,0-.05-1,1.26a.8.8,0,0,1-.47.79l-.67.77-.08.12L635,576l0,0-1,1.23-1.29,1.8-.79,1h0l-.93,1.14.07-.09c-.34.46-.67.92-1,1.37a.54.54,0,0,1-.38.62L629,584l0,0-.92,1.13.07-.08-1,1.32a.66.66,0,0,1-.41.69l-.74.87,0,.06-.89,1.11.05-.06-1,1.28a.72.72,0,0,1-.45.75l-.69.81-.06.1-.87,1.09,0,0-1,1.25a.82.82,0,0,1-.49.8l-.65.75-.09.14L619,597l0,0-.95,1.15.08-.1-1,1.4a.49.49,0,0,1-.35.58l-.78,1h0l-.93,1.14.08-.09-1,1.35a.59.59,0,0,1-.38.65l-.76.9,0,0c-.3.37-.61.74-.91,1.12l.06-.07-1,1.3a.67.67,0,0,1-.42.71l-.72.86-.05.07-.88,1.1,0-.05-1,1.27a.76.76,0,0,1-.46.76c-.23.27-.46.53-.68.8l-.07.11-.87,1.08,0,0-1,1.24a.86.86,0,0,1-.5.81,1.67,1.67,0,0,0-.64.73l-.1.16L603,618h0l-.94,1.14.08-.1-1,1.4a.5.5,0,0,1-.36.59L600,622q-23.52,31-47,62.1Q495.71,759.21,438.28,834.2a11,11,0,0,1-6.71,4c-11.73,1.27-23.52,2-35.3,2.93H362.74l-.38.16Z" transform="translate(-1 -1)"/><path class="cls-36" d="M1000,1062.11a41.2,41.2,0,0,1-3.74,5.07q-91.71,91.82-183.43,183.6c-2,2-3.25,4.84-4.85,7.28l-34-8.24-2.09-.77-.47,0-.43-.21-2.24-.77-1.78-.36-1.33-.62-1.66-.35-1.41-.64-1.59-.34-1.19-.62,0,.09a42.86,42.86,0,0,1,4-5.52q76.29-76.4,152.63-152.73c5-5,9.3-10.93,17.71-9.29.22,0,.53-.35.8-.54C957.54,1076,979.35,1071.55,1000,1062.11Z" transform="translate(-1 -1)"/><path class="cls-27" d="M935,1077.18c-.27.19-.58.58-.8.54-8.41-1.64-12.74,4.31-17.71,9.29q-76.29,76.4-152.63,152.73a42.86,42.86,0,0,0-4,5.52L715,1226.79l-1.1-.72,0,0a61.88,61.88,0,0,1,4.82-6.26q74-74.14,148.17-148.2c1.4-1.4,3-2.56,4.53-3.84C891.91,1075.58,913.23,1077.79,935,1077.18Z" transform="translate(-1 -1)"/><path class="cls-37" d="M1051.91,678.19a160.76,160.76,0,0,0-31-32.05c1.08-1.94,1.79-4.26,3.3-5.78q75-75.21,150.19-150.23c1.35-1.35,3.21-2.17,4.83-3.23l36.83,27c-1,.85-2.1,1.64-3,2.57q-79.17,79.14-158.31,158.31C1053.72,675.81,1052.86,677,1051.91,678.19Z" transform="translate(-1 -1)"/><path class="cls-38" d="M945,732a34.5,34.5,0,0,1,.53,4.37q.06,76,0,152a32.06,32.06,0,0,1-.58,4.31q-.07-38.77-.16-77.55V736.81c-2.88,2.41-5.14,4-7.08,6Q867,813.43,796.4,884.16c-2.68,2.69-4.93,5.8-7.38,8.72H725a41.18,41.18,0,0,1,3.76-5.08Q803.43,813,878.15,738.29A62.1,62.1,0,0,0,883,732Z" transform="translate(-1 -1)"/><path class="cls-17" d="M883,732a62.1,62.1,0,0,1-4.86,6.25Q803.48,813.07,728.76,887.8a41.18,41.18,0,0,0-3.76,5.08H660a41.45,41.45,0,0,1,3.76-5.08Q739,812.46,814.3,737.14A39.54,39.54,0,0,0,818,732Z" transform="translate(-1 -1)"/><path class="cls-23" d="M1179.27,486.9c-1.62,1.06-3.48,1.88-4.83,3.23q-75.17,75-150.19,150.23c-1.51,1.52-2.22,3.84-3.3,5.78A161.4,161.4,0,0,0,976,624.78a44.21,44.21,0,0,1,3.81-5q75.93-76,151.95-152c1.4-1.4,3-2.6,4.51-3.89Z" transform="translate(-1 -1)"/><path class="cls-39" d="M697.16,86.87a32.76,32.76,0,0,0-4.8,3.33q-78.18,78.07-156.25,156.26c-1.34,1.34-2.16,3.21-3.22,4.84-8.19-13-17.84-24.66-29.91-34.23a25.73,25.73,0,0,1,2.94-4.42q75.46-75.59,151-151.06a40.79,40.79,0,0,1,3.46-2.81Z" transform="translate(-1 -1)"/><path class="cls-40" d="M392.3,650.9c-1.48.5-3.41.56-4.4,1.55q-78.67,78.6-157.16,157.4c-1,1-1.19,2.66-1.76,4l-44-21.08a43.09,43.09,0,0,1,3.79-5q74.93-75,149.92-150c1.4-1.39,3-2.6,4.49-3.9C358.73,642,375.25,647.22,392.3,650.9Z" transform="translate(-1 -1)"/><path class="cls-41" d="M874,621a43.33,43.33,0,0,1,4-5.48q86-86.11,172-172.18a42.45,42.45,0,0,0,4-5.5l46,11.94c-1.31,1.84-2.38,3.93-4,5.51q-78.66,78.77-157.37,157.49a41.27,41.27,0,0,0-3.75,5.07l-38.74.2-5.21.72-4.73.3-4.29.75-2.74.25-3.25.73Z" transform="translate(-1 -1)"/><path class="cls-42" d="M871.4,1067.82c-1.51,1.28-3.13,2.44-4.53,3.84q-74.11,74.07-148.17,148.2a61.88,61.88,0,0,0-4.82,6.26l-31.91-19-1.39-1a.53.53,0,0,1-.62-.33c-.33-.26-.66-.52-1-.77h0l-1.27-.94a.82.82,0,0,1-.79-.44l-.82-.68-.09-.06-1.12-.87.07,0-1.19-1v.08c.74-.9,1.4-1.86,2.22-2.68q76.95-77,154-153.91a22.45,22.45,0,0,1,4-2.61h0l1,1,0,0c.32.32.64.65,1,1l0,0,1,1,0,0,1,1,0,0,1,1h0l1,1,0,0,1.1,1Z" transform="translate(-1 -1)"/><path class="cls-43" d="M624,1153.93l-27-37c1.32-1.48,2.58-3,4-4.43q53.7-53.74,107.37-107.49c1.91-1.92,3.1-4.57,4.62-6.88L790.22,969c2.6-1,5.22-1.91,8.25-3,.9,4.28,1.7,8.13,2.5,12a60.42,60.42,0,0,0-6.25,4.83q-83.57,83.46-167.06,167C626.38,1151.14,625.23,1152.57,624,1153.93Z" transform="translate(-1 -1)"/><path class="cls-33" d="M266.82,505c-1.95.85-4.33,1.25-5.78,2.63-7,6.66-13.73,13.58-20.56,20.41q-80,80-160,160c-1.51,1.51-3.26,2.79-4.9,4.18L62,671l-.7-1a.89.89,0,0,1-.37-.84L60.15,668a.54.54,0,0,1-.27-.63L59,666v0c-.37-.65-.73-1.3-1.1-1.94l0,.05-.73-1a.89.89,0,0,1-.34-.82c1.06-1.27,2-2.62,3.2-3.79q98-98.05,196.15-196c1.34-1.34,3.7-1.64,5.59-2.43.08,2.26.17,4.52.25,6.78q.38,3.11.74,6.21Q264.83,489,266.82,505Z" transform="translate(-1 -1)"/><path class="cls-44" d="M751,379.15a31.82,31.82,0,0,1-3.07,4.36Q663.16,468.37,578.3,553.14a42.8,42.8,0,0,1-5.15,3.84v-17H534a40.47,40.47,0,0,1,3.71-5.09Q613,459.51,688.23,384.21a42.53,42.53,0,0,0,3.78-5.07Z" transform="translate(-1 -1)"/><path class="cls-41" d="M818,732a39.54,39.54,0,0,1-3.7,5.1Q739,812.5,663.76,887.8a41.45,41.45,0,0,0-3.76,5.08H602a29.62,29.62,0,0,1,3-4.37q83.66-83.76,167.49-167.37c.85-.84,2.21-5.91,4.62-.83l-.09,10.23c1.6.49,3.19,1.38,4.8,1.4C793.91,732.07,806,732,818,732Z" transform="translate(-1 -1)"/><path class="cls-30" d="M1266.17,566.93c-2.18,1.32-4.74,2.25-6.49,4Q1173,657.38,1086.54,744c-1.94,1.95-3.72,4.07-5.57,6.11l-12.08-39.8c1.3-1.86,2.35-4,3.93-5.54q82.1-82.23,164.29-164.35c1.17-1.17,2.47-2.21,3.7-3.32Z" transform="translate(-1 -1)"/><path class="cls-37" d="M789,892.88c2.45-2.92,4.7-6,7.38-8.72Q867,813.42,937.76,742.79c1.94-1.94,4.2-3.57,7.08-6v78.28a48.23,48.23,0,0,0-5.52,4.15q-34.12,34-68.13,68.13a48.55,48.55,0,0,0-4.17,5.51Z" transform="translate(-1 -1)"/><path class="cls-30" d="M624,1153.93c1.2-1.36,2.35-2.79,3.63-4.07q83.51-83.53,167.06-167A60.42,60.42,0,0,1,801,978q6.54,17.47,13.06,35a44.77,44.77,0,0,0-5.47,4q-78.55,78.43-157,157c-1.52,1.51-3.25,2.81-4.87,4.21Z" transform="translate(-1 -1)"/><path class="cls-45" d="M692,379.14a42.53,42.53,0,0,1-3.78,5.07Q613,459.56,537.71,534.85a40.47,40.47,0,0,0-3.71,5.09H484c1.87-2.68,3.38-5.71,5.65-8Q563.73,457.67,638,383.53c1.41-1.41,2.7-2.93,4-4.4Z" transform="translate(-1 -1)"/><path class="cls-46" d="M978,430.08c-.88,1.69-1.41,3.73-2.69,5q-118,118.19-236.24,236.16c-1.63,1.62-4.62,1.88-7,2.78,16.07-21.22,32.08-42.49,48.22-63.66Q845.42,525,910.48,439.54c3.47-4.58,7.08-6.73,12.73-6.93C941.48,432,959.74,431,978,430.08Z" transform="translate(-1 -1)"/><path class="cls-43" d="M1240.81,537.08c-1.23,1.11-2.53,2.15-3.7,3.32q-82.17,82.15-164.29,164.35c-1.58,1.58-2.63,3.68-3.93,5.54L1058,687.92c-.37-.63-.74-1.26-1.1-1.9l0,.06c-.25-.35-.49-.7-.74-1a.71.71,0,0,1-.32-.74L1055,683l0,0c-.23-.3-.46-.59-.68-.89a.9.9,0,0,1-.4-.85l-.86-1.24,0-.09-.66-.81-.47-.88c.95-1.15,1.81-2.38,2.85-3.43q79.14-79.17,158.31-158.31c.93-.93,2-1.72,3-2.57H1216l1.25,1,1.77,1.4.78.73.12.11,1,.87,0,0,1,.93h0l1.07,1,0-.05,1.15,1Z" transform="translate(-1 -1)"/><path class="cls-27" d="M105,729.05a22.5,22.5,0,0,1,2.6-4.06q84.38-84.5,168.85-168.9a28.55,28.55,0,0,1,2.72-2.15q7.47,16,15,31.92c-1.13,1-2.33,1.88-3.38,2.93q-80.07,80-160.09,160.09c-.94.94-1.74,2-2.6,3Z" transform="translate(-1 -1)"/><path class="cls-47" d="M646.65,1178.16c1.62-1.4,3.35-2.7,4.87-4.21q78.53-78.46,157-157a44.77,44.77,0,0,1,5.47-4h0l1,2,0,0,.68,1a1,1,0,0,1,.35.9l.72,1.11a.78.78,0,0,1,.31.79c.26.41.52.81.77,1.22a.49.49,0,0,1,.27.61L819,1022l15,20a22.45,22.45,0,0,0-4,2.61q-77,76.92-154,153.91c-.82.82-1.48,1.78-2.22,2.68Q664.9,1194,656,1186.85l-1-.87,0,0-1-.94h0l-1.06-1,0,0-1.08-1,.07.06-1.11-1,.09.08-1.12-1.06.11.09-1.24-1.08Z" transform="translate(-1 -1)"/><path class="cls-17" d="M935,617.88a41.27,41.27,0,0,1,3.75-5.07q78.66-78.76,157.37-157.49c1.57-1.58,2.64-3.67,4-5.51l36.21,14.06c-1.51,1.29-3.11,2.49-4.51,3.89q-76,76-151.95,152a44.21,44.21,0,0,0-3.81,5Z" transform="translate(-1 -1)"/><path class="cls-36" d="M128,751.89c.86-1,1.66-2.07,2.6-3q80-80.05,160.09-160.09c1-1,2.25-1.95,3.38-2.93h0l.78,1.11a.48.48,0,0,1,.27.6l.93,1.41,0,0,.75,1a.64.64,0,0,1,.33.71L298,592h0l.75,1a.62.62,0,0,1,.35.68l1,1.34,15.15,17.92a27.39,27.39,0,0,0-2.73,2.14q-76.64,76.58-153.17,153.25c-1.55,1.55-2.27,3.92-3.38,5.9L136,758.83l-1-.85,0,0L134,757l0,0-1.1-1,.08.07-1.24-1-1.79-1.48a1.71,1.71,0,0,0-.7-.66l-.18-.15-.92-.84Z" transform="translate(-1 -1)"/><path class="cls-48" d="M155.94,774.19c1.11-2,1.83-4.35,3.38-5.9Q235.82,691.58,312.49,615a27.39,27.39,0,0,1,2.73-2.14l28,21c-1.5,1.3-3.09,2.51-4.49,3.9q-75,75-149.92,150a43.09,43.09,0,0,0-3.79,5Z" transform="translate(-1 -1)"/><path class="cls-22" d="M713,998.14c-1.52,2.31-2.71,5-4.62,6.88Q654.77,1058.84,601,1112.51c-1.4,1.4-2.66,3-4,4.43-13.31-19.61-23.52-40.85-33.31-62.74a26.13,26.13,0,0,1,3-1.62q72.39-27.12,144.79-54.17A8.45,8.45,0,0,1,713,998.14Z" transform="translate(-1 -1)"/><path class="cls-27" d="M692,379.14H564c-20.3,0-40.61-.12-60.91,0a7.3,7.3,0,0,0-4.62,2q-45.3,45.09-90.39,90.38a7.31,7.31,0,0,0-2,4.62c-.1,20.31,0,40.61,0,60.92l-.09,2.81a14.1,14.1,0,0,1-.76-3.16q-.06-77.5,0-155c0-.83.12-1.65.23-3.06,1.6-.1,3.19-.29,4.78-.29q185.74,0,371.48-.05c1,0,2,0,3,.08.12,0,.34.12.35.19a1.23,1.23,0,0,1-.17.46l-33.87.18Z" transform="translate(-1 -1)"/><path class="cls-30" d="M867,892.88a48.55,48.55,0,0,1,4.17-5.51q34-34.14,68.13-68.13a48.23,48.23,0,0,1,5.52-4.15q.07,38.77.16,77.55c-2.79.14-5.59.41-8.38.41Q901.82,893,867,892.88Z" transform="translate(-1 -1)"/><path class="cls-32" d="M689.14,254.06c-.5-.75-1.61-1.84-1.41-2.19a20.2,20.2,0,0,1,3.27-4.33q34.74-34.81,69.6-69.53c1.4-1.39,3.56-2,5.37-3,7.23,13.94,14.46,27.89,22,42.38-6.28,2.39-11.63,4.46-17,6.48q-30.49,11.41-61,22.78c-1.54.57-3.15.95-4.73,1.41l-2.16.87-.29.22-.36,0-1.32.66-1,.23-2,.84-.4.23h-.47l-2.14.86-.31.22-.38,0-1.29.65-1,.24-2,.84-.41.23Z" transform="translate(-1 -1)"/><path class="cls-19" d="M818,732c-12,0-24.09,0-36.13-.1-1.61,0-3.2-.91-4.8-1.4,2.14.19,4.27.54,6.41.54q78,0,155.93,0A36.48,36.48,0,0,1,945,732L883,732Z" transform="translate(-1 -1)"/><path class="cls-20" d="M362.74,841.08h0Z" transform="translate(-1 -1)"/><path class="cls-25" d="M260.82,437c-.27-5.23-.75-10.47-.76-15.7,0-4.74.48-9.48.76-14.21Z" transform="translate(-1 -1)"/><path class="cls-29" d="M1089.92,872.72q-.37,5.12-.73,10.23Q1089.55,877.83,1089.92,872.72Z" transform="translate(-1 -1)"/><path class="cls-26" d="M262.82,473q-.36-3.1-.74-6.21Q262.46,469.86,262.82,473Z" transform="translate(-1 -1)"/><path class="cls-17" d="M3.17,473c.24,2.1.49,4.21.73,6.31C3.65,477.25,3.41,475.14,3.17,473Z" transform="translate(-1 -1)"/><path class="cls-17" d="M484.37,4.89l-5.32-.71Z" transform="translate(-1 -1)"/><path class="cls-19" d="M891.05,618.8l5.21-.72Z" transform="translate(-1 -1)"/><path class="cls-22" d="M398,195.83l4.31-.72Z" transform="translate(-1 -1)"/><path class="cls-34" d="M445.61,195.12l4.35.74Z" transform="translate(-1 -1)"/><path class="cls-19" d="M882,619.85l4.29-.75Z" transform="translate(-1 -1)"/><path class="cls-22" d="M391,196.84l4.1-.79Z" transform="translate(-1 -1)"/><path class="cls-33" d="M269.86,521c-.26-1.05-.53-2.1-.79-3.16C269.33,518.86,269.6,519.92,269.86,521Z" transform="translate(-1 -1)"/><path class="cls-33" d="M267.85,511l-.75-3.28Z" transform="translate(-1 -1)"/><path class="cls-22" d="M381,198.85l3.08-.81Z" transform="translate(-1 -1)"/><path class="cls-28" d="M1338.86,733l-.78-3.08Z" transform="translate(-1 -1)"/><path class="cls-28" d="M1339.84,738c-.25-1.07-.51-2.13-.76-3.19C1339.33,735.84,1339.59,736.9,1339.84,738Z" transform="translate(-1 -1)"/><path class="cls-33" d="M268.83,516c-.25-1.05-.51-2.1-.77-3.15C268.32,513.87,268.58,514.92,268.83,516Z" transform="translate(-1 -1)"/><path class="cls-22" d="M386,197.8l3.09-.76Z" transform="translate(-1 -1)"/><path class="cls-19" d="M876,620.83l3.25-.73Z" transform="translate(-1 -1)"/><path class="cls-28" d="M1340.79,743l-.75-3.08Z" transform="translate(-1 -1)"/><path class="cls-22" d="M562.31,17.89,560,17.18Z" transform="translate(-1 -1)"/><path class="cls-22" d="M566.24,18.91l-2.2-.73Z" transform="translate(-1 -1)"/><path class="cls-22" d="M377,199.84l2.32-.72Z" transform="translate(-1 -1)"/><path class="cls-26" d="M57.92,664c.37.64.73,1.29,1.1,1.94Z" transform="translate(-1 -1)"/><path class="cls-37" d="M1056.93,686c.36.64.73,1.27,1.1,1.9C1057.66,687.29,1057.29,686.66,1056.93,686Z" transform="translate(-1 -1)"/><path class="cls-29" d="M1313.92,650l-.9-2Z" transform="translate(-1 -1)"/><path class="cls-31" d="M703,248.93l2.16-.87Z" transform="translate(-1 -1)"/><path class="cls-31" d="M698,250.84l2-.84Z" transform="translate(-1 -1)"/><path class="cls-31" d="M695,251.92l2.14-.86Z" transform="translate(-1 -1)"/><path class="cls-29" d="M1316,655l-.9-2.13Z" transform="translate(-1 -1)"/><path class="cls-31" d="M690,253.84l2-.84Z" transform="translate(-1 -1)"/><path class="cls-39" d="M534.94,255l1.06,2Z" transform="translate(-1 -1)"/><path class="cls-39" d="M536,257l1,2Z" transform="translate(-1 -1)"/><path class="cls-39" d="M537,259l1,2Z" transform="translate(-1 -1)"/><path class="cls-28" d="M1056,1010.09l-1.14,1.88Z" transform="translate(-1 -1)"/><path class="cls-30" d="M815,1015l-1-2Z" transform="translate(-1 -1)"/><path class="cls-22" d="M275.08,306.22l.8-2.19Z" transform="translate(-1 -1)"/><path class="cls-27" d="M768.73,1248.1l2.24.77Z" transform="translate(-1 -1)"/><path class="cls-27" d="M771.87,1249.05l2.09.77Z" transform="translate(-1 -1)"/><path class="cls-20" d="M647.07,560.15,648,559Z" transform="translate(-1 -1)"/><path class="cls-20" d="M646.13,561.44l1-1.39Z" transform="translate(-1 -1)"/><path class="cls-20" d="M645,563l.77-.94Z" transform="translate(-1 -1)"/><path class="cls-20" d="M644.06,564.13,645,563Z" transform="translate(-1 -1)"/><path class="cls-20" d="M643.12,565.38c.33-.45.67-.89,1-1.34Z" transform="translate(-1 -1)"/><path class="cls-20" d="M642,566.93l.74-.88Z" transform="translate(-1 -1)"/><path class="cls-20" d="M641,568.1c.31-.37.61-.75.91-1.12Z" transform="translate(-1 -1)"/><path class="cls-20" d="M640.11,569.32l1-1.29Z" transform="translate(-1 -1)"/><path class="cls-20" d="M639,570.89c.24-.28.47-.56.71-.83C639.43,570.33,639.2,570.61,639,570.89Z" transform="translate(-1 -1)"/><path class="cls-20" d="M637.09,573.28l1-1.26Z" transform="translate(-1 -1)"/><path class="cls-20" d="M636,574.84l.67-.77Z" transform="translate(-1 -1)"/><path class="cls-20" d="M611.11,607.34l1-1.3Z" transform="translate(-1 -1)"/><path class="cls-20" d="M606,614.05l.87-1.08Z" transform="translate(-1 -1)"/><path class="cls-20" d="M605.09,615.26l1-1.24Z" transform="translate(-1 -1)"/><path class="cls-20" d="M604,616.8a1.67,1.67,0,0,1,.64-.73Z" transform="translate(-1 -1)"/><path class="cls-20" d="M603,618l.84-1.06Z" transform="translate(-1 -1)"/><path class="cls-20" d="M602.08,619.15,603,618Z" transform="translate(-1 -1)"/><path class="cls-20" d="M609,610.08l.88-1.1Z" transform="translate(-1 -1)"/><path class="cls-20" d="M612.05,606.11c.3-.38.61-.75.91-1.12C612.66,605.36,612.35,605.73,612.05,606.11Z" transform="translate(-1 -1)"/><path class="cls-20" d="M601.13,620.45l1-1.4Z" transform="translate(-1 -1)"/><path class="cls-20" d="M600,622l.78-.94Z" transform="translate(-1 -1)"/><path class="cls-20" d="M613,605l.76-.9Z" transform="translate(-1 -1)"/><path class="cls-20" d="M614.12,603.4l1-1.35Z" transform="translate(-1 -1)"/><path class="cls-29" d="M1312.75,647c-.23-.4-.45-.8-.68-1.19C1312.3,646.16,1312.52,646.56,1312.75,647Z" transform="translate(-1 -1)"/><path class="cls-20" d="M615.06,602.14,616,601Z" transform="translate(-1 -1)"/><path class="cls-29" d="M1314.82,652l-.7-1.37Z" transform="translate(-1 -1)"/><path class="cls-29" d="M1316.83,657l-.71-1.43Z" transform="translate(-1 -1)"/><path class="cls-26" d="M57.23,663l.73,1Z" transform="translate(-1 -1)"/><path class="cls-26" d="M59,666l.85,1.41Z" transform="translate(-1 -1)"/><path class="cls-26" d="M60.15,668l.78,1.18Z" transform="translate(-1 -1)"/><path class="cls-26" d="M61.3,670.05l.7,1Z" transform="translate(-1 -1)"/><path class="cls-37" d="M1052.38,679.07l.66.81Z" transform="translate(-1 -1)"/><path class="cls-37" d="M1053.08,680l.86,1.24Z" transform="translate(-1 -1)"/><path class="cls-37" d="M1054.34,682.06c.22.3.45.59.68.89C1054.79,682.65,1054.56,682.36,1054.34,682.06Z" transform="translate(-1 -1)"/><path class="cls-37" d="M1055,683l.87,1.31Z" transform="translate(-1 -1)"/><path class="cls-37" d="M1056.23,685c.25.34.49.69.74,1C1056.72,685.73,1056.48,685.38,1056.23,685Z" transform="translate(-1 -1)"/><path class="cls-20" d="M610,608.91l.72-.86Z" transform="translate(-1 -1)"/><path class="cls-33" d="M76.17,693c.26.35.53.7.8,1C76.7,693.73,76.43,693.38,76.17,693Z" transform="translate(-1 -1)"/><path class="cls-33" d="M76.93,694l1,1.34Z" transform="translate(-1 -1)"/><path class="cls-33" d="M78.25,696,79,697C78.76,696.67,78.5,696.36,78.25,696Z" transform="translate(-1 -1)"/><path class="cls-33" d="M79,697c.31.4.62.81.92,1.22C79.63,697.81,79.32,697.4,79,697Z" transform="translate(-1 -1)"/><path class="cls-33" d="M80.41,699.08a1.64,1.64,0,0,1,.64.74C80.84,699.57,80.63,699.32,80.41,699.08Z" transform="translate(-1 -1)"/><path class="cls-33" d="M81.13,700l.85,1.11Z" transform="translate(-1 -1)"/><path class="cls-20" d="M616,601l.78-1Z" transform="translate(-1 -1)"/><path class="cls-20" d="M617.13,599.46l1-1.4Z" transform="translate(-1 -1)"/><path class="cls-39" d="M698.32,87.9l-1.25-1.07Z" transform="translate(-1 -1)"/><path class="cls-20" d="M618.08,598.16,619,597Z" transform="translate(-1 -1)"/><path class="cls-20" d="M619,597l.85-1.07Z" transform="translate(-1 -1)"/><path class="cls-20" d="M620,595.82l.65-.75Z" transform="translate(-1 -1)"/><path class="cls-39" d="M700.74,90.05a1.65,1.65,0,0,1-.66-.65Z" transform="translate(-1 -1)"/><path class="cls-27" d="M300.07,595l-1-1.34Z" transform="translate(-1 -1)"/><path class="cls-39" d="M701.8,91.05l-.85-.82Z" transform="translate(-1 -1)"/><path class="cls-27" d="M128.13,752l.92.84Z" transform="translate(-1 -1)"/><path class="cls-27" d="M129.23,753a1.71,1.71,0,0,1,.7.66Z" transform="translate(-1 -1)"/><path class="cls-27" d="M131.72,755.09l1.24,1Z" transform="translate(-1 -1)"/><path class="cls-27" d="M132.88,756.05l1.1,1Z" transform="translate(-1 -1)"/><path class="cls-27" d="M134,757,135,758Z" transform="translate(-1 -1)"/><path class="cls-27" d="M135.05,758l1,.85Z" transform="translate(-1 -1)"/><path class="cls-20" d="M621.09,594.27l1-1.25Z" transform="translate(-1 -1)"/><path class="cls-20" d="M622,593.06l.87-1.09Z" transform="translate(-1 -1)"/><path class="cls-27" d="M298.76,593l-.75-1Z" transform="translate(-1 -1)"/><path class="cls-39" d="M702.83,92.05l-.87-.86Z" transform="translate(-1 -1)"/><path class="cls-39" d="M703.88,93l-.92-.88Z" transform="translate(-1 -1)"/><path class="cls-20" d="M623,591.87l.69-.81Z" transform="translate(-1 -1)"/><path class="cls-27" d="M298,592l-.92-1.32Z" transform="translate(-1 -1)"/><path class="cls-20" d="M624.1,590.31l1-1.28Z" transform="translate(-1 -1)"/><path class="cls-27" d="M296.77,590l-.75-1Z" transform="translate(-1 -1)"/><path class="cls-20" d="M625,589.09l.89-1.11Z" transform="translate(-1 -1)"/><path class="cls-27" d="M296.05,589l-.93-1.41Z" transform="translate(-1 -1)"/><path class="cls-20" d="M626,587.92l.74-.87Z" transform="translate(-1 -1)"/><path class="cls-27" d="M294.85,587l-.78-1.11Z" transform="translate(-1 -1)"/><path class="cls-20" d="M608.1,611.3l1-1.27Z" transform="translate(-1 -1)"/><path class="cls-20" d="M607,612.86c.22-.27.45-.53.68-.8C607.41,612.33,607.18,612.59,607,612.86Z" transform="translate(-1 -1)"/><path class="cls-20" d="M627.12,586.36l1-1.32Z" transform="translate(-1 -1)"/><path class="cls-20" d="M628.05,585.12,629,584Z" transform="translate(-1 -1)"/><path class="cls-20" d="M629,584l.76-.93Z" transform="translate(-1 -1)"/><path class="cls-20" d="M630.13,582.42c.34-.45.67-.91,1-1.37C630.8,581.51,630.47,582,630.13,582.42Z" transform="translate(-1 -1)"/><path class="cls-39" d="M704.91,94l-.94-.9Z" transform="translate(-1 -1)"/><path class="cls-31" d="M701,249.77l1.32-.66Z" transform="translate(-1 -1)"/><path class="cls-39" d="M533.2,252c.25.39.5.77.74,1.16C533.7,252.8,533.45,252.42,533.2,252Z" transform="translate(-1 -1)"/><path class="cls-28" d="M1056.91,1008.7l-.84,1.32Z" transform="translate(-1 -1)"/><path class="cls-31" d="M693,252.76l1.29-.65Z" transform="translate(-1 -1)"/><path class="cls-39" d="M534.27,254l.7,1Z" transform="translate(-1 -1)"/><path class="cls-28" d="M1055,1011.9l-.77,1.06Z" transform="translate(-1 -1)"/><path class="cls-20" d="M631.07,581.14,632,580Z" transform="translate(-1 -1)"/><path class="cls-37" d="M1217.29,514.91l-1.25-1Z" transform="translate(-1 -1)"/><path class="cls-28" d="M1053.88,1013.6,1053,1015Z" transform="translate(-1 -1)"/><path class="cls-37" d="M1219.84,517l-.78-.73Z" transform="translate(-1 -1)"/><path class="cls-30" d="M815.7,1016l-.68-1Z" transform="translate(-1 -1)"/><path class="cls-28" d="M1053,1015l-.76,1Z" transform="translate(-1 -1)"/><path class="cls-30" d="M816.77,1018l-.72-1.11Z" transform="translate(-1 -1)"/><path class="cls-28" d="M1051.89,1016.63l-1,1.35Z" transform="translate(-1 -1)"/><path class="cls-37" d="M1220.93,518l-1-.87Z" transform="translate(-1 -1)"/><path class="cls-28" d="M1051,1017.93l-.8,1Z" transform="translate(-1 -1)"/><path class="cls-30" d="M817.85,1020c-.25-.41-.51-.81-.77-1.22C817.34,1019.16,817.6,1019.56,817.85,1020Z" transform="translate(-1 -1)"/><path class="cls-28" d="M1049.87,1019.52l-1,1.44Z" transform="translate(-1 -1)"/><path class="cls-37" d="M1222,519l-1-.93Z" transform="translate(-1 -1)"/><path class="cls-30" d="M819,1022l-.89-1.42Z" transform="translate(-1 -1)"/><path class="cls-28" d="M1048.94,1020.87,1048,1022Z" transform="translate(-1 -1)"/><path class="cls-28" d="M1048,1022l-.77.93Z" transform="translate(-1 -1)"/><path class="cls-28" d="M1046.88,1023.59c-.34.45-.68.91-1,1.36Z" transform="translate(-1 -1)"/><path class="cls-28" d="M1045.93,1024.85l-1,1.14Z" transform="translate(-1 -1)"/><path class="cls-28" d="M1045,1026l-.88,1.07Z" transform="translate(-1 -1)"/><path class="cls-28" d="M1044,1027.12c-.25.27-.49.55-.73.82C1043.55,1027.67,1043.79,1027.39,1044,1027.12Z" transform="translate(-1 -1)"/><path class="cls-20" d="M632,580l.79-1Z" transform="translate(-1 -1)"/><path class="cls-47" d="M835,1043l-1-1Z" transform="translate(-1 -1)"/><path class="cls-20" d="M638,572.07l.88-1.1Z" transform="translate(-1 -1)"/><path class="cls-47" d="M836.94,1045l-1-1Z" transform="translate(-1 -1)"/><path class="cls-47" d="M838,1046l-1-1Z" transform="translate(-1 -1)"/><path class="cls-47" d="M839,1047l-1-1Z" transform="translate(-1 -1)"/><path class="cls-47" d="M840,1048l-1-1Z" transform="translate(-1 -1)"/><path class="cls-47" d="M841.11,1049l-1.1-1Z" transform="translate(-1 -1)"/><path class="cls-20" d="M634.08,577.24l1-1.23Z" transform="translate(-1 -1)"/><path class="cls-20" d="M635,576l.85-1.08Z" transform="translate(-1 -1)"/><path class="cls-30" d="M648.69,1180.1l1.24,1.08Z" transform="translate(-1 -1)"/><path class="cls-30" d="M649.82,1181.09l1.12,1.06Z" transform="translate(-1 -1)"/><path class="cls-30" d="M650.85,1182.07l1.11,1Z" transform="translate(-1 -1)"/><path class="cls-30" d="M651.89,1183.05l1.08,1Z" transform="translate(-1 -1)"/><path class="cls-30" d="M652.93,1184l1.06,1Z" transform="translate(-1 -1)"/><path class="cls-30" d="M654,1185l1,.94Z" transform="translate(-1 -1)"/><path class="cls-30" d="M655.06,1186l1,.87Z" transform="translate(-1 -1)"/><path class="cls-47" d="M673.78,1201.12l1.19,1Z" transform="translate(-1 -1)"/><path class="cls-47" d="M674.9,1202l1.12.87Z" transform="translate(-1 -1)"/><path class="cls-47" d="M676.11,1203l.82.68Z" transform="translate(-1 -1)"/><path class="cls-47" d="M677.72,1204.09l1.27.94Z" transform="translate(-1 -1)"/><path class="cls-47" d="M679,1205c.34.25.67.51,1,.77C679.63,1205.53,679.3,1205.27,679,1205Z" transform="translate(-1 -1)"/><path class="cls-47" d="M680.58,1206.12l1.39,1Z" transform="translate(-1 -1)"/><path class="cls-42" d="M713.86,1226.07l1.1.72Z" transform="translate(-1 -1)"/><path class="cls-37" d="M1223.08,520l-1.07-1Z" transform="translate(-1 -1)"/><path class="cls-27" d="M759.77,1245.17l1.19.62Z" transform="translate(-1 -1)"/><path class="cls-37" d="M1224.18,521l-1.15-1Z" transform="translate(-1 -1)"/><path class="cls-27" d="M762.55,1246.13l1.41.64Z" transform="translate(-1 -1)"/><path class="cls-20" d="M655,549.9l.72-.85Z" transform="translate(-1 -1)"/><path class="cls-27" d="M765.62,1247.12l1.33.62Z" transform="translate(-1 -1)"/><path class="cls-20" d="M654,551.08l.88-1.1Z" transform="translate(-1 -1)"/><path class="cls-20" d="M653.1,552.29l1-1.26Z" transform="translate(-1 -1)"/><path class="cls-20" d="M652,553.85l.68-.79Z" transform="translate(-1 -1)"/><path class="cls-20" d="M651,555.05l.86-1.08Z" transform="translate(-1 -1)"/><path class="cls-20" d="M650.08,556.26l1-1.24Z" transform="translate(-1 -1)"/><path class="cls-20" d="M649,557.8a1.66,1.66,0,0,1,.63-.73Z" transform="translate(-1 -1)"/><path class="cls-20" d="M648,559l.84-1.06Z" transform="translate(-1 -1)"/><path class="cls-47" d="M835.94,1044c-.31-.33-.63-.66-1-1C835.31,1043.36,835.63,1043.69,835.94,1044Z" transform="translate(-1 -1)"/><path class="cls-20" d="M979,1268.1c1.35-1.87,2.46-4,4.07-5.59q179.17-179.28,358.46-358.45c1.61-1.62,3.71-2.73,5.59-4.08l-.27,5.06-.72,5.37-.28,4.63c-.25,1.73-.5,3.45-.76,5.17-3.5,20.29-6.85,40.61-10.62,60.85-1.2,6.48-3.55,12.75-5.38,19.11-.63-.41-1.6-1.3-1.84-1.14a29.11,29.11,0,0,0-4.2,3.47Q1201.77,1123.71,1080.54,1245a30.23,30.23,0,0,0-3.48,4.19c-.18.26.67,1.23,1,1.87-15.42,3.65-30.77,7.68-46.3,10.81-10.35,2.09-21,2.88-31.46,4.26l-4.3.69-5.65.31-5.35.7Z" transform="translate(-1 -1)"/><path class="cls-35" d="M1078.1,1251c-.37-.64-1.22-1.61-1-1.87a30.23,30.23,0,0,1,3.48-4.19Q1201.77,1123.72,1323,1002.5a29.11,29.11,0,0,1,4.2-3.47c.24-.16,1.21.73,1.84,1.14a.79.79,0,0,1-.17.85l-.78,2.34-.33,1.68-.78,2-.18,1c-.26.69-.53,1.38-.79,2.08a.89.89,0,0,1-.18.91c-.27.71-.54,1.41-.8,2.12a.86.86,0,0,1-.19.88c-.27.71-.54,1.43-.8,2.15a.81.81,0,0,1-.19.85c-.28.71-.55,1.42-.82,2.13a.85.85,0,0,1-.2.87c-.28.69-.55,1.38-.83,2.06-7.41,17.38-13.73,35.33-22.41,52.05-43,82.69-109.63,138.19-197,169.43a19.24,19.24,0,0,1-2.42.51l-2.19.81-.36.23-.43,0-2.21.81-.36.22-.43,0-2.21.8-.38.22-.44,0-2.18.8-.41.22-.47,0-2.11.78-1,.18-2,.76-1.73.34-2.29.77-.44.2Z" transform="translate(-1 -1)"/><path class="cls-18" d="M1345.07,920.21c.26-1.72.51-3.44.76-5.17C1345.58,916.77,1345.33,918.49,1345.07,920.21Z" transform="translate(-1 -1)"/><path class="cls-18" d="M985,1267.81l5.35-.7Z" transform="translate(-1 -1)"/><path class="cls-18" d="M1346.11,910.41l.72-5.37Z" transform="translate(-1 -1)"/><path class="cls-18" d="M996,1266.8l4.3-.69Z" transform="translate(-1 -1)"/><path class="cls-20" d="M1328.12,1003.36l.78-2.34Z" transform="translate(-1 -1)"/><path class="cls-20" d="M1327,1007l.78-2Z" transform="translate(-1 -1)"/><path class="cls-20" d="M1326,1010.12c.26-.7.53-1.39.79-2.08C1326.57,1008.73,1326.3,1009.42,1326,1010.12Z" transform="translate(-1 -1)"/><path class="cls-20" d="M1325.05,1013.15l.81-2.12Z" transform="translate(-1 -1)"/><path class="cls-20" d="M1323.06,1019.16c.27-.71.54-1.42.82-2.13C1323.6,1017.74,1323.33,1018.45,1323.06,1019.16Z" transform="translate(-1 -1)"/><path class="cls-20" d="M1322,1022.09c.28-.68.55-1.37.83-2.06C1322.58,1020.72,1322.31,1021.41,1322,1022.09Z" transform="translate(-1 -1)"/><path class="cls-20" d="M1098,1244.89l2.19-.81Z" transform="translate(-1 -1)"/><path class="cls-20" d="M1095,1245.9l2.21-.81Z" transform="translate(-1 -1)"/><path class="cls-20" d="M1092,1246.89l2.21-.8Z" transform="translate(-1 -1)"/><path class="cls-20" d="M1324.07,1016.18c.26-.72.53-1.44.8-2.15C1324.6,1014.74,1324.33,1015.46,1324.07,1016.18Z" transform="translate(-1 -1)"/><path class="cls-20" d="M1086,1248.83l2.11-.78Z" transform="translate(-1 -1)"/><path class="cls-20" d="M1083,1249.77l2-.76Z" transform="translate(-1 -1)"/><path class="cls-20" d="M1079,1250.88l2.29-.77Z" transform="translate(-1 -1)"/><path class="cls-20" d="M1089,1247.87l2.18-.8Z" transform="translate(-1 -1)"/><path class="cls-49" d="M394,2.18c-1.25,2-2.18,4.4-3.82,6Q223.53,175,56.76,341.74q-24,24-48.1,48c-1.81,1.79-4.33,2.86-6.52,4.26q3-31,6-62c.23-1.1.47-2.2.71-3.3l.27-2.7c.24-1.1.49-2.19.73-3.29.1-.9.2-1.8.29-2.7a67.9,67.9,0,0,0,6.22-4.92Q169.21,162.16,322,9.19l2.77-.28L328,8.2l2.88-.26L335,7.17l57-5.33Z" transform="translate(-1 -1)"/><path class="cls-50" d="M322,9.19Q169.19,162.13,16.4,315.05A67.9,67.9,0,0,1,10.18,320c4.63-27.06,11.41-53.52,21.63-79,1.62-1,3.5-1.81,4.83-3.14q101.14-101,202.18-202.17A47.28,47.28,0,0,0,243,30.09c21-6,41.88-12.16,62.89-18C311.1,10.63,316.59,10.13,322,9.19Z" transform="translate(-1 -1)"/><path class="cls-51" d="M243,30.09a47.28,47.28,0,0,1-4.16,5.53q-101,101.15-202.18,202.17c-1.33,1.33-3.21,2.11-4.83,3.14,8.41-18.24,15.65-37.14,25.42-54.61C98.74,112.1,160.57,61.32,239.66,31,240.73,30.63,241.87,30.4,243,30.09Z" transform="translate(-1 -1)"/><path class="cls-50" d="M335,7.17l-4.12.77Z" transform="translate(-1 -1)"/><path class="cls-50" d="M328,8.2l-3.23.71Z" transform="translate(-1 -1)"/><path class="cls-50" d="M9.89,322.67c-.24,1.1-.49,2.19-.73,3.29C9.4,324.86,9.65,323.77,9.89,322.67Z" transform="translate(-1 -1)"/><path class="cls-50" d="M8.89,328.66c-.24,1.1-.48,2.2-.71,3.3C8.41,330.86,8.65,329.76,8.89,328.66Z" transform="translate(-1 -1)"/><path class="cls-36" d="M406.09,537c0-20.31-.1-40.61,0-60.92a7.31,7.31,0,0,1,2-4.62q45.09-45.3,90.39-90.38a7.3,7.3,0,0,1,4.62-2c20.3-.09,40.61,0,60.91,0a48.48,48.48,0,0,1-4.16,5.51q-74,74.16-148.19,148.19A48.42,48.42,0,0,1,406.09,537Z" transform="translate(-1 -1)"/></svg>