<?xml version="1.0" encoding="utf-8"?>
<!-- Generator: Adobe Illustrator 22.0.0, SVG Export Plug-In . SVG Version: 6.00 Build 0)  -->
<svg version="1.1" id="Camada_1" xmlns="http://www.w3.org/2000/svg" xmlns:xlink="http://www.w3.org/1999/xlink" x="0px" y="0px"
	 width="64px" height="64px" viewBox="0 0 64 64" enable-background="new 0 0 64 64" xml:space="preserve">
<g>
	<g>
		<path fill="#A59F87" d="M31.923,64c-0.082-0.097-0.157-0.2-0.246-0.289c-5.165-5.132-10.332-10.264-15.499-15.394
			c-1.068-1.06-2.141-2.116-3.213-3.172c-0.08-0.079-0.142-0.186-0.265-0.214c0-7.308,0-14.617,0-21.925
			c0.109-0.103,0.111-0.206,0-0.309c0-0.129,0-0.257,0-0.386c0.124-0.518,0.228-1.042,0.376-1.553
			c0.521-1.795,1.413-3.382,2.741-4.707c2.703-2.696,5.411-5.386,8.12-8.075c2.572-2.553,5.148-5.103,7.721-7.656
			c0.098-0.097,0.229-0.17,0.266-0.319C31.949,0,31.974,0,32,0c0.192,0.206,0.377,0.42,0.576,0.618
			c2.703,2.697,5.401,5.4,8.116,8.086c2.468,2.442,4.933,4.886,7.439,7.288c1.676,1.607,2.59,3.573,3.019,5.811
			c0.047,0.247,0.017,0.51,0.151,0.739c0,0.051,0,0.103,0,0.154c-0.111,0.103-0.109,0.206,0,0.309c0,7.308,0,14.617,0,21.925
			c-0.088,0.072-0.183,0.137-0.263,0.217c-3.088,3.055-6.174,6.112-9.261,9.168c-2.494,2.468-4.985,4.938-7.484,7.401
			C33.523,62.473,32.737,63.212,32,64C31.974,64,31.949,64,31.923,64z M50.106,44.38c0.184-0.058,0.109-0.213,0.11-0.327
			c0.007-0.63,0.003-1.261,0.003-1.891c0-6.317,0.001-12.635-0.005-18.952c0-0.145,0.107-0.346-0.127-0.432
			c-0.304-2.645-1.524-4.754-3.455-6.604c-4.875-4.671-9.677-9.419-14.422-14.223c-0.216-0.218-0.316-0.177-0.508,0.014
			c-5.044,5.014-10.095,10.022-15.142,15.033c-0.191,0.19-0.37,0.394-0.535,0.606c-1.167,1.506-1.912,3.19-2.115,5.097
			c-0.187,0.046-0.129,0.2-0.129,0.316c-0.002,7.015-0.002,14.03,0.001,21.044c0,0.114-0.069,0.27,0.119,0.32
			c2.859,2.836,5.717,5.672,8.576,8.508c3.059,3.035,6.122,6.067,9.17,9.114c0.268,0.268,0.405,0.259,0.654-0.006
			c0.51-0.544,1.057-1.053,1.587-1.578C39.295,55.073,44.701,49.726,50.106,44.38z"/>
		<path fill="#ADA791" d="M51.3,23.006c-0.109-0.103-0.111-0.206,0-0.309C51.3,22.8,51.3,22.903,51.3,23.006z"/>
		<path fill="#ADA791" d="M12.7,22.697c0.111,0.103,0.109,0.206,0,0.309C12.7,22.903,12.7,22.8,12.7,22.697z"/>
		<path fill="#19191A" d="M13.912,22.7c0.203-1.907,0.947-3.591,2.115-5.097c0.165-0.213,0.344-0.417,0.535-0.606
			c5.047-5.011,10.098-10.019,15.142-15.033c0.192-0.191,0.292-0.232,0.508-0.014c4.745,4.804,9.547,9.552,14.422,14.223
			c1.931,1.85,3.151,3.959,3.455,6.604c-0.005,0.075-0.011,0.15-0.016,0.225c-0.142,0.123-0.081,0.289-0.081,0.435
			c-0.003,6.85-0.003,13.701-0.001,20.551c0,0.135-0.05,0.285,0.07,0.403l0.02-0.019l0.027,0.007
			c-5.406,5.346-10.811,10.693-16.217,16.039c-0.531,0.525-1.077,1.034-1.587,1.578c-0.248,0.265-0.386,0.274-0.654,0.006
			c-3.048-3.046-6.111-6.078-9.17-9.114c-2.858-2.836-5.717-5.672-8.576-8.508c0,0,0.025-0.008,0.025-0.008l0.019,0.018
			c0.105-0.107,0.065-0.243,0.065-0.367c0.002-6.85,0.002-13.7-0.001-20.549c0-0.134,0.053-0.287-0.082-0.396
			C13.922,22.953,13.917,22.827,13.912,22.7z M38.617,12.638c-0.027,0.057-0.055,0.114-0.082,0.171
			c-0.032,0.071-0.064,0.142-0.096,0.213c-0.205,0.454-0.414,0.905-0.613,1.361c-0.784,1.793-1.565,3.588-2.346,5.383
			c-0.104,0.202-0.255,0.386-0.241,0.633c-0.055,0.241,0.138,0.133,0.214,0.133c1.294,0.007,2.587,0.006,3.881,0.003
			c0.118,0,0.27,0.051,0.309-0.137c0.191-0.289,0.27-0.625,0.394-0.942c0.182-0.422,0.365-0.843,0.555-1.283
			c1.43,1.086,2.454,2.457,3.169,4.07c0.062,0.155,0.129,0.308,0.184,0.465c0.241,0.677,0.549,1.345,0.55,2.075
			c0.01,5.57,0.005,11.14,0.009,16.71c0,0.181-0.047,0.311-0.175,0.44c-2.015,2.023-4.026,4.05-6.041,6.073
			c-0.072,0.072-0.13,0.228-0.271,0.153c-0.105-0.057-0.057-0.187-0.057-0.285c-0.002-4.399-0.002-8.799-0.002-13.198
			c0-0.126-0.03-0.264,0.133-0.323c0.18,0.011,0.314-0.035,0.307-0.251c0.821-0.675,1.642-1.351,2.465-2.024
			c0.13-0.107,0.238-0.197,0.235-0.401c-0.014-0.911-0.014-1.822-0.001-2.733c0.003-0.243-0.065-0.238-0.26-0.17
			c-2.326,0.811-4.656,1.613-6.984,2.418c-0.268,0.078-0.148,0.3-0.148,0.454c-0.007,6.323-0.006,12.647-0.006,18.97
			c0,2.365-0.002,4.73,0.005,7.095c0,0.147-0.1,0.348,0.137,0.428c0.172-0.037,0.243-0.189,0.346-0.303
			c0.14-0.131,0.283-0.259,0.419-0.394c3.633-3.643,7.266-7.286,10.897-10.931c0.725-0.728,1.442-1.464,2.162-2.196
			c0.32-0.321,0.703-0.583,0.923-0.997c0.133-0.092,0.086-0.232,0.087-0.354c0.005-0.424,0.002-0.849,0.002-1.273
			c0-5.852,0.001-11.704-0.005-17.556c0-0.145,0.107-0.348-0.133-0.428c-0.028-0.131-0.056-0.262-0.084-0.393
			c-0.008-0.076-0.016-0.152-0.024-0.228c-0.016-0.08-0.032-0.159-0.048-0.239c-0.016-0.127-0.021-0.256-0.049-0.38
			c-0.515-2.237-1.669-4.116-3.225-5.775c-0.586-0.625-1.208-1.212-1.919-1.683c-0.724-0.48-1.387-1.002-1.84-1.756
			c-0.609-0.871-1.219-1.742-1.864-2.664c-0.242,0.623-0.542,1.139-0.709,1.713c-0.11,0.089-0.144,0.216-0.169,0.347L38.617,12.638z
			 M28.762,20.398c0.044-0.158-0.049-0.258-0.15-0.354c-0.007-0.042-0.014-0.084-0.02-0.126c-0.023-0.051-0.047-0.101-0.07-0.152
			c-0.885-2.017-1.77-4.034-2.656-6.051c-0.019-0.043-0.038-0.085-0.057-0.128c-0.055-0.143-0.083-0.3-0.211-0.405
			c0.008-0.021,0.004-0.04-0.01-0.057c-0.12-0.375-0.277-0.733-0.461-1.08c-0.196-0.467-0.392-0.934-0.609-1.452
			c-0.734,1.031-1.433,2.008-2.127,2.988c-0.273,0.386-0.53,0.785-0.971,1.009c-0.649,0.368-1.259,0.816-1.78,1.327
			c-0.529,0.52-1.062,1.048-1.533,1.639c-1.344,1.688-2.23,3.568-2.633,5.683c-0.083,0.057-0.072,0.108,0.009,0.155
			c-0.004,0.051-0.009,0.102-0.013,0.153c-0.258,0.086-0.142,0.304-0.142,0.459c-0.006,6.354-0.005,12.709-0.005,19.063
			c0,0.103,0,0.206,0.003,0.309c0.004,0.112,0.072,0.156,0.177,0.155c0.13,0.121,0.265,0.238,0.391,0.363
			c1.749,1.752,3.495,3.508,5.245,5.259c1.015,1.015,2.036,2.024,3.054,3.036c1.849,1.904,3.724,3.783,5.62,5.64
			c0.103,0.115,0.175,0.266,0.346,0.303c0.237-0.08,0.137-0.281,0.137-0.428c0.005-8.701,0.005-17.402,0.004-26.104
			c0-0.09-0.002-0.18-0.004-0.27c-0.003-0.095-0.067-0.13-0.149-0.145c-1.03-0.363-2.06-0.725-3.09-1.088
			c-0.005-0.164-0.151-0.156-0.249-0.191c-0.923-0.328-1.847-0.655-2.775-0.967c-0.163-0.055-0.326-0.233-0.525-0.073
			c-0.207,0.005-0.373-0.172-0.6-0.137c0,0.943,0.009,1.88-0.006,2.818c-0.004,0.242,0.063,0.397,0.255,0.55
			c0.823,0.656,1.631,1.331,2.445,1.999c-0.006,0.217,0.128,0.262,0.307,0.251c0.163,0.058,0.133,0.196,0.133,0.322
			c-0.003,4.498-0.005,8.995-0.008,13.493c-0.046,0.003-0.091,0.006-0.137,0.009c-2.087-2.096-4.173-4.193-6.265-6.284
			c-0.142-0.142-0.133-0.291-0.133-0.456c0-5.274,0.002-10.549-0.002-15.823c0-0.592-0.013-1.182,0.153-1.758
			c0.023-0.059,0.051-0.116,0.07-0.177c0.501-1.639,1.264-3.136,2.435-4.399c0.373-0.402,0.812-0.742,1.243-1.13
			c0.201,0.465,0.383,0.885,0.565,1.306c0.097,0.328,0.222,0.645,0.394,0.942c0.022,0.138,0.125,0.139,0.232,0.139
			c1.345,0,2.69-0.001,4.035,0.001C28.725,20.537,28.815,20.541,28.762,20.398z M32.096,4.086c-0.093-0.166-0.174-0.08-0.264,0.007
			c-1.48,1.426-2.961,2.85-4.442,4.275c-0.068,0.066-0.139,0.125-0.041,0.22c0.043,0.133,0.077,0.271,0.132,0.399
			c1.148,2.72,2.299,5.438,3.449,8.157c0.31,0.733,0.618,1.467,0.935,2.197c0.019,0.043,0.024,0.313,0.18,0.069
			c0.099-0.058,0.114-0.167,0.155-0.259c1.321-2.953,2.625-5.913,3.854-8.905c0.233-0.567,0.544-1.104,0.665-1.715
			c0.052-0.153-0.088-0.197-0.163-0.27c-0.406-0.391-0.816-0.778-1.228-1.163C34.251,6.092,33.173,5.09,32.096,4.086z"/>
		<path fill="#B6AF97" d="M13.912,22.7c0.005,0.126,0.011,0.253,0.016,0.379c-0.005,0.09-0.016,0.179-0.016,0.269
			c-0.001,6.914-0.001,13.828,0,20.741c0,0.101,0.022,0.201,0.033,0.302c0,0-0.019-0.018-0.019-0.018s-0.025,0.008-0.025,0.008
			c-0.189-0.051-0.119-0.207-0.119-0.32c-0.003-7.015-0.003-14.03-0.001-21.044C13.782,22.9,13.725,22.747,13.912,22.7z"/>
		<path fill="#B6AF97" d="M50.072,23.003c0.005-0.075,0.011-0.15,0.016-0.225c0.234,0.086,0.127,0.287,0.127,0.432
			c0.006,6.317,0.005,12.635,0.005,18.952c0,0.63,0.004,1.261-0.003,1.891c-0.001,0.114,0.074,0.269-0.11,0.327
			c0,0-0.027-0.007-0.027-0.007l-0.02,0.019c0.064-0.121,0.035-0.252,0.035-0.379c0.001-6.824,0.001-13.648,0-20.472
			C50.094,23.362,50.08,23.182,50.072,23.003z"/>
		<path fill="#FDFDFD" d="M19.652,23.855c-0.166,0.576-0.153,1.166-0.153,1.758c0.003,5.274,0.002,10.549,0.002,15.823
			c0,0.165-0.009,0.314,0.133,0.456c2.093,2.09,4.178,4.188,6.265,6.284c0.021,0.062,0.056,0.107,0.127,0.079
			c0.013-0.005,0.007-0.058,0.01-0.088c0.003-4.498,0.005-8.995,0.008-13.493c0-0.126,0.03-0.264-0.133-0.322
			c-0.082-0.109-0.186-0.191-0.307-0.251c-0.814-0.668-1.622-1.343-2.445-1.999c-0.192-0.153-0.259-0.308-0.255-0.55
			c0.015-0.937,0.006-1.875,0.006-2.818c0.227-0.035,0.393,0.142,0.6,0.137c1.177,0.427,2.349,0.871,3.549,1.231
			c1.03,0.363,2.06,0.725,3.09,1.088c0.002,6.717,0.003,13.434,0.004,20.151c0,0.051-0.012,0.101-0.019,0.152
			c-0.047,0-0.094,0.001-0.14,0.001c-0.09,0.002-0.181-0.007-0.269,0.007c-1.548,0.252-3.104,0.43-4.668,0.542
			c-0.286,0.021-0.587,0.025-0.861,0.15c-1.018-1.012-2.039-2.021-3.054-3.036c-1.75-1.751-3.496-3.507-5.245-5.259
			c-0.126-0.126-0.26-0.243-0.391-0.363c-0.1-0.122-0.07-0.267-0.07-0.406c0-5.792-0.001-11.583,0.001-17.375
			c0-0.153,0.018-0.305,0.027-0.458c0.85-0.237,1.645-0.624,2.482-0.894C18.514,24.218,19.042,23.907,19.652,23.855z"/>
		<path fill="#FDFDFD" d="M38.09,34.351c-0.163,0.059-0.133,0.196-0.133,0.323c0,4.399,0,8.799,0.002,13.198
			c0,0.098-0.048,0.228,0.057,0.285c0.141,0.076,0.199-0.08,0.271-0.153c2.015-2.023,4.026-4.051,6.041-6.073
			c0.128-0.128,0.175-0.259,0.175-0.44c-0.005-5.57,0.001-11.14-0.009-16.71c-0.001-0.73-0.309-1.398-0.55-2.075
			c-0.056-0.157-0.123-0.31-0.184-0.465c0.063,0.009,0.127,0.011,0.188,0.026c1.349,0.335,2.677,0.74,3.986,1.205
			c0.24,0.085,0.409,0.088,0.521-0.164c0.028,0.131,0.056,0.262,0.084,0.393c0.009,1.079,0.025,2.157,0.026,3.236
			c0.003,5.305,0.001,10.61,0.002,15.915c0,0.153,0.013,0.307,0.02,0.46c-0.22,0.414-0.603,0.676-0.923,0.997
			c-0.189-0.018-0.345,0.056-0.5,0.159c-0.341,0.226-0.687,0.446-1.04,0.654c-2.009,1.188-4.065,2.286-6.192,3.249
			c-1.236,0.559-2.477,1.107-3.748,1.584c-0.728,0.273-1.452,0.561-2.177,0.842c-0.047,0-0.095,0-0.142,0
			c-0.006-0.051-0.016-0.102-0.016-0.152c0.001-6.485,0.002-12.971,0.004-19.456c2.328-0.805,4.658-1.607,6.984-2.418
			c0.195-0.068,0.263-0.073,0.26,0.17c-0.013,0.911-0.013,1.822,0.001,2.733c0.003,0.204-0.104,0.295-0.235,0.401
			c-0.823,0.673-1.644,1.349-2.465,2.024C38.276,34.16,38.172,34.242,38.09,34.351z M38.012,48.202
			c-0.009-0.01-0.017-0.019-0.025-0.027c-0.008,0.017-0.019,0.032-0.023,0.05c-0.001,0.006,0.014,0.017,0.022,0.025
			C37.995,48.234,38.004,48.218,38.012,48.202z"/>
		<path fill="#E7E7E7" d="M19.652,23.855c-0.61,0.053-1.138,0.363-1.707,0.546c-0.837,0.27-1.633,0.657-2.482,0.894
			c0.02-0.024,0.04-0.048,0.06-0.072c0.022-0.281,0.117-0.566-0.06-0.833c-0.06-0.282,0.03-0.562,0.008-0.843
			c0.004-0.051,0.009-0.102,0.013-0.153c0.033-0.054,0.035-0.106-0.009-0.155c0.403-2.114,1.289-3.995,2.633-5.683
			c0.471-0.591,1.004-1.119,1.533-1.639c0.521-0.512,1.131-0.96,1.78-1.327c0.128,0.071,0.252,0.077,0.402,0.041
			c0.802-0.194,1.607-0.376,2.413-0.552c0.544-0.118,1.104-0.164,1.63-0.364c0.885,2.017,1.77,4.034,2.656,6.051
			c-0.114,0.114-0.026,0.135,0.07,0.152c0.007,0.042,0.014,0.084,0.02,0.126c-0.023,0.204-0.176,0.183-0.317,0.183
			c-1.216,0-2.431-0.003-3.647,0.004c-0.197,0.001-0.297-0.069-0.369-0.252c-0.075-0.188-0.073-0.433-0.314-0.524
			c-0.182-0.421-0.364-0.841-0.565-1.306c-0.431,0.388-0.87,0.728-1.243,1.13c-1.171,1.263-1.934,2.761-2.435,4.399
			C19.703,23.738,19.675,23.796,19.652,23.855z"/>
		<path fill="#E7E7E7" d="M48.455,23.309c-0.112,0.251-0.281,0.249-0.521,0.164c-1.309-0.465-2.637-0.87-3.986-1.205
			c-0.061-0.015-0.125-0.018-0.188-0.026c-0.715-1.613-1.74-2.984-3.169-4.07c-0.19,0.439-0.372,0.861-0.555,1.283
			c-0.226,0.029-0.223,0.248-0.259,0.382c-0.087,0.323-0.264,0.404-0.583,0.398c-1.04-0.02-2.081-0.016-3.121-0.003
			c-0.346,0.005-0.695,0.072-0.592-0.467c0.782-1.794,1.563-3.589,2.346-5.383c0.199-0.456,0.409-0.907,0.613-1.361
			c0.035,0.017,0.068,0.04,0.104,0.049c0.858,0.201,1.745,0.192,2.608,0.358c0.125,0.024,0.186-0.059,0.2-0.179
			c0.453,0.754,1.115,1.277,1.84,1.756c0.711,0.471,1.333,1.058,1.919,1.683c1.556,1.659,2.71,3.537,3.225,5.775
			c0.029,0.124,0.033,0.253,0.049,0.38c-0.134,0.11-0.129,0.192,0.048,0.239C48.439,23.158,48.447,23.233,48.455,23.309z"/>
		<path fill="#E6E6E6" d="M34.007,50.798c0.726-0.281,1.449-0.568,2.177-0.842c1.271-0.477,2.512-1.025,3.748-1.584
			c2.127-0.963,4.183-2.061,6.192-3.249c0.352-0.208,0.698-0.428,1.04-0.654c0.156-0.103,0.311-0.177,0.5-0.159
			c-0.721,0.732-1.438,1.468-2.162,2.196c-3.631,3.645-7.264,7.288-10.897,10.931c-0.135,0.136-0.279,0.263-0.419,0.394
			c-0.257-0.045-0.176-0.25-0.176-0.4C34.006,55.221,34.007,53.01,34.007,50.798z"/>
		<path fill="#958F7A" d="M32.044,19.409c-0.157,0.244-0.162-0.026-0.181-0.069c-0.318-0.73-0.625-1.464-0.935-2.197
			c-1.15-2.719-2.301-5.437-3.449-8.157c-0.054-0.129-0.088-0.266-0.132-0.399c0.792,0.143,1.587,0.192,2.027,1.09
			c0.442,0.903,0.963,1.774,1.528,2.612c0.028,0.049,0.056,0.098,0.085,0.147c0.014,0.034-0.002,0.111,0.056,0.084
			c0.044-0.021,0.008-0.077-0.033-0.103c-0.024-0.053-0.048-0.106-0.072-0.159c-0.04-0.133-0.071-0.27-0.121-0.399
			c-0.146-0.377-0.369-0.724-0.446-1.129c0.241-0.209,0.472-0.432,0.726-0.625c0.993-0.758,2.109-1.145,3.367-1.088l0.008,0.022
			c-0.228,0.653-0.561,1.26-0.824,1.898c-0.082,0.199-0.191,0.293-0.4,0.355C32.83,11.415,32.38,11.447,32,11.692
			c0.193,0.412,0.639,0.608,0.851,1.003c-0.062,0.332-0.226,0.626-0.371,0.922c-0.331,0.677-0.535,1.361-0.496,2.138
			c0.053,1.063,0.013,2.131,0.014,3.198C31.999,19.106,31.979,19.262,32.044,19.409z"/>
		<path fill="#E6E6E6" d="M24.194,52.193c0.274-0.125,0.575-0.129,0.861-0.15c1.565-0.112,3.121-0.29,4.668-0.542
			c0.088-0.014,0.179-0.005,0.269-0.007c0,1.98,0.002,3.96-0.003,5.939c0,0.15,0.081,0.355-0.176,0.399
			C27.918,55.975,26.043,54.097,24.194,52.193z"/>
		<path fill="#676355" d="M32,11.692c0.38-0.245,0.83-0.277,1.249-0.401c0.209-0.062,0.317-0.156,0.4-0.355
			c0.263-0.637,0.597-1.244,0.824-1.898C35.2,8.779,35.96,8.66,36.718,8.53c-0.121,0.611-0.432,1.148-0.665,1.715
			c-1.229,2.992-2.533,5.952-3.854,8.905c-0.041,0.092-0.056,0.201-0.155,0.259c-0.065-0.147-0.046-0.303-0.046-0.456
			c-0.001-1.066,0.039-2.134-0.014-3.198c-0.039-0.777,0.165-1.461,0.496-2.138c0.145-0.296,0.309-0.59,0.371-0.922
			c0.354-0.179,0.708-0.358,1.159-0.587C33.253,11.952,32.627,11.822,32,11.692z"/>
		<path fill="#CBC6B2" d="M30.903,12.29c-0.565-0.838-1.086-1.71-1.528-2.613c-0.44-0.898-1.235-0.947-2.027-1.09
			c-0.097-0.094-0.027-0.154,0.041-0.22c1.481-1.424,2.962-2.849,4.442-4.275c0.09-0.087,0.172-0.172,0.264-0.007
			C31.946,4.184,32.001,4.337,32,4.469c-0.005,0.749-0.004,1.498-0.004,2.247c-0.805,0.599-1.432,1.391-2.208,2.022
			c-0.151,0.123-0.23,0.265-0.137,0.47c0.232,0.511,0.404,1.051,0.721,1.522c0.078,0.404,0.301,0.751,0.446,1.129
			c0.05,0.129,0.081,0.266,0.121,0.399C30.927,12.269,30.915,12.279,30.903,12.29z"/>
		<path fill="#A59F87" d="M31.996,6.716C31.997,5.967,31.995,5.218,32,4.469c0.001-0.132-0.054-0.285,0.096-0.383
			c1.077,1.003,2.155,2.006,3.231,3.011c0.412,0.385,0.822,0.772,1.228,1.163c0.075,0.072,0.214,0.117,0.163,0.27
			C35.96,8.66,35.2,8.779,34.473,9.038c0,0-0.008-0.022-0.008-0.022c-0.034-0.29-0.326-0.337-0.488-0.506
			C33.36,7.866,32.682,7.286,31.996,6.716z"/>
		<path fill="#D8D8D8" d="M25.866,13.714c-0.526,0.2-1.086,0.246-1.63,0.364c-0.806,0.175-1.611,0.358-2.413,0.552
			c-0.15,0.036-0.274,0.03-0.402-0.041c0.441-0.224,0.698-0.623,0.971-1.009c0.693-0.981,1.392-1.957,2.127-2.988
			c0.217,0.518,0.413,0.985,0.609,1.452c0.011,0.421,0.172,0.778,0.461,1.08c0.014,0.017,0.018,0.036,0.01,0.057
			c-0.002,0.173-0.006,0.346,0.211,0.405C25.828,13.629,25.847,13.672,25.866,13.714z"/>
		<path fill="#050507" d="M33.852,31.189c-0.001,6.485-0.003,12.971-0.004,19.456c0,0.051,0.011,0.102,0.016,0.152
			c-0.005,0.153-0.014,0.307-0.014,0.46c-0.004,2.293-0.007,4.585-0.011,6.878c-0.237-0.08-0.137-0.281-0.137-0.428
			c-0.006-2.365-0.005-4.73-0.005-7.095c0-6.323-0.001-12.647,0.006-18.97C33.704,31.489,33.584,31.267,33.852,31.189z"/>
		<path fill="#050507" d="M30.133,51.493c0.007-0.051,0.019-0.101,0.019-0.152c-0.001-6.717-0.002-13.434-0.004-20.151
			c0.082,0.016,0.146,0.05,0.149,0.145c0.003,0.09,0.004,0.18,0.004,0.27c0,8.701,0.001,17.402-0.004,26.104
			c0,0.147,0.1,0.348-0.137,0.428c-0.003-0.41-0.008-0.819-0.01-1.229C30.144,55.102,30.139,53.297,30.133,51.493z"/>
		<path fill="#D8D8D8" d="M41.35,13.249c-0.013,0.119-0.075,0.203-0.2,0.179c-0.863-0.166-1.75-0.156-2.608-0.358
			c-0.037-0.009-0.07-0.032-0.104-0.049c0.032-0.071,0.064-0.142,0.096-0.213c0.094-0.025,0.099-0.093,0.082-0.171
			c0,0-0.009,0.007-0.009,0.007c0.214-0.039,0.188-0.195,0.169-0.347c0.167-0.574,0.468-1.09,0.709-1.713
			C40.132,11.507,40.741,12.378,41.35,13.249z"/>
		<path fill="#050507" d="M15.523,25.223c-0.02,0.024-0.04,0.048-0.06,0.072c-0.01,0.153-0.027,0.305-0.027,0.458
			c-0.001,5.792-0.001,11.583-0.001,17.375c0,0.139-0.03,0.284,0.07,0.406c-0.105,0.001-0.173-0.043-0.177-0.155
			c-0.004-0.103-0.003-0.206-0.003-0.309c0-6.354-0.001-12.709,0.005-19.063c0-0.155-0.116-0.373,0.142-0.459
			c0.021,0.281-0.069,0.561-0.008,0.843C15.46,24.67,15.361,24.956,15.523,25.223z"/>
		<path fill="#050507" d="M50.072,23.003c0.008,0.179,0.023,0.359,0.023,0.538c0.001,6.824,0.001,13.648,0,20.472
			c0,0.126,0.03,0.257-0.035,0.379c-0.12-0.117-0.07-0.267-0.07-0.403c-0.002-6.85-0.003-13.701,0.001-20.551
			C49.99,23.292,49.93,23.126,50.072,23.003z"/>
		<path fill="#050507" d="M13.945,44.392c-0.011-0.101-0.033-0.201-0.033-0.302c-0.001-6.914-0.001-13.828,0-20.741
			c0-0.09,0.01-0.179,0.016-0.269c0.135,0.109,0.082,0.262,0.082,0.396c0.002,6.85,0.002,13.7,0.001,20.549
			C14.01,44.149,14.05,44.285,13.945,44.392z"/>
		<path fill="#050507" d="M48.587,43.313c-0.007-0.153-0.02-0.307-0.02-0.46c-0.001-5.305,0.001-10.61-0.002-15.915
			c-0.001-1.079-0.017-2.157-0.026-3.236c0.24,0.08,0.132,0.283,0.133,0.428c0.006,5.852,0.005,11.704,0.005,17.556
			c0,0.424,0.003,0.849-0.002,1.273C48.673,43.081,48.72,43.221,48.587,43.313z"/>
		<path fill="#F3F3F3" d="M33.84,58.136c0.003-2.293,0.006-4.585,0.011-6.878c0-0.153,0.009-0.307,0.014-0.46
			c0.047,0,0.095,0,0.142,0c0,2.211-0.001,4.423,0.003,6.634c0,0.15-0.081,0.355,0.176,0.4
			C34.083,57.947,34.012,58.099,33.84,58.136z"/>
		<path fill="#F3F3F3" d="M30.133,51.493c0.006,1.805,0.011,3.609,0.017,5.414c0.001,0.41,0.006,0.819,0.01,1.229
			c-0.172-0.037-0.243-0.189-0.346-0.303c0.257-0.045,0.175-0.25,0.176-0.399c0.004-1.98,0.003-3.96,0.003-5.939
			C30.039,51.493,30.086,51.493,30.133,51.493z"/>
		<path fill="#F3F3F3" d="M35.478,19.765c-0.102,0.539,0.247,0.471,0.592,0.467c1.04-0.014,2.081-0.018,3.121,0.003
			c0.32,0.006,0.496-0.075,0.583-0.398c0.036-0.134,0.034-0.352,0.259-0.382c-0.123,0.317-0.203,0.653-0.394,0.942
			c-1.468,0-2.936,0.001-4.404,0.001C35.224,20.151,35.374,19.967,35.478,19.765z"/>
		<path fill="#F3F3F3" d="M23.965,19.454c0.242,0.091,0.24,0.336,0.314,0.524c0.073,0.183,0.172,0.253,0.369,0.252
			c1.215-0.007,2.431-0.003,3.647-0.004c0.141,0,0.294,0.021,0.317-0.183c0.101,0.096,0.194,0.196,0.15,0.354
			c-1.468,0-2.936-0.001-4.404-0.001C24.186,20.1,24.062,19.783,23.965,19.454z"/>
		<path fill="#050507" d="M35.238,20.398c1.468,0,2.936-0.001,4.404-0.001c-0.039,0.188-0.191,0.137-0.309,0.137
			c-1.294,0.003-2.587,0.004-3.881-0.003C35.375,20.53,35.183,20.639,35.238,20.398z"/>
		<path fill="#050507" d="M24.359,20.397c1.468,0,2.936,0.001,4.404,0.001c0.052,0.143-0.038,0.139-0.137,0.139
			c-1.345-0.001-2.69-0.001-4.035-0.001C24.484,20.536,24.381,20.535,24.359,20.397z"/>
		<path fill="#08090C" d="M27.058,30.101c-1.2-0.36-2.372-0.804-3.549-1.231c0.199-0.16,0.362,0.018,0.525,0.073
			c0.929,0.312,1.852,0.639,2.775,0.967C26.907,29.945,27.053,29.937,27.058,30.101z"/>
		<path fill="#E6E6E6" d="M25.589,13.124c-0.29-0.302-0.451-0.659-0.461-1.08C25.312,12.391,25.469,12.749,25.589,13.124z"/>
		<path fill="#E6E6E6" d="M25.81,13.586c-0.217-0.059-0.213-0.232-0.211-0.405C25.727,13.286,25.754,13.444,25.81,13.586z"/>
		<path fill="#282828" d="M25.603,34.1c0.121,0.061,0.225,0.142,0.307,0.251C25.731,34.361,25.597,34.316,25.603,34.1z"/>
		<path fill="#282828" d="M38.09,34.351c0.082-0.109,0.186-0.19,0.307-0.251C38.403,34.316,38.269,34.361,38.09,34.351z"/>
		<path fill="#FDFDFD" d="M48.431,23.082c-0.177-0.047-0.183-0.129-0.048-0.239C48.399,22.923,48.415,23.002,48.431,23.082z"/>
		<path fill="#E7E7E7" d="M38.777,12.298c0.019,0.152,0.045,0.308-0.169,0.347C38.633,12.514,38.667,12.387,38.777,12.298z"/>
		<path fill="#050507" d="M15.475,23.239c0.044,0.049,0.043,0.101,0.009,0.155C15.403,23.347,15.392,23.296,15.475,23.239z"/>
		<path fill="#F3F3F3" d="M28.592,19.917c-0.096-0.017-0.185-0.037-0.07-0.152C28.545,19.816,28.569,19.867,28.592,19.917z"/>
		<path fill="#E7E7E7" d="M38.617,12.638c0.017,0.078,0.012,0.146-0.082,0.171C38.562,12.751,38.59,12.694,38.617,12.638z"/>
		<path fill="#282828" d="M26.035,48.165c-0.003,0.031,0.003,0.083-0.01,0.088c-0.071,0.028-0.106-0.017-0.127-0.079
			C25.944,48.172,25.99,48.169,26.035,48.165z"/>
		<path fill="#282828" d="M38.012,48.202c-0.009,0.016-0.017,0.032-0.026,0.048c-0.008-0.008-0.023-0.019-0.022-0.025
			c0.004-0.018,0.015-0.033,0.023-0.05C37.995,48.183,38.003,48.192,38.012,48.202z"/>
		<path fill="#FDFDFD" d="M15.523,25.223c-0.162-0.267-0.064-0.553-0.06-0.833C15.64,24.657,15.545,24.943,15.523,25.223z"/>
		<path fill="#B6AF97" d="M31.996,6.716c0.686,0.57,1.364,1.15,1.981,1.795c0.162,0.169,0.454,0.217,0.488,0.506
			c-1.258-0.057-2.374,0.331-3.367,1.088c-0.253,0.193-0.484,0.416-0.726,0.625c-0.317-0.471-0.488-1.011-0.721-1.522
			c-0.093-0.205-0.014-0.347,0.137-0.47C30.563,8.107,31.191,7.315,31.996,6.716z"/>
		<path fill="#CBC6B2" d="M32,11.692c0.627,0.13,1.254,0.26,2.01,0.417c-0.451,0.228-0.805,0.407-1.159,0.587
			C32.639,12.3,32.193,12.104,32,11.692z"/>
		<path fill="#CBC6B2" d="M31.011,12.417c0.041,0.027,0.078,0.083,0.033,0.104c-0.058,0.027-0.043-0.05-0.056-0.084
			C30.988,12.436,31.011,12.417,31.011,12.417z"/>
		<path fill="#CBC6B2" d="M30.939,12.258c0.024,0.053,0.048,0.106,0.072,0.159c0,0-0.023,0.019-0.023,0.02
			c-0.028-0.049-0.056-0.098-0.085-0.147C30.915,12.279,30.927,12.269,30.939,12.258z"/>
	</g>
</g>
<g>
	<g>
		<path fill="#A49E86" d="M31.923,64c-0.082-0.097-0.157-0.2-0.246-0.289c-5.293-5.259-10.587-10.518-15.882-15.775
			c-0.94-0.934-1.885-1.862-2.83-2.791c-0.081-0.079-0.142-0.185-0.265-0.214c0-0.051,0-0.103,0-0.154
			c0.075-0.133,0.038-0.277,0.038-0.416c0.002-7.057,0.002-14.114,0-21.171c0-0.138,0.037-0.283-0.038-0.416c0-0.18,0-0.36,0-0.54
			c0.203-0.379,0.186-0.811,0.296-1.214c0.521-1.911,1.443-3.592,2.846-4.994c2.592-2.589,5.193-5.17,7.793-7.751
			c2.691-2.671,5.386-5.339,8.078-8.01c0.079-0.079,0.189-0.138,0.21-0.265C31.949,0,31.974,0,32,0
			c0.687,0.783,1.442,1.5,2.181,2.233c3.652,3.622,7.311,7.238,10.969,10.854c1.033,1.021,2.064,2.046,3.114,3.05
			c1.638,1.566,2.482,3.525,2.888,5.711c0.039,0.207,0.009,0.434,0.148,0.618c0,0.18,0,0.36,0,0.54
			c-0.075,0.133-0.038,0.277-0.038,0.416c-0.002,6.98-0.002,13.96,0,20.939c0,0.138-0.037,0.283,0.038,0.416
			c0,0.051,0,0.103,0,0.154c-0.088,0.072-0.183,0.137-0.264,0.217c-3.079,3.046-6.156,6.094-9.234,9.14
			c-2.375,2.35-4.747,4.704-7.128,7.048C33.777,62.219,32.865,63.086,32,64C31.974,64,31.949,64,31.923,64z"/>
		<path fill="#AEA893" d="M12.7,22.774c0.128,0.113,0.075,0.265,0.075,0.399c0.003,7.068,0.002,14.136,0,21.204
			c0,0.135,0.052,0.286-0.075,0.4C12.7,37.443,12.7,30.109,12.7,22.774z"/>
		<path fill="#ACA690" d="M51.3,44.777c-0.126-0.114-0.075-0.265-0.075-0.4c-0.002-6.99-0.002-13.981,0-20.971
			c0-0.135-0.052-0.286,0.075-0.4C51.3,30.263,51.3,37.52,51.3,44.777z"/>
		<path fill="#19191A" d="M24.136,9.422c0.442-0.353,0.77-0.826,1.23-1.159c0.142-0.045,0.23-0.159,0.329-0.258
			c1.187-1.186,2.374-2.371,3.559-3.56c0.382-0.31,0.715-0.669,1.046-1.03c0.494-0.484,0.986-0.971,1.483-1.451
			c0.075-0.073,0.134-0.242,0.29-0.101c0.172,0.021,0.253,0.167,0.359,0.273c1.474,1.47,2.948,2.941,4.416,4.418
			c0.234,0.235,0.533,0.406,0.701,0.707c1.389,1.198,2.562,2.61,3.856,3.903c0.579,0.579,1.26,1.034,1.824,1.63
			c0.846,0.892,1.659,1.818,2.558,2.66c0.595,0.558,1.282,1.017,1.805,1.649c0.379,0.458,0.793,0.894,1.068,1.43
			c0.001,0.131,0.043,0.24,0.171,0.299c0.139,0.189,0.26,0.388,0.301,0.624c0.059,0.239,0.136,0.471,0.247,0.691
			c0.297,0.341,0.306,0.79,0.438,1.192c0.079,0.24,0.119,0.494,0.176,0.741c0.112,0.242,0.119,0.504,0.138,0.764
			c-0.009,0.047-0.018,0.093-0.026,0.14c-0.015,0.206-0.009,0.412-0.009,0.617c0,6.722,0,13.445-0.001,20.167
			c0,0.229,0.037,0.466-0.104,0.674c-0.872,0.859-1.745,1.718-2.617,2.577c-1.081,1.051-2.145,2.119-3.199,3.196
			c-0.09,0.092-0.174,0.187-0.242,0.297c-0.835,0.851-1.685,1.688-2.526,2.534c-0.091,0.091-0.178,0.185-0.31,0.217
			c-0.25,0.235-0.499,0.47-0.749,0.704c-1.106,1.076-2.195,2.169-3.274,3.272c-0.09,0.092-0.175,0.188-0.243,0.298
			c-0.835,0.851-1.685,1.688-2.526,2.534c-0.091,0.091-0.178,0.185-0.31,0.217c-0.301,0.286-0.602,0.572-0.903,0.859
			c-0.29,0.255-0.549,0.541-0.826,0.81c-0.291,0.282-0.341,0.286-0.655-0.035c-1.268-1.295-2.561-2.566-3.838-3.852
			c-0.172-0.174-0.349-0.342-0.552-0.48c-0.485-0.392-0.904-0.853-1.327-1.309c-0.058-0.026-0.116-0.053-0.163-0.099
			c-1.253-1.263-2.532-2.499-3.762-3.785c-0.363-0.52-0.869-0.903-1.306-1.351c-1.112-1.138-2.244-2.257-3.373-3.38
			c-0.128-0.127-0.265-0.242-0.413-0.345c-0.538-0.471-1.038-0.975-1.505-1.519c-0.417-0.486-0.905-0.91-1.362-1.362
			c-0.11-0.158-0.106-0.339-0.106-0.52c0-6.919,0-13.839,0-20.758c0-0.129-0.004-0.258,0.04-0.382
			c0.007-0.181,0.014-0.361,0.022-0.542c0.029-0.005,0.049,0.004,0.065,0.024c0.03,0.038,0.004,0.087,0.029,0.125
			c-0.013-0.036-0.004-0.076-0.014-0.112c-0.014-0.052-0.056-0.084-0.095-0.116c0.283-1.271,0.68-2.499,1.41-3.591
			c0.237-0.354,0.432-0.742,0.748-1.04c1.39-1.426,2.826-2.807,4.208-4.241c0.054-0.056,0.093-0.123,0.137-0.186
			C21.676,11.87,22.897,10.637,24.136,9.422z"/>
		<path fill="#04050A" d="M13.943,22.781c0.102,0.092,0.068,0.215,0.068,0.327c0,7.111-0.001,14.222-0.002,21.333
			c-0.026-0.016-0.052-0.031-0.078-0.047c-0.101-0.137-0.072-0.296-0.072-0.448c-0.001-6.909-0.001-13.817,0-20.726
			c0-0.152-0.027-0.311,0.067-0.45L13.943,22.781z"/>
		<path fill="#BCB599" d="M13.865,44.39c-0.13-0.095-0.083-0.234-0.083-0.356c-0.002-6.996-0.002-13.993-0.001-20.989
			c0-0.088,0.01-0.176,0.017-0.263c0.001-0.006,0.019-0.015,0.029-0.015c0.012,0,0.024,0.009,0.035,0.015
			c0.06,0.122,0.031,0.253,0.031,0.38c0.002,6.95,0.001,13.899,0,20.849C13.894,44.136,13.92,44.266,13.865,44.39z"/>
		<path fill="#706C5D" d="M13.865,44.39c-0.002-2.508-0.007-5.016-0.007-7.524c0-4.695,0.003-9.39,0.004-14.085
			c0.021-0.004,0.042-0.008,0.063-0.012c0.003,0.269,0.009,0.539,0.009,0.808c-0.001,6.939-0.002,13.877-0.004,20.816
			C13.909,44.391,13.887,44.39,13.865,44.39z"/>
		<path fill="#010207" d="M49.992,44.443c-0.001-7.086-0.002-14.171-0.003-21.257c0-0.113-0.026-0.233,0.054-0.335
			c0.147,0.117,0.097,0.284,0.097,0.431c0.003,6.901,0.003,13.802,0.001,20.703c0,0.14,0.021,0.285-0.07,0.41
			C50.044,44.411,50.018,44.427,49.992,44.443z"/>
		<path fill="#646155" d="M50.071,44.395c-0.002-6.925-0.004-13.849-0.007-20.774c0-0.257-0.014-0.513-0.021-0.77
			c0,0,0.037-0.001,0.037-0.001c0.062-0.01,0.094,0.016,0.097,0.079c0.005,7.055,0.001,14.11,0.001,21.164
			c0,0.1,0.029,0.207-0.042,0.298C50.114,44.392,50.093,44.393,50.071,44.395z"/>
		<path fill="#BEB69A" d="M50.136,44.391c0.002-4.323,0.005-8.646,0.006-12.969c0-2.856-0.004-5.713-0.006-8.569
			c0.027-0.027,0.055-0.028,0.082,0c0,7.048,0.001,14.095-0.001,21.143C50.217,44.129,50.273,44.282,50.136,44.391z"/>
		<path fill="#121214" d="M27.22,57.59c0.207-0.105,0.271,0.094,0.367,0.188c1.376,1.367,2.752,2.734,4.112,4.117
			c0.22,0.224,0.329,0.195,0.537-0.006c0.27-0.261,0.46-0.624,0.856-0.741c-0.223,0.452-0.645,0.722-0.987,1.064
			c-0.043,0.043-0.167,0.005-0.254,0.004c-0.251-0.151-0.425-0.382-0.621-0.591c-1.185-1.178-2.373-2.352-3.549-3.539
			C27.523,57.926,27.3,57.821,27.22,57.59z"/>
		<path fill="#ADA78D" d="M37.549,7.261c-1.917-1.707-3.668-3.58-5.476-5.397c0.01-0.09,0.035-0.16,0.134-0.071
			c0.095,0.086,0.183,0.18,0.274,0.271c1.627,1.627,3.256,3.253,4.878,4.885C37.441,7.031,37.622,7.077,37.549,7.261z"/>
		<path fill="#101113" d="M16.876,47.321c0.116-0.073,0.185,0.002,0.261,0.077c1.614,1.618,3.23,3.234,4.844,4.851
			c0.026,0.026,0.039,0.065,0.058,0.099c-0.226,0.075-0.283-0.109-0.373-0.243c-0.054-0.053-0.108-0.106-0.161-0.159
			c-0.33-0.226-0.58-0.536-0.852-0.822c-1.144-1.135-2.29-2.268-3.429-3.409C17.102,47.593,16.929,47.507,16.876,47.321z"/>
		<path fill="#131315" d="M20.497,13.14c-0.004,0.147-0.121,0.221-0.209,0.31c-1.289,1.291-2.579,2.58-3.869,3.869
			c-0.089,0.089-0.165,0.203-0.31,0.21c0.113-0.232,0.28-0.421,0.463-0.601c1.106-1.089,2.207-2.184,3.309-3.276
			C20.082,13.475,20.188,13.186,20.497,13.14z"/>
		<path fill="#AAA48B" d="M21.667,52.106c0.136,0.063,0.192,0.248,0.373,0.243c1.197,1.205,2.395,2.41,3.589,3.618
			c0.096,0.097,0.229,0.166,0.265,0.314c-0.141,0.093-0.208-0.025-0.286-0.103c-1.289-1.288-2.579-2.577-3.865-3.868
			C21.694,52.261,21.553,52.223,21.667,52.106z"/>
		<path fill="#AAA48B" d="M20.497,13.14c-0.205,0.17-0.411,0.341-0.616,0.511c0.003-0.148,0.12-0.221,0.208-0.31
			c1.233-1.235,2.468-2.469,3.703-3.702c0.097-0.097,0.178-0.227,0.345-0.216c-0.051,0.087-0.087,0.19-0.157,0.259
			C22.821,10.836,21.658,11.987,20.497,13.14z"/>
		<path fill="#151517" d="M29.299,4.48c-0.898,0.91-1.796,1.821-2.695,2.73C26.298,7.52,25.99,7.828,25.68,8.133
			c-0.084,0.083-0.151,0.227-0.313,0.131c1.201-1.297,2.48-2.517,3.725-3.771c0.06-0.06,0.104-0.15,0.208-0.154
			C29.345,4.385,29.343,4.433,29.299,4.48z"/>
		<path fill="#151517" d="M36.787,57.5c0.002-0.131,0.1-0.201,0.181-0.282c1.021-1.022,2.042-2.043,3.064-3.064
			c0.089-0.089,0.168-0.199,0.317-0.187c-0.22,0.348-0.518,0.627-0.807,0.913c-0.763,0.755-1.528,1.508-2.292,2.262
			C37.096,57.263,37.042,57.513,36.787,57.5z"/>
		<path fill="#151517" d="M43.889,50.475c0.002-0.131,0.101-0.201,0.181-0.282c0.995-0.996,1.99-1.991,2.986-2.986
			c0.089-0.089,0.168-0.2,0.318-0.188c-0.229,0.392-0.576,0.68-0.891,0.995c-0.706,0.705-1.42,1.403-2.131,2.103
			C44.198,50.237,44.145,50.488,43.889,50.475z"/>
		<path fill="#A7A189" d="M43.889,50.475c0.154-0.119,0.308-0.238,0.463-0.357c-0.004,0.148-0.12,0.221-0.209,0.31
			c-0.898,0.901-1.798,1.8-2.699,2.698c-0.093,0.093-0.169,0.25-0.347,0.137C42.004,52.31,42.937,51.383,43.889,50.475z"/>
		<path fill="#A7A189" d="M36.787,57.5c0.154-0.119,0.308-0.238,0.463-0.357c-0.007,0.163-0.14,0.24-0.237,0.337
			c-0.88,0.883-1.76,1.765-2.645,2.643c-0.098,0.097-0.172,0.285-0.373,0.165C34.902,59.336,35.834,58.408,36.787,57.5z"/>
		<path fill="#0E0E11" d="M29.299,4.48c0-0.047,0-0.095,0-0.142c0.334-0.307,0.667-0.615,1.001-0.922
			C30.056,3.855,29.657,4.148,29.299,4.48z"/>
		<path fill="#B0A98F" d="M20.653,51.124c0.326,0.23,0.582,0.534,0.852,0.822C21.107,51.79,20.865,51.473,20.653,51.124z"/>
		<path fill="#B0A98F" d="M50.218,22.853c-0.027,0-0.055,0-0.082,0c-0.019,0-0.037-0.001-0.056-0.003
			c-0.028-0.257-0.057-0.513-0.085-0.77C50.275,22.279,50.105,22.607,50.218,22.853z"/>
		<path fill="#B1AA90" d="M31.23,61.624c0.25,0.151,0.428,0.379,0.621,0.591C31.53,62.137,31.37,61.891,31.23,61.624z"/>
		<path fill="#151416" d="M49.381,20.147c-0.165-0.201-0.298-0.413-0.247-0.691C49.287,19.661,49.374,19.89,49.381,20.147z"/>
		<path fill="#090A0C" d="M48.832,18.832c-0.172-0.019-0.215-0.093-0.171-0.299C48.719,18.633,48.776,18.733,48.832,18.832z"/>
		<path fill="#030308" d="M13.95,22.159c0.227,0.057,0.111,0.234,0.103,0.373c-0.03-0.098-0.059-0.196-0.089-0.293
			C13.96,22.212,13.955,22.186,13.95,22.159z"/>
		<path fill="#FEFEFE" d="M30.038,31.129c0.124,0.068,0.112,0.184,0.112,0.301c-0.001,6.637-0.001,13.274-0.002,19.911
			c0,0.025-0.008,0.051-0.012,0.076c-0.045,0.098-0.027,0.202-0.027,0.303c-0.001,1.985-0.001,3.97,0,5.955
			c0,0.102-0.016,0.205,0.025,0.304c0.038,0.167-0.023,0.198-0.152,0.101c-0.151-0.113-0.304-0.226-0.436-0.359
			c-1.321-1.324-2.638-2.653-3.957-3.98c-0.041-0.07-0.068-0.147-0.004-0.212c0.069-0.069,0.144-0.02,0.208,0.019
			c0.133,0.081,0.235,0.199,0.344,0.307c1.128,1.126,2.254,2.254,3.383,3.379c0.097,0.096,0.172,0.223,0.316,0.267
			c0.085-0.075,0.049-0.171,0.049-0.254c0.002-1.722,0.003-3.445,0.001-5.167c0-0.472-0.013-0.489-0.482-0.416
			c-1.752,0.273-3.523,0.381-5.28,0.61c-0.46-0.452-0.919-0.906-1.382-1.355c-0.06-0.058-0.081-0.124-0.096-0.198
			c-0.515-0.46-0.981-0.971-1.475-1.452c-0.875-0.874-1.749-1.747-2.622-2.622c-0.951-0.949-1.901-1.898-2.849-2.85
			c-0.106-0.106-0.244-0.191-0.279-0.355l0.013,0.013c-0.132-0.097-0.065-0.237-0.065-0.355c-0.004-5.769-0.004-11.537-0.001-17.306
			c0-0.123-0.046-0.258,0.048-0.371c0.02-0.626,0.04-1.251,0.06-1.877c-0.051-0.072-0.031-0.151-0.022-0.229
			c0.039-0.087,0.014-0.209,0.136-0.25c0.24,0.173,0.154,0.421,0.121,0.635c-0.059,0.385-0.037,0.769-0.049,1.154
			c-0.006,0.202,0.048,0.294,0.269,0.204c1.084-0.439,2.18-0.848,3.291-1.217c0.061-0.02,0.122-0.047,0.171-0.088
			c0.285-0.241,0.336-0.083,0.323,0.188c-0.108,0.36-0.146,0.726-0.146,1.102c0.004,5.356,0.008,10.713-0.006,16.069
			c-0.001,0.431,0.079,0.771,0.429,1.042c0.181,0.14,0.331,0.322,0.492,0.486c0.846,0.844,1.692,1.69,2.537,2.537
			c0.098,0.098,0.222,0.181,0.249,0.334c0.738,0.735,1.476,1.469,2.214,2.204c0.099,0.099,0.193,0.203,0.289,0.304
			c0.072,0.067,0.139,0.091,0.195-0.02c0.028-0.399,0.012-0.797,0.012-1.195c-0.001-4.082,0.006-8.163-0.003-12.244
			c-0.007-0.07-0.025-0.136-0.072-0.191c-0.631-0.615-1.349-1.127-2.028-1.684c-0.297-0.243-0.551-0.549-0.915-0.706
			c-0.086-0.072-0.108-0.166-0.108-0.274c0.003-0.96-0.002-1.921,0.003-2.881c0-0.042,0.024-0.071,0.042-0.105
			c0.186-0.05,0.339,0.12,0.524,0.079c0.257,0.11,0.552,0.124,0.782,0.306c1.146,0.413,2.275,0.877,3.465,1.16
			c0.314,0.12,0.653,0.177,0.936,0.376c0.196,0.078,0.383,0.191,0.608,0.165C29.483,30.922,29.794,30.939,30.038,31.129z"/>
		<path fill="#FEFEFE" d="M43.728,22.235c-0.029-0.094-0.058-0.188-0.087-0.282c0.028-0.225,0.143-0.084,0.177-0.024
			c0.16,0.281,0.438,0.327,0.712,0.398c1.115,0.291,2.218,0.622,3.308,0.997c0.416,0.143,0.417,0.139,0.379-0.282
			c-0.012-0.127-0.038-0.258,0.084-0.353c0.106,0.016,0.073,0.133,0.133,0.182c0.061,0.038,0.05,0.084,0.017,0.134
			c0.045,0.497,0.09,0.994,0.135,1.491c0.099,0.14,0.048,0.299,0.048,0.448c0.003,6.091,0.002,12.182,0.003,18.272
			c0.008,0.133-0.019,0.262-0.116,0.354c-0.304,0.289-0.549,0.642-0.923,0.856c-0.141-0.031-0.246,0.048-0.354,0.117
			c-1.792,1.139-3.651,2.161-5.553,3.101c-2.342,1.156-4.744,2.175-7.202,3.058c-0.274,0.098-0.384,0.236-0.383,0.529
			c0.009,2.044,0.005,4.089,0.005,6.133c0,0.051-0.006,0.103,0.035,0.165c0.132-0.021,0.194-0.142,0.278-0.225
			c1.166-1.162,2.329-2.326,3.493-3.489c0.109-0.109,0.208-0.232,0.352-0.296c0.062-0.028,0.156-0.075,0.146,0.07
			c-1.285,1.294-2.572,2.587-3.855,3.883c-0.217,0.219-0.425,0.448-0.629,0.679c-0.078,0.088-0.096-0.04-0.148-0.025
			c-0.022-0.013-0.029-0.026-0.022-0.039c0.007-0.013,0.014-0.02,0.021-0.02c0.029-0.029,0.058-0.058,0.088-0.087
			c0.044-0.111,0.025-0.228,0.025-0.342c0.001-2.165,0.001-4.33,0-6.495c0-0.114,0.02-0.231-0.026-0.342
			c-0.005-0.115-0.013-0.231-0.013-0.346c-0.001-6.302-0.001-12.604,0.002-18.906c0-0.144-0.066-0.314,0.108-0.417
			c0.249-0.19,0.56-0.218,0.844-0.317c0.218,0.014,0.4-0.094,0.592-0.17c0.277-0.232,0.634-0.257,0.957-0.37
			c1.023-0.25,1.996-0.648,2.981-1.009c0.39-0.238,0.837-0.319,1.263-0.458c0.18,0.041,0.323-0.139,0.505-0.085
			c0.094,0.376,0.033,0.758,0.04,1.137c0.012,0.574,0.005,1.148,0.002,1.722c-0.001,0.135,0.041,0.287-0.107,0.383
			c-1.004,0.766-1.98,1.568-2.942,2.385c-0.04,0.06-0.06,0.127-0.07,0.198c-0.012,4.428-0.003,8.855-0.005,13.283
			c0,0.064,0.002,0.128,0.022,0.189c0.059,0.074,0.121,0.063,0.185,0.004c0.75-0.742,1.501-1.483,2.25-2.226
			c0.09-0.089,0.169-0.188,0.254-0.283c0.027-0.153,0.15-0.235,0.248-0.334c0.844-0.846,1.689-1.692,2.536-2.536
			c0.784-0.545,0.945-1.289,0.935-2.224c-0.049-4.521-0.019-9.043-0.025-13.565c-0.001-0.948,0.064-1.899-0.078-2.844
			c-0.072-0.408-0.196-0.799-0.378-1.172C43.82,22.665,43.725,22.47,43.728,22.235z"/>
		<path fill="#E7E7E7" d="M19.653,23.867c-0.058-0.014,0.048-0.213-0.081-0.101c-0.103,0.089-0.204,0.14-0.324,0.18
			c-1.141,0.379-2.27,0.792-3.378,1.258c-0.251,0.105-0.34,0.057-0.319-0.226c0.034-0.458-0.034-0.918,0.07-1.377
			c0.036-0.16,0.071-0.357-0.056-0.517c-0.072-0.18-0.074-0.359,0.003-0.538c0.101-0.004,0.083-0.115,0.141-0.157
			c0.195-0.503,0.365-1.013,0.474-1.542c0.02-0.078,0.041-0.156,0.061-0.234c0.119-0.475,0.339-0.899,0.637-1.284
			c0.661-1.065,1.4-2.08,2.286-2.961c0.676-0.673,1.415-1.298,2.258-1.774c1.314-0.3,2.627-0.601,3.952-0.848
			c0.145-0.027,0.254-0.118,0.379-0.182c0.247,0.363,0.424,0.758,0.536,1.182c0.044,0.379,0.373,0.639,0.425,1.016
			c0,0.003,0.048-0.037,0.084-0.027c0.123,0.197,0.254,0.39,0.265,0.633c0.124,0.31,0.248,0.619,0.372,0.929
			c0.08,0.441,0.288,0.833,0.482,1.229l-0.006-0.005c0.054,0.244,0.262,0.429,0.268,0.692c0.183,0.269,0.287,0.574,0.399,0.876
			c0.041,0.312-0.207,0.239-0.355,0.241c-0.898,0.014-1.796,0.006-2.695,0.007c-0.269,0-0.539,0-0.808-0.001
			c-0.158,0-0.305-0.036-0.446-0.104c-0.072-0.139-0.144-0.278-0.215-0.417c-0.119-0.128-0.186-0.284-0.239-0.447l0.006,0.006
			c-0.11-0.247-0.242-0.486-0.249-0.767c-0.052-0.141-0.103-0.283-0.159-0.435c-1.157,0.743-1.904,1.811-2.612,2.916
			c-0.133,0.123-0.249,0.254-0.244,0.451c-0.098,0.232-0.196,0.465-0.294,0.697c-0.024,0.224-0.103,0.426-0.246,0.602
			c-0.138,0.275-0.239,0.562-0.293,0.866C19.77,23.789,19.779,23.861,19.653,23.867z"/>
		<path fill="#E7E7E7" d="M48.3,22.689c-0.069,0.293,0.153,0.574,0.026,0.901c-0.329-0.108-0.656-0.212-0.981-0.322
			c-0.923-0.311-1.857-0.584-2.799-0.827c-0.337-0.087-0.71-0.12-0.844-0.53c-0.012,0.004-0.025,0.006-0.035,0.013
			c-0.01,0.007-0.017,0.019-0.025,0.029c-0.099-0.124-0.166-0.264-0.209-0.415c0.005-0.197-0.111-0.328-0.243-0.451
			c-0.39-0.561-0.728-1.17-1.185-1.67c-0.415-0.454-0.845-0.924-1.409-1.227c-0.103,0.118-0.142,0.266-0.176,0.416
			c-0.014,0.272-0.165,0.496-0.257,0.74c-0.167,0.296-0.143,0.691-0.468,0.906c-0.134,0.049-0.271,0.079-0.414,0.08
			c-1.167,0.003-2.335,0.006-3.502-0.004c-0.155-0.001-0.391,0.059-0.374-0.239c0.115-0.299,0.236-0.595,0.388-0.878
			c0.06-0.236,0.204-0.439,0.269-0.673c0.169-0.414,0.426-0.793,0.502-1.245c0.124-0.309,0.248-0.619,0.372-0.928
			c-0.005-0.276,0.179-0.478,0.278-0.713c0.056,0.015,0.07,0.052,0.078,0.108c0.005,0.031,0.016-0.016,0.016-0.017
			c0.034-0.376,0.335-0.641,0.414-0.998c-0.006-0.017-0.014-0.034-0.016-0.052c-0.001-0.008,0.008-0.018,0.013-0.027
			c0.255-0.379,0.441-0.788,0.543-1.234c0.045-0.169,0.105-0.331,0.219-0.467c0.778,0.15,1.572,0.167,2.352,0.3
			c0.156,0.027,0.305,0.042,0.435-0.074c0.115,0.032,0.163,0.11,0.156,0.227c0.04,0.112,0.129,0.181,0.221,0.247
			c0.395,0.734,1.181,1.006,1.777,1.501c0.578,0.48,1.215,0.914,1.651,1.524c0.225,0.315,0.527,0.536,0.762,0.833
			c0.46,0.581,0.874,1.188,1.283,1.802c0.297,0.386,0.511,0.814,0.637,1.285c0.021,0.078,0.041,0.156,0.062,0.235
			c0.089,0.525,0.296,1.018,0.413,1.535c0.057,0.097-0.037,0.23,0.075,0.314L48.3,22.689z"/>
		<path fill="#E6E6E6" d="M38.412,53.586c-0.184-0.069-0.23,0.11-0.313,0.192c-1.242,1.231-2.478,2.469-3.712,3.709
			c-0.099,0.1-0.17,0.227-0.238,0.319c-0.194-0.091-0.141-0.194-0.141-0.272C34.005,55.385,34.01,53.238,34,51.09
			c-0.001-0.248,0.077-0.357,0.308-0.439c2.176-0.774,4.303-1.666,6.393-2.651c2.29-1.079,4.501-2.297,6.645-3.641
			c0.08-0.05,0.174-0.215,0.251,0.007c-0.007,0.147-0.124,0.22-0.212,0.309c-1.526,1.529-3.054,3.057-4.583,4.583
			c-0.089,0.088-0.16,0.207-0.305,0.219c-1.076,1.094-2.151,2.19-3.23,3.282C38.987,53.041,38.697,53.311,38.412,53.586z"/>
		<path fill="#958F7A" d="M31.676,18.841c-0.552-1.283-1.105-2.565-1.658-3.848c-0.05-0.117-0.11-0.23-0.165-0.344
			c-0.065-0.056-0.136-0.11-0.09-0.212c-0.65-1.558-1.301-3.116-1.952-4.673c-0.153-0.366-0.31-0.73-0.464-1.096
			c-0.037-0.088-0.126-0.182,0.013-0.262c0.457,0.18,0.958,0.228,1.395,0.465c-0.032,0.242,0.218,0.11,0.289,0.215
			c0.299,0.307,0.459,0.704,0.69,1.054c0.067,0.102,0.126,0.209,0.18,0.318c0.057,0.127,0.139,0.24,0.217,0.354
			c0.321,0.538,0.613,1.091,0.895,1.649c0.042,0.113,0.118,0.21,0.158,0.322c0.009,0.021,0.013,0.061,0.025,0.064
			c0.036,0.008,0.031-0.001-0.001-0.026c-0.04-0.031,0.014,0.009-0.018-0.033c-0.041-0.113-0.105-0.214-0.158-0.32
			c-0.225-0.429-0.439-0.862-0.627-1.309c-0.049-0.118-0.11-0.232-0.087-0.366c0.321-0.598,0.888-0.922,1.443-1.236
			c0.654-0.369,1.36-0.611,2.126-0.628c0.185,0.012,0.376-0.029,0.553,0.058c0.073,0.05,0.096,0.129,0.067,0.2
			c-0.296,0.724-0.542,1.472-1.005,2.118c-0.424,0.203-0.908,0.221-1.329,0.433c0.152,0.348,0.499,0.525,0.718,0.813
			c0.035,0.044,0.061,0.093,0.068,0.15c-0.236,0.6-0.437,1.217-0.816,1.75c-0.196,0.009-0.083,0.203-0.165,0.28
			c-0.02,0.06-0.023,0.122-0.024,0.186c-0.002,1.163,0.001,2.325-0.001,3.487c0,0.127,0.01,0.257-0.032,0.38
			C31.873,18.925,31.793,18.967,31.676,18.841z"/>
		<path fill="#E6E6E6" d="M24.123,52.274c0.208-0.257,0.53-0.203,0.787-0.223c1.591-0.125,3.176-0.293,4.751-0.552
			c0.206-0.034,0.338,0.008,0.337,0.273c-0.008,1.991-0.004,3.983-0.004,5.981c-0.185,0.011-0.247-0.141-0.338-0.232
			c-1.276-1.269-2.545-2.543-3.823-3.81c-0.054-0.053-0.215-0.39-0.244,0.029C25.076,53.276,24.587,52.787,24.123,52.274z"/>
		<path fill="#676355" d="M32.084,14.445c0.283-0.589,0.566-1.178,0.849-1.767c0.02-0.153,0.156-0.185,0.261-0.251
			c0.154-0.119,0.419-0.099,0.455-0.364c-0.114-0.128-0.284-0.104-0.425-0.155c-0.119-0.043-0.279-0.058-0.297-0.206
			c-0.019-0.153,0.131-0.203,0.248-0.256c0.103-0.046,0.228-0.058,0.28-0.183c0.406-0.712,0.717-1.468,1.021-2.227
			c0.06-0.176,0.221-0.202,0.368-0.236c0.598-0.137,1.199-0.262,1.799-0.393c0.151,0.017,0.145,0.095,0.093,0.211
			c-0.134,0.299-0.22,0.618-0.399,0.897c-0.108,0.128-0.223,0.253-0.175,0.442c-0.062,0.164-0.096,0.341-0.213,0.48
			c-0.084,0.05-0.123,0.119-0.088,0.218c-0.021,0.079-0.043,0.158-0.064,0.237c-0.032,0.286-0.159,0.532-0.317,0.766
			c-0.049,0.083-0.098,0.166-0.148,0.249c-0.108,0.128-0.22,0.255-0.174,0.443c-0.048,0.107-0.096,0.215-0.143,0.322
			c-0.186,0.163-0.197,0.413-0.305,0.614l0.001-0.004c-0.037,0.185-0.234,0.318-0.171,0.534c-0.149,0.362-0.298,0.725-0.447,1.087
			c0.019,0.109-0.016,0.193-0.112,0.249c-0.161,0.025-0.052,0.147-0.077,0.22c-0.006,0.05-0.009,0.102-0.064,0.127
			c-0.044,0.061-0.089,0.122-0.133,0.184c-0.131,0.18-0.278,0.353-0.254,0.599c-0.124,0.311-0.249,0.622-0.373,0.933
			c0.037,0.063,0,0.087-0.053,0.101c-0.023-0.011-0.045-0.023-0.068-0.035c-0.144,0.301-0.308,0.595-0.353,0.933
			c-0.125,0.31-0.25,0.621-0.375,0.931c0.006,0.179-0.095,0.316-0.178,0.46c-0.053-0.008-0.111-0.011-0.117-0.084
			c-0.025-1.587-0.014-3.174-0.001-4.76C31.958,14.644,32,14.534,32.084,14.445z"/>
		<path fill="#CBC6B2" d="M30.057,10.825c-0.111-0.084-0.163-0.206-0.211-0.33c0.011-0.137-0.038-0.24-0.165-0.3
			c-0.229-0.364-0.459-0.727-0.688-1.091c-0.087-0.035-0.159-0.093-0.23-0.151c-0.397-0.126-0.792-0.256-1.191-0.375
			c-0.101-0.03-0.202-0.04-0.211-0.173c0.361-0.306,0.634-0.706,0.992-1.005c0.853-0.713,1.561-1.577,2.402-2.289
			c0.366-0.31,0.665-0.705,1.089-0.948c0.141,0.132,0.106,0.307,0.108,0.47c0.008,0.653-0.005,1.305,0.008,1.957
			c0.042,0.21-0.091,0.325-0.229,0.449c-0.612,0.544-1.16,1.158-1.794,1.678c-0.256,0.21-0.246,0.424-0.116,0.71
			c0.189,0.416,0.444,0.809,0.518,1.273C30.293,10.85,30.226,10.951,30.057,10.825z"/>
		<path fill="#A49E86" d="M36.643,8.407c-0.126,0.235-0.376,0.181-0.574,0.233c-0.528,0.141-1.082,0.181-1.592,0.396
			c-0.208-0.002-0.416-0.004-0.625-0.006c0.03-0.233,0.241-0.115,0.365-0.188c-0.647-0.602-1.284-1.21-1.955-1.781
			c-0.157-0.134-0.307-0.275-0.335-0.499c-0.008-0.704-0.001-1.407-0.004-2.11c0-0.141-0.001-0.282,0.072-0.41
			c0.192-0.095,0.248,0.087,0.314,0.181c0.23,0.325,0.494,0.61,0.837,0.814c0.212,0.126,0.374,0.293,0.523,0.489
			c0.215,0.28,0.447,0.55,0.762,0.731c0.268,0.154,0.464,0.375,0.651,0.625c0.178,0.238,0.38,0.473,0.656,0.624
			C36.126,7.716,36.398,8.049,36.643,8.407z"/>
		<path fill="#D7D7D7" d="M25.757,13.562c0.001,0.163-0.062,0.231-0.242,0.267c-1.245,0.25-2.497,0.473-3.723,0.811
			c-0.136,0.038-0.25,0.018-0.366-0.048c0.877-0.534,1.23-1.499,1.841-2.252c0.403-0.496,0.749-1.039,1.105-1.571
			c0.1-0.149,0.138-0.183,0.218,0.001c0.387,0.894,0.778,1.785,1.165,2.679C25.768,13.481,25.756,13.524,25.757,13.562z"/>
		<path fill="#D7D7D7" d="M41.267,13.193c0.005,0.115,0.076,0.286-0.154,0.236c-0.773-0.168-1.565-0.184-2.345-0.297
			c-0.132-0.019-0.2-0.096-0.288-0.164c0.271-0.797,0.667-1.539,1.006-2.374c0.364,0.514,0.705,0.98,1.028,1.457
			C40.769,12.428,41.099,12.757,41.267,13.193z"/>
		<path d="M19.653,23.867c0.027-0.055,0.054-0.109,0.081-0.164c0.083,0.069,0.083,0.162,0.049,0.247
			c-0.172,0.431-0.135,0.882-0.135,1.33c-0.001,5.295,0.004,10.59-0.01,15.885c-0.001,0.408,0.091,0.712,0.407,0.97
			c0.197,0.16,0.354,0.369,0.529,0.557c0.034,0.036,0.032,0.069-0.008,0.099c-0.311-0.305-0.618-0.614-0.935-0.912
			c-0.105-0.099-0.129-0.204-0.128-0.34c0.003-5.614,0-11.227,0.008-16.841C19.512,24.421,19.604,24.144,19.653,23.867z"/>
		<path d="M44.349,24.01c0.105,0.279,0.147,0.567,0.147,0.867c-0.002,5.489-0.004,10.979,0.005,16.468
			c0,0.294-0.072,0.508-0.293,0.7c-0.27,0.235-0.517,0.496-0.775,0.746c-0.04-0.03-0.042-0.063-0.008-0.099
			c0.075-0.087,0.136-0.193,0.227-0.258c0.584-0.422,0.721-0.977,0.717-1.692c-0.032-5.319-0.021-10.638-0.006-15.956
			C44.365,24.526,44.176,24.269,44.349,24.01z"/>
		<path fill="#060607" d="M33.779,58.064c-0.004,0.02-0.004,0.039,0.001,0.059c-0.178-0.076-0.076-0.23-0.076-0.338
			c-0.007-4.219-0.006-8.439-0.006-12.658c0-4.477,0-8.954,0-13.43c0-0.139,0-0.278,0-0.417c0.025-0.001,0.05-0.001,0.076-0.002
			c0,0.143,0,0.285,0,0.428c0,8.606,0,17.212,0,25.819C33.774,57.704,33.778,57.884,33.779,58.064z"/>
		<path fill="#060607" d="M30.236,58.107c0-8.939,0-17.877,0-26.816c0.013,0,0.025,0,0.038,0c0,8.944,0,17.888,0,26.832
			C30.262,58.118,30.249,58.112,30.236,58.107z"/>
		<path d="M48.584,43.358c-0.006-0.102-0.017-0.205-0.017-0.307c-0.001-6.083-0.001-12.166,0-18.249
			c0-0.102,0.012-0.204,0.018-0.307c0.012-0.264,0.024-0.527,0.037-0.791c0.018,0,0.035,0.001,0.053,0.001
			c0,6.586,0,13.172,0,19.757C48.591,43.474,48.547,43.451,48.584,43.358z"/>
		<path fill="#020202" d="M15.415,25.422c0.006,0.128,0.018,0.256,0.018,0.383c0.001,5.883,0,11.765,0,17.648
			c-0.163-0.071-0.106-0.218-0.106-0.336c-0.003-6.397-0.002-12.794-0.002-19.191c0-0.074,0.01-0.148,0.09-0.222
			C15.415,24.277,15.415,24.85,15.415,25.422z"/>
		<path fill="#131314" d="M48.584,43.358c0.03,0.035,0.06,0.07,0.091,0.105c-0.074,0.088-0.142,0.181-0.222,0.262
			c-1.885,1.887-3.77,3.775-5.664,5.653c-0.057,0.057-0.104,0.358-0.293,0.099c1.7-1.704,3.4-3.407,5.101-5.111
			C47.955,44.058,48.302,43.74,48.584,43.358z"/>
		<path d="M38.012,34.419c0.028-0.023,0.057-0.047,0.085-0.07c0.001,4.413,0,8.826,0.007,13.239c0,0.146-0.105,0.345,0.125,0.434
			c-0.042,0.052-0.084,0.103-0.126,0.155c-0.22-0.054-0.112-0.232-0.112-0.346c-0.009-1.503-0.006-3.007-0.006-4.511
			c0-2.827,0-5.654,0.001-8.481C37.986,34.699,37.96,34.556,38.012,34.419z"/>
		<path d="M25.903,34.371c0.049-0.022,0.069,0.009,0.085,0.048c0.05,0.124,0.026,0.254,0.026,0.382
			c0.001,4.331,0.002,8.661-0.006,12.992c0,0.123,0.126,0.317-0.111,0.384c-0.042-0.052-0.084-0.103-0.126-0.155
			c0.23-0.089,0.125-0.288,0.125-0.434C25.903,43.182,25.902,38.777,25.903,34.371z"/>
		<path fill="#E6E6E6" d="M33.865,50.798c0.098,0.094,0.066,0.216,0.066,0.328c0.002,2.174,0.002,4.348,0,6.522
			c0,0.112,0.032,0.234-0.064,0.329C33.866,55.585,33.866,53.192,33.865,50.798z"/>
		<path fill="#E6E6E6" d="M30.133,57.978c-0.096-0.095-0.064-0.217-0.064-0.329c-0.002-1.968-0.002-3.936,0-5.905
			c0-0.112-0.032-0.234,0.067-0.328C30.135,53.604,30.134,55.791,30.133,57.978z"/>
		<path fill="#010101" d="M15.42,43.441c1.051,1.058,2.102,2.116,3.153,3.174c0.02,0.022,0.025,0.043,0.017,0.064
			c-0.008,0.02-0.016,0.03-0.023,0.03c-1.021-1.009-2.041-2.018-3.062-3.026C15.437,43.614,15.397,43.539,15.42,43.441z"/>
		<path fill="#F4F4F3" d="M35.476,19.995c-0.027,0.131-0.058,0.238,0.157,0.237c1.265-0.009,2.529-0.013,3.794,0.011
			c0.1,0.002,0.193-0.23,0.292-0.017c0.026,0.014,0.037,0.03,0.032,0.049c-0.006,0.02-0.012,0.03-0.02,0.03
			c-0.029,0.031-0.058,0.062-0.086,0.093c-0.044,0.021-0.09,0.03-0.139,0.026c-1.38-0.012-2.759-0.028-4.139,0.009
			c-0.076,0.012-0.142-0.004-0.197-0.061c0.097-0.187,0.194-0.375,0.291-0.562C35.524,19.866,35.519,19.929,35.476,19.995z"/>
		<path fill="#040404" d="M20.566,42.791c0.003-0.033,0.005-0.066,0.008-0.099c0.87,0.859,1.74,1.718,2.61,2.577
			c0.069,0.068,0.091,0.151,0.083,0.244C22.367,44.606,21.467,43.698,20.566,42.791z"/>
		<path fill="#030304" d="M43.426,42.692c0.003,0.033,0.005,0.066,0.008,0.099c-0.9,0.907-1.801,1.814-2.701,2.722
			c-0.009-0.094,0.014-0.176,0.083-0.244C41.686,44.41,42.556,43.551,43.426,42.692z"/>
		<path fill="#070707" d="M18.567,46.708c0.002-0.031,0.004-0.062,0.006-0.093c0.898,0.853,1.77,1.732,2.623,2.63
			c0.021,0.021,0.027,0.041,0.019,0.06c-0.008,0.019-0.016,0.028-0.023,0.028C20.285,48.489,19.41,47.614,18.567,46.708z"/>
		<path fill="#D0CBB8" d="M31.995,4.042c-0.001,0.891-0.002,1.782-0.003,2.673c-0.023,0.027-0.047,0.026-0.071,0.001
			c-0.124-0.114-0.072-0.265-0.073-0.4c-0.006-0.718-0.004-1.436-0.004-2.154C31.851,4.068,31.907,4.035,31.995,4.042z"/>
		<path fill="#F4F4F3" d="M24.279,20.23c0.107-0.21,0.219,0.012,0.329,0.01c1.24-0.022,2.48-0.018,3.72-0.009
			c0.199,0.001,0.253-0.056,0.196-0.237c-0.034-0.042-0.029-0.077,0.016-0.108c0.136,0.107,0.132,0.292,0.237,0.417
			c-0.005,0.095-0.071,0.112-0.148,0.115c-1.378-0.01-2.756-0.016-4.134,0.004c-0.049,0.003-0.095-0.006-0.138-0.027
			C24.27,20.368,24.275,20.299,24.279,20.23z"/>
		<path fill="#99937C" d="M31.998,14.668c0,1.51,0,3.019-0.001,4.529c0,0.111,0.045,0.232-0.062,0.324
			c-0.031-0.099-0.062-0.197-0.093-0.296c0.094-1.444,0.021-2.89,0.044-4.335c0.001-0.053-0.009-0.101-0.04-0.145
			c0.026-0.026,0.051-0.052,0.077-0.077C31.948,14.63,31.973,14.632,31.998,14.668z"/>
		<path fill="#9B957E" d="M31.846,14.746c0.108,0.087,0.076,0.21,0.076,0.321c0.002,1.28,0.002,2.559,0,3.839
			c0,0.111,0.031,0.234-0.08,0.319c-0.1-0.109-0.131-0.247-0.166-0.385c0.294,0.068,0.163-0.166,0.164-0.261
			C31.848,17.302,31.846,16.024,31.846,14.746z"/>
		<path fill="#040405" d="M39.642,20.457c0.025,0.12-0.071,0.076-0.117,0.077c-1.371,0.002-2.742,0.002-4.113,0.002
			c-0.089,0-0.181,0.007-0.247-0.074c0.154-0.075,0.32-0.08,0.487-0.08c1.193,0,2.386,0,3.579,0
			C39.373,20.382,39.515,20.378,39.642,20.457z"/>
		<path fill="#303031" d="M28.68,20.37c0.057,0.015,0.078-0.024,0.096-0.066c0.019,0.052,0.039,0.105,0.058,0.157
			c-0.303,0.076-0.61,0.03-0.915,0.032c-1.062,0.007-2.124,0.004-3.186,0.001c-0.125,0-0.256,0.034-0.375-0.037
			c-0.001-0.02-0.002-0.041-0.003-0.061c0.027-0.009,0.053-0.017,0.08-0.026c0.956-0.06,1.913-0.016,2.869-0.023
			C27.762,20.344,28.222,20.313,28.68,20.37z"/>
		<path fill="#040405" d="M24.358,20.457c1.492,0.002,2.984,0.003,4.476,0.005c-0.044,0.023-0.088,0.067-0.131,0.067
			c-1.435,0.005-2.87,0.005-4.305,0.006c-0.011,0-0.03-0.006-0.032-0.014C24.359,20.501,24.36,20.478,24.358,20.457z"/>
		<path fill="#303031" d="M39.642,20.457c-1.492,0.001-2.984,0.003-4.477,0.004c0.002-0.03,0.003-0.061,0.005-0.091
			c0.05,0,0.1-0.001,0.15-0.001c1.275-0.059,2.551-0.011,3.827-0.024c0.139-0.001,0.281-0.025,0.418,0.025
			c0.027,0.009,0.053,0.017,0.08,0.026C39.644,20.417,39.643,20.437,39.642,20.457z"/>
		<path fill="#010101" d="M22.896,28.72c0.003,0.95,0.006,1.899,0.008,2.849c0,0.14-0.017,0.281,0.056,0.411
			c-0.157,0.002-0.146-0.116-0.146-0.216c-0.001-0.961,0-1.921,0.001-2.882C22.814,28.816,22.838,28.759,22.896,28.72z"/>
		<path fill="#010101" d="M41.039,31.963c0.096-0.139,0.054-0.296,0.055-0.446c0.006-0.932,0.007-1.865,0.01-2.797
			c0.106,0.069,0.083,0.179,0.083,0.279c0.001,0.886,0.001,1.772,0,2.658C41.187,31.781,41.221,31.925,41.039,31.963z"/>
		<path fill="#0E0E0E" d="M21.192,49.333c0.001-0.029,0.003-0.059,0.004-0.088c0.503,0.473,1.014,0.938,1.45,1.476
			c-0.393-0.165-0.603-0.536-0.903-0.805C21.544,49.738,21.374,49.528,21.192,49.333z"/>
		<path fill="#181818" d="M47.755,20.612c-0.212-0.428-0.425-0.857-0.637-1.285c0.029-0.052,0.087-0.078,0.114-0.024
			c0.2,0.391,0.394,0.785,0.582,1.183C47.827,20.512,47.776,20.569,47.755,20.612z"/>
		<path fill="#EFEFEF" d="M16.184,20.846c0.071,0.057,0.065,0.128,0.041,0.206c-0.122,0.399-0.245,0.798-0.36,1.199
			c-0.025,0.088-0.072,0.128-0.156,0.137C15.773,21.845,15.965,21.342,16.184,20.846z"/>
		<path fill="#161617" d="M27.067,16.366c-0.105-0.205-0.211-0.41-0.316-0.616c-0.179-0.168-0.251-0.376-0.226-0.618
			C26.875,15.468,27.065,15.875,27.067,16.366z"/>
		<path fill="#181818" d="M16.882,19.328c-0.212,0.428-0.425,0.856-0.637,1.284c-0.088-0.069-0.072-0.151-0.029-0.236
			c0.169-0.338,0.336-0.676,0.507-1.013C16.757,19.297,16.803,19.221,16.882,19.328z"/>
		<path fill="#EAEAEA" d="M38.261,13.434c-0.002,0.49-0.192,0.898-0.543,1.234C37.844,14.233,38.067,13.84,38.261,13.434z"/>
		<path fill="#EAEAEA" d="M37.721,14.747c0.012,0.408-0.275,0.707-0.395,1.066c-0.013,0.037-0.03,0.032-0.075-0.139
			c-0.078-0.22,0.122-0.356,0.164-0.539C37.589,15.062,37.577,14.843,37.721,14.747z"/>
		<path fill="#EAEAEA" d="M36.562,17.294c0.162,0.215-0.06,0.35-0.114,0.517c-0.082,0.255-0.173,0.51-0.353,0.719
			c-0.033-0.017-0.057-0.043-0.07-0.078C36.204,18.066,36.383,17.68,36.562,17.294z"/>
		<path fill="#EFEFEF" d="M48.211,22.389c-0.151-0.47-0.305-0.939-0.45-1.411c-0.011-0.035,0.036-0.087,0.055-0.132
			c0.197,0.467,0.393,0.935,0.399,1.455c0.02,0.02,0.026,0.04,0.018,0.059C48.226,22.38,48.218,22.389,48.211,22.389z"/>
		<path fill="#101010" d="M40.598,28.806c-0.389,0.239-0.837,0.319-1.263,0.458C39.685,28.914,40.141,28.859,40.598,28.806z"/>
		<path fill="#E9E9EA" d="M27.92,18.524c-0.247-0.376-0.504-0.748-0.482-1.229C27.627,17.693,27.836,18.084,27.92,18.524z"/>
		<path fill="#161617" d="M37.415,15.135c0.039,0.208-0.175,0.339-0.164,0.539c-0.106,0.231-0.211,0.461-0.317,0.692
			c-0.164-0.194,0.036-0.324,0.094-0.471C37.132,15.631,37.192,15.34,37.415,15.135z"/>
		<path fill="#EAEAEA" d="M26.524,15.132c0.017,0.228,0.136,0.418,0.226,0.618c-0.016,0.03-0.031,0.059-0.047,0.089
			c-0.156-0.358-0.429-0.671-0.411-1.094C26.369,14.873,26.447,15.002,26.524,15.132z"/>
		<path fill="#121212" d="M39.731,20.304c-0.004-0.026-0.008-0.053-0.012-0.079c0.132-0.308,0.263-0.616,0.395-0.923
			c0.067-0.014,0.104-0.001,0.072,0.077C40.085,19.711,40.06,20.082,39.731,20.304z"/>
		<path fill="#0E0E0F" d="M28.603,30.642c-0.333-0.073-0.657-0.167-0.936-0.376C28.01,30.314,28.374,30.309,28.603,30.642z"/>
		<path fill="#6A6658" d="M32.605,18.214c-0.058-0.399,0.193-0.688,0.356-1.009c0.015,0.031,0.03,0.062,0.045,0.094
			c0.018,0.016,0.023,0.032,0.016,0.046c-0.007,0.014-0.014,0.022-0.02,0.022C32.87,17.649,32.738,17.932,32.605,18.214z"/>
		<path fill="#0E0E0F" d="M36.354,30.273c-0.282,0.22-0.646,0.225-0.957,0.37C35.633,30.303,35.998,30.3,36.354,30.273z"/>
		<path fill="#121212" d="M30.038,31.129c-0.284-0.085-0.588-0.119-0.827-0.322c0.319-0.004,0.605,0.099,0.871,0.267
			c0.002,0.001-0.007,0.023-0.014,0.032C30.06,31.116,30.048,31.122,30.038,31.129z"/>
		<path fill="#121212" d="M34.805,30.812c-0.252,0.184-0.554,0.234-0.844,0.317c0.027-0.249,0.263-0.17,0.399-0.246
			C34.493,30.809,34.648,30.782,34.805,30.812z"/>
		<path fill="#E9E9E9" d="M35.476,19.995c-0.005-0.062-0.01-0.124-0.015-0.186c0.075-0.244,0.16-0.483,0.304-0.697
			c0.053,0.019,0.059,0.078,0.095,0.112C35.732,19.48,35.604,19.738,35.476,19.995z"/>
		<path fill="#131314" d="M40.186,19.379c-0.024-0.026-0.048-0.051-0.072-0.077c0.102-0.232,0.203-0.463,0.305-0.695
			C40.539,18.923,40.308,19.134,40.186,19.379z"/>
		<path fill="#141416" d="M35.479,11.657c0.106-0.255,0.211-0.51,0.317-0.766C35.835,11.206,35.755,11.472,35.479,11.657z"/>
		<path fill="#E9E9E9" d="M28.539,19.887c-0.005,0.036-0.01,0.072-0.016,0.108c-0.128-0.257-0.256-0.514-0.384-0.771
			c0.035-0.041,0.074-0.046,0.117-0.014C28.379,19.424,28.543,19.621,28.539,19.887z"/>
		<path fill="#121212" d="M20.028,22.838c0.046-0.215,0.128-0.416,0.246-0.602c0.114,0.286-0.101,0.477-0.202,0.701
			C20.057,22.904,20.042,22.871,20.028,22.838z"/>
		<path fill="#101011" d="M24.202,29.106c-0.278-0.057-0.557-0.114-0.782-0.306C23.713,28.82,24.012,28.825,24.202,29.106z"/>
		<path fill="#EBEBEB" d="M35.86,19.223c-0.032-0.037-0.063-0.075-0.095-0.112c0.087-0.22,0.173-0.44,0.26-0.66
			c0.023,0.026,0.047,0.052,0.07,0.078C36.112,18.793,35.884,18.974,35.86,19.223z"/>
		<path fill="#161718" d="M33.84,15.5c0.004-0.046,0.008-0.091,0.013-0.137c-0.044-0.101,0.032-0.158,0.082-0.225
			c0.053-0.078,0.106-0.157,0.158-0.235c0.146,0.274-0.11,0.425-0.192,0.63c-0.001,0.002-0.024,0-0.034-0.006
			C33.856,15.521,33.849,15.509,33.84,15.5z"/>
		<path fill="#121213" d="M43.728,22.235c0.081,0.201,0.162,0.402,0.243,0.603c-0.014,0.033-0.029,0.066-0.043,0.099
			C43.83,22.712,43.61,22.522,43.728,22.235z"/>
		<path fill="#696556" d="M34.709,13.285c-0.019-0.253,0.13-0.455,0.222-0.669c0.051-0.119,0.064,0.017,0.084,0.055
			c-0.027,0.099-0.054,0.199-0.081,0.298c0.051,0.089-0.021,0.118-0.077,0.154C34.807,13.177,34.758,13.231,34.709,13.285z"/>
		<path fill="#EBEBEB" d="M28.257,19.21c-0.039,0.005-0.078,0.009-0.117,0.014c-0.02-0.252-0.266-0.433-0.225-0.705
			C28.114,18.707,28.205,18.949,28.257,19.21z"/>
		<path fill="#131313" d="M23.581,18.606c0.101,0.25,0.256,0.482,0.249,0.767C23.672,19.141,23.472,18.924,23.581,18.606z"/>
		<path fill="#6F6B5B" d="M33.453,16.283c-0.094-0.276,0.041-0.454,0.254-0.599C33.623,15.883,33.538,16.083,33.453,16.283z"/>
		<path fill="#060606" d="M15.569,22.546c-0.001,0.179-0.002,0.359-0.003,0.538c-0.025,0.085-0.05,0.171-0.075,0.256
			c-0.094-0.063-0.009-0.187-0.087-0.256C15.545,22.932,15.389,22.687,15.569,22.546z"/>
		<path fill="#F0F0F0" d="M20.568,21.538c-0.047-0.22,0.008-0.384,0.244-0.451C20.73,21.237,20.649,21.388,20.568,21.538z"/>
		<path fill="#F0F0F0" d="M43.189,21.087c0.233,0.068,0.291,0.231,0.243,0.451C43.351,21.388,43.27,21.237,43.189,21.087z"/>
		<path fill="#6A6657" d="M34.54,13.816c-0.131-0.238,0.044-0.378,0.171-0.534C34.755,13.492,34.585,13.634,34.54,13.816z"/>
		<path fill="#6A6657" d="M35.158,12.349c-0.114-0.215-0.035-0.355,0.174-0.444C35.337,12.078,35.186,12.189,35.158,12.349z"/>
		<path fill="#121212" d="M23.824,19.367c0.143,0.115,0.209,0.271,0.239,0.447C23.81,19.758,23.845,19.547,23.824,19.367z"/>
		<path fill="#6A6657" d="M36.161,9.956c-0.113-0.215-0.037-0.356,0.175-0.442C36.278,9.661,36.22,9.809,36.161,9.956z"/>
		<path fill="#101013" d="M32.052,19.605c0.02-0.169,0.095-0.316,0.178-0.46C32.34,19.364,32.18,19.478,32.052,19.605z"/>
		<path fill="#010102" d="M15.404,23.085c0.093,0.064,0.067,0.168,0.087,0.256c-0.006,0.068-0.011,0.136-0.017,0.205
			C15.342,23.408,15.424,23.239,15.404,23.085z"/>
		<path fill="#FDFDFD" d="M48.211,22.389c0.001-0.029,0.003-0.058,0.004-0.087c0.2,0.092,0.032,0.269,0.09,0.393
			C48.172,22.624,48.225,22.496,48.211,22.389z"/>
		<path fill="#010102" d="M48.45,23.004c-0.006-0.045-0.011-0.089-0.017-0.134c0.012-0.058,0.024-0.116,0.047-0.223
			C48.532,22.805,48.552,22.91,48.45,23.004z"/>
		<path fill="#706C5C" d="M35.861,10.654c-0.101-0.125-0.088-0.204,0.088-0.218C35.919,10.509,35.89,10.581,35.861,10.654z"/>
		<path fill="#0F1013" d="M34.856,13.123c0.026-0.051,0.051-0.103,0.077-0.154c0.121,0.086,0.045,0.182-0.018,0.233
			C34.862,13.246,34.869,13.158,34.856,13.123z"/>
		<path fill="#0A0A0D" d="M29.762,14.436c0.03,0.071,0.06,0.142,0.09,0.212C29.666,14.644,29.664,14.562,29.762,14.436z"/>
		<path fill="#F5F5F5" d="M41.644,13.666c-0.151-0.013-0.226-0.094-0.221-0.247C41.546,13.457,41.602,13.556,41.644,13.666z"/>
		<path fill="#101012" d="M33.002,17.367c0.004-0.023,0.005-0.045,0.004-0.068c0.025-0.028,0.049-0.055,0.074-0.083
			c0.121,0.087,0.045,0.182-0.019,0.234C33.009,17.491,33.015,17.402,33.002,17.367z"/>
		<path fill="#49494A" d="M25.898,48.176c0.146-0.122,0.075-0.288,0.075-0.432c0.004-4.262,0.003-8.524,0.004-12.787
			c0-0.18,0.007-0.359,0.011-0.539c0.134,0.113,0.062,0.265,0.062,0.395c0.005,4.383,0.004,8.766,0.004,13.149
			C26.054,48.256,26.054,48.256,25.898,48.176z"/>
		<path fill="#49494A" d="M38.012,34.419c0.004,2.349,0.009,4.699,0.011,7.048c0.002,2.093-0.001,4.185,0.004,6.278
			c0,0.144-0.07,0.31,0.075,0.432c-0.032,0.072-0.079,0.156-0.149,0.052c-0.036-0.053-0.008-0.15-0.008-0.226
			c0-4.422-0.001-8.843,0.003-13.265C37.949,34.631,37.888,34.504,38.012,34.419z"/>
		<path fill="#B6AF97" d="M31.921,6.716c0.024-0.001,0.048-0.001,0.071-0.001c0.854,0.673,1.604,1.461,2.444,2.18
			c-0.19,0.141-0.428-0.029-0.585,0.136c-1.403,0.121-2.564,0.716-3.483,1.783c-0.062,0.007-0.103-0.005-0.069-0.081
			c-0.206-0.467-0.405-0.938-0.622-1.4c-0.111-0.235-0.117-0.403,0.102-0.597c0.687-0.61,1.353-1.243,2.026-1.87
			C31.851,6.823,31.883,6.766,31.921,6.716z"/>
		<path fill="#676355" d="M33.455,11.263c0.086,0.172-0.017,0.22-0.158,0.241c-0.128,0.019-0.233,0.076-0.345,0.177
			c0.196,0.158,0.415,0.159,0.616,0.203c0.107,0.023,0.201,0.03,0.206,0.166c-0.226,0.155-0.443,0.01-0.662-0.025
			c-0.189-0.03-0.376-0.07-0.563-0.108c-0.142-0.038-0.293-0.056-0.39-0.188c-0.001-0.052-0.181-0.1-0.034-0.142
			C32.563,11.462,33.011,11.368,33.455,11.263z"/>
		<path fill="#D0CBB7" d="M30.299,10.732c0.023,0.027,0.046,0.054,0.069,0.081c0.237,0.565,0.475,1.129,0.713,1.694
			c-0.028,0.032-0.055,0.03-0.082-0.002c-0.314-0.56-0.628-1.12-0.941-1.68C30.118,10.742,30.265,10.885,30.299,10.732z"/>
		<path fill="#D4CFBB" d="M32.158,11.728c0.125,0.033,0.251,0.065,0.376,0.098c-0.05,0.141,0.021,0.229,0.117,0.325
			c0.112,0.111,0.27,0.206,0.226,0.408c-0.013,0.012-0.026,0.024-0.039,0.036c-0.243-0.239-0.485-0.479-0.73-0.715
			C32.012,11.787,32.016,11.738,32.158,11.728z"/>
		<path fill="#D6D0BC" d="M33.233,12.501c-0.1,0.059-0.199,0.118-0.299,0.177c-0.032-0.028-0.063-0.055-0.095-0.083
			c0,0,0.011-0.011,0.011-0.011C33.049,12.351,33.078,12.345,33.233,12.501z"/>
		<path fill="#D3CEBA" d="M29.681,10.195c0.169,0.02,0.216,0.105,0.165,0.3C29.791,10.395,29.736,10.295,29.681,10.195z"/>
		<path fill="#8E8871" d="M28.762,8.953c0.108,0.002,0.188,0.048,0.23,0.151C28.85,9.168,28.78,9.022,28.67,8.993
			C28.701,8.979,28.731,8.966,28.762,8.953z"/>
		<path fill="#BDB8A3" d="M30.999,12.505c0.027,0.001,0.055,0.001,0.082,0.002c0.091,0.083,0.133,0.19,0.148,0.309
			c-0.027,0.031-0.052,0.028-0.076-0.004C31.102,12.71,31.05,12.608,30.999,12.505z"/>
		<path fill="#A5A08A" d="M31.153,12.812c0.025,0.002,0.051,0.003,0.076,0.004c0.038,0.057,0.076,0.114,0.138,0.206
			C31.203,12.996,31.197,12.886,31.153,12.812z"/>
		<path fill="#9B957E" d="M31.998,14.668c-0.025,0-0.05,0-0.075,0c0.024-0.096-0.002-0.228,0.161-0.223
			C32.055,14.519,32.027,14.594,31.998,14.668z"/>
		<path fill="#CBC6B2" d="M33.233,12.501c-0.163-0.134-0.254,0.063-0.383,0.083c-0.027-0.24-0.231-0.353-0.383-0.487
			c-0.19-0.168-0.036-0.202,0.068-0.27c0.413,0.074,0.826,0.149,1.239,0.223C33.75,12.388,33.429,12.37,33.233,12.501z"/>
		<path fill="#706C5C" d="M33.935,15.138c-0.027,0.075-0.054,0.15-0.082,0.225C33.737,15.236,33.788,15.17,33.935,15.138z"/>
		<path fill="#E6E6E6" d="M39.565,20.37c-1.415,0-2.83,0-4.245,0c0.082-0.086,0.19-0.065,0.291-0.065
			c1.221-0.001,2.443-0.001,3.664,0C39.376,20.305,39.483,20.284,39.565,20.37z"/>
		<path fill="#E6E6E6" d="M28.68,20.37c-1.415,0-2.83,0-4.245,0c0.07-0.075,0.162-0.066,0.252-0.066c1.247,0,2.494,0,3.741,0
			C28.517,20.304,28.609,20.295,28.68,20.37z"/>
	</g>
</g>
</svg>
