<?xml version="1.0" encoding="UTF-8" standalone="no"?>
<svg
   xmlns:dc="http://purl.org/dc/elements/1.1/"
   xmlns:cc="http://creativecommons.org/ns#"
   xmlns:rdf="http://www.w3.org/1999/02/22-rdf-syntax-ns#"
   xmlns:svg="http://www.w3.org/2000/svg"
   xmlns="http://www.w3.org/2000/svg"
   xmlns:sodipodi="http://sodipodi.sourceforge.net/DTD/sodipodi-0.dtd"
   xmlns:inkscape="http://www.inkscape.org/namespaces/inkscape"
   width="64"
   height="64"
   viewBox="0 0 48 48"
   version="1.1"
   id="svg76"
   sodipodi:docname="giant.svg"
   inkscape:version="0.92.3 (2405546, 2018-03-11)">
  <metadata
     id="metadata82">
    <rdf:RDF>
      <cc:Work
         rdf:about="">
        <dc:format>image/svg+xml</dc:format>
        <dc:type
           rdf:resource="http://purl.org/dc/dcmitype/StillImage" />
        <dc:title></dc:title>
      </cc:Work>
    </rdf:RDF>
  </metadata>
  <defs
     id="defs80" />
  <sodipodi:namedview
     pagecolor="#ffffff"
     bordercolor="#666666"
     borderopacity="1"
     objecttolerance="10"
     gridtolerance="10"
     guidetolerance="10"
     inkscape:pageopacity="0"
     inkscape:pageshadow="2"
     inkscape:window-width="1920"
     inkscape:window-height="1017"
     id="namedview78"
     showgrid="false"
     units="px"
     inkscape:pagecheckerboard="true"
     inkscape:zoom="2.4367816"
     inkscape:cx="-28.090608"
     inkscape:cy="-35.935393"
     inkscape:window-x="-8"
     inkscape:window-y="-8"
     inkscape:window-maximized="1"
     inkscape:current-layer="svg76" />
  <g
     id="#131006ff"
     transform="matrix(0.08,0,0,0.08,0,3.1196)">
    <path
       d="M 64.59,114.9 C 96.07,77 126.41,38.17 157.57,0.01 c 38.83,13.67 79.22,23.58 120.4,26.16 21.98,1.1 44.1,0.63 65.92,-2.43 33.47,-4.2 66.1,-13.28 98.13,-23.63 30.63,38.35 61.34,76.65 92.44,114.63 -0.05,2.29 -0.09,4.58 -0.13,6.88 13.02,1.46 25.95,7.45 33.77,18.25 7.87,9.87 9.69,22.84 10.47,35.05 0.1,7.1 0.96,14.16 0.7,21.26 3.07,4.4 7.44,7.59 11.29,11.26 3.11,2.66 5.98,5.66 9.44,7.9 v 1.28 c -1.18,0.56 -2.19,1.4 -3.1,2.31 -8.88,8.97 -17.8,17.89 -26.71,26.81 8.65,15.99 11.44,34.3 12.49,52.23 1.12,14.99 0.86,30.09 -0.86,45.02 -1.21,7.75 -3.48,16.67 -10.51,21.14 -14.75,6.15 -28.72,13.99 -43.06,21.01 -3.76,1.71 -7.22,4.16 -11.23,5.25 -5.37,0.58 -10.55,-1.65 -15.11,-4.25 -12.12,-7.15 -22.01,-17.43 -30.77,-28.3 -3.09,-3.7 -5.74,-7.74 -9.04,-11.26 C 420.53,415.22 366.17,477 299.37,522 h -0.11 C 238.97,476.35 184.84,421.8 143.77,358.07 c -5.68,9.8 -12.53,19.7 -23.05,24.75 -4.01,2.01 -8.83,3.67 -13.22,1.86 -16.31,-6.18 -32.49,-12.72 -48.69,-19.18 -4.41,-1.77 -9.26,-3.17 -12.54,-6.81 -3.73,-3.76 -5.44,-8.89 -7.02,-13.8 -2.89,-9.33 -3,-19.19 -3.45,-28.86 C 35.75,287.02 35.89,258.01 35.82,229 35.79,213.63 35.63,198.25 36.04,182.89 30.74,167.42 16.19,155.26 0,152.78 v -4.21 c 3.69,-2.35 8.08,-3.07 12.13,-4.57 17.75,-5.64 35.52,-11.2 53.25,-16.89 -0.41,-4.06 -0.72,-8.13 -0.79,-12.21 M 161.15,13.04 c -28.23,35.11 -56.34,70.31 -84.84,105.2 -0.32,1.8 -0.09,3.64 -0.07,5.45 12.28,-3.18 25.75,-2.82 37.16,3.1 8.76,-10.49 17.27,-21.18 25.8,-31.85 0.08,-4.02 0.29,-8.11 1.74,-11.91 3.74,-11.82 13.09,-20.51 19.22,-30.99 4.14,-9.86 1.33,-20.79 -0.05,-30.95 3.47,3.45 6.9,6.96 10.04,10.72 3.45,4.09 7.48,8 9.13,13.24 1.22,3.17 1.32,6.58 1.44,9.92 34.68,9.32 70.25,16 106.22,16.83 11.03,0.9 22.08,-0.04 33.11,-0.32 35.92,-1.96 71.36,-9.17 105.89,-19.02 20.64,26.02 41.62,51.78 62.47,77.62 0.3,2.15 -0.07,4.32 -0.16,6.47 8.92,-9.81 22.26,-14.18 35.18,-15.05 0.03,-1.64 -0.08,-3.3 -1.36,-4.47 C 493.78,82.59 466.03,47.72 438.08,13 392.51,27.54 345.11,38.32 297.03,37.73 250.68,37.89 204.93,27.64 161.15,13.04 M 169.78,43 c 0.01,4.77 -0.63,9.67 -3.07,13.85 -6.09,10.08 -15.23,18.54 -18.61,30.1 -1.79,8.08 -0.9,17.5 4.97,23.79 4.98,4.9 12.61,7.93 19.48,5.53 8.73,-2.1 14.4,-11.53 13.45,-20.22 -0.46,-5.7 -4,-10.41 -7.27,-14.85 -1.46,-1.79 -1.42,-4.17 -1.59,-6.35 -2.78,2.26 -3.08,5.97 -2.75,9.29 -3.73,-2.64 -6,-7.23 -4.84,-11.81 2.13,-9.48 5.7,-20.28 0.23,-29.33 m 349.25,88.27 c -10.36,1.3 -21.03,6.09 -26.7,15.23 -5.17,8.16 -5.51,18.13 -5.78,27.48 -0.42,17.48 3.19,36.04 15.03,49.52 8.46,10.23 17.18,20.25 25.17,30.86 4.18,5.81 8.72,11.51 11.43,18.21 3.74,9.69 3.67,20.27 3.48,30.49 -0.15,3.61 -0.59,7.65 -3.41,10.25 -2.58,2.2 -6.31,0.99 -8.69,-0.91 -4.36,-2.98 -6.25,-8.31 -6.76,-13.36 -0.86,-9.99 -0.53,-20.03 -0.61,-30.05 -0.09,-1.31 0.27,-3.26 -1.28,-3.85 -13.87,-7.2 -27.45,-14.95 -40.99,-22.73 2.7,5.66 5.99,11 9.28,16.32 1.34,3.58 0.93,7.49 1.3,11.24 0.66,7.72 1.34,15.5 3.26,23.04 3.18,10.95 10.27,20.13 17.34,28.86 10.47,12.6 22.83,23.9 37.15,31.97 5.73,2.88 13.42,5.73 19.21,1.57 4.84,-5.14 5,-12.71 5.88,-19.33 0.39,-9.7 1.34,-19.41 0.55,-29.1 -0.71,-16.49 -1.91,-33.35 -8.05,-48.84 -7.25,-16.59 -18.31,-31.19 -30.24,-44.68 -5.86,-6.71 -13.25,-13.14 -14.8,-22.39 -1.47,-8.43 -2.65,-17.59 0.87,-25.67 1.64,-3.92 6.64,-4.87 10.25,-3.35 3.65,1.88 4.86,6.2 5.29,9.99 0.84,7.76 0.36,15.6 0.54,23.4 14.75,4.73 29.46,9.64 43.9,15.25 -3.84,-3.85 -8.46,-7.2 -11.09,-12.06 -1.21,-12.19 -0.46,-24.59 -2.8,-36.68 -1.3,-8.6 -5.75,-16.67 -12.43,-22.26 -9.92,-8.39 -23.79,-10.32 -36.3,-8.42 M 71.04,135 c -16.89,5.31 -33.7,10.86 -50.59,16.15 5.73,1.52 11.26,3.83 16.33,6.91 2.91,1.95 6,4.05 7.54,7.31 1.51,2.65 0.87,5.77 0.97,8.67 -0.26,43.67 0.1,87.33 -0.1,131 0.12,12.71 -0.62,25.75 3.13,38.07 1.68,5.28 4.99,10.95 10.8,12.29 7.49,1.51 14.37,-2.97 19.97,-7.39 12.67,-10.17 20.21,-25.08 25.85,-40 1.67,4.95 3.28,9.92 4.91,14.88 7.24,-4.69 14.48,-9.4 21.63,-14.2 0.19,-30.43 0.11,-60.87 0.04,-91.3 -13.97,4.66 -27.98,9.26 -42.07,13.55 -0.36,8.76 -0.11,17.54 -0.13,26.32 2.67,-1 5.35,-1.96 8.03,-2.9 -0.04,10.22 -0.04,20.44 0,30.66 0.01,7.21 -0.56,14.81 -4.17,21.22 -2.06,3.35 -6.04,6.56 -10.2,5.25 -2.08,-1.35 -2.61,-4.03 -3.14,-6.28 -0.68,-6.37 -0.52,-12.8 -0.6,-19.21 -0.01,-32.65 0.02,-65.3 -0.02,-97.96 0.2,-7.58 0.38,-15.39 3.1,-22.57 1.53,-4.28 7.8,-6.61 11.03,-2.78 5.57,6.02 3.79,14.83 4.08,22.29 0.47,7.9 -4.12,14.65 -8.17,21 14.12,-4.48 28.18,-9.15 42.31,-13.63 -0.34,-12.75 1.74,-26.23 -3.65,-38.24 -4.63,-10.02 -13.59,-17.9 -24.03,-21.41 -10.78,-3.44 -22.47,-1.63 -32.85,2.3 m 78.74,-1.5 c -0.31,33.83 -1.36,67.64 -1.56,101.47 -0.87,17.71 -0.39,35.47 -1.15,53.18 -0.28,2.35 -0.42,4.73 -0.87,7.06 -1.56,3.57 -4.49,6.31 -6.48,9.64 13.44,-7.79 28.09,-13.14 42.62,-18.5 0.02,-10.12 0.51,-20.24 0.5,-30.37 0.92,-15.63 0.39,-31.32 1.31,-46.95 0.14,-25.21 1.34,-50.38 1.59,-75.58 -11.99,0.04 -23.97,-0.06 -35.96,0.05 m 55.45,-0.03 c 2.93,2.57 7.38,5.09 7.15,9.52 -7.43,46.93 -14.73,93.88 -21.99,140.84 16.15,-4.95 32.76,-8.12 49.3,-11.43 -3.5,-7.89 -8.09,-15.61 -8.77,-24.4 0.16,-1.11 0.3,-2.24 0.44,-3.35 6.41,-1.18 12.79,-2.66 19.31,-3.18 0.06,10.41 -3.13,20.48 -6.35,30.27 15.66,-2.31 31.44,-3.81 47.26,-4.2 -8.41,-44.57 -15.62,-89.35 -23.08,-134.08 -21.09,-0.01 -42.18,-0.02 -63.27,0.01 m 77.7,0.13 c 4.78,2.59 10.04,4.6 14.09,8.34 2.57,2.29 1.64,6.02 1.81,9.05 0.05,38.77 -0.4,77.54 -0.31,116.31 10.59,-0.2 21.18,0.14 31.77,0.42 -0.63,-21.1 -1.38,-42.2 -1.68,-63.31 1.48,-0.36 2.97,-0.73 4.47,-1.05 8.33,22.27 16.14,44.73 24.51,66.98 16.02,1.92 31.94,4.67 47.64,8.42 -4.82,-4.18 -10.15,-7.84 -14.29,-12.74 -1.71,-1.98 -3.61,-4.18 -3.63,-6.95 -0.53,-39.69 -2.02,-79.37 -2.09,-119.07 0.03,-2.21 -0.09,-4.42 -0.42,-6.6 -9.66,0.16 -19.33,-0.06 -28.99,0.12 0.31,19.85 0.87,39.71 0.58,59.57 -1.46,0.14 -2.92,0.28 -4.37,0.41 -7.97,-19.93 -14.91,-40.27 -23.28,-60.05 -15.27,0.1 -30.55,-0.19 -45.81,0.15 m 113.27,-0.26 c -0.22,11.32 -0.59,22.64 -0.58,33.97 8.67,-3.53 17.8,-5.87 27.14,-6.64 1.48,40.63 -2.08,81.2 -5.13,121.67 19.77,5.83 39.17,13.26 57.18,23.38 -3.27,-4.52 -6.85,-8.82 -10.5,-13.04 -2.3,-2.79 -6.35,-4.65 -6.37,-8.75 -1.82,-14.31 -3.02,-28.69 -4.3,-43.05 -1.79,-26.27 -3.99,-52.52 -4.43,-78.85 10.5,1.65 20.63,5.67 29.36,11.74 0.4,-13.47 0.17,-26.95 0.24,-40.43 -27.54,0.01 -55.07,0.02 -82.61,0 M 252.24,329.03 c -0.21,3.64 -0.15,7.28 0.01,10.93 5.88,1.56 11.58,3.67 17.37,5.5 -3.8,-4.45 -3.79,-10.54 -2.92,-16 0.58,-1.4 1.6,-3.31 3.44,-2.97 3.4,1.23 3.22,5.52 3.47,8.48 0.19,16 0.08,32 0.05,48.01 -0.19,2.21 0.34,4.87 -1.5,6.55 -3.52,0.2 -5.18,-3.65 -5.58,-6.56 -0.41,-5.82 -0.16,-11.67 -0.12,-17.5 1.02,0.43 2.03,0.87 3.06,1.31 0.06,-3.65 0.05,-7.31 0,-10.96 -5.81,-1.74 -11.53,-3.78 -17.32,-5.59 0.04,12.48 -0.37,25.01 0.2,37.45 2.91,1.91 5.99,3.55 8.96,5.38 0.56,-1.66 1.13,-3.32 1.68,-4.98 2.67,6.18 5.66,12.62 11.18,16.79 2.51,1.84 5.76,3.66 8.92,2.39 4.15,-2.42 4.38,-7.9 4.67,-12.18 0.1,-20.01 0.05,-40.02 0.03,-60.03 0.11,-2.42 -0.45,-5.07 0.85,-7.26 2.45,-2.69 5.94,-4.11 9.41,-4.95 -4.87,-2.14 -10.08,-3.34 -15.06,-5.15 -4.94,-1.44 -9.79,-3.73 -15.05,-3.43 -7.97,-0.11 -15.34,6.82 -15.75,14.77 m 74.36,-14.18 c -7.92,2.35 -15.71,5.11 -23.62,7.48 3.08,2.38 8.33,2.78 9.53,7.07 0.14,21.52 0.01,43.06 0.1,64.59 0.29,4.56 0.41,10.21 4.51,13.15 2.84,1.34 6.03,0.01 8.39,-1.69 5.75,-4.26 9.63,-10.69 11.68,-17.46 0.66,1.59 1.28,3.22 1.81,4.87 3.41,-1.35 6.34,-3.61 9.53,-5.39 -0.02,-12.41 0,-24.83 -0.01,-37.24 -5.76,1.65 -11.33,3.89 -17.14,5.37 -1.01,3.62 -0.33,7.39 -0.18,11.07 0.75,-0.29 2.26,-0.87 3.02,-1.16 -0.07,5.52 0.21,11.05 -0.13,16.56 -0.36,3.36 -2.01,8.15 -6.31,7.39 -0.7,-2.43 -1.11,-4.94 -1.05,-7.47 -0.04,-14.01 0.02,-28.03 -0.03,-42.04 0.1,-3.9 0,-8.02 1.5,-11.67 0.87,-2.43 4.34,-2.2 5.17,0.16 1.95,5.59 1.17,12.09 -2.24,16.99 5.74,-1.89 11.42,-3.98 17.28,-5.48 0.15,-3.64 0.26,-7.3 -0.03,-10.93 -0.49,-5.86 -4.46,-11.18 -9.82,-13.49 -3.72,-1.72 -8.05,-1.51 -11.96,-0.68 m 90.6,18.14 c -30.96,49.21 -69.24,94.12 -114.66,130.56 -0.83,0.53 -1.95,1.98 -2.94,0.86 -44.1,-36.71 -83.64,-79.16 -115.32,-127.08 -10.29,4.95 -20.39,10.32 -29.79,16.83 38.13,58.79 87.78,109.52 142.95,152.46 0.91,0.66 2.02,1.92 3.22,0.96 29.98,-20.72 57.01,-45.47 81.69,-72.24 24.46,-27.05 46.78,-56.16 65.7,-87.36 -9.93,-5.65 -19.99,-11.34 -30.85,-14.99 z"
       id="path47"
       inkscape:connector-curvature="0"
       style="opacity:1;fill:#131006" />
    <path
       d="m 239.71,164 c -0.24,-2.76 3.09,-1.48 4.77,-1.8 1.75,20.04 3.78,40.08 5.35,60.15 -6.29,0.62 -12.5,1.83 -18.78,2.47 2.47,-20.33 6.04,-40.51 8.66,-60.82 z"
       id="path49"
       inkscape:connector-curvature="0"
       style="opacity:1;fill:#131006" />
  </g>
  <g
     id="#5086c5ff"
     transform="matrix(0.08,0,0,0.08,0,3.1196)">
    <path
       d="m 161.15,13.04 c 43.78,14.6 89.53,24.85 135.88,24.69 48.08,0.59 95.48,-10.19 141.05,-24.73 27.95,34.72 55.7,69.59 83.99,104.03 1.28,1.17 1.39,2.83 1.36,4.47 -12.92,0.87 -26.26,5.24 -35.18,15.05 0.09,-2.15 0.46,-4.32 0.16,-6.47 -20.85,-25.84 -41.83,-51.6 -62.47,-77.62 -34.53,9.85 -69.97,17.06 -105.89,19.02 -11.03,0.28 -22.08,1.22 -33.11,0.32 -35.97,-0.83 -71.54,-7.51 -106.22,-16.83 -0.12,-3.34 -0.22,-6.75 -1.44,-9.92 -1.65,-5.24 -5.68,-9.15 -9.13,-13.24 -3.14,-3.76 -6.57,-7.27 -10.04,-10.72 1.38,10.16 4.19,21.09 0.05,30.95 -6.13,10.48 -15.48,19.17 -19.22,30.99 -1.45,3.8 -1.66,7.89 -1.74,11.91 -8.53,10.67 -17.04,21.36 -25.8,31.85 -11.41,-5.92 -24.88,-6.28 -37.16,-3.1 -0.02,-1.81 -0.25,-3.65 0.07,-5.45 28.5,-34.89 56.61,-70.09 84.84,-105.2 z"
       id="path52"
       inkscape:connector-curvature="0"
       style="opacity:1;fill:#5086c5" />
    <path
       d="m 417.2,332.99 c 10.86,3.65 20.92,9.34 30.85,14.99 -18.92,31.2 -41.24,60.31 -65.7,87.36 -24.68,26.77 -51.71,51.52 -81.69,72.24 -1.2,0.96 -2.31,-0.3 -3.22,-0.96 -55.17,-42.94 -104.82,-93.67 -142.95,-152.46 9.4,-6.51 19.5,-11.88 29.79,-16.83 31.68,47.92 71.22,90.37 115.32,127.08 0.99,1.12 2.11,-0.33 2.94,-0.86 45.42,-36.44 83.7,-81.35 114.66,-130.56 z"
       id="path54"
       inkscape:connector-curvature="0"
       style="opacity:1;fill:#5086c5" />
  </g>
  <g
     id="#ffffffff"
     transform="matrix(0.08,0,0,0.08,0,3.1196)">
    <path
       d="m 169.78,43 c 5.47,9.05 1.9,19.85 -0.23,29.33 -1.16,4.58 1.11,9.17 4.84,11.81 -0.33,-3.32 -0.03,-7.03 2.75,-9.29 0.17,2.18 0.13,4.56 1.59,6.35 3.27,4.44 6.81,9.15 7.27,14.85 0.95,8.69 -4.72,18.12 -13.45,20.22 -6.87,2.4 -14.5,-0.63 -19.48,-5.53 -5.87,-6.29 -6.76,-15.71 -4.97,-23.79 3.38,-11.56 12.52,-20.02 18.61,-30.1 2.44,-4.18 3.08,-9.08 3.07,-13.85 z"
       id="path57"
       inkscape:connector-curvature="0"
       style="opacity:1;fill:#ffffff" />
    <path
       d="m 519.03,131.27 c 12.51,-1.9 26.38,0.03 36.3,8.42 6.68,5.59 11.13,13.66 12.43,22.26 2.34,12.09 1.59,24.49 2.8,36.68 2.63,4.86 7.25,8.21 11.09,12.06 -14.44,-5.61 -29.15,-10.52 -43.9,-15.25 -0.18,-7.8 0.3,-15.64 -0.54,-23.4 -0.43,-3.79 -1.64,-8.11 -5.29,-9.99 -3.61,-1.52 -8.61,-0.57 -10.25,3.35 -3.52,8.08 -2.34,17.24 -0.87,25.67 1.55,9.25 8.94,15.68 14.8,22.39 11.93,13.49 22.99,28.09 30.24,44.68 6.14,15.49 7.34,32.35 8.05,48.84 0.79,9.69 -0.16,19.4 -0.55,29.1 -0.88,6.62 -1.04,14.19 -5.88,19.33 -5.79,4.16 -13.48,1.31 -19.21,-1.57 -14.32,-8.07 -26.68,-19.37 -37.15,-31.97 -7.07,-8.73 -14.16,-17.91 -17.34,-28.86 -1.92,-7.54 -2.6,-15.32 -3.26,-23.04 -0.37,-3.75 0.04,-7.66 -1.3,-11.24 -3.29,-5.32 -6.58,-10.66 -9.28,-16.32 13.54,7.78 27.12,15.53 40.99,22.73 1.55,0.59 1.19,2.54 1.28,3.85 0.08,10.02 -0.25,20.06 0.61,30.05 0.51,5.05 2.4,10.38 6.76,13.36 2.38,1.9 6.11,3.11 8.69,0.91 2.82,-2.6 3.26,-6.64 3.41,-10.25 0.19,-10.22 0.26,-20.8 -3.48,-30.49 -2.71,-6.7 -7.25,-12.4 -11.43,-18.21 -7.99,-10.61 -16.71,-20.63 -25.17,-30.86 -11.84,-13.48 -15.45,-32.04 -15.03,-49.52 0.27,-9.35 0.61,-19.32 5.78,-27.48 5.67,-9.14 16.34,-13.93 26.7,-15.23 z"
       id="path59"
       inkscape:connector-curvature="0"
       style="opacity:1;fill:#ffffff" />
    <path
       d="m 71.04,135 c 10.38,-3.93 22.07,-5.74 32.85,-2.3 10.44,3.51 19.4,11.39 24.03,21.41 5.39,12.01 3.31,25.49 3.65,38.24 -14.13,4.48 -28.19,9.15 -42.31,13.63 4.05,-6.35 8.64,-13.1 8.17,-21 -0.29,-7.46 1.49,-16.27 -4.08,-22.29 -3.23,-3.83 -9.5,-1.5 -11.03,2.78 -2.72,7.18 -2.9,14.99 -3.1,22.57 0.04,32.66 0.01,65.31 0.02,97.96 0.08,6.41 -0.08,12.84 0.6,19.21 0.53,2.25 1.06,4.93 3.14,6.28 4.16,1.31 8.14,-1.9 10.2,-5.25 3.61,-6.41 4.18,-14.01 4.17,-21.22 -0.04,-10.22 -0.04,-20.44 0,-30.66 -2.68,0.94 -5.36,1.9 -8.03,2.9 0.02,-8.78 -0.23,-17.56 0.13,-26.32 14.09,-4.29 28.1,-8.89 42.07,-13.55 0.07,30.43 0.15,60.87 -0.04,91.3 -7.15,4.8 -14.39,9.51 -21.63,14.2 -1.63,-4.96 -3.24,-9.93 -4.91,-14.88 -5.64,14.92 -13.18,29.83 -25.85,40 -5.6,4.42 -12.48,8.9 -19.97,7.39 -5.81,-1.34 -9.12,-7.01 -10.8,-12.29 -3.75,-12.32 -3.01,-25.36 -3.13,-38.07 0.2,-43.67 -0.16,-87.33 0.1,-131 -0.1,-2.9 0.54,-6.02 -0.97,-8.67 -1.54,-3.26 -4.63,-5.36 -7.54,-7.31 -5.07,-3.08 -10.6,-5.39 -16.33,-6.91 16.89,-5.29 33.7,-10.84 50.59,-16.15 z"
       id="path61"
       inkscape:connector-curvature="0"
       style="opacity:1;fill:#ffffff" />
    <path
       d="m 149.78,133.5 c 11.99,-0.11 23.97,-0.01 35.96,-0.05 -0.25,25.2 -1.45,50.37 -1.59,75.58 -0.92,15.63 -0.39,31.32 -1.31,46.95 0.01,10.13 -0.48,20.25 -0.5,30.37 -14.53,5.36 -29.18,10.71 -42.62,18.5 1.99,-3.33 4.92,-6.07 6.48,-9.64 0.45,-2.33 0.59,-4.71 0.87,-7.06 0.76,-17.71 0.28,-35.47 1.15,-53.18 0.2,-33.83 1.25,-67.64 1.56,-101.47 z"
       id="path63"
       inkscape:connector-curvature="0"
       style="opacity:1;fill:#ffffff" />
    <path
       d="m 205.23,133.47 c 21.09,-0.03 42.18,-0.02 63.27,-0.01 7.46,44.73 14.67,89.51 23.08,134.08 -15.82,0.39 -31.6,1.89 -47.26,4.2 3.22,-9.79 6.41,-19.86 6.35,-30.27 -6.52,0.52 -12.9,2 -19.31,3.18 -0.14,1.11 -0.28,2.24 -0.44,3.35 0.68,8.79 5.27,16.51 8.77,24.4 -16.54,3.31 -33.15,6.48 -49.3,11.43 7.26,-46.96 14.56,-93.91 21.99,-140.84 0.23,-4.43 -4.22,-6.95 -7.15,-9.52 M 239.71,164 c -2.62,20.31 -6.19,40.49 -8.66,60.82 6.28,-0.64 12.49,-1.85 18.78,-2.47 -1.57,-20.07 -3.6,-40.11 -5.35,-60.15 -1.68,0.32 -5.01,-0.96 -4.77,1.8 z"
       id="path65"
       inkscape:connector-curvature="0"
       style="opacity:1;fill:#ffffff" />
    <path
       d="m 282.93,133.6 c 15.26,-0.34 30.54,-0.05 45.81,-0.15 8.37,19.78 15.31,40.12 23.28,60.05 1.45,-0.13 2.91,-0.27 4.37,-0.41 0.29,-19.86 -0.27,-39.72 -0.58,-59.57 9.66,-0.18 19.33,0.04 28.99,-0.12 0.33,2.18 0.45,4.39 0.42,6.6 0.07,39.7 1.56,79.38 2.09,119.07 0.02,2.77 1.92,4.97 3.63,6.95 4.14,4.9 9.47,8.56 14.29,12.74 -15.7,-3.75 -31.62,-6.5 -47.64,-8.42 -8.37,-22.25 -16.18,-44.71 -24.51,-66.98 -1.5,0.32 -2.99,0.69 -4.47,1.05 0.3,21.11 1.05,42.21 1.68,63.31 -10.59,-0.28 -21.18,-0.62 -31.77,-0.42 -0.09,-38.77 0.36,-77.54 0.31,-116.31 -0.17,-3.03 0.76,-6.76 -1.81,-9.05 -4.05,-3.74 -9.31,-5.75 -14.09,-8.34 z"
       id="path67"
       inkscape:connector-curvature="0"
       style="opacity:1;fill:#ffffff" />
    <path
       d="m 396.2,133.34 c 27.54,0.02 55.07,0.01 82.61,0 -0.07,13.48 0.16,26.96 -0.24,40.43 -8.73,-6.07 -18.86,-10.09 -29.36,-11.74 0.44,26.33 2.64,52.58 4.43,78.85 1.28,14.36 2.48,28.74 4.3,43.05 0.02,4.1 4.07,5.96 6.37,8.75 3.65,4.22 7.23,8.52 10.5,13.04 -18.01,-10.12 -37.41,-17.55 -57.18,-23.38 3.05,-40.47 6.61,-81.04 5.13,-121.67 -9.34,0.77 -18.47,3.11 -27.14,6.64 -0.01,-11.33 0.36,-22.65 0.58,-33.97 z"
       id="path69"
       inkscape:connector-curvature="0"
       style="opacity:1;fill:#ffffff" />
    <path
       d="m 252.24,329.03 c 0.41,-7.95 7.78,-14.88 15.75,-14.77 5.26,-0.3 10.11,1.99 15.05,3.43 4.98,1.81 10.19,3.01 15.06,5.15 -3.47,0.84 -6.96,2.26 -9.41,4.95 -1.3,2.19 -0.74,4.84 -0.85,7.26 0.02,20.01 0.07,40.02 -0.03,60.03 -0.29,4.28 -0.52,9.76 -4.67,12.18 -3.16,1.27 -6.41,-0.55 -8.92,-2.39 -5.52,-4.17 -8.51,-10.61 -11.18,-16.79 -0.55,1.66 -1.12,3.32 -1.68,4.98 -2.97,-1.83 -6.05,-3.47 -8.96,-5.38 -0.57,-12.44 -0.16,-24.97 -0.2,-37.45 5.79,1.81 11.51,3.85 17.32,5.59 0.05,3.65 0.06,7.31 0,10.96 -1.03,-0.44 -2.04,-0.88 -3.06,-1.31 -0.04,5.83 -0.29,11.68 0.12,17.5 0.4,2.91 2.06,6.76 5.58,6.56 1.84,-1.68 1.31,-4.34 1.5,-6.55 0.03,-16.01 0.14,-32.01 -0.05,-48.01 -0.25,-2.96 -0.07,-7.25 -3.47,-8.48 -1.84,-0.34 -2.86,1.57 -3.44,2.97 -0.87,5.46 -0.88,11.55 2.92,16 -5.79,-1.83 -11.49,-3.94 -17.37,-5.5 -0.16,-3.65 -0.22,-7.29 -0.01,-10.93 z"
       id="path71"
       inkscape:connector-curvature="0"
       style="opacity:1;fill:#ffffff" />
    <path
       d="m 326.6,314.85 c 3.91,-0.83 8.24,-1.04 11.96,0.68 5.36,2.31 9.33,7.63 9.82,13.49 0.29,3.63 0.18,7.29 0.03,10.93 -5.86,1.5 -11.54,3.59 -17.28,5.48 3.41,-4.9 4.19,-11.4 2.24,-16.99 -0.83,-2.36 -4.3,-2.59 -5.17,-0.16 -1.5,3.65 -1.4,7.77 -1.5,11.67 0.05,14.01 -0.01,28.03 0.03,42.04 -0.06,2.53 0.35,5.04 1.05,7.47 4.3,0.76 5.95,-4.03 6.31,-7.39 0.34,-5.51 0.06,-11.04 0.13,-16.56 -0.76,0.29 -2.27,0.87 -3.02,1.16 -0.15,-3.68 -0.83,-7.45 0.18,-11.07 5.81,-1.48 11.38,-3.72 17.14,-5.37 0.01,12.41 -0.01,24.83 0.01,37.24 -3.19,1.78 -6.12,4.04 -9.53,5.39 -0.53,-1.65 -1.15,-3.28 -1.81,-4.87 -2.05,6.77 -5.93,13.2 -11.68,17.46 -2.36,1.7 -5.55,3.03 -8.39,1.69 -4.1,-2.94 -4.22,-8.59 -4.51,-13.15 -0.09,-21.53 0.04,-43.07 -0.1,-64.59 -1.2,-4.29 -6.45,-4.69 -9.53,-7.07 7.91,-2.37 15.7,-5.13 23.62,-7.48 z"
       id="path73"
       inkscape:connector-curvature="0"
       style="opacity:1;fill:#ffffff" />
  </g>
</svg>
