<svg id="Layer_1" data-name="Layer 1" xmlns="http://www.w3.org/2000/svg" viewBox="0 0 156.21 262.26" height="64" width="64"><defs><style>.cls-1{fill:#982e28;}.cls-2{fill:#992e28;}.cls-3{fill:#cd9a97;}</style></defs><title>Goliath_Gaming</title><path class="cls-1" d="M34.27,102.22c11.19,7.53,22.32,15.15,33.61,22.53,2.59,1.7,3.25,3.64,3.3,6.55.5,27.15,1,54.3,1.89,81.43.2,5.81,2.14,11.55,3.27,17.33l2.29.07c1.21-4.64,3.33-9.25,3.48-13.93,1-28.3,1.45-56.61,2.17-84.92,0-1.7.23-4.19,1.31-4.94,12-8.35,24.12-16.43,36.63-24.86,0,8,.14,15.24-.13,22.49,0,1.27-1.57,2.77-2.78,3.66-5.35,4-10.91,7.65-16.23,11.66-1.28,1-2.7,2.76-2.75,4.21-.81,23.81-1.41,47.62-2,71.43,0,.26.24.53.55,1.17,16.94-13.1,29.55-29,35.35-49.9,3.66-13.14,4.35-26.54,4.15-40.1q-.61-43-.71-85.95c0-3.68-1.3-5.77-4.46-6.7-10.31-3-20.67-5.86-32.17-9.09v7c0,18,0,36,.19,54,0,3.6-1,5.82-4,7.76-4.15,2.71-8,5.86-12.55,9.23V0c8.9.73,17.91.72,26.6,2.38a156.63,156.63,0,0,1,29.13,8.23c10.27,4.15,15,12.4,15,24.12-.17,31.65,0,63.31.82,95,1.12,43.23-16,78.56-45.62,108.69-7.92,8-16.25,15.68-24.79,23.89-6.66-14.42-12.43-28.45-19.51-41.78a82.87,82.87,0,0,1-10-44.5c.55-10.13,0-20.33-.43-30.47a10,10,0,0,0-3.4-6.36,103.06,103.06,0,0,0-13.86-9.78c-4.29-2.49-6.07-5.66-5.45-10.52a48.39,48.39,0,0,0-.06-6.48Z"/><path class="cls-2" d="M16.26,111.5C11,100.07,5.66,88.67.48,77.2A11,11,0,0,1,0,72.78c0-14,.18-28,.22-42C.25,23.74,3.28,18,9,14.35A77.54,77.54,0,0,1,26.45,6c14.2-4.6,29-5.47,44.2-5.65v102c-5.48-4.19-10.75-8-15.75-12.18-.83-.69-.66-2.78-.66-4.23q0-27.72.07-55.45V25.9C43.18,27,32.78,28.68,22.88,33c-3.91,1.71-5.34,4-5.31,8.33.19,23.3.09,46.61.09,69.92Z"/><path class="cls-3" d="M34.27,102.22l-1.2,10.15c-.27-3.24-.55-6.47-.71-9.71A10.78,10.78,0,0,1,34.27,102.22Z"/></svg>