<?xml version="1.0" encoding="utf-8"?>
<!-- Generator: Adobe Illustrator 23.0.2, SVG Export Plug-In . SVG Version: 6.00 Build 0)  -->
<svg version="1.1" id="Layer_1" xmlns="http://www.w3.org/2000/svg" xmlns:xlink="http://www.w3.org/1999/xlink" x="0px" y="0px"
	 width="64px" height="64px" viewBox="0 0 64 64" enable-background="new 0 0 64 64" xml:space="preserve">
<g>
	<path fill="#9F2214" stroke="#9F2214" stroke-width="0.0938" d="M22.539,0.618C25.1,0.187,27.695,0.016,30.289,0
		c0,8.327,0,16.655,0,24.974c-1.358-1.041-2.749-2.033-4.099-3.082c0.033-5.245,0.016-10.499,0.041-15.752
		c-0.96,0.187-1.935,0.252-2.895,0.431C21.205,6.92,19.05,7.49,17.22,8.677c-0.049,6.213-0.106,12.426-0.155,18.639
		c-0.008,0.057-0.016,0.171-0.016,0.228c-1.309-2.871-2.643-5.725-3.968-8.588c-0.089-0.22-0.252-0.431-0.228-0.675
		c0.033-3.716,0.057-7.425,0.106-11.141C13,6.164,13.374,5.213,13.984,4.456c0.773-0.976,1.838-1.659,2.944-2.196
		C18.7,1.423,20.62,0.96,22.539,0.618z"/>
	<path fill="#9F2214" stroke="#9F2214" stroke-width="0.0938" d="M33.598,0c2.204,0.016,4.416,0.146,6.595,0.439
		c2.09,0.301,4.18,0.732,6.132,1.545c1.26,0.529,2.488,1.236,3.407,2.277c0.724,0.813,1.171,1.879,1.195,2.968
		c0.073,8.539,0.155,17.078,0.22,25.616c0.033,3.529-0.504,7.059-1.61,10.409c-1.09,3.302-2.732,6.416-4.749,9.246
		c-1.626,2.293-3.489,4.408-5.481,6.392c-1.74,1.765-3.594,3.407-5.4,5.107c-2.196-4.765-4.399-9.531-6.603-14.296
		c-0.163-0.439-0.496-0.838-0.464-1.326c-0.073-4.635-0.171-9.279-0.244-13.922c-1.838-1.301-3.7-2.578-5.53-3.879
		c-0.024-1.968-0.089-3.936-0.138-5.904c3.123,2.098,6.245,4.188,9.368,6.294c0.155,7.351,0.317,14.703,0.48,22.046
		c0,0.358,0.13,0.691,0.236,1.025c0.293,0.805,0.594,1.602,0.943,2.383c0.374-0.886,0.789-1.748,1.049-2.675
		c0.073-0.236,0.089-0.488,0.081-0.74c0.163-7.343,0.35-14.695,0.504-22.038c3.123-2.106,6.254-4.196,9.376-6.294
		c-0.033,1.984-0.065,3.968-0.114,5.953c-1.789,1.277-3.594,2.513-5.367,3.798c-0.179,6.189-0.382,12.377-0.529,18.566
		c2.147-1.789,4.237-3.684,5.839-5.993c2.017-2.863,3.22-6.237,3.716-9.694c0.244-1.61,0.333-3.245,0.35-4.871
		c-0.073-7.921-0.138-15.841-0.203-23.754c-1.553-1.017-3.367-1.57-5.172-1.935c-1.269-0.268-2.562-0.374-3.838-0.602
		c0.008,5.261,0.049,10.515,0.041,15.776c-1.374,1-2.724,2.025-4.099,3.025c0.041-1.513,0.008-3.025,0.016-4.538
		C33.598,13.605,33.607,6.798,33.598,0z"/>
</g>
</svg>
