<?xml version="1.0" encoding="utf-8"?>
<!-- Generator: Adobe Illustrator 22.0.0, SVG Export Plug-In . SVG Version: 6.00 Build 0)  -->
<svg version="1.1" id="Camada_1" xmlns="http://www.w3.org/2000/svg" xmlns:xlink="http://www.w3.org/1999/xlink" x="0px" y="0px"
	 width="64px" height="64px" viewBox="0 0 64 64" style="enable-background:new 0 0 64 64;" xml:space="preserve">
<g>
	<g>
		<path style="fill:#F68931;" d="M47.573,57.387c-0.042-0.05-0.104-0.036-0.158-0.049c-0.846-0.199-1.499-0.662-1.937-1.418
			c-0.68-1.175-1.364-2.348-2.037-3.527c-1.205-2.111-2.45-4.199-3.69-6.29c-1.312-2.213-2.59-4.446-3.867-6.68
			c-0.681-1.191-1.379-2.372-2.083-3.549c-0.035-0.059-0.089-0.112-0.088-0.198c0.102-0.027,0.206-0.036,0.311-0.036
			c1.237,0,2.475-0.015,3.712,0.003c2.019,0.03,4.038,0.036,6.057,0.035c0.867-0.001,1.735,0,2.602-0.025
			c0.497-0.015,0.994-0.009,1.49-0.056c1.131-0.107,2.208-0.408,3.219-0.92c2.254-1.142,4.029-2.796,5.262-5.011
			c0.562-1.009,0.91-2.095,1.105-3.231c0.141-0.822,0.202-1.65,0.172-2.484c-0.057-1.587-0.453-3.088-1.171-4.502
			c-0.629-1.239-1.42-2.362-2.43-3.324c-1.055-1.005-2.282-1.734-3.635-2.258c-0.843-0.326-1.706-0.587-2.598-0.741
			c-0.611-0.105-1.228-0.148-1.846-0.149c-2.403-0.005-4.807-0.006-7.21-0.006c-4.935,0-9.869,0.005-14.804,0.002
			c-1.154-0.001-2.059-0.498-2.69-1.46c-1.229-1.874-0.089-4.451,2.123-4.817c0.098-0.016,0.197-0.029,0.295-0.044
			c0.135,0.001,0.27,0.003,0.404,0.003c3.794,0.002,7.587,0.004,11.381,0.005c1.783,0.001,3.566,0,5.349,0
			c0.106,0,0.213-0.004,0.319-0.006c1.016,0.013,2.032,0.005,3.047,0.034c0.788,0.022,1.577,0.011,2.365,0.037
			c0.917,0.03,1.827,0.115,2.732,0.267c1.779,0.298,3.472,0.851,5.074,1.681c1.85,0.958,3.449,2.242,4.872,3.754
			c2.092,2.223,3.54,4.803,4.289,7.767c0.235,0.93,0.423,1.87,0.453,2.833c0.002,0.063-0.003,0.129,0.036,0.185
			c0,0.654,0,1.308,0,1.963c-0.059,0.139-0.043,0.285-0.038,0.429c-0.006,0.121-0.005,0.242-0.019,0.362
			c-0.069,0.593-0.156,1.183-0.283,1.766c-0.492,2.266-1.346,4.382-2.626,6.32c-1.188,1.799-2.67,3.318-4.403,4.595
			c-1.747,1.288-3.66,2.227-5.77,2.759c-1.372,0.346-2.773,0.45-4.178,0.534c-0.589,0.035-1.178,0.065-1.766,0.099
			c-0.052,0.003-0.117-0.015-0.152,0.062c0.039,0.07,0.078,0.144,0.121,0.217c0.74,1.263,1.478,2.527,2.22,3.789
			c1.311,2.23,2.616,4.463,3.836,6.744c0.739,1.38,0.303,3.084-1.022,3.911c-0.429,0.268-0.868,0.515-1.378,0.598
			c-0.011,0.002-0.02,0.018-0.03,0.027C48.199,57.387,47.886,57.387,47.573,57.387z"/>
		<path style="fill:#FCDCC3;" d="M41.131,6.613c0,0.013,0,0.026,0.001,0.04c-0.106,0.002-0.213,0.006-0.319,0.006
			c-1.783,0-3.566,0.001-5.349,0c-3.794-0.001-7.587-0.003-11.381-0.005c-0.135,0-0.27-0.002-0.404-0.003
			c0.001-0.013,0.001-0.025,0.002-0.038C29.497,6.613,35.314,6.613,41.131,6.613z"/>
		<path style="fill:#F9B57D;" d="M0,38.059c0.025-0.003,0.05-0.006,0.075-0.009c0.011,0.26,0.027,0.52-0.024,0.779
			C0.035,38.91,0.035,39,0.05,39.082c0.053,0.288,0.035,0.576,0.024,0.864C0.049,39.943,0.025,39.939,0,39.936
			C0,39.31,0,38.684,0,38.059z"/>
		<path style="fill:#FCD7B9;" d="M64,25.6c-0.013,0.001-0.025,0.002-0.038,0.002c-0.006-0.145-0.021-0.29,0.038-0.429
			C64,25.316,64,25.458,64,25.6z"/>
		<path style="fill:#F68931;" d="M0.074,39.946c0.011-0.289,0.029-0.577-0.024-0.864C0.035,39,0.035,38.91,0.051,38.829
			c0.051-0.259,0.034-0.519,0.024-0.779c0.088-1.894,0.514-3.709,1.264-5.45c0.418-0.97,0.955-1.873,1.526-2.758
			c0.478-0.741,0.948-1.486,1.508-2.17c0.371-0.453,0.794-0.853,1.226-1.244c0.951-0.86,1.957-1.647,3.05-2.321
			c1.317-0.812,2.735-1.386,4.224-1.791c1.023-0.278,2.06-0.481,3.113-0.609c0.862-0.105,1.725-0.163,2.593-0.175
			c1.315-0.019,2.629,0.009,3.944,0.009c6.023-0.001,12.045,0.002,18.068,0.003c1.749,0,3.498,0.012,5.247-0.004
			c1.434-0.013,2.821,0.997,3.126,2.547c0.369,1.872-0.944,3.481-2.586,3.741c-0.191,0.03-0.381,0.041-0.573,0.041
			c-2.496,0.001-4.992,0.01-7.487-0.002c-5.902-0.027-11.803-0.004-17.705-0.012c-1.045-0.002-2.09-0.01-3.135,0.002
			c-1.769,0.019-3.423,0.492-4.978,1.319c-1.073,0.571-2.059,1.266-2.924,2.122c-1.044,1.034-1.837,2.237-2.372,3.608
			c-0.403,1.034-0.635,2.105-0.73,3.209c-0.186,2.17,0.158,4.241,1.194,6.168c1.404,2.612,3.492,4.45,6.289,5.466
			c0.736,0.267,1.486,0.483,2.258,0.617c0.428,0.074,0.859,0.115,1.294,0.117c3.121,0.018,6.243-0.01,9.364-0.01
			c0.341,0,0.682,0,1.024,0c0.068,0,0.136,0,0.194,0c0.028-0.063,0-0.092-0.018-0.12c-0.533-0.849-0.993-1.741-1.505-2.602
			c-0.989-1.662-1.971-3.327-2.991-4.969c-0.253-0.408-0.61-0.605-1.076-0.613c-0.704-0.012-1.408-0.013-2.112-0.016
			c-1.123-0.005-2.247-0.005-3.37-0.013c-1.473-0.011-2.701-0.941-3.084-2.33c-0.498-1.803,0.728-3.675,2.573-3.933
			c0.148-0.021,0.296-0.035,0.446-0.035c2.709,0.001,5.418-0.001,8.127,0.002c0.547,0.001,1.078,0.085,1.551,0.386
			c0.469,0.298,0.86,0.674,1.147,1.154c1.752,2.928,3.501,5.857,5.233,8.797c1.035,1.758,2.083,3.508,3.054,5.303
			c0.129,0.237,0.263,0.473,0.377,0.717c0.423,0.912,0.473,1.84,0.051,2.763c-0.427,0.933-1.19,1.461-2.168,1.7
			c-0.361,0.088-0.729,0.119-1.099,0.122c-0.981,0.008-1.962,0.003-2.943,0.025c-1.237,0.028-2.474,0.013-3.71,0.038
			c-1.18,0.024-2.36,0.025-3.54,0.02c-1.258-0.006-2.516-0.022-3.774-0.045c-0.838-0.016-1.677-0.036-2.514-0.082
			c-2.29-0.125-4.476-0.661-6.544-1.666c-1.508-0.732-2.865-1.683-4.115-2.794c-1.319-1.174-2.479-2.485-3.425-3.979
			c-1.127-1.78-1.886-3.705-2.281-5.774C0.217,41.673,0.104,40.814,0.074,39.946z"/>
	</g>
</g>
</svg>
