<?xml version="1.0" encoding="iso-8859-1"?>
<!-- Generator: Adobe Illustrator 16.0.0, SVG Export Plug-In . SVG Version: 6.00 Build 0)  -->
<!DOCTYPE svg PUBLIC "-//W3C//DTD SVG 1.1//EN" "http://www.w3.org/Graphics/SVG/1.1/DTD/svg11.dtd">
<svg version="1.1" id="Layer_1" xmlns="http://www.w3.org/2000/svg" xmlns:xlink="http://www.w3.org/1999/xlink" x="0px" y="0px"
	 width="64px" height="64px" viewBox="0 0 64 64" style="enable-background:new 0 0 64 64;" xml:space="preserve">
<g>
	<path style="fill-rule:evenodd;clip-rule:evenodd;fill:#CAD1D8;" d="M34.093,63.74c-0.017-0.042-0.055-0.062-0.092-0.082
		c-0.755-0.386-1.487-0.813-2.21-1.253c-0.408-0.25-0.807-0.513-1.213-0.766c-0.497-0.311-0.982-0.641-1.468-0.97
		c-0.951-0.646-1.884-1.315-2.798-2.01c-0.646-0.49-1.277-0.995-1.907-1.504c-0.419-0.338-0.823-0.693-1.232-1.041
		c-0.452-0.383-0.892-0.782-1.331-1.178c-0.439-0.398-0.863-0.814-1.295-1.221c-0.291-0.273-0.579-0.551-0.857-0.837
		c-0.447-0.46-0.892-0.924-1.324-1.397c-0.438-0.483-0.87-0.973-1.29-1.474c-0.423-0.504-0.831-1.02-1.233-1.542
		c-0.661-0.858-1.284-1.743-1.871-2.654c-0.444-0.691-0.873-1.394-1.256-2.123c-0.183-0.349-0.38-0.689-0.552-1.043
		c-0.49-1.006-0.944-2.029-1.321-3.084c-0.328-0.918-0.617-1.845-0.841-2.793c-0.14-0.598-0.266-1.2-0.359-1.809
		c-0.071-0.471-0.137-0.941-0.182-1.416c-0.028-0.3-0.054-0.601-0.073-0.901c-0.015-0.235-0.033-0.471-0.031-0.707
		c0.002-0.095-0.057-0.16-0.11-0.221C8.821,31.231,8.409,30.741,8,30.25c-0.451-0.538-0.894-1.081-1.336-1.625
		c-0.464-0.572-0.918-1.153-1.37-1.735c-0.104-0.133-0.21-0.265-0.316-0.396c-0.091-0.113-0.089-0.149,0.039-0.226
		c0.224-0.132,0.452-0.257,0.68-0.385c0.621-0.353,1.24-0.705,1.862-1.056c0.511-0.289,1.023-0.573,1.534-0.862
		c0.495-0.28,0.986-0.565,1.481-0.846c0.422-0.239,0.846-0.471,1.268-0.71c0.495-0.28,0.988-0.563,1.481-0.845
		c0.395-0.224,0.79-0.446,1.186-0.671c0.394-0.224,0.787-0.451,1.181-0.675c0.395-0.224,0.791-0.446,1.185-0.67
		c0.479-0.273,0.956-0.547,1.434-0.82c0.452-0.258,0.904-0.515,1.355-0.774c0.325-0.186,0.651-0.374,0.976-0.561
		c0.096-0.057,0.158-0.144,0.211-0.243c0.22-0.412,0.39-0.846,0.552-1.283c0.313-0.844,0.601-1.7,0.959-2.527
		c0.343-0.794,0.72-1.574,1.252-2.267c0.402-0.524,0.884-0.96,1.454-1.296c0.806-0.474,1.662-0.84,2.528-1.184
		c0.759-0.301,1.529-0.573,2.299-0.843c1.018-0.355,2.045-0.672,3.072-0.993c1.199-0.375,2.408-0.719,3.617-1.061
		c0.913-0.258,1.83-0.499,2.745-0.749c1.065-0.292,2.137-0.562,3.205-0.841c1.361-0.354,2.729-0.686,4.092-1.03
		c0.744-0.188,1.491-0.362,2.236-0.541c0.88-0.209,1.76-0.419,2.642-0.625c0.793-0.187,1.586-0.371,2.381-0.55
		c1.042-0.236,2.083-0.467,3.125-0.699c0.448-0.1,0.897-0.194,1.342-0.302c0.063-0.015,0.172,0.016,0.189-0.099
		c0.023,0,0.049,0,0.072,0c0.037,0.051,0.073,0.042,0.109,0c0.012,0,0.023,0,0.036,0c-0.012,0.338-0.002,0.676-0.027,1.016
		c-0.034,0.464-0.006,0.931-0.039,1.396c-0.015,0.217-0.025,0.436-0.053,0.65c-0.057,0.46-0.132,0.918-0.24,1.37
		c-0.24,0.991-0.584,1.945-1.03,2.862c-0.153,0.315-0.316,0.625-0.485,0.933c-0.341,0.622-0.728,1.214-1.144,1.787
		c-0.36,0.494-0.741,0.969-1.152,1.423c-0.288,0.32-0.603,0.613-0.899,0.924c-0.06,0.063-0.123,0.084-0.21,0.072
		c-0.233-0.035-0.467-0.063-0.702-0.066c-0.532-0.007-1.062,0.005-1.589,0.105c-0.521,0.099-1.021,0.251-1.483,0.514
		c-0.065,0.038-0.14,0.07-0.186,0.146c0.033,0.058,0.077,0.097,0.125,0.133c0.421,0.318,0.81,0.673,1.195,1.031
		c0.269,0.25,0.538,0.502,0.787,0.775c0.225,0.246,0.468,0.473,0.689,0.722c0.263,0.293,0.52,0.591,0.769,0.894
		c0.479,0.584,0.929,1.192,1.351,1.821c0.39,0.583,0.75,1.185,1.094,1.797c0.36,0.639,0.688,1.294,0.989,1.962
		c0.253,0.562,0.484,1.134,0.703,1.711c0.341,0.907,0.63,1.829,0.882,2.764c0.23,0.85,0.418,1.71,0.575,2.577
		c0.047,0.249,0.08,0.5,0.119,0.75c0.045,0.292,0.093,0.583,0.132,0.875c0.032,0.233,0.06,0.466,0.084,0.701
		c0.022,0.241,0.05,0.48,0.039,0.723c-0.001,0.031,0.008,0.061,0.035,0.081c0,0.8,0,1.601,0,2.401
		c-0.055,0.048-0.037,0.113-0.035,0.17c0.017,0.274-0.016,0.546-0.046,0.814c-0.046,0.413-0.104,0.824-0.17,1.234
		c-0.092,0.572-0.212,1.138-0.351,1.7c-0.209,0.845-0.476,1.674-0.778,2.491c-0.206,0.556-0.437,1.102-0.684,1.639
		c-0.209,0.458-0.431,0.908-0.667,1.352c-0.203,0.378-0.41,0.755-0.63,1.124c-0.505,0.854-1.05,1.682-1.637,2.482
		c-0.409,0.555-0.826,1.103-1.265,1.633c-0.375,0.452-0.758,0.895-1.149,1.331c-0.372,0.413-0.755,0.817-1.144,1.216
		c-0.287,0.294-0.583,0.581-0.883,0.864c-0.5,0.475-0.999,0.951-1.52,1.403c-0.394,0.34-0.776,0.692-1.178,1.021
		c-0.593,0.487-1.191,0.968-1.799,1.434c-0.881,0.672-1.776,1.318-2.691,1.94c-0.945,0.643-1.906,1.262-2.885,1.853
		c-0.57,0.343-1.145,0.678-1.723,1.007c-0.479,0.272-0.965,0.531-1.452,0.788c-0.673,0.357-1.354,0.698-2.053,1.007
		c-0.077,0.034-0.159,0.059-0.219,0.125C34.117,63.74,34.104,63.74,34.093,63.74z M34.178,61.887
		c0.278-0.138,0.552-0.269,0.821-0.406c4.514-2.327,8.7-5.133,12.475-8.538c1.888-1.702,3.617-3.55,5.132-5.592
		c1.385-1.868,2.552-3.859,3.41-6.025c0.807-2.031,1.298-4.134,1.422-6.317c0.062-1.103,0.034-2.205-0.106-3.302
		c-0.142-1.106-0.324-2.205-0.575-3.292c-0.529-2.289-1.308-4.485-2.405-6.566c-1.699-3.226-4.02-5.91-7.011-8.006
		c-0.045-0.03-0.1-0.05-0.123-0.118c0.087-0.237,0.207-0.467,0.352-0.685c0.426-0.647,1.009-1.107,1.705-1.428
		c1.113-0.514,2.294-0.671,3.508-0.63c0.15,0.005,0.256-0.024,0.363-0.14c0.751-0.813,1.419-1.689,1.995-2.634
		c1.014-1.659,1.723-3.427,1.892-5.384c0.013-0.159,0.035-0.318,0.007-0.478C57.012,2.348,57,2.348,56.989,2.351
		c-1.487,0.337-2.977,0.67-4.463,1.015c-2.794,0.648-5.584,1.318-8.364,2.021c-3.275,0.828-6.54,1.694-9.776,2.659
		c-1.955,0.584-3.899,1.197-5.806,1.927c-0.844,0.322-1.677,0.665-2.47,1.101c-0.384,0.212-0.742,0.458-1.028,0.797
		c-0.271,0.321-0.497,0.672-0.697,1.04c-0.365,0.672-0.646,1.382-0.914,2.097c-0.277,0.736-0.528,1.483-0.834,2.209
		c-0.136,0.324-0.284,0.642-0.473,0.941c-0.164,0.26-0.371,0.471-0.644,0.625c-0.843,0.477-1.679,0.969-2.522,1.448
		c-3.813,2.165-7.628,4.328-11.441,6.491c-0.065,0.037-0.131,0.079-0.193,0.116c0.025,0.074,0.072,0.115,0.108,0.162
		c1.108,1.396,2.248,2.765,3.427,4.103c0.051,0.059,0.097,0.109,0.095,0.204c-0.009,0.552,0.024,1.102,0.064,1.652
		c0.07,0.913,0.201,1.818,0.387,2.714c0.398,1.924,1.035,3.769,1.866,5.549c1.133,2.428,2.58,4.661,4.241,6.758
		c1.547,1.953,3.254,3.757,5.081,5.447c3.058,2.828,6.372,5.318,9.914,7.506C33.078,61.261,33.614,61.579,34.178,61.887z"/>
	<path style="fill-rule:evenodd;clip-rule:evenodd;fill:#FFFFFF;" d="M58.722,0.26c-0.036,0.042-0.072,0.051-0.109,0
		C58.649,0.26,58.686,0.26,58.722,0.26z"/>
	<path style="fill-rule:evenodd;clip-rule:evenodd;fill:#1B232D;" d="M34.178,61.887c-0.563-0.309-1.1-0.626-1.631-0.954
		c-3.542-2.188-6.856-4.678-9.914-7.506c-1.827-1.69-3.534-3.495-5.081-5.447c-1.661-2.097-3.108-4.33-4.241-6.758
		c-0.831-1.78-1.468-3.625-1.866-5.549c-0.186-0.896-0.316-1.801-0.387-2.714c-0.04-0.55-0.073-1.101-0.064-1.652
		c0.002-0.094-0.044-0.145-0.095-0.204c-1.179-1.337-2.318-2.707-3.427-4.103c-0.036-0.047-0.083-0.088-0.108-0.162
		c0.063-0.038,0.128-0.079,0.193-0.116c3.813-2.164,7.629-4.326,11.441-6.491c0.844-0.479,1.68-0.971,2.522-1.448
		c0.272-0.154,0.479-0.365,0.644-0.625c0.188-0.299,0.337-0.617,0.473-0.941c0.306-0.726,0.557-1.473,0.834-2.209
		c0.268-0.715,0.549-1.424,0.914-2.097c0.2-0.368,0.426-0.719,0.697-1.04c0.286-0.34,0.645-0.585,1.028-0.797
		c0.793-0.436,1.626-0.779,2.47-1.101c1.906-0.729,3.851-1.343,5.806-1.927c3.236-0.965,6.501-1.831,9.776-2.659
		c2.78-0.704,5.57-1.373,8.364-2.021c1.486-0.345,2.976-0.678,4.463-1.015C57,2.348,57.012,2.348,57.038,2.346
		c0.028,0.16,0.006,0.319-0.007,0.478c-0.169,1.957-0.878,3.725-1.892,5.384c-0.576,0.944-1.244,1.821-1.995,2.634
		c-0.107,0.115-0.213,0.145-0.363,0.14c-1.214-0.041-2.395,0.116-3.508,0.63c-0.696,0.321-1.279,0.781-1.705,1.428
		c-0.145,0.218-0.265,0.448-0.352,0.685c0.023,0.067,0.078,0.088,0.123,0.118c2.991,2.097,5.312,4.78,7.011,8.006
		c1.098,2.081,1.876,4.277,2.405,6.566c0.251,1.086,0.434,2.186,0.575,3.292c0.141,1.098,0.168,2.199,0.106,3.302
		c-0.124,2.184-0.615,4.287-1.422,6.317c-0.858,2.166-2.025,4.157-3.41,6.025c-1.515,2.042-3.244,3.89-5.132,5.592
		c-3.774,3.405-7.961,6.211-12.475,8.538C34.729,61.619,34.456,61.749,34.178,61.887z M44.607,10.628
		c0.285,0.543,0.493,1.115,0.592,1.748c0.033-0.044,0.047-0.058,0.055-0.073c0.718-1.407,1.844-2.361,3.281-2.97
		c1.025-0.434,2.102-0.646,3.208-0.711c0.104-0.006,0.197-0.006,0.274-0.104c0.34-0.433,0.672-0.871,0.959-1.342
		c0.353-0.525,0.648-1.082,0.913-1.669c-0.886,0.115-11.626,2.795-11.845,2.953c0.108,0.028,0.221,0.053,0.329,0.087
		c0.498,0.156,0.907,0.451,1.276,0.809C44.037,9.728,44.343,10.163,44.607,10.628z M42.565,42.27
		c0.072-0.056,0.123-0.127,0.161-0.208c-0.085,0.053-0.165,0.104-0.223,0.183c-0.098,0.082-0.194,0.164-0.293,0.246
		c-1.41,1.17-2.91,2.216-4.453,3.203c-1.066,0.682-2.15,1.333-3.259,1.944c-0.25,0.137-0.146,0.128-0.412,0.012
		c-0.188-0.083-0.372-0.176-0.556-0.268c-1.77-0.883-3.452-1.912-5.087-3.022c-1.258-0.855-2.475-1.768-3.662-2.719
		c-0.028-0.039-0.059-0.075-0.125-0.083c0.039,0.072,0.075,0.125,0.129,0.162c0.165,0.201,0.328,0.405,0.496,0.604
		c1.252,1.484,2.609,2.867,4.034,4.184c1.531,1.416,3.127,2.755,4.797,4.005c0.055,0.042,0.104,0.098,0.189,0.113
		c0-0.41,0-0.809,0-1.186c0.033-0.059,0.074-0.075,0.109-0.099c1.768-1.146,3.43-2.429,4.999-3.832
		C40.537,44.503,41.599,43.433,42.565,42.27z M44.863,15.027c-0.026-0.042-0.063-0.067-0.122-0.059
		c-0.294,1.003-0.405,2.005-0.062,3.016c0.283,0.833,0.795,1.507,1.441,2.089c-0.04-0.179-0.098-0.349-0.145-0.523
		c-0.146-0.547-0.221-1.101-0.183-1.669c0.015-0.236,0.07-0.466,0.086-0.701c0.079,0.001,0.135,0.053,0.195,0.09
		c0.331,0.208,0.609,0.476,0.854,0.777c0.638,0.779,1.041,1.667,1.236,2.65c0.12,0.598,0.138,1.199,0.046,1.803
		c-0.051,0.334-0.179,0.638-0.328,0.935c-0.117,0.139-0.214,0.293-0.336,0.428c-0.313,0.35-0.68,0.639-1.055,0.916
		c-0.521,0.386-1.055,0.754-1.559,1.164c-0.996,0.809-1.813,1.764-2.406,2.905c-0.501,0.965-0.83,1.987-1.049,3.048
		c-0.03,0.153-0.085,0.302-0.072,0.463c0.077,0.004,0.135-0.033,0.195-0.058c0.584-0.24,1.142-0.532,1.677-0.865
		c1.479-0.918,2.766-2.064,3.94-3.341c0.14-0.152,0.271-0.311,0.408-0.466c0.027-0.032,0.057-0.068,0.096-0.012
		c-0.055,0.353-0.126,0.703-0.225,1.046c-0.395,1.373-1.051,2.613-1.895,3.758c-1.063,1.444-2.365,2.64-3.831,3.664
		c-1.646,1.149-3.434,2.033-5.309,2.744c-0.059,0.018-0.13,0.014-0.165,0.087c0.041,0.016,0.075,0.028,0.108,0.04
		c1.208,0.363,2.445,0.548,3.704,0.584c0.729,0.021,1.455-0.024,2.177-0.111c0.874-0.104,1.732-0.28,2.579-0.521
		c2.284-0.649,4.384-1.68,6.302-3.078c0.774-0.565,1.505-1.186,2.139-1.91c0.299-0.343,0.577-0.703,0.769-1.121
		c0.098-0.213,0.143-0.434,0.126-0.67c-0.047-0.665-0.104-1.329-0.207-1.987c-0.15-0.953-0.369-1.889-0.671-2.806
		c-0.017-0.047-0.014-0.11-0.071-0.141c-0.01,0.008-0.021,0.014-0.025,0.023c-0.021,0.037-0.04,0.074-0.059,0.113
		c-0.663,1.328-1.454,2.573-2.378,3.735c-0.438,0.551-0.898,1.082-1.406,1.571c-0.032,0.03-0.051,0.104-0.122,0.071
		c1.152-1.955,1.835-4.061,2.044-6.32c0.109-1.166,0.069-2.323-0.147-3.473c-0.381-2.024-1.278-3.762-2.795-5.181
		C47.28,16.722,46.096,15.847,44.863,15.027z M14.886,27.103c0.102,0.029,0.208-0.029,0.333,0.014
		c-0.692,0.971-1.483,1.821-2.444,2.522c0.151,0.169,0.292,0.328,0.435,0.485c0.786,0.867,1.584,1.722,2.457,2.504
		c0.447,0.401,0.958,0.555,1.561,0.426c0.994-0.213,1.984-0.445,2.97-0.694c1.602-0.407,3.2-0.819,4.8-1.231
		c1.331-0.343,2.663-0.675,4.001-0.992c0.161-0.038,0.33-0.058,0.508-0.124c-0.304-0.168-0.583-0.336-0.85-0.524
		c-1.006-0.712-1.93-1.526-2.864-2.325c-0.662-0.567-1.321-1.137-1.994-1.691c-0.265-0.221-0.538-0.432-0.817-0.636
		c-0.303-0.221-0.613-0.432-0.948-0.606c-0.271-0.142-0.547-0.186-0.857-0.137c-1.145,0.179-2.268,0.442-3.375,0.776
		c-2.187,0.66-4.3,1.515-6.386,2.437c-0.023,0.01-0.063,0.011-0.06,0.065C12.531,27.281,13.708,27.192,14.886,27.103z M37.48,14.41
		c-0.02,0.053-0.067,0.04-0.108,0.045c-0.323,0.045-0.646,0.097-0.961,0.183c-0.275,0.076-0.542,0.171-0.783,0.33
		c-0.076,0.052-0.109,0.113-0.116,0.208c-0.027,0.338-0.063,0.674-0.124,1.008c-0.048,0.253-0.095,0.507-0.144,0.768
		c0.104,0.014,0.201,0.007,0.297-0.004c0.649-0.075,1.266-0.263,1.845-0.567c0.04-0.021,0.075-0.069,0.131-0.039
		c-0.737,0.939-1.673,1.624-2.758,2.109c-1.3,0.581-2.678,0.826-4.085,0.944c-0.694,0.058-1.393,0.076-2.088,0.116
		c-0.296,0.017-0.59,0.047-0.877,0.138c-0.855,0.27-1.684,0.609-2.505,0.966c-2.376,1.031-4.704,2.166-7.032,3.301
		c-0.023,0.012-0.071,0.011-0.068,0.069c0.038-0.006,0.073-0.01,0.108-0.019c0.393-0.099,0.785-0.202,1.18-0.295
		c0.836-0.197,1.674-0.39,2.532-0.477c0.338-0.035,0.647,0.018,0.94,0.195c0.275,0.167,0.54,0.348,0.796,0.542
		c0.725,0.549,1.417,1.139,2.118,1.717c1,0.826,2.004,1.646,3.073,2.384c0.678,0.468,1.376,0.905,2.135,1.235
		c0.367,0.16,0.742,0.296,1.141,0.353c0.263,0.076,0.529,0.053,0.791,0.013c0.387-0.06,0.741-0.22,1.079-0.414
		c0.557-0.318,1.05-0.719,1.516-1.154c0.938-0.875,1.758-1.855,2.534-2.874c0.869-1.144,1.677-2.332,2.428-3.556
		c0.032-0.051,0.052-0.12,0.137-0.157c-0.009,1.205-0.249,2.343-0.69,3.461c0.064-0.02,0.105-0.03,0.146-0.043
		c0.771-0.253,1.527-0.546,2.264-0.887c0.825-0.383,1.619-0.823,2.342-1.382c0.205-0.158,0.399-0.328,0.592-0.518
		c-0.282-0.21-0.55-0.417-0.802-0.644c-0.835-0.752-1.508-1.624-1.934-2.671c-0.357-0.88-0.512-1.79-0.392-2.739
		c0.075-0.588,0.194-1.17,0.304-1.752c0.138-0.734,0.239-1.471,0.197-2.22c-0.01-0.175-0.014-0.35-0.058-0.521
		c-0.059-0.691-0.235-1.345-0.61-1.936c-0.052-0.082-0.112-0.159-0.178-0.231c-0.409-0.464-0.919-0.639-1.521-0.485
		c-0.587,0.149-1.169,0.315-1.751,0.48c-2.606,0.741-5.208,1.499-7.767,2.4c-0.811,0.286-1.612,0.59-2.396,0.945
		c-0.691,0.312-1.207,0.795-1.566,1.457c-0.015,0.027-0.03,0.053-0.045,0.079c-0.369,0.649-0.649,1.339-0.896,2.042
		c-0.059,0.167-0.08,0.341-0.067,0.519c0.063,0.895,0.992,1.504,1.814,1.382c0.269-0.04,0.491-0.165,0.702-0.324
		c0.344-0.259,0.662-0.549,0.984-0.834c0.811-0.714,1.649-1.391,2.585-1.938c1.343-0.786,2.781-1.268,4.34-1.373
		c0.096-0.006,0.177,0.009,0.261,0.054C36.815,13.989,37.155,14.187,37.48,14.41z M51.001,40.235
		c0.006,0.085-0.035,0.132-0.061,0.184c-0.298,0.598-0.631,1.175-0.99,1.736c-1.167,1.821-2.567,3.45-4.095,4.974
		c-1.566,1.56-3.248,2.985-5.008,4.32c-2.045,1.55-4.18,2.967-6.387,4.276c-0.126,0.076-0.213,0.078-0.338-0.004
		c-1.823-1.192-3.582-2.47-5.269-3.847c-2.09-1.705-4.056-3.539-5.844-5.56c-1.321-1.491-2.526-3.069-3.567-4.77
		c-0.793-1.294-1.476-2.644-2.012-4.066c-0.064-0.171-0.11-0.347-0.107-0.531c0.003-0.169,0.082-0.288,0.242-0.347
		c0.068-0.025,0.137-0.048,0.207-0.07c2.148-0.692,4.299-1.384,6.448-2.076c2.361-0.761,4.724-1.522,7.086-2.283
		c0.057-0.018,0.117-0.029,0.185-0.084c-0.067,0.005-0.11,0.004-0.151,0.011c-0.688,0.112-1.368,0.256-2.047,0.412
		c-1.61,0.37-3.209,0.789-4.81,1.201c-2.039,0.525-4.073,1.072-6.131,1.524c-0.709,0.156-1.418,0.315-2.147,0.361
		c-0.223,0.015-0.433-0.02-0.635-0.115c-0.203-0.095-0.391-0.217-0.576-0.343c-0.043-0.029-0.077-0.077-0.137-0.073
		c-0.016,0.032-0.006,0.062,0.001,0.091c0.297,1.359,0.728,2.674,1.278,3.952c0.867,2.014,1.987,3.88,3.283,5.645
		c1.328,1.806,2.813,3.476,4.41,5.046c0.926,0.91,1.884,1.784,2.873,2.625c2.062,1.753,4.231,3.362,6.5,4.837
		c0.345,0.225,0.694,0.443,1.041,0.663c0.047-0.025,0.084-0.044,0.12-0.065c3.227-1.834,6.299-3.893,9.179-6.235
		c1.931-1.572,3.747-3.263,5.388-5.14c1.135-1.299,2.166-2.676,3.034-4.168c0.888-1.528,1.572-3.139,1.937-4.876
		c0.011-0.05,0.033-0.101-0.001-0.167c-1.028,0.883-2.131,1.647-3.306,2.308c-1.176,0.66-2.405,1.197-3.684,1.625
		C48.289,40.957,49.658,40.667,51.001,40.235z M33.083,17.319c0.239-0.893,0.274-1.399,0.119-1.648
		c-1.049,0.491-3.08,2.022-3.355,2.535c0.186,0.043,0.371,0.061,0.557,0.078c0.626,0.057,1.247,0.041,1.857-0.128
		c0.467-0.129,0.897-0.331,1.257-0.665c0.081-0.076,0.169-0.149,0.222-0.272C33.512,17.266,33.305,17.339,33.083,17.319z"/>
	<path style="fill-rule:evenodd;clip-rule:evenodd;fill:#A3AAB2;" d="M37.517,16.342c-0.056-0.031-0.091,0.018-0.131,0.039
		c-0.579,0.304-1.195,0.492-1.845,0.567c-0.096,0.011-0.192,0.018-0.297,0.004c0.049-0.261,0.096-0.514,0.144-0.768
		c0.061-0.334,0.097-0.67,0.124-1.008c0.007-0.095,0.04-0.156,0.116-0.208c0.241-0.159,0.508-0.254,0.783-0.33
		c0.315-0.086,0.638-0.138,0.961-0.183c0.041-0.006,0.089,0.007,0.108-0.045c0.062-0.004,0.075-0.055,0.095-0.097
		c0.281-0.576,0.673-1.061,1.16-1.475c0.554-0.47,1.181-0.8,1.873-1.01c0.643-0.195,1.301-0.274,1.972-0.264
		c0.044,0.171,0.048,0.347,0.058,0.521c0.042,0.749-0.06,1.486-0.197,2.22c-0.109,0.583-0.229,1.164-0.304,1.752
		c-0.12,0.949,0.034,1.858,0.392,2.739c0.426,1.047,1.099,1.918,1.934,2.671c0.252,0.227,0.52,0.434,0.802,0.644
		c-0.192,0.189-0.387,0.359-0.592,0.518c-0.723,0.559-1.517,0.999-2.342,1.382c-0.736,0.341-1.493,0.634-2.264,0.887
		c-0.04,0.013-0.081,0.023-0.146,0.043c0.441-1.119,0.682-2.257,0.69-3.461c-0.085,0.037-0.104,0.105-0.137,0.157
		c-0.751,1.225-1.559,2.412-2.428,3.556c-0.776,1.019-1.597,1.998-2.534,2.874c-0.466,0.435-0.959,0.835-1.516,1.154
		c-0.338,0.194-0.692,0.354-1.079,0.414c-0.262,0.04-0.528,0.063-0.791-0.013c0.028-0.006,0.057-0.013,0.095-0.022
		c-0.049-0.021-0.087-0.037-0.127-0.053c-0.929-0.355-1.651-0.972-2.22-1.779c-0.506-0.718-0.833-1.514-1.021-2.368
		c-0.069-0.307-0.121-0.616-0.15-0.93c-0.01-0.113,0.028-0.174,0.129-0.227c1.059-0.552,2.15-1.031,3.278-1.427
		c1.062-0.374,2.144-0.682,3.241-0.927c0.828-0.185,1.659-0.335,2.498-0.449c0.49-0.066,0.983-0.122,1.479-0.161
		c0.724-0.058,1.447-0.105,2.174-0.101c0.063,0.001,0.127,0.001,0.19,0.001c-1.586-0.948-3.317-1.374-5.132-1.501
		c-0.011-0.057,0.022-0.086,0.048-0.119c0.368-0.482,0.632-1.016,0.796-1.6c0.137-0.488,0.201-0.983,0.177-1.49
		C37.58,16.417,37.598,16.354,37.517,16.342z"/>
	<path style="fill-rule:evenodd;clip-rule:evenodd;fill:#A3AAB2;" d="M51.001,40.235c-1.343,0.432-2.712,0.721-4.089,0.972
		c1.278-0.428,2.508-0.965,3.684-1.625c1.175-0.66,2.277-1.424,3.306-2.308c0.034,0.066,0.012,0.117,0.001,0.167
		c-0.364,1.737-1.049,3.348-1.937,4.876c-0.868,1.493-1.899,2.869-3.034,4.168c-1.641,1.877-3.457,3.568-5.388,5.14
		c-2.88,2.343-5.952,4.401-9.179,6.235c-0.036,0.021-0.073,0.04-0.12,0.065c-0.347-0.22-0.696-0.438-1.041-0.663
		c-2.269-1.475-4.438-3.084-6.5-4.837c-0.989-0.841-1.947-1.716-2.873-2.625c-1.597-1.571-3.082-3.241-4.41-5.046
		c-1.296-1.765-2.416-3.631-3.283-5.645c-0.551-1.278-0.981-2.592-1.278-3.952c-0.007-0.029-0.017-0.06-0.001-0.091
		c0.06-0.004,0.094,0.044,0.137,0.073c0.186,0.126,0.373,0.248,0.576,0.343c0.202,0.095,0.412,0.129,0.635,0.115
		c0.729-0.046,1.438-0.205,2.147-0.361c2.058-0.452,4.092-0.999,6.131-1.524c1.601-0.412,3.199-0.831,4.81-1.201
		c0.679-0.156,1.359-0.3,2.047-0.412c0.041-0.007,0.084-0.006,0.151-0.011c-0.067,0.055-0.128,0.066-0.185,0.084
		c-2.362,0.761-4.725,1.522-7.086,2.283c-2.149,0.691-4.3,1.384-6.448,2.076c-0.07,0.022-0.139,0.044-0.207,0.07
		c-0.16,0.059-0.239,0.178-0.242,0.347c-0.003,0.185,0.043,0.36,0.107,0.531c0.536,1.422,1.219,2.772,2.012,4.066
		c1.041,1.701,2.246,3.279,3.567,4.77c1.788,2.021,3.754,3.855,5.844,5.56c1.687,1.377,3.445,2.655,5.269,3.847
		c0.125,0.083,0.212,0.08,0.338,0.004c2.207-1.309,4.342-2.726,6.387-4.276c1.76-1.335,3.441-2.761,5.008-4.32
		c1.527-1.524,2.928-3.153,4.095-4.974c0.359-0.562,0.692-1.138,0.99-1.736C50.966,40.368,51.007,40.321,51.001,40.235z"/>
	<path style="fill-rule:evenodd;clip-rule:evenodd;fill:#FFFFFF;" d="M37.517,16.342c0.081,0.012,0.063,0.076,0.065,0.126
		c0.024,0.506-0.04,1.002-0.177,1.49c-0.164,0.583-0.428,1.117-0.796,1.6c-0.025,0.033-0.059,0.062-0.048,0.119
		c1.814,0.127,3.546,0.553,5.132,1.501c-0.063,0-0.127,0-0.19-0.001c-0.727-0.004-1.45,0.042-2.174,0.101
		c-0.495,0.04-0.988,0.095-1.479,0.161c-0.839,0.113-1.67,0.264-2.498,0.449c-1.098,0.246-2.18,0.553-3.241,0.927
		c-1.128,0.396-2.22,0.875-3.278,1.427c-0.101,0.053-0.139,0.114-0.129,0.227c0.029,0.314,0.081,0.624,0.15,0.93
		c0.188,0.854,0.515,1.65,1.021,2.368c0.568,0.807,1.291,1.423,2.22,1.779c0.04,0.016,0.078,0.032,0.127,0.053
		c-0.038,0.009-0.066,0.016-0.095,0.022c-0.398-0.057-0.773-0.193-1.141-0.353c-0.759-0.33-1.457-0.767-2.135-1.235
		c-1.069-0.738-2.073-1.558-3.073-2.384c-0.701-0.579-1.394-1.168-2.118-1.717c-0.256-0.194-0.521-0.376-0.796-0.542
		c-0.293-0.178-0.603-0.23-0.94-0.195c-0.858,0.086-1.696,0.28-2.532,0.477c-0.395,0.093-0.787,0.196-1.18,0.295
		c-0.035,0.008-0.07,0.012-0.108,0.019c-0.003-0.059,0.045-0.058,0.068-0.069c2.328-1.136,4.656-2.27,7.032-3.301
		c0.821-0.356,1.649-0.696,2.505-0.966c0.287-0.09,0.581-0.121,0.877-0.138c0.695-0.041,1.394-0.058,2.088-0.116
		c1.407-0.118,2.785-0.363,4.085-0.944C35.844,17.966,36.779,17.281,37.517,16.342z"/>
	<path style="fill-rule:evenodd;clip-rule:evenodd;fill:#A3AAB2;" d="M23.797,25.471c0.673,0.555,1.332,1.125,1.994,1.691
		c0.935,0.799,1.858,1.613,2.864,2.325c0.267,0.188,0.546,0.356,0.85,0.524c-0.178,0.066-0.347,0.086-0.508,0.124
		c-1.338,0.317-2.67,0.649-4.001,0.992c-1.6,0.412-3.198,0.825-4.8,1.231c-0.985,0.25-1.976,0.481-2.97,0.694
		c-0.603,0.128-1.113-0.025-1.561-0.426c-0.873-0.783-1.671-1.638-2.457-2.504c-0.143-0.157-0.283-0.316-0.435-0.485
		c0.961-0.701,1.752-1.551,2.444-2.522c-0.125-0.043-0.231,0.015-0.333-0.014c0.052-0.043,0.115-0.031,0.174-0.034
		c0.104-0.003,0.207,0.009,0.309-0.002c0.384-0.046,0.768-0.094,1.15-0.153c0.656-0.1,1.313-0.209,1.968-0.312
		c0.656-0.104,1.31-0.226,1.962-0.353c0.623-0.122,1.244-0.25,1.864-0.383c0.461-0.1,0.919-0.212,1.378-0.319
		C23.737,25.536,23.792,25.54,23.797,25.471z"/>
	<path style="fill-rule:evenodd;clip-rule:evenodd;fill:#FFFFFF;" d="M47.884,23.436c0.149-0.297,0.277-0.601,0.328-0.935
		c0.092-0.604,0.074-1.206-0.046-1.803c-0.195-0.983-0.599-1.872-1.236-2.65c-0.245-0.301-0.523-0.569-0.854-0.777
		c-0.061-0.037-0.116-0.089-0.195-0.09c-0.002-0.03,0-0.062-0.009-0.089c-0.225-0.681-0.519-1.329-0.941-1.914
		c-0.029-0.042-0.104-0.074-0.066-0.15c1.232,0.82,2.417,1.695,3.502,2.708c1.517,1.419,2.414,3.157,2.795,5.181
		c0.217,1.15,0.257,2.308,0.147,3.473c-0.209,2.259-0.892,4.366-2.044,6.32c-0.082,0.134-0.191,0.246-0.308,0.351
		c-0.176,0.157-0.354,0.313-0.527,0.471c-0.618,0.555-1.278,1.058-1.965,1.523c-0.909,0.616-1.858,1.158-2.85,1.629
		c-0.81,0.386-1.64,0.723-2.484,1.018c-1.465,0.511-2.967,0.875-4.492,1.146c-0.057,0.01-0.12,0.033-0.173-0.018
		c1.875-0.711,3.662-1.595,5.309-2.744c1.466-1.023,2.768-2.22,3.831-3.664c0.844-1.145,1.5-2.385,1.895-3.758
		c0.099-0.343,0.17-0.693,0.225-1.046c0.04-0.081,0.002-0.165,0.019-0.249c0.104-0.564,0.14-1.137,0.167-1.708
		c0.033-0.676,0.017-1.353,0.005-2.03C47.912,23.565,47.902,23.5,47.884,23.436z"/>
	<path style="fill-rule:evenodd;clip-rule:evenodd;fill:#FFFFFF;" d="M42.58,11.564c-0.671-0.01-1.329,0.068-1.972,0.264
		c-0.692,0.21-1.319,0.54-1.873,1.01c-0.487,0.414-0.879,0.899-1.16,1.475c-0.02,0.042-0.033,0.093-0.095,0.097
		c-0.325-0.223-0.665-0.42-1.012-0.609c-0.084-0.045-0.165-0.06-0.261-0.054c-1.559,0.104-2.997,0.587-4.34,1.373
		c-0.936,0.547-1.774,1.224-2.585,1.938c-0.322,0.285-0.641,0.575-0.984,0.834c-0.211,0.159-0.434,0.284-0.702,0.324
		c-0.822,0.122-1.751-0.487-1.814-1.382c-0.013-0.178,0.009-0.352,0.067-0.519c0.247-0.703,0.527-1.393,0.896-2.042
		c0.015-0.026,0.03-0.052,0.045-0.079c0.359-0.661,0.875-1.145,1.566-1.457c0.784-0.355,1.586-0.66,2.396-0.945
		c2.559-0.901,5.16-1.659,7.767-2.4c0.582-0.165,1.164-0.331,1.751-0.48c0.602-0.153,1.111,0.021,1.521,0.485
		c0.065,0.072,0.126,0.149,0.178,0.231C42.345,10.219,42.521,10.873,42.58,11.564z"/>
	<path style="fill-rule:evenodd;clip-rule:evenodd;fill:#A3AAB2;" d="M36.465,38.83c0.053,0.05,0.116,0.028,0.173,0.018
		c1.525-0.271,3.027-0.635,4.492-1.146c0.845-0.295,1.675-0.632,2.484-1.018c0.991-0.471,1.94-1.013,2.85-1.629
		c0.687-0.465,1.347-0.968,1.965-1.523c0.174-0.158,0.352-0.314,0.527-0.471c0.116-0.104,0.226-0.216,0.308-0.351
		c0.071,0.033,0.09-0.041,0.122-0.071c0.508-0.489,0.969-1.02,1.406-1.571c0.924-1.162,1.715-2.407,2.378-3.735
		c0.019-0.039,0.038-0.076,0.059-0.113c0.005-0.01,0.016-0.015,0.025-0.023c0.058,0.03,0.055,0.093,0.071,0.141
		c0.302,0.917,0.521,1.854,0.671,2.806c0.104,0.658,0.16,1.322,0.207,1.987c0.017,0.237-0.028,0.457-0.126,0.67
		c-0.191,0.417-0.47,0.777-0.769,1.121c-0.634,0.724-1.364,1.345-2.139,1.91c-1.918,1.398-4.018,2.429-6.302,3.078
		c-0.847,0.24-1.705,0.416-2.579,0.521c-0.722,0.086-1.448,0.131-2.177,0.111c-1.259-0.036-2.496-0.221-3.704-0.584
		c-0.033-0.012-0.067-0.024-0.108-0.04C36.335,38.844,36.406,38.848,36.465,38.83z"/>
	<path style="fill-rule:evenodd;clip-rule:evenodd;fill:#FFFFFF;" d="M24.782,41.641c1.188,0.951,2.404,1.864,3.662,2.719
		c1.635,1.11,3.317,2.139,5.087,3.022c0.184,0.092,0.368,0.186,0.556,0.268c0.267,0.116,0.162,0.125,0.412-0.012
		c1.108-0.611,2.192-1.262,3.259-1.944c1.543-0.987,3.043-2.032,4.453-3.203c0.099-0.082,0.195-0.164,0.293-0.246
		c0.021,0.005,0.05-0.006,0.062,0.025c-0.967,1.163-2.028,2.233-3.154,3.239c-1.569,1.403-3.231,2.687-4.999,3.832
		c-0.035,0.023-0.076,0.04-0.109,0.099c0,0.377,0,0.776,0,1.186c-0.086-0.015-0.135-0.071-0.189-0.113
		c-1.67-1.25-3.266-2.589-4.797-4.005c-1.425-1.317-2.782-2.7-4.034-4.184c-0.168-0.199-0.331-0.403-0.496-0.604
		C24.785,41.694,24.783,41.667,24.782,41.641z"/>
	<path style="fill-rule:evenodd;clip-rule:evenodd;fill:#A3AAB2;" d="M47.884,23.436c0.019,0.064,0.028,0.129,0.03,0.196
		c0.012,0.677,0.028,1.354-0.005,2.03c-0.027,0.571-0.063,1.144-0.167,1.708c-0.017,0.084,0.021,0.168-0.019,0.249
		c-0.039-0.057-0.068-0.02-0.096,0.012c-0.137,0.155-0.269,0.313-0.408,0.466c-1.175,1.277-2.461,2.423-3.94,3.341
		c-0.535,0.333-1.093,0.625-1.677,0.865c-0.061,0.025-0.118,0.062-0.195,0.058c-0.013-0.161,0.042-0.31,0.072-0.463
		c0.219-1.061,0.548-2.083,1.049-3.048c0.593-1.142,1.41-2.096,2.406-2.905c0.504-0.409,1.037-0.778,1.559-1.164
		c0.375-0.277,0.742-0.566,1.055-0.916C47.67,23.729,47.767,23.575,47.884,23.436z"/>
	<path style="fill-rule:evenodd;clip-rule:evenodd;fill:#FFFFFF;" d="M23.797,25.471c-0.005,0.068-0.06,0.065-0.106,0.075
		c-0.459,0.106-0.917,0.219-1.378,0.319c-0.62,0.133-1.241,0.261-1.864,0.383c-0.652,0.127-1.306,0.249-1.962,0.353
		c-0.655,0.103-1.312,0.212-1.968,0.312c-0.383,0.059-0.767,0.106-1.15,0.153c-0.102,0.012-0.204-0.001-0.309,0.002
		c-0.059,0.003-0.122-0.009-0.174,0.034c-1.178,0.089-2.354,0.179-3.532,0.268c-0.003-0.054,0.036-0.055,0.06-0.065
		c2.086-0.922,4.199-1.777,6.386-2.437c1.107-0.334,2.23-0.597,3.375-0.776c0.311-0.048,0.586-0.005,0.857,0.137
		c0.335,0.174,0.646,0.385,0.948,0.606C23.259,25.04,23.532,25.25,23.797,25.471z"/>
	<path style="fill-rule:evenodd;clip-rule:evenodd;fill:#FFFFFF;" d="M44.607,10.628c-0.265-0.465-0.57-0.9-0.957-1.273
		c-0.369-0.358-0.778-0.653-1.276-0.809c-0.108-0.034-0.221-0.059-0.329-0.087c0.219-0.157,10.959-2.837,11.845-2.953
		c-0.265,0.588-0.561,1.144-0.913,1.669c-0.06,0-0.121-0.001-0.182-0.002c-0.865-0.02-1.728-0.019-2.586,0.136
		c-0.929,0.167-1.82,0.44-2.667,0.854c-0.733,0.358-1.408,0.8-2.006,1.36c-0.311,0.292-0.593,0.605-0.817,0.966
		C44.688,10.54,44.673,10.604,44.607,10.628z"/>
	<path style="fill-rule:evenodd;clip-rule:evenodd;fill:#A3AAB2;" d="M44.607,10.628c0.065-0.023,0.08-0.088,0.111-0.139
		c0.225-0.361,0.507-0.674,0.817-0.966c0.598-0.56,1.272-1.002,2.006-1.36c0.847-0.414,1.738-0.688,2.667-0.854
		c0.858-0.155,1.721-0.155,2.586-0.136c0.061,0.001,0.122,0.002,0.182,0.002c-0.287,0.471-0.619,0.91-0.959,1.342
		c-0.077,0.098-0.171,0.098-0.274,0.104c-1.106,0.064-2.183,0.277-3.208,0.711c-1.438,0.608-2.563,1.563-3.281,2.97
		c-0.008,0.015-0.021,0.028-0.055,0.073C45.101,11.743,44.893,11.171,44.607,10.628z"/>
	<path style="fill-rule:evenodd;clip-rule:evenodd;fill:#FFFFFF;" d="M33.083,17.319c0.222,0.021,0.429-0.053,0.656-0.1
		c-0.053,0.123-0.141,0.196-0.222,0.272c-0.359,0.333-0.79,0.535-1.257,0.665c-0.61,0.168-1.231,0.185-1.857,0.128
		c-0.186-0.017-0.371-0.035-0.557-0.078c0.275-0.513,2.307-2.044,3.355-2.535C33.357,15.919,33.322,16.426,33.083,17.319z"/>
	<path style="fill-rule:evenodd;clip-rule:evenodd;fill:#A3AAB2;" d="M44.863,15.027c-0.037,0.076,0.037,0.107,0.066,0.15
		c0.423,0.585,0.717,1.233,0.941,1.914c0.009,0.027,0.007,0.059,0.009,0.089c-0.016,0.235-0.071,0.465-0.086,0.701
		c-0.038,0.568,0.037,1.122,0.183,1.669c0.047,0.174,0.104,0.344,0.145,0.523c-0.646-0.582-1.158-1.256-1.441-2.089
		c-0.344-1.011-0.232-2.013,0.062-3.016C44.801,14.96,44.837,14.985,44.863,15.027z"/>
	<path style="fill-rule:evenodd;clip-rule:evenodd;fill:#A3AAB2;" d="M42.565,42.27c-0.012-0.031-0.04-0.02-0.062-0.025
		c0.058-0.079,0.138-0.13,0.223-0.183C42.688,42.143,42.638,42.214,42.565,42.27z"/>
	<path style="fill-rule:evenodd;clip-rule:evenodd;fill:#A3AAB2;" d="M24.782,41.641c0.001,0.026,0.003,0.053,0.004,0.079
		c-0.054-0.037-0.09-0.089-0.129-0.162C24.724,41.566,24.754,41.602,24.782,41.641z"/>
</g>
</svg>
