<?xml version="1.0" encoding="UTF-8" standalone="no"?>
<svg
   xmlns:dc="http://purl.org/dc/elements/1.1/"
   xmlns:cc="http://creativecommons.org/ns#"
   xmlns:rdf="http://www.w3.org/1999/02/22-rdf-syntax-ns#"
   xmlns:svg="http://www.w3.org/2000/svg"
   xmlns="http://www.w3.org/2000/svg"
   xmlns:sodipodi="http://sodipodi.sourceforge.net/DTD/sodipodi-0.dtd"
   xmlns:inkscape="http://www.inkscape.org/namespaces/inkscape"
   width="64"
   height="64"
   viewBox="0 0 48 47.999999"
   version="1.1"
   id="svg56"
   sodipodi:docname="ground.svg"
   inkscape:version="0.92.3 (2405546, 2018-03-11)">
  <metadata
     id="metadata62">
    <rdf:RDF>
      <cc:Work
         rdf:about="">
        <dc:format>image/svg+xml</dc:format>
        <dc:type
           rdf:resource="http://purl.org/dc/dcmitype/StillImage" />
        <dc:title></dc:title>
      </cc:Work>
    </rdf:RDF>
  </metadata>
  <defs
     id="defs60" />
  <sodipodi:namedview
     pagecolor="#ffffff"
     bordercolor="#666666"
     borderopacity="1"
     objecttolerance="10"
     gridtolerance="10"
     guidetolerance="10"
     inkscape:pageopacity="0"
     inkscape:pageshadow="2"
     inkscape:window-width="1920"
     inkscape:window-height="1017"
     id="namedview58"
     showgrid="false"
     units="px"
     inkscape:pagecheckerboard="true"
     inkscape:zoom="4.2684564"
     inkscape:cx="61.231427"
     inkscape:cy="33.882922"
     inkscape:window-x="-8"
     inkscape:window-y="-8"
     inkscape:window-maximized="1"
     inkscape:current-layer="svg56" />
  <g
     id="#8ee429ff"
     transform="matrix(0.08,0,0,0.08,-2.5e-7,0.15999975)">
    <path
       d="m 350.49,0 h 8.85 c 29.41,1.28 56.87,15.75 77.88,35.83 23.56,22.47 41.67,51.56 48.17,83.71 21.27,4.96 40.95,15.49 58.11,28.85 24.48,19.17 44.87,45.05 53.01,75.44 1.94,7.4 3.17,14.99 3.49,22.63 v 8.13 c -0.61,11.84 -2.93,23.72 -7.74,34.61 -9.4,20.75 -23.13,39.81 -40.99,54.09 -4.56,3.64 -8.79,7.72 -13.61,11.02 3.04,-12.29 5.65,-24.69 8.23,-37.09 3.61,-18.67 6.73,-38.71 -0.27,-56.99 -6.03,-17.17 -19.35,-31.07 -35.44,-39.24 15.06,42.14 17.67,88.7 6.45,132.08 -12.06,48.14 -40.78,91.74 -79.96,122.16 15.62,1.26 31.9,-1.68 45.16,-10.33 13.8,-8.16 23.37,-21.71 29.8,-36.12 7.58,-16.9 13.55,-34.48 19.54,-51.99 5.12,14.73 10.49,29.57 12.05,45.2 2.14,21.06 1.39,43.25 -7.57,62.8 -7.37,16.93 -19.59,31.55 -34.44,42.43 -14.54,10.67 -31.35,18 -48.78,22.45 -29.24,7.38 -60.68,7.96 -89.55,-1.41 -1.32,-0.68 -2.15,0.95 -3.02,1.61 -12.75,13.16 -28.42,23.24 -45.02,30.84 -19.56,8.9 -40.78,14.37 -62.28,15.29 h -10.03 c -20.53,-0.86 -41.04,-6.84 -58.05,-18.52 -10.84,-7.35 -20.28,-16.79 -27.22,-27.91 -10.18,-15.8 -17.93,-33.36 -21.41,-51.89 -1.18,-7.27 -2.7,-14.48 -3.64,-21.78 15.84,14.11 30.8,29.37 48.33,41.46 11.54,8.05 25.28,13.15 39.44,13.29 14.57,0.79 28.94,-4.18 41.21,-11.78 -2.12,-1.44 -4.81,-1.29 -7.2,-1.88 -36.66,-7.7 -71.27,-24.85 -99.65,-49.28 C 113,432.46 85.32,381.74 78.08,327.88 69.64,340.18 63.9,354.9 64.4,370 c -0.23,12.55 3.52,24.95 9.84,35.74 11.5,19.45 27.33,35.79 41.58,53.18 -6.54,-1.17 -13,-2.74 -19.51,-4.07 -14.27,-2.9 -27.88,-8.53 -40.5,-15.71 C 43.26,431.93 31.24,423.24 22.41,411.62 8.24,393.81 0.76,371.21 0,348.57 v -9.13 c 1.03,-24.69 8.3,-48.93 19.83,-70.71 8.4,-15.67 19.12,-30.28 32.68,-41.88 -5.55,-18.71 -6.86,-38.51 -4.9,-57.88 C 50.65,140.11 60.24,111.34 78.36,88.38 93.88,68.63 116.5,54.31 141.35,50 c 16.52,-2.47 33.43,-1.7 49.81,1.39 13.46,2.45 26.05,7.93 38.85,12.55 -13.5,4.1 -26.99,8.28 -40.32,12.9 -11.71,4.2 -23.47,8.85 -33.57,16.24 -9.96,7.14 -17.43,17.32 -22.55,28.37 -4.26,10.34 -5.98,21.65 -5.67,32.8 1.34,-1.13 2.62,-2.34 3.75,-3.67 20.73,-23.62 46.53,-42.74 75.12,-55.78 36.44,-16.63 77.37,-23.4 117.21,-19.16 20.92,2.07 41.35,7.61 60.89,15.24 -6.45,-13.51 -16.45,-25.76 -29.8,-32.89 -12.58,-7.44 -27.51,-10.12 -41.97,-9.1 -20.42,1.48 -40.51,5.71 -60.59,9.55 3.6,-4.67 7.88,-8.75 11.69,-13.25 C 278.38,28.81 296.72,16.31 316.52,7.69 327.2,2.91 338.85,0.61 350.49,0 m -52.55,34.87 c 4.72,-0.27 9.26,-1.79 13.97,-2.19 8.42,-0.72 16.99,-0.71 25.29,1.03 39.55,7.69 70.86,45.99 70.03,86.34 -30.87,-18.28 -66.38,-28.8 -102.29,-29.51 -34.96,-0.8 -70.09,7.4 -101.12,23.52 -33.67,17.41 -62.27,44.33 -81.91,76.74 -20.33,-36.37 -9.16,-86.81 24.5,-111.36 9.47,-7.18 20.68,-11.53 32.03,-14.71 -21.66,-2.96 -44.66,0.69 -63.44,12.22 -17.55,10.67 -30.64,27.56 -38.97,46.15 -9.1,20.31 -13.25,42.69 -13.08,64.89 0.43,15.08 2.46,30.45 8.98,44.22 -14.76,10 -26.29,24.11 -35.19,39.43 -10.03,17.31 -16.97,36.5 -19.64,56.36 -2.47,19.77 -0.58,40.55 8.42,58.55 9.75,20.09 27.59,35.33 47.63,44.62 -3.56,-4.22 -7.42,-8.2 -10.49,-12.8 -11.42,-16.22 -16.59,-36.7 -14.22,-56.39 1.59,-15.24 7.23,-30.01 15.94,-42.6 7.14,-10 16.08,-19.28 27.24,-24.71 -0.75,42.7 11.74,85.61 35.76,120.97 16.77,24.83 39,45.92 64.63,61.43 30.93,18.9 66.85,29.24 103.04,30.34 -20.82,32.62 -64.98,47.85 -101.53,35.26 -13.65,-4.57 -25.69,-13.1 -35.47,-23.56 4.1,9.63 9.35,18.81 15.94,26.96 10.72,13.56 25.53,23.89 42.03,29.09 15.4,5.07 31.94,5.61 47.94,3.75 21.59,-2.85 42.46,-10.52 61,-21.89 12.21,-7.62 23.72,-16.87 32,-28.77 16.94,8.6 36.28,10.93 55.04,10.91 30.28,-0.93 61.45,-9.33 84.99,-29.1 16.25,-13.53 27.29,-33.02 30.56,-53.91 1.41,-9.39 2.18,-19.01 0.89,-28.47 -4.33,16.57 -13.43,32.01 -26.57,43.1 -27.11,23.09 -68.81,27.77 -99.93,10.15 26.29,-14.93 49.5,-35.33 67.13,-59.94 22.34,-30.88 36.08,-67.96 38.92,-105.99 3.19,-40.53 -5.9,-81.93 -25.69,-117.43 38,0.87 73.04,30.04 81.97,66.81 3.7,15.03 2.79,31.04 -1.98,45.72 13.56,-17.23 22.17,-39.01 21.53,-61.13 -0.15,-20 -7.9,-39.3 -19.22,-55.55 -11.29,-16.13 -26.01,-29.77 -42.52,-40.44 -15.51,-9.9 -32.88,-17.66 -51.36,-19.5 -0.32,-9.99 -2.93,-19.77 -6.39,-29.1 C 454.64,79.24 438.28,56.61 417.27,39.72 399.17,25.22 376.43,15.37 352.92,16.16 333.1,16.18 314.3,24.22 297.94,34.87 Z"
       id="path37"
       inkscape:connector-curvature="0"
       style="opacity:1;fill:#8ee429" />
    <path
       d="m 388.06,40.99 c 11.89,5.71 22.37,14.05 31.46,23.54 13.77,14.5 24.42,31.93 30.97,50.82 -8.71,2.44 -17.53,4.47 -26.31,6.61 0.72,-23.97 -7.75,-47.82 -22.63,-66.52 -3.99,-5.27 -8.78,-9.84 -13.49,-14.45 z"
       id="path39"
       inkscape:connector-curvature="0"
       style="opacity:1;fill:#8ee429" />
    <path
       d="m 81.83,161.78 c 3.07,-17.75 9.32,-35.24 20.01,-49.86 -9.5,26.18 -9.67,56.23 2.49,81.59 4.72,9.93 11.77,18.45 17.72,27.63 -4.73,8.46 -10.2,16.51 -14.79,25.04 -3.43,7.19 0.64,14.69 1.81,21.89 -10.11,4.98 -21.05,8.33 -30.54,14.54 -18.49,11.82 -32.35,30.15 -40.25,50.51 -2.2,5.51 -3.56,11.3 -5.33,16.95 -1.2,-23.97 5.85,-47.85 17.48,-68.67 7.08,-12.33 15.78,-24.09 27.29,-32.61 5.17,-3.55 10.56,-6.77 15.92,-10.01 -3.1,-7.62 -7.68,-14.64 -9.89,-22.62 -5,-17.65 -4.94,-36.4 -1.92,-54.38 z"
       id="path41"
       inkscape:connector-curvature="0"
       style="opacity:1;fill:#8ee429" />
    <path
       d="m 231.12,125.22 c 45.8,-18.29 98.95,-17.66 143.97,2.71 2.65,1.41 5.82,2.09 8,4.26 -4.48,0.57 -9.21,3.87 -13.56,1.33 -25.9,-10.97 -54.46,-15.68 -82.51,-13.53 -29.77,2.19 -58.93,11.93 -84.07,28.02 -18.55,12.05 -36.07,25.61 -52.92,39.91 20.35,-28.03 48.85,-50.04 81.09,-62.7 z"
       id="path43"
       inkscape:connector-curvature="0"
       style="opacity:1;fill:#8ee429" />
    <path
       d="m 434.89,174.76 c 5.49,-18.94 10.46,-38.03 16.17,-56.9 3.41,10.13 3.02,20.93 3.48,31.46 10.2,0.65 20.62,0.79 30.39,4.15 18.96,6.19 36,17.49 50.29,31.29 10.17,9.93 18.95,21.45 24.82,34.44 -9.8,-10.77 -20.99,-20.43 -34.06,-27.04 -16.75,-8.67 -36.02,-13.15 -54.86,-10.81 -7.39,0.4 -14.75,1.28 -22.15,1.59 0.91,3.16 2.94,5.8 4.46,8.67 5.52,9.91 11.53,19.57 16.08,29.98 9.17,20.17 14.36,42.46 12.95,64.68 -0.45,4.67 -1.01,9.43 -2.71,13.85 -0.02,-43.38 -15.66,-86.81 -44.57,-119.31 -1.94,-1.58 -0.73,-4.07 -0.29,-6.05 z"
       id="path45"
       inkscape:connector-curvature="0"
       style="opacity:1;fill:#8ee429" />
    <path
       d="m 403,446.02 c 12.39,-7.38 24.55,-15.18 35.82,-24.2 -12.93,14.64 -28.3,27.09 -45.18,36.9 -9.48,5.6 -19.6,10.11 -28.92,15.96 7.65,5.52 15.12,11.3 22.75,16.84 17.22,12.15 38.65,17.53 59.57,16.91 10.64,-0.22 21.06,-2.58 31.29,-5.32 -14.96,10.03 -32.6,15.45 -50.34,17.92 -17.05,2.1 -34.62,1.74 -51.24,-2.94 -9.01,-2.45 -16.92,-7.54 -25.11,-11.84 -4.23,5.61 -7.67,11.8 -12.18,17.21 -10.66,12.19 -24.66,20.98 -39.28,27.66 -11.82,5.34 -24.36,9.16 -37.22,10.97 -8.45,1.07 -17.07,1.92 -25.51,0.27 33.48,-5.09 64.98,-26.89 78.36,-58.49 3.03,-6.57 6.36,-13.01 9.27,-19.63 -17.73,0.61 -35.36,-2.5 -52.24,-7.78 13.3,1.53 26.75,2.69 40.13,1.38 32.15,-2.24 63.57,-13.44 90.03,-31.82 z"
       id="path47"
       inkscape:connector-curvature="0"
       style="opacity:1;fill:#8ee429" />
  </g>
  <g
     id="#3a414fff"
     transform="matrix(0.08,0,0,0.08,-2.5e-7,0.15999975)">
    <path
       d="m 297.94,34.87 c 16.36,-10.65 35.16,-18.69 54.98,-18.71 23.51,-0.79 46.25,9.06 64.35,23.56 21.01,16.89 37.37,39.52 47.06,64.66 3.46,9.33 6.07,19.11 6.39,29.1 18.48,1.84 35.85,9.6 51.36,19.5 16.51,10.67 31.23,24.31 42.52,40.44 11.32,16.25 19.07,35.55 19.22,55.55 0.64,22.12 -7.97,43.9 -21.53,61.13 4.77,-14.68 5.68,-30.69 1.98,-45.72 -8.93,-36.77 -43.97,-65.94 -81.97,-66.81 19.79,35.5 28.88,76.9 25.69,117.43 -2.84,38.03 -16.58,75.11 -38.92,105.99 -17.63,24.61 -40.84,45.01 -67.13,59.94 31.12,17.62 72.82,12.94 99.93,-10.15 13.14,-11.09 22.24,-26.53 26.57,-43.1 1.29,9.46 0.52,19.08 -0.89,28.47 -3.27,20.89 -14.31,40.38 -30.56,53.91 -23.54,19.77 -54.71,28.17 -84.99,29.1 -18.76,0.02 -38.1,-2.31 -55.04,-10.91 -8.28,11.9 -19.79,21.15 -32,28.77 -18.54,11.37 -39.41,19.04 -61,21.89 -16,1.86 -32.54,1.32 -47.94,-3.75 -16.5,-5.2 -31.31,-15.53 -42.03,-29.09 -6.59,-8.15 -11.84,-17.33 -15.94,-26.96 9.78,10.46 21.82,18.99 35.47,23.56 36.55,12.59 80.71,-2.64 101.53,-35.26 -36.19,-1.1 -72.11,-11.44 -103.04,-30.34 -25.63,-15.51 -47.86,-36.6 -64.63,-61.43 -24.02,-35.36 -36.51,-78.27 -35.76,-120.97 -11.16,5.43 -20.1,14.71 -27.24,24.71 -8.71,12.59 -14.35,27.36 -15.94,42.6 -2.37,19.69 2.8,40.17 14.22,56.39 3.07,4.6 6.93,8.58 10.49,12.8 -20.04,-9.29 -37.88,-24.53 -47.63,-44.62 -9,-18 -10.89,-38.78 -8.42,-58.55 2.67,-19.86 9.61,-39.05 19.64,-56.36 8.9,-15.32 20.43,-29.43 35.19,-39.43 -6.52,-13.77 -8.55,-29.14 -8.98,-44.22 -0.17,-22.2 3.98,-44.58 13.08,-64.89 8.33,-18.59 21.42,-35.48 38.97,-46.15 18.78,-11.53 41.78,-15.18 63.44,-12.22 -11.35,3.18 -22.56,7.53 -32.03,14.71 -33.66,24.55 -44.83,74.99 -24.5,111.36 19.64,-32.41 48.24,-59.33 81.91,-76.74 31.03,-16.12 66.16,-24.32 101.12,-23.52 35.91,0.71 71.42,11.23 102.29,29.51 0.83,-40.35 -30.48,-78.65 -70.03,-86.34 -8.3,-1.74 -16.87,-1.75 -25.29,-1.03 -4.71,0.4 -9.25,1.92 -13.97,2.19 m 90.12,6.12 c 4.71,4.61 9.5,9.18 13.49,14.45 14.88,18.7 23.35,42.55 22.63,66.52 8.78,-2.14 17.6,-4.17 26.31,-6.61 C 443.94,96.46 433.29,79.03 419.52,64.53 410.43,55.04 399.95,46.7 388.06,40.99 M 81.83,161.78 c -3.02,17.98 -3.08,36.73 1.92,54.38 2.21,7.98 6.79,15 9.89,22.62 -5.36,3.24 -10.75,6.46 -15.92,10.01 -11.51,8.52 -20.21,20.28 -27.29,32.61 -11.63,20.82 -18.68,44.7 -17.48,68.67 1.77,-5.65 3.13,-11.44 5.33,-16.95 7.9,-20.36 21.76,-38.69 40.25,-50.51 9.49,-6.21 20.43,-9.56 30.54,-14.54 -1.17,-7.2 -5.24,-14.7 -1.81,-21.89 4.59,-8.53 10.06,-16.58 14.79,-25.04 -5.95,-9.18 -13,-17.7 -17.72,-27.63 C 92.17,168.15 92.34,138.1 101.84,111.92 91.15,126.54 84.9,144.03 81.83,161.78 m 149.29,-36.56 c -32.24,12.66 -60.74,34.67 -81.09,62.7 16.85,-14.3 34.37,-27.86 52.92,-39.91 25.14,-16.09 54.3,-25.83 84.07,-28.02 28.05,-2.15 56.61,2.56 82.51,13.53 4.35,2.54 9.08,-0.76 13.56,-1.33 -2.18,-2.17 -5.35,-2.85 -8,-4.26 -45.02,-20.37 -98.17,-21 -143.97,-2.71 m 203.77,49.54 c -0.44,1.98 -1.65,4.47 0.29,6.05 28.91,32.5 44.55,75.93 44.57,119.31 1.7,-4.42 2.26,-9.18 2.71,-13.85 1.41,-22.22 -3.78,-44.51 -12.95,-64.68 -4.55,-10.41 -10.56,-20.07 -16.08,-29.98 -1.52,-2.87 -3.55,-5.51 -4.46,-8.67 7.4,-0.31 14.76,-1.19 22.15,-1.59 18.84,-2.34 38.11,2.14 54.86,10.81 13.07,6.61 24.26,16.27 34.06,27.04 -5.87,-12.99 -14.65,-24.51 -24.82,-34.44 -14.29,-13.8 -31.33,-25.1 -50.29,-31.29 -9.77,-3.36 -20.19,-3.5 -30.39,-4.15 -0.46,-10.53 -0.07,-21.33 -3.48,-31.46 -5.71,18.87 -10.68,37.96 -16.17,56.9 m -281.91,25.03 c -2.95,0.87 -6.79,0.94 -8.37,4.07 -9.16,15.12 -18.26,30.27 -27.39,45.39 -1.13,1.64 -1.14,3.73 -0.72,5.61 13.97,56.36 27.91,112.72 41.92,169.06 0.33,1.89 1.61,3.46 3.28,4.36 14.96,9.02 29.92,18.06 44.89,27.05 1.6,1.07 3.56,1.53 5.44,0.95 20.43,-4.97 40.82,-10.15 61.27,-15.09 2.84,-9.47 5.36,-19.02 8.09,-28.53 13.1,-47.1 26.64,-94.09 39.47,-141.26 -26.72,6.79 -53.53,13.25 -80.27,19.96 -3.29,0.7 -5.74,4.34 -4.67,7.64 3.24,13.29 6.62,26.54 9.83,39.84 0.43,1.55 0.79,3.25 2.1,4.34 2.01,2.27 5.36,1.76 7.98,1.1 6.31,-1.66 12.67,-3.07 18.96,-4.79 -3.52,14.09 -7.81,27.99 -11.58,42.02 -0.61,2.59 -1.66,5.59 -4.47,6.48 -5.47,1.53 -11.02,2.73 -16.5,4.19 -2.66,0.61 -5.76,1.38 -8.2,-0.28 -5.55,-3.41 -11.19,-6.68 -16.71,-10.12 -1.8,-0.95 -2.6,-2.9 -3.02,-4.76 -8.83,-35.67 -17.65,-71.33 -26.52,-106.99 -0.54,-1.9 -0.74,-4.06 0.44,-5.77 3.34,-5.67 6.77,-11.29 10.18,-16.91 0.94,-1.72 2.63,-2.89 4.55,-3.25 19.87,-4.88 39.7,-9.92 59.6,-14.68 2.46,-7.74 4.59,-15.6 6.61,-23.47 0.49,0.64 0.85,1.35 1.07,2.13 3.11,13.51 6.77,26.89 9.81,40.42 2.36,-7.07 4.14,-14.34 6.19,-21.51 0.48,-1.32 0.39,-3.1 1.69,-3.96 23.51,-5.84 47.05,-11.57 70.54,-17.48 -21.67,76.77 -43.08,153.62 -64.75,230.4 11.46,-2.52 22.78,-5.63 34.19,-8.35 42.03,-10.44 84.1,-20.72 126.08,-31.32 6.26,-23.86 13.51,-47.46 19.69,-71.33 -6.83,4.77 -13.77,9.38 -20.62,14.11 -1.61,1.24 -3.57,1.8 -5.51,2.25 -21.86,5.32 -43.68,10.88 -65.55,16.16 -4.11,0.98 -8.29,-3.6 -6.91,-7.57 20.53,-73.5 41.36,-146.92 61.75,-220.45 -94.61,23.5 -189.24,46.9 -283.86,70.34 M 403,446.02 c -26.46,18.38 -57.88,29.58 -90.03,31.82 -13.38,1.31 -26.83,0.15 -40.13,-1.38 16.88,5.28 34.51,8.39 52.24,7.78 -2.91,6.62 -6.24,13.06 -9.27,19.63 -13.38,31.6 -44.88,53.4 -78.36,58.49 8.44,1.65 17.06,0.8 25.51,-0.27 12.86,-1.81 25.4,-5.63 37.22,-10.97 14.62,-6.68 28.62,-15.47 39.28,-27.66 4.51,-5.41 7.95,-11.6 12.18,-17.21 8.19,4.3 16.1,9.39 25.11,11.84 16.62,4.68 34.19,5.04 51.24,2.94 17.74,-2.47 35.38,-7.89 50.34,-17.92 -10.23,2.74 -20.65,5.1 -31.29,5.32 -20.92,0.62 -42.35,-4.76 -59.57,-16.91 -7.63,-5.54 -15.1,-11.32 -22.75,-16.84 9.32,-5.85 19.44,-10.36 28.92,-15.96 16.88,-9.81 32.25,-22.26 45.18,-36.9 -11.27,9.02 -23.43,16.82 -35.82,24.2 z"
       id="path50"
       inkscape:connector-curvature="0"
       style="opacity:1;fill:#3a414f" />
  </g>
  <g
     id="#ffffffff"
     transform="matrix(0.08,0,0,0.08,-2.5e-7,0.15999975)">
    <path
       d="m 152.98,199.79 c 94.62,-23.44 189.25,-46.84 283.86,-70.34 -20.39,73.53 -41.22,146.95 -61.75,220.45 -1.38,3.97 2.8,8.55 6.91,7.57 21.87,-5.28 43.69,-10.84 65.55,-16.16 1.94,-0.45 3.9,-1.01 5.51,-2.25 6.85,-4.73 13.79,-9.34 20.62,-14.11 -6.18,23.87 -13.43,47.47 -19.69,71.33 -41.98,10.6 -84.05,20.88 -126.08,31.32 -11.41,2.72 -22.73,5.83 -34.19,8.35 21.67,-76.78 43.08,-153.63 64.75,-230.4 -23.49,5.91 -47.03,11.64 -70.54,17.48 -1.3,0.86 -1.21,2.64 -1.69,3.96 -2.05,7.17 -3.83,14.44 -6.19,21.51 -3.04,-13.53 -6.7,-26.91 -9.81,-40.42 -0.22,-0.78 -0.58,-1.49 -1.07,-2.13 -2.02,7.87 -4.15,15.73 -6.61,23.47 -19.9,4.76 -39.73,9.8 -59.6,14.68 -1.92,0.36 -3.61,1.53 -4.55,3.25 -3.41,5.62 -6.84,11.24 -10.18,16.91 -1.18,1.71 -0.98,3.87 -0.44,5.77 8.87,35.66 17.69,71.32 26.52,106.99 0.42,1.86 1.22,3.81 3.02,4.76 5.52,3.44 11.16,6.71 16.71,10.12 2.44,1.66 5.54,0.89 8.2,0.28 5.48,-1.46 11.03,-2.66 16.5,-4.19 2.81,-0.89 3.86,-3.89 4.47,-6.48 3.77,-14.03 8.06,-27.93 11.58,-42.02 -6.29,1.72 -12.65,3.13 -18.96,4.79 -2.62,0.66 -5.97,1.17 -7.98,-1.1 -1.31,-1.09 -1.67,-2.79 -2.1,-4.34 -3.21,-13.3 -6.59,-26.55 -9.83,-39.84 -1.07,-3.3 1.38,-6.94 4.67,-7.64 26.74,-6.71 53.55,-13.17 80.27,-19.96 -12.83,47.17 -26.37,94.16 -39.47,141.26 -2.73,9.51 -5.25,19.06 -8.09,28.53 -20.45,4.94 -40.84,10.12 -61.27,15.09 -1.88,0.58 -3.84,0.12 -5.44,-0.95 -14.97,-8.99 -29.93,-18.03 -44.89,-27.05 -1.67,-0.9 -2.95,-2.47 -3.28,-4.36 -14.01,-56.34 -27.95,-112.7 -41.92,-169.06 -0.42,-1.88 -0.41,-3.97 0.72,-5.61 9.13,-15.12 18.23,-30.27 27.39,-45.39 1.58,-3.13 5.42,-3.2 8.37,-4.07 z"
       id="path53"
       inkscape:connector-curvature="0"
       style="opacity:1;fill:#ffffff" />
  </g>
</svg>
