<?xml version="1.0" encoding="utf-8"?>
<!-- Generator: Adobe Illustrator 23.0.2, SVG Export Plug-In . SVG Version: 6.00 Build 0)  -->
<svg version="1.1" id="Layer_1" xmlns="http://www.w3.org/2000/svg" xmlns:xlink="http://www.w3.org/1999/xlink" x="0px" y="0px"
	 width="64px" height="64px" viewBox="0 0 64 64" style="enable-background:new 0 0 64 64;" xml:space="preserve">
<g>
	<g>
		<path style="fill:#8EE32A;" d="M27.466,63.803c-0.745,0-1.489,0-2.234,0c-0.182-0.125-0.398-0.085-0.597-0.114
			c-3.594-0.529-6.371-2.273-8.238-5.436c-1.217-2.063-1.892-4.29-2.202-6.646c-0.023-0.174-0.112-0.346-0.038-0.573
			c0.482,0.441,0.938,0.862,1.397,1.279c1.256,1.141,2.481,2.322,3.921,3.235c2.645,1.677,5.342,1.728,8.073,0.204
			c0.1-0.056,0.224-0.09,0.285-0.226c-5.082-0.964-9.448-3.264-13.032-6.991c-3.576-3.719-5.701-8.167-6.479-13.327
			c-1.256,1.836-1.716,3.77-1.324,5.891c0.257,1.39,0.951,2.575,1.768,3.698c1.025,1.41,2.187,2.708,3.306,4.04
			c0.075,0.089,0.182,0.159,0.199,0.29c-0.024,0.008-0.045,0.023-0.062,0.019c-0.214-0.041-0.428-0.09-0.643-0.128
			c-1.983-0.356-3.87-0.965-5.64-1.96c-3.061-1.721-4.998-4.247-5.705-7.701C0.133,38.922,0.136,38.472,0,38.045
			c0-0.789,0-1.577,0-2.366c0.151-0.434,0.133-0.897,0.22-1.342c0.743-3.807,2.357-7.148,5.243-9.808
			c0.101-0.093,0.138-0.174,0.097-0.312c-0.546-1.851-0.667-3.741-0.506-5.655c0.222-2.641,0.919-5.142,2.277-7.431
			c1.673-2.819,4.045-4.741,7.276-5.5c1.377-0.323,2.78-0.284,4.182-0.18c1.987,0.148,3.826,0.819,5.712,1.569
			c-0.814,0.257-1.573,0.493-2.331,0.737C20.569,8.273,18.953,8.759,17.48,9.6c-1.925,1.1-3.156,2.73-3.645,4.903
			c-0.156,0.691-0.218,1.39-0.159,2.169c3.414-3.95,7.576-6.576,12.582-7.816c5.008-1.24,9.923-0.886,14.779,1.038
			c-0.06-0.138-0.083-0.199-0.111-0.256c-1.425-2.862-4.353-4.482-7.541-4.225c-1.793,0.145-3.552,0.487-5.319,0.796
			c-0.342,0.06-0.679,0.171-1.087,0.154c1.126-1.256,2.165-2.516,3.51-3.468c1.573-1.113,3.229-2.052,5.135-2.476
			c0.368-0.082,0.753-0.075,1.107-0.222c0.701,0,1.402,0,2.103,0c0.03,0.059,0.088,0.055,0.141,0.06
			c1.353,0.131,2.653,0.478,3.853,1.111c4.643,2.45,7.585,6.249,8.884,11.327c0.041,0.159,0.077,0.27,0.266,0.318
			c3.156,0.806,5.769,2.526,8.005,4.844c1.791,1.857,3.118,3.995,3.719,6.535c0.122,0.516,0.201,1.042,0.299,1.563
			c0,0.657,0,1.314,0,1.971c-0.067,0.042-0.056,0.113-0.062,0.176c-0.057,0.556-0.141,1.109-0.306,1.642
			c-0.843,2.729-2.408,4.984-4.549,6.852c-0.541,0.472-1.101,0.922-1.719,1.437c0.135-0.61,0.253-1.131,0.365-1.652
			c0.394-1.827,0.875-3.645,0.91-5.527c0.057-3.106-1.309-5.417-4.002-6.953c-0.046-0.026-0.09-0.062-0.188-0.018
			c1.696,4.865,1.882,9.795,0.446,14.756c-1.434,4.954-4.223,9.017-8.304,12.271c1.455,0.086,2.775-0.077,4.025-0.669
			c1.762-0.834,2.966-2.199,3.793-3.935c0.811-1.701,1.399-3.489,2.038-5.256c0.068-0.187,0.14-0.373,0.237-0.631
			c0.447,1.443,0.978,2.777,1.177,4.206c0.262,1.89,0.317,3.784-0.154,5.643c-0.732,2.884-2.415,5.129-4.943,6.654
			c-4.357,2.627-9.024,3.196-13.924,1.816c-0.163-0.046-0.267-0.054-0.401,0.082c-2.559,2.583-5.698,4.041-9.229,4.722
			C28.632,63.654,28.047,63.717,27.466,63.803z M60.057,33.181c0.407-0.464,0.706-0.999,0.994-1.538
			c1.218-2.276,1.577-4.667,0.899-7.178c-0.543-2.011-1.602-3.741-3.03-5.232c-2.347-2.451-5.076-4.255-8.517-4.763
			c-0.184-0.027-0.196-0.119-0.205-0.262c-0.028-0.493-0.102-0.981-0.235-1.456c-1.091-3.905-3.329-6.983-6.72-9.199
			c-1.608-1.051-3.389-1.626-5.325-1.642c-2.175-0.017-4.119,0.705-5.916,1.885c-0.046,0.03-0.094,0.058-0.099,0.121
			c6.891-1.844,11.933,4.674,11.473,9.053c-0.071-0.037-0.139-0.069-0.205-0.106c-4.567-2.607-9.46-3.577-14.648-2.718
			c-6.564,1.088-11.662,4.484-15.302,10.059c-0.063,0.097-0.094,0.267-0.216,0.263c-0.121-0.003-0.144-0.172-0.195-0.275
			c-0.837-1.696-1.06-3.493-0.778-5.341c0.454-2.974,1.915-5.297,4.57-6.803c0.745-0.423,1.551-0.698,2.45-0.927
			c-0.169-0.033-0.264-0.061-0.36-0.069c-1.848-0.137-3.653,0.028-5.365,0.8c-2.347,1.057-3.946,2.858-5.051,5.133
			c-1.055,2.173-1.532,4.486-1.56,6.891c-0.019,1.687,0.189,3.343,0.872,4.908c0.087,0.2-0.007,0.273-0.143,0.366
			c-0.573,0.389-1.089,0.846-1.557,1.356c-1.829,1.994-3.035,4.325-3.717,6.932c-0.517,1.976-0.651,3.973-0.173,5.978
			c0.69,2.895,2.458,4.954,5.014,6.388c0.217,0.122,0.422,0.274,0.676,0.32c0.004,0.008,0.006,0.018,0.011,0.025
			c0.003,0.003,0.012,0,0.019,0c-0.012-0.007-0.023-0.013-0.035-0.02c0.011-0.119-0.092-0.167-0.154-0.236
			c-2.182-2.407-2.892-5.206-2.128-8.346c0.589-2.422,1.907-4.375,4.033-5.738c0.088-0.057,0.183-0.17,0.288-0.12
			c0.116,0.055,0.054,0.197,0.054,0.298c0,0.833,0.039,1.662,0.131,2.491c0.409,3.693,1.605,7.111,3.744,10.149
			c4.241,6.024,10.082,9.23,17.43,9.702c0.104,0.007,0.247-0.046,0.301,0.057c0.056,0.105-0.068,0.195-0.127,0.28
			c-0.535,0.772-1.189,1.43-1.945,1.985c-3.62,2.656-8.766,2.725-12.172-0.777c-0.045-0.047-0.104-0.081-0.156-0.121
			c0.095,0.321,0.225,0.608,0.373,0.885c1.326,2.473,3.25,4.241,5.988,5.029c2.161,0.622,4.336,0.547,6.489-0.014
			c3.205-0.834,6.057-2.278,8.146-4.958c0.111-0.143,0.198-0.079,0.305-0.026c0.414,0.202,0.839,0.378,1.284,0.497
			c3.752,1.012,7.416,0.712,10.917-0.94c4.081-1.926,6.037-5.224,5.947-9.735c-0.003-0.169,0.005-0.342-0.084-0.558
			c-0.855,2.893-2.608,4.945-5.381,6.026c-2.724,1.062-5.418,0.958-8.101-0.43c0.17-0.105,0.268-0.168,0.369-0.227
			c7.198-4.266,11.347-11.913,10.982-20.263c-0.142-3.264-0.996-6.341-2.49-9.244c-0.077-0.15-0.277-0.328-0.179-0.458
			c0.1-0.133,0.347-0.045,0.528-0.025c1.861,0.205,3.512,0.923,4.929,2.131c2.574,2.195,3.78,4.954,3.316,8.361
			c-0.063,0.463-0.172,0.921-0.26,1.381c-0.011,0.006-0.022,0.013-0.033,0.019c0.006-0.001,0.013,0.001,0.016-0.002
			C60.051,33.197,60.053,33.188,60.057,33.181z"/>
		<path style="fill:#3A424F;" d="M7.689,46.125c-0.254-0.046-0.459-0.198-0.676-0.32c-2.556-1.434-4.325-3.492-5.014-6.388
			c-0.478-2.005-0.344-4.002,0.173-5.978c0.682-2.606,1.888-4.938,3.717-6.932c0.468-0.51,0.983-0.967,1.557-1.356
			c0.136-0.092,0.23-0.166,0.143-0.366c-0.683-1.565-0.891-3.221-0.872-4.908c0.028-2.405,0.505-4.718,1.56-6.891
			c1.105-2.276,2.704-4.076,5.051-5.133c1.712-0.771,3.517-0.937,5.365-0.8c0.096,0.007,0.191,0.036,0.36,0.069
			c-0.9,0.228-1.705,0.504-2.45,0.927c-2.654,1.507-4.115,3.83-4.57,6.803c-0.282,1.848-0.06,3.646,0.778,5.341
			c0.051,0.103,0.074,0.272,0.195,0.275c0.122,0.003,0.152-0.166,0.216-0.263c3.64-5.575,8.738-8.972,15.302-10.059
			c5.188-0.859,10.081,0.111,14.648,2.718c0.065,0.037,0.134,0.069,0.205,0.106c0.46-4.379-4.582-10.898-11.473-9.053
			c0.005-0.063,0.054-0.091,0.099-0.121c1.796-1.179,3.741-1.902,5.916-1.885c1.936,0.015,3.717,0.591,5.325,1.642
			c3.391,2.216,5.63,5.294,6.72,9.199c0.133,0.475,0.207,0.963,0.235,1.456c0.008,0.143,0.02,0.235,0.205,0.262
			c3.441,0.508,6.17,2.312,8.517,4.763c1.428,1.491,2.487,3.222,3.03,5.232c0.678,2.511,0.319,4.902-0.899,7.178
			c-0.288,0.539-0.588,1.074-0.994,1.538l0.004,0.005c0.088-0.46,0.196-0.917,0.26-1.381c0.464-3.407-0.742-6.167-3.316-8.361
			c-1.417-1.208-3.068-1.926-4.929-2.131c-0.18-0.02-0.427-0.108-0.528,0.025c-0.098,0.13,0.101,0.308,0.179,0.458
			c1.494,2.903,2.348,5.98,2.49,9.244c0.364,8.351-3.784,15.997-10.982,20.263c-0.101,0.06-0.2,0.123-0.369,0.227
			c2.683,1.388,5.376,1.493,8.101,0.43c2.773-1.081,4.526-3.133,5.381-6.026c0.088,0.216,0.08,0.389,0.084,0.558
			c0.09,4.511-1.866,7.809-5.947,9.735c-3.5,1.652-7.164,1.952-10.917,0.94c-0.444-0.12-0.87-0.295-1.284-0.497
			c-0.108-0.053-0.194-0.117-0.305,0.026c-2.089,2.68-4.941,4.124-8.146,4.958c-2.153,0.56-4.328,0.635-6.489,0.014
			c-2.738-0.788-4.662-2.556-5.988-5.029c-0.148-0.277-0.279-0.564-0.373-0.885c0.052,0.04,0.111,0.074,0.156,0.121
			c3.407,3.501,8.552,3.432,12.172,0.777c0.757-0.555,1.411-1.212,1.945-1.985c0.059-0.085,0.183-0.175,0.127-0.28
			c-0.054-0.103-0.198-0.05-0.301-0.057c-7.348-0.472-13.189-3.677-17.43-9.702c-2.139-3.038-3.335-6.455-3.744-10.149
			c-0.092-0.829-0.131-1.658-0.131-2.491c0-0.102,0.063-0.243-0.054-0.298c-0.106-0.05-0.2,0.063-0.288,0.12
			c-2.126,1.363-3.444,3.315-4.033,5.738c-0.764,3.14-0.054,5.939,2.128,8.346c0.062,0.069,0.165,0.118,0.154,0.236L7.689,46.125z
			 M16.235,20.047c0.024-0.02,0.048-0.039,0.073-0.059c0.078-0.059,0.16-0.114,0.234-0.177c1.686-1.434,3.445-2.772,5.322-3.945
			c3.071-1.919,6.43-2.88,10.048-2.914c2.615-0.024,5.129,0.493,7.541,1.505c0.118,0.05,0.23,0.14,0.371,0.105
			c0.336-0.082,0.67-0.169,1.008-0.254c-0.036-0.127-0.136-0.138-0.209-0.174c-2.401-1.168-4.937-1.843-7.603-1.962
			c-4.207-0.188-8.112,0.831-11.681,3.077c-1.982,1.248-3.689,2.805-5.089,4.689c-0.016,0.024-0.033,0.049-0.049,0.074
			c-0.021,0.023-0.044,0.047-0.005,0.072C16.199,20.087,16.222,20.06,16.235,20.047z M41.596,4.729
			c0.013-0.05-0.011-0.049-0.045-0.033c0.014,0.012,0.028,0.024,0.042,0.035c0.04,0.051,0.076,0.106,0.122,0.151
			c2.249,2.232,3.535,4.881,3.507,8.098c-0.002,0.21,0.066,0.232,0.252,0.183c0.772-0.2,1.546-0.39,2.323-0.572
			c0.194-0.046,0.245-0.112,0.17-0.31c-1.19-3.149-3.125-5.69-6.043-7.433C41.825,4.789,41.731,4.699,41.596,4.729z M59.569,23.416
			c0.021,0.023,0.043,0.046,0.064,0.069c0.04-0.044,0.021-0.078-0.019-0.108c-0.042-0.1-0.078-0.204-0.128-0.3
			c-0.492-0.949-1.109-1.811-1.839-2.588c-1.755-1.867-3.796-3.291-6.282-4.019c-0.838-0.246-1.705-0.266-2.567-0.313
			c-0.227-0.012-0.331-0.078-0.328-0.327c0.004-0.437-0.024-0.875-0.045-1.312c-0.027-0.562-0.117-1.112-0.29-1.652
			c-0.09,0.036-0.092,0.095-0.106,0.146c-0.57,2.032-1.137,4.064-1.714,6.094c-0.052,0.183,0.019,0.284,0.122,0.404
			c2.978,3.463,4.543,7.479,4.706,12.043c0.006,0.171-0.016,0.347,0.08,0.56c0.239-0.897,0.308-1.763,0.263-2.64
			c-0.13-2.553-0.919-4.907-2.156-7.125c-0.442-0.793-0.893-1.581-1.346-2.368c-0.112-0.193-0.083-0.259,0.149-0.273
			c0.666-0.039,1.333-0.077,1.996-0.151c2.206-0.246,4.261,0.214,6.2,1.268C57.564,21.497,58.624,22.384,59.569,23.416z
			 M34.231,29.204c-0.053-0.009-0.075-0.02-0.094-0.015c-2.811,0.696-5.621,1.391-8.431,2.091c-0.451,0.112-0.64,0.431-0.526,0.897
			c0.346,1.423,0.699,2.844,1.056,4.264c0.114,0.455,0.431,0.638,0.894,0.537c0.117-0.025,0.232-0.063,0.349-0.091
			c0.6-0.147,1.2-0.293,1.851-0.452c-0.46,1.634-0.899,3.209-1.349,4.781c-0.073,0.254-0.286,0.375-0.534,0.436
			c-0.605,0.149-1.209,0.299-1.813,0.45c-0.256,0.064-0.489,0.035-0.721-0.111c-0.537-0.337-1.082-0.663-1.629-0.984
			c-0.221-0.13-0.358-0.303-0.421-0.555c-0.942-3.819-1.885-7.638-2.837-11.455c-0.067-0.268-0.025-0.488,0.115-0.715
			c0.322-0.521,0.643-1.042,0.946-1.575c0.159-0.28,0.381-0.423,0.689-0.497c1.731-0.42,3.458-0.853,5.187-1.284
			c0.349-0.087,0.779-0.088,1.02-0.301c0.254-0.224,0.238-0.681,0.343-1.036c0.136-0.46,0.265-0.921,0.421-1.465
			c0.385,1.549,0.746,3.005,1.112,4.479c0.094-0.054,0.095-0.123,0.112-0.183c0.193-0.683,0.404-1.362,0.57-2.052
			c0.067-0.277,0.199-0.387,0.462-0.45c1.487-0.357,2.971-0.731,4.456-1.098c0.908-0.224,1.817-0.447,2.77-0.681
			c-2.304,8.213-4.594,16.378-6.893,24.571c0.074-0.006,0.116-0.005,0.155-0.014c5.558-1.376,11.115-2.754,16.673-4.128
			c0.181-0.045,0.268-0.134,0.317-0.312c0.657-2.368,1.322-4.735,1.981-7.103c0.02-0.072,0.091-0.146,0.022-0.245
			c-0.71,0.483-1.416,0.961-2.119,1.444c-0.155,0.107-0.317,0.192-0.5,0.237c-2.302,0.57-4.603,1.142-6.905,1.71
			c-0.721,0.178-1.102-0.224-0.899-0.945c1.902-6.785,3.804-13.569,5.706-20.354c0.273-0.975,0.545-1.949,0.818-2.924
			c-0.112-0.055-0.195-0.014-0.276,0.006c-10.107,2.506-20.213,5.015-30.321,7.517c-0.288,0.071-0.486,0.209-0.637,0.462
			c-0.926,1.548-1.857,3.094-2.796,4.635c-0.154,0.253-0.185,0.501-0.115,0.782c1.478,5.949,2.955,11.898,4.425,17.849
			c0.072,0.29,0.218,0.482,0.469,0.632c1.548,0.927,3.093,1.858,4.635,2.795c0.243,0.148,0.482,0.184,0.751,0.117
			c2.057-0.513,4.113-1.028,6.173-1.53c0.216-0.053,0.297-0.157,0.351-0.355c0.267-0.98,0.547-1.957,0.822-2.935
			C31.454,39.11,32.84,34.167,34.231,29.204z M46.444,45.588c-0.131,0.037-0.167,0.037-0.189,0.055
			c-1.11,0.86-2.335,1.545-3.504,2.316c-3.639,2.397-7.621,3.5-11.978,3.246c-0.413-0.024-0.823-0.119-1.244-0.056
			c0.096,0.048,0.197,0.078,0.298,0.106c1.473,0.41,2.967,0.657,4.503,0.603c0.347-0.012,0.356,0.011,0.212,0.316
			c-0.322,0.683-0.653,1.361-0.972,2.045c-1.063,2.279-2.79,3.889-5.023,4.988c-0.981,0.483-2.019,0.802-3.091,1.021
			c0.812,0.136,1.621,0.103,2.421-0.03c3.893-0.647,7.266-2.168,9.422-5.691c0.156-0.254,0.285-0.244,0.521-0.115
			c0.739,0.402,1.464,0.834,2.282,1.072c1.698,0.496,3.429,0.56,5.173,0.379c1.859-0.192,3.626-0.699,5.254-1.641
			c0.108-0.062,0.244-0.098,0.304-0.241c-0.167-0.02-0.306,0.055-0.451,0.093c-2.158,0.567-4.303,0.547-6.443-0.108
			c-1.938-0.592-3.426-1.901-4.991-3.09c-0.007-0.006-0.008-0.02-0.024-0.063C41.64,49.424,44.312,47.977,46.444,45.588z
			 M10.782,12.372c-0.156,0.035-0.188,0.151-0.242,0.238c-1.663,2.69-2.207,5.632-1.965,8.749c0.102,1.318,0.503,2.546,1.129,3.709
			c0.315,0.585,0.309,0.622-0.263,0.937c-1.651,0.908-2.88,2.231-3.832,3.831c-1.311,2.205-2.088,4.569-2.108,7.155
			c-0.001,0.115-0.039,0.248,0.082,0.374c0.037-0.137,0.066-0.242,0.093-0.346c0.542-2.044,1.549-3.821,3.038-5.327
			c1.125-1.138,2.49-1.878,3.96-2.457c0.314-0.124,0.744-0.199,0.89-0.438c0.162-0.264-0.085-0.662-0.177-0.994
			c-0.171-0.62-0.083-1.181,0.262-1.725c0.428-0.674,0.823-1.37,1.245-2.048c0.101-0.162,0.108-0.277-0.008-0.436
			c-0.322-0.442-0.625-0.899-0.936-1.349c-1.652-2.398-2.107-5.049-1.665-7.889C10.39,13.683,10.581,13.035,10.782,12.372z
			 M10.796,12.257l0.015,0.01l0.002-0.017L10.796,12.257z M50.953,53.902l-0.01,0.015l0.017,0.002L50.953,53.902z"/>
		<path style="fill:#3A424F;" d="M60.057,33.181c-0.004,0.008-0.007,0.016-0.012,0.022c-0.003,0.003-0.011,0.001-0.016,0.002
			c0.011-0.006,0.022-0.013,0.033-0.019C60.062,33.186,60.057,33.181,60.057,33.181z"/>
		<path style="fill:#3A424F;" d="M7.685,46.131c0.012,0.007,0.023,0.013,0.035,0.02c-0.006,0-0.016,0.003-0.019,0
			c-0.006-0.007-0.008-0.016-0.011-0.025C7.689,46.125,7.685,46.131,7.685,46.131z"/>
		<path style="fill:#FDFDFD;" d="M34.231,29.204c-1.391,4.962-2.777,9.906-4.163,14.849c-0.274,0.978-0.555,1.955-0.822,2.935
			c-0.054,0.199-0.135,0.303-0.351,0.355c-2.06,0.501-4.116,1.017-6.173,1.53c-0.269,0.067-0.508,0.031-0.751-0.117
			c-1.541-0.938-3.087-1.869-4.635-2.795c-0.25-0.15-0.397-0.342-0.469-0.632c-1.47-5.951-2.947-11.9-4.425-17.849
			c-0.07-0.282-0.039-0.529,0.115-0.782c0.938-1.541,1.869-3.086,2.796-4.635c0.151-0.253,0.349-0.391,0.637-0.462
			c10.108-2.502,20.214-5.01,30.321-7.517c0.08-0.02,0.164-0.061,0.276-0.006c-0.273,0.974-0.545,1.949-0.818,2.924
			c-1.902,6.785-3.805,13.569-5.706,20.354c-0.202,0.721,0.178,1.123,0.899,0.945c2.302-0.568,4.603-1.14,6.905-1.71
			c0.183-0.045,0.345-0.13,0.5-0.237c0.703-0.483,1.409-0.961,2.119-1.444c0.069,0.098-0.002,0.173-0.022,0.245
			c-0.659,2.368-1.323,4.735-1.981,7.103c-0.049,0.178-0.137,0.268-0.317,0.312c-5.558,1.373-11.116,2.751-16.673,4.128
			c-0.039,0.01-0.081,0.008-0.155,0.014c2.298-8.193,4.589-16.359,6.893-24.571c-0.953,0.234-1.862,0.456-2.77,0.681
			c-1.485,0.367-2.968,0.741-4.456,1.098c-0.263,0.063-0.396,0.173-0.462,0.45c-0.166,0.69-0.378,1.369-0.57,2.052
			c-0.017,0.061-0.018,0.129-0.112,0.183c-0.366-1.474-0.728-2.93-1.112-4.479c-0.156,0.544-0.285,1.005-0.421,1.465
			c-0.105,0.354-0.089,0.811-0.343,1.036c-0.241,0.213-0.671,0.214-1.02,0.301c-1.728,0.431-3.456,0.864-5.187,1.284
			c-0.308,0.075-0.53,0.218-0.689,0.497c-0.303,0.532-0.624,1.054-0.946,1.575c-0.14,0.227-0.182,0.447-0.115,0.715
			c0.952,3.817,1.895,7.635,2.837,11.455c0.062,0.252,0.199,0.425,0.421,0.555c0.547,0.321,1.092,0.646,1.629,0.984
			c0.231,0.145,0.464,0.175,0.721,0.111c0.604-0.151,1.209-0.301,1.813-0.45c0.248-0.061,0.461-0.182,0.534-0.436
			c0.45-1.572,0.889-3.148,1.349-4.781c-0.651,0.159-1.251,0.305-1.851,0.452c-0.117,0.029-0.231,0.066-0.349,0.091
			c-0.463,0.1-0.78-0.082-0.894-0.537c-0.357-1.42-0.71-2.841-1.056-4.264c-0.114-0.467,0.075-0.785,0.526-0.897
			c2.81-0.7,5.62-1.395,8.431-2.091C34.155,29.185,34.177,29.195,34.231,29.204z"/>
		<path style="fill:#8DE229;" d="M46.444,45.588c-2.132,2.388-4.804,3.835-7.52,5.203c0.016,0.043,0.016,0.058,0.024,0.063
			c1.565,1.188,3.053,2.497,4.991,3.09c2.14,0.654,4.285,0.675,6.443,0.108c0.145-0.038,0.284-0.112,0.451-0.093
			c-0.06,0.143-0.196,0.179-0.304,0.241c-1.627,0.942-3.395,1.449-5.254,1.641c-1.744,0.181-3.474,0.116-5.173-0.379
			c-0.818-0.239-1.543-0.67-2.282-1.072c-0.236-0.129-0.366-0.139-0.521,0.115c-2.156,3.523-5.529,5.044-9.422,5.691
			c-0.8,0.133-1.609,0.166-2.421,0.03c1.072-0.219,2.109-0.538,3.091-1.021c2.233-1.098,3.96-2.709,5.023-4.988
			c0.319-0.684,0.649-1.363,0.972-2.045c0.144-0.305,0.134-0.329-0.212-0.316c-1.536,0.055-3.03-0.193-4.503-0.603
			c-0.101-0.028-0.202-0.058-0.298-0.106c0.421-0.062,0.831,0.032,1.244,0.056c4.356,0.255,8.339-0.848,11.978-3.246
			c1.169-0.77,2.394-1.456,3.504-2.316C46.277,45.626,46.312,45.626,46.444,45.588z"/>
		<path style="fill:#8DE229;" d="M10.782,12.372c-0.201,0.663-0.392,1.311-0.496,1.98c-0.441,2.84,0.013,5.491,1.665,7.889
			c0.311,0.451,0.613,0.907,0.936,1.349c0.116,0.159,0.109,0.274,0.008,0.436c-0.421,0.679-0.816,1.374-1.245,2.048
			c-0.345,0.544-0.433,1.105-0.262,1.725c0.092,0.332,0.339,0.731,0.177,0.994c-0.147,0.239-0.576,0.315-0.89,0.438
			c-1.469,0.579-2.835,1.318-3.96,2.457c-1.489,1.507-2.496,3.283-3.038,5.327c-0.028,0.105-0.056,0.209-0.093,0.346
			c-0.121-0.126-0.083-0.259-0.082-0.374c0.02-2.586,0.797-4.95,2.108-7.155c0.952-1.601,2.18-2.923,3.832-3.831
			c0.572-0.315,0.578-0.352,0.263-0.937c-0.626-1.163-1.027-2.39-1.129-3.709c-0.242-3.117,0.302-6.059,1.965-8.749
			C10.594,12.523,10.627,12.407,10.782,12.372z"/>
		<path style="fill:#8CE129;" d="M59.569,23.416c-0.945-1.032-2.005-1.919-3.24-2.591c-1.938-1.053-3.994-1.514-6.2-1.268
			c-0.663,0.074-1.33,0.112-1.996,0.151c-0.231,0.014-0.26,0.079-0.149,0.273c0.454,0.787,0.904,1.575,1.346,2.368
			c1.237,2.217,2.025,4.572,2.156,7.125c0.045,0.877-0.024,1.743-0.263,2.64c-0.096-0.213-0.074-0.389-0.08-0.56
			c-0.163-4.564-1.729-8.579-4.706-12.043c-0.103-0.12-0.174-0.221-0.122-0.404c0.578-2.029,1.144-4.062,1.714-6.094
			c0.014-0.051,0.016-0.11,0.106-0.146c0.173,0.54,0.263,1.09,0.29,1.652c0.021,0.437,0.049,0.875,0.045,1.312
			c-0.002,0.249,0.102,0.314,0.328,0.327c0.862,0.047,1.728,0.068,2.567,0.313c2.485,0.728,4.527,2.152,6.282,4.019
			c0.731,0.777,1.348,1.639,1.839,2.588c0.05,0.096,0.086,0.2,0.128,0.3C59.599,23.391,59.584,23.404,59.569,23.416z"/>
		<path style="fill:#8CE02A;" d="M16.25,19.939c1.401-1.884,3.107-3.441,5.09-4.689c3.569-2.246,7.473-3.265,11.681-3.077
			c2.666,0.119,5.202,0.793,7.603,1.962c0.074,0.036,0.173,0.047,0.209,0.174c-0.338,0.085-0.672,0.172-1.008,0.254
			c-0.14,0.034-0.252-0.056-0.371-0.105c-2.412-1.012-4.925-1.529-7.541-1.505c-3.618,0.034-6.977,0.995-10.048,2.914
			c-1.877,1.173-3.636,2.511-5.322,3.945c-0.074,0.063-0.156,0.118-0.234,0.177C16.289,19.972,16.269,19.955,16.25,19.939z"/>
		<path style="fill:#8CE129;" d="M41.596,4.729c0.134-0.029,0.228,0.06,0.328,0.12c2.918,1.743,4.853,4.284,6.043,7.433
			c0.075,0.198,0.024,0.264-0.17,0.31c-0.776,0.182-1.551,0.372-2.323,0.572c-0.186,0.048-0.254,0.027-0.252-0.183
			c0.028-3.217-1.258-5.866-3.507-8.098c-0.046-0.045-0.081-0.1-0.122-0.151L41.596,4.729z"/>
		<path style="fill:#8CE129;" d="M59.614,23.378c0.04,0.03,0.059,0.064,0.019,0.108c-0.021-0.023-0.043-0.046-0.064-0.069
			C59.584,23.404,59.599,23.391,59.614,23.378z"/>
		<path style="fill:#8CE129;" d="M41.593,4.731c-0.014-0.012-0.028-0.024-0.042-0.035c0.035-0.016,0.058-0.017,0.045,0.033
			C41.596,4.729,41.593,4.731,41.593,4.731z"/>
		<polygon style="fill:#8DE229;" points="10.796,12.257 10.813,12.25 10.811,12.267 		"/>
		<path style="fill:#8CE02A;" d="M16.308,19.988c-0.024,0.02-0.048,0.039-0.073,0.059c-0.011-0.012-0.023-0.024-0.035-0.035
			c0.016-0.024,0.033-0.049,0.049-0.073C16.269,19.955,16.289,19.972,16.308,19.988z"/>
		<path style="fill:#8CE02A;" d="M16.235,20.047c-0.014,0.013-0.036,0.04-0.039,0.038c-0.039-0.025-0.016-0.049,0.005-0.072
			C16.212,20.023,16.224,20.035,16.235,20.047z"/>
		<polygon style="fill:#8DE229;" points="50.953,53.902 50.96,53.919 50.943,53.917 		"/>
	</g>
</g>
</svg>
