<svg id="Layer_1" data-name="Layer 1" xmlns="http://www.w3.org/2000/svg" viewBox="0 0 215.92 421.2" height="64" width="64"><defs><style>.cls-1{fill:#4ab16c;}.cls-2{fill:#87cb9d;}</style></defs><title>HAVU_2019</title><path class="cls-1" d="M102.68,257c-3.3-6.76-8.16-12.41-13-18-13.27-15.31-27.5-29.69-42.12-43.69-10.57-10.12-21.38-20-32.09-30-.17-.16-.32-.35-.7-.78,6.4-9.74,12.83-19.53,19.46-29.6,8.58,13.82,17.92,26.55,32.14,35.44.11-1.06.24-1.72.25-2.38a76.64,76.64,0,0,0-4.13-24.47,137.73,137.73,0,0,0-14.19-30.06c-.41-.68-.83-1.35-1.3-2.11L102.75.06l.47.11V2.46q0,28.68.06,57.35c0,20.88.12,41.75.15,62.62q.07,41.28.07,82.55,0,14.16-.07,28.31c-.06,7.92-.2,15.83-.3,23.75Z"/><path class="cls-1" d="M112.38,257.37V.16l.4-.16c.4.72.82,1.42,1.19,2.16q15.68,31.29,31.34,62.6c7.4,14.79,14.79,29.6,22.29,44.34a4,4,0,0,1-.26,4.56c-7.37,11.89-13.22,24.45-16.42,38.14-1.51,6.46-2.14,13.49-1.54,18.36.9-.51,1.73-.93,2.5-1.42,6.6-4.25,12-9.8,17-15.79a118.46,118.46,0,0,0,12.44-18c6.85,9.86,13.13,19.76,19.64,29.73-1.11,1-2.2,1.89-3.23,2.86-12.38,11.7-24.85,23.3-37.09,35.14-11.37,11-22.41,22.38-32.85,34.3-2.73,3.13-5.46,6.28-8,9.6S114.91,253.67,112.38,257.37Z"/><path class="cls-1" d="M205.5,171.89a144.5,144.5,0,0,1,10.42,18.93c-1.24,1.41-2.46,2.76-3.65,4.15-12.58,14.58-22.37,30.93-30.38,48.39a324.07,324.07,0,0,0-23.16,73.41,278.92,278.92,0,0,0-5.5,46.61,148.91,148.91,0,0,0,.81,15.78,42,42,0,0,0,1.48,6.25L112.81,421.2c-.06-.9-.13-1.42-.13-1.93l-.06-15.12q-.11-47.38-.21-94.77c0-7.6.13-15.19.29-22.79.1-5.38,2-10.33,4.15-15.15,3.93-8.64,9.21-16.45,14.9-24a374.18,374.18,0,0,1,32.61-37.1q19.11-19.41,39.71-37.25C204.43,172.78,204.8,172.48,205.5,171.89Z"/><path class="cls-1" d="M60,385.06c1.84-3.89,2.17-8,2.35-12A191.18,191.18,0,0,0,61,343.35a337.42,337.42,0,0,0-21.74-87.18c-7.72-19.4-17.4-37.74-30.25-54.29C6.38,198.47,3.51,195.23.7,192c-.65-.76-1-1.4-.43-2.34q4.8-8.56,9.58-17.15c.07-.12.25-.19.53-.39,1.71,1.48,3.47,3,5.19,4.49,17.52,15.59,34.51,31.72,50.24,49.14C76,237,85.62,248.55,93.51,261.53c3.83,6.3,7.27,12.81,8.79,20.12a30.5,30.5,0,0,1,.74,6.16q.12,43.08.1,86.16c0,14.95,0,29.91-.06,44.87,0,.63,0,1.26,0,1.93C101.27,420.09,65,390,60,385.06Z"/><path class="cls-2" d="M102.68,257h.45c0,.22-.08.44-.11.66Z"/></svg>