<?xml version="1.0" encoding="UTF-8" standalone="no"?>
<svg
   xmlns:dc="http://purl.org/dc/elements/1.1/"
   xmlns:cc="http://creativecommons.org/ns#"
   xmlns:rdf="http://www.w3.org/1999/02/22-rdf-syntax-ns#"
   xmlns:svg="http://www.w3.org/2000/svg"
   xmlns="http://www.w3.org/2000/svg"
   xmlns:sodipodi="http://sodipodi.sourceforge.net/DTD/sodipodi-0.dtd"
   xmlns:inkscape="http://www.inkscape.org/namespaces/inkscape"
   width="64"
   height="64"
   viewBox="0 0 48 48"
   version="1.1"
   id="svg36"
   sodipodi:docname="havu.svg"
   inkscape:version="0.92.3 (2405546, 2018-03-11)">
  <metadata
     id="metadata42">
    <rdf:RDF>
      <cc:Work
         rdf:about="">
        <dc:format>image/svg+xml</dc:format>
        <dc:type
           rdf:resource="http://purl.org/dc/dcmitype/StillImage" />
        <dc:title></dc:title>
      </cc:Work>
    </rdf:RDF>
  </metadata>
  <defs
     id="defs40" />
  <sodipodi:namedview
     pagecolor="#ffffff"
     bordercolor="#666666"
     borderopacity="1"
     objecttolerance="10"
     gridtolerance="10"
     guidetolerance="10"
     inkscape:pageopacity="0"
     inkscape:pageshadow="2"
     inkscape:window-width="1920"
     inkscape:window-height="1017"
     id="namedview38"
     showgrid="false"
     inkscape:pagecheckerboard="true"
     units="px"
     inkscape:zoom="4.3265306"
     inkscape:cx="65.099419"
     inkscape:cy="12.610289"
     inkscape:window-x="-8"
     inkscape:window-y="-8"
     inkscape:window-maximized="1"
     inkscape:current-layer="svg36" />
  <g
     id="#4eb06cff"
     transform="matrix(0.32795846,0,0,0.32795846,11.701558,-0.20989352)">
    <path
       d="m 35.52,0.78 c 1.05,4.65 0.11,9.5 0.42,14.23 0.35,12 -0.32,24 0.14,35.99 -0.53,12.78 0.06,25.59 -0.17,38.37 C 26.89,77.76 16.14,67.6 5.26,57.77 7.33,54.2 9.67,50.79 11.94,47.34 14.88,52.16 18.43,56.76 23.28,59.8 23.4,52.31 20.22,45.29 16.42,39.02 22.81,26.28 29.14,13.52 35.52,0.78 Z"
       id="path27"
       inkscape:connector-curvature="0"
       style="opacity:1;fill:#4eb06c" />
    <path
       d="m 39.31,0.64 c 6.59,12.71 12.8,25.61 19.28,38.38 -3.82,6.28 -6.99,13.3 -6.88,20.79 4.84,-3.05 8.41,-7.63 11.34,-12.46 2.29,3.43 4.62,6.85 6.7,10.42 -3.66,2.99 -6.99,6.35 -10.39,9.62 C 52.34,74.41 45.07,81.26 39.19,89.3 38.89,76.22 39.32,63.13 38.89,50.06 39.41,41.37 38.79,32.67 38.97,23.98 39.57,16.2 38.43,8.39 39.31,0.64 Z"
       id="path29"
       inkscape:connector-curvature="0"
       style="opacity:1;fill:#4eb06c" />
    <path
       d="m 0,66.34 c 1.17,-2.11 2.41,-4.18 3.68,-6.23 10.76,10.03 22.1,19.95 29.71,32.71 3.31,5.12 2.25,11.38 2.44,17.13 0.14,12.35 -0.27,24.7 0.04,37.05 h -0.4 c -4.48,-4.4 -9.49,-8.2 -14.24,-12.29 1.43,-10.72 -0.56,-21.52 -3.14,-31.9 C 14.59,89.79 9.25,76.83 0,66.81 Z"
       id="path31"
       inkscape:connector-curvature="0"
       style="opacity:1;fill:#4eb06c" />
    <path
       d="m 45.24,87.23 c 7.48,-10.09 16.82,-18.6 26.02,-27.09 1.31,1.92 2.46,3.95 3.74,5.89 v 0.63 c -8.18,9.15 -13.49,20.48 -16.97,32.16 -3.27,11.61 -5.8,23.8 -4.27,35.91 -4.97,4.02 -9.68,8.36 -14.74,12.27 H 38.9 c 0.91,-15.9 -0.24,-31.87 0.45,-47.79 0.59,-4.52 3.34,-8.34 5.89,-11.98 z"
       id="path33"
       inkscape:connector-curvature="0"
       style="opacity:1;fill:#4eb06c" />
  </g>
</svg>
