<?xml version="1.0" encoding="utf-8"?>
<!-- Generator: Adobe Illustrator 22.0.0, SVG Export Plug-In . SVG Version: 6.00 Build 0)  -->
<svg version="1.1" id="Camada_1" xmlns="http://www.w3.org/2000/svg" xmlns:xlink="http://www.w3.org/1999/xlink" x="0px" y="0px"
	 width="64px" height="64px" viewBox="0 0 64 64" enable-background="new 0 0 64 64" xml:space="preserve">
<g>
	<g>
		<path fill="#FFFFFF" d="M31.741,61.04c-0.709-0.27-1.421-0.531-2.127-0.81c-3.85-1.52-7.31-3.64-10.17-6.668
			c-1.591-1.685-2.919-3.551-3.803-5.711c-0.095-0.232-0.135-0.466-0.134-0.718c0.003-10.802,0.002-21.604,0.009-32.407
			c0-0.267-0.067-0.463-0.253-0.654c-0.626-0.642-1.32-1.183-2.152-1.532c-1.075-0.451-2.17-0.485-3.233-0.011
			c-1.594,0.71-2.817,1.855-3.594,3.418c-0.948,1.908-0.654,3.799,0.324,5.587c1.495,2.732,3.814,4.488,6.755,5.452
			c0.082,0.027,0.167,0.045,0.246,0.076c0.419,0.165,0.643,0.536,0.585,0.96c-0.057,0.415-0.386,0.715-0.83,0.758
			c-5.363,0.521-9.719-1.987-11.966-6.876c-0.742-1.615-1.208-3.296-1.325-5.072C0.071,16.766,0.095,16.681,0,16.647
			c0-0.592,0-1.184,0-1.776c0.112-0.043,0.072-0.144,0.078-0.222c0.176-2.303,0.811-4.467,2.023-6.438
			C3.84,5.384,6.27,3.54,9.622,3.048C9.698,3.037,9.803,3.074,9.84,2.96c0.715,0,1.43,0,2.146,0c0.02,0.082,0.088,0.066,0.146,0.073
			c1.545,0.169,3.006,0.631,4.407,1.289c2.147,1.009,4.039,2.394,5.799,3.968c0.151,0.135,0.262,0.195,0.474,0.089
			c3.704-1.851,7.677-1.999,11.69-1.758c2.342,0.141,4.574,0.791,6.697,1.794c0.169,0.08,0.274,0.063,0.413-0.065
			c0.661-0.61,1.355-1.182,2.077-1.719c2.122-1.579,4.396-2.841,7.01-3.416c0.413-0.091,0.85-0.062,1.24-0.256
			c0.691,0,1.381,0,2.072,0c0.015,0.058,0.06,0.064,0.111,0.069c2.458,0.252,4.515,1.322,6.203,3.101
			c1.942,2.046,3.005,4.519,3.471,7.276c0.07,0.414,0.034,0.846,0.203,1.243c0,0.049,0,0.099,0,0.148
			c-0.14,0.065-0.073,0.19-0.074,0.288c-0.006,0.449-0.006,0.898,0.001,1.347c0.001,0.098-0.064,0.222,0.074,0.289
			c0,0.074,0,0.148,0,0.222c-0.178,0.382-0.132,0.804-0.208,1.205c-0.617,3.254-1.991,6.094-4.572,8.248
			c-1.767,1.474-3.847,2.201-6.128,2.393c-0.776,0.065-1.55,0.067-2.326,0.001c-0.55-0.047-0.892-0.317-0.956-0.794
			c-0.061-0.447,0.234-0.824,0.757-0.988c2.799-0.877,5.017-2.523,6.583-5.013c0.692-1.1,1.117-2.304,1.135-3.615
			c0.023-1.671-0.672-3.045-1.835-4.208c-0.902-0.902-1.89-1.655-3.182-1.901c-1.167-0.222-2.217,0.094-3.201,0.706
			c-0.084,0.052-0.161,0.114-0.244,0.167c-0.91,0.584-1.575,1.295-1.301,2.496c0,10.444-0.002,20.887,0.008,31.331
			c0,0.477-0.141,0.891-0.333,1.304c-1.494,3.214-3.795,5.759-6.584,7.887c-2.867,2.188-6.066,3.733-9.497,4.816
			c-0.03,0.009-0.053,0.041-0.079,0.062C31.938,61.04,31.84,61.04,31.741,61.04z M16.422,33.483c0,4.513,0.001,9.026-0.003,13.539
			c0,0.226,0.04,0.432,0.129,0.641c0.829,1.95,2.036,3.647,3.475,5.184c3.245,3.464,7.256,5.687,11.708,7.19
			c0.155,0.052,0.283,0.025,0.427-0.022c3.034-1.002,5.889-2.364,8.474-4.254c2.7-1.974,4.956-4.35,6.493-7.352
			c0.243-0.475,0.481-0.944,0.48-1.523c-0.014-8.767-0.01-17.534-0.01-26.302c0-1.079,0-1.077-1.106-1.209
			c-1.616-0.193-3.166,0.143-4.692,0.609c-2.798,0.854-5.212,2.303-7.045,4.634c-0.176,0.224-0.219,0.415-0.128,0.697
			c1.142,3.558,2.202,7.139,3,10.792c0.373,1.709,0.69,3.428,0.74,5.184c0.006,0.2-0.047,0.337-0.204,0.474
			c-1.824,1.591-3.795,2.982-5.827,4.289c-0.247,0.159-0.51,0.183-0.765,0.016c-2.003-1.306-3.953-2.684-5.757-4.26
			c-0.188-0.164-0.246-0.33-0.241-0.57c0.031-1.585,0.33-3.131,0.667-4.672c0.782-3.57,1.847-7.06,3.024-10.514
			c0.22-0.647,0.104-1.046-0.306-1.528c-2.209-2.596-5.035-4.134-8.311-4.907c-1.255-0.296-2.524-0.42-3.811-0.166
			c-0.326,0.064-0.419,0.19-0.418,0.527C16.427,24.481,16.422,28.982,16.422,33.483z M32.105,20.574
			c-0.182,0.507-0.336,0.929-0.485,1.352c-1.61,4.563-3.137,9.152-4.275,13.86c-0.399,1.651-0.731,3.314-0.861,5.013
			c-0.021,0.269,0.053,0.449,0.266,0.627c1.58,1.32,3.239,2.531,4.965,3.651c0.17,0.11,0.277,0.113,0.452,0.001
			c1.656-1.07,3.243-2.233,4.784-3.463c0.407-0.325,0.515-0.65,0.465-1.155c-0.203-2.063-0.636-4.081-1.131-6.088
			c-0.942-3.817-2.102-7.571-3.342-11.301C32.675,22.265,32.402,21.458,32.105,20.574z M34.085,23.409c0-0.193,0-0.386,0-0.579
			c0-4.994-0.003-9.988,0.008-14.982c0.001-0.297-0.078-0.377-0.364-0.374c-1.122,0.01-2.244,0.012-3.365-0.011
			c-0.333-0.007-0.396,0.098-0.396,0.417c0.012,5.08,0.008,10.161,0.008,15.241c0,0.186,0,0.372,0,0.558
			c0.722-1.905,1.402-3.807,2.152-5.749C32.805,19.801,33.426,21.607,34.085,23.409z M29.178,23.408c0-1.216,0-2.369,0-3.523
			c0-4.004-0.004-8.009,0.007-12.013c0.001-0.299-0.085-0.34-0.355-0.302c-1.037,0.146-2.058,0.357-3.067,0.641
			c-0.27,0.076-0.36,0.185-0.359,0.475c0.012,3.672,0.019,7.343-0.005,11.015c-0.004,0.548,0.124,0.872,0.631,1.153
			C27.205,21.506,28.218,22.383,29.178,23.408z M34.875,23.079c0.574-0.586,1.124-1.075,1.715-1.516
			c0.593-0.442,1.213-0.841,1.87-1.181c0.188-0.097,0.184-0.23,0.184-0.393c-0.002-3.77-0.004-7.539,0.005-11.309
			c0.001-0.241-0.073-0.339-0.3-0.405c-1.042-0.299-2.094-0.535-3.17-0.682c-0.303-0.041-0.308,0.059-0.308,0.295
			c0.006,2.784,0.004,5.568,0.004,8.352C34.875,18.491,34.875,20.741,34.875,23.079z M24.611,8.611
			c-1.416,0.521-2.707,1.194-3.931,2c-0.116,0.076-0.107,0.177-0.106,0.288c0.001,2.513,0.003,5.026-0.004,7.54
			c-0.001,0.187,0.059,0.252,0.236,0.289c0.723,0.15,1.432,0.356,2.123,0.616c0.558,0.21,1.107,0.445,1.682,0.678
			C24.611,16.22,24.611,12.443,24.611,8.611z M39.443,19.847c0.065-0.007,0.103-0.002,0.134-0.015
			c1.187-0.519,2.416-0.907,3.687-1.155c0.216-0.042,0.23-0.151,0.23-0.33c-0.005-2.452-0.007-4.904,0.003-7.356
			c0.001-0.212-0.092-0.303-0.245-0.402c-1.097-0.71-2.252-1.306-3.462-1.802c-0.287-0.118-0.356-0.099-0.355,0.234
			c0.012,3.511,0.007,7.023,0.007,10.535C39.443,19.648,39.443,19.742,39.443,19.847z M60.046,7.17
			c-1.444-1.657-3.182-2.736-5.318-3.148c-0.126-0.024-0.208,0.013-0.301,0.082c-1.966,1.481-3.146,3.748-1.957,6.559
			c0.169,0.399,0.34,0.69,0.866,0.712c0.703,0.029,1.337,0.368,1.96,0.699C56.022,8.972,56.992,7.965,60.046,7.17z M8.813,12.027
			c0.742-0.397,1.465-0.667,2.253-0.712c0.178-0.01,0.218-0.125,0.279-0.244c1.392-2.733,0.536-5.239-1.751-6.962
			c-0.106-0.08-0.198-0.107-0.336-0.08C7.133,4.441,5.409,5.522,3.966,7.172C6.833,7.553,8.314,9.289,8.813,12.027z M12.235,11.342
			c0.868,0.158,1.634,0.482,2.331,0.958c0.147,0.1,0.228,0.014,0.324-0.05c0.567-0.377,1.092-0.804,1.533-1.325
			c1.296-1.532,1.501-3.23,0.769-5.072c-0.063-0.157-0.154-0.267-0.306-0.346c-1.507-0.787-3.084-1.362-4.779-1.56
			c-0.424-0.05-0.857-0.113-1.318-0.042C13.043,6.167,13.489,8.456,12.235,11.342z M53.267,3.875c-0.152,0-0.223-0.001-0.294,0
			c-2.049,0.04-3.941,0.646-5.743,1.582c-0.105,0.055-0.178,0.124-0.225,0.229c-0.494,1.117-0.651,2.269-0.3,3.452
			c0.41,1.381,1.375,2.325,2.527,3.113c0.151,0.104,0.246,0.023,0.359-0.048c0.597-0.379,1.232-0.672,1.929-0.8
			c0.254-0.046,0.243-0.111,0.151-0.321c-0.506-1.161-0.729-2.365-0.493-3.632C51.441,6.043,52.181,4.914,53.267,3.875z
			 M5.801,14.909c0.471-0.721,0.984-1.365,1.635-1.849c0.474-0.352,0.524-0.708,0.413-1.241C7.39,9.606,5.993,8.31,3.786,8.085
			C3.431,8.049,3.178,8.099,3.011,8.454C2.84,8.819,2.604,9.153,2.419,9.512c-0.598,1.161-1,2.388-1.238,3.704
			C3.172,12.573,4.587,13.434,5.801,14.909z M62.831,13.177c-0.346-1.802-0.98-3.435-1.964-4.931
			c-0.083-0.126-0.177-0.182-0.332-0.173c-1.487,0.087-2.716,0.642-3.542,1.935c-0.486,0.762-0.694,1.617-0.825,2.498
			c-0.019,0.126,0.026,0.205,0.12,0.283c0.764,0.629,1.431,1.346,1.978,2.196C59.441,13.526,60.816,12.602,62.831,13.177z
			 M19.742,11.322c-0.105-0.016-0.151,0.072-0.214,0.12c-0.806,0.613-1.523,1.326-2.273,2.001c-0.632,0.569-0.919,1.185-0.851,2.054
			c0.08,1.026,0.019,2.062,0.019,3.119c1.043-0.243,2.061-0.258,3.081-0.116c0.252,0.035,0.275-0.062,0.275-0.275
			c-0.007-2.207-0.004-4.413-0.007-6.62C19.771,11.512,19.806,11.412,19.742,11.322z M1.583,19.893
			c0.051-0.019,0.08-0.021,0.094-0.037c0.8-0.86,1.759-1.285,2.947-1.06c0.209,0.04,0.209-0.049,0.2-0.211
			c-0.039-0.682-0.036-1.4,0.254-1.998c0.357-0.738,0.036-1.161-0.43-1.611c-0.222-0.214-0.448-0.422-0.707-0.592
			c-0.838-0.552-1.712-0.622-2.634-0.224C1.085,14.254,1,14.382,0.983,14.624C0.862,16.412,1.025,18.165,1.583,19.893z
			 M44.286,11.316c0,2.373,0.003,4.666-0.005,6.958c-0.001,0.235,0.105,0.217,0.273,0.199c0.924-0.103,1.848-0.105,2.752,0.135
			c0.288,0.077,0.294-0.03,0.292-0.254c-0.008-1.134-0.025-2.269,0.007-3.403c0.013-0.444-0.124-0.755-0.431-1.066
			C46.286,12.983,45.368,12.118,44.286,11.316z M59.179,18.867c1.297-0.362,2.352,0.042,3.268,0.963
			c0.579-1.794,0.704-3.585,0.565-5.405c-0.011-0.149-0.083-0.215-0.205-0.268c-0.508-0.222-1.034-0.322-1.583-0.206
			c-1.104,0.234-1.808,0.99-2.416,1.868c-0.054,0.078-0.065,0.146-0.029,0.238C59.128,16.954,59.242,17.886,59.179,18.867z
			 M51.016,27.866c2.766,0.197,5.326-0.357,7.552-2.104c0.503-0.395,0.523-0.493,0.24-1.061c-0.054-0.109-0.124-0.214-0.201-0.309
			c-0.416-0.508-1.533-0.669-1.908-0.256C55.127,25.87,53.236,27.107,51.016,27.866z M6.43,23.008
			c-0.646-0.937-1.111-1.906-1.382-2.96c-0.047-0.184-0.154-0.234-0.293-0.28c-1.207-0.397-2.112,0.24-2.708,1.059
			c-0.088,0.121-0.034,0.198,0.008,0.3c0.23,0.556,0.504,1.09,0.81,1.607c0.416,0.704,0.883,1.371,1.471,1.984
			C4.68,23.695,5.36,23.135,6.43,23.008z M59.746,24.587c0.038-0.011,0.069-0.011,0.082-0.026c0.948-1.066,1.648-2.284,2.205-3.592
			c0.038-0.09,0.043-0.15-0.02-0.231c-0.588-0.76-1.485-1.385-2.714-0.946c-0.199,0.071-0.316,0.171-0.375,0.395
			c-0.246,0.932-0.661,1.792-1.189,2.598c-0.041,0.062-0.14,0.115-0.08,0.224C58.679,23.099,59.388,23.616,59.746,24.587z
			 M13.021,27.897c-0.006-0.04-0.004-0.061-0.009-0.063c-0.068-0.027-0.138-0.052-0.207-0.075c-2.074-0.694-3.852-1.851-5.322-3.464
			c-0.3-0.33-0.616-0.407-1.01-0.367c-0.734,0.074-1.142,0.487-1.333,1.313c-0.039,0.171-0.006,0.267,0.127,0.376
			C7.529,27.478,10.158,28.069,13.021,27.897z M42.297,8.951c2.301,1.353,3.671,2.404,5.256,4.025
			c0.517,0.529,0.517,0.529,1.027-0.012c0.007-0.008,0.005-0.024,0.009-0.047c-2.297-1.619-3.459-3.729-2.773-6.648
			C44.546,7.073,43.407,7.963,42.297,8.951z M15.426,12.995c0.098,0.082,0.201,0.138,0.262,0.223
			c0.205,0.288,0.351,0.224,0.568-0.015c0.973-1.069,2.057-2.017,3.228-2.866c0.703-0.51,1.443-0.962,2.209-1.408
			c-1.064-0.943-2.15-1.799-3.36-2.572C18.982,9.295,17.76,11.371,15.426,12.995z"/>
		<path fill="#FFFFFF" d="M64,16.721c-0.138-0.066-0.073-0.191-0.074-0.289c-0.006-0.449-0.007-0.898-0.001-1.347
			c0.001-0.098-0.065-0.223,0.074-0.288C64,15.439,64,16.08,64,16.721z"/>
		<path fill="#FFFFFF" d="M32.233,54.928c-1.285-0.001-2.196-0.105-3.102-0.42c-1.373-0.479-2.824-0.561-4.268-0.548
			c-1.072,0.01-1.999-0.309-2.838-0.965c-1.237-0.969-2.328-2.055-2.931-3.541c-1.055-2.602,0.316-5.231,3.058-5.82
			c1.409-0.303,2.649,0.126,3.74,1.036c1.234,1.028,2.628,1.727,4.213,2.018c2.895,0.531,5.499-0.122,7.782-1.984
			c1.344-1.097,2.824-1.492,4.476-0.877c2.309,0.86,3.332,3.31,2.36,5.642c-0.75,1.798-2.109,3.065-3.743,4.052
			c-0.568,0.343-1.218,0.435-1.885,0.435c-1.494,0.001-2.994,0.062-4.415,0.559C33.763,54.835,32.838,54.925,32.233,54.928z
			 M33.98,49.193c-0.288,0.88-0.853,1.239-1.955,1.262c-0.459,0.01-0.911-0.038-1.336-0.225c-0.451-0.199-0.735-0.541-0.831-1.063
			c-0.532,0.585-1.173,0.529-1.811,0.407c-0.63-0.12-1.287-0.226-1.53-0.991c-0.276,0.478-0.479,0.615-1.008,0.706
			c-0.855,0.146-1.692-0.029-2.535-0.133c-0.457-0.056-0.772-0.285-1.007-0.663c-0.163-0.263-0.274-0.547-0.367-0.841
			c-0.268-0.847-0.343-1.728-0.458-2.656c-0.827,0.561-1.332,1.284-1.453,2.236c-0.196,1.542,0.551,2.724,1.517,3.812
			c0.082,0.092,0.137,0.084,0.246,0.029c1.062-0.534,2.638-0.137,3.299,0.837c0.272-0.385,0.673-0.473,1.103-0.475
			c0.74-0.003,1.475,0.06,2.206,0.188c0.685,0.12,1.245,0.372,1.38,1.187c0.397-0.561,0.916-0.641,1.481-0.545
			c0.614,0.105,1.228,0.133,1.838,0.024c0.627-0.112,1.196-0.078,1.634,0.507c0.122-0.657,0.511-0.975,1.093-1.112
			c0.748-0.176,1.509-0.23,2.272-0.251c0.508-0.014,1.006,0.025,1.342,0.501c0.429-0.803,2.082-1.417,2.947-1.004
			c0.502,0.24,0.68,0.029,0.923-0.285c0.234-0.302,0.457-0.61,0.641-0.945c0.47-0.856,0.71-1.759,0.484-2.733
			c-0.193-0.834-0.664-1.478-1.42-1.977c-0.026,0.265-0.04,0.473-0.066,0.679c-0.114,0.903-0.23,1.806-0.642,2.636
			c-0.186,0.375-0.431,0.717-0.863,0.8c-0.799,0.152-1.606,0.284-2.423,0.23c-0.547-0.036-1.094-0.122-1.345-0.734
			C36.744,49.676,34.881,50.01,33.98,49.193z M38.168,47.081c-0.033,0.344-0.048,0.649-0.018,0.959
			c0.024,0.243,0.125,0.335,0.361,0.364c0.72,0.091,1.419-0.052,2.127-0.136c0.272-0.032,0.426-0.155,0.525-0.386
			c0.058-0.135,0.125-0.267,0.169-0.407c0.28-0.886,0.368-1.803,0.449-2.722c0.02-0.223-0.132-0.199-0.254-0.224
			c-1.255-0.256-2.292,0.186-3.212,1.005c-0.07,0.062-0.09,0.127-0.093,0.222C38.212,46.21,38.186,46.664,38.168,47.081z
			 M25.608,47.399c0-0.552-0.001-1.105,0.001-1.657c0-0.077-0.01-0.136-0.074-0.193c-0.82-0.733-1.746-1.182-2.877-1.08
			c-0.643,0.058-0.658,0.084-0.571,0.739c0.016,0.122,0.021,0.245,0.037,0.367c0.103,0.766,0.196,1.535,0.515,2.252
			c0.111,0.249,0.25,0.424,0.565,0.443c0.477,0.029,0.95,0.149,1.426,0.159C25.846,48.452,25.679,48.385,25.608,47.399z
			 M31.783,47.798c-0.31-0.024-0.58-0.037-0.848-0.068c-0.159-0.019-0.227,0.025-0.221,0.192c0.012,0.319,0.012,0.639,0.018,0.958
			c0.007,0.337,0.206,0.515,0.51,0.586c0.449,0.105,0.903,0.114,1.352,0c0.232-0.059,0.444-0.169,0.477-0.448
			c0.042-0.354,0.07-0.708,0.05-1.066c-0.011-0.201-0.089-0.239-0.274-0.22C32.481,47.769,32.112,47.779,31.783,47.798z
			 M27.221,46.656c0.046,0.548,0.051,1.051,0.151,1.548c0.022,0.111,0.032,0.226,0.152,0.275c0.472,0.192,0.978,0.391,1.462,0.195
			c0.362-0.147,0.279-0.614,0.358-0.95c0.008-0.036,0.011-0.073,0.018-0.109c0.019-0.099-0.008-0.159-0.118-0.187
			C28.556,47.249,27.902,46.977,27.221,46.656z M36.622,46.66c-0.363,0.155-0.671,0.298-0.989,0.418
			c-0.332,0.126-0.669,0.238-1.009,0.338c-0.119,0.035-0.148,0.081-0.153,0.199c-0.039,0.908,0.277,1.204,1.159,1.066
			c0.168-0.026,0.331-0.086,0.498-0.122c0.227-0.049,0.322-0.203,0.344-0.416C36.522,47.667,36.568,47.192,36.622,46.66z
			 M31.926,54.015c0.48,0,0.958-0.012,1.436-0.067c0.162-0.019,0.239-0.082,0.276-0.234c0.098-0.408-0.081-0.629-0.504-0.557
			c-0.809,0.137-1.614,0.151-2.421-0.002c-0.06-0.011-0.123-0.015-0.184-0.013c-0.239,0.008-0.362,0.126-0.349,0.372
			c0.011,0.212,0,0.409,0.312,0.438C30.969,53.996,31.446,54.012,31.926,54.015z M37.427,52.351c0,0.009,0,0.019,0,0.028
			c-0.147,0-0.295-0.01-0.441,0.002c-0.477,0.039-0.953,0.087-1.414,0.225c-0.281,0.085-0.296,0.287-0.246,0.527
			c0.029,0.142,0.052,0.252,0.251,0.211c0.867-0.179,1.748-0.245,2.63-0.284c0.143-0.006,0.184-0.07,0.2-0.201
			c0.042-0.349-0.051-0.483-0.393-0.507C37.819,52.34,37.623,52.351,37.427,52.351z M26.466,52.363c-0.284,0-0.518,0-0.751,0
			c-0.295,0.001-0.275,0.221-0.29,0.417c-0.017,0.224,0.088,0.28,0.306,0.289c0.824,0.034,1.648,0.091,2.457,0.269
			c0.234,0.051,0.295-0.042,0.325-0.254c0.038-0.266-0.039-0.422-0.307-0.493C27.619,52.433,27.019,52.384,26.466,52.363z
			 M22.056,51.789c0.471,0.438,0.934,0.859,1.536,1.075c0.089,0.032,0.187,0.099,0.274,0.026c0.097-0.083-0.012-0.762-0.144-0.821
			C23.195,51.835,22.645,51.707,22.056,51.789z M39.953,52.907c0.536-0.064,1.203-0.468,1.85-1.115
			c-0.125-0.079-0.26-0.09-0.39-0.065c-0.338,0.064-0.673,0.144-1.01,0.212c-0.332,0.067-0.484,0.26-0.452,0.6
			C39.962,52.66,39.953,52.783,39.953,52.907z"/>
		<path fill="#FFFFFF" d="M47.405,24.811c0.066,4.494-3.053,7.267-6.792,8.027c-1.061,0.216-2.126,0.269-3.188-0.01
			c-0.159-0.042-0.271-0.102-0.324-0.292c-0.445-1.609-0.759-3.235-0.698-4.915c0.133-3.619,2.161-6.077,5.693-6.896
			c1.414-0.328,2.844-0.449,4.294-0.303c0.206,0.021,0.3,0.09,0.359,0.283C47.155,22.045,47.396,23.41,47.405,24.811z
			 M45.742,26.705c0.004-2.204-1.757-3.978-3.95-3.979c-2.184-0.001-3.976,1.788-3.975,3.968c0.001,2.167,1.775,3.948,3.946,3.961
			C43.96,30.669,45.738,28.903,45.742,26.705z M41.765,21.78c2.295,0.138,3.852,1.277,4.712,3.49c0.043-1.06-0.057-2.03-0.259-2.991
			c-0.21-0.996-0.214-0.991-1.227-0.989C43.891,21.292,42.816,21.447,41.765,21.78z M37.36,28.763
			c-0.102,0.242,0.007,0.369,0.018,0.505c0.068,0.836,0.255,1.652,0.445,2.466c0.048,0.204,0.136,0.296,0.362,0.326
			c0.619,0.083,1.23,0.045,1.841-0.04c0.28-0.039,0.558-0.1,0.832-0.168c0.258-0.064,0.511-0.15,0.767-0.226
			c-0.92-0.103-1.752-0.367-2.51-0.861C38.366,30.278,37.808,29.61,37.36,28.763z"/>
		<path fill="#FFFFFF" d="M27.672,28.103c0.01,1.515-0.302,2.98-0.689,4.435c-0.055,0.206-0.197,0.258-0.367,0.3
			c-1.255,0.314-2.501,0.2-3.726-0.135c-2.303-0.629-4.16-1.872-5.329-4.014c-0.692-1.267-0.902-2.638-0.865-4.064
			c0.035-1.338,0.242-2.644,0.642-3.921c0.045-0.143,0.08-0.259,0.28-0.276c2.225-0.19,4.39,0.026,6.401,1.057
			c2.41,1.235,3.496,3.318,3.651,5.953C27.683,27.659,27.672,27.882,27.672,28.103z M18.328,26.693
			c0.003,2.195,1.783,3.969,3.975,3.963c2.189-0.006,3.956-1.788,3.951-3.985c-0.005-2.17-1.783-3.942-3.955-3.945
			C20.107,22.724,18.325,24.504,18.328,26.693z M17.608,25.253c0.87-2.194,2.405-3.31,4.66-3.456
			c-0.037-0.042-0.049-0.069-0.067-0.074c-1.279-0.37-2.587-0.475-3.911-0.426c-0.129,0.005-0.197,0.042-0.232,0.178
			C17.741,22.681,17.578,23.905,17.608,25.253z M26.696,28.871c-0.94,1.661-2.352,2.572-4.255,2.728
			c0.905,0.323,1.814,0.51,2.757,0.507c0.979-0.003,0.986-0.001,1.192-0.95C26.553,30.408,26.714,29.658,26.696,28.871z"/>
		<path fill="#FFFFFF" d="M43.673,26.71c-0.01,1.088-0.902,1.965-1.99,1.954c-1.09-0.011-1.958-0.898-1.949-1.992
			c0.009-1.089,0.894-1.958,1.987-1.951C42.806,24.729,43.682,25.621,43.673,26.71z"/>
		<path fill="#FFFFFF" d="M22.384,24.721c1.086,0.003,1.969,0.89,1.965,1.977c-0.004,1.087-0.893,1.97-1.979,1.965
			c-1.091-0.005-1.963-0.886-1.959-1.979C20.415,25.591,21.292,24.719,22.384,24.721z"/>
	</g>
</g>
</svg>
