<?xml version="1.0" encoding="utf-8"?>
<!-- Generator: Adobe Illustrator 22.0.0, SVG Export Plug-In . SVG Version: 6.00 Build 0)  -->
<svg version="1.1" id="Camada_1" xmlns="http://www.w3.org/2000/svg" xmlns:xlink="http://www.w3.org/1999/xlink" x="0px" y="0px"
	 width="64px" height="64px" viewBox="0 0 64 64" enable-background="new 0 0 64 64" xml:space="preserve">
<g>
	<g>
		<path fill="#BA2026" d="M20.663,35.854c-1.091-0.846-2.181-1.692-3.272-2.538c-0.655-0.507-1.308-1.016-1.967-1.519
			c-0.119-0.09-0.177-0.192-0.203-0.339c-0.351-2.013-0.709-4.025-1.064-6.037c-0.388-2.199-0.774-4.398-1.163-6.597
			c-0.372-2.106-0.747-4.211-1.119-6.316c-0.286-1.622-0.569-3.244-0.854-4.866c-0.095-0.543-0.194-1.086-0.256-1.651
			c4.161,5.28,8.321,10.56,12.51,15.877c2.924-7.317,5.83-14.588,8.74-21.869c0.094,0.083,0.11,0.181,0.145,0.268
			c2.586,6.468,5.17,12.937,7.761,19.404c0.08,0.199,0.078,0.365-0.003,0.561c-0.726,1.771-1.444,3.545-2.164,5.318
			c-0.055,0.073-0.106,0.148-0.085,0.258c0.08-0.038,0.118-0.089,0.138-0.154c1.486-1.883,2.973-3.766,4.458-5.651
			c3.616-4.589,7.232-9.178,10.848-13.767c0.063-0.079,0.115-0.17,0.232-0.252c-1.617,9.156-3.229,18.279-4.85,27.46
			c4.904-2.424,9.758-4.822,14.635-7.232c0.014,0.14-0.069,0.213-0.119,0.293c-0.832,1.331-1.667,2.661-2.501,3.992
			c-3.042,4.854-6.084,9.708-9.126,14.562c-0.49,0.782-0.984,1.562-1.466,2.349c-0.093,0.152-0.196,0.205-0.372,0.203
			c-0.932-0.009-1.864-0.004-2.797-0.004c-0.074,0-0.148,0-0.277,0c1.961-3.13,3.895-6.217,5.829-9.303
			c-0.01-0.013-0.02-0.026-0.03-0.039c-4.683,2.16-9.367,4.319-14.084,6.494c-2.023-4.889-4.041-9.765-6.07-14.666
			c-0.091,0.096-0.112,0.187-0.147,0.269c-1.78,4.227-3.559,8.455-5.338,12.684c-0.214,0.509-0.427,1.018-0.641,1.526
			c-0.085,0.203-0.087,0.203-0.288,0.11c-2.129-0.981-4.258-1.962-6.387-2.944c-2.434-1.122-4.867-2.245-7.302-3.366
			c-0.075-0.035-0.144-0.092-0.27-0.084c1.945,3.103,3.878,6.188,5.839,9.318c-0.114,0-0.179,0-0.244,0
			c-0.932,0-1.865-0.005-2.797,0.004c-0.185,0.002-0.293-0.051-0.393-0.211C10.606,41.74,7.059,36.082,3.514,30.424
			c-0.82-1.308-1.64-2.617-2.459-3.926c-0.032-0.051-0.06-0.104-0.09-0.157c0.024-0.024,0.048-0.049,0.072-0.073
			c0.627,0.307,1.254,0.611,1.88,0.92c3.384,1.671,6.767,3.342,10.15,5.014c2.48,1.225,4.958,2.452,7.438,3.678
			c0.031,0.015,0.063,0.026,0.095,0.039c0.096,0.087,0.211,0.129,0.338,0.149C20.849,35.991,20.78,35.892,20.663,35.854z"/>
		<path fill="#BA2026" d="M32.02,34.038c0.086,0.079,0.103,0.167,0.136,0.245c2.581,6.071,5.16,12.142,7.744,18.211
			c0.064,0.151,0.065,0.256-0.034,0.396c-2.577,3.652-5.149,7.308-7.722,10.963C32.11,63.9,32.071,63.944,32.026,64
			c-0.504-0.716-1.001-1.422-1.497-2.127c-2.101-2.985-4.202-5.97-6.305-8.953c-0.094-0.134-0.138-0.241-0.063-0.416
			c2.593-6.084,5.179-12.172,7.766-18.259C31.953,34.181,31.983,34.12,32.02,34.038z"/>
		<path fill="#BA2026" d="M24.112,49.022c-0.082,0.199-0.154,0.373-0.227,0.546c-0.404,0.962-0.812,1.921-1.207,2.886
			c-0.07,0.171-0.158,0.227-0.341,0.226c-1.337-0.008-2.675-0.005-4.012-0.002c-0.127,0-0.228-0.023-0.323-0.119
			c-1.14-1.142-2.284-2.279-3.427-3.419c-0.028-0.028-0.051-0.062-0.098-0.119C17.699,49.022,20.886,49.022,24.112,49.022z"/>
		<path fill="#BA2026" d="M49.445,49.038c0.006,0.062-0.047,0.087-0.081,0.121c-1.124,1.123-2.25,2.243-3.371,3.368
			c-0.113,0.113-0.23,0.154-0.389,0.153c-1.303-0.006-2.607-0.007-3.91,0.001c-0.172,0.001-0.256-0.044-0.323-0.211
			c-0.446-1.103-0.906-2.201-1.361-3.3c-0.016-0.039-0.029-0.079-0.044-0.119C40.161,48.995,49.171,48.986,49.445,49.038z"/>
		<path fill="#BA2228" d="M20.97,53.996c0.057-0.043,0.102-0.034,0.144-0.034c0.725-0.001,1.449,0.002,2.174-0.003
			c0.132-0.001,0.223,0.03,0.302,0.147c0.821,1.204,1.647,2.405,2.471,3.606c0.024,0.035,0.056,0.067,0.034,0.145
			c-0.262,0-0.533,0.001-0.805,0c-0.224-0.002-0.466,0.045-0.666-0.026c-0.202-0.071-0.324-0.3-0.478-0.462
			c-1-1.049-1.997-2.1-2.994-3.152C21.088,54.15,21.007,54.094,20.97,53.996z"/>
		<path fill="#BA2328" d="M43.009,53.992c-0.005,0.067-0.061,0.1-0.1,0.141c-1.135,1.195-2.272,2.389-3.406,3.585
			c-0.081,0.085-0.157,0.144-0.286,0.142c-0.414-0.008-0.828-0.003-1.238-0.003c-0.054-0.077,0.009-0.12,0.04-0.164
			c0.826-1.191,1.655-2.38,2.481-3.572c0.075-0.108,0.152-0.165,0.293-0.164c0.699,0.008,1.398,0.003,2.097,0.003
			C42.931,53.961,42.977,53.949,43.009,53.992z"/>
		<path fill="#E3BFC0" d="M20.663,35.854c0.117,0.037,0.186,0.136,0.274,0.215c-0.127-0.02-0.242-0.063-0.338-0.149
			C20.62,35.898,20.642,35.876,20.663,35.854z"/>
		<path fill="#E5B1AF" d="M37.805,25.655c-0.02,0.065-0.057,0.115-0.138,0.154c-0.021-0.11,0.03-0.184,0.085-0.258
			C37.764,25.589,37.756,25.636,37.805,25.655z"/>
		<path fill="#C56970" d="M1.036,26.268c-0.024,0.024-0.048,0.049-0.072,0.073c-0.054-0.03-0.08-0.077-0.093-0.152
			C0.941,26.193,0.996,26.213,1.036,26.268z"/>
	</g>
</g>
</svg>
