<svg width="64" height="64" viewBox="0 0 64 64" fill="none" xmlns="http://www.w3.org/2000/svg">
<g clip-path="url(#clip0_509_691)">
<path d="M23.0459 22.2018L20.7707 12L13.4312 20.2202L23.0459 22.2018Z" fill="#ED1C24"/>
<path d="M24.0734 20.8073L22.2386 12H30.0184L24.0734 20.8073Z" fill="#ED1C24"/>
<path d="M24.2936 22.2018C26.8135 18.8012 31.8679 12 31.9266 12L39.633 22.422L31.9266 24.0367L24.2936 22.2018Z" fill="#ED1C24"/>
<path d="M40 20.8073L33.4679 12H42.2019L40 20.8073Z" fill="#ED1C24"/>
<path d="M41.0275 22.2018L43.156 12L50.6422 20.2202L41.0275 22.2018Z" fill="#ED1C24"/>
<path d="M31.9266 24.844L13.4312 21.1743L31.9266 44.6605L50.3486 21.1743L31.9266 24.844Z" fill="#ED1C24"/>
<path d="M43.3761 26.0184L43.2294 28.1468C46.2141 27.5841 53.211 26.2972 56.7339 25.6514C59.9366 25.0642 60.3303 24.4771 60.3303 24.4771L64 20.4404C59.474 21.2477 49.5853 23.1266 46.8257 23.5963C43.7431 24.121 43.4251 25.3578 43.3761 26.0184Z" fill="black"/>
<path d="M42.3486 38.1284L42.1284 40.4037C43.2294 40.208 45.9156 39.8459 46.9725 39.6697C48.0294 39.4936 49.0275 38.789 49.8349 37.8349C50.6422 36.8807 52.3303 34.6789 52.3303 34.6789C50.3242 34.9969 45.7982 35.9266 44.3303 36.2202C42.8624 36.5138 42.4465 37.5413 42.3486 38.1284Z" fill="black"/>
<path d="M41.2477 30.3486L41.6147 24.4037C40.7584 24.5749 38.7083 24.9761 37.3578 25.211C36.0073 25.4459 35.6697 26.7768 35.6697 27.4128L35.3028 31.6697L32 32.3303V36L37.2844 34.8991C37.3161 35.5493 37.2844 37.6881 37.2844 37.6881C37.2844 37.6881 36.5552 37.7408 36.1835 37.7615C35.1266 37.8202 34.8624 38.5688 34.8624 38.9358L33.9817 50.7523L40.367 42.8257L41.0275 34.3853C44.0367 33.8226 50.6862 32.5651 52.3303 32.3303C53.9743 32.0954 54.7278 31.4495 54.8991 31.156L57.9083 27.4128L41.2477 30.3486Z" fill="black"/>
<path d="M20.6239 26.0184L20.7706 28.1468C17.7859 27.5841 10.789 26.2972 7.26606 25.6514C4.06339 25.0642 3.66973 24.4771 3.66973 24.4771L1.90735e-06 20.4404C4.526 21.2477 14.4147 23.1266 17.1743 23.5963C20.2569 24.121 20.5749 25.3578 20.6239 26.0184Z" fill="black"/>
<path d="M21.6514 38.1284L21.8716 40.4037C20.7706 40.208 18.0844 39.8459 17.0275 39.6697C15.9706 39.4936 14.9725 38.789 14.1651 37.8349C13.3578 36.8807 11.6697 34.6789 11.6697 34.6789C13.6758 34.9969 18.2018 35.9266 19.6697 36.2202C21.1376 36.5138 21.5535 37.5413 21.6514 38.1284Z" fill="black"/>
<path d="M22.7523 30.3486L22.3853 24.4037C23.2416 24.5749 25.2917 24.9761 26.6422 25.211C27.9927 25.4459 28.3303 26.7768 28.3303 27.4128L28.6972 31.6697L32 32.3303V36L26.7156 34.8991C26.6839 35.5493 26.7156 37.6881 26.7156 37.6881C26.7156 37.6881 27.4448 37.7408 27.8165 37.7615C28.8734 37.8202 29.1376 38.5688 29.1376 38.9358L30.0183 50.7523L23.633 42.8257L22.9725 34.3853C19.9633 33.8226 13.3138 32.5651 11.6697 32.3303C10.0257 32.0954 9.27217 31.4495 9.10092 31.156L6.09174 27.4128L22.7523 30.3486Z" fill="black"/>
</g>
<defs>
<clipPath id="clip0_509_691">
<rect width="64" height="64" fill="white"/>
</clipPath>
</defs>
</svg>
