<?xml version="1.0" encoding="utf-8"?>
<!-- Generator: Adobe Illustrator 23.0.2, SVG Export Plug-In . SVG Version: 6.00 Build 0)  -->
<svg version="1.1" id="Layer_1" xmlns="http://www.w3.org/2000/svg" xmlns:xlink="http://www.w3.org/1999/xlink" x="0px" y="0px"
	 width="64px" height="64px" viewBox="0 0 64 64" enable-background="new 0 0 64 64" xml:space="preserve">
<g>
	<g>
		<path fill="#241F59" d="M57.755,64c-1.648-1.122-3.205-2.182-4.763-3.242c-3.04-2.067-6.073-4.145-9.128-6.191
			c-0.496-0.332-0.699-0.684-0.695-1.294c0.028-4.305-0.001-8.61,0.031-12.915c0.005-0.688-0.165-0.888-0.873-0.884
			c-5.522,0.031-11.044,0.017-16.567,0.017c-0.282,0-0.565,0-1.13,0c1.214-0.838,2.198-1.524,3.188-2.201
			c4.893-3.349,9.783-6.703,14.69-10.033c0.498-0.338,0.693-0.69,0.689-1.297c-0.026-4.572-0.011-9.144-0.019-13.716
			c-0.001-0.461,0.041-0.833,0.459-1.161c4.596-3.611,9.175-7.243,13.76-10.868C57.487,0.145,57.591,0.098,57.755,0
			C57.755,21.332,57.755,42.594,57.755,64z"/>
		<path fill="#A7A9AC" d="M6.245,63.971c0-21.24,0-42.459,0-63.825c1.314,0.99,2.54,1.903,3.755,2.831
			c3.395,2.591,6.776,5.201,10.189,7.769c0.49,0.369,0.648,0.748,0.645,1.333c-0.021,3.86,0.01,7.72-0.029,11.58
			c-0.008,0.763,0.233,0.929,0.954,0.925c5.463-0.029,10.927-0.016,16.39-0.016c0.291,0,0.582,0,1.02,0
			c-0.351,0.534-0.814,0.746-1.203,1.013c-5.407,3.708-10.817,7.412-16.249,11.083c-0.664,0.448-0.921,0.916-0.914,1.725
			c0.042,4.513,0.013,9.026,0.03,13.54c0.002,0.52-0.137,0.882-0.557,1.211C15.86,56.593,11.46,60.064,7.05,63.524
			C6.811,63.712,6.609,64.004,6.245,63.971z"/>
	</g>
</g>
</svg>
