<?xml version="1.0" encoding="utf-8"?>
<!-- Generator: Adobe Illustrator 22.0.0, SVG Export Plug-In . SVG Version: 6.00 Build 0)  -->
<svg version="1.1" id="Camada_1" xmlns="http://www.w3.org/2000/svg" xmlns:xlink="http://www.w3.org/1999/xlink" x="0px" y="0px"
	 width="64px" height="64px" viewBox="0 0 64 64" style="enable-background:new 0 0 64 64;" xml:space="preserve">
<g>
	<g>
		<path style="fill:#FFFFFF;" d="M63.963,33.807c-0.02,0.863-0.122,1.718-0.235,2.572c-0.167,1.265-0.416,2.515-0.741,3.748
			c-1.177,4.46-3.22,8.482-6.13,12.06c-3.12,3.836-6.928,6.793-11.41,8.879c-2.125,0.989-4.337,1.721-6.627,2.217
			c-1.202,0.26-2.414,0.449-3.637,0.568c-0.459,0.044-0.918,0.076-1.378,0.108c-0.138-0.023-0.276,0.007-0.414-0.002
			c-0.194,0.001-0.387,0.001-0.581,0.003c-0.058,0.001-0.122-0.018-0.167,0.04c-0.388,0-0.775,0-1.163,0
			c-0.038-0.051-0.094-0.04-0.146-0.04c-0.192-0.001-0.384,0-0.576,0c-0.173,0.009-0.347-0.024-0.52-0.001
			c-2.665-0.15-5.272-0.618-7.818-1.42c-3.851-1.213-7.345-3.093-10.483-5.632c-4.024-3.256-7.09-7.25-9.189-11.982
			c-0.959-2.161-1.658-4.404-2.11-6.724c-0.317-1.622-0.509-3.257-0.569-4.909c0.022-0.333-0.01-0.664-0.022-0.996
			C0.038,32.09,0.047,31.882,0,31.679c0-0.08,0-0.16,0-0.241c0.054-0.294,0.083-0.591,0.067-0.89c0.001-0.08,0.013-0.161,0-0.238
			C0.058,30.26,0.021,30.289,0,30.316c0-0.027,0-0.053,0-0.08c0.054,0.064,0.075,0.03,0.08-0.03c0.012-0.146,0.022-0.293,0.033-0.44
			C0.521,24.066,2.329,18.85,5.516,14.11c1.148-1.707,2.463-3.278,3.912-4.737c1.927-1.94,4.079-3.589,6.434-4.975
			c1.864-1.097,3.822-1.988,5.869-2.684c1.531-0.521,3.093-0.923,4.687-1.201c1.073-0.187,2.151-0.328,3.238-0.403
			c0.407-0.028,0.813-0.057,1.22-0.07c0.013,0.003,0.026,0.01,0.038,0.01c0.75-0.02,1.499-0.019,2.249,0
			c0.013,0,0.026-0.006,0.038-0.01c1.323,0.051,2.638,0.179,3.946,0.389c3.565,0.571,6.934,1.722,10.107,3.441
			c2.618,1.418,4.99,3.172,7.12,5.254c3.782,3.699,6.484,8.067,8.117,13.097c0.535,1.647,0.924,3.33,1.176,5.043
			c0.153,1.038,0.274,2.079,0.295,3.13C63.95,30.65,63.944,30.905,64,31.158c0,0.668,0,1.337,0,2.005
			c-0.074,0.068-0.032,0.156-0.042,0.235C63.965,33.534,63.94,33.671,63.963,33.807z M32.023,63.031
			c17.316-0.026,30.999-14.048,31.017-30.94C63.059,14.693,48.969,0.992,32.034,1.003C14.912,1.014,1.196,14.782,1.02,31.618
			C0.834,49.308,15.089,63.034,32.023,63.031z"/>
		<path style="fill:#FFFFFF;" d="M0,31.679c0.047,0.203,0.038,0.411,0.045,0.616c0.012,0.332,0.044,0.664,0.022,0.996
			C0.044,33.291,0.025,33.266,0,33.283C0,32.749,0,32.214,0,31.679z"/>
		<path style="fill:#FFFFFF;" d="M33.203,0.04c-0.013,0.003-0.026,0.01-0.038,0.01c-0.75-0.02-1.499-0.02-2.249,0
			c-0.013,0-0.026-0.006-0.038-0.01c0-0.013,0-0.026,0-0.04c0.775,0,1.551,0,2.326,0C33.203,0.013,33.203,0.027,33.203,0.04z"/>
		<path style="fill:#FFFFFF;" d="M0.067,30.548c0.016,0.3-0.013,0.596-0.067,0.89c0-0.294,0-0.588,0-0.882
			C0.025,30.574,0.044,30.548,0.067,30.548z"/>
		<path style="fill:#FFFFFF;" d="M64,31.158c-0.056-0.253-0.05-0.508-0.037-0.764c0.012,0.001,0.025,0.001,0.037,0.002
			C64,30.65,64,30.904,64,31.158z"/>
		<path style="fill:#FFFFFF;" d="M32.642,64c0.045-0.058,0.109-0.04,0.167-0.04c0.194-0.003,0.387-0.002,0.581-0.003
			c-0.002,0.006-0.007,0.013-0.005,0.018c0.005,0.01,0.012,0.018,0.019,0.026C33.15,64,32.896,64,32.642,64z"/>
		<path style="fill:#FFFFFF;" d="M30.757,63.96c0.192,0,0.384-0.001,0.576,0c0.052,0,0.108-0.011,0.146,0.04
			c-0.241,0-0.481,0-0.722,0C30.757,63.987,30.757,63.973,30.757,63.96z"/>
		<path style="fill:#FFFFFF;" d="M30.757,63.96c0,0.013,0,0.027,0,0.04c-0.174,0-0.348,0-0.521,0
			c0.003-0.009,0.007-0.018,0.009-0.028c0.001-0.004-0.005-0.009-0.007-0.014C30.41,63.935,30.584,63.969,30.757,63.96z"/>
		<path style="fill:#FFFFFF;" d="M0.067,30.548c-0.023,0-0.042,0.025-0.067,0.008c0-0.08,0-0.16,0-0.241
			c0.021-0.027,0.058-0.056,0.067-0.006C0.079,30.387,0.068,30.468,0.067,30.548z"/>
		<path style="fill:#FFFFFF;" d="M63.963,33.807c-0.023-0.136,0.003-0.272-0.005-0.408c0.016-0.01,0.03-0.008,0.042,0.005
			c0,0.134,0,0.267,0,0.401C63.988,33.805,63.975,33.806,63.963,33.807z"/>
		<path style="fill:#FFFFFF;" d="M33.404,64c-0.007-0.009-0.014-0.017-0.019-0.026c-0.002-0.004,0.003-0.012,0.005-0.018
			c0.138,0.009,0.276-0.021,0.414,0.002c-0.011,0.014-0.011,0.028,0.001,0.041C33.671,64,33.537,64,33.404,64z"/>
		<path style="fill:#FFFFFF;" d="M64,33.404c-0.013-0.013-0.027-0.015-0.042-0.005c0.011-0.079-0.032-0.168,0.042-0.235
			C64,33.243,64,33.323,64,33.404z"/>
		<path style="fill:#FFFFFF;" d="M57.112,32.05c-0.004,13.698-11.102,25.055-25.11,25.045C18.172,57.085,6.916,45.876,6.95,31.93
			C6.982,18.223,18.115,6.918,32.07,6.935C45.897,6.951,57.125,18.173,57.112,32.05z M56.136,32.039
			C56.116,18.598,45.267,7.916,32.044,7.917C18.538,7.918,7.949,18.888,7.93,31.952C7.91,45.369,18.8,56.124,32.038,56.116
			C45.308,56.107,56.109,45.362,56.136,32.039z"/>
		<path style="fill:#FFFFFF;" d="M14.556,55.824c-0.211-0.005-0.376-0.051-0.532-0.135c-0.219-0.118-0.413-0.271-0.601-0.431
			c-0.376-0.32-0.749-0.644-1.123-0.967c-0.167-0.145-0.317-0.305-0.436-0.494c-0.19-0.301-0.209-0.611-0.052-0.932
			c0.065-0.133,0.141-0.258,0.236-0.37c0.246-0.29,0.494-0.579,0.743-0.866c0.105-0.121,0.227-0.226,0.361-0.315
			c0.277-0.184,0.569-0.212,0.876-0.084c0.199,0.083,0.377,0.201,0.54,0.34c0.458,0.389,0.912,0.782,1.367,1.175
			c0.127,0.11,0.239,0.234,0.337,0.369c0.226,0.313,0.269,0.644,0.096,0.998c-0.08,0.163-0.181,0.311-0.299,0.448
			c-0.212,0.249-0.423,0.499-0.64,0.744c-0.16,0.18-0.335,0.344-0.56,0.445C14.759,55.798,14.645,55.829,14.556,55.824z
			 M14.373,55.021c0.171,0.006,0.261-0.032,0.396-0.156c0.173-0.159,0.311-0.348,0.466-0.522c0.106-0.12,0.213-0.24,0.306-0.37
			c0.184-0.259,0.165-0.451-0.052-0.679c-0.018-0.019-0.037-0.039-0.057-0.056c-0.435-0.374-0.867-0.752-1.308-1.118
			c-0.283-0.235-0.506-0.226-0.755,0.039c-0.246,0.262-0.482,0.536-0.704,0.819c-0.226,0.287-0.202,0.483,0.054,0.739
			c0.024,0.024,0.048,0.046,0.074,0.068c0.192,0.166,0.383,0.333,0.575,0.497c0.228,0.195,0.456,0.39,0.687,0.582
			C14.16,54.949,14.275,55.016,14.373,55.021z"/>
		<path style="fill:#FFFFFF;" d="M60.214,27.253c0.193-0.011,0.354-0.002,0.512,0.021c0.393,0.059,0.651,0.287,0.783,0.658
			c0.07,0.196,0.101,0.401,0.118,0.607c0.045,0.552,0.087,1.105,0.124,1.657c0.013,0.193,0.008,0.386-0.027,0.578
			c-0.074,0.41-0.311,0.666-0.706,0.787c-0.213,0.065-0.433,0.077-0.652,0.092c-0.306,0.021-0.612,0.046-0.919,0.064
			c-0.126,0.008-0.252-0.003-0.378-0.027c-0.368-0.071-0.608-0.282-0.733-0.634c-0.095-0.267-0.121-0.547-0.144-0.825
			c-0.041-0.499-0.069-0.999-0.107-1.498c-0.014-0.181-0.002-0.361,0.026-0.539c0.06-0.384,0.281-0.638,0.648-0.766
			c0.21-0.073,0.43-0.095,0.648-0.117C59.687,27.285,59.967,27.27,60.214,27.253z M59.745,30.928
			c0.239-0.019,0.479-0.033,0.718-0.057c0.469-0.048,0.605-0.207,0.576-0.679c-0.029-0.466-0.063-0.932-0.101-1.397
			c-0.012-0.146-0.021-0.292-0.06-0.435c-0.053-0.191-0.178-0.291-0.366-0.322c-0.065-0.011-0.133-0.015-0.2-0.01
			c-0.299,0.019-0.599,0.04-0.898,0.065c-0.099,0.008-0.197,0.022-0.295,0.052c-0.205,0.062-0.312,0.199-0.326,0.407
			c-0.008,0.113-0.003,0.227,0.005,0.34c0.022,0.326,0.044,0.652,0.073,0.978c0.021,0.232,0.021,0.467,0.075,0.696
			c0.055,0.23,0.179,0.336,0.416,0.365C59.492,30.945,59.618,30.931,59.745,30.928z"/>
		<path style="fill:#FFFFFF;" d="M12.877,13.616c0.002,0.24-0.091,0.444-0.214,0.638c-0.183,0.289-0.421,0.535-0.64,0.794
			c-0.215,0.255-0.436,0.506-0.653,0.759c-0.157,0.183-0.326,0.352-0.534,0.48c-0.304,0.187-0.615,0.203-0.931,0.035
			c-0.094-0.05-0.188-0.102-0.273-0.166c-0.353-0.265-0.68-0.56-1.006-0.856c-0.099-0.089-0.184-0.193-0.257-0.306
			c-0.185-0.285-0.208-0.583-0.08-0.896c0.105-0.258,0.278-0.47,0.455-0.679c0.332-0.392,0.67-0.779,1.007-1.168
			c0.127-0.147,0.267-0.28,0.427-0.391c0.341-0.234,0.705-0.274,1.052-0.05c0.539,0.349,1.026,0.766,1.447,1.254
			C12.81,13.221,12.877,13.41,12.877,13.616z M10.383,15.633c0.134-0.008,0.233-0.072,0.322-0.157
			c0.165-0.157,0.305-0.336,0.453-0.508c0.261-0.303,0.528-0.603,0.775-0.918c0.213-0.272,0.19-0.458-0.049-0.708
			c-0.023-0.024-0.046-0.048-0.072-0.07c-0.232-0.201-0.464-0.402-0.699-0.6c-0.061-0.051-0.13-0.094-0.199-0.133
			c-0.169-0.096-0.333-0.084-0.483,0.042c-0.076,0.064-0.15,0.133-0.216,0.208c-0.312,0.357-0.621,0.716-0.929,1.076
			c-0.065,0.076-0.127,0.155-0.183,0.238c-0.15,0.224-0.149,0.404,0.036,0.598c0.295,0.309,0.622,0.584,0.968,0.836
			C10.191,15.597,10.288,15.628,10.383,15.633z"/>
		<path style="fill:#FFFFFF;" d="M30.036,2.288c0.286-0.008,0.573-0.036,0.857,0.033c0.324,0.079,0.544,0.271,0.665,0.578
			c0.067,0.169,0.1,0.346,0.116,0.526c0.029,0.326,0.056,0.652,0.077,0.978c0.011,0.173,0.006,0.345-0.019,0.519
			c-0.058,0.401-0.288,0.647-0.659,0.778c-0.165,0.058-0.336,0.092-0.508,0.106c-0.625,0.05-1.251,0.095-1.877,0.136
			c-0.186,0.012-0.373,0.003-0.556-0.046c-0.303-0.081-0.519-0.259-0.64-0.553c-0.085-0.207-0.117-0.424-0.137-0.643
			c-0.031-0.339-0.05-0.679-0.072-1.019c-0.009-0.141,0.006-0.281,0.032-0.419c0.065-0.34,0.26-0.577,0.581-0.71
			c0.193-0.08,0.396-0.122,0.602-0.14C29.011,2.367,29.524,2.329,30.036,2.288z M30.968,4.39c-0.011-0.159-0.02-0.292-0.029-0.425
			c-0.009-0.133-0.016-0.267-0.03-0.399c-0.05-0.473-0.228-0.619-0.698-0.581c-0.273,0.022-0.546,0.037-0.818,0.063
			c-0.299,0.029-0.6,0.03-0.897,0.08c-0.296,0.051-0.415,0.188-0.428,0.486c-0.001,0.013-0.001,0.027-0.001,0.04
			c0.009,0.381,0.034,0.76,0.087,1.137c0.041,0.293,0.166,0.406,0.456,0.439c0.059,0.007,0.12,0.012,0.18,0.007
			c0.519-0.038,1.038-0.076,1.557-0.117c0.106-0.008,0.212-0.021,0.314-0.056c0.176-0.059,0.277-0.176,0.301-0.361
			C30.976,4.591,30.981,4.478,30.968,4.39z"/>
		<path style="fill:#FFFFFF;" d="M53.729,47.555c0.25,0.005,0.465,0.106,0.664,0.247c0.273,0.193,0.513,0.426,0.768,0.641
			c0.164,0.138,0.323,0.278,0.458,0.446c0.284,0.351,0.312,0.723,0.107,1.119c-0.087,0.167-0.197,0.317-0.319,0.459
			c-0.361,0.42-0.722,0.841-1.084,1.26c-0.136,0.157-0.284,0.301-0.458,0.416c-0.323,0.214-0.656,0.241-1,0.052
			c-0.111-0.061-0.221-0.125-0.318-0.207c-0.301-0.254-0.601-0.509-0.898-0.768c-0.101-0.088-0.187-0.19-0.266-0.298
			c-0.235-0.324-0.253-0.663-0.075-1.017c0.109-0.217,0.259-0.405,0.414-0.588c0.342-0.402,0.688-0.799,1.033-1.198
			c0.127-0.147,0.266-0.282,0.43-0.388C53.35,47.625,53.527,47.551,53.729,47.555z M55.062,49.606
			c0.009-0.155-0.076-0.268-0.178-0.366c-0.273-0.265-0.563-0.511-0.863-0.745c-0.036-0.029-0.078-0.051-0.119-0.073
			c-0.171-0.091-0.333-0.076-0.484,0.046c-0.084,0.067-0.158,0.143-0.228,0.224c-0.287,0.334-0.575,0.667-0.862,1.001
			c-0.078,0.091-0.158,0.181-0.226,0.28c-0.161,0.234-0.146,0.42,0.042,0.633c0.04,0.045,0.082,0.088,0.127,0.127
			c0.216,0.188,0.43,0.38,0.652,0.562c0.381,0.312,0.597,0.289,0.915-0.083c0.273-0.319,0.549-0.637,0.822-0.956
			c0.104-0.122,0.206-0.245,0.302-0.373C55.022,49.803,55.064,49.711,55.062,49.606z"/>
		<path style="fill:#FFFFFF;" d="M47.594,10.3c-0.007-0.165,0.05-0.32,0.127-0.47c0.061-0.119,0.134-0.231,0.221-0.333
			c0.237-0.28,0.476-0.559,0.717-0.836c0.114-0.132,0.246-0.245,0.393-0.339c0.279-0.178,0.573-0.204,0.878-0.072
			c0.203,0.088,0.387,0.209,0.555,0.354c0.43,0.37,0.862,0.738,1.292,1.109c0.168,0.144,0.316,0.306,0.433,0.496
			c0.178,0.289,0.198,0.587,0.056,0.897c-0.079,0.172-0.188,0.323-0.309,0.466c-0.216,0.255-0.434,0.507-0.653,0.759
			c-0.096,0.111-0.204,0.211-0.321,0.3c-0.318,0.24-0.655,0.271-1.015,0.102c-0.239-0.112-0.44-0.278-0.638-0.445
			c-0.368-0.31-0.73-0.626-1.093-0.94c-0.167-0.144-0.325-0.298-0.451-0.481C47.668,10.698,47.588,10.517,47.594,10.3z
			 M50.304,12.036c0.127,0.007,0.226-0.029,0.371-0.18c0.263-0.275,0.517-0.559,0.742-0.865c0.201-0.273,0.18-0.466-0.068-0.705
			c-0.163-0.157-0.339-0.302-0.51-0.45c-0.268-0.231-0.532-0.467-0.806-0.689c-0.321-0.26-0.542-0.244-0.816,0.056
			C49,9.439,48.797,9.687,48.591,9.931c-0.043,0.051-0.08,0.107-0.113,0.165c-0.117,0.208-0.107,0.351,0.043,0.533
			c0.063,0.077,0.137,0.146,0.211,0.212c0.185,0.164,0.372,0.325,0.56,0.484c0.224,0.19,0.447,0.38,0.675,0.565
			C50.06,11.966,50.163,12.031,50.304,12.036z"/>
		<path style="fill:#FFFFFF;" d="M35.208,58.055c0.18-0.011,0.36-0.009,0.54,0.008c0.44,0.043,0.727,0.269,0.863,0.69
			c0.039,0.121,0.068,0.245,0.079,0.371c0.029,0.332,0.056,0.665,0.079,0.998c0.009,0.126,0.01,0.254,0.006,0.38
			c-0.021,0.558-0.3,0.891-0.841,1.018c-0.229,0.053-0.461,0.069-0.694,0.086c-0.453,0.032-0.905,0.073-1.357,0.105
			c-0.233,0.017-0.467,0.015-0.697-0.039c-0.354-0.084-0.587-0.298-0.702-0.644c-0.064-0.192-0.09-0.391-0.104-0.59
			c-0.026-0.353-0.067-0.705-0.066-1.059c0-0.047,0.001-0.093,0.003-0.14c0.024-0.535,0.268-0.837,0.782-0.976
			c0.24-0.065,0.486-0.084,0.732-0.105C34.289,58.118,34.749,58.088,35.208,58.055z M34.018,60.999
			c0.46-0.038,0.967-0.073,1.471-0.124c0.39-0.04,0.518-0.199,0.515-0.596c0-0.033-0.001-0.067-0.003-0.1
			c-0.012-0.166-0.021-0.333-0.039-0.499c-0.022-0.199-0.018-0.401-0.075-0.595c-0.052-0.176-0.163-0.285-0.348-0.318
			c-0.127-0.022-0.253-0.018-0.379-0.009c-0.353,0.026-0.706,0.049-1.058,0.082c-0.206,0.019-0.414,0.017-0.617,0.066
			c-0.257,0.062-0.363,0.178-0.391,0.439c-0.008,0.073-0.007,0.147-0.003,0.22c0.013,0.213,0.026,0.427,0.048,0.639
			c0.016,0.152,0.018,0.307,0.063,0.455c0.069,0.228,0.176,0.316,0.412,0.343C33.733,61.016,33.852,60.995,34.018,60.999z"/>
		<path style="fill:#FFFFFF;" d="M3.828,36.74c-0.212-0.007-0.391,0.005-0.569-0.039c-0.346-0.086-0.575-0.292-0.695-0.627
			c-0.096-0.267-0.122-0.547-0.144-0.825c-0.041-0.506-0.072-1.012-0.103-1.518c-0.011-0.186-0.004-0.372,0.034-0.558
			c0.077-0.376,0.303-0.613,0.663-0.73c0.192-0.063,0.391-0.084,0.591-0.099c0.359-0.026,0.717-0.072,1.078-0.069
			c0.093,0.001,0.188,0.003,0.279,0.019c0.436,0.073,0.695,0.338,0.807,0.759c0.083,0.312,0.09,0.633,0.117,0.952
			c0.031,0.359,0.055,0.719,0.08,1.078c0.017,0.253,0.029,0.506-0.022,0.758c-0.077,0.376-0.301,0.613-0.66,0.734
			c-0.185,0.062-0.378,0.084-0.57,0.102C4.409,36.704,4.103,36.721,3.828,36.74z M4.527,33.054c0-0.002,0-0.004,0-0.006
			c-0.239,0.019-0.479,0.037-0.718,0.059C3.67,33.12,3.53,33.114,3.393,33.156c-0.251,0.077-0.341,0.177-0.371,0.435
			c-0.006,0.053-0.008,0.107-0.004,0.16c0.039,0.533,0.077,1.065,0.121,1.597c0.009,0.112,0.025,0.225,0.067,0.333
			c0.056,0.141,0.152,0.23,0.303,0.261c0.093,0.019,0.185,0.029,0.279,0.023c0.233-0.015,0.466-0.034,0.699-0.052
			c0.08-0.006,0.159-0.014,0.239-0.021c0.415-0.036,0.579-0.23,0.549-0.647c-0.008-0.107-0.016-0.213-0.024-0.319
			c-0.038-0.472-0.069-0.945-0.118-1.416c-0.032-0.307-0.179-0.432-0.484-0.455C4.608,33.051,4.567,33.054,4.527,33.054z"/>
		<path style="fill:#FFFFFF;" d="M8.486,17.409c-0.069,0.066-0.1,0.148-0.142,0.223c-0.315,0.558-0.626,1.118-0.942,1.675
			c-0.108,0.191-0.078,0.159,0.076,0.247c0.307,0.175,0.617,0.346,0.925,0.52c0.179,0.102,0.181,0.112,0.08,0.293
			c-0.058,0.105-0.118,0.209-0.179,0.313c-0.094,0.162-0.112,0.168-0.281,0.074c-0.333-0.185-0.663-0.372-0.995-0.559
			c-0.565-0.317-1.129-0.633-1.694-0.95c-0.215-0.12-0.217-0.13-0.092-0.352c0.056-0.099,0.11-0.199,0.168-0.296
			c0.081-0.134,0.103-0.141,0.237-0.066c0.28,0.156,0.558,0.315,0.837,0.472c0.041,0.023,0.081,0.046,0.122,0.068
			c0.127,0.069,0.13,0.071,0.196-0.047c0.348-0.616,0.692-1.234,1.042-1.849c0.042-0.075,0.037-0.112-0.041-0.155
			c-0.322-0.176-0.641-0.358-0.96-0.539c-0.182-0.103-0.185-0.114-0.086-0.292c0.065-0.117,0.129-0.234,0.198-0.348
			c0.074-0.124,0.092-0.131,0.222-0.06c0.333,0.183,0.664,0.371,0.996,0.557c0.588,0.329,1.176,0.659,1.764,0.988
			c0.179,0.1,0.183,0.115,0.086,0.291c-0.061,0.111-0.125,0.221-0.189,0.33c-0.088,0.15-0.098,0.156-0.246,0.074
			c-0.275-0.151-0.547-0.307-0.821-0.461C8.672,17.51,8.579,17.46,8.486,17.409z"/>
		<path style="fill:#FFFFFF;" d="M6.422,37.818c0.011,0.118-0.047,0.141-0.117,0.16c-0.276,0.077-0.552,0.152-0.826,0.236
			c-0.138,0.042-0.289,0.048-0.411,0.136c0.035,0.134,0.067,0.27,0.104,0.403c0.158,0.565,0.32,1.128,0.474,1.694
			c0.05,0.184,0.052,0.161,0.216,0.116c0.341-0.093,0.68-0.192,1.02-0.287C7.09,40.218,7.1,40.225,7.16,40.434
			c0.035,0.122,0.069,0.244,0.1,0.366c0.038,0.152,0.032,0.167-0.123,0.211c-0.417,0.119-0.835,0.233-1.252,0.35
			c-0.597,0.167-1.193,0.336-1.79,0.504c-0.196,0.055-0.2,0.053-0.26-0.15c-0.034-0.115-0.068-0.23-0.099-0.346
			c-0.045-0.171-0.033-0.193,0.134-0.241c0.352-0.101,0.704-0.205,1.059-0.297c0.104-0.027,0.122-0.059,0.092-0.164
			c-0.194-0.672-0.38-1.347-0.569-2.021c-0.037-0.131-0.04-0.132-0.179-0.094c-0.328,0.091-0.655,0.183-0.982,0.275
			c-0.045,0.013-0.09,0.024-0.135,0.035c-0.079,0.018-0.128-0.012-0.15-0.091c-0.046-0.167-0.093-0.334-0.141-0.5
			c-0.032-0.11,0.041-0.144,0.122-0.168c0.23-0.067,0.461-0.131,0.692-0.196c0.776-0.218,1.553-0.436,2.329-0.653
			c0.045-0.013,0.09-0.027,0.135-0.036c0.061-0.012,0.107,0.012,0.125,0.072C6.324,37.475,6.376,37.661,6.422,37.818z"/>
		<path style="fill:#FFFFFF;" d="M46.626,8.438c-0.52-0.293-1.02-0.574-1.52-0.855c-0.145-0.082-0.293-0.159-0.436-0.246
			c-0.081-0.049-0.122-0.04-0.169,0.047c-0.178,0.328-0.364,0.652-0.549,0.977c-0.104,0.182-0.112,0.184-0.292,0.085
			c-0.117-0.064-0.234-0.129-0.349-0.197c-0.108-0.064-0.117-0.097-0.065-0.211c0.019-0.042,0.044-0.083,0.066-0.123
			c0.493-0.878,0.987-1.757,1.48-2.635c0.016-0.029,0.032-0.058,0.049-0.087c0.039-0.068,0.096-0.096,0.167-0.058
			C45.168,5.221,45.324,5.31,45.48,5.4c0.098,0.057,0.065,0.129,0.022,0.205c-0.165,0.29-0.328,0.581-0.492,0.871
			c-0.023,0.041-0.041,0.085-0.069,0.122c-0.067,0.085-0.025,0.124,0.053,0.166c0.292,0.161,0.582,0.327,0.873,0.49
			c0.355,0.199,0.711,0.397,1.07,0.597c0.096-0.108,0.15-0.238,0.22-0.358c0.14-0.243,0.273-0.489,0.414-0.732
			c0.073-0.126,0.097-0.131,0.223-0.065c0.13,0.068,0.258,0.14,0.385,0.214c0.133,0.077,0.14,0.1,0.064,0.238
			c-0.164,0.298-0.332,0.594-0.499,0.891c-0.35,0.622-0.7,1.245-1.05,1.867c-0.095,0.169-0.107,0.173-0.277,0.082
			c-0.117-0.063-0.234-0.129-0.349-0.196c-0.132-0.078-0.141-0.1-0.064-0.238c0.168-0.304,0.34-0.605,0.51-0.907
			C46.548,8.582,46.583,8.518,46.626,8.438z"/>
		<path style="fill:#FFFFFF;" d="M46.581,54.098c0.224,0.001,0.408,0.066,0.569,0.198c0.162,0.133,0.291,0.294,0.395,0.475
			c0.354,0.62,0.705,1.241,1.055,1.863c0.077,0.136,0.069,0.157-0.064,0.236c-0.121,0.071-0.243,0.139-0.366,0.206
			c-0.144,0.079-0.163,0.075-0.249-0.071c-0.108-0.184-0.211-0.371-0.316-0.557c-0.203-0.36-0.406-0.721-0.609-1.081
			c-0.059-0.105-0.12-0.209-0.199-0.3c-0.153-0.176-0.299-0.216-0.518-0.14c-0.063,0.022-0.125,0.047-0.183,0.079
			c-0.442,0.248-0.887,0.492-1.322,0.75c-0.405,0.241-0.456,0.426-0.23,0.841c0.319,0.586,0.65,1.164,0.977,1.746
			c0.097,0.173,0.097,0.179-0.069,0.277c-0.121,0.071-0.242,0.14-0.366,0.206c-0.116,0.061-0.142,0.055-0.211-0.055
			c-0.067-0.108-0.127-0.219-0.189-0.33c-0.262-0.465-0.525-0.929-0.786-1.394c-0.117-0.21-0.224-0.423-0.278-0.661
			c-0.071-0.313,0.01-0.579,0.218-0.815c0.193-0.22,0.441-0.365,0.689-0.509c0.369-0.214,0.742-0.421,1.114-0.631
			c0.221-0.125,0.45-0.232,0.697-0.297C46.424,54.112,46.509,54.092,46.581,54.098z"/>
		<path style="fill:#FFFFFF;" d="M17.435,55.552c0.328,0.186,0.646,0.366,0.964,0.545c0.331,0.186,0.665,0.369,0.994,0.559
			c0.084,0.048,0.123,0.036,0.169-0.048c0.178-0.328,0.364-0.652,0.548-0.978c0.103-0.182,0.115-0.185,0.29-0.089
			c0.105,0.058,0.21,0.117,0.313,0.177c0.166,0.097,0.171,0.112,0.078,0.279c-0.447,0.797-0.894,1.594-1.341,2.391
			c-0.069,0.122-0.136,0.245-0.206,0.366c-0.082,0.143-0.099,0.148-0.25,0.066c-0.105-0.058-0.209-0.118-0.313-0.178
			c-0.197-0.114-0.197-0.114-0.081-0.321c0.16-0.285,0.32-0.57,0.481-0.854c0.013-0.023,0.024-0.048,0.04-0.069
			c0.057-0.076,0.042-0.122-0.045-0.168c-0.253-0.135-0.502-0.278-0.752-0.418c-0.395-0.222-0.79-0.443-1.182-0.663
			c-0.068,0.018-0.079,0.075-0.104,0.12c-0.178,0.313-0.354,0.627-0.532,0.94c-0.091,0.16-0.098,0.161-0.261,0.071
			c-0.111-0.061-0.222-0.122-0.332-0.185c-0.163-0.094-0.166-0.109-0.075-0.282c0.041-0.077,0.084-0.152,0.127-0.227
			c0.461-0.82,0.922-1.64,1.383-2.459c0.023-0.041,0.044-0.083,0.07-0.121c0.038-0.056,0.086-0.081,0.153-0.043
			c0.157,0.088,0.315,0.174,0.472,0.262c0.098,0.056,0.067,0.13,0.025,0.205c-0.144,0.256-0.288,0.511-0.432,0.767
			C17.57,55.31,17.506,55.426,17.435,55.552z"/>
		<path style="fill:#FFFFFF;" d="M57.326,44.85c-0.088,0.156-0.17,0.3-0.251,0.445c-0.274,0.489-0.548,0.978-0.823,1.466
			c-0.087,0.154-0.125,0.134,0.073,0.245c0.309,0.173,0.617,0.346,0.925,0.52c0.151,0.085,0.155,0.097,0.074,0.246
			c-0.071,0.129-0.143,0.256-0.218,0.383c-0.066,0.111-0.092,0.121-0.207,0.06c-0.189-0.1-0.374-0.205-0.561-0.31
			c-0.733-0.411-1.466-0.823-2.199-1.235c-0.029-0.016-0.058-0.032-0.087-0.049c-0.066-0.04-0.095-0.091-0.053-0.166
			c0.089-0.157,0.174-0.315,0.264-0.471c0.057-0.099,0.13-0.062,0.205-0.02c0.29,0.165,0.581,0.327,0.872,0.491
			c0.047,0.026,0.098,0.046,0.139,0.078c0.079,0.063,0.125,0.041,0.17-0.042c0.101-0.188,0.207-0.373,0.312-0.559
			c0.229-0.407,0.458-0.814,0.687-1.221c0.032-0.057,0.062-0.116,0.098-0.185c-0.331-0.186-0.658-0.367-0.981-0.552
			c-0.299-0.171-0.311-0.129-0.121-0.457c0.047-0.081,0.09-0.164,0.139-0.243c0.067-0.108,0.093-0.116,0.21-0.054
			c0.189,0.1,0.374,0.205,0.561,0.31c0.733,0.411,1.466,0.823,2.199,1.234c0.029,0.016,0.058,0.033,0.087,0.049
			c0.071,0.039,0.09,0.096,0.05,0.167c-0.087,0.157-0.175,0.315-0.266,0.47c-0.042,0.072-0.101,0.074-0.171,0.033
			c-0.144-0.084-0.29-0.164-0.436-0.245C57.791,45.109,57.564,44.983,57.326,44.85z"/>
		<path style="fill:#FFFFFF;" d="M58.355,23.386c-0.388,0.107-0.779,0.216-1.169,0.324c-0.032,0.009-0.063,0.021-0.096,0.029
			c-0.076,0.018-0.131-0.002-0.154-0.084c-0.049-0.173-0.102-0.346-0.148-0.52c-0.025-0.096,0.045-0.131,0.119-0.153
			c0.224-0.065,0.449-0.128,0.674-0.191c0.79-0.221,1.58-0.442,2.37-0.664c0.209-0.059,0.222-0.053,0.28,0.152
			c0.035,0.122,0.069,0.244,0.101,0.366c0.038,0.146,0.027,0.169-0.123,0.213c-0.326,0.096-0.654,0.186-0.982,0.278
			c-0.221,0.062-0.222,0.062-0.159,0.287c0.176,0.63,0.352,1.259,0.528,1.889c0.046,0.165,0.047,0.166,0.214,0.119
			c0.341-0.095,0.681-0.192,1.021-0.286c0.176-0.049,0.192-0.039,0.242,0.13c0.038,0.128,0.076,0.256,0.11,0.385
			c0.04,0.154,0.024,0.184-0.132,0.229c-0.372,0.107-0.745,0.21-1.117,0.315c-0.636,0.179-1.271,0.358-1.907,0.537
			c-0.195,0.055-0.21,0.046-0.267-0.146c-0.038-0.128-0.072-0.257-0.105-0.386c-0.035-0.139-0.029-0.156,0.113-0.199
			c0.268-0.08,0.538-0.154,0.808-0.23c0.103-0.029,0.205-0.059,0.309-0.084c0.085-0.02,0.124-0.055,0.096-0.153
			c-0.202-0.705-0.4-1.412-0.6-2.118C58.379,23.416,58.368,23.406,58.355,23.386z"/>
		<path style="fill:#FFFFFF;" d="M20.468,7.886c0.004,0.181-0.098,0.392-0.275,0.57c-0.175,0.177-0.381,0.313-0.597,0.436
			c-0.423,0.241-0.846,0.483-1.272,0.72c-0.204,0.114-0.417,0.208-0.648,0.259c-0.331,0.074-0.605-0.027-0.845-0.25
			c-0.158-0.148-0.275-0.328-0.381-0.513c-0.328-0.574-0.652-1.149-0.976-1.725c-0.095-0.169-0.09-0.181,0.08-0.278
			c0.128-0.072,0.258-0.141,0.384-0.215c0.073-0.043,0.127-0.027,0.169,0.041c0.035,0.057,0.066,0.116,0.099,0.174
			c0.276,0.488,0.552,0.976,0.827,1.464c0.076,0.134,0.152,0.267,0.257,0.381c0.131,0.142,0.286,0.191,0.471,0.12
			c0.081-0.031,0.163-0.061,0.238-0.103c0.413-0.232,0.825-0.467,1.237-0.701c0.105-0.059,0.207-0.123,0.291-0.21
			c0.118-0.122,0.151-0.264,0.098-0.424c-0.033-0.102-0.079-0.198-0.132-0.291c-0.316-0.557-0.631-1.115-0.946-1.673
			c-0.107-0.189-0.105-0.198,0.084-0.308c0.109-0.064,0.219-0.128,0.331-0.188c0.134-0.071,0.158-0.064,0.236,0.072
			c0.103,0.179,0.203,0.36,0.305,0.54c0.237,0.418,0.474,0.836,0.71,1.254C20.381,7.331,20.465,7.59,20.468,7.886z"/>
		<path style="fill:#FFFFFF;" d="M41.328,60.312c-0.114,0.009-0.137-0.054-0.156-0.121c-0.064-0.224-0.127-0.449-0.19-0.673
			c-0.041-0.148-0.086-0.294-0.121-0.444c-0.021-0.09-0.066-0.099-0.144-0.076c-0.679,0.194-1.358,0.389-2.04,0.575
			c-0.108,0.03-0.123,0.071-0.096,0.167c0.1,0.346,0.195,0.693,0.291,1.04c0.056,0.201,0.052,0.209-0.143,0.266
			c-0.121,0.036-0.242,0.074-0.365,0.104c-0.156,0.038-0.184,0.022-0.229-0.135c-0.102-0.352-0.199-0.706-0.298-1.059
			c-0.185-0.661-0.37-1.322-0.554-1.983c-0.05-0.179-0.045-0.187,0.128-0.238c0.128-0.038,0.256-0.076,0.385-0.109
			c0.163-0.043,0.18-0.034,0.226,0.126c0.104,0.359,0.208,0.717,0.304,1.078c0.043,0.163,0.051,0.148,0.186,0.11
			c0.661-0.184,1.321-0.371,1.982-0.558c0.154-0.044,0.155-0.046,0.11-0.205c-0.097-0.347-0.197-0.692-0.293-1.039
			c-0.053-0.192-0.041-0.211,0.151-0.265c0.122-0.034,0.244-0.066,0.367-0.099c0.161-0.043,0.179-0.035,0.224,0.126
			c0.12,0.423,0.237,0.847,0.356,1.271c0.167,0.597,0.334,1.194,0.5,1.791c0.044,0.159,0.033,0.18-0.124,0.226
			C41.625,60.233,41.464,60.274,41.328,60.312z"/>
		<path style="fill:#FFFFFF;" d="M5.39,26.916c-0.222,0.006-0.434-0.054-0.647-0.112c-0.598-0.164-1.195-0.331-1.792-0.496
			c-0.213-0.059-0.222-0.074-0.161-0.293c0.027-0.096,0.053-0.193,0.081-0.289c0.065-0.227,0.065-0.226,0.285-0.166
			c0.578,0.16,1.156,0.321,1.735,0.479c0.115,0.032,0.233,0.059,0.352,0.074c0.28,0.036,0.428-0.05,0.528-0.315
			c0.059-0.155,0.097-0.319,0.142-0.479c0.094-0.334,0.187-0.668,0.28-1.002c0.018-0.064,0.036-0.129,0.05-0.194
			c0.076-0.36-0.027-0.548-0.376-0.658C5.58,23.376,5.289,23.303,5,23.223c-0.385-0.107-0.771-0.213-1.156-0.321
			c-0.164-0.046-0.173-0.064-0.131-0.224c0.035-0.135,0.071-0.271,0.112-0.405c0.045-0.147,0.068-0.161,0.216-0.121
			c0.341,0.092,0.681,0.189,1.021,0.282c0.328,0.09,0.657,0.177,0.984,0.27c0.109,0.031,0.215,0.072,0.319,0.117
			c0.516,0.223,0.722,0.599,0.64,1.154c-0.055,0.371-0.177,0.725-0.272,1.086c-0.07,0.264-0.146,0.527-0.219,0.79
			c-0.05,0.181-0.114,0.355-0.201,0.522C6.119,26.747,5.821,26.945,5.39,26.916z"/>
		<path style="fill:#FFFFFF;" d="M9.931,46.538c-0.005,0.232-0.074,0.429-0.22,0.598c-0.133,0.153-0.289,0.279-0.464,0.378
			c-0.614,0.351-1.23,0.699-1.847,1.046c-0.142,0.08-0.167,0.071-0.251-0.073c-0.074-0.127-0.14-0.258-0.217-0.383
			c-0.055-0.09-0.033-0.148,0.053-0.197c0.163-0.091,0.325-0.185,0.487-0.277c0.395-0.224,0.79-0.446,1.185-0.67
			c0.11-0.063,0.221-0.126,0.316-0.211c0.155-0.139,0.21-0.305,0.128-0.504c-0.03-0.074-0.061-0.148-0.1-0.218
			c-0.225-0.402-0.451-0.803-0.679-1.203c-0.046-0.081-0.096-0.161-0.153-0.234C8,44.367,7.833,44.321,7.573,44.436
			c-0.152,0.067-0.297,0.151-0.443,0.232c-0.483,0.271-0.965,0.545-1.447,0.817c-0.171,0.097-0.177,0.096-0.276-0.073
			c-0.064-0.109-0.127-0.22-0.188-0.331c-0.083-0.151-0.077-0.178,0.078-0.267c0.417-0.238,0.836-0.474,1.254-0.71
			c0.192-0.108,0.383-0.218,0.576-0.323c0.17-0.093,0.348-0.166,0.541-0.204c0.315-0.063,0.58,0.03,0.809,0.242
			c0.138,0.128,0.253,0.277,0.347,0.439c0.299,0.521,0.597,1.043,0.886,1.569C9.863,46.104,9.929,46.353,9.931,46.538z"/>
		<path style="fill:#FFFFFF;" d="M58.671,37.066c0.149,0.012,0.322,0.031,0.49,0.077c0.669,0.183,1.336,0.369,2.004,0.555
			c0.158,0.044,0.167,0.063,0.123,0.227c-0.032,0.122-0.065,0.245-0.1,0.367c-0.054,0.189-0.068,0.197-0.269,0.142
			c-0.244-0.066-0.488-0.134-0.733-0.202c-0.373-0.103-0.745-0.206-1.118-0.308c-0.051-0.014-0.103-0.027-0.155-0.037
			c-0.354-0.068-0.536,0.026-0.64,0.372c-0.158,0.523-0.296,1.052-0.442,1.579c-0.012,0.045-0.015,0.092-0.022,0.138
			c-0.033,0.248,0.045,0.392,0.274,0.497c0.232,0.106,0.481,0.157,0.725,0.226c0.475,0.134,0.95,0.264,1.425,0.397
			c0.152,0.043,0.16,0.057,0.121,0.21c-0.034,0.136-0.073,0.27-0.114,0.404c-0.05,0.165-0.061,0.172-0.224,0.127
			c-0.431-0.118-0.86-0.24-1.291-0.359c-0.296-0.081-0.594-0.153-0.883-0.256c-0.666-0.237-0.902-0.643-0.756-1.336
			c0.14-0.666,0.338-1.317,0.538-1.966c0.047-0.153,0.119-0.297,0.208-0.431C58.025,37.199,58.3,37.063,58.671,37.066z"/>
		<path style="fill:#FFFFFF;" d="M26.956,58.652c0.006,0.175-0.043,0.369-0.096,0.562c-0.171,0.624-0.346,1.246-0.519,1.869
			c-0.011,0.039-0.022,0.077-0.035,0.115c-0.02,0.06-0.065,0.088-0.124,0.072c-0.18-0.048-0.36-0.1-0.539-0.15
			c-0.086-0.024-0.092-0.085-0.072-0.158c0.051-0.186,0.101-0.373,0.153-0.559c0.129-0.469,0.263-0.937,0.388-1.407
			c0.126-0.476,0.016-0.667-0.453-0.801c-0.468-0.133-0.937-0.262-1.407-0.389c-0.447-0.12-0.633-0.023-0.765,0.421
			c-0.189,0.639-0.363,1.283-0.543,1.924c-0.009,0.032-0.015,0.065-0.025,0.097c-0.024,0.077-0.07,0.105-0.152,0.08
			c-0.159-0.048-0.32-0.094-0.482-0.132c-0.103-0.024-0.128-0.085-0.106-0.176c0.022-0.091,0.05-0.18,0.075-0.27
			c0.161-0.578,0.322-1.156,0.483-1.734c0.056-0.2,0.126-0.393,0.237-0.57c0.178-0.283,0.433-0.423,0.767-0.43
			c0.243-0.005,0.479,0.037,0.711,0.1c0.483,0.13,0.964,0.263,1.446,0.398c0.199,0.056,0.394,0.125,0.572,0.234
			C26.82,57.96,26.962,58.215,26.956,58.652z"/>
		<path style="fill:#FFFFFF;" d="M40.242,6.98c-0.187,0.003-0.389-0.043-0.589-0.096c-0.515-0.138-1.028-0.283-1.542-0.427
			c-0.167-0.047-0.327-0.116-0.48-0.198C37.24,6.05,37.059,5.706,37.11,5.266c0.025-0.219,0.076-0.433,0.136-0.645
			c0.163-0.577,0.321-1.156,0.484-1.734c0.053-0.189,0.061-0.191,0.25-0.14c0.122,0.033,0.245,0.065,0.366,0.101
			c0.168,0.049,0.179,0.068,0.13,0.242c-0.158,0.572-0.319,1.143-0.476,1.715c-0.037,0.135-0.071,0.272-0.092,0.41
			c-0.036,0.233,0.048,0.38,0.26,0.488c0.108,0.055,0.223,0.087,0.339,0.119c0.424,0.118,0.847,0.238,1.271,0.354
			c0.496,0.135,0.684,0.026,0.822-0.472c0.168-0.61,0.337-1.221,0.505-1.832c0.009-0.032,0.019-0.064,0.03-0.095
			c0.045-0.131,0.057-0.139,0.185-0.106c0.135,0.035,0.27,0.073,0.405,0.112c0.19,0.055,0.193,0.06,0.141,0.248
			C41.7,4.634,41.53,5.237,41.365,5.842c-0.06,0.219-0.12,0.437-0.233,0.637C40.938,6.823,40.658,6.985,40.242,6.98z"/>
		<path style="fill:#FFFFFF;" d="M25.689,5.016c-0.758,0.213-1.507,0.425-2.272,0.64c0.088,0.32,0.172,0.626,0.257,0.933
			c0.03,0.109,0.06,0.219,0.095,0.327c0.029,0.093,0.011,0.157-0.09,0.184c-0.167,0.046-0.335,0.091-0.501,0.14
			c-0.075,0.022-0.115-0.016-0.142-0.075c-0.019-0.042-0.031-0.088-0.044-0.133c-0.277-0.989-0.553-1.978-0.829-2.968
			c-0.056-0.2-0.053-0.203,0.148-0.261c0.128-0.037,0.255-0.078,0.385-0.11c0.132-0.032,0.162-0.014,0.2,0.121
			c0.095,0.333,0.187,0.668,0.281,1.002c0.009,0.032,0.022,0.064,0.026,0.096c0.014,0.102,0.065,0.106,0.154,0.08
			c0.416-0.122,0.834-0.237,1.252-0.355c0.263-0.074,0.525-0.153,0.79-0.221c0.096-0.025,0.112-0.06,0.084-0.154
			c-0.106-0.358-0.203-0.719-0.301-1.079c-0.044-0.163-0.036-0.175,0.128-0.225c0.134-0.041,0.269-0.078,0.404-0.114
			c0.151-0.04,0.165-0.035,0.21,0.12c0.109,0.378,0.213,0.758,0.319,1.137c0.179,0.636,0.358,1.271,0.538,1.907
			c0.054,0.192,0.048,0.203-0.151,0.261c-0.102,0.03-0.205,0.06-0.308,0.088c-0.22,0.061-0.235,0.053-0.295-0.161
			c-0.094-0.334-0.187-0.668-0.281-1.002C25.73,5.135,25.709,5.08,25.689,5.016z"/>
		<path style="fill:#FFFFFF;" d="M56.216,20.43c-0.224,0.003-0.416-0.078-0.585-0.222c-0.228-0.195-0.381-0.446-0.528-0.701
			c-0.244-0.422-0.479-0.849-0.716-1.274c-0.078-0.14-0.142-0.287-0.189-0.441c-0.14-0.461-0.031-0.821,0.343-1.123
			c0.188-0.152,0.399-0.267,0.608-0.385c0.494-0.279,0.988-0.559,1.482-0.837c0.184-0.104,0.193-0.101,0.294,0.075
			c0.06,0.104,0.119,0.209,0.177,0.314c0.09,0.164,0.085,0.19-0.076,0.281c-0.336,0.192-0.674,0.381-1.011,0.571
			c-0.232,0.131-0.466,0.26-0.697,0.395c-0.43,0.251-0.492,0.454-0.255,0.885c0.244,0.444,0.492,0.888,0.755,1.321
			c0.228,0.375,0.409,0.419,0.799,0.206c0.562-0.308,1.116-0.63,1.674-0.944c0.281-0.158,0.254-0.168,0.414,0.118
			c0.055,0.099,0.108,0.2,0.168,0.296c0.046,0.073,0.028,0.125-0.038,0.169c-0.033,0.022-0.067,0.043-0.102,0.063
			c-0.569,0.322-1.138,0.646-1.709,0.964C56.774,20.301,56.515,20.426,56.216,20.43z"/>
		<path style="fill:#FFFFFF;" d="M31.283,61.8c-0.639-0.051-1.278-0.102-1.916-0.152c-0.572-0.045-1.145-0.088-1.717-0.133
			c-0.184-0.014-0.19-0.02-0.18-0.205c0.007-0.127,0.019-0.253,0.033-0.379c0.015-0.13,0.031-0.147,0.165-0.14
			c0.253,0.013,0.506,0.033,0.759,0.053c0.213,0.017,0.426,0.036,0.638,0.055c0.138,0.012,0.144,0.011,0.156-0.134
			c0.032-0.386,0.06-0.772,0.089-1.158c0.032-0.419,0.062-0.839,0.094-1.258c0.004-0.047,0.013-0.093,0.018-0.139
			c0.009-0.086,0.064-0.11,0.141-0.104c0.173,0.013,0.346,0.026,0.519,0.04c0.098,0.008,0.116,0.075,0.109,0.157
			c-0.018,0.226-0.037,0.452-0.055,0.679c-0.047,0.606-0.096,1.211-0.141,1.817c-0.013,0.169-0.008,0.171,0.167,0.184
			c0.433,0.032,0.866,0.062,1.298,0.093c0.209,0.015,0.226,0.033,0.212,0.242c-0.008,0.113-0.02,0.226-0.031,0.339
			c-0.013,0.131-0.031,0.148-0.159,0.148c-0.067,0-0.133-0.007-0.2-0.01C31.283,61.797,31.283,61.799,31.283,61.8z"/>
		<path style="fill:#FFFFFF;" d="M3.49,29.983c-0.107-0.008-0.214-0.013-0.319-0.026c-0.086-0.011-0.117,0.018-0.122,0.106
			c-0.023,0.36-0.053,0.719-0.082,1.079c-0.01,0.126-0.024,0.253-0.032,0.379c-0.005,0.083-0.046,0.124-0.127,0.118
			c-0.167-0.011-0.333-0.022-0.499-0.041c-0.101-0.011-0.099-0.096-0.094-0.17c0.013-0.193,0.029-0.386,0.044-0.579
			c0.049-0.632,0.098-1.265,0.148-1.897c0.036-0.453,0.07-0.905,0.11-1.358c0.014-0.165,0.023-0.17,0.181-0.162
			c0.133,0.007,0.266,0.02,0.399,0.033c0.125,0.012,0.151,0.039,0.142,0.165c-0.028,0.373-0.06,0.745-0.09,1.118
			c-0.007,0.087-0.016,0.173-0.02,0.26c-0.008,0.17-0.007,0.169,0.171,0.182c0.779,0.057,1.558,0.114,2.337,0.171
			c0.033,0.002,0.067,0.006,0.1,0.011c0.191,0.027,0.199,0.038,0.181,0.228c-0.012,0.126-0.018,0.253-0.029,0.379
			c-0.015,0.16-0.039,0.184-0.201,0.173c-0.426-0.03-0.852-0.064-1.279-0.097C4.102,30.031,3.796,30.007,3.49,29.983z"/>
		<path style="fill:#FFFFFF;" d="M9.593,50.443c0.601-0.516,1.189-1.019,1.777-1.523c0.086-0.074,0.175-0.145,0.259-0.221
			c0.077-0.07,0.138-0.058,0.201,0.019c0.097,0.119,0.201,0.232,0.298,0.351c0.096,0.118,0.095,0.139-0.026,0.244
			c-0.313,0.271-0.628,0.539-0.942,0.809c-0.35,0.299-0.699,0.598-1.061,0.908c0.207,0.244,0.409,0.482,0.612,0.719
			c0.13,0.152,0.263,0.302,0.391,0.456c0.089,0.107,0.086,0.141-0.016,0.233c-0.104,0.094-0.214,0.181-0.319,0.274
			c-0.069,0.06-0.131,0.055-0.191-0.009c-0.055-0.058-0.108-0.118-0.16-0.179c-0.778-0.907-1.555-1.814-2.333-2.721
			c-0.017-0.02-0.036-0.04-0.052-0.061c-0.076-0.104-0.076-0.133,0.019-0.219c0.099-0.09,0.2-0.177,0.304-0.26
			C8.47,49.168,8.498,49.17,8.6,49.289c0.279,0.323,0.555,0.649,0.833,0.974C9.48,50.318,9.529,50.371,9.593,50.443z"/>
		<path style="fill:#FFFFFF;" d="M13.597,9.57c0.468,0.546,0.937,1.094,1.406,1.642c0.104,0.122,0.21,0.242,0.312,0.366
			c0.084,0.103,0.083,0.132-0.011,0.217c-0.118,0.108-0.244,0.208-0.364,0.314c-0.069,0.061-0.13,0.059-0.192-0.005
			c-0.032-0.034-0.062-0.07-0.092-0.105c-0.513-0.599-1.026-1.197-1.54-1.795c-0.038-0.044-0.066-0.102-0.139-0.128
			c-0.345,0.295-0.695,0.593-1.044,0.892c-0.235,0.201-0.204,0.24-0.443-0.038c-0.057-0.066-0.111-0.134-0.169-0.198
			c-0.07-0.076-0.057-0.143,0.016-0.206c0.106-0.092,0.213-0.183,0.319-0.274c0.857-0.735,1.714-1.47,2.572-2.205
			c0.03-0.026,0.061-0.052,0.092-0.077c0.056-0.045,0.111-0.043,0.159,0.012c0.11,0.126,0.218,0.253,0.326,0.38
			c0.058,0.069,0.023,0.124-0.031,0.172c-0.09,0.08-0.182,0.157-0.274,0.235c-0.254,0.217-0.509,0.433-0.761,0.651
			C13.688,9.464,13.627,9.499,13.597,9.57z"/>
		<path style="fill:#FFFFFF;" d="M51.068,53.928c0.361-0.309,0.705-0.605,1.05-0.9c0.046-0.039,0.093-0.076,0.138-0.117
			c0.073-0.066,0.137-0.069,0.203,0.012c0.088,0.109,0.184,0.212,0.272,0.321c0.089,0.109,0.088,0.138-0.017,0.232
			c-0.15,0.133-0.305,0.26-0.457,0.391c-0.812,0.695-1.623,1.391-2.435,2.087c-0.161,0.138-0.162,0.137-0.3-0.019
			c-0.075-0.085-0.15-0.171-0.222-0.259c-0.09-0.111-0.09-0.14,0.013-0.233c0.133-0.121,0.273-0.236,0.41-0.354
			c0.248-0.213,0.496-0.426,0.755-0.649c-0.069-0.082-0.131-0.158-0.195-0.233c-0.487-0.568-0.974-1.136-1.461-1.704
			c-0.03-0.036-0.06-0.071-0.091-0.107c-0.059-0.069-0.053-0.129,0.018-0.188c0.123-0.102,0.242-0.21,0.366-0.312
			c0.107-0.087,0.134-0.084,0.23,0.027c0.224,0.257,0.444,0.517,0.666,0.775C50.36,53.103,50.708,53.508,51.068,53.928z"/>
		<path style="fill:#FFFFFF;" d="M32.846,2.2c0.825,0.065,1.65,0.131,2.475,0.196c0.366,0.029,0.732,0.052,1.098,0.082
			c0.181,0.015,0.193,0.034,0.178,0.209c-0.01,0.113-0.019,0.226-0.029,0.339c-0.014,0.158-0.042,0.184-0.2,0.172
			c-0.433-0.032-0.865-0.067-1.298-0.101c-0.04-0.003-0.08-0.003-0.12-0.009c-0.081-0.012-0.101,0.028-0.106,0.101
			c-0.02,0.286-0.047,0.572-0.069,0.858c-0.043,0.553-0.085,1.105-0.127,1.658c-0.013,0.172-0.038,0.193-0.209,0.177
			c-0.12-0.011-0.239-0.021-0.359-0.03c-0.199-0.014-0.211-0.024-0.199-0.231c0.014-0.247,0.032-0.493,0.052-0.739
			c0.045-0.572,0.093-1.145,0.139-1.717c0.012-0.147,0.012-0.146-0.149-0.158c-0.446-0.033-0.892-0.064-1.338-0.102
			c-0.198-0.017-0.199-0.024-0.189-0.218c0.007-0.127,0.019-0.253,0.029-0.379c0.008-0.102,0.065-0.138,0.162-0.128
			c0.086,0.01,0.173,0.017,0.259,0.026C32.846,2.204,32.846,2.202,32.846,2.2z"/>
		<path style="fill:#FFFFFF;" d="M58.704,33.869c0.719,0.055,1.438,0.111,2.157,0.166c0.133,0.01,0.137,0.01,0.151-0.135
			c0.023-0.246,0.041-0.492,0.06-0.739c0.016-0.213,0.029-0.426,0.048-0.639c0.014-0.154,0.033-0.172,0.185-0.166
			c0.133,0.005,0.267,0.015,0.399,0.03c0.135,0.015,0.146,0.026,0.138,0.164c-0.016,0.293-0.039,0.586-0.061,0.879
			c-0.048,0.619-0.097,1.238-0.145,1.857c-0.029,0.373-0.056,0.746-0.085,1.118c-0.011,0.139-0.038,0.162-0.173,0.154
			c-0.127-0.008-0.253-0.02-0.379-0.03c-0.155-0.013-0.176-0.029-0.168-0.181c0.013-0.26,0.035-0.52,0.055-0.779
			c0.016-0.206,0.036-0.412,0.053-0.618c0.011-0.132,0.011-0.134-0.119-0.144c-0.532-0.041-1.065-0.08-1.597-0.12
			c-0.3-0.023-0.599-0.046-0.898-0.073c-0.183-0.017-0.186-0.021-0.176-0.21c0.008-0.147,0.026-0.293,0.036-0.439
			c0.006-0.09,0.048-0.133,0.141-0.124C58.451,33.852,58.577,33.859,58.704,33.869C58.704,33.869,58.704,33.869,58.704,33.869z"/>
		<path style="fill:#FFFFFF;" d="M54.473,13.546c-0.235,0.2-0.463,0.393-0.691,0.588c-0.431,0.369-0.862,0.74-1.294,1.109
			c-0.157,0.134-0.164,0.132-0.301-0.027c-0.087-0.101-0.176-0.201-0.26-0.305c-0.079-0.098-0.077-0.137,0.016-0.22
			c0.134-0.121,0.274-0.235,0.411-0.352c0.497-0.426,0.995-0.852,1.492-1.278c0.115-0.098,0.116-0.101,0.02-0.213
			c-0.272-0.321-0.546-0.64-0.82-0.96c-0.03-0.036-0.062-0.07-0.09-0.107c-0.082-0.108-0.083-0.125,0.016-0.216
			c0.103-0.095,0.21-0.186,0.32-0.274c0.105-0.084,0.125-0.082,0.214,0.02c0.267,0.308,0.532,0.617,0.797,0.927
			c0.561,0.654,1.122,1.309,1.683,1.963c0.026,0.03,0.053,0.061,0.078,0.092c0.04,0.05,0.038,0.101-0.009,0.142
			c-0.131,0.114-0.263,0.227-0.396,0.338c-0.049,0.041-0.1,0.03-0.143-0.014c-0.046-0.048-0.091-0.098-0.134-0.149
			C55.082,14.258,54.782,13.908,54.473,13.546z"/>
		<path style="fill:#FFFFFF;" d="M42.703,5.697c0.108,0.005,0.196,0.108,0.186,0.216c-0.009,0.1-0.105,0.185-0.203,0.18
			c-0.109-0.006-0.193-0.105-0.184-0.217C42.511,5.772,42.601,5.692,42.703,5.697z"/>
		<path style="fill:#FFFFFF;" d="M6.026,43.144c-0.107,0-0.205-0.101-0.199-0.206c0.005-0.099,0.097-0.188,0.196-0.189
			c0.11-0.001,0.201,0.094,0.196,0.205C6.215,43.057,6.126,43.144,6.026,43.144z"/>
		<path style="fill:#FFFFFF;" d="M58.153,42.871c-0.102,0-0.192-0.085-0.198-0.185c-0.006-0.103,0.094-0.207,0.198-0.207
			c0.099,0,0.189,0.088,0.194,0.189C58.353,42.78,58.266,42.871,58.153,42.871z"/>
		<path style="fill:#FFFFFF;" d="M21.112,5.811c0.103,0.005,0.185,0.091,0.185,0.195c0,0.11-0.097,0.204-0.205,0.197
			c-0.099-0.006-0.188-0.099-0.188-0.197C20.904,5.898,21.002,5.806,21.112,5.811z"/>
		<path style="fill:#FFFFFF;" d="M21.38,57.942c0.102,0.004,0.189,0.093,0.19,0.192c0.001,0.106-0.101,0.205-0.206,0.2
			c-0.1-0.005-0.188-0.096-0.189-0.196C21.175,58.028,21.268,57.937,21.38,57.942z"/>
		<path style="fill:#FFFFFF;" d="M6.035,20.845c0.11-0.005,0.207,0.086,0.206,0.194c-0.001,0.1-0.087,0.189-0.188,0.193
			c-0.104,0.005-0.192-0.072-0.201-0.175C5.841,20.943,5.921,20.85,6.035,20.845z"/>
		<path style="fill:#FFFFFF;" d="M42.971,57.827c0.111,0.004,0.193,0.099,0.185,0.214c-0.008,0.105-0.095,0.185-0.198,0.181
			c-0.11-0.004-0.194-0.101-0.185-0.214C42.781,57.904,42.869,57.823,42.971,57.827z"/>
		<path style="fill:#FFFFFF;" d="M58.233,21.082c0.001,0.114-0.09,0.204-0.199,0.199c-0.102-0.005-0.183-0.091-0.184-0.196
			c-0.001-0.113,0.088-0.201,0.201-0.196C58.155,20.893,58.233,20.975,58.233,21.082z"/>
		<path style="fill:#FFFFFF;" d="M20.395,39.627c-0.217,0.621-0.566,1.147-1.11,1.531c-0.569,0.401-1.206,0.557-1.894,0.521
			c-1.457-0.077-2.887-1.061-3.433-2.737c-0.437-1.344-0.238-2.617,0.51-3.798c0.793-1.252,1.948-1.986,3.397-2.267
			c0.323-0.063,0.649-0.082,0.977-0.082c3.462,0.001,6.923,0.001,10.385,0c0.281,0,0.245,0.039,0.247-0.241
			c0.002-0.374,0.001-0.748,0-1.123c0-0.213,0.014-0.188-0.198-0.19c-0.04,0-0.08,0-0.12,0c-3.428,0-6.857-0.001-10.285,0.001
			c-0.842,0-1.649-0.16-2.398-0.547c-1.528-0.789-2.459-2.033-2.705-3.74c-0.252-1.748,0.736-3.971,3.018-4.515
			c1.006-0.24,1.939-0.068,2.739,0.624c0.42,0.363,0.691,0.826,0.867,1.349c-0.013,0.026-0.029,0.048-0.062,0.048
			c-0.336-0.438-0.741-0.792-1.261-0.989c-0.915-0.347-1.762-0.19-2.526,0.401c-0.552,0.427-0.904,1-1.063,1.677
			c-0.151,0.645-0.068,1.283,0.215,1.877c0.568,1.191,1.525,1.857,2.835,2.014c0.16,0.019,0.32,0.021,0.48,0.021
			c3.408-0.001,6.817,0,10.225-0.001c0.269,0,0.237,0.031,0.237-0.231c0.001-3.448,0.007-6.897-0.003-10.345
			c-0.004-1.316-0.577-2.342-1.701-3.035c-0.635-0.392-1.341-0.546-2.077-0.411c-1.106,0.203-2.284,1.117-2.381,2.567
			c-0.044,0.663,0.182,1.246,0.593,1.762c0.189,0.236,0.415,0.433,0.655,0.617c-0.043,0.046-0.081,0.014-0.118,0.001
			c-1.135-0.397-1.858-1.158-2.04-2.368c-0.135-0.897,0.085-1.727,0.583-2.478c0.639-0.965,1.555-1.528,2.679-1.741
			c1.437-0.273,2.701,0.147,3.8,1.066c1.005,0.841,1.567,1.94,1.743,3.238c0.038,0.279,0.053,0.558,0.054,0.839
			c0,3.422,0,6.843,0.001,10.265c0,0.295-0.03,0.254,0.256,0.255c0.381,0.002,0.762,0.001,1.143,0
			c0.143-0.001,0.145-0.003,0.146-0.141c0.002-0.307,0.001-0.615,0.001-0.922c0-3.208-0.002-6.416,0.001-9.623
			c0.001-1.219,0.383-2.312,1.151-3.258c0.844-1.039,1.942-1.654,3.271-1.782c1.686-0.162,3.471,0.722,4.179,2.427
			c0.324,0.779,0.41,1.576,0.132,2.385c-0.335,0.972-1.04,1.557-2.001,1.861c-0.011,0.004-0.026-0.004-0.044-0.007
			c0.041-0.075,0.116-0.111,0.176-0.161c0.47-0.389,0.83-0.856,0.984-1.452c0.246-0.946,0-1.778-0.672-2.47
			c-0.63-0.649-1.402-0.999-2.324-0.907c-1.194,0.119-2.067,0.74-2.651,1.773c-0.284,0.503-0.416,1.049-0.415,1.631
			c0.003,3.482,0.002,6.964,0.002,10.445c0,0.04,0.001,0.08,0.001,0.12c-0.001,0.061,0.032,0.082,0.089,0.08
			c0.04-0.001,0.08,0,0.12,0c3.455,0,6.91,0.013,10.365-0.006c1.44-0.008,2.512-0.683,3.172-1.973
			c0.277-0.543,0.383-1.136,0.279-1.734c-0.138-0.798-0.53-1.468-1.198-1.946c-1.073-0.768-2.399-0.656-3.345,0.27
			c-0.114,0.112-0.219,0.232-0.328,0.349c-0.025,0-0.051,0.001-0.076,0.001c0.291-1.072,1.278-1.904,2.381-2.049
			c1.387-0.183,2.92,0.552,3.694,1.914c0.452,0.795,0.654,1.654,0.565,2.561c-0.095,0.967-0.472,1.832-1.104,2.574
			c-0.879,1.032-2.002,1.616-3.346,1.783c-0.253,0.031-0.506,0.036-0.76,0.036c-3.422,0.001-6.843,0.001-10.265,0.001
			c-0.242,0-0.242,0-0.242,0.246c0,0.388-0.001,0.775,0.001,1.163c0.001,0.142,0.003,0.142,0.143,0.145c0.04,0.001,0.08,0,0.12,0
			c3.468,0,6.937,0,10.405,0c1.139,0,2.173,0.331,3.085,1.009c1.079,0.802,1.728,1.876,1.938,3.206
			c0.22,1.394-0.365,3.154-1.816,4.074c-0.854,0.541-1.782,0.759-2.776,0.497c-1.091-0.287-1.735-1.038-2.041-2.107
			c0.059,0.073,0.118,0.146,0.178,0.217c0.392,0.468,0.866,0.818,1.464,0.964c0.96,0.234,1.785-0.048,2.474-0.728
			c0.473-0.467,0.784-1.038,0.856-1.704c0.096-0.885-0.161-1.679-0.723-2.368c-0.554-0.68-1.276-1.083-2.137-1.237
			c-0.19-0.034-0.384-0.045-0.579-0.045c-3.462,0.001-6.923,0-10.385,0c-0.033,0-0.067,0.003-0.1,0
			c-0.075-0.007-0.114,0.02-0.108,0.101c0.003,0.04,0,0.08,0,0.12c0,3.455-0.001,6.91,0,10.365c0.001,1.216,0.502,2.184,1.487,2.889
			c0.679,0.486,1.453,0.708,2.276,0.545c1.443-0.284,2.461-1.499,2.384-2.846c-0.033-0.566-0.246-1.061-0.602-1.497
			c-0.166-0.203-0.354-0.382-0.563-0.54c-0.001-0.033,0.023-0.047,0.049-0.058c1.091,0.376,1.801,1.102,2.019,2.251
			c0.176,0.931-0.049,1.794-0.562,2.576c-0.652,0.994-1.597,1.555-2.753,1.763c-1.315,0.237-2.494-0.119-3.536-0.917
			c-1.18-0.905-1.814-2.126-1.963-3.603c-0.022-0.213-0.025-0.427-0.025-0.64c0-3.421,0-6.843-0.001-10.264
			c0-0.285,0.036-0.242-0.243-0.243c-0.388-0.002-0.775,0.002-1.163-0.003c-0.102-0.001-0.152,0.024-0.14,0.133
			c0.005,0.046,0.001,0.093,0.001,0.14c0,3.428-0.002,6.856,0.001,10.284c0.001,0.94-0.191,1.831-0.659,2.651
			c-0.793,1.39-1.976,2.251-3.562,2.492c-1.84,0.28-4.102-0.769-4.603-3.103c-0.34-1.586,0.452-3.013,2.005-3.518
			c0.038-0.012,0.075-0.028,0.128-0.01c-0.157,0.135-0.317,0.255-0.456,0.398c-0.436,0.45-0.722,0.972-0.787,1.604
			c-0.072,0.687,0.125,1.295,0.54,1.835c0.454,0.59,1.061,0.959,1.781,1.111c0.632,0.133,1.257,0.036,1.833-0.254
			c1.284-0.647,1.979-1.699,1.987-3.138c0.02-3.475,0.006-6.95,0.006-10.425c0-0.033-0.002-0.067,0-0.1
			c0.003-0.065-0.019-0.102-0.09-0.098c-0.04,0.002-0.08,0-0.12,0c-3.462,0-6.923-0.001-10.385,0
			c-1.45,0.001-2.727,0.867-3.254,2.188c-0.654,1.638,0.295,3.154,1.4,3.706c0.917,0.458,2.026,0.315,2.821-0.383
			c0.176-0.155,0.339-0.322,0.482-0.509C20.365,39.573,20.383,39.596,20.395,39.627z M32.806,32.024c0-0.22-0.004-0.441,0.002-0.661
			c0.003-0.098-0.033-0.124-0.127-0.123c-0.434,0.004-0.868,0.003-1.302,0.001c-0.082-0.001-0.121,0.021-0.12,0.111
			c0.003,0.447,0.002,0.895,0.001,1.342c0,0.078,0.031,0.104,0.108,0.103c0.441-0.002,0.881-0.004,1.322,0.001
			c0.107,0.001,0.119-0.047,0.118-0.133C32.803,32.451,32.806,32.238,32.806,32.024z"/>
		<path style="fill:#FFFFFF;" d="M39.627,43.652c-0.026,0.011-0.049,0.025-0.049,0.058c-0.062-0.012-0.102-0.051-0.143-0.114
			C39.517,43.588,39.575,43.607,39.627,43.652z"/>
		<path style="fill:#FFFFFF;" d="M20.395,39.627c-0.011-0.031-0.029-0.053-0.067-0.051c0.009-0.064,0.059-0.098,0.104-0.157
			C20.471,39.512,20.431,39.569,20.395,39.627z"/>
		<path style="fill:#FFFFFF;" d="M43.672,24.422c0.025,0,0.051-0.001,0.076-0.001c-0.021,0.056-0.059,0.1-0.102,0.143
			C43.612,24.507,43.646,24.465,43.672,24.422z"/>
		<path style="fill:#FFFFFF;" d="M20.331,24.461c0.033,0,0.049-0.022,0.062-0.048c0.034,0.049,0.062,0.099,0.048,0.174
			C20.375,24.564,20.35,24.515,20.331,24.461z"/>
		<path style="fill:#FFFFFF;" d="M32.806,32.024c0,0.214-0.002,0.427,0.001,0.641c0.001,0.086-0.011,0.134-0.118,0.133
			c-0.441-0.006-0.881-0.004-1.322-0.001c-0.077,0-0.108-0.025-0.108-0.103c0.002-0.447,0.002-0.895-0.001-1.342
			c-0.001-0.09,0.038-0.111,0.12-0.111c0.434,0.003,0.868,0.004,1.302-0.001c0.094-0.001,0.13,0.025,0.127,0.123
			C32.802,31.583,32.806,31.804,32.806,32.024z"/>
	</g>
</g>
</svg>
