<?xml version="1.0" encoding="utf-8"?>
<!-- Generator: Adobe Illustrator 23.0.2, SVG Export Plug-In . SVG Version: 6.00 Build 0)  -->
<svg version="1.1" id="Layer_1" xmlns="http://www.w3.org/2000/svg" xmlns:xlink="http://www.w3.org/1999/xlink" x="0px" y="0px"
	 width="64px" height="64px" viewBox="0 0 64 64" style="enable-background:new 0 0 64 64;" xml:space="preserve">
<g>
	<g>
		<path style="fill:#DC3004;" d="M42.561,63.944c-0.145,0.086-0.306,0.048-0.459,0.048c-12.093,0.002-24.187,0.002-36.28,0.002
			c-0.063,0-0.126-0.006-0.188,0.001c-0.214,0.023-0.328-0.051-0.306-0.285C5.34,63.6,5.33,63.49,5.33,63.381
			c0-20.933,0-41.865,0.001-62.798c0-0.652-0.064-0.581,0.572-0.581c4.959-0.001,9.919-0.001,14.878,0
			c0.25,0,0.499,0.017,0.749,0.027c-0.004,0.042-0.008,0.085-0.011,0.127c-0.074-0.013-0.163-0.044-0.17,0.076
			c-0.009,0.14-0.006,0.281-0.006,0.422c0,7.994,0,15.988,0,23.982c0,0.125-0.012,0.252,0.002,0.375
			c0.03,0.27-0.057,0.413-0.339,0.508c-0.829,0.279-1.644,0.6-2.463,0.907c-0.105,0.039-0.227,0.059-0.359,0.235
			c1.587,0,3.098,0,4.608,0c1.517,0,3.035-0.003,4.552,0.001c1.505,0.004,3.011-0.019,4.62,0.016
			c-0.205,0.215-0.328,0.35-0.457,0.479c-3.274,3.275-6.546,6.551-9.828,9.818c-0.239,0.238-0.347,0.469-0.346,0.814
			c0.012,5.006,0.008,10.012,0.008,15.018c0,0.094,0.006,0.188-0.001,0.282c-0.012,0.184,0.076,0.253,0.252,0.245
			c0.125-0.006,0.25,0,0.375,0c3.207,0,6.414,0.003,9.621-0.005c0.302-0.001,0.52,0.079,0.739,0.299
			c2.591,2.607,5.195,5.202,7.793,7.804c0.817,0.819,1.624,1.647,2.436,2.472L42.561,63.944z"/>
		<path style="fill:#DC2F02;" d="M21.519,0.157c0.004-0.042,0.008-0.085,0.011-0.127c0.171-0.009,0.342-0.026,0.513-0.026
			c12.014-0.001,24.027-0.001,36.041,0c0.665,0,0.564-0.068,0.579,0.573c0.005,0.203,0.003,0.407,0.003,0.61
			c0,20.68,0,41.359-0.002,62.039c0,0.217,0.035,0.438-0.033,0.652c-0.036,0.031-0.072,0.062-0.108,0.093
			c-0.171,0.008-0.342,0.022-0.513,0.022c-4.933,0.001-9.866,0.001-14.799,0c-0.218,0-0.438,0.024-0.65-0.049
			c0,0-0.004-0.039-0.004-0.039c0.189-0.142,0.098-0.345,0.098-0.517c0.005-7.182,0.005-14.364,0.005-21.546
			c0-0.939-0.001-1.878,0-2.816c0-0.432,0.002-0.432,0.421-0.588c0.835-0.311,1.67-0.621,2.504-0.932
			c0.092-0.034,0.215-0.034,0.24-0.205c-4.527,0-9.04,0-13.571,0c0.037-0.165,0.152-0.229,0.234-0.313
			c3.248-3.301,6.495-6.603,9.754-9.894c0.294-0.297,0.429-0.588,0.428-1.018c-0.016-4.96-0.01-9.92-0.011-14.88
			c0-0.594,0.061-0.536-0.519-0.536c-3.223-0.001-6.447-0.005-9.67,0.006c-0.338,0.001-0.578-0.089-0.82-0.332
			C28.394,7.06,25.127,3.8,21.863,0.536C21.742,0.416,21.633,0.283,21.519,0.157z"/>
		<path style="fill:#DC3004;" d="M58.523,63.97c0.036-0.031,0.072-0.062,0.108-0.093C58.641,63.96,58.596,63.981,58.523,63.97z"/>
	</g>
</g>
</svg>
