<?xml version="1.0" encoding="utf-8"?>
<!-- Generator: Adobe Illustrator 22.0.0, SVG Export Plug-In . SVG Version: 6.00 Build 0)  -->
<svg version="1.1" id="Camada_1" xmlns="http://www.w3.org/2000/svg" xmlns:xlink="http://www.w3.org/1999/xlink" x="0px" y="0px"
	 width="64px" height="64px" viewBox="0 0 64 64" enable-background="new 0 0 64 64" xml:space="preserve">
<g>
	<g>
		<path fill="#BB0202" d="M34.562,0c-0.002,0.688-0.004,1.376-0.005,2.063c-0.001,1.221-0.002,2.443,0.002,3.664
			c0,0.123-0.026,0.162-0.156,0.16c-0.523-0.008-1.045-0.009-1.568,0c-0.134,0.002-0.156-0.044-0.154-0.163
			c0.005-0.608-0.001-1.216,0.005-1.824c0.001-0.117-0.026-0.155-0.149-0.153c-0.485,0.008-0.971,0.007-1.456,0
			c-0.119-0.002-0.154,0.029-0.153,0.15c0.006,0.613-0.001,1.227,0.006,1.84c0.001,0.122-0.035,0.15-0.153,0.149
			c-0.523-0.007-1.045-0.008-1.568,0c-0.13,0.002-0.157-0.037-0.156-0.16C29.06,3.819,29.058,1.909,29.058,0
			c0.629,0,1.259,0,1.888,0c-0.034,0.638-0.006,1.276-0.016,1.913c-0.001,0.078,0.042,0.083,0.102,0.083
			c0.516-0.001,1.033-0.002,1.549,0.001c0.073,0,0.104-0.018,0.103-0.097C32.679,1.266,32.677,0.633,32.674,0
			C33.303,0,33.932,0,34.562,0z"/>
		<path fill="#BB0202" d="M31.394,64c-0.26-0.071-0.529-0.112-0.776-0.228c-1.023-0.481-1.647-1.276-1.779-2.399
			c-0.142-1.214,0.299-2.208,1.326-2.885c1.796-1.183,4.163-0.15,4.546,1.964c0.293,1.618-0.723,3.141-2.336,3.506
			c-0.06,0.014-0.13-0.009-0.181,0.043C31.927,64,31.66,64,31.394,64z M30.449,60.996c-0.002,0.261,0.047,0.508,0.157,0.744
			c0.398,0.855,1.527,1.046,2.134,0.343c0.422-0.488,0.474-1.065,0.286-1.666c-0.246-0.787-1.085-1.149-1.82-0.778
			C30.656,59.916,30.471,60.415,30.449,60.996z"/>
		<path fill="#BB0202" d="M39.906,0c-0.038,0.185-0.154,0.333-0.237,0.496c-0.162,0.317-0.339,0.627-0.503,0.943
			c-0.048,0.092-0.104,0.127-0.21,0.125c-0.485-0.006-0.971,0-1.456-0.005c-0.104-0.001-0.141,0.027-0.133,0.133
			c0.009,0.117,0.012,0.236-0.001,0.352c-0.014,0.129,0.041,0.146,0.154,0.145c0.645-0.005,1.291,0.001,1.936-0.005
			c0.141-0.001,0.154,0.029,0.083,0.146c-0.239,0.396-0.473,0.795-0.703,1.197c-0.041,0.072-0.087,0.092-0.164,0.091
			c-0.389-0.003-0.779,0.002-1.168-0.004c-0.102-0.002-0.14,0.023-0.133,0.13c0.01,0.149,0.011,0.299,0,0.448
			c-0.009,0.118,0.038,0.137,0.144,0.137c0.821-0.004,1.642-0.002,2.474-0.002c-0.014,0.129-0.096,0.222-0.151,0.326
			c-0.202,0.381-0.41,0.758-0.61,1.139c-0.038,0.073-0.081,0.096-0.16,0.096c-1.152-0.002-2.304-0.004-3.456,0.002
			c-0.14,0.001-0.121-0.075-0.121-0.16c0-1.888,0-3.776,0-5.663c0-0.021-0.001-0.043-0.001-0.064C36.962,0,38.434,0,39.906,0z"/>
		<path fill="#BB0202" d="M20.258,64c-0.291-0.076-0.588-0.132-0.86-0.275c-0.63-0.331-1.024-0.83-1.138-1.541
			c-0.016-0.103,0-0.137,0.112-0.144c0.463-0.03,0.925-0.069,1.386-0.111c0.096-0.009,0.125,0.022,0.15,0.111
			c0.134,0.476,0.553,0.699,1.021,0.546c0.14-0.046,0.262-0.127,0.289-0.289c0.027-0.164-0.041-0.291-0.178-0.381
			c-0.238-0.156-0.506-0.246-0.769-0.345c-0.373-0.14-0.75-0.273-1.093-0.48c-0.569-0.344-0.857-0.838-0.809-1.514
			c0.045-0.635,0.389-1.072,0.945-1.317c0.875-0.384,1.759-0.405,2.603,0.105c0.521,0.315,0.82,0.791,0.931,1.388
			c0.017,0.093-0.006,0.133-0.108,0.14c-0.463,0.031-0.925,0.069-1.387,0.106c-0.08,0.006-0.118-0.006-0.14-0.099
			c-0.095-0.408-0.449-0.61-0.855-0.497c-0.146,0.041-0.259,0.13-0.291,0.287c-0.032,0.157,0.026,0.285,0.156,0.375
			c0.248,0.172,0.536,0.255,0.817,0.352c0.377,0.129,0.759,0.248,1.102,0.457c0.58,0.354,0.839,0.876,0.769,1.549
			c-0.067,0.633-0.428,1.057-0.985,1.336c-0.255,0.128-0.534,0.168-0.804,0.241C20.834,64,20.546,64,20.258,64z"/>
		<path fill="#BB0202" d="M47.874,64c-0.274-0.076-0.557-0.125-0.815-0.256c-0.651-0.33-1.059-0.837-1.175-1.568
			c-0.015-0.092-0.002-0.129,0.105-0.136c0.468-0.03,0.935-0.069,1.402-0.111c0.09-0.008,0.114,0.021,0.138,0.104
			c0.135,0.476,0.549,0.699,1.018,0.554c0.143-0.044,0.263-0.125,0.292-0.285c0.029-0.162-0.032-0.293-0.17-0.385
			c-0.224-0.148-0.476-0.234-0.724-0.328c-0.403-0.152-0.81-0.296-1.18-0.52c-0.79-0.477-1.025-1.461-0.521-2.233
			c0.259-0.396,0.653-0.614,1.104-0.732c0.557-0.146,1.118-0.173,1.669,0.012c0.749,0.251,1.248,0.751,1.434,1.534
			c0.054,0.228,0.046,0.232-0.179,0.249c-0.425,0.032-0.85,0.062-1.275,0.1c-0.104,0.009-0.144-0.017-0.17-0.125
			c-0.094-0.4-0.497-0.604-0.886-0.456c-0.138,0.053-0.234,0.151-0.258,0.299c-0.023,0.146,0.044,0.26,0.159,0.344
			c0.236,0.172,0.514,0.252,0.785,0.345c0.407,0.14,0.819,0.268,1.188,0.498c1.058,0.661,0.91,2.167-0.05,2.737
			c-0.298,0.177-0.614,0.287-0.956,0.334c-0.025,0.003-0.048,0.017-0.072,0.026C48.45,64,48.162,64,47.874,64z"/>
		<path fill="#BA0000" d="M28.514,0c-0.035,0.291-0.009,0.584-0.015,0.876c-0.005,0.245-0.007,0.49,0.002,0.735
			c0.004,0.121-0.024,0.165-0.156,0.162c-0.431-0.009-0.863,0.002-1.295-0.007c-0.137-0.003-0.178,0.027-0.177,0.173
			c0.007,1.252,0,2.505,0.009,3.757c0.001,0.17-0.05,0.197-0.203,0.195c-0.511-0.01-1.023-0.008-1.535,0
			c-0.124,0.002-0.147-0.036-0.147-0.152c0.004-1.263,0-2.526,0.006-3.789c0.001-0.146-0.035-0.187-0.183-0.183
			c-0.437,0.01-0.874,0.003-1.311,0.004c-0.065,0-0.124,0.011-0.122-0.092c0.007-0.549,0.008-1.097,0.011-1.646
			c1.624,0,3.247,0,4.871-0.001c0.061,0,0.129,0.024,0.182-0.031C28.471,0,28.492,0,28.514,0z"/>
		<path fill="#BB0202" d="M60.994,62.656c-0.011-0.003-0.021-0.006-0.032-0.009c0-20.422,0-40.844,0-61.266
			c0.011-0.002,0.021-0.004,0.032-0.006C60.994,21.803,60.994,42.229,60.994,62.656z"/>
		<path fill="#BA0000" d="M3.01,32c0-10.144,0-20.288-0.003-30.431c0-0.154,0.027-0.201,0.194-0.201
			c5.104,0.005,10.208,0.005,15.312,0c0.162,0,0.212,0.053,0.249,0.203c0.242,0.998,0.495,1.994,0.748,2.99
			c0.027,0.106,0.018,0.153-0.102,0.138c-0.037-0.005-0.075-0.001-0.112-0.001c-4.261,0-8.523,0.001-12.784-0.004
			c-0.147,0-0.18,0.039-0.18,0.182c0.003,18.09,0.004,36.181-0.001,54.271c0,0.171,0.052,0.194,0.203,0.193
			c1.696-0.005,3.392-0.001,5.088-0.007c0.152,0,0.172,0.032,0.136,0.176c-0.244,0.986-0.481,1.974-0.715,2.962
			c-0.033,0.141-0.084,0.193-0.242,0.192c-2.539-0.006-5.077-0.006-7.616-0.001c-0.15,0-0.179-0.042-0.179-0.184
			C3.01,52.319,3.01,42.159,3.01,32z"/>
		<path fill="#BA0000" d="M60.962,1.382c0,20.422,0,40.844,0,61.266c-0.058,0.004-0.116,0.011-0.174,0.011
			c-2.533,0.001-5.066-0.001-7.599,0.004c-0.145,0-0.199-0.043-0.232-0.182c-0.234-0.994-0.473-1.987-0.722-2.978
			c-0.041-0.163,0.012-0.168,0.144-0.168c1.696,0.003,3.392,0,5.087,0.006c0.152,0,0.203-0.023,0.203-0.194
			c-0.005-18.089-0.005-36.178-0.001-54.266c0-0.16-0.045-0.186-0.193-0.186c-4.272,0.004-8.543,0.003-12.815,0.003
			c-0.208,0-0.203,0.001-0.15-0.206c0.205-0.81,0.406-1.622,0.608-2.433c0.046-0.186,0.097-0.371,0.135-0.559
			c0.021-0.106,0.073-0.13,0.175-0.13c0.816,0.004,1.632,0.002,2.448,0.002c4.298,0,8.596,0,12.895,0
			C60.835,1.372,60.898,1.379,60.962,1.382z"/>
		<path fill="#BA0000" d="M36.219,50.681c0,0.08,0,0.137,0,0.193c0,0.779-0.002,1.557,0.002,2.336
			c0.001,0.108-0.023,0.146-0.139,0.146c-1.008-0.004-2.016-0.004-3.024,0c-0.109,0-0.13-0.036-0.13-0.136
			c0.002-2.474,0.003-4.949-0.001-7.423c0-0.118,0.039-0.137,0.145-0.137c1.152,0.004,2.304,0.004,3.456-0.001
			c0.111,0,0.154,0.04,0.195,0.136c0.753,1.776,2.016,3.043,3.802,3.778c1.364,0.561,2.775,0.663,4.2,0.306
			c1.91-0.479,3.362-1.592,4.355-3.294c0.299-0.512,0.521-1.058,0.668-1.634c0.009-0.035,0.013-0.071,0.021-0.117
			c-0.072,0-0.136,0-0.2,0c-5.482,0-10.964-0.001-16.447,0.004c-0.164,0-0.2-0.042-0.196-0.2c0.02-0.735-0.031-1.472,0.033-2.207
			c0.247-2.826,1.447-5.165,3.602-7.009c1.352-1.156,2.914-1.884,4.656-2.222c0.597-0.116,1.202-0.174,1.812-0.174
			c3.354,0.001,6.709,0.001,10.063-0.003c0.13,0,0.168,0.026,0.167,0.163c-0.005,2.458-0.005,4.917,0,7.375
			c0,0.139-0.042,0.163-0.17,0.163c-0.981-0.005-1.962-0.006-2.944,0c-0.138,0.001-0.178-0.029-0.177-0.173
			c0.006-1.355,0.002-2.709,0.007-4.064c0-0.135-0.024-0.179-0.172-0.179c-2.197,0.006-4.394,0.009-6.591,0.002
			c-1.367-0.004-2.634,0.334-3.789,1.068c-1.138,0.724-1.996,1.697-2.569,2.92c-0.174,0.372-0.311,0.756-0.419,1.153
			c-0.027,0.099,0,0.112,0.082,0.106c0.037-0.002,0.075,0,0.112,0c5.477,0,10.954,0.001,16.43-0.004c0.172,0,0.207,0.049,0.204,0.21
			c-0.012,0.613,0.01,1.227-0.016,1.839c-0.096,2.218-0.838,4.199-2.222,5.936c-1.003,1.259-2.241,2.222-3.7,2.896
			c-0.973,0.45-1.995,0.73-3.062,0.853c-0.966,0.112-1.927,0.087-2.883-0.076c-1.17-0.199-2.272-0.594-3.303-1.184
			c-0.644-0.368-1.244-0.799-1.792-1.3C36.273,50.715,36.255,50.706,36.219,50.681z"/>
		<path fill="#BA0000" d="M13.422,27.652c-0.201-0.246-0.39-0.467-0.567-0.696c-0.862-1.119-1.466-2.364-1.809-3.735
			c-0.204-0.816-0.3-1.644-0.299-2.484c0.001-3.312,0.001-6.624-0.003-9.936c0-0.151,0.03-0.194,0.188-0.193
			c0.976,0.008,1.952,0.008,2.928,0c0.146-0.001,0.172,0.042,0.171,0.177c-0.004,2.72-0.002,5.44-0.007,8.16
			c0,0.155,0.039,0.191,0.193,0.191c4.4-0.004,8.8-0.004,13.2-0.004c0.18,0,0.182-0.001,0.132-0.177
			c-0.551-1.901-1.695-3.327-3.436-4.267c-1.009-0.545-2.094-0.795-3.238-0.794c-0.491,0.001-0.981-0.003-1.472,0.003
			c-0.106,0.001-0.134-0.029-0.133-0.134c0.004-1.008,0.003-2.016,0-3.024c0-0.093,0.018-0.132,0.122-0.13
			c0.815,0.015,1.632-0.03,2.446,0.043c1.101,0.099,2.157,0.373,3.169,0.82c1.037,0.458,1.969,1.073,2.801,1.841
			c0.865,0.798,1.569,1.718,2.116,2.76c0.524,0.998,0.87,2.055,1.038,3.17c0.072,0.48,0.118,0.963,0.117,1.449
			c-0.002,3.355-0.004,6.709,0,10.064c0,0.154-0.036,0.192-0.19,0.191c-0.981-0.008-1.963-0.007-2.944-0.001
			c-0.136,0.001-0.163-0.04-0.163-0.169c0.004-2.725,0.002-5.45,0.007-8.176c0-0.154-0.036-0.192-0.191-0.192
			c-4.395,0.005-8.789,0.004-13.184,0.004c-0.183,0-0.187,0.001-0.138,0.179c0.375,1.35,1.096,2.482,2.156,3.398
			c0.883,0.763,1.899,1.266,3.038,1.513c0.433,0.094,0.871,0.156,1.316,0.147c0.111-0.002,0.143,0.029,0.142,0.142
			c-0.005,1.003-0.005,2.005,0.001,3.008c0.001,0.126-0.04,0.146-0.154,0.146c-3.291-0.003-6.581-0.003-9.872,0
			c-0.124,0-0.159-0.029-0.159-0.156c0.006-0.997,0.006-1.995,0-2.992c-0.001-0.123,0.035-0.148,0.152-0.148
			C11.727,27.654,12.559,27.652,13.422,27.652z"/>
		<path fill="#BA0000" d="M50.579,13.895c1.913,2.167,2.831,4.664,2.659,7.524c-0.144,2.391-1.045,4.485-2.676,6.24
			c-1.897,2.042-4.257,3.148-7.04,3.267c-2.775,0.119-5.202-0.802-7.284-2.645c-0.04,0.066-0.023,0.125-0.023,0.181
			c-0.001,0.773-0.003,1.547,0.001,2.32c0.001,0.118-0.019,0.164-0.154,0.163c-0.997-0.007-1.995-0.006-2.992,0
			c-0.126,0.001-0.145-0.039-0.145-0.153c0.003-6.677,0.003-13.355,0-20.032c0-0.118,0.026-0.152,0.148-0.151
			c0.987,0.005,1.973,0.006,2.96,0c0.146-0.001,0.185,0.036,0.184,0.184c-0.004,3.28,0.005,6.56-0.007,9.84
			c-0.006,1.703,0.507,3.215,1.586,4.529c0.729,0.887,1.634,1.546,2.699,1.983c1.093,0.449,2.23,0.603,3.399,0.465
			c1.366-0.162,2.582-0.69,3.635-1.581c1.035-0.876,1.756-1.962,2.151-3.257c0.41-1.347,0.408-2.702-0.016-4.045
			c-0.479-1.519-1.385-2.734-2.699-3.635c-1.123-0.77-2.371-1.164-3.732-1.191c-0.124-0.002-0.147-0.041-0.146-0.156
			c0.004-0.992,0.005-1.984,0-2.976c-0.001-0.126,0.033-0.159,0.159-0.159c3.285,0.004,6.571,0.004,9.856-0.001
			c0.138,0,0.164,0.041,0.163,0.17c-0.005,0.981-0.006,1.963,0,2.944c0.001,0.135-0.025,0.179-0.171,0.177
			C52.268,13.891,51.441,13.895,50.579,13.895z"/>
		<path fill="#BA0000" d="M28.39,50.076c0.086,0,0.137,0,0.188,0c0.779,0,1.557,0.002,2.336-0.002
			c0.116-0.001,0.165,0.016,0.164,0.152c-0.007,0.997-0.005,1.995-0.001,2.992c0,0.108-0.024,0.145-0.139,0.145
			c-3.296-0.003-6.592-0.003-9.887,0c-0.114,0-0.142-0.036-0.142-0.145c0.004-1.003,0.003-2.005,0-3.008
			c0-0.1,0.021-0.134,0.131-0.137c2.073-0.066,3.792-0.887,5.138-2.461c0.805-0.942,1.304-2.035,1.51-3.261
			c0.179-1.065,0.122-2.114-0.196-3.145c-0.479-1.557-1.399-2.794-2.744-3.713c-0.905-0.617-1.904-0.993-2.99-1.124
			c-1.288-0.155-2.529,0.026-3.71,0.574c-1.371,0.635-2.427,1.616-3.163,2.934c-0.581,1.04-0.86,2.16-0.861,3.35
			c-0.001,3.312-0.002,6.624,0.004,9.935c0,0.173-0.051,0.204-0.211,0.203c-0.971-0.007-1.941-0.006-2.912,0
			c-0.134,0.001-0.167-0.035-0.167-0.167c0.003-6.666,0.004-13.333-0.001-19.999c0-0.146,0.042-0.173,0.178-0.172
			c0.987,0.006,1.973,0.005,2.96,0c0.118-0.001,0.152,0.027,0.151,0.149c-0.006,0.784-0.003,1.568-0.003,2.352
			c0,0.052,0,0.104,0,0.188c2.044-1.815,4.407-2.74,7.118-2.677c2.708,0.063,5.043,1.069,6.955,2.985
			c1.912,1.916,2.912,4.254,2.97,6.962C31.123,45.682,30.202,48.036,28.39,50.076z"/>
		<path fill="#BB0202" d="M35.52,60.998c0-0.907,0.002-1.813-0.003-2.72c-0.001-0.125,0.019-0.172,0.16-0.171
			c0.864,0.008,1.728-0.004,2.592,0.008c0.618,0.008,1.159,0.222,1.572,0.697c0.659,0.759,0.704,2.137-0.477,2.832
			c-0.11,0.065-0.117,0.107-0.054,0.211c0.376,0.624,0.746,1.252,1.117,1.88c0.026,0.043,0.081,0.089,0.049,0.139
			c-0.026,0.042-0.089,0.017-0.135,0.017c-0.501,0.001-1.003-0.001-1.504,0.003c-0.094,0.001-0.15-0.021-0.201-0.111
			c-0.302-0.538-0.616-1.069-0.919-1.607c-0.055-0.097-0.115-0.13-0.225-0.128c-0.337,0.006-0.337,0.002-0.337,0.344
			c0,0.453-0.004,0.907,0.003,1.36c0.001,0.111-0.027,0.144-0.141,0.143c-0.453-0.006-0.907-0.006-1.36,0
			c-0.115,0.002-0.141-0.036-0.14-0.145C35.522,62.832,35.52,61.915,35.52,60.998z M37.099,60.105c0,0.17,0.004,0.341-0.002,0.511
			c-0.003,0.092,0.016,0.134,0.121,0.131c0.255-0.008,0.511,0.004,0.767-0.006c0.381-0.014,0.641-0.276,0.642-0.634
			c0.002-0.366-0.26-0.632-0.648-0.646c-0.255-0.009-0.511,0.002-0.767-0.004c-0.095-0.002-0.118,0.033-0.115,0.12
			C37.103,59.754,37.099,59.93,37.099,60.105z"/>
		<path fill="#BB0202" d="M23.63,60.992c0-0.912,0.001-1.823-0.002-2.735c0-0.101,0.008-0.15,0.133-0.149
			c0.816,0.007,1.631-0.005,2.447,0.008c0.577,0.009,1.096,0.191,1.524,0.596c0.938,0.888,0.801,2.915-0.83,3.403
			c-0.274,0.082-0.552,0.115-0.835,0.118c-0.219,0.003-0.437,0.007-0.656-0.002c-0.117-0.005-0.154,0.026-0.152,0.148
			c0.008,0.453-0.002,0.906,0.006,1.359c0.002,0.13-0.038,0.159-0.161,0.157c-0.442-0.007-0.885-0.007-1.327,0
			c-0.122,0.002-0.151-0.034-0.151-0.153C23.632,62.825,23.63,61.909,23.63,60.992z M25.211,60.161c0,0.197,0.002,0.394-0.001,0.59
			c-0.001,0.063,0.011,0.099,0.086,0.097c0.255-0.007,0.511,0.006,0.765-0.015c0.349-0.029,0.576-0.287,0.588-0.638
			c0.013-0.35-0.195-0.616-0.541-0.682c-0.258-0.049-0.52-0.008-0.78-0.024c-0.106-0.007-0.123,0.038-0.12,0.129
			C25.215,59.799,25.211,59.98,25.211,60.161z"/>
		<path fill="#BB0202" d="M17.68,58.125c-0.111,0.219-0.218,0.431-0.326,0.642c-0.106,0.208-0.222,0.413-0.318,0.626
			c-0.045,0.099-0.099,0.128-0.204,0.127c-0.533-0.006-1.066,0.002-1.6-0.006c-0.124-0.002-0.156,0.035-0.149,0.153
			c0.01,0.159,0.01,0.32,0,0.48c-0.008,0.12,0.029,0.153,0.15,0.151c0.656-0.006,1.312-0.003,1.968-0.003
			c0.173,0,0.173,0,0.09,0.153c-0.19,0.351-0.383,0.7-0.567,1.054c-0.045,0.086-0.099,0.107-0.188,0.107
			c-0.432-0.003-0.864,0.004-1.296-0.005c-0.131-0.003-0.163,0.039-0.157,0.162c0.01,0.186,0.012,0.374-0.001,0.56
			c-0.009,0.14,0.045,0.164,0.172,0.163c0.778-0.006,1.557-0.003,2.335-0.003c0.052,0,0.104,0,0.179,0
			c-0.153,0.303-0.295,0.587-0.438,0.87c-0.072,0.142-0.15,0.281-0.217,0.426c-0.036,0.077-0.078,0.111-0.168,0.111
			c-1.125-0.003-2.25-0.003-3.375,0c-0.098,0-0.126-0.028-0.126-0.126c0.003-1.845,0.002-3.69,0.001-5.535
			c0-0.081,0.007-0.124,0.108-0.124c1.354,0.003,2.709,0.002,4.063,0.003C17.631,58.112,17.646,58.118,17.68,58.125z"/>
		<path fill="#BB0202" d="M43.176,58.111c0.762,0,1.524,0.002,2.286-0.003c0.108-0.001,0.145,0.02,0.143,0.137
			c-0.008,0.426-0.007,0.853,0,1.279c0.002,0.109-0.024,0.145-0.139,0.143c-0.442-0.007-0.885,0.002-1.327-0.006
			c-0.127-0.002-0.16,0.035-0.159,0.161c0.004,1.295,0.001,2.59,0.006,3.885c0.001,0.139-0.025,0.193-0.18,0.189
			c-0.437-0.012-0.874-0.009-1.311-0.001c-0.122,0.002-0.151-0.034-0.15-0.153c0.004-1.3,0-2.601,0.007-3.901
			c0.001-0.153-0.047-0.182-0.186-0.179c-0.432,0.008-0.863,0.001-1.295,0.005c-0.094,0.001-0.143-0.009-0.141-0.127
			c0.008-0.437,0.007-0.874,0-1.311c-0.002-0.106,0.036-0.12,0.128-0.119C41.63,58.112,42.403,58.111,43.176,58.111z"/>
	</g>
</g>
</svg>
