<?xml version="1.0" encoding="utf-8"?>
<!-- Generator: Adobe Illustrator 27.1.0, SVG Export Plug-In . SVG Version: 6.00 Build 0)  -->
<svg version="1.1" id="Camada_1" xmlns="http://www.w3.org/2000/svg" xmlns:xlink="http://www.w3.org/1999/xlink" x="0px" y="0px"
	 width="64px" height="64px" viewBox="0 0 64 64" style="enable-background:new 0 0 64 64;" xml:space="preserve">
<g>
	<g>
		<path style="fill:#FF284B;" d="M51.736,38.789c-0.087,0.002-0.174,0.006-0.261,0.006c-8.978,0-17.956,0.001-26.935-0.003
			c-0.136,0-0.245,0.026-0.336,0.126c-0.383,0.037-1.388,0.757-1.288,1.246c-0.059,0.147-0.185,0.238-0.291,0.346
			c-0.292,0.299-0.586,0.597-0.88,0.895c-0.078,0.056-0.146,0.122-0.201,0.201c-0.03,0.012-0.067,0.016-0.088,0.037
			c-0.32,0.321-0.639,0.645-0.957,0.967c-0.027,0.027-0.053,0.053-0.08,0.08c-0.092,0.083-0.184,0.165-0.275,0.248
			c-0.346-0.176-1.348,0.901-1.329,1.288c0.006,0.089-0.071,0.123-0.12,0.173c-0.335,0.343-0.672,0.684-1.009,1.025
			c-0.042,0.002-0.074,0.019-0.104,0.05c-0.407,0.413-0.815,0.824-1.223,1.236c-0.092,0.083-0.184,0.165-0.275,0.248
			c-0.346-0.176-1.348,0.901-1.329,1.288c0.006,0.089-0.071,0.123-0.119,0.172c-0.375,0.384-0.753,0.765-1.13,1.147
			c-0.041,0.002-0.074,0.019-0.104,0.049c-0.34,0.346-0.681,0.691-1.022,1.036c-0.119,0.109-0.237,0.219-0.356,0.328
			c-0.336-0.213-1.338,0.931-1.289,1.288c-0.381,0.386-0.761,0.771-1.142,1.157c-0.051,0.052-0.099,0.108-0.148,0.161
			c-0.041,0.002-0.074,0.019-0.104,0.049c-0.34,0.346-0.681,0.691-1.022,1.036c-0.119,0.109-0.237,0.219-0.356,0.328
			c-0.336-0.213-1.338,0.931-1.289,1.288c-0.381,0.386-0.761,0.771-1.142,1.157c-0.051,0.052-0.099,0.108-0.148,0.161
			c-0.041,0.002-0.074,0.019-0.104,0.049C4.941,58,4.6,58.345,4.259,58.69c-0.067,0.067-0.134,0.134-0.201,0.201
			c-0.051,0.042-0.103,0.085-0.154,0.127c-0.336-0.213-1.338,0.931-1.289,1.288c-0.049,0.054-0.097,0.11-0.148,0.161
			c-0.38,0.386-0.761,0.772-1.142,1.157c-0.041,0.002-0.074,0.019-0.104,0.049c-0.34,0.346-0.681,0.691-1.022,1.036
			C0.133,62.765,0.066,62.82,0,62.875c0-17.393,0-34.786,0-52.179c3.169-3.143,6.338-6.285,9.505-9.429
			c0.04-0.04,0.104-0.066,0.102-0.138c17.875,0,35.751,0,53.626,0c-0.522,0.621-1.179,1.111-1.658,1.78
			c-0.261,0.364-0.631,0.65-0.952,0.971c-0.304,0.304-0.31,0.309-0.61-0.006c-0.14-0.147-0.329-0.254-0.4-0.461
			c0.024-0.048,0.057-0.082,0.116-0.076c0.193-0.007,0.459-0.2,0.514-0.372c0.019-0.061,0.026-0.117-0.04-0.155
			c-0.062-0.06-0.14-0.031-0.21-0.031C43.521,2.777,27.048,2.777,10.575,2.775c-0.13,0-0.222,0.036-0.314,0.129
			c-2.826,2.83-5.654,5.658-8.484,8.484c-0.092,0.092-0.132,0.182-0.132,0.313c0.003,15.675,0.003,31.351,0.004,47.026
			c0,0.061-0.02,0.128,0.028,0.202c0.22-0.221,0.429-0.432,0.64-0.643c3.563-3.562,7.126-7.123,10.688-10.684
			c0.043-0.043,0.083-0.088,0.129-0.127c0.479-0.408,0.903-0.872,1.342-1.321c0.211-0.189,0.413-0.388,0.6-0.601
			c1.285-1.119,2.442-2.428,3.647-3.632c1.204-1.204,2.52-2.358,3.633-3.646c0.395-0.39,0.795-0.776,1.182-1.174
			c0.112-0.115,0.224-0.158,0.384-0.158c8.588,0.004,17.177,0.003,25.765,0.004c0.08,0,0.161,0.004,0.241,0.006
			c0.082,0.087,0.163,0.175,0.247,0.26C50.695,37.739,51.216,38.264,51.736,38.789z"/>
		<path style="fill:#FF284B;" d="M51.736,38.789c-0.52-0.525-1.041-1.05-1.561-1.576c-0.084-0.085-0.165-0.173-0.247-0.26
			c0.08-0.002,0.161-0.006,0.241-0.006c1.896,0,3.792-0.003,5.688,0.005c0.191,0.001,0.225-0.058,0.225-0.234
			c-0.004-7.43-0.005-14.86,0.001-22.29c0-0.196-0.05-0.239-0.242-0.239c-2.224,0.007-4.449,0.004-6.673,0.003
			c0.2-0.214,0.4-0.427,0.6-0.641c0.037-0.028,0.075-0.056,0.112-0.083c0.344,0.002,0.564-0.229,0.531-0.557
			c0.188-0.202,0.377-0.403,0.565-0.605c0.042-0.041,0.083-0.081,0.125-0.122c0.368,0,0.603-0.232,0.549-0.541
			c0.155-0.241,0.399-0.4,0.572-0.624c0.028-0.027,0.057-0.054,0.085-0.082c0.371-0.002,0.59-0.222,0.556-0.56
			c0.218-0.263,0.467-0.496,0.715-0.73c0.341,0.006,0.564-0.228,0.531-0.557c0.218-0.263,0.467-0.497,0.716-0.73
			c0.133,0.085,0.224,0.005,0.312-0.081c0.12-0.119,0.274-0.226,0.179-0.435c0.106-0.162,0.257-0.281,0.393-0.413
			c0.101-0.098,0.168-0.24,0.323-0.276c0.31-0.012,0.535-0.26,0.523-0.579c0.092-0.172,0.252-0.284,0.386-0.418
			c0.104-0.104,0.177-0.25,0.337-0.29c0.314-0.012,0.526-0.25,0.531-0.597c0.22-0.249,0.434-0.504,0.715-0.69
			c0.07,0.05,0.139,0.035,0.198-0.015c0.166-0.142,0.336-0.285,0.292-0.541c0.179-0.225,0.39-0.418,0.6-0.613
			c0.071,0.207,0.26,0.314,0.4,0.461c0.3,0.315,0.306,0.31,0.61,0.006c0.321-0.321,0.692-0.607,0.952-0.971
			c0.479-0.669,1.136-1.159,1.658-1.78c0.235,0,0.469-0.001,0.703,0.001c0.024,0,0.074-0.025,0.06,0.039
			c-0.143,0.072-0.226,0.206-0.329,0.319c-0.156,0.138-0.309,0.279-0.434,0.447c-0.137,0.146-0.273,0.292-0.41,0.437
			c-0.155,0.139-0.309,0.279-0.434,0.447c-0.123,0.132-0.247,0.264-0.37,0.397c-0.168,0.153-0.337,0.305-0.474,0.488
			c-0.123,0.132-0.247,0.264-0.37,0.396c-0.168,0.153-0.337,0.305-0.474,0.488c-0.123,0.132-0.247,0.264-0.37,0.396
			c-0.155,0.139-0.309,0.279-0.434,0.447c-0.123,0.132-0.247,0.265-0.37,0.397c-0.168,0.153-0.336,0.306-0.474,0.488
			c-0.123,0.132-0.247,0.264-0.37,0.396c-0.169,0.152-0.337,0.305-0.474,0.488c-0.123,0.132-0.247,0.264-0.37,0.396
			c-0.155,0.139-0.309,0.279-0.434,0.447c-0.123,0.132-0.247,0.265-0.37,0.397c-0.168,0.153-0.336,0.306-0.474,0.488
			c-0.123,0.132-0.247,0.264-0.37,0.397c-0.168,0.153-0.337,0.305-0.474,0.488c-0.123,0.132-0.247,0.264-0.37,0.396
			c-0.156,0.139-0.309,0.279-0.434,0.447c-0.123,0.132-0.247,0.264-0.37,0.396c-0.168,0.153-0.336,0.306-0.474,0.488
			c-0.123,0.132-0.247,0.264-0.37,0.397c-0.16,0.17-0.32,0.34-0.485,0.515c0.05,0.03,0.123,0.009,0.191,0.009
			c1.36,0.002,2.72,0.005,4.079-0.003c0.17-0.001,0.206,0.044,0.206,0.209c-0.004,8.641-0.004,17.281,0,25.922
			c0,0.168-0.041,0.208-0.208,0.207c-1.855-0.006-3.711-0.004-5.566-0.004C51.856,38.795,51.796,38.791,51.736,38.789z"/>
		<path style="fill:#FF284B;" d="M14.755,48.246c-0.018-0.388,0.984-1.464,1.329-1.288c-0.123,0.132-0.245,0.263-0.368,0.395
			c-0.262,0.257-0.524,0.515-0.788,0.771C14.878,48.174,14.841,48.246,14.755,48.246z"/>
		<path style="fill:#FF284B;" d="M6.675,56.286c-0.049-0.357,0.953-1.501,1.289-1.288C7.546,55.439,7.116,55.868,6.675,56.286z"/>
		<path style="fill:#FF284B;" d="M10.735,52.266c-0.049-0.357,0.953-1.501,1.289-1.288C11.606,51.419,11.176,51.848,10.735,52.266z"
			/>
		<path style="fill:#FF284B;" d="M18.815,44.226c-0.018-0.388,0.984-1.464,1.329-1.288c-0.413,0.417-0.826,0.835-1.241,1.251
			C18.882,44.21,18.845,44.214,18.815,44.226z"/>
		<path style="fill:#FF284B;" d="M22.917,40.164c-0.1-0.489,0.905-1.208,1.288-1.246c-0.4,0.404-0.799,0.808-1.2,1.21
			C22.984,40.148,22.946,40.152,22.917,40.164z"/>
		<path style="fill:#272727;" d="M52.307,10.938c-0.028,0.027-0.057,0.054-0.085,0.082c-0.451-0.003-0.686,0.239-0.687,0.708
			c-0.148,0.149-0.313,0.282-0.434,0.456c-0.042,0.041-0.083,0.081-0.125,0.122c-0.208-0.029-0.358,0.054-0.514,0.195
			c-0.168,0.152-0.184,0.323-0.174,0.518c-0.136,0.149-0.272,0.299-0.407,0.448c-0.037,0.028-0.075,0.056-0.112,0.083
			c-0.308-0.041-0.491,0.158-0.653,0.367c-0.057,0.074-0.098,0.209,0.053,0.275c2.224,0.001,4.449,0.004,6.673-0.003
			c0.192-0.001,0.242,0.042,0.242,0.239c-0.006,7.43-0.005,14.86-0.001,22.29c0,0.176-0.034,0.235-0.225,0.234
			c-1.896-0.008-3.792-0.005-5.688-0.005c-0.08,0-0.161,0.004-0.241,0.006c-0.08-0.002-0.161-0.006-0.241-0.006
			c-8.588,0-17.177,0-25.765-0.004c-0.16,0-0.271,0.042-0.384,0.158c-0.388,0.398-0.787,0.784-1.182,1.174
			c-0.558-0.1-1.273,0.967-1.62,1.315c-0.523,0.523-1.054,1.038-1.56,1.578c-0.19-0.004-1.009,0.839-1.005,1.005
			c-0.553,0.519-1.089,1.055-1.608,1.608c-0.121,0.108-0.269,0.193-0.322,0.362c-0.204,0.171-0.392,0.359-0.563,0.563
			c-0.147,0.135-0.322,0.246-0.402,0.442c-0.321,0.243-0.511,0.607-0.808,0.873c-0.045,0.04-0.052,0.093,0.008,0.134
			c-0.439,0.449-0.863,0.913-1.342,1.321c-0.046,0.039-0.086,0.084-0.129,0.127C9.443,51.163,5.88,54.725,2.317,58.286
			c-0.211,0.211-0.42,0.422-0.64,0.643c-0.048-0.073-0.028-0.14-0.028-0.202C1.648,43.052,1.648,27.376,1.645,11.701
			c0-0.131,0.04-0.222,0.132-0.313c2.83-2.826,5.658-5.653,8.484-8.484c0.093-0.093,0.184-0.129,0.314-0.129
			c16.473,0.003,32.946,0.002,49.418,0.004c0.07,0,0.148-0.029,0.21,0.031c-0.165,0.17-0.365,0.308-0.474,0.528
			c-0.059-0.006-0.092,0.028-0.116,0.076c-0.209,0.195-0.421,0.388-0.6,0.613c-0.159,0.189-0.378,0.326-0.491,0.556
			c-0.281,0.186-0.495,0.441-0.715,0.69c-0.174,0.202-0.404,0.353-0.531,0.597c-0.16,0.041-0.232,0.187-0.337,0.29
			c-0.134,0.133-0.294,0.245-0.386,0.418c-0.181,0.187-0.399,0.341-0.523,0.579c-0.155,0.036-0.222,0.178-0.323,0.276
			c-0.136,0.132-0.287,0.252-0.393,0.413c-0.163,0.172-0.327,0.344-0.49,0.516c-0.249,0.233-0.498,0.467-0.716,0.73
			c-0.177,0.186-0.354,0.371-0.531,0.557c-0.248,0.233-0.497,0.466-0.715,0.73C52.678,10.564,52.493,10.751,52.307,10.938z
			 M33.606,17.05c0.02-0.106-0.048-0.23,0.045-0.319c0.15-0.143,0.046-0.195-0.078-0.246c-0.001-0.09-0.064-0.081-0.124-0.081
			c-0.618,0.003-1.236,0.005-1.853,0.007c-0.57,0-1.14,0-1.761,0c0.117-0.109,0.193-0.179,0.269-0.25
			c0.368,0.042,0.408,0.007,0.407-0.362c0-0.026,0-0.053,0-0.079c0.022-0.056,0.064-0.094,0.115-0.122
			c0.356,0.041,0.408-0.005,0.407-0.361c0-0.027,0-0.053,0-0.08c0.022-0.056,0.065-0.093,0.115-0.122
			c0.381,0.044,0.408,0.02,0.407-0.362c0-0.026,0-0.053,0-0.079c0.01-0.041,0.039-0.065,0.076-0.081
			c0.439,0.006,0.448-0.003,0.446-0.442c0-0.013,0-0.027,0-0.04c0.011-0.041,0.039-0.065,0.076-0.081
			c0.439,0.006,0.448-0.003,0.446-0.442c0-0.013,0-0.027,0-0.04c0.011-0.041,0.039-0.065,0.076-0.081
			c0.38,0.043,0.448-0.018,0.447-0.404c0-0.026,0-0.052-0.001-0.079c0.011-0.04,0.039-0.065,0.076-0.081
			c0.167,0.023,0.341,0.031,0.423-0.135c0.064-0.13,0.045-0.314-0.13-0.305c-0.002-0.193-0.006-0.386-0.006-0.58
			c-0.003-1.173-0.005-2.347-0.007-3.52c0-0.885,0-1.769,0-2.654c0.002-0.107-0.001-0.214,0.008-0.321
			c0.008-0.098-0.028-0.124-0.124-0.123c-1.407,0.005-2.813,0.006-4.22,0.009c-0.047-0.002-0.093-0.006-0.14-0.006
			c-5.359,0-10.719,0-16.078-0.004c-0.148,0-0.187,0.032-0.187,0.185c0.006,1.681,0.004,3.363,0.004,5.045
			c0,0.67,0.004,1.34-0.003,2.01c-0.001,0.132,0.034,0.171,0.166,0.164c0.207-0.011,0.415-0.003,0.623-0.003
			c1.467-0.002,2.934-0.004,4.401-0.007c1.419,0,2.838,0,4.297,0c-0.157,0.167-0.276,0.293-0.395,0.419
			c-0.035,0.031-0.072,0.059-0.105,0.092c-1.191,1.184-2.383,2.367-3.572,3.553c-1.294,1.29-2.585,2.583-3.876,3.876
			c-0.046,0.046-0.108,0.08-0.126,0.149c-0.441,0.439-0.88,0.881-1.325,1.317c-0.071,0.069-0.085,0.141-0.085,0.232
			c0.003,0.462,0.011,0.924-0.004,1.386c-0.005,0.176,0.052,0.202,0.211,0.202c2.183-0.006,4.365-0.004,6.548-0.004
			c0.308,0,0.616-0.004,0.924-0.006c0.584,0,1.168,0,1.753,0c0.021,0.033,0.043,0.065,0.064,0.098
			c-2.25,2.073-4.456,4.252-6.537,6.495c-1.178,1.004-2.227,2.219-3.32,3.316c-1.12,1.124-2.244,2.243-3.341,3.39
			c-0.135,0.112-0.258,0.236-0.369,0.371c-0.011,0.007-0.024,0.012-0.033,0.021c-1.596,1.598-3.191,3.197-4.787,4.795
			c-0.051,0.051-0.09,0.098-0.065,0.173c0,0.844,0,1.688,0,2.533c0,0.027,0,0.054,0,0.08c0,1.125,0,2.251,0,3.376
			c-0.002,0.033-0.006,0.067-0.006,0.1c0,1.708,0,3.417,0.001,5.125c0,0.037-0.018,0.079,0.021,0.116
			c0.073-0.024,0.111-0.089,0.16-0.139c0.718-0.722,1.436-1.444,2.152-2.168c1.362-1.376,2.722-2.753,4.086-4.127
			c0.627-0.632,1.261-1.256,1.892-1.884c0.105,0.015,0.195-0.016,0.277-0.084c0.163-0.134,0.33-0.264,0.496-0.395
			c0.183-0.085,0.317-0.219,0.402-0.402c0.056-0.063,0.11-0.128,0.169-0.189c0.1-0.103,0.149-0.214,0.065-0.351
			c0.552-0.627,1.166-1.194,1.752-1.788c0.591-0.599,1.192-1.188,1.788-1.782c0.234,0.134,0.326-0.063,0.446-0.192
			c0.121-0.107,0.241-0.214,0.362-0.322c0.183-0.085,0.317-0.219,0.402-0.402c0.056-0.063,0.11-0.128,0.169-0.189
			c0.101-0.103,0.148-0.214,0.065-0.351c1.105-1.226,2.321-2.364,3.495-3.524c0.475,0.043,1.627-1.03,1.53-1.543
			c0.074-0.085,0.142-0.176,0.222-0.255c1.024-1.028,2.049-2.055,3.075-3.081c0.044-0.044,0.074-0.117,0.158-0.105
			c0.323,0.044,0.737-0.476,0.941-0.673c0.244-0.235,0.624-0.48,0.549-0.87c0.175-0.219,0.377-0.412,0.574-0.61
			c0.966-0.969,1.931-1.939,2.896-2.908c0.361,0.235,1.596-1.113,1.518-1.533c0.072-0.133,0.185-0.16,0.332-0.159
			c0.962,0.004,1.924-0.001,2.887-0.004c0.04,0,0.08,0,0.12,0c1.407,0,2.815,0,4.222,0c0.074,0.002,0.147,0.006,0.221,0.006
			c1.768,0,3.536,0.002,5.304-0.004c0.15,0,0.188,0.035,0.186,0.186c-0.007,0.636,0,1.272,0.003,1.908
			c-0.003,0.395,0.082,0.887,0.01,1.273c-0.072,0.385-0.282,0.233-0.621,0.262c-0.08-0.002-0.16-0.006-0.241-0.006
			c-4.561,0-9.123,0.002-13.684-0.005c-0.273,0-0.515,0.015-0.689,0.252c-0.543,0.034-0.904,0.539-1.274,0.927
			c-0.19,0.199-1.093,0.918-0.916,1.234c-0.885,0.888-1.765,1.781-2.644,2.675c-0.424,0.431-0.874,0.833-1.31,1.253
			c-0.161,0.155-1.159,0.963-1.127,1.181c3.48,0,6.992,0.138,10.468-0.007c1.3,0,2.599,0,3.899,0c1.327,0,2.654,0,3.981,0
			c0.027,0.002,0.053,0.006,0.08,0.006c3.778,0,7.556-0.001,11.334,0.004c0.158,0,0.165-0.062,0.164-0.186
			c-0.003-1.809-0.002-3.617-0.002-5.426c0-0.636-0.004-1.272-0.006-1.909c0-0.871,0-1.742,0-2.613c0-1.219,0-2.439,0-3.658
			c0.002-1.567,0.004-3.134,0.009-4.702c0-0.096-0.027-0.125-0.124-0.124c-0.576,0.006-1.152,0.006-1.728,0.009
			c-1.394,0-2.788,0-4.181,0c-0.04,0-0.081,0-0.121,0c-1.219,0-2.438,0-3.657,0c-0.992-0.002-1.988-0.031-2.98-0.007
			c-0.414,0.01-0.582,0.249-0.864,0.529c-0.363,0.36-0.724,0.723-1.085,1.085c-1.437,1.436-2.955,2.825-4.318,4.332
			c-0.488,0.481-0.977,0.962-1.477,1.455c-0.007-0.073-0.011-0.119-0.016-0.165c0-0.28,0-0.561,0-0.841
			c0-0.429,0.001-0.858,0.001-1.287c0-0.442,0-0.884,0-1.326c0-0.576,0-1.151,0-1.727C33.603,17.909,33.605,17.479,33.606,17.05z
			 M37.787,12.499c0.02,0.002,0.04,0.006,0.06,0.006c3.161,0,6.323,0,9.484,0.003c0.097,0,0.159-0.035,0.224-0.099
			c0.579-0.576,1.162-1.147,1.74-1.724c1.777-1.775,3.553-3.551,5.328-5.328c0.044-0.044,0.106-0.078,0.127-0.167
			c-0.073,0-0.137,0-0.202,0c-0.924,0-1.849-0.001-2.773,0c-0.978,0.001-1.955,0.004-2.933,0.006
			c-0.027-0.002-0.053-0.006-0.08-0.006c-4.676,0-9.352,0-14.028-0.005c-0.155,0-0.166,0.058-0.166,0.185
			c0.004,1.568,0.003,3.135,0.003,4.703c0,0.757,0,1.514,0,2.271c0,0.085-0.023,0.166,0.122,0.165
			C35.724,12.5,36.756,12.501,37.787,12.499z M3.785,29.952c0,1.47,0,2.941,0,4.41c0.053,0.009,0.069-0.025,0.09-0.046
			c2.445-2.443,4.889-4.887,7.333-7.331c0.054-0.054,0.09-0.106,0.089-0.19c-0.006-0.542-0.006-1.085-0.009-1.627
			c0.075-1.594,0.007-3.208,0.007-4.804c0-1.596,0.071-3.21-0.007-4.804c0.002-0.04,0.006-0.08,0.006-0.12
			c0-3.368,0.001-6.737-0.001-10.105c0-0.035,0.023-0.08-0.029-0.11c-0.019,0.017-0.039,0.033-0.057,0.051
			c-2.444,2.443-4.886,4.887-7.333,7.328c-0.088,0.088-0.098,0.178-0.098,0.287c0.002,1.808,0.001,3.616,0.002,5.424
			c0,0.676,0.004,1.352,0.006,2.029c-0.078,1.594-0.007,3.208-0.007,4.804C3.779,26.744,3.71,28.357,3.785,29.952z"/>
		<path style="fill:#272727;" d="M16.562,43.78c0.519-0.553,1.055-1.089,1.608-1.608c0.352-0.318,0.687-0.653,1.005-1.005
			c0.506-0.54,1.037-1.055,1.56-1.578c0.348-0.348,1.063-1.414,1.62-1.315c-1.113,1.288-2.429,2.442-3.633,3.646
			c-1.205,1.205-2.362,2.513-3.647,3.632c-0.018-0.177,0.174-0.251,0.2-0.406c0.147-0.135,0.322-0.246,0.402-0.442
			c0.171-0.204,0.359-0.392,0.563-0.563C16.362,44.034,16.509,43.949,16.562,43.78z"/>
		<path style="fill:#FF284B;" d="M3.904,59.018c-0.418,0.441-0.848,0.87-1.289,1.288C2.565,59.949,3.567,58.805,3.904,59.018z"/>
		<path style="fill:#272727;" d="M15.276,45.147c-0.026,0.155-0.218,0.229-0.2,0.406c-0.187,0.213-0.389,0.412-0.6,0.601
			c-0.06-0.041-0.053-0.094-0.008-0.134C14.765,45.754,14.955,45.39,15.276,45.147z"/>
		<path style="fill:#FF284B;" d="M59.73,3.337c0.109-0.22,0.309-0.358,0.474-0.528c0.067,0.038,0.06,0.094,0.04,0.155
			C60.189,3.137,59.922,3.33,59.73,3.337z"/>
		<path style="fill:#272727;" d="M50.288,13.019c-0.01-0.195,0.006-0.366,0.174-0.518c0.156-0.141,0.306-0.225,0.514-0.195
			c-0.188,0.202-0.377,0.403-0.565,0.605C50.37,12.947,50.329,12.983,50.288,13.019z"/>
		<path style="fill:#272727;" d="M51.535,11.728c0.001-0.469,0.236-0.711,0.687-0.708c-0.173,0.224-0.417,0.383-0.572,0.624
			C51.612,11.671,51.574,11.699,51.535,11.728z"/>
		<path style="fill:#272727;" d="M49.169,14.192c-0.151-0.065-0.11-0.201-0.053-0.275c0.162-0.209,0.344-0.408,0.653-0.367
			C49.568,13.765,49.369,13.978,49.169,14.192z"/>
		<path style="fill:#FF284B;" d="M51.535,11.728c0.038-0.028,0.077-0.056,0.115-0.084c0.054,0.308-0.181,0.54-0.549,0.541
			C51.223,12.009,51.388,11.876,51.535,11.728z"/>
		<path style="fill:#FF284B;" d="M52.307,10.938c0.185-0.187,0.371-0.373,0.556-0.56C52.898,10.715,52.678,10.936,52.307,10.938z"/>
		<path style="fill:#FF284B;" d="M57.277,5.87c0.127-0.244,0.357-0.395,0.531-0.597C57.804,5.619,57.591,5.858,57.277,5.87z"/>
		<path style="fill:#FF284B;" d="M56.032,7.156c0.125-0.238,0.343-0.391,0.523-0.579C56.566,6.896,56.342,7.144,56.032,7.156z"/>
		<path style="fill:#FF284B;" d="M53.579,9.648c0.177-0.186,0.354-0.371,0.531-0.557C54.143,9.421,53.92,9.655,53.579,9.648z"/>
		<path style="fill:#FF284B;" d="M58.523,4.583c0.113-0.23,0.331-0.367,0.491-0.556c0.043,0.256-0.126,0.399-0.292,0.541
			C58.663,4.617,58.594,4.632,58.523,4.583z"/>
		<path style="fill:#FF284B;" d="M54.825,8.361c0.163-0.172,0.327-0.344,0.49-0.516c0.095,0.208-0.058,0.315-0.179,0.435
			C55.05,8.367,54.958,8.446,54.825,8.361z"/>
		<path style="fill:#FF284B;" d="M50.288,13.019c0.041-0.036,0.082-0.073,0.123-0.109c0.033,0.328-0.187,0.559-0.531,0.557
			C50.016,13.318,50.152,13.169,50.288,13.019z"/>
		<path style="fill:#F4F5FA;" d="M31.633,14.514c-0.038,0.015-0.066,0.04-0.076,0.081c-0.136,0.147-0.271,0.294-0.407,0.441
			c-0.051,0.029-0.094,0.065-0.115,0.122c-0.136,0.147-0.271,0.294-0.407,0.441c-0.051,0.028-0.093,0.066-0.115,0.122
			c-0.136,0.147-0.271,0.294-0.407,0.441c-0.076,0.07-0.152,0.141-0.269,0.25c0.621,0,1.191,0,1.761,0
			c-0.048,0.075-0.116,0.125-0.191,0.173c-0.645,0.414-1.289,0.829-1.932,1.247c-1.33,0.864-2.66,1.73-3.99,2.595
			c-1.637,1.065-3.274,2.131-4.911,3.196c-0.067,0.044-0.143,0.078-0.151,0.172c-0.308,0.002-0.616,0.006-0.924,0.006
			c-2.183,0.001-4.365-0.001-6.548,0.004c-0.16,0-0.217-0.026-0.211-0.202c0.014-0.462,0.006-0.924,0.004-1.386
			c-0.001-0.091,0.014-0.163,0.085-0.232c0.444-0.436,0.884-0.877,1.325-1.317c0.232,0.179,0.981-0.485,1.208-0.633
			c0.428-0.278,0.855-0.556,1.283-0.834c0.792-0.513,1.586-1.024,2.378-1.537c1.606-1.04,3.207-2.086,4.811-3.128
			c3.213-2.088,6.426-4.178,9.648-6.253c0.002,1.173,0.004,2.347,0.007,3.52c0,0.193,0.004,0.386,0.006,0.58
			c0.004,0.214-0.208,0.285-0.293,0.44c-0.037,0.015-0.065,0.04-0.076,0.081c-0.149,0.161-0.297,0.322-0.446,0.482
			c-0.038,0.015-0.065,0.04-0.076,0.081c-0.149,0.161-0.297,0.322-0.446,0.482c-0.038,0.015-0.066,0.04-0.076,0.081
			C31.93,14.192,31.781,14.353,31.633,14.514z"/>
		<path style="fill:#F1F2F8;" d="M3.785,42.454C3.761,42.378,3.8,42.331,3.85,42.28c1.596-1.598,3.192-3.197,4.787-4.795
			c0.009-0.009,0.022-0.014,0.033-0.021c0.183-0.064,0.308-0.186,0.369-0.371c1.097-1.147,2.221-2.266,3.341-3.39
			c1.094-1.097,2.142-2.312,3.32-3.316c0.101,0.006,0.18-0.05,0.257-0.1c0.432-0.277,0.861-0.559,1.293-0.838
			c0.974-0.63,1.95-1.259,2.924-1.89c1.544-1.002,3.086-2.008,4.63-3.011c0.973-0.632,1.95-1.259,2.924-1.891
			c1.578-1.024,3.154-2.051,4.731-3.075c0.363-0.235,0.709-0.498,1.101-0.686c0.005,0.388,0.01,0.775,0.014,1.163
			c0,0.442-0.001,0.884-0.001,1.326c-0.002,0.43-0.004,0.859-0.006,1.289c0,0.188-0.001,0.376-0.001,0.564
			c-0.236-0.019-0.563,0.301-0.747,0.42c-0.271,0.176-0.542,0.352-0.813,0.528c-0.542,0.352-1.084,0.704-1.626,1.056
			c-1.086,0.705-2.173,1.41-3.26,2.114c-3.924,2.544-7.846,5.09-11.767,7.638c-1.946,1.264-3.893,2.525-5.839,3.79
			c-0.991,0.644-1.982,1.289-2.972,1.933c-0.486,0.317-0.972,0.633-1.458,0.95C4.799,41.854,4.136,42.48,3.785,42.454z"/>
		<path style="fill:#EFF0F7;" d="M3.785,42.454c0.351,0.026,1.013-0.6,1.297-0.785c0.486-0.317,0.972-0.634,1.458-0.95
			c0.991-0.645,1.981-1.289,2.972-1.933c1.945-1.265,3.893-2.526,5.839-3.79c3.922-2.547,7.843-5.094,11.767-7.638
			c1.087-0.704,2.174-1.409,3.26-2.114c0.542-0.352,1.084-0.704,1.626-1.056c0.271-0.176,0.542-0.352,0.813-0.528
			c0.184-0.12,0.511-0.439,0.747-0.42c0.014,0.093-0.031,0.193,0.033,0.281c0.004,0.046,0.009,0.092,0.016,0.165
			c0.501-0.493,0.989-0.974,1.477-1.455c0.094,0.097,0.174,0.021,0.248-0.026c0.416-0.265,0.831-0.533,1.245-0.802
			c1.494-0.97,2.988-1.94,4.482-2.91c1.024-0.665,2.049-1.327,3.072-1.994c0.079-0.052,0.19-0.084,0.2-0.207
			c1.219,0,2.438,0,3.657,0c-0.041,0.063-0.093,0.113-0.156,0.153c-0.282,0.178-0.564,0.356-0.844,0.537
			c-1.02,0.659-2.039,1.318-3.057,1.979c-1.505,0.977-3.008,1.956-4.513,2.933c-0.744,0.483-1.493,0.958-2.233,1.448
			c-0.186,0.123-0.407,0.208-0.531,0.413c-0.962,0.002-1.925,0.007-2.887,0.004c-0.146-0.001-0.259,0.026-0.332,0.159
			c-0.224,0.22-0.453,0.435-0.671,0.66c-0.283,0.291-0.592,0.556-0.847,0.873c-0.965,0.969-1.931,1.939-2.896,2.908
			c-0.197,0.198-0.4,0.391-0.574,0.61c-0.148,0.14-0.296,0.279-0.443,0.419c-0.179-0.019-0.302,0.105-0.432,0.189
			c-1.542,0.995-3.079,1.998-4.619,2.998c-1.248,0.81-2.499,1.618-3.747,2.428c-1.271,0.825-2.54,1.652-3.811,2.477
			c-1.249,0.81-2.499,1.618-3.747,2.428c-1.534,0.995-3.068,1.992-4.601,2.989c-0.968,0.63-1.933,1.264-2.902,1.892
			c-0.116,0.075-0.226,0.168-0.368,0.198C3.785,44.142,3.785,43.298,3.785,42.454z"/>
		<path style="fill:#EBEDF6;" d="M34.693,34.89c-3.477,0.144-6.988,0.007-10.468,0.007c-0.032-0.218,0.966-1.026,1.127-1.181
			c0.435-0.419,0.886-0.821,1.31-1.253c0.879-0.894,1.758-1.787,2.644-2.675c0.012-0.003,0.028-0.002,0.036-0.009
			c0.718-0.717,1.436-1.434,2.153-2.152c0.174-0.237,0.416-0.253,0.689-0.252c4.561,0.007,9.123,0.005,13.684,0.005
			c0.08,0,0.16,0.004,0.241,0.006c-0.041,0.063-0.093,0.113-0.156,0.153c-0.282,0.179-0.564,0.357-0.844,0.538
			c-1.02,0.659-2.04,1.319-3.058,1.98c-1.505,0.977-3.009,1.957-4.515,2.934c-0.744,0.483-1.494,0.959-2.234,1.448
			C35.091,34.577,34.854,34.684,34.693,34.89z"/>
		<path style="fill:#F9F9FC;" d="M17.93,12.579c-1.467,0.002-2.934,0.004-4.401,0.007c-0.208,0-0.416-0.008-0.623,0.003
			c-0.131,0.007-0.167-0.032-0.166-0.164c0.007-0.67,0.003-1.34,0.003-2.01c0-1.682,0.002-3.363-0.004-5.045
			c-0.001-0.152,0.038-0.185,0.187-0.185c5.359,0.004,10.719,0.004,16.078,0.004c0.047,0,0.093,0.004,0.14,0.006
			c-0.008,0.095-0.083,0.129-0.151,0.172c-0.65,0.42-1.3,0.84-1.95,1.261c-1.259,0.817-2.519,1.634-3.778,2.451
			c-1.326,0.861-2.655,1.719-3.976,2.587C18.834,11.967,18.357,12.236,17.93,12.579z"/>
		<path style="fill:#F6F7FB;" d="M11.289,15.56c0.078,1.594,0.007,3.208,0.007,4.804c0,1.596,0.068,3.21-0.007,4.804
			c-0.056-0.004-0.1,0.019-0.148,0.049c-0.549,0.354-1.101,0.702-1.648,1.057c-1.581,1.026-3.16,2.057-4.741,3.082
			c-0.317,0.206-0.617,0.441-0.967,0.595c-0.075-1.594-0.007-3.208-0.007-4.804c0-1.596-0.071-3.21,0.007-4.804
			c0.086,0.005,0.151-0.039,0.22-0.083c0.447-0.29,0.897-0.576,1.343-0.867c1.669-1.087,3.336-2.177,5.008-3.259
			C10.663,15.936,10.953,15.71,11.289,15.56z"/>
		<path style="fill:#FAFAFD;" d="M11.289,15.56c-0.336,0.15-0.627,0.376-0.933,0.574c-1.672,1.082-3.339,2.173-5.008,3.259
			c-0.447,0.291-0.896,0.577-1.343,0.867c-0.068,0.044-0.134,0.089-0.22,0.083c-0.002-0.676-0.006-1.352-0.006-2.029
			c-0.001-1.808,0-3.616-0.002-5.424c0-0.109,0.01-0.199,0.098-0.287c2.446-2.44,4.889-4.884,7.333-7.328
			c0.018-0.018,0.038-0.034,0.057-0.051c0.052,0.029,0.029,0.075,0.029,0.11c0.001,3.368,0.001,6.737,0.001,10.105
			C11.296,15.48,11.292,15.52,11.289,15.56z"/>
		<path style="fill:#EEEFF7;" d="M21.98,35.496c-1.174,1.16-2.39,2.298-3.495,3.524c-0.068,0.059-0.135,0.117-0.203,0.176
			c-0.294-0.201-1.583,0.873-1.867,1.059c-0.627,0.407-1.253,0.815-1.88,1.222c-1.188,0.772-2.376,1.542-3.565,2.311
			c-2.396,1.55-4.781,3.116-7.184,4.655c0-1.125,0-2.251,0-3.376c0.959-0.42,1.851-1.161,2.73-1.731
			c0.87-0.564,1.739-1.129,2.609-1.693c3.088-2.004,6.177-4.008,9.265-6.012c1.593-1.034,3.186-2.068,4.779-3.104
			c0.798-0.519,1.595-1.038,2.393-1.558c0.426-0.278,0.853-0.556,1.279-0.833c0.253-0.165,0.69-0.591,1.006-0.587
			c-0.254,0.262-0.508,0.524-0.761,0.788c-0.048,0.051-0.123,0.086-0.12,0.174c-0.084-0.012-0.114,0.061-0.158,0.105
			c-1.026,1.026-2.051,2.053-3.075,3.081c-0.079,0.08-0.148,0.17-0.222,0.255C23.001,34.467,22.49,34.981,21.98,35.496z"/>
		<path style="fill:#F4F5FA;" d="M37.787,12.499c-1.031,0.002-2.063,0.002-3.094,0.01c-0.144,0.001-0.122-0.08-0.122-0.165
			c0-0.757,0-1.514,0-2.271c0-1.568,0.001-3.135-0.003-4.703c0-0.127,0.011-0.185,0.166-0.185c4.676,0.005,9.352,0.004,14.028,0.005
			c0.027,0,0.053,0.004,0.08,0.006c-0.013,0.087-0.093,0.11-0.151,0.148c-0.615,0.399-1.234,0.792-1.85,1.191
			c-1.331,0.864-2.661,1.73-3.991,2.595c-1.637,1.066-3.274,2.132-4.912,3.197C37.871,12.37,37.796,12.404,37.787,12.499z"/>
		<path style="fill:#F2F3F9;" d="M37.787,12.499c0.008-0.095,0.084-0.128,0.151-0.172c1.638-1.065,3.275-2.131,4.912-3.197
			c1.33-0.865,2.66-1.732,3.991-2.595c0.615-0.399,1.234-0.792,1.85-1.191c0.058-0.038,0.138-0.061,0.151-0.148
			c0.978-0.002,1.955-0.005,2.933-0.006c0.924-0.001,1.849,0,2.773,0c0.064,0,0.128,0,0.202,0c-0.021,0.089-0.083,0.123-0.127,0.167
			c-1.775,1.777-3.551,3.553-5.328,5.328c-0.578,0.577-1.161,1.148-1.74,1.724c-0.064,0.064-0.127,0.099-0.224,0.099
			c-3.161-0.003-6.323-0.002-9.484-0.003C37.827,12.505,37.807,12.501,37.787,12.499z"/>
		<path style="fill:#ECEDF6;" d="M52.3,16.291c0.576-0.002,1.152-0.002,1.728-0.009c0.097-0.001,0.124,0.028,0.124,0.124
			c-0.005,1.567-0.006,3.134-0.009,4.702c-0.094,0.018-0.173,0.068-0.252,0.118c-0.639,0.412-1.278,0.821-1.915,1.236
			c-1.464,0.952-2.924,1.91-4.392,2.856c-0.284,0.183-0.546,0.404-0.864,0.533c-0.002-0.636-0.01-1.272-0.003-1.908
			c0.002-0.151-0.037-0.186-0.186-0.186c-1.768,0.006-3.536,0.004-5.304,0.004c-0.074,0-0.147-0.004-0.221-0.006
			c0.022-0.045,0.066-0.063,0.105-0.089c0.835-0.538,1.67-1.075,2.504-1.615c1.331-0.863,2.66-1.73,3.99-2.594
			c1.515-0.985,3.029-1.969,4.545-2.952C52.23,16.451,52.311,16.405,52.3,16.291z"/>
		<path style="fill:#EAEBF5;" d="M46.719,25.851c0.318-0.129,0.58-0.35,0.864-0.533c1.468-0.946,2.928-1.904,4.392-2.856
			c0.637-0.414,1.277-0.824,1.915-1.236c0.079-0.051,0.158-0.1,0.252-0.118c0,1.219,0,2.439,0,3.658
			c-2.664,1.521-5.195,3.342-7.77,5.011c-1.327,0.861-2.652,1.725-3.978,2.587c-0.65,0.423-1.301,0.843-1.952,1.263
			c-0.583,0.376-1.391,0.735-1.85,1.262c-1.3,0-2.599,0-3.899,0c0.161-0.206,0.398-0.312,0.608-0.451
			c0.74-0.49,1.49-0.965,2.234-1.448c1.505-0.977,3.01-1.957,4.515-2.934c1.019-0.661,2.038-1.321,3.058-1.98
			c0.28-0.181,0.562-0.359,0.844-0.538c0.063-0.04,0.116-0.09,0.156-0.153c0.339-0.028,0.549,0.123,0.621-0.262
			C46.801,26.739,46.716,26.246,46.719,25.851z"/>
		<path style="fill:#F2F2F9;" d="M33.559,18.897c-0.392,0.188-0.738,0.451-1.101,0.686c-1.578,1.024-3.154,2.051-4.731,3.075
			c-0.973,0.632-1.95,1.259-2.924,1.891c-1.544,1.002-3.086,2.008-4.63,3.011c-0.973,0.632-1.949,1.26-2.924,1.89
			c-0.431,0.279-0.86,0.561-1.293,0.838c-0.077,0.05-0.156,0.106-0.257,0.1c2.081-2.244,4.287-4.423,6.537-6.495
			c-0.021-0.033-0.043-0.065-0.064-0.098c-0.584,0-1.168,0-1.753,0c0.008-0.094,0.084-0.128,0.151-0.172
			c1.637-1.065,3.274-2.131,4.911-3.196c1.33-0.865,2.659-1.731,3.99-2.595c0.643-0.417,1.287-0.833,1.932-1.247
			c0.074-0.048,0.142-0.098,0.191-0.173c0.618-0.002,1.236-0.004,1.853-0.007c0.06,0,0.124-0.009,0.124,0.081
			c0,0.187,0,0.374,0,0.561c0,0.429,0,0.857-0.001,1.286C33.568,18.521,33.564,18.709,33.559,18.897z"/>
		<path style="fill:#E7E9F4;" d="M54.142,27.379c0.002,0.636,0.006,1.272,0.006,1.909c0.001,1.809-0.001,3.617,0.002,5.426
			c0,0.124-0.006,0.187-0.164,0.186c-3.778-0.005-7.556-0.004-11.334-0.004c-0.027,0-0.053-0.004-0.08-0.006
			c0.038-0.037,0.07-0.082,0.114-0.11c1.085-0.704,2.172-1.405,3.258-2.108c0.98-0.634,1.961-1.266,2.939-1.902
			c1.459-0.948,2.915-1.903,4.378-2.846C53.551,27.738,53.819,27.513,54.142,27.379z"/>
		<path style="fill:#F6F7FB;" d="M33.479,8.285c-3.222,2.074-6.434,4.165-9.648,6.253c-1.604,1.042-3.205,2.088-4.811,3.128
			c-0.792,0.513-1.586,1.024-2.378,1.537c-0.428,0.277-0.856,0.556-1.283,0.834c-0.227,0.148-0.976,0.812-1.208,0.633
			c0.019-0.07,0.081-0.103,0.126-0.149c1.291-1.293,2.582-2.586,3.876-3.876c1.189-1.186,2.381-2.369,3.572-3.553
			c0.033-0.033,0.07-0.061,0.105-0.092c0.126,0.161,0.216-0.004,0.291-0.052c1.18-0.754,2.354-1.516,3.529-2.277
			c1.264-0.82,2.528-1.64,3.791-2.462c1.196-0.778,2.389-1.561,3.588-2.334c0.142-0.091,0.268-0.223,0.451-0.243
			C33.48,6.516,33.48,7.4,33.479,8.285z"/>
		<path style="fill:#ECEDF6;" d="M3.785,48.443c2.403-1.539,4.788-3.105,7.184-4.655c1.189-0.769,2.378-1.54,3.565-2.311
			c0.627-0.407,1.253-0.815,1.88-1.222c0.285-0.185,1.573-1.26,1.867-1.059c-0.049,0.054-0.095,0.11-0.146,0.162
			c-0.353,0.362-0.707,0.722-1.06,1.083c-0.012,0.012-0.024,0.023-0.035,0.035c-0.596,0.594-1.197,1.183-1.788,1.782
			c-0.586,0.594-1.2,1.16-1.752,1.788c-0.482,0.462-0.951,0.936-1.409,1.42c-0.631,0.628-1.265,1.253-1.892,1.884
			c-1.364,1.374-2.724,2.751-4.086,4.127C5.396,52.2,4.679,52.923,3.96,53.644c-0.049,0.049-0.087,0.115-0.16,0.139
			c-0.039-0.036-0.021-0.079-0.021-0.116c-0.001-1.708-0.001-3.417-0.001-5.125C3.779,48.509,3.783,48.476,3.785,48.443z"/>
		<path style="fill:#F6F7FB;" d="M33.48,5.631c-0.182,0.02-0.309,0.152-0.451,0.243c-1.199,0.773-2.392,1.556-3.588,2.334
			c-1.263,0.822-2.526,1.642-3.791,2.462c-1.175,0.762-2.349,1.524-3.529,2.277c-0.075,0.048-0.165,0.213-0.291,0.052
			c0.119-0.126,0.238-0.252,0.395-0.419c-1.458,0-2.877,0-4.297,0c0.427-0.343,0.905-0.612,1.361-0.912
			c1.321-0.869,2.65-1.726,3.976-2.587c1.259-0.818,2.518-1.635,3.778-2.451c0.649-0.421,1.299-0.841,1.95-1.261
			c0.068-0.044,0.143-0.078,0.151-0.172c1.407-0.002,2.813-0.004,4.22-0.009c0.096,0,0.132,0.026,0.124,0.123
			C33.479,5.417,33.482,5.524,33.48,5.631z"/>
		<path style="fill:#E9EBF5;" d="M54.142,27.379c-0.323,0.134-0.591,0.359-0.881,0.546c-1.463,0.943-2.918,1.898-4.378,2.846
			c-0.978,0.636-1.959,1.268-2.939,1.902c-1.086,0.702-2.173,1.404-3.258,2.108c-0.043,0.028-0.076,0.073-0.114,0.11
			c-1.327,0-2.654,0-3.981,0c0.459-0.528,1.267-0.886,1.85-1.262c0.651-0.42,1.302-0.84,1.952-1.263
			c1.326-0.862,2.651-1.727,3.978-2.587c2.575-1.67,5.106-3.49,7.77-5.011C54.142,25.637,54.142,26.508,54.142,27.379z"/>
		<path style="fill:#EEEFF7;" d="M52.3,16.291c0.011,0.115-0.07,0.16-0.151,0.213c-1.516,0.983-3.03,1.968-4.545,2.952
			c-1.33,0.865-2.659,1.731-3.99,2.594c-0.833,0.541-1.669,1.078-2.504,1.615c-0.039,0.025-0.083,0.043-0.105,0.089
			c-1.407,0-2.815,0-4.222,0c0.02-0.092,0.105-0.115,0.169-0.157c1.231-0.8,2.463-1.597,3.694-2.396
			c1.55-1.007,3.098-2.015,4.648-3.022c0.739-0.48,1.482-0.951,2.216-1.438c0.209-0.139,0.447-0.245,0.607-0.451
			C49.512,16.291,50.906,16.291,52.3,16.291z"/>
		<path style="fill:#F3F4F9;" d="M3.785,29.952c0.349-0.154,0.649-0.389,0.967-0.595c1.581-1.026,3.16-2.056,4.741-3.082
			c0.547-0.355,1.1-0.703,1.648-1.057c0.047-0.03,0.092-0.053,0.148-0.049c0.002,0.542,0.003,1.085,0.009,1.627
			c0.001,0.084-0.035,0.136-0.089,0.19c-2.445,2.443-4.889,4.887-7.333,7.331c-0.021,0.021-0.037,0.056-0.09,0.046
			C3.785,32.893,3.785,31.422,3.785,29.952z"/>
		<path style="fill:#F0F1F8;" d="M44.34,16.291c-0.01,0.123-0.121,0.155-0.2,0.207c-1.023,0.667-2.048,1.33-3.072,1.994
			c-1.494,0.97-2.988,1.94-4.482,2.91c-0.414,0.269-0.829,0.536-1.245,0.802c-0.075,0.048-0.155,0.123-0.248,0.026
			c1.363-1.506,2.881-2.896,4.318-4.332c0.362-0.362,0.722-0.724,1.085-1.085c0.282-0.28,0.451-0.519,0.864-0.529
			C42.352,16.26,43.348,16.289,44.34,16.291z"/>
		<path style="fill:#EFF0F7;" d="M27.846,29.55c-0.316-0.005-0.753,0.422-1.006,0.587c-0.426,0.278-0.853,0.556-1.279,0.833
			c-0.797,0.52-1.595,1.039-2.393,1.558c-1.592,1.035-3.185,2.07-4.779,3.104c-3.088,2.004-6.177,4.008-9.265,6.012
			c-0.87,0.564-1.739,1.129-2.609,1.693c-0.879,0.57-1.771,1.311-2.73,1.731c0-0.027,0-0.054,0-0.08
			c0.142-0.03,0.252-0.123,0.368-0.198c0.969-0.628,1.934-1.262,2.902-1.892c1.533-0.997,3.066-1.994,4.601-2.989
			c1.249-0.81,2.499-1.618,3.747-2.428c1.271-0.825,2.54-1.652,3.811-2.477c1.249-0.81,2.499-1.617,3.747-2.428
			c1.539-0.999,3.077-2.003,4.619-2.998c0.13-0.084,0.252-0.208,0.432-0.189C27.956,29.441,27.901,29.495,27.846,29.55z"/>
		<path style="fill:#EFF0F7;" d="M48.118,16.291c-0.161,0.206-0.398,0.312-0.607,0.451c-0.734,0.486-1.478,0.958-2.216,1.438
			c-1.55,1.006-3.098,2.015-4.648,3.022c-1.231,0.799-2.463,1.597-3.694,2.396c-0.064,0.042-0.15,0.065-0.169,0.157
			c-0.04,0-0.08,0-0.12,0c0.124-0.205,0.345-0.29,0.531-0.413c0.74-0.49,1.489-0.965,2.233-1.448
			c1.505-0.977,3.009-1.956,4.513-2.933c1.018-0.661,2.038-1.32,3.057-1.979c0.28-0.181,0.562-0.359,0.844-0.537
			c0.063-0.04,0.116-0.09,0.156-0.153C48.038,16.291,48.078,16.291,48.118,16.291z"/>
		<path style="fill:#272727;" d="M31.494,27.626c-0.718,0.717-1.435,1.435-2.153,2.152c-0.008,0.008-0.024,0.006-0.036,0.009
			c-0.178-0.316,0.726-1.035,0.916-1.234C30.59,28.165,30.951,27.66,31.494,27.626z"/>
		<path style="fill:#272727;" d="M31.926,25.45c0.255-0.318,0.565-0.582,0.847-0.873c0.218-0.225,0.447-0.44,0.671-0.66
			C33.522,24.337,32.287,25.686,31.926,25.45z"/>
		<path style="fill:#272727;" d="M21.98,35.496c0.51-0.514,1.02-1.029,1.53-1.543C23.608,34.466,22.455,35.539,21.98,35.496z"/>
		<path style="fill:#272727;" d="M27.846,29.55c0.055-0.054,0.111-0.108,0.166-0.162c0.148-0.14,0.296-0.279,0.443-0.419
			c0.075,0.39-0.305,0.635-0.549,0.87c-0.204,0.197-0.619,0.716-0.941,0.673c-0.003-0.087,0.071-0.123,0.12-0.174
			C27.337,30.074,27.592,29.812,27.846,29.55z"/>
		<path style="fill:#272727;" d="M17.076,40.44c0.353-0.361,0.707-0.722,1.06-1.083c0.051-0.052,0.098-0.108,0.146-0.162
			c0.068-0.059,0.135-0.117,0.203-0.176c0.083,0.136,0.036,0.247-0.065,0.351c-0.059,0.061-0.113,0.126-0.169,0.189
			c-0.15,0.118-0.284,0.252-0.402,0.402c-0.121,0.107-0.241,0.214-0.362,0.322C17.344,40.319,17.252,40.489,17.076,40.44z"/>
		<path style="fill:#272727;" d="M12.091,45.465c0.458-0.485,0.928-0.959,1.409-1.42c0.083,0.136,0.035,0.247-0.065,0.351
			c-0.059,0.061-0.113,0.126-0.169,0.189c-0.15,0.118-0.284,0.252-0.402,0.402c-0.165,0.132-0.332,0.261-0.496,0.395
			C12.286,45.449,12.196,45.48,12.091,45.465z"/>
		<path style="fill:#272727;" d="M33.2,12.825c0.085-0.155,0.297-0.226,0.293-0.44c0.175-0.009,0.194,0.175,0.13,0.305
			C33.541,12.856,33.367,12.848,33.2,12.825z"/>
		<path style="fill:#272727;" d="M32.678,13.388c0.149-0.161,0.297-0.322,0.446-0.482c0,0.026,0,0.052,0.001,0.079
			C33.125,13.37,33.058,13.431,32.678,13.388z"/>
		<path style="fill:#272727;" d="M32.155,13.951c0.149-0.161,0.297-0.322,0.446-0.482c0,0.013,0,0.027,0,0.04
			C32.603,13.948,32.594,13.956,32.155,13.951z"/>
		<path style="fill:#272727;" d="M31.633,14.514c0.149-0.161,0.297-0.321,0.446-0.482c0,0.013,0,0.027,0,0.04
			C32.08,14.511,32.072,14.519,31.633,14.514z"/>
		<path style="fill:#272727;" d="M30.104,16.161c0.136-0.147,0.271-0.294,0.407-0.441c0,0.026,0,0.053,0,0.079
			C30.512,16.169,30.472,16.204,30.104,16.161z"/>
		<path style="fill:#272727;" d="M31.149,15.036c0.136-0.147,0.271-0.294,0.407-0.441c0,0.026,0,0.053,0,0.079
			C31.557,15.055,31.53,15.079,31.149,15.036z"/>
		<path style="fill:#272727;" d="M30.627,15.599c0.136-0.147,0.271-0.294,0.407-0.441c0,0.027,0,0.053,0,0.08
			C31.034,15.593,30.982,15.639,30.627,15.599z"/>
		<path style="fill:#272727;" d="M19.175,41.167c-0.318,0.352-0.653,0.687-1.005,1.005C18.166,42.007,18.985,41.163,19.175,41.167z"
			/>
		<path style="fill:#747477;" d="M33.559,18.897c0.004-0.188,0.009-0.376,0.013-0.565c0.01,0.002,0.019,0.004,0.029,0.006
			c0,0.576,0,1.151,0,1.727c-0.009-0.002-0.018-0.004-0.027-0.006C33.569,19.672,33.564,19.284,33.559,18.897z"/>
		<path style="fill:#9D9DA1;" d="M33.574,20.06c0.009,0.002,0.018,0.004,0.027,0.006c0,0.442,0,0.884,0,1.326
			c-0.009-0.002-0.019-0.003-0.028-0.005C33.573,20.944,33.573,20.502,33.574,20.06z"/>
		<path style="fill:#C0C1C7;" d="M33.573,21.386c0.009,0.002,0.019,0.004,0.028,0.005c0,0.429-0.001,0.858-0.001,1.287
			c-0.011-0.001-0.022-0.002-0.032-0.003C33.569,22.245,33.571,21.815,33.573,21.386z"/>
		<path style="fill:#4B4B4C;" d="M33.601,18.339c-0.01-0.002-0.019-0.004-0.029-0.006c0-0.429,0-0.857,0.001-1.286
			c0.011,0.001,0.022,0.002,0.033,0.003C33.605,17.479,33.603,17.909,33.601,18.339z"/>
		<path style="fill:#272727;" d="M33.606,17.05c-0.011-0.001-0.022-0.002-0.033-0.003c0-0.187,0-0.374,0-0.561
			c0.124,0.051,0.228,0.102,0.078,0.246C33.558,16.82,33.626,16.944,33.606,17.05z"/>
		<path style="fill:#272727;" d="M17.076,40.44c0.176,0.049,0.268-0.121,0.411-0.158c-0.121,0.129-0.212,0.327-0.446,0.192
			C17.052,40.464,17.064,40.452,17.076,40.44z"/>
		<path style="fill:#EFF0F7;" d="M33.567,22.675c0.011,0.001,0.022,0.002,0.032,0.003c0,0.28,0,0.561,0,0.841
			c-0.064-0.087-0.019-0.187-0.033-0.281C33.566,23.05,33.567,22.863,33.567,22.675z"/>
		<path style="fill:#272727;" d="M15.678,44.705c-0.08,0.196-0.255,0.307-0.402,0.442C15.356,44.951,15.531,44.84,15.678,44.705z"/>
		<path style="fill:#272727;" d="M12.864,44.986c0.118-0.15,0.252-0.284,0.402-0.402C13.18,44.767,13.046,44.901,12.864,44.986z"/>
		<path style="fill:#272727;" d="M17.849,39.961c0.118-0.15,0.252-0.284,0.402-0.402C18.165,39.742,18.031,39.876,17.849,39.961z"/>
		<path style="fill:#EFF0F7;" d="M9.04,37.093c-0.061,0.185-0.186,0.307-0.369,0.371C8.782,37.329,8.905,37.205,9.04,37.093z"/>
		<path style="fill:#272727;" d="M16.562,43.78c-0.053,0.169-0.201,0.253-0.322,0.362C16.294,43.973,16.441,43.889,16.562,43.78z"/>
	</g>
</g>
<g>
	<g>
		<path style="fill:#FF284B;" d="M15.6,47.443c-0.721,0.725-1.441,1.45-2.161,2.175c-0.207,0.208-0.411,0.419-0.616,0.629
			c-0.178,0.072-0.276,0.233-0.402,0.362c-0.185,0.176-0.371,0.352-0.556,0.529c-0.166,0.05-0.298,0.134-0.325,0.324
			c-0.73,0.735-1.46,1.469-2.19,2.204c-0.197,0.199-0.392,0.4-0.587,0.601C8.584,54.339,8.486,54.5,8.36,54.629
			c-0.185,0.176-0.371,0.352-0.556,0.529c-0.166,0.05-0.298,0.134-0.325,0.324c-0.73,0.735-1.46,1.469-2.19,2.204
			c-0.197,0.199-0.392,0.4-0.587,0.601c-0.178,0.072-0.276,0.233-0.402,0.362C4.114,58.824,3.929,59,3.743,59.177
			c-0.166,0.05-0.298,0.134-0.325,0.324c-0.721,0.725-1.441,1.45-2.161,2.175c-0.207,0.208-0.411,0.419-0.616,0.629
			c-0.178,0.072-0.276,0.233-0.402,0.362C0.16,62.736,0.08,62.804,0,62.873c0-17.404,0-34.807,0-52.211
			c3.256-3.115,6.461-6.301,9.608-9.526c17.836,0,35.671,0,53.507,0c-0.5,0.607-1.153,1.069-1.589,1.746
			c-0.236,0.367-0.618,0.641-0.934,0.958c-0.23,0.23-0.237,0.237-0.454,0.003c-0.152-0.164-0.359-0.279-0.442-0.503
			c0.066-0.066,0.131-0.133,0.197-0.2c0,0,0.01,0.009,0.01,0.009c0.066,0.058,0.132,0.056,0.197-0.002
			c0.067-0.054,0.134-0.107,0.201-0.161c0.06-0.067,0.06-0.134,0-0.201c-0.033,0.002-0.066,0.004-0.1,0.005
			c-0.067-0.002-0.134-0.005-0.201-0.005c-16.475,0-32.95,0-49.425-0.003c-0.13,0-0.222,0.037-0.314,0.13
			C8.852,4.325,7.439,5.736,6.028,7.147c-0.042,0.042-0.08,0.089-0.12,0.133c-0.049,0.045-0.1,0.087-0.147,0.134
			c-1.322,1.321-2.642,2.643-3.967,3.96c-0.11,0.109-0.148,0.217-0.148,0.367c0.003,15.664,0.003,31.327,0.003,46.991
			c0,0.064,0,0.128,0,0.193c0.019,0.013,0.037,0.027,0.056,0.04c0.396-0.414,0.792-0.828,1.189-1.242
			c0.397,0.244,1.875-1.591,2.162-1.882c0.363-0.367,0.706-0.753,1.057-1.131c0.202-0.217,0.845-0.661,0.798-0.972
			c1.772-1.937,3.729-3.734,5.586-5.591c1.9-1.9,3.915-3.735,5.716-5.729c1.432-1.313,2.794-2.74,4.141-4.14
			c0.326-0.322,0.667-0.63,0.974-0.969c0.232-0.256,0.473-0.431,0.834-0.368c8.57,0.22,17.157-0.206,25.727,0.013
			c0.082,0.087,0.163,0.175,0.247,0.26c0.52,0.526,1.04,1.05,1.561,1.575c-0.087,0.002-0.174,0.006-0.261,0.006
			c-8.961,0-17.923,0.001-26.884-0.003c-0.152,0-0.257,0.044-0.364,0.152c-0.968,0.973-1.93,1.953-2.918,2.907
			c-1.367,1.32-2.678,2.698-4.052,4.01c-0.435,0.415-0.846,0.854-1.293,1.256C15.758,47.169,15.626,47.253,15.6,47.443z"/>
		<path style="fill:#FF284B;" d="M59.695,3.338c0.083,0.224,0.291,0.34,0.442,0.503c0.217,0.234,0.224,0.228,0.454-0.003
			c0.316-0.316,0.698-0.59,0.934-0.958c0.436-0.677,1.089-1.139,1.589-1.746c0.268,0,0.536-0.001,0.804,0.002
			c0.025,0,0.087-0.041,0.08,0.038c-0.13,0.001-0.152,0.119-0.211,0.197c-0.157,0.15-0.313,0.3-0.47,0.45
			c-0.024-0.035-0.061-0.064-0.09-0.025c-0.02,0.027,0.024,0.049,0.053,0.063c-0.016,0.025-0.031,0.05-0.047,0.074
			c-0.115,0.091-0.22,0.19-0.289,0.322c-0.185,0.187-0.37,0.375-0.555,0.562c-0.115,0.091-0.221,0.19-0.289,0.322
			c-0.185,0.187-0.37,0.375-0.555,0.562c-0.094,0.084-0.205,0.153-0.25,0.282c-0.157,0.15-0.313,0.3-0.47,0.45
			c-0.024-0.035-0.061-0.063-0.09-0.025c-0.02,0.027,0.024,0.049,0.053,0.063c-0.029,0.038-0.058,0.076-0.087,0.114
			c-0.104,0.075-0.19,0.167-0.249,0.282c-0.185,0.187-0.37,0.375-0.555,0.562c-0.115,0.09-0.22,0.19-0.289,0.322
			c-0.185,0.187-0.37,0.375-0.555,0.562c-0.094,0.084-0.205,0.153-0.249,0.281C58.605,6.799,58.407,7,58.209,7.201
			c-0.104,0.075-0.19,0.167-0.249,0.282c-0.185,0.187-0.37,0.375-0.555,0.562c-0.115,0.09-0.22,0.19-0.289,0.322
			c-0.185,0.187-0.37,0.375-0.555,0.562c-0.115,0.09-0.22,0.19-0.289,0.322c-0.185,0.187-0.37,0.375-0.555,0.562
			c-0.104,0.075-0.19,0.167-0.249,0.282c-0.185,0.187-0.37,0.375-0.555,0.562c-0.115,0.09-0.22,0.19-0.289,0.322
			c-0.185,0.187-0.37,0.375-0.555,0.562c-0.115,0.09-0.22,0.19-0.289,0.322c-0.188,0.197-0.375,0.394-0.577,0.607
			c0.067,0,0.13,0,0.192,0c1.366,0,2.732,0.003,4.099-0.003c0.154-0.001,0.199,0.034,0.199,0.195
			c-0.004,8.644-0.004,17.289-0.003,25.933c0,0.118,0.016,0.207-0.166,0.207c-1.915-0.008-3.831-0.005-5.746-0.005
			c-0.027,0-0.053-0.004-0.08-0.006c-0.52-0.525-1.041-1.05-1.561-1.575c-0.084-0.085-0.165-0.173-0.247-0.26
			c0.08-0.002,0.161-0.006,0.241-0.006c1.909,0,3.819-0.003,5.728,0.005c0.191,0.001,0.226-0.058,0.225-0.234
			c-0.004-7.435-0.004-14.871,0.001-22.306c0-0.179-0.046-0.219-0.221-0.218c-2.231,0.006-4.462,0.003-6.693,0.003
			c0.12-0.133,0.24-0.266,0.36-0.399c0.17-0.162,0.34-0.325,0.51-0.487c0.319,0.075,0.497-0.117,0.41-0.443
			c0.109-0.118,0.218-0.237,0.327-0.355c0.148-0.148,0.297-0.296,0.445-0.444c0.412,0,0.562-0.155,0.474-0.487
			c0.096-0.105,0.191-0.21,0.287-0.315c0.17-0.162,0.339-0.325,0.509-0.487c0.319,0.075,0.497-0.118,0.41-0.443
			c0.266-0.268,0.531-0.535,0.797-0.803c0.384,0.01,0.538-0.156,0.45-0.483c0.265-0.268,0.531-0.535,0.796-0.803
			c0.374,0.01,0.496-0.123,0.41-0.443c0.267-0.269,0.534-0.538,0.801-0.808c0.049,0.069,0.116,0.052,0.181,0.037
			c0.242-0.055,0.309-0.178,0.304-0.556c0.254-0.256,0.507-0.512,0.761-0.768c0.115,0.1,0.222,0.046,0.328-0.018
			c0.2-0.12,0.16-0.316,0.158-0.5c0.253-0.255,0.505-0.51,0.758-0.764c0.261,0.11,0.446-0.007,0.449-0.284
			c0.001-0.066-0.001-0.132-0.001-0.198C59.294,3.743,59.495,3.54,59.695,3.338z"/>
		<path style="fill:#FF284B;" d="M15.6,47.443c0.026-0.19,0.159-0.274,0.325-0.324C15.825,47.235,15.724,47.351,15.6,47.443z"/>
		<path style="fill:#FF284B;" d="M11.539,51.462c0.026-0.19,0.159-0.274,0.325-0.324C11.767,51.258,11.659,51.366,11.539,51.462z"/>
		<path style="fill:#FF284B;" d="M7.479,55.482c0.026-0.19,0.159-0.274,0.325-0.324C7.707,55.277,7.599,55.385,7.479,55.482z"/>
		<path style="fill:#FF284B;" d="M3.419,59.501c0.026-0.19,0.159-0.274,0.325-0.324C3.647,59.296,3.538,59.404,3.419,59.501z"/>
		<path style="fill:#FF284B;" d="M63.28,1.861c-0.028-0.014-0.073-0.036-0.053-0.063c0.029-0.039,0.067-0.011,0.09,0.025
			C63.305,1.836,63.293,1.848,63.28,1.861z"/>
		<path style="fill:#FF284B;" d="M60.788,4.474c-0.028-0.014-0.073-0.036-0.053-0.063c0.029-0.039,0.067-0.011,0.09,0.025
			C60.813,4.448,60.8,4.461,60.788,4.474z"/>
		<path style="fill:#272727;" d="M58.646,4.426c-0.253,0.255-0.505,0.51-0.758,0.764c-0.013,0.013-0.027,0.027-0.04,0.04
			c-0.165,0.121-0.27,0.297-0.409,0.442c-0.012,0.012-0.024,0.024-0.036,0.036c-0.254,0.256-0.507,0.512-0.761,0.768
			c-0.013,0.013-0.027,0.027-0.04,0.04c-0.165,0.121-0.27,0.298-0.41,0.443c-0.012,0.012-0.023,0.024-0.035,0.035
			c-0.267,0.269-0.534,0.538-0.801,0.808c-0.16,0.126-0.269,0.299-0.41,0.443c-0.265,0.268-0.531,0.535-0.796,0.803
			c-0.179,0.135-0.295,0.326-0.45,0.483c-0.266,0.268-0.531,0.535-0.797,0.803c-0.165,0.121-0.27,0.299-0.41,0.443
			c-0.17,0.162-0.339,0.325-0.509,0.487c-0.139-0.063-0.253-0.028-0.351,0.084c-0.084,0.097-0.13,0.198-0.053,0.321
			c-0.102,0.148-0.266,0.24-0.357,0.398c-0.148,0.148-0.297,0.296-0.445,0.444c-0.059,0-0.119-0.007-0.176,0.002
			c-0.217,0.032-0.34,0.237-0.268,0.443c-0.098,0.118-0.195,0.236-0.293,0.354c-0.17,0.162-0.34,0.325-0.51,0.487
			c-0.138,0-0.287-0.021-0.373,0.109c-0.057,0.086-0.124,0.232,0.013,0.291c2.231,0,4.462,0.003,6.693-0.003
			c0.175,0,0.221,0.039,0.221,0.218c-0.005,7.435-0.005,14.871-0.001,22.306c0,0.176-0.034,0.235-0.225,0.234
			c-1.909-0.008-3.819-0.005-5.728-0.005c-0.08,0-0.161,0.004-0.241,0.006c-8.57-0.22-17.157,0.206-25.727-0.013
			c0.179-0.448,0.013-1.265,0.003-1.75c-0.012-0.608,0.047-1.264-0.046-1.865c0.408-0.413,0.815-0.826,1.223-1.238
			c0.779-0.786,1.573-1.557,2.321-2.373c0.08-0.08,0.161-0.161,0.241-0.241c1.578-1.429,3.117-3.002,4.543-4.582
			c0.298-0.293,0.58-0.643,0.902-0.906c0.309-0.253,0.535-0.188,0.902-0.227c0.817,0,1.634,0,2.452,0c1.273,0,2.546,0,3.82,0
			c1.26,0,2.519,0,3.779,0c0.75,0.002,1.5,0.008,2.249,0.004c0.131-0.001,0.168,0.034,0.165,0.165
			c-0.007,0.375,0.001,0.749,0.003,1.124c-0.002,0.716-0.009,1.433-0.003,2.149c0.001,0.151-0.037,0.187-0.187,0.186
			c-0.663-0.007-1.326,0.001-1.989,0.003c-0.455,0-0.911,0-1.366,0c-1.327,0-2.653,0-3.98,0c-0.241,0-0.482,0-0.724,0
			c-1.139,0-2.278,0-3.417,0c-1.044-0.002-2.089-0.002-3.133-0.009c-0.129-0.001-0.22,0.035-0.313,0.128
			c-1.919,1.924-3.842,3.845-5.764,5.767c-0.042,0.042-0.079,0.088-0.119,0.133c-0.157-0.008-1.533,1.352-1.501,1.485
			c0.959,0,1.914,0,2.87,0c0.242,0,0.483,0,0.725,0c1.326,0,2.653,0,3.979,0c0.443,0,0.885,0,1.328,0c0.884,0,1.768,0,2.652,0
			c0.925,0,1.849,0,2.774,0c1.287,0,2.573,0,3.86,0c1.326,0,2.653,0,3.979,0c0.074,0.002,0.147,0.006,0.221,0.006
			c2.325,0,4.649,0.001,6.974-0.002c0.184,0,0.431,0.083,0.536-0.038c0.091-0.104,0.028-0.344,0.028-0.524
			c-0.001-1.5-0.004-3-0.006-4.5c0-0.857,0-1.715,0-2.572c0-0.831,0-1.661,0-2.492c0-0.616,0-1.232,0-1.848c0-0.858,0-1.716,0-2.573
			c0-0.991,0-1.983,0-2.974c0.002-0.321,0.001-0.643,0.009-0.964c0.002-0.097-0.029-0.124-0.125-0.123
			c-0.723,0.006-1.447,0.006-2.17,0.009c-1.273,0-2.546,0-3.819,0c-0.817,0-1.634,0-2.452,0c-0.456,0-0.911,0-1.367,0
			c-1.004-0.002-2.009-0.002-3.013-0.009c-0.129-0.001-0.22,0.035-0.313,0.128c-1.825,1.83-3.654,3.657-5.481,5.485
			c-0.042,0.042-0.08,0.088-0.119,0.133c-0.555,0.548-1.111,1.096-1.679,1.657c-0.006-0.073-0.01-0.119-0.014-0.166
			c0-0.281,0-0.562,0-0.843c0-0.429,0-0.857-0.001-1.286c0-0.295,0.001-0.589,0.001-0.884c0-0.428,0-0.857-0.001-1.285
			c0.001-0.295,0.001-0.59,0.002-0.884c0.001-0.282,0.002-0.563,0.003-0.845c-0.014-0.282,0.04-0.566-0.032-0.846
			c0.031-0.208-0.06-0.266-0.261-0.246c-0.209,0.021-0.421,0.009-0.631,0.011c-0.335,0-0.67,0-1.004,0c-0.596,0-1.191,0-1.824,0
			c0.12-0.129,0.212-0.229,0.304-0.328c0.353,0.022,0.394-0.021,0.312-0.326c0.07-0.079,0.14-0.158,0.21-0.237
			c0.101,0.021,0.206,0.089,0.3-0.01c0.093-0.099,0.061-0.208,0.013-0.316c0.054-0.077,0.118-0.145,0.197-0.199
			c0.359,0.007,0.429-0.071,0.326-0.364c0.054-0.077,0.119-0.144,0.196-0.199c0.339,0.04,0.431-0.063,0.326-0.364
			c0.054-0.077,0.119-0.144,0.196-0.199c0.339,0.04,0.432-0.063,0.327-0.364c0.054-0.077,0.118-0.145,0.196-0.199
			c0.339,0.041,0.432-0.063,0.327-0.364c0.054-0.077,0.118-0.145,0.196-0.199c0.264,0.039,0.575-0.288,0.215-0.359
			c-0.004-0.523-0.009-1.045-0.013-1.568c0-0.348,0-0.697,0-1.045c0-0.549,0-1.098,0-1.647c0-0.858,0-1.716,0-2.573
			c0.002-0.08-0.001-0.161,0.008-0.24c0.01-0.098-0.027-0.124-0.123-0.123C32.053,5.198,30.74,5.2,29.427,5.202
			c-1.447,0-2.895,0-4.342,0c-1.541,0-3.082,0-4.622,0c-0.074-0.002-0.147-0.006-0.221-0.006c-2.365,0-4.73,0-7.095,0
			c-0.403,0-0.404,0-0.403,0.403c0.002,1.54,0.004,3.081,0.007,4.621c-0.002,0.75-0.003,1.5-0.009,2.25
			c-0.001,0.097,0.028,0.125,0.124,0.123c0.335-0.007,0.67-0.006,1.004-0.009c1.447,0,2.894,0,4.342,0c1.32,0,2.641,0,3.995,0
			c-0.134,0.143-0.237,0.254-0.34,0.364c-1.322,1.123-2.498,2.484-3.725,3.711c-1.227,1.227-2.589,2.402-3.712,3.725
			c-0.054,0.049-0.109,0.097-0.161,0.148c-0.508,0.503-1.016,1.006-1.524,1.509c-0.001-0.087-0.002-0.174-0.002-0.261
			c0-2.653,0-5.305,0-7.958c0-0.266,0-0.266-0.275-0.266c-0.389,0-0.777,0-1.166,0c-0.004-0.777-0.009-1.554-0.013-2.331
			c0.107-1.002,0.006-2.077,0.006-3.085c0-0.264,0.144-2.85-0.051-2.905c-1.269,1.203-2.48,2.471-3.723,3.701
			C7.02,8.487,6.549,8.007,6.077,7.528C6.01,7.461,5.875,7.422,5.908,7.281c0.04-0.045,0.078-0.091,0.12-0.133
			c1.411-1.412,2.824-2.822,4.233-4.237c0.092-0.093,0.184-0.13,0.314-0.13c16.475,0.003,32.95,0.003,49.425,0.003
			c0.067,0,0.134,0.003,0.201,0.005c-0.103,0.117-0.206,0.233-0.309,0.35c-0.066,0.067-0.131,0.133-0.197,0.2
			c-0.201,0.202-0.401,0.404-0.602,0.606c-0.013,0.013-0.027,0.027-0.04,0.04c-0.164,0.121-0.27,0.295-0.406,0.442
			C58.647,4.427,58.646,4.426,58.646,4.426z M48.884,5.202c-1.059,0-2.118,0-3.177,0c-0.027-0.002-0.053-0.006-0.08-0.006
			c-3.631,0-7.262,0.001-10.893-0.005c-0.159,0-0.164,0.063-0.164,0.187c0.003,2.318,0.002,4.635,0.002,6.953
			c0,0.047-0.002,0.094,0.004,0.14c0.006,0.048,0.045,0.036,0.077,0.033c1.045,0,2.091,0,3.136,0c0.348,0,0.696,0,1.045,0
			c0.02,0.002,0.04,0.006,0.06,0.006c2.813,0,5.626,0,8.439,0.004c0.109,0,0.169-0.048,0.237-0.116
			c2.358-2.359,4.717-4.717,7.075-7.076c0.033-0.033,0.091-0.055,0.087-0.12c-1.603,0-3.203,0-4.802,0
			C49.58,5.202,49.232,5.202,48.884,5.202z"/>
		<path style="fill:#272727;" d="M5.908,7.281C5.875,7.422,6.01,7.461,6.077,7.528C6.549,8.007,7.02,8.487,7.522,8.935
			c-0.044,0.049-0.087,0.1-0.134,0.147c-1.165,1.165-2.33,2.33-3.495,3.496c-0.06,0.06-0.119,0.11-0.118,0.215
			c0.007,1.071,0.008,2.143,0.01,3.214c0,1.045,0,2.091,0,3.136c0,0.938,0,1.876,0,2.814c-0.002,0.507-0.007,1.014-0.006,1.521
			c0.001,1.302,0.004,2.603,0.006,3.905c-0.002,0.26-0.007,0.52-0.006,0.78c0.002,1.468,0.004,2.936,0.006,4.404
			c0,0.597,0,1.194,0,1.815c0.853-0.788,1.651-1.643,2.472-2.464c0.801-0.801,1.71-1.569,2.43-2.443
			c0.848-0.843,1.695-1.687,2.544-2.528c0.046-0.046,0.066-0.091,0.066-0.156c-0.004-1.397-0.006-2.794-0.008-4.19
			c0.002-0.694,0.007-1.388,0.006-2.082c0-1.115-0.004-2.229-0.006-3.344c0-0.938,0-1.876,0-2.814
			c0.004-0.268,0.009-0.536,0.013-0.804c0.389,0,0.777,0,1.166,0c0.275,0,0.275,0,0.275,0.266c0,2.653,0,5.305,0,7.958
			c0,0.087,0.001,0.174,0.002,0.261c0.002,0.374,0.003,0.747,0.005,1.121c-0.002,0.169-0.073,0.536,0.065,0.633
			c0.116,0.082,0.579,0.005,0.732,0.003c1.286,0,2.573,0,3.859,0c1.032,0,2.064,0,3.095,0c0.322,0,0.644,0,0.966,0
			c0.236,0,0.472,0,0.738,0c-1.582,1.782-3.368,3.411-5.043,5.107c-1.177,1.064-2.243,2.27-3.362,3.395
			c-1.101,1.106-2.245,2.178-3.311,3.318c-0.119,0.096-0.226,0.203-0.322,0.322c-0.049,0.044-0.101,0.086-0.147,0.134
			c-0.697,0.712-1.406,1.412-2.102,2.125c-1.318,1.352-2.663,2.678-4.001,4.01c-0.109,0.109-0.171,0.214-0.134,0.367
			c0,0.281,0,0.563,0,0.844c0,0.536,0,1.072,0,1.608c0,0.027,0,0.054,0,0.08c0,0.857,0,1.715,0,2.572c0,0.844,0,1.688,0,2.532
			c0,1.186,0,2.372,0,3.621c1.295-1.319,2.597-2.631,3.9-3.942c0.343,0.103,1.05-0.554,0.875-0.889
			c1.299-1.436,2.745-2.76,4.109-4.136c0.337,0.098,1.007-0.515,0.835-0.849c1.299-1.436,2.745-2.76,4.109-4.135
			c0.359,0.169,1.003-0.52,0.875-0.889c0.049-0.053,0.096-0.108,0.147-0.16c0.622-0.629,1.245-1.257,1.868-1.885
			c0.698-0.697,1.396-1.394,2.095-2.091c0.36,0.169,1.002-0.524,0.876-0.889c0.203-0.226,0.418-0.44,0.644-0.644
			c0.093,0.601,0.034,1.257,0.046,1.865c0.01,0.486,0.176,1.303-0.003,1.75c-0.361-0.063-0.603,0.112-0.834,0.368
			c-0.307,0.339-0.648,0.648-0.974,0.969c-0.314-0.232-1.924,1.642-2.203,1.925c-0.368,0.373-0.719,0.761-1.078,1.143
			c-0.224,0.239-0.906,0.705-0.86,1.072c-1.8,1.994-3.815,3.829-5.716,5.729c-1.857,1.857-3.814,3.653-5.586,5.591
			c-1.381,1.264-2.729,2.628-4.018,3.985c-0.396,0.414-0.792,0.828-1.189,1.242c-0.019-0.013-0.037-0.027-0.056-0.04
			c0-0.064,0-0.128,0-0.193c0-15.664,0-31.327-0.003-46.991c0-0.15,0.038-0.258,0.148-0.367c1.325-1.317,2.645-2.64,3.967-3.96
			C5.807,7.368,5.859,7.325,5.908,7.281z"/>
		<path style="fill:#272727;" d="M18.213,42.419c-0.045-0.367,0.636-0.833,0.86-1.072c0.358-0.382,0.71-0.771,1.078-1.143
			c0.279-0.283,1.889-2.156,2.203-1.925C21.007,39.679,19.644,41.105,18.213,42.419z"/>
		<path style="fill:#FF284B;" d="M2.892,57.724c1.289-1.358,2.637-2.722,4.018-3.985c0.047,0.312-0.597,0.756-0.798,0.972
			c-0.352,0.378-0.694,0.763-1.057,1.131C4.767,56.132,3.289,57.968,2.892,57.724z"/>
		<path style="fill:#FF284B;" d="M59.892,3.139c0.103-0.117,0.206-0.233,0.309-0.35c0.033-0.002,0.066-0.004,0.1-0.005
			c0,0.067,0,0.134,0,0.201c-0.067,0.054-0.134,0.107-0.201,0.161c-0.066,0.001-0.132,0.001-0.197,0.002
			C59.903,3.147,59.892,3.139,59.892,3.139z"/>
		<path style="fill:#FF284B;" d="M60.301,2.985c0-0.067,0-0.134,0-0.201C60.361,2.851,60.361,2.918,60.301,2.985z"/>
		<path style="fill:#FF284B;" d="M59.903,3.147c0.066-0.001,0.132-0.001,0.197-0.002C60.035,3.204,59.969,3.206,59.903,3.147z"/>
		<path style="fill:#FF284B;" d="M51.223,12.068c0.091-0.158,0.255-0.25,0.357-0.398c0.039-0.03,0.078-0.06,0.117-0.089
			C51.785,11.913,51.635,12.068,51.223,12.068z"/>
		<path style="fill:#FF284B;" d="M53.699,9.533c0.154-0.157,0.271-0.349,0.45-0.483C54.237,9.377,54.083,9.542,53.699,9.533z"/>
		<path style="fill:#FF284B;" d="M50.041,13.311c0.098-0.118,0.195-0.236,0.293-0.354c0.039-0.03,0.078-0.06,0.117-0.089
			C50.537,13.193,50.36,13.385,50.041,13.311z"/>
		<path style="fill:#FF284B;" d="M52.493,10.779c0.14-0.145,0.245-0.322,0.41-0.443C52.99,10.661,52.812,10.853,52.493,10.779z"/>
		<path style="fill:#272727;" d="M50.45,12.867c-0.039,0.03-0.078,0.06-0.117,0.089c-0.072-0.206,0.051-0.412,0.268-0.443
			c0.058-0.008,0.117-0.001,0.176-0.002C50.669,12.63,50.56,12.749,50.45,12.867z"/>
		<path style="fill:#FF284B;" d="M54.945,8.246c0.141-0.144,0.25-0.317,0.41-0.443C55.441,8.124,55.319,8.256,54.945,8.246z"/>
		<path style="fill:#272727;" d="M51.697,11.581c-0.039,0.03-0.078,0.06-0.117,0.089c-0.077-0.123-0.031-0.224,0.053-0.321
			c0.098-0.112,0.212-0.147,0.351-0.084C51.888,11.371,51.792,11.476,51.697,11.581z"/>
		<path style="fill:#272727;" d="M49.171,14.197c-0.137-0.058-0.07-0.205-0.013-0.291c0.086-0.13,0.235-0.109,0.373-0.109
			C49.411,13.931,49.291,14.064,49.171,14.197z"/>
		<path style="fill:#FF284B;" d="M56.601,6.517c0.013-0.013,0.027-0.027,0.04-0.04c0.005,0.377-0.062,0.501-0.304,0.556
			c-0.065,0.015-0.132,0.031-0.181-0.037c0.012-0.012,0.023-0.024,0.035-0.035C56.53,6.969,56.606,6.887,56.601,6.517z"/>
		<path style="fill:#FF284B;" d="M57.402,5.709c0.012-0.012,0.024-0.024,0.036-0.036c0.092,0.064,0.171,0.032,0.255-0.023
			c0.158-0.103,0.173-0.254,0.154-0.42c0.013-0.013,0.027-0.027,0.04-0.04c0.003,0.184,0.042,0.38-0.158,0.5
			C57.624,5.755,57.517,5.809,57.402,5.709z"/>
		<path style="fill:#FF284B;" d="M59.053,3.985c0.013-0.013,0.027-0.027,0.04-0.04c0.001,0.066,0.002,0.132,0.001,0.198
			c-0.004,0.277-0.188,0.394-0.449,0.284c0,0,0.002,0.001,0.002,0.001C58.981,4.438,59.058,4.353,59.053,3.985z"/>
		<path style="fill:#EEEFF7;" d="M3.786,47.68c0-0.857,0-1.715,0-2.572c0.315,0.023,0.859-0.488,1.116-0.654
			c0.461-0.297,0.92-0.598,1.38-0.897c0.895-0.582,1.791-1.165,2.686-1.747c3.129-2.033,6.258-4.069,9.394-6.093
			c1.614-1.042,3.225-2.09,4.835-3.139c0.764-0.498,1.529-0.995,2.293-1.492c0.422-0.275,0.845-0.549,1.267-0.824
			c0.226-0.147,0.627-0.544,0.906-0.546c-0.748,0.816-1.542,1.587-2.321,2.373c-0.408,0.412-0.815,0.825-1.223,1.238
			c-0.226,0.203-0.44,0.418-0.644,0.644c-0.302,0.286-0.607,0.569-0.876,0.889c-0.698,0.697-1.396,1.394-2.095,2.091
			c-0.084-0.01-0.152,0.018-0.223,0.065c-0.357,0.234-0.72,0.459-1.078,0.691c-1.26,0.816-2.518,1.633-3.777,2.45
			s-2.518,1.633-3.777,2.45c-1.533,0.995-3.066,1.99-4.598,2.986c-0.928,0.604-1.852,1.213-2.784,1.811
			C4.114,47.503,3.971,47.631,3.786,47.68z"/>
		<path style="fill:#F2F3F9;" d="M49.929,5.202c1.6,0,3.199,0,4.802,0c0.005,0.065-0.053,0.087-0.087,0.12
			c-2.358,2.359-4.717,4.717-7.075,7.076c-0.067,0.067-0.128,0.116-0.237,0.116c-2.813-0.004-5.626-0.003-8.439-0.004
			c-0.02,0-0.04-0.004-0.06-0.006c0.098-0.174,0.288-0.227,0.441-0.326c1.016-0.664,2.036-1.32,3.054-1.981
			c1.504-0.976,3.007-1.955,4.511-2.932c0.749-0.486,1.505-0.963,2.248-1.459C49.375,5.616,49.692,5.463,49.929,5.202z"/>
		<path style="fill:#F4F5FA;" d="M17.407,23.798c-1.286,0-2.573,0-3.859,0c0.021-0.248,0.741-0.544,0.939-0.673
			c0.436-0.283,0.873-0.565,1.31-0.848c0.853-0.552,1.705-1.104,2.557-1.656c1.694-1.098,3.386-2.2,5.078-3.3
			c1.677-1.089,3.357-2.172,5.034-3.262c1.658-1.078,3.284-2.279,5.015-3.236c0.004,0.523,0.009,1.045,0.013,1.568
			c0.006,0.166-0.177,0.219-0.215,0.359c-0.078,0.054-0.141,0.122-0.196,0.199c-0.127,0.105-0.25,0.214-0.327,0.364
			c-0.077,0.054-0.141,0.122-0.196,0.199c-0.127,0.105-0.249,0.214-0.327,0.364c-0.077,0.054-0.142,0.122-0.196,0.199
			c-0.126,0.105-0.249,0.214-0.326,0.364c-0.077,0.054-0.142,0.121-0.196,0.199c-0.011,0.003-0.022,0.005-0.034,0.006
			c-0.124,0.063-0.255,0.115-0.371,0.19c-0.998,0.644-1.993,1.292-2.99,1.939c-1.254,0.813-2.509,1.625-3.763,2.439
			c-1.326,0.861-2.652,1.724-3.978,2.586c-0.951,0.618-1.904,1.234-2.856,1.85C17.466,23.683,17.412,23.722,17.407,23.798z"/>
		<path style="fill:#EFF0F7;" d="M3.786,45.027c0-0.536,0-1.072,0-1.608c0.228-0.028,0.531-0.311,0.717-0.432
			c0.239-0.155,0.478-0.309,0.717-0.464c0.54-0.349,1.08-0.699,1.619-1.05c1.024-0.665,2.048-1.331,3.072-1.995
			c3.834-2.488,7.669-4.973,11.503-7.461c1.868-1.212,3.735-2.425,5.604-3.637c0.928-0.602,1.855-1.206,2.782-1.81
			c0.476-0.311,0.953-0.621,1.431-0.929c0.382-0.247,0.781-0.604,1.216-0.749c-1.426,1.58-2.965,3.153-4.543,4.582
			c-0.437,0.068-0.949,0.548-1.314,0.785c-0.422,0.274-0.843,0.548-1.265,0.821c-0.877,0.57-1.754,1.139-2.631,1.708
			c-3.178,2.061-6.355,4.124-9.533,6.184c-1.607,1.041-3.212,2.084-4.818,3.127c-0.792,0.515-1.584,1.03-2.376,1.547
			c-0.423,0.276-0.846,0.553-1.269,0.828C4.432,44.648,4.103,44.96,3.786,45.027z"/>
		<path style="fill:#F6F6FB;" d="M33.481,5.557c0,0.858,0,1.716,0,2.573c-0.826,0.416-1.595,1.003-2.371,1.505
			c-0.79,0.511-1.578,1.025-2.367,1.537c-1.638,1.063-3.276,2.128-4.916,3.19c-1.62,1.05-3.239,2.101-4.857,3.154
			c-0.43,0.28-4.375,3.052-4.54,2.867c1.123-1.322,2.485-2.498,3.712-3.725c1.227-1.227,2.403-2.588,3.725-3.711
			c0.161,0.183,2.375-1.428,2.684-1.629c0.982-0.636,1.966-1.271,2.948-1.908c1.033-0.67,2.065-1.342,3.097-2.013
			C31.531,6.79,32.467,6.025,33.481,5.557z"/>
		<path style="fill:#F4F5FA;" d="M34.653,12.504c-0.032,0.003-0.071,0.015-0.077-0.033c-0.005-0.046-0.004-0.093-0.004-0.14
			c0-2.318,0.001-4.635-0.002-6.953c0-0.123,0.005-0.187,0.164-0.187c3.631,0.005,7.262,0.004,10.893,0.005
			c0.027,0,0.053,0.004,0.08,0.006c-1.086,0.703-2.172,1.406-3.257,2.11c-1.555,1.009-3.11,2.021-4.665,3.03
			c-0.996,0.646-1.993,1.291-2.988,1.938C34.718,12.331,34.642,12.392,34.653,12.504z"/>
		<path style="fill:#EBECF5;" d="M54.144,20.348c0,0.858,0,1.716,0,2.573c-0.425,0.214-0.805,0.5-1.204,0.755
			c-1.271,0.812-2.531,1.64-3.797,2.461c-1.254,0.814-2.509,1.625-3.763,2.44c-1.449,0.942-2.896,1.887-4.346,2.829
			c-1.701,1.106-3.403,2.209-5.105,3.313c-0.068,0.044-0.143,0.078-0.151,0.172c-0.884,0-1.768,0-2.652,0
			c0.029-0.026,0.056-0.057,0.089-0.078c1.253-0.815,2.507-1.629,3.761-2.443c1.008-0.654,2.018-1.304,3.025-1.959
			c1.449-0.942,2.897-1.887,4.345-2.83c0.078-0.051,0.161-0.098,0.197-0.192c0.663-0.002,1.326-0.01,1.989-0.003
			c0.15,0.002,0.188-0.035,0.187-0.186c-0.007-0.716,0-1.433,0.003-2.149c0.056,0.004,0.1-0.019,0.148-0.049
			c1.053-0.681,2.109-1.358,3.161-2.041c1.198-0.777,2.39-1.563,3.592-2.334C53.785,20.521,53.928,20.362,54.144,20.348z"/>
		<path style="fill:#FAFAFD;" d="M3.786,16.007c-0.002-1.071-0.003-2.143-0.01-3.214c-0.001-0.105,0.058-0.155,0.118-0.215
			c1.165-1.165,2.33-2.33,3.495-3.496c0.047-0.047,0.089-0.098,0.134-0.147c1.243-1.229,2.454-2.498,3.723-3.701
			c0.195,0.055,0.051,2.641,0.051,2.905c0,1.008,0.1,2.083-0.006,3.085c-0.085-0.012-0.152,0.025-0.221,0.072
			c-0.244,0.162-0.493,0.317-0.739,0.477c-1.553,1.009-3.105,2.02-4.659,3.027C5.044,15.205,4.43,15.63,3.786,16.007z"/>
		<path style="fill:#EFF0F7;" d="M32.447,24.892c-0.435,0.145-0.834,0.503-1.216,0.749c-0.478,0.308-0.954,0.619-1.431,0.929
			c-0.927,0.604-1.854,1.209-2.782,1.81c-1.869,1.211-3.736,2.424-5.604,3.637c-3.834,2.488-7.669,4.974-11.503,7.461
			c-1.024,0.665-2.048,1.33-3.072,1.995c-0.54,0.35-1.079,0.7-1.619,1.05c-0.239,0.155-0.478,0.309-0.717,0.464
			c-0.187,0.121-0.489,0.404-0.717,0.432c0-0.281,0-0.563,0-0.844c0.613-0.269,1.186-0.736,1.748-1.1
			c0.559-0.363,1.118-0.726,1.678-1.089c1.058-0.686,2.118-1.37,3.176-2.056c3.89-2.522,7.776-5.05,11.665-7.573
			c1.977-1.283,3.955-2.563,5.931-3.847c0.961-0.624,1.922-1.249,2.882-1.875c0.478-0.312,0.957-0.624,1.436-0.935
			c0.345-0.224,0.851-0.713,1.267-0.777c0.009,0.067-0.023,0.141,0.034,0.201c0.004,0.046,0.008,0.093,0.014,0.166
			c0.568-0.561,1.124-1.109,1.679-1.657c0.093,0.097,0.159,0.003,0.224-0.039c0.596-0.38,1.192-0.76,1.784-1.145
			c1.381-0.896,2.761-1.795,4.142-2.693c0.894-0.581,1.789-1.162,2.685-1.74c0.048-0.031,0.089-0.059,0.091-0.12
			c0.456,0,0.911,0,1.367,0c-0.005,0.076-0.059,0.115-0.117,0.152c-1.038,0.669-2.077,1.336-3.113,2.007
			c-1.3,0.842-2.598,1.686-3.897,2.529c-1.26,0.818-2.521,1.633-3.778,2.454c-0.149,0.097-0.319,0.171-0.432,0.32
			c-0.367,0.039-0.594-0.025-0.902,0.227C33.027,24.249,32.746,24.599,32.447,24.892z"/>
		<path style="fill:#E9EBF5;" d="M54.144,24.769c0,0.831,0,1.661,0,2.492c-0.065-0.007-0.112,0.027-0.164,0.061
			c-0.217,0.144-0.438,0.282-0.656,0.423c-1.255,0.813-2.509,1.626-3.763,2.439c-1.265,0.821-2.53,1.643-3.795,2.464
			c-1.024,0.665-2.05,1.328-3.073,1.995c-0.104,0.068-0.229,0.117-0.28,0.247c-1.287,0-2.573,0-3.86,0
			c0.02-0.092,0.105-0.115,0.169-0.157c1.001-0.651,2.004-1.299,3.005-1.949c1.265-0.821,2.529-1.642,3.793-2.463
			c1.259-0.817,2.519-1.633,3.777-2.451c1.465-0.953,2.927-1.91,4.395-2.859C53.834,24.921,53.961,24.79,54.144,24.769z"/>
		<path style="fill:#F5F6FA;" d="M14.43,20.384c0.165,0.185,4.11-2.587,4.54-2.867c1.618-1.053,3.237-2.104,4.857-3.154
			c1.639-1.062,3.277-2.127,4.916-3.19c0.789-0.512,1.577-1.025,2.367-1.537c0.776-0.503,1.545-1.089,2.371-1.505
			c0,0.549,0,1.098,0,1.647c-0.069,0.008-0.123,0.047-0.179,0.084c-0.717,0.465-1.435,0.927-2.151,1.392
			c-1.304,0.846-2.607,1.695-3.912,2.541c-0.985,0.639-1.972,1.276-2.957,1.916c-1.265,0.821-2.53,1.643-3.795,2.464
			c-1.259,0.817-2.52,1.633-3.778,2.452c-1.197,0.779-2.392,1.561-3.591,2.337c-0.116,0.075-0.225,0.17-0.367,0.198
			c-0.002-0.374-0.003-0.747-0.005-1.121c0.508-0.503,1.016-1.006,1.524-1.509C14.321,20.481,14.376,20.433,14.43,20.384z"/>
		<path style="fill:#F2F3F9;" d="M17.164,28.905c1.675-1.695,3.461-3.325,5.043-5.107c-0.267,0-0.503,0-0.738,0
			c0.041-0.063,0.093-0.113,0.156-0.153c0.287-0.182,0.574-0.364,0.86-0.549c1.014-0.655,2.028-1.31,3.04-1.967
			c1.275-0.828,2.548-1.659,3.823-2.486c1.018-0.661,2.038-1.318,3.055-1.98c0.104-0.068,0.229-0.117,0.28-0.247
			c0.211-0.002,0.423,0.01,0.631-0.011c0.2-0.02,0.292,0.038,0.261,0.246c0,0.281,0,0.562,0,0.843c0,0.281,0,0.563,0,0.844
			c-0.005,0.028-0.009,0.055-0.014,0.083c-2.809,1.802-5.605,3.625-8.407,5.437c-1.372,0.888-2.743,1.778-4.113,2.669
			c-0.698,0.454-1.396,0.908-2.093,1.362C18.704,28.046,17.404,29.111,17.164,28.905z"/>
		<path style="fill:#F7F7FB;" d="M33.481,5.557c-1.013,0.468-1.949,1.233-2.884,1.841c-1.032,0.671-2.064,1.343-3.097,2.013
			c-0.982,0.637-1.966,1.271-2.948,1.908c-0.309,0.2-2.523,1.812-2.684,1.629c0.103-0.11,0.206-0.221,0.34-0.364
			c-1.355,0-2.675,0-3.995,0c0.225-0.245,0.523-0.387,0.795-0.565c1.018-0.662,2.038-1.319,3.056-1.98
			c1.544-1.003,3.086-2.007,4.629-3.01c0.749-0.487,1.504-0.966,2.249-1.459c0.168-0.111,0.369-0.186,0.485-0.368
			c1.313-0.002,2.626-0.004,3.939-0.009c0.096,0,0.134,0.026,0.123,0.123C33.48,5.396,33.483,5.477,33.481,5.557z"/>
		<path style="fill:#F8F9FC;" d="M29.427,5.202c-0.116,0.182-0.317,0.257-0.485,0.368c-0.745,0.493-1.5,0.972-2.249,1.459
			c-1.544,1.003-3.086,2.007-4.629,3.01c-1.018,0.661-2.038,1.319-3.056,1.98c-0.273,0.177-0.57,0.32-0.795,0.565
			c-1.447,0-2.894,0-4.342,0c0.225-0.245,0.523-0.388,0.796-0.565c0.98-0.636,1.962-1.268,2.942-1.905
			c1.545-1.003,3.089-2.009,4.634-3.013c0.745-0.484,1.495-0.959,2.235-1.449c0.21-0.139,0.447-0.245,0.608-0.451
			C26.532,5.202,27.979,5.202,29.427,5.202z"/>
		<path style="fill:#EAEBF5;" d="M54.144,24.769c-0.183,0.02-0.309,0.152-0.451,0.243c-1.468,0.948-2.93,1.906-4.395,2.859
			c-1.258,0.818-2.518,1.634-3.777,2.451c-1.265,0.821-2.529,1.642-3.793,2.463c-1.002,0.65-2.004,1.299-3.005,1.949
			c-0.064,0.042-0.15,0.065-0.169,0.157c-0.925,0-1.849,0-2.774,0c0.008-0.095,0.084-0.129,0.151-0.172
			c1.702-1.104,3.404-2.208,5.105-3.313c1.449-0.942,2.896-1.887,4.346-2.829c1.253-0.815,2.509-1.626,3.763-2.44
			c1.265-0.821,2.526-1.648,3.797-2.461c0.399-0.255,0.779-0.542,1.204-0.755C54.144,23.537,54.144,24.153,54.144,24.769z"/>
		<path style="fill:#F9F9FC;" d="M25.085,5.202c-0.161,0.206-0.398,0.312-0.608,0.451c-0.74,0.49-1.49,0.965-2.235,1.449
			c-1.545,1.003-3.089,2.009-4.634,3.013c-0.98,0.636-1.962,1.268-2.942,1.905c-0.273,0.177-0.571,0.32-0.796,0.565
			c-0.335,0.002-0.67,0.001-1.004,0.009c-0.096,0.002-0.125-0.026-0.124-0.123c0.006-0.75,0.006-1.5,0.009-2.25
			c0.078,0.006,0.141-0.031,0.204-0.072c0.185-0.12,0.371-0.237,0.556-0.357c1.326-0.862,2.652-1.725,3.978-2.586
			c0.952-0.618,1.904-1.234,2.857-1.85c0.058-0.037,0.111-0.076,0.117-0.152C22.003,5.202,23.544,5.202,25.085,5.202z"/>
		<path style="fill:#ECEDF6;" d="M31.799,34.891c-1.326,0-2.653,0-3.979,0c0.034-0.061,0.091-0.095,0.148-0.131
			c0.344-0.218,0.686-0.438,1.028-0.659c1.03-0.668,2.06-1.336,3.09-2.005c1.494-0.97,2.988-1.941,4.483-2.91
			c0.756-0.49,1.514-0.976,2.266-1.472c0.134-0.088,0.312-0.139,0.361-0.325c1.327,0,2.653,0,3.98,0
			c-0.01,0.117-0.119,0.139-0.192,0.187c-1.236,0.805-2.476,1.605-3.713,2.408c-1.512,0.981-3.023,1.963-4.535,2.944
			c-0.739,0.48-1.483,0.952-2.216,1.44C32.272,34.532,31.995,34.658,31.799,34.891z"/>
		<path style="fill:#EEEFF7;" d="M48.039,16.295c1.273,0,2.546,0,3.819,0c-0.048,0.075-0.116,0.125-0.191,0.173
			c-1.063,0.689-2.124,1.382-3.187,2.071c-0.962,0.624-1.926,1.245-2.888,1.87c-1.611,1.046-3.221,2.093-4.83,3.14
			c-0.089,0.058-0.184,0.111-0.239,0.208c-1.273,0-2.546,0-3.82,0c0-0.084,0.071-0.106,0.126-0.142
			c0.201-0.132,0.402-0.263,0.603-0.394c0.975-0.631,1.952-1.259,2.926-1.891c1.545-1.003,3.088-2.009,4.633-3.012
			c0.744-0.484,1.496-0.956,2.234-1.449C47.5,16.685,47.808,16.543,48.039,16.295z"/>
		<path style="fill:#EDEEF6;" d="M40.523,23.758c0.055-0.098,0.151-0.151,0.239-0.208c1.609-1.048,3.219-2.095,4.83-3.14
			c0.962-0.624,1.926-1.245,2.888-1.87c1.063-0.69,2.124-1.382,3.187-2.071c0.074-0.048,0.142-0.099,0.191-0.173
			c0.723-0.002,1.447-0.003,2.17-0.009c0.095-0.001,0.127,0.026,0.125,0.123c-0.008,0.321-0.006,0.643-0.009,0.964
			c-0.083-0.015-0.137,0.044-0.197,0.083c-0.471,0.303-0.942,0.607-1.412,0.912c-1.533,0.995-3.065,1.991-4.598,2.986
			c-1.024,0.664-2.05,1.325-3.071,1.994c-0.193,0.127-0.408,0.228-0.564,0.409C43.042,23.758,41.783,23.758,40.523,23.758z"/>
		<path style="fill:#EDEEF6;" d="M27.095,34.891c-0.955,0-1.911,0-2.87,0c-0.032-0.133,1.344-1.493,1.501-1.485
			c0.082,0.078,0.132-0.006,0.186-0.041c0.557-0.354,1.113-0.708,1.667-1.067c1.554-1.008,3.107-2.019,4.661-3.028
			c0.738-0.479,1.48-0.951,2.213-1.438c0.207-0.138,0.446-0.237,0.602-0.445c1.139,0,2.278,0,3.417,0
			c-0.098,0.192-0.302,0.248-0.464,0.354c-1.251,0.816-2.506,1.626-3.759,2.439c-1.555,1.009-3.109,2.02-4.664,3.03
			c-0.738,0.479-1.479,0.955-2.214,1.439C27.27,34.716,27.129,34.746,27.095,34.891z"/>
		<path style="fill:#E8E9F4;" d="M42.412,34.891c0.051-0.13,0.176-0.18,0.28-0.247c1.023-0.667,2.049-1.33,3.073-1.995
			c1.265-0.821,2.53-1.643,3.795-2.464c1.254-0.814,2.509-1.626,3.763-2.439c0.218-0.142,0.439-0.28,0.656-0.423
			c0.052-0.034,0.099-0.069,0.164-0.061c0,0.857,0,1.715,0,2.572c-0.137,0.024-0.241,0.115-0.351,0.186
			c-1.545,0.999-3.086,2.004-4.628,3.006c-0.749,0.487-1.504,0.964-2.247,1.459c-0.183,0.122-0.411,0.193-0.525,0.407
			C45.065,34.891,43.739,34.891,42.412,34.891z"/>
		<path style="fill:#F3F4F9;" d="M17.407,23.798c0.005-0.076,0.059-0.115,0.117-0.152c0.952-0.616,1.905-1.232,2.856-1.85
			c1.326-0.861,2.652-1.725,3.978-2.586c1.254-0.814,2.509-1.626,3.763-2.439c0.997-0.646,1.992-1.295,2.99-1.939
			c0.116-0.075,0.247-0.127,0.371-0.19C31.394,14.77,31.25,14.851,31.189,15c-0.078,0.054-0.142,0.121-0.197,0.199
			c-0.114,0.099-0.232,0.195-0.312,0.326c-0.07,0.079-0.14,0.158-0.21,0.237c-0.115,0.099-0.232,0.195-0.312,0.326
			c-0.092,0.099-0.184,0.199-0.304,0.328c0.633,0,1.228,0,1.824,0c-0.01,0.117-0.119,0.139-0.192,0.187
			c-0.928,0.604-1.86,1.202-2.789,1.805c-1.181,0.767-2.358,1.538-3.539,2.305c-1.488,0.967-2.978,1.93-4.465,2.899
			c-0.073,0.047-0.182,0.07-0.192,0.187C19.471,23.798,18.439,23.798,17.407,23.798z"/>
		<path style="fill:#ECEDF6;" d="M44.302,23.758c0.156-0.181,0.371-0.282,0.564-0.409c1.02-0.67,2.047-1.33,3.071-1.994
			c1.533-0.995,3.065-1.991,4.598-2.986c0.47-0.305,0.94-0.609,1.412-0.912c0.06-0.039,0.114-0.098,0.197-0.083
			c0,0.991,0,1.983,0,2.974c-0.215,0.014-0.359,0.173-0.523,0.278c-1.202,0.771-2.394,1.557-3.592,2.334
			c-1.052,0.683-2.108,1.36-3.161,2.041c-0.047,0.031-0.092,0.053-0.148,0.049c-0.002-0.375-0.011-0.75-0.003-1.124
			c0.003-0.132-0.034-0.166-0.165-0.165C45.801,23.766,45.052,23.76,44.302,23.758z"/>
		<path style="fill:#F9F9FC;" d="M3.786,16.007C4.43,15.63,5.044,15.205,5.67,14.8c1.554-1.007,3.106-2.018,4.659-3.027
			c0.246-0.16,0.495-0.314,0.739-0.477c0.07-0.046,0.136-0.083,0.221-0.072c0.004,0.777,0.009,1.554,0.013,2.331
			c-0.004,0.268-0.009,0.536-0.013,0.804c-0.069,0.008-0.123,0.047-0.179,0.084c-0.633,0.409-1.269,0.814-1.901,1.225
			c-1.437,0.935-2.868,1.88-4.312,2.806c-0.363,0.233-0.698,0.518-1.112,0.669C3.786,18.097,3.786,17.052,3.786,16.007z"/>
		<path style="fill:#F3F4F9;" d="M34.653,12.504c-0.011-0.112,0.065-0.172,0.143-0.224c0.995-0.647,1.992-1.292,2.988-1.938
			c1.555-1.01,3.11-2.021,4.665-3.03c1.085-0.704,2.172-1.407,3.257-2.11c1.059,0,2.118,0,3.177,0
			c-0.013,0.087-0.094,0.108-0.152,0.147c-0.176,0.12-0.358,0.232-0.537,0.348c-0.974,0.63-1.95,1.258-2.923,1.889
			c-1.543,1.002-3.085,2.007-4.628,3.009c-0.749,0.487-1.504,0.965-2.249,1.458c-0.209,0.139-0.446,0.244-0.607,0.45
			C36.744,12.504,35.698,12.504,34.653,12.504z"/>
		<path style="fill:#F5F5FA;" d="M12.75,23.162c0.143-0.028,0.252-0.123,0.367-0.198c1.199-0.776,2.393-1.559,3.591-2.337
			c1.259-0.819,2.519-1.635,3.778-2.452c1.265-0.821,2.529-1.643,3.795-2.464c0.985-0.639,1.972-1.276,2.957-1.916
			c1.304-0.846,2.607-1.695,3.912-2.541c0.716-0.465,1.435-0.928,2.151-1.392c0.056-0.037,0.111-0.075,0.179-0.084
			c0,0.348,0,0.697,0,1.045c-1.73,0.957-3.357,2.159-5.015,3.236c-1.676,1.09-3.357,2.173-5.034,3.262
			c-1.693,1.1-3.384,2.202-5.078,3.3c-0.852,0.552-1.705,1.105-2.557,1.656c-0.437,0.282-0.873,0.565-1.31,0.848
			c-0.199,0.129-0.918,0.425-0.939,0.673c-0.153,0.001-0.617,0.078-0.732-0.003C12.678,23.697,12.748,23.33,12.75,23.162z"/>
		<path style="fill:#E7E9F4;" d="M46.392,34.891c0.114-0.213,0.343-0.285,0.525-0.407c0.743-0.495,1.498-0.973,2.247-1.459
			c1.543-1.002,3.083-2.007,4.628-3.006c0.11-0.071,0.214-0.162,0.351-0.186c0.002,1.5,0.005,3,0.006,4.5
			c0,0.18,0.063,0.42-0.028,0.524c-0.105,0.121-0.352,0.038-0.536,0.038c-2.325,0.003-4.649,0.002-6.974,0.002
			C46.539,34.898,46.465,34.894,46.392,34.891z"/>
		<path style="fill:#FAFAFD;" d="M20.462,5.202c-0.005,0.076-0.059,0.115-0.117,0.152c-0.952,0.616-1.905,1.232-2.857,1.85
			c-1.327,0.861-2.652,1.724-3.978,2.586c-0.185,0.12-0.371,0.237-0.556,0.357c-0.063,0.041-0.126,0.077-0.204,0.072
			c-0.002-1.54-0.005-3.081-0.007-4.621c-0.001-0.403,0-0.403,0.403-0.403c2.365,0,4.73,0,7.095,0
			C20.315,5.196,20.389,5.2,20.462,5.202z"/>
		<path style="fill:#EFF0F7;" d="M48.039,16.295c-0.231,0.248-0.539,0.389-0.814,0.574c-0.738,0.494-1.489,0.966-2.234,1.449
			c-1.545,1.003-3.088,2.01-4.633,3.012c-0.974,0.632-1.951,1.261-2.926,1.891c-0.202,0.13-0.403,0.262-0.603,0.394
			c-0.055,0.036-0.125,0.058-0.126,0.142c-0.817,0-1.634,0-2.452,0c0.113-0.148,0.282-0.222,0.432-0.32
			c1.257-0.821,2.518-1.637,3.778-2.454c1.299-0.843,2.597-1.688,3.897-2.529c1.036-0.671,2.075-1.338,3.113-2.007
			c0.058-0.037,0.111-0.076,0.117-0.152C46.405,16.295,47.222,16.295,48.039,16.295z"/>
		<path style="fill:#EEEFF7;" d="M35.055,27.389c-0.156,0.208-0.395,0.308-0.602,0.445c-0.733,0.487-1.475,0.959-2.213,1.438
			c-1.554,1.009-3.106,2.02-4.661,3.028c-0.553,0.359-1.11,0.713-1.667,1.067c-0.054,0.034-0.105,0.119-0.186,0.041
			c0.04-0.044,0.077-0.091,0.119-0.133c1.922-1.922,3.844-3.843,5.764-5.767c0.093-0.093,0.183-0.129,0.313-0.128
			C32.966,27.386,34.011,27.386,35.055,27.389z"/>
		<path style="fill:#EBECF5;" d="M31.799,34.891c0.196-0.234,0.474-0.359,0.72-0.523c0.733-0.489,1.477-0.961,2.216-1.44
			c1.512-0.981,3.023-1.963,4.535-2.944c1.238-0.803,2.477-1.603,3.713-2.408c0.073-0.048,0.182-0.07,0.192-0.187
			c0.455,0,0.911,0,1.366,0c-0.036,0.094-0.118,0.141-0.197,0.192c-1.448,0.944-2.896,1.888-4.345,2.83
			c-1.007,0.655-2.017,1.306-3.025,1.959c-1.254,0.813-2.508,1.628-3.761,2.443c-0.033,0.021-0.059,0.052-0.089,0.078
			C32.684,34.891,32.241,34.891,31.799,34.891z"/>
		<path style="fill:#F0F1F8;" d="M44.221,16.295c-0.003,0.061-0.044,0.089-0.091,0.12c-0.896,0.579-1.791,1.159-2.685,1.74
			c-1.381,0.897-2.76,1.796-4.142,2.693c-0.593,0.385-1.188,0.765-1.784,1.145c-0.065,0.042-0.131,0.135-0.224,0.039
			c0.04-0.044,0.077-0.091,0.119-0.133c1.828-1.828,3.656-3.655,5.481-5.485c0.093-0.093,0.183-0.129,0.313-0.128
			C42.212,16.293,43.216,16.293,44.221,16.295z"/>
		<path style="fill:#F3F4F9;" d="M37.789,12.504c0.161-0.206,0.398-0.312,0.607-0.45c0.745-0.493,1.499-0.972,2.249-1.458
			c1.543-1.002,3.085-2.007,4.628-3.009c0.973-0.632,1.948-1.26,2.923-1.889c0.179-0.116,0.361-0.228,0.537-0.348
			c0.057-0.039,0.138-0.061,0.152-0.147c0.348,0,0.696,0,1.045,0c-0.237,0.261-0.554,0.414-0.841,0.605
			c-0.743,0.495-1.499,0.972-2.248,1.459c-1.504,0.977-3.007,1.955-4.511,2.932c-1.018,0.661-2.038,1.317-3.054,1.981
			c-0.152,0.1-0.343,0.152-0.441,0.326C38.486,12.504,38.138,12.504,37.789,12.504z"/>
		<path style="fill:#F2F3F9;" d="M20.502,23.798c0.01-0.117,0.119-0.139,0.192-0.187c1.487-0.968,2.977-1.932,4.465-2.899
			c1.18-0.767,2.358-1.538,3.539-2.305c0.929-0.603,1.861-1.201,2.789-1.805c0.073-0.047,0.182-0.07,0.192-0.187
			c0.335,0,0.67,0,1.004,0c-0.051,0.13-0.176,0.18-0.28,0.247c-1.017,0.662-2.037,1.319-3.055,1.98
			c-1.275,0.828-2.548,1.659-3.823,2.486c-1.012,0.657-2.026,1.312-3.04,1.967c-0.286,0.185-0.573,0.366-0.86,0.549
			c-0.063,0.04-0.116,0.09-0.156,0.153C21.146,23.798,20.824,23.798,20.502,23.798z"/>
		<path style="fill:#ECEDF6;" d="M27.095,34.891c0.034-0.146,0.175-0.175,0.275-0.241c0.735-0.484,1.476-0.959,2.214-1.439
			c1.555-1.01,3.109-2.02,4.664-3.03c1.253-0.813,2.508-1.623,3.759-2.439c0.163-0.106,0.366-0.162,0.464-0.354
			c0.241,0,0.482,0,0.724,0c-0.049,0.187-0.227,0.237-0.361,0.325c-0.752,0.496-1.511,0.982-2.266,1.472
			c-1.495,0.97-2.989,1.94-4.483,2.91c-1.03,0.669-2.06,1.337-3.09,2.005c-0.342,0.221-0.684,0.441-1.028,0.659
			c-0.057,0.036-0.114,0.07-0.148,0.131C27.578,34.891,27.337,34.891,27.095,34.891z"/>
		<path style="fill:#EEEFF7;" d="M3.786,45.027c0.318-0.067,0.647-0.379,0.912-0.552c0.423-0.275,0.846-0.552,1.269-0.828
			C6.758,43.13,7.55,42.615,8.343,42.1c1.605-1.043,3.211-2.086,4.818-3.127c3.179-2.06,6.356-4.123,9.533-6.184
			c0.877-0.569,1.754-1.139,2.631-1.708c0.422-0.274,0.843-0.548,1.265-0.821c0.365-0.237,0.877-0.718,1.314-0.785
			c-0.08,0.08-0.161,0.161-0.241,0.241c-0.279,0.003-0.681,0.4-0.906,0.546c-0.422,0.275-0.845,0.55-1.267,0.824
			c-0.765,0.497-1.529,0.994-2.293,1.492c-1.61,1.049-3.22,2.097-4.835,3.139c-3.135,2.024-6.264,4.059-9.394,6.093
			c-0.896,0.582-1.791,1.165-2.686,1.747c-0.46,0.299-0.919,0.599-1.38,0.897c-0.257,0.166-0.801,0.677-1.116,0.654
			C3.786,45.08,3.786,45.054,3.786,45.027z"/>
		<path style="fill:#FF284B;" d="M57.847,5.231c0.018,0.165,0.004,0.317-0.154,0.42c-0.084,0.055-0.164,0.087-0.255,0.023
			C57.577,5.528,57.683,5.352,57.847,5.231z"/>
		<path style="fill:#FF284B;" d="M59.053,3.985c0.005,0.369-0.073,0.453-0.406,0.442C58.783,4.28,58.889,4.106,59.053,3.985z"/>
		<path style="fill:#FF284B;" d="M56.601,6.517c0.005,0.37-0.071,0.452-0.41,0.443C56.331,6.815,56.436,6.638,56.601,6.517z"/>
		<path style="fill:#272727;" d="M33.279,12.749c0.039-0.14,0.221-0.193,0.215-0.359C33.853,12.461,33.543,12.788,33.279,12.749z"/>
		<path style="fill:#272727;" d="M31.712,14.437c0.077-0.15,0.2-0.259,0.326-0.364C32.143,14.374,32.05,14.477,31.712,14.437z"/>
		<path style="fill:#272727;" d="M32.234,13.874c0.077-0.15,0.2-0.258,0.327-0.364C32.666,13.811,32.573,13.915,32.234,13.874z"/>
		<path style="fill:#272727;" d="M32.756,13.312c0.077-0.15,0.2-0.258,0.327-0.364C33.188,13.249,33.095,13.352,32.756,13.312z"/>
		<path style="fill:#272727;" d="M31.189,15c0.061-0.149,0.205-0.23,0.292-0.358c0.011-0.002,0.023-0.004,0.034-0.006
			C31.618,14.929,31.548,15.007,31.189,15z"/>
		<path style="fill:#272727;" d="M30.681,15.525c0.08-0.131,0.198-0.227,0.312-0.326c0.049,0.108,0.08,0.217-0.013,0.316
			C30.887,15.614,30.782,15.546,30.681,15.525z"/>
		<path style="fill:#272727;" d="M30.158,16.088c0.08-0.131,0.198-0.227,0.312-0.326C30.552,16.067,30.511,16.109,30.158,16.088z"/>
		<path style="fill:#858689;" d="M33.601,19.225c0,0.428,0,0.857,0.001,1.285c-0.009-0.001-0.018-0.003-0.027-0.004
			c0-0.428-0.001-0.857-0.001-1.285C33.583,19.222,33.592,19.224,33.601,19.225z"/>
		<path style="fill:#C0C1C7;" d="M33.601,21.395c0,0.429,0,0.857,0.001,1.286c-0.01-0.002-0.021-0.003-0.031-0.004
			c0.001-0.429,0.001-0.857,0.002-1.286C33.582,21.392,33.592,21.393,33.601,21.395z"/>
		<path style="fill:#68696B;" d="M33.601,19.225c-0.009-0.002-0.018-0.003-0.027-0.004c-0.004-0.267-0.009-0.534-0.013-0.801
			c0.005-0.028,0.009-0.055,0.014-0.083c0.01,0.001,0.019,0.002,0.029,0.004C33.602,18.636,33.602,18.931,33.601,19.225z"/>
		<path style="fill:#A4A4A8;" d="M33.601,21.395c-0.01-0.001-0.019-0.003-0.029-0.004c-0.004-0.16-0.008-0.32-0.012-0.479
			c0-0.04,0-0.081,0-0.121c0.005-0.095,0.009-0.189,0.014-0.284c0.009,0.001,0.018,0.003,0.027,0.004
			C33.602,20.805,33.601,21.1,33.601,21.395z"/>
		<path style="fill:#393939;" d="M33.574,17.493c0-0.281,0-0.562,0-0.843c0.071,0.28,0.018,0.564,0.032,0.846
			C33.596,17.495,33.585,17.494,33.574,17.493z"/>
		<path style="fill:#515152;" d="M33.574,17.493c0.011,0.001,0.021,0.002,0.032,0.003c-0.001,0.282-0.002,0.563-0.003,0.845
			c-0.01-0.001-0.019-0.003-0.029-0.004C33.574,18.056,33.574,17.775,33.574,17.493z"/>
		<path style="fill:#DEDFE5;" d="M33.571,22.676c0.01,0.001,0.021,0.002,0.031,0.004c0,0.281,0,0.562,0,0.843
			c-0.057-0.059-0.025-0.133-0.034-0.201C33.569,23.107,33.57,22.892,33.571,22.676z"/>
		<path style="fill:#F0F1F8;" d="M33.571,22.676c-0.001,0.215-0.002,0.431-0.003,0.646c-0.416,0.064-0.923,0.553-1.267,0.777
			c-0.479,0.311-0.957,0.623-1.436,0.935c-0.96,0.626-1.921,1.251-2.882,1.875c-1.976,1.283-3.954,2.564-5.931,3.847
			c-3.889,2.523-7.775,5.052-11.665,7.573c-1.058,0.686-2.118,1.369-3.176,2.056c-0.559,0.363-1.118,0.726-1.678,1.089
			c-0.561,0.364-1.135,0.832-1.748,1.1c-0.038-0.152,0.024-0.258,0.134-0.367c1.338-1.332,2.683-2.659,4.001-4.01
			c0.696-0.713,1.405-1.413,2.102-2.125c0.046-0.047,0.098-0.089,0.147-0.134c0.161,0.201,4.357-2.709,4.795-2.993
			c3.091-2.007,6.183-4.013,9.275-6.019c1.559-1.011,3.119-2.021,4.677-3.035c0.794-0.516,1.587-1.033,2.38-1.55
			c0.427-0.278,0.854-0.557,1.281-0.835c0.284-0.185,0.644-0.531,0.984-0.596c0.004,0.16,0.008,0.32,0.012,0.479
			C33.572,21.819,33.571,22.248,33.571,22.676z"/>
		<path style="fill:#F1F2F8;" d="M33.575,20.506c-0.005,0.095-0.009,0.189-0.014,0.284c-0.31-0.018-0.835,0.481-1.088,0.645
			c-0.439,0.285-0.878,0.571-1.317,0.856c-0.878,0.571-1.756,1.142-2.635,1.712c-3.081,2.001-6.159,4.005-9.244,5.998
			c-1.538,0.994-3.074,1.991-4.609,2.99c-0.396,0.258-4.014,2.807-4.177,2.625c1.066-1.14,2.21-2.211,3.311-3.318
			c1.119-1.125,2.186-2.331,3.362-3.395c0.24,0.206,1.54-0.859,1.783-1.017c0.698-0.454,1.395-0.908,2.093-1.362
			c1.37-0.891,2.741-1.781,4.113-2.669c2.802-1.812,5.598-3.635,8.407-5.437c0.004,0.267,0.009,0.534,0.013,0.801
			C33.574,19.65,33.574,20.078,33.575,20.506z"/>
		<path style="fill:#F6F7FB;" d="M11.29,17.173c0.002,1.115,0.006,2.229,0.006,3.344c0,0.694-0.004,1.388-0.006,2.082
			c-0.069,0.008-0.123,0.047-0.179,0.083c-1.052,0.679-2.106,1.355-3.157,2.036c-1.196,0.776-2.387,1.56-3.586,2.331
			c-0.187,0.12-0.353,0.284-0.583,0.332c-0.002-1.302-0.005-2.603-0.006-3.905c0-0.507,0.004-1.014,0.006-1.521
			c0.114,0.002,0.203-0.061,0.292-0.119c0.99-0.641,1.98-1.281,2.968-1.924c1.239-0.807,2.476-1.617,3.716-2.424
			C10.933,17.378,11.113,17.278,11.29,17.173z"/>
		<path style="fill:#F4F5FA;" d="M3.786,27.382c0.229-0.048,0.396-0.212,0.583-0.332c1.199-0.771,2.39-1.555,3.586-2.331
			c1.051-0.681,2.105-1.357,3.157-2.036c0.056-0.036,0.11-0.075,0.179-0.083c0.002,1.397,0.004,2.794,0.008,4.19
			c0,0.065-0.02,0.11-0.066,0.156c-0.849,0.842-1.696,1.685-2.544,2.528c-0.073-0.012-0.125,0.027-0.182,0.064
			c-1.056,0.683-2.111,1.366-3.169,2.046c-0.515,0.331-1.012,0.69-1.551,0.982c-0.002-1.468-0.005-2.936-0.006-4.404
			C3.779,27.902,3.783,27.642,3.786,27.382z"/>
		<path style="fill:#EDEEF6;" d="M3.786,47.68c0.186-0.049,0.328-0.177,0.483-0.277c0.932-0.598,1.856-1.208,2.784-1.811
			c1.532-0.996,3.065-1.991,4.598-2.986c1.259-0.817,2.518-1.633,3.777-2.45s2.517-1.634,3.777-2.45
			c0.358-0.232,0.721-0.457,1.078-0.691c0.071-0.047,0.139-0.075,0.223-0.065c-0.623,0.628-1.245,1.256-1.868,1.885
			c-0.051,0.051-0.098,0.106-0.147,0.16c-0.302,0.286-0.607,0.569-0.875,0.889c-1.365,1.375-2.81,2.699-4.109,4.135
			c-0.052,0.043-0.105,0.087-0.157,0.13c-0.2-0.186-1.91,1.121-2.156,1.281c-0.842,0.546-1.684,1.092-2.525,1.64
			c-0.855,0.557-1.708,1.115-2.563,1.671c-0.734,0.477-1.503,1.146-2.318,1.472C3.786,49.368,3.786,48.524,3.786,47.68z"/>
		<path style="fill:#F8F8FC;" d="M11.29,17.173c-0.176,0.105-0.356,0.205-0.528,0.317c-1.239,0.807-2.477,1.617-3.716,2.424
			c-0.988,0.643-1.978,1.283-2.968,1.924c-0.089,0.058-0.178,0.121-0.292,0.119c0-0.938,0-1.876,0-2.814
			c0.414-0.15,0.749-0.436,1.112-0.669c1.443-0.926,2.874-1.87,4.312-2.806c0.632-0.411,1.268-0.816,1.901-1.225
			c0.057-0.037,0.11-0.075,0.179-0.084C11.29,15.297,11.29,16.235,11.29,17.173z"/>
		<path style="fill:#ECEDF6;" d="M3.786,50.212c0.815-0.326,1.583-0.995,2.318-1.472c0.855-0.556,1.709-1.115,2.563-1.671
			c0.841-0.548,1.683-1.094,2.525-1.64c0.246-0.159,1.957-1.466,2.156-1.281c-0.209,0.255-0.48,0.453-0.678,0.719
			c-1.364,1.376-2.81,2.699-4.109,4.136c-0.302,0.286-0.607,0.569-0.875,0.889c-1.303,1.311-2.605,2.623-3.9,3.942
			C3.786,52.584,3.786,51.398,3.786,50.212z"/>
		<path style="fill:#F3F4F9;" d="M3.786,32.566c0.539-0.292,1.036-0.651,1.551-0.982c1.058-0.68,2.113-1.363,3.169-2.046
			c0.057-0.037,0.11-0.076,0.182-0.064c-0.72,0.874-1.629,1.642-2.43,2.443c-0.821,0.821-1.62,1.676-2.472,2.464
			C3.786,33.76,3.786,33.163,3.786,32.566z"/>
		<path style="fill:#F0F1F8;" d="M10.49,35.617c0.163,0.182,3.78-2.367,4.177-2.625c1.535-0.999,3.071-1.996,4.609-2.99
			c3.086-1.993,6.164-3.998,9.244-5.998c0.878-0.57,1.757-1.141,2.635-1.712c0.439-0.285,0.878-0.571,1.317-0.856
			c0.253-0.164,0.778-0.663,1.088-0.645c0,0.04,0,0.081,0,0.121c-0.34,0.064-0.7,0.41-0.984,0.596
			c-0.427,0.278-0.854,0.557-1.281,0.835c-0.793,0.517-1.586,1.034-2.38,1.55c-1.558,1.013-3.118,2.023-4.677,3.035
			c-3.092,2.006-6.184,4.012-9.275,6.019c-0.438,0.284-4.634,3.195-4.795,2.993C10.265,35.82,10.372,35.713,10.49,35.617z"/>
		<path style="fill:#272727;" d="M22.6,34.858c0.268-0.32,0.574-0.602,0.876-0.889C23.602,34.334,22.96,35.027,22.6,34.858z"/>
		<path style="fill:#272727;" d="M17.615,39.882c0.268-0.32,0.574-0.602,0.875-0.889C18.618,39.362,17.974,40.051,17.615,39.882z"/>
		<path style="fill:#272727;" d="M7.685,49.89c0.268-0.32,0.574-0.602,0.875-0.889C8.735,49.337,8.028,49.993,7.685,49.89z"/>
		<path style="fill:#272727;" d="M12.67,44.866c0.198-0.266,0.469-0.463,0.678-0.719c0.052-0.043,0.105-0.087,0.157-0.13
			C13.678,44.351,13.007,44.964,12.67,44.866z"/>
	</g>
</g>
</svg>
