<?xml version="1.0" encoding="utf-8"?>
<!-- Generator: Adobe Illustrator 22.0.0, SVG Export Plug-In . SVG Version: 6.00 Build 0)  -->
<svg version="1.1" id="Camada_1" xmlns="http://www.w3.org/2000/svg" xmlns:xlink="http://www.w3.org/1999/xlink" x="0px" y="0px"
	 width="64px" height="64px" viewBox="0 0 64 64" enable-background="new 0 0 64 64" xml:space="preserve">
<g>
	<g>
		<path fill="#03A4CC" d="M55.8,5.552c-0.005,0.314-0.1,0.616-0.138,0.925c-0.014,0.112-0.118,0.111-0.195,0.136
			c-2.387,0.745-4.775,1.488-7.163,2.232c-7.136,2.222-14.272,4.443-21.407,6.668c-0.461,0.144-0.929,0.268-1.376,0.452
			c-0.07,0.04-0.145,0.062-0.226,0.052c-0.002-0.025-0.003-0.05-0.005-0.075c2.521-0.817,5.042-1.632,7.562-2.453
			c7.261-2.363,14.522-4.729,21.782-7.095c0.045-0.015,0.109-0.007,0.14-0.077c-0.093,0-0.178-0.002-0.263,0
			c-1.814,0.042-3.628,0.083-5.442,0.126c-1.622,0.038-3.244,0.078-4.866,0.115c-4.09,0.094-8.181,0.186-12.271,0.276
			c-0.153,0.003-0.291,0.033-0.429,0.098c-2.468,1.154-4.937,2.305-7.405,3.457c-7.411,3.46-14.822,6.921-22.234,10.38
			c-0.068,0.032-0.131,0.091-0.217,0.068c0.018-0.086,0.102-0.088,0.16-0.118c0.632-0.328,1.265-0.653,1.898-0.979
			c0.064-0.015,0.123-0.04,0.171-0.086c0.041-0.021,0.082-0.041,0.123-0.062c0.081-0.026,0.158-0.058,0.222-0.116
			c0.178-0.066,0.346-0.153,0.506-0.256c0.028-0.015,0.057-0.029,0.085-0.044c0.566-0.262,1.12-0.548,1.669-0.845
			c0.151-0.056,0.293-0.128,0.426-0.218c0.208-0.083,0.406-0.184,0.596-0.302c0.028-0.015,0.057-0.029,0.085-0.044
			c0.566-0.262,1.12-0.548,1.669-0.845c0.15-0.057,0.293-0.128,0.426-0.217c0.207-0.084,0.407-0.183,0.596-0.303
			c0.045-0.022,0.091-0.043,0.136-0.065c0.539-0.274,1.079-0.549,1.618-0.823c0.152-0.06,0.299-0.129,0.434-0.222
			c0.507-0.23,0.999-0.489,1.49-0.751c0.057-0.03,0.115-0.059,0.172-0.089c0.247-0.108,0.487-0.229,0.718-0.367
			c0.141-0.05,0.274-0.116,0.396-0.202c0.462-0.21,0.913-0.439,1.356-0.687c0.112-0.03,0.21-0.09,0.307-0.152
			c0.239-0.122,0.478-0.245,0.717-0.367c0.11-0.034,0.211-0.086,0.304-0.154c0.264-0.114,0.52-0.242,0.766-0.39
			c0.028-0.015,0.057-0.029,0.085-0.044c0.165-0.058,0.317-0.143,0.467-0.232c0.145-0.074,0.291-0.148,0.436-0.222
			c0.239-0.122,0.478-0.245,0.717-0.367c0.113-0.036,0.219-0.088,0.314-0.16c0.247-0.1,0.481-0.225,0.711-0.358
			c0.05-0.011,0.097-0.029,0.131-0.07c0.165-0.059,0.317-0.143,0.467-0.232c0.1-0.039,0.201-0.077,0.282-0.152
			c0.061-0.001,0.107-0.035,0.152-0.069c0.029-0.015,0.058-0.03,0.087-0.044c0.227-0.115,0.454-0.23,0.68-0.345
			c0.094-0.036,0.187-0.073,0.265-0.139c0.247-0.1,0.481-0.225,0.711-0.358c0.05-0.011,0.097-0.028,0.131-0.07
			c0.165-0.057,0.317-0.143,0.467-0.231c0.043-0.024,0.086-0.047,0.13-0.071c0.112-0.029,0.208-0.091,0.304-0.151
			c0.029-0.015,0.058-0.029,0.088-0.044c0.227-0.115,0.454-0.23,0.68-0.345c0.057-0.029,0.114-0.059,0.172-0.088
			c0.439-0.223,0.878-0.445,1.317-0.668c0.049-0.012,0.097-0.028,0.13-0.07c0.386-0.194,0.772-0.389,1.157-0.583
			c0.029-0.015,0.058-0.03,0.086-0.045c0.467-0.237,0.935-0.474,1.402-0.711c0.051-0.012,0.099-0.03,0.134-0.072
			c0.365-0.161,0.719-0.345,1.068-0.538c0.059-0.029,0.136-0.029,0.164-0.105C39.686,5.552,47.743,5.552,55.8,5.552z"/>
		<path fill="#E9E9E8" d="M64,27.716c-0.015,0-0.03,0-0.045,0c0.003-0.64,0.006-1.279,0.009-1.919l0.018,0.002L64,25.794
			C64,26.435,64,27.075,64,27.716z"/>
		<path fill="#ADADAC" d="M64,25.794l-0.018,0.004l-0.018-0.002c0-0.341,0-0.683,0-1.024l0.018,0L64,24.769
			C64,25.111,64,25.453,64,25.794z"/>
		<path fill="#767675" d="M64,24.769l-0.018,0.004c0,0-0.018,0-0.018,0c-0.002-0.273-0.003-0.545-0.005-0.818
			c0.013,0.001,0.027,0.002,0.04,0.003C64,24.228,64,24.499,64,24.769z"/>
		<path fill="#FEFEFE" d="M31.629,5.552c-0.029,0.076-0.106,0.076-0.164,0.105c-0.002-0.035-0.004-0.07-0.006-0.105
			C31.515,5.552,31.572,5.552,31.629,5.552z"/>
		<path fill="#1D1D1B" d="M63.96,23.955c0.002,0.273,0.003,0.545,0.005,0.818c0,0.341,0,0.683,0,1.024
			c-0.003,0.64-0.006,1.279-0.009,1.919c0.019,0.179-0.093,0.198-0.235,0.214c-0.953,0.111-1.915,0.16-2.851,0.388
			c-1.118,0.272-2.251,0.486-3.334,0.888c-0.421,0.156-0.826,0.342-1.217,0.562c-4.235,2.386-8.757,3.982-13.52,4.914
			c-2.054,0.402-4.127,0.651-6.208,0.86c-1.058,0.106-2.108,0.282-3.217,0.434c0.468,0.385,0.95,0.651,1.41,0.949
			c0.01,0.052,0.042,0.069,0.092,0.062c0,0-0.003-0.002-0.003-0.002c0,0.033,0.019,0.043,0.048,0.04c0,0-0.003-0.002-0.003-0.002
			c0.012,0.045,0.042,0.059,0.085,0.048c0,0-0.002-0.002-0.002-0.002c-0.002,0.034,0.018,0.043,0.048,0.041
			c0,0-0.002-0.002-0.002-0.002c0.013,0.044,0.041,0.059,0.085,0.048c0,0-0.002-0.002-0.002-0.002
			c-0.002,0.035,0.017,0.044,0.048,0.041c0,0-0.002-0.002-0.002-0.002c0.013,0.044,0.041,0.06,0.085,0.047
			c0,0-0.002-0.002-0.002-0.002c-0.003,0.035,0.017,0.044,0.047,0.041c0,0-0.002-0.001-0.002-0.001
			c0.012,0.045,0.039,0.063,0.085,0.047c0,0-0.002-0.002-0.002-0.002c-0.004,0.037,0.015,0.046,0.047,0.041
			c0,0-0.002-0.001-0.002-0.001c0.021,0.062,0.064,0.092,0.13,0.087c0,0-0.002-0.001-0.002-0.001
			c0.019,0.065,0.062,0.094,0.13,0.086c0,0-0.001-0.001-0.001-0.001c0.017,0.068,0.062,0.094,0.13,0.086
			c0,0-0.002-0.001-0.002-0.001c0.033,0.074,0.082,0.118,0.169,0.091c0,0-0.002-0.001-0.002-0.001
			c-0.014,0.107,0.087,0.116,0.142,0.153c3.646,2.475,7.295,4.946,10.942,7.419c0.552,0.374,1.1,0.755,1.65,1.133
			c-0.008,0.007-0.015,0.015-0.023,0.022c-0.067-0.023-0.135-0.043-0.2-0.071c-4.053-1.753-8.106-3.506-12.159-5.26
			c-5.332-2.307-10.665-4.615-15.997-6.922c-0.472-0.204-0.944-0.407-1.465-0.632c2.264,5.282,4.506,10.512,6.748,15.742
			c-0.077-0.034-0.119-0.088-0.157-0.144c-3.913-5.71-7.827-11.421-11.74-17.131c-0.272-0.397-0.548-0.792-0.822-1.188
			c-0.199-0.327-0.397-0.653-0.596-0.98c-0.019-0.02-0.019-0.063-0.064-0.05c0,0,0.004,0.002,0.004,0.002
			c0.003-0.065-0.011-0.118-0.087-0.131l0.002,0.002c0.013-0.071-0.006-0.122-0.087-0.13c0,0,0.002,0.002,0.002,0.002
			c0.02-0.075-0.006-0.121-0.084-0.134l0.005-0.005c-0.257-0.459-0.468-0.942-0.925-1.264c-1.821-1.282-3.837-2.043-6.045-2.314
			c-0.863-0.106-1.729-0.128-2.597-0.118c-0.137,0.002-0.214-0.033-0.284-0.159c-0.693-1.24-1.389-2.478-2.096-3.71
			c-0.095-0.166-0.059-0.219,0.098-0.286c0.228-0.097,0.446-0.219,0.668-0.33c0.048,0.012,0.084-0.003,0.109-0.046
			c0,0-0.003,0.001-0.003,0.001c0.041,0.008,0.073-0.001,0.089-0.044l-0.003,0.001c0.042,0.011,0.074,0.001,0.089-0.044L1.095,21.1
			c0.042,0.011,0.075,0.003,0.087-0.044c0,0-0.003,0.001-0.003,0.001c0.044,0.015,0.076,0.006,0.088-0.044
			c0,0-0.001,0.001-0.001,0.001c0.055,0.017,0.099,0.003,0.126-0.05l-0.005,0.001c0.041,0.008,0.076,0.004,0.09-0.043
			c0,0-0.002,0.001-0.002,0.001c0.04,0.008,0.076,0.006,0.088-0.043c0,0-0.002,0.001-0.002,0.001
			c0.041,0.01,0.077,0.009,0.087-0.043c0,0-0.003,0.001-0.003,0.001c0.086,0.023,0.149-0.036,0.217-0.068
			c7.412-3.459,14.823-6.92,22.234-10.38c2.468-1.152,4.937-2.303,7.405-3.457c0.139-0.065,0.276-0.094,0.429-0.098
			c4.091-0.09,8.181-0.183,12.271-0.276c1.622-0.037,3.244-0.077,4.866-0.115c1.814-0.043,3.628-0.084,5.442-0.126
			c0.085-0.002,0.17,0,0.263,0c-0.031,0.07-0.095,0.062-0.14,0.077c-7.26,2.366-14.521,4.732-21.782,7.095
			c-2.52,0.82-5.041,1.635-7.562,2.453c-0.174,0.054-0.348,0.108-0.522,0.163c-0.372,0.098-0.743,0.201-1.091,0.37
			c-0.256,0.046-0.495,0.141-0.728,0.254c0.255-0.044,0.506-0.101,0.743-0.209c0.373-0.113,0.746-0.225,1.118-0.338
			c0.16-0.06,0.357-0.009,0.484-0.165c0.082,0.01,0.156-0.012,0.226-0.052c0.24,0.047,0.46-0.053,0.686-0.097
			c1.87-0.364,3.754-0.565,5.662-0.513c2.493,0.068,4.909,0.566,7.288,1.281c2.22,0.667,4.372,1.523,6.531,2.36
			c2.656,1.03,5.393,1.787,8.148,2.489c3.318,0.846,6.657,1.607,9.982,2.428C63.866,23.923,63.912,23.94,63.96,23.955z
			 M36.04,21.654c-0.384-0.778-1.199-0.873-1.73-0.524c-0.444,0.292-0.596,0.762-0.452,1.407c-1.161,0.332-2.294,0.213-3.409-0.211
			c-0.473-0.18-0.929-0.394-1.388-0.606c-0.316-0.146-0.626-0.308-0.969-0.385c-0.379-0.085-0.575,0.059-0.606,0.444
			c-0.038,0.468,0.069,0.905,0.303,1.31c0.404,0.7,1.016,1.166,1.732,1.497c1.53,0.709,3.123,0.808,4.75,0.417
			c0.935-0.225,1.786-0.625,2.462-1.332c0.497-0.52,0.788-1.128,0.745-1.865c-0.024-0.41-0.225-0.558-0.624-0.467
			C36.567,21.404,36.306,21.536,36.04,21.654z M13.598,23.572c-0.007,0.018-0.014,0.036-0.021,0.055
			c0.025,0.013,0.054,0.023,0.076,0.04c1.523,1.255,3.128,2.394,4.83,3.394c4.436,2.606,9.208,4.13,14.352,4.443
			c1.885,0.115,3.765,0.044,5.641-0.188c1.317-0.163,2.618-0.396,3.906-0.711c3.793-0.93,7.332-2.467,10.669-4.483
			c0.038-0.023,0.1-0.029,0.091-0.103c-1.911-0.73-3.826-1.456-5.737-2.193c-1.812-0.699-3.619-1.41-5.429-2.114
			c-0.775-0.302-1.513-0.281-2.179,0.276c-0.37,0.309-0.65,0.695-0.899,1.103c-0.197,0.323-0.415,0.631-0.678,0.902
			c-2.08,2.132-4.616,2.859-7.498,2.295c-2.698-0.528-4.556-2.166-5.706-4.638c-0.132-0.283-0.242-0.576-0.417-0.838
			c-0.359-0.537-0.747-0.675-1.35-0.461c-2.296,0.814-4.611,1.573-6.927,2.329C15.413,22.975,14.506,23.274,13.598,23.572z
			 M22.81,16.761c0.004,0.005,0.009,0.014,0.012,0.013c0.011-0.002,0.022-0.007,0.033-0.011c-0.004-0.005-0.009-0.014-0.012-0.013
			C22.832,16.752,22.821,16.757,22.81,16.761z M22.683,16.803c0.004,0.005,0.009,0.014,0.012,0.013
			c0.011-0.002,0.021-0.007,0.032-0.011c-0.004-0.005-0.009-0.013-0.012-0.013C22.704,16.794,22.694,16.799,22.683,16.803z
			 M22.555,16.845c0.005,0.005,0.009,0.014,0.012,0.013c0.011-0.002,0.021-0.007,0.031-0.011c-0.004-0.004-0.008-0.013-0.012-0.013
			C22.576,16.837,22.566,16.841,22.555,16.845z"/>
		<path fill="#03A4CD" d="M12.902,30.832c0.274,0.396,0.55,0.791,0.822,1.188c3.914,5.71,7.827,11.421,11.74,17.131
			c0.038,0.056,0.079,0.11,0.157,0.144c-2.242-5.23-4.484-10.46-6.748-15.742c0.521,0.225,0.993,0.428,1.465,0.632
			c5.332,2.307,10.665,4.615,15.997,6.922c4.053,1.754,8.106,3.507,12.159,5.26c0.065,0.028,0.133,0.047,0.2,0.071
			c0.017,0.005,0.047,0.017,0.05,0.013c0.015-0.026-0.011-0.028-0.027-0.035c-0.55-0.378-1.098-0.758-1.65-1.133
			c-3.647-2.473-7.296-4.945-10.942-7.419c-0.055-0.038-0.156-0.046-0.142-0.153c0.081-0.011,0.13,0.051,0.187,0.088
			c6.389,4.11,12.778,8.222,19.166,12.334c0.052,0.034,0.118,0.053,0.172,0.169C43.646,45.23,31.825,40.176,19.943,35.096
			c3.44,7.814,6.855,15.57,10.269,23.327c-0.019,0.009-0.038,0.017-0.057,0.026c-1.211-1.932-2.42-3.865-3.635-5.795
			c-4.524-7.188-9.05-14.374-13.575-21.561c-0.042-0.066-0.078-0.135-0.118-0.202C12.853,30.87,12.878,30.851,12.902,30.832z
			 M48.815,46.479l-0.007,0.008l0.012,0.001L48.815,46.479z"/>
		<path fill="#2DB7DA" d="M12.902,30.832c-0.025,0.019-0.049,0.038-0.074,0.057c-0.26-0.351-0.474-0.731-0.705-1.101
			c0.014-0.011,0.028-0.021,0.041-0.032c0.031,0.009,0.037,0.061,0.082,0.048c0,0-0.004-0.002-0.004-0.002
			c0.001,0.042,0.019,0.063,0.064,0.05C12.505,30.179,12.704,30.506,12.902,30.832z"/>
		<path fill="#FEFEFE" d="M19.68,11.637c-0.145,0.074-0.291,0.148-0.436,0.222C19.301,11.667,19.522,11.554,19.68,11.637z"/>
		<path fill="#FEFEFE" d="M9.682,16.707c-0.133,0.09-0.276,0.161-0.426,0.217C9.323,16.716,9.502,16.625,9.682,16.707z"/>
		<path fill="#FEFEFE" d="M6.906,18.116c-0.133,0.09-0.276,0.162-0.426,0.218C6.516,18.15,6.73,18.04,6.906,18.116z"/>
		<path fill="#FEFEFE" d="M12.466,15.294c-0.135,0.094-0.282,0.162-0.434,0.222C12.101,15.308,12.261,15.226,12.466,15.294z"/>
		<path fill="#FEFEFE" d="M15.242,13.885c-0.122,0.087-0.255,0.152-0.396,0.202C14.893,13.89,15.04,13.815,15.242,13.885z"/>
		<path fill="#FEFEFE" d="M17.926,12.525c-0.093,0.068-0.194,0.119-0.304,0.154C17.667,12.483,17.754,12.439,17.926,12.525z"/>
		<path fill="#FEFEFE" d="M20.711,11.11c-0.095,0.072-0.2,0.124-0.314,0.16C20.421,11.058,20.541,11.035,20.711,11.11z"/>
		<path fill="#FEFEFE" d="M16.904,13.046c-0.097,0.062-0.194,0.122-0.307,0.152C16.656,13.059,16.715,12.922,16.904,13.046z"/>
		<path fill="#FEFEFE" d="M23.487,9.701c-0.078,0.067-0.171,0.104-0.265,0.139C23.219,9.62,23.341,9.636,23.487,9.701z"/>
		<path fill="#FEFEFE" d="M22.302,10.299c-0.081,0.075-0.181,0.113-0.282,0.152C22.025,10.235,22.182,10.302,22.302,10.299z"/>
		<path fill="#FEFEFE" d="M4.22,19.478c-0.064,0.058-0.141,0.09-0.222,0.116C4.009,19.433,4.094,19.417,4.22,19.478z"/>
		<path fill="#FEFEFE" d="M3.875,19.655c-0.048,0.046-0.107,0.071-0.171,0.086C3.696,19.584,3.758,19.565,3.875,19.655z"/>
		<path fill="#FEFEFE" d="M14.128,14.454c-0.057,0.03-0.115,0.059-0.172,0.089C13.967,14.424,13.992,14.331,14.128,14.454z"/>
		<path fill="#FEFEFE" d="M26.17,8.344c-0.057,0.029-0.114,0.059-0.172,0.088C26.01,8.315,26.038,8.229,26.17,8.344z"/>
		<path fill="#FEFEFE" d="M0.928,21.15c0.016-0.111,0.048-0.188,0.171-0.086c-0.003,0.012-0.004,0.024-0.003,0.036
			c0,0,0.002-0.001,0.002-0.001c-0.041-0.008-0.069,0.009-0.089,0.044c0,0,0.003-0.001,0.003-0.001
			C0.984,21.144,0.956,21.147,0.928,21.15z"/>
		<path fill="#FEFEFE" d="M1.269,20.977c-0.002-0.051,0.008-0.1,0.061-0.118c0.046-0.015,0.056,0.024,0.062,0.059
			c-0.001,0.016-0.002,0.032-0.004,0.048c0,0,0.005-0.001,0.005-0.001C1.348,20.936,1.311,20.979,1.269,20.977z"/>
		<path fill="#FEFEFE" d="M10.414,16.34c-0.045,0.022-0.091,0.043-0.136,0.065C10.294,16.321,10.307,16.23,10.414,16.34z"/>
		<path fill="#FEFEFE" d="M21.553,10.682c-0.034,0.041-0.081,0.059-0.131,0.07C21.426,10.654,21.447,10.589,21.553,10.682z"/>
		<path fill="#FEFEFE" d="M24.329,9.273c-0.034,0.041-0.081,0.059-0.131,0.07C24.202,9.245,24.223,9.179,24.329,9.273z"/>
		<path fill="#FEFEFE" d="M24.926,8.971c-0.043,0.024-0.086,0.047-0.13,0.071C24.799,8.946,24.821,8.883,24.926,8.971z"/>
		<path fill="#FEFEFE" d="M27.617,7.606c-0.033,0.042-0.081,0.058-0.13,0.07C27.49,7.578,27.512,7.516,27.617,7.606z"/>
		<path fill="#FEFEFE" d="M30.396,6.195c-0.035,0.042-0.083,0.06-0.134,0.072C30.255,6.147,30.313,6.148,30.396,6.195z"/>
		<path fill="#03A4CD" d="M35.984,37.712c-0.087,0.027-0.136-0.017-0.169-0.091C35.9,37.598,35.95,37.64,35.984,37.712z"/>
		<path fill="#8BD7EA" d="M11.823,29.244c0.044,0.032,0.074,0.074,0.089,0.126c-0.011,0.01-0.023,0.02-0.034,0.03
			c-0.05-0.029-0.071-0.076-0.079-0.131C11.807,29.26,11.815,29.252,11.823,29.244z"/>
		<path fill="#2DB7DA" d="M12.043,29.663c-0.025-0.045-0.051-0.091-0.076-0.136c0.007-0.007,0.014-0.014,0.022-0.021
			c0.034,0.004,0.045,0.059,0.089,0.042c0,0-0.002-0.002-0.002-0.002c0.001,0.028,0.003,0.056,0.004,0.084
			C12.067,29.641,12.055,29.652,12.043,29.663z"/>
		<path fill="#2DB7DA" d="M12.124,29.789c-0.027-0.042-0.054-0.084-0.081-0.126c0.012-0.011,0.024-0.022,0.036-0.033
			c0.032,0.008,0.039,0.061,0.084,0.046c0,0-0.002-0.002-0.002-0.002c0.002,0.028,0.003,0.055,0.005,0.083
			C12.151,29.768,12.137,29.778,12.124,29.789z"/>
		<path fill="#03A4CD" d="M35.56,37.451c-0.066,0.005-0.109-0.024-0.13-0.087C35.501,37.352,35.55,37.373,35.56,37.451z"/>
		<path fill="#03A4CD" d="M35.689,37.536c-0.067,0.007-0.11-0.022-0.13-0.086C35.632,37.435,35.681,37.454,35.689,37.536z"/>
		<path fill="#03A4CD" d="M35.817,37.622c-0.067,0.008-0.113-0.018-0.13-0.086C35.762,37.517,35.813,37.534,35.817,37.622z"/>
		<path fill="#FEFEFE" d="M7.587,17.77c-0.028,0.015-0.057,0.029-0.085,0.044C7.509,17.757,7.515,17.699,7.587,17.77z"/>
		<path fill="#FEFEFE" d="M4.811,19.178c-0.028,0.015-0.057,0.029-0.085,0.044C4.733,19.167,4.739,19.109,4.811,19.178z"/>
		<path fill="#FEFEFE" d="M18.777,12.091c-0.028,0.015-0.057,0.029-0.085,0.044C18.698,12.078,18.704,12.019,18.777,12.091z"/>
		<path fill="#FEFEFE" d="M22.541,10.185c-0.029,0.015-0.058,0.03-0.087,0.044c0.001-0.032-0.011-0.07,0.029-0.085
			C22.517,10.132,22.527,10.164,22.541,10.185z"/>
		<path fill="#FEFEFE" d="M25.318,8.777c-0.029,0.015-0.058,0.029-0.088,0.044c0.001-0.032-0.011-0.07,0.03-0.085
			C25.294,8.723,25.303,8.755,25.318,8.777z"/>
		<path fill="#FEFEFE" d="M28.86,6.978c-0.029,0.015-0.058,0.03-0.086,0.045c0.001-0.031-0.009-0.068,0.029-0.083
			C28.835,6.927,28.846,6.958,28.86,6.978z"/>
		<path fill="#8BD7EA" d="M11.642,28.997c-0.043-0.014-0.07-0.042-0.073-0.088c0-0.004,0.012-0.014,0.015-0.013
			C11.627,28.916,11.642,28.953,11.642,28.997C11.643,28.997,11.642,28.997,11.642,28.997z"/>
		<path fill="#03A4CC" d="M1.269,20.977c0.042,0.002,0.079-0.041,0.124-0.013c-0.028,0.053-0.071,0.067-0.126,0.05
			C1.264,21.002,1.265,20.989,1.269,20.977z"/>
		<path fill="#8BD7EA" d="M11.912,29.37c0.029,0.013,0.058,0.026,0.087,0.039c0,0-0.005,0.005-0.005,0.005
			c-0.004,0.018-0.008,0.036-0.012,0.054c-0.021,0-0.042-0.001-0.063-0.001c-0.014-0.023-0.027-0.045-0.041-0.068
			C11.889,29.39,11.9,29.38,11.912,29.37z"/>
		<path fill="#8BD7EA" d="M11.471,28.742c0.018,0.019,0.036,0.038,0.054,0.057c-0.006,0.003-0.016,0.009-0.017,0.008
			c-0.012-0.022-0.024-0.045-0.036-0.067L11.471,28.742z"/>
		<path fill="#03A4CC" d="M0.928,21.15c0.028-0.003,0.056-0.006,0.084-0.009c-0.016,0.043-0.048,0.052-0.089,0.044
			C0.923,21.173,0.925,21.161,0.928,21.15z"/>
		<path fill="#03A4CC" d="M0.926,21.183c-0.024,0.043-0.061,0.058-0.109,0.046C0.85,21.204,0.88,21.175,0.926,21.183z"/>
		<path fill="#03A4CC" d="M1.649,20.838c-0.01,0.053-0.046,0.053-0.087,0.043C1.571,20.827,1.601,20.814,1.649,20.838z"/>
		<path fill="#03A4CC" d="M1.564,20.88c-0.012,0.049-0.047,0.051-0.088,0.043C1.486,20.87,1.515,20.856,1.564,20.88z"/>
		<path fill="#03A4CD" d="M34.874,36.987c-0.05,0.008-0.082-0.01-0.092-0.062C34.822,36.933,34.859,36.943,34.874,36.987z"/>
		<path fill="#03A4CD" d="M35.003,37.071c-0.043,0.011-0.073-0.003-0.085-0.048C34.959,37.015,34.989,37.028,35.003,37.071z"/>
		<path fill="#03A4CD" d="M35.131,37.156c-0.044,0.012-0.073-0.003-0.085-0.048C35.089,37.097,35.119,37.11,35.131,37.156z"/>
		<path fill="#03A4CD" d="M35.26,37.241c-0.044,0.013-0.073-0.003-0.085-0.047C35.219,37.179,35.249,37.193,35.26,37.241z"/>
		<path fill="#03A4CD" d="M35.388,37.326c-0.046,0.015-0.073-0.003-0.085-0.047C35.349,37.262,35.378,37.277,35.388,37.326z"/>
		<path fill="#03A4CC" d="M1.388,20.965c0.001-0.016,0.002-0.032,0.004-0.048c0.029,0.001,0.058,0.003,0.087,0.004
			C1.464,20.97,1.429,20.973,1.388,20.965z"/>
		<path fill="#03A4CC" d="M1.268,21.013c-0.012,0.049-0.044,0.058-0.088,0.044C1.197,21.019,1.227,21.005,1.268,21.013z"/>
		<path fill="#03A4CC" d="M1.095,21.1c0-0.012,0.001-0.024,0.003-0.036c0.028-0.003,0.056-0.006,0.084-0.008
			C1.17,21.103,1.137,21.11,1.095,21.1z"/>
		<path fill="#8BD7EA" d="M11.685,29.083c-0.04-0.016-0.045-0.049-0.042-0.086c0,0,0,0,0,0c0.039,0.016,0.047,0.047,0.043,0.085
			C11.686,29.082,11.685,29.083,11.685,29.083z"/>
		<path fill="#8BD7EA" d="M11.762,29.22c-0.032-0.024-0.042-0.055-0.035-0.093l0.003-0.003c0.039,0.009,0.046,0.042,0.054,0.074
			C11.776,29.205,11.769,29.213,11.762,29.22z"/>
		<path fill="#03A4CD" d="M35.176,37.195c-0.03,0.003-0.05-0.006-0.048-0.041C35.159,37.152,35.181,37.158,35.176,37.195z"/>
		<path fill="#8BD7EA" d="M11.727,29.127c-0.028-0.001-0.041-0.017-0.042-0.043c0,0,0.001-0.001,0.001-0.001
			c0.028,0,0.041,0.016,0.043,0.042C11.729,29.124,11.727,29.127,11.727,29.127z"/>
		<path fill="#03A4CD" d="M35.305,37.28c-0.031,0.003-0.05-0.006-0.047-0.041C35.288,37.235,35.311,37.241,35.305,37.28z"/>
		<path fill="#03A4CD" d="M35.432,37.366c-0.032,0.004-0.051-0.005-0.047-0.041C35.418,37.32,35.44,37.326,35.432,37.366z"/>
		<polygon fill="#8BD7EA" points="11.473,28.74 11.461,28.73 11.471,28.742 		"/>
		<path fill="#03A4CD" d="M34.92,37.025c-0.029,0.002-0.048-0.008-0.048-0.04C34.899,36.984,34.92,36.992,34.92,37.025z"/>
		<path fill="#8BD7EA" d="M11.784,29.198c0.013,0.015,0.026,0.031,0.039,0.046c-0.008,0.008-0.016,0.017-0.025,0.025
			c-0.012-0.016-0.024-0.032-0.037-0.049C11.769,29.213,11.776,29.205,11.784,29.198z"/>
		<path fill="#03A4CD" d="M35.048,37.11c-0.03,0.003-0.049-0.007-0.048-0.041C35.029,37.068,35.051,37.075,35.048,37.11z"/>
		<path fill="#2DB7DA" d="M11.918,29.468c0.021,0,0.042,0.001,0.063,0.001c0.006,0.012,0.008,0.024,0.007,0.037
			c-0.007,0.007-0.014,0.014-0.022,0.021C11.951,29.507,11.934,29.487,11.918,29.468z"/>
		<path fill="#ADADAC" d="M25.294,16.016c-0.127,0.156-0.325,0.105-0.484,0.165c-0.014-0.026-0.028-0.052-0.042-0.077
			c0.174-0.054,0.348-0.108,0.522-0.163C25.291,15.966,25.292,15.991,25.294,16.016z"/>
		<path fill="#FDFDFD" d="M13.598,23.572c0.908-0.298,1.815-0.597,2.723-0.894c2.316-0.756,4.63-1.515,6.927-2.329
			c0.603-0.214,0.991-0.075,1.35,0.461c0.175,0.262,0.285,0.555,0.417,0.838c1.15,2.472,3.008,4.11,5.706,4.638
			c2.882,0.564,5.418-0.163,7.498-2.295c0.264-0.271,0.481-0.579,0.678-0.902c0.249-0.408,0.529-0.794,0.899-1.103
			c0.666-0.557,1.404-0.577,2.179-0.276c1.81,0.704,3.617,1.415,5.429,2.114c1.911,0.737,3.826,1.463,5.737,2.193
			c0.009,0.074-0.053,0.08-0.091,0.103c-3.337,2.016-6.876,3.553-10.669,4.483c-1.287,0.316-2.589,0.548-3.906,0.711
			c-1.876,0.232-3.756,0.303-5.641,0.188c-5.144-0.313-9.917-1.837-14.352-4.443c-1.702-1-3.306-2.139-4.83-3.394
			c-0.022-0.018-0.05-0.027-0.076-0.04C13.584,23.608,13.591,23.59,13.598,23.572z"/>
		<path fill="#00A4CC" d="M36.04,21.654c0.266-0.118,0.527-0.25,0.814-0.315c0.4-0.091,0.6,0.057,0.624,0.467
			c0.044,0.737-0.248,1.346-0.745,1.865c-0.676,0.707-1.527,1.108-2.462,1.332c-1.627,0.391-3.22,0.292-4.75-0.417
			c-0.716-0.331-1.329-0.798-1.732-1.497c-0.234-0.405-0.341-0.842-0.303-1.31c0.031-0.385,0.228-0.529,0.606-0.444
			c0.343,0.077,0.654,0.239,0.969,0.385c0.458,0.212,0.915,0.427,1.388,0.606c1.115,0.424,2.248,0.543,3.409,0.211
			c0.327,0.565,0.78,0.81,1.297,0.716C35.786,23.137,36.323,22.49,36.04,21.654z"/>
		<path fill="#FBFCFC" d="M36.04,21.654c0.283,0.836-0.254,1.483-0.884,1.599c-0.517,0.095-0.971-0.151-1.297-0.716
			c-0.145-0.645,0.008-1.115,0.452-1.407C34.841,20.781,35.656,20.876,36.04,21.654z"/>
		<path fill="#2F8397" d="M24.768,16.104c0.014,0.026,0.028,0.052,0.042,0.077c-0.373,0.113-0.745,0.225-1.118,0.338
			c-0.005-0.015-0.01-0.03-0.015-0.045C24.025,16.305,24.395,16.201,24.768,16.104z"/>
		<path fill="#115665" d="M23.676,16.474c0.005,0.015,0.01,0.03,0.015,0.045c-0.237,0.108-0.488,0.165-0.743,0.209
			C23.182,16.615,23.421,16.52,23.676,16.474z"/>
		<path fill="#FEFEFE" d="M11.989,29.506c0.001-0.013-0.001-0.025-0.007-0.037c0.004-0.018,0.008-0.036,0.012-0.054
			c0.078,0.014,0.104,0.059,0.084,0.134C12.033,29.565,12.023,29.511,11.989,29.506z"/>
		<path fill="#FEFEFE" d="M12.162,29.677c-0.045,0.015-0.052-0.038-0.084-0.046c-0.001-0.028-0.003-0.056-0.004-0.084
			C12.156,29.555,12.175,29.605,12.162,29.677z"/>
		<path fill="#FEFEFE" d="M12.165,29.757c-0.002-0.028-0.003-0.055-0.005-0.083c0.076,0.012,0.09,0.066,0.087,0.131
			C12.202,29.819,12.196,29.766,12.165,29.757z"/>
		<path fill="#03A4CC" d="M1.008,21.142c0.02-0.035,0.048-0.052,0.089-0.044C1.082,21.143,1.05,21.153,1.008,21.142z"/>
		<path fill="#115665" d="M22.81,16.761c0.011-0.004,0.021-0.009,0.033-0.011c0.003-0.001,0.008,0.008,0.012,0.013
			c-0.011,0.004-0.021,0.009-0.033,0.011C22.82,16.775,22.815,16.766,22.81,16.761z"/>
		<path fill="#115665" d="M22.683,16.803c0.011-0.004,0.021-0.009,0.032-0.011c0.003-0.001,0.008,0.008,0.012,0.013
			c-0.011,0.004-0.021,0.009-0.032,0.011C22.692,16.817,22.687,16.808,22.683,16.803z"/>
		<path fill="#115665" d="M22.555,16.845c0.011-0.004,0.021-0.008,0.032-0.01c0.003,0,0.008,0.008,0.012,0.013
			c-0.01,0.004-0.02,0.009-0.031,0.011C22.564,16.859,22.56,16.85,22.555,16.845z"/>
		<path fill="#FEFEFE" d="M12.307,29.852c-0.045,0.014-0.062-0.007-0.064-0.05C12.287,29.79,12.288,29.833,12.307,29.852z"/>
		<path fill="#1D1D1B" d="M48.717,46.416c0.016,0.007,0.042,0.009,0.027,0.035c-0.002,0.004-0.032-0.008-0.05-0.013
			C48.702,46.431,48.709,46.423,48.717,46.416z"/>
		<polygon fill="#1D1D1B" points="48.815,46.479 48.82,46.489 48.808,46.488 		"/>
	</g>
</g>
</svg>
