<?xml version="1.0" encoding="UTF-8" standalone="no"?>
<svg
   xmlns:dc="http://purl.org/dc/elements/1.1/"
   xmlns:cc="http://creativecommons.org/ns#"
   xmlns:rdf="http://www.w3.org/1999/02/22-rdf-syntax-ns#"
   xmlns:svg="http://www.w3.org/2000/svg"
   xmlns="http://www.w3.org/2000/svg"
   xmlns:sodipodi="http://sodipodi.sourceforge.net/DTD/sodipodi-0.dtd"
   xmlns:inkscape="http://www.inkscape.org/namespaces/inkscape"
   width="64"
   height="64"
   viewBox="0 0 48 48"
   version="1.1"
   id="svg48"
   sodipodi:docname="illu.svg"
   inkscape:version="0.92.3 (2405546, 2018-03-11)">
  <metadata
     id="metadata54">
    <rdf:RDF>
      <cc:Work
         rdf:about="">
        <dc:format>image/svg+xml</dc:format>
        <dc:type
           rdf:resource="http://purl.org/dc/dcmitype/StillImage" />
        <dc:title></dc:title>
      </cc:Work>
    </rdf:RDF>
  </metadata>
  <defs
     id="defs52" />
  <sodipodi:namedview
     pagecolor="#ffffff"
     bordercolor="#666666"
     borderopacity="1"
     objecttolerance="10"
     gridtolerance="10"
     guidetolerance="10"
     inkscape:pageopacity="0"
     inkscape:pageshadow="2"
     inkscape:window-width="1920"
     inkscape:window-height="1017"
     id="namedview50"
     showgrid="false"
     units="px"
     inkscape:pagecheckerboard="true"
     inkscape:zoom="7.5044248"
     inkscape:cx="34.876002"
     inkscape:cy="24.331893"
     inkscape:window-x="-8"
     inkscape:window-y="-8"
     inkscape:window-maximized="1"
     inkscape:current-layer="svg48" />
  <g
     id="#00a5ceff"
     transform="matrix(0.11770974,0,0,0.11770974,-7.0112046e-7,4.0740952)">
    <path
       d="m 199.57,1.59 c 1.08,-0.58 2.24,-0.91 3.46,-0.99 50.91,-0.11 101.83,0.09 152.74,-0.1 -0.27,2.08 -0.58,4.16 -0.95,6.22 -63.04,19.49 -125.95,39.41 -189.05,58.71 0.61,-0.28 1.84,-0.83 2.45,-1.11 60.37,-19.76 120.83,-39.31 181.19,-59.09 -45.14,0.82 -90.28,2.05 -135.42,3.03 -3.84,0.2 -7.72,-0.06 -11.54,0.39 -2.39,0.7 -4.54,1.97 -6.79,2.98 C 133.46,40.66 71.27,69.71 9.06,98.71 7.34,99.51 5.57,100.2 3.81,100.92 69.06,67.81 134.32,34.72 199.57,1.59 Z"
       id="path33"
       inkscape:connector-curvature="0"
       style="opacity:1;fill:#00a5ce" />
    <path
       d="m 175.37,104.97 c -0.12,-1.72 0.26,-4.45 2.56,-4.36 5.47,0.81 10.1,4.25 15.27,6.03 7.17,3.02 15.23,3.91 22.79,1.87 1.65,3.58 6.02,5.71 9.78,4.09 3.81,-1.41 5.57,-6 4.19,-9.73 2.52,-1.11 6.02,-3.53 8.49,-1.34 1.51,3.38 0.34,7.39 -1.33,10.5 -4.16,6.99 -12.06,10.75 -19.74,12.48 -10.8,2.23 -22.66,1.09 -32.19,-4.72 -5.19,-3.17 -9.72,-8.46 -9.82,-14.82 z"
       id="path35"
       inkscape:connector-curvature="0"
       style="opacity:1;fill:#00a5ce" />
    <path
       d="m 73.22,148.38 1.19,-0.83 c 0.82,1.77 1.5,3.61 2.05,5.49 0.49,0.02 1.48,0.06 1.97,0.09 -1.01,1.98 1.27,3.49 2.08,5.11 25.84,37.58 51.57,75.24 77.38,112.84 1.7,2.54 3.36,5.1 5.35,7.44 -13.97,-33.4 -28.55,-66.54 -42.64,-99.88 63.57,27.31 126.96,55.03 190.56,82.28 -30.08,-20.8 -60.71,-40.83 -90.65,-61.82 44.99,28.78 89.86,57.74 134.74,86.68 -76.03,-32.21 -151.89,-64.84 -227.81,-97.3 13.99,31.78 27.99,63.57 41.99,95.35 7.81,18.11 16.17,36 23.66,54.23 -15.06,-23.42 -29.67,-47.15 -44.57,-70.68 -23.36,-37.2 -46.84,-74.33 -70.15,-111.55 -1.89,-2.36 -3.7,-4.79 -5.15,-7.45 z"
       id="path37"
       inkscape:connector-curvature="0"
       style="opacity:1;fill:#00a5ce" />
  </g>
  <g
     id="#1d1d1bff"
     transform="matrix(0.11770974,0,0,0.11770974,-7.0112046e-7,4.0740952)">
    <path
       d="M 213.99,8.26 C 259.13,7.28 304.27,6.05 349.41,5.23 289.05,25.01 228.59,44.56 168.22,64.32 c -0.61,0.28 -1.84,0.83 -2.45,1.11 1.55,0.99 3.4,0.05 5.06,-0.09 22.9,-4.45 46.72,-3.22 69.22,2.79 19.01,4.79 37.1,12.44 55.44,19.23 20.98,7.94 42.86,13.1 64.58,18.53 15.89,3.76 31.72,7.75 47.63,11.38 0.25,8.44 -0.15,16.89 -0.11,25.33 -13.26,1.11 -26.34,3.76 -39.03,7.74 -7.18,2.34 -13.46,6.66 -20.23,9.92 -33.33,16.97 -70.1,26.54 -107.24,30.24 -9.32,0.98 -18.71,1.88 -27.89,3.84 2.42,1.61 4.89,3.15 7.31,4.76 29.94,20.99 60.57,41.02 90.65,61.82 -63.6,-27.25 -126.99,-54.97 -190.56,-82.28 14.09,33.34 28.67,66.48 42.64,99.88 -1.99,-2.34 -3.65,-4.9 -5.35,-7.44 -25.81,-37.6 -51.54,-75.26 -77.38,-112.84 -0.81,-1.62 -3.09,-3.13 -2.08,-5.11 -0.49,-0.03 -1.48,-0.07 -1.97,-0.09 -0.55,-1.88 -1.23,-3.72 -2.05,-5.49 -2.42,-3.01 -5.84,-4.9 -9.06,-6.92 C 50.23,131.31 32.15,128.15 14.59,128.66 9.73,120.1 4.99,111.46 0,102.97 v -0.14 c 1.27,-0.64 2.53,-1.29 3.81,-1.91 1.76,-0.72 3.53,-1.41 5.25,-2.21 62.21,-29 124.4,-58.05 186.6,-87.08 2.25,-1.01 4.4,-2.28 6.79,-2.98 3.82,-0.45 7.7,-0.19 11.54,-0.39 m -65.52,86.26 c -18.43,6.54 -37.04,12.53 -55.63,18.63 -2,0.68 -4.1,1.14 -5.95,2.22 13.64,11.03 28.2,20.98 43.92,28.81 30.55,15.41 65.03,23.11 99.24,21.43 38.61,-1.68 76.22,-14.72 108.99,-34.89 -23.57,-9.01 -47.18,-17.91 -70.62,-27.24 -4.02,-1.74 -8.94,-2.26 -12.78,0.21 -5.27,3.15 -7.43,9.2 -11.41,13.57 -12.26,13.81 -32.47,19.24 -50.21,14.73 -13.91,-3.27 -25.97,-12.96 -32.56,-25.59 -2.06,-3.56 -3.04,-7.8 -5.96,-10.8 -1.81,-1.9 -4.71,-2.03 -7.03,-1.08 m 71.51,4.37 c -3.67,1.49 -5.28,5.98 -3.99,9.62 -7.56,2.04 -15.62,1.15 -22.79,-1.87 -5.17,-1.78 -9.8,-5.22 -15.27,-6.03 -2.3,-0.09 -2.68,2.64 -2.56,4.36 0.1,6.36 4.63,11.65 9.82,14.82 9.53,5.81 21.39,6.95 32.19,4.72 7.68,-1.73 15.58,-5.49 19.74,-12.48 1.67,-3.11 2.84,-7.12 1.33,-10.5 -2.47,-2.19 -5.97,0.23 -8.49,1.34 -1.55,-3.75 -6.27,-5.76 -9.98,-3.98 z"
       id="path40"
       inkscape:connector-curvature="0"
       style="opacity:1;fill:#1d1d1b" />
  </g>
  <g
     id="#ffffffff"
     transform="matrix(0.11770974,0,0,0.11770974,-7.0112046e-7,4.0740952)">
    <path
       d="m 148.47,94.52 c 2.32,-0.95 5.22,-0.82 7.03,1.08 2.92,3 3.9,7.24 5.96,10.8 6.59,12.63 18.65,22.32 32.56,25.59 17.74,4.51 37.95,-0.92 50.21,-14.73 3.98,-4.37 6.14,-10.42 11.41,-13.57 3.84,-2.47 8.76,-1.95 12.78,-0.21 23.44,9.33 47.05,18.23 70.62,27.24 -32.77,20.17 -70.38,33.21 -108.99,34.89 -34.21,1.68 -68.69,-6.02 -99.24,-21.43 -15.72,-7.83 -30.28,-17.78 -43.92,-28.81 1.85,-1.08 3.95,-1.54 5.95,-2.22 18.59,-6.1 37.2,-12.09 55.63,-18.63 z"
       id="path43"
       inkscape:connector-curvature="0"
       style="opacity:1;fill:#ffffff" />
    <path
       d="m 219.98,98.89 c 3.71,-1.78 8.43,0.23 9.98,3.98 1.38,3.73 -0.38,8.32 -4.19,9.73 -3.76,1.62 -8.13,-0.51 -9.78,-4.09 -1.29,-3.64 0.32,-8.13 3.99,-9.62 z"
       id="path45"
       inkscape:connector-curvature="0"
       style="opacity:1;fill:#ffffff" />
  </g>
</svg>
