<?xml version="1.0" encoding="utf-8"?>
<!-- Generator: Adobe Illustrator 23.0.2, SVG Export Plug-In . SVG Version: 6.00 Build 0)  -->
<svg version="1.1" id="Layer_1" xmlns="http://www.w3.org/2000/svg" xmlns:xlink="http://www.w3.org/1999/xlink" x="0px" y="0px"
	 width="64px" height="64px" viewBox="0 0 64 64" enable-background="new 0 0 64 64" xml:space="preserve">
<g>
	<g>
		<path fill="#FE3102" d="M6.864,2.171c2.494,2.157,4.905,4.241,7.381,6.382c0-2.393,0-4.701,0-7.112
			c0.193,0.16,0.316,0.259,0.435,0.363c5.695,4.926,11.392,9.849,17.078,14.785c0.283,0.245,0.434,0.222,0.7-0.01
			c5.688-4.934,11.384-9.858,17.079-14.784c0.111-0.096,0.227-0.187,0.397-0.326c0,2.376,0,4.684,0,7.107
			c2.494-2.156,4.909-4.244,7.336-6.341c0.121,0.178,0.07,0.333,0.07,0.477c0.003,8.74,0.007,17.48-0.009,26.219
			c-0.001,0.452,0.134,0.533,0.55,0.529c1.931-0.022,3.863,0,5.794-0.018c0.354-0.003,0.427,0.102,0.427,0.44
			c-0.011,5.53-0.013,11.06,0.003,16.59c0.001,0.407-0.134,0.468-0.493,0.467c-4.738-0.011-9.476-0.004-14.214-0.013
			c-0.314-0.001-0.546,0.09-0.782,0.292c-5.399,4.609-10.806,9.21-16.203,13.82c-0.237,0.203-0.375,0.205-0.614,0.001
			c-5.398-4.611-10.804-9.211-16.203-13.82c-0.236-0.202-0.468-0.293-0.782-0.293c-4.724,0.009-9.448,0.002-14.173,0.015
			c-0.399,0.001-0.537-0.065-0.536-0.512c0.019-5.502,0.016-11.005,0.004-16.507c-0.001-0.371,0.079-0.487,0.47-0.482
			c1.945,0.022,3.891,0,5.836,0.019c0.363,0.004,0.459-0.081,0.459-0.453C6.862,20.252,6.864,11.499,6.864,2.745
			C6.864,2.595,6.864,2.445,6.864,2.171z M12.749,14.975c-0.1,0.2-0.06,0.354-0.06,0.5c-0.003,5.53-0.007,11.06,0.007,16.59
			c0.001,0.389-0.107,0.475-0.481,0.473c-2.543-0.017-5.085-0.001-7.628-0.017c-0.355-0.002-0.427,0.103-0.426,0.441
			c0.013,3.46,0.015,6.92-0.002,10.379c-0.002,0.393,0.114,0.469,0.481,0.468c5.155-0.012,10.31-0.005,15.465-0.014
			c0.325-0.001,0.571,0.08,0.822,0.295c3.61,3.089,7.232,6.164,10.839,9.256c0.268,0.23,0.412,0.229,0.679,0
			c3.608-3.091,7.229-6.167,10.839-9.256c0.25-0.214,0.496-0.296,0.821-0.295c5.169,0.009,10.338,0.003,15.507,0.015
			c0.343,0.001,0.435-0.078,0.434-0.429c-0.014-3.474-0.014-6.947-0.001-10.421c0.001-0.337-0.068-0.442-0.425-0.439
			c-2.543,0.017-5.085,0.001-7.628,0.018c-0.373,0.002-0.482-0.082-0.481-0.472c0.014-5.544,0.01-11.088,0.01-16.632
			c0-0.143,0-0.286,0-0.512c-2.488,2.151-4.899,4.236-7.392,6.392c0-2.41,0-4.715,0-7.032c-0.192,0.02-0.262,0.135-0.351,0.212
			c-3.774,3.261-7.548,6.521-11.313,9.792c-0.263,0.229-0.416,0.268-0.704,0.017c-3.783-3.293-7.579-6.57-11.374-9.849
			c-0.076-0.066-0.131-0.186-0.306-0.147c0,2.305,0,4.613,0,7.005C17.6,19.17,15.183,17.081,12.749,14.975z"/>
		<path fill="#FFFFFF" d="M13.211,37.433c0.193,0.918,0.084,1.802,0.106,2.681c0.015,0.569-0.009,1.139,0.008,1.708
			c0.007,0.24-0.07,0.311-0.305,0.303c-0.472-0.016-0.944-0.012-1.416-0.001c-0.194,0.004-0.266-0.051-0.265-0.257
			c0.006-2.458,0.006-4.915,0-7.373c-0.001-0.21,0.081-0.257,0.27-0.255c0.597,0.008,1.194,0.016,1.791-0.004
			c0.23-0.007,0.318,0.123,0.413,0.279c0.756,1.227,1.574,2.414,2.293,3.686c0.124-0.104,0.07-0.233,0.058-0.34
			c-0.124-1.094-0.039-2.192-0.072-3.287c-0.007-0.244,0.043-0.349,0.315-0.337c0.471,0.022,0.944,0.013,1.416,0.003
			c0.199-0.004,0.26,0.063,0.26,0.264c-0.006,2.458-0.006,4.915,0,7.373c0.001,0.216-0.089,0.251-0.273,0.248
			c-0.472-0.009-0.945-0.016-1.416,0.003c-0.226,0.009-0.349-0.073-0.46-0.262c-0.856-1.458-1.843-2.838-2.604-4.352
			C13.32,37.491,13.288,37.483,13.211,37.433z"/>
		<path fill="#FFFFFF" d="M33.349,37.712c0.105,1.387,0.02,2.777,0.051,4.165c0.004,0.174-0.047,0.25-0.234,0.246
			c-0.5-0.01-1-0.013-1.5,0.001c-0.221,0.006-0.244-0.095-0.244-0.276c0.004-2.445,0.006-4.89-0.002-7.335
			c-0.001-0.231,0.085-0.278,0.292-0.274c0.569,0.011,1.139,0.015,1.708-0.002c0.225-0.007,0.349,0.073,0.464,0.26
			c0.774,1.262,1.622,2.477,2.399,3.766c-0.03-0.344-0.081-0.688-0.087-1.033c-0.015-0.903-0.005-1.806-0.019-2.708
			c-0.003-0.216,0.056-0.291,0.278-0.284c0.472,0.015,0.945,0.012,1.417,0.001c0.208-0.005,0.293,0.047,0.293,0.277
			c-0.008,2.445-0.006,4.89-0.002,7.335c0,0.187-0.038,0.298-0.25,0.269c-0.014-0.002-0.028,0-0.042,0
			c-0.555-0.005-1.195,0.159-1.638-0.066c-0.405-0.206-0.608-0.826-0.88-1.276c-0.617-1.02-1.303-2-1.839-3.069
			c-0.025-0.115-0.042-0.291-0.191-0.244C33.154,37.52,33.293,37.631,33.349,37.712z"/>
		<path fill="#FFFFFF" d="M20.011,38.177c0-1.181,0.01-2.361-0.007-3.542c-0.004-0.295,0.044-0.406,0.377-0.402
			c1.653,0.019,3.306,0.017,4.959,0.001c0.312-0.003,0.415,0.076,0.393,0.392c-0.028,0.401-0.02,0.806-0.002,1.208
			c0.011,0.244-0.08,0.303-0.31,0.3c-0.889-0.012-1.778,0.005-2.667-0.01c-0.273-0.005-0.387,0.044-0.384,0.355
			c0.01,0.912-0.005,0.912,0.899,0.912c0.472,0,0.945,0.008,1.417-0.004c0.2-0.005,0.268,0.06,0.262,0.261
			c-0.012,0.416-0.018,0.834,0.002,1.25c0.012,0.254-0.095,0.297-0.317,0.293c-0.653-0.012-1.306,0.006-1.958-0.009
			c-0.239-0.005-0.305,0.072-0.301,0.306c0.013,0.778-0.003,1.556,0.01,2.333c0.004,0.236-0.065,0.31-0.304,0.304
			c-0.583-0.016-1.167-0.019-1.75,0.001c-0.257,0.009-0.328-0.064-0.325-0.323C20.019,40.594,20.011,39.386,20.011,38.177z"/>
		<path fill="#FFFFFF" d="M50.168,34.243c0.819,0,1.633,0.002,2.447-0.001c0.207-0.001,0.235,0.173,0.302,0.298
			c0.401,0.741,0.794,1.487,1.214,2.278c0.402-0.788,0.786-1.519,1.148-2.261c0.11-0.226,0.232-0.331,0.5-0.32
			c0.568,0.024,1.138,0.007,1.707,0.007c0.082,0.149-0.042,0.238-0.096,0.338c-0.69,1.281-1.38,2.563-2.084,3.837
			c-0.147,0.265-0.209,0.527-0.204,0.828c0.013,0.847-0.008,1.694,0.012,2.541c0.007,0.285-0.088,0.349-0.352,0.34
			c-0.569-0.018-1.139-0.018-1.708,0c-0.244,0.008-0.301-0.076-0.297-0.307c0.012-0.875-0.002-1.75,0.009-2.624
			c0.003-0.259-0.054-0.481-0.187-0.705c-0.755-1.277-1.499-2.56-2.244-3.843C50.27,34.532,50.162,34.433,50.168,34.243z"/>
		<path fill="#FFFFFF" d="M47.723,39.169c0,0.86-0.011,1.721,0.006,2.581c0.005,0.278-0.05,0.393-0.358,0.377
			c-0.526-0.027-1.056-0.031-1.581,0.001c-0.335,0.021-0.379-0.106-0.377-0.4c0.013-1.734-0.002-3.469,0.015-5.204
			c0.003-0.315-0.08-0.399-0.392-0.392c-0.409,0.009-0.957,0.187-1.19-0.079c-0.202-0.231-0.063-0.765-0.066-1.165
			c-0.004-0.647-0.001-0.647,0.659-0.647c1.513,0,3.025,0.007,4.538-0.006c0.281-0.002,0.396,0.057,0.376,0.362
			c-0.027,0.428-0.016,0.86-0.003,1.29c0.007,0.205-0.068,0.265-0.263,0.258c-0.346-0.012-0.695,0.011-1.04-0.008
			c-0.254-0.014-0.334,0.066-0.33,0.325C47.732,37.365,47.723,38.267,47.723,39.169z"/>
		<path fill="#FFFFFF" d="M29.489,38.198c0,1.194-0.009,2.389,0.007,3.583c0.004,0.279-0.08,0.354-0.351,0.344
			c-0.583-0.02-1.167-0.018-1.75-0.001c-0.245,0.007-0.335-0.042-0.334-0.313c0.011-2.417,0.01-4.833,0.001-7.25
			c-0.001-0.254,0.063-0.335,0.324-0.326c0.597,0.02,1.195,0.02,1.791,0c0.272-0.009,0.319,0.094,0.317,0.338
			C29.483,35.782,29.489,36.99,29.489,38.198z"/>
		<path fill="#FFFFFF" d="M6.973,38.166c0-1.193,0.008-2.387-0.006-3.58c-0.003-0.274,0.071-0.359,0.348-0.35
			c0.596,0.02,1.193,0.015,1.79,0.002c0.227-0.005,0.312,0.052,0.311,0.298c-0.009,2.428-0.009,4.857,0,7.285
			c0.001,0.238-0.068,0.309-0.304,0.303c-0.61-0.015-1.222-0.02-1.831,0.002c-0.278,0.01-0.313-0.102-0.311-0.339
			C6.979,40.581,6.973,39.373,6.973,38.166z"/>
		<path fill="#FFFFFF" d="M40.104,38.168c0-1.195,0.01-2.39-0.007-3.584c-0.004-0.28,0.079-0.355,0.348-0.347
			c0.583,0.018,1.167,0.015,1.75,0.001c0.238-0.006,0.34,0.036,0.339,0.312c-0.011,2.417-0.011,4.835-0.001,7.252
			c0.001,0.259-0.069,0.331-0.325,0.323c-0.597-0.019-1.195-0.02-1.792,0c-0.268,0.009-0.32-0.084-0.318-0.332
			C40.111,40.586,40.104,39.377,40.104,38.168z"/>
	</g>
</g>
</svg>
