<?xml version="1.0" encoding="utf-8"?>
<!-- Generator: Adobe Illustrator 16.0.0, SVG Export Plug-In . SVG Version: 6.00 Build 0)  -->
<!DOCTYPE svg PUBLIC "-//W3C//DTD SVG 1.1//EN" "http://www.w3.org/Graphics/SVG/1.1/DTD/svg11.dtd">
<svg version="1.1" id="Layer_1" xmlns="http://www.w3.org/2000/svg" xmlns:xlink="http://www.w3.org/1999/xlink" x="0px" y="0px"
	 width="64px" height="64px" viewBox="0 0 64 64" enable-background="new 0 0 64 64" xml:space="preserve">
<g>
	<g>
		<path fill-rule="evenodd" clip-rule="evenodd" d="M64,29.879c0,0.018,0,0.036,0,0.055c-1.27,1.66-2.54,3.32-3.803,4.985
			c-0.042,0.056-0.036,0.186-0.001,0.255c0.213,0.419,0.326,0.857,0.334,1.328c0.02,1.122-0.396,2.097-1.075,2.948
			c-1.747,2.188-4.14,3.073-6.842,3.244c-1.091,0.068-2.157-0.182-3.203-0.496c-0.086-0.025-0.226-0.028-0.28,0.022
			c-0.196,0.182-0.366,0.392-0.563,0.607c0.783,0.283,1.559,0.564,2.316,0.839c0.01,0.042,0.016,0.052,0.014,0.06
			c-0.474,1.733-0.947,3.468-1.427,5.199c-0.02,0.07-0.079,0.146-0.142,0.186c-0.62,0.389-1.221,0.818-1.873,1.143
			c-1.314,0.653-2.677,1.111-4.178,0.557c-0.038,0.127-0.09,0.245-0.105,0.367c-0.028,0.214-0.15,0.291-0.35,0.336
			c-1.19,0.269-2.377,0.55-3.564,0.828c-5.746,1.35-11.492,2.7-17.239,4.047c-1.25,0.293-2.503,0.571-3.755,0.856
			c-0.036-0.002-0.072-0.003-0.108-0.004c-0.054,0.002-0.107,0.003-0.16,0.004c-0.221-0.002-0.442-0.004-0.663-0.006
			c-0.036,0.001-0.073,0.003-0.109,0.005c-0.036-0.001-0.072-0.001-0.108-0.002c-1.537-0.272-2.449-1.547-2.197-3.078
			c0.283-1.729,1.235-2.995,2.709-3.897c0.125-0.076,0.253-0.148,0.422-0.246c-0.276-0.028-0.491-0.062-0.706-0.067
			c-0.089-0.003-0.201,0.029-0.266,0.087c-0.579,0.517-1.229,0.92-1.926,1.252c-1.535,0.73-3.14,1.148-4.853,0.987
			c-0.618-0.058-1.228-0.19-1.855-0.291c-0.078,0.28-0.147,0.58-0.25,0.867c-0.034,0.096-0.144,0.208-0.239,0.23
			c-1.255,0.304-2.517,0.585-3.772,0.886C2.787,54.307,1.395,54.656,0,54.999c0.038-0.066,0.064-0.144,0.114-0.199
			C1.073,53.727,2.023,52.645,3,51.588c0.372-0.402,0.645-0.829,0.756-1.372c0.085-0.414,0.232-0.815,0.35-1.224
			c0.404-1.404,0.807-2.81,1.215-4.23c-1.002-0.514-1.995-1.023-3.042-1.561c3.142-0.721,6.21-1.426,9.309-2.137
			c-0.05,0.192-0.089,0.347-0.129,0.502c-0.008,0.037-0.015,0.074-0.023,0.111c0.028-0.017,0.056-0.034,0.083-0.051
			c0.091-0.109,0.251-0.211,0.262-0.328c0.167-1.683-0.503-2.863-1.998-3.583c-0.073-0.035-0.144-0.147-0.153-0.23
			c-0.026-0.26-0.008-0.525-0.034-0.786c-0.234-2.381-1.176-4.456-2.747-6.247c-0.421-0.479-0.891-0.916-1.356-1.389
			c0.082,0.005,0.152-0.003,0.216,0.014c0.854,0.224,1.729,0.392,2.557,0.69c1.962,0.706,3.537,2.002,4.912,3.522
			c0.871,0.962,1.617,2.037,2.418,3.062c0.02,0.036,0.039,0.072,0.058,0.108c0.026,0.037,0.053,0.075,0.08,0.112
			c0.012,0.017,0.023,0.034,0.035,0.051c0.019,0.035,0.037,0.07,0.056,0.105c0.029,0.039,0.059,0.078,0.089,0.117
			c0.021,0.036,0.042,0.071,0.063,0.107c0.019,0.017,0.038,0.033,0.057,0.05c0.018,0.035,0.035,0.071,0.052,0.106
			c0.017,0.037,0.035,0.073,0.052,0.11c0.003,0.007,0.005,0.014,0.009,0.02c0.002,0.004,0.009,0.004,0.014,0.005
			c-0.008-0.008-0.017-0.016-0.025-0.023c-0.018-0.036-0.037-0.072-0.055-0.108c-0.018-0.035-0.035-0.07-0.052-0.105
			c-0.02-0.016-0.039-0.032-0.058-0.048c-0.015-0.043-0.029-0.086-0.044-0.129c-0.016-0.033-0.031-0.066-0.046-0.099
			c-0.023-0.036-0.046-0.072-0.069-0.107c-0.003-0.018-0.006-0.034-0.009-0.052c-0.031-0.059-0.062-0.118-0.093-0.177
			c-0.019-0.035-0.038-0.069-0.058-0.104c-0.295-0.628-0.598-1.253-0.884-1.886c-2.018-4.473-3.325-9.145-3.917-14.017
			c-0.057-0.471-0.085-0.972-0.268-1.398c-0.965-2.257-1.29-4.591-0.901-7.008c0.19-1.187-0.017-0.909,1.031-1.554
			c1.946-1.198,4.104-1.761,6.362-1.975c0.522-0.05,1.068,0.002,1.564-0.135c3.313-0.914,6.688-1.395,10.114-1.561
			c0.108,0,0.217,0,0.325-0.001c0.126,0,0.252,0,0.378,0c0.165-0.015,0.331-0.03,0.496-0.045c0.798,0,1.595,0,2.393,0
			c0.166,0.014,0.332,0.028,0.498,0.042c0.126,0,0.251,0,0.377,0c0.108,0.001,0.217,0.001,0.325,0.002
			c2.181,0.103,4.349,0.327,6.498,0.718c2.451,0.446,4.853,1.068,7.144,2.066c1.282,0.558,2.499,1.227,3.576,2.129
			c0.155,0.13,0.23,0.268,0.25,0.477c0.155,1.672,0.151,3.346,0.067,5.021c-0.142,2.799-0.529,5.565-1.166,8.293
			c-0.294,1.256-0.633,2.502-0.934,3.683c0.847,0.813,1.688,1.606,2.509,2.422c0.157,0.156,0.28,0.197,0.485,0.143
			c0.412-0.111,0.83-0.195,1.271-0.296c-0.034,0.148-0.058,0.254-0.081,0.358c-0.01,0.023-0.02,0.047-0.029,0.07
			c-0.013,0.016-0.014,0.031-0.003,0.047c0.001,0.013,0.002,0.025,0.004,0.038c0.013-0.011,0.026-0.021,0.04-0.032
			c0.077-0.046,0.154-0.092,0.23-0.14c1.653-1.033,3.436-1.54,5.395-1.329c0.278,0.03,0.561,0.132,0.83,0.102
			c0.698-0.078,1.389-0.216,2.084-0.32C62.479,30.091,63.239,29.987,64,29.879z M14.942,23.301
			c-0.003-0.019-0.006-0.037-0.009-0.056c-0.026-0.038-0.052-0.075-0.078-0.113c-0.01-0.017-0.021-0.033-0.031-0.05
			c-0.048-0.076-0.097-0.153-0.145-0.229c-0.01-0.025-0.017-0.052-0.03-0.075c-1.109-1.869-1.846-3.876-2.233-6.012
			c-0.184-1.016-0.292-2.038-0.247-3.085c0.097-0.02,0.183-0.046,0.271-0.054c0.189-0.017,0.379-0.032,0.569-0.036
			c1.601-0.037,3.101,0.375,4.514,1.087c0.779,0.392,1.51,0.879,2.262,1.324c0.012,0.011,0.025,0.022,0.037,0.033
			c-0.012-0.027-0.024-0.053-0.036-0.08c-0.53-0.989-1.27-1.793-2.171-2.454c0.038-0.019,0.075-0.038,0.112-0.056
			c1.337,0.134,2.636,0.452,3.904,0.882c4.214,1.43,7.865,3.72,10.782,7.114c0.982,1.143,1.817,2.388,2.455,3.759
			c-0.026,0.001-0.053,0.003-0.078,0.005c-0.181-0.059-0.359-0.12-0.54-0.176c-2.162-0.67-4.386-0.916-6.636-0.966
			c-1.606-0.037-3.204,0.067-4.763,0.492c-0.771,0.21-1.514,0.493-2.11,1.059c-0.383,0.363-0.484,0.805-0.299,1.288
			c0.095,0.248,0.235,0.494,0.407,0.695c0.657,0.764,1.495,1.272,2.431,1.625c2.326,0.877,4.525,2,6.589,3.384
			c1.171,0.784,2.187,1.726,2.907,2.956c0.104,0.177,0.197,0.361,0.3,0.551c0.466-0.108,0.917-0.214,1.417-0.331
			c-0.234-0.403-0.428-0.782-0.662-1.134c-0.826-1.238-1.96-2.144-3.207-2.921c-1.462-0.911-3.041-1.579-4.629-2.231
			c-1.243-0.511-2.485-1.024-3.707-1.583c-0.383-0.176-0.729-0.47-1.035-0.769c-0.297-0.291-0.293-0.621-0.07-0.967
			c0.256-0.397,0.593-0.728,1.05-0.861c0.709-0.208,1.424-0.42,2.152-0.536c2.118-0.338,4.239-0.284,6.348,0.098
			c2.773,0.503,5.296,1.565,7.439,3.433c0.952,0.831,1.787,1.767,2.451,2.848c-0.003,0.021-0.006,0.043-0.009,0.063
			c-0.656-0.347-1.337-0.625-2.127-0.757c1.223,1.047,1.767,2.418,2.167,3.893c0.517-0.121,1.021-0.239,1.528-0.358
			c-0.008-0.111-0.014-0.191-0.018-0.272c-0.13-2.286-0.767-4.42-1.927-6.396c-0.782-1.333-1.771-2.482-2.999-3.425
			c0.002-0.016,0.003-0.033,0.003-0.049c0.104,0.026,0.21,0.049,0.313,0.079c1.665,0.478,3.127,1.333,4.466,2.414
			c0.034,0.025,0.069,0.05,0.104,0.074c-0.014-0.026-0.028-0.053-0.042-0.08c0.002-0.019-0.005-0.035-0.018-0.049
			c-0.013-0.02-0.025-0.039-0.038-0.058c-0.051-0.085-0.098-0.173-0.151-0.255c-1.888-2.863-4.43-4.981-7.46-6.538
			c-1.014-0.521-2.082-0.903-3.271-1.184c1.023-0.182,1.967-0.153,2.911-0.046c1.198,0.135,2.362,0.421,3.512,0.774
			c0.044,0.001,0.088,0.003,0.132,0.004c-0.005,0.017-0.01,0.034-0.014,0.051c0.008,0,0.017,0.001,0.024,0.001
			c-0.007-0.017-0.014-0.034-0.021-0.05c-0.04-0.016-0.081-0.032-0.121-0.048c-0.072-0.052-0.139-0.112-0.216-0.154
			c-1.879-1.024-3.733-2.099-5.645-3.059c-3.123-1.568-6.375-2.809-9.798-3.564c-2.04-0.45-4.102-0.707-6.196-0.591
			c-1.325,0.073-2.62,0.29-3.863,0.784c-0.314,0.125-0.424,0.308-0.45,0.634c-0.11,1.388,0.061,2.747,0.393,4.088
			c0.53,2.142,1.448,4.099,2.825,5.832c0.044,0.056,0.088,0.112,0.132,0.168c0.011,0.016,0.022,0.032,0.033,0.048
			c0.033,0.038,0.065,0.075,0.098,0.113c0.021,0.017,0.042,0.034,0.064,0.05c0.002,0.017,0.004,0.035,0.006,0.052
			c0.021,0.026,0.042,0.052,0.063,0.079c0.009-0.01,0.018-0.02,0.027-0.029c-0.017-0.015-0.034-0.03-0.05-0.044
			C14.976,23.336,14.959,23.318,14.942,23.301z M9.395,31.783c0.004,0.018,0.009,0.035,0.013,0.053
			c0.014,0.032,0.025,0.066,0.042,0.098c0.835,1.477,1.327,3.06,1.481,4.749c0.008,0.082,0.094,0.189,0.171,0.229
			c0.701,0.358,1.294,0.851,1.709,1.512c0.4,0.639,0.726,1.323,1.08,1.98c0.708-0.137,1.481-0.287,2.264-0.438
			c-1.003-1.752-1.967-3.535-3.244-5.118c-0.979-1.213-2.102-2.267-3.462-3.05c-0.018-0.005-0.035-0.011-0.053-0.016
			c-0.006-0.014-0.011-0.027-0.017-0.04c-0.008,0.009-0.017,0.018-0.025,0.026C9.369,31.772,9.382,31.777,9.395,31.783z
			 M33.703,13.299l0.002-0.006c0.059,0.067,0.116,0.134,0.174,0.201c0.392,0.458,0.782,0.916,1.174,1.374l-0.019-0.012l-0.019,0.01
			c-2.38-1.553-4.974-2.624-7.7-3.399c0.003-0.023,0.007-0.046,0.01-0.069c0.492,0,0.985,0,1.477,0
			c0.115,0.019,0.23,0.038,0.346,0.057c0.003-0.015,0.006-0.031,0.01-0.046c-0.063-0.021-0.126-0.042-0.19-0.063
			c-0.224-0.065-0.449-0.129-0.672-0.196c-3.26-0.974-6.583-1.518-9.994-1.444c-1.596,0.035-3.177,0.202-4.699,0.712
			c-0.547,0.183-1.062,0.464-1.591,0.701c-0.015,0.003-0.029,0.007-0.044,0.011c0.008,0.008,0.016,0.017,0.024,0.025
			c0.005-0.014,0.009-0.028,0.014-0.042c0.072-0.002,0.145,0.003,0.216-0.008c1.424-0.226,2.857-0.317,4.299-0.288
			c2.758,0.055,5.452,0.513,8.102,1.256c3.132,0.879,6.117,2.13,9.007,3.613c2.121,1.089,4.153,2.323,5.966,3.883
			c0.613,0.528,1.15,1.144,1.722,1.719l0.006-0.004c-0.065-0.024-0.132-0.046-0.196-0.072c-0.593-0.238-1.174-0.508-1.779-0.707
			c-0.599-0.196-1.226-0.27-1.9-0.196c0.062,0.045,0.088,0.068,0.116,0.086c1.473,0.917,2.75,2.055,3.841,3.401
			c1.175,1.449,2.056,3.049,2.46,4.888c-0.017,0-0.033,0-0.05,0.002c-0.054-0.059-0.108-0.116-0.161-0.176
			c-0.625-0.718-1.34-1.307-2.278-1.571c-0.015-0.006-0.029-0.013-0.043-0.02c0.014,0.026,0.028,0.053,0.042,0.079
			c1.392,2.024,1.869,4.317,1.971,6.736c0.621-0.146,1.233-0.288,1.856-0.433c-0.118-1.192-0.393-2.316-0.872-3.437
			c0.123,0.044,0.204,0.072,0.284,0.102c1.462,0.549,2.771,1.357,3.977,2.342c0.078,0.063,0.19,0.152,0.27,0.138
			c0.444-0.084,0.884-0.195,1.366-0.307c-1.635-1.72-3.499-2.996-5.743-3.766c0.441-0.239,0.865-0.194,1.315-0.11
			c-0.189-1.337-0.531-2.598-1.039-3.873c-0.209,0.644-0.458,1.209-0.884,1.678c-0.015-0.017-0.029-0.033-0.043-0.05
			c0.008-0.035,0.014-0.07,0.023-0.104c0.24-0.791,0.407-1.593,0.371-2.425c-0.007-0.176-0.059-0.349-0.089-0.523
			c-0.024,0.004-0.049,0.008-0.073,0.013c-0.008,0.042-0.014,0.086-0.023,0.128c-0.138,0.649-0.37,1.255-0.816,1.762l0.006,0.004
			c0.008-0.062,0.011-0.125,0.024-0.185c0.214-0.911,0.341-1.828,0.185-2.761c-0.024-0.149-0.097-0.29-0.147-0.434
			c-0.138,0.7-0.359,1.33-0.727,1.909c-0.02-0.02-0.039-0.039-0.059-0.059c0.055-0.593,0.135-1.185,0.157-1.779
			c0.025-0.664-0.118-1.276-0.615-1.783c-0.664-0.676-1.262-1.42-1.94-2.081c-1.839-1.79-3.973-3.169-6.237-4.356
			c-0.02-0.012-0.038-0.023-0.057-0.036c-0.019-0.006-0.036-0.012-0.054-0.018c-0.019-0.013-0.037-0.025-0.055-0.038
			c-0.019-0.005-0.036-0.011-0.054-0.016c-0.036-0.018-0.072-0.035-0.107-0.052c-0.009-0.009-0.018-0.019-0.025-0.028
			c0.001,0.006,0.001,0.014,0.005,0.017c0.006,0.005,0.015,0.007,0.022,0.01c0.037,0.034,0.073,0.067,0.109,0.101
			C33.671,13.296,33.687,13.301,33.703,13.299z M17.265,25.156c0.009,0.015,0.017,0.03,0.026,0.045
			c0.481,0.902,1.197,1.545,2.112,1.935c0.067-0.341,0.097-0.685,0.203-1.003c0.245-0.736,0.792-1.219,1.447-1.585
			c1.285-0.718,2.702-0.942,4.138-1.086c1.647-0.166,3.29-0.042,4.932,0.094c0.453,0.037,0.905,0.075,1.397,0.115
			c-0.439-0.793-1.071-1.3-1.838-1.669c-0.433,0.574-0.977,0.961-1.61,1.245c-0.33-0.642-0.691-1.24-1.358-1.6
			c-0.273,0.62-0.682,1.103-1.202,1.518c-0.708-0.938-1.479-1.78-2.589-2.265c-0.062,0.978-0.306,2.135-0.527,2.515
			c-0.954-0.437-1.805-1.012-2.484-1.876c-0.212,1.01-0.006,1.944,0.216,2.897c-1.014-0.245-1.841-0.754-2.625-1.466
			c0.252,1.063,0.889,1.822,1.546,2.602c-0.643,0.01-1.195-0.133-1.713-0.415c-0.015-0.009-0.03-0.018-0.045-0.027
			c-0.021-0.01-0.041-0.021-0.062-0.031c-0.011-0.008-0.022-0.016-0.034-0.024c0.013,0.007,0.025,0.014,0.038,0.02
			C17.245,25.116,17.255,25.136,17.265,25.156z M44.694,17.045c-0.021,0.015-0.042,0.029-0.063,0.043
			c-0.032,0.022-0.065,0.045-0.098,0.067c-0.717,0.553-1.171,1.288-1.463,2.131c-0.021,0.059-0.015,0.146,0.015,0.201
			c0.085,0.162,0.188,0.315,0.315,0.522c0.171-1.069,0.552-1.992,1.181-2.807c0.023-0.032,0.048-0.063,0.071-0.095
			c0.013-0.022,0.026-0.045,0.039-0.067c0.018,0,0.036,0,0.054,0c0.023-0.028,0.047-0.056,0.07-0.084
			c-0.022,0.012-0.045,0.024-0.067,0.036C44.729,17.01,44.712,17.027,44.694,17.045z M24.03,38.211
			c0.102-0.078,0.232-0.137,0.301-0.236c1.03-1.508,2.318-2.746,3.864-3.714c0.531-0.332,1.085-0.628,1.647-0.951
			c-0.205-0.166-0.418-0.32-0.607-0.499c-0.146-0.137-0.268-0.123-0.431-0.036c-1.27,0.677-2.361,1.568-3.254,2.696
			c-0.658,0.831-1.214,1.726-1.576,2.729c-0.009,0.012-0.018,0.023-0.026,0.035C23.975,38.227,24.002,38.219,24.03,38.211z
			 M27.547,53.476c-0.01,0.026-0.02,0.054-0.029,0.081c0.035-0.004,0.069-0.007,0.103-0.011c0.439-0.101,0.878-0.202,1.24-0.286
			c-0.011-0.206-0.049-0.344-0.018-0.463c0.12-0.462,0.262-0.919,0.395-1.378c0.12-0.413,0.238-0.826,0.357-1.239
			c0.018,0.001,0.036,0.003,0.054,0.004c0.251,0.896,0.503,1.791,0.765,2.726c0.178-0.233,0.33-0.434,0.482-0.634
			c0.716-0.94,1.433-1.881,2.148-2.821c0.018,0.003,0.034,0.004,0.052,0.004c-0.146,0.521-0.27,1.049-0.446,1.56
			c-0.174,0.502-0.15,1.089-0.594,1.507c0.49-0.117,0.981-0.234,1.402-0.335c-0.019-0.192-0.066-0.319-0.036-0.426
			c0.263-0.947,0.523-1.896,0.817-2.835c0.151-0.484,0.126-1.051,0.582-1.443c-0.595,0.138-1.188,0.276-1.872,0.435
			c0.329,0.159,0.168,0.287,0.085,0.4c-0.63,0.861-1.265,1.72-1.899,2.578c-0.028,0.037-0.075,0.062-0.121,0.099
			c-0.148-0.545-0.3-1.065-0.43-1.592c-0.077-0.311-0.329-0.647,0.149-0.916c-0.026-0.014-0.054-0.027-0.08-0.041
			c-0.602,0.142-1.204,0.283-1.744,0.41c0.019,0.188,0.069,0.321,0.039,0.432c-0.342,1.216-0.701,2.428-1.043,3.644
			C27.842,53.16,27.765,53.359,27.547,53.476z M13.151,23.283c-0.011-0.008-0.022-0.016-0.033-0.023
			c0.008,0.035,0.016,0.069,0.024,0.104c0.184,0.867,0.342,1.739,0.554,2.599c1.156,4.69,3.083,9.043,5.735,13.08
			c0.099,0.15,0.182,0.198,0.37,0.151c0.807-0.201,1.619-0.385,2.431-0.561c0.191-0.042,0.279-0.127,0.337-0.318
			c0.532-1.733,1.399-3.277,2.693-4.557c0.537-0.53,1.136-0.998,1.705-1.493c-0.046-0.023-0.124-0.07-0.206-0.106
			c-1.056-0.474-2.095-0.988-3.171-1.409c-3.476-1.357-6.533-3.339-9.132-6.017C14.005,24.265,13.586,23.767,13.151,23.283z
			 M48.716,16.999c-1.396-0.259-2.551,0.226-3.301,1.397c-0.411,0.644-0.658,1.351-0.721,2.112c-0.023,0.288-0.06,0.636,0.071,0.865
			c1.148,2.021,1.934,4.164,2.287,6.461c0.032,0.208,0.096,0.36,0.339,0.381c0.026-0.086,0.053-0.172,0.079-0.258
			c0.793-2.633,1.329-5.316,1.586-8.055c0.192-2.051,0.257-4.102,0.054-6.156c-0.022-0.229-0.11-0.38-0.285-0.521
			c-1.313-1.061-2.816-1.768-4.393-2.325c-4.048-1.429-8.248-1.95-12.514-2.041c-1.93-0.042-3.857,0.049-5.778,0.252
			c-0.063,0.006-0.125,0.027-0.241,0.053c0.085,0.029,0.109,0.041,0.135,0.046c3.528,0.791,6.878,2.044,10.015,3.855
			c0.102,0.059,0.262,0.077,0.376,0.046c1.598-0.421,3.205-0.53,4.844-0.264c2.138,0.347,4.109,1.073,5.828,2.413
			c0.636,0.496,1.231,1.039,1.671,1.728C48.75,16.987,48.732,16.99,48.716,16.999z M28.774,46.714
			c0.021,0.021,0.042,0.041,0.063,0.062c0.845-0.195,1.689-0.387,2.532-0.591c0.091-0.021,0.165-0.117,0.278-0.203
			c-0.382-0.13-0.4-0.163-0.308-0.489c0.251-0.878,0.499-1.755,0.759-2.63c0.025-0.086,0.108-0.199,0.185-0.218
			c0.726-0.183,1.456-0.347,2.207-0.521c0.378,0.813,0.749,1.615,1.124,2.415c0.104,0.224,0.007,0.353-0.18,0.466
			c-0.089,0.054-0.157,0.14-0.273,0.247c0.102,0.016,0.12,0.024,0.136,0.021c0.986-0.226,1.974-0.449,2.958-0.685
			c0.08-0.02,0.142-0.119,0.16-0.137c-0.209-0.133-0.461-0.203-0.551-0.364c-0.456-0.816-0.87-1.655-1.305-2.498
			c0.211-0.091,0.387-0.161,0.557-0.241c1.418-0.672,2.379-1.714,2.655-3.302c0.177-1.014-0.298-1.606-1.316-1.565
			c-0.564,0.022-1.131,0.135-1.685,0.258c-1.756,0.39-3.506,0.804-5.259,1.209c-0.133,0.03-0.273,0.054-0.237,0.261
			c0.322,0.035,0.289,0.234,0.221,0.471c-0.697,2.412-1.392,4.824-2.082,7.239c-0.074,0.259-0.211,0.451-0.442,0.589
			C28.893,46.554,28.839,46.644,28.774,46.714z M49.979,41.166c0.149-0.035,0.247-0.03,0.301-0.076
			c0.169-0.146,0.341-0.128,0.533-0.07c1.067,0.324,2.145,0.315,3.22,0.058c1.463-0.351,2.819-0.921,3.887-2.029
			c0.608-0.631,1.048-1.357,1.167-2.247c0.102-0.758-0.244-1.305-0.99-1.426c-0.458-0.074-0.938-0.061-1.404-0.021
			c-0.774,0.064-1.545,0.188-2.318,0.273c-0.231,0.026-0.502,0.052-0.636-0.189c-0.128-0.232-0.014-0.477,0.145-0.651
			c0.227-0.253,0.466-0.517,0.751-0.693c0.794-0.49,1.683-0.699,2.609-0.717c0.463-0.009,0.924,0.076,1.318,0.347
			c0.097,0.067,0.151,0.203,0.213,0.313c0.028,0.052,0.026,0.12,0.039,0.181c0.062-0.036,0.142-0.059,0.183-0.111
			c0.253-0.319,0.497-0.646,0.743-0.97c0.321-0.423,0.643-0.846,1.011-1.33c-0.187,0.04-0.33,0.027-0.401,0.093
			c-0.269,0.249-0.556,0.186-0.864,0.119c-2.146-0.464-4.095,0.028-5.855,1.287c-0.947,0.677-1.615,1.574-1.837,2.752
			c-0.155,0.826,0.19,1.406,1.021,1.493c0.61,0.063,1.241-0.039,1.861-0.088c0.667-0.053,1.331-0.148,1.998-0.188
			c0.395-0.022,0.558,0.229,0.386,0.584c-0.119,0.247-0.278,0.502-0.484,0.676c-1.255,1.056-2.702,1.365-4.289,1.008
			c-0.468-0.105-0.576-0.304-0.55-0.813c-0.08,0.034-0.17,0.043-0.201,0.091C51.025,39.576,50.525,40.338,49.979,41.166z
			 M8.538,50.701c0.008,0.022,0.017,0.044,0.024,0.066c0.073-0.017,0.166-0.012,0.214-0.055c0.173-0.155,0.354-0.134,0.557-0.078
			c0.27,0.074,0.543,0.142,0.819,0.181c1.338,0.191,2.61-0.083,3.845-0.582c1.178-0.477,2.223-1.135,2.954-2.21
			c0.361-0.531,0.622-1.104,0.652-1.756c0.034-0.699-0.269-1.154-0.956-1.266c-0.518-0.084-1.063-0.063-1.59-0.023
			c-0.775,0.058-1.544,0.195-2.319,0.256c-0.514,0.04-0.709-0.275-0.421-0.7c0.217-0.319,0.511-0.617,0.834-0.829
			c0.693-0.453,1.491-0.636,2.31-0.707c0.55-0.047,1.091,0.018,1.569,0.318c0.114,0.072,0.168,0.243,0.245,0.371
			c0.026,0.044,0.038,0.098,0.056,0.146c0.049-0.025,0.114-0.039,0.144-0.079c0.189-0.254,0.371-0.514,0.554-0.771
			c0.338-0.477,0.675-0.953,1.049-1.48c-0.123,0.011-0.21-0.009-0.248,0.025c-0.232,0.217-0.49,0.178-0.764,0.116
			c-2.152-0.48-4.116-0.013-5.891,1.245c-0.98,0.694-1.68,1.615-1.883,2.843c-0.122,0.733,0.196,1.264,0.88,1.414
			c0.27,0.059,0.559,0.079,0.834,0.056c0.649-0.057,1.293-0.16,1.942-0.225c0.448-0.045,0.9-0.081,1.351-0.076
			c0.278,0.003,0.402,0.189,0.302,0.447c-0.095,0.246-0.236,0.49-0.41,0.688c-0.454,0.519-1.062,0.806-1.707,1.009
			c-0.916,0.288-1.845,0.375-2.776,0.08c-0.416-0.131-0.518-0.32-0.441-0.785c-0.097,0.042-0.193,0.053-0.229,0.104
			C9.533,49.194,9.037,49.948,8.538,50.701z M20.261,40.707c0.403,0.113,0.422,0.152,0.322,0.501
			c-0.472,1.641-0.958,3.278-1.409,4.924c-0.12,0.44-0.177,0.907-0.191,1.363c-0.016,0.512,0.242,0.849,0.735,0.981
			c0.361,0.097,0.75,0.162,1.121,0.145c1.219-0.058,2.389-0.365,3.529-0.795c1.855-0.699,3.065-1.966,3.573-3.912
			c0.412-1.582,0.899-3.144,1.344-4.717c0.074-0.26,0.204-0.453,0.438-0.59c0.083-0.048,0.137-0.146,0.205-0.222
			c-0.018-0.019-0.036-0.038-0.053-0.057c-0.808,0.188-1.616,0.373-2.421,0.569c-0.076,0.019-0.134,0.111-0.271,0.231
			c0.363,0.021,0.419,0.154,0.35,0.392c-0.458,1.57-0.904,3.143-1.36,4.713c-0.181,0.625-0.44,1.208-0.966,1.63
			c-0.934,0.747-2.021,1.085-3.195,1.109c-0.806,0.017-1.063-0.343-0.922-1.14c0.011-0.062,0.023-0.124,0.041-0.185
			c0.471-1.66,0.935-3.322,1.427-4.976c0.057-0.192,0.272-0.337,0.413-0.505c0.062-0.075,0.117-0.154,0.22-0.29
			c-0.94,0.218-1.786,0.41-2.629,0.614C20.467,40.516,20.394,40.609,20.261,40.707z M48.516,34.141
			c0.012,0.023,0.023,0.046,0.035,0.069c0.248,0.018,0.322,0.141,0.256,0.367c-0.483,1.656-0.962,3.314-1.449,4.97
			c-0.192,0.653-0.554,1.196-1.126,1.581c-0.847,0.57-1.792,0.864-2.802,0.918c-0.962,0.051-1.29-0.352-1.037-1.284
			c0.452-1.675,0.935-3.341,1.427-5.004c0.055-0.187,0.248-0.335,0.382-0.496c0.067-0.081,0.147-0.15,0.252-0.257
			c-0.092-0.011-0.119-0.021-0.144-0.016c-0.846,0.194-1.691,0.387-2.534,0.593c-0.072,0.018-0.124,0.12-0.229,0.229
			c0.414,0.021,0.375,0.223,0.311,0.446c-0.463,1.598-0.932,3.192-1.376,4.794c-0.121,0.433-0.203,0.884-0.236,1.331
			c-0.051,0.687,0.26,1.076,0.923,1.233c0.201,0.048,0.412,0.072,0.618,0.073c1.473,0.006,2.859-0.384,4.204-0.945
			c1.632-0.683,2.688-1.87,3.163-3.586c0.453-1.637,0.94-3.265,1.405-4.898c0.073-0.259,0.202-0.453,0.442-0.584
			c0.08-0.044,0.132-0.139,0.213-0.228c-0.071-0.024-0.09-0.038-0.104-0.034c-0.803,0.182-1.604,0.362-2.404,0.554
			C48.633,33.985,48.579,34.081,48.516,34.141z M29.365,21.863c-0.071-0.064-0.082-0.08-0.096-0.086
			c-2.396-1.013-4.857-1.774-7.479-1.873c-1.368-0.052-2.715,0.082-3.972,0.684c-0.777,0.373-1.448,0.882-1.742,1.733
			c-0.276,0.801-0.3,1.824,0.892,2.27c0.228,0.085,0.453,0.181,0.682,0.264c0.068,0.025,0.146,0.023,0.253,0.038
			c-0.565-0.955-0.928-1.932-1-3.053c0.695,0.765,1.479,1.313,2.464,1.604c-0.075-1.01-0.036-1.977,0.24-2.973
			c0.667,0.888,1.429,1.598,2.428,2.032c0.389-0.695,0.439-1.439,0.451-2.206c1.217,0.424,2.241,1.073,3.059,2.026
			c0.509-0.298,0.752-0.767,0.939-1.281c0.762,0.372,1.332,0.924,1.804,1.667C28.659,22.417,29.006,22.145,29.365,21.863z
			 M7.145,51.625c-0.439-0.008-0.408-0.218-0.34-0.454c0.698-2.42,1.397-4.839,2.089-7.261c0.075-0.261,0.216-0.446,0.441-0.589
			c0.08-0.05,0.13-0.146,0.194-0.221c-0.89,0.148-1.725,0.34-2.558,0.541c-0.086,0.021-0.159,0.1-0.299,0.192
			c0.4,0.058,0.36,0.263,0.298,0.481c-0.688,2.394-1.377,4.787-2.062,7.182c-0.085,0.298-0.205,0.554-0.5,0.704
			c-0.077,0.039-0.119,0.147-0.182,0.231c0.04,0.013,0.058,0.024,0.072,0.021c0.862-0.198,1.725-0.396,2.585-0.603
			C6.958,51.834,7.013,51.744,7.145,51.625z M38.039,51.134c-0.058-0.139-0.142-0.238-0.122-0.31
			c0.26-0.937,0.533-1.868,0.813-2.834c0.594,0.676,1.157,1.335,1.74,1.976c0.183,0.201,0.26,0.355-0.004,0.533
			c-0.005,0.004,0.005,0.03,0.013,0.074c0.501-0.119,1-0.237,1.498-0.355c0.02-0.028,0.038-0.057,0.058-0.086
			c-0.274-0.026-0.236-0.155-0.183-0.297c0.032-0.084,0.048-0.174,0.073-0.261c0.196-0.686,0.37-1.379,0.599-2.053
			c0.224-0.663,0.224-1.413,0.779-2.005c-0.515,0.123-0.978,0.233-1.44,0.345c-0.017,0.026-0.032,0.053-0.049,0.079
			c0.274,0.044,0.212,0.18,0.167,0.324c-0.085,0.275-0.155,0.557-0.235,0.834c-0.172,0.595-0.346,1.188-0.53,1.821
			c-0.57-0.655-1.109-1.275-1.65-1.895c-0.249-0.286-0.249-0.287,0.006-0.566c0.007-0.008-0.005-0.032-0.012-0.075
			c-0.538,0.128-1.073,0.255-1.534,0.365c0.018,0.188,0.056,0.31,0.035,0.421c-0.039,0.212-0.11,0.418-0.17,0.627
			c-0.18,0.624-0.336,1.257-0.548,1.871c-0.205,0.595-0.181,1.282-0.758,1.805C37.128,51.346,37.588,51.238,38.039,51.134z
			 M45.305,15.602c-2.414-1.526-5.032-1.881-7.86-1.37c1.448,0.899,2.613,2.061,3.846,3.147
			C42.329,16.074,43.652,15.477,45.305,15.602z M48.032,45.779c0.289-0.415,0.578-0.83,0.885-1.27
			c-0.205,0.038-0.359,0.111-0.493,0.084c-1.04-0.214-2,0.039-2.9,0.525c-1.145,0.619-1.972,1.519-2.273,2.825
			c-0.242,1.048,0.267,1.685,1.336,1.675c0.136-0.001,0.271-0.017,0.405-0.037c1.192-0.183,2.212-0.753,3.182-1.432
			c0.02-0.014,0.027-0.044,0.029-0.048c-0.292-0.306-0.008-0.576,0.051-0.835c0.063-0.274,0.231-0.525,0.352-0.783
			c-0.643,0.15-1.317,0.315-1.995,0.461c-0.13,0.027-0.275-0.021-0.481-0.041c-0.084,0.291-0.188,0.657-0.294,1.022
			c0.444-0.449,1.037-0.34,1.55-0.508c-0.063,0.233-0.091,0.519-0.244,0.626c-0.6,0.417-1.271,0.697-2.018,0.7
			c-0.573,0.002-0.893-0.369-0.813-0.937c0.136-0.978,0.741-1.625,1.563-2.092c0.5-0.284,1.048-0.397,1.621-0.33
			C47.711,45.412,47.961,45.435,48.032,45.779z M20.503,53.618c0.018,0.022,0.036,0.044,0.054,0.065
			c-0.087,0.202-0.119,0.488-0.273,0.592c-0.589,0.396-1.241,0.674-1.97,0.682c-0.647,0.008-0.98-0.415-0.847-1.051
			c0.275-1.315,1.664-2.393,3.001-2.314c0.281,0.017,0.611-0.004,0.676,0.46c0.33-0.473,0.62-0.889,0.918-1.316
			c-0.197,0.029-0.368,0.099-0.521,0.071c-1.173-0.21-2.228,0.111-3.201,0.729c-1.008,0.639-1.72,1.514-1.958,2.717
			c-0.196,0.996,0.321,1.607,1.332,1.587c0.597-0.012,1.16-0.17,1.706-0.396c0.693-0.289,1.34-0.658,1.876-1.048
			c-0.02-0.189-0.074-0.322-0.037-0.423c0.155-0.422,0.107-0.933,0.55-1.238c-0.091-0.012-0.153-0.007-0.213,0.007
			c-0.625,0.145-1.249,0.296-1.877,0.429c-0.113,0.024-0.243-0.024-0.441-0.049c-0.085,0.292-0.193,0.663-0.301,1.035
			C19.413,53.709,20.006,53.806,20.503,53.618z M24.67,49.843c0.202,0.228,0.204,0.231,0.069,0.451
			c-0.062,0.1-0.127,0.197-0.196,0.293c-1.044,1.451-1.964,2.99-3.122,4.4c0.531-0.126,1.053-0.249,1.623-0.383
			c-0.255-0.193-0.259-0.213-0.125-0.427c0.033-0.054,0.078-0.102,0.105-0.158c0.231-0.486,0.611-0.729,1.15-0.799
			c0.469-0.061,0.927-0.2,1.403-0.307c0.052,0.236,0.146,0.444,0.124,0.639c-0.021,0.17-0.172,0.325-0.281,0.512
			c0.596-0.143,1.179-0.282,1.709-0.409c-0.112-0.187-0.229-0.311-0.265-0.454c-0.255-1.044-0.49-2.093-0.741-3.137
			c-0.05-0.207-0.008-0.352,0.174-0.462c0.041-0.024,0.067-0.073,0.1-0.11c-0.008-0.018-0.016-0.034-0.023-0.052
			C25.815,49.572,25.257,49.704,24.67,49.843z M35.694,47.285c0.037,0.159,0.101,0.269,0.077,0.354
			c-0.2,0.74-0.395,1.484-0.635,2.212c-0.234,0.709-0.265,1.495-0.8,2.146c0.527-0.125,1.016-0.241,1.504-0.356
			c-0.028-0.022-0.056-0.045-0.083-0.066c-0.012-0.114-0.059-0.239-0.029-0.342c0.322-1.156,0.655-2.31,0.987-3.464
			c0.081-0.282,0.135-0.58,0.417-0.752c0.005-0.002-0.007-0.029-0.016-0.066C36.63,47.064,36.145,47.179,35.694,47.285z"/>
		<path fill-rule="evenodd" clip-rule="evenodd" fill="#404040" d="M17.334,57.239c0.221,0.002,0.442,0.004,0.663,0.006
			c-0.002,0.015-0.004,0.029-0.006,0.044c-0.218,0-0.435,0-0.653,0C17.339,57.272,17.338,57.256,17.334,57.239z"/>
		<path fill-rule="evenodd" clip-rule="evenodd" fill="#3D3D3D" d="M32.846,6.753c-0.166-0.014-0.332-0.028-0.498-0.042
			c0.163,0,0.326,0,0.489,0C32.841,6.725,32.844,6.739,32.846,6.753z"/>
		<path fill-rule="evenodd" clip-rule="evenodd" fill="#3F3F3F" d="M29.955,6.711c-0.166,0.015-0.331,0.03-0.496,0.045
			c0.002-0.015,0.005-0.03,0.006-0.045C29.628,6.711,29.792,6.711,29.955,6.711z"/>
		<path fill-rule="evenodd" clip-rule="evenodd" fill="#7A7A7A" d="M32.846,6.753c-0.002-0.014-0.005-0.029-0.009-0.042
			c0.127,0,0.254,0,0.381,0c0.004,0.014,0.006,0.028,0.005,0.043C33.097,6.754,32.972,6.754,32.846,6.753z"/>
		<path fill-rule="evenodd" clip-rule="evenodd" fill="#7C7C7C" d="M29.465,6.711c-0.001,0.015-0.004,0.03-0.006,0.045
			c-0.126,0-0.252,0-0.378,0c0-0.015,0.002-0.03,0.004-0.045C29.211,6.711,29.338,6.711,29.465,6.711z"/>
		<path fill-rule="evenodd" clip-rule="evenodd" fill="#BCBCBC" d="M29.085,6.711c-0.002,0.015-0.004,0.03-0.004,0.045
			c-0.108,0-0.217,0-0.325,0.001c0.002-0.015,0.003-0.031,0.003-0.046C28.867,6.711,28.976,6.711,29.085,6.711z"/>
		<path fill-rule="evenodd" clip-rule="evenodd" fill="#B9B9B9" d="M33.223,6.754c0.001-0.015-0.001-0.029-0.005-0.043
			c0.109,0,0.218,0,0.326,0c0.002,0.015,0.004,0.03,0.004,0.045C33.439,6.755,33.331,6.755,33.223,6.754z"/>
		<path fill-rule="evenodd" clip-rule="evenodd" fill="#747474" d="M17.99,57.289c0.002-0.015,0.004-0.029,0.006-0.044
			c0.054-0.001,0.107-0.002,0.161-0.004c-0.004,0.016-0.005,0.031-0.004,0.048C18.099,57.289,18.044,57.289,17.99,57.289z"/>
		<path fill-rule="evenodd" clip-rule="evenodd" fill="#BEBEBE" d="M18.153,57.289c-0.001-0.017,0-0.032,0.004-0.048
			c0.036,0.001,0.072,0.002,0.108,0.004c-0.001,0.015-0.002,0.029-0.003,0.044C18.226,57.289,18.189,57.289,18.153,57.289z"/>
		<path fill-rule="evenodd" clip-rule="evenodd" fill="#B6B6B6" d="M17.12,57.289c0.001-0.016,0-0.031-0.003-0.047
			c0.036,0.001,0.072,0.001,0.108,0.002c0.002,0.015,0.003,0.029,0.003,0.045C17.192,57.289,17.156,57.289,17.12,57.289z"/>
		<path fill-rule="evenodd" clip-rule="evenodd" fill="#7F7F7F" d="M17.229,57.289c0-0.016-0.001-0.03-0.003-0.045
			c0.036-0.002,0.073-0.004,0.109-0.005c0.004,0.017,0.005,0.033,0.003,0.05C17.301,57.289,17.265,57.289,17.229,57.289z"/>
		<path fill-rule="evenodd" clip-rule="evenodd" fill="#FEFEFE" d="M42.065,26.295c0.013,0.014,0.02,0.03,0.018,0.049
			c-0.021,0.002-0.041,0.004-0.062,0.005c-1.339-1.081-2.801-1.936-4.466-2.414c-0.104-0.03-0.209-0.053-0.313-0.079
			c-0.018-0.004-0.036-0.009-0.054-0.014c-0.026-0.008-0.053-0.016-0.078-0.024c0.025,0.026,0.052,0.052,0.078,0.078
			c0.017,0.007,0.033,0.01,0.051,0.009c1.228,0.942,2.217,2.092,2.999,3.425c1.16,1.976,1.797,4.11,1.927,6.396
			c0.004,0.081,0.01,0.161,0.018,0.272c-0.507,0.119-1.012,0.237-1.528,0.358c-0.4-1.475-0.944-2.846-2.167-3.893
			c0.79,0.132,1.471,0.41,2.127,0.757c0.019,0.004,0.036,0.008,0.054,0.012c0.005,0.013,0.01,0.026,0.014,0.039
			c0.007-0.007,0.014-0.014,0.021-0.021c-0.013-0.005-0.025-0.01-0.039-0.014c-0.013-0.026-0.026-0.054-0.04-0.08
			c-0.664-1.081-1.499-2.018-2.451-2.848c-2.144-1.868-4.666-2.93-7.439-3.433c-2.109-0.382-4.23-0.436-6.348-0.098
			c-0.728,0.116-1.443,0.328-2.152,0.536c-0.457,0.134-0.794,0.464-1.05,0.861c-0.223,0.346-0.227,0.676,0.07,0.967
			c0.306,0.299,0.651,0.593,1.035,0.769c1.222,0.559,2.464,1.072,3.707,1.583c1.588,0.652,3.167,1.32,4.629,2.231
			c1.247,0.777,2.381,1.683,3.207,2.921c0.234,0.352,0.428,0.73,0.662,1.134c-0.5,0.117-0.951,0.223-1.417,0.331
			c-0.103-0.189-0.195-0.374-0.3-0.551c-0.72-1.23-1.735-2.172-2.907-2.956c-2.064-1.384-4.264-2.507-6.589-3.384
			c-0.936-0.353-1.774-0.86-2.431-1.625c-0.172-0.201-0.313-0.447-0.407-0.695c-0.185-0.483-0.083-0.925,0.299-1.288
			c0.597-0.566,1.339-0.849,2.11-1.059c1.56-0.425,3.157-0.529,4.763-0.492c2.25,0.05,4.474,0.296,6.636,0.966
			c0.181,0.056,0.359,0.117,0.54,0.176c0.033,0.01,0.066,0.02,0.101,0.029c-0.008-0.011-0.015-0.023-0.022-0.034
			c-0.638-1.371-1.473-2.616-2.455-3.759c-2.917-3.394-6.568-5.684-10.782-7.114c-1.269-0.431-2.567-0.748-3.904-0.882
			c-0.063-0.018-0.125-0.035-0.187-0.053c-0.006,0.013-0.013,0.027-0.019,0.04c0.031,0.023,0.062,0.046,0.093,0.069
			c0.901,0.661,1.641,1.465,2.171,2.454c-0.01,0.015-0.011,0.031-0.001,0.047c-0.752-0.444-1.483-0.932-2.262-1.324
			c-1.413-0.712-2.913-1.124-4.514-1.087c-0.19,0.004-0.379,0.019-0.569,0.036c-0.088,0.008-0.174,0.034-0.271,0.054
			c-0.045,1.048,0.063,2.07,0.247,3.085c0.387,2.136,1.124,4.144,2.233,6.012c0.013,0.022,0.02,0.049,0.03,0.075
			c-0.02,0.021-0.039,0.042-0.058,0.063c-1.376-1.733-2.295-3.69-2.825-5.832c-0.332-1.341-0.503-2.7-0.393-4.088
			c0.026-0.326,0.135-0.509,0.45-0.634c1.243-0.494,2.538-0.711,3.863-0.784c2.095-0.116,4.156,0.141,6.196,0.591
			c3.422,0.756,6.675,1.997,9.798,3.564c1.911,0.96,3.766,2.034,5.645,3.059c0.077,0.042,0.144,0.102,0.216,0.154
			c0,0.014-0.001,0.028-0.001,0.042c-1.149-0.353-2.313-0.639-3.512-0.774c-0.944-0.106-1.888-0.136-2.911,0.046
			c1.188,0.28,2.257,0.663,3.271,1.184c3.03,1.557,5.572,3.675,7.46,6.538c0.054,0.083,0.101,0.17,0.151,0.255
			C42.04,26.256,42.053,26.275,42.065,26.295z"/>
		<path fill-rule="evenodd" clip-rule="evenodd" fill="#28A7DF" d="M48.769,16.989c-0.439-0.689-1.035-1.232-1.671-1.728
			c-1.719-1.34-3.69-2.066-5.828-2.413c-1.639-0.266-3.246-0.158-4.844,0.264c-0.114,0.031-0.274,0.013-0.376-0.046
			c-3.137-1.811-6.486-3.064-10.015-3.855c-0.026-0.005-0.05-0.017-0.135-0.046c0.116-0.026,0.178-0.046,0.241-0.053
			c1.921-0.203,3.848-0.293,5.778-0.252c4.266,0.091,8.466,0.612,12.514,2.041c1.576,0.557,3.079,1.265,4.393,2.325
			c0.175,0.141,0.263,0.292,0.285,0.521c0.203,2.055,0.139,4.105-0.054,6.156c-0.257,2.739-0.793,5.422-1.586,8.055
			c-0.026,0.086-0.053,0.172-0.079,0.258c-0.243-0.021-0.307-0.173-0.339-0.381c-0.354-2.298-1.139-4.441-2.287-6.461
			c-0.131-0.229-0.095-0.577-0.071-0.865c0.063-0.761,0.31-1.468,0.721-2.112c0.75-1.171,1.904-1.656,3.301-1.397
			c0.026,0.008,0.054,0.016,0.08,0.024C48.787,17.012,48.777,17,48.769,16.989z"/>
		<path fill-rule="evenodd" clip-rule="evenodd" fill="#FEFEFE" d="M28.803,11.397c-0.492,0-0.985,0-1.477,0
			c-0.003,0.023-0.007,0.046-0.01,0.069c2.726,0.775,5.32,1.847,7.7,3.399c0.019,0.016,0.037,0.031,0.058,0.044
			c0.002,0.001,0.017-0.017,0.024-0.026c-0.015-0.006-0.03-0.011-0.045-0.017c-0.392-0.458-0.782-0.916-1.174-1.374
			c-0.058-0.067-0.115-0.134-0.174-0.201c0.019,0,0.038-0.001,0.057-0.001c0.018,0.006,0.035,0.012,0.054,0.018
			c0.019,0.012,0.037,0.024,0.057,0.036c2.265,1.187,4.398,2.566,6.237,4.356c0.679,0.661,1.276,1.404,1.94,2.081
			c0.497,0.507,0.641,1.119,0.615,1.783c-0.022,0.594-0.103,1.186-0.157,1.779c-0.018,0.052-0.035,0.103-0.053,0.154
			c0.013,0.006,0.025,0.011,0.037,0.017c0.024-0.038,0.05-0.075,0.074-0.112c0.367-0.579,0.589-1.209,0.727-1.909
			c0.051,0.145,0.123,0.285,0.147,0.434c0.156,0.934,0.029,1.851-0.185,2.761c-0.014,0.06-0.017,0.123-0.025,0.185
			c-0.013,0.005-0.026,0.011-0.039,0.016c0.008,0.007,0.015,0.015,0.022,0.021c0.004-0.014,0.008-0.028,0.012-0.042
			c0.446-0.507,0.679-1.112,0.816-1.762c0.01-0.042,0.016-0.086,0.023-0.128c0.024-0.004,0.049-0.009,0.073-0.013
			c0.03,0.174,0.082,0.348,0.089,0.523c0.036,0.832-0.131,1.634-0.371,2.425c-0.01,0.034-0.016,0.069-0.023,0.104
			c-0.005,0.018-0.009,0.035-0.014,0.053c-0.017,0.03-0.033,0.059-0.051,0.089c0.011,0.007,0.021,0.014,0.031,0.021
			c0.026-0.036,0.053-0.072,0.079-0.108l-0.003-0.004c0.426-0.469,0.675-1.034,0.884-1.678c0.508,1.275,0.85,2.536,1.039,3.873
			c-0.45-0.084-0.874-0.129-1.315,0.11c2.244,0.77,4.108,2.045,5.743,3.766c-0.482,0.111-0.922,0.223-1.366,0.307
			c-0.079,0.015-0.191-0.074-0.27-0.138c-1.206-0.984-2.515-1.793-3.977-2.342c-0.08-0.03-0.161-0.058-0.284-0.102
			c0.479,1.121,0.754,2.245,0.872,3.437c-0.623,0.145-1.235,0.287-1.856,0.433c-0.102-2.419-0.579-4.712-1.971-6.736
			c0-0.02,0.001-0.04,0.001-0.059c0.938,0.264,1.653,0.853,2.278,1.571c0.053,0.06,0.107,0.118,0.161,0.176
			c0.001,0.017,0.004,0.034,0.009,0.05c0.025,0.025,0.051,0.051,0.076,0.076c-0.008-0.025-0.015-0.05-0.022-0.075
			c-0.004-0.018-0.009-0.036-0.013-0.054c-0.404-1.839-1.285-3.439-2.46-4.888c-1.091-1.346-2.368-2.484-3.841-3.401
			c-0.028-0.018-0.055-0.041-0.116-0.086c0.675-0.073,1.302,0,1.9,0.196c0.605,0.199,1.187,0.468,1.779,0.707
			c0.064,0.026,0.131,0.048,0.196,0.072c0.017,0.017,0.032,0.034,0.049,0.051c0.002,0.007,0.003,0.015,0.007,0.021
			c0.003,0.003,0.01,0.003,0.015,0.004c-0.009-0.007-0.017-0.014-0.025-0.021c-0.017-0.017-0.033-0.033-0.051-0.05
			c-0.571-0.576-1.108-1.191-1.722-1.719c-1.813-1.561-3.845-2.794-5.966-3.883c-2.89-1.483-5.875-2.734-9.007-3.613
			c-2.649-0.744-5.344-1.202-8.102-1.256c-1.442-0.029-2.875,0.062-4.299,0.288c-0.071,0.011-0.144,0.006-0.216,0.008l0.005,0.005
			c0.529-0.236,1.043-0.518,1.591-0.701c1.521-0.51,3.103-0.677,4.699-0.712c3.411-0.074,6.734,0.471,9.994,1.444
			c0.224,0.067,0.448,0.131,0.672,0.196C28.914,11.362,28.858,11.379,28.803,11.397z"/>
		<path fill-rule="evenodd" clip-rule="evenodd" fill="#28A7DF" d="M13.151,23.283c0.435,0.484,0.854,0.982,1.307,1.449
			c2.6,2.678,5.656,4.66,9.132,6.017c1.076,0.421,2.116,0.936,3.171,1.409c0.082,0.036,0.159,0.083,0.206,0.106
			c-0.569,0.495-1.168,0.963-1.705,1.493c-1.294,1.279-2.161,2.823-2.693,4.557c-0.058,0.191-0.146,0.276-0.337,0.318
			c-0.813,0.176-1.624,0.359-2.431,0.561c-0.188,0.047-0.271-0.001-0.37-0.151c-2.652-4.036-4.58-8.389-5.735-13.08
			c-0.212-0.86-0.37-1.732-0.554-2.599C13.145,23.336,13.148,23.31,13.151,23.283z"/>
		<path fill-rule="evenodd" clip-rule="evenodd" fill="#FEFEFE" d="M28.774,46.714c0.065-0.07,0.119-0.16,0.197-0.207
			c0.231-0.138,0.368-0.33,0.442-0.589c0.69-2.415,1.384-4.827,2.082-7.239c0.068-0.236,0.102-0.436-0.221-0.471
			c-0.036-0.207,0.104-0.23,0.237-0.261c1.753-0.405,3.503-0.819,5.259-1.209c0.554-0.123,1.12-0.235,1.685-0.258
			c1.019-0.041,1.493,0.552,1.316,1.565c-0.276,1.588-1.237,2.63-2.655,3.302c-0.17,0.08-0.346,0.15-0.557,0.241
			c0.435,0.843,0.849,1.682,1.305,2.498c0.09,0.161,0.342,0.231,0.551,0.364c-0.019,0.018-0.08,0.117-0.16,0.137
			c-0.984,0.235-1.972,0.459-2.958,0.685c-0.016,0.004-0.034-0.005-0.136-0.021c0.116-0.107,0.185-0.193,0.273-0.247
			c0.187-0.113,0.284-0.242,0.18-0.466c-0.375-0.8-0.746-1.602-1.124-2.415c-0.751,0.174-1.481,0.338-2.207,0.521
			c-0.076,0.019-0.159,0.132-0.185,0.218c-0.26,0.875-0.508,1.752-0.759,2.63c-0.093,0.326-0.074,0.359,0.308,0.489
			c-0.113,0.086-0.188,0.182-0.278,0.203c-0.843,0.204-1.688,0.396-2.532,0.591C28.816,46.755,28.795,46.734,28.774,46.714z
			 M32.575,41.198c0.441-0.101,0.837-0.188,1.231-0.282c0.834-0.198,1.674-0.38,2.5-0.605c0.861-0.236,1.426-0.893,1.499-1.668
			c0.033-0.345-0.083-0.509-0.423-0.574c-0.104-0.021-0.22-0.03-0.321-0.008c-1.234,0.272-2.467,0.551-3.698,0.835
			c-0.067,0.016-0.149,0.097-0.17,0.163C32.984,39.757,32.787,40.459,32.575,41.198z"/>
		<path fill-rule="evenodd" clip-rule="evenodd" fill="#FEFEFE" d="M49.979,41.166c0.547-0.828,1.047-1.59,1.555-2.347
			c0.031-0.048,0.121-0.057,0.201-0.091c-0.026,0.51,0.082,0.708,0.55,0.813c1.587,0.357,3.034,0.048,4.289-1.008
			c0.206-0.174,0.365-0.429,0.484-0.676c0.172-0.354,0.009-0.606-0.386-0.584c-0.667,0.039-1.331,0.135-1.998,0.188
			c-0.62,0.049-1.251,0.15-1.861,0.088c-0.831-0.087-1.177-0.667-1.021-1.493c0.222-1.178,0.89-2.075,1.837-2.752
			c1.761-1.259,3.709-1.751,5.855-1.287c0.309,0.066,0.596,0.13,0.864-0.119c0.071-0.065,0.215-0.053,0.401-0.093
			c-0.368,0.484-0.689,0.907-1.011,1.33c-0.246,0.324-0.49,0.65-0.743,0.97c-0.041,0.053-0.121,0.075-0.183,0.111
			c-0.013-0.061-0.011-0.129-0.039-0.181c-0.062-0.11-0.116-0.246-0.213-0.313c-0.395-0.271-0.855-0.355-1.318-0.347
			c-0.927,0.018-1.815,0.227-2.609,0.717c-0.285,0.177-0.524,0.44-0.751,0.693c-0.158,0.175-0.272,0.419-0.145,0.651
			c0.134,0.241,0.404,0.216,0.636,0.189c0.773-0.086,1.544-0.209,2.318-0.273c0.466-0.039,0.946-0.053,1.404,0.021
			c0.746,0.121,1.092,0.668,0.99,1.426c-0.119,0.89-0.559,1.616-1.167,2.247c-1.067,1.108-2.424,1.679-3.887,2.029
			c-1.075,0.258-2.152,0.267-3.22-0.058c-0.192-0.058-0.364-0.075-0.533,0.07C50.226,41.136,50.128,41.131,49.979,41.166z"/>
		<path fill-rule="evenodd" clip-rule="evenodd" fill="#FEFEFE" d="M8.538,50.701c0.499-0.753,0.995-1.507,1.5-2.256
			c0.035-0.052,0.132-0.063,0.229-0.104c-0.076,0.465,0.025,0.654,0.441,0.785c0.932,0.295,1.861,0.208,2.776-0.08
			c0.645-0.203,1.252-0.49,1.707-1.009c0.174-0.198,0.315-0.442,0.41-0.688c0.1-0.258-0.024-0.444-0.302-0.447
			c-0.45-0.005-0.902,0.031-1.351,0.076c-0.648,0.064-1.293,0.168-1.942,0.225c-0.275,0.023-0.564,0.003-0.834-0.056
			c-0.684-0.15-1.001-0.681-0.88-1.414c0.204-1.228,0.903-2.148,1.883-2.843c1.775-1.258,3.739-1.726,5.891-1.245
			c0.274,0.062,0.532,0.101,0.764-0.116c0.037-0.034,0.125-0.015,0.248-0.025c-0.374,0.527-0.711,1.004-1.049,1.48
			c-0.183,0.258-0.365,0.518-0.554,0.771c-0.03,0.04-0.095,0.054-0.144,0.079c-0.018-0.049-0.029-0.103-0.056-0.146
			c-0.077-0.128-0.13-0.299-0.245-0.371c-0.478-0.301-1.019-0.365-1.569-0.318c-0.819,0.071-1.617,0.254-2.31,0.707
			c-0.323,0.212-0.617,0.51-0.834,0.829c-0.288,0.425-0.092,0.74,0.421,0.7c0.775-0.061,1.544-0.198,2.319-0.256
			c0.528-0.039,1.072-0.061,1.59,0.023c0.687,0.111,0.989,0.566,0.956,1.266c-0.031,0.651-0.292,1.225-0.652,1.756
			c-0.731,1.075-1.776,1.733-2.954,2.21c-1.234,0.499-2.506,0.773-3.845,0.582c-0.276-0.039-0.55-0.106-0.819-0.181
			c-0.203-0.056-0.383-0.077-0.557,0.078c-0.049,0.043-0.142,0.038-0.214,0.055C8.555,50.745,8.546,50.724,8.538,50.701z"/>
		<path fill-rule="evenodd" clip-rule="evenodd" fill="#FEFEFE" d="M20.261,40.707c0.133-0.098,0.207-0.191,0.298-0.214
			c0.843-0.204,1.688-0.396,2.629-0.614c-0.103,0.136-0.159,0.215-0.22,0.29c-0.14,0.168-0.355,0.313-0.413,0.505
			c-0.492,1.653-0.956,3.315-1.427,4.976c-0.018,0.061-0.03,0.123-0.041,0.185c-0.141,0.797,0.117,1.156,0.922,1.14
			c1.175-0.024,2.262-0.362,3.195-1.109c0.526-0.422,0.785-1.005,0.966-1.63c0.456-1.57,0.903-3.143,1.36-4.713
			c0.069-0.237,0.013-0.371-0.35-0.392c0.137-0.12,0.195-0.213,0.271-0.231c0.806-0.196,1.614-0.381,2.421-0.569
			c0.018,0.019,0.036,0.038,0.053,0.057c-0.067,0.075-0.122,0.174-0.205,0.222c-0.234,0.137-0.364,0.33-0.438,0.59
			c-0.445,1.573-0.932,3.135-1.344,4.717c-0.508,1.946-1.718,3.213-3.573,3.912c-1.14,0.43-2.31,0.737-3.529,0.795
			c-0.372,0.018-0.76-0.048-1.121-0.145c-0.493-0.133-0.751-0.47-0.735-0.981c0.015-0.456,0.071-0.923,0.191-1.363
			c0.451-1.646,0.937-3.283,1.409-4.924C20.683,40.859,20.664,40.82,20.261,40.707z"/>
		<path fill-rule="evenodd" clip-rule="evenodd" fill="#FEFEFE" d="M48.516,34.141c0.063-0.06,0.117-0.155,0.19-0.173
			c0.8-0.191,1.602-0.372,2.404-0.554c0.014-0.004,0.032,0.01,0.104,0.034c-0.081,0.089-0.133,0.184-0.213,0.228
			c-0.24,0.131-0.369,0.325-0.442,0.584c-0.465,1.634-0.952,3.262-1.405,4.898c-0.475,1.716-1.531,2.903-3.163,3.586
			c-1.345,0.562-2.731,0.951-4.204,0.945c-0.206-0.001-0.417-0.025-0.618-0.073c-0.663-0.157-0.974-0.547-0.923-1.233
			c0.033-0.447,0.115-0.898,0.236-1.331c0.444-1.602,0.913-3.196,1.376-4.794c0.064-0.224,0.104-0.425-0.311-0.446
			c0.104-0.109,0.156-0.212,0.229-0.229c0.843-0.206,1.688-0.398,2.534-0.593c0.024-0.006,0.052,0.005,0.144,0.016
			c-0.104,0.106-0.185,0.176-0.252,0.257c-0.134,0.161-0.327,0.31-0.382,0.496c-0.492,1.663-0.975,3.329-1.427,5.004
			c-0.253,0.933,0.075,1.335,1.037,1.284c1.01-0.054,1.955-0.348,2.802-0.918c0.572-0.385,0.934-0.928,1.126-1.581
			c0.487-1.655,0.966-3.313,1.449-4.97c0.066-0.227-0.008-0.35-0.256-0.367C48.539,34.187,48.527,34.164,48.516,34.141z"/>
		<path fill-rule="evenodd" clip-rule="evenodd" fill="#FEFEFE" d="M17.337,25.157c0.518,0.282,1.07,0.425,1.713,0.415
			c-0.658-0.78-1.294-1.54-1.546-2.602c0.784,0.712,1.611,1.221,2.625,1.466c-0.222-0.953-0.428-1.887-0.216-2.897
			c0.679,0.864,1.53,1.439,2.484,1.876c0.221-0.38,0.465-1.537,0.527-2.515c1.11,0.485,1.881,1.327,2.589,2.265
			c0.52-0.415,0.929-0.897,1.202-1.518c0.667,0.36,1.028,0.958,1.358,1.6c0.633-0.283,1.177-0.67,1.61-1.245
			c0.767,0.37,1.398,0.876,1.838,1.669c-0.492-0.041-0.944-0.078-1.397-0.115c-1.642-0.136-3.285-0.26-4.932-0.094
			c-1.437,0.145-2.854,0.368-4.138,1.086c-0.656,0.366-1.203,0.849-1.447,1.585c-0.106,0.318-0.136,0.662-0.203,1.003
			c-0.915-0.39-1.63-1.033-2.112-1.935C17.306,25.187,17.321,25.172,17.337,25.157z"/>
		<path fill-rule="evenodd" clip-rule="evenodd" fill="#FEFEFE" d="M29.365,21.863c-0.358,0.281-0.706,0.554-1.076,0.846
			c-0.473-0.743-1.042-1.295-1.804-1.667c-0.187,0.515-0.43,0.983-0.939,1.281c-0.818-0.953-1.842-1.602-3.059-2.026
			c-0.012,0.767-0.063,1.511-0.451,2.206c-1-0.435-1.761-1.144-2.428-2.032c-0.275,0.996-0.314,1.962-0.24,2.973
			c-0.985-0.291-1.769-0.838-2.464-1.604c0.071,1.121,0.435,2.099,1,3.053c-0.107-0.015-0.186-0.013-0.253-0.038
			c-0.229-0.083-0.454-0.178-0.682-0.264c-1.192-0.446-1.168-1.469-0.892-2.27c0.294-0.852,0.965-1.361,1.742-1.733
			c1.256-0.602,2.604-0.735,3.972-0.684c2.622,0.099,5.083,0.86,7.479,1.873C29.283,21.783,29.293,21.799,29.365,21.863z"/>
		<path fill-rule="evenodd" clip-rule="evenodd" fill="#FEFEFE" d="M9.45,31.797c1.36,0.783,2.482,1.837,3.462,3.05
			c1.277,1.583,2.241,3.366,3.244,5.118c-0.782,0.151-1.555,0.302-2.264,0.438c-0.354-0.657-0.68-1.342-1.08-1.98
			c-0.415-0.661-1.008-1.153-1.709-1.512c-0.078-0.039-0.164-0.146-0.171-0.229c-0.155-1.689-0.646-3.272-1.481-4.749
			c-0.018-0.031-0.028-0.065-0.042-0.098C9.422,31.823,9.436,31.811,9.45,31.797z"/>
		<path fill-rule="evenodd" clip-rule="evenodd" fill="#FEFEFE" d="M7.145,51.625c-0.132,0.119-0.188,0.209-0.26,0.227
			c-0.86,0.207-1.723,0.404-2.585,0.603c-0.014,0.003-0.032-0.009-0.072-0.021c0.063-0.084,0.105-0.192,0.182-0.231
			c0.294-0.15,0.415-0.406,0.5-0.704c0.685-2.395,1.374-4.788,2.062-7.182c0.063-0.219,0.102-0.424-0.298-0.481
			c0.141-0.093,0.213-0.172,0.299-0.192c0.833-0.201,1.668-0.393,2.558-0.541c-0.064,0.075-0.114,0.171-0.194,0.221
			c-0.225,0.143-0.367,0.328-0.441,0.589c-0.691,2.422-1.391,4.841-2.089,7.261C6.737,51.407,6.706,51.617,7.145,51.625z"/>
		<path fill-rule="evenodd" clip-rule="evenodd" fill="#FEFEFE" d="M33.045,49.454c-0.716,0.94-1.433,1.881-2.148,2.821
			c-0.152,0.2-0.305,0.4-0.482,0.634c-0.262-0.935-0.514-1.83-0.765-2.726c-0.018-0.001-0.036-0.003-0.054-0.004
			c-0.119,0.413-0.237,0.826-0.357,1.239c-0.133,0.459-0.275,0.916-0.395,1.378c-0.031,0.119,0.007,0.257,0.018,0.463
			c-0.362,0.084-0.801,0.186-1.24,0.286c-0.024-0.023-0.049-0.047-0.074-0.07c0.217-0.116,0.294-0.315,0.358-0.542
			c0.343-1.216,0.702-2.428,1.043-3.644c0.031-0.11-0.02-0.243-0.039-0.432c0.54-0.127,1.142-0.269,1.744-0.41
			c0.026,0.014,0.054,0.027,0.08,0.041c-0.479,0.269-0.227,0.605-0.149,0.916c0.13,0.526,0.281,1.047,0.43,1.592
			c0.046-0.037,0.093-0.062,0.121-0.099c0.635-0.858,1.27-1.717,1.899-2.578c0.083-0.113,0.244-0.241-0.085-0.4
			c0.684-0.158,1.277-0.297,1.872-0.435c-0.456,0.393-0.431,0.959-0.582,1.443c-0.294,0.938-0.555,1.888-0.817,2.835
			c-0.03,0.106,0.018,0.233,0.036,0.426c-0.421,0.101-0.912,0.218-1.402,0.335c0.443-0.418,0.42-1.005,0.594-1.507
			c0.177-0.511,0.3-1.039,0.446-1.56c0.005-0.019,0.009-0.037,0.014-0.055c0.01-0.026,0.019-0.053,0.028-0.079
			c-0.027,0.027-0.055,0.054-0.082,0.081C33.049,49.421,33.045,49.437,33.045,49.454z"/>
		<path fill-rule="evenodd" clip-rule="evenodd" fill="#FEFEFE" d="M38.039,51.134c-0.451,0.104-0.911,0.212-1.454,0.339
			c0.577-0.522,0.553-1.21,0.758-1.805c0.212-0.614,0.368-1.247,0.548-1.871c0.06-0.209,0.131-0.415,0.17-0.627
			c0.021-0.111-0.018-0.232-0.035-0.421c0.461-0.11,0.996-0.237,1.534-0.365c0.007,0.043,0.019,0.067,0.012,0.075
			c-0.255,0.279-0.255,0.28-0.006,0.566c0.541,0.619,1.08,1.239,1.65,1.895c0.185-0.633,0.358-1.227,0.53-1.821
			c0.08-0.277,0.15-0.559,0.235-0.834c0.045-0.145,0.107-0.28-0.167-0.324c0.017-0.026,0.032-0.053,0.049-0.079
			c0.463-0.111,0.926-0.222,1.44-0.345c-0.556,0.592-0.556,1.342-0.779,2.005c-0.229,0.674-0.402,1.367-0.599,2.053
			c-0.025,0.087-0.041,0.177-0.073,0.261c-0.054,0.142-0.092,0.271,0.183,0.297c-0.02,0.029-0.038,0.058-0.058,0.086
			c-0.498,0.118-0.997,0.236-1.498,0.355c-0.008-0.044-0.018-0.07-0.013-0.074c0.264-0.178,0.187-0.332,0.004-0.533
			c-0.583-0.641-1.146-1.3-1.74-1.976c-0.28,0.966-0.554,1.897-0.813,2.834C37.897,50.896,37.981,50.995,38.039,51.134z"/>
		<path fill-rule="evenodd" clip-rule="evenodd" fill="#FEFEFE" d="M45.305,15.602c-1.652-0.125-2.976,0.472-4.015,1.777
			c-1.232-1.086-2.397-2.248-3.846-3.147C40.272,13.721,42.891,14.076,45.305,15.602z"/>
		<path fill-rule="evenodd" clip-rule="evenodd" fill="#FEFEFE" d="M48.032,45.779c-0.071-0.345-0.321-0.367-0.54-0.393
			c-0.573-0.067-1.121,0.046-1.621,0.33c-0.821,0.467-1.427,1.114-1.563,2.092c-0.079,0.567,0.24,0.938,0.813,0.937
			c0.746-0.003,1.418-0.283,2.018-0.7c0.153-0.107,0.182-0.393,0.244-0.626c-0.513,0.168-1.105,0.059-1.55,0.508
			c0.105-0.365,0.21-0.731,0.294-1.022c0.206,0.02,0.352,0.068,0.481,0.041c0.678-0.146,1.353-0.311,1.995-0.461
			c-0.12,0.258-0.289,0.509-0.352,0.783c-0.059,0.259-0.343,0.529-0.051,0.835c-0.002,0.004-0.01,0.034-0.029,0.048
			c-0.97,0.679-1.989,1.249-3.182,1.432c-0.134,0.021-0.27,0.036-0.405,0.037c-1.069,0.01-1.578-0.627-1.336-1.675
			c0.302-1.307,1.129-2.206,2.273-2.825c0.9-0.486,1.86-0.739,2.9-0.525c0.134,0.027,0.288-0.046,0.493-0.084
			C48.61,44.949,48.321,45.364,48.032,45.779z"/>
		<path fill-rule="evenodd" clip-rule="evenodd" fill="#FEFEFE" d="M20.503,53.618c-0.497,0.188-1.09,0.091-1.524,0.537
			c0.108-0.372,0.216-0.743,0.301-1.035c0.199,0.024,0.328,0.073,0.441,0.049c0.628-0.133,1.251-0.284,1.877-0.429
			c0.06-0.014,0.122-0.019,0.213-0.007c-0.443,0.306-0.396,0.816-0.55,1.238c-0.037,0.101,0.017,0.233,0.037,0.423
			c-0.536,0.39-1.183,0.759-1.876,1.048c-0.546,0.227-1.108,0.385-1.706,0.396c-1.011,0.021-1.528-0.591-1.332-1.587
			c0.238-1.203,0.949-2.078,1.958-2.717c0.974-0.617,2.028-0.938,3.201-0.729c0.153,0.027,0.323-0.042,0.521-0.071
			c-0.298,0.428-0.589,0.844-0.918,1.316c-0.064-0.464-0.395-0.443-0.676-0.46c-1.338-0.078-2.726,0.999-3.001,2.314
			c-0.133,0.636,0.2,1.059,0.847,1.051c0.729-0.008,1.38-0.286,1.97-0.682c0.154-0.104,0.186-0.39,0.273-0.592
			C20.54,53.662,20.521,53.641,20.503,53.618z"/>
		<path fill-rule="evenodd" clip-rule="evenodd" fill="#FEFEFE" d="M24.67,49.843c0.587-0.139,1.145-0.271,1.703-0.402
			c0.008,0.018,0.016,0.034,0.023,0.052c-0.033,0.037-0.059,0.086-0.1,0.11c-0.182,0.11-0.224,0.255-0.174,0.462
			c0.251,1.044,0.486,2.093,0.741,3.137c0.035,0.144,0.153,0.268,0.265,0.454c-0.53,0.127-1.113,0.267-1.709,0.409
			c0.108-0.187,0.26-0.342,0.281-0.512c0.022-0.194-0.072-0.402-0.124-0.639c-0.476,0.106-0.934,0.246-1.403,0.307
			c-0.539,0.069-0.919,0.313-1.15,0.799c-0.027,0.057-0.072,0.104-0.105,0.158c-0.133,0.214-0.129,0.233,0.125,0.427
			c-0.57,0.134-1.091,0.257-1.623,0.383c1.158-1.41,2.078-2.949,3.122-4.4c0.068-0.096,0.134-0.193,0.196-0.293
			C24.875,50.074,24.873,50.07,24.67,49.843z M23.958,52.664c0.531-0.123,1.009-0.235,1.504-0.351
			c-0.09-0.479-0.175-0.935-0.273-1.459C24.766,51.477,24.379,52.046,23.958,52.664z"/>
		<path fill-rule="evenodd" clip-rule="evenodd" fill="#FEFEFE" d="M23.973,38.2c0.362-1.004,0.918-1.898,1.576-2.729
			c0.893-1.128,1.985-2.02,3.254-2.696c0.163-0.087,0.285-0.101,0.431,0.036c0.189,0.179,0.402,0.333,0.607,0.499
			c-0.562,0.323-1.116,0.619-1.647,0.951c-1.545,0.968-2.834,2.206-3.864,3.714c-0.069,0.1-0.199,0.158-0.301,0.236
			C24.011,38.207,23.992,38.203,23.973,38.2z"/>
		<path fill-rule="evenodd" clip-rule="evenodd" fill="#FEFEFE" d="M35.694,47.285c0.45-0.106,0.936-0.221,1.423-0.336
			c0.009,0.037,0.021,0.064,0.016,0.066c-0.282,0.172-0.336,0.47-0.417,0.752c-0.332,1.154-0.665,2.308-0.987,3.464
			c-0.029,0.103,0.018,0.228,0.029,0.342c0.027,0.021,0.055,0.044,0.083,0.066c-0.488,0.115-0.977,0.231-1.504,0.356
			c0.535-0.65,0.565-1.437,0.8-2.146c0.24-0.728,0.435-1.472,0.635-2.212C35.795,47.554,35.731,47.444,35.694,47.285z"/>
		<path fill-rule="evenodd" clip-rule="evenodd" fill="#FCFCFC" d="M44.581,17.204c-0.629,0.815-1.01,1.737-1.181,2.807
			c-0.128-0.208-0.23-0.36-0.315-0.522c-0.029-0.056-0.035-0.142-0.015-0.201c0.292-0.843,0.746-1.578,1.463-2.131l0.013,0.012
			c-0.001,0.017,0.007,0.025,0.023,0.024L44.581,17.204z"/>
		<path fill-rule="evenodd" clip-rule="evenodd" fill="#A8A8A8" d="M28.803,11.397c0.055-0.018,0.11-0.035,0.166-0.053
			c0.063,0.021,0.126,0.042,0.19,0.063c-0.003,0.016-0.006,0.031-0.01,0.046C29.034,11.435,28.918,11.416,28.803,11.397z"/>
		<path fill-rule="evenodd" clip-rule="evenodd" fill="#DCDCDC" d="M14.62,22.917c0.02-0.021,0.039-0.042,0.058-0.063
			c0.048,0.076,0.097,0.153,0.145,0.229c-0.023,0-0.047,0.001-0.071,0.002C14.708,23.029,14.664,22.973,14.62,22.917z"/>
		<path fill-rule="evenodd" clip-rule="evenodd" fill="#606060" d="M17.614,13.502c-0.031-0.023-0.062-0.046-0.093-0.069
			c0.006-0.013,0.012-0.027,0.019-0.04c0.062,0.018,0.124,0.035,0.187,0.053C17.689,13.464,17.652,13.483,17.614,13.502z"/>
		<path fill-rule="evenodd" clip-rule="evenodd" fill="#C6C6C6" d="M15.712,36.395c0.031,0.059,0.062,0.118,0.093,0.177
			c-0.023,0-0.047,0-0.07,0c-0.027-0.037-0.053-0.075-0.08-0.112C15.674,36.438,15.693,36.416,15.712,36.395z"/>
		<path fill-rule="evenodd" clip-rule="evenodd" fill="#DFDFDF" d="M15.712,36.395c-0.019,0.021-0.038,0.043-0.057,0.064
			c-0.02-0.036-0.039-0.072-0.058-0.108c0.019-0.02,0.038-0.04,0.057-0.06C15.674,36.325,15.693,36.359,15.712,36.395z"/>
		<path fill-rule="evenodd" clip-rule="evenodd" fill="#ACACAC" d="M14.854,23.133c0.026,0.038,0.052,0.075,0.078,0.113
			c-0.017,0.001-0.033,0.001-0.049,0c-0.033-0.038-0.065-0.075-0.098-0.113C14.809,23.133,14.832,23.133,14.854,23.133z"/>
		<path fill-rule="evenodd" clip-rule="evenodd" fill="#5F5F5F" d="M42.566,23.403c-0.024,0.038-0.05,0.075-0.074,0.112
			c-0.012-0.006-0.024-0.011-0.037-0.017c0.018-0.051,0.035-0.103,0.053-0.154C42.527,23.364,42.547,23.383,42.566,23.403z"/>
		<path fill-rule="evenodd" clip-rule="evenodd" fill="#AEAEAE" d="M42.021,26.349c0.021-0.001,0.041-0.003,0.062-0.005
			c0.014,0.027,0.028,0.053,0.042,0.08C42.091,26.399,42.056,26.374,42.021,26.349z"/>
		<path fill-rule="evenodd" clip-rule="evenodd" fill="#A9A9A9" d="M15.915,36.845c-0.03-0.039-0.06-0.078-0.089-0.117
			c0.019,0.001,0.038,0.002,0.057,0.003c0.016,0.032,0.031,0.065,0.046,0.099L15.915,36.845z"/>
		<path fill-rule="evenodd" clip-rule="evenodd" fill="#FEFEFE" d="M44.652,17.108c-0.023,0.032-0.048,0.063-0.071,0.095
			l-0.012-0.012c0.001-0.017-0.007-0.024-0.023-0.024l-0.013-0.012c0.032-0.022,0.065-0.045,0.098-0.067
			C44.635,17.099,44.642,17.106,44.652,17.108z"/>
		<path fill-rule="evenodd" clip-rule="evenodd" fill="#707070" d="M14.993,23.353c0.017,0.015,0.034,0.03,0.05,0.044
			c-0.009,0.01-0.018,0.02-0.027,0.029c-0.021-0.026-0.042-0.053-0.063-0.079C14.967,23.347,14.98,23.348,14.993,23.353z"/>
		<path fill-rule="evenodd" clip-rule="evenodd" fill="#EEEEEE" d="M15.883,36.73c-0.019-0.001-0.038-0.002-0.057-0.003
			c-0.019-0.035-0.038-0.07-0.056-0.105l0.022-0.001l0.022,0.002C15.837,36.658,15.86,36.694,15.883,36.73z"/>
		<path fill-rule="evenodd" clip-rule="evenodd" fill="#808080" d="M33.657,13.285c-0.036-0.034-0.072-0.067-0.109-0.101
			l-0.002,0.002c0.035,0.018,0.071,0.035,0.107,0.052C33.658,13.253,33.66,13.269,33.657,13.285z"/>
		<path fill-rule="evenodd" clip-rule="evenodd" fill="#6F6F6F" d="M27.547,53.476c0.025,0.023,0.049,0.047,0.074,0.07
			c-0.034,0.004-0.068,0.007-0.103,0.011C27.528,53.529,27.538,53.502,27.547,53.476z"/>
		<path fill-rule="evenodd" clip-rule="evenodd" fill="#9E9E9E" d="M11.458,41.566c0.02,0.02,0.041,0.04,0.061,0.061
			c-0.028,0.017-0.056,0.034-0.083,0.051C11.443,41.641,11.45,41.604,11.458,41.566z"/>
		<path fill-rule="evenodd" clip-rule="evenodd" fill="#808080" d="M44.748,16.992c0.022-0.012,0.045-0.024,0.067-0.036
			c-0.023,0.028-0.047,0.056-0.07,0.084C44.742,17.024,44.743,17.008,44.748,16.992z"/>
		<path fill-rule="evenodd" clip-rule="evenodd" fill="#484848" d="M23.973,38.2c0.019,0.003,0.038,0.007,0.057,0.011
			c-0.028,0.008-0.055,0.016-0.083,0.024C23.956,38.224,23.964,38.212,23.973,38.2z"/>
		<path fill-rule="evenodd" clip-rule="evenodd" fill="#7F7F7F" d="M35.053,14.867c0.015,0.005,0.03,0.011,0.045,0.017
			c-0.008,0.009-0.022,0.027-0.024,0.026c-0.021-0.013-0.039-0.029-0.058-0.044l0.019-0.01L35.053,14.867z"/>
		<path fill-rule="evenodd" clip-rule="evenodd" fill="#707070" d="M19.784,16.003c-0.009-0.016-0.009-0.032,0.001-0.047
			c0.012,0.027,0.023,0.053,0.036,0.08C19.809,16.025,19.796,16.014,19.784,16.003z"/>
		<path fill-rule="evenodd" clip-rule="evenodd" fill="#1C749A" d="M48.769,16.989c0.009,0.012,0.019,0.023,0.027,0.035
			c-0.026-0.008-0.054-0.017-0.08-0.024C48.732,16.99,48.75,16.987,48.769,16.989z"/>
		<path fill-rule="evenodd" clip-rule="evenodd" fill="#FEFEFE" d="M37.568,18.988c0-0.014,0.001-0.028,0.001-0.042
			c0.04,0.016,0.081,0.032,0.121,0.048l0.01-0.002C37.656,18.991,37.612,18.99,37.568,18.988z"/>
		<path fill-rule="evenodd" clip-rule="evenodd" fill="#1E7EA8" d="M13.151,23.283c-0.003,0.027-0.006,0.053-0.009,0.081
			c-0.008-0.035-0.016-0.069-0.024-0.104C13.129,23.267,13.14,23.275,13.151,23.283z"/>
		<path fill-rule="evenodd" clip-rule="evenodd" fill="#8F8F8F" d="M41.376,26.938c0,0.02-0.001,0.04-0.001,0.059
			c-0.014-0.026-0.028-0.052-0.042-0.079C41.347,26.925,41.361,26.932,41.376,26.938z"/>
		<path fill-rule="evenodd" clip-rule="evenodd" fill="#404040" d="M34.868,25.201c0.008,0.011,0.015,0.023,0.022,0.034
			c-0.034-0.01-0.067-0.02-0.101-0.029C34.815,25.204,34.842,25.202,34.868,25.201z"/>
		<path fill-rule="evenodd" clip-rule="evenodd" fill="#BEBEBE" d="M15.93,36.829c0.015,0.043,0.029,0.086,0.044,0.128l0.004-0.005
			c-0.021-0.036-0.042-0.071-0.063-0.107L15.93,36.829z"/>
		<path fill-rule="evenodd" clip-rule="evenodd" fill="#7F7F7F" d="M16.087,37.108c-0.018-0.035-0.035-0.071-0.052-0.106
			l-0.004,0.005c0.017,0.034,0.035,0.069,0.052,0.104L16.087,37.108z"/>
		<path fill-rule="evenodd" clip-rule="evenodd" fill="#4F4F4F" d="M16.083,37.111c0.018,0.036,0.037,0.072,0.055,0.108l0.001-0.001
			c-0.018-0.037-0.035-0.073-0.052-0.11L16.083,37.111z"/>
		<path fill-rule="evenodd" clip-rule="evenodd" fill="#FEFEFE" d="M15.814,36.623l-0.022-0.002l-0.022,0.001
			c-0.012-0.017-0.023-0.034-0.035-0.051c0.023,0,0.046,0,0.07,0C15.808,36.589,15.811,36.605,15.814,36.623z"/>
		<path fill-rule="evenodd" clip-rule="evenodd" fill="#BFBFBF" d="M37.69,18.995c0.007,0.017,0.014,0.034,0.021,0.05
			c-0.008,0-0.017-0.001-0.024-0.001c0.004-0.017,0.009-0.034,0.014-0.051L37.69,18.995z"/>
		<path fill-rule="evenodd" clip-rule="evenodd" fill="#AEAEAE" d="M42.065,26.295c-0.013-0.02-0.025-0.039-0.038-0.058
			C42.04,26.256,42.053,26.275,42.065,26.295z"/>
		<path fill-rule="evenodd" clip-rule="evenodd" fill="#EFEFEF" d="M44.631,17.088c0.021-0.015,0.042-0.029,0.063-0.043
			l-0.004-0.004c-0.012,0.023-0.025,0.045-0.038,0.068C44.642,17.106,44.635,17.099,44.631,17.088z"/>
		<path fill-rule="evenodd" clip-rule="evenodd" fill="#DFDFDF" d="M17.23,25.099c0.021,0.01,0.041,0.021,0.062,0.031
			c0,0.018-0.009,0.026-0.027,0.026c-0.01-0.021-0.021-0.041-0.031-0.061L17.23,25.099z"/>
		<path fill-rule="evenodd" clip-rule="evenodd" d="M43.819,26.071c0.005-0.018,0.009-0.035,0.014-0.053
			c0.014,0.017,0.028,0.033,0.043,0.05l0.003,0.004C43.859,26.072,43.839,26.072,43.819,26.071z"/>
		<path fill-rule="evenodd" clip-rule="evenodd" fill="#2F2F2F" d="M16.138,37.22c0.008,0.008,0.017,0.016,0.025,0.023
			c-0.005-0.001-0.012-0.001-0.014-0.005c-0.004-0.006-0.006-0.013-0.009-0.02L16.138,37.22z"/>
		<path fill-rule="evenodd" clip-rule="evenodd" fill="#CFCFCF" d="M44.748,16.992c-0.005,0.016-0.006,0.032-0.003,0.048
			c-0.018,0-0.036,0-0.054,0c-0.001,0,0.003,0.004,0.003,0.004C44.712,17.027,44.729,17.01,44.748,16.992z"/>
		<path fill-rule="evenodd" clip-rule="evenodd" d="M43.865,28.683c0.004,0.018,0.009,0.036,0.013,0.054
			c-0.018,0-0.036-0.001-0.054-0.001c-0.005-0.017-0.008-0.033-0.009-0.05C43.832,28.683,43.849,28.683,43.865,28.683z"/>
		<path fill-rule="evenodd" clip-rule="evenodd" fill="#D7D7D7" d="M33.872,13.345c-0.02-0.012-0.038-0.023-0.057-0.036
			C33.834,13.322,33.853,13.333,33.872,13.345z"/>
		<path fill-rule="evenodd" clip-rule="evenodd" fill="#D7D7D7" d="M33.762,13.292c-0.019,0-0.038,0-0.057,0.001l-0.002,0.006
			c0.001-0.015,0.002-0.03,0.004-0.044C33.725,13.267,33.743,13.279,33.762,13.292z"/>
		<path fill-rule="evenodd" clip-rule="evenodd" fill="#E0E0E0" d="M33.707,13.254c-0.002,0.015-0.003,0.029-0.004,0.044
			c-0.017,0.002-0.032-0.003-0.046-0.014c0.003-0.016,0.001-0.031-0.004-0.046C33.671,13.244,33.688,13.249,33.707,13.254z"/>
		<path fill-rule="evenodd" clip-rule="evenodd" fill="#484848" d="M33.548,13.184c-0.008-0.003-0.017-0.005-0.022-0.01
			c-0.004-0.003-0.004-0.011-0.005-0.017c0.008,0.01,0.017,0.019,0.025,0.028L33.548,13.184z"/>
		<path fill-rule="evenodd" clip-rule="evenodd" fill="#808080" d="M12.007,11.111c-0.005,0.014-0.009,0.027-0.014,0.042
			c-0.008-0.009-0.016-0.017-0.024-0.025c0.015-0.004,0.029-0.007,0.044-0.011L12.007,11.111z"/>
		<path fill-rule="evenodd" clip-rule="evenodd" fill="#505050" d="M17.234,25.095c-0.013-0.006-0.025-0.013-0.038-0.02
			c0.012,0.008,0.023,0.016,0.034,0.024L17.234,25.095z"/>
		<path fill-rule="evenodd" clip-rule="evenodd" d="M40.668,31.233c-0.018-0.004-0.035-0.008-0.054-0.012
			c0.003-0.021,0.006-0.042,0.009-0.063c0.014,0.026,0.027,0.054,0.04,0.08L40.668,31.233z"/>
		<path fill-rule="evenodd" clip-rule="evenodd" d="M33.11,49.403c-0.005,0.018-0.009,0.036-0.014,0.055
			c-0.018,0-0.034-0.001-0.052-0.004c0-0.018,0.004-0.033,0.012-0.049l0.026-0.004L33.11,49.403z"/>
		<path fill-rule="evenodd" clip-rule="evenodd" fill="#9F9F9F" d="M9.395,31.783c-0.013-0.006-0.026-0.011-0.04-0.016
			c0.008-0.009,0.017-0.018,0.025-0.026c0.006,0.013,0.011,0.026,0.017,0.04L9.395,31.783z"/>
		<path fill-rule="evenodd" clip-rule="evenodd" fill="#FEFEFE" d="M9.45,31.797c-0.014,0.014-0.028,0.026-0.042,0.039
			c-0.004-0.018-0.009-0.035-0.013-0.053l0.002-0.002C9.415,31.786,9.433,31.792,9.45,31.797z"/>
		<path fill-rule="evenodd" clip-rule="evenodd" fill="#FEFEFE" d="M17.337,25.157c-0.016,0.015-0.031,0.03-0.046,0.044
			c-0.009-0.015-0.017-0.03-0.026-0.045c0.018,0,0.027-0.009,0.027-0.026C17.307,25.139,17.322,25.148,17.337,25.157z"/>
		<path fill-rule="evenodd" clip-rule="evenodd" fill="#BBBBBB" d="M53.168,31.77c-0.01,0.023-0.02,0.047-0.029,0.07
			C53.148,31.816,53.158,31.793,53.168,31.77z"/>
		<path fill-rule="evenodd" clip-rule="evenodd" fill="#BBBBBB" d="M53.136,31.887c0.016-0.007,0.03-0.005,0.044,0.006
			c-0.014,0.011-0.027,0.021-0.04,0.032C53.138,31.912,53.137,31.899,53.136,31.887z"/>
		<path fill-rule="evenodd" clip-rule="evenodd" d="M37.188,23.843c0.018,0.004,0.036,0.009,0.054,0.014
			c0,0.016-0.001,0.033-0.003,0.049c-0.018,0.001-0.034-0.002-0.051-0.009C37.188,23.878,37.188,23.86,37.188,23.843z"/>
		<path fill-rule="evenodd" clip-rule="evenodd" fill="#AFAFAF" d="M14.993,23.353c-0.013-0.005-0.026-0.006-0.039-0.005
			c-0.002-0.017-0.004-0.035-0.006-0.052l-0.005,0.005C14.959,23.318,14.976,23.336,14.993,23.353z"/>
		<path fill-rule="evenodd" clip-rule="evenodd" fill="#BFBFBF" d="M14.883,23.246c0.017,0.001,0.033,0,0.049,0
			c0.003,0.019,0.006,0.037,0.009,0.056l0.005-0.005C14.926,23.28,14.905,23.263,14.883,23.246z"/>
		<path fill-rule="evenodd" clip-rule="evenodd" fill="#FEFEFE" d="M14.854,23.133c-0.023,0-0.046,0-0.069,0
			c-0.011-0.016-0.022-0.032-0.033-0.048c0.023-0.001,0.047-0.001,0.071-0.002C14.833,23.1,14.844,23.116,14.854,23.133z"/>
		<path fill-rule="evenodd" clip-rule="evenodd" fill="#9E9E9E" d="M16.035,37.002c-0.019-0.017-0.038-0.033-0.057-0.05
			l-0.004,0.005c0.019,0.017,0.038,0.033,0.058,0.049C16.031,37.007,16.035,37.002,16.035,37.002z"/>
		<path fill-rule="evenodd" clip-rule="evenodd" fill="#A0A0A0" d="M37.188,23.843c0,0.018,0,0.036,0,0.054
			c-0.026-0.026-0.053-0.052-0.078-0.078C37.136,23.827,37.162,23.834,37.188,23.843z"/>
		<path fill-rule="evenodd" clip-rule="evenodd" fill="#808080" d="M40.663,31.238c0.014,0.004,0.026,0.009,0.039,0.014
			c-0.007,0.007-0.014,0.014-0.021,0.021c-0.004-0.013-0.009-0.026-0.014-0.039L40.663,31.238z"/>
		<path fill-rule="evenodd" clip-rule="evenodd" fill="#AAAAAA" d="M43.824,28.735c0.018,0,0.036,0.001,0.054,0.001
			c0.008,0.025,0.015,0.05,0.022,0.075C43.875,28.786,43.85,28.761,43.824,28.735z"/>
		<path fill-rule="evenodd" clip-rule="evenodd" fill="#303030" d="M43.819,26.071c0.02,0,0.04,0.001,0.06,0.001
			c-0.026,0.036-0.053,0.072-0.079,0.108c-0.011-0.007-0.021-0.014-0.031-0.021C43.786,26.13,43.803,26.101,43.819,26.071z"/>
		<path fill-rule="evenodd" clip-rule="evenodd" fill="#DFDFDF" d="M41.369,21.337c0.009,0.007,0.017,0.015,0.025,0.021
			c-0.005-0.001-0.012-0.001-0.015-0.004c-0.004-0.006-0.005-0.014-0.007-0.021L41.369,21.337z"/>
		<path fill-rule="evenodd" clip-rule="evenodd" fill="#505050" d="M41.373,21.334c-0.017-0.017-0.032-0.034-0.049-0.051
			l-0.006,0.004c0.018,0.017,0.034,0.034,0.051,0.05L41.373,21.334z"/>
		<path fill-rule="evenodd" clip-rule="evenodd" fill="#8F8F8F" d="M43.226,24.87c-0.004,0.014-0.008,0.028-0.012,0.042
			c-0.008-0.007-0.015-0.014-0.022-0.021c0.013-0.005,0.026-0.01,0.039-0.016C43.231,24.874,43.226,24.87,43.226,24.87z"/>
		<path fill-rule="evenodd" clip-rule="evenodd" d="M32.575,41.198c0.212-0.739,0.409-1.441,0.618-2.14
			c0.021-0.066,0.103-0.147,0.17-0.163c1.231-0.284,2.464-0.563,3.698-0.835c0.102-0.022,0.217-0.013,0.321,0.008
			c0.34,0.065,0.456,0.229,0.423,0.574c-0.073,0.775-0.638,1.432-1.499,1.668c-0.826,0.226-1.666,0.407-2.5,0.605
			C33.412,41.01,33.017,41.098,32.575,41.198z"/>
		<path fill-rule="evenodd" clip-rule="evenodd" fill="#959595" d="M33.11,49.403l-0.027-0.002l-0.026,0.004
			c0.027-0.027,0.055-0.054,0.082-0.081C33.129,49.351,33.12,49.377,33.11,49.403z"/>
		<path fill-rule="evenodd" clip-rule="evenodd" fill="#010101" d="M23.958,52.664c0.421-0.618,0.808-1.188,1.231-1.81
			c0.098,0.524,0.184,0.979,0.273,1.459C24.967,52.429,24.489,52.541,23.958,52.664z"/>
		<path fill-rule="evenodd" clip-rule="evenodd" fill="#FEFEFE" d="M44.546,17.167c0.017,0,0.024,0.007,0.023,0.024
			C44.553,17.192,44.545,17.185,44.546,17.167z"/>
	</g>
</g>
</svg>
