<?xml version="1.0" encoding="utf-8"?>
<!-- Generator: Adobe Illustrator 22.0.0, SVG Export Plug-In . SVG Version: 6.00 Build 0)  -->
<svg version="1.1" id="Camada_1" xmlns="http://www.w3.org/2000/svg" xmlns:xlink="http://www.w3.org/1999/xlink" x="0px" y="0px"
	 width="64px" height="64px" viewBox="0 0 64 64" enable-background="new 0 0 64 64" xml:space="preserve">
<g>
	<g>
		<path fill="#010102" d="M64,29.631c0,0.011,0,0.022,0,0.033c-0.042,0.057-0.083,0.114-0.126,0.17
			c-0.513,0.671-1.026,1.342-1.541,2.012c-0.714,0.93-1.427,1.861-2.145,2.789c-0.059,0.077-0.058,0.131-0.009,0.206
			c0.088,0.135,0.157,0.281,0.21,0.434c0.234,0.676,0.211,1.354,0.02,2.034c-0.164,0.584-0.433,1.117-0.778,1.613
			c-0.313,0.449-0.675,0.855-1.088,1.214c-0.374,0.325-0.78,0.608-1.211,0.854c-0.43,0.245-0.869,0.473-1.33,0.651
			c-0.748,0.289-1.52,0.496-2.312,0.625c-0.607,0.098-1.218,0.128-1.829,0.069c-0.87-0.083-1.727-0.246-2.558-0.524
			c-0.07-0.023-0.108-0.013-0.153,0.045c-0.165,0.21-0.344,0.408-0.55,0.58c-0.018,0.015-0.029,0.033-0.019,0.063
			c0.043,0.016,0.089,0.033,0.135,0.05c0.628,0.224,1.256,0.447,1.883,0.671c0.104,0.037,0.205,0.083,0.308,0.125
			c0.003,0.118-0.039,0.227-0.07,0.338c-0.219,0.792-0.44,1.583-0.661,2.375c-0.231,0.829-0.462,1.658-0.69,2.488
			c-0.022,0.081-0.062,0.136-0.131,0.182c-0.246,0.162-0.487,0.331-0.735,0.491c-0.877,0.567-1.798,1.039-2.82,1.288
			c-0.813,0.198-1.623,0.276-2.419-0.073c-0.073-0.032-0.097-0.006-0.115,0.062c-0.037,0.139-0.089,0.275-0.121,0.416
			c-0.024,0.105-0.072,0.156-0.18,0.181c-0.72,0.163-1.439,0.333-2.159,0.501c-1.006,0.234-2.013,0.468-3.019,0.702
			c-1.433,0.334-2.867,0.669-4.3,1.003c-1.417,0.331-2.834,0.663-4.251,0.993c-1.271,0.296-2.543,0.591-3.814,0.886
			c-1.098,0.256-2.197,0.512-3.295,0.769c-1.049,0.245-2.098,0.493-3.147,0.737c-0.27,0.063-0.541,0.124-0.818,0.151
			c-0.061,0.001-0.122,0.003-0.183,0.004c-0.218-0.015-0.436-0.015-0.654,0c-0.06-0.001-0.121-0.003-0.181-0.004
			c-0.145-0.037-0.292-0.069-0.435-0.111c-1.016-0.301-1.718-1.172-1.804-2.226c-0.045-0.543,0.059-1.063,0.224-1.573
			c0.209-0.641,0.54-1.217,0.974-1.731c0.345-0.409,0.731-0.777,1.18-1.073c0.034-0.023,0.082-0.036,0.09-0.093
			c-0.191-0.042-0.386-0.044-0.577-0.07c-0.06-0.008-0.106,0.012-0.153,0.048c-0.584,0.452-1.23,0.795-1.905,1.087
			c-0.829,0.358-1.691,0.611-2.585,0.744c-0.769,0.114-1.539,0.117-2.309,0.005c-0.467-0.068-0.927-0.171-1.386-0.278
			c-0.036,0.049-0.044,0.104-0.059,0.157c-0.074,0.267-0.153,0.534-0.222,0.802c-0.024,0.092-0.065,0.139-0.162,0.156
			c-0.18,0.032-0.357,0.08-0.536,0.121c-1.092,0.253-2.186,0.501-3.277,0.761c-1.329,0.316-2.655,0.642-3.983,0.961
			C0.148,54.539,0.079,54.58,0,54.564c-0.004-0.051,0.047-0.066,0.052-0.105c0.017-0.014,0.036-0.026,0.05-0.042
			c0.559-0.619,1.118-1.237,1.676-1.857c0.558-0.62,1.114-1.242,1.673-1.86c0.058-0.064,0.095-0.131,0.119-0.214
			c0.218-0.758,0.44-1.515,0.659-2.272c0.238-0.821,0.474-1.643,0.711-2.465c0.117-0.405,0.238-0.81,0.355-1.215
			c0.035-0.123,0.032-0.125-0.073-0.178c-0.935-0.476-1.871-0.953-2.806-1.43c-0.031-0.016-0.078-0.018-0.08-0.072
			c0.043-0.011,0.085-0.024,0.129-0.034c0.694-0.156,1.388-0.309,2.081-0.467c1.273-0.29,2.545-0.582,3.817-0.874
			c0.855-0.196,1.71-0.394,2.566-0.588c0.096-0.022,0.122-0.001,0.118-0.153c-0.005-0.178-0.014-0.355-0.044-0.531
			c-0.079-0.466-0.229-0.905-0.504-1.293c-0.396-0.559-0.919-0.96-1.549-1.223c-0.071-0.03-0.101-0.06-0.1-0.144
			c0.006-1.002-0.152-1.98-0.442-2.939c-0.317-1.051-0.79-2.028-1.397-2.939c-0.629-0.944-1.388-1.777-2.243-2.522
			c-0.026-0.023-0.074-0.033-0.061-0.093c0.077,0.009,0.154,0.017,0.231,0.028c0.716,0.107,1.415,0.283,2.101,0.513
			c0.575,0.193,1.132,0.428,1.666,0.717c0.544,0.294,1.054,0.64,1.548,1.01c0.588,0.441,1.141,0.922,1.664,1.438
			c0.348,0.344,0.687,0.696,1.006,1.068c0.029,0.034,0.055,0.08,0.111,0.084c0.017-0.057-0.017-0.093-0.035-0.131
			c-0.405-0.878-0.769-1.773-1.104-2.68c-0.462-1.251-0.866-2.521-1.196-3.813c-0.294-1.151-0.571-2.306-0.731-3.485
			c-0.042-0.308-0.097-0.615-0.145-0.922C9.69,22.024,9.588,21.163,9.506,20.3c-0.079-0.836-0.136-1.673-0.163-2.513
			c-0.002-0.061-0.008-0.121-0.027-0.18c-0.244-0.764-0.413-1.544-0.493-2.344c-0.135-1.354-0.087-2.697,0.217-4.028
			c0.04-0.177,0.105-0.323,0.273-0.411c0.063-0.033,0.116-0.086,0.175-0.127c0.776-0.538,1.618-0.95,2.498-1.285
			c0.706-0.27,1.431-0.48,2.17-0.643c0.914-0.202,1.838-0.329,2.77-0.389c0.755-0.048,1.512-0.052,2.268-0.019
			c0.079,0.003,0.155-0.003,0.231-0.021c0.601-0.139,1.206-0.258,1.812-0.371c1.11-0.206,2.226-0.366,3.347-0.495
			c1-0.116,2.003-0.191,3.008-0.244c0.411-0.022,0.821-0.044,1.232-0.066c0.259,0.015,0.517-0.011,0.775-0.009
			c0.194,0,0.388,0,0.582,0.001c0.377,0.001,0.755,0.002,1.132,0.004c0.227,0.002,0.454,0.005,0.681,0.007
			c0.022,0.003,0.044,0.008,0.066,0.009c1.433,0.064,2.864,0.153,4.289,0.323c0.916,0.109,1.83,0.237,2.738,0.396
			c0.974,0.17,1.942,0.371,2.904,0.603c1.194,0.288,2.373,0.623,3.538,1.011c0.638,0.212,1.269,0.441,1.895,0.686
			c0.724,0.283,1.439,0.589,2.142,0.92c0.452,0.213,0.898,0.438,1.35,0.653c0.075,0.036,0.109,0.083,0.122,0.16
			c0.02,0.126,0.046,0.251,0.069,0.377c0.1,0.546,0.201,1.093,0.239,1.648c0.072,1.038,0.092,2.077,0.074,3.117
			c-0.017,1.023-0.061,2.044-0.165,3.063c-0.06,0.581-0.106,1.163-0.184,1.741c-0.116,0.858-0.24,1.715-0.389,2.568
			c-0.164,0.942-0.38,1.872-0.618,2.798c-0.219,0.85-0.467,1.691-0.744,2.524c-0.032,0.095-0.022,0.156,0.059,0.225
			c0.571,0.488,1.108,1.012,1.607,1.574c0.06,0.068,0.12,0.081,0.205,0.06c0.492-0.117,0.984-0.23,1.477-0.344
			c0.192-0.044,0.384-0.088,0.59-0.136c-0.02,0.181-0.106,0.324-0.112,0.485c-0.013,0.002-0.022,0.012-0.017,0.023
			c0.011,0.021,0.026,0.011,0.039-0.001c0.053-0.03,0.109-0.056,0.159-0.09c0.434-0.291,0.892-0.539,1.372-0.748
			c0.884-0.385,1.807-0.608,2.767-0.685c0.675-0.054,1.343,0,2.006,0.13c0.106,0.021,0.216,0.063,0.306-0.046
			c0.014-0.016,0.052-0.013,0.08-0.017c0.638-0.087,1.276-0.174,1.915-0.261C62.515,29.832,63.258,29.731,64,29.631z M44.191,16.993
			c-0.013,0.002-0.026-0.011-0.038,0.009c-0.014,0.023,0.01,0.022,0.015,0.033c-0.077-0.054-0.123,0.014-0.168,0.05
			c-0.712,0.578-1.209,1.306-1.505,2.174c-0.027,0.081-0.03,0.141,0.024,0.214c0.072,0.098,0.127,0.208,0.19,0.313
			c0.03,0.049,0.052,0.106,0.118,0.15c0.049-0.282,0.101-0.547,0.179-0.806c0.201-0.671,0.491-1.296,0.925-1.849
			c0.07-0.089,0.129-0.191,0.236-0.245c-0.011-0.026-0.004-0.043,0.024-0.048l-0.008,0.006L44.191,16.993z M14.207,23.323
			l0.01,0.007l-0.009-0.008c-0.003-0.026-0.002-0.055-0.035-0.065c-0.007-0.063-0.044-0.109-0.083-0.155
			c-0.01-0.011-0.02-0.022-0.03-0.033c-0.041-0.105-0.114-0.19-0.171-0.286c-0.419-0.714-0.796-1.449-1.118-2.212
			c-0.355-0.84-0.643-1.702-0.87-2.585c-0.212-0.824-0.358-1.66-0.455-2.505c-0.065-0.575-0.09-1.152-0.082-1.73
			c0.001-0.088,0.025-0.13,0.117-0.14c0.221-0.024,0.441-0.055,0.663-0.062c0.879-0.031,1.74,0.086,2.587,0.314
			c1.293,0.347,2.486,0.916,3.608,1.64c0.21,0.135,0.415,0.279,0.622,0.418c0.034,0.023,0.067,0.067,0.114,0.018
			c-0.015,0.003-0.045-0.01-0.028,0.027c0.009-0.009,0.018-0.018,0.028-0.027c-0.038-0.011-0.043-0.048-0.058-0.076
			c-0.535-0.943-1.245-1.728-2.122-2.364c-0.043-0.031-0.084-0.066-0.144-0.114c0.098-0.014,0.168-0.001,0.237,0.007
			c0.895,0.106,1.778,0.28,2.649,0.511c1.437,0.381,2.825,0.899,4.169,1.532c1.213,0.572,2.377,1.233,3.485,1.987
			c0.943,0.642,1.839,1.345,2.679,2.117c1.002,0.921,1.912,1.922,2.712,3.024c0.5,0.689,0.948,1.41,1.347,2.163
			c0.084,0.159,0.161,0.323,0.237,0.476c-0.023,0.033-0.041,0.022-0.055,0.017c-0.487-0.189-0.987-0.338-1.494-0.465
			c-0.766-0.191-1.542-0.33-2.324-0.443c-0.893-0.129-1.789-0.206-2.689-0.248c-0.872-0.041-1.745-0.041-2.617,0.018
			c-0.622,0.042-1.24,0.102-1.854,0.21c-0.603,0.106-1.197,0.245-1.771,0.461c-0.529,0.199-1.03,0.446-1.445,0.841
			c-0.329,0.313-0.456,0.69-0.353,1.135c0.081,0.35,0.271,0.645,0.511,0.905c0.515,0.558,1.132,0.979,1.813,1.31
			c0.355,0.173,0.73,0.298,1.098,0.44c0.658,0.255,1.302,0.543,1.94,0.842c0.523,0.245,1.04,0.503,1.549,0.777
			c0.641,0.344,1.273,0.705,1.889,1.094c0.597,0.377,1.185,0.765,1.731,1.216c0.867,0.716,1.596,1.545,2.113,2.549
			c0.042,0.083,0.092,0.095,0.171,0.076c0.265-0.063,0.531-0.12,0.795-0.185c0.155-0.038,0.314-0.06,0.47-0.12
			c-0.012-0.032-0.02-0.058-0.031-0.083c-0.185-0.4-0.413-0.775-0.673-1.13c-0.489-0.668-1.074-1.245-1.721-1.76
			c-0.86-0.684-1.799-1.246-2.776-1.744c-1.099-0.561-2.237-1.036-3.383-1.492c-0.831-0.33-1.668-0.645-2.49-0.997
			c-0.572-0.245-1.14-0.499-1.658-0.85c-0.194-0.132-0.372-0.28-0.518-0.467c-0.218-0.279-0.258-0.616-0.078-0.919
			c0.205-0.346,0.492-0.616,0.847-0.806c0.39-0.209,0.816-0.322,1.243-0.424c1.014-0.242,2.045-0.359,3.086-0.407
			c1.147-0.053,2.29-0.008,3.429,0.13c0.734,0.089,1.46,0.222,2.179,0.398c1.137,0.278,2.234,0.664,3.288,1.174
			c0.818,0.396,1.592,0.864,2.318,1.409c0.664,0.498,1.277,1.053,1.839,1.665c0.543,0.591,1.029,1.225,1.468,1.896l0.005-0.001
			c-0.062,0.062-0.101-0.011-0.139-0.032c-0.596-0.33-1.228-0.561-1.892-0.711c-0.053-0.012-0.105-0.036-0.161-0.014
			c0.009-0.01,0.009-0.019-0.002-0.021c-0.005-0.001-0.012,0.005-0.018,0.008c0.008,0.003,0.016,0.007,0.024,0.01
			c-0.002,0.049,0.042,0.061,0.07,0.084c0.168,0.138,0.321,0.291,0.464,0.454c0.46,0.523,0.796,1.121,1.07,1.756
			c0.178,0.413,0.32,0.839,0.441,1.273c0.046,0.167,0.007,0.17,0.213,0.125c0.379-0.084,0.757-0.175,1.136-0.26
			c0.256-0.058,0.259-0.056,0.24-0.317c-0.083-1.151-0.286-2.28-0.638-3.38c-0.303-0.944-0.697-1.848-1.19-2.709
			c-0.263-0.458-0.551-0.899-0.867-1.323c-0.336-0.451-0.7-0.877-1.098-1.274c-0.366-0.366-0.759-0.701-1.178-1.004
			c-0.021-0.015-0.052-0.024-0.039-0.07c0.057-0.015,0.114,0.007,0.17,0.021c0.237,0.059,0.47,0.133,0.702,0.211
			c0.894,0.3,1.732,0.716,2.534,1.211c0.511,0.315,0.994,0.67,1.462,1.045c0.009,0.02,0.025,0.033,0.045,0.039
			c0.003,0.027,0.028,0.044,0.044,0.037c0.032-0.013,0.005-0.036-0.003-0.053c-0.004-0.01-0.013-0.017-0.02-0.025
			c-0.01-0.01-0.02-0.02-0.029-0.03c-0.02-0.039-0.038-0.08-0.06-0.118c-0.352-0.594-0.762-1.147-1.203-1.677
			c-0.613-0.736-1.283-1.416-1.998-2.052c-0.66-0.588-1.355-1.132-2.084-1.633c-0.596-0.41-1.211-0.787-1.848-1.126
			c-0.652-0.347-1.323-0.654-2.018-0.908c-0.433-0.158-0.87-0.301-1.318-0.413c-0.141-0.035-0.287-0.057-0.43-0.116
			c0.053-0.031,0.102-0.039,0.152-0.047c0.402-0.062,0.806-0.091,1.212-0.096c1.162-0.013,2.303,0.155,3.433,0.412
			c0.553,0.126,1.099,0.275,1.638,0.45c0.05,0.03,0.104,0.048,0.182,0.055c-0.055-0.054-0.095-0.089-0.152-0.101
			c-0.774-0.46-1.551-0.912-2.337-1.351c-0.854-0.477-1.716-0.937-2.589-1.376c-1.131-0.569-2.277-1.107-3.443-1.603
			c-1.314-0.559-2.646-1.068-4.005-1.508c-1.248-0.404-2.512-0.746-3.797-1.013c-0.833-0.173-1.672-0.313-2.517-0.402
			c-0.995-0.105-1.994-0.154-2.997-0.118c-1.228,0.044-2.435,0.203-3.609,0.58c-0.307,0.099-0.605,0.22-0.896,0.359
			c-0.066,0.032-0.101,0.074-0.111,0.15c-0.029,0.215-0.056,0.43-0.065,0.647c-0.027,0.646-0.01,1.29,0.072,1.931
			c0.064,0.502,0.144,1.001,0.257,1.494c0.159,0.694,0.358,1.375,0.606,2.043c0.308,0.83,0.684,1.628,1.125,2.394
			c0.286,0.496,0.601,0.974,0.944,1.433c0.135,0.181,0.26,0.373,0.429,0.527c0.007,0.015,0.013,0.03,0.02,0.045
			c0.035,0.043,0.053,0.103,0.113,0.122C14.171,23.288,14.185,23.308,14.207,23.323z M33.113,48.973
			c0.008,0.006,0.015,0.013,0.023,0.019c0.009,0.052-0.014,0.098-0.028,0.145c-0.244,0.837-0.49,1.674-0.728,2.512
			c-0.042,0.148-0.105,0.267-0.246,0.336c-0.053,0.026-0.091,0.061-0.073,0.131c0.017,0.001,0.034,0.005,0.049,0.002
			c0.433-0.099,0.866-0.2,1.299-0.3c0.022-0.005,0.044-0.01,0.064-0.019c0.034-0.015,0.047-0.046,0.05-0.08
			c0.003-0.039-0.031-0.041-0.056-0.046c-0.096-0.021-0.107-0.085-0.087-0.165c0.011-0.043,0.024-0.086,0.036-0.128
			c0.126-0.432,0.254-0.863,0.379-1.295c0.239-0.827,0.477-1.654,0.713-2.481c0.042-0.146,0.11-0.266,0.251-0.336
			c0.046-0.023,0.09-0.049,0.072-0.116c-0.054-0.023-0.108-0.001-0.161,0.011c-0.428,0.097-0.856,0.195-1.283,0.294
			c-0.087,0.02-0.173,0.042-0.259,0.063c-0.037,0.009-0.056,0.034-0.063,0.069c-0.01,0.046,0.019,0.054,0.055,0.062
			c0.06,0.014,0.055,0.062,0.047,0.107c-0.012,0.068-0.052,0.122-0.092,0.176c-0.181,0.246-0.364,0.491-0.546,0.737
			c-0.401,0.54-0.802,1.08-1.203,1.619c-0.091,0.122-0.184,0.243-0.287,0.379c-0.024-0.076-0.042-0.129-0.057-0.182
			c-0.173-0.626-0.344-1.253-0.52-1.878c-0.044-0.155,0-0.272,0.122-0.367c0.047-0.036,0.108-0.061,0.091-0.153
			c-0.233,0.053-0.465,0.106-0.696,0.159c-0.33,0.076-0.66,0.154-0.991,0.228c-0.072,0.016-0.129,0.035-0.122,0.123
			c0.174,0.07,0.175,0.071,0.122,0.254c-0.058,0.203-0.115,0.406-0.174,0.609c-0.307,1.056-0.616,2.111-0.918,3.168
			c-0.049,0.173-0.107,0.326-0.283,0.405c-0.047,0.021-0.073,0.062-0.046,0.125c0.031-0.006,0.058-0.01,0.084-0.016
			c0.336-0.077,0.671-0.155,1.007-0.232c0.065-0.015,0.13-0.029,0.195-0.042c0.042-0.009,0.067-0.03,0.076-0.075
			c0.011-0.058-0.027-0.062-0.065-0.073c-0.066-0.02-0.081-0.071-0.071-0.132c0.006-0.038,0.018-0.076,0.028-0.113
			c0.256-0.88,0.511-1.76,0.767-2.64c0.01-0.034,0.001-0.082,0.06-0.09c0.257,0.909,0.513,1.818,0.776,2.749
			c0.05-0.058,0.08-0.091,0.107-0.126c0.346-0.456,0.69-0.914,1.036-1.369C32.083,50.326,32.598,49.65,33.113,48.973z
			 M33.122,13.311c-0.02-0.015-0.04-0.039-0.066-0.015c-0.006,0.006,0.006,0.029,0.024,0.034c0.06,0.056,0.122,0.109,0.179,0.167
			c0.406,0.409,0.794,0.835,1.133,1.304c-0.01,0.004-0.019,0.007-0.029,0.011c-0.106-0.038-0.184-0.121-0.277-0.179
			c-0.679-0.424-1.376-0.816-2.094-1.171c-0.897-0.444-1.814-0.838-2.752-1.187c-0.74-0.275-1.486-0.528-2.246-0.739
			c-0.119-0.033-0.243-0.057-0.383-0.125c0.326-0.055,0.626-0.054,0.925-0.047c0.296,0.007,0.592,0.027,0.889,0.042
			c-0.04-0.036-0.086-0.053-0.132-0.067c-0.307-0.098-0.615-0.192-0.924-0.283c-1.237-0.366-2.492-0.657-3.762-0.882
			c-0.816-0.144-1.635-0.265-2.46-0.342c-0.742-0.069-1.484-0.127-2.229-0.148c-0.578-0.016-1.156-0.012-1.734,0.016
			c-0.878,0.042-1.752,0.12-2.618,0.277c-0.988,0.178-1.951,0.438-2.861,0.87c-0.151,0.072-0.307,0.137-0.459,0.26
			c0.126-0.018,0.226-0.029,0.324-0.046c1.027-0.174,2.064-0.248,3.104-0.273c1.297-0.032,2.59,0.032,3.879,0.183
			c0.85,0.099,1.696,0.228,2.537,0.391c1.359,0.264,2.698,0.608,4.02,1.018c1.194,0.37,2.366,0.802,3.524,1.273
			c0.735,0.299,1.465,0.612,2.188,0.941c0.597,0.272,1.189,0.552,1.774,0.847c0.709,0.358,1.409,0.734,2.099,1.129
			c0.994,0.569,1.961,1.181,2.891,1.85c0.849,0.611,1.663,1.267,2.408,2.003c0.261,0.258,0.52,0.518,0.74,0.813
			c-0.014,0.011-0.027,0.023-0.041,0.034c-0.516-0.273-1.044-0.517-1.601-0.696c-0.672-0.217-1.357-0.341-2.065-0.316
			c-0.052,0.002-0.11-0.012-0.16,0.028c0.017,0.035,0.048,0.048,0.076,0.064c0.309,0.177,0.602,0.379,0.889,0.589
			c0.954,0.698,1.828,1.485,2.609,2.374c0.6,0.683,1.136,1.41,1.595,2.194c0.559,0.955,0.977,1.969,1.237,3.045
			c0.016,0.064,0.05,0.13,0.027,0.226c-0.336-0.444-0.7-0.829-1.127-1.153c-0.427-0.324-0.887-0.578-1.41-0.742
			c0.009,0.069,0.044,0.1,0.068,0.136c0.319,0.457,0.589,0.942,0.816,1.45c0.217,0.488,0.398,0.988,0.549,1.501
			c0.279,0.947,0.449,1.913,0.516,2.898c0.016,0.231,0.028,0.462,0.042,0.701c0.601-0.138,1.19-0.274,1.78-0.407
			c0.076-0.017,0.073-0.061,0.066-0.123c-0.036-0.326-0.098-0.648-0.159-0.97c-0.104-0.541-0.252-1.07-0.439-1.588
			c-0.078-0.216-0.169-0.427-0.255-0.643c0.056-0.017,0.094,0.011,0.134,0.025c0.8,0.28,1.558,0.649,2.285,1.082
			c0.65,0.387,1.269,0.821,1.853,1.302c0.076,0.062,0.141,0.083,0.238,0.058c0.296-0.075,0.596-0.135,0.892-0.208
			c0.132-0.033,0.27-0.046,0.409-0.11c-1.612-1.666-3.481-2.911-5.698-3.661c0.453-0.225,0.89-0.212,1.352-0.106
			c-0.191-1.329-0.533-2.596-1.038-3.847c-0.308,0.875-0.723,1.609-1.002,1.776c0.006-0.027,0.009-0.048,0.016-0.069
			c0.225-0.648,0.38-1.312,0.439-1.996c0.025-0.294,0.03-0.588-0.005-0.882c-0.012-0.103-0.048-0.194-0.133-0.27
			c-0.157,0.797-0.584,1.736-0.882,1.943c0.004-0.026,0.004-0.048,0.01-0.069c0.136-0.534,0.243-1.072,0.279-1.624
			c0.031-0.479,0.024-0.955-0.075-1.427c-0.024-0.113-0.088-0.196-0.171-0.3c-0.089,0.755-0.333,1.426-0.764,2.025
			c-0.01-0.037-0.011-0.071-0.004-0.103c0.09-0.442,0.149-0.887,0.177-1.337c0.032-0.502,0.003-0.999-0.103-1.492
			c-0.025-0.118-0.071-0.219-0.143-0.314c-0.411-0.54-0.846-1.06-1.309-1.556c-0.538-0.578-1.107-1.125-1.703-1.643
			c-0.562-0.489-1.147-0.95-1.752-1.385c-0.546-0.393-1.106-0.764-1.681-1.114c-0.546-0.332-1.101-0.647-1.666-0.946
			C33.511,13.487,33.318,13.398,33.122,13.311z M26.307,32.285c-0.044-0.062-0.101-0.076-0.149-0.101
			c-0.514-0.266-1.036-0.513-1.567-0.741c-1.016-0.437-2.036-0.863-3.056-1.29c-0.76-0.318-1.496-0.683-2.212-1.09
			c-0.734-0.418-1.446-0.874-2.135-1.363c-0.517-0.367-1.021-0.751-1.51-1.153c-0.429-0.353-0.846-0.72-1.251-1.102
			c-0.753-0.71-1.461-1.462-2.104-2.274c-0.04-0.051-0.077-0.105-0.16-0.159c0.035,0.245,0.069,0.462,0.101,0.679
			c0.082,0.566,0.207,1.125,0.331,1.684c0.199,0.901,0.435,1.792,0.7,2.675c0.193,0.644,0.404,1.282,0.63,1.915
			c0.282,0.791,0.593,1.57,0.928,2.34c0.27,0.622,0.557,1.236,0.861,1.842c0.35,0.695,0.717,1.381,1.108,2.054
			c0.282,0.486,0.572,0.966,0.874,1.439c0.287,0.449,0.584,0.893,0.891,1.329c0.092,0.131,0.089,0.134,0.243,0.101
			c0.276-0.06,0.553-0.12,0.829-0.178c0.69-0.145,1.374-0.317,2.062-0.474c0.072-0.016,0.105-0.05,0.121-0.115
			c0.046-0.184,0.115-0.36,0.179-0.537c0.249-0.698,0.567-1.365,0.948-2c0.315-0.526,0.673-1.02,1.071-1.486
			c0.446-0.521,0.938-0.994,1.475-1.42C25.77,32.659,26.031,32.47,26.307,32.285z M48.281,16.992
			c-0.392-0.083-0.753-0.124-1.122-0.084c-0.696,0.075-1.29,0.358-1.79,0.842c-0.365,0.353-0.634,0.772-0.836,1.235
			c-0.286,0.655-0.445,1.337-0.43,2.056c0.002,0.117,0.037,0.215,0.094,0.313c0.124,0.211,0.249,0.421,0.364,0.637
			c0.338,0.633,0.642,1.281,0.904,1.95c0.272,0.694,0.5,1.402,0.69,2.123c0.164,0.624,0.279,1.258,0.387,1.894
			c0.01,0.058,0.02,0.104,0.077,0.135c0.209,0.115,0.417,0.233,0.625,0.352c0.062,0.035,0.091,0.013,0.106-0.05
			c0.007-0.032,0.02-0.064,0.029-0.096c0.113-0.384,0.226-0.767,0.334-1.153c0.234-0.835,0.424-1.68,0.604-2.527
			c0.141-0.663,0.228-1.335,0.33-2.004c0.063-0.412,0.118-0.825,0.172-1.238c0.058-0.441,0.095-0.884,0.139-1.326
			c0.073-0.73,0.129-1.461,0.15-2.195c0.021-0.745,0.051-1.489,0.018-2.235c-0.019-0.416-0.023-0.834-0.051-1.25
			c-0.019-0.288-0.046-0.576-0.082-0.863c-0.015-0.119-0.07-0.172-0.167-0.218c-0.732-0.351-1.477-0.671-2.232-0.969
			c-1.402-0.554-2.836-1.011-4.293-1.397c-1.133-0.3-2.279-0.55-3.433-0.753c-0.831-0.146-1.666-0.274-2.505-0.373
			c-0.773-0.092-1.546-0.171-2.322-0.227c-0.715-0.052-1.431-0.098-2.147-0.117c-1.579-0.043-3.158-0.025-4.734,0.088
			c-0.024,0.002-0.072-0.023-0.074,0.04c0.019,0.007,0.039,0.017,0.06,0.023c0.336,0.097,0.675,0.188,1.009,0.29
			c0.893,0.273,1.776,0.576,2.646,0.915c0.891,0.347,1.767,0.729,2.627,1.149c0.689,0.337,1.369,0.692,2.029,1.085
			c0.096,0.057,0.186,0.073,0.299,0.044c0.393-0.101,0.787-0.192,1.187-0.262c0.824-0.145,1.65-0.225,2.488-0.156
			c0.849,0.07,1.689,0.186,2.518,0.384c1.203,0.287,2.345,0.73,3.413,1.353c0.927,0.542,1.765,1.199,2.478,2.007
			C47.991,16.588,48.143,16.764,48.281,16.992z M38.434,44.017c-0.027-0.002-0.044-0.004-0.06-0.004
			c-0.017,0-0.033,0.002-0.05,0.003c-0.194,0.006-0.343-0.073-0.447-0.238c-0.095-0.151-0.19-0.301-0.268-0.46
			c-0.118-0.239-0.237-0.477-0.356-0.716c-0.209-0.417-0.419-0.834-0.626-1.252c-0.054-0.109-0.052-0.114,0.056-0.153
			c0.2-0.071,0.39-0.16,0.581-0.252c0.484-0.234,0.925-0.531,1.313-0.904c0.414-0.398,0.734-0.864,0.948-1.397
			c0.185-0.462,0.325-0.937,0.279-1.443c-0.04-0.438-0.235-0.77-0.671-0.926c-0.169-0.061-0.342-0.094-0.521-0.103
			c-0.386-0.019-0.765,0.045-1.141,0.119c-0.894,0.174-1.777,0.4-2.666,0.599c-0.715,0.16-1.429,0.327-2.144,0.491
			c-0.406,0.093-0.811,0.191-1.218,0.279c-0.09,0.019-0.14,0.054-0.149,0.146c-0.002,0.027-0.011,0.053-0.018,0.085
			c0.044,0.008,0.082,0.014,0.119,0.023c0.147,0.038,0.191,0.1,0.17,0.255c-0.008,0.06-0.024,0.12-0.041,0.178
			c-0.224,0.773-0.449,1.546-0.675,2.319c-0.224,0.768-0.448,1.535-0.672,2.303c-0.259,0.89-0.52,1.78-0.773,2.672
			c-0.069,0.244-0.212,0.415-0.437,0.514c-0.119,0.053-0.141,0.137-0.147,0.262c0.158-0.035,0.303-0.067,0.447-0.1
			c0.709-0.164,1.418-0.327,2.126-0.493c0.169-0.04,0.169-0.043,0.184-0.235c-0.027-0.004-0.054-0.006-0.081-0.011
			c-0.17-0.037-0.222-0.115-0.191-0.287c0.009-0.049,0.024-0.097,0.038-0.145c0.258-0.896,0.518-1.792,0.774-2.689
			c0.026-0.09,0.061-0.136,0.16-0.158c0.705-0.157,1.408-0.32,2.111-0.488c0.1-0.024,0.136,0.012,0.175,0.093
			c0.326,0.687,0.656,1.372,0.983,2.06c0.043,0.09,0.077,0.185,0.105,0.28c0.056,0.192,0.007,0.303-0.169,0.401
			c-0.029,0.016-0.059,0.033-0.091,0.042c-0.124,0.035-0.145,0.128-0.15,0.246c0.052-0.009,0.09-0.013,0.128-0.022
			c0.963-0.222,1.926-0.446,2.89-0.664C38.386,44.216,38.433,44.148,38.434,44.017z M60.725,31.557
			c-0.146,0.016-0.278-0.009-0.376,0.081c-0.202,0.187-0.43,0.21-0.682,0.137c-0.042-0.012-0.087-0.018-0.13-0.027
			c-0.649-0.14-1.304-0.223-1.97-0.17c-0.713,0.056-1.404,0.222-2.077,0.461c-1.061,0.377-1.989,0.956-2.733,1.811
			c-0.399,0.459-0.695,0.978-0.86,1.564c-0.086,0.305-0.142,0.618-0.081,0.939c0.081,0.426,0.314,0.712,0.741,0.832
			c0.281,0.079,0.565,0.115,0.857,0.098c0.5-0.028,0.995-0.103,1.491-0.163c0.491-0.06,0.98-0.138,1.473-0.173
			c0.155-0.011,0.311-0.02,0.465,0.014c0.251,0.055,0.345,0.199,0.294,0.448c-0.057,0.278-0.222,0.494-0.406,0.697
			c-0.288,0.318-0.642,0.548-1.025,0.732c-0.801,0.383-1.645,0.57-2.535,0.529c-0.362-0.017-0.721-0.059-1.056-0.211
			c-0.33-0.149-0.402-0.28-0.35-0.636c0.006-0.041,0-0.063-0.037-0.077c-0.069-0.027-0.121-0.027-0.166,0.051
			c-0.075,0.13-0.163,0.252-0.246,0.376c-0.394,0.592-0.789,1.183-1.183,1.776c-0.026,0.039-0.066,0.075-0.061,0.129
			c0.128,0.059,0.135,0.066,0.219-0.013c0.137-0.128,0.286-0.157,0.46-0.1c0.053,0.017,0.109,0.024,0.162,0.04
			c0.909,0.277,1.831,0.279,2.756,0.119c0.714-0.123,1.402-0.339,2.066-0.63c0.975-0.427,1.855-0.98,2.524-1.829
			c0.362-0.459,0.64-0.96,0.788-1.529c0.05-0.195,0.076-0.393,0.068-0.594c-0.026-0.62-0.313-1-0.913-1.151
			c-0.345-0.087-0.693-0.097-1.043-0.073c-0.593,0.041-1.182,0.129-1.771,0.205c-0.386,0.05-0.77,0.112-1.161,0.117
			c-0.09,0.001-0.178-0.007-0.264-0.032c-0.193-0.056-0.283-0.191-0.254-0.389c0.03-0.204,0.126-0.38,0.253-0.536
			c0.282-0.346,0.635-0.6,1.042-0.784c0.29-0.131,0.588-0.235,0.893-0.319c0.623-0.171,1.254-0.24,1.898-0.148
			c0.285,0.041,0.546,0.147,0.796,0.285c0.144,0.079,0.271,0.228,0.201,0.393c-0.02,0.046-0.025,0.081,0.036,0.104
			c0.051,0.02,0.092,0.035,0.129-0.022c0.018-0.028,0.043-0.051,0.063-0.078c0.446-0.582,0.894-1.163,1.337-1.749
			C60.477,31.905,60.61,31.756,60.725,31.557z M8.553,50.34c0.132,0.062,0.139,0.069,0.234-0.019
			c0.138-0.128,0.286-0.152,0.461-0.097c0.153,0.048,0.309,0.093,0.466,0.128c0.775,0.175,1.555,0.174,2.336,0.052
			c0.573-0.089,1.128-0.245,1.671-0.446c0.812-0.302,1.58-0.685,2.251-1.241c0.68-0.564,1.205-1.243,1.494-2.087
			c0.117-0.341,0.171-0.689,0.114-1.05c-0.063-0.398-0.267-0.687-0.643-0.847c-0.255-0.108-0.523-0.147-0.797-0.156
			c-0.457-0.015-0.911,0.028-1.363,0.086c-0.507,0.065-1.013,0.138-1.52,0.199c-0.237,0.028-0.476,0.055-0.715,0.023
			c-0.285-0.038-0.407-0.222-0.327-0.496c0.049-0.167,0.13-0.319,0.24-0.454c0.265-0.325,0.595-0.568,0.971-0.745
			c0.619-0.29,1.271-0.468,1.953-0.528c0.384-0.034,0.768-0.026,1.141,0.083c0.229,0.067,0.454,0.15,0.647,0.298
			c0.107,0.082,0.158,0.184,0.114,0.32c-0.014,0.043-0.027,0.083,0.032,0.109c0.058,0.026,0.103,0.029,0.14-0.033
			c0.023-0.038,0.055-0.07,0.08-0.106c0.417-0.583,0.834-1.166,1.25-1.75c0.085-0.12,0.167-0.242,0.252-0.366
			c-0.141-0.06-0.145-0.065-0.232,0.01c-0.16,0.137-0.334,0.187-0.541,0.131c-0.112-0.03-0.228-0.045-0.343-0.069
			c-0.321-0.066-0.645-0.117-0.972-0.145c-0.654-0.055-1.296,0.016-1.935,0.161c-0.637,0.145-1.252,0.347-1.837,0.635
			c-0.618,0.304-1.174,0.695-1.662,1.185c-0.494,0.496-0.876,1.063-1.092,1.731c-0.122,0.378-0.198,0.766-0.094,1.164
			c0.091,0.347,0.301,0.584,0.645,0.705c0.376,0.132,0.762,0.152,1.152,0.108c0.563-0.063,1.125-0.136,1.688-0.203
			c0.425-0.051,0.848-0.118,1.278-0.119c0.089,0,0.177-0.002,0.265,0.022c0.238,0.066,0.318,0.194,0.27,0.434
			c-0.031,0.155-0.098,0.294-0.186,0.424c-0.298,0.442-0.713,0.743-1.181,0.978c-0.88,0.442-1.813,0.622-2.794,0.545
			c-0.334-0.026-0.662-0.079-0.961-0.244c-0.237-0.131-0.311-0.285-0.258-0.551c0.01-0.051,0.033-0.094-0.042-0.116
			c-0.06-0.018-0.102-0.023-0.139,0.042c-0.047,0.082-0.105,0.157-0.158,0.235c-0.42,0.628-0.84,1.256-1.259,1.885
			C8.61,50.22,8.564,50.271,8.553,50.34z M29.896,38.039c-0.048-0.018-0.09,0.004-0.131,0.013c-0.547,0.123-1.094,0.248-1.641,0.373
			c-0.233,0.053-0.465,0.107-0.697,0.163c-0.086,0.021-0.138,0.088-0.136,0.181c0.002,0.087,0.08,0.056,0.126,0.069
			c0.138,0.039,0.182,0.098,0.158,0.243c-0.01,0.06-0.028,0.119-0.045,0.177c-0.204,0.704-0.408,1.408-0.613,2.111
			c-0.261,0.895-0.514,1.793-0.783,2.686c-0.235,0.782-0.684,1.387-1.389,1.801c-0.726,0.426-1.518,0.651-2.347,0.754
			c-0.254,0.031-0.512,0.038-0.763-0.028c-0.392-0.103-0.595-0.317-0.594-0.694c0-0.225,0.041-0.443,0.096-0.658
			c0.187-0.726,0.407-1.442,0.615-2.162c0.259-0.896,0.521-1.791,0.775-2.689c0.072-0.252,0.214-0.433,0.451-0.545
			c0.131-0.062,0.14-0.089,0.122-0.252c-0.422,0.098-0.844,0.196-1.265,0.293c-0.422,0.098-0.844,0.197-1.266,0.292
			c-0.179,0.04-0.176,0.004-0.206,0.236c0.026,0.005,0.053,0.009,0.08,0.015c0.185,0.045,0.226,0.108,0.189,0.3
			c-0.014,0.071-0.033,0.141-0.053,0.21c-0.232,0.8-0.464,1.6-0.696,2.399c-0.227,0.784-0.457,1.567-0.681,2.352
			c-0.133,0.466-0.236,0.939-0.216,1.428c0.022,0.531,0.249,0.816,0.699,0.992c0.103,0.04,0.213,0.065,0.321,0.087
			c0.56,0.115,1.118,0.059,1.675-0.02c0.739-0.105,1.46-0.287,2.167-0.524c0.858-0.287,1.671-0.666,2.381-1.241
			c0.317-0.257,0.598-0.548,0.833-0.882c0.326-0.463,0.563-0.971,0.732-1.508c0.166-0.524,0.313-1.054,0.467-1.582
			c0.349-1.2,0.7-2.398,1.041-3.6c0.072-0.254,0.21-0.439,0.445-0.549C29.856,38.233,29.905,38.159,29.896,38.039z M41.643,35.5
			c0.014,0.006,0.028,0.014,0.043,0.017c0.233,0.056,0.273,0.121,0.216,0.351c-0.004,0.016-0.01,0.032-0.015,0.048
			c-0.276,0.96-0.552,1.921-0.829,2.881c-0.211,0.731-0.429,1.46-0.631,2.193c-0.117,0.424-0.193,0.858-0.156,1.301
			c0.034,0.418,0.236,0.721,0.632,0.882c0.26,0.106,0.532,0.159,0.811,0.172c0.452,0.021,0.899-0.019,1.345-0.095
			c1.205-0.207,2.374-0.528,3.462-1.1c0.575-0.302,1.096-0.677,1.531-1.165c0.502-0.563,0.822-1.227,1.044-1.937
			c0.258-0.827,0.488-1.663,0.729-2.495c0.255-0.88,0.513-1.759,0.763-2.641c0.07-0.247,0.209-0.429,0.441-0.531
			c0.115-0.05,0.152-0.129,0.151-0.241c-0.045-0.022-0.081-0.003-0.117,0.005c-0.39,0.088-0.78,0.175-1.17,0.264
			c-0.39,0.089-0.779,0.18-1.169,0.27c-0.102,0.024-0.154,0.084-0.148,0.183c0.004,0.083,0.081,0.056,0.128,0.071
			c0.124,0.04,0.164,0.088,0.152,0.22c-0.006,0.071-0.023,0.143-0.043,0.212c-0.287,0.986-0.575,1.972-0.862,2.959
			c-0.16,0.549-0.317,1.099-0.479,1.648c-0.096,0.325-0.21,0.645-0.379,0.941c-0.254,0.446-0.623,0.778-1.062,1.036
			c-0.775,0.457-1.62,0.691-2.512,0.768c-0.223,0.019-0.445,0.008-0.662-0.053c-0.386-0.109-0.566-0.371-0.534-0.771
			c0.022-0.272,0.077-0.539,0.153-0.801c0.272-0.945,0.546-1.888,0.819-2.833c0.17-0.587,0.343-1.172,0.506-1.761
			c0.073-0.264,0.22-0.455,0.467-0.572c0.122-0.058,0.138-0.098,0.118-0.245c-0.855,0.197-1.71,0.394-2.565,0.593
			C41.665,35.311,41.666,35.314,41.643,35.5z M19.181,21.523c-0.205,1.001-0.002,1.932,0.23,2.873
			c-0.138,0.001-0.253-0.039-0.367-0.076c-0.849-0.272-1.589-0.732-2.254-1.326c0.238,1.008,0.867,1.779,1.55,2.55
			c-0.239,0.016-0.447-0.004-0.653-0.035c-0.209-0.031-0.413-0.086-0.614-0.152c-0.197-0.064-0.37-0.18-0.584-0.282
			c0.52,0.947,1.235,1.626,2.218,2.039c0.006-0.201,0.008-0.382,0.038-0.563c0.072-0.438,0.246-0.827,0.523-1.173
			c0.341-0.425,0.775-0.73,1.253-0.976c0.677-0.349,1.401-0.563,2.143-0.714c0.823-0.167,1.656-0.264,2.495-0.313
			c1.091-0.063,2.178-0.008,3.266,0.062c0.754,0.048,1.507,0.123,2.26,0.186c0.047,0.004,0.096,0.019,0.153-0.011
			c-0.077-0.176-0.185-0.324-0.299-0.464c-0.385-0.472-0.852-0.842-1.4-1.109c-0.118-0.058-0.12-0.06-0.197,0.039
			c-0.231,0.298-0.513,0.539-0.823,0.749c-0.207,0.14-0.423,0.266-0.653,0.367c-0.057,0.025-0.092,0.027-0.113-0.039
			c-0.01-0.031-0.028-0.06-0.043-0.09c-0.197-0.382-0.429-0.74-0.736-1.045c-0.158-0.156-0.331-0.293-0.534-0.391
			c-0.017,0.026-0.031,0.044-0.04,0.063c-0.226,0.514-0.576,0.934-0.995,1.3c-0.228,0.2-0.171,0.181-0.335-0.037
			c-0.512-0.681-1.098-1.284-1.817-1.748c-0.195-0.126-0.398-0.24-0.616-0.323c-0.01,0.018-0.018,0.026-0.019,0.036
			c-0.011,0.116-0.022,0.233-0.031,0.349c-0.055,0.691-0.219,1.359-0.422,2.019c-0.037,0.121-0.042,0.122-0.159,0.069
			c-0.32-0.144-0.627-0.312-0.922-0.501c-0.413-0.264-0.799-0.562-1.138-0.919C19.426,21.815,19.33,21.672,19.181,21.523z
			 M21.755,20.265c0.028,0,0.04-0.003,0.05,0c0.166,0.063,0.334,0.121,0.498,0.19c0.949,0.403,1.786,0.965,2.471,1.742
			c0.082,0.093,0.082,0.09,0.186,0.019c0.372-0.256,0.602-0.616,0.759-1.03c0.023-0.06,0.027-0.131,0.081-0.177
			c0.334,0.126,0.837,0.504,1.083,0.742c0.245,0.237,0.461,0.497,0.642,0.785c0.045,0.072,0.081,0.085,0.157,0.043
			c0.319-0.175,0.616-0.377,0.858-0.652c0.131-0.148,0.131-0.149-0.056-0.227c-0.893-0.37-1.798-0.708-2.723-0.987
			c-1.119-0.338-2.254-0.597-3.416-0.738c-1.115-0.135-2.228-0.159-3.34,0.013c-0.611,0.094-1.208,0.247-1.774,0.502
			c-0.568,0.255-1.087,0.583-1.484,1.075c-0.58,0.717-0.724,1.505-0.381,2.372c0.028,0.07,0.068,0.123,0.127,0.17
			c0.421,0.331,0.901,0.545,1.405,0.71c0.071,0.023,0.146,0.057,0.245,0.034c-0.56-0.936-0.923-1.93-0.979-3.029
			c0.336,0.368,0.707,0.69,1.121,0.959c0.414,0.269,0.851,0.489,1.349,0.625c-0.047-0.518-0.056-1.011-0.019-1.504
			c0.038-0.497,0.123-0.985,0.259-1.483c0.031,0.035,0.046,0.051,0.059,0.069c0.34,0.471,0.735,0.891,1.19,1.252
			c0.336,0.267,0.693,0.502,1.084,0.68c0.109,0.05,0.113,0.049,0.164-0.053c0.104-0.209,0.189-0.425,0.244-0.654
			C21.73,21.24,21.778,20.761,21.755,20.265z M15.32,39.856c-0.016-0.084-0.054-0.133-0.085-0.185
			c-0.117-0.202-0.237-0.402-0.352-0.605c-0.545-0.962-1.104-1.915-1.721-2.833c-0.428-0.637-0.886-1.252-1.391-1.83
			c-0.505-0.578-1.049-1.117-1.648-1.601c-0.455-0.367-0.929-0.706-1.432-1.002c-0.028-0.017-0.056-0.062-0.101-0.017
			c0.012,0.024,0.024,0.049,0.038,0.073c0.292,0.493,0.538,1.009,0.746,1.543c0.409,1.052,0.684,2.135,0.766,3.264
			c0.008,0.11,0.05,0.164,0.148,0.211c0.755,0.362,1.346,0.915,1.823,1.596c0.408,0.583,0.698,1.223,0.93,1.893
			c0.014,0.04,0.014,0.088,0.071,0.117C13.814,40.188,14.56,40.02,15.32,39.856z M6.764,43.501c0.235,0.057,0.288,0.141,0.241,0.372
			C7,43.894,6.996,43.916,6.99,43.937c-0.186,0.64-0.374,1.279-0.559,1.919c-0.332,1.147-0.664,2.294-0.996,3.441
			c-0.19,0.656-0.38,1.312-0.57,1.968c-0.07,0.241-0.209,0.426-0.434,0.544c-0.1,0.053-0.14,0.115-0.166,0.26
			c0.024-0.004,0.045-0.008,0.066-0.012c0.688-0.158,1.375-0.315,2.063-0.473c0.168-0.039,0.334-0.082,0.502-0.123
			c0.094-0.023,0.14-0.076,0.14-0.171c0.001-0.094-0.08-0.055-0.124-0.068c-0.125-0.039-0.166-0.088-0.158-0.217
			c0.003-0.05,0.014-0.099,0.027-0.147c0.038-0.145,0.077-0.29,0.119-0.434c0.368-1.269,0.737-2.539,1.105-3.808
			c0.297-1.024,0.597-2.048,0.886-3.074c0.077-0.273,0.236-0.458,0.481-0.584c0.112-0.058,0.127-0.096,0.109-0.236
			c-0.833,0.193-1.666,0.389-2.5,0.577C6.862,43.324,6.784,43.366,6.764,43.501z M36.671,51.046
			c0.038,0.022,0.076,0.004,0.113-0.004c0.276-0.062,0.553-0.124,0.829-0.188c0.124-0.029,0.247-0.064,0.372-0.09
			c0.048-0.01,0.066-0.039,0.071-0.079c0.006-0.047-0.035-0.05-0.066-0.056c-0.089-0.018-0.096-0.081-0.082-0.153
			c0.007-0.038,0.021-0.075,0.032-0.112c0.232-0.8,0.462-1.6,0.696-2.4c0.032-0.11,0.046-0.227,0.108-0.326
			c0.053,0.014,0.075,0.055,0.104,0.088c0.294,0.333,0.587,0.667,0.881,1.001c0.283,0.321,0.568,0.64,0.851,0.962
			c0.144,0.164,0.138,0.237-0.03,0.367c-0.042,0.033-0.07,0.064-0.065,0.126c0.025-0.002,0.047-0.002,0.068-0.007
			c0.428-0.097,0.856-0.194,1.284-0.292c0.022-0.005,0.043-0.012,0.064-0.018c0.044-0.011,0.064-0.043,0.067-0.085
			c0.004-0.047-0.036-0.048-0.066-0.057c-0.066-0.02-0.084-0.068-0.073-0.13c0.007-0.038,0.017-0.076,0.027-0.113
			c0.365-1.27,0.73-2.541,1.094-3.811c0.043-0.151,0.113-0.277,0.26-0.348c0.055-0.026,0.084-0.063,0.067-0.136
			c-0.317,0.073-0.63,0.145-0.943,0.217c-0.114,0.026-0.227,0.054-0.341,0.077c-0.049,0.01-0.082,0.027-0.091,0.08
			c-0.01,0.063,0.039,0.055,0.072,0.066c0.065,0.022,0.083,0.07,0.07,0.131c-0.011,0.054-0.026,0.108-0.041,0.161
			c-0.212,0.736-0.423,1.473-0.638,2.208c-0.041,0.14-0.064,0.287-0.136,0.42c-0.018-0.012-0.029-0.016-0.036-0.024
			c-0.579-0.66-1.158-1.321-1.735-1.982c-0.127-0.145-0.113-0.25,0.042-0.359c0.046-0.032,0.098-0.055,0.087-0.124
			c-0.021-0.014-0.043-0.012-0.064-0.007c-0.482,0.111-0.963,0.222-1.445,0.333c-0.021,0.005-0.045,0.009-0.063,0.021
			c-0.043,0.029-0.037,0.097,0.014,0.111c0.103,0.027,0.113,0.094,0.092,0.179c-0.015,0.059-0.031,0.118-0.048,0.177
			c-0.134,0.458-0.269,0.917-0.401,1.375c-0.225,0.779-0.45,1.558-0.674,2.337c-0.043,0.149-0.103,0.282-0.258,0.347
			C36.692,50.951,36.658,50.985,36.671,51.046z M44.734,15.567c-2.433-1.525-5.068-1.87-7.891-1.369
			c1.441,0.886,2.614,2.041,3.856,3.137C41.729,16.034,43.068,15.436,44.734,15.567z M20.55,53.236
			c-0.037,0.201-0.114,0.39-0.166,0.586c-0.011,0.042-0.051,0.056-0.084,0.076c-0.476,0.296-0.986,0.508-1.536,0.623
			c-0.197,0.041-0.396,0.06-0.597,0.041c-0.459-0.042-0.739-0.352-0.73-0.811c0.006-0.301,0.094-0.584,0.232-0.845
			c0.459-0.871,1.176-1.418,2.133-1.646c0.339-0.081,0.684-0.096,1.025-0.008c0.148,0.038,0.314,0.074,0.283,0.297
			c-0.007,0.054,0.049,0.055,0.083,0.028c0.029-0.023,0.048-0.06,0.071-0.092c0.176-0.25,0.353-0.499,0.529-0.749
			c0.085-0.121,0.17-0.243,0.257-0.369c-0.042-0.032-0.077-0.04-0.112-0.01c-0.123,0.104-0.261,0.101-0.41,0.075
			c-0.269-0.047-0.54-0.074-0.813-0.064c-0.471,0.016-0.923,0.13-1.364,0.29c-0.602,0.218-1.144,0.539-1.625,0.962
			c-0.487,0.429-0.877,0.928-1.124,1.531c-0.154,0.378-0.267,0.766-0.25,1.181c0.022,0.526,0.34,0.915,0.85,1.041
			c0.196,0.048,0.395,0.06,0.596,0.053c0.421-0.015,0.825-0.111,1.222-0.245c0.812-0.274,1.548-0.696,2.256-1.171
			c0.018-0.012,0.038-0.025,0.051-0.042c0.033-0.041,0.038-0.072-0.021-0.102c-0.109-0.056-0.116-0.076-0.083-0.193
			c0.085-0.299,0.173-0.597,0.258-0.897c0.041-0.145,0.111-0.266,0.256-0.33c0.047-0.021,0.085-0.052,0.065-0.12
			c-0.021,0-0.043-0.004-0.064,0.001c-0.65,0.149-1.299,0.299-1.949,0.447c-0.086,0.02-0.171,0.05-0.261,0.053
			c-0.057,0.002-0.097-0.015-0.112-0.075c-0.008-0.029,0.004-0.068-0.036-0.083c-0.05,0.003-0.083,0.022-0.098,0.073
			c-0.095,0.334-0.192,0.668-0.289,1.003c0.084,0.032,0.111-0.017,0.14-0.065c0.073-0.121,0.18-0.191,0.319-0.222
			c0.32-0.071,0.639-0.146,0.958-0.219C20.453,53.233,20.495,53.213,20.55,53.236z M47.426,47.025
			c-0.055,0.194-0.105,0.357-0.146,0.523c-0.019,0.076-0.061,0.124-0.125,0.166c-0.473,0.305-0.988,0.506-1.535,0.626
			c-0.228,0.05-0.462,0.067-0.696,0.02c-0.316-0.064-0.541-0.278-0.603-0.592c-0.023-0.115-0.02-0.233-0.004-0.349
			c0.049-0.359,0.177-0.691,0.381-0.987c0.541-0.785,1.274-1.276,2.23-1.402c0.277-0.037,0.556-0.036,0.826,0.052
			c0.12,0.039,0.255,0.08,0.222,0.258c-0.006,0.032,0.009,0.054,0.039,0.064c0.032,0.011,0.052-0.007,0.07-0.031
			c0.01-0.013,0.02-0.027,0.029-0.041c0.233-0.332,0.467-0.663,0.699-0.996c0.037-0.053,0.082-0.103,0.093-0.168
			c-0.054-0.04-0.089-0.007-0.125,0.019c-0.075,0.055-0.157,0.083-0.25,0.073c-0.077-0.008-0.155-0.017-0.231-0.03
			c-0.314-0.052-0.632-0.081-0.947-0.037c-0.844,0.118-1.625,0.403-2.325,0.898c-0.672,0.475-1.21,1.063-1.539,1.825
			c-0.164,0.379-0.279,0.775-0.272,1.194c0.008,0.513,0.314,0.92,0.789,1.057c0.177,0.051,0.359,0.078,0.543,0.075
			c0.375-0.006,0.741-0.067,1.1-0.172c0.901-0.263,1.706-0.72,2.48-1.238c0.027-0.018,0.056-0.039,0.074-0.065
			c0.017-0.025,0.029-0.056-0.012-0.083c-0.131-0.087-0.133-0.092-0.093-0.233c0.079-0.278,0.169-0.552,0.241-0.832
			c0.04-0.155,0.106-0.278,0.251-0.353c0.048-0.025,0.097-0.055,0.065-0.138c-0.196,0.044-0.39,0.088-0.584,0.132
			c-0.536,0.124-1.071,0.249-1.607,0.371c-0.129,0.029-0.132,0.025-0.181-0.1c-0.011-0.028-0.015-0.052-0.051-0.05
			c-0.028,0.002-0.057,0.008-0.071,0.035c-0.01,0.019-0.014,0.042-0.02,0.063c-0.086,0.293-0.172,0.586-0.256,0.88
			c-0.01,0.035-0.033,0.072-0.007,0.111c0.073,0.02,0.097-0.034,0.126-0.08c0.065-0.102,0.152-0.177,0.273-0.205
			C46.649,47.202,47.022,47.117,47.426,47.025z M26.387,49.092c-0.021-0.002-0.032-0.007-0.042-0.004
			c-0.504,0.113-1.007,0.227-1.511,0.341c-0.016,0.004-0.032,0.008-0.048,0.015c-0.081,0.036-0.09,0.093-0.012,0.138
			c0.09,0.051,0.092,0.117,0.057,0.197c-0.025,0.055-0.051,0.111-0.086,0.161c-0.41,0.594-0.821,1.188-1.232,1.781
			c-0.313,0.452-0.625,0.904-0.939,1.356c-0.244,0.351-0.487,0.703-0.734,1.053c-0.093,0.132-0.199,0.255-0.355,0.319
			c-0.026,0.011-0.051,0.025-0.06,0.053c-0.009,0.031-0.02,0.069,0.035,0.067c0.022-0.001,0.044-0.006,0.066-0.011
			c0.432-0.1,0.865-0.201,1.297-0.302c0.038-0.009,0.075-0.019,0.112-0.032c0.029-0.01,0.039-0.039,0.044-0.066
			c0.007-0.04-0.027-0.039-0.051-0.05c-0.12-0.054-0.134-0.082-0.082-0.2c0.029-0.066,0.066-0.129,0.107-0.188
			c0.138-0.202,0.286-0.397,0.417-0.603c0.06-0.094,0.135-0.136,0.237-0.158c0.298-0.064,0.596-0.134,0.894-0.202
			c0.325-0.074,0.649-0.15,0.974-0.223c0.051-0.012,0.11-0.039,0.128,0.05c0.04,0.19,0.087,0.379,0.125,0.569
			c0.025,0.127-0.025,0.229-0.127,0.305c-0.04,0.029-0.086,0.05-0.129,0.076c-0.042,0.025-0.063,0.059-0.046,0.101
			c0.019,0.023,0.037,0.017,0.052,0.013c0.519-0.119,1.039-0.239,1.558-0.359c0.027-0.006,0.053-0.016,0.078-0.028
			c0.027-0.013,0.038-0.04,0.039-0.069c0.002-0.04-0.031-0.039-0.057-0.044c-0.082-0.016-0.146-0.055-0.174-0.137
			c-0.022-0.063-0.046-0.126-0.061-0.19c-0.112-0.475-0.221-0.951-0.333-1.427c-0.133-0.567-0.266-1.135-0.405-1.701
			c-0.051-0.209-0.011-0.373,0.189-0.48C26.358,49.19,26.401,49.163,26.387,49.092z M29.175,33.309
			c-0.255-0.234-0.508-0.431-0.766-0.622c-0.043-0.032-0.081-0.022-0.123,0c-0.117,0.063-0.237,0.123-0.353,0.186
			c-0.572,0.312-1.109,0.676-1.61,1.093c-0.682,0.568-1.282,1.213-1.801,1.934c-0.456,0.633-0.837,1.309-1.157,2.019
			c-0.017,0.037-0.028,0.076-0.043,0.118c0.187,0,0.305-0.072,0.399-0.216c0.209-0.321,0.448-0.622,0.695-0.915
			c0.496-0.587,1.039-1.126,1.631-1.617c0.622-0.515,1.283-0.972,1.981-1.376C28.393,33.702,28.765,33.503,29.175,33.309z
			 M34.37,51.584c0.014,0.003,0.025,0.009,0.034,0.007c0.438-0.101,0.877-0.202,1.315-0.303c0.037-0.009,0.08-0.012,0.101-0.05
			c0.015-0.028,0.03-0.058-0.011-0.085c-0.142-0.094-0.142-0.096-0.101-0.24c0.075-0.262,0.15-0.523,0.226-0.784
			c0.297-1.018,0.596-2.035,0.888-3.055c0.043-0.149,0.107-0.266,0.245-0.338c0.047-0.025,0.086-0.052,0.068-0.116
			c-0.031-0.019-0.065-0.005-0.095,0.002c-0.422,0.097-0.844,0.194-1.266,0.292c-0.011,0.002-0.022,0.004-0.033,0.006
			c-0.047,0.008-0.062,0.045-0.067,0.084c-0.006,0.05,0.037,0.044,0.067,0.051c0.083,0.021,0.103,0.076,0.083,0.153
			c-0.011,0.043-0.023,0.086-0.035,0.129c-0.197,0.677-0.395,1.353-0.592,2.03c-0.172,0.592-0.347,1.183-0.516,1.775
			c-0.04,0.141-0.101,0.257-0.243,0.316C34.379,51.481,34.348,51.52,34.37,51.584z M13.063,33.946
			c-0.003-0.002-0.007-0.006-0.009-0.005c-0.004,0.002-0.011,0.008-0.01,0.01c0.005,0.014,0.013,0.016,0.02,0.006
			C13.064,33.955,13.063,33.95,13.063,33.946z"/>
		<path fill="#0055DB" d="M31.314,7.159c-0.377-0.001-0.755-0.003-1.132-0.004c-0.194-0.001-0.388,0-0.582-0.001
			c0,0-0.012-0.005-0.012-0.005l0.005-0.013c0.578,0,1.157,0,1.735,0C31.329,7.148,31.325,7.155,31.314,7.159z"/>
		<path fill="#FBFBFB" d="M29.592,7.137L29.588,7.15c0,0,0.012,0.005,0.012,0.005c-0.258-0.002-0.517,0.024-0.775,0.009
			c0-0.009,0-0.018,0-0.027C29.081,7.137,29.336,7.137,29.592,7.137z"/>
		<path fill="#FBFBFB" d="M31.314,7.159c0.011-0.004,0.015-0.011,0.013-0.022c0.222,0,0.445,0,0.667,0c0,0.01,0,0.02,0,0.029
			C31.768,7.164,31.541,7.161,31.314,7.159z"/>
		<path fill="#020202" d="M17.325,56.839c0.218-0.015,0.436-0.016,0.654,0c0.001,0.008,0.001,0.016-0.001,0.024
			c-0.211,0-0.423,0-0.634,0C17.331,56.861,17.324,56.853,17.325,56.839z"/>
		<path fill="#0055DB" d="M17.978,56.863c0.002-0.008,0.003-0.016,0.001-0.024c0.061-0.001,0.122-0.003,0.183-0.004
			c0.011,0.018,0.028,0.028,0.049,0.028C18.134,56.863,18.056,56.863,17.978,56.863z"/>
		<path fill="#FBFBFB" d="M17.325,56.839c-0.001,0.014,0.005,0.022,0.019,0.024c-0.067,0-0.133,0-0.2,0c0-0.009,0-0.019,0-0.028
			C17.204,56.836,17.265,56.838,17.325,56.839z"/>
		<path fill="#FDFDFD" d="M37.933,30.467c0.056-0.022,0.108,0.002,0.161,0.014c0.663,0.149,1.296,0.381,1.892,0.711
			c0.038,0.021,0.077,0.095,0.138,0.032c-0.018,0.002-0.027,0.01-0.018,0.027c0.001,0.002,0.008,0.002,0.012,0.003
			c0-0.01,0.001-0.02,0.001-0.03c-0.439-0.671-0.924-1.305-1.468-1.896c-0.563-0.612-1.176-1.167-1.839-1.665
			c-0.726-0.545-1.5-1.013-2.318-1.409c-1.054-0.51-2.151-0.896-3.288-1.174c-0.719-0.176-1.445-0.309-2.179-0.398
			c-1.139-0.138-2.282-0.183-3.429-0.13c-1.041,0.048-2.072,0.165-3.086,0.407c-0.427,0.102-0.853,0.215-1.243,0.424
			c-0.355,0.19-0.642,0.46-0.847,0.806c-0.18,0.304-0.14,0.64,0.078,0.919c0.146,0.187,0.324,0.335,0.518,0.467
			c0.517,0.352,1.086,0.605,1.658,0.85c0.822,0.352,1.659,0.667,2.49,0.997c1.146,0.455,2.284,0.931,3.383,1.492
			c0.977,0.499,1.916,1.06,2.776,1.744c0.647,0.515,1.232,1.091,1.721,1.76c0.26,0.355,0.488,0.73,0.673,1.13
			c0.011,0.024,0.019,0.05,0.031,0.083c-0.156,0.059-0.315,0.082-0.47,0.12c-0.264,0.064-0.53,0.122-0.795,0.185
			c-0.079,0.019-0.129,0.007-0.171-0.076c-0.517-1.004-1.246-1.833-2.113-2.549c-0.546-0.451-1.134-0.839-1.731-1.216
			c-0.616-0.388-1.248-0.749-1.889-1.094c-0.509-0.273-1.026-0.532-1.549-0.777c-0.639-0.299-1.282-0.588-1.94-0.842
			c-0.368-0.142-0.742-0.267-1.098-0.44c-0.681-0.331-1.298-0.752-1.813-1.31c-0.24-0.26-0.429-0.554-0.511-0.905
			c-0.103-0.445,0.023-0.822,0.353-1.135c0.415-0.395,0.916-0.642,1.445-0.841c0.574-0.216,1.168-0.355,1.771-0.461
			c0.614-0.108,1.233-0.167,1.854-0.21c0.872-0.059,1.745-0.059,2.617-0.018c0.9,0.042,1.796,0.12,2.689,0.248
			c0.782,0.113,1.557,0.251,2.324,0.443c0.507,0.127,1.007,0.275,1.494,0.465c0.014,0.005,0.032,0.016,0.055-0.017
			c-0.076-0.153-0.153-0.316-0.237-0.476c-0.398-0.752-0.847-1.473-1.347-2.163c-0.8-1.102-1.71-2.104-2.712-3.024
			c-0.841-0.772-1.736-1.475-2.679-2.117c-1.109-0.755-2.272-1.415-3.485-1.987c-1.344-0.634-2.732-1.152-4.169-1.532
			c-0.871-0.231-1.754-0.405-2.649-0.511c-0.07-0.008-0.139-0.021-0.237-0.007c0.06,0.048,0.101,0.082,0.144,0.114
			c0.877,0.636,1.587,1.421,2.122,2.364c0.015,0.027,0.021,0.065,0.058,0.076l0.001,0.001c-0.047,0.049-0.08,0.004-0.114-0.019
			c-0.208-0.139-0.413-0.282-0.622-0.418c-1.122-0.724-2.314-1.293-3.608-1.64c-0.847-0.227-1.708-0.345-2.587-0.314
			c-0.222,0.008-0.443,0.038-0.663,0.062c-0.093,0.01-0.116,0.052-0.117,0.14c-0.009,0.579,0.016,1.155,0.082,1.73
			c0.096,0.845,0.243,1.681,0.455,2.505c0.227,0.883,0.516,1.745,0.87,2.585c0.322,0.763,0.7,1.498,1.118,2.212
			c0.056,0.096,0.129,0.181,0.171,0.286c-0.008,0.008-0.016,0.016-0.025,0.024c-0.169-0.154-0.294-0.346-0.429-0.527
			c-0.343-0.459-0.658-0.937-0.944-1.433c-0.442-0.767-0.818-1.564-1.125-2.394c-0.248-0.668-0.447-1.349-0.606-2.043
			c-0.113-0.493-0.193-0.993-0.257-1.494c-0.082-0.641-0.098-1.285-0.072-1.931c0.009-0.217,0.035-0.432,0.065-0.647
			c0.01-0.076,0.044-0.118,0.111-0.15c0.291-0.14,0.589-0.261,0.896-0.359c1.173-0.377,2.38-0.536,3.609-0.58
			c1.003-0.036,2.002,0.013,2.997,0.118c0.845,0.089,1.684,0.229,2.517,0.402c1.285,0.266,2.549,0.609,3.797,1.013
			c1.359,0.44,2.691,0.949,4.005,1.508c1.166,0.496,2.312,1.034,3.443,1.603c0.873,0.439,1.736,0.9,2.589,1.376
			c0.786,0.439,1.564,0.891,2.337,1.351c-0.01,0.015-0.019,0.031-0.029,0.046c-0.539-0.174-1.085-0.324-1.638-0.45
			c-1.13-0.257-2.271-0.425-3.433-0.412c-0.406,0.004-0.81,0.034-1.212,0.096c-0.05,0.008-0.099,0.016-0.152,0.047
			c0.143,0.059,0.289,0.08,0.43,0.116c0.448,0.111,0.885,0.255,1.318,0.413c0.695,0.253,1.366,0.56,2.018,0.908
			c0.637,0.34,1.253,0.716,1.848,1.126c0.729,0.501,1.424,1.045,2.084,1.633c0.714,0.637,1.385,1.317,1.998,2.052
			c0.441,0.53,0.852,1.082,1.203,1.677c0.022,0.038,0.04,0.079,0.06,0.118c-0.013,0.011-0.025,0.021-0.038,0.032
			c-0.469-0.375-0.951-0.73-1.462-1.045c-0.801-0.494-1.639-0.911-2.534-1.211c-0.232-0.078-0.464-0.152-0.702-0.211
			c-0.056-0.014-0.113-0.036-0.17-0.021c-0.013,0.046,0.019,0.055,0.039,0.07c0.42,0.303,0.812,0.639,1.178,1.004
			c0.397,0.397,0.762,0.824,1.098,1.274c0.316,0.423,0.604,0.865,0.867,1.323c0.493,0.86,0.887,1.764,1.19,2.709
			c0.353,1.1,0.555,2.229,0.638,3.38c0.019,0.26,0.016,0.259-0.24,0.317c-0.379,0.086-0.757,0.177-1.136,0.26
			c-0.206,0.045-0.167,0.042-0.213-0.125c-0.12-0.434-0.263-0.86-0.441-1.273c-0.273-0.636-0.61-1.234-1.07-1.756
			c-0.143-0.163-0.296-0.316-0.464-0.454c-0.028-0.023-0.072-0.035-0.07-0.084L37.933,30.467z M36.514,23.793
			c-0.008,0.004-0.023,0.007-0.024,0.012c-0.002,0.019,0.016,0.02,0.028,0.021c0.005,0.001,0.013-0.01,0.019-0.016
			C36.529,23.805,36.522,23.799,36.514,23.793z"/>
		<path fill="#FDFDFD" d="M40.731,21.235c-0.219-0.296-0.479-0.556-0.74-0.813c-0.746-0.736-1.559-1.392-2.408-2.003
			c-0.93-0.669-1.896-1.281-2.891-1.85c-0.69-0.395-1.39-0.77-2.099-1.129c-0.585-0.295-1.177-0.575-1.774-0.847
			c-0.723-0.329-1.453-0.642-2.188-0.941c-1.158-0.471-2.33-0.903-3.524-1.273c-1.322-0.41-2.661-0.755-4.02-1.018
			c-0.84-0.163-1.686-0.292-2.537-0.391c-1.289-0.151-2.582-0.214-3.879-0.183c-1.04,0.025-2.076,0.099-3.104,0.273
			c-0.098,0.017-0.198,0.028-0.324,0.046c0.152-0.123,0.308-0.188,0.459-0.26c0.911-0.431,1.874-0.691,2.861-0.87
			c0.866-0.156,1.74-0.235,2.618-0.277c0.578-0.027,1.156-0.032,1.734-0.016c0.745,0.021,1.487,0.079,2.229,0.148
			c0.826,0.077,1.645,0.197,2.46,0.342c1.27,0.224,2.524,0.516,3.762,0.882c0.309,0.091,0.617,0.186,0.924,0.283
			c0.046,0.015,0.091,0.031,0.132,0.067c-0.296-0.014-0.592-0.034-0.889-0.042c-0.299-0.007-0.599-0.008-0.925,0.047
			c0.14,0.068,0.264,0.092,0.383,0.125c0.761,0.211,1.507,0.465,2.246,0.739c0.938,0.348,1.856,0.743,2.752,1.187
			c0.718,0.355,1.414,0.748,2.094,1.171c0.093,0.058,0.171,0.141,0.277,0.179c0.006,0.017,0.016,0.02,0.03,0.006
			c-0.002,0.014,0.003,0.019,0.017,0.015c-0.005-0.006-0.009-0.012-0.014-0.018c0,0,0.003-0.009,0.003-0.009l-0.007-0.005
			c-0.339-0.468-0.726-0.894-1.133-1.304c-0.058-0.058-0.119-0.112-0.179-0.167c0.014-0.006,0.028-0.013,0.041-0.019
			c0.195,0.087,0.389,0.177,0.579,0.277c0.565,0.299,1.12,0.614,1.666,0.946c0.575,0.35,1.135,0.721,1.681,1.114
			c0.605,0.435,1.189,0.896,1.752,1.385c0.596,0.518,1.165,1.065,1.703,1.643c0.463,0.496,0.898,1.016,1.309,1.556
			c0.072,0.095,0.117,0.196,0.143,0.314c0.106,0.493,0.135,0.99,0.103,1.492c-0.028,0.45-0.088,0.896-0.177,1.337
			c-0.007,0.032-0.006,0.065,0.004,0.103c0.431-0.599,0.676-1.27,0.764-2.025c0.082,0.104,0.147,0.187,0.171,0.3
			c0.099,0.472,0.106,0.948,0.075,1.427c-0.036,0.551-0.143,1.09-0.279,1.624c-0.005,0.021-0.006,0.043-0.01,0.069
			c0.298-0.207,0.724-1.146,0.882-1.943c0.085,0.076,0.121,0.167,0.133,0.27c0.035,0.294,0.03,0.588,0.005,0.882
			c-0.059,0.684-0.214,1.348-0.439,1.996c-0.007,0.02-0.01,0.042-0.016,0.069c0.279-0.167,0.694-0.902,1.002-1.776
			c0.505,1.251,0.847,2.518,1.038,3.847c-0.463-0.106-0.899-0.119-1.352,0.106c2.217,0.75,4.086,1.995,5.698,3.661
			c-0.139,0.064-0.277,0.077-0.409,0.11c-0.296,0.073-0.596,0.133-0.892,0.208c-0.097,0.025-0.163,0.004-0.238-0.058
			c-0.585-0.481-1.203-0.915-1.853-1.302c-0.727-0.433-1.485-0.801-2.285-1.082c-0.04-0.014-0.078-0.042-0.134-0.025
			c0.086,0.215,0.177,0.427,0.255,0.643c0.188,0.518,0.335,1.047,0.439,1.588c0.062,0.322,0.123,0.644,0.159,0.97
			c0.007,0.061,0.01,0.105-0.066,0.123c-0.59,0.134-1.179,0.27-1.78,0.407c-0.014-0.239-0.026-0.47-0.042-0.701
			c-0.067-0.985-0.237-1.951-0.516-2.898c-0.151-0.512-0.332-1.013-0.549-1.501c-0.227-0.509-0.497-0.993-0.816-1.45
			c-0.025-0.036-0.06-0.067-0.068-0.136c0.523,0.164,0.983,0.418,1.41,0.742c0.427,0.324,0.792,0.709,1.127,1.153
			c0.024-0.096-0.011-0.162-0.027-0.226c-0.26-1.077-0.678-2.09-1.237-3.045c-0.459-0.784-0.996-1.511-1.595-2.194
			c-0.781-0.889-1.655-1.675-2.609-2.374c-0.287-0.21-0.58-0.412-0.889-0.589c-0.028-0.016-0.059-0.029-0.076-0.064
			c0.051-0.04,0.108-0.026,0.16-0.028c0.708-0.025,1.393,0.1,2.065,0.316c0.557,0.179,1.085,0.423,1.601,0.696
			c0.017,0.011,0.034,0.023,0.051,0.034c0.016,0.019,0.039,0.032,0.051,0.006c0.008-0.018-0.017-0.037-0.035-0.049
			C40.749,21.252,40.74,21.244,40.731,21.235z"/>
		<path fill="#0055DB" d="M26.307,32.285c-0.276,0.185-0.537,0.373-0.79,0.574c-0.537,0.426-1.029,0.898-1.475,1.42
			c-0.399,0.466-0.756,0.96-1.071,1.486c-0.381,0.636-0.699,1.302-0.948,2c-0.063,0.178-0.133,0.354-0.179,0.537
			c-0.016,0.065-0.049,0.098-0.121,0.115c-0.688,0.157-1.372,0.328-2.062,0.474c-0.277,0.058-0.553,0.119-0.829,0.178
			c-0.153,0.033-0.151,0.029-0.243-0.101c-0.308-0.436-0.604-0.88-0.891-1.329c-0.302-0.473-0.593-0.953-0.874-1.439
			c-0.391-0.673-0.758-1.359-1.108-2.054c-0.305-0.606-0.591-1.22-0.861-1.842c-0.334-0.77-0.646-1.549-0.928-2.34
			c-0.226-0.633-0.437-1.271-0.63-1.915c-0.265-0.884-0.501-1.775-0.7-2.675c-0.124-0.559-0.249-1.117-0.331-1.684
			c-0.031-0.216-0.066-0.433-0.101-0.679c0.083,0.053,0.12,0.108,0.16,0.159c0.643,0.812,1.351,1.564,2.104,2.274
			c0.405,0.382,0.822,0.748,1.251,1.102c0.489,0.403,0.993,0.787,1.51,1.153c0.689,0.489,1.401,0.945,2.135,1.363
			c0.715,0.407,1.452,0.773,2.212,1.09c1.02,0.427,2.04,0.853,3.056,1.29c0.531,0.228,1.053,0.476,1.567,0.741
			C26.207,32.209,26.264,32.223,26.307,32.285z"/>
		<path fill="#0055DB" d="M48.281,16.992c-0.138-0.228-0.29-0.404-0.443-0.578c-0.713-0.808-1.55-1.465-2.478-2.007
			c-1.068-0.624-2.21-1.066-3.413-1.353c-0.829-0.198-1.669-0.314-2.518-0.384c-0.838-0.069-1.664,0.011-2.488,0.156
			c-0.4,0.07-0.795,0.162-1.187,0.262c-0.114,0.029-0.203,0.013-0.299-0.044c-0.66-0.392-1.339-0.748-2.029-1.085
			c-0.859-0.42-1.735-0.802-2.627-1.149c-0.87-0.339-1.753-0.642-2.646-0.915c-0.335-0.102-0.673-0.194-1.009-0.29
			c-0.021-0.006-0.04-0.016-0.06-0.023c0.003-0.063,0.05-0.038,0.074-0.04c1.577-0.112,3.155-0.131,4.734-0.088
			c0.716,0.02,1.432,0.065,2.147,0.117c0.776,0.057,1.549,0.136,2.322,0.227c0.839,0.1,1.673,0.227,2.505,0.373
			c1.155,0.203,2.3,0.452,3.433,0.753c1.457,0.386,2.89,0.844,4.293,1.397c0.755,0.298,1.5,0.618,2.232,0.969
			c0.097,0.047,0.152,0.099,0.167,0.218c0.037,0.287,0.064,0.575,0.082,0.863c0.027,0.416,0.032,0.833,0.051,1.25
			c0.034,0.745,0.003,1.49-0.018,2.235c-0.02,0.733-0.076,1.465-0.15,2.195c-0.044,0.442-0.082,0.885-0.139,1.326
			c-0.054,0.413-0.11,0.826-0.172,1.238c-0.102,0.669-0.189,1.341-0.33,2.004c-0.18,0.848-0.37,1.692-0.604,2.527
			c-0.108,0.385-0.221,0.769-0.334,1.153c-0.009,0.032-0.022,0.063-0.029,0.096c-0.014,0.063-0.044,0.085-0.106,0.05
			c-0.208-0.118-0.415-0.237-0.625-0.352c-0.057-0.031-0.067-0.077-0.077-0.135c-0.108-0.635-0.223-1.269-0.387-1.894
			c-0.19-0.721-0.417-1.429-0.69-2.123c-0.262-0.668-0.566-1.317-0.904-1.95c-0.115-0.216-0.24-0.426-0.364-0.637
			c-0.057-0.098-0.092-0.196-0.094-0.313c-0.015-0.719,0.144-1.401,0.43-2.056c0.202-0.463,0.471-0.882,0.836-1.235
			c0.501-0.484,1.094-0.768,1.79-0.842C47.528,16.868,47.889,16.909,48.281,16.992z"/>
		<path fill="#FDFDFD" d="M38.434,44.017c-0.001,0.131-0.048,0.199-0.176,0.228c-0.964,0.218-1.927,0.442-2.89,0.664
			c-0.037,0.009-0.075,0.013-0.128,0.022c0.005-0.119,0.026-0.211,0.15-0.246c0.032-0.009,0.062-0.025,0.091-0.042
			c0.176-0.098,0.225-0.208,0.169-0.401c-0.028-0.096-0.062-0.191-0.105-0.28c-0.326-0.687-0.657-1.372-0.983-2.06
			c-0.038-0.08-0.074-0.117-0.175-0.093c-0.702,0.168-1.406,0.331-2.111,0.488c-0.099,0.022-0.134,0.069-0.16,0.158
			c-0.256,0.897-0.516,1.793-0.774,2.689c-0.014,0.048-0.029,0.096-0.038,0.145c-0.031,0.172,0.021,0.25,0.191,0.287
			c0.027,0.006,0.054,0.008,0.081,0.011c-0.015,0.192-0.015,0.196-0.184,0.235c-0.709,0.165-1.417,0.329-2.126,0.493
			c-0.144,0.033-0.289,0.065-0.447,0.1c0.006-0.124,0.028-0.209,0.147-0.262c0.224-0.099,0.368-0.27,0.437-0.514
			c0.252-0.892,0.514-1.782,0.773-2.672c0.223-0.768,0.448-1.535,0.672-2.303c0.225-0.773,0.45-1.546,0.675-2.319
			c0.017-0.059,0.033-0.118,0.041-0.178c0.021-0.155-0.023-0.217-0.17-0.255c-0.037-0.009-0.075-0.015-0.119-0.023
			c0.007-0.033,0.016-0.059,0.018-0.085c0.008-0.092,0.059-0.126,0.149-0.146c0.407-0.088,0.812-0.186,1.218-0.279
			c0.715-0.164,1.429-0.33,2.144-0.491c0.889-0.199,1.771-0.425,2.666-0.599c0.377-0.073,0.755-0.137,1.141-0.119
			c0.179,0.009,0.352,0.042,0.521,0.103c0.436,0.156,0.631,0.489,0.671,0.926c0.046,0.506-0.093,0.982-0.279,1.443
			c-0.214,0.533-0.534,0.999-0.948,1.397c-0.387,0.373-0.829,0.67-1.313,0.904c-0.19,0.092-0.381,0.182-0.581,0.252
			c-0.109,0.038-0.111,0.043-0.056,0.153c0.208,0.418,0.418,0.834,0.626,1.252c0.119,0.238,0.239,0.477,0.356,0.716
			c0.079,0.16,0.174,0.31,0.268,0.46c0.104,0.166,0.253,0.244,0.447,0.238c0.017-0.001,0.033-0.003,0.05-0.003
			C38.391,44.013,38.407,44.015,38.434,44.017z M32.59,40.877c0.109-0.024,0.196-0.042,0.282-0.062
			c0.98-0.226,1.96-0.449,2.939-0.678c0.417-0.098,0.829-0.211,1.192-0.455c0.493-0.332,0.763-0.801,0.829-1.382
			c0.038-0.334-0.119-0.51-0.452-0.56c-0.049-0.007-0.1-0.007-0.15-0.009c-0.152-0.005-0.299,0.029-0.445,0.06
			c-1.136,0.238-2.264,0.513-3.395,0.77c-0.121,0.028-0.173,0.08-0.205,0.196c-0.146,0.53-0.302,1.057-0.453,1.586
			C32.682,40.512,32.62,40.678,32.59,40.877z"/>
		<path fill="#FDFDFD" d="M60.725,31.557c-0.115,0.199-0.248,0.348-0.368,0.505c-0.443,0.585-0.891,1.166-1.337,1.749
			c-0.02,0.026-0.045,0.05-0.063,0.078c-0.036,0.057-0.077,0.041-0.129,0.022c-0.061-0.023-0.056-0.058-0.036-0.104
			c0.07-0.165-0.057-0.313-0.201-0.393c-0.249-0.138-0.511-0.244-0.796-0.285c-0.644-0.092-1.275-0.023-1.898,0.148
			c-0.305,0.084-0.604,0.187-0.893,0.319c-0.407,0.185-0.76,0.438-1.042,0.784c-0.127,0.156-0.224,0.332-0.253,0.536
			c-0.029,0.198,0.061,0.333,0.254,0.389c0.086,0.025,0.174,0.034,0.264,0.032c0.39-0.005,0.775-0.067,1.161-0.117
			c0.59-0.077,1.178-0.164,1.771-0.205c0.35-0.024,0.698-0.014,1.043,0.073c0.6,0.151,0.887,0.531,0.913,1.151
			c0.008,0.201-0.017,0.4-0.068,0.594c-0.148,0.569-0.426,1.07-0.788,1.529c-0.669,0.849-1.549,1.402-2.524,1.829
			c-0.665,0.291-1.353,0.507-2.066,0.63c-0.925,0.159-1.848,0.157-2.756-0.119c-0.053-0.016-0.109-0.023-0.162-0.04
			c-0.174-0.057-0.324-0.028-0.46,0.1c-0.085,0.079-0.091,0.072-0.219,0.013c-0.005-0.054,0.035-0.09,0.061-0.129
			c0.393-0.592,0.788-1.184,1.183-1.776c0.083-0.125,0.171-0.247,0.246-0.376c0.045-0.078,0.098-0.077,0.166-0.051
			c0.036,0.014,0.043,0.036,0.037,0.077c-0.052,0.356,0.02,0.487,0.35,0.636c0.336,0.152,0.694,0.194,1.056,0.211
			c0.89,0.041,1.734-0.146,2.535-0.529c0.383-0.183,0.737-0.414,1.025-0.732c0.184-0.203,0.349-0.419,0.406-0.697
			c0.051-0.249-0.043-0.393-0.294-0.448c-0.154-0.034-0.311-0.025-0.465-0.014c-0.494,0.035-0.983,0.113-1.473,0.173
			c-0.496,0.06-0.991,0.135-1.491,0.163c-0.292,0.016-0.575-0.019-0.857-0.098c-0.427-0.12-0.66-0.406-0.741-0.832
			c-0.061-0.321-0.005-0.633,0.081-0.939c0.165-0.587,0.461-1.105,0.86-1.564c0.744-0.856,1.672-1.435,2.733-1.811
			c0.673-0.239,1.363-0.405,2.077-0.461c0.665-0.053,1.32,0.03,1.97,0.17c0.043,0.009,0.088,0.015,0.13,0.027
			c0.252,0.073,0.48,0.05,0.682-0.137C60.447,31.549,60.579,31.573,60.725,31.557z"/>
		<path fill="#FDFDFD" d="M8.553,50.34c0.011-0.069,0.056-0.12,0.093-0.175c0.419-0.629,0.839-1.257,1.259-1.885
			c0.052-0.078,0.111-0.153,0.158-0.235c0.037-0.064,0.079-0.06,0.139-0.042c0.075,0.023,0.052,0.066,0.042,0.116
			c-0.053,0.266,0.021,0.42,0.258,0.551c0.299,0.165,0.627,0.218,0.961,0.244c0.982,0.077,1.915-0.103,2.794-0.545
			c0.467-0.235,0.883-0.536,1.181-0.978c0.088-0.131,0.155-0.269,0.186-0.424c0.047-0.24-0.033-0.367-0.27-0.434
			c-0.087-0.024-0.176-0.023-0.265-0.022c-0.429,0.001-0.853,0.069-1.278,0.119c-0.563,0.067-1.125,0.14-1.688,0.203
			c-0.39,0.044-0.776,0.024-1.152-0.108c-0.344-0.121-0.554-0.358-0.645-0.705c-0.105-0.398-0.029-0.786,0.094-1.164
			c0.216-0.668,0.598-1.235,1.092-1.731c0.487-0.49,1.044-0.881,1.662-1.185c0.585-0.288,1.201-0.491,1.837-0.635
			c0.639-0.145,1.281-0.216,1.935-0.161c0.327,0.027,0.651,0.079,0.972,0.145c0.114,0.023,0.23,0.038,0.343,0.069
			c0.207,0.056,0.381,0.006,0.541-0.131c0.087-0.075,0.091-0.07,0.232-0.01c-0.085,0.123-0.167,0.246-0.252,0.366
			c-0.416,0.584-0.833,1.167-1.25,1.75c-0.026,0.036-0.058,0.068-0.08,0.106c-0.037,0.062-0.082,0.058-0.14,0.033
			c-0.059-0.026-0.046-0.065-0.032-0.109c0.044-0.136-0.007-0.238-0.114-0.32c-0.193-0.148-0.418-0.23-0.647-0.298
			c-0.374-0.109-0.757-0.116-1.141-0.083c-0.682,0.06-1.334,0.237-1.953,0.528c-0.376,0.176-0.706,0.42-0.971,0.745
			c-0.11,0.135-0.192,0.287-0.24,0.454c-0.08,0.275,0.042,0.459,0.327,0.496c0.239,0.032,0.478,0.005,0.715-0.023
			c0.507-0.061,1.013-0.134,1.52-0.199c0.452-0.058,0.906-0.101,1.363-0.086c0.274,0.009,0.542,0.047,0.797,0.156
			c0.376,0.16,0.58,0.449,0.643,0.847c0.058,0.361,0.003,0.709-0.114,1.05c-0.29,0.844-0.814,1.523-1.494,2.087
			c-0.671,0.556-1.439,0.94-2.251,1.241c-0.543,0.202-1.098,0.357-1.671,0.446c-0.782,0.122-1.561,0.123-2.336-0.052
			c-0.157-0.035-0.312-0.08-0.466-0.128c-0.174-0.055-0.323-0.031-0.461,0.097C8.692,50.409,8.685,50.402,8.553,50.34z"/>
		<path fill="#FDFDFD" d="M29.896,38.039c0.009,0.12-0.04,0.193-0.151,0.245c-0.235,0.11-0.373,0.295-0.445,0.549
			c-0.342,1.202-0.693,2.4-1.041,3.6c-0.153,0.528-0.301,1.058-0.467,1.582c-0.17,0.537-0.406,1.045-0.732,1.508
			c-0.235,0.334-0.516,0.625-0.833,0.882c-0.71,0.575-1.522,0.953-2.381,1.241c-0.707,0.236-1.428,0.419-2.167,0.524
			c-0.557,0.079-1.116,0.135-1.675,0.02c-0.109-0.022-0.218-0.047-0.321-0.087c-0.449-0.176-0.677-0.461-0.699-0.992
			c-0.02-0.489,0.083-0.962,0.216-1.428c0.225-0.785,0.454-1.568,0.681-2.352c0.232-0.8,0.464-1.599,0.696-2.399
			c0.02-0.069,0.04-0.139,0.053-0.21c0.037-0.192-0.004-0.255-0.189-0.3c-0.026-0.006-0.053-0.01-0.08-0.015
			c0.03-0.233,0.027-0.196,0.206-0.236c0.423-0.095,0.844-0.194,1.266-0.292c0.422-0.098,0.843-0.195,1.265-0.293
			c0.018,0.163,0.008,0.19-0.122,0.252c-0.236,0.112-0.379,0.292-0.451,0.545c-0.254,0.897-0.517,1.793-0.775,2.689
			c-0.208,0.72-0.428,1.437-0.615,2.162c-0.055,0.215-0.096,0.433-0.096,0.658c-0.001,0.377,0.203,0.591,0.594,0.694
			c0.251,0.066,0.509,0.059,0.763,0.028c0.829-0.103,1.621-0.328,2.347-0.754c0.705-0.413,1.154-1.019,1.389-1.801
			c0.269-0.893,0.522-1.791,0.783-2.686c0.205-0.703,0.409-1.407,0.613-2.111c0.017-0.059,0.036-0.117,0.045-0.177
			c0.023-0.145-0.02-0.205-0.158-0.243c-0.046-0.013-0.124,0.018-0.126-0.069c-0.002-0.093,0.05-0.16,0.136-0.181
			c0.232-0.056,0.465-0.11,0.697-0.163c0.547-0.125,1.094-0.249,1.641-0.373C29.806,38.043,29.848,38.022,29.896,38.039z"/>
		<path fill="#FDFDFD" d="M41.643,35.5c0.023-0.186,0.022-0.189,0.179-0.225c0.855-0.198,1.71-0.395,2.565-0.593
			c0.02,0.147,0.004,0.187-0.118,0.245c-0.248,0.117-0.394,0.308-0.467,0.572c-0.163,0.588-0.337,1.174-0.506,1.761
			c-0.273,0.944-0.547,1.888-0.819,2.833c-0.075,0.262-0.131,0.529-0.153,0.801c-0.032,0.4,0.148,0.661,0.534,0.771
			c0.217,0.061,0.439,0.072,0.662,0.053c0.892-0.076,1.736-0.311,2.512-0.768c0.438-0.258,0.807-0.59,1.062-1.036
			c0.169-0.296,0.283-0.616,0.379-0.941c0.162-0.549,0.319-1.099,0.479-1.648c0.287-0.986,0.576-1.972,0.862-2.959
			c0.02-0.069,0.037-0.141,0.043-0.212c0.011-0.131-0.029-0.18-0.152-0.22c-0.046-0.015-0.123,0.012-0.128-0.071
			c-0.005-0.1,0.046-0.16,0.148-0.183c0.39-0.09,0.779-0.181,1.169-0.27c0.39-0.089,0.78-0.177,1.17-0.264
			c0.036-0.008,0.073-0.027,0.117-0.005c0.001,0.112-0.036,0.191-0.151,0.241c-0.233,0.102-0.371,0.284-0.441,0.531
			c-0.25,0.881-0.508,1.761-0.763,2.641c-0.241,0.832-0.471,1.668-0.729,2.495c-0.222,0.71-0.542,1.374-1.044,1.937
			c-0.435,0.488-0.956,0.863-1.531,1.165c-1.088,0.573-2.257,0.893-3.462,1.1c-0.446,0.077-0.893,0.116-1.345,0.095
			c-0.28-0.013-0.551-0.067-0.811-0.172c-0.397-0.161-0.598-0.464-0.632-0.882c-0.036-0.444,0.04-0.877,0.156-1.301
			c0.202-0.733,0.42-1.462,0.631-2.193c0.277-0.96,0.553-1.921,0.829-2.881c0.005-0.016,0.011-0.032,0.015-0.048
			c0.057-0.23,0.017-0.295-0.216-0.351C41.671,35.514,41.657,35.506,41.643,35.5z"/>
		<path fill="#FCFCFC" d="M19.181,21.523c0.149,0.149,0.246,0.292,0.363,0.416c0.339,0.357,0.726,0.655,1.138,0.919
			c0.295,0.189,0.602,0.357,0.922,0.501c0.117,0.053,0.122,0.053,0.159-0.069c0.203-0.66,0.367-1.328,0.422-2.019
			c0.009-0.116,0.02-0.233,0.031-0.349c0.001-0.009,0.009-0.018,0.019-0.036c0.218,0.083,0.421,0.197,0.616,0.323
			c0.719,0.464,1.305,1.067,1.817,1.748c0.164,0.218,0.107,0.237,0.335,0.037c0.419-0.366,0.769-0.786,0.995-1.3
			c0.009-0.02,0.023-0.037,0.04-0.063c0.204,0.098,0.377,0.235,0.534,0.391c0.307,0.305,0.539,0.662,0.736,1.045
			c0.015,0.03,0.033,0.059,0.043,0.09c0.022,0.066,0.056,0.064,0.113,0.039c0.23-0.101,0.446-0.227,0.653-0.367
			c0.31-0.21,0.592-0.451,0.823-0.749c0.077-0.099,0.079-0.097,0.197-0.039c0.548,0.267,1.015,0.638,1.4,1.109
			c0.114,0.14,0.222,0.288,0.299,0.464c-0.057,0.03-0.106,0.015-0.153,0.011c-0.753-0.063-1.505-0.138-2.26-0.186
			c-1.088-0.069-2.175-0.125-3.266-0.062c-0.84,0.049-1.672,0.146-2.495,0.313c-0.742,0.151-1.466,0.364-2.143,0.714
			c-0.478,0.247-0.912,0.551-1.253,0.976c-0.278,0.346-0.451,0.735-0.523,1.173c-0.03,0.18-0.032,0.362-0.038,0.563
			c-0.983-0.413-1.698-1.092-2.218-2.039c0.214,0.102,0.388,0.218,0.584,0.282c0.201,0.066,0.405,0.121,0.614,0.152
			c0.206,0.031,0.414,0.051,0.653,0.035c-0.683-0.771-1.312-1.542-1.55-2.55c0.665,0.594,1.405,1.054,2.254,1.326
			c0.114,0.036,0.229,0.077,0.367,0.076C19.179,23.455,18.976,22.524,19.181,21.523z"/>
		<path fill="#FCFCFC" d="M21.755,20.265c0.023,0.496-0.025,0.975-0.14,1.448c-0.056,0.228-0.14,0.445-0.244,0.654
			c-0.051,0.102-0.055,0.102-0.164,0.053c-0.392-0.178-0.748-0.413-1.084-0.68c-0.455-0.362-0.85-0.781-1.19-1.252
			c-0.013-0.018-0.028-0.033-0.059-0.069c-0.136,0.498-0.221,0.986-0.259,1.483c-0.038,0.493-0.028,0.987,0.019,1.504
			c-0.498-0.136-0.936-0.356-1.349-0.625c-0.414-0.269-0.785-0.591-1.121-0.959c0.056,1.099,0.419,2.093,0.979,3.029
			c-0.1,0.022-0.174-0.011-0.245-0.034c-0.504-0.164-0.984-0.379-1.405-0.71c-0.059-0.046-0.099-0.1-0.127-0.17
			c-0.343-0.867-0.199-1.654,0.381-2.372c0.398-0.492,0.916-0.819,1.484-1.075c0.566-0.254,1.163-0.407,1.774-0.502
			c1.112-0.172,2.226-0.148,3.34-0.013c1.162,0.141,2.297,0.4,3.416,0.738c0.926,0.279,1.83,0.617,2.723,0.987
			c0.188,0.078,0.187,0.079,0.056,0.227c-0.243,0.275-0.54,0.477-0.858,0.652c-0.076,0.042-0.112,0.029-0.157-0.043
			c-0.181-0.288-0.397-0.548-0.642-0.785c-0.246-0.238-0.749-0.616-1.083-0.742c-0.054,0.046-0.058,0.116-0.081,0.177
			c-0.157,0.414-0.387,0.774-0.759,1.03c-0.104,0.071-0.104,0.073-0.186-0.019c-0.685-0.777-1.522-1.339-2.471-1.742
			c-0.163-0.069-0.332-0.127-0.498-0.19C21.796,20.262,21.784,20.265,21.755,20.265z"/>
		<path fill="#FDFDFD" d="M15.32,39.856c-0.76,0.164-1.506,0.332-2.21,0.623c-0.057-0.028-0.057-0.077-0.071-0.117
			c-0.232-0.669-0.522-1.31-0.93-1.893c-0.477-0.681-1.067-1.234-1.823-1.596c-0.098-0.047-0.14-0.101-0.148-0.211
			c-0.082-1.128-0.357-2.212-0.766-3.264c-0.208-0.534-0.454-1.049-0.746-1.543c-0.014-0.024-0.025-0.049-0.038-0.073
			c0.045-0.045,0.073,0,0.101,0.017c0.504,0.296,0.977,0.635,1.432,1.002c0.599,0.483,1.143,1.022,1.648,1.601
			c0.505,0.578,0.963,1.193,1.391,1.83c0.617,0.918,1.176,1.871,1.721,2.833c0.115,0.203,0.235,0.403,0.352,0.605
			C15.266,39.724,15.304,39.772,15.32,39.856z"/>
		<path fill="#FDFDFD" d="M6.764,43.501c0.02-0.135,0.098-0.177,0.216-0.203c0.834-0.188,1.667-0.384,2.5-0.577
			c0.019,0.14,0.004,0.178-0.109,0.236c-0.244,0.126-0.404,0.31-0.481,0.584c-0.288,1.027-0.589,2.05-0.886,3.074
			c-0.368,1.269-0.737,2.539-1.105,3.808c-0.042,0.144-0.081,0.289-0.119,0.434c-0.013,0.048-0.023,0.098-0.027,0.147
			c-0.008,0.129,0.033,0.178,0.158,0.217c0.044,0.014,0.125-0.026,0.124,0.068c-0.001,0.095-0.046,0.148-0.14,0.171
			c-0.167,0.041-0.334,0.085-0.502,0.123c-0.687,0.159-1.375,0.316-2.063,0.473c-0.021,0.005-0.042,0.008-0.066,0.012
			c0.027-0.145,0.066-0.207,0.166-0.26c0.225-0.118,0.364-0.304,0.434-0.544c0.19-0.656,0.38-1.312,0.57-1.968
			c0.332-1.147,0.663-2.294,0.996-3.441c0.186-0.64,0.373-1.28,0.559-1.919c0.006-0.021,0.01-0.043,0.015-0.065
			C7.052,43.642,6.999,43.558,6.764,43.501z"/>
		<path fill="#FCFCFC" d="M33.113,48.973c-0.515,0.676-1.031,1.352-1.545,2.029c-0.346,0.456-0.69,0.913-1.036,1.369
			c-0.027,0.035-0.057,0.067-0.107,0.126c-0.263-0.932-0.52-1.841-0.776-2.749c-0.059,0.008-0.05,0.056-0.06,0.09
			c-0.256,0.88-0.512,1.76-0.767,2.64c-0.011,0.037-0.022,0.075-0.028,0.113c-0.01,0.061,0.005,0.112,0.071,0.132
			c0.038,0.011,0.076,0.015,0.065,0.073c-0.009,0.045-0.033,0.067-0.076,0.075c-0.065,0.013-0.13,0.027-0.195,0.042
			c-0.336,0.077-0.671,0.155-1.007,0.232c-0.026,0.006-0.053,0.01-0.084,0.016c-0.027-0.063-0.001-0.104,0.046-0.125
			c0.176-0.08,0.234-0.232,0.283-0.405c0.302-1.057,0.611-2.112,0.918-3.168c0.059-0.203,0.115-0.406,0.174-0.609
			c0.053-0.183,0.053-0.184-0.122-0.254c-0.007-0.088,0.05-0.107,0.122-0.123c0.331-0.074,0.66-0.152,0.991-0.228
			c0.231-0.053,0.463-0.106,0.696-0.159c0.017,0.092-0.044,0.117-0.091,0.153c-0.123,0.095-0.166,0.212-0.122,0.367
			c0.176,0.625,0.347,1.252,0.52,1.878c0.015,0.053,0.033,0.106,0.057,0.182c0.103-0.135,0.196-0.256,0.287-0.379
			c0.401-0.539,0.802-1.079,1.203-1.619c0.182-0.245,0.364-0.491,0.546-0.737c0.039-0.054,0.08-0.108,0.092-0.176
			c0.008-0.045,0.013-0.093-0.047-0.107c-0.036-0.008-0.065-0.016-0.055-0.062c0.008-0.035,0.026-0.06,0.063-0.069
			c0.086-0.021,0.173-0.043,0.259-0.063c0.428-0.099,0.855-0.197,1.283-0.294c0.052-0.012,0.106-0.034,0.161-0.011
			c0.018,0.067-0.026,0.093-0.072,0.116c-0.14,0.07-0.209,0.19-0.251,0.336c-0.236,0.828-0.474,1.655-0.713,2.481
			c-0.125,0.432-0.252,0.863-0.379,1.295c-0.012,0.043-0.025,0.085-0.036,0.128c-0.02,0.08-0.009,0.144,0.087,0.165
			c0.025,0.005,0.06,0.007,0.056,0.046c-0.003,0.034-0.016,0.066-0.05,0.08c-0.02,0.009-0.042,0.014-0.064,0.019
			c-0.433,0.1-0.866,0.201-1.299,0.3c-0.015,0.003-0.032-0.001-0.049-0.002c-0.018-0.07,0.02-0.105,0.073-0.131
			c0.14-0.07,0.204-0.188,0.246-0.336c0.238-0.839,0.484-1.675,0.728-2.512c0.014-0.048,0.036-0.094,0.028-0.145
			c0.025-0.011,0.027-0.039,0.013-0.049C33.129,48.93,33.124,48.961,33.113,48.973z"/>
		<path fill="#FCFCFC" d="M36.671,51.046c-0.013-0.061,0.021-0.096,0.07-0.116c0.156-0.065,0.215-0.197,0.258-0.347
			c0.223-0.779,0.448-1.558,0.674-2.337c0.133-0.459,0.268-0.917,0.401-1.375c0.017-0.059,0.034-0.118,0.048-0.177
			c0.021-0.086,0.01-0.152-0.092-0.179c-0.051-0.014-0.056-0.082-0.014-0.111c0.017-0.012,0.041-0.016,0.063-0.021
			c0.482-0.111,0.963-0.222,1.445-0.333c0.022-0.005,0.044-0.007,0.064,0.007c0.011,0.069-0.041,0.092-0.087,0.124
			c-0.155,0.11-0.169,0.214-0.042,0.359c0.577,0.662,1.157,1.322,1.735,1.982c0.007,0.008,0.018,0.012,0.036,0.024
			c0.072-0.132,0.095-0.28,0.136-0.42c0.215-0.735,0.426-1.472,0.638-2.208c0.015-0.053,0.03-0.107,0.041-0.161
			c0.013-0.062-0.006-0.109-0.07-0.131c-0.033-0.011-0.083-0.003-0.072-0.066c0.009-0.054,0.042-0.071,0.091-0.08
			c0.114-0.023,0.228-0.05,0.341-0.077c0.313-0.072,0.626-0.144,0.943-0.217c0.017,0.072-0.012,0.109-0.067,0.136
			c-0.147,0.07-0.217,0.196-0.26,0.348c-0.363,1.271-0.729,2.541-1.094,3.811c-0.011,0.037-0.021,0.075-0.027,0.113
			c-0.011,0.062,0.006,0.11,0.073,0.13c0.031,0.009,0.07,0.01,0.066,0.057c-0.004,0.042-0.024,0.073-0.067,0.085
			c-0.021,0.006-0.043,0.013-0.064,0.018c-0.428,0.097-0.856,0.195-1.284,0.292c-0.021,0.005-0.043,0.004-0.068,0.007
			c-0.005-0.062,0.023-0.093,0.065-0.126c0.168-0.131,0.174-0.203,0.03-0.367c-0.282-0.322-0.568-0.641-0.851-0.962
			c-0.294-0.333-0.587-0.667-0.881-1.001c-0.029-0.033-0.051-0.074-0.104-0.088c-0.062,0.099-0.075,0.216-0.108,0.326
			c-0.234,0.799-0.464,1.6-0.696,2.4c-0.011,0.037-0.025,0.074-0.032,0.112c-0.014,0.072-0.008,0.135,0.082,0.153
			c0.031,0.006,0.072,0.009,0.066,0.056c-0.005,0.04-0.024,0.069-0.071,0.079c-0.125,0.027-0.248,0.062-0.372,0.09
			c-0.276,0.064-0.553,0.126-0.829,0.188C36.746,51.051,36.709,51.068,36.671,51.046z"/>
		<path fill="#FDFDFD" d="M44.734,15.567c-1.665-0.13-3.005,0.467-4.036,1.768c-1.242-1.095-2.415-2.251-3.856-3.137
			C39.665,13.696,42.3,14.041,44.734,15.567z"/>
		<path fill="#FBFBFB" d="M20.55,53.236c-0.055-0.023-0.097-0.003-0.139,0.006c-0.32,0.072-0.638,0.148-0.958,0.219
			c-0.138,0.031-0.245,0.101-0.319,0.222c-0.029,0.048-0.056,0.097-0.14,0.065c0.097-0.335,0.194-0.669,0.289-1.003
			c0.015-0.052,0.049-0.07,0.098-0.073c0.04,0.015,0.028,0.054,0.036,0.083c0.016,0.059,0.056,0.077,0.112,0.075
			c0.09-0.003,0.174-0.034,0.261-0.053c0.65-0.149,1.299-0.299,1.949-0.447c0.02-0.005,0.043-0.001,0.064-0.001
			c0.02,0.068-0.018,0.099-0.065,0.12c-0.145,0.064-0.215,0.185-0.256,0.33c-0.085,0.299-0.174,0.597-0.258,0.897
			c-0.033,0.117-0.026,0.137,0.083,0.193c0.06,0.031,0.055,0.061,0.021,0.102c-0.014,0.017-0.033,0.03-0.051,0.042
			c-0.708,0.476-1.444,0.897-2.256,1.171c-0.396,0.134-0.801,0.23-1.222,0.245c-0.201,0.007-0.4-0.005-0.596-0.053
			c-0.509-0.126-0.828-0.515-0.85-1.041c-0.017-0.415,0.095-0.804,0.25-1.181c0.246-0.603,0.636-1.103,1.124-1.531
			c0.482-0.424,1.023-0.744,1.625-0.962c0.441-0.16,0.893-0.274,1.364-0.29c0.273-0.009,0.545,0.018,0.813,0.064
			c0.149,0.026,0.287,0.029,0.41-0.075c0.035-0.03,0.07-0.022,0.112,0.01c-0.087,0.125-0.171,0.247-0.257,0.369
			c-0.176,0.25-0.352,0.5-0.529,0.749c-0.022,0.032-0.041,0.068-0.071,0.092c-0.034,0.027-0.091,0.025-0.083-0.028
			c0.031-0.224-0.135-0.259-0.283-0.297c-0.341-0.088-0.686-0.073-1.025,0.008c-0.957,0.227-1.674,0.774-2.133,1.646
			c-0.137,0.261-0.226,0.545-0.232,0.845c-0.009,0.46,0.27,0.769,0.73,0.811c0.201,0.018,0.4,0,0.597-0.041
			c0.549-0.116,1.06-0.328,1.536-0.623c0.033-0.02,0.073-0.034,0.084-0.076C20.437,53.626,20.513,53.436,20.55,53.236z"/>
		<path fill="#FBFBFB" d="M47.426,47.025c-0.405,0.092-0.778,0.177-1.15,0.262c-0.121,0.028-0.207,0.103-0.273,0.205
			c-0.029,0.046-0.054,0.101-0.126,0.08c-0.025-0.039-0.003-0.076,0.007-0.111c0.084-0.294,0.17-0.587,0.256-0.88
			c0.006-0.021,0.009-0.044,0.02-0.063c0.014-0.027,0.043-0.033,0.071-0.035c0.035-0.002,0.04,0.022,0.051,0.05
			c0.049,0.125,0.052,0.129,0.181,0.1c0.536-0.122,1.072-0.247,1.607-0.371c0.194-0.045,0.388-0.088,0.584-0.132
			c0.031,0.083-0.017,0.113-0.065,0.138c-0.145,0.075-0.211,0.198-0.251,0.353c-0.071,0.28-0.161,0.554-0.241,0.832
			c-0.04,0.14-0.038,0.146,0.093,0.233c0.041,0.027,0.029,0.058,0.012,0.083c-0.018,0.026-0.047,0.047-0.074,0.065
			c-0.774,0.518-1.579,0.975-2.48,1.238c-0.359,0.105-0.726,0.166-1.1,0.172c-0.184,0.003-0.366-0.024-0.543-0.075
			c-0.474-0.137-0.78-0.544-0.789-1.057c-0.007-0.419,0.108-0.815,0.272-1.194c0.329-0.761,0.867-1.35,1.539-1.825
			c0.7-0.495,1.481-0.78,2.325-0.898c0.315-0.044,0.633-0.016,0.947,0.037c0.077,0.013,0.154,0.021,0.231,0.03
			c0.093,0.01,0.175-0.018,0.25-0.073c0.035-0.026,0.071-0.059,0.125-0.019c-0.011,0.065-0.056,0.115-0.093,0.168
			c-0.232,0.333-0.466,0.664-0.699,0.996c-0.01,0.014-0.019,0.027-0.029,0.041c-0.018,0.023-0.038,0.041-0.07,0.031
			c-0.03-0.01-0.045-0.032-0.039-0.064c0.033-0.178-0.102-0.218-0.222-0.258c-0.27-0.089-0.549-0.089-0.826-0.052
			c-0.956,0.126-1.689,0.617-2.23,1.402c-0.204,0.296-0.332,0.628-0.381,0.987c-0.016,0.116-0.018,0.234,0.004,0.349
			c0.062,0.314,0.286,0.528,0.603,0.592c0.234,0.047,0.468,0.03,0.696-0.02c0.547-0.12,1.062-0.321,1.535-0.626
			c0.065-0.042,0.106-0.089,0.125-0.166C47.321,47.382,47.371,47.219,47.426,47.025z"/>
		<path fill="#FBFBFB" d="M26.387,49.092c0.014,0.071-0.029,0.098-0.074,0.122c-0.2,0.106-0.24,0.27-0.189,0.48
			c0.138,0.566,0.271,1.134,0.405,1.701c0.112,0.475,0.221,0.951,0.333,1.427c0.015,0.065,0.039,0.127,0.061,0.19
			c0.029,0.082,0.093,0.121,0.174,0.137c0.026,0.005,0.058,0.003,0.057,0.044c-0.001,0.029-0.012,0.056-0.039,0.069
			c-0.025,0.012-0.051,0.022-0.078,0.028c-0.519,0.12-1.038,0.239-1.558,0.359c-0.015,0.004-0.033,0.01-0.052-0.013
			c-0.017-0.042,0.004-0.076,0.046-0.101c0.043-0.026,0.089-0.046,0.129-0.076c0.102-0.075,0.153-0.178,0.127-0.305
			c-0.038-0.19-0.085-0.379-0.125-0.569c-0.018-0.089-0.077-0.061-0.128-0.05c-0.325,0.073-0.649,0.149-0.974,0.223
			c-0.298,0.068-0.595,0.137-0.894,0.202c-0.102,0.022-0.178,0.064-0.237,0.158c-0.131,0.206-0.279,0.401-0.417,0.603
			c-0.041,0.059-0.078,0.122-0.107,0.188c-0.052,0.117-0.039,0.145,0.082,0.2c0.024,0.011,0.058,0.01,0.051,0.05
			c-0.005,0.028-0.014,0.056-0.044,0.066c-0.037,0.013-0.074,0.023-0.112,0.032c-0.432,0.101-0.865,0.202-1.297,0.302
			c-0.022,0.005-0.044,0.01-0.066,0.011c-0.055,0.002-0.045-0.036-0.035-0.067c0.009-0.028,0.034-0.043,0.06-0.053
			c0.156-0.064,0.262-0.186,0.355-0.319c0.246-0.35,0.49-0.701,0.734-1.053c0.313-0.452,0.626-0.904,0.939-1.356
			c0.411-0.594,0.822-1.187,1.232-1.781c0.034-0.05,0.061-0.106,0.086-0.161c0.035-0.079,0.033-0.145-0.057-0.197
			c-0.078-0.044-0.069-0.102,0.012-0.138c0.015-0.007,0.031-0.011,0.048-0.015c0.503-0.114,1.007-0.228,1.511-0.341
			C26.354,49.085,26.366,49.09,26.387,49.092z M23.97,52.254c0.033,0.006,0.044,0.011,0.054,0.009
			c0.46-0.104,0.919-0.208,1.379-0.312c0.066-0.015,0.067-0.053,0.056-0.111c-0.057-0.294-0.109-0.589-0.164-0.884
			c-0.029-0.155-0.061-0.309-0.098-0.499C24.778,51.071,24.379,51.655,23.97,52.254z"/>
		<path fill="#FBFBFB" d="M29.175,33.309c-0.41,0.194-0.782,0.393-1.147,0.605c-0.698,0.405-1.36,0.861-1.981,1.376
			c-0.592,0.491-1.135,1.03-1.631,1.617c-0.247,0.293-0.486,0.594-0.695,0.915c-0.094,0.144-0.212,0.216-0.399,0.216
			c0.015-0.043,0.027-0.082,0.043-0.118c0.32-0.711,0.701-1.386,1.157-2.019c0.519-0.721,1.119-1.366,1.801-1.934
			c0.501-0.417,1.038-0.78,1.61-1.093c0.117-0.064,0.236-0.123,0.353-0.186c0.042-0.023,0.08-0.033,0.123,0
			C28.667,32.879,28.92,33.075,29.175,33.309z"/>
		<path fill="#FBFBFB" d="M34.37,51.584c-0.022-0.064,0.009-0.103,0.066-0.126c0.142-0.059,0.203-0.175,0.243-0.316
			c0.169-0.593,0.343-1.184,0.516-1.775c0.197-0.677,0.395-1.353,0.592-2.03c0.012-0.043,0.024-0.086,0.035-0.129
			c0.02-0.076,0-0.132-0.083-0.153c-0.03-0.008-0.074-0.001-0.067-0.051c0.005-0.039,0.02-0.076,0.067-0.084
			c0.011-0.002,0.022-0.004,0.033-0.006c0.422-0.097,0.844-0.195,1.266-0.292c0.031-0.007,0.064-0.021,0.095-0.002
			c0.018,0.064-0.021,0.092-0.068,0.116c-0.138,0.072-0.202,0.189-0.245,0.338c-0.292,1.019-0.591,2.037-0.888,3.055
			c-0.076,0.261-0.151,0.523-0.226,0.784c-0.041,0.144-0.041,0.146,0.101,0.24c0.041,0.027,0.026,0.057,0.011,0.085
			c-0.02,0.039-0.063,0.041-0.101,0.05c-0.438,0.102-0.876,0.203-1.315,0.303C34.395,51.593,34.384,51.587,34.37,51.584z"/>
		<path fill="#FBFBFB" d="M44.167,17.034C44.059,17.088,44,17.19,43.93,17.279c-0.435,0.553-0.724,1.179-0.925,1.849
			c-0.078,0.259-0.129,0.523-0.179,0.806c-0.066-0.043-0.088-0.1-0.118-0.15c-0.063-0.104-0.118-0.215-0.19-0.313
			c-0.053-0.073-0.051-0.133-0.024-0.214c0.296-0.868,0.793-1.596,1.505-2.174C44.045,17.047,44.091,16.98,44.167,17.034
			L44.167,17.034z"/>
		<path fill="#0055DB" d="M36.939,18.951c0.01-0.015,0.019-0.031,0.029-0.046c0.057,0.011,0.098,0.047,0.153,0.101
			C37.043,18.999,36.989,18.981,36.939,18.951z"/>
		<path fill="#0055DB" d="M14.169,23.26c-0.061-0.019-0.079-0.078-0.114-0.122c0.011-0.012,0.023-0.024,0.035-0.036
			c0.039,0.045,0.077,0.092,0.083,0.155C14.174,23.257,14.169,23.26,14.169,23.26z"/>
		<path fill="#0055DB" d="M33.122,13.311c-0.014,0.006-0.027,0.013-0.041,0.019c-0.018-0.005-0.031-0.028-0.025-0.034
			C33.082,13.271,33.102,13.296,33.122,13.311z"/>
		<path fill="#0055DB" d="M41.494,26.305c0.007,0.008,0.016,0.016,0.02,0.025c0.007,0.017,0.034,0.04,0.003,0.053
			c-0.017,0.007-0.042-0.01-0.044-0.037C41.479,26.332,41.486,26.318,41.494,26.305z"/>
		<path fill="#0055DB" d="M14.207,23.323c-0.022-0.015-0.036-0.036-0.038-0.063c0,0,0.005-0.003,0.005-0.003
			c0.033,0.01,0.031,0.039,0.035,0.065L14.207,23.323z"/>
		<path fill="#0055DB" d="M34.392,14.801c0,0,0.007,0.005,0.007,0.005l-0.003,0.009l-0.003,0.002
			c-0.013,0.014-0.023,0.011-0.03-0.006C34.373,14.808,34.383,14.804,34.392,14.801z"/>
		<path fill="#FDFDFD" d="M37.936,30.464c-0.008-0.003-0.016-0.007-0.024-0.01c0.006-0.003,0.013-0.009,0.018-0.008
			c0.011,0.002,0.012,0.011,0.002,0.021C37.933,30.467,37.936,30.464,37.936,30.464z"/>
		<path fill="#FFFFFF" d="M53.169,31.649c-0.013,0.012-0.028,0.022-0.039,0.001c-0.006-0.011,0.003-0.021,0.017-0.023
			C53.155,31.634,53.162,31.641,53.169,31.649z"/>
		<polygon fill="#0055DB" points="14.208,23.322 14.218,23.33 14.207,23.323 		"/>
		<path fill="#FDFDFD" d="M41.494,26.305c-0.007,0.014-0.014,0.027-0.021,0.041c-0.021-0.006-0.036-0.019-0.045-0.039
			c0.013-0.011,0.025-0.021,0.038-0.032C41.474,26.285,41.484,26.295,41.494,26.305z"/>
		<path fill="#FFFFFF" d="M13.063,33.946c0,0.004,0.001,0.009,0,0.011c-0.007,0.01-0.014,0.007-0.02-0.006
			c-0.001-0.002,0.006-0.008,0.01-0.01C13.055,33.94,13.06,33.944,13.063,33.946z"/>
		<path fill="#FDFDFD" d="M14.09,23.103c-0.012,0.012-0.023,0.024-0.035,0.036c-0.006-0.015-0.013-0.03-0.019-0.045
			c0.008-0.008,0.016-0.016,0.025-0.024C14.07,23.081,14.08,23.092,14.09,23.103z"/>
		<path fill="#FBFBFB" d="M44.168,17.034c-0.005-0.011-0.029-0.01-0.015-0.033c0.012-0.019,0.026-0.007,0.038-0.009l0.001-0.007
			C44.163,16.991,44.156,17.008,44.168,17.034C44.167,17.034,44.168,17.034,44.168,17.034z"/>
		<polygon fill="#FBFBFB" points="44.191,16.993 44.183,16.992 44.191,16.986 		"/>
		<path fill="#FDFDFD" d="M19.076,15.938c-0.009,0.009-0.018,0.018-0.028,0.027c-0.016-0.036,0.014-0.023,0.028-0.026
			C19.078,15.939,19.076,15.938,19.076,15.938z"/>
		<path fill="#010102" d="M36.514,23.793c0.008,0.006,0.015,0.011,0.023,0.017c-0.006,0.006-0.014,0.017-0.019,0.016
			c-0.012-0.002-0.03-0.003-0.028-0.021C36.491,23.8,36.505,23.797,36.514,23.793z"/>
		<path fill="#010102" d="M40.119,31.225c0,0.01-0.001,0.02-0.001,0.03c-0.004-0.001-0.011-0.001-0.012-0.003
			c-0.009-0.018,0-0.025,0.018-0.027C40.124,31.224,40.119,31.225,40.119,31.225z"/>
		<path fill="#0055DB" d="M40.758,21.261c0.018,0.012,0.044,0.031,0.035,0.049c-0.012,0.026-0.036,0.013-0.052-0.006
			C40.747,21.289,40.752,21.275,40.758,21.261z"/>
		<path fill="#010102" d="M40.758,21.261c-0.005,0.014-0.011,0.029-0.016,0.043c-0.017-0.011-0.034-0.023-0.051-0.034
			c0.014-0.011,0.027-0.023,0.041-0.034C40.74,21.244,40.749,21.252,40.758,21.261z"/>
		<path fill="#0055DB" d="M34.396,14.815c0.005,0.006,0.009,0.012,0.014,0.018c-0.014,0.004-0.02-0.001-0.017-0.015
			C34.393,14.817,34.396,14.815,34.396,14.815z"/>
		<path fill="#020202" d="M32.59,40.877c0.031-0.199,0.093-0.365,0.141-0.535c0.151-0.529,0.307-1.056,0.453-1.586
			c0.032-0.116,0.083-0.168,0.205-0.196c1.132-0.257,2.259-0.532,3.395-0.77c0.147-0.031,0.293-0.065,0.445-0.06
			c0.05,0.002,0.1,0.002,0.15,0.009c0.333,0.05,0.49,0.226,0.452,0.56c-0.066,0.581-0.336,1.05-0.829,1.382
			c-0.363,0.244-0.775,0.358-1.192,0.455c-0.979,0.229-1.959,0.453-2.939,0.678C32.785,40.835,32.699,40.853,32.59,40.877z"/>
		<path fill="#010102" d="M33.113,48.973c0.011-0.013,0.016-0.043,0.036-0.029c0.014,0.009,0.011,0.037-0.013,0.049
			C33.129,48.986,33.121,48.98,33.113,48.973z"/>
		<path fill="#020202" d="M23.97,52.254c0.409-0.599,0.808-1.183,1.227-1.797c0.037,0.19,0.069,0.344,0.098,0.499
			c0.055,0.295,0.107,0.59,0.164,0.884c0.011,0.058,0.01,0.096-0.056,0.111c-0.46,0.104-0.919,0.209-1.379,0.312
			C24.014,52.265,24.003,52.259,23.97,52.254z"/>
	</g>
</g>
</svg>
