<?xml version="1.0" encoding="utf-8"?>
<!-- Generator: Adobe Illustrator 22.0.0, SVG Export Plug-In . SVG Version: 6.00 Build 0)  -->
<svg version="1.1" id="Camada_1" xmlns="http://www.w3.org/2000/svg" xmlns:xlink="http://www.w3.org/1999/xlink" x="0px" y="0px"
	 width="64px" height="64px" viewBox="0 0 64 64" enable-background="new 0 0 64 64" xml:space="preserve">
<g>
	<g>
		<path fill="#D0D1D3" d="M60.508,29.593c-0.005,0.25,0.101,0.477,0.152,0.715c0.121,0.568,0.142,1.149,0.228,1.721
			c0.053,0.356,0.048,0.713,0.038,1.07c-0.021,0.773-0.168,1.526-0.383,2.266c-0.308,1.059-0.745,2.068-1.25,3.047
			c-0.366,0.709-0.738,1.416-1.19,2.077c-0.043,0.063-0.091,0.125-0.093,0.226c0.319-0.06,0.637-0.103,0.944-0.185
			c0.162-0.044,0.227,0.016,0.303,0.132c0.746,1.136,1.504,2.264,2.222,3.417c0.041,0.067,0.063,0.162,0.168,0.17
			c0,1.993,0,3.987,0,5.98c-0.173,0.014-0.346,0.038-0.519,0.039c-0.166,0.002-0.176,0.066-0.105,0.191
			c0.165,0.291,0.326,0.585,0.493,0.875c0.029,0.049,0.049,0.123,0.132,0.116c0,2.78,0,5.559,0,8.339
			c-0.08-0.007-0.105,0.054-0.138,0.108c-0.668,1.085-1.374,2.146-2.085,3.204c-0.298,0.443-0.294,0.435-0.817,0.329
			c-0.957-0.195-1.915-0.387-2.875-0.564c-0.946-0.174-1.896-0.33-2.845-0.488c-0.591-0.098-1.185-0.186-1.778-0.274
			c-0.648-0.096-1.297-0.191-1.946-0.279c-0.587-0.08-1.175-0.156-1.764-0.224c-0.568-0.066-1.138-0.12-1.707-0.179
			c-0.645-0.067-1.289-0.141-1.935-0.2c-0.591-0.053-1.185-0.075-1.775-0.136c-0.924-0.095-1.852-0.133-2.778-0.196
			c-0.557-0.038-1.117-0.058-1.675-0.085c-0.923-0.044-1.846-0.085-2.77-0.084c-1.963,0.001-3.927-0.046-5.89,0.029
			c-0.776,0.03-1.552,0.055-2.328,0.081c-0.916,0.031-1.829,0.098-2.744,0.138c-0.432,0.019-0.864,0.053-1.296,0.088
			c-0.605,0.05-1.209,0.108-1.814,0.161c-0.521,0.046-1.044,0.082-1.565,0.136c-0.707,0.074-1.413,0.161-2.12,0.243
			c-0.616,0.072-1.234,0.138-1.849,0.221c-0.739,0.1-1.476,0.214-2.214,0.326c-0.855,0.129-1.711,0.252-2.563,0.396
			c-0.79,0.134-1.576,0.299-2.365,0.441c-1.566,0.282-3.118,0.632-4.68,0.932c-0.053,0.01-0.096,0.02-0.098,0.085
			c-0.028,0-0.056,0-0.084,0c-0.014-0.036-0.028-0.033-0.042,0c-0.028,0-0.056,0-0.084,0c0.001-3.523,0.001-7.047,0.005-10.57
			c0-0.167-0.089-0.292-0.162-0.425c-0.155-0.282-0.313-0.563-0.475-0.842c-0.057-0.099-0.038-0.184,0.013-0.276
			c0.179-0.325,0.353-0.654,0.534-0.978c0.068-0.121,0.09-0.244,0.09-0.382c-0.002-3.397-0.002-6.794-0.002-10.191
			c0-0.285,0-0.283,0.281-0.226c0.869,0.175,1.74,0.34,2.606,0.527c0.194,0.042,0.18-0.023,0.14-0.155
			c-0.21-0.69-0.327-1.4-0.41-2.114c-0.075-0.646-0.108-1.296-0.097-1.949c0.01-0.637-0.013-1.274,0.082-1.907
			c0.012-0.081-0.032-0.129-0.079-0.184c-1.096-1.26-1.851-2.692-2.175-4.339c-0.079-0.4-0.074-0.808-0.088-1.211
			c-0.027-0.771,0.005-1.544-0.018-2.316c-0.013-0.434-0.034-0.867-0.032-1.301c0-0.059-0.034-0.143,0.03-0.174
			c0.069-0.033,0.105,0.052,0.147,0.093c0.634,0.615,1.264,1.235,1.9,1.849c0.529,0.511,1.068,1.011,1.597,1.523
			c0.119,0.116,0.158,0.063,0.227-0.048c0.683-1.098,1.559-1.994,2.733-2.568c0.598-0.293,1.233-0.442,1.901-0.455
			c0.792-0.015,1.582,0.068,2.375,0.048c0.603-0.015,1.197-0.091,1.791-0.18c0.114-0.017,0.176-0.072,0.204-0.197
			c0.093-0.409,0.21-0.812,0.303-1.22c0.041-0.179,0.1-0.153,0.199-0.053c0.133,0.135,0.269,0.267,0.403,0.401
			c0.07,0.071,0.101,0.064,0.141-0.036c0.139-0.346,0.151-0.354-0.137-0.588c-0.743-0.605-1.492-1.201-2.239-1.801
			c-0.316-0.254-0.633-0.507-0.948-0.763c-0.03-0.024-0.073-0.047-0.063-0.113c0.524-0.044,1.051-0.085,1.577-0.133
			c0.556-0.051,1.111-0.105,1.666-0.164c0.979-0.103,1.952-0.112,2.906,0.176c0.162,0.049,0.21,0.001,0.239-0.144
			c0.03-0.151,0.069-0.301,0.119-0.445c0.047-0.133,0.017-0.229-0.089-0.314c-0.647-0.523-1.279-1.065-2.009-1.477
			c-0.682-0.386-1.355-0.788-2.061-1.2c0.936-0.721,1.849-1.43,2.96-1.829c-0.002-0.018-0.004-0.035-0.006-0.053
			c-0.226-0.1-0.449-0.208-0.679-0.298c-0.125-0.049-0.123-0.093-0.027-0.165c0.857-0.64,1.678-1.333,2.664-1.782
			c0.568-0.259,1.149-0.481,1.752-0.643c0.093-0.025,0.184-0.058,0.278-0.087c-0.045-0.125-0.152-0.163-0.232-0.226
			c-0.116-0.092-0.129-0.161,0.002-0.253c0.373-0.26,0.74-0.529,1.111-0.791c0.088-0.062,0.156-0.131,0.206-0.23
			c0.456-0.889,1.052-1.682,1.682-2.454c0.497-0.609,1.034-1.181,1.588-1.733c0.693-0.692,1.402-1.37,2.148-2.008
			c0.404-0.346,0.787-0.716,1.176-1.08c0.287-0.268,0.285-0.272,0.432,0.082c0.418,1.009,0.841,2.016,1.249,3.028
			c0.072,0.178,0.145,0.196,0.309,0.128c0.807-0.338,1.619-0.665,2.459-0.916c0.898-0.268,1.813-0.458,2.735-0.621
			c0.783-0.138,1.573-0.234,2.362-0.326c0.665-0.078,1.335-0.121,2.002-0.178c1.953-0.168,3.89-0.411,5.723-1.172
			c0.977-0.406,1.864-0.955,2.705-1.595c0.881-0.67,1.843-1.223,2.763-1.837c0.338-0.225,0.33-0.204,0.43,0.21
			c0.234,0.964,0.489,1.923,0.735,2.884c0.242,0.947,0.5,1.892,0.635,2.861c0.087,0.628,0.162,1.258,0.199,1.895
			c0.042,0.717-0.002,1.429-0.03,2.139c-0.055,1.405-0.268,2.791-0.693,4.139c-0.277,0.88-0.64,1.718-1.101,2.515
			c-0.073,0.127-0.076,0.186,0.095,0.218c1.067,0.194,2.04,0.634,2.983,1.152c1.424,0.781,2.313,2.013,2.963,3.461
			c0.678,1.511,1.06,3.106,1.416,4.712c0.064,0.29,0.14,0.578,0.223,0.92c-0.331-0.294-0.619-0.55-0.907-0.806
			c0.068,0.384,0.153,0.741,0.223,1.103c0.071,0.365,0.069,0.736,0.114,1.103c0.041,0.332,0.047,0.668,0.076,1.002
			c0.009,0.106-0.026,0.104-0.105,0.072C60.677,29.687,60.61,29.605,60.508,29.593c-0.006-0.003-0.012-0.006-0.018-0.009
			C60.496,29.587,60.502,29.59,60.508,29.593z M57.093,22.899c0.099-0.027,0.174,0.038,0.255,0.071
			c0.719,0.301,1.344,0.749,1.938,1.246c0.178,0.149,0.354,0.302,0.566,0.483c-0.015-0.094-0.017-0.136-0.028-0.175
			c-0.253-0.89-0.533-1.77-0.917-2.613c-0.435-0.954-0.964-1.849-1.819-2.486c-1.122-0.836-2.377-1.389-3.765-1.621
			c-0.41-0.068-0.822-0.124-1.232-0.186c0.003-0.022,0.001-0.031,0.005-0.035c0.046-0.062,0.091-0.124,0.138-0.186
			c0.826-1.091,1.411-2.3,1.789-3.613c0.392-1.363,0.549-2.757,0.603-4.17c0.043-1.117,0.015-2.228-0.165-3.333
			c-0.263-1.621-0.745-3.189-1.139-4.778c-0.029-0.118-0.053-0.158-0.172-0.078c-0.652,0.438-1.34,0.822-1.956,1.31
			c-1.671,1.321-3.585,2.075-5.657,2.483c-1.394,0.275-2.808,0.356-4.216,0.492c-1.424,0.137-2.84,0.317-4.245,0.593
			c-1.696,0.333-3.282,0.979-4.856,1.664c-0.135,0.059-0.157,0.018-0.201-0.089c-0.397-0.964-0.798-1.927-1.2-2.89
			c-0.026-0.063-0.036-0.136-0.098-0.181c-0.014,0.006-0.028,0.008-0.038,0.017c-1.178,1.051-2.351,2.106-3.418,3.272
			c-0.869,0.949-1.68,1.942-2.286,3.084c-0.142,0.267-0.291,0.503-0.576,0.633c-0.099,0.045-0.182,0.124-0.274,0.189
			c0.227,0.228,0.226,0.228,0.078,0.498c-0.067,0.123-0.145,0.242-0.197,0.371c-0.054,0.133-0.146,0.186-0.281,0.214
			c-0.652,0.136-1.287,0.329-1.903,0.587c-0.642,0.268-1.244,0.604-1.819,1.046c0.582,0.25,1.142,0.49,1.739,0.746
			c-1.439,0.362-2.819,0.739-4.015,1.629c0.089,0.053,0.148,0.091,0.209,0.123c1.2,0.618,2.247,1.45,3.261,2.329
			c0.068,0.059,0.162,0.099,0.123,0.235c-0.188,0.659-0.367,1.321-0.544,1.984c-0.04,0.15-0.096,0.18-0.246,0.118
			c-0.605-0.249-1.233-0.408-1.887-0.473c-0.579-0.058-1.147,0.044-1.719,0.081c-0.297,0.019-0.593,0.053-0.943,0.085
			c0.171,0.139,0.299,0.243,0.428,0.348c0.902,0.736,1.832,1.438,2.661,2.26c0.11,0.109,0.134,0.159-0.018,0.254
			c-0.544,0.337-1.117,0.611-1.705,0.859c-0.115,0.048-0.154,0.011-0.202-0.087c-0.128-0.262-0.269-0.519-0.421-0.809
			c-0.105,0.376-0.206,0.71-0.288,1.049c-0.035,0.147-0.1,0.228-0.248,0.268c-0.439,0.12-0.871,0.267-1.313,0.374
			c-0.386,0.093-0.763,0.247-1.172,0.218c-0.371-0.026-0.741-0.06-1.111-0.092c-1.297-0.111-2.434,0.268-3.416,1.117
			c-0.833,0.72-1.454,1.589-1.835,2.645c-1.137-0.896-2.113-1.949-3.187-2.94c0,0.318-0.005,0.591,0.001,0.863
			c0.016,0.693-0.036,1.391,0.109,2.076c0.322,1.528,1.065,2.835,2.119,3.972c0.114,0.123,0.147,0.237,0.13,0.392
			c-0.102,0.928-0.124,1.859-0.084,2.792c0.051,1.209,0.207,2.401,0.595,3.553c0.133,0.394,0.307,0.772,0.503,1.163
			c-0.056-0.008-0.083-0.01-0.11-0.015c-1.091-0.22-2.184-0.431-3.272-0.666c-0.224-0.048-0.234,0.022-0.234,0.203
			c0.004,2.815-0.015,5.629,0.015,8.443c0.008,0.752-0.068,1.445-0.526,2.059c-0.085,0.114-0.069,0.214,0.008,0.32
			c0.42,0.578,0.601,1.218,0.508,1.933C3.904,54.27,3.92,54.419,3.92,54.567c0,2.709,0.001,5.418-0.003,8.128
			c0,0.16,0.017,0.216,0.205,0.174c0.724-0.161,1.453-0.301,2.181-0.448c1.805-0.367,3.616-0.704,5.437-0.985
			c1.551-0.239,3.104-0.466,4.663-0.652c1.246-0.149,2.493-0.285,3.742-0.402c1.165-0.109,2.333-0.194,3.501-0.273
			c1.63-0.11,3.261-0.2,4.893-0.221c0.465-0.006,0.801-0.107,1.047-0.509c0.124-0.201,0.299-0.37,0.485-0.596
			c0,0.33,0.008,0.597-0.003,0.863c-0.006,0.144,0.033,0.191,0.184,0.189c1.957-0.017,3.915-0.022,5.871,0.057
			c0.343,0.014,0.635,0.007,0.826-0.32c0.006-0.01,0.024-0.012,0.039-0.019c0.045,0.053,0.102,0.101,0.132,0.162
			c0.095,0.194,0.264,0.223,0.453,0.23c0.42,0.014,0.841,0.03,1.261,0.052c1.211,0.063,2.421,0.137,3.629,0.242
			c1.034,0.09,2.068,0.169,3.1,0.277c1.359,0.142,2.716,0.306,4.07,0.489c1.521,0.205,3.036,0.44,4.549,0.697
			c1.457,0.247,2.908,0.524,4.355,0.826c0.145,0.03,0.22,0.004,0.304-0.123c0.605-0.919,1.214-1.836,1.798-2.768
			c0.074-0.118,0.109-0.232,0.109-0.372c-0.003-2.351-0.007-4.703,0.003-7.054c0.001-0.314-0.066-0.582-0.228-0.85
			c-0.354-0.585-0.686-1.185-1.039-1.8c0.374-0.037,0.726-0.074,1.08-0.104c0.133-0.011,0.186-0.055,0.186-0.204
			c-0.006-1.516-0.005-3.032-0.002-4.548c0-0.096-0.024-0.176-0.074-0.256c-0.6-0.964-1.23-1.909-1.855-2.857
			c-0.063-0.096-0.121-0.117-0.239-0.093c-1.373,0.274-2.744,0.565-4.129,0.773c-0.386,0.058-0.671,0.185-0.8,0.57
			c-0.012,0.036-0.044,0.066-0.066,0.097c-0.113-0.086-0.113-0.18-0.073-0.302c0.11-0.339,0.21-0.682,0.305-1.025
			c0.123-0.448,0.237-0.899,0.359-1.366c0.262,0.195,0.401,0.443,0.48,0.722c0.079,0.279,0.131,0.566,0.196,0.85
			c0.025-0.007,0.041-0.007,0.049-0.015c0.039-0.04,0.077-0.082,0.113-0.125c0.452-0.541,0.826-1.13,1.113-1.775
			c0.562-1.264,0.667-2.594,0.566-3.952c-0.012-0.16-0.017-0.314,0.071-0.505c0.593,1.374,0.714,2.798,0.805,4.23
			c2.995-3.723,3.282-7.716,1.241-11.952c0.205-0.017,0.369,0.094,0.539,0.189c0.17,0.095,0.339,0.191,0.519,0.293
			c0-0.07,0.006-0.119-0.001-0.166c-0.031-0.208-0.059-0.417-0.102-0.622c-0.259-1.242-0.861-2.317-1.641-3.299
			c-0.33-0.416-0.683-0.813-1.026-1.219L57.093,22.899z"/>
		<path fill="#FEFEFE" d="M3.107,64c0.014-0.033,0.028-0.036,0.042,0C3.135,64,3.121,64,3.107,64z"/>
		<path fill="#12143C" d="M57.098,22.896c0.343,0.406,0.696,0.803,1.026,1.219c0.78,0.982,1.382,2.057,1.641,3.299
			c0.043,0.205,0.07,0.414,0.102,0.622c0.007,0.047,0.001,0.096,0.001,0.166c-0.181-0.102-0.35-0.198-0.519-0.293
			c-0.17-0.095-0.334-0.206-0.539-0.189c2.042,4.236,1.754,8.229-1.241,11.952c-0.09-1.432-0.212-2.856-0.805-4.23
			c-0.089,0.191-0.083,0.345-0.071,0.505c0.1,1.359-0.004,2.688-0.566,3.952c-0.287,0.645-0.661,1.234-1.113,1.775
			c-0.036,0.043-0.074,0.084-0.113,0.125c-0.008,0.008-0.025,0.008-0.049,0.015c-0.064-0.284-0.117-0.571-0.196-0.85
			c-0.079-0.279-0.218-0.527-0.48-0.722c-0.122,0.468-0.236,0.918-0.359,1.366c-0.094,0.344-0.194,0.686-0.305,1.025
			c-0.04,0.122-0.04,0.216,0.073,0.302c0.021-0.031,0.054-0.06,0.066-0.097c0.13-0.385,0.414-0.512,0.8-0.57
			c1.385-0.208,2.756-0.499,4.129-0.773c0.119-0.024,0.176-0.003,0.239,0.093c0.624,0.948,1.255,1.893,1.855,2.857
			c0.05,0.08,0.075,0.161,0.074,0.256c-0.002,1.516-0.004,3.032,0.002,4.548c0.001,0.149-0.052,0.193-0.186,0.204
			c-0.353,0.03-0.706,0.068-1.08,0.104c0.353,0.615,0.685,1.214,1.039,1.8c0.162,0.268,0.229,0.536,0.228,0.85
			c-0.01,2.351-0.007,4.703-0.003,7.054c0,0.14-0.035,0.254-0.109,0.372c-0.584,0.933-1.194,1.849-1.798,2.768
			c-0.084,0.127-0.159,0.153-0.304,0.123c-1.447-0.301-2.898-0.579-4.355-0.826c-1.513-0.256-3.028-0.491-4.549-0.697
			c-1.355-0.183-2.711-0.347-4.07-0.489c-1.032-0.108-2.066-0.187-3.1-0.277c-1.208-0.105-2.418-0.179-3.629-0.242
			c-0.42-0.022-0.84-0.038-1.261-0.052c-0.189-0.006-0.358-0.036-0.453-0.23c-0.03-0.061-0.088-0.109-0.132-0.162
			c-0.015,0.007-0.033,0.009-0.039,0.019c-0.191,0.327-0.483,0.334-0.826,0.32c-1.956-0.079-3.914-0.074-5.871-0.057
			c-0.151,0.001-0.19-0.045-0.184-0.189c0.011-0.266,0.003-0.533,0.003-0.863c-0.186,0.225-0.362,0.395-0.485,0.596
			c-0.247,0.401-0.582,0.503-1.047,0.509c-1.633,0.021-3.264,0.111-4.893,0.221c-1.168,0.079-2.335,0.164-3.501,0.273
			c-1.249,0.117-2.496,0.254-3.742,0.402c-1.559,0.186-3.112,0.413-4.663,0.652c-1.821,0.281-3.631,0.619-5.437,0.985
			c-0.727,0.148-1.457,0.287-2.181,0.448c-0.188,0.042-0.205-0.014-0.205-0.174c0.004-2.709,0.003-5.418,0.003-8.128
			c0-0.147-0.016-0.297,0.003-0.442c0.093-0.715-0.088-1.355-0.508-1.933c-0.077-0.106-0.093-0.206-0.008-0.32
			c0.458-0.614,0.534-1.307,0.526-2.059c-0.031-2.814-0.011-5.629-0.015-8.443c0-0.182,0.01-0.252,0.234-0.203
			c1.088,0.235,2.181,0.447,3.272,0.666c0.027,0.005,0.054,0.008,0.11,0.015c-0.196-0.391-0.37-0.768-0.503-1.163
			c-0.389-1.153-0.544-2.344-0.595-3.553c-0.039-0.932-0.018-1.863,0.084-2.792c0.017-0.154-0.016-0.269-0.13-0.392
			c-1.054-1.137-1.797-2.444-2.119-3.972C4.125,29.291,4.176,28.593,4.16,27.9c-0.006-0.272-0.001-0.545-0.001-0.863
			c1.074,0.992,2.049,2.045,3.187,2.94c0.381-1.055,1.002-1.925,1.835-2.645c0.982-0.849,2.119-1.228,3.416-1.117
			c0.37,0.032,0.74,0.065,1.111,0.092c0.408,0.029,0.786-0.124,1.172-0.218c0.442-0.107,0.874-0.254,1.313-0.374
			c0.148-0.04,0.213-0.122,0.248-0.268c0.082-0.339,0.183-0.673,0.288-1.049c0.152,0.291,0.293,0.547,0.421,0.809
			c0.048,0.098,0.087,0.135,0.202,0.087c0.588-0.247,1.162-0.522,1.705-0.859c0.152-0.094,0.128-0.145,0.018-0.254
			c-0.829-0.822-1.76-1.524-2.661-2.26c-0.128-0.105-0.257-0.209-0.428-0.348c0.35-0.032,0.646-0.066,0.943-0.085
			c0.572-0.037,1.14-0.138,1.719-0.081c0.654,0.065,1.282,0.224,1.887,0.473c0.15,0.062,0.206,0.031,0.246-0.118
			c0.176-0.663,0.355-1.325,0.544-1.984c0.039-0.136-0.054-0.176-0.123-0.235c-1.014-0.879-2.061-1.711-3.261-2.329
			c-0.062-0.032-0.12-0.07-0.209-0.123c1.195-0.891,2.575-1.267,4.015-1.629c-0.597-0.256-1.157-0.496-1.739-0.746
			c0.575-0.441,1.177-0.777,1.819-1.046c0.615-0.257,1.251-0.45,1.903-0.587c0.134-0.028,0.226-0.081,0.281-0.214
			c0.053-0.129,0.13-0.248,0.197-0.371c0.148-0.27,0.148-0.27-0.078-0.498c0.092-0.065,0.175-0.144,0.274-0.189
			c0.285-0.13,0.434-0.366,0.576-0.633c0.606-1.142,1.417-2.134,2.286-3.084c1.068-1.166,2.241-2.221,3.418-3.272
			c0.01-0.008,0.024-0.011,0.038-0.017c0.061,0.045,0.071,0.118,0.098,0.181c0.401,0.963,0.803,1.925,1.2,2.89
			c0.044,0.107,0.066,0.148,0.201,0.089c1.573-0.685,3.16-1.331,4.856-1.664c1.405-0.276,2.821-0.456,4.245-0.593
			c1.408-0.136,2.823-0.217,4.216-0.492c2.072-0.408,3.986-1.163,5.657-2.483c0.617-0.487,1.305-0.872,1.956-1.31
			c0.118-0.079,0.142-0.039,0.172,0.078c0.394,1.589,0.876,3.157,1.139,4.778c0.18,1.105,0.208,2.216,0.165,3.333
			c-0.054,1.412-0.21,2.807-0.603,4.17c-0.378,1.313-0.963,2.522-1.789,3.613c-0.047,0.061-0.092,0.124-0.138,0.186
			c-0.003,0.005-0.002,0.013-0.005,0.035c0.41,0.062,0.822,0.118,1.232,0.186c1.387,0.232,2.642,0.785,3.765,1.621
			c0.855,0.637,1.384,1.532,1.819,2.486c0.384,0.843,0.664,1.723,0.917,2.613c0.011,0.039,0.014,0.081,0.028,0.175
			c-0.212-0.181-0.388-0.334-0.566-0.483c-0.594-0.497-1.219-0.945-1.938-1.246c-0.081-0.034-0.156-0.099-0.254-0.071
			c0-0.009,0-0.018,0-0.028c-0.008,0.003-0.015,0.005-0.023,0.008C57.079,22.885,57.088,22.89,57.098,22.896z M22.098,32.67
			L22.098,32.67c0.042,0.045,0.08,0.096,0.128,0.135c0.629,0.506,1.3,0.947,2.054,1.243c0.698,0.274,0.476,0.347,1.067-0.231
			c0.046-0.032,0.095-0.059,0.137-0.095c0.68-0.597,1.381-1.168,2.101-1.716c1.634-1.243,3.431-1.663,5.425-1.063
			c0.395,0.119,0.784,0.26,1.175,0.391c0.225,0.094,0.453,0.182,0.674,0.284c0.133,0.061,0.187,0.046,0.232-0.109
			c0.227-0.8,0.21-1.616,0.181-2.433c-0.001-0.024-0.024-0.048-0.036-0.071c-0.001-0.042-0.003-0.084-0.004-0.126
			c-0.001-0.028-0.002-0.057-0.003-0.085c-0.06-0.727-0.223-1.438-0.351-2.154c-0.075-0.419-0.193-0.831-0.226-1.258l-0.002,0.002
			c0.079-0.013,0.129,0.044,0.186,0.081c0.371,0.237,0.737,0.484,1.113,0.713c0.683,0.415,1.23,0.967,1.661,1.635
			c0.094,0.145,0.185,0.167,0.322,0.086c0.074-0.019,0.149-0.035,0.222-0.057c1.087-0.341,2.203-0.543,3.339-0.594
			c1.19-0.054,2.379-0.011,3.566,0.147c1.417,0.189,2.773,0.553,4.028,1.247c1.902,1.053,3.374,2.513,4.248,4.532
			c0.095,0.22,0.208,0.434,0.33,0.687c0.265-1.245,0.52-2.441,0.776-3.638c0.174-0.714,0.366-1.427,0.175-2.171
			c-0.039-0.152,0.009-0.327-0.12-0.454c-0.205-0.201-0.408-0.405-0.62-0.599c-1.004-0.915-2.092-1.713-3.275-2.382
			c-0.204-0.116-0.32-0.288-0.358-0.516c-0.032-0.193-0.057-0.388-0.091-0.581c-0.249-1.411-0.707-2.75-1.36-4.025
			c-0.053-0.104-0.1-0.119-0.209-0.07c-0.37,0.168-0.753,0.304-1.147,0.408c-1.3,0.343-2.597,0.381-3.893-0.023
			c-0.417-0.13-0.793-0.346-1.181-0.538l0.001,0.001c-0.032-0.077-0.106-0.104-0.169-0.144c-0.17-0.146-0.34-0.293-0.509-0.439
			c-0.089-0.11,0.037-0.092,0.073-0.108c0.551-0.245,1.114-0.464,1.654-0.73c1.783-0.88,3.334-2.066,4.633-3.574
			c1.099-1.275,1.951-2.703,2.61-4.249c0.064-0.15,0.027-0.179-0.121-0.177c-0.435,0.004-0.87-0.001-1.305-0.006
			c-0.078-0.001-0.162,0.021-0.249-0.029c0.038-0.035,0.061-0.061,0.088-0.081c0.54-0.414,1.081-0.826,1.619-1.243
			c0.215-0.167,0.515-0.279,0.62-0.517c0.109-0.246,0.014-0.552-0.017-0.831c-0.047-0.424-0.091-0.849-0.136-1.274
			c-0.014-0.134-0.062-0.184-0.2-0.103c-0.169,0.1-0.348,0.182-0.522,0.272c-0.942,0.485-1.886,0.958-2.916,1.239
			c-1.44,0.394-2.918,0.539-4.394,0.701c-1.664,0.182-3.33,0.343-4.986,0.594c-1.421,0.216-2.769,0.637-4.007,1.382
			c-1.373,0.826-2.432,1.909-2.892,3.492c-0.08,0.276-0.276,0.42-0.553,0.486c-0.833,0.199-1.646,0.461-2.421,0.831
			c-1.297,0.619-2.419,1.464-3.335,2.576c-0.139,0.089-0.223,0.231-0.322,0.354c-0.976,1.211-1.703,2.564-2.252,4.015
			c-0.478,1.26-1.127,2.409-2.121,3.342c-0.281,0.264-0.591,0.489-0.916,0.73c0.241,0.151,0.475,0.276,0.681,0.443
			c0.515,0.436,0.733,0.989,0.665,1.686c-0.123-0.104-0.221-0.192-0.324-0.275c-0.404-0.324-0.81-0.644-1.308-0.817
			c-0.333-0.206-0.711-0.266-1.088-0.324c-0.134-0.021-0.086,0.072-0.054,0.133c0.153,0.289,0.308,0.576,0.463,0.864
			c0.006,0.02,0.01,0.041,0.02,0.059c0.72,1.355,1.48,2.683,2.471,3.864c0.368,0.439,0.751,0.867,1.213,1.215
			C22.066,32.643,22.082,32.657,22.098,32.67z M33.383,34.35c0.129-0.16,0.258-0.32,0.387-0.48
			c-0.015-0.014-0.029-0.029-0.044-0.043c-0.27,0.188-0.54,0.377-0.809,0.565c-0.272,0.178-0.546,0.354-0.816,0.536
			c-0.084,0.057-0.136,0.071-0.191-0.037c-0.053-0.103-0.107-0.21-0.199-0.288c-0.195-0.324-0.465-0.593-0.643-0.935
			c-0.141,0.104-0.264,0.196-0.388,0.288c-0.581,0.431-1.176,0.835-1.883,1.037c-0.079,0.023-0.156,0.071-0.24,0.017l0,0
			c0.081-0.014,0.13-0.079,0.188-0.125c0.805-0.631,1.611-1.262,2.409-1.902c0.121-0.097,0.177-0.088,0.277,0.026
			c0.306,0.348,0.706,0.598,1.007,0.952c0.059,0.07,0.093,0.048,0.146-0.011c0.163-0.183,0.319-0.371,0.437-0.588
			c0.06-0.11,0.061-0.164-0.078-0.203c-0.397-0.11-0.794-0.224-1.184-0.355c-0.693-0.232-1.362-0.184-2.05,0.057
			c-0.892,0.314-1.65,0.818-2.333,1.456c-0.16,0.15-0.328,0.291-0.52,0.46c0.345,0.086,0.647,0.169,0.953,0.237
			c0.443,0.099,0.875,0.242,1.325,0.307c0.326,0.125,0.673,0.172,1.006,0.268c0.12,0.034,0.23,0.029,0.349-0.003
			c0.747-0.206,1.497-0.398,2.253-0.565c0.078-0.017,0.166-0.02,0.223-0.099C33.101,34.73,33.243,34.541,33.383,34.35z
			 M36.381,34.483c0.076,0,0.131-0.05,0.184-0.091c1.143-0.855,1.567-2.029,1.429-3.407c-0.114-1.142-0.639-2.132-1.317-3.042
			c-0.239-0.321-0.523-0.603-0.849-0.838c-0.09-0.065-0.092-0.063-0.157,0.002c0.086,0.615,0.232,1.219,0.299,1.838
			c0.102,0.938,0.043,1.856-0.249,2.756c-0.362,1.115-0.987,2.079-1.72,2.98c-0.254,0.312-0.52,0.614-0.789,0.931
			c0.393,0.03,0.431,0.005,0.552-0.309c0.038-0.097,0.086-0.192,0.142-0.28c0.218-0.34,0.508-0.615,0.808-0.882
			c0.026-0.023,0.05-0.05,0.098-0.025c0.025,0.073-0.035,0.126-0.062,0.186c-0.075,0.167-0.147,0.335-0.162,0.519
			c-0.01,0.121,0.002,0.24,0.149,0.284c0.172,0.075,0.292-0.011,0.405-0.128c0.132-0.136,0.211-0.309,0.315-0.485
			c0.062,0.132,0.012,0.251,0.041,0.378c0.549-0.442,0.957-0.978,1.37-1.53c0.018,0.082-0.002,0.134-0.014,0.189
			c-0.084,0.355-0.299,0.64-0.486,0.941c-0.018,0.006-0.043,0.015-0.024,0.036C36.361,34.523,36.377,34.505,36.381,34.483z
			 M5.419,51.95c-0.095,0.086-0.014,0.159,0.028,0.219c0.227,0.322,0.28,0.675,0.278,1.066c-0.013,2.414-0.007,4.828-0.007,7.243
			c0,0.075,0,0.15,0,0.236c0.493-0.099,0.963-0.208,1.438-0.282c0.187-0.029,0.219-0.099,0.219-0.268
			c-0.005-2.316,0.003-4.632-0.009-6.948c-0.002-0.39,0.031-0.749,0.278-1.066c0.042-0.054,0.108-0.127,0.016-0.2
			c-0.288-0.387-0.303-0.829-0.301-1.292c0.013-2.267,0.006-4.534,0.006-6.801c0-0.112,0.018-0.213-0.147-0.242
			c-0.496-0.085-0.989-0.187-1.5-0.286c0,0.082,0,0.157,0,0.233c0,2.344-0.006,4.688,0.005,7.032
			C5.725,51.076,5.721,51.542,5.419,51.95z M9.09,51.997c-0.015,0.039-0.034,0.077-0.043,0.117c-0.348,1.58-0.7,3.159-1.041,4.741
			c-0.235,1.091-0.539,2.173-0.44,3.311c0.013,0.148,0.032,0.185,0.189,0.154c0.581-0.117,1.166-0.222,1.751-0.321
			c0.882-0.148,1.765-0.286,2.648-0.429c0.108-0.017,0.182-0.041,0.18-0.191c-0.01-0.821-0.009-1.642-0.001-2.462
			c0.002-0.153-0.058-0.172-0.182-0.159c-0.487,0.051-0.974,0.098-1.461,0.148c-0.315,0.032-0.629,0.066-0.96,0.101
			c0.275-1.204,0.549-2.379,0.812-3.557c0.108-0.483,0.248-0.959,0.317-1.45c0.011-0.026,0.025-0.051,0.031-0.078
			c0.381-1.598,0.766-3.195,1.139-4.795c0.093-0.401,0.243-0.792,0.261-1.206c0.018-0.413-0.008-0.828,0.009-1.241
			c0.007-0.168-0.069-0.199-0.2-0.218c-1.379-0.194-2.75-0.438-4.118-0.697c-0.157-0.03-0.19-0.001-0.189,0.153
			c0.006,0.891,0.008,1.782-0.001,2.672c-0.002,0.155,0.046,0.205,0.192,0.22c0.662,0.069,1.322,0.149,1.984,0.22
			c0.25,0.027,0.247,0.019,0.191,0.266C9.8,48.861,9.445,50.429,9.09,51.997z M18.35,51.953c-0.114,0.093-0.004,0.157,0.041,0.205
			c0.223,0.235,0.263,0.51,0.261,0.826c-0.012,1.838-0.006,3.675-0.006,5.513c0,0.049,0.003,0.098,0,0.147
			c-0.004,0.076,0.03,0.093,0.101,0.086c0.459-0.048,0.918-0.097,1.378-0.135c0.16-0.013,0.201-0.076,0.2-0.234
			c-0.006-1.571-0.004-3.142-0.004-4.713c0-0.072,0-0.144,0-0.216c0.039,0.015,0.048,0.031,0.054,0.048
			c0.547,1.587,1.096,3.174,1.638,4.763c0.045,0.132,0.096,0.183,0.248,0.17c0.509-0.045,1.019-0.073,1.53-0.097
			c0.14-0.007,0.161-0.045,0.116-0.172c-0.731-2.048-1.458-4.096-2.187-6.145c0.01-0.019,0.022-0.037,0.029-0.056
			c0.713-2.015,1.425-4.032,2.142-6.046c0.052-0.147-0.004-0.163-0.123-0.17c-0.497-0.029-0.994-0.054-1.489-0.098
			c-0.161-0.014-0.217,0.043-0.265,0.183c-0.491,1.442-0.986,2.882-1.485,4.321c-0.064,0.185-0.103,0.382-0.229,0.585
			c0-0.098,0-0.153,0-0.209c0-1.607-0.004-3.214,0.005-4.82c0.001-0.185-0.054-0.237-0.226-0.249
			c-0.412-0.028-0.825-0.061-1.234-0.117c-0.171-0.024-0.204,0.01-0.204,0.177c0.006,1.817-0.004,3.635,0.01,5.452
			C18.656,51.329,18.622,51.67,18.35,51.953z M23.865,51.95c-0.114,0.073-0.028,0.138,0.02,0.182
			c0.251,0.23,0.276,0.518,0.273,0.838c-0.013,1.276-0.004,2.553-0.007,3.829c0,0.118,0.024,0.213,0.104,0.304
			c0.291,0.332,0.578,0.668,0.858,1.009c0.077,0.093,0.158,0.119,0.271,0.111c0.929-0.065,1.859-0.1,2.79-0.117
			c0.098-0.002,0.165-0.025,0.23-0.106c0.289-0.36,0.584-0.717,0.885-1.067c0.075-0.087,0.099-0.172,0.099-0.282
			c-0.003-1.304,0.002-2.609-0.005-3.913c-0.001-0.186,0.034-0.335,0.163-0.475c0.067-0.072,0.179-0.136,0.159-0.267
			c-0.032-0.046-0.058-0.098-0.097-0.136c-0.186-0.176-0.23-0.388-0.227-0.642c0.012-1.269,0.004-2.538,0.008-3.807
			c0-0.128-0.035-0.222-0.118-0.319c-0.287-0.335-0.57-0.674-0.844-1.02c-0.083-0.104-0.166-0.141-0.299-0.143
			c-0.917-0.01-1.833-0.055-2.748-0.11c-0.116-0.007-0.197,0.024-0.272,0.115c-0.262,0.319-0.524,0.639-0.801,0.946
			c-0.118,0.131-0.151,0.265-0.151,0.434c0.006,1.227-0.008,2.454,0.01,3.68C24.171,51.359,24.138,51.686,23.865,51.95z
			 M36.837,51.951c-0.111,0.079-0.019,0.139,0.028,0.183c0.228,0.215,0.267,0.476,0.264,0.779c-0.014,1.248-0.005,2.497-0.008,3.745
			c0,0.124,0.02,0.228,0.103,0.328c0.299,0.362,0.591,0.729,0.883,1.097c0.057,0.072,0.118,0.102,0.212,0.106
			c0.93,0.031,1.86,0.082,2.788,0.162c0.134,0.011,0.222-0.024,0.306-0.127c0.266-0.325,0.535-0.648,0.814-0.963
			c0.095-0.107,0.134-0.212,0.133-0.355c-0.005-1.403-0.001-2.806-0.006-4.208c-0.001-0.142,0.038-0.252,0.12-0.364
			c0.077-0.105,0.209-0.183,0.202-0.34c-0.035-0.052-0.064-0.11-0.106-0.156c-0.169-0.185-0.221-0.394-0.219-0.648
			c0.013-1.354,0.004-2.709,0.009-4.063c0-0.127-0.031-0.225-0.116-0.321c-0.286-0.327-0.567-0.659-0.841-0.996
			c-0.079-0.097-0.154-0.131-0.282-0.121c-0.922,0.072-1.845,0.131-2.769,0.158c-0.107,0.003-0.182,0.033-0.25,0.12
			c-0.28,0.36-0.563,0.717-0.853,1.069c-0.085,0.103-0.121,0.206-0.121,0.34c0.005,1.221-0.008,2.442,0.01,3.663
			C37.142,51.391,37.104,51.701,36.837,51.951z M17.219,27.733c-0.01-0.004-0.019-0.009-0.03-0.01c-0.003,0-0.01,0.009-0.012,0.015
			c-0.121,0.512-0.205,1.029-0.221,1.557c-0.048,1.618,0.253,3.179,0.809,4.69c0.816,2.217,2.285,3.751,4.628,4.358
			c0.605,0.157,1.194,0.088,1.839-0.049c-0.809-0.149-1.703-0.531-1.942-0.933c1.061,0.294,2.114,0.529,3.247,0.523
			c-0.184-0.178-0.358-0.312-0.413-0.533c0.01-0.012,0.02-0.023,0.029-0.035c0.293,0.191,0.613,0.296,0.961,0.323
			c0.239,0.019,0.401-0.081,0.499-0.296c0.106-0.182,0.035-0.337-0.08-0.479c-0.199-0.245-0.466-0.399-0.742-0.54
			c-0.152-0.078-0.305-0.152-0.506-0.252c0.557-0.016,1.053,0.013,1.543,0.106c0.51,0.097,1.021,0.206,1.404,0.603
			c0.043,0.044,0.077,0.044,0.127,0.015c0.169-0.099,0.345-0.187,0.494-0.317c0.034-0.029,0.095-0.053,0.069-0.113
			c-0.019-0.045-0.073-0.029-0.113-0.035c-1.308-0.19-2.596-0.465-3.848-0.892c-1.78-0.607-3.379-1.509-4.68-2.895
			c-0.948-1.01-1.654-2.183-2.305-3.394C17.723,28.679,17.503,28.189,17.219,27.733z M36.288,51.996
			c0.177-0.294,0.35-0.59,0.533-0.88c0.074-0.117,0.107-0.233,0.106-0.373c-0.005-1.081-0.008-2.162,0.002-3.242
			c0.002-0.219-0.053-0.384-0.205-0.542c-0.223-0.232-0.433-0.479-0.628-0.735c-0.156-0.205-0.322-0.28-0.596-0.27
			c-1.142,0.038-2.286,0.042-3.429,0.048c-0.166,0.001-0.205,0.044-0.205,0.207c0.006,1.572-0.005,3.144,0.01,4.716
			c0.004,0.402,0,0.779-0.325,1.071c-0.046,0.118,0.067,0.162,0.12,0.214c0.169,0.166,0.204,0.357,0.203,0.586
			c-0.008,1.676-0.002,3.352-0.008,5.028c0,0.156,0.027,0.212,0.201,0.213c1.205,0.006,2.41,0.004,3.614,0.061
			c0.124,0.006,0.205-0.034,0.285-0.131c0.267-0.324,0.539-0.645,0.823-0.955c0.104-0.113,0.137-0.226,0.136-0.374
			c-0.005-1.087-0.006-2.174,0.001-3.261c0.001-0.211-0.039-0.391-0.158-0.569C36.595,52.546,36.447,52.267,36.288,51.996z
			 M43.242,51.997c-0.013,0.039-0.033,0.078-0.038,0.118c-0.117,0.852-0.229,1.704-0.348,2.556
			c-0.167,1.205-0.337,2.409-0.509,3.613c-0.014,0.097-0.029,0.151,0.104,0.16c0.461,0.032,0.921,0.072,1.38,0.121
			c0.153,0.016,0.224-0.023,0.244-0.184c0.111-0.853,0.231-1.704,0.342-2.556c0.015-0.113,0.038-0.152,0.167-0.141
			c0.37,0.032,0.741,0.05,1.112,0.06c0.438,0.012,0.452,0.004,0.513,0.431c0.115,0.803,0.221,1.607,0.312,2.413
			c0.022,0.195,0.093,0.259,0.277,0.275c0.425,0.036,0.851,0.074,1.272,0.142c0.179,0.029,0.203-0.014,0.182-0.169
			c-0.108-0.818-0.213-1.637-0.318-2.455c-0.105-0.818-0.207-1.637-0.315-2.455c-0.085-0.644-0.177-1.288-0.265-1.931
			c-0.289-2.214-0.58-4.427-0.865-6.641c-0.015-0.115-0.05-0.131-0.157-0.119c-0.508,0.057-1.018,0.097-1.525,0.158
			c-0.222,0.027-0.522-0.049-0.645,0.096c-0.127,0.15-0.092,0.438-0.124,0.666c-0.176,1.276-0.352,2.551-0.526,3.827
			C43.42,50.652,43.332,51.325,43.242,51.997z M13.427,51.997c-0.068,0.123-0.043,0.262-0.06,0.392
			c-0.098,0.756-0.189,1.513-0.279,2.27c-0.091,0.757-0.178,1.515-0.267,2.272c-0.094,0.806-0.185,1.612-0.287,2.417
			c-0.017,0.133,0.022,0.161,0.138,0.143c0.428-0.065,0.855-0.153,1.286-0.184c0.25-0.018,0.283-0.144,0.305-0.337
			c0.11-0.952,0.227-1.903,0.338-2.855c0.01-0.09,0.046-0.114,0.132-0.119c0.454-0.025,0.91-0.043,1.362-0.094
			c0.207-0.023,0.256,0.05,0.277,0.23c0.108,0.895,0.226,1.79,0.338,2.685c0.012,0.096,0.044,0.132,0.147,0.12
			c0.479-0.058,0.959-0.113,1.439-0.159c0.127-0.012,0.151-0.066,0.135-0.176c-0.06-0.436-0.116-0.873-0.176-1.31
			c-0.122-0.9-0.246-1.801-0.368-2.701c-0.118-0.866-0.235-1.731-0.352-2.597c-0.095-0.743-0.19-1.487-0.286-2.23
			c-0.194-1.501-0.391-3.001-0.579-4.502c-0.018-0.141-0.074-0.188-0.204-0.204c-0.674-0.083-1.348-0.17-2.021-0.26
			c-0.111-0.015-0.139,0.021-0.151,0.128c-0.046,0.418-0.105,0.834-0.157,1.251c-0.135,1.084-0.272,2.169-0.404,3.253
			C13.629,50.286,13.529,51.141,13.427,51.997z M58.784,51.951c-0.272-0.473-0.547-0.944-0.814-1.419
			c-0.052-0.093-0.121-0.101-0.208-0.097c-0.644,0.025-1.288,0.046-1.932,0.077c-0.135,0.006-0.182-0.024-0.181-0.169
			c0.006-1.094,0.006-2.189-0.001-3.284c-0.001-0.143,0.054-0.177,0.177-0.19c0.487-0.052,0.974-0.11,1.482-0.167
			c0,0.364,0.007,0.727-0.003,1.09c-0.004,0.14,0.035,0.18,0.174,0.164c0.439-0.049,0.878-0.09,1.318-0.126
			c0.127-0.01,0.157-0.063,0.156-0.186c-0.006-0.814-0.004-1.628-0.001-2.442c0-0.089-0.025-0.162-0.072-0.234
			c-0.298-0.457-0.597-0.915-0.888-1.376c-0.057-0.09-0.115-0.125-0.22-0.104c-0.859,0.165-1.718,0.328-2.578,0.487
			c-0.099,0.018-0.155,0.062-0.205,0.149c-0.301,0.529-0.608,1.054-0.918,1.578c-0.054,0.091-0.061,0.182-0.061,0.281
			c0.001,1.894,0.002,3.789-0.002,5.683c0,0.126,0.024,0.234,0.107,0.329c0.295,0.475,0.594,0.947,0.882,1.425
			c0.062,0.103,0.144,0.089,0.233,0.093c0.63,0.025,1.26,0.058,1.89,0.069c0.164,0.003,0.193,0.05,0.192,0.201
			c-0.006,1.109-0.009,2.218,0.002,3.327c0.002,0.2-0.078,0.21-0.231,0.189c-0.416-0.057-0.832-0.118-1.25-0.153
			c-0.158-0.013-0.175-0.071-0.171-0.203c0.008-0.316-0.007-0.632,0.007-0.947c0.007-0.163-0.057-0.201-0.203-0.209
			c-0.426-0.023-0.853-0.052-1.278-0.095c-0.159-0.016-0.203,0.02-0.201,0.182c0.008,0.73,0.005,1.46,0.002,2.19
			c0,0.102,0.025,0.189,0.077,0.276c0.31,0.523,0.618,1.048,0.919,1.576c0.051,0.089,0.111,0.13,0.206,0.147
			c0.858,0.159,1.716,0.32,2.573,0.483c0.111,0.021,0.176-0.006,0.239-0.106c0.279-0.445,0.566-0.884,0.854-1.323
			c0.068-0.103,0.098-0.207,0.098-0.332c-0.004-2.112-0.005-4.225,0.001-6.337C58.953,52.256,58.914,52.092,58.784,51.951z
			 M48.146,51.995c-0.031,0.114,0.065,0.175,0.118,0.243c0.155,0.196,0.206,0.405,0.205,0.657c-0.01,1.965-0.005,3.929-0.005,5.894
			c0,0.049,0.003,0.098-0.001,0.147c-0.007,0.086,0.026,0.124,0.116,0.135c0.444,0.053,0.889,0.106,1.331,0.172
			c0.183,0.027,0.235-0.016,0.234-0.211c-0.008-1.817-0.006-3.634-0.002-5.452c0-0.073-0.064-0.214,0.098-0.197
			c0.143,0.015,0.348-0.109,0.407,0.151c0.268,1.176,0.54,2.352,0.808,3.528c0.175,0.769,0.343,1.539,0.518,2.308
			c0.019,0.082,0.024,0.174,0.15,0.192c0.551,0.079,1.101,0.168,1.667,0.256c-0.01-0.082-0.013-0.15-0.027-0.216
			c-0.449-2.029-0.898-4.058-1.355-6.085c-0.025-0.112,0-0.184,0.053-0.269c0.258-0.415,0.544-0.812,0.768-1.248
			c0.194-0.235,0.269-0.494,0.266-0.808c-0.015-1.705-0.008-3.41-0.005-5.115c0-0.133-0.03-0.242-0.109-0.349
			c-0.262-0.355-0.532-0.705-0.771-1.076c-0.126-0.197-0.265-0.214-0.47-0.18c-1.147,0.19-2.299,0.349-3.453,0.483
			c-0.178,0.021-0.229,0.068-0.228,0.25c0.008,1.859-0.003,3.719,0.01,5.578C48.472,51.226,48.47,51.649,48.146,51.995z
			 M9.007,39.235c0.251,1.143,0.707,2.191,1.455,3.101c0.047,0.057,0.106,0.064,0.166,0.075c0.192,0.037,0.383,0.076,0.577,0.105
			c1.456,0.219,2.91,0.448,4.371,0.628c0.967,0.115,1.932,0.247,2.902,0.331c0.597,0.061,1.194,0.129,1.792,0.183
			c0.717,0.065,1.436,0.104,2.151,0.181c0.721,0.078,1.424,0.099,2.133-0.129c0.936-0.301,1.857-0.622,2.696-1.145
			c0.086-0.054,0.145-0.098,0.095-0.214c-0.23-0.533-0.467-1.062-0.777-1.555c-0.251-0.494-0.566-0.947-0.876-1.404
			c-0.053-0.079-0.222-0.166-0.099-0.271c0.079-0.068,0.172,0.073,0.248,0.134c0.605,0.486,1.208,0.975,1.812,1.463
			c0.523,0.553,1.119,1.017,1.753,1.434c1.05,0.69,2.188,1.193,3.383,1.571c0.787,0.249,1.565,0.533,2.418,0.45
			c0.41-0.04,0.826-0.026,1.238-0.048c0.156-0.008,0.263,0.038,0.356,0.167c0.162,0.223,0.181,0.219,0.356-0.011
			c0.072-0.094,0.129-0.189,0.276-0.194c0.7-0.024,1.4-0.053,2.099-0.09c0.72-0.038,1.442-0.063,2.158-0.142
			c0.287-0.032,0.47,0.03,0.619,0.257c0.088,0.135,0.193,0.094,0.191-0.03c-0.006-0.3,0.191-0.304,0.394-0.32
			c0.084-0.007,0.169-0.004,0.252-0.017c0.329-0.053,0.664-0.027,0.984-0.178c1.195-0.564,2.244-1.324,3.128-2.304
			c0.531-0.588,0.948-1.249,1.208-2.003c0.344-0.999,0.371-2.014,0.174-3.045c-0.305-1.597-0.982-3.003-2.131-4.165
			c-0.705-0.714-1.529-1.268-2.404-1.753c-1.087-0.602-2.256-0.992-3.431-1.368c-0.779-0.249-1.579-0.293-2.389-0.261
			c-0.135,0.005-0.158,0.047-0.099,0.164c0.225,0.446,0.367,0.922,0.495,1.402c0.212,1.083,0.098,2.121-0.434,3.098
			c-0.069,0.127,0.019,0.156,0.09,0.206c0.584,0.414,1.168,0.826,1.75,1.241c0.129,0.092,0.249,0.196,0.419,0.33
			c-7.622,0.95-14.83,3.022-21.509,6.779c0.007-0.071,0.026-0.115,0.047-0.158c0.451-0.937,0.97-1.834,1.58-2.678
			c0.058-0.08,0.153-0.158-0.022-0.233c-0.675-0.289-1.287-0.681-1.853-1.175c-0.323,0.671-0.64,1.333-1.252,1.872
			c0.019-0.132,0.024-0.205,0.04-0.276c0.161-0.724,0.354-1.442,0.459-2.178c0.014-0.095,0.018-0.171-0.049-0.253
			c-0.988-1.219-1.563-2.63-1.92-4.142c-0.025-0.104-0.068-0.193-0.149-0.27c-0.522-0.492-0.983-1.039-1.413-1.611
			c-0.484-0.645-0.952-1.299-1.61-1.793c-0.71-0.533-1.356-0.549-2.052-0.003c-0.683,0.536-1.112,1.245-1.329,2.07
			c-0.502,1.902-0.84,3.828-0.777,5.808C8.721,37.668,8.771,38.464,9.007,39.235z M22.865,14.491
			c0.03,0.032,0.041,0.051,0.058,0.061c0.596,0.354,1.195,0.705,1.789,1.064c0.123,0.074,0.205,0.033,0.301-0.039
			c0.601-0.449,1.204-0.895,1.805-1.343c0.041-0.03,0.106-0.049,0.091-0.124C25.523,13.767,24.199,14.058,22.865,14.491z
			 M20.273,16.971c0.651,0.535,1.263,1.034,1.87,1.54c0.117,0.098,0.169,0.026,0.235-0.051c0.28-0.323,0.56-0.645,0.84-0.967
			c0.184-0.211,0.371-0.42,0.549-0.636c0.058-0.07,0.184-0.137,0.123-0.241c-0.05-0.084-0.166-0.022-0.253-0.017
			c-0.063,0.004-0.125,0.015-0.187,0.022C22.408,16.737,21.367,16.851,20.273,16.971z M6.667,32.945
			c0.134-0.67,0.26-1.329,0.413-1.983c0.025-0.106-0.042-0.136-0.101-0.181c-0.428-0.329-0.841-0.678-1.237-1.045
			c-0.223-0.207-0.447-0.414-0.711-0.66C5.122,30.599,5.794,31.812,6.667,32.945z M26.262,12.256
			c0.416,0.385,0.809,0.734,1.182,1.102c0.149,0.147,0.273,0.147,0.462,0.089c0.676-0.208,1.278-0.567,1.9-0.886
			c0.075-0.038,0.173-0.043,0.231-0.135C28.798,12.057,27.556,12.043,26.262,12.256z M29.237,9.146
			c-0.583,0.669-1.319,1.147-1.894,1.798c0.023,0.015,0.034,0.028,0.044,0.028c0.77-0.015,1.534,0.059,2.296,0.163
			c0.166,0.023,0.126-0.088,0.107-0.173C29.651,10.35,29.481,9.745,29.237,9.146z M17.973,22.153c0.012,0.04,0.012,0.058,0.02,0.065
			c0.595,0.5,1.194,0.997,1.731,1.562c0.058,0.061,0.103,0.053,0.156-0.007c0.186-0.21,0.367-0.426,0.47-0.691
			c0.202-0.52,0.155-0.398-0.247-0.566c-0.052-0.021-0.105-0.04-0.158-0.058C19.312,22.243,18.666,22.113,17.973,22.153z
			 M15.587,29.506c0.024-0.006,0.049-0.012,0.073-0.018c0-0.236-0.006-0.471,0.003-0.706c0.004-0.114-0.041-0.178-0.13-0.24
			c-0.206-0.145-0.404-0.301-0.607-0.452c-0.175-0.13-0.352-0.258-0.558-0.333c-0.079-0.029-0.186-0.11-0.25-0.023
			c-0.055,0.075,0.05,0.15,0.098,0.212c0.142,0.182,0.292,0.359,0.445,0.531C14.968,28.823,15.278,29.164,15.587,29.506z
			 M15.16,27.386c0.248,0.221,0.398,0.46,0.59,0.696c0.052-0.239,0.095-0.442,0.143-0.644c0.019-0.078,0.007-0.139-0.081-0.116
			C15.615,27.373,15.412,27.344,15.16,27.386z M35.647,27.017l0.007-0.013l-0.014,0L35.647,27.017z"/>
		<path fill="#FEFEFE" d="M60.508,29.593c-0.006-0.003-0.012-0.006-0.018-0.009C60.495,29.587,60.501,29.59,60.508,29.593
			C60.507,29.593,60.508,29.593,60.508,29.593z"/>
		<path fill="#C22135" d="M37.931,27.898c-0.137,0.081-0.228,0.059-0.322-0.086c-0.431-0.668-0.978-1.219-1.661-1.635
			c-0.376-0.229-0.742-0.476-1.113-0.713c-0.057-0.037-0.107-0.094-0.186-0.081c-0.005-0.004-0.01-0.007-0.016-0.011
			c0.006,0.003,0.012,0.006,0.018,0.009c0.033,0.427,0.151,0.839,0.226,1.258c0.128,0.716,0.291,1.427,0.351,2.154
			c-0.032,0.03-0.032,0.058,0.003,0.085c0.001,0.042,0.003,0.084,0.004,0.126c-0.067,0.031-0.068,0.093-0.082,0.156
			c-0.07,0.318-0.144,0.634-0.248,0.944c-0.155,0.462-0.403,0.865-0.72,1.231c-0.392-0.131-0.78-0.272-1.175-0.391
			c-1.994-0.6-3.791-0.18-5.425,1.063c-0.72,0.548-1.421,1.119-2.101,1.716c-0.042,0.036-0.091,0.064-0.137,0.095
			c-0.021-0.017-0.04-0.043-0.063-0.048c-0.836-0.168-1.637-0.44-2.421-0.775c-0.254-0.109-0.481-0.286-0.765-0.324
			c0,0,0.001,0,0.001,0c-0.016-0.013-0.032-0.027-0.048-0.04c-0.461-0.348-0.844-0.776-1.213-1.215
			c-0.99-1.181-1.751-2.51-2.471-3.864c-0.01-0.018-0.013-0.04-0.02-0.059c0.056-0.089,0.144-0.147,0.216-0.219
			c0.152-0.153,0.381-0.229,0.463-0.454c0.498,0.174,0.904,0.493,1.308,0.817c0.103,0.082,0.201,0.17,0.324,0.275
			c0.068-0.696-0.149-1.249-0.665-1.686c0.003-0.044,0.018-0.08,0.055-0.108c0.21-0.162,0.425-0.319,0.629-0.488
			c0.526-0.436,1.014-0.907,1.276-1.558c0.446-1.11,0.856-2.234,1.324-3.335c0.406-0.954,0.827-1.9,1.34-2.803
			c0.109-0.191,0.284-0.353,0.307-0.589c0.916-1.112,2.038-1.957,3.335-2.576c0.775-0.37,1.588-0.632,2.421-0.831
			c0.277-0.066,0.473-0.21,0.553-0.486c0.459-1.582,1.519-2.666,2.892-3.492c1.238-0.745,2.587-1.166,4.007-1.382
			c1.656-0.251,3.322-0.412,4.986-0.594c1.475-0.162,2.953-0.307,4.394-0.701c1.03-0.282,1.975-0.755,2.916-1.239
			c0.175-0.09,0.354-0.172,0.522-0.272c0.137-0.081,0.185-0.031,0.2,0.103c0.046,0.425,0.089,0.849,0.136,1.274
			c0.031,0.279,0.126,0.585,0.017,0.831c-0.106,0.237-0.405,0.35-0.62,0.517c-0.538,0.417-1.079,0.828-1.619,1.243
			c-0.027,0.021-0.05,0.046-0.088,0.081c0.088,0.05,0.171,0.028,0.249,0.029c0.435,0.005,0.87,0.01,1.305,0.006
			c0.148-0.001,0.185,0.027,0.121,0.177c-0.66,1.546-1.512,2.974-2.61,4.249c-1.299,1.508-2.851,2.694-4.633,3.574
			c-0.54,0.266-1.103,0.486-1.654,0.73c-0.036,0.016-0.161-0.002-0.073,0.108c-0.025,0.399,0.055,0.795,0.042,1.194
			c-0.007,0.202-0.036,0.403-0.038,0.605c-0.005,0.462-0.064,0.919-0.146,1.371c-0.232,1.276-0.653,2.483-1.359,3.581
			c-0.491,0.765-1.09,1.432-1.772,2.031C38.248,27.612,38.04,27.701,37.931,27.898z M31.582,27.621
			c0.606-0.372,1.146-0.83,1.653-1.324c0.739-0.72,1.361-1.53,1.744-2.5c0.078-0.198,0.143-0.138,0.227-0.018
			c0.114,0.16,0.213,0.328,0.297,0.507c0.136,0.29,0.225,0.598,0.35,0.923c0.029-0.088,0.05-0.146,0.068-0.206
			c0.196-0.665,0.392-1.33,0.586-1.996c0.069-0.236,0.107-0.252,0.304-0.095c0.252,0.2,0.419,0.469,0.578,0.743
			c0.082,0.141,0.157,0.286,0.236,0.431c1.1-2.437,1.296-4.917,0.485-7.461c0.114,0.967,0.165,1.936,0.078,2.908
			c-0.087,0.97-0.273,1.918-0.615,2.871c-0.317-0.511-0.616-0.993-0.939-1.512c-0.291,0.852-0.566,1.657-0.856,2.506
			c-0.306-0.586-0.591-1.13-0.893-1.708c-0.145,0.416-0.269,0.794-0.407,1.167c-0.486,1.316-1.107,2.559-1.976,3.67
			c-0.294,0.376-0.633,0.711-0.942,1.073c-0.006,0.013-0.012,0.026-0.018,0.04C31.555,27.632,31.569,27.626,31.582,27.621z
			 M49.769,7.527c0.016-0.015,0.031-0.03,0.047-0.045c0.081-0.003,0.091-0.074,0.122-0.126c0.005-0.002,0.01-0.003,0.014-0.007
			c0.002-0.002,0.002-0.007,0.003-0.011c-0.006,0.006-0.011,0.012-0.017,0.017c-0.285,0.052-0.534,0.201-0.805,0.292
			c-1.352,0.454-2.741,0.767-4.132,1.069c-1.101,0.239-2.217,0.351-3.337,0.398c-0.846,0.035-1.685,0.098-2.514,0.263
			c-1.545,0.307-3.009,0.811-4.254,1.819c-0.371,0.3-0.714,0.645-0.953,1.055c-0.316,0.543-0.232,1.121,0.018,1.673
			c0.062,0.138,0.081,0.32,0.261,0.383c0.139,0.384,0.332,0.741,0.601,1.049c0.33,0.378,0.664,0.754,1.135,0.969
			c0.002,0.005,0.003,0.011,0.006,0.014c0.002,0.002,0.007,0.001,0.011,0.001c-0.007-0.004-0.013-0.009-0.02-0.013
			c0.02-0.072-0.013-0.137-0.027-0.205c-0.1-0.46-0.188-0.919-0.081-1.392c0.154-0.681,0.611-1.12,1.167-1.477
			c1.127-0.725,2.384-1.101,3.686-1.348c1.161-0.221,2.349-0.296,3.492-0.617c0.104-0.029,0.131,0.016,0.157,0.106
			c0.088,0.312,0.07,0.624,0.004,0.935c-0.177,0.831-0.586,1.555-1.038,2.26c-0.494,0.769-1.077,1.468-1.67,2.159
			c-0.005,0.003-0.011,0.004-0.015,0.008c-0.002,0.002-0.001,0.007-0.002,0.011c0.005-0.007,0.009-0.014,0.014-0.021
			c0.081,0.021,0.152-0.017,0.224-0.041c0.658-0.226,1.294-0.501,1.888-0.864c2.073-1.263,3.206-3.094,3.317-5.533
			c0.007-0.158,0.048-0.252,0.184-0.338c1.01-0.638,1.778-1.528,2.519-2.445C49.77,7.526,49.769,7.527,49.769,7.527z M32.849,15.382
			c-0.046-0.011-0.06-0.019-0.072-0.016c-1.707,0.411-3.32,1.031-4.689,2.168c-0.943,0.783-1.746,1.685-2.236,2.827
			c-0.262,0.611-0.501,1.233-0.764,1.844c-0.304,0.706-0.665,1.377-1.278,1.875c-0.249,0.203-0.532,0.349-0.85,0.505
			c0.106,0.056,0.178,0.094,0.25,0.134c0.424,0.233,0.882,0.412,1.258,0.718c0.703,0.572,1.506,0.888,2.398,0.975
			c1.018,0.099,2.001-0.026,2.909-0.536c0.108-0.061,0.228-0.115,0.321-0.255c-0.191,0.029-0.349,0.054-0.507,0.077
			c-0.665,0.094-1.328,0.214-2.004,0.182c-0.405-0.019-0.769-0.152-1.106-0.451c0.54,0.079,1.043,0.087,1.547,0.092
			c0.529,0.006,0.898-0.212,1.114-0.699c0.101-0.229,0.107-0.228-0.156-0.239c-0.608-0.025-1.217-0.06-1.825-0.078
			c-0.16-0.005-0.224-0.073-0.211-0.213c0.015-0.167,0.155-0.087,0.23-0.08c0.839,0.07,1.577-0.173,2.23-0.697
			c0.312-0.251,0.597-0.531,0.871-0.823c0.336-0.358,0.665-0.724,1.069-1.006c0.135-0.094,0.157-0.195,0.137-0.336
			c-0.041-0.298-0.076-0.596-0.118-0.894c-0.147-1.039-0.391-2.048-0.92-2.969c-0.187-0.327-0.183-0.333,0.092-0.604
			c0.496-0.488,1.102-0.813,1.704-1.146C32.442,15.627,32.655,15.54,32.849,15.382z M31.79,22.513
			c-0.153,0.039-0.236,0.135-0.334,0.208c-0.322,0.241-0.646,0.48-0.96,0.73c-0.049,0.039-0.199,0.079-0.087,0.201
			c0.216,0.235,0.739,0.251,0.961,0.024C31.682,23.358,31.686,22.929,31.79,22.513z M31.473,27.689
			c0.004-0.003,0.009-0.007,0.013-0.01c-0.004-0.004-0.008-0.011-0.012-0.011c-0.004,0-0.009,0.006-0.013,0.009
			C31.465,27.681,31.469,27.685,31.473,27.689z"/>
		<path fill="#C62136" d="M27.652,40.716c-0.604-0.488-1.207-0.977-1.812-1.463c-0.076-0.061-0.169-0.201-0.248-0.134
			c-0.123,0.105,0.046,0.192,0.099,0.271c0.31,0.457,0.625,0.91,0.876,1.404c-0.098,0.089-0.193,0.182-0.296,0.266
			c-0.756,0.618-1.612,1.056-2.528,1.381c-1.642,0.582-3.344,0.859-5.078,0.965c-0.072,0.004-0.141,0.003-0.188,0.069
			c-0.97-0.084-1.935-0.216-2.902-0.331c0.012-0.146,0.155-0.171,0.238-0.248c0.555-0.52,0.974-1.135,1.282-1.827
			c0.137-0.307,0.244-0.627,0.312-0.96c-0.056,0.029-0.1,0.063-0.135,0.105c-0.504,0.609-1.091,1.124-1.778,1.517
			c-1.139,0.651-2.313,0.732-3.514,0.174c-1.048-0.487-1.851-1.265-2.557-2.158c-0.136-0.172-0.227-0.383-0.417-0.512
			c-0.236-0.772-0.286-1.567-0.311-2.367c-0.063-1.979,0.275-3.906,0.777-5.808c0.218-0.826,0.647-1.534,1.329-2.07
			c0.695-0.546,1.342-0.53,2.052,0.003c0.658,0.494,1.125,1.148,1.61,1.793c0.43,0.573,0.891,1.119,1.413,1.611
			c0.081,0.077,0.125,0.166,0.149,0.27c0.357,1.512,0.932,2.923,1.92,4.142c0.066,0.082,0.062,0.158,0.049,0.253
			c-0.106,0.736-0.298,1.454-0.459,2.178c-0.016,0.071-0.021,0.145-0.04,0.276c0.612-0.539,0.929-1.202,1.252-1.872
			c0.566,0.494,1.178,0.886,1.853,1.175c0.175,0.075,0.08,0.152,0.022,0.233c-0.61,0.844-1.129,1.741-1.58,2.678
			c-0.021,0.043-0.04,0.087-0.047,0.158c6.679-3.757,13.887-5.829,21.509-6.779c-0.17-0.135-0.29-0.238-0.419-0.33
			c-0.582-0.415-1.167-0.827-1.75-1.241c-0.071-0.05-0.159-0.079-0.09-0.206c0.533-0.977,0.646-2.015,0.435-3.098
			c0.037-0.047,0.076-0.021,0.111,0c0.512,0.304,0.996,0.65,1.437,1.048c0.635,0.573,1.145,1.241,1.487,2.033
			c0.321,0.743,0.37,1.525,0.287,2.307c-0.092,0.87-0.418,1.672-0.841,2.44c-0.649,1.179-1.553,2.093-2.741,2.722
			c-1.248,0.661-2.599,0.922-3.994,0.974c-0.53,0.02-1.062,0.018-1.595-0.026c-0.487-0.04-0.975-0.075-1.455-0.15
			c-0.874-0.138-1.741-0.319-2.596-0.555C28.404,40.923,28.043,40.762,27.652,40.716z M9.72,37.804
			c0.002,0.024,0.01,0.043,0.039,0.046c0.082,0.274,0.261,0.491,0.426,0.715c0.304,0.413,0.666,0.76,1.153,0.951
			c0.411,0.162,0.718,0.021,0.866-0.396c0.078-0.219,0.12-0.446,0.122-0.679c0.009-1.116-0.31-2.14-0.866-3.099
			c-0.27-0.466-0.627-0.841-1.126-1.067c-0.314-0.142-0.582-0.102-0.778,0.143c-0.309,0.386-0.374,0.851-0.415,1.323
			c0.175-0.361,0.276-0.762,0.601-1.049c0.01,0.032,0.02,0.047,0.016,0.057c-0.201,0.584-0.147,1.174-0.045,1.765
			c0.12,0.69,0.378,1.331,0.691,1.953c-0.01,0.009-0.019,0.019-0.029,0.029c-0.252-0.172-0.387-0.454-0.613-0.651
			c-0.004-0.026-0.014-0.045-0.046-0.039c-0.002-0.019-0.004-0.037-0.005-0.056c-0.008,0.003-0.016,0.006-0.024,0.009
			C9.698,37.775,9.709,37.789,9.72,37.804z M11.74,33.888c0.186-0.429,0.32-0.882,0.578-1.279c0.125-0.192,0.229-0.405,0.453-0.51
			c0.011,0.01,0.022,0.02,0.033,0.03c-0.152,0.395-0.247,0.803-0.258,1.227c-0.045,1.74,0.424,3.349,1.239,4.871
			c0.032,0.06,0.099,0.114,0.066,0.233c-0.462-0.445-0.833-0.936-1.232-1.402c0.299,0.618,0.653,1.192,1.101,1.711
			c0.476,0.551,1.025,0.977,1.721,1.202c0.289,0.094,0.7-0.033,0.889-0.269c0.358-0.449,0.438-0.983,0.469-1.531
			c0.042-0.739-0.047-1.467-0.218-2.184c-0.301-1.259-0.759-2.449-1.556-3.485c-0.393-0.511-0.89-0.894-1.493-1.124
			c-0.428-0.163-0.829-0.043-1.105,0.322c-0.487,0.646-0.641,1.402-0.685,2.19c-0.004,0.004-0.007,0.008-0.011,0.013
			C11.734,33.898,11.737,33.893,11.74,33.888z"/>
		<path fill="#941D2A" d="M27.652,40.716c0.392,0.046,0.752,0.206,1.128,0.31c0.855,0.236,1.722,0.417,2.596,0.555
			c0.48,0.076,0.969,0.111,1.455,0.15c0.533,0.044,1.065,0.046,1.595,0.026c1.395-0.052,2.745-0.313,3.994-0.974
			c1.189-0.629,2.092-1.544,2.741-2.722c0.423-0.768,0.749-1.57,0.841-2.44c0.083-0.782,0.034-1.564-0.287-2.307
			c-0.342-0.792-0.852-1.461-1.487-2.033c-0.441-0.398-0.925-0.744-1.437-1.048c-0.035-0.021-0.074-0.047-0.111,0
			c-0.129-0.48-0.27-0.956-0.495-1.402c-0.059-0.118-0.037-0.159,0.099-0.164c0.81-0.033,1.611,0.011,2.389,0.261
			c1.175,0.376,2.344,0.766,3.431,1.368c0.876,0.485,1.699,1.039,2.404,1.753c1.149,1.162,1.826,2.568,2.131,4.165
			c0.197,1.031,0.169,2.046-0.174,3.045c-0.26,0.754-0.677,1.415-1.208,2.003c-0.885,0.981-1.933,1.74-3.128,2.304
			c-0.32,0.151-0.655,0.124-0.984,0.178c-0.083,0.013-0.168,0.01-0.252,0.017c-0.203,0.016-0.4,0.02-0.394,0.32
			c0.002,0.125-0.103,0.165-0.191,0.03c-0.148-0.227-0.331-0.289-0.619-0.257c-0.716,0.08-1.438,0.104-2.158,0.142
			c-0.699,0.037-1.399,0.066-2.099,0.09c-0.147,0.005-0.204,0.1-0.276,0.194c-0.175,0.23-0.194,0.234-0.356,0.011
			c-0.093-0.128-0.2-0.175-0.356-0.167c-0.413,0.021-0.828,0.008-1.238,0.048c-0.853,0.083-1.631-0.201-2.418-0.45
			c-1.195-0.378-2.333-0.881-3.383-1.571C28.771,41.734,28.174,41.27,27.652,40.716z M43.18,40.087
			c0.153-0.974,0.289-1.943,0.347-2.937c-0.094,0.042-0.126,0.105-0.167,0.161c-0.741,1.03-1.585,1.963-2.615,2.713
			c-1.105,0.805-2.253,1.521-3.629,1.743c0.036,0.036,0.1,0.032,0.163,0.036c0.394,0.022,0.783-0.011,1.168-0.104
			c1.179-0.284,2.206-0.881,3.193-1.558c0.277-0.19,0.545-0.392,0.856-0.617c-0.327,1.196-0.639,2.337-0.955,3.493
			c0.13-0.005,0.168-0.082,0.219-0.134c0.964-0.962,1.753-2.056,2.439-3.228c0.854-1.459,1.533-2.991,1.932-4.64
			c0.166-0.688,0.237-1.533,0.152-1.996C45.586,35.549,44.832,38.017,43.18,40.087z"/>
		<path fill="#941D2A" d="M37.931,27.898c0.109-0.197,0.317-0.286,0.477-0.426c0.682-0.599,1.281-1.266,1.772-2.031
			c0.706-1.099,1.127-2.306,1.359-3.581c0.082-0.451,0.141-0.909,0.146-1.371c0.002-0.202,0.031-0.403,0.038-0.605
			c0.014-0.399-0.067-0.794-0.042-1.194c0.17,0.146,0.34,0.293,0.509,0.439c-0.003,0.117,0.063,0.154,0.169,0.144
			c0,0-0.001-0.001-0.001-0.001c-0.008,0.093,0.063,0.14,0.121,0.186c0.602,0.481,1.265,0.857,2.004,1.074
			c0.748,0.22,1.51,0.305,2.296,0.227c0.516-0.051,1.023-0.131,1.52-0.273c0.162-0.046,0.232-0.034,0.278,0.148
			c0.377,1.496,0.765,2.988,1.145,4.483c0.031,0.121,0.077,0.216,0.178,0.293c0.63,0.476,1.234,0.983,1.818,1.514
			c0.873,0.794,1.677,1.644,2.328,2.633c0.142,0.216,0.208,0.474,0.39,0.665c-0.255,1.196-0.51,2.393-0.776,3.638
			c-0.122-0.253-0.234-0.466-0.33-0.687c-0.874-2.019-2.346-3.48-4.248-4.532c-1.255-0.694-2.611-1.058-4.028-1.247
			c-1.186-0.158-2.375-0.201-3.566-0.147c-1.135,0.052-2.251,0.253-3.339,0.594C38.08,27.863,38.005,27.879,37.931,27.898z"/>
		<path fill="#FEFEFE" d="M48.146,51.995c0.324-0.347,0.325-0.77,0.322-1.211c-0.012-1.859-0.002-3.719-0.01-5.578
			c-0.001-0.182,0.05-0.23,0.228-0.25c1.155-0.134,2.306-0.293,3.453-0.483c0.205-0.034,0.344-0.017,0.47,0.18
			c0.238,0.371,0.508,0.721,0.771,1.076c0.079,0.107,0.109,0.216,0.109,0.349c-0.003,1.705-0.01,3.41,0.005,5.115
			c0.003,0.314-0.072,0.573-0.266,0.808C51.534,51.999,49.84,51.997,48.146,51.995z M51.832,48.973c0-0.512,0.001-1.024-0.001-1.536
			c0-0.068,0.036-0.164-0.102-0.15c-0.495,0.048-0.99,0.093-1.485,0.137c-0.09,0.008-0.13,0.043-0.129,0.145
			c0.004,0.989,0.003,1.977,0.002,2.966c0,0.089,0.009,0.136,0.126,0.131c0.476-0.018,0.953-0.023,1.429-0.027
			c0.126-0.001,0.165-0.045,0.164-0.173C51.828,49.969,51.832,49.471,51.832,48.973z"/>
		<path fill="#D0D1D3" d="M58.784,51.951c0.13,0.141,0.169,0.305,0.169,0.498c-0.005,2.112-0.004,4.225-0.001,6.337
			c0,0.125-0.03,0.229-0.098,0.332c-0.288,0.439-0.575,0.878-0.854,1.323c-0.063,0.1-0.128,0.127-0.239,0.106
			c-0.857-0.163-1.715-0.324-2.573-0.483c-0.095-0.018-0.156-0.059-0.206-0.147c-0.301-0.528-0.609-1.053-0.919-1.576
			c-0.052-0.088-0.077-0.174-0.077-0.276c0.003-0.73,0.006-1.46-0.002-2.19c-0.002-0.162,0.042-0.198,0.201-0.182
			c0.425,0.043,0.851,0.072,1.278,0.095c0.146,0.008,0.21,0.046,0.203,0.209c-0.014,0.315,0.002,0.632-0.007,0.947
			c-0.004,0.132,0.014,0.19,0.171,0.203c0.418,0.035,0.834,0.096,1.25,0.153c0.153,0.021,0.233,0.011,0.231-0.189
			c-0.011-1.109-0.008-2.218-0.002-3.327c0.001-0.151-0.028-0.198-0.192-0.201c-0.63-0.012-1.26-0.045-1.89-0.069
			c-0.088-0.003-0.171,0.011-0.233-0.093c-0.288-0.479-0.587-0.951-0.882-1.425c1.499,0.001,2.998,0.003,4.497,0.003
			C58.672,51.999,58.74,52.016,58.784,51.951z"/>
		<path fill="#CFD0D3" d="M17.537,51.994c0.117,0.866,0.234,1.731,0.352,2.597c0.122,0.9,0.246,1.801,0.368,2.701
			c0.059,0.437,0.115,0.874,0.176,1.31c0.015,0.11-0.009,0.164-0.135,0.176c-0.48,0.046-0.96,0.101-1.439,0.159
			c-0.103,0.012-0.135-0.023-0.147-0.12c-0.111-0.895-0.23-1.789-0.338-2.685c-0.022-0.18-0.07-0.253-0.277-0.23
			c-0.452,0.051-0.908,0.068-1.362,0.094c-0.086,0.005-0.121,0.029-0.132,0.119c-0.111,0.952-0.228,1.903-0.338,2.855
			c-0.022,0.193-0.056,0.319-0.305,0.337c-0.431,0.032-0.857,0.119-1.286,0.184c-0.117,0.018-0.155-0.01-0.138-0.143
			c0.102-0.805,0.192-1.611,0.287-2.417c0.089-0.757,0.176-1.515,0.267-2.272c0.091-0.757,0.181-1.514,0.279-2.27
			c0.017-0.131-0.008-0.269,0.06-0.392c0.559,0,1.118,0,1.677,0c-0.043,0.402-0.082,0.805-0.133,1.207
			c-0.015,0.114,0.01,0.121,0.115,0.114c0.244-0.016,0.491-0.019,0.735-0.01c0.155,0.006,0.185-0.042,0.162-0.192
			c-0.057-0.372-0.094-0.746-0.14-1.12C16.408,51.995,16.972,51.995,17.537,51.994z"/>
		<path fill="#FDFDFD" d="M58.784,51.951c-0.044,0.065-0.112,0.048-0.172,0.048c-1.499,0-2.998-0.002-4.497-0.003
			c-0.082-0.095-0.107-0.203-0.107-0.329c0.003-1.894,0.002-3.789,0.002-5.683c0-0.099,0.007-0.191,0.061-0.281
			c0.31-0.524,0.616-1.049,0.918-1.578c0.05-0.087,0.106-0.131,0.205-0.149c0.86-0.159,1.719-0.322,2.578-0.487
			c0.105-0.02,0.163,0.014,0.22,0.104c0.292,0.462,0.59,0.919,0.888,1.376c0.047,0.072,0.072,0.145,0.072,0.234
			c-0.003,0.814-0.004,1.628,0.001,2.442c0.001,0.123-0.029,0.175-0.156,0.186c-0.44,0.036-0.879,0.077-1.318,0.126
			c-0.14,0.016-0.178-0.024-0.174-0.164c0.01-0.363,0.003-0.727,0.003-1.09c-0.508,0.058-0.994,0.116-1.482,0.167
			c-0.123,0.013-0.178,0.048-0.177,0.19c0.007,1.094,0.007,2.189,0.001,3.284c-0.001,0.145,0.046,0.175,0.181,0.169
			c0.644-0.03,1.288-0.051,1.932-0.077c0.087-0.003,0.156,0.004,0.208,0.097C58.237,51.007,58.512,51.478,58.784,51.951z"/>
		<path fill="#CFD0D2" d="M48.146,51.995c1.694,0.002,3.388,0.004,5.081,0.005c-0.223,0.436-0.51,0.833-0.768,1.248
			c-0.053,0.085-0.079,0.157-0.053,0.269c0.457,2.027,0.906,4.056,1.355,6.085c0.015,0.066,0.017,0.134,0.027,0.216
			c-0.565-0.088-1.115-0.177-1.667-0.256c-0.127-0.018-0.132-0.11-0.15-0.192c-0.175-0.769-0.343-1.539-0.518-2.308
			c-0.268-1.176-0.54-2.352-0.808-3.528c-0.059-0.261-0.264-0.136-0.407-0.151c-0.161-0.017-0.097,0.124-0.098,0.197
			c-0.004,1.817-0.006,3.634,0.002,5.452c0.001,0.195-0.052,0.238-0.234,0.211c-0.442-0.066-0.887-0.119-1.331-0.172
			c-0.09-0.011-0.123-0.049-0.116-0.135c0.004-0.049,0.001-0.098,0.001-0.147c0-1.965-0.004-3.929,0.005-5.894
			c0.001-0.252-0.05-0.461-0.205-0.657C48.211,52.17,48.115,52.109,48.146,51.995z"/>
		<path fill="#CFD0D3" d="M47.354,51.994c0.089,0.644,0.18,1.287,0.265,1.931c0.108,0.818,0.21,1.636,0.315,2.455
			c0.105,0.818,0.21,1.637,0.318,2.455c0.02,0.154-0.004,0.197-0.182,0.169c-0.421-0.068-0.847-0.106-1.272-0.142
			c-0.184-0.015-0.255-0.08-0.277-0.275c-0.091-0.806-0.196-1.61-0.312-2.413c-0.061-0.427-0.075-0.419-0.513-0.431
			c-0.371-0.01-0.742-0.028-1.112-0.06c-0.129-0.011-0.152,0.028-0.167,0.141c-0.111,0.852-0.231,1.704-0.342,2.556
			c-0.021,0.16-0.091,0.2-0.244,0.184c-0.459-0.048-0.92-0.089-1.38-0.121c-0.133-0.009-0.118-0.062-0.104-0.16
			c0.173-1.204,0.342-2.408,0.509-3.613c0.118-0.852,0.231-1.704,0.348-2.556c0.006-0.04,0.025-0.079,0.038-0.118
			c0.561,0,1.122,0,1.683,0c-0.006,0.363-0.09,0.717-0.129,1.076c-0.012,0.115,0.012,0.16,0.138,0.158
			c0.229-0.004,0.46,0.001,0.688,0.022c0.19,0.018,0.201-0.067,0.179-0.22c-0.05-0.343-0.121-0.684-0.124-1.033
			C46.237,51.998,46.795,51.996,47.354,51.994z"/>
		<path fill="#D0D1D3" d="M36.288,51.996c0.159,0.271,0.307,0.55,0.481,0.811c0.119,0.178,0.159,0.358,0.158,0.569
			c-0.007,1.087-0.006,2.174-0.001,3.261c0.001,0.148-0.033,0.261-0.136,0.374c-0.284,0.31-0.556,0.631-0.823,0.955
			c-0.08,0.097-0.161,0.137-0.285,0.131c-1.204-0.057-2.409-0.055-3.614-0.061c-0.174-0.001-0.202-0.057-0.201-0.213
			c0.005-1.676-0.001-3.352,0.008-5.028c0.001-0.229-0.034-0.42-0.203-0.586c-0.053-0.052-0.166-0.096-0.12-0.214
			C33.13,51.995,34.709,51.996,36.288,51.996z M35.24,54.502c0-0.386-0.011-0.772,0.005-1.158c0.007-0.177-0.062-0.213-0.215-0.211
			c-0.442,0.005-0.884,0.006-1.326-0.001c-0.12-0.002-0.153,0.033-0.152,0.152c0.005,0.786,0.005,1.572,0,2.358
			C33.551,55.756,33.575,55.8,33.7,55.8c0.463-0.001,0.925,0.004,1.387,0.023c0.144,0.006,0.156-0.046,0.154-0.163
			C35.236,55.274,35.24,54.888,35.24,54.502z"/>
		<path fill="#FDFDFD" d="M25.124,37.35c0.055,0.221,0.23,0.355,0.413,0.533c-1.134,0.007-2.186-0.229-3.247-0.523
			c0.239,0.402,1.133,0.784,1.942,0.933c-0.645,0.137-1.233,0.206-1.839,0.049c-2.342-0.607-3.812-2.142-4.628-4.358
			c-0.556-1.511-0.856-3.072-0.809-4.69c0.016-0.527,0.1-1.045,0.221-1.557c0.001-0.006,0.008-0.016,0.012-0.015
			c0.01,0.001,0.02,0.007,0.03,0.01c0.004,0.041,0.002,0.084,0.013,0.124c0.178,0.684,0.409,1.351,0.704,1.993
			c0.939,2.044,2.288,3.769,4.05,5.17c1.381,1.098,2.909,1.9,4.628,2.324c-0.097,0.215-0.26,0.314-0.499,0.296
			c-0.348-0.027-0.669-0.133-0.961-0.323c-0.016-0.003-0.031-0.006-0.047-0.009C25.112,37.321,25.118,37.335,25.124,37.35z
			 M18.122,32.926c-0.029,0.064,0.003,0.099,0.018,0.136c0.339,0.883,0.906,1.607,1.595,2.238c1.033,0.947,2.197,1.661,3.594,1.933
			c0.284,0.055,0.574,0.088,0.868,0.02C21.558,36.673,19.644,35.08,18.122,32.926z M22.234,37.361
			c0.005,0.008,0.009,0.015,0.014,0.023c0.004-0.004,0.013-0.009,0.012-0.012c-0.002-0.009-0.008-0.016-0.012-0.024
			C22.243,37.352,22.239,37.356,22.234,37.361z"/>
		<path fill="#FDFDFD" d="M36.288,51.996c-1.579,0-3.158-0.001-4.737-0.001c0.325-0.292,0.329-0.67,0.325-1.071
			c-0.014-1.572-0.003-3.144-0.01-4.716c-0.001-0.163,0.039-0.206,0.205-0.207c1.143-0.006,2.287-0.01,3.429-0.048
			c0.273-0.009,0.439,0.065,0.596,0.27c0.195,0.256,0.405,0.503,0.628,0.735c0.152,0.158,0.207,0.323,0.205,0.542
			c-0.011,1.081-0.007,2.162-0.002,3.242c0.001,0.14-0.032,0.256-0.106,0.373C36.638,51.406,36.465,51.703,36.288,51.996z
			 M33.543,49.556c0,0.393,0.004,0.785-0.003,1.178c-0.002,0.124,0.026,0.171,0.161,0.168c0.463-0.009,0.925-0.007,1.388-0.001
			c0.119,0.002,0.154-0.031,0.153-0.152c-0.005-0.799-0.005-1.598,0-2.398c0.001-0.124-0.041-0.149-0.155-0.147
			c-0.456,0.007-0.911,0.012-1.367,0.003c-0.154-0.003-0.185,0.051-0.181,0.191C33.548,48.784,33.543,49.17,33.543,49.556z"/>
		<path fill="#D0D1D3" d="M42.676,51.995c0.008,0.157-0.125,0.235-0.202,0.34c-0.083,0.113-0.121,0.223-0.12,0.364
			c0.005,1.403,0.001,2.806,0.006,4.208c0.001,0.143-0.039,0.248-0.133,0.355c-0.278,0.315-0.548,0.638-0.814,0.963
			c-0.084,0.103-0.172,0.138-0.306,0.127c-0.928-0.079-1.857-0.131-2.788-0.162c-0.094-0.003-0.155-0.034-0.212-0.106
			c-0.292-0.368-0.584-0.735-0.883-1.097c-0.083-0.1-0.103-0.205-0.103-0.328c0.003-1.248-0.007-2.497,0.008-3.745
			c0.003-0.303-0.036-0.564-0.264-0.779c-0.048-0.045-0.139-0.104-0.028-0.183c0.057,0.076,0.141,0.046,0.213,0.047
			c0.689,0.002,1.379,0.001,2.068,0.001c-0.009,0.158-0.151,0.233-0.224,0.352c-0.041,0.066-0.086,0.119-0.086,0.205
			c0.002,1.073,0.003,2.145,0,3.218c0,0.112,0.04,0.141,0.147,0.143c0.511,0.009,1.022,0.022,1.532,0.044
			c0.14,0.006,0.19-0.019,0.189-0.175c-0.007-1.058-0.005-2.117-0.002-3.175c0-0.105-0.038-0.181-0.092-0.267
			c-0.073-0.115-0.226-0.182-0.218-0.348C41.136,51.995,41.906,51.995,42.676,51.995z"/>
		<path fill="#CFD0D3" d="M29.705,51.995c0.02,0.131-0.093,0.194-0.159,0.267c-0.13,0.14-0.164,0.289-0.163,0.475
			c0.007,1.304,0.003,2.609,0.005,3.913c0,0.11-0.024,0.195-0.099,0.282c-0.301,0.35-0.596,0.707-0.885,1.067
			c-0.065,0.081-0.132,0.104-0.23,0.106c-0.931,0.017-1.861,0.052-2.79,0.117c-0.113,0.008-0.194-0.018-0.271-0.111
			c-0.28-0.341-0.567-0.677-0.858-1.009c-0.08-0.092-0.105-0.186-0.104-0.304c0.003-1.276-0.005-2.553,0.007-3.829
			c0.003-0.32-0.022-0.608-0.273-0.838c-0.048-0.044-0.134-0.109-0.02-0.182c0.056,0.078,0.14,0.048,0.212,0.048
			c0.689,0.002,1.378,0.001,2.068,0c-0.008,0.142-0.128,0.216-0.201,0.317c-0.063,0.087-0.107,0.169-0.107,0.284
			c0.005,1.037,0.005,2.074-0.001,3.111c-0.001,0.141,0.043,0.179,0.178,0.172c0.503-0.024,1.007-0.006,1.511-0.038
			c0.15-0.01,0.182-0.048,0.181-0.19c-0.006-1.016-0.005-2.032-0.001-3.048c0.001-0.114-0.045-0.193-0.104-0.283
			c-0.071-0.107-0.222-0.167-0.207-0.328C28.164,51.995,28.934,51.995,29.705,51.995z"/>
		<path fill="#FDFDFD" d="M39.119,51.999c-0.689,0-1.379,0.001-2.068-0.001c-0.072,0-0.156,0.03-0.213-0.047
			c0.267-0.25,0.305-0.56,0.3-0.913c-0.018-1.221-0.005-2.442-0.01-3.663c-0.001-0.134,0.036-0.237,0.121-0.34
			c0.289-0.352,0.573-0.709,0.853-1.069c0.068-0.087,0.143-0.117,0.25-0.12c0.924-0.027,1.847-0.086,2.769-0.158
			c0.128-0.01,0.203,0.024,0.282,0.121c0.274,0.337,0.555,0.669,0.841,0.996c0.085,0.097,0.116,0.194,0.116,0.321
			c-0.004,1.354,0.004,2.709-0.009,4.063c-0.002,0.254,0.05,0.463,0.219,0.648c0.042,0.046,0.071,0.104,0.106,0.156
			c-0.77,0-1.54,0-2.31,0.001c0.078-0.107,0.15-0.219,0.235-0.32c0.063-0.075,0.085-0.153,0.085-0.249
			c-0.002-1.072-0.003-2.145,0.001-3.217c0.001-0.127-0.029-0.167-0.162-0.161c-0.531,0.027-1.063,0.047-1.594,0.06
			c-0.149,0.004-0.143,0.088-0.143,0.193c0.002,0.855,0.015,1.711-0.005,2.565C38.774,51.289,38.785,51.687,39.119,51.999z"/>
		<path fill="#FDFDFD" d="M26.144,51.998c-0.689,0-1.378,0.002-2.068,0c-0.072,0-0.156,0.03-0.212-0.048
			c0.274-0.264,0.306-0.591,0.301-0.955c-0.018-1.227-0.004-2.454-0.01-3.68c-0.001-0.169,0.033-0.303,0.151-0.434
			c0.276-0.307,0.538-0.627,0.801-0.946c0.075-0.091,0.156-0.122,0.272-0.115c0.915,0.055,1.831,0.1,2.748,0.11
			c0.132,0.001,0.216,0.039,0.299,0.143c0.274,0.345,0.557,0.685,0.844,1.02c0.083,0.096,0.119,0.19,0.118,0.319
			c-0.005,1.269,0.004,2.538-0.008,3.807c-0.002,0.254,0.041,0.465,0.227,0.642c0.04,0.038,0.065,0.09,0.097,0.136
			c-0.77,0-1.541,0-2.311,0c0.084-0.112,0.165-0.226,0.253-0.335c0.046-0.058,0.069-0.116,0.069-0.191
			c-0.002-1.053-0.002-2.106,0.001-3.158c0-0.108-0.03-0.143-0.142-0.144c-0.512-0.008-1.023-0.019-1.534-0.043
			c-0.169-0.008-0.228,0.031-0.225,0.213c0.01,0.863,0.02,1.727-0.002,2.59C25.801,51.333,25.835,51.702,26.144,51.998z"/>
		<path fill="#CFD0D2" d="M21.721,51.998c0.728,2.049,1.456,4.097,2.187,6.145c0.045,0.127,0.024,0.165-0.116,0.172
			c-0.51,0.024-1.021,0.052-1.53,0.097c-0.152,0.013-0.203-0.037-0.248-0.17c-0.543-1.589-1.091-3.176-1.638-4.763
			c-0.006-0.017-0.015-0.033-0.054-0.048c0,0.072,0,0.144,0,0.216c0,1.571-0.003,3.142,0.004,4.713
			c0.001,0.158-0.041,0.221-0.2,0.234c-0.46,0.038-0.919,0.087-1.378,0.135c-0.072,0.007-0.106-0.01-0.101-0.086
			c0.003-0.049,0-0.098,0-0.147c0-1.838-0.006-3.675,0.006-5.513c0.002-0.316-0.038-0.59-0.261-0.826
			c-0.045-0.048-0.155-0.112-0.041-0.205c0.052,0.07,0.128,0.045,0.194,0.045C19.604,51.999,20.663,51.998,21.721,51.998z"/>
		<path fill="#CFD0D3" d="M10.857,51.998c-0.069,0.491-0.209,0.967-0.317,1.45c-0.263,1.177-0.536,2.353-0.812,3.557
			c0.331-0.035,0.645-0.069,0.96-0.101c0.487-0.05,0.975-0.096,1.461-0.148c0.124-0.013,0.184,0.006,0.182,0.159
			c-0.008,0.821-0.009,1.642,0.001,2.462c0.002,0.151-0.072,0.174-0.18,0.191c-0.883,0.143-1.766,0.281-2.648,0.429
			c-0.585,0.098-1.169,0.204-1.751,0.321c-0.158,0.032-0.176-0.006-0.189-0.154c-0.099-1.137,0.205-2.22,0.44-3.311
			c0.341-1.582,0.693-3.161,1.041-4.741c0.009-0.04,0.029-0.078,0.043-0.117C9.679,51.997,10.268,51.998,10.857,51.998z"/>
		<path fill="#FDFDFD" d="M21.721,51.998c-1.059,0-2.118,0.001-3.177,0c-0.067,0-0.143,0.025-0.194-0.045
			c0.272-0.283,0.306-0.624,0.303-1.001c-0.014-1.817-0.004-3.635-0.01-5.452c-0.001-0.167,0.032-0.201,0.204-0.177
			c0.409,0.056,0.822,0.089,1.234,0.117c0.172,0.012,0.227,0.064,0.226,0.249c-0.009,1.607-0.005,3.214-0.005,4.82
			c0,0.055,0,0.111,0,0.209c0.125-0.204,0.165-0.401,0.229-0.585c0.499-1.439,0.994-2.88,1.485-4.321
			c0.048-0.141,0.104-0.198,0.265-0.183c0.495,0.044,0.992,0.07,1.489,0.098c0.12,0.007,0.176,0.023,0.123,0.17
			c-0.717,2.014-1.429,4.03-2.142,6.046C21.743,51.961,21.731,51.979,21.721,51.998z"/>
		<path fill="#FDFDFD" d="M15.105,51.996c-0.559,0-1.118,0-1.677,0c0.102-0.855,0.202-1.711,0.306-2.566
			c0.133-1.085,0.269-2.169,0.404-3.253c0.052-0.417,0.111-0.834,0.157-1.251c0.012-0.107,0.039-0.143,0.151-0.128
			c0.673,0.091,1.347,0.178,2.021,0.26c0.131,0.016,0.187,0.063,0.204,0.204c0.188,1.501,0.385,3.001,0.579,4.502
			c0.096,0.743,0.191,1.487,0.286,2.23c-0.564,0-1.128,0.001-1.692,0.001c-0.118-0.922-0.237-1.844-0.355-2.766
			c-0.009,0.001-0.017,0.003-0.026,0.004C15.343,50.155,15.224,51.075,15.105,51.996z"/>
		<path fill="#FDFDFD" d="M10.857,51.998c-0.589,0-1.178-0.001-1.767-0.001c0.355-1.568,0.71-3.136,1.066-4.703
			c0.056-0.247,0.059-0.239-0.191-0.266c-0.662-0.071-1.322-0.151-1.984-0.22c-0.146-0.015-0.194-0.065-0.192-0.22
			c0.009-0.891,0.007-1.782,0.001-2.672c-0.001-0.154,0.032-0.182,0.189-0.153c1.368,0.259,2.739,0.503,4.118,0.697
			c0.131,0.018,0.207,0.049,0.2,0.218c-0.017,0.413,0.008,0.828-0.009,1.241c-0.018,0.414-0.168,0.806-0.261,1.206
			c-0.373,1.6-0.758,3.197-1.139,4.795C10.882,51.947,10.867,51.972,10.857,51.998z"/>
		<path fill="#FDFDFD" d="M47.354,51.994c-0.559,0.002-1.117,0.004-1.676,0.005c-0.084-0.595-0.162-1.192-0.253-1.786
			c-0.037-0.239-0.021-0.491-0.147-0.738c-0.12,0.859-0.237,1.69-0.353,2.522c-0.561,0-1.122,0-1.683,0
			c0.09-0.673,0.179-1.345,0.27-2.018c0.174-1.276,0.35-2.551,0.526-3.827c0.032-0.228-0.003-0.516,0.124-0.666
			c0.122-0.145,0.423-0.069,0.645-0.096c0.507-0.061,1.017-0.101,1.525-0.158c0.107-0.012,0.142,0.004,0.157,0.119
			C46.774,47.567,47.065,49.781,47.354,51.994z"/>
		<path fill="#C62136" d="M54.438,30.222c-0.182-0.191-0.248-0.449-0.39-0.665c-0.651-0.989-1.456-1.839-2.328-2.633
			c-0.585-0.532-1.188-1.038-1.818-1.514c-0.101-0.077-0.147-0.172-0.178-0.293c-0.38-1.495-0.769-2.987-1.145-4.483
			c-0.046-0.182-0.116-0.195-0.278-0.148c-0.497,0.142-1.003,0.222-1.52,0.273c-0.786,0.078-1.548-0.008-2.296-0.227
			c-0.74-0.217-1.403-0.593-2.004-1.074c-0.057-0.046-0.129-0.093-0.121-0.186c0.387,0.193,0.763,0.408,1.181,0.538
			c1.297,0.404,2.593,0.366,3.893,0.023c0.394-0.104,0.777-0.239,1.147-0.408c0.108-0.049,0.155-0.034,0.209,0.07
			c0.653,1.274,1.111,2.614,1.36,4.025c0.034,0.193,0.058,0.388,0.091,0.581c0.038,0.228,0.154,0.4,0.358,0.516
			c1.182,0.669,2.271,1.467,3.275,2.382c0.212,0.194,0.415,0.398,0.62,0.599c0.129,0.126,0.081,0.302,0.12,0.454
			C54.803,28.795,54.612,29.508,54.438,30.222z"/>
		<path fill="#D0D1D3" d="M7.659,51.949c0.092,0.074,0.026,0.147-0.016,0.2c-0.246,0.317-0.28,0.677-0.278,1.066
			c0.012,2.316,0.004,4.632,0.009,6.948c0,0.169-0.032,0.239-0.219,0.268c-0.475,0.074-0.945,0.183-1.438,0.282
			c0-0.086,0-0.161,0-0.236c0-2.414-0.007-4.828,0.007-7.243c0.002-0.391-0.05-0.744-0.278-1.066
			c-0.043-0.06-0.124-0.134-0.028-0.219c0.043,0.065,0.11,0.049,0.171,0.049c0.633,0.001,1.266,0.001,1.899,0
			C7.549,51.998,7.616,52.014,7.659,51.949z"/>
		<path fill="#FEFEFE" d="M7.659,51.949c-0.043,0.065-0.11,0.049-0.171,0.049c-0.633,0.001-1.266,0.001-1.899,0
			c-0.061,0-0.128,0.016-0.171-0.049c0.302-0.407,0.307-0.873,0.304-1.355c-0.011-2.344-0.005-4.688-0.005-7.032
			c0-0.076,0-0.151,0-0.233c0.511,0.099,1.004,0.201,1.5,0.286c0.166,0.028,0.148,0.129,0.147,0.242
			c-0.001,2.267,0.007,4.534-0.006,6.801C7.356,51.12,7.371,51.562,7.659,51.949z"/>
		<path fill="#CFD0D2" d="M26.613,37.343c-1.719-0.424-3.247-1.226-4.628-2.324c-1.762-1.401-3.111-3.126-4.05-5.17
			c-0.295-0.642-0.525-1.309-0.704-1.993c-0.01-0.04-0.009-0.083-0.013-0.124c0.284,0.456,0.503,0.947,0.757,1.419
			c0.651,1.211,1.357,2.384,2.305,3.394c1.3,1.386,2.899,2.288,4.68,2.895c1.252,0.427,2.54,0.702,3.848,0.892
			c0.04,0.006,0.094-0.011,0.113,0.035c0.026,0.06-0.036,0.084-0.069,0.113c-0.148,0.13-0.324,0.218-0.494,0.317
			c-0.05,0.029-0.084,0.03-0.127-0.015c-0.383-0.397-0.894-0.506-1.404-0.603c-0.489-0.093-0.986-0.123-1.543-0.106
			c0.202,0.1,0.355,0.174,0.506,0.252c0.276,0.141,0.543,0.295,0.742,0.54C26.648,37.006,26.72,37.162,26.613,37.343z"/>
		<path fill="#941D2A" d="M18.477,43.475c0.047-0.066,0.117-0.064,0.188-0.069c1.734-0.106,3.436-0.383,5.078-0.965
			c0.915-0.325,1.772-0.762,2.528-1.381c0.103-0.084,0.197-0.177,0.296-0.266c0.31,0.493,0.546,1.023,0.777,1.555
			c0.05,0.116-0.008,0.16-0.095,0.214c-0.839,0.523-1.76,0.844-2.696,1.145c-0.709,0.228-1.412,0.208-2.133,0.129
			c-0.715-0.078-1.434-0.116-2.151-0.181C19.671,43.604,19.074,43.536,18.477,43.475z"/>
		<path fill="#FDFDFD" d="M35.672,27.107c0.065-0.065,0.067-0.067,0.157-0.002c0.326,0.236,0.61,0.517,0.849,0.838
			c0.677,0.91,1.202,1.899,1.317,3.042c0.138,1.378-0.286,2.551-1.429,3.407c-0.054,0.04-0.108,0.09-0.184,0.091l-0.013-0.013
			c0.188-0.3,0.403-0.586,0.486-0.941c0.013-0.055,0.033-0.107,0.014-0.189c-0.413,0.552-0.821,1.088-1.37,1.53
			c-0.029-0.127,0.021-0.246-0.041-0.378c-0.105,0.177-0.183,0.35-0.315,0.485c-0.113,0.116-0.233,0.203-0.405,0.128
			c0.392-0.514,0.718-1.069,0.966-1.665c0.481-1.155,0.691-2.355,0.64-3.61c-0.035-0.841-0.207-1.644-0.5-2.426
			C35.804,27.3,35.805,27.161,35.672,27.107z M37.211,29.705c0.051,1.568-0.262,2.983-1.221,4.227
			C36.708,33.656,37.796,31.231,37.211,29.705z"/>
		<path fill="#941D2A" d="M9.007,39.235c0.19,0.129,0.281,0.339,0.417,0.512c0.706,0.893,1.509,1.671,2.557,2.158
			c1.201,0.557,2.374,0.477,3.514-0.174c0.687-0.393,1.274-0.907,1.778-1.517c0.035-0.042,0.078-0.076,0.135-0.105
			c-0.069,0.333-0.176,0.653-0.312,0.96c-0.307,0.692-0.726,1.307-1.282,1.827c-0.083,0.077-0.226,0.102-0.238,0.248
			c-1.461-0.18-2.915-0.409-4.371-0.628c-0.193-0.029-0.385-0.067-0.577-0.105c-0.06-0.012-0.119-0.018-0.166-0.075
			C9.713,41.426,9.258,40.379,9.007,39.235z"/>
		<path fill="#FDFDFD" d="M29.133,35.322c-0.45-0.065-0.883-0.208-1.325-0.307c-0.305-0.068-0.607-0.15-0.953-0.237
			c0.192-0.169,0.36-0.31,0.52-0.46c0.682-0.639,1.441-1.143,2.333-1.456c0.687-0.242,1.357-0.29,2.05-0.057
			c0.391,0.131,0.787,0.245,1.184,0.355c0.139,0.039,0.138,0.093,0.078,0.203c-0.118,0.218-0.274,0.405-0.437,0.588
			c-0.053,0.059-0.087,0.08-0.146,0.011c-0.3-0.355-0.701-0.605-1.007-0.952c-0.1-0.113-0.155-0.123-0.277-0.026
			c-0.798,0.64-1.604,1.271-2.409,1.902c-0.059,0.046-0.108,0.111-0.188,0.125c0.008,0.011,0.016,0.022,0.024,0.033
			c0.001-0.003,0.004-0.009,0.003-0.01c-0.009-0.008-0.018-0.016-0.028-0.023c0.084,0.054,0.161,0.006,0.24-0.017
			c0.707-0.202,1.302-0.606,1.883-1.037c0.124-0.092,0.247-0.184,0.388-0.288c0.177,0.341,0.448,0.611,0.643,0.935
			c-0.604,0.101-1.194,0.257-1.78,0.431C29.659,35.115,29.374,35.16,29.133,35.322z"/>
		<path fill="#941D2A" d="M24.924,17.342c-0.023,0.237-0.199,0.398-0.307,0.589c-0.513,0.903-0.934,1.85-1.34,2.803
			c-0.469,1.101-0.878,2.225-1.324,3.335c-0.262,0.651-0.75,1.122-1.276,1.558c-0.204,0.169-0.418,0.326-0.629,0.488
			c-0.037,0.028-0.052,0.064-0.055,0.108c-0.206-0.167-0.44-0.292-0.681-0.443c0.325-0.24,0.635-0.466,0.916-0.73
			c0.994-0.933,1.643-2.081,2.121-3.342c0.55-1.45,1.276-2.803,2.252-4.015C24.701,17.572,24.785,17.431,24.924,17.342z"/>
		<path fill="#CFD0D2" d="M35.672,27.107c0.133,0.053,0.132,0.192,0.171,0.296c0.293,0.782,0.465,1.585,0.5,2.426
			c0.052,1.255-0.158,2.455-0.64,3.61c-0.249,0.597-0.574,1.151-0.966,1.665c-0.147-0.044-0.159-0.163-0.149-0.284
			c0.015-0.184,0.088-0.352,0.162-0.519c0.027-0.06,0.087-0.113,0.062-0.186c-0.048-0.025-0.072,0.002-0.098,0.025
			c-0.299,0.266-0.59,0.541-0.808,0.882c-0.056,0.088-0.104,0.183-0.142,0.28c-0.121,0.314-0.159,0.339-0.552,0.309
			c0.269-0.317,0.536-0.619,0.789-0.931c0.732-0.901,1.357-1.865,1.72-2.98c0.292-0.9,0.351-1.818,0.249-2.756
			C35.903,28.326,35.757,27.722,35.672,27.107z"/>
		<path fill="#C62136" d="M22.865,14.491c1.334-0.433,2.658-0.724,4.043-0.381c0.015,0.075-0.05,0.093-0.091,0.124
			c-0.601,0.448-1.204,0.894-1.805,1.343c-0.096,0.072-0.178,0.113-0.301,0.039c-0.593-0.359-1.192-0.71-1.789-1.064
			C22.906,14.542,22.895,14.523,22.865,14.491z"/>
		<path fill="#C62136" d="M20.273,16.971c1.094-0.12,2.135-0.234,3.177-0.349c0.063-0.007,0.125-0.018,0.187-0.022
			c0.087-0.006,0.203-0.068,0.253,0.017c0.061,0.104-0.065,0.171-0.123,0.241c-0.178,0.216-0.365,0.424-0.549,0.636
			c-0.28,0.322-0.561,0.644-0.84,0.967c-0.067,0.077-0.118,0.149-0.235,0.051C21.536,18.005,20.924,17.506,20.273,16.971z"/>
		<path fill="#919396" d="M6.667,32.945c-0.874-1.133-1.545-2.346-1.637-3.87c0.265,0.246,0.488,0.453,0.711,0.66
			c0.396,0.367,0.808,0.716,1.237,1.045c0.059,0.045,0.126,0.074,0.101,0.181C6.928,31.616,6.802,32.276,6.667,32.945z"/>
		<path fill="#C62136" d="M26.262,12.256c1.294-0.213,2.535-0.199,3.775,0.169c-0.058,0.092-0.156,0.097-0.231,0.135
			c-0.622,0.319-1.224,0.678-1.9,0.886c-0.189,0.058-0.314,0.058-0.462-0.089C27.071,12.989,26.678,12.641,26.262,12.256z"/>
		<path fill="#941D2A" d="M29.237,9.146c0.244,0.599,0.413,1.203,0.553,1.817c0.019,0.085,0.059,0.196-0.107,0.173
			c-0.762-0.105-1.526-0.179-2.296-0.163c-0.01,0-0.021-0.013-0.044-0.028C27.918,10.294,28.654,9.816,29.237,9.146z"/>
		<path fill="#CFD0D2" d="M29.133,35.322c0.242-0.161,0.526-0.207,0.797-0.287c0.586-0.174,1.176-0.33,1.78-0.431
			c0.093,0.077,0.146,0.185,0.199,0.288c0.056,0.108,0.107,0.094,0.191,0.037c0.27-0.182,0.544-0.358,0.816-0.536
			c0.157-0.003,0.308-0.066,0.467-0.042c-0.14,0.19-0.282,0.38-0.419,0.572c-0.056,0.079-0.145,0.082-0.223,0.099
			c-0.756,0.167-1.507,0.359-2.253,0.565c-0.119,0.033-0.229,0.038-0.349,0.003C29.805,35.494,29.458,35.447,29.133,35.322z"/>
		<path fill="#919396" d="M17.973,22.153c0.694-0.04,1.34,0.09,1.973,0.306c0.053,0.018,0.106,0.036,0.158,0.058
			c0.402,0.167,0.449,0.046,0.247,0.566c-0.103,0.265-0.284,0.481-0.47,0.691c-0.053,0.059-0.098,0.067-0.156,0.007
			c-0.537-0.565-1.136-1.061-1.731-1.562C17.985,22.211,17.985,22.194,17.973,22.153z"/>
		<path fill="#941D2A" d="M22.097,32.67c0.284,0.038,0.511,0.215,0.765,0.324c0.784,0.335,1.585,0.607,2.421,0.775
			c0.023,0.005,0.042,0.032,0.063,0.048c-0.591,0.577-0.369,0.505-1.067,0.231c-0.753-0.296-1.425-0.737-2.054-1.243
			C22.178,32.766,22.14,32.715,22.097,32.67z"/>
		<path fill="#941D2A" d="M34.185,31.334c0.316-0.365,0.564-0.768,0.72-1.231c0.104-0.31,0.178-0.626,0.248-0.944
			c0.014-0.063,0.015-0.124,0.082-0.156c0.013,0.024,0.035,0.047,0.036,0.071c0.03,0.817,0.046,1.633-0.181,2.433
			c-0.044,0.156-0.098,0.171-0.232,0.109C34.637,31.516,34.41,31.428,34.185,31.334z"/>
		<path fill="#941D2A" d="M15.587,29.506c-0.309-0.342-0.619-0.683-0.925-1.028c-0.153-0.173-0.303-0.349-0.445-0.531
			c-0.048-0.062-0.153-0.136-0.098-0.212c0.064-0.087,0.171-0.006,0.25,0.023c0.206,0.074,0.383,0.203,0.558,0.333
			c0.202,0.15,0.401,0.307,0.607,0.452c0.089,0.062,0.134,0.126,0.13,0.24c-0.009,0.235-0.003,0.471-0.003,0.706
			C15.636,29.495,15.611,29.501,15.587,29.506z"/>
		<path fill="#941D2A" d="M19.026,26.818c-0.081,0.225-0.31,0.301-0.463,0.454c-0.072,0.073-0.16,0.13-0.216,0.219
			c-0.155-0.288-0.31-0.575-0.463-0.864c-0.032-0.06-0.08-0.154,0.054-0.133C18.314,26.552,18.692,26.612,19.026,26.818z"/>
		<path fill="#941D2A" d="M15.16,27.386c0.253-0.042,0.456-0.013,0.652-0.064c0.089-0.023,0.1,0.038,0.081,0.116
			c-0.048,0.202-0.09,0.405-0.143,0.644C15.558,27.846,15.407,27.607,15.16,27.386z"/>
		<path fill="#FDFDFD" d="M33.383,34.35c-0.159-0.023-0.31,0.039-0.467,0.042c0.27-0.188,0.54-0.377,0.809-0.565
			c0.015,0.014,0.029,0.029,0.044,0.043C33.641,34.03,33.512,34.19,33.383,34.35z"/>
		<path fill="#C62136" d="M42.359,19.273c-0.106,0.01-0.172-0.026-0.169-0.144C42.254,19.169,42.328,19.196,42.359,19.273z"/>
		<path fill="#941D2A" d="M35.231,28.878c-0.035-0.027-0.035-0.056-0.003-0.085C35.228,28.821,35.229,28.85,35.231,28.878z"/>
		<path fill="#D0D1D3" d="M57.098,22.896c-0.009-0.006-0.019-0.011-0.028-0.017c0.008-0.003,0.015-0.005,0.023-0.008
			c0,0.009,0,0.018,0,0.028C57.093,22.899,57.098,22.896,57.098,22.896z"/>
		<path fill="#941D2A" d="M22.05,32.63c0.016,0.013,0.032,0.027,0.048,0.04C22.082,32.657,22.066,32.643,22.05,32.63z"/>
		<polygon fill="#CFD0D2" points="35.647,27.017 35.64,27.004 35.654,27.004 		"/>
		<path fill="#FDFDFD" d="M36.381,34.483c-0.004,0.022-0.02,0.041-0.037,0.022c-0.019-0.02,0.006-0.03,0.024-0.036
			C36.368,34.469,36.381,34.483,36.381,34.483z"/>
		<path fill="#12143C" d="M49.77,7.526c-0.741,0.917-1.509,1.807-2.519,2.445c-0.136,0.086-0.177,0.18-0.184,0.338
			c-0.111,2.439-1.245,4.269-3.317,5.533c-0.594,0.362-1.23,0.638-1.888,0.864c-0.072,0.025-0.143,0.062-0.224,0.041l0.003,0.003
			c0.594-0.691,1.177-1.391,1.67-2.159c0.452-0.704,0.861-1.429,1.038-2.26c0.066-0.311,0.084-0.623-0.004-0.935
			c-0.025-0.09-0.052-0.135-0.157-0.106c-1.143,0.321-2.331,0.396-3.492,0.617c-1.303,0.248-2.559,0.623-3.686,1.348
			c-0.555,0.357-1.013,0.796-1.167,1.477c-0.107,0.474-0.019,0.933,0.081,1.392c0.015,0.068,0.047,0.133,0.027,0.205l0.003-0.003
			c-0.471-0.214-0.805-0.591-1.135-0.969c-0.269-0.308-0.461-0.664-0.601-1.049c-0.007-0.048-0.011-0.096-0.021-0.143
			c-0.104-0.468-0.107-0.929,0.198-1.327c0.424-0.554,0.91-1.05,1.511-1.415c1.583-0.963,3.324-1.419,5.153-1.578
			c0.885-0.077,1.774-0.081,2.656-0.208c0.903-0.131,1.789-0.327,2.646-0.642c1.04-0.383,2.031-0.879,3.035-1.345
			C49.517,7.595,49.628,7.512,49.77,7.526z"/>
		<path fill="#14153C" d="M32.849,15.382c-0.194,0.159-0.407,0.246-0.604,0.355c-0.601,0.333-1.207,0.658-1.704,1.146
			c-0.276,0.271-0.28,0.278-0.092,0.604c0.529,0.922,0.773,1.93,0.92,2.969c0.042,0.298,0.076,0.596,0.118,0.894
			c0.02,0.141-0.003,0.242-0.137,0.336c-0.404,0.282-0.734,0.648-1.069,1.006c-0.273,0.292-0.558,0.572-0.871,0.823
			c-0.652,0.524-1.39,0.767-2.23,0.697c-0.076-0.006-0.215-0.087-0.23,0.08c-0.013,0.14,0.051,0.208,0.211,0.213
			c0.609,0.018,1.217,0.053,1.825,0.078c0.264,0.011,0.258,0.01,0.156,0.239c-0.216,0.487-0.585,0.704-1.114,0.699
			c-0.504-0.005-1.008-0.013-1.547-0.092c0.337,0.299,0.701,0.432,1.106,0.451c0.676,0.032,1.339-0.088,2.004-0.182
			c0.158-0.022,0.316-0.048,0.507-0.077c-0.094,0.14-0.214,0.194-0.321,0.255c-0.908,0.51-1.891,0.635-2.909,0.536
			c-0.892-0.087-1.695-0.403-2.398-0.975c-0.377-0.306-0.835-0.486-1.258-0.718c-0.072-0.039-0.145-0.077-0.25-0.134
			c0.318-0.157,0.601-0.303,0.85-0.505c0.613-0.499,0.974-1.169,1.278-1.875c0.263-0.611,0.502-1.232,0.764-1.844
			c0.491-1.142,1.293-2.045,2.236-2.827c1.369-1.137,2.982-1.757,4.689-2.168C32.789,15.362,32.803,15.371,32.849,15.382z
			 M26.686,23.246c0.015,0.04,0.017,0.05,0.021,0.052c0.027,0.008,0.053,0.016,0.081,0.02c0.558,0.087,1.106,0.029,1.632-0.167
			c0.958-0.358,1.693-0.956,1.992-1.976c0.136-0.463,0.161-0.926-0.186-1.332c-0.059-0.069-0.092-0.103-0.182-0.044
			c-0.152,0.098-0.316,0.18-0.475,0.266c-0.136,0.074-0.19,0.179-0.19,0.34c0,0.388-0.074,0.765-0.226,1.124
			c-0.345,0.82-1.016,1.256-1.821,1.528C27.12,23.129,26.905,23.183,26.686,23.246z M28.712,21.299c0-0.275-0.169-0.43-0.389-0.551
			c-0.201-0.11-0.365-0.038-0.512,0.103c-0.122,0.116-0.242,0.233-0.356,0.357c-0.081,0.088-0.047,0.286,0.062,0.341
			c0.181,0.091,0.358,0.193,0.557,0.24C28.405,21.865,28.708,21.63,28.712,21.299z"/>
		<path fill="#941D2A" d="M49.77,7.526c-0.142-0.014-0.254,0.069-0.372,0.124c-1.004,0.467-1.995,0.962-3.035,1.345
			c-0.857,0.316-1.742,0.511-2.646,0.642c-0.882,0.128-1.772,0.132-2.656,0.208c-1.829,0.158-3.57,0.614-5.153,1.578
			c-0.601,0.366-1.087,0.861-1.511,1.415c-0.305,0.398-0.302,0.859-0.198,1.327c0.01,0.047,0.014,0.096,0.021,0.143
			c-0.181-0.063-0.199-0.246-0.261-0.383c-0.249-0.552-0.333-1.13-0.018-1.673c0.238-0.41,0.582-0.755,0.953-1.055
			c1.245-1.007,2.709-1.511,4.254-1.819c0.83-0.165,1.669-0.227,2.514-0.263c1.12-0.047,2.236-0.159,3.337-0.398
			c1.392-0.302,2.78-0.614,4.132-1.069c0.271-0.091,0.521-0.24,0.805-0.292v0c-0.031,0.052-0.041,0.123-0.122,0.126
			c-0.026,0.004-0.047,0.013-0.047,0.045L49.77,7.526z"/>
		<path fill="#14153C" d="M31.559,27.598c0.31-0.362,0.649-0.696,0.943-1.072c0.869-1.111,1.489-2.354,1.976-3.67
			c0.138-0.373,0.262-0.75,0.407-1.167c0.302,0.578,0.586,1.122,0.893,1.708c0.29-0.849,0.565-1.654,0.856-2.506
			c0.322,0.519,0.622,1.002,0.939,1.512c0.342-0.953,0.528-1.901,0.615-2.871c0.087-0.972,0.036-1.941-0.078-2.908
			c0.811,2.543,0.615,5.024-0.485,7.461c-0.079-0.145-0.154-0.29-0.236-0.431c-0.159-0.274-0.326-0.543-0.578-0.743
			c-0.197-0.157-0.235-0.14-0.304,0.095c-0.194,0.666-0.39,1.331-0.586,1.996c-0.018,0.06-0.039,0.118-0.068,0.206
			c-0.126-0.325-0.214-0.633-0.35-0.923c-0.084-0.179-0.183-0.347-0.297-0.507c-0.084-0.119-0.149-0.179-0.227,0.018
			c-0.382,0.971-1.004,1.78-1.744,2.5c-0.507,0.494-1.047,0.952-1.653,1.324C31.574,27.613,31.567,27.605,31.559,27.598z"/>
		<path fill="#12143C" d="M31.79,22.513c-0.104,0.416-0.108,0.845-0.42,1.164c-0.222,0.226-0.745,0.211-0.961-0.024
			c-0.112-0.123,0.038-0.162,0.087-0.201c0.314-0.251,0.638-0.489,0.96-0.73C31.554,22.648,31.637,22.551,31.79,22.513z"/>
		<path fill="#12143C" d="M41.639,16.746c-0.005,0.007-0.009,0.014-0.014,0.021c0.001-0.004,0-0.009,0.002-0.011
			c0.004-0.004,0.01-0.006,0.015-0.008C41.642,16.749,41.639,16.746,41.639,16.746z"/>
		<path fill="#14153C" d="M31.473,27.689c-0.004-0.004-0.008-0.008-0.012-0.012c0.004-0.003,0.009-0.01,0.013-0.009
			c0.004,0,0.008,0.007,0.012,0.011C31.481,27.682,31.477,27.685,31.473,27.689z"/>
		<path fill="#12143C" d="M49.769,7.527c0-0.031,0.02-0.041,0.047-0.045C49.8,7.497,49.784,7.512,49.769,7.527z"/>
		<path fill="#941D2A" d="M49.937,7.357c0.006-0.006,0.011-0.012,0.017-0.017c-0.001,0.004-0.001,0.009-0.003,0.011
			C49.947,7.353,49.942,7.355,49.937,7.357C49.937,7.357,49.937,7.357,49.937,7.357z"/>
		<path fill="#12143C" d="M35.954,16.329c0.007,0.004,0.013,0.009,0.02,0.013c-0.004,0-0.009,0.001-0.011-0.001
			c-0.003-0.004-0.004-0.01-0.006-0.014C35.956,16.326,35.954,16.329,35.954,16.329z"/>
		<path fill="#12143C" d="M34.651,25.381c-0.006-0.003-0.012-0.006-0.018-0.009c0.005,0.004,0.01,0.007,0.016,0.011
			C34.649,25.383,34.651,25.381,34.651,25.381z"/>
		<path fill="#14153C" d="M31.582,27.621c-0.013,0.006-0.027,0.011-0.04,0.017c0.006-0.013,0.012-0.026,0.018-0.04
			C31.567,27.605,31.574,27.613,31.582,27.621z"/>
		<path fill="#12143C" d="M12.77,32.099c-0.224,0.105-0.328,0.318-0.453,0.51c-0.258,0.396-0.392,0.849-0.578,1.279l0.002,0.002
			c0.044-0.788,0.198-1.544,0.684-2.19c0.275-0.366,0.677-0.485,1.105-0.322c0.602,0.23,1.099,0.613,1.493,1.124
			c0.797,1.037,1.256,2.227,1.556,3.485c0.171,0.718,0.261,1.445,0.218,2.184c-0.031,0.547-0.111,1.082-0.469,1.531
			c-0.188,0.236-0.6,0.362-0.889,0.269c-0.696-0.226-1.245-0.652-1.721-1.202c-0.449-0.519-0.802-1.094-1.101-1.711
			c0.398,0.467,0.77,0.957,1.232,1.402c0.033-0.119-0.034-0.173-0.066-0.233c-0.815-1.522-1.284-3.131-1.239-4.871
			c0.011-0.424,0.106-0.832,0.258-1.227c0.022-0.016,0.041-0.043,0.019-0.061C12.796,32.045,12.785,32.083,12.77,32.099z"/>
		<path fill="#12143C" d="M9.762,37.845c0.225,0.197,0.361,0.479,0.613,0.651c0.015,0.006,0.029,0.012,0.044,0.018
			c-0.005-0.015-0.01-0.031-0.015-0.046c-0.312-0.622-0.571-1.263-0.691-1.953c-0.103-0.591-0.157-1.181,0.045-1.765
			c0.004-0.01-0.007-0.025-0.016-0.057c-0.325,0.287-0.426,0.687-0.601,1.049c0.04-0.472,0.105-0.938,0.415-1.323
			c0.196-0.245,0.464-0.285,0.778-0.143c0.499,0.226,0.855,0.601,1.126,1.067c0.556,0.958,0.875,1.983,0.866,3.099
			c-0.002,0.233-0.044,0.46-0.122,0.679c-0.148,0.416-0.455,0.557-0.866,0.396c-0.487-0.192-0.849-0.539-1.153-0.951
			c-0.165-0.224-0.344-0.441-0.426-0.715C9.758,37.849,9.762,37.845,9.762,37.845z M10.45,38.578l0.009,0.008l0.002-0.011
			L10.45,38.578z"/>
		<path fill="#12143C" d="M9.72,37.804c-0.011-0.015-0.021-0.029-0.032-0.044c0.008-0.003,0.016-0.006,0.024-0.009
			c0.002,0.019,0.004,0.037,0.005,0.056C9.717,37.807,9.72,37.804,9.72,37.804z"/>
		<path fill="#12143C" d="M9.717,37.807c0.031-0.006,0.042,0.012,0.046,0.038c0,0-0.004,0.004-0.004,0.004
			c-0.028-0.002-0.036-0.022-0.039-0.046C9.72,37.804,9.717,37.807,9.717,37.807z"/>
		<path fill="#12143C" d="M11.74,33.888c-0.003,0.005-0.006,0.01-0.009,0.015c0.004-0.004,0.007-0.008,0.011-0.013
			C11.742,33.89,11.74,33.888,11.74,33.888z"/>
		<path fill="#14153C" d="M43.18,40.087c1.652-2.07,2.406-4.538,3.102-7.068c0.085,0.464,0.014,1.309-0.152,1.996
			c-0.398,1.649-1.077,3.181-1.932,4.64c-0.686,1.172-1.476,2.266-2.439,3.228c-0.052,0.051-0.089,0.128-0.219,0.134
			c0.316-1.156,0.628-2.297,0.955-3.493c-0.311,0.225-0.579,0.427-0.856,0.617c-0.987,0.677-2.014,1.274-3.193,1.558
			c-0.384,0.093-0.773,0.125-1.168,0.104c-0.062-0.003-0.127,0.001-0.163-0.036c1.376-0.222,2.525-0.938,3.629-1.743
			c1.03-0.751,1.874-1.683,2.615-2.713c0.04-0.056,0.073-0.119,0.167-0.161C43.47,38.144,43.334,39.113,43.18,40.087z"/>
		<path fill="#14153C" d="M51.832,48.973c0,0.498-0.004,0.996,0.003,1.494c0.002,0.128-0.037,0.172-0.164,0.173
			c-0.476,0.004-0.953,0.01-1.429,0.027c-0.117,0.004-0.126-0.042-0.126-0.131c0.001-0.989,0.002-1.977-0.002-2.966
			c0-0.101,0.039-0.137,0.129-0.145c0.495-0.045,0.99-0.089,1.485-0.137c0.138-0.014,0.101,0.083,0.102,0.15
			C51.833,47.949,51.832,48.461,51.832,48.973z"/>
		<path fill="#14153C" d="M15.105,51.996c0.119-0.921,0.239-1.842,0.358-2.763c0.009-0.001,0.017-0.003,0.026-0.004
			c0.118,0.922,0.237,1.844,0.355,2.766c0.045,0.373,0.082,0.748,0.14,1.12c0.023,0.15-0.007,0.198-0.162,0.192
			c-0.245-0.009-0.491-0.006-0.735,0.01c-0.105,0.007-0.13-0.001-0.115-0.114C15.023,52.802,15.061,52.399,15.105,51.996z"/>
		<path fill="#14153C" d="M44.924,51.997c0.116-0.831,0.233-1.663,0.353-2.522c0.126,0.247,0.11,0.499,0.147,0.738
			c0.091,0.594,0.17,1.19,0.253,1.786c0.003,0.349,0.074,0.69,0.124,1.033c0.022,0.153,0.011,0.238-0.179,0.22
			c-0.228-0.021-0.459-0.026-0.688-0.022c-0.127,0.002-0.151-0.043-0.138-0.158C44.835,52.714,44.919,52.36,44.924,51.997z"/>
		<path fill="#12143C" d="M35.24,54.502c0,0.386-0.004,0.772,0.002,1.158c0.002,0.117-0.01,0.169-0.154,0.163
			c-0.462-0.02-0.925-0.024-1.387-0.023c-0.125,0-0.149-0.044-0.149-0.158c0.004-0.786,0.005-1.572,0-2.358
			c-0.001-0.12,0.032-0.154,0.152-0.152c0.442,0.007,0.884,0.006,1.326,0.001c0.153-0.002,0.222,0.034,0.215,0.211
			C35.229,53.73,35.24,54.116,35.24,54.502z"/>
		<path fill="#1D1F45" d="M18.122,32.926c1.522,2.154,3.436,3.747,6.075,4.327c-0.294,0.068-0.584,0.036-0.868-0.02
			c-1.397-0.272-2.561-0.985-3.594-1.933c-0.689-0.632-1.256-1.355-1.595-2.238C18.125,33.024,18.093,32.989,18.122,32.926z"/>
		<path fill="#12143C" d="M25.124,37.35c-0.006-0.015-0.012-0.029-0.018-0.044c0.016,0.003,0.031,0.006,0.047,0.009
			C25.144,37.327,25.134,37.338,25.124,37.35z"/>
		<path fill="#12143C" d="M22.234,37.361c0.005-0.005,0.009-0.009,0.014-0.013c0.004,0.008,0.01,0.016,0.012,0.024
			c0.001,0.003-0.008,0.008-0.012,0.012C22.243,37.377,22.239,37.369,22.234,37.361z"/>
		<path fill="#12143C" d="M33.543,49.556c0-0.386,0.006-0.771-0.003-1.157c-0.003-0.14,0.027-0.194,0.181-0.191
			c0.455,0.009,0.911,0.004,1.367-0.003c0.114-0.002,0.156,0.023,0.155,0.147c-0.006,0.799-0.005,1.598,0,2.398
			c0.001,0.12-0.034,0.153-0.153,0.152c-0.463-0.007-0.925-0.008-1.388,0.001c-0.135,0.003-0.164-0.044-0.161-0.168
			C33.547,50.341,33.543,49.948,33.543,49.556z"/>
		<path fill="#12143C" d="M39.119,51.999c-0.334-0.313-0.345-0.71-0.335-1.133c0.02-0.855,0.007-1.71,0.005-2.565
			c0-0.105-0.007-0.189,0.143-0.193c0.532-0.013,1.063-0.033,1.594-0.06c0.133-0.007,0.163,0.033,0.162,0.161
			c-0.005,1.072-0.004,2.145-0.001,3.217c0,0.096-0.022,0.174-0.085,0.249c-0.085,0.101-0.158,0.213-0.235,0.32
			c-0.009,0.165,0.145,0.232,0.218,0.348c0.055,0.086,0.093,0.163,0.092,0.267c-0.003,1.058-0.005,2.117,0.002,3.175
			c0.001,0.155-0.049,0.181-0.189,0.175c-0.51-0.022-1.021-0.035-1.532-0.044c-0.107-0.002-0.148-0.032-0.147-0.143
			c0.003-1.073,0.003-2.145,0-3.218c0-0.086,0.045-0.139,0.086-0.205C38.968,52.233,39.11,52.157,39.119,51.999z"/>
		<path fill="#12143C" d="M26.144,51.998c-0.31-0.296-0.343-0.665-0.333-1.071c0.022-0.863,0.012-1.726,0.002-2.59
			c-0.002-0.183,0.057-0.221,0.225-0.213c0.511,0.023,1.023,0.035,1.534,0.043c0.112,0.002,0.142,0.036,0.142,0.144
			c-0.003,1.053-0.002,2.106-0.001,3.158c0,0.075-0.022,0.133-0.069,0.191c-0.087,0.109-0.169,0.223-0.253,0.335
			c-0.015,0.161,0.136,0.22,0.207,0.328c0.059,0.09,0.105,0.169,0.104,0.283c-0.004,1.016-0.005,2.032,0.001,3.048
			c0.001,0.142-0.031,0.181-0.181,0.19c-0.504,0.033-1.008,0.015-1.511,0.038c-0.134,0.006-0.179-0.031-0.178-0.172
			c0.006-1.037,0.005-2.074,0.001-3.111c0-0.115,0.044-0.197,0.107-0.284C26.016,52.214,26.136,52.141,26.144,51.998z"/>
		<path fill="#1D1F45" d="M37.211,29.705c0.584,1.527-0.503,3.951-1.221,4.227C36.949,32.687,37.263,31.272,37.211,29.705z"/>
		<path fill="#12143C" d="M28.556,35.01c0.009,0.008,0.019,0.015,0.028,0.023c0.001,0.001-0.002,0.007-0.003,0.01
			C28.572,35.032,28.564,35.021,28.556,35.01C28.556,35.01,28.556,35.01,28.556,35.01z"/>
		<path fill="#FCEF02" d="M26.686,23.246c0.219-0.063,0.435-0.117,0.644-0.188c0.805-0.272,1.475-0.708,1.821-1.528
			c0.151-0.359,0.226-0.736,0.226-1.124c0-0.161,0.054-0.266,0.19-0.34c0.16-0.086,0.323-0.168,0.475-0.266
			c0.091-0.058,0.123-0.025,0.182,0.044c0.347,0.406,0.322,0.868,0.186,1.332c-0.299,1.02-1.034,1.618-1.992,1.976
			c-0.526,0.196-1.073,0.254-1.632,0.167c-0.027-0.004-0.054-0.012-0.081-0.02C26.702,23.296,26.701,23.286,26.686,23.246z"/>
		<path fill="#FCEF02" d="M28.712,21.299c-0.004,0.33-0.307,0.566-0.637,0.489c-0.199-0.046-0.377-0.149-0.557-0.24
			c-0.109-0.055-0.144-0.252-0.062-0.341c0.113-0.124,0.234-0.241,0.356-0.357c0.148-0.141,0.311-0.213,0.512-0.103
			C28.543,20.869,28.712,21.024,28.712,21.299z"/>
		<path fill="#C62136" d="M12.77,32.099c0.015-0.016,0.026-0.053,0.052-0.031c0.021,0.018,0.002,0.045-0.019,0.061
			C12.792,32.119,12.781,32.109,12.77,32.099z"/>
		<polygon fill="#C62136" points="10.45,38.578 10.461,38.575 10.459,38.586 		"/>
		<path fill="#C62136" d="M10.404,38.468c0.005,0.015,0.01,0.031,0.015,0.046c-0.015-0.006-0.029-0.012-0.044-0.018
			C10.385,38.487,10.394,38.477,10.404,38.468z"/>
	</g>
</g>
</svg>
