<?xml version="1.0" encoding="utf-8"?>
<!-- Generator: Adobe Illustrator 22.0.0, SVG Export Plug-In . SVG Version: 6.00 Build 0)  -->
<svg version="1.1" id="Camada_1" xmlns="http://www.w3.org/2000/svg" xmlns:xlink="http://www.w3.org/1999/xlink" x="0px" y="0px"
	 width="64px" height="64px" viewBox="0 0 64 64" style="enable-background:new 0 0 64 64;" xml:space="preserve">
<g>
	<g>
		<path style="fill:#272E67;" d="M63.996,12.914c-1.439,0-2.877-0.003-4.316,0.004c-0.166,0.001-0.204-0.041-0.203-0.205
			c0.008-1.056,0-2.112,0.009-3.167c0.001-0.171-0.049-0.201-0.208-0.2c-1.082,0.007-2.164,0.009-3.247-0.001
			c-0.184-0.002-0.239,0.032-0.238,0.23c0.007,4.019,0.004,8.037,0.01,12.056c0,0.186-0.036,0.237-0.231,0.237
			c-8.044-0.006-16.088-0.009-24.132,0.008c-0.35,0.001-0.534-0.156-0.726-0.371c-0.224-0.252-0.436-0.515-0.656-0.771
			c-0.401-0.469-0.802-0.938-1.207-1.404c-0.303-0.349-0.614-0.691-0.919-1.04c-0.406-0.464-0.808-0.931-1.239-1.428
			c0,0.094,0,0.16,0,0.227c0,1.524-0.003,3.049,0.004,4.573c0.001,0.164-0.037,0.204-0.203,0.204
			c-6.031-0.005-12.063-0.005-18.094,0c-0.165,0-0.204-0.039-0.204-0.203c0.006-2.415,0.006-4.83,0-7.246
			c0-0.168,0.044-0.202,0.206-0.202c1.373,0.007,2.745,0.008,4.118-0.001c0.173-0.001,0.2,0.051,0.199,0.209
			c-0.008,0.917-0.001,1.834-0.007,2.752c-0.001,0.134,0.027,0.177,0.17,0.176c1.115-0.006,2.23-0.006,3.346,0
			c0.138,0.001,0.175-0.033,0.174-0.173c-0.007-0.924-0.001-1.848-0.006-2.771c-0.001-0.134,0.012-0.193,0.175-0.192
			c1.392,0.008,2.785,0.007,4.177,0.001c0.146-0.001,0.169,0.047,0.168,0.178c-0.006,0.924,0,1.848-0.006,2.771
			c-0.001,0.143,0.027,0.193,0.181,0.186c0.303-0.014,0.607-0.013,0.91,0c0.15,0.006,0.184-0.037,0.183-0.184
			c-0.006-1.465-0.004-2.93-0.004-4.395c0-2.633,0-5.266,0-7.899c0.026,0,0.053,0,0.079,0c0.206,0.259,0.429,0.504,0.649,0.752
			c0.414,0.466,0.814,0.945,1.223,1.416c0.29,0.334,0.587,0.663,0.877,0.998c0.413,0.476,0.822,0.955,1.236,1.432
			c0.205,0.236,0.417,0.466,0.621,0.703c0.386,0.448,0.765,0.901,1.152,1.347c0.312,0.359,0.634,0.71,0.946,1.068
			c0.419,0.48,0.834,0.963,1.249,1.446c0.207,0.241,0.406,0.489,0.614,0.729c0.22,0.253,0.447,0.5,0.698,0.781
			c0-0.408,0.006-0.775-0.003-1.142c-0.004-0.139,0.02-0.19,0.178-0.189c1.373,0.007,2.745,0.007,4.118,0.001
			c0.143-0.001,0.188,0.028,0.186,0.181c-0.008,0.93-0.001,1.861-0.007,2.791c-0.001,0.13,0.034,0.166,0.163,0.163
			c0.323-0.009,0.647-0.013,0.97,0.001c0.155,0.007,0.181-0.045,0.18-0.187c-0.006-0.924-0.001-1.848-0.006-2.772
			c-0.001-0.133,0.024-0.178,0.169-0.177c1.392,0.006,2.785,0.006,4.177,0c0.137-0.001,0.176,0.031,0.175,0.172
			c-0.007,0.93,0,1.861-0.007,2.791c-0.001,0.141,0.038,0.172,0.175,0.172c1.109-0.006,2.217-0.007,3.326,0.001
			c0.164,0.001,0.189-0.052,0.189-0.198c-0.005-1.34-0.006-2.679,0.001-4.019c0.001-0.173-0.034-0.228-0.22-0.227
			c-2.593,0.007-5.187,0.003-7.78,0.009c-0.163,0-0.205-0.037-0.204-0.203c0.006-2.613,0.004-5.226,0.004-7.84
			c1.505,0,3.009,0,4.514,0c0,1.128,0.003,2.256-0.004,3.384C41.816,8.406,41.851,8.444,42,8.443c1.108-0.007,2.216-0.007,3.324,0
			c0.149,0.001,0.184-0.037,0.183-0.184c-0.007-1.128-0.004-2.256-0.004-3.384c1.505,0,3.009,0,4.514,0c0,2.435,0,4.869,0,7.304
			c0,1.663,0.002,3.326-0.003,4.988c0,0.145,0.03,0.192,0.182,0.185c0.29-0.014,0.581-0.016,0.871,0.001
			c0.184,0.011,0.222-0.049,0.222-0.225c-0.005-4.084-0.004-8.169-0.004-12.253c4.184,0,8.368,0.001,12.553-0.004
			C63.973,4.871,64,4.898,64,5.033C63.995,7.66,63.996,10.287,63.996,12.914z"/>
		<path style="fill:#272E67;" d="M0.005,51.522c1.439,0,2.877,0.003,4.316-0.004c0.167-0.001,0.204,0.043,0.202,0.205
			c-0.009,0.904,0,1.808-0.008,2.712c-0.001,0.162,0.021,0.222,0.208,0.22c1.095-0.011,2.191-0.008,3.287-0.002
			c0.15,0.001,0.198-0.031,0.196-0.191c-0.009-0.924-0.001-1.848-0.008-2.772c-0.001-0.14,0.036-0.173,0.174-0.173
			c1.393,0.005,2.785,0.006,4.178,0c0.144-0.001,0.17,0.044,0.169,0.177c-0.006,0.924,0,1.848-0.006,2.772
			c-0.001,0.142,0.025,0.194,0.18,0.187c0.303-0.014,0.607-0.013,0.91,0c0.148,0.006,0.184-0.035,0.184-0.183
			c-0.006-1.406-0.004-2.811-0.004-4.217c0-2.627,0-5.253,0-7.88c0-0.071,0-0.142,0-0.236c0.242,0.177,0.389,0.411,0.576,0.605
			c0.22,0.228,0.41,0.485,0.617,0.726c0.415,0.483,0.83,0.966,1.249,1.446c0.308,0.354,0.625,0.7,0.932,1.054
			c0.387,0.446,0.767,0.899,1.153,1.347c0.2,0.232,0.406,0.458,0.607,0.69c0.422,0.486,0.841,0.974,1.264,1.46
			c0.295,0.339,0.596,0.672,0.891,1.012c0.404,0.466,0.804,0.937,1.208,1.404c0.196,0.227,0.395,0.451,0.595,0.674
			c0.077,0.085,0.167,0.158,0.254,0.255c0-0.372,0.006-0.743-0.003-1.115c-0.003-0.135,0.028-0.177,0.17-0.176
			c1.393,0.006,2.785,0.006,4.178,0c0.14-0.001,0.174,0.035,0.173,0.174c-0.007,0.924,0.001,1.848-0.008,2.772
			c-0.002,0.162,0.049,0.195,0.197,0.19c0.29-0.011,0.581-0.013,0.871,0.001c0.16,0.007,0.21-0.029,0.208-0.2
			c-0.01-0.917-0.001-1.835-0.008-2.752c-0.001-0.147,0.034-0.185,0.183-0.184c1.386,0.006,2.772,0.007,4.158,0
			c0.153-0.001,0.182,0.043,0.181,0.186c-0.007,0.924-0.001,1.848-0.006,2.772c-0.001,0.132,0.023,0.179,0.169,0.178
			c1.122-0.007,2.244-0.006,3.366-0.001c0.12,0,0.155-0.027,0.154-0.151c-0.005-1.379-0.007-2.759,0.001-4.138
			c0.001-0.175-0.092-0.149-0.196-0.149c-2.587,0-5.174-0.003-7.761,0.006c-0.214,0.001-0.249-0.063-0.249-0.259
			c0.007-2.541,0.006-5.082,0.001-7.623c0-0.161,0.032-0.207,0.201-0.206c1.379,0.008,2.759,0.007,4.138,0.001
			c0.15-0.001,0.184,0.038,0.183,0.184c-0.007,1.076,0.001,2.152-0.008,3.227c-0.001,0.172,0.05,0.201,0.208,0.2
			c1.096-0.007,2.191-0.007,3.287-0.001c0.148,0.001,0.198-0.028,0.197-0.19c-0.008-1.076-0.001-2.151-0.008-3.227
			c-0.001-0.155,0.038-0.194,0.193-0.193c1.379,0.006,2.759,0.007,4.138,0c0.161-0.001,0.19,0.048,0.19,0.197
			c-0.004,4.032-0.002,8.065-0.007,12.097c0,0.171,0.029,0.24,0.219,0.228c0.289-0.019,0.581-0.014,0.871-0.001
			c0.147,0.006,0.186-0.032,0.185-0.182c-0.007-1.247-0.004-2.495-0.004-3.742c0-2.792,0.002-5.583-0.005-8.375
			c0-0.184,0.049-0.236,0.226-0.221c0.183,0.016,0.369,0.005,0.554,0.003c2.386-0.028,4.773,0.09,7.158,0.031
			c1.529-0.038,3.057-0.006,4.585-0.033c0.149-0.003,0.197,0.029,0.197,0.19c-0.006,2.567-0.006,5.135,0,7.702
			c0,0.155-0.039,0.194-0.193,0.193c-1.379-0.006-2.759-0.007-4.138,0c-0.162,0.001-0.191-0.049-0.19-0.197
			c0.006-1.056,0-2.112,0.007-3.168c0.001-0.158-0.028-0.209-0.2-0.208c-1.095,0.009-2.191,0.008-3.287,0
			c-0.164-0.001-0.205,0.037-0.204,0.203c0.005,4.092,0.004,8.183,0.004,12.275c-8.263,0-16.526,0-24.789,0
			c-1.429-1.648-2.859-3.296-4.316-4.976c0,1.695,0,3.335,0,4.976c-6.1,0-12.2-0.001-18.3,0.004c-0.152,0-0.198-0.018-0.197-0.188
			C0.007,56.468,0.005,53.995,0.005,51.522z"/>
		<path style="fill:#272E67;" d="M0.005,32.436c1.439,0,2.877,0.003,4.316-0.004c0.167-0.001,0.204,0.042,0.202,0.205
			c-0.008,1.056,0.001,2.112-0.009,3.168c-0.002,0.172,0.05,0.2,0.208,0.199c1.089-0.007,2.178-0.008,3.267,0
			c0.167,0.001,0.218-0.029,0.217-0.21c-0.006-4.012-0.003-8.025-0.01-12.037c0-0.189,0.04-0.235,0.233-0.235
			c8.084,0.006,16.168,0.007,24.252-0.004c0.265,0,0.414,0.113,0.561,0.283c0.207,0.241,0.407,0.488,0.613,0.729
			c0.419,0.488,0.839,0.976,1.263,1.46c0.322,0.368,0.654,0.727,0.974,1.096c0.383,0.441,0.758,0.889,1.138,1.334
			c0.015,0.017,0.035,0.031,0.076,0.067c0-0.177,0-0.32,0-0.463c0-1.439,0.002-2.877-0.003-4.316
			c-0.001-0.143,0.028-0.186,0.181-0.186c6.045,0.004,12.09,0.004,18.135,0c0.147,0,0.184,0.033,0.184,0.182
			c-0.005,2.415-0.005,4.831,0,7.246c0,0.151-0.041,0.182-0.185,0.181c-1.386-0.006-2.772-0.007-4.157,0.001
			c-0.157,0.001-0.179-0.049-0.178-0.188c0.006-0.924,0-1.848,0.006-2.772c0.001-0.135-0.028-0.177-0.17-0.176
			c-1.115,0.006-2.231,0.006-3.346,0c-0.139-0.001-0.174,0.035-0.173,0.173c0.007,0.924-0.001,1.848,0.008,2.772
			c0.002,0.161-0.048,0.191-0.197,0.19c-1.373-0.006-2.745-0.008-4.118,0.002c-0.187,0.001-0.209-0.059-0.207-0.221
			c0.007-0.911,0-1.821,0.007-2.732c0.001-0.145-0.03-0.192-0.182-0.185c-0.303,0.013-0.607,0.013-0.91,0
			c-0.152-0.007-0.182,0.04-0.182,0.185c0.005,1.749,0.003,3.498,0.003,5.246c0,2.277,0,4.553,0,6.83c0,0.069,0,0.139,0,0.236
			c-0.233-0.136-0.34-0.346-0.496-0.506c-0.234-0.242-0.439-0.512-0.659-0.768c-0.415-0.483-0.831-0.966-1.249-1.446
			c-0.304-0.349-0.615-0.691-0.918-1.04c-0.396-0.456-0.784-0.919-1.18-1.375c-0.303-0.349-0.615-0.691-0.918-1.04
			c-0.396-0.456-0.784-0.919-1.18-1.375c-0.303-0.349-0.615-0.691-0.918-1.04c-0.396-0.456-0.785-0.918-1.18-1.375
			c-0.203-0.234-0.413-0.462-0.646-0.722c0,0.414-0.006,0.794,0.003,1.173c0.003,0.125-0.034,0.152-0.154,0.152
			c-1.392-0.004-2.785-0.005-4.177,0.001c-0.129,0-0.149-0.042-0.149-0.157c0.004-0.93-0.001-1.861,0.006-2.791
			c0.001-0.142-0.025-0.194-0.18-0.187c-0.323,0.014-0.647,0.01-0.97,0.001c-0.129-0.004-0.164,0.033-0.163,0.163
			c0.006,0.93-0.001,1.861,0.007,2.791c0.001,0.153-0.043,0.181-0.186,0.18c-1.379-0.006-2.758-0.007-4.138,0.001
			c-0.174,0.001-0.199-0.054-0.198-0.21c0.007-0.917,0.001-1.835,0.007-2.752c0.001-0.136-0.03-0.176-0.171-0.175
			c-1.115,0.006-2.231,0.006-3.346,0c-0.141-0.001-0.173,0.037-0.172,0.174c0.005,1.359,0.007,2.719-0.001,4.078
			c-0.001,0.163,0.051,0.189,0.198,0.189c2.593-0.004,5.187-0.001,7.78-0.007c0.172,0,0.228,0.031,0.228,0.219
			c-0.007,2.541-0.007,5.081-0.001,7.622c0,0.162-0.035,0.206-0.202,0.205c-1.379-0.008-2.758-0.007-4.138,0
			c-0.151,0.001-0.183-0.04-0.182-0.185c0.007-1.062-0.001-2.125,0.008-3.187c0.002-0.172-0.051-0.2-0.208-0.199
			c-1.095,0.007-2.191,0.007-3.286,0c-0.149-0.001-0.198,0.029-0.197,0.19c0.008,1.062,0.001,2.125,0.008,3.187
			c0.001,0.155-0.038,0.194-0.193,0.194c-1.379-0.006-2.758-0.007-4.138,0c-0.16,0.001-0.19-0.047-0.19-0.196
			c0.004-4.012,0.001-8.025,0.009-12.037c0-0.214-0.062-0.26-0.259-0.249c-0.296,0.017-0.594,0.008-0.891,0.003
			c-0.092-0.002-0.136,0.022-0.124,0.12c0.006,0.045,0.001,0.092,0.001,0.138c0,3.999-0.001,7.998,0.004,11.997
			c0,0.179-0.043,0.224-0.223,0.224c-4.164-0.006-8.328-0.004-12.492-0.004C0.005,37.795,0.005,35.115,0.005,32.436z"/>
		<path style="fill:#8EB5D8;" d="M20.873,4.875c0.001,2.626,0.001,5.252,0.006,7.878c0,0.136-0.05,0.163-0.173,0.163
			c-1.372-0.003-2.745-0.005-4.117,0.001c-0.153,0.001-0.187-0.049-0.186-0.192c0.005-1.049-0.001-2.098,0.006-3.147
			c0.001-0.172-0.033-0.238-0.225-0.236c-1.095,0.01-2.19,0.01-3.286,0c-0.194-0.002-0.224,0.066-0.223,0.237
			c0.007,1.042,0,2.085,0.007,3.127c0.001,0.161-0.037,0.213-0.206,0.212c-1.352-0.007-2.705-0.008-4.058,0.001
			c-0.184,0.001-0.214-0.059-0.214-0.225c0.005-2.52,0.004-5.041,0.003-7.561c0-0.086-0.005-0.171-0.007-0.257
			C12.426,4.875,16.65,4.875,20.873,4.875z"/>
		<path style="fill:#8EB5D8;" d="M36,4.875c0,2.605-0.002,5.21,0.004,7.814c0,0.182-0.048,0.229-0.229,0.228
			c-1.339-0.008-2.677-0.008-4.016,0c-0.181,0.001-0.231-0.045-0.23-0.229c0.006-2.519,0.004-5.038,0.004-7.557
			c0-0.086-0.005-0.171-0.007-0.257C33.017,4.875,34.509,4.875,36,4.875z"/>
		<path style="fill:#E2ECF4;" d="M0.005,42.177c0.014,0,0.027,0.001,0.041,0.001c0,2.631-0.001,5.263-0.001,7.894
			c0,0.046,0.005,0.092,0.008,0.138c-0.016,0.002-0.032,0.004-0.047,0.006C0.005,47.536,0.005,44.856,0.005,42.177z"/>
		<path style="fill:#8EB5D8;" d="M49.45,40.474c-2.033,0-4.065-0.002-6.098,0.004c-0.176,0.001-0.233-0.038-0.233-0.226
			c0.007-2.528,0.006-5.055,0.001-7.583c0-0.173,0.034-0.236,0.225-0.235c1.34,0.009,2.679,0.008,4.019,0.001
			c0.187-0.001,0.235,0.058,0.234,0.237c-0.007,1.043,0,2.085-0.007,3.128c-0.001,0.165,0.048,0.211,0.211,0.21
			c1.102-0.007,2.204-0.008,3.306,0.001c0.182,0.001,0.217-0.057,0.216-0.225c-0.007-1.049-0.001-2.099-0.007-3.148
			c-0.001-0.151,0.034-0.204,0.196-0.203c1.353,0.006,2.706,0.007,4.059,0c0.178-0.001,0.222,0.059,0.222,0.228
			c-0.004,2.534-0.005,5.068,0.001,7.603c0,0.187-0.066,0.211-0.228,0.211C53.529,40.472,51.49,40.474,49.45,40.474z"/>
		<path style="fill:#8EB5D8;" d="M0.053,50.209c-0.003-0.046-0.008-0.092-0.008-0.138c0-2.631,0.001-5.263,0.001-7.894
			c0.059-0.001,0.119-0.004,0.178-0.004c4.071,0,8.141,0.001,12.212-0.005c0.204,0,0.249,0.055,0.248,0.252
			c-0.007,2.514-0.007,5.027-0.001,7.541c0,0.191-0.033,0.258-0.245,0.256c-1.339-0.011-2.679-0.009-4.018-0.001
			c-0.181,0.001-0.217-0.054-0.216-0.223c0.008-1.042,0-2.085,0.007-3.127c0.001-0.166-0.032-0.228-0.215-0.227
			c-1.102,0.009-2.204,0.007-3.305,0.001c-0.161-0.001-0.214,0.039-0.213,0.208c0.007,1.056,0.001,2.111,0.007,3.167
			c0.001,0.154-0.04,0.201-0.198,0.201C2.876,50.208,1.464,50.21,0.053,50.209z"/>
		<path style="fill:#8EB5D8;" d="M28.001,36.459c0-1.266,0.003-2.533-0.003-3.799c-0.001-0.165,0.028-0.227,0.213-0.226
			c1.346,0.009,2.691,0.008,4.037,0.001c0.175-0.001,0.224,0.053,0.224,0.226c-0.005,2.539-0.005,5.079,0,7.618
			c0,0.159-0.046,0.199-0.2,0.198c-1.359-0.006-2.718-0.006-4.076,0c-0.158,0.001-0.198-0.045-0.197-0.199
			C28.004,39.005,28.001,37.732,28.001,36.459z"/>
		<path style="fill:#8EB5D8;" d="M27.807,46.216c0,1.26-0.004,2.521,0.004,3.781c0.001,0.177-0.048,0.22-0.221,0.219
			c-1.339-0.007-2.679-0.007-4.018,0c-0.176,0.001-0.24-0.04-0.239-0.229c0.008-1.287-0.017-2.574,0.01-3.86
			c0.026-1.253,0.007-2.506,0.014-3.759c0.001-0.161,0.052-0.197,0.203-0.197c1.346,0.005,2.692,0.007,4.038-0.002
			c0.186-0.001,0.213,0.065,0.212,0.227C27.804,43.67,27.807,44.943,27.807,46.216z"/>
	</g>
</g>
</svg>
