<?xml version="1.0" encoding="utf-8"?>
<!-- Generator: Adobe Illustrator 23.0.2, SVG Export Plug-In . SVG Version: 6.00 Build 0)  -->
<svg version="1.1" id="Layer_1" xmlns="http://www.w3.org/2000/svg" xmlns:xlink="http://www.w3.org/1999/xlink" x="0px" y="0px"
	 width="64px" height="64px" viewBox="0 0 64 64" enable-background="new 0 0 64 64" xml:space="preserve">
<g>
	<g>
		<path fill="#FFFFFF" d="M0.002,32.233c0-2.872,0-5.743,0-8.615c0-0.186-0.042-0.198,0.192-0.197
			c1.628,0.001,3.256,0.001,4.884,0.001c0.226,0,0.192,0.01,0.192,0.199c0,1.974,0,3.947,0,5.921c0,0.014,0,0.029,0,0.043
			c0.003,0.117,0.008,0.127,0.121,0.124c0.239-0.008,0.478-0.022,0.718-0.033c0.494-0.024,0.983-0.087,1.47-0.174
			c0.689-0.124,1.362-0.307,2.024-0.536c0.685-0.237,1.342-0.532,1.977-0.877c0.891-0.484,1.71-1.071,2.461-1.751
			c0.647-0.586,1.235-1.229,1.755-1.932c0.345-0.466,0.658-0.95,0.941-1.456c0.311-0.556,0.576-1.133,0.803-1.728
			c0.15-0.393,0.275-0.794,0.387-1.2c0.107-0.388,0.192-0.78,0.263-1.175c0.086-0.481,0.14-0.968,0.169-1.457
			c0.013-0.225,0.021-0.45,0.022-0.676c0-0.124,0.008-0.134,0.129-0.133c0.533,0.002,1.064,0.023,1.594,0.077
			c0.301,0.031,0.601,0.062,0.9,0.106c0.517,0.075,1.031,0.169,1.54,0.292c0.26,0.063,0.521,0.123,0.779,0.195
			c0.524,0.146,1.041,0.316,1.552,0.504c0.59,0.218,1.163,0.472,1.725,0.75c0.541,0.267,1.064,0.568,1.574,0.891
			c0.665,0.42,1.3,0.88,1.908,1.378c0.333,0.273,0.651,0.561,0.965,0.856c0.464,0.435,0.899,0.896,1.313,1.377
			c0.475,0.551,0.91,1.132,1.317,1.735c0.332,0.493,0.641,1,0.922,1.524c0.308,0.573,0.59,1.159,0.833,1.763
			c0.158,0.39,0.304,0.784,0.437,1.183c0.158,0.477,0.3,0.96,0.414,1.45c0.099,0.424,0.182,0.852,0.255,1.282
			c0.114,0.672,0.177,1.349,0.226,2.028c0.003,0.048,0.002,0.096,0.002,0.144c0.001,2.603,0.002,5.206,0.003,7.808
			c0,0.182-0.024,0.177,0.18,0.177c1.273,0.002,2.545-0.008,3.818,0.009c1.733,0.023,3.467-0.005,5.2,0.017
			c0.499,0.006,0.998,0.011,1.497,0.009c0.379-0.001,0.755-0.057,1.13-0.113c0.28-0.042,0.557-0.094,0.834-0.155
			c0.384-0.084,0.764-0.184,1.139-0.302c0.759-0.239,1.491-0.542,2.192-0.917c0.722-0.385,1.404-0.833,2.043-1.346
			c0.68-0.546,1.303-1.15,1.863-1.819c0.595-0.71,1.111-1.473,1.544-2.292c0.076-0.143,0.153-0.286,0.228-0.43
			c0.035-0.067,0.018-0.093-0.061-0.098c-0.024-0.001-0.048,0-0.072,0c-4.817-0.001-9.633-0.001-14.45-0.001
			c-0.255,0-0.221-0.011-0.221-0.218c-0.001-1.633-0.001-3.266,0-4.898c0-0.205-0.03-0.204,0.201-0.204c4.111,0,8.221,0,12.332,0
			c0.706,0,1.412-0.005,2.118-0.008c0.191-0.001,0.189-0.001,0.107-0.17c-0.314-0.647-0.686-1.258-1.103-1.843
			c-0.348-0.487-0.731-0.943-1.141-1.38c-0.635-0.676-1.338-1.271-2.099-1.798c-0.693-0.481-1.429-0.889-2.202-1.223
			c-0.539-0.233-1.093-0.429-1.661-0.587c-0.389-0.108-0.779-0.209-1.175-0.278c-0.566-0.099-1.136-0.166-1.716-0.164
			c-2.828,0.01-5.657,0.004-8.486,0.004c-0.189,0-0.198,0.033-0.198-0.193c0.001-1.647,0-3.294,0-4.942c0-0.029,0.001-0.058,0-0.086
			c-0.003-0.067,0.031-0.096,0.096-0.095c0.034,0.001,0.067-0.001,0.101-0.001c2.627,0,5.254-0.002,7.88,0.004
			c0.59,0.001,1.179,0.027,1.767,0.086c0.751,0.074,1.493,0.195,2.229,0.359c0.448,0.1,0.89,0.223,1.329,0.359
			c0.26,0.08,0.52,0.158,0.775,0.251c0.486,0.176,0.965,0.37,1.435,0.586c0.404,0.185,0.803,0.381,1.192,0.595
			c0.44,0.242,0.87,0.5,1.29,0.777c0.467,0.308,0.919,0.637,1.356,0.986c0.479,0.382,0.937,0.787,1.375,1.216
			c0.644,0.629,1.238,1.3,1.786,2.014c0.473,0.616,0.9,1.262,1.292,1.932c0.358,0.611,0.674,1.244,0.954,1.895
			c0.184,0.427,0.348,0.862,0.504,1.3c0.038,0.106,0.022,0.173-0.058,0.253c-0.881,0.879-1.759,1.761-2.638,2.642
			c-0.03,0.03-0.062,0.059-0.091,0.09c-0.072,0.077-0.074,0.086,0.001,0.162c0.303,0.306,0.606,0.612,0.91,0.916
			c0.612,0.613,1.224,1.226,1.838,1.836c0.064,0.063,0.076,0.122,0.047,0.205c-0.289,0.811-0.625,1.601-1.015,2.37
			c-0.449,0.885-0.971,1.725-1.556,2.525c-0.398,0.543-0.829,1.06-1.286,1.557c-0.65,0.705-1.349,1.355-2.097,1.954
			c-0.466,0.373-0.95,0.724-1.453,1.046c-0.559,0.358-1.134,0.69-1.73,0.986c-0.475,0.236-0.959,0.454-1.45,0.653
			c-0.349,0.141-0.706,0.263-1.064,0.382c-0.29,0.096-0.583,0.18-0.875,0.266c-0.261,0.077-0.528,0.135-0.795,0.193
			c-0.323,0.071-0.646,0.148-0.973,0.197c-0.265,0.04-0.53,0.083-0.797,0.112c-0.343,0.037-0.686,0.074-1.031,0.096
			c-0.45,0.029-0.901,0.045-1.351,0.046c-4.961,0.001-9.922,0.001-14.882,0.001c-0.014,0-0.029,0-0.043,0
			c-0.123-0.002-0.125-0.002-0.125-0.13c-0.001-0.706-0.002-1.412-0.003-2.118c-0.001-3.669-0.002-7.338-0.003-11.007
			c0-0.279-0.035-0.555-0.066-0.831c-0.05-0.443-0.129-0.882-0.229-1.316c-0.096-0.418-0.213-0.832-0.352-1.239
			c-0.126-0.367-0.261-0.729-0.416-1.084c-0.403-0.929-0.912-1.797-1.518-2.607c-0.591-0.791-1.263-1.506-2.017-2.144
			c-0.639-0.54-1.319-1.021-2.05-1.431c-0.384-0.215-0.776-0.413-1.176-0.595c-0.269-0.122-0.548-0.22-0.823-0.328
			c-0.027-0.01-0.057-0.01-0.084-0.021c-0.061-0.024-0.092-0.011-0.116,0.057c-0.101,0.283-0.204,0.565-0.316,0.844
			c-0.173,0.43-0.364,0.852-0.569,1.268c-0.303,0.613-0.639,1.208-1.011,1.782c-0.323,0.497-0.664,0.981-1.032,1.447
			c-0.506,0.641-1.052,1.247-1.637,1.816c-0.349,0.34-0.713,0.664-1.089,0.973c-0.454,0.373-0.923,0.726-1.41,1.055
			c-0.063,0.043-0.128,0.084-0.19,0.129c-0.058,0.042-0.059,0.062,0.001,0.105c0.124,0.089,0.251,0.173,0.377,0.26
			c0.737,0.507,1.428,1.072,2.081,1.684c0.858,0.804,1.633,1.68,2.322,2.633c0.512,0.709,0.975,1.448,1.38,2.224
			c0.31,0.595,0.596,1.2,0.839,1.825c0.225,0.578,0.421,1.166,0.59,1.764c0.146,0.517,0.27,1.04,0.37,1.567
			c0.068,0.357,0.117,0.718,0.166,1.079c0.059,0.443,0.089,0.887,0.122,1.332c0.021,0.287,0.021,0.575,0.026,0.863
			c0.003,0.142-0.002,0.145-0.144,0.145c-0.538,0.001-1.076,0.001-1.614,0c-1.095,0-2.19,0-3.285-0.001
			c-0.034,0-0.067,0.001-0.101,0c-0.094-0.005-0.106-0.013-0.106-0.111c0-0.293-0.014-0.585-0.035-0.877
			c-0.024-0.345-0.065-0.688-0.116-1.029c-0.054-0.36-0.124-0.717-0.21-1.07c-0.114-0.469-0.254-0.93-0.418-1.385
			c-0.183-0.509-0.396-1.004-0.641-1.485c-0.358-0.704-0.78-1.369-1.258-1.999c-0.414-0.545-0.869-1.051-1.359-1.527
			c-0.446-0.433-0.926-0.827-1.43-1.192c-0.57-0.414-1.174-0.772-1.801-1.09c-0.49-0.248-0.997-0.46-1.516-0.638
			c-0.489-0.167-0.986-0.31-1.492-0.422c-0.408-0.09-0.819-0.161-1.232-0.213C6.519,34.337,6.16,34.309,5.8,34.3
			c-0.139-0.003-0.278-0.012-0.417-0.011c-0.107,0.001-0.11,0.005-0.112,0.116c-0.001,0.048,0,0.096,0,0.144
			c0,2.108,0,4.216,0,6.325c0,0.024,0.001,0.048,0,0.072c-0.005,0.101-0.009,0.106-0.106,0.111
			c-0.058,0.002-0.115,0.001-0.173,0.001c-1.604,0-3.208,0-4.812,0c-0.183,0-0.178,0.023-0.178-0.18
			C0.003,37.996,0.003,35.114,0.002,32.233C0.003,32.233,0.002,32.233,0.002,32.233z"/>
	</g>
</g>
</svg>
