<?xml version="1.0" encoding="utf-8"?>
<!-- Generator: Adobe Illustrator 22.0.0, SVG Export Plug-In . SVG Version: 6.00 Build 0)  -->
<svg version="1.1" id="Camada_1" xmlns="http://www.w3.org/2000/svg" xmlns:xlink="http://www.w3.org/1999/xlink" x="0px" y="0px"
	 width="64px" height="64px" viewBox="0 0 64 64" enable-background="new 0 0 64 64" xml:space="preserve">
<g>
	<g>
		<path fill="#CC122B" d="M0.656,36.105c0.023-0.047,0.047-0.094,0.07-0.141c0,0,0,0.003,0,0.003
			c0.015-0.021,0.029-0.042,0.044-0.063c0.138,0.019,0.182-0.085,0.235-0.18c0.195-0.351,0.371-0.714,0.588-1.05
			c0.433-0.67,0.798-1.379,1.197-2.067c0.468-0.807,0.919-1.628,1.394-2.431c0.709-1.2,1.362-2.431,2.092-3.619
			c0.666-1.083,1.255-2.214,1.901-3.309c0.411-0.697,0.807-1.406,1.178-2.12c0.233-0.449,0.473-0.556,0.929-0.552
			c6.885,0.05,13.77-0.066,20.654,0.066c0.931,0.018,1.864-0.049,2.793-0.042c2.902,0.023,5.803-0.012,8.708,0.078
			c5.036,0.156,10.078-0.034,15.117,0.089c1.876,0.046,3.754,0.007,5.632,0.011c0.121,0,0.277-0.065,0.356,0.069
			c0.084,0.142-0.042,0.247-0.103,0.372c-0.127,0.263-0.336,0.489-0.376,0.792c-0.007,0.019-0.011,0.038-0.013,0.058
			c-0.242,0.237-0.426,0.508-0.503,0.844c-0.007,0.019-0.011,0.038-0.012,0.058c-0.247,0.03-0.174,0.231-0.202,0.378
			c-0.242,0.12-0.32,0.347-0.38,0.586c0,0.178-0.225,0.254-0.199,0.443c-0.121,0.108-0.331,0.182-0.152,0.403
			c-0.035,0.061-0.069,0.121-0.104,0.182c-0.15-0.022-0.189,0.07-0.196,0.193c-0.094,0.016-0.13,0.082-0.177,0.161
			c-0.279,0.46-0.452,0.978-0.79,1.406c-0.066,0.084-0.16,0.232-0.045,0.369c-0.042,0.067-0.085,0.133-0.127,0.2
			c-0.293,0.036-0.318,0.215-0.238,0.448c-0.013,0.018-0.026,0.036-0.039,0.054c-0.125-0.015-0.187,0.06-0.252,0.154
			c-0.202,0.295-0.338,0.627-0.526,0.932c-0.11,0.178-0.338,0.379-0.231,0.658c-0.007,0.014-0.015,0.029-0.022,0.043
			c-0.054-0.032-0.109-0.025-0.137,0.028c-0.177,0.336-0.432,0.626-0.568,0.986c-0.026,0.068-0.083,0.139,0.038,0.172
			c-0.014,0.017-0.029,0.035-0.043,0.052c-0.489,0.4-0.729,0.947-0.9,1.533c-0.021,0.027-0.042,0.055-0.063,0.082
			c-0.116,0.011-0.155,0.112-0.201,0.19c-0.464,0.785-0.927,1.569-1.38,2.36c-0.321,0.56-0.607,1.14-0.94,1.692
			c-0.406,0.673-0.794,1.361-1.287,1.977c-0.427,0.533-0.882,1.041-1.394,1.5c-0.379,0.34-0.761,0.67-1.161,0.987
			c-0.498,0.396-1.021,0.749-1.583,1.009c-1.035,0.479-2.075,0.941-3.244,1.084c-0.828,0.101-1.649,0.228-2.483,0.217
			c-1.607-0.02-3.215-0.032-4.821-0.037c-5.233-0.019-10.466-0.069-15.699,0.026c-2.11,0.038-4.222,0.019-6.334-0.028
			c-2.494-0.055-4.99-0.042-7.485-0.138c-1.455-0.056-2.913,0.004-4.37,0.048c-0.834,0.026-1.584-0.251-2.291-0.677
			c-0.606-0.365-1.107-0.832-1.494-1.424c-0.402-0.615-0.826-1.219-0.766-2.009c-0.019-0.139,0.116-0.32-0.109-0.403
			c0-0.256-0.001-0.513-0.001-0.769c0.205-0.058,0.104-0.216,0.111-0.338c-0.035-0.381,0.085-0.731,0.217-1.078
			c0.119-0.016,0.123-0.104,0.119-0.195c-0.008-0.051-0.015-0.102-0.023-0.153c0.001-0.018,0.01-0.031,0.025-0.04
			c0.058,0.001,0.13,0.014,0.153-0.052C0.769,36.114,0.705,36.11,0.656,36.105z M21.811,21.957c0-0.008,0-0.015,0-0.023
			c-3.67,0-7.341,0.003-11.011-0.007c-0.253-0.001-0.379,0.086-0.499,0.296c-2.771,4.852-5.551,9.7-8.324,14.551
			c-1.168,2.043-0.022,4.624,2.27,5.134c0.678,0.151,1.369,0.083,2.052,0.095c3.046,0.051,6.094,0.019,9.141,0.065
			c2.586,0.039,5.173,0.006,7.759,0.009c6.75,0.008,13.499,0.016,20.249,0.028c0.731,0.001,1.46-0.023,2.177-0.163
			c3.394-0.664,5.928-2.517,7.64-5.519c2.672-4.687,5.356-9.366,8.033-14.05c0.056-0.097,0.187-0.198,0.118-0.31
			c-0.066-0.107-0.218-0.046-0.33-0.046c-9.454-0.025-18.908,0.008-28.362-0.055C29.087,21.937,25.449,21.957,21.811,21.957z"/>
		<path fill="#D84B5D" d="M63.066,22.011c0.04-0.304,0.249-0.53,0.376-0.792c0.06-0.125,0.186-0.23,0.103-0.372
			c-0.079-0.134-0.236-0.068-0.356-0.069c-1.877-0.004-3.756,0.035-5.632-0.011c-5.039-0.123-10.082,0.067-15.117-0.089
			c-2.904-0.09-5.806-0.055-8.708-0.078c-0.929-0.007-1.862,0.06-2.793,0.042c-6.885-0.132-13.77-0.016-20.654-0.066
			c-0.456-0.003-0.696,0.104-0.929,0.552c-0.371,0.714-0.767,1.423-1.178,2.12c-0.646,1.096-1.235,2.226-1.901,3.309
			c-0.731,1.188-1.384,2.419-2.092,3.619C3.709,30.979,3.258,31.8,2.79,32.607c-0.399,0.688-0.764,1.397-1.197,2.067
			c-0.217,0.336-0.394,0.699-0.588,1.05c-0.052,0.094-0.096,0.198-0.235,0.18c0.184-0.495,0.492-0.924,0.751-1.378
			c2.239-3.919,4.488-7.833,6.733-11.749c0.384-0.669,0.771-1.337,1.14-2.015c0.128-0.235,0.282-0.333,0.557-0.332
			c5.868,0.016,11.736,0.024,17.604,0.032c4.441,0.005,8.883,0.006,13.324,0.011c1.341,0.002,2.682,0.004,4.022,0.019
			c6.179,0.067,12.358-0.001,18.537,0.022c0.128,0,0.257,0.01,0.385,0.016c0.005,0.132,0.01,0.265,0.014,0.397
			c-0.054,0.099-0.108,0.199-0.162,0.298c-0.084,0.015-0.112,0.067-0.1,0.147c-0.003,0.019-0.012,0.035-0.027,0.047
			c-0.141,0.046-0.167,0.156-0.158,0.286c-0.023,0.037-0.047,0.074-0.07,0.111C63.195,21.828,63.193,22,63.066,22.011z"/>
		<path fill="#DD6070" d="M0.47,36.622c-0.132,0.347-0.252,0.697-0.217,1.079c-0.175,0.067-0.101,0.217-0.111,0.338
			c0,0.256,0.001,0.513,0.001,0.769c0.019,0.139-0.085,0.312,0.109,0.403c-0.06,0.79,0.364,1.395,0.766,2.009
			c0.387,0.592,0.888,1.06,1.494,1.424c0.707,0.425,1.458,0.702,2.291,0.677c1.457-0.045,2.914-0.105,4.37-0.048
			c2.495,0.097,4.99,0.083,7.485,0.138c2.112,0.047,4.224,0.066,6.334,0.028c5.233-0.094,10.466-0.045,15.699-0.026
			c1.606,0.006,3.214,0.017,4.821,0.037c0.834,0.011,1.655-0.116,2.483-0.217c1.169-0.143,2.209-0.605,3.244-1.084
			c0.561-0.26,1.085-0.613,1.583-1.009c0.399-0.318,0.781-0.648,1.161-0.987c0.512-0.458,0.967-0.966,1.394-1.5
			c0.493-0.616,0.88-1.304,1.287-1.977c0.333-0.552,0.62-1.132,0.94-1.692c0.453-0.791,0.917-1.576,1.38-2.36
			c0.046-0.078,0.085-0.179,0.201-0.19c0.092,0.092,0.001,0.159-0.038,0.225c-1.037,1.79-1.982,3.636-3.11,5.37
			c-1.64,2.52-3.927,4.21-6.809,5.087c-0.982,0.299-1.984,0.45-3.01,0.449c-10.645-0.003-21.289,0.02-31.934-0.027
			c-2.584-0.011-5.169-0.029-7.754-0.043c-0.834-0.005-1.535-0.365-2.2-0.772c-1.939-1.186-2.798-3.634-2.083-5.789
			c0.037-0.111,0.064-0.227,0.151-0.315C0.424,36.622,0.447,36.622,0.47,36.622z"/>
		<path fill="#DD6070" d="M60.293,27.092c-0.116-0.138-0.022-0.285,0.045-0.369c0.339-0.429,0.511-0.947,0.79-1.406
			c0.048-0.079,0.083-0.145,0.177-0.161c0.031,0.001,0.061,0.003,0.092,0.004c-0.024,0.068-0.049,0.135-0.073,0.203
			c-0.008,0.011-0.013,0.023-0.016,0.036C60.971,25.964,60.689,26.562,60.293,27.092z"/>
		<path fill="#DD6070" d="M58.88,29.539c-0.107-0.279,0.121-0.48,0.231-0.658c0.188-0.304,0.324-0.637,0.526-0.932
			c0.065-0.094,0.127-0.17,0.252-0.154C59.62,28.414,59.281,28.994,58.88,29.539z"/>
		<path fill="#DD6070" d="M57.248,32.353c0.171-0.587,0.411-1.133,0.9-1.533C57.887,31.354,57.67,31.913,57.248,32.353z"/>
		<path fill="#DD6070" d="M58.191,30.767c-0.122-0.033-0.064-0.104-0.038-0.172c0.136-0.36,0.391-0.65,0.568-0.986
			c0.028-0.053,0.083-0.06,0.137-0.028C58.712,30.02,58.469,30.403,58.191,30.767z"/>
		<path fill="#D84B5D" d="M62.551,22.913c0.076-0.335,0.26-0.607,0.502-0.844c0.009,0.054,0.018,0.107,0.027,0.161
			c-0.013,0.03-0.026,0.061-0.04,0.091c-0.095,0.015-0.122,0.072-0.097,0.16c-0.03,0.054-0.061,0.108-0.091,0.162
			c-0.099,0.014-0.128,0.071-0.099,0.163c-0.016,0.03-0.031,0.06-0.047,0.091C62.654,22.902,62.603,22.908,62.551,22.913z"/>
		<path fill="#DD6070" d="M59.929,27.741c-0.08-0.234-0.055-0.412,0.238-0.448C60.161,27.481,60.056,27.617,59.929,27.741z"/>
		<path fill="#E17684" d="M61.758,24.378c-0.026-0.189,0.199-0.266,0.199-0.443c0.046,0.003,0.092,0.007,0.138,0.01
			c-0.03,0.2-0.131,0.362-0.27,0.504C61.803,24.425,61.78,24.402,61.758,24.378z"/>
		<path fill="#D84B5D" d="M62.095,23.945c-0.046-0.003-0.092-0.007-0.138-0.01c0.06-0.238,0.138-0.465,0.38-0.586l0.017,0.016
			c0.001,0.047,0.003,0.093,0.004,0.14c-0.002,0.017-0.009,0.031-0.023,0.041C62.155,23.618,62.12,23.778,62.095,23.945
			C62.094,23.944,62.095,23.945,62.095,23.945z"/>
		<path fill="#DD5F6F" d="M61.758,24.378c0.022,0.024,0.045,0.047,0.067,0.071c-0.048,0.127-0.085,0.261-0.219,0.332
			C61.427,24.56,61.637,24.486,61.758,24.378z"/>
		<path fill="#D84B5D" d="M62.337,23.349c0.028-0.147-0.045-0.348,0.202-0.378c0.009,0.054,0.018,0.107,0.027,0.161
			c-0.019,0.081-0.038,0.161-0.108,0.217c-0.035,0.005-0.07,0.011-0.104,0.016L62.337,23.349z"/>
		<path fill="#E17684" d="M63.837,20.926c-0.005-0.132-0.01-0.265-0.014-0.397C64.056,20.606,64.058,20.665,63.837,20.926z"/>
		<path fill="#E17684" d="M63.08,22.23c-0.009-0.054-0.018-0.107-0.027-0.161c0.001-0.02,0.006-0.04,0.013-0.058
			c0.127-0.011,0.128-0.183,0.253-0.197C63.29,21.982,63.216,22.124,63.08,22.23z"/>
		<path fill="#E17684" d="M62.094,23.944c0.026-0.165,0.061-0.325,0.24-0.398C62.294,23.702,62.247,23.855,62.094,23.944z"/>
		<path fill="#E17684" d="M62.566,23.132c-0.009-0.054-0.018-0.107-0.027-0.161c0.001-0.02,0.005-0.039,0.012-0.058
			c0.052-0.005,0.104-0.011,0.155-0.016C62.714,23.008,62.645,23.073,62.566,23.132z"/>
		<path fill="#E17684" d="M63.389,21.704c-0.009-0.13,0.017-0.24,0.158-0.286C63.544,21.541,63.49,21.635,63.389,21.704z"/>
		<path fill="#DD5F6F" d="M61.398,25.16c-0.031-0.001-0.061-0.003-0.092-0.004c0.007-0.123,0.047-0.215,0.196-0.193
			C61.529,25.061,61.453,25.105,61.398,25.16z"/>
		<path fill="#D84B5D" d="M0.47,36.622c-0.023,0-0.046,0-0.069-0.001c0.019-0.044,0.037-0.087,0.056-0.131
			c0.044-0.021,0.088-0.042,0.132-0.063C0.593,36.518,0.589,36.606,0.47,36.622z"/>
		<path fill="#D84B5D" d="M0.656,36.105c0.049,0.005,0.113,0.009,0.089,0.077c-0.023,0.066-0.095,0.052-0.153,0.052
			C0.58,36.175,0.593,36.128,0.656,36.105z"/>
		<path fill="#DD6070" d="M0.589,36.427c-0.044,0.021-0.088,0.042-0.132,0.063c0.004-0.089,0.029-0.166,0.109-0.216
			C0.574,36.325,0.582,36.376,0.589,36.427z"/>
		<path fill="#E17684" d="M63.575,21.371c-0.012-0.08,0.016-0.132,0.1-0.147C63.684,21.302,63.646,21.348,63.575,21.371z"/>
		<path fill="#E17684" d="M62.354,23.365c0.035-0.005,0.07-0.011,0.104-0.016c0.006,0.078-0.033,0.126-0.101,0.156
			C62.356,23.458,62.355,23.412,62.354,23.365z"/>
		<path fill="#E17684" d="M62.753,22.806c-0.028-0.092,0-0.149,0.099-0.163C62.858,22.721,62.815,22.77,62.753,22.806z"/>
		<path fill="#E17684" d="M62.943,22.482c-0.025-0.088,0.002-0.145,0.097-0.16C63.05,22.401,63.006,22.447,62.943,22.482z"/>
		<path fill="#E17684" d="M61.309,25.399c0.003-0.013,0.008-0.025,0.016-0.036c0,0,0.005,0.023,0.005,0.023L61.309,25.399z"/>
		<polygon fill="#DD6070" points="0.726,35.967 0.726,35.964 0.713,35.959 		"/>
		<path fill="#0F0D0D" d="M21.811,21.957c3.638,0,7.276-0.02,10.914,0.004c9.454,0.063,18.908,0.029,28.362,0.055
			c0.112,0,0.264-0.061,0.33,0.046c0.07,0.112-0.062,0.213-0.118,0.31c-2.677,4.684-5.361,9.364-8.033,14.05
			c-1.712,3.002-4.246,4.855-7.64,5.519c-0.718,0.14-1.447,0.165-2.177,0.163c-6.75-0.012-13.499-0.021-20.249-0.028
			c-2.586-0.003-5.173,0.031-7.759-0.009c-3.047-0.046-6.094-0.014-9.141-0.065c-0.683-0.011-1.375,0.056-2.052-0.095
			c-2.293-0.51-3.438-3.092-2.27-5.134c2.773-4.851,5.553-9.699,8.324-14.551c0.12-0.209,0.246-0.296,0.499-0.296
			c3.67,0.01,7.34,0.007,11.011,0.007C21.811,21.942,21.811,21.949,21.811,21.957z M50.887,26.462
			c-0.048,0.106-0.065,0.156-0.091,0.201c-1.374,2.4-2.75,4.8-4.124,7.2c-1.22,2.131-2.438,4.262-3.656,6.393
			c-0.174,0.305-0.17,0.315,0.167,0.313c0.611-0.003,1.222,0.016,1.83-0.078c2.895-0.448,5.179-1.878,6.664-4.401
			c2.377-4.037,4.667-8.125,6.993-12.191c0.198-0.347,0.197-0.349-0.194-0.349c-3.669,0-7.337-0.012-11.006,0.005
			c-1.784,0.008-3.259,0.731-4.422,2.083c-0.205,0.239-0.407,0.487-0.542,0.824C45.309,26.462,48.072,26.462,50.887,26.462z
			 M14.508,23.438c-0.891,0-1.782,0.018-2.672-0.009c-0.347-0.01-0.532,0.103-0.704,0.405c-2.59,4.547-5.192,9.088-7.794,13.628
			c-0.795,1.388,0.127,3.001,1.732,3.012c0.837,0.006,1.674-0.004,2.511,0.015c0.247,0.005,0.377-0.072,0.501-0.29
			c1.649-2.899,3.31-5.791,4.967-8.685c1.481-2.587,2.961-5.175,4.44-7.764c0.17-0.298,0.162-0.31-0.179-0.311
			C16.375,23.437,15.441,23.438,14.508,23.438z M28.101,32.961c-0.05-0.004-0.1-0.013-0.151-0.012
			c-0.546,0.011-1.092-0.011-1.639,0.05c-2.667,0.3-4.827,1.507-6.454,3.633c-0.875,1.144-1.48,2.461-2.21,3.698
			c-0.186,0.315,0.121,0.211,0.231,0.211c7.104,0.005,14.208,0.004,21.312,0.01c0.225,0,0.348-0.074,0.454-0.265
			c0.423-0.758,0.862-1.508,1.292-2.263c0.222-0.389,0.219-0.391-0.231-0.391c-4.958,0-9.916,0-14.874,0
			c-0.348,0-0.347-0.001-0.182-0.289c0.784-1.368,1.568-2.736,2.349-4.105C28.046,33.157,28.12,33.084,28.101,32.961z
			 M31.337,31.148c0.654-0.014,1.231,0.015,1.81-0.051c3.096-0.352,5.454-1.866,7.087-4.506c0.553-0.893,1.049-1.822,1.57-2.735
			c0.174-0.305,0.172-0.307-0.195-0.307c-3.681,0-7.362-0.02-11.043,0.008c-2.016,0.015-3.605,0.904-4.763,2.555
			c-0.064,0.092-0.197,0.193-0.133,0.303c0.062,0.105,0.217,0.045,0.33,0.045c2.554,0.003,5.108,0.002,7.663,0.003
			c0.343,0,0.346,0.011,0.174,0.311c-0.449,0.781-0.898,1.562-1.345,2.344C32.115,29.776,31.742,30.435,31.337,31.148z
			 M22.893,23.438c-0.933,0-1.866,0.008-2.799-0.006c-0.226-0.003-0.354,0.07-0.452,0.267c-0.134,0.268-0.294,0.523-0.443,0.784
			c-1.197,2.093-2.392,4.187-3.593,6.278c-0.114,0.198-0.111,0.284,0.149,0.277c0.621-0.017,1.242,0.014,1.861-0.076
			c2.408-0.351,4.397-1.459,5.936-3.337c0.99-1.209,1.622-2.647,2.422-3.977c0.147-0.245-0.054-0.209-0.185-0.21
			C24.823,23.437,23.858,23.438,22.893,23.438z M10.048,40.477c0.131,0.006,0.205,0.012,0.279,0.013
			c1.888,0.016,3.776,0.027,5.664,0.054c0.239,0.003,0.367-0.075,0.48-0.275c0.514-0.917,1.047-1.823,1.561-2.74
			c0.904-1.614-0.213-3.536-2.068-3.561c-0.622-0.008-1.245,0.009-1.867-0.007c-0.232-0.006-0.364,0.061-0.481,0.269
			c-0.725,1.29-1.466,2.572-2.201,3.856C10.967,38.867,10.522,39.648,10.048,40.477z"/>
		<path fill="#D32E42" d="M0.253,39.211c-0.195-0.092-0.09-0.264-0.109-0.403C0.369,38.891,0.234,39.072,0.253,39.211z"/>
		<path fill="#D32E42" d="M0.143,38.039c0.01-0.122-0.065-0.271,0.111-0.338C0.247,37.823,0.348,37.981,0.143,38.039z"/>
		<path fill="#CC112A" d="M50.887,26.462c-2.814,0-5.578,0-8.382,0c0.134-0.337,0.336-0.585,0.542-0.824
			c1.162-1.352,2.637-2.074,4.422-2.083c3.669-0.017,7.337-0.005,11.006-0.005c0.391,0,0.392,0.002,0.194,0.349
			c-2.326,4.067-4.616,8.155-6.993,12.191c-1.485,2.523-3.769,3.952-6.664,4.401c-0.608,0.094-1.219,0.075-1.83,0.078
			c-0.337,0.002-0.341-0.007-0.167-0.313c1.218-2.132,2.437-4.263,3.656-6.393c1.374-2.4,2.75-4.8,4.124-7.2
			C50.821,26.617,50.839,26.567,50.887,26.462z"/>
		<path fill="#CC112A" d="M14.508,23.438c0.934,0,1.867-0.001,2.801,0.001c0.342,0.001,0.35,0.013,0.179,0.311
			c-1.479,2.588-2.959,5.176-4.44,7.764c-1.657,2.894-3.318,5.786-4.967,8.685c-0.124,0.218-0.254,0.296-0.501,0.29
			C6.744,40.47,5.906,40.48,5.07,40.474c-1.604-0.011-2.527-1.624-1.732-3.012c2.602-4.54,5.204-9.081,7.794-13.628
			c0.172-0.302,0.357-0.415,0.704-0.405C12.726,23.456,13.617,23.438,14.508,23.438z"/>
		<path fill="#CC112A" d="M28.101,32.961c0.019,0.123-0.056,0.196-0.101,0.276c-0.781,1.369-1.565,2.737-2.349,4.105
			c-0.165,0.288-0.166,0.289,0.182,0.289c4.958,0,9.916,0,14.874,0c0.45,0,0.453,0.002,0.231,0.391
			c-0.43,0.755-0.869,1.505-1.292,2.263c-0.106,0.191-0.229,0.265-0.454,0.265c-7.104-0.006-14.208-0.005-21.312-0.01
			c-0.11,0-0.417,0.103-0.231-0.211c0.73-1.237,1.335-2.553,2.21-3.698c1.626-2.126,3.787-3.333,6.454-3.633
			c0.547-0.062,1.093-0.039,1.639-0.05C28.001,32.948,28.052,32.957,28.101,32.961z"/>
		<path fill="#CC112A" d="M31.337,31.148c0.405-0.713,0.778-1.372,1.154-2.03c0.447-0.782,0.896-1.563,1.345-2.344
			c0.172-0.3,0.168-0.311-0.174-0.311c-2.554-0.001-5.108,0-7.663-0.003c-0.113,0-0.268,0.06-0.33-0.045
			c-0.065-0.111,0.068-0.211,0.133-0.303c1.159-1.65,2.748-2.54,4.763-2.555c3.681-0.028,7.362-0.008,11.043-0.008
			c0.367,0,0.369,0.002,0.195,0.307c-0.521,0.913-1.017,1.841-1.57,2.735c-1.633,2.639-3.991,4.154-7.087,4.506
			C32.568,31.163,31.991,31.133,31.337,31.148z"/>
		<path fill="#CC112A" d="M22.893,23.438c0.965,0,1.93-0.001,2.895,0.001c0.131,0,0.332-0.035,0.185,0.21
			c-0.8,1.33-1.431,2.768-2.422,3.977c-1.539,1.878-3.527,2.986-5.936,3.337c-0.62,0.09-1.241,0.059-1.861,0.076
			c-0.26,0.007-0.262-0.079-0.149-0.277c1.201-2.091,2.396-4.185,3.593-6.278c0.149-0.261,0.308-0.516,0.443-0.784
			c0.099-0.197,0.226-0.27,0.452-0.267C21.027,23.446,21.96,23.438,22.893,23.438z"/>
		<path fill="#CC112A" d="M10.048,40.477c0.474-0.829,0.919-1.61,1.366-2.391c0.735-1.285,1.476-2.566,2.201-3.856
			c0.117-0.208,0.25-0.275,0.481-0.269c0.622,0.016,1.245-0.001,1.867,0.007c1.854,0.025,2.972,1.946,2.068,3.561
			c-0.513,0.917-1.047,1.823-1.561,2.74c-0.112,0.201-0.241,0.279-0.48,0.275c-1.888-0.027-3.776-0.038-5.664-0.054
			C10.252,40.49,10.179,40.484,10.048,40.477z"/>
	</g>
</g>
</svg>
