<?xml version="1.0" encoding="utf-8"?>
<!-- Generator: Adobe Illustrator 22.0.0, SVG Export Plug-In . SVG Version: 6.00 Build 0)  -->
<svg version="1.1" id="Camada_1" xmlns="http://www.w3.org/2000/svg" xmlns:xlink="http://www.w3.org/1999/xlink" x="0px" y="0px"
	 width="64px" height="64px" viewBox="0 0 64 64" enable-background="new 0 0 64 64" xml:space="preserve">
<g>
	<g>
		<path fill="#010101" d="M46.354,54.854c-3.485,0-6.97-0.002-10.454,0.004c-0.197,0-0.332-0.056-0.47-0.195
			c-1.847-1.856-3.698-3.708-5.553-5.556c-0.117-0.117-0.168-0.229-0.167-0.395c0.008-0.914,0-1.828,0.008-2.742
			c0.001-0.166-0.049-0.278-0.166-0.395c-1.87-1.862-3.736-3.727-5.596-5.6c-0.156-0.158-0.227-0.14-0.373,0.006
			c-1.846,1.857-3.701,3.705-5.549,5.56c-0.124,0.124-0.244,0.175-0.42,0.175c-5.779-0.005-11.559-0.005-17.338,0.001
			c-0.223,0-0.278-0.055-0.277-0.277c0.01-1.666,0.008-3.332,0.001-4.999c-0.001-0.177,0.053-0.296,0.177-0.42
			c2.165-2.157,4.324-4.321,6.489-6.478c0.137-0.137,0.201-0.269,0.2-0.468c-0.01-1.361-0.003-2.723-0.008-4.085
			C6.858,28.838,6.9,28.729,7.01,28.619c2.635-2.629,5.268-5.262,7.896-7.898c0.121-0.121,0.243-0.15,0.402-0.15
			c5.142,0.003,10.283,0.001,15.425,0.008c0.24,0,0.4-0.074,0.566-0.241c3.658-3.667,7.322-7.328,10.98-10.995
			c0.147-0.148,0.292-0.201,0.496-0.201c6.97,0.005,13.939,0.006,20.909-0.003c0.268,0,0.318,0.077,0.316,0.326
			c-0.011,1.638-0.01,3.275-0.001,4.913c0.001,0.21-0.065,0.348-0.21,0.492c-6.776,6.77-13.548,13.544-20.328,20.31
			c-0.208,0.208-0.191,0.301,0.006,0.496c4.497,4.484,8.986,8.977,13.48,13.464c0.138,0.138,0.196,0.273,0.195,0.47
			c-0.008,1.657-0.009,3.313,0.001,4.97c0.001,0.224-0.056,0.277-0.278,0.276C53.362,54.852,49.858,54.854,46.354,54.854z
			 M47.979,27.51c-0.02-0.027-0.039-0.053-0.059-0.08c-0.046,0-0.092,0-0.139,0c-5.636,0-11.272,0.001-16.908-0.004
			c-0.17,0-0.277,0.061-0.391,0.175c-2.158,2.164-4.321,4.322-6.477,6.488c-0.148,0.148-0.292,0.2-0.497,0.2
			c-4.703-0.005-9.406-0.003-14.109-0.006c-0.159,0-0.283,0.026-0.404,0.148c-2.184,2.192-4.372,4.379-6.563,6.565
			C2.33,41.099,2.286,41.2,2.288,41.345c0.008,0.6,0.017,1.2-0.003,1.799c-0.008,0.244,0.064,0.289,0.296,0.289
			c4.694-0.007,9.387-0.007,14.081-0.001c0.188,0,0.315-0.058,0.445-0.188c2.151-2.158,4.308-4.309,6.456-6.469
			c0.162-0.163,0.241-0.182,0.415-0.007c2.147,2.161,4.305,4.312,6.455,6.47c0.139,0.14,0.275,0.195,0.472,0.194
			c3.18-0.006,6.36-0.003,9.539-0.007c0.182,0,0.314,0.042,0.448,0.176c1.853,1.863,3.711,3.721,5.573,5.575
			c0.117,0.117,0.166,0.23,0.165,0.395c-0.008,0.923-0.001,1.847-0.006,2.77c-0.001,0.153,0.006,0.233,0.204,0.233
			c2.609-0.008,5.217-0.007,7.826-0.002c0.163,0,0.206-0.045,0.203-0.205c-0.009-0.6-0.014-1.2,0.002-1.799
			c0.005-0.21-0.065-0.35-0.21-0.495c-4.817-4.81-9.63-9.626-14.448-14.435c-0.164-0.163-0.18-0.242-0.006-0.415
			c2.518-2.504,5.026-5.018,7.539-7.527C47.805,27.625,47.896,27.572,47.979,27.51z M41.141,25.145c2.961,0,5.921-0.001,8.882,0.003
			c0.17,0,0.298-0.034,0.427-0.163c3.698-3.707,7.401-7.409,11.106-11.109c0.109-0.109,0.159-0.216,0.157-0.372
			c-0.009-0.609-0.013-1.219,0.002-1.828c0.005-0.202-0.05-0.247-0.249-0.247c-5.94,0.006-11.881,0.005-17.822,0.002
			c-0.155,0-0.264,0.046-0.373,0.155c-3.707,3.712-7.416,7.421-11.127,11.128c-0.102,0.102-0.149,0.202-0.147,0.348
			c0.008,0.6,0.016,1.2-0.003,1.799c-0.008,0.24,0.057,0.292,0.293,0.291C35.238,25.142,38.189,25.145,41.141,25.145z
			 M15.988,32.001c2.199,0,4.398-0.001,6.597,0.003c0.161,0,0.281-0.033,0.401-0.153c2.19-2.198,4.385-4.392,6.583-6.583
			c0.111-0.11,0.152-0.22,0.15-0.373c-0.007-0.59-0.011-1.181,0.002-1.77c0.004-0.199-0.026-0.271-0.255-0.271
			c-4.417,0.008-8.834,0.007-13.251,0.004c-0.142,0-0.247,0.034-0.351,0.138c-2.191,2.198-4.386,4.392-6.583,6.583
			c-0.106,0.105-0.136,0.211-0.135,0.352c0.006,0.6,0.014,1.2-0.003,1.799c-0.006,0.226,0.058,0.277,0.278,0.276
			C11.609,31.997,13.798,32.001,15.988,32.001z M35.909,45.713c-1.228,0-2.457,0.003-3.685-0.003
			c-0.164-0.001-0.233,0.026-0.229,0.214c0.013,0.628,0.01,1.257,0.001,1.885c-0.002,0.151,0.058,0.246,0.157,0.344
			c1.423,1.419,2.844,2.839,4.261,4.263c0.109,0.11,0.218,0.156,0.374,0.156c2.428-0.005,4.856-0.006,7.284,0.001
			c0.201,0.001,0.281-0.031,0.274-0.258c-0.018-0.599-0.012-1.2-0.002-1.799c0.003-0.167-0.05-0.282-0.167-0.398
			c-1.418-1.41-2.832-2.824-4.242-4.242c-0.117-0.117-0.232-0.167-0.398-0.166C38.328,45.716,37.119,45.713,35.909,45.713z"/>
		<path fill="#FEFEFE" d="M47.979,27.51c-0.082,0.062-0.174,0.114-0.246,0.186c-2.513,2.509-5.021,5.023-7.539,7.527
			c-0.174,0.173-0.157,0.252,0.006,0.415c4.819,4.809,9.631,9.624,14.448,14.435c0.145,0.145,0.215,0.284,0.21,0.495
			c-0.016,0.599-0.011,1.2-0.002,1.799c0.002,0.16-0.041,0.205-0.203,0.205c-2.609-0.005-5.217-0.006-7.826,0.002
			c-0.198,0.001-0.205-0.08-0.204-0.233c0.005-0.923-0.001-1.847,0.006-2.77c0.001-0.165-0.048-0.278-0.165-0.395
			c-1.862-1.854-3.72-3.712-5.573-5.575c-0.134-0.135-0.267-0.176-0.448-0.176c-3.18,0.004-6.36,0.001-9.539,0.007
			c-0.197,0-0.333-0.055-0.472-0.194c-2.15-2.159-4.308-4.309-6.455-6.47c-0.174-0.175-0.253-0.156-0.415,0.007
			c-2.148,2.16-4.306,4.311-6.456,6.469c-0.13,0.131-0.258,0.188-0.445,0.188c-4.694-0.005-9.387-0.006-14.081,0.001
			c-0.232,0-0.304-0.045-0.296-0.289c0.02-0.599,0.011-1.199,0.003-1.799C2.286,41.2,2.33,41.099,2.433,40.996
			c2.191-2.185,4.379-4.373,6.563-6.565C9.117,34.31,9.24,34.284,9.4,34.284c4.703,0.003,9.406,0.001,14.109,0.006
			c0.204,0,0.349-0.052,0.497-0.2c2.156-2.166,4.319-4.325,6.477-6.488c0.114-0.114,0.221-0.176,0.391-0.175
			c5.636,0.005,11.272,0.004,16.908,0.004c0.046,0,0.092,0,0.139,0C47.94,27.457,47.959,27.484,47.979,27.51z"/>
		<path fill="#FEFEFE" d="M41.141,25.145c-2.951,0-5.903-0.003-8.854,0.006c-0.236,0.001-0.301-0.052-0.293-0.291
			c0.02-0.599,0.011-1.199,0.003-1.799c-0.002-0.146,0.045-0.246,0.147-0.348c3.712-3.707,7.421-7.416,11.127-11.128
			c0.109-0.109,0.217-0.155,0.373-0.155c5.941,0.004,11.881,0.004,17.822-0.002c0.199,0,0.254,0.045,0.249,0.247
			c-0.015,0.609-0.011,1.219-0.002,1.828c0.002,0.157-0.048,0.264-0.157,0.372c-3.705,3.7-7.408,7.402-11.106,11.109
			c-0.129,0.129-0.257,0.163-0.427,0.163C47.062,25.144,44.101,25.145,41.141,25.145z"/>
		<path fill="#FEFEFE" d="M15.988,32.001c-2.189,0-4.379-0.003-6.568,0.005c-0.221,0.001-0.285-0.051-0.278-0.276
			c0.017-0.599,0.009-1.199,0.003-1.799c-0.001-0.141,0.029-0.247,0.135-0.352c2.198-2.191,4.392-4.386,6.583-6.583
			c0.104-0.105,0.209-0.138,0.351-0.138c4.417,0.003,8.834,0.005,13.251-0.004c0.228,0,0.259,0.072,0.255,0.271
			c-0.013,0.59-0.009,1.18-0.002,1.77c0.002,0.153-0.039,0.263-0.15,0.373c-2.198,2.191-4.392,4.385-6.583,6.583
			c-0.12,0.12-0.24,0.153-0.401,0.153C20.386,31.999,18.187,32.001,15.988,32.001z"/>
		<path fill="#81FD37" d="M35.909,45.713c1.209,0,2.419,0.003,3.628-0.004c0.166-0.001,0.282,0.049,0.398,0.166
			c1.41,1.418,2.824,2.832,4.242,4.242c0.117,0.117,0.169,0.231,0.167,0.398c-0.01,0.6-0.016,1.2,0.002,1.799
			c0.007,0.227-0.072,0.259-0.274,0.258c-2.428-0.007-4.856-0.006-7.284-0.001c-0.156,0-0.264-0.046-0.374-0.156
			c-1.417-1.424-2.839-2.844-4.261-4.263c-0.099-0.099-0.16-0.194-0.157-0.344c0.009-0.628,0.012-1.257-0.001-1.885
			c-0.004-0.188,0.065-0.215,0.229-0.214C33.453,45.715,34.681,45.713,35.909,45.713z"/>
	</g>
</g>
</svg>
