<?xml version="1.0" encoding="utf-8"?>
<!-- Generator: Adobe Illustrator 22.0.0, SVG Export Plug-In . SVG Version: 6.00 Build 0)  -->
<svg version="1.1" id="Camada_1" xmlns="http://www.w3.org/2000/svg" xmlns:xlink="http://www.w3.org/1999/xlink" x="0px" y="0px"
	 width="64px" height="64px" viewBox="0 0 64 64" enable-background="new 0 0 64 64" xml:space="preserve">
<g>
	<g>
		<path fill="#B1DD01" d="M9.542,9.008c2.742,0,5.484,0,8.226,0c-0.067,0.125,0.02,0.138,0.11,0.164
			c0.98,0.277,1.594,1.092,1.435,2.072c-0.123,0.758-0.113,1.525-0.114,2.27c-0.001,1.926-0.215,3.841-0.199,5.765
			c0.008,0.982,0.291,1.89,0.839,2.688c1.074,1.564,2.385,2.935,3.663,4.33c0.277,0.303,0.601,0.566,0.866,0.878
			c0.947,1.114,1.897,2.225,2.891,3.298c0.358,0.387,0.692,0.796,1.027,1.203c0.65,0.792,1.248,1.628,1.968,2.362
			c0.336,0.342,0.693,0.665,1.014,1.022c0.982,1.094,1.868,2.271,2.829,3.383c1.034,1.197,2.059,2.402,3.099,3.595
			c1.073,1.231,2.168,2.442,3.257,3.66c0.811,0.907,1.665,1.778,2.496,2.668c1.025,1.099,2.107,2.146,3.135,3.243
			c0.387,0.413,0.85,0.781,1.079,1.32c0.275,0.648,0.409,1.549-0.531,1.869c-0.087,0.03-0.185,0.065-0.153,0.195
			c-3.482,0-6.965,0-10.447,0c0.002-0.069-0.006-0.131-0.062-0.185c-0.857-0.823-1.597-1.748-2.348-2.665
			c-0.788-0.962-1.559-1.938-2.416-2.841c-0.791-0.833-1.574-1.672-2.43-2.446c-1.173-1.061-2.424-1.835-4.094-1.659
			c-0.843,0.089-1.594,0.347-2.21,0.941c-0.518,0.5-0.948,1.089-1.454,1.592c-2.172,2.158-4.227,4.438-6.571,6.418
			c-0.513,0.434-1.096,0.703-1.835,0.696c-3.632-0.034-7.265-0.015-10.898-0.016c-0.324,0-0.646-0.031-0.969-0.06
			C0.453,54.74,0.293,54.448,0,54.499c0-0.329,0-0.658,0-0.987c0.069,0.002,0.139,0.001,0.184-0.063
			c0.372-0.527,0.854-0.95,1.314-1.394c1.417-1.368,2.762-2.807,4.21-4.145c1.211-1.118,2.442-2.217,3.588-3.404
			c0.365-0.378,0.721-0.77,1.119-1.112c1.064-0.912,2.075-1.881,3.079-2.856c0.85-0.826,1.74-1.608,2.591-2.431
			c0.731-0.707,0.879-1.471,0.226-2.376c-0.22-0.305-0.462-0.593-0.682-0.898c-0.743-1.031-1.607-1.957-2.479-2.877
			c-0.559-0.591-1.118-1.183-1.657-1.792c-0.923-1.043-1.832-2.1-2.746-3.151c-0.531-0.611-0.98-1.27-1.269-2.036
			c-0.425-1.127-0.316-2.294-0.218-3.441c0.099-1.156,0.23-2.313,0.291-3.47c0.059-1.112,0.108-2.225,0.164-3.338
			c0.059-1.18,0.074-2.364,0.183-3.542C7.978,10.342,8.296,9.27,9.471,9.16C9.515,9.156,9.652,9.12,9.542,9.008z"/>
		<path fill="#B1DD01" d="M49.275,9.008c3.153,0,6.307,0,9.46,0c0.095,0.161,0.095,0.161,0.377,0.165
			c0.977,0.011,1.381,0.649,0.963,1.506c-0.381,0.781-1.036,1.342-1.592,1.979c-0.499,0.572-0.994,1.148-1.508,1.708
			c-0.738,0.804-1.424,1.657-2.108,2.508c-0.429,0.535-0.95,0.977-1.405,1.484c-1.095,1.22-2.17,2.457-3.271,3.671
			c-0.859,0.948-1.712,1.9-2.545,2.872c-1.343,1.566-2.648,3.162-3.943,4.767c-0.117,0.145-0.145,0.252-0.001,0.381
			c0.455,0.411,0.822,0.898,1.211,1.368c0.68,0.823,1.363,1.644,2.085,2.433c0.931,1.017,1.805,2.086,2.723,3.115
			c0.725,0.811,1.498,1.579,2.216,2.396c0.945,1.074,1.89,2.152,2.775,3.275c1.182,1.501,2.514,2.867,3.762,4.308
			c0.877,1.014,1.821,1.971,2.666,3.013c0.916,1.128,2.004,2.117,2.744,3.388c0.024,0.041,0.076,0.081,0.115,0.002
			c0,0.302,0,0.603,0,0.905c-0.041,0.003-0.101-0.01-0.119,0.012c-0.466,0.556-1.128,0.551-1.75,0.555
			c-3.276,0.02-6.552-0.004-9.827,0.016c-1.247,0.007-2.274-0.428-3.142-1.308c-1.155-1.171-2.289-2.355-3.282-3.677
			c-0.823-1.096-1.683-2.167-2.536-3.242c-0.813-1.024-1.67-2.01-2.49-3.026c-0.815-1.009-1.707-1.956-2.527-2.961
			c-1.16-1.424-2.333-2.836-3.562-4.2c-1.156-1.283-2.251-2.6-3.121-4.104c-0.701-1.211-0.847-2.421-0.161-3.657
			c0.693-1.249,1.395-2.494,2.288-3.621c0.891-1.123,1.874-2.165,2.787-3.268c0.561-0.678,1.141-1.339,1.73-1.994
			c0.739-0.823,1.421-1.696,2.142-2.536c0.617-0.72,1.269-1.41,1.878-2.136c1.246-1.485,2.485-2.974,3.855-4.35
			c0.841-0.845,1.805-1.423,2.998-1.587C49.245,9.156,49.349,9.141,49.275,9.008z"/>
	</g>
</g>
</svg>
