<?xml version="1.0" encoding="utf-8"?>
<!-- Generator: Adobe Illustrator 22.0.0, SVG Export Plug-In . SVG Version: 6.00 Build 0)  -->
<svg version="1.1" id="Camada_1" xmlns="http://www.w3.org/2000/svg" xmlns:xlink="http://www.w3.org/1999/xlink" x="0px" y="0px"
	 width="64px" height="64px" viewBox="0 0 64 64" style="enable-background:new 0 0 64 64;" xml:space="preserve">
<g>
	<g>
		<path style="fill:#2C343F;" d="M8.503,26.84c1.232,0,2.431,0.005,3.631-0.003c0.322-0.002,0.289,0.261,0.342,0.435
			c0.78,2.554,1.704,5.056,2.741,7.516c2.887,6.847,6.555,13.228,11.364,18.921c1.583,1.873,3.287,3.629,5.109,5.272
			c0.305,0.275,0.457,0.28,0.762,0.005c3.796-3.418,7.007-7.329,9.798-11.594c3.49-5.333,6.231-11.035,8.372-17.034
			c0.125-0.35,0.093-0.477-0.283-0.593c-2.792-0.863-5.577-1.75-8.363-2.632c-0.194-0.061-0.383-0.135-0.571-0.264
			c0.179,0,0.359,0,0.538,0c4.341,0,8.682,0,13.023,0c0.659,0,0.662,0.001,0.483,0.614c-1.333,4.565-3.08,8.969-5.163,13.24
			c-2.646,5.426-5.809,10.524-9.693,15.159c-2.444,2.917-5.139,5.577-8.128,7.939c-0.329,0.26-0.503,0.217-0.799-0.017
			c-4.657-3.667-8.569-8.024-11.908-12.9c-4.97-7.257-8.635-15.137-11.128-23.567C8.585,27.189,8.552,27.035,8.503,26.84z"/>
		<path style="fill:#C0A973;" d="M13.466,18.226c12.288,0,24.453,0,36.662,0c-0.166,0.2-0.392,0.206-0.582,0.266
			c-4.577,1.432-9.148,2.884-13.69,4.424c-1.482,0.503-3.01,0.901-4.395,1.652c-2.615,1.418-4.059,3.68-4.612,6.556
			c-0.13,0.676-0.174,1.361-0.173,2.051c0.005,3.54,0.004,7.08-0.002,10.62c0,0.176,0.11,0.437-0.098,0.511
			c-0.152,0.053-0.277-0.183-0.391-0.308c-1.867-2.04-2.974-4.45-3.472-7.155c-0.157-0.852-0.223-1.711-0.222-2.578
			c0.004-3.684-0.005-7.368,0.011-11.053c0.002-0.411-0.126-0.625-0.499-0.805c-2.681-1.292-5.35-2.607-8.023-3.916
			C13.841,18.424,13.707,18.351,13.466,18.226z"/>
		<path style="fill:#2C343F;" d="M31.962,7.091c6.268,0.072,12.442,0.592,18.504,2.083c2.454,0.603,4.873,1.321,7.115,2.531
			c0.257,0.138,0.323,0.284,0.3,0.556c-0.195,2.279-0.384,4.559-0.56,6.84c-0.022,0.291-0.125,0.306-0.356,0.222
			c-0.885-0.324-1.77-0.647-2.662-0.952c-0.252-0.086-0.291-0.226-0.269-0.463c0.103-1.131,0.168-2.266,0.296-3.394
			c0.052-0.458-0.075-0.668-0.514-0.824c-2.902-1.036-5.889-1.723-8.925-2.207c-4.577-0.729-9.188-1.085-13.821-1.005
			c-6.368,0.11-12.674,0.741-18.816,2.541c-0.781,0.229-1.542,0.523-2.317,0.773c-0.241,0.078-0.304,0.202-0.28,0.453
			c0.117,1.226,0.203,2.455,0.323,3.681c0.025,0.259-0.052,0.367-0.285,0.447c-0.861,0.295-1.724,0.585-2.57,0.92
			c-0.364,0.144-0.431,0.037-0.457-0.299c-0.174-2.281-0.352-4.562-0.552-6.841c-0.025-0.29,0.134-0.351,0.315-0.449
			c2.124-1.151,4.416-1.845,6.74-2.436c4.762-1.211,9.614-1.797,14.515-2.043C29.126,7.152,30.566,7.127,31.962,7.091z"/>
		<path style="fill:#C0A974;" d="M42.052,40.082c0.102,0.148,0.012,0.221-0.038,0.293c-1.622,2.308-3.513,4.327-6.112,5.555
			c-2.569,1.214-5.107,1.084-7.608-0.231c-0.29-0.152-0.299-0.366-0.299-0.633c0.004-3.925,0.02-7.849-0.007-11.774
			c-0.009-1.326,0.083-2.621,0.581-3.862c0.616-1.533,1.667-2.635,3.228-3.225c0.583-0.22,0.612-0.201,0.612,0.415
			c0,5.19,0.012,10.38-0.017,15.57c-0.003,0.555,0.202,0.719,0.675,0.802c2.877,0.503,5.451-0.207,7.772-1.929
			C41.254,40.756,41.645,40.413,42.052,40.082z"/>
		<path style="fill:#C1AB76;" d="M57.828,5.904c-0.776-0.147-1.551-0.3-2.329-0.438C53.344,5.083,51.175,4.793,49,4.54
			c-2.859-0.332-5.729-0.529-8.599-0.738c-0.447-0.033-0.896-0.031-1.345-0.042c-0.319-0.008-0.511-0.114-0.467-0.488
			c0.03-0.253,0.036-0.516-0.001-0.767C38.516,2,38.749,1.923,39.188,1.966c5.723,0.566,11.367,1.543,16.871,3.246
			C56.662,5.398,57.274,5.561,57.828,5.904z"/>
		<path style="fill:#C1AB75;" d="M6.545,5.827c2.097-0.82,4.259-1.414,6.444-1.921c3.487-0.81,7.009-1.413,10.573-1.765
			c0.524-0.052,1.049-0.104,1.571-0.175c0.341-0.046,0.511,0.032,0.468,0.421c-0.033,0.3-0.027,0.609-0.001,0.911
			c0.029,0.333-0.108,0.455-0.427,0.466c-0.687,0.025-1.372,0.069-2.058,0.107c-2.855,0.159-5.7,0.425-8.541,0.748
			c-2.65,0.302-5.278,0.735-7.899,1.217C6.633,5.844,6.588,5.831,6.545,5.827z"/>
		<path style="fill:#2F3742;" d="M29.359,0.005c0.201,0.608,0.376,1.084,0.513,1.571c0.065,0.23,0.173,0.298,0.401,0.291
			c0.495-0.015,0.991-0.005,1.633-0.005c-0.399,0.289-0.68,0.535-1,0.713c-0.464,0.259-0.624,0.557-0.364,1.071
			c0.168,0.333,0.237,0.717,0.389,1.203c-0.5-0.36-0.909-0.628-1.286-0.937c-0.221-0.181-0.376-0.155-0.582,0.006
			c-0.388,0.302-0.792,0.583-1.288,0.945c0.191-0.583,0.335-1.053,0.499-1.514c0.087-0.243,0.068-0.403-0.174-0.557
			c-0.404-0.258-0.779-0.56-1.285-0.93c0.616,0,1.113-0.016,1.608,0.006c0.255,0.011,0.365-0.08,0.434-0.317
			C28.996,1.07,29.164,0.597,29.359,0.005z"/>
		<path style="fill:#2F3742;" d="M36.413,4.854c-0.512-0.37-0.922-0.646-1.307-0.953c-0.204-0.163-0.349-0.146-0.542,0.004
			c-0.391,0.302-0.797,0.585-1.303,0.952c0.179-0.557,0.303-1.005,0.469-1.436c0.114-0.298,0.087-0.492-0.203-0.673
			c-0.389-0.243-0.75-0.532-1.24-0.885c0.633,0,1.135-0.014,1.636,0.006c0.236,0.01,0.34-0.078,0.404-0.292
			C34.472,1.093,34.635,0.615,34.834,0c0.2,0.605,0.369,1.073,0.507,1.55c0.069,0.236,0.175,0.33,0.431,0.318
			c0.49-0.022,0.982-0.007,1.606-0.007c-0.482,0.351-0.852,0.641-1.244,0.897c-0.26,0.17-0.313,0.337-0.193,0.632
			C36.115,3.815,36.227,4.265,36.413,4.854z"/>
		<path style="fill:#C0A974;" d="M42.224,39.929c0.015-0.023,0.03-0.046,0.045-0.068c0.047,0.065,0.006,0.07-0.046,0.067
			C42.223,39.928,42.224,39.929,42.224,39.929z"/>
		<path style="fill:#C0A974;" d="M42.223,39.928c-0.006,0.025-0.012,0.05-0.018,0.075c-0.015-0.01-0.029-0.02-0.044-0.03
			c0.021-0.015,0.042-0.029,0.063-0.044C42.224,39.929,42.223,39.928,42.223,39.928z"/>
	</g>
</g>
</svg>
