<?xml version="1.0" encoding="UTF-8" standalone="no"?>
<svg
   xmlns:dc="http://purl.org/dc/elements/1.1/"
   xmlns:cc="http://creativecommons.org/ns#"
   xmlns:rdf="http://www.w3.org/1999/02/22-rdf-syntax-ns#"
   xmlns:svg="http://www.w3.org/2000/svg"
   xmlns="http://www.w3.org/2000/svg"
   xmlns:sodipodi="http://sodipodi.sourceforge.net/DTD/sodipodi-0.dtd"
   xmlns:inkscape="http://www.inkscape.org/namespaces/inkscape"
   width="64"
   height="64"
   viewBox="0 0 47.999999 48.000002"
   version="1.1"
   id="svg98"
   sodipodi:docname="leis.svg"
   inkscape:version="0.92.3 (2405546, 2018-03-11)">
  <metadata
     id="metadata104">
    <rdf:RDF>
      <cc:Work
         rdf:about="">
        <dc:format>image/svg+xml</dc:format>
        <dc:type
           rdf:resource="http://purl.org/dc/dcmitype/StillImage" />
        <dc:title></dc:title>
      </cc:Work>
    </rdf:RDF>
  </metadata>
  <defs
     id="defs102" />
  <sodipodi:namedview
     pagecolor="#ffffff"
     bordercolor="#666666"
     borderopacity="1"
     objecttolerance="10"
     gridtolerance="10"
     guidetolerance="10"
     inkscape:pageopacity="0"
     inkscape:pageshadow="2"
     inkscape:window-width="1920"
     inkscape:window-height="1017"
     id="namedview100"
     showgrid="false"
     units="px"
     inkscape:pagecheckerboard="true"
     inkscape:zoom="0.12982676"
     inkscape:cx="1539.7998"
     inkscape:cy="-27.914885"
     inkscape:window-x="-8"
     inkscape:window-y="-8"
     inkscape:window-maximized="1"
     inkscape:current-layer="svg98" />
  <g
     id="#2c343fff"
     transform="matrix(0.11089292,0,0,0.11089292,6.1307151,-0.0166339)">
    <path
       d="m 171.51,8.79 c 0.91,-2.89 1.73,-5.82 2.86,-8.64 0.99,2.89 1.89,5.8 2.86,8.7 3.18,0 6.37,-0.02 9.55,-0.06 -2.6,1.9 -5.25,3.76 -7.84,5.68 1.04,2.91 2.11,5.82 2.96,8.79 -2.59,-1.75 -5.05,-3.7 -7.64,-5.46 -2.54,1.9 -5.07,3.82 -7.7,5.6 1.05,-2.96 2.1,-5.92 3.21,-8.87 -2.6,-1.98 -5.27,-3.86 -7.94,-5.75 3.23,0.07 6.45,0.09 9.68,0.01 z"
       id="path58"
       inkscape:connector-curvature="0"
       style="opacity:1;fill:#2c343f" />
    <path
       d="m 144.86,9.42 c 0.97,-2.94 1.77,-5.94 3.04,-8.78 0.95,2.93 1.81,5.88 2.78,8.79 3.06,0 6.11,-0.08 9.16,-0.08 -2.31,2.11 -5.02,3.69 -7.5,5.58 1.1,2.96 2.14,5.95 3.13,8.95 -2.59,-1.82 -5.12,-3.73 -7.62,-5.67 -2.59,1.86 -5.11,3.83 -7.81,5.55 1.06,-2.94 2.11,-5.88 3.12,-8.83 -2.4,-1.93 -5.18,-3.38 -7.39,-5.54 3.03,-0.04 6.06,0.04 9.09,0.03 z"
       id="path60"
       inkscape:connector-curvature="0"
       style="opacity:1;fill:#2c343f" />
    <path
       d="m 60.95,47.6 c 23.39,-6.83 47.66,-10.19 71.94,-11.8 27.07,-1.89 54.31,-0.89 81.23,2.45 19.26,2.54 38.47,6.29 56.8,12.84 5.26,1.87 10.36,4.16 15.22,6.89 -1,12.18 -2.06,24.36 -2.89,36.55 -5.26,-1.92 -10.51,-3.86 -15.81,-5.66 0.35,-7.05 1.12,-14.07 1.63,-21.11 -17.48,-6.83 -36.03,-10.49 -54.56,-13.08 -17.73,-2.39 -35.62,-3.41 -53.49,-3.78 -27.87,0.49 -55.86,2.68 -83.07,8.98 -8.8,2.1 -17.55,4.56 -25.95,7.94 0.68,7.02 1.43,14.04 1.71,21.09 -5.29,1.72 -10.49,3.74 -15.75,5.57 C 37.09,82.31 36.06,70.15 35,57.99 43.14,53.38 52,50.24 60.95,47.6 Z"
       id="path62"
       inkscape:connector-curvature="0"
       style="opacity:1;fill:#2c343f" />
    <path
       d="m 46.56,130.55 c 6.21,-0.03 12.42,0 18.63,-0.01 12.19,39.48 30.05,77.39 54.12,111.05 12.14,16.93 26.02,32.64 41.65,46.43 20.78,-18.49 38.5,-40.27 53.19,-63.85 15.58,-24.66 27.71,-51.34 37.67,-78.71 -15.38,-5.05 -30.84,-9.87 -46.3,-14.65 23.21,-0.36 46.45,-0.04 69.67,-0.16 -9.76,33.31 -23.56,65.45 -41.18,95.36 -19.12,32.32 -43.24,62.03 -73.04,85.08 C 133.64,290.05 111.04,263.35 92.78,234.2 72.67,202.02 57.15,166.98 46.56,130.55 Z"
       id="path64"
       inkscape:connector-curvature="0"
       style="opacity:1;fill:#2c343f" />
    <path
       d="m 111.84,333.04 c 6.29,0.06 12.58,0.02 18.86,0.03 -0.44,1.84 -0.89,3.7 -1.34,5.55 -1.92,0.02 -3.84,0.02 -5.76,0.01 -1.52,5.89 -3.19,11.77 -4.4,17.73 0.11,0.54 0.32,1.64 0.43,2.19 -2.6,-0.08 -5.19,-0.1 -7.79,-0.1 2.06,-6.5 3.24,-13.25 5.24,-19.78 -1.86,-0.02 -3.71,-0.03 -5.56,-0.04 0.5,-1.83 0.96,-3.73 0.32,-5.59 z"
       id="path66"
       inkscape:connector-curvature="0"
       style="opacity:1;fill:#2c343f" />
    <path
       d="m 135.13,332.97 c 5.55,0.37 11.14,-0.29 16.66,0.37 2.53,1.83 0.19,5.05 0,7.46 -2.17,0.03 -4.34,0.05 -6.5,0.08 0.09,-0.56 0.26,-1.66 0.35,-2.21 -1.54,-0.01 -3.07,-0.01 -4.6,0 -0.37,1.38 -0.75,2.76 -1.11,4.15 1.99,0.02 3.99,0.04 5.99,0.06 -0.46,1.84 -0.89,3.68 -1.31,5.53 -1.99,0.09 -3.99,0.13 -5.99,0.15 -0.4,1.37 -0.79,2.75 -1.18,4.13 1.49,0.01 2.98,0.01 4.47,0.02 0.29,-0.47 0.87,-1.41 1.15,-1.89 2.11,-0.01 4.22,-0.01 6.32,-0.02 -1.01,2.63 -0.9,6.83 -4.37,7.47 -5.16,0.48 -10.35,0.06 -15.53,0.2 1.84,-6.85 3.45,-13.76 5.25,-20.63 0.49,-1.58 0.48,-3.23 0.4,-4.87 z"
       id="path68"
       inkscape:connector-curvature="0"
       style="opacity:1;fill:#2c343f" />
    <path
       d="m 158.19,332.91 c 5.29,0.39 10.6,-0.06 15.88,0.26 1.33,-0.09 2.72,1.41 2.16,2.74 -1.46,6.89 -3.6,13.63 -4.98,20.53 0.12,0.53 0.34,1.59 0.45,2.11 -2.6,-0.08 -5.2,-0.1 -7.8,-0.13 0.84,-2.51 1.55,-5.04 2.16,-7.6 -1.59,0.01 -3.18,0.03 -4.77,0.06 -0.53,2.51 -1.88,5.12 -0.78,7.68 -2.58,-0.1 -5.16,-0.1 -7.73,-0.08 1.87,-6.81 3.39,-13.71 5.23,-20.53 0.55,-1.64 0.57,-3.37 0.18,-5.04 m 6.11,5.77 c -0.52,2.18 -1.07,4.36 -1.62,6.54 1.55,0 3.09,0 4.64,0.01 0.64,-2.16 1.22,-4.34 1.78,-6.52 -1.6,-0.02 -3.2,-0.03 -4.8,-0.03 z"
       id="path70"
       inkscape:connector-curvature="0"
       style="opacity:1;fill:#2c343f" />
    <path
       d="m 182.18,332.96 c 2.96,0.11 5.91,0.13 8.87,0.15 0.05,4.15 -0.11,8.29 -0.21,12.44 1.85,-3.99 5.46,-7.92 4.93,-12.5 3.57,0.04 7.13,0.02 10.7,0 -1.98,7.79 -3.93,15.59 -5.85,23.39 0.18,0.53 0.55,1.59 0.73,2.12 -2.64,-0.09 -5.27,-0.1 -7.9,-0.09 1.02,-3.55 2.15,-7.07 2.98,-10.66 -2.36,3.27 -3.72,7.11 -5.59,10.66 -1.71,0 -3.41,-0.01 -5.11,0 0.09,-3.55 0.31,-7.13 -0.39,-10.63 -0.57,3.54 -2.36,7.1 -1.42,10.72 -2.54,-0.09 -5.08,-0.11 -7.62,-0.11 1.65,-5.77 2.96,-11.63 4.48,-17.43 0.68,-2.65 1.59,-5.29 1.4,-8.06 z"
       id="path72"
       inkscape:connector-curvature="0"
       style="opacity:1;fill:#2c343f" />
  </g>
  <g
     id="#c1a973ff"
     transform="matrix(0.11089292,0,0,0.11089292,6.1307151,-0.0166339)">
    <path
       d="M 33.62,29.28 C 64.6,18.69 97,12.67 129.56,9.73 c -0.04,2.85 -0.04,5.7 0.02,8.55 -31.28,1.76 -62.68,4.19 -93.36,10.84 -0.65,0.04 -1.95,0.12 -2.6,0.16 z"
       id="path75"
       inkscape:connector-curvature="0"
       style="opacity:1;fill:#c1a973" />
    <path
       d="m 192.74,9.74 c 32.64,2.86 65.05,9.11 96.14,19.52 -4.73,-0.02 -9.26,-1.68 -13.91,-2.38 -27.15,-4.9 -54.71,-7.1 -82.24,-8.59 0.02,-2.85 0.03,-5.7 0.01,-8.55 z"
       id="path77"
       inkscape:connector-curvature="0"
       style="opacity:1;fill:#c1a973" />
    <path
       d="m 70.83,88.51 c 59.5,0.22 119.02,0.17 178.53,0.3 -27.87,8.67 -55.69,17.5 -83.26,27.06 -6.54,2.22 -12.79,5.6 -17.73,10.49 -9.24,8.88 -13.84,21.93 -13.6,34.62 0.16,18.31 -0.25,36.64 0.22,54.94 -13,-11.85 -19.65,-29.54 -20.53,-46.87 -0.12,-19.67 0.01,-39.34 -0.07,-59.01 -12.68,-6.13 -25.31,-12.39 -37.98,-18.55 -1.87,-0.97 -4,-1.53 -5.58,-2.98 z"
       id="path79"
       inkscape:connector-curvature="0"
       style="opacity:1;fill:#c1a973" />
    <path
       d="m 151.38,132.33 c 3.14,-2.91 7.13,-4.62 11.13,-5.98 -0.01,27.22 -0.02,54.45 0,81.67 13.07,3.56 27.48,0.78 38.6,-6.86 3.9,-2.4 6.9,-5.92 10.53,-8.65 -9.34,13.83 -21.37,27.23 -37.66,32.6 -10.88,3.76 -23.04,1.63 -32.82,-4.13 0.1,-21.35 0.04,-42.7 0.03,-64.06 0.29,-9.01 3.23,-18.49 10.19,-24.59 z"
       id="path81"
       inkscape:connector-curvature="0"
       style="opacity:1;fill:#c1a973" />
    <path
       d="m 10.75,378.55 c 5.65,0.24 11.31,0.09 16.97,0.13 -3.78,13.98 -6.93,28.12 -10.73,42.1 3.25,0.02 6.52,0.29 9.76,-0.11 1.04,-0.98 0.98,-2.61 1.52,-3.84 4.63,-0.07 9.25,-0.03 13.88,-0.06 -1.04,3.8 -1.69,7.73 -3.07,11.43 -1.24,2.96 -4.47,4.2 -7.39,4.8 H 0.28 c 3.12,-14.51 7.15,-28.83 10.62,-43.27 0.7,-3.72 3.36,-8.03 -0.15,-11.18 z"
       id="path83"
       inkscape:connector-curvature="0"
       style="opacity:1;fill:#c1a973" />
    <path
       d="m 56.12,378.58 c 10.95,0.26 21.9,-0.03 32.85,0.14 2.87,-0.16 6.41,1.25 6.64,4.54 -0.27,4.2 -1.83,8.2 -2.74,12.3 -4.68,0 -9.35,-0.01 -14.03,0 0.4,-1.44 1.05,-2.85 0.97,-4.37 -3.11,-1.04 -6.52,-0.33 -9.75,-0.47 -0.77,3.03 -1.57,6.06 -2.36,9.1 4.24,0 8.48,0 12.72,-0.01 -1.05,3.98 -2.07,7.97 -3.02,11.99 -4.21,0.06 -8.41,0.05 -12.61,0.03 -0.79,2.99 -1.55,5.99 -2.3,8.99 3.33,-0.05 6.72,0.34 10.01,-0.29 0.52,-1.22 0.9,-2.48 1.31,-3.73 4.61,-0.02 9.23,-0.01 13.85,-0.01 -1.19,3.83 -1.69,7.88 -3.26,11.6 -1.44,3.07 -4.92,4.29 -8.08,4.61 H 45.45 c 4.04,-15.81 7.9,-31.67 11.91,-47.48 0.78,-2.42 0.08,-4.87 -1.24,-6.94 z"
       id="path85"
       inkscape:connector-curvature="0"
       style="opacity:1;fill:#c1a973" />
    <path
       d="m 105.98,378.56 c 5.67,0.23 11.34,0.07 17.01,0.14 -4.32,16.44 -8.28,32.97 -12.42,49.45 -0.78,1.81 0.57,3.35 1.4,4.85 H 95.28 c 4.2,-16.31 8.24,-32.67 12.33,-49 0.85,-2.07 -0.37,-3.91 -1.63,-5.44 z"
       id="path87"
       inkscape:connector-curvature="0"
       style="opacity:1;fill:#c1a973" />
    <path
       d="m 134.02,378.58 c 11.33,0.32 22.68,-0.14 34.02,0.22 2.79,-0.03 5.67,2.11 5.46,5.12 -0.6,3.93 -1.83,7.75 -2.74,11.62 -4.68,0.03 -9.36,0.01 -14.04,0.02 0.11,-1.49 2.11,-3.66 0.24,-4.73 -2.99,-0.31 -6,-0.12 -9,-0.13 -0.39,1.42 -0.78,2.85 -1.16,4.28 6.71,5.52 13.38,11.09 20.04,16.67 -1.54,5.24 -2.58,10.62 -4.17,15.84 -1.13,3.58 -4.97,5.15 -8.41,5.51 h -30.91 c 1.31,-5.4 2.77,-10.76 4.04,-16.17 4.69,-0.06 9.39,-0.04 14.09,-0.05 -0.4,1.33 -0.8,2.67 -1.19,4.01 3.15,0.02 6.33,0.27 9.47,-0.12 1.75,-1.13 1.48,-3.59 2.14,-5.35 -6.72,-5.52 -13.3,-11.2 -19.99,-16.76 1.26,-4.87 2.76,-9.69 3.62,-14.64 0.42,-1.96 -0.68,-3.69 -1.51,-5.34 z"
       id="path89"
       inkscape:connector-curvature="0"
       style="opacity:1;fill:#c1a973" />
    <path
       d="m 182.27,378.56 c 5.62,0.22 11.26,0.09 16.89,0.1 -3.67,13.87 -6.99,27.83 -10.55,41.72 3.31,0.54 6.66,0.48 10,0.37 3.06,-12.59 6.4,-25.12 9.4,-37.72 0.67,-1.78 -0.88,-3.12 -1.72,-4.46 5.66,0.2 11.32,0.08 16.98,0.1 -4.12,16.08 -8.12,32.19 -12.16,48.29 -0.84,2.12 0.07,4.23 1.19,6.04 h -31.71 c -2.18,-0.26 -4.55,-0.86 -5.93,-2.7 -1.58,-2.03 -1.12,-4.8 -0.61,-7.12 3.17,-12.94 6.49,-25.85 9.63,-38.79 0.74,-2.11 -0.24,-4.13 -1.41,-5.83 z"
       id="path91"
       inkscape:connector-curvature="0"
       style="opacity:1;fill:#c1a973" />
    <path
       d="m 232.55,378.56 c 11.48,0.38 22.98,-0.17 34.45,0.28 3.12,0.01 5.93,3.03 4.93,6.19 -2.06,8.73 -4.22,17.46 -6.61,26.11 -0.94,3.8 -4.92,5.22 -8.34,5.84 2.29,5.38 2.67,11.88 7.25,16.02 h -16.55 c -1.73,-5.35 -3.05,-10.81 -4.67,-16.19 -0.74,0 -2.23,0 -2.97,0 -0.9,3.78 -2.04,7.5 -2.78,11.31 -0.43,1.78 0.79,3.36 1.53,4.88 h -16.81 c 3.96,-15.98 8.01,-31.94 11.94,-47.92 0.81,-2.32 -0.2,-4.56 -1.37,-6.52 m 10.37,26.12 c 2.73,0.04 5.46,0.15 8.19,0.04 1.26,0.18 2.47,-0.6 2.63,-1.9 0.9,-4 2.2,-7.93 2.57,-12.03 -3.25,-0.13 -6.49,-0.11 -9.74,-0.1 -1.25,4.65 -2.29,9.36 -3.65,13.99 z"
       id="path93"
       inkscape:connector-curvature="0"
       style="opacity:1;fill:#c1a973" />
    <path
       d="m 282.54,378.57 c 11.17,0.31 22.35,-0.07 33.51,0.18 2.49,-0.1 4.76,1.22 5.95,3.4 v 2.83 c -0.82,3.52 -1.77,7.02 -2.56,10.55 -4.68,0.05 -9.36,0.02 -14.04,0.03 0.36,-1.59 0.7,-3.19 1.02,-4.78 -3.29,-0.1 -6.58,-0.1 -9.87,-0.09 -0.77,3.03 -1.56,6.06 -2.41,9.08 4.27,0.07 8.53,0.06 12.8,0.03 -1.09,4 -2.1,8.03 -3.17,12.04 -4.17,0 -8.33,-0.01 -12.5,0.01 -0.76,2.99 -1.52,5.98 -2.38,8.95 3.3,0.01 6.62,0.24 9.92,-0.13 0.73,-1.17 0.96,-2.57 1.41,-3.85 4.63,-0.06 9.27,-0.02 13.91,-0.05 -1.07,3.7 -1.73,7.51 -3.02,11.14 -1.14,3.13 -4.5,4.5 -7.52,5.09 h -31.63 c 3.98,-15.99 8.05,-31.96 11.94,-47.97 0.79,-2.29 -0.22,-4.52 -1.36,-6.46 z"
       id="path95"
       inkscape:connector-curvature="0"
       style="opacity:1;fill:#c1a973" />
  </g>
</svg>
