<?xml version="1.0" encoding="utf-8"?>
<!-- Generator: Adobe Illustrator 23.0.2, SVG Export Plug-In . SVG Version: 6.00 Build 0)  -->
<svg version="1.1" id="Layer_1" xmlns="http://www.w3.org/2000/svg" xmlns:xlink="http://www.w3.org/1999/xlink" x="0px" y="0px"
	 width="64px" height="64px" viewBox="0 0 64 64" enable-background="new 0 0 64 64" xml:space="preserve">
<g>
	<g id="_x23_000000ff">
		<path d="M30.386,5.157c3.529-0.408,7.193,0.585,10.03,2.723c0.774,0.582,1.569,1.147,2.242,1.848
			c1.107,1.122,1.999,2.461,2.563,3.934c0.231,0.698,0.581,1.407,0.473,2.162c0.148,0.827,0.325,1.653,0.36,2.496
			c0.251-0.315,0.455-0.662,0.7-0.98c0.866-1.03,1.952-1.898,3.204-2.408c1.607-0.643,3.394-0.841,5.1-0.536
			c1.326,0.209,2.667,0.541,3.811,1.269c1.258,0.761,2.302,1.853,3.069,3.102c0.789,1.225,1.269,2.625,1.585,4.04
			c0.688,2.793,0.615,5.755-0.104,8.535c-0.257,1.051-0.63,2.079-1.179,3.014c-0.751,1.284-1.788,2.399-3.01,3.245
			c-1.606,1.08-3.507,1.654-5.421,1.852c0.454,1.249,0.798,2.555,0.839,3.89c0.024,1.039-0.091,2.085-0.392,3.081
			c-0.233,1.145-0.79,2.19-1.407,3.171c-0.323,0.494-0.729,0.927-1.118,1.369c-1.805,1.801-3.863,3.343-6.088,4.587
			c-3.795,2.111-8.124,3.14-12.443,3.361c-3.351,0.131-6.721-0.32-9.931-1.294c-3.213-0.951-6.199-2.594-8.808-4.688
			c-1.046-0.9-2.144-1.767-2.978-2.88c-0.94-1.208-1.569-2.642-1.875-4.139c-0.526-2.138-0.233-4.422,0.608-6.438
			c-1.977-0.229-3.954-0.811-5.588-1.981c-2.119-1.455-3.556-3.79-4.076-6.292c-0.491-1.853-0.629-3.786-0.514-5.696
			c0.129-1.383,0.387-2.757,0.808-4.082c0.157-0.599,0.416-1.164,0.696-1.714c0.907-1.91,2.434-3.549,4.352-4.465
			c1.173-0.517,2.44-0.786,3.709-0.933c1.244-0.146,2.51,0.018,3.708,0.367c1.804,0.528,3.377,1.752,4.391,3.327
			c0.059,0.083,0.128,0.159,0.197,0.234c0.006-0.89,0.186-1.768,0.402-2.628c0.731-2.824,2.371-5.399,4.613-7.264
			C25.022,6.583,27.654,5.454,30.386,5.157 M29.194,7.271c-1.629,0.323-3.224,0.875-4.651,1.732
			c-0.029,0.039-0.086,0.118-0.114,0.157c0.879-0.195,1.764-0.422,2.672-0.432c0.985-0.035,1.968,0.13,2.913,0.403
			c-0.099-0.311-0.262-0.605-0.302-0.932c-0.006-0.486,0.422-0.946,0.917-0.931c0.392-0.014,0.754,0.276,0.863,0.647
			c0.362,0.963,0.955,1.828,1.679,2.554c1.231,1.23,2.908,1.967,4.627,2.166c-0.111-1.228-0.424-2.47-1.128-3.498
			c-0.679-1.035-1.807-1.72-3.006-1.974C32.19,6.811,30.665,7.02,29.194,7.271 M38.494,8.525c0.066,0.274,0.232,0.508,0.339,0.767
			c0.618,1.406,0.879,2.96,0.806,4.492c1.388,0.034,2.795,0.409,3.952,1.194c0.265,0.17,0.482,0.408,0.765,0.552
			c-0.38-1.485-1.085-2.893-2.049-4.086c-0.844-1.063-1.928-1.915-3.1-2.591C38.977,8.728,38.752,8.582,38.494,8.525 M25.913,10.696
			c-1.379,0.254-2.713,0.842-3.768,1.775c-0.7,0.595-1.248,1.35-1.691,2.15c-0.063,0.118-0.113,0.243-0.153,0.371
			c0.27-0.093,0.494-0.273,0.746-0.4c1.099-0.558,2.335-0.811,3.563-0.823c-0.072-0.14-0.148-0.279-0.181-0.435
			c-0.087-0.493,0.311-1.029,0.825-1.037c0.315-0.051,0.583,0.136,0.846,0.276c1.001,0.551,2.057,0.999,3.143,1.353
			c0.679,0.234,1.39,0.392,2.109,0.417c0.324-0.008,0.671-0.039,0.947-0.225c0.275-0.221,0.41-0.62,0.276-0.956
			c-0.253-0.682-0.856-1.147-1.447-1.527C29.587,10.69,27.686,10.314,25.913,10.696 M34.447,13.56
			c-0.034,0.991-0.673,1.941-1.595,2.317c-0.776,0.344-1.643,0.29-2.467,0.223c0.633,0.726,1.173,1.533,1.558,2.418
			c0.026,0.003,0.078,0.01,0.104,0.013c0.727-1.658,1.964-3.133,3.604-3.943c0.239-0.114,0.489-0.205,0.713-0.349
			C35.705,14.074,35.075,13.817,34.447,13.56 M7.194,16.231c-1.427,0.504-2.661,1.476-3.546,2.696
			c-1.172,1.602-1.792,3.544-2.077,5.492c-0.215,1.451-0.217,2.927-0.06,4.384c0.225,1.742,0.634,3.507,1.57,5.016
			c0.814,1.346,2.018,2.444,3.419,3.157c1.205,0.628,2.546,0.993,3.9,1.085c0.22-0.176,0.318-0.464,0.49-0.684
			c-1.219-0.096-2.446-0.392-3.488-1.056c-1.632-1.01-2.707-2.747-3.182-4.58c-0.101-0.582-0.11-1.266,0.33-1.72
			c0.477-0.558,1.244-0.668,1.834-1.055c0.291-0.21,0.253-0.607,0.206-0.919c-0.051-0.293-0.268-0.534-0.544-0.637
			c-0.635-0.266-1.33-0.419-1.888-0.845c-0.821-0.618-1.236-1.642-1.318-2.644c-0.115-1.566,0.407-3.14,1.299-4.418
			c0.899-1.297,2.281-2.239,3.805-2.638c1.114-0.294,2.292-0.347,3.424-0.136c1.136,0.223,2.183,0.814,3.014,1.614
			c1.044,0.957,1.812,2.177,2.417,3.448c0.125,0.242,0.158,0.57,0.416,0.716c-0.002-0.732,0.002-1.464,0.002-2.196
			c-0.002-0.113,0.003-0.23-0.046-0.335c-0.294-0.683-0.68-1.327-1.166-1.891c-1.05-1.272-2.591-2.1-4.217-2.34
			C10.246,15.555,8.663,15.728,7.194,16.231 M22.316,16.016c-0.331,0.082-0.603,0.293-0.887,0.471
			c-0.483,0.276-0.872,0.695-1.168,1.161c-0.427,0.516-0.618,1.171-0.859,1.784c-0.333,1.005-0.373,2.078-0.361,3.128
			c0,2.932,0.002,5.864-0.001,8.796c-1.923,2.005-3.857,4.001-5.783,6.004c-1.967,2.039-2.868,5.036-2.381,7.823
			c0.291,1.804,1.159,3.502,2.422,4.817c0.848,0.844,1.764,1.617,2.715,2.343c2.823,2.15,6.111,3.678,9.571,4.463
			c3.068,0.69,6.251,0.905,9.38,0.563c2.536-0.252,5.044-0.844,7.403-1.813c3.078-1.251,5.869-3.157,8.247-5.469
			c0.924-0.928,1.639-2.063,2.087-3.293c1.033-2.788,0.587-6.07-1.163-8.475c-0.489-0.702-1.118-1.287-1.702-1.907
			c-1.644-1.674-3.254-3.382-4.888-5.065c-0.002-2.85-0.002-5.701,0-8.551c0.083-1.559-0.112-3.177-0.834-4.58
			c-0.37-0.55-0.721-1.145-1.277-1.53c-1.246-0.993-2.94-1.199-4.478-1.016c-1.437,0.144-2.799,0.881-3.701,2.012
			c-1.081,1.357-1.578,3.092-1.707,4.801c-0.005,0.363-0.259,0.7-0.596,0.824c-0.225,0.055-0.465,0.058-0.691,0.006
			c-0.355-0.116-0.61-0.463-0.624-0.834c-0.12-1.727-0.648-3.478-1.75-4.838c-0.857-1.062-2.129-1.769-3.481-1.946
			C24.643,15.518,23.425,15.604,22.316,16.016 M49.233,16.933c-1.1,0.757-1.902,1.872-2.447,3.078
			c-0.043,0.526,0.005,1.058-0.009,1.586c0.029,0.326-0.047,0.661,0.041,0.98c0.286-0.579,0.534-1.178,0.87-1.731
			c0.785-1.399,1.848-2.692,3.258-3.493c1.176-0.677,2.584-0.85,3.916-0.704c1.248,0.118,2.465,0.566,3.481,1.303
			c1.224,0.905,2.121,2.227,2.55,3.684c0.344,1.15,0.422,2.421-0.032,3.552c-0.297,0.781-0.916,1.432-1.687,1.757
			c-0.453,0.208-0.952,0.307-1.389,0.547c-0.389,0.224-0.447,0.729-0.396,1.132c0.055,0.258,0.297,0.405,0.516,0.514
			c0.499,0.233,1.056,0.394,1.455,0.794c0.453,0.419,0.579,1.102,0.437,1.686c-0.147,0.748-0.463,1.451-0.815,2.123
			c-0.764,1.435-2.044,2.604-3.579,3.163c-0.738,0.281-1.524,0.396-2.305,0.473c0.174,0.217,0.286,0.481,0.476,0.685
			c2.588-0.172,5.173-1.354,6.774-3.434c0.975-1.216,1.545-2.705,1.867-4.218c0.404-1.89,0.499-3.849,0.241-5.764
			c-0.232-1.747-0.723-3.483-1.633-5.002c-0.569-0.971-1.334-1.826-2.243-2.491c-1.405-0.996-3.142-1.419-4.843-1.483
			C52.153,15.588,50.531,16.002,49.233,16.933 M7.477,18.102c-2.303,0.934-3.863,3.468-3.591,5.949
			c0.112,0.624,0.346,1.281,0.871,1.675c0.639,0.482,1.496,0.515,2.139,0.99c0.454,0.311,0.679,0.853,0.745,1.383
			c0.108,0.648-0.143,1.374-0.709,1.737c-0.452,0.341-1.029,0.438-1.497,0.747c-0.334,0.221-0.277,0.675-0.193,1.01
			c0.49,1.739,1.606,3.393,3.284,4.167c0.98,0.451,2.077,0.624,3.151,0.56c0.37-0.251,0.635-0.644,0.968-0.946
			c-0.926-0.413-1.892-0.868-2.519-1.699c-0.463-0.598-0.704-1.382-0.583-2.135c0.118-0.965,0.636-1.926,1.514-2.394
			c0.946-0.524,2.072-0.466,3.102-0.283c-0.011-0.047-0.033-0.143-0.044-0.19c-0.223-0.133-0.49-0.173-0.729-0.274
			c-1.171-0.458-2.349-1.052-3.165-2.04c-0.572-0.696-0.82-1.669-0.55-2.539c0.217-0.688,0.586-1.35,1.132-1.831
			c0.55-0.471,1.336-0.566,2.02-0.381c1.174,0.295,2.171,1.029,3.091,1.786c0.213,0.168,0.392,0.39,0.65,0.493
			c-0.622-1.656-1.419-3.293-2.665-4.576c-0.759-0.782-1.73-1.397-2.815-1.585C9.877,17.545,8.612,17.635,7.477,18.102
			 M52.158,17.932c-1.394,0.509-2.438,1.653-3.231,2.866c-0.601,0.968-1.112,2.003-1.462,3.088c0.227-0.132,0.412-0.321,0.612-0.488
			c0.741-0.623,1.536-1.201,2.434-1.577c0.661-0.27,1.428-0.435,2.116-0.162c0.597,0.209,1.005,0.734,1.307,1.266
			c0.422,0.701,0.654,1.577,0.394,2.378c-0.305,1.048-1.192,1.8-2.104,2.328c-0.726,0.424-1.504,0.77-2.316,0.995
			c-0.014,0.06-0.043,0.18-0.058,0.239c0.589-0.093,1.188-0.192,1.785-0.11c0.661,0.061,1.316,0.306,1.817,0.748
			c0.595,0.542,0.923,1.33,1.017,2.119c0.095,0.791-0.193,1.597-0.712,2.192c-0.629,0.749-1.534,1.175-2.412,1.558
			c0.316,0.302,0.614,0.623,0.907,0.946c1.362,0.087,2.783-0.189,3.927-0.961c1.216-0.8,2.02-2.097,2.483-3.453
			c0.099-0.376,0.285-0.806,0.053-1.17c-0.188-0.234-0.489-0.33-0.753-0.449c-0.56-0.211-1.147-0.505-1.44-1.056
			c-0.287-0.595-0.216-1.318,0.059-1.906c0.288-0.573,0.895-0.882,1.482-1.067c0.602-0.184,1.24-0.431,1.598-0.983
			c0.599-0.93,0.564-2.118,0.305-3.154c-0.39-1.479-1.337-2.827-2.656-3.616c-1.059-0.665-2.335-0.909-3.573-0.864
			C53.204,17.684,52.659,17.724,52.158,17.932 M11.049,23.281c-0.364,0.54-0.588,1.24-0.344,1.875
			c0.333,0.822,1.114,1.332,1.856,1.75c0.806,0.409,1.655,0.745,2.544,0.925c0.045,0.83,0.131,1.656,0.165,2.487
			c-0.595-0.2-1.179-0.457-1.811-0.51c-0.657-0.099-1.371-0.067-1.96,0.27c-0.637,0.387-0.926,1.154-0.957,1.87
			c0.011,0.671,0.43,1.257,0.953,1.644c0.583,0.426,1.253,0.738,1.951,0.92c1.212-1.198,2.375-2.446,3.558-3.673
			c0.083-0.103,0.221-0.191,0.212-0.339c0.002-1.416,0.001-2.832,0.002-4.249c0.001-0.246-0.25-0.387-0.388-0.563
			c-0.959-1.005-1.995-1.959-3.207-2.651c-0.518-0.263-1.086-0.566-1.684-0.47C11.532,22.621,11.257,22.961,11.049,23.281
			 M50.362,23.043c-1.305,0.755-2.41,1.801-3.433,2.898c-0.077,0.09-0.174,0.181-0.153,0.312c-0.002,1.338,0.002,2.675-0.002,4.013
			c0.003,0.119-0.012,0.242,0.022,0.359c1.232,1.317,2.507,2.596,3.744,3.908c1.017-0.325,2.107-0.79,2.688-1.74
			c0.378-0.676,0.228-1.542-0.171-2.174c-0.312-0.51-0.905-0.771-1.481-0.834c-0.981-0.12-1.946,0.186-2.85,0.535
			c0.064-0.827,0.101-1.656,0.164-2.483c1.25-0.293,2.486-0.769,3.509-1.56c0.414-0.337,0.809-0.752,0.948-1.281
			c0.126-0.501,0.003-1.033-0.258-1.472c-0.237-0.436-0.578-0.913-1.11-0.977C51.401,22.514,50.861,22.783,50.362,23.043z"/>
		<path d="M26.011,24.794c0.848-0.165,1.761,0.051,2.446,0.578c0.696,0.516,1.156,1.296,1.41,2.114
			c0.364,1.226,0.294,2.559-0.091,3.77c-0.409,1.252-1.208,2.431-2.381,3.074c-0.818,0.462-1.841,0.553-2.72,0.217
			c-0.758-0.3-1.382-0.893-1.773-1.603c-0.598-1.073-0.753-2.353-0.572-3.556c0.185-1.376,0.813-2.71,1.846-3.65
			C24.692,25.271,25.325,24.926,26.011,24.794 M26.245,26.612c-0.326,0.079-0.612,0.272-0.861,0.491
			c-0.843,0.784-1.246,1.95-1.282,3.082c-0.008,0.698,0.113,1.423,0.492,2.022c0.25,0.39,0.664,0.704,1.139,0.727
			c0.513,0.013,0.978-0.27,1.336-0.615c0.837-0.825,1.208-2.028,1.216-3.182c-0.023-0.757-0.197-1.569-0.733-2.137
			C27.231,26.643,26.71,26.467,26.245,26.612z"/>
		<path d="M36.842,24.789c0.993-0.187,2.029,0.164,2.8,0.793c1.057,0.865,1.721,2.143,1.973,3.473
			c0.207,1.149,0.164,2.376-0.309,3.457c-0.367,0.895-1.074,1.674-1.983,2.033c-0.863,0.325-1.864,0.253-2.673-0.189
			c-0.922-0.49-1.627-1.326-2.089-2.251c-0.725-1.527-0.916-3.353-0.316-4.954C34.663,26.013,35.617,25.012,36.842,24.789
			 M37.009,26.63c-0.209,0.094-0.451,0.159-0.605,0.339c-1.031,1.426-0.836,3.45,0.109,4.868c0.404,0.566,1.006,1.096,1.74,1.095
			c0.608-0.013,1.073-0.512,1.319-1.027c0.281-0.638,0.375-1.353,0.31-2.045c-0.116-1.037-0.508-2.102-1.317-2.798
			C38.15,26.697,37.558,26.429,37.009,26.63z"/>
		<path d="M30.822,34.234c1.538-0.061,3.111-0.022,4.584,0.472c1.593,0.456,3.059,1.503,3.823,2.997
			c0.414,0.816,0.699,1.755,0.526,2.674c-0.112,0.813-0.517,1.586-1.143,2.121c-0.954,0.835-2.25,1.152-3.491,1.188
			c-0.756,0.019-1.529-0.223-2.089-0.741c-0.664-0.574-1.067-1.455-1.017-2.336c0.001-0.806,0.391-1.584,0.979-2.123
			c0.534-0.491,1.254-0.753,1.975-0.773c0.434-0.002,0.838,0.323,0.92,0.753c0.095,0.485-0.266,1.022-0.771,1.06
			c-0.347,0.006-0.717,0.097-0.958,0.364c-0.421,0.423-0.434,1.188-0.008,1.613c0.241,0.267,0.616,0.387,0.969,0.364
			c0.733-0.026,1.498-0.16,2.11-0.587c0.612-0.426,0.887-1.252,0.7-1.967c-0.189-0.762-0.648-1.445-1.257-1.938
			c-1.089-0.877-2.505-1.205-3.872-1.311c-1.594-0.1-3.25-0.004-4.733,0.637c-1.099,0.477-2.064,1.395-2.356,2.586
			c-0.205,0.689,0.04,1.497,0.618,1.935c0.624,0.483,1.443,0.618,2.212,0.644c0.47,0.029,0.961-0.234,1.152-0.673
			c0.291-0.577-0.025-1.363-0.637-1.574c-0.29-0.132-0.643-0.017-0.906-0.219c-0.377-0.229-0.504-0.736-0.343-1.135
			c0.143-0.313,0.465-0.529,0.807-0.55c1.153-0.011,2.284,0.699,2.744,1.762c0.372,0.798,0.354,1.76-0.046,2.545
			c-0.404,0.842-1.234,1.466-2.156,1.614c-0.571,0.104-1.154,0.027-1.722-0.056c-1.142-0.196-2.294-0.725-2.974-1.697
			c-0.465-0.645-0.652-1.452-0.638-2.239c0.086-1.033,0.523-2.02,1.156-2.834c0.963-1.203,2.395-1.961,3.887-2.279
			C29.506,34.356,30.165,34.278,30.822,34.234z"/>
		<path d="M15.651,38.144c1.14-0.177,2.298,0.191,3.268,0.779c1.321,0.78,2.27,2.044,3.592,2.825
			c2.701,1.783,5.841,2.918,9.073,3.169c0.544,0.051,1.089-0.022,1.63-0.079c3.92-0.501,7.704-2.218,10.57-4.952
			c0.94-0.826,2.051-1.532,3.307-1.732c1.182-0.208,2.43,0.176,3.327,0.963c0.888,0.768,1.464,1.844,1.787,2.961
			c0.378,1.342,0.398,2.808-0.083,4.127c-0.248,0.708-0.722,1.302-1.172,1.891c-2.03,2.542-4.709,4.517-7.618,5.944
			c-5.636,2.726-12.261,3.307-18.292,1.634c-3.01-0.819-5.875-2.192-8.363-4.076c-1.355-1.037-2.62-2.207-3.668-3.556
			c-0.41-0.539-0.841-1.08-1.084-1.719c-0.546-1.366-0.522-2.91-0.113-4.31c0.32-1.072,0.874-2.105,1.721-2.852
			C14.115,38.619,14.866,38.269,15.651,38.144 M16.216,40.01c-0.394,0.122-0.696,0.473-0.775,0.875
			c-0.092,0.5-0.031,1.058,0.286,1.471c0.376,0.477,0.805,0.907,1.191,1.376c0.473,0.38,0.911,0.804,1.382,1.187
			c0.647,0.54,1.346,1.009,2.029,1.5c0.944,0.547,1.899,1.084,2.903,1.517c1.325,0.564,2.693,1.041,4.104,1.333
			c3.486,0.772,7.159,0.652,10.594-0.313c1.25-0.367,2.474-0.827,3.648-1.391c0.741-0.287,1.382-0.764,2.062-1.164
			c1.701-1.081,3.265-2.394,4.553-3.949c0.406-0.455,0.473-1.126,0.325-1.697c-0.153-0.546-0.745-0.866-1.289-0.805
			c-0.883,0.282-1.688,0.786-2.362,1.42c-2.646,2.466-5.976,4.17-9.502,4.951c-1.339,0.286-2.71,0.507-4.083,0.408
			c-4.604-0.398-9.072-2.387-12.401-5.597c-0.664-0.507-1.374-1.001-2.208-1.17C16.519,39.941,16.364,39.966,16.216,40.01
			 M14.536,43.934c-0.45,0.39-0.797,0.963-0.742,1.578c0.017,0.704,0.516,1.255,0.944,1.764c2.097,2.491,4.85,4.385,7.845,5.637
			c2.664,1.118,5.533,1.725,8.417,1.86c3.65,0.141,7.334-0.526,10.69-1.975c2.881-1.257,5.539-3.098,7.566-5.516
			c0.438-0.509,0.919-1.069,0.964-1.771c0.046-0.623-0.318-1.185-0.755-1.593c-0.027,0.002-0.083,0.006-0.111,0.008
			c-2.191,2.523-4.993,4.496-8.061,5.808c-5.502,2.322-11.874,2.479-17.483,0.429c-2.784-1.004-5.361-2.576-7.545-4.569
			c-0.591-0.534-1.119-1.138-1.678-1.699L14.536,43.934z"/>
	</g>
	<g id="_x23_ffffffff">
		<path fill="#FFFFFF" d="M29.194,7.271c1.472-0.25,2.997-0.46,4.47-0.108c1.2,0.254,2.328,0.939,3.006,1.974
			c0.704,1.028,1.017,2.27,1.128,3.498c-1.719-0.199-3.396-0.936-4.627-2.166c-0.724-0.726-1.317-1.591-1.679-2.554
			c-0.109-0.371-0.472-0.661-0.863-0.647c-0.495-0.015-0.924,0.445-0.917,0.931c0.04,0.327,0.204,0.621,0.302,0.932
			c-0.945-0.273-1.928-0.437-2.913-0.403c-0.908,0.01-1.792,0.238-2.672,0.432c0.028-0.039,0.085-0.118,0.114-0.157
			C25.97,8.145,27.565,7.594,29.194,7.271z"/>
		<path fill="#FFFFFF" d="M38.494,8.525c0.258,0.057,0.483,0.202,0.711,0.328c1.172,0.676,2.256,1.528,3.1,2.591
			c0.964,1.192,1.67,2.6,2.049,4.086c-0.282-0.144-0.5-0.382-0.765-0.552c-1.156-0.785-2.564-1.16-3.952-1.194
			c0.073-1.532-0.188-3.086-0.806-4.492C38.726,9.033,38.56,8.8,38.494,8.525z"/>
		<path fill="#FFFFFF" d="M25.913,10.696c1.772-0.382,3.673-0.006,5.212,0.939c0.591,0.38,1.195,0.845,1.447,1.527
			c0.134,0.336-0.001,0.735-0.276,0.956c-0.276,0.186-0.623,0.217-0.947,0.225c-0.719-0.026-1.43-0.183-2.109-0.417
			c-1.086-0.354-2.142-0.802-3.143-1.353c-0.262-0.14-0.531-0.327-0.846-0.276c-0.514,0.008-0.912,0.544-0.825,1.037
			c0.033,0.156,0.109,0.295,0.181,0.435c-1.228,0.012-2.463,0.266-3.563,0.823c-0.252,0.127-0.477,0.307-0.746,0.4
			c0.04-0.128,0.09-0.254,0.153-0.371c0.444-0.8,0.992-1.554,1.691-2.15C23.201,11.538,24.534,10.95,25.913,10.696z"/>
		<path fill="#FFFFFF" d="M34.447,13.56c0.627,0.257,1.257,0.514,1.916,0.68c-0.223,0.144-0.473,0.235-0.713,0.349
			c-1.64,0.81-2.877,2.284-3.604,3.943c-0.026-0.003-0.078-0.01-0.104-0.013c-0.385-0.885-0.925-1.692-1.558-2.418
			c0.824,0.067,1.691,0.121,2.467-0.223C33.774,15.501,34.414,14.551,34.447,13.56z"/>
		<path fill="#FFFFFF" d="M7.194,16.231c1.469-0.503,3.052-0.676,4.595-0.487c1.626,0.24,3.167,1.068,4.217,2.34
			c0.485,0.564,0.872,1.208,1.166,1.891c0.049,0.104,0.043,0.221,0.046,0.335c-0.001,0.732-0.005,1.464-0.002,2.196
			c-0.258-0.145-0.29-0.473-0.416-0.716c-0.605-1.271-1.373-2.491-2.417-3.448c-0.831-0.799-1.878-1.391-3.014-1.614
			c-1.133-0.211-2.311-0.157-3.425,0.136c-1.524,0.4-2.905,1.342-3.805,2.638c-0.892,1.278-1.414,2.852-1.299,4.418
			c0.082,1.001,0.497,2.026,1.318,2.644c0.558,0.426,1.253,0.579,1.888,0.845c0.276,0.103,0.493,0.344,0.544,0.637
			c0.047,0.312,0.085,0.708-0.206,0.919c-0.59,0.387-1.358,0.497-1.834,1.055c-0.44,0.454-0.431,1.139-0.33,1.72
			c0.475,1.833,1.55,3.57,3.182,4.58c1.041,0.664,2.269,0.96,3.488,1.056c-0.173,0.22-0.27,0.508-0.49,0.684
			c-1.354-0.092-2.695-0.457-3.9-1.085c-1.401-0.713-2.604-1.81-3.419-3.157c-0.936-1.508-1.345-3.274-1.57-5.016
			c-0.156-1.457-0.155-2.933,0.06-4.384c0.285-1.948,0.905-3.89,2.077-5.492C4.533,17.707,5.768,16.735,7.194,16.231z"/>
		<path fill="#FFFFFF" d="M22.316,16.016c1.11-0.412,2.327-0.497,3.493-0.321c1.353,0.177,2.625,0.883,3.481,1.946
			c1.102,1.36,1.63,3.111,1.75,4.838c0.014,0.371,0.27,0.718,0.624,0.834c0.225,0.052,0.465,0.049,0.691-0.006
			c0.337-0.124,0.591-0.461,0.596-0.824c0.128-1.709,0.626-3.444,1.707-4.801c0.901-1.131,2.263-1.867,3.701-2.012
			c1.538-0.183,3.232,0.022,4.478,1.016c0.556,0.385,0.907,0.98,1.277,1.53c0.722,1.403,0.916,3.021,0.834,4.58
			c-0.002,2.85-0.002,5.701,0,8.551c1.634,1.683,3.244,3.391,4.888,5.065c0.584,0.62,1.212,1.205,1.702,1.907
			c1.75,2.405,2.196,5.687,1.163,8.475c-0.448,1.23-1.163,2.365-2.087,3.293c-2.377,2.312-5.169,4.218-8.247,5.469
			c-2.36,0.968-4.867,1.561-7.403,1.813c-3.128,0.342-6.311,0.127-9.38-0.563c-3.46-0.785-6.748-2.313-9.571-4.463
			c-0.951-0.726-1.867-1.499-2.715-2.343c-1.264-1.316-2.131-3.014-2.422-4.817c-0.486-2.787,0.414-5.784,2.381-7.823
			c1.926-2.003,3.86-3.999,5.783-6.004c0.002-2.932,0.001-5.864,0.001-8.796c-0.012-1.05,0.028-2.123,0.361-3.128
			c0.241-0.613,0.432-1.268,0.859-1.784c0.296-0.466,0.685-0.885,1.168-1.161C21.712,16.308,21.984,16.097,22.316,16.016
			 M26.011,24.794c-0.686,0.132-1.319,0.477-1.835,0.944c-1.033,0.94-1.662,2.274-1.846,3.65c-0.181,1.203-0.026,2.483,0.572,3.556
			c0.391,0.71,1.015,1.303,1.773,1.603c0.879,0.336,1.902,0.246,2.72-0.217c1.174-0.643,1.972-1.822,2.381-3.074
			c0.385-1.212,0.455-2.544,0.091-3.77c-0.254-0.818-0.713-1.598-1.41-2.114C27.773,24.846,26.859,24.629,26.011,24.794
			 M36.842,24.789c-1.225,0.223-2.178,1.224-2.596,2.362c-0.6,1.601-0.409,3.427,0.316,4.954c0.462,0.926,1.167,1.761,2.089,2.251
			c0.809,0.442,1.81,0.514,2.673,0.189c0.909-0.359,1.615-1.138,1.983-2.033c0.473-1.082,0.516-2.308,0.309-3.457
			c-0.252-1.33-0.916-2.608-1.973-3.473C38.871,24.954,37.834,24.602,36.842,24.789 M30.822,34.234
			c-0.657,0.044-1.317,0.122-1.954,0.298c-1.492,0.318-2.924,1.076-3.887,2.279c-0.633,0.814-1.07,1.801-1.156,2.834
			c-0.014,0.786,0.173,1.594,0.638,2.239c0.68,0.972,1.832,1.501,2.974,1.697c0.568,0.083,1.151,0.16,1.722,0.056
			c0.922-0.148,1.752-0.772,2.156-1.614c0.4-0.785,0.418-1.747,0.046-2.545c-0.461-1.063-1.591-1.773-2.744-1.762
			c-0.343,0.022-0.664,0.237-0.807,0.55c-0.161,0.399-0.035,0.905,0.343,1.135c0.262,0.202,0.616,0.087,0.906,0.219
			c0.612,0.211,0.928,0.997,0.637,1.574c-0.191,0.439-0.682,0.702-1.152,0.673c-0.769-0.026-1.588-0.16-2.212-0.644
			c-0.578-0.438-0.822-1.246-0.618-1.935c0.291-1.191,1.257-2.109,2.356-2.586c1.483-0.641,3.14-0.737,4.733-0.637
			c1.367,0.106,2.783,0.434,3.872,1.311c0.608,0.493,1.068,1.175,1.257,1.938c0.187,0.714-0.087,1.541-0.7,1.967
			c-0.612,0.428-1.378,0.561-2.11,0.587c-0.353,0.022-0.729-0.097-0.969-0.364c-0.426-0.424-0.413-1.19,0.008-1.613
			c0.241-0.267,0.611-0.359,0.958-0.364c0.505-0.038,0.867-0.575,0.771-1.06c-0.082-0.429-0.486-0.754-0.92-0.753
			c-0.721,0.019-1.441,0.282-1.975,0.773c-0.588,0.539-0.978,1.317-0.979,2.123c-0.05,0.88,0.354,1.762,1.017,2.336
			c0.56,0.518,1.334,0.761,2.089,0.741c1.241-0.036,2.537-0.353,3.491-1.188c0.626-0.534,1.031-1.308,1.143-2.121
			c0.173-0.92-0.112-1.858-0.526-2.674c-0.765-1.494-2.231-2.541-3.823-2.997C33.933,34.212,32.36,34.173,30.822,34.234
			 M15.651,38.144c-0.785,0.125-1.536,0.475-2.119,1.017c-0.847,0.748-1.401,1.78-1.721,2.852c-0.409,1.399-0.432,2.943,0.113,4.31
			c0.243,0.639,0.674,1.179,1.084,1.719c1.049,1.35,2.313,2.519,3.668,3.556c2.488,1.884,5.353,3.257,8.363,4.076
			c6.031,1.672,12.656,1.092,18.292-1.634c2.909-1.427,5.588-3.402,7.618-5.944c0.45-0.589,0.924-1.183,1.172-1.891
			c0.481-1.318,0.461-2.785,0.083-4.127c-0.323-1.117-0.899-2.193-1.787-2.961c-0.897-0.787-2.145-1.171-3.327-0.963
			c-1.256,0.201-2.366,0.906-3.307,1.732c-2.867,2.734-6.651,4.451-10.57,4.952c-0.542,0.056-1.086,0.13-1.63,0.079
			c-3.232-0.25-6.372-1.386-9.073-3.169c-1.322-0.781-2.271-2.045-3.592-2.825C17.949,38.335,16.791,37.967,15.651,38.144z"/>
		<path fill="#FFFFFF" d="M49.233,16.933c1.297-0.932,2.92-1.346,4.505-1.261c1.701,0.063,3.438,0.487,4.843,1.483
			c0.908,0.664,1.674,1.52,2.243,2.491c0.91,1.519,1.401,3.255,1.633,5.002c0.258,1.915,0.163,3.875-0.241,5.764
			c-0.322,1.513-0.892,3.002-1.867,4.218c-1.602,2.081-4.186,3.262-6.774,3.434c-0.19-0.205-0.302-0.468-0.476-0.685
			c0.782-0.077,1.567-0.192,2.305-0.473c1.534-0.558,2.815-1.728,3.579-3.163c0.352-0.672,0.668-1.375,0.815-2.123
			c0.141-0.583,0.015-1.267-0.437-1.686c-0.399-0.4-0.956-0.561-1.455-0.794c-0.219-0.108-0.461-0.255-0.516-0.514
			c-0.051-0.404,0.006-0.908,0.396-1.132c0.437-0.241,0.936-0.339,1.389-0.547c0.77-0.325,1.39-0.976,1.687-1.757
			c0.454-1.131,0.376-2.402,0.032-3.552c-0.428-1.457-1.326-2.779-2.55-3.684c-1.016-0.737-2.233-1.185-3.481-1.303
			c-1.333-0.146-2.74,0.026-3.916,0.704c-1.411,0.801-2.474,2.094-3.258,3.493c-0.335,0.553-0.584,1.152-0.87,1.731
			c-0.088-0.319-0.012-0.654-0.041-0.98c0.014-0.529-0.035-1.06,0.009-1.586C47.332,18.805,48.133,17.691,49.233,16.933z"/>
		<path fill="#FFFFFF" d="M7.477,18.102c1.135-0.466,2.401-0.557,3.607-0.376c1.085,0.189,2.056,0.803,2.815,1.585
			c1.245,1.283,2.043,2.92,2.665,4.576c-0.258-0.104-0.436-0.326-0.65-0.493c-0.92-0.757-1.917-1.491-3.091-1.786
			c-0.684-0.185-1.47-0.09-2.02,0.381c-0.546,0.481-0.915,1.143-1.132,1.831c-0.27,0.871-0.022,1.844,0.55,2.539
			c0.815,0.988,1.993,1.581,3.165,2.04c0.238,0.102,0.505,0.141,0.729,0.274c0.011,0.047,0.033,0.143,0.044,0.19
			c-1.03-0.183-2.156-0.241-3.102,0.283c-0.878,0.469-1.396,1.429-1.514,2.394c-0.121,0.753,0.12,1.537,0.583,2.135
			c0.627,0.831,1.594,1.286,2.519,1.699c-0.333,0.302-0.598,0.695-0.968,0.946c-1.074,0.064-2.17-0.109-3.151-0.56
			c-1.678-0.774-2.794-2.429-3.284-4.167c-0.084-0.335-0.141-0.79,0.193-1.01c0.469-0.309,1.045-0.406,1.497-0.747
			c0.566-0.363,0.818-1.09,0.709-1.737c-0.067-0.53-0.291-1.072-0.745-1.383c-0.643-0.475-1.5-0.508-2.139-0.99
			c-0.525-0.395-0.759-1.051-0.871-1.675C3.613,21.569,5.174,19.036,7.477,18.102z"/>
		<path fill="#FFFFFF" d="M52.158,17.932c0.501-0.208,1.046-0.248,1.581-0.29c1.238-0.045,2.514,0.199,3.573,0.864
			c1.319,0.79,2.266,2.138,2.656,3.616c0.259,1.036,0.294,2.224-0.305,3.154c-0.358,0.552-0.997,0.799-1.598,0.983
			c-0.587,0.185-1.194,0.494-1.482,1.067c-0.274,0.587-0.346,1.31-0.059,1.906c0.294,0.55,0.88,0.845,1.44,1.056
			c0.265,0.119,0.566,0.214,0.753,0.449c0.232,0.364,0.047,0.794-0.053,1.17c-0.463,1.356-1.268,2.653-2.483,3.453
			c-1.144,0.772-2.564,1.048-3.927,0.961c-0.294-0.323-0.591-0.644-0.907-0.946c0.878-0.383,1.783-0.809,2.412-1.558
			c0.518-0.595,0.806-1.401,0.712-2.192c-0.094-0.789-0.422-1.577-1.017-2.119c-0.501-0.442-1.156-0.687-1.817-0.748
			c-0.597-0.082-1.196,0.017-1.785,0.11c0.014-0.059,0.043-0.179,0.058-0.239c0.811-0.225,1.589-0.57,2.316-0.995
			c0.912-0.529,1.799-1.281,2.104-2.328c0.26-0.801,0.028-1.677-0.394-2.378c-0.302-0.532-0.71-1.058-1.307-1.266
			c-0.688-0.273-1.455-0.108-2.116,0.162c-0.899,0.376-1.693,0.953-2.434,1.577c-0.2,0.167-0.385,0.356-0.612,0.488
			c0.35-1.086,0.861-2.12,1.462-3.088C49.72,19.584,50.764,18.44,52.158,17.932z"/>
		<path fill="#FFFFFF" d="M11.049,23.281c0.209-0.32,0.483-0.66,0.888-0.713c0.599-0.095,1.167,0.207,1.684,0.47
			c1.212,0.692,2.248,1.646,3.207,2.651c0.138,0.177,0.389,0.317,0.388,0.563c-0.001,1.416,0.001,2.832-0.002,4.249
			c0.01,0.148-0.129,0.236-0.212,0.339c-1.183,1.227-2.347,2.475-3.558,3.673c-0.697-0.182-1.367-0.494-1.951-0.92
			c-0.523-0.387-0.942-0.973-0.953-1.644c0.031-0.717,0.32-1.484,0.957-1.87c0.589-0.336,1.303-0.369,1.96-0.27
			c0.632,0.053,1.216,0.311,1.811,0.51c-0.035-0.831-0.12-1.658-0.165-2.487c-0.888-0.181-1.738-0.516-2.544-0.925
			c-0.742-0.418-1.523-0.928-1.856-1.75C10.461,24.521,10.685,23.821,11.049,23.281z"/>
		<path fill="#FFFFFF" d="M50.362,23.043c0.5-0.26,1.039-0.53,1.618-0.497c0.533,0.064,0.874,0.541,1.11,0.977
			c0.261,0.438,0.384,0.97,0.258,1.472c-0.139,0.53-0.534,0.944-0.948,1.281c-1.023,0.791-2.259,1.267-3.509,1.56
			c-0.063,0.827-0.1,1.656-0.164,2.483c0.904-0.349,1.869-0.656,2.85-0.535c0.576,0.063,1.169,0.323,1.481,0.834
			c0.399,0.632,0.549,1.498,0.171,2.174c-0.581,0.95-1.671,1.415-2.688,1.74c-1.237-1.313-2.512-2.591-3.744-3.908
			c-0.035-0.116-0.019-0.24-0.022-0.359c0.004-1.338-0.001-2.675,0.002-4.013c-0.021-0.131,0.076-0.222,0.153-0.312
			C47.952,24.845,49.057,23.798,50.362,23.043z"/>
		<path fill="#FFFFFF" d="M26.245,26.612c0.465-0.144,0.986,0.031,1.308,0.388c0.535,0.567,0.709,1.379,0.733,2.137
			c-0.009,1.155-0.38,2.357-1.216,3.182c-0.358,0.344-0.823,0.627-1.336,0.615c-0.475-0.023-0.89-0.337-1.139-0.727
			c-0.379-0.599-0.5-1.324-0.492-2.022c0.036-1.132,0.439-2.298,1.282-3.082C25.633,26.884,25.919,26.691,26.245,26.612z"/>
		<path fill="#FFFFFF" d="M37.009,26.63c0.549-0.201,1.141,0.067,1.555,0.432c0.81,0.696,1.202,1.76,1.317,2.798
			c0.065,0.692-0.029,1.407-0.31,2.045c-0.246,0.515-0.711,1.014-1.319,1.027c-0.733,0.001-1.336-0.53-1.74-1.095
			c-0.945-1.418-1.14-3.442-0.109-4.868C36.558,26.789,36.8,26.724,37.009,26.63z"/>
		<path fill="#FFFFFF" d="M16.216,40.01c0.148-0.044,0.303-0.069,0.457-0.049c0.834,0.168,1.545,0.663,2.208,1.17
			c3.33,3.21,7.797,5.199,12.401,5.597c1.373,0.099,2.744-0.121,4.083-0.408c3.526-0.781,6.856-2.485,9.502-4.951
			c0.674-0.635,1.479-1.138,2.362-1.42c0.545-0.061,1.136,0.258,1.289,0.805c0.148,0.571,0.081,1.242-0.325,1.697
			c-1.288,1.555-2.852,2.868-4.553,3.949c-0.68,0.4-1.321,0.877-2.062,1.164c-1.175,0.563-2.398,1.023-3.648,1.391
			c-3.436,0.965-7.108,1.085-10.594,0.313c-1.411-0.292-2.779-0.769-4.104-1.333c-1.004-0.433-1.959-0.97-2.903-1.517
			c-0.683-0.491-1.382-0.96-2.029-1.5c-0.472-0.383-0.909-0.806-1.382-1.187c-0.386-0.469-0.815-0.899-1.191-1.376
			c-0.318-0.413-0.379-0.971-0.286-1.471C15.52,40.483,15.822,40.132,16.216,40.01z"/>
		<path fill="#FFFFFF" d="M14.536,43.934l0.049-0.039c0.558,0.561,1.087,1.165,1.678,1.699c2.185,1.994,4.761,3.566,7.545,4.569
			c5.609,2.05,11.981,1.893,17.483-0.429c3.068-1.312,5.87-3.285,8.061-5.808c0.028-0.002,0.083-0.006,0.111-0.008
			c0.437,0.408,0.801,0.971,0.755,1.593c-0.045,0.702-0.526,1.261-0.964,1.771c-2.027,2.418-4.684,4.259-7.566,5.516
			c-3.355,1.449-7.04,2.116-10.69,1.975c-2.884-0.135-5.753-0.741-8.417-1.86c-2.995-1.252-5.747-3.146-7.845-5.637
			c-0.428-0.51-0.927-1.061-0.944-1.764C13.739,44.897,14.086,44.324,14.536,43.934z"/>
	</g>
</g>
</svg>
