<?xml version="1.0" encoding="utf-8"?>
<!-- Generator: Adobe Illustrator 22.0.0, SVG Export Plug-In . SVG Version: 6.00 Build 0)  -->
<svg version="1.1" id="Camada_1" xmlns="http://www.w3.org/2000/svg" xmlns:xlink="http://www.w3.org/1999/xlink" x="0px" y="0px"
	 width="64px" height="64px" viewBox="0 0 64 64" enable-background="new 0 0 64 64" xml:space="preserve">
<g>
	<g>
		<path fill="#3C3A40" d="M32.476,64c-0.41,0-0.82,0-1.23,0c-0.522-0.242-1.031-0.508-1.534-0.791
			c-3.886-2.19-7.777-4.371-11.669-6.552c-3.466-1.942-6.919-3.908-10.406-5.811c-2.537-1.384-4.232-3.366-4.796-6.243
			c0.004-0.047,0.012-0.094,0.012-0.141C2.852,30.146,2.851,15.83,2.848,1.513c0-0.22-0.013-0.441-0.02-0.661
			c0.045-0.479,0.294-0.77,0.777-0.849C3.73,0.007,3.856,0.014,3.982,0.014c18.602,0,37.204,0,55.807,0
			c0.142,0,0.283-0.009,0.425-0.014c0.84,0.31,0.899,0.394,0.901,1.282c0.007,2.267,0.016,4.534,0.023,6.801
			c0.012,4.03,0.022,8.06,0.034,12.09c0,1.767,0,3.534,0,5.301c0,1.388,0,2.777,0,4.165c0,1.483,0,2.966,0,4.449
			c-0.001,3.096-0.002,6.192-0.003,9.288c-0.205,2.276-1.041,4.255-2.699,5.869c-0.872,0.848-1.934,1.388-2.975,1.972
			c-3.072,1.723-6.137,3.458-9.209,5.181c-3.221,1.806-6.44,3.617-9.674,5.4C35.245,62.55,33.941,63.428,32.476,64z M31.934,1.612
			c-8.943,0-17.886-0.001-26.828,0.001c-0.753,0-0.684-0.1-0.684,0.679C4.42,16.029,4.413,29.767,4.427,43.505
			c0.002,2.356,1.165,4.12,3.104,5.342c1.516,0.956,3.117,1.776,4.681,2.655c2.483,1.396,4.966,2.793,7.45,4.187
			c1.688,0.947,3.381,1.887,5.069,2.835c2.182,1.225,4.359,2.459,6.545,3.677c0.409,0.228,0.855,0.217,1.27-0.002
			c0.626-0.331,1.242-0.681,1.86-1.028c2.744-1.542,5.486-3.088,8.231-4.628c1.935-1.086,3.875-2.164,5.812-3.248
			c2.266-1.269,4.52-2.558,6.797-3.806c1.333-0.73,2.524-1.587,3.292-2.944c0.708-1.251,1.044-2.599,1.04-4.023
			c-0.022-8.705-0.061-17.409-0.086-26.114c-0.014-4.732-0.012-9.463-0.017-14.195c-0.001-0.601-0.001-0.601-0.618-0.601
			C49.883,1.612,40.908,1.612,31.934,1.612z"/>
		<path fill="#E6B327" d="M31.934,1.612c8.974,0,17.949,0,26.923,0c0.616,0,0.617,0,0.618,0.601
			c0.005,4.732,0.003,9.463,0.017,14.195c0.025,8.705,0.065,17.409,0.086,26.114c0.004,1.424-0.333,2.772-1.04,4.023
			c-0.767,1.356-1.959,2.214-3.292,2.944c-2.277,1.247-4.532,2.537-6.797,3.806c-1.936,1.084-3.876,2.162-5.812,3.248
			c-2.745,1.54-5.487,3.086-8.231,4.628c-0.618,0.347-1.234,0.697-1.86,1.028c-0.415,0.219-0.861,0.23-1.27,0.002
			c-2.186-1.218-4.363-2.452-6.545-3.677c-1.688-0.948-3.38-1.888-5.069-2.835c-2.484-1.394-4.967-2.79-7.45-4.187
			c-1.564-0.879-3.165-1.699-4.681-2.655c-1.939-1.222-3.101-2.987-3.104-5.342C4.413,29.767,4.42,16.029,4.421,2.292
			c0-0.779-0.069-0.679,0.684-0.679C14.048,1.611,22.991,1.612,31.934,1.612z M58.109,36.248c0.006-2.404,0.016-4.807,0.017-7.211
			c0.001-1.398-0.013-2.796-0.02-4.194c0.006-2.885,0.007-5.77-0.032-8.655c-0.056-4.163-0.025-8.328-0.036-12.492
			c-0.002-0.755,0.091-0.648-0.656-0.648C40.505,3.046,23.629,3.046,6.752,3.046c-0.158,0-0.317,0.013-0.473-0.002
			C5.943,3.013,5.856,3.168,5.855,3.486C5.852,4.81,5.81,6.135,5.81,7.459C5.806,19.43,5.808,31.401,5.807,43.373
			c0,1.626,0.713,2.89,1.96,3.886c0.952,0.761,2.049,1.285,3.102,1.878c5.239,2.948,10.483,5.885,15.729,8.821
			c1.478,0.827,2.966,1.637,4.449,2.455c0.338,0.183,0.619,0.625,1.063,0.392c0.897-0.47,1.766-0.994,2.646-1.496
			c0.168-0.086,0.339-0.166,0.504-0.258c2.595-1.454,5.189-2.911,7.784-4.366c4.065-2.278,8.133-4.549,12.193-6.835
			c1.771-0.997,2.733-2.567,2.865-4.557C58.257,40.95,58.142,38.596,58.109,36.248z"/>
		<path fill="#393840" d="M31.046,60.413c-1.483-0.818-2.971-1.627-4.449-2.455c-5.245-2.936-10.49-5.873-15.729-8.821
			c-1.053-0.593-2.15-1.117-3.102-1.878c-1.246-0.996-1.96-2.26-1.96-3.886C5.808,31.401,5.806,19.43,5.81,7.459
			c0-1.324,0.042-2.648,0.045-3.973C5.856,3.168,5.943,3.013,6.28,3.045C6.436,3.06,6.595,3.046,6.752,3.046
			c16.876,0,33.753-0.001,50.629,0.002c0.747,0,0.654-0.107,0.656,0.648c0.011,4.164-0.02,8.328,0.036,12.492
			c0.039,2.885,0.038,5.77,0.032,8.655c-0.25-0.162-0.502-0.322-0.75-0.487c-1.378-0.916-2.799-1.744-4.396-2.23
			c-2.551-0.776-4.451-0.089-5.907,2.137c-0.614,0.939-1.061,1.961-1.516,2.98c-0.493,1.104-0.936,2.234-1.635,3.232
			c-1.094,1.561-2.398,1.938-4.147,1.164c-1.654-0.731-3.051-1.816-4.203-3.211c-0.329-0.398-0.659-0.801-0.863-1.306
			c0.524-0.004,0.979,0.229,1.517,0.108c-1.18-1.699-2.541-3.246-2.77-5.37c0.522,0.36,0.94,0.858,1.694,0.896
			c-0.103-0.207-0.172-0.36-0.253-0.507c-0.361-0.663-0.689-1.342-0.937-2.055c-0.274-0.79-0.523-1.6-0.383-2.444
			c0.115-0.695,0.29-1.384,0.494-2.059c0.406-1.343,0.298-2.637-0.267-3.906c-0.063-0.141-0.164-0.269-0.146-0.439
			c0.071-0.673,0.143-1.346,0.209-2.019c0.108-1.088,0.212-2.177,0.33-3.397c-0.283,0.268-0.477,0.445-0.663,0.631
			c-0.513,0.513-1.041,1.012-1.526,1.551c-0.304,0.338-0.497,0.358-0.772-0.029c-0.445-0.628-0.953-1.211-1.398-1.839
			c-0.235-0.331-0.367-0.276-0.577,0.009c-0.486,0.657-0.999,1.293-1.491,1.945c-0.178,0.236-0.314,0.281-0.544,0.038
			c-0.574-0.607-1.173-1.191-1.767-1.779c-0.139-0.137-0.259-0.305-0.493-0.398c-0.013,0.11-0.036,0.184-0.029,0.256
			c0.159,1.641,0.303,3.283,0.498,4.919c0.046,0.383-0.117,0.378-0.345,0.314c-0.467-0.132-0.938-0.094-1.407-0.076
			c-0.888,0.033-1.913,0.816-2.039,1.514c0.686,0.009,1.375-0.095,2.045,0.104c0,0.052-0.001,0.104-0.001,0.156
			c-0.53-0.061-0.544-0.038-0.389,0.465c0.178,0.573,0.483,1.046,1,1.37c0.477,0.299,0.477,0.401,0.01,0.742
			c-0.204,0.149-0.436,0.228-0.682,0.289c-0.451,0.112-0.906,0.083-1.362,0.088c-0.573,0.005-0.95,0.277-1.125,0.82
			c-0.231,0.715-0.037,1.354,0.353,1.96c0.35,0.543,0.897,0.797,1.533,1.015c-0.941,0.926-1.761,1.875-2.428,2.946
			c-1.871,3-2.63,6.232-1.716,9.69c0.834,3.157,2.064,6.179,3.679,9.029c0.487,0.86,1.189,1.509,2.172,1.758
			c0.708,0.18,1.188,0.605,1.536,1.216c0.217,0.38,0.441,0.757,0.644,1.145c0.811,1.549,1.519,3.156,2.613,4.542
			c0.059,0.074,0.154,0.155,0.106,0.291c-0.172,0.496-1.054,0.82-1.502,0.548c-0.341-0.207-0.601-0.505-0.88-0.782
			c-0.882-0.875-1.735-1.782-2.806-2.441c-0.777-0.479-1.573-0.555-2.41-0.165c-0.72,0.336-1.421,0.736-2.173,0.975
			c-1.351,0.429-1.337,1.873-0.999,2.791c0.278,0.754,0.912,1.254,1.564,1.709c0.239,0.166,0.346,0.091,0.381-0.142
			c0.036-0.244,0.096-0.266,0.353-0.224c0.212,0.034,0.389,0.139,0.671,0.206c-0.208-0.289,0.054-0.573-0.077-0.779
			c-0.289-0.454-0.328-0.963-0.453-1.458c-0.065-0.256,0.008-0.428,0.133-0.603c0.249-0.351,0.569-0.561,1.031-0.549
			c0.51,0.014,0.878,0.297,1.253,0.578c0.288,0.216,0.129,0.528,0.128,0.794c-0.003,0.933,0.238,1.79,0.744,2.571
			c0.114,0.176,0.213,0.382,0.496,0.449c-0.114-0.537-0.238-1.034-0.319-1.537c-0.064-0.398-0.148-0.846,0.247-1.122
			c0.283-0.198,0.997,0.113,1.27,0.494c0.082,0.114,0.155,0.235,0.241,0.347c0.471,0.614,0.981,1.193,1.608,1.652
			c0.524,0.384,1.1,0.558,1.763,0.437c0.919-0.168,1.571-0.731,2.179-1.401c0.427,0.715,0.662,1.491,0.69,2.308
			C32.819,57.186,32.188,58.888,31.046,60.413z"/>
		<path fill="#FEFEFE" d="M31.046,60.413c1.142-1.526,1.773-3.228,1.706-5.147c-0.028-0.817-0.263-1.593-0.69-2.308
			c-0.608,0.67-1.26,1.232-2.179,1.401c-0.664,0.121-1.24-0.053-1.763-0.437c-0.627-0.46-1.137-1.038-1.608-1.652
			c-0.086-0.112-0.159-0.233-0.241-0.347c-0.273-0.381-0.987-0.692-1.27-0.494c-0.395,0.276-0.311,0.724-0.247,1.122
			c0.081,0.504,0.206,1.001,0.319,1.537c-0.283-0.067-0.382-0.273-0.496-0.449c-0.507-0.781-0.747-1.638-0.744-2.571
			c0.001-0.266,0.16-0.578-0.128-0.794c-0.374-0.281-0.742-0.564-1.253-0.578c-0.462-0.013-0.782,0.198-1.031,0.549
			c-0.125,0.175-0.198,0.347-0.133,0.603c0.125,0.495,0.164,1.004,0.453,1.458c0.131,0.207-0.131,0.49,0.077,0.779
			c-0.282-0.067-0.459-0.172-0.671-0.206c-0.257-0.042-0.317-0.019-0.353,0.224c-0.035,0.233-0.142,0.309-0.381,0.142
			c-0.653-0.455-1.287-0.955-1.564-1.709c-0.338-0.918-0.352-2.362,0.999-2.791c0.752-0.239,1.453-0.639,2.173-0.975
			c0.836-0.39,1.633-0.314,2.41,0.165c1.071,0.659,1.924,1.566,2.806,2.441c0.279,0.276,0.538,0.574,0.88,0.782
			c0.448,0.272,1.33-0.052,1.502-0.548c0.047-0.136-0.047-0.216-0.106-0.291c-1.094-1.386-1.802-2.994-2.613-4.542
			c-0.203-0.388-0.427-0.764-0.644-1.145c-0.349-0.611-0.828-1.037-1.536-1.216c-0.983-0.249-1.685-0.898-2.172-1.758
			c-1.615-2.85-2.845-5.872-3.679-9.029c-0.914-3.458-0.154-6.69,1.716-9.69c0.668-1.071,1.487-2.02,2.428-2.946
			c-0.635-0.218-1.183-0.472-1.533-1.015c-0.391-0.607-0.584-1.245-0.353-1.96c0.175-0.543,0.553-0.815,1.125-0.82
			c0.455-0.004,0.911,0.025,1.362-0.088c0.245-0.061,0.477-0.14,0.682-0.289c0.466-0.34,0.466-0.442-0.01-0.742
			c-0.517-0.325-0.822-0.797-1-1.37c-0.156-0.503-0.141-0.526,0.389-0.465c0.73,0.249,1.395,0.623,2.036,1.048
			c0.097,0.064,0.187,0.22,0.346,0.105c-0.01,0.021-0.021,0.041-0.031,0.062c0.013,0.003,0.027,0.005,0.04,0.008
			c-0.007-0.021-0.015-0.043-0.022-0.064c-0.614-0.755-1.412-1.177-2.368-1.314c-0.67-0.199-1.36-0.095-2.045-0.104
			c0.126-0.698,1.151-1.481,2.039-1.514c0.469-0.017,0.94-0.056,1.407,0.076c0.228,0.064,0.391,0.069,0.345-0.314
			c-0.196-1.636-0.339-3.279-0.498-4.919c-0.007-0.072,0.015-0.146,0.029-0.256c0.234,0.093,0.354,0.261,0.493,0.398
			c0.594,0.588,1.193,1.171,1.767,1.779c0.23,0.243,0.365,0.198,0.544-0.038c0.492-0.652,1.006-1.288,1.491-1.945
			c0.211-0.285,0.342-0.341,0.577-0.009c0.445,0.628,0.952,1.211,1.398,1.839c0.275,0.387,0.468,0.368,0.772,0.029
			c0.484-0.539,1.013-1.038,1.526-1.551c0.186-0.186,0.38-0.362,0.663-0.631c-0.118,1.22-0.222,2.309-0.33,3.397
			c-0.067,0.673-0.138,1.346-0.209,2.019c-0.018,0.17,0.083,0.298,0.146,0.439c0.565,1.27,0.673,2.564,0.267,3.906
			c-0.204,0.675-0.379,1.364-0.494,2.059c-0.14,0.845,0.109,1.654,0.383,2.444c0.247,0.713,0.575,1.393,0.937,2.055
			c0.08,0.147,0.15,0.3,0.253,0.507c-0.754-0.038-1.171-0.536-1.694-0.896c0.229,2.124,1.59,3.671,2.77,5.37
			c-0.538,0.121-0.993-0.112-1.517-0.108c0.204,0.505,0.534,0.908,0.863,1.306c1.152,1.395,2.549,2.479,4.203,3.211
			c1.75,0.774,3.054,0.396,4.147-1.164c0.7-0.998,1.143-2.128,1.635-3.232c0.455-1.019,0.902-2.041,1.516-2.98
			c1.456-2.226,3.356-2.914,5.907-2.137c1.597,0.486,3.018,1.314,4.396,2.23c0.248,0.165,0.5,0.325,0.75,0.487
			c0.007,1.398,0.02,2.796,0.02,4.194c-0.001,2.404-0.011,4.807-0.016,7.211c-1.209-1.252-2.565-2.271-4.356-2.787
			c0.488,0.55,0.925,1.002,1.315,1.489c1.672,2.086,2.632,4.406,2.107,7.128c-0.436,2.259-1.654,4.078-3.375,5.577
			c-0.034-0.03-0.067-0.061-0.101-0.091c0.035-0.07,0.065-0.143,0.105-0.21c1.085-1.793,0.991-3.444-0.306-5.109
			c-0.176-0.226-0.34-0.483-0.681-0.601c-0.061,0.561-0.11,1.092-0.178,1.62c-0.201,1.549-0.532,3.062-1.379,4.406
			c-0.459,0.729-1.014,1.367-1.891,1.618c-0.023-0.027-0.047-0.054-0.07-0.082c0.366-0.444,0.601-0.943,0.706-1.516
			c0.163-0.894,0.13-1.787,0.021-2.679c-0.041-0.336-0.005-0.701-0.245-1.074c-0.295,1.009-0.645,1.915-1.528,2.601
			c0.029-0.516,0.063-0.955-0.071-1.376c-0.403-1.267-1.087-2.3-2.411-2.752c-0.466-0.159-0.845,0.004-0.986,0.453
			c-0.297,0.948-0.957,1.611-1.659,2.246c-1.967,1.781-4.184,3.218-6.422,4.624c-0.157,0.098-0.404,0.15-0.439,0.335
			c-0.134,0.716-0.607,1.345-0.357,2.168c0.322,1.057,0.307,2.11-0.345,3.119c-0.552,0.854-0.902,1.825-1.23,2.793
			c-0.249,0.734-0.25,0.733,0.424,1.161c-0.88,0.502-1.749,1.026-2.646,1.496C31.665,61.038,31.384,60.596,31.046,60.413z"/>
		<path fill="#3A3941" d="M34.755,59.309c-0.674-0.428-0.672-0.427-0.424-1.161c0.328-0.968,0.678-1.938,1.23-2.793
			c0.652-1.009,0.667-2.062,0.345-3.119c-0.25-0.823,0.223-1.451,0.357-2.168c0.035-0.185,0.282-0.237,0.439-0.335
			c2.238-1.406,4.455-2.842,6.422-4.624c0.701-0.635,1.362-1.298,1.659-2.246c0.141-0.45,0.52-0.612,0.986-0.453
			c1.325,0.452,2.008,1.485,2.411,2.752c0.134,0.421,0.101,0.86,0.071,1.376c0.883-0.686,1.233-1.593,1.528-2.601
			c0.239,0.373,0.203,0.738,0.245,1.074c0.11,0.891,0.142,1.784-0.021,2.679c-0.104,0.573-0.34,1.071-0.706,1.516
			c-0.041,0.031-0.082,0.062-0.122,0.092c0.067,0.055,0.13,0.029,0.192-0.011c0.877-0.25,1.432-0.889,1.891-1.618
			c0.846-1.344,1.178-2.857,1.379-4.406c0.069-0.528,0.117-1.059,0.178-1.62c0.341,0.118,0.505,0.375,0.681,0.601
			c1.297,1.665,1.391,3.317,0.306,5.109c-0.04,0.067-0.07,0.14-0.105,0.21c-0.029,0.043-0.057,0.086-0.086,0.129
			c0.072,0.036,0.136,0.031,0.187-0.038c1.721-1.498,2.938-3.318,3.375-5.577c0.526-2.722-0.434-5.041-2.107-7.128
			c-0.391-0.487-0.827-0.939-1.315-1.489c1.791,0.516,3.146,1.535,4.356,2.787c0.033,2.349,0.148,4.702-0.008,7.046
			c-0.132,1.99-1.094,3.56-2.865,4.557c-4.06,2.285-8.129,4.557-12.193,6.835c-2.595,1.454-5.189,2.911-7.784,4.366
			C35.095,59.143,34.924,59.223,34.755,59.309z"/>
		<path fill="#57565E" d="M23.671,13.089c0.956,0.137,1.754,0.56,2.368,1.314l0.013-0.006c-0.16,0.115-0.249-0.041-0.346-0.105
			c-0.641-0.424-1.306-0.799-2.036-1.048C23.67,13.192,23.671,13.14,23.671,13.089z"/>
		<path fill="#57565E" d="M26.039,14.403c0.007,0.021,0.015,0.043,0.022,0.064c-0.013-0.003-0.027-0.005-0.04-0.008
			c0.01-0.021,0.021-0.042,0.031-0.062C26.052,14.397,26.039,14.403,26.039,14.403z"/>
		<path fill="#FEFEFE" d="M53.801,47.654c-0.051,0.069-0.114,0.074-0.187,0.038c0.029-0.043,0.057-0.086,0.086-0.129
			C53.734,47.593,53.767,47.624,53.801,47.654z"/>
		<path fill="#FEFEFE" d="M49.37,49.287c-0.062,0.039-0.125,0.065-0.192,0.011c0.041-0.031,0.082-0.062,0.122-0.092
			C49.323,49.233,49.346,49.26,49.37,49.287z"/>
	</g>
</g>
</svg>
