<?xml version="1.0" encoding="utf-8"?>
<!-- Generator: Adobe Illustrator 22.0.0, SVG Export Plug-In . SVG Version: 6.00 Build 0)  -->
<svg version="1.1" id="Laag_1" xmlns="http://www.w3.org/2000/svg" xmlns:xlink="http://www.w3.org/1999/xlink" x="0px" y="0px"
	 width="64px" height="64px" viewBox="0 0 64 64" enable-background="new 0 0 64 64" xml:space="preserve">
<g>
	<circle id="Outline" fill="#FFFFFF" cx="32" cy="32" r="32"/>
	<path fill="#0050A0" d="M32,0.625C14.672,0.625,0.625,14.672,0.625,32S14.672,63.375,32,63.375S63.375,49.328,63.375,32
		S49.328,0.625,32,0.625z M55.361,35.785c-0.04,0.031-0.08,0.06-0.12,0.087l-0.79,0.537l0.641,0.707
		c0.11,0.121,0.206,0.255,0.287,0.398l0.109,0.193l-0.146,1.236l-0.44,1.837l-0.007,0.045c-0.007,0.045-0.167,1.13-0.915,2.457
		c-0.976,1.733-2.45,3.024-4.383,3.837l-2.632,1.109c-1.88,1.738-4.021,3.121-6.375,4.116c-2.716,1.148-5.606,1.731-8.59,1.731
		s-5.874-0.583-8.59-1.731c-2.627-1.111-4.989-2.704-7.02-4.734c-0.421-0.421-0.824-0.857-1.207-1.307
		c-0.446,0.434-0.884,0.893-1.269,1.312c0.011-0.814,0.113-1.504,0.222-2.019l0.007-0.033l0.004-0.034
		c0.016-0.121,0.047-0.262,0.091-0.413c-0.71-0.958-1.339-1.97-1.884-3.032c-0.551,0.602-1.089,1.263-1.612,1.987l-1.932,2.675
		l0.719-3.221c0.003-0.013,0.311-1.362,1.381-3.151l0.396-0.663c-0.169-0.452-0.322-0.908-0.46-1.369
		c-1.168,1.285-2.26,2.672-2.473,3.564c0,0-0.037-0.238-0.037-0.613c0-0.277,0.02-0.628,0.089-1.015
		c0.049-0.364,0.096-0.623,0.129-0.784l0.263-0.943c0.371-1.196,0.812-2.349,1.32-3.453C9.996,34.08,9.925,33.045,9.925,32
		c0-2.984,0.583-5.874,1.731-8.59c1.111-2.627,2.704-4.989,4.734-7.02s4.392-3.623,7.02-4.734c2.716-1.149,5.606-1.731,8.59-1.731
		c2.984,0,5.874,0.582,8.59,1.731c2.627,1.111,4.989,2.704,7.02,4.734c2.03,2.03,3.623,4.392,4.734,7.02
		c0.632,1.495,1.093,3.043,1.379,4.63c1.106,0.52,2.084,0.979,2.104,0.988l0.518,0.244l-0.152,0.551
		c-0.01,0.038-0.071,0.239-0.256,0.475l-0.411,0.531l0.433,0.513c0.116,0.138,0.268,0.356,0.332,0.61
		c0.049,0.193,0.202,0.884,0.144,1.642C56.363,34.537,55.991,35.295,55.361,35.785z"/>
	<path id="Line" fill="#FFFFFF" d="M57.328,21.3c-0.262-0.619-0.545-1.227-0.85-1.822c-0.131,0.054-0.265,0.109-0.399,0.163
		c1.91,3.707,2.989,7.909,2.989,12.358c0,9.996-5.446,18.743-13.527,23.432l0.199,0.383c2.074-1.197,3.981-2.662,5.697-4.377
		c2.524-2.525,4.506-5.464,5.891-8.738c1.434-3.389,2.161-6.989,2.161-10.7S58.762,24.689,57.328,21.3z M4.931,32
		c0-6.73,2.468-12.893,6.548-17.633l-0.307-0.307c-1.871,2.167-3.381,4.595-4.5,7.241C5.238,24.689,4.511,28.289,4.511,32
		s0.727,7.311,2.161,10.7c1.384,3.273,3.366,6.213,5.891,8.738c1.678,1.677,3.538,3.115,5.558,4.296
		c0.067-0.121,0.138-0.248,0.211-0.377C10.32,50.651,4.931,41.943,4.931,32z"/>
	<g>
		<path fill="#FFFFFF" d="M12.009,10.677l0.67-0.579l2.03,2.348l1.451-1.255l0.472,0.545l-2.12,1.834L12.009,10.677z"/>
		<path fill="#FFFFFF" d="M17.303,11.041c-0.361,0.028-0.698-0.035-1.012-0.191c-0.314-0.155-0.572-0.391-0.775-0.707
			s-0.31-0.649-0.32-0.999c-0.011-0.35,0.072-0.683,0.248-1c0.176-0.316,0.431-0.581,0.765-0.796
			c0.334-0.215,0.681-0.335,1.04-0.362c0.359-0.027,0.697,0.037,1.012,0.191c0.316,0.155,0.575,0.389,0.778,0.706
			c0.203,0.316,0.308,0.649,0.317,1.001c0.009,0.352-0.073,0.685-0.248,1c-0.174,0.316-0.428,0.58-0.763,0.794
			C18.011,10.891,17.664,11.013,17.303,11.041z M18.369,9.581c0.097-0.186,0.139-0.385,0.126-0.598
			c-0.013-0.212-0.083-0.418-0.211-0.617c-0.128-0.199-0.286-0.349-0.473-0.449c-0.188-0.1-0.386-0.145-0.596-0.134
			c-0.209,0.011-0.409,0.077-0.599,0.2c-0.19,0.122-0.334,0.276-0.431,0.461c-0.097,0.186-0.139,0.385-0.126,0.597
			c0.013,0.212,0.083,0.418,0.211,0.617c0.128,0.199,0.286,0.349,0.473,0.449s0.386,0.145,0.596,0.134
			c0.209-0.011,0.409-0.077,0.599-0.2C18.128,9.921,18.272,9.767,18.369,9.581z"/>
		<path fill="#FFFFFF" d="M24.191,3.687l0.229,4.017l-0.886,0.346l-1.727-2.105l0.135,2.729l-0.881,0.344l-2.564-3.104l0.855-0.335
			l1.784,2.189l-0.14-2.832l0.763-0.299l1.802,2.206l-0.158-2.848L24.191,3.687z"/>
		<path fill="#FFFFFF" d="M25.04,3.607l0.868-0.175l0.612,3.043l1.88-0.379l0.142,0.707l-2.748,0.553L25.04,3.607z"/>
		<path fill="#FFFFFF" d="M31.275,5.795l-1.772,0.108l-0.289,0.839l-0.905,0.055l1.469-3.921l0.873-0.053l1.939,3.714l-0.927,0.056
			L31.275,5.795z M30.956,5.141l-0.694-1.425l-0.517,1.499L30.956,5.141z"/>
		<path fill="#FFFFFF" d="M36.555,3.098l-0.366,3.807l-0.724-0.07L33.79,4.341l-0.223,2.312l-0.87-0.083l0.366-3.807l0.729,0.07
			l1.67,2.494l0.223-2.312L36.555,3.098z"/>
		<path fill="#FFFFFF" d="M37.761,3.309l1.68,0.445c0.401,0.106,0.736,0.277,1.003,0.512c0.268,0.235,0.45,0.514,0.547,0.838
			c0.097,0.323,0.097,0.67-0.001,1.04c-0.098,0.37-0.269,0.671-0.514,0.904c-0.245,0.233-0.541,0.385-0.89,0.457
			c-0.349,0.071-0.724,0.054-1.125-0.052l-1.679-0.445L37.761,3.309z M38.605,6.738c0.37,0.098,0.692,0.073,0.967-0.075
			c0.275-0.148,0.458-0.398,0.552-0.75c0.094-0.352,0.057-0.661-0.109-0.925c-0.166-0.265-0.433-0.445-0.803-0.544l-0.782-0.207
			l-0.607,2.293L38.605,6.738z"/>
		<path fill="#FFFFFF" d="M42.356,4.659l0.814,0.347l-1.216,2.855l1.765,0.752l-0.283,0.664l-2.579-1.099L42.356,4.659z"/>
		<path fill="#FFFFFF" d="M45.519,6.101l0.778,0.422l-1.822,3.363l-0.778-0.422L45.519,6.101z"/>
		<path fill="#FFFFFF" d="M45.846,10.467c-0.162-0.323-0.23-0.66-0.203-1.01c0.026-0.35,0.147-0.677,0.364-0.984
			c0.217-0.307,0.485-0.53,0.805-0.672c0.32-0.142,0.661-0.19,1.019-0.146c0.359,0.044,0.701,0.181,1.025,0.409
			c0.325,0.229,0.566,0.505,0.727,0.827c0.16,0.323,0.228,0.659,0.203,1.01c-0.025,0.35-0.145,0.679-0.361,0.986
			c-0.217,0.307-0.485,0.53-0.808,0.671c-0.322,0.14-0.662,0.19-1.02,0.146c-0.358-0.043-0.698-0.179-1.023-0.408
			C46.251,11.067,46.008,10.791,45.846,10.467z M47.6,10.906c0.209,0.02,0.409-0.016,0.601-0.107
			c0.192-0.092,0.356-0.235,0.493-0.428c0.137-0.193,0.216-0.396,0.238-0.608c0.022-0.212-0.011-0.412-0.1-0.602
			c-0.089-0.19-0.226-0.35-0.41-0.48c-0.185-0.13-0.381-0.205-0.59-0.226c-0.209-0.02-0.409,0.016-0.601,0.107
			c-0.192,0.092-0.356,0.235-0.493,0.428c-0.137,0.193-0.216,0.396-0.238,0.608c-0.022,0.212,0.011,0.412,0.1,0.602
			c0.089,0.19,0.226,0.35,0.41,0.48C47.195,10.81,47.391,10.886,47.6,10.906z"/>
		<path fill="#FFFFFF" d="M53.764,12.448l-2.688,2.721l-0.517-0.511l0.275-2.992l-1.632,1.652l-0.622-0.614l2.688-2.721l0.521,0.515
			l-0.279,2.989l1.632-1.652L53.764,12.448z"/>
		<path fill="#FFFFFF" d="M51.749,15.939c-0.105-0.275-0.157-0.52-0.156-0.735l0.713-0.163c0.003,0.203,0.044,0.417,0.122,0.641
			c0.078,0.224,0.185,0.426,0.322,0.606c0.152,0.2,0.294,0.326,0.426,0.377c0.132,0.051,0.248,0.039,0.346-0.036
			c0.073-0.055,0.112-0.129,0.116-0.222c0.005-0.093-0.011-0.194-0.05-0.305c-0.038-0.11-0.097-0.254-0.176-0.432
			c-0.121-0.274-0.21-0.506-0.267-0.696c-0.057-0.19-0.065-0.384-0.023-0.583c0.041-0.199,0.164-0.374,0.367-0.529
			c0.177-0.134,0.374-0.208,0.59-0.221c0.216-0.013,0.44,0.045,0.67,0.175c0.23,0.129,0.451,0.333,0.662,0.612
			c0.148,0.194,0.268,0.403,0.362,0.623c0.094,0.221,0.151,0.434,0.169,0.64l-0.701,0.188c-0.054-0.403-0.187-0.745-0.401-1.027
			c-0.149-0.197-0.292-0.319-0.427-0.365c-0.136-0.046-0.256-0.029-0.36,0.05c-0.104,0.079-0.141,0.193-0.109,0.34
			c0.032,0.148,0.107,0.352,0.227,0.613c0.121,0.274,0.21,0.506,0.267,0.696s0.066,0.383,0.028,0.579
			c-0.039,0.196-0.16,0.371-0.363,0.525c-0.174,0.132-0.37,0.204-0.587,0.215c-0.218,0.011-0.442-0.048-0.674-0.179
			c-0.232-0.131-0.453-0.335-0.664-0.614C51.998,16.471,51.855,16.214,51.749,15.939z"/>
	</g>
	<g>
		<path fill="#FFFFFF" d="M22.109,57.137l-0.736,0.332l-0.29,0.746l-0.413-0.16l1.12-2.888l0.413,0.16l-0.625,1.613l2.193-1.005
			l0.47,0.182l-1.737,0.821l0.696,2.097l-0.482-0.187L22.109,57.137z"/>
		<path fill="#FFFFFF" d="M25.815,58.922l-1.593-0.415l-0.524,0.664l-0.441-0.115l2.137-2.644l0.424,0.11l0.582,3.351l-0.449-0.117
			L25.815,58.922z M25.755,58.54l-0.265-1.637l-1.028,1.301L25.755,58.54z"/>
		<path fill="#FFFFFF" d="M29.16,59.474l-1.631-0.217l-0.44,0.723l-0.452-0.06l1.798-2.885l0.434,0.058l0.987,3.255l-0.461-0.061
			L29.16,59.474z M29.052,59.102L28.59,57.51l-0.862,1.417L29.052,59.102z"/>
		<path fill="#FFFFFF" d="M33.856,58.767l0.424-0.015l0.043,1.207c-0.149,0.133-0.323,0.236-0.524,0.311
			c-0.201,0.075-0.412,0.116-0.633,0.124c-0.313,0.011-0.596-0.047-0.852-0.176c-0.256-0.128-0.459-0.31-0.61-0.545
			c-0.151-0.235-0.233-0.503-0.243-0.804c-0.011-0.301,0.051-0.574,0.185-0.821c0.134-0.247,0.325-0.442,0.572-0.587
			c0.247-0.145,0.529-0.223,0.844-0.233c0.248-0.009,0.474,0.024,0.679,0.098c0.205,0.074,0.38,0.187,0.527,0.338l-0.265,0.284
			c-0.256-0.23-0.56-0.339-0.91-0.326c-0.236,0.008-0.446,0.067-0.629,0.175c-0.184,0.109-0.325,0.255-0.425,0.44
			s-0.146,0.391-0.137,0.618c0.008,0.224,0.068,0.425,0.181,0.602c0.113,0.178,0.264,0.314,0.455,0.411
			c0.191,0.097,0.403,0.141,0.635,0.133c0.277-0.01,0.517-0.085,0.718-0.224L33.856,58.767z"/>
		<path fill="#FFFFFF" d="M37.525,59.477l0.059,0.38l-2.221,0.344l-0.474-3.061l2.16-0.335l0.059,0.38l-1.723,0.267l0.146,0.94
			l1.535-0.238l0.058,0.371l-1.535,0.238l0.153,0.988L37.525,59.477z"/>
		<path fill="#FFFFFF" d="M40.19,55.965l0.843,2.98l-0.349,0.099l-2.417-1.716l0.629,2.222l-0.425,0.121l-0.843-2.98l0.349-0.099
			l2.417,1.716l-0.629-2.222L40.19,55.965z"/>
		<path fill="#FFFFFF" d="M41.607,55.813l-0.982,0.406l-0.147-0.356l2.368-0.978l0.147,0.356l-0.982,0.405l1.035,2.507l-0.405,0.167
			L41.607,55.813z"/>
	</g>
	<g>
		<path fill="#0050A0" d="M9.254,39.476C13.2,25.509,25.037,22.377,25.037,22.377c-1.19-0.689-3.821-0.313-3.821-0.313
			c7.077-8.831,13.09-5.324,13.09-5.324l6.451,3.257c-0.376-1.002-1.628-2.067-3.007-2.944c-1.378-0.877-0.251-1.315-0.251-1.315
			c3.883-1.127,8.079,6.764,8.079,6.764c-2.944-1.628-6.827-1.754-6.827-1.754c-9.207-7.265-11.085,3.32-11.085,3.32
			C14.515,27.702,9.254,39.476,9.254,39.476z M54.787,37.848l-0.125,1.065c0,0-3.069-1.127-5.637,0.94l0.94,0.251v1.253
			c0-0.062,1.566-0.752,1.566-0.752l0.689,1.691l2.005-1.566c0,0-0.564,3.946-4.885,5.762c0,0,0.877-1.503,0.125-3.132
			c0,0-1.253,2.38-4.572,2.255c0,0,1.002-0.752,0.814-2.192c0,0-3.069,1.566-7.077,0.626c0,0,5.637-0.814,5.324-4.071l-5.073-4.322
			l-2.317,1.754l1.942-0.439l2.568,1.942c0,0-5.637,10.021-16.222,7.454c0,0,7.766,0.313,10.209-6.263c0,0-3.758,2.819-10.021,2.129
			c-6.263-0.689-10.084,3.32-10.209,3.445c-0.125,0.125,0.752-4.948,8.581-5.324c0,0,5.197,0.188,7.765-5.447
			c-0.037,0.052-0.752,0.992-3.068,0.687c-2.38-0.313-11.399-0.94-17.913,8.079c0,0,1.942-8.706,14.468-11.65
			c0,0-4.07-1.065-8.016,1.628c0.052-0.074,3.507-5.007,11.774-4.634c0,0,2.067,0.313,3.445-1.441s3.758-4.071,3.758-4.071
			s0.814-0.626-1.002-1.19c-1.816-0.564-3.194,0.188-3.445,0.877c-0.251,0.689-0.188,0.626,0.501,0.501
			c0.689-0.125,1.253,0.125,0.752,1.19c-0.501,1.065-2.317,1.503-2.881,0.313s-0.062-2.568,1.754-4.071
			c1.816-1.503,4.572-0.94,6.389,0.752c0,0,3.445-0.501,6.138,1.441c0,0,1.253,0.94,3.132,1.002c1.879,0.062,3.32,0.439,4.259,1.253
			c0,0,0.689,0.501-0.251,0.564c0,0-0.752-0.062-0.877-0.125c-0.125-0.063-0.439-0.125-0.501,0.125s-0.062,0.689,0.877,1.127
			c0.939,0.439,5.073,2.38,5.073,2.38s-0.501,1.816-5.574,0.626c0,0-0.626-0.251-0.125-0.814c0,0,0.125-0.125,0.439-0.062
			c0.313,0.062,2.129,0.752,3.069,0.501c0,0,0.564-0.125,0.125-0.313c-0.439-0.188-2.756-1.127-4.823-0.313
			c-2.067,0.814,1.441,3.007,2.317,3.257c0,0,0.188,0.062,0.501,0.501c0.313,0.439,0.564,0.626,0.564,0.626s0.752,0.689-0.062,1.566
			c-0.814,0.877-3.007,1.127-3.007,1.127l-5.01,1.19l1.002,1.065c0,0,0.125,0.188,0.814,0
			C46.457,38.412,53.409,35.405,54.787,37.848z M47.083,28.265c-0.02-0.027-0.695-0.885-1.127-1.44
			c-0.439-0.564,0.188-0.564,0.814-0.689c0.626-0.125,0.877-0.626,0.251-1.19c-0.626-0.564-1.441-0.376-1.691-0.125
			c-0.251,0.251-0.689,0.376-0.689,0.376s-1.315,0.251-2.881-1.378c-1.566-1.628-3.257-0.062-3.257-0.062l-2.881,2.819
			c0,0-0.125,0.188,1.754-0.501c1.879-0.689,2.63,0.94,2.63,0.94s0.877,1.691,3.132,0.94C45.366,27.209,47.045,28.241,47.083,28.265
			z M40.413,25.416c0,0,0.689,1.691,2.756,0.94C43.169,26.355,41.791,24.789,40.413,25.416z M47.178,22.284
			c-0.125,0.439,0.188,0.439,0.188,0.439c0.94,0.814,0.877-0.814,0.877-0.814c-0.251-3.007-2.005-3.883-2.63-4.196
			c-0.626-0.313-0.689-0.188-0.689,0.062c0,0.251,1.691,2.881,1.691,2.881S47.303,21.845,47.178,22.284z M49.808,23.537
			c0,0,0.752,0.251,1.19,0.626s0.376,0,0.376,0c0.439-1.19-0.501-1.942-1.19-2.443c-0.689-0.501-0.689,1.065-0.689,1.065
			C49.369,23.286,49.808,23.537,49.808,23.537z M55.633,32.118c-0.125-0.501-1.253-1.315-1.065-0.062
			c0.188,1.253-0.752,1.816-0.752,1.816c-0.689,0.626,0,2.255,1.127,1.378C56.071,34.372,55.758,32.619,55.633,32.118z"/>
	</g>
</g>
</svg>
