<?xml version="1.0" encoding="utf-8"?>
<!-- Generator: Adobe Illustrator 16.0.0, SVG Export Plug-In . SVG Version: 6.00 Build 0)  -->
<!DOCTYPE svg PUBLIC "-//W3C//DTD SVG 1.1//EN" "http://www.w3.org/Graphics/SVG/1.1/DTD/svg11.dtd">
<svg version="1.1" id="Layer_1" xmlns="http://www.w3.org/2000/svg" xmlns:xlink="http://www.w3.org/1999/xlink" x="0px" y="0px"
	 width="64px" height="64px" viewBox="0 0 64 64" enable-background="new 0 0 64 64" xml:space="preserve">
<g>
	<g>
		<path fill-rule="evenodd" clip-rule="evenodd" fill="none" d="M5.345,64c0-21.333,0-42.667,0-64c17.771,0,35.54,0,53.311,0
			c0,21.333,0,42.667,0,64C40.885,64,23.115,64,5.345,64z M8.816,10.898c-0.022,0.004-0.045,0.008-0.067,0.012
			c-0.024,0.019-0.049,0.037-0.073,0.056c-0.072,0.069-0.143,0.139-0.214,0.208c-0.036,0.022-0.072,0.043-0.108,0.065
			c0.009,0.015,0.019,0.029,0.028,0.043c0.052-0.036,0.104-0.072,0.156-0.108c0.047-0.044,0.093-0.089,0.14-0.133
			c0.023-0.024,0.046-0.049,0.069-0.074C8.77,10.944,8.792,10.921,8.816,10.898c0.022-0.005,0.045-0.01,0.068-0.014
			c0.047-0.039,0.094-0.079,0.141-0.118c0.024-0.023,0.047-0.047,0.071-0.07c0.026-0.02,0.052-0.039,0.077-0.058
			c0.024,0.004,0.043-0.004,0.057-0.025c0.098-0.064,0.195-0.128,0.292-0.192c0.46-0.211,0.905-0.475,1.384-0.625
			c3.255-1.019,6.565-1.718,10.005-1.59c0.099,0.003,0.263-0.033,0.292-0.097c0.213-0.477,0.399-0.965,0.621-1.52
			c-0.994,0.05-1.906,0.076-2.814,0.147c-1.882,0.147-3.731,0.479-5.52,1.102c-1.536,0.535-2.938,1.285-4.06,2.492
			c-0.068,0.064-0.137,0.129-0.206,0.194c-0.025,0.03-0.05,0.059-0.075,0.089c-0.023-0.006-0.042,0.001-0.054,0.022
			c-0.025,0.018-0.05,0.035-0.075,0.053c-0.046,0.045-0.093,0.09-0.14,0.136C8.86,10.847,8.838,10.873,8.816,10.898z M11.114,28.672
			c-0.009,0.039-0.017,0.078-0.025,0.118c0.171,0.002,0.343,0.005,0.515,0.007c0.92,0.093,1.843,0.157,2.758,0.286
			c2.265,0.319,4.545,0.572,6.783,1.028c3.035,0.619,6.014,0.52,8.996-0.238c1.769-0.45,3.406-1.216,5.063-1.959
			c3.499-1.57,7.236-2.283,11-2.858c1.141-0.174,2.287-0.3,3.446-0.451c0-0.056,0.006-0.111-0.001-0.165
			c-0.202-1.591-0.727-3.078-1.493-4.479c-1.494-2.73-3.634-4.85-6.219-6.547c-4.125-2.709-8.604-4.661-13.26-6.243
			c-0.058-0.02-0.123-0.018-0.202-0.028c0.045,0.493,0.102,0.951,0.125,1.411c0.013,0.252,0.11,0.378,0.345,0.482
			c2.534,1.125,5.071,2.242,7.587,3.405c2.257,1.044,4.356,2.346,6.161,4.079c1.461,1.402,2.665,2.98,3.282,4.944
			c0.071,0.225,0.117,0.457,0.181,0.709c-0.468,0.049-0.882,0.079-1.292,0.137c-3.044,0.428-6.003,1.212-8.879,2.277
			c-1.947,0.721-3.846,1.578-5.76,2.39c-2.132,0.905-4.351,1.258-6.646,0.999c-1.796-0.203-3.584-0.329-5.394-0.223
			c-2.221,0.129-4.416,0.416-6.594,0.855C11.432,28.629,11.273,28.651,11.114,28.672z M19.431,62.54
			c0.026-0.104,0.073-0.209,0.075-0.314c0.007-0.481-0.004-0.962,0.003-1.443c0.002-0.153,0.042-0.307,0.063-0.46
			c0.419,0.579,0.834,1.161,1.26,1.735c0.062,0.084,0.171,0.197,0.251,0.191c0.269-0.02,0.534-0.087,0.776-0.131
			c0-1.415,0-2.781,0-4.172c-0.292,0.052-0.554,0.091-0.812,0.148c-0.056,0.013-0.098,0.091-0.146,0.14
			c-0.007,0.473-0.008,0.946-0.022,1.419c-0.005,0.2-0.037,0.398-0.056,0.599c-0.394-0.585-0.783-1.173-1.186-1.751
			c-0.047-0.068-0.17-0.131-0.249-0.121c-0.317,0.036-0.63,0.103-0.92,0.153c0,1.41,0,2.779,0,4.175
			C18.817,62.647,19.124,62.594,19.431,62.54z M47.963,55.396c0.442,0.62,0.882,1.242,1.333,1.857
			c0.051,0.069,0.167,0.138,0.245,0.13c0.249-0.024,0.496-0.085,0.755-0.134c0-1.388,0-2.759,0-4.172
			c-0.346,0.061-0.667,0.116-0.998,0.175c0,0.159,0,0.274,0,0.389c-0.007,0.261-0.009,0.521-0.021,0.782
			c-0.015,0.3-0.039,0.599-0.059,0.898c-0.372-0.543-0.738-1.09-1.119-1.626c-0.063-0.088-0.195-0.189-0.287-0.182
			c-0.317,0.026-0.63,0.098-0.936,0.15c0,1.407,0,2.776,0,4.175c0.302-0.052,0.575-0.087,0.843-0.153
			c0.067-0.017,0.111-0.131,0.166-0.2c0.006-0.427,0.007-0.854,0.021-1.28C47.914,55.936,47.942,55.665,47.963,55.396z
			 M7.429,13.546c0.995-0.094,1.995-0.104,2.961,0.15c0.732,0.192,1.431,0.51,2.148,0.761c0.863,0.303,1.732,0.567,2.667,0.499
			c1.449-0.106,2.674-0.746,3.812-1.591c0.083-0.062,0.175-0.177,0.178-0.27c0.016-0.584,0.008-1.169,0.008-1.807
			c-0.14,0.088-0.229,0.154-0.326,0.205c-0.713,0.374-1.402,0.813-2.149,1.101c-1.227,0.473-2.504,0.574-3.751,0.05
			c-0.917-0.385-1.851-0.451-2.817-0.318c-1.031,0.142-1.927,0.612-2.8,1.142c-0.033,0.035-0.065,0.069-0.099,0.104
			C7.318,13.563,7.374,13.555,7.429,13.546z M5.972,23.748c0.219-0.017,0.438-0.042,0.657-0.049c1.529-0.045,3.008,0.129,4.42,0.795
			c1.108,0.523,2.272,0.927,3.526,0.919c1.85-0.011,3.375-0.845,4.792-1.933c0.059-0.044,0.127-0.124,0.128-0.188
			c0.009-0.72,0.005-1.44,0.005-2.094c-0.897,0.467-1.757,0.994-2.678,1.374c-1.439,0.594-2.947,0.757-4.422,0.138
			c-1.25-0.524-2.498-0.577-3.798-0.294c-1.016,0.221-1.882,0.747-2.754,1.268c-0.022,0.027-0.045,0.054-0.068,0.082
			C5.844,23.76,5.908,23.754,5.972,23.748z M12.715,40.547c-0.039,0.024-0.078,0.049-0.117,0.072
			c0.009,0.021,0.017,0.042,0.026,0.063c0.073-0.022,0.146-0.044,0.22-0.066c0.739-0.024,1.479-0.08,2.218-0.067
			c1.846,0.033,3.651,0.281,5.392,0.966c1.432,0.563,2.921,0.971,4.462,1.092c2.944,0.231,5.536-0.796,7.966-2.338
			c0.091-0.058,0.16-0.221,0.163-0.336c0.017-0.601,0.008-1.202,0.008-1.804c0-0.234,0-0.468,0-0.74
			c-0.485,0.267-0.903,0.509-1.333,0.729c-1.85,0.95-3.792,1.578-5.887,1.666c-1.307,0.055-2.566-0.14-3.812-0.568
			c-1.796-0.619-3.635-0.524-5.477-0.158C15.176,39.328,13.953,39.95,12.715,40.547z M8.751,34.435
			c-0.06,0.026-0.12,0.053-0.18,0.079c0.007,0.025,0.014,0.05,0.021,0.074c0.193-0.025,0.387-0.052,0.58-0.077
			c0.243-0.007,0.485-0.013,0.729-0.02c2.144-0.064,4.28,0.01,6.375,0.507c1.335,0.317,2.644,0.746,3.978,1.072
			c1.807,0.442,3.642,0.639,5.501,0.412c2.404-0.292,4.645-1.091,6.783-2.207c0.229-0.12,0.339-0.251,0.329-0.53
			c-0.023-0.704-0.007-1.41-0.009-2.115c0-0.097-0.014-0.193-0.023-0.318c-0.138,0.066-0.241,0.114-0.343,0.165
			c-1.944,0.972-3.975,1.684-6.126,2.025c-2.076,0.33-4.151,0.368-6.183-0.242c-2.222-0.668-4.459-0.673-6.725-0.323
			C11.808,33.19,10.273,33.789,8.751,34.435z M9.174,46.659c2.152-0.08,4.307-0.096,6.424,0.344c1.297,0.269,2.564,0.683,3.85,1.007
			c2.208,0.558,4.435,0.904,6.723,0.585c2.375-0.332,4.591-1.125,6.698-2.247c0.089-0.048,0.207-0.154,0.209-0.235
			c0.015-0.874,0.009-1.748,0.009-2.667c-0.118,0.055-0.188,0.086-0.258,0.12c-2.314,1.152-4.736,1.952-7.319,2.219
			c-1.728,0.178-3.454,0.157-5.122-0.348c-2.291-0.692-4.591-0.706-6.928-0.344c-1.65,0.256-3.185,0.853-4.709,1.489
			c-0.06,0.026-0.12,0.054-0.18,0.08c0.007,0.024,0.015,0.049,0.021,0.073C8.787,46.71,8.98,46.685,9.174,46.659z M27.398,0.181
			c-0.099,0.107-0.146,0.155-0.189,0.206c-1.55,1.834-2.915,3.795-4.018,5.932c-0.799,1.549-1.495,3.153-1.649,4.901
			c-0.338,3.818,1.188,6.766,4.375,8.857c0.433,0.284,0.356,0.465,0.171,0.752c-0.146,0.227-0.351,0.438-0.575,0.59
			c-0.371,0.251-0.771,0.464-1.173,0.664c-0.181,0.089-0.259,0.184-0.258,0.389c0.005,0.65,0.275,1.177,0.696,1.653
			c0.194,0.219,0.402,0.271,0.676,0.21c0.778-0.171,1.453-0.53,2.016-1.09c1.265-1.257,1.705-2.868,1.966-4.578
			c-0.122-0.05-0.227-0.094-0.332-0.137c-1.312-0.54-2.536-1.227-3.635-2.133c-1.873-1.545-2.655-3.458-2.184-5.9
			c0.498-2.581,1.457-4.956,2.855-7.167c0.04-0.063,0.089-0.121,0.173-0.232c-0.007,0.148-0.005,0.227-0.016,0.305
			c-0.229,1.688-0.32,3.383-0.271,5.086c0.046,1.577,0.133,3.169,0.759,4.629c1.366,3.184,3.921,4.824,7.273,5.334
			c0.406,0.062,0.543,0.2,0.47,0.614c-0.038,0.213-0.095,0.439-0.207,0.62c-0.266,0.431-0.555,0.851-0.866,1.25
			c-0.129,0.165-0.146,0.284-0.061,0.462c0.286,0.599,0.766,0.968,1.365,1.214c0.227,0.093,0.411,0.065,0.608-0.078
			c0.783-0.564,1.285-1.323,1.548-2.239c0.433-1.502,0.208-2.978-0.226-4.437c-0.025-0.085-0.222-0.156-0.346-0.169
			c-1.193-0.123-2.397-0.178-3.582-0.36c-1.193-0.184-2.322-0.595-3.329-1.303c-1.083-0.763-1.457-1.894-1.676-3.116
			c-0.458-2.551-0.515-5.126-0.467-7.707C27.31,2.224,27.359,1.244,27.398,0.181z M33.087,49.271c-0.062,0-0.087-0.008-0.104,0.001
			c-0.081,0.044-0.16,0.093-0.239,0.14c-1.688,0.993-3.47,1.735-5.411,2.062c-1.654,0.277-3.303,0.281-4.897-0.291
			c-1.714-0.616-3.452-0.678-5.229-0.403c-1.471,0.228-2.826,0.768-4.133,1.454c-0.114,0.06-0.229,0.12-0.305,0.159
			c0.755,0,1.527-0.012,2.298,0.002c1.848,0.034,3.649,0.283,5.394,0.962c1.553,0.604,3.167,1.052,4.845,1.12
			c2.815,0.115,5.295-0.898,7.623-2.374c0.068-0.043,0.149-0.138,0.15-0.209C33.091,51.019,33.087,50.144,33.087,49.271z
			 M42.258,51.481c0.899-0.175,1.785-0.347,2.677-0.521c-0.016-0.145-0.019-0.237-0.037-0.326c-0.124-0.588-0.232-1.179-0.382-1.76
			c-0.909-3.528-2.338-6.855-3.938-10.115c-0.303-0.615-0.308-0.614-1.004-0.569c-0.43,0.028-0.858,0.062-1.309,0.094
			C40.297,42.496,41.411,46.93,42.258,51.481z M57.111,48.832c-0.349-0.69-0.661-1.333-0.992-1.965
			c-1.197-2.282-2.464-4.521-4.04-6.575c-0.368-0.479-0.729-0.808-1.372-0.601c-0.128,0.041-0.275,0.021-0.413,0.032
			c-0.779,0.067-1.558,0.137-2.329,0.204c-0.075,0.641-0.072,0.633,0.492,0.844c1.178,0.439,2.056,1.266,2.813,2.232
			c1.214,1.549,1.982,3.324,2.6,5.175c0.123,0.368,0.236,0.741,0.36,1.132C55.188,49.151,56.118,48.997,57.111,48.832z
			 M19.235,16.015c-0.955,0.487-1.868,1.041-2.846,1.431c-1.413,0.563-2.878,0.656-4.324,0.056
			c-2.376-0.986-4.477-0.311-6.554,1.068c0.137,0,0.189,0.004,0.24,0c1.239-0.106,2.477-0.095,3.678,0.252
			c0.628,0.182,1.224,0.476,1.836,0.713c0.994,0.385,1.999,0.741,3.083,0.722c1.833-0.032,3.349-0.863,4.751-1.952
			c0.07-0.054,0.128-0.17,0.129-0.258C19.239,17.345,19.235,16.644,19.235,16.015z M52.544,38.529
			c-0.242-0.89-0.678-1.645-1.206-2.347c-0.092-0.122-0.319-0.198-0.485-0.201c-1.029-0.016-2.06,0.02-3.088-0.011
			c-0.645-0.019-1.174,0.203-1.649,0.601c-0.791,0.661-1.303,1.521-1.709,2.452c-0.033,0.077-0.05,0.161-0.081,0.262
			c0.511,0,0.985,0.004,1.458-0.003c0.085-0.001,0.201-0.017,0.249-0.071c0.298-0.341,0.699-0.469,1.114-0.493
			c1.36-0.08,2.723-0.133,4.084-0.186C51.655,38.515,52.081,38.529,52.544,38.529z M51.258,34.822c0.242,0,0.486-0.01,0.729,0.003
			c0.293,0.017,0.404-0.073,0.315-0.384c-0.167-0.589-0.292-1.19-0.466-1.776c-0.646-2.183-1.513-4.263-2.806-6.157
			c-0.354-0.52-0.753-0.72-1.355-0.612c-0.339,0.061-0.403,0.136-0.249,0.45c1.262,2.568,2.114,5.269,2.63,8.08
			c0.049,0.27,0.193,0.406,0.474,0.398C50.771,34.817,51.015,34.822,51.258,34.822z M26.731,61.295
			c0.808-0.141,1.591-0.263,2.368-0.419c0.622-0.125,0.95-0.463,1.023-0.982c0.079-0.559-0.104-0.864-0.726-1.199
			c0.051-0.033,0.098-0.061,0.142-0.093c0.417-0.306,0.563-0.701,0.423-1.148c-0.132-0.424-0.509-0.71-1.015-0.664
			c-0.742,0.067-1.479,0.197-2.215,0.301C26.731,58.516,26.731,59.887,26.731,61.295z M26.066,58.48
			c-0.268-0.6-0.671-0.974-1.303-1.047c-0.998-0.116-1.828,0.391-2.191,1.331c-0.242,0.627-0.246,1.271-0.049,1.904
			c0.251,0.812,0.958,1.229,1.798,1.118c0.443-0.058,0.786-0.271,1.053-0.628c0.055,0.133,0.098,0.235,0.145,0.347
			c0.199-0.039,0.376-0.073,0.548-0.107c0-0.769,0-1.504,0-2.286c-0.604,0.103-1.18,0.199-1.767,0.298c0,0.31,0,0.594,0,0.884
			c0.209-0.026,0.4-0.05,0.62-0.078c-0.063,0.353-0.247,0.544-0.57,0.577c-0.323,0.034-0.535-0.156-0.555-0.446
			c-0.035-0.488-0.043-0.986,0.022-1.469c0.048-0.356,0.396-0.554,0.696-0.447c0.191,0.067,0.346,0.235,0.566,0.393
			C25.355,58.727,25.698,58.607,26.066,58.48z M54.476,54.243c-0.611,0.105-1.194,0.205-1.764,0.303c0,0.324,0,0.597,0,0.882
			c0.21-0.028,0.399-0.055,0.596-0.081c-0.064,0.382-0.267,0.582-0.583,0.584c-0.324,0.001-0.511-0.202-0.529-0.489
			c-0.03-0.467-0.052-0.946,0.021-1.404c0.074-0.464,0.6-0.649,0.934-0.384c0.105,0.084,0.183,0.203,0.285,0.321
			c0.339-0.117,0.684-0.237,1.051-0.365c-0.25-0.541-0.606-0.901-1.171-1.024c-0.837-0.181-1.741,0.222-2.164,0.967
			c-0.353,0.621-0.421,1.285-0.283,1.978c0.134,0.678,0.495,1.196,1.179,1.358c0.664,0.157,1.29,0.028,1.73-0.604
			c0.057,0.127,0.106,0.237,0.16,0.357c0.194-0.042,0.371-0.079,0.538-0.114C54.476,55.76,54.476,55.023,54.476,54.243z
			 M41.122,58.822c0.401-0.067,0.76-0.127,1.153-0.193c-0.057-0.646-0.046-1.262,0.495-1.74c0.205,0.438,0.399,0.88,0.622,1.308
			c0.047,0.09,0.202,0.187,0.299,0.178c0.326-0.027,0.649-0.1,1.007-0.161c-0.356-0.705-0.68-1.381-1.038-2.038
			c-0.141-0.258-0.13-0.443,0.035-0.684c0.308-0.447,0.576-0.92,0.896-1.439c-0.329,0.057-0.577,0.122-0.828,0.138
			c-0.264,0.016-0.41,0.144-0.534,0.362c-0.298,0.525-0.615,1.04-0.925,1.559c-0.02-0.003-0.039-0.007-0.058-0.011
			c0-0.534,0-1.069,0-1.644c-0.401,0.069-0.76,0.13-1.125,0.193C41.122,56.039,41.122,57.397,41.122,58.822z M58.329,52.666
			c-0.142-0.157-0.241-0.3-0.372-0.405c-0.66-0.528-2.052-0.422-2.635,0.193c-0.675,0.712-0.381,1.77,0.563,2.008
			c0.335,0.084,0.681,0.13,1.015,0.221c0.098,0.026,0.236,0.148,0.236,0.227c-0.001,0.094-0.11,0.235-0.206,0.272
			c-0.313,0.123-0.628,0.139-0.908-0.113c-0.056-0.051-0.169-0.092-0.233-0.07c-0.324,0.11-0.641,0.242-1.052,0.401
			c0.249,0.229,0.424,0.445,0.648,0.582c0.702,0.429,1.956,0.291,2.58-0.252c0.422-0.368,0.59-0.832,0.45-1.37
			c-0.136-0.523-0.555-0.738-1.047-0.836c-0.283-0.056-0.572-0.089-0.851-0.162c-0.092-0.023-0.23-0.146-0.223-0.209
			c0.011-0.097,0.127-0.256,0.202-0.258c0.228-0.006,0.458,0.047,0.686,0.087c0.089,0.016,0.19,0.103,0.256,0.078
			C57.729,52.95,58.006,52.813,58.329,52.666z M48.779,50.251c0.684-0.117,1.427-0.244,2.208-0.378
			c-0.234-0.575-0.434-1.115-0.673-1.638c-0.374-0.817-0.768-1.627-1.173-2.429c-0.061-0.12-0.231-0.261-0.353-0.261
			c-0.573-0.003-1.147,0.039-1.729,0.065C47.632,47.154,48.195,48.674,48.779,50.251z M35.124,55.682
			c0.504,1.326,0.994,2.616,1.488,3.917c0.333-0.058,0.626-0.127,0.923-0.154c0.216-0.02,0.285-0.126,0.333-0.317
			c0.26-1.041,0.532-2.079,0.8-3.118c0.081-0.314,0.162-0.63,0.251-0.978c-0.271,0.041-0.475,0.082-0.681,0.1
			c-0.238,0.021-0.356,0.13-0.402,0.374c-0.08,0.431-0.193,0.855-0.296,1.282c-0.087,0.358-0.179,0.717-0.288,1.153
			c-0.284-0.801-0.531-1.521-0.8-2.232c-0.035-0.095-0.182-0.222-0.265-0.213C35.845,55.529,35.508,55.609,35.124,55.682z
			 M16.906,62.977c0.007-0.077,0.019-0.123,0.014-0.168c-0.144-1.158,0.144-2.209,0.762-3.189c0.196-0.313,0.327-0.665,0.51-1.045
			c-0.302,0.053-0.539,0.116-0.778,0.129c-0.257,0.015-0.385,0.135-0.477,0.365c-0.155,0.394-0.34,0.775-0.535,1.212
			c-0.228-0.385-0.425-0.734-0.641-1.072c-0.05-0.078-0.171-0.171-0.249-0.162c-0.373,0.042-0.743,0.116-1.157,0.187
			c0.403,0.626,0.795,1.21,1.156,1.813c0.106,0.176,0.167,0.4,0.178,0.607c0.025,0.5,0.008,1.002,0.008,1.529
			C16.13,63.108,16.504,63.045,16.906,62.977z M29.948,56.561c0.412,0.641,0.805,1.233,1.174,1.84
			c0.096,0.157,0.153,0.359,0.161,0.543c0.021,0.516,0.008,1.031,0.008,1.567c0.435-0.075,0.817-0.142,1.222-0.212
			c0-0.13,0.01-0.233-0.002-0.334c-0.11-1.011,0.106-1.936,0.652-2.799c0.236-0.374,0.396-0.797,0.617-1.252
			c-0.302,0.047-0.537,0.098-0.775,0.116c-0.248,0.02-0.384,0.129-0.476,0.366c-0.154,0.402-0.349,0.789-0.541,1.216
			c-0.23-0.396-0.429-0.747-0.643-1.089c-0.046-0.072-0.156-0.16-0.227-0.152C30.745,56.416,30.374,56.488,29.948,56.561z
			 M12.162,59.609c0,1.425,0,2.793,0,4.182c0.937-0.162,1.84-0.318,2.731-0.473c0-0.356,0-0.671,0-1.008
			c-0.512,0.082-0.994,0.16-1.514,0.244c0-1.066,0-2.09,0-3.154C12.947,59.475,12.554,59.542,12.162,59.609z M46.15,53.788
			c-0.321,0.054-0.612,0.117-0.906,0.146c-0.216,0.021-0.256,0.123-0.255,0.316c0.009,0.911,0.004,1.823,0.004,2.735
			c0,0.378,0,0.757,0,1.178c0.425-0.073,0.793-0.137,1.157-0.2C46.15,56.562,46.15,55.192,46.15,53.788z M45.405,28.158
			c0-0.188-0.021-0.352,0.005-0.508c0.049-0.3-0.104-0.379-0.352-0.344c-0.844,0.12-1.686,0.249-2.527,0.376
			c-0.278,0.042-0.388,0.246-0.401,0.489c-0.015,0.276,0.215,0.312,0.422,0.362c0.852,0.207,1.704,0.408,2.55,0.634
			c0.383,0.102,0.63-0.056,0.762-0.553C45.936,28.344,45.825,28.23,45.405,28.158z M39.259,59.145
			c0.35-0.058,0.621-0.115,0.896-0.145c0.219-0.023,0.284-0.122,0.279-0.338c-0.013-0.682-0.005-1.364-0.005-2.046
			c0-0.608,0-1.218,0-1.847c-0.348,0.056-0.631,0.111-0.916,0.143c-0.21,0.023-0.263,0.125-0.258,0.321
			c0.011,0.521,0.004,1.041,0.004,1.562C39.259,57.566,39.259,58.339,39.259,59.145z M44.889,54.857
			c-0.015-0.003-0.029-0.006-0.044-0.009c0,1.091,0,2.182,0,3.271c0.015,0.001,0.029,0.001,0.044,0.001
			C44.889,57.033,44.889,55.945,44.889,54.857z M33.198,46.143c0.012,0.001,0.023,0.003,0.035,0.004c0-0.873,0-1.747,0-2.62
			c-0.012,0-0.023,0-0.035,0C33.198,44.398,33.198,45.271,33.198,46.143z M33.24,49.307c-0.012-0.004-0.023-0.009-0.035-0.013
			c0,0.868,0,1.736,0,2.605c0.012,0,0.023,0,0.035,0C33.24,51.035,33.24,50.171,33.24,49.307z M50.413,55.305
			c0.012,0.002,0.023,0.003,0.034,0.005c0-0.712,0-1.423,0-2.135c-0.011,0-0.022,0-0.034,0
			C50.413,53.885,50.413,54.595,50.413,55.305z M19.35,11.398c-0.012,0.001-0.023,0.003-0.035,0.004c0,0.594,0,1.188,0,1.783
			c0.011,0,0.023,0,0.035,0C19.35,12.589,19.35,11.994,19.35,11.398z"/>
		<path fill-rule="evenodd" clip-rule="evenodd" fill="#1D4F90" d="M11.591,28.608c2.178-0.439,4.373-0.726,6.594-0.855
			c1.81-0.105,3.598,0.021,5.394,0.223c2.296,0.259,4.515-0.094,6.646-0.999c1.914-0.813,3.813-1.669,5.76-2.39
			c2.876-1.065,5.835-1.849,8.879-2.277c0.41-0.058,0.824-0.088,1.292-0.137c-0.063-0.252-0.109-0.484-0.181-0.709
			c-0.617-1.964-1.821-3.542-3.282-4.944c-1.805-1.733-3.904-3.035-6.161-4.079c-2.517-1.163-5.054-2.281-7.587-3.405
			c-0.235-0.104-0.332-0.23-0.345-0.482c-0.023-0.46-0.08-0.918-0.125-1.411c0.079,0.01,0.145,0.008,0.202,0.028
			c4.655,1.582,9.135,3.534,13.26,6.243c2.585,1.698,4.725,3.817,6.219,6.547c0.767,1.401,1.291,2.888,1.493,4.479
			c0.007,0.054,0.001,0.109,0.001,0.165c-1.159,0.15-2.306,0.276-3.446,0.451c-3.764,0.576-7.501,1.289-11,2.858
			c-1.657,0.744-3.294,1.51-5.063,1.959c-2.982,0.758-5.961,0.857-8.996,0.238c-2.238-0.456-4.518-0.709-6.783-1.028
			c-0.915-0.129-1.838-0.193-2.758-0.286c-0.073-0.021-0.146-0.042-0.22-0.062C11.453,28.693,11.522,28.65,11.591,28.608z"/>
		<path fill-rule="evenodd" clip-rule="evenodd" fill="#1D4F90" d="M27.398,0.181c-0.039,1.063-0.088,2.043-0.106,3.023
			c-0.047,2.581,0.01,5.156,0.467,7.707c0.219,1.222,0.593,2.353,1.676,3.116c1.006,0.708,2.135,1.119,3.329,1.303
			c1.185,0.182,2.389,0.237,3.582,0.36c0.124,0.013,0.32,0.084,0.346,0.169c0.434,1.458,0.658,2.935,0.226,4.437
			c-0.263,0.916-0.765,1.675-1.548,2.239c-0.197,0.143-0.382,0.171-0.608,0.078c-0.6-0.246-1.079-0.616-1.365-1.214
			c-0.086-0.178-0.068-0.298,0.061-0.462c0.312-0.399,0.601-0.819,0.866-1.25c0.112-0.181,0.169-0.407,0.207-0.62
			c0.073-0.414-0.063-0.552-0.47-0.614c-3.352-0.51-5.908-2.15-7.273-5.334c-0.626-1.46-0.712-3.052-0.759-4.629
			c-0.05-1.703,0.042-3.398,0.271-5.086c0.011-0.078,0.009-0.157,0.016-0.305C26.23,3.209,26.18,3.266,26.141,3.33
			c-1.398,2.211-2.357,4.586-2.855,7.167c-0.471,2.443,0.311,4.355,2.184,5.9c1.099,0.906,2.323,1.593,3.635,2.133
			c0.105,0.043,0.209,0.086,0.332,0.137c-0.261,1.71-0.701,3.321-1.966,4.578c-0.563,0.56-1.238,0.918-2.016,1.09
			c-0.274,0.061-0.482,0.009-0.676-0.21c-0.421-0.476-0.691-1.003-0.696-1.653c-0.001-0.205,0.077-0.299,0.258-0.389
			c0.402-0.2,0.802-0.413,1.173-0.664c0.224-0.152,0.428-0.363,0.575-0.59c0.186-0.287,0.262-0.468-0.171-0.752
			c-3.187-2.091-4.712-5.04-4.375-8.857c0.155-1.748,0.851-3.352,1.649-4.901c1.103-2.137,2.467-4.098,4.018-5.932
			C27.252,0.336,27.299,0.288,27.398,0.181z"/>
		<path fill-rule="evenodd" clip-rule="evenodd" fill="#1D4F90" d="M8.751,46.582c1.525-0.637,3.06-1.233,4.709-1.489
			c2.336-0.362,4.637-0.349,6.928,0.344c1.668,0.505,3.395,0.525,5.122,0.348c2.583-0.267,5.005-1.066,7.319-2.219
			c0.069-0.034,0.14-0.065,0.258-0.12c0,0.919,0.006,1.793-0.009,2.667c-0.002,0.081-0.12,0.188-0.209,0.235
			c-2.107,1.122-4.323,1.915-6.698,2.247c-2.288,0.319-4.515-0.027-6.723-0.585c-1.286-0.324-2.553-0.738-3.85-1.007
			c-2.118-0.439-4.272-0.424-6.424-0.344C9.033,46.634,8.892,46.607,8.751,46.582z"/>
		<path fill-rule="evenodd" clip-rule="evenodd" fill="#1D4F90" d="M8.751,34.435c1.522-0.646,3.057-1.244,4.707-1.498
			c2.266-0.35,4.503-0.345,6.725,0.323c2.032,0.61,4.107,0.572,6.183,0.242c2.151-0.342,4.182-1.054,6.126-2.025
			c0.102-0.051,0.205-0.099,0.343-0.165c0.01,0.125,0.023,0.222,0.023,0.318c0.002,0.705-0.015,1.411,0.009,2.115
			c0.01,0.279-0.1,0.41-0.329,0.53c-2.138,1.116-4.379,1.915-6.783,2.207c-1.859,0.227-3.694,0.03-5.501-0.412
			c-1.333-0.326-2.642-0.755-3.978-1.072c-2.095-0.497-4.231-0.571-6.375-0.507c-0.243,0.007-0.486,0.013-0.729,0.02
			C9.032,34.485,8.892,34.46,8.751,34.435z"/>
		<path fill-rule="evenodd" clip-rule="evenodd" fill="#1D4F90" d="M33.087,49.271c0,0.873,0.004,1.748-0.007,2.622
			c-0.001,0.071-0.082,0.166-0.15,0.209c-2.328,1.476-4.808,2.489-7.623,2.374c-1.678-0.068-3.292-0.517-4.845-1.12
			c-1.745-0.679-3.546-0.928-5.394-0.962c-0.771-0.014-1.542-0.002-2.298-0.002c0.076-0.039,0.19-0.1,0.305-0.159
			c1.307-0.687,2.662-1.227,4.133-1.454c1.776-0.274,3.514-0.213,5.229,0.403c1.594,0.572,3.243,0.568,4.897,0.291
			c1.94-0.326,3.723-1.068,5.411-2.062c0.079-0.047,0.158-0.096,0.239-0.14C33,49.263,33.025,49.271,33.087,49.271z"/>
		<path fill-rule="evenodd" clip-rule="evenodd" fill="#1D4F90" d="M12.715,40.547c1.237-0.597,2.46-1.219,3.829-1.49
			c1.842-0.366,3.681-0.461,5.477,0.158c1.246,0.429,2.505,0.623,3.812,0.568c2.094-0.088,4.037-0.716,5.887-1.666
			c0.43-0.221,0.848-0.463,1.333-0.729c0,0.272,0,0.506,0,0.74c0,0.602,0.009,1.203-0.008,1.804
			c-0.003,0.115-0.072,0.278-0.163,0.336c-2.43,1.542-5.021,2.569-7.966,2.338c-1.541-0.121-3.031-0.528-4.462-1.092
			c-1.741-0.685-3.545-0.933-5.392-0.966c-0.739-0.013-1.479,0.043-2.218,0.067C12.801,40.593,12.758,40.57,12.715,40.547z"/>
		<path fill-rule="evenodd" clip-rule="evenodd" fill="#1D4F90" d="M42.258,51.481c-0.847-4.552-1.961-8.985-3.993-13.197
			c0.45-0.032,0.879-0.065,1.309-0.094c0.696-0.045,0.701-0.046,1.004,0.569c1.601,3.26,3.029,6.587,3.938,10.115
			c0.149,0.581,0.258,1.172,0.382,1.76c0.019,0.089,0.021,0.182,0.037,0.326C44.043,51.135,43.157,51.307,42.258,51.481z"/>
		<path fill-rule="evenodd" clip-rule="evenodd" fill="#1D4F90" d="M57.111,48.832c-0.993,0.165-1.924,0.319-2.881,0.479
			c-0.124-0.391-0.237-0.764-0.36-1.132c-0.617-1.851-1.386-3.626-2.6-5.175c-0.758-0.967-1.636-1.793-2.813-2.232
			c-0.564-0.211-0.567-0.203-0.492-0.844c0.771-0.067,1.55-0.137,2.329-0.204c0.138-0.012,0.285,0.009,0.413-0.032
			c0.643-0.207,1.004,0.121,1.372,0.601c1.576,2.054,2.843,4.293,4.04,6.575C56.45,47.499,56.763,48.142,57.111,48.832z"/>
		<path fill-rule="evenodd" clip-rule="evenodd" fill="#1D4F90" d="M19.235,16.015c0,0.628,0.004,1.33-0.006,2.032
			c-0.001,0.088-0.06,0.204-0.129,0.258c-1.403,1.089-2.918,1.92-4.751,1.952c-1.084,0.019-2.089-0.337-3.083-0.722
			c-0.612-0.237-1.208-0.532-1.836-0.713c-1.201-0.348-2.439-0.358-3.678-0.252c-0.051,0.004-0.103,0-0.24,0
			c2.078-1.379,4.178-2.054,6.554-1.068c1.446,0.601,2.912,0.507,4.324-0.056C17.367,17.056,18.28,16.502,19.235,16.015z"/>
		<path fill-rule="evenodd" clip-rule="evenodd" fill="#1D4F90" d="M5.848,23.685c0.873-0.521,1.739-1.047,2.754-1.268
			c1.3-0.283,2.548-0.23,3.798,0.294c1.475,0.62,2.983,0.456,4.422-0.138c0.921-0.379,1.78-0.907,2.678-1.374
			c0,0.653,0.003,1.374-0.005,2.094c-0.001,0.064-0.069,0.144-0.128,0.188c-1.418,1.088-2.943,1.922-4.792,1.933
			c-1.254,0.007-2.417-0.396-3.526-0.919c-1.412-0.667-2.892-0.841-4.42-0.795c-0.219,0.006-0.438,0.032-0.657,0.049
			C5.931,23.727,5.889,23.706,5.848,23.685z"/>
		<path fill-rule="evenodd" clip-rule="evenodd" fill="#1D4F90" d="M7.36,13.468c0.873-0.53,1.769-1,2.8-1.142
			c0.966-0.133,1.9-0.067,2.817,0.318c1.248,0.524,2.524,0.423,3.751-0.05c0.747-0.288,1.436-0.727,2.149-1.101
			c0.097-0.051,0.186-0.117,0.326-0.205c0,0.638,0.008,1.223-0.008,1.807c-0.003,0.093-0.095,0.208-0.178,0.27
			c-1.138,0.846-2.363,1.485-3.812,1.591c-0.935,0.068-1.805-0.196-2.667-0.499c-0.717-0.251-1.416-0.569-2.148-0.761
			c-0.967-0.254-1.967-0.245-2.961-0.15C7.406,13.52,7.383,13.494,7.36,13.468z"/>
		<path fill-rule="evenodd" clip-rule="evenodd" fill="#1D4F90" d="M52.544,38.529c-0.463,0-0.889-0.015-1.313,0.003
			c-1.361,0.053-2.724,0.105-4.084,0.186c-0.415,0.024-0.816,0.152-1.114,0.493c-0.048,0.055-0.164,0.07-0.249,0.071
			c-0.473,0.007-0.947,0.003-1.458,0.003c0.031-0.101,0.048-0.185,0.081-0.262c0.406-0.931,0.918-1.791,1.709-2.452
			c0.476-0.397,1.005-0.619,1.649-0.601c1.028,0.03,2.059-0.005,3.088,0.011c0.166,0.003,0.394,0.079,0.485,0.201
			C51.866,36.885,52.302,37.64,52.544,38.529z"/>
		<path fill-rule="evenodd" clip-rule="evenodd" fill="#1D4F90" d="M51.258,34.822c-0.243,0-0.486-0.005-0.729,0.002
			c-0.28,0.008-0.425-0.129-0.474-0.398c-0.516-2.811-1.368-5.512-2.63-8.08c-0.154-0.314-0.09-0.39,0.249-0.45
			c0.603-0.107,1.001,0.092,1.355,0.612c1.293,1.894,2.159,3.974,2.806,6.157c0.174,0.586,0.299,1.188,0.466,1.776
			c0.089,0.311-0.022,0.4-0.315,0.384C51.744,34.813,51.5,34.822,51.258,34.822z"/>
		<path fill-rule="evenodd" clip-rule="evenodd" fill="#1D4F90" d="M9.431,10.329c1.122-1.207,2.524-1.957,4.06-2.492
			c1.789-0.623,3.637-0.954,5.52-1.102c0.908-0.071,1.82-0.097,2.814-0.147c-0.222,0.555-0.408,1.043-0.621,1.52
			c-0.029,0.064-0.193,0.101-0.292,0.097c-3.44-0.128-6.75,0.571-10.005,1.59c-0.479,0.15-0.924,0.415-1.384,0.625
			C9.492,10.39,9.461,10.359,9.431,10.329z"/>
		<path fill-rule="evenodd" clip-rule="evenodd" fill="#1D4F90" d="M26.731,61.295c0-1.408,0-2.779,0-4.205
			c0.736-0.104,1.473-0.233,2.215-0.301c0.506-0.046,0.883,0.24,1.015,0.664c0.14,0.447-0.006,0.843-0.423,1.148
			c-0.044,0.032-0.091,0.06-0.142,0.093c0.623,0.335,0.805,0.641,0.726,1.199c-0.073,0.52-0.401,0.857-1.023,0.982
			C28.322,61.032,27.539,61.154,26.731,61.295z M27.921,60.152c0.27-0.054,0.53-0.066,0.752-0.167
			c0.117-0.053,0.247-0.272,0.224-0.389c-0.023-0.12-0.215-0.273-0.349-0.291c-0.204-0.026-0.422,0.051-0.628,0.083
			C27.921,59.656,27.921,59.884,27.921,60.152z M27.909,58.512c0.268-0.063,0.505-0.083,0.703-0.183
			c0.107-0.054,0.219-0.259,0.195-0.366c-0.023-0.104-0.212-0.227-0.338-0.238c-0.182-0.018-0.373,0.058-0.56,0.093
			C27.909,58.052,27.909,58.254,27.909,58.512z"/>
		<path fill-rule="evenodd" clip-rule="evenodd" fill="#1D4F91" d="M26.066,58.48c-0.368,0.127-0.711,0.246-0.989,0.343
			c-0.22-0.157-0.375-0.325-0.566-0.393c-0.3-0.106-0.648,0.091-0.696,0.447c-0.065,0.482-0.057,0.98-0.022,1.469
			c0.021,0.29,0.232,0.48,0.555,0.446c0.323-0.033,0.508-0.225,0.57-0.577c-0.219,0.028-0.41,0.052-0.62,0.078
			c0-0.29,0-0.574,0-0.884c0.586-0.099,1.162-0.195,1.767-0.298c0,0.782,0,1.518,0,2.286c-0.172,0.034-0.349,0.068-0.548,0.107
			c-0.047-0.111-0.089-0.214-0.145-0.347c-0.267,0.357-0.61,0.57-1.053,0.628c-0.839,0.111-1.546-0.307-1.798-1.118
			c-0.197-0.634-0.192-1.277,0.049-1.904c0.363-0.94,1.193-1.447,2.191-1.331C25.395,57.507,25.798,57.881,26.066,58.48z"/>
		<path fill-rule="evenodd" clip-rule="evenodd" fill="#1D4F91" d="M54.476,54.243c0,0.78,0,1.517,0,2.283
			c-0.167,0.035-0.344,0.072-0.538,0.114c-0.054-0.12-0.104-0.23-0.16-0.357c-0.44,0.633-1.066,0.762-1.73,0.604
			c-0.684-0.162-1.045-0.681-1.179-1.358c-0.138-0.692-0.069-1.356,0.283-1.978c0.423-0.745,1.327-1.147,2.164-0.967
			c0.564,0.123,0.921,0.483,1.171,1.024c-0.367,0.128-0.712,0.248-1.051,0.365c-0.103-0.118-0.18-0.237-0.285-0.321
			c-0.334-0.266-0.859-0.08-0.934,0.384c-0.073,0.458-0.052,0.938-0.021,1.404c0.019,0.287,0.205,0.49,0.529,0.489
			c0.316-0.002,0.519-0.202,0.583-0.584c-0.196,0.026-0.386,0.053-0.596,0.081c0-0.285,0-0.558,0-0.882
			C53.281,54.448,53.864,54.349,54.476,54.243z"/>
		<path fill-rule="evenodd" clip-rule="evenodd" fill="#1D4F91" d="M47.885,57.485c-0.055,0.069-0.099,0.184-0.166,0.2
			c-0.268,0.066-0.541,0.102-0.843,0.153c0-1.398,0-2.768,0-4.175c0.306-0.053,0.618-0.124,0.936-0.15
			c0.092-0.008,0.225,0.094,0.287,0.182c0.381,0.536,0.747,1.083,1.119,1.626c0.028,0.053,0.058,0.106,0.08,0.147
			c0-0.61,0-1.219,0-1.828c0-0.114,0-0.229,0-0.389c0.331-0.059,0.652-0.114,0.998-0.175c0,1.413,0,2.784,0,4.172
			c-0.259,0.049-0.506,0.109-0.755,0.134c-0.078,0.008-0.194-0.061-0.245-0.13c-0.451-0.615-0.891-1.237-1.333-1.857
			c-0.029-0.053-0.059-0.105-0.128-0.232c0,0.436-0.006,0.785,0.002,1.134C47.846,56.693,47.868,57.09,47.885,57.485z"/>
		<path fill-rule="evenodd" clip-rule="evenodd" fill="#1D4F91" d="M20.903,58.234c0.048-0.049,0.089-0.127,0.146-0.14
			c0.257-0.058,0.52-0.097,0.812-0.148c0,1.391,0,2.757,0,4.172c-0.242,0.044-0.508,0.111-0.776,0.131
			c-0.08,0.006-0.189-0.107-0.251-0.191c-0.425-0.574-0.841-1.156-1.26-1.735c-0.035-0.057-0.069-0.113-0.142-0.231
			c0,0.872,0,1.66,0,2.449c-0.307,0.054-0.613,0.107-0.961,0.168c0-1.396,0-2.765,0-4.175c0.29-0.051,0.604-0.117,0.92-0.153
			c0.079-0.01,0.202,0.053,0.249,0.121c0.403,0.578,0.792,1.166,1.186,1.75c0.031,0.05,0.062,0.1,0.124,0.199
			c0-0.351,0.005-0.634-0.001-0.917C20.938,59.1,20.918,58.667,20.903,58.234z"/>
		<path fill-rule="evenodd" clip-rule="evenodd" fill="#1D4F91" d="M41.122,58.822c0-1.425,0-2.783,0-4.173
			c0.365-0.063,0.724-0.124,1.125-0.193c0,0.574,0,1.109,0,1.644c0.019,0.004,0.038,0.008,0.058,0.011
			c0.31-0.519,0.627-1.033,0.925-1.559c0.124-0.219,0.271-0.347,0.534-0.362c0.251-0.016,0.499-0.081,0.828-0.138
			c-0.32,0.52-0.589,0.992-0.896,1.439c-0.165,0.24-0.176,0.426-0.035,0.684c0.358,0.657,0.682,1.333,1.038,2.038
			c-0.357,0.062-0.681,0.134-1.007,0.161c-0.097,0.009-0.252-0.088-0.299-0.178c-0.223-0.428-0.417-0.869-0.622-1.308
			c-0.541,0.479-0.552,1.095-0.495,1.74C41.882,58.695,41.523,58.755,41.122,58.822z"/>
		<path fill-rule="evenodd" clip-rule="evenodd" fill="#1D4F91" d="M58.329,52.666c-0.323,0.146-0.601,0.284-0.89,0.394
			c-0.065,0.024-0.167-0.063-0.256-0.078c-0.228-0.04-0.458-0.093-0.686-0.087c-0.075,0.002-0.191,0.161-0.202,0.258
			c-0.008,0.063,0.131,0.186,0.223,0.209c0.278,0.073,0.567,0.106,0.851,0.162c0.492,0.098,0.911,0.313,1.047,0.836
			c0.14,0.538-0.028,1.002-0.45,1.37c-0.624,0.543-1.878,0.681-2.58,0.252c-0.225-0.137-0.399-0.354-0.648-0.582
			c0.411-0.159,0.728-0.291,1.052-0.401c0.064-0.021,0.178,0.02,0.233,0.07c0.28,0.252,0.595,0.236,0.908,0.113
			c0.096-0.037,0.205-0.179,0.206-0.272c0-0.078-0.139-0.2-0.236-0.227c-0.334-0.091-0.68-0.137-1.015-0.221
			c-0.944-0.238-1.238-1.296-0.563-2.008c0.583-0.615,1.975-0.722,2.635-0.193C58.088,52.366,58.188,52.509,58.329,52.666z"/>
		<path fill-rule="evenodd" clip-rule="evenodd" fill="#1D4F90" d="M48.779,50.251c-0.584-1.577-1.147-3.097-1.72-4.64
			c0.582-0.026,1.156-0.068,1.729-0.065c0.121,0,0.292,0.141,0.353,0.261c0.405,0.802,0.799,1.611,1.173,2.429
			c0.239,0.522,0.438,1.063,0.673,1.638C50.206,50.007,49.463,50.134,48.779,50.251z"/>
		<path fill-rule="evenodd" clip-rule="evenodd" fill="#1D4F91" d="M35.124,55.682c0.384-0.072,0.721-0.152,1.063-0.187
			c0.083-0.009,0.229,0.118,0.265,0.213c0.269,0.712,0.516,1.432,0.8,2.232c0.109-0.437,0.201-0.795,0.288-1.153
			c0.103-0.427,0.216-0.852,0.296-1.282c0.046-0.244,0.164-0.353,0.402-0.374c0.206-0.018,0.41-0.059,0.681-0.1
			c-0.089,0.348-0.17,0.663-0.251,0.978c-0.268,1.039-0.54,2.077-0.8,3.118c-0.048,0.191-0.117,0.298-0.333,0.317
			c-0.297,0.027-0.59,0.097-0.923,0.154C36.118,58.298,35.628,57.008,35.124,55.682z"/>
		<path fill-rule="evenodd" clip-rule="evenodd" fill="#1D4F91" d="M16.906,62.977c-0.402,0.068-0.775,0.132-1.208,0.205
			c0-0.527,0.017-1.029-0.008-1.529c-0.01-0.207-0.072-0.432-0.178-0.607c-0.361-0.603-0.753-1.187-1.156-1.813
			c0.414-0.07,0.784-0.145,1.157-0.187c0.078-0.009,0.199,0.084,0.249,0.162c0.216,0.338,0.413,0.688,0.641,1.072
			c0.195-0.437,0.38-0.818,0.535-1.212c0.091-0.23,0.219-0.351,0.477-0.365c0.24-0.013,0.477-0.076,0.778-0.129
			c-0.183,0.38-0.314,0.732-0.51,1.045c-0.618,0.98-0.905,2.031-0.762,3.189C16.925,62.854,16.913,62.899,16.906,62.977z"/>
		<path fill-rule="evenodd" clip-rule="evenodd" fill="#1D4F91" d="M29.948,56.561c0.426-0.072,0.797-0.145,1.171-0.189
			c0.07-0.008,0.181,0.08,0.227,0.152c0.214,0.342,0.412,0.693,0.643,1.089c0.192-0.427,0.387-0.813,0.541-1.216
			c0.092-0.237,0.228-0.347,0.476-0.366c0.238-0.019,0.474-0.069,0.775-0.116c-0.222,0.455-0.381,0.878-0.617,1.252
			c-0.546,0.863-0.763,1.788-0.652,2.799c0.012,0.101,0.002,0.204,0.002,0.334c-0.404,0.07-0.787,0.137-1.222,0.212
			c0-0.536,0.014-1.052-0.008-1.567c-0.008-0.184-0.065-0.386-0.161-0.543C30.753,57.794,30.36,57.201,29.948,56.561z"/>
		<path fill-rule="evenodd" clip-rule="evenodd" fill="#1D4F91" d="M12.162,59.609c0.392-0.067,0.785-0.135,1.217-0.209
			c0,1.064,0,2.088,0,3.154c0.521-0.084,1.002-0.162,1.514-0.244c0,0.337,0,0.651,0,1.008c-0.891,0.154-1.795,0.311-2.731,0.473
			C12.162,62.402,12.162,61.034,12.162,59.609z"/>
		<path fill-rule="evenodd" clip-rule="evenodd" fill="#1D4F91" d="M46.15,53.788c0,1.404,0,2.773,0,4.175
			c-0.364,0.063-0.732,0.127-1.157,0.2c0-0.421,0-0.8,0-1.178c0-0.912,0.005-1.824-0.004-2.735
			c-0.001-0.193,0.039-0.296,0.255-0.316C45.538,53.905,45.829,53.842,46.15,53.788z"/>
		<path fill-rule="evenodd" clip-rule="evenodd" fill="#1D4F91" d="M45.405,28.158c0.42,0.073,0.53,0.187,0.458,0.457
			c-0.132,0.497-0.379,0.655-0.762,0.553c-0.846-0.227-1.698-0.427-2.55-0.634c-0.207-0.05-0.437-0.086-0.422-0.362
			c0.014-0.244,0.123-0.447,0.401-0.489c0.842-0.127,1.684-0.256,2.527-0.376c0.248-0.036,0.4,0.044,0.352,0.344
			C45.385,27.806,45.405,27.97,45.405,28.158z"/>
		<path fill-rule="evenodd" clip-rule="evenodd" fill="#1D4F91" d="M39.259,59.145c0-0.806,0-1.578,0-2.35
			c0-0.521,0.007-1.041-0.004-1.562c-0.005-0.196,0.048-0.298,0.258-0.321c0.285-0.031,0.568-0.087,0.916-0.143
			c0,0.629,0,1.238,0,1.847c0,0.682-0.008,1.364,0.005,2.046c0.005,0.216-0.061,0.314-0.279,0.338
			C39.88,59.029,39.608,59.087,39.259,59.145z"/>
		<path fill-rule="evenodd" clip-rule="evenodd" fill="#F9F9F9" d="M44.889,54.857c0,1.088,0,2.176,0,3.264
			c-0.015,0-0.029,0-0.044-0.001c0-1.09,0-2.181,0-3.271C44.859,54.852,44.874,54.854,44.889,54.857z"/>
		<path fill-rule="evenodd" clip-rule="evenodd" fill="#F9F9F9" d="M33.198,46.143c0-0.872,0-1.744,0-2.616c0.012,0,0.023,0,0.035,0
			c0,0.873,0,1.747,0,2.62C33.222,46.146,33.21,46.144,33.198,46.143z"/>
		<path fill-rule="evenodd" clip-rule="evenodd" fill="#F9F9F9" d="M33.24,49.307c0,0.864,0,1.729,0,2.593c-0.012,0-0.023,0-0.035,0
			c0-0.869,0-1.737,0-2.605C33.217,49.298,33.229,49.303,33.24,49.307z"/>
		<path fill-rule="evenodd" clip-rule="evenodd" fill="#D4DAE2" d="M19.431,62.54c0-0.789,0-1.577,0-2.449
			c0.073,0.118,0.107,0.175,0.142,0.231c-0.022,0.153-0.061,0.307-0.063,0.46c-0.007,0.481,0.003,0.962-0.003,1.443
			C19.504,62.331,19.457,62.436,19.431,62.54z"/>
		<path fill-rule="evenodd" clip-rule="evenodd" fill="#ACBACD" d="M47.885,57.485c-0.017-0.396-0.039-0.792-0.048-1.188
			c-0.008-0.349-0.002-0.698-0.002-1.134c0.069,0.127,0.099,0.18,0.128,0.232c-0.021,0.27-0.049,0.54-0.058,0.81
			C47.892,56.632,47.891,57.059,47.885,57.485z"/>
		<path fill-rule="evenodd" clip-rule="evenodd" fill="#F9F9F9" d="M50.413,55.305c0-0.71,0-1.42,0-2.13c0.012,0,0.023,0,0.034,0
			c0,0.712,0,1.423,0,2.135C50.437,55.308,50.425,55.307,50.413,55.305z"/>
		<path fill-rule="evenodd" clip-rule="evenodd" fill="#8DA1BA" d="M20.903,58.234c0.015,0.433,0.035,0.865,0.045,1.299
			c0.007,0.283,0.001,0.566,0.001,0.917c-0.063-0.1-0.093-0.149-0.124-0.199c0.019-0.199,0.05-0.397,0.056-0.598
			C20.895,59.181,20.896,58.707,20.903,58.234z"/>
		<path fill-rule="evenodd" clip-rule="evenodd" fill="#BFC8D3" d="M49.298,53.641c0,0.609,0,1.218,0,1.828
			c-0.022-0.041-0.052-0.095-0.08-0.147c0.02-0.3,0.044-0.599,0.059-0.898C49.289,54.162,49.291,53.901,49.298,53.641z"/>
		<path fill-rule="evenodd" clip-rule="evenodd" fill="#F9F9F9" d="M19.35,11.398c0,0.596,0,1.191,0,1.787c-0.012,0-0.023,0-0.035,0
			c0-0.595,0-1.189,0-1.783C19.327,11.401,19.338,11.399,19.35,11.398z"/>
		<path fill-rule="evenodd" clip-rule="evenodd" fill="#7492B9" d="M8.751,34.435c0.141,0.025,0.281,0.051,0.422,0.076
			c-0.193,0.025-0.387,0.052-0.58,0.077c-0.007-0.024-0.015-0.049-0.021-0.074C8.631,34.487,8.691,34.461,8.751,34.435z"/>
		<path fill-rule="evenodd" clip-rule="evenodd" fill="#7491B9" d="M8.751,46.582c0.141,0.025,0.282,0.052,0.423,0.077
			c-0.194,0.025-0.387,0.051-0.581,0.076c-0.007-0.024-0.014-0.049-0.021-0.073C8.631,46.636,8.691,46.608,8.751,46.582z"/>
		<path fill-rule="evenodd" clip-rule="evenodd" fill="#C0CBDA" d="M11.384,28.735c0.073,0.021,0.146,0.042,0.22,0.062
			c-0.171-0.002-0.343-0.005-0.515-0.007c0.008-0.04,0.017-0.079,0.025-0.118C11.204,28.693,11.294,28.714,11.384,28.735z"/>
		<path fill-rule="evenodd" clip-rule="evenodd" fill="#456FA7" d="M9.431,10.329c0.03,0.031,0.061,0.062,0.091,0.092
			c-0.098,0.064-0.195,0.128-0.292,0.192c-0.001-0.03-0.003-0.06-0.004-0.09C9.294,10.458,9.363,10.393,9.431,10.329z"/>
		<path fill-rule="evenodd" clip-rule="evenodd" fill="#3467AC" d="M11.384,28.735c-0.09-0.021-0.18-0.042-0.27-0.063
			c0.159-0.021,0.317-0.043,0.477-0.064C11.522,28.65,11.453,28.693,11.384,28.735z"/>
		<path fill-rule="evenodd" clip-rule="evenodd" fill="#AEBBCC" d="M12.715,40.547c0.043,0.023,0.086,0.046,0.129,0.068
			c-0.073,0.022-0.146,0.044-0.22,0.066c-0.009-0.021-0.017-0.042-0.026-0.063C12.638,40.596,12.676,40.571,12.715,40.547z"/>
		<path fill-rule="evenodd" clip-rule="evenodd" fill="#C8D0DA" d="M8.678,11.042c-0.047,0.044-0.093,0.089-0.14,0.133
			c-0.025,0-0.05,0-0.076,0c0.071-0.069,0.143-0.139,0.214-0.208C8.677,10.992,8.677,11.017,8.678,11.042z"/>
		<path fill-rule="evenodd" clip-rule="evenodd" fill="#B2BBC7" d="M5.848,23.685c0.041,0.021,0.083,0.042,0.124,0.063
			c-0.064,0.006-0.127,0.012-0.191,0.019C5.803,23.739,5.826,23.712,5.848,23.685z"/>
		<path fill-rule="evenodd" clip-rule="evenodd" fill="#C1CCD9" d="M7.36,13.468c0.023,0.026,0.046,0.052,0.069,0.078
			c-0.056,0.009-0.111,0.018-0.167,0.026C7.295,13.538,7.328,13.503,7.36,13.468z"/>
		<path fill-rule="evenodd" clip-rule="evenodd" fill="#DCE0E6" d="M8.462,11.175c0.025,0,0.05,0,0.076,0
			c-0.052,0.036-0.104,0.072-0.156,0.108c-0.009-0.014-0.019-0.029-0.028-0.043C8.39,11.218,8.426,11.197,8.462,11.175z"/>
		<path fill-rule="evenodd" clip-rule="evenodd" fill="#8DA1BC" d="M8.882,10.822c0.046-0.045,0.093-0.091,0.14-0.136
			c0.001,0.027,0.002,0.054,0.003,0.081c-0.047,0.039-0.094,0.079-0.141,0.118C8.884,10.864,8.884,10.843,8.882,10.822z"/>
		<path fill-rule="evenodd" clip-rule="evenodd" fill="#ACBBCF" d="M8.678,11.042c0-0.025-0.001-0.05-0.001-0.076
			c0.024-0.019,0.048-0.038,0.073-0.056c-0.001,0.019-0.001,0.038-0.002,0.058C8.724,10.993,8.701,11.018,8.678,11.042z"/>
		<path fill-rule="evenodd" clip-rule="evenodd" fill="#5479A9" d="M9.025,10.767c-0.001-0.027-0.002-0.054-0.003-0.081
			c0.025-0.018,0.05-0.035,0.075-0.053c0.002,0.021,0.002,0.042,0,0.063C9.072,10.72,9.049,10.743,9.025,10.767z"/>
		<path fill-rule="evenodd" clip-rule="evenodd" fill="#2058A0" d="M9.226,10.522c0.001,0.03,0.003,0.061,0.004,0.09
			c-0.013,0.021-0.032,0.029-0.057,0.025c-0.003-0.012-0.011-0.021-0.022-0.026C9.176,10.582,9.201,10.552,9.226,10.522z"/>
		<path fill-rule="evenodd" clip-rule="evenodd" fill="#2B65B1" d="M9.096,10.696c0.002-0.021,0.002-0.042,0-0.063
			c0.013-0.021,0.031-0.028,0.054-0.022c0.011,0.005,0.019,0.014,0.022,0.026C9.148,10.657,9.122,10.677,9.096,10.696z"/>
		<path fill-rule="evenodd" clip-rule="evenodd" fill="#95B0D4" d="M8.747,10.968c0.001-0.02,0.001-0.039,0.002-0.058
			c0.022-0.004,0.045-0.008,0.067-0.012l-0.001-0.001C8.792,10.921,8.77,10.944,8.747,10.968z"/>
		<path fill-rule="evenodd" clip-rule="evenodd" fill="#81A2CE" d="M8.882,10.822c0.002,0.021,0.002,0.042,0.002,0.063
			c-0.023,0.004-0.046,0.008-0.069,0.013l0.001,0.001C8.838,10.873,8.86,10.847,8.882,10.822z"/>
		<path fill-rule="evenodd" clip-rule="evenodd" fill="#FAFAFB" d="M27.921,60.152c0-0.269,0-0.496,0-0.764
			c0.206-0.032,0.424-0.109,0.628-0.083c0.134,0.018,0.325,0.171,0.349,0.291c0.022,0.116-0.107,0.336-0.224,0.389
			C28.451,60.086,28.19,60.099,27.921,60.152z"/>
		<path fill-rule="evenodd" clip-rule="evenodd" fill="#FCFCFC" d="M27.909,58.512c0-0.258,0-0.46,0-0.694
			c0.187-0.035,0.377-0.11,0.56-0.093c0.125,0.012,0.314,0.134,0.338,0.238c0.024,0.107-0.088,0.313-0.195,0.366
			C28.414,58.429,28.176,58.448,27.909,58.512z"/>
	</g>
</g>
</svg>
