<?xml version="1.0" encoding="utf-8"?>
<!-- Generator: Adobe Illustrator 23.0.2, SVG Export Plug-In . SVG Version: 6.00 Build 0)  -->
<svg version="1.1" id="Layer_1" xmlns="http://www.w3.org/2000/svg" xmlns:xlink="http://www.w3.org/1999/xlink" x="0px" y="0px"
	 width="64px" height="64px" viewBox="0 0 64 64" enable-background="new 0 0 64 64" xml:space="preserve">
<g>
	<g>
		<path fill="#1F130E" d="M51.298,15.454c-0.367,0.34-0.768,0.641-1.155,0.958c-0.787,0.647-1.579,1.289-2.369,1.934
			c-0.041,0.033-0.079,0.068-0.149,0.129c5.48-1.389,10.921-2.769,16.363-4.148c0.004,0.009,0.008,0.017,0.012,0.026
			c-3.498,2.772-6.997,5.545-10.495,8.317c0.004,0.009,0.008,0.018,0.012,0.027c0.412-0.093,0.824-0.187,1.237-0.279
			c2.765-0.622,5.529-1.244,8.295-1.863c0.045-0.01,0.098-0.053,0.146-0.001c0,0-0.005-0.002-0.005-0.002
			c-1.283,1.351-2.565,2.703-3.848,4.053c-2.938,3.092-5.877,6.184-8.816,9.276c-0.04,0.042-0.08,0.085-0.135,0.144
			c1.506,0,2.996,0,4.507,0c-0.033,0.075-0.088,0.097-0.13,0.127c-1.349,0.965-2.697,1.931-4.05,2.891
			c-0.108,0.077-0.146,0.156-0.146,0.287c0.005,1.42,0,2.84,0.007,4.261c0.001,0.16-0.046,0.189-0.196,0.189
			c-1.773-0.005-3.545-0.002-5.318-0.006c-0.116,0-0.191,0.043-0.281,0.112c-0.315,0.243-0.439,0.529-0.396,0.943
			c0.054,0.518,0.021,1.046-0.12,1.556c-0.345,1.25-1.365,2.037-2.675,2.039c-0.245,0-0.41,0.07-0.58,0.243
			c-0.939,0.956-1.891,1.899-2.839,2.847c-0.04,0.04-0.075,0.084-0.144,0.162c0-0.104,0-0.155,0-0.206
			c0-0.977-0.003-1.954,0.003-2.931c0.001-0.129-0.037-0.155-0.159-0.155c-3.908,0.003-7.816,0.003-11.724,0
			c-0.13,0-0.168,0.027-0.167,0.163c0.007,0.972,0.003,1.943,0.003,2.915c0,0.052,0,0.105,0,0.185
			c-0.058-0.053-0.099-0.089-0.138-0.127c-0.967-0.966-1.936-1.93-2.896-2.902c-0.134-0.136-0.264-0.194-0.456-0.191
			c-0.651,0.007-1.256-0.157-1.779-0.563c-0.68-0.527-0.993-1.248-1.073-2.084c-0.044-0.452-0.041-0.906-0.005-1.359
			c0.007-0.082-0.024-0.133-0.072-0.198c-0.27-0.366-0.615-0.467-1.072-0.458c-1.612,0.031-3.225,0.012-4.837,0.012
			c-0.247,0-0.216,0.033-0.216-0.208c-0.001-1.415-0.002-2.83,0.002-4.245c0-0.124-0.034-0.201-0.138-0.275
			c-1.348-0.958-2.692-1.92-4.037-2.882c-0.047-0.034-0.095-0.068-0.166-0.119c1.516,0,3.006,0,4.542,0
			c-0.071-0.076-0.115-0.124-0.159-0.171c-2.884-3.034-5.767-6.068-8.651-9.101C3.53,23.4,2.225,22.026,0.919,20.652
			c-0.033-0.034-0.07-0.064-0.106-0.096L0.81,20.556c0.063-0.045,0.121-0.003,0.18,0.012c2.629,0.701,5.257,1.403,7.886,2.104
			c0.035,0.009,0.071,0.016,0.138,0.031C8.83,22.37,8.719,22.041,8.43,21.788c-2.787-2.448-5.563-4.91-8.342-7.368
			C0.061,14.396,0.029,14.378,0,14.357c0.008-0.011,0.016-0.021,0.023-0.032c5.444,1.38,10.887,2.76,16.331,4.14
			c0.003-0.006,0.007-0.013,0.01-0.019c-0.421-0.344-0.841-0.688-1.262-1.031c-0.769-0.627-1.539-1.254-2.308-1.882
			c-0.028-0.023-0.05-0.053-0.074-0.079c0.005-0.005,0.01-0.01,0.016-0.015c0.78,0.214,1.561,0.426,2.341,0.642
			c4.638,1.284,9.276,2.57,13.914,3.853c0.095,0.026,0.154,0.069,0.201,0.157c0.905,1.708,1.813,3.415,2.72,5.121
			c0.027,0.051,0.055,0.101,0.087,0.159c0.063-0.041,0.078-0.105,0.106-0.158c0.907-1.701,1.813-3.402,2.716-5.105
			c0.052-0.098,0.115-0.147,0.222-0.177c5.372-1.487,10.743-2.976,16.115-4.466c0.041-0.011,0.083-0.018,0.125-0.026
			C51.288,15.444,51.293,15.449,51.298,15.454z M57.514,23.656c-0.06-0.022-0.115,0.004-0.171,0.016
			c-3.34,0.763-6.68,1.526-10.02,2.289c-0.419,0.096-0.837,0.192-1.288,0.296c0.947,0.491,1.864,0.966,2.814,1.458
			c-2.315,0.512-4.588,1.015-6.881,1.522c0.021-0.05,0.028-0.07,0.037-0.089c0.778-1.642,1.557-3.283,2.331-4.927
			c0.045-0.096,0.11-0.129,0.201-0.155c2.295-0.672,4.59-1.346,6.885-2.02c0.082-0.024,0.158-0.056,0.229-0.109
			c1.945-1.444,3.892-2.886,5.838-4.328c0.037-0.028,0.073-0.056,0.11-0.085c-0.042-0.016-0.067-0.01-0.092-0.002
			c-5.05,1.481-10.1,2.962-15.152,4.439c-0.116,0.034-0.172,0.101-0.22,0.202c-1.544,3.26-3.091,6.519-4.637,9.778
			c-0.145,0.306-0.289,0.613-0.448,0.949c2.824-0.82,5.616-1.632,8.44-2.452c-0.576,1.218-1.136,2.4-1.702,3.597
			c0.083,0,0.141,0,0.2,0c1.153,0,2.307-0.017,3.459,0.009c0.405,0.009,0.675-0.105,0.953-0.412
			c2.985-3.282,5.988-6.548,8.985-9.819c0.045-0.049,0.108-0.088,0.123-0.161c0.007-0.005,0.015-0.01,0.022-0.014
			c-0.005-0.002-0.009-0.004-0.014-0.005C57.517,23.641,57.515,23.648,57.514,23.656z M6.161,23.678
			c-0.013-0.02-0.038-0.032-0.053-0.016c-0.021,0.022,0.013,0.03,0.024,0.044c0.014,0.016,0.026,0.034,0.041,0.049
			c3.179,3.394,6.358,6.788,9.534,10.184c0.069,0.074,0.139,0.098,0.237,0.097c1.276-0.003,2.552-0.002,3.828-0.002
			c0.25,0,0.25,0,0.142-0.218c-1.426-2.885-2.852-5.771-4.277-8.657c-0.026-0.053-0.08-0.101-0.047-0.195
			c2.087,2.065,4.165,4.121,6.275,6.208c-0.149-1.661-0.294-3.27-0.439-4.88c0.059,0.039,0.084,0.085,0.106,0.131
			c0.875,1.844,1.751,3.687,2.623,5.532c0.046,0.097,0.103,0.142,0.21,0.164c0.57,0.114,1.132,0.257,1.689,0.423
			c0.391,0.117,0.785,0.224,1.204,0.343c-0.033-0.075-0.053-0.122-0.075-0.169c-1.669-3.519-3.339-7.038-5.006-10.558
			c-0.05-0.105-0.112-0.166-0.223-0.203c-1.384-0.464-2.766-0.934-4.149-1.399c-0.057-0.019-0.113-0.062-0.182-0.038
			c0.012,0.06,0.063,0.086,0.1,0.123c0.675,0.669,1.35,1.338,2.029,2.003c0.089,0.088,0.135,0.178,0.143,0.305
			c0.059,0.964,0.126,1.928,0.188,2.892c0.006,0.095,0.001,0.192,0.001,0.307c-0.05-0.048-0.082-0.077-0.112-0.106
			c-2.16-2.113-4.32-4.226-6.479-6.341c-0.071-0.07-0.148-0.115-0.243-0.143c-2.183-0.639-4.365-1.28-6.548-1.92
			c-0.166-0.049-0.334-0.094-0.5-0.142c0.031,0.062,0.072,0.102,0.116,0.14c1.634,1.424,3.267,2.849,4.903,4.271
			c0.083,0.072,0.142,0.154,0.188,0.252c0.682,1.44,1.365,2.879,2.048,4.319c0.021,0.045,0.056,0.087,0.051,0.151
			c-0.047-0.019-0.086-0.034-0.125-0.05c-1.769-0.713-3.537-1.427-5.307-2.139C7.438,24.184,6.799,23.932,6.161,23.678z
			 M20.355,19.508c-0.004,0.012-0.008,0.024-0.011,0.036c0.044,0.029,0.087,0.057,0.131,0.086c1.496,0.965,2.992,1.93,4.489,2.893
			c0.089,0.057,0.15,0.124,0.196,0.22c1.536,3.23,3.076,6.458,4.61,9.689c0.063,0.132,0.135,0.169,0.275,0.169
			c1.308-0.006,2.616-0.006,3.924,0c0.147,0.001,0.221-0.04,0.285-0.176c1.522-3.231,3.05-6.458,4.575-9.688
			c0.043-0.091,0.101-0.155,0.185-0.209c1.509-0.964,3.017-1.93,4.525-2.897c0.047-0.03,0.107-0.047,0.134-0.106
			c-0.046-0.017-0.085,0.004-0.125,0.016c-2.611,0.764-5.221,1.528-7.833,2.29c-0.097,0.028-0.145,0.083-0.187,0.172
			c-1.148,2.424-2.299,4.847-3.45,7.27c-0.019,0.04-0.023,0.093-0.081,0.116c-0.029-0.058-0.057-0.114-0.084-0.171
			c-1.141-2.404-2.282-4.809-3.419-7.214c-0.045-0.095-0.101-0.147-0.202-0.176c-2.289-0.668-4.578-1.339-6.866-2.009
			C21.069,19.713,20.712,19.611,20.355,19.508z M14.815,35.851c-0.002,0.011-0.004,0.023-0.006,0.034
			c0.19,0.138,0.376,0.281,0.57,0.412c0.103,0.069,0.143,0.145,0.143,0.272c-0.006,1.137-0.001,2.274-0.006,3.411
			c-0.001,0.129,0.037,0.162,0.161,0.158c0.267-0.009,0.534-0.011,0.8,0.001c0.133,0.006,0.167-0.031,0.167-0.165
			c-0.006-0.969-0.003-1.938-0.003-2.923c0.06,0.065,0.063,0.137,0.081,0.201c0.25,0.914,0.498,1.828,0.743,2.743
			c0.027,0.101,0.061,0.149,0.18,0.144c0.293-0.011,0.587-0.008,0.881-0.001c0.107,0.003,0.144-0.036,0.17-0.136
			c0.119-0.459,0.247-0.915,0.373-1.371c0.141-0.516,0.283-1.032,0.424-1.548c0.008,0.001,0.015,0.002,0.023,0.003
			c0,0.057,0,0.114,0,0.171c0,0.907,0.002,1.815-0.003,2.722c-0.001,0.118,0.02,0.166,0.153,0.16
			c0.272-0.012,0.545-0.01,0.816-0.001c0.122,0.004,0.159-0.026,0.158-0.155c-0.006-1.148-0.002-2.295-0.006-3.443
			c0-0.103,0.03-0.165,0.114-0.222c0.204-0.139,0.401-0.288,0.606-0.437c-0.024-0.016-0.031-0.026-0.039-0.026
			c-0.758-0.002-1.516-0.001-2.274-0.005c-0.077,0-0.096,0.036-0.113,0.101c-0.068,0.252-0.142,0.502-0.214,0.753
			c-0.207,0.729-0.414,1.457-0.622,2.187c-0.047-0.019-0.045-0.055-0.053-0.085c-0.266-0.937-0.534-1.873-0.795-2.812
			c-0.031-0.112-0.077-0.147-0.194-0.146c-0.624,0.006-1.249,0.003-1.874,0.003C15.056,35.851,14.935,35.851,14.815,35.851z
			 M35.746,35.876c0.201,0.147,0.387,0.29,0.582,0.421c0.103,0.069,0.142,0.146,0.141,0.272c-0.005,1.137-0.001,2.274-0.006,3.41
			c-0.001,0.129,0.037,0.161,0.16,0.157c0.261-0.009,0.523-0.01,0.784,0c0.127,0.005,0.158-0.034,0.157-0.158
			c-0.005-0.934-0.003-1.868-0.003-2.802c0-0.055,0-0.111,0-0.172c0.055,0.016,0.054,0.053,0.065,0.08
			c0.404,0.973,0.809,1.945,1.21,2.919c0.04,0.098,0.089,0.135,0.199,0.133c0.47-0.007,0.939-0.009,1.409,0.001
			c0.14,0.003,0.162-0.042,0.162-0.169c-0.005-1.142-0.002-2.284-0.005-3.426c0-0.103,0.029-0.165,0.114-0.223
			c0.207-0.141,0.408-0.293,0.647-0.468c-0.605,0-1.16,0.005-1.714-0.004c-0.127-0.002-0.145,0.04-0.144,0.152
			c0.004,0.939,0.003,1.879,0.002,2.818c0,0.048-0.004,0.096-0.008,0.185c-0.433-1.032-0.85-2.021-1.261-3.013
			c-0.043-0.104-0.091-0.142-0.206-0.141c-0.71,0.006-1.42,0.003-2.13,0.004C35.856,35.852,35.808,35.837,35.746,35.876z
			 M49.116,37.466c0-0.217,0.001-0.419,0-0.621c-0.004-0.545-0.252-0.879-0.791-0.984c-0.617-0.12-1.244-0.099-1.863-0.008
			c-0.374,0.055-0.6,0.31-0.705,0.663c-0.096,0.323-0.08,0.654-0.039,0.984c0.051,0.4,0.267,0.663,0.658,0.777
			c0.154,0.045,0.313,0.062,0.472,0.081c0.339,0.042,0.68,0.057,1.016,0.126c0.155,0.032,0.227,0.126,0.226,0.282
			c0,0.059,0.002,0.117,0,0.176c-0.006,0.194-0.084,0.29-0.275,0.308c-0.234,0.023-0.47,0.025-0.704,0
			c-0.225-0.024-0.314-0.122-0.334-0.353c-0.006-0.072-0.031-0.102-0.096-0.121c-0.306-0.092-0.61-0.188-0.915-0.284
			c-0.069-0.022-0.108-0.019-0.105,0.073c0.007,0.208-0.005,0.417,0.008,0.624c0.036,0.545,0.278,0.835,0.814,0.932
			c0.623,0.113,1.256,0.099,1.881,0.024c0.501-0.06,0.855-0.488,0.882-0.992c0.011-0.208,0.01-0.416,0.003-0.624
			c-0.014-0.44-0.23-0.727-0.646-0.875c-0.234-0.083-0.479-0.096-0.722-0.13c-0.279-0.038-0.566-0.03-0.836-0.126
			c-0.179-0.064-0.227-0.188-0.192-0.435c0.022-0.162,0.125-0.225,0.273-0.238c0.197-0.017,0.395-0.019,0.592-0.004
			c0.195,0.016,0.261,0.081,0.286,0.276c0.007,0.051-0.003,0.101,0.069,0.124C48.418,37.231,48.76,37.347,49.116,37.466z
			 M43.771,38.491c-0.287,0-0.525-0.01-0.762,0.004c-0.162,0.01-0.176-0.04-0.138-0.183c0.125-0.468,0.234-0.94,0.354-1.41
			c0.016-0.061-0.004-0.168,0.077-0.17c0.087-0.002,0.065,0.106,0.08,0.166c0.249,1.024,0.496,2.048,0.74,3.073
			c0.025,0.106,0.063,0.156,0.187,0.151c0.315-0.011,0.63-0.007,0.945-0.002c0.101,0.002,0.144-0.012,0.111-0.128
			c-0.383-1.352-0.764-2.705-1.141-4.058c-0.024-0.087-0.062-0.106-0.143-0.105c-0.512,0.003-1.025,0.004-1.537-0.001
			c-0.092-0.001-0.128,0.027-0.153,0.114c-0.385,1.351-0.773,2.702-1.163,4.052c-0.028,0.096-0.026,0.13,0.088,0.128
			c0.331-0.007,0.662-0.006,0.993,0c0.094,0.002,0.14-0.027,0.148-0.118c0.042-0.484,0.296-0.823,0.714-1.052
			c0.032-0.018,0.06-0.044,0.09-0.067C43.416,38.762,43.574,38.641,43.771,38.491z M30.909,39.147
			c-0.039-0.045-0.044-0.093-0.056-0.139c-0.247-0.997-0.498-1.994-0.738-2.992c-0.033-0.139-0.092-0.17-0.224-0.168
			c-0.539,0.007-1.078,0.003-1.617,0.004c-0.043,0-0.092-0.016-0.142,0.026c0.25,0.151,0.488,0.299,0.731,0.44
			c0.093,0.054,0.146,0.118,0.176,0.227c0.312,1.151,0.633,2.299,0.947,3.449c0.029,0.105,0.065,0.145,0.18,0.143
			c0.475-0.008,0.95-0.009,1.425,0c0.135,0.003,0.19-0.038,0.227-0.17c0.318-1.143,0.646-2.284,0.968-3.426
			c0.028-0.099,0.075-0.165,0.166-0.217c0.246-0.141,0.487-0.293,0.74-0.447c-0.066-0.042-0.12-0.026-0.17-0.026
			c-0.518-0.001-1.036,0.006-1.553-0.005c-0.155-0.003-0.214,0.042-0.253,0.194C31.453,37.076,31.18,38.108,30.909,39.147z
			 M22.793,38.516c-0.005,0.01-0.01,0.02-0.014,0.03c0.189,0.145,0.366,0.308,0.569,0.43c0.399,0.239,0.653,0.562,0.688,1.037
			c0.001,0.01,0.006,0.02,0.008,0.031c0.011,0.069,0.048,0.093,0.121,0.092c0.342-0.004,0.683-0.005,1.025,0
			c0.097,0.001,0.106-0.034,0.084-0.114c-0.383-1.358-0.765-2.716-1.145-4.074c-0.018-0.065-0.042-0.099-0.118-0.099
			c-0.529,0.003-1.057,0.003-1.586,0c-0.071,0-0.104,0.024-0.123,0.092c-0.39,1.361-0.781,2.722-1.174,4.083
			c-0.025,0.088-0.006,0.112,0.084,0.111c0.342-0.004,0.683-0.004,1.025,0.001c0.086,0.001,0.109-0.04,0.126-0.109
			c0.128-0.522,0.259-1.043,0.388-1.564c0.134-0.543,0.268-1.086,0.404-1.628c0.009-0.036-0.001-0.098,0.064-0.091
			c0.049,0.005,0.041,0.055,0.05,0.089c0.126,0.523,0.251,1.046,0.38,1.568c0.021,0.086,0.013,0.119-0.089,0.116
			C23.304,38.511,23.048,38.516,22.793,38.516z M28.215,41.341c0.145,0.105,0.243,0.189,0.353,0.253
			c0.121,0.07,0.155,0.16,0.154,0.299c-0.007,0.859-0.001,1.719-0.006,2.578c-0.001,0.12,0.028,0.159,0.15,0.151
			c0.17-0.011,0.343-0.016,0.512,0.001c0.174,0.018,0.205-0.049,0.203-0.209c-0.009-0.706-0.004-1.413-0.004-2.119
			c0.038,0.045,0.053,0.093,0.066,0.142c0.187,0.683,0.376,1.365,0.558,2.049c0.026,0.099,0.06,0.141,0.168,0.137
			c0.208-0.009,0.416-0.007,0.624-0.001c0.097,0.003,0.136-0.025,0.162-0.124c0.151-0.577,0.31-1.151,0.471-1.725
			c0.042-0.15,0.066-0.306,0.153-0.487c0,0.063,0,0.083,0,0.103c0,0.699,0.002,1.398-0.002,2.098
			c-0.001,0.101,0.02,0.142,0.13,0.136c0.181-0.01,0.363-0.011,0.544,0c0.141,0.009,0.188-0.026,0.187-0.179
			c-0.008-0.849-0.003-1.697-0.006-2.546c0-0.095,0.027-0.157,0.107-0.211c0.151-0.101,0.295-0.213,0.477-0.345
			c-0.625,0-1.2,0.001-1.776-0.002c-0.074,0-0.099,0.026-0.117,0.094c-0.055,0.211-0.119,0.42-0.178,0.63
			c-0.152,0.534-0.304,1.069-0.464,1.631c-0.023-0.07-0.038-0.109-0.049-0.15c-0.194-0.686-0.387-1.373-0.584-2.058
			c-0.016-0.055,0.002-0.147-0.109-0.147C29.379,41.342,28.821,41.341,28.215,41.341z M36.437,42.266
			c0.045,0.032,0.052,0.081,0.069,0.122c0.293,0.702,0.587,1.404,0.874,2.108c0.039,0.096,0.084,0.127,0.185,0.125
			c0.342-0.006,0.683-0.009,1.025,0.001c0.13,0.004,0.156-0.038,0.155-0.16c-0.005-0.838,0.001-1.676-0.007-2.514
			c-0.001-0.14,0.04-0.225,0.156-0.297c0.138-0.085,0.264-0.189,0.43-0.311c-0.453,0-0.862,0.007-1.27-0.004
			c-0.134-0.003-0.153,0.044-0.152,0.161c0.005,0.694,0.003,1.388,0.002,2.082c0,0.042-0.005,0.085-0.01,0.167
			c-0.328-0.782-0.64-1.521-0.945-2.264c-0.046-0.111-0.102-0.147-0.221-0.145c-0.443,0.008-0.886,0.003-1.329,0.003
			c-0.119,0-0.239,0-0.401,0c0.179,0.131,0.316,0.24,0.463,0.335c0.093,0.06,0.118,0.131,0.117,0.237
			c-0.004,0.849,0.001,1.697-0.005,2.546c-0.001,0.137,0.04,0.172,0.17,0.163c0.175-0.011,0.353-0.01,0.528,0
			c0.119,0.007,0.153-0.028,0.152-0.15c-0.006-0.678-0.004-1.356-0.002-2.034C36.419,42.384,36.403,42.325,36.437,42.266z
			 M22.853,42.825c0.199,0.195,0.365,0.352,0.523,0.515c0.067,0.069,0.134,0.116,0.236,0.103c0.037-0.005,0.102-0.02,0.106,0.038
			c0.009,0.122,0.005,0.245,0,0.368c-0.002,0.041-0.042,0.041-0.074,0.04c-0.277-0.007-0.555,0.02-0.831-0.019
			c-0.142-0.02-0.238-0.096-0.256-0.243c-0.053-0.43-0.053-0.861,0.001-1.291c0.016-0.131,0.096-0.21,0.227-0.234
			c0.233-0.041,0.466-0.041,0.699,0.002c0.071,0.013,0.154,0.042,0.167,0.108c0.037,0.195,0.179,0.153,0.304,0.155
			c0.117,0.001,0.235,0,0.352,0c0.302,0,0.328-0.034,0.252-0.335c-0.001-0.005-0.003-0.01-0.005-0.015
			c-0.123-0.406-0.432-0.596-0.817-0.675c-0.363-0.075-0.736-0.061-1.1-0.019c-0.533,0.062-0.826,0.327-0.927,0.847
			c-0.107,0.548-0.113,1.106-0.003,1.654c0.106,0.529,0.446,0.804,0.987,0.834c0.298,0.016,0.598,0.01,0.896,0.004
			c0.099-0.002,0.168,0.028,0.236,0.1c0.238,0.249,0.482,0.491,0.729,0.741c0.015-0.03,0.024-0.038,0.024-0.047
			c0.001-0.843,0-1.686,0.003-2.529c0-0.092-0.04-0.102-0.115-0.102c-0.395,0.003-0.79,0.001-1.185,0.001
			C23.156,42.825,23.03,42.825,22.853,42.825z M40.685,42.859c0.147,0.146,0.299,0.292,0.445,0.443
			c0.083,0.086,0.163,0.168,0.299,0.141c0.041-0.008,0.089-0.006,0.089,0.059c0,0.107,0,0.213,0,0.32
			c0,0.06-0.038,0.068-0.085,0.067c-0.272-0.007-0.544,0.017-0.816-0.017c-0.167-0.02-0.26-0.115-0.278-0.279
			c-0.046-0.41-0.046-0.82,0.001-1.229c0.017-0.148,0.098-0.245,0.252-0.268c0.223-0.033,0.446-0.035,0.668,0.004
			c0.077,0.013,0.168,0.042,0.182,0.112c0.038,0.192,0.176,0.153,0.301,0.154c0.165,0.001,0.331-0.008,0.496,0.003
			c0.121,0.008,0.14-0.04,0.135-0.146c-0.021-0.444-0.345-0.791-0.846-0.883c-0.365-0.067-0.736-0.059-1.101-0.017
			c-0.538,0.061-0.823,0.327-0.93,0.863c-0.106,0.532-0.106,1.075-0.007,1.606c0.1,0.537,0.409,0.829,0.928,0.856
			c0.623,0.032,1.248,0.013,1.873,0.018c0.096,0.001,0.08-0.064,0.08-0.12c0.001-0.534-0.002-1.067,0.003-1.601
			c0.001-0.106-0.041-0.121-0.132-0.121c-0.491,0.004-0.982,0.002-1.473,0.002C40.746,42.825,40.717,42.815,40.685,42.859z
			 M25.117,35.851c0.236,0.172,0.428,0.321,0.63,0.455c0.101,0.067,0.134,0.141,0.133,0.262c-0.005,1.142-0.003,2.283-0.003,3.425
			c0,0.072-0.021,0.145,0.104,0.145c0.955-0.004,1.91-0.003,2.865-0.001c0.084,0,0.111-0.028,0.109-0.111
			c-0.004-0.251-0.007-0.502,0.001-0.752c0.004-0.116-0.037-0.141-0.146-0.14c-0.539,0.005-1.078-0.002-1.616,0.005
			c-0.124,0.002-0.158-0.028-0.157-0.155c0.006-0.998,0.001-1.995,0.006-2.993c0-0.111-0.028-0.144-0.141-0.142
			c-0.405,0.007-0.811,0.003-1.216,0.003C25.512,35.851,25.339,35.851,25.117,35.851z M27.011,43.382
			c-0.229,0-0.413-0.004-0.597,0.002c-0.093,0.003-0.12-0.016-0.094-0.117c0.1-0.381,0.189-0.765,0.285-1.147
			c0.009-0.034,0.001-0.091,0.075-0.093c0.014,0.055,0.03,0.111,0.044,0.167c0.181,0.75,0.366,1.5,0.538,2.252
			c0.033,0.145,0.092,0.186,0.234,0.177c0.207-0.013,0.416-0.008,0.624-0.001c0.097,0.003,0.135-0.014,0.104-0.122
			c-0.289-1.019-0.576-2.039-0.86-3.059c-0.021-0.076-0.054-0.101-0.131-0.1c-0.384,0.004-0.769,0.003-1.153,0
			c-0.069-0.001-0.105,0.017-0.126,0.087c-0.294,1.029-0.589,2.057-0.886,3.085c-0.027,0.091,0.001,0.111,0.087,0.109
			c0.165-0.004,0.331-0.001,0.496-0.001c0.334,0,0.345,0.002,0.415-0.327c0.038-0.181,0.127-0.302,0.274-0.404
			C26.558,43.737,26.763,43.57,27.011,43.382z M33.373,40.109c0.025,0.014,0.035,0.023,0.044,0.023c0.582,0.001,1.164,0,1.746,0.004
			c0.095,0.001,0.1-0.044,0.1-0.118c-0.001-1.351-0.002-2.701,0.002-4.052c0-0.109-0.044-0.119-0.132-0.118
			c-0.294,0.004-0.587,0.008-0.881-0.001c-0.126-0.004-0.158,0.032-0.157,0.158c0.005,1.132,0,2.263,0.007,3.395
			c0.001,0.142-0.045,0.223-0.157,0.297C33.752,39.826,33.567,39.968,33.373,40.109z M34.574,42.985
			c0-0.506-0.002-1.013,0.002-1.519c0.001-0.093-0.015-0.132-0.12-0.127c-0.218,0.009-0.437,0.007-0.656,0.001
			c-0.09-0.002-0.118,0.024-0.118,0.116c0.003,1.018,0.003,2.037,0,3.055c0,0.1,0.041,0.112,0.123,0.111
			c0.213-0.004,0.427-0.007,0.64,0.001c0.106,0.004,0.133-0.03,0.131-0.133C34.571,43.987,34.574,43.486,34.574,42.985z
			 M20.312,19.505c-0.004-0.003-0.007-0.009-0.011-0.01c-0.004,0-0.008,0.005-0.012,0.008c0.003,0.004,0.007,0.01,0.011,0.01
			C20.303,19.514,20.307,19.509,20.312,19.505z"/>
		<path fill="#1F130E" d="M12.72,15.454c-0.013-0.003-0.032-0.001-0.023-0.023c0.001-0.003,0.025,0.005,0.038,0.007
			C12.731,15.444,12.725,15.449,12.72,15.454z"/>
		<path fill="#1F130E" d="M51.282,15.438c0.013-0.003,0.037-0.01,0.038-0.007c0.01,0.022-0.01,0.02-0.023,0.023
			C51.293,15.449,51.288,15.444,51.282,15.438z"/>
		<path fill="#1F130E" d="M0.813,20.556c0.004-0.01,0.008-0.019,0.012-0.029c0.004,0.006,0.008,0.011,0.012,0.017
			c-0.009,0.004-0.017,0.008-0.026,0.011C0.81,20.556,0.813,20.556,0.813,20.556z"/>
		<path fill="#1F130E" d="M63.195,20.553c-0.016-0.005-0.021-0.014-0.008-0.027c0.002-0.002,0.007,0,0.011,0
			c-0.003,0.008-0.006,0.016-0.009,0.025C63.19,20.551,63.195,20.553,63.195,20.553z"/>
		<path fill="#6AC3E6" d="M6.161,23.678c0.638,0.254,1.277,0.506,1.914,0.763c1.769,0.712,3.538,1.426,5.307,2.139
			c0.039,0.016,0.078,0.031,0.125,0.05c0.005-0.064-0.03-0.106-0.051-0.151c-0.682-1.44-1.366-2.879-2.048-4.319
			c-0.047-0.098-0.106-0.18-0.188-0.252c-1.635-1.423-3.269-2.847-4.903-4.271c-0.043-0.038-0.085-0.078-0.116-0.14
			c0.167,0.047,0.334,0.093,0.5,0.142c2.183,0.64,4.365,1.281,6.548,1.92c0.095,0.028,0.172,0.074,0.243,0.143
			c2.159,2.115,4.319,4.228,6.479,6.341c0.03,0.03,0.062,0.059,0.112,0.106c0-0.115,0.005-0.211-0.001-0.307
			c-0.062-0.964-0.129-1.928-0.188-2.892c-0.008-0.127-0.054-0.217-0.143-0.305c-0.679-0.665-1.354-1.334-2.029-2.003
			c-0.037-0.036-0.088-0.063-0.1-0.123c0.069-0.024,0.125,0.019,0.182,0.038c1.383,0.466,2.765,0.935,4.149,1.399
			c0.111,0.037,0.173,0.098,0.223,0.203c1.667,3.52,3.337,7.039,5.006,10.558c0.022,0.047,0.042,0.094,0.075,0.169
			c-0.42-0.119-0.814-0.226-1.204-0.343c-0.557-0.167-1.119-0.31-1.689-0.423c-0.107-0.021-0.164-0.066-0.21-0.164
			c-0.872-1.845-1.748-3.688-2.623-5.532c-0.022-0.047-0.047-0.092-0.106-0.131c0.145,1.609,0.289,3.219,0.439,4.88
			c-2.11-2.087-4.188-4.143-6.275-6.208c-0.033,0.094,0.021,0.142,0.047,0.195c1.425,2.886,2.851,5.771,4.277,8.657
			c0.108,0.218,0.108,0.218-0.142,0.218c-1.276,0-2.552-0.001-3.828,0.002c-0.097,0-0.167-0.023-0.237-0.097
			c-3.177-3.396-6.356-6.79-9.534-10.184c-0.015-0.016-0.027-0.033-0.041-0.049C6.142,23.697,6.152,23.687,6.161,23.678z
			 M15.552,24.945c-0.002,0.004-0.006,0.008-0.005,0.011c0.006,0.015,0.013,0.015,0.02,0c0.001-0.002-0.002-0.008-0.005-0.01
			C15.56,24.944,15.555,24.945,15.552,24.945z"/>
		<path fill="#6AC3E6" d="M57.51,23.653c-0.015,0.073-0.078,0.112-0.123,0.161c-2.997,3.271-6,6.536-8.985,9.819
			c-0.279,0.307-0.548,0.421-0.953,0.412c-1.153-0.027-2.306-0.009-3.459-0.009c-0.059,0-0.117,0-0.2,0
			c0.566-1.197,1.126-2.379,1.702-3.597c-2.825,0.821-5.617,1.632-8.44,2.452c0.159-0.336,0.302-0.643,0.448-0.949
			c1.546-3.259,3.093-6.518,4.637-9.778c0.048-0.102,0.105-0.169,0.22-0.202c5.051-1.478,10.101-2.959,15.152-4.439
			c0.025-0.007,0.05-0.014,0.092,0.002c-0.037,0.028-0.073,0.057-0.11,0.085c-1.946,1.442-3.893,2.884-5.838,4.328
			c-0.071,0.052-0.147,0.085-0.229,0.109c-2.295,0.674-4.59,1.348-6.885,2.02c-0.091,0.027-0.156,0.06-0.201,0.155
			c-0.774,1.644-1.553,3.285-2.331,4.927c-0.009,0.019-0.016,0.039-0.037,0.089c2.293-0.507,4.566-1.01,6.881-1.522
			c-0.95-0.492-1.867-0.967-2.814-1.458c0.45-0.103,0.869-0.2,1.288-0.296c3.34-0.763,6.68-1.526,10.02-2.289
			c0.056-0.013,0.111-0.039,0.171-0.016L57.51,23.653z"/>
		<path fill="#FEFEFE" d="M20.355,19.508c0.357,0.103,0.713,0.205,1.07,0.31c2.289,0.67,4.577,1.341,6.866,2.009
			c0.101,0.029,0.157,0.081,0.202,0.176c1.138,2.406,2.279,4.81,3.419,7.214c0.027,0.057,0.055,0.112,0.084,0.171
			c0.059-0.023,0.062-0.076,0.081-0.116c1.151-2.423,2.302-4.846,3.45-7.27c0.042-0.088,0.09-0.143,0.187-0.172
			c2.611-0.761,5.222-1.525,7.833-2.29c0.041-0.012,0.079-0.033,0.125-0.016c-0.027,0.059-0.087,0.076-0.134,0.106
			c-1.507,0.967-3.015,1.933-4.525,2.897c-0.084,0.054-0.142,0.118-0.185,0.209c-1.525,3.229-3.053,6.457-4.575,9.688
			c-0.064,0.136-0.138,0.177-0.285,0.176c-1.308-0.006-2.616-0.006-3.924,0c-0.141,0.001-0.212-0.036-0.275-0.169
			c-1.534-3.231-3.074-6.459-4.61-9.689c-0.046-0.096-0.107-0.163-0.196-0.22c-1.497-0.963-2.993-1.928-4.489-2.893
			c-0.044-0.028-0.087-0.057-0.131-0.086C20.348,19.532,20.352,19.52,20.355,19.508z"/>
		<path fill="#FCFCFC" d="M14.815,35.851c0.12,0,0.241,0,0.361,0c0.625,0,1.249,0.003,1.874-0.003
			c0.117-0.001,0.163,0.034,0.194,0.146c0.261,0.938,0.529,1.875,0.795,2.812c0.009,0.03,0.006,0.065,0.053,0.085
			c0.207-0.73,0.414-1.459,0.622-2.187c0.071-0.251,0.146-0.501,0.214-0.753c0.017-0.065,0.037-0.101,0.113-0.101
			c0.758,0.003,1.516,0.003,2.274,0.005c0.008,0,0.015,0.01,0.039,0.026c-0.205,0.149-0.402,0.297-0.606,0.437
			c-0.084,0.057-0.114,0.119-0.114,0.222c0.004,1.148,0,2.295,0.006,3.443c0.001,0.128-0.036,0.159-0.158,0.155
			c-0.272-0.009-0.545-0.011-0.816,0.001c-0.133,0.006-0.153-0.042-0.153-0.16c0.005-0.907,0.003-1.815,0.003-2.722
			c0-0.057,0-0.114,0-0.171c-0.008-0.001-0.015-0.002-0.023-0.003c-0.141,0.516-0.283,1.032-0.424,1.548
			c-0.125,0.457-0.254,0.913-0.373,1.371c-0.026,0.101-0.063,0.139-0.17,0.136c-0.293-0.007-0.587-0.01-0.881,0.001
			c-0.119,0.004-0.153-0.044-0.18-0.144c-0.245-0.915-0.493-1.83-0.743-2.743c-0.017-0.064-0.021-0.135-0.081-0.201
			c0,0.985-0.003,1.954,0.003,2.923c0.001,0.134-0.033,0.171-0.167,0.165c-0.266-0.011-0.534-0.01-0.8-0.001
			c-0.124,0.004-0.162-0.028-0.161-0.158c0.005-1.137,0.001-2.274,0.006-3.411c0.001-0.128-0.04-0.203-0.143-0.272
			c-0.195-0.13-0.381-0.274-0.57-0.412C14.811,35.873,14.813,35.862,14.815,35.851z"/>
		<path fill="#FEFEFE" d="M35.746,35.876c0.061-0.039,0.11-0.025,0.155-0.025c0.71-0.001,1.42,0.002,2.13-0.004
			c0.115-0.001,0.163,0.037,0.206,0.141c0.411,0.992,0.828,1.981,1.261,3.013c0.004-0.089,0.008-0.137,0.008-0.185
			c0-0.939,0.002-1.879-0.002-2.818c-0.001-0.113,0.017-0.154,0.144-0.152c0.554,0.008,1.109,0.004,1.714,0.004
			c-0.24,0.175-0.44,0.327-0.647,0.468c-0.085,0.058-0.115,0.12-0.114,0.223c0.004,1.142,0,2.284,0.005,3.426
			c0.001,0.127-0.022,0.172-0.162,0.169c-0.469-0.01-0.939-0.008-1.409-0.001c-0.11,0.002-0.159-0.036-0.199-0.133
			c-0.401-0.974-0.805-1.946-1.21-2.919c-0.011-0.027-0.01-0.064-0.065-0.08c0,0.061,0,0.117,0,0.172
			c0,0.934-0.002,1.868,0.003,2.802c0.001,0.124-0.03,0.163-0.157,0.158c-0.261-0.01-0.523-0.009-0.784,0
			c-0.123,0.004-0.161-0.028-0.16-0.157c0.005-1.137,0.001-2.274,0.006-3.41c0.001-0.127-0.038-0.203-0.141-0.272
			C36.133,36.167,35.948,36.023,35.746,35.876z"/>
		<path fill="#FCFCFC" d="M49.116,37.466c-0.356-0.119-0.698-0.235-1.042-0.345c-0.072-0.023-0.063-0.073-0.069-0.124
			c-0.025-0.194-0.091-0.26-0.286-0.276c-0.197-0.016-0.395-0.013-0.592,0.004c-0.148,0.013-0.251,0.076-0.273,0.238
			c-0.034,0.248,0.013,0.372,0.192,0.435c0.269,0.096,0.557,0.088,0.836,0.126c0.243,0.033,0.488,0.046,0.722,0.13
			c0.416,0.148,0.632,0.435,0.646,0.875c0.006,0.208,0.007,0.417-0.003,0.624c-0.026,0.505-0.381,0.932-0.882,0.992
			c-0.625,0.075-1.258,0.089-1.881-0.024c-0.536-0.097-0.778-0.387-0.814-0.932c-0.014-0.207-0.001-0.416-0.008-0.624
			c-0.003-0.093,0.036-0.095,0.105-0.073c0.305,0.096,0.609,0.191,0.915,0.284c0.065,0.02,0.09,0.05,0.096,0.121
			c0.019,0.231,0.109,0.329,0.334,0.353c0.234,0.025,0.47,0.024,0.704,0c0.191-0.019,0.268-0.114,0.275-0.308
			c0.002-0.059,0-0.117,0-0.176c0.001-0.155-0.071-0.25-0.226-0.282c-0.335-0.069-0.677-0.084-1.016-0.126
			c-0.159-0.02-0.317-0.036-0.472-0.081c-0.39-0.115-0.607-0.377-0.658-0.777c-0.042-0.33-0.057-0.662,0.039-0.984
			c0.105-0.354,0.331-0.608,0.705-0.663c0.619-0.092,1.246-0.113,1.863,0.008c0.539,0.105,0.788,0.439,0.791,0.984
			C49.118,37.047,49.116,37.249,49.116,37.466z"/>
		<path fill="#FCFCFC" d="M43.771,38.491c-0.196,0.15-0.355,0.271-0.513,0.392c-0.03,0.023-0.057,0.049-0.09,0.067
			c-0.418,0.229-0.672,0.569-0.714,1.052c-0.008,0.091-0.054,0.12-0.148,0.118c-0.331-0.006-0.662-0.007-0.993,0
			c-0.114,0.002-0.116-0.032-0.088-0.128c0.391-1.35,0.778-2.7,1.163-4.052c0.025-0.087,0.061-0.115,0.153-0.114
			c0.512,0.005,1.025,0.004,1.537,0.001c0.081,0,0.119,0.018,0.143,0.105c0.377,1.354,0.758,2.706,1.141,4.058
			c0.033,0.116-0.009,0.13-0.111,0.128c-0.315-0.005-0.63-0.01-0.945,0.002c-0.124,0.004-0.162-0.045-0.187-0.151
			c-0.244-1.025-0.49-2.049-0.74-3.073c-0.015-0.06,0.007-0.168-0.08-0.166c-0.081,0.002-0.061,0.109-0.077,0.17
			c-0.12,0.469-0.229,0.942-0.354,1.41c-0.038,0.143-0.024,0.192,0.138,0.183C43.245,38.481,43.484,38.491,43.771,38.491z"/>
		<path fill="#FCFCFC" d="M30.909,39.147c0.271-1.039,0.544-2.072,0.806-3.107c0.038-0.152,0.098-0.197,0.253-0.194
			c0.518,0.011,1.035,0.004,1.553,0.005c0.05,0,0.104-0.016,0.17,0.026c-0.253,0.154-0.493,0.306-0.74,0.447
			c-0.091,0.052-0.138,0.118-0.166,0.217c-0.322,1.142-0.649,2.283-0.968,3.426c-0.037,0.132-0.092,0.172-0.227,0.17
			c-0.475-0.009-0.95-0.008-1.425,0c-0.115,0.002-0.152-0.038-0.18-0.143c-0.313-1.15-0.635-2.298-0.947-3.449
			c-0.03-0.109-0.083-0.174-0.176-0.227c-0.243-0.141-0.481-0.289-0.731-0.44c0.05-0.042,0.099-0.026,0.142-0.026
			c0.539-0.001,1.078,0.003,1.617-0.004c0.132-0.002,0.191,0.03,0.224,0.168c0.24,0.999,0.491,1.995,0.738,2.992
			C30.865,39.055,30.87,39.103,30.909,39.147z"/>
		<path fill="#FCFCFC" d="M22.793,38.516c0.256,0,0.511-0.005,0.767,0.002c0.102,0.003,0.11-0.03,0.089-0.116
			c-0.129-0.522-0.254-1.045-0.38-1.568c-0.008-0.035-0.001-0.084-0.05-0.089c-0.065-0.007-0.055,0.055-0.064,0.091
			c-0.136,0.542-0.269,1.085-0.404,1.628c-0.129,0.521-0.26,1.043-0.388,1.564c-0.017,0.069-0.04,0.11-0.126,0.109
			c-0.342-0.005-0.683-0.004-1.025-0.001c-0.09,0.001-0.11-0.024-0.084-0.111c0.393-1.36,0.784-2.721,1.174-4.083
			c0.02-0.068,0.052-0.093,0.123-0.092c0.529,0.003,1.057,0.003,1.586,0c0.075,0,0.099,0.033,0.118,0.099
			c0.38,1.359,0.762,2.717,1.145,4.074c0.022,0.08,0.013,0.115-0.084,0.114c-0.342-0.005-0.683-0.004-1.025,0
			c-0.073,0.001-0.11-0.023-0.121-0.092c-0.002-0.01-0.007-0.02-0.008-0.031c-0.035-0.475-0.289-0.797-0.688-1.037
			c-0.203-0.122-0.38-0.285-0.569-0.43C22.783,38.536,22.788,38.526,22.793,38.516z"/>
		<path fill="#FCFCFC" d="M28.215,41.341c0.606,0,1.164,0.001,1.723-0.001c0.111,0,0.093,0.091,0.109,0.147
			c0.198,0.685,0.39,1.372,0.584,2.058c0.011,0.041,0.026,0.08,0.049,0.15c0.16-0.563,0.312-1.097,0.464-1.631
			c0.06-0.21,0.123-0.419,0.178-0.63c0.018-0.068,0.043-0.095,0.117-0.094c0.575,0.003,1.151,0.002,1.776,0.002
			c-0.182,0.133-0.326,0.244-0.477,0.345c-0.08,0.054-0.107,0.116-0.107,0.211c0.004,0.849-0.002,1.697,0.006,2.546
			c0.002,0.153-0.046,0.188-0.187,0.179c-0.181-0.012-0.363-0.01-0.544,0c-0.11,0.006-0.131-0.035-0.13-0.136
			c0.004-0.699,0.002-1.398,0.002-2.098c0-0.02,0-0.039,0-0.103c-0.087,0.18-0.111,0.337-0.153,0.487
			c-0.16,0.574-0.32,1.148-0.471,1.725c-0.026,0.099-0.065,0.127-0.162,0.124c-0.208-0.007-0.417-0.009-0.624,0.001
			c-0.109,0.005-0.142-0.038-0.168-0.137c-0.182-0.684-0.371-1.366-0.558-2.049c-0.013-0.049-0.028-0.097-0.066-0.142
			c0,0.706-0.005,1.413,0.004,2.119c0.002,0.161-0.029,0.227-0.203,0.209c-0.169-0.017-0.342-0.012-0.512-0.001
			c-0.122,0.008-0.151-0.031-0.15-0.151c0.006-0.859-0.001-1.719,0.006-2.578c0.001-0.139-0.033-0.229-0.154-0.299
			C28.458,41.53,28.36,41.446,28.215,41.341z"/>
		<path fill="#FCFCFC" d="M36.437,42.266c-0.033,0.059-0.017,0.118-0.018,0.173c-0.001,0.678-0.004,1.356,0.002,2.034
			c0.001,0.122-0.032,0.157-0.152,0.15c-0.176-0.01-0.353-0.011-0.528,0c-0.13,0.008-0.171-0.027-0.17-0.163
			c0.007-0.849,0.002-1.697,0.005-2.546c0-0.106-0.024-0.177-0.117-0.237c-0.147-0.094-0.284-0.204-0.463-0.335
			c0.162,0,0.281,0,0.401,0c0.443,0,0.886,0.005,1.329-0.003c0.12-0.002,0.175,0.034,0.221,0.145
			c0.305,0.743,0.618,1.482,0.945,2.264c0.005-0.082,0.01-0.125,0.01-0.167c0-0.694,0.003-1.388-0.002-2.082
			c-0.001-0.117,0.018-0.165,0.152-0.161c0.408,0.01,0.817,0.004,1.27,0.004c-0.166,0.121-0.292,0.226-0.43,0.311
			c-0.117,0.072-0.157,0.157-0.156,0.297c0.008,0.838,0.001,1.676,0.007,2.514c0.001,0.121-0.025,0.164-0.155,0.16
			c-0.341-0.01-0.683-0.007-1.025-0.001c-0.1,0.002-0.146-0.03-0.185-0.125c-0.287-0.705-0.581-1.406-0.874-2.108
			C36.488,42.347,36.482,42.298,36.437,42.266z"/>
		<path fill="#FCFCFC" d="M22.853,42.825c0.177,0,0.303,0,0.429,0c0.395,0,0.79,0.001,1.185-0.001
			c0.076-0.001,0.116,0.009,0.115,0.102c-0.004,0.843-0.002,1.686-0.003,2.529c0,0.009-0.008,0.017-0.024,0.047
			c-0.247-0.25-0.492-0.492-0.729-0.741c-0.068-0.071-0.137-0.101-0.236-0.1c-0.299,0.005-0.598,0.012-0.896-0.004
			c-0.541-0.029-0.881-0.305-0.987-0.834c-0.109-0.548-0.104-1.107,0.003-1.654c0.102-0.519,0.394-0.785,0.927-0.847
			c0.364-0.042,0.737-0.056,1.1,0.019c0.385,0.08,0.694,0.269,0.817,0.675c0.002,0.005,0.004,0.01,0.005,0.015
			c0.076,0.3,0.05,0.335-0.252,0.335c-0.117,0-0.235,0.001-0.352,0c-0.125-0.001-0.267,0.04-0.304-0.155
			c-0.013-0.066-0.096-0.095-0.167-0.108c-0.233-0.043-0.466-0.044-0.699-0.002c-0.131,0.023-0.211,0.103-0.227,0.234
			c-0.054,0.43-0.054,0.861-0.001,1.291c0.018,0.148,0.114,0.224,0.256,0.243c0.276,0.039,0.554,0.012,0.831,0.019
			c0.032,0.001,0.073,0,0.074-0.04c0.005-0.122,0.009-0.246,0-0.368c-0.004-0.058-0.068-0.042-0.106-0.038
			c-0.102,0.013-0.169-0.034-0.236-0.103C23.218,43.177,23.052,43.02,22.853,42.825z"/>
		<path fill="#FCFCFC" d="M40.685,42.859c0.033-0.043,0.062-0.034,0.086-0.034c0.491-0.001,0.982,0.001,1.473-0.002
			c0.091-0.001,0.133,0.015,0.132,0.121c-0.005,0.534-0.002,1.067-0.003,1.601c0,0.056,0.016,0.121-0.08,0.12
			c-0.624-0.005-1.25,0.014-1.873-0.018c-0.52-0.027-0.829-0.318-0.928-0.856c-0.099-0.532-0.099-1.075,0.007-1.606
			c0.107-0.536,0.392-0.802,0.93-0.863c0.364-0.041,0.736-0.05,1.101,0.017c0.501,0.092,0.825,0.439,0.846,0.883
			c0.005,0.106-0.014,0.154-0.135,0.146c-0.165-0.011-0.331-0.002-0.496-0.003c-0.125-0.001-0.262,0.039-0.301-0.154
			c-0.014-0.07-0.106-0.099-0.182-0.112c-0.222-0.039-0.445-0.037-0.668-0.004c-0.154,0.023-0.235,0.12-0.252,0.268
			c-0.047,0.41-0.047,0.82-0.001,1.229c0.018,0.164,0.111,0.259,0.278,0.279c0.271,0.033,0.544,0.01,0.816,0.017
			c0.047,0.001,0.086-0.007,0.085-0.067c-0.001-0.107,0-0.213,0-0.32c0-0.065-0.048-0.067-0.089-0.059
			c-0.137,0.027-0.216-0.055-0.299-0.141C40.983,43.151,40.832,43.005,40.685,42.859z"/>
		<path fill="#FCFCFC" d="M25.117,35.851c0.221,0,0.395,0,0.568,0c0.405,0,0.811,0.004,1.216-0.003
			c0.113-0.002,0.141,0.031,0.141,0.142c-0.004,0.998,0,1.995-0.006,2.993c-0.001,0.127,0.034,0.157,0.157,0.155
			c0.539-0.007,1.078,0,1.616-0.005c0.108-0.001,0.15,0.024,0.146,0.14c-0.009,0.25-0.005,0.501-0.001,0.752
			c0.001,0.083-0.025,0.111-0.109,0.111c-0.955-0.002-1.91-0.003-2.865,0.001c-0.124,0.001-0.104-0.072-0.104-0.145
			c0-1.142-0.002-2.283,0.003-3.425c0.001-0.12-0.032-0.194-0.133-0.262C25.545,36.171,25.354,36.023,25.117,35.851z"/>
		<path fill="#FCFCFC" d="M27.011,43.382c-0.248,0.189-0.453,0.356-0.67,0.506c-0.148,0.103-0.236,0.223-0.274,0.404
			c-0.07,0.33-0.081,0.327-0.415,0.327c-0.165,0-0.331-0.003-0.496,0.001c-0.086,0.002-0.114-0.017-0.087-0.109
			c0.298-1.028,0.593-2.056,0.886-3.085c0.02-0.071,0.057-0.088,0.126-0.087c0.384,0.003,0.769,0.003,1.153,0
			c0.078-0.001,0.11,0.024,0.131,0.1c0.284,1.02,0.571,2.04,0.86,3.059c0.031,0.108-0.007,0.125-0.104,0.122
			c-0.208-0.006-0.417-0.011-0.624,0.001c-0.142,0.009-0.201-0.032-0.234-0.177c-0.172-0.752-0.357-1.502-0.538-2.252
			c-0.014-0.056-0.029-0.112-0.044-0.167c-0.074,0.001-0.066,0.059-0.075,0.093c-0.096,0.382-0.185,0.766-0.285,1.147
			c-0.026,0.101,0.001,0.119,0.094,0.117C26.598,43.378,26.782,43.382,27.011,43.382z"/>
		<path fill="#FCFCFC" d="M33.373,40.109c0.194-0.141,0.378-0.283,0.571-0.412c0.112-0.075,0.157-0.156,0.157-0.297
			c-0.007-1.132-0.002-2.263-0.007-3.395c-0.001-0.126,0.032-0.162,0.157-0.158c0.293,0.009,0.587,0.006,0.881,0.001
			c0.088-0.001,0.132,0.009,0.132,0.118c-0.004,1.351-0.003,2.701-0.002,4.052c0,0.073-0.005,0.118-0.1,0.118
			c-0.582-0.004-1.164-0.003-1.746-0.004C33.408,40.132,33.399,40.123,33.373,40.109z"/>
		<path fill="#FCFCFC" d="M34.574,42.985c0,0.501-0.003,1.002,0.002,1.503c0.001,0.104-0.025,0.138-0.131,0.133
			c-0.213-0.008-0.426-0.005-0.64-0.001c-0.082,0.002-0.124-0.011-0.123-0.111c0.004-1.018,0.003-2.037,0-3.055
			c0-0.092,0.028-0.118,0.118-0.116c0.218,0.006,0.437,0.008,0.656-0.001c0.105-0.004,0.121,0.035,0.12,0.127
			C34.572,41.972,34.574,42.479,34.574,42.985z"/>
		<path fill="#6AC3E6" d="M6.132,23.706c-0.01-0.014-0.045-0.022-0.024-0.044c0.014-0.015,0.039-0.004,0.053,0.016
			C6.152,23.687,6.142,23.697,6.132,23.706z"/>
		<path fill="#FEFEFE" d="M20.312,19.505c-0.005,0.004-0.009,0.009-0.012,0.009c-0.004,0-0.007-0.006-0.011-0.01
			c0.004-0.003,0.008-0.009,0.012-0.008C20.304,19.496,20.308,19.502,20.312,19.505z"/>
		<path fill="#6AC3E6" d="M57.514,23.656c0.002-0.007,0.004-0.015,0.005-0.022c0.005,0.002,0.009,0.004,0.014,0.005
			c-0.007,0.005-0.015,0.01-0.022,0.014C57.51,23.653,57.514,23.656,57.514,23.656z"/>
		<path fill="#1F130E" d="M15.552,24.945c0.003,0,0.008-0.001,0.01,0c0.003,0.002,0.006,0.008,0.005,0.01
			c-0.006,0.015-0.014,0.015-0.02,0C15.546,24.953,15.55,24.949,15.552,24.945z"/>
	</g>
</g>
</svg>
