<?xml version="1.0" encoding="utf-8"?>
<!-- Generator: Adobe Illustrator 22.0.0, SVG Export Plug-In . SVG Version: 6.00 Build 0)  -->
<svg version="1.1" id="Camada_1" xmlns="http://www.w3.org/2000/svg" xmlns:xlink="http://www.w3.org/1999/xlink" x="0px" y="0px"
	 width="64px" height="64px" viewBox="0 0 64 64" enable-background="new 0 0 64 64" xml:space="preserve">
<g>
	<g>
		<path fill="#1F130E" d="M51.306,15.47c-0.356,0.328-0.743,0.621-1.117,0.928c-0.825,0.677-1.654,1.349-2.481,2.023
			c-0.016,0.013-0.036,0.023-0.036,0.064c0.321-0.08,0.642-0.16,0.962-0.241c3.734-0.946,7.468-1.893,11.202-2.84
			c1.324-0.336,2.647-0.672,3.971-1.007c0.046-0.012,0.094-0.019,0.141-0.029c0.006,0.006,0.011,0.012,0.017,0.018
			c-0.382,0.339-0.793,0.643-1.193,0.96c-3.053,2.422-6.108,4.841-9.162,7.262c-0.033,0.026-0.064,0.053-0.084,0.107
			c0.27-0.06,0.54-0.119,0.81-0.179c2.307-0.519,4.613-1.038,6.919-1.557c0.596-0.134,1.192-0.269,1.788-0.402
			c0.055-0.012,0.112-0.041,0.168,0.001l0-0.001c-0.281,0.246-0.523,0.531-0.779,0.801c-3.966,4.17-7.93,8.342-11.895,12.513
			c-0.043,0.045-0.084,0.091-0.146,0.158c1.518,0,3.008,0,4.545,0c-0.256,0.184-0.474,0.341-0.693,0.498
			c-1.175,0.84-2.35,1.68-3.528,2.516c-0.103,0.073-0.139,0.15-0.138,0.274c0.004,1.425,0,2.851,0.006,4.276
			c0.001,0.143-0.036,0.173-0.175,0.173c-1.772-0.005-3.545-0.002-5.318-0.005c-0.12,0-0.201,0.041-0.296,0.115
			c-0.311,0.245-0.438,0.527-0.399,0.943c0.054,0.571,0.018,1.15-0.164,1.708c-0.35,1.073-1.238,1.781-2.367,1.873
			c-0.085,0.007-0.173,0.031-0.255,0.019c-0.252-0.038-0.42,0.071-0.593,0.248c-0.935,0.952-1.884,1.891-2.827,2.836
			c-0.04,0.04-0.069,0.091-0.103,0.137c-0.014-0.008-0.028-0.016-0.042-0.025c0-0.056,0-0.113,0-0.169
			c0-0.972-0.002-1.943,0.003-2.915c0.001-0.12-0.022-0.161-0.154-0.161c-3.913,0.004-7.827,0.004-11.74,0
			c-0.129,0-0.156,0.038-0.156,0.16c0.005,0.977,0.003,1.954,0.003,2.931c0,0.051,0,0.102,0,0.153
			c-0.015,0.009-0.03,0.019-0.045,0.028c-0.029-0.043-0.053-0.091-0.089-0.127c-0.992-0.994-1.986-1.986-2.976-2.982
			c-0.082-0.083-0.163-0.115-0.279-0.114c-0.689,0.011-1.332-0.139-1.887-0.571c-0.604-0.47-0.921-1.104-1.035-1.847
			c-0.079-0.514-0.067-1.032-0.035-1.55c0.007-0.111-0.035-0.181-0.098-0.267c-0.261-0.358-0.6-0.439-1.035-0.432
			c-1.628,0.026-3.257,0.009-4.885,0.014c-0.136,0-0.177-0.026-0.176-0.172c0.006-1.42,0.002-2.84,0.007-4.26
			c0-0.136-0.036-0.218-0.151-0.3c-1.352-0.959-2.699-1.924-4.048-2.888c-0.041-0.03-0.081-0.061-0.152-0.115
			c1.527,0,3.017,0,4.541,0c-4.283-4.507-8.543-8.988-12.803-13.47c0.005-0.01,0.009-0.02,0.014-0.03
			c2.71,0.724,5.419,1.448,8.173,2.184c-0.189-0.327-0.277-0.651-0.552-0.894c-2.793-2.458-5.577-4.925-8.363-7.39
			C0.094,14.423,0.063,14.394,0,14.337c5.482,1.39,10.923,2.769,16.364,4.149c0.005-0.008,0.01-0.016,0.015-0.024
			c-0.256-0.209-0.511-0.417-0.767-0.626c-0.943-0.769-1.885-1.537-2.828-2.307c-0.019-0.016-0.033-0.039-0.05-0.058l-0.004,0.003
			c0.246,0.011,0.473,0.106,0.705,0.17c5.068,1.402,10.134,2.812,15.205,4.205c0.355,0.098,0.57,0.257,0.741,0.59
			c0.834,1.616,1.698,3.216,2.552,4.822c0.024,0.045,0.05,0.089,0.086,0.153c0.07-0.129,0.131-0.238,0.189-0.349
			c0.877-1.648,1.754-3.295,2.627-4.944c0.049-0.093,0.109-0.139,0.21-0.167c4.91-1.357,9.819-2.718,14.728-4.078
			c0.471-0.13,0.941-0.263,1.412-0.394c0.039-0.011,0.08-0.033,0.122-0.007L51.306,15.47z M27.019,43.437
			c0.091,0.361,0.185,0.721,0.272,1.082c0.021,0.087,0.055,0.121,0.15,0.118c0.229-0.008,0.459-0.008,0.688,0
			c0.111,0.004,0.137-0.026,0.106-0.134c-0.288-1.013-0.574-2.027-0.855-3.042c-0.024-0.085-0.061-0.107-0.143-0.106
			c-0.277,0.004-0.555,0.002-0.832,0.002c-0.409,0-0.41,0-0.521,0.386c-0.263,0.915-0.522,1.832-0.79,2.745
			c-0.039,0.131-0.01,0.155,0.115,0.149c0.17-0.009,0.341-0.002,0.512-0.002c0.277,0,0.272-0.002,0.35-0.271
			c0.033-0.114,0.019-0.253,0.127-0.335c0.262-0.2,0.528-0.396,0.792-0.593C26.999,43.437,27.009,43.437,27.019,43.437z
			 M22.784,38.536l-0.005-0.002c0.167,0.173,0.361,0.318,0.561,0.442c0.404,0.249,0.675,0.57,0.709,1.059
			c0,0.005,0.003,0.01,0.004,0.016c0.013,0.074,0.05,0.102,0.131,0.101c0.336-0.005,0.673-0.005,1.009,0
			c0.1,0.001,0.118-0.029,0.091-0.12c-0.075-0.25-0.144-0.501-0.214-0.753c-0.308-1.097-0.618-2.193-0.923-3.29
			c-0.023-0.085-0.05-0.124-0.147-0.124c-0.518,0.005-1.036,0.004-1.553,0.001c-0.077,0-0.112,0.022-0.134,0.099
			c-0.387,1.356-0.777,2.712-1.169,4.067c-0.027,0.095-0.011,0.121,0.088,0.12c0.336-0.004,0.673-0.005,1.009,0.001
			c0.091,0.002,0.118-0.039,0.137-0.116c0.107-0.44,0.215-0.879,0.328-1.317C22.722,38.657,22.709,38.576,22.784,38.536z
			 M43.767,38.536c0.014,0.04,0.032,0.078,0.042,0.119c0.11,0.45,0.22,0.899,0.326,1.35c0.023,0.097,0.064,0.135,0.17,0.132
			c0.32-0.009,0.64-0.007,0.96-0.001c0.109,0.002,0.138-0.022,0.107-0.131c-0.383-1.351-0.764-2.703-1.14-4.056
			c-0.024-0.088-0.063-0.105-0.143-0.104c-0.518,0.003-1.035,0.003-1.553-0.001c-0.079-0.001-0.112,0.025-0.133,0.098
			c-0.389,1.361-0.778,2.721-1.172,4.08c-0.03,0.104,0.002,0.115,0.091,0.114c0.331-0.003,0.662-0.005,0.992,0.001
			c0.092,0.002,0.132-0.025,0.152-0.115c0.038-0.177,0.087-0.351,0.133-0.526c0.017-0.067,0.042-0.124,0.105-0.17
			c0.352-0.259,0.699-0.525,1.047-0.788C43.757,38.537,43.762,38.537,43.767,38.536z M57.523,23.673
			c-0.06-0.022-0.115,0.004-0.171,0.016c-3.34,0.763-6.679,1.526-10.019,2.289c-0.419,0.096-0.837,0.192-1.287,0.296
			c0.947,0.491,1.864,0.966,2.813,1.458c-2.314,0.512-4.587,1.014-6.876,1.52c0.013-0.039,0.015-0.049,0.02-0.059
			c0.784-1.656,1.569-3.313,2.351-4.97c0.043-0.091,0.111-0.116,0.194-0.14c2.295-0.672,4.59-1.346,6.884-2.02
			c0.077-0.022,0.15-0.05,0.216-0.099c1.962-1.456,3.926-2.911,5.889-4.367c0.024-0.017,0.07-0.023,0.056-0.078
			c-0.026,0.007-0.051,0.013-0.076,0.021c-5.05,1.48-10.1,2.961-15.15,4.439c-0.116,0.034-0.172,0.101-0.22,0.202
			c-1.544,3.26-3.091,6.518-4.637,9.777c-0.145,0.306-0.289,0.613-0.448,0.949c2.823-0.82,5.615-1.631,8.439-2.452
			c-0.576,1.218-1.136,2.4-1.702,3.597c0.083,0,0.141,0,0.2,0c1.271,0,2.541-0.003,3.812,0.004c0.158,0.001,0.263-0.048,0.368-0.163
			c3.07-3.355,6.144-6.707,9.217-10.061c0.045-0.049,0.108-0.088,0.123-0.161c0.007-0.005,0.015-0.01,0.022-0.014
			c-0.005-0.002-0.009-0.004-0.014-0.005C57.527,23.658,57.525,23.666,57.523,23.673z M6.176,23.696
			c-0.013-0.02-0.038-0.032-0.053-0.016c-0.021,0.022,0.013,0.03,0.024,0.044c0.014,0.016,0.026,0.034,0.041,0.049
			c3.178,3.394,6.357,6.788,9.534,10.183c0.069,0.074,0.139,0.098,0.237,0.097c1.276-0.003,2.552-0.002,3.828-0.002
			c0.25,0,0.25,0,0.142-0.218c-1.426-2.885-2.852-5.77-4.277-8.656c-0.026-0.053-0.08-0.101-0.047-0.195
			c2.087,2.065,4.165,4.12,6.275,6.208c-0.149-1.661-0.294-3.27-0.439-4.879c0.059,0.039,0.084,0.085,0.106,0.131
			c0.875,1.843,1.751,3.687,2.623,5.532c0.046,0.097,0.103,0.142,0.21,0.164c0.57,0.114,1.132,0.256,1.689,0.423
			c0.391,0.117,0.785,0.224,1.183,0.337c0.001-0.084-0.041-0.136-0.068-0.192c-1.664-3.509-3.33-7.018-4.992-10.529
			c-0.05-0.105-0.112-0.166-0.223-0.203c-1.383-0.464-2.765-0.933-4.148-1.399c-0.057-0.019-0.113-0.062-0.182-0.038
			c0.012,0.06,0.063,0.086,0.1,0.123c0.675,0.669,1.35,1.338,2.029,2.003c0.09,0.088,0.135,0.178,0.143,0.305
			c0.059,0.964,0.126,1.928,0.188,2.892c0.006,0.095,0.001,0.192,0.001,0.307c-0.05-0.047-0.081-0.076-0.112-0.106
			c-2.16-2.113-4.32-4.226-6.478-6.34c-0.071-0.07-0.148-0.115-0.243-0.143c-2.183-0.639-4.365-1.28-6.547-1.92
			c-0.166-0.049-0.334-0.094-0.5-0.142c0.031,0.062,0.072,0.102,0.116,0.14c1.634,1.424,3.267,2.848,4.902,4.271
			c0.083,0.072,0.142,0.154,0.189,0.252c0.681,1.44,1.365,2.879,2.047,4.318c0.021,0.045,0.056,0.087,0.051,0.151
			c-0.047-0.019-0.086-0.034-0.125-0.05c-1.769-0.713-3.537-1.427-5.306-2.138C7.453,24.202,6.814,23.95,6.176,23.696z
			 M20.337,19.549c0.059,0.039,0.106,0.07,0.153,0.101c1.496,0.965,2.992,1.93,4.489,2.892c0.089,0.057,0.148,0.126,0.194,0.222
			c1.541,3.239,3.086,6.476,4.626,9.716c0.048,0.101,0.1,0.138,0.213,0.137c1.329-0.004,2.659-0.005,3.988,0.001
			c0.138,0.001,0.202-0.041,0.26-0.165c1.523-3.23,3.05-6.458,4.575-9.687c0.045-0.096,0.103-0.165,0.193-0.223
			c1.514-0.966,3.026-1.936,4.538-2.905c0.041-0.026,0.099-0.038,0.118-0.107c-0.042,0.008-0.079,0.013-0.113,0.023
			c-2.616,0.765-5.231,1.531-7.847,2.294c-0.098,0.029-0.144,0.087-0.185,0.174c-1.143,2.415-2.289,4.828-3.436,7.241
			c-0.023,0.049-0.027,0.114-0.095,0.142c-0.029-0.06-0.057-0.117-0.084-0.174c-1.141-2.404-2.282-4.808-3.419-7.213
			c-0.042-0.089-0.091-0.142-0.188-0.17c-2.606-0.76-5.211-1.522-7.817-2.284C20.454,19.551,20.411,19.524,20.337,19.549z
			 M14.814,35.894c0.201,0.146,0.394,0.293,0.594,0.428c0.095,0.064,0.127,0.134,0.127,0.249c-0.005,1.132,0,2.263-0.006,3.395
			c-0.001,0.14,0.025,0.197,0.18,0.188c0.255-0.014,0.513-0.014,0.768,0c0.151,0.008,0.181-0.043,0.18-0.185
			c-0.006-0.963-0.003-1.925-0.003-2.898c0.064,0.06,0.064,0.134,0.081,0.197c0.25,0.914,0.499,1.828,0.743,2.743
			c0.028,0.105,0.068,0.145,0.182,0.141c0.293-0.01,0.587-0.007,0.881-0.001c0.095,0.002,0.138-0.023,0.164-0.123
			c0.13-0.5,0.27-0.996,0.407-1.494c0.131-0.48,0.263-0.96,0.394-1.439c0.007,0.001,0.015,0.003,0.022,0.004c0,0.037,0,0.074,0,0.11
			c0,0.934,0.002,1.868-0.003,2.802c-0.001,0.111,0.026,0.144,0.139,0.141c0.277-0.009,0.555-0.01,0.832,0
			c0.128,0.005,0.156-0.035,0.155-0.158c-0.005-1.137,0-2.274-0.006-3.411c-0.001-0.128,0.041-0.202,0.143-0.271
			c0.195-0.132,0.382-0.276,0.59-0.427c-0.042-0.011-0.056-0.018-0.07-0.018c-0.747-0.001-1.494,0.001-2.242-0.003
			c-0.095-0.001-0.113,0.048-0.133,0.119c-0.11,0.395-0.223,0.789-0.335,1.183c-0.165,0.579-0.329,1.158-0.494,1.74
			c-0.048-0.023-0.045-0.058-0.054-0.088c-0.266-0.937-0.533-1.873-0.796-2.811c-0.028-0.101-0.062-0.145-0.179-0.144
			c-0.71,0.007-1.42,0.003-2.13,0.004C14.907,35.868,14.863,35.852,14.814,35.894z M35.758,35.893
			c0.201,0.147,0.387,0.29,0.582,0.421c0.103,0.069,0.141,0.146,0.141,0.272c-0.005,1.137-0.001,2.273-0.006,3.41
			c-0.001,0.129,0.037,0.161,0.16,0.157c0.261-0.009,0.523-0.01,0.784,0c0.127,0.005,0.158-0.034,0.157-0.158
			c-0.005-0.934-0.003-1.868-0.003-2.802c0-0.055,0-0.111,0-0.172c0.055,0.017,0.054,0.054,0.065,0.081
			c0.404,0.972,0.809,1.945,1.209,2.919c0.04,0.098,0.089,0.134,0.199,0.133c0.47-0.007,0.939-0.009,1.409,0.001
			c0.14,0.003,0.162-0.043,0.161-0.17c-0.005-1.142-0.001-2.284-0.005-3.426c0-0.103,0.03-0.165,0.114-0.223
			c0.207-0.141,0.408-0.293,0.648-0.468c-0.606,0-1.16,0.005-1.715-0.004c-0.127-0.002-0.145,0.04-0.144,0.152
			c0.004,0.939,0.003,1.879,0.002,2.818c0,0.048-0.004,0.096-0.008,0.184c-0.433-1.031-0.85-2.02-1.261-3.012
			c-0.043-0.104-0.091-0.142-0.206-0.141c-0.71,0.006-1.42,0.003-2.129,0.004C35.867,35.868,35.819,35.853,35.758,35.893z
			 M49.127,37.482c0-0.222,0.001-0.419,0-0.616c-0.004-0.547-0.251-0.882-0.788-0.988c-0.617-0.121-1.243-0.1-1.863-0.009
			c-0.38,0.056-0.607,0.314-0.712,0.676c-0.089,0.308-0.079,0.623-0.039,0.937c0.061,0.484,0.287,0.728,0.767,0.838
			c0.119,0.027,0.242,0.04,0.363,0.056c0.338,0.044,0.68,0.058,1.015,0.126c0.155,0.031,0.23,0.122,0.23,0.278
			c0,0.059,0.002,0.117,0,0.176c-0.006,0.202-0.086,0.296-0.287,0.314c-0.229,0.02-0.459,0.023-0.688-0.001
			c-0.227-0.024-0.317-0.123-0.338-0.35c-0.005-0.058-0.012-0.1-0.077-0.12c-0.316-0.096-0.631-0.194-0.946-0.292
			c-0.068-0.021-0.095-0.003-0.093,0.073c0.006,0.219-0.008,0.439,0.011,0.656c0.045,0.53,0.285,0.808,0.808,0.903
			c0.623,0.113,1.256,0.1,1.881,0.025c0.509-0.061,0.862-0.491,0.886-1.005c0.01-0.202,0.009-0.406,0.003-0.608
			c-0.013-0.441-0.228-0.73-0.642-0.878c-0.233-0.084-0.479-0.097-0.722-0.13c-0.279-0.038-0.566-0.031-0.836-0.125
			c-0.182-0.064-0.231-0.183-0.196-0.432c0.023-0.159,0.098-0.231,0.285-0.241c0.186-0.01,0.373-0.013,0.56-0.005
			c0.216,0.009,0.279,0.072,0.306,0.288c0.007,0.058,0.018,0.096,0.081,0.117C48.435,37.251,48.772,37.364,49.127,37.482z
			 M33.708,35.892c-0.036-0.015-0.044-0.023-0.053-0.023c-0.592-0.001-1.185,0-1.777-0.004c-0.082-0.001-0.106,0.031-0.125,0.106
			c-0.1,0.398-0.206,0.793-0.309,1.19c-0.174,0.665-0.347,1.331-0.53,2.031c-0.023-0.081-0.037-0.126-0.048-0.172
			c-0.251-1.007-0.504-2.014-0.75-3.022c-0.025-0.104-0.065-0.134-0.169-0.133c-0.56,0.005-1.121,0.002-1.681,0.004
			c-0.036,0-0.085-0.026-0.112,0.031c0.247,0.15,0.491,0.302,0.74,0.446c0.085,0.049,0.129,0.11,0.155,0.206
			c0.314,1.15,0.635,2.298,0.946,3.449c0.034,0.126,0.085,0.155,0.205,0.153c0.454-0.007,0.907-0.011,1.361,0.001
			c0.165,0.004,0.233-0.038,0.279-0.207c0.31-1.129,0.637-2.253,0.955-3.38c0.029-0.103,0.077-0.175,0.173-0.23
			C33.212,36.199,33.45,36.048,33.708,35.892z M29.589,42.312c0.008-0.001,0.016-0.002,0.024-0.004
			c0.013,0.044,0.028,0.088,0.04,0.133c0.19,0.693,0.382,1.385,0.566,2.08c0.025,0.093,0.061,0.119,0.151,0.116
			c0.181-0.006,0.364-0.013,0.544,0.001c0.164,0.013,0.236-0.033,0.28-0.206c0.166-0.66,0.355-1.315,0.535-1.972
			c0.012-0.043,0.006-0.095,0.062-0.118c0,0.713,0.004,1.423-0.004,2.133c-0.001,0.138,0.039,0.171,0.169,0.163
			c0.181-0.012,0.363-0.011,0.544,0c0.125,0.008,0.149-0.036,0.148-0.153c-0.005-0.758,0.018-1.516-0.012-2.273
			c-0.013-0.329,0.077-0.546,0.364-0.693c0.069-0.035,0.14-0.081,0.197-0.163c-0.587,0-1.153,0.002-1.719-0.003
			c-0.092-0.001-0.129,0.028-0.153,0.114c-0.085,0.319-0.177,0.636-0.267,0.953c-0.119,0.419-0.239,0.838-0.371,1.299
			c-0.194-0.683-0.376-1.322-0.556-1.962c-0.113-0.401-0.112-0.402-0.523-0.402c-0.445,0-0.891,0-1.38,0
			c0.146,0.107,0.251,0.197,0.368,0.266c0.113,0.066,0.137,0.153,0.137,0.275c-0.005,0.854,0,1.708-0.005,2.562
			c-0.001,0.133,0.019,0.193,0.17,0.18c0.18-0.015,0.363-0.011,0.544-0.001c0.119,0.007,0.151-0.027,0.15-0.148
			C29.586,43.764,29.589,43.038,29.589,42.312z M35.006,41.357c0.179,0.13,0.313,0.236,0.456,0.328
			c0.096,0.062,0.127,0.135,0.126,0.249c-0.005,0.854-0.001,1.708-0.005,2.562c-0.001,0.113,0.031,0.147,0.143,0.142
			c0.176-0.009,0.353-0.011,0.528,0c0.135,0.009,0.182-0.022,0.18-0.171c-0.01-0.672-0.004-1.345-0.004-2.018
			c0-0.054,0.005-0.108,0.008-0.162c0.05,0.049,0.074,0.099,0.095,0.151c0.285,0.688,0.572,1.375,0.854,2.065
			c0.039,0.095,0.081,0.139,0.194,0.136c0.341-0.01,0.683-0.009,1.025,0c0.12,0.003,0.15-0.029,0.15-0.149
			c-0.006-0.854-0.001-1.708-0.005-2.562c-0.001-0.108,0.029-0.175,0.121-0.234c0.149-0.095,0.288-0.207,0.465-0.336
			c-0.473,0-0.899,0.004-1.325-0.002c-0.116-0.002-0.096,0.066-0.096,0.133c0,0.507,0,1.014,0,1.521c0,0.237,0,0.474,0,0.711
			c-0.046-0.047-0.07-0.097-0.092-0.149c-0.291-0.697-0.582-1.394-0.875-2.091c-0.022-0.053-0.026-0.125-0.12-0.125
			C36.237,41.358,35.647,41.357,35.006,41.357z M24.593,45.537c0-0.493,0-0.945,0-1.396c0-0.395,0-0.79,0-1.185
			c0-0.058,0.013-0.117-0.083-0.117c-0.531,0.003-1.063,0.001-1.643,0.001c0.194,0.191,0.359,0.347,0.517,0.509
			c0.071,0.073,0.141,0.125,0.25,0.109c0.043-0.006,0.103-0.016,0.102,0.062c-0.001,0.107-0.001,0.214,0,0.32
			c0,0.049-0.027,0.065-0.072,0.063c-0.283-0.007-0.566,0.021-0.848-0.021c-0.142-0.021-0.232-0.104-0.249-0.251
			c-0.049-0.425-0.051-0.851,0.001-1.276c0.017-0.139,0.101-0.219,0.239-0.242c0.228-0.037,0.456-0.039,0.684,0.004
			c0.071,0.013,0.156,0.04,0.169,0.105c0.04,0.203,0.188,0.157,0.318,0.158c0.117,0.001,0.235,0,0.352,0
			c0.286,0,0.311-0.031,0.247-0.316c-0.002-0.01-0.007-0.02-0.01-0.03c-0.121-0.407-0.43-0.598-0.815-0.679
			c-0.363-0.076-0.736-0.061-1.101-0.02c-0.533,0.06-0.826,0.325-0.93,0.845c-0.109,0.548-0.113,1.107-0.004,1.655
			c0.107,0.539,0.46,0.816,1.018,0.837c0.293,0.011,0.587,0.006,0.881,0.002c0.087-0.001,0.149,0.026,0.209,0.088
			C24.069,45.014,24.315,45.258,24.593,45.537z M40.712,42.84c-0.007,0.013-0.014,0.026-0.021,0.039
			c0.164,0.159,0.331,0.316,0.49,0.48c0.068,0.07,0.136,0.112,0.237,0.1c0.038-0.005,0.103-0.019,0.107,0.037
			c0.01,0.122,0.006,0.245,0.001,0.368c-0.002,0.038-0.043,0.041-0.076,0.041c-0.277-0.007-0.555,0.018-0.832-0.018
			c-0.151-0.02-0.245-0.106-0.264-0.256c-0.052-0.42-0.051-0.841,0-1.261c0.017-0.141,0.098-0.233,0.245-0.255
			c0.228-0.035,0.456-0.038,0.684,0.005c0.102,0.02,0.187,0.074,0.205,0.177c0.016,0.094,0.07,0.087,0.135,0.087
			c0.208-0.001,0.417-0.007,0.624,0.002c0.113,0.005,0.145-0.029,0.14-0.141c-0.019-0.439-0.332-0.788-0.826-0.884
			c-0.375-0.074-0.757-0.065-1.132-0.019c-0.533,0.065-0.81,0.327-0.918,0.856c-0.108,0.532-0.106,1.074-0.01,1.606
			c0.098,0.542,0.414,0.836,0.941,0.862c0.618,0.031,1.238,0.011,1.857,0.016c0.077,0.001,0.087-0.037,0.087-0.099
			c-0.001-0.55-0.001-1.099,0-1.649c0-0.069-0.024-0.094-0.093-0.093C41.766,42.841,41.239,42.84,40.712,42.84z M25.13,35.867
			c0.236,0.172,0.428,0.32,0.629,0.454c0.101,0.067,0.134,0.141,0.134,0.261c-0.005,1.142-0.003,2.283-0.003,3.425
			c0,0.072-0.022,0.146,0.103,0.145c0.955-0.004,1.91-0.003,2.864-0.001c0.084,0,0.111-0.026,0.11-0.11
			c-0.004-0.251-0.007-0.502,0.001-0.752c0.004-0.115-0.036-0.141-0.145-0.14c-0.539,0.005-1.078-0.001-1.616,0.005
			c-0.122,0.002-0.159-0.027-0.158-0.155c0.006-0.997,0.001-1.995,0.006-2.992c0-0.11-0.027-0.145-0.14-0.143
			c-0.384,0.007-0.768,0.003-1.152,0.003C25.568,35.867,25.373,35.867,25.13,35.867z M33.388,40.123
			c0.02,0.014,0.028,0.025,0.036,0.025c0.587,0.001,1.174,0.001,1.762,0.004c0.09,0.001,0.088-0.049,0.088-0.112
			c-0.001-1.356-0.001-2.712,0.001-4.068c0-0.087-0.029-0.108-0.111-0.107c-0.299,0.004-0.598,0.01-0.897-0.002
			c-0.139-0.005-0.163,0.041-0.162,0.17c0.005,1.142,0.002,2.285,0.006,3.427c0,0.102-0.028,0.165-0.113,0.223
			C33.792,39.823,33.593,39.974,33.388,40.123z M33.696,42.989c0,0.507,0.002,1.013-0.002,1.519
			c-0.001,0.095,0.02,0.132,0.122,0.129c0.218-0.008,0.437-0.006,0.656,0c0.09,0.002,0.116-0.025,0.116-0.116
			c-0.003-1.018-0.003-2.037,0-3.055c0-0.096-0.034-0.114-0.119-0.111c-0.208,0.005-0.416,0.009-0.624-0.001
			c-0.118-0.006-0.154,0.024-0.153,0.148C33.7,41.997,33.696,42.493,33.696,42.989z M20.312,19.533
			c0.004-0.003,0.008-0.006,0.012-0.009c-0.004-0.004-0.007-0.01-0.011-0.01c-0.004,0-0.008,0.006-0.012,0.009
			C20.305,19.526,20.309,19.529,20.312,19.533z"/>
		<path fill="#1F130E" d="M63.947,14.368c0.014-0.02,0.042-0.024,0.05-0.008c0.012,0.024-0.018,0.022-0.033,0.026
			C63.959,14.38,63.953,14.374,63.947,14.368z"/>
		<path fill="#1F130E" d="M12.735,15.471c-0.008-0.007-0.016-0.014-0.023-0.022c0.004-0.001,0.01-0.005,0.013-0.003
			c0.015,0.006,0.018,0.015,0.006,0.028C12.731,15.473,12.735,15.471,12.735,15.471z"/>
		<path fill="#1F130E" d="M51.31,15.473c-0.011-0.012-0.009-0.022,0.007-0.028c0.003-0.001,0.009,0.002,0.013,0.004
			c-0.008,0.007-0.016,0.014-0.024,0.021C51.306,15.47,51.31,15.473,51.31,15.473z"/>
		<path fill="#1F130E" d="M63.211,20.578c-0.006-0.008-0.011-0.016-0.017-0.024c0.016-0.006,0.018-0.002,0.008,0.012
			C63.201,20.567,63.208,20.574,63.211,20.578C63.211,20.578,63.211,20.578,63.211,20.578z"/>
		<path fill="#6AC3E6" d="M6.176,23.696c0.638,0.254,1.277,0.506,1.914,0.763c1.769,0.712,3.537,1.426,5.306,2.138
			c0.039,0.016,0.078,0.031,0.125,0.05c0.005-0.064-0.029-0.106-0.051-0.151c-0.682-1.44-1.366-2.878-2.047-4.318
			c-0.047-0.098-0.106-0.18-0.189-0.252c-1.635-1.422-3.268-2.847-4.902-4.271c-0.043-0.038-0.085-0.077-0.116-0.14
			c0.167,0.047,0.334,0.093,0.5,0.142c2.182,0.64,4.365,1.281,6.547,1.92c0.095,0.028,0.172,0.074,0.243,0.143
			c2.158,2.114,4.319,4.227,6.478,6.34c0.03,0.03,0.062,0.059,0.112,0.106c0-0.115,0.005-0.211-0.001-0.307
			c-0.062-0.964-0.129-1.927-0.188-2.892c-0.008-0.127-0.054-0.217-0.143-0.305c-0.679-0.665-1.354-1.334-2.029-2.003
			c-0.037-0.036-0.088-0.063-0.1-0.123c0.069-0.023,0.125,0.019,0.182,0.038c1.383,0.466,2.765,0.935,4.148,1.399
			c0.111,0.037,0.173,0.098,0.223,0.203c1.662,3.51,3.328,7.019,4.992,10.529c0.026,0.056,0.068,0.107,0.068,0.192
			c-0.399-0.113-0.793-0.22-1.183-0.337c-0.557-0.167-1.119-0.31-1.689-0.423c-0.107-0.021-0.164-0.066-0.21-0.164
			c-0.872-1.845-1.748-3.688-2.623-5.532c-0.022-0.046-0.047-0.092-0.106-0.131c0.145,1.609,0.289,3.218,0.439,4.879
			c-2.11-2.087-4.188-4.143-6.275-6.208c-0.033,0.094,0.021,0.142,0.047,0.195c1.424,2.886,2.851,5.771,4.277,8.656
			c0.108,0.218,0.108,0.218-0.142,0.218c-1.276,0-2.552-0.001-3.828,0.002c-0.097,0-0.167-0.023-0.237-0.097
			c-3.177-3.396-6.355-6.789-9.534-10.183c-0.015-0.016-0.027-0.033-0.041-0.049C6.156,23.714,6.166,23.705,6.176,23.696z
			 M15.581,24.968c-0.003-0.004-0.007-0.007-0.01-0.011c-0.004,0.003-0.007,0.007-0.011,0.01c0.005,0.004,0.01,0.008,0.015,0.011
			C15.577,24.975,15.579,24.972,15.581,24.968z"/>
		<path fill="#6AC3E6" d="M57.52,23.67c-0.016,0.073-0.078,0.112-0.123,0.161c-3.072,3.353-6.146,6.706-9.217,10.061
			c-0.105,0.115-0.21,0.164-0.368,0.163c-1.271-0.007-2.541-0.004-3.812-0.004c-0.059,0-0.117,0-0.2,0
			c0.566-1.197,1.126-2.379,1.702-3.597c-2.824,0.821-5.616,1.632-8.439,2.452c0.159-0.336,0.302-0.643,0.448-0.949
			c1.546-3.259,3.092-6.517,4.637-9.777c0.048-0.102,0.105-0.169,0.22-0.202c5.051-1.478,10.1-2.959,15.15-4.439
			c0.025-0.007,0.05-0.014,0.076-0.021c0.013,0.056-0.033,0.061-0.056,0.078c-1.963,1.456-3.926,2.911-5.889,4.367
			c-0.067,0.049-0.14,0.076-0.216,0.099c-2.295,0.674-4.589,1.348-6.884,2.02c-0.084,0.025-0.151,0.049-0.194,0.14
			c-0.781,1.658-1.566,3.314-2.351,4.97c-0.004,0.009-0.007,0.02-0.02,0.059c2.288-0.506,4.562-1.009,6.876-1.52
			c-0.95-0.492-1.866-0.967-2.813-1.458c0.45-0.103,0.869-0.2,1.287-0.296c3.34-0.763,6.679-1.526,10.019-2.289
			c0.056-0.013,0.111-0.039,0.171-0.016L57.52,23.67z"/>
		<path fill="#FDFDFD" d="M20.337,19.549c0.074-0.025,0.116,0.001,0.162,0.015c2.605,0.762,5.211,1.524,7.817,2.284
			c0.097,0.028,0.146,0.081,0.188,0.17c1.138,2.405,2.279,4.809,3.419,7.213c0.027,0.057,0.055,0.114,0.084,0.174
			c0.068-0.028,0.072-0.093,0.095-0.142c1.147-2.413,2.293-4.826,3.436-7.241c0.041-0.087,0.087-0.145,0.185-0.174
			c2.616-0.763,5.231-1.529,7.847-2.294c0.035-0.01,0.071-0.015,0.113-0.023c-0.019,0.069-0.076,0.08-0.118,0.107
			c-1.512,0.97-3.024,1.939-4.538,2.905c-0.09,0.057-0.148,0.127-0.193,0.223c-1.524,3.229-3.052,6.457-4.575,9.687
			c-0.058,0.123-0.122,0.166-0.26,0.165c-1.329-0.006-2.659-0.005-3.988-0.001c-0.113,0-0.164-0.036-0.213-0.137
			c-1.54-3.239-3.085-6.477-4.626-9.716c-0.046-0.096-0.105-0.165-0.194-0.222c-1.497-0.962-2.993-1.928-4.489-2.892
			C20.443,19.619,20.396,19.588,20.337,19.549z"/>
		<path fill="#FDFDFD" d="M14.814,35.894c0.049-0.042,0.093-0.026,0.133-0.026c0.71-0.001,1.42,0.003,2.13-0.004
			c0.117-0.001,0.151,0.043,0.179,0.144c0.262,0.938,0.53,1.874,0.796,2.811c0.008,0.03,0.006,0.065,0.054,0.088
			c0.165-0.581,0.329-1.161,0.494-1.74c0.112-0.394,0.225-0.788,0.335-1.183c0.02-0.071,0.038-0.12,0.133-0.119
			c0.747,0.004,1.494,0.003,2.242,0.003c0.014,0,0.028,0.007,0.07,0.018c-0.207,0.151-0.394,0.296-0.59,0.427
			c-0.102,0.069-0.144,0.143-0.143,0.271c0.006,1.137,0.001,2.274,0.006,3.411c0.001,0.123-0.027,0.162-0.155,0.158
			c-0.277-0.011-0.555-0.009-0.832,0c-0.114,0.004-0.14-0.03-0.139-0.141c0.005-0.934,0.003-1.868,0.003-2.802
			c0-0.037,0-0.074,0-0.11c-0.007-0.001-0.015-0.003-0.022-0.004c-0.131,0.48-0.263,0.96-0.394,1.439
			c-0.136,0.498-0.277,0.995-0.407,1.494c-0.026,0.1-0.069,0.124-0.164,0.123c-0.293-0.005-0.587-0.008-0.881,0.001
			c-0.114,0.004-0.154-0.037-0.182-0.141c-0.244-0.915-0.493-1.83-0.743-2.743c-0.017-0.064-0.017-0.137-0.081-0.197
			c0,0.973-0.003,1.935,0.003,2.898c0.001,0.141-0.028,0.193-0.18,0.185c-0.255-0.014-0.513-0.014-0.768,0
			c-0.155,0.009-0.18-0.048-0.18-0.188c0.005-1.132,0.001-2.263,0.006-3.395c0-0.114-0.032-0.185-0.127-0.249
			C15.208,36.187,15.015,36.04,14.814,35.894z"/>
		<path fill="#FDFDFD" d="M35.758,35.893c0.061-0.039,0.109-0.025,0.155-0.025c0.71-0.001,1.42,0.002,2.129-0.004
			c0.115-0.001,0.163,0.037,0.206,0.141c0.411,0.992,0.828,1.981,1.261,3.012c0.004-0.088,0.008-0.136,0.008-0.184
			c0-0.939,0.002-1.879-0.002-2.818c-0.001-0.112,0.017-0.154,0.144-0.152c0.554,0.008,1.109,0.004,1.715,0.004
			c-0.24,0.175-0.44,0.327-0.648,0.468c-0.085,0.058-0.115,0.12-0.114,0.223c0.004,1.142,0,2.284,0.005,3.426
			c0.001,0.127-0.021,0.173-0.161,0.17c-0.469-0.01-0.939-0.008-1.409-0.001c-0.11,0.002-0.159-0.035-0.199-0.133
			c-0.4-0.974-0.805-1.946-1.209-2.919c-0.011-0.027-0.01-0.064-0.065-0.081c0,0.061,0,0.117,0,0.172
			c0,0.934-0.002,1.868,0.003,2.802c0.001,0.125-0.03,0.163-0.157,0.158c-0.261-0.01-0.523-0.009-0.784,0
			c-0.123,0.004-0.161-0.027-0.16-0.157c0.005-1.137,0.001-2.273,0.006-3.41c0.001-0.126-0.037-0.203-0.141-0.272
			C36.145,36.183,35.959,36.04,35.758,35.893z"/>
		<path fill="#FCFCFC" d="M49.127,37.482c-0.355-0.117-0.692-0.231-1.031-0.339c-0.063-0.02-0.074-0.058-0.081-0.117
			c-0.026-0.216-0.089-0.279-0.306-0.288c-0.186-0.008-0.374-0.006-0.56,0.005c-0.187,0.01-0.263,0.082-0.285,0.241
			c-0.035,0.249,0.014,0.368,0.196,0.432c0.27,0.095,0.557,0.087,0.836,0.125c0.243,0.033,0.488,0.047,0.722,0.13
			c0.414,0.148,0.628,0.437,0.642,0.878c0.006,0.203,0.007,0.406-0.003,0.608c-0.024,0.514-0.378,0.944-0.886,1.005
			c-0.625,0.074-1.257,0.088-1.881-0.025c-0.523-0.095-0.763-0.374-0.808-0.903c-0.018-0.217-0.005-0.437-0.011-0.656
			c-0.002-0.076,0.025-0.094,0.093-0.073c0.315,0.098,0.63,0.196,0.946,0.292c0.064,0.02,0.071,0.061,0.077,0.12
			c0.021,0.227,0.111,0.326,0.338,0.35c0.228,0.024,0.459,0.022,0.688,0.001c0.201-0.018,0.281-0.112,0.287-0.314
			c0.002-0.059,0-0.117,0-0.176c0-0.156-0.075-0.247-0.23-0.278c-0.335-0.068-0.677-0.082-1.015-0.126
			c-0.121-0.016-0.244-0.028-0.363-0.056c-0.479-0.11-0.705-0.354-0.767-0.838c-0.04-0.313-0.05-0.629,0.039-0.937
			c0.105-0.361,0.332-0.62,0.712-0.676c0.619-0.091,1.246-0.112,1.863,0.009c0.537,0.105,0.784,0.441,0.788,0.988
			C49.128,37.063,49.127,37.26,49.127,37.482z"/>
		<path fill="#FCFCFC" d="M43.751,38.537c-0.349,0.263-0.696,0.529-1.047,0.788c-0.063,0.046-0.087,0.103-0.105,0.17
			c-0.046,0.175-0.095,0.349-0.133,0.526c-0.02,0.09-0.06,0.117-0.152,0.115c-0.331-0.006-0.662-0.004-0.992-0.001
			c-0.089,0.001-0.121-0.009-0.091-0.114c0.394-1.359,0.783-2.72,1.172-4.08c0.021-0.073,0.054-0.098,0.133-0.098
			c0.518,0.004,1.035,0.003,1.553,0.001c0.08,0,0.119,0.017,0.143,0.104c0.377,1.353,0.757,2.705,1.14,4.056
			c0.031,0.109,0.002,0.134-0.107,0.131c-0.32-0.007-0.64-0.008-0.96,0.001c-0.107,0.003-0.148-0.034-0.17-0.132
			c-0.106-0.451-0.216-0.9-0.326-1.35c-0.01-0.041-0.028-0.079-0.042-0.119c-0.106-0.585-0.27-1.156-0.402-1.735
			c-0.007-0.033-0.013-0.064-0.057-0.059c-0.044,0.005-0.04,0.041-0.048,0.071c-0.133,0.536-0.264,1.072-0.4,1.607
			c-0.02,0.08,0.008,0.09,0.075,0.089c0.128-0.003,0.256-0.008,0.383,0.001C43.463,38.52,43.611,38.469,43.751,38.537z"/>
		<path fill="#FDFDFC" d="M33.708,35.892c-0.258,0.157-0.496,0.307-0.741,0.446c-0.097,0.055-0.144,0.127-0.173,0.23
			c-0.318,1.127-0.645,2.251-0.955,3.38c-0.046,0.169-0.114,0.211-0.279,0.207c-0.453-0.012-0.907-0.008-1.361-0.001
			c-0.12,0.002-0.171-0.027-0.205-0.153c-0.311-1.151-0.632-2.299-0.946-3.449c-0.026-0.096-0.07-0.156-0.155-0.206
			c-0.249-0.144-0.492-0.296-0.74-0.446c0.027-0.057,0.076-0.031,0.112-0.031c0.56-0.002,1.121,0.001,1.681-0.004
			c0.104-0.001,0.143,0.029,0.169,0.133c0.246,1.008,0.499,2.015,0.75,3.022c0.011,0.046,0.025,0.091,0.048,0.172
			c0.183-0.7,0.356-1.366,0.53-2.031c0.104-0.396,0.21-0.792,0.309-1.19c0.019-0.074,0.043-0.106,0.125-0.106
			c0.592,0.004,1.185,0.003,1.777,0.004C33.664,35.869,33.673,35.876,33.708,35.892z"/>
		<path fill="#FDFDFC" d="M22.784,38.536c-0.075,0.04-0.061,0.12-0.078,0.183c-0.113,0.438-0.222,0.878-0.328,1.317
			c-0.019,0.077-0.045,0.117-0.137,0.116c-0.336-0.006-0.673-0.005-1.009-0.001c-0.099,0.001-0.115-0.025-0.088-0.12
			c0.392-1.355,0.782-2.711,1.169-4.067c0.022-0.077,0.057-0.099,0.134-0.099c0.518,0.003,1.036,0.004,1.553-0.001
			c0.097-0.001,0.123,0.039,0.147,0.124c0.305,1.097,0.614,2.194,0.923,3.29c0.071,0.251,0.14,0.503,0.214,0.753
			c0.027,0.091,0.009,0.122-0.091,0.12c-0.336-0.005-0.673-0.005-1.009,0c-0.08,0.001-0.118-0.027-0.131-0.101
			c-0.001-0.005-0.003-0.01-0.004-0.016c-0.034-0.489-0.305-0.81-0.709-1.059c-0.201-0.124-0.395-0.269-0.561-0.442
			c0.298,0,0.596,0,0.909,0c-0.137-0.568-0.27-1.12-0.404-1.673c-0.009-0.038,0.001-0.1-0.056-0.102
			c-0.07-0.003-0.057,0.07-0.067,0.109c-0.132,0.521-0.259,1.043-0.387,1.565C22.765,38.468,22.746,38.505,22.784,38.536z"/>
		<path fill="#FBFBFB" d="M29.589,42.312c0,0.726-0.003,1.452,0.003,2.177c0.001,0.122-0.031,0.155-0.15,0.148
			c-0.181-0.011-0.364-0.015-0.544,0.001c-0.151,0.013-0.171-0.047-0.17-0.18c0.006-0.854,0.001-1.708,0.005-2.562
			c0.001-0.123-0.024-0.209-0.137-0.275c-0.117-0.068-0.222-0.159-0.368-0.266c0.489,0,0.935,0,1.38,0c0.411,0,0.41,0,0.523,0.402
			c0.18,0.64,0.363,1.279,0.556,1.962c0.132-0.461,0.252-0.88,0.371-1.299c0.09-0.317,0.182-0.634,0.267-0.953
			c0.023-0.086,0.061-0.115,0.153-0.114c0.566,0.005,1.131,0.003,1.719,0.003c-0.057,0.082-0.128,0.127-0.197,0.163
			c-0.287,0.147-0.377,0.364-0.364,0.693c0.03,0.757,0.007,1.515,0.012,2.273c0.001,0.117-0.023,0.161-0.148,0.153
			c-0.181-0.011-0.363-0.012-0.544,0c-0.13,0.008-0.171-0.025-0.169-0.163c0.008-0.71,0.004-1.42,0.004-2.133
			c-0.057,0.023-0.051,0.075-0.062,0.118c-0.18,0.657-0.369,1.312-0.535,1.972c-0.044,0.173-0.115,0.219-0.28,0.206
			c-0.18-0.014-0.363-0.008-0.544-0.001c-0.09,0.003-0.127-0.023-0.151-0.116c-0.184-0.694-0.376-1.387-0.566-2.08
			c-0.012-0.045-0.027-0.089-0.04-0.133C29.605,42.31,29.597,42.311,29.589,42.312z"/>
		<path fill="#FBFBFB" d="M35.006,41.357c0.64,0,1.231,0.002,1.822-0.002c0.094,0,0.097,0.071,0.12,0.125
			c0.293,0.696,0.583,1.394,0.875,2.091c0.022,0.052,0.046,0.103,0.092,0.149c0-0.237,0-0.474,0-0.711c0-0.507,0-1.014,0-1.521
			c0-0.067-0.02-0.135,0.096-0.133c0.426,0.006,0.852,0.002,1.325,0.002c-0.177,0.129-0.316,0.241-0.465,0.336
			c-0.092,0.059-0.121,0.126-0.121,0.234c0.004,0.854,0,1.708,0.005,2.562c0.001,0.121-0.03,0.152-0.15,0.149
			c-0.341-0.009-0.683-0.009-1.025,0c-0.113,0.003-0.155-0.041-0.194-0.136c-0.282-0.689-0.568-1.377-0.854-2.065
			c-0.021-0.052-0.046-0.102-0.095-0.151c-0.003,0.054-0.008,0.108-0.008,0.162c-0.001,0.673-0.006,1.345,0.004,2.018
			c0.002,0.149-0.045,0.18-0.18,0.171c-0.175-0.011-0.352-0.009-0.528,0c-0.112,0.006-0.143-0.028-0.143-0.142
			c0.005-0.854,0-1.708,0.005-2.562c0.001-0.114-0.03-0.187-0.126-0.249C35.32,41.593,35.185,41.487,35.006,41.357z"/>
		<path fill="#FBFBFB" d="M24.593,45.537c-0.278-0.279-0.524-0.523-0.766-0.772c-0.06-0.062-0.122-0.089-0.209-0.088
			c-0.294,0.004-0.588,0.009-0.881-0.002c-0.558-0.022-0.911-0.298-1.018-0.837c-0.109-0.548-0.105-1.107,0.004-1.655
			c0.103-0.52,0.397-0.785,0.93-0.845c0.364-0.041,0.738-0.056,1.101,0.02c0.385,0.081,0.694,0.272,0.815,0.679
			c0.003,0.01,0.008,0.02,0.01,0.03c0.064,0.284,0.039,0.316-0.247,0.316c-0.117,0-0.235,0.001-0.352,0
			c-0.13-0.001-0.279,0.045-0.318-0.158c-0.013-0.065-0.098-0.092-0.169-0.105c-0.228-0.043-0.456-0.04-0.684-0.004
			c-0.138,0.022-0.222,0.103-0.239,0.242c-0.052,0.425-0.051,0.851-0.001,1.276c0.017,0.147,0.106,0.23,0.249,0.251
			c0.281,0.042,0.565,0.013,0.848,0.021c0.044,0.001,0.072-0.015,0.072-0.063c0-0.107,0-0.214,0-0.32
			c0-0.078-0.059-0.068-0.102-0.062c-0.108,0.016-0.179-0.036-0.25-0.109c-0.158-0.163-0.323-0.319-0.517-0.509
			c0.581,0,1.112,0.002,1.643-0.001c0.095-0.001,0.083,0.058,0.083,0.117c0,0.395,0,0.79,0,1.185
			C24.593,44.593,24.593,45.044,24.593,45.537z"/>
		<path fill="#FBFAFA" d="M40.712,42.84c0.527,0,1.054,0.001,1.58-0.001c0.069,0,0.093,0.025,0.093,0.093
			c-0.002,0.55-0.001,1.099,0,1.649c0,0.061-0.01,0.099-0.087,0.099c-0.619-0.005-1.239,0.014-1.857-0.016
			c-0.527-0.026-0.843-0.321-0.941-0.862c-0.096-0.532-0.098-1.075,0.01-1.606c0.107-0.529,0.385-0.791,0.918-0.856
			c0.375-0.046,0.757-0.055,1.132,0.019c0.493,0.097,0.806,0.445,0.826,0.884c0.005,0.113-0.027,0.146-0.14,0.141
			c-0.208-0.009-0.416-0.003-0.624-0.002c-0.065,0-0.118,0.008-0.135-0.087c-0.018-0.103-0.102-0.157-0.205-0.177
			c-0.227-0.044-0.455-0.04-0.684-0.005c-0.147,0.022-0.228,0.114-0.245,0.255c-0.051,0.42-0.051,0.841,0,1.261
			c0.018,0.15,0.112,0.236,0.264,0.256c0.277,0.036,0.554,0.011,0.832,0.018c0.033,0.001,0.074-0.002,0.076-0.041
			c0.005-0.122,0.009-0.246-0.001-0.368c-0.005-0.056-0.069-0.042-0.107-0.037c-0.101,0.013-0.169-0.029-0.237-0.1
			c-0.159-0.164-0.326-0.32-0.49-0.48C40.698,42.866,40.705,42.853,40.712,42.84z"/>
		<path fill="#FCFCFC" d="M25.13,35.867c0.243,0,0.438,0,0.632,0c0.384,0,0.768,0.004,1.152-0.003
			c0.114-0.002,0.141,0.032,0.14,0.143c-0.004,0.997,0,1.995-0.006,2.992c-0.001,0.128,0.036,0.156,0.158,0.155
			c0.539-0.007,1.078,0,1.616-0.005c0.109-0.001,0.149,0.025,0.145,0.14c-0.008,0.25-0.005,0.501-0.001,0.752
			c0.001,0.084-0.026,0.11-0.11,0.11c-0.955-0.002-1.91-0.003-2.864,0.001c-0.125,0.001-0.103-0.073-0.103-0.145
			c0-1.142-0.002-2.283,0.003-3.425c0.001-0.121-0.033-0.194-0.134-0.261C25.558,36.187,25.366,36.039,25.13,35.867z"/>
		<path fill="#FCFCFC" d="M26.988,43.436c-0.264,0.197-0.53,0.393-0.792,0.593c-0.108,0.083-0.094,0.221-0.127,0.335
			c-0.078,0.269-0.073,0.271-0.35,0.271c-0.171,0-0.342-0.007-0.512,0.002c-0.125,0.007-0.153-0.018-0.115-0.149
			c0.268-0.914,0.527-1.83,0.79-2.745c0.111-0.387,0.112-0.386,0.521-0.386c0.277,0,0.555,0.003,0.832-0.002
			c0.082-0.001,0.119,0.021,0.143,0.106c0.282,1.015,0.568,2.029,0.855,3.042c0.031,0.108,0.005,0.138-0.106,0.134
			c-0.229-0.007-0.459-0.007-0.688,0c-0.094,0.003-0.129-0.031-0.15-0.118c-0.087-0.362-0.181-0.722-0.272-1.082
			c-0.086-0.472-0.215-0.934-0.328-1.409c-0.071,0.04-0.07,0.091-0.08,0.135c-0.077,0.309-0.153,0.619-0.228,0.929
			c-0.074,0.307-0.073,0.301,0.245,0.31C26.747,43.404,26.875,43.355,26.988,43.436z"/>
		<path fill="#FAF9F9" d="M33.388,40.123c0.205-0.149,0.404-0.3,0.61-0.44c0.085-0.058,0.113-0.121,0.113-0.223
			c-0.004-1.142,0-2.285-0.006-3.427c-0.001-0.128,0.023-0.175,0.162-0.17c0.299,0.012,0.598,0.006,0.897,0.002
			c0.081-0.001,0.111,0.02,0.111,0.107c-0.002,1.356-0.002,2.712-0.001,4.068c0,0.063,0.002,0.113-0.088,0.112
			c-0.587-0.003-1.174-0.003-1.762-0.004C33.415,40.148,33.407,40.137,33.388,40.123z"/>
		<path fill="#FBFBFB" d="M33.696,42.989c0-0.496,0.004-0.992-0.003-1.487c-0.002-0.124,0.035-0.153,0.153-0.148
			c0.207,0.01,0.416,0.006,0.624,0.001c0.085-0.002,0.12,0.016,0.119,0.111c-0.003,1.018-0.003,2.037,0,3.055
			c0,0.091-0.026,0.118-0.116,0.116c-0.218-0.006-0.437-0.007-0.656,0c-0.103,0.004-0.123-0.034-0.122-0.129
			C33.698,44.002,33.696,43.496,33.696,42.989z"/>
		<path fill="#231712" d="M22.784,38.536c-0.038-0.031-0.019-0.068-0.01-0.103c0.128-0.522,0.256-1.044,0.387-1.565
			c0.01-0.039-0.002-0.112,0.067-0.109c0.057,0.002,0.046,0.063,0.056,0.102c0.134,0.553,0.267,1.105,0.404,1.673
			c-0.313,0-0.611,0-0.909,0C22.779,38.534,22.784,38.536,22.784,38.536z"/>
		<path fill="#231712" d="M43.751,38.537c-0.14-0.068-0.288-0.017-0.432-0.028c-0.127-0.009-0.255-0.004-0.383-0.001
			c-0.067,0.002-0.095-0.009-0.075-0.089c0.136-0.535,0.267-1.071,0.4-1.607c0.007-0.03,0.004-0.066,0.048-0.071
			c0.044-0.005,0.05,0.027,0.057,0.059c0.132,0.579,0.296,1.15,0.402,1.735C43.762,38.537,43.757,38.537,43.751,38.537z"/>
		<path fill="#231712" d="M26.988,43.436c-0.113-0.081-0.241-0.032-0.361-0.035c-0.318-0.008-0.319-0.003-0.245-0.31
			c0.075-0.31,0.151-0.619,0.228-0.929c0.011-0.043,0.01-0.095,0.08-0.135c0.114,0.475,0.242,0.937,0.328,1.409
			C27.009,43.437,26.999,43.437,26.988,43.436z"/>
		<path fill="#6AC3E6" d="M6.146,23.724c-0.01-0.014-0.045-0.022-0.024-0.044c0.014-0.015,0.039-0.004,0.053,0.016
			C6.166,23.705,6.156,23.714,6.146,23.724z"/>
		<path fill="#FDFDFD" d="M20.312,19.533c-0.004-0.004-0.007-0.007-0.011-0.011c0.004-0.003,0.008-0.009,0.012-0.009
			c0.004,0,0.007,0.006,0.011,0.01C20.32,19.527,20.316,19.53,20.312,19.533z"/>
		<path fill="#6AC3E6" d="M57.523,23.673c0.002-0.007,0.004-0.015,0.005-0.022c0.005,0.002,0.009,0.004,0.014,0.005
			c-0.007,0.005-0.015,0.01-0.022,0.014C57.52,23.67,57.523,23.673,57.523,23.673z"/>
		<path fill="#1F130E" d="M15.581,24.968c-0.002,0.004-0.004,0.007-0.006,0.011c-0.005-0.004-0.01-0.008-0.015-0.011
			c0.004-0.003,0.007-0.007,0.011-0.01C15.574,24.961,15.578,24.965,15.581,24.968z"/>
	</g>
</g>
</svg>
