<?xml version="1.0" encoding="UTF-8" standalone="no"?>
<svg
   xmlns:dc="http://purl.org/dc/elements/1.1/"
   xmlns:cc="http://creativecommons.org/ns#"
   xmlns:rdf="http://www.w3.org/1999/02/22-rdf-syntax-ns#"
   xmlns:svg="http://www.w3.org/2000/svg"
   xmlns="http://www.w3.org/2000/svg"
   xmlns:sodipodi="http://sodipodi.sourceforge.net/DTD/sodipodi-0.dtd"
   xmlns:inkscape="http://www.inkscape.org/namespaces/inkscape"
   width="64"
   height="64"
   viewBox="0 0 48 48"
   version="1.1"
   id="svg108"
   sodipodi:docname="maple.svg"
   inkscape:version="0.92.3 (2405546, 2018-03-11)">
  <metadata
     id="metadata114">
    <rdf:RDF>
      <cc:Work
         rdf:about="">
        <dc:format>image/svg+xml</dc:format>
        <dc:type
           rdf:resource="http://purl.org/dc/dcmitype/StillImage" />
        <dc:title></dc:title>
      </cc:Work>
    </rdf:RDF>
  </metadata>
  <defs
     id="defs112" />
  <sodipodi:namedview
     pagecolor="#ffffff"
     bordercolor="#666666"
     borderopacity="1"
     objecttolerance="10"
     gridtolerance="10"
     guidetolerance="10"
     inkscape:pageopacity="0"
     inkscape:pageshadow="2"
     inkscape:window-width="1920"
     inkscape:window-height="1017"
     id="namedview110"
     showgrid="false"
     units="px"
     inkscape:pagecheckerboard="true"
     inkscape:zoom="0.2927864"
     inkscape:cx="522.10197"
     inkscape:cy="-199.44619"
     inkscape:window-x="-8"
     inkscape:window-y="-8"
     inkscape:window-maximized="1"
     inkscape:current-layer="svg108" />
  <g
     id="#ebc33aff"
     transform="matrix(0.13177401,0,0,0.13177401,1.2222035,-1.3164228)">
    <path
       d="m 172.49,9.99 c 0.97,1.47 2.03,2.88 2.78,4.48 7.11,14.41 14.57,28.64 21.9,42.94 -2.26,0.96 -4.49,2.04 -6.88,2.61 -3.04,0.43 -6.11,0.08 -9.16,0.17 -6.55,-0.06 -12.88,2.69 -19.46,1.44 -5.79,-0.68 -8.92,5.35 -13.73,7.33 -3.45,1.46 -6.45,3.73 -9.07,6.38 -0.92,-0.22 -1.84,-0.44 -2.76,-0.66 -6.16,4.52 -11.3,10.35 -17.95,14.23 0.43,0.49 1.3,1.47 1.74,1.96 -1.4,0.37 -2.63,1.22 -3.5,2.37 0,-1.71 -0.04,-3.42 -0.01,-5.12 -2.25,-0.13 -4.06,0.94 -5.29,2.8 l -0.14,0.16 c -1.79,-7.7 -3.23,-15.48 -5.15,-23.15 -1.13,-4.56 -1.68,-9.29 -3.48,-13.67 7.33,3.77 14.25,8.29 21.51,12.21 3.41,1.76 6.49,4.18 10.09,5.56 3.52,1.31 7.62,-0.6 9.22,-3.92 5.72,-11.25 11.74,-22.35 17.3,-33.69 4,-8.15 8.48,-16.06 12.04,-24.43 z"
       id="path63"
       inkscape:connector-curvature="0"
       style="opacity:1;fill:#ebc33a" />
  </g>
  <g
     id="#ebc437ff"
     transform="matrix(0.13177401,0,0,0.13177401,1.2222035,-1.3164228)">
    <path
       d="m 231.79,60.81 c 3.99,-2.05 7.46,-4.99 11.62,-6.73 -1.43,4.91 -2.65,9.87 -3.61,14.89 -1.4,7.34 -3.46,14.52 -4.76,21.88 -3.55,-3.56 -8.22,-5.62 -12.02,-8.86 -1.89,-1.81 -4.53,-2.13 -6.97,-2.65 0.6,-0.85 1.19,-1.7 1.79,-2.55 -1.84,-1.58 -3.65,-3.2 -5.47,-4.8 6.58,-3.53 12.89,-7.55 19.42,-11.18 z"
       id="path66"
       inkscape:connector-curvature="0"
       style="opacity:1;fill:#ebc437" />
  </g>
  <g
     id="#eecb41ff"
     transform="matrix(0.13177401,0,0,0.13177401,1.2222035,-1.3164228)">
    <path
       d="m 190.29,60.02 c 2.39,-0.57 4.62,-1.65 6.88,-2.61 3.35,4.95 4.16,12.86 10.7,14.76 1.48,0.69 2.89,-0.06 4.34,-0.32 l 0.16,0.14 c 1.82,1.6 3.63,3.22 5.47,4.8 -0.6,0.85 -1.19,1.7 -1.79,2.55 2.44,0.52 5.08,0.84 6.97,2.65 3.8,3.24 8.47,5.3 12.02,8.86 -2.16,8.94 -3.95,17.97 -6.08,26.92 -3.54,-0.8 -7.2,-1.32 -10.59,-2.68 -2.97,-1.44 -5.76,-3.23 -8.6,-4.92 -5.13,-2.99 -8.26,-8.37 -13.27,-11.53 -5.26,-3.27 -10.77,-6.63 -17.08,-7.24 -12.03,-2.82 -24.82,2.15 -33.39,10.69 -6.5,5.01 -12.28,11.02 -19.48,15.05 0.46,0.97 0.94,1.93 1.44,2.89 -1.72,-1.52 -4.18,-1.63 -6.12,-2.8 -1.66,0.43 -3.17,1.27 -4.72,1.98 -1.84,-9.47 -4.34,-18.8 -6.05,-28.29 1.23,-1.86 3.04,-2.93 5.29,-2.8 -0.03,1.7 0.01,3.41 0.01,5.12 0.87,-1.15 2.1,-2 3.5,-2.37 -0.44,-0.49 -1.31,-1.47 -1.74,-1.96 6.65,-3.88 11.79,-9.71 17.95,-14.23 0.92,0.22 1.84,0.44 2.76,0.66 2.62,-2.65 5.62,-4.92 9.07,-6.38 4.81,-1.98 7.94,-8.01 13.73,-7.33 6.58,1.25 12.91,-1.5 19.46,-1.44 3.05,-0.09 6.12,0.26 9.16,-0.17 z"
       id="path69"
       inkscape:connector-curvature="0"
       style="opacity:1;fill:#eecb41" />
  </g>
  <g
     id="#f1d248ff"
     transform="matrix(0.13177401,0,0,0.13177401,1.2222035,-1.3164228)">
    <path
       d="m 146.03,102.09 c 8.57,-8.54 21.36,-13.51 33.39,-10.69 6.31,0.61 11.82,3.97 17.08,7.24 5.01,3.16 8.14,8.54 13.27,11.53 2.84,1.69 5.63,3.48 8.6,4.92 3.39,1.36 7.05,1.88 10.59,2.68 -1.63,8.12 -3.54,16.18 -5.31,24.28 -0.5,3.63 -1.01,7.47 0.01,11.06 2.12,3.74 7.1,4.4 10.72,2.6 0.76,0.58 1.51,1.18 2.26,1.78 -0.63,0.29 -1.88,0.88 -2.51,1.17 0.02,4.03 4.64,6.17 3.9,10.35 -0.12,11.99 0.08,23.99 -0.07,35.98 -1.69,21.03 -7.14,41.74 -16.04,60.88 -2.1,4.03 -2.83,8.57 -4.54,12.73 -2.36,2.99 -6.19,5.91 -5.22,10.21 -7.34,-1.34 -14.61,-3.53 -22.12,-3.59 -4.11,-0.09 -9.12,1.25 -10.89,5.36 -2.71,9.04 1.26,19.02 -2.84,27.8 -2.19,4.6 -3.62,9.77 -7.48,13.34 -0.37,-1.18 -0.99,-2.27 -1.22,-3.48 -0.2,-8.56 1.47,-17.3 -0.67,-25.72 -1.38,-4.99 2.06,-12.09 -3.11,-15.44 -4.06,-2.63 -9.25,-1.98 -13.81,-1.47 -8.75,1.24 -17.32,3.43 -25.94,5.31 -2.53,-3.01 -4.94,-6.31 -5.6,-10.3 -2.48,-13.05 -9.44,-24.64 -12.55,-37.5 -1.74,-7.36 -3.3,-14.78 -4.51,-22.24 -0.55,-6.96 -1.63,-13.87 -1.95,-20.85 l -0.04,-0.17 c -0.87,-7.97 0.45,-15.92 0.73,-23.87 0.12,-4.74 2.85,-9.14 1.98,-13.93 -0.78,-6.42 -1.27,-12.91 -3.02,-19.15 3.75,3.33 6.81,7.31 10.23,10.95 2.35,2.63 6.4,3.62 9.66,2.24 3.04,-1.41 4.28,-4.91 4.12,-8.06 -0.19,-4.06 -1.49,-7.96 -2.31,-11.91 -1.12,-5.66 -2.2,-11.34 -3.67,-16.92 1.55,-0.71 3.06,-1.55 4.72,-1.98 1.94,1.17 4.4,1.28 6.12,2.8 -0.5,-0.96 -0.98,-1.92 -1.44,-2.89 7.2,-4.03 12.98,-10.04 19.48,-15.05 m 26.21,17.08 c -3.42,1.06 -7.27,0.74 -10.34,2.79 -4.57,2.99 -9.5,5.64 -13.17,9.77 -7.6,7.93 -11.05,18.62 -15.64,28.37 -1.31,2.63 -3.73,4.8 -4.03,7.85 -0.73,6.99 -1.37,14.02 -1.08,21.06 0.21,6.53 -0.45,13.11 0.44,19.61 1.61,14.47 6.03,29.16 15.36,40.58 6.73,8.32 17.39,13.76 28.2,12.9 6.73,0.25 12.89,-2.79 19,-5.18 6.93,-3.79 11.73,-10.35 16.28,-16.62 6.1,-9.64 8.12,-21.14 9.65,-32.27 1.5,-7.59 1.09,-15.37 0.93,-23.05 -0.73,-5.93 -1.65,-11.84 -2.19,-17.79 -0.28,-3.9 -3.36,-8.35 -0.3,-11.8 -0.94,-0.62 -1.89,-1.22 -2.79,-1.89 -0.68,-1.96 -0.51,-4.09 -0.97,-6.1 -3.31,-4.63 -8.53,-7.54 -11.65,-12.34 -3.54,-5.64 -8.41,-10.54 -14.25,-13.77 -4.26,-1.43 -8.92,-3.63 -13.45,-2.12 z"
       id="path72"
       inkscape:connector-curvature="0"
       style="opacity:1;fill:#f1d248" />
  </g>
  <g
     id="#e2b432ff"
     transform="matrix(0.13177401,0,0,0.13177401,1.2222035,-1.3164228)">
    <path
       d="m 58.84,134.84 c 3.9,-8.29 7.02,-16.95 10.98,-25.21 3.25,3.71 6.24,7.64 9.72,11.15 -1.41,0.28 -2.82,0.5 -4.22,0.77 0.05,1.77 0.07,3.55 0.07,5.32 -1.01,1.33 -2.21,2.69 -2.09,4.48 -0.59,13.27 -1.45,26.59 -4.28,39.6 -0.74,7.32 -1.13,14.68 -1.85,22 -0.01,14.27 -0.52,28.74 2.7,42.73 0.85,4.35 4.19,7.5 6.02,11.4 1.4,2.92 2.97,5.75 4.64,8.53 -0.22,0.44 -0.68,1.33 -0.91,1.78 -9.89,-8.54 -19.84,-17.01 -29.52,-25.77 0.57,-2.83 1.82,-5.74 1.05,-8.65 -1.61,-5.85 -0.7,-11.96 -1.17,-17.94 0.06,-14.35 0.07,-28.7 0.03,-43.05 0.07,-5.19 0.79,-10.34 0.68,-15.53 0.86,-0.29 1.71,-0.58 2.57,-0.87 0.33,-2.02 0.69,-4.03 1.19,-6.02 -1.9,-0.46 -3.8,-0.88 -5.69,-1.34 3.63,0.53 8.12,0.29 10.08,-3.38 z"
       id="path75"
       inkscape:connector-curvature="0"
       style="opacity:1;fill:#e2b432" />
  </g>
  <g
     id="#e7bd38ff"
     transform="matrix(0.13177401,0,0,0.13177401,1.2222035,-1.3164228)">
    <path
       d="m 273.99,112 c 0.73,-0.81 1.38,-1.86 2.61,-1.84 3.03,7.11 5.67,14.37 8.86,21.41 -4.36,2.42 -4.48,8.05 -5.55,12.36 -1.29,5.09 1.2,10.04 1.11,15.12 0.06,5.33 0.36,10.65 0.88,15.95 1.67,16.62 -0.61,33.29 0.18,49.95 0.56,5.11 -1.12,10.09 -0.79,15.2 -0.63,2.24 -1.89,4.28 -2.79,6.42 l -0.12,0.26 c -6.11,5.05 -11.95,10.41 -17.97,15.55 -3.08,2.49 -4.42,7.12 -2.74,10.78 3.25,9.5 5.79,19.22 9.07,28.72 -10.91,-3.16 -22.07,-5.36 -33.02,-8.28 1.26,-0.38 2.5,-0.82 3.76,-1.24 -0.4,-2.2 -0.79,-4.39 -1.11,-6.6 1.52,-4.06 2.17,-8.36 2.99,-12.6 0.89,-4.58 3,-8.78 4.47,-13.18 4.98,-15.4 11.22,-30.72 12.06,-47.07 0.37,-12.65 0.03,-25.29 0.22,-37.94 0.15,-6.58 -2.41,-12.74 -3.87,-19.05 -0.81,-2.79 -1.25,-5.81 -2.95,-8.23 -2.12,-1.03 -4.58,-0.58 -6.83,-0.39 10.39,-11.87 21.11,-23.45 31.53,-35.3 z"
       id="path78"
       inkscape:connector-curvature="0"
       style="opacity:1;fill:#e7bd38" />
  </g>
  <g
     id="#f4dc51ff"
     transform="matrix(0.13177401,0,0,0.13177401,1.2222035,-1.3164228)">
    <path
       d="m 172.24,119.17 c 4.53,-1.51 9.19,0.69 13.45,2.12 5.84,3.23 10.71,8.13 14.25,13.77 3.12,4.8 8.34,7.71 11.65,12.34 0.46,2.01 0.29,4.14 0.97,6.1 0.9,0.67 1.85,1.27 2.79,1.89 -3.06,3.45 0.02,7.9 0.3,11.8 0.54,5.95 1.46,11.86 2.19,17.79 0.16,7.68 0.57,15.46 -0.93,23.05 -1.53,11.13 -3.55,22.63 -9.65,32.27 -4.55,6.27 -9.35,12.83 -16.28,16.62 -6.11,2.39 -12.27,5.43 -19,5.18 -10.81,0.86 -21.47,-4.58 -28.2,-12.9 -9.33,-11.42 -13.75,-26.11 -15.36,-40.58 -0.89,-6.5 -0.23,-13.08 -0.44,-19.61 -0.29,-7.04 0.35,-14.07 1.08,-21.06 0.3,-3.05 2.72,-5.22 4.03,-7.85 4.59,-9.75 8.04,-20.44 15.64,-28.37 3.67,-4.13 8.6,-6.78 13.17,-9.77 3.07,-2.05 6.92,-1.73 10.34,-2.79 z"
       id="path81"
       inkscape:connector-curvature="0"
       style="opacity:1;fill:#f4dc51" />
  </g>
  <g
     id="#e9c13aff"
     transform="matrix(0.13177401,0,0,0.13177401,1.2222035,-1.3164228)">
    <path
       d="m 75.32,121.55 c 1.4,-0.27 2.81,-0.49 4.22,-0.77 1.61,1.64 3.17,3.34 4.64,5.12 4.75,5.87 10.58,10.82 14.94,17.01 1.75,6.24 2.24,12.73 3.02,19.15 0.87,4.79 -1.86,9.19 -1.98,13.93 -0.28,7.95 -1.6,15.9 -0.73,23.87 l 0.04,0.17 c 0.32,6.98 1.4,13.89 1.95,20.85 1.21,7.46 2.77,14.88 4.51,22.24 3.11,12.86 10.07,24.45 12.55,37.5 0.66,3.99 3.07,7.29 5.6,10.3 -10.86,2.69 -21.83,4.9 -32.62,7.88 0.29,-4.14 -0.98,-8.09 -2.21,-11.98 -1.22,-2.96 0.8,-5.83 0.72,-8.78 -0.45,-1.43 -1.04,-2.81 -1.58,-4.2 -0.05,-3.09 0.89,-6.57 -1.04,-9.31 -2.13,-2.8 -5.2,-4.67 -7.83,-6.94 l 0.1,-0.2 c 0.23,-0.45 0.69,-1.34 0.91,-1.78 -1.67,-2.78 -3.24,-5.61 -4.64,-8.53 -1.83,-3.9 -5.17,-7.05 -6.02,-11.4 -3.22,-13.99 -2.71,-28.46 -2.7,-42.73 0.72,-7.32 1.11,-14.68 1.85,-22 2.83,-13.01 3.69,-26.33 4.28,-39.6 -0.12,-1.79 1.08,-3.15 2.09,-4.48 0,-1.77 -0.02,-3.55 -0.07,-5.32 z"
       id="path84"
       inkscape:connector-curvature="0"
       style="opacity:1;fill:#e9c13a" />
  </g>
  <g
     id="#d39d23ff"
     transform="matrix(0.13177401,0,0,0.13177401,1.2222035,-1.3164228)">
    <path
       d="m 9.96,130.39 c 9.42,1.1 18.53,3.89 27.89,5.3 l -0.28,0.36 c -2.22,2.62 -3.93,5.71 -4.39,9.15 -0.89,6.89 -2.41,13.83 -1.28,20.79 0.16,4.94 1.94,9.86 1.45,14.78 -3.01,5.65 -2.06,12.13 -3.09,18.24 -0.57,3.17 1.7,6.03 1.34,9.2 -0.17,1.98 -0.57,3.94 -0.93,5.9 -0.19,0.06 -0.56,0.17 -0.75,0.23 -7,-6.23 -14.2,-12.24 -21.11,-18.53 4.83,-2.89 10.15,-5.01 14.76,-8.2 2.56,-4.36 1.71,-9.94 0.47,-14.62 -2.96,-9.85 -6.27,-19.59 -9.4,-29.38 -1.21,-4.52 -2.57,-9.02 -4.68,-13.22 z"
       id="path87"
       inkscape:connector-curvature="0"
       style="opacity:1;fill:#d39d23" />
  </g>
  <g
     id="#d49e26ff"
     transform="matrix(0.13177401,0,0,0.13177401,1.2222035,-1.3164228)">
    <path
       d="m 295.96,138.26 c 13.27,-2.45 26.45,-5.56 39.7,-8.16 -2.87,7.16 -4.72,14.65 -7.18,21.95 -1.8,5.72 -3.82,11.36 -5.37,17.15 -1.89,5.62 -3.8,12.13 -1.25,17.8 4.08,4.18 9.96,5.93 15.04,8.61 -0.37,0.97 -1.25,1.56 -1.99,2.23 -8.55,6.95 -16.58,14.51 -25.11,21.48 -0.81,-1.83 -2.53,-3.54 -2.17,-5.67 0.36,-3.21 1.2,-6.36 1.13,-9.6 0.18,-5.74 -1.77,-11.36 -1.09,-17.1 0.47,-3.46 0.09,-6.92 -0.11,-10.37 l 0.47,-0.04 c -0.17,-0.4 -0.52,-1.21 -0.69,-1.61 -0.24,-3.58 -1.43,-7.06 -0.95,-10.7 0.61,-5.18 -1.71,-10.09 -1.46,-15.25 0.01,-3.3 -0.05,-6.96 -2.4,-9.57 -3.87,-0.52 -7.84,-0.21 -11.67,-1.08 1.69,-0.03 3.39,0 5.1,-0.07 z"
       id="path90"
       inkscape:connector-curvature="0"
       style="opacity:1;fill:#d49e26" />
  </g>
  <g
     id="#dfae2fff"
     transform="matrix(0.13177401,0,0,0.13177401,1.2222035,-1.3164228)">
    <path
       d="m 279.91,143.93 c 1.07,-4.31 1.19,-9.94 5.55,-12.36 1.3,2.58 2.69,5.4 5.4,6.76 3.83,0.87 7.8,0.56 11.67,1.08 2.35,2.61 2.41,6.27 2.4,9.57 -0.25,5.16 2.07,10.07 1.46,15.25 -0.48,3.64 0.71,7.12 0.95,10.7 0.17,0.4 0.52,1.21 0.69,1.61 l -0.47,0.04 c 0.2,3.45 0.58,6.91 0.11,10.37 -0.68,5.74 1.27,11.36 1.09,17.1 0.07,3.24 -0.77,6.39 -1.13,9.6 -0.36,2.13 1.36,3.84 2.17,5.67 -10.2,9.34 -20.79,18.26 -31.3,27.25 0.9,-2.14 2.16,-4.18 2.79,-6.42 -0.33,-5.11 1.35,-10.09 0.79,-15.2 -0.79,-16.66 1.49,-33.33 -0.18,-49.95 -0.52,-5.3 -0.82,-10.62 -0.88,-15.95 0.09,-5.08 -2.4,-10.03 -1.11,-15.12 z"
       id="path93"
       inkscape:connector-curvature="0"
       style="opacity:1;fill:#dfae2f" />
  </g>
  <g
     id="#dba82aff"
     transform="matrix(0.13177401,0,0,0.13177401,1.2222035,-1.3164228)">
    <path
       d="m 33.18,145.2 c 0.46,-3.44 2.17,-6.53 4.39,-9.15 3.79,0.35 7.53,1.08 11.19,2.17 1.89,0.46 3.79,0.88 5.69,1.34 -0.5,1.99 -0.86,4 -1.19,6.02 -0.86,0.29 -1.71,0.58 -2.57,0.87 0.11,5.19 -0.61,10.34 -0.68,15.53 0.04,14.35 0.03,28.7 -0.03,43.05 0.47,5.98 -0.44,12.09 1.17,17.94 0.77,2.91 -0.48,5.82 -1.05,8.65 -6.52,-5.08 -12.45,-10.86 -18.88,-16.05 -0.13,-0.37 -0.41,-1.1 -0.55,-1.46 0.36,-1.96 0.76,-3.92 0.93,-5.9 0.36,-3.17 -1.91,-6.03 -1.34,-9.2 1.03,-6.11 0.08,-12.59 3.09,-18.24 0.49,-4.92 -1.29,-9.84 -1.45,-14.78 -1.13,-6.96 0.39,-13.9 1.28,-20.79 z"
       id="path96"
       inkscape:connector-curvature="0"
       style="opacity:1;fill:#dba82a" />
  </g>
  <g
     id="#ecc840ff"
     transform="matrix(0.13177401,0,0,0.13177401,1.2222035,-1.3164228)">
    <path
       d="m 234.38,155.71 c 2.78,-2.72 5.36,-5.64 8.08,-8.41 2.25,-0.19 4.71,-0.64 6.83,0.39 1.7,2.42 2.14,5.44 2.95,8.23 1.46,6.31 4.02,12.47 3.87,19.05 -0.19,12.65 0.15,25.29 -0.22,37.94 -0.84,16.35 -7.08,31.67 -12.06,47.07 -1.47,4.4 -3.58,8.6 -4.47,13.18 -0.82,4.24 -1.47,8.54 -2.99,12.6 0.32,2.21 0.71,4.4 1.11,6.6 -1.26,0.42 -2.5,0.86 -3.76,1.24 -7.15,-1.67 -14.37,-3.05 -21.55,-4.58 l -0.01,-0.21 c -0.97,-4.3 2.86,-7.22 5.22,-10.21 1.71,-4.16 2.44,-8.7 4.54,-12.73 8.9,-19.14 14.35,-39.85 16.04,-60.88 0.15,-11.99 -0.05,-23.99 0.07,-35.98 0.74,-4.18 -3.88,-6.32 -3.9,-10.35 0.63,-0.29 1.88,-0.88 2.51,-1.17 -0.75,-0.6 -1.5,-1.2 -2.26,-1.78 z"
       id="path99"
       inkscape:connector-curvature="0"
       style="opacity:1;fill:#ecc840" />
  </g>
  <g
     id="#e5bc30fd"
     transform="matrix(0.13177401,0,0,0.13177401,1.2222035,-1.3164228)">
    <path
       d="m 78.61,301.9 c 4.12,-9.05 5.76,-18.97 9.78,-28.06 0.54,1.39 1.13,2.77 1.58,4.2 0.08,2.95 -1.94,5.82 -0.72,8.78 1.23,3.89 2.5,7.84 2.21,11.98 -4.26,1.14 -8.58,2.01 -12.85,3.1 z"
       id="path102"
       inkscape:connector-curvature="0"
       style="opacity:1;fill:#e5bc30" />
  </g>
  <g
     id="#ebbe39ff"
     transform="matrix(0.13177401,0,0,0.13177401,1.2222035,-1.3164228)">
    <path
       d="m 176.31,318.38 c 4.1,-8.78 0.13,-18.76 2.84,-27.8 -0.18,8.82 0.7,17.62 0.4,26.44 0.69,10.33 1.26,20.68 1.14,31.03 0.55,8.71 1.29,17.46 0.94,26.19 -5.81,-0.06 -11.62,-0.04 -17.43,0.01 0.25,-12.76 0.25,-25.53 1.28,-38.26 -0.18,-11.17 0.66,-22.33 1.46,-33.47 2.14,8.42 0.47,17.16 0.67,25.72 0.23,1.21 0.85,2.3 1.22,3.48 3.86,-3.57 5.29,-8.74 7.48,-13.34 z"
       id="path105"
       inkscape:connector-curvature="0"
       style="opacity:1;fill:#ebbe39" />
  </g>
</svg>
