<?xml version="1.0" encoding="utf-8"?>
<!-- Generator: Adobe Illustrator 16.0.0, SVG Export Plug-In . SVG Version: 6.00 Build 0)  -->
<!DOCTYPE svg PUBLIC "-//W3C//DTD SVG 1.1//EN" "http://www.w3.org/Graphics/SVG/1.1/DTD/svg11.dtd">
<svg version="1.1" id="Layer_1" xmlns="http://www.w3.org/2000/svg" xmlns:xlink="http://www.w3.org/1999/xlink" x="0px" y="0px"
	 width="64px" height="64px" viewBox="0 0 64 64" enable-background="new 0 0 64 64" xml:space="preserve">
<g>
	<g>
		<path fill-rule="evenodd" clip-rule="evenodd" fill="#E67321" d="M40.352,1.142c0.443,0.116,0.894,0.213,1.329,0.353
			c1.394,0.449,2.756,0.977,4.076,1.614c1.444,0.696,2.826,1.495,4.16,2.385c2.11,1.406,3.988,3.077,5.713,4.922
			c0.649,0.695,1.228,1.458,1.82,2.205c1.188,1.499,2.184,3.123,3.055,4.823c0.671,1.307,1.261,2.65,1.719,4.048
			c0.238,0.727,0.489,1.449,0.701,2.184c0.143,0.494,0.223,1.004,0.335,1.506c0.095,0.419,0.202,0.835,0.293,1.255
			c0.05,0.231,0.088,0.467,0.111,0.703c0.078,0.793,0.118,1.591,0.229,2.38c0.177,1.274,0.083,2.552,0.083,3.827
			c0,0.743-0.123,1.487-0.191,2.23c-0.036,0.383-0.061,0.768-0.114,1.148c-0.046,0.325-0.125,0.646-0.188,0.968
			c-0.04,0.2-0.069,0.402-0.115,0.601c-0.17,0.731-0.311,1.472-0.525,2.189c-0.311,1.039-0.666,2.065-1.019,3.091
			c-0.482,1.401-1.148,2.722-1.866,4.012c-0.445,0.801-0.953,1.568-1.466,2.328c-0.506,0.749-1.021,1.497-1.591,2.197
			c-0.949,1.165-1.967,2.274-3.079,3.288c-0.633,0.577-1.305,1.112-1.96,1.665c-1.074,0.907-2.23,1.703-3.449,2.396
			c-1.09,0.618-2.21,1.188-3.345,1.722c-0.889,0.417-1.811,0.771-2.733,1.107c-0.619,0.227-1.267,0.377-1.901,0.56
			c-0.471,0.135-0.941,0.274-1.416,0.396c-0.229,0.059-0.468,0.074-0.7,0.12c-0.286,0.058-0.569,0.132-0.856,0.189
			c-0.225,0.045-0.451,0.08-0.679,0.109c-0.33,0.044-0.66,0.082-0.991,0.115c-0.674,0.067-1.348,0.134-2.022,0.193
			c-0.215,0.019-0.432,0.018-0.647,0.018c-0.813-0.001-1.626,0.021-2.437-0.014c-0.686-0.029-1.368-0.123-2.053-0.188
			c-0.409-0.038-0.821-0.06-1.227-0.122c-0.512-0.079-1.02-0.19-1.528-0.289c-0.367-0.071-0.734-0.137-1.099-0.221
			c-0.487-0.112-0.977-0.221-1.455-0.366c-0.807-0.246-1.615-0.49-2.404-0.787c-0.871-0.328-1.742-0.673-2.575-1.087
			c-1.104-0.548-2.185-1.146-3.249-1.769c-0.633-0.37-1.217-0.822-1.819-1.243c-1.556-1.087-2.979-2.334-4.29-3.701
			c-0.744-0.775-1.456-1.587-2.12-2.432c-1.451-1.845-2.704-3.821-3.701-5.948c-0.459-0.98-0.876-1.982-1.264-2.992
			c-0.286-0.746-0.514-1.516-0.729-2.286c-0.175-0.625-0.299-1.266-0.434-1.902c-0.143-0.675-0.283-1.35-0.399-2.029
			c-0.067-0.396-0.086-0.802-0.123-1.203c-0.063-0.693-0.14-1.387-0.183-2.081c-0.031-0.509-0.037-1.02-0.022-1.528
			c0.023-0.862,0.057-1.725,0.116-2.585c0.042-0.605,0.127-1.207,0.206-1.809c0.056-0.414,0.118-0.829,0.205-1.237
			c0.119-0.557,0.261-1.11,0.399-1.663c0.174-0.695,0.319-1.4,0.542-2.08c0.293-0.896,0.635-1.776,0.98-2.653
			c0.613-1.555,1.372-3.041,2.263-4.453c0.621-0.985,1.314-1.926,1.999-2.87c0.902-1.246,1.929-2.392,3.051-3.44
			c0.938-0.876,1.917-1.714,2.929-2.504c0.815-0.637,1.688-1.208,2.566-1.757c1.325-0.83,2.701-1.568,4.157-2.149
			c0.762-0.304,1.517-0.63,2.29-0.903c0.612-0.216,1.247-0.37,1.872-0.547c0.483-0.137,0.967-0.278,1.454-0.399
			c0.243-0.061,0.498-0.076,0.746-0.123c0.255-0.048,0.507-0.113,0.762-0.166c0.232-0.048,0.466-0.098,0.7-0.129
			c0.356-0.047,0.714-0.079,1.071-0.115c0.655-0.066,1.312-0.134,1.968-0.195c0.188-0.018,0.38-0.017,0.569-0.016
			c0.925,0.001,1.85-0.006,2.774,0.012c0.489,0.009,0.979,0.053,1.466,0.102c0.552,0.056,1.103,0.121,1.649,0.209
			c0.483,0.078,0.961,0.198,1.442,0.292c0.398,0.079,0.801,0.138,1.197,0.224c0.237,0.051,0.467,0.135,0.7,0.204
			C40.173,1.08,40.263,1.111,40.352,1.142z M11.467,53.506c0.021,0.019,0.043,0.037,0.065,0.056c0.78,0.662,1.534,1.36,2.35,1.978
			c0.908,0.688,1.855,1.329,2.817,1.939c1.264,0.803,2.601,1.478,3.998,2.014c1.047,0.402,2.114,0.751,3.179,1.102
			c0.401,0.132,0.821,0.206,1.233,0.302c0.57,0.134,1.137,0.289,1.713,0.391c0.731,0.129,1.469,0.237,2.208,0.309
			c0.702,0.068,1.41,0.095,2.116,0.11c0.769,0.018,1.538,0.006,2.308,0c0.172-0.001,0.343-0.028,0.515-0.045
			c0.53-0.052,1.06-0.104,1.59-0.156c0.357-0.036,0.716-0.069,1.072-0.113c0.22-0.027,0.438-0.062,0.654-0.109
			c0.411-0.092,0.818-0.199,1.229-0.292c0.485-0.11,0.979-0.192,1.458-0.325c0.514-0.142,1.021-0.314,1.521-0.5
			c0.879-0.324,1.766-0.633,2.622-1.01c2.307-1.015,4.439-2.321,6.41-3.896c1.471-1.176,2.826-2.466,4.049-3.896
			c0.965-1.128,1.857-2.311,2.63-3.578c0.495-0.811,0.956-1.644,1.398-2.484c0.655-1.247,1.178-2.553,1.626-3.887
			c0.2-0.597,0.385-1.199,0.546-1.808c0.135-0.509,0.228-1.029,0.336-1.546c0.097-0.458,0.206-0.915,0.28-1.378
			c0.063-0.389,0.086-0.784,0.122-1.178c0.067-0.728,0.174-1.455,0.187-2.184c0.028-1.629,0.072-3.26-0.186-4.88
			c-0.094-0.592-0.127-1.193-0.231-1.783c-0.101-0.567-0.25-1.126-0.393-1.686c-0.176-0.69-0.34-1.386-0.555-2.064
			c-0.414-1.308-0.926-2.579-1.523-3.814c-0.703-1.452-1.496-2.854-2.443-4.158c-0.702-0.966-1.48-1.879-2.244-2.799
			c-1.146-1.378-2.491-2.55-3.899-3.646c-0.736-0.573-1.516-1.09-2.295-1.604c-1.336-0.882-2.761-1.604-4.229-2.235
			c-1.159-0.498-2.339-0.94-3.566-1.245c-0.626-0.155-1.241-0.349-1.869-0.495c-0.545-0.127-1.098-0.223-1.651-0.311
			c-0.531-0.084-1.066-0.161-1.604-0.204c-0.721-0.057-1.445-0.111-2.168-0.106c-1.26,0.009-2.518,0.063-3.776,0.1
			c-0.051,0.001-0.102,0.018-0.152,0.025c-0.397,0.059-0.794,0.121-1.191,0.175c-0.313,0.043-0.632,0.057-0.941,0.12
			c-0.572,0.117-1.141,0.255-1.709,0.394c-0.583,0.142-1.178,0.251-1.74,0.452c-1.28,0.456-2.569,0.902-3.81,1.454
			c-2.14,0.952-4.114,2.198-5.942,3.659c-0.834,0.667-1.634,1.38-2.399,2.124c-1.212,1.176-2.325,2.442-3.284,3.837
			c-0.47,0.684-0.95,1.363-1.371,2.076c-0.497,0.843-0.976,1.703-1.388,2.59C4.688,20.265,4.3,21.263,3.93,22.265
			c-0.253,0.683-0.436,1.393-0.637,2.094c-0.141,0.49-0.277,0.981-0.381,1.48c-0.099,0.475-0.154,0.958-0.227,1.439
			c-0.1,0.668-0.247,1.335-0.284,2.008c-0.071,1.309-0.081,2.621-0.113,3.932c-0.003,0.111,0.016,0.224,0.026,0.335
			c0.057,0.608,0.113,1.216,0.173,1.823c0.036,0.366,0.057,0.736,0.121,1.099c0.115,0.645,0.251,1.286,0.391,1.926
			c0.137,0.622,0.261,1.249,0.444,1.858c0.236,0.784,0.518,1.556,0.794,2.327c0.58,1.619,1.34,3.156,2.23,4.625
			c0.448,0.739,0.932,1.461,1.438,2.163c0.472,0.655,0.987,1.279,1.496,1.906c0.293,0.361,0.611,0.702,0.917,1.052
			c0.025,0.081,0.028,0.18,0.078,0.241c0.175,0.217,0.351,0.438,0.557,0.624c0.146,0.132,0.344,0.21,0.518,0.312L11.467,53.506z
			 M52.722,55.817c-0.003-0.006-0.006-0.011-0.009-0.017c0.103-0.106,0.206-0.214,0.309-0.32c0.009,0.01,0.019,0.021,0.027,0.03
			C52.939,55.613,52.831,55.715,52.722,55.817z M55.842,52.75c-0.014-0.015-0.028-0.028-0.042-0.042
			c-0.07,0.074-0.142,0.148-0.212,0.222c0.011,0.011,0.021,0.021,0.032,0.031C55.694,52.891,55.769,52.82,55.842,52.75z"/>
		<path fill-rule="evenodd" clip-rule="evenodd" fill="#F49154" d="M40.352,1.142c-0.089-0.031-0.179-0.062-0.268-0.092
			C40.173,1.08,40.263,1.111,40.352,1.142z"/>
		<path fill-rule="evenodd" clip-rule="evenodd" fill="#E87828" d="M10.318,52.331c0.385,0.393,0.769,0.785,1.152,1.177
			c-0.174-0.102-0.371-0.18-0.518-0.312c-0.206-0.186-0.382-0.407-0.557-0.624C10.347,52.511,10.344,52.412,10.318,52.331z"/>
		<path fill-rule="evenodd" clip-rule="evenodd" fill="#E97B2F" d="M52.722,55.817c0.109-0.103,0.218-0.204,0.327-0.307
			c-0.009-0.01-0.019-0.021-0.027-0.03c-0.103,0.106-0.206,0.214-0.309,0.32C52.716,55.807,52.719,55.812,52.722,55.817z"/>
		<path fill-rule="evenodd" clip-rule="evenodd" fill="#E97B30" d="M55.842,52.75c-0.073,0.07-0.147,0.141-0.222,0.211
			c-0.011-0.011-0.021-0.021-0.032-0.031c0.07-0.073,0.142-0.147,0.212-0.222C55.813,52.722,55.828,52.735,55.842,52.75z"/>
		<path fill-rule="evenodd" clip-rule="evenodd" fill="#E87828" d="M11.467,53.506c0.021,0.019,0.043,0.037,0.064,0.056
			C11.51,53.543,11.488,53.524,11.467,53.506z"/>
		<path fill-rule="evenodd" clip-rule="evenodd" fill="#E67321" d="M16.633,21.322c-0.185-0.123-0.256,0.048-0.315,0.149
			c-0.402,0.675-0.839,1.336-1.174,2.044c-0.418,0.885-0.78,1.801-1.109,2.724c-0.207,0.578-0.317,1.19-0.455,1.792
			c-0.113,0.497-0.238,0.996-0.292,1.5c-0.073,0.691-0.095,1.39-0.117,2.086c-0.018,0.518-0.025,1.038,0.008,1.554
			c0.034,0.529,0.122,1.054,0.188,1.58c0.038,0.306,0.058,0.614,0.119,0.915c0.08,0.389,0.188,0.771,0.295,1.154
			c0.129,0.46,0.258,0.921,0.403,1.376c0.432,1.345,1.061,2.598,1.796,3.8c0.712,1.164,1.578,2.208,2.484,3.222
			c-0.082,0.082-0.165,0.163-0.247,0.246c-0.625,0.634-1.249,1.268-1.874,1.901c-0.718,0.728-1.432,1.458-2.156,2.179
			c-0.269,0.268-0.561,0.512-0.825,0.751c-0.129-0.066-0.233-0.168-0.314-0.152c-0.169,0.034-0.256-0.036-0.339-0.153l0.021-0.012
			l-0.01-0.01l-0.012,0.021c-0.022,0.004-0.044,0.008-0.065,0.013l0.005,0.001c-0.019-0.02-0.037-0.039-0.057-0.058l0.006,0.005
			c-0.018-0.021-0.035-0.041-0.053-0.061l0.005,0.004c-0.022-0.019-0.044-0.036-0.066-0.054c-0.501-0.599-1.021-1.184-1.498-1.801
			c-0.464-0.6-0.926-1.208-1.315-1.856c-0.558-0.929-1.093-1.878-1.556-2.856c-0.46-0.972-0.837-1.983-1.214-2.991
			c-0.196-0.523-0.317-1.076-0.463-1.617c-0.139-0.516-0.275-1.031-0.395-1.551c-0.061-0.266-0.082-0.54-0.123-0.81
			c-0.054-0.354-0.116-0.708-0.163-1.063c-0.055-0.408-0.121-0.817-0.14-1.229c-0.034-0.759-0.047-1.52-0.048-2.279
			c-0.001-0.63-0.002-1.262,0.053-1.889c0.063-0.698,0.186-1.391,0.288-2.085c0.068-0.463,0.127-0.929,0.227-1.386
			c0.109-0.504,0.25-1.003,0.395-1.499c0.164-0.564,0.325-1.131,0.528-1.682c0.295-0.801,0.581-1.611,0.954-2.377
			c0.509-1.043,1.037-2.085,1.665-3.06c0.674-1.047,1.44-2.041,2.225-3.012c1.041-1.29,2.255-2.415,3.559-3.478
			c0.085,0.079,0.174,0.157,0.258,0.241c1.896,1.904,3.788,3.811,5.687,5.713c3.502,3.511,7.009,7.018,10.509,10.532
			c0.161,0.162,0.256,0.133,0.397-0.009c1.385-1.388,2.775-2.771,4.162-4.158c4.025-4.024,8.051-8.05,12.076-12.075
			c0.072-0.072,0.152-0.136,0.227-0.203c11.947,9.565,13.328,27.692,2.542,38.906c-1.764-1.776-3.526-3.554-5.311-5.351
			c0.263-0.32,0.569-0.699,0.882-1.072c0.718-0.855,1.311-1.795,1.856-2.766c0.597-1.062,1.063-2.181,1.43-3.339
			c0.186-0.586,0.323-1.19,0.441-1.795c0.131-0.669,0.265-1.345,0.307-2.023c0.071-1.126,0.11-2.257,0.085-3.384
			c-0.014-0.643-0.166-1.285-0.283-1.922c-0.12-0.65-0.235-1.305-0.42-1.937c-0.372-1.272-0.857-2.503-1.508-3.662
			c-0.302-0.537-0.624-1.062-0.937-1.592c-0.056-0.091-0.111-0.182-0.164-0.269c0.062-0.035,0.138-0.079,0.233-0.134
			c-0.277-0.173-0.464-0.105-0.556,0.115c-0.161,0.06-0.275,0.131-0.394,0.14c-0.215,0.015-0.186,0.228-0.302,0.322
			c-0.296,0.243-0.59,0.49-0.86,0.76c-0.265,0.264-0.486,0.571-0.749,0.836c-0.233,0.235-0.513,0.425-0.745,0.661
			c-0.298,0.301-0.557,0.64-0.855,0.939c-0.262,0.263-0.565,0.484-0.833,0.743c-0.163,0.159-0.276,0.369-0.438,0.531
			c-2.13,2.137-4.265,4.27-6.398,6.404c-1.052,1.051-2.101,2.104-3.156,3.15c-0.112,0.112-0.252,0.206-0.394,0.28
			c-0.208,0.109-0.37,0.034-0.473-0.184c-0.032-0.066-0.079-0.166-0.134-0.176c-0.338-0.063-0.495-0.356-0.71-0.561
			c-0.486-0.462-0.94-0.958-1.41-1.438c-0.084-0.086-0.184-0.155-0.27-0.238c-0.255-0.246-0.51-0.494-0.76-0.746
			c-0.164-0.164-0.323-0.332-0.48-0.502c-0.097-0.104-0.176-0.227-0.279-0.323c-0.241-0.227-0.498-0.438-0.739-0.664
			c-0.288-0.271-0.571-0.548-0.85-0.829c-0.58-0.583-1.155-1.169-1.731-1.756c-0.601-0.613-1.198-1.229-1.8-1.842
			c-0.154-0.157-0.322-0.302-0.477-0.458c-0.568-0.575-1.135-1.15-1.698-1.729c-0.33-0.34-0.648-0.692-0.981-1.03
			c-0.638-0.645-1.271-1.296-1.93-1.919c-0.287-0.271-0.554-0.637-1.07-0.51c-0.041,0.268,0.162,0.084,0.326,0.1
			C16.718,21.196,16.676,21.259,16.633,21.322z M13.064,49.895c0.004-0.006,0.008-0.011,0.012-0.017
			c-0.025-0.021-0.05-0.044-0.075-0.065c-0.008,0.011-0.015,0.021-0.022,0.031c0.028,0.017,0.058,0.034,0.099,0.035
			c-0.005,0.004-0.011,0.008-0.017,0.012c0.018,0.028,0.034,0.058,0.051,0.086c0.011-0.008,0.021-0.015,0.031-0.022
			C13.121,49.929,13.1,49.904,13.064,49.895z"/>
		<path fill-rule="evenodd" clip-rule="evenodd" fill="#E67321" d="M21.78,48.381c0.275-0.306,0.259-0.272,0.625-0.082
			c0.857,0.447,1.72,0.89,2.605,1.275c0.656,0.286,1.346,0.506,2.034,0.707c0.518,0.152,1.056,0.24,1.589,0.335
			c0.622,0.11,1.244,0.233,1.872,0.282c0.661,0.052,1.33,0.04,1.994,0.025c0.671-0.015,1.343-0.041,2.009-0.113
			c0.504-0.055,1-0.187,1.499-0.291c0.485-0.102,0.98-0.175,1.449-0.328c0.785-0.256,1.574-0.52,2.323-0.862
			c0.845-0.387,1.647-0.864,2.467-1.306c0.082-0.044,0.151-0.109,0.197-0.145c1.819,1.81,3.628,3.61,5.46,5.433
			c-0.343,0.246-0.68,0.523-1.049,0.745c-0.953,0.572-1.903,1.151-2.885,1.669c-1.089,0.574-2.226,1.048-3.403,1.416
			c-0.652,0.203-1.298,0.434-1.959,0.606c-0.548,0.144-1.112,0.225-1.671,0.329c-0.536,0.1-1.072,0.195-1.608,0.293
			c-0.018,0.003-0.034,0.006-0.052,0.007c-0.557,0.038-1.114,0.099-1.672,0.107c-1.087,0.018-2.175,0.028-3.262-0.001
			c-0.563-0.016-1.122-0.125-1.684-0.19c-0.34-0.04-0.683-0.063-1.019-0.122c-0.441-0.078-0.878-0.183-1.314-0.281
			c-0.322-0.072-0.645-0.148-0.964-0.23c-0.426-0.109-0.857-0.205-1.273-0.345c-0.639-0.214-1.283-0.424-1.896-0.7
			c-1.105-0.5-2.202-1.021-3.276-1.584c-0.652-0.343-1.257-0.777-1.881-1.174c-0.07-0.044-0.125-0.112-0.188-0.17
			c0.018-0.099,0.001-0.229,0.058-0.293c0.312-0.342,0.637-0.672,0.965-0.999c1.175-1.17,2.355-2.334,3.526-3.507
			C21.547,48.739,21.654,48.551,21.78,48.381z"/>
		<path fill-rule="evenodd" clip-rule="evenodd" fill="#E67321" d="M19.255,8.809c6.778-4.08,17.479-4.794,25.719,0.005
			c-0.486,0.479-0.969,0.946-1.444,1.42c-1.307,1.304-2.614,2.607-3.914,3.917c-0.204,0.206-0.357,0.296-0.682,0.166
			c-0.651-0.263-1.335-0.459-2.018-0.634c-0.663-0.17-1.344-0.275-2.015-0.417c-1.381-0.29-2.779-0.199-4.172-0.187
			c-0.459,0.004-0.917,0.113-1.374,0.181c-0.472,0.07-0.946,0.13-1.412,0.228c-0.439,0.092-0.875,0.209-1.302,0.347
			c-0.535,0.173-1.058,0.388-1.592,0.564c-0.079,0.026-0.223-0.031-0.289-0.097c-1.684-1.677-3.359-3.36-5.038-5.042
			C19.57,9.109,19.413,8.962,19.255,8.809z"/>
		<path fill-rule="evenodd" clip-rule="evenodd" fill="#E77323" d="M16.633,21.322c0.043-0.063,0.085-0.126,0.15-0.225
			c-0.164-0.016-0.367,0.167-0.326-0.1c0.517-0.126,0.783,0.239,1.07,0.51c0.659,0.623,1.292,1.274,1.93,1.919
			c0.333,0.337,0.651,0.69,0.981,1.03c0.563,0.579,1.13,1.155,1.698,1.729c0.154,0.157,0.322,0.301,0.477,0.458
			c0.602,0.613,1.199,1.229,1.8,1.842c0.576,0.587,1.151,1.173,1.731,1.756c0.278,0.281,0.562,0.558,0.85,0.829
			c0.241,0.227,0.498,0.438,0.739,0.664c0.104,0.097,0.183,0.219,0.279,0.323c0.157,0.17,0.316,0.338,0.48,0.502
			c0.25,0.252,0.505,0.5,0.76,0.746c0.086,0.083,0.186,0.152,0.27,0.238c0.47,0.479,0.924,0.976,1.41,1.438
			c0.215,0.204,0.372,0.497,0.71,0.561c0.055,0.01,0.102,0.109,0.134,0.176c0.103,0.218,0.265,0.293,0.473,0.184
			c0.142-0.074,0.281-0.168,0.394-0.28c1.056-1.047,2.104-2.1,3.156-3.15c2.134-2.134,4.269-4.267,6.398-6.404
			c0.162-0.162,0.275-0.372,0.438-0.531c0.268-0.259,0.571-0.48,0.833-0.743c0.299-0.3,0.558-0.639,0.855-0.939
			c0.232-0.236,0.512-0.425,0.745-0.661c0.263-0.266,0.484-0.572,0.749-0.836c0.271-0.27,0.564-0.517,0.86-0.76
			c0.116-0.095,0.087-0.308,0.302-0.322c0.118-0.008,0.232-0.08,0.394-0.14c0.092-0.22,0.278-0.288,0.556-0.115
			c-0.096,0.055-0.172,0.099-0.233,0.134c0.053,0.087,0.108,0.178,0.164,0.269c-0.059-0.047-0.117-0.094-0.194-0.157
			c-0.177,0.168-0.347,0.325-0.511,0.489c-4.848,4.847-9.694,9.694-14.542,14.541c-0.036,0.037-0.076,0.069-0.114,0.104
			c-0.223-0.135-0.444-0.271-0.668-0.405c-0.261-0.157-0.555-0.276-0.779-0.476c-0.431-0.38-0.821-0.805-1.229-1.211
			c-0.545-0.544-1.091-1.089-1.636-1.634c-2.87-2.87-5.74-5.74-8.612-8.608c-0.082-0.082-0.188-0.14-0.283-0.209
			c-0.02,0.021-0.039,0.043-0.058,0.065c-0.053-0.055-0.105-0.11-0.158-0.165c0.008-0.02,0.017-0.039,0.024-0.058
			c-0.024,0.005-0.05,0.01-0.074,0.015c-0.053-0.055-0.105-0.109-0.158-0.165c0.009-0.02,0.017-0.039,0.025-0.058
			c-0.025,0.005-0.05,0.01-0.074,0.016c-0.053-0.055-0.105-0.11-0.158-0.165c0.008-0.019,0.017-0.039,0.024-0.058
			c-0.024,0.005-0.049,0.01-0.074,0.015c-0.053-0.055-0.105-0.11-0.158-0.165c0.009-0.02,0.017-0.039,0.025-0.058
			c-0.024,0.005-0.05,0.01-0.074,0.016c-0.053-0.055-0.105-0.11-0.158-0.165c0.009-0.02,0.017-0.039,0.025-0.058
			c-0.025,0.005-0.05,0.01-0.074,0.015c-0.053-0.055-0.105-0.11-0.158-0.165c0.008-0.02,0.017-0.039,0.024-0.058
			c-0.024,0.005-0.049,0.01-0.074,0.015c-0.053-0.055-0.105-0.11-0.158-0.165c0.009-0.019,0.017-0.039,0.025-0.058
			c-0.024,0.005-0.05,0.01-0.074,0.015c-0.053-0.055-0.105-0.109-0.158-0.165c0.008-0.019,0.017-0.039,0.024-0.058
			c-0.024,0.005-0.049,0.01-0.073,0.015c-0.054-0.055-0.106-0.11-0.159-0.165c0.009-0.02,0.017-0.039,0.025-0.058
			c-0.024,0.005-0.05,0.01-0.074,0.016c-0.053-0.055-0.105-0.11-0.158-0.165c0.008-0.02,0.017-0.039,0.025-0.058
			c-0.025,0.005-0.05,0.01-0.074,0.015c-0.053-0.055-0.105-0.11-0.158-0.165c0.008-0.02,0.017-0.039,0.025-0.058
			c-0.025,0.005-0.05,0.009-0.074,0.014c-0.035-0.036-0.07-0.072-0.105-0.108c0.008-0.008,0.016-0.015-0.008,0.007
			c0.022-0.024,0.015-0.016,0.007-0.008c-0.034-0.034-0.069-0.068-0.104-0.102c0.009-0.008,0.018-0.015-0.009,0.007
			c0.022-0.026,0.015-0.017,0.008-0.009C16.706,21.393,16.669,21.357,16.633,21.322z"/>
		<path fill-rule="evenodd" clip-rule="evenodd" fill="#EA7323" d="M19.292,23.856c0.095,0.069,0.201,0.127,0.283,0.209
			c2.872,2.868,5.742,5.739,8.612,8.608c0.545,0.545,1.091,1.09,1.636,1.634c0.407,0.406,0.798,0.831,1.229,1.211
			c0.225,0.199,0.519,0.318,0.779,0.476c0.224,0.134,0.445,0.271,0.668,0.405c-0.122,0.132-0.244,0.264-0.411,0.446
			c-0.236-0.257-0.455-0.51-0.691-0.747c-1.172-1.178-2.349-2.352-3.522-3.527c-0.049-0.049-0.093-0.102-0.138-0.151
			c0.008-0.008,0.016-0.016-0.003,0.002c0.018-0.019,0.01-0.011,0.002-0.003c-0.053-0.053-0.105-0.105-0.157-0.158
			c0.009-0.019,0.018-0.038,0.026-0.058c-0.024,0.005-0.049,0.01-0.074,0.014c-0.053-0.055-0.106-0.109-0.159-0.163
			c0.009-0.02,0.018-0.039,0.026-0.058c-0.024,0.004-0.05,0.009-0.074,0.014c-0.037-0.037-0.073-0.074-0.11-0.111
			c0-0.031,0.011-0.076-0.005-0.092c-0.017-0.017-0.061-0.004-0.092-0.005c-0.037-0.036-0.074-0.073-0.11-0.11
			c-0.001-0.032,0.011-0.076-0.006-0.093c-0.016-0.016-0.06-0.004-0.092-0.004c-0.037-0.037-0.073-0.074-0.11-0.11
			c0-0.032,0.012-0.076-0.005-0.093c-0.016-0.016-0.061-0.004-0.092-0.004c-0.037-0.037-0.073-0.074-0.11-0.111
			c-0.001-0.032,0.011-0.076-0.005-0.093c-0.017-0.016-0.061-0.003-0.093-0.003c-0.036-0.037-0.073-0.074-0.11-0.111
			c0-0.032,0.012-0.076-0.005-0.093c-0.016-0.016-0.06-0.004-0.092-0.004c-0.037-0.037-0.073-0.074-0.11-0.111
			c0-0.032,0.011-0.076-0.005-0.092s-0.061-0.004-0.092-0.004c-0.037-0.037-0.074-0.074-0.11-0.111
			c-0.001-0.032,0.011-0.076-0.006-0.092c-0.016-0.016-0.06-0.004-0.092-0.004c-0.036-0.037-0.073-0.074-0.11-0.111
			c0-0.032,0.012-0.076-0.005-0.092c-0.016-0.016-0.061-0.004-0.092-0.004c-0.037-0.037-0.073-0.074-0.11-0.111
			c-0.001-0.032,0.011-0.076-0.005-0.092c-0.017-0.016-0.061-0.003-0.093-0.004c-0.036-0.037-0.073-0.074-0.109-0.111
			c-0.001-0.032,0.011-0.076-0.006-0.093c-0.016-0.016-0.06-0.003-0.092-0.004c-0.037-0.037-0.073-0.074-0.11-0.111
			c0-0.032,0.012-0.076-0.005-0.092c-0.016-0.016-0.061-0.004-0.092-0.004c-0.037-0.037-0.074-0.074-0.11-0.111
			c-0.001-0.032,0.011-0.076-0.006-0.092c-0.016-0.016-0.06-0.004-0.092-0.004c-0.036-0.037-0.073-0.074-0.109-0.111
			c-0.001-0.032,0.011-0.076-0.006-0.092c-0.016-0.016-0.06-0.004-0.092-0.004c-0.037-0.037-0.073-0.074-0.11-0.111
			c0-0.032,0.011-0.076-0.005-0.092c-0.016-0.016-0.061-0.004-0.092-0.004c-0.037-0.037-0.074-0.074-0.11-0.111
			c-0.001-0.032,0.011-0.076-0.006-0.092c-0.016-0.016-0.06-0.004-0.092-0.004c-0.036-0.037-0.073-0.074-0.11-0.111
			c0-0.032,0.012-0.076-0.005-0.092c-0.016-0.016-0.061-0.004-0.092-0.004c-0.054-0.055-0.106-0.109-0.16-0.164
			c0.009-0.019,0.018-0.038,0.026-0.058c-0.024,0.005-0.049,0.009-0.074,0.014c-0.036-0.037-0.073-0.074-0.109-0.111
			c-0.001-0.032,0.011-0.076-0.006-0.093c-0.016-0.016-0.06-0.004-0.092-0.004c-0.037-0.037-0.073-0.074-0.11-0.111
			c0-0.032,0.011-0.076-0.005-0.092s-0.061-0.004-0.092-0.004c-0.037-0.037-0.074-0.074-0.11-0.111
			c-0.001-0.032,0.011-0.076-0.006-0.092c-0.016-0.016-0.06-0.004-0.092-0.004c-0.036-0.037-0.073-0.074-0.11-0.111
			c0-0.032,0.012-0.076-0.005-0.092c-0.016-0.016-0.06-0.004-0.092-0.004c-0.037-0.037-0.073-0.074-0.11-0.111
			c-0.001-0.032,0.011-0.076-0.005-0.093c-0.016-0.016-0.061-0.003-0.093-0.004c-0.036-0.037-0.073-0.074-0.109-0.111
			c-0.001-0.032,0.011-0.076-0.006-0.092c-0.016-0.016-0.06-0.004-0.092-0.004c-0.037-0.037-0.073-0.074-0.11-0.111
			c0-0.032,0.012-0.076-0.005-0.092c-0.016-0.016-0.061-0.004-0.092-0.004c-0.037-0.037-0.074-0.074-0.11-0.111
			c-0.001-0.032,0.011-0.076-0.005-0.092c-0.017-0.016-0.061-0.004-0.093-0.004c-0.036-0.037-0.073-0.074-0.11-0.111
			c0-0.032,0.012-0.076-0.005-0.093c-0.016-0.016-0.06-0.003-0.092-0.004c-0.037-0.037-0.073-0.074-0.11-0.111
			c-0.001-0.032,0.011-0.076-0.005-0.092s-0.061-0.004-0.092-0.004c-0.037-0.037-0.074-0.074-0.11-0.111
			c-0.001-0.032,0.011-0.076-0.006-0.092c-0.016-0.016-0.06-0.004-0.092-0.004c-0.036-0.037-0.073-0.074-0.11-0.111
			c0-0.032,0.012-0.076-0.005-0.092c-0.016-0.016-0.061-0.004-0.092-0.004c-0.037-0.037-0.073-0.074-0.11-0.111
			c-0.001-0.032,0.011-0.076-0.005-0.092c-0.017-0.016-0.061-0.003-0.093-0.004c-0.036-0.037-0.073-0.074-0.109-0.111
			c-0.001-0.032,0.011-0.076-0.006-0.092c-0.016-0.016-0.06-0.004-0.092-0.004c-0.037-0.037-0.073-0.074-0.11-0.111
			c0-0.032,0.012-0.076-0.005-0.092c-0.016-0.016-0.061-0.004-0.092-0.004c-0.054-0.054-0.107-0.109-0.16-0.164
			c0.009-0.019,0.018-0.038,0.026-0.057c-0.024,0.004-0.049,0.009-0.074,0.013c-0.036-0.037-0.073-0.074-0.109-0.111
			c-0.001-0.032,0.011-0.076-0.006-0.092c-0.016-0.016-0.061-0.004-0.092-0.004c-0.037-0.037-0.073-0.074-0.11-0.111
			c-0.001-0.032,0.011-0.076-0.005-0.092s-0.061-0.004-0.092-0.004c-0.037-0.037-0.074-0.074-0.11-0.111
			c-0.001-0.032,0.011-0.076-0.006-0.092c-0.016-0.016-0.06-0.004-0.092-0.004c-0.037-0.037-0.073-0.074-0.11-0.111
			c0-0.032,0.012-0.076-0.005-0.092c-0.016-0.016-0.061-0.004-0.092-0.004c-0.037-0.037-0.073-0.074-0.11-0.111
			c-0.001-0.032,0.011-0.076-0.006-0.092c-0.016-0.016-0.06-0.003-0.092-0.003c-0.053-0.055-0.105-0.11-0.158-0.166
			C19.286,23.928,19.289,23.892,19.292,23.856z"/>
		<path fill-rule="evenodd" clip-rule="evenodd" fill="#E97727" d="M12.707,49.989c0.083,0.117,0.17,0.188,0.339,0.153
			c0.081-0.016,0.186,0.086,0.314,0.152c0.265-0.239,0.557-0.483,0.825-0.751c0.725-0.721,1.438-1.451,2.156-2.179
			c0.625-0.634,1.249-1.268,1.874-1.901c0.082-0.083,0.165-0.164,0.247-0.246c0.176,0.105-0.002,0.154-0.044,0.197
			c-0.642,0.651-1.289,1.297-1.936,1.943c-1.012,1.014-2.024,2.026-3.037,3.038c-0.071,0.072-0.147,0.141-0.243,0.231
			c-0.196-0.22-0.379-0.423-0.562-0.626C12.663,49.997,12.685,49.993,12.707,49.989z"/>
		<path fill-rule="evenodd" clip-rule="evenodd" fill="#E87F2B" d="M21.78,48.381c-0.126,0.17-0.233,0.358-0.382,0.507
			c-1.171,1.173-2.352,2.337-3.526,3.507c-0.328,0.327-0.653,0.657-0.965,0.999c-0.057,0.063-0.04,0.194-0.058,0.293
			c-0.075-0.036-0.15-0.072-0.252-0.122c0.168-0.177,0.316-0.34,0.472-0.495c1.536-1.537,3.073-3.073,4.611-4.608
			C21.711,48.431,21.747,48.407,21.78,48.381z"/>
		<path fill-rule="evenodd" clip-rule="evenodd" fill="#E67321" d="M25.456,30.143c0.032,0,0.076-0.012,0.093,0.004
			c0.016,0.017,0.004,0.061,0.005,0.092C25.521,30.208,25.489,30.175,25.456,30.143z"/>
		<path fill-rule="evenodd" clip-rule="evenodd" fill="#E67321" d="M22.553,27.24c0.032,0,0.076-0.012,0.092,0.004
			c0.017,0.016,0.005,0.06,0.006,0.092C22.617,27.304,22.585,27.271,22.553,27.24z"/>
		<path fill-rule="evenodd" clip-rule="evenodd" fill="#E67321" d="M25.664,30.351c0.031,0,0.076-0.012,0.092,0.004
			c0.017,0.017,0.005,0.061,0.005,0.092C25.729,30.415,25.696,30.383,25.664,30.351z"/>
		<path fill-rule="evenodd" clip-rule="evenodd" fill="#E67321" d="M25.871,30.558c0.032,0,0.076-0.012,0.092,0.004
			c0.017,0.016,0.005,0.061,0.006,0.092C25.937,30.622,25.903,30.59,25.871,30.558z"/>
		<path fill-rule="evenodd" clip-rule="evenodd" fill="#E67321" d="M26.079,30.766c0.031,0,0.076-0.012,0.092,0.004
			s0.005,0.06,0.005,0.092C26.144,30.83,26.111,30.797,26.079,30.766z"/>
		<path fill-rule="evenodd" clip-rule="evenodd" fill="#E67321" d="M26.286,30.973c0.032,0,0.076-0.012,0.092,0.004
			c0.017,0.017,0.005,0.061,0.005,0.093C26.351,31.037,26.318,31.005,26.286,30.973z"/>
		<path fill-rule="evenodd" clip-rule="evenodd" fill="#E67321" d="M26.493,31.181c0.032,0,0.076-0.013,0.093,0.003
			c0.016,0.017,0.004,0.061,0.005,0.093C26.559,31.244,26.526,31.212,26.493,31.181z"/>
		<path fill-rule="evenodd" clip-rule="evenodd" fill="#E67321" d="M26.908,31.595c0.032,0,0.076-0.012,0.092,0.004
			c0.017,0.017,0.005,0.061,0.006,0.093C26.973,31.659,26.94,31.627,26.908,31.595z"/>
		<path fill-rule="evenodd" clip-rule="evenodd" fill="#E67321" d="M27.116,31.802c0.031,0.001,0.075-0.012,0.092,0.005
			c0.016,0.016,0.005,0.061,0.005,0.092C27.181,31.866,27.148,31.834,27.116,31.802z"/>
		<path fill-rule="evenodd" clip-rule="evenodd" fill="#E67321" d="M19.441,24.129c0.032,0,0.076-0.013,0.092,0.003
			c0.017,0.016,0.005,0.061,0.006,0.092C19.507,24.193,19.474,24.161,19.441,24.129z"/>
		<path fill-rule="evenodd" clip-rule="evenodd" fill="#E67321" d="M19.649,24.336c0.031,0,0.076-0.012,0.092,0.004
			c0.017,0.016,0.005,0.061,0.005,0.092C19.714,24.4,19.682,24.368,19.649,24.336z"/>
		<path fill-rule="evenodd" clip-rule="evenodd" fill="#E67321" d="M19.856,24.543c0.032,0,0.076-0.012,0.092,0.004
			c0.017,0.016,0.005,0.06,0.006,0.092C19.921,24.607,19.889,24.575,19.856,24.543z"/>
		<path fill-rule="evenodd" clip-rule="evenodd" fill="#E67321" d="M20.064,24.75c0.031,0,0.076-0.012,0.092,0.004
			s0.004,0.06,0.005,0.092C20.129,24.815,20.097,24.783,20.064,24.75z"/>
		<path fill-rule="evenodd" clip-rule="evenodd" fill="#E67321" d="M20.271,24.958c0.031,0,0.076-0.012,0.092,0.004
			c0.017,0.017,0.005,0.061,0.006,0.092C20.336,25.022,20.304,24.99,20.271,24.958z"/>
		<path fill-rule="evenodd" clip-rule="evenodd" fill="#E67321" d="M20.687,25.373c0.031,0,0.076-0.012,0.092,0.004
			c0.017,0.016,0.005,0.06,0.005,0.092C20.751,25.437,20.719,25.405,20.687,25.373z"/>
		<path fill-rule="evenodd" clip-rule="evenodd" fill="#E67321" d="M20.894,25.58c0.032,0,0.076-0.012,0.092,0.004
			c0.017,0.016,0.005,0.06,0.006,0.092C20.958,25.645,20.926,25.612,20.894,25.58z"/>
		<path fill-rule="evenodd" clip-rule="evenodd" fill="#E67321" d="M21.101,25.788c0.032,0,0.076-0.012,0.093,0.004
			c0.016,0.017,0.004,0.061,0.005,0.092C21.166,25.852,21.134,25.82,21.101,25.788z"/>
		<path fill-rule="evenodd" clip-rule="evenodd" fill="#E67321" d="M21.309,25.995c0.031,0,0.076-0.012,0.092,0.004
			c0.017,0.017,0.005,0.061,0.005,0.092C21.373,26.06,21.341,26.027,21.309,25.995z"/>
		<path fill-rule="evenodd" clip-rule="evenodd" fill="#E67321" d="M21.516,26.203c0.032,0,0.076-0.012,0.092,0.004
			c0.017,0.016,0.005,0.061,0.006,0.092C21.58,26.267,21.548,26.234,21.516,26.203z"/>
		<path fill-rule="evenodd" clip-rule="evenodd" fill="#E67321" d="M21.724,26.41c0.031,0,0.076-0.012,0.092,0.004
			s0.004,0.06,0.005,0.092C21.788,26.474,21.756,26.442,21.724,26.41z"/>
		<path fill-rule="evenodd" clip-rule="evenodd" fill="#E67321" d="M21.931,26.617c0.032,0,0.076-0.012,0.092,0.004
			c0.017,0.017,0.005,0.061,0.005,0.093C21.995,26.682,21.963,26.649,21.931,26.617z"/>
		<path fill-rule="evenodd" clip-rule="evenodd" fill="#E67321" d="M22.138,26.825c0.032,0,0.076-0.012,0.093,0.004
			c0.016,0.017,0.004,0.061,0.005,0.092C22.203,26.889,22.171,26.857,22.138,26.825z"/>
		<path fill-rule="evenodd" clip-rule="evenodd" fill="#E67321" d="M22.346,27.032c0.031,0,0.076-0.012,0.092,0.004
			c0.017,0.016,0.005,0.061,0.005,0.092C22.41,27.096,22.378,27.064,22.346,27.032z"/>
		<path fill-rule="evenodd" clip-rule="evenodd" fill="#E67321" d="M26.701,31.388c0.031,0,0.076-0.012,0.092,0.004
			c0.017,0.017,0.005,0.061,0.005,0.093C26.766,31.452,26.733,31.42,26.701,31.388z"/>
		<path fill-rule="evenodd" clip-rule="evenodd" fill="#E67321" d="M22.76,27.447c0.032,0,0.077-0.012,0.093,0.004
			c0.016,0.017,0.004,0.061,0.005,0.093C22.825,27.511,22.793,27.479,22.76,27.447z"/>
		<path fill-rule="evenodd" clip-rule="evenodd" fill="#E67321" d="M22.968,27.654c0.032,0,0.076-0.012,0.092,0.004
			c0.017,0.017,0.005,0.061,0.005,0.092C23.032,27.719,23,27.687,22.968,27.654z"/>
		<path fill-rule="evenodd" clip-rule="evenodd" fill="#E67321" d="M23.175,27.862c0.032,0,0.076-0.012,0.092,0.004
			c0.017,0.016,0.005,0.06,0.006,0.092C23.24,27.926,23.207,27.894,23.175,27.862z"/>
		<path fill-rule="evenodd" clip-rule="evenodd" fill="#E67321" d="M23.383,28.069c0.031,0,0.076-0.012,0.092,0.004
			s0.005,0.06,0.005,0.092C23.447,28.133,23.415,28.101,23.383,28.069z"/>
		<path fill-rule="evenodd" clip-rule="evenodd" fill="#E67321" d="M23.59,28.276c0.032,0,0.076-0.012,0.092,0.004
			c0.017,0.017,0.005,0.061,0.006,0.093C23.654,28.341,23.622,28.309,23.59,28.276z"/>
		<path fill-rule="evenodd" clip-rule="evenodd" fill="#E67321" d="M24.005,28.691c0.031,0,0.076-0.012,0.092,0.004
			c0.017,0.017,0.005,0.061,0.005,0.092C24.069,28.756,24.037,28.724,24.005,28.691z"/>
		<path fill-rule="evenodd" clip-rule="evenodd" fill="#E67321" d="M24.212,28.898c0.032,0,0.076-0.012,0.092,0.004
			c0.017,0.016,0.005,0.06,0.006,0.092C24.277,28.963,24.244,28.931,24.212,28.898z"/>
		<path fill-rule="evenodd" clip-rule="evenodd" fill="#E67321" d="M24.42,29.106c0.031,0,0.076-0.012,0.092,0.004
			c0.016,0.017,0.005,0.061,0.005,0.092C24.484,29.17,24.452,29.138,24.42,29.106z"/>
		<path fill-rule="evenodd" clip-rule="evenodd" fill="#E67321" d="M24.627,29.313c0.032,0,0.076-0.012,0.092,0.004
			c0.017,0.017,0.005,0.061,0.006,0.092C24.691,29.378,24.659,29.346,24.627,29.313z"/>
		<path fill-rule="evenodd" clip-rule="evenodd" fill="#E67321" d="M24.834,29.521c0.032,0,0.076-0.012,0.092,0.004
			c0.017,0.017,0.005,0.061,0.006,0.092C24.899,29.585,24.866,29.553,24.834,29.521z"/>
		<path fill-rule="evenodd" clip-rule="evenodd" fill="#E67321" d="M25.042,29.729c0.031,0,0.076-0.012,0.092,0.004
			c0.017,0.016,0.005,0.061,0.005,0.092C25.106,29.792,25.074,29.761,25.042,29.729z"/>
		<path fill-rule="evenodd" clip-rule="evenodd" fill="#E67321" d="M25.249,29.936c0.032,0,0.076-0.012,0.092,0.004
			c0.017,0.017,0.005,0.061,0.006,0.093C25.314,30,25.281,29.968,25.249,29.936z"/>
		<path fill-rule="evenodd" clip-rule="evenodd" fill="#E67321" d="M16.953,21.639c0.024-0.005,0.049-0.009,0.074-0.014
			c-0.009,0.019-0.018,0.038-0.025,0.058C16.985,21.668,16.969,21.654,16.953,21.639z"/>
		<path fill-rule="evenodd" clip-rule="evenodd" fill="#E67321" d="M17.16,21.847c0.024-0.005,0.049-0.01,0.074-0.015
			c-0.009,0.019-0.018,0.038-0.025,0.058C17.192,21.876,17.176,21.862,17.16,21.847z"/>
		<path fill-rule="evenodd" clip-rule="evenodd" fill="#E67321" d="M17.367,22.055c0.024-0.005,0.05-0.01,0.074-0.016
			c-0.009,0.019-0.017,0.039-0.025,0.058C17.4,22.083,17.384,22.069,17.367,22.055z"/>
		<path fill-rule="evenodd" clip-rule="evenodd" fill="#E67321" d="M17.575,22.262c0.024-0.005,0.049-0.01,0.073-0.015
			c-0.008,0.019-0.017,0.039-0.024,0.058C17.607,22.291,17.591,22.276,17.575,22.262z"/>
		<path fill-rule="evenodd" clip-rule="evenodd" fill="#E67321" d="M17.782,22.469c0.024-0.005,0.05-0.01,0.074-0.015
			c-0.009,0.019-0.017,0.039-0.025,0.058C17.815,22.498,17.799,22.484,17.782,22.469z"/>
		<path fill-rule="evenodd" clip-rule="evenodd" fill="#E67321" d="M17.989,22.677c0.025-0.005,0.05-0.01,0.074-0.015
			c-0.008,0.02-0.017,0.039-0.024,0.058C18.022,22.705,18.006,22.691,17.989,22.677z"/>
		<path fill-rule="evenodd" clip-rule="evenodd" fill="#E67321" d="M18.197,22.884c0.024-0.005,0.049-0.01,0.074-0.015
			c-0.009,0.02-0.017,0.039-0.025,0.058C18.229,22.913,18.213,22.898,18.197,22.884z"/>
		<path fill-rule="evenodd" clip-rule="evenodd" fill="#E67321" d="M23.797,28.484c0.025-0.005,0.05-0.009,0.074-0.014
			c-0.009,0.02-0.018,0.039-0.026,0.058C23.829,28.513,23.813,28.499,23.797,28.484z"/>
		<path fill-rule="evenodd" clip-rule="evenodd" fill="#E67321" d="M20.479,25.165c0.025-0.004,0.05-0.009,0.074-0.013
			c-0.009,0.019-0.018,0.038-0.026,0.057C20.511,25.194,20.494,25.18,20.479,25.165z"/>
		<path fill-rule="evenodd" clip-rule="evenodd" fill="#E67321" d="M27.323,32.01c0.024-0.005,0.05-0.01,0.074-0.014
			c-0.009,0.019-0.018,0.038-0.026,0.058C27.354,32.039,27.339,32.024,27.323,32.01z"/>
		<path fill-rule="evenodd" clip-rule="evenodd" fill="#E67321" d="M27.53,32.217c0.025-0.004,0.05-0.009,0.074-0.014
			c-0.009,0.02-0.018,0.039-0.026,0.058C27.562,32.246,27.546,32.231,27.53,32.217z"/>
		<path fill-rule="evenodd" clip-rule="evenodd" fill="#E67321" d="M19.292,23.856c-0.003,0.036-0.006,0.072-0.009,0.107
			c-0.017-0.014-0.033-0.028-0.049-0.042C19.253,23.9,19.272,23.878,19.292,23.856z"/>
		<path fill-rule="evenodd" clip-rule="evenodd" fill="#E67321" d="M19.026,23.714c0.024-0.005,0.05-0.01,0.074-0.015
			c-0.008,0.02-0.017,0.039-0.024,0.058C19.06,23.743,19.043,23.729,19.026,23.714z"/>
		<path fill-rule="evenodd" clip-rule="evenodd" fill="#E67321" d="M18.819,23.507c0.024-0.005,0.049-0.01,0.074-0.016
			c-0.009,0.02-0.017,0.039-0.025,0.058C18.852,23.535,18.836,23.521,18.819,23.507z"/>
		<path fill-rule="evenodd" clip-rule="evenodd" fill="#E67321" d="M18.611,23.299c0.025-0.005,0.05-0.01,0.074-0.015
			c-0.008,0.019-0.017,0.039-0.024,0.058C18.645,23.328,18.628,23.313,18.611,23.299z"/>
		<path fill-rule="evenodd" clip-rule="evenodd" fill="#E67321" d="M18.404,23.092c0.024-0.005,0.05-0.01,0.074-0.016
			c-0.009,0.019-0.017,0.039-0.025,0.058C18.437,23.12,18.421,23.106,18.404,23.092z"/>
		<path fill-rule="evenodd" clip-rule="evenodd" fill="#E97727" d="M12.481,49.84c0.022,0.018,0.044,0.035,0.066,0.054
			C12.525,49.875,12.504,49.857,12.481,49.84z"/>
		<path fill-rule="evenodd" clip-rule="evenodd" fill="#E97727" d="M12.543,49.89c0.018,0.02,0.035,0.04,0.053,0.061
			C12.578,49.93,12.561,49.909,12.543,49.89z"/>
		<path fill-rule="evenodd" clip-rule="evenodd" fill="#E97727" d="M12.59,49.945c0.02,0.019,0.038,0.038,0.057,0.058
			C12.628,49.983,12.609,49.964,12.59,49.945z"/>
		<path fill-rule="evenodd" clip-rule="evenodd" fill="#E97727" d="M13.077,49.879c0.022,0.025,0.044,0.05,0.065,0.075
			c-0.011,0.008-0.021,0.015-0.031,0.022c-0.017-0.028-0.033-0.058-0.051-0.086C13.066,49.887,13.072,49.883,13.077,49.879z"/>
		<path fill-rule="evenodd" clip-rule="evenodd" fill="#E97727" d="M13.064,49.895c-0.028-0.017-0.058-0.034-0.086-0.051
			c0.008-0.011,0.015-0.021,0.022-0.031c0.025,0.021,0.05,0.044,0.075,0.065C13.072,49.884,13.068,49.889,13.064,49.895z"/>
		<polygon fill-rule="evenodd" clip-rule="evenodd" fill="#E97727" points="12.707,49.989 12.719,49.968 12.729,49.978 		"/>
		<path fill-rule="evenodd" clip-rule="evenodd" fill="#E67321" d="M16.742,21.427c0.007-0.008,0.015-0.017-0.008,0.009
			c0.026-0.022,0.018-0.015,0.009-0.007L16.742,21.427z"/>
		<path fill-rule="evenodd" clip-rule="evenodd" fill="#E67321" d="M16.847,21.53c0.008-0.008,0.016-0.016-0.007,0.008
			C16.863,21.516,16.855,21.523,16.847,21.53L16.847,21.53z"/>
		<path fill-rule="evenodd" clip-rule="evenodd" fill="#E67321" d="M27.735,32.419c0.008-0.008,0.016-0.016-0.002,0.003
			C27.752,32.404,27.744,32.412,27.735,32.419L27.735,32.419z"/>
	</g>
</g>
</svg>
