<?xml version="1.0" encoding="utf-8"?>
<!-- Generator: Adobe Illustrator 22.0.0, SVG Export Plug-In . SVG Version: 6.00 Build 0)  -->
<svg version="1.1" id="Camada_1" xmlns="http://www.w3.org/2000/svg" xmlns:xlink="http://www.w3.org/1999/xlink" x="0px" y="0px"
	 width="64px" height="64px" viewBox="0 0 64 64" enable-background="new 0 0 64 64" xml:space="preserve">
<g>
	<g>
		<path fill="#F5C3A1" d="M63.963,30.761c0.012,0.005,0.025,0.005,0.037,0.002c0,0.703,0,1.407,0,2.11c-0.011,0-0.023,0-0.034,0
			C63.965,32.169,63.964,31.465,63.963,30.761z"/>
		<path fill="#F5C5A3" d="M33.032,63.968c-0.003,0.012-0.004,0.023-0.003,0.035c-0.69,0-1.38,0-2.07,0
			c0.001-0.012,0-0.024-0.003-0.035C31.648,63.968,32.34,63.968,33.032,63.968z"/>
		<path fill="#F5C4A3" d="M63.966,32.873c0.011,0,0.023,0,0.034,0c0,0.106,0,0.212,0,0.318c-0.012,0.001-0.023,0.002-0.035,0.003
			C63.965,33.087,63.966,32.98,63.966,32.873z"/>
		<path fill="#E87323" d="M63.966,32.873c0,0.107-0.001,0.214-0.001,0.321c-0.169,4.462-1.217,8.706-3.16,12.726
			c-1.403,2.904-3.202,5.539-5.411,7.888c-4.526,4.813-10.011,7.961-16.457,9.422c-1.67,0.378-3.362,0.609-5.072,0.699
			c-0.278,0.015-0.556,0.026-0.834,0.039c-0.692,0-1.384,0-2.076,0c-4.733-0.156-9.216-1.297-13.44-3.438
			c-2.708-1.372-5.171-3.098-7.382-5.179c-4.113-3.87-7.02-8.498-8.707-13.888c-0.587-1.875-0.982-3.793-1.209-5.745
			c-0.17-1.458-0.241-2.92-0.211-4.386c0.063-3.052,0.541-6.04,1.463-8.951c1.447-4.569,3.793-8.62,7.058-12.129
			c4.146-4.456,9.157-7.501,15.025-9.125c1.926-0.533,3.889-0.865,5.882-1.025c1.789-0.143,3.576-0.14,5.362,0.017
			c3.852,0.34,7.527,1.337,11.015,3.01c3,1.438,5.71,3.301,8.129,5.584c2.661,2.512,4.835,5.394,6.512,8.648
			c1.313,2.545,2.261,5.221,2.852,8.023c0.323,1.532,0.534,3.08,0.62,4.644c0.013,0.245,0.025,0.49,0.037,0.734
			C63.964,31.465,63.965,32.169,63.966,32.873z M31.757,61.222c15.989,0.031,29.234-12.867,29.322-29.134
			C61.167,15.712,47.98,2.753,32.057,2.611C15.851,2.466,2.71,15.425,2.466,31.44C2.214,48.046,15.631,61.247,31.757,61.222z"/>
		<path fill="#E87322" d="M16.28,21.249c-0.33,0.499-0.601,1.022-0.855,1.553c-0.974,2.029-1.611,4.16-1.893,6.392
			c-0.563,4.459,0.364,8.614,2.598,12.494c0.633,1.099,1.353,2.141,2.156,3.123c0.113,0.139,0.096,0.208-0.024,0.319
			c-0.266,0.249-0.519,0.513-0.777,0.771c-1.452,1.457-2.905,2.912-4.353,4.373c-0.12,0.121-0.181,0.135-0.307,0.003
			c-1.432-1.498-2.651-3.156-3.72-4.926c-1.559-2.582-2.713-5.331-3.362-8.283c-0.328-1.492-0.511-3.002-0.549-4.531
			C5.096,28.574,6.01,24.84,7.722,21.286c1.55-3.217,3.637-6.063,6.051-8.679c0.427-0.463,0.875-0.906,1.305-1.367
			c0.105-0.113,0.175-0.114,0.259,0.006c0.004,0.005,0.009,0.009,0.014,0.014c3.68,3.676,7.361,7.351,11.041,11.027
			c1.845,1.842,3.691,3.684,5.534,5.529c0.101,0.101,0.155,0.129,0.273,0.007c1.711-1.777,3.427-3.55,5.143-5.322
			c1.153-1.191,2.31-2.379,3.463-3.57c1.697-1.753,3.393-3.509,5.09-5.262c0.798-0.824,1.6-1.644,2.395-2.472
			c0.098-0.102,0.144-0.036,0.208,0.018c0.75,0.624,1.456,1.296,2.129,2.001c2.017,2.113,3.732,4.446,5.094,7.034
			c1.283,2.44,2.181,5.011,2.618,7.736c0.227,1.417,0.325,2.845,0.279,4.28c-0.096,2.964-0.739,5.811-1.843,8.559
			c-1.196,2.979-2.844,5.696-4.784,8.244c-0.253,0.332-0.518,0.655-0.771,0.988c-0.08,0.106-0.13,0.109-0.225,0.012
			c-0.955-0.986-1.915-1.968-2.873-2.951c-0.713-0.731-1.426-1.463-2.141-2.192c-0.077-0.078-0.122-0.127-0.028-0.24
			c1.66-1.997,2.915-4.227,3.8-6.666c0.651-1.793,1.037-3.638,1.119-5.548c0.117-2.722-0.433-5.306-1.575-7.771
			c-0.542-1.17-1.207-2.268-1.961-3.314c-0.079-0.109-0.121-0.138-0.23-0.026c-1.63,1.671-3.265,3.338-4.899,5.005
			c-1.045,1.066-2.091,2.13-3.137,3.195c-1.641,1.67-3.282,3.34-4.922,5.011c-0.66,0.672-1.321,1.342-1.975,2.02
			c-0.107,0.111-0.16,0.098-0.264-0.004c-1.875-1.849-3.753-3.695-5.632-5.54c-1.41-1.385-2.822-2.769-4.232-4.153
			c-1.42-1.394-2.84-2.788-4.261-4.181C17.287,22.229,16.788,21.745,16.28,21.249z"/>
		<path fill="#E87322" d="M16.24,53.467c0.067-0.05,0.119-0.081,0.161-0.123c1.798-1.796,3.595-3.591,5.388-5.392
			c0.113-0.113,0.184-0.132,0.33-0.045c1.908,1.132,3.962,1.891,6.126,2.358c1.424,0.307,2.867,0.455,4.323,0.423
			c3.419-0.076,6.549-1.089,9.41-2.949c0.346-0.225,0.347-0.228,0.632,0.075c1.694,1.801,3.385,3.605,5.083,5.402
			c0.123,0.131,0.103,0.182-0.031,0.273c-1.776,1.21-3.678,2.182-5.666,2.988c-2.02,0.818-4.102,1.42-6.251,1.783
			c-1.71,0.289-3.434,0.42-5.169,0.36c-5.047-0.173-9.591-1.819-13.708-4.704C16.669,53.776,16.472,53.632,16.24,53.467z"/>
		<path fill="#E87322" d="M44.182,8.567c-0.569,0.599-1.122,1.179-1.674,1.761c-1.305,1.375-2.611,2.75-3.913,4.128
			c-0.087,0.092-0.152,0.106-0.269,0.05c-2.293-1.099-4.714-1.583-7.25-1.448c-2.024,0.108-3.968,0.57-5.805,1.443
			c-0.118,0.056-0.179,0.043-0.268-0.047c-1.82-1.847-3.642-3.692-5.468-5.533c-0.111-0.112-0.089-0.15,0.036-0.219
			c2.577-1.407,5.298-2.407,8.197-2.909c1.395-0.242,2.799-0.365,4.213-0.365c2.677,0,5.29,0.414,7.838,1.234
			c1.434,0.461,2.822,1.03,4.137,1.769C44.027,8.471,44.094,8.514,44.182,8.567z"/>
	</g>
</g>
</svg>
