<?xml version="1.0" encoding="utf-8"?>
<!-- Generator: Adobe Illustrator 22.0.0, SVG Export Plug-In . SVG Version: 6.00 Build 0)  -->
<svg version="1.1" id="Layer_1" xmlns="http://www.w3.org/2000/svg" xmlns:xlink="http://www.w3.org/1999/xlink" x="0px" y="0px"
	 width="64px" height="64px" viewBox="0 0 64 64" enable-background="new 0 0 64 64" xml:space="preserve">
<g id="_x23_2a2a2add">
	<path opacity="0.87" fill="#FFFFFF" enable-background="new    " d="M31.718-0.188h0.174c0.619,1.374,1.258,2.749,1.974,4.084
		c0.29,0.639,0.678,1.2,0.968,1.839c-0.426-0.155-0.832-0.387-1.181-0.658c0.271,0.929,0.949,1.626,1.394,2.458
		c-0.774-0.213-1.258-0.852-1.8-1.394c0.29,1.007,0.968,1.839,1.723,2.536c-0.852,0-1.297-0.794-1.742-1.374
		c0.097,0.523,0.213,1.045,0.407,1.529c0.019,0.077,0.077,0.213,0.097,0.271c0.29,0.639,0.678,1.2,1.103,1.742
		c-0.987-0.019-1.742-0.697-2.342-1.413c0.019,0.774,0.077,1.549,0.155,2.323c0.619,0.213,1.374,0.348,1.762,0.91
		c0.174,1.007,0.232,2.033,0.503,3.02c-2.033-0.194-4.084-0.213-6.117,0.019c0.136-0.581,0.271-1.161,0.348-1.762
		c0.058-0.465,0-0.987,0.232-1.413c0.445-0.465,1.103-0.542,1.645-0.832c0.116-0.987,0.213-1.994,0.213-3
		c-0.29-0.445-0.619-0.852-0.755-1.355c-0.019,0.174-0.039,0.542-0.058,0.716c-0.774-0.639-1.161-1.626-1.239-2.613
		c0.058-1.316,0.697-2.478,1.258-3.639c0.039-0.077,0.116-0.213,0.155-0.271c0.097-0.155,0.174-0.29,0.271-0.445
		c0.039-0.077,0.116-0.213,0.155-0.29C31.273,0.47,31.486,0.122,31.718-0.188z"/>
	<path opacity="0.87" fill="#FFFFFF" enable-background="new    " d="M10.038,22.576c4.491-6.678,12.176-11.15,20.248-11.498
		c-0.736,0.271-1.355,0.89-2.168,0.91c-6.117,0.852-11.847,4.084-15.815,8.788c-3.891,4.568-6.156,10.55-6.117,16.57
		c-0.019,5.014,1.471,10.008,4.239,14.189c3.233,4.897,8.169,8.672,13.782,10.395c5.768,1.8,12.156,1.491,17.712-0.871
		c5.536-2.342,10.182-6.717,12.873-12.079c2.439-4.743,3.252-10.24,2.439-15.486c-0.832-5.575-3.62-10.801-7.665-14.692
		c-3.852-3.678-8.846-6.136-14.131-6.833c-0.774-0.058-1.336-0.639-2.033-0.89c5.768,0.271,11.382,2.613,15.737,6.407
		c4.317,3.717,7.356,8.866,8.498,14.441c1.258,5.846,0.426,12.098-2.284,17.422c-2.497,4.975-6.64,9.098-11.614,11.614
		c-4.626,2.381-9.969,3.291-15.118,2.652c-6.156-0.716-12.002-3.736-16.183-8.304c-3.639-3.91-5.981-8.982-6.736-14.266
		C4.85,34.655,6.399,27.919,10.038,22.576z"/>
	<path opacity="0.87" fill="#FFFFFF" enable-background="new    " d="M28.834,16.44c2.071-0.271,4.181-0.271,6.252,0.039
		c0.29,0.465,0.368,1.026,0.6,1.529c2.149,5.226,6.562,9.156,11.363,11.924c-3.852-0.426-7.84,0.271-11.208,2.207
		c-1.471,0.813-2.749,1.897-4.007,3c-2.671-2.671-6.175-4.549-9.93-5.11c-1.626-0.271-3.291-0.271-4.936-0.155
		c0.561-0.542,1.297-0.832,1.916-1.316c4.123-2.807,7.801-6.62,9.446-11.401C28.485,16.905,28.466,16.44,28.834,16.44
		 M30.905,23.738c-1.452,0.407-2.497,1.878-2.381,3.388c0.019,1.762,1.703,3.252,3.446,3.155c1.82-0.019,3.426-1.742,3.233-3.562
		C35.144,24.628,32.86,23.06,30.905,23.738z"/>
	<path opacity="0.87" fill="#FFFFFF" enable-background="new    " d="M31.06,25.054c1.336-0.658,3.039,0.6,2.826,2.071
		c-0.058,1.491-2.013,2.42-3.194,1.471C29.414,27.764,29.647,25.616,31.06,25.054z"/>
	<path opacity="0.87" fill="#FFFFFF" enable-background="new    " d="M15.729,30.61c3.93-0.581,8.091,0.019,11.595,1.955
		c1.703,0.89,3.175,2.149,4.588,3.446c3.039-3.194,7.259-5.265,11.672-5.556c1.491-0.116,2.981-0.039,4.452,0.155
		c-0.097,1.413-0.077,2.826-0.058,4.239c-1.452,2.516-3.852,4.452-6.485,5.633c0.019-1.432-0.058-2.884-0.407-4.297
		c-0.116-1.007-1.181-1.568-2.091-1.665c-1.723-0.174-3.349,0.658-4.704,1.645c-1.045,0.6-1.568,1.8-1.781,2.942
		c-0.194,1.432-0.155,2.923,0.407,4.278c-0.31,0.523-0.658,1.026-0.987,1.529c-0.368-0.484-0.716-1.007-1.026-1.51
		c0.697-1.742,0.561-3.659,0.213-5.459c-0.329-0.445-0.619-0.929-1.007-1.336c-1.452-1.123-3.155-2.187-5.072-2.052
		c-0.813,0.019-1.742,0.31-2.11,1.103c-0.736,1.51-0.484,3.233-0.678,4.839c-2.594-1.2-4.975-3.117-6.407-5.614
		C15.768,33.436,15.845,32.023,15.729,30.61z"/>
	<path opacity="0.87" fill="#FFFFFF" enable-background="new    " d="M56.67,35.759c0.174,0.387,0.116,0.813,0.136,1.22
		c0.097,5.265-1.529,10.55-4.568,14.847c-3.194,4.549-7.975,7.956-13.298,9.543c-4.975,1.471-10.395,1.355-15.273-0.368
		c-5.904-2.033-10.956-6.407-13.84-11.943c-2.052-3.891-3.02-8.324-2.846-12.698c0.039-0.097,0.097-0.31,0.116-0.407
		c0.271,2.052,0.697,4.162,1.742,5.981c0.484,0.852,1.181,1.587,2.11,1.955c1.82,3.775,4.839,6.911,8.44,9.021
		c0.116-0.213,0.213-0.426,0.329-0.639c-3.368-1.974-6.156-4.897-7.975-8.362c1.181-0.426,1.974-1.471,2.497-2.594
		c1.916,2.439,4.433,4.355,7.22,5.691c-0.407,1.8-0.968,3.581-1.742,5.246c1.258,0.774,2.652,1.336,4.104,1.607
		c0.039,2.11,1.103,4.065,2.516,5.594c0.426,0.426,0.813,0.91,1.355,1.161c-1.529-1.51-2.942-3.291-3.349-5.459
		c-0.31-1.432-0.058-3.194,1.239-4.065c1.374-0.91,3.078-1.007,4.684-1.161c-0.716-0.523-1.394-1.239-2.323-1.278
		c0.232-0.581,0.542-1.123,0.755-1.723c-1.568,1.22-2.846,2.787-4.394,4.026c0.039-0.368,0.077-0.736,0.097-1.123
		c-1.278-0.639-1.703-2.168-2.904-2.884c0.058-0.232,0.097-0.465,0.155-0.678c1.452,0.658,1.897,2.458,3.388,3.039
		c1.336-1.103,2.594-2.284,3.93-3.388c0.465,0.097,0.794,0.523,1.123,0.852c-0.252-0.097-0.503-0.213-0.755-0.329
		c-0.039,0.619-0.271,1.2-0.407,1.8c0.716,0.136,1.316,0.542,1.955,0.832c0.658,0.058,1.316,0.058,1.974,0
		c0.639-0.31,1.239-0.697,1.955-0.813c-0.116-0.6-0.407-1.181-0.407-1.8c-0.29,0.136-0.581,0.252-0.871,0.368
		c0.368-0.329,0.755-0.639,1.142-0.949c1.394,1.084,2.652,2.342,4.026,3.446c1.51-0.6,1.936-2.4,3.388-3.039
		c0.484,0.639-0.31,0.968-0.658,1.355c-0.678,0.755-1.161,1.723-2.11,2.187c0.019,0.387,0.039,0.755,0.097,1.123
		c-1.529-1.297-2.904-2.768-4.394-4.104c0.116,0.639,0.503,1.2,0.755,1.8c-0.929,0.058-1.607,0.774-2.323,1.297
		c1.607,0.155,3.31,0.252,4.684,1.181c1.181,0.794,1.471,2.362,1.278,3.678c-0.31,2.129-1.587,3.949-3.039,5.478
		c0.503-0.194,0.832-0.639,1.181-1.026c1.316-1.491,2.284-3.349,2.323-5.381c1.22-0.213,2.381-0.658,3.465-1.22
		c0.271-0.136,0.484-0.348,0.658-0.6c-0.658-0.949-0.929-2.11-1.297-3.194c-0.174-0.678-0.465-1.374-0.29-2.071
		c0.252,0,0.465-0.077,0.678-0.194c2.458-1.297,4.646-3.097,6.369-5.265c0.523,1.065,1.239,2.149,2.439,2.536
		c-1.471,3.194-3.988,5.827-6.891,7.762c-0.252,0.174-0.523,0.368-0.852,0.387c-0.039,0.271-0.174,0.929,0.31,0.813
		c3.542-2.091,6.504-5.226,8.304-8.943c1.413-0.523,2.207-1.936,2.729-3.252C56.166,39.069,56.457,37.404,56.67,35.759
		 M27.905,52.348c-0.832,0.174-1.626,0.697-1.897,1.549c1.336-0.213,2.575-0.774,3.697-1.51c0.581,0.445,1.142,1.007,1.878,1.2
		c1.007,0.174,1.723-0.678,2.478-1.2c1.123,0.736,2.342,1.278,3.659,1.491c-0.407-1.297-1.897-1.607-3.058-1.781
		C32.415,51.825,30.111,51.806,27.905,52.348 M25.698,54.748c-0.387,2.458,1.297,4.684,3.175,6.039
		c0.426,0.387,1.22,0.542,1.587,0.019c0.619-0.987,0.581-2.342,0.019-3.349c-0.348-0.658-1.007-1.026-1.607-1.394
		c0.968,0.252,1.897,0.697,2.923,0.755c1.026,0.039,1.955-0.445,2.923-0.678c-0.387,0.31-0.852,0.561-1.181,0.968
		c-0.736,0.89-0.832,2.168-0.484,3.233c0.135,0.387,0.407,0.813,0.871,0.813c0.658,0.039,1.142-0.503,1.626-0.871
		c1.587-1.355,2.865-3.368,2.536-5.536c-1.413-0.097-2.768-0.619-3.988-1.355c-0.658,0.619-1.316,1.432-2.284,1.51
		c-0.871-0.213-1.51-0.89-2.11-1.51C28.466,54.11,27.111,54.652,25.698,54.748z"/>
	<path opacity="0.87" fill="#FFFFFF" enable-background="new    " d="M15.632,36.165c0.445,0.387,0.755,0.89,1.161,1.297
		c1.529,1.607,3.368,2.904,5.401,3.813c-0.116,1.645-0.31,3.31-0.6,4.955c-2.729-1.316-5.207-3.252-6.988-5.73
		C15.129,39.108,15.438,37.636,15.632,36.165z"/>
	<path opacity="0.87" fill="#FFFFFF" enable-background="new    " d="M46.565,37.83c0.581-0.503,0.949-1.2,1.549-1.665
		c0.174,1.471,0.503,2.942,1.026,4.336c-1.781,2.478-4.259,4.413-7.007,5.73c-0.136-1.026-0.387-2.033-0.426-3.078
		c-0.039-0.678-0.368-1.374,0-2.013C43.545,40.424,45.152,39.185,46.565,37.83z"/>
	<path opacity="0.87" fill="#FFFFFF" enable-background="new    " d="M23.162,40.308c0.561-0.619,1.161-1.258,1.839-1.762
		c1.607,0.949,3.271,1.839,4.878,2.787c-1.607-0.6-3.233-1.22-4.878-1.762C24.401,39.824,23.801,40.095,23.162,40.308z"/>
	<path opacity="0.87" fill="#FFFFFF" enable-background="new    " d="M34.06,41.218c1.549-0.929,3.155-1.762,4.684-2.71
		c0.619,0.581,1.258,1.142,1.82,1.8c-0.832-0.174-1.607-0.968-2.458-0.523C36.751,40.25,35.435,40.792,34.06,41.218z"/>
	<path opacity="0.87" fill="#FFFFFF" enable-background="new    " d="M22.233,40.54c1.452,0.697,3,1.239,4.588,1.568
		c1.026,0.174,1.955,0.678,2.865,1.142c-2.575-0.232-5.11-0.89-7.472-1.974C22.214,41.082,22.233,40.714,22.233,40.54z"/>
	<path opacity="0.87" fill="#FFFFFF" enable-background="new    " d="M36.635,42.166c1.703-0.348,3.349-0.91,4.917-1.645
		c0.077,0.426-0.174,0.871-0.581,1.007c-1.878,0.813-3.891,1.316-5.923,1.607c-0.252,0.019-0.542,0.136-0.774-0.039
		C35.067,42.824,35.783,42.321,36.635,42.166z"/>
</g>
</svg>
