<?xml version="1.0" encoding="UTF-8" standalone="no"?>
<svg
   xmlns:dc="http://purl.org/dc/elements/1.1/"
   xmlns:cc="http://creativecommons.org/ns#"
   xmlns:rdf="http://www.w3.org/1999/02/22-rdf-syntax-ns#"
   xmlns:svg="http://www.w3.org/2000/svg"
   xmlns="http://www.w3.org/2000/svg"
   xmlns:sodipodi="http://sodipodi.sourceforge.net/DTD/sodipodi-0.dtd"
   xmlns:inkscape="http://www.inkscape.org/namespaces/inkscape"
   width="64"
   height="64"
   viewBox="0 0 48 48"
   version="1.1"
   id="svg296"
   sodipodi:docname="mvp.svg"
   inkscape:version="0.92.3 (2405546, 2018-03-11)">
  <metadata
     id="metadata302">
    <rdf:RDF>
      <cc:Work
         rdf:about="">
        <dc:format>image/svg+xml</dc:format>
        <dc:type
           rdf:resource="http://purl.org/dc/dcmitype/StillImage" />
        <dc:title></dc:title>
      </cc:Work>
    </rdf:RDF>
  </metadata>
  <defs
     id="defs300" />
  <sodipodi:namedview
     pagecolor="#ffffff"
     bordercolor="#666666"
     borderopacity="1"
     objecttolerance="10"
     gridtolerance="10"
     guidetolerance="10"
     inkscape:pageopacity="0"
     inkscape:pageshadow="2"
     inkscape:window-width="1920"
     inkscape:window-height="1017"
     id="namedview298"
     showgrid="false"
     units="px"
     inkscape:zoom="3.5132042"
     inkscape:cx="77.800034"
     inkscape:cy="45.183509"
     inkscape:window-x="-8"
     inkscape:window-y="-8"
     inkscape:window-maximized="1"
     inkscape:current-layer="svg296" />
  <g
     id="#000000ff"
     transform="matrix(0.08005311,0,0,0.08005311,-1.2156236e-6,1.1848636)">
    <path
       d="m 299.15,0 h 0.68 c 3.98,3.78 7.99,7.55 12.46,10.77 7.65,5.69 15.3,11.41 23.31,16.59 15.23,9.73 30.69,19.13 46.85,27.23 29.22,14.61 59.71,26.77 91.2,35.53 18.99,4.95 38.12,9.62 57.62,12.05 13.38,2.25 26.96,2.78 40.45,4.04 -0.17,25.71 -2.88,51.34 -6.73,76.74 -1.11,9.91 -3.67,19.58 -4.95,29.46 8.78,2.5 17.51,6.01 24.35,12.23 6.08,5.34 10.18,12.61 12.94,20.14 2.83,7.75 2.22,16.12 2.21,24.22 -0.08,6.6 0.31,13.23 -0.47,19.81 -1.22,10.45 -5.93,20.46 -13.15,28.11 -7.55,7.71 -17.63,12.61 -28.09,14.95 -10.84,2.45 -22.01,1.02 -33,1.72 -4.82,13.72 -11.17,26.85 -17.37,39.99 -9.27,17.96 -19.09,35.68 -30.39,52.45 -22.44,34.01 -50.1,64.6 -81.93,90.06 -14.04,10.92 -28.74,21 -44.16,29.87 -16.54,9.12 -33.68,17.14 -51.26,24.04 h -1.5 C 255.35,554.92 216.81,529.2 183.91,498.09 147.92,464.3 118.71,423.7 96.14,379.88 c -6.53,-13.1 -13.9,-25.79 -21.73,-38.17 -0.39,11.45 0.14,22.9 -0.31,34.35 -24.36,0.3 -48.73,0.16 -73.1,0.06 -0.01,-55.35 0.01,-110.69 -0.01,-166.03 12.72,0.06 25.44,0.23 38.16,-0.08 -0.54,-4.13 -1.13,-8.26 -1.86,-12.37 -2.93,-15.78 -5.26,-31.69 -6.64,-47.69 -1.51,-14.43 -3.12,-28.88 -3.55,-43.4 10.32,-0.53 20.61,-1.53 30.9,-2.6 14.1,-1.37 27.97,-4.44 41.81,-7.39 16.41,-4.08 32.84,-8.21 48.86,-13.67 26.91,-8.72 52.82,-20.33 77.87,-33.43 21.35,-11.68 41.78,-25 61.17,-39.69 4.06,-2.96 7.73,-6.4 11.44,-9.77 m -6.49,11.68 c -8.07,6.69 -16.6,12.79 -25.21,18.76 -56.31,38.31 -121.19,63.52 -188.24,75 -4.76,0.35 -9.47,1.03 -14.18,1.76 -11.18,1.73 -22.5,2.3 -33.77,3.26 1.53,12.14 1.34,24.48 3.8,36.49 1.48,15.41 3.86,30.72 6.03,46.05 1.02,7.29 2.61,14.49 3.55,21.79 -12.98,0.05 -25.97,-0.1 -38.95,0.07 -0.29,47.71 -0.01,95.42 -0.14,143.13 -0.02,4.56 0.03,9.11 0.23,13.67 21.16,-0.1 42.32,-0.11 63.48,0.01 0.5,-16.27 0.03,-32.55 0.23,-48.83 7.76,13.28 15.03,26.84 22.47,40.3 4.13,7.07 7.2,14.69 11.2,21.83 3.45,6.18 7.06,12.26 10.53,18.43 4.49,7.98 9.74,15.49 14.75,23.14 5.34,8.22 11.35,15.98 17.24,23.82 10.67,13.2 21.63,26.24 33.88,38.03 11.57,11.84 24.48,22.24 37.41,32.54 22.25,16.43 46.13,30.95 72.02,40.88 4.32,1.54 9.07,4.19 13.67,2.12 19.56,-7.64 38.61,-16.7 56.45,-27.82 31.31,-18.95 59.27,-43.22 83.15,-70.91 9.98,-11.18 19.1,-23.12 27.44,-35.58 10.56,-14.74 19.71,-30.44 28.21,-46.44 5.13,-10.73 10.86,-21.17 15.33,-32.21 3.12,-7.53 6.79,-14.83 9.33,-22.59 11.47,-0.47 23.01,0.57 34.41,-1.05 8.21,-1.13 16.11,-4.55 22.49,-9.85 9.91,-8.48 16.39,-21.27 16.18,-34.42 -0.03,-7.02 -0.02,-14.05 -0.02,-21.07 -0.01,-14.59 -6.94,-29.22 -18.84,-37.83 -6.57,-4.59 -14.47,-6.74 -22.27,-8.13 0.9,-4.29 1.79,-8.58 2.41,-12.92 2.66,-10.12 3.7,-20.56 5.15,-30.9 1.02,-7.53 2.08,-15.09 2.2,-22.7 0.27,-2.09 0.46,-4.19 0.59,-6.29 1.94,-10.92 1.77,-22.06 2.08,-33.11 l -0.72,0.05 c -26.32,-1.8 -52.64,-4.89 -78.28,-11.27 -8.72,-2.36 -17.56,-4.29 -26.22,-6.9 C 421.36,79.85 382.62,62.36 346.67,40.36 332.01,30.9 317.31,21.35 304.05,9.96 c -1.53,-1.15 -2.98,-2.61 -4.89,-3.03 -2.38,1.28 -4.41,3.07 -6.5,4.75 z"
       id="path157"
       inkscape:connector-curvature="0"
       style="opacity:1;fill:#000000" />
    <path
       d="m 239.65,53.69 c 20.89,-12.04 40.98,-25.59 59.45,-41.11 22.95,18.14 47.23,34.7 73.19,48.23 26.47,13.97 54.16,25.75 82.86,34.31 7.82,2.41 15.65,4.83 23.62,6.76 7.99,1.98 16.13,3.33 24.15,5.23 6.59,1.63 13.28,2.82 20.01,3.68 12.76,1.63 25.57,3.46 38.47,3.26 -0.07,2.21 -0.13,4.42 -0.29,6.63 -0.92,10.55 -1.19,21.16 -2.44,31.69 -1.68,19.32 -4.8,38.46 -7.68,57.62 -0.26,1.66 -0.54,3.32 -0.81,4.97 -3.84,-0.09 -7.71,-0.16 -11.47,-0.95 l 0.14,-0.86 c 2.26,-11.75 3.79,-23.62 5.15,-35.51 0.93,-8.19 2.39,-16.32 2.82,-24.56 0.52,-9.69 1.13,-19.37 1.45,-29.07 -15.34,-0.38 -30.5,-2.94 -45.7,-4.86 -25.04,-4.22 -49.68,-10.71 -73.6,-19.21 C 412.08,93.68 395.31,87 379.28,78.75 358.32,68.42 338.19,56.41 319.21,42.79 312.38,37.95 306.04,32.47 299.22,27.62 c -20.53,16.55 -42.36,31.56 -65.64,44 -18.25,9.66 -36.93,18.63 -56.38,25.63 -16.64,6.47 -33.86,11.24 -51.09,15.82 -14.53,3.86 -29.43,6.09 -44.25,8.49 -10.47,1.75 -21.09,2.29 -31.67,2.84 0.26,6.72 0.66,13.45 1.59,20.12 1.74,12.29 2.19,24.73 4.28,36.98 1.25,11.07 3.24,22.02 4.66,33.06 -3.61,-0.23 -7.23,-0.05 -10.83,0.17 l -0.69,0.04 c -0.5,-4.9 -1.47,-9.74 -2.14,-14.61 -1.33,-12.25 -3.62,-24.36 -4.92,-36.61 -1.75,-13.26 -2.69,-26.6 -4.25,-39.88 -0.32,-3 -0.43,-6.01 -0.52,-9.01 25.18,-0.84 50.01,-5.64 74.59,-10.85 6.71,-1.39 13.33,-3.16 19.9,-5.11 37.54,-10.66 74.02,-25.37 107.79,-45.01 z"
       id="path159"
       inkscape:connector-curvature="0"
       style="opacity:1;fill:#000000" />
    <path
       d="m 49.99,217.6 c 5.65,0.01 11.37,-0.31 16.94,0.82 9.74,1.85 19.31,6.16 26.09,13.57 4.18,4.4 6.81,9.93 9.68,15.22 8.49,15.72 16.25,31.85 25.21,47.33 10.23,-17.29 18.19,-35.83 28.38,-53.15 6.32,-10.35 16.64,-18.41 28.5,-21.24 8.28,-1.84 16.81,-1.21 25.21,-1.3 22.33,0.1 44.67,-0.2 67,0.15 5.7,8.4 10.63,17.29 16.1,25.85 6.85,10.89 13.29,22.03 20.23,32.86 5.82,9.26 11.18,18.8 17.17,27.95 0.95,-0.29 1.6,-1.06 2.12,-1.86 17,-28.35 34.68,-56.3 51.78,-84.59 2.86,-0.18 5.72,-0.34 8.58,-0.37 50.67,0.02 101.35,0 152.02,0.01 8.71,0.09 17.53,1.83 25.28,5.93 10.29,5.52 17.8,15.7 20.51,27.02 1.21,4.98 0.86,10.13 0.88,15.2 -0.1,6.01 0.11,12.03 -0.04,18.04 -0.22,7.9 -3.17,15.52 -7.45,22.08 -5.52,8.39 -14.42,14.48 -24.25,16.52 -4.56,1.02 -9.24,1.18 -13.89,1.17 -32.34,-0.04 -64.69,0.02 -97.04,-0.04 -4.21,0.07 -8.5,-0.4 -12.65,0.49 -2.91,2.62 -4.41,6.37 -6.45,9.64 -6.1,10.92 -12.73,21.53 -18.9,32.42 -53.24,0.16 -106.5,0.02 -159.75,0.07 -14.47,-25.02 -29.75,-49.56 -44.41,-74.47 -1.81,-3.27 -3.71,-6.52 -6.12,-9.41 -2.26,4.5 -4.35,9.08 -6.76,13.49 -7.62,14.06 -14.62,28.44 -22.47,42.38 -4.73,9.52 -10.07,18.72 -14.78,28.26 -19.44,-0.05 -38.89,0.05 -58.33,-0.06 -6.45,-12.7 -13.67,-24.98 -20.53,-37.46 -4.12,-7.14 -7.58,-14.68 -12.24,-21.52 -0.55,19.56 0.06,39.13 -0.3,58.7 -19.02,0.26 -38.04,-0.08 -57.06,0.18 0.51,-49.93 -0.15,-99.86 0.43,-149.78 13.77,-0.22 27.54,-0.02 41.31,-0.1 m -34.83,7.09 c 0.05,45.31 -0.05,90.63 0.05,135.94 14.18,-0.12 28.37,-0.11 42.55,-0.01 0.05,-20.2 0,-40.41 0.02,-60.62 0.03,-6.86 -0.22,-13.73 0.32,-20.58 3.86,5.54 6.81,11.62 10.13,17.48 8,14.3 16.08,28.56 23.89,42.97 3.7,6.84 7.72,13.52 11.13,20.52 14.26,0.06 28.53,-0.07 42.79,0.07 2.21,-0.02 4.46,0.05 6.63,-0.42 1.62,-2.02 2.71,-4.37 3.92,-6.64 2.76,-5.44 5.83,-10.73 8.62,-16.16 11.65,-22.59 24.11,-44.75 35.74,-67.36 3.16,4.7 5.91,9.64 8.84,14.48 8.4,12.97 15.78,26.56 24.15,39.55 6.57,10.81 12.93,21.75 19.53,32.54 0.91,1.37 1.81,2.81 3.11,3.87 4.44,0.62 8.95,0.16 13.42,0.24 44.33,0.01 88.66,-0.04 132.99,0.04 1.1,-0.02 2.2,-0.14 3.29,-0.35 1.03,-1.04 1.81,-2.28 2.57,-3.51 7.61,-13.28 15.83,-26.21 23.5,-39.46 36.55,-0.3 73.09,-0.01 109.64,-0.14 5.3,-0.15 10.66,-0.32 15.84,-1.59 11.81,-2.92 21.95,-12.05 25.76,-23.64 2.4,-6.37 1.82,-13.26 1.85,-19.91 -0.07,-7.33 0.46,-14.85 -1.77,-21.95 -2.72,-8.89 -9.89,-15.92 -18.24,-19.7 -7.94,-3.57 -16.75,-4.76 -25.39,-4.77 -46.01,0.01 -92.03,0.03 -138.04,0 -4.23,0.07 -8.53,-0.39 -12.72,0.39 -3.2,3.45 -5.02,7.9 -7.54,11.84 -6.16,9.84 -12.06,19.84 -18.22,29.69 -8.99,15.31 -18.7,30.2 -27.63,45.55 -0.99,1.55 -2,3.14 -3.45,4.32 -3.18,0.31 -5,-2.97 -6.58,-5.19 -13.77,-22.52 -27.4,-45.13 -41.34,-67.54 -3.74,-6.4 -7.56,-12.73 -11.58,-18.96 -25.97,-0.23 -51.95,0.01 -77.92,-0.13 -11.09,-0.23 -20.96,6.41 -28.07,14.4 -5.41,5.75 -8.48,13.11 -12.25,19.92 -4.03,7.32 -7.58,14.89 -11.66,22.17 -5.27,9.47 -9.74,19.37 -15.13,28.78 -3.55,-7.32 -7.51,-14.44 -11.07,-21.76 -4.69,-9.6 -10.05,-18.84 -14.66,-28.47 -3.81,-7.77 -7.6,-15.79 -13.73,-22.04 -6.89,-7.2 -16.35,-11.53 -26.07,-13.29 -5.4,-1.01 -10.92,-0.71 -16.38,-0.72 -10.28,0.1 -20.56,-0.14 -30.84,0.15 z"
       id="path161"
       inkscape:connector-curvature="0"
       style="opacity:1;fill:#000000" />
    <path
       d="m 21.7,230.78 c 11.11,-0.18 22.22,-0.02 33.33,-0.12 5.35,-0.08 10.81,0.43 15.8,2.53 9.85,4.04 17.27,12.47 22.48,21.54 8.83,16.77 17.39,33.68 26.38,50.37 3.06,5.96 5.93,12.03 9.36,17.8 2.87,-6.28 6,-12.43 9.3,-18.5 4.3,-7.88 7.97,-16.08 12.27,-23.96 3.53,-6.49 6.94,-13.04 10.29,-19.62 3.48,-6.81 7.14,-13.76 12.94,-18.9 7.31,-6.9 17.21,-10.65 27.19,-11.11 7.96,-0.29 15.93,-0.1 23.9,-0.01 12.34,21.36 25.19,42.42 37.6,63.74 8.22,13.74 16.48,27.46 24.57,41.28 4.15,7.11 8.62,14.04 12.4,21.35 -12.8,0.42 -25.62,0.22 -38.44,0.12 -7.62,-12.16 -15.11,-24.4 -22.68,-36.6 -10.11,-16.85 -20.88,-33.3 -30.85,-50.24 -1.15,-1.89 -2.36,-3.76 -3.88,-5.37 -1.95,0.12 -3.53,1.41 -4.84,2.75 -2.7,2.77 -4.73,6.11 -6.65,9.45 -5.09,9.05 -9.73,18.34 -14.44,27.59 -8.7,16.36 -17.1,32.88 -25.57,49.36 -0.69,1.02 -1.24,2.27 -2.4,2.84 -2.21,0.44 -4.48,0.36 -6.73,0.38 -11.91,-0.14 -23.82,-0.03 -35.74,-0.06 -7,-13.68 -14.86,-26.89 -22.17,-40.4 -8.03,-15 -16.63,-29.69 -24.51,-44.77 -1.26,-2.58 -3.39,-4.55 -5.59,-6.32 -0.48,5.01 -0.42,10.06 -0.39,15.1 0.06,25.4 -0.06,50.8 0.06,76.21 -10.99,0.33 -22,0.19 -32.99,0.09 -0.22,-29.77 -0.03,-59.53 -0.09,-89.3 0.05,-12.41 -0.13,-24.82 0.09,-37.22 m 2.49,2.46 c -0.21,16.59 0.05,33.18 -0.12,49.76 -0.04,3.47 0.08,6.94 0.46,10.4 -0.88,3.8 -0.4,7.74 -0.42,11.61 0.11,16.61 -0.05,33.23 0.04,49.85 9.31,0.14 18.63,0.13 27.95,0.03 0.49,-9.96 0.14,-19.93 0.23,-29.89 -0.07,-10.65 0.17,-21.3 -0.13,-31.95 0.37,-10.14 -0.1,-20.29 0.24,-30.44 1.93,0.66 3.99,1.1 5.71,2.26 2.02,1.7 3.32,4.05 4.64,6.29 3.21,5.82 6.3,11.72 9.45,17.58 0.85,1.32 1.56,3.03 3.2,3.53 1.1,4.5 3.4,8.55 5.73,12.5 9.42,16.66 18.45,33.54 27.95,50.16 13.24,0.18 26.49,0.24 39.73,-0.05 8.33,-15.75 16.45,-31.61 24.69,-47.4 2.59,-4.76 5.04,-9.59 7.3,-14.5 5.05,-8.64 8.73,-18.18 15.26,-25.87 2.16,-2.35 5.13,-5.19 8.6,-4.24 2.8,2.11 4.33,5.38 6.13,8.29 4.39,7.3 8.79,14.6 13.47,21.73 12.45,20.74 25.44,41.17 38.02,61.84 10.93,0.51 21.88,0.37 32.82,0.08 -1.78,-3.49 -3.63,-6.94 -5.66,-10.28 -10.58,-17.44 -20.78,-35.11 -31.32,-52.58 -11.48,-19.55 -23.14,-38.99 -34.66,-58.51 -7.78,-0.27 -15.58,-0.4 -23.36,-0.09 -13.13,0.54 -25.52,8.4 -32.09,19.7 -5.85,9.99 -10.67,20.54 -16.33,30.63 -1.34,2.56 -3.16,5.15 -2.78,8.19 -4.23,3.91 -6.09,9.45 -8.69,14.43 -3.71,7.13 -7.05,14.45 -11.3,21.28 -2.41,-3.87 -4.59,-7.86 -6.61,-11.94 -3.77,-7.52 -8.01,-14.81 -11.5,-22.48 l -1.01,0.06 c -1.04,-3.13 -2.25,-6.21 -3.87,-9.09 -5.6,-9.89 -10.32,-20.25 -16,-30.1 -4.58,-7.81 -11.32,-14.52 -19.57,-18.38 -5.1,-2.38 -10.83,-2.5 -16.35,-2.45 -9.95,0.1 -19.9,0 -29.85,0.04 z"
       id="path163"
       inkscape:connector-curvature="0"
       style="opacity:1;fill:#000000" />
    <path
       d="m 506.96,328.23 c 3.87,0.02 7.74,0.03 11.62,-0.01 -5.23,11.41 -9.73,23.15 -15.13,34.49 -6.46,13.26 -13.39,26.29 -20.71,39.09 -21.39,35.93 -47.75,69.12 -79.36,96.61 -23.21,19.68 -48.63,36.91 -76.22,49.87 -8.42,3.87 -16.76,7.95 -25.45,11.18 -3.04,1.3 -6.2,-0.23 -9.07,-1.22 -11.3,-4.29 -22.19,-9.6 -32.95,-15.07 -21.74,-12.09 -42.42,-26.23 -60.99,-42.81 -10.18,-8.44 -19.32,-18.03 -28.51,-27.51 -21.81,-24.13 -41.28,-50.49 -57.13,-78.92 -4.17,-7.45 -8.65,-14.74 -12.15,-22.54 3.91,-0.07 7.82,-0.08 11.72,-0.03 4.24,9.16 9.28,17.92 14.42,26.59 17.93,30.03 39.6,57.91 64.86,82.15 28.1,26.91 60.71,49.54 96.89,64.13 4.06,1.55 8.41,3.39 12.84,2.41 4.01,-0.9 7.7,-2.79 11.45,-4.41 36.7,-15.7 70.46,-38.23 99.03,-66.1 32.59,-31.69 58.53,-69.78 78.45,-110.53 5.89,-12.26 11.29,-24.76 16.39,-37.37 z"
       id="path165"
       inkscape:connector-curvature="0"
       style="opacity:1;fill:#000000" />
  </g>
  <g
     id="#ffffffff"
     transform="matrix(0.08005311,0,0,0.08005311,-1.2156236e-6,1.1848636)">
    <path
       d="m 292.66,11.68 c 2.09,-1.68 4.12,-3.47 6.5,-4.75 1.91,0.42 3.36,1.88 4.89,3.03 13.26,11.39 27.96,20.94 42.62,30.4 35.95,22 74.69,39.49 115.06,51.63 8.66,2.61 17.5,4.54 26.22,6.9 25.64,6.38 51.96,9.47 78.28,11.27 0.3,11.05 -1.04,22.03 -1.36,33.06 -0.13,2.1 -0.32,4.2 -0.59,6.29 -1.91,12.18 -2.91,24.48 -4.92,36.65 -0.92,5.64 -1.66,11.3 -2.43,16.95 -0.62,4.34 -1.51,8.63 -2.41,12.92 7.8,1.39 15.7,3.54 22.27,8.13 11.9,8.61 18.83,23.24 18.84,37.83 0,7.02 -0.01,14.05 0.02,21.07 0.21,13.15 -6.27,25.94 -16.18,34.42 -6.38,5.3 -14.28,8.72 -22.49,9.85 -11.4,1.62 -22.94,0.58 -34.41,1.05 -2.54,7.76 -6.21,15.06 -9.33,22.59 -4.47,11.04 -10.2,21.48 -15.33,32.21 -8.5,16 -17.65,31.7 -28.21,46.44 -8.34,12.46 -17.46,24.4 -27.44,35.58 -23.88,27.69 -51.84,51.96 -83.15,70.91 -17.84,11.12 -36.89,20.18 -56.45,27.82 -4.6,2.07 -9.35,-0.58 -13.67,-2.12 -25.89,-9.93 -49.77,-24.45 -72.02,-40.88 -12.93,-10.3 -25.84,-20.7 -37.41,-32.54 -12.25,-11.79 -23.21,-24.83 -33.88,-38.03 -5.89,-7.84 -11.9,-15.6 -17.24,-23.82 -5.01,-7.65 -10.26,-15.16 -14.75,-23.14 -3.47,-6.17 -7.08,-12.25 -10.53,-18.43 -4,-7.14 -7.07,-14.76 -11.2,-21.83 -7.44,-13.46 -14.71,-27.02 -22.47,-40.3 -0.2,16.28 0.27,32.56 -0.23,48.83 C 48.1,371.55 26.94,371.56 5.78,371.66 5.58,367.1 5.53,362.55 5.55,357.99 5.68,310.28 5.4,262.57 5.69,214.86 c 12.98,-0.17 25.97,-0.02 38.95,-0.07 -0.94,-7.3 -2.53,-14.5 -3.55,-21.79 -2.17,-15.33 -4.55,-30.64 -6.03,-46.05 -0.73,-12 -2.49,-23.94 -2.48,-35.97 15.62,-0.91 31.3,-2.22 46.63,-5.54 67.05,-11.48 131.93,-36.69 188.24,-75 8.61,-5.97 17.14,-12.07 25.21,-18.76 M 239.65,53.69 C 205.88,73.33 169.4,88.04 131.86,98.7 c -6.57,1.95 -13.19,3.72 -19.9,5.11 -24.58,5.21 -49.41,10.01 -74.59,10.85 0.09,3 0.2,6.01 0.52,9.01 0.08,12.85 1.9,25.6 3.32,38.35 0.59,5.29 1.25,10.58 2.05,15.85 1.18,7.44 1.81,14.99 3.8,22.29 0.67,4.87 1.64,9.71 2.14,14.61 l 0.69,-0.04 c 5.07,1.08 10.3,1.13 15.44,0.6 2.54,0.5 5.07,1.04 7.61,1.54 -2.27,-14.2 -4.81,-28.37 -6.19,-42.69 -0.73,-10.24 -2.17,-20.43 -2.64,-30.69 4.23,1.09 8.42,2.35 12.52,3.84 17.98,6.5 36.15,12.47 54.15,18.9 8.09,2.78 16.05,5.9 24.18,8.57 -7.32,-4.27 -15.24,-7.3 -22.81,-11.05 -11.32,-5.8 -22.98,-10.88 -34.34,-16.58 -9.6,-4.7 -19.42,-8.97 -28.86,-13.99 4.71,-0.68 9.44,-1.23 14.19,-1.63 10.71,-0.93 21.27,-2.97 31.88,-4.64 4.42,-0.69 8.79,-1.66 13.11,-2.82 7.34,-2.01 14.88,-3.28 22.12,-5.67 6.45,-2.15 13.1,-3.64 19.52,-5.88 18.68,-6.69 37.24,-13.88 54.94,-22.89 9.36,-4.82 18.68,-9.74 27.65,-15.25 7.37,-4.58 14.92,-8.9 21.88,-14.09 5.94,-4.41 12.17,-8.44 17.82,-13.23 2.24,-1.82 4.4,-3.82 7.01,-5.12 4.34,1.5 7.32,5.37 11.02,7.95 16.16,12.22 33.22,23.29 51.09,32.85 17.25,8.97 34.69,17.73 53.04,24.24 22.5,8.89 45.93,15.27 69.66,19.88 16.26,3.24 32.83,4.4 49.33,5.78 -15.37,6.56 -30.21,14.27 -45.4,21.22 -13.77,6.98 -28.16,12.69 -41.73,20.06 10.45,-2.87 20.41,-7.16 30.69,-10.53 11.65,-4.2 23.34,-8.3 35.06,-12.31 7.96,-2.49 15.7,-5.67 23.71,-8.02 -1.05,11.28 -1.58,22.61 -3.01,33.86 -0.98,12.74 -4.09,25.17 -5.45,37.85 3.82,0.04 7.64,0.06 11.45,-0.26 0.08,-0.35 0.24,-1.03 0.32,-1.38 l -0.14,0.86 c 3.76,0.79 7.63,0.86 11.47,0.95 0.27,-1.65 0.55,-3.31 0.81,-4.97 0.81,-2.9 1.54,-5.82 2.06,-8.79 3.1,-19.09 5.57,-38.28 7.22,-57.55 0.44,-7.65 1.43,-15.31 0.84,-22.97 0.16,-2.21 0.22,-4.42 0.29,-6.63 -8.86,-1.06 -17.79,-1.21 -26.63,-2.52 -10.69,-0.9 -21.18,-3.36 -31.85,-4.42 -8.02,-1.9 -16.16,-3.25 -24.15,-5.23 -7.97,-1.93 -15.8,-4.35 -23.62,-6.76 C 426.45,86.56 398.76,74.78 372.29,60.81 346.33,47.28 322.05,30.72 299.1,12.58 280.63,28.1 260.54,41.65 239.65,53.69 M 49.99,217.6 c -13.77,0.08 -27.54,-0.12 -41.31,0.1 -0.58,49.92 0.08,99.85 -0.43,149.78 19.02,-0.26 38.04,0.08 57.06,-0.18 0.36,-19.57 -0.25,-39.14 0.3,-58.7 4.66,6.84 8.12,14.38 12.24,21.52 6.86,12.48 14.08,24.76 20.53,37.46 19.44,0.11 38.89,0.01 58.33,0.06 4.71,-9.54 10.05,-18.74 14.78,-28.26 7.85,-13.94 14.85,-28.32 22.47,-42.38 2.41,-4.41 4.5,-8.99 6.76,-13.49 2.41,2.89 4.31,6.14 6.12,9.41 14.66,24.91 29.94,49.45 44.41,74.47 53.25,-0.05 106.51,0.09 159.75,-0.07 6.17,-10.89 12.8,-21.5 18.9,-32.42 2.04,-3.27 3.54,-7.02 6.45,-9.64 4.15,-0.89 8.44,-0.42 12.65,-0.49 32.35,0.06 64.7,0 97.04,0.04 4.65,0.01 9.33,-0.15 13.89,-1.17 9.83,-2.04 18.73,-8.13 24.25,-16.52 4.28,-6.56 7.23,-14.18 7.45,-22.08 0.15,-6.01 -0.06,-12.03 0.04,-18.04 -0.02,-5.07 0.33,-10.22 -0.88,-15.2 -2.71,-11.32 -10.22,-21.5 -20.51,-27.02 -7.75,-4.1 -16.57,-5.84 -25.28,-5.93 -50.67,-0.01 -101.35,0.01 -152.02,-0.01 -2.86,0.03 -5.72,0.19 -8.58,0.37 -17.1,28.29 -34.78,56.24 -51.78,84.59 -0.52,0.8 -1.17,1.57 -2.12,1.86 -5.99,-9.15 -11.35,-18.69 -17.17,-27.95 -6.94,-10.83 -13.38,-21.97 -20.23,-32.86 -5.47,-8.56 -10.4,-17.45 -16.1,-25.85 -22.33,-0.35 -44.67,-0.05 -67,-0.15 -8.4,0.09 -16.93,-0.54 -25.21,1.3 -11.86,2.83 -22.18,10.89 -28.5,21.24 -10.19,17.32 -18.15,35.86 -28.38,53.15 -8.96,-15.48 -16.72,-31.61 -25.21,-47.33 -2.87,-5.29 -5.5,-10.82 -9.68,-15.22 -6.78,-7.41 -16.35,-11.72 -26.09,-13.57 -5.57,-1.13 -11.29,-0.81 -16.94,-0.82 m 445.4,110.75 c -10.13,26.51 -23.13,51.89 -38.22,75.92 -25.56,39.94 -58.91,75.3 -98.94,100.94 -12.43,8.4 -25.91,15.05 -39.36,21.62 -3.83,1.87 -7.83,3.35 -11.89,4.63 -1.2,-8.7 -1.61,-17.49 -2.61,-26.21 -1.61,-14.86 -2.48,-29.81 -4.44,-44.61 -0.89,5.59 -1.24,11.24 -1.72,16.88 -1.08,10.25 -2.11,20.51 -3.2,30.76 -0.89,8.19 -2.04,16.36 -2.54,24.59 -17.71,-7.15 -34.89,-15.76 -50.61,-26.64 -10.88,-6.92 -21.07,-14.84 -30.89,-23.17 -31.38,-27.1 -57.69,-59.85 -78.28,-95.8 -3,-5.16 -6,-10.34 -8.39,-15.82 -3.89,-0.11 -7.78,-0.12 -11.67,-0.08 -3.9,-0.05 -7.81,-0.04 -11.72,0.03 3.5,7.8 7.98,15.09 12.15,22.54 15.85,28.43 35.32,54.79 57.13,78.92 9.19,9.48 18.33,19.07 28.51,27.51 18.57,16.58 39.25,30.72 60.99,42.81 10.76,5.47 21.65,10.78 32.95,15.07 2.87,0.99 6.03,2.52 9.07,1.22 8.69,-3.23 17.03,-7.31 25.45,-11.18 27.59,-12.96 53.01,-30.19 76.22,-49.87 31.61,-27.49 57.97,-60.68 79.36,-96.61 7.32,-12.8 14.25,-25.83 20.71,-39.09 5.4,-11.34 9.9,-23.08 15.13,-34.49 -3.88,0.04 -7.75,0.03 -11.62,0.01 -3.86,0.02 -7.71,0.05 -11.57,0.12 z"
       id="path168"
       inkscape:connector-curvature="0"
       style="opacity:1;fill:#ffffff" />
    <path
       d="m 15.16,224.69 c 10.28,-0.29 20.56,-0.05 30.84,-0.15 5.46,0.01 10.98,-0.29 16.38,0.72 9.72,1.76 19.18,6.09 26.07,13.29 6.13,6.25 9.92,14.27 13.73,22.04 4.61,9.63 9.97,18.87 14.66,28.47 3.56,7.32 7.52,14.44 11.07,21.76 5.39,-9.41 9.86,-19.31 15.13,-28.78 4.08,-7.28 7.63,-14.85 11.66,-22.17 3.77,-6.81 6.84,-14.17 12.25,-19.92 7.11,-7.99 16.98,-14.63 28.07,-14.4 25.97,0.14 51.95,-0.1 77.92,0.13 4.02,6.23 7.84,12.56 11.58,18.96 13.94,22.41 27.57,45.02 41.34,67.54 1.58,2.22 3.4,5.5 6.58,5.19 1.45,-1.18 2.46,-2.77 3.45,-4.32 8.93,-15.35 18.64,-30.24 27.63,-45.55 6.16,-9.85 12.06,-19.85 18.22,-29.69 2.52,-3.94 4.34,-8.39 7.54,-11.84 4.19,-0.78 8.49,-0.32 12.72,-0.39 46.01,0.03 92.03,0.01 138.04,0 8.64,0.01 17.45,1.2 25.39,4.77 8.35,3.78 15.52,10.81 18.24,19.7 2.23,7.1 1.7,14.62 1.77,21.95 -0.03,6.65 0.55,13.54 -1.85,19.91 -3.81,11.59 -13.95,20.72 -25.76,23.64 -5.18,1.27 -10.54,1.44 -15.84,1.59 -36.55,0.13 -73.09,-0.16 -109.64,0.14 -7.67,13.25 -15.89,26.18 -23.5,39.46 -0.76,1.23 -1.54,2.47 -2.57,3.51 -1.09,0.21 -2.19,0.33 -3.29,0.35 -44.33,-0.08 -88.66,-0.03 -132.99,-0.04 -4.47,-0.08 -8.98,0.38 -13.42,-0.24 -1.3,-1.06 -2.2,-2.5 -3.11,-3.87 -6.6,-10.79 -12.96,-21.73 -19.53,-32.54 -8.37,-12.99 -15.75,-26.58 -24.15,-39.55 -2.93,-4.84 -5.68,-9.78 -8.84,-14.48 -11.63,22.61 -24.09,44.77 -35.74,67.36 -2.79,5.43 -5.86,10.72 -8.62,16.16 -1.21,2.27 -2.3,4.62 -3.92,6.64 -2.17,0.47 -4.42,0.4 -6.63,0.42 -14.26,-0.14 -28.53,-0.01 -42.79,-0.07 -3.41,-7 -7.43,-13.68 -11.13,-20.52 C 84.31,325.46 76.23,311.2 68.23,296.9 64.91,291.04 61.96,284.96 58.1,279.42 c -0.54,6.85 -0.29,13.72 -0.32,20.58 -0.02,20.21 0.03,40.42 -0.02,60.62 -14.18,-0.1 -28.37,-0.11 -42.55,0.01 -0.1,-45.31 0,-90.63 -0.05,-135.94 m 213.67,5.21 c 5.52,10.63 12.46,20.43 18.43,30.81 16.37,26.99 33.03,53.83 48.91,81.13 3.1,5.15 7.49,9.78 13.16,12.06 4.96,2.06 10.44,1.48 15.68,1.54 7.36,-0.16 14.72,0.19 22.08,-0.08 3.76,-0.11 7.33,-1.69 10.22,-4.05 7.74,-6.18 12.81,-14.86 17.69,-23.31 9.95,-16.4 19.45,-33.07 29.48,-49.42 7.82,-13.48 15.77,-26.89 23.92,-40.18 1.65,-2.75 3.11,-5.6 4.49,-8.49 -13.67,-0.52 -27.36,-0.12 -41.03,-0.23 -4.91,7.52 -9.38,15.31 -14.1,22.95 -11.02,19.24 -22.82,38.01 -33.98,57.18 -2.67,4.41 -5.34,9.3 -10.01,11.89 -1.36,0.86 -3.06,0.69 -4.38,-0.14 -4.82,-2.72 -7.85,-7.57 -10.64,-12.17 -8.67,-14.64 -17.56,-29.15 -26.14,-43.84 -5.76,-10.18 -12.09,-20.03 -17.93,-30.17 -1.02,-1.68 -1.99,-3.42 -3.32,-4.87 -2.27,-1.07 -4.89,-0.72 -7.32,-0.83 -11.74,0.21 -23.48,-0.13 -35.21,0.22 m 208.75,0.54 c -2.88,3.39 -4.66,7.54 -6.99,11.3 -9.93,16.64 -20.06,33.16 -30.04,49.76 -8.18,14.1 -16.95,27.85 -25.15,41.93 -4.25,7.23 -8.95,14.21 -12.66,21.75 14.31,0.25 28.63,0.24 42.94,0.21 2.99,-5.8 6.49,-11.32 9.82,-16.93 13.7,-22.95 27.26,-46 40.94,-68.96 0.89,-1.44 1.79,-2.91 3.02,-4.09 2.09,-0.65 4.31,-0.62 6.49,-0.67 17.35,0.13 34.7,0.03 52.05,0.07 8.55,0.07 17.15,-0.42 25.66,0.71 -0.34,4.03 -0.31,8.08 0.12,12.09 -2.88,0.51 -5.78,0.94 -8.71,0.97 -27.1,-0.1 -54.2,-0.02 -81.29,-0.06 -2.73,4.09 -5.27,8.3 -7.74,12.55 -4.51,7.71 -9.39,15.2 -13.35,23.22 23.1,0.16 46.2,-0.07 69.31,-0.14 12.01,0.1 24,-0.63 36.01,-0.35 9.3,0.26 19.01,-0.75 27.17,-5.56 6.84,-3.87 11.84,-10.58 14.1,-18.05 2.3,-7.18 1.98,-14.8 1.95,-22.23 -0.07,-7.41 -0.72,-15.16 -4.53,-21.69 -3.93,-7.09 -11.21,-11.66 -18.74,-14.13 -9.36,-2.93 -19.29,-2.34 -28.96,-2.39 -28.69,-0.02 -57.39,0.06 -86.09,-0.06 -1.79,0.08 -3.66,0.02 -5.33,0.75 M 21.7,230.78 c -0.22,12.4 -0.04,24.81 -0.09,37.22 0.06,29.77 -0.13,59.53 0.09,89.3 10.99,0.1 22,0.24 32.99,-0.09 -0.12,-25.41 0,-50.81 -0.06,-76.21 -0.03,-5.04 -0.09,-10.09 0.39,-15.1 2.2,1.77 4.33,3.74 5.59,6.32 7.88,15.08 16.48,29.77 24.51,44.77 7.31,13.51 15.17,26.72 22.17,40.4 11.92,0.03 23.83,-0.08 35.74,0.06 2.25,-0.02 4.52,0.06 6.73,-0.38 1.16,-0.57 1.71,-1.82 2.4,-2.84 8.47,-16.48 16.87,-33 25.57,-49.36 4.71,-9.25 9.35,-18.54 14.44,-27.59 1.92,-3.34 3.95,-6.68 6.65,-9.45 1.31,-1.34 2.89,-2.63 4.84,-2.75 1.52,1.61 2.73,3.48 3.88,5.37 9.97,16.94 20.74,33.39 30.85,50.24 7.57,12.2 15.06,24.44 22.68,36.6 12.82,0.1 25.64,0.3 38.44,-0.12 -3.78,-7.31 -8.25,-14.24 -12.4,-21.35 -8.09,-13.82 -16.35,-27.54 -24.57,-41.28 -12.41,-21.32 -25.26,-42.38 -37.6,-63.74 -7.97,-0.09 -15.94,-0.28 -23.9,0.01 -9.98,0.46 -19.88,4.21 -27.19,11.11 -5.8,5.14 -9.46,12.09 -12.94,18.9 -3.35,6.58 -6.76,13.13 -10.29,19.62 -4.3,7.88 -7.97,16.08 -12.27,23.96 -3.3,6.07 -6.43,12.22 -9.3,18.5 -3.43,-5.77 -6.3,-11.84 -9.36,-17.8 -8.99,-16.69 -17.55,-33.6 -26.38,-50.37 -5.21,-9.07 -12.63,-17.5 -22.48,-21.54 -4.99,-2.1 -10.45,-2.61 -15.8,-2.53 -11.11,0.1 -22.22,-0.06 -33.33,0.12 z"
       id="path170"
       inkscape:connector-curvature="0"
       style="opacity:1;fill:#ffffff" />
    <path
       d="m 394.77,234.89 c 2.28,-0.79 4.76,-0.65 7.14,-0.75 7.73,0.04 15.46,0.15 23.19,0.3 -2.83,5.34 -5.86,10.56 -9.06,15.68 -6.29,10.4 -12.46,20.86 -18.79,31.23 -2.37,3.8 -4.31,7.84 -6.34,11.83 -2,2.66 -3.87,5.42 -5.57,8.28 -5.84,9.83 -11.72,19.62 -17.57,29.44 -4.2,6.71 -8.92,13.8 -16.24,17.41 -6.21,2.4 -13.04,1.28 -19.53,1.44 -6.79,-0.25 -13.72,0.84 -20.4,-0.73 -5.23,-1.87 -8.16,-7.04 -11.11,-11.4 -9.39,-14.93 -18.2,-30.23 -27.96,-44.91 -11.04,-19.4 -23.42,-38 -34.55,-57.35 8.05,-0.04 16.09,-0.33 24.13,-0.21 2.3,0.16 5.13,0.02 6.62,2.16 3.17,3.96 5.25,8.64 7.96,12.91 9.07,14.62 17.71,29.5 26.84,44.08 4.25,7.09 8.44,14.22 12.75,21.27 2.54,4.06 5.39,8.31 9.81,10.52 3.57,1.85 8.05,1.68 11.48,-0.43 4.41,-2.65 7.09,-7.24 9.68,-11.54 3.66,-6.47 7.83,-12.68 10.9,-19.48 2.35,-3.54 4.8,-7.01 6.9,-10.7 7.09,-12.21 14.34,-24.32 21.48,-36.49 2.6,-4.25 4.44,-9.18 8.24,-12.56 m 0.26,0 c -5.28,7.64 -9.45,15.97 -14.36,23.85 -6.52,11.46 -13.67,22.56 -19.92,34.18 -4.07,6.32 -7.73,12.89 -11.54,19.37 -2.74,4.68 -5.29,9.79 -9.81,13.03 -3.81,2.84 -9.11,3.25 -13.46,1.55 -4.36,-1.97 -7.27,-6.02 -9.74,-9.95 -4.15,-6.85 -8.35,-13.66 -12.35,-20.6 -0.88,-1.08 -1.37,-2.82 -2.85,-3.14 -2.57,-6.7 -6.88,-12.48 -10.43,-18.65 -7.8,-12.92 -15.53,-25.88 -23.57,-38.65 -9.17,-0.28 -18.35,-0.32 -27.51,0.12 1.91,3.8 4,7.52 6.28,11.12 6.31,10.06 12.37,20.27 18.64,30.36 3.17,5.24 6.52,10.39 9.42,15.79 l 0.97,-0.01 c 2.17,5.18 5.31,9.83 8.29,14.56 5.94,9.7 11.95,19.36 17.86,29.08 2.42,3.86 4.96,7.89 8.85,10.44 3.3,2.14 7.4,1.98 11.18,2.05 6.01,-0.12 12.02,-0.16 18.03,-0.02 4.64,-0.03 9.73,0.22 13.72,-2.56 7.12,-5 12.11,-12.36 16.43,-19.78 6.65,-11.29 13.64,-22.38 20.06,-33.8 9.95,-15.86 19.2,-32.14 29.05,-48.06 2.04,-3.26 3.79,-6.7 5.37,-10.21 -9.53,-0.4 -19.08,-0.46 -28.61,-0.07 z"
       id="path172"
       inkscape:connector-curvature="0"
       style="opacity:1;fill:#ffffff" />
    <path
       d="m 440.62,234.56 c 8.12,-0.4 16.25,-0.26 24.38,-0.2 23.33,-0.05 46.66,0.05 70,-0.06 6.08,0.01 12.25,0.07 18.15,1.71 7.72,2.03 15.19,6.34 19.53,13.22 2.82,4.36 3.1,9.71 3.23,14.74 0.12,9.74 0.48,19.8 -3,29.08 -3.21,3.7 -6.15,7.77 -10.27,10.53 -3.8,2.62 -8.39,3.76 -12.91,4.31 l -0.91,-0.02 c 4.98,-1.23 9.97,-2.84 14.31,-5.65 3.17,-2.05 5.57,-5.06 7.59,-8.22 3.86,-6.63 4.89,-14.42 4.85,-21.97 -0.04,-7.17 0.32,-14.81 -3.12,-21.35 -3.49,-6.62 -10.25,-10.8 -17.16,-13.12 -10.07,-3.38 -20.84,-2.74 -31.29,-2.77 -22.33,-0.01 -44.66,0.09 -67,-0.05 -5.08,0.1 -10.4,-0.73 -15.3,0.91 -3.18,2.72 -4.8,6.73 -6.95,10.23 -9.22,15.75 -18.87,31.25 -28.02,47.04 -7.65,12.68 -15.26,25.37 -22.86,38.07 -3.65,5.96 -7.38,11.87 -10.42,18.17 6.86,0.32 13.74,0.37 20.61,0.45 2.51,-0.07 5.11,0.08 7.52,-0.77 1.88,-1.26 3.07,-3.28 4.29,-5.13 9.76,-16.69 20.01,-33.08 29.86,-49.71 5.63,-9.17 11.26,-18.34 16.68,-27.64 1.37,-2.14 2.63,-4.52 4.74,-6.03 2.07,-1.04 4.49,-0.84 6.74,-0.94 19.37,0.3 38.74,0.09 58.11,0.15 6.22,0.07 12.47,-0.43 18.68,0.22 3.25,0.37 7.13,1.63 8.22,5.09 1.07,3.54 0.94,7.34 0.6,10.99 -0.33,2.55 -0.98,5.7 -3.63,6.81 -3.44,1.32 -7.23,1.11 -10.84,1.19 -23.03,-0.39 -46.07,0.12 -69.09,-0.32 -2.49,0.07 -5.06,0 -7.42,0.89 -2.71,2.19 -4.15,5.49 -5.92,8.41 -2.61,4.49 -5.24,8.99 -8.14,13.3 l -0.81,-0.07 c 2.52,-4.2 5.07,-8.38 7.51,-12.63 2.04,-3.25 3.61,-7.02 6.73,-9.4 2.53,-1.06 5.36,-0.86 8.05,-0.95 22.69,0.45 45.4,-0.08 68.1,0.32 3.85,-0.11 8,0.14 11.53,-1.7 2.85,-1.81 2.98,-5.62 3.21,-8.65 0,-3.35 0.16,-7.08 -1.77,-9.99 -2.58,-2.56 -6.58,-2.42 -9.95,-2.65 -24.38,0.09 -48.76,0.18 -73.14,-0.04 -2.15,0.1 -4.4,0.04 -6.4,0.94 -2.4,1.78 -3.83,4.51 -5.38,7 -4.71,8.31 -10.23,16.16 -14.14,24.91 -5.41,6.51 -9.13,14.16 -13.65,21.28 -7.41,11.88 -14.42,24.01 -21.8,35.91 -10.2,-0.17 -20.42,0.17 -30.61,-0.47 4.18,-8.31 9.37,-16.04 14.1,-24.04 6.42,-10.92 13.26,-21.6 19.26,-32.76 2.82,-4.21 5.46,-8.54 8.05,-12.89 9.06,-15.24 18.3,-30.38 27.27,-45.68 z"
       id="path174"
       inkscape:connector-curvature="0"
       style="opacity:1;fill:#ffffff" />
    <path
       d="m 26.34,235.41 c 8.56,0.18 17.13,0.1 25.7,0.03 4.9,-0.04 9.95,0.18 14.51,2.14 5.95,2.53 11.13,6.64 15.43,11.42 5.27,5.84 8.15,13.27 11.83,20.11 4.32,8.07 8.44,16.25 12.79,24.31 5.54,10.44 10.65,21.11 16.19,31.55 1.48,2.43 3.24,6.41 6.77,4.96 3.42,-3.35 5.12,-7.97 7.36,-12.11 3.92,-8.13 8.7,-15.85 12.08,-24.23 4.74,-7.97 8.96,-16.23 13.28,-24.44 3.41,-6.48 6.13,-13.42 10.68,-19.23 5.97,-7.64 15.01,-12.79 24.64,-13.99 5.13,-0.63 10.32,-0.54 15.49,-0.59 2.35,0.07 4.8,-0.06 7.06,0.72 2.01,1.22 3.17,3.38 4.41,5.3 10.1,17.78 20.65,35.29 30.98,52.93 9.05,15.31 17.96,30.7 27.1,45.95 2.15,3.6 3.97,7.39 5.9,11.11 -0.28,-0.43 -0.83,-1.29 -1.11,-1.72 -3.16,-4.59 -5.91,-9.43 -8.67,-14.27 -8.43,-14.18 -16.64,-28.5 -25.21,-42.61 -9.54,-17.06 -19.92,-33.62 -29.47,-50.67 -1.23,-1.83 -2.33,-4.06 -4.44,-4.99 -3.11,-0.93 -6.42,-0.75 -9.63,-0.81 -6.25,0.08 -12.66,-0.1 -18.69,1.83 -7.44,2.39 -14.17,7.17 -18.61,13.63 -3.21,4.67 -5.63,9.8 -8.27,14.8 -4.5,8.83 -9.01,17.65 -13.68,26.39 -5.27,10.37 -11.01,20.49 -16.01,31 -1.1,2.06 -2.1,4.3 -3.9,5.86 -1.87,0.97 -4.09,0.84 -6.13,1.14 C 118.78,317.98 111.74,305.6 105.27,292.92 100.89,284.03 96,275.4 91.63,266.5 88.6,260.4 85.56,254.17 80.94,249.09 76.88,244.63 72.05,240.74 66.46,238.4 61.58,236.34 56.19,236.37 51,236.39 c -8.05,0.09 -16.11,-0.01 -24.16,0.26 -0.49,18.87 0.19,37.74 -0.32,56.61 l -0.08,-0.92 c -0.38,-6.11 -0.23,-12.23 -0.21,-18.34 0.08,-12.86 -0.18,-25.73 0.11,-38.59 z"
       id="path176"
       inkscape:connector-curvature="0"
       style="opacity:1;fill:#ffffff" />
    <path
       d="m 198.23,259.28 c 2.25,-1.42 5.25,-2.6 7.81,-1.29 2.88,1.78 4.5,4.9 6.23,7.7 5.44,9.57 11.38,18.85 17.1,28.26 7.43,12.12 14.62,24.38 22.1,36.48 4.19,6.78 8.08,13.76 12.66,20.29 -0.36,0.02 -1.08,0.06 -1.44,0.07 -11.55,-19.49 -23.4,-38.81 -35.16,-58.19 -3.71,-6.28 -7.5,-12.51 -11.29,-18.74 -2.55,-4.13 -4.64,-8.57 -7.71,-12.36 -1.52,-1.91 -3.83,-3.6 -6.41,-3.02 -4.56,0.91 -7.77,4.71 -10.36,8.3 -5.58,8.19 -9.48,17.35 -14.1,26.08 -10.53,19.47 -20.57,39.2 -31.01,58.72 -12.09,0.19 -24.19,0.18 -36.28,0 -4.91,-8.46 -9.33,-17.19 -14.07,-25.74 C 90.67,315.48 84.87,305.2 79.58,294.67 l 0.53,0.48 c 10.9,18.32 20.34,37.47 30.91,55.98 11.65,0.17 23.31,0.17 34.97,0 4.65,-8.21 8.66,-16.75 13.2,-25.01 5.71,-10.95 11.53,-21.85 17.19,-32.83 3.59,-6.48 6.9,-13.11 10.34,-19.66 3,-5.35 6.32,-10.86 11.51,-14.35 z"
       id="path178"
       inkscape:connector-curvature="0"
       style="opacity:1;fill:#ffffff" />
  </g>
  <g
     id="#166ba6ff"
     transform="matrix(0.08005311,0,0,0.08005311,-1.2156236e-6,1.1848636)">
    <path
       d="m 233.58,71.62 c 23.28,-12.44 45.11,-27.45 65.64,-44 6.82,4.85 13.16,10.33 19.99,15.17 18.98,13.62 39.11,25.63 60.07,35.96 16.03,8.25 32.8,14.93 49.69,21.19 23.92,8.5 48.56,14.99 73.6,19.21 15.2,1.92 30.36,4.48 45.7,4.86 -0.32,9.7 -0.93,19.38 -1.45,29.07 -0.43,8.24 -1.89,16.37 -2.82,24.56 -1.36,11.89 -2.89,23.76 -5.15,35.51 -0.08,0.35 -0.24,1.03 -0.32,1.38 -3.81,0.32 -7.63,0.3 -11.45,0.26 1.36,-12.68 4.47,-25.11 5.45,-37.85 1.43,-11.25 1.96,-22.58 3.01,-33.86 -8.01,2.35 -15.75,5.53 -23.71,8.02 -11.72,4.01 -23.41,8.11 -35.06,12.31 -10.28,3.37 -20.24,7.66 -30.69,10.53 13.57,-7.37 27.96,-13.08 41.73,-20.06 15.19,-6.95 30.03,-14.66 45.4,-21.22 -16.5,-1.38 -33.07,-2.54 -49.33,-5.78 C 460.15,122.27 436.72,115.89 414.22,107 395.87,100.49 378.43,91.73 361.18,82.76 343.31,73.2 326.25,62.13 310.09,49.91 c -3.7,-2.58 -6.68,-6.45 -11.02,-7.95 -2.61,1.3 -4.77,3.3 -7.01,5.12 -5.65,4.79 -11.88,8.82 -17.82,13.23 -6.96,5.19 -14.51,9.51 -21.88,14.09 -8.97,5.51 -18.29,10.43 -27.65,15.25 -17.7,9.01 -36.26,16.2 -54.94,22.89 -6.42,2.24 -13.07,3.73 -19.52,5.88 -7.24,2.39 -14.78,3.66 -22.12,5.67 -4.32,1.16 -8.69,2.13 -13.11,2.82 -10.61,1.67 -21.17,3.71 -31.88,4.64 -4.75,0.4 -9.48,0.95 -14.19,1.63 9.44,5.02 19.26,9.29 28.86,13.99 11.36,5.7 23.02,10.78 34.34,16.58 7.57,3.75 15.49,6.78 22.81,11.05 -8.13,-2.67 -16.09,-5.79 -24.18,-8.57 -18,-6.43 -36.17,-12.4 -54.15,-18.9 -4.1,-1.49 -8.29,-2.75 -12.52,-3.84 0.47,10.26 1.91,20.45 2.64,30.69 1.38,14.32 3.92,28.49 6.19,42.69 -2.54,-0.5 -5.07,-1.04 -7.61,-1.54 -1.53,-0.3 -3.06,-0.57 -4.61,-0.77 -1.42,-11.04 -3.41,-21.99 -4.66,-33.06 -2.09,-12.25 -2.54,-24.69 -4.28,-36.98 -0.93,-6.67 -1.33,-13.4 -1.59,-20.12 10.58,-0.55 21.2,-1.09 31.67,-2.84 14.82,-2.4 29.72,-4.63 44.25,-8.49 17.23,-4.58 34.45,-9.35 51.09,-15.82 19.45,-7 38.13,-15.97 56.38,-25.63 z"
       id="path181"
       inkscape:connector-curvature="0"
       style="opacity:1;fill:#166ba6" />
    <path
       d="m 393.15,232.25 c 11.75,-0.03 23.51,-0.18 35.27,0.07 -1.39,2.93 -2.83,5.83 -4.48,8.62 -7.99,13.08 -15.68,26.33 -23.54,39.48 -2.53,4.03 -4.23,8.82 -8.24,11.7 -0.32,0.26 -0.94,0.8 -1.25,1.06 2.03,-3.99 3.97,-8.03 6.34,-11.83 6.33,-10.37 12.5,-20.83 18.79,-31.23 3.2,-5.12 6.23,-10.34 9.06,-15.68 -7.73,-0.15 -15.46,-0.26 -23.19,-0.3 -2.38,0.1 -4.86,-0.04 -7.14,0.75 -3.8,3.38 -5.64,8.31 -8.24,12.56 -7.14,12.17 -14.39,24.28 -21.48,36.49 -2.1,3.69 -4.55,7.16 -6.9,10.7 0,-0.43 -0.01,-1.28 -0.01,-1.71 -0.32,-2.17 0.78,-4.11 1.89,-5.88 11.34,-18.08 21.8,-36.71 33.12,-54.8 z"
       id="path183"
       inkscape:connector-curvature="0"
       style="opacity:1;fill:#166ba6" />
    <path
       d="m 395.03,234.89 c 9.53,-0.39 19.08,-0.33 28.61,0.07 -1.58,3.51 -3.33,6.95 -5.37,10.21 -9.85,15.92 -19.1,32.2 -29.05,48.06 -9.49,-0.09 -18.99,0.13 -28.47,-0.31 6.25,-11.62 13.4,-22.72 19.92,-34.18 4.91,-7.88 9.08,-16.21 14.36,-23.85 z"
       id="path185"
       inkscape:connector-curvature="0"
       style="opacity:1;fill:#166ba6" />
    <path
       d="m 441.7,235.65 c 4.9,-1.64 10.22,-0.81 15.3,-0.91 22.34,0.14 44.67,0.04 67,0.05 10.45,0.03 21.22,-0.61 31.29,2.77 6.91,2.32 13.67,6.5 17.16,13.12 3.44,6.54 3.08,14.18 3.12,21.35 0.04,7.55 -0.99,15.34 -4.85,21.97 -4.56,-0.54 -9.14,-0.89 -13.73,-0.89 -28.99,0.19 -57.99,0 -86.99,0.11 -5.81,0.03 -11.61,-0.09 -17.4,-0.4 1.77,-2.92 3.21,-6.22 5.92,-8.41 2.36,-0.89 4.93,-0.82 7.42,-0.89 23.02,0.44 46.06,-0.07 69.09,0.32 3.61,-0.08 7.4,0.13 10.84,-1.19 2.65,-1.11 3.3,-4.26 3.63,-6.81 0.34,-3.65 0.47,-7.45 -0.6,-10.99 -1.09,-3.46 -4.97,-4.72 -8.22,-5.09 -6.21,-0.65 -12.46,-0.15 -18.68,-0.22 -19.37,-0.06 -38.74,0.15 -58.11,-0.15 -2.25,0.1 -4.67,-0.1 -6.74,0.94 -2.11,1.51 -3.37,3.89 -4.74,6.03 -5.42,9.3 -11.05,18.47 -16.68,27.64 -9.62,-1.32 -19.34,-0.62 -29,-1.08 9.15,-15.79 18.8,-31.29 28.02,-47.04 2.15,-3.5 3.77,-7.51 6.95,-10.23 z"
       id="path187"
       inkscape:connector-curvature="0"
       style="opacity:1;fill:#166ba6" />
    <path
       d="m 239.49,236 c 9.16,-0.44 18.34,-0.4 27.51,-0.12 8.04,12.77 15.77,25.73 23.57,38.65 3.55,6.17 7.86,11.95 10.43,18.65 -8.73,-0.24 -17.47,0.14 -26.2,0.08 l -0.97,0.01 c -2.9,-5.4 -6.25,-10.55 -9.42,-15.79 -6.27,-10.09 -12.33,-20.3 -18.64,-30.36 -2.28,-3.6 -4.37,-7.32 -6.28,-11.12 z"
       id="path189"
       inkscape:connector-curvature="0"
       style="opacity:1;fill:#166ba6" />
    <path
       d="m 26.84,236.65 c 8.05,-0.27 16.11,-0.17 24.16,-0.26 5.19,-0.02 10.58,-0.05 15.46,2.01 5.59,2.34 10.42,6.23 14.48,10.69 4.62,5.08 7.66,11.31 10.69,17.41 4.37,8.9 9.26,17.53 13.64,26.42 -8.62,0.36 -17.25,0.08 -25.86,0.67 -2.94,-7.34 -7.37,-13.93 -11.02,-20.92 -2.35,-4.19 -4.5,-8.66 -8.03,-12.02 -3.28,-3.14 -8.16,-2.76 -12.34,-3.19 -0.43,11.89 -0.17,23.78 -0.09,35.66 -7.14,0.02 -14.27,0.14 -21.41,0.14 0.51,-18.87 -0.17,-37.74 0.32,-56.61 z"
       id="path191"
       inkscape:connector-curvature="0"
       style="opacity:1;fill:#166ba6" />
    <path
       d="m 191.32,238.11 c 6.03,-1.93 12.44,-1.75 18.69,-1.83 3.21,0.06 6.52,-0.12 9.63,0.81 2.11,0.93 3.21,3.16 4.44,4.99 9.55,17.05 19.93,33.61 29.47,50.67 -8.06,0.39 -16.15,0.3 -24.18,1.2 -5.72,-9.41 -11.66,-18.69 -17.1,-28.26 -1.73,-2.8 -3.35,-5.92 -6.23,-7.7 -2.56,-1.31 -5.56,-0.13 -7.81,1.29 -5.19,3.49 -8.51,9 -11.51,14.35 -3.44,6.55 -6.75,13.18 -10.34,19.66 -8.54,-0.09 -17.09,-0.03 -25.62,-0.36 4.67,-8.74 9.18,-17.56 13.68,-26.39 2.64,-5 5.06,-10.13 8.27,-14.8 4.44,-6.46 11.17,-11.24 18.61,-13.63 z"
       id="path193"
       inkscape:connector-curvature="0"
       style="opacity:1;fill:#166ba6" />
    <path
       d="m 191.76,266.78 c 2.59,-3.59 5.8,-7.39 10.36,-8.3 2.58,-0.58 4.89,1.11 6.41,3.02 3.07,3.79 5.16,8.23 7.71,12.36 3.79,6.23 7.58,12.46 11.29,18.74 -0.81,0.07 -2.42,0.22 -3.23,0.29 -4.68,-7.13 -9.08,-14.43 -13.47,-21.73 -1.8,-2.91 -3.33,-6.18 -6.13,-8.29 -3.47,-0.95 -6.44,1.89 -8.6,4.24 -6.53,7.69 -10.21,17.23 -15.26,25.87 -0.79,-0.03 -2.38,-0.09 -3.18,-0.12 4.62,-8.73 8.52,-17.89 14.1,-26.08 z"
       id="path195"
       inkscape:connector-curvature="0"
       style="opacity:1;fill:#166ba6" />
    <path
       d="m 495.39,328.35 c 3.86,-0.07 7.71,-0.1 11.57,-0.12 -5.1,12.61 -10.5,25.11 -16.39,37.37 -19.92,40.75 -45.86,78.84 -78.45,110.53 -28.57,27.87 -62.33,50.4 -99.03,66.1 -3.75,1.62 -7.44,3.51 -11.45,4.41 -4.43,0.98 -8.78,-0.86 -12.84,-2.41 -36.18,-14.59 -68.79,-37.22 -96.89,-64.13 -25.26,-24.24 -46.93,-52.12 -64.86,-82.15 -5.14,-8.67 -10.18,-17.43 -14.42,-26.59 3.89,-0.04 7.78,-0.03 11.67,0.08 2.39,5.48 5.39,10.66 8.39,15.82 20.59,35.95 46.9,68.7 78.28,95.8 9.82,8.33 20.01,16.25 30.89,23.17 15.72,10.88 32.9,19.49 50.61,26.64 0.5,-8.23 1.65,-16.4 2.54,-24.59 1.09,-10.25 2.12,-20.51 3.2,-30.76 0.48,-5.64 0.83,-11.29 1.72,-16.88 1.96,14.8 2.83,29.75 4.44,44.61 1,8.72 1.41,17.51 2.61,26.21 4.06,-1.28 8.06,-2.76 11.89,-4.63 13.45,-6.57 26.93,-13.22 39.36,-21.62 40.03,-25.64 73.38,-61 98.94,-100.94 15.09,-24.03 28.09,-49.41 38.22,-75.92 z"
       id="path197"
       inkscape:connector-curvature="0"
       style="opacity:1;fill:#166ba6" />
  </g>
  <g
     id="#7c7c7cff"
     transform="matrix(0.08005311,0,0,0.08005311,-1.2156236e-6,1.1848636)">
    <path
       d="m 65.03,107.2 c 4.71,-0.73 9.42,-1.41 14.18,-1.76 -15.33,3.32 -31.01,4.63 -46.63,5.54 -0.01,12.03 1.75,23.97 2.48,35.97 -2.46,-12.01 -2.27,-24.35 -3.8,-36.49 11.27,-0.96 22.59,-1.53 33.77,-3.26 z"
       id="path200"
       inkscape:connector-curvature="0"
       style="opacity:1;fill:#7c7c7c" />
    <path
       d="m 558.67,152.37 c 1.25,-10.53 1.52,-21.14 2.44,-31.69 0.59,7.66 -0.4,15.32 -0.84,22.97 -1.65,19.27 -4.12,38.46 -7.22,57.55 -0.52,2.97 -1.25,5.89 -2.06,8.79 2.88,-19.16 6,-38.3 7.68,-57.62 z"
       id="path202"
       inkscape:connector-curvature="0"
       style="opacity:1;fill:#7c7c7c" />
  </g>
  <g
     id="#818181ff"
     transform="matrix(0.08005311,0,0,0.08005311,-1.2156236e-6,1.1848636)">
    <path
       d="m 502.92,107.11 c 10.67,1.06 21.16,3.52 31.85,4.42 8.84,1.31 17.77,1.46 26.63,2.52 -12.9,0.2 -25.71,-1.63 -38.47,-3.26 -6.73,-0.86 -13.42,-2.05 -20.01,-3.68 z"
       id="path205"
       inkscape:connector-curvature="0"
       style="opacity:1;fill:#818181" />
  </g>
  <g
     id="#747474ff"
     transform="matrix(0.08005311,0,0,0.08005311,-1.2156236e-6,1.1848636)">
    <path
       d="m 566.23,110.16 0.72,-0.05 c -0.31,11.05 -0.14,22.19 -2.08,33.11 0.32,-11.03 1.66,-22.01 1.36,-33.06 z"
       id="path208"
       inkscape:connector-curvature="0"
       style="opacity:1;fill:#747474" />
  </g>
  <g
     id="#7a7a7aff"
     transform="matrix(0.08005311,0,0,0.08005311,-1.2156236e-6,1.1848636)">
    <path
       d="m 37.89,123.67 c 1.56,13.28 2.5,26.62 4.25,39.88 1.3,12.25 3.59,24.36 4.92,36.61 -1.99,-7.3 -2.62,-14.85 -3.8,-22.29 -0.8,-5.27 -1.46,-10.56 -2.05,-15.85 -1.42,-12.75 -3.24,-25.5 -3.32,-38.35 z"
       id="path211"
       inkscape:connector-curvature="0"
       style="opacity:1;fill:#7a7a7a" />
  </g>
  <g
     id="#848484ff"
     transform="matrix(0.08005311,0,0,0.08005311,-1.2156236e-6,1.1848636)">
    <path
       d="m 559.36,186.16 c 2.01,-12.17 3.01,-24.47 4.92,-36.65 -0.12,7.61 -1.18,15.17 -2.2,22.7 -1.45,10.34 -2.49,20.78 -5.15,30.9 0.77,-5.65 1.51,-11.31 2.43,-16.95 z"
       id="path214"
       inkscape:connector-curvature="0"
       style="opacity:1;fill:#848484" />
  </g>
  <g
     id="#000000b8"
     transform="matrix(0.08005311,0,0,0.08005311,-1.2156236e-6,1.1848636)">
    <path
       d="m 0,210.08 0.99,0.01 c 0.02,55.34 0,110.68 0.01,166.03 L 0,376.1 Z"
       id="path217"
       inkscape:connector-curvature="0"
       style="opacity:0.72000002;fill:#000000" />
  </g>
  <g
     id="#999c9dff"
     transform="matrix(0.08005311,0,0,0.08005311,-1.2156236e-6,1.1848636)">
    <path
       d="m 49.89,214.73 c 3.6,-0.22 7.22,-0.4 10.83,-0.17 1.55,0.2 3.08,0.47 4.61,0.77 -5.14,0.53 -10.37,0.48 -15.44,-0.6 z"
       id="path220"
       inkscape:connector-curvature="0"
       style="opacity:1;fill:#999c9d" />
  </g>
  <g
     id="#010203ff"
     transform="matrix(0.08005311,0,0,0.08005311,-1.2156236e-6,1.1848636)">
    <path
       d="m 228.83,229.9 c 11.73,-0.35 23.47,-0.01 35.21,-0.22 2.43,0.11 5.05,-0.24 7.32,0.83 1.33,1.45 2.3,3.19 3.32,4.87 5.84,10.14 12.17,19.99 17.93,30.17 8.58,14.69 17.47,29.2 26.14,43.84 2.79,4.6 5.82,9.45 10.64,12.17 1.32,0.83 3.02,1 4.38,0.14 4.67,-2.59 7.34,-7.48 10.01,-11.89 11.16,-19.17 22.96,-37.94 33.98,-57.18 4.72,-7.64 9.19,-15.43 14.1,-22.95 13.67,0.11 27.36,-0.29 41.03,0.23 -1.38,2.89 -2.84,5.74 -4.49,8.49 -8.15,13.29 -16.1,26.7 -23.92,40.18 -10.03,16.35 -19.53,33.02 -29.48,49.42 -4.88,8.45 -9.95,17.13 -17.69,23.31 -2.89,2.36 -6.46,3.94 -10.22,4.05 -7.36,0.27 -14.72,-0.08 -22.08,0.08 -5.24,-0.06 -10.72,0.52 -15.68,-1.54 -5.67,-2.28 -10.06,-6.91 -13.16,-12.06 -15.88,-27.3 -32.54,-54.14 -48.91,-81.13 -5.97,-10.38 -12.91,-20.18 -18.43,-30.81 m 4.16,2.46 c 4.41,7.73 9.21,15.22 13.82,22.84 7.6,12.33 15.01,24.79 22.67,37.09 l 1.05,0.13 c 1.04,2.83 2.25,5.6 3.83,8.18 7.81,12.59 15.45,25.31 22.84,38.16 2.85,4.94 6.52,9.71 11.72,12.33 4.02,2.07 8.68,1.91 13.08,1.94 6.34,-0.12 12.68,-0.11 19.01,0.04 4.29,0 8.94,0.1 12.67,-2.36 7.28,-4.74 12.2,-12.16 16.53,-19.52 4.45,-7.55 8.97,-15.05 13.38,-22.63 3.06,-5.37 7.06,-10.33 8.57,-16.44 4.01,-2.88 5.71,-7.67 8.24,-11.7 7.86,-13.15 15.55,-26.4 23.54,-39.48 1.65,-2.79 3.09,-5.69 4.48,-8.62 -11.76,-0.25 -23.52,-0.1 -35.27,-0.07 -11.32,18.09 -21.78,36.72 -33.12,54.8 -1.11,1.77 -2.21,3.71 -1.89,5.88 -1.93,1.83 -3.8,3.76 -5.14,6.07 -3.51,5.83 -6.69,11.87 -10.48,17.53 -2.06,2.93 -4.41,5.97 -7.84,7.35 -3,1.19 -6.4,0.15 -8.87,-1.72 -4.24,-3.19 -6.95,-7.87 -9.66,-12.32 -3.57,-6.07 -7.06,-12.18 -10.88,-18.1 -5.35,-9.57 -11.27,-18.8 -16.8,-28.25 -6.35,-10.31 -12.23,-20.9 -18.75,-31.1 -12.24,-0.14 -24.48,-0.07 -36.73,-0.03 z"
       id="path223"
       inkscape:connector-curvature="0"
       style="opacity:1;fill:#010203" />
  </g>
  <g
     id="#000102ff"
     transform="matrix(0.08005311,0,0,0.08005311,-1.2156236e-6,1.1848636)">
    <path
       d="m 437.58,230.44 c 1.67,-0.73 3.54,-0.67 5.33,-0.75 28.7,0.12 57.4,0.04 86.09,0.06 9.67,0.05 19.6,-0.54 28.96,2.39 7.53,2.47 14.81,7.04 18.74,14.13 3.81,6.53 4.46,14.28 4.53,21.69 0.03,7.43 0.35,15.05 -1.95,22.23 -2.26,7.47 -7.26,14.18 -14.1,18.05 -8.16,4.81 -17.87,5.82 -27.17,5.56 -12.01,-0.28 -24,0.45 -36.01,0.35 -23.11,0.07 -46.21,0.3 -69.31,0.14 3.96,-8.02 8.84,-15.51 13.35,-23.22 2.47,-4.25 5.01,-8.46 7.74,-12.55 27.09,0.04 54.19,-0.04 81.29,0.06 2.93,-0.03 5.83,-0.46 8.71,-0.97 0.87,-3.99 0.78,-8.11 -0.12,-12.09 -8.51,-1.13 -17.11,-0.64 -25.66,-0.71 -17.35,-0.04 -34.7,0.06 -52.05,-0.07 -2.18,0.05 -4.4,0.02 -6.49,0.67 -1.23,1.18 -2.13,2.65 -3.02,4.09 -13.68,22.96 -27.24,46.01 -40.94,68.96 -3.33,5.61 -6.83,11.13 -9.82,16.93 -14.31,0.03 -28.63,0.04 -42.94,-0.21 3.71,-7.54 8.41,-14.52 12.66,-21.75 8.2,-14.08 16.97,-27.83 25.15,-41.93 9.98,-16.6 20.11,-33.12 30.04,-49.76 2.33,-3.76 4.11,-7.91 6.99,-11.3 m 1.62,1.89 c -8.67,13.71 -16.76,27.79 -25.19,41.65 -3.62,6.48 -8.39,12.39 -10.66,19.55 l -1.02,0.19 c -4.74,7.25 -8.91,14.84 -13.45,22.2 -7.25,12.29 -14.91,24.35 -21.91,36.79 12.3,0.24 24.61,0.43 36.91,0.17 10.81,-17.33 20.71,-35.2 31.51,-52.53 1.44,-2.39 2.36,-5.03 3.14,-7.7 1.69,-1.72 3.48,-3.38 4.7,-5.49 4.69,-8.29 9.48,-16.53 14.71,-24.5 23.68,-0.17 47.37,0.04 71.06,-0.09 3.99,-0.01 8,-0.26 11.98,0.23 1.8,0.23 3.98,0.79 4.67,2.71 1.06,2.7 1.03,5.68 0.82,8.52 -0.25,2.09 -0.64,4.69 -2.74,5.73 -2.06,1.02 -4.42,1.06 -6.66,1.18 -27.33,-0.03 -54.67,-0.17 -82,0.04 -2.17,3.32 -4.28,6.68 -6.29,10.11 -3.88,6.94 -8.18,13.65 -11.87,20.7 8.36,0.21 16.73,0.13 25.1,0.05 17.01,-0.34 34.02,-0.1 51.04,-0.2 7.65,-0.13 15.3,-0.41 22.95,-0.27 8.09,0.05 16.55,0.18 24.07,-3.26 6.6,-3.01 12.96,-8.05 14.82,-15.39 l 1.03,-0.16 c 3.63,-9.12 2.75,-19.04 2.78,-28.62 0,-5.98 -1.27,-12.07 -4.56,-17.13 -4.06,-6.38 -10.81,-10.7 -17.99,-12.77 -7.52,-2.15 -15.42,-1.72 -23.16,-1.73 -31.26,0.04 -62.52,-0.01 -93.79,0.02 z"
       id="path226"
       inkscape:connector-curvature="0"
       style="opacity:1;fill:#000102" />
  </g>
  <g
     id="#1b6fa9ff"
     transform="matrix(0.08005311,0,0,0.08005311,-1.2156236e-6,1.1848636)">
    <path
       d="m 232.99,232.36 c 12.25,-0.04 24.49,-0.11 36.73,0.03 6.52,10.2 12.4,20.79 18.75,31.1 5.53,9.45 11.45,18.68 16.8,28.25 -0.44,0.64 -1.3,1.92 -1.74,2.56 -9.13,-14.58 -17.77,-29.46 -26.84,-44.08 -2.71,-4.27 -4.79,-8.95 -7.96,-12.91 -1.49,-2.14 -4.32,-2 -6.62,-2.16 -8.04,-0.12 -16.08,0.17 -24.13,0.21 11.13,19.35 23.51,37.95 34.55,57.35 -0.5,-0.07 -1.5,-0.21 -2,-0.29 l -1.05,-0.13 c -7.66,-12.3 -15.07,-24.76 -22.67,-37.09 -4.61,-7.62 -9.41,-15.11 -13.82,-22.84 z"
       id="path229"
       inkscape:connector-curvature="0"
       style="opacity:1;fill:#1b6fa9" />
  </g>
  <g
     id="#146aa7ff"
     transform="matrix(0.08005311,0,0,0.08005311,-1.2156236e-6,1.1848636)">
    <path
       d="m 439.2,232.33 c 31.27,-0.03 62.53,0.02 93.79,-0.02 7.74,0.01 15.64,-0.42 23.16,1.73 7.18,2.07 13.93,6.39 17.99,12.77 3.29,5.06 4.56,11.15 4.56,17.13 -0.03,9.58 0.85,19.5 -2.78,28.62 l -1.03,0.16 c -0.5,0.08 -1.49,0.25 -1.98,0.33 3.48,-9.28 3.12,-19.34 3,-29.08 -0.13,-5.03 -0.41,-10.38 -3.23,-14.74 -4.34,-6.88 -11.81,-11.19 -19.53,-13.22 -5.9,-1.64 -12.07,-1.7 -18.15,-1.71 -23.34,0.11 -46.67,0.01 -70,0.06 -8.13,-0.06 -16.26,-0.2 -24.38,0.2 -8.97,15.3 -18.21,30.44 -27.27,45.68 -2.59,4.35 -5.23,8.68 -8.05,12.89 -0.49,0.1 -1.47,0.3 -1.95,0.4 2.27,-7.16 7.04,-13.07 10.66,-19.55 8.43,-13.86 16.52,-27.94 25.19,-41.65 z"
       id="path232"
       inkscape:connector-curvature="0"
       style="opacity:1;fill:#146aa7" />
  </g>
  <g
     id="#166ba5ff"
     transform="matrix(0.08005311,0,0,0.08005311,-1.2156236e-6,1.1848636)">
    <path
       d="m 24.19,233.24 c 9.95,-0.04 19.9,0.06 29.85,-0.04 5.52,-0.05 11.25,0.07 16.35,2.45 8.25,3.86 14.99,10.57 19.57,18.38 5.68,9.85 10.4,20.21 16,30.1 1.62,2.88 2.83,5.96 3.87,9.09 -0.81,0.05 -2.42,0.15 -3.23,0.2 -4.35,-8.06 -8.47,-16.24 -12.79,-24.31 -3.68,-6.84 -6.56,-14.27 -11.83,-20.11 -4.3,-4.78 -9.48,-8.89 -15.43,-11.42 -4.56,-1.96 -9.61,-2.18 -14.51,-2.14 -8.57,0.07 -17.14,0.15 -25.7,-0.03 -0.29,12.86 -0.03,25.73 -0.11,38.59 -0.02,6.11 -0.17,12.23 0.21,18.34 -0.48,0.26 -1.44,0.79 -1.91,1.06 -0.38,-3.46 -0.5,-6.93 -0.46,-10.4 0.17,-16.58 -0.09,-33.17 0.12,-49.76 z"
       id="path235"
       inkscape:connector-curvature="0"
       style="opacity:1;fill:#166ba5" />
    <path
       d="m 168.05,253.05 c 6.57,-11.3 18.96,-19.16 32.09,-19.7 7.78,-0.31 15.58,-0.18 23.36,0.09 11.52,19.52 23.18,38.96 34.66,58.51 -0.88,0.78 -1.75,1.56 -2.62,2.34 -10.33,-17.64 -20.88,-35.15 -30.98,-52.93 -1.24,-1.92 -2.4,-4.08 -4.41,-5.3 -2.26,-0.78 -4.71,-0.65 -7.06,-0.72 -5.17,0.05 -10.36,-0.04 -15.49,0.59 -9.63,1.2 -18.67,6.35 -24.64,13.99 -4.55,5.81 -7.27,12.75 -10.68,19.23 -4.32,8.21 -8.54,16.47 -13.28,24.44 -0.02,-0.43 -0.04,-1.29 -0.06,-1.72 -0.38,-3.04 1.44,-5.63 2.78,-8.19 5.66,-10.09 10.48,-20.64 16.33,-30.63 z"
       id="path237"
       inkscape:connector-curvature="0"
       style="opacity:1;fill:#166ba5" />
  </g>
  <g
     id="#7aaacbff"
     transform="matrix(0.08005311,0,0,0.08005311,-1.2156236e-6,1.1848636)">
    <path
       d="m 48.02,257.46 c 4.18,0.43 9.06,0.05 12.34,3.19 3.53,3.36 5.68,7.83 8.03,12.02 3.65,6.99 8.08,13.58 11.02,20.92 0.17,0.39 0.53,1.17 0.7,1.56 l -0.53,-0.48 c -0.41,-0.37 -1.25,-1.1 -1.66,-1.46 -4.79,-8.61 -9.25,-17.41 -14.26,-25.91 -1.64,-2.56 -3.36,-5.33 -6.14,-6.79 -2.6,-1.18 -5.48,-1.47 -8.26,-1.98 -0.38,11.51 0.05,23.02 -0.24,34.54 l -1.09,0.05 c -0.08,-11.88 -0.34,-23.77 0.09,-35.66 z"
       id="path240"
       inkscape:connector-curvature="0"
       style="opacity:1;fill:#7aaacb" />
  </g>
  <g
     id="#1a6ca5ff"
     transform="matrix(0.08005311,0,0,0.08005311,-1.2156236e-6,1.1848636)">
    <path
       d="m 49.26,258.53 c 2.78,0.51 5.66,0.8 8.26,1.98 2.78,1.46 4.5,4.23 6.14,6.79 5.01,8.5 9.47,17.3 14.26,25.91 -0.62,-0.23 -1.86,-0.7 -2.48,-0.94 -1.64,-0.5 -2.35,-2.21 -3.2,-3.53 -3.15,-5.86 -6.24,-11.76 -9.45,-17.58 -1.32,-2.24 -2.62,-4.59 -4.64,-6.29 -1.72,-1.16 -3.78,-1.6 -5.71,-2.26 -0.34,10.15 0.13,20.3 -0.24,30.44 -0.79,0.01 -2.38,0.01 -3.18,0.02 0.29,-11.52 -0.14,-23.03 0.24,-34.54 z"
       id="path243"
       inkscape:connector-curvature="0"
       style="opacity:1;fill:#1a6ca5" />
  </g>
  <g
     id="#176ba5ff"
     transform="matrix(0.08005311,0,0,0.08005311,-1.2156236e-6,1.1848636)">
    <path
       d="m 457.52,261.3 c 2,-0.9 4.25,-0.84 6.4,-0.94 24.38,0.22 48.76,0.13 73.14,0.04 3.37,0.23 7.37,0.09 9.95,2.65 1.93,2.91 1.77,6.64 1.77,9.99 -0.23,3.03 -0.36,6.84 -3.21,8.65 -3.53,1.84 -7.68,1.59 -11.53,1.7 -22.7,-0.4 -45.41,0.13 -68.1,-0.32 -2.69,0.09 -5.52,-0.11 -8.05,0.95 -3.12,2.38 -4.69,6.15 -6.73,9.4 -0.8,-0.78 -1.59,-1.56 -2.38,-2.33 2.01,-3.43 4.12,-6.79 6.29,-10.11 27.33,-0.21 54.67,-0.07 82,-0.04 2.24,-0.12 4.6,-0.16 6.66,-1.18 2.1,-1.04 2.49,-3.64 2.74,-5.73 0.21,-2.84 0.24,-5.82 -0.82,-8.52 -0.69,-1.92 -2.87,-2.48 -4.67,-2.71 -3.98,-0.49 -7.99,-0.24 -11.98,-0.23 -23.69,0.13 -47.38,-0.08 -71.06,0.09 -5.23,7.97 -10.02,16.21 -14.71,24.5 -1.22,2.11 -3.01,3.77 -4.7,5.49 l -0.53,0.56 c 3.91,-8.75 9.43,-16.6 14.14,-24.91 1.55,-2.49 2.98,-5.22 5.38,-7 z"
       id="path246"
       inkscape:connector-curvature="0"
       style="opacity:1;fill:#176ba5" />
  </g>
  <g
     id="#878787ff"
     transform="matrix(0.08005311,0,0,0.08005311,-1.2156236e-6,1.1848636)">
    <path
       d="m 543.66,265.52 c 0.9,3.98 0.99,8.1 0.12,12.09 -0.43,-4.01 -0.46,-8.06 -0.12,-12.09 z"
       id="path249"
       inkscape:connector-curvature="0"
       style="opacity:1;fill:#878787" />
  </g>
  <g
     id="#0c3676ff"
     transform="matrix(0.08005311,0,0,0.08005311,-1.2156236e-6,1.1848636)">
    <path
       d="m 436.91,311.79 c 3.69,-7.05 7.99,-13.76 11.87,-20.7 0.79,0.77 1.58,1.55 2.38,2.33 -2.44,4.25 -4.99,8.43 -7.51,12.63 -0.57,0.93 -1.12,1.87 -1.67,2.81 30.67,0.53 61.35,-0.06 92.02,0.31 5.27,0.13 10.53,-0.43 15.73,-1.28 4.52,-0.55 9.11,-1.69 12.91,-4.31 4.12,-2.76 7.06,-6.83 10.27,-10.53 0.49,-0.08 1.48,-0.25 1.98,-0.33 -1.86,7.34 -8.22,12.38 -14.82,15.39 -7.52,3.44 -15.98,3.31 -24.07,3.26 -7.65,-0.14 -15.3,0.14 -22.95,0.27 -17.02,0.1 -34.03,-0.14 -51.04,0.2 -8.37,0.08 -16.74,0.16 -25.1,-0.05 z"
       id="path252"
       inkscape:connector-curvature="0"
       style="opacity:1;fill:#0c3676" />
  </g>
  <g
     id="#0c3674ff"
     transform="matrix(0.08005311,0,0,0.08005311,-1.2156236e-6,1.1848636)">
    <path
       d="m 140.25,306.3 c 2.6,-4.98 4.46,-10.52 8.69,-14.43 0.02,0.43 0.04,1.29 0.06,1.72 -3.38,8.38 -8.16,16.1 -12.08,24.23 -2.24,4.14 -3.94,8.76 -7.36,12.11 -3.53,1.45 -5.29,-2.53 -6.77,-4.96 -5.54,-10.44 -10.65,-21.11 -16.19,-31.55 0.81,-0.05 2.42,-0.15 3.23,-0.2 l 1.01,-0.06 c 3.49,7.67 7.73,14.96 11.5,22.48 2.02,4.08 4.2,8.07 6.61,11.94 4.25,-6.83 7.59,-14.15 11.3,-21.28 z"
       id="path255"
       inkscape:connector-curvature="0"
       style="opacity:1;fill:#0c3674" />
    <path
       d="m 402.33,293.72 1.02,-0.19 c 0.48,-0.1 1.46,-0.3 1.95,-0.4 -6,11.16 -12.84,21.84 -19.26,32.76 -4.73,8 -9.92,15.73 -14.1,24.04 10.19,0.64 20.41,0.3 30.61,0.47 7.38,-11.9 14.39,-24.03 21.8,-35.91 4.52,-7.12 8.24,-14.77 13.65,-21.28 l 0.53,-0.56 c -0.78,2.67 -1.7,5.31 -3.14,7.7 -10.8,17.33 -20.7,35.2 -31.51,52.53 -12.3,0.26 -24.61,0.07 -36.91,-0.17 7,-12.44 14.66,-24.5 21.91,-36.79 4.54,-7.36 8.71,-14.95 13.45,-22.2 z"
       id="path257"
       inkscape:connector-curvature="0"
       style="opacity:1;fill:#0c3674" />
  </g>
  <g
     id="#0c3573ff"
     transform="matrix(0.08005311,0,0,0.08005311,-1.2156236e-6,1.1848636)">
    <path
       d="m 258.16,291.95 c 10.54,17.47 20.74,35.14 31.32,52.58 2.03,3.34 3.88,6.79 5.66,10.28 -10.94,0.29 -21.89,0.43 -32.82,-0.08 -12.58,-20.67 -25.57,-41.1 -38.02,-61.84 0.81,-0.07 2.42,-0.22 3.23,-0.29 11.76,19.38 23.61,38.7 35.16,58.19 8.6,2.12 17.47,1.1 26.21,1.18 l -0.36,-0.62 c -1.93,-3.72 -3.75,-7.51 -5.9,-11.11 -9.14,-15.25 -18.05,-30.64 -27.1,-45.95 0.87,-0.78 1.74,-1.56 2.62,-2.34 z"
       id="path260"
       inkscape:connector-curvature="0"
       style="opacity:1;fill:#0c3573" />
  </g>
  <g
     id="#0e3776ff"
     transform="matrix(0.08005311,0,0,0.08005311,-1.2156236e-6,1.1848636)">
    <path
       d="m 305.27,291.74 c 3.82,5.92 7.31,12.03 10.88,18.1 2.71,4.45 5.42,9.13 9.66,12.32 2.47,1.87 5.87,2.91 8.87,1.72 3.43,-1.38 5.78,-4.42 7.84,-7.35 3.79,-5.66 6.97,-11.7 10.48,-17.53 1.34,-2.31 3.21,-4.24 5.14,-6.07 0,0.43 0.01,1.28 0.01,1.71 -3.07,6.8 -7.24,13.01 -10.9,19.48 -2.59,4.3 -5.27,8.89 -9.68,11.54 -3.43,2.11 -7.91,2.28 -11.48,0.43 -4.42,-2.21 -7.27,-6.46 -9.81,-10.52 -4.31,-7.05 -8.5,-14.18 -12.75,-21.27 0.44,-0.64 1.3,-1.92 1.74,-2.56 z"
       id="path263"
       inkscape:connector-curvature="0"
       style="opacity:1;fill:#0e3776" />
  </g>
  <g
     id="#0f3976ff"
     transform="matrix(0.08005311,0,0,0.08005311,-1.2156236e-6,1.1848636)">
    <path
       d="m 24.53,293.4 c 0.47,-0.27 1.43,-0.8 1.91,-1.06 -0.58,5.87 -0.83,11.76 -0.69,17.66 0.21,14.02 -0.22,28.05 0.19,42.07 7.67,0.39 15.36,0.39 23.04,0 0.23,-19.67 0.08,-39.34 0.04,-59 0.8,-0.01 2.39,-0.01 3.18,-0.02 0.3,10.65 0.06,21.3 0.13,31.95 -0.09,9.96 0.26,19.93 -0.23,29.89 -9.32,0.1 -18.64,0.11 -27.95,-0.03 -0.09,-16.62 0.07,-33.24 -0.04,-49.85 0.02,-3.87 -0.46,-7.81 0.42,-11.61 z"
       id="path266"
       inkscape:connector-curvature="0"
       style="opacity:1;fill:#0f3976" />
  </g>
  <g
     id="#7e94b6ff"
     transform="matrix(0.08005311,0,0,0.08005311,-1.2156236e-6,1.1848636)">
    <path
       d="m 26.44,292.34 0.08,0.92 c 1.11,9.55 0.46,19.16 0.61,28.74 0.01,9.62 -0.1,19.23 0.03,28.85 6.88,0.21 13.77,0.21 20.66,-0.01 0.16,-19.24 -0.11,-38.48 0.11,-57.72 l 1.09,-0.05 c 0.04,19.66 0.19,39.33 -0.04,59 -7.68,0.39 -15.37,0.39 -23.04,0 -0.41,-14.02 0.02,-28.05 -0.19,-42.07 -0.14,-5.9 0.11,-11.79 0.69,-17.66 z"
       id="path269"
       inkscape:connector-curvature="0"
       style="opacity:1;fill:#7e94b6" />
  </g>
  <g
     id="#0c3675ff"
     transform="matrix(0.08005311,0,0,0.08005311,-1.2156236e-6,1.1848636)">
    <path
       d="m 26.52,293.26 c 7.14,0 14.27,-0.12 21.41,-0.14 -0.22,19.24 0.05,38.48 -0.11,57.72 -6.89,0.22 -13.78,0.22 -20.66,0.01 -0.13,-9.62 -0.02,-19.23 -0.03,-28.85 -0.15,-9.58 0.5,-19.19 -0.61,-28.74 z"
       id="path272"
       inkscape:connector-curvature="0"
       style="opacity:1;fill:#0c3675" />
    <path
       d="m 79.41,293.59 c 8.61,-0.59 17.24,-0.31 25.86,-0.67 6.47,12.68 13.51,25.06 19.45,38.01 2.04,-0.3 4.26,-0.17 6.13,-1.14 1.8,-1.56 2.8,-3.8 3.9,-5.86 5,-10.51 10.74,-20.63 16.01,-31 8.53,0.33 17.08,0.27 25.62,0.36 -5.66,10.98 -11.48,21.88 -17.19,32.83 -4.54,8.26 -8.55,16.8 -13.2,25.01 -11.66,0.17 -23.32,0.17 -34.97,0 -10.57,-18.51 -20.01,-37.66 -30.91,-55.98 -0.17,-0.39 -0.53,-1.17 -0.7,-1.56 z"
       id="path274"
       inkscape:connector-curvature="0"
       style="opacity:1;fill:#0c3675" />
    <path
       d="m 229.37,293.95 c 8.03,-0.9 16.12,-0.81 24.18,-1.2 8.57,14.11 16.78,28.43 25.21,42.61 2.76,4.84 5.51,9.68 8.67,14.27 -7.77,0.38 -15.56,0.25 -23.3,1.09 -4.58,-6.53 -8.47,-13.51 -12.66,-20.29 -7.48,-12.1 -14.67,-24.36 -22.1,-36.48 z"
       id="path276"
       inkscape:connector-curvature="0"
       style="opacity:1;fill:#0c3675" />
    <path
       d="m 274.8,293.26 c 8.73,0.06 17.47,-0.32 26.2,-0.08 1.48,0.32 1.97,2.06 2.85,3.14 4,6.94 8.2,13.75 12.35,20.6 2.47,3.93 5.38,7.98 9.74,9.95 4.35,1.7 9.65,1.29 13.46,-1.55 4.52,-3.24 7.07,-8.35 9.81,-13.03 3.81,-6.48 7.47,-13.05 11.54,-19.37 9.48,0.44 18.98,0.22 28.47,0.31 -6.42,11.42 -13.41,22.51 -20.06,33.8 -4.32,7.42 -9.31,14.78 -16.43,19.78 -3.99,2.78 -9.08,2.53 -13.72,2.56 -6.01,-0.14 -12.02,-0.1 -18.03,0.02 -3.78,-0.07 -7.88,0.09 -11.18,-2.05 -3.89,-2.55 -6.43,-6.58 -8.85,-10.44 -5.91,-9.72 -11.92,-19.38 -17.86,-29.08 -2.98,-4.73 -6.12,-9.38 -8.29,-14.56 z"
       id="path278"
       inkscape:connector-curvature="0"
       style="opacity:1;fill:#0c3675" />
    <path
       d="m 406.73,292.92 c 9.66,0.46 19.38,-0.24 29,1.08 -9.85,16.63 -20.1,33.02 -29.86,49.71 -1.22,1.85 -2.41,3.87 -4.29,5.13 -2.41,0.85 -5.01,0.7 -7.52,0.77 -6.87,-0.08 -13.75,-0.13 -20.61,-0.45 3.04,-6.3 6.77,-12.21 10.42,-18.17 7.6,-12.7 15.21,-25.39 22.86,-38.07 z"
       id="path280"
       inkscape:connector-curvature="0"
       style="opacity:1;fill:#0c3675" />
    <path
       d="m 452.6,292.82 c 5.79,0.31 11.59,0.43 17.4,0.4 29,-0.11 58,0.08 86.99,-0.11 4.59,0 9.17,0.35 13.73,0.89 -2.02,3.16 -4.42,6.17 -7.59,8.22 -4.34,2.81 -9.33,4.42 -14.31,5.65 -4.61,-0.19 -9.2,-0.82 -13.83,-0.74 -25.66,0.3 -51.33,-0.12 -76.99,0.23 -4.55,0.04 -9.05,-0.63 -13.54,-1.24 2.9,-4.31 5.53,-8.81 8.14,-13.3 z"
       id="path282"
       inkscape:connector-curvature="0"
       style="opacity:1;fill:#0c3675" />
  </g>
  <g
     id="#0d3571ff"
     transform="matrix(0.08005311,0,0,0.08005311,-1.2156236e-6,1.1848636)">
    <path
       d="m 75.44,292.27 c 0.62,0.24 1.86,0.71 2.48,0.94 0.41,0.36 1.25,1.09 1.66,1.46 5.29,10.53 11.09,20.81 16.72,31.17 4.74,8.55 9.16,17.28 14.07,25.74 12.09,0.18 24.19,0.19 36.28,0 10.44,-19.52 20.48,-39.25 31.01,-58.72 0.8,0.03 2.39,0.09 3.18,0.12 -2.26,4.91 -4.71,9.74 -7.3,14.5 -8.24,15.79 -16.36,31.65 -24.69,47.4 -13.24,0.29 -26.49,0.23 -39.73,0.05 -9.5,-16.62 -18.53,-33.5 -27.95,-50.16 -2.33,-3.95 -4.63,-8 -5.73,-12.5 z"
       id="path285"
       inkscape:connector-curvature="0"
       style="opacity:1;fill:#0d3571" />
  </g>
  <g
     id="#103975ff"
     transform="matrix(0.08005311,0,0,0.08005311,-1.2156236e-6,1.1848636)">
    <path
       d="m 270.53,292.42 c 0.5,0.08 1.5,0.22 2,0.29 9.76,14.68 18.57,29.98 27.96,44.91 2.95,4.36 5.88,9.53 11.11,11.4 6.68,1.57 13.61,0.48 20.4,0.73 6.49,-0.16 13.32,0.96 19.53,-1.44 7.32,-3.61 12.04,-10.7 16.24,-17.41 5.85,-9.82 11.73,-19.61 17.57,-29.44 1.7,-2.86 3.57,-5.62 5.57,-8.28 0.31,-0.26 0.93,-0.8 1.25,-1.06 -1.51,6.11 -5.51,11.07 -8.57,16.44 -4.41,7.58 -8.93,15.08 -13.38,22.63 -4.33,7.36 -9.25,14.78 -16.53,19.52 -3.73,2.46 -8.38,2.36 -12.67,2.36 -6.33,-0.15 -12.67,-0.16 -19.01,-0.04 -4.4,-0.03 -9.06,0.13 -13.08,-1.94 -5.2,-2.62 -8.87,-7.39 -11.72,-12.33 -7.39,-12.85 -15.03,-25.57 -22.84,-38.16 -1.58,-2.58 -2.79,-5.35 -3.83,-8.18 z"
       id="path288"
       inkscape:connector-curvature="0"
       style="opacity:1;fill:#103975" />
  </g>
  <g
     id="#5774a0ff"
     transform="matrix(0.08005311,0,0,0.08005311,-1.2156236e-6,1.1848636)">
    <path
       d="m 441.98,308.86 c 0.55,-0.94 1.1,-1.88 1.67,-2.81 l 0.81,0.07 c 4.49,0.61 8.99,1.28 13.54,1.24 25.66,-0.35 51.33,0.07 76.99,-0.23 4.63,-0.08 9.22,0.55 13.83,0.74 l 0.91,0.02 c -5.2,0.85 -10.46,1.41 -15.73,1.28 -30.67,-0.37 -61.35,0.22 -92.02,-0.31 z"
       id="path291"
       inkscape:connector-curvature="0"
       style="opacity:1;fill:#5774a0" />
    <path
       d="m 264.13,350.72 c 7.74,-0.84 15.53,-0.71 23.3,-1.09 0.28,0.43 0.83,1.29 1.11,1.72 l 0.36,0.62 c -8.74,-0.08 -17.61,0.94 -26.21,-1.18 0.36,-0.01 1.08,-0.05 1.44,-0.07 z"
       id="path293"
       inkscape:connector-curvature="0"
       style="opacity:1;fill:#5774a0" />
  </g>
</svg>
