<?xml version="1.0" encoding="UTF-8" standalone="no"?>
<svg
   xmlns:dc="http://purl.org/dc/elements/1.1/"
   xmlns:cc="http://creativecommons.org/ns#"
   xmlns:rdf="http://www.w3.org/1999/02/22-rdf-syntax-ns#"
   xmlns:svg="http://www.w3.org/2000/svg"
   xmlns="http://www.w3.org/2000/svg"
   xmlns:sodipodi="http://sodipodi.sourceforge.net/DTD/sodipodi-0.dtd"
   xmlns:inkscape="http://www.inkscape.org/namespaces/inkscape"
   width="64"
   height="64"
   viewBox="0 0 48 48"
   version="1.1"
   id="svg66"
   sodipodi:docname="nem.svg"
   inkscape:version="0.92.3 (2405546, 2018-03-11)">
  <metadata
     id="metadata72">
    <rdf:RDF>
      <cc:Work
         rdf:about="">
        <dc:format>image/svg+xml</dc:format>
        <dc:type
           rdf:resource="http://purl.org/dc/dcmitype/StillImage" />
        <dc:title></dc:title>
      </cc:Work>
    </rdf:RDF>
  </metadata>
  <defs
     id="defs70" />
  <sodipodi:namedview
     pagecolor="#ffffff"
     bordercolor="#666666"
     borderopacity="1"
     objecttolerance="10"
     gridtolerance="10"
     guidetolerance="10"
     inkscape:pageopacity="0"
     inkscape:pageshadow="2"
     inkscape:window-width="1920"
     inkscape:window-height="1017"
     id="namedview68"
     showgrid="false"
     units="px"
     inkscape:pagecheckerboard="true"
     inkscape:zoom="5.9962655"
     inkscape:cx="58.121674"
     inkscape:cy="12.227217"
     inkscape:window-x="-8"
     inkscape:window-y="-8"
     inkscape:window-maximized="1"
     inkscape:current-layer="svg66" />
  <g
     id="#e44e44ff"
     transform="matrix(0.08114688,0,0,0.08114688,-0.344064,-0.344064)">
    <path
       d="M 189.59,114.73 C 226.3,77.81 263.19,41.07 300,4.24 c 36.64,36.62 73.28,73.25 109.89,109.9 1.05,1.05 2.75,0.5 4.08,0.68 23.8,-0.07 47.6,-0.01 71.4,-0.03 0.11,24.98 -0.04,49.96 0.07,74.94 36.83,36.7 73.55,73.5 110.32,110.27 -36.77,36.77 -73.49,73.57 -110.32,110.28 -0.08,25.12 -0.02,50.24 -0.04,75.37 -25.11,0.02 -50.23,-0.04 -75.34,0.02 -36.65,36.74 -73.37,73.4 -110.06,110.09 -36.7,-36.69 -73.41,-73.35 -110.06,-110.09 -25.11,-0.06 -50.23,0 -75.35,-0.03 0.01,-25.1 0.02,-50.2 0,-75.29 C 77.79,373.58 41.01,336.8 4.24,300 41.01,263.22 77.76,226.42 114.58,189.69 c 0.07,-24.97 -0.05,-49.94 0.06,-74.91 24.98,-0.02 49.97,0.09 74.95,-0.05 m 7.48,19.57 c -21.16,0.07 -42.32,-0.12 -63.48,0.1 0.09,21.12 0.02,42.25 0.04,63.37 C 99.55,231.84 65.47,265.92 31.41,300 c 34.06,34.09 68.16,68.16 102.23,102.24 -0.04,21.44 0.04,42.87 -0.04,64.3 21.48,0.21 42.96,0.02 64.45,0.1 33.97,33.99 67.96,67.98 101.95,101.95 33.99,-33.97 67.98,-67.95 101.95,-101.95 21.48,-0.06 42.96,0.06 64.44,-0.06 -0.05,-21.45 -0.01,-42.89 -0.02,-64.34 C 500.44,368.16 534.53,334.09 568.59,300 534.6,265.84 500.28,231.97 466.47,197.65 466.26,176.58 466.38,155.48 466.41,134.4 445.26,134.18 424.1,134.36 402.94,134.31 368.6,100.04 334.33,65.69 300,31.41 265.68,65.69 231.4,100.03 197.07,134.3 Z"
       id="path42"
       inkscape:connector-curvature="0"
       style="opacity:1;fill:#e44e44" />
    <path
       d="m 248.94,131.9 c 16.89,-17.31 34.21,-34.21 51.21,-51.42 17.17,17.07 34.3,34.2 51.37,51.37 -17.23,16.98 -34.09,34.36 -51.45,51.2 -17.01,-17.08 -34.08,-34.11 -51.13,-51.15 z"
       id="path44"
       inkscape:connector-curvature="0"
       style="opacity:1;fill:#e44e44" />
    <path
       d="M 84.53,297.51 C 101.2,280.7 118,264 134.74,247.25 c 0.06,34.18 0.05,68.35 0,102.53 -16.42,-16.43 -32.83,-32.88 -49.29,-49.28 -0.72,-0.75 -2.2,-2.01 -0.92,-2.99 z"
       id="path46"
       inkscape:connector-curvature="0"
       style="opacity:1;fill:#e44e44" />
    <path
       d="m 465.75,248.87 c 17.3,16.84 34.2,34.09 51.3,51.13 -17.1,17.05 -34.03,34.28 -51.3,51.15 -0.1,-34.09 -0.09,-68.19 0,-102.28 z"
       id="path48"
       inkscape:connector-curvature="0"
       style="opacity:1;fill:#e44e44" />
    <path
       d="m 285.29,430.31 c 4.96,-4.68 9.42,-9.96 14.66,-14.29 1.75,0.79 2.87,2.5 4.27,3.78 15.32,15.36 30.68,30.69 46.01,46.03 1.31,0.87 0.24,2.09 -0.55,2.82 -16.64,16.41 -32.97,33.14 -49.68,49.48 -17.05,-17.04 -34.08,-34.1 -51.15,-51.13 11.89,-12.47 24.34,-24.42 36.44,-36.69 z"
       id="path50"
       inkscape:connector-curvature="0"
       style="opacity:1;fill:#e44e44" />
  </g>
  <g
     id="#191919ff"
     transform="matrix(0.08114688,0,0,0.08114688,-0.344064,-0.344064)">
    <path
       d="M 197.07,134.3 C 231.4,100.03 265.68,65.69 300,31.41 c 34.33,34.28 68.6,68.63 102.94,102.9 21.16,0.05 42.32,-0.13 63.47,0.09 -0.03,21.08 -0.15,42.18 0.06,63.25 33.81,34.32 68.13,68.19 102.12,102.35 -34.06,34.09 -68.15,68.16 -102.22,102.24 0.01,21.45 -0.03,42.89 0.02,64.34 -21.48,0.12 -42.96,0 -64.44,0.06 -33.97,34 -67.96,67.98 -101.95,101.95 -33.99,-33.97 -67.98,-67.96 -101.95,-101.95 -21.49,-0.08 -42.97,0.11 -64.45,-0.1 0.08,-21.43 0,-42.86 0.04,-64.3 C 99.57,368.16 65.47,334.09 31.41,300 65.47,265.92 99.55,231.84 133.63,197.77 c -0.02,-21.12 0.05,-42.25 -0.04,-63.37 21.16,-0.22 42.32,-0.03 63.48,-0.1 m 51.87,-2.4 c 17.05,17.04 34.12,34.07 51.13,51.15 17.36,-16.84 34.22,-34.22 51.45,-51.2 -17.07,-17.17 -34.2,-34.3 -51.37,-51.37 -17,17.21 -34.32,34.11 -51.21,51.42 m -89.33,25.86 c -0.03,88.83 -0.01,177.66 -0.01,266.49 0,4.97 -0.04,9.95 0.04,14.92 28.46,-0.01 56.92,0.03 85.39,-0.01 1.41,0.16 2.4,-1.03 3.42,-1.79 12.9,-11.87 25.99,-23.53 38.93,-35.37 0.04,-4.86 0.03,-9.72 0,-14.58 0.05,-7.98 0.01,-15.96 0.03,-23.95 -8.3,-0.01 -16.6,0 -24.9,0 -0.02,-15.73 -0.01,-31.46 -0.01,-47.19 25.75,29.66 51.24,59.54 76.91,89.27 9.42,11.34 20.61,21.53 33.86,28.21 6.1,3.02 12.83,5.09 19.7,4.93 15.82,-0.04 31.65,0.08 47.47,-0.06 -0.06,-4.94 -0.03,-9.88 -0.03,-14.82 -0.01,-88.68 0.01,-177.36 -0.02,-266.05 -28.08,0.01 -56.16,-0.01 -84.24,0.01 -13.21,11.58 -26.24,23.35 -39.39,34.99 -1.36,1.27 -3.09,2.29 -3.92,4.01 -0.15,8.31 0.02,16.63 -0.06,24.94 0,2.2 0.01,4.4 0.02,6.6 8.23,0.06 16.47,0.07 24.71,-0.01 -0.03,16.16 0.03,32.32 -0.03,48.48 -21.49,-24.58 -43.22,-48.95 -64.96,-73.31 -9.95,-10.71 -18.81,-22.57 -30.32,-31.71 -8.78,-6.81 -18.78,-13.22 -30.16,-13.98 -17.48,-0.04 -34.96,0 -52.43,-0.02 M 84.53,297.51 c -1.28,0.98 0.2,2.24 0.92,2.99 16.46,16.4 32.87,32.85 49.29,49.28 0.05,-34.18 0.06,-68.35 0,-102.53 C 118,264 101.2,280.7 84.53,297.51 m 381.22,-48.64 c -0.09,34.09 -0.1,68.19 0,102.28 17.27,-16.87 34.2,-34.1 51.3,-51.15 -17.1,-17.04 -34,-34.29 -51.3,-51.13 M 285.29,430.31 c -12.1,12.27 -24.55,24.22 -36.44,36.69 17.07,17.03 34.1,34.09 51.15,51.13 16.71,-16.34 33.04,-33.07 49.68,-49.48 0.79,-0.73 1.86,-1.95 0.55,-2.82 -15.33,-15.34 -30.69,-30.67 -46.01,-46.03 -1.4,-1.28 -2.52,-2.99 -4.27,-3.78 -5.24,4.33 -9.7,9.61 -14.66,14.29 z"
       id="path53"
       inkscape:connector-curvature="0"
       style="opacity:1;fill:#191919" />
  </g>
  <g
     id="#ffffffff"
     transform="matrix(0.08114688,0,0,0.08114688,-0.344064,-0.344064)">
    <path
       d="m 159.61,157.76 c 17.47,0.02 34.95,-0.02 52.43,0.02 11.38,0.76 21.38,7.17 30.16,13.98 11.51,9.14 20.37,21 30.32,31.71 21.74,24.36 43.47,48.73 64.96,73.31 0.06,-16.16 0,-32.32 0.03,-48.48 -0.02,-2.13 -0.05,-4.26 -0.06,-6.39 -8.23,-0.32 -16.47,0.67 -24.67,-0.2 0.08,-8.31 -0.09,-16.63 0.06,-24.94 0.83,-1.72 2.56,-2.74 3.92,-4.01 13.15,-11.64 26.18,-23.41 39.39,-34.99 28.08,-0.02 56.16,0 84.24,-0.01 0.03,88.69 0.01,177.37 0.02,266.05 -17.6,-0.19 -35.22,0.27 -52.81,-0.23 -16.83,-2.75 -30.63,-14.19 -42.21,-26.05 -27.67,-30.56 -55.14,-61.3 -82.81,-91.86 -0.09,3.53 -0.1,7.07 -0.08,10.61 0,15.73 -0.01,31.46 0.01,47.19 8.3,0 16.6,-0.01 24.9,0 -0.02,7.99 0.02,15.97 -0.03,23.95 -12.26,10.71 -24.16,21.83 -36.28,32.7 -2.11,1.74 -3.99,4.58 -7.09,4.14 -28.13,-0.05 -56.27,-0.03 -84.41,-0.01 0,-88.83 -0.02,-177.66 0.01,-266.49 z"
       id="path56"
       inkscape:connector-curvature="0"
       style="opacity:1;fill:#ffffff" />
  </g>
  <g
     id="#9b9da5ff"
     transform="matrix(0.08114688,0,0,0.08114688,-0.344064,-0.344064)">
    <path
       d="m 312.78,221.71 c 8.2,0.87 16.44,-0.12 24.67,0.2 0.01,2.13 0.04,4.26 0.06,6.39 -8.24,0.08 -16.48,0.07 -24.71,0.01 -0.01,-2.2 -0.02,-4.4 -0.02,-6.6 z"
       id="path59"
       inkscape:connector-curvature="0"
       style="opacity:1;fill:#9b9da5" />
    <path
       d="m 262.58,305.67 c 27.67,30.56 55.14,61.3 82.81,91.86 11.58,11.86 25.38,23.3 42.21,26.05 17.59,0.5 35.21,0.04 52.81,0.23 0,4.94 -0.03,9.88 0.03,14.82 -15.82,0.14 -31.65,0.02 -47.47,0.06 -6.87,0.16 -13.6,-1.91 -19.7,-4.93 -13.25,-6.68 -24.44,-16.87 -33.86,-28.21 -25.67,-29.73 -51.16,-59.61 -76.91,-89.27 -0.02,-3.54 -0.01,-7.08 0.08,-10.61 z"
       id="path61"
       inkscape:connector-curvature="0"
       style="opacity:1;fill:#9b9da5" />
    <path
       d="m 251.1,420.12 c 12.12,-10.87 24.02,-21.99 36.28,-32.7 0.03,4.86 0.04,9.72 0,14.58 -12.94,11.84 -26.03,23.5 -38.93,35.37 -1.02,0.76 -2.01,1.95 -3.42,1.79 -28.47,0.04 -56.93,0 -85.39,0.01 -0.08,-4.97 -0.04,-9.95 -0.04,-14.92 28.14,-0.02 56.28,-0.04 84.41,0.01 3.1,0.44 4.98,-2.4 7.09,-4.14 z"
       id="path63"
       inkscape:connector-curvature="0"
       style="opacity:1;fill:#9b9da5" />
  </g>
</svg>
