<?xml version="1.0" encoding="utf-8"?>
<!-- Generator: Adobe Illustrator 23.0.2, SVG Export Plug-In . SVG Version: 6.00 Build 0)  -->
<svg version="1.1" id="Layer_1" xmlns="http://www.w3.org/2000/svg" xmlns:xlink="http://www.w3.org/1999/xlink" x="0px" y="0px"
	 width="64px" height="64px" viewBox="0 0 64 64" enable-background="new 0 0 64 64" xml:space="preserve">
<g>
	<g>
		<path fill="#181D27" d="M10.619,0c1.368,0.823,2.676,1.611,3.985,2.398c5.714,3.436,11.43,6.87,17.139,10.315
			c0.211,0.127,0.339,0.07,0.509-0.031C39.161,8.53,46.073,4.38,52.984,0.231c0.112-0.067,0.226-0.131,0.383-0.222
			c0,0.156,0,0.264,0,0.371c0,0.721,0,1.442,0,2.164c0.004,16.825,0.007,33.65,0.019,50.475c0,0.314-0.095,0.461-0.379,0.601
			c-4.642,2.296-9.277,4.608-13.914,6.915c-2.273,1.131-4.548,2.256-6.818,3.392c-0.205,0.102-0.361,0.094-0.562-0.007
			c-5.117-2.551-10.238-5.096-15.358-7.642c-1.821-0.905-3.639-1.816-5.464-2.711c-0.215-0.106-0.277-0.228-0.277-0.459
			c0.005-17.58,0.005-35.161,0.005-52.741C10.619,0.267,10.619,0.167,10.619,0z"/>
		<path fill="#00A89C" d="M26.258,47.868c0,0.946,0.006,1.893-0.002,2.839c-0.002,0.232,0.048,0.438,0.146,0.648
			c1.124,2.394,2.242,4.79,3.361,7.186c0.022,0.047,0.039,0.097,0.079,0.196c-0.136-0.062-0.225-0.098-0.311-0.141
			c-4.464-2.221-8.928-4.443-13.393-6.664c-0.504-0.251-1.008-0.501-1.517-0.741c-0.151-0.071-0.216-0.159-0.216-0.333
			c0.007-4.89,0.008-9.78,0.011-14.67c0-0.011,0.003-0.022,0.005-0.033c0.242-0.097,0.405,0.081,0.579,0.182
			c1.18,0.684,2.348,1.386,3.522,2.08c2.463,1.458,4.924,2.919,7.384,4.381c0.152,0.091,0.381,0.128,0.379,0.383
			c-0.001,1.441,0.001,2.881-0.002,4.321C26.282,47.623,26.307,47.748,26.258,47.868z"/>
		<path fill="#00A89C" d="M37.75,15.732c-0.004-0.529,0.003-1.059-0.017-1.588c-0.009-0.226,0.149-0.281,0.288-0.366
			c1.759-1.072,3.519-2.142,5.279-3.213c1.961-1.194,3.923-2.388,5.884-3.582c0.114-0.069,0.23-0.133,0.338-0.195
			c0.081,0.044,0.057,0.107,0.057,0.157c0.001,4.878,0.001,9.756,0,14.634c0,0.056-0.007,0.112-0.01,0.168
			c-0.144,0.058-0.266-0.01-0.382-0.076c-0.87-0.497-1.777-0.925-2.668-1.38c-2.074-1.06-4.137-2.142-6.214-3.196
			c-0.752-0.382-1.503-0.768-2.255-1.151C37.94,15.888,37.83,15.831,37.75,15.732z"/>
		<path fill="#00A89C" d="M49.577,49.543c0.004,0.394-0.013,0.79,0.019,1.181c0.023,0.287-0.1,0.412-0.341,0.53
			c-2.06,1.012-4.113,2.037-6.169,3.058c-2.882,1.431-5.763,2.863-8.645,4.294c-0.077,0.038-0.156,0.073-0.298,0.138
			c0.318-0.687,0.606-1.316,0.899-1.943c0.862-1.844,1.723-3.688,2.59-5.53c0.08-0.169,0.108-0.337,0.106-0.52
			c-0.022-1.97-0.041-3.939-0.059-5.909c-0.002-0.191,0.006-0.383,0.01-0.574c0.159-0.119,0.307-0.025,0.443,0.038
			c1.564,0.72,3.135,1.424,4.701,2.139c1.586,0.725,3.178,1.437,4.764,2.161C48.261,48.911,48.948,49.167,49.577,49.543z"/>
		<path fill="#4AC79D" d="M37.611,20.884c0.024,0.002,0.048,0.005,0.071,0.007c0.411,0.136,0.799,0.311,1.063,0.678
			c-0.048,0.354-0.321,0.584-0.484,0.875c-0.334,0.598-0.724,1.166-0.997,1.798c-0.049,0.114-0.089,0.235-0.162,0.334
			c-0.676,0.91-0.879,2.012-1.24,3.05c-0.011,0.032-0.017,0.065-0.027,0.098c-0.255,0.79-0.531,1.56-0.541,2.421
			c-0.014,1.149-0.616,2.099-1.285,2.992c-0.236,0.315-0.462,0.64-0.724,0.934c-0.092,0.103-0.156,0.256-0.332,0.254
			c-0.859-0.521-1.718-1.043-2.576-1.564c-0.085-0.145,0.031-0.232,0.1-0.326c0.163-0.221,0.277-0.461,0.341-0.728
			c0.098-0.406,0.263-0.782,0.45-1.158c0.289-0.582,0.497-1.203,0.895-1.73c0.098-0.13,0.073-0.301,0.082-0.459
			c0.056-0.976-0.136-1.928-0.299-2.88c-0.147-0.862-0.398-1.701-0.7-2.523c-0.523-1.424-1.114-2.824-1.474-4.306
			c-0.173-0.713-0.135-1.404,0.06-2.096c0.039-0.14,0.089-0.296,0.298-0.223c0.141,0.107,0.332,0.129,0.451,0.273
			c0.021,0.027,0.048,0.062,0.037,0.091c-0.187,0.503-0.08,1.023-0.09,1.536c-0.005,0.261,0.017,0.517,0.095,0.767
			c0.308,0.988,0.666,1.957,1.075,2.907c0.418,0.971,0.973,1.876,1.376,2.855c0.098,0.238,0.26,0.446,0.404,0.662
			c0.117,0.176,0.27,0.209,0.469,0.126c0.319-0.134,0.592-0.289,0.735-0.642c0.136-0.338,0.437-0.57,0.677-0.834
			c0.412-0.454,0.738-0.961,1.06-1.476C36.788,22.005,37.232,21.467,37.611,20.884z"/>
		<path fill="#01A599" d="M26.248,43.052c-0.457-0.168-0.843-0.464-1.257-0.707c-1.916-1.125-3.823-2.266-5.734-3.4
			c-1.438-0.853-2.876-1.707-4.316-2.556c-0.163-0.096-0.326-0.201-0.52-0.235c0-0.699,0-1.398,0-2.096
			c0.169-0.124,0.298,0,0.429,0.076c1.322,0.769,2.631,1.562,3.949,2.337c2.414,1.42,4.813,2.866,7.231,4.279
			c0.127,0.074,0.265,0.137,0.255,0.321C26.261,41.732,26.328,42.393,26.248,43.052z"/>
		<path fill="#4DC89D" d="M31.686,17.278c1.059,0.635,2.12,1.266,3.176,1.906c0.74,0.448,1.472,0.908,2.208,1.362
			c0.093,0.151-0.019,0.254-0.089,0.363c-0.279,0.436-0.557,0.876-0.869,1.286c-0.331,0.434-0.731,0.821-1.12,1.205
			c-0.236,0.233-0.622,0.299-0.96,0.377c-0.198,0.046-0.329-0.102-0.45-0.244c-0.875-1.029-1.536-2.189-2.016-3.441
			c-0.287-0.748-0.38-1.551-0.229-2.354C31.371,17.555,31.335,17.249,31.686,17.278z"/>
		<path fill="#48C69D" d="M30.131,16.331c-0.12,0.007-0.184,0.086-0.208,0.19c-0.165,0.71-0.257,1.415-0.05,2.142
			c0.31,1.089,0.646,2.164,1.081,3.213c0.204,0.491,0.423,0.991,0.554,1.507c0.235,0.925,0.538,1.83,0.649,2.793
			c0.088,0.768,0.196,1.53,0.182,2.304c-0.002,0.136,0.011,0.283-0.083,0.388c-0.546,0.607-0.677,1.431-1.102,2.104
			c-0.138,0.218-0.19,0.503-0.237,0.765c-0.072,0.404-0.356,0.685-0.54,1.023c-0.377-0.194-0.739-0.412-1.086-0.655
			c-0.108-0.169-0.046-0.325,0.037-0.477c0.098-0.178,0.198-0.354,0.295-0.532c0.913-1.666,1.272-3.47,1.179-5.341
			c-0.065-1.292-0.353-2.565-0.861-3.771c-0.114-0.272-0.205-0.548-0.271-0.834c-0.069-0.298-0.155-0.592-0.304-0.858
			c-0.488-0.87-0.578-1.837-0.715-2.796c-0.075-0.526-0.055-1.03,0.146-1.524c0.051-0.125,0.077-0.263,0.227-0.314
			C29.41,15.857,29.784,16.072,30.131,16.331z"/>
		<path fill="#3BC19C" d="M20.841,10.673c1.423,0.867,2.846,1.734,4.269,2.6c0.104,0.221,0.162,0.449,0.058,0.685
			c-0.16,0.367-0.112,0.74,0.016,1.09c0.241,0.658,0.345,1.351,0.577,2.011c0.328,0.934,0.626,1.874,1.004,2.793
			c0.525,1.277,1.084,2.56,1.227,3.957c0.105,1.029,0.151,2.053,0.018,3.095c-0.154,1.205-0.51,2.326-1.029,3.409
			c-0.048,0.1-0.075,0.215-0.188,0.27c-0.136-0.08-0.273-0.159-0.409-0.239c-0.107-0.191,0.015-0.348,0.084-0.508
			c0.346-0.807,0.713-1.606,0.858-2.483c0.241-1.449,0.241-2.9-0.092-4.325c-0.3-1.281-0.788-2.508-1.319-3.716
			c-0.303-0.689-0.553-1.402-0.82-2.106c-0.427-1.125-0.822-2.263-1.353-3.347c-0.131-0.268-0.333-0.481-0.556-0.672
			c-0.137-0.118-0.277-0.231-0.35-0.404c-0.022-0.052-0.053-0.12-0.107-0.123c-0.371-0.021-0.701-0.258-1.086-0.198
			c-0.493,0.077-0.987,0.076-1.48-0.001c-0.067-0.01-0.135-0.015-0.202-0.013c-1.228,0.04-2.451-0.088-3.679-0.081
			c-0.513,0.003-1.032,0.012-1.546-0.055c-0.112-0.015-0.226-0.011-0.316-0.096c0-0.203,0-0.406,0-0.609
			c0.082-0.074,0.181-0.082,0.285-0.073c1.454,0.128,2.902-0.003,4.35-0.107c0.393-0.028,0.773-0.153,1.119-0.355
			C20.398,10.942,20.617,10.802,20.841,10.673z"/>
		<path fill="#01A599" d="M37.75,15.732c0.799,0.337,1.562,0.747,2.329,1.149c0.08,0.042,0.154,0.093,0.234,0.133
			c1.335,0.679,2.671,1.354,4.004,2.037c1.543,0.79,3.083,1.584,4.623,2.38c0.209,0.108,0.402,0.247,0.63,0.316
			c0,0.474,0,0.948,0,1.422c-0.13,0.093-0.238,0.002-0.343-0.05c-2.312-1.157-4.599-2.364-6.901-3.541
			c-1.331-0.681-2.652-1.382-3.994-2.042c-0.208-0.102-0.443-0.174-0.583-0.383C37.75,16.679,37.75,16.205,37.75,15.732z"/>
		<path fill="#00A59B" d="M49.57,34.801c0,0.969,0,1.938,0,2.908c-0.033,0.031-0.07,0.067-0.115,0.065
			c-0.569-0.026-1.045,0.269-1.521,0.499c-0.644,0.311-1.13,0.846-1.593,1.381c-0.523,0.604-0.94,1.288-1.413,1.93
			c-0.15,0.063-0.266-0.032-0.392-0.082c-0.193-0.114-0.441-0.168-0.489-0.443c0.077-0.366,0.313-0.66,0.451-1.001
			c0.199-0.493,0.347-0.988,0.328-1.524c-0.006-0.169,0.011-0.335,0.091-0.488c0.131-0.262,0.33-0.48,0.479-0.73
			c0.122-0.204,0.226-0.41,0.269-0.647c0.04-0.225,0.137-0.433,0.314-0.582c0.429-0.36,0.87-0.704,1.393-0.923
			c0.103-0.043,0.219-0.065,0.307-0.134c0.517-0.404,1.126-0.288,1.71-0.307C49.457,34.72,49.52,34.751,49.57,34.801z"/>
		<path fill="#02A196" d="M26.248,40.956c-1.598-0.937-3.198-1.87-4.793-2.812c-1.788-1.056-3.572-2.119-5.358-3.179
			c-0.444-0.264-0.889-0.526-1.331-0.792c-0.108-0.065-0.214-0.126-0.345-0.115c0-0.473,0-0.946,0-1.419
			c0.2-0.051,0.344,0.078,0.494,0.167c2.171,1.287,4.339,2.578,6.512,3.862c1.474,0.871,2.94,1.756,4.419,2.619
			c0.173,0.101,0.421,0.146,0.439,0.42C26.26,40.123,26.33,40.542,26.248,40.956z"/>
		<path fill="#39C09C" d="M14.421,12.215c1.163,0.046,2.328,0.034,3.489,0.086c0.708,0.032,1.418-0.005,2.121,0.058
			c0.584,0.053,1.16,0.086,1.742-0.006c0.208-0.033,0.392,0.118,0.583,0.131c0.337,0.024,0.599,0.092,0.677,0.465
			c1.02,0.728,1.23,1.914,1.668,2.969c0.313,0.756,0.618,1.517,0.888,2.289c0.245,0.701,0.55,1.374,0.834,2.057
			c0.379,0.91,0.678,1.847,0.921,2.8c0.121,0.474,0.173,0.966,0.199,1.46c0.029,0.57,0.045,1.134,0.009,1.708
			c-0.068,1.068-0.303,2.08-0.738,3.053c-0.156,0.348-0.336,0.686-0.428,1.06c-0.021-0.007-0.043-0.01-0.065-0.009
			c-0.206-0.028-0.365-0.121-0.448-0.321c0.206-0.483,0.396-0.973,0.593-1.459c0.285-0.701,0.386-1.428,0.499-2.16
			c0.206-1.328-0.018-2.616-0.337-3.901c-0.276-1.108-0.721-2.149-1.165-3.195c-0.387-0.911-0.757-1.829-1.166-2.731
			c-0.292-0.645-0.709-1.2-1.15-1.739c-0.199-0.243-0.408-0.484-0.633-0.7c-0.486-0.467-1.082-0.749-1.745-0.871
			c-0.165-0.03-0.335-0.035-0.499-0.076c-0.944-0.238-1.909-0.281-2.874-0.26c-0.533,0.012-1.048-0.122-1.578-0.121
			c-0.325,0-0.652-0.011-0.978-0.021c-0.145-0.004-0.296,0.019-0.417-0.092C14.42,12.531,14.42,12.373,14.421,12.215z"/>
		<path fill="#01A599" d="M49.577,49.543c-0.555-0.119-1.036-0.419-1.545-0.646c-2.151-0.958-4.294-1.936-6.438-2.91
			c-1.123-0.511-2.243-1.029-3.364-1.545c-0.173-0.08-0.344-0.165-0.54-0.173c0-0.406,0-0.811,0-1.217
			c0.129-0.093,0.237,0,0.344,0.047c1.626,0.714,3.238,1.459,4.855,2.192c1.842,0.835,3.681,1.677,5.525,2.509
			c0.395,0.178,0.83,0.289,1.163,0.594C49.577,48.777,49.577,49.16,49.577,49.543z"/>
		<path fill="#4BC79D" d="M31.686,17.278c-0.153,0.003-0.167,0.131-0.201,0.232c-0.189,0.555-0.113,1.119-0.056,1.685
			c0.064,0.637,0.377,1.189,0.592,1.774c0.156,0.425,0.509,0.743,0.671,1.161c0.214,0.549,0.686,0.904,0.983,1.388
			c0.094,0.154,0.251,0.255,0.431,0.176c0.451-0.196,0.89-0.362,1.25-0.774c0.568-0.65,1.07-1.338,1.55-2.049
			c0.07-0.103,0.146-0.198,0.164-0.325c0.18,0.113,0.361,0.226,0.541,0.339c-0.11,0.401-0.367,0.717-0.615,1.034
			c-0.347,0.444-0.612,0.939-0.926,1.401c-0.288,0.424-0.652,0.795-0.982,1.191c-0.115,0.138-0.284,0.261-0.329,0.419
			c-0.112,0.389-0.399,0.54-0.729,0.677c-0.367,0.153-0.452,0.113-0.686-0.21c-0.38-0.525-0.552-1.149-0.865-1.707
			c-0.404-0.723-0.75-1.483-1.066-2.249c-0.344-0.836-0.729-1.67-0.891-2.561c-0.136-0.749-0.234-1.525,0.059-2.276
			C30.967,16.801,31.339,17.019,31.686,17.278z"/>
		<path fill="#45C59D" d="M29.026,15.657c-0.364,0.674-0.371,1.392-0.255,2.123c0.051,0.319,0.122,0.636,0.16,0.957
			c0.082,0.685,0.475,1.256,0.671,1.895c0.292,0.954,0.724,1.868,0.936,2.839c0.242,1.111,0.491,2.239,0.375,3.393
			c-0.067,0.666-0.206,1.323-0.33,1.982c-0.196,1.037-0.677,1.942-1.185,2.841c-0.074,0.131-0.117,0.267-0.106,0.418
			c-0.25-0.155-0.5-0.309-0.75-0.464c-0.047-0.106-0.008-0.204,0.048-0.287c0.336-0.501,0.48-1.092,0.764-1.617
			c0.103-0.19,0.162-0.394,0.193-0.609c0.045-0.312,0.116-0.62,0.202-0.924c0.267-0.934,0.247-1.884,0.221-2.845
			c-0.028-1.005-0.308-1.954-0.527-2.917c-0.14-0.616-0.405-1.194-0.64-1.779c-0.399-0.993-0.809-1.979-0.916-3.06
			c-0.07-0.701-0.088-1.394,0.189-2.062c0.047-0.113,0.071-0.242,0.207-0.291C28.543,15.363,28.809,15.466,29.026,15.657z"/>
		<path fill="#00A19B" d="M44.912,41.575c0.205-0.464,0.537-0.844,0.811-1.263c0.479-0.731,1.118-1.307,1.757-1.886
			c0.222-0.201,0.51-0.276,0.777-0.39c0.42-0.18,0.826-0.416,1.313-0.326c0,0.969,0,1.939,0,2.908
			c-0.07,0.099-0.174,0.144-0.287,0.159c-0.875,0.119-1.421,0.711-1.941,1.343c-0.189,0.23-0.324,0.523-0.658,0.592
			c-0.086,0.002-0.165-0.024-0.242-0.058c-0.359-0.18-0.698-0.394-1.028-0.621C45.262,41.862,44.955,41.862,44.912,41.575z"/>
		<path fill="#40C39C" d="M27.807,31.198c-0.18-0.111-0.361-0.221-0.541-0.332c-0.085-0.135,0.017-0.236,0.068-0.342
			c0.469-0.968,0.825-1.986,0.996-3.037c0.215-1.317,0.297-2.647-0.012-3.984c-0.294-1.269-0.788-2.458-1.267-3.657
			c-0.33-0.826-0.672-1.654-0.811-2.534c-0.108-0.685-0.318-1.359-0.287-2.064c0.007-0.158-0.028-0.313-0.046-0.47
			c-0.037-0.321-0.006-0.628,0.214-0.888c0.373,0.313,0.865,0.428,1.232,0.751c-0.494,1.264-0.224,2.529-0.002,3.792
			c0.055,0.314,0.252,0.576,0.378,0.865c0.559,1.281,1.025,2.598,1.385,3.946c0.432,1.619,0.364,3.249,0.001,4.88
			c-0.202,0.911-0.53,1.767-0.956,2.59C28.068,30.891,27.99,31.085,27.807,31.198z"/>
		<path fill="#039D92" d="M26.248,39.604c-1.441-0.847-2.883-1.691-4.321-2.542c-1.67-0.987-3.336-1.982-5.006-2.968
			c-0.83-0.491-1.667-0.971-2.501-1.455c0-0.316,0-0.632,0-0.948c0.242-0.101,0.406,0.077,0.579,0.18
			c1.055,0.626,2.11,1.253,3.165,1.878c2.605,1.543,5.208,3.089,7.815,4.629c0.24,0.142,0.341,0.295,0.306,0.562
			C26.257,39.159,26.327,39.386,26.248,39.604z"/>
		<path fill="#36C09C" d="M36.659,36.574c-0.243-0.111-0.47-0.249-0.681-0.414c0.056-0.319,0.223-0.589,0.402-0.844
			c0.603-0.858,1.098-1.778,1.565-2.712c0.267-0.534,0.383-1.127,0.607-1.679c0.583-1.437,1.103-2.9,1.729-4.318
			c0.47-1.066,1.014-2.102,1.63-3.096c0.245-0.073,0.392,0.119,0.571,0.218c0.107,0.059,0.213,0.125,0.311,0.202
			c0.039,0.037,0.062,0.081,0.064,0.136c-0.314,0.622-0.671,1.222-1.016,1.827c-0.426,0.745-0.749,1.535-1.106,2.312
			c-0.589,1.28-1.049,2.611-1.629,3.894c-0.348,0.771-0.779,1.501-1.115,2.271c-0.305,0.699-0.826,1.263-1.104,1.969
			C36.846,36.438,36.779,36.539,36.659,36.574z"/>
		<path fill="#02A196" d="M37.75,17.153c1.122,0.572,2.244,1.144,3.365,1.717c1.934,0.989,3.874,1.968,5.8,2.973
			c0.878,0.458,1.75,0.924,2.655,1.327c0,0.316,0,0.631,0,0.947c-0.135,0.112-0.26,0.027-0.374-0.033
			c-1.742-0.915-3.504-1.792-5.245-2.711c-0.915-0.483-1.842-0.944-2.762-1.415c-1.091-0.559-2.165-1.151-3.273-1.676
			c-0.062-0.029-0.116-0.068-0.165-0.115C37.75,17.828,37.75,17.49,37.75,17.153z"/>
		<path fill="#30BC9C" d="M14.421,14.312c0-0.18,0-0.361,0-0.541c0.181-0.148,0.39-0.081,0.586-0.067
			c0.841,0.06,1.687,0.066,2.524,0.178c0.917,0.124,1.824,0.344,2.685,0.654c0.901,0.324,1.648,0.935,2.321,1.643
			c0.837,0.88,1.445,1.909,1.979,2.969c0.556,1.103,1.014,2.261,1.272,3.484c0.13,0.617,0.316,1.226,0.3,1.862
			c-0.023,0.941,0.063,1.891-0.234,2.811c-0.176,0.546-0.313,1.106-0.566,1.626c-0.088,0.182-0.149,0.378-0.296,0.528
			c-0.238,0.043-0.399-0.047-0.477-0.279c-0.001-0.069,0.016-0.136,0.049-0.194c0.404-0.716,0.606-1.51,0.76-2.299
			c0.221-1.129,0.233-2.278,0.002-3.418c-0.268-1.321-0.758-2.567-1.331-3.777c-0.548-1.157-1.317-2.178-2.234-3.06
			c-0.867-0.833-1.938-1.337-3.126-1.559c-0.607-0.114-1.198-0.334-1.818-0.352c-0.751-0.022-1.487-0.238-2.244-0.154
			C14.517,14.374,14.465,14.35,14.421,14.312z"/>
		<path fill="#04998F" d="M26.248,39.604c0.137-0.691-0.135-1.092-0.769-1.442c-1.805-0.999-3.563-2.082-5.338-3.136
			c-1.225-0.727-2.437-1.476-3.673-2.183c-0.68-0.389-1.309-0.869-2.049-1.151c0-0.271,0-0.541,0-0.812
			c0.158-0.122,0.277,0.002,0.397,0.071c1.257,0.727,2.499,1.478,3.749,2.216c2.539,1.499,5.07,3.011,7.61,4.507
			c0.049,0.029,0.093,0.063,0.133,0.103c0.001,1.801,0.004,3.603,0.003,5.404c0,1.43-0.003,2.86-0.008,4.29
			c0,0.132,0.035,0.271-0.045,0.396c-0.003-1.605-0.007-3.21-0.01-4.815c0-0.699,0-1.397,0-2.096
			C26.248,40.505,26.248,40.054,26.248,39.604z"/>
		<path fill="#32BE9C" d="M36.659,36.574c0.279-0.536,0.622-1.04,0.901-1.571c0.54-1.029,1.095-2.052,1.557-3.123
			c0.52-1.204,0.999-2.425,1.504-3.635c0.583-1.396,1.315-2.7,2.066-4.001c0.039-0.068,0.087-0.13,0.131-0.196
			c0.32-0.006,0.537,0.172,0.723,0.405c-0.076,0.397-0.343,0.7-0.532,1.039c-0.592,1.06-1.157,2.133-1.702,3.218
			c-0.359,0.715-0.654,1.458-0.954,2.193c-0.505,1.24-1.092,2.439-1.679,3.639c-0.38,0.778-0.855,1.505-1.267,2.267
			c-0.033,0.061-0.086,0.103-0.135,0.149C37.069,36.831,36.864,36.703,36.659,36.574z"/>
		<path fill="#1CB49C" d="M14.421,17.422c0-0.248,0-0.496,0-0.744c0.133-0.118,0.3-0.108,0.451-0.083
			c0.731,0.122,1.482,0.127,2.189,0.383c0.223,0.08,0.454,0.132,0.688,0.17c0.533,0.086,1.024,0.283,1.45,0.608
			c0.518,0.394,1.125,0.65,1.591,1.131c1.21,1.25,2.018,2.718,2.316,4.422c0.277,1.584,0.13,3.142-0.677,4.584
			c-0.297,0.057-0.469-0.121-0.623-0.332c-0.022-0.141,0.032-0.267,0.086-0.39c0.453-1.031,0.593-2.097,0.504-3.227
			c-0.095-1.206-0.504-2.275-1.153-3.266c-0.603-0.918-1.404-1.675-2.365-2.165c-0.88-0.449-1.813-0.864-2.843-0.906
			c-0.456-0.019-0.897-0.221-1.366-0.103C14.583,17.526,14.49,17.49,14.421,17.422z"/>
		<path fill="#04A99C" d="M14.42,22.224c0-0.564,0-1.127,0-1.691c0.081-0.075,0.181-0.095,0.284-0.076
			c0.956,0.178,1.95,0.168,2.843,0.651c0.381,0.206,0.716,0.45,1.051,0.719c0.536,0.431,0.758,0.975,0.893,1.633
			c0.155,0.76,0.106,1.472-0.14,2.19c-0.036,0.107-0.065,0.217-0.159,0.292c-0.076,0.048-0.155,0.03-0.222-0.01
			c-0.307-0.183-0.614-0.366-0.911-0.565c-0.067-0.045-0.106-0.114-0.116-0.196c0.061-0.435,0.201-0.853,0.273-1.286
			c0.108-0.647-0.189-1.067-0.836-1.177c-0.306-0.052-0.59-0.169-0.824-0.366c-0.229-0.193-0.465-0.256-0.749-0.173
			c-0.36,0.105-0.739,0.06-1.104,0.13C14.601,22.318,14.501,22.3,14.42,22.224z"/>
		<path fill="#46C59D" d="M32.953,34.324c0.649-0.758,1.253-1.548,1.746-2.418c0.36-0.636,0.514-1.334,0.538-2.053
			c0.015-0.441,0.066-0.86,0.214-1.281c0.36-1.025,0.682-2.064,1.021-3.096c0.021-0.064,0.042-0.131,0.081-0.184
			c0.481-0.653,0.774-1.412,1.171-2.112c0.313-0.552,0.723-1.046,0.97-1.635c0.116-0.034,0.185,0.046,0.262,0.109
			c0.035,0.041,0.05,0.089,0.048,0.143c-0.152,0.488-0.428,0.92-0.689,1.347c-0.548,0.899-0.902,1.883-1.353,2.824
			c-0.295,0.614-0.374,1.293-0.625,1.919c-0.03,0.074-0.057,0.164-0.011,0.229c0.189,0.264,0.071,0.514-0.016,0.769
			c-0.096,0.278-0.161,0.569-0.157,0.859c0.013,1.069-0.366,2.015-0.834,2.951c-0.337,0.673-0.805,1.271-1.093,1.969
			c-0.051,0.123-0.118,0.247-0.268,0.283C33.622,34.738,33.287,34.531,32.953,34.324z"/>
		<path fill="#40C49D" d="M35.18,35.679c-0.157-0.061-0.296-0.15-0.421-0.262c0.25-0.541,0.584-1.035,0.881-1.549
			c0.28-0.485,0.584-0.961,0.916-1.415c0.211-0.288,0.287-0.633,0.372-0.97c0.241-0.959,0.529-1.907,0.761-2.867
			c0.41-1.697,1.085-3.279,1.876-4.823c0.225-0.44,0.4-0.906,0.784-1.243c0.09-0.037,0.171-0.004,0.251,0.034
			c0.164,0.154,0.469,0.166,0.482,0.474c-0.464,0.926-0.982,1.824-1.395,2.777c-0.488,1.127-0.941,2.266-1.313,3.437
			c-0.341,1.073-0.692,2.142-1.066,3.204c-0.094,0.267-0.222,0.516-0.387,0.748c-0.399,0.56-0.765,1.138-1.073,1.756
			C35.705,35.268,35.542,35.579,35.18,35.679z"/>
		<path fill="#0AAC9C" d="M19.151,25.932c0.381-0.894,0.42-1.796,0.187-2.747c-0.264-1.08-1.067-1.575-1.948-2.04
			c-0.768-0.405-1.612-0.423-2.438-0.549c-0.177-0.027-0.35-0.076-0.532-0.063c0-0.316,0-0.631,0-0.947
			c0.363-0.192,0.75-0.129,1.121-0.068c0.353,0.059,0.705,0.144,1.057,0.211c0.728,0.14,1.334,0.499,1.951,0.884
			c0.612,0.382,1.061,0.891,1.455,1.473c0.169,0.249,0.252,0.531,0.311,0.815c0.202,0.974,0.372,1.951,0.014,2.928
			c-0.077,0.21-0.147,0.427-0.321,0.585C19.627,26.424,19.36,26.23,19.151,25.932z"/>
		<path fill="#33BD9C" d="M24.966,29.461c0.35-0.778,0.63-1.58,0.871-2.398c0.094-0.318,0.127-0.644,0.131-0.957
			c0.008-0.813,0.117-1.629-0.052-2.44c-0.212-1.019-0.464-2.022-0.835-3c-0.413-1.088-0.982-2.087-1.555-3.09
			c-0.316-0.553-0.788-0.974-1.185-1.458c-0.545-0.665-1.302-1.048-2.02-1.482c-0.115-0.07-0.239-0.051-0.357-0.083
			c-0.87-0.241-1.742-0.478-2.637-0.614c-0.455-0.069-0.915-0.024-1.373-0.089c-0.504-0.072-1.021-0.056-1.532-0.079
			c0-0.158,0-0.316,0-0.473c0.121-0.113,0.273-0.083,0.418-0.09c1.143-0.054,2.26,0.172,3.388,0.287
			c0.751,0.077,1.457,0.296,2.151,0.523c1.104,0.361,2.05,0.991,2.747,1.972c0.585,0.824,1.023,1.722,1.481,2.613
			c0.789,1.534,1.283,3.171,1.626,4.851c0.121,0.591,0.119,1.207,0.116,1.817c-0.007,1.257-0.27,2.455-0.765,3.605
			c-0.106,0.247-0.201,0.503-0.379,0.713C25.076,29.636,24.984,29.616,24.966,29.461z"/>
		<path fill="#02A196" d="M49.577,48.394c-0.729-0.32-1.461-0.633-2.187-0.961c-1.904-0.858-3.805-1.722-5.708-2.585
			c-1.248-0.566-2.495-1.134-3.742-1.7c-0.081-0.037-0.166-0.064-0.25-0.096c-0.007-0.157-0.014-0.314-0.021-0.472
			c-0.036-0.086-0.024-0.174-0.013-0.262c0.125-0.127,0.253-0.05,0.372,0.005c1.752,0.797,3.505,1.59,5.256,2.387
			c1.823,0.83,3.647,1.658,5.473,2.48c0.276,0.124,0.559,0.236,0.82,0.392C49.577,47.853,49.577,48.123,49.577,48.394z"/>
		<path fill="#28B99C" d="M14.421,15.394c0-0.135,0-0.27,0-0.406c0.238-0.159,0.504-0.1,0.755-0.073
			c0.467,0.05,0.937,0.051,1.405,0.098c0.917,0.093,1.781,0.346,2.638,0.656c0.553,0.2,1.079,0.44,1.564,0.783
			c0.546,0.386,1.06,0.808,1.477,1.325c1.108,1.375,1.9,2.925,2.37,4.626c0.263,0.955,0.39,1.93,0.346,2.938
			c-0.055,1.257-0.366,2.416-0.991,3.5c-0.265,0.077-0.402-0.105-0.546-0.271c-0.053-0.161,0.046-0.281,0.113-0.408
			c0.713-1.361,0.884-2.804,0.705-4.318c-0.134-1.132-0.453-2.201-0.949-3.219c-0.465-0.953-0.952-1.903-1.715-2.656
			c-0.832-0.822-1.793-1.506-2.908-1.852c-1.208-0.375-2.447-0.707-3.743-0.634C14.765,15.491,14.576,15.526,14.421,15.394z"/>
		<path fill="#05958B" d="M26.308,37.777c-0.386-0.05-0.662-0.321-0.976-0.505c-1.918-1.122-3.825-2.263-5.735-3.399
			c-1.505-0.895-3.005-1.797-4.515-2.684c-0.207-0.122-0.399-0.297-0.661-0.31c0-0.248,0-0.496,0-0.744
			c0.152-0.098,0.257,0.029,0.364,0.091c1.119,0.648,2.227,1.314,3.339,1.974c2.631,1.559,5.265,3.113,7.89,4.682
			c0.106,0.063,0.221,0.113,0.295,0.219C26.308,37.326,26.308,37.552,26.308,37.777z"/>
		<path fill="#039D92" d="M37.75,18.166c0.612,0.17,1.138,0.525,1.702,0.798c0.08,0.039,0.152,0.096,0.232,0.137
			c1.363,0.694,2.728,1.383,4.09,2.08c1.531,0.784,3.06,1.571,4.588,2.362c0.397,0.205,0.759,0.481,1.209,0.574
			c0,0.247,0,0.494,0,0.741c-0.161,0.051-0.282-0.05-0.408-0.115c-2.886-1.468-5.765-2.948-8.635-4.449
			c-0.837-0.438-1.699-0.826-2.52-1.294c-0.087-0.05-0.186-0.081-0.257-0.158C37.75,18.617,37.75,18.391,37.75,18.166z"/>
		<path fill="#0FB19C" d="M49.569,28.112c0,0.381,0,0.763,0,1.144c-0.186,0.204-0.458,0.231-0.694,0.323
			c-0.266,0.103-0.492,0.249-0.722,0.416c-0.619,0.448-1.216,0.918-1.775,1.44c-0.583,0.545-1.141,1.112-1.635,1.736
			c-0.508,0.642-1.002,1.299-1.333,2.058c-0.101,0.194-0.196,0.392-0.323,0.571c-0.053,0.073-0.082,0.192-0.217,0.151
			c-0.062-0.079-0.064-0.171-0.036-0.257c0.153-0.47,0.279-0.951,0.494-1.398c0.414-0.863,0.878-1.697,1.44-2.474
			c0.501-0.54,0.913-1.16,1.482-1.639c0.069-0.058,0.133-0.119,0.19-0.189c0.276-0.338,0.551-0.672,0.895-0.951
			c0.516-0.419,0.907-0.955,1.291-1.493C49.011,27.62,49.295,27.859,49.569,28.112z"/>
		<path fill="#45C59D" d="M33.957,34.945c0.458-0.942,1.052-1.808,1.503-2.756c0.383-0.805,0.605-1.628,0.605-2.522
			c0-0.355,0.101-0.707,0.235-1.044c0.056-0.139,0.134-0.28-0.056-0.412c-0.11-0.077-0.034-0.221-0.003-0.343
			c0.322-1.252,0.839-2.432,1.368-3.604c0.285-0.632,0.657-1.225,0.989-1.836c0.123-0.227,0.245-0.455,0.367-0.682
			c0.313-0.056,0.483,0.135,0.632,0.363c-0.036,0.21-0.201,0.347-0.296,0.523c-0.466,0.86-0.862,1.754-1.3,2.628
			c-0.209,0.417-0.332,0.884-0.464,1.335c-0.307,1.044-0.707,2.065-0.878,3.146c-0.086,0.545-0.295,1.057-0.372,1.605
			c-0.09,0.638-0.489,1.153-0.783,1.706c-0.379,0.713-0.835,1.383-1.21,2.099C34.182,35.081,34.069,35.013,33.957,34.945z"/>
		<path fill="#02A99C" d="M49.57,34.801c-0.387-0.048-0.774,0.089-1.162,0.003c-0.041-0.009-0.094-0.003-0.132,0.016
			c-0.786,0.393-1.608,0.726-2.259,1.346c-0.118,0.112-0.208,0.24-0.232,0.4c-0.09,0.591-0.462,1.027-0.802,1.481
			c-0.175-0.288-0.49-0.489-0.535-0.858c0.091-0.579,0.353-1.092,0.679-1.562c0.627-0.906,1.483-1.572,2.467-2.03
			c0.498-0.232,1.039-0.423,1.593-0.53c0.132-0.025,0.266-0.066,0.383,0.043C49.57,33.674,49.57,34.238,49.57,34.801z"/>
		<path fill="#43C49D" d="M27.807,31.198c0.344-0.668,0.702-1.33,0.932-2.05c0.238-0.746,0.413-1.506,0.491-2.289
			c0.052-0.521,0.086-1.039,0.07-1.564c-0.031-1.006-0.219-1.97-0.543-2.925c-0.425-1.252-0.839-2.504-1.431-3.692
			c-0.18-0.362-0.202-0.783-0.249-1.177c-0.078-0.656-0.14-1.322-0.074-1.983c0.031-0.311,0.082-0.646,0.348-0.878
			c0.188,0.116,0.376,0.232,0.563,0.348c-0.149,0.576-0.409,1.132-0.351,1.745c0.084,0.883,0.192,1.744,0.557,2.589
			c0.615,1.423,1.247,2.853,1.504,4.402c0.156,0.943,0.262,1.88,0.192,2.852c-0.112,1.561-0.628,2.985-1.246,4.389
			c-0.079,0.18-0.157,0.379-0.365,0.467C28.054,31.388,27.929,31.295,27.807,31.198z"/>
		<path fill="#36BF9C" d="M14.42,12.689c0.882-0.017,1.758,0.079,2.636,0.119c1.159,0.052,2.305,0.12,3.457,0.307
			c0.641,0.104,1.137,0.447,1.719,0.619c0.081,0.024,0.159,0.092,0.214,0.159c0.548,0.679,1.191,1.282,1.626,2.053
			c0.348,0.616,0.621,1.265,0.892,1.916c0.5,1.202,1.028,2.394,1.472,3.616c0.266,0.731,0.411,1.508,0.559,2.278
			c0.213,1.108,0.137,2.202-0.041,3.305c-0.171,1.062-0.544,2.046-1.041,2.99c-0.176,0.035-0.276-0.026-0.272-0.218
			c0.23-0.27,0.385-0.575,0.483-0.918c0.108-0.379,0.251-0.747,0.391-1.116c0.234-0.619,0.252-1.279,0.315-1.926
			c0.176-1.801-0.335-3.479-0.989-5.118c-0.555-1.39-1.105-2.793-1.852-4.088c-0.653-1.131-1.476-2.138-2.786-2.642
			c-0.849-0.326-1.688-0.582-2.601-0.662c-0.997-0.086-1.994-0.158-2.991-0.241c-0.245-0.02-0.494-0.008-0.74,0.043
			c-0.152,0.032-0.316,0.048-0.45-0.071C14.421,12.959,14.42,12.824,14.42,12.689z"/>
		<path fill="#3FC29C" d="M20.841,10.673c-0.287,0.405-0.736,0.548-1.166,0.726c-0.503,0.208-1.04,0.13-1.559,0.197
			c-0.97,0.126-1.951,0.066-2.927,0.084c-0.262,0.005-0.508-0.096-0.768-0.073c0-0.316,0-0.631,0-0.947
			c0.201-0.151,0.439-0.157,0.673-0.161c0.425-0.009,0.852-0.019,1.276,0.001c0.591,0.028,1.157-0.105,1.726-0.225
			c0.251-0.053,0.441-0.212,0.625-0.377c0.117-0.104,0.221-0.223,0.362-0.298C19.668,9.958,20.255,10.315,20.841,10.673z"/>
		<path fill="#069087" d="M26.308,37.101c-0.62-0.244-1.152-0.644-1.722-0.978c-1.896-1.11-3.779-2.243-5.668-3.364
			c-1.446-0.858-2.895-1.711-4.344-2.565c-0.047-0.028-0.102-0.04-0.154-0.059c0-0.203,0-0.406,0-0.609
			c0.149-0.1,0.257,0.013,0.366,0.078c2.031,1.205,4.065,2.407,6.096,3.613c1.673,0.993,3.346,1.988,5.022,2.975
			c0.145,0.085,0.299,0.16,0.404,0.299C26.308,36.695,26.308,36.898,26.308,37.101z"/>
		<path fill="#0FAF9C" d="M19.959,26.425c0.544-0.935,0.522-1.922,0.379-2.962c-0.113-0.821-0.48-1.469-0.967-2.092
			c-0.142-0.182-0.337-0.288-0.513-0.423c-0.754-0.579-1.57-1.033-2.516-1.202c-0.634-0.113-1.27-0.243-1.922-0.16
			c0-0.225,0-0.451,0-0.676c0.433-0.091,0.864-0.034,1.292,0.037c0.176,0.029,0.349,0.097,0.527,0.114
			c1.258,0.126,2.293,0.739,3.271,1.481c0.036,0.027,0.072,0.055,0.101,0.089c0.727,0.84,1.366,1.707,1.518,2.873
			c0.151,1.163,0.064,2.259-0.514,3.294C20.299,26.846,20.118,26.655,19.959,26.425z"/>
		<path fill="#05AB9C" d="M49.57,33.111c-0.217-0.024-0.433,0.03-0.627,0.096c-0.981,0.333-1.93,0.698-2.749,1.4
			c-0.827,0.708-1.375,1.542-1.685,2.562c-0.039,0.273-0.192,0.49-0.354,0.699c-0.05,0.064-0.104,0.198-0.228,0.076
			c-0.076-0.206,0.04-0.392,0.061-0.588c0.073-0.678,0.22-1.339,0.439-1.984c0.605-0.999,1.368-1.843,2.304-2.558
			c0.763-0.583,1.673-0.749,2.522-1.088c0.105-0.042,0.22-0.06,0.317,0.032C49.57,32.209,49.57,32.66,49.57,33.111z"/>
		<path fill="#00A79B" d="M14.42,22.224c0.5-0.055,1.007-0.044,1.497-0.175c0.241-0.064,0.439-0.01,0.618,0.162
			c0.243,0.232,0.544,0.369,0.87,0.413c0.66,0.091,1.053,0.613,0.91,1.258c-0.1,0.448-0.214,0.892-0.321,1.338
			c-0.136,0.061-0.238-0.023-0.34-0.086c-0.99-0.613-1.993-1.205-2.986-1.815c-0.098-0.06-0.179-0.133-0.246-0.224
			C14.421,22.804,14.421,22.514,14.42,22.224z"/>
		<path fill="#21B69C" d="M22.397,27.901c-0.003-0.275,0.194-0.473,0.276-0.717c0.338-0.996,0.499-1.995,0.422-3.065
			c-0.078-1.091-0.387-2.09-0.846-3.054c-0.449-0.943-1.061-1.816-1.89-2.423c-0.841-0.616-1.676-1.325-2.806-1.442
			c-0.451-0.047-0.884-0.259-1.335-0.327c-0.595-0.089-1.189-0.221-1.798-0.196c0-0.068,0-0.135,0-0.203
			c0.089-0.087,0.205-0.1,0.316-0.085c0.455,0.062,0.914,0.09,1.37,0.139c0.676,0.073,1.313,0.292,1.974,0.408
			c0.327,0.058,0.609,0.221,0.907,0.352c1.079,0.474,1.977,1.154,2.735,2.071c0.507,0.614,0.861,1.311,1.304,1.957
			c0.348,0.679,0.531,1.406,0.646,2.155c0.204,1.325,0.118,2.624-0.352,3.887c-0.106,0.285-0.224,0.565-0.408,0.81
			C22.651,28.25,22.49,28.14,22.397,27.901z"/>
		<path fill="#36BF9C" d="M14.421,13.094c0.306,0.044,0.6-0.082,0.904-0.067c1.084,0.053,2.164,0.149,3.245,0.247
			c0.712,0.064,1.4,0.17,2.065,0.42c0.983,0.368,1.871,0.85,2.563,1.696c0.822,1.005,1.343,2.151,1.858,3.321
			c0.414,0.941,0.858,1.872,1.201,2.84c0.237,0.669,0.432,1.362,0.545,2.074c0.07,0.441,0.161,0.886,0.171,1.327
			c0.014,0.578-0.095,1.158-0.131,1.736c-0.058,0.933-0.521,1.733-0.745,2.609c-0.057,0.224-0.174,0.492-0.462,0.573
			c-0.153,0.065-0.206-0.025-0.235-0.151c0.27-0.593,0.509-1.197,0.722-1.814c0.223-0.647,0.311-1.316,0.364-1.984
			c0.162-2.014-0.373-3.897-1.152-5.73c-0.484-1.138-0.984-2.268-1.591-3.346c-0.519-0.921-1.161-1.775-2.108-2.271
			c-0.999-0.524-2.061-0.919-3.215-1.014c-0.542-0.044-1.082-0.143-1.623-0.224c-0.667-0.1-1.342-0.068-2.014-0.073
			c-0.121-0.001-0.247,0.035-0.363-0.031C14.421,13.185,14.421,13.14,14.421,13.094z"/>
		<path fill="#04998E" d="M37.75,18.842c0.182-0.014,0.321,0.095,0.468,0.17c1.429,0.733,2.855,1.471,4.283,2.206
			c1.587,0.817,3.183,1.619,4.76,2.457c0.764,0.406,1.544,0.78,2.309,1.183c0,0.181,0,0.362,0,0.544
			c-0.135,0.112-0.26,0.027-0.374-0.033c-1.792-0.942-3.605-1.841-5.395-2.787c-0.875-0.462-1.76-0.906-2.642-1.355
			c-1.092-0.556-2.164-1.152-3.273-1.676c-0.052-0.024-0.093-0.062-0.135-0.1C37.75,19.248,37.75,19.045,37.75,18.842z"/>
		<path fill="#3CC29C" d="M35.18,35.679c0.216-0.225,0.46-0.434,0.591-0.721c0.282-0.616,0.632-1.191,1.042-1.724
			c0.404-0.526,0.514-1.164,0.739-1.758c0.445-1.174,0.758-2.393,1.196-3.57c0.608-1.634,1.339-3.21,2.18-4.736
			c0.03-0.055,0.093-0.093,0.14-0.138c0.041-0.039,0.089-0.041,0.14-0.027c0.09,0.048,0.185,0.091,0.216,0.202
			c-0.166,0.505-0.458,0.947-0.705,1.411c-0.328,0.615-0.601,1.254-0.874,1.895c-0.707,1.659-1.129,3.411-1.692,5.117
			c-0.37,1.121-0.856,2.173-1.506,3.153c-0.217,0.328-0.447,0.648-0.619,1.004c-0.054,0.112-0.121,0.218-0.253,0.256
			C35.577,35.921,35.379,35.8,35.18,35.679z"/>
		<path fill="#039D92" d="M49.577,47.582c-0.394,0.007-0.694-0.246-1.026-0.393c-1.591-0.702-3.166-1.438-4.749-2.159
			c-1.96-0.892-3.922-1.781-5.885-2.668c-0.069-0.031-0.15-0.037-0.226-0.054c-0.094-0.178-0.023-0.369-0.045-0.552
			c0.097-0.188,0.232-0.079,0.34-0.029c1.032,0.474,2.069,0.94,3.103,1.411c1.832,0.835,3.668,1.661,5.501,2.494
			c0.922,0.419,1.848,0.827,2.761,1.264c0.082,0.039,0.162,0.079,0.225,0.145C49.577,47.222,49.577,47.402,49.577,47.582z"/>
		<path fill="#43C59D" d="M34.295,35.149c0.102-0.56,0.482-0.978,0.742-1.458c0.431-0.795,0.983-1.533,1.194-2.433
			c0.178-0.759,0.292-1.534,0.502-2.283c0.307-1.097,0.624-2.192,1.02-3.264c0.401-1.085,0.972-2.087,1.474-3.122
			c0.087-0.179,0.229-0.33,0.345-0.494c0.295-0.065,0.458,0.105,0.592,0.329c0.016,0.122-0.054,0.213-0.108,0.312
			c-0.752,1.382-1.491,2.768-2.093,4.229c-0.373,0.904-0.547,1.852-0.834,2.773c-0.235,0.753-0.413,1.517-0.6,2.28
			c-0.096,0.391-0.404,0.672-0.626,0.994c-0.447,0.65-0.882,1.305-1.272,1.991c-0.05,0.087-0.092,0.183-0.202,0.214
			C34.376,35.211,34.32,35.211,34.295,35.149z"/>
		<path fill="#05948A" d="M37.75,19.451c0.612,0.17,1.138,0.525,1.702,0.798c0.08,0.039,0.152,0.096,0.232,0.137
			c1.323,0.674,2.648,1.344,3.969,2.02c1.571,0.804,3.141,1.611,4.709,2.422c0.397,0.205,0.759,0.481,1.209,0.573
			c0,0.202,0,0.404,0,0.606c-0.196,0.067-0.35-0.048-0.505-0.129c-2.224-1.163-4.458-2.305-6.691-3.451
			c-1.431-0.735-2.853-1.49-4.293-2.207c-0.121-0.06-0.244-0.117-0.331-0.227C37.75,19.812,37.75,19.631,37.75,19.451z"/>
		<path fill="#078C83" d="M26.308,36.492c-0.614-0.278-1.171-0.657-1.75-0.996c-1.8-1.052-3.59-2.122-5.383-3.187
			c-1.108-0.659-2.206-1.335-3.323-1.978c-0.474-0.273-0.917-0.605-1.432-0.805c0-0.18,0-0.361,0-0.541
			c0.23-0.106,0.387,0.068,0.549,0.165c0.967,0.575,1.935,1.15,2.905,1.722c2.675,1.579,5.34,3.175,8.02,4.747
			c0.152,0.089,0.333,0.149,0.415,0.329C26.308,36.13,26.308,36.311,26.308,36.492z"/>
		<path fill="#09AE9C" d="M49.57,31.758c-0.512,0.039-0.945,0.334-1.442,0.432c-0.717,0.141-1.261,0.62-1.807,1.053
			c-0.73,0.58-1.289,1.329-1.811,2.098c-0.102,0.276-0.276,0.51-0.442,0.749c-0.334,0.48-0.626,0.985-0.902,1.5
			c-0.046,0.086-0.069,0.234-0.233,0.176c-0.093-0.239,0.042-0.442,0.124-0.642c0.363-0.881,0.66-1.793,1.18-2.603
			c0.783-1.056,1.664-2.009,2.706-2.827c0.493-0.387,1.005-0.711,1.562-0.974c0.333-0.157,0.695-0.229,1.065-0.246
			C49.57,30.903,49.57,31.331,49.57,31.758z"/>
		<path fill="#18B39C" d="M14.421,17.422c0.869-0.053,1.736,0.003,2.562,0.27c0.951,0.307,1.87,0.649,2.712,1.268
			c1.01,0.742,1.716,1.684,2.237,2.755c0.308,0.632,0.496,1.348,0.555,2.096c0.072,0.922-0.019,1.805-0.225,2.693
			c-0.087,0.376-0.344,0.684-0.407,1.067c-0.232,0.026-0.383-0.079-0.467-0.291c-0.022-0.13,0.032-0.241,0.082-0.356
			c0.6-1.374,0.646-2.773,0.247-4.214c-0.293-1.056-0.925-1.885-1.616-2.693c-0.464-0.542-1.061-0.889-1.663-1.242
			c-0.967-0.568-2.069-0.655-3.126-0.905c-0.292-0.069-0.611,0.07-0.89-0.108C14.421,17.648,14.421,17.535,14.421,17.422z"/>
		<path fill="#009F9B" d="M46.669,42.647c0.232-0.047,0.354-0.231,0.472-0.404c0.333-0.488,0.757-0.888,1.223-1.239
			c0.35-0.264,0.805-0.253,1.206-0.388c0.002,1.261,0.004,2.523,0.007,3.784c-0.127,0.11-0.226,0.02-0.331-0.045
			c-0.342-0.214-0.681-0.434-1.039-0.623c-0.494-0.247-0.924-0.596-1.395-0.88C46.739,42.81,46.65,42.762,46.669,42.647z"/>
		<path fill="#09847B" d="M26.309,34.935c0,0.158,0,0.317-0.001,0.475c-0.176,0.1-0.301-0.032-0.428-0.107
			c-1.949-1.145-3.892-2.303-5.836-3.457c-1.76-1.045-3.525-2.082-5.283-3.131c-0.126-0.075-0.25-0.151-0.341-0.27
			c0-0.18,0-0.36,0-0.54c0.15-0.056,0.26,0.041,0.373,0.107c2.056,1.216,4.11,2.435,6.164,3.655c1.666,0.99,3.336,1.974,5.002,2.963
			C26.094,34.71,26.241,34.777,26.309,34.935z"/>
		<path fill="#43C49D" d="M28.207,31.433c0.455-0.667,0.732-1.428,0.959-2.181c0.259-0.858,0.495-1.725,0.563-2.649
			c0.1-1.357-0.122-2.652-0.445-3.938c-0.182-0.724-0.525-1.406-0.755-2.12c-0.251-0.78-0.722-1.476-0.878-2.287
			c-0.199-1.029-0.302-2.062,0.101-3.074c0.033-0.082,0.055-0.176,0.165-0.194c0.122,0.087,0.244,0.175,0.367,0.262
			c-0.387,0.862-0.375,1.742-0.251,2.668c0.152,1.137,0.646,2.141,1.052,3.178c0.387,0.987,0.66,2.007,0.853,3.035
			c0.154,0.822,0.164,1.675,0.143,2.529c-0.023,0.934-0.303,1.803-0.497,2.687c-0.143,0.654-0.483,1.278-0.813,1.881
			c-0.076,0.138-0.153,0.275-0.229,0.412C28.416,31.594,28.298,31.534,28.207,31.433z"/>
		<path fill="#3BC29C" d="M35.775,36.043c0.511-0.843,1.045-1.674,1.528-2.533c0.565-1.005,0.831-2.129,1.176-3.217
			c0.442-1.396,0.834-2.809,1.414-4.155c0.332-0.769,0.679-1.538,1.137-2.248c0.145-0.224,0.246-0.476,0.368-0.715
			c0.255-0.008,0.442,0.092,0.541,0.336c-0.271,0.541-0.516,1.096-0.819,1.619c-0.416,0.718-0.754,1.47-1.064,2.236
			c-0.516,1.277-1.042,2.55-1.514,3.843c-0.264,0.724-0.503,1.457-0.867,2.138c-0.27,0.503-0.554,1-0.871,1.473
			c-0.293,0.437-0.54,0.901-0.826,1.342C35.884,36.166,35.829,36.105,35.775,36.043z"/>
		<path fill="#2CBA9C" d="M23.949,28.858c0.053-0.403,0.34-0.706,0.462-1.078c0.256-0.784,0.408-1.577,0.458-2.415
			c0.054-0.892-0.077-1.739-0.242-2.593c-0.2-1.036-0.651-1.978-1.119-2.914c-0.357-0.713-0.788-1.38-1.297-1.992
			c-0.437-0.525-0.972-0.94-1.515-1.358c-0.57-0.438-1.223-0.688-1.864-0.898c-0.688-0.226-1.396-0.455-2.148-0.501
			c-0.754-0.046-1.506-0.123-2.263-0.121c0-0.136,0-0.271,0-0.407c0.191-0.263,0.466-0.152,0.705-0.139
			c0.185,0.011,0.372,0.047,0.56,0.059c0.037,0.004,0.074,0.012,0.11,0.022c0.879,0.044,1.734,0.231,2.583,0.45
			c1.918,0.493,3.454,1.519,4.563,3.185c0.368,0.553,0.738,1.107,0.995,1.712c0.769,1.811,1.409,3.659,1.255,5.678
			c-0.085,1.114-0.366,2.171-0.886,3.162c-0.048,0.091-0.098,0.178-0.193,0.229C24.036,28.957,23.961,28.97,23.949,28.858z"/>
		<path fill="#08887F" d="M14.42,28.445c0.766,0.442,1.535,0.877,2.296,1.327c1.796,1.06,3.588,2.126,5.381,3.191
			c1.272,0.756,2.542,1.515,3.816,2.268c0.124,0.073,0.264,0.12,0.396,0.179c0,0.18,0,0.359,0,0.539
			c-1.324-0.777-2.65-1.552-3.971-2.333c-1.784-1.055-3.565-2.116-5.347-3.175c-0.684-0.406-1.364-0.819-2.051-1.221
			c-0.163-0.096-0.326-0.201-0.519-0.234C14.42,28.806,14.42,28.625,14.42,28.445z"/>
		<path fill="#0CAF9C" d="M49.57,30.476c-0.571,0.213-1.164,0.35-1.712,0.653c-0.461,0.255-0.784,0.66-1.229,0.923
			c-0.337,0.199-0.56,0.544-0.845,0.804c-0.558,0.508-0.998,1.107-1.479,1.675c-0.244,0.326-0.596,0.5-0.947,0.676
			c0.186-0.574,0.555-1.043,0.89-1.53c0.386-0.564,0.845-1.071,1.313-1.565c0.406-0.428,0.862-0.807,1.284-1.22
			c0.45-0.44,1.002-0.744,1.486-1.141c0.343-0.282,0.813-0.356,1.238-0.495C49.57,29.663,49.57,30.069,49.57,30.476z"/>
		<path fill="#0B7E76" d="M26.309,34.935c-1.646-0.98-3.29-1.963-4.938-2.94c-1.754-1.04-3.51-2.076-5.266-3.111
			c-0.56-0.33-1.124-0.653-1.686-0.979c0-0.158,0-0.316,0-0.474c0.165-0.104,0.275,0.027,0.394,0.097
			c1.728,1.033,3.463,2.054,5.194,3.083c2.011,1.195,4.028,2.381,6.036,3.582c0.097,0.058,0.197,0.109,0.266,0.202
			C26.309,34.576,26.309,34.755,26.309,34.935z"/>
		<path fill="#43C49D" d="M19.082,9.6c-0.25,0.402-0.582,0.676-1.058,0.796c-0.781,0.198-1.57,0.216-2.366,0.196
			c-0.414-0.01-0.827-0.001-1.238,0.068c0-0.406,0-0.811,0-1.217c0.332-0.146,0.69-0.223,1.041-0.199
			c0.731,0.051,1.402-0.05,1.975-0.544c0.025-0.021,0.059-0.031,0.09-0.045C18.045,8.97,18.564,9.285,19.082,9.6z"/>
		<path fill="#3DC29C" d="M26.793,30.584c0.257-0.682,0.593-1.332,0.794-2.036c0.132-0.462,0.268-0.923,0.287-1.408
			c0.017-0.447,0.133-0.882,0.145-1.333c0.018-0.661-0.061-1.314-0.12-1.967c-0.112-1.255-0.598-2.41-1.072-3.555
			c-0.519-1.252-0.958-2.529-1.353-3.822c-0.189-0.618-0.335-1.249-0.491-1.877c-0.026-0.106-0.041-0.239,0-0.333
			c0.137-0.318,0.163-0.644,0.128-0.981c0.18,0.119,0.36,0.239,0.54,0.358c-0.005,0.045,0.017-0.008,0.002,0.033
			c-0.366,0.99-0.018,1.93,0.217,2.872c0.344,1.379,0.867,2.693,1.44,3.992c0.339,0.769,0.661,1.557,0.856,2.377
			c0.139,0.585,0.259,1.178,0.289,1.791c0.049,1.006,0.003,2.001-0.209,2.981c-0.207,0.956-0.474,1.899-0.928,2.776
			c-0.07,0.135-0.117,0.314-0.339,0.229C26.916,30.65,26.854,30.617,26.793,30.584z"/>
		<path fill="#33BE9C" d="M14.421,13.23c1.765-0.044,3.515,0.118,5.238,0.482c0.861,0.182,1.691,0.52,2.418,1.029
			c0.492,0.345,0.909,0.793,1.252,1.297c1.149,1.692,1.902,3.578,2.615,5.474c0.385,1.024,0.6,2.104,0.65,3.211
			c0.074,1.631-0.239,3.176-0.943,4.645c-0.063,0.131-0.145,0.253-0.218,0.379c-0.15,0.051-0.224-0.026-0.265-0.158
			c0.36-0.798,0.712-1.604,0.887-2.464c0.087-0.427,0.202-0.858,0.144-1.316c-0.031-0.244,0.049-0.507,0.054-0.766
			c0.022-1.133-0.241-2.216-0.533-3.299c-0.222-0.824-0.501-1.634-0.862-2.397c-0.698-1.473-1.344-2.995-2.565-4.144
			c-0.362-0.341-0.785-0.603-1.257-0.813c-0.532-0.237-1.104-0.339-1.629-0.584c-0.413-0.192-0.878-0.149-1.317-0.228
			c-1.213-0.219-2.436-0.332-3.671-0.279C14.421,13.275,14.421,13.252,14.421,13.23z"/>
		<path fill="#12AF9C" d="M20.571,26.803c0.006-0.25,0.187-0.429,0.261-0.652c0.295-0.883,0.37-1.779,0.186-2.698
			c-0.09-0.452-0.153-0.915-0.393-1.314c-0.671-1.12-1.546-1.997-2.785-2.517c-0.957-0.402-1.939-0.576-2.956-0.645
			c-0.156-0.011-0.31-0.043-0.464-0.066c0-0.203,0-0.406,0-0.609c0.33-0.182,0.668-0.031,0.984,0.018
			c0.621,0.097,1.233,0.262,1.844,0.412c0.475,0.117,0.928,0.362,1.348,0.609c1.026,0.601,1.876,1.407,2.387,2.505
			c0.323,0.695,0.532,1.423,0.57,2.205c0.04,0.825-0.102,1.61-0.347,2.386c-0.064,0.203-0.136,0.409-0.333,0.533
			C20.725,27.001,20.615,26.961,20.571,26.803z"/>
		<path fill="#42C49D" d="M34.429,35.218c0.473-0.959,1.102-1.82,1.713-2.691c0.163-0.233,0.31-0.461,0.371-0.742
			c0.132-0.61,0.235-1.222,0.47-1.813c0.205-0.515,0.307-1.074,0.415-1.622c0.163-0.822,0.512-1.578,0.864-2.319
			c0.567-1.191,1.111-2.399,1.832-3.511c0.017-0.026,0.014-0.065,0.021-0.098c0.135-0.035,0.222,0.018,0.269,0.146
			c-0.644,0.849-0.991,1.856-1.483,2.785c-0.413,0.779-0.662,1.626-0.912,2.461c-0.208,0.693-0.39,1.4-0.578,2.102
			c-0.205,0.768-0.319,1.565-0.629,2.298c-0.176,0.417-0.469,0.787-0.729,1.165c-0.383,0.556-0.68,1.163-1.039,1.732
			c-0.069,0.11-0.115,0.25-0.255,0.304C34.631,35.38,34.519,35.317,34.429,35.218z"/>
		<path fill="#2DBD9C" d="M37.274,36.959c0.279-0.703,0.725-1.315,1.076-1.979c0.471-0.893,0.891-1.81,1.327-2.719
			c0.325-0.677,0.583-1.38,0.893-2.062c0.286-0.631,0.523-1.289,0.842-1.904c0.651-1.253,1.281-2.519,2.045-3.711
			c0.023-0.036,0.026-0.085,0.038-0.127c0.268-0.017,0.451,0.111,0.58,0.335c-0.108,0.525-0.471,0.915-0.737,1.354
			c-0.478,0.79-0.933,1.592-1.39,2.394c-0.558,0.98-0.995,2.017-1.484,3.029c-0.656,1.357-1.348,2.697-2.158,3.972
			c-0.253,0.399-0.466,0.824-0.727,1.218c-0.061,0.093-0.086,0.247-0.257,0.217C37.304,36.978,37.287,36.972,37.274,36.959z"/>
		<path fill="#26B89C" d="M14.421,15.394c1.119-0.067,2.215,0.079,3.298,0.348c0.882,0.219,1.708,0.546,2.49,1.038
			c0.96,0.603,1.775,1.334,2.356,2.294c0.545,0.901,1.018,1.839,1.361,2.849c0.318,0.937,0.466,1.893,0.486,2.861
			c0.025,1.275-0.197,2.515-0.903,3.622c-0.027,0.043-0.02,0.108-0.029,0.163c-0.144,0.047-0.196-0.044-0.233-0.157
			c0.001-0.129,0.064-0.238,0.122-0.347c0.833-1.578,0.915-3.244,0.576-4.958c-0.354-1.791-1.192-3.352-2.386-4.703
			c-0.645-0.73-1.475-1.264-2.369-1.692c-0.91-0.435-1.895-0.537-2.857-0.752c-0.463-0.104-0.929-0.161-1.405-0.143
			c-0.18,0.007-0.36-0.025-0.506-0.151C14.421,15.574,14.421,15.484,14.421,15.394z"/>
		<path fill="#2DBC9C" d="M14.421,14.312c0.447-0.111,0.884-0.067,1.327,0.044c0.36,0.09,0.735,0.018,1.106,0.062
			c0.415,0.05,0.81,0.167,1.216,0.242c0.537,0.099,1.085,0.174,1.593,0.397c0.865,0.38,1.72,0.776,2.371,1.495
			c0.9,0.993,1.707,2.057,2.24,3.29c0.527,1.222,1.026,2.464,1.215,3.794c0.098,0.686,0.07,1.379,0.05,2.076
			c-0.024,0.805-0.291,1.535-0.462,2.294c-0.097,0.432-0.337,0.808-0.523,1.204c-0.109,0.037-0.179-0.01-0.23-0.103
			c-0.024-0.08-0.006-0.158,0.028-0.229c0.289-0.601,0.484-1.234,0.67-1.873c0.099-0.342,0.115-0.686,0.16-1.03
			c0.159-1.198,0.04-2.371-0.29-3.534c-0.326-1.152-0.763-2.262-1.334-3.305c-0.545-0.995-1.227-1.911-2.125-2.633
			c-0.832-0.668-1.765-1.147-2.798-1.425c-0.94-0.253-1.886-0.47-2.865-0.498c-0.44-0.143-0.902-0.059-1.349-0.135
			C14.421,14.402,14.421,14.357,14.421,14.312z"/>
		<path fill="#12635E" d="M14.419,25.673c0-0.158,0-0.315,0-0.473c0.122-0.055,0.22,0.017,0.314,0.072
			c1.647,0.971,3.29,1.948,4.934,2.924c1.257,0.746,2.518,1.487,3.774,2.235c0.86,0.512,1.728,1.011,2.583,1.532
			c0.117,0.071,0.228,0.144,0.294,0.27c0,0.135,0,0.271,0,0.406c-0.196,0.099-0.319-0.064-0.451-0.144
			c-1.673-1.017-3.367-1.998-5.047-3.001c-1.786-1.067-3.584-2.117-5.369-3.186C15.104,26.099,14.732,25.932,14.419,25.673z"/>
		<path fill="#3EC29C" d="M26.978,30.683c0.111-0.01,0.172-0.066,0.223-0.172c0.338-0.699,0.568-1.434,0.795-2.174
			c0.266-0.865,0.378-1.761,0.392-2.647c0.012-0.738-0.022-1.492-0.19-2.236c-0.289-1.279-0.785-2.478-1.313-3.663
			c-0.652-1.464-1.073-2.996-1.426-4.548c-0.122-0.539-0.175-1.111,0.19-1.612c0.188,0.03,0.332,0.14,0.471,0.258
			c-0.22,0.882-0.017,1.74,0.086,2.618c0.15,1.282,0.601,2.456,1.061,3.634c0.339,0.867,0.714,1.718,0.955,2.621
			c0.296,1.11,0.432,2.22,0.355,3.383c-0.08,1.205-0.369,2.341-0.752,3.465c-0.147,0.432-0.371,0.838-0.56,1.256
			C27.156,30.827,27.054,30.776,26.978,30.683z"/>
		<path fill="#23B79C" d="M22.865,28.189c0.158-0.443,0.394-0.855,0.518-1.313c0.515-1.898,0.359-3.741-0.446-5.532
			c-0.576-1.322-1.435-2.445-2.535-3.358c-1.098-0.911-2.418-1.366-3.823-1.558c-0.656-0.09-1.308-0.234-1.977-0.212
			c-0.069,0.002-0.131-0.03-0.182-0.079c0-0.09,0-0.18,0-0.27c0.358-0.153,0.734-0.084,1.092-0.041
			c1.003,0.12,2.004,0.287,2.966,0.598c0.78,0.252,1.494,0.656,2.153,1.159c0.745,0.568,1.35,1.254,1.853,2.034
			c0.491,0.76,0.855,1.581,1.145,2.438c0.374,1.106,0.495,2.248,0.4,3.397c-0.083,1.01-0.279,2.01-0.912,2.857
			C22.992,28.356,22.901,28.332,22.865,28.189z"/>
		<path fill="#46C59D" d="M17.527,8.656c-0.08,0.251-0.31,0.378-0.511,0.451c-0.478,0.173-0.97,0.344-1.502,0.219
			c-0.225-0.053-0.438,0.063-0.658,0.093c-0.144,0.02-0.291,0.017-0.436,0.024c0-0.875,0-1.749,0-2.697
			C15.479,7.397,16.503,8.026,17.527,8.656z"/>
		<path fill="#068F85" d="M37.75,19.992c0.749,0.311,1.459,0.701,2.179,1.071c0.08,0.041,0.152,0.096,0.232,0.137
			c1.324,0.675,2.651,1.345,3.974,2.022c1.523,0.78,3.045,1.561,4.562,2.351c0.289,0.15,0.564,0.326,0.873,0.434
			c0,0.135,0,0.271,0,0.406c-0.17,0.063-0.311-0.024-0.444-0.102c-0.876-0.51-1.797-0.936-2.697-1.398
			c-2.073-1.064-4.136-2.145-6.215-3.196c-0.733-0.37-1.461-0.75-2.194-1.122c-0.101-0.051-0.197-0.108-0.27-0.197
			C37.75,20.262,37.75,20.127,37.75,19.992z"/>
		<path fill="#04998E" d="M49.577,47.041c-0.359-0.032-0.646-0.254-0.96-0.393c-1.387-0.612-2.758-1.262-4.139-1.888
			c-2.046-0.927-4.095-1.847-6.143-2.769c-0.215-0.097-0.429-0.195-0.643-0.292c-0.09-0.113-0.028-0.245-0.044-0.367
			c0.136-0.151,0.272-0.038,0.39,0.017c1.276,0.594,2.564,1.16,3.844,1.744c1.864,0.85,3.731,1.692,5.594,2.544
			c0.705,0.322,1.437,0.59,2.101,0.997C49.577,46.771,49.577,46.906,49.577,47.041z"/>
		<path fill="#106A64" d="M14.419,25.673c0.7,0.238,1.271,0.708,1.902,1.07c1.498,0.861,2.983,1.744,4.469,2.625
			c1.177,0.698,2.339,1.422,3.525,2.104c0.669,0.385,1.301,0.835,2.002,1.166c0,0.135,0,0.27,0,0.405
			c-0.14,0.058-0.234-0.042-0.337-0.103c-2.254-1.335-4.505-2.674-6.759-4.008c-1.451-0.859-2.897-1.727-4.354-2.576
			c-0.162-0.094-0.35-0.163-0.448-0.344C14.419,25.898,14.419,25.785,14.419,25.673z"/>
		<path fill="#14B19C" d="M20.839,26.964c0.338-0.483,0.434-1.046,0.547-1.609c0.209-1.042,0.047-2.044-0.281-3.031
			c-0.183-0.551-0.535-1.007-0.861-1.477c-0.428-0.615-1.033-1.056-1.658-1.4c-0.512-0.282-1.039-0.606-1.661-0.694
			c-0.718-0.102-1.404-0.379-2.135-0.431c-0.123-0.009-0.246-0.015-0.37-0.022c0-0.045,0-0.09,0-0.135
			c0.112-0.102,0.25-0.1,0.384-0.08c0.246,0.037,0.498,0.026,0.739,0.07c1.385,0.25,2.77,0.478,3.931,1.392
			c1.478,1.163,2.345,2.629,2.481,4.524c0.052,0.718-0.019,1.418-0.19,2.103c-0.093,0.374-0.171,0.796-0.549,1.038
			C21.052,27.19,20.884,27.17,20.839,26.964z"/>
		<path fill="#05958B" d="M49.577,46.636c-0.325-0.025-0.588-0.218-0.87-0.345c-2.131-0.958-4.251-1.94-6.378-2.907
			c-1.543-0.702-3.091-1.394-4.637-2.09c-0.087-0.094-0.03-0.207-0.042-0.31c0.111-0.149,0.242-0.076,0.36-0.021
			c1.246,0.576,2.498,1.137,3.749,1.701c1.887,0.851,3.767,1.715,5.653,2.567c0.646,0.292,1.292,0.583,1.935,0.882
			c0.093,0.043,0.184,0.086,0.231,0.185C49.578,46.41,49.578,46.523,49.577,46.636z"/>
		<path fill="#2CBB9C" d="M37.322,36.975c0.448-0.589,0.765-1.259,1.148-1.888c0.302-0.496,0.631-0.976,0.877-1.506
			c0.39-0.842,0.863-1.642,1.238-2.494c0.441-1.002,0.945-1.976,1.472-2.938c0.625-1.14,1.372-2.207,1.978-3.358
			c0.083-0.025,0.132,0.017,0.168,0.084c0.035,0.147-0.04,0.265-0.11,0.378c-0.766,1.235-1.447,2.518-2.129,3.799
			c-0.39,0.734-0.715,1.503-1.067,2.257c-0.405,0.865-0.767,1.752-1.241,2.585c-0.167,0.293-0.304,0.602-0.441,0.912
			c-0.346,0.784-0.789,1.516-1.246,2.239c-0.061,0.096-0.14,0.179-0.271,0.175c-0.034-0.006-0.065-0.02-0.094-0.039
			C37.512,37.112,37.417,37.044,37.322,36.975z"/>
		<path fill="#155450" d="M14.418,24.591c0-0.113,0-0.225,0-0.338c0.182-0.102,0.298,0.051,0.422,0.125
			c1.661,0.993,3.329,1.974,4.993,2.961c2.1,1.245,4.194,2.5,6.302,3.731c0.069,0.041,0.126,0.093,0.182,0.149
			c0,0.113,0,0.225,0,0.338c-0.211,0.099-0.374-0.04-0.526-0.134c-1.791-1.107-3.617-2.156-5.425-3.235
			c-1.866-1.113-3.738-2.217-5.606-3.327C14.633,24.785,14.51,24.708,14.418,24.591z"/>
		<path fill="#1A423F" d="M20.839,26.964c0.114,0.065,0.228,0.13,0.342,0.195c0.081,0.063,0.226,0.021,0.26,0.16
			c0.111,0.127,0.271,0.175,0.414,0.251c0.181,0.11,0.362,0.221,0.543,0.331c0.14,0.122,0.3,0.212,0.468,0.288
			c0.068,0.044,0.135,0.087,0.203,0.131c0.101-0.012,0.166,0.034,0.208,0.122c0.067,0.042,0.135,0.084,0.202,0.126
			c0.157,0.097,0.314,0.194,0.471,0.291c0.025,0.059,0.081,0.061,0.132,0.072c0.145-0.026,0.204,0.086,0.276,0.174
			c0.065,0.036,0.13,0.071,0.195,0.107c0.11,0.129,0.266,0.182,0.413,0.25c0.068,0.043,0.136,0.085,0.204,0.128
			c0.088,0.053,0.176,0.105,0.265,0.158c0.05,0.069,0.117,0.11,0.202,0.12c0.093,0.061,0.185,0.122,0.278,0.183
			c0.135,0.095,0.27,0.191,0.405,0.286c0,0.046-0.001,0.092-0.001,0.137c-0.157,0.121-0.277-0.001-0.397-0.07
			c-1.245-0.721-2.476-1.468-3.715-2.199c-2.44-1.439-4.876-2.886-7.311-4.334c-0.171-0.102-0.369-0.174-0.477-0.362
			c0.002-0.138,0.003-0.276,0.005-0.415c1.092,0.657,2.184,1.314,3.276,1.969c0.095,0.057,0.197,0.104,0.296,0.156
			c0.386,0.238,0.771,0.475,1.157,0.712c0.27,0.164,0.539,0.329,0.809,0.493c0.204,0.126,0.408,0.252,0.612,0.378
			C20.66,26.856,20.75,26.91,20.839,26.964z"/>
		<path fill="#25B89C" d="M23.276,28.442c-0.069-0.041-0.139-0.082-0.208-0.122c0.78-1.328,0.991-2.783,0.873-4.284
			c-0.102-1.293-0.519-2.504-1.119-3.659c-0.38-0.733-0.826-1.429-1.414-1.985c-0.717-0.677-1.481-1.297-2.444-1.673
			c-1.075-0.42-2.178-0.62-3.302-0.792c-0.416-0.064-0.828-0.042-1.241-0.059c0-0.068,0-0.135,0-0.203
			c1.038,0.071,2.058,0.242,3.082,0.431c1.12,0.206,2.115,0.647,3.017,1.288c0.614,0.437,1.193,0.938,1.633,1.581
			c0.668,0.978,1.278,1.985,1.621,3.122c0.313,1.04,0.492,2.098,0.425,3.207C24.129,26.427,23.823,27.462,23.276,28.442z"/>
		<path fill="#0A8078" d="M49.578,44.81c0,0.112,0,0.225,0,0.337c-0.217,0.051-0.401-0.071-0.572-0.155
			c-1.05-0.513-2.129-0.961-3.189-1.449c-1.113-0.513-2.223-1.032-3.348-1.521c-0.854-0.371-1.697-0.77-2.544-1.159
			c-0.601-0.276-1.201-0.557-1.817-0.8c-0.157-0.062-0.31-0.133-0.44-0.245c-0.033-0.066-0.018-0.137-0.022-0.206
			c0-0.052-0.003-0.105,0.021-0.153c0.156-0.061,0.287,0.023,0.418,0.079c1.104,0.48,2.194,0.988,3.292,1.482
			c1.652,0.743,3.297,1.499,4.947,2.245c0.994,0.449,1.983,0.912,2.984,1.347C49.413,44.658,49.505,44.721,49.578,44.81z"/>
		<path fill="#145955" d="M14.418,24.591c0.766,0.442,1.537,0.878,2.299,1.328c1.012,0.597,2.02,1.2,3.025,1.808
			c1.196,0.725,2.402,1.434,3.606,2.144c0.933,0.55,1.839,1.15,2.81,1.636c0.049,0.025,0.106,0.033,0.16,0.049
			c0,0.113,0,0.225,0,0.338c-0.137,0.094-0.236-0.015-0.335-0.074c-1.461-0.865-2.93-1.716-4.383-2.594
			c-0.298-0.18-0.613-0.332-0.904-0.524c-0.583-0.384-1.188-0.73-1.8-1.066c-0.028-0.016-0.055-0.034-0.081-0.053
			c-1.102-0.665-2.212-1.317-3.322-1.969c-0.366-0.215-0.743-0.415-1.074-0.686C14.418,24.816,14.418,24.703,14.418,24.591z"/>
		<path fill="#17B19C" d="M21.441,27.319c-0.096-0.037-0.193-0.074-0.26-0.16c0.333-0.216,0.391-0.593,0.484-0.921
			c0.315-1.119,0.304-2.25,0.006-3.376c-0.256-0.968-0.766-1.78-1.443-2.515c-0.752-0.816-1.661-1.403-2.702-1.688
			c-0.744-0.203-1.512-0.413-2.303-0.428c-0.268-0.005-0.531-0.098-0.803-0.065c0-0.135,0-0.271,0-0.406
			c0.919-0.054,1.786,0.227,2.674,0.392c0.58,0.108,1.091,0.357,1.572,0.639c0.541,0.317,1.088,0.648,1.503,1.158
			c0.516,0.634,1.058,1.249,1.378,2.008c0.437,1.037,0.62,2.112,0.465,3.248c-0.092,0.67-0.2,1.32-0.536,1.916
			C21.445,27.177,21.452,27.253,21.441,27.319z"/>
		<path fill="#0E716A" d="M26.316,33.314c0,0.113,0,0.225,0,0.338c-0.155,0.06-0.255-0.055-0.366-0.121
			c-1.737-1.038-3.481-2.064-5.22-3.098c-2.02-1.2-4.041-2.398-6.063-3.594c-0.098-0.058-0.194-0.114-0.248-0.219
			c0-0.09,0-0.181,0-0.271c0.176-0.105,0.303,0.026,0.429,0.102c1.765,1.061,3.543,2.1,5.312,3.154
			c1.904,1.135,3.818,2.255,5.719,3.395C26.033,33.093,26.195,33.175,26.316,33.314z"/>
		<path fill="#174E4B" d="M26.317,31.218c-0.697-0.265-1.29-0.717-1.927-1.088c-1.431-0.832-2.854-1.679-4.278-2.524
			c-1.136-0.674-2.265-1.359-3.402-2.031c-0.759-0.449-1.528-0.882-2.292-1.323c0-0.09,0-0.18,0-0.271
			c0.164-0.104,0.277,0.026,0.395,0.095c1.483,0.875,2.963,1.756,4.444,2.636c1.945,1.155,3.897,2.298,5.834,3.467
			c0.412,0.249,0.87,0.429,1.227,0.767C26.317,31.037,26.317,31.127,26.317,31.218z"/>
		<path fill="#078D84" d="M49.578,45.688c0,0.09,0,0.181,0,0.271c-0.114,0.087-0.215,0.015-0.313-0.03
			c-2.028-0.939-4.071-1.848-6.105-2.776c-1.747-0.798-3.499-1.585-5.244-2.388c-0.09-0.042-0.195-0.062-0.257-0.152
			c-0.021-0.104-0.013-0.208-0.006-0.312c0.127-0.113,0.234-0.007,0.337,0.04c2.224,1.003,4.442,2.019,6.665,3.024
			c1.547,0.699,3.093,1.402,4.639,2.102C49.409,45.519,49.519,45.568,49.578,45.688z"/>
		<path fill="#08887F" d="M38.897,21.674c-0.068-0.043-0.135-0.087-0.203-0.13c-0.337-0.217-0.675-0.435-1.012-0.652
			c0.085-0.082,0.045-0.194,0.067-0.29c0.212-0.052,0.376,0.076,0.523,0.179c0.364,0.253,0.769,0.417,1.163,0.608
			c1.092,0.529,2.16,1.107,3.234,1.67c0.647,0.339,1.322,0.623,1.95,0.993c0.844,0.497,1.763,0.85,2.604,1.343
			c0.653,0.382,1.352,0.662,2.011,1.024c0.127,0.07,0.274,0.113,0.336,0.265c0,0.091,0,0.182,0,0.273
			c-0.159,0.102-0.281-0.018-0.402-0.081c-2.243-1.171-4.496-2.321-6.746-3.479c-1.069-0.551-2.141-1.097-3.212-1.643
			C39.115,21.705,39.022,21.62,38.897,21.674z"/>
		<path fill="#078B82" d="M49.571,26.684c-3.957-1.995-7.894-4.028-11.821-6.083c0-0.068,0-0.136,0.001-0.204
			c0.749,0.311,1.46,0.701,2.179,1.071c0.08,0.041,0.152,0.096,0.232,0.137c1.375,0.7,2.752,1.395,4.125,2.098
			c1.513,0.774,3.024,1.552,4.532,2.335c0.249,0.129,0.482,0.287,0.752,0.375C49.57,26.503,49.57,26.594,49.571,26.684z"/>
		<path fill="#09857D" d="M37.684,39.806c0.259,0.096,0.529,0.169,0.775,0.292c1.066,0.533,2.167,0.991,3.247,1.494
			c1.227,0.571,2.473,1.103,3.696,1.687c1.023,0.489,2.076,0.915,3.113,1.373c0.358,0.158,0.709,0.33,1.063,0.495
			c0,0.09,0,0.18,0,0.27c-0.194,0.051-0.351-0.058-0.509-0.131c-2.556-1.177-5.126-2.322-7.685-3.494
			c-1.095-0.501-2.189-1.005-3.292-1.489c-0.161-0.071-0.345-0.119-0.435-0.299C37.648,39.936,37.626,39.866,37.684,39.806z"/>
		<path fill="#21B69C" d="M14.42,16.137c1.303,0.022,2.589,0.169,3.827,0.597c1.014,0.351,1.937,0.846,2.703,1.63
			c0.791,0.809,1.447,1.699,1.926,2.722c0.039,0.084,0.067,0.166,0.061,0.259c-0.117-0.11-0.173-0.254-0.242-0.395
			c-0.418-0.856-1.056-1.549-1.69-2.242c-0.561-0.613-1.317-0.928-2.027-1.324c-0.606-0.338-1.267-0.421-1.908-0.582
			c-0.864-0.217-1.754-0.321-2.65-0.324C14.421,16.363,14.421,16.25,14.42,16.137z"/>
		<path fill="#135E59" d="M20.706,28.648c0.804,0.391,1.547,0.887,2.317,1.337c1.095,0.641,2.196,1.273,3.295,1.909
			c0,0.113,0,0.225,0,0.338c-1.137-0.676-2.273-1.354-3.412-2.026c-1.593-0.941-3.189-1.875-4.781-2.816
			c-1.11-0.656-2.215-1.319-3.323-1.977c-0.125-0.074-0.255-0.142-0.382-0.212c0-0.045,0-0.091,0-0.136
			c0.137-0.094,0.238,0.017,0.333,0.074c0.814,0.488,1.63,0.972,2.449,1.452c0.558,0.328,1.101,0.682,1.68,0.975
			C19.477,27.946,20.084,28.309,20.706,28.648z"/>
		<path fill="#0D776F" d="M48.226,43.664c0.389,0.164,0.727,0.416,1.08,0.64c0.088,0.056,0.163,0.11,0.27,0.098
			c0.001,0.046,0.001,0.092,0.002,0.138c-0.189,0.103-0.354-0.01-0.51-0.078c-0.495-0.216-0.994-0.426-1.478-0.665
			c-0.594-0.294-1.203-0.558-1.805-0.831c-0.644-0.292-1.278-0.608-1.939-0.863c-0.213-0.178-0.487-0.222-0.73-0.333
			c-0.028-0.014-0.055-0.03-0.081-0.047c-0.414-0.199-0.818-0.42-1.256-0.565c-0.029-0.011-0.057-0.025-0.084-0.041
			c-0.199-0.152-0.432-0.227-0.666-0.301c-0.029-0.011-0.056-0.025-0.083-0.041c-0.2-0.144-0.439-0.204-0.662-0.297
			c-0.029-0.011-0.056-0.025-0.082-0.041c-0.2-0.144-0.438-0.204-0.662-0.297c-0.029-0.011-0.056-0.025-0.083-0.041
			c-0.198-0.156-0.451-0.184-0.67-0.292c-0.028-0.013-0.054-0.029-0.079-0.046c-0.192-0.159-0.445-0.182-0.66-0.29
			c-0.028-0.013-0.054-0.03-0.08-0.047c-0.098-0.097-0.261-0.114-0.322-0.258c0.001-0.065-0.014-0.132,0.029-0.19
			c0.168-0.067,0.309,0.021,0.449,0.086c2.791,1.289,5.604,2.529,8.396,3.816c0.521,0.24,1.048,0.467,1.546,0.755
			C48.115,43.658,48.166,43.688,48.226,43.664z"/>
		<path fill="#0C7A72" d="M14.419,27.228c0-0.068,0-0.136,0-0.203c0.175-0.105,0.302,0.027,0.429,0.102
			c2.186,1.3,4.376,2.592,6.562,3.892c1.518,0.903,3.038,1.804,4.561,2.698c0.127,0.075,0.253,0.148,0.338,0.273
			c0,0.067,0,0.135,0,0.202c-0.161,0.099-0.281-0.019-0.399-0.089c-3.753-2.231-7.508-4.457-11.267-6.679
			C14.555,27.373,14.467,27.325,14.419,27.228z"/>
		<path fill="#184B47" d="M26.317,30.947c-0.628-0.273-1.192-0.663-1.78-1.007c-1.636-0.958-3.272-1.917-4.903-2.884
			c-1.255-0.744-2.497-1.512-3.756-2.249c-0.482-0.283-0.936-0.618-1.461-0.825c0-0.068,0-0.135,0-0.203
			c0.174-0.129,0.299,0.013,0.425,0.088c1.581,0.949,3.177,1.872,4.757,2.821c1.686,1.013,3.386,2.003,5.078,3.006
			c0.493,0.292,0.972,0.609,1.472,0.889c0.071,0.04,0.126,0.092,0.168,0.161C26.318,30.812,26.318,30.879,26.317,30.947z"/>
		<path fill="#194744" d="M26.318,30.744c-0.757-0.348-1.43-0.842-2.149-1.255c-1.382-0.793-2.751-1.609-4.12-2.422
			c-1.197-0.711-2.388-1.433-3.582-2.148c-0.616-0.369-1.234-0.736-1.854-1.1c-0.054-0.032-0.129-0.028-0.194-0.04
			c0-0.09,0-0.18,0-0.27c1.17,0.689,2.342,1.374,3.511,2.066c1.786,1.057,3.57,2.12,5.356,3.178
			c0.917,0.543,1.839,1.079,2.756,1.624c0.09,0.053,0.17,0.107,0.278,0.097C26.318,30.564,26.318,30.654,26.318,30.744z"/>
		<path fill="#0C7A72" d="M14.419,27.228c1.518,0.823,2.979,1.743,4.468,2.617c1.672,0.982,3.337,1.975,5.004,2.965
			c0.675,0.4,1.347,0.805,2.021,1.205c0.125,0.074,0.248,0.156,0.397,0.177c0,0.068,0,0.136,0,0.204
			c-0.621-0.243-1.153-0.644-1.722-0.977c-1.896-1.11-3.78-2.242-5.669-3.364c-1.407-0.836-2.814-1.673-4.223-2.507
			c-0.085-0.05-0.184-0.078-0.276-0.117C14.42,27.363,14.419,27.296,14.419,27.228z"/>
		<path fill="#09847C" d="M38.897,21.674c0.037-0.193,0.144-0.079,0.224-0.047c0.354,0.144,0.687,0.329,1.025,0.505
			c1.306,0.681,2.625,1.338,3.937,2.009c1.581,0.809,3.16,1.623,4.739,2.438c0.248,0.128,0.468,0.312,0.748,0.377
			c0,0.067,0,0.134,0,0.201c-0.121,0.049-0.22-0.02-0.318-0.069c-1.608-0.812-3.223-1.61-4.821-2.442
			c-0.868-0.452-1.733-0.914-2.61-1.348c-0.161-0.08-0.324-0.157-0.472-0.261c-0.237-0.173-0.504-0.289-0.771-0.404
			c-0.065-0.021-0.13-0.043-0.195-0.064c-0.09-0.049-0.179-0.097-0.269-0.146c-0.148-0.163-0.336-0.26-0.542-0.327
			c-0.198-0.125-0.365-0.303-0.607-0.351C38.943,21.721,38.92,21.697,38.897,21.674z"/>
		<path fill="#0C7A73" d="M43.833,42.037c0.535,0.138,1.007,0.423,1.506,0.644c0.562,0.249,1.123,0.496,1.677,0.764
			c0.564,0.273,1.147,0.506,1.714,0.773c0.276,0.13,0.553,0.246,0.848,0.321c0,0.09,0,0.18,0,0.271
			c-0.719-0.315-1.442-0.624-2.158-0.947c-1.915-0.863-3.828-1.733-5.741-2.6c-1.218-0.552-2.435-1.104-3.653-1.655
			c-0.112-0.051-0.228-0.093-0.343-0.139c-0.044-0.047-0.039-0.097-0.012-0.149c0.141-0.082,0.238,0.022,0.346,0.081
			c0.217,0.181,0.519,0.174,0.744,0.338c0.217,0.181,0.519,0.174,0.744,0.338c0.227,0.159,0.524,0.164,0.744,0.338
			c0.227,0.159,0.524,0.164,0.744,0.338c0.231,0.15,0.526,0.16,0.744,0.338c0.456,0.192,0.899,0.412,1.352,0.609
			C43.306,41.88,43.609,41.872,43.833,42.037z"/>
		<path fill="#0D756E" d="M26.309,33.99c-0.871-0.506-1.745-1.007-2.613-1.52c-1.786-1.055-3.567-2.117-5.351-3.177
			c-1.176-0.699-2.351-1.398-3.528-2.095c-0.125-0.074-0.248-0.157-0.399-0.174c0-0.068,0-0.135,0-0.203
			c0.15-0.099,0.255,0.019,0.364,0.083c2.142,1.273,4.288,2.541,6.429,3.814c1.639,0.975,3.286,1.936,4.918,2.924
			c0.069,0.041,0.129,0.089,0.185,0.144C26.314,33.855,26.312,33.922,26.309,33.99z"/>
		<path fill="#0D756E" d="M26.316,33.787c-0.627-0.278-1.193-0.664-1.781-1.01c-1.673-0.983-3.342-1.974-5.011-2.964
			c-1.215-0.721-2.423-1.456-3.645-2.167c-0.483-0.281-0.937-0.615-1.46-0.825c0-0.067,0-0.135,0-0.202
			c1.219,0.714,2.439,1.424,3.656,2.142c1.67,0.986,3.336,1.977,5.004,2.966c1.08,0.64,2.158,1.282,3.238,1.923
			C26.316,33.697,26.316,33.742,26.316,33.787z"/>
		<path fill="#069187" d="M49.578,46.297c-1.116-0.502-2.233-1.002-3.349-1.506c-1.853-0.836-3.705-1.672-5.557-2.511
			c-0.87-0.394-1.736-0.797-2.603-1.196c-0.122-0.056-0.233-0.142-0.378-0.127c-0.071-0.055-0.041-0.126-0.034-0.194
			c0.141-0.09,0.259,0.001,0.377,0.055c2.317,1.062,4.646,2.1,6.962,3.164c1.406,0.646,2.817,1.284,4.23,1.914
			c0.123,0.055,0.25,0.103,0.35,0.199C49.578,46.162,49.578,46.229,49.578,46.297z"/>
		<path fill="#0A8078" d="M44.171,24.863c-0.045-0.024-0.09-0.048-0.135-0.072c-0.157-0.15-0.349-0.244-0.542-0.336
			c-0.208-0.165-0.44-0.289-0.676-0.406c-0.022-0.024-0.043-0.048-0.065-0.072c0.069-0.205,0.192-0.117,0.311-0.058
			c1.035,0.515,2.057,1.054,3.085,1.583c1.027,0.528,2.065,1.034,3.086,1.574c0.119,0.063,0.248,0.108,0.335,0.219
			c0,0.09,0,0.18,0,0.271c-0.137,0.112-0.259,0.029-0.368-0.044c-0.44-0.294-0.916-0.516-1.402-0.721
			c-0.57-0.24-1.068-0.614-1.624-0.878c-0.119-0.056-0.234-0.143-0.379-0.079c-0.143,0.031-0.244-0.059-0.355-0.122
			c-0.204-0.143-0.419-0.267-0.635-0.389C44.597,25.173,44.322,25.102,44.171,24.863z"/>
		<path fill="#0F6E67" d="M14.419,26.011c1.44,0.846,2.882,1.689,4.32,2.539c1.669,0.986,3.335,1.979,5.003,2.968
			c0.858,0.509,1.717,1.017,2.575,1.525c0,0.045,0,0.09,0,0.135c-0.218,0.053-0.358-0.111-0.513-0.204
			c-2.435-1.465-4.89-2.896-7.329-4.355c-1.349-0.807-2.706-1.6-4.056-2.406C14.419,26.146,14.419,26.079,14.419,26.011z"/>
		<path fill="#069187" d="M49.578,46.094c-0.947-0.345-1.843-0.808-2.762-1.217c-2.059-0.916-4.09-1.892-6.16-2.785
			c-0.995-0.43-1.977-0.892-2.964-1.34c-0.054-0.045-0.054-0.09,0-0.134c0.358,0.038,0.646,0.255,0.959,0.395
			c1.877,0.839,3.742,1.705,5.612,2.558c1.738,0.792,3.477,1.58,5.216,2.369c0.03,0.014,0.066,0.014,0.099,0.02
			C49.578,46.004,49.578,46.049,49.578,46.094z"/>
		<path fill="#0F6E67" d="M14.419,26.213c0.456,0.113,0.812,0.419,1.203,0.649c2.128,1.25,4.246,2.518,6.367,3.78
			c1.292,0.769,2.583,1.538,3.877,2.305c0.145,0.086,0.3,0.154,0.45,0.231c0,0.045,0,0.091,0,0.136
			c-0.575-0.233-1.072-0.604-1.603-0.914c-1.791-1.048-3.572-2.114-5.355-3.175c-1.514-0.9-3.026-1.803-4.54-2.702
			c-0.125-0.074-0.248-0.157-0.399-0.174C14.419,26.304,14.419,26.258,14.419,26.213z"/>
		<path fill="#088980" d="M49.578,45.688c-1.616-0.73-3.232-1.46-4.848-2.19c-0.951-0.43-1.904-0.857-2.853-1.291
			c-1.399-0.64-2.795-1.284-4.193-1.927c-0.045-0.043-0.04-0.092-0.016-0.143c0.279,0.01,0.505,0.174,0.743,0.284
			c2.101,0.97,4.217,1.907,6.319,2.874c1.459,0.671,2.929,1.316,4.385,1.995c0.152,0.071,0.323,0.099,0.464,0.197
			C49.578,45.553,49.578,45.621,49.578,45.688z"/>
		<path fill="#088980" d="M49.578,45.486c-0.494-0.06-0.898-0.349-1.336-0.544c-1.613-0.716-3.211-1.465-4.818-2.194
			c-1.801-0.817-3.606-1.625-5.409-2.438c-0.113-0.051-0.221-0.111-0.332-0.167c-0.044-0.045-0.044-0.09,0-0.135
			c1.461,0.664,2.923,1.328,4.384,1.992c0.991,0.451,1.983,0.901,2.974,1.352c1.512,0.688,3.024,1.376,4.536,2.064
			C49.578,45.44,49.578,45.463,49.578,45.486z"/>
		<path fill="#0C7C74" d="M45.792,25.812c0.037-0.221,0.162-0.09,0.243-0.05c0.33,0.163,0.652,0.339,0.968,0.531
			c0.773,0.469,1.656,0.728,2.405,1.248c0.04,0.028,0.108,0.017,0.163,0.025c-0.001,0.182-0.001,0.365-0.002,0.547
			c-0.312-0.18-0.624-0.361-0.936-0.541c-0.137,0.085-0.233-0.018-0.324-0.085c-0.187-0.137-0.385-0.255-0.581-0.378
			c-0.12-0.07-0.237-0.144-0.356-0.216c-0.202-0.103-0.375-0.255-0.585-0.344c-0.186-0.099-0.334-0.259-0.534-0.335
			c-0.083-0.038-0.157-0.092-0.235-0.14C45.936,25.992,45.785,25.971,45.792,25.812z"/>
		<path fill="#0A847B" d="M49.571,27.295c-0.455-0.168-0.866-0.424-1.294-0.647c-1.205-0.627-2.42-1.235-3.63-1.854
			c-0.511-0.261-1.016-0.533-1.526-0.795c-0.115-0.059-0.237-0.153-0.368-0.022c-0.272-0.156-0.543-0.311-0.815-0.467
			c-0.18-0.112-0.36-0.224-0.541-0.336c-0.092-0.01-0.168-0.045-0.204-0.138c0.02-0.164,0.118-0.098,0.204-0.069
			c0.933,0.488,1.867,0.976,2.8,1.465c0.476,0.25,0.948,0.508,1.428,0.75c1.313,0.662,2.629,1.317,3.944,1.975
			C49.571,27.203,49.571,27.249,49.571,27.295z"/>
		<path fill="#174F4B" d="M37.683,39.332c0,0.045,0,0.091,0,0.136c-0.003,0.045-0.005,0.089-0.008,0.134
			c-0.019,0.031-0.038,0.031-0.058,0.001c-0.003-0.808-0.007-1.615-0.01-2.423c0.019-0.004,0.039-0.006,0.059-0.006
			c0.203,0.066,0.39,0.167,0.568,0.282c0.17,0.096,0.326,0.214,0.493,0.314c0.065,0.037,0.132,0.07,0.197,0.108
			c0.196,0.114,0.368,0.263,0.562,0.379c0.123,0.097,0.29,0.134,0.373,0.283c-0.112,0.19-0.252,0.078-0.374,0.024
			c-0.51-0.226-1.019-0.454-1.526-0.688c-0.07-0.032-0.187-0.167-0.192,0.055c0.001,0.082,0.003,0.164,0.001,0.246
			c0,0.085,0,0.171-0.001,0.256c0.001,0.052,0.001,0.104,0,0.156c0.001,0.053,0,0.105-0.002,0.158
			c-0.001,0.092-0.022,0.177-0.083,0.248c0,0.068,0,0.135,0.001,0.203C37.72,39.242,37.719,39.287,37.683,39.332z"/>
		<path fill="#135E59" d="M18.88,27.566c-0.4-0.043-0.679-0.33-1.004-0.516c-1.058-0.606-2.099-1.241-3.149-1.861
			c-0.095-0.056-0.206-0.084-0.309-0.125c0-0.045,0-0.09,0-0.135c0.304,0.068,0.537,0.273,0.797,0.423
			c0.774,0.447,1.56,0.874,2.313,1.354C17.978,26.992,18.482,27.198,18.88,27.566z"/>
		<path fill="#155551" d="M37.617,39.603c0.019,0,0.039-0.001,0.058-0.001c0.003,0.068,0.006,0.136,0.009,0.204
			c0,0.068,0,0.135,0.001,0.203c0,0.045,0,0.09,0,0.135c0,0.045,0,0.09,0,0.136c0.002,0.113,0.005,0.226,0.007,0.338
			c0,0.045,0,0.09,0,0.134c0,0.068,0,0.136,0,0.204c0,0.113,0,0.225,0,0.338c0,0.135,0,0.27,0,0.406c0,0.203,0,0.406,0,0.609
			c-0.008,0.091-0.015,0.181-0.023,0.272c-0.07-0.074-0.054-0.167-0.054-0.255C37.615,41.418,37.616,40.511,37.617,39.603z"/>
		<path fill="#2CBB9C" d="M14.421,14.447c0.337,0.001,0.675-0.006,1.012,0.006c0.119,0.004,0.244,0.037,0.337,0.129
			c-0.336,0.045-0.659-0.093-0.994-0.07c-0.123,0.008-0.245,0.001-0.355,0.069C14.42,14.536,14.42,14.492,14.421,14.447z"/>
		<path fill="#04A79B" d="M43.968,37.98c0.229-0.238,0.347-0.55,0.541-0.811c0.087,0.161,0.053,0.383,0.331,0.441
			c0.176,0.037-0.011,0.32,0.142,0.438c-0.124,0.336-0.022,0.692-0.087,1.032c-0.12,0.632-0.364,1.218-0.699,1.767
			c-0.045,0.074-0.064,0.165-0.095,0.248c-0.136,0.087-0.229-0.023-0.328-0.078c-0.271-0.148-0.518-0.336-0.795-0.473
			c-0.074-0.05-0.13-0.113-0.146-0.205c-0.01-0.08,0.007-0.158,0.047-0.225c0.384-0.643,0.66-1.338,0.979-2.013
			C43.883,38.051,43.917,38.007,43.968,37.98z"/>
		<path fill="#11645E" d="M43.02,40.484c0.386,0.159,0.689,0.465,1.082,0.611c0.099,0.193,0.311,0.23,0.471,0.339
			c-0.09,0.233-0.241,0.092-0.352,0.042c-0.684-0.314-1.376-0.611-2.058-0.928c-1.396-0.648-2.806-1.264-4.2-1.916
			c-0.102-0.048-0.207-0.087-0.281-0.178c0-0.09,0-0.18,0-0.27c0.181-0.107,0.329,0.023,0.471,0.087
			c0.891,0.402,1.778,0.814,2.669,1.217C41.555,39.819,42.281,40.166,43.02,40.484z"/>
		<path fill="#106A63" d="M37.682,38.454c0.717,0.231,1.377,0.594,2.061,0.9c1.535,0.685,3.061,1.39,4.59,2.087
			c0.082,0.038,0.163,0.09,0.24-0.007c0.113,0.047,0.226,0.094,0.339,0.14c0.142,0.185,0.382,0.236,0.544,0.395
			c-0.062,0.237-0.231,0.138-0.339,0.079c-0.572-0.312-1.177-0.557-1.77-0.818c-0.853-0.375-1.686-0.792-2.544-1.158
			c-0.567-0.242-1.128-0.503-1.685-0.769c-0.396-0.188-0.804-0.348-1.196-0.547c-0.091-0.046-0.191-0.066-0.24-0.167
			C37.682,38.544,37.682,38.499,37.682,38.454z"/>
		<path fill="#0E716A" d="M37.683,38.995c0-0.09,0-0.18,0-0.269c0.127-0.026,0.245,0.004,0.357,0.06
			c0.63,0.316,1.278,0.592,1.918,0.883c0.579,0.263,1.156,0.531,1.738,0.786c0.604,0.265,1.197,0.556,1.803,0.814
			c0.658,0.28,1.285,0.63,1.964,0.863c0.266,0.091,0.497,0.261,0.753,0.377c0.081,0.037,0.152,0.099,0.25,0.075
			c0.067,0.021,0.135,0.042,0.202,0.063c0.519,0.339,1.038,0.677,1.557,1.016c-0.152,0.116-0.248-0.036-0.356-0.085
			c-2.108-0.947-4.214-1.899-6.318-2.854c-1.104-0.501-2.204-1.009-3.304-1.516C38.064,39.123,37.884,39.033,37.683,38.995z"/>
		<path fill="#106B65" d="M46.467,42.584c-0.255,0.109-0.448-0.086-0.633-0.176c-0.956-0.468-1.935-0.885-2.906-1.319
			c-1.068-0.477-2.123-0.985-3.188-1.469c-0.681-0.309-1.371-0.597-2.057-0.895c0-0.045,0-0.091,0-0.136
			c0.783,0.296,1.532,0.665,2.286,1.025c0.572,0.272,1.164,0.5,1.742,0.759c0.374,0.168,0.734,0.365,1.106,0.536
			c0.353,0.162,0.717,0.3,1.071,0.461c0.385,0.175,0.765,0.362,1.146,0.546c0.136,0.065,0.26,0.204,0.422,0.052
			C45.793,42.174,46.13,42.379,46.467,42.584z"/>
		<path fill="#09847C" d="M41.398,22.967c-0.075,0.002-0.155-0.012-0.204,0.069c-0.042-0.001-0.085-0.003-0.127-0.004
			c-0.093-0.219-0.374-0.208-0.489-0.399C40.896,22.636,41.147,22.803,41.398,22.967z"/>
		<path fill="#14B39C" d="M47.755,27.031c0.315,0.144,0.552,0.414,0.879,0.539c-0.299,0.688-0.841,1.18-1.388,1.654
			c-0.198,0.172-0.35,0.372-0.523,0.559c-0.627,0.679-1.25,1.361-1.875,2.042c-0.753,0.941-1.403,1.95-1.986,3.004
			c-0.125,0.227-0.281,0.434-0.407,0.661c-0.038,0.068-0.076,0.18-0.201,0.108c-0.074-0.138,0.005-0.257,0.05-0.378
			c0.107-0.289,0.243-0.569,0.294-0.877c0.208-0.55,0.515-1.054,0.824-1.545c0.725-1.153,1.525-2.26,2.416-3.29
			c0.568-0.657,1.116-1.325,1.613-2.036C47.552,27.326,47.602,27.143,47.755,27.031z"/>
		<path fill="#11AF9C" d="M42.278,35.613c0.452-0.746,0.888-1.503,1.361-2.235c0.356-0.551,0.697-1.12,1.209-1.552
			c-0.291,0.459-0.616,0.901-0.865,1.382c-0.454,0.876-0.94,1.746-1.096,2.743c0.077,0.084,0.032,0.168-0.002,0.249
			c-0.39,0.94-0.863,1.839-1.348,2.732c-0.084,0.155-0.175,0.314-0.339,0.408c-0.031,0.014-0.063,0.023-0.097,0.026
			c-0.261-0.07-0.484-0.191-0.6-0.453c0.589-0.857,0.957-1.827,1.417-2.751C42.015,35.967,42.054,35.728,42.278,35.613z"/>
		<path fill="#0CAD9C" d="M41.125,39.321c0.138-0.103,0.228-0.244,0.31-0.391c0.537-0.967,1.05-1.946,1.451-2.979
			c0.158-0.248,0.316-0.496,0.473-0.744c0.266-0.295,0.638-0.442,0.947-0.676c-0.288,0.5-0.534,1.022-0.74,1.559
			c-0.215,0.558-0.506,1.09-0.612,1.687c-0.106,0.526-0.322,1.009-0.606,1.459c-0.126,0.199-0.19,0.465-0.462,0.545
			C41.581,39.711,41.314,39.581,41.125,39.321z"/>
		<path fill="#08AA9C" d="M41.869,39.739c0.356-0.347,0.569-0.781,0.755-1.233c0.101-0.246,0.219-0.486,0.329-0.728
			c0.345-0.515,0.581-1.094,0.956-1.596c0.205-0.274,0.391-0.565,0.599-0.839c-0.12,0.508-0.249,1.013-0.356,1.523
			c-0.077,0.368-0.124,0.742-0.185,1.114c-0.239,0.664-0.527,1.306-0.875,1.92c-0.083,0.147-0.182,0.284-0.209,0.455
			C42.463,40.285,42.115,40.096,41.869,39.739z"/>
		<path fill="#2CBB9C" d="M24.358,29.104c-0.092-0.058-0.184-0.116-0.276-0.174c0.496-0.919,0.835-1.881,0.964-2.931
			c0.188-1.53-0.038-2.999-0.55-4.425c-0.259-0.722-0.532-1.442-0.893-2.132c-0.524-1.001-1.147-1.915-1.974-2.677
			c-0.758-0.698-1.645-1.187-2.628-1.515c-0.618-0.207-1.258-0.316-1.884-0.489c-0.318-0.088-0.664-0.076-0.997-0.111
			c-0.118-0.012-0.251,0.044-0.35-0.067c1.694,0.043,3.288,0.427,4.786,1.261c1.053,0.586,1.787,1.45,2.5,2.381
			c0.724,0.945,1.149,2.031,1.577,3.108c0.358,0.899,0.591,1.851,0.681,2.831c0.085,0.923,0.004,1.836-0.17,2.732
			C24.994,27.661,24.698,28.395,24.358,29.104z"/>
		<path fill="#29BB9C" d="M38.218,37.515c-0.204-0.082-0.392-0.189-0.553-0.341c0.171,0.003,0.224-0.141,0.288-0.251
			c0.443-0.765,0.918-1.51,1.264-2.332c0.313-0.743,0.751-1.428,1.076-2.169c0.369-0.842,0.747-1.681,1.151-2.506
			c0.448-0.914,0.935-1.809,1.419-2.705c0.427-0.788,0.937-1.529,1.307-2.348c0.225,0.136,0.451,0.271,0.676,0.407
			c0.096,0.224-0.089,0.355-0.183,0.506c-0.515,0.829-1.074,1.633-1.523,2.5c-0.378,0.729-0.836,1.414-1.176,2.161
			c-0.475,1.044-1.045,2.038-1.553,3.064C39.735,34.868,39.066,36.241,38.218,37.515z"/>
		<path fill="#135E59" d="M20.706,28.648c-0.357-0.028-0.604-0.281-0.886-0.453c-0.321-0.195-0.695-0.318-0.94-0.629
			C19.523,27.868,20.139,28.216,20.706,28.648z"/>
		<path fill="#0C7A73" d="M43.089,41.699c-0.49-0.116-0.931-0.34-1.352-0.609C42.233,41.192,42.667,41.432,43.089,41.699z"/>
		<path fill="#0C7A73" d="M38.761,39.738c-0.263-0.08-0.56-0.085-0.744-0.338C38.273,39.496,38.575,39.49,38.761,39.738z"/>
		<path fill="#0C7A73" d="M39.505,40.076c-0.263-0.08-0.56-0.085-0.744-0.338C39.017,39.834,39.319,39.828,39.505,40.076z"/>
		<path fill="#0C7A73" d="M41.737,41.09c-0.242-0.126-0.562-0.079-0.744-0.338C41.272,40.797,41.542,40.86,41.737,41.09z"/>
		<path fill="#0C7A73" d="M43.833,42.037c-0.263-0.08-0.56-0.085-0.744-0.338C43.345,41.795,43.646,41.789,43.833,42.037z"/>
		<path fill="#0C7A73" d="M40.993,40.752c-0.242-0.126-0.562-0.079-0.744-0.338C40.519,40.479,40.798,40.522,40.993,40.752z"/>
		<path fill="#0C7A73" d="M40.249,40.414c-0.242-0.126-0.562-0.079-0.744-0.338C39.775,40.141,40.054,40.184,40.249,40.414z"/>
		<path fill="#0C7A73" d="M37.683,39.332c0-0.045,0-0.09,0-0.135c0.138,0.024,0.264,0.067,0.334,0.202
			C37.906,39.377,37.794,39.355,37.683,39.332z"/>
		<path fill="#25B99C" d="M38.218,37.515c0.039-0.427,0.358-0.713,0.555-1.056c0.61-1.06,1.143-2.157,1.673-3.257
			c0.219-0.455,0.491-0.884,0.726-1.332c0.374-0.714,0.673-1.466,1.082-2.164c0.623-1.065,1.177-2.168,1.846-3.208
			c0.258-0.4,0.572-0.774,0.747-1.228c0.21,0.122,0.438,0.217,0.612,0.395c0.1,0.163-0.023,0.28-0.095,0.398
			c-0.657,1.075-1.321,2.145-1.964,3.228c-0.465,0.784-0.946,1.56-1.343,2.382c-0.534,1.103-1.165,2.154-1.688,3.265
			c-0.415,0.881-0.843,1.766-1.369,2.593c-0.079,0.124-0.163,0.244-0.306,0.305C38.535,37.728,38.377,37.622,38.218,37.515z"/>
		<path fill="#20B89C" d="M38.694,37.835c0.688-1.048,1.207-2.184,1.766-3.301c0.381-0.762,0.812-1.503,1.197-2.261
			c0.555-1.091,1.161-2.151,1.772-3.208c0.515-0.891,1.09-1.748,1.624-2.629c0.15-0.247,0.334-0.48,0.405-0.77
			c0.111,0.049,0.222,0.098,0.334,0.146c0.09,0.068,0.181,0.136,0.271,0.204c0.097,0.149-0.01,0.26-0.082,0.366
			c-0.934,1.378-1.863,2.759-2.741,4.173c-0.332,0.534-0.641,1.083-0.958,1.626c-0.379,0.65-0.777,1.289-1.121,1.96
			c-0.415,0.809-0.864,1.602-1.286,2.408c-0.204,0.389-0.431,0.764-0.664,1.136c-0.073,0.116-0.136,0.273-0.328,0.234
			C38.82,37.892,38.757,37.863,38.694,37.835z"/>
		<path fill="#19B59C" d="M46.807,26.488c0.239,0.047,0.392,0.249,0.608,0.338c-0.065,0.38-0.31,0.664-0.537,0.947
			c-0.745,0.926-1.487,1.856-2.192,2.812c-0.692,0.937-1.389,1.876-1.965,2.895c-0.033,0.059-0.073,0.114-0.123,0.159
			c-0.415,0.397-0.668,0.912-1.001,1.37c-0.111,0.152-0.218,0.309-0.318,0.47c-0.051,0.082-0.103,0.181-0.233,0.137
			c-0.077-0.114-0.017-0.212,0.034-0.314c0.677-1.346,1.422-2.655,2.206-3.939c0.503-0.823,1.111-1.577,1.669-2.364
			c0.532-0.75,1.135-1.451,1.6-2.249C46.616,26.644,46.678,26.532,46.807,26.488z"/>
		<path fill="#1EB69C" d="M38.883,37.92c0.398-0.335,0.588-0.813,0.829-1.249c0.697-1.264,1.334-2.561,2.058-3.809
			c0.887-1.528,1.808-3.039,2.776-4.517c0.44-0.672,0.889-1.344,1.359-1.999c0.073-0.101,0.145-0.2,0.158-0.329
			c0.067,0.045,0.134,0.09,0.202,0.135c0.051,0.217-0.101,0.358-0.202,0.513c-0.798,1.226-1.621,2.437-2.379,3.687
			c-0.992,1.635-1.865,3.338-2.676,5.069c-0.372,0.794-0.783,1.568-1.157,2.36c-0.104,0.201-0.152,0.447-0.412,0.525
			C39.229,38.214,39.064,38.055,38.883,37.92z"/>
		<path fill="#1CB79C" d="M39.775,37.777c0.251-0.524,0.497-1.05,0.753-1.571c0.321-0.655,0.657-1.304,0.974-1.96
			c0.277-0.573,0.541-1.152,0.854-1.709c0.692-1.231,1.357-2.476,2.158-3.643c0.5-0.728,0.968-1.477,1.447-2.219
			c0.109-0.169,0.203-0.349,0.303-0.524c0.226,0.039,0.365,0.218,0.541,0.337c-0.467,0.902-1.122,1.678-1.729,2.478
			c-1.06,1.397-1.991,2.872-2.875,4.379c-0.402,0.684-0.75,1.4-1.118,2.104c-0.024,0.046-0.017,0.109-0.024,0.165
			c-0.092,0.425-0.352,0.769-0.551,1.142c-0.137,0.257-0.278,0.513-0.425,0.764C40.016,37.636,39.965,37.796,39.775,37.777z"/>
		<path fill="#16B39C" d="M42.548,33.584c0.477-0.759,0.965-1.511,1.489-2.239c0.903-1.255,1.86-2.467,2.826-3.674
			c0.209-0.261,0.369-0.562,0.552-0.845c0.113,0.068,0.226,0.137,0.339,0.205c-0.115,0.411-0.382,0.738-0.636,1.059
			c-0.874,1.104-1.822,2.153-2.645,3.293c-0.671,0.928-1.323,1.885-1.79,2.945c-0.204,0.461-0.475,0.887-0.743,1.311
			c-0.216,0.341-0.407,0.694-0.61,1.042c-0.062,0.106-0.105,0.262-0.289,0.212c-0.064-0.098-0.032-0.196,0.007-0.29
			C41.478,35.562,41.962,34.548,42.548,33.584z"/>
		<path fill="#19B39C" d="M42.548,33.584c-0.296,0.624-0.578,1.254-0.892,1.868c-0.239,0.467-0.47,0.933-0.595,1.445
			c-0.231,0.56-0.499,1.101-0.841,1.603c-0.052,0.076-0.117,0.138-0.219,0.138c-0.074-0.005-0.128-0.041-0.166-0.103
			c-0.152-0.041-0.276-0.131-0.394-0.23c0.141-0.157,0.253-0.333,0.335-0.528c0.326-0.29,0.436-0.716,0.664-1.068
			c0.227-0.352,0.416-0.73,0.621-1.096c0.365-0.527,0.729-1.056,1.097-1.581C42.271,33.87,42.356,33.68,42.548,33.584z"/>
		<path fill="#135D58" d="M41.869,39.739c0.316,0.242,0.657,0.442,1.014,0.616c0.045,0.043,0.091,0.086,0.136,0.129
			c-0.182,0.104-0.322-0.048-0.455-0.107c-1.139-0.506-2.266-1.039-3.403-1.551c-0.49-0.221-0.963-0.482-1.48-0.642
			c-0.001-0.09-0.001-0.181-0.002-0.271c0.125-0.094,0.24-0.014,0.344,0.036c0.924,0.445,1.887,0.806,2.792,1.292
			c0.095,0.051,0.193,0.114,0.312,0.102c0,0-0.002-0.021-0.002-0.021C41.373,39.46,41.621,39.599,41.869,39.739z"/>
		<path fill="#155551" d="M41.127,39.342c-0.395,0.055-0.675-0.233-1.005-0.359c-0.83-0.316-1.608-0.758-2.442-1.071
			c-0.02-0.193,0.012-0.268,0.231-0.16c0.544,0.267,1.099,0.511,1.65,0.762c0.087,0.039,0.174,0.124,0.274,0.021
			c0.047,0.018,0.094,0.036,0.14,0.054c0.213,0.062,0.43,0.117,0.546,0.336C40.723,39.064,40.925,39.203,41.127,39.342z"/>
		<path fill="#16B19C" d="M40.521,38.926c-0.182-0.112-0.364-0.224-0.546-0.336c0.266-0.122,0.344-0.393,0.477-0.617
			c0.21-0.354,0.325-0.762,0.608-1.075c0.188-0.125,0.251-0.341,0.354-0.521c0.401-0.697,0.792-1.399,1.269-2.049
			c-0.04,0.357-0.21,0.671-0.334,1c-0.035,0.094-0.081,0.182-0.072,0.285c-0.379,0.802-0.747,1.609-1.141,2.402
			C40.973,38.342,40.824,38.689,40.521,38.926z"/>
	</g>
</g>
</svg>
