<?xml version="1.0" encoding="iso-8859-1"?>
<!-- Generator: Adobe Illustrator 16.0.0, SVG Export Plug-In . SVG Version: 6.00 Build 0)  -->
<!DOCTYPE svg PUBLIC "-//W3C//DTD SVG 1.1//EN" "http://www.w3.org/Graphics/SVG/1.1/DTD/svg11.dtd">
<svg version="1.1" id="Layer_1" xmlns="http://www.w3.org/2000/svg" xmlns:xlink="http://www.w3.org/1999/xlink" x="0px" y="0px"
	 width="64px" height="64px" viewBox="0 0 64 64" style="enable-background:new 0 0 64 64;" xml:space="preserve">
<g>
	<path style="fill-rule:evenodd;clip-rule:evenodd;fill:#A88B66;" d="M64,16.447c0,1.174,0,2.348,0,3.521
		c-0.02,0.08-0.048,0.158-0.057,0.239c-0.137,1.163-0.212,2.337-0.412,3.489c-1.03,5.914-3.528,11.138-7.445,15.687
		c-0.107,0.125-0.196,0.279-0.248,0.436c-1.31,3.926-3.443,7.332-6.42,10.21c-2.461,2.381-5.293,4.183-8.492,5.401
		c-0.574,0.219-1.16,0.41-1.817,0.642c0.37,1.673,0.74,3.342,1.114,5.032c-0.813-1.547-1.447-3.151-2-4.808
		c-2.666,0.664-5.333,0.9-8.043,0.756c5.439,4.206,11.588,6.443,18.433,6.816c-0.375,0.045-0.749,0.088-1.124,0.132
		c-1.237,0-2.476,0-3.713,0c-0.087-0.023-0.173-0.061-0.261-0.067c-2.186-0.162-4.336-0.524-6.444-1.12
		c-4.638-1.31-8.776-3.544-12.425-6.69c-0.142-0.122-0.308-0.239-0.481-0.298c-3.895-1.3-7.277-3.413-10.142-6.354
		c-2.159-2.216-3.857-4.742-5.066-7.589c-0.373-0.88-0.687-1.786-1.038-2.707c-1.688,0.214-3.359,0.62-5.023,1.067
		c1.454-0.78,2.96-1.42,4.524-1.922c0.212-0.068,0.275-0.145,0.217-0.384c-0.59-2.418-0.821-4.871-0.672-7.358
		c0.007-0.11,0.001-0.222,0.001-0.429c-2.109,2.728-3.708,5.62-4.858,8.765c-1.15,3.149-1.781,6.405-1.963,9.753
		C0.096,48.401,0.048,48.137,0,47.872c0-1.345,0-2.688,0-4.032c0.023-0.087,0.059-0.175,0.066-0.263
		c0.126-1.661,0.358-3.306,0.733-4.929c1.201-5.198,3.542-9.819,7.007-13.875c0.136-0.156,0.258-0.344,0.322-0.537
		c1.344-4.059,3.556-7.568,6.662-10.503c2.805-2.647,6.057-4.548,9.739-5.698c0.232-0.073,0.303-0.157,0.25-0.4
		c-0.258-1.186-0.493-2.377-0.751-3.563c-0.081-0.371-0.202-0.733-0.305-1.1c0.03-0.011,0.061-0.023,0.092-0.034
		c0.348,0.772,0.714,1.538,1.039,2.32c0.329,0.792,0.618,1.601,0.93,2.414c2.637-0.668,5.303-0.892,8.011-0.749
		c-5.435-4.182-11.572-6.42-18.406-6.79C15.742,0.088,16.096,0.044,16.447,0c1.238,0,2.476,0,3.713,0
		c0.077,0.021,0.152,0.053,0.23,0.063c1.465,0.203,2.947,0.322,4.395,0.618c5.49,1.124,10.344,3.563,14.59,7.218
		c0.109,0.095,0.247,0.163,0.382,0.219c1.245,0.525,2.536,0.959,3.731,1.579c5.363,2.789,9.235,6.986,11.62,12.543
		c0.36,0.839,0.649,1.708,1.003,2.65c1.634-0.361,3.293-0.728,4.995-1.104c-1.561,0.819-3.16,1.442-4.795,2
		c0.665,2.656,0.892,5.314,0.746,8.013c4.193-5.434,6.436-11.575,6.813-18.412C63.914,15.741,63.957,16.095,64,16.447z
		 M54.781,40.829c-0.086,0.077-0.179,0.148-0.261,0.229c-1.383,1.369-2.866,2.617-4.467,3.723
		c-3.288,2.271-6.871,3.887-10.756,4.831c-0.177,0.043-0.41,0.014-0.4,0.334c0.041,1.533,0.06,3.067,0.098,4.601
		c0.008,0.289,0.069,0.576,0.106,0.88c0.134-0.039,0.216-0.061,0.297-0.087c4.9-1.587,8.925-4.423,12.068-8.502
		c1.407-1.825,2.534-3.813,3.349-5.974c0.001-0.027,0.001-0.054,0.002-0.081C54.805,40.799,54.793,40.814,54.781,40.829z
		 M44.975,32.814c0.01,0.01,0.019,0.02,0.029,0.028c-0.648,0.691-1.289,1.389-1.949,2.067c-0.147,0.152-0.182,0.271-0.131,0.473
		c0.512,2.042,0.846,4.112,0.924,6.219c0.027,0.752,0.004,1.507,0.004,2.311c0.187-0.067,0.285-0.098,0.381-0.139
		c4.629-2.001,8.586-4.915,11.859-8.75c0.146-0.172,0.252-0.423,0.275-0.648c0.233-2.229,0.141-4.449-0.248-6.656
		c-0.103-0.583-0.24-1.16-0.35-1.681c-1.914,0.392-3.773,0.774-5.646,1.159c0.337,2.163,0.479,4.365,0.337,6.592
		c-1.268-2.652-2.815-5.115-4.727-7.362c-1.297,1.237-2.63,2.359-4.07,3.346c-0.522-1.025-1.028-2.019-1.523-2.992
		c1.078-0.925,2.148-1.841,3.26-2.795c-0.808-0.259-5.411-0.361-5.977-0.122c2.407,3.219,4.166,6.756,5.273,10.645
		c0.114-0.076,0.203-0.13,0.287-0.193C43.648,33.815,44.311,33.314,44.975,32.814z M31.156,45.068
		c-0.076-0.058-0.159-0.107-0.227-0.172c-0.615-0.592-1.233-1.18-1.836-1.783c-0.174-0.175-0.319-0.243-0.58-0.178
		c-2.407,0.608-4.854,0.925-7.336,0.958c-0.354,0.005-0.709,0.001-1.064,0.001c0.004,0.076,0.001,0.099,0.007,0.117
		c0.017,0.051,0.036,0.102,0.057,0.15c2.015,4.684,4.961,8.681,8.842,11.988c0.112,0.096,0.274,0.17,0.421,0.186
		c2.304,0.255,4.598,0.17,6.879-0.239c0.571-0.104,1.138-0.235,1.647-0.342c-0.391-1.905-0.771-3.758-1.158-5.642
		c-2.15,0.348-4.361,0.466-6.593,0.34c2.652-1.266,5.108-2.818,7.366-4.729c-1.226-1.286-2.356-2.623-3.348-4.075
		c1.025-0.521,2.02-1.026,2.993-1.521c0.925,1.08,1.842,2.15,2.758,3.222c0.033-0.02,0.066-0.039,0.099-0.06
		c0.217-1.952,0.269-3.907,0.109-5.932c-3.285,2.464-6.841,4.231-10.778,5.351c0.613,0.803,1.194,1.564,1.776,2.325
		C31.179,45.045,31.167,45.057,31.156,45.068z M36.019,23.882c-0.019,0.018-0.036,0.036-0.054,0.054
		c-0.043,0.005-0.085,0.008-0.128,0.012c-4.118,0.509-8.001,1.748-11.649,3.729c-0.277,0.151-0.271,0.333-0.241,0.571
		c0.511,4.074,1.729,7.92,3.688,11.531c0.127,0.233,0.26,0.31,0.521,0.277c4.085-0.51,7.939-1.732,11.564-3.688
		c0.297-0.16,0.388-0.328,0.33-0.646c-0.179-0.975-0.303-1.96-0.51-2.929c-0.65-3.041-1.736-5.924-3.241-8.646
		C36.238,24.039,36.112,23.969,36.019,23.882z M24.035,20.699c-0.04,0.02-0.079,0.038-0.119,0.057
		c-0.217,1.935-0.265,3.872-0.111,5.886c3.273-2.464,6.828-4.224,10.756-5.348c-0.6-0.792-1.157-1.53-1.715-2.269
		c0.023-0.021,0.048-0.043,0.072-0.064c0.668,0.654,1.34,1.303,1.999,1.966c0.151,0.152,0.276,0.207,0.497,0.151
		c2.428-0.615,4.896-0.938,7.399-0.972c0.355-0.005,0.71,0,1.098,0c-0.036-0.104-0.05-0.153-0.07-0.201
		c-2.03-4.763-5.026-8.813-8.981-12.151c-0.089-0.075-0.225-0.12-0.343-0.133c-2.306-0.246-4.599-0.155-6.878,0.257
		c-0.561,0.102-1.115,0.234-1.622,0.341c0.397,1.918,0.783,3.78,1.179,5.69c2.139-0.313,4.342-0.486,6.564-0.327
		c-2.643,1.271-5.091,2.817-7.341,4.725c1.231,1.288,2.356,2.626,3.347,4.073c-1.03,0.523-2.023,1.028-2.993,1.522
		C25.855,22.831,24.945,21.765,24.035,20.699z M19.085,31.125c-0.025-0.024-0.05-0.051-0.074-0.075
		c0.641-0.654,1.278-1.313,1.927-1.959c0.146-0.145,0.185-0.266,0.133-0.473c-0.541-2.135-0.859-4.304-0.939-6.504
		c-0.024-0.646-0.004-1.293-0.004-1.998c-0.213,0.084-0.352,0.134-0.484,0.192c-4.598,2.013-8.526,4.928-11.782,8.747
		c-0.121,0.143-0.211,0.352-0.229,0.537c-0.225,2.219-0.142,4.428,0.247,6.623c0.106,0.604,0.246,1.203,0.358,1.744
		c1.905-0.392,3.756-0.772,5.628-1.157c-0.32-2.156-0.489-4.36-0.33-6.586c1.268,2.653,2.817,5.111,4.725,7.358
		c1.284-1.231,2.619-2.352,4.07-3.349c0.522,1.026,1.031,2.026,1.522,2.994c-1.086,0.931-2.156,1.847-3.226,2.763
		c0.02,0.031,0.038,0.062,0.056,0.092c1.946,0.226,3.895,0.256,5.917,0.12c-2.446-3.271-4.2-6.815-5.313-10.729
		C20.521,30.044,19.803,30.585,19.085,31.125z M24.897,8.537c-3.668,1.13-6.852,2.971-9.605,5.543c-2.749,2.568-4.8,5.61-6.12,9.145
		c2.205-2.186,4.636-4.06,7.336-5.579c2.699-1.519,5.563-2.615,8.577-3.323C25.206,12.383,25.137,10.483,24.897,8.537z
		 M55.454,24.919c-1.121-3.661-2.964-6.833-5.511-9.607c-2.269-2.472-7.747-6.15-9.207-6.12c0.157,0.145,0.294,0.248,0.404,0.375
		c1.036,1.202,2.136,2.355,3.088,3.621c2.621,3.485,4.396,7.382,5.415,11.619c0.052,0.214,0.126,0.305,0.354,0.301
		c1.331-0.023,2.662-0.025,3.993-0.057C54.463,25.039,54.936,24.967,55.454,24.919z M8.554,39.079
		c1.182,3.824,3.131,7.132,5.878,9.964c2.467,2.543,5.353,4.46,8.668,5.763c0-0.062,0.008-0.088-0.001-0.098
		c-0.071-0.08-0.147-0.154-0.216-0.235c-1.022-1.187-2.11-2.323-3.053-3.569c-2.65-3.505-4.45-7.426-5.478-11.697
		c-0.054-0.228-0.136-0.32-0.375-0.315c-1.33,0.024-2.661,0.028-3.992,0.06C9.522,38.961,9.059,39.032,8.554,39.079z"/>
	<path style="fill-rule:evenodd;clip-rule:evenodd;fill:#FEFEFE;" d="M54.781,40.829c0.012-0.015,0.023-0.03,0.036-0.046
		c-0.001,0.027-0.001,0.054-0.002,0.081C54.805,40.853,54.793,40.841,54.781,40.829z"/>
	<path style="fill-rule:evenodd;clip-rule:evenodd;fill:#A88B66;" d="M32.811,18.926c-0.009,0.009-0.019,0.02-0.029,0.026
		c-0.005,0.002-0.021-0.009-0.021-0.014c0-0.013,0.007-0.025,0.011-0.039C32.784,18.908,32.798,18.917,32.811,18.926z"/>
	<path style="fill-rule:evenodd;clip-rule:evenodd;fill:#A88B66;" d="M31.19,45.034c0.008,0.021,0.018,0.043,0.026,0.064
		c-0.021-0.011-0.04-0.021-0.061-0.03C31.167,45.057,31.179,45.045,31.19,45.034z"/>
	<path style="fill-rule:evenodd;clip-rule:evenodd;fill:#A88B66;" d="M44.975,32.814c0.021-0.01,0.041-0.021,0.063-0.03
		c-0.012,0.021-0.022,0.039-0.033,0.059C44.993,32.834,44.984,32.824,44.975,32.814z"/>
</g>
</svg>
