<?xml version="1.0" encoding="utf-8"?>
<!-- Generator: Adobe Illustrator 22.0.0, SVG Export Plug-In . SVG Version: 6.00 Build 0)  -->
<svg version="1.1" id="Camada_1" xmlns="http://www.w3.org/2000/svg" xmlns:xlink="http://www.w3.org/1999/xlink" x="0px" y="0px"
	 width="64px" height="64px" viewBox="0 0 64 64" style="enable-background:new 0 0 64 64;" xml:space="preserve">
<g>
	<g>
		<path style="fill:#FFFFFF;" d="M11.514,14.609c0.014,0.035,0.029,0.07,0.04,0.106c0.624,1.966,1.808,3.54,3.392,4.83
			c1.291,1.052,2.735,1.836,4.294,2.411c0.083,0.031,0.171,0.048,0.272,0.049c-3.26-2.001-5.612-4.7-6.564-8.471
			c-0.535-2.119-0.549-4.253-0.06-6.394c0.005,0.022,0.015,0.045,0.015,0.067c-0.036,2.527,0.672,4.852,1.933,7.019
			c1.242,2.134,2.882,3.922,4.815,5.448c0.062,0.049,0.128,0.092,0.226,0.1c-0.111-0.12-0.223-0.24-0.334-0.361
			c-1.402-1.519-2.545-3.208-3.336-5.123c-0.978-2.367-1.318-4.83-1.091-7.376c0.204-2.286,0.828-4.453,1.852-6.505
			c0.06-0.12,0.128-0.236,0.214-0.349c-1.564,5.087-0.888,9.89,1.953,14.34c2.845,4.457,6.923,7.084,12.244,7.755
			c0,0.232,0,0.46,0,0.688c0,0.22,0,0.439,0,0.681c-0.191,0.035-0.366,0.061-0.538,0.098c-2.315,0.5-3.766,1.923-4.342,4.194
			c-0.464,1.831-0.177,3.574,0.915,5.14c0.854,1.226,2.061,1.917,3.519,2.187c0.134,0.025,0.268,0.047,0.423,0.073
			c0,9.588,0,19.167,0,28.783c-0.041-0.081-0.078-0.138-0.099-0.199c-0.989-2.88-1.978-5.759-2.96-8.641
			c-0.049-0.144-0.056-0.308-0.055-0.463c0.015-1.681,0.07-3.362,0.047-5.042c-0.03-2.133-0.185-4.261-0.492-6.374
			c-0.256-1.759-0.604-3.497-1.25-5.163c-0.251-0.648-0.55-1.272-0.941-1.85c-0.29-0.429-0.624-0.818-1.035-1.137
			c-0.099-0.077-0.188-0.168-0.28-0.254c-0.881-0.825-1.869-1.459-3.069-1.715c-0.028-0.006-0.052-0.031-0.105-0.065
			c0.7-0.731,1.393-1.454,2.085-2.177c-1.891,0.797-3.665,0.652-5.343-0.526c0.76,0.128,1.513,0.143,2.259-0.088
			c0.743-0.231,1.376-0.628,1.873-1.249c-0.117,0.036-0.235,0.069-0.352,0.108c-0.775,0.255-1.567,0.401-2.386,0.357
			c-1.625-0.088-2.902-0.827-3.89-2.099c-0.012-0.015-0.014-0.038-0.036-0.101c1.864,0.56,3.695,0.672,5.482-0.211
			c-0.144-0.065-0.293-0.035-0.439-0.024c-0.954,0.076-1.889-0.027-2.801-0.31c-1.3-0.403-2.373-1.152-3.269-2.165
			c-0.681-0.77-1.21-1.637-1.623-2.576c-0.028-0.065-0.049-0.133-0.089-0.246c0.062,0.043,0.088,0.053,0.1,0.071
			c0.547,0.81,1.308,1.352,2.185,1.75c0.946,0.429,1.944,0.674,2.968,0.806c0.562,0.072,1.129,0.098,1.695,0.142
			c0.098,0.008,0.197,0.001,0.303-0.03c-2.962-0.709-5.388-2.169-6.941-4.863c-0.9-1.56-1.361-3.248-1.448-5.037
			C11.473,14.622,11.493,14.615,11.514,14.609z"/>
		<path style="fill:#FFFFFF;" d="M32.673,23.523c0-0.465,0-0.914,0-1.371c5.309-0.672,9.392-3.306,12.236-7.779
			C47.749,9.907,48.413,5.095,46.836,0c0.081,0.146,0.167,0.289,0.241,0.438c0.871,1.754,1.444,3.601,1.728,5.539
			c0.221,1.507,0.244,3.015,0.039,4.524c-0.307,2.25-1.086,4.33-2.302,6.248c-0.627,0.988-1.347,1.903-2.144,2.759
			c-0.076,0.081-0.147,0.166-0.192,0.281c0.04-0.025,0.083-0.047,0.12-0.076c2.303-1.813,4.191-3.971,5.469-6.627
			c0.874-1.815,1.336-3.731,1.339-5.751c0-0.042,0-0.084,0.003-0.126c0.001-0.021,0.008-0.041,0.035-0.059
			c0.6,2.931,0.386,5.787-0.84,8.539c-1.233,2.768-3.301,4.775-5.847,6.354c0.065-0.016,0.133-0.027,0.196-0.05
			c2.032-0.737,3.86-1.803,5.389-3.347c1.097-1.108,1.909-2.394,2.388-3.883c0.022-0.068,0.049-0.134,0.085-0.232
			c0.063,1.639-0.677,4.516-2.366,6.512c-1.587,1.875-3.646,2.921-6.003,3.494c0.052,0.008,0.105,0.025,0.157,0.024
			c1.502-0.026,2.972-0.235,4.384-0.768c0.804-0.304,1.545-0.716,2.144-1.345c0.2-0.211,0.374-0.447,0.569-0.683
			c-0.003,0.041,0.003,0.073-0.008,0.099c-0.642,1.517-1.545,2.841-2.874,3.84c-1.421,1.068-3.036,1.489-4.798,1.391
			c-0.177-0.01-0.355-0.023-0.557,0.023c0.092,0.048,0.182,0.103,0.277,0.144c1.008,0.427,2.06,0.563,3.146,0.476
			c0.662-0.053,1.31-0.182,1.944-0.379c0.038-0.012,0.079-0.016,0.155-0.03c-0.056,0.088-0.086,0.15-0.13,0.202
			c-1.248,1.507-2.837,2.194-4.791,1.944c-0.497-0.064-0.982-0.216-1.472-0.33c-0.097-0.023-0.192-0.055-0.296-0.052
			c1.135,1.203,2.519,1.611,4.139,1.301c-0.762,0.589-1.623,0.91-2.57,1c-0.952,0.091-1.854-0.115-2.72-0.514
			c-0.012,0.018-0.024,0.035-0.036,0.053c0.342,0.358,0.684,0.717,1.026,1.075c0.346,0.362,0.693,0.723,1.049,1.094
			c-0.056,0.034-0.08,0.058-0.107,0.064c-1.2,0.256-2.188,0.888-3.069,1.714c-0.054,0.05-0.1,0.11-0.158,0.154
			c-0.95,0.713-1.515,1.7-1.967,2.766c-0.524,1.234-0.851,2.526-1.104,3.837c-0.34,1.766-0.529,3.551-0.652,5.345
			c-0.158,2.309-0.15,4.62-0.102,6.932c0.001,0.032-0.001,0.064,0.005,0.094c0.111,0.663-0.049,1.279-0.268,1.903
			c-0.902,2.576-1.778,5.162-2.665,7.744c-0.033,0.096-0.073,0.189-0.148,0.276c0-9.564,0-19.127,0-28.71
			c0.191-0.034,0.377-0.06,0.559-0.101c2.352-0.531,3.78-2.008,4.327-4.325c0.349-1.479,0.181-2.929-0.52-4.29
			c-0.842-1.635-2.2-2.58-4.001-2.904c-0.072-0.013-0.145-0.023-0.218-0.036C32.784,23.553,32.743,23.541,32.673,23.523z"/>
	</g>
</g>
</svg>
