<?xml version="1.0" encoding="UTF-8" standalone="no"?>
<svg
   xmlns:dc="http://purl.org/dc/elements/1.1/"
   xmlns:cc="http://creativecommons.org/ns#"
   xmlns:rdf="http://www.w3.org/1999/02/22-rdf-syntax-ns#"
   xmlns:svg="http://www.w3.org/2000/svg"
   xmlns="http://www.w3.org/2000/svg"
   xmlns:sodipodi="http://sodipodi.sourceforge.net/DTD/sodipodi-0.dtd"
   xmlns:inkscape="http://www.inkscape.org/namespaces/inkscape"
   width="64"
   height="64"
   viewBox="0 0 47.999998 47.999998"
   version="1.1"
   id="svg82"
   sodipodi:docname="noc.svg"
   inkscape:version="0.92.3 (2405546, 2018-03-11)">
  <metadata
     id="metadata88">
    <rdf:RDF>
      <cc:Work
         rdf:about="">
        <dc:format>image/svg+xml</dc:format>
        <dc:type
           rdf:resource="http://purl.org/dc/dcmitype/StillImage" />
        <dc:title></dc:title>
      </cc:Work>
    </rdf:RDF>
  </metadata>
  <defs
     id="defs86" />
  <sodipodi:namedview
     pagecolor="#ffffff"
     bordercolor="#666666"
     borderopacity="1"
     objecttolerance="10"
     gridtolerance="10"
     guidetolerance="10"
     inkscape:pageopacity="0"
     inkscape:pageshadow="2"
     inkscape:window-width="1920"
     inkscape:window-height="1017"
     id="namedview84"
     showgrid="false"
     units="px"
     inkscape:pagecheckerboard="true"
     inkscape:zoom="3.9535816"
     inkscape:cx="20.250109"
     inkscape:cy="-14.726633"
     inkscape:window-x="-8"
     inkscape:window-y="-8"
     inkscape:window-maximized="1"
     inkscape:current-layer="svg82" />
  <g
     id="#ffffffff"
     transform="matrix(0.10554785,0,0,0.10554785,-0.03010173,-0.01794201)">
    <path
       d="m 166.19,12.01 c 0.38,-3.93 -0.53,-8 0.55,-11.84 2.56,0.97 3.5,3.97 5.33,5.85 2.25,3.06 4.5,6.14 7.01,9 0.95,1.36 1.94,2.7 2.98,3.99 1.13,1.6 2.34,3.14 3.57,4.66 2.27,2.84 4.5,5.72 6.7,8.63 4.04,5.41 7.84,11.01 12.03,16.32 4.55,6.17 9.36,12.15 13.59,18.55 0.66,0.99 1.4,1.94 2.14,2.88 1.59,2.38 3.2,4.74 4.98,6.98 0.97,1.37 1.97,2.72 3.03,4.02 1.57,2.4 3.19,4.77 5,6.99 1.58,2.37 3.19,4.73 4.97,6.97 0.96,1.37 1.97,2.72 3.03,4.02 1.57,2.39 3.19,4.75 4.97,6.99 0.97,1.37 1.97,2.72 3.03,4.02 1.58,2.39 3.18,4.75 4.96,6.99 0.97,1.37 1.98,2.71 3.05,4.01 0.64,0.99 1.29,1.99 1.95,2.98 0.98,1.35 1.98,2.7 3.04,4 1.57,2.38 3.19,4.74 4.96,6.99 0.98,1.37 1.98,2.72 3.04,4.03 1.58,2.39 3.19,4.74 4.97,6.98 0.96,1.38 1.97,2.72 3.04,4.02 0.64,0.99 1.29,1.98 1.95,2.97 0.98,1.36 1.98,2.71 3.04,4.01 1.58,2.39 3.2,4.74 4.97,6.99 0.97,1.37 1.97,2.71 3.03,4.02 1.57,2.38 3.19,4.74 4.97,6.99 0.96,1.37 1.97,2.72 3.03,4.03 1.57,2.38 3.19,4.74 4.97,6.98 0.96,1.37 1.97,2.72 3.03,4.02 1.57,2.39 3.18,4.76 4.99,6.98 1.59,2.38 3.21,4.74 4.98,6.98 0.97,1.37 1.97,2.72 3.03,4.03 1.57,2.38 3.19,4.74 4.97,6.98 0.97,1.37 1.97,2.72 3.03,4.02 1.57,2.39 3.18,4.75 4.97,6.99 0.96,1.37 1.97,2.72 3.03,4.02 1.57,2.39 3.18,4.76 4.99,6.98 1.59,2.37 3.2,4.74 4.98,6.98 0.96,1.37 1.97,2.72 3.03,4.03 1.57,2.38 3.19,4.74 4.97,6.98 0.97,1.37 1.97,2.72 3.03,4.03 1.57,2.39 3.18,4.75 4.99,6.97 1.59,2.38 3.21,4.74 4.98,6.99 0.96,1.37 1.97,2.71 3.03,4.02 1.57,2.39 3.2,4.74 4.97,6.99 0.96,1.37 1.97,2.71 3.03,4.02 1.57,2.38 3.18,4.74 4.97,6.98 0.96,1.38 1.97,2.72 3.04,4.02 0.64,0.99 1.29,1.98 1.95,2.97 0.98,1.36 1.98,2.71 3.04,4.02 1.58,2.38 3.2,4.73 4.97,6.98 0.96,1.36 1.96,2.71 3.02,4.01 1.65,2.51 3.3,5.04 5.39,7.22 0.49,41.92 0.15,83.85 0.19,125.77 -0.01,1.64 -0.01,3.31 -0.41,4.93 -2.53,-1.17 -3.52,-4.06 -5.36,-5.99 -1.57,-2.39 -3.19,-4.74 -4.97,-6.98 -0.97,-1.37 -1.97,-2.71 -3.03,-4.01 -1.57,-2.39 -3.19,-4.74 -4.97,-6.97 -0.97,-1.37 -1.97,-2.72 -3,-4.03 -0.97,-1.38 -1.97,-2.72 -3.03,-4.02 -1.57,-2.39 -3.2,-4.74 -4.97,-6.98 -0.97,-1.37 -1.97,-2.71 -3.03,-4 -1.56,-2.39 -3.19,-4.74 -4.97,-6.96 -0.97,-1.38 -1.97,-2.73 -3.01,-4.04 -0.96,-1.38 -1.96,-2.73 -3.02,-4.02 -1.57,-2.39 -3.19,-4.75 -4.99,-6.97 -2.5,-3.79 -5.22,-7.42 -8.01,-11 -1.57,-2.39 -3.18,-4.75 -4.96,-6.99 -0.98,-1.37 -1.98,-2.72 -3.04,-4.03 -1.58,-2.38 -3.19,-4.74 -4.97,-6.98 -0.97,-1.38 -1.97,-2.73 -3.03,-4.02 -1.57,-2.4 -3.19,-4.77 -5,-6.99 -2.49,-3.79 -5.22,-7.42 -8,-11 -1.57,-2.39 -3.19,-4.75 -4.97,-6.98 -0.97,-1.38 -1.98,-2.72 -3.03,-4.02 -1.58,-2.39 -3.19,-4.74 -4.96,-6.98 -0.98,-1.37 -1.98,-2.72 -3.04,-4.02 -1.57,-2.39 -3.19,-4.74 -4.96,-6.98 -0.98,-1.37 -1.98,-2.72 -3.04,-4.03 -1.58,-2.38 -3.2,-4.74 -4.97,-6.98 -0.97,-1.37 -1.97,-2.72 -3.03,-4.01 -1.58,-2.39 -3.2,-4.75 -4.97,-6.99 -0.97,-1.37 -1.97,-2.72 -3.03,-4.01 -1.57,-2.39 -3.19,-4.74 -4.96,-6.98 -0.98,-1.37 -1.98,-2.72 -3.04,-4.02 -2.47,-3.79 -5.24,-7.38 -7.98,-10.99 -0.96,-1.37 -1.97,-2.72 -3.02,-4.02 -2.48,-3.79 -5.23,-7.38 -7.98,-10.97 -0.96,-1.38 -1.96,-2.72 -2.99,-4.03 -0.97,-1.37 -1.97,-2.71 -3.03,-4 -3.42,-5.17 -7.29,-10 -10.96,-14.98 -0.99,-1.4 -2.03,-2.76 -3.16,-4.04 -0.42,-0.96 -0.84,-1.92 -1.25,-2.88 -0.1,46.31 0.02,92.63 -0.05,138.94 -1.24,6.22 -0.44,12.57 -0.82,18.86 -2.82,1.39 -6.59,0.31 -9.79,0.83 -18.1,-0.06 -36.24,0.35 -54.33,-0.19 -0.58,-8.74 -0.25,-17.55 -0.12,-26.31 0.45,-12.37 -0.62,-24.81 0.8,-37.13 0.03,-53.7 0.04,-107.39 0.01,-161.09 -0.24,-9.31 0.6,-18.67 -0.67,-27.92 -0.2,-10.13 0.07,-20.27 -0.12,-30.4 -0.18,-6.52 -0.08,-13.03 -0.08,-19.55 0.03,-6.66 0.01,-13.33 0.03,-19.99 0.04,-6.47 -0.03,-12.94 0.07,-19.41 0.33,-7.23 -0.59,-14.53 0.73,-21.68 z"
       id="path50"
       inkscape:connector-curvature="0"
       style="opacity:1;fill:#ffffff" />
    <path
       d="m 340.59,87.99 c 0.34,-0.35 1.03,-1.05 1.37,-1.4 20.89,-0.12 41.8,-0.2 62.69,0.04 0.14,65.11 0.02,130.22 0.01,195.34 0.04,1.4 -0.14,2.78 -0.52,4.14 -1.14,-0.97 -2.22,-1.97 -3.26,-3.02 -2.08,-3.2 -4.47,-6.18 -6.94,-9.08 -1.23,-1.75 -2.59,-3.41 -4,-5.02 -1.22,-1.76 -2.58,-3.42 -4.02,-5.01 -2.22,-3.08 -4.5,-6.11 -6.98,-8.98 -1.23,-1.75 -2.6,-3.4 -4,-5.01 -1.23,-1.77 -2.59,-3.42 -4.02,-5.01 -2.21,-3.08 -4.5,-6.11 -6.98,-8.97 -1.23,-1.75 -2.59,-3.41 -3.99,-5.01 -1.23,-1.77 -2.59,-3.43 -4.03,-5.02 -2.22,-3.09 -4.48,-6.15 -7,-9 -2.34,-3.17 -4.57,-6.48 -7.43,-9.21 -0.62,-7.23 0.41,-14.55 -0.96,-21.7 -0.01,-32.69 -0.12,-65.39 0.06,-98.08 z"
       id="path52"
       inkscape:connector-curvature="0"
       style="opacity:1;fill:#ffffff" />
  </g>
  <g
     id="#a56973ff"
     transform="matrix(0.10554785,0,0,0.10554785,-0.03010173,-0.01794201)">
    <path
       d="m 196.05,20.85 c 44.98,-13.81 94.92,-13.73 138.83,3.93 -1.3,2.59 -2.91,5 -4.54,7.39 -25.44,-0.35 -50.88,-0.12 -76.32,-0.22 -20.57,0.35 -41.14,-0.5 -61.69,0.35 -2.2,-2.91 -4.43,-5.79 -6.7,-8.63 3.66,-0.05 6.93,-1.93 10.42,-2.82 z"
       id="path55"
       inkscape:connector-curvature="0"
       style="opacity:1;fill:#a56973" />
  </g>
  <g
     id="#9f5f69ff"
     transform="matrix(0.10554785,0,0,0.10554785,-0.03010173,-0.01794201)">
    <path
       d="m 192.33,32.3 c 20.55,-0.85 41.12,0 61.69,-0.35 25.44,0.1 50.88,-0.13 76.32,0.22 -3.56,5.44 -7.24,10.79 -10.93,16.13 -29.12,-0.85 -58.26,-0.03 -87.38,-0.34 -9.22,0.25 -18.5,-0.56 -27.67,0.66 -4.19,-5.31 -7.99,-10.91 -12.03,-16.32 z"
       id="path58"
       inkscape:connector-curvature="0"
       style="opacity:1;fill:#9f5f69" />
  </g>
  <g
     id="#9c5a65ff"
     transform="matrix(0.10554785,0,0,0.10554785,-0.03010173,-0.01794201)">
    <path
       d="m 135.28,52.5 c 9.44,-7.2 19.61,-13.42 30.18,-18.81 -0.1,6.47 -0.03,12.94 -0.07,19.41 -10.03,-0.21 -20.11,0.59 -30.11,-0.6 z"
       id="path61"
       inkscape:connector-curvature="0"
       style="opacity:1;fill:#9c5a65" />
  </g>
  <g
     id="#995560ff"
     transform="matrix(0.10554785,0,0,0.10554785,-0.03010173,-0.01794201)">
    <path
       d="m 204.36,48.62 c 9.17,-1.22 18.45,-0.41 27.67,-0.66 29.12,0.31 58.26,-0.51 87.38,0.34 -4.44,6.47 -8.85,12.96 -13.12,19.54 -28.64,-8.13 -59.68,-9.47 -88.34,-0.67 -4.23,-6.4 -9.04,-12.38 -13.59,-18.55 z"
       id="path64"
       inkscape:connector-curvature="0"
       style="opacity:1;fill:#995560" />
  </g>
  <g
     id="#964f5bff"
     transform="matrix(0.10554785,0,0,0.10554785,-0.03010173,-0.01794201)">
    <path
       d="m 112.35,72.43 c 7.01,-7.33 14.8,-13.89 22.93,-19.93 10,1.19 20.08,0.39 30.11,0.6 -0.02,6.66 0,13.33 -0.03,19.99 -14.13,0.11 -28.27,0 -42.4,0.1 -3.55,0.03 -7.1,-0.29 -10.61,-0.76 z"
       id="path67"
       inkscape:connector-curvature="0"
       style="opacity:1;fill:#964f5b" />
  </g>
  <g
     id="#8d414eff"
     transform="matrix(0.10554785,0,0,0.10554785,-0.03010173,-0.01794201)">
    <path
       d="m 112.11,72.4 0.24,0.03 c 3.51,0.47 7.06,0.79 10.61,0.76 14.13,-0.1 28.27,0.01 42.4,-0.1 0,6.52 -0.1,13.03 0.08,19.55 -2.64,1.96 -5.28,3.92 -7.83,6 -8.14,-1.47 -16.42,-0.54 -24.64,-0.78 -14.13,-0.2 -28.26,0.35 -42.38,-0.23 6.48,-8.98 13.8,-17.32 21.52,-25.23 z"
       id="path70"
       inkscape:connector-curvature="0"
       style="opacity:1;fill:#8d414e" />
  </g>
  <g
     id="#863643ff"
     transform="matrix(0.10554785,0,0,0.10554785,-0.03010173,-0.01794201)">
    <path
       d="m 81.42,111.42 c 2.78,-4.78 5.88,-9.36 9.17,-13.79 14.12,0.58 28.25,0.03 42.38,0.23 8.22,0.24 16.5,-0.69 24.64,0.78 -5.06,4.21 -9.9,8.7 -14.39,13.53 -14.07,-0.42 -28.14,-0.09 -42.21,-0.22 -6.53,0.03 -13.09,0.33 -19.59,-0.53 z"
       id="path73"
       inkscape:connector-curvature="0"
       style="opacity:1;fill:#863643" />
  </g>
  <g
     id="#812c3aff"
     transform="matrix(0.10554785,0,0,0.10554785,-0.03010173,-0.01794201)">
    <path
       d="m 81.16,111.39 0.26,0.03 c 6.5,0.86 13.06,0.56 19.59,0.53 14.07,0.13 28.14,-0.2 42.21,0.22 -4.66,5.05 -9.03,10.37 -12.99,15.98 -19.28,-0.47 -38.57,0.29 -57.83,-0.39 2.48,-5.68 5.81,-10.92 8.76,-16.37 z"
       id="path76"
       inkscape:connector-curvature="0"
       style="opacity:1;fill:#812c3a" />
  </g>
  <g
     id="#7a2130ff"
     transform="matrix(0.10554785,0,0,0.10554785,-0.03010173,-0.01794201)">
    <path
       d="m 72.09,127.75 0.31,0.01 c 19.26,0.68 38.55,-0.08 57.83,0.39 -28.19,39.73 -37.6,92.63 -22.88,139.3 9.98,32.48 30.41,61.85 58.07,81.73 -0.13,8.76 -0.46,17.57 0.12,26.31 18.09,0.54 36.23,0.13 54.33,0.19 3.83,0.31 7.53,1.43 11.29,2.15 10.48,2.02 21.15,2.93 31.81,3.02 18.28,0.37 36.19,-4.33 53.48,-9.81 10.1,13.74 20.61,27.18 31.02,40.7 -21.75,10.39 -45.53,16.06 -69.49,18.09 -30.36,2.91 -61.29,-1.45 -89.87,-12.01 C 157.58,406.63 129.85,388.1 107.65,364.36 81.51,336.91 63.2,302.15 55.34,265.08 c -7.7,-35.68 -6.08,-73.4 5.2,-108.14 3.03,-10.04 7.2,-19.67 11.55,-29.19 z"
       id="path79"
       inkscape:connector-curvature="0"
       style="opacity:1;fill:#7a2130" />
  </g>
</svg>
