<?xml version="1.0" encoding="iso-8859-1"?>
<!-- Generator: Adobe Illustrator 16.0.0, SVG Export Plug-In . SVG Version: 6.00 Build 0)  -->
<!DOCTYPE svg PUBLIC "-//W3C//DTD SVG 1.1//EN" "http://www.w3.org/Graphics/SVG/1.1/DTD/svg11.dtd">
<svg version="1.1" id="Layer_1" xmlns="http://www.w3.org/2000/svg" xmlns:xlink="http://www.w3.org/1999/xlink" x="0px" y="0px"
	 width="64px" height="64px" viewBox="0 0 64 64" style="enable-background:new 0 0 64 64;" xml:space="preserve">
<g>
	<path style="fill-rule:evenodd;clip-rule:evenodd;fill:#FFFFFF;" d="M32.457,64c-1.584,0-3.17,0-4.754,0
		c-0.207-0.339-0.585-0.267-0.888-0.348c-2.788-0.746-5.14-2.186-7.028-4.368c-0.225-0.26-0.536-0.492-0.552-0.946
		c1.327-0.011,2.63-0.037,3.928-0.188c4.547-0.536,7.605-3.638,7.9-8.056c0.087-1.307-0.148-2.554-0.826-3.687
		c-1.449-2.423-4.698-2.656-6.163-0.448c-0.625,0.94-0.7,1.855-0.209,2.562c0.529,0.758,1.57,1.093,2.626,0.785
		c0.517-0.151,1.004-0.401,1.513-0.609c0.248,3.38-3.248,6.477-6.6,5.877c-2.997-0.535-5.917-3.749-6.125-6.825
		c-0.041-0.605-0.244-0.883-0.774-1.147c-1.575-0.785-2.601-2.024-2.941-3.914c1.064,0.437,1.995,0.864,3.005,1.086
		c3.161,0.692,5.786-0.718,6.921-3.744c0.248-0.66,0.423-1.343,0.47-2.041c0.207-3.046-0.567-5.694-3.26-7.463
		c-2.705-1.774-5.506-1.732-8.307-0.236c-1.463,0.781-2.286,2.035-2.518,3.7c-0.172,1.233,0.187,2.391,0.448,3.622
		c-1.647-0.537-2.993-1.409-3.733-2.879c-0.656-1.296-1.261-2.568-2.388-3.547c-0.675-0.586-0.687-1.583-1.197-2.293
		c0-0.853,0-1.706,0-2.561c0.534-1.054,1.035-2.117,0.388-3.308c-0.451-0.83-0.084-1.347,0.619-1.795
		c0.99-0.632,2.068-1.04,3.197-1.304c3.675-0.853,7.354-1.694,11.04-2.504c0.531-0.117,0.907-0.286,1.035-0.84
		c0.182-0.781,0.74-1.211,1.414-1.563c2.023-1.058,4.002-2.204,6.063-3.179c1.121-0.529,1.583-1.233,1.706-2.463
		c0.292-2.934,1.351-5.482,4.105-7.029c1.53-0.86,3.159-1.405,4.853-1.82C36.143,0.354,36.933,0.466,37.577,0
		c2.378,0,4.755,0,7.132,0c0.065,0.25,0.28,0.178,0.444,0.2c1.324,0.193,2.632,0.46,3.894,0.91c4.172,1.487,7.363,4.039,8.958,8.309
		c-0.06,0.045-0.119,0.093-0.18,0.138c-2.27-1.589-4.597-3.072-7.249-3.967c-2.657-0.896-5.354-1.322-8.148-0.733
		c1.16,0.178,2.315,0.361,3.457,0.63c9.003,2.108,14.496,7.724,16.667,16.665c0.16,0.661,0.059,1.378,0.442,1.986
		c0,1.523,0,3.048,0,4.57c-0.236,0.074-0.186,0.286-0.205,0.452c-0.473,3.865-1.813,7.431-3.713,10.804
		c-0.229,0.407-0.426,0.848-0.931,1.262c0.141-5.213-1.022-9.872-4.438-13.764c-3.349-3.812-7.672-5.893-12.54-6.964
		c1.937,0.933,3.847,1.911,5.644,3.104c4.048,2.687,6.998,6.191,8.258,10.976c0.628,2.384,0.817,4.816,0.648,7.251
		c-0.53,7.618-3.945,13.43-10.871,16.967c-0.31,0.159-0.611,0.416-0.982,0.212c1.889-4.177,2.84-8.454,1.196-12.922
		c-1.619-4.4-4.889-7.234-9.117-9.372c0.046,0.282,0.041,0.323,0.058,0.337c0.531,0.452,1.065,0.898,1.594,1.353
		c4.273,3.664,6.225,8.309,5.834,13.921c-0.401,5.753-3.898,9.901-9.44,11.258C33.476,63.709,32.912,63.657,32.457,64z
		 M25.694,21.225c1.54-0.285,2.923-0.976,4.037-2.181c0.281-0.305,0.21-0.46-0.17-0.539c-1.893-0.397-3.787-0.509-5.68-0.002
		c-0.186,0.049-0.412,0.069-0.449,0.363C23.319,19.725,24.729,21.248,25.694,21.225z"/>
</g>
</svg>
