<?xml version="1.0" encoding="utf-8"?>
<!-- Generator: Adobe Illustrator 23.0.3, SVG Export Plug-In . SVG Version: 6.00 Build 0)  -->
<svg version="1.1" id="Layer_1" xmlns="http://www.w3.org/2000/svg" xmlns:xlink="http://www.w3.org/1999/xlink" x="0px" y="0px"
	 width="64px" height="64px" viewBox="0 0 64 64" enable-background="new 0 0 64 64" xml:space="preserve">
<g>
	<path d="M32.797,51.009c-0.765,0-1.53,0-2.294,0c-0.041-0.024-0.087-0.012-0.13-0.011c-0.551,0.005-1.102-0.016-1.653-0.027
		c-0.76-0.016-1.516-0.087-2.271-0.163c-1.607-0.16-3.201-0.401-4.781-0.73c-1.269-0.264-2.525-0.583-3.765-0.961
		c-1.372-0.418-2.715-0.915-4.027-1.493c-1.358-0.597-2.667-1.286-3.921-2.079c-0.93-0.588-1.819-1.231-2.663-1.938
		c-0.627-0.525-1.213-1.093-1.78-1.682c-0.159-0.165-0.312-0.336-0.463-0.508c-0.087-0.099-0.191-0.133-0.321-0.132
		c-1.075,0.003-2.149,0.004-3.224,0.001c-0.592-0.002-1.229-0.455-1.429-1.005c-0.051-0.14-0.037-0.289-0.073-0.43
		C0,34.9,0,29.95,0,24.999c0.02-0.032,0.021-0.07,0.021-0.104c-0.001-0.593,0.655-1.238,1.286-1.307
		c0.136-0.015,0.272-0.025,0.409-0.025c0.938,0.001,1.875-0.001,2.813,0.003c0.139,0.001,0.245-0.034,0.339-0.142
		c0.462-0.531,0.946-1.043,1.455-1.53c0.707-0.676,1.459-1.3,2.25-1.876c0.942-0.684,1.925-1.303,2.947-1.861
		c1.17-0.639,2.378-1.199,3.618-1.686c1.428-0.562,2.887-1.029,4.371-1.417c1.43-0.374,2.876-0.667,4.335-0.899
		c0.77-0.122,1.544-0.219,2.32-0.303c0.591-0.064,1.184-0.116,1.777-0.159c0.34-0.025,0.683-0.026,1.025-0.034
		c0.494-0.011,0.987-0.025,1.481-0.022c0.02,0,0.04,0.003,0.057-0.012c0.765,0,1.53,0,2.294,0c0.037,0.023,0.078,0.012,0.118,0.011
		c0.802-0.002,1.603,0.019,2.403,0.055c0.429,0.02,0.857,0.066,1.285,0.108c0.576,0.057,1.151,0.12,1.726,0.196
		c0.738,0.098,1.473,0.212,2.206,0.343c1.074,0.192,2.139,0.426,3.194,0.7c1.865,0.484,3.687,1.092,5.457,1.856
		c0.68,0.294,1.351,0.606,2.008,0.948c0.836,0.435,1.651,0.904,2.44,1.419c0.864,0.563,1.693,1.173,2.478,1.842
		c0.306,0.261,0.598,0.538,0.894,0.809c0.416,0.382,0.786,0.806,1.177,1.21c0.1,0.104,0.197,0.213,0.294,0.32
		c0.08,0.089,0.172,0.121,0.288,0.121c0.523-0.002,1.046-0.001,1.57-0.001c0.567,0,1.135-0.001,1.702,0
		c0.86,0.001,1.527,0.576,1.653,1.423c0.011,0.076,0.008,0.153,0.008,0.229c0,1.775,0.001,3.55-0.002,5.324
		c0,0.152,0.029,0.284,0.122,0.406c0.124,0.162,0.16,0.355,0.171,0.553c0.002,0.039-0.012,0.08,0.012,0.118c0,2.737,0,5.474,0,8.211
		c-0.029,0.065-0.01,0.134-0.017,0.201c-0.044,0.407-0.281,0.69-0.594,0.921c-0.306,0.226-0.66,0.311-1.034,0.312
		c-1.227,0.003-2.455,0.004-3.682-0.002c-0.171-0.001-0.3,0.048-0.414,0.174c-0.351,0.388-0.726,0.753-1.096,1.123
		c-0.741,0.741-1.551,1.403-2.394,2.022c-0.786,0.577-1.606,1.1-2.453,1.582c-0.917,0.522-1.858,0.994-2.822,1.424
		c-1.059,0.473-2.141,0.887-3.241,1.253c-1.456,0.484-2.937,0.876-4.438,1.197c-1.071,0.229-2.149,0.414-3.232,0.566
		c-0.657,0.092-1.316,0.166-1.976,0.23c-0.79,0.077-1.58,0.136-2.375,0.145c-0.439,0.005-0.878,0.023-1.317,0.022
		C32.875,50.998,32.834,50.985,32.797,51.009z"/>
	<path fill="#ACACAC" d="M38.098,34.919c0.129,0.123,0.241,0.231,0.355,0.337c0.462,0.431,0.923,0.862,1.386,1.292
		c0.713,0.663,1.425,1.327,2.142,1.986c0.281,0.258,0.576,0.502,0.865,0.752c0.024,0.021,0.05,0.041,0.072,0.064
		c0.167,0.167,0.115,0.422-0.108,0.493c-0.121,0.039-0.251,0.068-0.378,0.069c-1.143,0.005-2.286,0.003-3.429,0.002
		c-0.261,0-0.523-0.011-0.784-0.009c-0.227,0.002-0.417-0.081-0.578-0.233c-0.357-0.337-0.71-0.679-1.065-1.018
		c-0.873-0.834-1.747-1.667-2.619-2.502c-0.247-0.236-0.494-0.474-0.734-0.718c-0.121-0.123-0.253-0.176-0.429-0.175
		c-1.179,0.007-2.359,0.005-3.538,0.006c-0.044,0-0.089,0.001-0.133-0.001c-0.136-0.009-0.244-0.099-0.274-0.232
		c-0.01-0.047-0.012-0.096-0.012-0.144c-0.001-0.95-0.001-1.9,0-2.85c0-0.278,0.112-0.388,0.387-0.388
		c1.304-0.002,2.608-0.004,3.912-0.006c0.632-0.001,1.264-0.006,1.896-0.004c0.721,0.002,1.426-0.114,2.124-0.278
		c0.124-0.029,0.247-0.077,0.361-0.133c0.308-0.152,0.495-0.402,0.569-0.737c0.054-0.247,0.056-0.496,0.014-0.744
		c-0.061-0.362-0.259-0.626-0.584-0.796c-0.278-0.145-0.578-0.22-0.882-0.282c-0.482-0.099-0.971-0.137-1.462-0.149
		c-0.145-0.003-0.29-0.004-0.435-0.004c-2.306-0.004-4.612-0.008-6.918-0.011c-0.051,0-0.102,0-0.169,0c0,0.076,0,0.135,0,0.194
		c0,3.598,0,7.196,0,10.795c0,0.06,0.003,0.121-0.002,0.181c-0.011,0.156-0.127,0.268-0.282,0.277
		c-0.032,0.002-0.064,0.001-0.097,0.001c-1.211,0-2.423,0-3.634-0.001c-0.036,0-0.073,0.001-0.109-0.001
		c-0.151-0.009-0.265-0.115-0.281-0.265c-0.005-0.048-0.004-0.096-0.004-0.145c0-4.749,0.001-9.499-0.003-14.248
		c0-0.315,0.156-0.411,0.405-0.41c1.05,0.004,2.101-0.001,3.151-0.003c1.59-0.002,3.179-0.005,4.769-0.003
		c0.966,0.001,1.932,0.005,2.898,0.015c0.467,0.005,0.934,0.014,1.399,0.04c1.031,0.059,2.047,0.212,3.03,0.547
		c0.615,0.21,1.204,0.476,1.742,0.846c0.805,0.553,1.355,1.295,1.657,2.222c0.311,0.955,0.357,1.919,0.081,2.888
		c-0.309,1.085-0.967,1.912-1.91,2.52c-0.422,0.272-0.878,0.472-1.352,0.633c-0.289,0.098-0.581,0.189-0.872,0.284
		C38.2,34.885,38.163,34.898,38.098,34.919z"/>
	<path fill="#ACACAC" d="M17.706,35.131c0-0.086,0-0.142,0-0.198c0-3.192,0-6.384,0-9.576c0-0.052-0.002-0.105,0.002-0.157
		c0.016-0.175,0.133-0.286,0.309-0.293c0.036-0.002,0.072-0.001,0.109-0.001c1.183,0,2.367,0,3.55,0
		c0.044,0,0.089-0.002,0.133,0.002c0.147,0.012,0.256,0.11,0.279,0.256c0.008,0.047,0.007,0.096,0.007,0.144
		c0,4.758,0,9.515,0,14.273c0,0.04,0.002,0.081-0.003,0.121c-0.018,0.149-0.131,0.257-0.281,0.269
		c-0.04,0.003-0.08,0.002-0.121,0.002c-1.111,0-2.222,0-3.333-0.001c-0.221,0-0.443-0.002-0.664-0.004
		c-0.251-0.002-0.472-0.082-0.664-0.246c-1.607-1.37-3.215-2.738-4.822-4.108c-1.592-1.357-3.182-2.716-4.773-4.073
		c-0.554-0.473-1.108-0.945-1.662-1.417c-0.03-0.026-0.063-0.048-0.105-0.081c-0.007,0.037-0.015,0.062-0.016,0.088
		c-0.002,0.056-0.001,0.113-0.001,0.169c0,3.071,0,6.142,0,9.213c0,0.056,0.002,0.113-0.002,0.169
		c-0.011,0.144-0.121,0.255-0.264,0.268c-0.044,0.004-0.088,0.002-0.133,0.002c-1.191,0-2.383-0.005-3.574,0.004
		c-0.31,0.002-0.4-0.166-0.4-0.399c0.004-4.75,0.003-9.499,0.003-14.249c0-0.044-0.002-0.089,0.003-0.133
		c0.016-0.158,0.139-0.28,0.306-0.28c1.248,0.004,2.496,0.002,3.743,0.003c0.223,0,0.416,0.083,0.584,0.226
		c0.825,0.7,1.65,1.4,2.475,2.1c1.309,1.112,2.618,2.224,3.926,3.336c1.591,1.352,3.181,2.705,4.771,4.057
		c0.165,0.141,0.331,0.282,0.496,0.422C17.617,35.066,17.649,35.088,17.706,35.131z"/>
	<path fill="#ACACAC" d="M58.325,36.343c0-0.59,0-1.167,0-1.761c-0.064,0-0.119,0-0.174,0c-1.147,0-2.294,0-3.441-0.001
		c-0.06,0-0.122-0.001-0.179-0.015c-0.133-0.032-0.213-0.132-0.223-0.267c-0.003-0.04-0.002-0.08-0.002-0.121
		c0-0.753,0-1.505,0-2.258c0-0.04-0.001-0.081,0.002-0.121c0.012-0.15,0.12-0.261,0.27-0.277c0.032-0.003,0.064-0.003,0.096-0.003
		c1.481-0.007,2.962-0.014,4.443-0.02c0.704-0.003,1.409-0.006,2.113-0.003c0.39,0.001,0.781,0.01,1.171,0.021
		c0.236,0.007,0.342,0.123,0.342,0.359c0,2.56-0.001,5.12,0.003,7.679c0,0.212-0.123,0.366-0.376,0.366
		c-1.787-0.004-3.574-0.001-5.361-0.002c-2.077-0.001-4.154,0-6.23-0.005c-0.478-0.001-0.958-0.016-1.435-0.046
		c-0.965-0.061-1.906-0.236-2.803-0.614c-0.602-0.254-1.157-0.58-1.637-1.028c-0.638-0.596-1.051-1.325-1.285-2.161
		c-0.122-0.436-0.184-0.882-0.184-1.335c-0.001-1.566-0.021-3.132,0.006-4.697c0.02-1.107,0.353-2.122,1.089-2.978
		c0.391-0.454,0.87-0.799,1.397-1.076c0.808-0.425,1.669-0.695,2.564-0.859c0.606-0.111,1.217-0.179,1.833-0.199
		c0.35-0.011,0.7-0.023,1.05-0.023c1.356-0.003,2.713,0,4.069-0.001c1.682-0.001,3.365-0.004,5.047-0.006
		c0.463-0.001,0.926-0.002,1.389-0.003c0.032,0,0.064,0.002,0.097,0c0.254-0.015,0.398,0.114,0.396,0.392
		c-0.008,0.95-0.003,1.9-0.003,2.85c0,0.028,0,0.056-0.001,0.085c-0.009,0.171-0.115,0.284-0.286,0.301
		c-0.056,0.005-0.113,0.003-0.169,0.003c-3.546,0-7.092-0.001-10.638,0.002c-0.346,0-0.692,0.011-1.037,0.034
		c-0.483,0.031-0.959,0.105-1.42,0.258c-0.118,0.039-0.234,0.086-0.345,0.143c-0.372,0.189-0.567,0.501-0.602,0.913
		c-0.013,0.156-0.019,0.313-0.019,0.47c-0.001,1.421-0.001,2.842,0,4.262c0,0.141,0.007,0.282,0.021,0.422
		c0.047,0.46,0.298,0.769,0.719,0.948c0.306,0.13,0.627,0.203,0.952,0.26c0.477,0.083,0.959,0.116,1.442,0.117
		c2.407,0.005,4.814,0.004,7.221,0.005C58.239,36.349,58.275,36.346,58.325,36.343z"/>
	<path fill="#ABABAB" d="M42.998,27.199c-0.164-0.244-0.317-0.473-0.483-0.722c0.314-0.004,0.613,0,0.912-0.003
		c-0.016-0.568-1.367-3.583-1.923-4.298c-1.68,0-3.361,0-5.05,0c0.112,0.547,0.223,1.085,0.337,1.642
		c-0.292-0.004-0.564-0.051-0.842-0.06c-0.118-0.528-0.235-1.05-0.35-1.564c-0.098-0.031-7.679-0.042-7.886-0.013
		c-0.059,0.247-0.121,0.5-0.178,0.754c-0.057,0.25-0.108,0.501-0.163,0.756c-0.279,0-0.546,0-0.826,0
		c0.085-0.512,0.199-1.008,0.309-1.517c-0.057-0.002-0.1-0.006-0.143-0.006c-1.598,0-3.196,0.001-4.794-0.002
		c-0.093,0-0.147,0.027-0.191,0.109c-0.239,0.442-0.486,0.88-0.722,1.324c-0.048,0.089-0.096,0.131-0.201,0.127
		c-0.221-0.008-0.443-0.002-0.664-0.002c-0.039,0-0.079,0-0.142,0c0.225-0.536,0.475-1.037,0.746-1.544
		c-0.049-0.005-0.079-0.011-0.109-0.011c-1.501,0-3.003,0-4.504-0.002c-0.076,0-0.127,0.026-0.179,0.078
		c-0.911,0.929-1.712,1.945-2.374,3.066c-0.196,0.332-0.37,0.678-0.554,1.018c-0.021,0.038-0.037,0.079-0.064,0.138
		c0.064,0.003,0.113,0.008,0.163,0.008c0.89,0,1.779,0,2.669,0c0.201,0,0.403,0,0.604,0c0.039,0,0.079,0.003,0.115,0.005
		c0.028,0.103,0.031,0.874,0.004,1.004c-0.048,0.002-0.099,0.006-0.149,0.006c-1.232,0-2.463,0-3.695,0
		c-0.185,0-0.157-0.014-0.212,0.147c-0.116,0.339-0.223,0.68-0.334,1.021c-0.013,0.041-0.025,0.083-0.041,0.136
		c-0.034-0.022-0.058-0.034-0.078-0.051c-0.169-0.143-0.335-0.289-0.507-0.428c-0.059-0.048-0.075-0.093-0.051-0.165
		c0.057-0.172,0.106-0.346,0.159-0.519c0.011-0.038,0.021-0.076,0.037-0.13c-0.051-0.004-0.093-0.009-0.135-0.009
		c-0.286-0.001-0.572-0.003-0.857,0.001c-0.081,0.001-0.145-0.019-0.207-0.073c-0.335-0.289-0.673-0.574-1.01-0.861
		c-0.021-0.018-0.04-0.037-0.082-0.077c0.066-0.002,0.107-0.005,0.148-0.005c0.781,0,1.562,0,2.343,0
		c0.032,0,0.065-0.004,0.096,0.001c0.083,0.012,0.119-0.029,0.151-0.102c0.646-1.487,1.503-2.842,2.548-4.081
		c0.023-0.028,0.046-0.056,0.067-0.085c0.004-0.005,0.001-0.015,0.001-0.034c-0.037-0.002-0.075-0.006-0.113-0.006
		c-1.59,0-3.18,0-4.77-0.002c-0.076,0-0.137,0.021-0.199,0.066c-0.891,0.646-1.729,1.355-2.499,2.142
		c-0.036,0.037-0.063,0.083-0.099,0.131c-0.274-0.219-0.501-0.452-0.819-0.582c0.093-0.103,0.174-0.197,0.258-0.287
		c0.864-0.922,1.815-1.744,2.834-2.49c1.385-1.013,2.867-1.862,4.417-2.594c1.056-0.498,2.138-0.934,3.24-1.319
		c1.212-0.423,2.443-0.782,3.691-1.084c1.141-0.276,2.292-0.507,3.453-0.685c0.691-0.106,1.385-0.193,2.079-0.275
		c0.511-0.06,1.023-0.106,1.536-0.146c0.513-0.04,1.027-0.069,1.541-0.098c0.94-0.053,1.882-0.067,2.823-0.06
		c0.398,0.003,0.797,0.009,1.195,0.023c0.506,0.018,1.013,0.036,1.518,0.073c0.75,0.055,1.499,0.113,2.246,0.193
		c1.776,0.191,3.535,0.485,5.275,0.89c1.927,0.449,3.813,1.028,5.647,1.772c1.881,0.763,3.68,1.683,5.363,2.823
		c1.042,0.705,2.024,1.484,2.924,2.366c0.178,0.175,0.352,0.354,0.527,0.532c0.039,0.04,0.075,0.083,0.124,0.137
		c-0.04,0.008-0.064,0.017-0.088,0.017c-0.407,0.001-0.813,0-1.22,0.001c-0.061,0-0.106-0.019-0.151-0.059
		c-0.564-0.517-1.162-0.992-1.781-1.443c-0.069-0.05-0.134-0.079-0.222-0.053c-0.052,0.015-0.112,0.008-0.168,0.008
		c-1.505,0-3.011,0-4.516,0c-0.051,0-0.101,0-0.152,0c-0.004,0.008-0.008,0.016-0.012,0.025c0.417,0.499,0.817,1.009,1.186,1.565
		c-0.05,0.011-0.086,0.023-0.124,0.028c-0.256,0.028-0.512,0.05-0.767,0.083c-0.086,0.011-0.137-0.008-0.192-0.077
		c-0.273-0.338-0.549-0.674-0.832-1.003c-0.162-0.189-0.342-0.364-0.511-0.547c-0.047-0.051-0.098-0.073-0.168-0.073
		c-1.501,0.002-3.003,0.001-4.504,0.002c-0.031,0-0.063,0.005-0.108,0.008c0.018,0.041,0.03,0.074,0.047,0.104
		c0.592,1.089,1.062,2.23,1.438,3.409c0.004,0.011,0.005,0.024,0.01,0.035c0.036,0.072,0.017,0.123-0.043,0.178
		c-0.214,0.196-0.414,0.407-0.585,0.642c-0.128,0.176-0.244,0.359-0.365,0.539C43.046,27.118,43.026,27.153,42.998,27.199z"/>
	<path fill="#ABABAB" d="M43.268,40.954c-0.214,0.535-0.471,1.046-0.751,1.564c0.056,0.005,0.091,0.01,0.125,0.01
		c1.485,0.001,2.97,0,4.456,0.002c0.069,0,0.12-0.019,0.17-0.069c0.435-0.437,0.846-0.895,1.228-1.378
		c0.059-0.074,0.115-0.104,0.212-0.094c0.267,0.03,0.536,0.047,0.805,0.07c0.031,0.003,0.062,0.007,0.114,0.013
		c-0.343,0.509-0.719,0.971-1.121,1.45c0.071,0.003,0.117,0.006,0.163,0.006c1.368,0,2.737,0,4.105,0
		c0.085,0,0.17-0.006,0.253,0.002c0.083,0.008,0.168,0.022,0.245,0.052c0.065,0.026,0.109,0.02,0.165-0.019
		c0.603-0.424,1.184-0.875,1.736-1.363c0.081-0.072,0.162-0.102,0.27-0.1c0.374,0.006,0.749,0.002,1.123,0.002
		c0.04,0,0.079,0,0.15,0c-0.041,0.049-0.063,0.079-0.088,0.105c-0.485,0.501-0.996,0.973-1.532,1.418
		c-1.362,1.131-2.842,2.081-4.41,2.898c-1.8,0.938-3.678,1.684-5.616,2.284c-1.403,0.435-2.826,0.792-4.27,1.065
		c-0.797,0.151-1.599,0.279-2.402,0.397c-0.608,0.09-1.22,0.155-1.831,0.219c-0.488,0.051-0.977,0.088-1.466,0.122
		c-0.437,0.031-0.875,0.051-1.313,0.074c-1.098,0.058-2.196,0.055-3.295,0.036c-0.555-0.01-1.109-0.037-1.663-0.069
		c-0.582-0.033-1.164-0.073-1.744-0.125c-0.848-0.077-1.694-0.179-2.537-0.303C23.022,49,21.509,48.7,20.013,48.313
		c-1.419-0.366-2.814-0.809-4.18-1.338c-1.643-0.637-3.228-1.393-4.737-2.305c-1.281-0.774-2.491-1.646-3.592-2.661
		c-0.399-0.368-0.771-0.765-1.156-1.149c-0.017-0.017-0.03-0.037-0.052-0.065c0.261-0.226,0.432-0.506,0.51-0.855
		c0.034,0.028,0.057,0.042,0.075,0.061c0.869,0.923,1.832,1.738,2.863,2.474c0.052,0.037,0.104,0.053,0.167,0.053
		c1.586-0.001,3.172-0.001,4.758-0.001c0.031,0,0.063-0.004,0.118-0.008c-0.035-0.047-0.057-0.081-0.084-0.113
		c-0.484-0.567-0.93-1.162-1.336-1.787c-0.47-0.723-0.886-1.477-1.23-2.268c-0.045-0.104-0.098-0.141-0.213-0.141
		c-1.634,0.004-3.268,0.003-4.902,0.003c-0.056,0-0.111,0-0.163,0c-0.029-0.1-0.035-0.854-0.01-1.009
		C6.9,37.204,6.955,37.2,7.01,37.2c1.493,0,2.987,0,4.48,0c0.055,0,0.11,0,0.18,0c-0.064-0.213-0.122-0.408-0.18-0.602
		c0.009-0.006,0.018-0.012,0.027-0.018c0.627,0.534,1.254,1.068,1.882,1.602c-0.003,0.009-0.006,0.018-0.009,0.027
		c-0.125,0.004-0.25,0.008-0.391,0.012c0.021,0.051,0.034,0.087,0.051,0.122c0.607,1.221,1.372,2.337,2.276,3.357
		c0.229,0.259,0.473,0.505,0.708,0.759c0.047,0.051,0.099,0.071,0.169,0.071c1.485-0.002,2.97-0.001,4.456-0.002
		c0.035,0,0.069-0.005,0.125-0.01c-0.237-0.453-0.467-0.892-0.672-1.366c0.062,0,0.101,0,0.14,0c0.229,0,0.459,0.006,0.688-0.003
		c0.102-0.004,0.148,0.039,0.193,0.121c0.213,0.388,0.434,0.771,0.647,1.159c0.043,0.079,0.097,0.1,0.183,0.1
		c1.594-0.002,3.188-0.002,4.782-0.002c0.036,0,0.071-0.003,0.123-0.006c-0.008-0.049-0.012-0.09-0.021-0.131
		c-0.081-0.382-0.162-0.763-0.243-1.145c-0.006-0.03-0.007-0.062-0.011-0.103c0.276,0,0.544,0,0.822,0
		c0.023,0.102,0.045,0.204,0.068,0.305c0.073,0.317,0.146,0.635,0.221,0.952c0.03,0.128,0.033,0.128,0.158,0.128
		c2.528,0,5.055,0,7.583,0c0.036,0,0.071-0.003,0.12-0.006c0.231-0.867,0.4-1.745,0.56-2.641c0.034,0.024,0.057,0.036,0.076,0.054
		c0.19,0.18,0.377,0.363,0.569,0.541c0.052,0.048,0.063,0.094,0.049,0.16c-0.12,0.575-0.237,1.15-0.354,1.726
		c-0.01,0.05-0.018,0.1-0.029,0.168c0.063,0,0.111,0,0.158,0c1.574,0,3.148-0.001,4.721,0.003c0.112,0,0.176-0.035,0.229-0.13
		c0.218-0.399,0.444-0.793,0.659-1.193c0.049-0.091,0.1-0.13,0.204-0.122C42.7,41.109,42.98,41.034,43.268,40.954z"/>
	<path fill="#ABABAB" d="M49.036,32.82c0-0.342,0-0.666,0-1.005c0.051-0.003,0.101-0.009,0.151-0.009c0.773,0,1.545,0,2.318,0
		c0.052,0,0.104,0,0.17,0c0.002-0.056,0.008-0.102,0.006-0.148c-0.034-0.615-0.105-1.226-0.22-1.832
		c-0.007-0.038-0.012-0.077-0.018-0.12c0.03-0.006,0.049-0.014,0.068-0.014c0.209-0.001,0.419-0.002,0.628,0
		c0.083,0.001,0.09,0.005,0.102,0.099c0.061,0.454,0.122,0.908,0.176,1.363c0.022,0.183,0.026,0.369,0.038,0.554
		c0.002,0.027,0.007,0.054,0.012,0.095c0.215,0,0.426,0,0.647,0c0,0.342,0,0.67,0,1.013c-0.217,0-0.428,0-0.654,0
		c-0.039,0.793-0.121,1.566-0.278,2.328c-0.095,0.031-0.663,0.034-0.793,0.004c0.16-0.759,0.268-1.526,0.295-2.319
		c-0.057-0.003-0.107-0.009-0.158-0.009c-0.777,0-1.553,0-2.33,0C49.148,32.82,49.1,32.82,49.036,32.82z"/>
	<path fill="#ACACAC" d="M28.848,37.2c0.049,0,0.093,0,0.136,0c1.412,0,2.823,0.001,4.235-0.001c0.086,0,0.15,0.021,0.213,0.083
		c0.293,0.287,0.591,0.569,0.887,0.852c0.017,0.016,0.033,0.034,0.047,0.05c-0.003,0.009-0.003,0.013-0.005,0.016
		c-0.002,0.003-0.005,0.007-0.008,0.007c-1.801,0.003-3.603,0.005-5.404,0.007c-0.032,0-0.063-0.005-0.093-0.007
		C28.828,38.117,28.82,37.371,28.848,37.2z"/>
	<path d="M35.291,21.146c-2.431,0-4.848,0-7.277,0c0.008-0.041,0.012-0.075,0.022-0.108c0.284-0.92,0.617-1.821,1.066-2.675
		c0.274-0.521,0.587-1.017,0.992-1.45c0.213-0.227,0.447-0.429,0.722-0.579c0.583-0.319,1.162-0.303,1.732,0.034
		c0.395,0.233,0.704,0.559,0.979,0.92c0.442,0.58,0.773,1.223,1.063,1.888c0.262,0.602,0.48,1.22,0.673,1.847
		C35.274,21.059,35.28,21.098,35.291,21.146z"/>
	<path d="M22.502,21.137c0.064-0.086,0.118-0.16,0.174-0.233c0.922-1.188,1.991-2.219,3.253-3.044
		c0.97-0.634,2.01-1.114,3.131-1.413c0.037-0.01,0.076-0.017,0.136-0.03c-0.028,0.047-0.041,0.075-0.059,0.099
		c-0.469,0.654-0.833,1.365-1.148,2.103c-0.329,0.775-0.596,1.571-0.826,2.38c-0.013,0.046-0.028,0.092-0.041,0.134
		C27.025,21.159,22.659,21.164,22.502,21.137z"/>
	<path d="M34.134,16.422c0.038,0.009,0.076,0.017,0.114,0.027c1.213,0.325,2.329,0.86,3.363,1.57
		c1.161,0.798,2.153,1.772,3.015,2.883c0.056,0.073,0.111,0.146,0.163,0.215c-0.008,0.015-0.009,0.019-0.012,0.022
		c-0.002,0.003-0.005,0.008-0.008,0.008c-1.485,0.003-2.97,0.005-4.455,0.007c-0.04,0-0.079,0-0.126,0
		c-0.017-0.053-0.032-0.098-0.045-0.144c-0.27-0.949-0.589-1.881-1.001-2.78c-0.276-0.601-0.592-1.179-0.978-1.717
		c-0.016-0.022-0.029-0.046-0.044-0.069C34.124,16.438,34.129,16.43,34.134,16.422z"/>
	<path d="M46.123,21.155c-0.044,0-0.087,0-0.131,0c-1.299,0-2.599-0.001-3.898,0.002c-0.109,0-0.173-0.032-0.233-0.124
		c-0.609-0.937-1.307-1.803-2.102-2.59c-0.518-0.513-1.073-0.984-1.665-1.409c-0.029-0.021-0.057-0.042-0.097-0.073
		c0.052-0.019,0.086,0.001,0.121,0.011c0.877,0.241,1.736,0.534,2.578,0.88c1.366,0.561,2.663,1.251,3.883,2.084
		c0.512,0.35,1.006,0.723,1.481,1.121c0.027,0.022,0.05,0.048,0.075,0.071C46.132,21.137,46.127,21.146,46.123,21.155z"/>
	<path d="M17.167,21.118c2.387-2,5.11-3.345,8.1-4.171c0.006,0.009,0.012,0.019,0.018,0.028c-0.036,0.028-0.072,0.056-0.109,0.082
		c-0.721,0.519-1.382,1.106-1.991,1.751c-0.65,0.689-1.232,1.434-1.748,2.228c-0.058,0.089-0.118,0.12-0.223,0.12
		c-1.304-0.004-2.608-0.002-3.912-0.002c-0.043,0-0.086,0-0.128,0C17.172,21.142,17.17,21.13,17.167,21.118z"/>
	<path d="M52.003,21.155c-0.055,0-0.095,0-0.135,0c-1.372,0-2.745-0.001-4.117,0.002c-0.091,0-0.157-0.025-0.223-0.09
		c-1.266-1.253-2.682-2.307-4.231-3.184c-0.311-0.176-0.631-0.339-0.947-0.508c-0.028-0.015-0.056-0.03-0.081-0.063
		c0.031,0.005,0.062,0.007,0.092,0.014c0.783,0.185,1.559,0.394,2.329,0.627c1.048,0.316,2.081,0.677,3.096,1.087
		c1.42,0.574,2.794,1.24,4.11,2.025c0.028,0.016,0.055,0.033,0.082,0.051C51.986,21.119,51.988,21.128,52.003,21.155z"/>
	<path d="M21.01,17.34c-0.127,0.067-0.254,0.134-0.381,0.2c-1.424,0.747-2.75,1.639-3.962,2.697
		c-0.312,0.272-0.61,0.561-0.912,0.845c-0.05,0.047-0.098,0.073-0.169,0.073c-1.401-0.002-2.801-0.001-4.202-0.002
		c-0.024,0-0.047-0.003-0.079-0.005c0.014-0.051,0.058-0.06,0.089-0.079c0.698-0.417,1.414-0.801,2.146-1.156
		c1.436-0.696,2.918-1.277,4.437-1.765c0.973-0.313,1.957-0.584,2.951-0.823c0.023-0.005,0.047-0.006,0.07-0.009
		C21.003,17.325,21.007,17.333,21.01,17.34z"/>
	<path d="M35.267,43.563c-0.009,0.038-0.017,0.076-0.028,0.114c-0.271,0.874-0.592,1.728-1.014,2.541
		c-0.272,0.523-0.583,1.02-0.981,1.457c-0.161,0.177-0.16,0.178-0.401,0.178c-0.825,0-1.65-0.002-2.475,0.002
		c-0.103,0.001-0.171-0.035-0.239-0.107c-0.455-0.482-0.797-1.039-1.096-1.625c-0.401-0.787-0.707-1.613-0.97-2.455
		c-0.008-0.027-0.015-0.054-0.02-0.082c-0.001-0.007,0.003-0.015,0.004-0.023C28.141,43.538,35.143,43.535,35.267,43.563z"/>
	<path d="M40.738,43.575c-0.14,0.176-0.277,0.354-0.42,0.527c-0.845,1.019-1.805,1.91-2.913,2.638
		c-0.647,0.426-1.329,0.785-2.051,1.066c-0.069,0.027-0.147,0.041-0.222,0.043c-0.213,0.006-0.426,0.002-0.64,0.002
		c-0.04,0-0.079,0-0.137,0c0.162-0.283,0.322-0.545,0.464-0.817c0.146-0.277,0.283-0.56,0.41-0.847
		c0.126-0.283,0.241-0.571,0.35-0.86c0.111-0.293,0.213-0.59,0.31-0.888c0.096-0.293,0.183-0.59,0.274-0.89c1.523,0,3.042,0,4.56,0
		C40.729,43.559,40.734,43.567,40.738,43.575z"/>
	<path d="M27.144,43.557c0.432,1.496,0.954,2.95,1.806,4.279c-0.04,0.007-0.066,0.014-0.092,0.014
		c-0.241,0.001-0.483,0.003-0.724-0.001c-0.062-0.001-0.127-0.02-0.186-0.043c-0.86-0.334-1.66-0.778-2.411-1.312
		c-1.114-0.792-2.071-1.746-2.901-2.83c-0.024-0.031-0.045-0.064-0.069-0.099C22.664,43.54,26.969,43.531,27.144,43.557z"/>
	<path d="M17.268,43.544c0.039,0,0.079,0,0.118,0c1.296,0,2.591,0.001,3.887-0.002c0.101,0,0.159,0.034,0.213,0.117
		c0.653,0.992,1.404,1.902,2.264,2.722c0.461,0.439,0.95,0.843,1.467,1.215c0.025,0.018,0.048,0.039,0.08,0.064
		c-0.242,0.004-1.95-0.574-2.869-0.962c-0.936-0.394-1.84-0.85-2.711-1.372c-0.866-0.52-1.689-1.1-2.463-1.748
		C17.26,43.566,17.264,43.555,17.268,43.544z"/>
	<path d="M46.05,43.576c-0.148,0.12-0.295,0.243-0.445,0.361c-1.402,1.097-2.927,1.985-4.561,2.689
		c-0.983,0.423-1.991,0.774-3.024,1.052c-0.008-0.01-0.016-0.02-0.024-0.03c0.023-0.013,0.046-0.024,0.068-0.039
		c1.325-0.941,2.435-2.096,3.383-3.411c0.132-0.183,0.26-0.368,0.382-0.557c0.048-0.074,0.101-0.098,0.187-0.098
		c1.054,0.002,2.108,0.002,3.162,0.002c0.241,0,0.483,0,0.724,0c0.044,0,0.088,0,0.132,0C46.039,43.555,46.044,43.566,46.05,43.576z
		"/>
	<path d="M11.438,43.544c0.044,0,0.088,0,0.132,0c1.352,0,2.705,0.001,4.057-0.001c0.09,0,0.157,0.023,0.223,0.088
		c0.546,0.536,1.124,1.036,1.73,1.503c1.043,0.802,2.153,1.498,3.326,2.092c0.038,0.019,0.076,0.041,0.108,0.079
		c-0.025-0.003-0.05-0.003-0.074-0.009c-0.858-0.2-1.707-0.433-2.548-0.693c-1.254-0.387-2.485-0.837-3.689-1.361
		c-1.097-0.478-2.164-1.014-3.195-1.622c-0.027-0.016-0.051-0.035-0.077-0.052C11.433,43.56,11.435,43.552,11.438,43.544z"/>
	<path d="M42.269,47.296c0.03-0.017,0.059-0.036,0.09-0.052c1.472-0.741,2.843-1.636,4.098-2.706
		c0.346-0.295,0.674-0.609,1.008-0.917c0.053-0.049,0.103-0.079,0.179-0.078c1.38,0.002,2.76,0.002,4.14,0.002
		c0.028,0,0.055,0.003,0.103,0.005c-0.032,0.028-0.05,0.047-0.071,0.06c-1.162,0.686-2.369,1.281-3.613,1.804
		c-0.857,0.36-1.727,0.684-2.61,0.974c-1.066,0.35-2.144,0.656-3.237,0.911c-0.026,0.006-0.053,0.009-0.08,0.014
		C42.272,47.307,42.27,47.302,42.269,47.296z"/>
</g>
</svg>
