<?xml version="1.0" encoding="utf-8"?>
<!-- Generator: Adobe Illustrator 22.0.0, SVG Export Plug-In . SVG Version: 6.00 Build 0)  -->
<svg version="1.1" id="Camada_1" xmlns="http://www.w3.org/2000/svg" xmlns:xlink="http://www.w3.org/1999/xlink" x="0px" y="0px"
	 width="64px" height="64px" viewBox="0 0 64 64" enable-background="new 0 0 64 64" xml:space="preserve">
<g>
	<g>
		<path fill="#E85122" d="M13.369,8.791c-0.055,0.363,0.276,0.291,0.436,0.342c2.445,0.776,4.895,1.532,7.344,2.294
			c0.954,0.296,1.916,0.567,2.857,0.9c0.47,0.167,0.856,0.087,1.287-0.103c2.465-1.088,5.051-1.656,7.767-1.712
			c-2.974,1.094-5.577,2.729-7.678,5.129c1.293-0.433,2.528-0.998,3.847-1.328c1.333-0.334,2.68-0.538,4.078-0.543
			c-2.465,1.049-4.582,2.549-6.223,4.715c2.035-0.807,4.092-1.453,6.418-1.443c-1.309,0.706-2.43,1.487-3.391,2.471
			c-0.396,0.405-0.738,0.864-1.091,1.309c-0.1,0.126-0.307,0.279-0.161,0.446c0.138,0.159,0.342-0.013,0.485-0.076
			c1.215-0.545,2.5-0.776,3.813-0.916c0.498-0.053,0.711,0.023,0.708,0.622c-0.026,6.091-0.023,12.183-0.003,18.274
			c0.002,0.548-0.147,0.712-0.687,0.68c-0.764-0.045-1.534-0.045-2.298,0c-0.51,0.03-0.773-0.13-0.83-0.644
			c-0.026-0.23-0.108-0.453-0.192-0.791c-0.807,0.877-0.792,1.839-0.669,2.827c-1.735-1.272-3.469-2.544-5.203-3.816
			c0.251-0.632,0.718-1.111,1.13-1.632c0.102-0.129,0.344-0.252,0.248-0.426c-0.112-0.204-0.347-0.071-0.529-0.036
			c-1.195,0.226-2.366,0.209-3.524-0.229c-1.412-0.534-2.409-1.524-3.13-2.804c-0.926-1.644-1.412-3.421-1.6-5.303
			c-0.286-2.852-0.029-5.628,0.938-8.331c0.119-0.331,0.213-0.683,0.398-0.977c0.27-0.429,0.17-0.742-0.132-1.097
			c-1.053-1.24-2.085-2.497-3.125-3.748c-0.096-0.116-0.152-0.315-0.343-0.265c-0.195,0.051-0.132,0.253-0.16,0.401
			c-0.266,1.41-0.146,2.801,0.18,4.186c-1.65-2.271-2.629-4.688-1.59-7.534c0.106-0.29,0.259-0.562,0.389-0.843
			C13.212,8.791,13.29,8.791,13.369,8.791z M27.901,33.208c-0.074,1.782-0.148,3.563-0.221,5.345c0.06,0.01,0.121,0.019,0.181,0.029
			c1.365-4.421,2.731-8.843,4.096-13.264c-0.056-0.027-0.111-0.055-0.167-0.082c-0.674,0.802-1.349,1.603-2.023,2.405
			c-0.282-0.794-0.917-1.245-1.611-1.625c-0.72-0.394-1.451-0.769-2.183-1.139c-1.289-0.651-2.354-1.536-3.019-2.847
			c-0.062-0.123-0.119-0.249-0.265-0.296c-0.282-0.077-0.286-0.078-0.412,0.262c-0.587,1.584-0.568,3.162,0.057,4.732
			c-0.085,0.927,0.214,1.723,0.786,2.447c0.633,0.801,1.46,1.357,2.292,1.912C26.325,31.695,27.231,32.312,27.901,33.208z"/>
		<path fill="#F8F8F8" d="M22.066,45.623c-1.011-0.63-1.938-1.303-2.791-2.072c-1.478-1.332-2.793-2.814-3.93-4.446
			c-0.312-0.448-0.508-0.434-0.786-0.013c-0.299,0.453-0.615,0.896-0.962,1.401c-0.599-1.438-1.012-2.873-1.242-4.35
			c-0.105-0.673-0.309-1.168-0.891-1.594c-1.987-1.456-3.684-3.237-5.375-5.018c-0.226-0.239-0.411-0.35-0.793-0.292
			c-2.026,0.31-3.8-1.911-3.056-3.815c0.154-0.395,0.125-0.672-0.095-1.015c-0.893-1.392-1.628-2.859-1.991-4.488
			c-0.579-2.598,0.467-4.583,2.914-5.634c2.121-0.911,4.341-0.938,6.585-0.838c0.202,0.009,0.336,0.083,0.373,0.295
			c0.183,1.049,0.596,2.02,1.068,3.058c-0.788-0.079-1.51-0.169-2.235-0.221C7.464,16.481,6.08,16.51,4.78,17.141
			c-1.072,0.519-1.554,1.381-1.518,2.56c0.039,1.293,0.569,2.422,1.152,3.537c0.124,0.238,0.301,0.165,0.497,0.166
			c2.135,0.016,3.477,1.888,2.82,3.925c-0.074,0.229-0.147,0.428,0.053,0.65c1.31,1.461,2.556,2.98,3.966,4.351
			c0.036,0.035,0.091,0.051,0.226,0.124c0.069-3.859,0.939-7.456,2.882-10.765c-0.169,1.412-0.272,2.823-0.256,4.241
			c0.03,2.69,0.428,5.306,1.654,7.738c1.008,2,2.453,3.59,4.492,4.576c0.334,0.162,0.385,0.363,0.369,0.685
			c-0.097,1.971,0.036,3.916,0.69,5.801C21.9,44.997,22.103,45.238,22.066,45.623z"/>
		<path fill="#F8F8F8" d="M54.274,40.512c-0.346-0.517-0.641-0.977-0.956-1.422c-0.32-0.452-0.516-0.396-0.797,0.008
			c-0.979,1.405-2.091,2.698-3.319,3.889c-0.975,0.945-2.049,1.766-3.192,2.498c-0.081,0.052-0.15,0.131-0.291,0.058
			c0.957-2.084,1.117-4.306,1.041-6.559c-0.014-0.405,0.112-0.613,0.482-0.802c2.371-1.209,3.888-3.175,4.843-5.61
			c1.142-2.909,1.334-5.934,1.079-9.013c-0.05-0.597-0.102-1.192-0.169-1.806c0.977,1.387,1.553,2.963,2.01,4.576
			C56.361,31.112,56.086,35.821,54.274,40.512z"/>
		<path fill="#F7F7F7" d="M48.815,52.052c0.908,0.073,1.641,0.399,2.406,0.574c1.936,0.442,3.881,0.758,5.876,0.648
			c0.789-0.044,1.556-0.203,2.277-0.52c1.489-0.656,2.028-2.232,1.451-3.928c-0.199-0.586-0.461-0.842-1.099-0.938
			c-1.777-0.269-2.81-2.131-2.186-3.833c0.103-0.281,0.087-0.481-0.121-0.687c-0.124-0.124-0.199-0.308-0.339-0.404
			c-0.824-0.563-0.704-1.228-0.319-2.006c0.283-0.571,0.43-1.21,0.657-1.875c0.869,0.808,1.597,1.701,2.322,2.593
			c0.211,0.26,0.418,0.417,0.768,0.452c2.113,0.208,3.213,2.424,2.487,3.944c-0.168,0.352,0.023,0.652,0.152,0.95
			c0.39,0.902,0.67,1.827,0.803,2.806c0.366,2.693-1.292,4.885-3.985,5.272c-2.631,0.378-5.091-0.287-7.507-1.195
			C51.216,53.44,50.044,52.817,48.815,52.052z"/>
		<path fill="#F7F7F7" d="M23.983,37.429c1.734,1.272,3.469,2.544,5.203,3.816c0.603,0.71,1.435,1.133,2.146,1.708
			c0.411,0.333,0.855,0.625,1.272,0.951c1.004,0.786,1.066,1.879,0.16,2.788c-0.827,0.831-1.884,1.124-3.002,1.137
			c-1.807,0.02-3.445-0.488-4.734-1.833c-0.359-0.374-0.696-0.775-0.943-1.357c1.786,0.74,3.537,1.057,5.369,0.681
			c-0.683-0.27-1.406-0.37-2.104-0.57c-1.314-0.376-2.509-0.983-3.689-1.647c-0.351-0.197-0.401-0.503-0.463-0.823
			c-0.06-0.306-0.088-0.618-0.147-1.047c1.926,1.29,3.916,2.185,6.149,2.517c0.001-0.232-0.147-0.241-0.239-0.278
			c-2.027-0.823-3.785-2.04-5.355-3.556c-0.342-0.33-0.452-0.623-0.288-1.064C23.501,38.358,23.654,37.854,23.983,37.429z"/>
		<path fill="#F6F6F6" d="M44.798,41.242c-0.056,0.444-0.105,0.752-0.132,1.062c-0.037,0.428-0.265,0.678-0.633,0.899
			c-1.733,1.042-3.6,1.7-5.581,2.101c1.818,0.396,3.557,0.057,5.358-0.678c-1.096,1.968-2.712,2.925-4.784,3.158
			c-1.105,0.124-2.187,0.023-3.192-0.532c-0.389-0.214-0.712-0.498-0.978-0.836c-0.647-0.824-0.476-1.849,0.415-2.517
			c1.695-1.27,3.398-2.529,5.099-3.791c1.087-0.806,2.187-1.596,3.259-2.423c0.314-0.242,0.388-0.131,0.52,0.155
			c0.689,1.496,0.711,1.548-0.514,2.65c-1.289,1.159-2.719,2.122-4.32,2.812c-0.226,0.097-0.481,0.147-0.746,0.46
			C40.889,43.425,42.856,42.541,44.798,41.242z"/>
		<path fill="#F6F6F6" d="M27.801,50.207c0.418-0.132,0.757,0.154,1.137,0.226c0.33,0.062,0.566,0.042,0.83-0.226
			c2.213-2.244,5.836-2.334,8.158-0.159c0.457,0.428,0.827,0.466,1.336,0.277c0.196-0.073,0.398-0.172,0.731-0.078
			c-0.52,0.63-1.009,1.223-1.501,1.814c-0.112,0.135-0.243,0.06-0.377,0.023c-2.798-0.781-5.6-0.763-8.395,0.004
			c-0.277,0.076-0.379-0.015-0.525-0.201c-0.448-0.569-0.916-1.123-1.376-1.682L27.801,50.207z"/>
		<path fill="#EFEFEF" d="M38.1,28.596c-0.012-0.825,0.163-1.532,0.882-2.052c0.804-0.581,1.695-0.987,2.569-1.424
			c1.549-0.775,2.869-1.769,3.617-3.415c0.083,1.036-0.042,2.03-0.452,2.978c-0.044,0.102-0.217,0.154-0.337,0.216
			c-1.394,0.712-2.786,1.428-4.186,2.127C39.407,27.418,38.566,27.729,38.1,28.596z"/>
		<path fill="#EFEFEF" d="M45.453,27.192c-0.02,1.255-0.738,2.067-1.574,2.803c-0.959,0.844-2.124,1.406-3.092,2.244
			c-0.285,0.247-0.493,0.554-0.807,0.864c-0.162-0.752-0.149-1.46-0.171-2.164c-0.006-0.182,0.044-0.292,0.256-0.307
			c2.369-0.169,4.051-1.407,5.246-3.393C45.317,27.227,45.342,27.227,45.453,27.192z"/>
		<path fill="#D74B1F" d="M43.781,26.587c0.057,1.094-1.531,2.292-2.846,2.067c-0.228-0.039-0.449-0.116-0.839-0.219
			c1.317-0.657,2.504-1.248,3.691-1.84C43.787,26.594,43.781,26.587,43.781,26.587z"/>
		<path fill="#EFEFEF" d="M31.095,40.868c0.845,0.204,1.689,0.415,2.537,0.609c0.207,0.047,0.23,0.171,0.228,0.339
			c-0.003,0.326-0.001,0.652-0.001,1.03C32.764,42.378,31.873,41.72,31.095,40.868z"/>
		<polygon fill="#D74B1F" points="43.787,26.594 43.824,26.579 43.781,26.587 		"/>
		<path fill="#F6F6F6" d="M27.819,50.205c0.006-0.033,0.012-0.065,0.017-0.098c0.016,0.019,0.032,0.037,0.048,0.056
			c-0.026,0.015-0.051,0.029-0.08,0.044C27.801,50.207,27.819,50.205,27.819,50.205z"/>
		<path fill="#F5F5F5" d="M29.767,27.64c-0.116,0.321,0.138,0.631,0.013,1.09c-0.697-1.354-2.05-1.608-3.156-2.224
			c-0.974-0.543-1.979-1.035-2.993-1.501c-0.401-0.185-0.604-0.445-0.695-0.853c-0.153-0.683-0.37-1.354-0.368-2.064
			c0-0.127-0.052-0.282,0.12-0.356c0.146,0.048,0.203,0.174,0.265,0.296c0.666,1.311,1.73,2.196,3.019,2.847
			c0.733,0.37,1.463,0.745,2.183,1.139C28.849,26.395,29.485,26.846,29.767,27.64z"/>
		<path fill="#F3F3F3" d="M22.333,26.727c1.102,2.285,2.86,3.662,5.429,3.903c0.21,0.02,0.33,0.065,0.31,0.307
			c-0.063,0.757-0.115,1.514-0.172,2.271c-0.669-0.896-1.575-1.513-2.489-2.122c-0.832-0.555-1.66-1.111-2.292-1.912
			C22.547,28.45,22.248,27.654,22.333,26.727z"/>
		<path fill="#D74B1F" d="M23.979,26.538c1.291,0.647,2.456,1.232,3.641,1.826C26.273,29.141,24.613,28.356,23.979,26.538z"/>
	</g>
</g>
</svg>
