<?xml version="1.0" encoding="utf-8"?>
<!-- Generator: Adobe Illustrator 23.0.2, SVG Export Plug-In . SVG Version: 6.00 Build 0)  -->
<svg version="1.1" id="Layer_1" xmlns="http://www.w3.org/2000/svg" xmlns:xlink="http://www.w3.org/1999/xlink" x="0px" y="0px"
	 width="64px" height="64px" viewBox="0 0 64 64" enable-background="new 0 0 64 64" xml:space="preserve">
<g>
	<g>
		<path fill="#002554" d="M53.612,32.011c0,6.243-0.001,12.487,0.005,18.73c0,0.188-0.058,0.286-0.217,0.383
			c-6.575,3.973-13.148,7.951-19.72,11.928c-0.488,0.295-0.979,0.586-1.462,0.89c-0.132,0.083-0.226,0.073-0.354-0.004
			c-4.046-2.444-8.094-4.884-12.142-7.324c-3.052-1.84-6.104-3.679-9.158-5.514c-0.131-0.079-0.179-0.161-0.179-0.314
			c0.004-12.524,0.004-25.048,0-37.571c0-0.155,0.052-0.235,0.18-0.312c7.073-4.266,14.145-8.535,21.213-12.81
			c0.197-0.119,0.327-0.125,0.527-0.003c5.311,3.23,10.627,6.451,15.941,9.674c1.742,1.056,3.482,2.116,5.229,3.165
			c0.141,0.085,0.141,0.183,0.141,0.309C53.612,19.495,53.612,25.753,53.612,32.011z M28.912,11.934
			c1.551,2.054,4.565,2.056,6.174,0.005c0.085,0.103,0.167,0.224,0.319,0.21c0.158-0.014,0.285,0.046,0.42,0.11
			c0.16,0.076,0.327,0.139,0.494,0.198c0.25,0.088,0.48,0.012,0.612-0.217c0.053-0.091,0.104-0.138,0.21-0.155
			c0.11-0.019,0.375-0.41,0.375-0.523c0-0.089-0.039-0.159-0.115-0.203c-0.24-0.14-0.636-0.065-0.808,0.155
			c-0.05,0.064-0.086,0.139-0.136,0.202c-0.111,0.141-0.207-0.002-0.306-0.027c-0.083-0.021-0.062-0.092-0.023-0.142
			c0.135-0.173,0.361-0.347,0.518-0.336c0.49,0.034,0.97-0.156,1.461-0.032c0.099,0.025,0.143,0.049,0.191,0.132
			c0.078,0.133,0.072,0.324,0.221,0.401c0.298,0.153,0.583,0.362,0.956,0.267c0.232-0.059,0.438,0.006,0.611,0.178
			c0.117,0.116,0.271,0.17,0.427,0.15c0.138-0.017,0.206,0.034,0.266,0.141c0.079,0.141,0.204,0.224,0.365,0.209
			c0.199-0.019,0.397-0.032,0.597-0.033c0.138-0.001,0.29-0.056,0.292-0.216c0.003-0.204-0.031-0.425-0.169-0.581
			c-0.138-0.156-0.321-0.273-0.489-0.4c-0.095-0.072-0.233-0.104-0.311-0.028c-0.199,0.195-0.245,0.03-0.291-0.108
			c-0.076-0.226-0.198-0.34-0.458-0.315c-0.2,0.02-0.271-0.111-0.202-0.301c0.028-0.077,0.073-0.156,0.071-0.232
			c-0.006-0.206,0.092-0.228,0.274-0.227c0.37,0.001,0.715-0.1,0.899-0.462c0.187-0.367,0.093-0.722-0.103-1.056
			c-0.097-0.167-0.265-0.264-0.44-0.377c0.075-0.017,0.126-0.029,0.176-0.041c0.444-0.098,0.684-0.486,0.57-0.92
			c-0.048-0.181-0.181-0.245-0.308-0.127c-0.207,0.192-0.457,0.265-0.723,0.307c-0.273,0.044-0.441,0.209-0.499,0.472
			c-0.054,0.248,0.039,0.451,0.243,0.602c0.162,0.119,0.318,0.247,0.444,0.403c0.106,0.131,0.183,0.292,0.082,0.45
			c-0.1,0.157-0.277,0.162-0.443,0.122c-0.265-0.063-0.498-0.198-0.693-0.383c-0.256-0.243-0.55-0.366-0.901-0.366
			c-0.169,0-0.32-0.058-0.433-0.191c-0.219-0.257-0.499-0.39-0.835-0.405c-0.085-0.004-0.153-0.023-0.211-0.097
			c-0.178-0.226-0.429-0.338-0.701-0.399c-0.191-0.043-0.374-0.107-0.527-0.224c-0.278-0.213-0.581-0.238-0.906-0.165
			c-0.809-1.083-1.889-1.644-3.241-1.616c-1.28,0.026-2.299,0.591-3.063,1.618c-0.334-0.085-0.64-0.048-0.924,0.17
			c-0.146,0.112-0.322,0.174-0.507,0.214c-0.273,0.058-0.522,0.174-0.702,0.397c-0.064,0.08-0.138,0.099-0.23,0.103
			c-0.327,0.017-0.601,0.144-0.813,0.398c-0.118,0.141-0.277,0.194-0.454,0.195c-0.352,0.002-0.645,0.131-0.899,0.375
			c-0.189,0.182-0.42,0.305-0.675,0.372c-0.176,0.046-0.35,0.034-0.457-0.133c-0.101-0.158-0.006-0.304,0.085-0.429
			c0.114-0.156,0.268-0.277,0.423-0.391c0.217-0.159,0.325-0.361,0.265-0.633c-0.063-0.281-0.254-0.428-0.528-0.469
			c-0.254-0.038-0.485-0.116-0.681-0.294c-0.126-0.114-0.254-0.066-0.306,0.095c-0.135,0.42,0.108,0.848,0.536,0.943
			c0.061,0.014,0.13,0.005,0.189,0.063c-0.054,0.033-0.105,0.061-0.154,0.092c-0.343,0.224-0.54,0.723-0.45,1.134
			c0.078,0.356,0.378,0.638,0.837,0.629c0.38-0.008,0.402,0.206,0.471,0.459c0.065,0.238,0.016,0.335-0.233,0.324
			c-0.2-0.009-0.327,0.06-0.383,0.257c-0.02,0.07-0.061,0.135-0.095,0.2c-0.042,0.082-0.078,0.104-0.153,0.016
			c-0.102-0.119-0.25-0.112-0.365-0.032c-0.29,0.203-0.599,0.383-0.661,0.795c-0.039,0.263,0.052,0.428,0.326,0.411
			c0.142-0.009,0.281-0.002,0.417,0.021c0.217,0.037,0.379-0.022,0.493-0.211c0.058-0.097,0.129-0.14,0.255-0.126
			c0.175,0.02,0.333-0.047,0.463-0.175c0.141-0.138,0.311-0.186,0.509-0.165c0.647,0.067,0.968-0.101,1.262-0.666
			c0.043-0.082,0.083-0.098,0.172-0.12c0.418-0.102,0.83,0.066,1.237,0.019c0.303-0.036,0.471,0.161,0.686,0.277
			c0.108,0.058,0.164,0.176-0.028,0.251c-0.134,0.052-0.205,0.064-0.294-0.088c-0.238-0.408-0.392-0.373-0.831-0.297
			c-0.155,0.027-0.231,0.203-0.133,0.33c0.126,0.164,0.158,0.439,0.453,0.434c0.053-0.001,0.051,0.066,0.073,0.101
			c0.174,0.276,0.377,0.348,0.681,0.235c0.125-0.046,0.245-0.105,0.371-0.147c0.126-0.042,0.229-0.156,0.368-0.141
			C28.665,12.176,28.805,12.096,28.912,11.934z M29.884,58.943c0-0.109,0-0.174,0-0.239c0-11.634-0.001-23.267,0.005-34.901
			c0-0.208-0.058-0.253-0.257-0.253c-5.241,0.006-10.483,0.004-15.724,0.005c-0.316,0-0.284-0.049-0.284,0.283
			c-0.001,8.3,0.001,16.6-0.008,24.9c0,0.283,0.09,0.426,0.328,0.569c4.093,2.465,8.18,4.942,12.269,7.415
			C27.423,57.456,28.634,58.187,29.884,58.943z M34.115,58.907c0.115-0.008,0.179-0.073,0.252-0.117
			c0.977-0.589,1.952-1.181,2.928-1.772c4.304-2.604,8.607-5.208,12.913-7.808c0.122-0.073,0.172-0.148,0.172-0.296
			c-0.005-3.816-0.005-7.631,0-11.447c0-0.169-0.034-0.226-0.217-0.226c-2.569,0.007-5.137,0.006-7.706,0.001
			c-0.169,0-0.224,0.036-0.223,0.217c0.008,1.299,0.009,2.598,0,3.897c-0.001,0.184,0.059,0.216,0.225,0.215
			c1.128-0.007,2.257,0.001,3.385-0.008c0.188-0.001,0.231,0.055,0.23,0.237c-0.007,1.514-0.009,3.029,0.001,4.543
			c0.001,0.212-0.061,0.327-0.244,0.437c-2.407,1.446-4.808,2.901-7.211,4.353c-0.054,0.033-0.107,0.111-0.172,0.071
			c-0.06-0.037-0.025-0.122-0.025-0.185c-0.001-7.639-0.001-15.278-0.006-22.916c0-0.189,0.053-0.23,0.234-0.23
			c2.398,0.006,4.796,0.006,7.193,0c0.191-0.001,0.228,0.059,0.227,0.237c-0.007,1.544-0.001,3.088-0.008,4.632
			c-0.001,0.175,0.045,0.219,0.219,0.218c1.284-0.008,2.569-0.009,3.853,0.001c0.194,0.001,0.245-0.043,0.245-0.242
			c-0.007-2.969-0.008-5.939,0.001-8.908c0.001-0.226-0.07-0.259-0.274-0.259c-5.241,0.006-10.482,0.006-15.723-0.001
			c-0.232,0-0.275,0.064-0.275,0.282c0.005,11.61,0.005,23.221,0.005,34.831C34.115,58.742,34.115,58.821,34.115,58.907z
			 M36.925,19.486c0.057,0.018,0.057,0.059,0.071,0.092c0.193,0.48,0.547,0.789,1.037,0.931c0.531,0.154,1.069,0.158,1.601-0.002
			c0.116-0.035,0.229-0.053,0.348-0.053c1.321,0.001,2.642-0.001,3.964,0.003c0.135,0,0.213-0.004,0.213-0.183
			c-0.007-1.915-0.006-3.83-0.001-5.745c0-0.151-0.045-0.185-0.187-0.184c-0.987,0.005-1.974,0.005-2.962,0
			c-0.144-0.001-0.189,0.038-0.187,0.187c0.009,0.646-0.001,1.292,0.007,1.937c0.002,0.152-0.035,0.198-0.194,0.199
			c-1.291,0.013-2.582-0.044-3.873-0.003c-0.119,0.004-0.159-0.012-0.141-0.156c0.138-1.076-0.473-1.833-1.563-1.918
			c-0.755-0.059-1.513-0.008-2.27-0.023c-0.163-0.003-0.13,0.103-0.13,0.193c-0.001,1.833,0.001,3.667-0.004,5.5
			c0,0.157,0.044,0.199,0.198,0.197c0.683-0.008,1.366-0.005,2.049-0.003C35.735,20.457,36.477,20.272,36.925,19.486z
			 M27.613,17.796c-0.06-0.033-0.059-0.09-0.078-0.137c-0.149-0.375-0.375-0.688-0.725-0.902c-0.689-0.42-2.117-0.425-2.759,0.494
			c-0.029,0.042-0.068,0.078-0.103,0.117c-0.033,0.036-0.08,0.055-0.118,0.026c-0.023-0.017-0.035-0.066-0.03-0.098
			c0.011-0.073,0.033-0.143,0.054-0.214c0.135-0.471,0.125-0.941-0.036-1.4c-0.273-0.781-0.908-1.071-1.662-1.174
			c-0.702-0.096-1.409-0.024-2.113-0.051c-0.178-0.007-0.202,0.057-0.201,0.214c0.005,1.856,0.006,3.712-0.001,5.568
			c-0.001,0.177,0.047,0.221,0.221,0.221c1.566-0.007,3.133-0.004,4.699-0.005c0.149,0,0.294,0.015,0.44,0.048
			c1.002,0.222,1.796-0.098,2.371-0.945c0.036-0.053,0.054-0.124,0.132-0.144c0.108,0.247,0.245,0.476,0.454,0.651
			c0.57,0.475,1.207,0.557,1.897,0.307c0.049-0.018,0.139-0.079,0.145-0.039c0.035,0.216,0.196,0.114,0.294,0.117
			c0.371,0.013,0.742-0.002,1.113,0.008c0.141,0.004,0.171-0.043,0.171-0.177c-0.004-1.923-0.005-3.846,0.001-5.769
			c0-0.146-0.051-0.17-0.179-0.168c-0.401,0.007-0.802,0.011-1.203-0.001c-0.169-0.005-0.212,0.046-0.21,0.212
			c0.01,0.646,0.001,1.292,0.006,1.938c0.001,0.148-0.028,0.178-0.175,0.122c-0.346-0.133-0.706-0.169-1.07-0.078
			C28.273,16.706,27.836,17.139,27.613,17.796z"/>
		<path fill="#FDFDFD" d="M29.884,58.943c-1.251-0.756-2.461-1.488-3.671-2.22c-4.088-2.474-8.175-4.95-12.269-7.415
			c-0.238-0.143-0.329-0.286-0.328-0.569c0.009-8.3,0.007-16.6,0.008-24.9c0-0.332-0.032-0.283,0.284-0.283
			c5.241-0.001,10.483,0,15.724-0.005c0.2,0,0.258,0.045,0.257,0.253c-0.005,11.634-0.005,23.267-0.005,34.901
			C29.884,58.769,29.884,58.835,29.884,58.943z M25.577,39.54c0-3.808-0.002-7.616,0.005-11.424c0-0.198-0.048-0.244-0.244-0.243
			c-2.383,0.007-4.766,0.008-7.149-0.001c-0.219-0.001-0.264,0.057-0.264,0.269c0.006,6.057,0.007,12.115-0.002,18.172
			c0,0.24,0.073,0.366,0.274,0.487c2.387,1.436,4.768,2.881,7.151,4.323c0.061,0.037,0.128,0.12,0.192,0.087
			c0.082-0.042,0.033-0.147,0.033-0.223C25.578,47.171,25.577,43.355,25.577,39.54z"/>
		<path fill="#FDFDFD" d="M34.115,58.907c0-0.086,0-0.165,0-0.244c0-11.61,0.001-23.221-0.005-34.831
			c0-0.218,0.042-0.282,0.275-0.282c5.241,0.008,10.482,0.007,15.723,0.001c0.204,0,0.275,0.033,0.274,0.259
			c-0.009,2.969-0.008,5.939-0.001,8.908c0,0.199-0.051,0.243-0.245,0.242c-1.284-0.009-2.569-0.008-3.853-0.001
			c-0.174,0.001-0.219-0.042-0.219-0.218c0.007-1.544,0.001-3.088,0.008-4.632c0.001-0.178-0.036-0.237-0.227-0.237
			c-2.398,0.007-4.796,0.007-7.193,0c-0.182,0-0.235,0.041-0.234,0.23c0.005,7.639,0.004,15.278,0.006,22.916
			c0,0.063-0.035,0.148,0.025,0.185c0.065,0.04,0.118-0.038,0.172-0.071c2.403-1.452,4.804-2.907,7.211-4.353
			c0.183-0.11,0.245-0.225,0.244-0.437c-0.01-1.514-0.009-3.029-0.001-4.543c0.001-0.181-0.041-0.238-0.23-0.237
			c-1.128,0.009-2.257,0.001-3.385,0.008c-0.167,0.001-0.226-0.031-0.225-0.215c0.009-1.299,0.009-2.598,0-3.897
			c-0.001-0.181,0.054-0.217,0.223-0.217c2.569,0.005,5.137,0.006,7.706-0.001c0.183,0,0.217,0.057,0.217,0.226
			c-0.004,3.816-0.004,7.631,0,11.447c0,0.148-0.051,0.222-0.172,0.296c-4.306,2.6-8.609,5.204-12.913,7.808
			c-0.976,0.591-1.951,1.182-2.928,1.772C34.294,58.833,34.229,58.899,34.115,58.907z"/>
		<path fill="#F7F3F5" d="M36.925,19.486c-0.448,0.785-1.19,0.971-2.022,0.969c-0.683-0.001-1.366-0.005-2.049,0.003
			c-0.154,0.002-0.199-0.04-0.198-0.197c0.005-1.833,0.003-3.667,0.004-5.5c0-0.091-0.033-0.196,0.13-0.193
			c0.757,0.015,1.515-0.036,2.27,0.023c1.09,0.085,1.7,0.842,1.563,1.918c-0.018,0.144,0.022,0.16,0.141,0.156
			c1.291-0.041,2.582,0.016,3.873,0.003c0.159-0.002,0.196-0.047,0.194-0.199c-0.008-0.646,0.001-1.292-0.007-1.937
			c-0.002-0.149,0.043-0.188,0.187-0.187c0.987,0.005,1.974,0.005,2.962,0c0.142-0.001,0.188,0.033,0.187,0.184
			c-0.006,1.915-0.006,3.83,0.001,5.745c0.001,0.179-0.078,0.183-0.213,0.183c-1.321-0.003-2.642-0.002-3.964-0.003
			c-0.119,0-0.232,0.018-0.348,0.053c-0.532,0.161-1.07,0.157-1.601,0.002c-0.49-0.142-0.843-0.451-1.037-0.931
			C36.983,19.545,36.982,19.504,36.925,19.486z M35.911,17.282c0.41-0.511,0.527-0.867,0.448-1.337
			c-0.098-0.581-0.611-1.028-1.277-1.081c-0.674-0.053-1.35-0.009-2.025-0.023c-0.164-0.003-0.128,0.105-0.128,0.194
			c-0.001,0.69-0.001,1.38-0.001,2.07c0,0.957-0.001,1.915,0.002,2.872c0,0.082-0.054,0.207,0.116,0.204
			c0.786-0.012,1.574,0.04,2.358-0.025c0.705-0.059,1.242-0.476,1.357-1.063C36.946,18.158,36.674,17.596,35.911,17.282z
			 M40.466,18.082c0.001,0,0.002,0,0.003,0c0-0.178,0.006-0.356-0.002-0.534c-0.008-0.198,0.086-0.452-0.041-0.578
			c-0.115-0.114-0.367-0.03-0.558-0.032c-0.449-0.004-0.444-0.001-0.45,0.453c-0.006,0.511,0.036,1.024-0.023,1.533
			c-0.043,0.37-0.313,0.553-0.68,0.496c-0.319-0.049-0.522-0.302-0.525-0.668c-0.004-0.549-0.006-1.098,0.002-1.647
			c0.002-0.14-0.041-0.178-0.175-0.172c-0.229,0.01-0.46,0.008-0.69,0.001c-0.127-0.004-0.185,0.023-0.184,0.169
			c0.007,0.608-0.007,1.217,0.006,1.825c0.016,0.714,0.393,1.193,1.059,1.354c0.386,0.094,0.779,0.101,1.169,0.017
			c0.655-0.14,1.059-0.614,1.086-1.283C40.477,18.705,40.466,18.393,40.466,18.082z M42.87,17.378c0,0.876,0.002,1.752-0.003,2.627
			c-0.001,0.13,0.023,0.187,0.169,0.179c0.229-0.012,0.46-0.008,0.69-0.001c0.117,0.004,0.17-0.019,0.169-0.155
			c-0.004-1.752-0.004-3.503,0-5.255c0-0.134-0.05-0.16-0.169-0.156c-0.222,0.008-0.446,0.013-0.668-0.001
			c-0.163-0.011-0.194,0.051-0.192,0.201C42.873,15.671,42.87,16.525,42.87,17.378z M42.118,17.399c0-0.86-0.003-1.72,0.003-2.58
			c0.001-0.149-0.029-0.213-0.193-0.202c-0.221,0.014-0.445,0.009-0.667,0.002c-0.121-0.004-0.169,0.03-0.169,0.161
			c0.004,1.749,0.004,3.499,0,5.248c0,0.137,0.059,0.159,0.174,0.156c0.215-0.006,0.431-0.012,0.645,0.002
			c0.165,0.011,0.213-0.038,0.211-0.207C42.113,19.118,42.118,18.258,42.118,17.399z"/>
		<path fill="#F8F5F7" d="M27.613,17.796c0.223-0.657,0.66-1.09,1.338-1.259c0.363-0.091,0.724-0.055,1.07,0.078
			c0.147,0.057,0.176,0.027,0.175-0.122c-0.006-0.646,0.003-1.292-0.006-1.938c-0.002-0.166,0.04-0.217,0.21-0.212
			c0.401,0.013,0.802,0.009,1.203,0.001c0.129-0.002,0.18,0.022,0.179,0.168c-0.005,1.923-0.005,3.846-0.001,5.769
			c0,0.134-0.03,0.18-0.171,0.177c-0.371-0.01-0.743,0.004-1.113-0.008c-0.099-0.003-0.259,0.099-0.294-0.117
			c-0.007-0.041-0.096,0.021-0.145,0.039c-0.69,0.25-1.326,0.168-1.897-0.307c-0.209-0.174-0.346-0.403-0.454-0.651
			c-0.078,0.02-0.096,0.091-0.132,0.144c-0.575,0.847-1.37,1.166-2.371,0.945c-0.147-0.032-0.291-0.048-0.44-0.048
			c-1.566,0.001-3.133-0.002-4.699,0.005c-0.175,0.001-0.222-0.044-0.221-0.221c0.007-1.856,0.006-3.712,0.001-5.568
			c0-0.157,0.023-0.221,0.201-0.214c0.704,0.027,1.411-0.044,2.113,0.051c0.754,0.103,1.388,0.393,1.662,1.174
			c0.161,0.459,0.171,0.929,0.036,1.4c-0.02,0.071-0.043,0.142-0.054,0.214c-0.005,0.032,0.007,0.081,0.03,0.098
			c0.038,0.029,0.085,0.01,0.118-0.026c0.035-0.038,0.073-0.074,0.103-0.117c0.642-0.919,2.071-0.913,2.759-0.494
			c0.351,0.214,0.576,0.527,0.725,0.902C27.554,17.706,27.553,17.763,27.613,17.796z M22.404,17.957
			c0.503-0.105,0.905-0.321,1.124-0.781c0.483-1.013-0.065-2.126-1.158-2.361c-0.712-0.153-1.435-0.062-2.153-0.087
			c-0.12-0.004-0.103,0.077-0.103,0.15c0,1.715,0.001,3.43-0.003,5.144c0,0.131,0.048,0.165,0.169,0.161
			c0.237-0.007,0.476-0.013,0.712,0.002c0.176,0.011,0.224-0.046,0.223-0.222c-0.008-1.21-0.004-2.42-0.004-3.63
			c0-0.645,0.039-0.678,0.693-0.567c0.285,0.049,0.524,0.166,0.614,0.472c0.154,0.523-0.156,0.948-0.706,0.942
			c-0.188-0.002-0.263,0.032-0.248,0.24c0.021,0.295,0.006,0.593,0.005,0.89c0,0.083,0.011,0.158,0.058,0.232
			c0.323,0.506,0.645,1.012,0.962,1.522c0.054,0.087,0.115,0.12,0.215,0.119c0.319-0.005,0.638-0.005,0.958,0
			c0.14,0.002,0.154-0.04,0.077-0.149c-0.197-0.278-0.39-0.56-0.584-0.84C22.974,18.787,22.694,18.379,22.404,17.957z
			 M30.486,19.757c0,0.094,0.007,0.151-0.001,0.207c-0.025,0.17,0.033,0.236,0.214,0.222c0.214-0.017,0.43-0.009,0.645-0.002
			c0.119,0.004,0.169-0.022,0.168-0.156c-0.004-1.751-0.004-3.502-0.001-5.253c0-0.107-0.017-0.162-0.143-0.158
			c-0.252,0.009-0.505,0.008-0.757,0.001c-0.124-0.004-0.149,0.052-0.146,0.16c0.005,0.245,0.002,0.49,0.002,0.734
			c0,0.532,0,1.063,0,1.624c-0.11-0.061-0.191-0.107-0.273-0.152c-0.68-0.366-1.431-0.28-1.928,0.228
			c-0.406,0.414-0.5,0.93-0.45,1.482c0.059,0.64,0.318,1.164,0.945,1.418C29.382,20.364,29.949,20.236,30.486,19.757z
			 M26.192,18.737c0.356,0,0.712-0.001,1.068,0c0.078,0,0.141,0.005,0.145-0.11c0.027-0.813-0.309-1.798-1.525-1.865
			c-0.626-0.034-1.2,0.096-1.597,0.641c-0.645,0.885-0.52,2.701,1.225,2.878c0.663,0.067,1.23-0.108,1.669-0.635
			c0.102-0.123,0.13-0.198-0.052-0.263c-0.138-0.05-0.272-0.12-0.397-0.198c-0.165-0.104-0.271-0.103-0.423,0.06
			c-0.401,0.43-1.094,0.256-1.267-0.295c-0.046-0.146-0.054-0.23,0.152-0.218C25.523,18.75,25.858,18.737,26.192,18.737z"/>
		<path fill="#FDCB01" d="M28.846,7.361c0.764-1.026,1.783-1.591,3.063-1.618c1.352-0.028,2.432,0.533,3.241,1.616
			c-0.793,0.362-1.366,0.972-1.872,1.657c-0.11,0.15-0.196,0.314-0.223,0.503c-0.08,0.564-0.207,1.103-0.55,1.587
			c-0.138,0.194-0.339,0.274-0.482,0.438c-0.008,0.009-0.047,0.009-0.052,0c-0.093-0.145-0.287-0.152-0.386-0.289
			c-0.327-0.447-0.562-0.94-0.612-1.492c-0.04-0.434-0.241-0.769-0.508-1.085c-0.105-0.124-0.21-0.251-0.328-0.362
			C29.745,7.949,29.365,7.56,28.846,7.361z"/>
		<path fill="#F7EEF0" d="M28.846,7.361c0.519,0.199,0.899,0.588,1.291,0.957c0.118,0.111,0.223,0.238,0.328,0.362
			c0.267,0.315,0.468,0.651,0.508,1.085c0.05,0.552,0.285,1.045,0.612,1.492c0.1,0.136,0.294,0.144,0.386,0.289
			c0.005,0.008,0.044,0.009,0.052,0c0.143-0.164,0.344-0.244,0.482-0.438c0.343-0.484,0.47-1.023,0.55-1.587
			c0.027-0.189,0.112-0.353,0.223-0.503c0.506-0.685,1.079-1.295,1.872-1.657c0.325-0.073,0.628-0.048,0.906,0.165
			c0.153,0.117,0.335,0.181,0.527,0.224c0.272,0.061,0.523,0.173,0.701,0.399c0.058,0.074,0.125,0.093,0.211,0.097
			c0.336,0.014,0.616,0.147,0.835,0.405c0.113,0.133,0.264,0.191,0.433,0.191c0.352,0,0.645,0.123,0.901,0.366
			c0.195,0.185,0.428,0.321,0.693,0.383C40.523,9.629,40.7,9.625,40.8,9.467c0.101-0.158,0.024-0.319-0.082-0.45
			c-0.126-0.156-0.282-0.283-0.444-0.403c-0.204-0.151-0.297-0.354-0.243-0.602c0.058-0.263,0.225-0.428,0.499-0.472
			c0.266-0.042,0.516-0.115,0.723-0.307c0.127-0.118,0.261-0.054,0.308,0.127c0.114,0.434-0.126,0.822-0.57,0.92
			c-0.051,0.011-0.101,0.023-0.176,0.041c0.176,0.113,0.343,0.21,0.44,0.377c0.196,0.335,0.29,0.689,0.103,1.056
			c-0.185,0.362-0.529,0.463-0.899,0.462c-0.182-0.001-0.279,0.021-0.274,0.227c0.002,0.077-0.043,0.156-0.071,0.232
			c-0.069,0.19,0.002,0.32,0.202,0.301c0.259-0.026,0.382,0.089,0.458,0.315c0.046,0.138,0.093,0.303,0.291,0.108
			c0.078-0.076,0.216-0.045,0.311,0.028c0.168,0.128,0.351,0.245,0.489,0.4c0.138,0.156,0.173,0.377,0.169,0.581
			c-0.003,0.159-0.154,0.215-0.292,0.216c-0.2,0.001-0.398,0.014-0.597,0.033c-0.161,0.015-0.286-0.068-0.365-0.209
			c-0.06-0.107-0.129-0.158-0.266-0.141c-0.157,0.019-0.311-0.034-0.427-0.15c-0.173-0.172-0.379-0.237-0.611-0.178
			c-0.374,0.096-0.658-0.113-0.956-0.267c-0.149-0.077-0.143-0.268-0.221-0.401c-0.048-0.082-0.092-0.107-0.191-0.132
			c-0.491-0.124-0.971,0.065-1.461,0.032c-0.157-0.011-0.383,0.163-0.518,0.336c-0.039,0.051-0.06,0.121,0.023,0.142
			c0.099,0.025,0.195,0.169,0.306,0.027c0.05-0.064,0.086-0.138,0.136-0.202c0.172-0.22,0.567-0.295,0.808-0.155
			c0.076,0.044,0.115,0.114,0.115,0.203c0,0.112-0.265,0.504-0.375,0.523c-0.106,0.018-0.157,0.064-0.21,0.155
			c-0.133,0.228-0.363,0.304-0.612,0.217c-0.167-0.059-0.334-0.122-0.494-0.198c-0.135-0.064-0.263-0.124-0.42-0.11
			c-0.152,0.014-0.234-0.107-0.319-0.21c-0.034-0.086-0.067-0.141-0.127-0.013c-0.06,0.13-0.176,0.195-0.308,0.167
			c-0.367-0.077-0.728-0.186-1.107-0.202c-0.028-0.001-0.059-0.016-0.081-0.034c-0.097-0.08-0.176-0.066-0.269,0.018
			c-0.154,0.138-0.349,0.196-0.551,0.213c-0.132,0.011-0.326,0.016-0.345-0.125c-0.027-0.195-0.245-0.155-0.281-0.304
			c-0.004-0.017-0.04-0.039-0.046-0.006c-0.027,0.15-0.273,0.092-0.262,0.288c0.004,0.074-0.086,0.108-0.165,0.122
			c-0.281,0.05-0.53-0.025-0.749-0.197c-0.087-0.068-0.154-0.089-0.253-0.027c-0.067,0.042-0.154,0.08-0.229,0.074
			c-0.29-0.024-0.555,0.072-0.824,0.15c-0.187,0.054-0.354,0.043-0.463-0.148c-0.054-0.095-0.085-0.05-0.114,0.018
			c-0.107,0.162-0.247,0.242-0.45,0.219c-0.139-0.015-0.243,0.099-0.368,0.141c-0.126,0.042-0.246,0.101-0.371,0.147
			c-0.304,0.113-0.506,0.041-0.681-0.235c-0.022-0.035-0.021-0.102-0.073-0.101c-0.295,0.005-0.326-0.27-0.453-0.434
			c-0.097-0.127-0.022-0.303,0.133-0.33c0.439-0.076,0.592-0.111,0.831,0.297c0.089,0.152,0.16,0.14,0.294,0.088
			c0.192-0.075,0.136-0.193,0.028-0.251c-0.215-0.116-0.383-0.312-0.686-0.277c-0.407,0.048-0.818-0.12-1.237-0.019
			c-0.09,0.022-0.13,0.038-0.172,0.12c-0.294,0.565-0.615,0.733-1.262,0.666c-0.198-0.021-0.369,0.027-0.509,0.165
			c-0.13,0.128-0.287,0.195-0.463,0.175c-0.126-0.014-0.197,0.029-0.255,0.126c-0.114,0.188-0.276,0.247-0.493,0.211
			c-0.136-0.023-0.275-0.03-0.417-0.021c-0.274,0.017-0.366-0.148-0.326-0.411c0.061-0.412,0.371-0.592,0.661-0.795
			c0.115-0.08,0.263-0.087,0.365,0.032c0.076,0.088,0.111,0.066,0.153-0.016c0.034-0.066,0.075-0.13,0.095-0.2
			c0.056-0.197,0.183-0.266,0.383-0.257c0.249,0.011,0.298-0.086,0.233-0.324c-0.07-0.253-0.091-0.466-0.471-0.459
			c-0.459,0.009-0.759-0.273-0.837-0.629c-0.09-0.412,0.107-0.911,0.45-1.134c0.049-0.032,0.099-0.06,0.154-0.092
			c-0.059-0.057-0.128-0.049-0.189-0.063c-0.427-0.095-0.671-0.523-0.536-0.943c0.052-0.161,0.18-0.209,0.306-0.095
			c0.196,0.178,0.426,0.256,0.681,0.294c0.274,0.041,0.465,0.187,0.528,0.469c0.061,0.272-0.047,0.474-0.265,0.633
			c-0.156,0.114-0.309,0.235-0.423,0.391c-0.091,0.125-0.186,0.271-0.085,0.429c0.107,0.168,0.281,0.179,0.457,0.133
			c0.255-0.067,0.485-0.19,0.675-0.372c0.254-0.244,0.547-0.372,0.899-0.375c0.177-0.001,0.336-0.055,0.454-0.195
			c0.212-0.254,0.487-0.381,0.813-0.398c0.093-0.005,0.166-0.024,0.23-0.103c0.18-0.223,0.429-0.339,0.702-0.397
			c0.185-0.04,0.362-0.102,0.507-0.214C28.206,7.312,28.512,7.275,28.846,7.361z M40.435,11.868
			c-0.208-0.181-0.449-0.325-0.724-0.286c-0.42,0.06-0.783,0.022-1.048-0.352c-0.038-0.054-0.113-0.056-0.164-0.029
			c-0.074,0.039-0.002,0.09,0.013,0.13c0.119,0.303,0.539,0.546,0.879,0.481c0.315-0.06,0.585-0.018,0.821,0.212
			c0.093,0.091,0.223,0.14,0.35,0.104c0.156-0.044,0.237,0.037,0.317,0.139c0.036,0.047,0.063,0.103,0.105,0.142
			c0.139,0.126,0.316,0.077,0.438,0.013c0.091-0.048,0.03-0.227-0.048-0.289c-0.126-0.1-0.219-0.244-0.358-0.314
			c-0.21-0.105-0.332-0.273-0.41-0.476c-0.055-0.145-0.12-0.203-0.288-0.193c-0.334,0.019-0.495-0.22-0.376-0.517
			c0.025-0.062,0.053-0.124,0.066-0.188c0.027-0.137-0.002-0.33,0.079-0.398c0.078-0.066,0.264,0.004,0.402,0
			c0.565-0.017,0.87-0.36,0.766-0.868c-0.057-0.278-0.184-0.515-0.454-0.65c-0.059-0.029-0.112-0.074-0.16-0.119
			c-0.047-0.045-0.103-0.095-0.068-0.172c0.03-0.065,0.085-0.097,0.159-0.104c0.096-0.009,0.193-0.015,0.285-0.04
			c0.321-0.089,0.46-0.387,0.333-0.71c-0.218,0.178-0.465,0.283-0.745,0.317c-0.2,0.024-0.352,0.12-0.402,0.327
			c-0.048,0.197,0.032,0.347,0.192,0.461c0.164,0.117,0.31,0.254,0.443,0.404c0.175,0.196,0.223,0.484,0.119,0.659
			c-0.109,0.183-0.364,0.265-0.634,0.204c-0.289-0.065-0.543-0.204-0.754-0.407c-0.227-0.218-0.485-0.328-0.798-0.33
			c-0.214-0.001-0.411-0.067-0.554-0.237c-0.187-0.223-0.419-0.344-0.712-0.355c-0.116-0.004-0.239-0.009-0.318-0.124
			c-0.153-0.221-0.385-0.323-0.634-0.378c-0.222-0.049-0.436-0.123-0.606-0.263c-0.329-0.27-0.795-0.183-1.096,0.042
			c-0.47,0.35-0.911,0.737-1.273,1.202c-0.164,0.21-0.316,0.429-0.357,0.705c-0.08,0.546-0.176,1.08-0.536,1.538
			c-0.132,0.168-0.246,0.348-0.488,0.477c0.575,0.085,0.612-0.49,0.999-0.676c-0.095,0.232-0.214,0.382-0.268,0.567
			c-0.057,0.195-0.283,0.248-0.439,0.391c0.194,0.031,0.361,0.014,0.481-0.084c0.218-0.179,0.421-0.32,0.682-0.083
			c0.005,0.004,0.015,0.004,0.022,0.003c0.312-0.033,0.599,0.074,0.89,0.157c0.083,0.024,0.179,0.051,0.241-0.047
			c0.059-0.093,0.075-0.195,0.027-0.297c-0.027-0.057-0.068-0.108-0.1-0.157c0.05-0.069,0.151,0.039,0.173-0.061
			c0.017-0.077-0.023-0.15-0.085-0.195c-0.161-0.115-0.21-0.289-0.268-0.463c0.255-0.05,0.493,0.159,0.755,0.024
			c-0.131-0.217-0.223-0.438-0.129-0.697c0.013,0.012,0.02,0.016,0.022,0.021c0.01,0.035,0.018,0.071,0.027,0.106
			c0.073,0.287,0.146,0.566,0.519,0.602c0.133,0.013,0.069,0.099,0.035,0.179c-0.125,0.289-0.456,0.526-0.192,0.939
			c-0.281-0.198-0.327-0.357-0.206-0.592c0.051-0.099,0.106-0.195,0.153-0.296c0.022-0.047,0.082-0.11,0.014-0.15
			c-0.068-0.04-0.152-0.022-0.193,0.055c-0.059,0.11-0.101,0.23-0.159,0.341c-0.205,0.388-0.039,0.706,0.393,0.754
			c0.064,0.007,0.124,0.042,0.186,0.067c0.199,0.081,0.397,0.163,0.596,0.244c0.201,0.082,0.346,0.01,0.445-0.171
			c0.039-0.071,0.062-0.187,0.145-0.18c0.223,0.019,0.25-0.173,0.347-0.288c0.082-0.098,0.03-0.139-0.076-0.158
			c-0.312-0.057-0.432-0.014-0.589,0.296c-0.098,0.194-0.212,0.224-0.389,0.133c-0.039-0.02-0.082-0.034-0.124-0.049
			c-0.302-0.107-0.243-0.213-0.125-0.434c0.051-0.095,0.141-0.149,0.238-0.193c0.184-0.083,0.308-0.225,0.399-0.402
			c0.029-0.055,0.029-0.136,0.11-0.156c0.061,0.04,0.069,0.103,0.044,0.158c-0.087,0.193,0.016,0.208,0.167,0.195
			c0.397-0.034,0.792-0.093,1.195-0.033c0.191,0.029,0.3-0.106,0.305-0.301c0.005-0.173,0.001-0.346,0.001-0.56
			c0.147,0.175,0.143,0.35,0.133,0.512c-0.014,0.216,0.081,0.367,0.221,0.508c0.22,0.223,0.483,0.333,0.798,0.327
			c0.332-0.006,0.627,0.088,0.856,0.343C40.458,11.84,40.446,11.854,40.435,11.868z M23.599,11.829
			c-0.009-0.016-0.017-0.032-0.026-0.047c0.228-0.233,0.511-0.305,0.827-0.302c0.583,0.006,0.984-0.376,1.006-0.938
			c0.005-0.132-0.001-0.274,0.131-0.387c0,0.191-0.008,0.361,0.002,0.531c0.013,0.223,0.13,0.352,0.342,0.31
			c0.382-0.075,0.753-0.005,1.127,0.029c0.157,0.014,0.289,0.009,0.195-0.211c-0.022-0.052-0.008-0.106,0.045-0.134
			c0.011-0.006,0.055,0.025,0.063,0.046C27.417,11,27.62,11.167,27.873,11.3c0.142,0.075,0.227,0.224,0.21,0.392
			c-0.016,0.149-0.177,0.132-0.273,0.188c-0.051,0.029-0.11,0.044-0.166,0.064c-0.107,0.038-0.187,0.011-0.238-0.095
			c-0.055-0.114-0.12-0.222-0.212-0.311c-0.074-0.07-0.457-0.104-0.504-0.033c-0.091,0.139,0.084,0.194,0.118,0.297
			c0.028,0.085,0.088,0.127,0.188,0.115c0.099-0.012,0.133,0.073,0.173,0.146c0.139,0.256,0.244,0.279,0.525,0.193
			c0.3-0.091,0.556-0.321,0.896-0.292c0.055,0.005,0.091-0.043,0.126-0.082c0.239-0.27,0.19-0.817-0.092-1.044
			c-0.053-0.043-0.119-0.053-0.165-0.025c-0.069,0.042-0.012,0.102,0.011,0.15c0.045,0.093,0.094,0.185,0.143,0.276
			c0.133,0.25,0.096,0.397-0.172,0.587c0.175-0.276,0.044-0.497-0.104-0.715c-0.041-0.061-0.063-0.136-0.108-0.194
			c-0.103-0.131-0.048-0.181,0.089-0.2c0.228-0.032,0.35-0.174,0.404-0.388c0.028-0.111,0.06-0.221,0.093-0.343
			c0.065,0.131,0.049,0.254,0.033,0.38c-0.016,0.127-0.105,0.222-0.144,0.341c0.261,0.122,0.499-0.084,0.752-0.027
			c-0.068,0.164-0.105,0.339-0.265,0.449c-0.066,0.046-0.111,0.127-0.087,0.215c0.025,0.092,0.128-0.029,0.172,0.067
			c-0.129,0.115-0.187,0.27-0.078,0.425c0.115,0.164,0.272,0.044,0.404,0.01c0.215-0.056,0.425-0.127,0.653-0.101
			c0.107,0.012,0.21-0.029,0.287-0.101c0.112-0.106,0.187-0.091,0.293,0.02c0.207,0.218,0.431,0.279,0.697,0.199
			c-0.466-0.132-0.495-0.558-0.705-0.872c0.096-0.021,0.123,0.032,0.16,0.065c0.1,0.091,0.163,0.209,0.238,0.32
			c0.149,0.221,0.349,0.299,0.536,0.204c-0.365-0.132-0.512-0.487-0.658-0.76c-0.175-0.326-0.29-0.726-0.31-1.123
			c-0.01-0.191-0.068-0.36-0.17-0.52c-0.389-0.612-0.92-1.085-1.501-1.499c-0.333-0.237-0.706-0.289-1.074-0.014
			c-0.178,0.133-0.387,0.212-0.609,0.259c-0.228,0.048-0.443,0.14-0.586,0.335c-0.085,0.116-0.19,0.152-0.323,0.155
			c-0.264,0.006-0.503,0.093-0.673,0.294c-0.178,0.211-0.394,0.3-0.66,0.306c-0.295,0.006-0.54,0.119-0.755,0.327
			c-0.209,0.204-0.464,0.343-0.753,0.408c-0.275,0.061-0.522-0.017-0.635-0.2c-0.109-0.177-0.064-0.45,0.114-0.659
			c0.145-0.17,0.32-0.309,0.494-0.447c0.134-0.106,0.182-0.249,0.143-0.417c-0.039-0.169-0.146-0.286-0.312-0.31
			c-0.311-0.044-0.595-0.146-0.85-0.34c-0.098,0.424,0.078,0.681,0.486,0.745c0.116,0.018,0.288-0.034,0.312,0.137
			c0.019,0.142-0.134,0.197-0.234,0.27c-0.012,0.009-0.027,0.012-0.04,0.02c-0.32,0.194-0.507,0.655-0.408,1.005
			c0.087,0.307,0.371,0.485,0.788,0.49c0.074,0.001,0.149-0.004,0.221-0.018c0.119-0.023,0.189-0.021,0.188,0.14
			c-0.001,0.161,0.039,0.322,0.103,0.475c0.117,0.278-0.004,0.514-0.312,0.506c-0.244-0.007-0.322,0.099-0.391,0.284
			c-0.039,0.104-0.095,0.212-0.192,0.268c-0.173,0.1-0.297,0.258-0.463,0.363c-0.116,0.073-0.141,0.182-0.149,0.303
			c-0.003,0.039,0.007,0.066,0.05,0.085c0.165,0.072,0.375,0.017,0.486-0.137c0.094-0.131,0.185-0.242,0.382-0.185
			c0.103,0.03,0.226-0.015,0.308-0.097c0.232-0.233,0.506-0.274,0.82-0.225c0.42,0.065,0.784-0.177,0.93-0.587
			c-0.107-0.054-0.173-0.007-0.243,0.077c-0.205,0.246-0.474,0.365-0.791,0.305C24.151,11.532,23.864,11.627,23.599,11.829z
			 M41.872,12.333c-0.048-0.094-0.07-0.2-0.087-0.309c-0.011-0.068-0.057-0.125-0.141-0.097c-0.065,0.022-0.126,0.066-0.111,0.143
			c0.022,0.114,0.054,0.228,0.093,0.337c0.027,0.073,0.098,0.048,0.153,0.037C41.833,12.433,41.872,12.401,41.872,12.333z
			 M22.302,12.461c0.149-0.075,0.112-0.255,0.16-0.384c0.032-0.087-0.062-0.173-0.14-0.15c-0.2,0.058-0.107,0.276-0.185,0.41
			C22.088,12.42,22.205,12.439,22.302,12.461z M22.901,11.561c0,0.006-0.036-0.018-0.083-0.026c-0.07-0.012-0.367,0.202-0.359,0.259
			c0.009,0.07,0.065,0.098,0.125,0.108C22.673,11.919,22.892,11.72,22.901,11.561z M41.201,11.532
			c-0.051,0.005-0.097,0.025-0.095,0.06c0.006,0.121,0.101,0.193,0.179,0.267c0.056,0.054,0.132,0.065,0.204,0.014
			c0.038-0.027,0.077-0.073,0.045-0.109C41.44,11.659,41.32,11.588,41.201,11.532z M34.841,10.893
			c0.073,0.066,0.101,0.178,0.211,0.192c0.013,0.002,0.061-0.084,0.049-0.11C35.05,10.861,34.929,10.931,34.841,10.893z
			 M29.206,10.878c-0.328,0.057-0.328,0.057-0.235,0.213C29.036,11.034,29.1,10.975,29.206,10.878z"/>
		<path fill="#FDCB02" d="M28.912,11.934c0.028-0.067,0.059-0.113,0.114-0.018c0.109,0.191,0.276,0.201,0.463,0.148
			c0.269-0.077,0.534-0.174,0.824-0.15c0.074,0.006,0.162-0.033,0.229-0.074c0.099-0.062,0.166-0.041,0.253,0.027
			c0.219,0.172,0.468,0.247,0.749,0.197c0.08-0.014,0.169-0.048,0.165-0.122c-0.011-0.196,0.235-0.138,0.262-0.288
			c0.006-0.033,0.042-0.011,0.046,0.006c0.037,0.149,0.254,0.11,0.281,0.304c0.02,0.141,0.214,0.136,0.345,0.125
			c0.202-0.016,0.397-0.075,0.551-0.213c0.093-0.084,0.172-0.098,0.269-0.018c0.022,0.018,0.053,0.033,0.081,0.034
			c0.379,0.016,0.739,0.124,1.107,0.202c0.133,0.028,0.248-0.037,0.308-0.167c0.059-0.128,0.093-0.073,0.127,0.013
			C33.477,13.99,30.463,13.988,28.912,11.934z"/>
		<path fill="#012654" d="M25.577,39.54c0,3.816,0,7.631-0.002,11.447c0,0.075,0.049,0.181-0.033,0.223
			c-0.064,0.033-0.131-0.05-0.192-0.087c-2.383-1.442-4.765-2.887-7.151-4.323c-0.202-0.121-0.275-0.247-0.274-0.487
			c0.008-6.057,0.008-12.115,0.002-18.172c0-0.212,0.045-0.269,0.264-0.269c2.383,0.009,4.766,0.008,7.149,0.001
			c0.196-0.001,0.244,0.045,0.244,0.243C25.576,31.923,25.577,35.732,25.577,39.54z"/>
		<path fill="#D1013D" d="M35.911,17.282c0.763,0.314,1.035,0.876,0.851,1.813c-0.115,0.587-0.652,1.004-1.357,1.063
			c-0.784,0.065-1.572,0.013-2.358,0.025c-0.171,0.003-0.116-0.122-0.116-0.204c-0.003-0.957-0.002-1.915-0.002-2.872
			c0-0.69-0.001-1.38,0.001-2.07c0-0.089-0.036-0.198,0.128-0.194c0.675,0.014,1.351-0.03,2.025,0.023
			c0.665,0.053,1.178,0.5,1.277,1.081C36.438,16.415,36.321,16.77,35.911,17.282z M34.011,17.511c0,0.526,0.004,1.053-0.003,1.579
			c-0.002,0.133,0.032,0.184,0.173,0.178c0.259-0.011,0.519,0.002,0.778-0.004c0.423-0.01,0.748-0.305,0.762-0.684
			c0.017-0.463-0.265-0.73-0.774-0.734c-0.184-0.002-0.422,0.058-0.538-0.033c-0.125-0.098-0.035-0.347-0.039-0.529
			c-0.007-0.351-0.002-0.351,0.357-0.365c0.327-0.012,0.505-0.166,0.543-0.47c0.043-0.34-0.107-0.57-0.423-0.655
			c-0.219-0.059-0.443-0.018-0.664-0.035c-0.137-0.011-0.177,0.038-0.175,0.175C34.015,16.459,34.011,16.985,34.011,17.511z"/>
		<path fill="#D1013D" d="M40.466,18.082c0,0.311,0.01,0.623-0.002,0.934c-0.027,0.669-0.431,1.142-1.086,1.283
			c-0.39,0.084-0.783,0.077-1.169-0.017c-0.666-0.161-1.043-0.64-1.059-1.354c-0.013-0.608,0.001-1.216-0.006-1.825
			c-0.002-0.145,0.057-0.173,0.184-0.169c0.23,0.008,0.46,0.01,0.69-0.001c0.135-0.006,0.178,0.032,0.175,0.172
			c-0.008,0.549-0.006,1.098-0.002,1.647c0.002,0.366,0.206,0.619,0.525,0.668c0.367,0.057,0.637-0.126,0.68-0.496
			c0.059-0.509,0.016-1.022,0.023-1.533c0.006-0.454,0.001-0.457,0.45-0.453c0.191,0.002,0.443-0.082,0.558,0.032
			c0.126,0.125,0.033,0.38,0.041,0.578c0.007,0.178,0.002,0.356,0.002,0.534C40.468,18.082,40.467,18.082,40.466,18.082z"/>
		<path fill="#D1003C" d="M42.87,17.378c0-0.854,0.003-1.707-0.003-2.561c-0.001-0.15,0.029-0.211,0.192-0.201
			c0.222,0.014,0.445,0.009,0.668,0.001c0.118-0.004,0.169,0.021,0.169,0.156c-0.004,1.752-0.004,3.503,0,5.255
			c0,0.136-0.053,0.158-0.169,0.155c-0.23-0.007-0.461-0.011-0.69,0.001c-0.145,0.008-0.169-0.049-0.169-0.179
			C42.872,19.13,42.87,18.254,42.87,17.378z"/>
		<path fill="#D2033E" d="M42.118,17.399c0,0.86-0.005,1.72,0.004,2.58c0.002,0.169-0.046,0.218-0.211,0.207
			c-0.214-0.014-0.43-0.008-0.645-0.002c-0.115,0.003-0.174-0.019-0.174-0.156c0.004-1.749,0.004-3.499,0-5.248
			c0-0.131,0.048-0.165,0.169-0.161c0.222,0.007,0.445,0.013,0.667-0.002c0.164-0.011,0.194,0.053,0.193,0.202
			C42.115,15.679,42.118,16.539,42.118,17.399z"/>
		<path fill="#D2033E" d="M22.404,17.957c0.29,0.422,0.57,0.83,0.85,1.237c0.194,0.281,0.387,0.562,0.584,0.84
			c0.077,0.109,0.064,0.151-0.077,0.149c-0.319-0.005-0.638-0.005-0.958,0c-0.1,0.002-0.161-0.032-0.215-0.119
			c-0.317-0.51-0.639-1.016-0.962-1.522c-0.047-0.074-0.058-0.149-0.058-0.232c0.002-0.297,0.016-0.595-0.005-0.89
			c-0.015-0.207,0.06-0.242,0.248-0.24c0.549,0.006,0.86-0.419,0.706-0.942c-0.09-0.306-0.329-0.424-0.614-0.472
			c-0.654-0.111-0.693-0.078-0.693,0.567c0,1.21-0.004,2.42,0.004,3.63c0.001,0.176-0.047,0.233-0.223,0.222
			c-0.237-0.015-0.475-0.008-0.712-0.002c-0.121,0.003-0.169-0.03-0.169-0.161c0.004-1.715,0.002-3.43,0.003-5.144
			c0-0.073-0.017-0.154,0.103-0.15c0.718,0.025,1.44-0.066,2.153,0.087c1.093,0.235,1.641,1.347,1.158,2.361
			C23.308,17.636,22.907,17.852,22.404,17.957z"/>
		<path fill="#D1013D" d="M30.486,19.757c-0.537,0.479-1.104,0.607-1.726,0.355c-0.627-0.254-0.886-0.778-0.945-1.418
			c-0.05-0.552,0.044-1.067,0.45-1.482c0.497-0.508,1.249-0.594,1.928-0.228c0.082,0.044,0.163,0.091,0.273,0.152
			c0-0.561,0-1.093,0-1.624c0-0.245,0.004-0.49-0.002-0.734c-0.002-0.108,0.023-0.164,0.146-0.16
			c0.252,0.007,0.505,0.008,0.757-0.001c0.126-0.004,0.143,0.051,0.143,0.158c-0.003,1.751-0.003,3.502,0.001,5.253
			c0,0.134-0.05,0.16-0.168,0.156c-0.215-0.008-0.431-0.015-0.645,0.002c-0.181,0.014-0.239-0.052-0.214-0.222
			C30.493,19.908,30.486,19.851,30.486,19.757z M28.918,18.505c-0.001,0.516,0.271,0.832,0.717,0.835
			c0.521,0.004,0.875-0.344,0.874-0.858c-0.001-0.487-0.366-0.856-0.84-0.851C29.226,17.636,28.919,17.993,28.918,18.505z"/>
		<path fill="#D2033E" d="M26.192,18.737c-0.334,0-0.668,0.014-1.001-0.005c-0.206-0.012-0.198,0.073-0.152,0.218
			c0.173,0.55,0.866,0.725,1.267,0.295c0.152-0.163,0.258-0.165,0.423-0.06c0.125,0.079,0.258,0.149,0.397,0.198
			c0.183,0.066,0.154,0.141,0.052,0.263c-0.438,0.527-1.006,0.703-1.669,0.635c-1.745-0.177-1.87-1.993-1.225-2.878
			c0.397-0.545,0.971-0.675,1.597-0.641c1.215,0.066,1.552,1.051,1.525,1.865c-0.004,0.115-0.067,0.11-0.145,0.11
			C26.904,18.736,26.548,18.737,26.192,18.737z M25.696,18.121c0.17,0,0.341-0.005,0.511,0.002c0.124,0.005,0.154-0.031,0.116-0.154
			c-0.09-0.292-0.321-0.477-0.619-0.479c-0.3-0.002-0.564,0.197-0.644,0.483c-0.027,0.096-0.024,0.155,0.103,0.15
			C25.34,18.115,25.518,18.121,25.696,18.121z"/>
		<path fill="#D2033E" d="M23.599,11.829c0.265-0.203,0.552-0.298,0.893-0.233c0.317,0.06,0.585-0.059,0.791-0.305
			c0.07-0.084,0.136-0.131,0.243-0.077c-0.145,0.411-0.51,0.652-0.93,0.587c-0.314-0.049-0.587-0.008-0.82,0.225
			c-0.082,0.082-0.204,0.127-0.308,0.097c-0.198-0.057-0.288,0.055-0.382,0.185c-0.111,0.154-0.322,0.21-0.486,0.137
			c-0.043-0.019-0.053-0.046-0.05-0.085c0.008-0.121,0.033-0.231,0.149-0.303c0.166-0.104,0.29-0.263,0.463-0.363
			c0.096-0.056,0.153-0.164,0.192-0.268c0.069-0.185,0.147-0.291,0.391-0.284c0.307,0.009,0.429-0.228,0.312-0.506
			c-0.064-0.153-0.104-0.314-0.103-0.475c0.001-0.161-0.07-0.163-0.188-0.14c-0.072,0.014-0.147,0.019-0.221,0.018
			c-0.417-0.006-0.701-0.184-0.788-0.49c-0.099-0.35,0.088-0.811,0.408-1.005c0.013-0.008,0.028-0.011,0.04-0.02
			c0.1-0.073,0.253-0.128,0.234-0.27c-0.023-0.171-0.195-0.118-0.312-0.137c-0.408-0.064-0.583-0.321-0.486-0.745
			c0.255,0.193,0.54,0.295,0.85,0.34c0.166,0.024,0.273,0.141,0.312,0.31c0.039,0.168-0.01,0.31-0.143,0.417
			c-0.174,0.139-0.349,0.277-0.494,0.447c-0.177,0.208-0.223,0.482-0.114,0.659c0.113,0.183,0.36,0.261,0.635,0.2
			c0.29-0.065,0.544-0.204,0.753-0.408c0.215-0.208,0.46-0.321,0.755-0.327c0.266-0.006,0.482-0.095,0.66-0.306
			c0.17-0.201,0.41-0.288,0.673-0.294c0.134-0.003,0.238-0.039,0.323-0.155c0.143-0.195,0.358-0.287,0.586-0.335
			c0.222-0.047,0.431-0.126,0.609-0.259c0.368-0.275,0.741-0.223,1.074,0.014c0.581,0.414,1.112,0.887,1.501,1.499
			c0.102,0.161,0.16,0.33,0.17,0.52c0.02,0.397,0.135,0.797,0.31,1.123c0.147,0.273,0.293,0.628,0.658,0.76
			c-0.186,0.095-0.387,0.017-0.536-0.204c-0.075-0.111-0.137-0.229-0.238-0.32c-0.036-0.033-0.063-0.086-0.16-0.065
			c0.21,0.313,0.239,0.74,0.705,0.872c-0.266,0.08-0.49,0.019-0.697-0.199c-0.105-0.111-0.18-0.126-0.293-0.02
			c-0.076,0.073-0.18,0.114-0.287,0.101c-0.229-0.026-0.438,0.045-0.653,0.101c-0.132,0.034-0.289,0.154-0.404-0.01
			c-0.109-0.154-0.051-0.309,0.078-0.425c-0.044-0.096-0.147,0.024-0.172-0.067c-0.024-0.088,0.021-0.17,0.087-0.215
			c0.16-0.11,0.197-0.285,0.265-0.449c-0.253-0.057-0.491,0.149-0.752,0.027c0.039-0.12,0.128-0.214,0.144-0.341
			c0.016-0.126,0.033-0.249-0.033-0.38c-0.033,0.122-0.065,0.232-0.093,0.343c-0.054,0.214-0.176,0.356-0.404,0.388
			c-0.137,0.019-0.192,0.07-0.089,0.2c0.045,0.057,0.067,0.133,0.108,0.194c0.148,0.219,0.279,0.439,0.104,0.715
			c0.269-0.19,0.306-0.337,0.172-0.587c-0.049-0.091-0.098-0.183-0.143-0.276c-0.023-0.048-0.08-0.108-0.011-0.15
			c0.047-0.028,0.112-0.018,0.165,0.025c0.282,0.227,0.331,0.774,0.092,1.044c-0.035,0.04-0.071,0.087-0.126,0.082
			c-0.34-0.029-0.595,0.201-0.896,0.292c-0.281,0.085-0.386,0.062-0.525-0.193c-0.04-0.073-0.074-0.158-0.173-0.146
			c-0.101,0.012-0.16-0.03-0.188-0.115c-0.034-0.103-0.209-0.158-0.118-0.297c0.047-0.072,0.431-0.038,0.504,0.033
			c0.092,0.088,0.157,0.197,0.212,0.311c0.051,0.107,0.131,0.133,0.238,0.095c0.056-0.02,0.115-0.034,0.166-0.064
			c0.096-0.056,0.258-0.039,0.273-0.188c0.018-0.168-0.068-0.317-0.21-0.392c-0.253-0.133-0.456-0.3-0.561-0.573
			c-0.008-0.022-0.052-0.052-0.063-0.046c-0.053,0.028-0.068,0.082-0.045,0.134c0.094,0.22-0.038,0.225-0.195,0.211
			c-0.375-0.034-0.745-0.104-1.127-0.029c-0.212,0.041-0.329-0.087-0.342-0.31c-0.01-0.169-0.002-0.34-0.002-0.531
			c-0.132,0.112-0.126,0.254-0.131,0.387c-0.022,0.562-0.423,0.944-1.006,0.938c-0.317-0.003-0.6,0.069-0.827,0.302
			c-0.015,0.015-0.029,0.03-0.044,0.045c-0.015,0.015-0.029,0.03-0.044,0.045c-0.036,0.014-0.071,0.065-0.058,0.076
			c0.048,0.039,0.073-0.011,0.097-0.046c0.016-0.016,0.032-0.031,0.048-0.047C23.584,11.849,23.593,11.84,23.599,11.829z
			 M29.97,10.292c0.166-0.038,0.2-0.324,0.386-0.087c0.096,0.123,0.129,0.252,0.167,0.424c0.117-0.145,0.128-0.279,0.057-0.393
			c-0.088-0.141-0.175-0.369-0.32-0.368C30.094,9.868,30.093,10.122,29.97,10.292z M28.854,9.201
			c0.083-0.228,0.065-0.412-0.024-0.589c-0.023-0.045-0.045-0.126-0.122-0.079c-0.057,0.034-0.06,0.095-0.023,0.154
			C28.775,8.832,28.827,8.99,28.854,9.201z M29.944,11.395c0.006,0.044,0.035,0.064,0.087,0.063c0.103-0.003,0.191-0.03,0.208-0.148
			c0.008-0.055-0.015-0.11-0.083-0.098C30.058,11.229,29.986,11.288,29.944,11.395z"/>
		<path fill="#D2033E" d="M40.47,11.826c-0.229-0.255-0.524-0.349-0.856-0.343c-0.315,0.006-0.578-0.104-0.798-0.327
			c-0.14-0.142-0.235-0.292-0.221-0.508c0.01-0.162,0.014-0.337-0.133-0.512c0,0.214,0.004,0.387-0.001,0.56
			c-0.005,0.195-0.114,0.33-0.305,0.301c-0.403-0.061-0.798-0.002-1.195,0.033c-0.15,0.013-0.254-0.002-0.167-0.195
			c0.025-0.055,0.016-0.118-0.045-0.158c-0.081,0.02-0.081,0.101-0.11,0.156c-0.092,0.177-0.216,0.319-0.399,0.402
			c-0.097,0.044-0.187,0.098-0.238,0.193c-0.118,0.221-0.177,0.327,0.125,0.434c0.042,0.015,0.085,0.029,0.124,0.049
			c0.177,0.091,0.291,0.06,0.389-0.133c0.157-0.31,0.276-0.353,0.589-0.296c0.106,0.02,0.159,0.06,0.076,0.158
			c-0.097,0.115-0.124,0.307-0.347,0.288c-0.083-0.007-0.106,0.109-0.145,0.18c-0.099,0.181-0.244,0.253-0.445,0.171
			c-0.199-0.081-0.397-0.163-0.596-0.244c-0.061-0.025-0.122-0.06-0.186-0.067c-0.431-0.049-0.597-0.367-0.393-0.754
			c0.059-0.111,0.1-0.231,0.159-0.341c0.041-0.077,0.126-0.094,0.193-0.055c0.068,0.04,0.008,0.103-0.014,0.15
			c-0.047,0.101-0.103,0.197-0.153,0.296c-0.121,0.235-0.075,0.395,0.206,0.592c-0.264-0.413,0.067-0.65,0.192-0.939
			c0.035-0.08,0.098-0.166-0.035-0.179c-0.373-0.037-0.447-0.315-0.519-0.602c-0.009-0.036-0.018-0.071-0.027-0.106
			c-0.001-0.005-0.009-0.009-0.022-0.021c-0.094,0.259-0.002,0.48,0.129,0.697c-0.262,0.135-0.5-0.074-0.755-0.024
			c0.059,0.174,0.108,0.348,0.268,0.463c0.062,0.045,0.102,0.117,0.085,0.195c-0.022,0.1-0.123-0.009-0.173,0.061
			c0.032,0.049,0.073,0.099,0.1,0.157c0.048,0.102,0.031,0.204-0.027,0.297c-0.062,0.098-0.158,0.071-0.241,0.047
			c-0.292-0.084-0.578-0.19-0.89-0.157c-0.007,0.001-0.017,0.001-0.022-0.003c-0.261-0.237-0.463-0.096-0.682,0.083
			c-0.12,0.098-0.286,0.116-0.481,0.084c0.156-0.143,0.381-0.196,0.439-0.391c0.054-0.185,0.174-0.335,0.268-0.567
			c-0.388,0.186-0.424,0.761-0.999,0.676c0.243-0.128,0.356-0.308,0.488-0.477c0.36-0.458,0.456-0.992,0.536-1.538
			c0.04-0.276,0.193-0.495,0.357-0.705c0.363-0.465,0.803-0.852,1.273-1.202c0.302-0.224,0.767-0.312,1.096-0.042
			c0.17,0.14,0.384,0.214,0.606,0.263c0.249,0.055,0.481,0.157,0.634,0.378c0.079,0.114,0.202,0.119,0.318,0.124
			c0.293,0.011,0.525,0.132,0.712,0.355c0.143,0.171,0.34,0.236,0.554,0.237c0.314,0.002,0.572,0.111,0.798,0.33
			c0.211,0.203,0.465,0.341,0.754,0.407c0.27,0.061,0.525-0.022,0.634-0.204c0.104-0.175,0.056-0.462-0.119-0.659
			c-0.133-0.15-0.279-0.287-0.443-0.404c-0.16-0.114-0.239-0.264-0.192-0.461c0.05-0.208,0.203-0.303,0.402-0.327
			c0.28-0.034,0.527-0.138,0.745-0.317c0.127,0.324-0.012,0.622-0.333,0.71c-0.092,0.025-0.189,0.031-0.285,0.04
			c-0.074,0.007-0.129,0.038-0.159,0.104c-0.035,0.077,0.021,0.127,0.068,0.172c0.048,0.045,0.101,0.09,0.16,0.119
			c0.27,0.135,0.397,0.373,0.454,0.65c0.104,0.508-0.201,0.851-0.766,0.868c-0.138,0.004-0.325-0.066-0.402,0
			c-0.081,0.068-0.052,0.261-0.079,0.398c-0.013,0.065-0.041,0.127-0.066,0.188c-0.119,0.297,0.042,0.536,0.376,0.517
			c0.169-0.01,0.233,0.049,0.288,0.193c0.078,0.203,0.2,0.37,0.41,0.476c0.139,0.07,0.232,0.214,0.358,0.314
			c0.078,0.062,0.14,0.241,0.048,0.289c-0.122,0.064-0.299,0.113-0.438-0.013c-0.043-0.039-0.069-0.096-0.105-0.142
			c-0.08-0.103-0.161-0.183-0.317-0.139c-0.126,0.036-0.257-0.013-0.35-0.104c-0.236-0.23-0.506-0.272-0.821-0.212
			c-0.34,0.065-0.76-0.178-0.879-0.481c-0.016-0.04-0.087-0.09-0.013-0.13c0.051-0.027,0.126-0.024,0.164,0.029
			c0.265,0.374,0.627,0.412,1.048,0.352c0.275-0.039,0.516,0.104,0.724,0.286c0.022,0.02,0.045,0.039,0.067,0.059
			c0.01,0.034,0.039,0.051,0.062,0.03c0.03-0.028-0.012-0.043-0.027-0.062C40.515,11.872,40.492,11.849,40.47,11.826z
			 M34.006,10.259c-0.088-0.134-0.098-0.354-0.242-0.392c-0.152-0.04-0.185,0.194-0.293,0.287c-0.027,0.023-0.05,0.057-0.061,0.091
			c-0.042,0.126-0.054,0.249,0.065,0.369c0.013-0.046,0.024-0.067,0.024-0.087c-0.004-0.146,0.086-0.238,0.172-0.344
			C33.859,9.95,33.859,10.313,34.006,10.259z M35.147,9.199c0.019-0.205,0.076-0.363,0.165-0.509c0.036-0.059,0.037-0.12-0.02-0.156
			c-0.078-0.049-0.101,0.033-0.124,0.078C35.08,8.791,35.058,8.975,35.147,9.199z M33.957,11.457
			c0.043-0.003,0.104,0.001,0.092-0.061c-0.022-0.112-0.107-0.17-0.216-0.185c-0.056-0.008-0.076,0.04-0.073,0.086
			C33.769,11.418,33.853,11.452,33.957,11.457z"/>
		<path fill="#D2033E" d="M41.872,12.333c0,0.068-0.039,0.1-0.093,0.11c-0.055,0.011-0.127,0.036-0.153-0.037
			c-0.04-0.109-0.071-0.223-0.093-0.337c-0.015-0.077,0.046-0.121,0.111-0.143c0.084-0.028,0.13,0.029,0.141,0.097
			C41.802,12.133,41.824,12.239,41.872,12.333z"/>
		<path fill="#D2033E" d="M22.302,12.461c-0.098-0.022-0.214-0.041-0.165-0.125c0.078-0.134-0.015-0.352,0.185-0.41
			c0.078-0.022,0.173,0.063,0.14,0.15C22.414,12.206,22.451,12.386,22.302,12.461z"/>
		<path fill="#D2033E" d="M22.901,11.561c-0.01,0.159-0.228,0.357-0.318,0.341c-0.06-0.011-0.116-0.038-0.125-0.108
			c-0.007-0.058,0.29-0.272,0.359-0.259C22.865,11.544,22.901,11.567,22.901,11.561z"/>
		<path fill="#D2033E" d="M41.201,11.532c0.119,0.055,0.239,0.126,0.332,0.231c0.032,0.036-0.007,0.082-0.045,0.109
			c-0.072,0.051-0.148,0.04-0.204-0.014c-0.078-0.075-0.172-0.147-0.179-0.267C41.104,11.558,41.15,11.538,41.201,11.532z"/>
		<path fill="#FDCB02" d="M34.841,10.893c0.088,0.037,0.209-0.033,0.26,0.083c0.012,0.026-0.036,0.111-0.049,0.11
			C34.942,11.071,34.914,10.959,34.841,10.893z"/>
		<path fill="#FDCB02" d="M29.206,10.878c-0.107,0.097-0.171,0.155-0.235,0.213C28.878,10.935,28.878,10.935,29.206,10.878z"/>
		<path fill="#FDF8FA" d="M34.011,17.511c0-0.526,0.004-1.053-0.003-1.579c-0.002-0.136,0.038-0.186,0.175-0.175
			c0.221,0.018,0.444-0.024,0.664,0.035c0.316,0.085,0.466,0.315,0.423,0.655c-0.038,0.304-0.216,0.458-0.543,0.47
			c-0.359,0.013-0.365,0.013-0.357,0.365c0.004,0.182-0.085,0.431,0.039,0.529c0.116,0.091,0.354,0.031,0.538,0.033
			c0.508,0.005,0.791,0.271,0.774,0.734c-0.014,0.379-0.339,0.675-0.762,0.684c-0.259,0.006-0.519-0.007-0.778,0.004
			c-0.141,0.006-0.175-0.045-0.173-0.178C34.015,18.564,34.011,18.038,34.011,17.511z"/>
		<path fill="#FDFAFB" d="M28.918,18.505c0.001-0.512,0.308-0.87,0.751-0.874c0.474-0.005,0.839,0.364,0.84,0.851
			c0.001,0.515-0.353,0.862-0.874,0.858C29.189,19.337,28.918,19.021,28.918,18.505z"/>
		<path fill="#FDFAFB" d="M25.696,18.121c-0.178,0-0.356-0.006-0.533,0.002c-0.127,0.005-0.13-0.054-0.103-0.15
			c0.08-0.286,0.343-0.485,0.644-0.483c0.299,0.002,0.53,0.186,0.619,0.479c0.038,0.123,0.008,0.159-0.116,0.154
			C26.037,18.116,25.866,18.121,25.696,18.121z"/>
		<path fill="#F7EEF0" d="M29.97,10.292c0.123-0.169,0.124-0.424,0.289-0.424c0.145-0.001,0.232,0.227,0.32,0.368
			c0.071,0.114,0.06,0.249-0.057,0.393c-0.037-0.172-0.071-0.301-0.167-0.424C30.17,9.968,30.136,10.254,29.97,10.292z"/>
		<path fill="#F7EEF0" d="M28.854,9.201c-0.027-0.211-0.079-0.369-0.169-0.513c-0.037-0.059-0.034-0.12,0.023-0.154
			c0.077-0.047,0.1,0.034,0.122,0.079C28.92,8.789,28.938,8.973,28.854,9.201z"/>
		<path fill="#F7EEF0" d="M29.944,11.395c0.042-0.107,0.113-0.166,0.212-0.183c0.068-0.012,0.091,0.043,0.083,0.098
			c-0.017,0.118-0.105,0.145-0.208,0.148C29.979,11.459,29.95,11.439,29.944,11.395z"/>
		<path fill="#F7EEF0" d="M23.525,11.902c-0.025,0.034-0.05,0.084-0.097,0.046c-0.013-0.01,0.022-0.061,0.058-0.076
			C23.499,11.882,23.512,11.892,23.525,11.902z"/>
		<path fill="#F7EEF0" d="M23.486,11.872c0.015-0.015,0.029-0.03,0.044-0.045c0.015,0.009,0.029,0.019,0.044,0.028
			c-0.016,0.016-0.032,0.031-0.048,0.047C23.512,11.892,23.499,11.882,23.486,11.872z"/>
		<path fill="#F7EEF0" d="M23.53,11.826c0.015-0.015,0.029-0.03,0.044-0.045c0.009,0.016,0.017,0.032,0.026,0.047
			c-0.006,0.011-0.015,0.019-0.026,0.026C23.559,11.845,23.544,11.836,23.53,11.826z"/>
		<path fill="#F7EEF0" d="M34.006,10.259c-0.147,0.053-0.148-0.309-0.335-0.076c-0.086,0.106-0.176,0.198-0.172,0.344
			c0.001,0.02-0.011,0.041-0.024,0.087c-0.118-0.12-0.107-0.243-0.065-0.369c0.011-0.034,0.034-0.068,0.061-0.091
			c0.107-0.093,0.141-0.327,0.293-0.287C33.909,9.906,33.918,10.125,34.006,10.259z"/>
		<path fill="#F7EEF0" d="M35.147,9.199c-0.089-0.224-0.067-0.408,0.021-0.587c0.022-0.045,0.046-0.127,0.124-0.078
			c0.057,0.036,0.056,0.097,0.02,0.156C35.223,8.836,35.166,8.994,35.147,9.199z"/>
		<path fill="#F7EEF0" d="M33.957,11.457c-0.104-0.005-0.188-0.039-0.197-0.159c-0.003-0.046,0.017-0.094,0.073-0.086
			c0.109,0.015,0.193,0.073,0.216,0.185C34.061,11.458,34,11.455,33.957,11.457z"/>
		<path fill="#F7EEF0" d="M40.537,11.895c0.015,0.019,0.057,0.035,0.027,0.062c-0.023,0.022-0.052,0.005-0.062-0.03
			C40.514,11.916,40.525,11.905,40.537,11.895z"/>
		<path fill="#F7EEF0" d="M40.47,11.826c0.022,0.023,0.045,0.045,0.067,0.068c-0.012,0.011-0.023,0.022-0.035,0.033
			c-0.022-0.02-0.045-0.039-0.067-0.059C40.446,11.854,40.458,11.84,40.47,11.826z"/>
	</g>
</g>
</svg>
