<svg width="64" height="64" viewBox="0 0 64 64" fill="none" xmlns="http://www.w3.org/2000/svg">
<path d="M11.9164 13.5L32.1694 2L52.9164 13.5V49.5C52.9164 49.9 39.0851 58 32.1694 62L12.9043 50.5L11.9164 13.5Z" fill="white"/>
<path d="M11.0087 32.0369C11.0087 25.7892 11.0087 19.5414 11.0043 13.2981C11.0043 13.1462 11.0562 13.0725 11.1817 12.9987C12.5359 12.1874 13.8857 11.363 15.2356 10.5473C16.4383 9.81845 17.6454 9.08955 18.8482 8.36065C20.8946 7.12412 22.9366 5.88759 24.9831 4.65107C26.5406 3.70957 28.0938 2.76374 29.6513 1.82224C30.5728 1.26255 31.4987 0.711538 32.4202 0.147508C32.524 0.0867665 32.5846 0.0997826 32.6755 0.156186C34.0772 1.01091 35.4833 1.86129 36.8851 2.71601C38.9575 3.97423 41.0298 5.23679 43.1065 6.49501C45.2394 7.79228 47.3724 9.08955 49.5096 10.3825C50.972 11.2719 52.4386 12.157 53.901 13.0508C53.9486 13.0811 53.9702 13.1549 53.9962 13.2156C54.0048 13.2373 53.9962 13.2677 53.9962 13.2981C53.9962 25.8022 53.9962 38.3063 53.9962 50.8104C53.9962 50.9145 53.9875 50.9926 53.8793 51.0577C51.98 52.2031 50.0851 53.3529 48.1857 54.5026C46.3081 55.6393 44.4304 56.7804 42.5527 57.9172C40.926 58.902 39.3036 59.8913 37.6768 60.8761C36.1409 61.809 34.6051 62.7418 33.0692 63.6746C32.8961 63.7787 32.7144 63.9566 32.5413 63.9566C32.364 63.9566 32.1866 63.7787 32.0135 63.6703C30.681 62.8676 29.3441 62.0606 28.0116 61.2536C26.692 60.4553 25.3768 59.657 24.0572 58.8586C21.8248 57.5093 19.588 56.1643 17.3555 54.8193C16.0879 54.0514 14.8202 53.2834 13.5526 52.5155C12.7436 52.0252 11.9345 51.5349 11.1211 51.0533C11.0087 50.9883 11 50.9145 11 50.806C11 44.8447 11 38.8877 11 32.9263C11.0087 32.6356 11.0087 32.3362 11.0087 32.0369ZM29.4566 7.33672C29.1408 7.22391 28.8466 7.25428 28.5524 7.41481C28.3231 7.54063 28.0808 7.6491 27.8385 7.74455C27.5876 7.84 27.3496 7.94413 27.1679 8.15239C27.1376 8.1871 27.0857 8.21747 27.0424 8.21747C26.6877 8.21747 26.4238 8.40837 26.1555 8.61229C26.0301 8.70774 25.8743 8.79452 25.7229 8.80753C25.3724 8.83356 25.0826 8.95939 24.8057 9.16764C24.598 9.32384 24.373 9.44966 24.1394 9.56246C23.962 9.64924 23.789 9.59283 23.7024 9.46701C23.6072 9.33251 23.6202 9.17632 23.7587 9.02447C23.8712 8.90298 24.001 8.79452 24.1307 8.69039C24.3427 8.51684 24.5028 8.3216 24.4596 8.02657C24.412 7.73154 24.1913 7.61439 23.9447 7.51894C23.9187 7.51026 23.8928 7.50593 23.8668 7.49291C23.6592 7.40614 23.4515 7.31936 23.2482 7.22391C23.0924 7.15015 23.0275 7.16751 22.954 7.3237C22.7722 7.71852 23.0102 8.1871 23.4601 8.31726C23.4904 8.32594 23.525 8.33461 23.577 8.35197C23.1573 8.70774 22.8198 9.08955 23.0578 9.66225C23.2741 10.1829 23.7154 10.3044 24.2303 10.2219C24.2822 10.4389 24.3298 10.6428 24.3817 10.8771C24.2735 10.9031 24.161 10.9508 24.0529 10.9508C23.8755 10.9508 23.7673 11.0289 23.7068 11.1851C23.6678 11.2849 23.6246 11.3804 23.5856 11.4802C23.2914 11.2893 23.2395 11.2676 23.0837 11.3891C22.8934 11.5322 22.7203 11.7014 22.5516 11.8706C22.504 11.9184 22.4954 12.0095 22.4737 12.0789C22.4607 12.1223 22.4564 12.1744 22.4391 12.2177C22.3353 12.452 22.3742 12.5692 22.6165 12.6256C22.8025 12.6733 23.0059 12.6559 23.1962 12.6776C23.4385 12.7037 23.6202 12.6256 23.7414 12.413C23.7587 12.3826 23.7846 12.3522 23.8106 12.3132C24.0918 12.426 24.3081 12.3089 24.4942 12.1136C24.6153 11.9878 24.7451 11.9661 24.9052 11.9921C25.5368 12.0876 25.9652 11.8576 26.2334 11.2762C26.2507 11.2372 26.2896 11.1895 26.3242 11.1851C26.6055 11.1504 26.8824 11.0853 27.1766 11.1548C27.3539 11.1981 27.553 11.1678 27.739 11.1721C27.7693 11.1721 27.7996 11.1765 27.8342 11.1765C27.7563 11.2242 27.6828 11.2372 27.6049 11.2415C27.4664 11.2546 27.3193 11.2459 27.1852 11.2806C27.0987 11.3023 27.0035 11.3674 26.9602 11.4368C26.8737 11.58 27.1766 12.0919 27.3453 12.1093C27.3496 12.1093 27.3583 12.1093 27.3626 12.1093C27.4188 12.1396 27.4924 12.157 27.527 12.2047C27.7217 12.4694 27.9337 12.5388 28.2452 12.4303C28.5178 12.3349 28.7946 12.2308 29.0759 12.1657C29.2316 12.131 29.3441 12.0702 29.422 11.9357C29.4609 11.9791 29.4999 12.0268 29.5388 12.0702C30.6334 13.4282 32.4764 13.8838 34.0729 13.1939C34.7002 12.9206 35.2108 12.4954 35.6347 11.9618C35.691 12.0182 35.7472 12.1223 35.8035 12.1223C35.9982 12.1223 36.1366 12.2568 36.3097 12.3045C36.4784 12.3522 36.6428 12.4 36.8072 12.4477C37.0928 12.5345 37.3177 12.4434 37.4605 12.183C37.4778 12.1483 37.5038 12.1136 37.5297 12.0832C37.6076 12.0051 37.7071 11.9444 37.7677 11.8533C37.8456 11.7361 37.971 11.619 37.8758 11.4585C37.7893 11.3066 37.6249 11.3326 37.4821 11.324C37.387 11.3153 37.2918 11.324 37.1966 11.324C37.1966 11.3023 37.1966 11.2762 37.1966 11.2546C37.7634 11.2155 38.3258 11.1765 38.8969 11.1374C38.9185 11.2372 38.9315 11.311 38.9531 11.3847C39.0483 11.7535 39.5026 12.1136 39.8314 12.0399C40.1732 11.9661 40.4457 12.0702 40.7053 12.2655C40.7702 12.3132 40.8481 12.4 40.9044 12.3913C41.1683 12.3522 41.3413 12.5388 41.5576 12.6082C41.8648 12.7037 42.2066 12.7384 42.5268 12.5779C42.609 12.5345 42.6522 12.4867 42.6219 12.387C42.583 12.2525 42.5571 12.1136 42.5095 11.9835C42.4835 11.9184 42.4273 11.862 42.3797 11.8056C42.3277 11.7448 42.2758 11.6884 42.2153 11.6407C42.0811 11.5322 41.9427 11.4281 41.7956 11.337C41.7567 11.311 41.6745 11.3413 41.6139 11.363C41.5663 11.3804 41.5317 11.4194 41.4668 11.4671C41.4062 11.0984 41.2764 10.8207 40.8524 10.8988C40.8827 10.6558 40.913 10.4389 40.939 10.2176C40.9692 10.2219 41.0082 10.2263 41.0428 10.2263C41.4192 10.2306 41.7177 10.0831 41.9124 9.7577C42.1028 9.44098 42.0465 9.13293 41.8648 8.8379C41.7913 8.72076 41.6961 8.61229 41.6052 8.50382C41.562 8.4561 41.5057 8.41705 41.4408 8.36499C41.5014 8.33895 41.5187 8.33028 41.5403 8.3216C41.973 8.16541 42.1633 7.76191 42.0162 7.32804C41.9557 7.14581 41.8605 7.12846 41.7177 7.2456C41.6312 7.31502 41.5187 7.36275 41.4105 7.40614C41.2332 7.48423 41.0385 7.53196 40.8784 7.63175C40.5409 7.84 40.4933 8.17842 40.7313 8.49515C40.7875 8.5689 40.8524 8.63398 40.9173 8.69906C41.0341 8.82489 41.1683 8.94203 41.2678 9.08087C41.324 9.1633 41.3673 9.30214 41.337 9.38458C41.2851 9.52342 41.1337 9.52775 40.9995 9.50172C40.9303 9.48871 40.8611 9.47135 40.8005 9.43664C40.6231 9.33685 40.4544 9.21537 40.2727 9.11992C40.0045 8.98542 39.7405 8.82923 39.4507 8.75113C39.2041 8.68171 38.9921 8.58626 38.7757 8.4561C38.607 8.35197 38.4123 8.29557 38.2306 8.21313C38.1225 8.16541 38.0186 8.11334 37.9148 8.06562C37.6768 7.95281 37.4475 7.82265 37.2052 7.73154C37.0625 7.67947 36.9327 7.63175 36.8202 7.5146C36.4568 7.13714 36.0631 7.09809 35.6521 7.3801C35.6391 7.36275 35.6218 7.34973 35.6088 7.33238C33.9994 5.28018 31.092 5.27584 29.4566 7.33672ZM14.1886 23.6242C14.1886 23.6806 14.1886 23.7283 14.1886 23.776C14.1886 32.1801 14.1886 40.5841 14.1886 48.9881C14.1886 49.0923 14.2145 49.153 14.3097 49.2094C19.6269 52.4287 24.9398 55.6524 30.257 58.876C30.2959 58.8977 30.3392 58.9194 30.3911 58.9454C30.3911 47.1615 30.3911 35.3994 30.3911 23.6242C24.9874 23.6242 19.5966 23.6242 14.1886 23.6242ZM38.9185 51.2833C38.9185 43.4823 38.9185 35.7031 38.9185 27.9281C41.4581 27.9281 43.9848 27.9281 46.5287 27.9281C46.5287 29.6202 46.5287 31.3036 46.5287 32.987C47.9651 32.987 49.3842 32.987 50.8076 32.987C50.8076 29.8632 50.8076 26.748 50.8076 23.6285C45.4082 23.6285 40.0131 23.6285 34.6267 23.6285C34.6267 35.4037 34.6267 47.1702 34.6267 58.9498C34.6916 58.9107 34.7392 58.8847 34.7824 58.8586C40.0823 55.6437 45.3865 52.4287 50.6864 49.2181C50.7903 49.1573 50.8206 49.0879 50.8206 48.9751C50.8162 45.1397 50.8162 41.3087 50.8162 37.4733C50.8162 37.4168 50.8162 37.3604 50.8162 37.304C48.1035 37.304 45.4125 37.304 42.7171 37.304C42.7171 38.7401 42.7171 40.1632 42.7171 41.6037C43.9891 41.6037 45.2481 41.6037 46.5244 41.6037C46.5244 41.6818 46.5244 41.7382 46.5244 41.7989C46.5244 43.3652 46.5244 44.9315 46.5287 46.5021C46.5287 46.6322 46.4898 46.7016 46.3773 46.7711C44.4996 47.9078 42.6219 49.0445 40.7486 50.1813C40.1429 50.537 39.5415 50.9058 38.9185 51.2833ZM37.4302 19.4937C37.4345 19.4981 37.4432 19.4981 37.4432 19.5024C37.4562 19.5371 37.4692 19.5718 37.4821 19.6065C37.6379 20.0317 37.9321 20.3268 38.3474 20.496C38.793 20.6782 39.269 20.7346 39.7319 20.6305C40.2121 20.522 40.688 20.4916 41.1726 20.496C42.2585 20.5003 43.3445 20.496 44.4304 20.496C44.4866 20.496 44.5429 20.496 44.5991 20.496C44.5991 18.4524 44.5991 16.4349 44.5991 14.4175C43.4959 14.4175 42.4056 14.4175 41.3024 14.4175C41.3024 15.1854 41.3024 15.9447 41.3024 16.7083C39.8833 16.7083 38.4815 16.7083 37.0884 16.7083C37.1014 16.5347 37.1317 16.3742 37.123 16.2137C37.1144 16.0488 37.0928 15.8753 37.0408 15.7191C36.8332 15.0856 36.2405 14.6648 35.4703 14.6431C34.7132 14.6214 33.9561 14.6387 33.199 14.6387C33.1903 14.6387 33.1817 14.6474 33.1687 14.6561C33.1687 16.5998 33.1687 18.5392 33.1687 20.5003C33.2292 20.5003 33.2812 20.5003 33.3374 20.5003C34.0686 20.5003 34.7954 20.5046 35.5266 20.5003C36.3356 20.4916 37.0192 20.2487 37.4302 19.4937ZM28.1197 17.9014C28.1067 17.8797 28.0894 17.8624 28.0851 17.845C27.7823 16.9946 27.2544 16.5955 26.3589 16.5564C25.6234 16.5217 24.996 16.7343 24.5461 17.3591C24.5288 17.3851 24.5071 17.4155 24.4812 17.4285C24.4466 17.4502 24.386 17.4762 24.373 17.4676C24.3427 17.4415 24.3254 17.3895 24.3211 17.3461C24.3211 17.2983 24.3514 17.255 24.3557 17.2072C24.3947 16.9339 24.4639 16.6606 24.4596 16.3916C24.4379 15.4674 23.949 14.873 23.0535 14.6431C22.9453 14.617 22.8328 14.5823 22.7203 14.578C21.9545 14.5563 21.1888 14.5433 20.4187 14.5259C20.4143 14.5259 20.41 14.5346 20.4014 14.5389C20.4014 16.5217 20.4014 18.5045 20.4014 20.5003C20.4663 20.5003 20.5182 20.5003 20.5744 20.5003C22.1492 20.5003 23.7197 20.5003 25.2946 20.5003C25.433 20.5003 25.5758 20.5177 25.7099 20.548C26.7266 20.7433 27.5313 20.4829 28.0894 19.5892C28.124 19.5371 28.1587 19.4894 28.1933 19.4373C28.7687 20.522 29.6253 20.7736 30.7199 20.3658C30.7286 20.4092 30.7329 20.4482 30.7415 20.4916C31.2564 20.4916 31.7583 20.4916 32.2688 20.4916C32.2688 18.4611 32.2688 16.4436 32.2688 14.4261C31.7453 14.4261 31.2348 14.4261 30.7026 14.4261C30.7026 15.1984 30.7026 15.9664 30.7026 16.7387C29.5604 16.2224 28.4096 16.8428 28.1197 17.9014Z" fill="#1C2953"/>
<path d="M35.6261 11.9791C35.2021 12.5128 34.6916 12.938 34.0643 13.2113C32.4678 13.9011 30.6247 13.4456 29.5301 12.0876C29.4912 12.0399 29.4523 11.9965 29.4133 11.9531C29.4306 11.9184 29.4479 11.8793 29.4782 11.8186C29.5345 11.9878 29.6297 12.0919 29.7854 12.0919C29.8892 12.0919 29.9974 12.0615 30.1012 12.0399C30.244 12.0095 30.3868 11.9444 30.5252 11.9574C30.7762 11.9748 30.9968 11.9487 31.1872 11.7622C31.4078 11.9574 31.6501 12.0572 31.9313 12.0659C32.1476 12.0702 32.2039 12.0225 32.2342 11.8012C32.2645 11.7925 32.2991 11.7925 32.325 11.7752C32.3813 11.7275 32.4548 11.6797 32.4721 11.6233C32.4808 11.5843 32.4116 11.5019 32.3553 11.4715C32.0352 11.3023 31.927 10.9595 31.7626 10.6818C31.6198 10.4389 31.5722 10.1308 31.5073 9.84881C31.4381 9.53209 31.3905 9.2197 31.1872 8.94203C30.7113 8.28689 30.1272 7.76624 29.4479 7.33671C31.0833 5.27584 33.9907 5.28017 35.6088 7.34539C35.6218 7.36274 35.6391 7.37576 35.6521 7.39311C35.2713 7.68381 34.8906 7.97884 34.5099 8.26953C33.9734 8.67737 33.6186 9.20235 33.4845 9.87051C33.4542 10.0137 33.4153 10.1525 33.385 10.2957C33.2768 10.7686 33.1081 11.2068 32.7101 11.5235C32.6625 11.5626 32.6365 11.6754 32.6538 11.7361C32.6711 11.7925 32.7577 11.8316 32.8182 11.8663C32.8485 11.8837 32.8918 11.875 32.9351 11.875C32.9134 12.0268 32.9956 12.0832 33.1254 12.0919C33.1903 12.0963 33.2595 12.1006 33.3158 12.0789C33.5234 11.9965 33.7225 11.901 33.8955 11.8229C34.0469 11.8533 34.1897 11.8793 34.3325 11.9054C34.5142 11.9357 34.7046 11.9444 34.8819 12.0008C35.2367 12.1136 35.3492 12.0832 35.5439 11.7622C35.5828 11.8403 35.6045 11.9097 35.6261 11.9791Z" fill="#FDCD0E"/>
<path d="M29.4567 7.33672C30.1359 7.76625 30.72 8.28689 31.1959 8.94203C31.3992 9.21971 31.4468 9.5321 31.516 9.84882C31.5766 10.1352 31.6242 10.4389 31.7713 10.6818C31.9357 10.9595 32.0439 11.3023 32.364 11.4715C32.4159 11.5019 32.4895 11.58 32.4808 11.6233C32.4679 11.6841 32.39 11.7318 32.3337 11.7752C32.3121 11.7926 32.2732 11.7926 32.2429 11.8012C32.2126 12.0225 32.1564 12.0702 31.94 12.0659C31.6588 12.0572 31.4165 11.9574 31.1959 11.7622C31.0055 11.9487 30.7849 11.9748 30.5339 11.9574C30.3955 11.9487 30.2527 12.0138 30.1099 12.0399C30.0061 12.0616 29.898 12.0919 29.7941 12.0919C29.6384 12.0876 29.5432 11.9878 29.4869 11.8186C29.4567 11.8793 29.4393 11.9184 29.422 11.9531C29.3485 12.0919 29.236 12.1483 29.0759 12.183C28.7947 12.2481 28.5221 12.3522 28.2453 12.4477C27.9337 12.5562 27.7218 12.4867 27.5271 12.2221C27.4924 12.1744 27.4189 12.157 27.3627 12.1266C27.3583 12.1223 27.354 12.1266 27.3454 12.1266C27.1766 12.1093 26.8738 11.5973 26.9603 11.4541C27.0079 11.3804 27.1031 11.3153 27.1853 11.2979C27.3194 11.2632 27.4622 11.2719 27.6049 11.2589C27.6828 11.2502 27.7564 11.2415 27.8342 11.1938C27.804 11.1938 27.7737 11.1895 27.7391 11.1895C27.5487 11.1851 27.354 11.2155 27.1766 11.1721C26.8867 11.1027 26.6099 11.1634 26.3243 11.2025C26.2897 11.2068 26.2508 11.2546 26.2335 11.2936C25.9652 11.8706 25.5412 12.1049 24.9052 12.0095C24.7452 11.9835 24.6154 12.0051 24.4942 12.131C24.3082 12.3262 24.0919 12.4434 23.8106 12.3306C23.7847 12.3696 23.7587 12.4 23.7414 12.4303C23.616 12.6429 23.4343 12.721 23.1963 12.695C23.0016 12.6733 22.8026 12.6863 22.6166 12.6429C22.3699 12.5822 22.3353 12.4651 22.4392 12.2351C22.4565 12.1917 22.4608 12.1396 22.4738 12.0963C22.4954 12.0268 22.5041 11.9357 22.5517 11.888C22.7204 11.7188 22.8978 11.5496 23.0838 11.4064C23.2396 11.2893 23.2915 11.3066 23.5857 11.4975C23.6289 11.3977 23.6679 11.2979 23.7068 11.2025C23.7717 11.0463 23.8755 10.9682 24.0529 10.9682C24.1654 10.9682 24.2779 10.9205 24.3817 10.8944C24.3255 10.6558 24.2779 10.4562 24.2303 10.2393C23.7198 10.3217 23.2742 10.2003 23.0578 9.67961C22.8156 9.1069 23.1574 8.7251 23.577 8.36933C23.5251 8.35631 23.4948 8.34763 23.4602 8.33462C23.0103 8.20446 22.7723 7.73588 22.954 7.34106C23.0276 7.18487 23.0925 7.16751 23.2482 7.24127C23.4516 7.33672 23.6592 7.42349 23.8669 7.51027C23.8929 7.51894 23.9188 7.52762 23.9448 7.5363C24.1871 7.63175 24.412 7.75323 24.4596 8.04393C24.5072 8.33896 24.3471 8.5342 24.1308 8.70775C24.001 8.81187 23.8712 8.92034 23.7587 9.04182C23.6203 9.19368 23.6073 9.34987 23.7025 9.48437C23.789 9.61019 23.9664 9.66226 24.1395 9.57982C24.3688 9.46702 24.5981 9.33686 24.8057 9.185C25.0826 8.97674 25.3725 8.85092 25.7229 8.82489C25.8744 8.81187 26.0301 8.7251 26.1556 8.62965C26.4238 8.42573 26.6877 8.23917 27.0425 8.23483C27.0858 8.23483 27.1377 8.20446 27.168 8.16975C27.3454 7.96149 27.5876 7.85736 27.8386 7.76191C28.0808 7.66646 28.3231 7.55799 28.5524 7.43217C28.8466 7.25428 29.1408 7.22391 29.4567 7.33672ZM31.3992 11.0116C31.4944 11.1201 31.5853 11.2329 31.6891 11.3283C31.8016 11.4368 31.9227 11.5496 32.0525 11.632C32.1131 11.6711 32.2126 11.645 32.2948 11.6494C32.2861 11.5886 32.2732 11.5713 32.2559 11.5626C31.9097 11.4064 31.754 11.055 31.5982 10.7643C31.4165 10.4259 31.3906 10.0094 31.2911 9.62755C31.2565 9.49305 31.2305 9.34553 31.1613 9.23273C30.7503 8.55155 30.1705 8.03091 29.5302 7.58402C29.2403 7.38445 28.9245 7.39746 28.613 7.58402C28.414 7.70117 28.202 7.80096 27.9857 7.87906C27.7174 7.97017 27.4751 8.08297 27.2805 8.29123C27.2329 8.3433 27.1507 8.39102 27.0858 8.39102C26.7743 8.38668 26.5233 8.5125 26.3027 8.72076C26.1339 8.88129 25.9349 8.98542 25.6927 8.9941C25.3855 9.00278 25.1302 9.1286 24.9009 9.32384C24.8447 9.37156 24.7884 9.42797 24.7192 9.46268C24.4856 9.57114 24.2563 9.69263 24.014 9.77072C23.828 9.82713 23.6636 9.72734 23.5511 9.57114C23.4386 9.41495 23.4386 9.2414 23.5251 9.08087C23.577 8.98542 23.6549 8.89865 23.7371 8.81621C23.8755 8.68171 24.0313 8.56023 24.1654 8.42139C24.399 8.17409 24.3298 7.86604 24.014 7.74456C23.7155 7.62741 23.4126 7.5363 23.0752 7.42349C23.0838 7.53196 23.0665 7.66646 23.1098 7.77493C23.2093 8.02223 23.3953 8.17409 23.6852 8.17409C23.7587 8.17409 23.8323 8.21747 23.9015 8.24351C23.8582 8.30425 23.8236 8.37367 23.7717 8.42573C23.6462 8.55155 23.5078 8.66436 23.378 8.79018C23.153 9.01145 23.1141 9.28479 23.2049 9.57114C23.2915 9.8575 23.5121 10.0224 23.7933 10.0658C23.9967 10.0961 24.2087 10.0701 24.4337 10.0701C24.438 10.1352 24.4423 10.2393 24.4553 10.3391C24.4683 10.4476 24.4812 10.556 24.5159 10.6558C24.6154 10.9595 24.5937 11.0203 24.2822 11.1157C24.2173 11.1374 24.1438 11.1504 24.0746 11.1504C23.9664 11.1504 23.8929 11.1938 23.8755 11.2979C23.8106 11.6711 23.4689 11.8099 23.2309 12.0095C23.0665 12.1483 23.0189 12.2828 22.9756 12.452C23.3347 12.5779 23.4256 12.5475 23.6376 12.2568C23.6765 12.2047 23.776 12.144 23.828 12.157C24.04 12.2091 24.2087 12.1483 24.3471 12.0008C24.5245 11.8099 24.7322 11.7882 24.9701 11.8316C25.0826 11.8533 25.2167 11.8793 25.3206 11.849C25.6451 11.7448 25.9349 11.5886 26.0647 11.2329C26.1037 11.1201 26.095 11.0637 25.9652 11.0246C25.8051 11.337 25.5542 11.5366 25.1994 11.5756C25.0783 11.5886 24.9528 11.5886 24.8274 11.593C24.4986 11.6017 24.2 11.6928 23.9621 11.9357C23.9448 11.9531 23.9231 11.9618 23.9015 11.9791C23.8885 11.9704 23.8799 11.9574 23.8669 11.9487C23.9275 11.875 23.9837 11.7926 24.0573 11.7318C24.2736 11.5539 24.5332 11.5062 24.8014 11.4975C25.5369 11.4715 25.8311 11.2068 25.9349 10.4779C25.9436 10.4129 25.9522 10.3478 25.9695 10.287C25.9782 10.2567 25.9998 10.2306 26.0128 10.2003C26.0388 10.3348 26.0258 10.4606 26.0215 10.5821C26.0128 10.9508 26.1253 11.0376 26.493 10.9986C26.7267 10.9769 26.9646 10.9986 27.1983 11.0073C27.3367 11.0116 27.4795 11.0376 27.6179 11.0376C27.7218 11.0376 27.778 10.9899 27.7391 10.8684C27.7218 10.812 27.7261 10.7469 27.7218 10.6818C27.7434 10.6732 27.7607 10.6645 27.7823 10.6558C27.8342 11.0029 28.1111 11.1374 28.3534 11.3023C28.4313 11.3543 28.4919 11.4411 28.5351 11.5236C28.613 11.6667 28.5784 11.7752 28.4313 11.8446C28.0679 12.0182 28.0159 11.9835 27.8342 11.6971C27.8213 11.6797 27.8083 11.6624 27.7996 11.6407C27.7174 11.4802 27.592 11.4238 27.4102 11.4498C27.1074 11.4888 27.0944 11.5062 27.2502 11.7578C27.2978 11.8359 27.3107 11.9574 27.4492 11.9401C27.553 11.9271 27.6049 11.9835 27.6525 12.0659C27.7996 12.3175 27.9208 12.3566 28.2063 12.2785C28.5135 12.1961 28.7817 11.9965 29.1105 11.9878C29.1538 11.9878 29.2014 11.9314 29.2317 11.8923C29.2922 11.8099 29.3398 11.7145 29.3874 11.6277C29.4523 11.5062 29.448 11.3934 29.3745 11.2762C29.3052 11.1678 29.249 11.0463 29.1927 10.9335C29.1322 10.8077 29.024 10.7773 28.8856 10.8597C28.9591 11.0073 29.037 11.1591 29.1105 11.3066C29.2187 11.5236 29.1798 11.6797 28.9288 11.8576C29.1062 11.5149 28.9375 11.2719 28.7904 11.0246C28.7687 10.9942 28.7514 10.9595 28.7341 10.9248C28.6606 10.7816 28.6822 10.7296 28.8423 10.7035C29.0327 10.6775 29.1408 10.569 29.2014 10.3955C29.2447 10.2653 29.2836 10.1352 29.3269 10.005C29.3961 10.2133 29.3571 10.3998 29.262 10.5821C29.2403 10.6254 29.2317 10.6775 29.2144 10.7296C29.2749 10.7383 29.3355 10.7599 29.3961 10.7599C29.4437 10.7599 29.4913 10.7339 29.5389 10.7252C29.6903 10.6992 29.8374 10.6732 30.0321 10.6428C29.8677 10.9075 29.7249 11.1287 29.5691 11.3804C29.66 11.3804 29.6989 11.3804 29.7595 11.3804C29.7292 11.4281 29.7119 11.4628 29.6903 11.4932C29.5951 11.6147 29.6211 11.7578 29.6989 11.8533C29.7465 11.9097 29.8806 11.9054 29.9758 11.9097C30.0321 11.914 30.0883 11.8793 30.1489 11.8663C30.3176 11.8316 30.4863 11.7752 30.6508 11.7795C30.8281 11.7839 30.9752 11.7492 31.0964 11.6277C31.1786 11.5452 31.2435 11.5669 31.317 11.632C31.3992 11.7014 31.4771 11.7795 31.5723 11.8316C31.728 11.9184 31.8968 11.9531 32.0741 11.8923C32.0266 11.8359 31.9703 11.8099 31.9227 11.7709C31.8146 11.6841 31.6934 11.6017 31.6199 11.4888C31.5247 11.35 31.4641 11.1808 31.3906 11.0246C31.3862 11.0246 31.3949 11.0203 31.3992 11.0116ZM27.8299 11.4151C27.8991 11.5322 27.9597 11.619 28.0073 11.7145C28.0549 11.8142 28.1284 11.8403 28.215 11.7969C28.2755 11.7665 28.375 11.6884 28.3664 11.6667C28.3275 11.5669 28.2755 11.4368 28.1933 11.3977C28.0982 11.3543 27.964 11.4021 27.8299 11.4151ZM22.5776 12.413C22.6468 12.4347 22.729 12.4607 22.8199 12.4911C22.8588 12.3653 22.8805 12.2525 22.9237 12.1483C22.9756 12.0225 22.9021 11.9444 22.8156 11.9227C22.7766 11.914 22.6901 12.0182 22.6555 12.0876C22.6166 12.183 22.6079 12.2872 22.5776 12.413ZM23.0362 11.9748C23.0622 11.9661 23.0881 11.9618 23.1141 11.9531C23.192 11.862 23.2785 11.7795 23.3477 11.6797C23.365 11.6537 23.3564 11.5843 23.3304 11.5583C23.3045 11.5322 23.2396 11.5236 23.2049 11.5409C23.1271 11.58 23.0578 11.632 22.993 11.6884C22.9627 11.7145 22.9454 11.7752 22.954 11.8142C22.967 11.875 23.0103 11.9227 23.0362 11.9748ZM29.474 11.1895C29.5691 11.0637 29.6427 10.9639 29.7422 10.8337C29.5864 10.8641 29.4696 10.8901 29.3355 10.9161C29.3831 11.0159 29.422 11.0897 29.474 11.1895Z" fill="#F5ECED"/>
<path d="M35.626 11.9791C35.6044 11.9097 35.5784 11.8403 35.5525 11.7622C35.3578 12.0832 35.2453 12.1136 34.8905 12.0008C34.7175 11.9444 34.5271 11.9401 34.3411 11.9054C34.1983 11.8793 34.0555 11.8533 33.9041 11.8229C33.7311 11.901 33.532 11.9965 33.3244 12.0789C33.2681 12.1006 33.1946 12.0963 33.134 12.0919C33.0042 12.0832 32.922 12.0268 32.9436 11.875C32.9004 11.8706 32.8528 11.8837 32.8268 11.8663C32.7663 11.8316 32.6754 11.7926 32.6624 11.7361C32.6451 11.6754 32.6711 11.5626 32.7187 11.5236C33.1167 11.2068 33.2811 10.7686 33.3936 10.2957C33.4282 10.1525 33.4671 10.0137 33.4931 9.87051C33.6272 9.20235 33.982 8.67737 34.5185 8.26954C34.8992 7.97884 35.2799 7.68381 35.6606 7.39312C36.0717 7.11544 36.4654 7.15449 36.8288 7.52762C36.9413 7.64477 37.0667 7.69249 37.2138 7.74455C37.4561 7.83567 37.6897 7.96583 37.9234 8.07863C38.0272 8.1307 38.1354 8.17842 38.2392 8.22615C38.4209 8.30858 38.6156 8.36499 38.7843 8.46912C38.9963 8.59928 39.2127 8.69907 39.4593 8.76415C39.7448 8.84224 40.013 8.99844 40.2813 9.13294C40.463 9.22405 40.6317 9.34553 40.8091 9.44966C40.8697 9.48437 40.9389 9.50172 41.0081 9.51474C41.1422 9.53643 41.2937 9.5321 41.3456 9.3976C41.3759 9.31082 41.3326 9.17198 41.2764 9.09389C41.1812 8.95505 41.0471 8.8379 40.9259 8.71208C40.861 8.647 40.7961 8.58192 40.7399 8.50816C40.4976 8.19144 40.5495 7.85302 40.887 7.64476C41.0514 7.54498 41.2418 7.49725 41.4191 7.41915C41.523 7.37143 41.6355 7.32804 41.7263 7.25862C41.8691 7.14148 41.9643 7.16317 42.0248 7.34106C42.1719 7.77493 41.9816 8.17842 41.5489 8.33462C41.5273 8.34329 41.51 8.35197 41.4494 8.378C41.5143 8.43441 41.5749 8.46912 41.6138 8.51684C41.7047 8.62531 41.7999 8.72944 41.8734 8.85092C42.0551 9.14595 42.1114 9.45834 41.921 9.77072C41.722 10.0961 41.4278 10.2436 41.0514 10.2393C41.0125 10.2393 40.9778 10.235 40.9476 10.2306C40.9173 10.4519 40.8913 10.6688 40.861 10.9118C41.285 10.8294 41.4148 11.1114 41.4754 11.4802C41.5403 11.4324 41.5749 11.3934 41.6225 11.376C41.6787 11.3543 41.7609 11.324 41.8042 11.35C41.9513 11.4411 42.0854 11.5452 42.2239 11.6537C42.2844 11.7014 42.3363 11.7622 42.3883 11.8186C42.4358 11.875 42.4921 11.9314 42.5181 11.9965C42.5656 12.1266 42.5873 12.2655 42.6305 12.4C42.6608 12.4998 42.6176 12.5518 42.5354 12.5909C42.2152 12.7514 41.8734 12.7167 41.5662 12.6212C41.3499 12.5562 41.1769 12.3653 40.9129 12.4043C40.8524 12.413 40.7788 12.3262 40.7139 12.2785C40.4543 12.0832 40.1774 11.9791 39.84 12.0529C39.5112 12.1266 39.0569 11.7622 38.9617 11.3977C38.9444 11.324 38.9271 11.2502 38.9055 11.1504C38.3344 11.1895 37.7719 11.2285 37.2052 11.2676C37.2052 11.2893 37.2052 11.3153 37.2052 11.337C37.3004 11.337 37.3955 11.3327 37.4907 11.337C37.6335 11.3457 37.7979 11.3196 37.8844 11.4715C37.9753 11.632 37.8498 11.7535 37.7763 11.8663C37.7157 11.9574 37.6162 12.0182 37.5383 12.0963C37.508 12.1266 37.4864 12.1613 37.4691 12.1961C37.3263 12.4607 37.1014 12.5518 36.8158 12.4607C36.6514 12.4086 36.4827 12.3609 36.3183 12.3175C36.1452 12.2698 36.0068 12.1353 35.8121 12.1353C35.7385 12.1396 35.6823 12.0355 35.626 11.9791ZM35.5828 11.4368C35.3664 11.094 35.1718 10.786 34.9771 10.4779C34.9857 10.4649 34.9944 10.4562 35.003 10.4432C35.2583 10.7122 35.5611 10.8163 35.9332 10.7383C35.7991 10.3998 35.6477 10.0788 35.7904 9.723C35.8294 9.82713 35.8424 9.93559 35.8553 10.0441C35.8899 10.3087 35.9635 10.5517 36.2101 10.7035C36.4048 10.8207 36.4091 10.8684 36.2837 11.0637C36.1582 11.2546 35.9851 11.4194 36.0154 11.6797C35.7904 11.3413 36.1279 11.1548 36.2317 10.8597C36.1366 10.8597 36.0111 10.8294 35.9851 10.8641C35.7861 11.1591 35.5698 11.4585 35.7731 11.8446C35.8207 11.9357 35.8597 11.9965 35.9765 11.9835C36.0327 11.9791 36.0933 12.0138 36.1495 12.0399C36.2188 12.0702 36.275 12.1223 36.3442 12.144C36.513 12.2004 36.686 12.2481 36.8547 12.2958C37.0797 12.3609 37.2095 12.2828 37.2917 12.0616C37.309 12.0095 37.3609 11.9487 37.4085 11.9357C37.5816 11.888 37.6205 11.7318 37.6941 11.606C37.7027 11.593 37.6724 11.5322 37.6508 11.5236C37.4388 11.4368 37.1792 11.5452 37.0711 11.7448C37.0365 11.8099 36.9499 11.901 36.8937 11.8967C36.7596 11.8837 36.6211 11.8359 36.5043 11.7665C36.4005 11.7101 36.3788 11.5973 36.4827 11.5105C36.6038 11.4064 36.7379 11.3196 36.8547 11.2112C36.9586 11.1201 37.0494 11.0159 37.1403 10.9118C37.1706 10.8771 37.1922 10.8294 37.2182 10.7903C37.2355 10.7947 37.2485 10.8033 37.2658 10.8077C37.2528 10.8988 37.2355 10.9899 37.2182 11.1027C37.3566 11.0897 37.4864 11.0767 37.6205 11.068C37.9364 11.0506 38.2522 11.0203 38.5723 11.0203C38.9487 11.0203 39.0915 10.8944 39.0785 10.5213C39.0742 10.4259 39.0569 10.3261 39.0482 10.2306C39.0439 10.2003 39.0526 10.1655 39.0569 10.1352C39.0699 10.1352 39.0872 10.1308 39.1002 10.1308C39.1348 10.2653 39.1651 10.3998 39.204 10.53C39.2689 10.7469 39.3122 10.9725 39.4117 11.1721C39.5631 11.4672 39.8357 11.5756 40.1601 11.5322C40.5192 11.4845 40.8178 11.6016 41.0644 11.862C41.086 11.8837 41.0947 11.914 41.112 11.9444C41.0298 11.9097 40.9649 11.862 40.8956 11.8099C40.675 11.6494 40.4327 11.5843 40.1645 11.619C39.7059 11.6711 39.4333 11.5279 39.2083 11.1157C39.1824 11.0723 39.1607 11.0289 39.1348 10.9856C39.0439 11.1591 39.1088 11.3066 39.1607 11.4498C39.2429 11.6754 39.5934 11.914 39.814 11.8706C40.2034 11.8012 40.5279 11.9097 40.8221 12.157C40.9216 12.2394 41.0341 12.2741 41.1509 12.2047C41.2764 12.1353 41.3499 12.183 41.4235 12.2828C41.5879 12.5041 41.709 12.5388 42.0248 12.439C41.9599 12.3089 41.9253 12.1527 41.8301 12.0746C41.5965 11.8837 41.3542 11.7014 41.2634 11.4021C41.2028 11.1982 41.1336 11.068 40.887 11.0723C40.675 11.0767 40.6058 10.9465 40.675 10.7426C40.7399 10.5473 40.7658 10.3521 40.7009 10.1525C40.688 10.1091 40.6923 10.0614 40.688 9.99633C40.7702 10.0137 40.8264 10.0224 40.8827 10.0354C41.2244 10.1048 41.5619 9.97898 41.7393 9.70998C41.908 9.45834 41.895 9.17632 41.6701 8.86394C41.5576 8.70774 41.4062 8.57758 41.2764 8.43441C41.2331 8.39102 41.1942 8.34329 41.1596 8.30425C41.3672 8.20012 41.5749 8.1307 41.7393 8.00922C41.9037 7.88773 41.9167 7.60138 41.8388 7.44519C41.6787 7.50159 41.523 7.54931 41.3715 7.61006C41.2288 7.66646 41.073 7.71852 40.9476 7.8053C40.7399 7.95281 40.7096 8.16975 40.8697 8.36933C40.9822 8.5125 41.1293 8.62965 41.2461 8.77282C41.3499 8.89431 41.4581 9.02447 41.523 9.16765C41.6268 9.39326 41.497 9.6449 41.2504 9.67093C41.0773 9.68829 40.8827 9.65792 40.7226 9.59284C40.5192 9.5104 40.3419 9.37156 40.1558 9.25008C39.8919 9.07653 39.602 8.96373 39.2949 8.88563C39.1002 8.8379 38.9228 8.72076 38.7411 8.63833C38.5507 8.55155 38.3603 8.47345 38.17 8.38668C38.0835 8.34763 37.9883 8.31726 37.9147 8.26086C37.6681 8.07429 37.4042 7.93546 37.097 7.88339C36.9456 7.85736 36.8374 7.7836 36.7293 7.67514C36.6168 7.56233 36.474 7.47556 36.3269 7.41048C36.1755 7.34106 36.0068 7.34106 35.864 7.44952C35.3751 7.82699 34.8862 8.20446 34.406 8.5906C34.0642 8.86394 33.8565 9.22405 33.744 9.6449C33.6489 10.0007 33.558 10.3564 33.4498 10.7079C33.3417 11.068 33.1556 11.3804 32.8398 11.6016C32.8182 11.619 32.8052 11.645 32.7706 11.6971C32.8528 11.7058 32.922 11.7318 32.9609 11.7101C33.0821 11.6494 33.2076 11.5843 33.3027 11.4888C33.4239 11.3674 33.5147 11.2112 33.6186 11.0723C33.6402 11.0853 33.6618 11.1027 33.6791 11.1157C33.4974 11.3847 33.32 11.6537 33.134 11.9314C33.1686 11.9357 33.2119 11.9444 33.2508 11.9401C33.4758 11.9184 33.6402 11.7795 33.783 11.6277C33.8695 11.5366 33.9344 11.5149 34.0339 11.6147C34.0858 11.6667 34.181 11.7361 34.2416 11.7188C34.5401 11.6537 34.7954 11.7622 35.0549 11.8663C35.1588 11.9097 35.2496 11.8837 35.2929 11.7969C35.3405 11.6971 35.3535 11.5843 35.3838 11.4628C35.4184 11.4672 35.4703 11.4585 35.5828 11.4368ZM42.4142 12.426C42.3796 12.2828 42.358 12.1483 42.3147 12.0225C42.2974 11.9791 42.2109 11.9271 42.1719 11.9401C42.12 11.9574 42.0421 12.0355 42.0465 12.0746C42.0638 12.2221 42.1157 12.3653 42.159 12.5171C42.2585 12.4824 42.3363 12.4564 42.4142 12.426ZM37.0278 11.4628C36.7336 11.4151 36.6341 11.4498 36.6125 11.6233C36.5952 11.7839 36.7163 11.7926 36.8201 11.8056C36.9629 11.8273 37.0235 11.7188 37.0278 11.4628ZM42.0638 11.8142C42.0681 11.7014 41.7739 11.5062 41.6917 11.5496C41.6225 11.5886 41.5792 11.6407 41.6398 11.7188C41.6917 11.7839 41.735 11.8533 41.7999 11.901C41.8345 11.9271 41.9037 11.9357 41.947 11.9184C41.9989 11.901 42.0335 11.8446 42.0638 11.8142ZM35.7818 10.9161C35.6606 10.9161 35.5698 10.9161 35.466 10.9161C35.5179 11.0159 35.5611 11.1027 35.6174 11.2068C35.6736 11.1027 35.7212 11.0246 35.7818 10.9161Z" fill="#F5ECED"/>
<path d="M18.4805 27.9195C21.0288 27.9195 23.5511 27.9195 26.0864 27.9195C26.0864 35.7031 26.0864 43.478 26.0864 51.2746C26.0388 51.2486 25.9912 51.2269 25.948 51.2009C23.5078 49.7214 21.0677 48.2419 18.6276 46.7624C18.5195 46.6973 18.4762 46.6279 18.4762 46.4934C18.4805 40.3715 18.4805 34.2496 18.4805 28.1277C18.4805 28.0626 18.4805 28.0019 18.4805 27.9195Z" fill="#1C2953"/>
<path d="M36.4093 17.3244C36.4309 17.3417 36.4352 17.3504 36.4439 17.3547C37.2183 17.7279 37.5298 18.5002 37.214 19.3072C36.9933 19.8668 36.5261 20.1011 35.9723 20.2009C35.8339 20.227 35.6911 20.2313 35.5526 20.2356C34.8518 20.24 34.1465 20.2356 33.437 20.2356C33.437 18.4568 33.437 16.6866 33.437 14.9034C33.4673 14.899 33.5019 14.8904 33.5408 14.8904C34.1336 14.8904 34.7306 14.886 35.3233 14.8947C35.4834 14.8947 35.6478 14.9164 35.8036 14.9511C36.8679 15.2028 37.2356 16.4002 36.5001 17.2202C36.4742 17.255 36.4439 17.2853 36.4093 17.3244ZM34.5273 19.2898C34.895 19.2898 35.2584 19.3202 35.6132 19.2811C35.8858 19.2507 36.1064 19.0859 36.1886 18.7952C36.3227 18.3179 36.0156 17.9144 35.5094 17.9014C35.3017 17.8971 35.0897 17.9014 34.8777 17.9014C34.8777 17.5847 34.8777 17.2853 34.8777 16.9729C34.9945 16.9729 35.1027 16.9773 35.2109 16.9729C35.5353 16.9643 35.73 16.7951 35.7646 16.4957C35.7992 16.1486 35.6478 15.9056 35.319 15.8492C35.0638 15.8058 34.7955 15.8188 34.5273 15.8058C34.5273 16.986 34.5273 18.1357 34.5273 19.2898Z" fill="#D52242"/>
<path d="M38.6762 16.9903C38.6762 17.1899 38.6762 17.3851 38.6762 17.5804C38.6762 17.9925 38.6718 18.4047 38.6762 18.8169C38.6848 19.2768 39.0396 19.5631 39.4636 19.459C39.7232 19.3983 39.8832 19.1683 39.8832 18.8386C39.8876 18.2876 39.8832 17.7322 39.8832 17.1812C39.8832 17.1205 39.8832 17.0641 39.8832 16.9946C40.2337 16.9946 40.5798 16.9946 40.9432 16.9946C40.9432 17.0467 40.9432 17.1031 40.9432 17.1595C40.9432 17.7409 40.9432 18.3179 40.9432 18.8993C40.9475 19.7497 40.5149 20.266 39.6756 20.3875C39.3251 20.4396 38.9747 20.4222 38.6329 20.3267C38.0402 20.1575 37.6681 19.7497 37.6421 19.1249C37.6075 18.4177 37.6335 17.7105 37.6335 16.9903C37.9753 16.9903 38.3214 16.9903 38.6762 16.9903Z" fill="#D52442"/>
<path d="M44.3525 14.6821C44.3525 16.5391 44.3525 18.3787 44.3525 20.2313C44.015 20.2313 43.6819 20.2313 43.3444 20.2313C43.3444 18.383 43.3444 16.5391 43.3444 14.6821C43.6776 14.6821 44.0107 14.6821 44.3525 14.6821Z" fill="#D52543"/>
<path d="M42.5917 20.2356C42.2499 20.2356 41.9211 20.2356 41.5793 20.2356C41.5793 18.3874 41.5793 16.5391 41.5793 14.6821C41.9125 14.6821 42.2456 14.6821 42.5917 14.6821C42.5917 16.5261 42.5917 18.37 42.5917 20.2356Z" fill="#D52242"/>
<path d="M22.0972 17.2636C22.2789 17.2419 22.439 17.2419 22.5861 17.2072C22.8933 17.1291 23.0663 16.8905 23.075 16.5608C23.0836 16.2093 22.9365 15.9577 22.6164 15.8839C22.3438 15.8189 22.0539 15.8232 21.7468 15.7928C21.7468 16.5651 21.7468 17.3027 21.7468 18.0359C21.7468 18.7648 21.7468 19.4981 21.7468 20.2356C21.3747 20.2356 21.0242 20.2356 20.6608 20.2356C20.6608 18.4221 20.6608 16.6128 20.6608 14.8036C20.6695 14.7949 20.6781 14.7862 20.6868 14.7862C21.4223 14.7949 22.1578 14.7168 22.8846 14.8687C23.9835 15.0943 24.5287 16.1529 24.083 17.1899C23.8754 17.6802 23.4687 17.9101 22.9495 18.0142C23.4557 18.7518 23.9576 19.4807 24.4811 20.2443C24.3945 20.2443 24.3383 20.2443 24.2777 20.2443C23.9662 20.2443 23.6504 20.24 23.3389 20.2487C23.2437 20.2487 23.1831 20.227 23.1312 20.1402C22.8111 19.6239 22.4866 19.1119 22.1621 18.6C22.1361 18.5609 22.1059 18.5132 22.1059 18.4698C22.0929 18.062 22.0972 17.6628 22.0972 17.2636ZM21.6905 20.1662C21.6948 20.1662 21.6992 20.1619 21.7078 20.1619C21.7078 18.7214 21.7078 17.2853 21.7078 15.8449C21.7035 15.8449 21.6992 15.8449 21.6905 15.8449C21.6905 17.2897 21.6905 18.7301 21.6905 20.1662Z" fill="#D52342"/>
<path d="M30.9665 17.1682C30.9665 16.3395 30.9665 15.5195 30.9665 14.6821C31.317 14.6821 31.6587 14.6821 32.0135 14.6821C32.0135 16.5261 32.0135 18.3743 32.0135 20.227C31.6761 20.227 31.3429 20.227 30.9968 20.227C30.9968 20.1011 30.9968 19.9797 30.9968 19.8408C30.9622 19.8582 30.9406 19.8625 30.9276 19.8755C30.4473 20.292 29.9022 20.4048 29.3138 20.1836C28.7211 19.9623 28.4269 19.4894 28.3533 18.8863C28.3187 18.5999 28.3231 18.2962 28.3793 18.0142C28.574 17.0814 29.5215 16.5781 30.4214 16.9079C30.5988 16.9773 30.7675 17.0771 30.9665 17.1682ZM29.4306 18.5609C29.4306 19.0729 29.7162 19.3896 30.1661 19.3896C30.668 19.3853 31.0141 19.0425 31.0184 18.5392C31.0184 18.0576 30.655 17.6845 30.1791 17.6888C29.7465 17.6888 29.4306 18.0576 29.4306 18.5609Z" fill="#D52442"/>
<path d="M27.9077 18.7995C27.1246 18.7995 26.3372 18.7995 25.5498 18.7995C25.5325 19.0989 25.7142 19.3592 26.0041 19.4764C26.3675 19.6239 26.653 19.5197 26.9948 19.1119C27.129 19.1813 27.2717 19.2464 27.4102 19.3158C27.5443 19.3809 27.6784 19.4503 27.8212 19.5197C27.514 19.984 27.103 20.2834 26.5579 20.3224C26.2507 20.3441 25.9262 20.3224 25.6277 20.2486C24.8576 20.0534 24.386 19.3288 24.4509 18.5045C24.4595 18.3743 24.4768 18.2442 24.5071 18.1184C24.6845 17.3244 25.2426 16.8515 26.0517 16.8167C26.2853 16.8081 26.5319 16.8167 26.7569 16.8688C27.4015 17.0163 27.8212 17.5283 27.8991 18.2442C27.925 18.4221 27.9077 18.5999 27.9077 18.7995ZM25.5671 18.1617C25.9998 18.1617 26.4281 18.1617 26.8607 18.1617C26.7958 17.7582 26.5492 17.537 26.1988 17.5456C25.8613 17.5543 25.606 17.8016 25.5671 18.1617Z" fill="#D52342"/>
<path d="M31.3776 11.0333C31.4511 11.1895 31.5117 11.3543 31.6069 11.4975C31.6847 11.6103 31.8059 11.6884 31.9097 11.7795C31.9573 11.8186 32.0136 11.8446 32.0611 11.901C31.8794 11.9574 31.715 11.9227 31.5593 11.8403C31.4684 11.7882 31.3862 11.7144 31.304 11.6407C31.2305 11.5756 31.1656 11.5539 31.0834 11.6363C30.9622 11.7535 30.8151 11.7882 30.6378 11.7882C30.469 11.7839 30.3003 11.8403 30.1359 11.875C30.0796 11.888 30.0191 11.9227 29.9628 11.9184C29.8676 11.914 29.7335 11.9184 29.6859 11.862C29.6081 11.7665 29.5821 11.6233 29.6773 11.5018C29.6989 11.4715 29.7162 11.4411 29.7465 11.389C29.6859 11.389 29.647 11.389 29.5561 11.389C29.7119 11.1374 29.8547 10.9161 30.0191 10.6515C29.8244 10.6862 29.6773 10.7079 29.5259 10.7339C29.4783 10.7426 29.4307 10.7686 29.3831 10.7686C29.3225 10.7686 29.2619 10.7513 29.2014 10.7382C29.2187 10.6905 29.2273 10.6385 29.249 10.5907C29.3441 10.4085 29.3831 10.2176 29.3139 10.0137C29.2706 10.1438 29.2317 10.274 29.1884 10.4042C29.1322 10.5777 29.0197 10.6818 28.8293 10.7122C28.6692 10.7339 28.6476 10.7903 28.7211 10.9335C28.7384 10.9682 28.7601 10.9986 28.7774 11.0333C28.9245 11.2806 29.0975 11.5235 28.9158 11.8663C29.1668 11.6841 29.2057 11.5322 29.0975 11.3153C29.024 11.1678 28.9461 11.0159 28.8726 10.8684C29.011 10.786 29.1148 10.8163 29.1797 10.9422C29.236 11.0593 29.2922 11.1764 29.3615 11.2849C29.435 11.4021 29.4437 11.5192 29.3744 11.6363C29.3225 11.7275 29.2749 11.8186 29.2187 11.901C29.1884 11.9444 29.1408 11.9965 29.0975 11.9965C28.7687 12.0051 28.5005 12.2047 28.1933 12.2872C27.9121 12.3609 27.791 12.3262 27.6395 12.0746C27.5919 11.9921 27.54 11.9357 27.4362 11.9487C27.3021 11.9661 27.2848 11.8446 27.2372 11.7665C27.0814 11.5105 27.0944 11.4975 27.3972 11.4585C27.5746 11.4368 27.7044 11.4888 27.7866 11.6494C27.7953 11.6667 27.8083 11.6884 27.8212 11.7058C28.0029 11.9921 28.0549 12.0268 28.4183 11.8533C28.5697 11.7839 28.6 11.6754 28.5221 11.5322C28.4789 11.4498 28.4183 11.363 28.3404 11.3109C28.0981 11.1417 27.8212 11.0116 27.7693 10.6645C27.7477 10.6732 27.7304 10.6818 27.7088 10.6905C27.7131 10.7513 27.7088 10.8163 27.7261 10.8771C27.765 10.9986 27.7044 11.0463 27.6049 11.0463C27.4665 11.0463 27.3237 11.0203 27.1853 11.0159C26.9516 11.0072 26.7137 10.9855 26.48 11.0072C26.1123 11.0419 25.9998 10.9595 26.0085 10.5907C26.0128 10.4649 26.0258 10.3434 25.9998 10.2089C25.9868 10.2393 25.9652 10.2653 25.9565 10.2957C25.9392 10.3608 25.9306 10.4215 25.9219 10.4866C25.8181 11.2198 25.5239 11.4845 24.7884 11.5062C24.5202 11.5149 24.2606 11.5626 24.0443 11.7405C23.9707 11.8012 23.9188 11.8837 23.8539 11.9574C23.8669 11.9661 23.8755 11.9791 23.8885 11.9878C23.9101 11.9748 23.9318 11.9618 23.9491 11.9444C24.187 11.7014 24.4856 11.6147 24.8144 11.6016C24.9398 11.5973 25.0653 11.6016 25.1864 11.5843C25.5412 11.5409 25.7921 11.3457 25.9522 11.0333C26.082 11.0723 26.0907 11.1331 26.0517 11.2415C25.9219 11.5973 25.6321 11.7535 25.3076 11.8576C25.2037 11.8923 25.0739 11.862 24.9571 11.8403C24.7192 11.7969 24.5115 11.8186 24.3341 12.0095C24.2 12.1527 24.027 12.2177 23.815 12.1657C23.763 12.1527 23.6635 12.2134 23.6246 12.2655C23.4126 12.5518 23.3217 12.5865 22.9626 12.4607C23.0059 12.2915 23.0535 12.157 23.2179 12.0182C23.4559 11.8142 23.7977 11.6754 23.8625 11.3066C23.8799 11.2025 23.9534 11.1548 24.0616 11.1591C24.1308 11.1591 24.2043 11.1461 24.2692 11.1244C24.5764 11.0246 24.6024 10.9639 24.5029 10.6645C24.4682 10.5647 24.4553 10.4519 24.4423 10.3478C24.4293 10.248 24.425 10.1438 24.4207 10.0788C24.1957 10.0788 23.9837 10.1048 23.7803 10.0744C23.4948 10.031 23.2785 9.86616 23.1919 9.57981C23.1011 9.29346 23.14 9.02012 23.365 8.79885C23.4905 8.67302 23.6289 8.56022 23.7587 8.4344C23.8106 8.38233 23.8452 8.31291 23.8885 8.25217C23.815 8.22614 23.7414 8.18275 23.6722 8.18275C23.3823 8.18709 23.2006 8.0309 23.0968 7.78359C23.0535 7.67513 23.0708 7.54063 23.0622 7.43216C23.3996 7.54497 23.7025 7.64042 24.001 7.75322C24.3168 7.87471 24.3817 8.18275 24.1524 8.43006C24.0183 8.57323 23.8625 8.69038 23.7241 8.82488C23.6462 8.90297 23.564 8.98975 23.5121 9.08954C23.4256 9.25007 23.4256 9.42362 23.5381 9.57981C23.6506 9.736 23.815 9.83579 24.001 9.77939C24.2433 9.70129 24.4726 9.57981 24.7062 9.47134C24.7711 9.44097 24.8273 9.38457 24.8879 9.33251C25.1172 9.1416 25.3768 9.01144 25.6797 9.00276C25.9219 8.99409 26.1209 8.88996 26.2897 8.72943C26.5103 8.51683 26.7613 8.39535 27.0728 8.39969C27.1377 8.39969 27.2199 8.35196 27.2675 8.2999C27.4621 8.09164 27.7088 7.97883 27.9727 7.88772C28.189 7.81396 28.4053 7.71417 28.6 7.59269C28.9115 7.40613 29.2273 7.39311 29.5172 7.59269C30.1618 8.03958 30.7416 8.56022 31.1483 9.24139C31.2175 9.35854 31.2435 9.50171 31.2781 9.63621C31.3776 10.018 31.4035 10.4345 31.5852 10.773C31.741 11.0636 31.8924 11.4151 32.2429 11.5713C32.2602 11.5799 32.2731 11.5973 32.2818 11.658C32.1996 11.6537 32.1001 11.6797 32.0395 11.6407C31.9054 11.5583 31.7886 11.4454 31.6761 11.337C31.5723 11.2372 31.4814 11.1244 31.3862 11.0203C31.3732 11.0203 31.3646 11.0159 31.3516 11.0159C31.3689 11.0159 31.3732 11.0246 31.3776 11.0333ZM30.5512 10.2783C30.8022 10.0701 30.8022 10.0701 31.0358 10.6037C31.1439 10.53 31.1526 10.4085 31.1093 10.3217C31.0315 10.1612 30.9233 10.0093 30.8151 9.86183C30.7978 9.83579 30.7113 9.83145 30.6724 9.84881C30.5815 9.90087 30.508 10.1699 30.5512 10.2783ZM29.3961 9.2197C29.409 9.10255 29.4437 9.0071 29.4263 8.92467C29.4004 8.79017 29.3441 8.66435 29.2879 8.53853C29.2792 8.51683 29.2057 8.49948 29.1797 8.51249C29.1581 8.52551 29.1365 8.59059 29.1495 8.62096C29.2187 8.80752 29.3009 8.98975 29.3961 9.2197ZM30.4258 11.3977C30.4344 11.4151 30.4431 11.4324 30.4517 11.4498C30.5209 11.4454 30.5988 11.4541 30.6594 11.4281C30.7026 11.4107 30.7329 11.3457 30.7502 11.2979C30.7589 11.2676 30.7286 11.1981 30.7113 11.1938C30.6637 11.1895 30.6031 11.2025 30.5642 11.2329C30.5123 11.2762 30.4733 11.3413 30.4258 11.3977Z" fill="#D52342"/>
<path d="M27.8298 11.4151C27.9639 11.4064 28.098 11.3543 28.1889 11.3977C28.2711 11.4368 28.323 11.5669 28.3619 11.6667C28.3706 11.6884 28.2711 11.7665 28.2105 11.7969C28.124 11.8403 28.0504 11.8142 28.0028 11.7145C27.9639 11.619 27.9033 11.5322 27.8298 11.4151Z" fill="#D52D46"/>
<path d="M22.5775 12.413C22.6078 12.2828 22.6165 12.1787 22.6597 12.0919C22.6943 12.0225 22.7809 11.914 22.8198 11.927C22.9063 11.9487 22.9799 12.0268 22.928 12.1526C22.8847 12.2568 22.8587 12.3652 22.8241 12.4954C22.7289 12.465 22.6467 12.4347 22.5775 12.413Z" fill="#D52D46"/>
<path d="M23.0362 11.9748C23.0059 11.9227 22.9669 11.875 22.954 11.8186C22.9453 11.7795 22.9669 11.7188 22.9929 11.6928C23.0535 11.6364 23.127 11.5843 23.2049 11.5452C23.2352 11.5279 23.3044 11.5409 23.3304 11.5626C23.352 11.5843 23.365 11.658 23.3477 11.6841C23.2784 11.7795 23.1919 11.8663 23.114 11.9574C23.0881 11.9618 23.0621 11.9704 23.0362 11.9748Z" fill="#D52C46"/>
<path d="M29.4739 11.1895C29.422 11.0897 29.383 11.0159 29.3354 10.9161C29.4739 10.8901 29.5864 10.8641 29.7421 10.8337C29.6426 10.9682 29.5691 11.0637 29.4739 11.1895Z" fill="#FDD231"/>
<path d="M35.5828 11.4368C35.4703 11.4585 35.4184 11.4671 35.3924 11.4715C35.3621 11.593 35.3491 11.7101 35.3015 11.8056C35.2583 11.8923 35.1718 11.9184 35.0636 11.875C34.804 11.7665 34.5444 11.658 34.2502 11.7275C34.1897 11.7405 34.0945 11.6754 34.0426 11.6233C33.943 11.5235 33.8781 11.5452 33.7916 11.6364C33.6445 11.7882 33.4844 11.927 33.2595 11.9487C33.2205 11.9531 33.1773 11.9444 33.1427 11.9401C33.3287 11.6624 33.5061 11.3934 33.6878 11.1244C33.6662 11.1114 33.6445 11.094 33.6272 11.081C33.5234 11.2198 33.4325 11.376 33.3114 11.4975C33.2205 11.593 33.0907 11.658 32.9696 11.7188C32.9263 11.7405 32.8614 11.7144 32.7792 11.7058C32.8138 11.658 32.8268 11.6277 32.8485 11.6103C33.1643 11.389 33.3503 11.0767 33.4585 10.7166C33.5623 10.3651 33.6575 10.0093 33.7527 9.65357C33.8652 9.23272 34.0728 8.87261 34.4146 8.59927C34.8949 8.21313 35.3838 7.83566 35.8726 7.4582C36.0154 7.34973 36.1841 7.34973 36.3356 7.41915C36.4783 7.48857 36.6254 7.57534 36.7379 7.68381C36.8461 7.79228 36.9586 7.86603 37.1057 7.89207C37.4085 7.94847 37.6768 8.08297 37.9234 8.26953C37.9969 8.32593 38.0921 8.35631 38.1786 8.39535C38.369 8.48213 38.5594 8.56022 38.7497 8.647C38.9358 8.72943 39.1131 8.84224 39.3035 8.8943C39.6107 8.9724 39.8962 9.0852 40.1645 9.25875C40.3505 9.38024 40.5279 9.51907 40.7312 9.60151C40.8913 9.66659 41.086 9.69696 41.2591 9.67961C41.5057 9.65357 41.6311 9.40193 41.5316 9.17632C41.4667 9.03314 41.3586 8.90298 41.2547 8.7815C41.1379 8.64266 40.9908 8.52118 40.8783 8.378C40.7183 8.17842 40.7485 7.95715 40.9562 7.81397C41.0817 7.7272 41.2331 7.67513 41.3802 7.61873C41.5316 7.55799 41.6874 7.51026 41.8475 7.45386C41.9253 7.61005 41.908 7.8964 41.7479 8.01789C41.5835 8.14371 41.3759 8.21313 41.1682 8.31292C41.2071 8.35631 41.2461 8.39969 41.285 8.44308C41.4191 8.58626 41.5662 8.71642 41.6787 8.87261C41.9037 9.18066 41.9167 9.46701 41.7479 9.71865C41.5662 9.98765 41.2331 10.1135 40.8913 10.0441C40.8351 10.031 40.7788 10.0224 40.6966 10.005C40.7009 10.0744 40.6966 10.1222 40.7096 10.1612C40.7745 10.3608 40.7529 10.556 40.6836 10.7513C40.6144 10.9508 40.6836 11.0853 40.8956 11.081C41.1422 11.0767 41.2115 11.2068 41.272 11.4107C41.3629 11.7101 41.6095 11.888 41.8388 12.0832C41.934 12.1613 41.9686 12.3175 42.0335 12.4477C41.7177 12.5475 41.5965 12.5128 41.4321 12.2915C41.3586 12.1917 41.285 12.144 41.1595 12.2134C41.0427 12.2828 40.9302 12.2481 40.8307 12.1657C40.5365 11.9227 40.2121 11.8099 39.8227 11.8793C39.602 11.9184 39.2516 11.6841 39.1694 11.4585C39.1175 11.311 39.0526 11.1634 39.1434 10.9942C39.1694 11.0376 39.191 11.081 39.217 11.1244C39.4376 11.5322 39.7102 11.6797 40.1731 11.6277C40.4457 11.5973 40.688 11.658 40.9043 11.8186C40.9692 11.8663 41.0341 11.914 41.1206 11.9531C41.1076 11.927 41.0947 11.8923 41.073 11.8706C40.8264 11.6103 40.5279 11.4932 40.1688 11.5409C39.8443 11.5843 39.5674 11.4758 39.4203 11.1808C39.3208 10.9812 39.2775 10.7556 39.2127 10.5387C39.1737 10.4085 39.1434 10.274 39.1088 10.1395C39.0958 10.1395 39.0785 10.1438 39.0656 10.1438C39.0612 10.1742 39.0569 10.2089 39.0569 10.2393C39.0656 10.3347 39.0829 10.4345 39.0872 10.53C39.1002 10.9031 38.9574 11.0289 38.581 11.0289C38.2652 11.0289 37.9493 11.0593 37.6292 11.0767C37.4951 11.0853 37.3653 11.0984 37.2268 11.1114C37.2441 10.9986 37.2571 10.9075 37.2744 10.8163C37.2571 10.812 37.2441 10.8033 37.2268 10.799C37.2009 10.8424 37.1836 10.8858 37.1489 10.9205C37.0581 11.0246 36.9672 11.1287 36.8634 11.2198C36.7466 11.324 36.6081 11.4151 36.4913 11.5192C36.3875 11.6103 36.4134 11.7188 36.513 11.7752C36.6298 11.8403 36.7682 11.888 36.9023 11.9054C36.9586 11.9097 37.0451 11.8186 37.0797 11.7535C37.1879 11.5539 37.4475 11.4455 37.6595 11.5322C37.6811 11.5409 37.7114 11.6016 37.7027 11.6147C37.6248 11.7405 37.5902 11.8967 37.4172 11.9444C37.3696 11.9574 37.3177 12.0182 37.3004 12.0702C37.2182 12.2915 37.0884 12.3696 36.8634 12.3045C36.6903 12.2568 36.5216 12.2091 36.3529 12.1527C36.2837 12.131 36.2231 12.0789 36.1582 12.0485C36.1019 12.0225 36.0414 11.9834 35.9851 11.9921C35.8683 12.0051 35.8294 11.9444 35.7818 11.8533C35.5784 11.4628 35.7991 11.1678 35.9938 10.8727C36.0197 10.838 36.1452 10.8684 36.2404 10.8684C36.1366 11.1634 35.7991 11.35 36.0241 11.6884C35.9981 11.4281 36.1712 11.2589 36.2923 11.0723C36.4178 10.8771 36.4134 10.8294 36.2188 10.7122C35.9721 10.5604 35.8986 10.3174 35.864 10.0527C35.851 9.94426 35.838 9.8358 35.7991 9.73167C35.6563 10.0918 35.8077 10.4085 35.9419 10.7469C35.5698 10.825 35.2669 10.7209 35.0117 10.4519C35.003 10.4649 34.9944 10.4736 34.9857 10.4866C35.1718 10.786 35.3664 11.094 35.5828 11.4368ZM34.0339 10.6818C34.1594 10.53 34.2632 10.3912 34.38 10.2653C34.4492 10.1916 34.5314 10.1569 34.605 10.274C34.618 10.2957 34.6656 10.2957 34.7002 10.3044C34.7088 10.2697 34.7305 10.2263 34.7175 10.2046C34.6569 10.0918 34.5834 9.97897 34.4882 9.82712C34.3281 10.1482 33.9474 10.2783 34.0339 10.6818ZM35.5482 8.96806C35.6736 8.82054 35.7904 8.67303 35.9159 8.53419C35.9678 8.47345 36.037 8.42572 36.089 8.36498C36.1106 8.33895 36.1149 8.27821 36.0976 8.25218C36.0803 8.22614 36.0197 8.21313 35.9895 8.22181C35.7645 8.29122 35.5092 8.72509 35.5482 8.96806ZM34.7132 11.3674C34.605 11.2979 34.5271 11.2459 34.4492 11.2025C34.4449 11.1981 34.3843 11.2589 34.3843 11.2893C34.3973 11.3977 34.4492 11.4758 34.5704 11.4715C34.6093 11.4671 34.6396 11.4238 34.7132 11.3674Z" fill="#D52342"/>
<path d="M42.4142 12.426C42.3363 12.452 42.2541 12.4824 42.1546 12.5171C42.1113 12.3609 42.0637 12.2221 42.0421 12.0746C42.0378 12.0312 42.1157 11.9574 42.1676 11.9401C42.2065 11.9271 42.2974 11.9791 42.3103 12.0225C42.3623 12.1483 42.3839 12.2828 42.4142 12.426Z" fill="#D52A43"/>
<path d="M37.0278 11.4628C37.0235 11.7188 36.963 11.8229 36.8245 11.8056C36.7207 11.7925 36.5952 11.7839 36.6168 11.6233C36.6298 11.4541 36.7293 11.4151 37.0278 11.4628Z" fill="#D52944"/>
<path d="M42.0638 11.8142C42.0335 11.8446 41.9989 11.8967 41.947 11.9184C41.908 11.9357 41.8345 11.927 41.7999 11.901C41.7393 11.8533 41.6917 11.7839 41.6398 11.7188C41.5792 11.6407 41.6225 11.5886 41.6917 11.5496C41.7739 11.5062 42.0681 11.7014 42.0638 11.8142Z" fill="#D52944"/>
<path d="M35.7818 10.9161C35.7213 11.0246 35.6737 11.1027 35.6174 11.2068C35.5612 11.0984 35.5179 11.0159 35.466 10.9161C35.5698 10.9161 35.6564 10.9161 35.7818 10.9161Z" fill="#FED542"/>
<path d="M21.6907 20.1662C21.6907 18.7258 21.6907 17.2853 21.6907 15.8449C21.695 15.8449 21.6993 15.8449 21.708 15.8449C21.708 17.2853 21.708 18.7214 21.708 20.1619C21.6993 20.1662 21.695 20.1662 21.6907 20.1662Z" fill="#D02131"/>
<path d="M25.5672 18.1618C25.6061 17.8016 25.8614 17.5543 26.1989 17.5457C26.5493 17.537 26.7916 17.7583 26.8608 18.1618C26.4282 18.1618 25.9998 18.1618 25.5672 18.1618Z" fill="#FCF0F0"/>
<path d="M30.5512 10.2784C30.5123 10.1655 30.5815 9.89655 30.6767 9.84882C30.7156 9.83147 30.7978 9.83581 30.8194 9.86184C30.9276 10.0094 31.0358 10.1569 31.1136 10.3217C31.1569 10.4085 31.1483 10.53 31.0401 10.6038C30.8021 10.0701 30.8021 10.0701 30.5512 10.2784Z" fill="#FBEAEB"/>
<path d="M29.396 9.21972C29.3008 8.9941 29.2186 8.80754 29.1451 8.62098C29.1321 8.59061 29.1537 8.52553 29.1754 8.51251C29.2013 8.49949 29.2749 8.51685 29.2835 8.53854C29.3398 8.66436 29.396 8.79019 29.422 8.92469C29.4436 9.00712 29.409 9.09823 29.396 9.21972Z" fill="#F9E2E4"/>
<path d="M30.4257 11.3977C30.4733 11.3413 30.5122 11.2763 30.5642 11.2329C30.5988 11.2025 30.6593 11.1938 30.7113 11.1938C30.7286 11.1938 30.7589 11.2676 30.7502 11.2979C30.7372 11.35 30.7026 11.4108 30.6593 11.4281C30.5988 11.4541 30.5209 11.4455 30.4517 11.4498C30.443 11.4324 30.4344 11.4151 30.4257 11.3977Z" fill="#F9E2E4"/>
<path d="M31.3775 11.0333C31.3732 11.0246 31.3689 11.0159 31.3646 11.0029C31.3775 11.0029 31.3862 11.0072 31.3992 11.0072C31.3948 11.0203 31.3862 11.0246 31.3775 11.0333Z" fill="#F5ECED"/>
<path d="M34.034 10.6818C33.9475 10.2783 34.3239 10.1482 34.4883 9.82712C34.5834 9.98331 34.6527 10.0918 34.7176 10.2046C34.7305 10.2263 34.7089 10.2697 34.7003 10.3044C34.6656 10.2957 34.6181 10.2957 34.6051 10.274C34.5315 10.1569 34.4493 10.1916 34.3801 10.2653C34.2633 10.3911 34.1638 10.53 34.034 10.6818Z" fill="#FBEAEB"/>
<path d="M35.5483 8.96806C35.5093 8.7251 35.7646 8.29123 35.9896 8.22181C36.0242 8.21313 36.0804 8.22615 36.0977 8.25218C36.115 8.27821 36.1064 8.33895 36.0891 8.36499C36.0372 8.42573 35.9723 8.47345 35.916 8.53419C35.7906 8.67303 35.6737 8.82055 35.5483 8.96806Z" fill="#FBEAEB"/>
<path d="M34.7132 11.3674C34.6397 11.4238 34.6051 11.4671 34.5705 11.4715C34.4493 11.4758 34.3974 11.3977 34.3844 11.2893C34.3801 11.2632 34.4407 11.2025 34.4493 11.2025C34.5315 11.2459 34.6051 11.2936 34.7132 11.3674Z" fill="#F9E2E4"/>
</svg>
