<?xml version="1.0" encoding="utf-8"?>
<!-- Generator: Adobe Illustrator 22.0.0, SVG Export Plug-In . SVG Version: 6.00 Build 0)  -->
<svg version="1.1" id="Camada_1" xmlns="http://www.w3.org/2000/svg" xmlns:xlink="http://www.w3.org/1999/xlink" x="0px" y="0px"
	 width="64px" height="64px" viewBox="0 0 64 64" enable-background="new 0 0 64 64" xml:space="preserve">
<g>
	<g>
		<path fill="#FFFFFF" d="M32.008,64C23.77,55.923,15.552,47.868,7.315,39.792C15.543,26.533,23.764,13.285,32.009,0
			c0.076,0.113,0.132,0.191,0.183,0.272c1.75,2.819,3.499,5.638,5.248,8.457c6.366,10.258,12.732,20.517,19.098,30.775
			c0.207,0.334,0.205,0.262-0.06,0.521c-7.804,7.652-15.61,15.303-23.415,22.955c-0.289,0.283-0.577,0.567-0.866,0.849
			C32.144,63.882,32.086,63.93,32.008,64z M32.017,5.919c-0.064,0.072-0.139,0.138-0.189,0.218c-1.325,2.131-2.647,4.263-3.97,6.395
			c-5.473,8.82-10.946,17.64-16.418,26.46c-0.051,0.083-0.1,0.167-0.145,0.244c0.205,0.266,20.536,20.175,20.713,20.273
			c0-0.128,0-0.24,0-0.351c0-17.589,0-35.177,0-52.766c0-0.16,0.003-0.32,0.005-0.48c0.048,0.094,0.106,0.185,0.143,0.284
			c3.296,8.854,6.591,17.708,9.886,26.562c0.8,2.151,1.6,4.302,2.401,6.453c0.03,0.081,0.068,0.16,0.114,0.266
			c0.129-0.121,0.229-0.214,0.328-0.307c0.333-0.314,0.662-0.632,0.999-0.942c0.098-0.09,0.138-0.177,0.07-0.298
			c-0.015-0.026-0.021-0.057-0.032-0.086c-2.093-5.583-4.186-11.167-6.278-16.75c-0.872-2.327-1.744-4.655-2.616-6.983
			c-0.035-0.093-0.067-0.187-0.1-0.281c0.016-0.006,0.031-0.013,0.047-0.019c5.267,8.477,10.534,16.954,15.802,25.431
			c-0.037,0.046-0.057,0.078-0.084,0.104c-3.643,3.561-7.286,7.122-10.93,10.683c-0.005,0.005-0.015,0.006-0.022,0.006
			c-0.007,0-0.014-0.005-0.048-0.02c-0.283-0.968-0.572-1.954-0.859-2.94c-0.288-0.988-0.576-1.976-0.864-2.964
			c-0.288-0.988-0.576-1.977-0.864-2.965c-0.288-0.988-0.576-1.976-0.867-2.964c-0.289-0.982-0.568-1.967-0.888-2.941
			c-0.025,0.126-0.025,0.247-0.025,0.367c0.001,6.17,0.002,12.341,0.008,18.511c0,0.19-0.05,0.324-0.188,0.459
			c-1.667,1.623-3.326,3.253-4.992,4.877c-0.091,0.088-0.128,0.174-0.127,0.297c0.004,0.786,0.002,1.571,0.003,2.357
			c0,0.064,0.011,0.129,0.023,0.251c7.762-7.613,15.485-15.187,23.207-22.761c-0.033-0.066-0.05-0.108-0.074-0.146
			c-7.695-12.395-15.391-24.79-23.087-37.184c-0.003-0.005-0.014-0.007-0.021-0.007c-0.007,0-0.014,0.004-0.048,0.014
			c0,0.071,0,0.152,0,0.233C32.023,3.646,32.02,4.782,32.017,5.919z"/>
		<path fill="#FFFFFF" d="M26.708,24.858c0,7.206,0,14.412,0,21.615c-0.017,0.007-0.024,0.011-0.031,0.012
			c-0.007,0.001-0.017,0.001-0.021-0.003c-2.748-2.687-5.496-5.375-8.244-8.063c-0.032-0.031-0.059-0.068-0.106-0.125
			c2.783-4.486,5.566-8.972,8.35-13.459C26.674,24.842,26.691,24.85,26.708,24.858z"/>
	</g>
</g>
</svg>
