<svg id="Layer_1" data-name="Layer 1" xmlns="http://www.w3.org/2000/svg" viewBox="0 0 877.53 877.38" height="64" width="64"><defs><style>.cls-1{fill:#fefefe;}.cls-2{fill:#fe1a4b;}.cls-3{fill:#fd1d6b;}.cls-4{fill:#fc1d6f;}.cls-5{fill:#ee1b73;}.cls-6{fill:#f71c71;}.cls-7{fill:#e41a77;}.cls-8{fill:#f11b73;}.cls-9{fill:#ea1b75;}.cls-10{fill:#fd1d6d;}.cls-11{fill:#dd197a;}.cls-12{fill:#eb1b75;}.cls-13{fill:#d0187e;}.cls-14{fill:#c81780;}.cls-15{fill:#d7197c;}.cls-16{fill:#db197a;}.cls-17{fill:#e11a78;}.cls-18{fill:#e61a76;}.cls-19{fill:#c31881;}.cls-20{fill:#f61c71;}.cls-21{fill:#d4187c;}.cls-22{fill:#bd1981;}.cls-23{fill:#cd177e;}.cls-24{fill:#b51a7f;}.cls-25{fill:#c3177e;}.cls-26{fill:#780c23;}.cls-27{fill:#6e0e49;}</style></defs><title>ORDERlogo_notext</title><path d="M877.53,439c-.76,242.42-196.8,439-440,438.42C195.48,876.8-1,680.19,0,436.66,1,195.12,197.33-1,440.59,0,681.94,1,877,196.69,877.53,439ZM438.61,35.52c-225.64,0-408,186.41-403,412.5,4.86,218.51,187,399.07,413.18,393.74,218.32-5.15,398.5-187.4,393-413.4C836.49,213.29,659.93,35.67,438.61,35.52Z"/><path class="cls-1" d="M438.61,35.52c221.32.15,397.88,177.77,403.13,392.84,5.53,226-174.65,408.25-393,413.4C222.62,847.09,40.45,666.53,35.59,448,30.57,221.93,213,35.54,438.61,35.52ZM777.19,438.7c.4-183.82-147.8-334.34-330.36-338.52-190-4.35-342.73,147.5-346.67,330.74-4.08,190,148.07,342.81,331.66,346.32C623.09,780.91,777.79,625.58,777.19,438.7Z"/><path d="M777.19,438.7c.6,186.88-154.1,342.21-345.37,338.54C248.23,773.73,96.08,620.91,100.16,430.92,104.1,247.68,256.85,95.83,446.83,100.18,629.39,104.36,777.59,254.88,777.19,438.7ZM316.73,639.79l1.4-1,2.76-2,.87-.5.75-.65.15-.09,1.12-.84,2-1.37.83-.68.08,0,1.13-.88,0,0,35.77-25.52-.53-1.44H318.68Q311.95,583.9,305.19,563l-1.1.23c-.79,2.83-1.57,5.66-2.36,8.49l-3.21,9.93-3.91,12-2.94,9q-1.62,5-3.26,9.91-.9,2.93-1.81,5.85l-.61,1.23-.47,2q-1.93,6-3.89,12-1.47,4.53-3,9.06l-.75,2c-.17.65-.35,1.29-.52,1.94q-1.89,5.91-3.8,11.83l-.62,1.23c-.12.59-.25,1.19-.38,1.78l-.61,1.22c-.13.67-.27,1.34-.41,2l-3.12,8.88-.46,1.63.69-.44,7-5.05h0l1.21-.91,8.14-5.93,5.7-4.11h0l1.29-.93q1.9-1.41,3.83-2.8l.9-.54,1-.76,2.84-2.07.13-.07,1.08-.85,4.08-3,4.06-3,5.74-4.15.05,0,1.13-.87Zm-144.32-282,1.26,1,13,9.56,10,7.21.14.09.73.64,10.08,7.25,10,7.19,7,5.08,8,5.87,8,5.87.15.1.73.63,6.11,4.32L259,421.15c-4.55-14-8.55-26.65-12.81-39.21-1-3-1-5.3,1.74-7.16l6.92-5,26.82-19H162l9.79,6.71A.6.6,0,0,0,172.41,357.78ZM608.87,673.6l-36.3-112.07c-4.58,14-8.86,26.44-12.6,39-1.16,3.9-3,4.75-6.69,4.66-9.65-.22-19.32-.07-29-.07H512.77c2.23,1.8,3.32,2.75,4.48,3.6q24.22,17.63,48.48,35.21c14.29,10.32,28.64,20.54,43,30.8l.67.48ZM595.8,350.45l36.76,26.79-14.08,43.63,96.88-70.42ZM439.31,151l-1.18-.12c-12.06,37.11-24.12,74.23-36.56,112.53l37.13-26.91,37.12,26.9C463.4,225.11,451.35,188,439.31,151Z"/><path class="cls-2" d="M595.8,350.45H715.36l-96.88,70.42,14.08-43.63Z"/><path class="cls-2" d="M608.7,674.72c-14.33-10.26-28.68-20.48-43-30.8q-24.29-17.53-48.48-35.21c-1.16-.85-2.25-1.8-4.48-3.6H524.3c9.66,0,19.33-.15,29,.07,3.67.09,5.53-.76,6.69-4.66,3.74-12.55,8-24.95,12.6-39l36.3,112.07C608.81,674,608.75,674.34,608.7,674.72Z"/><path class="cls-2" d="M439.31,151c12,37.08,24.09,74.16,36.51,112.4l-37.12-26.9-37.13,26.91c12.44-38.3,24.5-75.42,36.56-112.53Z"/><path class="cls-3" d="M318.68,604.82H363l.53,1.44-35.77,25.52c-1.93-7.54-3.74-15.11-5.88-22.59C321.42,607.56,319.78,606.27,318.68,604.82Z"/><path class="cls-4" d="M318.68,604.82c1.1,1.45,2.74,2.74,3.21,4.37,2.14,7.48,3.95,15,5.88,22.59l0,0-1.13.88-.08,0-.83.68-2,1.37-1.12.84-.15.09-.75.65-.87.5c-.78-1.34-1.91-2.58-2.28-4-4.7-18.34-9.25-36.73-14-55.08-.54-2.1-1.92-4-2.91-6,.79-2.83,1.57-5.66,2.36-8.49l1.1-.23Q311.94,583.9,318.68,604.82Z"/><path class="cls-5" d="M247.93,374.78c-2.77,1.86-2.76,4.15-1.74,7.16,4.26,12.56,8.26,25.2,12.81,39.21l-11.27-8.56c0-2.08.34-4.26-.14-6.23-4.55-18.56-9.24-37.08-13.89-55.62h7c1.74,7.62,3.45,15.25,5.29,22.85C246.12,374.11,247.26,374.39,247.93,374.78Z"/><path class="cls-6" d="M301.73,571.69c1,2,2.37,3.89,2.91,6,4.72,18.35,9.27,36.74,14,55.08.37,1.45,1.5,2.69,2.28,4l-2.76,2-1.4,1,.07,0-1.13.87-.05,0c-.61-.73-1.58-1.37-1.79-2.2-4.44-17.51-8.76-35.05-13.19-52.57a21.89,21.89,0,0,0-2.12-4.25Z"/><path class="cls-7" d="M240.74,407.54l-8-5.87c-.22-1.45-.32-2.94-.67-4.37Q226.39,374,220.7,350.74h7c4.31,17.19,8.66,34.38,12.89,51.59C241,404,240.71,405.8,240.74,407.54Z"/><path class="cls-8" d="M298.52,581.62a21.89,21.89,0,0,1,2.12,4.25c4.43,17.52,8.75,35.06,13.19,52.57.21.83,1.18,1.47,1.79,2.2l-5.74,4.15a25.11,25.11,0,0,1-2-4.38c-3.44-13.6-6.72-27.24-10.22-40.82-.54-2.1-2-4-3-5.93Z"/><path class="cls-9" d="M240.74,407.54c0-1.74.26-3.56-.15-5.21-4.23-17.21-8.58-34.4-12.89-51.59h6c4.65,18.54,9.34,37.06,13.89,55.62.48,2,.11,4.15.14,6.23l-6.11-4.32a1.54,1.54,0,0,0-.73-.63Z"/><path class="cls-10" d="M247.7,350.74h34l-26.82,19c-1.07-1.21-2.69-2.25-3.13-3.66C250.17,361,249,355.87,247.7,350.74Z"/><path class="cls-11" d="M220.7,350.74Q226.37,374,232,397.3c.35,1.43.45,2.92.67,4.37l-8-5.87c-.5-3.1-.85-6.22-1.55-9.27-2.74-11.94-5.59-23.86-8.4-35.79Z"/><path class="cls-12" d="M294.61,593.66c1,2,2.47,3.83,3,5.93,3.5,13.58,6.78,27.22,10.22,40.82a25.11,25.11,0,0,0,2,4.38l-4.06,3c-1-1.35-2.47-2.57-2.89-4.09-1.61-5.73-2.73-11.59-4.31-17.33-2.19-7.93-4.62-15.79-6.95-23.67Z"/><path class="cls-13" d="M217.69,390.72l-10-7.19a67.45,67.45,0,0,0-.88-6.83c-2-8.67-4.07-17.31-6.12-26h7Q212.69,370.74,217.69,390.72Z"/><path class="cls-14" d="M200.7,350.74c2.05,8.65,4.15,17.29,6.12,26a67.45,67.45,0,0,1,.88,6.83l-10.08-7.25a1.74,1.74,0,0,0-.73-.64l-.14-.09q-2.52-12.41-5.05-24.81Z"/><path class="cls-15" d="M217.69,390.72q-5-20-10-40h7c2.81,11.93,5.66,23.85,8.4,35.79.7,3.05,1.05,6.17,1.55,9.27Z"/><path class="cls-16" d="M295.83,655q-1.92,1.39-3.83,2.8l-1.29.93h0c-1-1.23-2.6-2.31-3-3.73-2.18-7.09-4.07-14.26-6.06-21.41q2-6,3.89-12a32.3,32.3,0,0,1,2.23,4.78C290.51,635.9,293.15,645.45,295.83,655Z"/><path class="cls-17" d="M295.83,655c-2.68-9.54-5.32-19.09-8.08-28.6a32.3,32.3,0,0,0-2.23-4.78c.16-.66.32-1.32.47-2,.21-.41.41-.82.61-1.23q.91-2.92,1.81-5.85c1.1,1.73,2.7,3.33,3.22,5.22,3.1,11.24,6,22.55,8.9,33.84l-2.84,2.07-1,.76Z"/><path class="cls-18" d="M300.53,651.62c-2.94-11.29-5.8-22.6-8.9-33.84-.52-1.89-2.12-3.49-3.22-5.22q1.63-4.95,3.26-9.91c2.33,7.88,4.76,15.74,6.95,23.67,1.58,5.74,2.7,11.6,4.31,17.33.42,1.52,1.9,2.74,2.89,4.09l-4.08,3-1.08.85Z"/><path class="cls-19" d="M191.7,350.74q2.52,12.4,5.05,24.81l-10-7.21q-1.5-8.8-3-17.6Z"/><path class="cls-20" d="M247.7,350.74c1.31,5.13,2.47,10.3,4,15.35.44,1.41,2.06,2.45,3.13,3.66l-6.92,5c-.67-.39-1.81-.67-1.94-1.19-1.84-7.6-3.55-15.23-5.29-22.85Z"/><path class="cls-21" d="M281.63,633.57c2,7.15,3.88,14.32,6.06,21.41.44,1.42,2,2.5,3,3.73l-5.7,4.11a44.77,44.77,0,0,1-3.31-5.32c-1.59-3.57-2.89-7.27-4.32-10.92.17-.65.35-1.29.52-1.94l.75-2Q280.16,638.1,281.63,633.57Z"/><path class="cls-22" d="M183.7,350.74q1.5,8.81,3,17.6l-13-9.56-1.26-1a.6.6,0,0,1-.64-.33q0-3.34-.07-6.71Z"/><path class="cls-23" d="M277.4,646.58c1.43,3.65,2.73,7.35,4.32,10.92a44.77,44.77,0,0,0,3.31,5.32l-8.14,5.93-1.21.91h0c-1.36-1.68-2.73-3.35-4.09-5,.14-.67.28-1.34.41-2l.61-1.22c.13-.59.26-1.19.38-1.78l.62-1.23Q275.51,652.5,277.4,646.58Z"/><path class="cls-24" d="M171.7,350.74q0,3.36.07,6.71L162,350.74Z"/><path class="cls-25" d="M271.58,664.65c1.36,1.67,2.73,3.34,4.09,5l-7,5.05-.23-1.19Z"/><path class="cls-26" d="M608.7,674.72c0-.38.11-.75.17-1.12.16.53.33,1.07.5,1.6Z"/><path class="cls-23" d="M278.67,642.63l-.75,2Z"/><path class="cls-27" d="M268.46,673.53l.23,1.19-.69.44Z"/><path class="cls-7" d="M240.89,407.64a1.54,1.54,0,0,1,.73.63Z"/><path class="cls-19" d="M196.89,375.64a1.74,1.74,0,0,1,.73.64Z"/><path class="cls-16" d="M286.6,618.41l-.61,1.23C286.2,619.23,286.4,618.82,286.6,618.41Z"/><path class="cls-24" d="M172.41,357.78l1.26,1Z"/><path class="cls-3" d="M326.67,632.61l1.13-.88Z"/><path class="cls-3" d="M325.76,633.34l.83-.68Z"/><path class="cls-3" d="M322.66,635.55l1.12-.84Z"/><path class="cls-6" d="M321.76,636.29l.75-.65Z"/><path class="cls-8" d="M315.67,640.61l1.13-.87Z"/><path class="cls-17" d="M300.66,651.55l1.08-.85Z"/><path class="cls-16" d="M296.73,654.45l1-.76Z"/><path class="cls-8" d="M316.73,639.79l1.4-1Z"/><path class="cls-25" d="M273.6,658.41l-.62,1.23Z"/><path class="cls-25" d="M272.6,661.42l-.61,1.22Z"/><path class="cls-25" d="M275.68,669.66l1.21-.91Z"/><path class="cls-21" d="M290.71,658.72l1.29-.93Z"/></svg>