<?xml version="1.0" encoding="utf-8"?>
<!-- Generator: Adobe Illustrator 22.0.0, SVG Export Plug-In . SVG Version: 6.00 Build 0)  -->
<svg version="1.1" id="Camada_1" xmlns="http://www.w3.org/2000/svg" xmlns:xlink="http://www.w3.org/1999/xlink" x="0px" y="0px"
	 width="64px" height="64px" viewBox="0 0 64 64" enable-background="new 0 0 64 64" xml:space="preserve">
<g>
	<g>
		<path fill="#9E05E0" d="M25.398,0.695c0.938-0.225,1.891-0.361,2.846-0.476c0.629-0.076,1.26-0.137,1.893-0.162
			c0.037-0.001,0.067-0.012,0.08-0.05c0.489,0,0.978,0,1.467,0c0,1.388,0,2.776,0,4.164c-2.122,0.035-4.215,0.297-6.28,0.785
			C25.403,3.536,25.4,2.115,25.398,0.695z"/>
		<path fill="#9502ED" d="M31.685,4.171c0-1.388,0-2.776,0-4.164c0.699,0,1.397,0,2.096,0c0.288,0.106,0.592,0.07,0.888,0.101
			c0.666,0.069,1.333,0.121,1.993,0.24c-0.055,0.186-0.053,0.376-0.053,0.568C36.61,2.128,36.61,3.34,36.61,4.551
			C34.979,4.29,33.337,4.165,31.685,4.171z"/>
		<path fill="#8901DD" d="M58.725,14.504c0.221,0.203,0.356,0.467,0.51,0.717c2.211,3.582,3.659,7.452,4.344,11.604
			c0.328,1.993,0.469,4.002,0.407,6.022c-0.182,5.97-1.881,11.472-5.111,16.499c-0.028,0.043-0.064,0.08-0.097,0.12
			c-0.161-0.029-0.109-0.157-0.11-0.251c-0.003-0.803-0.002-1.607-0.002-2.41c0-2.061,0.001-4.121-0.003-6.182
			c0-0.098,0.067-0.24-0.108-0.277c0.007-0.043,0.009-0.087,0.022-0.128c0.611-1.971,0.991-3.984,1.154-6.042
			c0.204-2.588,0.043-5.151-0.464-7.696c-0.18-0.906-0.431-1.793-0.668-2.684c0.119-0.113,0.119-0.261,0.119-0.409
			c0-0.679-0.001-1.359,0-2.038C58.721,19.068,58.723,16.786,58.725,14.504z"/>
		<path fill="#DB167D" d="M2.604,19.39c0.348-0.909,0.798-1.769,1.258-2.624c0.382-0.711,0.784-1.41,1.243-2.075
			c0.08,0.125,0.072,0.265,0.072,0.405c-0.001,2.919-0.001,5.838,0.003,8.757c0,0.104-0.082,0.255,0.101,0.307
			c-0.009,0.051-0.014,0.103-0.028,0.153c-0.568,2.003-0.917,4.041-1.032,6.121c-0.163,2.949,0.129,5.849,0.882,8.704
			c0.258,0.978,0.592,1.93,0.923,2.884c-0.165,0.07-0.115,0.218-0.115,0.341c-0.002,2.568-0.001,5.136-0.005,7.704
			c0,0.098,0.071,0.236-0.092,0.288c-0.878-1.198-1.627-2.474-2.304-3.793c-0.33-0.642-0.66-1.285-0.912-1.964
			c0.116-0.082,0.116-0.205,0.116-0.329c0-8.163,0-16.325,0-24.488C2.713,19.639,2.704,19.502,2.604,19.39z"/>
		<path fill="#9001F4" d="M36.61,4.551c0-1.212,0.001-2.423-0.001-3.635c0-0.191-0.003-0.382,0.053-0.568
			c3.132,0.443,6.123,1.356,8.98,2.708c1.474,0.698,2.896,1.49,4.233,2.428c-0.072,0.118-0.063,0.25-0.063,0.38
			c0.001,1.463,0.001,2.927-0.001,4.39c0,0.107,0.041,0.233-0.09,0.304c-0.028-0.02-0.057-0.039-0.084-0.061
			c-1.57-1.283-3.255-2.39-5.061-3.312C42.055,5.9,39.394,5.038,36.61,4.551z"/>
		<path fill="#9001F4" d="M49.347,58.859c-0.846,0.585-1.742,1.085-2.654,1.558c-2.736,1.42-5.616,2.426-8.645,3.002
			c-0.025,0.005-0.052,0.005-0.078,0.008c-0.002-1.413-0.003-2.826-0.005-4.24c0.033-0.011,0.065-0.025,0.098-0.032
			c3.023-0.682,5.853-1.836,8.493-3.458c0.966-0.593,1.877-1.263,2.782-1.944C49.341,55.455,49.344,57.157,49.347,58.859z"/>
		<path fill="#E5196E" d="M2.604,19.39c0.1,0.112,0.11,0.249,0.11,0.39c0,8.163,0,16.325,0,24.488c0,0.124,0,0.246-0.116,0.329
			c-0.552-1.186-0.97-2.422-1.334-3.675c-0.721-2.481-1.128-5.012-1.235-7.596c-0.185-4.445,0.536-8.736,2.124-12.886
			C2.289,20.084,2.421,19.725,2.604,19.39z"/>
		<path fill="#CD1294" d="M5.281,24.159c-0.183-0.051-0.101-0.203-0.101-0.307c-0.005-2.919-0.004-5.838-0.003-8.757
			c0-0.14,0.008-0.28-0.072-0.405c0.63-1.025,1.355-1.983,2.11-2.918c0.965-1.194,2.035-2.29,3.145-3.348
			c0.062-0.059,0.138-0.102,0.208-0.153c0.049,0.151,0.058,0.305,0.058,0.463c-0.002,1.693-0.002,3.386,0,5.079
			c0,0.099-0.042,0.213,0.065,0.29c-0.04,0.057-0.076,0.116-0.121,0.17c-1.87,2.25-3.338,4.737-4.431,7.449
			C5.817,22.524,5.565,23.347,5.281,24.159z"/>
		<path fill="#9502ED" d="M37.966,59.187c0.002,1.413,0.003,2.826,0.005,4.24c-1.22,0.256-2.456,0.403-3.698,0.488
			c-1.723,0.118-3.446,0.103-5.167-0.047c-0.051-0.004-0.101-0.018-0.152-0.028c0.003-1.389,0.006-2.778,0.009-4.166
			c0.399,0.028,0.798,0.056,1.197,0.084c1.627,0.114,3.25,0.068,4.871-0.103C36.018,59.551,36.991,59.37,37.966,59.187z"/>
		<path fill="#8B01E4" d="M58.555,40.346c0.175,0.037,0.108,0.179,0.108,0.277c0.004,2.061,0.003,4.121,0.003,6.182
			c0,0.803-0.001,1.607,0.002,2.41c0,0.094-0.051,0.222,0.11,0.251c-0.549,0.9-1.184,1.738-1.843,2.558
			c-0.839,1.045-1.733,2.042-2.715,2.957c-0.068-0.11-0.061-0.233-0.061-0.355c0.001-1.795,0-3.59,0-5.386
			c0-0.121,0.016-0.245-0.053-0.356c0.054-0.078,0.105-0.159,0.162-0.235c1.235-1.65,2.273-3.415,3.123-5.293
			C57.837,42.376,58.196,41.361,58.555,40.346z"/>
		<path fill="#BF0EAB" d="M15.489,59.389c-1.282-0.746-2.482-1.611-3.633-2.544c-0.832-0.674-1.636-1.381-2.382-2.151
			c0.041-0.134,0.052-0.271,0.051-0.411c-0.002-1.831-0.002-3.663,0.001-5.494c0-0.092-0.062-0.218,0.086-0.268
			c0.05,0.06,0.102,0.119,0.149,0.181c0.991,1.309,2.083,2.526,3.284,3.647c0.816,0.762,1.688,1.454,2.568,2.139
			c-0.152,0.063-0.116,0.198-0.116,0.314C15.493,56.332,15.491,57.861,15.489,59.389z"/>
		<path fill="#8B01E4" d="M58.725,14.504c-0.002,2.282-0.004,4.563-0.006,6.845c-0.001,0.679,0,1.359,0,2.038
			c0,0.148,0,0.296-0.119,0.409c-0.029-0.072-0.062-0.142-0.085-0.216c-0.664-2.099-1.577-4.086-2.714-5.97
			c-0.463-0.768-0.984-1.496-1.49-2.236c0.051-0.15,0.062-0.304,0.061-0.462c-0.003-1.787-0.003-3.573,0.001-5.36
			c0-0.099-0.063-0.24,0.111-0.276c1.001,0.936,1.885,1.977,2.734,3.049c0.492,0.621,0.951,1.267,1.394,1.924
			C58.664,14.327,58.744,14.395,58.725,14.504z"/>
		<path fill="#8D01ED" d="M54.107,48.885c0.069,0.111,0.053,0.235,0.053,0.356c0,1.795,0,3.59,0,5.386
			c0,0.122-0.008,0.245,0.061,0.355c-1.486,1.467-3.11,2.76-4.874,3.877c-0.003-1.702-0.005-3.403-0.008-5.105
			c0.701-0.597,1.402-1.193,2.063-1.836C52.376,50.971,53.259,49.944,54.107,48.885z"/>
		<path fill="#CD1294" d="M9.613,48.522c-0.147,0.05-0.086,0.176-0.086,0.268c-0.004,1.831-0.004,3.663-0.001,5.494
			c0,0.141-0.01,0.277-0.051,0.411c-0.945-0.904-1.801-1.889-2.612-2.913c-0.366-0.463-0.737-0.925-1.049-1.428
			c0.164-0.052,0.092-0.19,0.092-0.288c0.004-2.568,0.003-5.136,0.005-7.704c0-0.123-0.05-0.271,0.115-0.341
			c0.089,0.141,0.1,0.315,0.17,0.456c0.38,0.771,0.705,1.566,1.104,2.328C7.979,46.101,8.765,47.33,9.613,48.522z"/>
		<path fill="#8D01ED" d="M54.484,9.277c-0.174,0.036-0.111,0.176-0.111,0.276c-0.004,1.787-0.003,3.573-0.001,5.36
			c0,0.158-0.01,0.312-0.061,0.462c-0.374-0.459-0.741-0.924-1.122-1.377c-1.05-1.252-2.227-2.378-3.468-3.439
			c0.131-0.071,0.09-0.197,0.09-0.304c0.002-1.463,0.002-2.927,0.001-4.39c0-0.131-0.009-0.262,0.063-0.38
			c1.62,1.081,3.124,2.305,4.509,3.674C54.42,9.195,54.45,9.237,54.484,9.277z"/>
		<path fill="#BF0EAB" d="M10.69,14.105c-0.107-0.077-0.065-0.192-0.065-0.29c-0.003-1.693-0.003-3.386,0-5.079
			c0-0.158-0.009-0.313-0.058-0.463c0.83-0.801,1.741-1.504,2.67-2.184c0.407-0.298,0.812-0.601,1.254-0.848
			c0.101,0.08,0.06,0.193,0.06,0.292c0.003,1.35,0.001,2.701,0.003,4.051c0,0.243,0.012,0.487,0.019,0.73
			c-0.923,0.771-1.827,1.563-2.648,2.444C11.509,13.203,11.101,13.656,10.69,14.105z"/>
		<path fill="#B30BBE" d="M14.573,10.315c-0.006-0.243-0.018-0.487-0.019-0.73c-0.002-1.35,0-2.701-0.003-4.051
			c0-0.099,0.041-0.212-0.06-0.292c0.877-0.619,1.813-1.137,2.761-1.637c0.454-0.239,0.906-0.482,1.387-0.665
			c0.045,0.142,0.055,0.288,0.054,0.437c-0.003,1.274-0.003,2.547,0.001,3.821c0,0.107-0.047,0.231,0.073,0.313
			c-0.027,0.021-0.052,0.047-0.082,0.063C17.234,8.367,15.868,9.288,14.573,10.315z"/>
		<path fill="#AA08CC" d="M18.767,7.51c-0.12-0.082-0.072-0.206-0.073-0.313c-0.003-1.274-0.003-2.547-0.001-3.821
			c0-0.149-0.01-0.295-0.054-0.437c1.182-0.578,2.404-1.049,3.665-1.423c0.001,1.464,0.002,2.929,0.003,4.393
			c-0.991,0.395-1.976,0.803-2.934,1.275C19.166,7.286,18.994,7.449,18.767,7.51z"/>
		<path fill="#B30BBE" d="M15.489,59.389c0.002-1.529,0.004-3.058,0.008-4.587c0-0.117-0.035-0.252,0.116-0.314
			c1.046,0.734,2.125,1.414,3.238,2.041c-0.001,1.426-0.001,2.852-0.004,4.278c0,0.106,0.043,0.232-0.085,0.306
			c-0.794-0.316-1.54-0.729-2.287-1.139C16.14,59.79,15.817,59.585,15.489,59.389z"/>
		<path fill="#AA08CC" d="M18.763,61.113c0.128-0.074,0.084-0.199,0.085-0.306c0.003-1.426,0.003-2.852,0.004-4.278
			c0.186,0.105,0.365,0.225,0.559,0.313c1.002,0.455,2.006,0.904,3.032,1.302c-0.162,0.063-0.135,0.203-0.135,0.331
			c-0.003,1.338-0.005,2.675-0.007,4.013C21.092,62.103,19.9,61.679,18.763,61.113z"/>
		<path fill="#A306D7" d="M22.3,62.488c0.002-1.338,0.004-2.675,0.007-4.013c0-0.128-0.027-0.269,0.135-0.331
			c0.121,0.041,0.242,0.08,0.363,0.122c0.938,0.327,1.896,0.584,2.855,0.841c0,1.414,0,2.828,0,4.243
			c-0.973-0.156-1.918-0.428-2.863-0.7C22.629,62.602,22.465,62.542,22.3,62.488z"/>
		<path fill="#9E05E0" d="M25.66,63.349c0-1.414,0-2.828,0-4.243c0.439,0.086,0.877,0.182,1.318,0.257
			c0.66,0.111,1.323,0.208,1.984,0.31c-0.003,1.389-0.006,2.778-0.009,4.166C27.844,63.753,26.745,63.6,25.66,63.349z"/>
		<path fill="#A306D7" d="M22.307,5.909c-0.001-1.464-0.002-2.929-0.003-4.393c1.01-0.354,2.044-0.617,3.094-0.821
			c0.002,1.42,0.004,2.841,0.007,4.261C24.359,5.23,23.323,5.538,22.307,5.909z"/>
		<path fill="#211F1F" d="M20.162,24.115c1.737,0,3.474-0.005,5.211,0.002c1.125,0.005,2.251,0.027,3.376,0.042
			c0.009,0,0.017,0,0.026,0c0.508,0.021,0.827,0.264,0.865,0.66c0.038,0.396-0.199,0.674-0.698,0.805
			c-1.658,0.437-3.252,1.027-4.716,1.937c-1.635,1.017-2.937,2.358-3.82,4.07c-0.347,0.673-1.147,0.703-1.599,0.379
			c-2.672-1.916-5.348-3.825-8.02-5.74c-0.435-0.312-0.576-0.788-0.421-1.327c0.132-0.458,0.502-0.749,1.021-0.798
			c0.104-0.01,0.209-0.012,0.313-0.013c2.82-0.001,5.641-0.001,8.461-0.001C20.162,24.127,20.162,24.121,20.162,24.115z"/>
		<path fill="#211F1F" d="M47.668,24.185c1.624,0,3.248-0.004,4.872,0.002c0.781,0.002,1.325,0.645,1.202,1.405
			c-0.055,0.34-0.257,0.578-0.531,0.775c-1.944,1.39-3.882,2.787-5.827,4.176c-2.618,1.87-5.24,3.735-7.862,5.601
			c-0.198,0.141-0.399,0.28-0.628,0.372c-0.298,0.119-0.591,0.048-0.805-0.195c-0.198-0.225-0.238-0.536-0.064-0.8
			c0.173-0.261,0.378-0.5,0.572-0.747c1.246-1.591,2.274-3.297,2.797-5.272c0.357-1.349,0.444-2.715,0.258-4.098
			c-0.086-0.638,0.292-1.128,0.935-1.204c0.095-0.011,0.191-0.012,0.287-0.012C44.473,24.185,46.071,24.185,47.668,24.185z"/>
		<path fill="#211F1F" d="M24.983,34.147c0.009,1.973,0.234,3.769,0.933,5.485c0.509,1.251,1.24,2.356,2.163,3.337
			c0.525,0.557,0.466,1.212-0.158,1.675c-1.17,0.868-2.342,1.731-3.514,2.596c-1.445,1.067-2.891,2.134-4.337,3.201
			c-0.424,0.313-0.866,0.334-1.322,0.079c-0.497-0.278-0.711-0.789-0.536-1.337c0.611-1.915,1.227-3.829,1.848-5.74
			c1.076-3.31,2.155-6.618,3.238-9.926c0.119-0.363,0.215-0.736,0.413-1.068c0.173-0.289,0.468-0.431,0.768-0.36
			c0.318,0.075,0.521,0.309,0.541,0.654C25.051,33.257,24.954,33.769,24.983,34.147z"/>
		<path fill="#211F1F" d="M45.926,49.491c-0.03,0.503-0.262,0.856-0.679,1.072c-0.426,0.221-0.841,0.164-1.227-0.118
			c-2.744-2.007-5.491-4.011-8.231-6.022c-1.841-1.351-3.674-2.714-5.51-4.071c-0.14-0.104-0.273-0.215-0.387-0.35
			c-0.217-0.256-0.252-0.572-0.086-0.844c0.166-0.273,0.465-0.401,0.792-0.296c0.612,0.197,1.212,0.433,1.825,0.624
			c1.583,0.493,3.198,0.777,4.864,0.705c1.413-0.061,2.76-0.384,4.003-1.063c0.612-0.334,1.301,0.077,1.472,0.587
			c0.055,0.165,0.114,0.329,0.168,0.494c0.961,2.925,1.921,5.849,2.882,8.774C45.867,49.158,45.914,49.334,45.926,49.491z"/>
		<path fill="#211F1F" d="M27.886,19.71c0.018-0.3,0.174-0.644,0.287-0.999c0.919-2.875,1.84-5.749,2.763-8.623
			c0.179-0.558,0.592-0.852,1.174-0.852c0.515,0,0.919,0.309,1.093,0.849c0.832,2.574,1.667,5.147,2.491,7.723
			c0.909,2.842,1.849,5.673,2.713,8.529c0.053,0.176,0.092,0.354,0.103,0.537c0.017,0.284-0.13,0.534-0.384,0.658
			c-0.269,0.132-0.557,0.093-0.776-0.11c-0.116-0.107-0.202-0.238-0.288-0.371c-1.081-1.674-2.332-3.198-3.947-4.391
			c-1.304-0.963-2.748-1.597-4.358-1.841C28.208,20.736,27.886,20.341,27.886,19.71z"/>
	</g>
</g>
<g>
	<g>
		<path fill="#9502ED" d="M33.788,0.009c0.248,0.107,0.516,0.056,0.774,0.095c0.178,0.027,0.361,0.01,0.536,0.064
			C35.093,1.519,35.09,2.87,35.08,4.22c0,0.07,0.043,0.087,0.07,0.126c-0.716-0.052-1.432-0.105-2.148-0.157
			c-0.367-0.101-0.367-0.101-0.367-0.523c0-1.219,0-2.438,0-3.657c0.105,0,0.21,0,0.314,0c0.113,0.099,0.247,0.036,0.372,0.046
			c0.121-0.016,0.253,0.061,0.362-0.046C33.718,0.009,33.753,0.009,33.788,0.009z"/>
		<path fill="#9702E9" d="M32.635,0.009c0,1.219,0,2.438,0,3.657c0,0.422,0,0.422,0.367,0.523c-0.716,0.001-1.432,0.001-2.148,0.002
			c0-1.375,0-2.751,0-4.126c0.071-0.014,0.156,0.024,0.209-0.056C31.587,0.009,32.111,0.009,32.635,0.009z"/>
		<path fill="#9903E6" d="M30.854,0.065c0,1.375,0,2.751,0,4.126c-0.43,0.024-0.86,0.048-1.29,0.072
			c-0.203,0.002-0.178-0.142-0.178-0.273c0-1.29,0-2.579,0-3.869c0.275-0.073,0.569,0,0.838-0.112c0.035,0,0.07,0,0.105,0
			c0.109,0.105,0.241,0.032,0.362,0.047C30.746,0.059,30.8,0.062,30.854,0.065z"/>
		<path fill="#B041F0" d="M33.321,0.055c-0.125-0.01-0.258,0.053-0.372-0.046c0.122,0,0.244,0,0.367,0
			C33.317,0.025,33.318,0.04,33.321,0.055z"/>
		<path fill="#B141ED" d="M30.854,0.065c-0.054-0.003-0.108-0.006-0.162-0.009c0.003-0.015,0.004-0.031,0.005-0.047
			c0.122,0,0.244,0,0.367,0C31.01,0.089,30.925,0.051,30.854,0.065z"/>
		<path fill="#CC83F2" d="M30.696,0.009c0,0.016-0.002,0.031-0.005,0.047c-0.121-0.014-0.253,0.058-0.362-0.047
			C30.452,0.009,30.574,0.009,30.696,0.009z"/>
		<path fill="#CB84F5" d="M33.321,0.055c-0.003-0.015-0.004-0.031-0.005-0.046c0.122,0,0.244,0,0.367,0
			C33.574,0.116,33.441,0.039,33.321,0.055z"/>
		<path fill="#8900DE" d="M58.77,14.524c0.852,1.218,1.555,2.52,2.179,3.866c-0.179,0.073-0.125,0.232-0.125,0.363
			c-0.002,5.357-0.002,10.715-0.002,16.072c0,3.49,0,6.98,0.002,10.47c0,0.123-0.053,0.27,0.104,0.349
			c-0.386,0.894-0.86,1.742-1.352,2.58c-0.232,0.395-0.464,0.79-0.734,1.161c-0.076-0.117-0.064-0.25-0.064-0.38
			c0-2.877,0.001-5.754-0.001-8.632c0-0.123,0.049-0.271-0.118-0.34c0.009-0.051,0.013-0.105,0.027-0.154
			c0.555-1.86,0.897-3.759,1.051-5.694c0.206-2.589,0.044-5.154-0.463-7.7c-0.18-0.906-0.432-1.793-0.669-2.685
			c0.113-0.086,0.064-0.21,0.064-0.316c0.003-2.837,0.003-5.673,0.001-8.51C58.673,14.815,58.675,14.66,58.77,14.524z"/>
		<path fill="#8900DC" d="M60.928,45.643c-0.157-0.079-0.104-0.226-0.104-0.349c-0.002-3.49-0.002-6.98-0.002-10.47
			c0-5.357,0-10.715,0.002-16.072c0-0.131-0.054-0.29,0.125-0.363c0.747,1.537,1.346,3.129,1.802,4.775
			c-0.184,0.008-0.09,0.152-0.09,0.221c-0.006,5.74-0.005,11.48-0.005,17.219c0,0.061-0.003,0.122,0.002,0.183
			c0.006,0.072,0.055,0.045,0.095,0.036c-0.411,1.533-0.982,3.007-1.635,4.451C61.061,45.401,60.992,45.521,60.928,45.643z"/>
		<path fill="#9000F6" d="M39.917,1.007c0.996,0.218,1.961,0.542,2.92,0.884c1.701,0.607,3.334,1.364,4.905,2.256
			c0.052,0.03,0.099,0.068,0.149,0.102c-0.15,0.065-0.113,0.2-0.113,0.317c-0.002,1.504-0.001,3.007-0.002,4.511
			c-0.067-0.04-0.136-0.077-0.2-0.12c-1.498-1.014-3.081-1.873-4.744-2.585c-0.953-0.408-1.936-0.731-2.916-1.064
			C39.916,3.874,39.917,2.441,39.917,1.007z"/>
		<path fill="#DB157E" d="M4.618,48.524c-0.335-0.522-0.641-1.062-0.915-1.618c0.097-0.07,0.063-0.175,0.063-0.266
			c0.001-9.762,0.001-19.525,0-29.287c0-0.091,0.035-0.195-0.059-0.268c0.234-0.47,0.486-0.929,0.772-1.369
			c0.105,0.064,0.073,0.169,0.074,0.26c0.003,0.331-0.002,0.663,0.002,0.994c0.033,3.345-0.072,6.691,0.059,10.036
			c-0.122,0.906-0.267,1.809-0.339,2.722c-0.158,1.998-0.118,3.99,0.157,5.975c0.098,0.707,0.228,1.409,0.343,2.113
			c-0.074,0.118-0.063,0.25-0.063,0.38c0,3.345,0.001,6.691-0.003,10.036C4.706,48.331,4.777,48.467,4.618,48.524z"/>
		<path fill="#8F00F6" d="M47.732,59.845c-1.119,0.673-2.3,1.223-3.502,1.726c-0.504,0.211-1.007,0.428-1.535,0.576
			c-0.146-0.071-0.104-0.207-0.104-0.323c-0.002-1.357-0.001-2.715-0.001-4.072c0.558-0.26,1.118-0.514,1.673-0.781
			c1.168-0.561,2.271-1.236,3.357-1.941c0.071,0.101,0.052,0.218,0.052,0.33c0.001,1.397,0,2.794,0.002,4.191
			C47.674,59.65,47.632,59.764,47.732,59.845z"/>
		<path fill="#DE1679" d="M3.706,17.085c0.094,0.072,0.059,0.176,0.059,0.268c0.001,9.762,0.001,19.525,0,29.287
			c0,0.091,0.034,0.196-0.063,0.266C3.417,46.414,3.175,45.9,2.944,45.38c0.161-0.071,0.085-0.214,0.085-0.321
			c0.004-8.687,0.004-17.374,0.004-26.061c0-0.079-0.001-0.157-0.003-0.236c-0.002-0.063-0.04-0.092-0.098-0.102
			C3.159,18.12,3.412,17.593,3.706,17.085z"/>
		<path fill="#E01775" d="M2.933,18.661c0.058,0.01,0.096,0.039,0.098,0.102c0.002,0.079,0.003,0.157,0.003,0.236
			c0,8.687,0,17.374-0.004,26.061c0,0.107,0.076,0.25-0.085,0.321c-0.295-0.617-0.572-1.24-0.794-1.888
			c0.09-0.128,0.098-0.273,0.098-0.423c-0.002-1.117-0.001-2.234-0.001-3.351c0-6.256,0-12.513-0.001-18.769
			c0-0.145,0.03-0.302-0.115-0.407C2.368,19.902,2.623,19.27,2.933,18.661z"/>
		<path fill="#E4186F" d="M2.132,20.542c0.145,0.106,0.114,0.262,0.115,0.407c0.001,6.256,0.001,12.513,0.001,18.769
			c0,1.117-0.001,2.234,0.001,3.351c0,0.15-0.008,0.295-0.098,0.423c-0.381-0.92-0.689-1.864-0.942-2.826
			c0.186-0.006,0.091-0.151,0.091-0.22c0.006-5.635,0.005-11.269,0.005-16.904c0-0.061,0.003-0.122-0.001-0.183
			c-0.004-0.072-0.052-0.049-0.093-0.038C1.458,22.376,1.768,21.45,2.132,20.542z"/>
		<path fill="#9100F4" d="M42.59,57.752c0,1.357-0.001,2.715,0.001,4.072c0,0.116-0.042,0.251,0.104,0.323
			c-1.076,0.424-2.189,0.722-3.311,0.992c-0.43,0.104-0.858,0.218-1.3,0.265c0-1.195,0-2.389,0-3.584
			c0-0.217,0.008-0.435-0.053-0.647c0.851-0.205,1.7-0.418,2.53-0.699C41.241,58.244,41.914,57.994,42.59,57.752z"/>
		<path fill="#8A00E2" d="M58.77,14.524c-0.095,0.136-0.097,0.292-0.097,0.45c0.001,2.837,0.001,5.673-0.001,8.51
			c0,0.106,0.049,0.23-0.064,0.316c-0.362-1.059-0.727-2.119-1.2-3.135c-0.303-0.65-0.627-1.29-0.941-1.935
			c0.074-0.119,0.059-0.251,0.059-0.381c0-2.142-0.001-4.284,0.001-6.426c0-0.116-0.044-0.25,0.091-0.331
			c0.6,0.743,1.21,1.48,1.738,2.278C58.499,14.084,58.675,14.278,58.77,14.524z"/>
		<path fill="#8700D8" d="M62.753,40.824c-0.04,0.009-0.09,0.037-0.095-0.036c-0.005-0.061-0.002-0.122-0.002-0.183
			c0-5.74,0-11.48,0.005-17.219c0-0.069-0.094-0.213,0.09-0.221c0.625,2.179,1.022,4.397,1.175,6.661
			c0.179,2.659,0.037,5.299-0.444,7.918c-0.183,0.995-0.395,1.988-0.713,2.952C62.755,40.736,62.758,40.781,62.753,40.824z"/>
		<path fill="#9301F0" d="M38.031,59.174c0.061,0.212,0.053,0.429,0.053,0.647c-0.001,1.195,0,2.389,0,3.584
			c-0.738,0.18-1.49,0.273-2.241,0.364c-0.449,0.054-0.897,0.128-1.352,0.113c-0.209,0.011-0.179-0.138-0.179-0.268
			c0-1.29,0-2.581,0-3.871C35.561,59.614,36.803,59.437,38.031,59.174z"/>
		<path fill="#E81969" d="M1.21,23.322c0.041-0.011,0.089-0.034,0.093,0.038c0.004,0.061,0.001,0.122,0.001,0.183
			c0,5.635,0,11.269-0.005,16.904c0,0.069,0.095,0.214-0.091,0.22c-0.305-0.962-0.507-1.95-0.689-2.94
			c-0.381-2.072-0.551-4.164-0.513-6.27c0.048-2.701,0.429-5.357,1.142-7.964C1.164,23.435,1.189,23.379,1.21,23.322z"/>
		<path fill="#8B00E6" d="M56.618,11.59c-0.135,0.082-0.091,0.216-0.091,0.331c-0.002,2.142-0.001,4.284-0.001,6.426
			c0,0.13,0.014,0.262-0.059,0.381c-0.097-0.163-0.198-0.325-0.291-0.491c-0.57-1.017-1.235-1.972-1.905-2.923
			c0.066-0.256,0.055-0.517,0.055-0.777c0-1.69-0.001-3.38,0.002-5.07c0-0.099-0.041-0.212,0.058-0.294
			C55.19,9.923,55.928,10.735,56.618,11.59z"/>
		<path fill="#8C00EA" d="M54.386,9.174c-0.099,0.082-0.058,0.194-0.058,0.294c-0.002,1.69-0.002,3.38-0.002,5.07
			c0,0.26,0.012,0.521-0.055,0.777c-0.715-0.908-1.463-1.787-2.249-2.635c0.066-0.238,0.05-0.482,0.05-0.725
			c0.002-1.613,0.004-3.225,0.006-4.838c0.62,0.475,1.205,0.991,1.773,1.525C54.035,8.813,54.208,8.996,54.386,9.174z"/>
		<path fill="#8C00EB" d="M54.228,54.985c-0.666,0.669-1.363,1.302-2.12,1.869c-0.147-0.051-0.085-0.177-0.085-0.269
			c-0.004-1.624-0.002-3.247-0.005-4.871c0-0.106,0.049-0.231-0.068-0.315c0.751-0.812,1.477-1.645,2.166-2.51
			c0.069,0.111,0.053,0.235,0.053,0.356c0,1.795,0,3.59,0,5.385C54.168,54.753,54.16,54.875,54.228,54.985z"/>
		<path fill="#8B00E4" d="M57.618,51.143c-0.514,0.716-1.07,1.398-1.668,2.045c-0.146-0.072-0.104-0.208-0.104-0.323
			c-0.002-2.032-0.001-4.064-0.002-6.097c0-0.112,0.018-0.228-0.05-0.33c0.609-1.04,1.163-2.109,1.676-3.199
			c0.071,0.111,0.05,0.236,0.05,0.357c0.001,2.406,0,4.813,0.002,7.219C57.523,50.929,57.479,51.064,57.618,51.143z"/>
		<path fill="#8D00EE" d="M52.079,7.116c-0.002,1.613-0.004,3.225-0.006,4.838c0,0.243,0.016,0.487-0.05,0.725
			c-0.734-0.716-1.477-1.421-2.254-2.09c0.041-0.134,0.053-0.27,0.053-0.411c-0.003-1.455-0.003-2.911,0-4.366
			c0-0.106-0.048-0.231,0.073-0.312C50.648,6.003,51.396,6.516,52.079,7.116z"/>
		<path fill="#8D00EE" d="M51.95,51.399c0.117,0.084,0.068,0.208,0.068,0.315c0.003,1.624,0.001,3.247,0.005,4.871
			c0,0.092-0.062,0.218,0.085,0.269c-0.616,0.551-1.284,1.031-1.979,1.474c-0.106,0.067-0.203,0.148-0.303,0.223
			c-0.002-0.314,0-0.627-0.007-0.941c-0.029-1.4,0.064-2.801-0.051-4.2C50.518,52.765,51.24,52.089,51.95,51.399z"/>
		<path fill="#A306D7" d="M22.626,1.419c0.857-0.289,1.729-0.522,2.62-0.681c0.044,0.142,0.056,0.287,0.055,0.436
			C25.299,2.443,25.3,3.712,25.3,4.981c-0.896,0.247-1.786,0.513-2.667,0.808C22.631,4.332,22.628,2.876,22.626,1.419z"/>
		<path fill="#8A00E2" d="M57.618,51.143c-0.139-0.078-0.095-0.213-0.095-0.329c-0.002-2.406-0.001-4.813-0.002-7.219
			c0-0.121,0.021-0.245-0.05-0.357c0.441-1.052,0.834-2.121,1.189-3.205c0.166,0.069,0.117,0.217,0.118,0.34
			c0.002,2.877,0.002,5.754,0.001,8.632c0,0.131-0.012,0.263,0.064,0.38c-0.337,0.544-0.681,1.081-1.099,1.569
			C57.695,51.01,57.66,51.079,57.618,51.143z"/>
		<path fill="#8B00E7" d="M55.794,46.437c0.068,0.102,0.05,0.218,0.05,0.33c0,2.032,0,4.064,0.002,6.097
			c0,0.116-0.043,0.252,0.104,0.323c-0.532,0.639-1.115,1.23-1.722,1.798c-0.068-0.11-0.06-0.233-0.06-0.355
			c0.001-1.795,0-3.59,0-5.385c0-0.121,0.016-0.245-0.053-0.356C54.702,48.09,55.257,47.27,55.794,46.437z"/>
		<path fill="#8E00F2" d="M49.768,53.411c0.115,1.399,0.023,2.8,0.051,4.2c0.006,0.313,0.005,0.627,0.007,0.941
			c-0.57,0.399-1.146,0.787-1.771,1.098c-0.112,0.056-0.216,0.13-0.323,0.195c-0.1-0.082-0.059-0.195-0.059-0.294
			c-0.003-1.397-0.002-2.794-0.002-4.191c0-0.112,0.02-0.228-0.052-0.33C48.349,54.508,49.066,53.969,49.768,53.411z"/>
		<path fill="#9201F3" d="M39.917,1.007c-0.001,1.433-0.001,2.866-0.002,4.299c-0.803-0.197-1.606-0.394-2.408-0.591
			c-0.084-0.144,0.006-0.287,0.005-0.431c-0.009-1.266-0.005-2.532-0.005-3.797C38.321,0.613,39.126,0.777,39.917,1.007z"/>
		<path fill="#8E00F2" d="M49.895,5.5c-0.121,0.081-0.073,0.206-0.073,0.312c-0.003,1.455-0.003,2.911,0,4.366
			c0,0.141-0.012,0.277-0.053,0.411c-0.664-0.504-1.328-1.009-1.993-1.513c0-1.504,0-3.007,0.002-4.511
			c0-0.117-0.036-0.251,0.113-0.317C48.584,4.625,49.258,5.033,49.895,5.5z"/>
		<path fill="#9E04DE" d="M25.3,4.981c0-1.269-0.001-2.538,0.002-3.807c0-0.149-0.011-0.294-0.055-0.436
			c0.722-0.201,1.466-0.293,2.203-0.413c0.12-0.019,0.242-0.029,0.362-0.043c-0.061,0.051-0.104,0.104-0.104,0.196
			c0.003,1.271,0.003,2.541,0.001,3.812c0,0.12,0.039,0.182,0.164,0.175C27.015,4.637,26.157,4.809,25.3,4.981z"/>
		<path fill="#9301F0" d="M37.507,0.487c0,1.266-0.004,2.532,0.005,3.797c0.001,0.144-0.09,0.288-0.005,0.431
			c-0.786-0.123-1.572-0.246-2.358-0.369c-0.027-0.039-0.07-0.057-0.07-0.126c0.01-1.351,0.013-2.702,0.017-4.052
			C35.909,0.212,36.71,0.333,37.507,0.487z"/>
		<path fill="#CB1196" d="M9.122,54.337c-0.52-0.515-1.02-1.047-1.475-1.622c0.144-0.074,0.1-0.209,0.1-0.325
			c0.002-2.097,0.001-4.194,0.002-6.29c0-0.121-0.015-0.245,0.053-0.356c0.474,0.747,0.947,1.493,1.421,2.24
			c-0.084,0.386-0.059,0.778-0.059,1.168c-0.001,1.627,0,3.255-0.002,4.882C9.161,54.135,9.196,54.244,9.122,54.337z"/>
		<path fill="#D41488" d="M5.328,14.36c0.322-0.513,0.665-1.011,1.048-1.481c0.076,0.118,0.062,0.25,0.062,0.38
			c0,2.388,0.001,4.777-0.002,7.165c0,0.149,0.009,0.295,0.054,0.437c-0.332,0.874-0.663,1.748-0.995,2.622
			c-0.076-0.188-0.108-0.381-0.107-0.585c0.003-2.74,0.002-5.48,0-8.22C5.389,14.572,5.436,14.449,5.328,14.36z"/>
		<path fill="#D0128F" d="M7.802,45.744c-0.068,0.111-0.053,0.235-0.053,0.356c0,2.097,0,4.194-0.002,6.29
			c0,0.115,0.044,0.251-0.1,0.325c-0.439-0.478-0.839-0.988-1.219-1.515c0.187-0.043,0.111-0.196,0.112-0.301
			c0.004-2.36,0.004-4.72,0.002-7.081c0-0.149,0.012-0.294,0.057-0.436C7,44.17,7.401,44.957,7.802,45.744z"/>
		<path fill="#9E04DE" d="M27.708,63.705c-0.703-0.089-1.404-0.191-2.094-0.36c0.001-1.415,0.001-2.83,0.002-4.244
			c0.72,0.14,1.44,0.279,2.16,0.419c-0.105,0.078-0.064,0.191-0.064,0.29c-0.003,1.139-0.008,2.277,0.005,3.416
			C27.719,63.387,27.602,63.545,27.708,63.705z"/>
		<path fill="#D81483" d="M5.328,14.36c0.107,0.089,0.06,0.212,0.06,0.319c0.003,2.74,0.003,5.48,0,8.22
			c0,0.204,0.032,0.397,0.107,0.585c-0.07,0.249-0.137,0.5-0.212,0.748c-0.277,0.912-0.462,1.846-0.673,2.774
			c-0.13-3.345-0.026-6.691-0.059-10.036c-0.003-0.331,0.001-0.663-0.002-0.994c-0.001-0.091,0.031-0.196-0.074-0.26
			C4.738,15.249,5.014,14.792,5.328,14.36z"/>
		<path fill="#C6109E" d="M9.122,54.337c0.074-0.093,0.04-0.201,0.04-0.302c0.002-1.627,0.001-3.255,0.002-4.882
			c0-0.39-0.024-0.782,0.059-1.168c0.471,0.613,0.941,1.225,1.412,1.838c-0.072,0.255-0.056,0.517-0.057,0.777
			c-0.002,1.708-0.005,3.417-0.007,5.125C10.057,55.293,9.575,54.83,9.122,54.337z"/>
		<path fill="#C20EA5" d="M10.571,55.724c0.002-1.708,0.005-3.417,0.007-5.125c0-0.26-0.015-0.522,0.057-0.777
			c0.489,0.541,0.978,1.083,1.467,1.624c-0.001,1.725-0.003,3.449-0.004,5.174c0,0.122,0.008,0.245-0.059,0.355
			C11.518,56.594,11.034,56.171,10.571,55.724z"/>
		<path fill="#D41389" d="M6.599,43.382c-0.045,0.142-0.057,0.287-0.057,0.436c0.002,2.36,0.003,4.72-0.002,7.081
			c0,0.105,0.075,0.257-0.112,0.301c-0.349-0.438-0.673-0.893-0.973-1.366c0.16-0.056,0.089-0.193,0.089-0.292
			c0.004-2.478,0.002-4.957,0.004-7.435c0-0.417-0.031-0.836,0.06-1.249C5.939,41.699,6.269,42.541,6.599,43.382z"/>
		<path fill="#D71484" d="M5.609,40.858c-0.091,0.413-0.06,0.832-0.06,1.249c-0.002,2.478,0,4.957-0.004,7.435
			c0,0.099,0.071,0.235-0.089,0.292c-0.31-0.417-0.579-0.86-0.838-1.31c0.159-0.057,0.088-0.193,0.088-0.292
			C4.71,44.887,4.71,41.542,4.71,38.196c0-0.13-0.012-0.262,0.063-0.38c0.04,0.15,0.086,0.3,0.119,0.451
			C5.085,39.143,5.358,39.997,5.609,40.858z"/>
		<path fill="#D0128E" d="M6.491,20.862c-0.045-0.142-0.054-0.288-0.054-0.437c0.002-2.388,0.001-4.777,0.002-7.165
			c0-0.13,0.014-0.263-0.062-0.38c0.307-0.453,0.65-0.876,1.005-1.291c0.172,0.043,0.102,0.184,0.102,0.282
			c0.004,2.165,0.003,4.331,0.003,6.496c0,0.122-0.012,0.245,0.056,0.356C7.192,19.435,6.842,20.148,6.491,20.862z"/>
		<path fill="#A205D8" d="M25.616,59.102c-0.001,1.415-0.001,2.83-0.002,4.244c-0.622-0.101-1.231-0.254-1.836-0.426
			c-0.07-0.102-0.049-0.218-0.049-0.33c-0.001-1.335-0.001-2.67-0.001-4.005C24.357,58.757,24.987,58.929,25.616,59.102z"/>
		<path fill="#B20ABE" d="M16.227,4.178c0.542-0.328,1.101-0.625,1.677-0.89c0.066,0.11,0.062,0.232,0.062,0.354
			c-0.001,1.332-0.001,2.664,0.001,3.996c0,0.099-0.041,0.213,0.067,0.289c-0.58,0.368-1.161,0.737-1.741,1.105
			c-0.001-1.491-0.003-2.982-0.004-4.473C16.289,4.429,16.299,4.297,16.227,4.178z"/>
		<path fill="#A807CF" d="M22.626,1.419c0.002,1.456,0.004,2.913,0.006,4.369c-0.561,0.221-1.122,0.443-1.683,0.664
			c-0.159-0.035-0.101-0.164-0.101-0.256c-0.004-1.265-0.002-2.53-0.002-3.795c0-0.122,0.014-0.245-0.056-0.356
			C21.388,1.792,22,1.584,22.626,1.419z"/>
		<path fill="#9602EC" d="M34.311,59.743c0,1.29,0,2.581,0,3.871c0,0.129-0.03,0.278,0.179,0.268
			c-0.685,0.093-1.374,0.115-2.065,0.096c0-1.38,0-2.759,0-4.139C33.054,59.806,33.683,59.774,34.311,59.743z"/>
		<path fill="#AD09C6" d="M18.034,7.928c-0.108-0.076-0.067-0.19-0.067-0.289c-0.003-1.332-0.002-2.664-0.001-3.996
			c0-0.122,0.004-0.244-0.062-0.354c0.582-0.301,1.175-0.581,1.79-0.81c-0.056,0.085-0.052,0.181-0.052,0.277
			c0.001,1.346,0,2.693,0.001,4.039c0,0.083-0.028,0.177,0.061,0.239C19.147,7.331,18.59,7.629,18.034,7.928z"/>
		<path fill="#BE0DAC" d="M12.038,56.975c0.068-0.11,0.059-0.233,0.059-0.355c0.001-1.725,0.003-3.449,0.004-5.174
			c0.473,0.45,0.946,0.9,1.419,1.35c-0.069,0.119-0.062,0.25-0.062,0.38c0.001,1.626,0.001,3.251,0.001,4.877
			C12.964,57.722,12.488,57.366,12.038,56.975z"/>
		<path fill="#C30FA4" d="M10.466,8.374c0.393-0.396,0.815-0.758,1.26-1.094c0.001,1.743,0.002,3.486,0.005,5.229
			c0,0.117-0.039,0.249,0.087,0.336c-0.431,0.49-0.862,0.98-1.293,1.469c0-0.861,0.011-1.722-0.004-2.582
			C10.503,10.612,10.593,9.491,10.466,8.374z"/>
		<path fill="#9B03E3" d="M27.708,63.705c-0.106-0.16,0.011-0.318,0.009-0.479c-0.013-1.138-0.008-2.277-0.005-3.416
			c0-0.099-0.041-0.212,0.064-0.29c0.13-0.033,0.245,0.043,0.373,0.052c0.437,0.032,0.872,0.1,1.307,0.155
			c-0.108,0.076-0.068,0.19-0.068,0.288c-0.002,1.286-0.002,2.573-0.002,3.86C28.823,63.862,28.264,63.791,27.708,63.705z"/>
		<path fill="#9B03E3" d="M27.872,4.464c-0.124,0.007-0.164-0.055-0.164-0.175c0.003-1.271,0.003-2.541-0.001-3.812
			c0-0.092,0.043-0.145,0.104-0.196c0.523-0.075,1.046-0.144,1.575-0.162c0,1.29,0,2.579,0,3.869c0,0.131-0.026,0.276,0.178,0.273
			C29,4.33,28.436,4.397,27.872,4.464z"/>
		<path fill="#BF0DAB" d="M11.818,12.845c-0.126-0.086-0.087-0.219-0.087-0.336c-0.003-1.743-0.004-3.486-0.005-5.229
			c0.378-0.34,0.776-0.653,1.198-0.937c0.102,0.08,0.061,0.193,0.061,0.292c0.003,1.523,0.003,3.046,0,4.569
			c0,0.149,0.009,0.294,0.054,0.436C12.633,12.042,12.226,12.443,11.818,12.845z"/>
		<path fill="#C91099" d="M8.361,10.48c0.323-0.398,0.682-0.761,1.057-1.109c0.068,0.11,0.06,0.232,0.06,0.354
			c-0.001,1.835,0,3.67-0.001,5.504c0,0.122-0.009,0.244,0.059,0.354c-0.348,0.509-0.695,1.019-1.043,1.528
			c-0.052-0.15-0.065-0.303-0.065-0.461c0.003-1.952,0.002-3.904,0-5.855C8.427,10.688,8.475,10.565,8.361,10.48z"/>
		<path fill="#CD1294" d="M8.361,10.48c0.114,0.085,0.067,0.209,0.067,0.315c0.003,1.952,0.003,3.904,0,5.855
			c0,0.159,0.013,0.312,0.065,0.461c-0.317,0.537-0.634,1.073-0.95,1.61c-0.068-0.111-0.056-0.235-0.056-0.356
			c0-2.165,0.001-4.331-0.003-6.496c0-0.098,0.07-0.239-0.102-0.282C7.697,11.208,8.004,10.822,8.361,10.48z"/>
		<path fill="#BA0CB2" d="M13.459,58.053c0-1.626,0-3.251-0.001-4.877c0-0.131-0.007-0.261,0.062-0.38
			c0.418,0.351,0.837,0.703,1.255,1.054c-0.065,0.111-0.059,0.233-0.059,0.355c0,1.565,0,3.131,0,4.696
			C14.276,58.649,13.861,58.361,13.459,58.053z"/>
		<path fill="#9702E9" d="M32.425,59.838c0,1.38,0,2.759,0,4.139c-0.524,0.019-1.048,0.02-1.572-0.006
			c0-1.126-0.004-2.252,0.003-3.378c0.001-0.24-0.109-0.546,0.053-0.705c0.15-0.147,0.45-0.029,0.683-0.05
			C31.87,59.839,32.148,59.838,32.425,59.838z"/>
		<path fill="#C6109E" d="M9.536,15.584c-0.068-0.11-0.059-0.233-0.059-0.355c0-1.835,0-3.67,0.001-5.504
			c0-0.122,0.008-0.244-0.06-0.354c0.335-0.348,0.667-0.699,1.049-0.997c0.126,1.117,0.037,2.239,0.056,3.358
			c0.015,0.861,0.003,1.722,0.004,2.582C10.196,14.737,9.866,15.16,9.536,15.584z"/>
		<path fill="#A506D4" d="M23.728,58.585c0,1.335,0,2.67,0.001,4.005c0,0.112-0.021,0.228,0.049,0.33
			c-0.514-0.124-1.023-0.268-1.523-0.444c0.002-1.34,0.004-2.68,0.005-4.02c0-0.122-0.01-0.244,0.056-0.356
			C22.787,58.262,23.258,58.423,23.728,58.585z"/>
		<path fill="#B70BB7" d="M14.716,58.901c0-1.565,0.001-3.131,0-4.696c0-0.122-0.005-0.244,0.059-0.355
			c0.42,0.312,0.84,0.624,1.26,0.936c-0.069,0.119-0.062,0.25-0.062,0.38c0.001,1.503,0.001,3.006,0.001,4.509
			C15.54,59.441,15.114,59.194,14.716,58.901z"/>
		<path fill="#B60BB9" d="M16.227,4.178c0.073,0.119,0.062,0.25,0.062,0.381c0.001,1.491,0.002,2.982,0.004,4.473
			c-0.407,0.293-0.814,0.586-1.222,0.878c-0.07-0.094-0.038-0.203-0.038-0.305c-0.002-1.414-0.003-2.829,0-4.243
			c0-0.15-0.012-0.295-0.057-0.437C15.38,4.655,15.795,4.404,16.227,4.178z"/>
		<path fill="#9903E6" d="M31.592,59.839c-0.233,0.021-0.533-0.097-0.683,0.05c-0.162,0.159-0.052,0.464-0.053,0.705
			c-0.007,1.126-0.003,2.252-0.003,3.378c-0.49-0.012-0.981-0.023-1.467-0.096c0-1.286-0.001-2.573,0.002-3.86
			c0-0.099-0.04-0.213,0.068-0.288C30.168,59.765,30.88,59.802,31.592,59.839z"/>
		<path fill="#B30ABD" d="M15.974,59.676c0-1.503,0-3.006-0.001-4.509c0-0.131-0.007-0.261,0.062-0.38
			c0.4,0.267,0.8,0.534,1.199,0.8c-0.001,1.459-0.003,2.918-0.002,4.377c0,0.131-0.007,0.259-0.053,0.383
			C16.767,60.142,16.361,59.927,15.974,59.676z"/>
		<path fill="#AD08C7" d="M19.691,61.529c-0.445-0.176-0.886-0.359-1.306-0.59c0-1.416,0-2.832,0-4.248
			c0-0.13-0.012-0.263,0.104-0.36c0.431,0.227,0.861,0.454,1.292,0.681c-0.143,0.054-0.082,0.178-0.083,0.27
			C19.692,58.698,19.692,60.114,19.691,61.529z"/>
		<path fill="#A807CF" d="M22.317,58.101c-0.066,0.111-0.056,0.234-0.056,0.356c-0.001,1.34-0.004,2.68-0.005,4.02
			c-0.459-0.143-0.92-0.281-1.359-0.481c0.064-0.102,0.055-0.217,0.055-0.33c0-1.265-0.001-2.529,0.001-3.794
			c0-0.099-0.041-0.213,0.066-0.29C21.452,57.754,21.884,57.928,22.317,58.101z"/>
		<path fill="#AA08CB" d="M21.019,57.581c-0.107,0.077-0.066,0.191-0.066,0.29c-0.003,1.265-0.002,2.529-0.001,3.794
			c0,0.113,0.008,0.228-0.055,0.33c-0.414-0.124-0.814-0.285-1.206-0.466c0.001-1.416,0.001-2.831,0.006-4.247
			c0-0.092-0.06-0.216,0.083-0.27C20.193,57.202,20.606,57.392,21.019,57.581z"/>
		<path fill="#B009C2" d="M18.488,56.331c-0.115,0.097-0.104,0.23-0.104,0.36c0,1.416,0,2.832,0,4.248
			c-0.416-0.167-0.815-0.371-1.205-0.592c0.047-0.124,0.053-0.252,0.053-0.383c-0.001-1.459,0.001-2.918,0.002-4.377
			C17.652,55.835,18.07,56.083,18.488,56.331z"/>
		<path fill="#AB08CB" d="M19.704,7.033c-0.089-0.062-0.061-0.156-0.061-0.239c-0.001-1.346-0.001-2.693-0.001-4.039
			c0-0.096-0.004-0.192,0.052-0.277c0.355-0.173,0.72-0.319,1.098-0.433c0.069,0.111,0.056,0.235,0.056,0.356
			c0,1.265-0.001,2.53,0.002,3.795c0,0.092-0.058,0.221,0.101,0.256C20.535,6.646,20.119,6.839,19.704,7.033z"/>
		<path fill="#B90CB4" d="M14.975,4.926c0.045,0.142,0.058,0.288,0.057,0.437c-0.003,1.414-0.002,2.829,0,4.243
			c0,0.102-0.032,0.21,0.038,0.305c-0.305,0.287-0.638,0.539-0.972,0.79c-0.175-0.034-0.112-0.175-0.113-0.275
			c-0.004-1.465-0.003-2.93-0.001-4.394c0-0.141-0.012-0.277-0.052-0.411C14.262,5.362,14.617,5.141,14.975,4.926z"/>
		<path fill="#BC0DAF" d="M13.932,5.62c0.041,0.134,0.053,0.271,0.052,0.411c-0.003,1.465-0.003,2.93,0.001,4.394
			c0,0.1-0.062,0.24,0.113,0.275c-0.353,0.313-0.705,0.627-1.058,0.94c-0.045-0.142-0.054-0.287-0.054-0.436
			c0.002-1.523,0.002-3.046,0-4.569c0-0.099,0.04-0.212-0.061-0.292C13.241,6.074,13.579,5.836,13.932,5.62z"/>
		<path fill="#211F1F" d="M24.99,34.138c0.006,2.073,0.257,3.961,1.039,5.752c0.501,1.146,1.194,2.164,2.048,3.074
			c0.539,0.574,0.48,1.217-0.162,1.692c-1.388,1.028-2.777,2.053-4.166,3.079c-1.228,0.907-2.456,1.813-3.684,2.719
			c-0.397,0.293-0.82,0.32-1.255,0.103c-0.539-0.269-0.772-0.803-0.587-1.383c0.59-1.849,1.186-3.695,1.786-5.541
			c1.095-3.368,2.192-6.735,3.293-10.1c0.121-0.371,0.221-0.752,0.423-1.093c0.163-0.275,0.458-0.413,0.751-0.35
			c0.317,0.069,0.53,0.306,0.552,0.645C25.061,33.248,24.958,33.761,24.99,34.138z"/>
		<path fill="#211F1F" d="M38.511,26.797c0.024,0.361-0.124,0.62-0.385,0.743c-0.279,0.132-0.574,0.085-0.792-0.142
			c-0.096-0.1-0.178-0.215-0.253-0.331c-0.914-1.412-1.949-2.721-3.23-3.823c-1.464-1.259-3.115-2.146-5.046-2.4
			c-0.708-0.093-1.045-0.833-0.855-1.42c0.58-1.787,1.145-3.578,1.718-5.367c0.421-1.317,0.844-2.634,1.269-3.95
			c0.186-0.575,0.601-0.873,1.19-0.868c0.522,0.005,0.91,0.316,1.093,0.883c0.672,2.077,1.346,4.153,2.012,6.232
			c1.051,3.28,2.097,6.562,3.142,9.844C38.442,26.413,38.521,26.628,38.511,26.797z"/>
		<path fill="#211F1F" d="M45.933,49.492c-0.028,0.502-0.259,0.856-0.675,1.073c-0.435,0.226-0.854,0.159-1.249-0.13
			c-2.405-1.762-4.814-3.518-7.218-5.281c-2.172-1.593-4.356-3.17-6.503-4.797c-0.139-0.105-0.274-0.215-0.388-0.349
			c-0.219-0.258-0.255-0.569-0.09-0.844c0.165-0.275,0.465-0.405,0.79-0.3c0.562,0.181,1.112,0.4,1.675,0.579
			c1.63,0.518,3.293,0.826,5.014,0.752c1.413-0.061,2.76-0.382,4.003-1.062c0.618-0.338,1.312,0.076,1.485,0.606
			c0.051,0.157,0.106,0.313,0.158,0.471c0.96,2.925,1.92,5.85,2.882,8.774C45.873,49.158,45.919,49.334,45.933,49.492z"/>
		<path fill="#211F1F" d="M20.16,24.118c1.737,0,3.474-0.005,5.212,0.002c1.125,0.005,2.251,0.026,3.376,0.044
			c0.103,0.002,0.208,0.02,0.309,0.042c0.355,0.078,0.569,0.311,0.591,0.634c0.023,0.329-0.144,0.601-0.495,0.714
			c-0.737,0.236-1.488,0.43-2.215,0.701c-1.673,0.625-3.215,1.467-4.516,2.71c-0.808,0.772-1.468,1.655-2.004,2.633
			c-0.375,0.683-1.017,0.829-1.659,0.37c-1.754-1.251-3.505-2.505-5.257-3.757c-0.894-0.639-1.788-1.277-2.682-1.916
			c-0.4-0.287-0.565-0.678-0.486-1.162c0.076-0.469,0.331-0.798,0.795-0.944c0.177-0.055,0.361-0.054,0.545-0.054
			c2.829,0,5.658,0,8.487,0C20.16,24.13,20.16,24.124,20.16,24.118z"/>
		<path fill="#211F1F" d="M47.668,24.189c1.624,0,3.248-0.003,4.872,0.001c0.785,0.002,1.329,0.634,1.211,1.396
			c-0.053,0.341-0.251,0.582-0.526,0.778c-1.943,1.39-3.882,2.787-5.827,4.175c-2.618,1.87-5.24,3.735-7.862,5.601
			c-0.198,0.141-0.399,0.281-0.627,0.373c-0.301,0.122-0.59,0.056-0.807-0.186c-0.208-0.232-0.244-0.546-0.06-0.822
			c0.169-0.253,0.369-0.485,0.557-0.725c1.253-1.597,2.285-3.312,2.808-5.295c0.353-1.34,0.439-2.699,0.253-4.073
			c-0.093-0.686,0.343-1.199,1.056-1.222c0.305-0.01,0.611-0.002,0.917-0.002C44.979,24.189,46.323,24.189,47.668,24.189z"/>
	</g>
</g>
</svg>
