<?xml version="1.0" encoding="utf-8"?>
<!-- Generator: Adobe Illustrator 22.0.0, SVG Export Plug-In . SVG Version: 6.00 Build 0)  -->
<svg version="1.1" id="Camada_1" xmlns="http://www.w3.org/2000/svg" xmlns:xlink="http://www.w3.org/1999/xlink" x="0px" y="0px"
	 width="64px" height="64px" viewBox="0 0 64 64" enable-background="new 0 0 64 64" xml:space="preserve">
<g>
	<g>
		<path fill="#9E05E0" d="M25.4,0.7c0.9-0.2,1.9-0.4,2.8-0.5c0.6-0.1,1.3-0.1,1.9-0.2c0,0,0.1,0,0.1-0.1c0.5,0,1,0,1.5,0
			c0,1.4,0,2.8,0,4.2c-2.1,0-4.2,0.3-6.3,0.8C25.4,3.5,25.4,2.1,25.4,0.7z"/>
		<path fill="#9502ED" d="M31.7,4.2c0-1.4,0-2.8,0-4.2c0.7,0,1.4,0,2.1,0c0.3,0.1,0.6,0.1,0.9,0.1c0.7,0.1,1.3,0.1,2,0.2
			c-0.1,0.2-0.1,0.4-0.1,0.6c0,1.2,0,2.4,0,3.6C35,4.3,33.3,4.2,31.7,4.2z"/>
		<path fill="#8901DD" d="M58.7,14.5c0.2,0.2,0.4,0.5,0.5,0.7c2.2,3.6,3.7,7.5,4.3,11.6c0.3,2,0.5,4,0.4,6c-0.2,6-1.9,11.5-5.1,16.5
			l-0.1,0.1c-0.2,0-0.1-0.2-0.1-0.3c0-0.8,0-1.6,0-2.4c0-2.1,0-4.1,0-6.2c0-0.1,0.1-0.2-0.1-0.3v-0.1c0.6-2,1-4,1.2-6
			c0.2-2.6,0-5.2-0.5-7.7c-0.2-0.9-0.4-1.8-0.7-2.7c0.1-0.1,0.1-0.3,0.1-0.4c0-0.7,0-1.4,0-2C58.7,19.1,58.7,16.8,58.7,14.5z"/>
		<path fill="#DB167D" d="M2.6,19.4c0.3-0.9,0.8-1.8,1.3-2.6c0.4-0.7,0.8-1.4,1.2-2.1c0.1,0.1,0.1,0.3,0.1,0.4c0,2.9,0,5.8,0,8.8
			c0,0.1-0.1,0.3,0.1,0.3c0,0.1,0,0.1,0,0.2c-0.6,2-0.9,4-1,6.1c-0.2,2.9,0.1,5.8,0.9,8.7c0.3,1,0.6,1.9,0.9,2.9
			C5.9,42.2,6,42.3,6,42.4c0,2.6,0,5.1,0,7.7c0,0.1,0.1,0.2-0.1,0.3c-0.9-1.2-1.6-2.5-2.3-3.8c-0.3-0.6-0.7-1.3-0.9-2
			c0.1-0.1,0.1-0.2,0.1-0.3c0-8.2,0-16.3,0-24.5C2.7,19.6,2.7,19.5,2.6,19.4z"/>
		<path fill="#9001F4" d="M36.6,4.6c0-1.2,0-2.4,0-3.6c0-0.2,0-0.4,0.1-0.6c3.1,0.4,6.1,1.4,9,2.7c1.5,0.7,2.9,1.5,4.2,2.4
			c-0.1,0.1-0.1,0.3-0.1,0.4c0,1.5,0,2.9,0,4.4c0,0.1,0,0.2-0.1,0.3c0,0-0.1,0-0.1-0.1c-1.6-1.3-3.3-2.4-5.1-3.3
			C42.1,5.9,39.4,5,36.6,4.6z"/>
		<path fill="#9001F4" d="M49.3,58.9c-0.8,0.6-1.7,1.1-2.7,1.6c-2.7,1.4-5.6,2.4-8.6,3h-0.1c0-1.4,0-2.8,0-4.2H38
			c3-0.7,5.9-1.8,8.5-3.5c1-0.6,1.9-1.3,2.8-1.9C49.3,55.5,49.3,57.2,49.3,58.9z"/>
		<path fill="#E5196E" d="M2.6,19.4c0.1,0.1,0.1,0.2,0.1,0.4c0,8.2,0,16.3,0,24.5c0,0.1,0,0.2-0.1,0.3c-0.6-1.2-1-2.4-1.3-3.7
			c-0.7-2.5-1.1-5-1.2-7.6c-0.2-4.4,0.5-8.7,2.1-12.9C2.3,20.1,2.4,19.7,2.6,19.4z"/>
		<path fill="#CD1294" d="M5.3,24.2c-0.2-0.1-0.1-0.2-0.1-0.3c0-2.9,0-5.8,0-8.8c0-0.1,0-0.3-0.1-0.4c0.6-1,1.4-2,2.1-2.9
			c1-1.2,2-2.3,3.1-3.3c0.1-0.1,0.1-0.1,0.2-0.2c0,0.2,0.1,0.3,0.1,0.5c0,1.7,0,3.4,0,5.1c0,0.1,0,0.2,0.1,0.3
			c0,0.1-0.1,0.1-0.1,0.2c-1.9,2.3-3.3,4.7-4.4,7.4C5.8,22.5,5.6,23.3,5.3,24.2z"/>
		<path fill="#9502ED" d="M38,59.2c0,1.4,0,2.8,0,4.2c-1.2,0.3-2.5,0.4-3.7,0.5c-1.7,0.1-3.4,0.1-5.2,0c-0.1,0-0.1,0-0.2,0
			c0-1.4,0-2.8,0-4.2c0.4,0,0.8,0.1,1.2,0.1c1.6,0.1,3.3,0.1,4.9-0.1C36,59.6,37,59.4,38,59.2z"/>
		<path fill="#8B01E4" d="M58.6,40.3c0.2,0,0.1,0.2,0.1,0.3c0,2.1,0,4.1,0,6.2c0,0.8,0,1.6,0,2.4c0,0.1-0.1,0.2,0.1,0.3
			c-0.5,0.9-1.2,1.7-1.8,2.6c-0.8,1-1.7,2-2.7,3c-0.1-0.1-0.1-0.2-0.1-0.4c0-1.8,0-3.6,0-5.4c0-0.1,0-0.2-0.1-0.4
			c0.1-0.1,0.1-0.2,0.2-0.2c1.2-1.7,2.3-3.4,3.1-5.3C57.8,42.4,58.2,41.4,58.6,40.3z"/>
		<path fill="#BF0EAB" d="M15.5,59.4c-1.3-0.7-2.5-1.6-3.6-2.5c-0.8-0.7-1.6-1.4-2.4-2.2c0-0.1,0.1-0.3,0.1-0.4c0-1.8,0-3.7,0-5.5
			c0-0.1-0.1-0.2,0.1-0.3c0.1,0.1,0.1,0.1,0.1,0.2c1,1.3,2.1,2.5,3.3,3.6c0.8,0.8,1.7,1.5,2.6,2.1c-0.2,0.1-0.1,0.2-0.1,0.3
			C15.5,56.3,15.5,57.9,15.5,59.4z"/>
		<path fill="#8B01E4" d="M58.7,14.5c0,2.3,0,4.6,0,6.8c0,0.7,0,1.4,0,2c0,0.1,0,0.3-0.1,0.4c0-0.1-0.1-0.1-0.1-0.2
			c-0.7-2.1-1.6-4.1-2.7-6c-0.5-0.8-1-1.5-1.5-2.2c0.1-0.1,0.1-0.3,0.1-0.5c0-1.8,0-3.6,0-5.4c0-0.1-0.1-0.2,0.1-0.3
			c1,0.9,1.9,2,2.7,3c0.5,0.6,1,1.3,1.4,1.9C58.7,14.3,58.7,14.4,58.7,14.5z"/>
		<path fill="#8D01ED" d="M54.1,48.9c0.1,0.1,0.1,0.2,0.1,0.4c0,1.8,0,3.6,0,5.4c0,0.1,0,0.2,0.1,0.4c-1.5,1.5-3.1,2.8-4.9,3.9
			c0-1.7,0-3.4,0-5.1c0.7-0.6,1.4-1.2,2.1-1.8C52.4,51,53.3,49.9,54.1,48.9z"/>
		<path fill="#CD1294" d="M9.6,48.5c-0.1,0-0.1,0.2-0.1,0.3c0,1.8,0,3.7,0,5.5c0,0.1,0,0.3-0.1,0.4c-0.9-0.9-1.8-1.9-2.6-2.9
			c-0.4-0.5-0.7-0.9-1-1.4c0.2-0.1,0.1-0.2,0.1-0.3c0-2.6,0-5.1,0-7.7c0-0.1-0.1-0.3,0.1-0.3c0.1,0.1,0.1,0.3,0.2,0.5
			c0.4,0.8,0.7,1.6,1.1,2.3C8,46.1,8.8,47.3,9.6,48.5z"/>
		<path fill="#8D01ED" d="M54.5,9.3c-0.2,0-0.1,0.2-0.1,0.3c0,1.8,0,3.6,0,5.4c0,0.2,0,0.3-0.1,0.5c-0.4-0.5-0.7-0.9-1.1-1.4
			c-1-1.3-2.2-2.4-3.5-3.4c0.1-0.1,0.1-0.2,0.1-0.3c0-1.5,0-2.9,0-4.4c0-0.1,0-0.3,0.1-0.4c1.6,1.1,3.1,2.3,4.5,3.7
			C54.4,9.2,54.5,9.2,54.5,9.3z"/>
		<path fill="#BF0EAB" d="M10.7,14.1c-0.1-0.1-0.1-0.2-0.1-0.3c0-1.7,0-3.4,0-5.1c0-0.2,0-0.3-0.1-0.5c0.8-0.8,1.7-1.5,2.7-2.2
			c0.4-0.3,0.8-0.6,1.3-0.8c0.1,0.1,0.1,0.2,0.1,0.3c0,1.3,0,2.7,0,4.1c0,0.2,0,0.5,0,0.7c-0.9,0.8-1.8,1.6-2.6,2.4
			C11.5,13.2,11.1,13.7,10.7,14.1z"/>
		<path fill="#B30BBE" d="M14.6,10.3c0-0.2,0-0.5,0-0.7c0-1.4,0-2.7,0-4.1c0-0.1,0-0.2-0.1-0.3c0.9-0.6,1.8-1.1,2.8-1.6
			c0.5-0.2,0.9-0.5,1.4-0.7c0,0.1,0.1,0.3,0.1,0.4c0,1.3,0,2.5,0,3.8c0,0.1,0,0.2,0.1,0.3c0,0-0.1,0-0.1,0.1
			C17.2,8.4,15.9,9.3,14.6,10.3z"/>
		<path fill="#AA08CC" d="M18.8,7.5c-0.1-0.1-0.1-0.2-0.1-0.3c0-1.3,0-2.5,0-3.8c0-0.1,0-0.3-0.1-0.4c1.2-0.6,2.4-1,3.7-1.4
			c0,1.5,0,2.9,0,4.4c-1,0.4-2,0.8-2.9,1.3C19.2,7.3,19,7.4,18.8,7.5z"/>
		<path fill="#B30BBE" d="M15.5,59.4c0-1.5,0-3.1,0-4.6c0-0.1,0-0.3,0.1-0.3c1,0.7,2.1,1.4,3.2,2c0,1.4,0,2.9,0,4.3
			c0,0.1,0,0.2-0.1,0.3c-0.8-0.3-1.5-0.7-2.3-1.1C16.1,59.8,15.8,59.6,15.5,59.4z"/>
		<path fill="#AA08CC" d="M18.8,61.1c0.1-0.1,0.1-0.2,0.1-0.3c0-1.4,0-2.9,0-4.3c0.2,0.1,0.4,0.2,0.6,0.3c1,0.5,2,0.9,3,1.3
			c-0.2,0.1-0.1,0.2-0.1,0.3c0,1.3,0,2.7,0,4C21.1,62.1,19.9,61.7,18.8,61.1z"/>
		<path fill="#A306D7" d="M22.3,62.5c0-1.3,0-2.7,0-4c0-0.1,0-0.3,0.1-0.3s0.2,0.1,0.4,0.1c0.9,0.3,1.9,0.6,2.9,0.8
			c0,1.4,0,2.8,0,4.2c-1-0.2-1.9-0.4-2.9-0.7C22.6,62.6,22.5,62.5,22.3,62.5z"/>
		<path fill="#9E05E0" d="M25.7,63.3c0-1.4,0-2.8,0-4.2c0.4,0.1,0.9,0.2,1.3,0.3c0.7,0.1,1.3,0.2,2,0.3c0,1.4,0,2.8,0,4.2
			C27.8,63.8,26.7,63.6,25.7,63.3z"/>
		<path fill="#A306D7" d="M22.3,5.9c0-1.5,0-2.9,0-4.4c1-0.4,2-0.6,3.1-0.8c0,1.4,0,2.8,0,4.3C24.4,5.2,23.3,5.5,22.3,5.9z"/>
	</g>
</g>
<g>
	<g>
		<path fill="#9502ED" d="M33.8,0c0.2,0.1,0.5,0.1,0.8,0.1c0.2,0,0.4,0,0.5,0.1c0,1.4,0,2.7,0,4.1c0,0.1,0,0.1,0.1,0.1
			c-0.7-0.1-1.4-0.1-2.1-0.2c-0.4-0.1-0.4-0.1-0.4-0.5c0-1.2,0-2.4,0-3.7c0.1,0,0.2,0,0.3,0c0.1,0.1,0.2,0,0.4,0
			C33.5,0,33.7,0.1,33.8,0C33.7,0,33.8,0,33.8,0z"/>
		<path fill="#9702E9" d="M32.6,0c0,1.2,0,2.4,0,3.7c0,0.4,0,0.4,0.4,0.5c-0.7,0-1.4,0-2.1,0c0-1.4,0-2.8,0-4.1c0.1,0,0.2,0,0.2-0.1
			C31.6,0,32.1,0,32.6,0z"/>
		<path fill="#9903E6" d="M30.9,0.1c0,1.4,0,2.8,0,4.1c-0.4,0-0.9,0-1.3,0.1c-0.2,0-0.2-0.1-0.2-0.3c0-1.3,0-2.6,0-3.9
			C29.7,0,30,0.1,30.2,0h0.1c0.1,0.1,0.2,0,0.4,0C30.7,0.1,30.8,0.1,30.9,0.1z"/>
		<path fill="#B041F0" d="M33.3,0.1c-0.1,0-0.3,0.1-0.4,0C33.1,0,33.2,0,33.3,0.1C33.3,0,33.3,0,33.3,0.1z"/>
		<path fill="#CC83F2" d="M30.7,0L30.7,0c-0.1,0-0.3,0.1-0.4,0C30.5,0,30.6,0,30.7,0z"/>
		<path fill="#CB84F5" d="M33.3,0.1C33.3,0,33.3,0,33.3,0.1c0.1,0,0.2,0,0.4,0C33.6,0.1,33.4,0,33.3,0.1z"/>
		<path fill="#8900DE" d="M58.8,14.5c0.9,1.2,1.6,2.5,2.2,3.9c-0.2,0.1-0.1,0.2-0.1,0.4c0,5.4,0,10.7,0,16.1c0,3.5,0,7,0,10.5
			c0,0.1-0.1,0.3,0.1,0.3c-0.4,0.9-0.9,1.7-1.4,2.6c-0.2,0.4-0.5,0.8-0.7,1.2c-0.1-0.1-0.1-0.3-0.1-0.4c0-2.9,0-5.8,0-8.6
			c0-0.1,0-0.3-0.1-0.3c0-0.1,0-0.1,0-0.2c0.6-1.9,0.9-3.8,1.1-5.7c0.2-2.6,0-5.2-0.5-7.7c-0.2-0.9-0.4-1.8-0.7-2.7
			c0.1-0.1,0.1-0.2,0.1-0.3c0-2.8,0-5.7,0-8.5C58.7,14.8,58.7,14.7,58.8,14.5z"/>
		<path fill="#8900DC" d="M60.9,45.6c-0.2-0.1-0.1-0.2-0.1-0.3c0-3.5,0-7,0-10.5c0-5.4,0-10.7,0-16.1c0-0.1-0.1-0.3,0.1-0.4
			c0.7,1.5,1.3,3.1,1.8,4.8c-0.2,0-0.1,0.2-0.1,0.2c0,5.7,0,11.5,0,17.2c0,0.1,0,0.1,0,0.2c0,0.1,0.1,0,0.1,0c-0.4,1.5-1,3-1.6,4.5
			C61.1,45.4,61,45.5,60.9,45.6z"/>
		<path fill="#9000F6" d="M39.9,1c1,0.2,2,0.5,2.9,0.9c1.7,0.6,3.3,1.4,4.9,2.3c0.1,0,0.1,0.1,0.1,0.1c-0.2,0.1-0.1,0.2-0.1,0.3
			c0,1.5,0,3,0,4.5C47.7,9,47.6,9,47.6,9c-1.5-1-3.1-1.9-4.7-2.6C41.9,6,41,5.7,40,5.3C39.9,3.9,39.9,2.4,39.9,1z"/>
		<path fill="#DB157E" d="M4.6,48.5c-0.3-0.5-0.6-1-0.9-1.6c0.1-0.1,0.1-0.2,0.1-0.3c0-9.8,0-19.5,0-29.3c0-0.1,0-0.2-0.1-0.3
			c0.2-0.5,0.5-0.9,0.8-1.4c0.1,0.1,0.1,0.2,0.1,0.3c0,0.3,0,0.7,0,1c0,3.3-0.1,6.7,0.1,10c-0.1,0.9-0.3,1.8-0.3,2.7
			c-0.2,2-0.1,4,0.2,6c0.1,0.7,0.2,1.4,0.3,2.1c-0.1,0.1-0.1,0.3-0.1,0.4c0,3.3,0,6.7,0,10C4.7,48.3,4.8,48.5,4.6,48.5z"/>
		<path fill="#8F00F6" d="M47.7,59.8c-1.1,0.7-2.3,1.2-3.5,1.7c-0.5,0.2-1,0.4-1.5,0.6c-0.1-0.1-0.1-0.2-0.1-0.3c0-1.4,0-2.7,0-4.1
			c0.6-0.3,1.1-0.5,1.7-0.8c1.2-0.6,2.3-1.2,3.4-1.9c0.1,0.1,0.1,0.2,0.1,0.3c0,1.4,0,2.8,0,4.2C47.7,59.7,47.6,59.8,47.7,59.8z"/>
		<path fill="#DE1679" d="M3.7,17.1c0.1,0.1,0.1,0.2,0.1,0.3c0,9.8,0,19.5,0,29.3c0,0.1,0,0.2-0.1,0.3c-0.3-0.5-0.5-1-0.8-1.5
			C3.1,45.3,3,45.2,3,45.1C3,36.4,3,27.7,3,19c0-0.1,0-0.2,0-0.2c0-0.1,0-0.1-0.1-0.1C3.2,18.1,3.4,17.6,3.7,17.1z"/>
		<path fill="#E01775" d="M2.9,18.7c0.1,0,0.1,0,0.1,0.1S3,19,3,19c0,8.7,0,17.4,0,26.1c0,0.1,0.1,0.3-0.1,0.3
			c-0.3-0.6-0.6-1.2-0.8-1.9c0.1-0.1,0.1-0.3,0.1-0.4c0-1.1,0-2.2,0-3.4c0-6.3,0-12.5,0-18.8c0-0.1,0-0.3-0.1-0.4
			C2.4,19.9,2.6,19.3,2.9,18.7z"/>
		<path fill="#E4186F" d="M2.1,20.5c0.1,0.1,0.1,0.3,0.1,0.4c0,6.3,0,12.5,0,18.8c0,1.1,0,2.2,0,3.4c0,0.2,0,0.3-0.1,0.4
			c-0.4-0.9-0.7-1.9-0.9-2.8c0.2,0,0.1-0.2,0.1-0.2c0-5.6,0-11.3,0-16.9c0-0.1,0-0.1,0-0.2s-0.1,0-0.1,0C1.5,22.4,1.8,21.5,2.1,20.5
			z"/>
		<path fill="#9100F4" d="M42.6,57.8c0,1.4,0,2.7,0,4.1c0,0.1,0,0.3,0.1,0.3c-1.1,0.4-2.2,0.7-3.3,1c-0.4,0.1-0.9,0.2-1.3,0.3
			c0-1.2,0-2.4,0-3.6c0-0.2,0-0.4-0.1-0.6c0.9-0.2,1.7-0.4,2.5-0.7C41.2,58.2,41.9,58,42.6,57.8z"/>
		<path fill="#8A00E2" d="M58.8,14.5c-0.1,0.1-0.1,0.3-0.1,0.4c0,2.8,0,5.7,0,8.5c0,0.1,0,0.2-0.1,0.3c-0.4-1.1-0.7-2.1-1.2-3.1
			c-0.3-0.6-0.6-1.3-0.9-1.9c0.1-0.1,0.1-0.3,0.1-0.4c0-2.1,0-4.3,0-6.4c0-0.1,0-0.3,0.1-0.3c0.6,0.7,1.2,1.5,1.7,2.3
			C58.5,14.1,58.7,14.3,58.8,14.5z"/>
		<path fill="#8700D8" d="M62.8,40.8C62.7,40.8,62.7,40.9,62.8,40.8c-0.1-0.1-0.1-0.2-0.1-0.2c0-5.7,0-11.5,0-17.2
			c0-0.1-0.1-0.2,0.1-0.2c0.6,2.2,1,4.4,1.2,6.7c0.2,2.7,0,5.3-0.4,7.9c-0.2,1-0.4,2-0.7,3C62.8,40.7,62.8,40.8,62.8,40.8z"/>
		<path fill="#9301F0" d="M38,59.2c0.1,0.2,0.1,0.4,0.1,0.6c0,1.2,0,2.4,0,3.6c-0.7,0.2-1.5,0.3-2.2,0.4c-0.4,0.1-0.9,0.1-1.4,0.1
			c-0.2,0-0.2-0.1-0.2-0.3c0-1.3,0-2.6,0-3.9C35.6,59.6,36.8,59.4,38,59.2z"/>
		<path fill="#E81969" d="M1.2,23.3C1.3,23.3,1.3,23.3,1.2,23.3c0.1,0.1,0.1,0.2,0.1,0.2c0,5.6,0,11.3,0,16.9c0,0.1,0.1,0.2-0.1,0.2
			c-0.3-1-0.5-2-0.7-2.9c-0.4-2-0.5-4.1-0.5-6.2c0-2.7,0.4-5.4,1.1-8C1.2,23.4,1.2,23.4,1.2,23.3z"/>
		<path fill="#8B00E6" d="M56.6,11.6c-0.1,0.1-0.1,0.2-0.1,0.3c0,2.1,0,4.3,0,6.4c0,0.1,0,0.3-0.1,0.4c-0.1-0.2-0.2-0.3-0.3-0.5
			c-0.6-1-1.2-2-1.9-2.9c0.1-0.3,0.1-0.5,0.1-0.8c0-1.7,0-3.4,0-5.1c0-0.1,0-0.2,0.1-0.3C55.2,9.9,55.9,10.7,56.6,11.6z"/>
		<path fill="#8C00EA" d="M54.4,9.2c-0.1,0.1-0.1,0.2-0.1,0.3c0,1.7,0,3.4,0,5.1c0,0.3,0,0.5-0.1,0.8c-0.7-0.9-1.5-1.8-2.2-2.6
			c0.1-0.2,0-0.5,0-0.7c0-1.6,0-3.2,0-4.8c0.6,0.5,1.2,1,1.8,1.5C54,8.8,54.2,9,54.4,9.2z"/>
		<path fill="#8C00EB" d="M54.2,55c-0.7,0.7-1.4,1.3-2.1,1.9C52,56.8,52,56.7,52,56.6c0-1.6,0-3.2,0-4.9c0-0.1,0-0.2-0.1-0.3
			c0.8-0.8,1.5-1.6,2.2-2.5c0.1,0.1,0.1,0.2,0.1,0.4c0,1.8,0,3.6,0,5.4C54.2,54.8,54.2,54.9,54.2,55z"/>
		<path fill="#8B00E4" d="M57.6,51.1c-0.5,0.7-1.1,1.4-1.7,2c-0.1-0.1-0.1-0.2-0.1-0.3c0-2,0-4.1,0-6.1c0-0.1,0-0.2,0-0.3
			c0.6-1,1.2-2.1,1.7-3.2c0.1,0.1,0,0.2,0,0.4c0,2.4,0,4.8,0,7.2C57.5,50.9,57.5,51.1,57.6,51.1z"/>
		<path fill="#8D00EE" d="M52.1,7.1c0,1.6,0,3.2,0,4.8c0,0.2,0,0.5,0,0.7c-0.7-0.7-1.5-1.4-2.3-2.1c0-0.1,0.1-0.3,0.1-0.4
			c0-1.5,0-2.9,0-4.4c0-0.1,0-0.2,0.1-0.3C50.6,6,51.4,6.5,52.1,7.1z"/>
		<path fill="#8D00EE" d="M52,51.4c0.1,0.1,0.1,0.2,0.1,0.3c0,1.6,0,3.2,0,4.9c0,0.1-0.1,0.2,0.1,0.3c-0.6,0.6-1.3,1-2,1.5
			c-0.1,0.1-0.2,0.1-0.3,0.2c0-0.3,0-0.6,0-0.9c0-1.4,0.1-2.8-0.1-4.2C50.5,52.8,51.2,52.1,52,51.4z"/>
		<path fill="#A306D7" d="M22.6,1.4c0.9-0.3,1.7-0.5,2.6-0.7c0,0.1,0.1,0.3,0.1,0.4c0,1.3,0,2.5,0,3.8c-0.9,0.2-1.8,0.5-2.7,0.8
			C22.6,4.3,22.6,2.9,22.6,1.4z"/>
		<path fill="#8A00E2" d="M57.6,51.1c-0.1-0.1-0.1-0.2-0.1-0.3c0-2.4,0-4.8,0-7.2c0-0.1,0-0.2,0-0.4c0.4-1.1,0.8-2.1,1.2-3.2
			c0.2,0.1,0.1,0.2,0.1,0.3c0,2.9,0,5.8,0,8.6c0,0.1,0,0.3,0.1,0.4c-0.3,0.5-0.7,1.1-1.1,1.6C57.7,51,57.7,51.1,57.6,51.1z"/>
		<path fill="#8B00E7" d="M55.8,46.4c0.1,0.1,0,0.2,0,0.3c0,2,0,4.1,0,6.1c0,0.1,0,0.3,0.1,0.3c-0.5,0.6-1.1,1.2-1.7,1.8
			c-0.1-0.1-0.1-0.2-0.1-0.4c0-1.8,0-3.6,0-5.4c0-0.1,0-0.2-0.1-0.4C54.7,48.1,55.3,47.3,55.8,46.4z"/>
		<path fill="#8E00F2" d="M49.8,53.4c0.1,1.4,0,2.8,0.1,4.2c0,0.3,0,0.6,0,0.9c-0.6,0.4-1.1,0.8-1.8,1.1c-0.1,0.1-0.2,0.1-0.3,0.2
			c-0.1-0.1-0.1-0.2-0.1-0.3c0-1.4,0-2.8,0-4.2c0-0.1,0-0.2-0.1-0.3C48.3,54.5,49.1,54,49.8,53.4z"/>
		<path fill="#9201F3" d="M39.9,1c0,1.4,0,2.9,0,4.3c-0.8-0.2-1.6-0.4-2.4-0.6c-0.1-0.1,0-0.3,0-0.4c0-1.3,0-2.5,0-3.8
			C38.3,0.6,39.1,0.8,39.9,1z"/>
		<path fill="#8E00F2" d="M49.9,5.5c-0.1,0.1-0.1,0.2-0.1,0.3c0,1.5,0,2.9,0,4.4c0,0.1,0,0.3-0.1,0.4c-0.7-0.5-1.3-1-2-1.5
			c0-1.5,0-3,0-4.5c0-0.1,0-0.3,0.1-0.3C48.6,4.6,49.3,5,49.9,5.5z"/>
		<path fill="#9E04DE" d="M25.3,5c0-1.3,0-2.5,0-3.8c0-0.1,0-0.3-0.1-0.4c0.7-0.2,1.5-0.3,2.2-0.4c0.1,0,0.2,0,0.4,0
			c-0.1,0.1-0.1,0.1-0.1,0.2c0,1.3,0,2.5,0,3.8c0,0.1,0,0.2,0.2,0.2C27,4.6,26.2,4.8,25.3,5z"/>
		<path fill="#9301F0" d="M37.5,0.5c0,1.3,0,2.5,0,3.8c0,0.1-0.1,0.3,0,0.4c-0.8-0.1-1.6-0.2-2.4-0.4L35,4.2c0-1.4,0-2.7,0-4.1
			C35.9,0.2,36.7,0.3,37.5,0.5z"/>
		<path fill="#CB1196" d="M9.1,54.3c-0.5-0.5-1-1-1.5-1.6c0.1-0.1,0.1-0.2,0.1-0.3c0-2.1,0-4.2,0-6.3c0-0.1,0-0.2,0.1-0.4
			c0.5,0.7,0.9,1.5,1.4,2.2c-0.1,0.4-0.1,0.8-0.1,1.2c0,1.6,0,3.3,0,4.9C9.2,54.1,9.2,54.2,9.1,54.3z"/>
		<path fill="#D41488" d="M5.3,14.4c0.3-0.5,0.7-1,1-1.5c0.1,0.1,0.1,0.3,0.1,0.4c0,2.4,0,4.8,0,7.2c0,0.1,0,0.3,0.1,0.4
			c-0.3,0.9-0.7,1.7-1,2.6c-0.1-0.2-0.1-0.4-0.1-0.6c0-2.7,0-5.5,0-8.2C5.4,14.6,5.4,14.4,5.3,14.4z"/>
		<path fill="#D0128F" d="M7.8,45.7c-0.1,0.1-0.1,0.2-0.1,0.4c0,2.1,0,4.2,0,6.3c0,0.1,0,0.3-0.1,0.3c-0.4-0.5-0.8-1-1.2-1.5
			c0.2,0,0.1-0.2,0.1-0.3c0-2.4,0-4.7,0-7.1c0-0.1,0-0.3,0.1-0.4C7,44.2,7.4,45,7.8,45.7z"/>
		<path fill="#9E04DE" d="M27.7,63.7c-0.7-0.1-1.4-0.2-2.1-0.4c0-1.4,0-2.8,0-4.2c0.7,0.1,1.4,0.3,2.2,0.4c-0.1,0.1-0.1,0.2-0.1,0.3
			c0,1.1,0,2.3,0,3.4C27.7,63.4,27.6,63.5,27.7,63.7z"/>
		<path fill="#D81483" d="M5.3,14.4c0.1,0.1,0.1,0.2,0.1,0.3c0,2.7,0,5.5,0,8.2c0,0.2,0,0.4,0.1,0.6c-0.1,0.2-0.1,0.5-0.2,0.7
			C5,25.1,4.8,26.1,4.6,27c-0.1-3.3,0-6.7-0.1-10c0-0.3,0-0.7,0-1c0-0.1,0-0.2-0.1-0.3C4.7,15.2,5,14.8,5.3,14.4z"/>
		<path fill="#C6109E" d="M9.1,54.3c0.1-0.1,0-0.2,0-0.3c0-1.6,0-3.3,0-4.9c0-0.4,0-0.8,0.1-1.2c0.5,0.6,0.9,1.2,1.4,1.8
			c-0.1,0.3-0.1,0.5-0.1,0.8c0,1.7,0,3.4,0,5.1C10.1,55.3,9.6,54.8,9.1,54.3z"/>
		<path fill="#C20EA5" d="M10.6,55.7c0-1.7,0-3.4,0-5.1c0-0.3,0-0.5,0.1-0.8c0.5,0.5,1,1.1,1.5,1.6c0,1.7,0,3.4,0,5.2
			c0,0.1,0,0.2-0.1,0.4C11.5,56.6,11,56.2,10.6,55.7z"/>
		<path fill="#D41389" d="M6.6,43.4c0,0.1-0.1,0.3-0.1,0.4c0,2.4,0,4.7,0,7.1c0,0.1,0.1,0.3-0.1,0.3c-0.3-0.4-0.7-0.9-1-1.4
			c0.2-0.1,0.1-0.2,0.1-0.3c0-2.5,0-5,0-7.4c0-0.4,0-0.8,0.1-1.2C5.9,41.7,6.3,42.5,6.6,43.4z"/>
		<path fill="#D71484" d="M5.6,40.9c-0.1,0.4-0.1,0.8-0.1,1.2c0,2.5,0,5,0,7.4c0,0.1,0.1,0.2-0.1,0.3c-0.3-0.4-0.6-0.9-0.8-1.3
			c0.2-0.1,0.1-0.2,0.1-0.3c0-3.3,0-6.7,0-10c0-0.1,0-0.3,0.1-0.4c0,0.2,0.1,0.3,0.1,0.5C5.1,39.1,5.4,40,5.6,40.9z"/>
		<path fill="#D0128E" d="M6.5,20.9c0-0.1-0.1-0.3-0.1-0.4c0-2.4,0-4.8,0-7.2c0-0.1,0-0.3-0.1-0.4c0.3-0.5,0.7-0.9,1-1.3
			c0.2,0,0.1,0.2,0.1,0.3c0,2.2,0,4.3,0,6.5c0,0.1,0,0.2,0.1,0.4C7.2,19.4,6.8,20.1,6.5,20.9z"/>
		<path fill="#A205D8" d="M25.6,59.1c0,1.4,0,2.8,0,4.2c-0.6-0.1-1.2-0.3-1.8-0.4c-0.1-0.1,0-0.2,0-0.3c0-1.3,0-2.7,0-4
			C24.4,58.8,25,58.9,25.6,59.1z"/>
		<path fill="#B20ABE" d="M16.2,4.2c0.5-0.3,1.1-0.6,1.7-0.9C18,3.4,18,3.5,18,3.6c0,1.3,0,2.7,0,4c0,0.1,0,0.2,0.1,0.3
			c-0.6,0.4-1.2,0.7-1.7,1.1c0-1.5,0-3,0-4.5C16.3,4.4,16.3,4.3,16.2,4.2z"/>
		<path fill="#A807CF" d="M22.6,1.4c0,1.5,0,2.9,0,4.4C22,6,21.5,6.2,20.9,6.5c-0.2,0-0.1-0.2-0.1-0.3c0-1.3,0-2.5,0-3.8
			c0-0.1,0-0.2-0.1-0.4C21.4,1.8,22,1.6,22.6,1.4z"/>
		<path fill="#9602EC" d="M34.3,59.7c0,1.3,0,2.6,0,3.9c0,0.1,0,0.3,0.2,0.3C33.8,64,33.1,64,32.4,64c0-1.4,0-2.8,0-4.1
			C33.1,59.8,33.7,59.8,34.3,59.7z"/>
		<path fill="#AD09C6" d="M18,7.9c-0.1,0,0-0.2,0-0.3c0-1.3,0-2.7,0-4c0-0.1,0-0.2-0.1-0.4c0.6-0.3,1.2-0.6,1.8-0.8
			c-0.1,0.1-0.1,0.2-0.1,0.3c0,1.3,0,2.7,0,4c0,0.1,0,0.2,0.1,0.2C19.1,7.3,18.6,7.6,18,7.9z"/>
		<path fill="#BE0DAC" d="M12,57c0.1-0.1,0.1-0.2,0.1-0.4c0-1.7,0-3.4,0-5.2c0.5,0.5,0.9,0.9,1.4,1.3c-0.1,0.1-0.1,0.3-0.1,0.4
			c0,1.6,0,3.3,0,4.9C13,57.7,12.5,57.4,12,57z"/>
		<path fill="#C30FA4" d="M10.5,8.4c0.4-0.4,0.8-0.8,1.3-1.1c0,1.7,0,3.5,0,5.2c0,0.1,0,0.2,0.1,0.3c-0.4,0.5-0.9,1-1.3,1.5
			c0-0.9,0-1.7,0-2.6C10.5,10.6,10.6,9.5,10.5,8.4z"/>
		<path fill="#9B03E3" d="M27.7,63.7c-0.1-0.2,0-0.3,0-0.5c0-1.1,0-2.3,0-3.4c0-0.1,0-0.2,0.1-0.3c0.1,0,0.2,0,0.4,0.1
			c0.4,0,0.9,0.1,1.3,0.2c-0.1,0.1-0.1,0.2-0.1,0.3c0,1.3,0,2.6,0,3.9C28.8,63.9,28.3,63.8,27.7,63.7z"/>
		<path fill="#9B03E3" d="M27.9,4.5c-0.1,0-0.2-0.1-0.2-0.2c0-1.3,0-2.5,0-3.8c0-0.1,0-0.1,0.1-0.2c0.5-0.1,1-0.1,1.6-0.2
			c0,1.3,0,2.6,0,3.9c0,0.1,0,0.3,0.2,0.3C29,4.3,28.4,4.4,27.9,4.5z"/>
		<path fill="#BF0DAB" d="M11.8,12.8c-0.1-0.1-0.1-0.2-0.1-0.3c0-1.7,0-3.5,0-5.2c0.4-0.3,0.8-0.7,1.2-0.9C13,6.4,13,6.5,13,6.6
			c0,1.5,0,3,0,4.6c0,0.1,0,0.3,0.1,0.4C12.6,12,12.2,12.4,11.8,12.8z"/>
		<path fill="#C91099" d="M8.4,10.5c0.3-0.4,0.6-0.8,1-1.1c0.1,0.1,0.1,0.2,0.1,0.4c0,1.8,0,3.7,0,5.5c0,0.1,0,0.2,0.1,0.4
			c-0.3,0.5-0.7,1-1,1.5c-0.1-0.1-0.1-0.3-0.1-0.5c0-2,0-3.9,0-5.9C8.4,10.7,8.5,10.6,8.4,10.5z"/>
		<path fill="#CD1294" d="M8.4,10.5c0.1,0.1,0.1,0.2,0.1,0.3c0,2,0,3.9,0,5.9c0,0.2,0,0.3,0.1,0.5c-0.3,0.5-0.6,1.1-0.9,1.6
			c-0.1-0.1-0.1-0.2-0.1-0.4c0-2.2,0-4.3,0-6.5c0-0.1,0.1-0.2-0.1-0.3C7.7,11.2,8,10.8,8.4,10.5z"/>
		<path fill="#BA0CB2" d="M13.5,58.1c0-1.6,0-3.3,0-4.9c0-0.1,0-0.3,0.1-0.4c0.4,0.4,0.8,0.7,1.3,1.1c-0.1,0.1-0.1,0.2-0.1,0.4
			c0,1.6,0,3.1,0,4.7C14.3,58.6,13.9,58.4,13.5,58.1z"/>
		<path fill="#9702E9" d="M32.4,59.8c0,1.4,0,2.8,0,4.1c-0.5,0-1,0-1.6,0c0-1.1,0-2.3,0-3.4c0-0.2-0.1-0.5,0.1-0.7
			c0.1-0.1,0.5,0,0.7,0C31.9,59.8,32.1,59.8,32.4,59.8z"/>
		<path fill="#C6109E" d="M9.5,15.6c-0.1-0.1-0.1-0.2-0.1-0.4c0-1.8,0-3.7,0-5.5c0-0.1,0-0.2-0.1-0.4c0.3-0.3,0.7-0.7,1-1
			c0.1,1.1,0,2.2,0.1,3.4c0,0.9,0,1.7,0,2.6C10.2,14.7,9.9,15.2,9.5,15.6z"/>
		<path fill="#A506D4" d="M23.7,58.6c0,1.3,0,2.7,0,4c0,0.1,0,0.2,0,0.3c-0.5-0.1-1-0.3-1.5-0.4c0-1.3,0-2.7,0-4
			c0-0.1,0-0.2,0.1-0.4C22.8,58.3,23.3,58.4,23.7,58.6z"/>
		<path fill="#B70BB7" d="M14.7,58.9c0-1.6,0-3.1,0-4.7c0-0.1,0-0.2,0.1-0.4c0.4,0.3,0.8,0.6,1.3,0.9C16,54.9,16,55,16,55.2
			c0,1.5,0,3,0,4.5C15.5,59.4,15.1,59.2,14.7,58.9z"/>
		<path fill="#B60BB9" d="M16.2,4.2c0.1,0.1,0.1,0.3,0.1,0.4c0,1.5,0,3,0,4.5c-0.4,0.3-0.8,0.6-1.2,0.9c-0.1-0.1,0-0.2,0-0.3
			c0-1.4,0-2.8,0-4.2c0-0.2,0-0.3-0.1-0.4C15.4,4.7,15.8,4.4,16.2,4.2z"/>
		<path fill="#9903E6" d="M31.6,59.8c-0.2,0-0.5-0.1-0.7,0c-0.2,0.2-0.1,0.5-0.1,0.7c0,1.1,0,2.3,0,3.4c-0.5,0-1,0-1.5-0.1
			c0-1.3,0-2.6,0-3.9c0-0.1,0-0.2,0.1-0.3C30.2,59.8,30.9,59.8,31.6,59.8z"/>
		<path fill="#B30ABD" d="M16,59.7c0-1.5,0-3,0-4.5c0-0.1,0-0.3,0.1-0.4c0.4,0.3,0.8,0.5,1.2,0.8c0,1.5,0,2.9,0,4.4
			c0,0.1,0,0.3-0.1,0.4C16.8,60.1,16.4,59.9,16,59.7z"/>
		<path fill="#AD08C7" d="M19.7,61.5c-0.4-0.2-0.9-0.4-1.3-0.6c0-1.4,0-2.8,0-4.2c0-0.1,0-0.3,0.1-0.4c0.4,0.2,0.9,0.5,1.3,0.7
			c-0.1,0.1-0.1,0.2-0.1,0.3C19.7,58.7,19.7,60.1,19.7,61.5z"/>
		<path fill="#A807CF" d="M22.3,58.1c-0.1,0.1-0.1,0.2-0.1,0.4c0,1.3,0,2.7,0,4c-0.5-0.1-0.9-0.3-1.4-0.5c0.1-0.1,0.1-0.2,0.1-0.3
			c0-1.3,0-2.5,0-3.8c0-0.1,0-0.2,0.1-0.3C21.5,57.8,21.9,57.9,22.3,58.1z"/>
		<path fill="#AA08CB" d="M21,57.6c-0.1,0.1-0.1,0.2-0.1,0.3c0,1.3,0,2.5,0,3.8c0,0.1,0,0.2-0.1,0.3c-0.4-0.1-0.8-0.3-1.2-0.5
			c0-1.4,0-2.8,0-4.2c0-0.1-0.1-0.2,0.1-0.3C20.2,57.2,20.6,57.4,21,57.6z"/>
		<path fill="#B009C2" d="M18.5,56.3c-0.1,0.1-0.1,0.2-0.1,0.4c0,1.4,0,2.8,0,4.2c-0.4-0.2-0.8-0.4-1.2-0.6c0-0.1,0.1-0.3,0.1-0.4
			c0-1.5,0-2.9,0-4.4C17.7,55.8,18.1,56.1,18.5,56.3z"/>
		<path fill="#AB08CB" d="M19.7,7c-0.1-0.1-0.1-0.2-0.1-0.2c0-1.3,0-2.7,0-4c0-0.1,0-0.2,0.1-0.3C20,2.3,20.4,2.2,20.8,2
			c0.1,0.1,0.1,0.2,0.1,0.4c0,1.3,0,2.5,0,3.8c0,0.1-0.1,0.2,0.1,0.3C20.5,6.6,20.1,6.8,19.7,7z"/>
		<path fill="#B90CB4" d="M15,4.9c0,0.2,0,0.3,0,0.5c0,1.4,0,2.8,0,4.2c0,0.1,0,0.2,0,0.3c-0.3,0.3-0.6,0.5-1,0.8
			c-0.2,0-0.1-0.2-0.1-0.3C14,9,14,7.5,14,6c0-0.1,0-0.3-0.1-0.4C14.3,5.4,14.6,5.1,15,4.9z"/>
		<path fill="#BC0DAF" d="M13.9,5.6C14,5.8,14,5.9,14,6c0,1.5,0,2.9,0,4.4c0,0.1-0.1,0.2,0.1,0.3c-0.4,0.3-0.7,0.6-1.1,0.9
			c0-0.1-0.1-0.3-0.1-0.4c0-1.5,0-3,0-4.6c0-0.1,0-0.2-0.1-0.3C13.2,6.1,13.6,5.8,13.9,5.6z"/>
		<path fill="#FFFFFF" d="M25,34.1c0,2.1,0.3,4,1,5.8c0.5,1.1,1.2,2.2,2,3.1c0.5,0.6,0.5,1.2-0.2,1.7c-1.4,1-2.8,2.1-4.2,3.1
			c-1.2,0.9-2.5,1.8-3.7,2.7c-0.4,0.3-0.8,0.3-1.3,0.1c-0.5-0.3-0.8-0.8-0.6-1.4c0.6-1.8,1.2-3.7,1.8-5.5c1.1-3.4,2.2-6.7,3.3-10.1
			c0.1-0.4,0.2-0.8,0.4-1.1c0.2-0.3,0.5-0.4,0.8-0.3c0.3,0.1,0.5,0.3,0.6,0.6C25.1,33.2,25,33.8,25,34.1z"/>
		<path fill="#FFFFFF" d="M38.5,26.8c0,0.4-0.1,0.6-0.4,0.7c-0.3,0.1-0.6,0.1-0.8-0.1c-0.1-0.1-0.2-0.2-0.3-0.3
			c-0.9-1.4-1.9-2.7-3.2-3.8c-1.5-1.3-3.1-2.1-5-2.4c-0.7-0.1-1-0.8-0.9-1.4c0.6-1.8,1.1-3.6,1.7-5.4c0.4-1.3,0.8-2.6,1.3-3.9
			c0.2-0.6,0.6-0.9,1.2-0.9c0.5,0,0.9,0.3,1.1,0.9c0.7,2.1,1.3,4.2,2,6.2c1.1,3.3,2.1,6.6,3.1,9.8C38.4,26.4,38.5,26.6,38.5,26.8z"
			/>
		<path fill="#FFFFFF" d="M45.9,49.5c0,0.5-0.3,0.9-0.7,1.1c-0.4,0.2-0.9,0.2-1.2-0.1c-2.4-1.8-4.8-3.5-7.2-5.3
			c-2.2-1.6-4.4-3.2-6.5-4.8c-0.1-0.1-0.3-0.2-0.4-0.3c-0.2-0.3-0.3-0.6-0.1-0.8c0.2-0.3,0.5-0.4,0.8-0.3c0.6,0.2,1.1,0.4,1.7,0.6
			c1.6,0.5,3.3,0.8,5,0.8c1.4-0.1,2.8-0.4,4-1.1c0.6-0.3,1.3,0.1,1.5,0.6c0.1,0.2,0.1,0.3,0.2,0.5c1,2.9,1.9,5.8,2.9,8.8
			C45.9,49.2,45.9,49.3,45.9,49.5z"/>
		<path fill="#FFFFFF" d="M20.2,24.1c1.7,0,3.5,0,5.2,0c1.1,0,2.3,0,3.4,0c0.1,0,0.2,0,0.3,0c0.4,0.1,0.6,0.3,0.6,0.6
			c0,0.3-0.1,0.6-0.5,0.7c-0.7,0.2-1.5,0.4-2.2,0.7c-1.7,0.6-3.2,1.5-4.5,2.7c-0.8,0.8-1.5,1.7-2,2.6c-0.4,0.7-1,0.8-1.7,0.4
			c-1.8-1.3-3.5-2.5-5.3-3.8c-0.9-0.6-1.8-1.3-2.7-1.9c-0.4-0.3-0.6-0.7-0.5-1.2s0.3-0.8,0.8-0.9c0.2-0.1,0.4-0.1,0.5-0.1
			C14.5,24.1,17.3,24.1,20.2,24.1L20.2,24.1z"/>
		<path fill="#FFFFFF" d="M47.7,24.2c1.6,0,3.2,0,4.9,0c0.8,0,1.3,0.6,1.2,1.4c-0.1,0.3-0.3,0.6-0.5,0.8c-1.9,1.4-3.9,2.8-5.8,4.2
			c-2.6,1.9-5.2,3.7-7.9,5.6c-0.2,0.1-0.4,0.3-0.6,0.4c-0.3,0.1-0.6,0.1-0.8-0.2c-0.2-0.2-0.2-0.5-0.1-0.8c0.2-0.3,0.4-0.5,0.6-0.7
			c1.3-1.6,2.3-3.3,2.8-5.3c0.4-1.3,0.4-2.7,0.3-4.1c-0.1-0.7,0.3-1.2,1.1-1.2c0.3,0,0.6,0,0.9,0C45,24.2,46.3,24.2,47.7,24.2z"/>
	</g>
</g>
</svg>
