<?xml version="1.0" encoding="utf-8"?>
<!-- Generator: Adobe Illustrator 23.0.2, SVG Export Plug-In . SVG Version: 6.00 Build 0)  -->
<svg version="1.1" id="Layer_1" xmlns="http://www.w3.org/2000/svg" xmlns:xlink="http://www.w3.org/1999/xlink" x="0px" y="0px"
	 width="64px" height="64px" viewBox="0 0 64 64" enable-background="new 0 0 64 64" xml:space="preserve">
<g>
	<path fill="#020000" stroke="#020000" stroke-width="0.0938" d="M29.087,0.133c4.374-0.387,8.82,0.086,12.978,1.477
		c8.275,2.71,15.287,8.963,18.944,16.865c2.768,5.865,3.628,12.591,2.524,18.973c-0.832,4.847-2.811,9.494-5.736,13.466
		c-3.184,4.345-7.486,7.873-12.376,10.139c-5.794,2.71-12.419,3.556-18.729,2.51c-7.529-1.233-14.527-5.306-19.36-11.186
		C3.89,48.217,1.51,43.184,0.535,37.878C-0.44,32.6-0.082,27.065,1.61,21.974c1.606-4.833,4.374-9.25,8.002-12.792
		C14.804,4.034,21.816,0.779,29.087,0.133 M29.245,2.729C23.537,3.245,18.016,5.497,13.57,9.111c-4.23,3.413-7.5,8.002-9.293,13.122
		C2.499,27.28,2.141,32.801,3.231,38.036c1.033,4.962,3.384,9.623,6.74,13.409c3.069,3.485,6.984,6.238,11.3,7.93
		c4.073,1.606,8.518,2.266,12.892,1.95c5.406-0.373,10.698-2.323,15.072-5.507c4.503-3.27,8.074-7.816,10.11-12.993
		c2.653-6.625,2.739-14.226,0.272-20.923c-1.276-3.499-3.227-6.74-5.722-9.494c-3.556-3.972-8.203-6.97-13.308-8.518
		C36.946,2.743,33.059,2.37,29.245,2.729z"/>
	<path fill="#FFFFFF" stroke="#FFFFFF" stroke-width="0.0938" d="M29.245,2.729c3.815-0.359,7.701,0.029,11.372,1.147
		c5.105,1.549,9.752,4.546,13.308,8.518c2.481,2.768,4.446,6.009,5.722,9.494c2.467,6.697,2.381,14.298-0.272,20.923
		c-2.036,5.177-5.607,9.737-10.11,12.993c-4.388,3.198-9.666,5.134-15.072,5.507c-4.374,0.33-8.819-0.33-12.892-1.95
		c-4.331-1.692-8.232-4.446-11.3-7.93c-3.356-3.786-5.708-8.461-6.74-13.409c-1.09-5.234-0.746-10.77,1.047-15.803
		C6.07,17.113,9.34,12.524,13.57,9.111C18.016,5.497,23.537,3.245,29.245,2.729 M29.532,7.447
		c-6.912,0.66-13.409,4.431-17.467,10.053c-2.969,4.058-4.661,9.049-4.718,14.083c-0.1,4.417,1.047,8.848,3.255,12.663
		c2.18,3.8,5.378,6.998,9.178,9.178c3.829,2.208,8.26,3.356,12.677,3.255c6.324-0.072,12.562-2.739,17.008-7.242
		c4.632-4.575,7.328-11.057,7.228-17.582c0.014-4.503-1.305-8.992-3.671-12.821c-2.71-4.374-6.797-7.873-11.544-9.838
		C37.706,7.633,33.561,7.045,29.532,7.447z"/>
	<path fill="#020000" stroke="#020000" stroke-width="0.0938" d="M29.532,7.447c4.044-0.402,8.189,0.186,11.931,1.764
		c4.747,1.965,8.848,5.464,11.544,9.838c2.366,3.829,3.686,8.318,3.671,12.821c0.1,6.511-2.596,13.007-7.228,17.582
		c-4.446,4.503-10.684,7.17-17.008,7.242c-4.417,0.1-8.848-1.047-12.677-3.255c-3.8-2.18-6.998-5.378-9.178-9.178
		c-2.194-3.829-3.356-8.26-3.255-12.663c0.057-5.034,1.75-10.024,4.718-14.083C16.123,11.878,22.619,8.107,29.532,7.447
		 M29.302,19.221c0.932-0.631,1.807-1.305,2.725-1.95c0.918,0.645,1.793,1.334,2.725,1.95c-0.903-2.782-1.793-5.564-2.71-8.332
		C31.08,13.656,30.206,16.453,29.302,19.221 M11.807,25.559c2.366,1.721,4.732,3.47,7.127,5.177
		c-0.33-1.061-0.688-2.122-1.033-3.198c0.903-0.66,1.821-1.319,2.725-1.993C17.686,25.545,14.746,25.559,11.807,25.559
		 M43.428,25.559c0.903,0.66,1.807,1.319,2.71,1.979c-0.344,1.061-0.703,2.122-1.033,3.184c2.381-1.707,4.732-3.456,7.113-5.163
		C49.307,25.559,46.367,25.545,43.428,25.559 M22.247,40.947c-0.903,2.782-1.836,5.579-2.71,8.375
		c2.366-1.735,4.775-3.442,7.127-5.191c-1.119-0.014-2.237-0.014-3.356,0C22.935,43.069,22.634,41.994,22.247,40.947 M41.75,41.004
		c-0.344,1.033-0.674,2.079-1.018,3.112c-1.119,0.014-2.237-0.014-3.37,0.014c2.352,1.75,4.732,3.456,7.127,5.177
		c-0.789-2.452-1.592-4.89-2.381-7.342C42.008,41.649,41.936,41.291,41.75,41.004z"/>
	<path fill="#E21872" stroke="#DE1B68" stroke-width="0.0938" d="M29.302,19.221c0.903-2.782,1.778-5.564,2.725-8.332
		c0.932,2.768,1.807,5.55,2.71,8.332c-0.918-0.631-1.807-1.305-2.725-1.95C31.109,17.916,30.22,18.604,29.302,19.221z"/>
	<path fill="#D41581" stroke="#DE1B68" stroke-width="0.0938" d="M11.807,25.559c2.94,0,5.88-0.014,8.805,0
		c-0.903,0.674-1.821,1.319-2.725,1.993c0.344,1.061,0.703,2.122,1.033,3.198C16.539,29.03,14.173,27.28,11.807,25.559z"/>
	
		<linearGradient id="SVGID_1_" gradientUnits="userSpaceOnUse" x1="43.4277" y1="37.5615" x2="52.2328" y2="37.5615" gradientTransform="matrix(1 0 0 -1 0 65.7)">
		<stop  offset="0" style="stop-color:#E22153"/>
		<stop  offset="1" style="stop-color:#D52A2C"/>
	</linearGradient>
	<path fill="url(#SVGID_1_)" stroke="#DE1B68" stroke-width="0.0938" d="M43.428,25.559c2.94-0.014,5.865,0.014,8.805,0
		c-2.381,1.707-4.747,3.442-7.113,5.163c0.33-1.061,0.688-2.122,1.033-3.184C45.249,26.864,44.331,26.219,43.428,25.559z"/>
	
		<linearGradient id="SVGID_2_" gradientUnits="userSpaceOnUse" x1="19.5312" y1="20.573" x2="26.6585" y2="20.573" gradientTransform="matrix(1 0 0 -1 0 65.7)">
		<stop  offset="0" style="stop-color:#E11678"/>
		<stop  offset="1" style="stop-color:#E01380"/>
	</linearGradient>
	<path fill="url(#SVGID_2_)" stroke="#DE1B68" stroke-width="0.0938" d="M22.247,40.947c0.387,1.047,0.688,2.108,1.047,3.169
		c1.119,0,2.237-0.014,3.356,0c-2.352,1.764-4.747,3.456-7.127,5.191C20.411,46.525,21.329,43.743,22.247,40.947z"/>
	
		<linearGradient id="SVGID_3_" gradientUnits="userSpaceOnUse" x1="39.2575" y1="18.3105" x2="43.8934" y2="20.987" gradientTransform="matrix(1 0 0 -1 0 65.7)">
		<stop  offset="0" style="stop-color:#E21C68"/>
		<stop  offset="1" style="stop-color:#E21F54"/>
	</linearGradient>
	<path fill="url(#SVGID_3_)" stroke="#DE1B68" stroke-width="0.0938" d="M41.75,41.004c0.186,0.287,0.258,0.631,0.373,0.961
		c0.789,2.452,1.592,4.89,2.381,7.342c-2.381-1.721-4.761-3.427-7.127-5.177c1.119-0.014,2.237,0,3.37-0.014
		C41.076,43.084,41.406,42.051,41.75,41.004z"/>
</g>
</svg>
