<?xml version="1.0" encoding="UTF-8" ?>
<!DOCTYPE svg PUBLIC "-//W3C//DTD SVG 1.1//EN" "http://www.w3.org/Graphics/SVG/1.1/DTD/svg11.dtd">
<svg width="64" height="64" viewBox="0 0 1000 365" version="1.1" xmlns="http://www.w3.org/2000/svg">
<g id="#ffffffff">
<path fill="#ffffff" opacity="1.00" d=" M 70.11 0.00 L 199.32 0.00 C 207.86 0.80 216.44 0.37 225.00 0.45 C 249.02 0.43 273.04 0.53 297.05 0.39 C 300.19 0.38 303.64 0.65 306.06 2.92 C 310.61 6.94 313.43 12.67 314.83 18.51 C 315.72 21.86 314.60 25.25 313.72 28.47 C 311.46 35.98 308.91 43.40 306.99 51.01 C 305.16 58.43 302.18 65.50 300.10 72.85 C 295.74 88.35 290.50 103.59 286.20 119.10 C 283.82 128.86 280.50 138.36 277.68 148.00 C 274.66 158.25 271.35 168.42 268.40 178.69 C 266.09 186.69 262.90 194.41 260.73 202.45 C 259.90 205.24 259.20 208.11 257.81 210.69 C 256.72 212.66 254.65 213.77 252.80 214.91 C 218.71 233.79 184.81 253.00 150.78 271.98 C 145.07 275.13 139.50 278.54 133.60 281.31 C 132.16 275.76 132.07 270.00 131.29 264.34 C 129.13 248.70 128.02 232.93 125.97 217.27 C 125.59 213.86 124.99 210.35 125.79 206.96 C 127.78 204.73 130.53 203.40 133.08 201.94 C 139.33 198.61 145.38 194.93 151.54 191.44 C 164.69 183.89 178.05 176.70 191.12 169.00 C 193.13 167.86 194.97 166.23 195.60 163.91 C 199.97 151.05 202.81 137.73 207.17 124.86 C 213.16 107.41 218.69 89.77 223.01 71.82 C 211.69 71.00 200.33 71.64 189.00 71.45 C 181.29 71.55 173.58 71.12 165.89 71.69 C 164.10 78.30 162.68 85.03 160.21 91.43 C 155.88 103.03 152.88 115.06 149.16 126.85 C 145.64 139.93 141.71 152.90 137.55 165.79 C 136.00 170.61 134.86 175.56 133.02 180.28 C 132.14 182.86 129.62 184.20 127.53 185.67 C 123.15 188.51 118.99 191.67 114.81 194.79 C 113.07 196.15 111.24 197.48 109.95 199.31 C 109.39 201.08 109.62 202.98 109.74 204.80 C 111.05 215.95 112.19 227.11 113.42 238.26 C 114.25 244.77 111.60 250.93 109.74 257.01 C 102.38 280.73 95.28 304.53 87.98 328.26 C 85.87 334.90 83.31 341.39 81.38 348.09 C 79.67 353.83 78.17 359.71 75.26 365.00 L 0.71 365.00 C 1.42 357.28 4.77 350.20 6.45 342.71 C 8.71 333.15 12.09 323.92 14.77 314.49 C 32.14 257.56 49.58 200.65 67.00 143.74 C 69.51 134.40 73.15 125.42 75.89 116.16 C 81.11 99.03 86.28 81.90 91.61 64.81 C 92.72 61.02 94.07 57.28 94.59 53.35 C 95.03 50.64 93.61 48.15 92.47 45.80 C 90.00 41.13 87.55 36.44 85.52 31.56 C 81.14 20.67 74.08 11.08 70.11 0.00 Z" />
<path fill="#ffffff" opacity="1.00" d=" M 539.83 0.00 L 642.34 0.00 C 646.21 0.27 650.09 0.53 653.99 0.49 C 672.99 0.40 691.99 0.51 711.00 0.44 C 714.98 0.45 718.99 0.16 722.95 0.69 C 726.28 1.20 728.93 3.58 730.93 6.14 C 733.90 10.05 736.12 14.67 736.65 19.58 C 737.13 24.41 735.27 29.02 733.88 33.54 C 731.18 41.61 729.53 49.97 726.81 58.03 C 716.31 92.61 705.70 127.15 695.39 161.79 C 690.26 159.11 686.18 154.97 681.75 151.34 C 667.70 140.07 654.31 128.00 640.14 116.87 C 638.30 115.34 636.30 113.84 635.06 111.75 C 634.74 110.41 635.08 109.04 635.30 107.71 C 637.95 95.39 642.82 83.70 645.86 71.48 C 628.71 71.45 611.56 71.31 594.41 71.55 C 591.93 77.49 590.55 83.79 588.62 89.91 C 581.40 113.08 574.50 136.36 567.24 159.52 C 564.57 166.82 562.27 174.24 560.40 181.79 C 552.43 207.78 544.38 233.75 536.55 259.79 C 533.40 271.13 528.78 282.02 526.15 293.52 C 543.34 293.58 560.53 293.62 577.73 293.50 C 584.31 273.73 589.39 253.47 596.54 233.89 C 598.22 228.76 599.56 223.50 601.92 218.62 C 607.71 222.93 613.10 227.76 618.75 232.27 C 629.91 242.11 641.35 251.62 652.80 261.13 C 655.89 263.58 658.79 266.27 661.65 269.00 C 660.10 277.27 657.61 285.32 655.09 293.34 C 649.84 310.41 644.59 327.48 639.23 344.51 C 637.02 351.03 635.28 357.71 632.76 364.13 C 625.52 364.78 618.25 364.35 611.00 364.44 C 546.00 364.52 481.00 364.58 416.00 364.54 C 400.06 364.51 384.11 364.64 368.18 364.31 C 368.67 353.99 370.01 343.73 370.82 333.44 C 371.26 329.80 369.61 326.43 367.90 323.35 C 363.41 314.87 357.97 306.95 353.15 298.66 C 347.51 289.64 342.23 280.41 336.52 271.44 C 331.85 264.09 327.88 256.29 322.75 249.23 C 321.05 246.95 319.88 244.34 318.89 241.69 C 330.53 240.06 342.28 240.44 354.00 240.45 C 365.00 240.26 376.02 240.84 387.01 240.17 C 392.63 199.82 398.86 159.56 404.57 119.22 C 405.75 111.50 407.64 103.87 407.87 96.03 C 405.66 100.39 403.51 104.80 401.53 109.28 C 385.39 143.60 369.60 178.09 353.65 212.50 C 351.04 217.74 348.99 223.24 346.04 228.31 C 328.05 228.69 310.04 228.27 292.04 228.47 C 293.79 232.16 295.73 235.77 297.89 239.24 C 305.36 251.80 312.54 264.54 320.09 277.05 C 320.83 278.37 321.59 279.69 322.03 281.14 C 321.95 283.70 320.48 285.96 319.42 288.22 C 314.77 296.79 311.27 305.91 306.69 314.51 C 302.25 322.91 298.76 331.76 294.35 340.18 C 290.13 347.97 287.15 356.36 282.84 364.11 C 278.24 364.49 273.61 364.60 269.00 364.46 C 253.00 364.42 237.00 364.46 221.00 364.44 C 214.19 364.39 207.36 364.71 200.56 364.16 C 201.67 360.94 202.98 357.80 204.59 354.80 C 207.43 349.49 209.59 343.86 212.31 338.49 C 214.66 333.81 217.01 329.12 219.10 324.32 C 222.31 317.00 226.28 310.05 229.47 302.73 C 232.93 294.68 237.29 287.06 240.78 279.02 C 244.18 271.22 248.41 263.82 251.78 256.02 C 255.07 248.45 259.17 241.28 262.47 233.72 C 265.93 225.68 270.30 218.06 273.79 210.02 C 277.18 202.22 281.41 194.82 284.79 187.02 C 288.37 178.77 292.86 170.96 296.47 162.72 C 299.75 155.13 303.82 147.92 307.14 140.34 C 310.41 132.77 314.51 125.59 317.79 118.02 C 321.18 110.22 325.42 102.82 328.78 95.01 C 331.88 87.90 335.71 81.14 338.79 74.02 C 341.88 66.90 345.72 60.14 348.79 53.02 C 351.76 46.13 355.47 39.60 358.47 32.72 C 361.76 25.10 365.89 17.88 369.05 10.20 C 370.37 6.89 372.15 3.78 373.98 0.72 C 378.98 0.50 383.99 0.34 389.00 0.45 C 420.33 0.46 451.67 0.45 483.00 0.46 C 488.48 0.40 493.97 0.31 499.44 0.73 C 499.32 7.47 497.75 14.06 497.07 20.74 C 496.16 28.97 495.32 37.21 494.04 45.39 C 486.81 98.85 479.55 152.30 472.38 205.77 C 471.26 213.50 469.67 221.18 469.17 228.99 C 473.59 216.06 477.61 202.99 481.03 189.76 C 492.30 153.28 503.39 116.75 514.57 80.25 C 517.34 71.78 519.48 63.11 522.60 54.76 C 524.24 50.32 525.59 45.78 526.97 41.26 C 529.93 31.39 533.19 21.61 535.78 11.64 C 536.78 7.64 538.16 3.76 539.83 0.00 M 468.14 230.51 C 467.17 231.63 467.42 232.26 468.89 232.41 C 469.84 231.28 469.59 230.65 468.14 230.51 Z" />
<path fill="#ffffff" opacity="1.00" d=" M 735.24 0.00 L 885.11 0.00 L 885.30 0.83 L 886.02 1.31 L 886.73 0.83 L 886.92 0.00 L 999.29 0.00 C 998.51 7.40 995.68 14.32 993.65 21.42 C 991.01 30.39 988.22 39.32 985.44 48.25 C 983.39 54.73 982.12 61.45 979.72 67.82 C 975.23 80.11 972.37 92.92 967.92 105.21 C 964.27 105.41 960.63 105.55 956.99 105.50 C 935.31 105.25 913.62 105.73 891.94 105.27 C 894.49 93.80 898.83 82.83 901.76 71.46 C 895.80 71.34 889.84 71.22 883.90 71.73 C 874.56 103.22 864.64 134.53 855.18 165.97 C 852.69 174.28 849.84 182.48 847.76 190.90 C 845.95 198.29 842.92 205.30 840.85 212.62 C 838.01 222.60 834.58 232.41 832.08 242.48 C 830.58 248.18 828.34 253.65 826.58 259.27 C 820.65 278.96 814.53 298.59 808.50 318.24 C 805.14 330.16 800.86 341.81 797.74 353.80 C 796.76 357.61 795.47 361.34 794.02 365.00 L 755.86 365.00 C 752.27 364.36 748.66 363.81 745.01 363.91 C 737.39 364.18 729.68 363.30 722.17 365.00 L 718.10 365.00 C 720.34 355.70 723.52 346.67 726.16 337.49 C 753.28 248.79 780.58 160.14 807.61 71.42 C 798.39 71.41 789.18 71.43 779.96 71.52 C 777.71 71.49 775.43 71.56 773.23 71.08 C 770.98 69.38 769.89 66.62 768.58 64.21 C 763.50 53.46 757.44 43.21 752.27 32.51 C 746.23 21.86 741.12 10.73 735.24 0.00 Z" />
</g>
<g id="#dadadae8">
<path fill="#dadada" opacity="0.91" d=" M 885.11 0.00 L 886.92 0.00 L 886.73 0.83 L 886.02 1.31 L 885.30 0.83 L 885.11 0.00 Z" />
</g>
<g id="#d0d0d0db">
<path fill="#d0d0d0" opacity="0.86" d=" M 468.14 230.51 C 469.59 230.65 469.84 231.28 468.89 232.41 C 467.42 232.26 467.17 231.63 468.14 230.51 Z" />
</g>
<g id="#9f9f9fb8">
<path fill="#9f9f9f" opacity="0.72" d=" M 722.17 365.00 C 729.68 363.30 737.39 364.18 745.01 363.91 C 748.66 363.81 752.27 364.36 755.86 365.00 L 722.17 365.00 Z" />
</g>
</svg>
