<?xml version="1.0" encoding="UTF-8" standalone="no"?>
<svg
   xmlns:dc="http://purl.org/dc/elements/1.1/"
   xmlns:cc="http://creativecommons.org/ns#"
   xmlns:rdf="http://www.w3.org/1999/02/22-rdf-syntax-ns#"
   xmlns:svg="http://www.w3.org/2000/svg"
   xmlns="http://www.w3.org/2000/svg"
   xmlns:sodipodi="http://sodipodi.sourceforge.net/DTD/sodipodi-0.dtd"
   xmlns:inkscape="http://www.inkscape.org/namespaces/inkscape"
   width="64"
   height="64"
   viewBox="0 0 47.999999 48.000002"
   version="1.1"
   id="svg32"
   sodipodi:docname="pact.svg"
   inkscape:version="0.92.3 (2405546, 2018-03-11)">
  <metadata
     id="metadata38">
    <rdf:RDF>
      <cc:Work
         rdf:about="">
        <dc:format>image/svg+xml</dc:format>
        <dc:type
           rdf:resource="http://purl.org/dc/dcmitype/StillImage" />
        <dc:title></dc:title>
      </cc:Work>
    </rdf:RDF>
  </metadata>
  <defs
     id="defs36" />
  <sodipodi:namedview
     pagecolor="#ffffff"
     bordercolor="#666666"
     borderopacity="1"
     objecttolerance="10"
     gridtolerance="10"
     guidetolerance="10"
     inkscape:pageopacity="0"
     inkscape:pageshadow="2"
     inkscape:window-width="1920"
     inkscape:window-height="1017"
     id="namedview34"
     showgrid="false"
     units="px"
     inkscape:pagecheckerboard="true"
     inkscape:zoom="9.084993"
     inkscape:cx="20.496017"
     inkscape:cy="18.768905"
     inkscape:window-x="-8"
     inkscape:window-y="-8"
     inkscape:window-maximized="1"
     inkscape:current-layer="svg32" />
  <g
     id="#ffffffff"
     transform="matrix(0.07218262,0,0,0.07218262,-0.00144273,15.265903)">
    <path
       d="m 46.15,0 h 155.39 c 4.99,2.33 7.8,7.79 8.76,13.02 0.67,2.59 -0.9,4.97 -1.6,7.37 -5.17,17.57 -10.76,35 -15.89,52.59 -2.53,7.56 -4.64,15.23 -7.02,22.83 -2.38,7.66 -4.66,15.34 -7,23.01 -2.19,6.75 -4,13.61 -6.29,20.34 -0.51,2.15 -2.68,3.08 -4.43,4.01 -4.91,2.51 -9.64,5.34 -14.4,8.1 -3.02,1.66 -6.14,3.12 -9.03,5.01 -5.32,2.8 -10.55,5.79 -15.71,8.86 -3.1,1.7 -6.31,3.19 -9.27,5.13 -5.41,2.84 -10.7,5.91 -15.97,8.98 -3.01,1.68 -6.15,3.12 -9.03,5.03 -1.84,1.02 -3.71,1.99 -5.62,2.87 -1.53,-3.22 -1.6,-6.76 -1.67,-10.25 -1.27,-4.62 -0.58,-9.47 -1.76,-14.11 0.2,-4.35 -1.34,-8.5 -1.16,-12.84 -0.26,-4.57 -2.04,-9.57 -0.58,-13.95 4.77,-2.8 9.72,-5.39 14.47,-8.26 7.68,-4.31 15.4,-8.55 22.99,-13 2.74,-1.39 5.38,-2.95 7.97,-4.6 4.87,-16.3 9.94,-32.55 14.98,-48.8 1.21,-4.71 2.73,-9.35 4.6,-13.84 -12.49,-0.04 -24.97,0.08 -37.46,-0.06 -2.96,7.99 -5.01,16.26 -7.65,24.36 -0.91,4.1 -2.88,7.89 -3.54,12.05 -2.73,7.52 -4.59,15.3 -7.24,22.84 -0.83,4.55 -3.16,8.7 -3.65,13.32 -4.96,4.44 -10.65,7.98 -15.84,12.14 -0.48,4.68 1.46,9.13 1.05,13.81 1.02,4.94 0.87,10.01 1.93,14.94 -2.72,8.23 -5.14,16.6 -7.71,24.9 -1.14,4.45 -2.93,8.7 -3.96,13.18 -3.83,11.9 -7.33,23.88 -11.05,35.81 -0.57,2.49 -1.29,4.96 -2.52,7.21 H 0.02 c 0.14,-1.31 0.39,-2.6 0.75,-3.86 C 21.06,171.59 41.46,105.06 61.83,38.52 62.57,36.38 63.37,33.93 62.16,31.79 56.74,21.24 51.59,10.54 46.15,0 Z"
       id="path25"
       inkscape:connector-curvature="0"
       style="opacity:1;fill:#ffffff" />
    <path
       d="m 247.22,0 h 84.65 c -0.56,3.17 0.19,6.57 -1.27,9.55 -0.52,9.02 -2.54,17.89 -3.31,26.89 -1.09,3.29 -0.19,6.94 -1.69,10.1 -0.09,6.51 -1.92,12.82 -2.25,19.31 -1.4,5.82 -1.08,12 -2.75,17.69 -1.07,12.15 -3.16,24.2 -4.65,36.29 -1,9.89 -3.36,19.67 -3.5,29.62 1.46,-8.97 5.11,-17.4 7.35,-26.18 C 332.6,82.22 344.83,41 357.76,0 h 124.01 c 2.43,1.61 4.58,3.68 6.07,6.21 1.58,3.57 2.78,7.63 1.46,11.48 -2.68,9.42 -5.76,18.72 -8.51,28.12 -6.05,19.66 -11.9,39.41 -18.12,59.01 -0.1,0.74 -0.3,2.22 -0.4,2.96 -0.52,-0.15 -1.55,-0.44 -2.07,-0.59 -13.18,-11.2 -26.59,-22.13 -39.79,-33.3 3.2,-8.66 4.95,-17.83 8.48,-26.39 -11.43,-0.04 -22.86,0.07 -34.29,-0.05 -0.45,4.27 -2.55,8.11 -3.61,12.24 -1.14,4.78 -2.9,9.38 -4.22,14.11 -1.16,4.38 -2.8,8.62 -4,13 -1.17,4.38 -2.8,8.63 -3.98,13.01 -7.65,25.01 -15.4,49.97 -23.02,74.98 -1.19,4.38 -2.77,8.65 -4.01,13.02 -0.53,2.36 -1.22,4.71 -2.48,6.8 11.35,-0.21 22.72,-0.11 34.08,-0.05 5.32,-16.7 10.46,-33.44 15.45,-50.23 1.56,0.58 2.96,1.5 4.19,2.61 12.27,10.55 24.91,20.68 37.02,31.41 -0.64,3.99 -2.34,7.7 -3.21,11.64 -1.35,4.27 -2.81,8.51 -4.04,12.82 -1.19,4.37 -2.79,8.62 -4,12.99 -0.92,3.78 -2.41,7.38 -3.55,11.1 -1.39,5.1 -2.76,10.27 -4.97,15.1 H 243.4 c 0.57,-8.1 2.35,-16.09 2.06,-24.23 -11.85,-19.3 -23.58,-38.68 -35.35,-58.03 15.44,-0.52 30.91,-0.15 46.37,-0.18 0.52,-8.43 2.31,-16.75 3.32,-25.14 0.93,-2.93 0.26,-6.14 1.56,-8.96 1.07,-10.19 2.92,-20.3 4.16,-30.47 0,-1.23 0.39,-2.4 0.87,-3.52 0.49,-8.75 2.92,-17.33 3.28,-26.11 -1.11,3.25 -2.7,6.29 -3.98,9.47 -1.91,4.35 -4.24,8.51 -5.98,12.93 -1.89,4.39 -4.26,8.56 -6.01,13.01 -2.14,5.07 -5,9.81 -6.94,14.97 -1.86,4.42 -4.36,8.54 -6.06,13.03 -1.9,4.38 -4.24,8.55 -6,13 -1.48,3.41 -3.19,6.71 -4.78,10.07 -11.92,0.06 -23.83,-0.02 -35.75,0.05 0.87,1.8 1.84,3.56 3,5.2 2.08,4.23 4.66,8.18 7.09,12.21 2.06,4.06 4.49,7.93 6.91,11.78 1.04,1.94 2.04,3.9 3.01,5.88 -1.51,3.27 -3.14,6.48 -4.45,9.83 -0.26,0.51 -0.78,1.51 -1.04,2.01 -0.48,1.01 -0.96,2.01 -1.44,3.01 -3,6.74 -6.81,13.1 -9.51,19.97 -0.26,0.51 -0.78,1.53 -1.04,2.04 -2.9,6.09 -5.86,12.16 -8.92,18.18 h -55.95 c 1.32,-2.51 2.3,-5.18 3.43,-7.78 0.27,-0.51 0.79,-1.52 1.05,-2.03 3.09,-7.1 7.1,-13.76 9.94,-20.97 0.26,-0.5 0.79,-1.51 1.06,-2.01 3.06,-7.12 7.11,-13.78 9.95,-21 0.27,-0.5 0.79,-1.51 1.05,-2.01 2.75,-6.44 6.42,-12.45 8.96,-18.98 0.83,-1.68 1.69,-3.34 2.5,-5.03 2.65,-6.07 6.1,-11.77 8.5,-17.96 0.83,-1.68 1.67,-3.35 2.49,-5.04 2.66,-6.07 6.11,-11.78 8.5,-17.97 0.26,-0.51 0.79,-1.52 1.05,-2.02 3.08,-7.11 7.07,-13.79 9.98,-20.97 0.49,-1.01 0.98,-2.03 1.46,-3.05 3.01,-6.73 6.8,-13.1 9.52,-19.97 0.26,-0.51 0.79,-1.51 1.05,-2.01 2.72,-6.46 6.43,-12.44 8.94,-18.99 0.26,-0.5 0.79,-1.51 1.05,-2.01 0.47,-1.01 0.95,-2.01 1.44,-3.02 2.69,-6.06 6.12,-11.77 8.51,-17.97 0.26,-0.51 0.79,-1.51 1.05,-2.02 3.1,-7.09 7.06,-13.77 9.97,-20.95 0.49,-1.01 0.98,-2.02 1.48,-3.03 0.78,-1.75 1.56,-3.51 2.46,-5.21 z"
       id="path27"
       inkscape:connector-curvature="0"
       style="opacity:1;fill:#ffffff" />
    <path
       d="M 488.12,0 H 665 v 1.29 c -0.24,1.55 -0.59,3.09 -1.23,4.52 -3.62,12.01 -7.38,23.98 -10.99,36 -2.18,6.75 -3.95,13.61 -6.31,20.29 -0.97,2.89 -1.14,6.13 -3.3,8.47 -16.91,-0.18 -33.83,-0.01 -50.74,-0.08 1.27,-7.91 4.79,-15.23 6.38,-23.08 -3.47,0.12 -6.94,0.13 -10.4,0.03 -5.1,15.71 -9.75,31.57 -14.64,47.35 -1.18,4.39 -2.79,8.64 -3.99,13.02 -1.16,4.44 -2.95,8.69 -3.97,13.18 -5.14,16.23 -10.04,32.53 -15.03,48.8 -1.19,4.39 -2.81,8.64 -4,13.02 -4.22,13.98 -8.64,27.9 -12.82,41.9 -2.25,5.65 -3,11.81 -5.71,17.29 h -51.24 c 1.52,-8.06 4.68,-15.72 6.81,-23.63 16.63,-53.83 32.99,-107.74 49.6,-161.59 0.8,-3.22 1.7,-6.46 3.28,-9.4 -7.92,0.25 -15.85,0.06 -23.78,0.11 -3.03,-5.94 -5.65,-12.14 -9.2,-17.8 C 498.61,19.75 493.61,9.74 488.12,0 Z"
       id="path29"
       inkscape:connector-curvature="0"
       style="opacity:1;fill:#ffffff" />
  </g>
</svg>
