<?xml version="1.0" encoding="utf-8"?>
<!-- Generator: Adobe Illustrator 16.0.0, SVG Export Plug-In . SVG Version: 6.00 Build 0)  -->
<!DOCTYPE svg PUBLIC "-//W3C//DTD SVG 1.1//EN" "http://www.w3.org/Graphics/SVG/1.1/DTD/svg11.dtd">
<svg version="1.1" id="Layer_1" xmlns="http://www.w3.org/2000/svg" xmlns:xlink="http://www.w3.org/1999/xlink" x="0px" y="0px"
	 width="64px" height="64px" viewBox="0 0 64 64" enable-background="new 0 0 64 64" xml:space="preserve">
<g>
	<g>
		<path fill-rule="evenodd" clip-rule="evenodd" fill="#BEBEBE" d="M24.665,43.691c0-0.018-0.001-0.036-0.003-0.054
			c0.117-0.003,0.234-0.01,0.351-0.01c3.015,0,6.031-0.001,9.046,0c0.543,0,1.086,0.008,1.629,0.012
			c0.001,0.018-0.001,0.035-0.004,0.052C32.011,43.691,28.338,43.691,24.665,43.691z"/>
		<path fill-rule="evenodd" clip-rule="evenodd" fill="#BEBEBE" d="M31.904,20.309c-0.001,0.022-0.002,0.045-0.003,0.067
			c-0.318-0.001-0.638-0.003-0.957-0.003c-2.201-0.004-4.402-0.007-6.604-0.011c0.002-0.018,0.003-0.036,0.003-0.054
			C26.864,20.309,29.384,20.309,31.904,20.309z"/>
		<path fill-rule="evenodd" clip-rule="evenodd" fill="#BEBEBE" d="M56.696,20.309c2.413,0,4.826,0,7.239,0
			c-0.001,0.023-0.002,0.048-0.003,0.071c-0.149-0.002-0.299-0.007-0.448-0.007c-2.261-0.004-4.521-0.007-6.783-0.011
			C56.699,20.345,56.697,20.326,56.696,20.309z"/>
		<path fill-rule="evenodd" clip-rule="evenodd" fill="#7F7F7F" d="M56.696,20.309c0.001,0.018,0.003,0.036,0.005,0.054
			c-2.395,0.001-4.789,0.002-7.184,0.002c0.005-0.018,0.006-0.037,0.004-0.056C51.913,20.309,54.305,20.309,56.696,20.309z"/>
		<path fill-rule="evenodd" clip-rule="evenodd" fill="#BEBEBE" d="M12.749,20.309c2.093,0,4.186,0,6.278,0
			c0,0.017,0,0.033-0.001,0.05c-2.091,0.002-4.182,0.004-6.273,0.006C12.748,20.347,12.747,20.327,12.749,20.309z"/>
		<path fill-rule="evenodd" clip-rule="evenodd" fill="#7F7F7F" d="M12.749,20.309c-0.002,0.019-0.001,0.038,0.004,0.056
			c-0.574,0.003-1.149,0.009-1.723,0.008c-1.479-0.003-2.958-0.009-4.437-0.014c-0.002-0.018,0-0.034,0.006-0.05
			C8.648,20.309,10.699,20.309,12.749,20.309z"/>
		<path fill-rule="evenodd" clip-rule="evenodd" fill="#7F7F7F" d="M36.132,20.309c1.645,0,3.289,0,4.934,0
			c-0.001,0.018,0.001,0.035,0.004,0.053c-1.646,0.001-3.294,0.002-4.941,0.003C36.133,20.347,36.135,20.327,36.132,20.309z"/>
		<path fill-rule="evenodd" clip-rule="evenodd" fill="#BEBEBE" d="M46.254,20.309c-0.002,0.02-0.001,0.038,0.003,0.057
			c-1.624-0.003-3.247-0.006-4.871-0.009c0-0.016,0-0.032,0-0.048C43.008,20.309,44.631,20.309,46.254,20.309z"/>
		<path fill-rule="evenodd" clip-rule="evenodd" fill="#BEBEBE" d="M0,43.691c0-0.021,0-0.043,0-0.064
			c1.515,0.003,3.03,0.006,4.545,0.009c0.004,0.019,0.005,0.037,0.003,0.056C3.032,43.691,1.516,43.691,0,43.691z"/>
		<path fill-rule="evenodd" clip-rule="evenodd" fill="#BEBEBE" d="M49.521,20.309c0.002,0.019,0.001,0.038-0.004,0.056
			c-0.699,0.003-1.398,0.003-2.098,0.012c-0.096,0.001-0.19,0.042-0.286,0.065c-0.016-0.045-0.031-0.089-0.047-0.133
			C47.898,20.309,48.71,20.309,49.521,20.309z"/>
		<path fill-rule="evenodd" clip-rule="evenodd" fill="#BEBEBE" d="M48.368,43.691c-0.726,0-1.452,0-2.178,0
			c0.002-0.017,0.004-0.034,0.005-0.052c0.723,0,1.445,0,2.168,0C48.363,43.657,48.365,43.675,48.368,43.691z"/>
		<path fill-rule="evenodd" clip-rule="evenodd" fill="#BEBEBE" d="M6.599,20.309c-0.006,0.016-0.008,0.032-0.006,0.05
			c-0.701,0.007-1.402,0.015-2.104,0.021c-0.001-0.023-0.003-0.048-0.005-0.071C5.189,20.309,5.894,20.309,6.599,20.309z"/>
		<path fill-rule="evenodd" clip-rule="evenodd" fill="#BEBEBE" d="M36.132,20.309c0.003,0.019,0.001,0.038-0.004,0.056
			c-0.532,0.003-1.064,0.006-1.597,0.009c0-0.021-0.001-0.043-0.001-0.064C35.064,20.309,35.599,20.309,36.132,20.309z"/>
		<path fill-rule="evenodd" clip-rule="evenodd" fill="#BEBEBE" d="M50.742,43.639c0.001,0.018,0,0.035-0.004,0.053
			c-0.405,0-0.811,0-1.217,0c-0.002-0.019-0.001-0.037,0.004-0.056C49.931,43.637,50.337,43.638,50.742,43.639z"/>
		<path fill-rule="evenodd" clip-rule="evenodd" fill="#7F7F7F" d="M49.525,43.636c-0.005,0.019-0.006,0.037-0.004,0.056
			c-0.385,0-0.769,0-1.153,0c-0.003-0.017-0.005-0.034-0.005-0.052C48.751,43.639,49.138,43.637,49.525,43.636z"/>
		<path fill-rule="evenodd" clip-rule="evenodd" fill="#B9B9B9" d="M41.386,20.309c0,0.016,0,0.032,0,0.048
			c-0.105,0.002-0.211,0.003-0.316,0.005c-0.003-0.018-0.005-0.035-0.004-0.053C41.172,20.309,41.278,20.309,41.386,20.309z"/>
		<path fill-rule="evenodd" clip-rule="evenodd" fill="#8A8A8A" d="M4.548,43.691c0.002-0.019,0.001-0.037-0.003-0.056
			c0.084-0.005,0.169-0.009,0.253-0.014c0.002,0.023,0.004,0.047,0.006,0.069C4.719,43.691,4.634,43.691,4.548,43.691z"/>
		<path fill-rule="evenodd" clip-rule="evenodd" fill="#AFAFAF" d="M19.026,20.358c0.001-0.017,0.001-0.033,0.001-0.05
			c0.064,0,0.128,0,0.192,0c-0.001,0.019,0,0.038,0.003,0.057C19.157,20.362,19.091,20.36,19.026,20.358z"/>
		<path fill-rule="evenodd" clip-rule="evenodd" fill="#7F7F7F" d="M46.195,43.64c-0.001,0.018-0.003,0.035-0.005,0.052
			c-0.064,0-0.128,0-0.192,0c0-0.021-0.001-0.041-0.001-0.063C46.063,43.633,46.129,43.636,46.195,43.64z"/>
		<path fill-rule="evenodd" clip-rule="evenodd" fill="#D6D6D6" d="M63.933,20.38c0.001-0.023,0.002-0.048,0.003-0.071
			c0.021,0.043,0.043,0.085,0.064,0.128l-0.026,0.003l-0.027-0.001C63.938,20.42,63.934,20.4,63.933,20.38z"/>
		<path fill-rule="evenodd" clip-rule="evenodd" fill="#FFFFFF" d="M41.069,20.361c0.105-0.002,0.211-0.003,0.316-0.005
			c1.624,0.003,3.247,0.006,4.871,0.009c0.661,0.313,0.985,1.034,0.774,1.728c-0.837,2.758-1.675,5.517-2.513,8.274
			c-0.024,0.078-0.053,0.154-0.093,0.271c-0.702-0.579-1.384-1.141-2.063-1.705c-0.525-0.437-1.043-0.882-1.573-1.312
			c-0.144-0.116-0.187-0.213-0.127-0.4c0.247-0.769,0.472-1.545,0.713-2.343c-1.147,0-2.27,0-3.426,0
			c-1.45,4.737-2.903,9.482-4.364,14.252c1.163,0,2.279,0,3.415,0c0.491-1.588,0.982-3.178,1.486-4.808
			c0.762,0.642,1.484,1.25,2.206,1.859c0.481,0.405,0.958,0.816,1.447,1.212c0.141,0.113,0.167,0.21,0.115,0.378
			c-0.587,1.878-1.171,3.756-1.739,5.64c-0.065,0.214-0.178,0.219-0.347,0.219c-1.493,0-2.987,0.006-4.481,0.01
			c-0.543-0.004-1.086-0.012-1.629-0.012c-3.016-0.001-6.031,0-9.046,0c-0.117,0-0.234,0.007-0.351,0.01c-0.361,0-0.723,0-1.119,0
			c0.068-0.652,0.148-1.271,0.188-1.894c0.013-0.208-0.028-0.453-0.133-0.629c-0.991-1.666-2.001-3.319-3.005-4.978
			c-0.059-0.097-0.11-0.198-0.198-0.358c0.532,0,1.009,0,1.485,0c0.875,0,1.751-0.003,2.626,0.003
			c0.171,0.001,0.263-0.021,0.293-0.229c0.413-2.859,0.838-5.716,1.256-8.574c0.023-0.157,0.003-0.319,0.003-0.544
			c-0.074,0.141-0.129,0.234-0.175,0.332c-1.211,2.604-2.424,5.206-3.625,7.813c-0.113,0.245-0.237,0.339-0.518,0.333
			c-1.042-0.021-2.084-0.009-3.174-0.009c0.553,0.948,1.047,1.879,1.624,2.755c0.328,0.498,0.311,0.89,0.048,1.405
			c-0.731,1.43-1.404,2.889-2.094,4.34c-0.064,0.136-0.122,0.218-0.296,0.217c-1.666-0.007-3.331-0.004-5.042-0.004
			c0.179-0.381,0.348-0.749,0.523-1.114c3.47-7.267,6.944-14.53,10.4-21.803c0.15-0.317,0.344-0.344,0.613-0.338
			c2.202,0.004,4.403,0.007,6.604,0.011c0.319,0,0.639,0.002,0.957,0.003c-0.136,1.056-0.269,2.111-0.41,3.166
			c-0.308,2.289-0.622,4.578-0.932,6.867c-0.185,1.361-0.366,2.723-0.546,4.083c-0.018,0.137-0.025,0.275-0.037,0.413
			c-0.016,0.088-0.032,0.176-0.048,0.263c-0.003,0.022-0.006,0.045-0.009,0.067c-0.021,0.047-0.042,0.093-0.062,0.14
			c0.018,0.008,0.036,0.016,0.054,0.023c0.023-0.056,0.046-0.111,0.068-0.167c0.005-0.021,0.002-0.043-0.006-0.063
			c0.019-0.065,0.037-0.13,0.056-0.195c0.945-3.069,1.889-6.139,2.835-9.207c0.555-1.798,1.111-3.596,1.668-5.394
			c0.532-0.003,1.064-0.006,1.597-0.009C37.775,20.363,39.423,20.362,41.069,20.361z"/>
		<path fill-rule="evenodd" clip-rule="evenodd" fill="#FFFFFF" d="M63.933,20.38c0.001,0.021,0.006,0.04,0.014,0.059
			c-0.67,2.187-1.339,4.373-2.015,6.577c-1.597,0-3.193,0-4.83,0c0.214-0.715,0.424-1.413,0.647-2.158
			c-0.384,0-0.741-0.016-1.095,0.014c-0.071,0.006-0.156,0.173-0.189,0.279c-0.652,2.114-1.297,4.231-1.946,6.347
			c-1.213,3.955-2.427,7.91-3.644,11.864c-0.029,0.097-0.088,0.185-0.133,0.277c-0.405-0.001-0.812-0.002-1.217-0.003
			c-0.388,0.001-0.774,0.003-1.162,0.004c-0.723,0-1.445,0-2.168,0c-0.066-0.004-0.133-0.007-0.198-0.011
			c0.245-0.835,0.483-1.672,0.738-2.505c1.627-5.316,3.257-10.632,4.886-15.948c0.028-0.091,0.048-0.183,0.082-0.318
			c-0.669,0-1.314-0.012-1.96,0.006c-0.225,0.006-0.334-0.071-0.436-0.268c-0.717-1.389-1.447-2.771-2.174-4.154
			c0.096-0.023,0.19-0.064,0.286-0.065c0.699-0.009,1.398-0.009,2.098-0.012c2.395,0,4.789-0.001,7.184-0.002
			c2.262,0.004,4.522,0.007,6.783,0.011C63.634,20.373,63.783,20.378,63.933,20.38z"/>
		<path fill-rule="evenodd" clip-rule="evenodd" fill="#FFFFFF" d="M19.026,20.358c0.065,0.002,0.131,0.004,0.197,0.007
			c0.644,0.263,0.998,1.024,0.788,1.717c-0.976,3.218-1.955,6.435-2.932,9.651c-0.188,0.62-0.367,1.245-0.572,1.86
			c-0.049,0.146-0.163,0.311-0.293,0.385c-2.529,1.43-5.065,2.847-7.601,4.266c-0.025,0.014-0.058,0.014-0.116,0.025
			c-0.054-0.483-0.106-0.956-0.158-1.43c-0.106-0.976-0.206-1.951-0.321-2.925c-0.029-0.246,0.015-0.399,0.257-0.533
			c1.294-0.716,2.581-1.447,3.858-2.192c0.164-0.096,0.322-0.286,0.379-0.466c0.591-1.876,1.161-3.759,1.736-5.641
			c0.018-0.059,0.028-0.12,0.048-0.205c-1.253,0-2.485,0-3.747,0c-0.331,1.077-0.665,2.164-1,3.251
			c-0.366,1.189-0.727,2.381-1.104,3.567c-0.048,0.149-0.157,0.302-0.28,0.4c-0.348,0.281-0.726,0.524-1.073,0.807
			c-0.094,0.076-0.176,0.241-0.167,0.358c0.058,0.754,0.149,1.506,0.214,2.261c0.017,0.197,0.022,0.411-0.035,0.598
			c-0.762,2.503-1.535,5.002-2.305,7.502c-0.084,0.005-0.169,0.009-0.253,0.014C3.031,43.633,1.516,43.63,0,43.627
			c0.312-1.049,0.616-2.099,0.935-3.145c1.682-5.512,3.366-11.022,5.057-16.531c0.074-0.24,0.065-0.437-0.051-0.663
			c-0.494-0.965-0.97-1.938-1.452-2.908c0.701-0.007,1.402-0.015,2.104-0.021c1.479,0.005,2.958,0.011,4.437,0.014
			c0.574,0.001,1.149-0.005,1.723-0.008C14.844,20.362,16.935,20.36,19.026,20.358z"/>
		<path fill-rule="evenodd" clip-rule="evenodd" fill="#DEDEDE" d="M29.928,35.168c0.016-0.087,0.032-0.175,0.048-0.263
			c0.018,0.022,0.035,0.046,0.052,0.068c-0.019,0.065-0.037,0.13-0.056,0.195C29.958,35.171,29.943,35.171,29.928,35.168z"/>
		<path fill-rule="evenodd" clip-rule="evenodd" fill="#393939" d="M29.979,35.231c-0.022,0.056-0.045,0.111-0.068,0.167
			c-0.018-0.008-0.036-0.016-0.054-0.023c0.021-0.047,0.041-0.093,0.062-0.14l0.03,0.004L29.979,35.231z"/>
		<path fill-rule="evenodd" clip-rule="evenodd" fill="#AEAEAE" d="M29.979,35.231l-0.03,0.008l-0.03-0.004
			c0.003-0.022,0.006-0.045,0.009-0.067c0.015,0.003,0.03,0.003,0.044,0.001C29.981,35.188,29.984,35.21,29.979,35.231z"/>
	</g>
</g>
</svg>
