<?xml version="1.0" encoding="UTF-8" standalone="no"?>
<svg
   xmlns:dc="http://purl.org/dc/elements/1.1/"
   xmlns:cc="http://creativecommons.org/ns#"
   xmlns:rdf="http://www.w3.org/1999/02/22-rdf-syntax-ns#"
   xmlns:svg="http://www.w3.org/2000/svg"
   xmlns="http://www.w3.org/2000/svg"
   xmlns:sodipodi="http://sodipodi.sourceforge.net/DTD/sodipodi-0.dtd"
   xmlns:inkscape="http://www.inkscape.org/namespaces/inkscape"
   width="64"
   height="64"
   viewBox="0 0 48 48.000002"
   version="1.1"
   id="svg34"
   sodipodi:docname="pain.svg"
   inkscape:version="0.92.3 (2405546, 2018-03-11)">
  <metadata
     id="metadata40">
    <rdf:RDF>
      <cc:Work
         rdf:about="">
        <dc:format>image/svg+xml</dc:format>
        <dc:type
           rdf:resource="http://purl.org/dc/dcmitype/StillImage" />
        <dc:title></dc:title>
      </cc:Work>
    </rdf:RDF>
  </metadata>
  <defs
     id="defs38" />
  <sodipodi:namedview
     pagecolor="#ffffff"
     bordercolor="#666666"
     borderopacity="1"
     objecttolerance="10"
     gridtolerance="10"
     guidetolerance="10"
     inkscape:pageopacity="0"
     inkscape:pageshadow="2"
     inkscape:window-width="1920"
     inkscape:window-height="1017"
     id="namedview36"
     showgrid="false"
     units="px"
     inkscape:pagecheckerboard="true"
     inkscape:zoom="3.1330049"
     inkscape:cx="61.253349"
     inkscape:cy="40.399037"
     inkscape:window-x="-8"
     inkscape:window-y="-8"
     inkscape:window-maximized="1"
     inkscape:current-layer="svg34" />
  <g
     id="#ffffffff"
     transform="matrix(0.08062393,0,0,0.08062393,-0.19833385,7.5872521)">
    <path
       d="m 27.28,7.73 c 0.78,-3.14 4.3,-2.09 6.66,-2.25 167.03,0.04 334.05,0 501.08,0.03 2.04,0.09 3.99,0.87 6.05,0.83 7.27,0.35 14.12,3.05 20.76,5.8 7.52,4.21 14.54,9.35 20.31,15.8 4.29,5.65 8.28,11.55 11.13,18.08 5.07,13.48 6.13,28.6 2.01,42.47 C 425.82,88.56 256.36,88.5 86.89,88.52 84.02,85.17 81.7,81.4 78.86,78.03 75.46,72.83 71.65,67.91 67.85,63.01 61.73,54.2 55.39,45.53 48.86,37.02 42.75,28.2 36.35,19.57 29.9,10.98 29.12,9.82 28.27,8.71 27.28,7.73 Z"
       id="path26"
       inkscape:connector-curvature="0"
       style="opacity:1;fill:#ffffff" />
    <path
       d="m 2.46,126.54 c 126.86,-0.13 253.73,0.01 380.6,-0.07 1.9,0.12 4.36,-0.59 5.47,1.51 -5.62,21 -11.2,42.02 -16.83,63.02 -1.23,5.85 -3.51,11.44 -4.41,17.36 18.24,0.02 36.48,0 54.73,0.01 5.84,0.17 11.98,-0.33 17.2,-3.16 7.49,-3.43 13.39,-10.29 15.96,-18.09 0.28,-1.04 0.6,-2.06 0.96,-3.07 1.56,-4.93 2.47,-10.04 3.98,-14.98 1.92,-6.27 3.15,-12.73 5.02,-19.01 1.54,-4.93 2.48,-10.02 3.98,-14.96 0.99,-2.85 1.3,-5.9 2.66,-8.62 37.57,0.02 75.15,0.01 112.72,0.01 -0.09,5.62 -2.43,10.99 -3.63,16.45 -3.07,11.32 -6.03,22.66 -9.01,34.01 -3.07,11.31 -6.01,22.67 -9,34 -0.98,3.31 -1.93,6.63 -2.55,10.02 -1.73,3.51 -2.91,7.27 -4.49,10.86 -0.25,0.49 -0.74,1.49 -0.99,1.99 -2.18,3.75 -4.57,7.37 -6.63,11.19 -2.15,2.58 -4.17,5.27 -6.06,8.04 -5.16,5.57 -10.48,10.98 -16.09,16.09 -2.76,1.9 -5.44,3.92 -8.03,6.04 -4.47,2.43 -8.65,5.38 -13.2,7.66 -9.17,3.93 -18.82,7.13 -28.82,7.71 -43.43,0 -86.87,0.04 -130.31,-0.02 -1.45,4.75 -2.38,9.64 -3.81,14.39 -1.59,4.94 -2.49,10.06 -4.02,15.01 -3.72,13.66 -7.38,27.33 -10.98,41.01 -2.78,10.01 -5.25,20.1 -8.17,30.07 -0.73,3.5 -2.06,6.87 -2.34,10.46 -32.11,0.4 -64.23,0.05 -96.34,0.17 -5.86,-0.27 -11.83,0.54 -17.61,-0.4 3.54,-11.97 6.47,-24.11 9.7,-36.17 3.1,-11.31 6.02,-22.67 9.02,-34.01 5.68,-21.33 11.41,-42.64 16.99,-63.99 3.07,-11.31 6.02,-22.65 8.99,-33.99 2.32,-7.82 3.87,-15.87 6.57,-23.58 -63.93,0.01 -127.86,0.01 -191.79,0.01 -2.34,-2.24 -3.93,-5.07 -6.05,-7.49 -2.43,-3.83 -5.18,-7.44 -7.99,-11 -2.44,-3.82 -5.18,-7.45 -8,-11 -2.44,-3.83 -5.2,-7.45 -8.01,-11.01 -2.4,-3.85 -5.2,-7.43 -7.99,-10.99 -2.44,-3.83 -5.19,-7.45 -8,-11 -2.44,-3.83 -5.19,-7.45 -8,-11 -1.62,-2.47 -3.14,-5.06 -5.34,-7.08 -0.03,-0.8 -0.05,-1.6 -0.06,-2.4 z"
       id="path28"
       inkscape:connector-curvature="0"
       style="opacity:1;fill:#ffffff" />
  </g>
  <g
     id="#ee2c4aff"
     transform="matrix(0.08062393,0,0,0.08062393,-0.19833385,7.5872521)">
    <path
       d="m 91.56,247.27 c 37.01,-0.06 74.04,-0.17 111.05,0.05 -10.05,36.58 -19.75,73.27 -29.55,109.92 -0.46,-0.35 -1.37,-1.04 -1.83,-1.38 -26.56,-36.2 -52.98,-72.5 -79.67,-108.59 z"
       id="path31"
       inkscape:connector-curvature="0"
       style="opacity:1;fill:#ee2c4a" />
  </g>
</svg>
