<svg width="64" height="64" viewBox="0 0 64 64" fill="none" xmlns="http://www.w3.org/2000/svg">
<path fill-rule="evenodd" clip-rule="evenodd" d="M0 24.0443C0.0493812 24.0465 0.0986427 24.0505 0.148024 24.0505C13.8335 24.0508 27.5188 24.0508 41.2042 24.0505C41.2535 24.0505 41.3028 24.0465 41.3522 24.0443C41.3697 24.0961 41.387 24.1477 41.4045 24.1994C41.4005 24.2237 41.3965 24.248 41.3924 24.2723C41.363 24.3843 40.4247 27.9025 40.3954 28.0146C40.39 28.0394 40.4006 27.9898 40.3954 28.0146C40.3753 28.0766 40.4153 27.9526 40.3954 28.0146C40.3888 28.0513 40.4018 27.9779 40.3954 28.0146C40.3753 28.0769 40.4153 27.9523 40.3954 28.0146C40.39 28.0388 40.4006 27.9903 40.3954 28.0146C40.3664 28.1265 40.4244 27.9026 40.3954 28.0146C40.3881 28.0515 40.4025 27.9777 40.3954 28.0146C40.3743 28.0767 40.4165 27.9525 40.3954 28.0146C40.3915 28.039 40.3994 27.9901 40.3954 28.0146C40.3406 28.2132 40.4502 27.816 40.3954 28.0146C40.3886 28.0514 40.4022 27.9778 40.3954 28.0146C40.3743 28.0768 40.4163 27.9524 40.3954 28.0146C40.3907 28.0389 40.4001 27.9903 40.3954 28.0146C40.3662 28.1267 40.4247 27.9025 40.3954 28.0146C40.3905 28.0395 40.4006 27.9897 40.3954 28.0146C40.3723 28.0885 40.4185 27.9406 40.3954 28.0146C40.3917 28.0392 40.3989 27.99 40.3954 28.0146C40.3409 28.2132 40.4499 27.8161 40.3954 28.0146C40.3886 28.0516 40.4022 27.9777 40.3954 28.0146C40.3748 28.0768 40.416 27.9525 40.3954 28.0146C40.3907 28.039 40.4001 27.9901 40.3954 28.0146C40.3662 28.1264 40.4247 27.9028 40.3954 28.0146C40.3903 28.0398 40.4006 27.9894 40.3954 28.0146C40.372 28.0884 40.4188 27.9408 40.3954 28.0146C40.3917 28.0392 40.3991 27.9899 40.3954 28.0146C40.338 28.2253 40.4526 27.8039 40.3954 28.0146C40.3907 28.0392 40.3998 27.99 40.3954 28.0146C40.375 28.0768 40.4158 27.9525 40.3954 28.0146C40.3907 28.0392 40.3998 27.99 40.3954 28.0146C40.3387 28.2254 40.4521 27.8038 40.3954 28.0146C40.3907 28.0393 40.3998 27.9899 40.3954 28.0146C40.3406 28.2128 40.4502 27.8163 40.3954 28.0146C40.3879 28.0516 40.403 27.9776 40.3954 28.0146C40.3743 28.0768 40.4163 27.9524 40.3954 28.0146C40.3912 28.0392 40.3996 27.99 40.3954 28.0146C40.3382 28.2253 39.239 32.3481 39.182 32.5589C39.1775 32.5834 39.1731 32.6082 39.1687 32.6328C39.2089 32.7023 39.2487 32.8323 39.2892 32.8325C41.4054 32.844 43.5218 32.8482 45.638 32.8414C45.8931 32.8405 46.1481 32.7739 46.4033 32.7379C46.4398 32.7312 46.4762 32.7246 46.5128 32.7178C46.5627 32.6986 46.6124 32.6794 46.6623 32.6603C46.6868 32.6535 46.7113 32.6471 46.7357 32.6405C46.8207 32.607 46.9056 32.5736 46.9906 32.5402C47.0052 32.5308 47.0198 32.5216 47.0344 32.5122C47.1403 32.4555 47.246 32.3988 47.3517 32.3422L47.3652 32.3402L47.3687 32.3271C47.4004 32.3074 47.4319 32.2879 47.4635 32.2682C47.5185 32.2252 47.5734 32.1821 47.6284 32.1392C47.6841 32.095 47.7395 32.0509 47.7952 32.0068C47.8906 31.9093 47.986 31.812 48.0814 31.7146C48.1244 31.6602 48.1676 31.6059 48.2106 31.5516C48.254 31.4938 48.2975 31.4362 48.3408 31.3784C48.4115 31.2631 48.4823 31.1478 48.553 31.0324C48.5594 31.0161 48.5655 30.9998 48.5718 30.9835C48.6573 30.7762 49.4434 27.9263 49.5289 27.7191C49.5237 27.7441 49.5343 27.6942 49.5289 27.7191C49.5092 27.781 49.5488 27.6573 49.5289 27.7191C49.5223 27.7559 49.5357 27.6823 49.5289 27.7191C49.5092 27.7815 49.5488 27.6568 49.5289 27.7191C49.5235 27.7435 49.5345 27.6948 49.5289 27.7191C49.4999 27.8311 49.5581 27.6072 49.5289 27.7191C49.5216 27.7561 49.5364 27.6823 49.5289 27.7191C49.508 27.7812 49.5498 27.6571 49.5289 27.7191C49.5249 27.7437 49.5329 27.6946 49.5289 27.7191C49.4717 27.93 49.5863 27.5083 49.5289 27.7191C49.5249 27.7438 49.5331 27.6944 49.5289 27.7191C49.4727 27.9298 49.5854 27.5084 49.5289 27.7191C49.524 27.7439 49.534 27.6943 49.5289 27.7191C49.5092 27.7812 49.5488 27.6572 49.5289 27.7191C49.5223 27.7558 49.5357 27.6826 49.5289 27.7191C49.4741 27.9177 49.5837 27.5205 49.5289 27.7191C49.5221 27.7559 49.5357 27.6823 49.5289 27.7191C49.5076 27.7813 49.5502 27.6569 49.5289 27.7191C49.5249 27.7436 49.5329 27.6947 49.5289 27.7191C49.4715 27.9301 49.5864 27.5082 49.5289 27.7191C49.5252 27.7437 49.5326 27.6946 49.5289 27.7191C49.4727 27.9301 49.5854 27.5083 49.5289 27.7191C49.5242 27.7438 49.5338 27.6944 49.5289 27.7191C49.509 27.7812 49.549 27.6571 49.5289 27.7191C49.524 27.7437 49.5338 27.6946 49.5289 27.7191C49.606 27.5078 50.4872 24.2559 50.5641 24.0445C54.5524 24.0445 58.5406 24.0446 62.5289 24.0447C62.5485 24.084 62.5682 24.1233 62.5878 24.1626C62.5823 24.1871 62.5768 24.2114 62.5713 24.2357C62.5422 24.3477 62.5132 24.4595 62.4839 24.5713C62.4783 24.5963 62.4727 24.6213 62.4671 24.6464C62.444 24.7203 62.4208 24.7941 62.3976 24.8681C62.394 24.8927 62.3903 24.9172 62.3867 24.9418C62.3321 25.1403 61.319 28.969 61.2644 29.1674C61.2573 29.2043 61.2713 29.1305 61.2644 29.1674C61.244 29.2296 61.2846 29.1052 61.2644 29.1674C61.2598 29.1919 61.2689 29.1428 61.2644 29.1674C61.2083 29.3782 61.3205 28.9565 61.2644 29.1674C61.2597 29.1922 61.269 29.1426 61.2644 29.1674C61.2412 29.2414 61.2875 29.0933 61.2644 29.1674C61.2604 29.1917 61.2683 29.143 61.2644 29.1674C61.237 29.2666 61.2917 29.0681 61.2644 29.1674C61.2593 29.1948 61.2694 29.1399 61.2644 29.1674C61.2418 29.2396 61.287 29.0951 61.2644 29.1674C61.2578 29.2039 61.271 29.1307 61.2644 29.1674C61.2446 29.2298 61.2841 29.1049 61.2644 29.1674C61.2589 29.1916 61.2699 29.1432 61.2644 29.1674C61.2349 29.2794 61.2939 29.0553 61.2644 29.1674C61.2574 29.2042 61.2713 29.1306 61.2644 29.1674C61.2435 29.2296 61.2852 29.1052 61.2644 29.1674C61.2604 29.1918 61.2683 29.1429 61.2644 29.1674C61.2079 29.3783 61.3209 28.9564 61.2644 29.1674C61.2602 29.1921 61.2686 29.1426 61.2644 29.1674C61.2076 29.378 61.3212 28.9568 61.2644 29.1674C61.2593 29.1922 61.2694 29.1426 61.2644 29.1674C61.2438 29.2293 61.285 29.1054 61.2644 29.1674C61.258 29.2039 61.2706 29.1308 61.2644 29.1674C61.2091 29.3661 61.3195 28.9686 61.2644 29.1674C61.2597 29.1921 61.2689 29.1427 61.2644 29.1674C61.2418 29.2417 61.2869 29.0932 61.2644 29.1674C61.2602 29.1917 61.2686 29.143 61.2644 29.1674C61.2354 29.2794 61.2934 29.0553 61.2644 29.1674C61.2592 29.1923 61.2695 29.1424 61.2644 29.1674C61.2445 29.2291 61.2844 29.1056 61.2644 29.1674C61.2574 29.2042 61.2713 29.1306 61.2644 29.1674C61.2096 29.3657 61.319 28.9689 61.2644 29.1674C61.2574 29.2042 61.2713 29.1306 61.2644 29.1674C61.2435 29.2295 61.2853 29.1053 61.2644 29.1674C61.2599 29.1918 61.2688 29.1429 61.2644 29.1674C61.207 29.3782 60.1538 33.3509 60.0965 33.5618C60.0925 33.5864 60.0886 33.611 60.0845 33.6355C60.0294 33.8217 59.9742 34.0076 59.919 34.1936C59.913 34.2183 59.9069 34.243 59.9009 34.2678C59.8629 34.3664 59.8246 34.4651 59.7865 34.5638C59.7784 34.5791 59.7701 34.5943 59.762 34.6095C59.671 34.8172 59.5799 35.0249 59.4889 35.2325C59.4574 35.2983 59.4261 35.3642 59.3947 35.43C59.3389 35.5374 59.2831 35.6449 59.2274 35.7523C59.2202 35.768 59.2131 35.7837 59.2059 35.7993C59.1662 35.8706 59.1265 35.942 59.0867 36.0134C59.0724 36.0161 59.0664 36.0249 59.0687 36.0393C59.0531 36.0679 59.0375 36.0967 59.0221 36.1255C58.9955 36.1646 58.9691 36.204 58.9426 36.2433C58.9141 36.2903 58.8856 36.3371 58.8572 36.3842C58.8451 36.3897 58.8413 36.3987 58.8459 36.4112C58.8242 36.4392 58.8026 36.4674 58.7809 36.4955C58.7276 36.5771 58.6741 36.6586 58.6208 36.7403C58.6011 36.7703 58.5816 36.8003 58.5621 36.8302C58.4979 36.9187 58.4338 37.0072 58.3697 37.0957C58.3233 37.1559 58.2771 37.2163 58.2307 37.2764C58.2174 37.2811 58.2121 37.2902 58.215 37.304C58.1913 37.3315 58.1676 37.3588 58.144 37.3862C58.117 37.4184 58.0901 37.4504 58.0631 37.4825C58.0297 37.525 57.9961 37.5675 57.9627 37.6099C57.9468 37.6297 57.9309 37.6496 57.9151 37.6695C57.8699 37.724 57.8246 37.7785 57.7794 37.8331C57.7261 37.8913 57.6727 37.9497 57.6195 38.0079C57.5945 38.0344 57.5693 38.061 57.5442 38.0875L57.5453 38.0866C57.4973 38.1376 57.4491 38.1889 57.401 38.2401L57.4007 38.2403C57.3772 38.2656 57.3537 38.2909 57.3302 38.3162L57.3283 38.3181C57.3043 38.3422 57.2804 38.3663 57.2565 38.3905C57.169 38.4779 57.0812 38.5653 56.9937 38.6528C56.9423 38.6999 56.891 38.7471 56.8395 38.7942L56.8404 38.7935C56.8138 38.8183 56.7873 38.8431 56.7607 38.8679C56.6774 38.945 56.5941 39.0217 56.5108 39.0988C56.4547 39.1443 56.3986 39.1898 56.3427 39.2353C56.213 39.3403 56.0834 39.4453 55.9537 39.5503C55.9253 39.5704 55.8968 39.5905 55.8684 39.6108C55.8472 39.6267 55.826 39.6427 55.8048 39.6585C55.6151 39.7909 55.4255 39.9236 55.2359 40.0561C55.2218 40.054 55.2134 40.0601 55.2112 40.0743C55.1807 40.0923 55.1501 40.1102 55.1195 40.1282L55.1045 40.1299L55.0993 40.1441C55.0061 40.2004 54.913 40.2566 54.82 40.3129L54.8059 40.3148L54.8019 40.3284C54.6285 40.4264 54.4548 40.5246 54.2814 40.6226C54.2444 40.6375 54.2076 40.6523 54.1707 40.6671C53.8735 40.8013 53.576 40.9354 53.2786 41.0696C53.2544 41.076 53.2301 41.0823 53.2059 41.0886C53.0444 41.1446 52.8831 41.2006 52.7218 41.2563C52.6973 41.2618 52.673 41.2673 52.6485 41.2729C52.5986 41.2918 52.5486 41.3107 52.4986 41.3298C52.4618 41.3364 52.4251 41.3428 52.3885 41.3496C52.1279 41.4047 51.8673 41.4599 51.6069 41.5151C51.5577 41.5192 51.5085 41.5232 51.4592 41.5274C51.2365 41.55 51.0138 41.5723 50.7911 41.5948C46.1593 41.5985 41.5278 41.6023 36.8961 41.6061C36.8647 41.6367 36.8334 41.6674 36.802 41.6981C36.7978 41.7226 36.7936 41.747 36.7894 41.7715C36.7601 41.8833 35.2852 47.4048 35.2559 47.5165C35.2505 47.5417 35.2611 47.4914 35.2559 47.5165C35.2323 47.5904 35.2795 47.4427 35.2559 47.5165C35.2522 47.541 35.2596 47.4919 35.2559 47.5165C35.2009 47.7149 35.3107 47.318 35.2559 47.5165C35.2489 47.5535 35.2628 47.4797 35.2559 47.5165C35.2355 47.5788 35.2763 47.4541 35.2559 47.5165C35.2515 47.541 35.2604 47.4921 35.2559 47.5165C35.1992 47.7274 35.3126 47.3058 35.2559 47.5165C35.2513 47.541 35.2604 47.4919 35.2559 47.5165C35.236 47.5788 35.2758 47.4544 35.2559 47.5165C35.2503 47.541 35.2616 47.4921 35.2559 47.5165C35.2264 47.6284 35.2854 47.4045 35.2559 47.5165C35.2484 47.5535 35.2632 47.4797 35.2559 47.5165C35.2348 47.5785 35.2768 47.4544 35.2559 47.5165C35.2517 47.541 35.2599 47.4921 35.2559 47.5165C35.2011 47.7149 35.3107 47.318 35.2559 47.5165C35.2491 47.5535 35.2628 47.4794 35.2559 47.5165C35.236 47.5788 35.2756 47.4544 35.2559 47.5165C35.2505 47.5408 35.2611 47.4921 35.2559 47.5165C35.2248 47.6408 35.2871 47.3924 35.2559 47.5165C35.2503 47.541 35.2616 47.4919 35.2559 47.5165C35.2358 47.5788 35.2758 47.4544 35.2559 47.5165C35.2517 47.5413 35.2601 47.4919 35.2559 47.5165C35.2004 47.7147 35.3112 47.3182 35.2559 47.5165C35.2489 47.5535 35.2628 47.4794 35.2559 47.5165C35.2351 47.5785 35.2768 47.4544 35.2559 47.5165C35.2513 47.541 35.2604 47.4921 35.2559 47.5165C35.1985 47.7274 35.3133 47.3058 35.2559 47.5165C35.252 47.5413 35.2599 47.4919 35.2559 47.5165C35.1995 47.7274 35.3121 47.3058 35.2559 47.5165C35.2508 47.5413 35.2608 47.4919 35.2559 47.5165C35.2355 47.5785 35.2763 47.4544 35.2559 47.5165C35.251 47.541 35.2606 47.4919 35.2559 47.5165C35.1984 47.7272 35.3133 47.306 35.2559 47.5165C35.2515 47.5413 35.2601 47.4919 35.2559 47.5165C35.2355 47.5788 35.2761 47.4544 35.2559 47.5165C35.2505 47.5408 35.2613 47.4921 35.2559 47.5165C35.2245 47.6408 35.2876 47.3924 35.2559 47.5165C35.2505 47.541 35.2613 47.4921 35.2559 47.5165C35.2353 47.5788 35.2763 47.4544 35.2559 47.5165C35.252 47.5413 35.2599 47.4919 35.2559 47.5165C35.1995 47.7274 35.3121 47.3058 35.2559 47.5165C35.2513 47.5413 35.2606 47.4916 35.2559 47.5165C35.2353 47.5785 35.2763 47.4546 35.2559 47.5165C35.2491 47.553 35.2628 47.4799 35.2559 47.5165C35.2281 47.6162 35.2835 47.417 35.2559 47.5165C35.2508 47.542 35.2611 47.4912 35.2559 47.5165C35.2328 47.5902 35.2788 47.443 35.2559 47.5165C35.2515 47.5413 35.2601 47.4919 35.2559 47.5165C35.1988 47.7272 33.7416 53.1903 33.6847 53.4011C33.6798 53.4257 33.6749 53.4502 33.67 53.4748C33.5783 53.509 33.4866 53.573 33.3948 53.5731C29.7147 53.578 26.0346 53.5756 22.3545 53.5796C21.9193 53.58 21.3796 53.7196 21.71 52.9502C21.715 52.9254 21.7201 52.9007 21.7252 52.876C21.7451 52.8139 21.7649 52.7519 21.7848 52.6899C21.7915 52.6533 22.9586 48.2547 22.9654 48.2181C22.9103 48.4167 23.0205 48.0195 22.9654 48.2181C22.9588 48.2549 22.972 48.1814 22.9654 48.2181C22.9441 48.2803 22.9868 48.1559 22.9654 48.2181C22.9613 48.2423 22.9695 48.1938 22.9654 48.2181C22.936 48.3303 22.9949 48.1059 22.9654 48.2181C22.9604 48.2429 22.9704 48.1933 22.9654 48.2181C22.9455 48.2801 22.9854 48.1563 22.9654 48.2181C22.9586 48.2548 22.9722 48.1814 22.9654 48.2181C22.9112 48.4167 23.0196 48.0195 22.9654 48.2181C22.9586 48.255 22.9722 48.1812 22.9654 48.2181C22.9453 48.2803 22.9855 48.1559 22.9654 48.2181C22.9606 48.2426 22.9702 48.1937 22.9654 48.2181C22.9364 48.3299 22.9944 48.1064 22.9654 48.2181C22.9601 48.2434 22.9707 48.1928 22.9654 48.2181C22.9424 48.2918 22.9884 48.1444 22.9654 48.2181C22.9612 48.2428 22.9696 48.1935 22.9654 48.2181C22.9105 48.4165 23.0202 48.0197 22.9654 48.2181C22.9584 48.2551 22.9723 48.1812 22.9654 48.2181C22.9451 48.2803 22.9858 48.156 22.9654 48.2181C22.9606 48.2426 22.9702 48.1937 22.9654 48.2181C22.9094 48.4289 23.0214 48.0073 22.9654 48.2181C22.9606 48.2429 22.9702 48.1933 22.9654 48.2181C22.9427 48.2923 22.9879 48.1439 22.9654 48.2181C22.961 48.2424 22.9698 48.1938 22.9654 48.2181C22.9359 48.3302 22.9949 48.106 22.9654 48.2181C22.9604 48.243 22.9704 48.1932 22.9654 48.2181C22.942 48.2921 22.9888 48.1442 22.9654 48.2181C22.9618 48.2426 22.969 48.1937 22.9654 48.2181C22.9105 48.4167 23.0203 48.0195 22.9654 48.2181C22.9587 48.2549 22.9721 48.1813 22.9654 48.2181C22.9447 48.2803 22.9861 48.1558 22.9654 48.2181C22.9608 48.2426 22.9699 48.1938 22.9654 48.2181C22.9367 48.3301 22.994 48.1063 22.9654 48.2181C22.9604 48.2434 22.9705 48.1929 22.9654 48.2181C22.9432 48.2919 22.9876 48.1444 22.9654 48.2181C22.9607 48.2428 22.9701 48.1935 22.9654 48.2181C22.9109 48.4163 23.0198 48.0199 22.9654 48.2181C22.9581 48.2553 22.9727 48.1811 22.9654 48.2181C22.9448 48.2801 22.986 48.156 22.9654 48.2181C22.9717 48.1815 25.4848 38.7189 25.4911 38.6824C25.4359 38.8811 25.5464 38.4836 25.4911 38.6824C25.4867 38.7071 25.4956 38.6577 25.4911 38.6824C25.4351 38.893 25.5472 38.4717 25.4911 38.6824C25.4862 38.7073 25.4961 38.6573 25.4911 38.6824C25.4685 38.7563 25.5138 38.6083 25.4911 38.6824C25.4872 38.7069 25.4951 38.6578 25.4911 38.6824C25.4365 38.8807 25.5458 38.484 25.4911 38.6824C25.4841 38.7193 25.4981 38.6453 25.4911 38.6824C25.4703 38.7446 25.5119 38.6202 25.4911 38.6824C25.4863 38.7067 25.4958 38.658 25.4911 38.6824C25.4337 38.8932 25.5486 38.4715 25.4911 38.6824C25.4873 38.7071 25.4951 38.6578 25.4911 38.6824C25.4349 38.8932 25.5474 38.4715 25.4911 38.6824C25.4862 38.7071 25.4961 38.6577 25.4911 38.6824C25.4715 38.7445 25.5108 38.6203 25.4911 38.6824C25.4842 38.719 25.498 38.6457 25.4911 38.6824C25.4361 38.881 25.5462 38.4838 25.4911 38.6824C25.4846 38.719 25.4979 38.6457 25.4911 38.6824C25.4703 38.7447 25.5121 38.62 25.4911 38.6824C25.4866 38.7067 25.4957 38.6582 25.4911 38.6824C25.4617 38.7944 25.5205 38.5703 25.4911 38.6824C25.4861 38.7073 25.4962 38.6574 25.4911 38.6824C25.4679 38.7564 25.5144 38.6083 25.4911 38.6824C25.4875 38.7068 25.4949 38.6579 25.4911 38.6824C25.437 38.881 25.5453 38.4838 25.4911 38.6824C25.4844 38.7194 25.4979 38.6453 25.4911 38.6824C25.4709 38.7446 25.5114 38.6202 25.4911 38.6824C25.4861 38.7068 25.4961 38.6579 25.4911 38.6824C25.4621 38.7942 25.5201 38.5705 25.4911 38.6824C25.486 38.7078 25.4964 38.657 25.4911 38.6824C25.4684 38.7561 25.514 38.6087 25.4911 38.6824C25.4867 38.7069 25.4956 38.6578 25.4911 38.6824C25.4341 38.8931 25.5482 38.4715 25.4911 38.6824C25.4867 38.7071 25.4956 38.6577 25.4911 38.6824C25.4711 38.7446 25.5112 38.6202 25.4911 38.6824C25.4842 38.7188 25.4981 38.6459 25.4911 38.6824C25.437 38.8812 25.5453 38.4835 25.4911 38.6824C25.4843 38.7193 25.4979 38.6456 25.4911 38.6824C25.4704 38.7446 25.5119 38.6202 25.4911 38.6824C25.4863 38.7067 25.4958 38.658 25.4911 38.6824C25.5203 38.5703 26.73 34.003 26.7591 33.891C26.7642 33.8659 26.7692 33.8409 26.7742 33.8158C26.7976 33.742 26.8211 33.6681 26.8445 33.5941C26.8482 33.5695 26.852 33.545 26.8557 33.5206C26.9124 33.3216 26.969 33.1229 27.0257 32.9238C27.0241 32.8995 27.0227 32.875 27.0211 32.8506C26.9557 32.8347 26.8902 32.8048 26.8248 32.8048C20.0396 32.8028 13.2542 32.8035 6.46894 32.7983C6.3715 32.7982 6.27405 32.7259 6.17661 32.6873C6.13334 32.6316 6.08995 32.5761 6.0468 32.5204C6.02715 32.4916 6.00761 32.4626 5.98807 32.4337C5.94505 32.376 2.94298 28.2381 2.89995 28.1803C2.86867 28.1389 2.93123 28.2218 2.89995 28.1803C2.90486 28.1676 2.91289 28.1843 2.89995 28.1803C2.8423 28.1016 2.9576 28.2592 2.89995 28.1803C2.90438 28.1675 2.91325 28.1831 2.89995 28.1803C2.84254 28.1014 2.95736 28.2592 2.89995 28.1803C2.82048 28.0736 2.97941 28.2871 2.89995 28.1803C2.74461 27.964 3.05528 28.3967 2.89995 28.1803C2.85908 28.1241 2.94082 28.2366 2.89995 28.1803C2.87885 28.1501 2.92104 28.2106 2.89995 28.1803C2.85632 28.1241 2.94346 28.2367 2.89995 28.1803C2.88125 28.1507 2.91865 28.2101 2.89995 28.1803C2.8562 28.1234 2.9437 28.2374 2.89995 28.1803C2.83331 28.0864 2.96659 28.2743 2.89995 28.1803C2.87718 28.1523 2.92272 28.2084 2.89995 28.1803C2.90426 28.1675 2.91277 28.1849 2.89995 28.1803C2.86843 28.1366 2.93147 28.2242 2.89995 28.1803C2.85728 28.1251 2.9425 28.2356 2.89995 28.1803C2.88029 28.1497 2.91961 28.211 2.89995 28.1803C2.85728 28.1244 2.94274 28.2363 2.89995 28.1803C2.88017 28.1509 2.91973 28.2098 2.89995 28.1803C2.85752 28.1232 2.94226 28.2376 2.89995 28.1803C2.86783 28.1389 2.93219 28.2218 2.89995 28.1803C2.90426 28.1678 2.91265 28.1842 2.89995 28.1803C2.86867 28.1358 2.93123 28.2249 2.89995 28.1803C2.87706 28.1521 2.92284 28.2086 2.89995 28.1803C2.90378 28.1674 2.91289 28.1843 2.89995 28.1803C2.84302 28.1011 2.95688 28.2596 2.89995 28.1803C2.88413 28.1605 2.91577 28.2002 2.89995 28.1803C2.87897 28.1498 2.92092 28.2109 2.89995 28.1803C2.88005 28.1505 2.91985 28.2101 2.89995 28.1803C2.84697 28.1108 2.95293 28.2499 2.89995 28.1803C2.86843 28.1349 2.93147 28.2257 2.89995 28.1803C2.86903 28.1391 2.93099 28.2216 2.89995 28.1803C2.84254 28.1004 2.95748 28.2603 2.89995 28.1803C2.88497 28.1609 2.91493 28.1998 2.89995 28.1803C2.85332 28.1124 2.94657 28.2483 2.89995 28.1803C2.78441 28.0256 3.01549 28.3351 2.89995 28.1803C2.84254 28.0991 2.95736 28.2616 2.89995 28.1803C2.86891 28.1379 2.93099 28.2228 2.89995 28.1803C2.86903 28.136 2.93087 28.2247 2.89995 28.1803C2.87742 28.1523 2.92248 28.2084 2.89995 28.1803C2.88401 28.159 2.91589 28.2017 2.89995 28.1803C2.87969 28.1501 2.9202 28.2106 2.89995 28.1803C2.87897 28.1519 2.92092 28.2088 2.89995 28.1803C2.88353 28.1593 2.91637 28.2016 2.89995 28.1803C2.87957 28.1512 2.92032 28.2095 2.89995 28.1803C2.85764 28.1229 2.94226 28.2378 2.89995 28.1803C2.87981 28.1523 2.92008 28.2083 2.89995 28.1803C2.88413 28.1587 2.91577 28.202 2.89995 28.1803C2.8538 28.1156 2.94609 28.2451 2.89995 28.1803C2.88401 28.1583 0.456057 24.8144 0.440116 24.7923C0.382585 24.7135 0.325053 24.6346 0.267402 24.5557C0.25182 24.5356 0.236239 24.5155 0.220657 24.4952C0.199323 24.4652 0.177988 24.4353 0.156653 24.4052C0.141072 24.3855 0.125491 24.3659 0.109909 24.3462C0.0854583 24.3104 0.0608876 24.2744 0.0364367 24.2386L0.0342791 24.2358C0.0224132 24.1724 0.0111467 24.1083 0 24.0443Z" fill="#F2F2F2"/>
<path fill-rule="evenodd" clip-rule="evenodd" d="M57.4766 11C57.5139 11.0004 57.551 11.0008 57.5883 11.0012C57.8736 11.032 58.1587 11.0628 58.4438 11.0936C58.481 11.099 58.5179 11.1043 58.5551 11.1097C58.6417 11.1323 58.7283 11.155 58.8149 11.1777C58.8393 11.1818 58.8636 11.1859 58.8878 11.19C58.9875 11.2183 59.0871 11.2465 59.1868 11.2748C59.2116 11.2814 59.2365 11.288 59.2612 11.2946C59.3108 11.3151 59.3603 11.3357 59.4098 11.3562C59.4342 11.3618 59.4586 11.3675 59.4829 11.3731C59.9658 11.6204 60.4489 11.8675 60.9318 12.1147L60.9357 12.1285L60.9498 12.1309C60.9812 12.1509 61.0125 12.1709 61.0439 12.1909C61.0986 12.2332 61.1531 12.2755 61.2076 12.3178C61.2392 12.3392 61.2707 12.3604 61.3022 12.3817C61.4224 12.4829 61.5426 12.584 61.6629 12.6851C61.7037 12.7201 61.7446 12.7551 61.7854 12.7901C61.8599 12.8647 61.9346 12.9394 62.0092 13.0141C62.0336 13.0387 62.0579 13.0631 62.0824 13.0877L62.0832 13.0885C62.1702 13.186 62.257 13.2835 62.344 13.3811C62.4178 13.4693 62.4918 13.5575 62.5659 13.6457C62.5981 13.6913 62.6302 13.7369 62.6625 13.7826C62.6926 13.8236 62.7225 13.8646 62.7526 13.9056C62.7834 13.9521 62.8143 13.9985 62.845 14.0449C62.9584 14.2321 63.072 14.4193 63.1854 14.6064C63.2001 14.6355 63.2149 14.6645 63.2296 14.6936C63.2506 14.7389 63.2716 14.7844 63.2924 14.8298C63.3096 14.8572 63.3265 14.8848 63.3436 14.9123C63.3623 14.9591 63.3811 15.006 63.3998 15.053C63.5072 15.3392 63.6145 15.6254 63.7219 15.9116C63.7266 15.935 63.7314 15.9584 63.736 15.9818C63.758 16.0447 63.7797 16.1077 63.8015 16.1708C63.8076 16.2067 63.8138 16.2426 63.8198 16.2784C63.8748 16.5894 63.9298 16.9005 63.9847 17.2115C63.9899 17.3093 63.9949 17.4071 64 17.5049C63.9989 17.7806 63.9978 18.0562 63.9968 18.3319C63.993 18.4174 63.989 18.5028 63.9851 18.5884C63.9298 18.8994 63.8746 19.2105 63.8193 19.5215C63.8135 19.5573 63.8076 19.5933 63.8018 19.6291C63.7019 19.6609 63.602 19.7203 63.5022 19.7203C45.3302 19.7247 27.1582 19.7248 8.98626 19.725C8.77495 19.4454 6.08032 15.7553 5.86913 15.4756C5.83353 15.4259 5.90473 15.5253 5.86913 15.4756C5.84228 15.4387 5.89598 15.5125 5.86913 15.4756C5.83713 15.4335 5.90125 15.5177 5.86913 15.4756C5.8738 15.4636 5.88147 15.479 5.86913 15.4756C5.83749 15.4306 5.90077 15.5205 5.86913 15.4756C5.84636 15.4467 5.8919 15.5045 5.86913 15.4756C5.85355 15.4553 5.88471 15.4959 5.86913 15.4756C5.84839 15.4443 5.88986 15.5069 5.86913 15.4756C5.82742 15.4203 5.91084 15.5308 5.86913 15.4756C5.84815 15.4459 5.8901 15.5053 5.86913 15.4756C5.79122 15.3688 5.94704 15.5824 5.86913 15.4756C5.811 15.3962 5.92726 15.5549 5.86913 15.4756C5.85367 15.4558 5.88459 15.4954 5.86913 15.4756C5.84815 15.4442 5.8901 15.507 5.86913 15.4756C5.84815 15.4454 5.8901 15.5058 5.86913 15.4756C5.75371 15.3201 5.98455 15.631 5.86913 15.4756C5.81112 15.3959 5.92714 15.5553 5.86913 15.4756C5.83701 15.4314 5.90125 15.5198 5.86913 15.4756C5.84755 15.4453 5.8907 15.506 5.86913 15.4756C5.85355 15.4565 5.88471 15.4947 5.86913 15.4756C5.84755 15.4453 5.8907 15.5059 5.86913 15.4756C5.79122 15.3698 5.94704 15.5814 5.86913 15.4756C5.74903 15.3089 5.98935 15.6423 5.86913 15.4756C5.85463 15.4561 5.88363 15.4951 5.86913 15.4756C5.84695 15.4447 5.8913 15.5065 5.86913 15.4756C5.82802 15.4205 5.91036 15.5307 5.86913 15.4756C5.84767 15.4455 5.89058 15.5056 5.86913 15.4756C5.85343 15.4559 5.88483 15.4953 5.86913 15.4756C5.79673 15.3746 5.94152 15.5766 5.86913 15.4756C5.85175 15.4532 5.88651 15.498 5.86913 15.4756C5.80213 15.3815 5.93613 15.5697 5.86913 15.4756C5.82766 15.4208 5.9106 15.5304 5.86913 15.4756C5.84827 15.4444 5.88998 15.5068 5.86913 15.4756C5.82562 15.4202 5.91264 15.531 5.86913 15.4756C5.84983 15.4461 5.88831 15.5051 5.86913 15.4756C5.82634 15.4184 5.91192 15.5328 5.86913 15.4756C5.80213 15.381 5.93625 15.57 5.86913 15.4756C5.83856 15.4336 5.89969 15.5175 5.86913 15.4756C5.83761 15.431 5.90065 15.5202 5.86913 15.4756C5.82562 15.4212 5.91276 15.53 5.86913 15.4756C5.84935 15.4459 5.8889 15.5053 5.86913 15.4756C5.82646 15.4187 5.9118 15.5325 5.86913 15.4756C5.77564 15.3465 5.9625 15.6047 5.86913 15.4756C5.83737 15.4309 5.90089 15.5203 5.86913 15.4756C5.82622 15.4217 5.91204 15.5296 5.86913 15.4756C5.84899 15.4449 5.88926 15.5063 5.86913 15.4756C5.82682 15.4193 2.89547 11.4006 2.85328 11.3442C2.8214 11.3011 2.78951 11.2579 2.75775 11.2148L2.75967 11.2014L2.7478 11.1948C2.7828 11.1336 2.81792 11.0189 2.85292 11.0189C20.9315 11.0114 39.0101 11.0115 57.0886 11.011C57.2178 11.011 57.3471 11.0038 57.4766 11Z" fill="#F2F2F2"/>
<path fill-rule="evenodd" clip-rule="evenodd" d="M15.4398 37.2136C17.3462 37.2136 19.2524 37.2117 21.1586 37.2231C21.2143 37.2234 21.3308 37.3805 21.3158 37.4374C20.5959 40.1649 19.8644 42.8893 19.1346 45.6144C18.8359 46.7293 18.5387 47.8446 18.2389 48.9593C18.2287 48.9972 18.1969 49.0294 18.1752 49.0642C18.136 49.0295 18.0892 49.0008 18.059 48.9595C15.6828 45.7144 13.3079 42.4683 10.933 39.2222C10.4951 38.6239 10.0569 38.0259 9.62088 37.4262C9.58277 37.3739 9.55999 37.3103 9.53003 37.2522C9.59355 37.2395 9.6572 37.2154 9.72072 37.2153C11.6273 37.2133 13.5336 37.2136 15.4398 37.2136Z" fill="#CD324A"/>
</svg>
