<?xml version="1.0" encoding="utf-8"?>
<!-- Generator: Adobe Illustrator 23.0.2, SVG Export Plug-In . SVG Version: 6.00 Build 0)  -->
<svg version="1.1" id="Layer_1" xmlns="http://www.w3.org/2000/svg" xmlns:xlink="http://www.w3.org/1999/xlink" x="0px" y="0px"
	 width="64px" height="64px" viewBox="0 0 64 64" enable-background="new 0 0 64 64" xml:space="preserve">
<g>
	<g>
		<path fill="#57161D" d="M16.712,64c0-6.757,0.001-13.513-0.002-20.27c-0.004-10.719-0.014-21.438-0.007-32.157
			c0-0.482-0.098-0.648-0.613-0.631c-1.167,0.039-2.337,0.005-3.505,0.001c-0.016-0.506-0.032-1.012-0.048-1.519
			c0.039-0.38,0.068-0.761,0.117-1.139c0.402-3.084,1.727-5.573,4.59-7.051c1.331-0.687,2.772-0.97,4.252-1.097
			C21.656,0.123,21.869,0.231,21.973,0c0.365,0,0.731,0,1.096,0c0.442,0.26,0.941,0.148,1.411,0.198
			c1.206,0.128,1.207,0.109,1.208,1.293c0.005,8.379-0.018,16.758,0.027,25.137c0.025,4.539,3.631,8.116,8.183,8.26
			c0.888,0.028,0.747-0.103,0.75,0.769c0.007,2.574-0.007,5.148,0.012,7.722c0.003,0.429-0.101,0.549-0.544,0.544
			c-3.964-0.051-7.528-1.246-10.684-3.652c-0.114-0.087-0.255-0.325-0.398-0.164c-0.181,0.205,0.105,0.301,0.219,0.403
			c0.668,0.596,1.37,1.151,2.137,1.615c0.233,0.141,0.312,0.302,0.312,0.571c-0.008,4.929,0.016,9.858-0.019,14.786
			c-0.011,1.56-0.757,2.837-1.897,3.873c-1.5,1.363-3.347,1.952-5.289,2.328C17.939,63.791,17.35,63.74,16.822,64
			C16.785,64,16.749,64,16.712,64z M19.625,36.43c0.023,0.039,0.046,0.078,0.069,0.117c0.126,0.176,0.253,0.352,0.379,0.528
			c0.029,0.082,0.083,0.19,0.166,0.144c0.134-0.075,0.028-0.165-0.036-0.238c-0.13-0.173-0.259-0.345-0.389-0.518
			c-0.028-0.044-0.056-0.088-0.084-0.131c-0.041-0.041-0.073-0.129-0.147-0.062C19.513,36.332,19.588,36.381,19.625,36.43z
			 M22.386,38.388c0.011,0.065,0.046,0.102,0.116,0.099l-0.003-0.001c-0.004,0.148,0.107,0.226,0.199,0.309
			c1.58,1.432,3.35,2.566,5.337,3.345c1.758,0.689,3.577,1.101,5.47,1.165c0.348,0.012,0.545-0.042,0.522-0.462
			c-0.037-0.654-0.023-1.31-0.031-1.965c0.007-1.66,0.006-3.32,0.027-4.98c0.004-0.32-0.113-0.388-0.407-0.401
			c-0.915-0.042-1.809-0.216-2.667-0.546c-3.608-1.386-5.877-4.67-5.882-8.544c-0.009-6.587-0.005-13.174-0.01-19.762
			C25.057,5.388,25.04,4.129,25.03,2.87c0.007-0.492-0.016-0.986,0.028-1.474c0.042-0.472-0.178-0.594-0.594-0.618
			c-1.054-0.061-2.105-0.125-3.159-0.006c-2.308,0.261-4.417,0.961-6.006,2.765c-1.233,1.4-1.872,3.051-1.966,4.914
			c-0.058,0.488-0.137,0.973-0.145,1.468c-0.005,0.309,0.084,0.403,0.395,0.398c1.076-0.017,2.153,0.012,3.228-0.016
			c0.399-0.01,0.536,0.081,0.527,0.506c-0.029,1.386-0.017,2.772-0.012,4.159c0.016,4.195-0.138,8.394,0.061,12.584
			c0.195,4.107,1.813,7.657,4.703,10.606c0.036,0.03,0.073,0.06,0.109,0.09l-0.009-0.007c0.03,0.094,0.095,0.143,0.193,0.148
			l0.016-0.032L22.386,38.388z M20.806,38.006c0.049,0.054,0.098,0.108,0.148,0.163c0.471,0.615,0.995,1.18,1.592,1.675
			c0.046,0.053,0.085,0.117,0.141,0.157c0.101,0.072,0.198,0.272,0.337,0.099c0.105-0.13-0.068-0.206-0.149-0.284
			c-0.05-0.048-0.114-0.082-0.172-0.122c-0.549-0.549-1.098-1.098-1.647-1.647c-0.05-0.052-0.099-0.105-0.149-0.157
			c-0.068-0.142-0.154-0.245-0.379-0.14C20.631,37.842,20.718,37.924,20.806,38.006z M19.375,35.803
			c-0.035-0.031-0.093-0.095-0.103-0.089c-0.083,0.056-0.031,0.116,0.008,0.174c0.063,0.124,0.093,0.283,0.291,0.306
			C19.569,35.999,19.473,35.901,19.375,35.803z M25.038,55.457c0.007-4.143,0.011-8.286,0.025-12.429
			c0.001-0.264-0.068-0.435-0.299-0.582c-1.961-1.254-3.581-2.874-4.969-4.729c-1.065-1.424-2.014-2.913-2.351-4.705
			c0.005-0.099-0.023-0.17-0.139-0.169c0.002,0.065,0.003,0.131,0.005,0.196c0.004,0.164,0.012,0.328,0.012,0.492
			c-0.003,8.796-0.007,17.591-0.008,26.387c0,0.235,0.027,0.47,0.041,0.705c-0.002,0.729-0.002,1.457-0.008,2.186
			c-0.002,0.244-0.003,0.399,0.352,0.352c1.494-0.199,2.928-0.581,4.259-1.295c1.545-0.83,2.686-2.003,3.018-3.794
			C25.137,57.209,25.048,56.33,25.038,55.457z M19.053,35.596c0.046,0.021,0.09,0.04,0.133,0.06c0.01-0.029,0.035-0.077,0.028-0.082
			c-0.034-0.026-0.077-0.044-0.119-0.056C19.09,35.516,19.07,35.564,19.053,35.596z"/>
		<path fill="#56161D" d="M51.562,27.945c-0.257,0.531-0.222,1.119-0.318,1.68c-1.308,7.623-7.996,13.682-15.705,14.232
			c-0.459,0.033-0.536-0.093-0.533-0.512c0.018-2.648,0.022-5.296-0.004-7.943c-0.004-0.45,0.147-0.573,0.557-0.648
			c3.919-0.719,6.803-4.006,6.927-7.866c0.131-4.055-2.443-7.519-6.334-8.524c-3.346-0.864-6.929,0.466-8.928,3.319
			c-0.396,0.565-0.775,1.142-1.165,1.718c-0.192-0.125-0.108-0.285-0.108-0.412c-0.005-3.798,0.001-7.596-0.014-11.395
			c-0.001-0.365,0.114-0.544,0.437-0.706c10.6-5.305,23.491,1.571,24.998,13.334c0.042,0.327-0.041,0.689,0.188,0.983
			C51.562,26.119,51.562,27.032,51.562,27.945z M42.13,11.837l0.01,0.005c-0.042-0.108-0.124-0.134-0.23-0.11l0.007,0.004
			c-0.102-0.2-0.317-0.234-0.49-0.32c-1.766-0.876-3.635-1.391-5.595-1.596c-3.126-0.326-6.099,0.213-8.941,1.533
			c-0.2,0.093-0.321,0.206-0.315,0.451c0.021,0.82,0.025,1.641,0.035,2.461c0,2.326,0,4.652,0,6.978c0.066,0,0.09,0.007,0.097-0.001
			c0.107-0.122,0.212-0.246,0.316-0.37c2.267-2.694,5.157-3.844,8.625-3.264c4.267,0.714,7.382,4.341,7.49,8.554
			c0.114,4.421-2.728,8.105-7.061,9.131c-0.328,0.078-0.435,0.197-0.433,0.537c0.016,2.3,0.02,4.6-0.002,6.9
			c-0.004,0.434,0.152,0.458,0.51,0.41c9.448-1.257,15.939-9.744,14.516-19.159c-0.803-5.312-3.618-9.348-8.305-12.038
			C42.311,11.854,42.232,11.821,42.13,11.837z"/>
		<path fill="#F3EEEF" d="M12.438,9.425c0.033-0.002,0.066-0.002,0.099-0.001c0.016,0.506,0.032,1.012,0.048,1.519
			c-0.049,0.005-0.098,0.011-0.147,0.016C12.438,10.447,12.438,9.936,12.438,9.425z"/>
		<path fill="#FEFDFD" d="M22.091,38.157c-2.89-2.949-4.508-6.5-4.703-10.606c-0.199-4.19-0.045-8.389-0.061-12.584
			c-0.005-1.386-0.017-2.773,0.012-4.159c0.009-0.425-0.128-0.517-0.527-0.506c-1.076,0.028-2.152-0.001-3.228,0.016
			c-0.311,0.005-0.4-0.089-0.395-0.398c0.008-0.496,0.087-0.98,0.145-1.469c0.83-3.094,3.008-4.685,5.998-5.355
			c1.884-0.422,3.787-0.452,5.699-0.225c0.009,1.259,0.026,2.517,0.027,3.776c0.005,6.587,0.001,13.174,0.01,19.762
			c0.005,3.873,2.274,7.158,5.882,8.544c0.858,0.329,1.752,0.504,2.667,0.546c0.294,0.014,0.411,0.081,0.407,0.401
			c-0.021,1.66-0.02,3.32-0.027,4.98c-3.198,0.636-6.277,0.265-9.22-1.133c-0.782-0.372-1.519-0.837-2.277-1.259
			c0,0,0.003,0.001,0.003,0.001c0.008-0.088-0.037-0.114-0.116-0.099l0.014-0.033c0,0-0.016,0.032-0.016,0.032
			c-0.015-0.113-0.091-0.147-0.193-0.148c0,0,0.009,0.007,0.009,0.007C22.193,38.18,22.154,38.154,22.091,38.157z"/>
		<path fill="#FEFDFD" d="M17.356,60.623c-0.014-0.235-0.041-0.47-0.041-0.705c0.001-8.796,0.005-17.591,0.008-26.387
			c0-0.164-0.008-0.328-0.012-0.491c0.06,0.062,0.095,0.007,0.135-0.028c0.337,1.791,1.286,3.281,2.351,4.705
			c1.388,1.855,3.007,3.475,4.969,4.729c0.231,0.148,0.299,0.319,0.299,0.582c-0.014,4.143-0.018,8.286-0.025,12.429
			c-0.365,1.669-1.349,2.873-2.811,3.703C20.717,60.016,19.084,60.481,17.356,60.623z"/>
		<path fill="#F81B2F" d="M25.03,2.87c-1.912-0.226-3.815-0.197-5.699,0.225c-2.99,0.669-5.167,2.26-5.998,5.355
			c0.094-1.862,0.733-3.514,1.966-4.913c1.589-1.804,3.698-2.504,6.006-2.765c1.054-0.119,2.106-0.055,3.159,0.006
			c0.415,0.024,0.636,0.147,0.594,0.618C25.015,1.884,25.037,2.379,25.03,2.87z"/>
		<path fill="#EE293C" d="M17.356,60.623c1.728-0.142,3.361-0.607,4.871-1.464c1.462-0.83,2.447-2.034,2.811-3.703
			c0.009,0.873,0.098,1.752-0.061,2.615c-0.331,1.791-1.473,2.964-3.018,3.794c-1.331,0.715-2.765,1.097-4.259,1.295
			c-0.355,0.047-0.354-0.108-0.352-0.352C17.354,62.081,17.354,61.352,17.356,60.623z"/>
		<path fill="#F71D31" d="M22.499,38.486c0.758,0.422,1.495,0.887,2.277,1.259c2.943,1.399,6.022,1.77,9.22,1.133
			c0.008,0.655-0.006,1.312,0.031,1.965c0.024,0.42-0.174,0.474-0.522,0.462c-1.894-0.064-3.713-0.476-5.47-1.165
			c-1.988-0.779-3.757-1.912-5.337-3.345C22.606,38.712,22.495,38.635,22.499,38.486z"/>
		<path fill="#EE293C" d="M17.446,33.012c-0.039,0.035-0.074,0.09-0.135,0.028c-0.002-0.067-0.003-0.132-0.005-0.197
			C17.423,32.842,17.451,32.913,17.446,33.012z"/>
		<path fill="#F71D31" d="M22.191,38.239c0.101,0.001,0.177,0.035,0.193,0.148C22.285,38.382,22.221,38.333,22.191,38.239z"/>
		<path fill="#F71D31" d="M22.091,38.157c0.063-0.003,0.103,0.023,0.109,0.09C22.163,38.217,22.127,38.187,22.091,38.157z"/>
		<path fill="#F71D31" d="M22.386,38.388c0.079-0.015,0.124,0.011,0.116,0.099C22.432,38.491,22.397,38.454,22.386,38.388z"/>
		<path fill="#FDFDFD" d="M42.365,11.944c4.686,2.689,7.502,6.725,8.305,12.038c1.422,9.416-5.068,17.902-14.516,19.159
			c-0.359,0.048-0.514,0.025-0.51-0.41c0.022-2.3,0.018-4.6,0.002-6.9c-0.002-0.34,0.105-0.46,0.433-0.537
			c4.333-1.026,7.175-4.71,7.061-9.131c-0.109-4.213-3.223-7.84-7.49-8.554c-3.468-0.58-6.357,0.57-8.625,3.264
			c-0.105,0.124-0.21,0.248-0.316,0.37c-0.007,0.008-0.031,0.001-0.097,0.001c0-2.326,0-4.652,0-6.978
			c0.933-0.606,1.903-1.143,2.915-1.605c3.285-1.499,6.699-2.066,10.276-1.401c0.71,0.132,1.41,0.317,2.114,0.477
			c0,0-0.007-0.004-0.007-0.004c0.031,0.132,0.128,0.126,0.23,0.11c0,0-0.01-0.005-0.01-0.005
			C42.177,11.941,42.268,11.95,42.365,11.944z"/>
		<path fill="#F81C31" d="M41.917,11.736c-0.705-0.16-1.405-0.345-2.114-0.477c-3.578-0.665-6.991-0.098-10.276,1.401
			c-1.012,0.462-1.982,1-2.915,1.605c-0.01-0.82-0.014-1.641-0.035-2.461c-0.006-0.245,0.116-0.358,0.315-0.451
			c2.842-1.32,5.815-1.859,8.941-1.533c1.96,0.205,3.829,0.72,5.595,1.596C41.6,11.502,41.815,11.536,41.917,11.736z"/>
		<path fill="#F81C31" d="M42.14,11.842c-0.102,0.016-0.199,0.022-0.23-0.11C42.015,11.708,42.097,11.734,42.14,11.842z"/>
		<path fill="#F81C31" d="M42.365,11.944c-0.098,0.007-0.188-0.002-0.236-0.106C42.232,11.821,42.311,11.854,42.365,11.944z"/>
	</g>
</g>
</svg>
