<?xml version="1.0" encoding="utf-8"?>
<!-- Generator: Adobe Illustrator 22.0.0, SVG Export Plug-In . SVG Version: 6.00 Build 0)  -->
<svg version="1.1" id="Camada_1" xmlns="http://www.w3.org/2000/svg" xmlns:xlink="http://www.w3.org/1999/xlink" x="0px" y="0px"
	 width="64px" height="64px" viewBox="0 0 64 64" enable-background="new 0 0 64 64" xml:space="preserve">
<g>
	<g>
		<path fill="#FEE402" d="M48.551,29.613c0.644,1.345,0.914,2.794,1.077,4.253c0.876,7.854-2.428,13.783-8.544,18.396
			c-0.478,0.361-0.975,0.696-1.462,1.045c-0.013,0.009-0.013,0.036-0.044,0.129c2.03-0.343,3.942-0.906,5.753-1.948
			c-0.735,1.884-5.132,5.713-7.52,6.595c-0.011-0.034-0.041-0.076-0.03-0.101c0.416-0.991,0.137-1.463-0.945-1.546
			c-1.552-0.119-3.013,0.291-4.439,0.836c-2.544,0.971-4.8,2.364-6.473,4.57c-0.496,0.654-0.886,1.369-1.132,2.158
			c-0.04,0-0.08,0-0.12,0c-0.795-3.68-0.243-7.137,1.729-10.354c0.186-0.303,0.368-0.614,0.682-0.889
			c0.062,0.523,0.105,1.009,0.184,1.49c0.03,0.183,0.052,0.437,0.292,0.473c0.205,0.031,0.283-0.19,0.395-0.323
			c0.395-0.474,0.786-0.951,1.179-1.427c0.206,0.016,0.327-0.136,0.462-0.246c0.805-0.661,1.669-1.238,2.554-1.785
			c2.431-1.501,4.932-2.891,7.25-4.569c1.619-1.172,3.285-2.303,4.567-3.862c1.778-2.162,2.683-4.739,3.395-7.4
			C47.847,33.295,48.133,31.44,48.551,29.613z"/>
		<path fill="#FFFFFF" d="M24.931,46.857c-0.438,1.412-0.847,2.831-0.583,4.333c0.08,0.453-0.051,0.609-0.517,0.664
			c-3.825,0.449-8.243-1.724-9.328-5.838c-0.457-1.731-0.289-3.433,0.165-5.135c0.555-2.082,2.536-5.709,4.038-7.267
			c-0.083,1.035-0.465,1.952-0.279,2.917c0.341-0.589,0.553-1.224,0.906-1.795c0.89-1.438,2.059-2.645,3.195-3.877
			c0.867-0.94,1.765-1.851,2.578-2.839c1.05-1.275,1.212-2.841,0.438-4.172c-0.462-0.795-1.156-0.913-1.733-0.214
			c-0.331,0.401-0.508,0.223-0.729-0.024c-0.72-0.806-0.922-1.808-0.955-2.834c-0.079-2.475,0.815-4.643,2.217-6.628
			c0.928-1.314,2.095-2.4,3.288-3.472c2.501-2.247,4.053-5.003,4.274-8.418C31.956,1.506,31.794,0.764,31.774,0
			c0.733,0.93,1.215,1.97,1.449,3.12c0.301,1.481,0.16,2.939-0.287,4.374c-0.195,0.625-0.393,1.249-0.59,1.874
			c-0.115,0.069-0.162,0.157-0.08,0.282c-0.003,0.03-0.012,0.057-0.029,0.083c-0.212,0.106-0.195,0.337-0.259,0.513
			c-0.344,0.954-0.601,1.932-0.824,2.922c-0.505,2.234-0.381,4.395,0.767,6.413c0.63,1.107,1.307,2.195,2.056,3.224
			c0.721,0.992,1.337,2.035,1.828,3.149c0.6,1.361,0.781,2.806,0.501,4.262c-0.368,1.916-1.563,3.276-3.161,4.308
			c-1.47,0.949-2.736,2.132-3.858,3.453c-1.747,2.057-2.992,4.417-3.852,6.968c-0.178,0.529-0.495,1.051-0.393,1.656
			c0,0,0.001-0.002,0.001-0.002C24.896,46.638,24.87,46.729,24.931,46.857z"/>
		<path fill="#58748B" d="M25.043,46.603c-0.102-0.605,0.215-1.127,0.393-1.656c0.86-2.552,2.105-4.911,3.852-6.968
			c1.122-1.321,2.389-2.504,3.858-3.453c1.598-1.032,2.792-2.392,3.161-4.308c0.28-1.456,0.099-2.901-0.501-4.262
			c-0.491-1.114-1.106-2.157-1.828-3.149c-0.748-1.029-1.426-2.117-2.056-3.224c-1.149-2.019-1.272-4.179-0.767-6.413
			c0.224-0.99,0.481-1.968,0.824-2.922c0.064-0.177,0.046-0.407,0.259-0.513c0.033,0.469-0.165,0.897-0.244,1.346
			c-0.509,2.903,0.385,5.358,2.368,7.464c0.507,0.538,1.065,1.027,1.578,1.559c0.957,0.995,1.871,2.024,2.356,3.498
			c0.564-1.704,0.112-3.241-0.182-4.86c0.408,0.158,0.682,0.406,0.925,0.671c1.968,2.145,3.319,4.635,4.055,7.445
			c0.229,0.874,0.059,1.792,0.067,2.69c0.003,0.419-0.042,0.84,0.054,1.255c0.151,0.649,0.437,0.829,1.087,0.657
			c0.73-0.193,1.269-0.654,1.693-1.263c0.643-0.924,0.916-1.984,1.124-3.068c0.021-0.109-0.029-0.244,0.18-0.366
			c0.509,0.916,1.03,1.813,1.256,2.85c-0.418,1.827-0.704,3.682-1.189,5.495c-0.712,2.661-1.617,5.239-3.395,7.4
			c-1.283,1.559-2.949,2.69-4.567,3.862c-2.318,1.678-4.82,3.068-7.25,4.569c-0.884,0.546-1.749,1.123-2.554,1.785
			c-0.135,0.111-0.256,0.262-0.462,0.246c0.201-0.59,0.631-1.046,0.927-1.581c0.681-1.227,1.294-2.478,1.508-3.884
			c0.174-1.141-0.022-2.17-1.024-2.877c-1.066-0.752-2.205-0.883-3.382-0.24c-0.757,0.413-1.309,1.036-1.772,1.751
			C25.286,46.299,25.246,46.514,25.043,46.603z"/>
		<path fill="#58748B" d="M32.266,9.65c-0.082-0.125-0.035-0.213,0.08-0.282C32.381,9.48,32.374,9.579,32.266,9.65z"/>
		<path fill="#58748B" d="M24.931,46.857c-0.061-0.129-0.035-0.219,0.113-0.256C25.076,46.717,25.044,46.805,24.931,46.857z"/>
	</g>
</g>
</svg>
