<?xml version="1.0" encoding="iso-8859-1"?>
<!-- Generator: Adobe Illustrator 16.0.0, SVG Export Plug-In . SVG Version: 6.00 Build 0)  -->
<!DOCTYPE svg PUBLIC "-//W3C//DTD SVG 1.1//EN" "http://www.w3.org/Graphics/SVG/1.1/DTD/svg11.dtd">
<svg version="1.1" id="Layer_1" xmlns="http://www.w3.org/2000/svg" xmlns:xlink="http://www.w3.org/1999/xlink" x="0px" y="0px"
	 width="64px" height="64px" viewBox="0 0 64 64" style="enable-background:new 0 0 64 64;" xml:space="preserve">
<g>
	<path style="fill-rule:evenodd;clip-rule:evenodd;fill:#FFFFFF;" d="M29.175,0c1.86,0,3.721,0,5.581,0
		c0.159,0.025,0.317,0.066,0.478,0.074c1.731,0.08,3.471,0.078,5.194,0.248c3.691,0.364,7.378,0.791,11.06,1.243
		c1.354,0.167,2.69,0.477,4.035,0.722c0,11.71,0,23.42,0,35.13c-0.167,0.609-0.293,1.234-0.511,1.824
		c-0.532,1.441-1.372,2.714-2.274,3.944c-2.024,2.762-4.346,5.269-6.796,7.644c-4.048,3.921-8.173,7.762-12.269,11.633
		c-0.551,0.521-1.121,1.021-1.69,1.538c-0.149-0.125-0.269-0.219-0.382-0.319c-1.571-1.373-3.153-2.735-4.711-4.125
		c-4.15-3.701-8.282-7.422-12.053-11.52c-1.9-2.066-3.712-4.205-5.06-6.688c-0.709-1.307-1.29-2.665-1.29-4.188
		C8.482,25.667,8.486,14.175,8.478,2.682c0-0.337,0.089-0.46,0.437-0.525c6.104-1.139,12.259-1.811,18.462-2.052
		C27.976,0.081,28.575,0.035,29.175,0z M51.211,5.771c-12.848-1.979-25.66-1.979-38.473,0.001c0,5.357,0,10.668,0,15.995
		c10.806-1.682,21.614-1.958,32.493-0.832c0,0.231,0,0.413,0,0.594c0,3.812,0.028,7.624-0.021,11.435
		c-0.012,0.865-0.193,1.761-0.476,2.581c-0.678,1.968-1.967,3.563-3.37,5.061c-2.694,2.872-5.799,5.254-9.009,7.511
		c-0.293,0.206-0.472,0.19-0.744-0.022c-2.666-2.088-5.267-4.251-7.678-6.63c-1.51-1.49-2.936-3.056-4.047-4.879
		c-0.804-1.317-1.24-2.718-1.2-4.287c0.053-2.072,0.013-4.146,0.013-6.221c0-0.176,0-0.353,0-0.614
		c-2.043,0.268-4.009,0.526-5.991,0.786c0,0.24,0,0.406,0,0.573c0,2.622,0.037,5.245-0.013,7.866
		c-0.034,1.752,0.436,3.336,1.289,4.834c1.448,2.543,3.371,4.715,5.489,6.692c2.649,2.474,5.392,4.849,8.13,7.225
		c1.403,1.217,2.886,2.341,4.334,3.509c0.112-0.074,0.191-0.118,0.261-0.174c4.596-3.771,9.161-7.578,13.309-11.853
		c1.595-1.643,3.096-3.364,4.302-5.321c0.955-1.549,1.47-3.188,1.451-5.052c-0.059-5.931-0.021-11.862-0.021-17.793
		c0-0.18,0-0.359,0-0.56c-10.661-1.667-21.314-1.945-32.007-0.879c0-1.565,0-3.067,0-4.595c10.702-1.089,21.344-0.794,31.979,0.843
		C51.211,9.62,51.211,7.721,51.211,5.771z M22.97,25.093c0,1.825,0.052,3.58-0.014,5.329c-0.078,2.115,0.616,3.942,1.843,5.611
		c1.64,2.229,3.749,3.944,6.007,5.496c0.376,0.258,0.769,0.684,1.153,0.683c0.381,0,0.772-0.427,1.142-0.691
		c2.252-1.609,4.37-3.366,6.035-5.607c1.224-1.647,1.965-3.444,1.854-5.555c-0.069-1.307-0.013-2.621-0.013-3.932
		c0-0.438,0-0.877,0-1.356C34.965,24.646,28.994,24.655,22.97,25.093z"/>
</g>
</svg>
