<?xml version="1.0" encoding="utf-8"?>
<!-- Generator: Adobe Illustrator 23.0.2, SVG Export Plug-In . SVG Version: 6.00 Build 0)  -->
<svg version="1.1" id="Layer_1" xmlns="http://www.w3.org/2000/svg" xmlns:xlink="http://www.w3.org/1999/xlink" x="0px" y="0px"
	 width="64px" height="64px" viewBox="0 0 64 64" style="enable-background:new 0 0 64 64;" xml:space="preserve">
<g>
	<g>
		<path style="fill:#EC1C24;" d="M42.049,46.398c-1.269,0-2.538,0-3.807,0c0.003-0.069,0.01-0.138,0.01-0.207
			c0-9.454,0-18.908,0.001-28.362c0-0.069,0.003-0.138,0.005-0.208c0.085,0.004,0.17,0.012,0.255,0.012
			c8.495,0.001,16.99,0.001,25.485,0.001c0,9.54,0,19.079,0.003,28.619c0,0.12-0.027,0.148-0.147,0.147
			c-1.221-0.005-2.442-0.003-3.663-0.003c0.003-0.042,0.008-0.085,0.008-0.127c0-4.473,0-8.946,0.003-13.42
			c0-0.133-0.034-0.169-0.168-0.168c-2.751,0.004-5.502,0.004-8.253,0c-0.12,0-0.151,0.03-0.15,0.15
			c0.005,1.066,0.006,2.133,0,3.199c-0.001,0.137,0.039,0.164,0.169,0.164c1.514-0.005,3.028,0,4.542-0.007
			c0.167-0.001,0.202,0.05,0.201,0.208c-0.005,2.042-0.003,4.084-0.003,6.126c0,0.209,0,0.209-0.204,0.209
			c-3.45,0-6.899-0.001-10.349,0.004c-0.158,0-0.2-0.034-0.2-0.198c0.005-5.87,0.005-11.74,0-17.61c0-0.167,0.047-0.195,0.201-0.195
			c4.654,0.004,9.309,0.004,13.963,0.003c0.069,0,0.138-0.003,0.208-0.005c0.022,0.006,0.03-0.005,0.029-0.026
			c0.004-0.058,0.011-0.116,0.011-0.174c0.001-1.082,0.001-2.165,0-3.247c0-0.243,0.027-0.216-0.21-0.216
			c-5.913,0-11.826,0-17.739,0c-0.234,0-0.205-0.028-0.205,0.202c-0.001,8.323,0,16.646,0,24.968
			C42.044,46.291,42.047,46.344,42.049,46.398z"/>
		<path style="fill:#EC1C24;" d="M36.034,46.398c-5.556,0-11.113,0-16.669,0c0-3.012,0.001-6.025-0.004-9.037
			c0-0.164,0.042-0.198,0.2-0.198c4.153,0.005,8.307,0.003,12.46,0.007c0.159,0,0.211-0.03,0.211-0.203
			c-0.005-5.231-0.004-10.461-0.005-15.692c0-0.239,0.034-0.207-0.215-0.207c-5.908-0.001-11.815-0.001-17.723,0
			c-0.254,0-0.22-0.038-0.22,0.218c-0.001,8.275-0.001,16.55-0.001,24.825c0,0.095-0.009,0.191-0.014,0.286
			c-1.258,0-2.517,0-3.775,0c-0.002-0.011-0.004-0.021-0.006-0.032c0.002-0.064,0.005-0.128,0.005-0.192c0-9.445,0-18.889,0-28.334
			c0-0.069,0.004-0.138,0.006-0.207c0.08,0.001,0.16,0.001,0.24,0.001c8.493,0,16.986,0,25.479,0c0.045,0.063,0.021,0.134,0.021,0.2
			c0.001,9.452,0.001,18.904,0.002,28.356C36.024,46.26,36.031,46.329,36.034,46.398z"/>
		<path style="fill:#EC1C24;" d="M0.04,17.603c0.011,0,0.021,0,0.032,0c0.072,0.052,0.154,0.031,0.233,0.031
			c2.576,0.001,5.153,0.001,7.729,0.001c0.004,0.069,0.011,0.138,0.011,0.207c0.001,9.455,0.001,18.91,0,28.365
			c0,0.064-0.004,0.128-0.006,0.191c-2.629,0-5.258,0-7.887-0.002c-0.047,0-0.108,0.037-0.144-0.03
			c0.057-0.071,0.031-0.154,0.031-0.231C0.04,36.624,0.04,27.113,0.04,17.603z"/>
		<path style="fill:#ED2D34;" d="M0.04,17.603c0,9.511,0,19.021-0.001,28.532c0,0.077,0.027,0.161-0.031,0.231
			c0-9.54,0-19.079,0.002-28.619C0.01,17.7-0.027,17.638,0.04,17.603z"/>
		<path style="fill:#ED282F;" d="M36.002,17.603c0,0.011,0,0.021,0,0.032c-8.493,0-16.986,0-25.479,0c-0.08,0-0.16-0.001-0.24-0.001
			c0,0-0.011,0.003-0.011,0.003c0.002-0.011,0.004-0.023,0.007-0.034C18.853,17.603,27.427,17.603,36.002,17.603z"/>
		<path style="fill:#F1555B;" d="M38.257,17.622c0,0,0.002-0.015,0.002-0.015l0.014-0.004c8.527,0,17.053,0,25.58,0.002
			c0.047,0,0.108-0.037,0.144,0.03c-8.495,0-16.99,0-25.485-0.001C38.427,17.634,38.342,17.626,38.257,17.622z"/>
		<path style="fill:#ED282F;" d="M8.039,17.603c-0.002,0.011-0.004,0.022-0.005,0.032c-2.576,0-5.153,0-7.729-0.001
			c-0.078,0-0.161,0.021-0.233-0.031C2.728,17.603,5.383,17.603,8.039,17.603z"/>
		<path style="fill:#FCEAEA;" d="M10.278,17.603c-0.002,0.011-0.004,0.023-0.007,0.034c-0.008-0.011-0.017-0.023-0.025-0.034
			C10.257,17.603,10.268,17.603,10.278,17.603z"/>
		<path style="fill:#FCEAEA;" d="M10.246,46.398c0.009-0.011,0.017-0.021,0.026-0.032c0.002,0.011,0.004,0.021,0.006,0.032
			C10.268,46.398,10.257,46.398,10.246,46.398z"/>
		<path style="fill:#FCEAEA;" d="M60.158,24.731c0.01-0.009,0.019-0.017,0.029-0.026C60.188,24.726,60.18,24.737,60.158,24.731z"/>
	</g>
</g>
</svg>
