<?xml version="1.0" encoding="utf-8"?>
<!-- Generator: Adobe Illustrator 22.0.0, SVG Export Plug-In . SVG Version: 6.00 Build 0)  -->
<svg version="1.1" id="Camada_1" xmlns="http://www.w3.org/2000/svg" xmlns:xlink="http://www.w3.org/1999/xlink" x="0px" y="0px"
	 width="64px" height="64px" viewBox="0 0 64 64" enable-background="new 0 0 64 64" xml:space="preserve">
<g>
	<g>
		<path fill="#FFFFFF" d="M26.706,0c0.054,0.023,0.107,0.064,0.162,0.067c3.763,0.186,7.346,1.123,10.793,2.61
			c2.47,1.065,4.802,2.382,7.036,3.876c0.087,0.058,0.171,0.121,0.236,0.228c-0.097-0.043-0.197-0.081-0.292-0.129
			c-0.631-0.319-1.256-0.649-1.892-0.959c-1.378-0.672-2.801-1.231-4.261-1.698c-1.692-0.541-3.417-0.941-5.176-1.174
			c-0.844-0.112-1.695-0.174-2.546-0.218c-0.843-0.044-1.69-0.074-2.532-0.042c-1.104,0.042-2.203,0.162-3.292,0.369
			c-1.74,0.331-3.419,0.856-5.023,1.603c-1.742,0.811-3.345,1.841-4.796,3.104c-1.711,1.489-3.145,3.211-4.283,5.173
			c-1.18,2.035-1.996,4.21-2.454,6.518c-0.205,1.034-0.325,2.077-0.401,3.129c-0.081,1.118-0.093,2.236-0.051,3.352
			c0.098,2.613,0.551,5.17,1.328,7.67c0.569,1.83,1.299,3.592,2.169,5.297c0.581,1.138,1.222,2.241,1.918,3.313
			c1.157,1.782,2.417,3.487,3.811,5.091c0.887,1.021,1.823,1.994,2.806,2.924c1.739,1.646,3.624,3.101,5.648,4.375
			c1.225,0.771,2.501,1.448,3.813,2.061c2.488,1.162,5.079,2.012,7.761,2.587c1.257,0.27,2.524,0.482,3.81,0.555
			c0.747,0.042,1.495,0.112,2.241,0.101c2.267-0.033,4.492-0.352,6.652-1.068c2.771-0.919,5.263-2.334,7.461-4.25
			c1.549-1.351,2.809-2.944,3.822-4.735c0.904-1.6,1.551-3.302,2.052-5.064c0.02-0.071,0.043-0.141,0.068-0.21
			c0.006-0.017,0.025-0.03,0.06-0.069c0,0.118,0.012,0.215-0.002,0.308c-0.316,2.176-0.924,4.268-1.849,6.263
			c-0.906,1.956-2.066,3.753-3.498,5.367c-1.64,1.848-3.536,3.381-5.699,4.581c-2.283,1.268-4.726,2.077-7.28,2.579
			c-1.169,0.23-2.348,0.394-3.536,0.457c-0.958,0.051-1.922,0.08-2.88,0.037c-3.042-0.135-5.999-0.731-8.875-1.733
			c-2.167-0.755-4.264-1.672-6.298-2.732c-2.761-1.439-5.352-3.138-7.74-5.141c-1.206-1.012-2.357-2.08-3.444-3.222
			c-1.759-1.848-3.33-3.843-4.728-5.975c-0.834-1.271-1.594-2.586-2.295-3.937c-1.243-2.395-2.292-4.87-3.112-7.44
			c-0.588-1.843-1.021-3.722-1.241-5.646c-0.09-0.783-0.143-1.57-0.187-2.357c-0.037-0.653-0.068-1.309-0.044-1.962
			c0.047-1.273,0.16-2.541,0.385-3.797c0.404-2.264,1.069-4.45,1.997-6.555c0.974-2.209,2.23-4.24,3.847-6.037
			c1.538-1.71,3.321-3.116,5.337-4.226c2.182-1.202,4.505-2.011,6.936-2.529c1.31-0.279,2.633-0.465,3.966-0.584
			c0.251-0.022,0.504-0.022,0.756-0.042C23.952,0.061,24.028,0.023,24.106,0C24.972,0,25.839,0,26.706,0z"/>
		<path fill="#FFFFFF" d="M50.064,34.177c0.148-0.119,0.249-0.203,0.354-0.283c0.868-0.661,1.585-1.451,2.097-2.421
			c0.46-0.871,0.692-1.8,0.775-2.782c0.075-0.885-0.012-1.748-0.232-2.598c-0.337-1.304-1.008-2.433-1.902-3.428
			c-1.341-1.493-2.952-2.644-4.684-3.633c-1.777-1.015-3.666-1.77-5.622-2.357c-2.176-0.653-4.392-1.121-6.637-1.463
			c-1.29-0.197-2.584-0.361-3.887-0.438c-0.819-0.049-1.639-0.09-2.459-0.123c-0.633-0.025-1.266-0.047-1.899-0.044
			c-0.728,0.004-1.456,0.017-2.182,0.064c-1.774,0.114-3.544,0.284-5.301,0.563c-1.678,0.266-3.338,0.618-4.987,1.024
			c-0.049,0.012-0.099,0.022-0.167-0.003c0.07-0.051,0.138-0.107,0.212-0.152c2.398-1.437,4.911-2.624,7.57-3.501
			c2.029-0.669,4.101-1.152,6.215-1.449c1.395-0.196,2.795-0.363,4.197-0.509c0.773-0.08,1.553-0.108,2.331-0.127
			c1.224-0.03,2.449-0.047,3.673-0.043c0.567,0.002,1.135,0.059,1.702,0.101c0.765,0.057,1.531,0.109,2.294,0.192
			c1.582,0.171,3.15,0.435,4.705,0.775c2.054,0.449,4.072,1.025,6.043,1.761c1.787,0.668,3.485,1.515,5.046,2.617
			c1.229,0.868,2.376,1.828,3.278,3.049c0.839,1.135,1.386,2.384,1.502,3.805c0.092,1.128-0.114,2.207-0.556,3.241
			c-0.542,1.27-1.349,2.358-2.341,3.313c-1.18,1.136-2.537,2.027-3.953,2.833c-1.306,0.744-2.667,1.365-4.11,1.798
			c-0.273,0.082-0.55,0.148-0.827,0.216C50.255,34.188,50.192,34.177,50.064,34.177z"/>
		<path fill="#FFFFFF" d="M45.449,52.809c0.494-0.246,0.938-0.443,1.358-0.682c0.865-0.493,1.596-1.138,2.136-1.985
			c0.528-0.829,0.801-1.733,0.855-2.713c0.08-1.464-0.281-2.819-0.953-4.107c-0.763-1.463-1.749-2.757-2.902-3.933
			c-1.458-1.489-3.126-2.705-4.888-3.799c-3.082-1.914-6.358-3.409-9.822-4.484c-1.957-0.607-3.948-1.081-5.971-1.398
			c-1.09-0.171-2.191-0.278-3.287-0.411c-0.23-0.028-0.462-0.038-0.691-0.067c-0.221-0.028-0.434-0.083-0.605-0.33
			c0.223-0.029,0.413-0.055,0.604-0.079c1.263-0.159,2.526-0.318,3.79-0.474c1.102-0.136,2.211-0.149,3.317-0.115
			c3.712,0.113,7.362,0.644,10.925,1.713c1.842,0.553,3.638,1.23,5.382,2.043c2.023,0.944,3.96,2.036,5.81,3.285
			c1.323,0.893,2.601,1.845,3.725,2.985c1.134,1.15,2.092,2.433,2.825,3.873c0.448,0.88,0.759,1.814,0.841,2.802
			c0.124,1.5-0.255,2.864-1.196,4.056c-0.781,0.99-1.777,1.704-2.903,2.25c-1.408,0.683-2.903,1.079-4.437,1.344
			c-1.008,0.174-2.025,0.258-3.048,0.272C46.043,52.858,45.773,52.827,45.449,52.809z"/>
	</g>
</g>
</svg>
