<?xml version="1.0" encoding="utf-8"?>
<!-- Generator: Adobe Illustrator 23.0.2, SVG Export Plug-In . SVG Version: 6.00 Build 0)  -->
<svg version="1.1" id="Layer_1" xmlns="http://www.w3.org/2000/svg" xmlns:xlink="http://www.w3.org/1999/xlink" x="0px" y="0px"
	 width="64px" height="64px" viewBox="0 0 64 64" style="enable-background:new 0 0 64 64;" xml:space="preserve">
<g>
	<g>
		<path style="fill:#7F8081;" d="M39.134,0c0.76,0.424,1.642,0.354,2.449,0.606c5.12,1.6,9.417,4.353,12.539,8.928
			c0.787-0.907,1.11-2.06,1.832-3.055c2.565,6.497,4.088,13.024,2.818,19.931c-0.219,1.192-0.557,2.341-0.493,3.586
			c0.069,1.347-0.802,2.427-1.305,3.606c-0.492,1.154-0.986,2.313-1.571,3.422c-1.319,2.502-0.669,5.05-0.226,7.581
			c0.315,1.8,0.775,3.574,1.158,5.362c0.112,0.523,0.234,0.993-0.48,1.315c-7.229,3.255-14.441,6.546-21.659,9.825
			c-0.094,0.043-0.201,0.055-0.433,0.116c-0.043-1.617,0.396-3.13,0.506-4.671c0.047-0.662,0.515-1.532,0.007-1.925
			c-0.497-0.384-1.289,0.177-1.915,0.413c-1.192,0.45-2.198,1.177-3.036,2.16c-1.001,1.174-2.004,2.356-3.109,3.428
			c-1.83,1.775-3.955,2.861-6.617,2.321c-0.466-0.094-0.831,0.118-1.228,0.285c-2.427,1.021-4.795,1.179-7.028-0.513
			c-0.796-0.603-1.45-1.377-1.721-2.296c-0.584-1.983-1.843-3.549-2.934-5.226c-0.649-0.998-1.189-2.052-1.567-3.179
			c-1.191-3.559,0.752-6.436,4.519-6.755c1.784-0.151,3.37,0.179,4.514,1.687c0.296,0.391,0.611,0.416,1.023,0.236
			c3.411-1.494,6.656-3.226,9.11-6.144c0.296-0.352,0.464-0.62,0.111-1c-0.048-0.052-0.088-0.116-0.113-0.182
			c-0.899-2.307-1.59-4.683-2.745-6.909c-0.689-1.328-0.382-2.937,0.18-4.677c-2.277,0.859-3.879,2.511-6.054,2.956
			c-2.136,0.437-4.254,0.962-6.656,1.512c0.915-1.41,1.7-2.617,2.481-3.827c1.014-1.57,2.077-3.103,3.344-4.485
			c0.464-0.506,0.82-1.084,1.124-1.701c0.443-0.901,0.865-1.815,1.375-2.677c0.515-0.87,1.315-1.504,2.359-2.312
			c-4.604-0.373-8.932-0.724-13.26-1.075c3.172-2.209,6.028-4.812,9.754-6.026c-2.762-0.398-5.528-0.222-8.348-0.562
			c0.665-0.383,1.324-0.776,1.996-1.147c3.014-1.666,5.915-3.542,9.038-5.005c4.513-2.115,9.229-3.346,14.27-3.014
			c0.144-0.407-0.352-0.543-0.286-0.869C34.878,0.192,36.9,0.28,38.919,0C38.991,0,39.063,0,39.134,0z M47.984,4.914
			c-1.699-1.306-3.633-2.162-5.612-2.933c-2.193-0.823-4.449-0.803-6.866-0.63c0.497,0.513,1.02,0.736,1.263,1.241
			c-0.434-0.066-0.868-0.133-1.302-0.199c-3.175-0.746-6.333-0.658-9.477,0.188c-2.44,0.402-4.703,1.314-6.906,2.4
			c-1.278,0.608-2.563,1.202-3.697,2.066c-1.257,0.67-2.514,1.339-3.771,2.009c2.734,0.561,5.382,0.338,8.017,0.464
			c0.831,0.04,1.694-0.021,2.47,0.399c-1.228,0.484-2.459,0.951-3.736,1.3c-1.027,0.28-2.099,0.452-3.03,1.025
			c-2.336,0.542-3.961,2.252-5.881,3.542c2.201,0.287,4.367,0.435,6.53,0.607c2.188,0.174,4.387,0.297,6.699,1.049
			c-0.443,0.233-0.676,0.391-0.932,0.485c-2.224,0.812-3.697,2.364-4.553,4.547c-0.369,0.94-0.849,1.833-1.541,2.573
			c-1.456,1.557-2.58,3.352-3.748,5.116c-0.158,0.239-0.465,0.463-0.244,0.905c2.573-0.585,5.213-0.92,7.417-2.599
			c0.955-0.728,2.029-1.231,3.296-1.066c0.566,0.074,0.797,0.222,0.493,0.884c-0.818,1.781-1.026,3.724,0.046,5.371
			c0.93,1.43,1.359,2.944,1.759,4.522c0.08,0.314,0.177,0.62,0.411,0.86c0.1,0.227,0.142,0.517,0.309,0.672
			c0.646,0.599,0.453,1.05-0.051,1.667c-1.586,1.94-3.514,3.451-5.621,4.761c-1.626,0.741-3.156,1.691-4.872,2.241
			c-0.486,0.156-0.852,0.21-1.183-0.328c-1.072-1.74-2.678-2.114-4.572-1.68c-2.91,0.666-4.085,2.892-2.922,5.62
			c0.463,1.087,0.997,2.142,1.662,3.13c0.915,1.36,1.889,2.661,2.475,4.251c1.164,3.162,3.694,4.305,6.891,3.192
			c1.159-0.404,2.238-0.862,3.502-0.506c0.514,0.145,1.062-0.047,1.585-0.196c2.354-0.668,3.851-2.444,5.267-4.234
			c1.847-2.334,4.12-3.83,7.075-4.283c1.022-0.157,1.157-0.057,1.01,0.955c-0.206,1.415-0.402,2.832-0.603,4.249
			c-0.106,0.748,0.009,1.072,0.878,0.664c2.53-1.189,5.1-2.295,7.641-3.463c2.995-1.376,5.976-2.782,8.962-4.175
			c0.627-0.261,1.246-0.546,1.884-0.778c0.656-0.238,0.8-0.647,0.731-1.329c-0.111-1.112-0.539-2.14-0.705-3.235
			c-0.246-1.618-0.561-3.226-0.847-4.838c-0.21-2.278,0.554-4.284,1.526-6.307c1.031-2.149,2.632-4.175,2.104-6.826
			c-0.025-0.126,0.062-0.276,0.101-0.413c1.441-5.002,1.014-9.965-0.308-14.909c-0.332-1.053-0.659-2.108-1-3.159
			c-0.051-0.158-0.134-0.384-0.254-0.424c-0.263-0.089-0.342,0.191-0.438,0.364c-0.376,0.682-0.736,1.373-1.162,2.173
			c-0.704-1.439-1.406-2.709-2.476-3.726C50.578,6.934,49.468,5.712,47.984,4.914z"/>
		<path style="fill:#7F8081;" d="M38.919,0c-2.019,0.28-4.041,0.192-6.063,0.044C32.856,0.043,32.882,0,32.882,0
			C34.894,0,36.907,0,38.919,0z"/>
		<path style="fill:#1C3856;" d="M52.52,51.575c-2.987,1.393-5.968,2.799-8.963,4.175c-2.541,1.167-5.11,2.273-7.641,3.463
			c-0.868,0.408-0.984,0.084-0.878-0.664c0.201-1.416,0.397-2.833,0.603-4.249c0.147-1.012,0.012-1.111-1.01-0.955
			c-2.956,0.453-5.229,1.949-7.075,4.283c-1.417,1.791-2.913,3.566-5.267,4.234c-0.523,0.148-1.07,0.341-1.585,0.196
			c-1.263-0.357-2.342,0.102-3.502,0.506c-3.197,1.113-5.727-0.031-6.891-3.192c-0.585-1.59-1.559-2.89-2.475-4.251
			c-0.665-0.989-1.199-2.043-1.662-3.13c-1.162-2.728,0.013-4.954,2.922-5.62c1.894-0.433,3.5-0.06,4.572,1.68
			c0.331,0.538,0.697,0.484,1.183,0.328c1.716-0.551,3.246-1.5,4.872-2.241c0.275,0.174,0.329,0.576,0.687,0.664
			c-1.724,1.099-3.537,2.012-5.492,2.627c-0.923,0.291-1.64,0.337-2.153-0.806c-0.593-1.323-1.961-1.66-3.633-1.168
			c-1.628,0.48-2.458,1.414-2.326,2.782c0.12,1.244,0.529,2.455,1.243,3.459c1.263,1.777,2.586,3.473,3.32,5.589
			c0.752,2.167,2.574,3.018,4.83,2.524c0.775-0.17,1.504-0.467,2.175-0.892c0.272-0.173,0.483-0.323,0.869-0.184
			c2.163,0.78,3.941-0.014,5.467-1.511c0.945-0.927,1.844-1.914,2.674-2.945c2.233-2.774,5.236-3.86,8.656-4.119
			c0.667-0.051,0.959-0.003,0.801,0.837c-0.297,1.57-0.429,3.171-0.654,4.949c1.587-0.721,3.008-1.373,4.434-2.013
			c3.784-1.699,7.569-3.392,11.354-5.088C52.3,50.982,52.375,51.304,52.52,51.575z"/>
		<path style="fill:#152539;" d="M25.088,39.038c-0.234-0.24-0.332-0.545-0.411-0.86c-0.4-1.578-0.828-3.092-1.759-4.522
			c-1.072-1.648-0.864-3.59-0.046-5.371c0.304-0.661,0.073-0.81-0.493-0.884c-1.267-0.165-2.34,0.338-3.296,1.066
			c-2.204,1.679-4.844,2.014-7.417,2.599c-0.221-0.442,0.086-0.666,0.244-0.905c1.169-1.764,2.292-3.559,3.748-5.116
			c0.692-0.74,1.172-1.632,1.541-2.573c0.856-2.183,2.33-3.735,4.553-4.547c0.256-0.094,0.489-0.252,0.932-0.485
			c-2.312-0.752-4.511-0.875-6.699-1.049c-2.163-0.172-4.329-0.32-6.53-0.607c1.92-1.291,3.545-3,5.881-3.542
			c0.282,0.177,0.684,0.222,0.726,0.662c-1.277,0.614-2.71,0.959-3.859,2.143c2.718,0.243,5.251,0.429,7.774,0.709
			c1.495,0.166,2.972,0.496,4.296,1.272c0.36,0.211,0.892,0.436,0.833,0.878c-0.06,0.448-0.683,0.321-1.003,0.37
			c-2.969,0.454-4.988,2.042-6.07,4.839c-0.472,1.221-1.238,2.252-2.109,3.215c-0.86,0.951-1.624,1.972-2.305,3.247
			c0.86-0.216,1.597-0.353,2.3-0.589c1.13-0.378,2.095-1.08,3.092-1.71c1.589-1.004,3.23-1.312,4.976-0.404
			c0.531,0.276,0.852,0.427,0.286,1.13c-1.547,1.921-1.259,4.699,0.51,6.423c0.198,0.193,0.331,0.426,0.347,0.747
			c0.06,1.26,0.388,2.464,0.857,3.631C25.708,38.964,25.411,39.052,25.088,39.038z"/>
		<path style="fill:#152539;" d="M57.007,12.939c1.321,4.945,1.749,9.908,0.308,14.909c-0.04,0.137-0.126,0.287-0.101,0.413
			c0.528,2.652-1.073,4.678-2.104,6.826c-0.971,2.023-1.736,4.029-1.526,6.307c-0.296,0-0.592,0.001-0.888,0.001
			c-0.248-1.18-0.171-2.336,0.179-3.494c0.607-2.01,1.6-3.85,2.502-5.726c0.585-1.217,1.182-2.379,0.627-3.764
			c-0.093-0.232,0.074-0.411,0.167-0.597c0.587-1.175,0.786-2.442,0.885-3.731c0.281-3.671-0.064-7.289-0.929-10.862
			C56.333,12.854,56.686,12.947,57.007,12.939z"/>
		<path style="fill:#1C3856;" d="M22.104,9.918c-0.776-0.42-1.639-0.359-2.47-0.399c-2.636-0.126-5.284,0.097-8.017-0.464
			c1.257-0.67,2.514-1.339,3.771-2.009c0.185,0.319,0.519,0.419,0.823,0.564c-0.335,0.295-0.941,0.208-1.134,0.759
			c3.775,0.193,7.553-0.109,11.393,1.176c-0.974,0.226-1.702,0.395-2.429,0.563C23.477,9.205,22.758,9.887,22.104,9.918z"/>
		<path style="fill:#1C3856;" d="M57.007,12.939c-0.321,0.008-0.674-0.085-0.88,0.282c-0.357-0.404-0.213-1.046-0.693-1.451
			c-0.6,0.878-0.949,1.906-1.836,2.737c-0.175-2.454-1.377-4.288-2.804-6.013c0.294-0.109,0.589-0.218,0.883-0.327
			c1.069,1.017,1.772,2.288,2.476,3.726c0.426-0.8,0.786-1.491,1.162-2.173c0.095-0.173,0.175-0.453,0.438-0.364
			c0.12,0.04,0.202,0.267,0.254,0.424C56.348,10.831,56.675,11.886,57.007,12.939z"/>
		<path style="fill:#142C45;" d="M52.696,41.396c0.296,0,0.592-0.001,0.888-0.001c0.286,1.612,0.6,3.22,0.847,4.838
			c0.167,1.094,0.594,2.123,0.705,3.235c0.068,0.683-0.076,1.091-0.731,1.329c-0.638,0.232-1.257,0.516-1.884,0.778
			c-0.145-0.27-0.221-0.593-0.542-0.732c0.311-0.167,0.604-0.417,0.935-0.488c1.241-0.266,1.231-0.975,0.972-2.03
			C53.328,46.048,52.747,43.764,52.696,41.396z"/>
		<path style="fill:#142C45;" d="M25.088,39.038c0.323,0.015,0.62-0.073,0.899-0.23c0.029,0.021,0.067,0.037,0.084,0.065
			c0.358,0.581,1.143,0.998,1.249,1.535c0.131,0.663-0.821,1.014-1.251,1.544c-1.593,1.962-3.356,3.717-5.657,4.85
			c-0.358-0.087-0.412-0.49-0.687-0.664c2.107-1.311,4.036-2.821,5.621-4.761c0.504-0.616,0.697-1.068,0.051-1.667
			C25.231,39.554,25.188,39.265,25.088,39.038z"/>
		<path style="fill:#235C8E;" d="M35.467,2.392c0.434,0.066,0.868,0.133,1.302,0.199c0,0-0.014-0.009-0.014-0.009
			c0.059,0.15,0.124,0.213,0.203,0.011c0.425-0.062,0.819-0.306,1.27-0.213c1.739,1.355,3.461,2.724,4.334,4.853
			c-2.283-2.116-4.926-3.449-7.948-4.05C34.604,2.603,35.493,2.991,35.467,2.392z"/>
		<path style="fill:#2E71AB;" d="M35.467,2.392c0.026,0.598-0.863,0.21-0.853,0.792c-2.677-0.411-5.338-0.257-7.99,0.229
			c0.051-0.477-0.713-0.334-0.634-0.832C29.133,1.734,32.292,1.647,35.467,2.392z"/>
		<path style="fill:#142C45;" d="M22.104,9.918c0.655-0.032,1.374-0.713,1.936,0.191c-2.552,1.237-5.216,2.153-7.977,2.795
			c-0.042-0.44-0.444-0.485-0.726-0.662c0.931-0.572,2.002-0.745,3.029-1.025C19.645,10.869,20.876,10.402,22.104,9.918z"/>
		<path style="fill:#235C8E;" d="M25.99,2.58c-0.078,0.498,0.685,0.355,0.634,0.832c-2.454,0.553-4.805,1.41-7.104,2.417
			c0.046-0.381-0.45-0.485-0.436-0.85C21.287,3.894,23.55,2.982,25.99,2.58z"/>
		<path style="fill:#2E71AB;" d="M38.228,2.381c-0.451-0.093-0.845,0.151-1.27,0.213c-0.068,0-0.136-0.004-0.203-0.011
			c0,0,0.014,0.009,0.014,0.009c-0.243-0.504-0.766-0.727-1.263-1.241c2.417-0.173,4.673-0.194,6.866,0.629
			c-0.142,0.26-0.284,0.52-0.425,0.78c-0.648-0.155-1.29-0.339-1.944-0.458C39.413,2.195,38.797,1.888,38.228,2.381z"/>
		<path style="fill:#235C8E;" d="M41.947,2.76c0.142-0.26,0.284-0.52,0.425-0.78c1.978,0.771,3.912,1.628,5.611,2.934
			c-0.074,0.289-0.148,0.578-0.222,0.866C45.926,4.577,44.015,3.518,41.947,2.76z"/>
		<path style="fill:#19466F;" d="M19.084,4.98c-0.014,0.365,0.482,0.468,0.436,0.85c-1.104,0.594-2.207,1.187-3.311,1.781
			c-0.304-0.145-0.638-0.245-0.823-0.564C16.522,6.183,17.807,5.588,19.084,4.98z"/>
		<path style="fill:#19466F;" d="M47.762,5.78c0.074-0.289,0.148-0.577,0.222-0.866c1.484,0.798,2.594,2.02,3.694,3.254
			c-0.294,0.109-0.589,0.218-0.883,0.327C49.841,7.526,48.839,6.611,47.762,5.78z"/>
		<path style="fill:#F3F3F4;" d="M47.762,5.78c1.077,0.831,2.08,1.745,3.033,2.715c1.427,1.725,2.629,3.559,2.804,6.013
			c0.886-0.831,1.236-1.859,1.836-2.737c0.48,0.404,0.336,1.046,0.693,1.451c0.865,3.573,1.21,7.191,0.929,10.862
			c-0.099,1.289-0.298,2.556-0.885,3.731c-0.093,0.186-0.26,0.365-0.167,0.597c0.555,1.385-0.043,2.548-0.627,3.764
			c-0.902,1.876-1.896,3.716-2.502,5.726c-0.35,1.158-0.427,2.313-0.179,3.494c0.051,2.368,0.632,4.652,1.19,6.928
			c0.258,1.055,0.269,1.764-0.972,2.03c-0.331,0.071-0.625,0.32-0.935,0.488c-3.785,1.695-7.571,3.389-11.354,5.088
			c-1.426,0.64-2.847,1.292-4.434,2.013c0.225-1.779,0.358-3.379,0.654-4.949c0.159-0.84-0.134-0.887-0.801-0.837
			c-3.42,0.259-6.423,1.346-8.656,4.119c-0.83,1.032-1.729,2.018-2.674,2.945c-1.527,1.497-3.304,2.291-5.467,1.511
			c-0.386-0.139-0.597,0.011-0.869,0.184c-0.671,0.425-1.4,0.722-2.175,0.892c-2.256,0.494-4.078-0.357-4.83-2.524
			c-0.734-2.116-2.057-3.813-3.32-5.589c-0.714-1.003-1.123-2.215-1.243-3.459c-0.132-1.369,0.698-2.302,2.326-2.782
			c1.672-0.493,3.039-0.155,3.633,1.168c0.513,1.143,1.23,1.097,2.153,0.806c1.955-0.615,3.768-1.528,5.492-2.627
			c2.301-1.132,4.065-2.888,5.657-4.85c0.43-0.53,1.382-0.881,1.251-1.544c-0.106-0.536-0.891-0.954-1.249-1.535
			c-0.017-0.028-0.056-0.043-0.084-0.065c-0.469-1.167-0.797-2.371-0.857-3.631c-0.015-0.321-0.148-0.554-0.347-0.747
			c-1.769-1.724-2.057-4.502-0.51-6.423c0.566-0.703,0.245-0.853-0.286-1.13c-1.746-0.908-3.386-0.6-4.976,0.404
			c-0.998,0.63-1.962,1.332-3.092,1.71c-0.704,0.235-1.44,0.373-2.3,0.589c0.681-1.275,1.444-2.296,2.305-3.247
			c0.871-0.963,1.637-1.994,2.109-3.215c1.082-2.797,3.101-4.385,6.07-4.839c0.32-0.049,0.943,0.078,1.003-0.37
			c0.059-0.443-0.473-0.667-0.833-0.878c-1.324-0.777-2.8-1.107-4.296-1.272c-2.523-0.28-5.056-0.466-7.774-0.709
			c1.15-1.183,2.583-1.529,3.859-2.143c2.76-0.642,5.425-1.558,7.977-2.795c0.727-0.169,1.455-0.337,2.429-0.563
			c-3.84-1.285-7.618-0.982-11.393-1.176c0.194-0.551,0.8-0.465,1.134-0.759c1.104-0.594,2.207-1.187,3.311-1.781
			c2.299-1.008,4.65-1.865,7.104-2.417c2.652-0.486,5.313-0.639,7.99-0.229c3.022,0.601,5.665,1.934,7.948,4.05
			c-0.874-2.128-2.596-3.498-4.334-4.853c0.569-0.493,1.185-0.186,1.775-0.079c0.654,0.119,1.297,0.303,1.944,0.458
			C44.015,3.518,45.926,4.577,47.762,5.78z M41.645,4.342c0.449,0.582,0.898,1.164,1.347,1.745c0.38,0.869,0.697,1.747,0.343,2.709
			c-0.228,0.355-0.385,0.124-0.559-0.061c-0.462-0.492-0.843-1.067-1.442-1.421c-0.834-0.816-1.748-1.52-2.815-2.01
			c-0.183-0.108-0.356-0.239-0.549-0.322c-5.054-2.162-10.059-1.529-15.042,0.271c-1.806,0.616-3.539,1.38-5.34,2.459
			c1.659,0.077,3.09,0.144,4.522,0.21c1.08,0.175,2.188,0.25,3.232,0.548c1.48,0.421,3.037,0.767,4.074,2.087
			c-2.016-0.544-3.954-0.268-5.85,0.533c-1.213,0.513-2.439,0.997-3.659,1.493c-1.81,0.516-3.676,0.876-5.32,1.905
			c1.791,0.18,3.554,0.294,5.308,0.538c1.816,0.253,3.563,0.685,5.166,1.603c0.196,0.206,0.411,0.397,0.582,0.621
			c0.3,0.393,0.734,0.82,0.537,1.321c-0.159,0.406-0.702,0.159-1.069,0.214c-3.013,0.454-5.445,1.653-6.519,4.778
			c-0.361,1.05-1.041,1.941-1.77,2.789c-0.509,0.591-1.101,1.124-1.45,1.844c-0.089,0.038-0.185,0.097-0.1,0.192
			c0.034,0.037,0.164-0.012,0.25-0.022c1.416-0.386,2.495-1.393,3.767-2.044c2.097-1.074,4.359-0.847,5.926,0.574
			c0.447,0.406,0.734,0.619,0.003,1.154c-1.44,1.054-1.664,3.925-0.524,5.291c0.476,0.57,0.972,1.072,1.782,0.35
			c0.322-0.287,0.839-0.403,1.287-0.493c2.595-0.524,5.212-0.483,7.821-0.152c0.677,0.086,1.484,0.138,1.781,0.979
			c0.152,0.429,0.238,0.101,0.393,0.01c0.244-0.142,0.515-0.243,0.784-0.334c5.153-1.753,10.299-3.531,15.47-5.229
			c1.097-0.36,1.689-1.006,1.928-2.06C56.715,23,56.59,19.585,55.953,16.17c0.005-0.924-0.27-1.779-0.589-2.772
			c-0.728,0.919-1.262,1.803-2.03,2.486c-0.195,0.002-0.39,0.005-0.585,0.007c0.111-1.029,0.288-2.063-0.194-3.054
			c-0.191-0.849-0.571-1.604-1.122-2.276c-0.379-0.835-1.079-1.408-1.678-2.063c-1.174-1.285-2.51-2.361-4.067-3.151
			c-0.928-0.707-1.986-1.152-3.075-1.538c-0.65-0.327-1.295-0.672-2.202-0.548C40.876,3.67,41.261,4.006,41.645,4.342z
			 M52.78,46.791c-0.385-2.292-0.935-4.562-0.943-6.906c0.016-0.533-0.108-1.12,0.073-1.59c0.64-1.662,1.375-3.288,2.094-4.918
			c0.407-0.924,0.854-1.83,1.358-2.903c-0.544,0.135-0.885,0.214-1.223,0.304c-5.531,1.463-11.06,2.938-16.601,4.362
			c-0.334,0.086-0.383,0.253-0.482,0.444c-0.492,0.95-1.258,1.65-2.085,2.287c-1.441,1.11-1.447,1.103,0.051,2.255
			c0.056,0.043,0.126,0.068,0.19,0.101c1.096,0.937,2.528,0.934,3.807,1.354c2.053,0.674,2.939,2.279,2.365,4.352
			c-0.075,0.272-0.121,0.552-0.18,0.828c-0.866,1.803-1.877,3.512-3.25,4.983c-0.202,0.216-0.322,0.448-0.354,0.753
			c-0.137,1.317-0.297,2.632-0.449,3.948c-0.036,0.05-0.072,0.1-0.108,0.15c0.086,0.014,0.172,0.027,0.257,0.041
			c4.62-2.08,9.24-4.159,13.859-6.241c2.313-1.043,2.312-1.046,1.685-3.516C52.833,46.846,52.801,46.82,52.78,46.791z
			 M24.032,45.273c-0.349,0.249-0.692,0.508-1.049,0.745c-2.806,1.866-5.617,3.73-9.051,4.245c-0.538,0.081-0.421,0.308-0.323,0.649
			c0.18,0.624,0.619,1.197,0.455,1.955c-0.451-0.085-0.501-0.415-0.603-0.708c-0.261-0.744-0.513-1.492-0.795-2.228
			c-0.77-2.012-2.455-2.555-4.28-1.381c-0.781,0.503-1.106,1.205-0.838,2.124c0.314,1.077,0.829,2.064,1.438,2.996
			c1.172,1.797,2.435,3.517,3.161,5.595c0.565,1.619,2.076,2.24,3.781,1.886c1.148-0.239,2.156-0.763,3.043-1.531
			c1.52-1.317,3.037-2.637,4.578-3.929c0.262-0.22,0.484-0.686,1.154-0.325c-1.783,1.553-3.51,3.058-5.326,4.639
			c1.616,0.634,2.869,0.217,4.034-0.597c1.281-0.896,2.284-2.09,3.21-3.32c2.421-3.212,5.708-4.525,9.612-4.559
			c0.524-0.005,1.002-0.069,1.363-0.475c1.44-1.621,2.722-3.334,3.137-5.537c0.325-1.696-0.219-2.708-1.789-3.271
			c-0.47-0.169-0.958-0.296-1.446-0.409c-1.536-0.357-2.928-0.964-3.944-2.231c-0.292-0.364-0.569-0.418-1.014-0.208
			c-1.078,0.509-2.217,0.824-3.429,0.756c-0.321-0.018-0.531,0.12-0.726,0.363C27.035,42.196,25.511,43.714,24.032,45.273z"/>
		<path style="fill:#7F8081;" d="M36.755,2.583c0.068,0.007,0.135,0.011,0.203,0.011C36.879,2.796,36.815,2.733,36.755,2.583z"/>
		<path style="fill:#122033;" d="M55.953,16.17c0.637,3.415,0.762,6.83-0.011,10.242c-0.239,1.055-0.831,1.7-1.928,2.06
			c-5.172,1.698-10.317,3.476-15.47,5.229c-0.269,0.091-0.54,0.192-0.784,0.334c-0.156,0.09-0.242,0.419-0.393-0.01
			c-0.297-0.841-1.105-0.894-1.781-0.979c-2.609-0.331-5.226-0.372-7.821,0.152c-0.449,0.091-0.966,0.206-1.287,0.493
			c-0.809,0.723-1.306,0.221-1.782-0.35c-1.14-1.366-0.916-4.237,0.524-5.291c0.731-0.535,0.444-0.748-0.003-1.154
			c-1.567-1.421-3.829-1.647-5.926-0.574c-1.272,0.651-2.352,1.657-3.767,2.044c-0.05-0.056-0.101-0.113-0.151-0.169
			c0.349-0.72,0.941-1.253,1.45-1.844c0.73-0.848,1.41-1.739,1.77-2.789c1.074-3.125,3.506-4.325,6.519-4.778
			c0.366-0.055,0.909,0.192,1.069-0.214c0.197-0.502-0.237-0.928-0.537-1.321c-0.171-0.224-0.387-0.415-0.582-0.621
			c0.765-0.333,1.56-0.468,2.397-0.467c7.997,0.01,15.994,0.009,23.991-0.003c0.439-0.001,0.946,0.195,1.3-0.27
			c0.195-0.002,0.39-0.005,0.585-0.007C54.15,16.495,55.086,16.018,55.953,16.17z"/>
		<path style="fill:#E9681B;" d="M40.73,45.518c-0.415,2.203-1.696,3.916-3.137,5.537c-0.361,0.406-0.838,0.47-1.363,0.475
			c-3.904,0.034-7.191,1.347-9.612,4.559c-0.927,1.229-1.929,2.424-3.21,3.32c-1.164,0.814-2.418,1.231-4.034,0.597
			c1.816-1.582,3.543-3.087,5.326-4.639c-0.67-0.361-0.892,0.105-1.154,0.325c-1.541,1.292-3.058,2.612-4.578,3.929
			c-0.887,0.768-1.895,1.292-3.043,1.531c-1.705,0.355-3.215-0.266-3.781-1.886c-0.725-2.077-1.988-3.797-3.161-5.595
			c-0.608-0.933-1.124-1.919-1.438-2.996c-0.268-0.919,0.056-1.622,0.838-2.124c1.825-1.174,3.511-0.631,4.28,1.381
			c0.282,0.736,0.534,1.484,0.795,2.228c0.103,0.293,0.153,0.623,0.603,0.708c0.164-0.758-0.275-1.33-0.455-1.955
			c-0.098-0.342-0.215-0.569,0.323-0.649c3.434-0.515,6.245-2.378,9.051-4.245c0.357-0.237,0.7-0.496,1.049-0.745
			c5.079,0.001,10.159,0.005,15.238,0.002C39.773,45.275,40.272,45.262,40.73,45.518z"/>
		<path style="fill:#152539;" d="M35.21,40.226c-0.064-0.033-0.134-0.058-0.19-0.101c-1.498-1.152-1.491-1.145-0.051-2.255
			c0.827-0.637,1.593-1.337,2.085-2.287c0.099-0.191,0.149-0.358,0.482-0.444c5.541-1.424,11.069-2.899,16.601-4.362
			c0.338-0.089,0.679-0.169,1.223-0.304c-0.504,1.073-0.95,1.979-1.358,2.903c-0.719,1.631-1.454,3.257-2.094,4.918
			c-0.181,0.47-0.057,1.057-0.073,1.59c-5.122,0-10.245-0.005-15.367,0.009C36.038,39.896,35.516,39.689,35.21,40.226z"/>
		<path style="fill:#152539;" d="M52.748,15.891c-0.353,0.465-0.861,0.269-1.3,0.27c-7.997,0.012-15.994,0.013-23.991,0.003
			c-0.837-0.001-1.633,0.134-2.397,0.467c-1.603-0.918-3.351-1.35-5.166-1.603c-1.753-0.244-3.517-0.358-5.308-0.538
			c1.644-1.029,3.51-1.389,5.32-1.905c0.3,0.598,0.855,0.567,1.397,0.567c10.061,0,20.121,0.001,30.182-0.004
			c0.377,0,0.81,0.126,1.069-0.31C53.036,13.829,52.859,14.862,52.748,15.891z"/>
		<path style="fill:#1C3856;" d="M37.149,56.444c0.152-1.316,0.312-2.631,0.449-3.948c0.032-0.306,0.152-0.537,0.354-0.753
			c1.373-1.472,2.384-3.181,3.25-4.983c3.859,0.011,7.719,0.021,11.578,0.032c0.021,0.029,0.054,0.055,0.062,0.087
			c0.627,2.47,0.629,2.473-1.685,3.516c-4.619,2.082-9.239,4.161-13.859,6.241C37.248,56.572,37.199,56.508,37.149,56.444z"/>
		<path style="fill:#142C45;" d="M52.78,46.791c-3.859-0.011-7.719-0.021-11.578-0.032c0.059-0.276,0.105-0.556,0.18-0.828
			c0.574-2.073-0.311-3.678-2.365-4.352c-1.279-0.42-2.712-0.416-3.807-1.354c0.306-0.536,0.828-0.33,1.26-0.331
			c5.122-0.014,10.245-0.009,15.367-0.009C51.844,42.229,52.395,44.499,52.78,46.791z"/>
		<path style="fill:#142C45;" d="M52.554,12.837c-0.259,0.436-0.692,0.31-1.069,0.31c-10.061,0.006-20.121,0.004-30.182,0.004
			c-0.542,0-1.097,0.031-1.397-0.567c1.22-0.497,2.446-0.98,3.659-1.493c1.896-0.802,3.834-1.077,5.85-0.533
			c0.739,0.572,1.481-0.025,2.222-0.02c6.598,0.044,13.196,0.024,19.794,0.023C51.983,11.233,52.363,11.989,52.554,12.837z"/>
		<path style="fill:#ED7E22;" d="M40.73,45.518c-0.458-0.256-0.957-0.244-1.46-0.243c-5.079,0.003-10.158,0-15.238-0.002
			c1.479-1.559,3.002-3.077,4.35-4.755c0.195-0.242,0.405-0.381,0.726-0.363c1.212,0.068,2.351-0.247,3.429-0.756
			c0.445-0.21,0.722-0.156,1.014,0.208c1.016,1.267,2.408,1.873,3.944,2.231c0.487,0.113,0.975,0.24,1.446,0.409
			C40.51,42.811,41.055,43.822,40.73,45.518z M28.235,43.302c0.968-0.05,1.646-0.391,2.28-0.836c0.327-0.23,0.306-0.556,0.107-0.843
			c-0.148-0.213-0.507-0.378-0.625-0.123C29.643,42.263,28.827,42.562,28.235,43.302z"/>
		<path style="fill:#1C3856;" d="M51.432,10.561c-6.598,0.001-13.196,0.02-19.794-0.023c-0.741-0.005-1.483,0.592-2.222,0.02
			c-1.036-1.319-2.594-1.665-4.074-2.087c-1.045-0.297-2.153-0.373-3.232-0.548c0.192-0.622,0.715-0.362,1.09-0.364
			c5.446-0.017,10.893-0.017,16.339-0.005c0.615,0.001,1.21-0.055,1.795-0.24c0.598,0.354,0.979,0.929,1.442,1.421
			c0.174,0.185,0.331,0.416,0.559,0.061c1.861,0.013,3.723,0.027,5.584,0.039c0.322,0.002,0.658,0.025,0.835-0.337
			C50.353,9.154,51.054,9.727,51.432,10.561z"/>
		<path style="fill:#19466F;" d="M41.334,7.315c-0.584,0.185-1.179,0.241-1.795,0.24C34.093,7.543,28.647,7.543,23.2,7.56
			c-0.376,0.001-0.898-0.259-1.09,0.364c-1.431-0.067-2.863-0.133-4.522-0.21c1.801-1.078,3.534-1.842,5.34-2.459
			c0.185,0.437,0.579,0.349,0.922,0.349c4.606,0.004,9.213,0.004,13.819,0.001c0.315,0,0.658,0.056,0.851-0.3
			C39.586,5.796,40.5,6.499,41.334,7.315z"/>
		<path style="fill:#235C8E;" d="M38.52,5.305c-0.193,0.356-0.536,0.299-0.851,0.3c-4.606,0.002-9.213,0.003-13.819-0.001
			c-0.344,0-0.737,0.088-0.922-0.349c4.983-1.8,9.989-2.433,15.042-0.271C38.164,5.066,38.337,5.197,38.52,5.305z"/>
		<path style="fill:#19466F;" d="M49.754,8.498c-0.177,0.362-0.513,0.339-0.835,0.337c-1.861-0.011-3.723-0.025-5.584-0.039
			c0.353-0.962,0.036-1.84-0.343-2.709c0.084-0.58,0.533-0.468,0.915-0.481c0.604-0.019,1.227,0.097,1.781-0.26
			C47.244,6.137,48.58,7.214,49.754,8.498z"/>
		<path style="fill:#235C8E;" d="M45.687,5.347c-0.554,0.356-1.177,0.241-1.781,0.26c-0.381,0.012-0.83-0.099-0.915,0.481
			c-0.449-0.582-0.898-1.164-1.347-1.745c0.301-0.217,0.752-0.161,0.967-0.533C43.701,4.195,44.759,4.64,45.687,5.347z"/>
		<path style="fill:#152539;" d="M55.953,16.17c-0.867-0.152-1.803,0.325-2.62-0.286c0.769-0.684,1.303-1.567,2.03-2.486
			C55.683,14.391,55.958,15.246,55.953,16.17z"/>
		<path style="fill:#2E71AB;" d="M42.612,3.81c-0.216,0.371-0.667,0.316-0.967,0.533c-0.384-0.336-0.768-0.673-1.234-1.08
			C41.317,3.137,41.962,3.482,42.612,3.81z"/>
		<path style="fill:#122033;" d="M15.523,28.367c-0.086,0.01-0.217,0.06-0.25,0.022c-0.086-0.095,0.011-0.154,0.1-0.192
			C15.422,28.254,15.472,28.311,15.523,28.367z"/>
		<path style="fill:#1C3856;" d="M37.298,56.635c-0.086-0.014-0.172-0.027-0.257-0.041c0.036-0.05,0.072-0.1,0.108-0.15
			C37.199,56.508,37.248,56.572,37.298,56.635z"/>
		<path style="fill:#F3F3F4;" d="M28.235,43.302c0.592-0.74,1.407-1.039,1.762-1.802c0.119-0.255,0.477-0.09,0.625,0.123
			c0.199,0.287,0.22,0.613-0.107,0.843C29.881,42.912,29.203,43.252,28.235,43.302z"/>
	</g>
</g>
<g>
	<g>
		<path style="fill:#808080;" d="M39.151,0c1.192,0.32,2.414,0.558,3.571,0.976c4.635,1.676,8.562,4.329,11.399,8.558
			c0.848-0.876,1.077-2.091,1.864-3.017c2.522,6.459,4.09,12.975,2.795,19.882c-0.223,1.187-0.59,2.331-0.484,3.574
			c0.061,0.711-0.24,1.396-0.556,2.054c-0.761,1.584-1.41,3.225-2.238,4.771c-1.374,2.564-0.796,5.171-0.319,7.777
			c0.342,1.868,0.791,3.716,1.201,5.571c0.108,0.486,0.129,0.835-0.462,1.101c-7.258,3.273-14.501,6.578-21.75,9.871
			c-0.092,0.042-0.204,0.038-0.471,0.084c0.199-1.572,0.395-3.08,0.58-4.59c0.084-0.689,0.53-1.633,0.06-2.006
			c-0.494-0.393-1.346,0.196-2.009,0.444c-1.342,0.502-2.401,1.393-3.314,2.495c-1.19,1.436-2.356,2.901-3.887,4.01
			c-1.603,1.161-3.346,1.79-5.35,1.409c-0.485-0.092-0.903,0.022-1.345,0.22c-4.268,1.912-7.711,0.422-9.291-4.013
			c-0.255-0.717-0.626-1.356-1.068-1.976c-1.46-2.048-2.922-4.107-3.272-6.697c-0.221-1.632,0.323-2.953,1.64-3.961
			c2.062-1.578,6.098-2.113,7.832,0.539c0.249,0.38,0.513,0.284,0.825,0.149c3.446-1.5,6.73-3.234,9.206-6.185
			c0.297-0.354,0.459-0.621,0.108-1c-0.048-0.052-0.087-0.117-0.113-0.182c-0.898-2.304-1.564-4.684-2.737-6.9
			c-0.703-1.328-0.364-2.937,0.162-4.67c-2.251,0.853-3.866,2.479-6.032,2.932c-2.134,0.446-4.253,0.964-6.424,1.461
			c0-0.158-0.037-0.274,0.005-0.335c1.84-2.694,3.425-5.569,5.65-7.991c0.442-0.481,0.793-1.025,1.043-1.624
			c0.782-1.878,1.763-3.61,3.802-4.984c-4.693-0.381-9.052-0.734-13.681-1.11c1.874-1.245,3.536-2.295,5.138-3.43
			c1.583-1.121,3.299-1.954,5.139-2.576c-2.794-0.377-5.58-0.205-8.372-0.365c0.039-0.162,0.034-0.262,0.072-0.284
			c4.611-2.546,8.973-5.572,13.98-7.357c3.406-1.214,6.904-1.928,10.548-1.739c0.217,0.011,0.558,0.195,0.635-0.155
			c0.031-0.14-0.218-0.342-0.339-0.516c1.468,0,2.936,0.023,4.403-0.011C37.84,0.191,38.433,0.419,38.935,0
			C39.007,0,39.079,0,39.151,0z M52.055,8.626c-0.052-0.076-0.104-0.152-0.156-0.228c-0.411-0.59-0.932-1.072-1.487-1.523
			c-0.238-0.208-0.475-0.415-0.713-0.623c-0.239-0.612-0.907-0.692-1.332-1.074c-0.432-0.547-1.085-0.759-1.66-1.088
			c-0.417-0.475-1.075-0.511-1.563-0.856c-0.568-0.277-1.135-0.554-1.703-0.831c-0.908-0.368-1.818-0.728-2.799-0.863
			c-1.646-0.436-3.307-0.212-5.258-0.266c0.417,0.274,0.562,0.369,0.707,0.464c0.147,0.289,0.521,0.451,0.475,0.849
			c-0.079,0.012-0.159,0.024-0.238,0.036c-4.061-1.194-8.07-0.828-12.05,0.402c-1.039,0.276-2.079,0.546-3.031,1.067
			c-0.863,0.209-1.666,0.552-2.392,1.069c-0.781,0.224-1.476,0.616-2.129,1.089c-0.384,0.178-0.79,0.319-1.088,0.642
			c-0.768,0.356-1.537,0.71-2.187,1.27c-0.657,0.211-1.257,0.511-1.796,1.09c2.808,0.359,5.521,0.146,8.222,0.261
			c0.76,0.032,1.547-0.006,2.246,0.404c-1.66,0.572-3.32,1.144-4.98,1.716c-1.465,0.349-2.924,0.713-4.117,1.715
			c-1.301,0.623-2.395,1.544-3.515,2.565c2.044,0.144,4.087,0.288,6.131,0.431c0.503,0.014,1.007,0.027,1.51,0.041
			c0.4,0.275,0.851,0.171,1.288,0.17c1.392,0.299,2.854,0.303,4.265,0.952c-0.759,0.397-1.532,0.507-2.101,1.026
			c-1.461,0.631-2.394,1.767-3.014,3.186c-0.678,1.552-1.519,2.978-2.679,4.244c-1.37,1.495-2.357,3.279-3.588,5.132
			c2.958-0.576,5.694-1.062,8.017-2.792c0.814-0.606,1.734-0.997,2.798-0.931c0.728,0.045,1.099,0.116,0.704,1.055
			c-0.851,2.018-0.853,4.067,0.499,5.916c0.429,0.587,0.777,1.173,0.953,1.869c0.078,1.388,0.465,2.687,1.338,3.77
			c0.402,0.498,0.262,0.799-0.073,1.168c-0.72,0.785-1.441,1.571-2.161,2.356c-1.382,1.206-2.948,2.144-4.507,3.093
			c-1.323,0.534-2.532,1.313-3.904,1.75c-0.638,0.203-0.99,0.142-1.414-0.455c-1.663-2.339-5.932-2.06-7.407,0.429
			c-0.153,0.258-0.243,0.511-0.22,0.807c-0.296,0.585-0.292,1.169,0.004,1.752c0.017,0.14,0.034,0.279,0.051,0.419
			c0.644,1.917,1.574,3.674,2.913,5.202c0.614,0.85,0.984,1.821,1.386,2.776c1.027,2.904,3.113,4.155,6.086,3.46
			c1.643-0.384,3.206-1.132,4.963-0.693c0.217,0.054,0.483-0.094,0.727-0.141c2.098-0.41,3.281-2.031,4.598-3.474
			c0.241-0.211,0.533-0.385,0.715-0.638c1.829-2.534,4.307-3.972,7.368-4.497c0.801-0.137,1.054,0.102,0.928,0.877
			c-0.182,1.121-0.476,2.23-0.411,3.382c-0.281,0.591-0.478,1.457-0.165,1.787c0.342,0.36,1.035-0.285,1.574-0.485
			c0.421-0.156,0.802-0.423,1.2-0.641c2.482-1.209,5.127-2.061,7.54-3.424c3.052-1.363,6.103-2.727,9.156-4.086
			c0.521-0.232,1.048-0.446,0.538-1.152c-0.291-1.357-0.582-2.715-0.873-4.072c-0.384-1.704-0.634-3.426-0.679-5.175
			c-0.017-1.293,0.186-2.535,0.864-3.665c0.244-0.59,0.49-1.179,0.733-1.769c0.878-2.128,2.655-3.983,2.007-6.579
			c-0.015-0.06,0.031-0.138,0.058-0.204c1.192-2.886,0.942-5.911,0.864-8.919c-0.003-0.442,0.108-0.9-0.173-1.305
			c-0.078-0.567-0.156-1.134-0.234-1.702c0.103-1.145-0.54-2.135-0.67-3.232c-0.161-1.071-0.738-1.998-1.038-3.021
			c0.003-0.276,0.041-0.566-0.337-0.742c-0.118,0.243-0.235,0.485-0.352,0.727c-0.493,0.549-0.573,1.352-1.154,1.893
			c-0.403-0.64-0.792-1.259-1.181-1.878C52.8,9.383,52.373,9.043,52.055,8.626z"/>
		<path style="fill:#808080;" d="M38.935,0c-0.502,0.419-1.095,0.191-1.642,0.203c-1.467,0.035-2.935,0.012-4.403,0.011
			C32.821,0.143,32.752,0.072,32.683,0C34.767,0,36.851,0,38.935,0z"/>
		<path style="fill:#122031;" d="M24.293,36.215c-0.176-0.696-0.524-1.283-0.953-1.869c-1.352-1.849-1.35-3.898-0.499-5.916
			c0.396-0.939,0.024-1.01-0.704-1.055c-1.064-0.066-1.984,0.325-2.798,0.931c-2.323,1.729-5.059,2.215-8.017,2.792
			c1.231-1.853,2.217-3.637,3.588-5.132c1.161-1.266,2.001-2.692,2.679-4.244c0.62-1.419,1.553-2.555,3.014-3.186
			c0.288,0.133,0.495,0.353,0.653,0.622c-1.463,0.713-2.412,1.86-2.955,3.387c-0.524,1.471-1.382,2.743-2.441,3.89
			c-0.838,0.907-1.56,1.901-2.156,3.041c2.087-0.166,3.733-1.157,5.362-2.219c1.617-1.055,3.313-1.287,5.079-0.32
			c0.515,0.282,0.607,0.471,0.181,1.008c-1.434,1.808-1.374,4.691,0.129,6.131c0.585,0.561,0.785,1.142,0.699,1.89
			C24.942,36.308,24.597,36.193,24.293,36.215z"/>
		<path style="fill:#132133;" d="M57.681,16.169c0.078,0.567,0.156,1.134,0.234,1.702c0.044,0.437-0.162,0.907,0.173,1.305
			c0.077,3.008,0.327,6.033-0.864,8.919c-0.027,0.066-0.073,0.144-0.058,0.204c0.648,2.596-1.129,4.45-2.007,6.579
			c-0.243,0.59-0.489,1.179-0.733,1.769c-0.362,0.025-0.671-0.052-0.83-0.425c0.297-1.164,0.891-2.202,1.397-3.276
			c0.69-1.461,1.736-2.837,1.017-4.613c-0.041-0.1,0.048-0.273,0.112-0.393c0.638-1.188,0.785-2.501,0.976-3.803
			c0.271-1.721,0.286-3.442-0.011-5.163c-0.017-0.355-0.033-0.711-0.05-1.066c-0.025-0.369,0.131-0.765-0.17-1.091
			c-0.02-0.215-0.04-0.43-0.06-0.645C57.099,16.172,57.39,16.171,57.681,16.169z"/>
		<path style="fill:#1B3958;" d="M26.672,58.434c-1.317,1.443-2.5,3.064-4.598,3.474c-0.244,0.048-0.51,0.196-0.727,0.141
			c-1.757-0.439-3.32,0.309-4.963,0.693c-2.973,0.695-5.059-0.555-6.086-3.46c0.365,0.024,0.675-0.057,0.83-0.435
			c1.461,2.827,3.064,3.618,5.715,2.773c0.537-0.171,1.054-0.437,1.541-0.725c0.326-0.192,0.57-0.281,0.97-0.147
			c1.967,0.658,3.639,0.063,5.092-1.321c0.514-0.49,1.029-0.979,1.544-1.469C26.138,58.231,26.429,58.299,26.672,58.434z"/>
		<path style="fill:#172E47;" d="M5.944,49.133c-0.023-0.295,0.067-0.549,0.22-0.807c1.475-2.489,5.744-2.768,7.407-0.429
			c0.425,0.597,0.776,0.658,1.414,0.455c1.372-0.437,2.581-1.216,3.904-1.75c0.036,0.49,0.348,0.625,0.78,0.606
			c-1.542,0.976-3.167,1.782-4.929,2.274c-0.791,0.221-1.494,0.265-1.886-0.769c-0.394-1.04-1.319-1.455-2.416-1.466
			c-2.345-0.024-3.664,1.29-3.607,3.592c-0.149,0.383-0.451,0.494-0.831,0.464c-0.017-0.14-0.034-0.279-0.051-0.419
			C5.947,50.301,5.946,49.717,5.944,49.133z"/>
		<path style="fill:#193450;" d="M26.672,58.434c-0.244-0.135-0.535-0.203-0.683-0.475c0.286-0.361,0.579-0.717,0.857-1.083
			c2.345-3.086,5.513-4.542,9.328-4.738c0.564-0.029,0.847,0.014,0.704,0.739c-0.261,1.332-0.394,2.688-0.581,4.035
			c-0.177,0.478-0.471,0.77-1.027,0.648c-0.065-1.152,0.229-2.261,0.411-3.382c0.126-0.775-0.127-1.015-0.928-0.877
			c-3.061,0.525-5.539,1.963-7.368,4.497C27.205,58.049,26.913,58.223,26.672,58.434z"/>
		<path style="fill:#163655;" d="M22.124,9.918c-0.699-0.41-1.486-0.371-2.246-0.404c-2.702-0.115-5.414,0.097-8.222-0.261
			c0.539-0.579,1.139-0.878,1.796-1.09c0.551,0.361,1.171,0.216,1.767,0.245c1.176,0.012,2.355-0.032,3.526,0.047
			c2.225,0.15,4.487,0.031,6.638,0.8c-0.77,0.415-1.603,0.168-2.406,0.225c-0.292,0.021-0.621-0.041-0.426,0.436
			C22.409,9.917,22.266,9.918,22.124,9.918z"/>
		<path style="fill:#132235;" d="M21.257,19.158c-0.158-0.27-0.365-0.489-0.653-0.622c0.569-0.52,1.341-0.629,2.101-1.026
			c-1.41-0.65-2.873-0.653-4.265-0.952c-0.394-0.323-0.858-0.119-1.288-0.17c-0.503-0.014-1.007-0.027-1.51-0.041
			c-0.596-0.544-0.058-0.704,0.321-0.792c0.4-0.093,0.832-0.044,1.25-0.057c2.839,0.371,5.81,0.328,8.376,2.585
			C23.858,18.159,22.584,18.754,21.257,19.158z"/>
		<path style="fill:#19324D;" d="M55.114,49.558c0.51,0.706-0.017,0.92-0.538,1.152c-3.053,1.36-6.104,2.724-9.156,4.086
			c-0.222-0.219-0.443-0.437-0.664-0.656c0.402-0.224,0.791-0.477,1.208-0.668c2.743-1.254,5.492-2.494,8.239-3.739
			C54.592,50.115,54.926,50.212,55.114,49.558z"/>
		<path style="fill:#1D619D;" d="M24.279,3.025c3.98-1.23,7.989-1.597,12.051-0.402c-0.335,0.308-0.747,0.135-1.124,0.179
			c-0.695,0.082-1.419-0.179-2.09,0.177c-2.174-0.116-4.329,0.039-6.469,0.429C25.915,2.926,25.002,3.562,24.279,3.025z"/>
		<path style="fill:#152C45;" d="M52.949,9.917c0.389,0.619,0.778,1.237,1.181,1.878c0.581-0.541,0.662-1.344,1.155-1.893
			c0.229,0.005,0.459,0.01,0.688,0.015c0.3,1.023,0.877,1.951,1.038,3.021c-0.331-0.043-0.611,0.111-0.899,0.234
			c-0.333-0.414-0.193-1.052-0.667-1.425c-0.577,0.904-0.946,1.924-1.881,2.801c0.044-1.758-0.795-3.046-1.488-4.39
			C52.295,9.815,52.644,9.946,52.949,9.917z"/>
		<path style="fill:#142539;" d="M17.214,15.498c-0.418,0.013-0.85-0.036-1.25,0.057c-0.379,0.088-0.917,0.248-0.321,0.792
			c-2.044-0.144-4.087-0.288-6.131-0.432c1.12-1.022,2.213-1.943,3.515-2.565c0.42-0.003,0.797,0.112,1.115,0.395
			c-0.637,0.34-1.312,0.627-1.848,1.242C13.978,15.422,15.626,15.168,17.214,15.498z"/>
		<path style="fill:#1A3551;" d="M44.756,54.141c0.221,0.219,0.443,0.437,0.664,0.656c-2.413,1.363-5.057,2.215-7.54,3.424
			c-0.311-0.174-0.677-0.267-0.884-0.597C39.55,56.389,42.112,55.173,44.756,54.141z"/>
		<path style="fill:#16263A;" d="M24.293,36.215c0.305-0.022,0.649,0.093,0.861-0.249c0.395,1.222,0.356,2.701,1.353,3.578
			c1.058,0.93,0.621,1.44-0.157,2.074c-0.108,0.088-0.215,0.176-0.323,0.263c-0.157-0.243-0.314-0.485-0.471-0.728
			c0.335-0.369,0.475-0.669,0.073-1.168C24.757,38.903,24.371,37.603,24.293,36.215z"/>
		<path style="fill:#1A334D;" d="M5.999,51.304c0.38,0.03,0.681-0.081,0.831-0.464c0.734,1.915,1.756,3.678,2.852,5.402
			c-0.257,0.088-0.513,0.176-0.77,0.264C7.574,54.978,6.643,53.221,5.999,51.304z"/>
		<path style="fill:#172C44;" d="M19.669,47.209c-0.432,0.019-0.744-0.117-0.78-0.606c1.559-0.949,3.125-1.887,4.507-3.093
			c0.144,0.377,0.437,0.493,0.813,0.466C22.979,45.452,21.328,46.337,19.669,47.209z"/>
		<path style="fill:#17293F;" d="M53.562,40.311c0.045,1.749,0.295,3.471,0.679,5.175c-0.429,0.057-0.796-0.035-1.035-0.432
			c-0.485-2.072-0.837-4.154-0.491-6.29C52.938,39.313,52.204,40.385,53.562,40.311z"/>
		<path style="fill:#162D46;" d="M22.124,9.918c0.143,0,0.285-0.001,0.428-0.001c0.121,0.222,0.456,0.295,0.43,0.618
			c-1.485,0.628-2.901,1.441-4.527,1.692c-0.25-0.612-0.895-0.348-1.31-0.593C18.804,11.062,20.464,10.49,22.124,9.918z"/>
		<path style="fill:#152A40;" d="M17.144,11.634c0.415,0.245,1.061-0.019,1.31,0.593c-1.471,0.411-2.933,0.846-4.312,1.517
			c-0.318-0.282-0.696-0.398-1.115-0.395C14.219,12.347,15.678,11.983,17.144,11.634z"/>
		<path style="fill:#1F68A6;" d="M36.568,2.587c0.047-0.397-0.328-0.56-0.474-0.849c1.514-0.137,3.049,0.217,4.551-0.198
			c0.98,0.134,1.891,0.494,2.799,0.863c-0.423,0.425-1.061-0.05-1.488,0.357c-0.588-0.142-1.172-0.31-1.767-0.417
			c-0.626-0.113-1.267-0.458-1.889,0.025c-0.504,0.09-1.061-0.196-1.519,0.216C36.709,2.585,36.639,2.586,36.568,2.587z"/>
		<path style="fill:#192E45;" d="M53.206,45.054c0.24,0.397,0.606,0.489,1.035,0.432c0.291,1.357,0.582,2.715,0.874,4.072
			c-0.189,0.653-0.522,0.557-0.911,0.176C53.781,48.193,53.437,46.636,53.206,45.054z"/>
		<path style="fill:#1B3855;" d="M36.997,57.624c0.207,0.329,0.572,0.423,0.884,0.597c-0.399,0.218-0.779,0.485-1.2,0.641
			c-0.539,0.199-1.233,0.844-1.574,0.485c-0.313-0.33-0.116-1.196,0.165-1.787c0.555,0.122,0.85-0.17,1.027-0.648
			C36.305,57.371,36.052,58.085,36.997,57.624z"/>
		<path style="fill:#162538;" d="M53.562,40.311c-1.358,0.073-0.624-0.999-0.847-1.547c-0.012-0.954,0.445-1.745,0.881-2.543
			c0.158,0.373,0.468,0.45,0.83,0.425C53.748,37.776,53.545,39.018,53.562,40.311z"/>
		<path style="fill:#152639;" d="M56.112,13.171c0.288-0.123,0.568-0.277,0.899-0.234c0.13,1.097,0.772,2.087,0.67,3.232
			c-0.291,0.001-0.582,0.003-0.872,0.004C56.576,15.173,56.344,14.172,56.112,13.171z"/>
		<path style="fill:#1F598B;" d="M24.279,3.025c0.723,0.536,1.635-0.099,2.366,0.383c-1.078,0.289-2.156,0.578-3.235,0.867
			c-0.695-0.365-1.444-0.095-2.163-0.183C22.2,3.571,23.241,3.301,24.279,3.025z"/>
		<path style="fill:#1C3753;" d="M8.912,56.506c0.257-0.088,0.513-0.176,0.77-0.264c0.838,0.671,1.136,1.641,1.445,2.605
			c-0.154,0.378-0.465,0.459-0.83,0.435C9.896,58.327,9.526,57.356,8.912,56.506z"/>
		<path style="fill:#1C4F7D;" d="M21.248,4.093c0.719,0.088,1.468-0.182,2.163,0.183c-0.934,0.36-1.868,0.721-2.802,1.081
			c-0.55-0.373-1.173-0.089-1.753-0.195C19.582,4.645,20.385,4.301,21.248,4.093z"/>
		<path style="fill:#1E5E95;" d="M36.568,2.587c0.071-0.001,0.141-0.002,0.212-0.003c0.584,0.551,1.285,0.089,1.917,0.219
			c0.094,0.245,0.482,0.102,0.533,0.404c-0.883,0.172-1.871-0.299-2.662,0.435C35.417,3.421,34.266,3.2,33.115,2.98
			c0.672-0.356,1.396-0.095,2.09-0.177c0.377-0.045,0.789,0.128,1.124-0.179C36.409,2.611,36.489,2.599,36.568,2.587z"/>
		<path style="fill:#182A3F;" d="M24.209,43.976c-0.376,0.027-0.669-0.089-0.813-0.466c0.72-0.786,1.441-1.571,2.161-2.356
			c0.157,0.243,0.314,0.485,0.471,0.728C25.753,42.868,24.694,43.173,24.209,43.976z"/>
		<path style="fill:#183B5C;" d="M15.219,8.408c-0.596-0.029-1.217,0.115-1.767-0.245c0.649-0.561,1.418-0.915,2.187-1.27
			c0.373,0.106,0.918-0.256,1.09,0.4C16.216,7.651,15.604,7.876,15.219,8.408z"/>
		<path style="fill:#1C4870;" d="M18.856,5.161c0.58,0.106,1.203-0.178,1.753,0.195c-0.719,0.35-1.437,0.7-2.156,1.05
			c-0.552-0.312-1.153-0.084-1.726-0.156C17.38,5.777,18.075,5.386,18.856,5.161z"/>
		<path style="fill:#1E6EB1;" d="M40.644,1.541c-1.502,0.415-3.037,0.06-4.551,0.198c-0.145-0.095-0.29-0.19-0.708-0.464
			C37.337,1.329,38.999,1.105,40.644,1.541z"/>
		<path style="fill:#193C5E;" d="M50.413,6.875c0.554,0.451,1.074,0.934,1.486,1.523c-0.317,0.043-0.689-0.096-0.909,0.271
			c-0.502-0.504-1.005-1.008-1.507-1.512C49.709,6.788,50.094,6.94,50.413,6.875z"/>
		<path style="fill:#1E507D;" d="M46.709,4.091c0.575,0.33,1.227,0.541,1.66,1.088c-0.414,0.045-0.858-0.141-1.238,0.162
			c-0.575-0.352-1.151-0.704-1.726-1.056C45.797,3.937,46.275,4.164,46.709,4.091z"/>
		<path style="fill:#1A466F;" d="M47.131,5.342c0.38-0.303,0.824-0.117,1.238-0.162c0.424,0.382,1.092,0.462,1.331,1.074
			c-0.356,0.041-0.746-0.119-1.062,0.172C48.136,6.064,47.633,5.703,47.131,5.342z"/>
		<path style="fill:#1E588A;" d="M46.709,4.091c-0.434,0.072-0.912-0.154-1.304,0.194c-0.575-0.288-1.15-0.575-1.724-0.863
			c0.45-0.362,0.978-0.116,1.466-0.188C45.634,3.58,46.292,3.616,46.709,4.091z"/>
		<path style="fill:#205F96;" d="M45.146,3.235c-0.487,0.072-1.015-0.174-1.466,0.188c-0.575-0.221-1.15-0.442-1.725-0.663
			c0.427-0.407,1.066,0.068,1.488-0.357C44.011,2.68,44.578,2.958,45.146,3.235z"/>
		<path style="fill:#1C4266;" d="M16.727,6.251c0.574,0.071,1.174-0.156,1.726,0.156c-0.575,0.296-1.15,0.591-1.724,0.887
			c-0.172-0.656-0.717-0.294-1.09-0.4C15.937,6.57,16.343,6.429,16.727,6.251z"/>
		<path style="fill:#1C3651;" d="M52.949,9.917c-0.305,0.029-0.654-0.102-0.873,0.241c-0.311-0.429-0.755-0.762-0.93-1.289
			c0.303-0.081,0.606-0.162,0.909-0.243C52.373,9.043,52.8,9.383,52.949,9.917z"/>
		<path style="fill:#1A4167;" d="M48.639,6.425c0.316-0.292,0.705-0.131,1.062-0.172c0.237,0.208,0.475,0.415,0.713,0.623
			c-0.319,0.064-0.704-0.088-0.931,0.282C49.201,6.913,48.92,6.669,48.639,6.425z"/>
		<path style="fill:#1B354F;" d="M55.973,9.916c-0.229-0.005-0.459-0.01-0.688-0.015c0.117-0.242,0.234-0.484,0.352-0.727
			C56.014,9.35,55.976,9.64,55.973,9.916z"/>
		<path style="fill:#1A334D;" d="M5.944,49.133c0.001,0.584,0.003,1.168,0.004,1.752C5.652,50.302,5.649,49.718,5.944,49.133z"/>
		<path style="fill:#1C3A57;" d="M52.055,8.626c-0.303,0.081-0.606,0.162-0.909,0.243c-0.052-0.067-0.104-0.133-0.156-0.2
			c0.221-0.367,0.592-0.228,0.909-0.271C51.951,8.474,52.003,8.55,52.055,8.626z"/>
		<path style="fill:#152639;" d="M58.088,19.176c-0.335-0.398-0.129-0.868-0.173-1.305C58.195,18.276,58.085,18.734,58.088,19.176z"
			/>
		<path style="fill:#142539;" d="M17.152,16.387c0.43,0.051,0.894-0.153,1.288,0.17C18.003,16.559,17.553,16.662,17.152,16.387z"/>
		<path style="fill:#FEFEFE;" d="M50.99,8.669c0.052,0.067,0.104,0.133,0.156,0.2c0.175,0.527,0.619,0.86,0.93,1.289
			c0.693,1.343,1.532,2.632,1.488,4.39c0.936-0.878,1.304-1.898,1.881-2.801c0.474,0.373,0.334,1.012,0.667,1.425
			c0.232,1.001,0.464,2.001,0.696,3.002c0.02,0.215,0.04,0.43,0.06,0.645c-0.019,0.375-0.014,0.747,0.17,1.091
			c0.017,0.355,0.033,0.711,0.05,1.066c0.004,1.721,0.007,3.442,0.011,5.163c-0.191,1.302-0.338,2.615-0.976,3.803
			c-0.064,0.12-0.153,0.292-0.112,0.393c0.719,1.776-0.327,3.151-1.017,4.613c-0.507,1.074-1.101,2.112-1.397,3.276
			c-0.436,0.798-0.893,1.589-0.881,2.543c-0.346,2.136,0.006,4.218,0.491,6.29c0.231,1.582,0.576,3.139,0.998,4.68
			c-2.747,1.245-5.496,2.485-8.239,3.739c-0.417,0.191-0.806,0.444-1.208,0.668c-2.644,1.033-5.206,2.248-7.759,3.483
			c-0.945,0.462-0.692-0.253-0.699-0.712c0.187-1.346,0.319-2.703,0.581-4.035c0.142-0.725-0.14-0.768-0.704-0.739
			c-3.815,0.196-6.983,1.651-9.328,4.738c-0.279,0.367-0.571,0.723-0.857,1.083c-0.515,0.49-1.029,0.979-1.544,1.469
			c-1.453,1.384-3.125,1.979-5.092,1.321c-0.4-0.134-0.644-0.045-0.97,0.147c-0.488,0.287-1.004,0.553-1.541,0.725
			c-2.651,0.845-4.254,0.054-5.715-2.773c-0.309-0.964-0.608-1.934-1.445-2.605c-1.096-1.724-2.118-3.487-2.852-5.402
			c-0.057-2.302,1.263-3.616,3.607-3.592c1.097,0.011,2.022,0.426,2.416,1.466c0.392,1.034,1.095,0.99,1.886,0.769
			c1.762-0.492,3.386-1.298,4.929-2.274c1.659-0.873,3.31-1.757,4.54-3.233c0.486-0.803,1.545-1.108,1.819-2.094
			c0.108-0.088,0.215-0.176,0.323-0.263c0.778-0.634,1.215-1.144,0.157-2.074c-0.998-0.877-0.959-2.356-1.353-3.578
			c0.087-0.749-0.113-1.329-0.699-1.89c-1.503-1.441-1.563-4.323-0.129-6.131c0.426-0.537,0.334-0.726-0.181-1.008
			c-1.766-0.966-3.461-0.734-5.079,0.32c-1.629,1.062-3.275,2.053-5.362,2.219c0.595-1.14,1.318-2.134,2.156-3.041
			c1.059-1.146,1.917-2.418,2.441-3.89c0.544-1.527,1.493-2.675,2.955-3.387c1.326-0.404,2.601-0.999,4.333-1.075
			c-2.566-2.257-5.537-2.214-8.376-2.585c-1.588-0.329-3.236-0.076-4.92-0.511c0.537-0.616,1.212-0.902,1.848-1.242
			c1.379-0.671,2.841-1.106,4.312-1.517c1.626-0.251,3.042-1.063,4.527-1.692c0.988-0.359,1.98-0.705,3.041-0.896
			c-0.158-0.364-0.387-0.398-0.639-0.384c-2.152-0.769-4.413-0.649-6.638-0.8c-1.171-0.079-2.35-0.035-3.526-0.047
			c0.385-0.532,0.996-0.757,1.509-1.116c0.575-0.296,1.15-0.591,1.724-0.887c0.719-0.35,1.437-0.7,2.156-1.05
			c0.934-0.36,1.868-0.721,2.802-1.081c1.078-0.289,2.156-0.578,3.235-0.867c2.14-0.39,4.296-0.545,6.469-0.429
			c1.151,0.221,2.302,0.442,3.453,0.662c0.574,0.219,1.149,0.439,1.723,0.658c0.641,0.374,1.282,0.749,1.923,1.123
			c0.769,0.623,1.537,1.246,2.426,1.966c-0.128-1.081-0.839-1.592-1.374-2.213c-0.192-0.528-0.707-0.731-1.081-1.077
			C40.04,3.615,39.52,3.535,39.23,3.207c-0.051-0.302-0.439-0.158-0.533-0.404c-0.003-0.264-0.204-0.347-0.398-0.435
			c0.622-0.483,1.264-0.138,1.889-0.025c0.595,0.107,1.178,0.276,1.767,0.417c0.575,0.221,1.15,0.442,1.725,0.663
			c0.575,0.288,1.15,0.575,1.724,0.863c0.575,0.352,1.151,0.704,1.726,1.056c0.503,0.361,1.005,0.722,1.508,1.083
			c0.281,0.244,0.563,0.488,0.844,0.732C49.985,7.661,50.487,8.165,50.99,8.669z M42.692,3.848
			c-0.709-0.423-1.483-0.642-2.593-0.851c0.533,0.432,0.828,0.671,1.123,0.909c0.245,0.277,0.49,0.555,0.734,0.832
			c0.198,0.222,0.396,0.444,0.594,0.666c0.222,0.358,0.445,0.715,0.667,1.073c0.091,0.284,0.182,0.569,0.274,0.853
			c0.001,0.357,0.002,0.714,0.004,1.071c-0.093,0.214-0.186,0.429-0.279,0.643c-0.134-0.068-0.268-0.137-0.402-0.205
			c-0.106-0.298-0.336-0.49-0.577-0.673c-0.141-0.144-0.282-0.289-0.422-0.433c-0.092-0.205-0.237-0.353-0.455-0.422
			c-0.177-0.278-0.408-0.493-0.715-0.622c-0.142-0.229-0.356-0.361-0.604-0.447c-0.158-0.233-0.382-0.367-0.652-0.429
			c-0.176-0.232-0.416-0.358-0.697-0.413c-0.272-0.272-0.604-0.42-0.983-0.47c-0.531-0.357-1.118-0.555-1.75-0.634
			c-3.201-1.007-6.403-0.857-9.606-0.012c-0.833,0.05-1.611,0.299-2.364,0.641c-0.468,0.029-0.891,0.188-1.281,0.443
			c-0.402,0.041-0.77,0.169-1.087,0.428c-0.394,0.04-0.74,0.191-1.044,0.443c-0.341,0.049-0.653,0.164-0.899,0.418
			c-0.474,0.122-0.909,0.322-1.279,0.649c-0.269,0.036-0.475,0.156-0.694,0.418c1.562,0.072,2.993,0.138,4.424,0.204
			c1.289,0.222,2.579,0.444,3.868,0.665c0.364,0.133,0.729,0.266,1.093,0.399c0.415,0.192,0.83,0.384,1.244,0.576
			c0.301,0.186,0.602,0.372,0.903,0.558c0.055,0.14,0.111,0.28,0.166,0.421c-2.454-0.651-4.724-0.132-6.884,1.083
			c-0.495,0.212-0.991,0.424-1.486,0.636c-1.461,0.392-2.939,0.727-4.347,1.295c-0.781,0.162-1.527,0.4-2.36,1.036
			c2.984,0.103,5.731,0.295,8.412,0.999c0.789,0.358,1.579,0.716,2.368,1.074c0.496,0.624,1.294,1.09,1.087,2.082
			c-2.075,0.073-4.037,0.481-5.652,1.914c-0.51,0.189-0.822,0.635-1.003,1.066c-1.022,2.435-2.528,4.542-4.247,6.516
			c-0.022,0.026,0.018,0.106,0.034,0.185c0.581-0.092,1.081-0.36,1.57-0.642c0.895-0.518,1.753-1.11,2.677-1.569
			c2.031-1.01,4.461-0.627,5.847,0.861c0.224,0.24,0.583,0.419,0.022,0.793c-1.192,0.795-1.502,2.018-1.369,3.386
			c0.006,0.248-0.029,0.505,0.024,0.743c0.175,0.79,0.533,1.455,1.247,1.919c0.713,0.464,0.998-0.311,1.498-0.449
			c0.172-0.047,0.333-0.137,0.506-0.174c2.969-0.633,5.947-0.647,8.929-0.103c0.716,0.13,1.15,0.532,1.168,1.299
			c-0.195,0.925-0.696,1.681-1.31,2.376c-0.606,0.487-1.166,1.054-1.83,1.441c-0.825,0.481-0.569,0.796,0.031,1.168
			c1.095,1.282,2.594,1.674,4.171,1.894c0.857,0.322,1.734,0.611,2.386,1.307c0.223,0.506,0.445,1.012,0.668,1.518
			c-0.015,0.573-0.03,1.146-0.045,1.719c-0.216,0.575-0.431,1.15-0.647,1.725c-0.377,0.641-0.754,1.282-1.13,1.922
			c-0.479,0.648-1.122,1.172-1.468,1.921c-0.323,0.23-0.596,0.482-0.65,0.917c-0.175,1.407-0.369,2.813-0.583,4.424
			c3.408-1.573,6.659-3.073,9.909-4.573c1.581-0.719,3.162-1.437,4.743-2.156c2.087-0.902,1.834-0.389,1.276-2.46
			c-0.343-0.681-0.055-1.491-0.445-2.162c0.006-0.369,0.031-0.741-0.201-1.065c-0.082-0.575-0.165-1.15-0.247-1.725
			c-0.011-0.217-0.022-0.435-0.033-0.652c-0.05-0.596-0.099-1.193-0.149-1.789c-0.001-0.261-0.002-0.521-0.003-0.782l-0.005,0.011
			c0.056-0.436,0.113-0.872,0.169-1.308c0.067-0.218,0.135-0.436,0.202-0.654c0.239-0.644,0.478-1.288,0.716-1.932
			c0.321-0.457,0.521-0.967,0.661-1.503c0.572-1.154,1.145-2.309,1.811-3.654c-1.466,0.393-2.702,0.697-3.922,1.056
			c-2.603,0.765-5.275,1.277-7.84,2.179c-1.685,0.312-3.322,0.808-4.954,1.321c-0.386-0.135-1.261,0.864-1.124-0.485
			c0.031-0.565,0.493-0.623,0.891-0.763c2.107-0.743,4.214-1.488,6.321-2.233c3.31-1.098,6.62-2.198,9.93-3.295
			c0.576-0.191,0.818-0.679,0.998-1.181c0.71-1.981,0.816-4.032,0.646-6.109c-0.013-0.648-0.025-1.297-0.038-1.945
			c-0.031-0.877-0.094-1.75-0.333-2.601c-0.137-0.694-0.28-1.386-0.408-2.082c-0.038-0.207-0.014-0.431-0.297-0.481
			c-0.242-0.043-0.35,0.078-0.493,0.273c-0.415,0.565-0.849,1.127-1.345,1.619c-0.473,0.469-0.738,0.262-0.732-0.364
			c0.378-0.986,0.071-1.907-0.265-2.826c-0.043-0.331-0.178-0.618-0.405-0.863c-0.032-0.476-0.41-0.739-0.665-1.078
			c0.044-0.349-0.359-0.389-0.446-0.647c-0.06-0.315-0.29-0.498-0.526-0.676c-0.191-0.205-0.383-0.41-0.574-0.616
			c-0.053-0.377-0.504-0.358-0.646-0.647c-0.137-0.341-0.445-0.496-0.733-0.672c-0.251-0.428-0.729-0.568-1.088-0.858
			c-0.449-0.469-0.988-0.801-1.583-1.051c-0.434-0.502-1.117-0.548-1.636-0.896C43.681,4.284,43.187,4.066,42.692,3.848z
			 M27.29,41.821c-0.23,0.28-0.46,0.559-0.69,0.839c-0.416,0.439-0.832,0.879-1.248,1.318c-0.437,0.429-0.874,0.858-1.312,1.287
			c-0.492,0.364-0.983,0.728-1.475,1.093c-0.79,0.503-1.58,1.006-2.37,1.51c-1.307,0.641-2.615,1.282-3.922,1.922
			c-0.071,0.006-0.151-0.007-0.212,0.02c-0.795,0.355-2.009,0.121-2.405,0.62c-0.444,0.56,0.537,1.516,0.519,2.393
			c-0.893-0.012-0.566-0.909-0.94-1.297c-0.293-0.798-0.553-1.61-0.89-2.39c-0.211-0.49-0.535-0.954-1.118-1.062
			c-1.256-0.232-2.463-0.077-3.334,0.925c-0.859,0.99-0.314,1.994,0.218,2.944c-0.081,0.319,0.131,0.564,0.271,0.784
			c1.395,2.202,3.018,4.253,3.889,6.78c0.417,1.211,1.552,1.742,2.86,1.715c1.506-0.031,2.769-0.666,3.889-1.626
			c1.526-1.308,3.036-2.635,4.575-3.929c0.263-0.221,0.486-0.697,1.12-0.317c-1.768,1.545-3.497,3.057-5.343,4.67
			c1.786,0.645,3.136,0.129,4.369-0.843c1.249-0.985,2.177-2.28,3.233-3.453c1.034-1.148,2.016-2.381,3.548-2.936
			c1.879-0.78,3.817-1.296,5.867-1.318c0.751-0.008,1.395-0.212,1.696-0.994c0.63-0.64,1.147-1.358,1.513-2.181
			c0.422-0.508,0.722-1.076,0.843-1.731c0.235-0.217,0.244-0.503,0.244-0.793c0.27-0.432,0.198-0.901,0.15-1.368
			c-0.008-0.515-0.166-0.964-0.577-1.299c-0.361-0.517-0.861-0.8-1.484-0.872c-0.748-0.359-1.554-0.514-2.361-0.665
			c-0.354-0.143-0.708-0.286-1.063-0.429c-0.379-0.278-0.757-0.556-1.136-0.834c-0.595-1.048-1.386-1.276-2.439-0.635
			c-0.326,0.198-0.726,0.273-1.093,0.404c-0.198,0.021-0.396,0.042-0.594,0.063c-0.492,0.066-1.026-0.212-1.477,0.185
			c-0.236,0.28-0.473,0.561-0.709,0.841C27.698,41.382,27.494,41.601,27.29,41.821z"/>
		<path style="fill:#152639;" d="M57.099,24.138c-0.004-1.721-0.007-3.442-0.011-5.163C57.385,20.696,57.37,22.417,57.099,24.138z"
			/>
		<path style="fill:#152639;" d="M57.038,17.909c-0.184-0.344-0.189-0.715-0.17-1.091C57.168,17.144,57.013,17.541,57.038,17.909z"
			/>
		<path style="fill:#18334E;" d="M25.384,9.255c0.252-0.014,0.48,0.02,0.639,0.384c-1.061,0.191-2.053,0.537-3.041,0.896
			c0.026-0.324-0.309-0.397-0.43-0.618c-0.194-0.476,0.134-0.415,0.426-0.436C23.781,9.423,24.614,9.671,25.384,9.255z"/>
		<path style="fill:#1E629D;" d="M38.299,2.368c0.194,0.089,0.395,0.172,0.398,0.435c-0.632-0.13-1.333,0.332-1.917-0.219
			C37.238,2.172,37.795,2.458,38.299,2.368z"/>
		<path style="fill:#1E598C;" d="M38.291,4.3c-0.574-0.219-1.149-0.439-1.723-0.658c0.791-0.734,1.779-0.263,2.662-0.435
			c0.289,0.328,0.81,0.408,0.956,0.891C39.556,4.184,38.886,3.892,38.291,4.3z"/>
		<path style="fill:#111F31;" d="M56.389,20.911c0.17,2.077,0.065,4.128-0.646,6.109c-0.18,0.502-0.422,0.99-0.998,1.181
			c-3.311,1.097-6.62,2.196-9.93,3.295c-0.619-0.204-1.254-0.245-1.904-0.244c-6.279,0.011-12.559,0.006-18.838,0.006
			c-0.133-1.368,0.177-2.591,1.369-3.386c0.56-0.374,0.201-0.553-0.022-0.793c-1.386-1.488-3.816-1.87-5.847-0.861
			c-0.924,0.459-1.781,1.051-2.677,1.569c-0.489,0.283-0.989,0.55-1.57,0.642c-0.016-0.078-0.056-0.159-0.034-0.185
			c1.72-1.974,3.225-4.081,4.247-6.516c0.181-0.432,0.493-0.877,1.003-1.066c0.487,0.303,1.031,0.247,1.566,0.247
			C33.535,20.911,44.962,20.911,56.389,20.911z"/>
		<path style="fill:#E96619;" d="M13.235,51.524c0.374,0.389,0.046,1.285,0.94,1.297c0.361-0.323,0.768-0.448,1.268-0.446
			c4.685,0.017,9.37,0.011,14.055,0.009c0.397,0,0.802-0.033,1.024,0.404c-1.532,0.555-2.514,1.787-3.548,2.936
			c-1.056,1.173-1.983,2.468-3.233,3.453c-1.232,0.972-2.582,1.489-4.369,0.843c1.846-1.613,3.575-3.125,5.343-4.67
			c-0.633-0.38-0.857,0.096-1.12,0.317c-1.539,1.293-3.049,2.62-4.575,3.929c-1.119,0.959-2.383,1.595-3.889,1.626
			c-1.309,0.027-2.443-0.504-2.86-1.715c-0.87-2.527-2.494-4.578-3.889-6.78c-0.14-0.221-0.352-0.466-0.271-0.784
			c0.112-0.597,0.591-0.407,0.944-0.412C10.449,51.513,11.842,51.524,13.235,51.524z"/>
		<path style="fill:#112033;" d="M56.389,20.911c-11.427,0-22.855,0-34.282,0c-0.535,0-1.079,0.055-1.566-0.247
			c1.615-1.432,3.577-1.841,5.652-1.914c0.263-0.558,0.716-0.654,1.299-0.653c9.19,0.016,18.381,0.022,27.571-0.009
			c0.726-0.002,1.129,0.187,1.288,0.878C56.364,19.614,56.376,20.263,56.389,20.911z"/>
		<path style="fill:#E9681A;" d="M30.522,52.788c-0.222-0.437-0.627-0.404-1.024-0.404c-4.685,0.002-9.37,0.008-14.055-0.009
			c-0.5-0.002-0.906,0.123-1.268,0.446c0.019-0.878-0.962-1.833-0.519-2.393c0.395-0.499,1.609-0.264,2.405-0.62
			c0.062-0.027,0.141-0.014,0.212-0.02c0.584,0.184,1.179,0.233,1.792,0.232c6.295-0.011,12.591-0.011,18.886,0.004
			c0.407,0.001,0.984-0.263,1.134,0.452c-0.301,0.782-0.945,0.986-1.696,0.994C34.339,51.492,32.401,52.008,30.522,52.788z"/>
		<path style="fill:#112235;" d="M56.351,18.966c-0.16-0.691-0.562-0.88-1.288-0.878c-9.19,0.032-18.381,0.026-27.571,0.009
			c-0.583-0.001-1.036,0.095-1.299,0.653c0.207-0.991-0.591-1.458-1.087-2.082c0.349-0.473,0.859-0.275,1.297-0.276
			c9.872-0.018,19.743-0.021,29.615-0.028C56.257,17.215,56.32,18.088,56.351,18.966z"/>
		<path style="fill:#12253A;" d="M22.738,15.595c-2.681-0.704-5.428-0.897-8.412-0.999c0.833-0.636,1.579-0.875,2.36-1.036
			c0.489,0.31,1.037,0.237,1.572,0.237c11.066,0.001,22.131,0.013,33.197-0.02c1.032-0.003,1.504,0.238,1.232,1.318
			c-9.424-0.001-18.848-0.003-28.272-0.005C23.804,15.09,23.198,15.098,22.738,15.595z"/>
		<path style="fill:#122840;" d="M52.686,15.095c0.272-1.08-0.201-1.321-1.232-1.318c-11.065,0.033-22.131,0.021-33.197,0.02
			c-0.535,0-1.083,0.073-1.572-0.237c1.409-0.567,2.886-0.903,4.347-1.295c0.378,0.42,0.878,0.23,1.319,0.23
			c10.042,0.012,20.084,0.009,30.126,0.01c0.336,0.919,0.643,1.84,0.265,2.826C52.724,15.252,52.705,15.173,52.686,15.095z"/>
		<path style="fill:#122338;" d="M52.686,15.095c0.019,0.079,0.038,0.157,0.056,0.236c-0.006,0.626,0.259,0.834,0.732,0.364
			c0.496-0.492,0.93-1.054,1.345-1.619c0.144-0.195,0.251-0.316,0.493-0.273c0.282,0.05,0.259,0.274,0.297,0.481
			c0.128,0.695,0.271,1.388,0.408,2.082c-9.872,0.006-19.743,0.01-29.615,0.028c-0.438,0.001-0.948-0.197-1.297,0.276
			c-0.789-0.358-1.579-0.716-2.368-1.074c0.46-0.497,1.066-0.505,1.677-0.505C33.838,15.092,43.262,15.093,52.686,15.095z"/>
		<path style="fill:#EA6B1B;" d="M38.085,50.476c-0.149-0.714-0.727-0.451-1.134-0.452c-6.295-0.016-12.591-0.015-18.886-0.004
			c-0.613,0.001-1.209-0.048-1.792-0.232c1.307-0.641,2.615-1.282,3.922-1.922c0.424,0.266,0.897,0.207,1.361,0.207
			c5.561,0.001,11.122,0.001,16.683,0c0.466,0,0.936-0.039,1.358,0.222C39.232,49.119,38.715,49.837,38.085,50.476z"/>
		<path style="fill:#14283F;" d="M52.254,37.51c-0.067,0.218-0.135,0.436-0.202,0.654c-0.336,0.4-0.134,0.869-0.169,1.308
			c0,0,0.005-0.011,0.005-0.011c-5.851,0.006-11.702,0.011-17.553,0.017c-0.6-0.373-0.855-0.687-0.031-1.168
			c0.664-0.388,1.224-0.954,1.83-1.441c0.14,0.654,0.67,0.416,1.046,0.417c4.5,0.015,9,0.015,13.499,0.003
			C51.221,37.287,51.743,37.337,52.254,37.51z"/>
		<path style="fill:#122134;" d="M24.072,31.259c6.279,0,12.559,0.004,18.838-0.006c0.651-0.001,1.285,0.039,1.904,0.244
			c-2.107,0.745-4.213,1.49-6.321,2.233c-0.398,0.14-0.86,0.198-0.891,0.763c-0.053-0.001-0.107-0.001-0.16,0.001
			c-0.018-0.766-0.452-1.168-1.168-1.299c-2.982-0.543-5.96-0.53-8.929,0.103c-0.173,0.037-0.334,0.127-0.506,0.174
			c-0.5,0.138-0.785,0.913-1.498,0.449c-0.713-0.464-1.072-1.129-1.247-1.919C24.044,31.764,24.078,31.507,24.072,31.259z"/>
		<path style="fill:#13263B;" d="M37.443,34.492c0.053-0.001,0.107-0.002,0.16-0.001c-0.137,1.349,0.738,0.35,1.124,0.485
			c0.304,0.512,0.81,0.374,1.26,0.375c3.875,0.006,7.75,0.004,11.625,0.003c0.466,0,0.936-0.034,1.358,0.225
			c-0.239,0.644-0.478,1.288-0.716,1.932c-0.511-0.173-1.033-0.223-1.575-0.221c-4.5,0.011-9,0.012-13.499-0.003
			c-0.376-0.001-0.906,0.237-1.046-0.417C36.747,36.173,37.248,35.417,37.443,34.492z"/>
		<path style="fill:#132E4A;" d="M51.408,10.564c0.255,0.339,0.633,0.601,0.665,1.078c-9.851-0.005-19.703-0.009-29.554-0.014
			c2.161-1.214,4.431-1.733,6.884-1.083c0.626,0.387,1.26-0.004,1.888-0.001C37.997,10.575,44.702,10.564,51.408,10.564z"/>
		<path style="fill:#EB701D;" d="M39.598,48.295c-0.422-0.261-0.893-0.222-1.358-0.222c-5.561,0.001-11.122,0.001-16.683,0
			c-0.464,0-0.937,0.059-1.361-0.207c0.79-0.503,1.58-1.006,2.37-1.51c0.422,0.265,0.894,0.208,1.356,0.208
			c5.506,0,11.013,0,16.519,0C40.32,47.219,40.02,47.787,39.598,48.295z"/>
		<path style="fill:#18324F;" d="M52.966,47.636c0.558,2.071,0.811,1.558-1.276,2.46c-0.299-0.461-0.77-0.279-1.173-0.293
			c-3.592-0.121-7.194,0.245-10.778-0.241c0.377-0.641,0.754-1.282,1.13-1.922C44.901,47.639,48.934,47.638,52.966,47.636z"/>
		<path style="fill:#132B44;" d="M22.518,11.628c9.851,0.005,19.703,0.009,29.554,0.014c0.227,0.244,0.362,0.532,0.405,0.863
			c-10.042,0-20.084,0.002-30.126-0.01c-0.442-0.001-0.941,0.19-1.319-0.23C21.528,12.052,22.023,11.84,22.518,11.628z"/>
		<path style="fill:#152A41;" d="M34.335,39.478c5.851-0.006,11.702-0.011,17.553-0.017c0.001,0.261,0.002,0.521,0.003,0.782
			c-0.025,0.238-0.05,0.475-0.076,0.713c-3.68,0.001-7.36,0.005-11.04,0.002c-0.784-0.001-1.546,0.091-2.269,0.414
			C36.929,41.152,35.43,40.76,34.335,39.478z"/>
		<path style="fill:#183451;" d="M39.739,49.563c3.584,0.486,7.186,0.12,10.778,0.241c0.404,0.014,0.874-0.168,1.173,0.293
			c-1.581,0.719-3.162,1.437-4.743,2.156c-0.265-0.431-0.697-0.291-1.071-0.293c-2.005-0.012-4.011-0.006-6.016-0.005
			c-0.577,0-1.143-0.031-1.589-0.47C38.617,50.735,39.259,50.211,39.739,49.563z"/>
		<path style="fill:#193655;" d="M38.271,51.484c0.446,0.439,1.012,0.471,1.589,0.47c2.005-0.001,4.011-0.007,6.016,0.005
			c0.374,0.002,0.806-0.138,1.071,0.293c-3.251,1.5-6.501,3.001-9.909,4.573c0.214-1.612,0.408-3.017,0.583-4.424
			C37.675,51.966,37.948,51.715,38.271,51.484z"/>
		<path style="fill:#EC761E;" d="M40.441,46.564c-5.506,0-11.013,0.001-16.519,0c-0.462,0-0.934,0.057-1.356-0.208
			c0.492-0.364,0.983-0.728,1.475-1.093c5.179,0.002,10.358,0.001,15.537,0.015c0.417,0.001,0.985-0.221,1.108,0.492
			C40.685,46.061,40.676,46.347,40.441,46.564z"/>
		<path style="fill:#162C44;" d="M38.506,41.372c0.723-0.323,1.485-0.415,2.269-0.414c3.68,0.003,7.36-0.001,11.04-0.002
			c0.127,0.348-0.077,0.765,0.224,1.076c0.011,0.217,0.022,0.435,0.033,0.652c-3.727-0.002-7.454-0.004-11.181-0.005
			C40.24,41.983,39.364,41.694,38.506,41.372z"/>
		<path style="fill:#132336;" d="M43.681,33.655c2.564-0.901,5.237-1.414,7.84-2.179c1.22-0.359,2.456-0.663,3.922-1.056
			c-0.667,1.345-1.239,2.5-1.811,3.654c-2.384-0.005-4.768,0.016-7.151-0.026C45.54,34.032,44.593,33.938,43.681,33.655z"/>
		<path style="fill:#17304C;" d="M52.966,47.636c-4.032,0.001-8.065,0.003-12.097,0.004c0.216-0.575,0.431-1.15,0.647-1.725
			c3.323,0.001,6.646,0.008,9.969-0.007c0.381-0.002,0.909,0.221,1.037-0.435C52.911,46.145,52.623,46.956,52.966,47.636z"/>
		<path style="fill:#162D47;" d="M40.893,42.679c3.727,0.002,7.454,0.004,11.181,0.005c0.082,0.575,0.165,1.15,0.247,1.725
			c-3.173,0-6.346,0-9.519,0c-0.425,0-0.861,0.054-1.241-0.212C41.338,43.691,41.115,43.185,40.893,42.679z"/>
		<path style="fill:#132438;" d="M43.681,33.655c0.912,0.283,1.859,0.376,2.799,0.393c2.383,0.043,4.768,0.022,7.151,0.026
			c-0.14,0.536-0.34,1.047-0.661,1.503c-0.422-0.259-0.892-0.225-1.358-0.225c-3.875,0.002-7.75,0.004-11.625-0.003
			c-0.45-0.001-0.956,0.137-1.26-0.375C40.359,34.463,41.996,33.967,43.681,33.655z"/>
		<path style="fill:#ED7B20;" d="M40.685,45.771c-0.122-0.714-0.691-0.491-1.108-0.492c-5.179-0.015-10.358-0.013-15.537-0.015
			c0.437-0.429,0.874-0.858,1.312-1.287c0.421,0.265,0.892,0.216,1.355,0.216c4.258,0,8.516-0.001,12.774,0.002
			c0.46,0,0.936-0.078,1.354,0.208C40.883,44.87,40.955,45.34,40.685,45.771z"/>
		<path style="fill:#172F49;" d="M41.56,44.197c0.38,0.265,0.816,0.211,1.241,0.212c3.173,0,6.346,0,9.519,0
			c0.231,0.324,0.207,0.696,0.201,1.065c-0.128,0.656-0.656,0.433-1.037,0.435c-3.323,0.015-6.646,0.007-9.969,0.007
			C41.531,45.343,41.545,44.77,41.56,44.197z"/>
		<path style="fill:#EE8323;" d="M40.835,44.403c-0.418-0.287-0.894-0.208-1.354-0.208c-4.258-0.003-8.516-0.002-12.774-0.002
			c-0.463,0-0.934,0.048-1.355-0.216c0.416-0.439,0.832-0.879,1.248-1.318c0.511,0.458,1.125,0.513,1.769,0.455
			c0.361,0.5,0.724-0.122,1.086,0.002c3.601-0.004,7.202-0.009,10.803-0.013C40.67,43.44,40.827,43.888,40.835,44.403z"/>
		<path style="fill:#EA6A1B;" d="M13.235,51.524c-1.393,0-2.786-0.011-4.179,0.006c-0.354,0.004-0.833-0.186-0.944,0.412
			c-0.532-0.95-1.077-1.954-0.218-2.944c0.87-1.002,2.078-1.158,3.334-0.925c0.582,0.108,0.906,0.572,1.118,1.062
			C12.682,49.914,12.943,50.726,13.235,51.524z"/>
		<path style="fill:#143555;" d="M29.237,10.125c-0.301-0.186-0.602-0.372-0.903-0.558c0.339-0.485,0.85-0.287,1.286-0.289
			c6.939-0.022,13.877-0.027,20.816-0.037c0.236,0.178,0.465,0.361,0.526,0.676c-6.833,0-13.667-0.004-20.5,0.007
			C30.051,9.925,29.595,9.763,29.237,10.125z"/>
		<path style="fill:#174570;" d="M40.644,6.688c0.307,0.129,0.538,0.344,0.715,0.622c-7.653-0.002-15.306-0.003-22.959-0.005
			c0.371-0.326,0.805-0.526,1.279-0.649C26.667,6.667,33.655,6.678,40.644,6.688z"/>
		<path style="fill:#143250;" d="M29.237,10.125c0.358-0.362,0.814-0.2,1.224-0.201c6.833-0.01,13.667-0.007,20.5-0.007
			c0.087,0.258,0.491,0.298,0.446,0.647c-6.706,0-13.411,0.011-20.117-0.02c-0.629-0.003-1.262,0.388-1.888,0.001
			C29.347,10.405,29.292,10.265,29.237,10.125z"/>
		<path style="fill:#153B5F;" d="M27.089,8.992c-0.364-0.133-0.729-0.266-1.093-0.399c-0.107-0.857,0.551-0.375,0.786-0.377
			c5.151-0.04,10.302-0.041,15.454-0.05c0.241,0.183,0.47,0.375,0.577,0.673c-4.86,0-9.721-0.003-14.581,0.004
			C27.85,8.845,27.442,8.729,27.089,8.992z"/>
		<path style="fill:#174169;" d="M18.399,7.306c7.653,0.002,15.306,0.003,22.959,0.005c0.218,0.069,0.363,0.217,0.455,0.422
			c-6.147,0.009-12.294,0.016-18.441,0.034c-0.415,0.001-0.862-0.137-1.244,0.16c-1.431-0.066-2.861-0.132-4.424-0.204
			C17.924,7.461,18.13,7.342,18.399,7.306z"/>
		<path style="fill:#15375A;" d="M27.089,8.992c0.353-0.263,0.76-0.147,1.143-0.148c4.86-0.008,9.72-0.005,14.581-0.004
			c0.134,0.068,0.268,0.137,0.402,0.205c0.531-0.282,1.108-0.178,1.671-0.209c1.658-0.092,3.333,0.229,4.976-0.21
			c0.191,0.205,0.383,0.41,0.574,0.616c-6.939,0.009-13.877,0.015-20.816,0.037c-0.436,0.001-0.947-0.197-1.286,0.289
			C27.919,9.375,27.504,9.183,27.089,8.992z"/>
		<path style="fill:#174A77;" d="M40.644,6.688c-6.988-0.01-13.977-0.021-20.966-0.031c0.246-0.254,0.557-0.369,0.899-0.418
			C27.065,6.24,33.553,6.24,40.04,6.241C40.288,6.327,40.502,6.46,40.644,6.688z"/>
		<path style="fill:#163E63;" d="M22.128,7.927c0.382-0.297,0.828-0.159,1.244-0.16c6.147-0.019,12.294-0.025,18.441-0.034
			c0.141,0.144,0.282,0.289,0.423,0.433c-5.151,0.009-10.303,0.01-15.454,0.05c-0.235,0.002-0.893-0.48-0.786,0.377
			C24.707,8.371,23.418,8.149,22.128,7.927z"/>
		<path style="fill:#184D7C;" d="M40.04,6.241C33.553,6.24,27.065,6.24,20.577,6.239c0.303-0.252,0.65-0.403,1.044-0.443
			c5.922,0.006,11.845,0.011,17.767,0.017C39.659,5.874,39.882,6.009,40.04,6.241z"/>
		<path style="fill:#EF8926;" d="M40.258,43.104c-3.601,0.004-7.202,0.009-10.803,0.013c0.442-0.287,0.885-0.574,1.327-0.861
			c0.059,0,0.119-0.001,0.178-0.003c1.774,0,3.548,0.004,5.322-0.002c0.831-0.003,1.665,0.448,2.492-0.019
			C39.397,42.305,39.897,42.587,40.258,43.104z"/>
		<path style="fill:#1A5B93;" d="M23.988,4.924c0.753-0.342,1.532-0.591,2.365-0.641c3.202,0.004,6.404,0.008,9.606,0.012
			c0.631,0.079,1.219,0.277,1.75,0.634C33.135,4.927,28.561,4.926,23.988,4.924z"/>
		<path style="fill:#195183;" d="M39.388,5.812C33.465,5.807,27.543,5.801,21.62,5.796c0.316-0.26,0.684-0.387,1.087-0.428
			c5.328,0.01,10.656,0.021,15.984,0.031C38.972,5.454,39.211,5.58,39.388,5.812z"/>
		<path style="fill:#1A568A;" d="M38.691,5.399c-5.328-0.01-10.656-0.021-15.984-0.031c0.39-0.255,0.813-0.414,1.281-0.443
			c4.573,0.001,9.147,0.003,13.72,0.004C38.086,4.979,38.418,5.127,38.691,5.399z"/>
		<path style="fill:#F39D2D;" d="M27.902,41.162c0.236-0.28,0.473-0.561,0.709-0.841c0.49-0.081,1.02,0.162,1.477-0.185
			c0.198-0.021,0.396-0.042,0.595-0.063c1.156,0.406,2.352,0.19,3.531,0.231c0.379,0.278,0.757,0.556,1.136,0.834
			C32.868,41.147,30.385,41.154,27.902,41.162z"/>
		<path style="fill:#F1952A;" d="M27.902,41.162c2.483-0.008,4.965-0.016,7.448-0.024c0.354,0.143,0.708,0.286,1.063,0.429
			c-0.378,0.237-0.795,0.262-1.228,0.258c-1.135-0.011-2.27-0.008-3.405-0.001c-0.339,0.002-0.748-0.098-0.821,0.428
			c-0.059,0.002-0.119,0.003-0.178,0.003c-0.019-0.343-0.016-0.7-0.436-0.832c-0.381-0.12-0.421,0.254-0.605,0.42
			c-0.817-0.008-1.634-0.015-2.452-0.023C27.494,41.601,27.698,41.382,27.902,41.162z"/>
		<path style="fill:#173C60;" d="M49.861,8.626c-1.643,0.438-3.318,0.118-4.976,0.21c-0.563,0.031-1.14-0.072-1.671,0.209
			c0.093-0.214,0.186-0.429,0.279-0.643c0.272-0.411,0.675-0.438,1.123-0.432c1.533,0.019,3.066,0.008,4.599,0.009
			C49.358,8.268,49.808,8.249,49.861,8.626z"/>
		<path style="fill:#2065A1;" d="M35.958,4.295c-3.202-0.004-6.404-0.008-9.606-0.012C29.555,3.438,32.758,3.288,35.958,4.295z"/>
		<path style="fill:#194E7C;" d="M43.217,6.478c-0.222-0.358-0.445-0.715-0.667-1.073c1.087-0.002,2.174-0.005,3.262-0.007
			c0.595,0.249,1.134,0.582,1.583,1.051C46.002,6.458,44.609,6.468,43.217,6.478z"/>
		<path style="fill:#174670;" d="M43.217,6.478c1.393-0.01,2.785-0.019,4.178-0.029c0.36,0.29,0.838,0.43,1.088,0.858
			c-1.664,0.008-3.328,0.016-4.993,0.024C43.399,7.046,43.308,6.762,43.217,6.478z"/>
		<path style="fill:#F08F28;" d="M30.96,42.253c0.073-0.526,0.482-0.426,0.821-0.428c1.135-0.007,2.27-0.01,3.405,0.001
			c0.433,0.004,0.85-0.021,1.228-0.258c0.807,0.151,1.612,0.306,2.361,0.665c-0.827,0.467-1.661,0.016-2.492,0.019
			C34.508,42.258,32.734,42.253,30.96,42.253z"/>
		<path style="fill:#174067;" d="M43.49,7.331c1.664-0.008,3.328-0.016,4.993-0.024c0.288,0.177,0.596,0.331,0.733,0.672
			c-1.533-0.001-3.066,0.009-4.599-0.009c-0.447-0.005-0.851,0.021-1.123,0.432C43.493,8.045,43.492,7.688,43.49,7.331z"/>
		<path style="fill:#F08C28;" d="M27.29,41.821c0.817,0.008,1.634,0.015,2.451,0.023c-0.3,0.593-0.936,0.825-1.372,1.271
			c-0.644,0.057-1.258,0.002-1.769-0.455C26.83,42.38,27.06,42.1,27.29,41.821z"/>
		<path style="fill:#1D598D;" d="M45.812,5.398C44.724,5.4,43.637,5.403,42.55,5.405c-0.198-0.222-0.396-0.444-0.594-0.666
			c0.7-0.456,1.488-0.079,2.22-0.236C44.694,4.849,45.378,4.896,45.812,5.398z"/>
		<path style="fill:#F4A733;" d="M34.214,40.304c-1.179-0.041-2.376,0.176-3.531-0.231c0.366-0.131,0.767-0.206,1.092-0.404
			C32.829,39.028,33.619,39.256,34.214,40.304z"/>
		<path style="fill:#1F5280;" d="M38.291,4.3c0.595-0.408,1.265-0.115,1.895-0.202c0.373,0.346,0.889,0.549,1.081,1.077
			c-0.358,0.05-0.775-0.15-1.052,0.248C39.574,5.049,38.932,4.674,38.291,4.3z"/>
		<path style="fill:#244E75;" d="M40.215,5.423c0.276-0.398,0.693-0.198,1.052-0.248c0.535,0.622,1.246,1.132,1.374,2.213
			C41.752,6.669,40.983,6.046,40.215,5.423z"/>
		<path style="fill:#226199;" d="M44.176,4.502c-0.732,0.158-1.52-0.219-2.22,0.236c-0.245-0.277-0.49-0.555-0.734-0.832
			c0.49-0.02,0.98-0.039,1.47-0.059C43.187,4.066,43.681,4.284,44.176,4.502z"/>
		<path style="fill:#276CA7;" d="M42.692,3.848c-0.49,0.02-0.98,0.039-1.47,0.059c-0.295-0.239-0.589-0.477-1.123-0.909
			C41.209,3.206,41.982,3.424,42.692,3.848z"/>
		<path style="fill:#162D47;" d="M52.04,42.032c-0.301-0.312-0.097-0.728-0.224-1.076c0.025-0.238,0.05-0.475,0.075-0.713
			C51.941,40.839,51.99,41.435,52.04,42.032z"/>
		<path style="fill:#F4A733;" d="M30.088,40.137c-0.457,0.347-0.987,0.104-1.477,0.185C29.062,39.925,29.597,40.203,30.088,40.137z"
			/>
		<path style="fill:#152A41;" d="M51.883,39.471c0.036-0.439-0.166-0.908,0.169-1.308C51.996,38.599,51.939,39.035,51.883,39.471z"
			/>
		<path style="fill:#FDF8F2;" d="M28.369,43.115c0.436-0.446,1.072-0.678,1.372-1.271c0.184-0.166,0.224-0.54,0.605-0.42
			c0.42,0.132,0.417,0.489,0.436,0.832c-0.442,0.287-0.885,0.574-1.327,0.861C29.093,42.993,28.73,43.615,28.369,43.115z"/>
	</g>
</g>
</svg>
