<?xml version="1.0" encoding="UTF-8" standalone="no"?>
<svg
   xmlns:dc="http://purl.org/dc/elements/1.1/"
   xmlns:cc="http://creativecommons.org/ns#"
   xmlns:rdf="http://www.w3.org/1999/02/22-rdf-syntax-ns#"
   xmlns:svg="http://www.w3.org/2000/svg"
   xmlns="http://www.w3.org/2000/svg"
   xmlns:sodipodi="http://sodipodi.sourceforge.net/DTD/sodipodi-0.dtd"
   xmlns:inkscape="http://www.inkscape.org/namespaces/inkscape"
   width="64"
   height="64"
   viewBox="0 0 48 48.000001"
   version="1.1"
   id="svg340"
   sodipodi:docname="playin.svg"
   inkscape:version="0.92.3 (2405546, 2018-03-11)">
  <metadata
     id="metadata346">
    <rdf:RDF>
      <cc:Work
         rdf:about="">
        <dc:format>image/svg+xml</dc:format>
        <dc:type
           rdf:resource="http://purl.org/dc/dcmitype/StillImage" />
        <dc:title></dc:title>
      </cc:Work>
    </rdf:RDF>
  </metadata>
  <defs
     id="defs344" />
  <sodipodi:namedview
     pagecolor="#ffffff"
     bordercolor="#666666"
     borderopacity="1"
     objecttolerance="10"
     gridtolerance="10"
     guidetolerance="10"
     inkscape:pageopacity="0"
     inkscape:pageshadow="2"
     inkscape:window-width="1920"
     inkscape:window-height="1017"
     id="namedview342"
     showgrid="false"
     units="px"
     inkscape:pagecheckerboard="true"
     inkscape:zoom="7.2375533"
     inkscape:cx="61.460986"
     inkscape:cy="28.382024"
     inkscape:window-x="-8"
     inkscape:window-y="-8"
     inkscape:window-maximized="1"
     inkscape:current-layer="svg340" />
  <g
     id="#808080ff"
     transform="matrix(0.06835026,0,0,0.06835026,3.4956369,-0.02686568)">
    <path
       d="m 309.3,0.83 c 5.55,-0.57 11.13,-0.43 16.7,-0.4 15.66,0.02 31.32,-0.02 46.98,0.01 11.64,-0.01 22.99,2.87 34.23,5.58 15.21,4.31 29.86,10.5 43.87,17.82 15.87,7.91 30.66,17.79 45.06,28.08 14.53,12.36 28.78,25.41 39.73,41.17 2.81,4.17 5.44,8.48 8.54,12.45 1.23,-2.17 2.63,-4.25 3.7,-6.51 3.02,-6.81 7.23,-13 10.31,-19.79 1.62,-3.69 3.83,-7.04 6.03,-10.4 3.42,7.85 5.14,16.27 7.54,24.45 4.28,13.63 9.16,27.07 13.21,40.78 6.68,18.23 9.3,37.59 11.82,56.75 2.19,20.98 3.06,42.09 2.28,63.18 -0.95,15.28 -2.13,30.72 -6.76,45.41 -1.33,5.13 -4.34,10.05 -3.68,15.52 0.82,7.86 1.11,15.9 -0.67,23.65 -1.23,5.38 -3.91,10.26 -6.33,15.17 -8.43,17.36 -16.88,34.73 -24.41,52.5 -2.74,6.33 -4.86,12.9 -6.83,19.5 -1.58,5.27 -1.13,10.82 -1.17,16.24 -0.08,10.69 1.96,21.26 2,31.95 0.33,-0.97 0.67,-1.93 1.01,-2.89 0.09,3.8 0.51,7.58 1.27,11.3 1.35,6.39 2.11,12.9 3.74,19.24 1.63,6.36 2.55,12.88 3.97,19.29 2.01,8.99 3.98,17.99 5.97,26.98 0.78,3.67 1.82,7.32 2.01,11.09 -2.65,2.09 -5.8,3.34 -8.86,4.68 -10.17,4.47 -20.24,9.16 -30.35,13.77 -41.65,19.37 -83.61,38.06 -125.26,57.43 -13.5,5.95 -26.7,12.55 -40.42,17.97 -5.19,2.17 -9.99,5.18 -15.23,7.24 -10.26,4.04 -20.04,9.15 -30.24,13.33 1.22,-13.46 3.55,-26.78 5.09,-40.2 1.34,-11.85 3.57,-23.6 4.32,-35.51 -11.77,1.56 -23.07,5.68 -33.6,11.06 -6.29,3.14 -12.11,7.19 -17.32,11.91 -7.18,6.85 -13,14.94 -19.55,22.36 -8.95,9.38 -16.69,20.01 -26.94,28.09 -10.38,8.63 -22.19,15.85 -35.26,19.55 -7.47,1.95 -15.27,2.4 -22.96,2.04 -4.37,-0.18 -8.63,-1.33 -12.99,-1.59 -2.7,-0.16 -5.1,1.29 -7.47,2.36 -12.16,6.08 -25.74,9.57 -39.37,9.19 C 96.8,702.94 80.2,696.89 68.9,685.09 65.23,681.43 61.53,677.71 58.77,673.29 52.43,663.2 49.64,651.49 45.22,640.55 42.11,633.49 36.14,628.33 32.16,621.83 27.35,614.03 21.68,606.78 17.27,598.73 12.36,589.67 7.62,580.45 4.36,570.64 0.44,559.42 -0.85,547.06 1.76,535.4 5.63,520.87 17.84,510.01 31.2,504.07 c 14.61,-7.3 31.93,-9.81 47.76,-5.28 7.25,1.96 13.96,5.76 19.44,10.88 3.54,3.34 6.28,7.39 9.01,11.38 3.02,-0.76 6.06,-1.54 8.93,-2.77 10.24,-4.48 20.08,-9.82 30.13,-14.7 10.21,-5.18 20.06,-11.06 29.47,-17.56 10.35,-6.76 19.95,-14.64 28.48,-23.59 5.75,-5.51 10.89,-11.59 16.3,-17.42 -3.7,-5.37 -7.4,-10.84 -9.68,-17 -3.97,-10.63 -6.66,-21.75 -8.03,-33.01 -0.18,-3.67 -3,-6.2 -5.24,-8.78 -4.79,-5.28 -8.18,-11.66 -10.8,-18.24 -5.38,-13.31 -6.23,-28.15 -3.9,-42.22 0.83,-5.01 2.53,-9.81 3.78,-14.72 -8.97,0.94 -16.49,6.21 -23.94,10.81 -8.23,4.98 -15.96,11.02 -25.15,14.2 -5.76,1.97 -11.31,4.57 -17.2,6.17 -15.53,3.56 -31.08,7.03 -46.6,10.63 -8.54,1.62 -16.87,4.22 -25.53,5.19 3.68,-6.95 8.5,-13.19 12.73,-19.8 5.25,-7.51 9.71,-15.52 15.03,-22.98 7.72,-10.97 14.33,-22.73 23.12,-32.92 6.32,-8.32 14.24,-15.38 19.7,-24.35 3.16,-5.06 5.45,-10.6 8.1,-15.93 4.78,-9.35 8.64,-19.34 15.49,-27.45 6.87,-7.76 14.38,-15.08 23.43,-20.26 -20.22,-3.09 -40.66,-4.29 -61.07,-5.28 -29.67,-2.71 -59.38,-5.08 -89.05,-7.75 2.66,-1.87 5.35,-3.7 8.13,-5.4 9.05,-5.42 17.13,-12.3 26.31,-17.52 7.17,-4.06 13.77,-9.01 20.7,-13.44 8.34,-5.36 16.32,-11.34 25.22,-15.76 13,-6.55 26.95,-10.86 40.88,-14.9 -10.35,-1.03 -20.76,-0.77 -31.14,-1 -9.66,-0.15 -19.31,-0.78 -28.97,-0.85 -15.06,-0.05 -30.1,-0.83 -45.15,-0.91 1.95,-1.28 3.9,-2.55 5.91,-3.74 20.79,-11.8 41.52,-23.7 62.25,-35.61 10.66,-5.71 20.83,-12.31 31.69,-17.64 3.85,-1.99 7.51,-4.32 11.34,-6.35 6.28,-3.36 12.89,-6.03 19.39,-8.92 11.29,-5.07 22.79,-9.68 34.57,-13.48 18.82,-6.49 38.21,-11.36 57.91,-14.26 12.19,-2.45 24.66,-2.75 37.05,-3.01 9.06,-0.24 18.05,1.12 27.09,1.31 -3.46,-2.78 -6.75,-5.77 -9.79,-9.01 m 28.67,11.45 c 5.06,4.9 10.64,9.23 15.88,13.93 1.54,1.21 3.04,2.77 5.05,3.14 0.18,0.64 0.54,1.92 0.71,2.56 -9.21,-3.62 -18.75,-6.43 -28.5,-8.17 -18.63,-4 -37.86,-4.63 -56.82,-3.22 -15.73,1.62 -31.43,3.94 -46.73,7.96 -5.4,1.31 -10.83,2.65 -15.9,4.98 -3.35,0.04 -6.47,1.4 -9.59,2.45 -6.07,2.28 -12.57,3.6 -18.13,7.1 -3.64,0.53 -6.98,2.21 -10.36,3.57 -7.03,2.88 -13.78,6.38 -20.76,9.38 -5.59,2.42 -10.93,5.4 -15.96,8.85 -5.67,2.32 -10.91,5.63 -15.92,9.15 -3.55,1.14 -6.65,3.29 -9.87,5.11 -6.03,3.64 -12.46,6.63 -18.11,10.86 -4.61,1.79 -8.75,4.54 -13.11,6.83 -2.33,1.19 -4.21,3.05 -6.26,4.65 5.79,0.42 11.6,0.21 17.39,0.22 13.01,-0.01 26.01,0.92 39.02,0.71 11.69,-0.25 23.34,1.24 35.03,0.97 10,0.27 20.01,0.83 29.96,1.83 -2.4,1.55 -4.82,3.08 -7.2,4.65 -4.27,0.93 -8.07,3.22 -12.17,4.68 -6.22,2.26 -12.59,4.1 -18.88,6.15 -6.59,2.13 -13.43,3.31 -20.06,5.3 -18.22,6.26 -37.51,11.49 -52.56,24.14 -9.39,4.96 -17.75,11.65 -26.77,17.24 -2.82,1.66 -5.26,3.86 -7.67,6.05 20.48,0.95 40.86,3.23 61.3,4.7 15.36,0.71 30.72,1.68 45.97,3.71 13.31,1.13 26.21,4.84 39.35,6.98 0.87,1.03 1.81,2.01 2.76,2.98 -7.45,2.86 -15.05,5.43 -22.06,9.3 -14.1,7.53 -26.95,18.72 -33.56,33.54 -3.44,6.94 -6.97,13.84 -10.06,20.94 -5.84,12.96 -16.31,22.85 -25.19,33.68 -6.73,7.82 -12.05,16.7 -17.83,25.2 -6.06,9.16 -12.23,18.24 -18.32,27.38 10.55,-1.79 20.66,-5.39 31.15,-7.47 8.13,-1.87 16.48,-2.98 24.33,-5.92 9.62,-3.76 18.55,-9.03 27.17,-14.66 8.85,-5.6 17.82,-11.89 28.41,-13.51 7,-1.2 14.08,0.19 20.81,2.15 -2.03,4.12 -4.31,8.13 -6.05,12.39 -3.84,9.9 -4.77,20.69 -4.2,31.23 0.46,10.95 4.13,21.84 10.73,30.62 2.24,3.04 5.21,5.42 7.72,8.21 1.9,1.88 1.72,4.75 2.06,7.2 0.5,8.39 2.66,16.56 5.02,24.59 1.45,4.62 3.05,9.28 5.76,13.33 2.21,5.78 6.35,10.42 10.16,15.18 -2.62,3.36 -5.35,6.64 -8.25,9.77 -11.75,12.89 -23.51,26.08 -37.93,36.08 -5.5,4.2 -11.81,7.3 -16.91,12.02 -3,1.24 -5.92,2.65 -8.71,4.31 -6.36,3.8 -12.96,7.19 -19.66,10.35 -11.02,4.96 -21.55,11.16 -33.19,14.62 -2.91,0.67 -6.08,1.61 -9.01,0.6 -1.94,-2.26 -3.22,-4.99 -4.84,-7.46 -5.99,-9.47 -16.34,-16.3 -27.62,-17.09 -15.15,-1.66 -30.59,3 -42.89,11.81 -7.7,5.57 -13.48,14.22 -14.27,23.84 -1.29,11.42 2.34,22.65 6.99,32.93 4.76,10.29 10.2,20.28 16.74,29.56 4.19,5.84 7.76,12.12 12.23,17.77 2.05,2.63 4.19,5.21 5.76,8.17 2.01,3.75 3.44,7.78 5.46,11.53 1.33,7.71 4.87,14.78 8.52,21.62 7.05,11.99 18.9,21.35 32.58,24.39 17.9,4.09 36.81,-0.39 52.54,-9.33 1.45,-0.75 2.9,-1.61 4.53,-1.88 2.26,-0.01 4.42,0.77 6.6,1.26 5.93,1.57 12.12,1.61 18.21,1.37 9.05,-0.32 17.73,-3.52 25.66,-7.71 12.67,-7.12 23.4,-17.18 33.03,-27.96 4.2,-4.85 8.76,-9.43 12.12,-14.93 2.12,-1.86 4.12,-3.87 5.94,-6.02 6.37,-7.59 13.19,-14.97 21.47,-20.5 10.33,-6.93 21.96,-11.75 33.89,-15.14 8.84,-2.68 18.03,-4.15 27.25,-4.47 -0.09,4.37 -0.33,8.75 -0.9,13.09 -2.06,15.54 -4.2,31.07 -6.34,46.6 -0.47,3.34 -0.77,6.7 -0.98,10.08 3.64,-1.29 7.23,-2.71 10.69,-4.42 50.48,-22.82 100.85,-45.87 151.25,-68.83 6.4,-3.12 12.92,-5.97 19.49,-8.69 14.1,-6.37 28,-13.18 42.31,-19.06 -0.46,-3.1 -0.91,-6.21 -1.67,-9.25 -2.09,-8.03 -3.61,-16.19 -5.1,-24.35 -1.82,-9.64 -5.03,-18.98 -6.29,-28.73 -0.98,-6.67 -2.32,-13.29 -3.13,-19.98 -0.55,-3.85 -0.88,-7.77 -2.2,-11.45 0,-10.56 -1.61,-21.15 -0.18,-31.67 0.65,-4.93 2.82,-9.46 4.46,-14.11 2.07,-5.83 4.56,-11.51 6.33,-17.44 3.41,-4.5 4.7,-10.15 7.2,-15.14 5.57,-11.75 10.91,-23.61 16.88,-35.17 5.02,-9.55 6.55,-20.91 3.97,-31.41 -0.79,-2.89 -0.48,-5.92 0.83,-8.61 7.79,-17.58 9.54,-37.07 10.14,-56.08 0.6,-12.67 -0.03,-25.34 -0.55,-38 -0.33,-5.03 -0.45,-10.12 -1.49,-15.07 -0.41,-8.56 -1.8,-17.02 -3.32,-25.44 -1.87,-11.88 -4.73,-23.61 -8.44,-35.05 -2.82,-8.65 -6.01,-17.18 -8.64,-25.9 -1.19,-3.91 -2.51,-7.78 -4.01,-11.58 -3.2,4.03 -5.33,8.72 -7.58,13.31 -3.28,6.03 -6.33,12.21 -10.22,17.89 -1.56,-3.4 -3.4,-6.66 -5.05,-10.01 -5.67,-13.03 -14.91,-24.04 -24.06,-34.75 -4.57,-4.52 -8.5,-9.78 -13.81,-13.5 -3.99,-3.99 -8.07,-8.03 -12.93,-10.95 -5.06,-4.01 -10.08,-8.29 -16,-10.98 -4.56,-3.32 -9.1,-7.15 -14.66,-8.6 -5.3,-4.35 -11.71,-6.89 -17.73,-10.04 -2.61,-1.26 -5.26,-2.76 -8.22,-2.93 -2.07,-1.25 -4.17,-2.49 -6.39,-3.46 -17.19,-6.97 -35.46,-11.49 -54,-12.55 -11.02,-0.15 -22.03,0.05 -33.04,-0.1 z"
       id="path179"
       inkscape:connector-curvature="0"
       style="opacity:1;fill:#808080" />
  </g>
  <g
     id="#1c69a9ff"
     transform="matrix(0.06835026,0,0,0.06835026,3.4956369,-0.02686568)">
    <path
       d="m 337.97,12.28 c 11.01,0.15 22.02,-0.05 33.04,0.1 18.54,1.06 36.81,5.58 54,12.55 2.22,0.97 4.32,2.21 6.39,3.46 -6.09,-0.07 -12.31,0.26 -18.03,2.55 -14.47,-4.38 -29.28,-9.19 -44.59,-8.37 1.35,1.5 2.72,3 4.16,4.43 -4.54,1.42 -9.24,2.61 -14.04,2.35 -2.01,-0.37 -3.51,-1.93 -5.05,-3.14 -5.24,-4.7 -10.82,-9.03 -15.88,-13.93 z"
       id="path182"
       inkscape:connector-curvature="0"
       style="opacity:1;fill:#1c69a9" />
  </g>
  <g
     id="#1b609cff"
     transform="matrix(0.06835026,0,0,0.06835026,3.4956369,-0.02686568)">
    <path
       d="m 227.56,28.48 c 15.3,-4.02 31,-6.34 46.73,-7.96 18.96,-1.41 38.19,-0.78 56.82,3.22 9.75,1.74 19.29,4.55 28.5,8.17 -0.17,-0.64 -0.53,-1.92 -0.71,-2.56 4.8,0.26 9.5,-0.93 14.04,-2.35 3.13,2.9 6.54,5.48 9.72,8.34 -1.8,1.01 -3.51,2.43 -5.65,2.58 -5.34,0.48 -10.69,-0.25 -16.03,-0.12 -3.84,0.04 -7.63,0.67 -11.44,1.05 -16.87,-4.1 -34.1,-7.64 -51.54,-7.35 -7.55,-0.03 -15.1,-0.11 -22.62,0.54 -10.67,0.77 -21.23,2.55 -31.83,3.97 -3.94,-1.75 -8.24,-2.5 -12.54,-2.16 -6.46,0.42 -12.91,-0.03 -19.35,-0.39 5.07,-2.33 10.5,-3.67 15.9,-4.98 z"
       id="path185"
       inkscape:connector-curvature="0"
       style="opacity:1;fill:#1b609c" />
  </g>
  <g
     id="#ffffffff"
     transform="matrix(0.06835026,0,0,0.06835026,3.4956369,-0.02686568)">
    <path
       d="m 368.78,22.57 c 15.31,-0.82 30.12,3.99 44.59,8.37 10.11,3.88 19.93,8.46 29.7,13.12 4.61,2.47 9.11,5.14 13.63,7.75 5.12,3.13 10.12,6.46 15.02,9.93 5.73,4.19 11.55,8.29 16.89,12.99 6.26,5.39 12.4,10.95 17.66,17.34 7.7,8.89 15.23,18.07 20.51,28.64 3.49,6.3 6.6,12.88 8.43,19.87 1.73,6.37 2.09,13 2.39,19.56 2.57,-2.97 5.16,-5.94 7.38,-9.18 5.53,-7.92 9.25,-16.91 14.51,-25 1.09,3.56 2.16,7.12 3.12,10.72 2.28,8.72 5.12,17.31 6.84,26.17 2.8,12.98 4.41,26.18 5.99,39.35 1.23,16.01 1.89,32.09 1.23,48.15 -0.51,13.78 -1.73,27.65 -5.35,41 -1.13,4.22 -2.89,8.23 -4.75,12.17 -1.04,2.38 -2.37,4.94 -1.72,7.62 1.16,5.54 2.92,11.14 2.05,16.88 -0.69,8.6 -5.53,15.94 -9.24,23.48 -6.74,14.44 -13.81,28.74 -19.7,43.57 -3.67,9.66 -8.26,19.07 -10.47,29.21 -1.84,12.12 -0.77,24.45 0.43,36.57 1.95,22.13 6.99,43.79 12.12,65.36 1.58,6.83 3.01,13.72 3.56,20.74 -11.43,5.28 -23.16,9.87 -34.57,15.21 -31.74,14.48 -63.46,29.03 -95.18,43.56 -14.2,6.46 -28.42,12.85 -42.53,19.49 -8.14,3.78 -16.21,7.72 -24.61,10.86 0.76,-11.78 3.39,-23.33 4.43,-35.08 0.81,-9.51 2.84,-18.88 3.45,-28.42 -20.72,-0.59 -41.49,3.53 -60.61,11.44 -13.7,5.92 -26.73,13.96 -36.82,25.08 -4.71,5.33 -9.04,10.99 -13.81,16.28 -4.84,5.18 -9.04,10.92 -13.84,16.13 -8.56,8.58 -17.53,17.05 -28.39,22.65 -7.77,3.84 -16.36,6.62 -25.13,6.18 -4.96,-0.14 -9.76,-1.48 -14.46,-2.9 -2.01,-0.52 -4.07,-1.29 -6.17,-0.97 -2.64,0.72 -4.92,2.31 -7.28,3.62 -9.78,5.83 -20.98,9.32 -32.35,9.94 -10.55,0.59 -21.18,-2.9 -29.54,-9.3 -5.65,-4.69 -9.31,-11.28 -12.55,-17.75 -3.27,-7.21 -5.17,-14.95 -8.4,-22.17 -2.55,-5.77 -6.65,-10.62 -10.23,-15.74 -8.56,-12.52 -17.04,-25.13 -24.19,-38.52 -2.29,-5.05 -4.19,-10.26 -5.98,-15.5 -2.43,-7.32 -3.07,-15.7 0.45,-22.78 3.31,-6.84 10.04,-11.08 16.6,-14.4 8.26,-4.25 17.87,-5.01 26.98,-4.02 4.94,0.47 9.68,2.56 13.26,6.03 5.58,4.92 8.78,11.83 11.41,18.65 6.14,0.38 12.4,0.67 18.42,-0.87 10.17,-2.53 19.58,-7.3 28.93,-11.89 18.63,-9.01 37.17,-18.6 53.59,-31.29 11.5,-6.81 20.56,-16.77 29.99,-26.06 5.88,-5.8 10.76,-12.51 16.53,-18.43 3.42,-3.72 7.31,-7.19 9.6,-11.78 -2.34,-2.94 -5.39,-5.19 -8.21,-7.63 -5.72,-6.51 -9.81,-14.38 -12.3,-22.66 -2.75,-9.13 -4.59,-18.55 -4.98,-28.09 -0.38,-2.37 0.01,-5.32 -2.01,-7.03 -2.94,-2.69 -6.44,-4.79 -8.94,-7.95 -5.82,-7.28 -8.79,-16.54 -9.35,-25.78 -0.79,-11.66 1.27,-23.8 7.39,-33.89 2.48,-4.14 5.95,-7.55 9.41,-10.87 -4.2,-2.9 -8.42,-5.85 -13.14,-7.85 -11.53,-5.11 -25.09,-5.52 -36.87,-0.94 -10.9,3.9 -20.11,11.09 -29.9,17.06 -7.35,4.31 -14.91,8.49 -23.18,10.73 -6.76,1.83 -13.62,3.31 -20.51,4.61 7.74,-12.87 16.41,-25.24 26.51,-36.37 5.25,-5.83 10.32,-11.88 14.33,-18.64 5.95,-10.16 9.84,-21.34 15.5,-31.64 3.88,-7.11 9.66,-12.93 15.75,-18.18 5.57,-4.76 12.08,-8.23 18.71,-11.25 8.18,-3.74 16.82,-6.45 25.67,-8.05 4.46,-0.8 8.93,-1.52 13.36,-2.47 -2.11,-2.87 -4.23,-5.81 -7.09,-7.99 -4.59,-3.54 -9.88,-6.03 -15.17,-8.35 -14.03,-5.59 -29.04,-8.19 -43.93,-10.33 -26.24,-3.25 -52.77,-3.13 -79,-6.36 6.58,-4.72 13.69,-8.65 20.31,-13.32 6.2,-3.06 12.67,-5.53 19.11,-8.04 17.1,-6.25 35,-9.95 52.22,-15.85 12.12,-4.02 23.2,-10.52 35.15,-15 10.5,-4.07 21.53,-6.71 32.75,-7.77 -8.79,-3.36 -17.87,-5.92 -27.15,-7.47 -13.71,-2.26 -27.53,-4.24 -41.45,-4.36 -4.66,-0.07 -9.33,-0.1 -13.98,-0.38 -15.02,-1.13 -30.08,-0.66 -45.12,-0.69 2.03,-1.98 4.07,-4.03 6.71,-5.21 6.75,-3.36 13.12,-7.41 19.62,-11.24 7.2,-3.75 14.27,-7.78 21.51,-11.45 6.66,-2.52 13.03,-5.7 19.6,-8.41 10.04,-4.2 20.5,-7.28 30.66,-11.15 10.44,-2.18 20.6,-5.46 30.96,-7.93 10.6,-1.42 21.16,-3.2 31.83,-3.97 7.52,-0.65 15.07,-0.57 22.62,-0.54 17.44,-0.29 34.67,3.25 51.54,7.35 12.57,4.85 25.05,10.09 36.6,17.09 5.2,3.37 10.25,6.99 15.11,10.84 6.7,5.23 11.87,12.11 18.6,17.31 -2.17,-11.61 -9.92,-20.93 -17.46,-29.59 -6.2,-6.76 -12.82,-13.13 -19.73,-19.16 -3.18,-2.86 -6.59,-5.44 -9.72,-8.34 -1.44,-1.43 -2.81,-2.93 -4.16,-4.43 m 21.13,8.66 c 4.43,4.54 9.28,8.64 13.75,13.15 2.13,2.38 4.41,4.61 6.81,6.72 1.99,2.96 4.1,5.85 6.54,8.45 2.58,3.87 4.89,7.9 6.85,12.11 l 0.76,-0.07 c 0.67,3.44 1.22,6.94 2.49,10.22 0.23,6.05 -0.69,12.19 -3.81,17.48 -4.13,-2.75 -6.43,-7.34 -10.34,-10.28 -3.22,-4.38 -6.85,-8.67 -11.57,-11.47 -4.96,-5.48 -11.29,-9.38 -17.19,-13.72 -3.76,-2.34 -7.37,-5.34 -11.76,-6.32 -4.44,-3.61 -9.96,-5.32 -15.08,-7.67 -2.66,-1.1 -5.35,-2.36 -8.25,-2.54 -7.89,-2.79 -15.99,-5.06 -24.31,-6.08 -13.49,-2.19 -27.2,-3.04 -40.85,-2.39 -6.32,0.37 -12.59,1.32 -18.91,1.8 -6.78,0.5 -13.38,2.25 -20.1,3.14 -3.71,0.49 -7.41,1.15 -10.96,2.33 0.35,-0.02 1.05,-0.06 1.4,-0.09 -6.03,1.45 -12.07,2.86 -18.03,4.55 -5.68,2.01 -11.73,3.28 -16.82,6.64 -3.03,0.01 -5.79,1.48 -8.55,2.54 -7.69,3.38 -15.63,6.19 -23.2,9.88 -4.71,2.25 -9.61,4.21 -13.93,7.21 -4.86,1.11 -9.02,4.04 -13.08,6.8 10.37,1.01 20.8,0.47 31.18,1.21 19.11,0.7 38.28,2.64 56.83,7.44 6.96,2.25 14.03,4.26 20.68,7.36 4.11,1.9 8.08,4.09 12.32,5.7 2.27,2.43 5.26,4 7.94,5.93 3.13,2.09 5.91,4.66 8.47,7.41 -5.57,-1.81 -10.95,-4.29 -16.73,-5.41 -16.08,-3.59 -32.88,-0.42 -48.12,5.17 -6.6,2.48 -13.1,5.26 -19.44,8.35 -23.99,11.74 -50.76,15.56 -75.68,24.75 -1.86,0.76 -3.6,1.76 -5.31,2.8 -2.97,0.56 -5.6,2.12 -8.32,3.34 -0.09,0.45 -0.27,1.35 -0.36,1.8 14.62,-0.24 29.18,1.33 43.76,2.12 16.29,1.44 32.51,4.04 48.28,8.42 9.71,3.13 19.56,6.7 27.67,13.05 4.36,3.36 7.58,7.88 10.75,12.31 0.89,3.09 1.67,6.21 2.36,9.36 -2.7,0.23 -5.4,0.44 -8.1,0.62 -16.36,1 -32.44,5.86 -46.76,13.8 -5.47,2.99 -10.15,7.19 -14.68,11.42 -4.66,4.36 -7.04,10.4 -10.17,15.82 -3.21,5.65 -5.26,11.86 -8.25,17.61 -3.38,6.48 -6.72,13.06 -11.42,18.7 -5.57,6.74 -11.27,13.36 -17.1,19.87 -2.82,3.15 -5.24,6.63 -7.53,10.18 4.17,-1.3 8.36,-2.61 12.33,-4.46 11.75,-5.33 21.86,-13.54 33.19,-19.63 6.8,-3.48 14.03,-6.46 21.7,-7.27 8.73,-0.97 17.76,-0.47 26.1,2.43 10.18,3.62 19.78,10.01 25.7,19.2 -3.29,1.56 -6.67,3.17 -9.23,5.83 -7.46,7.33 -10.81,17.9 -11.38,28.14 -0.67,9.9 1.43,20.22 7.11,28.47 3.24,4.25 7.95,7.94 13.42,8.45 3.48,-2 6.06,-5.32 9.8,-6.92 4.47,-1.97 9.29,-2.95 14.04,-3.96 11.59,-2.13 23.41,-2.87 35.18,-2.75 13.34,0.1 26.73,-0.45 40.02,0.98 5.74,0.5 11.53,1.16 17.04,2.93 3.92,1.27 7.73,3.4 10.23,6.75 0.1,4.28 0.41,8.66 -0.77,12.83 -1.02,3.58 -2.8,6.87 -4.34,10.25 -1.56,1.88 -2.78,4.01 -4.22,5.99 -4.1,5.85 -10,10.04 -15.36,14.63 -5.06,4.32 -10.74,7.79 -16.56,10.96 2.43,3 5.02,5.88 8,8.36 5.24,4.4 10.18,9.38 16.44,12.36 10.69,5.18 22.65,6.46 34.02,9.46 4.28,1.05 8.13,3.38 12.44,4.29 3.52,3.47 7.44,6.6 10.3,10.67 3.41,4.78 5,10.52 6.78,16.03 -0.36,5.89 -0.18,11.89 -1.74,17.63 -4.88,18.54 -15.32,34.97 -26.82,50.07 -3.87,4.98 -8.29,9.59 -11.27,15.19 -2,-0.22 -3.11,2.17 -3.64,3.76 -1.48,5.73 -1.73,11.68 -2.54,17.53 -1.09,10.79 -3.34,21.45 -3.91,32.3 7.99,-2.56 15.34,-6.71 23.05,-9.97 28.37,-13.13 57.05,-25.61 85.25,-39.14 16.03,-7.01 31.82,-14.59 47.86,-21.6 7.9,-2.99 15.35,-7.08 23.35,-9.82 -1.08,-8.57 -3.49,-16.88 -5.13,-25.34 -1.48,-6.51 -2.34,-13.18 -4.52,-19.51 -0.17,-4.93 -1.45,-9.72 -2.19,-14.57 -2.76,-17.41 -4.13,-35.02 -4.4,-52.64 0.59,-11.09 5.21,-21.27 8.68,-31.64 2.92,-6.22 5.46,-12.61 7.95,-19.01 2.83,-7.55 7.26,-14.36 10.16,-21.88 3.1,-8 7.98,-15.19 10.53,-23.41 -7.26,1.3 -14.28,3.57 -21.4,5.42 -16.53,4.15 -32.75,9.51 -49.45,13.02 -34.62,9.29 -69.18,18.83 -103.79,28.18 -7.1,1.89 -14.14,3.99 -21.3,5.66 0,-1.51 0.02,-3.01 -0.02,-4.51 0.89,-3.24 1.56,-6.54 2.12,-9.85 13.46,-4.86 27.21,-8.88 40.63,-13.88 9.29,-3.36 18.79,-6.11 28.11,-9.36 8.21,-3.14 16.54,-5.94 24.88,-8.7 19.09,-5.56 37.7,-12.64 56.58,-18.85 12.14,-3.94 24.05,-8.56 36.21,-12.45 3.09,-0.93 6.15,-2.48 7.82,-5.38 6.27,-9.72 8.67,-21.29 10.34,-32.57 1.07,-7.14 1.07,-14.36 1.66,-21.54 1,-16.08 -0.06,-32.2 -1.37,-48.23 -0.26,-4.69 -0.88,-9.36 -1.84,-13.96 -1.47,-14.48 -4.46,-28.81 -8.56,-42.78 -3.91,7.01 -8.47,13.65 -13.47,19.92 -2.99,3.37 -6.01,6.98 -10.09,9.04 -1.77,0.99 -5.21,0.72 -5.02,-1.91 0.44,-6.2 1.13,-12.39 0.98,-18.62 -1.02,-10.57 -4.35,-21.06 -10.04,-30.04 -2.92,-5.83 -6.78,-11.09 -10.64,-16.31 -1.18,-1.52 -2.4,-3.03 -3.88,-4.25 -3.72,-5.81 -8.96,-10.34 -13.72,-15.24 -1,-0.77 -1.85,-2.05 -3.2,-2.16 -3.51,-4.37 -7.97,-7.79 -12.21,-11.41 -1.53,-1.18 -3.04,-2.59 -4.96,-3.05 -4.84,-4.63 -10.53,-8.2 -16.12,-11.83 -1.69,-0.92 -3.43,-2.24 -5.44,-2.14 -3.41,-3.41 -7.7,-6.03 -12.47,-6.95 -4.74,-3.38 -10.07,-6.16 -15.82,-7.28 -4.66,-2.92 -10.04,-4.25 -15.04,-6.43 -5.17,-2.41 -10.64,-4.1 -16.26,-5.05 m -88.35,403.34 c -8.95,4.05 -18.74,6.15 -28.55,6.44 -3.14,0.21 -6.34,-0.02 -9.41,0.76 -3.56,2.22 -5.6,6.1 -8.07,9.36 -4.93,4.9 -9.18,10.41 -13.95,15.46 -2.73,2.9 -5.31,5.95 -7.73,9.12 -3,2.36 -5.41,5.35 -8.09,8.05 -4.82,5.16 -10.3,9.66 -15.03,14.9 -3.79,2.09 -7.02,5.02 -10.56,7.47 -7.71,5.39 -15.51,10.64 -23.63,15.39 -5.38,3.2 -11.13,5.79 -16.12,9.61 -4.27,0.9 -7.9,3.55 -11.84,5.29 -8.45,3.84 -16.56,8.45 -25.27,11.68 -8.68,3.36 -18.09,4.13 -27.31,4.41 1.81,6.5 4,12.89 6.43,19.19 1.24,3.03 1.64,6.29 1.86,9.53 -1.66,-0.13 -3.33,-0.19 -5,-0.33 -3.08,-4.96 -3.97,-10.88 -6.12,-16.24 -3.65,-9.27 -6,-19.12 -11.16,-27.73 -2.48,-4.17 -6.31,-7.93 -11.23,-8.9 -12.18,-2.16 -25.61,0.46 -35.11,8.68 -3.57,3 -4.9,7.81 -5.13,12.31 -0.32,6.23 2.04,12.17 4.52,17.76 3.17,6.75 6.6,13.38 10.22,19.9 5.93,9.61 11.89,19.25 19.05,28.01 9,10.83 11.62,25.1 17.38,37.63 3.49,6.76 8.42,13.37 15.58,16.48 5.85,2.64 12.31,4.09 18.74,3.62 11.52,-0.81 22.65,-4.96 32.37,-11.12 6.4,-4.08 11.76,-9.51 17.52,-14.4 15.35,-12.95 30.54,-26.1 45.71,-39.26 1.67,-1.38 3.65,-2.82 5.95,-2.37 0.71,0.84 1.32,1.76 1.83,2.75 -1.93,3.43 -5.23,5.71 -8.14,8.24 -16.2,14.14 -32.59,28.06 -48.87,42.11 -0.02,0.54 -0.04,1.63 -0.06,2.17 6.9,2.42 14.31,2.53 21.52,1.9 4.88,-0.48 9.31,-2.74 13.62,-4.92 9,-4.5 16.57,-11.34 23.58,-18.46 8.01,-8.39 15.51,-17.25 22.74,-26.32 5.96,-6.99 12.29,-13.71 19.33,-19.62 6.3,-5.34 13.65,-9.19 20.88,-13.1 4.97,-2.7 10.27,-4.68 15.64,-6.43 14.64,-5.3 30.16,-7.67 45.64,-8.8 4.38,-0.33 8.84,0.48 13.17,-0.43 2.22,-1.36 3.85,-3.44 5.55,-5.36 6.9,-8.26 13.41,-16.9 18.83,-26.22 4.08,-6.24 7.33,-12.99 10.15,-19.89 1.04,-2.8 2.15,-5.64 2.5,-8.62 0.82,-2.36 1.82,-4.7 1.86,-7.23 0.37,-6.1 0.55,-12.57 -2.16,-18.21 -1.39,-2.79 -3.15,-5.57 -5.78,-7.34 -2.6,-2.42 -5.32,-4.78 -8.56,-6.28 -5.24,-2.46 -11.05,-3.14 -16.59,-4.63 -7.14,-1.94 -14.46,-3.48 -21.13,-6.78 -2.41,-1.03 -4.78,-2.59 -7.48,-2.51 -2.41,-2.27 -4.96,-4.37 -7.6,-6.35 -5.79,-4.31 -10.37,-9.94 -15.23,-15.22 -3.81,1.5 -7.55,3.14 -11.26,4.85 z"
       id="path188"
       inkscape:connector-curvature="0"
       style="opacity:1;fill:#ffffff" />
    <path
       d="m 272.12,464.08 c 3.12,-2.75 5.22,-6.38 7.29,-9.92 2.31,1.03 5.65,1.45 6.45,4.31 0.73,2.09 0.88,4.78 -0.8,6.48 -1.7,1.79 -3.94,2.93 -6.1,4.07 -4.56,2.09 -9,4.48 -13.78,6.04 -1.86,0.82 -3.63,-0.5 -5.46,-0.73 3.9,-3.7 8.4,-6.68 12.4,-10.25 z"
       id="path190"
       inkscape:connector-curvature="0"
       style="opacity:1;fill:#ffffff" />
  </g>
  <g
     id="#1a5a91ff"
     transform="matrix(0.06835026,0,0,0.06835026,3.4956369,-0.02686568)">
    <path
       d="m 431.4,28.39 c 2.96,0.17 5.61,1.67 8.22,2.93 6.02,3.15 12.43,5.69 17.73,10.04 -4.92,-0.31 -9.79,0.7 -14.28,2.7 -9.77,-4.66 -19.59,-9.24 -29.7,-13.12 5.72,-2.29 11.94,-2.62 18.03,-2.55 z"
       id="path193"
       inkscape:connector-curvature="0"
       style="opacity:1;fill:#1a5a91" />
  </g>
  <g
     id="#1b67a7ff"
     transform="matrix(0.06835026,0,0,0.06835026,3.4956369,-0.02686568)">
    <path
       d="m 389.91,31.23 c 5.62,0.95 11.09,2.64 16.26,5.05 5,2.18 10.38,3.51 15.04,6.43 -5.9,-0.36 -11.82,0.27 -17.55,1.67 -4.47,-4.51 -9.32,-8.61 -13.75,-13.15 z"
       id="path196"
       inkscape:connector-curvature="0"
       style="opacity:1;fill:#1b67a7" />
  </g>
  <g
     id="#19588dff"
     transform="matrix(0.06835026,0,0,0.06835026,3.4956369,-0.02686568)">
    <path
       d="m 202.07,35.91 c 3.12,-1.05 6.24,-2.41 9.59,-2.45 6.44,0.36 12.89,0.81 19.35,0.39 4.3,-0.34 8.6,0.41 12.54,2.16 -10.36,2.47 -20.52,5.75 -30.96,7.93 -9.51,-1.22 -19.1,-0.9 -28.65,-0.93 5.56,-3.5 12.06,-4.82 18.13,-7.1 z"
       id="path199"
       inkscape:connector-curvature="0"
       style="opacity:1;fill:#19588d" />
  </g>
  <g
     id="#195285ff"
     transform="matrix(0.06835026,0,0,0.06835026,3.4956369,-0.02686568)">
    <path
       d="m 382.66,35.34 c 6.91,6.03 13.53,12.4 19.73,19.16 -5.45,-0.69 -11.25,-1.46 -16.25,1.44 -11.55,-7 -24.03,-12.24 -36.6,-17.09 3.81,-0.38 7.6,-1.01 11.44,-1.05 5.34,-0.13 10.69,0.6 16.03,0.12 2.14,-0.15 3.85,-1.57 5.65,-2.58 z"
       id="path202"
       inkscape:connector-curvature="0"
       style="opacity:1;fill:#195285" />
  </g>
  <g
     id="#1b619dff"
     transform="matrix(0.06835026,0,0,0.06835026,3.4956369,-0.02686568)">
    <path
       d="m 265.04,40.62 c 6.32,-0.48 12.59,-1.43 18.91,-1.8 13.65,-0.65 27.36,0.2 40.85,2.39 8.32,1.02 16.42,3.29 24.31,6.08 -7.03,0.5 -14.06,1.06 -21.11,0.82 -30.5,0 -61,-0.16 -91.5,0.1 0.32,-0.8 0.64,-1.59 0.96,-2.38 -0.52,0.05 -1.56,0.13 -2.08,0.17 -0.35,0.03 -1.05,0.07 -1.4,0.09 3.55,-1.18 7.25,-1.84 10.96,-2.33 6.72,-0.89 13.32,-2.64 20.1,-3.14 z"
       id="path205"
       inkscape:connector-curvature="0"
       style="opacity:1;fill:#1b619d" />
  </g>
  <g
     id="#195184ff"
     transform="matrix(0.06835026,0,0,0.06835026,3.4956369,-0.02686568)">
    <path
       d="m 457.35,41.36 c 5.56,1.45 10.1,5.28 14.66,8.6 -5.18,-0.61 -10.4,0.17 -15.31,1.85 -4.52,-2.61 -9.02,-5.28 -13.63,-7.75 4.49,-2 9.36,-3.01 14.28,-2.7 z"
       id="path208"
       inkscape:connector-curvature="0"
       style="opacity:1;fill:#195184" />
  </g>
  <g
     id="#184d7bff"
     transform="matrix(0.06835026,0,0,0.06835026,3.4956369,-0.02686568)">
    <path
       d="m 173.58,46.58 c 3.38,-1.36 6.72,-3.04 10.36,-3.57 9.55,0.03 19.14,-0.29 28.65,0.93 -10.16,3.87 -20.62,6.95 -30.66,11.15 -6.57,2.71 -12.94,5.89 -19.6,8.41 -8.47,-0.78 -17.25,-1.48 -25.47,1.31 5.03,-3.45 10.37,-6.43 15.96,-8.85 6.98,-3 13.73,-6.5 20.76,-9.38 z"
       id="path211"
       inkscape:connector-curvature="0"
       style="opacity:1;fill:#184d7b" />
  </g>
  <g
     id="#1a5f9aff"
     transform="matrix(0.06835026,0,0,0.06835026,3.4956369,-0.02686568)">
    <path
       d="m 403.66,44.38 c 5.73,-1.4 11.65,-2.03 17.55,-1.67 5.75,1.12 11.08,3.9 15.82,7.28 -8.86,-0.11 -17.79,-0.43 -26.56,1.11 -2.4,-2.11 -4.68,-4.34 -6.81,-6.72 z"
       id="path214"
       inkscape:connector-curvature="0"
       style="opacity:1;fill:#1a5f9a" />
  </g>
  <g
     id="#19578dff"
     transform="matrix(0.06835026,0,0,0.06835026,3.4956369,-0.02686568)">
    <path
       d="m 235.38,46 c 0.52,-0.04 1.56,-0.12 2.08,-0.17 -0.32,0.79 -0.64,1.58 -0.96,2.38 30.5,-0.26 61,-0.1 91.5,-0.1 7.05,0.24 14.08,-0.32 21.11,-0.82 2.9,0.18 5.59,1.44 8.25,2.54 5.12,2.35 10.64,4.06 15.08,7.67 -7.13,0.65 -14.28,0.94 -21.44,0.7 -43.33,-0.01 -86.67,-0.03 -130,0.01 -6.85,0.3 -13.69,-0.06 -20.47,-1.02 5.09,-3.36 11.14,-4.63 16.82,-6.64 5.96,-1.69 12,-3.1 18.03,-4.55 z"
       id="path217"
       inkscape:connector-curvature="0"
       style="opacity:1;fill:#19578d" />
  </g>
  <g
     id="#19578cff"
     transform="matrix(0.06835026,0,0,0.06835026,3.4956369,-0.02686568)">
    <path
       d="m 410.47,51.1 c 8.77,-1.54 17.7,-1.22 26.56,-1.11 4.77,0.92 9.06,3.54 12.47,6.95 -6.12,0.93 -12.3,1.54 -18.49,1.05 -4.73,-0.42 -9.46,0.22 -14,1.56 -2.44,-2.6 -4.55,-5.49 -6.54,-8.45 z"
       id="path220"
       inkscape:connector-curvature="0"
       style="opacity:1;fill:#19578c" />
  </g>
  <g
     id="#174b79ff"
     transform="matrix(0.06835026,0,0,0.06835026,3.4956369,-0.02686568)">
    <path
       d="m 456.7,51.81 c 4.91,-1.68 10.13,-2.46 15.31,-1.85 5.92,2.69 10.94,6.97 16,10.98 -5.36,-1.64 -11.1,-1.21 -16.29,0.8 -4.9,-3.47 -9.9,-6.8 -15.02,-9.93 z"
       id="path223"
       inkscape:connector-curvature="0"
       style="opacity:1;fill:#174b79" />
  </g>
  <g
     id="#174671ff"
     transform="matrix(0.06835026,0,0,0.06835026,3.4956369,-0.02686568)">
    <path
       d="m 386.14,55.94 c 5,-2.9 10.8,-2.13 16.25,-1.44 7.54,8.66 15.29,17.98 17.46,29.59 -6.73,-5.2 -11.9,-12.08 -18.6,-17.31 -4.86,-3.85 -9.91,-7.47 -15.11,-10.84 z"
       id="path226"
       inkscape:connector-curvature="0"
       style="opacity:1;fill:#174671" />
  </g>
  <g
     id="#174a78ff"
     transform="matrix(0.06835026,0,0,0.06835026,3.4956369,-0.02686568)">
    <path
       d="m 191.98,59.73 c 2.76,-1.06 5.52,-2.53 8.55,-2.54 6.78,0.96 13.62,1.32 20.47,1.02 43.33,-0.04 86.67,-0.02 130,-0.01 7.16,0.24 14.31,-0.05 21.44,-0.7 4.39,0.98 8,3.98 11.76,6.32 5.9,4.34 12.23,8.24 17.19,13.72 -8.44,-0.83 -16.93,-0.61 -25.39,-0.59 -67.33,0.02 -134.67,-0.02 -202,0.01 -6.38,0.1 -12.77,-0.23 -19.15,-0.14 4.32,-3 9.22,-4.96 13.93,-7.21 7.57,-3.69 15.51,-6.5 23.2,-9.88 z"
       id="path229"
       inkscape:connector-curvature="0"
       style="opacity:1;fill:#174a78" />
  </g>
  <g
     id="#184e7eff"
     transform="matrix(0.06835026,0,0,0.06835026,3.4956369,-0.02686568)">
    <path
       d="m 431.01,57.99 c 6.19,0.49 12.37,-0.12 18.49,-1.05 2.01,-0.1 3.75,1.22 5.44,2.14 5.59,3.63 11.28,7.2 16.12,11.83 -5.36,-0.14 -10.71,0.13 -16.06,0.11 -10.13,0.11 -20.29,-0.53 -30.38,0.57 l -0.76,0.07 c -1.96,-4.21 -4.27,-8.24 -6.85,-12.11 4.54,-1.34 9.27,-1.98 14,-1.56 z"
       id="path232"
       inkscape:connector-curvature="0"
       style="opacity:1;fill:#184e7e" />
  </g>
  <g
     id="#16446eff"
     transform="matrix(0.06835026,0,0,0.06835026,3.4956369,-0.02686568)">
    <path
       d="m 471.72,61.74 c 5.19,-2.01 10.93,-2.44 16.29,-0.8 4.86,2.92 8.94,6.96 12.93,10.95 -2.47,-0.48 -5.04,-1.08 -7.54,-0.52 -1.77,0.85 -3.27,2.15 -4.79,3.36 -5.34,-4.7 -11.16,-8.8 -16.89,-12.99 z"
       id="path235"
       inkscape:connector-curvature="0"
       style="opacity:1;fill:#16446e" />
  </g>
  <g
     id="#16426bff"
     transform="matrix(0.06835026,0,0,0.06835026,3.4956369,-0.02686568)">
    <path
       d="m 136.86,64.81 c 8.22,-2.79 17,-2.09 25.47,-1.31 -7.24,3.67 -14.31,7.7 -21.51,11.45 -6.19,-3.21 -13.31,-2.15 -19.88,-0.99 5.01,-3.52 10.25,-6.83 15.92,-9.15 z"
       id="path238"
       inkscape:connector-curvature="0"
       style="opacity:1;fill:#16426b" />
  </g>
  <g
     id="#16436dff"
     transform="matrix(0.06835026,0,0,0.06835026,3.4956369,-0.02686568)">
    <path
       d="m 424.62,71.59 c 10.09,-1.1 20.25,-0.46 30.38,-0.57 5.35,0.02 10.7,-0.25 16.06,-0.11 1.92,0.46 3.43,1.87 4.96,3.05 4.24,3.62 8.7,7.04 12.21,11.41 -15.04,1.27 -30.15,0.29 -45.22,0.67 -4.45,-0.04 -9,0.51 -13.37,-0.54 -1.04,-1.08 -1.8,-2.39 -2.53,-3.69 -1.27,-3.28 -1.82,-6.78 -2.49,-10.22 z"
       id="path241"
       inkscape:connector-curvature="0"
       style="opacity:1;fill:#16436d" />
  </g>
  <g
     id="#163d62ff"
     transform="matrix(0.06835026,0,0,0.06835026,3.4956369,-0.02686568)">
    <path
       d="m 488.61,74.73 c 1.52,-1.21 3.02,-2.51 4.79,-3.36 2.5,-0.56 5.07,0.04 7.54,0.52 5.31,3.72 9.24,8.98 13.81,13.5 -1.51,0.33 -3.04,0.57 -4.53,0.96 -1.77,1.53 -2.73,3.77 -3.95,5.72 -5.26,-6.39 -11.4,-11.95 -17.66,-17.34 z"
       id="path244"
       inkscape:connector-curvature="0"
       style="opacity:1;fill:#163d62" />
  </g>
  <g
     id="#153c61ff"
     transform="matrix(0.06835026,0,0,0.06835026,3.4956369,-0.02686568)">
    <path
       d="m 120.94,73.96 c 6.57,-1.16 13.69,-2.22 19.88,0.99 -6.5,3.83 -12.87,7.88 -19.62,11.24 -2.64,1.18 -4.68,3.23 -6.71,5.21 -0.36,0.01 -1.07,0.03 -1.43,0.04 0.49,-1.52 0.96,-3.04 1.43,-4.56 -7.29,-0.28 -14.7,0.33 -21.53,3.05 5.65,-4.23 12.08,-7.22 18.11,-10.86 3.22,-1.82 6.32,-3.97 9.87,-5.11 z"
       id="path247"
       inkscape:connector-curvature="0"
       style="opacity:1;fill:#153c61" />
  </g>
  <g
     id="#164068ff"
     transform="matrix(0.06835026,0,0,0.06835026,3.4956369,-0.02686568)">
    <path
       d="m 141.77,83.62 c 4.06,-2.76 8.22,-5.69 13.08,-6.8 6.38,-0.09 12.77,0.24 19.15,0.14 67.33,-0.03 134.67,0.01 202,-0.01 8.46,-0.02 16.95,-0.24 25.39,0.59 4.72,2.8 8.35,7.09 11.57,11.47 -61.57,-0.11 -123.16,0.03 -184.73,-0.07 0.51,1.11 1.03,2.22 1.55,3.33 -18.55,-4.8 -37.72,-6.74 -56.83,-7.44 -10.38,-0.74 -20.81,-0.2 -31.18,-1.21 z"
       id="path250"
       inkscape:connector-curvature="0"
       style="opacity:1;fill:#164068" />
  </g>
  <g
     id="#153a5dff"
     transform="matrix(0.06835026,0,0,0.06835026,3.4956369,-0.02686568)">
    <path
       d="m 427.11,81.81 c 0.73,1.3 1.49,2.61 2.53,3.69 4.37,1.05 8.92,0.5 13.37,0.54 15.07,-0.38 30.18,0.6 45.22,-0.67 1.35,0.11 2.2,1.39 3.2,2.16 4.76,4.9 10,9.43 13.72,15.24 -6.85,-2.1 -14.08,-1.91 -21.15,-1.77 -17.01,0.14 -34.02,-0.09 -51.03,0.08 -8.32,0.37 -16.65,0.11 -24.98,-0.07 -48.96,0.06 -97.93,-0.02 -146.89,0.04 0.54,1.43 1.07,2.87 1.68,4.28 -4.24,-1.61 -8.21,-3.8 -12.32,-5.7 -6.65,-3.1 -13.72,-5.11 -20.68,-7.36 -0.52,-1.11 -1.04,-2.22 -1.55,-3.33 61.57,0.1 123.16,-0.04 184.73,0.07 3.91,2.94 6.21,7.53 10.34,10.28 3.12,-5.29 4.04,-11.43 3.81,-17.48 z"
       id="path253"
       inkscape:connector-curvature="0"
       style="opacity:1;fill:#153a5d" />
  </g>
  <g
     id="#143351ff"
     transform="matrix(0.06835026,0,0,0.06835026,3.4956369,-0.02686568)">
    <path
       d="m 510.22,86.35 c 1.49,-0.39 3.02,-0.63 4.53,-0.96 9.15,10.71 18.39,21.72 24.06,34.75 0.15,0.3 0.43,0.9 0.58,1.21 -2.66,-1.36 -5.28,-2.97 -8.25,-3.54 -1.73,0.37 -2.83,2.07 -4.36,2.9 -5.28,-10.57 -12.81,-19.75 -20.51,-28.64 1.22,-1.95 2.18,-4.19 3.95,-5.72 z"
       id="path256"
       inkscape:connector-curvature="0"
       style="opacity:1;fill:#143351" />
  </g>
  <g
     id="#143554ff"
     transform="matrix(0.06835026,0,0,0.06835026,3.4956369,-0.02686568)">
    <path
       d="m 92.96,89.93 c 6.83,-2.72 14.24,-3.33 21.53,-3.05 -0.47,1.52 -0.94,3.04 -1.43,4.56 0.36,-0.01 1.07,-0.03 1.43,-0.04 15.04,0.03 30.1,-0.44 45.12,0.69 4.65,0.28 9.32,0.31 13.98,0.38 13.92,0.12 27.74,2.1 41.45,4.36 9.28,1.55 18.36,4.11 27.15,7.47 -11.22,1.06 -22.25,3.7 -32.75,7.77 -1.86,-1.46 -3.8,-3.24 -6.34,-3.15 -5.11,-0.24 -10.24,0.16 -15.31,0.87 2.38,-1.57 4.8,-3.1 7.2,-4.65 -9.95,-1 -19.96,-1.56 -29.96,-1.83 -11.69,0.27 -23.34,-1.22 -35.03,-0.97 -13.01,0.21 -26.01,-0.72 -39.02,-0.71 -5.79,-0.01 -11.6,0.2 -17.39,-0.22 2.05,-1.6 3.93,-3.46 6.26,-4.65 4.36,-2.29 8.5,-5.04 13.11,-6.83 z"
       id="path259"
       inkscape:connector-curvature="0"
       style="opacity:1;fill:#143554" />
  </g>
  <g
     id="#132b44ff"
     transform="matrix(0.06835026,0,0,0.06835026,3.4956369,-0.02686568)">
    <path
       d="m 554.08,112.26 c 2.25,-4.59 4.38,-9.28 7.58,-13.31 1.5,3.8 2.82,7.67 4.01,11.58 2.63,8.72 5.82,17.25 8.64,25.9 -3.89,0.28 -7.8,0.37 -11.7,0.25 -0.96,-3.6 -2.03,-7.16 -3.12,-10.72 -5.26,8.09 -8.98,17.08 -14.51,25 -2.22,3.24 -4.81,6.21 -7.38,9.18 -0.3,-6.56 -0.66,-13.19 -2.39,-19.56 -1.83,-6.99 -4.94,-13.57 -8.43,-19.87 1.53,-0.83 2.63,-2.53 4.36,-2.9 2.97,0.57 5.59,2.18 8.25,3.54 -0.15,-0.31 -0.43,-0.91 -0.58,-1.21 1.65,3.35 3.49,6.61 5.05,10.01 3.89,-5.68 6.94,-11.86 10.22,-17.89 z"
       id="path262"
       inkscape:connector-curvature="0"
       style="opacity:1;fill:#132b44" />
    <path
       d="m 187.79,109.79 c 5.07,-0.71 10.2,-1.11 15.31,-0.87 2.54,-0.09 4.48,1.69 6.34,3.15 -11.95,4.48 -23.03,10.98 -35.15,15 -17.22,5.9 -35.12,9.6 -52.22,15.85 -6.44,2.51 -12.91,4.98 -19.11,8.04 2.05,-1.57 4.02,-3.25 6.01,-4.89 -7.97,2.99 -16.56,2.71 -24.85,3.99 15.05,-12.65 34.34,-17.88 52.56,-24.14 6.63,-1.99 13.47,-3.17 20.06,-5.3 6.29,-2.05 12.66,-3.89 18.88,-6.15 4.1,-1.46 7.9,-3.75 12.17,-4.68 z"
       id="path264"
       inkscape:connector-curvature="0"
       style="opacity:1;fill:#132b44" />
  </g>
  <g
     id="#143250ff"
     transform="matrix(0.06835026,0,0,0.06835026,3.4956369,-0.02686568)">
    <path
       d="m 261.1,101.05 c 48.96,-0.06 97.93,0.02 146.89,-0.04 8.33,0.18 16.66,0.44 24.98,0.07 17.01,-0.17 34.02,0.06 51.03,-0.08 7.07,-0.14 14.3,-0.33 21.15,1.77 1.48,1.22 2.7,2.73 3.88,4.25 3.86,5.22 7.72,10.48 10.64,16.31 -6.7,-3.48 -14.43,-2.18 -21.67,-2.26 -94.49,-0.02 -188.99,0.04 -283.48,-0.03 -0.05,-0.65 -0.13,-1.96 -0.18,-2.61 15.24,-5.59 32.04,-8.76 48.12,-5.17 5.78,1.12 11.16,3.6 16.73,5.41 -2.56,-2.75 -5.34,-5.32 -8.47,-7.41 -2.68,-1.93 -5.67,-3.5 -7.94,-5.93 -0.61,-1.41 -1.14,-2.85 -1.68,-4.28 z"
       id="path267"
       inkscape:connector-curvature="0"
       style="opacity:1;fill:#143250" />
  </g>
  <g
     id="#122941ff"
     transform="matrix(0.06835026,0,0,0.06835026,3.4956369,-0.02686568)">
    <path
       d="m 194.9,126.78 c 6.34,-3.09 12.84,-5.87 19.44,-8.35 0.05,0.65 0.13,1.96 0.18,2.61 94.49,0.07 188.99,0.01 283.48,0.03 7.24,0.08 14.97,-1.22 21.67,2.26 5.69,8.98 9.02,19.47 10.04,30.04 -3.66,1.65 -7.57,2.94 -11.63,2.77 -8.03,-0.12 -16.06,-0.22 -24.08,-0.16 -111,0.01 -222,0 -333,0 -10.67,0.03 -21.34,-0.09 -32.01,0.12 -5.1,0.16 -10.1,-0.87 -15.08,-1.77 1.71,-1.04 3.45,-2.04 5.31,-2.8 24.92,-9.19 51.69,-13.01 75.68,-24.75 z"
       id="path270"
       inkscape:connector-curvature="0"
       style="opacity:1;fill:#122941" />
  </g>
  <g
     id="#12243aff"
     transform="matrix(0.06835026,0,0,0.06835026,3.4956369,-0.02686568)">
    <path
       d="m 562.61,136.68 c 3.9,0.12 7.81,0.03 11.7,-0.25 3.71,11.44 6.57,23.17 8.44,35.05 1.52,8.42 2.91,16.88 3.32,25.44 -0.89,-1.42 -1.79,-2.89 -3.09,-3.96 -1.78,-0.95 -3.87,-1.05 -5.8,-1.47 -0.65,3.56 -1.33,7.12 -1.74,10.71 -1.58,-13.17 -3.19,-26.37 -5.99,-39.35 -1.72,-8.86 -4.56,-17.45 -6.84,-26.17 z"
       id="path273"
       inkscape:connector-curvature="0"
       style="opacity:1;fill:#12243a" />
  </g>
  <g
     id="#122337ff"
     transform="matrix(0.06835026,0,0,0.06835026,3.4956369,-0.02686568)">
    <path
       d="m 543.84,164.86 c 5,-6.27 9.56,-12.91 13.47,-19.92 4.1,13.97 7.09,28.3 8.56,42.78 -1.01,1.66 -1.96,3.49 -3.6,4.61 -2.97,1 -6.17,0.78 -9.25,0.81 -9.34,-0.24 -18.68,-0.11 -28.02,-0.13 -86.33,-0.01 -172.67,0 -259,0 -9.74,0.05 -19.49,-0.17 -29.24,0.08 -0.36,0.76 -0.72,1.52 -1.07,2.28 -3.17,-4.43 -6.39,-8.95 -10.75,-12.31 -8.11,-6.35 -17.96,-9.92 -27.67,-13.05 -15.77,-4.38 -31.99,-6.98 -48.28,-8.42 -14.58,-0.79 -29.14,-2.36 -43.76,-2.12 0.09,-0.45 0.27,-1.35 0.36,-1.8 2.72,-1.22 5.35,-2.78 8.32,-3.34 4.98,0.9 9.98,1.93 15.08,1.77 10.67,-0.21 21.34,-0.09 32.01,-0.12 111,0 222,0.01 333,0 8.02,-0.06 16.05,0.04 24.08,0.16 4.06,0.17 7.97,-1.12 11.63,-2.77 0.15,6.23 -0.54,12.42 -0.98,18.62 -0.19,2.63 3.25,2.9 5.02,1.91 4.08,-2.06 7.1,-5.67 10.09,-9.04 z"
       id="path276"
       inkscape:connector-curvature="0"
       style="opacity:1;fill:#122337" />
  </g>
  <g
     id="#122338ff"
     transform="matrix(0.06835026,0,0,0.06835026,3.4956369,-0.02686568)">
    <path
       d="m 84.12,150.06 c 8.29,-1.28 16.88,-1 24.85,-3.99 -1.99,1.64 -3.96,3.32 -6.01,4.89 -6.62,4.67 -13.73,8.6 -20.31,13.32 26.23,3.23 52.76,3.11 79,6.36 14.89,2.14 29.9,4.74 43.93,10.33 -4.23,0.73 -8.09,2.64 -11.78,4.75 0.82,1.01 1.65,2.02 2.5,3.02 -13.14,-2.14 -26.04,-5.85 -39.35,-6.98 -15.25,-2.03 -30.61,-3 -45.97,-3.71 -20.44,-1.47 -40.82,-3.75 -61.3,-4.7 2.41,-2.19 4.85,-4.39 7.67,-6.05 9.02,-5.59 17.38,-12.28 26.77,-17.24 z"
       id="path279"
       inkscape:connector-curvature="0"
       style="opacity:1;fill:#122338" />
  </g>
  <g
     id="#111f32ff"
     transform="matrix(0.06835026,0,0,0.06835026,3.4956369,-0.02686568)">
    <path
       d="m 205.58,180.97 c 5.29,2.32 10.58,4.81 15.17,8.35 2.86,2.18 4.98,5.12 7.09,7.99 -4.43,0.95 -8.9,1.67 -13.36,2.47 -8.85,1.6 -17.49,4.31 -25.67,8.05 -6.63,3.02 -13.14,6.49 -18.71,11.25 -6.09,5.25 -11.87,11.07 -15.75,18.18 -5.66,10.3 -9.55,21.48 -15.5,31.64 -4.01,6.76 -9.08,12.81 -14.33,18.64 -10.1,11.13 -18.77,23.5 -26.51,36.37 6.89,-1.3 13.75,-2.78 20.51,-4.61 8.27,-2.24 15.83,-6.42 23.18,-10.73 9.79,-5.97 19,-13.16 29.9,-17.06 11.78,-4.58 25.34,-4.17 36.87,0.94 4.72,2 8.94,4.95 13.14,7.85 -3.46,3.32 -6.93,6.73 -9.41,10.87 -6.12,10.09 -8.18,22.23 -7.39,33.89 0.56,9.24 3.53,18.5 9.35,25.78 2.5,3.16 6,5.26 8.94,7.95 2.02,1.71 1.63,4.66 2.01,7.03 0.39,9.54 2.23,18.96 4.98,28.09 2.49,8.28 6.58,16.15 12.3,22.66 -6.06,-1.32 -13.47,-0.98 -17.44,-6.65 -2.71,-4.05 -4.31,-8.71 -5.76,-13.33 -2.36,-8.03 -4.52,-16.2 -5.02,-24.59 -0.34,-2.45 -0.16,-5.32 -2.06,-7.2 -2.51,-2.79 -5.48,-5.17 -7.72,-8.21 -6.6,-8.78 -10.27,-19.67 -10.73,-30.62 -0.57,-10.54 0.36,-21.33 4.2,-31.23 1.74,-4.26 4.02,-8.27 6.05,-12.39 -6.73,-1.96 -13.81,-3.35 -20.81,-2.15 -10.59,1.62 -19.56,7.91 -28.41,13.51 -8.62,5.63 -17.55,10.9 -27.17,14.66 -7.85,2.94 -16.2,4.05 -24.33,5.92 -10.49,2.08 -20.6,5.68 -31.15,7.47 6.09,-9.14 12.26,-18.22 18.32,-27.38 5.78,-8.5 11.1,-17.38 17.83,-25.2 8.88,-10.83 19.35,-20.72 25.19,-33.68 3.09,-7.1 6.62,-14 10.06,-20.94 6.61,-14.82 19.46,-26.01 33.56,-33.54 7.01,-3.87 14.61,-6.44 22.06,-9.3 -0.95,-0.97 -1.89,-1.95 -2.76,-2.98 -0.85,-1 -1.68,-2.01 -2.5,-3.02 3.69,-2.11 7.55,-4.02 11.78,-4.75 z"
       id="path282"
       inkscape:connector-curvature="0"
       style="opacity:1;fill:#111f32" />
  </g>
  <g
     id="#111f31ff"
     transform="matrix(0.06835026,0,0,0.06835026,3.4956369,-0.02686568)">
    <path
       d="m 562.27,192.33 c 1.64,-1.12 2.59,-2.95 3.6,-4.61 0.96,4.6 1.58,9.27 1.84,13.96 1.31,16.03 2.37,32.15 1.37,48.23 -0.59,7.18 -0.59,14.4 -1.66,21.54 -1.67,11.28 -4.07,22.85 -10.34,32.57 -1.67,2.9 -4.73,4.45 -7.82,5.38 -12.16,3.89 -24.07,8.51 -36.21,12.45 -18.88,6.21 -37.49,13.29 -56.58,18.85 -8.34,2.76 -16.67,5.56 -24.88,8.7 -9.32,3.25 -18.82,6 -28.11,9.36 -13.42,5 -27.17,9.02 -40.63,13.88 -0.56,3.31 -1.23,6.61 -2.12,9.85 -0.17,-3.88 -0.57,-7.77 -1.44,-11.55 -2.5,-3.35 -6.31,-5.48 -10.23,-6.75 -5.51,-1.77 -11.3,-2.43 -17.04,-2.93 -13.29,-1.43 -26.68,-0.88 -40.02,-0.98 -11.77,-0.12 -23.59,0.62 -35.18,2.75 -4.75,1.01 -9.57,1.99 -14.04,3.96 -3.74,1.6 -6.32,4.92 -9.8,6.92 -5.47,-0.51 -10.18,-4.2 -13.42,-8.45 -5.68,-8.25 -7.78,-18.57 -7.11,-28.47 0.57,-10.24 3.92,-20.81 11.38,-28.14 2.56,-2.66 5.94,-4.27 9.23,-5.83 -5.92,-9.19 -15.52,-15.58 -25.7,-19.2 -8.34,-2.9 -17.37,-3.4 -26.1,-2.43 -7.67,0.81 -14.9,3.79 -21.7,7.27 -11.33,6.09 -21.44,14.3 -33.19,19.63 -3.97,1.85 -8.16,3.16 -12.33,4.46 2.29,-3.55 4.71,-7.03 7.53,-10.18 5.83,-6.51 11.53,-13.13 17.1,-19.87 4.7,-5.64 8.04,-12.22 11.42,-18.7 2.99,-5.75 5.04,-11.96 8.25,-17.61 3.13,-5.42 5.51,-11.46 10.17,-15.82 4.53,-4.23 9.21,-8.43 14.68,-11.42 14.32,-7.94 30.4,-12.8 46.76,-13.8 2.7,-0.18 5.4,-0.39 8.1,-0.62 -0.69,-3.15 -1.47,-6.27 -2.36,-9.36 0.35,-0.76 0.71,-1.52 1.07,-2.28 9.75,-0.25 19.5,-0.03 29.24,-0.08 86.33,0 172.67,-0.01 259,0 9.34,0.02 18.68,-0.11 28.02,0.13 3.08,-0.03 6.28,0.19 9.25,-0.81 z"
       id="path285"
       inkscape:connector-curvature="0"
       style="opacity:1;fill:#111f31" />
    <path
       d="m 577.18,191.49 c 1.93,0.42 4.02,0.52 5.8,1.47 1.3,1.07 2.2,2.54 3.09,3.96 1.04,4.95 1.16,10.04 1.49,15.07 0.52,12.66 1.15,25.33 0.55,38 -0.6,19.01 -2.35,38.5 -10.14,56.08 -1.31,2.69 -1.62,5.72 -0.83,8.61 2.58,10.5 1.05,21.86 -3.97,31.41 -5.97,11.56 -11.31,23.42 -16.88,35.17 -2.5,4.99 -3.79,10.64 -7.2,15.14 -3.73,-0.26 -7.43,-0.81 -11.13,-1.33 5.89,-14.83 12.96,-29.13 19.7,-43.57 3.71,-7.54 8.55,-14.88 9.24,-23.48 0.87,-5.74 -0.89,-11.34 -2.05,-16.88 -0.65,-2.68 0.68,-5.24 1.72,-7.62 1.86,-3.94 3.62,-7.95 4.75,-12.17 3.62,-13.35 4.84,-27.22 5.35,-41 0.66,-16.06 0,-32.14 -1.23,-48.15 0.41,-3.59 1.09,-7.15 1.74,-10.71 z"
       id="path287"
       inkscape:connector-curvature="0"
       style="opacity:1;fill:#111f31" />
  </g>
  <g
     id="#132438ff"
     transform="matrix(0.06835026,0,0,0.06835026,3.4956369,-0.02686568)">
    <path
       d="m 535.29,340.14 c 7.12,-1.85 14.14,-4.12 21.4,-5.42 -2.55,8.22 -7.43,15.41 -10.53,23.41 -2.9,7.52 -7.33,14.33 -10.16,21.88 -2.49,6.4 -5.03,12.79 -7.95,19.01 0.24,-1.83 0.42,-3.67 0.28,-5.51 -2.12,-1.44 -4.77,-1.51 -7.24,-1.6 -40.69,0.25 -81.39,0.06 -122.09,0.11 -10,-0.03 -20,0.11 -30,-0.11 -5,-0.09 -10.17,0.06 -14.82,2.11 1.54,-3.38 3.32,-6.67 4.34,-10.25 1.18,-4.17 0.87,-8.55 0.77,-12.83 0.87,3.78 1.27,7.67 1.44,11.55 0.04,1.5 0.02,3 0.02,4.51 7.16,-1.67 14.2,-3.77 21.3,-5.66 34.61,-9.35 69.17,-18.89 103.79,-28.18 16.7,-3.51 32.92,-8.87 49.45,-13.02 z"
       id="path290"
       inkscape:connector-curvature="0"
       style="opacity:1;fill:#132438" />
  </g>
  <g
     id="#14283fff"
     transform="matrix(0.06835026,0,0,0.06835026,3.4956369,-0.02686568)">
    <path
       d="m 354.18,394.02 c 4.65,-2.05 9.82,-2.2 14.82,-2.11 10,0.22 20,0.08 30,0.11 40.7,-0.05 81.4,0.14 122.09,-0.11 2.47,0.09 5.12,0.16 7.24,1.6 0.14,1.84 -0.04,3.68 -0.28,5.51 -3.47,10.37 -8.09,20.55 -8.68,31.64 -1.16,7.41 -0.28,14.89 -0.61,22.33 -0.3,2.18 -0.36,5.05 -2.46,6.33 -2.98,0.96 -6.19,0.75 -9.28,0.79 -11.34,-0.27 -22.68,-0.09 -34.02,-0.14 -28.02,0.04 -56.04,-0.1 -84.06,0.1 -4.31,-0.91 -8.16,-3.24 -12.44,-4.29 -11.37,-3 -23.33,-4.28 -34.02,-9.46 -6.26,-2.98 -11.2,-7.96 -16.44,-12.36 -2.98,-2.48 -5.57,-5.36 -8,-8.36 5.82,-3.17 11.5,-6.64 16.56,-10.96 5.36,-4.59 11.26,-8.78 15.36,-14.63 1.44,-1.98 2.66,-4.11 4.22,-5.99 z"
       id="path293"
       inkscape:connector-curvature="0"
       style="opacity:1;fill:#14283f" />
  </g>
  <g
     id="#13253aff"
     transform="matrix(0.06835026,0,0,0.06835026,3.4956369,-0.02686568)">
    <path
       d="m 537.96,395.07 c 3.7,0.52 7.4,1.07 11.13,1.33 -1.77,5.93 -4.26,11.61 -6.33,17.44 -1.64,4.65 -3.81,9.18 -4.46,14.11 -1.43,10.52 0.18,21.11 0.18,31.67 -1.64,-1.51 -3.44,-4.35 -6.02,-3.47 -1.7,1.38 -3.13,3.05 -4.54,4.7 -1.2,-12.12 -2.27,-24.45 -0.43,-36.57 2.21,-10.14 6.8,-19.55 10.47,-29.21 z"
       id="path296"
       inkscape:connector-curvature="0"
       style="opacity:1;fill:#13253a" />
  </g>
  <g
     id="#152a41ff"
     transform="matrix(0.06835026,0,0,0.06835026,3.4956369,-0.02686568)">
    <path
       d="m 224.95,429.92 c 3.97,5.67 11.38,5.33 17.44,6.65 2.82,2.44 5.87,4.69 8.21,7.63 -2.29,4.59 -6.18,8.06 -9.6,11.78 -5.77,5.92 -10.65,12.63 -16.53,18.43 -9.43,9.29 -18.49,19.25 -29.99,26.06 -2.76,1.21 -5.59,2.27 -8.25,3.7 -5.62,2.96 -10.6,7.09 -16.53,9.47 -4.73,1.92 -9.94,1.45 -14.91,1.21 5.76,-3.94 12.19,-6.95 17.23,-11.88 5.1,-4.72 11.41,-7.82 16.91,-12.02 14.42,-10 26.18,-23.19 37.93,-36.08 2.9,-3.13 5.63,-6.41 8.25,-9.77 -3.81,-4.76 -7.95,-9.4 -10.16,-15.18 z"
       id="path299"
       inkscape:connector-curvature="0"
       style="opacity:1;fill:#152a41" />
  </g>
  <g
     id="#f4a02dff"
     transform="matrix(0.06835026,0,0,0.06835026,3.4956369,-0.02686568)">
    <path
       d="m 301.56,434.57 c 3.71,-1.71 7.45,-3.35 11.26,-4.85 4.86,5.28 9.44,10.91 15.23,15.22 2.64,1.98 5.19,4.08 7.6,6.35 -4.88,0.38 -9.75,0.94 -14.65,0.83 -13.33,-0.19 -26.67,-0.02 -40,-0.09 -8.5,0.03 -17.05,0.48 -25.47,-0.9 2.47,-3.26 4.51,-7.14 8.07,-9.36 3.07,-0.78 6.27,-0.55 9.41,-0.76 9.81,-0.29 19.6,-2.39 28.55,-6.44 z"
       id="path302"
       inkscape:connector-curvature="0"
       style="opacity:1;fill:#f4a02d" />
  </g>
  <g
     id="#162e48ff"
     transform="matrix(0.06835026,0,0,0.06835026,3.4956369,-0.02686568)">
    <path
       d="m 518.76,452.99 c 0.33,-7.44 -0.55,-14.92 0.61,-22.33 0.27,17.62 1.64,35.23 4.4,52.64 0.74,4.85 2.02,9.64 2.19,14.57 0.04,1.21 0.08,2.43 0.12,3.65 -11.35,-0.79 -22.72,-0.44 -34.08,-0.49 -27.87,-0.11 -55.74,0.2 -83.6,-0.14 -0.31,-4.77 -0.88,-9.56 -2.38,-14.12 -1.78,-5.51 -3.37,-11.25 -6.78,-16.03 -2.86,-4.07 -6.78,-7.2 -10.3,-10.67 28.02,-0.2 56.04,-0.06 84.06,-0.1 11.34,0.05 22.68,-0.13 34.02,0.14 3.09,-0.04 6.3,0.17 9.28,-0.79 2.1,-1.28 2.16,-4.15 2.46,-6.33 z"
       id="path305"
       inkscape:connector-curvature="0"
       style="opacity:1;fill:#162e48" />
    <path
       d="m 186.23,504.17 c 2.66,-1.43 5.49,-2.49 8.25,-3.7 -16.42,12.69 -34.96,22.28 -53.59,31.29 -9.35,4.59 -18.76,9.36 -28.93,11.89 -6.02,1.54 -12.28,1.25 -18.42,0.87 -2.63,-6.82 -5.83,-13.73 -11.41,-18.65 -3.58,-3.47 -8.32,-5.56 -13.26,-6.03 -9.11,-0.99 -18.72,-0.23 -26.98,4.02 -6.56,3.32 -13.29,7.56 -16.6,14.4 -3.52,7.08 -2.88,15.46 -0.45,22.78 1.79,5.24 3.69,10.45 5.98,15.5 -4,0.19 -8,0.3 -12,0.34 -4.65,-10.28 -8.28,-21.51 -6.99,-32.93 0.79,-9.62 6.57,-18.27 14.27,-23.84 12.3,-8.81 27.74,-13.47 42.89,-11.81 11.28,0.79 21.63,7.62 27.62,17.09 1.62,2.47 2.9,5.2 4.84,7.46 2.93,1.01 6.1,0.07 9.01,-0.6 11.64,-3.46 22.17,-9.66 33.19,-14.62 6.7,-3.16 13.3,-6.55 19.66,-10.35 2.79,-1.66 5.71,-3.07 8.71,-4.31 -5.04,4.93 -11.47,7.94 -17.23,11.88 4.97,0.24 10.18,0.71 14.91,-1.21 5.93,-2.38 10.91,-6.51 16.53,-9.47 z"
       id="path307"
       inkscape:connector-curvature="0"
       style="opacity:1;fill:#162e48" />
  </g>
  <g
     id="#f18e27ff"
     transform="matrix(0.06835026,0,0,0.06835026,3.4956369,-0.02686568)">
    <path
       d="m 241.58,466.59 c 4.77,-5.05 9.02,-10.56 13.95,-15.46 8.42,1.38 16.97,0.93 25.47,0.9 13.33,0.07 26.67,-0.1 40,0.09 4.9,0.11 9.77,-0.45 14.65,-0.83 2.7,-0.08 5.07,1.48 7.48,2.51 6.67,3.3 13.99,4.84 21.13,6.78 5.54,1.49 11.35,2.17 16.59,4.63 3.24,1.5 5.96,3.86 8.56,6.28 -4.46,-0.43 -8.93,-0.43 -13.4,-0.46 -32.55,0.09 -65.11,-0.03 -97.66,0.07 0.15,-0.52 0.46,-1.56 0.61,-2.08 2.16,-1.14 4.4,-2.28 6.1,-4.07 1.68,-1.7 1.53,-4.39 0.8,-6.48 -0.8,-2.86 -4.14,-3.28 -6.45,-4.31 -2.07,3.54 -4.17,7.17 -7.29,9.92 -4,3.57 -8.5,6.55 -12.4,10.25 -8.59,-0.69 -17.53,-1.24 -25.87,1.38 2.42,-3.17 5,-6.22 7.73,-9.12 z"
       id="path310"
       inkscape:connector-curvature="0"
       style="opacity:1;fill:#f18e27" />
  </g>
  <g
     id="#152a43ff"
     transform="matrix(0.06835026,0,0,0.06835026,3.4956369,-0.02686568)">
    <path
       d="m 527.92,460.85 c 1.41,-1.65 2.84,-3.32 4.54,-4.7 2.58,-0.88 4.38,1.96 6.02,3.47 1.32,3.68 1.65,7.6 2.2,11.45 0.81,6.69 2.15,13.31 3.13,19.98 1.26,9.75 4.47,19.09 6.29,28.73 -2.55,0.25 -5.19,0.24 -7.6,1.17 -1.23,1.52 -1.85,3.42 -2.46,5.26 -5.13,-21.57 -10.17,-43.23 -12.12,-65.36 z"
       id="path313"
       inkscape:connector-curvature="0"
       style="opacity:1;fill:#152a43" />
  </g>
  <g
     id="#ee7f22ff"
     transform="matrix(0.06835026,0,0,0.06835026,3.4956369,-0.02686568)">
    <path
       d="m 265.18,475.06 c 4.78,-1.56 9.22,-3.95 13.78,-6.04 -0.15,0.52 -0.46,1.56 -0.61,2.08 32.55,-0.1 65.11,0.02 97.66,-0.07 4.47,0.03 8.94,0.03 13.4,0.46 2.63,1.77 4.39,4.55 5.78,7.34 2.71,5.64 2.53,12.11 2.16,18.21 -0.04,2.53 -1.04,4.87 -1.86,7.23 -0.14,-2.73 -0.47,-5.45 -0.75,-8.15 -53.91,-0.23 -107.83,0 -161.74,-0.12 -7.47,-0.12 -15.33,-0.67 -22.27,2.66 4.73,-5.24 10.21,-9.74 15.03,-14.9 2.68,-2.7 5.09,-5.69 8.09,-8.05 8.34,-2.62 17.28,-2.07 25.87,-1.38 1.83,0.23 3.6,1.55 5.46,0.73 z"
       id="path316"
       inkscape:connector-curvature="0"
       style="opacity:1;fill:#ee7f22" />
  </g>
  <g
     id="#18324fff"
     transform="matrix(0.06835026,0,0,0.06835026,3.4956369,-0.02686568)">
    <path
       d="m 406.02,486.77 c 1.5,4.56 2.07,9.35 2.38,14.12 27.86,0.34 55.73,0.03 83.6,0.14 11.36,0.05 22.73,-0.3 34.08,0.49 -0.04,-1.22 -0.08,-2.44 -0.12,-3.65 2.18,6.33 3.04,13 4.52,19.51 1.64,8.46 4.05,16.77 5.13,25.34 -8,2.74 -15.45,6.83 -23.35,9.82 -16.04,7.01 -31.83,14.59 -47.86,21.6 -0.22,-0.73 -0.66,-2.21 -0.88,-2.94 -4.18,-0.14 -8.35,-0.29 -12.53,-0.28 -25.01,0.2 -50.03,-0.13 -75.04,0.19 -3.3,-0.13 -6.52,-0.9 -9.76,-1.45 2.98,-5.6 7.4,-10.21 11.27,-15.19 11.5,-15.1 21.94,-31.53 26.82,-50.07 1.56,-5.74 1.38,-11.74 1.74,-17.63 z"
       id="path319"
       inkscape:connector-curvature="0"
       style="opacity:1;fill:#18324f" />
  </g>
  <g
     id="#ec721dff"
     transform="matrix(0.06835026,0,0,0.06835026,3.4956369,-0.02686568)">
    <path
       d="m 210.73,498.66 c 6.94,-3.33 14.8,-2.78 22.27,-2.66 53.91,0.12 107.83,-0.11 161.74,0.12 0.28,2.7 0.61,5.42 0.75,8.15 -0.35,2.98 -1.46,5.82 -2.5,8.62 -2.82,6.9 -6.07,13.65 -10.15,19.89 -8.34,-2.91 -17.22,-1.57 -25.84,-1.74 -61.68,-0.03 -123.35,0 -185.03,-0.01 -3.85,0 -7.7,-0.14 -11.55,0.1 4.99,-3.82 10.74,-6.41 16.12,-9.61 8.12,-4.75 15.92,-10 23.63,-15.39 3.54,-2.45 6.77,-5.38 10.56,-7.47 z"
       id="path322"
       inkscape:connector-curvature="0"
       style="opacity:1;fill:#ec721d" />
  </g>
  <g
     id="#183350ff"
     transform="matrix(0.06835026,0,0,0.06835026,3.4956369,-0.02686568)">
    <path
       d="m 542.5,520.95 c 2.41,-0.93 5.05,-0.92 7.6,-1.17 1.49,8.16 3.01,16.32 5.1,24.35 0.76,3.04 1.21,6.15 1.67,9.25 -14.31,5.88 -28.21,12.69 -42.31,19.06 -6.57,2.72 -13.09,5.57 -19.49,8.69 -50.4,22.96 -100.77,46.01 -151.25,68.83 -3.46,1.71 -7.05,3.13 -10.69,4.42 0.21,-3.38 0.51,-6.74 0.98,-10.08 2.14,-15.53 4.28,-31.06 6.34,-46.6 0.57,-4.34 0.81,-8.72 0.9,-13.09 -9.22,0.32 -18.41,1.79 -27.25,4.47 -11.93,3.39 -23.56,8.21 -33.89,15.14 -8.28,5.53 -15.1,12.91 -21.47,20.5 -1.82,2.15 -3.82,4.16 -5.94,6.02 -3.46,2.84 -6.44,6.26 -10.13,8.81 -3.99,2.22 -8.77,1.73 -13.16,1.95 4.8,-5.21 9,-10.95 13.84,-16.13 4.77,-5.29 9.1,-10.95 13.81,-16.28 10.09,-11.12 23.12,-19.16 36.82,-25.08 19.12,-7.91 39.89,-12.03 60.61,-11.44 -0.61,9.54 -2.64,18.91 -3.45,28.42 -1.04,11.75 -3.67,23.3 -4.43,35.08 8.4,-3.14 16.47,-7.08 24.61,-10.86 14.11,-6.64 28.33,-13.03 42.53,-19.49 31.72,-14.53 63.44,-29.08 95.18,-43.56 11.41,-5.34 23.14,-9.93 34.57,-15.21 -0.55,-7.02 -1.98,-13.91 -3.56,-20.74 0.61,-1.84 1.23,-3.74 2.46,-5.26 z"
       id="path325"
       inkscape:connector-curvature="0"
       style="opacity:1;fill:#183350" />
  </g>
  <g
     id="#ea6719ff"
     transform="matrix(0.06835026,0,0,0.06835026,3.4956369,-0.02686568)">
    <path
       d="m 35.67,536.71 c 9.5,-8.22 22.93,-10.84 35.11,-8.68 4.92,0.97 8.75,4.73 11.23,8.9 5.16,8.61 7.51,18.46 11.16,27.73 2.15,5.36 3.04,11.28 6.12,16.24 1.67,0.14 3.34,0.2 5,0.33 -0.22,-3.24 -0.62,-6.5 -1.86,-9.53 -2.43,-6.3 -4.62,-12.69 -6.43,-19.19 9.22,-0.28 18.63,-1.05 27.31,-4.41 8.71,-3.23 16.82,-7.84 25.27,-11.68 3.94,-1.74 7.57,-4.39 11.84,-5.29 3.85,-0.24 7.7,-0.1 11.55,-0.1 61.68,0.01 123.35,-0.02 185.03,0.01 8.62,0.17 17.5,-1.17 25.84,1.74 -5.42,9.32 -11.93,17.96 -18.83,26.22 -1.7,1.92 -3.33,4 -5.55,5.36 -4.33,0.91 -8.79,0.1 -13.17,0.43 -15.48,1.13 -31,3.5 -45.64,8.8 -5.37,1.75 -10.67,3.73 -15.64,6.43 -7.23,3.91 -14.58,7.76 -20.88,13.1 -7.04,5.91 -13.37,12.63 -19.33,19.62 -7.23,9.07 -14.73,17.93 -22.74,26.32 -7.01,7.12 -14.58,13.96 -23.58,18.46 -4.31,2.18 -8.74,4.44 -13.62,4.92 -7.21,0.63 -14.62,0.52 -21.52,-1.9 0.02,-0.54 0.04,-1.63 0.06,-2.17 16.28,-14.05 32.67,-27.97 48.87,-42.11 2.91,-2.53 6.21,-4.81 8.14,-8.24 -0.51,-0.99 -1.12,-1.91 -1.83,-2.75 -2.3,-0.45 -4.28,0.99 -5.95,2.37 -15.17,13.16 -30.36,26.31 -45.71,39.26 -5.76,4.89 -11.12,10.32 -17.52,14.4 -9.72,6.16 -20.85,10.31 -32.37,11.12 -6.43,0.47 -12.89,-0.98 -18.74,-3.62 -7.16,-3.11 -12.09,-9.72 -15.58,-16.48 -5.76,-12.53 -8.38,-26.8 -17.38,-37.63 -7.16,-8.76 -13.12,-18.4 -19.05,-28.01 -3.62,-6.52 -7.05,-13.15 -10.22,-19.9 -2.48,-5.59 -4.84,-11.53 -4.52,-17.76 0.23,-4.5 1.56,-9.31 5.13,-12.31 z"
       id="path328"
       inkscape:connector-curvature="0"
       style="opacity:1;fill:#ea6719" />
  </g>
  <g
     id="#193755ff"
     transform="matrix(0.06835026,0,0,0.06835026,3.4956369,-0.02686568)">
    <path
       d="m 362.55,573.42 c 0.53,-1.59 1.64,-3.98 3.64,-3.76 3.24,0.55 6.46,1.32 9.76,1.45 25.01,-0.32 50.03,0.01 75.04,-0.19 4.18,-0.01 8.35,0.14 12.53,0.28 0.22,0.73 0.66,2.21 0.88,2.94 -28.2,13.53 -56.88,26.01 -85.25,39.14 -7.71,3.26 -15.06,7.41 -23.05,9.97 0.57,-10.85 2.82,-21.51 3.91,-32.3 0.81,-5.85 1.06,-11.8 2.54,-17.53 z"
       id="path331"
       inkscape:connector-curvature="0"
       style="opacity:1;fill:#193755" />
  </g>
  <g
     id="#183451ff"
     transform="matrix(0.06835026,0,0,0.06835026,3.4956369,-0.02686568)">
    <path
       d="m 18.82,576.88 c 4,-0.04 8,-0.15 12,-0.34 7.15,13.39 15.63,26 24.19,38.52 3.58,5.12 7.68,9.97 10.23,15.74 3.23,7.22 5.13,14.96 8.4,22.17 -2.99,-0.33 -6.08,-0.44 -8.88,-1.61 -2.78,-1.65 -4.13,-4.8 -5.75,-7.45 -2.02,-3.75 -3.45,-7.78 -5.46,-11.53 -1.57,-2.96 -3.71,-5.54 -5.76,-8.17 -4.47,-5.65 -8.04,-11.93 -12.23,-17.77 -6.54,-9.28 -11.98,-19.27 -16.74,-29.56 z"
       id="path334"
       inkscape:connector-curvature="0"
       style="opacity:1;fill:#183451" />
  </g>
  <g
     id="#1a3858ff"
     transform="matrix(0.06835026,0,0,0.06835026,3.4956369,-0.02686568)">
    <path
       d="m 242.67,639.55 c 3.69,-2.55 6.67,-5.97 10.13,-8.81 -3.36,5.5 -7.92,10.08 -12.12,14.93 -9.63,10.78 -20.36,20.84 -33.03,27.96 -7.93,4.19 -16.61,7.39 -25.66,7.71 -6.09,0.24 -12.28,0.2 -18.21,-1.37 -2.18,-0.49 -4.34,-1.27 -6.6,-1.26 -1.63,0.27 -3.08,1.13 -4.53,1.88 -15.73,8.94 -34.64,13.42 -52.54,9.33 -13.68,-3.04 -25.53,-12.4 -32.58,-24.39 -3.65,-6.84 -7.19,-13.91 -8.52,-21.62 1.62,2.65 2.97,5.8 5.75,7.45 2.8,1.17 5.89,1.28 8.88,1.61 3.24,6.47 6.9,13.06 12.55,17.75 8.36,6.4 18.99,9.89 29.54,9.3 11.37,-0.62 22.57,-4.11 32.35,-9.94 2.36,-1.31 4.64,-2.9 7.28,-3.62 2.1,-0.32 4.16,0.45 6.17,0.97 4.7,1.42 9.5,2.76 14.46,2.9 8.77,0.44 17.36,-2.34 25.13,-6.18 10.86,-5.6 19.83,-14.07 28.39,-22.65 4.39,-0.22 9.17,0.27 13.16,-1.95 z"
       id="path337"
       inkscape:connector-curvature="0"
       style="opacity:1;fill:#1a3858" />
  </g>
</svg>
