<?xml version="1.0" encoding="utf-8"?>
<!-- Generator: Adobe Illustrator 22.0.0, SVG Export Plug-In . SVG Version: 6.00 Build 0)  -->
<svg version="1.1" id="Camada_1" xmlns="http://www.w3.org/2000/svg" xmlns:xlink="http://www.w3.org/1999/xlink" x="0px" y="0px"
	 width="64px" height="64px" viewBox="0 0 64 64" style="enable-background:new 0 0 64 64;" xml:space="preserve">
<g>
	<g>
		<path style="fill:#BABABA;" d="M37.123,1.946c0.007,0.018,0.008,0.037,0.005,0.055c-0.092,0.005-0.184,0.013-0.276,0.013
			c-4.611,0-9.222,0-13.833,0c0.002-0.023,0.002-0.046,0-0.068C27.721,1.946,32.422,1.946,37.123,1.946z"/>
		<path style="fill:#020101;" d="M23.019,2.015c4.611,0,9.222,0.001,13.833,0c0.092,0,0.184-0.009,0.276-0.013
			c2.421,1.484,4.843,2.968,7.264,4.453c1.614,0.99,3.231,1.976,4.836,2.979c0.252,0.157,0.451,0.176,0.727,0.068
			c4.593-1.803,9.191-3.596,13.787-5.39c0.054-0.021,0.11-0.035,0.165-0.052c0.016,0.018,0.033,0.037,0.049,0.055
			c-0.62,1.186-1.237,2.373-1.862,3.556c-1.42,2.684-2.842,5.366-4.27,8.046c-0.11,0.207-0.137,0.388-0.077,0.62
			c0.327,1.251,0.63,2.509,0.952,3.761c0.061,0.238,0.042,0.424-0.1,0.64c-8.921,13.679-17.835,27.363-26.75,41.046
			c-0.056,0.085-0.116,0.168-0.187,0.269c-1.136-1.807-2.262-3.597-3.388-5.386c-3.077-4.89-6.154-9.78-9.233-14.669
			c-0.092-0.145-0.201-0.283-0.321-0.406c-3.688-3.809-7.377-7.618-11.074-11.419c-0.185-0.19-0.201-0.336-0.107-0.57
			c0.859-2.142,1.701-4.29,2.563-6.43c0.101-0.25,0.091-0.436-0.037-0.669c-3.3-6.026-6.593-12.055-9.887-18.084
			C0.128,4.325,0.08,4.226,0,4.068c0.972,0.338,1.884,0.655,2.795,0.972c4.139,1.441,8.279,2.88,12.415,4.33
			c0.266,0.093,0.427,0.058,0.627-0.144C18.225,6.817,20.624,4.417,23.019,2.015z M27.089,13.926
			c0.006-0.006,0.011-0.012,0.017-0.018c-0.005,0.006-0.01,0.013-0.016,0.019c0.023,0.022,0.045,0.045,0.068,0.067l0.027-0.015
			l-0.025,0.018c0.022,0.023,0.045,0.045,0.067,0.068l0.023-0.018l-0.021,0.021c0.021,0.023,0.042,0.046,0.064,0.069
			c0,0,0.004,0.005,0.004,0.005c0.022,0.022,0.044,0.043,0.066,0.065c0,0,0.004,0.004,0.004,0.004
			c0.023,0.021,0.046,0.043,0.07,0.064c0.007-0.004,0.014-0.008,0.021-0.012c-0.007,0.004-0.014,0.009-0.021,0.013
			c0.022,0.023,0.044,0.046,0.066,0.069l0.019-0.014l-0.016,0.017c0.022,0.022,0.045,0.044,0.067,0.066l0.017-0.011l-0.014,0.015
			c0.023,0.022,0.047,0.043,0.07,0.065c0.007-0.005,0.013-0.01,0.02-0.016c-0.006,0.005-0.013,0.011-0.019,0.016
			c0.023,0.023,0.045,0.045,0.068,0.069c0.04,0.075,0.091,0.14,0.173,0.173l0.003,0.003c0.024,0.067,0.069,0.113,0.136,0.138
			l0.001,0.001c0.034,0.036,0.068,0.071,0.101,0.107c0.007-0.007,0.014-0.014,0.022-0.02c-0.007,0.007-0.014,0.014-0.021,0.021
			c0.047,0.045,0.094,0.091,0.141,0.136c0,0,0,0,0.001,0c0.021,0.023,0.043,0.046,0.064,0.069c0,0,0.004,0.005,0.004,0.005
			c0.022,0.022,0.043,0.043,0.065,0.065l0.004,0.005c0.022,0.022,0.044,0.043,0.066,0.065l0.031-0.014l-0.03,0.016
			c0.035,0.033,0.071,0.066,0.106,0.099l0.002,0.002c0.023,0.068,0.068,0.114,0.137,0.135l0.003,0.003
			c0.033,0.035,0.066,0.071,0.099,0.106l0.021-0.024l-0.019,0.026c0.022,0.022,0.045,0.044,0.067,0.066l0.02-0.016l-0.017,0.019
			c0.021,0.023,0.042,0.046,0.063,0.069l0.005,0.005c0.022,0.022,0.043,0.043,0.065,0.065l0.005,0.005
			c0.022,0.021,0.043,0.043,0.065,0.064c0,0,0.004,0.005,0.004,0.005c0.023,0.021,0.045,0.043,0.068,0.064l0.028-0.006l-0.028,0.007
			c0.035,0.034,0.071,0.067,0.106,0.101l0.002,0.002c0.035,0.035,0.07,0.07,0.105,0.104c0,0-0.001-0.001-0.001-0.001
			c0.021,0.024,0.041,0.047,0.062,0.071l0.007,0.007c0.021,0.021,0.042,0.042,0.063,0.063c0,0,0.006,0.006,0.006,0.006
			c0.021,0.021,0.043,0.042,0.064,0.064l0.005,0.005c0.022,0.021,0.043,0.043,0.065,0.064c0,0,0.005,0.005,0.005,0.005
			c0.022,0.021,0.043,0.043,0.065,0.064l0.005,0.005c0.021,0.021,0.043,0.043,0.064,0.064l0.005,0.006
			c0.023,0.021,0.047,0.041,0.07,0.062l0.024-0.009l-0.023,0.012c0.044,0.046,0.089,0.091,0.133,0.137l0.004,0.003
			c0.021,0.022,0.042,0.045,0.063,0.067l0.006,0.006c0.021,0.021,0.043,0.043,0.064,0.064c0,0,0.005,0.006,0.005,0.006
			c0.021,0.021,0.042,0.043,0.063,0.064l0.006,0.006c0.021,0.021,0.042,0.042,0.063,0.063l0.011,0.011
			c0.001,0.021,0.011,0.031,0.032,0.029c-0.034,0.109-0.131,0.078-0.203,0.084c-0.967,0.091-1.934,0.181-2.902,0.265
			c-2.5,0.218-5.002,0.427-7.501,0.656c-0.32,0.029-0.655,0-1.022,0.123c0.131,0.051,0.204,0.083,0.28,0.108
			c4.096,1.364,8.193,2.726,12.287,4.094c0.213,0.071,0.404,0.036,0.604-0.018c0.914-0.248,1.827-0.497,2.741-0.744
			c2.163-0.584,4.325-1.17,6.491-1.745c0.288-0.076,0.291-0.154,0.111-0.37c-0.459-0.551-0.897-1.119-1.342-1.682
			c-0.359-0.454-0.715-0.91-1.08-1.375c0.117-0.047,0.178-0.01,0.243,0.013c2.114,0.74,4.228,1.481,6.345,2.214
			c0.176,0.061,0.251,0.169,0.319,0.325c0.678,1.557,1.362,3.112,2.045,4.667c0.176,0.4,0.354,0.799,0.572,1.292
			c0.024-0.157,0.036-0.201,0.036-0.245c0.002-2.315,0.001-4.63,0.006-6.946c0-0.166-0.074-0.28-0.176-0.398
			c-2.057-2.382-4.113-4.765-6.167-7.15c-0.117-0.135-0.246-0.232-0.421-0.285c-1.91-0.587-3.818-1.18-5.727-1.771
			c-0.765-0.237-1.529-0.476-2.293-0.715c0.004-0.025,0.008-0.049,0.011-0.074c2.951,0,5.902,0,8.877,0
			c-0.034-0.058-0.04-0.084-0.057-0.094c-1.66-0.984-3.321-1.966-4.983-2.949c-0.332-0.243-0.687-0.447-1.057-0.626l0.003,0.002
			c-0.143-0.149-0.312-0.213-0.523-0.213c-3.542,0.004-7.085,0.006-10.627-0.003c-0.243-0.001-0.281,0.083-0.28,0.296
			c0.006,2.558,0.004,5.117,0.005,7.675c0,0.11-0.039,0.238,0.101,0.303c0.023,0.023,0.046,0.046,0.07,0.069
			c0.027,0.065,0.069,0.115,0.138,0.137l0.001,0.001c0.034,0.035,0.068,0.071,0.102,0.106l0.019-0.022l-0.017,0.024
			c0.023,0.021,0.046,0.043,0.069,0.064c0.006-0.005,0.013-0.009,0.019-0.014c-0.006,0.005-0.012,0.01-0.018,0.016
			c0.022,0.022,0.045,0.045,0.067,0.067l0.026-0.012c0,0-0.025,0.015-0.025,0.015c0.021,0.023,0.041,0.046,0.062,0.068l0.007,0.007
			c0.021,0.021,0.042,0.042,0.062,0.062c0,0,0.007,0.007,0.007,0.007c0.021,0.021,0.042,0.042,0.063,0.063l0.007,0.007
			c0.021,0.021,0.042,0.042,0.063,0.063l0.006,0.006c0.023,0.021,0.045,0.041,0.068,0.062l0.021-0.018l-0.019,0.021
			c0.022,0.022,0.045,0.045,0.067,0.067l0.02-0.013c0,0-0.018,0.017-0.018,0.016c0.023,0.022,0.045,0.044,0.068,0.066l0.022-0.018
			l-0.02,0.02c0.022,0.022,0.045,0.044,0.067,0.067l0.024-0.014c0,0-0.022,0.017-0.022,0.017c0.021,0.023,0.042,0.045,0.062,0.068
			l0.007,0.007c0.021,0.021,0.042,0.042,0.063,0.063l0.003,0.005c0.036,0.032,0.071,0.064,0.107,0.096l0.003,0.003
			c0.033,0.036,0.066,0.071,0.099,0.107l0.017-0.02c0,0-0.014,0.022-0.014,0.022c0.022,0.022,0.044,0.043,0.065,0.065l0.004,0.005
			c0.024,0.021,0.048,0.042,0.072,0.063c0.006-0.006,0.012-0.012,0.018-0.017c-0.006,0.006-0.012,0.012-0.018,0.018
			c0.023,0.023,0.046,0.046,0.069,0.069l0.009-0.029l-0.011,0.028c0.016,0.053,0.049,0.09,0.104,0.104l0.003,0.003
			c0.032,0.036,0.065,0.072,0.097,0.108l0.014-0.014c0,0-0.01,0.017-0.01,0.017c0.022,0.021,0.043,0.043,0.065,0.064l0.005,0.005
			c0.022,0.021,0.044,0.043,0.066,0.064l0.004,0.004c0.021,0.022,0.042,0.044,0.062,0.065l0.007,0.008
			C27.043,13.885,27.066,13.906,27.089,13.926z M30.67,31.769c-0.019-0.008-0.037-0.015-0.056-0.023
			c-0.073,0.099-0.148,0.197-0.219,0.297c-1.26,1.773-2.521,3.544-3.774,5.321c-0.144,0.204-0.236,0.276-0.465,0.082
			c-0.635-0.539-1.289-1.056-1.947-1.567c-0.19-0.147-0.248-0.276-0.183-0.521c0.191-0.716,0.346-1.442,0.52-2.189
			c-0.06,0.026-0.086,0.03-0.101,0.044c-1.114,1.045-2.224,2.095-3.344,3.134c-0.169,0.156-0.083,0.239,0.026,0.357
			c0.928,1.002,1.852,2.007,2.778,3.011c2.463,2.672,4.928,5.342,7.387,8.018c0.163,0.178,0.249,0.235,0.441,0.015
			c0.555-0.637,1.14-1.247,1.713-1.868c2.809-3.045,5.617-6.092,8.432-9.133c0.165-0.178,0.206-0.273,0.001-0.46
			c-0.854-0.78-1.69-1.581-2.533-2.374c-0.263-0.247-0.529-0.491-0.793-0.737c0.118,0.767,0.282,1.497,0.466,2.223
			c0.049,0.194,0.027,0.309-0.138,0.438c-0.676,0.526-1.344,1.061-2.002,1.609c-0.198,0.165-0.288,0.162-0.444-0.06
			c-1.264-1.798-2.543-3.586-3.817-5.377c-0.068-0.095-0.121-0.206-0.259-0.277c0.467,2.673,0.926,5.314,1.394,7.952
			c0.03,0.171-0.001,0.278-0.121,0.396c-0.652,0.641-1.301,1.285-1.94,1.94c-0.14,0.143-0.214,0.137-0.35-0.001
			c-0.639-0.654-1.287-1.3-1.938-1.941c-0.122-0.12-0.15-0.238-0.121-0.402c0.336-1.877,0.667-3.755,0.996-5.632
			C30.414,33.287,30.541,32.527,30.67,31.769z M19.392,39.886c0.051-0.218-0.086-0.319-0.168-0.436
			c-2.283-3.245-4.566-6.489-6.859-9.727c-0.14-0.197-0.148-0.345-0.043-0.555c1.031-2.067,2.049-4.141,3.08-6.208
			c0.098-0.196,0.108-0.335-0.007-0.535c-1.782-3.108-3.552-6.222-5.325-9.334c-0.118-0.207-0.23-0.416-0.374-0.675
			c3.413,0.356,6.762,0.704,10.112,1.053c0.006-0.021,0.011-0.042,0.017-0.063C14.65,11.601,9.476,9.797,4.235,7.969
			C4.33,8.144,4.383,8.246,4.44,8.346c2.703,4.791,5.404,9.582,8.115,14.368c0.131,0.231,0.13,0.397,0.013,0.629
			c-0.988,1.959-1.961,3.927-2.944,5.889c-0.088,0.176-0.101,0.292,0.051,0.452C12.912,33.073,16.141,36.47,19.392,39.886z
			 M45.664,36.987c-0.213-0.032-0.25,0.088-0.311,0.159c-2.204,2.531-4.406,5.063-6.607,7.596c-2.353,2.708-4.708,5.414-7.054,8.128
			c-0.154,0.178-0.229,0.155-0.364,0.001c-0.199-0.225-0.417-0.434-0.627-0.649c-2.835-2.91-5.669-5.821-8.506-8.728
			c-0.09-0.092-0.155-0.264-0.355-0.184c3.225,5.143,6.441,10.271,9.678,15.433C36.244,51.475,40.944,44.247,45.664,36.987z
			 M33.72,25.174c0.091,0.146,0.162,0.264,0.237,0.379c1.002,1.554,2.009,3.105,3.002,4.665c0.133,0.209,0.285,0.335,0.522,0.405
			c1.804,0.529,3.603,1.073,5.408,1.6c0.289,0.084,0.571,0.227,0.964,0.215c-1.093-1.108-2.139-2.169-3.214-3.259
			c0.163-0.064,0.268-0.107,0.374-0.147c1.143-0.435,2.284-0.874,3.43-1.3c0.205-0.076,0.257-0.143,0.163-0.362
			c-0.685-1.589-1.364-3.181-2.022-4.782c-0.122-0.298-0.223-0.359-0.538-0.25c-1.949,0.678-3.908,1.33-5.863,1.992
			C35.37,24.605,34.557,24.886,33.72,25.174z M29.747,25.193c-0.054-0.028-0.082-0.048-0.114-0.059
			c-2.797-0.951-5.594-1.898-8.388-2.857c-0.21-0.072-0.237,0.043-0.291,0.171c-0.697,1.648-1.39,3.297-2.096,4.942
			c-0.091,0.212-0.019,0.269,0.165,0.335c0.554,0.199,1.102,0.414,1.652,0.624c0.708,0.27,1.415,0.542,2.231,0.854
			c-1.141,1.099-2.223,2.141-3.342,3.219c0.221,0.044,0.34,0.001,0.463-0.036c2.012-0.6,4.023-1.199,6.038-1.79
			c0.18-0.053,0.299-0.14,0.399-0.296c0.702-1.102,1.41-2.2,2.118-3.299C28.968,26.399,29.357,25.798,29.747,25.193z M54.603,12.324
			c-0.525,0.966-1.01,1.871-1.51,2.768c-0.093,0.167-0.105,0.312-0.046,0.486c0.414,1.224,0.82,2.451,1.238,3.674
			c0.06,0.176,0.055,0.322-0.02,0.492c-1.497,3.39-2.99,6.782-4.483,10.174c-0.348,0.792-0.692,1.586-1.044,2.391
			c0.193,0.019,0.211-0.123,0.267-0.212c0.28-0.439,0.554-0.881,0.83-1.322c2.214-3.539,4.425-7.078,6.645-10.613
			c0.136-0.216,0.163-0.402,0.089-0.645c-0.327-1.082-0.634-2.17-0.954-3.255c-0.054-0.184-0.055-0.338,0.045-0.52
			c1.298-2.357,2.586-4.72,3.875-7.082c0.101-0.184,0.196-0.371,0.333-0.63c-3.897,1.518-7.71,3.003-11.522,4.488
			c0.007,0.023,0.014,0.046,0.021,0.069C50.425,12.5,52.481,12.414,54.603,12.324z"/>
		<path style="fill:#020101;" d="M63.908,4.061c0.028-0.004,0.07-0.021,0.08-0.01c0.027,0.03,0.001,0.053-0.031,0.065
			C63.941,4.097,63.925,4.079,63.908,4.061z"/>
		<path style="fill:#FDF103;" d="M37.417,4.444c1.661,0.982,3.322,1.965,4.983,2.949c0.016,0.01,0.023,0.036,0.057,0.094
			c-2.974,0-5.926,0-8.877,0c-0.004,0.025-0.008,0.049-0.011,0.074c0.764,0.238,1.528,0.478,2.293,0.715
			c1.909,0.592,3.817,1.184,5.727,1.771c0.175,0.054,0.304,0.15,0.421,0.285c2.054,2.385,4.11,4.768,6.167,7.15
			c0.102,0.118,0.176,0.232,0.176,0.398c-0.004,2.315-0.004,4.63-0.006,6.946c0,0.044-0.012,0.088-0.036,0.245
			c-0.218-0.493-0.397-0.892-0.572-1.292c-0.683-1.555-1.367-3.109-2.045-4.667c-0.068-0.156-0.143-0.265-0.319-0.325
			c-2.117-0.732-4.23-1.474-6.345-2.214c-0.065-0.023-0.126-0.06-0.243-0.013c0.365,0.465,0.721,0.921,1.08,1.375
			c0.445,0.563,0.883,1.131,1.342,1.682c0.18,0.215,0.176,0.293-0.111,0.37c-2.166,0.574-4.328,1.161-6.491,1.745
			c-0.914,0.247-1.828,0.496-2.741,0.744c-0.199,0.054-0.391,0.09-0.604,0.018c-4.094-1.368-8.191-2.73-12.287-4.094
			c-0.076-0.025-0.15-0.057-0.28-0.108c0.367-0.123,0.702-0.094,1.022-0.123c2.499-0.229,5.001-0.438,7.501-0.656
			c0.968-0.084,1.935-0.175,2.902-0.265c0.073-0.007,0.17,0.024,0.203-0.084c0.006-0.015,0.011-0.03,0.017-0.046
			c-0.017,0.006-0.033,0.011-0.05,0.017c0,0-0.011-0.011-0.011-0.011c0.013-0.054-0.008-0.075-0.063-0.063
			c0,0-0.006-0.006-0.006-0.006C30.221,17,30.2,16.978,30.146,16.99c0,0-0.005-0.006-0.005-0.006
			c0.011-0.054-0.01-0.075-0.064-0.064c0,0-0.006-0.006-0.006-0.006c0.012-0.053-0.01-0.075-0.063-0.067
			c0,0-0.004-0.003-0.004-0.003c0.033-0.121-0.007-0.171-0.133-0.137l0.023-0.012c0,0-0.024,0.009-0.024,0.009
			c0.006-0.054-0.017-0.075-0.07-0.062c0,0-0.005-0.006-0.005-0.006c0.011-0.054-0.011-0.075-0.064-0.064
			c0,0-0.005-0.005-0.005-0.005c0.01-0.054-0.011-0.075-0.065-0.064c0,0-0.005-0.005-0.005-0.005
			c0.01-0.054-0.011-0.075-0.065-0.064c0,0-0.005-0.005-0.005-0.005c0.011-0.054-0.01-0.075-0.064-0.063
			c0,0-0.006-0.006-0.006-0.006c0.011-0.054-0.01-0.075-0.063-0.063c0,0-0.007-0.007-0.007-0.007
			c0.013-0.053-0.008-0.076-0.062-0.071c0,0,0.001,0.001,0.001,0.001c0.014-0.084-0.04-0.099-0.105-0.104
			c0,0-0.002-0.002-0.002-0.002c-0.007-0.064-0.022-0.119-0.106-0.101l0.028-0.007c0,0-0.028,0.006-0.028,0.006
			c0.008-0.054-0.014-0.076-0.068-0.064c0,0-0.004-0.005-0.004-0.005c0.011-0.055-0.011-0.076-0.065-0.064
			c0,0-0.005-0.005-0.005-0.005c0.011-0.055-0.01-0.076-0.065-0.064c0,0-0.005-0.005-0.005-0.006
			c0.012-0.053-0.009-0.076-0.063-0.068l0.017-0.019c0,0-0.02,0.016-0.02,0.016c0.008-0.053-0.014-0.076-0.067-0.066l0.019-0.026
			c0,0-0.021,0.024-0.021,0.024c0.019-0.084-0.036-0.099-0.099-0.106c0,0-0.003-0.003-0.003-0.003
			c-0.005-0.087-0.051-0.131-0.137-0.135c0,0-0.002-0.002-0.002-0.002c-0.008-0.063-0.023-0.118-0.106-0.099l0.03-0.016
			c0,0-0.031,0.014-0.031,0.014c0.01-0.054-0.012-0.076-0.066-0.065c0,0-0.004-0.005-0.004-0.005
			c0.01-0.054-0.012-0.075-0.065-0.065c0,0-0.004-0.005-0.004-0.005c0.011-0.053-0.011-0.076-0.064-0.069c0,0,0,0,0,0
			c0.011-0.106-0.034-0.153-0.141-0.136c0.007-0.007,0.014-0.014,0.021-0.021c-0.007,0.007-0.014,0.014-0.022,0.02
			c0.018-0.085-0.038-0.1-0.101-0.107c0,0-0.001-0.001-0.001-0.001c-0.003-0.088-0.049-0.134-0.136-0.138
			c0,0-0.003-0.003-0.003-0.003c-0.013-0.102-0.044-0.186-0.173-0.173c0.008-0.054-0.014-0.076-0.068-0.068
			c0.006-0.005,0.013-0.011,0.019-0.016c-0.007,0.005-0.013,0.01-0.02,0.015c0.006-0.054-0.017-0.075-0.07-0.065l0.014-0.015
			c0,0-0.017,0.011-0.017,0.011c0.009-0.054-0.013-0.076-0.067-0.066l0.016-0.017c0,0-0.019,0.014-0.019,0.014
			c0.009-0.053-0.013-0.076-0.067-0.069c0.007-0.004,0.014-0.009,0.021-0.013c-0.007,0.004-0.014,0.008-0.021,0.012
			c0.006-0.054-0.016-0.076-0.07-0.064c0,0-0.004-0.004-0.004-0.004c0.01-0.054-0.011-0.076-0.066-0.065
			c0,0-0.004-0.005-0.004-0.005c0.012-0.053-0.01-0.076-0.064-0.069l0.021-0.021c0,0-0.023,0.018-0.023,0.018
			c0.008-0.053-0.014-0.076-0.067-0.067l0.025-0.018c0,0-0.027,0.015-0.027,0.015c0.009-0.054-0.014-0.076-0.068-0.067
			c0.005-0.006,0.01-0.013,0.016-0.019c-0.006,0.006-0.011,0.012-0.017,0.018c0.006-0.054-0.016-0.075-0.07-0.061
			c0,0-0.007-0.008-0.007-0.008c0.013-0.054-0.009-0.075-0.063-0.065c0,0-0.004-0.004-0.004-0.004
			c0.009-0.054-0.012-0.075-0.066-0.064c0,0-0.005-0.005-0.005-0.005c0.011-0.054-0.011-0.075-0.065-0.064l0.01-0.017
			c0,0-0.014,0.014-0.013,0.014c0.021-0.084-0.034-0.1-0.097-0.107c0,0-0.003-0.003-0.003-0.003
			c-0.007-0.063-0.022-0.116-0.104-0.104l0.011-0.028c0,0-0.009,0.029-0.009,0.029c0.007-0.053-0.016-0.076-0.069-0.069
			c0.006-0.006,0.012-0.012,0.018-0.018c-0.006,0.006-0.012,0.012-0.018,0.017c0.005-0.054-0.019-0.075-0.072-0.063
			c0,0-0.004-0.005-0.004-0.005c0.01-0.054-0.011-0.076-0.065-0.065l0.014-0.022c0,0-0.017,0.02-0.017,0.019
			c0.02-0.084-0.035-0.1-0.099-0.107c0,0-0.003-0.003-0.003-0.003c-0.008-0.063-0.023-0.118-0.107-0.096
			c0,0-0.003-0.005-0.003-0.005c0.011-0.054-0.009-0.075-0.063-0.063c0,0-0.007-0.007-0.007-0.007
			c0.013-0.053-0.009-0.076-0.062-0.068l0.022-0.017c0,0-0.024,0.014-0.024,0.014c0.009-0.054-0.013-0.076-0.067-0.067l0.02-0.02
			c0,0-0.022,0.018-0.022,0.018c0.008-0.053-0.015-0.075-0.068-0.066l0.018-0.017c0,0-0.02,0.013-0.02,0.013
			c0.008-0.053-0.014-0.076-0.067-0.067l0.019-0.021c0,0-0.021,0.018-0.021,0.018c0.007-0.053-0.015-0.075-0.068-0.062
			c0,0-0.006-0.006-0.006-0.006c0.011-0.054-0.009-0.075-0.063-0.063c0,0-0.007-0.007-0.007-0.007
			c0.012-0.054-0.009-0.075-0.063-0.063c0,0-0.007-0.007-0.007-0.007c0.012-0.054-0.009-0.075-0.062-0.062
			c0,0-0.007-0.007-0.007-0.007c0.013-0.054-0.008-0.076-0.062-0.068l0.025-0.015c0,0-0.026,0.012-0.026,0.012
			c0.009-0.054-0.014-0.076-0.067-0.067c0.006-0.005,0.012-0.01,0.018-0.016c-0.006,0.005-0.013,0.009-0.019,0.014
			c0.007-0.054-0.016-0.076-0.069-0.064l0.017-0.024c0,0-0.019,0.022-0.019,0.022c0.018-0.085-0.038-0.1-0.102-0.106
			c0,0-0.001-0.001-0.001-0.001c-0.003-0.089-0.049-0.135-0.138-0.137c-0.023-0.023-0.046-0.046-0.07-0.069
			c-0.002-2.602,0.003-5.204-0.013-7.806c-0.002-0.334,0.108-0.397,0.413-0.396c2.66,0.011,5.32-0.009,7.979,0.014
			c0.982,0.009,1.974-0.146,2.945,0.13c0,0-0.003-0.002-0.003-0.002C36.629,4.168,37.014,4.322,37.417,4.444z"/>
		<path style="fill:#FBF005;" d="M30.67,31.769c-0.13,0.759-0.257,1.518-0.39,2.276c-0.33,1.878-0.661,3.756-0.996,5.632
			c-0.029,0.164-0.001,0.281,0.121,0.402c0.652,0.641,1.299,1.287,1.938,1.941c0.135,0.138,0.21,0.145,0.35,0.001
			c0.639-0.654,1.288-1.299,1.94-1.94c0.12-0.118,0.151-0.224,0.121-0.396c-0.469-2.639-0.928-5.279-1.394-7.952
			c0.138,0.071,0.191,0.182,0.259,0.277c1.275,1.791,2.554,3.578,3.817,5.377c0.156,0.222,0.246,0.224,0.444,0.06
			c0.658-0.548,1.326-1.083,2.002-1.609c0.165-0.129,0.188-0.244,0.138-0.438c-0.184-0.725-0.348-1.456-0.466-2.223
			c0.264,0.246,0.53,0.49,0.793,0.737c0.843,0.793,1.679,1.594,2.533,2.374c0.205,0.187,0.164,0.282-0.001,0.46
			c-2.815,3.041-5.622,6.087-8.432,9.133c-0.573,0.621-1.158,1.231-1.713,1.868c-0.192,0.22-0.278,0.163-0.441-0.015
			c-2.459-2.676-4.924-5.346-7.387-8.018c-0.926-1.004-1.85-2.009-2.778-3.011c-0.109-0.118-0.194-0.201-0.026-0.357
			c1.12-1.039,2.23-2.089,3.344-3.134c0.016-0.015,0.041-0.019,0.101-0.044c-0.175,0.747-0.329,1.472-0.52,2.189
			c-0.066,0.245-0.007,0.374,0.183,0.521c0.658,0.51,1.312,1.028,1.947,1.567c0.228,0.194,0.321,0.122,0.465-0.082
			c1.253-1.777,2.515-3.548,3.774-5.321c0.071-0.1,0.146-0.198,0.219-0.297C30.633,31.753,30.652,31.761,30.67,31.769z"/>
		<path style="fill:#FBFBFB;" d="M19.392,39.886c-3.251-3.416-6.481-6.813-9.717-10.203c-0.153-0.16-0.139-0.277-0.051-0.452
			c0.983-1.962,1.955-3.929,2.944-5.889c0.117-0.232,0.117-0.398-0.013-0.629C9.843,17.928,7.142,13.137,4.44,8.346
			c-0.056-0.1-0.11-0.202-0.205-0.377c5.241,1.828,10.415,3.632,15.59,5.437c-0.006,0.021-0.011,0.042-0.017,0.063
			c-3.349-0.349-6.699-0.698-10.112-1.053c0.143,0.259,0.256,0.469,0.374,0.675c1.773,3.113,3.544,6.227,5.325,9.334
			c0.115,0.2,0.105,0.34,0.007,0.535c-1.031,2.067-2.049,4.14-3.08,6.208c-0.105,0.211-0.097,0.358,0.043,0.555
			c2.292,3.238,4.576,6.482,6.859,9.727C19.307,39.567,19.443,39.668,19.392,39.886z"/>
		<path style="fill:#FBFBFB;" d="M45.664,36.987c-4.72,7.259-9.419,14.488-14.144,21.756c-3.237-5.162-6.453-10.29-9.678-15.433
			c0.201-0.08,0.265,0.092,0.355,0.184c2.837,2.908,5.671,5.818,8.506,8.728c0.21,0.216,0.428,0.424,0.627,0.649
			c0.135,0.153,0.21,0.177,0.364-0.001c2.346-2.714,4.7-5.42,7.054-8.128c2.201-2.533,4.403-5.066,6.607-7.596
			C45.414,37.076,45.451,36.955,45.664,36.987z"/>
		<path style="fill:#FCFCFC;" d="M33.72,25.174c0.837-0.287,1.65-0.568,2.465-0.845c1.955-0.663,3.913-1.314,5.863-1.992
			c0.314-0.109,0.415-0.048,0.538,0.25c0.657,1.601,1.337,3.192,2.022,4.782c0.094,0.219,0.042,0.286-0.163,0.362
			c-1.146,0.426-2.288,0.865-3.43,1.3c-0.106,0.04-0.211,0.083-0.374,0.147c1.074,1.09,2.121,2.151,3.214,3.259
			c-0.393,0.013-0.675-0.13-0.964-0.215c-1.805-0.526-3.604-1.071-5.408-1.6c-0.237-0.07-0.389-0.196-0.522-0.405
			c-0.993-1.56-2-3.111-3.002-4.665C33.882,25.437,33.81,25.319,33.72,25.174z"/>
		<path style="fill:#FCFCFC;" d="M29.747,25.193c-0.39,0.605-0.779,1.206-1.166,1.808c-0.707,1.099-1.416,2.196-2.118,3.299
			c-0.1,0.156-0.218,0.243-0.399,0.296c-2.014,0.591-4.026,1.19-6.038,1.79c-0.123,0.037-0.242,0.08-0.463,0.036
			c1.119-1.078,2.201-2.12,3.342-3.219c-0.817-0.313-1.524-0.584-2.231-0.854c-0.55-0.21-1.098-0.425-1.652-0.624
			c-0.184-0.066-0.256-0.123-0.165-0.335c0.705-1.644,1.398-3.294,2.096-4.942c0.054-0.127,0.082-0.243,0.291-0.171
			c2.794,0.959,5.592,1.906,8.388,2.857C29.665,25.145,29.694,25.165,29.747,25.193z"/>
		<path style="fill:#FAFAFA;" d="M54.603,12.324c-2.121,0.09-4.178,0.176-6.235,0.263c-0.007-0.023-0.014-0.046-0.021-0.069
			c3.813-1.485,7.626-2.971,11.522-4.488c-0.137,0.259-0.232,0.446-0.333,0.63c-1.29,2.362-2.578,4.725-3.875,7.082
			c-0.1,0.182-0.099,0.336-0.045,0.52c0.32,1.084,0.627,2.173,0.954,3.255c0.073,0.243,0.047,0.429-0.089,0.645
			c-2.22,3.535-4.432,7.074-6.645,10.613c-0.276,0.441-0.55,0.883-0.83,1.322c-0.057,0.089-0.075,0.231-0.267,0.212
			c0.351-0.805,0.695-1.599,1.044-2.391c1.492-3.392,2.985-6.784,4.483-10.174c0.075-0.17,0.081-0.315,0.02-0.492
			c-0.418-1.223-0.824-2.45-1.238-3.674c-0.059-0.174-0.047-0.318,0.046-0.486C53.592,14.195,54.077,13.291,54.603,12.324z"/>
		<path style="fill:#E5DD2D;" d="M36.363,3.821c-0.971-0.276-1.964-0.121-2.945-0.13c-2.66-0.024-5.32-0.004-7.979-0.014
			c-0.305-0.001-0.415,0.062-0.413,0.396c0.016,2.602,0.012,5.204,0.013,7.806c-0.14-0.065-0.101-0.193-0.101-0.303
			c-0.001-2.558,0.001-5.117-0.005-7.675c-0.001-0.213,0.038-0.297,0.28-0.296c3.542,0.009,7.085,0.007,10.627,0.003
			C36.051,3.607,36.22,3.672,36.363,3.821z"/>
		<path style="fill:#E5DD2D;" d="M37.417,4.444c-0.403-0.123-0.788-0.277-1.057-0.626C36.73,3.997,37.085,4.202,37.417,4.444z"/>
		<path style="fill:#E5DD2D;" d="M29.871,16.707c0.126-0.034,0.166,0.015,0.133,0.137C29.959,16.798,29.915,16.753,29.871,16.707z"
			/>
		<path style="fill:#E5DD2D;" d="M27.714,14.551c0.129-0.014,0.16,0.071,0.173,0.173C27.805,14.69,27.755,14.625,27.714,14.551z"/>
		<path style="fill:#E5DD2D;" d="M25.109,11.947c0.089,0.003,0.135,0.049,0.138,0.137C25.178,12.062,25.135,12.013,25.109,11.947z"
			/>
		<path style="fill:#E5DD2D;" d="M27.89,14.726c0.088,0.004,0.133,0.05,0.136,0.138C27.959,14.839,27.914,14.793,27.89,14.726z"/>
		<path style="fill:#E5DD2D;" d="M28.129,14.972c0.107-0.016,0.152,0.031,0.141,0.136C28.223,15.063,28.176,15.017,28.129,14.972z"
			/>
		<path style="fill:#E5DD2D;" d="M28.585,15.42c0.086,0.004,0.132,0.049,0.137,0.135C28.653,15.534,28.608,15.489,28.585,15.42z"/>
		<path style="fill:#E5DD2D;" d="M26.183,13.028c0.084-0.022,0.099,0.033,0.107,0.096C26.254,13.093,26.218,13.061,26.183,13.028z"
			/>
		<path style="fill:#E5DD2D;" d="M25.248,12.086c0.064,0.007,0.12,0.021,0.102,0.106C25.316,12.157,25.282,12.122,25.248,12.086z"/>
		<path style="fill:#E5DD2D;" d="M28.028,14.865c0.064,0.007,0.12,0.022,0.101,0.107C28.095,14.936,28.062,14.9,28.028,14.865z"/>
		<path style="fill:#E5DD2D;" d="M26.292,13.127c0.063,0.007,0.119,0.023,0.099,0.107C26.358,13.199,26.325,13.163,26.292,13.127z"
			/>
		<path style="fill:#E5DD2D;" d="M26.603,13.437c0.082-0.013,0.097,0.041,0.104,0.104C26.651,13.528,26.619,13.49,26.603,13.437z"/>
		<path style="fill:#E5DD2D;" d="M26.71,13.544c0.063,0.008,0.118,0.024,0.097,0.107C26.775,13.616,26.742,13.58,26.71,13.544z"/>
		<path style="fill:#E5DD2D;" d="M28.476,15.319c0.084-0.019,0.099,0.036,0.106,0.099C28.547,15.385,28.512,15.352,28.476,15.319z"
			/>
		<path style="fill:#E5DD2D;" d="M28.725,15.558c0.063,0.007,0.119,0.021,0.099,0.106C28.791,15.629,28.758,15.594,28.725,15.558z"
			/>
		<path style="fill:#E5DD2D;" d="M29.171,16.012c0.084-0.018,0.1,0.037,0.106,0.101C29.242,16.08,29.206,16.046,29.171,16.012z"/>
		<path style="fill:#E5DD2D;" d="M29.279,16.115c0.065,0.005,0.119,0.02,0.105,0.104C29.349,16.185,29.314,16.15,29.279,16.115z"/>
		<path style="fill:#E5DD2D;" d="M25.63,12.475c0.054-0.012,0.074,0.009,0.063,0.063C25.672,12.517,25.651,12.496,25.63,12.475z"/>
		<path style="fill:#E5DD2D;" d="M25.769,12.614c0.053-0.013,0.075,0.009,0.068,0.062C25.814,12.655,25.792,12.634,25.769,12.614z"
			/>
		<path style="fill:#E5DD2D;" d="M25.839,12.678c0.053-0.009,0.075,0.014,0.067,0.067C25.884,12.723,25.862,12.7,25.839,12.678z"/>
		<path style="fill:#E5DD2D;" d="M25.909,12.748c0.053-0.009,0.076,0.013,0.068,0.066C25.954,12.792,25.931,12.77,25.909,12.748z"/>
		<path style="fill:#E5DD2D;" d="M25.979,12.817c0.054-0.01,0.076,0.013,0.067,0.067C26.023,12.861,26.001,12.839,25.979,12.817z"/>
		<path style="fill:#E5DD2D;" d="M26.048,12.886c0.054-0.008,0.075,0.015,0.062,0.068C26.089,12.931,26.068,12.909,26.048,12.886z"
			/>
		<path style="fill:#E5DD2D;" d="M26.117,12.961c0.054-0.012,0.075,0.009,0.063,0.063C26.159,13.003,26.138,12.982,26.117,12.961z"
			/>
		<path style="fill:#E5DD2D;" d="M25.7,12.544c0.054-0.012,0.075,0.009,0.063,0.063C25.742,12.586,25.721,12.565,25.7,12.544z"/>
		<path style="fill:#E5DD2D;" d="M26.394,13.237c0.054-0.011,0.076,0.011,0.065,0.065C26.438,13.28,26.416,13.258,26.394,13.237z"/>
		<path style="fill:#E5DD2D;" d="M26.464,13.306c0.053-0.012,0.076,0.009,0.072,0.063C26.512,13.348,26.488,13.327,26.464,13.306z"
			/>
		<path style="fill:#E5DD2D;" d="M26.536,13.369c0.053-0.008,0.076,0.015,0.069,0.069C26.582,13.415,26.559,13.392,26.536,13.369z"
			/>
		<path style="fill:#E5DD2D;" d="M26.811,13.655c0.054-0.011,0.075,0.01,0.065,0.064C26.854,13.697,26.832,13.676,26.811,13.655z"/>
		<path style="fill:#E5DD2D;" d="M26.881,13.724c0.054-0.012,0.075,0.01,0.066,0.064C26.925,13.767,26.903,13.745,26.881,13.724z"/>
		<path style="fill:#E5DD2D;" d="M26.95,13.792c0.054-0.01,0.075,0.011,0.063,0.065C26.992,13.836,26.971,13.814,26.95,13.792z"/>
		<path style="fill:#E5DD2D;" d="M27.367,14.21c0.053-0.012,0.076,0.01,0.07,0.064C27.413,14.252,27.39,14.231,27.367,14.21z"/>
		<path style="fill:#E5DD2D;" d="M27.506,14.347c0.054-0.01,0.076,0.012,0.067,0.066C27.551,14.391,27.529,14.369,27.506,14.347z"/>
		<path style="fill:#E5DD2D;" d="M27.576,14.416c0.053-0.011,0.076,0.011,0.07,0.065C27.623,14.459,27.599,14.438,27.576,14.416z"/>
		<path style="fill:#E5DD2D;" d="M28.271,15.108c0.054-0.007,0.075,0.015,0.064,0.069C28.314,15.154,28.292,15.131,28.271,15.108z"
			/>
		<path style="fill:#E5DD2D;" d="M28.34,15.182c0.054-0.011,0.075,0.011,0.065,0.065C28.383,15.225,28.362,15.204,28.34,15.182z"/>
		<path style="fill:#E5DD2D;" d="M28.409,15.252c0.054-0.011,0.075,0.011,0.066,0.065C28.453,15.295,28.431,15.273,28.409,15.252z"
			/>
		<path style="fill:#E5DD2D;" d="M25.352,12.195c0.053-0.012,0.076,0.01,0.069,0.064C25.398,12.237,25.375,12.216,25.352,12.195z"/>
		<path style="fill:#E5DD2D;" d="M27.647,14.482c0.053-0.008,0.076,0.015,0.068,0.068C27.692,14.527,27.67,14.505,27.647,14.482z"/>
		<path style="fill:#E5DD2D;" d="M25.423,12.26c0.054-0.009,0.076,0.014,0.067,0.067C25.468,12.305,25.445,12.283,25.423,12.26z"/>
		<path style="fill:#E5DD2D;" d="M28.827,15.666c0.053-0.009,0.075,0.013,0.067,0.066C28.872,15.71,28.849,15.688,28.827,15.666z"/>
		<path style="fill:#E5DD2D;" d="M28.897,15.735c0.054-0.008,0.075,0.015,0.063,0.068C28.938,15.78,28.918,15.758,28.897,15.735z"/>
		<path style="fill:#E5DD2D;" d="M28.964,15.809c0.055-0.012,0.076,0.01,0.065,0.064C29.007,15.852,28.986,15.83,28.964,15.809z"/>
		<path style="fill:#E5DD2D;" d="M29.034,15.878c0.054-0.012,0.076,0.01,0.065,0.064C29.077,15.921,29.056,15.9,29.034,15.878z"/>
		<path style="fill:#E5DD2D;" d="M29.104,15.947c0.054-0.012,0.076,0.01,0.068,0.064C29.149,15.99,29.126,15.968,29.104,15.947z"/>
		<path style="fill:#E5DD2D;" d="M25.492,12.33c0.054-0.008,0.075,0.015,0.062,0.068C25.533,12.376,25.512,12.353,25.492,12.33z"/>
		<path style="fill:#E5DD2D;" d="M27.297,14.14c0.054-0.011,0.076,0.011,0.066,0.065C27.341,14.184,27.319,14.162,27.297,14.14z"/>
		<path style="fill:#E5DD2D;" d="M29.383,16.218c0.054-0.005,0.075,0.017,0.062,0.071C29.424,16.265,29.404,16.242,29.383,16.218z"
			/>
		<path style="fill:#E5DD2D;" d="M29.452,16.296c0.054-0.012,0.075,0.009,0.063,0.063C29.494,16.338,29.473,16.317,29.452,16.296z"
			/>
		<path style="fill:#E5DD2D;" d="M29.521,16.365c0.054-0.012,0.075,0.01,0.064,0.063C29.564,16.407,29.542,16.386,29.521,16.365z"/>
		<path style="fill:#E5DD2D;" d="M25.561,12.406c0.054-0.013,0.074,0.009,0.062,0.062C25.602,12.447,25.582,12.426,25.561,12.406z"
			/>
		<path style="fill:#E5DD2D;" d="M29.66,16.503c0.054-0.011,0.075,0.01,0.065,0.064C29.703,16.546,29.681,16.524,29.66,16.503z"/>
		<path style="fill:#E5DD2D;" d="M29.73,16.572c0.054-0.011,0.075,0.01,0.064,0.064C29.772,16.615,29.751,16.594,29.73,16.572z"/>
		<path style="fill:#E5DD2D;" d="M27.229,14.067c0.054-0.007,0.075,0.015,0.064,0.069C27.271,14.113,27.25,14.09,27.229,14.067z"/>
		<path style="fill:#E5DD2D;" d="M29.799,16.642c0.053-0.013,0.076,0.008,0.07,0.062C29.846,16.684,29.823,16.663,29.799,16.642z"/>
		<path style="fill:#E5DD2D;" d="M27.437,14.275c0.053-0.007,0.076,0.015,0.067,0.069C27.481,14.321,27.459,14.298,27.437,14.275z"
			/>
		<path style="fill:#E5DD2D;" d="M30.008,16.847c0.053-0.008,0.075,0.014,0.063,0.067C30.05,16.892,30.029,16.869,30.008,16.847z"/>
		<path style="fill:#E5DD2D;" d="M29.59,16.434c0.054-0.012,0.075,0.01,0.065,0.064C29.633,16.476,29.612,16.455,29.59,16.434z"/>
		<path style="fill:#E5DD2D;" d="M30.146,16.99c0.054-0.011,0.075,0.01,0.063,0.064C30.188,17.032,30.167,17.011,30.146,16.99z"/>
		<path style="fill:#E5DD2D;" d="M30.215,17.06c0.054-0.012,0.075,0.009,0.063,0.063C30.257,17.102,30.236,17.081,30.215,17.06z"/>
		<path style="fill:#E5DD2D;" d="M30.289,17.134c0.017-0.006,0.033-0.011,0.05-0.017c-0.006,0.015-0.011,0.03-0.017,0.046
			C30.3,17.165,30.29,17.155,30.289,17.134z"/>
		<path style="fill:#E5DD2D;" d="M27.16,13.997c0.053-0.008,0.075,0.015,0.067,0.067C27.205,14.042,27.182,14.02,27.16,13.997z"/>
		<path style="fill:#E5DD2D;" d="M27.091,13.927c0.054-0.009,0.076,0.014,0.068,0.067C27.136,13.972,27.113,13.95,27.091,13.927z"/>
		<path style="fill:#E5DD2D;" d="M27.02,13.865c0.053-0.014,0.076,0.007,0.07,0.061C27.066,13.906,27.043,13.885,27.02,13.865z"/>
		<path style="fill:#E5DD2D;" d="M30.077,16.92c0.054-0.012,0.075,0.01,0.064,0.064C30.119,16.963,30.098,16.942,30.077,16.92z"/>
	</g>
</g>
</svg>
