<?xml version="1.0" encoding="utf-8"?>
<!-- Generator: Adobe Illustrator 23.0.2, SVG Export Plug-In . SVG Version: 6.00 Build 0)  -->
<svg version="1.1" id="Layer_1" xmlns="http://www.w3.org/2000/svg" xmlns:xlink="http://www.w3.org/1999/xlink" x="0px" y="0px"
	 width="64px" height="64px" viewBox="0 0 64 64" enable-background="new 0 0 64 64" xml:space="preserve">
<g>
	<g>
		<g>
			<path fill="#FFFFFF" d="M30.737,0h2.683c0.807,0.023,1.611,0.105,2.402,0.281c0.686,0.15,1.369,0.343,2.003,0.654
				c0.824,0.376,1.569,0.912,2.213,1.549c0.712,0.732,1.291,1.595,1.726,2.52c0.729,1.559,1.108,3.249,1.422,4.932
				c0.141,0.755,0.255,1.52,0.392,2.275c0.183,0.144,0.363,0.294,0.556,0.428c0.68,0.559,1.333,1.15,1.945,1.784
				c0.124,0.111,0.239,0.232,0.34,0.366c0.193,0.199,0.386,0.402,0.556,0.624c0.222,0.252,0.431,0.51,0.637,0.775
				c0.183,0.203,0.324,0.438,0.5,0.647c0.386,0.526,0.748,1.069,1.085,1.624c0.618,0.291,1.226,0.621,1.765,1.046
				c0.49,0.373,0.912,0.84,1.183,1.396c0.049,0.085,0.052,0.206,0.147,0.252c0.588,0.333,1.147,0.732,1.605,1.232
				c0.304,0.35,0.575,0.735,0.762,1.164c0.121,0.284,0.186,0.588,0.248,0.892c0.395,0.444,0.762,0.918,1.046,1.441
				c0.31,0.569,0.484,1.206,0.552,1.847v0.216c-0.029,0.144-0.042,0.304-0.137,0.422c-0.101,0.141-0.252,0.229-0.379,0.343
				c-1.435,1.16-2.863,2.327-4.301,3.481c-0.046,0.033-0.082,0.082-0.072,0.137c0.003,4.739-0.007,9.478,0.007,14.217
				c0.003,0.219,0.007,0.444-0.085,0.647c-0.114,0.222-0.369,0.33-0.608,0.314c-0.846-0.131-1.693-0.255-2.53-0.431
				c-2.216-0.418-4.451-0.745-6.69-0.994c-0.461,1.477-0.729,3.013-0.837,4.553c-0.029,0.252-0.013,0.507-0.046,0.758
				c-0.01,0.422-0.007,0.84,0,1.262c0.033,0.248,0.013,0.5,0.046,0.752c0.052,0.758,0.154,1.513,0.317,2.255
				c0.056,0.275,0.16,0.539,0.209,0.817c-0.02,0.163-0.059,0.34-0.186,0.454c-0.196,0.199-0.523,0.209-0.762,0.082
				c-0.454-0.271-0.84-0.644-1.17-1.052c-0.863-1.072-1.51-2.298-2.079-3.546c-0.007,0.19-0.049,0.376-0.039,0.565
				c0.003,0.314-0.016,0.631,0.026,0.945c0.072,1.072,0.369,2.118,0.752,3.118c0.503,1.327,1.167,2.592,1.912,3.801
				c0.278,0.444,0.559,0.896,0.886,1.307c0.212,0.301,0.467,0.572,0.65,0.892c0.072,0.141,0.059,0.304,0.059,0.458
				c0.007,0.212-0.154,0.402-0.35,0.464c-0.173,0.056-0.363,0.046-0.529-0.016c-1.294-0.444-2.556-0.984-3.775-1.611
				c-2.226-1.141-4.301-2.569-6.216-4.177c-1.958-1.657-3.739-3.52-5.334-5.527c-1.579-1.997-3.007-4.118-4.196-6.37
				c-0.85,0.101-1.693,0.242-2.536,0.379c-1.575,0.268-3.151,0.556-4.716,0.873c-0.18,0.056-0.382,0.013-0.536-0.085
				c-0.199-0.127-0.261-0.376-0.278-0.598c0-4.719,0-9.439,0-14.158c-0.219-0.134-0.405-0.307-0.608-0.461
				c-1.533-1.226-3.066-2.451-4.598-3.677c-0.118-0.098-0.209-0.229-0.235-0.379c-0.108-0.402,0.013-0.814,0.105-1.209
				c0.212-0.892,0.722-1.68,1.324-2.36c0.056-0.065,0.134-0.118,0.15-0.209c0.069-0.333,0.157-0.67,0.301-0.98
				c0.261-0.552,0.634-1.056,1.088-1.464c0.369-0.317,0.775-0.595,1.213-0.811c0.085-0.033,0.085-0.137,0.118-0.206
				c0.114-0.278,0.297-0.523,0.48-0.758c0.193-0.245,0.438-0.438,0.67-0.644c0.226-0.167,0.441-0.353,0.699-0.471
				c0.278-0.16,0.539-0.346,0.833-0.48c0.085-0.046,0.18-0.075,0.258-0.131c0.095-0.118,0.157-0.255,0.248-0.376
				c0.699-1.105,1.507-2.137,2.373-3.118c0.19-0.183,0.343-0.399,0.543-0.569c0.337-0.36,0.709-0.686,1.062-1.03
				c0.219-0.173,0.412-0.373,0.637-0.539c0.206-0.19,0.441-0.343,0.657-0.523c0.111-0.095,0.248-0.163,0.343-0.275
				c0.212-1.216,0.395-2.438,0.68-3.641c0.324-1.396,0.742-2.785,1.448-4.04c0.363-0.647,0.807-1.248,1.317-1.788
				c0.84-0.856,1.879-1.52,3.01-1.918C28.269,0.232,29.505,0.033,30.737,0z M28.237,0.938c-0.696,0.16-1.369,0.418-1.997,0.755
				c-0.951,0.516-1.778,1.252-2.405,2.134c-0.863,1.196-1.382,2.598-1.755,4.013c-0.366,1.409-0.592,2.847-0.83,4.281
				c-0.023,0.105-0.01,0.242-0.101,0.317c-0.592,0.431-1.167,0.882-1.709,1.376c-0.082,0.092-0.196,0.154-0.268,0.255
				c-0.239,0.196-0.441,0.431-0.67,0.637c-0.141,0.154-0.297,0.291-0.425,0.454c-0.203,0.212-0.412,0.422-0.592,0.654
				c-0.762,0.879-1.441,1.824-2.066,2.807c-0.069,0.101-0.114,0.222-0.206,0.31c-0.092,0.059-0.199,0.088-0.297,0.134
				c-0.265,0.127-0.52,0.281-0.768,0.435c-0.18,0.131-0.399,0.203-0.565,0.353c-0.458,0.343-0.899,0.739-1.16,1.255
				c-0.069,0.134-0.088,0.281-0.131,0.425c-0.284,0.137-0.575,0.268-0.837,0.448c-0.588,0.389-1.111,0.912-1.415,1.556
				c-0.16,0.278-0.258,0.588-0.324,0.899c-0.029,0.124-0.003,0.275-0.108,0.366c-0.549,0.546-1,1.199-1.268,1.928
				c-0.131,0.366-0.232,0.752-0.232,1.144c0.003,0.075-0.003,0.17,0.072,0.216c1.788,1.438,3.572,2.879,5.357,4.317
				c0.026,0.02,0.042,0.042,0.049,0.072c0.007,4.03,0.003,8.063,0.003,12.093c0.003,0.784-0.01,1.572,0.007,2.356
				c2.343-0.464,4.693-0.905,7.059-1.242c0.248-0.026,0.497-0.082,0.745-0.088c0.529,1.036,1.108,2.043,1.732,3.023
				c1.376,2.157,2.948,4.193,4.697,6.063s3.68,3.572,5.788,5.027c2.232,1.543,4.667,2.801,7.236,3.683
				c-0.284-0.382-0.559-0.768-0.833-1.157c-0.19-0.31-0.402-0.605-0.592-0.915c-1.043-1.664-1.941-3.438-2.477-5.334
				c-0.389-1.402-0.572-2.905-0.229-4.337c0.095-0.363,0.199-0.732,0.379-1.062c0.163,0.373,0.304,0.755,0.471,1.128
				c0.546,1.235,1.15,2.454,1.951,3.543c0.356,0.464,0.745,0.928,1.262,1.219c-0.19-0.673-0.333-1.36-0.422-2.056
				c-0.209-1.595-0.203-3.216-0.013-4.814c0.173-1.435,0.484-2.856,0.941-4.226c1.072,0.157,2.154,0.258,3.229,0.418
				c1.474,0.206,2.945,0.451,4.406,0.739c0.69,0.137,1.386,0.239,2.082,0.346c0-4.955,0-9.913,0-14.867
				c-0.01-0.059,0.023-0.108,0.069-0.137c0.739-0.592,1.474-1.183,2.209-1.781c0.863-0.706,1.735-1.399,2.595-2.111
				c0.039-0.275-0.013-0.556-0.072-0.824c-0.219-0.889-0.742-1.67-1.363-2.327c-0.046-0.052-0.114-0.095-0.121-0.167
				c-0.049-0.683-0.389-1.311-0.827-1.824c-0.474-0.536-1.069-0.954-1.706-1.275c-0.033-0.02-0.075-0.036-0.082-0.078
				c-0.124-0.526-0.487-0.958-0.879-1.311c-0.261-0.226-0.529-0.441-0.837-0.598c-0.376-0.252-0.781-0.451-1.196-0.628
				c-0.092-0.023-0.105-0.121-0.144-0.19c-0.32-0.533-0.677-1.039-1.036-1.546c-0.17-0.203-0.304-0.431-0.48-0.631
				c-0.203-0.265-0.418-0.52-0.634-0.771c-0.19-0.235-0.392-0.458-0.605-0.667c-0.173-0.212-0.376-0.405-0.578-0.592
				c-0.072-0.105-0.186-0.167-0.261-0.268c-0.526-0.49-1.062-0.974-1.637-1.409c-0.124-0.118-0.281-0.196-0.405-0.317
				c-0.134-0.739-0.242-1.481-0.376-2.219c-0.291-1.644-0.647-3.298-1.324-4.831c-0.36-0.811-0.82-1.585-1.405-2.255
				c-0.755-0.876-1.732-1.546-2.807-1.968c-0.693-0.278-1.425-0.444-2.164-0.556c-1.245-0.186-2.507-0.118-3.759-0.131
				C30.191,0.614,29.197,0.703,28.237,0.938z"/>
		</g>
		<path fill="#FFFFFF" d="M37.832,12.991c0.209-0.092,0.441-0.144,0.67-0.105c0.098,0.026,0.176,0.105,0.222,0.193
			c0.258,0.441,0.451,0.928,0.513,1.438c0.069,0.477-0.046,0.958-0.219,1.399c-0.154,0.379-0.412,0.709-0.706,0.99
			c-0.337,0.31-0.726,0.552-1.128,0.762c-0.114,0.049-0.222,0.114-0.346,0.141c-0.01-0.072,0.072-0.098,0.114-0.141
			c0.337-0.288,0.628-0.637,0.824-1.036c0.124-0.281,0.212-0.598,0.144-0.905c-0.206,0.219-0.409,0.454-0.683,0.592
			c-0.366,0.209-0.804,0.219-1.209,0.154c-0.203,0.389-0.395,0.788-0.51,1.216c-0.108,0.392-0.16,0.811-0.059,1.206
			c0.069,0.258,0.199,0.5,0.386,0.693c0.033,0.033,0.065,0.072,0.078,0.118c-0.056-0.016-0.105-0.042-0.144-0.085
			c-0.722-0.631-1.203-1.536-1.32-2.49c-0.026-0.294-0.069-0.588-0.026-0.886c0.003-0.183,0.033-0.36,0.049-0.539
			c-0.258-0.203-0.513-0.412-0.755-0.634c-0.01-0.02-0.033-0.052-0.042-0.072c0.422,0.023,0.82-0.15,1.199-0.31
			c0.869-0.386,1.67-0.902,2.458-1.428C37.492,13.145,37.662,13.067,37.832,12.991z"/>
		<path fill="#FFFFFF" d="M25.432,13.331c0.039-0.075,0.108-0.134,0.19-0.16c0.363-0.046,0.732,0.069,1.036,0.265
			c0.663,0.409,1.343,0.797,2.052,1.124c0.454,0.203,0.922,0.409,1.415,0.487c0.167,0.033,0.34,0.02,0.503-0.023
			c-0.052,0.163-0.059,0.337-0.105,0.5c-0.154,0.65-0.422,1.294-0.886,1.788c-0.366,0.405-0.889,0.657-1.432,0.719
			c-0.118,0.007-0.245,0.026-0.36-0.01c0.252-0.196,0.52-0.382,0.745-0.611c0.265-0.258,0.523-0.556,0.608-0.925
			c0.029-0.124,0.023-0.258-0.039-0.373c-0.373,0.186-0.771,0.337-1.19,0.363c-0.111,0-0.203,0.065-0.297,0.114
			c-0.539,0.307-1.114,0.569-1.726,0.693c-0.425,0.088-0.876,0.108-1.294-0.02c-0.366-0.108-0.69-0.343-0.909-0.654
			c-0.069-0.105-0.18-0.206-0.176-0.34c0.062,0.033,0.101,0.092,0.154,0.137c0.232,0.209,0.562,0.304,0.869,0.235
			c0.412-0.082,0.775-0.317,1.098-0.572c0.167-0.127,0.297-0.288,0.461-0.418c0.046-0.026,0.029-0.078,0.003-0.111
			c-0.327-0.467-0.543-1.007-0.677-1.559C25.426,13.776,25.406,13.554,25.432,13.331z"/>
		<path fill="#FFFFFF" d="M34.423,26.087c0.892-0.778,1.853-1.474,2.84-2.124c0.007,0.458,0.007,0.915,0,1.369
			c-0.183-0.003-0.363,0.003-0.543-0.023c-0.01,2.216,0,4.432-0.003,6.648c0.18,0.033,0.366,0.01,0.546,0.039
			c0.007,0.467,0.01,0.935,0,1.405c-0.85-0.007-1.703-0.059-2.553-0.072c-0.369-0.023-0.739-0.02-1.108-0.039
			c-0.003-0.454,0.003-0.909,0.003-1.36c-0.007-0.069,0.082-0.046,0.121-0.046c0.144,0.007,0.284,0.01,0.428,0.007
			c0.029-0.794-0.01-1.588,0-2.379c-0.003-0.229,0.003-0.458,0-0.683c-0.677,1.428-1.324,2.87-1.997,4.298
			c-0.275-0.552-0.52-1.124-0.784-1.683c-0.412-0.882-0.814-1.768-1.235-2.644c0.007,1.033,0.007,2.066,0.003,3.098
			c0.183,0,0.366,0,0.549-0.003c0.01,0.915,0.003,1.834,0.003,2.749c-0.137,0.003-0.278,0.007-0.415-0.003
			c-0.007-0.327,0.052-0.68-0.111-0.977c-0.111-0.216-0.35-0.35-0.592-0.324c-0.314,0.033-0.631,0.023-0.945,0.049
			c-0.533,0.023-1.065,0.046-1.598,0.072c-0.003-0.477-0.01-0.951,0.003-1.428c0.183-0.026,0.366-0.013,0.549-0.042
			c0-2.213,0-4.425,0-6.638c-0.183-0.003-0.369,0.026-0.552,0.01c-0.003-0.441-0.007-0.879,0-1.32
			c0.716,0.448,1.389,0.958,2.056,1.477c0.621,0.5,1.219,1.03,1.752,1.621c0.356,0.402,0.69,0.837,0.922,1.324
			c0.16,0.32,0.248,0.67,0.271,1.026c0.039,0.007,0.078,0.003,0.121,0c0.033-0.67,0.36-1.284,0.755-1.811
			C33.348,27.091,33.878,26.578,34.423,26.087z"/>
		<g>
			<path fill="#FFFFFF" d="M37.907,24.594c0.392,0.01,0.788,0.013,1.18,0.02c1.34,1.366,2.994,2.438,4.817,3.033
				c-0.016,0.667,0,1.333-0.007,1.997c-0.007,0.088,0.026,0.193-0.042,0.265c-0.379,0.458-0.762,0.915-1.137,1.376
				c-0.023,0.023-0.042,0.042-0.065,0.065c-0.726-0.098-1.454-0.144-2.18-0.222c-0.007,0.507-0.01,1.016,0,1.523
				c0.15,0.052,0.32,0.016,0.474,0.065c0.007,0.634,0.007,1.271,0,1.905c-0.212,0.003-0.425-0.039-0.637-0.042
				c-0.209-0.036-0.438-0.033-0.624,0.078c-0.095,0.052-0.154,0.141-0.216,0.226c-0.444-0.003-0.886-0.059-1.33-0.072
				c-0.02-0.324,0.039-0.654-0.039-0.974c-0.023-0.105-0.085-0.19-0.163-0.261c-0.056-0.039-0.039-0.108-0.046-0.167
				c0-0.304-0.003-0.608,0.003-0.915c0.154-0.013,0.304,0.013,0.458,0.003c-0.007-1.847-0.003-3.69-0.003-5.536
				c-0.15-0.01-0.301-0.029-0.451-0.026c-0.013-0.536-0.007-1.069-0.007-1.605C37.901,25.084,37.875,24.836,37.907,24.594z
				 M40.473,27.101c-0.007,0.572-0.007,1.147,0.003,1.722c0.353,0.026,0.706,0.075,1.059,0.085c0.088-0.075,0.147-0.183,0.235-0.261
				c0.016-0.366,0.013-0.732,0.003-1.095c-0.069-0.124-0.154-0.239-0.245-0.343C41.176,27.159,40.823,27.146,40.473,27.101z"/>
		</g>
		<g>
			<path fill="#FFFFFF" d="M24.887,24.751c0.121-0.02,0.245-0.007,0.369-0.01c0.405,0.513,0.82,1.023,1.222,1.539
				c0.016,1.075,0.003,2.154,0.007,3.232c0.003,1.144,0.003,2.288,0.003,3.432c-0.003,0.193,0.026,0.386,0.013,0.578
				c-1.262,0.098-2.526,0.16-3.785,0.281c-0.176,0.036-0.379,0.026-0.526,0.147c-0.095,0.078-0.173,0.183-0.199,0.304
				c-0.059,0.196-0.026,0.399-0.039,0.601c-0.114,0.02-0.229,0.039-0.343,0.046c-0.075-0.056-0.127-0.134-0.186-0.203
				c-0.252-0.314-0.52-0.611-0.768-0.925c-0.036-0.039-0.033-0.095-0.036-0.141c-0.007-1.997,0.02-3.991,0.007-5.987
				c0-0.039-0.016-0.075-0.026-0.111C22.174,26.869,23.645,25.934,24.887,24.751z M23.004,27.244
				c-0.092,0.114-0.196,0.235-0.252,0.369c-0.003,1.615-0.003,3.229,0,4.84c0.052,0.134,0.18,0.219,0.268,0.324
				c0.353-0.033,0.706-0.059,1.059-0.101c0.088-0.131,0.206-0.242,0.265-0.386c0-1.592,0.007-3.183,0.003-4.775
				c0.016-0.108-0.082-0.176-0.137-0.258c-0.042-0.052-0.075-0.141-0.16-0.118C23.703,27.179,23.354,27.208,23.004,27.244z"/>
		</g>
		<path fill="#FFFFFF" d="M17.683,27.682c0.762-0.029,1.523-0.059,2.285-0.072c0.072,0.095,0.111,0.219,0.163,0.33
			c0.013,0.513-0.003,1.03,0.016,1.543c0.007,0.369,0.026,0.742,0.016,1.111c-0.029,0.092-0.098,0.163-0.147,0.242
			c-0.301,0.461-0.608,0.918-0.909,1.379c-0.65,0.114-1.304,0.199-1.954,0.307c-0.01,0.435-0.007,0.869-0.007,1.307
			c0.131-0.026,0.265-0.049,0.399-0.065c0.007,0.569,0,1.134,0.003,1.703c-0.17,0.049-0.35,0.062-0.526,0.095
			c-0.719,0.121-1.435,0.252-2.151,0.386c-0.007-0.575-0.003-1.147-0.003-1.722c0.118-0.033,0.242-0.046,0.363-0.062
			c0.023-1.036-0.007-2.075,0.013-3.111c0.363-0.373,0.732-0.742,1.072-1.134c0.239-0.258,0.448-0.539,0.673-0.807
			c-0.02,0.435-0.013,0.873-0.016,1.311c0.15,0.01,0.301-0.016,0.451-0.036c0.203-0.036,0.405-0.046,0.605-0.092
			c0.078-0.098,0.167-0.19,0.232-0.294c0.013-0.301,0.007-0.605,0.003-0.909c-0.056-0.098-0.15-0.167-0.226-0.248
			c-0.317,0.039-0.631,0.075-0.945,0.127C17.343,28.571,17.657,28.169,17.683,27.682z"/>
		<g>
			<path fill="#FFFFFF" d="M44.535,27.646c0.474,0.003,0.945,0.003,1.418,0.01c0.144,0,0.288,0.036,0.431,0.007
				c0.01,0.588,0.222,1.157,0.523,1.654c0.376,0.614,0.892,1.131,1.464,1.566c0.072,0.059,0.176,0.098,0.193,0.203
				c0.239,1.007,0.526,2,0.804,2.997c0.111,0.046,0.235,0.049,0.353,0.075c0.013,0.052,0.02,0.105,0.016,0.16
				c-0.01,0.503,0.007,1.01-0.01,1.513c-0.866-0.16-1.732-0.314-2.602-0.441c-0.016-0.556-0.007-1.111-0.003-1.667
				c0.072,0.003,0.147,0.016,0.219,0.036c-0.029-0.127-0.059-0.252-0.092-0.376c-0.252-0.065-0.513-0.082-0.768-0.127
				c-0.337-0.042-0.673-0.098-1.01-0.131c-0.042,0.111-0.072,0.226-0.105,0.34c0.072,0.01,0.144,0.02,0.212,0.039
				c-0.003,0.673,0.01,1.347-0.003,2.02c-0.712-0.095-1.428-0.18-2.141-0.265c-0.056-0.065-0.098-0.137-0.147-0.209
				c-0.072-0.105-0.19-0.17-0.307-0.209c-0.007-0.556-0.007-1.111,0-1.67c0.137,0.003,0.275,0.033,0.415,0.039
				c0.48-1.559,0.987-3.111,1.474-4.67c-0.098-0.013-0.196-0.026-0.294-0.026C44.549,28.228,44.549,27.937,44.535,27.646z
				 M46.258,30.444c-0.098,0.34-0.226,0.673-0.307,1.016c0.278,0.016,0.549,0.082,0.824,0.114c-0.134-0.477-0.271-0.954-0.412-1.432
				C46.304,30.235,46.294,30.346,46.258,30.444z"/>
		</g>
		<g>
			<path fill="#FFFFFF" d="M32.384,33.889c0.48-0.02,0.961,0,1.441,0.003c0.337,0.007,0.677-0.007,1.013,0.016
				c0.896,0.02,1.791,0.052,2.687,0.101c0,0.758,0,1.513,0,2.268c-0.157,0.003-0.317-0.007-0.474-0.016
				c0.19,0.559,0.412,1.105,0.614,1.657c0.503,1.33,0.994,2.667,1.503,3.994c0.186,0.026,0.382,0.029,0.572,0.049
				c0.007,0.758,0.003,1.513,0,2.271c-1.232-0.092-2.464-0.16-3.696-0.212c-0.01-0.755-0.003-1.51-0.007-2.262
				c0.101,0,0.203,0,0.304,0c-0.033-0.154-0.082-0.304-0.137-0.454c-0.356-0.029-0.716-0.029-1.075-0.036
				c-0.497-0.033-1-0.023-1.497-0.033c-0.052,0.154-0.118,0.301-0.147,0.458c0.101,0,0.203,0,0.307,0c0.003,0.755,0,1.51,0,2.262
				c-0.327,0.013-0.654-0.013-0.98-0.003c-0.905-0.007-1.811,0.029-2.716,0.033c0-0.755-0.003-1.507,0-2.262
				c0.19-0.023,0.379,0.003,0.565-0.02c0.078-0.147,0.127-0.314,0.193-0.471c0.549-1.438,1.101-2.879,1.654-4.317
				c0.092-0.255,0.203-0.503,0.284-0.762c-0.137-0.01-0.271,0-0.409-0.01C32.384,35.399,32.384,34.644,32.384,33.889z
				 M34.923,37.739c-0.209,0.523-0.412,1.049-0.611,1.575c0.409-0.007,0.817,0.033,1.229,0.026
				c-0.134-0.412-0.304-0.811-0.454-1.216C35.028,38,35.002,37.856,34.923,37.739z"/>
		</g>
		<path fill="#FFFFFF" d="M22.563,34.425c2.363-0.258,4.739-0.425,7.115-0.497c0,0.886,0,1.768,0,2.654
			c-0.382,0.039-0.771,0.023-1.154,0.052c-0.346,0.003-0.69,0.042-1.036,0.042c0-0.124,0-0.248,0-0.373
			c-0.559,0.02-1.114,0.062-1.67,0.101c-0.016,0.539-0.01,1.082-0.003,1.621c0.131-0.003,0.261-0.01,0.389-0.029
			c0.01-0.127,0-0.252,0.007-0.379c0.719-0.042,1.435-0.105,2.157-0.111c0,1.016,0,2.036,0,3.053
			c-0.719,0.039-1.438,0.075-2.157,0.124c-0.003-0.134,0-0.268-0.003-0.402c-0.118,0.01-0.235,0.013-0.353,0.02
			c-0.059-0.01-0.046,0.059-0.049,0.095c0,0.513-0.003,1.023-0.003,1.536c0.562-0.016,1.124-0.069,1.69-0.101
			c0.003-0.127,0-0.255,0.007-0.379c0.729-0.039,1.458-0.082,2.186-0.088c0,0.562,0,1.121,0,1.683
			c-0.007,0.324,0.01,0.647-0.01,0.971c-2.373,0.075-4.742,0.235-7.102,0.5c-0.007-0.758-0.01-1.52-0.003-2.278
			c0.16-0.016,0.32-0.039,0.48-0.049c0.033-0.01,0.108,0.003,0.095-0.056c0.003-1.83,0.003-3.66-0.003-5.491
			c-0.19,0.023-0.382,0.036-0.572,0.062C22.56,35.945,22.556,35.183,22.563,34.425z"/>
		<path fill="#FFFFFF" d="M40.009,35.163c0.458,0.01,0.909,0.075,1.363,0.108c0.477,0.052,0.958,0.082,1.432,0.157
			c0.284,0.487,0.536,0.994,0.807,1.49c0.405,0.755,0.807,1.513,1.209,2.271c0.32-0.487,0.614-0.99,0.925-1.484
			c0.363-0.585,0.726-1.173,1.095-1.755c0.925,0.144,1.85,0.301,2.771,0.467c0.013,0.68,0,1.363,0.007,2.046
			c-0.17-0.023-0.337-0.059-0.507-0.088c-0.01,1.023-0.007,2.046-0.007,3.069c0.007,0.65-0.013,1.304,0.01,1.954
			c0.167,0.023,0.333,0.062,0.5,0.085c0.003,0.683,0,1.366,0,2.046c-1.134-0.199-2.268-0.399-3.409-0.559
			c-0.003-0.683-0.003-1.366,0-2.046c0.17,0.02,0.34,0.052,0.513,0.069c0.003-0.778,0.013-1.552-0.003-2.33
			c-0.154,0.193-0.268,0.415-0.405,0.618c-0.5,0.784-0.987,1.579-1.494,2.36c-0.582-1.088-1.17-2.173-1.758-3.262
			c-0.042-0.078-0.088-0.16-0.141-0.232c0,0.784-0.007,1.572,0.003,2.356c0.173,0.013,0.346,0.026,0.516,0.056
			c0.013,0.477,0.003,0.958,0.007,1.438c-0.003,0.203,0.01,0.405-0.007,0.608c-1.137-0.127-2.278-0.252-3.422-0.34
			c-0.016-0.461-0.007-0.918-0.01-1.379c0.003-0.219-0.007-0.441,0.007-0.66c0.17,0.007,0.337,0.039,0.507,0.039
			c0.007-1.673,0.007-3.35,0-5.023c-0.17-0.007-0.343-0.02-0.513-0.042C40.015,36.513,40.006,35.84,40.009,35.163z"/>
		<path fill="#FFFFFF" d="M15,36.539c2.419-0.477,4.863-0.833,7.314-1.111c0.01,0.866,0.007,1.732-0.007,2.598
			c-0.65,0.069-1.298,0.154-1.948,0.232c0-0.183,0.003-0.366-0.003-0.549c-0.176,0.023-0.35,0.042-0.523,0.075
			c-0.007,1.67-0.007,3.34,0,5.01c0.176-0.016,0.353-0.046,0.533-0.062c0.007,0.68,0.016,1.356,0.013,2.036
			c-1.144,0.163-2.291,0.324-3.432,0.523c-0.01-0.683-0.01-1.366,0-2.046c0.16-0.029,0.32-0.056,0.48-0.082
			c0.049,0.003,0.059-0.052,0.056-0.088c0-1.644-0.003-3.288-0.003-4.932c-0.176,0.02-0.35,0.052-0.523,0.085
			c-0.02,0.18-0.007,0.363-0.007,0.543c-0.297,0.072-0.601,0.108-0.902,0.167c-0.346,0.059-0.693,0.131-1.043,0.19
			C14.997,38.268,15,37.402,15,36.539z"/>
	</g>
	<g>
		<g>
			<path fill="#020202" d="M28.237,0.938c0.964-0.235,1.958-0.324,2.945-0.324c1.255,0.013,2.517-0.056,3.759,0.131
				c0.735,0.111,1.471,0.278,2.164,0.556c1.072,0.422,2.052,1.092,2.807,1.968c0.585,0.67,1.046,1.445,1.405,2.255
				c0.68,1.536,1.033,3.187,1.324,4.831c0.134,0.739,0.242,1.481,0.376,2.219c0.121,0.121,0.278,0.199,0.405,0.317
				c0.575,0.435,1.111,0.918,1.637,1.409c0.078,0.098,0.19,0.163,0.261,0.268c0.203,0.186,0.402,0.379,0.578,0.592
				c0.212,0.212,0.415,0.435,0.605,0.667c0.219,0.252,0.431,0.507,0.634,0.771c0.173,0.199,0.31,0.428,0.48,0.631
				c0.356,0.507,0.716,1.013,1.036,1.546c0.036,0.072,0.052,0.167,0.144,0.19c0.415,0.176,0.82,0.376,1.196,0.628
				c0.307,0.157,0.575,0.376,0.837,0.598c0.392,0.356,0.755,0.784,0.879,1.311c0.007,0.042,0.049,0.062,0.082,0.078
				c0.637,0.32,1.232,0.739,1.706,1.275c0.438,0.51,0.778,1.141,0.827,1.824c0.007,0.072,0.075,0.114,0.121,0.167
				c0.621,0.657,1.144,1.438,1.363,2.327c0.059,0.268,0.108,0.549,0.072,0.824c-0.856,0.712-1.732,1.405-2.595,2.111
				c-0.735,0.595-1.471,1.19-2.209,1.781c-0.046,0.033-0.078,0.082-0.069,0.137c0,4.955,0,9.913,0,14.867
				c-0.696-0.108-1.392-0.206-2.082-0.346c-1.461-0.288-2.932-0.533-4.406-0.739c-1.072-0.163-2.154-0.261-3.229-0.418
				c-0.458,1.373-0.768,2.791-0.941,4.226c-0.19,1.598-0.199,3.219,0.013,4.814c0.088,0.693,0.232,1.382,0.422,2.056
				c-0.516-0.291-0.905-0.755-1.262-1.219c-0.801-1.092-1.405-2.311-1.951-3.543c-0.167-0.373-0.307-0.755-0.471-1.128
				c-0.18,0.333-0.284,0.699-0.379,1.062c-0.343,1.432-0.16,2.935,0.229,4.337c0.536,1.896,1.438,3.667,2.477,5.334
				c0.19,0.307,0.399,0.605,0.592,0.915c0.275,0.389,0.549,0.778,0.833,1.157c-2.569-0.879-5-2.141-7.236-3.683
				c-2.108-1.454-4.036-3.157-5.788-5.027c-1.749-1.869-3.321-3.906-4.697-6.063c-0.628-0.977-1.206-1.987-1.732-3.023
				c-0.248,0.007-0.497,0.062-0.745,0.088c-2.366,0.337-4.716,0.778-7.059,1.242c-0.016-0.784-0.003-1.572-0.007-2.356
				c0-4.03,0.003-8.063-0.003-12.093c-0.007-0.029-0.023-0.056-0.049-0.072c-1.784-1.438-3.569-2.879-5.357-4.317
				c-0.072-0.046-0.069-0.141-0.072-0.216c0-0.392,0.101-0.778,0.232-1.144c0.268-0.729,0.719-1.382,1.268-1.928
				c0.105-0.092,0.078-0.245,0.108-0.366c0.065-0.31,0.163-0.621,0.324-0.899c0.304-0.644,0.824-1.167,1.415-1.556
				c0.261-0.18,0.552-0.31,0.837-0.448c0.042-0.141,0.062-0.291,0.131-0.425c0.261-0.516,0.703-0.912,1.16-1.255
				c0.167-0.154,0.386-0.222,0.565-0.353c0.248-0.157,0.503-0.307,0.768-0.435c0.098-0.046,0.203-0.075,0.297-0.134
				c0.092-0.088,0.137-0.209,0.206-0.31c0.624-0.98,1.301-1.928,2.066-2.807c0.18-0.232,0.389-0.441,0.592-0.654
				c0.127-0.163,0.288-0.301,0.425-0.454c0.229-0.206,0.431-0.441,0.67-0.637c0.075-0.101,0.186-0.16,0.268-0.255
				c0.543-0.49,1.118-0.945,1.709-1.376c0.088-0.078,0.078-0.212,0.101-0.317c0.239-1.435,0.464-2.873,0.83-4.281
				c0.373-1.415,0.892-2.821,1.755-4.013c0.628-0.882,1.454-1.618,2.405-2.134C26.867,1.356,27.54,1.101,28.237,0.938z
				 M30.962,1.935c-0.065-0.013-0.144-0.01-0.18,0.052c-0.386,0.578-0.634,1.235-0.801,1.902c-0.16,0.654-0.252,1.32-0.278,1.99
				c-0.036,0.458-0.036,0.915-0.003,1.373c0.007,0.382,0.049,0.765,0.101,1.144c-0.062,0.448-0.229,0.889-0.516,1.245
				c-0.235,0.297-0.588,0.487-0.951,0.575c-0.105,0.016-0.212,0.016-0.314,0.046c0.399,0.458,0.984,0.693,1.556,0.853
				c0.598,0.16,1.216,0.226,1.834,0.252c0.261-0.01,0.526,0.016,0.784-0.016c-0.17,0.18-0.399,0.301-0.637,0.36
				c-0.451,0.108-0.925,0.033-1.36-0.101c-1.036-0.346-2.105-0.624-3.196-0.703c-0.438-0.049-0.876-0.02-1.311,0.033
				c-0.621,0.082-1.255,0.301-1.703,0.752c-0.072,0.082-0.154,0.16-0.18,0.268c0.389-0.203,0.82-0.346,1.265-0.353
				c0.618-0.026,1.235,0.186,1.729,0.552c1.232,0.899,2.722,1.448,4.249,1.533c0.811,0.039,1.628-0.02,2.419-0.219
				c0.35-0.095,0.706-0.186,1.026-0.353c1.033-0.516,2.088-0.997,3.193-1.33c0.582-0.17,1.183-0.31,1.794-0.288
				c0.209-0.013,0.412,0.046,0.618,0.078c0.124,0.062,0.255,0.105,0.366,0.19c0.252,0.176,0.399,0.474,0.422,0.778
				c-0.046-0.069-0.088-0.157-0.176-0.173c-0.141-0.036-0.297,0.023-0.412,0.108c-0.003,0.092,0.033,0.183,0.046,0.271
				c0.062,0.343,0.072,0.693,0.052,1.039c-0.059,0.886-0.258,1.752-0.503,2.602c-0.212,0.729-0.474,1.441-0.762,2.144
				c-0.033,0.092-0.095,0.18-0.098,0.281c0.092-0.065,0.16-0.157,0.235-0.239c0.967-1.016,1.703-2.258,2.079-3.615
				c0.232-0.837,0.32-1.713,0.307-2.582c-0.046-1.837-0.592-3.638-1.409-5.275C40.113,6.89,39.96,6.687,39.8,6.484
				c-0.69-0.853-1.543-1.588-2.526-2.079c-1.056-0.533-2.268-0.742-3.442-0.588c0.425-0.317,0.941-0.507,1.467-0.556
				c0.467-0.065,0.948-0.007,1.405,0.098c0.67,0.16,1.291,0.474,1.883,0.824c-0.085-0.127-0.196-0.232-0.31-0.33
				c-0.69-0.644-1.536-1.105-2.425-1.412c-1.258-0.431-2.595-0.572-3.919-0.575C31.609,1.883,31.283,1.886,30.962,1.935z
				 M37.832,12.991c-0.17,0.075-0.34,0.154-0.49,0.268c-0.788,0.526-1.588,1.043-2.458,1.428c-0.379,0.16-0.778,0.333-1.199,0.31
				c0.01,0.016,0.033,0.052,0.042,0.072c0.242,0.222,0.497,0.431,0.755,0.634c-0.013,0.18-0.046,0.36-0.049,0.539
				c-0.042,0.294,0,0.592,0.026,0.886c0.118,0.954,0.598,1.856,1.32,2.49c0.039,0.042,0.092,0.069,0.144,0.085
				c-0.016-0.049-0.046-0.085-0.078-0.118c-0.186-0.193-0.317-0.435-0.386-0.693c-0.101-0.399-0.049-0.817,0.059-1.206
				c0.114-0.425,0.304-0.827,0.51-1.216c0.405,0.065,0.843,0.056,1.209-0.154c0.275-0.134,0.48-0.369,0.683-0.592
				c0.065,0.307-0.023,0.624-0.144,0.905c-0.196,0.399-0.487,0.748-0.824,1.036c-0.042,0.042-0.127,0.069-0.114,0.141
				c0.121-0.029,0.232-0.092,0.346-0.141c0.405-0.209,0.794-0.454,1.128-0.762c0.297-0.281,0.552-0.611,0.706-0.99
				c0.173-0.441,0.288-0.922,0.219-1.399c-0.062-0.51-0.255-0.997-0.513-1.438c-0.049-0.088-0.124-0.167-0.222-0.193
				C38.273,12.848,38.041,12.9,37.832,12.991z M25.432,13.331c-0.023,0.219-0.003,0.441,0.049,0.657
				c0.134,0.552,0.35,1.088,0.677,1.559c0.029,0.033,0.042,0.085-0.003,0.111c-0.163,0.127-0.297,0.291-0.461,0.418
				c-0.324,0.258-0.686,0.49-1.098,0.572c-0.304,0.069-0.637-0.026-0.869-0.235c-0.052-0.046-0.092-0.105-0.154-0.137
				c-0.003,0.134,0.108,0.235,0.176,0.34c0.219,0.31,0.543,0.546,0.909,0.654c0.418,0.131,0.869,0.108,1.294,0.02
				c0.611-0.124,1.186-0.386,1.726-0.693c0.095-0.049,0.186-0.114,0.297-0.114c0.418-0.026,0.817-0.176,1.19-0.363
				c0.062,0.114,0.069,0.248,0.039,0.373c-0.085,0.369-0.343,0.667-0.608,0.925c-0.229,0.229-0.494,0.415-0.745,0.611
				c0.114,0.036,0.242,0.016,0.36,0.01c0.543-0.062,1.062-0.314,1.432-0.719c0.464-0.494,0.732-1.137,0.886-1.788
				c0.046-0.163,0.052-0.337,0.105-0.5c-0.163,0.042-0.337,0.056-0.503,0.023c-0.497-0.078-0.961-0.281-1.415-0.487
				c-0.709-0.327-1.386-0.716-2.052-1.124c-0.304-0.196-0.673-0.314-1.036-0.265C25.54,13.197,25.468,13.256,25.432,13.331z
				 M19.265,16.093c-0.474,0.454-0.925,0.935-1.33,1.451c-0.049,0.059-0.092,0.118-0.124,0.186c0.226-0.101,0.444-0.229,0.686-0.288
				c0.248-0.062,0.497-0.144,0.755-0.163c0.163-0.016,0.32,0.042,0.484,0.049c-0.16-0.395-0.216-0.84-0.088-1.252
				c0.049-0.193,0.157-0.36,0.239-0.536C19.661,15.704,19.474,15.91,19.265,16.093z M44.258,15.534
				c0.029,0.082,0.069,0.16,0.127,0.226c0.065,0.193,0.154,0.379,0.17,0.588c0.046,0.324-0.02,0.647-0.131,0.951
				c0.095,0.003,0.19-0.02,0.284-0.023c0.333,0.016,0.644,0.137,0.967,0.209c0.261,0.114,0.51,0.248,0.762,0.379
				c-0.232-0.373-0.533-0.693-0.82-1.023C45.179,16.387,44.748,15.926,44.258,15.534z M19.036,18.42
				c-0.52,0.134-1.007,0.376-1.467,0.65c-0.271,0.137-0.523,0.327-0.712,0.569c-0.082,0.095-0.105,0.235-0.039,0.343
				c0.667,0.918,1.307,1.853,1.961,2.781c0.046,0.065,0.085,0.137,0.144,0.19c0.412-0.193,0.814-0.409,1.239-0.572
				c0.451-0.222,0.912-0.431,1.366-0.654c0.062-0.033,0.127-0.056,0.193-0.069c-0.039-0.101-0.111-0.18-0.167-0.271
				c-0.585-0.905-1.177-1.811-1.765-2.713c-0.072-0.098-0.121-0.235-0.245-0.278C19.38,18.345,19.203,18.387,19.036,18.42z
				 M44.5,18.391c-0.141,0.029-0.196,0.176-0.271,0.284c-0.647,0.99-1.298,1.984-1.938,2.981c0.252,0.072,0.474,0.212,0.712,0.32
				c0.379,0.173,0.748,0.373,1.141,0.523c0.32,0.144,0.634,0.32,0.961,0.448c0.703-0.977,1.373-1.977,2.085-2.948
				c0.092-0.131,0.036-0.304-0.069-0.409c-0.183-0.203-0.399-0.376-0.644-0.5c-0.402-0.245-0.827-0.461-1.278-0.608
				C44.973,18.417,44.735,18.338,44.5,18.391z M22.903,19.577c-0.01,0.314,0.114,0.614,0.265,0.882
				c0.324,0.559,0.797,1.016,1.298,1.422c0.431,0.353,0.899,0.66,1.373,0.951c1.026,0.618,2.105,1.134,3.203,1.608
				c0.092,0.042,0.141,0.137,0.203,0.212c0.873,1.131,1.847,2.177,2.87,3.17c1.085-1.049,2.115-2.167,3.03-3.37
				c0.059-0.085,0.167-0.114,0.255-0.154c0.438-0.196,0.876-0.392,1.304-0.608c1.17-0.585,2.324-1.242,3.307-2.111
				c0.405-0.376,0.788-0.791,1.026-1.291c0.137-0.304,0.242-0.654,0.134-0.98c-0.098,0.098-0.15,0.239-0.226,0.36
				c-0.176,0.206-0.346,0.418-0.559,0.592c-0.556,0.484-1.199,0.846-1.86,1.17c-0.66,0.31-1.337,0.598-2.036,0.814
				c0.199-0.52,0.392-1.088,0.252-1.647c-0.033,0.026-0.059,0.059-0.078,0.095c-0.363,0.605-0.758,1.19-1.18,1.758
				c-0.892,1.199-1.899,2.337-3.089,3.252c-0.072,0.059-0.16,0.118-0.255,0.108c-0.056-0.033-0.092-0.085-0.131-0.134
				c-0.5-0.618-0.931-1.307-1.16-2.072c-0.127-0.412-0.17-0.85-0.114-1.278c0.082-0.556,0.395-1.056,0.82-1.412
				c0.098-0.095,0.222-0.16,0.317-0.258c-0.193,0.039-0.376,0.111-0.559,0.18c-0.51,0.199-1.003,0.471-1.405,0.846
				c-0.389,0.363-0.67,0.866-0.67,1.409c-0.17-0.193-0.32-0.402-0.474-0.605c-0.425-0.572-0.827-1.167-1.193-1.778
				c-0.02-0.033-0.042-0.062-0.075-0.082c-0.144,0.572,0.059,1.154,0.265,1.68c-0.915-0.301-1.814-0.66-2.667-1.118
				c-0.578-0.314-1.141-0.67-1.608-1.137c-0.131-0.124-0.229-0.275-0.35-0.405c-0.052-0.121-0.131-0.229-0.183-0.35
				C22.903,19.374,22.899,19.479,22.903,19.577z M15.539,19.986c-0.477,0.19-0.899,0.487-1.33,0.762
				c-0.304,0.212-0.565,0.477-0.807,0.758c-0.078,0.098-0.121,0.252-0.036,0.36c0.098,0.127,0.199,0.255,0.301,0.379
				c1.043,1.327,2.079,2.657,3.118,3.987c0.023,0.026,0.049,0.046,0.078,0.065c-0.108-0.34-0.245-0.673-0.301-1.026
				c-0.078-0.278-0.082-0.569-0.046-0.856c0.029-0.124,0.095-0.239,0.19-0.327c0.098-0.095,0.242-0.118,0.356-0.19
				c0.121-0.072,0.252-0.124,0.366-0.206c-0.147-0.261-0.327-0.5-0.513-0.732c-0.35-0.425-0.762-0.817-1.262-1.052
				c-0.376-0.18-0.817-0.229-1.219-0.124c-0.124,0.029-0.235,0.095-0.363,0.124c0.31-0.343,0.712-0.611,1.16-0.732
				c0.494-0.137,1.03-0.088,1.503,0.095c0.199,0.069,0.382,0.176,0.575,0.261c-0.033-0.088-0.092-0.16-0.144-0.235
				c-0.307-0.441-0.611-0.889-0.922-1.327c-0.049-0.075-0.144-0.101-0.229-0.095C15.853,19.887,15.686,19.917,15.539,19.986z
				 M47.761,19.982c-0.212,0.297-0.418,0.601-0.628,0.905c-0.141,0.216-0.304,0.418-0.431,0.644c0.167-0.065,0.32-0.163,0.487-0.226
				c0.402-0.17,0.846-0.248,1.278-0.193c0.572,0.062,1.095,0.373,1.481,0.794c-0.114-0.023-0.219-0.085-0.333-0.114
				c-0.435-0.124-0.912-0.065-1.311,0.141c-0.5,0.255-0.912,0.657-1.258,1.092c-0.163,0.216-0.333,0.431-0.458,0.67
				c0.176,0.101,0.353,0.203,0.539,0.284c0.235,0.078,0.382,0.324,0.389,0.562c0,0.17,0.02,0.343-0.02,0.51
				c-0.056,0.265-0.101,0.529-0.193,0.784c-0.046,0.157-0.124,0.304-0.154,0.467c0.072-0.069,0.134-0.15,0.196-0.232
				c1-1.278,2-2.559,3.004-3.837c0.082-0.101,0.163-0.203,0.245-0.304c0.052-0.065,0.114-0.141,0.098-0.232
				c-0.007-0.137-0.114-0.232-0.199-0.327c-0.199-0.239-0.435-0.444-0.686-0.628c-0.356-0.222-0.699-0.467-1.079-0.647
				c-0.196-0.092-0.399-0.19-0.614-0.212C47.993,19.861,47.833,19.861,47.761,19.982z M22.213,22.015
				c-0.307,0.118-0.592,0.284-0.892,0.418c-0.242,0.082-0.464,0.212-0.696,0.32c-0.386,0.18-0.758,0.386-1.154,0.543
				c-0.454,0.222-0.909,0.438-1.363,0.66c-0.324,0.121-0.628,0.291-0.941,0.435c-0.085,0.049-0.196,0.072-0.232,0.173
				c-0.033,0.252,0.056,0.497,0.183,0.712c0.307,0.536,0.804,0.951,1.379,1.167c0.229,0.059,0.461,0.137,0.699,0.141l-0.003,0.016
				c0.409,0.02,0.82-0.039,1.216-0.144c0.35-0.105,0.68-0.258,0.997-0.438c0.562-0.373,1.118-0.755,1.667-1.147
				c0.039-0.029,0.075-0.062,0.108-0.098c-0.788,0.284-1.644,0.317-2.464,0.183c-0.01-0.007-0.026-0.023-0.036-0.029
				c0.608-0.121,1.196-0.435,1.566-0.941c0.412-0.546,0.539-1.252,0.513-1.922C22.612,21.927,22.39,21.946,22.213,22.015z
				 M41.251,22.123c-0.016,0.637,0.114,1.301,0.494,1.827c0.35,0.484,0.889,0.814,1.467,0.945c0.042,0.013,0.101,0.01,0.124,0.052
				c-0.837,0.137-1.713,0.111-2.513-0.183c0.105,0.105,0.235,0.183,0.356,0.271c0.346,0.245,0.693,0.484,1.046,0.722
				c0.193,0.124,0.373,0.268,0.582,0.363c0.634,0.343,1.366,0.529,2.088,0.461l-0.007-0.007c0.219-0.016,0.428-0.085,0.637-0.141
				c0.618-0.239,1.15-0.706,1.445-1.304c0.088-0.18,0.144-0.386,0.105-0.588l-0.003,0.003c-0.029-0.088-0.127-0.108-0.199-0.15
				c-0.32-0.144-0.624-0.32-0.954-0.441c-0.444-0.222-0.896-0.435-1.343-0.654c-0.67-0.271-1.294-0.641-1.964-0.912
				c-0.212-0.101-0.425-0.206-0.637-0.307c-0.173-0.078-0.369-0.157-0.562-0.111C41.342,21.999,41.234,22.031,41.251,22.123z
				 M12.621,22.492c-0.294,0.163-0.526,0.409-0.794,0.608c-0.278,0.248-0.5,0.546-0.748,0.82c-0.15,0.232-0.343,0.487-0.291,0.781
				c0.101,0.144,0.242,0.258,0.363,0.382c0.951,0.958,1.905,1.912,2.85,2.876c0.222,0.209,0.418,0.444,0.65,0.647
				c-0.16-0.304-0.333-0.608-0.451-0.935c-0.154-0.425-0.284-0.856-0.356-1.304c0.173,0.242,0.366,0.477,0.618,0.647
				c0.582,0.409,1.311,0.533,2.01,0.513c0.203-0.01,0.409-0.01,0.608-0.059c0.111-0.127-0.029-0.288-0.131-0.369
				c-0.01-0.013-0.026-0.042-0.036-0.056c-1.239-1.503-2.481-3.007-3.719-4.51c-0.056-0.062-0.098-0.141-0.176-0.176
				C12.872,22.345,12.745,22.427,12.621,22.492z M50.745,22.633c-0.967,1.167-1.925,2.343-2.896,3.504
				c-0.301,0.369-0.608,0.735-0.909,1.105c-0.065,0.069-0.072,0.242,0.052,0.242c0.248,0.042,0.503,0.046,0.755,0.049
				c0.663-0.01,1.353-0.163,1.886-0.575c0.216-0.16,0.382-0.373,0.536-0.588c-0.137,0.784-0.395,1.552-0.814,2.232
				c0.082-0.042,0.134-0.121,0.203-0.183c1.088-1.101,2.183-2.196,3.268-3.301c0.137-0.137,0.291-0.265,0.409-0.425
				c0.016-0.101,0.003-0.206-0.036-0.301c-0.088-0.222-0.216-0.425-0.379-0.598c-0.193-0.242-0.399-0.474-0.628-0.686
				c-0.258-0.193-0.484-0.435-0.768-0.595c-0.134-0.072-0.278-0.173-0.438-0.144C50.889,22.437,50.82,22.541,50.745,22.633z
				 M34.423,26.087c-0.546,0.49-1.079,1.003-1.516,1.595c-0.395,0.529-0.722,1.141-0.755,1.811c-0.039,0.007-0.082,0.007-0.121,0
				c-0.026-0.356-0.114-0.706-0.271-1.026c-0.232-0.487-0.565-0.918-0.922-1.324c-0.533-0.592-1.131-1.121-1.752-1.621
				c-0.663-0.52-1.34-1.03-2.056-1.477c-0.007,0.441-0.003,0.879,0,1.32c0.183,0.016,0.369-0.016,0.552-0.01
				c0,2.213,0,4.425,0,6.638c-0.183,0.029-0.366,0.016-0.549,0.042c-0.013,0.477-0.007,0.951-0.003,1.428
				c0.533-0.026,1.065-0.049,1.598-0.072c0.314-0.026,0.631-0.016,0.945-0.049c0.239-0.026,0.48,0.108,0.592,0.324
				c0.163,0.297,0.105,0.65,0.111,0.977c0.137,0.01,0.275,0.007,0.415,0.003c0-0.915,0.007-1.834-0.003-2.749
				c-0.183,0.003-0.366,0.003-0.549,0.003c0.003-1.033,0.003-2.066-0.003-3.098c0.422,0.876,0.824,1.762,1.235,2.644
				c0.265,0.559,0.51,1.128,0.784,1.683c0.673-1.428,1.32-2.87,1.997-4.298c0.003,0.229,0,0.454,0,0.683
				c-0.01,0.794,0.029,1.588,0,2.379c-0.144,0.003-0.288,0.003-0.428-0.007c-0.039,0-0.127-0.02-0.121,0.046
				c-0.003,0.454-0.007,0.909-0.003,1.36c0.369,0.02,0.739,0.013,1.108,0.039c0.85,0.013,1.703,0.065,2.553,0.072
				c0.01-0.467,0.01-0.935,0-1.405c-0.183-0.029-0.366-0.007-0.546-0.039c0.003-2.216-0.003-4.432,0.003-6.648
				c0.18,0.026,0.363,0.02,0.543,0.023c0.007-0.458,0.007-0.915,0-1.369C36.277,24.613,35.319,25.313,34.423,26.087z M37.907,24.594
				c-0.033,0.245-0.007,0.49-0.016,0.735c0.003,0.536-0.007,1.069,0.007,1.605c0.15-0.003,0.301,0.016,0.451,0.026
				c0,1.847-0.003,3.69,0.003,5.536c-0.154,0.007-0.304-0.016-0.458-0.003c-0.007,0.304-0.003,0.608-0.003,0.915
				c0.007,0.059-0.01,0.127,0.046,0.167c0.075,0.072,0.141,0.157,0.163,0.261c0.078,0.317,0.02,0.65,0.039,0.974
				c0.444,0.013,0.886,0.069,1.33,0.072c0.062-0.085,0.121-0.173,0.216-0.226c0.19-0.108,0.415-0.111,0.624-0.078
				c0.212,0.007,0.425,0.046,0.637,0.042c0.007-0.634,0.007-1.271,0-1.905c-0.154-0.049-0.324-0.013-0.474-0.065
				c-0.007-0.507-0.007-1.016,0-1.523c0.726,0.082,1.454,0.127,2.18,0.222c0.023-0.02,0.042-0.042,0.065-0.065
				c0.376-0.461,0.758-0.915,1.137-1.376c0.065-0.072,0.033-0.176,0.042-0.265c0.003-0.667-0.01-1.333,0.007-1.997
				c-1.824-0.595-3.477-1.667-4.817-3.033C38.695,24.607,38.3,24.6,37.907,24.594z M24.887,24.751
				c-1.242,1.183-2.713,2.118-4.291,2.785c0.01,0.036,0.023,0.072,0.026,0.111c0.01,1.994-0.013,3.991-0.007,5.987
				c0.003,0.046,0,0.101,0.036,0.141c0.252,0.314,0.516,0.614,0.768,0.925c0.062,0.069,0.111,0.147,0.186,0.203
				c0.114-0.007,0.229-0.026,0.343-0.046c0.016-0.199-0.02-0.405,0.039-0.601c0.026-0.121,0.105-0.226,0.199-0.304
				c0.147-0.124,0.35-0.114,0.526-0.147c1.258-0.121,2.523-0.183,3.785-0.281c0.016-0.193-0.016-0.386-0.013-0.578
				c0-1.144,0.003-2.288-0.003-3.432c-0.003-1.079,0.01-2.157-0.007-3.232c-0.402-0.516-0.817-1.026-1.222-1.539
				C25.132,24.744,25.007,24.731,24.887,24.751z M10.428,25.499c-0.229,0.196-0.415,0.435-0.595,0.677
				c-0.239,0.271-0.386,0.608-0.543,0.928c-0.042,0.137-0.085,0.32,0.039,0.431c0.114,0.095,0.226,0.193,0.346,0.281
				c1.275,1.065,2.553,2.134,3.827,3.203c0.062,0.056,0.144,0.01,0.206-0.016c0.301-0.17,0.523-0.441,0.762-0.683
				c0.186-0.245,0.395-0.503,0.438-0.82l-0.02-0.01c-0.069-0.15-0.216-0.239-0.327-0.356c-0.601-0.565-1.17-1.16-1.755-1.742
				c-0.595-0.601-1.196-1.199-1.791-1.801c-0.082-0.082-0.154-0.18-0.258-0.229C10.634,25.362,10.526,25.434,10.428,25.499z
				 M53.17,25.421c-0.902,0.905-1.804,1.814-2.706,2.719c-0.392,0.409-0.807,0.797-1.19,1.213l-0.01,0.003
				c-0.029,0.026-0.062,0.052-0.092,0.082c-0.105,0.075-0.026,0.216,0.007,0.314c0.134,0.275,0.314,0.533,0.539,0.739
				c0.18,0.19,0.366,0.386,0.598,0.513c0.056,0.023,0.131,0.065,0.19,0.023c1.281-1.065,2.556-2.141,3.837-3.209
				c0.095-0.059,0.17-0.141,0.258-0.206c0.072-0.059,0.157-0.121,0.167-0.219c0.013-0.144-0.023-0.291-0.101-0.412
				c-0.127-0.291-0.281-0.572-0.487-0.817c-0.176-0.235-0.36-0.467-0.585-0.663C53.474,25.424,53.294,25.29,53.17,25.421z
				 M17.683,27.682c-0.026,0.487-0.343,0.889-0.592,1.288c0.314-0.056,0.631-0.088,0.945-0.127c0.075,0.082,0.17,0.154,0.226,0.248
				c0.003,0.301,0.01,0.605-0.003,0.909c-0.065,0.108-0.154,0.199-0.232,0.294c-0.199,0.046-0.405,0.056-0.605,0.092
				c-0.15,0.02-0.301,0.046-0.451,0.036c0.003-0.435-0.003-0.873,0.016-1.311c-0.226,0.268-0.435,0.549-0.673,0.807
				c-0.34,0.392-0.706,0.765-1.072,1.134c-0.02,1.036,0.01,2.075-0.013,3.111c-0.121,0.02-0.245,0.029-0.363,0.062
				c0,0.572-0.007,1.147,0.003,1.722c0.716-0.134,1.432-0.268,2.151-0.386c0.173-0.036,0.353-0.046,0.526-0.095
				c-0.003-0.565,0.003-1.134-0.003-1.703c-0.134,0.016-0.265,0.039-0.399,0.065c0-0.435-0.003-0.869,0.007-1.307
				c0.65-0.111,1.304-0.196,1.954-0.307c0.301-0.461,0.605-0.918,0.909-1.379c0.049-0.078,0.114-0.15,0.147-0.242
				c0.01-0.369-0.01-0.742-0.016-1.111c-0.016-0.513-0.003-1.03-0.016-1.543c-0.052-0.108-0.092-0.232-0.163-0.33
				C19.206,27.623,18.445,27.653,17.683,27.682z M44.535,27.646c0.013,0.291,0.013,0.582,0.042,0.873
				c0.098,0,0.196,0.01,0.294,0.026c-0.487,1.559-0.994,3.108-1.474,4.67c-0.137-0.007-0.275-0.036-0.415-0.039
				c-0.007,0.556-0.007,1.111,0,1.67c0.118,0.042,0.232,0.105,0.307,0.209c0.049,0.069,0.088,0.144,0.147,0.209
				c0.716,0.085,1.428,0.17,2.141,0.265c0.01-0.673-0.003-1.347,0.003-2.02c-0.069-0.02-0.141-0.033-0.212-0.039
				c0.033-0.114,0.062-0.229,0.105-0.34c0.337,0.029,0.673,0.085,1.01,0.131c0.255,0.046,0.516,0.062,0.768,0.127
				c0.033,0.124,0.065,0.252,0.092,0.376c-0.072-0.02-0.144-0.029-0.219-0.036c-0.003,0.556-0.013,1.111,0.003,1.667
				c0.869,0.127,1.739,0.281,2.602,0.441c0.013-0.503,0-1.01,0.01-1.513c0-0.056-0.003-0.108-0.016-0.16
				c-0.118-0.026-0.242-0.029-0.353-0.075c-0.278-0.997-0.565-1.99-0.804-2.997c-0.013-0.105-0.121-0.144-0.193-0.203
				c-0.572-0.435-1.088-0.951-1.464-1.566c-0.301-0.5-0.513-1.065-0.523-1.654c-0.144,0.029-0.288-0.01-0.431-0.007
				C45.48,27.646,45.009,27.65,44.535,27.646z M32.384,33.889c0,0.755,0,1.51,0.003,2.268c0.134,0.01,0.271,0,0.409,0.01
				c-0.078,0.258-0.19,0.507-0.284,0.762c-0.552,1.438-1.105,2.876-1.654,4.317c-0.065,0.157-0.114,0.324-0.193,0.471
				c-0.19,0.023-0.379-0.003-0.565,0.02c-0.003,0.755,0,1.507,0,2.262c0.905-0.003,1.811-0.042,2.716-0.033
				c0.327-0.007,0.654,0.016,0.98,0.003c0-0.755,0-1.507,0-2.262c-0.101,0-0.203,0-0.307,0c0.033-0.157,0.095-0.307,0.147-0.458
				c0.5,0.01,1-0.003,1.497,0.033c0.36,0.007,0.719,0.007,1.075,0.036c0.052,0.147,0.101,0.301,0.137,0.454
				c-0.101,0-0.203,0-0.304,0c0,0.755-0.003,1.51,0.007,2.262c1.232,0.049,2.464,0.118,3.696,0.212c0.003-0.758,0.007-1.513,0-2.271
				c-0.19-0.02-0.386-0.026-0.572-0.049c-0.51-1.327-1-2.664-1.503-3.994c-0.203-0.552-0.425-1.101-0.614-1.657
				c0.157,0.01,0.317,0.02,0.474,0.016c0.003-0.755,0-1.513,0-2.268c-0.896-0.052-1.791-0.085-2.687-0.101
				c-0.337-0.026-0.677-0.013-1.013-0.016C33.345,33.889,32.864,33.869,32.384,33.889z M22.563,34.425
				c-0.007,0.758-0.003,1.52,0,2.281c0.19-0.029,0.382-0.039,0.572-0.062c0.007,1.83,0.007,3.66,0.003,5.491
				c0.016,0.059-0.062,0.046-0.095,0.056c-0.16,0.01-0.32,0.036-0.48,0.049c-0.007,0.758-0.007,1.516,0.003,2.278
				c2.36-0.265,4.729-0.425,7.102-0.5c0.02-0.324,0.003-0.647,0.01-0.971c0-0.562,0.003-1.121,0-1.683
				c-0.729,0.007-1.458,0.052-2.186,0.088c-0.01,0.124-0.003,0.252-0.007,0.379c-0.562,0.033-1.124,0.085-1.69,0.101
				c0-0.513,0.003-1.023,0.003-1.536c0.003-0.036-0.013-0.105,0.049-0.095c0.118-0.007,0.235-0.01,0.353-0.02
				c0.003,0.134,0,0.268,0.003,0.402c0.719-0.046,1.438-0.085,2.157-0.124c0-1.016,0-2.036,0-3.053
				c-0.719,0.01-1.438,0.072-2.157,0.111c-0.007,0.124,0.003,0.252-0.007,0.379c-0.127,0.02-0.258,0.026-0.389,0.029
				c-0.007-0.539-0.013-1.082,0.003-1.621c0.556-0.039,1.111-0.082,1.67-0.101c0.003,0.124,0,0.248,0,0.373
				c0.346-0.003,0.69-0.039,1.036-0.042c0.386-0.033,0.771-0.016,1.154-0.052c0-0.886,0-1.768,0-2.654
				C27.299,33.997,24.926,34.163,22.563,34.425z M40.009,35.163c-0.007,0.677,0.007,1.35,0.007,2.026
				c0.17,0.026,0.34,0.039,0.513,0.042c0.01,1.673,0.01,3.35,0,5.023c-0.17,0.003-0.337-0.029-0.507-0.039
				c-0.016,0.219-0.003,0.441-0.007,0.66c0.003,0.461-0.007,0.918,0.01,1.379c1.144,0.088,2.281,0.212,3.422,0.34
				c0.016-0.203,0.003-0.405,0.007-0.608c-0.003-0.48,0.007-0.958-0.007-1.438c-0.17-0.026-0.343-0.042-0.516-0.056
				c-0.01-0.784-0.003-1.572-0.003-2.356c0.056,0.072,0.098,0.15,0.141,0.232c0.588,1.085,1.177,2.173,1.758,3.262
				c0.507-0.781,0.99-1.575,1.494-2.36c0.137-0.206,0.252-0.425,0.405-0.618c0.016,0.775,0.007,1.552,0.003,2.33
				c-0.17-0.016-0.34-0.049-0.513-0.069c-0.003,0.683-0.003,1.366,0,2.046c1.141,0.16,2.275,0.36,3.409,0.559
				c0-0.683,0.003-1.366,0-2.046c-0.167-0.023-0.333-0.062-0.5-0.085c-0.023-0.65-0.003-1.301-0.01-1.954
				c0-1.023-0.003-2.046,0.007-3.069c0.17,0.029,0.337,0.065,0.507,0.088c-0.007-0.68,0.007-1.363-0.007-2.046
				c-0.922-0.163-1.847-0.324-2.772-0.467c-0.369,0.582-0.732,1.17-1.095,1.755c-0.31,0.494-0.605,0.997-0.925,1.484
				c-0.405-0.755-0.804-1.516-1.209-2.271c-0.271-0.497-0.523-1.003-0.807-1.49c-0.474-0.075-0.954-0.105-1.432-0.157
				C40.921,35.239,40.466,35.173,40.009,35.163z M15,36.539c0,0.863-0.003,1.726,0,2.592c0.346-0.059,0.693-0.131,1.043-0.19
				c0.301-0.059,0.605-0.095,0.902-0.167c0-0.18-0.013-0.363,0.007-0.543c0.173-0.029,0.346-0.062,0.523-0.085
				c0,1.644,0.007,3.288,0.003,4.932c0.003,0.036-0.007,0.092-0.056,0.088c-0.16,0.026-0.32,0.049-0.48,0.082
				c-0.01,0.683-0.007,1.366,0,2.046c1.141-0.199,2.285-0.36,3.432-0.523c0.003-0.68-0.007-1.356-0.013-2.036
				c-0.176,0.016-0.353,0.046-0.533,0.062c-0.003-1.67-0.007-3.34,0-5.01c0.173-0.033,0.35-0.052,0.523-0.075
				c0.007,0.183,0.003,0.366,0.003,0.549c0.65-0.078,1.298-0.167,1.948-0.232c0.01-0.866,0.013-1.732,0.007-2.598
				C19.863,35.709,17.419,36.062,15,36.539z M27.844,44.883c-0.389,0.029-0.778,0.039-1.164,0.092
				c0.088,0.258,0.229,0.494,0.356,0.735c0.389,0.683,0.899,1.304,1.523,1.781c0.402,0.301,0.84,0.562,1.317,0.716
				c-0.078-0.15-0.183-0.284-0.265-0.431c-0.373-0.637-0.67-1.34-0.716-2.085c-0.02-0.288,0.029-0.575,0.101-0.856
				C28.616,44.828,28.23,44.867,27.844,44.883z M35.924,45.138c-0.791,1.765-1.085,3.736-0.915,5.657
				c-0.304-0.203-0.507-0.52-0.683-0.833c-0.324-0.605-0.543-1.258-0.735-1.912c-0.196-0.657-0.333-1.327-0.477-1.994
				c-0.216,0.366-0.363,0.771-0.487,1.177c-0.425,1.441-0.346,2.984-0.033,4.438c0.317,1.438,0.85,2.824,1.549,4.118
				c-0.284-0.127-0.549-0.288-0.817-0.444c-0.621-0.369-1.213-0.778-1.784-1.219c-1.971-1.533-3.641-3.422-5.056-5.471
				c-0.742-1.075-1.415-2.2-2-3.366c-0.199,0-0.399,0.036-0.598,0.056c-0.333,0.042-0.667,0.069-0.997,0.124
				c0.049,0.121,0.127,0.226,0.193,0.34c0.69,1.128,1.386,2.252,2.105,3.36c0.32,0.5,0.65,0.997,1.013,1.471
				c0.399,0.539,0.85,1.043,1.298,1.543c0.853,0.941,1.735,1.86,2.657,2.736c1.827,1.735,3.791,3.34,5.952,4.641
				c0.271,0.154,0.533,0.33,0.817,0.451c-0.409-0.448-0.758-0.948-1.02-1.494c-0.663-1.347-0.896-2.87-0.866-4.36
				c0.042-1.546,0.35-3.075,0.804-4.549c0.428-1.386,0.99-2.729,1.628-4.033c0.062-0.144,0.154-0.278,0.199-0.431
				c-0.552-0.039-1.105-0.062-1.654-0.101C35.956,45.03,35.946,45.099,35.924,45.138z M38.303,45.187
				c-0.154,0.791-0.193,1.598-0.17,2.399c0.029,0.873,0.157,1.742,0.399,2.582c0.088,0.284,0.167,0.572,0.294,0.84
				c0.039-0.258,0.049-0.52,0.085-0.781c0.098-0.866,0.239-1.726,0.438-2.575c0.163-0.68,0.366-1.356,0.657-1.997
				c0.042-0.098,0.092-0.193,0.111-0.301C39.515,45.266,38.907,45.226,38.303,45.187z"/>
		</g>
		<path fill="#020202" d="M40.473,27.101c0.35,0.042,0.703,0.059,1.052,0.108c0.092,0.105,0.18,0.222,0.245,0.343
			c0.01,0.363,0.013,0.732-0.003,1.095c-0.088,0.078-0.147,0.183-0.235,0.261c-0.353-0.013-0.706-0.062-1.059-0.085
			C40.466,28.248,40.466,27.676,40.473,27.101z"/>
		<path fill="#020202" d="M23.004,27.244c0.35-0.039,0.703-0.065,1.052-0.101c0.082-0.023,0.114,0.065,0.16,0.118
			c0.052,0.082,0.154,0.15,0.137,0.258c0.003,1.592-0.003,3.183-0.003,4.775c-0.059,0.144-0.18,0.258-0.265,0.386
			c-0.353,0.039-0.706,0.069-1.059,0.101c-0.092-0.108-0.216-0.193-0.268-0.324c-0.007-1.615-0.003-3.229,0-4.84
			C22.805,27.48,22.913,27.362,23.004,27.244z"/>
		<path fill="#020202" d="M46.258,30.444c0.036-0.098,0.046-0.209,0.108-0.297c0.137,0.477,0.278,0.954,0.412,1.432
			c-0.275-0.033-0.546-0.098-0.824-0.114C46.032,31.117,46.16,30.787,46.258,30.444z"/>
		<path fill="#020202" d="M34.923,37.739c0.078,0.118,0.108,0.258,0.163,0.386c0.147,0.405,0.32,0.804,0.454,1.216
			c-0.409,0.007-0.817-0.033-1.229-0.026C34.508,38.788,34.714,38.265,34.923,37.739z"/>
	</g>
	<g>
		<path fill="#FFF69F" d="M30.962,1.935c0.32-0.052,0.647-0.056,0.971-0.069c1.32,0.003,2.657,0.144,3.915,0.578
			c0.889,0.307,1.735,0.765,2.425,1.412c0.114,0.098,0.226,0.203,0.31,0.33c-0.592-0.35-1.209-0.663-1.883-0.824
			c-0.458-0.105-0.938-0.163-1.405-0.098c-0.526,0.049-1.043,0.239-1.467,0.556c1.173-0.154,2.386,0.052,3.441,0.588
			c0.984,0.49,1.837,1.226,2.526,2.079c0.16,0.199,0.314,0.405,0.448,0.624c0.817,1.637,1.363,3.435,1.409,5.275
			c0.016,0.869-0.072,1.742-0.307,2.582c-0.373,1.353-1.111,2.598-2.079,3.615c-0.075,0.082-0.144,0.173-0.235,0.239
			c0.003-0.101,0.065-0.19,0.098-0.281c0.288-0.703,0.549-1.415,0.762-2.144c0.245-0.85,0.444-1.719,0.503-2.602
			c0.016-0.346,0.01-0.696-0.052-1.039c-0.013-0.092-0.049-0.18-0.046-0.271c0.114-0.085,0.268-0.144,0.412-0.108
			c0.088,0.02,0.131,0.105,0.176,0.173c-0.023-0.301-0.17-0.601-0.422-0.778c-0.111-0.085-0.242-0.127-0.366-0.19
			c-0.18-0.369-0.533-0.637-0.922-0.752c-0.16-0.036-0.324-0.003-0.484-0.003c-0.549,0.013-1.098-0.039-1.637-0.127
			c0.029-0.026,0.065-0.042,0.105-0.046c0.588-0.114,1.17-0.281,1.709-0.549c0.428-0.222,0.837-0.536,1.03-0.99
			c0.065-0.17,0.141-0.366,0.069-0.546c-0.317-0.856-0.814-1.65-1.474-2.285c-0.873-0.856-2.003-1.415-3.18-1.726
			c-0.709-0.183-1.438-0.31-2.17-0.294c-0.284-0.007-0.569,0.01-0.853,0.01c0.281-0.51,0.794-0.84,1.317-1.065
			c0.464-0.212,0.964-0.32,1.467-0.373c0.16-0.023,0.327-0.02,0.487-0.052c-0.307-0.157-0.644-0.242-0.974-0.34
			c-0.997-0.265-2.023-0.402-3.049-0.467C31.341,1.954,31.149,1.977,30.962,1.935z"/>
		<path fill="#FFF69F" d="M44.258,15.534c0.49,0.395,0.922,0.856,1.36,1.307c0.288,0.33,0.588,0.65,0.82,1.023
			c-0.252-0.131-0.5-0.265-0.762-0.379c-0.092-0.056-0.226-0.062-0.268-0.173c-0.193-0.402-0.435-0.775-0.693-1.134
			c-0.105-0.144-0.199-0.294-0.327-0.415C44.326,15.694,44.287,15.613,44.258,15.534z"/>
		<path fill="#FFF69F" d="M22.903,19.577c-0.003-0.098,0-0.203,0.056-0.291c0.052,0.121,0.131,0.229,0.183,0.35
			c0.199,0.51,0.543,0.948,0.892,1.363c0.69,0.768,1.533,1.386,2.432,1.883c0.768,0.428,1.582,0.765,2.412,1.052
			c0.111,0.046,0.176,0.15,0.255,0.232c0.66,0.716,1.32,1.428,1.981,2.141c0.346,0.386,0.748,0.752,0.931,1.252
			c0.078-0.131,0.124-0.278,0.209-0.402c0.183-0.278,0.418-0.52,0.644-0.762c0.732-0.804,1.474-1.598,2.209-2.399
			c0.039-0.042,0.088-0.072,0.141-0.092c1.203-0.412,2.373-0.948,3.412-1.686c0.811-0.572,1.543-1.271,2.062-2.124
			c0.085-0.141,0.16-0.284,0.222-0.435c0.072-0.121,0.124-0.261,0.226-0.36c0.108,0.327,0.003,0.677-0.134,0.98
			c-0.239,0.5-0.624,0.918-1.026,1.291c-0.987,0.873-2.137,1.526-3.307,2.111c-0.428,0.216-0.866,0.412-1.304,0.608
			c-0.092,0.042-0.196,0.069-0.255,0.154c-0.915,1.206-1.941,2.32-3.03,3.37c-1.023-0.994-1.997-2.043-2.87-3.17
			c-0.062-0.075-0.111-0.17-0.203-0.212c-1.098-0.471-2.18-0.99-3.203-1.608c-0.474-0.291-0.941-0.598-1.373-0.951
			c-0.5-0.402-0.974-0.86-1.298-1.422C23.017,20.191,22.893,19.891,22.903,19.577z"/>
		<path fill="#FFF69F" d="M12.621,22.492c0.121-0.065,0.248-0.147,0.392-0.134c0.078,0.036,0.124,0.114,0.176,0.176
			c1.239,1.503,2.481,3.004,3.719,4.51c0.01,0.013,0.026,0.042,0.036,0.056c-0.131-0.078-0.229-0.203-0.337-0.307
			c-0.373-0.369-0.729-0.755-1.111-1.114c-0.801-0.696-1.686-1.34-2.719-1.634c-0.17-0.033-0.34-0.105-0.513-0.082
			c-0.124,0.105-0.216,0.245-0.333,0.356c-0.193,0.176-0.34,0.399-0.536,0.572c-0.082,0.059-0.121,0.226-0.242,0.193
			c-0.124-0.124-0.265-0.239-0.363-0.382c-0.052-0.294,0.141-0.549,0.291-0.781c0.248-0.275,0.471-0.572,0.748-0.82
			C12.098,22.904,12.327,22.656,12.621,22.492z"/>
		<path fill="#FFF69F" d="M50.745,22.633c0.078-0.092,0.144-0.196,0.242-0.268c0.16-0.029,0.304,0.072,0.438,0.144
			c0.284,0.163,0.507,0.402,0.768,0.595c0.226,0.212,0.435,0.444,0.628,0.686c0.163,0.173,0.291,0.379,0.379,0.598
			c0.039,0.095,0.052,0.199,0.036,0.301c-0.114,0.16-0.268,0.288-0.409,0.425c-0.17-0.134-0.297-0.31-0.444-0.464
			c-0.199-0.216-0.399-0.431-0.592-0.654c-0.042-0.059-0.121-0.042-0.183-0.033c-0.797,0.134-1.516,0.533-2.173,0.987
			c-0.526,0.304-0.954,0.745-1.36,1.193c-0.206,0.203-0.405,0.415-0.628,0.601c0.085-0.222,0.288-0.366,0.409-0.565l-0.003-0.042
			C48.817,24.976,49.778,23.8,50.745,22.633z"/>
		<path fill="#FFF69F" d="M10.428,25.499c0.098-0.065,0.206-0.137,0.327-0.134c0.108,0.049,0.176,0.147,0.258,0.229
			c0.595,0.601,1.196,1.199,1.791,1.801c0.585,0.582,1.154,1.177,1.755,1.742c0.111,0.114,0.258,0.206,0.327,0.356
			c-0.163-0.075-0.291-0.209-0.441-0.307c-0.363-0.301-0.745-0.585-1.111-0.879c-0.212-0.216-0.467-0.382-0.712-0.562
			c-0.294-0.212-0.592-0.415-0.899-0.601c-0.314-0.212-0.66-0.395-1.039-0.454c-0.092-0.016-0.212-0.02-0.265,0.075
			c-0.232,0.363-0.507,0.696-0.745,1.052c-0.121-0.085-0.232-0.186-0.346-0.281c-0.124-0.108-0.082-0.294-0.039-0.431
			c0.157-0.32,0.304-0.657,0.543-0.928C10.013,25.934,10.199,25.692,10.428,25.499z"/>
		<path fill="#FFF69F" d="M53.17,25.421c0.127-0.127,0.304,0.007,0.422,0.082c0.222,0.193,0.409,0.428,0.585,0.663
			c0.206,0.242,0.36,0.526,0.487,0.817c0.078,0.121,0.114,0.268,0.101,0.412c-0.01,0.098-0.095,0.163-0.167,0.219
			c-0.088,0.065-0.163,0.147-0.258,0.206c-0.248-0.366-0.523-0.716-0.768-1.082c-0.157-0.114-0.369-0.033-0.529,0.033
			c-0.32,0.163-0.644,0.324-0.941,0.529c-0.494,0.33-1,0.647-1.461,1.02c-0.291,0.232-0.588,0.454-0.869,0.699
			c-0.105,0.092-0.232,0.157-0.337,0.245c-0.046,0.039-0.098,0.075-0.157,0.092c0.382-0.418,0.797-0.804,1.19-1.213
			C51.366,27.235,52.268,26.326,53.17,25.421z"/>
	</g>
	<g>
		<path fill="#FFE72F" d="M30.779,1.987c0.036-0.062,0.118-0.065,0.18-0.052c0.186,0.042,0.382,0.02,0.572,0.042
			c1.026,0.065,2.052,0.203,3.049,0.467c0.33,0.098,0.667,0.183,0.974,0.34c-0.16,0.033-0.324,0.029-0.487,0.052
			c-0.503,0.052-1.007,0.16-1.467,0.373c-0.523,0.226-1.033,0.556-1.317,1.065c0.284,0,0.569-0.016,0.853-0.01
			c0.732-0.016,1.464,0.111,2.17,0.294c1.177,0.31,2.307,0.866,3.18,1.726c0.66,0.634,1.157,1.428,1.474,2.285
			c0.072,0.18-0.003,0.376-0.069,0.546c-0.19,0.454-0.601,0.768-1.03,0.99c-0.539,0.268-1.121,0.435-1.709,0.549
			c-0.039,0.007-0.075,0.023-0.105,0.046c0.539,0.088,1.088,0.141,1.637,0.127c0.16,0,0.324-0.033,0.484,0.003
			c0.389,0.118,0.742,0.382,0.922,0.752c-0.206-0.036-0.409-0.092-0.618-0.078c-0.611-0.023-1.213,0.118-1.794,0.288
			c-1.108,0.333-2.164,0.814-3.193,1.33c-0.324,0.167-0.677,0.261-1.026,0.353c-0.788,0.199-1.608,0.258-2.419,0.219
			c-1.526-0.082-3.013-0.634-4.249-1.533c-0.497-0.366-1.111-0.578-1.729-0.552c-0.444,0.007-0.873,0.15-1.265,0.353
			c0.026-0.108,0.108-0.19,0.18-0.268c0.451-0.454,1.082-0.67,1.703-0.752c0.435-0.052,0.876-0.082,1.311-0.033
			c1.092,0.082,2.16,0.36,3.196,0.703c0.438,0.134,0.909,0.209,1.36,0.101c0.239-0.059,0.467-0.176,0.637-0.36
			c-0.261,0.033-0.523,0.007-0.784,0.016c-0.618-0.026-1.235-0.092-1.834-0.252c-0.572-0.16-1.157-0.399-1.556-0.853
			c0.101-0.029,0.209-0.029,0.314-0.046c0.366-0.088,0.716-0.278,0.951-0.575c0.288-0.353,0.454-0.797,0.516-1.245
			c-0.052-0.379-0.092-0.762-0.101-1.144c-0.033-0.458-0.033-0.915,0.003-1.373c0.026-0.67,0.118-1.34,0.278-1.99
			C30.148,3.223,30.397,2.566,30.779,1.987z"/>
		<path fill="#FFE72F" d="M19.265,16.093c0.209-0.183,0.395-0.392,0.621-0.552c-0.082,0.176-0.19,0.346-0.239,0.536
			c-0.127,0.412-0.072,0.856,0.088,1.252c-0.163-0.007-0.32-0.065-0.484-0.049c-0.258,0.02-0.507,0.101-0.755,0.163
			c-0.242,0.059-0.461,0.186-0.686,0.288c0.036-0.065,0.075-0.127,0.124-0.186C18.343,17.031,18.791,16.547,19.265,16.093z"/>
		<path fill="#FFE72F" d="M44.385,15.76c0.127,0.124,0.222,0.275,0.327,0.415c0.258,0.36,0.5,0.735,0.693,1.134
			c0.042,0.111,0.176,0.118,0.268,0.173c-0.32-0.072-0.634-0.193-0.967-0.209c-0.095,0-0.19,0.026-0.284,0.023
			c0.111-0.304,0.173-0.628,0.131-0.951C44.539,16.139,44.45,15.952,44.385,15.76z"/>
		<path fill="#FFE72F" d="M19.036,18.42c0.163-0.033,0.34-0.075,0.507-0.02c0.124,0.042,0.173,0.18,0.245,0.278
			c0.592,0.902,1.18,1.807,1.765,2.713c0.056,0.092,0.127,0.17,0.167,0.271c-0.069,0.013-0.134,0.036-0.193,0.069
			c-0.454,0.222-0.912,0.431-1.366,0.654c-0.425,0.163-0.827,0.379-1.239,0.572c-0.062-0.052-0.098-0.124-0.144-0.19
			c-0.654-0.928-1.294-1.863-1.961-2.781c-0.065-0.108-0.042-0.248,0.039-0.343c0.19-0.242,0.441-0.431,0.712-0.569
			C18.03,18.796,18.517,18.551,19.036,18.42z"/>
		<path fill="#FFE72F" d="M44.5,18.391c0.235-0.052,0.474,0.026,0.699,0.092c0.451,0.144,0.873,0.363,1.278,0.608
			c0.245,0.124,0.464,0.294,0.644,0.5c0.105,0.105,0.16,0.278,0.069,0.409c-0.709,0.971-1.382,1.971-2.085,2.948
			c-0.327-0.127-0.641-0.301-0.961-0.448c-0.392-0.15-0.758-0.35-1.141-0.523c-0.239-0.105-0.461-0.248-0.712-0.32
			c0.641-0.997,1.291-1.99,1.938-2.981C44.303,18.57,44.359,18.42,44.5,18.391z"/>
		<path fill="#FFE72F" d="M23.145,19.636c0.121,0.131,0.222,0.281,0.35,0.405c0.467,0.467,1.03,0.824,1.608,1.137
			c0.85,0.454,1.749,0.817,2.667,1.118c-0.209-0.529-0.409-1.111-0.265-1.68c0.029,0.023,0.056,0.049,0.075,0.082
			c0.366,0.614,0.768,1.206,1.193,1.778c0.157,0.203,0.304,0.415,0.474,0.605c0-0.539,0.281-1.046,0.67-1.409
			c0.405-0.376,0.896-0.647,1.405-0.846c0.183-0.069,0.366-0.141,0.559-0.18c-0.095,0.098-0.219,0.163-0.317,0.258
			c-0.425,0.356-0.742,0.86-0.82,1.412c-0.059,0.428-0.013,0.866,0.114,1.278c0.229,0.765,0.66,1.454,1.16,2.072
			c0.039,0.049,0.075,0.101,0.131,0.134c0.095,0.01,0.183-0.049,0.255-0.108c1.19-0.915,2.193-2.049,3.089-3.252
			c0.418-0.569,0.817-1.15,1.18-1.758c0.02-0.036,0.046-0.069,0.078-0.095c0.141,0.559-0.049,1.128-0.252,1.647
			c0.699-0.216,1.376-0.503,2.036-0.814c0.657-0.324,1.304-0.686,1.86-1.17c0.212-0.173,0.382-0.386,0.559-0.592
			c-0.059,0.154-0.137,0.297-0.222,0.435c-0.52,0.85-1.255,1.549-2.062,2.124c-1.039,0.735-2.209,1.271-3.412,1.686
			c-0.052,0.02-0.101,0.049-0.141,0.092c-0.735,0.801-1.477,1.595-2.209,2.399c-0.226,0.242-0.461,0.484-0.644,0.762
			c-0.085,0.124-0.134,0.271-0.209,0.402c-0.183-0.5-0.585-0.866-0.931-1.252c-0.657-0.716-1.32-1.428-1.981-2.141
			c-0.078-0.082-0.144-0.19-0.255-0.232c-0.83-0.288-1.644-0.624-2.412-1.052c-0.905-0.497-1.752-1.114-2.438-1.883
			C23.684,20.584,23.344,20.146,23.145,19.636z"/>
		<path fill="#FFE72F" d="M14.431,21.783c0.405-0.108,0.843-0.059,1.219,0.124c0.503,0.239,0.915,0.628,1.262,1.052
			c0.186,0.232,0.366,0.474,0.513,0.732c-0.114,0.082-0.245,0.134-0.366,0.206c-0.114,0.072-0.258,0.095-0.356,0.19
			c-0.095,0.085-0.16,0.203-0.19,0.327c-0.036,0.284-0.033,0.575,0.046,0.856c0.056,0.353,0.196,0.686,0.301,1.026
			c-0.029-0.02-0.056-0.039-0.078-0.065c-1.039-1.33-2.079-2.66-3.118-3.987c0.154-0.088,0.261-0.235,0.405-0.337
			C14.196,21.878,14.307,21.812,14.431,21.783z"/>
		<path fill="#FFE72F" d="M48.307,21.933c0.399-0.206,0.876-0.268,1.311-0.141c0.114,0.029,0.216,0.092,0.333,0.114
			c0.147,0.095,0.235,0.271,0.405,0.333c-1.003,1.278-2,2.559-3.004,3.837c-0.059,0.082-0.121,0.16-0.196,0.232
			c0.029-0.163,0.105-0.31,0.154-0.467c0.088-0.255,0.137-0.523,0.193-0.784c0.039-0.167,0.02-0.34,0.02-0.51
			c-0.007-0.242-0.154-0.484-0.389-0.562c-0.186-0.082-0.363-0.183-0.539-0.284c0.124-0.242,0.294-0.454,0.458-0.67
			C47.395,22.587,47.807,22.188,48.307,21.933z"/>
		<path fill="#FFE72F" d="M22.213,22.015c0.176-0.069,0.399-0.088,0.549,0.042c0.026,0.67-0.101,1.376-0.513,1.922
			c-0.369,0.507-0.958,0.824-1.566,0.941c0.01,0.007,0.026,0.023,0.036,0.029c0.82,0.134,1.677,0.101,2.464-0.183
			c-0.033,0.036-0.069,0.069-0.108,0.098c-0.549,0.392-1.105,0.775-1.667,1.147c-0.317,0.18-0.647,0.333-0.997,0.438
			c-0.395,0.105-0.804,0.163-1.216,0.144l0.003-0.016c0.02-0.114,0.036-0.226,0.033-0.34c0.003-0.082-0.065-0.144-0.075-0.222
			c0.007-0.098,0.059-0.206-0.01-0.291c-0.082-0.127-0.258-0.111-0.389-0.144c-0.578-0.137-1.154-0.376-1.575-0.804
			c-0.072-0.085-0.15-0.167-0.252-0.216c0.036-0.101,0.15-0.124,0.232-0.173c0.314-0.144,0.618-0.314,0.941-0.435
			c0.451-0.226,0.909-0.441,1.363-0.66c0.395-0.157,0.768-0.363,1.154-0.543c0.232-0.108,0.454-0.235,0.696-0.32
			C21.622,22.299,21.909,22.136,22.213,22.015z"/>
		<path fill="#FFE72F" d="M41.251,22.123c-0.013-0.092,0.092-0.124,0.16-0.147c0.196-0.049,0.389,0.033,0.562,0.111
			c0.212,0.105,0.425,0.206,0.637,0.307c0.67,0.271,1.298,0.641,1.964,0.912c0.448,0.219,0.896,0.431,1.343,0.654
			c0.33,0.121,0.634,0.294,0.954,0.441c0.072,0.039,0.17,0.062,0.199,0.15c-0.199,0.134-0.333,0.346-0.539,0.48
			c-0.353,0.261-0.765,0.422-1.183,0.549c-0.121,0.036-0.252,0.042-0.369,0.092c-0.052,0.052-0.069,0.134-0.088,0.203
			c0.003,0.229-0.101,0.451-0.042,0.68c0.01,0.007,0.026,0.02,0.036,0.026l0.007,0.007c-0.722,0.069-1.454-0.121-2.088-0.461
			c-0.209-0.095-0.389-0.239-0.582-0.363c-0.35-0.235-0.699-0.477-1.046-0.722c-0.121-0.088-0.252-0.163-0.356-0.271
			c0.801,0.294,1.677,0.32,2.513,0.183c-0.023-0.046-0.085-0.039-0.124-0.052c-0.578-0.131-1.118-0.461-1.467-0.945
			C41.365,23.424,41.234,22.76,41.251,22.123z"/>
		<path fill="#FFE72F" d="M12.268,23.963c0.173-0.023,0.343,0.049,0.513,0.082c1.033,0.294,1.918,0.941,2.719,1.634
			c0.382,0.36,0.739,0.745,1.111,1.114c0.111,0.105,0.206,0.229,0.337,0.307c0.101,0.082,0.245,0.242,0.131,0.369
			c-0.196,0.052-0.405,0.049-0.608,0.059c-0.696,0.02-1.428-0.108-2.01-0.513c-0.252-0.17-0.441-0.402-0.618-0.647
			c0.072,0.444,0.203,0.879,0.356,1.304c0.118,0.327,0.291,0.628,0.451,0.935c-0.232-0.199-0.428-0.438-0.65-0.647
			c-0.945-0.964-1.899-1.918-2.85-2.876c0.121,0.033,0.163-0.134,0.242-0.193c0.196-0.173,0.343-0.392,0.536-0.572
			C12.052,24.208,12.144,24.071,12.268,23.963z"/>
		<path fill="#FFE72F" d="M49.435,24.953c0.657-0.454,1.376-0.856,2.173-0.987c0.062-0.007,0.141-0.026,0.183,0.033
			c0.193,0.222,0.392,0.438,0.592,0.654c0.147,0.154,0.275,0.33,0.444,0.464c-1.085,1.105-2.18,2.2-3.268,3.301
			c-0.065,0.062-0.121,0.141-0.203,0.183c0.415-0.68,0.677-1.451,0.814-2.232c-0.154,0.216-0.32,0.428-0.536,0.588
			c-0.533,0.412-1.222,0.565-1.886,0.575c-0.252,0-0.507-0.003-0.755-0.049c-0.124,0-0.118-0.176-0.052-0.242
			c0.301-0.369,0.608-0.735,0.909-1.105l0.003,0.042c-0.118,0.199-0.324,0.343-0.409,0.565c0.222-0.186,0.422-0.399,0.628-0.601
			C48.48,25.698,48.908,25.257,49.435,24.953z"/>
		<path fill="#FFE72F" d="M10.421,26.761c0.052-0.095,0.17-0.092,0.265-0.075c0.379,0.059,0.726,0.242,1.039,0.454
			c0.307,0.186,0.608,0.389,0.899,0.601c0.245,0.176,0.5,0.343,0.712,0.562c0.369,0.297,0.748,0.578,1.111,0.879
			c0.15,0.098,0.278,0.232,0.441,0.307l0.02,0.01c-0.046,0.314-0.252,0.572-0.438,0.82c-0.239,0.242-0.461,0.513-0.762,0.683
			c-0.062,0.029-0.144,0.072-0.206,0.016c-1.275-1.065-2.549-2.134-3.827-3.203C9.915,27.454,10.189,27.123,10.421,26.761z"/>
		<path fill="#FFE72F" d="M53.043,26.764c0.16-0.065,0.373-0.147,0.529-0.033c0.245,0.369,0.52,0.716,0.768,1.082
			c-1.281,1.069-2.556,2.144-3.837,3.209c-0.059,0.042-0.131,0-0.19-0.023c-0.232-0.127-0.415-0.32-0.598-0.513
			c-0.226-0.209-0.405-0.464-0.539-0.739c-0.033-0.095-0.111-0.235-0.007-0.314c0.029-0.026,0.059-0.056,0.092-0.082l0.01-0.003
			c0.059-0.016,0.111-0.049,0.157-0.092c0.108-0.092,0.232-0.154,0.337-0.245c0.281-0.245,0.578-0.467,0.869-0.699
			c0.461-0.376,0.967-0.69,1.461-1.02C52.399,27.091,52.722,26.927,53.043,26.764z"/>
		<path fill="#FFE72F" d="M27.844,44.883c0.386-0.016,0.771-0.056,1.157-0.046c-0.072,0.278-0.121,0.565-0.101,0.856
			c0.046,0.745,0.343,1.448,0.716,2.085c0.082,0.147,0.186,0.281,0.265,0.431c-0.477-0.154-0.918-0.415-1.317-0.716
			c-0.628-0.477-1.134-1.098-1.523-1.781c-0.127-0.239-0.268-0.477-0.356-0.735C27.067,44.923,27.459,44.916,27.844,44.883z"/>
		<path fill="#FFE72F" d="M35.924,45.138c0.023-0.039,0.036-0.108,0.092-0.098c0.549,0.036,1.101,0.062,1.654,0.101
			c-0.046,0.154-0.134,0.288-0.199,0.431c-0.637,1.304-1.199,2.647-1.628,4.033c-0.454,1.474-0.762,3.004-0.804,4.549
			c-0.029,1.49,0.203,3.013,0.866,4.36c0.265,0.546,0.611,1.046,1.02,1.494c-0.288-0.124-0.546-0.297-0.817-0.451
			c-2.164-1.301-4.125-2.906-5.952-4.641c-0.922-0.876-1.804-1.791-2.657-2.736c-0.448-0.503-0.896-1.003-1.298-1.543
			c-0.363-0.474-0.693-0.967-1.013-1.471c-0.719-1.111-1.412-2.232-2.105-3.36c-0.065-0.111-0.144-0.219-0.193-0.34
			c0.33-0.059,0.663-0.082,0.997-0.124c0.199-0.016,0.395-0.056,0.598-0.056c0.585,1.167,1.258,2.291,2,3.366
			c1.415,2.049,3.085,3.938,5.056,5.471c0.569,0.441,1.164,0.85,1.784,1.219c0.268,0.157,0.533,0.317,0.817,0.444
			c-0.699-1.294-1.232-2.68-1.549-4.118c-0.314-1.454-0.389-2.997,0.033-4.438c0.124-0.405,0.271-0.811,0.487-1.177
			c0.144,0.667,0.284,1.337,0.477,1.994c0.193,0.654,0.412,1.307,0.735,1.912c0.173,0.314,0.376,0.631,0.683,0.833
			C34.835,48.874,35.133,46.9,35.924,45.138z"/>
		<path fill="#FFE72F" d="M38.303,45.187c0.605,0.039,1.213,0.078,1.811,0.17c-0.016,0.105-0.069,0.203-0.111,0.301
			c-0.288,0.641-0.494,1.314-0.657,1.997c-0.199,0.846-0.343,1.709-0.438,2.575c-0.036,0.258-0.042,0.523-0.085,0.781
			c-0.127-0.268-0.206-0.556-0.294-0.84c-0.242-0.84-0.369-1.709-0.399-2.582C38.11,46.782,38.149,45.975,38.303,45.187z"/>
	</g>
	<g>
		<path fill="#FFF945" d="M15.539,19.986c0.15-0.069,0.314-0.098,0.477-0.111c0.085-0.007,0.183,0.02,0.229,0.095
			c0.31,0.441,0.614,0.886,0.922,1.327c0.052,0.075,0.111,0.147,0.144,0.235c-0.193-0.085-0.376-0.193-0.575-0.261
			c-0.477-0.183-1.01-0.232-1.503-0.095c-0.451,0.121-0.85,0.389-1.16,0.732c-0.144,0.101-0.252,0.248-0.405,0.337
			c-0.101-0.124-0.203-0.252-0.301-0.379c-0.088-0.108-0.042-0.261,0.036-0.36c0.242-0.281,0.503-0.546,0.807-0.758
			C14.641,20.473,15.062,20.175,15.539,19.986z"/>
		<path fill="#FFF945" d="M47.761,19.982c0.072-0.124,0.232-0.124,0.353-0.098c0.219,0.023,0.418,0.121,0.614,0.212
			c0.379,0.18,0.722,0.425,1.079,0.647c0.252,0.183,0.487,0.389,0.686,0.628c0.085,0.095,0.193,0.19,0.199,0.327
			c0.016,0.092-0.046,0.167-0.098,0.232c-0.082,0.101-0.16,0.206-0.245,0.304c-0.17-0.062-0.258-0.235-0.405-0.333
			c-0.386-0.422-0.909-0.732-1.481-0.794c-0.435-0.052-0.879,0.023-1.278,0.193c-0.17,0.062-0.32,0.16-0.487,0.226
			c0.131-0.226,0.291-0.428,0.431-0.644C47.343,20.587,47.549,20.283,47.761,19.982z"/>
		<path fill="#FFF945" d="M47.072,24.551l0.003-0.003c0.039,0.199-0.016,0.405-0.105,0.588c-0.294,0.595-0.827,1.065-1.445,1.304
			c-0.209,0.056-0.422,0.124-0.637,0.141c-0.01-0.007-0.026-0.02-0.036-0.026c-0.059-0.229,0.046-0.451,0.042-0.68
			c0.02-0.069,0.036-0.15,0.088-0.203c0.118-0.046,0.248-0.052,0.369-0.092c0.415-0.127,0.83-0.288,1.183-0.549
			C46.738,24.898,46.872,24.685,47.072,24.551z"/>
		<path fill="#FFF945" d="M16.935,24.561c0.101,0.049,0.18,0.131,0.252,0.216c0.422,0.428,0.997,0.667,1.575,0.804
			c0.131,0.033,0.304,0.016,0.389,0.144c0.065,0.088,0.016,0.196,0.01,0.291c0.01,0.078,0.075,0.141,0.075,0.222
			c0,0.114-0.016,0.229-0.033,0.34c-0.242-0.003-0.471-0.082-0.699-0.141c-0.575-0.219-1.075-0.634-1.379-1.167
			C16.99,25.061,16.902,24.813,16.935,24.561z"/>
	</g>
</g>
</svg>
