<?xml version="1.0" encoding="utf-8"?>
<!-- Generator: Adobe Illustrator 22.0.0, SVG Export Plug-In . SVG Version: 6.00 Build 0)  -->
<svg version="1.1" id="Camada_1" xmlns="http://www.w3.org/2000/svg" xmlns:xlink="http://www.w3.org/1999/xlink" x="0px" y="0px"
	 width="64px" height="64px" viewBox="0 0 64 64" style="enable-background:new 0 0 64 64;" xml:space="preserve">
<g>
	<g>
		<path style="fill:#FEBC58;" d="M34.931,0c1.083,0.448,2.321,0.251,3.501,0.851c-10.184,11.836-18.173,25.03-25.129,39.167
			c1.851-0.361,3.377-0.891,4.978-1.044c0.046,0.529-0.168,0.958-0.452,1.395c-2.06,3.18-4.076,6.388-6.165,9.55
			c-0.562,0.85-0.961,1.85-1.871,2.443c-2.337-2.337-4.197-5.003-5.538-8.027c0.565-0.087,0.821-0.525,1.093-0.952
			c1.177-1.844,2.349-3.691,3.539-5.527c4.976-7.673,9.955-15.344,14.937-23.013c2.93-4.512,5.86-9.024,8.807-13.525
			C33.016,0.729,33.098,0.291,32.335,0C33.2,0,34.065,0,34.931,0z"/>
		<path style="fill:#FECB3E;" d="M27.766,0.339c0.32-0.276,0.829,0.068,1.109-0.339c0.288,0,0.577,0,0.865,0
			c0.216,0.283,0.433,0.28,0.649,0c0.216,0,0.433,0,0.649,0c0.055,0.394-0.173,0.671-0.369,0.977
			c-1.084,1.689-2.139,3.398-3.229,5.083c-4.929,7.614-9.868,15.221-14.8,22.832c-2.495,3.851-4.965,7.719-7.493,11.548
			c-0.474,0.718-0.747,1.673-1.744,1.945c-0.365-1.008-0.73-2.016-1.095-3.024c0.776,0.097,0.936-0.588,1.224-1.033
			c3.753-5.784,7.473-11.59,11.224-17.376c3.907-6.027,7.859-12.026,11.734-18.074C26.992,2.096,27.814,1.418,27.766,0.339z"/>
		<path style="fill:#FEC34D;" d="M3.403,42.385c0.997-0.272,1.27-1.227,1.744-1.945c2.527-3.83,4.997-7.698,7.493-11.548
			c4.932-7.611,9.871-15.218,14.8-22.832c1.091-1.685,2.145-3.394,3.229-5.083C30.865,0.671,31.092,0.394,31.038,0
			c0.433,0,0.865,0,1.298,0c0.763,0.291,0.681,0.729,0.296,1.318c-2.946,4.501-5.876,9.013-8.807,13.525
			c-4.981,7.67-9.961,15.34-14.937,23.013c-1.19,1.835-2.363,3.682-3.539,5.527c-0.272,0.427-0.528,0.865-1.093,0.952
			C3.971,43.685,3.687,43.035,3.403,42.385z"/>
		<path style="fill:#FEBC58;" d="M1.191,28.116c0.07,0.01,0.14,0.02,0.21,0.029c0.012,0.996,0.023,1.993,0.035,2.99
			c-0.01,0.932-0.02,1.864-0.03,2.796c-0.071,0.008-0.142,0.016-0.214,0.024C1.191,32.009,1.191,30.063,1.191,28.116z"/>
		<path style="fill:#FEC34D;" d="M30.389,0c-0.216,0.28-0.433,0.283-0.649,0C29.956,0,30.172,0,30.389,0z"/>
		<path style="fill:#FE944E;" d="M59.838,17.887c1.15,2.504,2.156,5.051,2.308,7.849c-0.592,0.03-0.712,0.577-0.948,0.939
			c-3.534,5.444-7.04,10.907-10.564,16.358c-3.66,5.663-7.331,11.318-11.004,16.973c-0.198,0.304-0.431,0.58-0.375,0.975
			c-2.825,0.874-5.725,0.988-8.65,0.862c0.123-0.294,0.205-0.616,0.375-0.879c3.463-5.353,6.96-10.684,10.386-16.06
			c0.68-1.066,1.654-2.011,1.782-3.381c2.596-2.802,5.431-5.358,8.207-7.973c2.139-2.015,4.333-3.971,6.623-6.064
			c-1.584,0.107-3.007,0.203-4.43,0.299c0.149-1.167,1.018-1.948,1.605-2.862C56.677,22.554,58.053,20.083,59.838,17.887z"/>
		<path style="fill:#FEAA54;" d="M9.793,52.362c0.91-0.593,1.309-1.593,1.871-2.443c2.088-3.161,4.104-6.37,6.165-9.55
			c0.283-0.437,0.498-0.866,0.452-1.395c3.791-0.667,7.599-1.168,11.459-1.151c0.076,0.44-0.197,0.743-0.412,1.073
			c-3.834,5.893-7.666,11.787-11.498,17.682c-0.294,0.453-0.576,0.913-0.659,1.462C14.363,56.599,11.891,54.724,9.793,52.362z"/>
		<path style="fill:#FEA553;" d="M17.171,58.039c0.083-0.549,0.365-1.009,0.659-1.462c3.831-5.895,7.664-11.789,11.498-17.682
			c0.215-0.33,0.488-0.633,0.412-1.073c1.581-0.208,3.168-0.206,4.756-0.112c0.009,0.138,0.018,0.276,0.027,0.415
			c-1.982,3.294-3.93,6.606-5.621,10.063c-2.386,4.879-4.508,9.87-6.462,14.935c-0.065,0.168-0.124,0.337-0.191,0.504
			c-0.082,0.205-0.18,0.417-0.453,0.365c-0.369-0.071-0.273-0.376-0.247-0.606c0.077-0.678,0.112-1.371,0.29-2.024
			c0.223-0.814,0.036-1.195-0.809-1.487C19.686,59.41,18.314,58.949,17.171,58.039z"/>
		<path style="fill:#FEA051;" d="M47.494,28.389c-2.445,0.369-4.9,0.655-7.365,0.846c0.052-0.559,0.358-1.004,0.65-1.454
			c2.691-4.139,5.405-8.264,8.047-12.434c0.383-0.605,1.063-1.103,1.024-1.946c1.267-1.224,2.728-2.201,4.133-3.25
			c0.37-0.276,0.616-0.223,0.903,0.116c0.76,0.902,1.614,1.729,2.166,2.793c-3.005,4.66-6.014,9.316-9.009,13.982
			C47.781,27.448,47.361,27.813,47.494,28.389z"/>
		<path style="fill:#FED825;" d="M1.405,33.931c0.01-0.932,0.02-1.864,0.03-2.796c0.604-0.009,0.718-0.568,0.952-0.927
			c1.943-2.976,3.842-5.981,5.775-8.963c3.75-5.785,7.517-11.558,11.266-17.343c0.289-0.447,0.605-0.904,0.575-1.485
			c1.493-0.543,2.963-1.158,4.533-1.466c0.025,0.382-0.144,0.698-0.342,1.003c-4.525,6.991-9.052,13.982-13.575,20.974
			c-2.476,3.828-4.929,7.672-7.438,11.478c-0.412,0.626-0.61,1.506-1.523,1.708C1.508,35.395,1.347,34.676,1.405,33.931z"/>
		<path style="fill:#FECF36;" d="M1.658,36.116c0.913-0.203,1.111-1.083,1.523-1.708c2.509-3.806,4.962-7.65,7.438-11.478
			c4.523-6.993,9.05-13.983,13.575-20.974c0.198-0.306,0.367-0.621,0.342-1.003c1.053-0.331,2.137-0.492,3.23-0.612
			c0.048,1.079-0.774,1.757-1.276,2.54c-3.875,6.048-7.827,12.047-11.734,18.074c-3.751,5.786-7.471,11.591-11.224,17.376
			c-0.289,0.445-0.448,1.13-1.224,1.033C2.145,38.269,1.678,37.237,1.658,36.116z"/>
		<path style="fill:#FE9A51;" d="M47.494,28.389c-0.133-0.576,0.287-0.941,0.548-1.348c2.995-4.666,6.004-9.322,9.009-13.982
			c1.181,1.464,2.105,3.076,2.787,4.828c-1.786,2.195-3.161,4.667-4.684,7.036c-0.587,0.913-1.456,1.694-1.605,2.862
			C51.531,27.987,49.512,28.188,47.494,28.389z"/>
		<path style="fill:#FEBC58;" d="M62.579,34.386c-0.508,5.196-2.34,9.908-5.251,14.21c-2.058,3.042-4.597,5.626-7.635,7.699
			c-0.699,0.477-1.471,0.845-2.21,1.263c-0.052-0.42,0.122-0.771,0.339-1.109c1.182-1.838,2.359-3.678,3.545-5.513
			c3.286-5.084,6.57-10.171,9.873-15.244C61.579,35.17,61.833,34.512,62.579,34.386z"/>
		<path style="fill:#FE9A51;" d="M43.148,41.524c-0.128,1.369-1.102,2.314-1.782,3.381c-3.426,5.376-6.923,10.707-10.386,16.06
			c-0.171,0.264-0.252,0.585-0.375,0.879c-1.784,0.099-3.495-0.353-5.335-0.69c1-1.611,2.227-2.961,3.417-4.328
			c4.47-5.137,9.103-10.124,13.965-14.895C42.804,41.78,42.982,41.658,43.148,41.524z"/>
		<path style="fill:#FEA553;" d="M62.575,27.683c0.061,1.08,0.122,2.161,0.183,3.241c-0.602-0.038-0.913,0.381-1.185,0.804
			c-1.771,2.745-3.516,5.508-5.294,8.249c-3.889,5.995-7.795,11.979-11.684,17.974c-0.29,0.447-0.601,0.906-0.582,1.484
			c-0.952,0.272-1.792,0.851-2.784,1.013c-0.042-0.387,0.146-0.694,0.343-0.998c3.197-4.935,6.396-9.869,9.592-14.804
			c3.293-5.086,6.57-10.184,9.893-15.251C61.467,28.769,61.671,27.896,62.575,27.683z"/>
		<path style="fill:#FEAA54;" d="M44.013,59.435c-0.019-0.578,0.292-1.037,0.582-1.484c3.889-5.995,7.795-11.979,11.684-17.974
			c1.778-2.741,3.522-5.504,5.294-8.249c0.273-0.423,0.583-0.842,1.185-0.804c0.153,1.165-0.077,2.309-0.179,3.461
			c-0.746,0.126-0.999,0.785-1.339,1.307c-3.303,5.073-6.587,10.16-9.873,15.244c-1.186,1.835-2.363,3.676-3.545,5.513
			c-0.217,0.338-0.39,0.689-0.339,1.109C46.342,58.213,45.286,59.025,44.013,59.435z"/>
		<path style="fill:#FEA051;" d="M62.575,27.683c-0.905,0.212-1.109,1.085-1.52,1.712c-3.323,5.067-6.599,10.164-9.893,15.251
			c-3.196,4.936-6.395,9.87-9.592,14.804c-0.197,0.304-0.385,0.611-0.343,0.998c-0.632,0.272-1.272,0.515-1.973,0.534
			c-0.056-0.395,0.178-0.671,0.375-0.975c3.672-5.655,7.343-11.31,11.004-16.973c3.524-5.451,7.03-10.914,10.564-16.358
			c0.235-0.362,0.355-0.91,0.948-0.939C62.532,26.332,62.545,27.01,62.575,27.683z"/>
		<path style="fill:#FEA553;" d="M49.851,13.4c0.039,0.843-0.641,1.341-1.024,1.946c-2.642,4.171-5.356,8.295-8.047,12.434
			c-0.293,0.45-0.599,0.895-0.65,1.454c-1.715,0.407-3.47,0.477-5.556,0.717C38.984,23.539,43.96,18.054,49.851,13.4z"/>
		<path style="fill:#FEAA54;" d="M34.522,38.125c-0.009-0.138-0.018-0.276-0.027-0.415C34.865,37.826,34.667,37.977,34.522,38.125z"
			/>
		<path style="fill:#FEE410;" d="M20.004,2.417c0.03,0.58-0.286,1.038-0.575,1.485C15.679,9.687,11.912,15.46,8.162,21.245
			c-1.933,2.982-3.832,5.987-5.775,8.963c-0.235,0.359-0.348,0.918-0.952,0.927c-0.011-0.997-0.023-1.993-0.034-2.99
			c0.43-6.333,2.777-11.901,6.745-16.811C11.348,7.371,15.347,4.453,20.004,2.417z"/>
	</g>
</g>
<g>
	<g>
		<path style="fill:#FEBC58;" d="M5.691,46.998c-0.511-0.58-0.832-1.267-1.105-1.98c1.453-2.568,3.161-4.973,4.763-7.444
			c6.987-10.775,13.96-21.559,20.94-32.338c1.074-1.658,2.258-3.249,3.214-4.984c0.145-0.168,0.4-0.094,0.551-0.252
			c0.361,0,0.721,0,1.082,0c0.357,0.443,0.969,0.045,1.351,0.409c-0.671,0.389-1.112,0.983-1.527,1.623
			C26.956,14.39,18.932,26.734,10.953,39.106c-1.619,2.511-3.249,5.015-4.892,7.511C5.962,46.769,5.863,46.918,5.691,46.998z"/>
		<path style="fill:#FEC052;" d="M33.619,0.226c-0.047,0.937-0.772,1.51-1.225,2.22c-2.43,3.81-4.881,7.605-7.341,11.396
			c-5.253,8.094-10.518,16.18-15.774,24.272c-1.308,2.014-2.603,4.037-3.893,6.062c-0.215,0.338-0.408,0.68-0.801,0.842
			c-0.281-0.321-0.429-0.708-0.555-1.107c1.047-1.976,2.36-3.786,3.572-5.657c5.404-8.336,10.79-16.683,16.213-25.006
			c2.515-3.86,4.967-7.76,7.524-11.592c0.345-0.517,0.57-1.076,0.766-1.655c0.216,0,0.433,0,0.649,0
			C32.998,0.249,33.378-0.028,33.619,0.226z"/>
		<path style="fill:#FEC646;" d="M3.489,42.647c-0.175-0.444-0.35-0.888-0.525-1.332c3.786-5.694,7.458-11.462,11.18-17.197
			c2.39-3.683,4.778-7.368,7.155-11.059C24.104,8.703,26.985,4.397,29.727,0c0.505,0,1.01,0,1.514,0
			c0.317,0.495-0.095,0.815-0.31,1.151c-3.085,4.817-6.196,9.616-9.308,14.415C16.006,24.228,10.4,32.898,4.777,41.556
			C4.474,42.024,4.3,42.74,3.489,42.647z"/>
		<path style="fill:#FED826;" d="M22.142,1.689c0.393-0.247,0.822-0.376,1.284-0.402c0.941-0.073,0.569,0.466,0.352,0.833
			c-0.569,0.96-1.191,1.889-1.801,2.824c-4.288,6.578-8.528,13.187-12.805,19.773c-2.178,3.353-4.35,6.709-6.523,10.066
			c-0.247,0.381-0.408,1.008-1.117,0.723c-0.354-0.294,0.108-0.853-0.36-1.11c0-0.216,0-0.433,0-0.649
			c1.714-2.054,2.966-4.418,4.44-6.632c2.413-3.623,4.762-7.29,7.122-10.948c2.77-4.292,5.58-8.559,8.295-12.887
			C21.373,2.731,21.72,2.183,22.142,1.689z"/>
		<path style="fill:#FEDB20;" d="M22.142,1.689c-0.171,1.078-0.954,1.836-1.497,2.699c-2.234,3.545-4.569,7.026-6.841,10.547
			c-3.572,5.538-7.095,11.108-10.711,16.617c-0.519,0.791-0.818,1.875-1.92,2.194c0-0.361,0-0.721,0-1.082
			c0.224-0.264,0.038-0.598,0.151-0.881c2.064-3.204,4.16-6.388,6.224-9.591c4.267-6.62,8.571-13.215,12.831-19.839
			C20.913,1.99,21.547,1.89,22.142,1.689z"/>
		<path style="fill:#FEE213;" d="M16.504,4.241c0.61-0.413,1.205-0.854,1.947-1.012c0.388,0.371,0.414,0.387,0.135,0.84
			c-0.471,0.767-0.944,1.536-1.441,2.286c-2.905,4.383-5.705,8.835-8.576,13.241c-2.006,3.078-4.063,6.123-5.993,9.25
			c-0.261,0.423-0.483,0.9-1.018,1.07c-0.114,0.01-0.198-0.038-0.257-0.134c-0.093-0.403,0.111-0.839-0.13-1.227
			c0-0.288,0-0.577,0-0.865c0.454-0.268,0.068-0.833,0.404-1.143c0.396,0.427,0.531,0.023,0.694-0.228
			c0.786-1.208,1.567-2.42,2.345-3.633C8.562,16.526,12.625,10.443,16.504,4.241z"/>
		<path style="fill:#FEC34C;" d="M32.106,0c0.392,0.647-0.101,1.103-0.393,1.553c-3.098,4.786-6.225,9.554-9.331,14.335
			c-4.941,7.608-9.876,15.22-14.805,22.836c-0.955,1.475-1.86,2.981-2.816,4.455c-0.182,0.281-0.298,0.68-0.73,0.731
			c-0.098-0.211-0.196-0.422-0.295-0.632c1.558-2.585,3.242-5.089,4.878-7.623c3.218-4.982,6.442-9.96,9.677-14.931
			c2.901-4.459,5.773-8.936,8.702-13.377c1.384-2.099,2.762-4.206,4.075-6.353C31.297,0.621,31.564,0.289,31.89,0
			C31.962,0,32.034,0,32.106,0z"/>
		<path style="fill:#FECA3F;" d="M29.727,0c0.018,0.905-0.617,1.524-1.049,2.197c-3.082,4.798-6.219,9.56-9.325,14.342
			C14.411,24.149,9.48,31.765,4.541,39.376C4.086,40.078,3.897,41,2.964,41.315c-0.072-0.216-0.144-0.432-0.216-0.648
			c3.2-4.998,6.44-9.97,9.668-14.95c5.322-8.21,10.619-16.436,15.975-24.624c0.236-0.361,0.377-0.78,0.686-1.094
			C29.294,0,29.511,0,29.727,0z"/>
		<path style="fill:#FECA3F;" d="M29.078,0c0.033,0.461-0.189,0.823-0.429,1.192c-3.824,5.868-7.65,11.733-11.457,17.612
			c-4.49,6.933-8.957,13.881-13.452,20.811c-0.257,0.396-0.379,0.971-0.992,1.053c-0.081-0.219-0.161-0.438-0.242-0.657
			c0.887-1.565,1.938-3.026,2.915-4.533c5.398-8.331,10.787-16.668,16.194-24.993c1.9-2.925,3.817-5.841,5.666-8.8
			c0.253-0.405,0.542-0.781,0.229-1.278C27.814,0.064,28.37,0.423,28.645,0C28.789,0,28.934,0,29.078,0z"/>
		<path style="fill:#FEC34C;" d="M31.89,0c-1.088,2.018-2.436,3.871-3.646,5.811c-2.787,4.468-5.784,8.8-8.534,13.293
			c-2.038,3.329-4.307,6.515-6.429,9.794c-2.763,4.27-5.469,8.577-8.234,12.846c-0.36,0.555-0.663,1.205-1.31,1.535
			c-0.257-0.142-0.163-0.422-0.248-0.631c0.921-0.589,1.323-1.594,1.884-2.45c3.285-5.016,6.514-10.069,9.774-15.101
			c4.959-7.653,9.94-15.293,14.877-22.961C30.463,1.453,31.02,0.815,31.241,0C31.457,0,31.674,0,31.89,0z"/>
		<path style="fill:#FEED80;" d="M1.414,31.791c-0.082,0.291,0.112,0.658-0.241,0.874c0-0.937,0-1.875,0-2.812
			c0.066-0.097,0.128-0.1,0.186,0.007l0.067-0.03C1.88,30.486,1.733,31.139,1.414,31.791z"/>
		<path style="fill:#FEF297;" d="M1.358,29.86c-0.062-0.006-0.124-0.008-0.186-0.007c0-0.433,0-0.865,0-1.298
			C1.585,28.94,1.328,29.42,1.358,29.86z"/>
		<path style="fill:#FECD79;" d="M33.619,0.226C33.324,0.181,32.981,0.313,32.755,0c0.433,0,0.865,0,1.298,0
			C33.964,0.182,33.796,0.213,33.619,0.226z"/>
		<path style="fill:#FE914D;" d="M37.961,61.272c-0.829,0.263-1.668,0.467-2.549,0.4c-0.483,0.077-1.095,0.331-1.391-0.127
			c-0.308-0.475,0.198-0.933,0.464-1.344c5.722-8.87,11.459-17.73,17.214-26.578c0.119-0.183,0.2-0.382,0.29-0.578
			c1.837-1.949,3.937-3.618,6.011-5.545c-0.524,0-0.875,0-1.226,0c-0.349-0.388-0.124-0.746,0.093-1.066
			c1.12-1.655,2.138-3.375,3.27-5.021c0.215-0.313,0.409-0.696,0.901-0.631c0.273,1.23,0.928,2.358,0.98,3.648
			c-6.812,10.458-13.562,20.956-20.368,31.418c-0.98,1.507-2.024,2.975-2.913,4.54C38.535,60.74,38.237,60.993,37.961,61.272z"/>
		<path style="fill:#FE964E;" d="M51.988,33.045c0.071,0.463-0.137,0.832-0.378,1.202c-3.62,5.565-7.241,11.13-10.851,16.701
			c-2.03,3.132-4.045,6.272-6.054,9.417c-0.222,0.347-0.728,0.696-0.499,1.109c0.223,0.402,0.799,0.095,1.206,0.197
			c-1.522,0.36-3.065,0.196-4.603,0.184c-0.387-0.509,0.006-0.884,0.246-1.256c3.31-5.133,6.627-10.262,9.961-15.38
			c0.883-1.355,1.741-2.723,2.556-4.119C46.253,38.286,49.063,35.605,51.988,33.045z"/>
		<path style="fill:#FEBA58;" d="M5.691,46.998c0.04-0.37,0.219-0.678,0.418-0.983c3.878-5.962,7.756-11.924,11.63-17.889
			c4.969-7.651,9.937-15.304,14.902-22.957c0.88-1.356,1.756-2.715,2.615-4.085c0.294-0.468,0.654-0.75,1.229-0.674
			c0.647-0.026,1.453-0.018,1.756,0.469c0.214,0.344-0.532,0.84-0.87,1.235C30.865,9.7,25.402,18.008,20.389,26.628
			c-0.179,0.308-0.392,0.597-0.589,0.894c-0.926,0.73-1.337,1.829-1.946,2.776c-3.243,5.048-6.496,10.091-9.791,15.106
			c-0.336,0.511-0.612,1.058-0.969,1.555c-0.248,0.347-0.458,0.744-0.939,0.829C5.904,47.582,5.762,47.311,5.691,46.998z"/>
		<path style="fill:#FEA753;" d="M29.078,37.856c1.699-0.276,3.413-0.161,5.121-0.185c0.291-0.004,0.657-0.011,0.319,0.452
			c-1.247-0.208-1.972,0.304-2.672,1.401c-3.973,6.223-8.02,12.399-12.013,18.61c-0.23,0.358-0.42,0.772-0.909,0.864
			c-0.861-0.307-1.634-0.779-2.391-1.28c-0.32-0.531,0.098-0.885,0.334-1.252c3.454-5.374,6.919-10.741,10.438-16.073
			C27.872,39.532,28.2,38.499,29.078,37.856z"/>
		<path style="fill:#FE9F51;" d="M46.168,28.541c-1.358,0.267-2.729,0.419-4.113,0.458c-0.195-0.57,0.197-0.961,0.453-1.37
			c2.848-4.546,5.828-9.007,8.727-13.521c0.757-1.18,1.489-2.377,2.277-3.537c0.554-0.689,1.072-0.813,1.655,0.006
			c0.427,0.6,1.014,1.082,1.34,1.764c-0.048,0.289-0.161,0.549-0.323,0.794C52.811,18.248,49.521,23.415,46.168,28.541z"/>
		<path style="fill:#FEAA54;" d="M29.078,37.856c-1.61,2.962-3.575,5.699-5.396,8.526c-2.268,3.52-4.554,7.028-6.822,10.548
			c-0.151,0.235-0.22,0.523-0.327,0.786c-0.857-0.406-1.633-0.939-2.379-1.518c-0.309-0.481,0.058-0.82,0.276-1.162
			c2.333-3.662,4.725-7.286,7.081-10.933c1.11-1.718,2.183-3.46,3.334-5.152c0.222-0.326,0.398-0.685,0.771-0.874
			C26.756,37.782,27.918,37.842,29.078,37.856z"/>
		<path style="fill:#FEA352;" d="M53.511,10.571c-0.102,0.697-0.475,1.275-0.843,1.845c-3.308,5.122-6.628,10.237-9.938,15.358
			c-0.252,0.391-0.452,0.816-0.676,1.225c-1.125,0.259-2.265,0.406-3.419,0.436c-0.908,0.109-0.637-0.45-0.417-0.835
			c0.517-0.904,1.067-1.791,1.651-2.655c1.99-2.946,3.839-5.985,5.84-8.925C48.144,14.669,50.691,12.455,53.511,10.571z"/>
		<path style="fill:#FEAE55;" d="M25.616,38.077c-1.959,3.375-4.184,6.58-6.292,9.859c-1.606,2.497-3.234,4.98-4.842,7.477
			c-0.151,0.235-0.221,0.522-0.328,0.785c-0.872-0.535-1.663-1.171-2.384-1.897c-0.235-0.294-0.058-0.54,0.099-0.78
			c3.163-4.833,6.28-9.696,9.429-14.538c0.119-0.183,0.28-0.326,0.425-0.485C23.007,38.237,24.301,38.064,25.616,38.077z"/>
		<path style="fill:#FEA352;" d="M18.924,58.997c3.175-4.898,6.355-9.793,9.524-14.695c1.302-2.014,2.531-4.077,3.895-6.047
			c0.549-0.793,1.421-0.486,2.175-0.132c-2.561,4.104-4.824,8.372-6.955,12.712c-0.826,0.667-1.2,1.659-1.767,2.506
			c-1.072,1.603-2.11,3.231-3.179,4.837c-0.397,0.596-0.737,1.22-0.9,1.927C20.729,59.879,19.817,59.463,18.924,58.997z"/>
		<path style="fill:#FECE39;" d="M27.509,0.407c1.001,0.03,0.579,0.527,0.304,0.953c-1.715,2.656-3.434,5.309-5.154,7.961
			c-4.966,7.654-9.935,15.307-14.9,22.962c-1.466,2.26-2.928,4.524-4.377,6.795c-0.238,0.373-0.508,0.694-0.876,0.934
			c-0.141-0.571-0.282-1.143-0.424-1.714c1.317-1.625,2.369-3.432,3.497-5.182c2.732-4.236,5.478-8.463,8.207-12.7
			c3.996-6.206,8.05-12.373,12.029-18.59c0.235-0.367,0.481-0.724,0.414-1.193C26.622,0.366,27.074,0.433,27.509,0.407z"/>
		<path style="fill:#FE9C50;" d="M46.168,28.541c-0.036-0.379,0.111-0.705,0.309-1.009c3.236-4.97,6.475-9.938,9.718-14.904
			c0.075-0.115,0.207-0.193,0.312-0.288c0.726,0.767,1.333,1.614,1.739,2.596c-0.025,0.328-0.14,0.619-0.322,0.895
			c-2.589,3.913-5.129,7.859-7.656,11.812c-0.117,0.184-0.278,0.327-0.423,0.485c-0.686,0.274-1.406,0.217-2.12,0.225
			c-0.349,0.203-0.762-0.018-1.114,0.166C46.463,28.527,46.315,28.534,46.168,28.541z"/>
		<path style="fill:#FEB156;" d="M21.723,38.5c-0.656,1.647-1.768,3.024-2.71,4.497c-2.357,3.686-4.782,7.329-7.175,10.992
			c-0.055,0.084-0.047,0.208-0.068,0.313c-0.828-0.609-1.543-1.333-2.178-2.138c-0.072-0.761,0.469-1.257,0.827-1.81
			c2.287-3.536,4.618-7.044,6.83-10.629c0.243-0.394,0.554-0.649,1.001-0.743C19.408,38.825,20.532,38.421,21.723,38.5z"/>
		<path style="fill:#FE9D4F;" d="M40.982,60.536c-0.48,0.231-0.981,0.385-1.514,0.43c-0.215-0.698,0.272-1.155,0.59-1.655
			c2.836-4.467,5.729-8.897,8.613-13.334c4.394-6.76,8.737-13.554,13.171-20.287c0.099-0.15,0.183-0.311,0.344-0.407
			c0.28,0.462,0.213,0.977,0.226,1.479c0.232,0.648-0.024,1.189-0.368,1.717c-3.341,5.117-6.662,10.248-9.973,15.385
			c-3.175,4.925-6.397,9.82-9.558,14.754C42.073,59.305,41.721,60.079,40.982,60.536z"/>
		<path style="fill:#FE984F;" d="M43.571,41.101c-0.065,1.108-0.806,1.898-1.357,2.756c-3.656,5.689-7.346,11.357-11.031,17.028
			c-0.197,0.303-0.432,0.577-0.375,0.972c-0.365-0.009-0.729-0.017-1.094-0.026c-0.358-0.175-0.77,0.03-1.125-0.16l-0.082,0.02
			l-0.078-0.032c-0.408-0.559,0.045-0.948,0.294-1.352c1.982-3.218,4.119-6.337,6.136-9.532c0.347-0.55,0.659-1.114,0.907-1.714
			C38.241,46.282,40.855,43.641,43.571,41.101z"/>
		<path style="fill:#FED132;" d="M26.229,0.632c0.864,0.258,0.218,0.685,0.053,0.943c-1.694,2.664-3.417,5.31-5.136,7.959
			c-4.96,7.645-9.924,15.287-14.882,22.933c-1.151,1.776-2.275,3.57-3.427,5.345c-0.165,0.254-0.213,0.783-0.756,0.484
			c-0.077-0.366-0.153-0.731-0.23-1.097c0.54-1.433,1.52-2.61,2.338-3.87c4.528-6.976,9.044-13.96,13.56-20.943
			c2.481-3.837,5.059-7.613,7.404-11.539C25.476,0.593,25.858,0.64,26.229,0.632z"/>
		<path style="fill:#FE974E;" d="M62.186,25.283c-0.205,1.142-1.052,1.927-1.64,2.84c-4.796,7.445-9.644,14.856-14.464,22.285
			c-2.01,3.098-3.994,6.212-5.979,9.325c-0.247,0.388-0.425,0.821-0.635,1.233c-0.503,0.102-1.005,0.204-1.508,0.305
			c1.502-2.781,3.348-5.344,5.058-7.992c4.96-7.681,9.954-15.34,14.927-23.013c1.111-1.715,2.181-3.457,3.291-5.173
			c0.183-0.282,0.328-0.671,0.78-0.663C62.222,24.685,62.188,24.987,62.186,25.283z"/>
		<path style="fill:#FED42D;" d="M25.155,0.848c0.489,0.417-0.059,0.651-0.207,0.882c-2.657,4.142-5.34,8.267-8.016,12.396
			c-4.884,7.535-9.768,15.07-14.656,22.602c-0.114,0.175-0.28,0.316-0.422,0.472c-0.107-0.565-0.214-1.13-0.321-1.695
			c0.487-0.017,0.644-0.438,0.846-0.752c5.944-9.189,11.877-18.385,17.813-27.579c1.109-1.718,2.229-3.43,3.336-5.15
			c0.165-0.257,0.645-0.591-0.101-0.738C23.972,1.021,24.543,0.852,25.155,0.848z"/>
		<path style="fill:#FEA350;" d="M40.982,60.536c2.086-3.228,4.171-6.456,6.258-9.683c4.917-7.599,9.831-15.2,14.762-22.79
			c0.269-0.414,0.432-0.817,0.41-1.301c0.316,0.774,0.207,1.588,0.215,2.39c0.082,0.146,0.091,0.3,0.054,0.459
			c-4.781,7.232-9.413,14.56-14.165,21.811c-1.851,2.825-3.564,5.744-5.595,8.45C42.275,60.095,41.682,60.471,40.982,60.536z"/>
		<path style="fill:#FEB557;" d="M18.25,38.982c-0.661,0.35-0.803,1.068-1.167,1.63c-2.492,3.854-4.993,7.702-7.492,11.552
			c-0.867-0.742-1.551-1.637-2.167-2.589c-0.109-0.233,0.008-0.419,0.136-0.594c1.929-2.649,3.619-5.454,5.377-8.215
			c0.2-0.315,0.424-0.577,0.775-0.716C15.181,39.507,16.703,39.19,18.25,38.982z"/>
		<path style="fill:#FEAA51;" d="M42.922,59.874c0.175-0.756,0.668-1.349,1.072-1.974c3.898-6.025,7.827-12.03,11.735-18.048
			c2.012-3.099,3.996-6.217,6.004-9.319c0.224-0.346,0.355-0.805,0.854-0.901c0.316,1.138,0.051,2.098-0.606,3.107
			c-5.509,8.466-10.991,16.95-16.485,25.425c-0.195,0.302-0.376,0.613-0.627,0.875C44.263,59.418,43.612,59.691,42.922,59.874z"/>
		<path style="fill:#FE984F;" d="M49.845,28.128c0.052-0.688,0.534-1.176,0.874-1.703c2.484-3.846,5.013-7.663,7.528-11.489
			c0.676,0.926,1.318,1.869,1.564,3.018c-1.787,2.732-3.53,5.492-5.322,8.221c-0.316,0.481-0.65,0.951-0.693,1.552
			C52.486,27.943,51.174,28.12,49.845,28.128z"/>
		<path style="fill:#FEB052;" d="M44.869,59.04c0.389-1.497,1.462-2.605,2.263-3.854c4.648-7.243,9.376-14.435,14.036-21.671
			c0.749-1.164,1.866-2.255,1.42-3.882c0.013-0.16,0.027-0.319,0.04-0.48c0.321,1.533,0.215,3.064-0.031,4.593
			c-2.007,3.367-4.237,6.592-6.352,9.89c-2.874,4.481-5.778,8.943-8.667,13.415c-0.218,0.338-0.47,0.633-0.761,0.901
			C46.242,58.449,45.63,58.877,44.869,59.04z"/>
		<path style="fill:#FEB958;" d="M13.713,40.05c-1.652,2.577-3.295,5.159-4.961,7.726c-0.405,0.624-0.882,1.201-1.327,1.799
			c-0.528-0.521-0.956-1.113-1.27-1.787c2.294-3.505,4.59-7.009,6.881-10.516c2.018-3.089,4.028-6.184,6.045-9.273
			c0.167-0.255,0.223-0.706,0.719-0.478c-2.221,3.763-4.169,7.669-6.038,11.615C13.65,39.374,13.01,39.719,13.713,40.05z"/>
		<path style="fill:#FEB653;" d="M46.816,57.953c1.391-2.627,3.138-5.03,4.746-7.52c3.495-5.413,6.996-10.821,10.491-16.234
			c0.138-0.214,0.239-0.449,0.543-0.452c0.074,0.969-0.129,1.902-0.377,2.828c-1.173,1.461-2.102,3.088-3.113,4.656
			c-3.101,4.81-6.221,9.608-9.336,14.41c-0.235,0.362-0.461,0.732-0.791,1.021C48.341,57.23,47.689,57.776,46.816,57.953z"/>
		<path style="fill:#FE954E;" d="M53.795,27.727c-0.498-0.348-0.173-0.718,0.021-1.02c1.753-2.728,3.522-5.447,5.3-8.159
			c0.165-0.251,0.286-0.605,0.694-0.594c0.545,0.884,0.969,1.819,1.228,2.828c-1.443,1.516-2.284,3.443-3.488,5.123
			c-0.344,0.48-0.843,0.906-0.776,1.595C55.798,27.809,54.787,27.646,53.795,27.727z"/>
		<path style="fill:#FEA753;" d="M45.709,17.02c-0.166,1.119-0.975,1.899-1.535,2.795c-1.824,2.919-3.742,5.781-5.597,8.681
			c-0.163,0.256-0.814,0.687,0.058,0.939c-1.252,0.316-2.539,0.348-4.073,0.536C37.868,25.112,41.495,20.818,45.709,17.02z"/>
		<path style="fill:#FE9B50;" d="M35.766,49.06c0.117,1.376-0.948,2.208-1.562,3.214c-1.735,2.845-3.592,5.615-5.411,8.408
			c-0.199,0.306-0.42,0.585-0.365,0.978c-1.054,0.029-2.048-0.307-3.257-0.496C28.5,56.84,32.071,52.896,35.766,49.06z"/>
		<path style="fill:#FEBD54;" d="M48.979,56.661c0.555-1.5,1.603-2.707,2.443-4.032c3.228-5.091,6.521-10.141,9.809-15.193
			c0.232-0.357,0.36-0.922,0.988-0.862c-0.067,0.97-0.284,1.906-0.655,2.806c-3.309,5.144-6.633,10.278-9.968,15.406
			C50.815,55.537,50,56.243,48.979,56.661z"/>
		<path style="fill:#FEA152;" d="M21.718,60.104c-0.166-0.291-0.264-0.554-0.041-0.894c1.813-2.753,3.609-5.518,5.407-8.28
			c0.134-0.205,0.26-0.357,0.479-0.096c-1.781,3.707-3.264,7.539-4.76,11.365c-0.144,0.367-0.268,0.744-0.439,1.098
			c-0.139,0.29-0.125,0.835-0.638,0.673c-0.403-0.127-0.189-0.554-0.153-0.846c0.086-0.711,0.218-1.416,0.316-2.125
			C21.933,60.688,22.034,60.353,21.718,60.104z"/>
		<path style="fill:#FEC255;" d="M51.597,54.786c-0.076-0.387,0.112-0.675,0.315-0.987c2.959-4.525,5.906-9.057,8.851-13.591
			c0.216-0.332,0.384-0.696,0.801-0.828c-0.259,1.364-0.766,2.64-1.366,3.885c-1.111,1.318-1.895,2.857-2.844,4.284
			c-1.01,1.519-2.043,3.028-2.959,4.61C53.55,53.126,52.702,54.093,51.597,54.786z"/>
		<path style="fill:#FEC756;" d="M54.397,52.158c-0.053-0.418,0.119-0.768,0.336-1.102c1.514-2.33,3.031-4.658,4.54-6.992
			c0.234-0.363,0.421-0.759,0.926-0.8C58.864,46.62,56.937,49.589,54.397,52.158z"/>
		<path style="fill:#FE9F51;" d="M46.61,28.519c0.333-0.312,0.738-0.141,1.114-0.166C47.379,28.583,46.993,28.539,46.61,28.519z"/>
		<path style="fill:#FE9B50;" d="M28.59,61.671c0.38,0.021,0.787-0.15,1.125,0.16C29.33,61.85,28.939,61.905,28.59,61.671z"/>
		<path style="fill:#FEDE1A;" d="M1.414,31.791c0.004-0.654,0.008-1.307,0.012-1.961c1.002-0.773,1.418-1.967,2.085-2.971
			c2.699-4.059,5.334-8.16,7.982-12.253c2.298-3.552,4.581-7.114,6.869-10.673c0.14-0.217,0.489-0.414,0.089-0.703
			c0.587-0.414,1.217-0.734,1.928-0.876c0.32,0.368-0.047,0.578-0.204,0.82c-4.393,6.779-8.791,13.555-13.188,20.331
			c-1.622,2.499-3.247,4.996-4.861,7.5C1.929,31.31,1.753,31.621,1.414,31.791z"/>
		<path style="fill:#FEE50D;" d="M16.504,4.241c0.083,1.011-0.697,1.643-1.157,2.362c-4.317,6.746-8.702,13.45-13.063,20.168
			c-0.137,0.21-0.237,0.444-0.546,0.547c-0.233-0.212-0.081-0.524-0.162-0.772c0.008-0.498,0.008-0.997,0.25-1.454
			c1.867-3.116,3.916-6.116,5.879-9.171c1.944-3.026,3.88-6.058,5.875-9.051c0.219-0.328,0.436-0.661,0.522-1.057
			C14.822,5.166,15.614,4.629,16.504,4.241z"/>
		<path style="fill:#FEE807;" d="M14.102,5.813c0.475,0.423,0.011,0.711-0.174,0.997c-2.945,4.547-5.902,9.086-8.857,13.627
			c-0.842,1.293-1.692,2.58-2.523,3.88c-0.197,0.308-0.378,0.611-0.721,0.775c0.123-1.202,0.42-2.363,0.841-3.494
			c0.817-0.777,1.323-1.785,1.916-2.712c2.434-3.809,4.892-7.603,7.384-11.374C12.582,6.824,13.312,6.281,14.102,5.813z"/>
		<path style="fill:#FEEC01;" d="M11.968,7.512c-0.211,1.389-1.282,2.298-1.965,3.411c-2.098,3.417-4.311,6.763-6.499,10.124
			c-0.177,0.272-0.307,0.754-0.836,0.552c0.503-2.236,1.542-4.25,2.663-6.215c1.545-2.709,3.495-5.111,5.772-7.243
			C11.362,7.9,11.678,7.72,11.968,7.512z"/>
	</g>
</g>
</svg>
