<?xml version="1.0" encoding="utf-8"?>
<!-- Generator: Adobe Illustrator 16.0.0, SVG Export Plug-In . SVG Version: 6.00 Build 0)  -->
<!DOCTYPE svg PUBLIC "-//W3C//DTD SVG 1.1//EN" "http://www.w3.org/Graphics/SVG/1.1/DTD/svg11.dtd">
<svg version="1.1" id="Layer_1" xmlns="http://www.w3.org/2000/svg" xmlns:xlink="http://www.w3.org/1999/xlink" x="0px" y="0px"
	 width="64px" height="64px" viewBox="0 0 64 64" enable-background="new 0 0 64 64" xml:space="preserve">
<g>
	<g>
		<path fill-rule="evenodd" clip-rule="evenodd" fill="#8609F0" d="M10.567,47.963c-0.002-0.092-0.006-0.184-0.006-0.276
			c0-7.959-0.001-15.919,0.004-23.878c0-0.2-0.064-0.316-0.227-0.431c-1.877-1.323-3.749-2.655-5.623-3.983
			c-1.51-1.07-3.021-2.14-4.532-3.207C0.127,16.147,0.062,16.123,0,16.091c0.007-0.015,0.013-0.04,0.021-0.041
			c0.057-0.003,0.114-0.002,0.17-0.002c21.206,0,42.411,0,63.616,0.003c0.063,0,0.145-0.049,0.192,0.04
			c-0.712,0.503-1.424,1.005-2.135,1.509c-1.996,1.414-3.991,2.829-5.987,4.243c-0.74,0.524-1.481,1.049-2.222,1.574
			c-0.063,0.044-0.124,0.093-0.187,0.14c0,8.06,0,16.112,0,24.204c-0.311-0.17-0.57-0.37-0.845-0.547
			c-0.28-0.181-0.555-0.37-0.832-0.555c-0.271-0.182-0.544-0.361-0.815-0.543c-0.277-0.185-0.553-0.373-0.829-0.559
			c-0.277-0.186-0.556-0.369-0.833-0.554c-0.277-0.186-0.555-0.371-0.832-0.557c-0.277-0.185-0.556-0.369-0.833-0.554
			c-0.277-0.186-0.555-0.37-0.832-0.556c-0.271-0.183-0.54-0.366-0.811-0.548c-0.277-0.187-0.555-0.37-0.832-0.556
			c-0.278-0.185-0.555-0.37-0.832-0.556c-0.277-0.185-0.556-0.369-0.833-0.554c-0.277-0.186-0.555-0.371-0.832-0.556
			c-0.271-0.182-0.544-0.361-0.815-0.543c-0.276-0.186-0.552-0.373-0.829-0.559c-0.274-0.184-0.55-0.365-0.86-0.57
			c0,0.113,0,0.182,0,0.25c0,0.816-0.003,1.633,0.004,2.449c0.001,0.146-0.046,0.231-0.163,0.315
			c-2.07,1.48-4.138,2.965-6.205,4.449c-0.553,0.397-1.103,0.798-1.654,1.197c-0.028,0.021-0.061,0.035-0.094,0.055
			c-0.798-0.559-1.594-1.114-2.389-1.673c-1.039-0.729-2.076-1.461-3.115-2.19c-0.841-0.591-1.683-1.182-2.527-1.768
			c-0.124-0.086-0.168-0.179-0.167-0.331c0.008-0.944,0.004-1.889,0.004-2.833c0-0.068,0-0.137,0-0.241
			c-0.275,0.193-0.518,0.361-0.759,0.531c-1.111,0.787-2.222,1.574-3.333,2.36c-1.701,1.205-3.402,2.41-5.104,3.614
			c-1.308,0.926-2.617,1.851-3.924,2.777c-0.038,0.026-0.064,0.068-0.096,0.103C10.624,47.963,10.595,47.963,10.567,47.963z
			 M61.551,16.828c-0.398-0.047-58.763-0.029-58.922,0.016c0.297,0.218,0.587,0.433,0.878,0.646c2.516,1.839,5.03,3.679,7.55,5.512
			c0.166,0.121,0.232,0.24,0.232,0.45c-0.006,7.557-0.005,15.112-0.005,22.669c0,0.049-0.002,0.099,0.001,0.148
			c0.003,0.044,0.012,0.087,0.021,0.149c0.155-0.107,0.289-0.2,0.422-0.292c2.147-1.488,4.293-2.978,6.442-4.462
			c0.125-0.087,0.174-0.176,0.173-0.328c-0.007-0.753,0.002-1.506-0.007-2.258c-0.002-0.163,0.052-0.258,0.184-0.347
			c0.347-0.234,0.684-0.483,1.025-0.727c1.665-1.187,3.33-2.373,4.995-3.559c0.043-0.03,0.093-0.05,0.167-0.088
			c0,0.106,0,0.183,0,0.258c0,2.223,0,4.445-0.002,6.669c0,0.129,0.024,0.22,0.141,0.303c2.23,1.579,4.457,3.164,6.684,4.746
			c0.036,0.025,0.079,0.042,0.146,0.075c0-2.177,0-4.324,0-6.515c0.192,0.134,0.348,0.254,0.515,0.354
			c0.145,0.087,0.19,0.195,0.189,0.364c-0.006,1.867-0.004,3.735-0.004,5.603c0,0.074,0,0.148,0,0.258
			c0.082-0.056,0.128-0.086,0.172-0.118c0.27-0.195,0.54-0.393,0.81-0.589c1.94-1.41,3.88-2.821,5.823-4.229
			c0.11-0.079,0.154-0.158,0.154-0.296c-0.006-1.447-0.005-2.896-0.002-4.344c0-0.126-0.039-0.204-0.146-0.277
			c-0.598-0.41-1.188-0.828-1.78-1.244c-0.057-0.04-0.11-0.084-0.187-0.142c0.509-0.357,0.999-0.702,1.489-1.047
			c4.664,3.292,9.309,6.57,13.954,9.848c0.012,0.008,0.025,0.013,0.039,0.018c0.006,0.002,0.013,0.001,0.02-0.001
			s0.013-0.005,0.026-0.012c0-0.081,0-0.166,0-0.251c0-6.796,0.001-13.593-0.002-20.389c0-0.154,0.033-0.257,0.168-0.354
			c2.59-1.857,5.175-3.722,7.761-5.584C60.956,17.261,61.235,17.057,61.551,16.828z"/>
		<path fill-rule="evenodd" clip-rule="evenodd" fill="#020202" d="M61.551,16.828c-0.315,0.229-0.595,0.433-0.876,0.635
			c-2.586,1.862-5.171,3.727-7.761,5.584c-0.135,0.097-0.168,0.199-0.168,0.354c0.003,6.796,0.002,13.593,0.002,20.389
			c0,0.085,0,0.17,0,0.251c-0.014,0.007-0.02,0.01-0.026,0.012s-0.014,0.003-0.02,0.001c-0.014-0.005-0.027-0.01-0.039-0.018
			c-4.646-3.277-9.29-6.556-13.954-9.848c-0.49,0.345-0.98,0.689-1.489,1.047c0.076,0.058,0.13,0.102,0.187,0.142
			c0.593,0.416,1.183,0.834,1.78,1.244c0.106,0.073,0.146,0.151,0.146,0.277c-0.003,1.448-0.004,2.896,0.002,4.344
			c0,0.138-0.044,0.217-0.154,0.296c-1.943,1.407-3.883,2.818-5.823,4.229c-0.27,0.196-0.54,0.394-0.81,0.589
			c-0.044,0.032-0.09,0.063-0.172,0.118c0-0.109,0-0.184,0-0.258c0-1.867-0.002-3.735,0.004-5.603
			c0.001-0.169-0.045-0.277-0.189-0.364c-0.167-0.1-0.322-0.22-0.515-0.354c0,2.19,0,4.338,0,6.515
			c-0.066-0.033-0.109-0.05-0.146-0.075c-2.227-1.582-4.454-3.167-6.684-4.746c-0.117-0.083-0.142-0.174-0.141-0.303
			c0.002-2.224,0.002-4.446,0.002-6.669c0-0.075,0-0.151,0-0.258c-0.073,0.038-0.124,0.058-0.167,0.088
			c-1.666,1.186-3.33,2.372-4.995,3.559c-0.341,0.243-0.678,0.492-1.025,0.727c-0.132,0.089-0.186,0.184-0.184,0.347
			c0.009,0.752,0,1.505,0.007,2.258c0.001,0.152-0.047,0.241-0.173,0.328c-2.149,1.484-4.295,2.974-6.442,4.462
			c-0.134,0.092-0.267,0.185-0.422,0.292c-0.009-0.063-0.019-0.105-0.021-0.149c-0.003-0.05-0.001-0.1-0.001-0.148
			c0-7.557-0.001-15.112,0.005-22.669c0-0.21-0.066-0.329-0.232-0.45c-2.52-1.833-5.034-3.673-7.55-5.512
			c-0.291-0.213-0.581-0.428-0.878-0.646C2.788,16.799,61.152,16.781,61.551,16.828z M25.919,18.019c0,7.626,0,15.236,0,22.844
			c0.704,0.555,4.368,3.133,4.555,3.198c0-2.159,0-4.312,0-6.493c1.052,0.744,2.076,1.468,3.113,2.201c0,1.435,0,2.871,0,4.333
			c0.06-0.038,0.095-0.058,0.127-0.082c1.43-1.038,2.858-2.079,4.291-3.114c0.1-0.072,0.129-0.148,0.128-0.265
			c-0.004-1.029-0.006-2.059,0.002-3.089c0.001-0.153-0.052-0.239-0.176-0.325c-0.868-0.603-1.731-1.214-2.596-1.823
			c-0.063-0.043-0.123-0.09-0.196-0.145c0.071-0.055,0.125-0.098,0.182-0.138c0.87-0.625,1.739-1.252,2.612-1.873
			c0.104-0.073,0.146-0.147,0.146-0.276c-0.003-4.936-0.003-9.87-0.003-14.806c0-0.047-0.006-0.094-0.01-0.147
			C34.033,18.019,29.988,18.019,25.919,18.019z M6.321,18.021c0.095,0.07,0.15,0.113,0.207,0.154
			c1.968,1.421,3.935,2.842,5.905,4.259c0.121,0.087,0.177,0.171,0.176,0.326c-0.011,1.938-0.015,3.877-0.019,5.814
			c-0.01,5.084-0.02,10.168-0.03,15.251c0,0.067,0,0.136,0,0.24c1.546-1.063,3.058-2.102,4.574-3.145c0-0.075,0-0.146,0-0.216
			c0-0.746,0.006-1.491-0.004-2.236c-0.003-0.172,0.059-0.266,0.192-0.36c2.401-1.705,4.798-3.416,7.199-5.121
			c0.123-0.087,0.174-0.176,0.173-0.329c-0.006-0.895-0.001-1.789-0.001-2.684c0.002-3.934,0.004-7.866,0.006-11.8
			c0-0.048-0.005-0.097-0.008-0.154C18.577,18.021,12.476,18.021,6.321,18.021z M39.349,18.02c0,5.056,0,10.096,0,15.155
			c4.045,2.85,8.099,5.707,12.153,8.563c0.004,0.003,0.014-0.001,0.02-0.003c0.007-0.003,0.012-0.007,0.024-0.015
			c0-0.045,0-0.095,0-0.144c0.002-1.065,0.004-2.13,0.005-3.195c0.002-5.197,0.004-10.396,0.002-15.594
			c0-0.167,0.052-0.267,0.187-0.363c1.966-1.411,3.927-2.829,5.89-4.245c0.06-0.044,0.115-0.091,0.203-0.159
			C51.65,18.02,45.511,18.02,39.349,18.02z"/>
		<path fill-rule="evenodd" clip-rule="evenodd" fill="#FFFFFF" d="M25.919,18.019c4.069,0,8.114,0,12.175,0
			c0.004,0.054,0.01,0.101,0.01,0.147c0,4.936,0,9.87,0.003,14.806c0,0.129-0.043,0.203-0.146,0.276
			c-0.873,0.621-1.742,1.248-2.612,1.873c-0.057,0.04-0.11,0.083-0.182,0.138c0.073,0.055,0.134,0.102,0.196,0.145
			c0.864,0.609,1.728,1.221,2.596,1.823c0.124,0.086,0.177,0.172,0.176,0.325c-0.008,1.03-0.006,2.06-0.002,3.089
			c0.001,0.116-0.028,0.192-0.128,0.265c-1.433,1.035-2.861,2.076-4.291,3.114c-0.032,0.024-0.067,0.044-0.127,0.082
			c0-1.462,0-2.898,0-4.333c-1.037-0.733-2.061-1.457-3.113-2.201c0,2.182,0,4.334,0,6.493c-0.187-0.065-3.851-2.644-4.555-3.198
			C25.919,33.255,25.919,25.645,25.919,18.019z M32.021,31.344c0.052-0.038,0.099-0.071,0.143-0.105
			c0.48-0.377,0.956-0.76,1.442-1.129c0.127-0.097,0.171-0.197,0.17-0.354c-0.006-1.732-0.003-3.464-0.003-5.196
			c0-0.731-0.003-1.462,0.002-2.193c0.001-0.124-0.033-0.213-0.129-0.293c-0.146-0.123-0.284-0.257-0.423-0.39
			c-0.063-0.063-0.131-0.094-0.225-0.093c-0.646,0.004-1.292,0.003-1.938,0c-0.091,0-0.162,0.022-0.228,0.088
			c-0.125,0.125-0.252,0.251-0.392,0.36c-0.125,0.098-0.159,0.21-0.159,0.365c0.004,2.449,0.003,4.897,0.003,7.347
			c0,0.043-0.01,0.088,0.002,0.127c0.017,0.057,0.036,0.126,0.077,0.159C30.914,30.475,31.467,30.907,32.021,31.344z"/>
		<path fill-rule="evenodd" clip-rule="evenodd" fill="#FFFFFF" d="M6.321,18.021c6.155,0,12.256,0,18.37,0
			c0.003,0.058,0.008,0.106,0.008,0.154c-0.002,3.934-0.004,7.866-0.006,11.8c0,0.895-0.005,1.789,0.001,2.684
			c0.001,0.153-0.05,0.242-0.173,0.329c-2.401,1.705-4.798,3.416-7.199,5.121c-0.133,0.095-0.195,0.188-0.192,0.36
			c0.011,0.745,0.004,1.49,0.004,2.236c0,0.07,0,0.141,0,0.216c-1.517,1.043-3.028,2.082-4.574,3.145c0-0.104,0-0.173,0-0.24
			c0.01-5.083,0.02-10.167,0.03-15.251c0.004-1.938,0.008-3.876,0.019-5.814c0.001-0.155-0.055-0.239-0.176-0.326
			c-1.97-1.417-3.938-2.838-5.905-4.259C6.471,18.135,6.416,18.092,6.321,18.021z M19.5,30.402c0.047-1.297,0.023-8.624-0.031-8.811
			c-0.551,0-1.104-0.001-1.658,0.002c-0.04,0-0.09,0.009-0.117,0.034c-0.197,0.181-0.39,0.366-0.597,0.562
			c0.307,0.244,0.59,0.479,0.884,0.699c0.125,0.094,0.175,0.191,0.174,0.353c-0.006,2.619-0.004,5.238-0.004,7.857
			c0,0.075,0,0.15,0,0.266C18.621,31.029,19.057,30.719,19.5,30.402z"/>
		<path fill-rule="evenodd" clip-rule="evenodd" fill="#FFFFFF" d="M39.349,18.02c6.162,0,12.302,0,18.483,0
			c-0.088,0.068-0.144,0.115-0.203,0.159c-1.963,1.416-3.924,2.834-5.89,4.245c-0.135,0.097-0.187,0.196-0.187,0.363
			c0.002,5.198,0,10.396-0.002,15.594c-0.001,1.065-0.003,2.13-0.005,3.195c0,0.049,0,0.099,0,0.144
			c-0.013,0.008-0.018,0.012-0.024,0.015c-0.006,0.002-0.016,0.006-0.02,0.003c-4.055-2.855-8.108-5.713-12.153-8.563
			C39.349,28.115,39.349,23.075,39.349,18.02z M47.119,32.7c0-0.087,0-0.127,0-0.167c0-3.395-0.001-6.789,0.003-10.184
			c0-0.119-0.036-0.198-0.125-0.272c-0.141-0.119-0.277-0.244-0.407-0.376c-0.08-0.081-0.166-0.113-0.281-0.112
			c-0.454,0.007-0.909,0.002-1.363,0.003c-0.22,0.001-0.463-0.054-0.653,0.022c-0.198,0.079-0.34,0.292-0.516,0.436
			c-0.114,0.094-0.15,0.199-0.15,0.348c0.005,2.457,0.005,4.914,0,7.371c-0.001,0.15,0.044,0.244,0.162,0.336
			c1.038,0.805,2.071,1.616,3.105,2.426C46.955,32.578,47.018,32.623,47.119,32.7z"/>
		<path fill-rule="evenodd" clip-rule="evenodd" fill="#020202" d="M32.021,31.344c-0.554-0.437-1.106-0.869-1.655-1.308
			c-0.042-0.033-0.06-0.103-0.077-0.159c-0.012-0.039-0.002-0.084-0.002-0.127c0-2.449,0.001-4.897-0.003-7.347
			c0-0.155,0.034-0.268,0.159-0.365c0.14-0.109,0.266-0.235,0.392-0.36c0.066-0.065,0.136-0.088,0.228-0.088
			c0.646,0.003,1.292,0.004,1.938,0c0.094-0.001,0.161,0.03,0.225,0.093c0.139,0.133,0.276,0.267,0.423,0.39
			c0.096,0.08,0.13,0.169,0.129,0.293c-0.005,0.731-0.002,1.462-0.002,2.193c0,1.732-0.003,3.464,0.003,5.196
			c0.001,0.157-0.043,0.258-0.17,0.354c-0.486,0.369-0.962,0.752-1.442,1.129C32.119,31.272,32.072,31.306,32.021,31.344z
			 M31.619,23.04c0,0.066,0,0.107,0,0.149c0,1.994,0,3.987,0,5.981c0,0.028-0.007,0.059,0.002,0.085
			c0.013,0.044,0.024,0.099,0.057,0.126c0.111,0.095,0.231,0.18,0.347,0.267c0.091-0.067,0.16-0.129,0.239-0.176
			c0.13-0.076,0.169-0.179,0.169-0.331c-0.005-1.965-0.004-3.931-0.004-5.896c0-0.068,0-0.136,0-0.206
			C32.148,23.04,31.896,23.04,31.619,23.04z"/>
		<path fill-rule="evenodd" clip-rule="evenodd" fill="#020202" d="M19.5,30.402c-0.443,0.316-0.879,0.627-1.347,0.962
			c0-0.115,0-0.19,0-0.266c0-2.619-0.002-5.238,0.004-7.857c0-0.161-0.049-0.259-0.174-0.353c-0.294-0.22-0.577-0.455-0.884-0.699
			c0.207-0.195,0.399-0.381,0.597-0.562c0.027-0.025,0.077-0.034,0.117-0.034c0.554-0.003,1.107-0.002,1.658-0.002
			C19.523,21.778,19.547,29.105,19.5,30.402z"/>
		<path fill-rule="evenodd" clip-rule="evenodd" fill="#020202" d="M47.119,32.7c-0.102-0.077-0.164-0.122-0.226-0.17
			c-1.034-0.81-2.067-1.621-3.105-2.426c-0.118-0.092-0.163-0.186-0.162-0.336c0.005-2.457,0.005-4.914,0-7.371
			c0-0.148,0.036-0.254,0.15-0.348c0.176-0.144,0.317-0.356,0.516-0.436c0.19-0.076,0.434-0.021,0.653-0.022
			c0.454-0.001,0.909,0.004,1.363-0.003c0.115-0.001,0.201,0.031,0.281,0.112c0.13,0.132,0.267,0.257,0.407,0.376
			c0.089,0.074,0.125,0.153,0.125,0.272c-0.004,3.395-0.003,6.789-0.003,10.184C47.119,32.573,47.119,32.613,47.119,32.7z
			 M44.963,23.041c0,0.096,0,0.166,0,0.236c0,1.014,0,2.028,0,3.043c0,0.95,0.001,1.9-0.003,2.851c0,0.116,0.026,0.197,0.126,0.269
			c0.191,0.135,0.37,0.286,0.556,0.429c0.035,0.027,0.077,0.046,0.118,0.07c0-2.311,0-4.604,0-6.897
			C45.491,23.041,45.238,23.041,44.963,23.041z"/>
		<path fill-rule="evenodd" clip-rule="evenodd" fill="#FFFFFF" d="M31.619,23.04c0.276,0,0.529,0,0.81,0c0,0.07,0,0.138,0,0.206
			c0,1.965-0.001,3.931,0.004,5.896c0,0.152-0.039,0.255-0.169,0.331c-0.079,0.047-0.148,0.108-0.239,0.176
			c-0.115-0.087-0.235-0.172-0.347-0.267c-0.032-0.027-0.044-0.082-0.057-0.126c-0.009-0.026-0.002-0.057-0.002-0.085
			c0-1.994,0-3.987,0-5.981C31.619,23.147,31.619,23.106,31.619,23.04z"/>
		<path fill-rule="evenodd" clip-rule="evenodd" fill="#FFFFFF" d="M44.963,23.041c0.275,0,0.528,0,0.797,0c0,2.294,0,4.587,0,6.897
			c-0.041-0.024-0.083-0.043-0.118-0.07c-0.186-0.143-0.364-0.294-0.556-0.429c-0.1-0.071-0.126-0.152-0.126-0.269
			c0.004-0.95,0.003-1.9,0.003-2.851c0-1.015,0-2.029,0-3.043C44.963,23.207,44.963,23.137,44.963,23.041z"/>
	</g>
</g>
</svg>
