<?xml version="1.0" encoding="UTF-8" standalone="no"?>
<svg
   xmlns:dc="http://purl.org/dc/elements/1.1/"
   xmlns:cc="http://creativecommons.org/ns#"
   xmlns:rdf="http://www.w3.org/1999/02/22-rdf-syntax-ns#"
   xmlns:svg="http://www.w3.org/2000/svg"
   xmlns="http://www.w3.org/2000/svg"
   xmlns:sodipodi="http://sodipodi.sourceforge.net/DTD/sodipodi-0.dtd"
   xmlns:inkscape="http://www.inkscape.org/namespaces/inkscape"
   width="64"
   height="64"
   viewBox="0 0 48 48.000001"
   version="1.1"
   id="svg64"
   sodipodi:docname="pro.svg"
   inkscape:version="0.92.3 (2405546, 2018-03-11)">
  <metadata
     id="metadata70">
    <rdf:RDF>
      <cc:Work
         rdf:about="">
        <dc:format>image/svg+xml</dc:format>
        <dc:type
           rdf:resource="http://purl.org/dc/dcmitype/StillImage" />
        <dc:title></dc:title>
      </cc:Work>
    </rdf:RDF>
  </metadata>
  <defs
     id="defs68" />
  <sodipodi:namedview
     pagecolor="#ffffff"
     bordercolor="#666666"
     borderopacity="1"
     objecttolerance="10"
     gridtolerance="10"
     guidetolerance="10"
     inkscape:pageopacity="0"
     inkscape:pageshadow="2"
     inkscape:window-width="1920"
     inkscape:window-height="1017"
     id="namedview66"
     showgrid="false"
     units="px"
     inkscape:pagecheckerboard="true"
     inkscape:zoom="1.78"
     inkscape:cx="128.43005"
     inkscape:cy="1.4178415"
     inkscape:window-x="-8"
     inkscape:window-y="-8"
     inkscape:window-maximized="1"
     inkscape:current-layer="svg64" />
  <g
     id="#8609f0ff"
     transform="matrix(0.08,0,0,0.08,2.5e-7,12.04)">
    <path
       d="m 0,0 h 600 v 0.12 c -31.89,22.77 -63.93,45.31 -95.99,67.84 -1.25,1.08 -3.53,1.94 -3.11,4 0.58,13.99 -0.4,28.01 0.16,42.01 -0.31,12.99 -0.28,26 0.07,38.99 -0.41,34.04 -0.11,68.06 -0.06,102.08 -0.6,13.98 0.25,27.97 -0.25,41.94 -41.26,-27.95 -83.01,-55.18 -124.35,-83.02 -0.14,9.06 -0.02,18.13 -0.06,27.2 -25.47,18.01 -50.7,36.36 -76.11,54.46 -25.44,-18.04 -50.93,-36.04 -76.65,-53.68 -0.17,-10.33 0.06,-20.66 -0.12,-30.99 -41.36,29.52 -83.2,58.37 -124.44,88.05 H 98.75 C 98.75,223.01 98.78,147.01 98.73,71.02 98.97,69.65 97.37,69.17 96.59,68.4 64.34,45.73 32.09,23.04 0,0.14 V 0 m 24.72,6.92 c 0.54,0.91 1.23,1.66 2.08,2.27 17.77,12.92 35.48,25.93 53.23,38.88 8.65,5.94 17.04,12.25 25.4,18.58 -0.06,72.52 -0.04,145.04 -0.01,217.57 1.25,-0.63 2.47,-1.3 3.59,-2.12 20.79,-14.56 41.75,-28.89 62.65,-43.29 0.01,-8.34 0.03,-16.69 -0.01,-25.03 19.81,-14.33 39.82,-28.38 59.69,-42.63 0.17,22.38 0,44.76 0.09,67.13 21.84,15.29 43.57,30.74 65.3,46.2 0.11,-20.4 -0.06,-40.79 0.08,-61.19 2.16,1.53 4.28,3.11 6.41,4.69 0.15,18.98 -0.21,37.98 0.18,56.95 21.56,-15.95 43.41,-31.51 65.12,-47.25 -0.03,-14.7 0.01,-29.4 -0.02,-44.11 -6.55,-4.52 -13,-9.18 -19.59,-13.65 2.96,-3.13 6.93,-5.05 10.28,-7.72 1.47,-0.89 3.25,-3.1 4.97,-1.38 43.4,30.63 86.77,61.33 130.28,91.79 0.08,-65.35 -0.01,-130.71 0.05,-196.06 C 521.93,46.52 549.84,27.13 577.14,6.91 511.76,6.88 446.37,6.86 381.01,6.95 362.34,6.66 343.66,7.23 325,6.87 224.88,6.95 124.82,6.87 24.72,6.92 Z"
       id="path41"
       inkscape:connector-curvature="0"
       style="opacity:1;fill:#8609f0" />
  </g>
  <g
     id="#020202ff"
     transform="matrix(0.08,0,0,0.08,2.5e-7,12.04)">
    <path
       d="M 24.72,6.92 C 124.82,6.87 224.88,6.95 325,6.87 c 18.66,0.36 37.34,-0.21 56.01,0.08 65.36,-0.09 130.75,-0.07 196.13,-0.04 -27.3,20.22 -55.21,39.61 -82.65,59.64 -0.06,65.35 0.03,130.71 -0.05,196.06 -43.51,-30.46 -86.88,-61.16 -130.28,-91.79 -1.72,-1.72 -3.5,0.49 -4.97,1.38 -3.35,2.67 -7.32,4.59 -10.28,7.72 6.59,4.47 13.04,9.13 19.59,13.65 0.03,14.71 -0.01,29.41 0.02,44.11 -21.71,15.74 -43.56,31.3 -65.12,47.25 -0.39,-18.97 -0.03,-37.97 -0.18,-56.95 -2.13,-1.58 -4.25,-3.16 -6.41,-4.69 -0.14,20.4 0.03,40.79 -0.08,61.19 -21.73,-15.46 -43.46,-30.91 -65.3,-46.2 -0.09,-22.37 0.08,-44.75 -0.09,-67.13 -19.87,14.25 -39.88,28.3 -59.69,42.63 0.04,8.34 0.02,16.69 0.01,25.03 -20.9,14.4 -41.86,28.73 -62.65,43.29 -1.12,0.82 -2.34,1.49 -3.59,2.12 -0.03,-72.53 -0.05,-145.05 0.01,-217.57 C 97.07,60.32 88.68,54.01 80.03,48.07 62.28,35.12 44.57,22.11 26.8,9.19 25.95,8.58 25.26,7.83 24.72,6.92 M 59,18.43 c 19.55,14.09 39,28.31 58.68,42.22 0.1,67.19 -0.26,134.39 -0.24,201.59 14.3,-9.76 28.68,-19.38 42.93,-29.22 0.06,-8.39 0.01,-16.78 0.02,-25.17 23.64,-16.89 47.37,-33.64 70.95,-50.61 -0.03,-46.29 0,-92.58 0.03,-138.87 C 173.92,18.38 116.45,18.27 59,18.43 m 183.71,-0.05 c 0,71.32 0.05,142.63 -0.03,213.94 14.03,10.41 28.65,20.01 42.73,30.35 0.15,-20.41 -0.02,-40.83 0.08,-61.25 9.67,6.94 19.49,13.74 28.98,20.88 0.19,13.51 -0.08,27.03 0.13,40.54 14.06,-10.5 28.53,-20.44 42.66,-30.87 0.07,-10.77 -0.06,-21.55 0.06,-32.32 -8.89,-6.54 -18.03,-12.74 -27.03,-19.13 -0.03,-0.33 -0.11,-0.98 -0.14,-1.31 8.34,-5.9 16.59,-11.93 24.93,-17.82 1.11,-0.73 2.47,-1.75 2.08,-3.31 0.01,-46.52 -0.08,-93.04 0.04,-139.56 -38.15,-0.36 -76.33,-0.1 -114.49,-0.14 m 125.9,-0.01 c 0.02,47.25 0.01,94.51 0.01,141.76 38.16,26.97 76.29,54.01 114.55,80.83 0.19,-60.07 0.03,-120.15 0.19,-180.23 19.57,-14.03 39.2,-28.01 58.56,-42.3 -57.76,-0.16 -115.54,-0.05 -173.31,-0.06 z"
       id="path44"
       inkscape:connector-curvature="0"
       style="opacity:1;fill:#020202" />
    <path
       d="m 160.04,57.21 c 2.01,-1.79 3.98,-3.62 5.92,-5.49 5.53,-0.01 11.05,0.01 16.58,-0.01 0.06,27.59 0.02,55.18 0.02,82.77 -4.3,2.8 -8.18,6.25 -12.71,8.69 -0.11,-26.05 0.1,-52.11 -0.1,-78.16 -3.3,-2.52 -6.61,-5.03 -9.71,-7.8 z"
       id="path46"
       inkscape:connector-curvature="0"
       style="opacity:1;fill:#020202" />
    <path
       d="m 283.67,57.56 c 1.96,-2.07 4.12,-3.95 6.25,-5.84 6.74,-0.01 13.49,0.02 20.23,-0.02 2.02,2.02 4.66,3.64 6.16,6.06 0.11,24.19 -0.03,48.38 0.06,72.57 -5.14,4.13 -10.32,8.21 -15.52,12.26 -1.24,0.91 -2.35,-0.67 -3.29,-1.25 -4.56,-3.76 -9.34,-7.25 -13.86,-11.06 0.04,-24.24 0.1,-48.48 -0.03,-72.72 m 12.7,7.71 c 0,19.77 -0.03,39.53 0.01,59.3 1.16,0.82 2.18,1.95 3.58,2.37 1.5,-0.26 2.5,-1.55 3.71,-2.35 0.08,-19.77 0.02,-39.54 0.03,-59.32 -2.45,0.01 -4.89,0.01 -7.33,0 z"
       id="path48"
       inkscape:connector-curvature="0"
       style="opacity:1;fill:#020202" />
    <path
       d="m 408.82,57.72 c 1.66,-2.35 4.15,-3.96 6.16,-5.99 6.81,-0.06 13.62,0.06 20.43,-0.06 2.09,1.83 4.09,3.78 6.15,5.65 0.06,32.8 0.03,65.6 0.01,98.4 -11.07,-8.32 -22.04,-16.79 -32.81,-25.5 0.09,-24.16 -0.03,-48.33 0.06,-72.5 m 12.61,7.56 c 0.01,19.76 -0.02,39.51 0.01,59.26 2.59,1.83 4.83,4.14 7.68,5.57 0.11,-21.55 -0.07,-43.1 0.1,-64.64 -2.59,-0.26 -5.2,-0.22 -7.79,-0.19 z"
       id="path50"
       inkscape:connector-curvature="0"
       style="opacity:1;fill:#020202" />
  </g>
  <g
     id="#ffffffff"
     transform="matrix(0.08,0,0,0.08,2.5e-7,12.04)">
    <path
       d="m 59,18.43 c 57.45,-0.16 114.92,-0.05 172.37,-0.06 -0.03,46.29 -0.06,92.58 -0.03,138.87 -23.58,16.97 -47.31,33.72 -70.95,50.61 -0.01,8.39 0.04,16.78 -0.02,25.17 -14.25,9.84 -28.63,19.46 -42.93,29.22 -0.02,-67.2 0.34,-134.4 0.24,-201.59 C 98,46.74 78.55,32.52 59,18.43 m 101.04,38.78 c 3.1,2.77 6.41,5.28 9.71,7.8 0.2,26.05 -0.01,52.11 0.1,78.16 4.53,-2.44 8.41,-5.89 12.71,-8.69 0,-27.59 0.04,-55.18 -0.02,-82.77 -5.53,0.02 -11.05,0 -16.58,0.01 -1.94,1.87 -3.91,3.7 -5.92,5.49 z"
       id="path53"
       inkscape:connector-curvature="0"
       style="opacity:1;fill:#ffffff" />
    <path
       d="m 242.71,18.38 c 38.16,0.04 76.34,-0.22 114.49,0.14 -0.12,46.52 -0.03,93.04 -0.04,139.56 0.39,1.56 -0.97,2.58 -2.08,3.31 -8.34,5.89 -16.59,11.92 -24.93,17.82 0.03,0.33 0.11,0.98 0.14,1.31 9,6.39 18.14,12.59 27.03,19.13 -0.12,10.77 0.01,21.55 -0.06,32.32 -14.13,10.43 -28.6,20.37 -42.66,30.87 -0.21,-13.51 0.06,-27.03 -0.13,-40.54 -9.49,-7.14 -19.31,-13.94 -28.98,-20.88 -0.1,20.42 0.07,40.84 -0.08,61.25 -14.08,-10.34 -28.7,-19.94 -42.73,-30.35 0.08,-71.31 0.03,-142.62 0.03,-213.94 m 40.96,39.18 c 0.13,24.24 0.07,48.48 0.03,72.72 4.52,3.81 9.3,7.3 13.86,11.06 0.94,0.58 2.05,2.16 3.29,1.25 5.2,-4.05 10.38,-8.13 15.52,-12.26 -0.09,-24.19 0.05,-48.38 -0.06,-72.57 -1.5,-2.42 -4.14,-4.04 -6.16,-6.06 -6.74,0.04 -13.49,0.01 -20.23,0.02 -2.13,1.89 -4.29,3.77 -6.25,5.84 z"
       id="path55"
       inkscape:connector-curvature="0"
       style="opacity:1;fill:#ffffff" />
    <path
       d="m 368.61,18.37 c 57.77,0.01 115.55,-0.1 173.31,0.06 -19.36,14.29 -38.99,28.27 -58.56,42.3 -0.16,60.08 0,120.16 -0.19,180.23 -38.26,-26.82 -76.39,-53.86 -114.55,-80.83 0,-47.25 0.01,-94.51 -0.01,-141.76 m 40.21,39.35 c -0.09,24.17 0.03,48.34 -0.06,72.5 10.77,8.71 21.74,17.18 32.81,25.5 0.02,-32.8 0.05,-65.6 -0.01,-98.4 -2.06,-1.87 -4.06,-3.82 -6.15,-5.65 -6.81,0.12 -13.62,0 -20.43,0.06 -2.01,2.03 -4.5,3.64 -6.16,5.99 z"
       id="path57"
       inkscape:connector-curvature="0"
       style="opacity:1;fill:#ffffff" />
    <path
       d="m 296.37,65.27 c 2.44,0.01 4.88,0.01 7.33,0 -0.01,19.78 0.05,39.55 -0.03,59.32 -1.21,0.8 -2.21,2.09 -3.71,2.35 -1.4,-0.42 -2.42,-1.55 -3.58,-2.37 -0.04,-19.77 -0.01,-39.53 -0.01,-59.3 z"
       id="path59"
       inkscape:connector-curvature="0"
       style="opacity:1;fill:#ffffff" />
    <path
       d="m 421.43,65.28 c 2.59,-0.03 5.2,-0.07 7.79,0.19 -0.17,21.54 0.01,43.09 -0.1,64.64 -2.85,-1.43 -5.09,-3.74 -7.68,-5.57 -0.03,-19.75 0,-39.5 -0.01,-59.26 z"
       id="path61"
       inkscape:connector-curvature="0"
       style="opacity:1;fill:#ffffff" />
  </g>
</svg>
