<?xml version="1.0" encoding="utf-8"?>
<!-- Generator: Adobe Illustrator 23.0.2, SVG Export Plug-In . SVG Version: 6.00 Build 0)  -->
<svg version="1.1" id="Layer_1" xmlns="http://www.w3.org/2000/svg" xmlns:xlink="http://www.w3.org/1999/xlink" x="0px" y="0px"
	 width="64px" height="64px" viewBox="0 0 64 64" enable-background="new 0 0 64 64" xml:space="preserve">
<g>
	<g>
		<path fill="#020101" d="M60.032,63.008c-0.021,0-0.043,0-0.064,0c-0.094-0.107-0.22-0.062-0.331-0.062
			c-9.263-0.002-18.525-0.003-27.788-0.001c-0.101,0-0.216-0.042-0.297,0.063c-0.213,0-0.427,0-0.64,0
			c-0.048-0.106-0.148-0.062-0.224-0.071c-2.149-0.246-4.101-0.999-5.852-2.271C18.22,55.859,11.598,51.061,4.99,46.242
			c-2.534-1.848-4.109-4.333-4.753-7.407c-0.09-0.432-0.08-0.88-0.237-1.299c0-0.107,0-0.213,0-0.32
			c0.106-0.448,0.095-0.896,0-1.344c0-0.171,0-0.341,0-0.512c0.101-0.033,0.065-0.122,0.073-0.189
			c0.103-0.837,0.277-1.658,0.538-2.461c3.238-9.965,6.476-19.93,9.71-29.897c0.196-0.604,0.435-1.195,0.559-1.822
			c0.043,0,0.085,0,0.128,0c0.117,0.115,0.264,0.061,0.396,0.061c11.065,0.003,22.13,0.003,33.194,0.001
			c0.111,0,0.237,0.047,0.33-0.063c0.149,0,0.299,0,0.448,0c0.273,0.126,0.573,0.091,0.858,0.147
			c4.781,0.928,8.036,3.667,9.574,8.291c2.35,7.067,4.619,14.161,6.916,21.246c0.42,1.295,0.912,2.569,1.126,3.924
			c0.044,0.276,0.019,0.565,0.151,0.824c0,0.149,0,0.299,0,0.448c-0.095,0.448-0.105,0.896,0,1.344c0,0.107,0,0.213,0,0.32
			c-0.095,0.039-0.059,0.127-0.067,0.193c-0.426,3.566-2.084,6.417-4.97,8.551c-1.07,0.791-2.147,1.572-3.233,2.341
			c-0.213,0.151-0.246,0.277-0.167,0.517c1.407,4.297,2.806,8.596,4.199,12.898C59.865,62.355,60.023,62.662,60.032,63.008z
			 M12.709,3.566c-0.034,0.077-0.074,0.152-0.1,0.232c-1.443,4.437-2.885,8.875-4.326,13.313
			c-1.787,5.502-3.575,11.003-5.357,16.506c-0.451,1.393-0.558,2.822-0.331,4.266c0.429,2.73,1.799,4.879,4.033,6.499
			c6.489,4.705,12.975,9.413,19.451,14.134c1.857,1.353,3.904,2.018,6.205,2.013c7.999-0.018,15.998-0.008,23.996-0.008
			c0.115,0,0.23,0,0.338,0c0.035-0.13-0.023-0.216-0.052-0.304c-1.301-4.013-2.601-8.026-3.917-12.034
			c-0.086-0.261-0.021-0.369,0.176-0.511c1.566-1.127,3.125-2.262,4.684-3.399c3.429-2.503,4.828-6.758,3.522-10.794
			c-2.523-7.794-5.058-15.584-7.595-23.373c-0.721-2.213-2.079-3.945-4.05-5.181c-1.226-0.768-2.556-1.258-4.009-1.376
			c-0.063,0.004-0.127,0.008-0.19,0.012c-0.127-0.006-0.255-0.013-0.382-0.019c-0.025-0.066-0.078-0.061-0.132-0.05
			c-0.159-0.006-0.319-0.018-0.478-0.018c-10.358-0.001-20.717-0.001-31.075,0c-0.106,0-0.212,0.009-0.319,0.013
			C12.745,3.484,12.714,3.509,12.709,3.566z"/>
		<path fill="#0E0E0E" d="M44.928,0.992c-0.093,0.11-0.219,0.063-0.33,0.063c-11.065,0.002-22.13,0.002-33.194-0.001
			c-0.132,0-0.279,0.054-0.396-0.061C22.315,0.992,33.621,0.992,44.928,0.992z"/>
		<path fill="#212121" d="M31.552,63.008c0.081-0.106,0.196-0.063,0.297-0.063c9.263-0.001,18.525-0.001,27.788,0.001
			c0.111,0,0.237-0.045,0.331,0.062C50.496,63.008,41.024,63.008,31.552,63.008z"/>
		<path fill="#3A3A3A" d="M0,35.872c0.095,0.448,0.106,0.896,0,1.344C0,36.768,0,36.32,0,35.872z"/>
		<path fill="#3A3A3A" d="M64,37.216c-0.105-0.448-0.095-0.896,0-1.344C64,36.32,64,36.768,64,37.216z"/>
		<path fill="#ED5922" d="M12.8,3.487c0.106-0.005,0.212-0.013,0.319-0.013c10.358-0.001,20.717-0.001,31.075,0
			c0.159,0,0.319,0.012,0.478,0.018c0.016,0.092,0.043,0.155,0.132,0.05c0.127,0.006,0.255,0.013,0.382,0.019
			c0.069,0.074,0.132,0.071,0.19-0.012c1.453,0.117,2.784,0.607,4.009,1.376c1.972,1.236,3.329,2.969,4.05,5.181
			c2.538,7.789,5.072,15.579,7.595,23.373c1.306,4.036-0.092,8.291-3.522,10.794c-1.558,1.137-3.118,2.272-4.684,3.399
			c-0.198,0.142-0.262,0.25-0.176,0.511c1.316,4.008,2.616,8.021,3.917,12.034c0.029,0.089,0.087,0.174,0.052,0.304
			c-0.108,0-0.223,0-0.338,0c-7.999,0-15.998-0.01-23.996,0.008c-2.301,0.005-4.349-0.66-6.205-2.013
			c-6.477-4.721-12.963-9.429-19.451-14.134c-2.235-1.62-3.605-3.769-4.033-6.499c-0.227-1.444-0.12-2.873,0.331-4.266
			c1.782-5.503,3.57-11.004,5.357-16.506c1.441-4.438,2.883-8.875,4.326-13.313c0.026-0.08,0.067-0.155,0.101-0.232
			C12.74,3.539,12.77,3.513,12.8,3.487z M13.955,5.105c-0.047,0.118-0.101,0.233-0.14,0.354c-3.087,9.491-6.176,18.982-9.258,28.475
			c-1.1,3.39,0.042,6.919,2.911,9.006c6.429,4.677,12.871,9.335,19.288,14.029c1.393,1.019,2.88,1.724,4.605,1.891
			c0.077,0.208,0.256,0.112,0.385,0.112c7.43,0.005,14.861,0.005,22.291,0.004c0.085,0,0.171,0.001,0.256-0.002
			c0.063-0.003,0.096-0.036,0.084-0.103c-0.023-0.082-0.042-0.165-0.068-0.245c-1.191-3.667-2.379-7.335-3.58-10.999
			c-0.093-0.284-0.07-0.435,0.187-0.619c1.898-1.358,3.795-2.717,5.666-4.112c2.107-1.571,3.19-3.691,3.271-6.323
			c0.039-1.253-0.338-2.415-0.719-3.583c-2.435-7.474-4.851-14.953-7.297-22.423c-0.74-2.26-2.253-3.851-4.425-4.816
			c-0.766-0.34-1.582-0.489-2.4-0.627c-0.083-0.143-0.224-0.099-0.346-0.099c-10.13-0.002-20.261-0.002-30.391,0.001
			C14.166,5.026,14.036,4.975,13.955,5.105z"/>
		<path fill="#FE6326" d="M44.805,3.542c-0.09,0.105-0.116,0.042-0.132-0.05C44.727,3.481,44.78,3.475,44.805,3.542z"/>
		<path fill="#FE6326" d="M45.377,3.549c-0.058,0.083-0.122,0.086-0.19,0.012C45.25,3.557,45.314,3.553,45.377,3.549z"/>
		<path fill="#FE6326" d="M12.8,3.487c-0.03,0.026-0.061,0.052-0.091,0.078C12.714,3.509,12.745,3.484,12.8,3.487z"/>
		<path fill="#010101" d="M31.361,58.859c-1.726-0.167-3.212-0.873-4.605-1.891c-6.417-4.693-12.859-9.352-19.288-14.029
			c-2.869-2.087-4.011-5.616-2.911-9.006c3.081-9.493,6.17-18.984,9.258-28.475c0.039-0.12,0.093-0.236,0.14-0.354
			c0.149,0.003,0.298,0.009,0.447,0.009c9.841,0,19.683,0,29.524,0.001c0.362,0,0.724,0.007,1.086,0.01
			c0.819,0.138,1.635,0.287,2.4,0.627c2.172,0.965,3.685,2.556,4.425,4.816c2.445,7.47,4.862,14.95,7.297,22.423
			c0.381,1.168,0.757,2.33,0.719,3.583c-0.081,2.632-1.165,4.752-3.271,6.323c-1.871,1.395-3.768,2.754-5.666,4.112
			c-0.257,0.184-0.281,0.335-0.187,0.619c1.202,3.663,2.389,7.331,3.58,10.999c0.026,0.081,0.046,0.164,0.068,0.245
			C46.706,58.867,39.034,58.863,31.361,58.859z M49.966,17.557c0.039-0.093-0.007-0.158-0.029-0.228
			c-0.467-1.437-0.929-2.876-1.401-4.312c-0.838-2.548-2.824-3.985-5.497-3.985c-8.65,0-17.301,0.001-25.951-0.007
			c-0.262,0-0.364,0.076-0.443,0.32c-2.195,6.784-4.399,13.566-6.601,20.347c-0.118,0.363-0.118,0.363,0.261,0.363
			c6.901,0,13.802,0,20.703,0c0.657,0,1.041,0.276,1.24,0.89c0.487,1.498,0.973,2.996,1.46,4.494
			c0.331,1.019,0.662,2.039,0.993,3.059c0.041-0.014,0.064-0.016,0.08-0.028c2.335-1.696,4.667-3.395,7.006-5.086
			c0.16-0.116,0.146-0.214,0.095-0.372c-0.822-2.519-1.639-5.04-2.457-7.561c-0.788-2.427-2.836-3.917-5.388-3.918
			c-4.011-0.001-8.021,0-12.032,0c-0.103,0-0.206,0-0.334,0c0.037-0.131,0.062-0.233,0.094-0.333
			c0.359-1.103,0.727-2.203,1.073-3.31c0.078-0.249,0.175-0.341,0.452-0.341c8.789,0.009,17.578,0.008,26.367,0.008
			C49.762,17.557,49.867,17.557,49.966,17.557z M42.378,21.533c-0.022,0.143,0.046,0.247,0.081,0.356
			c1.296,3.999,2.595,7.997,3.893,11.996c0.216,0.665,0.099,1.022-0.471,1.436c-4.377,3.178-8.755,6.356-13.133,9.533
			c-0.567,0.412-0.919,0.412-1.479,0.006c-2.233-1.619-4.466-3.237-6.698-4.857c-2.189-1.589-4.375-3.181-6.567-4.767
			c-0.329-0.238-0.545-0.533-0.464-0.943c0.053-0.27-0.059-0.264-0.253-0.263c-1.184,0.006-2.368,0.003-3.552,0.003
			c-1.611,0-3.221-0.001-4.832,0.002c-0.117,0-0.262-0.058-0.316,0.125c-0.172,0.581-0.418,1.143-0.464,1.756
			c-0.131,1.747,0.558,3.092,1.969,4.114c6.209,4.499,12.409,9.008,18.613,13.514c2.076,1.508,4.509,1.51,6.585,0.002
			c2.688-1.953,5.376-3.905,8.065-5.857c3.369-2.447,6.739-4.892,10.106-7.342c1.928-1.403,2.718-3.806,1.992-6.045
			c-1.349-4.161-2.704-8.32-4.05-12.482c-0.068-0.21-0.15-0.294-0.389-0.294c-2.795,0.011-5.589,0.007-8.384,0.007
			C42.545,21.533,42.461,21.533,42.378,21.533z M48.905,54.636c-0.505-1.561-1.007-3.096-1.494-4.634
			c-0.079-0.248-0.14-0.251-0.342-0.103c-2.085,1.527-4.178,3.043-6.266,4.566c-0.069,0.05-0.182,0.067-0.191,0.172
			C43.371,54.636,46.126,54.636,48.905,54.636z"/>
		<path fill="#FE6928" d="M31.361,58.859c7.672,0.004,15.344,0.007,23.016,0.011c0.012,0.067-0.021,0.101-0.084,0.103
			c-0.085,0.003-0.17,0.002-0.256,0.002c-7.43,0-14.861,0.001-22.291-0.004C31.617,58.971,31.438,59.067,31.361,58.859z"/>
		<path fill="#FE6A28" d="M45.013,5.125c-0.362-0.003-0.724-0.01-1.086-0.01c-9.841-0.001-19.683,0-29.524-0.001
			c-0.149,0-0.298-0.006-0.447-0.009c0.081-0.13,0.211-0.079,0.32-0.079c10.13-0.002,20.261-0.002,30.391-0.001
			C44.788,5.026,44.929,4.982,45.013,5.125z"/>
		<path fill="#FEFEFE" d="M49.966,17.557c-0.099,0-0.204,0-0.309,0c-8.789,0-17.578,0.002-26.367-0.008
			c-0.278,0-0.375,0.092-0.452,0.341c-0.346,1.107-0.714,2.207-1.073,3.31c-0.032,0.1-0.057,0.202-0.094,0.333
			c0.128,0,0.231,0,0.334,0c4.011,0,8.021-0.001,12.032,0c2.552,0.001,4.6,1.491,5.388,3.918c0.818,2.52,1.635,5.042,2.457,7.561
			c0.051,0.158,0.065,0.256-0.095,0.372c-2.339,1.691-4.671,3.39-7.006,5.086c-0.016,0.012-0.039,0.014-0.08,0.028
			c-0.331-1.02-0.662-2.04-0.993-3.059c-0.486-1.498-0.973-2.996-1.46-4.494c-0.2-0.614-0.583-0.89-1.24-0.89
			c-6.901,0-13.802,0-20.703,0c-0.379,0-0.379,0-0.261-0.363c2.202-6.782,4.406-13.563,6.601-20.347
			c0.079-0.244,0.181-0.32,0.443-0.32c8.65,0.009,17.301,0.007,25.951,0.007c2.673,0,4.66,1.437,5.497,3.985
			c0.472,1.436,0.934,2.875,1.401,4.312C49.959,17.398,50.005,17.463,49.966,17.557z"/>
		<path fill="#FDFDFD" d="M42.378,21.533c0.083,0,0.167,0,0.251,0c2.795,0,5.589,0.004,8.384-0.007
			c0.24-0.001,0.321,0.084,0.389,0.294c1.346,4.162,2.701,8.321,4.05,12.482c0.726,2.239-0.064,4.642-1.992,6.045
			c-3.366,2.45-6.737,4.895-10.106,7.342c-2.688,1.953-5.376,3.905-8.065,5.857c-2.076,1.508-4.509,1.506-6.585-0.002
			c-6.203-4.506-12.404-9.016-18.613-13.514c-1.411-1.022-2.1-2.367-1.969-4.114c0.046-0.613,0.292-1.175,0.464-1.756
			c0.054-0.183,0.199-0.125,0.316-0.125c1.611-0.002,3.221-0.002,4.832-0.002c1.184,0,2.368,0.003,3.552-0.003
			c0.195-0.001,0.307-0.007,0.253,0.263c-0.081,0.41,0.135,0.705,0.464,0.943c2.191,1.585,4.378,3.178,6.567,4.767
			c2.232,1.62,4.465,3.239,6.698,4.857c0.56,0.406,0.911,0.406,1.479-0.006c4.378-3.177,8.756-6.355,13.133-9.533
			c0.569-0.413,0.686-0.77,0.471-1.436c-1.298-3.999-2.597-7.997-3.893-11.996C42.424,21.78,42.357,21.676,42.378,21.533z"/>
		<path fill="#FDFDFD" d="M48.905,54.636c-2.779,0-5.534,0-8.293,0c0.009-0.105,0.122-0.121,0.191-0.172
			c2.088-1.522,4.181-3.038,6.266-4.566c0.202-0.148,0.264-0.145,0.342,0.103C47.898,51.541,48.4,53.075,48.905,54.636z"/>
	</g>
</g>
</svg>
