<?xml version="1.0" encoding="utf-8"?>
<!-- Generator: Adobe Illustrator 22.0.0, SVG Export Plug-In . SVG Version: 6.00 Build 0)  -->
<svg version="1.1" id="Camada_1" xmlns="http://www.w3.org/2000/svg" xmlns:xlink="http://www.w3.org/1999/xlink" x="0px" y="0px"
	 width="64px" height="64px" viewBox="0 0 64 64" style="enable-background:new 0 0 64 64;" xml:space="preserve">
<g>
	<g>
		<path style="fill:#010101;" d="M31.808,59.84c-0.768,0-1.536,0-2.304,0c-0.121-0.137-0.294-0.088-0.442-0.109
			c-1.643-0.235-3.167-0.753-4.461-1.833c-0.1-0.084-0.208-0.095-0.323-0.111c-2.193-0.299-4.302-0.874-6.227-1.997
			c-2.628-1.532-4.467-3.686-5.176-6.705c-0.023-0.099-0.077-0.173-0.133-0.249c-0.972-1.304-1.775-2.706-2.423-4.196
			c-0.079-0.181-0.147-0.231-0.348-0.166c-1.064,0.343-2.136,0.661-3.2,1.004c-0.217,0.07-0.368,0.04-0.551-0.089
			c-1.876-1.315-3.757-2.623-5.642-3.924c-0.185-0.128-0.266-0.261-0.265-0.491c0.004-0.788-0.017-1.577-0.03-2.365
			c-0.041-2.418-0.082-4.836-0.125-7.254c-0.034-1.917-0.07-3.834-0.105-5.751C0.061,24.855,0.078,24.106,0,23.36
			c0-0.341,0-0.683,0-1.024c0.123-0.037,0.169-0.154,0.241-0.241c1.207-1.45,2.463-2.858,3.678-4.301
			c0.464-0.551,0.971-0.777,1.668-0.854c2.214-0.243,4.424-0.516,6.642-0.725c0.212-0.02,0.258-0.091,0.253-0.287
			c-0.014-0.586-0.049-1.176,0.001-1.758c0.045-0.521-0.097-0.909-0.531-1.19c-0.211-0.137-0.252-0.331-0.253-0.573
			c-0.011-2.749-0.032-5.499-0.05-8.248c0.043,0,0.085,0,0.128,0c0.095,0.105,0.22,0.061,0.332,0.061
			c11.64,0.002,23.281,0.002,34.921,0c0.111,0,0.237,0.045,0.332-0.061c0.043,0,0.085,0,0.128,0
			c0.015,0.122,0.128,0.161,0.202,0.228c1.471,1.328,2.944,2.654,4.418,3.978c0.13,0.116,0.226,0.224,0.224,0.426
			c-0.023,2.387-0.032,4.774-0.058,7.16c-0.003,0.24,0.048,0.355,0.297,0.342c0.063-0.003,0.127,0.011,0.191,0.017
			c2.142,0.204,4.277,0.475,6.413,0.734c0.165,0.02,0.294,0.075,0.408,0.208c0.976,1.128,1.959,2.25,2.942,3.372
			c0.497,0.566,0.94,1.178,1.475,1.711c0,0.384,0,0.768,0,1.152c-0.133,0.302-0.044,0.618-0.054,0.927c0,0.46,0,0.92,0,1.379
			c-0.017,0.735-0.038,1.469-0.051,2.204c-0.067,3.952-0.132,7.904-0.193,11.857c-0.002,0.16-0.046,0.281-0.16,0.395
			c-1.757,1.756-3.512,3.514-5.261,5.278c-0.157,0.158-0.289,0.185-0.501,0.118c-1.807-0.571-3.612-1.151-5.439-1.657
			c-0.265-0.073-0.355-0.02-0.449,0.237c-0.573,1.553-1.3,3.032-2.185,4.432c-2.398,3.796-5.68,6.603-9.67,8.606
			c-2.296,1.152-4.684,2.046-7.242,2.421C32.465,59.733,32.125,59.716,31.808,59.84z M13.633,37.111
			c0.412,0.259,0.411,0.258,0.709-0.088c0.201-0.234,0.404-0.466,0.611-0.695c0.081-0.089,0.139-0.175,0.138-0.307
			c-0.004-1.371-0.003-2.743-0.003-4.146c-0.107,0.031-0.148,0.038-0.185,0.054c-1.106,0.463-2.21,0.931-3.318,1.388
			c-0.154,0.063-0.201,0.145-0.198,0.307c0.012,0.574,0.041,1.152-0.001,1.723c-0.031,0.433,0.13,0.677,0.519,0.807
			C12.456,36.52,13.027,36.847,13.633,37.111z M8.631,39.23c-0.001-0.053,0.006-0.108-0.005-0.159
			c-0.378-1.911-0.513-3.84-0.431-5.785c0.267-0.035,0.289,0.305,0.506,0.336c0-0.774,0.006-1.548-0.001-2.322
			c-0.02-2.122-0.042-4.243-0.075-6.364c-0.003-0.225,0.046-0.308,0.281-0.335c0.687-0.078,1.371-0.184,2.054-0.285
			c0.226-0.034,0.357-0.004,0.328,0.279c-0.025,0.253,0.001,0.511,0.001,0.767c0.001,0.739,0,1.478,0,2.217
			c0.101,0,0.124,0.006,0.142-0.001c1.137-0.419,2.271-0.845,3.411-1.253c0.18-0.065,0.183-0.169,0.181-0.313
			c-0.016-0.991-0.032-1.983-0.038-2.974c-0.001-0.158-0.061-0.251-0.178-0.345c-0.508-0.406-1.037-0.792-1.502-1.242
			c-0.332-0.322-0.68-0.362-1.095-0.313c-1.637,0.193-3.275,0.38-4.915,0.555c-0.199,0.021-0.331,0.087-0.457,0.235
			c-0.572,0.675-1.151,1.344-1.735,2.008c-0.122,0.138-0.169,0.277-0.165,0.46c0.043,1.844,0.072,3.688,0.121,5.531
			c0.007,0.281-0.071,0.496-0.268,0.682c-0.197,0.185-0.392,0.373-0.6,0.571c0.154,0.081,0.274,0.148,0.399,0.207
			c0.336,0.159,0.492,0.384,0.494,0.793c0.013,2.089,0.066,4.178,0.101,6.268c0.003,0.157,0.019,0.277,0.168,0.378
			c0.592,0.398,1.176,0.808,1.759,1.22c0.114,0.081,0.22,0.109,0.355,0.066c0.364-0.116,0.729-0.228,1.096-0.335
			c0.13-0.038,0.209-0.081,0.147-0.241C8.674,39.439,8.693,39.323,8.631,39.23z M48.208,42.429c-0.106-0.27-0.244-0.296-0.469-0.101
			c-0.183,0.159-0.357,0.348-0.661,0.296c-1.35-0.233-2.7-0.462-4.055-0.665c-0.501-0.075-1.005-0.232-1.517-0.138
			c-1.785,0.327-3.585,0.448-5.397,0.403c-0.478-0.012-0.957-0.024-1.435-0.035c-0.796-0.095-1.597-0.093-2.396-0.118
			c-3.596-0.115-7.146,0.282-10.666,0.992c-0.473,0.095-0.947,0.187-1.421,0.28c0.422-0.328,0.891-0.55,1.364-0.76
			c0.469-0.209,0.949-0.393,1.461-0.603c-4.689-0.554-9.058-1.806-12.695-4.99c0,0.156-0.009,0.271,0.001,0.385
			c0.219,2.401,0.773,4.718,1.78,6.916c1.311,2.86,3.235,5.171,6.033,6.693c0.643,0.35,1.318,0.626,2.053,0.904
			c-0.945,0.165-1.825,0.082-2.7-0.059c-0.864-0.14-1.693-0.418-2.511-0.74c0.079,0.158,0.164,0.293,0.265,0.415
			c0.267,0.318,0.525,0.647,0.816,0.943c2.455,2.494,5.471,3.801,8.916,4.196c0.215,0.025,0.443,0,0.63,0.17
			c0.447,0.405,0.973,0.687,1.529,0.91c1.548,0.621,3.164,0.731,4.805,0.603c0.47-0.037,0.949-0.031,1.401-0.204
			c0.341,0.005,0.671-0.068,1-0.142c2.37-0.534,4.65-1.309,6.757-2.541c3.122-1.825,5.573-4.329,7.452-7.404
			c0.83-1.358,1.501-2.795,2.061-4.285c0.095-0.254,0.054-0.354-0.22-0.39c-0.252-0.033-0.496-0.12-0.746-0.171
			C49.09,43.073,48.538,42.963,48.208,42.429z M14.553,18.863c-0.236-0.19-0.466-0.374-0.693-0.561
			c-0.085-0.07-0.161-0.112-0.285-0.098c-0.929,0.104-1.861,0.191-2.791,0.292c-1.574,0.171-3.148,0.349-4.721,0.524
			c-0.281,0.031-0.51,0.128-0.707,0.362c-0.878,1.044-1.759,2.087-2.677,3.095c-0.406,0.445-0.559,0.88-0.535,1.502
			c0.094,2.492,0.1,4.988,0.151,7.481c0.027,1.332,0.006,2.665,0.057,3.997c0.056,1.48,0.018,2.964,0.076,4.445
			c0.007,0.188,0.055,0.309,0.215,0.42c1.325,0.913,2.645,1.834,3.962,2.759c0.167,0.118,0.313,0.13,0.504,0.065
			c0.483-0.165,0.974-0.307,1.461-0.461c0.292-0.093,0.73-0.087,0.832-0.312c0.097-0.215-0.128-0.572-0.201-0.87
			c-0.042-0.17-0.118-0.212-0.29-0.155c-0.536,0.177-1.079,0.329-1.614,0.508c-0.19,0.063-0.335,0.047-0.501-0.07
			c-1.001-0.707-2.008-1.406-3.018-2.101c-0.137-0.095-0.196-0.195-0.199-0.365c-0.033-2.153-0.066-4.306-0.114-6.459
			c-0.029-1.3-0.007-2.6-0.055-3.901c-0.064-1.726-0.058-3.454-0.088-5.181c-0.003-0.173,0.051-0.301,0.163-0.43
			c0.855-0.98,1.708-1.961,2.551-2.951c0.138-0.162,0.285-0.226,0.49-0.247c0.994-0.105,1.985-0.231,2.979-0.338
			c1.195-0.128,2.391-0.242,3.585-0.369c0.206-0.022,0.368,0.034,0.524,0.168c0.413,0.353,0.833,0.699,1.256,1.04
			c0.131,0.105,0.248,0.318,0.458,0.179c0.225-0.148,0.492-0.231,0.486-0.624c-0.04-2.559-0.056-5.118-0.06-7.677
			c-0.001-0.382-0.067-0.681-0.41-0.891c-0.3-0.183-0.381-0.458-0.373-0.813c0.022-1.013,0.013-2.027-0.004-3.04
			c-0.004-0.261,0.082-0.317,0.327-0.317c3.072,0.007,6.144,0.006,9.216,0.001c0.196,0,0.339,0.06,0.484,0.189
			c0.392,0.351,0.8,0.686,1.255,1.073c0-0.334,0-0.586,0-0.839c-0.001-0.419-0.001-0.42,0.406-0.42c4.352,0,8.704,0,13.056,0
			c2.069,0,4.139,0,6.208-0.001c0.161,0,0.306,0.003,0.442,0.127c0.818,0.748,1.643,1.489,2.473,2.223
			c0.152,0.135,0.2,0.277,0.196,0.473c-0.024,1.3-0.022,2.601-0.044,3.902c-0.037,2.154-0.018,4.309-0.02,6.464
			c0,0.09-0.032,0.188,0.046,0.299c0.102-0.08,0.202-0.154,0.298-0.233c0.445-0.365,0.897-0.722,1.329-1.102
			c0.179-0.158,0.362-0.196,0.584-0.172c1.944,0.215,3.89,0.416,5.832,0.65c0.288,0.035,0.624-0.049,0.865,0.234
			c0.851,0.997,1.707,1.99,2.571,2.976c0.137,0.156,0.193,0.31,0.19,0.516c-0.028,1.78-0.05,3.561-0.064,5.341
			c-0.002,0.237-0.07,0.283-0.3,0.247c-0.482-0.076-0.966-0.174-1.503-0.175c0.073,0.121,0.114,0.194,0.16,0.263
			c0.465,0.702,0.929,1.405,1.398,2.104c0.123,0.183,0.19,0.37,0.177,0.597c-0.029,0.489-0.047,0.979-0.055,1.469
			c-0.027,1.599-0.05,3.198-0.068,4.797c-0.002,0.172-0.044,0.301-0.169,0.424c-0.976,0.97-1.948,1.944-2.914,2.923
			c-0.129,0.131-0.239,0.16-0.418,0.102c-2.065-0.67-4.153-1.259-6.269-1.749c-0.232-0.054-0.398-0.168-0.547-0.348
			c-0.516-0.624-1.047-1.236-1.565-1.859c-0.119-0.143-0.205-0.165-0.365-0.043c-0.526,0.4-1.071,0.774-1.597,1.174
			c-0.161,0.122-0.318,0.161-0.504,0.128c-2.262-0.403-4.537-0.703-6.826-0.906c-1.729-0.153-3.46-0.274-5.196-0.3
			c-2.27-0.034-4.541-0.052-6.808,0.118c-0.976,0.073-1.956,0.11-2.929,0.212c-1.395,0.145-2.787,0.329-4.178,0.508
			c-0.471,0.06-0.937,0.153-1.405,0.231c0.263,0.135,0.526,0.212,0.788,0.292c1.029,0.315,2.047,0.545,3.154,0.363
			c1.742-0.287,3.508-0.377,5.272-0.468c0.607-0.031,1.215-0.027,1.82-0.065c1.983-0.123,3.964-0.035,5.944,0.04
			c1.328,0.051,2.655,0.142,3.977,0.293c1.013,0.115,2.029,0.216,3.04,0.35c1.253,0.167,2.502,0.356,3.743,0.6
			c0.129,0.025,0.226-0.029,0.323-0.1c0.395-0.29,0.8-0.568,1.185-0.87c0.17-0.133,0.267-0.105,0.392,0.049
			c0.369,0.455,0.75,0.901,1.124,1.352c0.104,0.125,0.21,0.238,0.378,0.276c2.493,0.557,4.944,1.268,7.371,2.061
			c0.2,0.065,0.308,0.011,0.441-0.124c1.149-1.159,2.288-2.328,3.467-3.456c0.353-0.338,0.464-0.698,0.471-1.151
			c0.018-1.172,0-2.345,0.05-3.518c0.06-1.395,0.027-2.792,0.068-4.189c0.059-2.035,0.058-4.072,0.087-6.109
			c0.005-0.351,0.008-0.702,0.037-1.054c0.018-0.211,0.079-0.438-0.091-0.641c-1.075-1.283-2.163-2.554-3.282-3.798
			c-0.082-0.091-0.17-0.141-0.299-0.157c-1.013-0.12-2.024-0.256-3.037-0.373c-1.151-0.132-2.301-0.279-3.456-0.359
			c-0.496-0.034-1.022-0.293-1.536,0.12c0-0.149,0-0.243,0-0.337c0.007-2.752,0.009-5.504,0.027-8.256
			c0.002-0.272-0.077-0.455-0.277-0.632c-1.03-0.911-2.051-1.832-3.068-2.757c-0.153-0.139-0.303-0.199-0.51-0.199
			C35.604,6.279,24.874,6.28,14.144,6.273c-0.292,0-0.391,0.075-0.377,0.375c0.069,1.502,0.069,3.006,0.046,4.509
			c-0.007,0.477,0.086,0.849,0.488,1.12c0.245,0.165,0.299,0.396,0.298,0.687c-0.01,1.856-0.001,3.712-0.001,5.568
			C14.598,18.632,14.631,18.74,14.553,18.863z M55.246,34.537c-0.01,0-0.02,0-0.03,0c0,0.597-0.006,1.194,0.003,1.791
			c0.003,0.211-0.061,0.252-0.261,0.198c-0.636-0.17-1.275-0.336-1.918-0.475c-0.208-0.045-0.25-0.133-0.242-0.321
			c0.021-0.533,0.017-1.066,0.042-1.598c0.01-0.222-0.071-0.268-0.276-0.255c-1.053,0.066-2.106,0.126-3.16,0.173
			c-0.202,0.009-0.248,0.078-0.245,0.265c0.009,0.576,0.004,1.152-0.005,1.727c-0.002,0.139,0.045,0.238,0.135,0.34
			c0.608,0.7,1.212,1.404,1.811,2.112c0.096,0.113,0.206,0.178,0.344,0.211c1.696,0.397,3.371,0.869,5.033,1.388
			c0.179,0.056,0.292,0.029,0.419-0.104c0.399-0.415,0.785-0.848,1.224-1.218c0.524-0.442,0.828-0.942,0.711-1.647
			c-0.019-0.113,0.02-0.236,0.005-0.351c-0.071-0.553,0.2-0.928,0.606-1.253c0.356-0.285,0.354-0.304,0.029-0.626
			c-0.422-0.418-0.695-0.879-0.587-1.507c0.041-0.239,0.016-0.49,0.035-0.734c0.014-0.19-0.036-0.348-0.142-0.507
			c-0.573-0.859-1.146-1.719-1.697-2.592c-0.148-0.233-0.333-0.321-0.586-0.366c-1.129-0.2-2.255-0.421-3.385-0.616
			c-0.199-0.034-0.23-0.107-0.227-0.285c0.019-1.237,0.034-2.474,0.035-3.71c0-0.223,0.05-0.298,0.279-0.263
			c0.652,0.099,1.306,0.186,1.961,0.269c0.182,0.023,0.213,0.119,0.208,0.281c-0.018,0.565-0.021,1.13-0.037,1.695
			c-0.004,0.146,0.01,0.231,0.19,0.255c1.086,0.144,2.171,0.297,3.255,0.458c0.174,0.026,0.237,0.016,0.239-0.186
			c0.006-0.895,0.025-1.791,0.051-2.686c0.006-0.197-0.057-0.34-0.184-0.485c-0.571-0.648-1.136-1.3-1.693-1.961
			c-0.141-0.167-0.285-0.25-0.51-0.263c-0.392-0.022-0.781-0.093-1.172-0.137c-1.29-0.143-2.581-0.282-3.87-0.426
			c-0.17-0.019-0.302,0.026-0.435,0.138c-0.571,0.48-1.144,0.958-1.731,1.419c-0.171,0.134-0.231,0.275-0.232,0.484
			c-0.002,1.866-0.01,3.732-0.022,5.598c-0.001,0.159,0.042,0.281,0.138,0.407c0.609,0.795,1.214,1.594,1.811,2.398
			c0.098,0.132,0.215,0.192,0.366,0.222c1.155,0.235,2.308,0.479,3.464,0.705c0.2,0.039,0.262,0.111,0.257,0.312
			C55.238,33.385,55.246,33.961,55.246,34.537z M36.797,18.586c-0.969,0.211-1.91,0.419-2.853,0.618
			c-0.132,0.028-0.138,0.107-0.137,0.208c0.001,0.288-0.01,0.576,0.004,0.863c0.009,0.187-0.034,0.262-0.243,0.255
			c-0.522-0.019-1.045-0.024-1.567-0.009c-0.233,0.007-0.281-0.074-0.278-0.29c0.011-1.013,0.013-2.026-0.001-3.039
			c-0.003-0.238,0.055-0.304,0.298-0.299c1.13,0.024,2.26,0.022,3.39,0.044c0.22,0.004,0.297-0.048,0.291-0.279
			c-0.016-0.575-0.025-1.152,0.004-1.727c0.015-0.3-0.092-0.345-0.359-0.342c-1.119,0.013-2.239,0.003-3.358,0.001
			c-0.137,0-0.269,0.034-0.266-0.195c0.011-0.981,0.008-1.962,0.001-2.943c-0.001-0.159,0.057-0.195,0.203-0.193
			c0.554,0.007,1.109,0.011,1.663-0.002c0.19-0.004,0.23,0.064,0.225,0.238c-0.012,0.415,0.009,0.832-0.009,1.247
			c-0.01,0.235,0.059,0.292,0.285,0.24c0.828-0.192,1.657-0.379,2.49-0.549c0.189-0.039,0.233-0.111,0.232-0.291
			c-0.008-0.917-0.012-1.834,0.006-2.751c0.005-0.258-0.073-0.31-0.317-0.309c-2.644,0.009-5.288,0.005-7.933,0.005
			c-0.692,0-0.653,0.003-0.704,0.692c-0.042,0.557,0.11,0.965,0.579,1.266c0.13,0.084,0.231,0.19,0.23,0.386
			c-0.005,3.081-0.001,6.163,0.006,9.244c0,0.142-0.02,0.259-0.168,0.301c-0.572,0.163-0.691,0.569-0.614,1.097
			c0.021,0.146,0.018,0.299,0.004,0.447c-0.018,0.193,0.042,0.28,0.246,0.249c0.094-0.014,0.192-0.004,0.287-0.008
			c2.537-0.082,5.074-0.074,7.611-0.008c0.755,0.02,0.754,0.029,0.754-0.713C36.797,20.903,36.797,19.763,36.797,18.586z
			 M28.492,31.47c0.096,0.162,0.146,0.241,0.191,0.322c0.776,1.419,1.557,2.835,2.323,4.259c0.13,0.242,0.261,0.358,0.559,0.342
			c0.574-0.029,1.151-0.004,1.727,0.003c0.629,0.009,0.601,0.01,0.638-0.62c0.025-0.414-0.062-0.721-0.451-0.909
			c-0.134-0.064-0.186-0.172-0.186-0.334c0.006-2.719,0.007-5.438,0.003-8.156c0-0.157,0.037-0.271,0.181-0.336
			c0.393-0.179,0.522-0.485,0.454-0.9c-0.019-0.114-0.009-0.235,0.005-0.351c0.027-0.209-0.051-0.274-0.264-0.272
			c-0.981,0.01-1.962,0.002-2.943,0.002c-0.571,0-0.547,0.002-0.579,0.568c-0.025,0.43,0.044,0.772,0.481,0.952
			c0.17,0.07,0.167,0.219,0.167,0.374c-0.003,1.45-0.002,2.9-0.003,4.35c0,0.074-0.013,0.148-0.027,0.304
			c-0.064-0.162-0.095-0.239-0.126-0.316c-0.785-1.975-1.573-3.949-2.349-5.927c-0.074-0.188-0.157-0.263-0.363-0.252
			c-0.617,0.033-1.235,0.051-1.853,0.066c-0.725,0.018-0.708,0.014-0.733,0.749c-0.011,0.332,0.048,0.579,0.373,0.717
			c0.223,0.095,0.281,0.262,0.28,0.507c-0.008,2.623-0.009,5.246,0.008,7.869c0.002,0.331-0.065,0.566-0.357,0.742
			c-0.133,0.081-0.301,0.163-0.287,0.385c0.017,0.276,0.01,0.554,0.007,0.831c-0.002,0.14,0.018,0.199,0.197,0.186
			c0.999-0.068,1.999-0.114,2.999-0.17c0.561-0.031,0.536-0.034,0.568-0.599c0.025-0.427-0.028-0.775-0.472-0.952
			c-0.151-0.061-0.173-0.185-0.172-0.337C28.495,33.568,28.492,32.567,28.492,31.47z M24.434,16.163
			c0.478-0.384,0.922-0.751,1.378-1.102c0.133-0.103,0.18-0.208,0.179-0.375c-0.009-1.259-0.011-2.517-0.004-3.776
			c0.001-0.186-0.046-0.313-0.194-0.435c-0.47-0.385-0.931-0.781-1.384-1.187c-0.162-0.145-0.323-0.205-0.541-0.205
			c-2.24,0.007-4.48,0.005-6.72,0.005c-0.558,0-0.52,0.003-0.567,0.571c-0.053,0.642,0.069,1.172,0.649,1.526
			c0.145,0.089,0.129,0.229,0.129,0.367c0.007,1.195-0.007,2.39,0.035,3.583c0.016,0.459-0.102,0.815-0.443,1.097
			c-0.179,0.147-0.112,0.234,0.011,0.373c0.201,0.226,0.446,0.429,0.445,0.782c-0.003,1.269,0.003,2.538,0.01,3.808
			c0.001,0.127-0.012,0.243-0.141,0.29c-0.587,0.216-0.698,0.663-0.615,1.218c0.023,0.157,0.017,0.321,0.002,0.479
			c-0.021,0.22,0.081,0.24,0.266,0.221c1.293-0.135,2.588-0.246,3.887-0.304c0.3-0.014,0.385-0.115,0.356-0.395
			c-0.023-0.232-0.036-0.472-0.005-0.703c0.051-0.381-0.09-0.624-0.428-0.788c-0.147-0.071-0.274-0.155-0.271-0.38
			c0.015-1.066,0.007-2.133-0.002-3.2c-0.002-0.175,0.041-0.236,0.226-0.239c0.661-0.011,1.322-0.03,1.982-0.069
			c0.251-0.015,0.318,0.052,0.317,0.306c-0.009,1.674,0,3.349,0.002,5.024c0,0.158-0.043,0.313,0.23,0.297
			c0.947-0.057,1.896-0.086,2.843-0.13c0.787-0.036,0.754-0.041,0.799-0.831c0.028-0.496-0.101-0.841-0.562-1.04
			c-0.207-0.089-0.248-0.253-0.247-0.463c0.006-0.875-0.016-1.749,0.004-2.624c0.006-0.28-0.089-0.448-0.299-0.612
			C25.317,16.908,24.889,16.539,24.434,16.163z M19.384,34.58c-0.001,0-0.003,0-0.004,0c0-0.299,0.01-0.598-0.004-0.896
			c-0.009-0.19,0.058-0.264,0.247-0.282c0.455-0.042,0.911-0.087,1.362-0.16c0.187-0.03,0.213,0.019,0.212,0.184
			c-0.006,0.608-0.003,1.216,0.002,1.823c0.001,0.116-0.021,0.212-0.125,0.272c-0.374,0.214-0.461,0.545-0.405,0.946
			c0.022,0.157,0.012,0.32,0.002,0.479c-0.011,0.167,0.03,0.204,0.212,0.181c0.938-0.123,1.878-0.242,2.82-0.327
			c0.737-0.067,0.728-0.045,0.743-0.777c0.006-0.315-0.006-0.59-0.357-0.717c-0.247-0.09-0.292-0.277-0.291-0.526
			c0.006-2.815-0.002-5.631,0.003-8.446c0-0.203-0.058-0.334-0.218-0.455c-0.381-0.29-0.753-0.594-1.122-0.901
			c-0.123-0.103-0.246-0.143-0.406-0.129c-1.061,0.089-2.122,0.181-3.184,0.251c-0.432,0.029-0.791,0.139-1.076,0.498
			c-0.244,0.307-0.54,0.575-0.828,0.844c-0.154,0.144-0.203,0.297-0.201,0.503c0.018,2.943,0.029,5.886,0.042,8.829
			c0.001,0.161,0.022,0.326-0.143,0.428c-0.437,0.27-0.533,0.676-0.47,1.151c0.014,0.105,0.012,0.214,0,0.319
			c-0.023,0.201,0.065,0.229,0.242,0.193c1.093-0.222,2.192-0.412,3.297-0.564c0.145-0.02,0.234-0.057,0.226-0.233
			c-0.014-0.298-0.007-0.597-0.003-0.896c0.002-0.116-0.015-0.216-0.137-0.258c-0.408-0.137-0.489-0.439-0.439-0.825
			C19.402,34.923,19.384,34.75,19.384,34.58z M41.807,9.089c-1.023,0-2.047-0.004-3.07,0.003c-0.252,0.002-0.595-0.116-0.731,0.052
			c-0.127,0.157-0.015,0.49-0.055,0.739c-0.079,0.493,0.09,0.834,0.537,1.054c0.139,0.069,0.245,0.164,0.245,0.366
			c-0.01,3.113-0.01,6.226-0.009,9.339c0,0.132-0.027,0.235-0.15,0.286c-0.59,0.24-0.722,0.702-0.636,1.279
			c0.017,0.114,0.011,0.236-0.004,0.351c-0.028,0.209,0.052,0.272,0.262,0.278c2.376,0.06,4.745,0.232,7.115,0.402
			c0.152,0.011,0.262-0.025,0.376-0.119c0.468-0.387,0.935-0.776,1.415-1.147c0.176-0.136,0.25-0.279,0.248-0.506
			c-0.007-1.279,0.03-2.559-0.006-3.837c-0.015-0.527,0.119-0.937,0.519-1.258c0.198-0.159,0.173-0.272-0.017-0.405
			c-0.39-0.274-0.514-0.637-0.494-1.124c0.05-1.278,0.035-2.558,0.059-3.837c0.004-0.202-0.053-0.336-0.204-0.466
			c-0.483-0.419-0.958-0.847-1.427-1.282c-0.135-0.125-0.271-0.173-0.454-0.172C44.152,9.092,42.979,9.089,41.807,9.089z
			 M47.421,31.583c0.019,0,0.038,0,0.058,0c0-1.162,0.001-2.323,0-3.485c-0.001-0.468,0.121-0.99-0.046-1.39
			c-0.172-0.412-0.639-0.696-0.959-1.051c-0.288-0.319-0.595-0.49-1.059-0.528c-1.804-0.145-3.608-0.28-5.414-0.391
			c-0.069-0.004-0.175-0.04-0.178,0.069c-0.012,0.362-0.028,0.726,0.002,1.086c0.015,0.175,0.238,0.225,0.358,0.342
			c0.125,0.121,0.277,0.189,0.275,0.423c-0.022,2.76-0.031,5.521-0.038,8.281c0,0.159-0.042,0.272-0.188,0.33
			c-0.384,0.152-0.509,0.437-0.45,0.83c0.016,0.104,0.02,0.216-0.001,0.319c-0.061,0.301,0.107,0.352,0.352,0.373
			c1.642,0.143,3.275,0.356,4.9,0.631c0.887,0.15,0.886,0.157,1.615-0.37c0.19-0.137,0.371-0.287,0.57-0.411
			c0.166-0.103,0.21-0.231,0.209-0.421C47.417,34.674,47.421,33.129,47.421,31.583z M36.113,24.66c0-0.028,0-0.057,0-0.085
			c-0.224,0-0.448,0.003-0.671-0.001c-0.532-0.007-0.506-0.007-0.54,0.542c-0.027,0.432,0.052,0.77,0.476,0.962
			c0.131,0.059,0.164,0.17,0.164,0.314c-0.005,2.739-0.007,5.477-0.006,8.216c0,0.125-0.01,0.235-0.141,0.29
			c-0.455,0.19-0.569,0.547-0.498,1c0.013,0.083,0.01,0.171,0,0.255c-0.024,0.198,0.039,0.277,0.256,0.286
			c1.01,0.045,2.02,0.116,3.03,0.158c0.204,0.009,0.472,0.176,0.597,0.001c0.103-0.143,0.015-0.413,0.047-0.621
			c0.057-0.381-0.068-0.653-0.403-0.844c-0.136-0.078-0.236-0.181-0.235-0.379c0.01-2.749,0.011-5.499,0.01-8.248
			c0-0.142,0.023-0.26,0.16-0.313c0.445-0.172,0.54-0.514,0.482-0.943c-0.014-0.105-0.015-0.215,0.001-0.319
			c0.032-0.219-0.07-0.276-0.269-0.274C37.752,24.664,36.932,24.66,36.113,24.66z"/>
		<path style="fill:#292929;" d="M47.36,4.16c-0.095,0.105-0.22,0.061-0.332,0.061c-11.64,0.002-23.281,0.002-34.921,0
			c-0.111,0-0.237,0.045-0.332-0.061C23.637,4.16,35.499,4.16,47.36,4.16z"/>
		<path style="fill:#C9CBCC;" d="M0.053,25.603l-0.027,0.004L0,25.6c0-0.747,0-1.493,0-2.24C0.078,24.106,0.061,24.855,0.053,25.603
			z"/>
		<path style="fill:#C9CBCC;" d="M64,25.792l-0.027,0.004l-0.027-0.001c0-0.46,0-0.92,0-1.379c0.019,0.01,0.037,0.021,0.054,0.032
			C64,24.896,64,25.344,64,25.792z"/>
		<path style="fill:#951B2C;" d="M64,24.448c-0.017-0.012-0.036-0.022-0.054-0.032c0.011-0.31-0.079-0.625,0.054-0.928
			C64,23.808,64,24.128,64,24.448z"/>
		<path style="fill:#951B2C;" d="M14.553,18.863c0.078-0.123,0.046-0.231,0.046-0.332c0-1.856-0.01-3.712,0.001-5.568
			c0.002-0.291-0.052-0.522-0.298-0.687c-0.402-0.271-0.495-0.643-0.488-1.12c0.023-1.503,0.022-3.007-0.046-4.509
			c-0.014-0.3,0.085-0.375,0.377-0.375c10.73,0.007,21.461,0.006,32.191,0.002c0.207,0,0.358,0.06,0.51,0.199
			c1.017,0.926,2.038,1.846,3.068,2.757c0.201,0.178,0.279,0.36,0.277,0.632c-0.018,2.752-0.02,5.504-0.027,8.256
			c0,0.094,0,0.188,0,0.337c0.515-0.413,1.041-0.155,1.536-0.12c1.155,0.08,2.305,0.227,3.456,0.359
			c1.013,0.116,2.024,0.253,3.037,0.373c0.128,0.015,0.217,0.066,0.299,0.157c1.12,1.244,2.207,2.516,3.282,3.798
			c0.171,0.204,0.109,0.431,0.091,0.641c-0.03,0.352-0.032,0.703-0.037,1.054c-0.029,2.036-0.028,4.073-0.087,6.109
			c-0.041,1.397-0.008,2.794-0.068,4.189c-0.05,1.173-0.032,2.345-0.05,3.518c-0.007,0.453-0.118,0.813-0.471,1.151
			c-1.179,1.128-2.318,2.297-3.467,3.456c-0.133,0.134-0.241,0.189-0.441,0.124c-2.427-0.793-4.878-1.503-7.371-2.061
			c-0.168-0.038-0.275-0.15-0.378-0.276c-0.373-0.452-0.754-0.897-1.124-1.352c-0.125-0.154-0.222-0.182-0.392-0.049
			c-0.385,0.302-0.79,0.58-1.185,0.87c-0.098,0.072-0.195,0.126-0.323,0.1c-1.241-0.244-2.49-0.433-3.743-0.6
			c-1.011-0.134-2.026-0.235-3.04-0.35c-1.322-0.151-2.649-0.242-3.977-0.293c-1.98-0.075-3.962-0.163-5.944-0.04
			c-0.606,0.038-1.213,0.034-1.82,0.065c-1.764,0.09-3.53,0.181-5.272,0.468c-1.106,0.182-2.125-0.048-3.154-0.363
			c-0.262-0.08-0.525-0.156-0.788-0.292c0.468-0.078,0.935-0.171,1.405-0.231c1.392-0.178,2.783-0.362,4.178-0.508
			c0.973-0.101,1.953-0.138,2.929-0.212c2.267-0.17,4.538-0.153,6.808-0.118c1.735,0.026,3.466,0.147,5.196,0.3
			c2.289,0.203,4.564,0.503,6.826,0.906c0.186,0.033,0.344-0.005,0.504-0.128c0.525-0.4,1.071-0.774,1.597-1.174
			c0.16-0.122,0.246-0.1,0.365,0.043c0.518,0.622,1.049,1.235,1.565,1.859c0.149,0.18,0.315,0.294,0.547,0.348
			c2.115,0.49,4.203,1.079,6.269,1.749c0.179,0.058,0.289,0.029,0.418-0.102c0.967-0.979,1.939-1.953,2.914-2.923
			c0.124-0.124,0.167-0.253,0.169-0.424c0.018-1.599,0.041-3.198,0.068-4.797c0.008-0.49,0.026-0.98,0.055-1.469
			c0.014-0.227-0.054-0.414-0.177-0.597c-0.469-0.699-0.933-1.402-1.398-2.104c-0.046-0.069-0.087-0.142-0.16-0.263
			c0.537,0.001,1.021,0.098,1.503,0.175c0.229,0.036,0.298-0.01,0.3-0.247c0.013-1.78,0.036-3.561,0.064-5.341
			c0.003-0.206-0.053-0.359-0.19-0.516c-0.864-0.986-1.72-1.978-2.571-2.976c-0.241-0.283-0.577-0.199-0.865-0.234
			c-1.942-0.234-3.888-0.435-5.832-0.65c-0.222-0.024-0.405,0.014-0.584,0.172c-0.432,0.38-0.884,0.737-1.329,1.102
			c-0.096,0.079-0.196,0.153-0.298,0.233c-0.078-0.112-0.046-0.209-0.046-0.299c0.002-2.155-0.017-4.31,0.02-6.464
			c0.022-1.301,0.02-2.601,0.044-3.902c0.004-0.196-0.044-0.338-0.196-0.473c-0.83-0.734-1.655-1.476-2.473-2.223
			c-0.137-0.125-0.282-0.128-0.442-0.127c-2.069,0.001-4.139,0.001-6.208,0.001c-4.352,0-8.704,0-13.056,0
			c-0.407,0-0.407,0-0.406,0.42c0,0.253,0,0.505,0,0.839c-0.455-0.387-0.863-0.722-1.255-1.073c-0.145-0.13-0.287-0.19-0.484-0.189
			c-3.072,0.005-6.144,0.006-9.216-0.001c-0.244-0.001-0.331,0.056-0.327,0.317c0.017,1.013,0.027,2.027,0.004,3.04
			c-0.008,0.355,0.074,0.63,0.373,0.813c0.343,0.21,0.409,0.508,0.41,0.891c0.004,2.559,0.02,5.118,0.06,7.677
			c0.006,0.392-0.26,0.475-0.486,0.624c-0.211,0.139-0.328-0.074-0.458-0.179c-0.423-0.341-0.843-0.687-1.256-1.04
			c-0.156-0.133-0.318-0.189-0.524-0.168c-1.195,0.126-2.391,0.24-3.585,0.369c-0.993,0.107-1.985,0.232-2.979,0.338
			c-0.204,0.022-0.352,0.086-0.49,0.247c-0.843,0.99-1.696,1.971-2.551,2.951c-0.112,0.129-0.166,0.257-0.163,0.43
			c0.03,1.727,0.024,3.455,0.088,5.181c0.048,1.301,0.026,2.601,0.055,3.901c0.048,2.153,0.081,4.306,0.114,6.459
			c0.003,0.169,0.061,0.27,0.199,0.365c1.01,0.695,2.016,1.394,3.018,2.101c0.166,0.117,0.311,0.133,0.501,0.07
			c0.535-0.178,1.078-0.331,1.614-0.508c0.172-0.057,0.248-0.015,0.29,0.155c0.073,0.297,0.299,0.654,0.201,0.87
			c-0.102,0.225-0.54,0.219-0.832,0.312c-0.487,0.155-0.978,0.296-1.461,0.461c-0.19,0.065-0.336,0.053-0.504-0.065
			c-1.317-0.926-2.637-1.846-3.962-2.759c-0.161-0.111-0.208-0.232-0.215-0.42c-0.058-1.481-0.02-2.965-0.076-4.445
			C2.3,34.125,2.322,32.792,2.294,31.46c-0.051-2.494-0.058-4.989-0.151-7.481c-0.023-0.622,0.13-1.057,0.535-1.502
			c0.919-1.008,1.799-2.051,2.677-3.095c0.197-0.234,0.426-0.33,0.707-0.362c1.574-0.175,3.147-0.353,4.721-0.524
			c0.93-0.101,1.861-0.188,2.791-0.292c0.124-0.014,0.201,0.028,0.285,0.098C14.087,18.49,14.317,18.673,14.553,18.863z"/>
		<path style="fill:#CED0D1;" d="M33.339,58.119c-0.452,0.172-0.931,0.167-1.401,0.204c-1.641,0.128-3.257,0.018-4.805-0.603
			c-0.556-0.223-1.082-0.505-1.529-0.91c-0.187-0.169-0.416-0.145-0.63-0.17c-3.445-0.395-6.461-1.702-8.916-4.196
			c-0.291-0.296-0.549-0.624-0.816-0.943c-0.102-0.121-0.187-0.257-0.265-0.415c0.819,0.322,1.647,0.6,2.511,0.74
			c0.875,0.141,1.754,0.224,2.7,0.059c-0.735-0.278-1.41-0.554-2.053-0.904c-2.798-1.522-4.722-3.834-6.033-6.693
			c-1.007-2.197-1.561-4.514-1.78-6.916c-0.01-0.114-0.001-0.229-0.001-0.385c3.637,3.185,8.006,4.436,12.695,4.99
			c-0.512,0.21-0.992,0.394-1.461,0.603c-0.473,0.21-0.942,0.432-1.364,0.76c0.474-0.093,0.948-0.185,1.421-0.28
			c3.52-0.709,7.071-1.106,10.666-0.992c0.799,0.025,1.6,0.024,2.396,0.118c-0.049,0.016-0.098,0.038-0.148,0.048
			c-2.719,0.518-5.408,1.154-8.009,2.117c-1.391,0.515-2.741,1.116-3.953,1.989c-0.277,0.2-0.274,0.204,0.027,0.38
			c0.03,0.047,0.07,0.074,0.128,0.068l-0.007-0.002c0.044,0.109,0.155,0.141,0.24,0.198c1.363,0.915,2.777,1.745,4.252,2.466
			c1.697,0.83,3.443,1.526,5.316,1.852c0.345,0.06,0.694,0.096,1.105,0.152c-1.214,0.911-2.445,1.642-3.76,2.235
			c-1.321,0.595-2.696,0.993-4.203,1.079c0.097,0.132,0.142,0.202,0.195,0.265c1.148,1.356,2.581,2.269,4.285,2.762
			C31.189,58.098,32.261,58.134,33.339,58.119z"/>
		<path style="fill:#99192D;" d="M33.339,58.119c-1.078,0.015-2.15-0.021-3.196-0.324c-1.704-0.493-3.137-1.406-4.285-2.762
			c-0.054-0.063-0.099-0.133-0.195-0.265c1.507-0.086,2.882-0.484,4.203-1.079c1.315-0.592,2.547-1.324,3.76-2.235
			c-0.411-0.056-0.76-0.091-1.105-0.152c-1.873-0.327-3.619-1.023-5.316-1.852c-1.475-0.721-2.889-1.551-4.252-2.466
			c-0.085-0.057-0.195-0.09-0.24-0.198c0.101-0.019,0.186,0.029,0.275,0.063c0.447,0.17,0.892,0.349,1.345,0.502
			c2.291,0.776,4.629,1.332,7.044,1.555c1.572,0.145,3.138,0.166,4.711,0c1.573-0.166,3.099-0.508,4.576-1.074
			c0.05-0.019,0.101-0.034,0.163,0.046c-1.719,2.039-3.665,3.823-6.034,5.233c0.305,0.002,0.51-0.084,0.718-0.149
			c3.156-0.999,5.864-2.746,8.258-5c1.377-1.296,2.572-2.749,3.623-4.321c0.271-0.405,0.544-0.809,0.816-1.214
			c0.33,0.534,0.882,0.645,1.435,0.757c0.25,0.051,0.494,0.137,0.746,0.171c0.274,0.036,0.315,0.136,0.22,0.39
			c-0.56,1.49-1.231,2.927-2.061,4.285c-1.879,3.075-4.33,5.579-7.452,7.404c-2.107,1.232-4.387,2.007-6.757,2.541
			C34.01,58.051,33.68,58.124,33.339,58.119z"/>
		<path style="fill:#ED334D;" d="M48.208,42.429c-0.272,0.405-0.545,0.808-0.816,1.214c-1.051,1.572-2.246,3.026-3.623,4.321
			c-2.394,2.253-5.101,4-8.258,5c-0.208,0.066-0.413,0.151-0.718,0.149c2.369-1.41,4.315-3.195,6.034-5.233
			c-0.063-0.08-0.113-0.065-0.163-0.046c-1.477,0.566-3.003,0.908-4.576,1.074c-1.572,0.166-3.139,0.145-4.711,0
			c-2.415-0.223-4.753-0.779-7.044-1.555c-0.453-0.153-0.898-0.332-1.345-0.502c-0.09-0.034-0.174-0.082-0.275-0.063
			c0,0,0.007,0.002,0.007,0.002c-0.022-0.062-0.076-0.063-0.128-0.068c-0.302-0.176-0.305-0.18-0.027-0.38
			c1.212-0.873,2.562-1.474,3.953-1.989c2.601-0.963,5.29-1.599,8.009-2.117c0.051-0.01,0.099-0.032,0.148-0.048
			c0.478,0.012,0.957,0.024,1.435,0.035c1.812,0.045,3.612-0.076,5.397-0.403c0.512-0.094,1.016,0.063,1.517,0.138
			c1.354,0.203,2.705,0.432,4.055,0.665c0.304,0.052,0.478-0.137,0.661-0.296C47.964,42.133,48.102,42.159,48.208,42.429z"/>
		<path style="fill:#FDFDFD;" d="M8.195,33.285c-0.082,1.945,0.053,3.874,0.431,5.785c0.01,0.051,0.003,0.106,0.005,0.159
			c-0.337,0.097-0.674,0.193-1.01,0.292c-0.16,0.047-0.301,0.053-0.451-0.056c-0.421-0.307-0.849-0.605-1.284-0.892
			c-0.143-0.094-0.192-0.198-0.195-0.365c-0.015-0.787-0.003-1.573-0.045-2.362c-0.069-1.286,0.021-2.576-0.068-3.864
			c-0.021-0.305-0.057-0.569-0.312-0.76c-0.152-0.114-0.158-0.212-0.017-0.358c0.22-0.228,0.331-0.506,0.319-0.839
			c-0.032-0.904-0.042-1.808-0.066-2.712c-0.023-0.872,0.053-1.747-0.059-2.617c-0.034-0.26,0.052-0.466,0.237-0.661
			c0.336-0.354,0.657-0.726,0.96-1.108c0.355-0.448,0.721-0.752,1.364-0.817c1.454-0.146,2.91-0.291,4.361-0.478
			c0.243-0.031,0.431,0.055,0.609,0.208c0.428,0.366,0.852,0.738,1.298,1.081c0.16,0.123,0.194,0.249,0.199,0.431
			c0.018,0.744-0.059,1.491,0.052,2.233c0.032,0.213-0.055,0.334-0.265,0.402c-0.343,0.112-0.678,0.251-1.018,0.375
			c-0.457,0.166-0.915,0.328-1.392,0.499c-0.007-0.098-0.017-0.161-0.014-0.223c0.036-0.895-0.067-1.787-0.056-2.681
			c0.002-0.185-0.02-0.255-0.244-0.222c-1.028,0.15-2.059,0.275-3.089,0.409c-0.225,0.029-0.332,0.119-0.329,0.386
			c0.019,1.768,0.015,3.536,0.066,5.303C8.218,30.983,8.194,32.135,8.195,33.285z"/>
		<path style="fill:#CBCDCE;" d="M55.246,34.537c0-0.576-0.008-1.152,0.005-1.727c0.005-0.201-0.058-0.273-0.257-0.312
			c-1.156-0.226-2.309-0.47-3.464-0.705c-0.151-0.031-0.268-0.09-0.366-0.222c-0.597-0.804-1.202-1.603-1.811-2.398
			c-0.096-0.126-0.139-0.248-0.138-0.407c0.012-1.866,0.02-3.732,0.022-5.598c0-0.209,0.061-0.35,0.232-0.484
			c0.586-0.461,1.159-0.939,1.731-1.419c0.132-0.111,0.265-0.157,0.435-0.138c1.29,0.144,2.58,0.283,3.87,0.426
			c0.391,0.043,0.78,0.115,1.172,0.137c0.225,0.013,0.369,0.096,0.51,0.263c0.556,0.66,1.122,1.313,1.693,1.961
			c0.128,0.145,0.19,0.288,0.184,0.485c-0.026,0.895-0.045,1.791-0.051,2.686c-0.001,0.202-0.065,0.212-0.239,0.186
			c-1.084-0.161-2.169-0.314-3.255-0.458c-0.181-0.024-0.194-0.109-0.19-0.255c0.016-0.565,0.019-1.13,0.037-1.695
			c0.005-0.162-0.026-0.258-0.208-0.281c-0.654-0.083-1.309-0.17-1.961-0.269c-0.229-0.035-0.279,0.04-0.279,0.263
			c-0.001,1.237-0.015,2.474-0.035,3.71c-0.003,0.178,0.028,0.251,0.227,0.285c1.13,0.195,2.256,0.415,3.385,0.616
			c0.254,0.045,0.439,0.133,0.586,0.366c0.552,0.873,1.125,1.733,1.697,2.592c0.106,0.159,0.157,0.317,0.142,0.507
			c-0.019,0.244,0.007,0.495-0.035,0.734c-0.109,0.628,0.165,1.089,0.587,1.507c0.325,0.321,0.326,0.34-0.029,0.626
			c-0.406,0.326-0.677,0.701-0.606,1.253c0.015,0.115-0.024,0.237-0.005,0.351c0.117,0.705-0.187,1.205-0.711,1.647
			c-0.438,0.37-0.825,0.803-1.224,1.218c-0.128,0.133-0.24,0.159-0.419,0.104c-1.662-0.518-3.337-0.991-5.033-1.388
			c-0.137-0.032-0.248-0.097-0.344-0.211c-0.599-0.708-1.203-1.412-1.811-2.112c-0.089-0.103-0.137-0.201-0.135-0.34
			c0.009-0.576,0.013-1.152,0.005-1.727c-0.003-0.187,0.043-0.256,0.245-0.265c1.054-0.047,2.107-0.107,3.16-0.173
			c0.205-0.013,0.286,0.034,0.276,0.255c-0.025,0.532-0.021,1.066-0.042,1.598c-0.007,0.189,0.034,0.276,0.242,0.321
			c0.643,0.14,1.282,0.305,1.918,0.475c0.201,0.054,0.265,0.012,0.261-0.198c-0.01-0.597-0.003-1.194-0.003-1.791
			C55.226,34.537,55.236,34.537,55.246,34.537z M55.747,34.667c-0.003,0-0.006,0-0.009,0c0,0.778-0.005,1.557,0.003,2.335
			c0.002,0.212-0.056,0.244-0.262,0.191c-0.966-0.251-1.936-0.487-2.907-0.719c-0.21-0.05-0.297-0.137-0.287-0.368
			c0.021-0.479,0.002-0.96,0.011-1.439c0.003-0.179-0.061-0.245-0.241-0.241c-0.733,0.019-1.464,0.06-2.195,0.125
			c-0.156,0.014-0.198,0.08-0.196,0.221c0.004,0.341,0.009,0.683-0.004,1.024c-0.007,0.186,0.058,0.316,0.181,0.453
			c0.391,0.434,0.763,0.886,1.149,1.325c0.283,0.322,0.524,0.656,1.012,0.758c1.341,0.281,2.663,0.65,3.964,1.082
			c0.445,0.148,0.786,0.138,1.069-0.278c0.112-0.165,0.265-0.314,0.427-0.429c0.721-0.513,0.982-1.196,0.854-2.065
			c-0.07-0.472,0.115-0.887,0.482-1.192c0.218-0.181,0.211-0.327,0.033-0.52c-0.349-0.379-0.508-0.823-0.464-1.346
			c0.026-0.307,0.005-0.618,0.008-0.927c0.001-0.119-0.017-0.225-0.088-0.331c-0.543-0.815-1.081-1.633-1.616-2.453
			c-0.069-0.106-0.145-0.159-0.275-0.182c-1.252-0.225-2.501-0.469-3.755-0.683c-0.243-0.042-0.292-0.139-0.287-0.353
			c0.025-1.107,0.044-2.214,0.06-3.321c0.007-0.469,0.005-0.938,0.001-1.408c-0.001-0.154,0.013-0.222,0.211-0.193
			c0.996,0.146,1.996,0.271,2.994,0.401c0.176,0.023,0.257,0.102,0.253,0.293c-0.011,0.565-0.004,1.13-0.009,1.695
			c-0.001,0.144,0.02,0.23,0.2,0.253c0.715,0.092,1.427,0.201,2.14,0.31c0.22,0.034,0.303-0.036,0.301-0.27
			c-0.004-0.489-0.015-0.977,0.041-1.467c0.031-0.272,0.085-0.569-0.144-0.821c-0.392-0.433-0.746-0.902-1.152-1.321
			c-0.2-0.207-0.306-0.545-0.632-0.595c-0.67-0.102-1.345-0.179-2.019-0.257c-0.748-0.087-1.495-0.19-2.245-0.234
			c-0.345-0.02-0.714-0.212-1.054,0.109c-0.401,0.379-0.837,0.722-1.274,1.06c-0.227,0.176-0.298,0.394-0.298,0.661
			c0,1.685-0.002,3.37-0.006,5.054c0,0.133,0.03,0.24,0.114,0.351c0.548,0.718,1.087,1.444,1.626,2.168
			c0.073,0.099,0.154,0.154,0.283,0.18c1.237,0.25,2.471,0.512,3.707,0.767c0.2,0.041,0.305,0.117,0.299,0.357
			C55.735,33.174,55.747,33.921,55.747,34.667z"/>
		<path style="fill:#CDCFD0;" d="M36.797,18.586c0,1.177,0,2.317,0,3.456c0,0.742,0,0.732-0.754,0.713
			c-2.537-0.066-5.074-0.073-7.611,0.008c-0.096,0.003-0.193-0.007-0.287,0.008c-0.204,0.031-0.264-0.057-0.246-0.249
			c0.014-0.148,0.017-0.301-0.004-0.447c-0.077-0.527,0.043-0.934,0.614-1.097c0.148-0.042,0.168-0.159,0.168-0.301
			c-0.006-3.081-0.011-6.163-0.006-9.244c0-0.196-0.1-0.302-0.23-0.386c-0.468-0.301-0.621-0.709-0.579-1.266
			c0.052-0.689,0.012-0.692,0.704-0.692c2.644,0,5.288,0.003,7.933-0.005c0.244-0.001,0.322,0.051,0.317,0.309
			c-0.018,0.917-0.013,1.834-0.006,2.751c0.001,0.18-0.042,0.252-0.232,0.291c-0.833,0.17-1.662,0.358-2.49,0.549
			c-0.226,0.052-0.295-0.005-0.285-0.24c0.018-0.415-0.003-0.832,0.009-1.247c0.005-0.174-0.035-0.242-0.225-0.238
			c-0.554,0.013-1.109,0.009-1.663,0.002c-0.147-0.002-0.205,0.034-0.203,0.193c0.007,0.981,0.01,1.962-0.001,2.943
			c-0.003,0.229,0.129,0.194,0.266,0.195c1.12,0.001,2.239,0.011,3.358-0.001c0.266-0.003,0.374,0.042,0.359,0.342
			c-0.029,0.574-0.02,1.151-0.004,1.727c0.006,0.231-0.07,0.283-0.291,0.279c-1.13-0.021-2.26-0.019-3.39-0.044
			c-0.242-0.005-0.301,0.061-0.298,0.299c0.014,1.013,0.012,2.026,0.001,3.039c-0.002,0.216,0.046,0.297,0.278,0.29
			c0.522-0.015,1.045-0.01,1.567,0.009c0.209,0.008,0.252-0.067,0.243-0.255c-0.014-0.287-0.003-0.576-0.004-0.863
			c0-0.101,0.005-0.18,0.137-0.208C34.887,19.005,35.828,18.797,36.797,18.586z M32.369,22.214c0,0.001,0,0.002,0,0.003
			c1.226,0,2.452-0.011,3.678,0.01c0.215,0.004,0.247-0.04,0.245-0.227c-0.007-0.821-0.012-1.642,0.003-2.463
			c0.005-0.27-0.117-0.308-0.33-0.262c-0.477,0.103-0.953,0.211-1.43,0.311c-0.16,0.034-0.237,0.11-0.232,0.283
			c0.01,0.298-0.01,0.598,0.006,0.895c0.012,0.225-0.068,0.294-0.291,0.29c-0.832-0.011-1.663-0.014-2.495,0
			c-0.25,0.004-0.301-0.087-0.3-0.316c0.009-1.343,0.01-2.687,0-4.03c-0.002-0.246,0.06-0.332,0.32-0.328
			c1.109,0.015,2.218,0.001,3.327,0.012c0.241,0.002,0.358-0.05,0.331-0.317c-0.021-0.211-0.021-0.428,0-0.639
			c0.026-0.266-0.07-0.345-0.337-0.342c-1.109,0.013-2.218,0.002-3.327,0.007c-0.195,0.001-0.316-0.016-0.313-0.267
			c0.011-1.279,0.007-2.559,0.002-3.838c-0.001-0.175,0.052-0.247,0.237-0.246c0.874,0.007,1.749,0.006,2.623,0.001
			c0.167-0.001,0.226,0.062,0.223,0.226c-0.007,0.362,0.013,0.726-0.007,1.087c-0.016,0.288,0.115,0.323,0.349,0.27
			c0.465-0.106,0.932-0.209,1.399-0.304c0.177-0.036,0.248-0.12,0.245-0.305c-0.009-0.586-0.018-1.173,0.003-1.759
			c0.01-0.289-0.068-0.379-0.369-0.378c-2.388,0.013-4.777,0.007-7.165,0.007c-0.075,0-0.149,0-0.224,0.005
			c-0.073,0.004-0.106,0.048-0.127,0.119c-0.09,0.315,0.021,0.656,0.296,0.864c0.321,0.242,0.486,0.52,0.483,0.962
			c-0.023,2.943-0.022,5.886-0.001,8.828c0.004,0.542-0.028,0.975-0.638,1.166c-0.262,0.082-0.131,0.353-0.13,0.537
			c0.001,0.198,0.186,0.132,0.299,0.133C29.938,22.215,31.154,22.214,32.369,22.214z"/>
		<path style="fill:#CBCDCE;" d="M28.492,31.47c0,1.097,0.003,2.098-0.003,3.1c-0.001,0.152,0.021,0.276,0.172,0.337
			c0.444,0.178,0.497,0.525,0.472,0.952c-0.033,0.565-0.008,0.568-0.568,0.599c-1,0.055-2,0.101-2.999,0.17
			c-0.179,0.012-0.198-0.046-0.197-0.186c0.003-0.277,0.011-0.555-0.007-0.831c-0.014-0.221,0.154-0.304,0.287-0.385
			c0.291-0.176,0.359-0.411,0.357-0.742c-0.017-2.623-0.016-5.246-0.008-7.869c0.001-0.245-0.057-0.412-0.28-0.507
			c-0.325-0.138-0.384-0.385-0.373-0.717c0.025-0.735,0.007-0.731,0.733-0.749c0.618-0.015,1.236-0.033,1.853-0.066
			c0.206-0.011,0.289,0.064,0.363,0.252c0.776,1.978,1.564,3.952,2.349,5.927c0.031,0.077,0.061,0.154,0.126,0.316
			c0.014-0.155,0.027-0.23,0.027-0.304c0.001-1.45,0-2.9,0.003-4.35c0-0.156,0.003-0.304-0.167-0.374
			c-0.437-0.18-0.506-0.522-0.481-0.952c0.032-0.566,0.008-0.568,0.579-0.568c0.981,0,1.962,0.007,2.943-0.002
			c0.213-0.002,0.29,0.063,0.264,0.272c-0.015,0.116-0.024,0.237-0.005,0.351c0.068,0.415-0.062,0.721-0.454,0.9
			c-0.144,0.066-0.181,0.18-0.181,0.336c0.004,2.719,0.003,5.438-0.003,8.156c0,0.162,0.052,0.269,0.186,0.334
			c0.389,0.188,0.476,0.494,0.451,0.909c-0.037,0.63-0.01,0.629-0.638,0.62c-0.576-0.008-1.153-0.033-1.727-0.003
			c-0.298,0.015-0.429-0.1-0.559-0.342c-0.765-1.425-1.546-2.841-2.323-4.259C28.639,31.711,28.588,31.632,28.492,31.47z M28,29.623
			c0.099,0.006,0.123,0.083,0.157,0.145c0.639,1.167,1.278,2.334,1.915,3.502c0.413,0.757,0.827,1.514,1.234,2.274
			c0.116,0.217,0.261,0.318,0.528,0.311c0.434-0.012,0.873-0.053,1.306,0.04c0.084,0.018,0.214,0.047,0.25-0.072
			c0.039-0.13,0.062-0.28-0.045-0.394c-0.079-0.084-0.174-0.158-0.274-0.217c-0.231-0.139-0.308-0.323-0.307-0.603
			c0.013-2.634,0.015-5.268,0.002-7.901c-0.002-0.485-0.033-0.946,0.527-1.161c0.036-0.014,0.066-0.056,0.086-0.092
			c0.107-0.19,0.019-0.425-0.169-0.426c-0.778-0.006-1.557-0.001-2.335-0.003c-0.168,0-0.214,0.092-0.221,0.244
			c-0.01,0.234,0.18,0.312,0.325,0.39c0.265,0.141,0.323,0.339,0.322,0.623c-0.01,2.357-0.006,4.713-0.006,7.07
			c0,0.104,0,0.208,0,0.312c-0.17-0.268-0.277-0.534-0.383-0.801c-0.994-2.512-1.99-5.023-2.976-7.538
			c-0.071-0.18-0.159-0.251-0.349-0.239c-0.488,0.029-0.977,0.043-1.465,0.067c-0.097,0.005-0.238-0.046-0.258,0.111
			c-0.017,0.131-0.055,0.282,0.085,0.383c0.078,0.056,0.156,0.113,0.241,0.156c0.232,0.119,0.312,0.29,0.311,0.561
			c-0.011,2.698-0.011,5.396,0,8.093c0.002,0.449,0.025,0.876-0.466,1.111c-0.116,0.056-0.123,0.185-0.126,0.308
			c-0.005,0.166,0.057,0.236,0.226,0.216c0.729-0.086,1.461-0.122,2.194-0.127c0.098-0.001,0.245,0.046,0.266-0.1
			c0.022-0.147,0.083-0.322-0.094-0.435c-0.063-0.04-0.12-0.089-0.185-0.125c-0.267-0.148-0.358-0.355-0.354-0.674
			c0.02-1.567,0.008-3.135,0.011-4.702C27.974,29.828,27.942,29.72,28,29.623z"/>
		<path style="fill:#CBCDCE;" d="M24.434,16.163c0.455,0.376,0.883,0.745,1.329,1.091c0.21,0.163,0.306,0.332,0.299,0.612
			c-0.02,0.874,0.001,1.749-0.004,2.624c-0.001,0.21,0.04,0.374,0.247,0.463c0.461,0.199,0.59,0.544,0.562,1.04
			c-0.045,0.79-0.012,0.794-0.799,0.831c-0.948,0.044-1.896,0.073-2.843,0.13c-0.273,0.016-0.23-0.139-0.23-0.297
			c-0.003-1.675-0.011-3.349-0.002-5.024c0.001-0.254-0.066-0.321-0.317-0.306c-0.66,0.04-1.321,0.058-1.982,0.069
			c-0.185,0.003-0.227,0.064-0.226,0.239c0.009,1.067,0.017,2.133,0.002,3.2c-0.003,0.225,0.124,0.308,0.271,0.38
			c0.338,0.164,0.48,0.407,0.428,0.788c-0.031,0.23-0.019,0.47,0.005,0.703c0.028,0.28-0.056,0.382-0.356,0.395
			c-1.299,0.059-2.594,0.17-3.887,0.304c-0.185,0.019-0.287-0.001-0.266-0.221c0.015-0.158,0.021-0.323-0.002-0.479
			c-0.083-0.556,0.027-1.002,0.615-1.218c0.129-0.047,0.142-0.163,0.141-0.29c-0.007-1.269-0.013-2.538-0.01-3.808
			c0.001-0.353-0.244-0.556-0.445-0.782c-0.124-0.139-0.19-0.226-0.011-0.373c0.342-0.281,0.46-0.637,0.443-1.097
			c-0.043-1.193-0.028-2.389-0.035-3.583c-0.001-0.139,0.016-0.279-0.129-0.367c-0.58-0.354-0.702-0.884-0.649-1.526
			c0.047-0.568,0.009-0.571,0.567-0.571c2.24,0,4.48,0.003,6.72-0.005c0.218-0.001,0.38,0.059,0.541,0.205
			c0.452,0.406,0.914,0.802,1.384,1.187c0.148,0.122,0.195,0.249,0.194,0.435c-0.006,1.259-0.005,2.517,0.004,3.776
			c0.001,0.167-0.046,0.272-0.179,0.375C25.356,15.413,24.912,15.779,24.434,16.163z M20.543,9.596
			c-1.056,0-2.111-0.001-3.167,0.002c-0.106,0-0.27-0.053-0.278,0.125c-0.013,0.311-0.091,0.642,0.238,0.871
			c0.138,0.096,0.238,0.245,0.372,0.35c0.113,0.089,0.154,0.185,0.151,0.326c-0.024,1.353,0.085,2.703,0.062,4.057
			c-0.006,0.336-0.059,0.637-0.278,0.889c-0.136,0.156-0.107,0.273,0.011,0.416c0.204,0.249,0.268,0.54,0.266,0.864
			c-0.009,1.205-0.02,2.41,0.009,3.614c0.01,0.407-0.076,0.685-0.458,0.871c-0.243,0.118-0.373,0.546-0.247,0.768
			c0.122,0.214,0.32,0.056,0.486,0.045c0.043-0.003,0.085-0.003,0.128-0.006c0.878-0.065,1.757-0.133,2.636-0.191
			c0.157-0.01,0.183-0.082,0.199-0.22c0.046-0.402-0.068-0.712-0.448-0.898c-0.161-0.079-0.262-0.186-0.261-0.395
			c0.008-1.311,0.007-2.623-0.001-3.934c-0.001-0.201,0.075-0.255,0.263-0.253c0.841,0.008,1.679-0.099,2.521-0.068
			c0.105,0.004,0.211-0.016,0.316-0.034c0.388-0.068,0.424-0.041,0.425,0.348c0.001,1.653,0.006,3.305-0.003,4.958
			c-0.001,0.238,0.066,0.324,0.308,0.304c0.679-0.055,1.359-0.079,2.041-0.075c0.104,0.001,0.208-0.042,0.314-0.05
			c0.124-0.009,0.154-0.075,0.165-0.187c0.034-0.329-0.005-0.616-0.357-0.763c-0.339-0.142-0.437-0.392-0.424-0.76
			c0.029-0.831-0.004-1.663,0.016-2.495c0.006-0.272-0.105-0.433-0.299-0.589c-0.48-0.386-0.946-0.79-1.428-1.174
			c-0.151-0.12-0.158-0.18-0.002-0.303c0.501-0.394,0.986-0.809,1.486-1.205c0.132-0.105,0.175-0.216,0.174-0.379
			c-0.006-1.088-0.008-2.175,0-3.263c0.001-0.188-0.052-0.325-0.194-0.445c-0.373-0.317-0.739-0.641-1.109-0.961
			c-0.142-0.123-0.304-0.167-0.498-0.165C22.633,9.601,21.588,9.596,20.543,9.596z"/>
		<path style="fill:#CBCDCE;" d="M8.195,33.285c-0.001-1.151,0.023-2.302-0.01-3.452c-0.051-1.768-0.047-3.536-0.066-5.303
			c-0.003-0.267,0.104-0.357,0.329-0.386c1.03-0.134,2.061-0.259,3.089-0.409c0.223-0.033,0.246,0.038,0.244,0.222
			c-0.011,0.894,0.092,1.786,0.056,2.681c-0.003,0.062,0.007,0.125,0.014,0.223c0.477-0.171,0.935-0.333,1.392-0.499
			c0.34-0.124,0.674-0.263,1.018-0.375c0.21-0.068,0.297-0.189,0.265-0.402c-0.111-0.742-0.034-1.489-0.052-2.233
			c-0.004-0.181-0.038-0.307-0.199-0.431c-0.446-0.343-0.87-0.715-1.298-1.081c-0.178-0.152-0.365-0.239-0.609-0.208
			c-1.451,0.187-2.907,0.333-4.361,0.478c-0.643,0.064-1.009,0.369-1.364,0.817c-0.304,0.383-0.624,0.754-0.96,1.108
			c-0.186,0.196-0.271,0.401-0.237,0.661c0.112,0.87,0.036,1.745,0.059,2.617c0.024,0.904,0.034,1.809,0.066,2.712
			c0.012,0.333-0.099,0.611-0.319,0.839c-0.141,0.147-0.135,0.244,0.017,0.358c0.255,0.191,0.291,0.455,0.312,0.76
			c0.088,1.288-0.001,2.578,0.068,3.864c0.042,0.788,0.03,1.575,0.045,2.362c0.003,0.167,0.052,0.271,0.195,0.365
			c0.435,0.287,0.863,0.585,1.284,0.892c0.15,0.109,0.291,0.103,0.451,0.056c0.336-0.099,0.673-0.195,1.01-0.292
			c0.063,0.093,0.043,0.209,0.081,0.305c0.062,0.16-0.017,0.203-0.147,0.241c-0.367,0.107-0.732,0.219-1.096,0.335
			c-0.135,0.043-0.241,0.015-0.355-0.066c-0.583-0.412-1.167-0.822-1.759-1.22c-0.149-0.1-0.165-0.221-0.168-0.378
			c-0.034-2.089-0.087-4.178-0.101-6.268c-0.003-0.409-0.158-0.634-0.494-0.793c-0.124-0.059-0.244-0.127-0.399-0.207
			c0.208-0.198,0.403-0.385,0.6-0.571c0.197-0.186,0.275-0.401,0.268-0.682c-0.049-1.844-0.079-3.688-0.121-5.531
			c-0.004-0.183,0.043-0.322,0.165-0.46c0.585-0.664,1.163-1.334,1.735-2.008c0.126-0.148,0.258-0.214,0.457-0.235
			c1.639-0.175,3.278-0.362,4.915-0.555c0.415-0.049,0.763-0.009,1.095,0.313c0.466,0.45,0.995,0.836,1.502,1.242
			c0.117,0.094,0.177,0.187,0.178,0.345c0.006,0.991,0.022,1.983,0.038,2.974c0.002,0.145-0.001,0.249-0.181,0.313
			c-1.14,0.408-2.275,0.834-3.411,1.253c-0.018,0.007-0.042,0.001-0.142,0.001c0-0.739,0.001-1.478,0-2.217
			c0-0.256-0.027-0.514-0.001-0.767c0.028-0.282-0.102-0.312-0.328-0.279c-0.684,0.102-1.368,0.207-2.054,0.285
			c-0.235,0.027-0.285,0.109-0.281,0.335c0.033,2.121,0.055,4.243,0.075,6.364c0.007,0.774,0.001,1.548,0.001,2.322
			C8.484,33.59,8.462,33.251,8.195,33.285z"/>
		<path style="fill:#CACCCD;" d="M19.384,34.58c0,0.171,0.018,0.344-0.004,0.511c-0.05,0.385,0.03,0.687,0.439,0.825
			c0.122,0.041,0.139,0.142,0.137,0.258c-0.004,0.299-0.01,0.598,0.003,0.896c0.008,0.176-0.081,0.214-0.226,0.233
			c-1.105,0.151-2.204,0.341-3.297,0.564c-0.176,0.036-0.264,0.008-0.242-0.193c0.012-0.105,0.014-0.215,0-0.319
			c-0.063-0.475,0.033-0.881,0.47-1.151c0.165-0.102,0.144-0.267,0.143-0.428c-0.014-2.943-0.024-5.886-0.042-8.829
			c-0.001-0.207,0.048-0.36,0.201-0.503c0.288-0.269,0.584-0.537,0.828-0.844c0.285-0.359,0.644-0.47,1.076-0.498
			c1.062-0.07,2.123-0.161,3.184-0.251c0.161-0.014,0.283,0.027,0.406,0.129c0.368,0.307,0.74,0.611,1.122,0.901
			c0.16,0.122,0.218,0.252,0.218,0.455c-0.005,2.815,0.003,5.631-0.003,8.446c-0.001,0.25,0.044,0.437,0.291,0.526
			c0.351,0.127,0.363,0.403,0.357,0.717c-0.015,0.732-0.006,0.71-0.743,0.777c-0.942,0.086-1.882,0.204-2.82,0.327
			c-0.182,0.024-0.222-0.013-0.212-0.181c0.01-0.159,0.02-0.322-0.002-0.479c-0.056-0.402,0.031-0.732,0.405-0.946
			c0.104-0.06,0.126-0.156,0.125-0.272c-0.005-0.608-0.008-1.216-0.002-1.823c0.002-0.165-0.025-0.214-0.212-0.184
			c-0.451,0.073-0.907,0.119-1.362,0.16c-0.189,0.017-0.256,0.091-0.247,0.282c0.014,0.298,0.004,0.597,0.004,0.896
			C19.381,34.58,19.382,34.58,19.384,34.58z M18.88,34.508c0,0-0.001,0-0.001,0c0-0.437,0.004-0.875-0.002-1.312
			c-0.002-0.158,0.048-0.221,0.216-0.238c0.781-0.079,1.563-0.157,2.338-0.274c0.244-0.037,0.27,0.03,0.268,0.231
			c-0.006,0.704-0.015,1.408,0.004,2.112c0.011,0.387-0.002,0.735-0.381,0.965c-0.185,0.112-0.191,0.325-0.111,0.486
			c0.07,0.141,0.249,0.063,0.381,0.048c0.685-0.077,1.368-0.181,2.054-0.226c0.287-0.019,0.303-0.143,0.292-0.358
			c-0.01-0.191-0.162-0.247-0.288-0.305c-0.277-0.127-0.362-0.318-0.36-0.625c0.012-2.794,0.005-5.589,0.006-8.383
			c0-0.175,0-0.335-0.162-0.457c-0.305-0.231-0.601-0.473-0.9-0.713c-0.066-0.053-0.122-0.097-0.224-0.089
			c-1.016,0.082-2.032,0.155-3.048,0.232c-0.337,0.025-0.63,0.123-0.856,0.407c-0.178,0.224-0.392,0.423-0.608,0.612
			c-0.178,0.156-0.228,0.331-0.226,0.562c0.015,2.75-0.026,5.501,0.073,8.249c0.019,0.54-0.027,1.011-0.518,1.336
			c-0.145,0.096-0.167,0.262-0.104,0.401c0.068,0.15,0.222,0.074,0.34,0.054c0.69-0.117,1.379-0.239,2.069-0.357
			c0.121-0.021,0.29,0.027,0.307-0.149c0.017-0.178,0.107-0.415-0.137-0.506c-0.414-0.155-0.457-0.465-0.428-0.841
			C18.898,35.085,18.88,34.796,18.88,34.508z"/>
		<path style="fill:#CDCECF;" d="M41.807,9.089c1.173,0,2.345,0.004,3.518-0.004c0.183-0.001,0.32,0.047,0.454,0.172
			c0.469,0.434,0.944,0.863,1.427,1.282c0.151,0.131,0.207,0.264,0.204,0.466c-0.024,1.279-0.009,2.559-0.059,3.837
			c-0.019,0.487,0.104,0.85,0.494,1.124c0.19,0.133,0.216,0.246,0.017,0.405c-0.4,0.321-0.534,0.731-0.519,1.258
			c0.036,1.278-0.001,2.558,0.006,3.837c0.001,0.227-0.072,0.37-0.248,0.506c-0.48,0.372-0.948,0.76-1.415,1.147
			c-0.114,0.094-0.224,0.13-0.376,0.119c-2.37-0.171-4.739-0.343-7.115-0.402c-0.21-0.005-0.29-0.068-0.262-0.278
			c0.015-0.115,0.021-0.236,0.004-0.351c-0.086-0.577,0.046-1.039,0.636-1.279c0.124-0.05,0.15-0.154,0.15-0.286
			c-0.002-3.113-0.001-6.226,0.009-9.339c0.001-0.202-0.106-0.298-0.245-0.366c-0.447-0.221-0.615-0.562-0.537-1.054
			c0.04-0.248-0.072-0.582,0.055-0.739c0.136-0.168,0.479-0.05,0.731-0.052C39.76,9.085,40.783,9.089,41.807,9.089z M41.997,9.597
			c-1.013,0-2.026,0-3.039,0c-0.528,0-0.553,0.036-0.497,0.558c0.024,0.226,0.217,0.288,0.354,0.376
			c0.301,0.194,0.43,0.415,0.428,0.798c-0.02,3.007-0.024,6.014-0.002,9.022c0.004,0.511-0.05,0.917-0.574,1.125
			c-0.047,0.019-0.088,0.062-0.12,0.104c-0.16,0.21-0.109,0.457-0.058,0.673c0.038,0.16,0.241,0.075,0.37,0.081
			c0.616,0.03,1.234,0.028,1.849,0.078c1.428,0.117,2.862,0.145,4.287,0.308c0.261,0.03,0.466-0.051,0.663-0.234
			c0.28-0.259,0.592-0.484,0.893-0.719c0.204-0.16,0.306-0.343,0.303-0.623c-0.016-1.237,0.008-2.474-0.011-3.711
			c-0.007-0.427,0.066-0.801,0.364-1.115c0.063-0.066,0.124-0.143,0.03-0.216c-0.461-0.358-0.394-0.863-0.383-1.35
			c0.026-1.107-0.065-2.216,0.059-3.321c0.036-0.326-0.056-0.574-0.319-0.777c-0.227-0.175-0.418-0.397-0.646-0.569
			c-0.292-0.22-0.507-0.528-0.975-0.503C43.982,9.633,42.988,9.597,41.997,9.597z"/>
		<path style="fill:#CDCECF;" d="M47.421,31.583c0,1.545-0.003,3.09,0.004,4.635c0.001,0.19-0.043,0.318-0.209,0.421
			c-0.199,0.123-0.38,0.273-0.57,0.411c-0.728,0.527-0.727,0.521-1.615,0.37c-1.625-0.275-3.258-0.488-4.9-0.631
			c-0.245-0.021-0.413-0.072-0.352-0.373c0.021-0.102,0.017-0.215,0.001-0.319c-0.059-0.393,0.066-0.678,0.45-0.83
			c0.146-0.058,0.188-0.171,0.188-0.33c0.007-2.76,0.016-5.521,0.038-8.281c0.002-0.233-0.15-0.302-0.275-0.423
			c-0.12-0.116-0.343-0.167-0.358-0.342c-0.03-0.36-0.013-0.724-0.002-1.086c0.003-0.109,0.109-0.073,0.178-0.069
			c1.806,0.111,3.61,0.246,5.414,0.391c0.464,0.037,0.771,0.209,1.059,0.528c0.321,0.355,0.787,0.64,0.959,1.051
			c0.167,0.4,0.045,0.922,0.046,1.39c0.002,1.162,0,2.323,0,3.485C47.459,31.583,47.44,31.583,47.421,31.583z M46.976,29.063
			c0-0.629-0.006-1.258,0.003-1.887c0.003-0.184-0.044-0.322-0.181-0.451c-0.302-0.285-0.594-0.582-0.882-0.882
			c-0.118-0.124-0.245-0.175-0.419-0.185c-0.572-0.033-1.142-0.09-1.714-0.135c-1.068-0.082-2.137-0.163-3.205-0.24
			c-0.086-0.006-0.215-0.045-0.244,0.084c-0.028,0.13-0.062,0.278,0.06,0.389c0.055,0.05,0.114,0.098,0.179,0.133
			c0.333,0.18,0.394,0.459,0.391,0.823c-0.017,2.612-0.013,5.225-0.009,7.837c0.001,0.49,0.082,0.992-0.535,1.213
			c-0.18,0.064-0.104,0.261-0.099,0.401c0.005,0.16,0.146,0.119,0.245,0.132c0.494,0.063,0.989,0.119,1.482,0.187
			c1.123,0.155,2.247,0.31,3.368,0.477c0.338,0.05,1.347-0.455,1.474-0.771c0.027-0.066,0.021-0.147,0.021-0.221
			C46.921,33.665,46.894,31.364,46.976,29.063z"/>
		<path style="fill:#C9CBCC;" d="M36.113,24.66c0.82,0,1.64,0.003,2.459-0.002c0.199-0.001,0.301,0.055,0.269,0.274
			c-0.015,0.104-0.015,0.214-0.001,0.319c0.058,0.428-0.037,0.771-0.482,0.943c-0.138,0.053-0.161,0.171-0.16,0.313
			c0.001,2.749,0,5.499-0.01,8.248c-0.001,0.198,0.099,0.301,0.235,0.379c0.335,0.192,0.461,0.464,0.403,0.844
			c-0.031,0.208,0.056,0.478-0.047,0.621c-0.126,0.175-0.393,0.007-0.597-0.001c-1.01-0.042-2.02-0.114-3.03-0.158
			c-0.217-0.01-0.28-0.088-0.256-0.286c0.01-0.084,0.013-0.172,0-0.255c-0.071-0.453,0.043-0.81,0.498-1
			c0.131-0.055,0.141-0.164,0.141-0.29c-0.001-2.739,0.001-5.477,0.006-8.216c0-0.143-0.032-0.254-0.164-0.314
			c-0.425-0.192-0.503-0.53-0.476-0.962c0.034-0.549,0.008-0.55,0.54-0.542c0.224,0.003,0.448,0.001,0.671,0.001
			C36.113,24.603,36.113,24.632,36.113,24.66z M36.249,25.085c-0.181,0-0.363-0.003-0.544,0.001c-0.09,0.002-0.214-0.037-0.24,0.093
			c-0.024,0.12-0.06,0.256,0.058,0.357c0.065,0.055,0.125,0.123,0.199,0.159c0.271,0.132,0.319,0.349,0.318,0.632
			c-0.009,2.645-0.011,5.29-0.002,7.934c0.002,0.485,0.064,0.961-0.525,1.184c-0.164,0.062-0.137,0.254-0.102,0.4
			c0.032,0.135,0.158,0.121,0.264,0.121c0.766,0.002,1.529,0.053,2.291,0.125c0.103,0.01,0.26,0.067,0.299-0.093
			c0.035-0.141,0.052-0.3-0.091-0.412c-0.042-0.033-0.086-0.062-0.131-0.091c-0.258-0.168-0.361-0.382-0.359-0.712
			c0.017-2.666,0.02-5.332,0.003-7.998c-0.003-0.485,0.015-0.905,0.528-1.123c0.028-0.012,0.057-0.034,0.073-0.059
			c0.076-0.117,0.06-0.248,0.027-0.37c-0.029-0.109-0.139-0.083-0.218-0.079C37.48,25.186,36.866,25.073,36.249,25.085z"/>
		<path style="fill:#FDFDFD;" d="M13.633,37.111c-0.606-0.264-1.177-0.591-1.727-0.956c-0.002-0.713,0.001-1.425-0.009-2.138
			c-0.002-0.179,0.036-0.295,0.217-0.37c0.736-0.303,1.466-0.619,2.199-0.929c0.151-0.064,0.231-0.044,0.222,0.153
			c-0.043,0.924,0.05,1.846,0.059,2.77c0.002,0.256-0.086,0.438-0.255,0.622C14.092,36.535,13.814,36.783,13.633,37.111z"/>
		<path style="fill:#CACCCD;" d="M13.633,37.111c0.18-0.328,0.459-0.577,0.707-0.847c0.169-0.184,0.257-0.367,0.255-0.622
			c-0.009-0.924-0.101-1.846-0.059-2.77c0.009-0.198-0.071-0.217-0.222-0.153c-0.733,0.31-1.463,0.626-2.199,0.929
			c-0.181,0.075-0.22,0.191-0.217,0.37c0.01,0.712,0.007,1.425,0.009,2.138c-0.39-0.13-0.551-0.374-0.519-0.807
			c0.041-0.572,0.013-1.149,0.001-1.723c-0.003-0.162,0.044-0.244,0.198-0.307c1.108-0.457,2.212-0.925,3.318-1.388
			c0.037-0.016,0.078-0.023,0.185-0.054c0,1.403-0.002,2.775,0.003,4.146c0,0.132-0.058,0.217-0.138,0.307
			c-0.207,0.229-0.41,0.462-0.611,0.695C14.044,37.369,14.045,37.37,13.633,37.111z"/>
		<path style="fill:#99192D;" d="M22.591,46.721c0.052,0.004,0.107,0.005,0.128,0.068C22.662,46.795,22.621,46.769,22.591,46.721z"
			/>
		<path style="fill:#FEFEFE;" d="M55.747,34.667c0-0.746-0.012-1.493,0.007-2.239c0.006-0.24-0.099-0.316-0.299-0.357
			c-1.236-0.255-2.47-0.517-3.707-0.767c-0.128-0.026-0.209-0.081-0.283-0.18c-0.539-0.725-1.078-1.45-1.626-2.168
			c-0.085-0.111-0.115-0.218-0.114-0.351c0.004-1.685,0.006-3.37,0.006-5.054c0-0.267,0.071-0.485,0.298-0.661
			c0.437-0.338,0.873-0.682,1.274-1.06c0.34-0.321,0.709-0.13,1.054-0.109c0.75,0.044,1.498,0.147,2.245,0.234
			c0.674,0.078,1.348,0.155,2.019,0.257c0.326,0.05,0.432,0.388,0.632,0.595c0.406,0.419,0.76,0.888,1.152,1.321
			c0.228,0.252,0.175,0.549,0.144,0.821c-0.056,0.49-0.045,0.978-0.041,1.467c0.002,0.233-0.08,0.303-0.301,0.27
			c-0.712-0.109-1.425-0.218-2.14-0.31c-0.18-0.023-0.201-0.109-0.2-0.253c0.005-0.565-0.002-1.13,0.009-1.695
			c0.004-0.191-0.077-0.27-0.253-0.293c-0.999-0.13-1.998-0.255-2.994-0.401c-0.198-0.029-0.212,0.039-0.211,0.193
			c0.004,0.469,0.006,0.938-0.001,1.408c-0.016,1.107-0.035,2.214-0.06,3.321c-0.005,0.214,0.044,0.312,0.287,0.353
			c1.254,0.214,2.503,0.458,3.755,0.683c0.13,0.023,0.206,0.076,0.275,0.182c0.535,0.82,1.073,1.638,1.616,2.453
			c0.07,0.106,0.089,0.212,0.088,0.331c-0.003,0.309,0.018,0.62-0.008,0.927c-0.044,0.523,0.114,0.967,0.464,1.346
			c0.178,0.193,0.185,0.339-0.033,0.52c-0.367,0.305-0.551,0.72-0.482,1.192c0.128,0.87-0.134,1.552-0.854,2.065
			c-0.163,0.116-0.316,0.265-0.427,0.429c-0.283,0.417-0.624,0.426-1.069,0.278c-1.301-0.432-2.623-0.801-3.964-1.082
			c-0.488-0.102-0.729-0.437-1.012-0.758c-0.386-0.439-0.757-0.891-1.149-1.325c-0.123-0.136-0.188-0.267-0.181-0.453
			c0.013-0.341,0.008-0.682,0.004-1.024c-0.002-0.141,0.04-0.207,0.196-0.221c0.73-0.065,1.462-0.106,2.195-0.125
			c0.181-0.005,0.245,0.061,0.241,0.241c-0.009,0.48,0.01,0.96-0.011,1.439c-0.01,0.23,0.077,0.318,0.287,0.368
			c0.971,0.231,1.941,0.467,2.907,0.719c0.206,0.054,0.264,0.021,0.262-0.191c-0.008-0.778-0.003-1.557-0.003-2.335
			C55.74,34.667,55.744,34.667,55.747,34.667z"/>
		<path style="fill:#FEFEFE;" d="M32.369,22.214c-1.216,0-2.431,0.002-3.647-0.003c-0.113,0-0.298,0.065-0.299-0.133
			c-0.001-0.184-0.132-0.455,0.13-0.537c0.609-0.19,0.642-0.624,0.638-1.166c-0.022-2.943-0.022-5.886,0.001-8.828
			c0.003-0.442-0.162-0.72-0.483-0.962c-0.276-0.208-0.386-0.549-0.296-0.864c0.02-0.071,0.053-0.115,0.127-0.119
			c0.074-0.004,0.149-0.005,0.224-0.005c2.388,0,4.777,0.005,7.165-0.007c0.301-0.002,0.379,0.089,0.369,0.378
			c-0.021,0.586-0.012,1.173-0.003,1.759c0.003,0.185-0.068,0.269-0.245,0.305c-0.468,0.095-0.934,0.198-1.399,0.304
			c-0.233,0.053-0.365,0.018-0.349-0.27c0.02-0.361,0-0.725,0.007-1.087c0.003-0.164-0.056-0.227-0.223-0.226
			c-0.874,0.005-1.749,0.006-2.623-0.001c-0.184-0.001-0.237,0.07-0.237,0.246c0.005,1.279,0.009,2.559-0.002,3.838
			c-0.002,0.252,0.118,0.268,0.313,0.267c1.109-0.005,2.218,0.006,3.327-0.007c0.268-0.003,0.363,0.076,0.337,0.342
			c-0.02,0.211-0.021,0.428,0,0.639c0.027,0.267-0.09,0.319-0.331,0.317c-1.109-0.011-2.218,0.002-3.327-0.012
			c-0.26-0.003-0.322,0.082-0.32,0.328c0.011,1.343,0.01,2.687,0,4.03c-0.002,0.229,0.05,0.32,0.3,0.316
			c0.831-0.014,1.663-0.012,2.495,0c0.223,0.003,0.303-0.066,0.291-0.29c-0.016-0.298,0.003-0.597-0.006-0.895
			c-0.006-0.173,0.072-0.25,0.232-0.283c0.477-0.1,0.953-0.208,1.43-0.311c0.214-0.046,0.335-0.009,0.33,0.262
			c-0.015,0.821-0.01,1.642-0.003,2.463c0.002,0.187-0.03,0.231-0.245,0.227c-1.226-0.021-2.452-0.01-3.678-0.01
			C32.369,22.216,32.369,22.215,32.369,22.214z"/>
		<path style="fill:#FDFDFD;" d="M28,29.623c-0.058,0.097-0.026,0.204-0.026,0.305c-0.002,1.568,0.01,3.135-0.011,4.702
			c-0.004,0.319,0.087,0.526,0.354,0.674c0.065,0.036,0.123,0.085,0.185,0.125c0.177,0.113,0.116,0.288,0.094,0.435
			c-0.022,0.146-0.168,0.099-0.266,0.1c-0.734,0.005-1.466,0.041-2.194,0.127c-0.169,0.02-0.23-0.05-0.226-0.216
			c0.003-0.124,0.01-0.253,0.126-0.308c0.491-0.235,0.468-0.662,0.466-1.111c-0.01-2.698-0.011-5.396,0-8.093
			c0.001-0.27-0.079-0.442-0.311-0.561c-0.085-0.043-0.163-0.1-0.241-0.156c-0.14-0.101-0.101-0.251-0.085-0.383
			c0.02-0.157,0.161-0.106,0.258-0.111c0.488-0.024,0.977-0.038,1.465-0.067c0.19-0.011,0.278,0.059,0.349,0.239
			c0.987,2.515,1.982,5.026,2.976,7.538c0.106,0.267,0.213,0.532,0.383,0.801c0-0.104,0-0.208,0-0.312
			c0-2.357-0.005-4.713,0.006-7.07c0.001-0.283-0.056-0.482-0.322-0.623c-0.146-0.077-0.335-0.156-0.325-0.39
			c0.006-0.152,0.052-0.244,0.221-0.244c0.778,0.001,1.557-0.003,2.335,0.003c0.188,0.001,0.276,0.236,0.169,0.426
			c-0.02,0.036-0.051,0.078-0.086,0.092c-0.56,0.215-0.53,0.676-0.527,1.161c0.013,2.634,0.011,5.268-0.002,7.901
			c-0.001,0.28,0.075,0.464,0.307,0.603c0.099,0.06,0.194,0.133,0.274,0.217c0.107,0.114,0.084,0.264,0.045,0.394
			c-0.036,0.119-0.166,0.09-0.25,0.072c-0.434-0.093-0.872-0.052-1.306-0.04c-0.266,0.007-0.411-0.094-0.528-0.311
			c-0.407-0.76-0.821-1.517-1.234-2.274c-0.637-1.168-1.276-2.335-1.915-3.502C28.124,29.707,28.099,29.629,28,29.623z"/>
		<path style="fill:#FEFEFE;" d="M20.543,9.596c1.045,0,2.09,0.005,3.135-0.004c0.194-0.002,0.356,0.042,0.498,0.165
			c0.37,0.32,0.736,0.645,1.109,0.961c0.141,0.12,0.195,0.257,0.194,0.445c-0.008,1.088-0.006,2.175,0,3.263
			c0.001,0.163-0.042,0.274-0.174,0.379c-0.5,0.396-0.984,0.811-1.486,1.205c-0.157,0.123-0.149,0.183,0.002,0.303
			c0.482,0.384,0.948,0.788,1.428,1.174c0.194,0.156,0.305,0.317,0.299,0.589c-0.02,0.831,0.013,1.664-0.016,2.495
			c-0.013,0.367,0.085,0.618,0.424,0.76c0.352,0.147,0.391,0.434,0.357,0.763c-0.012,0.112-0.042,0.178-0.165,0.187
			c-0.105,0.008-0.209,0.051-0.314,0.05c-0.681-0.004-1.362,0.019-2.041,0.075c-0.242,0.02-0.309-0.066-0.308-0.304
			c0.009-1.653,0.004-3.305,0.003-4.958c0-0.389-0.036-0.416-0.425-0.348c-0.104,0.018-0.211,0.038-0.316,0.034
			c-0.842-0.031-1.68,0.076-2.521,0.068c-0.188-0.002-0.264,0.051-0.263,0.253c0.008,1.311,0.009,2.623,0.001,3.934
			c-0.001,0.208,0.1,0.316,0.261,0.395c0.38,0.186,0.494,0.496,0.448,0.898c-0.016,0.138-0.042,0.209-0.199,0.22
			c-0.879,0.058-1.757,0.127-2.636,0.191c-0.042,0.003-0.085,0.003-0.128,0.006c-0.166,0.011-0.364,0.169-0.486-0.045
			c-0.127-0.222,0.004-0.649,0.247-0.768c0.381-0.186,0.467-0.464,0.458-0.871c-0.029-1.204-0.018-2.41-0.009-3.614
			c0.002-0.323-0.061-0.615-0.266-0.864c-0.118-0.144-0.147-0.26-0.011-0.416c0.219-0.251,0.272-0.552,0.278-0.889
			c0.022-1.353-0.086-2.704-0.062-4.057c0.003-0.141-0.038-0.238-0.151-0.326c-0.133-0.105-0.234-0.254-0.372-0.35
			c-0.329-0.229-0.251-0.561-0.238-0.871c0.008-0.178,0.172-0.124,0.278-0.125C18.432,9.595,19.488,9.596,20.543,9.596z
			 M23.296,13.305c-0.001,0-0.001,0-0.002,0c0-0.682-0.009-1.364,0.005-2.046c0.005-0.232-0.052-0.338-0.301-0.31
			c-0.274,0.03-0.55,0.051-0.825,0.055c-0.65,0.009-1.3,0.017-1.95,0c-0.263-0.007-0.324,0.084-0.317,0.329
			c0.029,0.978,0.043,1.957,0.058,2.935c0.006,0.352,0.017,0.704-0.004,1.055c-0.016,0.27,0.049,0.377,0.347,0.364
			c0.914-0.04,1.828-0.056,2.743-0.068c0.204-0.003,0.25-0.083,0.248-0.267C23.292,14.669,23.296,13.987,23.296,13.305z"/>
		<path style="fill:#FDFDFD;" d="M18.88,34.508c0,0.288,0.018,0.577-0.004,0.864c-0.029,0.376,0.013,0.686,0.428,0.841
			c0.244,0.091,0.155,0.328,0.137,0.506c-0.017,0.176-0.186,0.129-0.307,0.149c-0.69,0.117-1.379,0.24-2.069,0.357
			c-0.118,0.02-0.272,0.096-0.34-0.054c-0.063-0.139-0.041-0.305,0.104-0.401c0.491-0.325,0.538-0.796,0.518-1.336
			c-0.099-2.749-0.059-5.499-0.073-8.249c-0.001-0.231,0.049-0.406,0.226-0.562c0.216-0.189,0.43-0.388,0.608-0.612
			c0.226-0.284,0.519-0.381,0.856-0.407c1.016-0.076,2.033-0.149,3.048-0.232c0.102-0.008,0.158,0.036,0.224,0.089
			c0.299,0.239,0.595,0.482,0.9,0.713c0.161,0.122,0.162,0.282,0.162,0.457c-0.001,2.794,0.006,5.589-0.006,8.383
			c-0.001,0.307,0.083,0.498,0.36,0.625c0.126,0.058,0.278,0.114,0.288,0.305c0.011,0.215-0.005,0.339-0.292,0.358
			c-0.687,0.045-1.37,0.15-2.054,0.226c-0.132,0.015-0.312,0.092-0.381-0.048c-0.08-0.161-0.074-0.374,0.111-0.486
			c0.379-0.23,0.392-0.578,0.381-0.965c-0.019-0.703-0.01-1.408-0.004-2.112c0.002-0.201-0.024-0.268-0.268-0.231
			c-0.776,0.117-1.557,0.195-2.338,0.274c-0.168,0.017-0.218,0.08-0.216,0.238c0.006,0.437,0.002,0.875,0.002,1.312
			C18.879,34.508,18.879,34.508,18.88,34.508z M21.696,29.119c-0.001,0-0.002,0-0.002,0c0-0.81-0.012-1.62,0.007-2.429
			c0.007-0.285-0.103-0.362-0.352-0.315c-0.21,0.039-0.42,0.051-0.633,0.065c-0.529,0.034-1.057,0.085-1.584,0.14
			c-0.183,0.019-0.321,0.066-0.319,0.328c0.016,1.681,0.001,3.363,0.062,5.044c0.007,0.205,0.066,0.241,0.27,0.211
			c0.754-0.111,1.511-0.208,2.27-0.282c0.221-0.021,0.289-0.081,0.286-0.3C21.689,30.759,21.696,29.939,21.696,29.119z"/>
		<path style="fill:#FEFEFE;" d="M41.997,9.597c0.992,0,1.985,0.036,2.974-0.016c0.468-0.025,0.683,0.283,0.975,0.503
			c0.228,0.172,0.419,0.394,0.646,0.569c0.263,0.203,0.356,0.452,0.319,0.777c-0.123,1.105-0.033,2.214-0.059,3.321
			c-0.011,0.487-0.078,0.992,0.383,1.35c0.094,0.073,0.033,0.15-0.03,0.216c-0.298,0.314-0.371,0.688-0.364,1.115
			c0.019,1.237-0.004,2.474,0.011,3.711c0.004,0.28-0.098,0.463-0.303,0.623c-0.301,0.235-0.613,0.461-0.893,0.719
			c-0.197,0.182-0.402,0.263-0.663,0.234c-1.425-0.162-2.859-0.191-4.287-0.308c-0.614-0.05-1.233-0.047-1.849-0.078
			c-0.128-0.006-0.332,0.078-0.37-0.081c-0.051-0.216-0.102-0.463,0.058-0.673c0.032-0.042,0.073-0.085,0.12-0.104
			c0.524-0.208,0.578-0.614,0.574-1.125c-0.022-3.007-0.018-6.014,0.002-9.022c0.003-0.383-0.126-0.604-0.428-0.798
			c-0.138-0.089-0.33-0.15-0.354-0.376c-0.056-0.522-0.031-0.558,0.497-0.558C39.97,9.597,40.983,9.597,41.997,9.597z
			 M44.669,11.659c0.02,0,0.039,0,0.059,0c0-0.064,0-0.128,0-0.192c0-0.456,0-0.456-0.454-0.457
			c-0.863-0.002-1.727,0.011-2.589-0.011c-0.315-0.008-0.413,0.063-0.412,0.399c0.014,2.867,0.008,5.733,0.002,8.6
			c-0.001,0.286-0.033,0.572-0.051,0.857c-0.011,0.169,0.055,0.261,0.237,0.259c0.968-0.009,1.931,0.095,2.897,0.138
			c0.267,0.012,0.316-0.087,0.316-0.328C44.667,17.836,44.669,14.747,44.669,11.659z"/>
		<path style="fill:#FEFEFE;" d="M46.976,29.063c-0.082,2.301-0.055,4.602-0.063,6.903c0,0.074,0.006,0.155-0.021,0.221
			c-0.127,0.316-1.136,0.821-1.474,0.771c-1.122-0.166-2.245-0.322-3.368-0.477c-0.493-0.068-0.988-0.124-1.482-0.187
			c-0.098-0.012-0.239,0.028-0.245-0.132c-0.005-0.14-0.081-0.336,0.099-0.401c0.617-0.221,0.536-0.723,0.535-1.213
			c-0.005-2.612-0.008-5.225,0.009-7.837c0.002-0.363-0.058-0.643-0.391-0.823c-0.065-0.035-0.124-0.083-0.179-0.133
			c-0.122-0.112-0.088-0.259-0.06-0.389c0.028-0.129,0.157-0.09,0.244-0.084c1.069,0.077,2.137,0.158,3.205,0.24
			c0.571,0.044,1.142,0.102,1.714,0.135c0.174,0.01,0.3,0.062,0.419,0.185c0.288,0.3,0.58,0.597,0.882,0.882
			c0.137,0.129,0.183,0.268,0.181,0.451C46.971,27.805,46.976,28.434,46.976,29.063z M45.371,31.303c0.002,0,0.004,0,0.006,0
			c0-1.46-0.003-2.921,0.004-4.381c0.001-0.211-0.047-0.289-0.278-0.307c-0.803-0.063-1.604-0.152-2.404-0.242
			c-0.257-0.029-0.27,0.105-0.27,0.301c0.005,1.268-0.004,2.537,0.002,3.805c0.007,1.597-0.095,3.193-0.061,4.791
			c0.004,0.193,0.016,0.306,0.26,0.332c0.8,0.086,1.602,0.179,2.394,0.32c0.317,0.056,0.355-0.025,0.353-0.303
			C45.365,34.181,45.371,32.742,45.371,31.303z"/>
		<path style="fill:#FDFDFD;" d="M36.249,25.085c0.618-0.012,1.231,0.102,1.85,0.069c0.079-0.004,0.19-0.03,0.218,0.079
			c0.032,0.122,0.048,0.253-0.027,0.37c-0.016,0.025-0.045,0.047-0.073,0.059c-0.513,0.218-0.531,0.638-0.528,1.123
			c0.018,2.666,0.015,5.332-0.003,7.998c-0.002,0.33,0.1,0.544,0.359,0.712c0.045,0.029,0.089,0.059,0.131,0.091
			c0.142,0.112,0.125,0.271,0.091,0.412c-0.04,0.161-0.196,0.103-0.299,0.093c-0.762-0.072-1.525-0.124-2.291-0.125
			c-0.106,0-0.232,0.014-0.264-0.121c-0.035-0.146-0.062-0.338,0.102-0.4c0.589-0.223,0.527-0.699,0.525-1.184
			c-0.009-2.645-0.008-5.29,0.002-7.934c0.001-0.282-0.046-0.5-0.318-0.632c-0.075-0.036-0.135-0.104-0.199-0.159
			c-0.118-0.102-0.083-0.238-0.058-0.357c0.026-0.129,0.151-0.09,0.24-0.093C35.886,25.081,36.067,25.085,36.249,25.085z"/>
		<path style="fill:#C9CBCC;" d="M23.296,13.305c0,0.682-0.005,1.364,0.003,2.046c0.002,0.185-0.044,0.265-0.248,0.267
			c-0.915,0.012-1.829,0.028-2.743,0.068c-0.298,0.013-0.363-0.094-0.347-0.364c0.021-0.35,0.009-0.703,0.004-1.055
			c-0.016-0.978-0.03-1.957-0.058-2.935c-0.007-0.245,0.054-0.336,0.317-0.329c0.649,0.018,1.3,0.009,1.95,0
			c0.275-0.004,0.551-0.025,0.825-0.055c0.249-0.027,0.305,0.079,0.301,0.31c-0.014,0.682-0.005,1.364-0.005,2.046
			C23.295,13.305,23.296,13.305,23.296,13.305z M20.455,13.331c0.004,0,0.007,0,0.011,0c0,0.533,0.01,1.067-0.005,1.6
			c-0.006,0.204,0.059,0.252,0.252,0.243c0.628-0.03,1.257-0.049,1.886-0.06c0.155-0.003,0.197-0.051,0.196-0.202
			c-0.006-1.067-0.007-2.133-0.002-3.2c0.001-0.161-0.036-0.222-0.212-0.218c-0.64,0.016-1.28,0.02-1.92,0.015
			c-0.173-0.001-0.213,0.06-0.21,0.222C20.46,12.264,20.455,12.798,20.455,13.331z"/>
		<path style="fill:#CDCECF;" d="M21.696,29.119c0,0.82-0.007,1.641,0.004,2.461c0.003,0.219-0.065,0.279-0.286,0.3
			c-0.759,0.074-1.516,0.171-2.27,0.282c-0.204,0.03-0.263-0.005-0.27-0.211c-0.061-1.681-0.046-3.363-0.062-5.044
			c-0.002-0.262,0.135-0.309,0.319-0.328c0.527-0.055,1.055-0.106,1.584-0.14c0.212-0.014,0.423-0.026,0.633-0.065
			c0.249-0.046,0.359,0.03,0.352,0.315c-0.019,0.809-0.007,1.619-0.007,2.429C21.694,29.119,21.695,29.119,21.696,29.119z
			 M21.191,29.174c-0.001,0-0.002,0-0.004,0c0-0.639-0.012-1.279,0.006-1.917C21.2,27,21.154,26.894,20.87,26.933
			c-0.453,0.062-0.91,0.099-1.366,0.128c-0.186,0.012-0.165,0.12-0.164,0.237c0.011,1.353,0.024,2.706,0.032,4.058
			c0.001,0.15,0.015,0.237,0.206,0.212c0.474-0.061,0.951-0.106,1.427-0.149c0.178-0.016,0.188-0.123,0.187-0.264
			C21.188,30.495,21.191,29.834,21.191,29.174z"/>
		<path style="fill:#C9CBCC;" d="M44.669,11.659c0,3.089-0.002,6.177,0.004,9.266c0.001,0.241-0.049,0.34-0.316,0.328
			c-0.966-0.043-1.929-0.148-2.897-0.138c-0.182,0.002-0.248-0.09-0.237-0.259c0.018-0.286,0.051-0.572,0.051-0.857
			c0.005-2.867,0.011-5.733-0.002-8.6c-0.002-0.336,0.097-0.407,0.412-0.399c0.863,0.023,1.726,0.01,2.589,0.011
			c0.454,0.001,0.454,0.001,0.454,0.457c0,0.064,0,0.128,0,0.192C44.708,11.659,44.689,11.659,44.669,11.659z M44.162,16.139
			c0.007,0,0.013,0,0.02,0c0-1.439-0.007-2.879,0.007-4.318c0.002-0.257-0.072-0.317-0.317-0.311
			c-0.597,0.015-1.194,0.011-1.791-0.01c-0.237-0.008-0.3,0.052-0.3,0.295c0.004,2.857-0.002,5.715-0.015,8.572
			c-0.001,0.201,0.057,0.245,0.248,0.25c0.618,0.018,1.236,0.042,1.851,0.1c0.238,0.022,0.305-0.005,0.303-0.26
			C44.155,19.018,44.162,17.579,44.162,16.139z"/>
		<path style="fill:#CBCDCE;" d="M45.371,31.303c0,1.439-0.006,2.878,0.005,4.317c0.002,0.277-0.035,0.359-0.353,0.303
			c-0.792-0.141-1.593-0.234-2.394-0.32c-0.243-0.026-0.256-0.139-0.26-0.332c-0.034-1.598,0.069-3.194,0.061-4.791
			c-0.006-1.268,0.002-2.537-0.002-3.805c-0.001-0.197,0.013-0.33,0.27-0.301c0.8,0.091,1.601,0.18,2.404,0.242
			c0.231,0.018,0.279,0.096,0.278,0.307c-0.007,1.46-0.004,2.921-0.004,4.381C45.375,31.303,45.373,31.303,45.371,31.303z
			 M44.852,31.261c0.007,0,0.015,0,0.022,0c0-1.301-0.002-2.601,0.003-3.902c0.001-0.172-0.016-0.279-0.228-0.292
			c-0.478-0.03-0.955-0.075-1.431-0.129c-0.218-0.025-0.291,0.03-0.288,0.264c0.012,0.938,0.004,1.876,0,2.814
			c-0.007,1.62-0.014,3.241-0.028,4.861c-0.001,0.175,0.019,0.259,0.231,0.277c0.487,0.04,0.974,0.103,1.454,0.195
			c0.255,0.049,0.27-0.046,0.269-0.25C44.848,33.82,44.852,32.54,44.852,31.261z"/>
		<path d="M20.455,13.331c0-0.533,0.006-1.067-0.003-1.6c-0.003-0.162,0.037-0.223,0.21-0.222c0.64,0.005,1.28,0.001,1.92-0.015
			c0.176-0.004,0.213,0.056,0.212,0.218c-0.005,1.067-0.004,2.133,0.002,3.2c0.001,0.151-0.041,0.199-0.196,0.202
			c-0.629,0.011-1.258,0.03-1.886,0.06c-0.194,0.009-0.258-0.039-0.252-0.243c0.015-0.533,0.005-1.066,0.005-1.6
			C20.462,13.331,20.458,13.331,20.455,13.331z"/>
		<path style="fill:#010101;" d="M21.191,29.174c0,0.661-0.003,1.321,0.002,1.981c0.001,0.142-0.009,0.248-0.187,0.264
			c-0.476,0.043-0.953,0.088-1.427,0.149c-0.191,0.025-0.205-0.062-0.206-0.212c-0.008-1.353-0.02-2.706-0.032-4.058
			c-0.001-0.118-0.022-0.226,0.164-0.237c0.456-0.028,0.913-0.066,1.366-0.128c0.283-0.039,0.33,0.067,0.322,0.323
			c-0.018,0.639-0.006,1.278-0.006,1.917C21.188,29.174,21.189,29.174,21.191,29.174z"/>
		<path d="M44.162,16.139c0,1.439-0.007,2.879,0.006,4.318c0.002,0.255-0.065,0.282-0.303,0.26c-0.615-0.058-1.233-0.082-1.851-0.1
			c-0.192-0.005-0.249-0.049-0.248-0.25c0.012-2.857,0.019-5.715,0.015-8.572c0-0.243,0.063-0.303,0.3-0.295
			c0.596,0.021,1.194,0.024,1.791,0.01c0.245-0.006,0.319,0.054,0.317,0.311c-0.014,1.439-0.007,2.879-0.007,4.318
			C44.175,16.139,44.169,16.139,44.162,16.139z"/>
		<path style="fill:#010101;" d="M44.852,31.261c0,1.279-0.003,2.558,0.003,3.838c0.001,0.204-0.014,0.299-0.269,0.25
			c-0.48-0.092-0.967-0.154-1.454-0.195c-0.212-0.018-0.232-0.101-0.231-0.277c0.014-1.62,0.021-3.24,0.028-4.861
			c0.004-0.938,0.012-1.876,0-2.814c-0.003-0.235,0.07-0.289,0.288-0.264c0.476,0.054,0.953,0.1,1.431,0.129
			c0.212,0.013,0.229,0.12,0.228,0.292c-0.005,1.301-0.003,2.601-0.003,3.902C44.866,31.261,44.859,31.261,44.852,31.261z"/>
	</g>
</g>
</svg>
