<?xml version="1.0" encoding="utf-8"?>
<!-- Generator: Adobe Illustrator 16.0.0, SVG Export Plug-In . SVG Version: 6.00 Build 0)  -->
<!DOCTYPE svg PUBLIC "-//W3C//DTD SVG 1.1//EN" "http://www.w3.org/Graphics/SVG/1.1/DTD/svg11.dtd">
<svg version="1.1" id="Layer_1" xmlns="http://www.w3.org/2000/svg" xmlns:xlink="http://www.w3.org/1999/xlink" x="0px" y="0px"
	 width="64px" height="64px" viewBox="0 0 64 64" enable-background="new 0 0 64 64" xml:space="preserve">
<g>
	<g>
		<g>
			<g>
				<path fill-rule="evenodd" clip-rule="evenodd" fill="#DC2431" d="M31.89,64.01c-2.041-0.552-4.042-1.322-6.172-2.406
					c-0.941-0.479-1.856-0.956-2.706-1.511c-1.022-0.669-1.734-1.695-2.321-2.604c-0.235-0.365-0.457-0.738-0.682-1.116
					l-0.314-0.525l-5.892,2.841c-0.102,0.052-0.162,0.083-0.226,0.091c-0.181,0.023-0.361,0.035-0.54,0.035
					c-0.392,0-0.773-0.06-1.133-0.177c-1.166-0.381-2.162-1.109-3.229-2.362c-0.843-0.99-1.583-2.14-2.328-3.618
					c-1.213-2.406-2.239-5.124-3.137-8.309c-0.387-1.371-0.795-3.005-0.888-4.722l-0.004-0.163l-0.043-0.168l0-0.773l0.057-0.17
					h-0.01v-0.109l0.015-0.152c0.014-0.141,0.027-0.28,0.047-0.419c0.229-1.641,1.034-2.703,2.459-3.247
					c1.212-0.462,2.422-0.991,3.592-1.502l1.233-0.536c0.08-0.036,0.171-0.16,0.168-0.229c-0.019-0.397-0.048-0.794-0.077-1.191
					c-0.05-0.695-0.103-1.415-0.098-2.122c0.012-1.905,0.065-3.81,0.119-5.714l0.037-1.317c0.012-0.455,0.055-0.909,0.098-1.363
					l0.021-0.223c0.053-0.584,0.113-1.167,0.174-1.751l0.092-0.883c0.055-0.536,0.11-1.073,0.176-1.608
					c0.095-0.766,0.201-1.531,0.32-2.294l0.033-0.228c0.042-0.312,0.087-0.633,0.22-0.906c0.723-1.475,1.7-2.884,2.906-4.186
					c1.308-1.413,2.841-2.677,4.557-3.755c2.524-1.586,5.369-2.805,8.455-3.623c0.912-0.242,1.856-0.428,2.769-0.607
					c0.385-0.076,0.771-0.152,1.155-0.232c0.212-0.044,0.425-0.079,0.638-0.114l0.293-0.049h0.552l0.098,0.047
					c0.317,0.055,0.637,0.106,0.955,0.157c0.656,0.105,1.313,0.211,1.963,0.347c3.31,0.692,6.404,1.841,9.199,3.413
					c3.29,1.852,5.776,4.113,7.602,6.914l0.103,0.158c0.497,0.76,1.011,1.545,1.116,2.514c0.072,0.662,0.162,1.323,0.252,1.983
					c0.082,0.601,0.163,1.202,0.231,1.804c0.136,1.194,0.247,2.376,0.33,3.513c0.106,1.436,0.177,2.708,0.216,3.889
					c0.035,1.044,0.039,2.155,0.012,3.3c-0.027,1.218-0.089,2.437-0.149,3.653l-0.021,0.431c-0.009,0.173,0.054,0.23,0.187,0.287
					l1.941,0.821c0.96,0.408,1.921,0.815,2.884,1.218c0.606,0.253,1.227,0.568,1.652,1.162c0.504,0.702,0.776,1.527,0.835,2.522
					l0.046,0.172v1.324l-0.048,0.172c-0.043,0.288-0.081,0.579-0.119,0.87c-0.081,0.617-0.165,1.255-0.299,1.871
					c-0.434,2.004-1.092,4.137-2.013,6.521c-0.999,2.582-2.193,5.276-4.15,7.487c-1.102,1.242-2.194,1.942-3.438,2.205
					c-0.293,0.062-0.518,0.09-0.727,0.09c-0.265,0-0.494-0.047-0.701-0.142c-0.723-0.329-1.437-0.68-2.149-1.029l-3.778-1.829
					l-0.044,0.086l-0.426,0.703c-0.268,0.447-0.535,0.895-0.827,1.325c-0.528,0.782-1.197,1.66-2.15,2.245
					c-2.079,1.275-4.313,2.334-6.637,3.147c-0.471,0.164-0.948,0.31-1.426,0.455l-0.681,0.209H31.89z M20.8,52.751l-0.009,0.004
					l0.049,0.078l0.088,0.185c0.625,1.413,1.241,2.539,1.938,3.542c0.455,0.652,0.92,1.32,1.614,1.729
					c2.572,1.516,4.952,2.572,7.275,3.231c0.074,0.021,0.158,0.032,0.244,0.032c0.087,0,0.173-0.012,0.25-0.033
					c2.531-0.705,4.869-1.887,6.623-2.838c0.765-0.414,1.371-0.921,1.853-1.548c0.777-1.016,1.46-2.184,2.215-3.787l0.272-0.594
					l0.135,0.053c0,0,5.577,2.69,7.474,3.601c0.081,0.039,0.182,0.062,0.277,0.062c0.943-0.17,1.544-0.728,2.086-1.284
					c0.738-0.758,1.381-1.674,2.084-2.969c1.15-2.116,2.1-4.501,3.078-7.733c0.416-1.372,0.86-3.011,1.007-4.756
					c0.057-0.668,0.085-1.455-0.128-2.222c-0.119-0.427-0.353-0.692-0.736-0.835c-0.377-0.141-0.746-0.302-1.116-0.463l-5.686-2.422
					l0.074-0.899c0.059-0.644,0.117-1.273,0.15-1.905c0.065-1.235,0.127-2.565,0.138-3.924c0.008-0.973-0.028-1.946-0.063-2.919
					l-0.023-0.652c-0.023-0.649-0.067-1.297-0.118-1.944c-0.054-0.677-0.119-1.352-0.184-2.027l-0.075-0.791
					c-0.057-0.605-0.112-1.209-0.183-1.813c-0.093-0.803-0.196-1.606-0.322-2.406l-0.034-0.224
					c-0.053-0.367-0.107-0.746-0.272-1.058c-1.111-2.106-2.695-3.921-4.844-5.55c-2.131-1.616-4.607-2.886-7.569-3.885
					c-1.708-0.576-3.494-1.017-5.459-1.349c-0.338-0.058-0.61-0.104-0.877-0.104l-0.122,0.003c-0.302,0.018-0.601,0.074-0.9,0.129
					l-0.389,0.069c-1.868,0.303-3.775,0.806-5.667,1.496c-3.309,1.206-5.982,2.752-8.172,4.728
					c-1.344,1.211-2.476,2.598-3.363,4.122l-0.088,0.144c-0.097,0.154-0.197,0.313-0.23,0.481c-0.11,0.568-0.186,1.144-0.261,1.718
					l-0.025,0.194c-0.086,0.649-0.161,1.299-0.234,1.95l-0.055,0.484c-0.074,0.645-0.147,1.29-0.204,1.936
					c-0.073,0.837-0.126,1.675-0.173,2.514l-0.048,0.789c-0.051,0.801-0.104,1.63-0.103,2.445c0.002,1.803,0.051,3.636,0.099,5.408
					l0.008,0.305c0.009,0.34,0.052,0.679,0.094,1.018l0.053,0.451l0.111,1.046l-1.223,0.528c-1.904,0.812-3.8,1.619-5.698,2.418
					c-0.307,0.13-0.485,0.311-0.546,0.553l-0.031,0.124c-0.108,0.429-0.219,0.872-0.239,1.311c-0.056,1.208,0.18,2.396,0.392,3.297
					c0.778,3.319,1.866,6.433,3.233,9.253c0.696,1.433,1.599,3.07,3.021,4.354c0.44,0.397,0.878,0.665,1.339,0.82
					c0.103,0.035,0.197,0.052,0.289,0.052c0.124,0,0.244-0.03,0.376-0.095c2.004-0.978,4.011-1.947,6.018-2.918l1.201-0.58
					l0.309-0.138L20.8,52.751z"/>
			</g>
			<g>
				<path fill-rule="evenodd" clip-rule="evenodd" fill="#E97980" d="M61.67,38.127c0.018-0.006,0.033-0.003,0.046,0.009
					c0,0.055,0,0.11,0,0.165C61.701,38.243,61.686,38.185,61.67,38.127z"/>
			</g>
			<g>
				<path fill-rule="evenodd" clip-rule="evenodd" fill="#EA7C83" d="M2.331,38.352c-0.016,0.057-0.031,0.113-0.047,0.17
					c0-0.056,0-0.11,0-0.165C2.3,38.354,2.315,38.353,2.331,38.352z"/>
			</g>
			<g>
				<path fill-rule="evenodd" clip-rule="evenodd" fill="#E9767E" d="M2.284,39.291c0.015,0.058,0.029,0.115,0.044,0.172
					c-0.015,0.001-0.029-0.002-0.044-0.006C2.284,39.401,2.284,39.347,2.284,39.291z"/>
			</g>
			<g>
				<path fill-rule="evenodd" clip-rule="evenodd" fill="#F3B8BC" d="M2.284,39.457c0.015,0.004,0.029,0.007,0.044,0.006
					c0.002,0.055,0.003,0.108,0.004,0.162c-0.016-0.001-0.032-0.002-0.048-0.003C2.284,39.566,2.284,39.512,2.284,39.457z"/>
			</g>
			<g>
				<path fill-rule="evenodd" clip-rule="evenodd" fill="#EF9EA4" d="M61.716,39.787c-0.016,0.001-0.032,0.003-0.048,0.004
					c0.016-0.057,0.032-0.113,0.048-0.169C61.716,39.677,61.716,39.731,61.716,39.787z"/>
			</g>
			<g>
				<path fill-rule="evenodd" clip-rule="evenodd" fill="#F3B8BC" d="M2.331,38.352c-0.016,0.001-0.031,0.002-0.047,0.005
					c0-0.037,0-0.074,0-0.11c0.016-0.004,0.03-0.005,0.047-0.004C2.331,38.278,2.331,38.314,2.331,38.352z"/>
			</g>
			<g>
				<path fill-rule="evenodd" clip-rule="evenodd" d="M32,61.571c-0.087,0.001-0.173-0.011-0.25-0.032
					c-2.325-0.66-4.706-1.718-7.279-3.233c-0.698-0.411-1.165-1.081-1.616-1.729c-0.702-1.011-1.319-2.137-1.945-3.552l-0.087-0.184
					l-0.126-0.034l-0.2,0.09l-1.201,0.581c-2.007,0.97-4.014,1.94-6.018,2.917c-0.136,0.066-0.258,0.098-0.385,0.098
					c-0.094,0-0.19-0.018-0.295-0.053c-0.463-0.156-0.904-0.426-1.346-0.824c-1.425-1.286-2.329-2.926-3.025-4.361
					c-1.368-2.821-2.457-5.936-3.235-9.257c-0.212-0.901-0.448-2.091-0.392-3.301c0.02-0.441,0.131-0.886,0.239-1.315l0.031-0.123
					c0.063-0.25,0.245-0.435,0.558-0.566c1.899-0.801,3.795-1.608,5.701-2.42l1.214-0.517L12.17,32.27
					c-0.042-0.34-0.085-0.679-0.094-1.02l-0.008-0.304c-0.047-1.773-0.097-3.606-0.098-5.41c-0.002-0.816,0.051-1.645,0.103-2.447
					l0.049-0.788c0.047-0.839,0.1-1.678,0.173-2.515c0.056-0.646,0.13-1.291,0.204-1.936l0.055-0.483
					c0.073-0.651,0.148-1.302,0.234-1.951l0.025-0.194c0.075-0.575,0.15-1.151,0.261-1.719c0.033-0.171,0.134-0.333,0.232-0.488
					l0.088-0.143c0.889-1.526,2.022-2.914,3.367-4.126c2.193-1.978,4.868-3.526,8.179-4.732c1.893-0.69,3.801-1.193,5.671-1.497
					l0.388-0.069c0.3-0.056,0.6-0.112,0.903-0.129l0.123-0.004c0.269,0,0.542,0.047,0.806,0.092
					c2.041,0.345,3.827,0.786,5.536,1.362c2.965,0.999,5.442,2.271,7.575,3.888c2.15,1.63,3.737,3.447,4.85,5.556
					c0.166,0.315,0.222,0.696,0.275,1.064L51.1,14.5c0.126,0.799,0.229,1.603,0.322,2.407c0.07,0.603,0.127,1.208,0.184,1.813
					l0.074,0.791c0.065,0.675,0.13,1.351,0.184,2.027c0.051,0.648,0.095,1.296,0.118,1.945l0.023,0.653
					c0.036,0.973,0.071,1.946,0.063,2.919c-0.01,1.359-0.072,2.69-0.138,3.925c-0.032,0.632-0.091,1.262-0.15,1.906l-0.08,0.89
					l5.68,2.411c0.369,0.161,0.738,0.322,1.116,0.462c0.384,0.144,0.629,0.421,0.748,0.849c0.214,0.771,0.185,1.56,0.128,2.229
					c-0.146,1.747-0.591,3.387-1.007,4.76c-0.979,3.233-1.929,5.62-3.08,7.737c-0.704,1.297-1.348,2.214-2.088,2.973
					c-0.544,0.56-1.146,1.119-1.999,1.281l-0.101,0.009c-0.099,0-0.203-0.023-0.285-0.063c-1.897-0.909-3.792-1.824-5.687-2.739
					l-1.909-0.919l-0.102,0.245l-0.158,0.344c-0.755,1.606-1.438,2.775-2.217,3.791c-0.483,0.63-1.091,1.138-1.858,1.554
					c-1.755,0.951-4.094,2.134-6.627,2.84C32.177,61.561,32.088,61.571,32,61.571z M31.948,39.142
					c-0.183,0.056-0.488,0.481-0.488,0.68l-0.001,12.585c0,1.442,0,2.886,0.006,4.33c0,0.127,0.049,0.271,0.121,0.356
					c0.079,0.095,0.179,0.169,0.284,0.248l0.135,0.104l0.103-0.092c0.071-0.059,0.141-0.115,0.214-0.167
					c0.157-0.111,0.225-0.246,0.225-0.452c-0.005-4.228-0.006-16.916-0.006-16.916c0-0.194-0.313-0.625-0.491-0.677L32,39.135
					v-0.011L31.948,39.142z M31.998,34.678c-0.553,0-1.1,0.176-1.672,0.539c-1.158,0.733-2.033,1.717-2.6,2.923
					c-0.435,0.928-0.823,1.897-1.197,2.835l-0.284,0.709c-0.929,2.296-1.847,4.597-2.766,6.896l-0.084,0.211
					c-0.041,0.1-0.084,0.229-0.065,0.333c0.309,1.675,0.912,3.177,1.792,4.464c0.71,1.039,1.356,1.746,2.096,2.295
					c0,0-0.325-0.647-0.441-0.876c-0.255-0.5-0.51-0.999-0.728-1.515c-0.393-0.926-0.652-1.991-0.814-3.353
					c-0.051-0.433-0.094-0.93,0.036-1.351c0.465-1.505,1.027-3.273,1.671-4.979c0.727-1.927,1.676-4.15,3.205-6.029
					c0.374-0.461,0.844-0.971,1.496-1.269c0.122-0.056,0.238-0.083,0.354-0.083s0.233,0.027,0.358,0.083
					c0.607,0.271,1.063,0.749,1.465,1.224c0.886,1.047,1.523,2.246,1.979,3.173c0.991,2.016,1.841,4.251,2.756,7.249l0.079,0.246
					c0.123,0.37,0.25,0.753,0.193,1.164l-0.158,1.163c-0.224,1.549-0.706,3.013-1.435,4.352l-0.438,0.782l0.186-0.147
					c0.146-0.116,0.292-0.233,0.425-0.363c1.589-1.561,2.649-3.478,3.152-5.697l0.037-0.148c0.059-0.228,0.12-0.462,0.017-0.721
					c-0.718-1.771-1.429-3.546-2.141-5.319c-0.601-1.497-1.201-2.995-1.805-4.491c-0.684-1.691-1.663-2.922-2.994-3.761
					C33.1,34.854,32.552,34.678,31.998,34.678z M29.7,41.235l-0.261,0.531c-0.393,0.835-0.785,1.67-1.173,2.507
					c-0.033,0.071-0.05,0.168-0.05,0.287c-0.003,2.823-0.002,5.646,0,8.469c0,0.095,0.006,0.191,0.046,0.258
					c0.392,0.649,0.79,1.297,1.208,1.978l0.27,0.439l-0.018-14.498L29.7,41.235z M34.284,41.227l-0.002,14.473l0.195-0.347
					c0.189-0.302,0.366-0.583,0.53-0.872c0.071-0.125,0.114-0.287,0.114-0.432c0.006-3.622,0.005-7.243,0.004-10.865
					c0.003-0.119,0.005-0.187-0.019-0.239c-0.214-0.468-0.433-0.933-0.651-1.397l-0.155-0.332L34.284,41.227z M13.186,37.14
					c-0.045,0-0.094,0.011-0.154,0.035l-1.315,0.521c-0.757,0.299-1.513,0.597-2.266,0.904c-0.144,0.059-0.29,0.21-0.324,0.338
					l-0.058,0.208c-0.107,0.382-0.219,0.777-0.207,1.161c0.031,0.974,0.119,1.755,0.274,2.458c0.542,2.451,1.487,4.848,2.809,7.121
					c0.389,0.67,0.877,1.438,1.553,2.062c0.092,0.086,0.191,0.169,0.294,0.243c0.228,0.163,0.442,0.246,0.639,0.246
					c0.334,0,0.587-0.248,0.713-0.697c0.256-0.916,0.114-1.85-0.059-2.643c-0.299-1.512-0.756-3.013-1.388-4.669
					c-0.14-0.369-0.286-0.735-0.433-1.106l-0.182-0.458l2.001-0.783l1.161-0.448c-0.227-1.204-0.688-2.206-1.417-3.051
					c-0.415-0.579-0.961-1.016-1.441-1.366C13.313,37.163,13.251,37.14,13.186,37.14z M50.85,37.157
					c-0.089,0-0.18,0.027-0.228,0.069l-0.287,0.249c-0.382,0.329-0.776,0.67-1.114,1.05c-0.769,0.86-1.257,1.91-1.453,3.119
					l3.142,1.204l-0.034,0.119l0.009,0.004c-0.895,2.196-1.794,4.547-2.113,7.009c-0.079,0.612-0.119,1.265,0.132,1.889
					c0.147,0.364,0.363,0.564,0.607,0.564c0.04,0,0.081-0.005,0.122-0.016c0.292-0.072,0.59-0.23,0.818-0.433
					c0.82-0.726,1.383-1.685,1.847-2.526c1.406-2.558,2.3-5.033,2.733-7.568c0.127-0.741,0.228-1.615,0.012-2.471l-0.035-0.155
					c-0.055-0.261-0.111-0.531-0.413-0.651c-1.214-0.484-2.429-0.969-3.647-1.44L50.85,37.157z M27.187,46.832
					c-0.268,0.642-0.506,1.289-0.742,1.938c-0.016,0.043-0.032,0.104-0.017,0.143c0.197,0.493,0.744,1.834,0.744,1.834
					L27.187,46.832z M16.205,35.938c-0.227,0.078-0.45,0.166-0.668,0.253l-0.24,0.095c2.446,2.064,3.932,4.884,4.819,9.124
					l0.028-0.295c0.031-0.188,0.06-0.354,0.067-0.522c0.066-1.582-0.067-2.776-0.431-3.872c-0.64-1.923-1.769-3.519-3.354-4.742
					c-0.037-0.029-0.102-0.049-0.161-0.049v-0.01L16.205,35.938z M47.75,35.933c-0.067,0-0.142,0.022-0.187,0.057
					c-1.395,1.071-2.447,2.465-3.13,4.142c-0.523,1.286-0.727,2.709-0.642,4.479c0.008,0.164,0.037,0.327,0.069,0.508l0.047,0.275
					c0.86-4.213,2.342-7.025,4.781-9.119l-0.279-0.108c-0.197-0.079-0.396-0.159-0.597-0.225L47.75,35.933z M33.014,20.605
					c-1.61,0-3.248,0.076-4.831,0.148l-0.202,0.009c-0.779,0.036-1.585,0.113-2.394,0.229c-0.979,0.141-1.998,0.317-3.116,0.539
					c-1.881,0.373-3.582,0.876-5.198,1.538c-0.122,0.05-0.236,0.117-0.351,0.183l-0.16,0.091l0.25,0.209
					c0.242,0.219,0.483,0.438,0.715,0.666c0.063,0.063,0.102,0.205,0.083,0.303c-0.118,0.641-0.252,1.279-0.386,1.917l-1.022,4.836
					c-0.068,0.321-0.271,1.337-0.271,1.337c0.846,0.078,1.617,0.318,2.35,0.722c0.949,0.521,1.719,1.268,2.354,2.282
					c0.102,0.011,0.211,0.03,0.32,0.049c0.238,0.042,0.477,0.085,0.715,0.089c0,0,0.321,0.003,0.322,0.003
					c0.487,0,0.974-0.021,1.461-0.052c0.91-0.06,1.819-0.139,2.726-0.229c0.11-0.012,0.232-0.124,0.304-0.217
					c0.1-0.129,0.192-0.265,0.285-0.4c0.129-0.189,0.258-0.379,0.408-0.55c0.9-1.019,2.092-1.742,3.752-2.278
					c0.346-0.112,0.628-0.203,0.915-0.203c0.166,0,0.318,0.029,0.468,0.09c0.121,0.05,0.248,0.087,0.375,0.125
					c0.092,0.027,0.184,0.055,0.273,0.086c2.02,0.719,3.351,1.729,4.188,3.183c0.044,0.076,0.158,0.15,0.249,0.163
					c0.396,0.054,0.797,0.088,1.196,0.12l0.372,0.03c0.44,0.037,0.881,0.075,1.322,0.085c0.249,0.005,0.497,0.007,0.746,0.007
					c0.546,0,1.091-0.01,1.637-0.021c0.137-0.003,0.278-0.033,0.292-0.233c0.056-0.81,0.404-1.543,1.096-2.307
					c0.582-0.641,1.286-1.172,2.094-1.577c0.14-0.071,0.169-0.138,0.137-0.31c-0.122-0.636-0.231-1.274-0.342-1.912l-1.003-5.775
					l0.797-0.11l1.349-0.168l-0.191-0.072c-1.243-0.555-2.626-1.009-4.351-1.428c-2.162-0.525-4.168-0.849-6.135-0.99l-0.799-0.061
					c-0.912-0.072-1.856-0.146-2.785-0.146H33.014z M32.148,8.718c-0.885,0-1.784,0.06-2.654,0.117l-0.563,0.036
					C28.067,8.926,27.203,9,26.343,9.097c-0.63,0.071-1.26,0.157-1.889,0.244l-1.003,0.135c-0.424,0.056-0.731,0.188-0.995,0.427
					c-0.628,0.571-1.269,1.129-1.909,1.687l-0.852,0.744l-0.921,0.815c-0.72,0.64-1.44,1.28-2.182,1.895
					c-0.373,0.308-0.596,0.701-0.704,1.235l-0.035,0.173c-0.184,0.91-0.368,1.82-0.515,2.736c-0.098,0.608-0.169,1.22-0.241,1.833
					l-0.099,0.819c0.354-0.098,0.61-0.226,0.867-0.354c0.553-0.276,1.125-0.562,1.706-0.797c1.578-0.637,3.241-0.996,4.659-1.262
					c1.014-0.191,2.11-0.361,3.553-0.551c0.779-0.103,1.578-0.162,2.349-0.219l0.951-0.073c0.861-0.069,1.751-0.14,2.627-0.145
					l0.131,0c0.825,0,1.665,0.051,2.476,0.101l0.902,0.053c0.51,0.027,1.021,0.066,1.528,0.121c0.724,0.077,1.447,0.165,2.168,0.265
					c0.782,0.108,1.563,0.232,2.344,0.356c0.244,0.039,0.486,0.085,0.734,0.133l0.359,0.068c0.004-1.097-0.136-2.195-0.438-3.348
					c-0.709-2.706-2.21-4.967-4.46-6.719l-0.138-0.112c-0.223-0.184-0.452-0.375-0.778-0.38c-0.183-0.002-0.365-0.018-0.548-0.033
					c0,0-0.979-0.071-1.319-0.097c-0.777-0.06-1.581-0.121-2.372-0.127L32.148,8.718z M31.886,4.813
					c-0.778,0.041-1.548,0.174-2.131,0.287c-1.544,0.297-3.112,0.79-4.66,1.467c-0.635,0.277-1.256,0.587-1.877,0.897l-0.828,0.41
					l0.783-0.142c0.601-0.095,1.202-0.189,1.804-0.271c0.536-0.074,1.074-0.125,1.612-0.177l0.288-0.027
					c0.345-0.033,0.69-0.06,1.035-0.087l1.233-0.102c0.606-0.054,1.213-0.107,1.821-0.136c0.327-0.016,0.655-0.022,0.983-0.022
					c0.365,0,0.731,0.008,1.096,0.021c0.404,0.015,0.808,0.051,1.212,0.087c0.224,0.02,0.447,0.041,0.671,0.057
					c0.384,0.028,1.69,0.115,1.69,0.115l0.497,0.049c0.412,0.041,0.825,0.082,1.237,0.129c0.514,0.058,1.027,0.121,1.539,0.198
					c0.406,0.062,0.813,0.132,1.218,0.202l0.515,0.088c-2.168-1.159-4.186-1.963-6.251-2.499C34.921,5.24,34.461,5.16,34,5.08
					c-0.209-0.036-0.418-0.072-0.627-0.112c-0.152-0.017-0.307-0.041-0.46-0.065c-0.292-0.045-0.595-0.093-0.89-0.093L31.886,4.813z
					"/>
			</g>
			<g>
				<path fill-rule="evenodd" clip-rule="evenodd" fill="#8498B0" d="M14.983,21.872l0.095-0.853
					c0.072-0.612,0.144-1.225,0.242-1.833c0.147-0.917,0.331-1.828,0.515-2.738l0.035-0.172c0.108-0.54,0.334-0.936,0.71-1.247
					c0.741-0.614,1.461-1.254,2.182-1.894l0.92-0.814l0.853-0.745c0.64-0.558,1.28-1.115,1.908-1.687
					c0.267-0.243,0.577-0.376,1.005-0.432l1.003-0.135c0.629-0.086,1.259-0.173,1.89-0.244c0.86-0.097,1.725-0.171,2.589-0.226
					l0.563-0.037c0.87-0.058,1.771-0.117,2.656-0.117l0.152,0.001c0.792,0.006,1.596,0.067,2.374,0.127
					c0.34,0.026,1.318,0.097,1.318,0.097c0.183,0.015,0.364,0.031,0.547,0.034c0.333,0.005,0.565,0.198,0.791,0.384l0.137,0.111
					c2.254,1.755,3.758,4.02,4.468,6.73c0.303,1.155,0.442,2.255,0.427,3.363l-0.371-0.058c-0.247-0.047-0.49-0.094-0.734-0.133
					c-0.78-0.124-1.56-0.248-2.342-0.356c-0.721-0.1-1.444-0.188-2.168-0.265c-0.508-0.055-1.019-0.094-1.528-0.121l-0.902-0.053
					c-0.811-0.049-1.649-0.101-2.474-0.101h-0.131c-0.875,0.006-1.766,0.077-2.626,0.146l-0.951,0.073
					c-0.771,0.057-1.569,0.116-2.348,0.218c-1.443,0.19-2.539,0.36-3.552,0.551c-1.417,0.266-3.079,0.624-4.655,1.261
					c-0.581,0.234-1.152,0.52-1.705,0.796c-0.256,0.128-0.513,0.256-0.771,0.38l-0.107,0.019L14.983,21.872z M25.173,11.173
					l-0.302,0.045c-0.242,0.036-0.484,0.071-0.725,0.114l-0.136,0.02c-0.149,0.02-0.303,0.041-0.4,0.122
					c-0.572,0.481-1.131,0.977-1.691,1.473l-1.329,1.17c-0.486,0.426-0.973,0.853-1.455,1.284c-0.139,0.125-0.229,0.247-0.266,0.36
					c-0.195,0.591-0.375,1.187-0.555,1.783l-0.1,0.33c-0.034,0.111-0.063,0.224-0.093,0.343l-0.04,0.159l0.099,0.001l0.037-0.015
					c1.58-0.484,3.262-0.863,5-1.126c0.185-0.028,0.257-0.093,0.311-0.28c0.191-0.666,0.39-1.33,0.588-1.994l0.356-1.201
					c0.189-0.64,0.755-2.594,0.755-2.594l0.027-0.037l0,0L25.173,11.173z M28.314,10.789c-0.588,0.059-1.159,0.116-1.729,0.183
					c-0.046,0.006-0.112,0.106-0.136,0.186c-0.446,1.443-0.889,2.887-1.326,4.332c-0.104,0.343-0.2,0.689-0.296,1.035l-0.135,0.482
					l0.497-0.064l1.527-0.154c0.153-0.015,0.249-0.032,0.302-0.213c0.32-1.084,0.649-2.166,0.979-3.247l0.776-2.585L28.314,10.789z"
					/>
			</g>
			<g>
				<path fill-rule="evenodd" clip-rule="evenodd" fill="#466384" d="M21.871,35.771c-0.24-0.004-0.479-0.046-0.719-0.088
					c-0.109-0.02-0.218-0.039-0.327-0.055c-0.003-0.831-0.335-1.594-1.054-2.409c-0.599-0.681-1.322-1.229-2.149-1.63
					c-0.131-0.063-0.167-0.139-0.138-0.291c0.096-0.497,0.182-0.996,0.268-1.495l1.084-6.233l-0.76-0.077l-1.319-0.151l0.155-0.109
					c0.116-0.067,0.231-0.135,0.354-0.185c1.618-0.662,3.319-1.166,5.202-1.539c1.119-0.222,2.138-0.398,3.117-0.539
					c0.81-0.117,1.615-0.194,2.396-0.229l0.202-0.009c1.584-0.073,3.222-0.148,4.832-0.148c0.945,0,1.89,0.074,2.803,0.146
					l0.799,0.061c1.967,0.141,3.975,0.464,6.137,0.99c1.727,0.42,3.11,0.874,4.354,1.429l0.129,0.063l0.057,0.048l-2.137,0.268
					l0.307,1.714l0.705,4.05c0.11,0.638,0.22,1.276,0.342,1.912c0.034,0.182,0.002,0.256-0.146,0.331
					c-0.807,0.404-1.509,0.934-2.088,1.573c-0.689,0.76-1.036,1.489-1.092,2.295c-0.015,0.217-0.174,0.248-0.312,0.251
					c-0.545,0.011-1.091,0.021-1.637,0.021c-0.249,0-0.498-0.002-0.746-0.008c-0.442-0.01-0.884-0.047-1.324-0.084l-0.372-0.031
					c-0.399-0.032-0.8-0.066-1.196-0.12c-0.098-0.014-0.217-0.091-0.265-0.173c-0.835-1.448-2.162-2.457-4.177-3.173
					c-0.091-0.032-0.182-0.06-0.273-0.087c-0.128-0.038-0.255-0.076-0.377-0.125c-0.146-0.06-0.297-0.089-0.46-0.089
					c-0.284,0-0.564,0.091-0.836,0.178c-1.729,0.559-2.919,1.281-3.817,2.297c-0.15,0.17-0.278,0.358-0.407,0.548
					c-0.092,0.136-0.185,0.271-0.285,0.4c-0.074,0.096-0.201,0.213-0.317,0.225c-0.907,0.09-1.816,0.169-2.727,0.229
					c-0.487,0.031-0.975,0.052-1.462,0.052L21.871,35.771z M31.946,29.727c0.11,0,0.22,0.009,0.333,0.032
					c2.603,0.511,4.567,1.601,6.006,3.331c0.059,0.07,0.16,0.126,0.241,0.134c0.59,0.055,1.18,0.102,1.77,0.149l0.633,0.051
					l0.164-0.032l0.162-0.002c0.066,0,0.201,0.006,0.202,0.006c0.232,0,0.331-0.106,0.427-0.277
					c0.183-0.326,0.407-0.701,0.688-1.017c0.522-0.585,1.229-0.989,2.161-1.234c0.145-0.038,0.205-0.08,0.182-0.224l-0.984-6.111
					c-0.029-0.18-0.08-0.289-0.269-0.345c-1.957-0.587-3.922-1.034-5.843-1.328c-1.278-0.196-2.543-0.308-3.61-0.393
					c-0.909-0.071-1.809-0.092-2.879-0.101c-0.001,0-0.003,0-0.005,0c-0.478,0-0.899,0.035-1.319,0.07l-0.728,0.056
					c-0.536,0.039-1.073,0.078-1.605,0.149c-0.921,0.123-1.821,0.243-2.691,0.435c-1.371,0.303-2.733,0.647-4.095,0.991
					l-0.562,0.142c-0.095,0.024-0.22,0.161-0.238,0.261c-0.133,0.757-0.252,1.517-0.372,2.276l-0.228,1.454
					c-0.123,0.786-0.245,1.572-0.38,2.355c-0.036,0.21-0.002,0.265,0.204,0.323c1.367,0.389,2.28,1.11,2.792,2.206
					c0.105,0.225,0.229,0.313,0.445,0.313c0.446-0.022,0.846-0.039,1.247-0.057c0.458-0.02,0.917-0.039,1.374-0.064
					c0.222-0.013,0.477-0.063,0.686-0.344c0.267-0.358,0.609-0.666,0.909-0.919c1.081-0.913,2.38-1.585,3.862-1.999l0.276-0.081
					C31.238,29.832,31.586,29.727,31.946,29.727z"/>
			</g>
			<g>
				<path fill-rule="evenodd" clip-rule="evenodd" fill="#DC2431" d="M36.779,55.859l0.439-0.786
					c0.728-1.336,1.209-2.798,1.433-4.344l0.158-1.163c0.056-0.407-0.07-0.788-0.192-1.155l-0.08-0.247
					c-0.914-2.997-1.764-5.231-2.754-7.245c-0.456-0.927-1.093-2.124-1.978-3.169c-0.462-0.547-0.887-0.964-1.457-1.22
					c-0.123-0.055-0.237-0.081-0.351-0.081s-0.227,0.026-0.347,0.081c-0.648,0.296-1.116,0.805-1.488,1.263
					c-1.526,1.878-2.475,4.1-3.202,6.025c-0.644,1.704-1.206,3.472-1.67,4.977c-0.129,0.417-0.086,0.911-0.036,1.343
					c0.162,1.358,0.42,2.422,0.813,3.347c0.218,0.515,0.473,1.014,0.727,1.513c0.117,0.229,0.233,0.458,0.347,0.688l0.068,0.148
					c-0.745-0.485-1.393-1.194-2.104-2.234c-0.882-1.29-1.486-2.795-1.795-4.472c-0.021-0.11,0.024-0.242,0.066-0.345l0.086-0.215
					c0.917-2.298,1.835-4.598,2.764-6.893l0.284-0.709c0.375-0.938,0.762-1.907,1.197-2.835c0.569-1.21,1.446-2.196,2.607-2.933
					c0.576-0.364,1.126-0.542,1.683-0.542c0.557,0,1.109,0.178,1.687,0.542c1.336,0.842,2.317,2.075,3.002,3.771
					c0.604,1.496,1.205,2.993,1.806,4.491c0.712,1.773,1.423,3.548,2.14,5.319c0.107,0.265,0.045,0.503-0.015,0.733l-0.037,0.147
					c-0.504,2.225-1.566,4.145-3.158,5.707c-0.134,0.131-0.279,0.248-0.426,0.365l-0.219,0.179L36.779,55.859z"/>
			</g>
			<g>
				<path fill-rule="evenodd" clip-rule="evenodd" fill="#DC2431" d="M49.51,52.454c-0.253,0-0.476-0.205-0.626-0.577
					c-0.252-0.628-0.213-1.284-0.133-1.898c0.319-2.465,1.22-4.816,2.115-7.015l0.039-0.105l-0.004,0.01l-3.147-1.216
					c0.19-1.224,0.682-2.276,1.451-3.141c0.34-0.38,0.735-0.722,1.117-1.052l0.286-0.249c0.052-0.044,0.148-0.074,0.241-0.074
					c0.039,0,0.076,0.006,0.104,0.017c1.219,0.472,2.434,0.956,3.647,1.44c0.311,0.125,0.369,0.4,0.425,0.667l0.035,0.154
					c0.216,0.859,0.115,1.735-0.012,2.479c-0.434,2.537-1.328,5.015-2.735,7.574c-0.464,0.844-1.028,1.805-1.851,2.532
					c-0.231,0.204-0.532,0.363-0.827,0.437C49.595,52.448,49.552,52.454,49.51,52.454z M52.762,43.507
					c-0.097,0-0.242,0.056-0.295,0.138l-0.101,0.149c-0.274,0.411-0.558,0.836-0.78,1.282c-0.335,0.671-0.562,1.417-0.694,2.28
					l0.189,0.45l0.112-0.067c0.111-0.055,0.224-0.11,0.331-0.174c0.035-0.021,0.062-0.062,0.087-0.102
					c0.552-0.778,0.927-1.628,1.174-2.64c0.085-0.342,0.106-0.699,0.128-1.046c0.006-0.096-0.086-0.268-0.134-0.271l-0.018-0.011
					V43.507z"/>
			</g>
			<g>
				<path fill-rule="evenodd" clip-rule="evenodd" fill="#8498B0" d="M14.043,50.997c-0.192,0-0.404-0.086-0.628-0.254
					c-0.583-0.437-0.96-1.05-1.225-1.534c-1.16-2.125-2.259-4.453-2.449-7.076c-0.04-0.549,0.022-1.015,0.191-1.425
					c0.039-0.095,0.128-0.217,0.232-0.259c1.271-0.521,2.546-1.032,3.821-1.545l0.845-0.34c0.743,0.852,1.206,1.856,1.427,3.075
					l-1.167,0.459l-1.996,0.771l0.188,0.445c0.147,0.371,0.293,0.737,0.433,1.105c0.632,1.658,1.089,3.16,1.398,4.592l-0.053,0.24
					c-0.033,0.121-0.063,0.245-0.091,0.368c-0.064,0.271-0.13,0.552-0.241,0.809C14.569,50.801,14.332,50.997,14.043,50.997z
					 M11.057,43.924c0.101,0.988,0.405,1.917,0.939,2.917c0.157,0.295,0.377,0.562,0.59,0.819c0.077,0.093,0.188,0.138,0.278,0.138
					c0.104-0.021,0.142-0.127,0.171-0.212c0.033-0.088,0.029-0.126,0.026-0.164l0-0.008l0.069-0.07l-0.138-0.499
					c-0.098-0.39-0.195-0.778-0.326-1.156c-0.239-0.688-0.535-1.404-1.075-1.991c-0.063-0.068-0.158-0.108-0.251-0.147
					c-0.042-0.018-0.083-0.034-0.122-0.055L11.057,43.924z"/>
			</g>
			<g>
				<path fill-rule="evenodd" clip-rule="evenodd" fill="#F0F0F0" d="M14.43,52.456c-0.201,0-0.42-0.084-0.651-0.25
					c-0.104-0.074-0.203-0.157-0.296-0.243c-0.677-0.626-1.167-1.396-1.557-2.067c-1.323-2.275-2.269-4.673-2.811-7.127
					c-0.156-0.704-0.243-1.486-0.274-2.462c-0.013-0.387,0.099-0.783,0.207-1.167l0.058-0.208c0.036-0.133,0.187-0.29,0.336-0.35
					c0.753-0.309,1.509-0.606,2.266-0.905l1.315-0.521c0.063-0.024,0.114-0.036,0.162-0.036c0.071,0,0.136,0.024,0.211,0.08
					c0.481,0.352,1.03,0.789,1.446,1.369l-0.849,0.354c-1.275,0.513-2.55,1.024-3.822,1.544c-0.094,0.039-0.183,0.154-0.221,0.249
					c-0.167,0.406-0.229,0.87-0.19,1.415c0.19,2.619,1.289,4.945,2.447,7.068c0.263,0.483,0.64,1.094,1.219,1.528
					c0.221,0.165,0.428,0.249,0.616,0.249l0,0c0.28,0,0.511-0.192,0.667-0.556c0.11-0.256,0.176-0.535,0.24-0.806
					c0.029-0.123,0.058-0.247,0.091-0.369l0.042-0.148c0.194,0.79,0.336,1.727,0.08,2.647C15.034,52.204,14.774,52.456,14.43,52.456
					z"/>
			</g>
			<g>
				<path fill-rule="evenodd" clip-rule="evenodd" fill="#A50813" d="M31.858,57.356c-0.107-0.079-0.208-0.154-0.288-0.25
					c-0.075-0.091-0.125-0.239-0.125-0.37c-0.007-1.444-0.006-2.888-0.006-4.331l0.001-12.584c0-0.209,0.31-0.641,0.502-0.699
					l0.112-0.001c0.188,0.055,0.505,0.491,0.505,0.696l0.001,4.232c0,4.228,0,8.456,0.005,12.684c0,0.214-0.069,0.354-0.232,0.468
					c-0.072,0.053-0.328,0.259-0.328,0.259l-0.006,0.005L31.858,57.356z"/>
			</g>
			<g>
				<path fill-rule="evenodd" clip-rule="evenodd" fill="#DC2431" d="M22.38,7.855l0.828-0.41c0.622-0.31,1.243-0.62,1.878-0.897
					c1.549-0.677,3.118-1.171,4.664-1.468c0.584-0.112,1.355-0.246,2.134-0.287l0.138-0.004c0.296,0,0.6,0.047,0.893,0.093
					c0.153,0.024,0.307,0.048,0.46,0.065l0.331,0.186c0.264,0.148,0.526,0.297,0.787,0.45c0.882,0.518,1.558,1.029,2.129,1.607
					l-0.545-0.019c-0.384-0.025-0.769-0.05-1.153-0.079c-0.224-0.016-0.447-0.037-0.671-0.057c-0.403-0.036-0.807-0.073-1.21-0.088
					c-0.365-0.013-0.73-0.021-1.096-0.021c-0.328,0-0.655,0.006-0.982,0.022c-0.607,0.03-1.213,0.083-1.82,0.136l-1.234,0.103
					c-0.345,0.027-0.69,0.054-1.035,0.086L26.59,7.303c-0.538,0.052-1.076,0.103-1.611,0.176c-0.603,0.082-1.203,0.177-1.804,0.271
					l-0.789,0.124L22.38,7.855z"/>
			</g>
			<g>
				<path fill-rule="evenodd" clip-rule="evenodd" fill="#A50813" d="M29.453,55.276c-0.419-0.682-0.817-1.329-1.209-1.979
					c-0.044-0.073-0.048-0.177-0.048-0.268c-0.002-2.822-0.003-5.646,0-8.469c0-0.124,0.017-0.221,0.051-0.295
					c0.389-0.838,1.394-2.976,1.394-2.976l0.019-0.026l0.082-0.089v14.569L29.453,55.276z"/>
			</g>
			<g>
				<path fill-rule="evenodd" clip-rule="evenodd" fill="#8498B0" d="M20.819,35.624c-0.634-1.011-1.401-1.755-2.347-2.274
					c-0.73-0.402-1.499-0.642-2.351-0.731l0.064-0.378c0.066-0.328,0.13-0.65,0.198-0.971l1.022-4.836
					c0.134-0.638,0.268-1.276,0.386-1.917c0.018-0.093-0.019-0.226-0.077-0.285c-0.232-0.229-0.474-0.447-0.716-0.666l-0.248-0.226
					l1.369,0.139l0.727,0.083l-0.093,0.604l-0.982,5.641c-0.086,0.5-0.172,0.999-0.268,1.496c-0.027,0.144,0.003,0.209,0.127,0.269
					c0.829,0.402,1.555,0.951,2.155,1.634c0.722,0.82,1.056,1.587,1.05,2.413v0.034L20.819,35.624z"/>
			</g>
			<g>
				<path fill-rule="evenodd" clip-rule="evenodd" fill="#A50813" d="M34.263,41.22l0.211,0.317
					c0.219,0.465,0.438,0.931,0.651,1.399c0.026,0.057,0.023,0.127,0.021,0.194c0,3.675,0.001,7.296-0.005,10.918
					c0,0.148-0.043,0.313-0.116,0.441c-0.165,0.289-0.342,0.571-0.531,0.873l-0.231,0.371V41.22z"/>
			</g>
			<g>
				<path fill-rule="evenodd" clip-rule="evenodd" fill="#A50813" d="M43.889,45.397l-0.047-0.276
					c-0.032-0.181-0.062-0.345-0.069-0.511c-0.086-1.772,0.118-3.198,0.644-4.487c0.683-1.68,1.737-3.076,3.136-4.149
					c0.048-0.037,0.127-0.062,0.198-0.062c0.271,0.075,0.47,0.155,0.667,0.235l0.206,0.085l0.08,0.058
					c-2.437,2.09-3.915,4.899-4.795,9.107H43.889z"/>
			</g>
			<g>
				<path fill-rule="evenodd" clip-rule="evenodd" fill="#F0F0F0" d="M20.096,45.413c-0.886-4.235-2.37-7.051-4.809-9.13
					l0.243-0.111c0.218-0.087,0.442-0.175,0.668-0.254c0.021-0.001,0.041-0.002,0.06-0.002c0.092,0,0.146,0.02,0.18,0.046
					c1.588,1.226,2.719,2.825,3.36,4.752c0.365,1.098,0.499,2.294,0.432,3.878c-0.007,0.17-0.035,0.337-0.067,0.525l-0.047,0.295
					L20.096,45.413z"/>
			</g>
			<g>
				<path fill-rule="evenodd" clip-rule="evenodd" fill="#A50813" d="M41.105,7.787c-0.405-0.07-0.812-0.141-1.219-0.202
					c-0.51-0.077-1.023-0.14-1.537-0.198c-0.412-0.047-0.825-0.088-1.237-0.128l-0.497-0.05c-0.576-0.58-1.251-1.09-2.131-1.606
					C34.224,5.449,33.96,5.3,33.697,5.151L33.37,4.967c0.215,0.021,0.425,0.058,0.634,0.094c0.461,0.08,0.922,0.16,1.374,0.277
					c2.065,0.536,4.085,1.341,6.172,2.459l0.028,0.023l0.041,0.055L41.105,7.787z"/>
			</g>
			<g>
				<path fill-rule="evenodd" clip-rule="evenodd" fill="#A50813" d="M26.41,48.92c-0.018-0.046-0.001-0.111,0.017-0.158
					c0.242-0.664,0.486-1.327,0.762-1.984l0.019,3.953l-0.053,0.023C27.154,50.754,26.607,49.412,26.41,48.92z"/>
			</g>
			<g>
				<path fill-rule="evenodd" clip-rule="evenodd" fill="#617080" d="M14.989,21.838c0.002,0.021,0.005,0.043,0.007,0.064
					c-0.009,0.011-0.019,0.021-0.027,0.032C14.976,21.903,14.982,21.871,14.989,21.838z"/>
			</g>
			<g>
				<path fill-rule="evenodd" clip-rule="evenodd" fill="#70050D" d="M41.627,7.87c0.025,0.005,0.05,0.01,0.008,0.001
					c0.031,0.028,0.013,0.012-0.005-0.005L41.627,7.87z"/>
			</g>
			<g>
				<path fill-rule="evenodd" clip-rule="evenodd" fill="#941821" d="M22.37,7.867c-0.019,0.018-0.038,0.035-0.005,0.005
					C22.32,7.88,22.347,7.875,22.373,7.87L22.37,7.867z"/>
			</g>
			<g>
				<path fill-rule="evenodd" clip-rule="evenodd" fill="#DF2532" d="M27.213,55.891c0-0.01,0-0.021-0.002-0.03
					c0.018,0.017,0.035,0.033,0.054,0.05l0.003-0.003C27.249,55.901,27.231,55.896,27.213,55.891z"/>
			</g>
			<g>
				<path fill-rule="evenodd" clip-rule="evenodd" fill="#DF2532" d="M36.789,55.86c-0.001,0.01-0.002,0.021-0.002,0.03
					c-0.018,0.006-0.036,0.011-0.055,0.017l0.004,0.003C36.754,55.894,36.771,55.877,36.789,55.86z"/>
			</g>
			<g>
				<path fill-rule="evenodd" clip-rule="evenodd" fill="#901720" d="M27.265,55.91c0.009,0.009,0.019,0.018,0.028,0.026
					c-0.006-0.001-0.016-0.001-0.018-0.005c-0.005-0.007-0.006-0.017-0.008-0.024L27.265,55.91z"/>
			</g>
			<g>
				<path fill-rule="evenodd" clip-rule="evenodd" fill="#8F1720" d="M36.732,55.907c-0.008,0.01-0.017,0.02-0.025,0.029
					c0.002-0.006,0.001-0.015,0.005-0.018c0.007-0.005,0.016-0.006,0.024-0.009L36.732,55.907z"/>
			</g>
			<g>
				<path fill-rule="evenodd" clip-rule="evenodd" fill="#F0F0F0" d="M18.143,18.387l-0.04-0.173c0.03-0.12,0.058-0.233,0.092-0.344
					l0.1-0.33c0.18-0.596,0.36-1.192,0.556-1.783c0.038-0.117,0.129-0.241,0.271-0.369c0.483-0.431,0.969-0.857,1.455-1.283
					l1.329-1.171c0.56-0.496,1.12-0.992,1.692-1.474c0.101-0.085,0.258-0.106,0.41-0.126l0.135-0.02
					c0.241-0.043,0.483-0.079,0.726-0.115l0.299-0.044l-0.115,0.691c-0.186,0.641-0.371,1.283-0.56,1.923l-0.357,1.2
					c-0.198,0.664-0.396,1.329-0.587,1.995c-0.056,0.193-0.136,0.265-0.328,0.293c-1.737,0.263-3.418,0.642-4.997,1.126
					l-0.042,0.005L18.143,18.387z"/>
			</g>
			<g>
				<path fill-rule="evenodd" clip-rule="evenodd" fill="#F0F0F0" d="M24.807,16.519c0.096-0.346,0.192-0.691,0.296-1.035
					c0.438-1.445,0.88-2.889,1.326-4.332c0.023-0.077,0.091-0.192,0.153-0.2c0.57-0.067,1.142-0.125,1.73-0.183l0.472-0.047
					l-0.107,0.412l-0.252,0.849l-0.411,1.35c-0.329,1.082-0.658,2.164-0.978,3.248c-0.056,0.189-0.158,0.211-0.319,0.227
					l-2.049,0.208L24.807,16.519z"/>
			</g>
			<g>
				<path fill-rule="evenodd" clip-rule="evenodd" fill="#CFD5DD" d="M25.237,11.171c-0.022-0.002-0.046-0.005-0.068-0.007
					c0.028-0.011,0.057-0.022,0.086-0.033C25.249,11.145,25.243,11.158,25.237,11.171z"/>
			</g>
			<g>
				<path fill-rule="evenodd" clip-rule="evenodd" fill="#F0F0F0" d="M24.681,17.004c-0.008,0.008-0.015,0.015-0.022,0.023
					c0.001-0.005,0-0.014,0.003-0.016C24.667,17.007,24.675,17.006,24.681,17.004L24.681,17.004z"/>
			</g>
			<g>
				<path fill-rule="evenodd" clip-rule="evenodd" d="M40.295,33.393c-0.59-0.047-1.181-0.095-1.771-0.149
					c-0.086-0.008-0.192-0.066-0.255-0.14c-1.436-1.728-3.396-2.815-5.994-3.325c-0.111-0.022-0.222-0.031-0.33-0.031
					c-0.357,0-0.704,0.104-1.039,0.206l-0.276,0.082c-1.479,0.413-2.776,1.084-3.854,1.995c-0.298,0.252-0.639,0.558-0.906,0.915
					c-0.214,0.287-0.474,0.339-0.701,0.352c-0.458,0.026-0.916,0.046-1.374,0.065c-0.4,0.017-0.801,0.033-1.201,0.055
					c-0.002,0-0.003,0-0.005,0c-0.264,0-0.397-0.094-0.504-0.323c-0.508-1.09-1.417-1.808-2.779-2.194
					c-0.215-0.061-0.256-0.125-0.218-0.345c0.135-0.784,0.258-1.57,0.38-2.356l0.229-1.454c0.12-0.759,0.239-1.519,0.372-2.276
					c0.02-0.108,0.149-0.25,0.252-0.277l0.561-0.142c1.362-0.344,2.726-0.689,4.097-0.992c0.871-0.192,1.771-0.313,2.642-0.429
					c0.583-0.078,1.12-0.117,1.657-0.156l0.727-0.056c0.422-0.035,0.845-0.07,1.267-0.07c1.13,0.009,2.03,0.029,2.94,0.101
					c1.067,0.084,2.332,0.197,3.612,0.393c1.921,0.293,3.888,0.74,5.845,1.328c0.197,0.06,0.253,0.178,0.282,0.362l0.984,6.111
					c0.025,0.158-0.046,0.207-0.195,0.247c-0.929,0.244-1.632,0.646-2.151,1.228c-0.28,0.313-0.505,0.688-0.687,1.013
					c-0.1,0.179-0.203,0.289-0.409,0.289c-0.106-0.006-0.172-0.007-0.237-0.007l-0.325,0.003l-0.003,0.03L40.295,33.393z
					 M26.715,24.063c-1.162,0.2-2.324,0.4-3.485,0.607c-0.138,0.024-0.268,0.048-0.333,0.241c-0.455,1.35-0.92,2.697-1.389,4.054
					l-0.457,1.322c0.089,0.042,0.12,0.06,0.151,0.071c0.773,0.262,1.373,0.744,1.782,1.43c0.143,0.24,0.303,0.339,0.553,0.339
					c0.054,0,0.11-0.005,0.169-0.012c0.189-0.023,0.3-0.073,0.375-0.286c0.498-1.391,1.007-2.779,1.516-4.167l1.325-3.616
					l-0.139,0.01v-0.01L26.715,24.063z M30.372,23.673c-0.536,0.05-1.048,0.098-1.561,0.141c-0.167,0.014-0.22,0.119-0.267,0.244
					l-1.848,4.863c-0.143,0.378-0.279,0.759-0.415,1.14l-0.21,0.586l0.131-0.144c0.103-0.094,0.207-0.188,0.316-0.274
					c0.584-0.458,1.286-0.812,2.208-1.114c0.178-0.059,0.272-0.151,0.336-0.33c0.362-1.006,1.282-3.532,1.282-3.532l0.6-1.634
					L30.372,23.673z"/>
			</g>
			<g>
				<path fill-rule="evenodd" clip-rule="evenodd" d="M50.873,47.358c0.132-0.87,0.359-1.618,0.695-2.292
					c0.223-0.446,0.507-0.872,0.781-1.283l0.1-0.15c0.058-0.088,0.208-0.146,0.313-0.146c0.087,0.007,0.177,0.197,0.171,0.294
					c-0.021,0.347-0.043,0.706-0.128,1.048c-0.248,1.016-0.623,1.867-1.149,2.604c-0.054,0.085-0.081,0.128-0.121,0.151
					c-0.107,0.063-0.22,0.119-0.332,0.174l-0.135,0.067L50.873,47.358z"/>
			</g>
			<g>
				<path fill-rule="evenodd" clip-rule="evenodd" d="M12.864,47.817c-0.097,0-0.212-0.047-0.262-0.106
					c-0.245-0.297-0.465-0.564-0.623-0.86c-0.535-1.002-0.841-1.934-0.934-2.848l0.143-0.485c0.023-0.008,0.043-0.011,0.062-0.011
					c0.038,0,0.067,0.013,0.098,0.024c0.095,0.04,0.192,0.081,0.258,0.152c0.543,0.59,0.84,1.309,1.079,1.999
					c0.131,0.377,0.229,0.768,0.326,1.157l0.131,0.511c-0.058,0.109-0.054,0.151-0.068,0.187c-0.053,0.149-0.09,0.256-0.152,0.273
					L12.864,47.817z"/>
			</g>
			<g>
				<path fill-rule="evenodd" clip-rule="evenodd" fill="#DC2431" d="M23.538,32.147c-0.254,0-0.425-0.104-0.571-0.349
					c-0.406-0.682-1.002-1.16-1.771-1.421c-0.034-0.011-0.064-0.03-0.1-0.051l0.393-1.369c0.469-1.357,0.934-2.704,1.389-4.053
					c0.069-0.204,0.211-0.229,0.348-0.254c1.161-0.208,2.323-0.408,3.486-0.607l0.135-0.004l-0.396,1.354l-0.835,2.279
					c-0.509,1.387-1.019,2.774-1.516,4.166c-0.079,0.22-0.198,0.275-0.392,0.298C23.649,32.144,23.592,32.147,23.538,32.147z"/>
			</g>
			<g>
				<path fill-rule="evenodd" clip-rule="evenodd" fill="#DC2431" d="M26.053,30.639l0.207-0.578
					c0.137-0.384,0.274-0.767,0.418-1.148l1.848-4.863c0.05-0.131,0.105-0.241,0.284-0.256c0.513-0.043,1.025-0.091,1.561-0.141
					l0.59-0.055l-0.126,0.383l-0.658,1.796c-0.366,1.004-0.732,2.009-1.094,3.015c-0.066,0.185-0.165,0.281-0.349,0.341
					c-0.92,0.302-1.62,0.655-2.202,1.111c-0.109,0.086-0.212,0.18-0.315,0.273l-0.147,0.133L26.053,30.639z"/>
			</g>
			<g>
				<path fill-rule="evenodd" clip-rule="evenodd" fill="#D82430" d="M26.055,30.65c-0.005,0.014-0.011,0.027-0.016,0.041
					c-0.007-0.007-0.013-0.014-0.02-0.021c0.014-0.005,0.026-0.01,0.039-0.016C26.059,30.654,26.055,30.65,26.055,30.65z"/>
			</g>
		</g>
	</g>
</g>
</svg>
