<?xml version="1.0" encoding="utf-8"?>
<!-- Generator: Adobe Illustrator 22.0.0, SVG Export Plug-In . SVG Version: 6.00 Build 0)  -->
<svg version="1.1" id="Camada_1" xmlns="http://www.w3.org/2000/svg" xmlns:xlink="http://www.w3.org/1999/xlink" x="0px" y="0px"
	 width="64px" height="64px" viewBox="0 0 64 64" enable-background="new 0 0 64 64" xml:space="preserve">
<g>
	<g>
		<path fill="#CD2DDC" d="M32.023,0.028c8.474,0,16.949,0.058,25.423-0.028c3.495-0.035,6.556,2.714,6.547,6.527
			c-0.039,16.97-0.016,33.939-0.017,50.909c0,3.865-2.681,6.558-6.562,6.559c-16.949,0.006-33.898,0.006-50.847,0
			c-3.88-0.001-6.561-2.695-6.561-6.56c-0.001-16.97-0.001-33.939,0-50.909c0-3.822,2.663-6.497,6.468-6.498
			C14.991,0.027,23.507,0.028,32.023,0.028z M25.078,52.768c2.436,0,4.872-0.011,7.307,0.005c1.127,0.007,2.244-0.061,3.356-0.248
			c5.787-0.969,10.773-5.076,11.859-11.136c0.702-3.915-0.172-7.319-3.401-9.887c-0.379-0.302-0.205-0.434,0.043-0.647
			c2.471-2.121,3.866-4.82,4.172-8.047c0.361-3.818-0.814-7.034-3.985-9.347c-2.1-1.531-4.523-2.212-7.089-2.256
			c-3.705-0.064-7.411-0.02-11.117-0.022c-1.666-0.001-3.331,0.013-4.996-0.009c-0.426-0.006-0.579,0.127-0.617,0.554
			c-0.086,0.952-0.232,1.899-0.347,2.848c-0.519,4.294-1.031,8.589-1.553,12.883c-0.522,4.294-1.055,8.586-1.579,12.879
			c-0.478,3.922-0.938,7.847-1.44,11.766c-0.07,0.547,0.043,0.678,0.581,0.674C19.207,52.756,22.142,52.768,25.078,52.768z"/>
		<path fill="#FEFCFE" d="M25.078,52.768c-2.935,0-5.871-0.011-8.806,0.011c-0.538,0.004-0.651-0.126-0.581-0.674
			c0.503-3.919,0.962-7.844,1.44-11.766c0.524-4.293,1.057-8.586,1.579-12.879c0.522-4.294,1.034-8.589,1.553-12.883
			c0.115-0.95,0.261-1.896,0.347-2.848c0.039-0.426,0.191-0.56,0.617-0.554c1.665,0.022,3.331,0.008,4.996,0.009
			c3.706,0.002,7.412-0.042,11.117,0.022c2.567,0.045,4.99,0.725,7.089,2.256c3.171,2.312,4.347,5.529,3.985,9.347
			c-0.306,3.227-1.701,5.926-4.172,8.047c-0.248,0.213-0.422,0.345-0.043,0.647c3.229,2.568,4.103,5.972,3.401,9.887
			c-1.086,6.06-6.072,10.166-11.859,11.136c-1.112,0.186-2.229,0.255-3.356,0.248C29.949,52.757,27.513,52.768,25.078,52.768z
			 M36.762,27.171c-0.812,0-1.624,0.006-2.436-0.005c-0.172-0.002-0.406,0.108-0.508-0.097c-0.083-0.167,0.113-0.295,0.193-0.431
			c1.741-2.959,3.491-5.913,5.229-8.873c0.438-0.746,0.239-1.075-0.627-1.076c-2.353-0.004-4.705,0.009-7.058-0.01
			c-0.484-0.004-0.754,0.162-0.959,0.606c-2.333,5.04-4.682,10.072-7.028,15.106c-0.362,0.777-0.179,1.089,0.676,1.096
			c1.312,0.01,2.623,0,3.935,0.003c0.677,0.001,0.686,0.009,0.432,0.659c-1.691,4.318-3.386,8.635-5.083,12.951
			c-0.132,0.336-0.314,0.694,0.092,0.943c0.434,0.265,0.631-0.12,0.844-0.392c2.816-3.583,5.631-7.167,8.444-10.753
			c2.248-2.865,4.494-5.732,6.74-8.598c0.192-0.245,0.425-0.479,0.246-0.835c-0.165-0.329-0.469-0.294-0.76-0.294
			C38.344,27.171,37.553,27.171,36.762,27.171z"/>
		<path fill="#CD2DDC" d="M36.762,27.171c0.791,0,1.582,0,2.373,0c0.291,0,0.595-0.035,0.76,0.294
			c0.179,0.356-0.054,0.589-0.246,0.835c-2.247,2.866-4.492,5.733-6.74,8.598c-2.813,3.585-5.628,7.17-8.444,10.753
			c-0.213,0.271-0.41,0.657-0.844,0.392c-0.407-0.249-0.224-0.607-0.092-0.943c1.696-4.316,3.391-8.633,5.083-12.951
			c0.255-0.65,0.246-0.658-0.432-0.659c-1.312-0.003-2.623,0.007-3.935-0.003c-0.855-0.007-1.038-0.318-0.676-1.096
			c2.345-5.034,4.695-10.066,7.028-15.106c0.205-0.444,0.475-0.61,0.959-0.606c2.352,0.019,4.705,0.006,7.058,0.01
			c0.866,0.001,1.065,0.33,0.627,1.076c-1.738,2.961-3.489,5.914-5.229,8.873c-0.08,0.136-0.276,0.264-0.193,0.431
			c0.102,0.205,0.335,0.094,0.508,0.097C35.138,27.177,35.95,27.171,36.762,27.171z"/>
	</g>
</g>
</svg>
