<?xml version="1.0" encoding="utf-8"?>
<!-- Generator: Adobe Illustrator 23.0.2, SVG Export Plug-In . SVG Version: 6.00 Build 0)  -->
<svg version="1.1" id="Layer_1" xmlns="http://www.w3.org/2000/svg" xmlns:xlink="http://www.w3.org/1999/xlink" x="0px" y="0px"
	 width="64px" height="64px" viewBox="0 0 64 64" enable-background="new 0 0 64 64" xml:space="preserve">
<g>
	<g>
		<path fill="#DBC593" d="M25.584,32.699c0.103,0.049,0.216,0.023,0.324,0.023c7.418,0.002,14.837,0.002,22.255-0.002
			c0.227,0,0.366,0.047,0.496,0.264c1.799,3.003,3.611,5.999,5.422,8.995c2.174,3.597,4.35,7.192,6.525,10.788
			c1.112,1.839,2.221,3.679,3.335,5.517c0.088,0.146,0.094,0.221-0.107,0.204c-0.052-0.004-0.104-0.001-0.156-0.001
			c-16.095,0-32.19,0-48.285-0.003c-0.114,0-0.273,0.069-0.335-0.053c-0.05-0.098,0.079-0.199,0.135-0.292
			c1.614-2.68,3.234-5.356,4.844-8.038c0.109-0.182,0.242-0.207,0.426-0.207c9.327,0.003,18.654,0.003,27.982,0.003
			c0.112,0,0.224,0,0.372,0c-0.167-0.38-0.394-0.693-0.592-1.021c-1.481-2.456-2.969-4.908-4.448-7.366
			c-0.088-0.146-0.176-0.201-0.346-0.201c-7.618,0.004-15.236,0.004-22.854,0c-0.183,0-0.278,0.066-0.369,0.217
			c-2.18,3.613-4.365,7.223-6.548,10.835c-1.188,1.965-2.375,3.931-3.555,5.901c-0.102,0.17-0.214,0.23-0.413,0.23
			c-3.141-0.007-6.282-0.005-9.423-0.005c-0.325,0-0.329-0.003-0.162-0.279c1.627-2.692,3.255-5.383,4.882-8.076
			c1.394-2.307,2.785-4.615,4.178-6.921c1.833-3.034,3.666-6.067,5.499-9.1c1.528-2.529,3.059-5.056,4.581-7.589
			c0.102-0.17,0.214-0.21,0.395-0.21c3.141,0.005,6.282,0.003,9.423,0.005c0.089,0,0.214-0.053,0.262,0.044
			c0.043,0.088-0.055,0.173-0.102,0.252c-1.195,1.981-2.393,3.961-3.589,5.941C25.611,32.596,25.562,32.631,25.584,32.699z"/>
		<path fill="#DBC593" d="M40.841,28.447c-1.57,0-3.141-0.003-4.711,0.004c-0.179,0.001-0.283-0.054-0.374-0.206
			c-1.206-2.005-2.419-4.005-3.621-6.013c-0.104-0.174-0.209-0.233-0.408-0.233c-3.115,0.006-6.229,0.004-9.344,0.004
			c-0.061,0-0.122-0.003-0.182,0.001c-0.158,0.01-0.208-0.022-0.108-0.182c0.396-0.641,0.781-1.29,1.171-1.935
			c1.8-2.982,3.6-5.964,5.402-8.946c1.057-1.75,2.116-3.5,3.176-5.249c0.16-0.264,0.163-0.261,0.322,0.002
			c2.439,4.034,4.879,8.067,7.316,12.102c1.9,3.145,3.796,6.291,5.694,9.437c0.197,0.326,0.385,0.659,0.595,0.976
			c0.135,0.204,0.075,0.24-0.138,0.239C44.034,28.445,42.438,28.447,40.841,28.447z"/>
	</g>
</g>
</svg>
