<?xml version="1.0" encoding="utf-8"?>
<!-- Generator: Adobe Illustrator 22.0.0, SVG Export Plug-In . SVG Version: 6.00 Build 0)  -->
<svg version="1.1" id="Camada_1" xmlns="http://www.w3.org/2000/svg" xmlns:xlink="http://www.w3.org/1999/xlink" x="0px" y="0px"
	 width="64px" height="64px" viewBox="0 0 64 64" style="enable-background:new 0 0 64 64;" xml:space="preserve">
<g>
	<g>
		<path style="fill:#FFFFFF;" d="M22.31,34.325c0.071,0.294,0.127,0.584,0.211,0.865c0.318,1.054,0.9,1.954,1.655,2.744
			c1.302,1.362,2.881,2.261,4.691,2.761c0.387,0.107,0.782,0.188,1.172,0.282c0.056,0.013,0.111,0.033,0.172,0.09
			c-0.201,0.059-0.4,0.132-0.604,0.176c-0.978,0.21-1.969,0.276-2.966,0.233c-2.38-0.102-4.556-0.813-6.511-2.189
			c-0.993-0.698-1.813-1.565-2.536-2.532c-0.091-0.122-0.182-0.243-0.274-0.363c-0.008-0.011-0.025-0.015-0.057-0.034
			c-0.101,0.029-0.216,0.063-0.332,0.096c-1.303,0.373-2.629,0.611-3.983,0.702c-2.589,0.173-5.105-0.161-7.54-1.064
			c-1.533-0.568-2.923-1.375-4.104-2.519c-0.477-0.462-0.88-0.984-1.223-1.552C0.052,31.976,0.035,31.927,0,31.852
			c0.308,0.059,0.589,0.113,0.87,0.166c1.292,0.241,2.589,0.439,3.905,0.48c1.47,0.046,2.91-0.118,4.306-0.599
			c1.164-0.401,2.236-0.981,3.253-1.668c1.148-0.776,2.206-1.664,3.233-2.59c1.444-1.302,2.876-2.617,4.323-3.915
			c1.556-1.396,3.183-2.703,4.937-3.847c1.691-1.103,3.474-2.024,5.389-2.678c1.291-0.441,2.614-0.737,3.969-0.884
			c0.807-0.087,1.617-0.15,2.427-0.213c0.874-0.068,1.746,0.009,2.615,0.089c1.165,0.108,2.318,0.297,3.453,0.585
			c1.982,0.503,3.842,1.279,5.52,2.463c0.16,0.113,0.314,0.232,0.471,0.349c-0.005,0.014-0.011,0.029-0.016,0.043
			c-0.21-0.034-0.42-0.06-0.628-0.102c-1.801-0.361-3.621-0.52-5.457-0.469c-3.013,0.084-5.948,0.591-8.756,1.717
			c-1.463,0.586-2.827,1.368-4.144,2.23c-1.107,0.725-2.159,1.523-3.167,2.38c-0.046,0.039-0.091,0.08-0.135,0.122
			c-0.009,0.009-0.009,0.027-0.02,0.064c0.201-0.041,0.392-0.08,0.582-0.119c0.921-0.192,1.838-0.4,2.763-0.573
			c1.008-0.189,2.027-0.292,3.049-0.374c1.425-0.114,2.851-0.146,4.279-0.11c1.678,0.042,3.352,0.156,5.019,0.357
			c3.675,0.445,7.263,1.264,10.739,2.547c2.636,0.973,5.161,2.173,7.509,3.726c1.186,0.785,2.322,1.635,3.356,2.615
			c0.108,0.103,0.211,0.212,0.357,0.359c-0.109,0-0.165,0.004-0.22-0.001c-0.628-0.054-1.255-0.108-1.883-0.165
			c-1.514-0.137-3.029-0.235-4.549-0.149c-2.653,0.15-5.01,1.071-7.086,2.726c-1.006,0.802-1.919,1.702-2.821,2.617
			c-1.418,1.438-2.815,2.899-4.343,4.224c-1.499,1.3-3.117,2.42-4.928,3.246c-1.265,0.577-2.591,0.945-3.961,1.17
			c-0.84,0.138-1.686,0.231-2.536,0.249c-0.537,0.011-1.077-0.028-1.613-0.081c-1.127-0.113-2.237-0.328-3.317-0.675
			c-1.686-0.542-3.206-1.373-4.501-2.592c-0.265-0.249-0.496-0.533-0.741-0.802c-0.035-0.038-0.059-0.086-0.106-0.156
			c0.077,0.022,0.127,0.033,0.174,0.051c1.682,0.646,3.426,0.979,5.225,1.016c2.585,0.054,5.056-0.449,7.388-1.578
			c1.41-0.683,2.683-1.58,3.849-2.62c0.884-0.788,1.735-1.613,2.59-2.432c1.135-1.087,2.249-2.197,3.394-3.273
			c0.847-0.796,1.759-1.52,2.74-2.148c0.556-0.355,1.139-0.666,1.711-0.996c0.124-0.071,0.25-0.139,0.372-0.253
			c-0.135-0.022-0.269-0.053-0.405-0.064c-0.658-0.052-1.317-0.101-1.976-0.146c-1.349-0.092-2.699-0.141-4.051-0.145
			c-1.207-0.004-2.414,0.007-3.621,0.012c-0.052,0-0.103,0.01-0.174,0.017c-0.011,0.21-0.023,0.413-0.033,0.616
			c-0.025,0.517-0.083,1.028-0.223,1.528c-0.612,2.191-2.585,3.995-4.815,4.445c-2.428,0.489-5.005-0.51-6.465-2.609
			c-0.413-0.593-0.673-1.255-0.896-1.935c-0.025-0.078-0.051-0.155-0.082-0.247C24.775,33.199,23.538,33.708,22.31,34.325z
			 M28.782,32.093c0.296,1.562,1.885,3.24,4.084,2.845c1.941-0.349,3.079-1.991,2.922-3.769
			C33.43,31.27,31.095,31.533,28.782,32.093z"/>
	</g>
</g>
</svg>
