<?xml version="1.0" encoding="utf-8"?>
<!-- Generator: Adobe Illustrator 22.0.0, SVG Export Plug-In . SVG Version: 6.00 Build 0)  -->
<svg version="1.1" id="Camada_1" xmlns="http://www.w3.org/2000/svg" xmlns:xlink="http://www.w3.org/1999/xlink" x="0px" y="0px"
	 width="64px" height="64px" viewBox="0 0 64 64" style="enable-background:new 0 0 64 64;" xml:space="preserve">
<g>
	<g>
		<path style="fill:#FFFFFF;" d="M32.117,64c0.184-2.228,0.331-4.46,0.571-6.681c0.089-0.822,0.378-1.626,0.617-2.426
			c0.046-0.155,0.267-0.337,0.431-0.365c0.928-0.157,1.862-0.277,2.796-0.394c0.384-0.048,0.773-0.055,1.16-0.089
			c0.369-0.032,0.587-0.267,0.791-0.556c1.033-1.467,2.031-2.962,3.135-4.375c1.567-2.007,3.432-3.733,5.387-5.358
			c2.398-1.994,4.935-3.801,7.625-5.374c2.002-1.17,4.069-2.231,6.112-3.331c0.198-0.107,0.302-0.208,0.328-0.452
			c0.56-5.228-0.206-10.248-2.327-15.061c-1.606-3.644-3.872-6.826-6.785-9.529c-4.069-3.775-8.828-6.226-14.286-7.31
			c-2.388-0.475-4.798-0.641-7.219-0.512c-3.484,0.185-6.838,0.966-10.043,2.366c-3.242,1.417-6.137,3.345-8.683,5.805
			c-3.152,3.047-5.506,6.617-7.061,10.711c-0.911,2.4-1.475,4.881-1.731,7.438c-0.204,2.031-0.172,4.058,0.034,6.084
			c0.016,0.153,0.168,0.355,0.31,0.424c2.916,1.421,5.73,3.022,8.434,4.812c2.645,1.751,5.153,3.675,7.483,5.837
			c2.492,2.313,4.56,4.961,6.368,7.824c0.236,0.374,0.541,0.534,0.982,0.573c1.171,0.104,2.337,0.251,3.505,0.386
			c0.384,0.044,0.684,0.193,0.775,0.623c0.214,1.02,0.532,2.028,0.645,3.059c0.208,1.9,0.3,3.812,0.438,5.719
			c0.004,0.05-0.015,0.102-0.024,0.152c-0.181,0-0.363,0-0.544,0c-0.334-0.029-0.667-0.077-1.002-0.082
			c-0.243-0.004-0.344-0.079-0.427-0.327c-0.357-1.062-0.749-2.112-1.137-3.163c-0.046-0.124-0.139-0.23-0.269-0.439
			c-0.075,0.227-0.1,0.359-0.161,0.472c-0.053,0.099-0.137,0.241-0.223,0.253c-0.869,0.121-1.739,0.241-2.613,0.318
			c-1.25,0.11-2.502,0.201-3.755,0.269c-1.327,0.072-2.656,0.106-3.984,0.157c-0.006-0.08-0.017-0.11-0.008-0.128
			c1.042-2.008,2.169-3.947,4.196-5.155c0.931-0.555,1.859-1.115,2.784-1.678c0.176-0.107,0.467-0.214,0.243-0.487
			c-0.312-0.38-0.696-0.619-1.242-0.558c-1.782,0.201-3.385,0.87-4.894,1.803c-1.994,1.233-3.635,2.855-5.145,4.627
			c-0.102,0.12-0.322,0.214-0.478,0.201c-0.734-0.057-1.47-0.123-2.196-0.245c-2.151-0.362-4.298-0.744-6.444-1.136
			c-0.722-0.132-1.435-0.317-2.153-0.477c-0.007-0.039-0.015-0.079-0.022-0.118c1.136-0.686,2.253-1.406,3.411-2.053
			c3.331-1.862,6.795-3.364,10.639-3.807c1.813-0.209,3.614-0.185,5.408,0.158c0.319,0.061,0.638,0.122,0.957,0.183
			c0.013-0.034,0.026-0.069,0.039-0.103c-0.159-0.094-0.309-0.209-0.478-0.28c-1.921-0.816-3.943-1.213-6.011-1.335
			c-2.729-0.161-5.418,0.164-8.058,0.87c-0.224,0.06-0.346,0.041-0.483-0.157c-0.859-1.243-1.732-2.477-2.598-3.715
			c-0.046-0.066-0.066-0.15-0.107-0.247c3.08,0.064,6.116,0.214,9.095,0.855c2.986,0.642,5.811,1.735,8.389,3.422
			c0.055-0.067,0.11-0.133,0.166-0.2c-0.145-0.078-0.297-0.145-0.433-0.237c-0.5-0.341-0.981-0.714-1.494-1.034
			c-2.404-1.498-5.023-2.502-7.718-3.326c-2.89-0.883-5.835-1.458-8.863-1.569c-0.137-0.005-0.329-0.141-0.392-0.268
			c-0.365-0.74-0.72-1.486-1.037-2.248c-0.245-0.588-0.429-1.201-0.672-1.897c1.143,0.313,2.188,0.581,3.222,0.884
			c4.221,1.236,8.305,2.802,12.084,5.089c2.426,1.468,4.636,3.198,6.48,5.369c0.232,0.273,0.473,0.537,0.71,0.806
			c0.047-0.112,0.027-0.169,0-0.224c-0.04-0.081-0.078-0.164-0.128-0.238c-1.017-1.499-2.242-2.812-3.608-3.992
			c-2.446-2.115-5.152-3.845-8.008-5.345c-3.539-1.858-7.235-3.34-11.03-4.581c-0.236-0.077-0.413-0.162-0.455-0.441
			c-0.213-1.429-0.446-2.856-0.654-4.286c-0.079-0.547-0.109-1.1-0.161-1.651c0-0.778,0-1.555,0-2.333
			c0.019-0.04,0.051-0.079,0.055-0.121c0.114-1.156,0.182-2.319,0.344-3.468c0.426-3.034,1.334-5.929,2.656-8.689
			c2.029-4.236,4.86-7.846,8.499-10.823c2.437-1.993,5.109-3.59,8.024-4.771c2.849-1.154,5.802-1.902,8.874-2.149
			C29.493,0.118,29.91,0.052,30.328,0c1.141,0,2.281,0,3.422,0c0.095,0.026,0.189,0.067,0.286,0.076
			c0.887,0.09,1.782,0.132,2.662,0.267c3.862,0.593,7.502,1.836,10.894,3.79c5.263,3.032,9.324,7.233,12.179,12.587
			c1.907,3.578,3.059,7.396,3.454,11.437c0.038,0.388,0.102,0.774,0.154,1.16c0,1.374,0,2.748,0,4.122
			c-0.026,0.052-0.068,0.101-0.076,0.155c-0.238,1.62-0.466,3.242-0.721,4.86c-0.023,0.145-0.197,0.325-0.342,0.381
			c-0.636,0.245-1.289,0.444-1.932,0.671c-3.043,1.073-6.016,2.315-8.883,3.798c-2.656,1.374-5.192,2.94-7.512,4.834
			c-1.669,1.363-3.209,2.856-4.4,4.672c-0.075,0.115-0.125,0.246-0.187,0.37c0.568-0.505,1.038-1.071,1.544-1.603
			c2.179-2.292,4.751-4.054,7.528-5.532c3.327-1.77,6.845-3.058,10.455-4.11c0.97-0.283,1.952-0.525,2.993-0.803
			c-0.438,1.476-0.999,2.812-1.656,4.112c-0.119,0.235-0.262,0.282-0.507,0.307c-1.528,0.156-3.062,0.281-4.576,0.526
			c-2.489,0.404-4.891,1.153-7.24,2.064c-2.222,0.861-4.357,1.89-6.238,3.384c-0.102,0.081-0.19,0.178-0.285,0.268
			c0.021,0.043,0.042,0.085,0.063,0.128c5.333-3.516,11.335-4.225,17.594-4.286c-0.976,1.377-1.902,2.692-2.846,3.996
			c-0.062,0.086-0.269,0.133-0.385,0.104c-1.731-0.44-3.486-0.757-5.267-0.864c-1.642-0.098-3.286-0.045-4.914,0.231
			c-1.365,0.231-2.702,0.564-3.971,1.132c-0.154,0.069-0.295,0.166-0.443,0.25c0.132,0.077,0.23,0.076,0.324,0.058
			c0.443-0.085,0.881-0.199,1.327-0.259c2.957-0.4,5.855-0.098,8.69,0.805c3.429,1.093,6.595,2.727,9.581,4.722
			c0.176,0.118,0.347,0.242,0.57,0.397c-3.585,0.85-7.12,1.502-10.704,1.881c-0.307,0.032-0.524-0.018-0.733-0.279
			c-1.024-1.276-2.172-2.434-3.462-3.442c-1.76-1.376-3.675-2.441-5.909-2.836c-0.598-0.106-1.174-0.175-1.668,0.311
			c-0.301,0.297-0.307,0.434,0.059,0.638c0.361,0.201,0.736,0.377,1.089,0.591c1.729,1.045,3.473,2.074,4.554,3.881
			c0.481,0.803,0.968,1.603,1.5,2.482c-0.247,0-0.372,0.004-0.497-0.001c-1.332-0.05-2.666-0.068-3.995-0.161
			c-1.857-0.13-3.71-0.318-5.565-0.477c-0.382-0.033-0.715-0.103-0.717-0.592c0-0.036-0.053-0.072-0.118-0.154
			c-0.099,0.165-0.197,0.284-0.248,0.421c-0.385,1.053-0.768,2.107-1.134,3.167c-0.072,0.207-0.163,0.28-0.382,0.283
			c-0.36,0.005-0.719,0.053-1.079,0.083C32.48,64,32.298,64,32.117,64z M32.746,63.54c0.045,0.01,0.09,0.019,0.135,0.029
			c0.031-0.13,0.071-0.259,0.092-0.391c0.281-1.808,0.725-3.574,1.401-5.277c0.056-0.142,0.118-0.292,0.215-0.407
			c0.31-0.365,0.316-0.55-0.035-0.979C33.569,58.779,33.083,61.14,32.746,63.54z M29.475,56.493c-0.3,0.423-0.325,0.677-0.159,0.884
			c0.141,0.177,0.283,0.367,0.367,0.574c0.692,1.724,1.115,3.521,1.411,5.35c0.015,0.09,0.061,0.175,0.093,0.263
			c0.035-0.013,0.07-0.026,0.106-0.039C30.952,61.127,30.469,58.766,29.475,56.493z"/>
		<path style="fill:#FFFFFF;" d="M59.269,28.713c0.043,0.712,0.125,1.369,0.114,2.025c-0.021,1.216-0.094,2.431-0.149,3.646
			c-0.014,0.299-0.132,0.494-0.436,0.641c-3.327,1.617-6.483,3.523-9.45,5.731c-3.041,2.262-5.857,4.783-8.3,7.685
			c-1.144,1.36-2.131,2.852-3.199,4.276c-0.099,0.132-0.257,0.265-0.412,0.304c-3.532,0.88-7.073,0.986-10.618,0.082
			c-0.147-0.038-0.325-0.135-0.397-0.258c-1.055-1.789-2.336-3.407-3.697-4.967c-0.023-0.026-0.032-0.065-0.009-0.015
			c1.365,0.216,2.768,0.524,4.187,0.64c1.791,0.146,3.595,0.146,5.394,0.186c0.659,0.015,1.321-0.021,1.979-0.065
			c0.149-0.01,0.342-0.113,0.426-0.235c1.759-2.556,3.749-4.915,5.995-7.055c2.849-2.714,5.96-5.072,9.457-6.9
			c0.045-0.024,0.087-0.053,0.204-0.127c-15.219,0-30.361,0-45.498,0C3.345,23.509,9.723,9.069,24.9,4.968
			c15.06-4.069,28.642,5.052,32.794,16.994c-0.116,0.009-0.224,0.026-0.331,0.026c-1.996,0.002-3.992-0.004-5.987,0.007
			c-0.256,0.001-0.386-0.077-0.506-0.304c-2.084-3.959-5.107-6.982-9.072-9.061c-2.501-1.312-5.16-2.085-7.974-2.302
			c-5.753-0.445-10.888,1.141-15.341,4.809c-3.946,3.251-6.359,7.437-7.357,12.445c-0.07,0.353-0.111,0.713-0.174,1.131
			C27.06,28.713,43.143,28.713,59.269,28.713z"/>
	</g>
</g>
</svg>
