<?xml version="1.0" encoding="utf-8"?>
<!-- Generator: Adobe Illustrator 22.0.0, SVG Export Plug-In . SVG Version: 6.00 Build 0)  -->
<svg version="1.1" id="Camada_1" xmlns="http://www.w3.org/2000/svg" xmlns:xlink="http://www.w3.org/1999/xlink" x="0px" y="0px"
	 width="64px" height="64px" viewBox="0 0 64 64" enable-background="new 0 0 64 64" xml:space="preserve">
<g>
	<g>
		<path fill="#FCD805" d="M4.861,22.925c0.419-0.343,0.831-0.695,1.262-1.024c1.387-1.059,2.837-2.023,4.339-2.912
			c1.279-0.758,2.591-1.454,3.934-2.092c1.168-0.555,2.355-1.062,3.567-1.514c0.111-0.041,0.148-0.102,0.16-0.206
			c0.125-1.083,0.489-2.087,1.009-3.039c0.405-0.742,0.916-1.413,1.443-2.071c0.702-0.877,1.426-1.737,2.018-2.696
			c0.766-1.242,1.264-2.587,1.521-4.022c0.159-0.885,0.19-1.781,0.182-2.678c-0.002-0.223-0.002-0.446-0.003-0.669
			c0.01,0,0.019,0,0.029,0c0.249,0.176,0.523,0.31,0.785,0.463c1.409,0.822,2.485,1.96,3.243,3.402
			c0.064,0.123,0.147,0.226,0.256,0.311c0.587,0.457,1.116,0.972,1.563,1.569c0.06,0.08,0.135,0.14,0.23,0.171
			c0.631,0.205,1.241,0.462,1.853,0.736c-0.464-1.019-1.035-1.978-1.635-2.965c0.296,0.095,0.556,0.184,0.818,0.262
			c2.456,0.737,4.553,2.091,6.449,3.778c1.548,1.377,2.901,2.929,4.06,4.649c0.13,0.192,0.253,0.389,0.38,0.584
			c0.005,0.007,0.015,0.011,0.026,0.018c-0.073-0.549-0.145-1.095-0.219-1.652c0.073,0.025,0.092,0.089,0.125,0.136
			c0.546,0.788,1.124,1.553,1.64,2.362c0.185,0.29,0.355,0.589,0.513,0.894c0.04,0.077,0.091,0.122,0.178,0.152
			c1.642,0.557,3.247,1.204,4.817,1.94c1.768,0.829,3.484,1.755,5.138,2.792c1.585,0.993,3.124,2.052,4.54,3.28
			c0.018,0.016,0.04,0.027,0.06,0.04c0,0.029,0,0.058,0,0.087c-0.094,0.28-0.136,0.573-0.198,0.86
			c-0.189,0.87-0.389,1.737-0.601,2.601c-0.505,2.053-1.078,4.087-1.73,6.099c-0.579,1.786-1.218,3.55-1.924,5.29
			c-0.586,1.444-1.218,2.868-1.9,4.269c-0.627,1.288-1.296,2.555-2.015,3.795c-0.046,0.079-0.063,0.152-0.049,0.246
			c0.17,1.1,0.334,2.201,0.5,3.302c0.213,1.416,0.421,2.833,0.642,4.248c0.043,0.276-0.034,0.528-0.09,0.785
			c-0.218,0.997-0.445,1.992-0.659,2.99c-0.028,0.131-0.083,0.155-0.202,0.154c-3.044-0.003-6.088-0.002-9.131-0.005
			c-0.115,0-0.197,0.032-0.282,0.11c-1.959,1.81-4.062,3.427-6.376,4.76c-0.948,0.546-1.917,1.052-2.952,1.419
			c-0.04,0.014-0.087,0.018-0.112,0.06c-0.039,0-0.078,0-0.116,0c-0.074-0.079-0.181-0.084-0.274-0.119
			c-0.92-0.341-1.788-0.79-2.638-1.273c-2.305-1.31-4.406-2.899-6.354-4.693c-0.205-0.189-0.406-0.27-0.689-0.269
			c-3.015,0.011-6.03,0.006-9.045,0.01c-0.124,0-0.172-0.032-0.199-0.157c-0.251-1.153-0.509-2.305-0.766-3.457
			c-0.01-0.043-0.014-0.084-0.007-0.129c0.132-0.866,0.263-1.732,0.391-2.599c0.017-0.117,0.039-0.203,0.189-0.178
			c0.101,0.016,0.059-0.058,0.05-0.103c-0.107-0.521-0.21-1.043-0.324-1.563c-0.027-0.123-0.014-0.191,0.113-0.245
			c0.182-0.077,0.349-0.192,0.533-0.265c0.137-0.054,0.149-0.137,0.133-0.258c-0.039-0.294-0.054-0.586-0.002-0.882
			c0.074-0.428,0.234-0.817,0.483-1.17c0.046-0.065,0.052-0.109,0.011-0.179c-0.833-1.403-1.601-2.842-2.316-4.309
			c-0.681-1.397-1.311-2.815-1.897-4.255c-0.547-1.345-1.055-2.704-1.525-4.078c-0.623-1.822-1.18-3.665-1.677-5.525
			c-0.342-1.281-0.656-2.568-0.948-3.861c-0.1-0.444-0.192-0.889-0.289-1.334c-0.007-0.032-0.022-0.063-0.033-0.094
			C4.861,22.983,4.861,22.954,4.861,22.925z"/>
		<path fill="#1E1E1D" d="M19.376,20.072c0.407,0.512,0.84,1.001,1.35,1.414c0.079,0.064,0.028,0.126,0.011,0.183
			c-0.179,0.588-0.354,1.177-0.468,1.782c-0.088,0.467-0.163,0.937-0.08,1.414c0.039,0.222,0.122,0.427,0.24,0.619
			c0.17,0.277,0.313,0.568,0.462,0.856c0.049,0.094,0.052,0.176,0.023,0.275c-0.161,0.538-0.287,1.084-0.402,1.633
			c-0.11,0.525-0.022,1.01,0.175,1.501c0.68,1.693,1.377,3.379,2.194,5.01c0.441,0.882,0.907,1.754,1.507,2.545
			c0.129,0.17,0.275,0.325,0.431,0.471c0.364,0.337,0.79,0.404,1.258,0.296c0.049-0.011,0.097-0.038,0.165-0.003
			c-2.326,1.536-4.623,3.095-6.945,4.691c1.91,0.219,3.776,0.488,5.669,0.816c-0.841,0.487-1.652,0.959-2.449,1.457
			c-0.063,0.084-0.164,0.111-0.247,0.163c-0.026,0.01-0.044,0.036-0.039,0.036c0,0,0.023-0.029,0.054-0.04
			c0.089-0.043,0.166-0.109,0.267-0.125c1.011-0.508,2.005-1.048,3.003-1.601c-1.528-0.425-3.079-0.724-4.656-0.944
			c0.046-0.094,0.141-0.13,0.214-0.182c2.122-1.509,4.27-2.982,6.457-4.395c0.051-0.033,0.095-0.064,0.098-0.132
			c0.002-0.043,0.015-0.086,0.019-0.129c0.031-0.293,0.062-0.587,0.095-0.901c-0.23,0.101-0.443,0.197-0.659,0.287
			c-0.411,0.171-0.826,0.325-1.267,0.411c-0.254,0.05-0.456-0.011-0.639-0.181c-0.341-0.317-0.591-0.704-0.831-1.096
			c-0.809-1.324-1.462-2.728-2.074-4.151c-0.378-0.88-0.743-1.765-1.097-2.655c-0.13-0.327-0.165-0.649-0.1-0.993
			c0.116-0.619,0.276-1.227,0.457-1.829c0.033-0.111,0.026-0.2-0.026-0.302c-0.184-0.362-0.354-0.732-0.572-1.076
			c-0.197-0.311-0.232-0.651-0.193-1.006c0.105-0.949,0.395-1.853,0.68-2.757c0.031-0.097,0.017-0.145-0.069-0.21
			c-1.283-0.981-2.193-2.217-2.558-3.812c-0.258-1.126-0.174-2.24,0.149-3.343c0.363-1.239,1.038-2.304,1.83-3.305
			c0.673-0.85,1.374-1.679,1.987-2.575c0.94-1.375,1.612-2.864,1.912-4.509c0.147-0.807,0.217-1.622,0.215-2.443
			c0-0.04-0.024-0.097,0.02-0.119c0.041-0.021,0.079,0.026,0.113,0.049c1.214,0.814,2.187,1.843,2.817,3.175
			c0.036,0.077,0.086,0.135,0.154,0.186c0.688,0.506,1.289,1.098,1.783,1.796c0.044,0.062,0.096,0.1,0.171,0.123
			c1.058,0.329,2.068,0.765,2.995,1.379c0.222,0.147,0.437,0.304,0.647,0.468c0.038,0.017,0.042-0.002,0.036-0.033
			c-0.495-1.158-1.004-2.31-1.621-3.446c0.348,0.11,0.651,0.246,0.951,0.388c1.923,0.908,3.625,2.132,5.144,3.615
			c1.22,1.19,2.326,2.476,3.274,3.894c0.585,0.876,1.097,1.79,1.449,2.787c0.093,0.263,0.168,0.531,0.243,0.802
			c0.082-0.421,0.066-0.846,0.063-1.27c-0.003-0.425-0.05-0.849-0.091-1.311c0.206,0.288,0.367,0.561,0.524,0.836
			c0.528,0.922,0.968,1.883,1.262,2.908c0.335,1.164,0.363,2.337,0.139,3.522c-0.152,0.804-0.409,1.572-0.794,2.295
			c-0.006,0.011-0.008,0.024-0.021,0.068c0.59-0.422,1.024-0.953,1.455-1.537c0.006,0.52-0.017,1.001-0.085,1.479
			c-0.114,0.8-0.353,1.556-0.796,2.238c-0.423,0.652-0.99,1.161-1.614,1.613c-0.737,0.534-1.525,0.993-2.25,1.544
			c-1.425,1.084-2.552,2.407-3.238,4.077c-0.246,0.598-0.424,1.216-0.47,1.864c-0.03,0.422,0.04,0.841,0.083,1.26
			c0.146,1.422,0.386,2.829,0.69,4.225c0.286,1.314,0.622,2.616,1.02,3.902c0.059,0.054,0.051,0.132,0.071,0.201
			c0.024,0.074,0.049,0.148,0.072,0.223c0.022,0.073,0.037,0.147,0.06,0.22c0.021,0.047,0.028,0.096,0.036,0.123
			c0.004-0.036-0.019-0.088-0.046-0.138c-0.006-0.086-0.044-0.164-0.059-0.247c-0.027-0.059-0.038-0.123-0.061-0.183
			c-0.016-0.077-0.036-0.154-0.04-0.233c-0.114-0.504-0.231-1.008-0.343-1.513c-0.264-1.196-0.51-2.395-0.715-3.602
			c-0.176-1.041-0.304-2.087-0.402-3.139c-0.098-1.041,0.185-1.983,0.642-2.891c0.888-1.768,2.217-3.131,3.861-4.209
			c0.769-0.504,1.549-0.993,2.234-1.614c0.935-0.848,1.522-1.89,1.786-3.121c0.154-0.72,0.193-1.448,0.181-2.182
			c-0.006-0.359-0.003-0.717-0.004-1.076c0.071-0.032,0.133,0.005,0.195,0.029c1.866,0.705,3.639,1.591,5.288,2.716
			c0.589,0.402,1.156,0.832,1.679,1.318c0.115,0.107,0.144,0.217,0.125,0.374c-0.152,1.27-0.336,2.535-0.565,3.794
			c-0.218,1.201-0.475,2.394-0.762,3.581c-0.31,1.282-0.664,2.551-1.055,3.809c-0.298,0.957-0.618,1.908-0.968,2.848
			c-0.302,0.813-0.609,1.624-0.95,2.421c-0.417,0.975-0.837,1.949-1.344,2.883c-0.023,0.105-0.085,0.189-0.143,0.275
			c-0.009,0.009-0.019,0.019-0.029,0.028c0.006,0.001,0.011-0.003,0.017-0.013c0.075-0.074,0.095-0.192,0.199-0.241
			c0.536-0.706,1.02-1.448,1.477-2.207c1.303-2.161,2.357-4.442,3.271-6.79c0.706-1.813,1.318-3.658,1.862-5.525
			c0.471-1.617,0.878-3.25,1.235-4.896c0.056-0.26,0.098-0.523,0.155-0.783c0.017-0.079-0.005-0.125-0.06-0.175
			c-0.928-0.832-1.909-1.595-2.944-2.289c-1.714-1.15-3.538-2.092-5.443-2.881c-0.549-0.227-1.103-0.445-1.668-0.633
			c-0.121-0.04-0.173-0.102-0.195-0.229c-0.141-0.79-0.406-1.542-0.723-2.277c-0.017-0.04-0.033-0.08-0.061-0.146
			c0.228,0.081,0.435,0.153,0.641,0.229c2.147,0.789,4.224,1.734,6.231,2.829c2.256,1.231,4.41,2.618,6.425,4.218
			c0.24,0.191,0.31,0.357,0.239,0.66c-0.325,1.39-0.64,2.782-1.002,4.163c-0.554,2.111-1.182,4.2-1.897,6.261
			c-0.781,2.25-1.662,4.459-2.662,6.622c-0.821,1.776-1.715,3.513-2.7,5.204c-0.049,0.085-0.059,0.163-0.045,0.261
			c0.161,1.131,0.343,2.259,0.488,3.393c0.092,0.72,0.232,1.433,0.344,2.15c0.118,0.756,0.226,1.513,0.341,2.269
			c0.014,0.09-0.011,0.174-0.029,0.258c-0.204,0.926-0.414,1.851-0.615,2.778c-0.026,0.121-0.095,0.106-0.177,0.106
			c-2.206,0-4.412,0-6.618,0c-0.766,0-1.532,0.001-2.298-0.002c-0.093,0-0.162,0.025-0.231,0.09
			c-1.559,1.465-3.221,2.802-5.013,3.974c-1.254,0.82-2.554,1.553-3.936,2.139c-0.236,0.1-0.436,0.1-0.672,0
			c-1.801-0.764-3.461-1.771-5.051-2.901c-1.383-0.983-2.684-2.068-3.919-3.23c-0.07-0.066-0.142-0.069-0.224-0.069
			c-2.996,0-5.992-0.001-8.988,0.004c-0.156,0-0.218-0.035-0.253-0.199c-0.195-0.928-0.404-1.853-0.612-2.779
			c-0.04-0.179,0.019-0.346,0.043-0.516c0.074-0.547,0.165-1.091,0.242-1.638c0.017-0.119,0.066-0.145,0.178-0.142
			c0.305,0.007,0.307,0.002,0.248-0.285c-0.111-0.54-0.222-1.081-0.338-1.62c-0.03-0.14-0.034-0.239,0.135-0.302
			c0.189-0.07,0.362-0.184,0.544-0.274c0.069-0.035,0.098-0.069,0.078-0.156c-0.043-0.178-0.077-0.36-0.097-0.542
			c-0.079-0.712,0.137-1.328,0.63-1.845c0.072-0.076,0.073-0.123,0.021-0.209c-1.456-2.421-2.725-4.939-3.842-7.533
			c-0.707-1.64-1.349-3.305-1.935-4.991c-0.666-1.915-1.254-3.854-1.782-5.811c-0.34-1.261-0.644-2.532-0.935-3.805
			c-0.082-0.359-0.151-0.72-0.234-1.078c-0.023-0.099-0.002-0.157,0.077-0.222c1.193-0.984,2.457-1.871,3.759-2.703
			c1.436-0.918,2.918-1.755,4.444-2.517c1.274-0.635,2.574-1.21,3.898-1.732c0.098-0.039,0.198-0.074,0.308-0.116
			c0.012,0.194,0.023,0.379,0.036,0.564c0.034,0.505,0.124,0.999,0.282,1.479c0.036,0.109,0.022,0.155-0.096,0.196
			c-1.775,0.623-3.491,1.379-5.135,2.293c-1.792,0.996-3.463,2.164-4.986,3.54C8.097,24.135,8.085,24.184,8.1,24.26
			c0.343,1.709,0.755,3.4,1.226,5.078c0.514,1.832,1.097,3.641,1.763,5.424c0.751,2.01,1.605,3.975,2.618,5.868
			c0.722,1.35,1.515,2.656,2.439,3.879c0.069,0.031,0.088,0.105,0.134,0.156c0.016,0.031,0.042,0.057,0.054,0.089
			c0.003-0.001-0.001-0.002,0-0.003c-0.014-0.035-0.04-0.063-0.056-0.096c-0.056-0.057-0.078-0.132-0.101-0.205
			c-0.009-0.02-0.019-0.039-0.028-0.059c-0.385-0.685-0.708-1.399-1.025-2.117c-0.407-0.922-0.783-1.857-1.137-2.8
			c-0.428-1.138-0.817-2.29-1.174-3.453c-0.196-0.639-0.384-1.281-0.56-1.926c-0.459-1.684-0.846-3.384-1.164-5.1
			c-0.223-1.205-0.397-2.418-0.557-3.633c-0.006-0.043,0.003-0.09-0.01-0.13c-0.106-0.336,0.071-0.537,0.311-0.738
			c0.842-0.704,1.733-1.337,2.68-1.892c1.421-0.832,2.907-1.526,4.456-2.086c0.406-0.147,0.816-0.278,1.225-0.417
			C19.252,20.079,19.311,20.05,19.376,20.072z"/>
		<path fill="#AB9011" d="M19.376,20.072c-0.453,0.155-0.907,0.305-1.357,0.467c-1.464,0.529-2.876,1.171-4.228,1.947
			c-1.048,0.602-2.042,1.278-2.961,2.063c-0.198,0.169-0.327,0.32-0.282,0.628c0.116,0.803,0.213,1.61,0.34,2.412
			c0.241,1.524,0.542,3.036,0.9,4.536c0.34,1.421,0.727,2.828,1.166,4.222c0.506,1.607,1.072,3.191,1.712,4.749
			c0.434,1.057,0.894,2.101,1.41,3.121c0.028,0.056,0.048,0.115,0.072,0.173c-0.142-0.155-0.22-0.35-0.32-0.53
			c-0.608-1.103-1.161-2.232-1.673-3.382c-0.41-0.92-0.791-1.85-1.15-2.79c-0.347-0.908-0.666-1.826-0.969-2.75
			c-0.289-0.882-0.557-1.77-0.811-2.663c-0.255-0.897-0.489-1.799-0.696-2.709c-0.117-0.513-0.242-1.024-0.352-1.539
			c-0.202-0.949-0.39-1.9-0.547-2.857c-0.03-0.181-0.052-0.363-0.092-0.542c-0.018-0.08,0.006-0.124,0.058-0.175
			c0.406-0.395,0.842-0.755,1.292-1.099c1.169-0.892,2.414-1.662,3.718-2.339c0.949-0.493,1.92-0.937,2.914-1.331
			c0.396-0.157,0.796-0.301,1.193-0.454c0.095-0.037,0.147-0.022,0.192,0.075C19.033,19.579,19.224,19.814,19.376,20.072z"/>
		<path fill="#AB9011" d="M47.876,44.418c0.228-0.481,0.462-0.959,0.684-1.443c0.565-1.232,1.077-2.486,1.546-3.757
			c0.379-1.026,0.73-2.06,1.054-3.104c0.496-1.598,0.925-3.215,1.291-4.848c0.279-1.246,0.52-2.499,0.717-3.76
			c0.133-0.85,0.233-1.705,0.352-2.557c0.013-0.094-0.037-0.143-0.094-0.197c-0.6-0.56-1.257-1.046-1.939-1.5
			c-1.473-0.98-3.044-1.768-4.687-2.418c-0.18-0.071-0.362-0.136-0.543-0.204c0-0.265,0-0.53,0-0.795
			c-0.012-0.004-0.024-0.008-0.036-0.012c-0.144,0.21-0.288,0.419-0.432,0.629c-0.032,0.013-0.049-0.003-0.059-0.031
			c0.005-0.305,0.048-0.608,0.032-0.914c-0.007-0.135,0.069-0.097,0.137-0.07c0.409,0.163,0.819,0.323,1.225,0.491
			c0.792,0.328,1.566,0.693,2.326,1.089c0.884,0.461,1.744,0.964,2.572,1.521c0.763,0.514,1.491,1.071,2.185,1.675
			c0.237,0.207,0.328,0.385,0.263,0.711c-0.154,0.771-0.285,1.546-0.437,2.318c-0.248,1.255-0.537,2.501-0.858,3.74
			c-0.262,1.01-0.55,2.013-0.859,3.01c-0.417,1.349-0.88,2.682-1.386,3.999c-0.338,0.88-0.704,1.749-1.091,2.609
			c-0.315,0.701-0.641,1.397-0.99,2.082c-0.298,0.587-0.611,1.166-0.942,1.735C47.896,44.428,47.886,44.428,47.876,44.418z"/>
		<path fill="#CBAE11" d="M47.876,44.418c0.01,0,0.02,0,0.029,0c0.012,0.011,0.024,0.022,0.037,0.033
			c-0.056,0.099-0.123,0.191-0.204,0.272c-0.015-0.013-0.016-0.028-0.005-0.044C47.781,44.592,47.829,44.505,47.876,44.418z"/>
		<path fill="#C8AD18" d="M22.553,45.066c-0.08,0.065-0.175,0.101-0.266,0.143c-0.03,0.014-0.033-0.001-0.027-0.025
			c0.086-0.05,0.172-0.101,0.258-0.151C22.53,45.043,22.541,45.055,22.553,45.066z"/>
		<path fill="#CCAE11" d="M16.265,44.681c-0.04-0.057-0.08-0.115-0.12-0.172c0.026-0.012,0.027-0.036,0.031-0.059
			c0.04,0.067,0.08,0.133,0.12,0.2C16.307,44.681,16.292,44.687,16.265,44.681z"/>
		<path fill="#C4A917" d="M39.016,43.978c0.044,0.073,0.054,0.155,0.058,0.238c-0.01,0.01-0.02,0.01-0.03,0.001
			c-0.031-0.065-0.051-0.133-0.06-0.205C38.994,44.001,39.005,43.989,39.016,43.978z"/>
		<path fill="#433E25" d="M45.728,20.421c0.02,0.01,0.039,0.021,0.059,0.031c-0.011,0.042-0.034,0.077-0.079,0.115
			C45.701,20.509,45.686,20.463,45.728,20.421z"/>
		<path fill="#8E7C22" d="M33.665,8.26c0.026,0.021,0.052,0.054,0.022,0.078c-0.021,0.016-0.045-0.021-0.058-0.045
			C33.641,8.282,33.653,8.271,33.665,8.26z"/>
		<path fill="#FEFEFE" d="M35.202,29.994c-0.164,0.392-0.313,0.791-0.49,1.178c-0.097,0.212-0.224,0.389-0.411,0.531
			c-0.774,0.589-1.58,1.133-2.393,1.666c-1.011,0.664-2.031,1.315-3.097,1.888c-0.874,0.47-1.765,0.901-2.732,1.154
			c-0.042,0.011-0.085,0.018-0.127,0.031c-0.1,0.031-0.156-0.009-0.206-0.099c-0.295-0.534-0.478-1.108-0.628-1.694
			c-0.02-0.078,0.009-0.088,0.075-0.094c0.231-0.02,0.463-0.035,0.688-0.102c0.145-0.043,0.265-0.115,0.353-0.238
			c0.138-0.192,0.286-0.379,0.411-0.579c0.223-0.355,0.542-0.556,0.947-0.635c0.066-0.013,0.131-0.031,0.219-0.052
			c-0.587-0.23-0.977-0.69-1.42-1.082c-0.265-0.234-0.529-0.469-0.83-0.657c-0.132-0.082-0.249-0.092-0.364,0.028
			c-0.087,0.09-0.187,0.169-0.27,0.263c-0.059,0.066-0.091,0.053-0.145-0.002c-0.231-0.236-0.231-0.252,0.009-0.456
			c0.319-0.27,0.59-0.586,0.852-0.91c0.014-0.017,0.016-0.043,0.029-0.078c-0.129,0.01-0.224,0.082-0.329,0.118
			c-0.22,0.076-0.44,0.142-0.669,0.188c-0.349,0.07-0.575-0.099-0.768-0.351c-0.109-0.142-0.204-0.293-0.292-0.45
			c-0.043-0.077-0.037-0.136,0.003-0.213c0.489-0.931,0.799-1.926,1.021-2.95c0.019-0.085-0.02-0.151-0.057-0.218
			c-0.376-0.696-0.903-1.266-1.496-1.781c-0.055-0.047-0.106-0.104-0.168-0.137c-0.164-0.088-0.187-0.204-0.137-0.379
			c0.159-0.558,0.329-1.113,0.536-1.656c0.034-0.089,0.069-0.108,0.165-0.09c1.209,0.216,2.369,0.008,3.502-0.417
			c1.068-0.401,2.033-0.987,2.957-1.647c0.838-0.598,1.72-1.118,2.703-1.445c1.216-0.405,2.464-0.502,3.728-0.319
			c0.699,0.101,1.319,0.383,1.747,0.982c0.359,0.501,0.464,1.079,0.471,1.678c0.007,0.644-0.109,1.272-0.273,1.892
			c-0.185,0.698-0.445,1.37-0.685,2.049c-0.017,0.047-0.031,0.086-0.085,0.106c-0.705,0.263-1.202,0.777-1.638,1.363
			c-0.02,0.027-0.04,0.054-0.066,0.089c0.077,0.009,0.112-0.05,0.156-0.083c0.315-0.234,0.64-0.453,1.006-0.6
			c0.311-0.125,0.634-0.177,0.966-0.096c0.282,0.068,0.422,0.265,0.402,0.554c-0.012,0.181-0.068,0.352-0.144,0.515
			c-0.581,1.249-1.278,2.43-2.073,3.554c-0.13,0.183-0.287,0.34-0.5,0.431c-0.102,0.044-0.207,0.052-0.313,0.028
			c-0.189-0.044-0.241-0.13-0.202-0.317c0.03-0.142,0.059-0.284,0.088-0.426c0.006-0.008,0.011-0.017,0.008-0.025
			c-0.008-0.02,0.005-0.042-0.005-0.061C35.23,29.96,35.218,29.978,35.202,29.994z"/>
		<path fill="#AB9011" d="M25.748,14.345c0.302-0.38,0.558-0.791,0.806-1.206c0.515-0.863,0.945-1.766,1.271-2.718
			c0.345-1.008,0.565-2.04,0.607-3.109c0.009-0.24,0.013-0.479-0.001-0.722c0.062,0.002,0.091,0.03,0.11,0.072
			c0.217,0.709,0.412,1.424,0.547,2.153c0.107,0.576,0.182,1.156,0.224,1.742c0.035,0.485,0.037,0.969,0.016,1.452
			c-0.028,0.657-0.112,1.311-0.233,1.959c-0.251,1.345-0.685,2.632-1.211,3.892c-0.009,0.021-0.027,0.04-0.016,0.074
			c0.309-0.194,0.597-0.411,0.873-0.645c0.654-0.555,1.224-1.186,1.662-1.928c0.277-0.469,0.493-0.966,0.621-1.498
			c0.013-0.055,0.015-0.119,0.087-0.138c0.081,0.05,0.047,0.132,0.058,0.201c-0.044,0.65-0.161,1.286-0.356,1.908
			c-0.1,0.318-0.199,0.638-0.38,0.923c-0.022,0.034-0.04,0.072-0.076,0.103c0.03-0.022,0.045-0.051,0.063-0.076
			c0.099-0.152,0.236-0.27,0.367-0.391c0.432-0.397,0.876-0.779,1.39-1.07c0.22-0.124,0.447-0.231,0.693-0.295
			c0.403-0.104,0.776-0.022,1.135,0.168c0.193,0.102,0.37,0.231,0.556,0.343c0.116,0.07,0.233,0.138,0.357,0.194
			c0.472,0.214,0.806,0.103,1.145-0.271c0.381-0.42,0.577-0.924,0.553-1.502c-0.002-0.045-0.025-0.103,0.037-0.127
			c0.052-0.02,0.092,0.017,0.13,0.047c0.317,0.246,0.573,0.55,0.813,0.866c0.347,0.456,0.649,0.941,0.932,1.438
			c0.079,0.139,0.141,0.286,0.205,0.433c0.031,0.066,0.058,0.133,0.11,0.223c-0.052-0.098-0.083-0.171-0.116-0.243
			c-0.243-0.575-0.452-1.164-0.701-1.736c-0.233-0.537-0.468-1.074-0.741-1.592c-0.044-0.084-0.11-0.162-0.097-0.268
			c0.01-0.023,0.026-0.037,0.053-0.034c0.063,0.024,0.096,0.079,0.134,0.129c0.85,1.113,1.575,2.302,2.155,3.576
			c0.414,0.911,0.743,1.852,0.868,2.853c0.087,0.699,0.085,1.398-0.007,2.097c-0.094,0.714-0.266,1.408-0.537,2.076
			c-0.018,0.045-0.033,0.091-0.06,0.131c-0.021,0.039-0.044,0.078-0.057,0.099c0.004-0.013,0.03-0.038,0.045-0.069
			c0.243-0.411,0.542-0.779,0.867-1.125c0.169-0.18,0.335-0.364,0.534-0.512c0.043-0.032,0.09-0.104,0.146-0.05
			c0.043,0.042-0.011,0.099-0.039,0.141c-0.268,0.404-0.515,0.821-0.753,1.242c-0.406,0.717-0.77,1.455-1.088,2.216
			c-0.027,0.065-0.024,0.157-0.121,0.176c0.032-0.443-0.181-0.74-0.566-0.924c-0.096-0.046-0.081-0.091-0.054-0.168
			c0.275-0.78,0.547-1.561,0.752-2.364c0.145-0.564,0.247-1.135,0.268-1.717c0.046-1.28-0.473-2.257-1.583-2.912
			c-0.72-0.425-1.503-0.626-2.332-0.677c-1.295-0.079-2.53,0.188-3.735,0.632c-1.136,0.418-2.159,1.038-3.147,1.728
			c-0.952,0.665-1.999,1.124-3.154,1.301c-0.924,0.142-1.83,0.053-2.683-0.344c-0.556-0.259-0.952-0.708-1.275-1.219
			c-0.376-0.595-0.59-1.251-0.681-1.945c-0.116-0.879-0.141-1.754,0.147-2.615c0.241-0.721,0.587-1.389,0.979-2.036
			c0.673-1.111,1.462-2.143,2.2-3.21c0.466-0.674,0.905-1.364,1.213-2.128c0.003-0.008,0.013-0.013,0.032-0.029
			c0.006,0.153-0.035,0.289-0.046,0.429c-0.011,0.141-0.046,0.277-0.074,0.414c-0.205,0.987-0.563,1.92-1.013,2.819
			c-0.011,0.022-0.019,0.044-0.028,0.067c-0.009,0.035-0.007,0.072-0.022,0.087c0.007-0.014,0.028-0.037,0.059-0.051
			c0.877-1.182,1.509-2.478,1.787-3.931c0.188-0.98,0.208-1.962-0.038-2.939c-0.005-0.021-0.001-0.045-0.001-0.093
			c0.205,0.206,0.342,0.432,0.461,0.668c0.331,0.652,0.49,1.351,0.556,2.076c0.132,1.447-0.076,2.857-0.447,4.25
			c-0.266,0.999-0.628,1.962-1.059,2.9c-0.044,0.097-0.09,0.193-0.134,0.289c-0.007,0.057-0.024,0.109-0.063,0.151
			c-0.002,0.007-0.008,0.013-0.015,0.017c0.009,0.002,0.014-0.002,0.017-0.013C25.682,14.423,25.7,14.371,25.748,14.345z"/>
		<path fill="#FCD805" d="M30.395,16.785c0.241-0.496,0.419-1.013,0.538-1.552c0.095-0.427,0.166-0.858,0.195-1.295
			c0.042-0.136-0.023-0.274,0.012-0.387c-0.005-0.042-0.035-0.024-0.016-0.028c0.005-0.001,0.007,0.001,0.008,0.006
			c0.017,0.073,0.002,0.14-0.035,0.204c-0.102,0.434-0.249,0.852-0.447,1.252c-0.259,0.523-0.589,0.997-0.972,1.436
			c-0.496,0.568-1.059,1.058-1.684,1.479c-0.064,0.043-0.129,0.083-0.229,0.147c0.086-0.216,0.158-0.397,0.231-0.578
			c0.382-0.937,0.701-1.893,0.925-2.881c0.149-0.66,0.254-1.325,0.322-1.998c0.06-0.594,0.067-1.189,0.044-1.783
			c-0.021-0.554-0.09-1.105-0.181-1.653c-0.135-0.811-0.343-1.604-0.577-2.391c-0.01-0.035-0.039-0.072,0.01-0.102
			c1.567,1.708,2.622,3.645,2.686,6.025c0.123-0.789,0.137-1.579,0.057-2.372c-0.079-0.788-0.262-1.551-0.558-2.333
			c2.656,0.892,4.502,2.628,5.711,5.085c-0.051-0.543-0.165-1.071-0.394-1.558c-0.269-0.573-0.431-1.176-0.599-1.781
			c-0.251-0.902-0.624-1.758-1.03-2.599c-0.02-0.037-0.02-0.063,0.033-0.062c1.106,0.846,2.132,1.781,3.101,2.779
			c1.224,1.261,2.336,2.612,3.254,4.115c0.835,1.367,1.426,2.831,1.684,4.419c0.128,0.787,0.185,1.578,0.079,2.373
			c-0.004,0.027,0,0.054,0,0.123c0.925-1.235,1.285-2.598,1.248-4.087c0.131,0.262,0.21,0.541,0.284,0.821
			c0.249,0.945,0.347,1.905,0.236,2.878c-0.16,1.403-0.728,2.619-1.72,3.627c-0.137,0.139-0.321,0.23-0.482,0.347
			c-0.757,0.549-1.433,1.182-1.979,1.946c-0.014,0.019-0.025,0.041-0.037,0.062c-0.004,0.02-0.024,0.037-0.016,0.06
			c0.013-0.016,0.034-0.018,0.05-0.027c0.731-0.68,1.554-1.205,2.495-1.553c0.762-0.281,1.458-0.69,2.102-1.22
			c0.004,0.108-0.044,0.186-0.068,0.268c-0.026,0.088-0.064,0.172-0.103,0.255c-0.381,0.808-0.954,1.439-1.736,1.875
			c-1.423,0.793-2.747,1.72-3.902,2.875c-0.64,0.64-1.199,1.341-1.617,2.149c-0.093-0.047-0.035-0.114-0.017-0.168
			c0.092-0.271,0.208-0.533,0.332-0.79c0.462-0.956,0.963-1.891,1.524-2.794c0.028-0.045,0.059-0.089,0.092-0.131
			c0.008-0.017,0.023-0.03,0.029-0.049c-0.007,0.011-0.016,0.021-0.024,0.032c-0.22,0.273-0.462,0.526-0.686,0.795
			c-0.024,0.029-0.064,0.104-0.118,0.02c0.236-0.475,0.479-0.946,0.671-1.442c0.086-0.221,0.146-0.449,0.207-0.677
			c0.213-0.465,0.41-0.938,0.64-1.396c0.395-0.788,0.828-1.553,1.313-2.289c0.015-0.023,0.027-0.049,0.044-0.08
			c-0.277,0.119-0.902,0.813-1.533,1.698c-0.027,0.008-0.04,0-0.032-0.03c0.242-0.612,0.431-1.241,0.541-1.89
			c0.051-0.299,0.102-0.6,0.102-0.905c0-0.275,0.019-0.548,0.01-0.824c-0.021-0.677-0.138-1.334-0.331-1.979
			c-0.405-1.348-1.044-2.586-1.793-3.771c-0.328-0.519-0.68-1.021-1.056-1.507c-0.03-0.013-0.059-0.029-0.07-0.064
			c0.01,0.033,0.032,0.061,0.037,0.096c0.119,0.242,0.24,0.484,0.356,0.727c0.447,0.938,0.841,1.898,1.194,2.875
			c0.008,0.029-0.004,0.037-0.031,0.028c-0.332-0.663-0.718-1.293-1.166-1.885c-0.243-0.321-0.507-0.622-0.826-0.871
			c-0.018-0.014-0.04-0.024-0.076-0.045c-0.007,0.203,0.016,0.394-0.028,0.581c-0.117,0.491-0.321,0.929-0.728,1.251
			c-0.294,0.232-0.609,0.264-0.952,0.12c-0.243-0.102-0.458-0.25-0.676-0.392c-0.291-0.19-0.594-0.343-0.946-0.375
			c-0.277-0.025-0.537,0.051-0.786,0.161c-0.464,0.205-0.872,0.499-1.257,0.824c-0.299,0.253-0.592,0.513-0.852,0.807
			C30.402,16.822,30.389,16.813,30.395,16.785z"/>
		<path fill="#4A4A4A" d="M36.282,37.048c0.025,0.152,0.057,0.305,0.076,0.459c0.077,0.622,0.201,1.236,0.318,1.851
			c0.19,1.004,0.411,2.002,0.65,2.995c0.226,0.938,0.47,1.872,0.742,2.798c0.034,0.115,0.013,0.145-0.111,0.145
			c-4.444-0.003-8.888-0.003-13.332-0.003c-0.033,0-0.065,0-0.128,0c0.175-0.142,0.357-0.22,0.524-0.318
			c0.918-0.537,1.839-1.069,2.76-1.601c1.268-0.733,2.52-1.493,3.757-2.277c0.775-0.491,1.525-1.019,2.239-1.6
			c0.619-0.504,1.229-1.016,1.786-1.59c0.24-0.247,0.458-0.511,0.646-0.799C36.223,37.086,36.229,37.054,36.282,37.048z"/>
		<path fill="#FEFEFE" d="M28.548,39.288c0.053-0.472,0.106-0.939,0.158-1.405c0.005-0.045,0.008-0.078,0.066-0.095
			c0.778-0.234,1.391-0.727,1.971-1.268c0.824-0.769,1.526-1.645,2.183-2.557c0.257-0.357,0.502-0.723,0.749-1.087
			c0.104-0.152,0.264-0.24,0.394-0.362c0.127-0.119,0.257-0.236,0.391-0.347c0.259-0.214,0.392-0.496,0.464-0.815
			c0.007-0.03-0.017-0.157,0.092-0.077c0.342,0.252,0.707,0.35,1.127,0.148c-0.028,0.45-0.026,0.879-0.09,1.297
			c-0.064,0.413-0.313,0.755-0.559,1.086c-0.563,0.759-1.25,1.398-1.968,2.006c-1.526,1.292-3.197,2.376-4.89,3.431
			C28.609,39.26,28.578,39.273,28.548,39.288z"/>
		<path fill="#FEFEFE" d="M32.54,51.35c-0.462-0.003-0.907-0.071-1.294-0.352c-0.225-0.164-0.379-0.383-0.498-0.63
			c-0.033-0.068-0.016-0.1,0.049-0.133c0.169-0.084,0.334-0.175,0.5-0.265c0.046-0.025,0.083-0.043,0.117,0.022
			c0.284,0.537,0.776,0.639,1.32,0.617c0.159-0.007,0.317-0.04,0.463-0.112c0.211-0.104,0.343-0.263,0.351-0.508
			c0.008-0.246-0.128-0.398-0.334-0.499c-0.253-0.124-0.531-0.141-0.803-0.181c-0.307-0.045-0.606-0.114-0.891-0.245
			c-0.775-0.355-0.804-1.518-0.076-1.958c0.624-0.378,1.696-0.372,2.298,0.043c0.158,0.109,0.281,0.249,0.382,0.412
			c0.037,0.06,0.047,0.098-0.029,0.135c-0.157,0.076-0.311,0.155-0.463,0.24c-0.059,0.033-0.088,0.02-0.132-0.027
			c-0.359-0.381-0.954-0.511-1.443-0.319c-0.134,0.053-0.247,0.135-0.314,0.266c-0.115,0.226-0.037,0.46,0.198,0.575
			c0.298,0.146,0.627,0.152,0.946,0.205c0.394,0.066,0.775,0.161,1.092,0.429c0.492,0.415,0.56,1.58-0.262,2.022
			C33.346,51.286,32.952,51.353,32.54,51.35z"/>
		<path fill="#FEFEFE" d="M42.981,51.237c-0.262,0-0.528-0.002-0.793,0.001c-0.082,0.001-0.091-0.063-0.114-0.111
			c-0.459-0.932-0.917-1.864-1.375-2.797c-0.074-0.151-0.148-0.302-0.239-0.488c-0.094,0.249-0.178,0.466-0.258,0.683
			c-0.322,0.875-0.645,1.75-0.995,2.614c-0.019,0.046-0.024,0.1-0.102,0.099c-0.261-0.005-0.522-0.002-0.805-0.002
			c0.138-0.352,0.268-0.688,0.4-1.024c0.406-1.034,0.815-2.067,1.218-3.103c0.043-0.11,0.093-0.161,0.219-0.152
			c0.169,0.013,0.34,0.014,0.508,0c0.141-0.012,0.214,0.037,0.277,0.164c0.415,0.835,0.84,1.665,1.261,2.496
			c0.256,0.504,0.511,1.009,0.766,1.513C42.966,51.161,42.994,51.186,42.981,51.237z"/>
		<path fill="#AB9011" d="M31.854,39.737c-0.608,0.423-1.233,0.82-1.866,1.204c-0.675,0.409-1.358,0.804-2.038,1.205
			c-0.019,0.011-0.041,0.02-0.082,0.039c0.112-0.37,0.222-0.719,0.305-1.076c0.015-0.066,0.044-0.131,0.047-0.197
			c0.011-0.245,0.159-0.373,0.356-0.496c1.364-0.85,2.718-1.716,4.023-2.656c0.243-0.175,0.475-0.365,0.713-0.548
			c0.034,0.057-0.003,0.103-0.028,0.148c-0.412,0.735-0.823,1.471-1.289,2.175C31.95,39.604,31.889,39.661,31.854,39.737z"/>
		<path fill="#FEFEFE" d="M21.818,51.324c-0.497-0.001-0.962-0.101-1.346-0.443c-0.146-0.13-0.255-0.288-0.338-0.466
			c-0.032-0.07-0.032-0.109,0.044-0.147c0.112-0.056,0.216-0.166,0.329-0.175c0.131-0.01,0.147,0.171,0.229,0.257
			c0.356,0.372,0.795,0.498,1.293,0.465c0.263-0.018,0.517-0.072,0.744-0.219c0.241-0.157,0.355-0.382,0.342-0.663
			c-0.013-0.27-0.193-0.419-0.426-0.518c-0.306-0.131-0.634-0.167-0.957-0.224c-0.234-0.041-0.464-0.096-0.685-0.184
			c-0.611-0.243-0.816-0.959-0.434-1.505c0.183-0.262,0.443-0.419,0.74-0.509c0.508-0.154,1.022-0.164,1.531-0.008
			c0.308,0.095,0.54,0.292,0.71,0.567c0.041,0.066,0.034,0.103-0.035,0.133c-0.013,0.006-0.025,0.014-0.038,0.022
			c-0.087,0.052-0.172,0.138-0.263,0.145c-0.097,0.008-0.13-0.131-0.206-0.194c-0.302-0.248-0.656-0.321-1.032-0.313
			c-0.279,0.006-0.548,0.063-0.784,0.226c-0.135,0.094-0.234,0.215-0.273,0.38c-0.061,0.256,0.021,0.445,0.252,0.573
			c0.259,0.143,0.547,0.185,0.833,0.235c0.276,0.049,0.554,0.095,0.821,0.184c0.859,0.285,0.885,1.036,0.637,1.579
			c-0.198,0.433-0.588,0.621-1.024,0.733C22.264,51.31,22.041,51.322,21.818,51.324z"/>
		<path fill="#FEFEFE" d="M25.876,51.324c-0.502-0.001-0.971-0.103-1.362-0.444c-0.152-0.133-0.264-0.294-0.353-0.474
			c-0.032-0.065-0.029-0.101,0.041-0.136c0.112-0.057,0.214-0.169,0.327-0.177c0.127-0.01,0.148,0.168,0.231,0.253
			c0.366,0.374,0.814,0.505,1.322,0.468c0.258-0.019,0.507-0.073,0.728-0.22c0.231-0.153,0.335-0.373,0.323-0.642
			c-0.012-0.269-0.185-0.424-0.417-0.527c-0.314-0.139-0.652-0.175-0.984-0.234c-0.258-0.046-0.509-0.11-0.752-0.211
			c-0.811-0.338-0.681-1.346-0.201-1.715c0.25-0.192,0.53-0.3,0.834-0.348c0.481-0.075,0.957-0.063,1.407,0.151
			c0.229,0.109,0.399,0.284,0.534,0.497c0.035,0.056,0.028,0.085-0.027,0.112c-0.004,0.002-0.008,0.006-0.012,0.008
			c-0.095,0.058-0.185,0.147-0.287,0.165c-0.112,0.019-0.14-0.132-0.22-0.194c-0.311-0.241-0.667-0.321-1.049-0.31
			c-0.264,0.008-0.518,0.06-0.745,0.209c-0.203,0.133-0.312,0.319-0.302,0.56c0.01,0.253,0.188,0.38,0.399,0.467
			c0.284,0.117,0.589,0.151,0.888,0.207c0.262,0.049,0.522,0.1,0.771,0.199c0.696,0.275,0.797,0.924,0.591,1.476
			c-0.176,0.472-0.579,0.676-1.038,0.793C26.312,51.31,26.094,51.319,25.876,51.324z"/>
		<path fill="#FEFEFE" d="M17.648,47.872c-0.397-0.648-1.512-0.646-2.005-0.296c-0.105,0.075-0.189,0.167-0.244,0.283
			c-0.133,0.279-0.051,0.53,0.221,0.675c0.296,0.158,0.627,0.188,0.95,0.249c0.228,0.043,0.458,0.083,0.677,0.162
			c0.619,0.223,0.859,0.72,0.661,1.356c-0.096,0.31-0.278,0.56-0.561,0.712c-0.752,0.403-1.525,0.434-2.298,0.067
			c-0.285-0.135-0.474-0.375-0.6-0.665c-0.03-0.07-0.036-0.119,0.047-0.146c0.005-0.001,0.009-0.004,0.013-0.006
			c0.109-0.062,0.217-0.17,0.329-0.174c0.127-0.004,0.138,0.178,0.22,0.265c0.229,0.241,0.503,0.388,0.831,0.438
			c0.363,0.056,0.715,0.021,1.053-0.124c0.182-0.079,0.331-0.199,0.423-0.38c0.187-0.368,0.075-0.691-0.299-0.865
			c-0.307-0.142-0.641-0.177-0.969-0.235c-0.229-0.041-0.455-0.095-0.672-0.179c-0.489-0.191-0.699-0.61-0.564-1.126
			c0.127-0.488,0.479-0.751,0.93-0.892c0.501-0.156,1.011-0.167,1.517-0.014c0.311,0.094,0.54,0.291,0.704,0.57
			c0.04,0.069,0.027,0.099-0.037,0.134C17.863,47.743,17.756,47.809,17.648,47.872z"/>
		<path fill="#FEFEFE" d="M43.84,46.962c0.523,0,1.047,0.003,1.57-0.002c0.103-0.001,0.147,0.023,0.151,0.133
			c0.005,0.155,0.024,0.309,0.045,0.463c0.013,0.094-0.009,0.126-0.11,0.124c-0.359-0.006-0.717,0.002-1.076-0.005
			c-0.103-0.002-0.13,0.026-0.121,0.128c0.059,0.671,0.112,1.342,0.167,2.013c0.037,0.444,0.072,0.888,0.112,1.332
			c0.007,0.077-0.021,0.09-0.086,0.089c-0.204-0.002-0.407-0.006-0.611,0.001c-0.094,0.003-0.113-0.038-0.119-0.118
			c-0.031-0.445-0.065-0.889-0.098-1.333c-0.05-0.662-0.102-1.323-0.149-1.985c-0.007-0.097-0.04-0.13-0.14-0.128
			c-0.359,0.006-0.717-0.001-1.076,0.005c-0.094,0.001-0.125-0.026-0.126-0.121c-0.003-0.16-0.013-0.32-0.034-0.478
			c-0.014-0.105,0.024-0.121,0.117-0.12C42.784,46.964,43.312,46.962,43.84,46.962z"/>
		<path fill="#FEFEFE" d="M36.837,49.464c0.017,0.547,0.031,1.095,0.055,1.642c0.005,0.113-0.029,0.139-0.135,0.134
			c-0.179-0.009-0.359-0.008-0.538,0c-0.099,0.004-0.135-0.023-0.136-0.126c-0.005-0.373-0.019-0.746-0.029-1.119
			c-0.02-0.722-0.043-1.444-0.055-2.166c-0.002-0.135-0.049-0.156-0.168-0.153c-0.349,0.008-0.698,0-1.047,0.005
			c-0.088,0.001-0.119-0.02-0.117-0.112c0.004-0.165-0.002-0.33-0.011-0.494c-0.004-0.077,0.01-0.113,0.1-0.113
			c1.071,0.003,2.143,0.002,3.214,0c0.08,0,0.111,0.022,0.111,0.106c0,0.17,0.006,0.339,0.018,0.508
			c0.007,0.089-0.029,0.105-0.107,0.104c-0.364-0.003-0.727,0.003-1.091-0.004c-0.106-0.002-0.129,0.032-0.124,0.132
			C36.801,48.359,36.818,48.912,36.837,49.464z"/>
		<path fill="#FCD805" d="M31.854,39.737c-0.035-0.059,0.022-0.085,0.046-0.121c0.492-0.739,0.928-1.511,1.359-2.286
			c0.021-0.038,0.036-0.078,0.053-0.118c0.475-0.405,0.958-0.8,1.414-1.227c0.477-0.447,0.938-0.909,1.336-1.47
			c0.011,0.117,0.017,0.209,0.029,0.3c0.066,0.498,0.027,0.97-0.288,1.392c-0.171,0.229-0.334,0.463-0.524,0.676
			c-0.803,0.902-1.744,1.644-2.714,2.354C32.332,39.409,32.092,39.571,31.854,39.737z"/>
		<path fill="#AB9011" d="M38.053,57.496c-0.185,0.245-0.423,0.437-0.651,0.637c-0.911,0.8-1.921,1.45-3.006,1.987
			c-0.742,0.367-1.508,0.679-2.294,0.94c-0.059,0.019-0.11,0.02-0.168,0.001c-1.764-0.585-3.412-1.392-4.869-2.56
			c-0.535-0.429-1.027-0.904-1.448-1.449c0.078,0.026,0.139,0.074,0.19,0.136c0.053,0.102,0.162,0.149,0.231,0.235
			c0.243,0.192,0.469,0.403,0.714,0.593c1.006,0.781,2.1,1.401,3.302,1.828c0.595,0.211,1.2,0.378,1.821,0.491
			c0.092,0.017,0.182,0.018,0.274,0.001c1.04-0.191,2.032-0.523,2.985-0.982c0.913-0.44,1.745-1.002,2.521-1.65
			c0.096-0.08,0.188-0.167,0.291-0.239c0.036-0.018,0.062-0.073,0.115-0.036C38.068,57.453,38.059,57.475,38.053,57.496z"/>
		<path fill="#FCD805" d="M37.961,57.48c-0.797,0.728-1.677,1.339-2.64,1.827c-0.752,0.381-1.537,0.681-2.357,0.887
			c-0.136,0.034-0.275,0.057-0.408,0.099c-0.363,0.115-0.717,0.091-1.083,0.008c-1.396-0.318-2.695-0.861-3.894-1.644
			c-0.56-0.365-1.09-0.769-1.573-1.232c-0.004-0.028,0.004-0.042,0.035-0.033c0.458,0.357,0.937,0.684,1.446,0.965
			c1.163,0.642,2.396,1.101,3.684,1.418c0.183,0.045,0.37,0.073,0.552,0.121c0.345,0.089,0.673-0.012,1.001-0.088
			c1.546-0.36,3.01-0.925,4.364-1.763c0.293-0.181,0.566-0.389,0.841-0.594C37.96,57.439,37.966,57.453,37.961,57.48z"/>
		<path fill="#FCD604" d="M45.075,53.23c1.517,0,3.035,0,4.552,0.002c0.052,0,0.134-0.037,0.153,0.037
			c0.025,0.097,0.023,0.201,0.028,0.302c0,0.007-0.031,0.02-0.048,0.022c-0.034,0.004-0.068,0.002-0.102,0.002
			c-3.044,0-6.089,0-9.133-0.002c-0.052,0-0.131,0.036-0.152-0.039c-0.026-0.097-0.039-0.203-0.013-0.301
			c0.013-0.046,0.087-0.022,0.134-0.022c1.289-0.001,2.579-0.001,3.868-0.001C44.6,53.23,44.838,53.23,45.075,53.23z"/>
		<path fill="#FCD604" d="M18.781,53.595c-1.527,0-3.053,0.001-4.58-0.003c-0.055,0-0.156,0.057-0.156-0.08
			c0.001-0.227,0.027-0.281,0.16-0.281c3.058,0,6.117,0,9.175-0.002c0.1,0,0.144,0.023,0.126,0.128
			c-0.008,0.047-0.005,0.097-0.005,0.145c0,0.065-0.026,0.1-0.096,0.094c-0.034-0.003-0.068,0-0.102,0
			C21.795,53.595,20.288,53.595,18.781,53.595z"/>
		<path fill="#FDD704" d="M32.648,53.709c0-0.168,0-0.302,0-0.435c-0.001-0.334,0-0.669-0.006-1.003
			c-0.002-0.093,0.023-0.124,0.121-0.125c0.343-0.002,0.341-0.006,0.345,0.334c0.007,0.688,0.016,1.376,0.021,2.065
			c0,0.056,0.04,0.153-0.036,0.164c-0.1,0.014-0.22,0.061-0.307-0.057c-0.23-0.312-0.463-0.621-0.695-0.931
			c-0.176-0.236-0.351-0.473-0.529-0.712c-0.046,0.042-0.026,0.088-0.026,0.127c-0.002,0.485-0.005,0.97-0.001,1.454
			c0.001,0.099-0.023,0.132-0.128,0.132c-0.339-0.002-0.34,0.003-0.339-0.338c0.002-0.693,0.006-1.386,0.004-2.08
			c0-0.114,0.021-0.154,0.148-0.161c0.176-0.01,0.279,0.053,0.38,0.193c0.303,0.42,0.622,0.829,0.935,1.241
			C32.562,53.613,32.594,53.647,32.648,53.709z"/>
		<path fill="#FDD704" d="M38.227,54.782c-0.463-0.001-0.816-0.096-1.052-0.448c-0.118-0.176-0.118-0.176,0.059-0.276
			c0.025-0.014,0.053-0.025,0.076-0.043c0.092-0.07,0.145-0.065,0.22,0.045c0.193,0.285,0.718,0.379,1.015,0.202
			c0.113-0.067,0.177-0.162,0.174-0.297c-0.003-0.137-0.08-0.229-0.193-0.285c-0.113-0.056-0.235-0.087-0.362-0.099
			c-0.218-0.02-0.432-0.063-0.631-0.158c-0.263-0.125-0.385-0.338-0.391-0.627c-0.006-0.283,0.123-0.479,0.368-0.609
			c0.385-0.204,1.012-0.15,1.321,0.118c0.08,0.07,0.203,0.157,0.18,0.246c-0.027,0.103-0.185,0.121-0.282,0.183
			c-0.048,0.031-0.075-0.015-0.108-0.044c-0.242-0.217-0.519-0.266-0.823-0.16c-0.128,0.044-0.201,0.139-0.203,0.272
			c-0.002,0.132,0.081,0.209,0.2,0.256c0.137,0.053,0.281,0.071,0.425,0.089c0.154,0.02,0.305,0.053,0.451,0.106
			c0.347,0.127,0.526,0.404,0.511,0.791c-0.012,0.322-0.228,0.578-0.563,0.677C38.469,54.767,38.316,54.785,38.227,54.782z"/>
		<path fill="#FDD704" d="M25.455,52.149c0.155,0,0.31-0.003,0.465,0.001c0.609,0.014,0.989,0.532,0.824,1.121
			c-0.119,0.427-0.444,0.677-0.897,0.687c-0.199,0.004-0.397,0.005-0.596-0.001c-0.09-0.003-0.115,0.028-0.116,0.116
			c-0.001,0.174-0.015,0.348-0.023,0.523c-0.001,0.024,0.008,0.058-0.005,0.071c-0.114,0.12-0.26,0.026-0.39,0.051
			c-0.085,0.017-0.075-0.05-0.073-0.103c0.037-0.789,0.076-1.578,0.111-2.366c0.003-0.075,0.029-0.101,0.103-0.099
			C25.058,52.151,25.256,52.149,25.455,52.149C25.455,52.149,25.455,52.149,25.455,52.149z"/>
		<path fill="#FDD704" d="M34.704,53.19c0.24-0.284,0.485-0.564,0.717-0.855c0.107-0.134,0.219-0.216,0.4-0.189
			c0.099,0.015,0.201,0.003,0.341,0.003c-0.167,0.195-0.312,0.365-0.458,0.534c-0.174,0.201-0.347,0.404-0.526,0.601
			c-0.064,0.071-0.068,0.114,0.003,0.189c0.351,0.367,0.694,0.743,1.041,1.114c0.032,0.034,0.07,0.063,0.089,0.13
			c-0.185,0-0.357-0.001-0.529,0c-0.065,0-0.089-0.053-0.123-0.091c-0.289-0.313-0.577-0.627-0.865-0.941
			c-0.028-0.03-0.061-0.056-0.09-0.083c0,0.335-0.005,0.662,0.003,0.989c0.002,0.105-0.03,0.128-0.13,0.128
			c-0.338-0.002-0.337,0.002-0.342-0.34c-0.01-0.693-0.018-1.386-0.034-2.078c-0.003-0.115,0.017-0.161,0.145-0.158
			c0.304,0.008,0.308,0.001,0.316,0.31c0.007,0.241,0.001,0.482,0.001,0.724C34.676,53.183,34.69,53.187,34.704,53.19z"/>
		<path fill="#FDD704" d="M29.924,52.998c-0.025,0.29,0.005,0.581-0.041,0.871c-0.094,0.588-0.508,0.924-1.122,0.905
			c-0.562-0.017-0.968-0.392-1.006-0.964c-0.034-0.527,0.029-1.055,0.026-1.583c0-0.047,0.013-0.075,0.065-0.07
			c0.014,0.001,0.029,0,0.044,0c0.362-0.009,0.358-0.009,0.344,0.352c-0.014,0.378-0.02,0.756-0.026,1.133
			c-0.002,0.147,0.019,0.291,0.098,0.419c0.135,0.217,0.372,0.309,0.675,0.25c0.241-0.046,0.376-0.211,0.43-0.44
			c0.067-0.286,0.032-0.579,0.046-0.869c0.012-0.247,0.011-0.494,0.009-0.741c-0.001-0.083,0.024-0.105,0.106-0.106
			c0.358-0.007,0.357-0.01,0.352,0.351C29.922,52.668,29.924,52.833,29.924,52.998z"/>
		<path fill="#FEFEFE" d="M47.985,51.237c-0.484,0-0.969-0.002-1.453,0.002c-0.091,0.001-0.127-0.021-0.133-0.118
			c-0.011-0.198-0.035-0.395-0.058-0.592c-0.009-0.077,0.015-0.1,0.093-0.1c0.978,0.002,1.957,0.002,2.935,0
			c0.07,0,0.092,0.025,0.099,0.09c0.021,0.197,0.043,0.394,0.072,0.591c0.015,0.1-0.01,0.132-0.117,0.131
			C48.944,51.234,48.464,51.237,47.985,51.237z"/>
		<path fill="#FEFEFE" d="M47.692,48.701c0.475,0,0.95,0.002,1.424-0.002c0.089-0.001,0.129,0.018,0.134,0.116
			c0.01,0.179,0.034,0.357,0.057,0.534c0.009,0.071,0.003,0.103-0.083,0.103c-0.964-0.003-1.928-0.003-2.892,0
			c-0.072,0-0.09-0.028-0.095-0.091c-0.017-0.198-0.036-0.395-0.059-0.592c-0.012-0.102,0.062-0.066,0.104-0.067
			c0.373-0.003,0.746-0.001,1.119-0.001C47.499,48.701,47.595,48.701,47.692,48.701z"/>
		<path fill="#FEFEFE" d="M47.621,47.72c-0.47,0-0.94-0.002-1.41,0.002c-0.095,0.001-0.137-0.017-0.14-0.123
			c-0.006-0.174-0.028-0.347-0.049-0.52c-0.01-0.085,0.006-0.119,0.104-0.119c0.94,0.004,1.88,0.003,2.82,0
			c0.092,0,0.127,0.025,0.133,0.12c0.011,0.174,0.03,0.348,0.06,0.519c0.018,0.103-0.012,0.123-0.108,0.122
			C48.561,47.718,48.091,47.72,47.621,47.72z"/>
		<path fill="#FEFEFE" d="M18.955,51.237c-0.267,0-0.263,0-0.24-0.269c0.077-0.892,0.152-1.785,0.228-2.677
			c0.035-0.41,0.076-0.82,0.109-1.23c0.006-0.067,0.024-0.094,0.093-0.091c0.111,0.005,0.223,0.005,0.334,0
			c0.08-0.004,0.098,0.025,0.091,0.101c-0.052,0.579-0.101,1.158-0.149,1.737c-0.063,0.748-0.13,1.496-0.182,2.245
			c-0.01,0.15-0.049,0.209-0.198,0.184C19.014,51.233,18.984,51.237,18.955,51.237z"/>
		<path fill="#FEFEFE" d="M28.998,49.101c0,0.668-0.003,1.336,0.002,2.004c0.001,0.112-0.036,0.144-0.142,0.134
			c-0.091-0.009-0.184-0.009-0.276,0c-0.106,0.01-0.128-0.032-0.125-0.131c0.025-0.871,0.046-1.742,0.067-2.614
			c0.012-0.465,0.026-0.929,0.032-1.394c0.001-0.096,0.02-0.142,0.127-0.13c0.124,0.014,0.287-0.051,0.363,0.025
			c0.076,0.077,0.018,0.238,0.019,0.363c0.002,0.581,0.001,1.162,0.001,1.743C29.044,49.101,29.021,49.101,28.998,49.101z"/>
		<path fill="#AB9011" d="M38.451,28.068c0.087,0.038,0.1-0.051,0.133-0.088c0.223-0.247,0.44-0.499,0.659-0.75
			c0.026-0.007,0.039,0.001,0.03,0.03c-0.232,0.4-0.469,0.798-0.696,1.202c-0.463,0.826-0.908,1.661-1.248,2.547
			c-0.016,0.042-0.07,0.092-0.011,0.144c-0.012,0.031-0.022,0.064-0.037,0.094c-0.034,0.069-0.071,0.136-0.117,0.222
			c-0.031-0.127,0.004-0.232,0.011-0.337c0.019-0.303,0.057-0.605,0.082-0.908c0.016-0.195,0.13-0.329,0.222-0.479
			c0.314-0.516,0.628-1.031,0.901-1.57C38.4,28.137,38.427,28.104,38.451,28.068z"/>
		<path fill="#FEFEFE" d="M26.53,32.892c-0.512,0.054-0.933,0.316-1.412,0.365c-0.111,0.011-0.221,0.026-0.331,0.039
			c-0.39,0.045-0.602-0.09-0.742-0.482c0.425-0.077,0.847-0.153,1.269-0.23c0.048-0.009,0.096-0.015,0.142-0.027
			c0.285-0.073,0.549-0.067,0.777,0.159C26.303,32.785,26.405,32.82,26.53,32.892z"/>
		<path fill="#BDA215" d="M38.053,57.496c-0.001-0.024-0.002-0.048-0.003-0.073c-0.006-0.051,0.048-0.074,0.054-0.119
			c0.088-0.077,0.177-0.154,0.265-0.232c0.028-0.007,0.042,0.001,0.032,0.032C38.293,57.242,38.185,57.38,38.053,57.496z"/>
		<path fill="#DABB0F" d="M26.042,57.391c-0.012,0.011-0.023,0.022-0.035,0.033c-0.072-0.074-0.185-0.113-0.2-0.235
			C25.887,57.253,25.975,57.31,26.042,57.391z"/>
		<path fill="#D8B90F" d="M38.104,57.304c0.026,0.06-0.029,0.083-0.054,0.119c-0.03,0.019-0.059,0.037-0.089,0.056
			c-0.01-0.01-0.021-0.02-0.031-0.03C37.988,57.401,38.046,57.353,38.104,57.304z"/>
		<path fill="#463F20" d="M24.584,11.087c-0.03,0.064-0.07,0.121-0.148,0.186c0.025-0.103,0.068-0.162,0.112-0.221
			C24.56,11.063,24.572,11.075,24.584,11.087z"/>
		<path fill="#413B20" d="M25.626,14.457c0.033-0.047,0.033-0.113,0.085-0.149c0.012,0.012,0.025,0.025,0.037,0.037
			c-0.006,0.063-0.067,0.091-0.091,0.142C25.63,14.495,25.617,14.487,25.626,14.457z"/>
		<path fill="#685C28" d="M39.185,44.652c-0.053-0.059-0.057-0.138-0.083-0.208c0.017-0.015,0.002-0.046,0.028-0.056
			C39.171,44.472,39.19,44.56,39.185,44.652L39.185,44.652z"/>
		<path fill="#B89F1E" d="M39.13,44.389c-0.009,0.019-0.019,0.037-0.028,0.056c-0.02-0.076-0.039-0.152-0.059-0.228
			c0.01,0,0.02,0,0.03-0.001C39.093,44.274,39.111,44.331,39.13,44.389z"/>
		<path fill="#665B24" d="M40.148,26.505c-0.029,0.051-0.07,0.088-0.141,0.099c0.036-0.044,0.071-0.089,0.107-0.133
			C40.125,26.482,40.136,26.493,40.148,26.505z"/>
		<path fill="#917E24" d="M22.26,45.183c0.009,0.008,0.018,0.017,0.027,0.025c-0.046,0.041-0.099,0.067-0.194,0.093
			C22.157,45.232,22.205,45.203,22.26,45.183z"/>
		<path fill="#3A3627" d="M39.184,44.653c0.045,0.04,0.068,0.086,0.049,0.152C39.175,44.763,39.186,44.706,39.184,44.653
			C39.185,44.652,39.184,44.653,39.184,44.653z"/>
		<path fill="#585756" d="M35.202,29.994c0-0.043,0.014-0.08,0.047-0.115c0.025,0.056,0.011,0.101-0.018,0.144
			C35.221,30.014,35.211,30.004,35.202,29.994z"/>
		<path fill="#A9931E" d="M34.447,7.069c-0.031,0.01-0.028,0.038-0.033,0.062c-0.03-0.027-0.045-0.062-0.056-0.105
			C34.405,7.008,34.426,7.036,34.447,7.069z"/>
		<path fill="#96821B" d="M16.265,44.681c0.01-0.01,0.02-0.021,0.031-0.031c0.022,0.04,0.043,0.08,0.065,0.12
			c-0.013,0.012-0.026,0.012-0.038-0.001C16.303,44.74,16.284,44.71,16.265,44.681z"/>
		<path fill="#8F7C1E" d="M47.734,44.68c0.002,0.014,0.003,0.029,0.005,0.044c0,0.032-0.017,0.051-0.048,0.061
			C47.673,44.736,47.706,44.708,47.734,44.68z"/>
		<path fill="#645826" d="M16.323,44.769c0.013,0,0.025,0.001,0.038,0.001c0.023,0.015,0.054,0.051,0.035,0.059
			C16.354,44.848,16.343,44.796,16.323,44.769z"/>
		<path fill="#817125" d="M38.401,57.105c-0.011-0.011-0.021-0.021-0.032-0.032c0.017-0.029,0.035-0.057,0.078-0.049
			C38.448,57.061,38.429,57.085,38.401,57.105z"/>
		<path fill="#1E1E1D" d="M27.623,25.647c-0.249,0.047-0.457,0.136-0.674,0.196c-0.079,0.022-0.16,0.042-0.234,0.077
			c-0.108,0.051-0.162,0.02-0.211-0.085c-0.121-0.253-0.239-0.506-0.334-0.79c0.105,0.012,0.197,0.03,0.289,0.032
			c0.221,0.005,0.427-0.075,0.636-0.133c0.894-0.251,1.781-0.522,2.681-0.751c0.43-0.11,0.838-0.093,1.252,0.053
			c0.673,0.236,1.291,0.566,1.844,1.018c0.021,0.017,0.054,0.027,0.05,0.077c-0.238-0.059-0.475-0.119-0.711-0.175
			c-0.48-0.115-0.963-0.22-1.457-0.246c-0.367-0.02-0.72,0.07-1.074,0.149c-0.136,0.03-0.271,0.064-0.425,0.101
			c0.084,0.065,0.169,0.053,0.244,0.07c0.312,0.069,0.585,0.221,0.86,0.376c0.384,0.216,0.773,0.425,1.234,0.419
			c0.023,0,0.056-0.002,0.056,0.029c0,0.02-0.019,0.042-0.035,0.059c-0.133,0.137-0.29,0.24-0.455,0.333
			c-0.442,0.248-0.883,0.498-1.353,0.695c-0.6,0.251-1.204,0.259-1.82,0.091c-0.364-0.099-0.722-0.214-1.072-0.355
			c-0.079-0.032-0.088-0.059-0.05-0.133C27.066,26.36,27.311,25.998,27.623,25.647z"/>
		<path fill="#1E1E1D" d="M35.823,27.548c0.392-0.423,0.794-0.834,1.341-1.06c0.277-0.114,0.551-0.144,0.894-0.089
			c-0.18,0.074-0.327,0.137-0.476,0.195c-0.066,0.025-0.09,0.058-0.092,0.136c-0.01,0.279-0.116,0.536-0.21,0.795
			c-0.246,0.676-0.609,1.29-1.007,1.885c-0.026,0.005-0.042,0.001-0.029-0.03c0.266-0.575,0.531-1.149,0.71-1.759
			c0.063-0.214,0.118-0.429,0.131-0.652c0.006-0.104-0.012-0.142-0.126-0.082c-0.377,0.199-0.737,0.422-1.086,0.667
			C35.856,27.563,35.839,27.561,35.823,27.548z"/>
		<path fill="#595858" d="M36.245,29.379c0.01,0.01,0.019,0.02,0.029,0.03c-0.015,0.063-0.059,0.103-0.106,0.143
			C36.172,29.484,36.202,29.429,36.245,29.379z"/>
		<path fill="#5F5E5D" d="M35.823,27.548c0.017,0.002,0.034,0.004,0.051,0.005c-0.033,0.03-0.065,0.06-0.103,0.095
			C35.749,27.583,35.794,27.57,35.823,27.548z"/>
		<path fill="#BFA20F" d="M31.098,13.732c0.012-0.078,0.024-0.156,0.037-0.234c0.009,0.149,0.052,0.296-0.006,0.439
			C31.114,13.87,31.155,13.794,31.098,13.732z"/>
		<path fill="#C3A50E" d="M37.202,13.009c-0.061-0.045-0.079-0.115-0.126-0.212c0.094,0.058,0.12,0.125,0.158,0.18
			C37.224,12.988,37.213,12.999,37.202,13.009z"/>
		<path fill="#D3B40C" d="M38.721,16.639c0.01-0.009,0.021-0.019,0.031-0.028c0.032,0.067,0.072,0.131,0.06,0.215
			C38.782,16.764,38.751,16.701,38.721,16.639z"/>
		<path fill="#DCBC0B" d="M39.762,23.853c0.011,0.01,0.021,0.02,0.032,0.03c-0.029,0.046-0.058,0.091-0.087,0.137
			C39.698,23.95,39.725,23.899,39.762,23.853z"/>
		<path fill="#D7B80B" d="M30.395,16.785c0.011,0.01,0.022,0.02,0.033,0.03c-0.03,0.036-0.06,0.072-0.089,0.107
			C30.329,16.859,30.349,16.815,30.395,16.785z"/>
		<path fill="#6A5D20" d="M25.626,14.457c0.01,0.01,0.021,0.02,0.031,0.03c-0.019,0.026-0.038,0.051-0.067,0.09
			C25.57,14.514,25.603,14.487,25.626,14.457z"/>
		<path fill="#C8A90D" d="M39.274,27.26c-0.01-0.01-0.02-0.02-0.03-0.03c0.029-0.035,0.057-0.071,0.106-0.131
			C39.346,27.189,39.321,27.23,39.274,27.26z"/>
		<path fill="#1E1E1D" d="M25.576,53.505c-0.092,0-0.185-0.006-0.276,0.002c-0.103,0.009-0.148-0.015-0.138-0.132
			c0.019-0.226,0.025-0.454,0.032-0.682c0.002-0.068,0.024-0.094,0.094-0.093c0.213,0.003,0.426-0.006,0.639,0.005
			c0.232,0.011,0.387,0.185,0.395,0.421c0.009,0.236-0.159,0.449-0.384,0.471c-0.12,0.012-0.242,0.002-0.363,0.002
			C25.576,53.501,25.576,53.503,25.576,53.505z"/>
	</g>
</g>
</svg>
