<?xml version="1.0" encoding="utf-8"?>
<!-- Generator: Adobe Illustrator 23.0.2, SVG Export Plug-In . SVG Version: 6.00 Build 0)  -->
<svg version="1.1" id="Layer_1" xmlns="http://www.w3.org/2000/svg" xmlns:xlink="http://www.w3.org/1999/xlink" x="0px" y="0px"
	 width="64px" height="64px" viewBox="0 0 64 64" enable-background="new 0 0 64 64" xml:space="preserve">
<g>
	<path fill="#FFFFFF" d="M29.967,13.134c4.817,0,7.945,2.992,7.945,2.992s0.24,1.988,0.496,4.557l2.072,2.872
		c3.294-1.761,5.216-2.688,9.255-5.154c0,0,0,0,0,0c-0.004,0.284-0.012,0.568-0.025,0.85c-0.004,0.077-0.01,0.153-0.014,0.229
		c-0.011,0.205-0.022,0.41-0.038,0.614c-0.008,0.098-0.019,0.195-0.027,0.293c-0.016,0.182-0.031,0.363-0.051,0.544
		c-0.012,0.11-0.028,0.219-0.041,0.328c-0.02,0.168-0.039,0.336-0.063,0.503c-0.017,0.12-0.037,0.238-0.056,0.357
		c-0.024,0.156-0.046,0.312-0.073,0.466c-0.021,0.125-0.046,0.249-0.069,0.373c-0.027,0.148-0.053,0.296-0.083,0.444
		c-0.025,0.125-0.054,0.249-0.08,0.373c-0.031,0.146-0.061,0.292-0.094,0.436c-0.029,0.127-0.062,0.252-0.093,0.379
		c-0.034,0.141-0.067,0.283-0.104,0.423c-0.034,0.129-0.07,0.257-0.105,0.386c-0.011,0.041-0.022,0.082-0.033,0.122l6.176-0.001
		c1.376,0,2.59,0.079,3.507,1.056c0.954,1.016,0.939,2.399,0.917,4.492l-0.006,0.6l-0.028,1.93l-0.022,1.743l-2.551-2.684
		l-0.186,0.255l-0.839,1.148l6.276,7.097l0.972,1.099h-1.467H39.128c-0.047,0.054-0.094,0.108-0.141,0.162
		c-0.011,0.012-0.021,0.025-0.032,0.037c-0.145,0.165-0.289,0.328-0.433,0.489c-0.006,0.007-0.013,0.014-0.019,0.021
		c-0.149,0.166-0.297,0.33-0.445,0.491c-0.001,0.002-0.003,0.003-0.004,0.005c-3.73,4.07-7.095,6.666-7.859,7.191
		c-0.004,0.003-0.009,0.006-0.013,0.009c-0.022,0.015-0.039,0.026-0.056,0.038c-0.007,0.005-0.015,0.01-0.021,0.014
		c-0.012,0.008-0.021,0.013-0.03,0.018c-0.007,0.004-0.015,0.009-0.02,0.012c-0.006,0.003-0.008,0.004-0.012,0.005
		c-0.003,0.001-0.008,0.004-0.01,0.004c-0.001,0-0.001,0-0.001,0c0,0-0.001,0-0.001,0c-0.001,0-0.007-0.003-0.01-0.004
		c-0.004-0.001-0.006-0.002-0.012-0.005c-0.006-0.003-0.016-0.01-0.025-0.015c-0.007-0.004-0.013-0.008-0.022-0.014
		c-0.013-0.008-0.029-0.019-0.045-0.03c-0.009-0.006-0.017-0.011-0.028-0.018c-0.021-0.014-0.045-0.031-0.07-0.049
		c-0.01-0.007-0.018-0.012-0.028-0.019c-0.03-0.021-0.063-0.045-0.097-0.07c-0.009-0.006-0.016-0.011-0.025-0.018
		c-0.039-0.028-0.081-0.059-0.125-0.092c-0.007-0.005-0.014-0.01-0.021-0.016c-0.048-0.036-0.1-0.075-0.154-0.116
		c-0.005-0.004-0.009-0.007-0.014-0.011c-0.058-0.044-0.119-0.091-0.183-0.14c-0.003-0.002-0.005-0.004-0.008-0.006
		c-0.067-0.051-0.136-0.106-0.21-0.163c-0.001-0.001-0.002-0.001-0.002-0.002c-0.074-0.058-0.151-0.119-0.231-0.183
		c-0.001-0.001-0.002-0.001-0.002-0.002c-0.161-0.128-0.334-0.269-0.519-0.421c-0.002-0.001-0.003-0.003-0.005-0.004
		c-0.091-0.075-0.185-0.153-0.282-0.234c-0.002-0.002-0.005-0.004-0.007-0.006c-0.098-0.082-0.199-0.167-0.302-0.254
		c-0.001-0.001-0.002-0.002-0.003-0.003c-0.103-0.088-0.209-0.178-0.317-0.271c-0.002-0.001-0.003-0.003-0.005-0.004
		c-0.104-0.09-0.211-0.183-0.32-0.278c-0.006-0.005-0.012-0.011-0.018-0.016c-0.107-0.094-0.217-0.191-0.328-0.29
		c-0.008-0.007-0.015-0.014-0.023-0.021c-0.111-0.099-0.224-0.2-0.338-0.304c-0.009-0.008-0.017-0.015-0.026-0.023
		c-0.112-0.102-0.226-0.206-0.342-0.312c-0.012-0.011-0.024-0.021-0.035-0.032c-0.113-0.104-0.228-0.211-0.344-0.319
		c-0.015-0.014-0.03-0.028-0.045-0.042c-0.114-0.107-0.23-0.216-0.347-0.327c-0.018-0.017-0.035-0.033-0.052-0.05
		c-0.116-0.11-0.233-0.223-0.351-0.337c-0.019-0.019-0.038-0.036-0.057-0.055c-0.117-0.113-0.235-0.229-0.354-0.346
		c-0.021-0.021-0.043-0.042-0.064-0.063c-0.117-0.115-0.235-0.233-0.354-0.352c-0.024-0.024-0.048-0.047-0.072-0.072
		c-0.116-0.116-0.232-0.235-0.35-0.355c-0.028-0.029-0.056-0.056-0.084-0.085c-0.116-0.118-0.232-0.239-0.349-0.361
		c-0.03-0.031-0.06-0.062-0.09-0.093c-0.117-0.122-0.235-0.247-0.353-0.373c-0.03-0.032-0.06-0.063-0.091-0.096
		c-0.115-0.123-0.231-0.248-0.347-0.373c-0.034-0.037-0.069-0.074-0.103-0.111c-0.113-0.123-0.227-0.249-0.34-0.374
		c-0.037-0.041-0.075-0.082-0.112-0.124c-0.111-0.124-0.223-0.25-0.335-0.377c-0.04-0.045-0.08-0.09-0.12-0.135
		c-0.066-0.076-0.133-0.153-0.199-0.229c-7.093,0.001-16.132,0.002-17.176,0.006h-0.01c-0.051,0-0.121,0-0.136,0.003
		c-0.002,0.001-0.06,0.026-0.206,0.18l-0.343,0.361l-1.42,1.495l-1.136,1.196l-0.004-1.65l-0.005-2.062L0.497,41.29
		c-0.006-2.407-0.008-3.506,0.375-4.367c0.677-1.522,2.116-1.529,3.167-1.535c0.386-0.002,0.79-0.003,1.197-0.004
		c-0.81-0.619-1.584-1.188-2.313-1.703l-0.12-0.085c-1.379-0.971-2.138-1.507-2.237-3.086c-0.057-0.909-0.073-1.526-0.052-2.062
		c0.082-2.141,1.828-2.918,2.982-2.918h0.333l7.55,0c-0.014-0.05-0.027-0.1-0.041-0.15c-0.033-0.122-0.068-0.244-0.1-0.367
		c-0.037-0.144-0.071-0.289-0.106-0.434c-0.03-0.123-0.062-0.245-0.09-0.368c-0.034-0.146-0.064-0.294-0.095-0.441
		c-0.026-0.123-0.055-0.245-0.079-0.369c-0.03-0.148-0.056-0.297-0.083-0.446c-0.023-0.124-0.048-0.247-0.069-0.371
		c-0.026-0.153-0.048-0.307-0.072-0.461c-0.019-0.121-0.039-0.242-0.056-0.363c-0.023-0.16-0.041-0.322-0.06-0.483
		c-0.014-0.116-0.031-0.231-0.043-0.347c-0.019-0.17-0.033-0.342-0.048-0.513c-0.01-0.108-0.022-0.216-0.03-0.324
		c-0.015-0.194-0.025-0.389-0.036-0.585c-0.005-0.086-0.012-0.172-0.016-0.259c-0.013-0.282-0.022-0.565-0.025-0.85
		c3.913,2.218,7.47,4.173,9.419,5.237l1.828-2.039c0.178-1.835,0.332-3.213,0.436-4.09l0.139-1.383
		C22.149,16.126,25.15,13.134,29.967,13.134 M29.967,12.638c-4.965,0-8.039,3.009-8.168,3.137L21.674,15.9l-0.018,0.176
		l-0.138,1.379c-0.096,0.814-0.246,2.149-0.421,3.934l-1.458,1.626c-1.901-1.039-5.332-2.928-9.068-5.045l-0.752-0.426l0.012,0.864
		c0.004,0.286,0.013,0.578,0.026,0.866c0.002,0.053,0.006,0.106,0.01,0.159c0.002,0.035,0.005,0.069,0.007,0.104l0.004,0.07
		c0.01,0.172,0.019,0.349,0.033,0.526c0.005,0.069,0.012,0.138,0.019,0.207c0.004,0.041,0.008,0.082,0.012,0.123l0.011,0.119
		c0.012,0.135,0.024,0.269,0.039,0.403c0.008,0.076,0.018,0.151,0.028,0.226c0.006,0.042,0.011,0.085,0.016,0.127l0.015,0.126
		c0.015,0.122,0.029,0.244,0.046,0.365c0.011,0.08,0.024,0.16,0.037,0.24c0.007,0.043,0.014,0.086,0.02,0.129l0.02,0.129
		c0.017,0.113,0.034,0.227,0.054,0.34c0.014,0.083,0.03,0.166,0.046,0.249l0.024,0.129l0.024,0.13
		c0.02,0.108,0.039,0.216,0.061,0.324c0.017,0.082,0.035,0.164,0.053,0.246l0.028,0.129l0.027,0.128
		c0.023,0.107,0.045,0.214,0.07,0.32c0.019,0.083,0.04,0.165,0.06,0.247l0.031,0.127l0.031,0.127c0.017,0.07,0.034,0.14,0.051,0.21
		l-6.903,0H3.496c-0.778,0-1.579,0.277-2.198,0.761c-0.554,0.433-1.226,1.241-1.279,2.633c-0.021,0.554-0.006,1.185,0.053,2.112
		c0.114,1.816,1.042,2.47,2.446,3.46l0.12,0.085c0.361,0.255,0.736,0.525,1.12,0.808c-1.061,0.017-2.6,0.164-3.339,1.826
		c-0.426,0.958-0.424,2.09-0.418,4.569l0.001,0.498l0.005,2.062l0.004,1.65l0.003,1.237l0.852-0.897l1.136-1.196l1.42-1.495
		l0.343-0.361c0.01-0.011,0.02-0.021,0.029-0.03c1.18-0.003,9.772-0.005,16.914-0.006c0.018,0.02,0.035,0.04,0.053,0.06
		c0,0,0.346,0.391,0.459,0.516c0,0,0.342,0.378,0.456,0.502c0,0,0.337,0.365,0.453,0.488l0.052,0.055l0.039,0.041
		c0.119,0.126,0.446,0.469,0.446,0.469c0.118,0.122,0.4,0.413,0.4,0.413l0.036,0.037c0.118,0.121,0.236,0.24,0.352,0.358
		l0.041,0.041l0.032,0.031c0.12,0.12,0.239,0.239,0.357,0.355l0.037,0.036l0.028,0.027c0.12,0.118,0.239,0.234,0.356,0.348
		l0.032,0.031l0.026,0.025c0.119,0.115,0.237,0.229,0.354,0.34l0.031,0.029l0.022,0.021c0.118,0.112,0.234,0.222,0.349,0.33
		l0.026,0.024l0.019,0.018c0.117,0.109,0.232,0.217,0.346,0.321l0.021,0.019l0.015,0.014c0.116,0.107,0.231,0.212,0.344,0.314
		l0.015,0.014l0.011,0.01c0.115,0.104,0.229,0.207,0.341,0.306l0.013,0.012l0.01,0.009c0.112,0.1,0.223,0.197,0.331,0.292
		l0.011,0.01l0.007,0.006c0.11,0.096,0.218,0.19,0.323,0.281c0.114,0.098,0.221,0.19,0.325,0.278
		c0.107,0.091,0.209,0.177,0.308,0.26l0.007,0.006c0.098,0.082,0.193,0.16,0.285,0.236c0.192,0.158,0.367,0.3,0.53,0.43
		c0.084,0.067,0.162,0.129,0.236,0.187c0.077,0.06,0.148,0.116,0.215,0.168l0.008,0.006c0.065,0.05,0.128,0.098,0.186,0.143
		l0.009,0.007c0.061,0.046,0.114,0.086,0.163,0.123l0.013,0.01l0.008,0.006c0.046,0.034,0.089,0.066,0.129,0.095l0.017,0.012
		l0.009,0.006c0.036,0.026,0.071,0.051,0.102,0.073l0.02,0.014l0.009,0.006c0.027,0.019,0.053,0.037,0.076,0.053l0.024,0.016
		l0.007,0.005c0.023,0.016,0.14,0.102,0.203,0.142c0.077,0.049,0.108,0.075,0.188,0.121c0.108-0.067,0.405-0.273,0.43-0.29
		l0.011-0.008c0.903-0.62,4.293-3.28,7.947-7.267l0.001-0.001l0.005-0.005c0.148-0.161,0.297-0.326,0.448-0.494l0.012-0.013
		l0.007-0.008c0.146-0.162,0.291-0.326,0.437-0.493l0.018-0.021l0.007-0.009h22.079H62.9H64l-0.729-0.824L62.3,40.831l-6.012-6.798
		l0.44-0.601l2.142,2.254l0.84,0.884l0.015-1.219l0.022-1.743l0.028-1.93l0.006-0.602c0.023-2.134,0.039-3.675-1.051-4.837
		c-1.051-1.119-2.429-1.212-3.868-1.212l-5.529,0.001c0.016-0.063,0.031-0.127,0.046-0.19l0.031-0.129l0.031-0.127
		c0.021-0.086,0.043-0.172,0.063-0.258c0.024-0.104,0.046-0.209,0.068-0.314l0.027-0.129l0.028-0.129
		c0.018-0.083,0.037-0.167,0.053-0.251c0.021-0.106,0.041-0.213,0.06-0.32l0.024-0.131l0.024-0.13
		c0.016-0.083,0.032-0.166,0.046-0.25c0.02-0.115,0.037-0.231,0.055-0.347l0.019-0.127c0.007-0.042,0.013-0.085,0.02-0.127
		c0.013-0.079,0.025-0.157,0.036-0.236c0.018-0.13,0.034-0.262,0.05-0.393l0.014-0.119c0.005-0.041,0.01-0.083,0.016-0.124
		c0.009-0.07,0.018-0.14,0.026-0.21c0.017-0.151,0.03-0.303,0.043-0.454l0.009-0.1c0.003-0.038,0.007-0.077,0.011-0.115
		c0.006-0.061,0.012-0.122,0.017-0.184c0.016-0.2,0.027-0.402,0.037-0.597l0.002-0.029c0.002-0.031,0.004-0.063,0.006-0.094
		c0.003-0.047,0.006-0.093,0.008-0.14c0.013-0.289,0.022-0.58,0.026-0.866l0.012-0.898l-0.766,0.468
		c-3.193,1.949-5.021,2.914-7.335,4.135c-0.483,0.255-0.98,0.517-1.513,0.801l-1.74-2.413c-0.249-2.481-0.482-4.415-0.484-4.434
		l-0.021-0.176l-0.128-0.123C38.121,15.64,34.926,12.638,29.967,12.638L29.967,12.638z"/>
	<path fill="#003699" d="M61.928,41.159l-6.276-7.097l0.839-1.148l0.186-0.255l2.551,2.684l0.022-1.743l0.028-1.93l0.006-0.6
		c0.022-2.093,0.037-3.476-0.917-4.492c-0.916-0.976-2.13-1.056-3.507-1.056l-6.176,0.001c0.011-0.041,0.022-0.082,0.033-0.122
		c0.035-0.129,0.072-0.257,0.105-0.386c0.036-0.14,0.069-0.282,0.104-0.423c0.031-0.126,0.063-0.252,0.093-0.379
		c0.033-0.145,0.063-0.291,0.094-0.436c0.027-0.124,0.055-0.248,0.08-0.373c0.03-0.147,0.055-0.296,0.083-0.444
		c0.023-0.125,0.048-0.248,0.069-0.373c0.026-0.155,0.049-0.311,0.073-0.466c0.018-0.119,0.039-0.238,0.056-0.357
		c0.023-0.167,0.042-0.335,0.063-0.503c0.013-0.109,0.029-0.218,0.041-0.328c0.02-0.181,0.035-0.363,0.051-0.544
		c0.009-0.098,0.02-0.195,0.027-0.293c0.016-0.204,0.027-0.409,0.038-0.614c0.004-0.077,0.011-0.153,0.014-0.229
		c0.013-0.282,0.022-0.566,0.025-0.85c0,0,0,0,0,0c-4.039,2.466-5.961,3.393-9.255,5.154l-2.072-2.872
		c-0.256-2.568-0.496-4.557-0.496-4.557s-3.128-2.992-7.945-2.992c-4.817,0-7.818,2.992-7.818,2.992l-0.139,1.383
		c-0.104,0.876-0.258,2.255-0.436,4.09l-1.828,2.039c-1.95-1.064-5.506-3.02-9.419-5.237c0.004,0.284,0.012,0.567,0.025,0.85
		c0.004,0.087,0.011,0.172,0.016,0.259c0.011,0.195,0.021,0.39,0.036,0.585c0.008,0.108,0.021,0.216,0.03,0.324
		c0.015,0.171,0.03,0.343,0.048,0.513c0.013,0.116,0.029,0.231,0.043,0.347c0.02,0.161,0.038,0.323,0.06,0.483
		c0.017,0.122,0.038,0.242,0.056,0.363c0.024,0.154,0.046,0.308,0.072,0.461c0.021,0.124,0.046,0.247,0.069,0.371
		c0.027,0.149,0.053,0.298,0.083,0.446c0.025,0.124,0.053,0.246,0.079,0.369c0.031,0.147,0.061,0.295,0.095,0.441
		c0.028,0.123,0.06,0.245,0.09,0.368c0.035,0.145,0.069,0.29,0.106,0.434c0.032,0.123,0.067,0.244,0.1,0.367
		c0.014,0.05,0.027,0.1,0.041,0.15l-7.55,0H3.496c-1.153,0-2.899,0.777-2.982,2.918c-0.021,0.536-0.005,1.153,0.052,2.062
		c0.099,1.579,0.858,2.114,2.237,3.086l0.12,0.085c0.729,0.514,1.503,1.084,2.313,1.703c-0.407,0.001-0.811,0.002-1.197,0.004
		c-1.051,0.005-2.49,0.013-3.167,1.535c-0.383,0.861-0.381,1.96-0.375,4.367l0.001,0.498l0.005,2.062l0.004,1.65l1.136-1.196
		l1.42-1.495l0.343-0.361c0.146-0.154,0.204-0.179,0.206-0.18c0.015-0.003,0.085-0.003,0.136-0.003h0.01
		c1.045-0.004,10.083-0.005,17.176-0.006c0.066,0.076,0.133,0.153,0.199,0.229c0.04,0.046,0.08,0.09,0.12,0.135
		c0.112,0.127,0.224,0.253,0.335,0.377c0.038,0.042,0.075,0.082,0.112,0.124c0.114,0.126,0.227,0.251,0.34,0.374
		c0.034,0.038,0.069,0.074,0.103,0.111c0.116,0.126,0.232,0.251,0.347,0.373c0.03,0.032,0.06,0.064,0.091,0.096
		c0.118,0.125,0.236,0.25,0.353,0.373c0.03,0.031,0.06,0.062,0.09,0.093c0.117,0.122,0.233,0.243,0.349,0.361
		c0.028,0.029,0.056,0.057,0.084,0.085c0.117,0.12,0.234,0.239,0.35,0.355c0.024,0.024,0.048,0.048,0.072,0.072
		c0.119,0.119,0.237,0.237,0.354,0.352c0.022,0.021,0.043,0.042,0.064,0.063c0.119,0.117,0.237,0.233,0.354,0.346
		c0.019,0.019,0.038,0.037,0.057,0.055c0.118,0.114,0.236,0.227,0.351,0.337c0.018,0.017,0.035,0.033,0.052,0.05
		c0.117,0.111,0.233,0.22,0.347,0.327c0.015,0.014,0.03,0.028,0.045,0.042c0.116,0.108,0.231,0.215,0.344,0.319
		c0.012,0.011,0.024,0.022,0.035,0.032c0.116,0.106,0.23,0.211,0.342,0.312c0.009,0.008,0.017,0.015,0.026,0.023
		c0.115,0.104,0.228,0.205,0.338,0.304c0.008,0.007,0.015,0.014,0.023,0.021c0.111,0.099,0.221,0.196,0.328,0.29
		c0.006,0.005,0.012,0.011,0.018,0.016c0.109,0.095,0.216,0.188,0.32,0.278c0.002,0.001,0.003,0.003,0.005,0.004
		c0.108,0.093,0.214,0.184,0.317,0.271c0.001,0.001,0.002,0.002,0.003,0.003c0.103,0.088,0.204,0.173,0.302,0.254
		c0.003,0.002,0.005,0.004,0.007,0.006c0.097,0.081,0.191,0.159,0.282,0.234c0.002,0.001,0.003,0.003,0.005,0.004
		c0.185,0.152,0.358,0.293,0.519,0.421c0.001,0.001,0.002,0.001,0.002,0.002c0.08,0.064,0.157,0.125,0.231,0.183
		c0.001,0.001,0.002,0.001,0.002,0.002c0.073,0.057,0.143,0.112,0.21,0.163c0.003,0.002,0.005,0.004,0.008,0.006
		c0.064,0.05,0.125,0.096,0.183,0.14c0.005,0.004,0.009,0.007,0.014,0.011c0.054,0.041,0.106,0.08,0.154,0.116
		c0.007,0.006,0.014,0.01,0.021,0.016c0.044,0.033,0.086,0.064,0.125,0.092c0.009,0.006,0.016,0.012,0.025,0.018
		c0.035,0.025,0.068,0.049,0.097,0.07c0.01,0.007,0.018,0.013,0.028,0.019c0.025,0.017,0.049,0.035,0.07,0.049
		c0.01,0.007,0.018,0.012,0.028,0.018c0.016,0.011,0.033,0.022,0.045,0.03c0.009,0.006,0.015,0.009,0.022,0.014
		c0.009,0.005,0.019,0.012,0.025,0.015c0.006,0.003,0.008,0.004,0.012,0.005c0.003,0.001,0.009,0.004,0.01,0.004
		c0.001,0,0.001,0,0.001,0c0,0,0.001,0,0.001,0c0.001,0,0.007-0.003,0.01-0.004c0.004-0.001,0.006-0.002,0.012-0.005
		c0.005-0.003,0.013-0.008,0.02-0.012c0.009-0.005,0.018-0.011,0.03-0.018c0.006-0.004,0.014-0.01,0.021-0.014
		c0.017-0.011,0.035-0.023,0.056-0.038c0.004-0.003,0.009-0.006,0.013-0.009c0.764-0.525,4.129-3.121,7.859-7.191
		c0.001-0.001,0.003-0.003,0.004-0.005c0.148-0.161,0.296-0.325,0.445-0.491c0.006-0.007,0.013-0.014,0.019-0.021
		c0.144-0.161,0.289-0.324,0.433-0.489c0.011-0.012,0.021-0.025,0.032-0.037c0.047-0.054,0.094-0.108,0.141-0.162h22.305H62.9
		L61.928,41.159z"/>
	<g>
		
			<linearGradient id="SVGID_1_" gradientUnits="userSpaceOnUse" x1="16.5379" y1="27.3183" x2="49.3512" y2="46.2631" gradientTransform="matrix(1 0 0 -1 0 64)">
			<stop  offset="0" style="stop-color:#093B99"/>
			<stop  offset="0.0145" style="stop-color:#1F56AC"/>
			<stop  offset="0.0353" style="stop-color:#3975C2"/>
			<stop  offset="0.0589" style="stop-color:#4F91D5"/>
			<stop  offset="0.0855" style="stop-color:#61A7E5"/>
			<stop  offset="0.1166" style="stop-color:#6FB8F1"/>
			<stop  offset="0.1551" style="stop-color:#79C3F9"/>
			<stop  offset="0.209" style="stop-color:#7ECAFE"/>
			<stop  offset="0.3587" style="stop-color:#80CCFF"/>
		</linearGradient>
		<path fill="url(#SVGID_1_)" d="M49.735,18.401c-3.677,3.081-6.932,4.335-10.983,6.088c-0.325-4.104-0.84-8.1-0.84-8.1
			s-3.128-3.255-7.945-3.255s-7.818,3.255-7.818,3.255s-0.39,2.888-0.84,8.1c-3.53-1.236-6.407-2.393-10.983-6.088
			c0.247,18.212,19.596,32.43,19.704,32.352C30.139,50.831,49.488,36.616,49.735,18.401z"/>
		<g>
			
				<linearGradient id="SVGID_2_" gradientUnits="userSpaceOnUse" x1="21.3097" y1="43.1701" x2="38.7518" y2="43.1701" gradientTransform="matrix(1 0 0 -1 0 64)">
				<stop  offset="0" style="stop-color:#093B99"/>
				<stop  offset="0.0601" style="stop-color:#1D53AA"/>
				<stop  offset="0.232" style="stop-color:#5294D8"/>
				<stop  offset="0.3572" style="stop-color:#73BDF4"/>
				<stop  offset="0.4218" style="stop-color:#80CCFF"/>
			</linearGradient>
			<path fill="url(#SVGID_2_)" d="M38.752,24.489c-0.325-4.104-0.84-8.1-0.84-8.1s-3.128-3.117-7.945-3.117
				s-7.818,3.117-7.818,3.117s-0.39,3.219-0.84,8.43C24.661,29.672,34.657,29.589,38.752,24.489z"/>
			<g>
				
					<linearGradient id="SVGID_3_" gradientUnits="userSpaceOnUse" x1="30.0014" y1="29.4225" x2="49.7348" y2="29.4225" gradientTransform="matrix(1 0 0 -1 0 64)">
					<stop  offset="0" style="stop-color:#093B99"/>
					<stop  offset="0.0601" style="stop-color:#1D53AA"/>
					<stop  offset="0.232" style="stop-color:#5294D8"/>
					<stop  offset="0.3572" style="stop-color:#73BDF4"/>
					<stop  offset="0.4218" style="stop-color:#80CCFF"/>
				</linearGradient>
				<path fill="url(#SVGID_3_)" d="M49.735,18.401c-3.677,3.081-11.313,6.914-11.313,6.914l-8.42,7.504c0,0,0,0,0.006,7.124
					c0.001,0.857,0.002,1.705,0.003,2.527c0.004,3.72,0.011,7.541,0.02,8.285C30.139,50.831,49.488,36.616,49.735,18.401z"/>
				
					<linearGradient id="SVGID_4_" gradientUnits="userSpaceOnUse" x1="45.0933" y1="40.3912" x2="50.042" y2="35.4425" gradientTransform="matrix(1 0 0 -1 0 64)">
					<stop  offset="0" style="stop-color:#093B99"/>
					<stop  offset="0.0699" style="stop-color:#174DA5"/>
					<stop  offset="0.2094" style="stop-color:#3D7AC6"/>
					<stop  offset="0.4041" style="stop-color:#79C4F9"/>
					<stop  offset="0.4252" style="stop-color:#80CCFF"/>
				</linearGradient>
				<path fill="url(#SVGID_4_)" d="M49.472,19.23c-2.948,3.601-4.081,4.943-7.855,8.345c2.76,4.044,1.782,2.871,4.047,5.361
					C47.998,28.59,48.894,24.414,49.472,19.23z"/>
				
					<linearGradient id="SVGID_5_" gradientUnits="userSpaceOnUse" x1="435.9341" y1="40.4327" x2="440.9657" y2="35.401" gradientTransform="matrix(-1 0 0 -1 450.9539 64)">
					<stop  offset="0" style="stop-color:#093B99"/>
					<stop  offset="0.0699" style="stop-color:#174DA5"/>
					<stop  offset="0.2094" style="stop-color:#3D7AC6"/>
					<stop  offset="0.4041" style="stop-color:#79C4F9"/>
					<stop  offset="0.4252" style="stop-color:#80CCFF"/>
				</linearGradient>
				<path fill="url(#SVGID_5_)" d="M10.683,19.23c2.352,3.326,3.915,4.943,7.69,8.345c-2.76,4.044-1.782,2.871-4.047,5.361
					C11.99,28.59,11.298,24.242,10.683,19.23z"/>
				<path fill="#003699" d="M29.967,13.96c3.732,0,6.413,1.964,7.162,2.58c0.124,1.059,0.53,4.609,0.799,8.013l0.101,1.271
					l1.119-0.612c1.408-0.77,2.529-1.361,3.613-1.933c1.995-1.053,3.631-1.916,6.081-3.376c-0.255,3.472-1.225,7.034-2.889,10.611
					c-1.551,3.333-3.705,6.686-6.401,9.964c-4.015,4.881-8.179,8.278-9.509,9.267l-0.014-0.01l-0.012,0.009
					c-1.331-0.99-5.491-4.384-9.508-9.268c-2.696-3.278-4.849-6.63-6.4-9.964c-1.673-3.595-2.643-7.174-2.893-10.661
					c5.275,2.972,9.655,5.338,9.702,5.364l1.091,0.589l0.124-1.233l0.808-8.045C23.667,15.908,26.252,13.96,29.967,13.96
					 M29.967,13.134c-4.817,0-7.818,2.992-7.818,2.992l-0.84,8.363c0,0-5.088-2.747-10.983-6.088
					c0.246,18.162,19.49,32.353,19.703,32.353c0.001,0,0.001,0,0.001,0c0,0,0.001,0,0.001,0c0.211,0,19.457-14.187,19.703-32.353
					c-4.696,2.867-6.528,3.653-10.983,6.088c-0.325-4.104-0.84-8.363-0.84-8.363S34.784,13.134,29.967,13.134L29.967,13.134z"/>
			</g>
		</g>
	</g>
	<polygon fill="#80CCFF" points="35.153,37.934 26.23,37.905 26.23,41.817 35.153,41.845 	"/>
	<path fill="#003699" d="M61.928,41.159l-6.276-7.097l0.839-1.148l0.186-0.255l2.551,2.684l0.022-1.743l0.028-1.93l0.006-0.6
		c0.022-2.093,0.037-3.476-0.917-4.492c-0.916-0.976-2.13-1.056-3.507-1.056c0,0-5.931,0.001-12.96,0.002l-0.257-0.357l-4.428-6.139
		l-0.373-0.517l-0.279-0.387l-0.455,0.143l-0.608,0.191l-0.203,0.064l-0.93-1.616l-0.404-0.702l-0.302-0.525l-0.55,0.256
		l-0.734,0.342l-2.798,1.304l-0.336,0.157l-0.252,0.117L28.9,18.118l-0.123,0.35L28.7,18.684l-0.067-0.108l-0.304-0.491
		l-0.527,0.235l-0.704,0.314l-2.01,0.896l-0.284,0.127l-0.213,0.095l-0.106,0.207l-0.142,0.277l-0.311,0.605L23.509,20.4
		l-0.49-0.413l-0.428,0.477l-0.571,0.637l-3.531,3.939l-0.44,0.491l-14.22,0H3.496c-1.153,0-2.899,0.777-2.982,2.918
		c-0.021,0.536-0.005,1.153,0.052,2.062c0.099,1.579,0.858,2.114,2.237,3.086l0.12,0.085c0.729,0.514,1.503,1.084,2.313,1.703
		c-0.407,0.001-0.811,0.002-1.197,0.004c-1.051,0.005-2.49,0.013-3.167,1.535c-0.383,0.861-0.381,1.96-0.375,4.367l0.001,0.498
		l0.005,2.062l0.004,1.65l1.136-1.196l1.42-1.495l0.343-0.361c0.146-0.154,0.204-0.179,0.206-0.18
		c0.015-0.003,0.085-0.003,0.136-0.003h0.01c1.737-0.006,57.675-0.006,57.675-0.006H62.9L61.928,41.159z M18.937,25.532l0.045-0.05
		l3.531-3.939l0.571-0.637l0.655,0.551l0.503,0.424l0.689-1.343l0.142-0.277l0.284-0.127l2.01-0.896l0.704-0.314l0.406,0.656
		l0.387,0.626l0.535-1.517l0.123-0.35l0.336-0.157l2.798-1.304l0.734-0.342l0.404,0.702l1.195,2.075l0.709-0.223l0.608-0.191
		l0.373,0.517l4.406,6.109l0.477,0.661l-23.219,0.006L18.937,25.532z M32.319,39.578l-1.999,1.489l-0.186,0.138l-0.111-0.1
		l-1.603-1.441l-0.749-0.674c0.217-0.001,0.451-0.001,0.693-0.001c0.357,0,0.732,0.001,1.102,0.001l0.587,0.001
		c1.035,0.001,1.212,0.031,1.524,0.161l0.704,0.293l0.138,0.057L32.319,39.578z M40.275,35.262
		c-0.716,0.193-1.053,0.151-1.053,0.151l0.012-2.184L39.23,32.3l0.118,0l0.03,0c0.886,0,1.569,0.195,1.921,0.549
		c0.213,0.214,0.319,0.493,0.318,0.831C41.614,34.299,41.383,34.964,40.275,35.262z M47.964,31.657l0.01,0l0.039,0.147
		C47.998,31.755,47.981,31.706,47.964,31.657z"/>
	<path fill="#FFFFFF" d="M33.19,39.753l-0.477,0.355l-1.999,1.489h30.719l-6.629-7.496l1.153-1.578l0.61-0.834
		c0.133,0.021,0.161,0.017,0.293,0.074c0.132,0.057,1.729,1.831,1.729,1.831l0.028-1.93l0.006-0.6
		c0.021-2.002,0.034-3.21-0.738-4.033c-0.736-0.785-1.761-0.847-3.025-0.847h0h0l-13.297,0.002l-5.256-7.287l-1.317,0.413
		l-1.599-2.777l-3.868,1.803l-0.658,1.867l-0.793-1.282l-2.998,1.337l-0.831,1.62l-1.158-0.975l-4.74,5.287l0.851,0
		c-0.021,0-0.04,0-0.054,0l-15.312,0H3.496c-0.898,0-2.257,0.608-2.321,2.282c-0.02,0.513-0.004,1.109,0.051,1.995
		c0.079,1.263,0.629,1.65,1.958,2.587l0.12,0.084c1.469,1.036,2.838,2.096,3.855,2.904c-0.337-0.001-0.689-0.001-1.044-0.001
		c-0.696,0-1.409,0.001-2.072,0.005c-1.014,0.005-2.063,0.011-2.566,1.142c-0.326,0.732-0.323,1.786-0.318,4.097l0.001,0.498
		l0.005,2.062l1.42-1.495l0.343-0.361c0.369-0.388,0.538-0.388,0.819-0.389h0.012c1.756-0.006,25.823-0.006,25.823-0.006
		l-1.603-1.441l-2.247-2.02c0.384,0.155,0.831,0.195,1.544,0.195c0.051,0,0.103,0,0.157,0c0.28-0.002,0.598-0.002,0.932-0.002
		c0.357,0,0.733,0.001,1.103,0.001l0.587,0.001c1.081,0.001,1.347,0.033,1.777,0.212l0.704,0.293l0.985,0.41
		C33.461,39.5,33.299,39.666,33.19,39.753z M40.409,36.744c1.853-0.448,2.689-1.858,2.695-3.056
		c0.007-1.353-0.922-2.875-3.727-2.875c-0.01,0-0.021,0-0.031,0c-0.139,0-0.272,0-0.408,0c-0.226,0-0.463,0-0.749-0.001
		c-0.431-0.001,0.181-0.002-0.617-0.002l0.01,2.426l-4.426-6.218l0.374,0.001c0.03,0,1.787,0.003,3.361,0.003
		c0.802,0,1.557-0.001,2.012-0.003c0.025,0,0.05,0,0.076,0c2.465,0,4.097,0.555,5.587,1.554c2.869,1.925,2.97,4.83,2.965,5.175
		c-0.069,4.627-3.291,6.362-4.758,7.062c-0.504-0.759-2.63-4.002-2.63-4.002L40.409,36.744z M38.664,35.992l-0.063-2.757
		l-0.006-1.594c0.195,0,0.175-0.002,0.343-0.002l0.41,0l0.03,0c1.08,0,1.907,0.257,2.39,0.744c0.425,0.427,0.512,0.943,0.51,1.301
		c-0.004,0.877-0.745,1.996-1.962,2.213C39.578,36.028,39.097,35.997,38.664,35.992z M55.099,35.665
		c0.575,0.64,4.125,4.729,4.162,4.77l0.305,0.336H45.144l0.5-0.382c0.025-0.011,1.695-1.195,2.621-3.354l0.041-0.142h0.145
		c1.679,0,4.425,0.014,4.459,0.014c1.118,0,1.801-0.075,1.852-1.116l0.023-0.475L55.099,35.665z M47.964,31.657l0.01,0l0.039,0.147
		C47.998,31.755,47.981,31.706,47.964,31.657z M52.534,35.808l-3.707,0.019l0.036-0.233c0.001-0.009,0.336-1.132,0.294-1.833
		c-0.045-0.744-0.161-1.481-0.163-1.489l-0.068-0.254l6.365,0.018L52.534,35.808z M54.861,27.01c1.31,0,1.96,0.093,2.423,0.586
		c0.545,0.58,0.534,1.603,0.514,3.458l-0.006,0.6l-0.336-0.484c-0.259-0.221-0.606-0.307-1.329-0.356
		c-0.249-0.017-0.942-0.023-1.792-0.023c-1.969,0-4.78,0.031-4.875,0.031l-1.086,0.005l-0.05-0.119
		c-1.024-2.437-3.579-3.295-3.601-3.304l-0.838-0.387L54.861,27.01z M15.859,39.857c-0.2,0.573-0.738,0.914-1.439,0.914
		c-0.907,0-8.916,0-10.662,0.006H3.743c-0.358,0.001-0.803,0.003-1.415,0.646l-0.343,0.361l-0.001-0.498
		c-0.005-2.123-0.007-3.188,0.247-3.759c0.287-0.644,0.862-0.647,1.816-0.652c0.662-0.003,1.374-0.005,2.068-0.005
		c1.383,0,2.697,0.005,3.403,0.008C9.469,36.84,9.418,36.8,9.367,36.76c-0.11-0.086-0.289-0.231-0.526-0.423
		c-0.937-0.759-2.888-2.339-5.062-3.872l-0.12-0.084c-1.287-0.907-1.555-1.096-1.61-1.963C1.996,29.562,1.981,28.99,2,28.507
		c0.057-1.471,1.481-1.488,1.495-1.488h0.333h13.973l-0.202,0.244l-4.586,5.232l0.034-0.553c0-0.005,0.026-0.538-0.293-0.873
		c-0.179-0.188-0.441-0.284-0.778-0.284c-0.002,0-0.005,0-0.007,0l-4.407,0.017c2.415,1.979,5.233,4.283,5.764,4.707
		C16.268,37.854,16.008,39.43,15.859,39.857z M12.222,31.906l-0.033,0.538l-0.063,1.023c-0.662-0.54-1.448-1.183-2.261-1.848
		l2.108-0.008c0.119,0,0.175,0.021,0.185,0.028C12.19,31.672,12.223,31.808,12.222,31.906z M16.639,40.13
		c0.213-0.608,0.408-2.11-1.568-4.159c1.126,0.986,2.065,1.972,2.264,2.27c0.438,0.66,0.407,1.12-0.101,1.492
		C17.205,39.755,16.626,40.167,16.639,40.13z M27.426,40.771H17.254c0,0,0.419-0.332,0.448-0.356
		c0.072-0.059,1.447-0.935,0.32-2.631c-0.354-0.533-2.29-2.492-4.06-3.756l0.15-0.129l0.146-0.166
		c0.934-1.059,1.898-2.109,2.926-3.125c0.69-0.682,1.342-1.325,1.943-1.958c0.61-0.642-0.141-1.294-0.16-1.321l-0.191-0.159
		l-0.198-0.151l0.553-0.001c0.069,0,6.778-0.033,7.937-0.033h0.526c0,0-0.899,0.634-1.422,1.034
		c-0.92,0.702-1.473,1.129-6.486,5.797L27.426,40.771z M22.782,35.483c0.009,0.009,0.021,0.021,0.03,0.03l-1.899-1.707
		c1.516-1.353,1.764-1.546,2.645-2.262c-1.019,1.047-1.245,1.207-1.274,2.665C22.275,34.707,22.447,35.147,22.782,35.483z
		 M33.875,37.704c-1.743-2.412-3.823-5.286-4.235-5.856c-0.303,0.285-1.236,1.132-1.897,1.786c0.115-0.001,0.224-0.002,0.327-0.002
		c1.591,0,1.799,0.196,2.594,1.34c0.447,0.644,0.711,1.049,0.924,1.374c0.269,0.411,0.447,0.683,0.795,1.128l0.47,0.6l-0.704-0.293
		c-0.576-0.24-0.964-0.274-2.093-0.276l-0.587-0.001c-0.37-0.001-0.747-0.001-1.104-0.001c-0.336,0-0.655,0.001-0.937,0.002
		c-0.053,0-0.103,0-0.152,0c-1.223,0-1.378-0.102-2.027-0.739l-0.02-0.02c-0.671-0.658-1.417-1.404-1.862-1.849
		c-0.175-0.175-0.261-0.401-0.256-0.672c0.025-1.236,1.941-3.032,2.171-3.244c0.314-0.29,0.653-0.589,1.012-0.906
		c1.058-0.934,1.844-1.583,2.643-2.615c0.238-0.307,0.421-0.575,0.567-0.809l0.26-0.463l0.874,0
		c0.573,0.731,1.366,1.742,1.501,1.924c0.216,0.292,8.91,12.245,8.98,12.34l0.231,0.317h-8.141l0.483-0.36
		C33.746,40.369,35.062,39.347,33.875,37.704z"/>
	<g>
		
			<linearGradient id="SVGID_6_" gradientUnits="userSpaceOnUse" x1="21.773" y1="37.9288" x2="21.773" y2="41.8675" gradientTransform="matrix(1 0 0 -1 0 64)">
			<stop  offset="0" style="stop-color:#FFFFFF;stop-opacity:0"/>
			<stop  offset="0.0182" style="stop-color:#F6FCFF;stop-opacity:0.0277"/>
			<stop  offset="0.1049" style="stop-color:#D2EDFF;stop-opacity:0.1595"/>
			<stop  offset="0.1962" style="stop-color:#B4E1FF;stop-opacity:0.2982"/>
			<stop  offset="0.2923" style="stop-color:#9DD8FF;stop-opacity:0.4441"/>
			<stop  offset="0.3951" style="stop-color:#8DD1FF;stop-opacity:0.6004"/>
			<stop  offset="0.5093" style="stop-color:#83CDFF;stop-opacity:0.774"/>
			<stop  offset="0.658" style="stop-color:#80CCFF"/>
		</linearGradient>
		<polygon fill="url(#SVGID_6_)" points="19.638,26.071 23.17,22.133 23.908,22.855 22.583,26.06 		"/>
		
			<linearGradient id="SVGID_7_" gradientUnits="userSpaceOnUse" x1="25.7867" y1="37.9254" x2="25.7867" y2="43.9557" gradientTransform="matrix(1 0 0 -1 0 64)">
			<stop  offset="0" style="stop-color:#FFFFFF;stop-opacity:0"/>
			<stop  offset="0.0182" style="stop-color:#F6FCFF;stop-opacity:0.0277"/>
			<stop  offset="0.1049" style="stop-color:#D2EDFF;stop-opacity:0.1595"/>
			<stop  offset="0.1962" style="stop-color:#B4E1FF;stop-opacity:0.2982"/>
			<stop  offset="0.2923" style="stop-color:#9DD8FF;stop-opacity:0.4441"/>
			<stop  offset="0.3951" style="stop-color:#8DD1FF;stop-opacity:0.6004"/>
			<stop  offset="0.5093" style="stop-color:#83CDFF;stop-opacity:0.774"/>
			<stop  offset="0.658" style="stop-color:#80CCFF"/>
		</linearGradient>
		<polygon fill="url(#SVGID_7_)" points="23.082,26.075 25.717,20.941 27.727,20.044 28.492,21.608 27.319,26.075 		"/>
		
			<linearGradient id="SVGID_8_" gradientUnits="userSpaceOnUse" x1="34.0622" y1="37.9288" x2="34.0622" y2="46.3223" gradientTransform="matrix(1 0 0 -1 0 64)">
			<stop  offset="0" style="stop-color:#FFFFFF;stop-opacity:0"/>
			<stop  offset="0.0182" style="stop-color:#F6FCFF;stop-opacity:0.0277"/>
			<stop  offset="0.1049" style="stop-color:#D2EDFF;stop-opacity:0.1595"/>
			<stop  offset="0.1962" style="stop-color:#B4E1FF;stop-opacity:0.2982"/>
			<stop  offset="0.2923" style="stop-color:#9DD8FF;stop-opacity:0.4441"/>
			<stop  offset="0.3951" style="stop-color:#8DD1FF;stop-opacity:0.6004"/>
			<stop  offset="0.5093" style="stop-color:#83CDFF;stop-opacity:0.774"/>
			<stop  offset="0.658" style="stop-color:#80CCFF"/>
		</linearGradient>
		<polygon fill="url(#SVGID_8_)" points="27.733,26.071 30.232,18.982 33.03,17.678 34.578,20.367 35.964,19.932 40.391,26.071 		
			"/>
	</g>
	<g>
		
			<linearGradient id="SVGID_9_" gradientUnits="userSpaceOnUse" x1="45.5955" y1="34.9862" x2="57.4237" y2="34.9862" gradientTransform="matrix(1 0 0 -1 0 64)">
			<stop  offset="0.489" style="stop-color:#80CCFF"/>
			<stop  offset="0.7009" style="stop-color:#7ECAFE"/>
			<stop  offset="0.7771" style="stop-color:#79C3F9"/>
			<stop  offset="0.8315" style="stop-color:#6FB8F1"/>
			<stop  offset="0.8755" style="stop-color:#60A7E6"/>
			<stop  offset="0.9132" style="stop-color:#4D91D7"/>
			<stop  offset="0.9466" style="stop-color:#3675C4"/>
			<stop  offset="0.976" style="stop-color:#1B56AF"/>
			<stop  offset="1" style="stop-color:#003699"/>
		</linearGradient>
		<path fill="url(#SVGID_9_)" d="M48.618,30.429l0.841-0.005c1.257,0,2.086-0.001,3.722-0.001c1.204,0,2.504-0.009,2.945-0.008
			c0.644,0.001,1.029,0.054,1.296,0.203c0.011-1.544-0.028-2.336-0.409-2.741c-0.324-0.345-0.778-0.468-2.153-0.468l-9.265,0.009
			C46.349,27.885,47.905,28.819,48.618,30.429z"/>
		
			<linearGradient id="SVGID_10_" gradientUnits="userSpaceOnUse" x1="46.6265" y1="34.2575" x2="33.9039" y2="34.2575" gradientTransform="matrix(1 0 0 -1 0 64)">
			<stop  offset="0" style="stop-color:#003699"/>
			<stop  offset="0.0447" style="stop-color:#1751AB"/>
			<stop  offset="0.1102" style="stop-color:#3372C2"/>
			<stop  offset="0.1836" style="stop-color:#4B8ED5"/>
			<stop  offset="0.2655" style="stop-color:#5FA5E4"/>
			<stop  offset="0.3597" style="stop-color:#6EB7F0"/>
			<stop  offset="0.4737" style="stop-color:#78C3F9"/>
			<stop  offset="0.628" style="stop-color:#7ECAFE"/>
			<stop  offset="1" style="stop-color:#80CCFF"/>
		</linearGradient>
		<path fill="url(#SVGID_10_)" d="M46.627,31.424c-1.131-2.303-3.707-3.92-7.152-4.006c-0.024-0.001-1.865,0-1.889,0
			c-1.121,0.009-2.57,0.003-3.681,0.001l3.308,4.649l-0.007-1.657h0.183c0.9,0,1.494,0.001,1.957,0.002
			c0.468,0.001,0.802,0.001,1.178,0l0,0.157l0,0l0-0.157c0.166,0,0.341-0.001,0.54-0.002C43.228,30.398,45.442,30.387,46.627,31.424
			z"/>
		
			<linearGradient id="SVGID_11_" gradientUnits="userSpaceOnUse" x1="5.7766" y1="32.8921" x2="15.7114" y2="38.6279" gradientTransform="matrix(1 0 0 -1 0 64)">
			<stop  offset="0.0109" style="stop-color:#003699"/>
			<stop  offset="0.0554" style="stop-color:#1852AC"/>
			<stop  offset="0.1193" style="stop-color:#3372C2"/>
			<stop  offset="0.191" style="stop-color:#4B8ED5"/>
			<stop  offset="0.2711" style="stop-color:#5FA5E5"/>
			<stop  offset="0.3635" style="stop-color:#6EB7F0"/>
			<stop  offset="0.4754" style="stop-color:#78C3F9"/>
			<stop  offset="0.6276" style="stop-color:#7ECAFE"/>
			<stop  offset="1" style="stop-color:#80CCFF"/>
		</linearGradient>
		<path fill="url(#SVGID_11_)" d="M3.957,27.837c0.248,0.208,1.555,1.282,3.122,2.567l4.889-0.019
			c0.457-0.001,0.82,0.136,1.079,0.411c0.204,0.216,0.305,0.479,0.354,0.701l3.491-4.079H3.87c-0.05,0.025-0.119,0.073-0.127,0.121
			C3.735,27.589,3.786,27.694,3.957,27.837z"/>
		<path fill="#003699" d="M48.322,30.71l0.05,0.119l1.086-0.005c0.136,0,5.84-0.064,6.667-0.009c0.723,0.048,1.07,0.134,1.329,0.356
			l0.336,0.484l0.006-0.6c0.02-1.856,0.031-2.878-0.514-3.458c-0.463-0.493-1.112-0.586-2.423-0.586l-10.977,0.009l0.838,0.387
			C44.743,27.414,47.299,28.273,48.322,30.71z M57.014,27.877c0.381,0.406,0.42,1.198,0.409,2.741
			c-0.267-0.15-0.652-0.203-1.296-0.203c-0.442,0-1.741,0.008-2.945,0.008c-1.636,0-2.465,0-3.722,0.001l-0.841,0.005
			c-0.712-1.61-2.268-2.544-3.022-3.011l9.265-0.009C56.236,27.409,56.689,27.532,57.014,27.877z"/>
		
			<linearGradient id="SVGID_12_" gradientUnits="userSpaceOnUse" x1="17.6477" y1="28.285" x2="24.328" y2="21.6048" gradientTransform="matrix(1 0 0 -1 0 64)">
			<stop  offset="0.0105" style="stop-color:#003699"/>
			<stop  offset="0.0485" style="stop-color:#124BA7"/>
			<stop  offset="0.1229" style="stop-color:#2F6DBE"/>
			<stop  offset="0.2051" style="stop-color:#488BD3"/>
			<stop  offset="0.2956" style="stop-color:#5DA3E3"/>
			<stop  offset="0.3978" style="stop-color:#6DB5F0"/>
			<stop  offset="0.5183" style="stop-color:#78C2F8"/>
			<stop  offset="0.6749" style="stop-color:#7ECAFE"/>
			<stop  offset="1" style="stop-color:#80CCFF"/>
		</linearGradient>
		<path fill="url(#SVGID_12_)" d="M18.45,34.942c-0.76,0.647-1.215,1.298-0.791,1.711c0.336,0.328-0.058-0.054-0.058-0.054
			c0.364,0.427,0.628,0.774,0.755,0.965c0.904,1.361,0.226,2.324-0.098,2.808h8.094l-6.958-6.283l-0.006,0.006
			C19.022,34.422,18.743,34.692,18.45,34.942z"/>
		
			<linearGradient id="SVGID_13_" gradientUnits="userSpaceOnUse" x1="15.51" y1="29.1857" x2="24.6667" y2="38.3424" gradientTransform="matrix(1 0 0 -1 0 64)">
			<stop  offset="0" style="stop-color:#093B99"/>
			<stop  offset="0.0145" style="stop-color:#1F56AC"/>
			<stop  offset="0.0353" style="stop-color:#3975C2"/>
			<stop  offset="0.0589" style="stop-color:#4F91D5"/>
			<stop  offset="0.0855" style="stop-color:#61A7E5"/>
			<stop  offset="0.1166" style="stop-color:#6FB8F1"/>
			<stop  offset="0.1551" style="stop-color:#79C3F9"/>
			<stop  offset="0.209" style="stop-color:#7ECAFE"/>
			<stop  offset="0.3587" style="stop-color:#80CCFF"/>
		</linearGradient>
		<path fill="url(#SVGID_13_)" d="M18.192,34.637c0.168-0.141,0.489-0.437,0.897-0.811l0,0l0.056-0.051l0.01-0.009l0,0l0.039-0.036
			l1.453-1.334l-0.024,0.034c1.672-1.502,3.58-3.575,5.774-5.043c-1.796,0.005-5.773,0.025-6.946,0.03
			c0.131,0.392,0.475,0.977-0.031,1.51c-0.606,0.637-1.26,1.283-1.952,1.967c-0.97,0.958-1.954,2.04-2.844,3.033
			c0.795,0.713,1.618,1.465,2.51,2.272C17.22,35.833,17.455,35.258,18.192,34.637z"/>
		
			<linearGradient id="SVGID_14_" gradientUnits="userSpaceOnUse" x1="49.2697" y1="30.0773" x2="54.4362" y2="30.0773" gradientTransform="matrix(1 0 0 -1 0 64)">
			<stop  offset="0" style="stop-color:#093B99"/>
			<stop  offset="0.0473" style="stop-color:#1F56AC"/>
			<stop  offset="0.1232" style="stop-color:#3D7AC5"/>
			<stop  offset="0.2032" style="stop-color:#5598DA"/>
			<stop  offset="0.2873" style="stop-color:#68AFEA"/>
			<stop  offset="0.3773" style="stop-color:#76BFF6"/>
			<stop  offset="0.4773" style="stop-color:#7DC9FD"/>
			<stop  offset="0.6077" style="stop-color:#80CCFF"/>
		</linearGradient>
		<path fill="url(#SVGID_14_)" d="M49.27,35.427l3.096-0.017l2.071-2.976l-5.019-0.014c0.111,0.434,0.132,0.549,0.132,1.136
			C49.549,34.237,49.426,34.959,49.27,35.427z"/>
		
			<linearGradient id="SVGID_15_" gradientUnits="userSpaceOnUse" x1="48.4557" y1="27.0396" x2="57.5948" y2="21.7632" gradientTransform="matrix(1 0 0 -1 0 64)">
			<stop  offset="0" style="stop-color:#003699"/>
			<stop  offset="0.0234" style="stop-color:#0B43A2"/>
			<stop  offset="0.1057" style="stop-color:#2F6DBE"/>
			<stop  offset="0.1899" style="stop-color:#4C8FD6"/>
			<stop  offset="0.2751" style="stop-color:#63AAE8"/>
			<stop  offset="0.3617" style="stop-color:#73BDF5"/>
			<stop  offset="0.4506" style="stop-color:#7DC8FC"/>
			<stop  offset="0.5451" style="stop-color:#80CCFF"/>
		</linearGradient>
		<path fill="url(#SVGID_15_)" d="M52.909,37.305c-0.034,0-2.597-0.013-4.316-0.014c-0.634,1.324-1.302,2.57-2.107,3.08h12.186
			c-0.792-0.872-2.743-3.202-3.583-4.13C54.822,37.306,53.771,37.305,52.909,37.305z"/>
		
			<linearGradient id="SVGID_16_" gradientUnits="userSpaceOnUse" x1="43.9481" y1="33.2087" x2="43.9481" y2="23.6566" gradientTransform="matrix(1 0 0 -1 0 64)">
			<stop  offset="0.0109" style="stop-color:#003699"/>
			<stop  offset="0.0402" style="stop-color:#0C45A3"/>
			<stop  offset="0.1233" style="stop-color:#2B69BB"/>
			<stop  offset="0.2141" style="stop-color:#4688D0"/>
			<stop  offset="0.3128" style="stop-color:#5BA1E2"/>
			<stop  offset="0.4225" style="stop-color:#6CB4EF"/>
			<stop  offset="0.549" style="stop-color:#77C2F8"/>
			<stop  offset="0.7076" style="stop-color:#7ECAFD"/>
			<stop  offset="1" style="stop-color:#80CCFF"/>
		</linearGradient>
		<path fill="url(#SVGID_16_)" d="M47.134,33.467c-0.18-2.983-3.705-2.666-5.949-2.666c1.446,0.262,2.292,1.48,2.285,2.889
			c-0.007,1.298-0.852,2.81-2.719,3.373c0.104,0.163,0.212,0.331,0.323,0.503c0.603,0.94,1.391,2.022,1.805,2.777
			C45.425,39.132,47.317,36.51,47.134,33.467z"/>
		
			<linearGradient id="SVGID_17_" gradientUnits="userSpaceOnUse" x1="26.6093" y1="29.1253" x2="31.4335" y2="26.34" gradientTransform="matrix(1 0 0 -1 0 64)">
			<stop  offset="0.0109" style="stop-color:#003699"/>
			<stop  offset="0.0411" style="stop-color:#0D45A3"/>
			<stop  offset="0.1234" style="stop-color:#2C69BC"/>
			<stop  offset="0.2135" style="stop-color:#4688D1"/>
			<stop  offset="0.3114" style="stop-color:#5BA1E2"/>
			<stop  offset="0.4204" style="stop-color:#6CB4EF"/>
			<stop  offset="0.5465" style="stop-color:#77C2F8"/>
			<stop  offset="0.7049" style="stop-color:#7ECAFD"/>
			<stop  offset="1" style="stop-color:#80CCFF"/>
		</linearGradient>
		<path fill="url(#SVGID_17_)" d="M26.793,34.649c-1.196,1.517-0.458,2.343-0.392,2.411c0.227,0.043,0.532,0.049,1.023,0.046
			c0.582-0.003,1.326-0.002,2.044-0.001l0.587,0.001c0.747,0.001,1.207,0.013,1.635,0.109c-0.149-0.211-0.277-0.407-0.437-0.651
			c-0.211-0.323-0.474-0.726-0.918-1.365c-0.817-1.178-0.836-1.204-2.994-1.16C27.118,34.271,26.922,34.485,26.793,34.649z"/>
		
			<linearGradient id="SVGID_18_" gradientUnits="userSpaceOnUse" x1="24.2569" y1="28.7755" x2="31.6965" y2="36.2151" gradientTransform="matrix(1 0 0 -1 0 64)">
			<stop  offset="0" style="stop-color:#003699"/>
			<stop  offset="0.0993" style="stop-color:#1F5AB2"/>
			<stop  offset="0.2149" style="stop-color:#3D7DC9"/>
			<stop  offset="0.3381" style="stop-color:#559ADD"/>
			<stop  offset="0.469" style="stop-color:#68B0EC"/>
			<stop  offset="0.6115" style="stop-color:#76C0F7"/>
			<stop  offset="0.7739" style="stop-color:#7EC9FD"/>
			<stop  offset="1" style="stop-color:#80CCFF"/>
		</linearGradient>
		<path fill="url(#SVGID_18_)" d="M26.48,34.402c0.573-0.727,2.305-2.313,2.379-2.38c0.012-0.01,0.869-0.763,1.655-1.616
			c1.357-1.471,1.417-1.89,1.284-2.081c-0.219-0.302-0.338-0.471-0.435-0.594c-0.476-0.61-0.764-0.94-1.188-1.466
			c-0.289,0.558-0.544,0.783-0.971,1.384c-0.837,1.177-1.564,1.773-2.647,2.728c-0.358,0.315-0.695,0.613-1.006,0.9
			c-0.733,0.677-2.025,2.087-2.042,2.958c-0.003,0.16,0.042,0.285,0.139,0.382c0.445,0.445,1.189,1.189,1.859,1.846l0.02,0.02
			c0.1,0.098,0.185,0.181,0.263,0.251C25.645,36.23,25.664,35.437,26.48,34.402z"/>
		
			<linearGradient id="SVGID_19_" gradientUnits="userSpaceOnUse" x1="29.7825" y1="32.8436" x2="39.7808" y2="22.8453" gradientTransform="matrix(1 0 0 -1 0 64)">
			<stop  offset="0.0109" style="stop-color:#003699"/>
			<stop  offset="0.0548" style="stop-color:#1751AB"/>
			<stop  offset="0.1201" style="stop-color:#3372C2"/>
			<stop  offset="0.1932" style="stop-color:#4B8ED5"/>
			<stop  offset="0.2746" style="stop-color:#5FA5E4"/>
			<stop  offset="0.3682" style="stop-color:#6EB6F0"/>
			<stop  offset="0.4814" style="stop-color:#78C3F9"/>
			<stop  offset="0.6343" style="stop-color:#7ECAFE"/>
			<stop  offset="1" style="stop-color:#80CCFF"/>
		</linearGradient>
		<path fill="url(#SVGID_19_)" d="M29.931,31.57c0.321,0.444,2.472,3.417,4.267,5.9c0.981,1.358,0.488,2.389,0.082,2.902h6.284
			c-1.155-1.586-6.322-8.683-8.422-11.574c-0.206,0.599-0.821,1.323-1.336,1.881C30.508,31.001,30.2,31.309,29.931,31.57z"/>
		
			<linearGradient id="SVGID_20_" gradientUnits="userSpaceOnUse" x1="8.9691" y1="36.5712" x2="8.9691" y2="23.6279" gradientTransform="matrix(1 0 0 -1 0 64)">
			<stop  offset="0.6836" style="stop-color:#80CCFF"/>
			<stop  offset="0.8148" style="stop-color:#7ECAFE"/>
			<stop  offset="0.862" style="stop-color:#79C3F9"/>
			<stop  offset="0.8957" style="stop-color:#6FB8F1"/>
			<stop  offset="0.9229" style="stop-color:#60A7E6"/>
			<stop  offset="0.9463" style="stop-color:#4D91D7"/>
			<stop  offset="0.9669" style="stop-color:#3675C4"/>
			<stop  offset="0.9851" style="stop-color:#1B56AF"/>
			<stop  offset="1" style="stop-color:#003699"/>
		</linearGradient>
		<path fill="url(#SVGID_20_)" d="M13.079,35.821c-0.923-0.737-8.733-7.136-9.379-7.678c-0.272-0.228-0.39-0.455-0.35-0.675
			c0.002-0.014,0.006-0.026,0.009-0.039c-0.293,0.04-0.927,0.226-0.961,1.093c-0.018,0.469-0.003,1.029,0.05,1.872
			c0.041,0.66,0.141,0.746,1.441,1.662l0.12,0.084c2.184,1.54,4.142,3.126,5.083,3.888c0.234,0.19,0.411,0.333,0.52,0.418
			c1.497,1.167,2.249,2.234,2.235,3.171c-0.005,0.324-0.103,0.575-0.213,0.756c1.388,0,2.483,0,2.786,0
			c0.531,0,0.918-0.236,1.062-0.647C15.745,38.974,15.252,37.554,13.079,35.821z"/>
		
			<linearGradient id="SVGID_21_" gradientUnits="userSpaceOnUse" x1="13.0789" y1="32.063" x2="2.3917" y2="32.063" gradientTransform="matrix(1 0 0 -1 0 64)">
			<stop  offset="0.6585" style="stop-color:#80CCFF"/>
			<stop  offset="0.8001" style="stop-color:#7ECAFE"/>
			<stop  offset="0.8511" style="stop-color:#79C3F9"/>
			<stop  offset="0.8874" style="stop-color:#6FB8F1"/>
			<stop  offset="0.9168" style="stop-color:#60A7E6"/>
			<stop  offset="0.942" style="stop-color:#4D91D7"/>
			<stop  offset="0.9643" style="stop-color:#3675C4"/>
			<stop  offset="0.984" style="stop-color:#1B56AF"/>
			<stop  offset="1" style="stop-color:#003699"/>
		</linearGradient>
		<path fill="url(#SVGID_21_)" d="M13.079,35.821c0,0-8.733-7.136-9.379-7.678c-0.272-0.228-0.39-0.455-0.35-0.675
			c0.002-0.014,0.006-0.026,0.009-0.039c-0.293,0.04-0.927,0.226-0.961,1.093c-0.018,0.469-0.003,1.029,0.05,1.872
			c0.041,0.66,0.141,0.746,1.441,1.662l0.12,0.084c2.184,1.54,4.142,3.126,5.083,3.888c0.234,0.19,0.52,0.418,0.52,0.418
			L13.079,35.821z"/>
		
			<linearGradient id="SVGID_22_" gradientUnits="userSpaceOnUse" x1="11.4482" y1="24.9489" x2="2.3821" y2="24.9489" gradientTransform="matrix(1 0 0 -1 0 64)">
			<stop  offset="0.0109" style="stop-color:#003699"/>
			<stop  offset="0.1022" style="stop-color:#1C57AF"/>
			<stop  offset="0.2224" style="stop-color:#3A7AC8"/>
			<stop  offset="0.3495" style="stop-color:#5498DC"/>
			<stop  offset="0.4834" style="stop-color:#67AFEB"/>
			<stop  offset="0.6271" style="stop-color:#75BFF6"/>
			<stop  offset="0.7878" style="stop-color:#7DC9FD"/>
			<stop  offset="1" style="stop-color:#80CCFF"/>
		</linearGradient>
		<path fill="url(#SVGID_22_)" d="M9.991,37.281c-0.468-0.003-3.539-0.019-5.942-0.006C3.083,37.28,2.769,37.3,2.595,37.69
			c-0.202,0.454-0.216,1.426-0.213,3.142c0.571-0.452,1.035-0.453,1.36-0.454l0.014,0c1.095-0.004,4.648-0.005,7.372-0.006
			c0.088-0.081,0.316-0.334,0.319-0.773C11.452,39.122,11.183,38.352,9.991,37.281z"/>
		<path fill="#003699" d="M26.175,28.019c0.523-0.399,1.422-1.034,1.422-1.034h-0.526c-1.159,0-7.867,0.033-7.937,0.033L18.6,27.022
			l0.37,0.308c0.018,0.027,0.77,0.679,0.16,1.321c-0.601,0.633-1.253,1.277-1.943,1.958c-1.028,1.015-1.992,2.066-2.926,3.125
			L14.114,33.9l-0.15,0.129c1.77,1.264,3.706,3.223,4.06,3.756c1.126,1.695-0.249,2.571-0.32,2.631
			c-0.029,0.024-0.448,0.356-0.448,0.356h10.172l-7.736-6.954C24.702,29.149,25.255,28.722,26.175,28.019z M18.258,40.372
			c0.764-0.486,0.929-1.571,0.098-2.808c-0.128-0.19-0.41-0.554-0.655-0.848c-0.246-0.295-0.124-1.033,0.75-1.773
			c0.178-0.151,0.496-0.443,0.937-0.848l0.006-0.006l6.958,6.283H18.258z M17.467,30.893c0.692-0.684,1.346-1.33,1.952-1.967
			c0.506-0.532,0.629-1.223,0.197-1.51c1.172-0.006,4.985-0.025,6.78-0.03c-2.194,1.468-4.102,3.541-5.774,5.043l0.024-0.034
			l-1.453,1.334l-0.039,0.036l0,0l-0.01,0.009l-0.056,0.051l0,0c-0.407,0.374-0.729,0.669-0.897,0.811
			c-0.737,0.621-0.972,1.196-1.06,1.562c-0.768-0.704-1.652-1.519-2.51-2.272C15.512,32.933,16.496,31.851,17.467,30.893z"/>
		<path fill="#003699" d="M48.827,35.827l3.707-0.019l2.757-3.772l-6.365-0.018l0.068,0.254c0.002,0.008,0.119,0.745,0.163,1.489
			c0.042,0.7-0.293,1.824-0.294,1.833L48.827,35.827z M49.27,35.427c0.135-0.426,0.259-0.901,0.28-1.706
			c0.015-0.587,0-0.826-0.132-1.301l5.019,0.014l-2.071,2.976L49.27,35.427z"/>
		<path fill="#003699" d="M59.261,40.435c-0.037-0.041-3.587-4.13-4.162-4.77l-0.314-0.349l-0.023,0.475
			c-0.051,1.041-0.734,1.116-1.852,1.116c-0.034,0-2.779-0.014-4.459-0.014h-0.145l-0.041,0.142
			c-0.925,2.159-2.596,3.343-2.621,3.354l-0.5,0.382h14.422L59.261,40.435z M46.486,40.372c0.805-0.51,1.328-1.488,2.107-3.08
			c1.719,0.001,4.282,0.014,4.316,0.014c0.862,0,1.913,0,2.18-1.064c0.84,0.929,2.791,3.258,3.583,4.13H46.486z"/>
		<path fill="#003699" d="M47.532,33.748c0.005-0.345-0.096-3.25-2.965-5.175c-1.506-1.01-3.155-1.566-5.663-1.554
			c-1.35,0.006-5.329,0-5.374,0l-0.374-0.001l4.426,6.218l-0.01-2.426c0.798,0,0.186,0.001,0.617,0.002
			c0.46,0.001,0.789,0.001,1.157,0c2.829-0.011,3.765,1.517,3.758,2.875c-0.006,1.199-0.842,2.609-2.695,3.056l-0.266,0.064
			c0,0,2.126,3.243,2.63,4.002C44.241,40.109,47.463,38.374,47.532,33.748z M42.878,40.343c-0.414-0.756-1.202-1.838-1.805-2.777
			c-0.11-0.172-0.219-0.341-0.323-0.503c1.867-0.563,2.713-2.075,2.719-3.373c0.007-1.408-0.839-2.627-2.285-2.889
			c1.749,0.014,5.871-0.318,5.951,2.73C47.215,36.571,45.646,38.884,42.878,40.343z M40.525,30.57L40.525,30.57l0-0.157
			c-0.377,0.001-0.71,0-1.178,0c-0.463-0.001-1.058-0.002-1.957-0.002h-0.183l0.007,1.657l-3.308-4.649
			c1.111,0.002,2.56,0.008,3.681-0.001c0.024,0,1.37,0,1.394,0c3.837,0.003,6.517,1.702,7.648,4.006
			c-1.184-1.037-3.398-1.025-5.562-1.013c-0.199,0.001-0.374,0.002-0.54,0.002L40.525,30.57z"/>
		<path fill="#003699" d="M32.138,28.113c-0.216-0.292-2.107-2.696-2.107-2.696s0,0.63-1.095,2.045
			c-0.798,1.032-1.584,1.681-2.643,2.615c-0.359,0.317-0.699,0.616-1.012,0.906c-0.23,0.212-2.146,2.008-2.171,3.244
			c-0.005,0.271,0.081,0.497,0.256,0.672c0.445,0.445,1.191,1.191,1.862,1.849l0.02,0.02c0.675,0.662,0.815,0.746,2.179,0.738
			c0.581-0.003,1.323-0.002,2.041-0.001l0.587,0.001c1.13,0.001,1.517,0.036,2.093,0.276l0.704,0.293l-0.47-0.6
			c-0.348-0.445-0.526-0.717-0.795-1.128c-0.213-0.325-0.477-0.73-0.924-1.374c-0.846-1.218-1.027-1.361-2.921-1.338
			c0.661-0.655,1.593-1.501,1.897-1.786c0.412,0.57,2.492,3.444,4.235,5.856c1.188,1.643-0.128,2.665-0.185,2.708l-0.483,0.36h8.141
			l-0.231-0.317C41.048,40.359,32.354,28.405,32.138,28.113z M34.28,40.372c0.406-0.513,0.9-1.544-0.082-2.902
			c-1.795-2.483-3.946-5.456-4.267-5.9c0.269-0.261,0.576-0.569,0.874-0.892c0.515-0.558,1.13-1.281,1.336-1.881
			c2.101,2.892,7.268,9.988,8.422,11.574H34.28z M30.336,35.199c0.443,0.639,0.706,1.041,0.918,1.365
			c0.159,0.244,0.287,0.44,0.437,0.651c-0.428-0.095-0.888-0.108-1.635-0.109l-0.587-0.001c-0.719-0.001-1.462-0.002-2.044,0.001
			c-0.491,0.003-0.797-0.003-1.023-0.046c-0.066-0.068-0.805-0.894,0.392-2.411c0.129-0.164,0.325-0.378,0.548-0.609
			C29.499,33.996,29.518,34.021,30.336,35.199z M23.649,34.616c-0.097-0.097-0.142-0.222-0.139-0.382
			c0.017-0.871,1.309-2.282,2.042-2.958c0.31-0.287,0.648-0.584,1.006-0.9c1.083-0.955,1.639-1.451,2.41-2.305
			c0.671-0.744,1.227-1.722,1.208-1.807c0,0,1.397,1.738,1.556,1.974c0.159,0.236,0.265,0.498-1.217,2.168
			c-0.704,0.793-1.655,1.616-1.655,1.616s-1.805,1.653-2.379,2.38c-0.816,1.035-0.835,1.828-0.689,2.331
			c-0.078-0.07-0.162-0.153-0.263-0.251l-0.02-0.02C24.838,35.805,24.093,35.061,23.649,34.616z"/>
		<path fill="#003699" d="M13.328,35.509c-0.532-0.424-3.349-2.728-5.764-4.707l4.407-0.017c0.002,0,0.005,0,0.007,0
			c0.337,0,0.599,0.095,0.778,0.284c0.319,0.335,0.293,0.868,0.293,0.873l-0.034,0.553l4.8-5.476H3.829H3.496
			c-0.014,0-1.439,0.017-1.495,1.488c-0.019,0.484-0.004,1.055,0.05,1.912c0.054,0.867,0.322,1.056,1.61,1.963l0.12,0.084
			c2.174,1.533,4.124,3.112,5.062,3.872c0.237,0.192,0.416,0.337,0.526,0.423c0.051,0.04,0.101,0.08,0.15,0.119
			c-1.061-0.005-3.491-0.014-5.471-0.004c-0.954,0.005-1.529,0.008-1.816,0.652c-0.254,0.571-0.252,1.636-0.247,3.759l0.001,0.498
			l0.343-0.361c0.612-0.644,1.057-0.645,1.415-0.646h0.015c1.746-0.006,9.755-0.006,10.662-0.006c0.701,0,1.238-0.342,1.439-0.914
			C16.008,39.43,16.268,37.854,13.328,35.509z M15.482,39.725c-0.144,0.411-0.531,0.647-1.062,0.647c-0.303,0-1.397,0-2.786,0
			c0.109-0.181,0.208-0.432,0.213-0.756c0.015-0.937-0.737-2.004-2.235-3.171c-0.109-0.085-0.286-0.228-0.52-0.418
			c-0.941-0.762-2.899-2.347-5.083-3.888l-0.12-0.084c-1.3-0.916-1.4-1.001-1.441-1.662c-0.053-0.842-0.068-1.402-0.05-1.872
			c0.033-0.867,0.668-1.054,0.961-1.093c-0.003,0.013-0.007,0.026-0.009,0.039c-0.039,0.22,0.078,0.447,0.35,0.675
			c0.646,0.542,8.455,6.941,9.379,7.678C15.252,37.554,15.745,38.974,15.482,39.725z M3.742,40.378
			c-0.325,0.001-0.789,0.003-1.36,0.454c-0.003-1.716,0.011-2.688,0.213-3.142c0.174-0.39,0.487-0.41,1.453-0.415
			c2.404-0.013,5.474,0.003,5.942,0.006c1.192,1.071,1.461,1.841,1.457,2.319c-0.003,0.438-0.231,0.691-0.319,0.773
			c-2.724,0.001-6.278,0.002-7.372,0.006L3.742,40.378z M16.893,27.418l-3.491,4.079c-0.049-0.222-0.15-0.485-0.354-0.701
			c-0.259-0.274-0.622-0.412-1.079-0.411l-4.889,0.019c-1.567-1.285-2.874-2.359-3.122-2.567c-0.171-0.144-0.223-0.248-0.214-0.299
			c0.008-0.047,0.077-0.096,0.127-0.121H16.893z"/>
	</g>
</g>
</svg>
