<?xml version="1.0" encoding="UTF-8" standalone="no"?>
<svg
   xmlns:dc="http://purl.org/dc/elements/1.1/"
   xmlns:cc="http://creativecommons.org/ns#"
   xmlns:rdf="http://www.w3.org/1999/02/22-rdf-syntax-ns#"
   xmlns:svg="http://www.w3.org/2000/svg"
   xmlns="http://www.w3.org/2000/svg"
   xmlns:sodipodi="http://sodipodi.sourceforge.net/DTD/sodipodi-0.dtd"
   xmlns:inkscape="http://www.inkscape.org/namespaces/inkscape"
   width="64"
   height="64"
   viewBox="0 0 47.999999 47.999999"
   version="1.1"
   id="svg384"
   sodipodi:docname="smash.svg"
   inkscape:version="0.92.3 (2405546, 2018-03-11)">
  <metadata
     id="metadata390">
    <rdf:RDF>
      <cc:Work
         rdf:about="">
        <dc:format>image/svg+xml</dc:format>
        <dc:type
           rdf:resource="http://purl.org/dc/dcmitype/StillImage" />
        <dc:title></dc:title>
      </cc:Work>
    </rdf:RDF>
  </metadata>
  <defs
     id="defs388" />
  <sodipodi:namedview
     pagecolor="#ffffff"
     bordercolor="#666666"
     borderopacity="1"
     objecttolerance="10"
     gridtolerance="10"
     guidetolerance="10"
     inkscape:pageopacity="0"
     inkscape:pageshadow="2"
     inkscape:window-width="1920"
     inkscape:window-height="1017"
     id="namedview386"
     showgrid="false"
     units="px"
     inkscape:pagecheckerboard="true"
     inkscape:zoom="7.0268736"
     inkscape:cx="33.868199"
     inkscape:cy="20.057829"
     inkscape:window-x="-8"
     inkscape:window-y="-8"
     inkscape:window-maximized="1"
     inkscape:current-layer="svg384" />
  <g
     id="#f1f1f1fc"
     transform="matrix(0.1875,0,0,0.1875,-5.0000001e-7,-0.0900005)">
    <path
       d="m 155.23,32.16 c 0.41,-6.08 1.58,-12.1 1.68,-18.21 1.15,0.04 2.3,0.08 3.46,0.12 0.59,6.3 -0.22,12.6 0.02,18.91 0.62,4.94 -4.08,8.35 -4.17,13.18 0.6,-1.19 1.17,-2.4 1.7,-3.62 1.22,-0.44 2.49,-0.73 3.8,-0.63 0.7,4.88 -1.44,9.44 -1.43,14.27 1.86,-0.59 3.95,-1.08 5.18,-2.74 5.02,-6.01 6.77,-13.84 9.88,-20.87 0.99,-1.91 1.35,-4.94 3.87,-5.4 2.05,-0.04 1.82,2.54 1.41,3.92 -1.85,6.68 -3.86,13.32 -5.84,19.97 -0.7,2.72 -2.43,5.13 -2.7,7.95 0.84,1.89 1.86,3.7 2.33,5.74 1.81,0.42 3.65,0.77 5.49,1.06 1,1.15 2.01,2.3 3.03,3.45 1.81,-0.87 3.97,-1.28 5.43,-2.74 2,-4.25 2.86,-8.92 4.26,-13.38 1.93,-6.45 2.09,-13.28 3.98,-19.74 1.42,0.06 3.45,-0.62 3.67,1.43 -0.99,4.95 -0.29,10.04 -1.29,14.98 -0.36,-0.36 -1.06,-1.08 -1.42,-1.44 -0.12,-3.83 0.08,-7.66 0.05,-11.49 -1.25,10.64 -3.97,20.98 -7.25,31.16 -2.7,1.51 -5.55,2.72 -8.47,3.75 -1.05,-1.42 -2.1,-2.83 -3.17,-4.23 -2.18,-0.31 -4.34,-0.66 -6.51,-1 0.05,-0.66 0.15,-1.98 0.2,-2.63 -1.6,-2.09 -3.13,-4.76 -1.98,-7.43 3.78,-8.46 5.59,-17.6 8.32,-26.43 -3.77,7.87 -5.73,16.68 -10.88,23.82 -1.92,3.1 -5.67,4.01 -9.02,4.6 -1.39,-5 1,-9.75 0.95,-14.74 -1.68,3.81 -4.39,7.36 -4.5,11.67 -0.89,0.53 -1.77,1.06 -2.66,1.59 -0.33,-1.71 -0.74,-3.4 -0.9,-5.13 2.01,-5.31 3.29,-10.9 6.19,-15.82 0.78,-6.28 0.43,-12.71 0.65,-19.04 -0.45,5.75 -1.01,11.5 -1.51,17.24 -0.18,2.57 -2.66,3.73 -4.39,5.2 -0.37,1.75 -0.74,3.5 -1.12,5.26 -1.72,1.23 -3.45,2.45 -5.17,3.68 -0.27,4.14 0.3,8.4 -0.64,12.46 -0.91,1.48 -3.14,4.15 -4.83,2.17 -3.37,-2.17 -3.64,-6.36 -4.57,-9.88 -2.47,-7.62 0.93,-15.38 1.25,-23.08 -1.61,9.52 -3.71,18.94 -5.4,28.45 -1.29,0.05 -2.59,0.1 -3.88,0.14 -1.9,-3.53 -3.99,-6.96 -5.7,-10.59 -0.03,0.84 -0.11,2.53 -0.14,3.37 -0.32,-0.01 -0.97,-0.02 -1.29,-0.03 l -0.31,-0.01 c -1.69,-2.21 0.17,-6.78 3.02,-4.58 2.5,3.19 3.83,7.18 6.39,10.37 2.22,-9.65 3.53,-19.49 5.85,-29.13 0,-1.9 1.9,-2.37 3.39,-2.68 1,7.59 -1.87,14.91 -2.32,22.41 0.62,3.83 1.95,7.51 2.66,11.33 0.87,0.88 1.75,1.77 2.64,2.65 2.59,-4.42 1.07,-10.01 2.42,-14.77 1.43,-1.39 3.17,-2.39 4.83,-3.46 0.38,-1.62 0.72,-3.25 0.96,-4.9 1.79,-1.99 4.67,-3.37 4.5,-6.48 z"
       id="path201"
       inkscape:connector-curvature="0"
       style="opacity:1;fill:#f1f1f1" />
    <path
       d="m 99.6,15.53 c 1.13,0.19 2.95,-0.42 3.34,1.09 1.63,4.41 2.26,9.11 3.64,13.6 0.01,-2.2 -0.02,-4.45 0.89,-6.51 0.91,0.04 1.83,0.09 2.74,0.13 3.22,11.25 5.71,22.7 8.98,33.94 0.51,0.04 1.53,0.12 2.04,0.16 l 0.47,0.04 c 0.34,-1.63 -0.55,-4.33 1.58,-4.95 0.17,2.02 0.33,4.03 0.46,6.05 -1.72,0.52 -3.44,1.06 -5.15,1.6 -1.93,-3.08 -2.56,-6.69 -3.44,-10.15 -1.86,-7.23 -3.81,-14.43 -5.54,-21.69 -0.12,0.91 -0.37,2.73 -0.5,3.64 -1.4,0.03 -2.8,0.01 -4.19,-0.04 -0.78,-3.58 -1.6,-7.15 -2.62,-10.66 0.25,3.88 1.06,7.69 1.55,11.54 1.87,0.37 3.73,0.75 5.59,1.13 1.85,9.19 4.21,18.3 5.38,27.6 -4.95,0.8 -8.28,4.94 -12.23,7.66 -1.63,-2.11 -2.99,-4.45 -4.85,-6.38 -2.33,-1.75 -5.16,-2.65 -7.73,-3.95 0.41,-0.68 0.86,-1.34 1.54,-1.79 2.53,1.36 5.26,2.42 7.58,4.12 1.4,1.46 2.47,3.19 3.9,4.6 3.46,-1.72 5.98,-5.01 9.82,-6 -1.79,-7.97 -3.26,-16.02 -4.94,-24.02 -1.63,-0.35 -3.25,-0.71 -4.87,-1.07 -0.28,-0.44 -0.85,-1.3 -1.13,-1.74 -0.56,-6.01 -2.84,-11.84 -2.31,-17.95 z"
       id="path203"
       inkscape:connector-curvature="0"
       style="opacity:1;fill:#f1f1f1" />
    <path
       d="m 57.04,25.04 c 1.16,0.41 2.59,0.41 3.49,1.37 5.2,5.2 9.95,10.81 15.02,16.13 1.38,1.44 2.44,3.14 3.29,4.94 1.66,0.41 3.34,0.77 4.95,1.34 2.49,1.61 3.91,4.32 5.62,6.64 -0.33,0.88 -0.69,1.78 -1.37,2.46 -1.22,-2.05 -2.21,-4.32 -3.96,-5.99 -1.8,-1.9 -4.62,-1.89 -6.97,-2.62 -0.68,-2.31 -2.04,-4.29 -3.74,-5.96 1.32,1.97 2.76,3.87 3.56,6.13 1.88,0.58 3.88,0.91 5.61,1.88 1.54,1.53 2.64,3.42 4,5.1 2.68,3.36 6.31,5.75 9.6,8.45 0.67,5.25 4.13,10.18 3.38,15.5 -5.74,0.07 -11.08,2.29 -16.58,3.63 -3.62,-4.52 -8.17,-8.1 -12.35,-12.06 2.61,-0.69 5.2,-1.47 7.67,-2.59 -1.66,-1.35 -3.33,-2.69 -4.96,-4.08 0.14,0.66 0.42,1.97 0.56,2.63 -3.49,0.91 -7.17,4.21 -10.81,2.07 -6.32,-2.99 -12.7,-5.86 -19.04,-8.81 4.43,2.81 9.01,5.38 13.64,7.82 -0.23,1.94 0.05,4.05 -0.81,5.85 -1.18,1.13 -2.59,1.98 -3.91,2.93 1.94,-0.65 3.96,-1.1 5.78,-2.05 1.13,-1.52 0.72,-3.71 1.21,-5.47 3.62,2.25 7.12,4.7 10.92,6.64 4.1,1.75 4.63,6.77 6.87,10.15 -0.94,2.48 -2.27,4.87 -4.83,5.95 -0.55,2.39 -1.09,4.77 -1.61,7.17 -2.01,1.87 -3.82,4.12 -6.32,5.36 -2.3,0.33 -4.62,0.17 -6.92,0.15 -1.19,-1.1 -2.33,-2.26 -3.65,-3.2 -3.74,-0.18 -7.53,-0.58 -10.92,-2.31 -3.88,-3.22 -5.32,-9.35 -10.64,-10.72 -5.66,-1.6 -11.01,-4.2 -16.8,-5.34 5.2,1.41 10.13,3.64 15.27,5.24 1.65,0.66 3.66,1 4.74,2.58 2.27,3.23 4.27,6.66 6.01,10.2 5.89,1.76 13.04,2.46 16.76,8 -0.4,1.89 -1.99,3.22 -3.03,4.77 -0.02,1.2 -0.03,2.4 -0.05,3.61 -8.57,0.13 -17.17,0.02 -25.7,1.1 8.7,-0.23 17.35,0.97 25.99,1.74 -0.92,2.76 -1.01,6.26 -3.55,8.11 -5.4,4.68 -13.07,2.67 -19.55,4.22 -0.31,-0.4 -0.94,-1.2 -1.26,-1.6 5.19,-1.4 10.6,-1.24 15.89,-1.93 1.55,-0.97 3.09,-1.96 4.63,-2.96 0.43,-1.48 0.86,-2.95 1.29,-4.43 -8.19,0.1 -16.31,-1.15 -24.47,-1.65 -1.51,-0.62 -1.91,-1.69 -1.19,-3.22 1.21,-0.97 2.81,-0.7 4.24,-0.77 7.18,0.17 14.3,-1.13 21.49,-0.68 0.63,-2.23 1.48,-4.39 2.63,-6.41 -3.91,-3.6 -9.29,-4.59 -14.28,-5.75 -6.26,-0.99 -12.57,-1.68 -18.85,-2.52 -3.75,-0.52 -7.8,-0.56 -11.03,-2.81 1.87,-2.74 5.34,-1.71 8.11,-1.59 5.93,0.89 11.92,1.4 17.89,1.97 C 36.64,97.06 35.65,94.4 33.61,92.61 23.7,88.6 13.45,85.5 3.52,81.55 2.22,81.05 1.02,80.32 0,79.38 v -2.15 c 3.62,0.23 7.03,1.54 10.47,2.58 8.69,3 17.52,5.62 26.11,8.88 3.22,2.62 5.12,6.55 7.74,9.74 2.16,0.71 4.33,1.39 6.5,2.04 3.78,-1.98 6.41,1.73 9.08,3.8 3.92,0.38 7.05,-2.26 9.23,-5.2 1.24,-2.34 1.09,-5.25 2.53,-7.47 1.48,-1.3 2.98,-2.62 3.71,-4.51 -1.25,-2.44 -2.16,-5.1 -3.83,-7.28 -3.27,-2.06 -6.78,-3.7 -9.88,-6.02 -0.48,1.29 -0.97,2.58 -1.47,3.86 -2.75,0.77 -5.43,1.89 -8.27,2.27 -1.87,-0.04 -2.3,-2.86 -0.8,-3.7 2.16,-1.31 4.23,-2.8 4.96,-5.37 -5.05,-3.42 -10.7,-5.85 -15.72,-9.3 -1.83,-1.16 -0.84,-4.24 1.44,-3.36 8.09,2.88 15.57,7.26 23.51,10.48 2.21,-0.05 4.16,-1.39 6.18,-2.15 0.05,-0.78 0.13,-2.34 0.18,-3.12 3.39,-0.2 5.88,2.5 8.15,4.64 1.32,3.64 -2.65,4.17 -5.16,4.87 3.32,2.68 6.26,5.78 9.26,8.81 4.63,-1.12 9.09,-3.16 13.93,-3.31 -1.34,-4.15 -2.41,-8.38 -3.72,-12.54 -2.52,-1.86 -5.16,-3.59 -7.5,-5.68 -2.01,-2.34 -3.6,-5 -5.49,-7.44 C 78.63,52.11 75.27,52.26 74.61,49.09 69.8,41.82 63.18,35.88 58.01,28.84 57.04,27.82 57.26,26.32 57.04,25.04 Z"
       id="path205"
       inkscape:connector-curvature="0"
       style="opacity:1;fill:#f1f1f1" />
    <path
       d="m 197.33,49.4 c 3.63,1.46 -0.18,6.19 -0.48,8.96 1.88,-0.12 3.98,-1.05 5.7,0.14 0.73,0.9 0.18,2.65 -0.9,3.03 -2.59,1.41 -5.4,2.52 -7.65,4.46 -1.33,3.17 -2.79,6.28 -4.9,9.02 1.59,1.98 3.4,3.78 4.73,5.96 -0.54,0.54 -1.62,1.61 -2.16,2.15 0.88,1.49 1.64,3.07 2.71,4.44 2.73,-1.06 5.6,-1.58 8.54,-1.46 2.32,-3.24 5.92,-5.35 9.9,-5.74 -1.79,-4.41 -4.99,-8.59 -5.02,-13.46 4.93,-4.05 6.47,-10.68 10.44,-15.5 0.78,-0.24 2.33,-0.7 3.1,-0.93 0.72,3.73 -0.24,7.57 -2.17,10.78 -1.77,2.82 -2.5,6.17 -4.57,8.81 1.03,2.41 1.81,4.99 3.4,7.11 3.55,0.9 4.51,-5.04 8.01,-4.73 3.21,0.57 6.28,1.7 9.46,2.43 0.02,0.29 0.06,0.86 0.08,1.15 l -0.11,0.02 c -3.36,0.8 -6.63,-1.13 -9.93,-1.72 -2.16,2.9 -4.87,5.57 -8.8,5.33 -1.76,-3.71 -3.72,-7.35 -4.87,-11.31 0.6,-0.26 1.8,-0.79 2.4,-1.06 1.23,-5.02 5.19,-9 5.45,-14.33 -2.81,4.31 -5.55,8.72 -7.59,13.45 -0.94,0.48 -1.87,0.96 -2.8,1.43 1.68,4.82 5.42,9.16 5.28,14.43 -4.4,-0.18 -7.94,2.5 -10.65,5.66 -3.76,0.46 -7.53,0.84 -11.15,2.06 -0.8,-1.84 -1.61,-3.67 -2.45,-5.49 -1.36,-0.06 -2.71,-0.13 -4.06,-0.19 0.18,-1.77 0.36,-3.54 0.56,-5.3 1.47,0.45 2.94,0.94 4.41,1.44 -1.74,-1.8 -3.43,-3.62 -5.14,-5.44 2.05,-2.35 4.18,-4.75 5.01,-7.84 1.02,-4.14 5.67,-5.28 9,-7.01 -2.21,0.37 -4.41,0.76 -6.61,1.15 1.23,-3.9 3.02,-7.64 3.59,-11.74 z"
       id="path207"
       inkscape:connector-curvature="0"
       style="opacity:1;fill:#f1f1f1" />
    <path
       d="m 150.38,63.49 c 3.74,-1.36 7.75,-1.97 11.71,-2.26 4.14,0.9 7.96,3.71 8.86,8.06 1.91,0.45 4.36,0.07 5.68,1.82 2.15,2.56 4.05,5.32 6.14,7.93 -0.08,1.44 -0.15,2.88 -0.22,4.32 2.15,1.77 4.68,3.16 6.47,5.33 1.84,4.52 2.78,9.36 4.65,13.88 1.51,3.54 3.91,6.65 5.09,10.35 1.8,5.72 6.35,10.02 8.52,15.58 0.7,8.13 -0.07,16.35 1.06,24.47 0.46,1.95 -0.69,3.64 -1.56,5.27 0.23,6.37 -3.01,12.03 -6.65,17 -1.97,1.65 -4.35,2.8 -6.08,4.76 -4.17,0.7 -8.41,1.17 -12.38,2.72 -5.7,0.65 -11.35,1.52 -16.7,3.71 -1.14,-1.13 -2.44,-2.08 -4,-2.48 2.38,-0.28 5,-0.4 6.97,-1.94 1.49,-1.46 2.32,-3.42 3.33,-5.2 -0.32,-3.63 -1.06,-7.19 -1.82,-10.75 1.87,2.28 1.28,6.43 4.49,7.32 -0.09,-2.02 -0.21,-4.02 -0.35,-6.03 0.42,0.09 1.26,0.27 1.68,0.36 0.25,2.5 0.41,5 0.53,7.5 -1.17,-0.78 -2.9,-3.52 -4.07,-1.27 0.71,3.95 -0.77,7.67 -3.75,10.28 2.34,-1.94 5.17,-2.76 8.16,-2.97 0.25,-0.56 0.74,-1.66 0.99,-2.22 0.43,0.52 1.29,1.56 1.72,2.08 -0.02,-1.51 -0.04,-3.02 -0.03,-4.52 0.83,1.26 1.63,2.55 2.45,3.83 0,-2.15 0.01,-4.32 0.4,-6.44 0.54,1.81 0.56,3.91 1.88,5.41 0.06,-2.57 -0.64,-5.2 0.27,-7.69 0.46,2.21 0.84,4.43 1.36,6.63 0.63,-2.54 0.21,-5.14 0.06,-7.71 2.32,2.04 2.03,5.38 2.98,8.09 1.97,-0.18 3.84,-0.85 5.7,-1.5 0.83,-1.36 1.67,-2.72 2.52,-4.08 -0.63,-2.35 -1.1,-4.76 -1.16,-7.2 1.45,2.65 1.78,5.73 3.16,8.42 0.02,-0.82 0.05,-2.45 0.07,-3.26 0.59,0.09 1.78,0.27 2.37,0.37 -0.86,-3.23 -2.06,-6.4 -2.37,-9.75 2.35,1.83 1.15,6.49 4.26,7.2 -1.04,-3.34 -2.48,-6.62 -2.61,-10.16 1.85,2.48 2.04,5.74 3.63,8.38 -0.1,-2.55 -0.57,-5.05 -1.07,-7.53 0.94,1.06 1.9,2.11 2.86,3.17 -0.75,-3.19 -2.05,-6.23 -2.55,-9.48 1.12,1.71 2.15,3.48 3.31,5.17 -0.39,-2.77 -1.92,-5.81 -0.16,-8.43 0.18,-7.01 0.14,-14.04 0.19,-21.05 -2.1,-3.07 -4.06,-6.23 -6.15,-9.31 0.09,2.96 0.29,5.91 0.31,8.86 -2.65,-3.13 -1.63,-7.69 -2.5,-11.49 -0.22,-3.7 -1.85,-7.1 -4.36,-9.79 -0.97,0.19 -1.94,0.37 -2.91,0.55 1.2,1.77 2.41,3.54 3.44,5.42 -1.86,-1.37 -3.55,-2.94 -5.37,-4.35 1.3,3.08 4.42,4.99 5.37,8.26 -3.23,-3.1 -7.45,-6.45 -6.56,-11.51 1.51,-1.82 3.35,-3.99 2.79,-6.54 -0.66,-2.91 -1.47,-5.81 -2.66,-8.55 -0.57,0.01 -1.73,0.05 -2.3,0.07 -0.41,-0.72 -1.22,-2.14 -1.62,-2.86 0.38,2.59 0.79,5.18 0.84,7.79 -2.55,-4.72 -3.28,-10.19 -2.9,-15.5 -2.16,-2.51 -4.22,-5.09 -6.2,-7.75 -0.86,0.17 -1.71,0.34 -2.57,0.52 -0.21,-0.3 -0.64,-0.9 -0.85,-1.2 -4.52,1.51 -2.66,-5.44 -6.24,-6.58 -7.42,-3.84 -16.21,0.09 -22.19,4.92 3.41,-0.08 5.91,-2.86 9.24,-3.21 2.88,-0.46 5.77,-0.9 8.69,-1.06 -2.65,2.6 -6.81,1.5 -9.83,3.35 -3.24,2.09 -5.62,5.2 -7.74,8.37 1,0.13 2.99,0.38 3.99,0.51 -1.21,0.99 -2.47,1.91 -3.66,2.91 0.69,3.97 2.46,7.86 4.89,11.11 -0.09,-3.35 -1.87,-6.27 -2.83,-9.4 2.42,1.18 2.65,4.05 3.57,6.27 2.02,6.96 4.67,14.15 3.39,21.51 -1,-3.28 -1.58,-6.7 -2.08,-10.1 -0.23,0.03 -0.71,0.08 -0.95,0.11 0.08,-1.95 0,-3.9 -0.38,-5.81 -0.41,2.18 -0.74,4.39 -1.28,6.55 1.25,7.1 2.62,14.18 3.91,21.27 2.87,-2.74 3.36,-7.04 6.26,-9.75 -0.04,4.76 -3.11,8.74 -3.73,13.38 -0.42,2.97 -0.92,6 -0.62,9.01 0.67,3.52 1.84,6.93 2.47,10.46 2.39,0.28 4.97,0.14 7.05,1.54 -2.02,0.29 -4.07,0.43 -6.1,0.6 0.7,4.13 4.39,8.81 9.01,7.47 4.58,-0.7 9.12,-1.63 13.73,-2.07 -0.67,-0.47 -1.33,-0.95 -2,-1.41 -2.02,0.52 -4.06,1.02 -6.14,1.24 1.15,-1.51 3.2,-1.43 4.82,-2 -1.2,-0.56 -2.55,-0.73 -3.83,-0.94 1.2,-0.7 2.41,-1.4 3.61,-2.11 -0.87,-0.14 -2.61,-0.41 -3.47,-0.54 4.56,-1.83 9.46,-2.56 14.16,-3.94 l -0.13,1.09 c -0.84,0.49 -2.53,1.47 -3.37,1.96 1.39,-0.14 2.78,-0.31 4.17,-0.51 -0.07,-1.29 -0.13,-2.57 -0.17,-3.86 -4.64,0.85 -9.11,2.7 -13.87,2.88 4.02,-2.95 9.85,-1.77 13.68,-4.89 -4.71,-0.4 -9.18,2.94 -14.05,2.49 4.52,-2.21 9.52,-3.01 14.35,-4.28 0.71,-3.85 -0.84,-7.59 -2.28,-11.08 3.9,-3.55 1.49,-9.39 2.08,-13.95 3.16,2.76 5.36,6.33 6.14,10.46 0.54,0.26 1.64,0.78 2.18,1.04 0.96,3.05 -1.46,4.48 -3.82,5.73 0.86,0.09 2.57,0.27 3.43,0.35 0.87,1.41 2.5,3.42 -0.05,4.25 0.9,0.93 1.8,1.88 2.7,2.82 -0.85,0.34 -1.7,0.68 -2.55,1.02 -0.86,-0.68 -1.73,-1.35 -2.62,-1.99 0.91,1.45 1.89,2.84 2.96,4.18 L 194,140.45 c 0.28,0.57 0.84,1.71 1.11,2.28 -0.52,0.02 -1.56,0.07 -2.09,0.1 0.78,0.75 2.32,2.26 3.09,3.02 l -3.16,-0.31 c 0.54,0.53 1.61,1.59 2.15,2.12 -3.69,-0.94 -5.14,2.94 -7.71,4.57 -4.31,2.44 -9.25,3.31 -14.04,4.32 0.02,0.86 0.05,2.58 0.07,3.44 -1.31,-1.54 -2.68,-3.11 -4.91,-2.76 -0.07,1.66 -0.13,3.33 -0.16,5 -3.99,-2.97 -8.96,-1.07 -13.04,0.62 -2.52,1.55 -4.99,3.24 -7.82,4.17 0.35,2.62 0.71,5.25 0.71,7.9 2.24,-0.13 4.47,-0.26 6.71,-0.37 -2.21,0.8 -4.42,1.63 -6.62,2.46 0.33,0.67 0.99,2.01 1.32,2.68 0,1.1 0.01,2.21 0.02,3.31 -1.16,-4.13 -2.1,-8.32 -2.3,-12.62 -0.59,0.03 -1.76,0.1 -2.35,0.13 -0.07,6.02 1.67,12.19 5.65,16.81 -0.42,0.1 -1.25,0.31 -1.66,0.41 -1.66,-2.28 -3.21,-4.64 -4.84,-6.93 -4.55,0.12 -9.4,-0.8 -13.59,1.43 -6.6,2.43 -15.15,3.27 -21.03,-1.32 -0.37,-0.81 -0.12,-1.66 0.06,-2.46 1.67,-0.36 3.33,-0.75 4.99,-1.12 -0.11,-0.8 -0.22,-1.59 -0.33,-2.37 1.49,-0.39 2.98,-0.8 4.45,-1.25 -0.8,-0.17 -2.4,-0.51 -3.19,-0.68 1.64,-0.91 3.32,-1.75 4.97,-2.63 -2.12,0.08 -4.24,0.23 -6.36,0.3 2.04,-0.78 4.13,-1.39 6.2,-2.09 -2.87,-0.76 -5.58,0.53 -8.06,1.83 0.1,-1.18 0.18,-2.35 0.26,-3.52 1.02,-0.48 2.05,-0.95 3.07,-1.46 -1.33,0.02 -2.64,0.1 -3.96,0.13 l -0.16,-0.51 c 0.89,-0.08 2.66,-0.25 3.55,-0.33 1.07,-1.14 2.19,-2.24 3.28,-3.36 -1.65,0.38 -3.26,0.85 -4.92,1.14 1.52,-0.83 3.75,-0.99 4.31,-2.96 -0.59,0.06 -1.78,0.17 -2.37,0.22 1.62,-0.6 1.18,-2.03 0.79,-3.33 -1.37,-5.41 -3.28,-10.65 -5.92,-15.57 0.29,-0.46 0.88,-1.37 1.18,-1.82 -0.81,-2.03 -1.6,-4.07 -2.33,-6.13 -0.89,-0.56 -1.77,-1.13 -2.66,-1.69 1.85,-4.5 -0.27,-9.93 3.26,-13.83 0.23,-0.05 0.69,-0.15 0.91,-0.2 2.84,5.71 4.13,12.03 6.71,17.86 1.64,-7.56 -2.41,-14.68 -3.85,-21.95 -0.67,0.09 -2.01,0.28 -2.68,0.37 -0.38,-0.92 -1.14,-2.76 -1.52,-3.68 0.69,-0.02 2.06,-0.05 2.75,-0.06 -0.96,-3.87 -2.18,-7.7 -2.72,-11.66 -0.27,-0.01 -0.79,-0.04 -1.05,-0.05 0.75,2.63 1.38,5.28 1.96,7.95 0.34,0.8 1.04,2.38 1.39,3.17 -0.95,-0.13 -1.89,-0.26 -2.83,-0.39 -1.11,-6.38 -3.72,-12.37 -5.35,-18.63 -1.86,0.19 -3.74,0.29 -5.57,0.71 -0.42,4.03 -1.59,7.89 -3.19,11.62 -1.54,3.12 -0.02,6.48 0.58,9.64 1.28,-4.47 2.43,-8.98 3.57,-13.49 0.29,-0.15 0.88,-0.44 1.17,-0.58 0.25,-0.58 0.74,-1.73 0.99,-2.31 2,3.86 2.28,8.29 3.94,12.27 0.89,0.97 2.23,1.3 3.36,1.91 1.23,3.1 -0.43,5.88 -2.27,8.29 -1.79,-5.95 -3.13,-12.01 -4.64,-18.03 -0.3,-0.01 -0.91,-0.04 -1.21,-0.05 -2.37,5.11 -1.21,11.18 -2.49,16.65 -0.95,0.25 -1.91,0.5 -2.87,0.73 -0.63,-1.62 -1.27,-3.24 -1.91,-4.86 0.08,-0.48 0.23,-1.45 0.31,-1.94 -0.62,-0.13 -1.85,-0.39 -2.47,-0.52 0.46,-0.25 1.39,-0.75 1.85,-1 -1.91,0.17 -3.8,0.44 -5.71,0.54 1.82,-0.52 3.65,-0.98 5.48,-1.44 l -0.25,-1.91 c -0.41,0.08 -1.24,0.23 -1.65,0.31 0.41,-0.63 1.23,-1.9 1.64,-2.53 -2.06,0.38 -4.13,0.75 -6.11,1.44 2.59,-1.39 6.01,-2.18 7.39,-5.07 1.11,-2.76 1.84,-5.69 2.2,-8.64 -0.53,-1.03 -1.55,-1.63 -2.39,-2.38 3.26,0.13 6.34,-1.05 9.38,-2.07 0.57,-1.5 1.16,-2.99 1.74,-4.49 -0.94,0.61 -1.88,1.21 -2.82,1.81 -0.16,0.26 -0.47,0.77 -0.63,1.03 -0.57,-0.3 -1.72,-0.88 -2.29,-1.17 0.06,0.59 0.18,1.79 0.24,2.38 -1.54,-0.54 -3.01,-1.48 -4.67,-1.52 -3.99,1.22 -7.9,2.9 -11.24,5.43 -1.44,1.08 -3.04,2.36 -2.92,4.45 3.46,-2.24 6.9,-5.01 11.23,-5.1 -0.56,1.8 -2.51,2.08 -3.99,2.77 -3.01,1.2 -5.57,3.22 -8.32,4.89 -1.18,3.59 -2.98,7.18 -2.6,11.05 1.52,8.85 6.16,17.02 6.55,26.08 0.85,7.38 4.16,14.06 6.94,20.83 0.97,0.03 1.94,0.05 2.92,0.07 1.38,-5.08 0.39,-10.6 -2.68,-14.87 -3.42,-4.72 -3.85,-10.62 -5.45,-16.04 4.92,3.78 3.84,10.6 7.18,15.36 2.47,3.66 3.6,7.93 3.98,12.29 2.92,-1.62 6.12,-3.14 9.55,-2.24 -4.82,2.15 -10.37,3.21 -13.94,7.45 -0.47,-0.58 -0.94,-1.16 -1.42,-1.73 -0.67,3.15 1.55,5.76 1.9,8.77 0.57,3.51 1.36,7.08 3.19,10.18 1.81,1.78 3.93,3.28 6.21,4.4 2.43,0.27 5.18,-0.42 7.34,1.03 l -0.26,0.45 c -3.97,1.2 -8.16,1.17 -12.22,1.89 -4.81,0.62 -9.58,2.18 -14.48,1.6 0.26,3.96 0.23,7.93 0.1,11.89 3.3,2.26 6.73,5.46 11.07,4.22 0.54,-3.33 0.59,-6.71 0.49,-10.07 1.23,0 2.46,0 3.7,0.02 -0.29,12.29 0.33,24.58 -0.12,36.86 3.85,-0.37 7.68,-0.81 11.54,-1.08 0.04,-3.38 0.04,-6.75 0.01,-10.12 -2.83,0.9 -5.64,1.9 -8.52,2.69 2.77,-1.41 5.62,-2.63 8.46,-3.87 0.18,-8.25 0.02,-16.5 0.09,-24.75 1.23,-0.01 2.46,-0.02 3.69,-0.03 0.42,7.66 -0.13,15.33 0.34,22.99 2.38,-0.88 4.14,-2.57 4.95,-4.97 0.82,-2.68 3.83,-3.14 6.03,-4.23 0.13,-6.53 -0.05,-13.06 0.12,-19.59 0.96,0.01 2.89,0.03 3.85,0.04 0,6.02 -0.07,12.04 0.05,18.06 2.29,1.91 4.5,3.91 6.61,6.02 -2.21,-0.93 -4.42,-1.85 -6.66,-2.69 -0.02,6.52 -0.03,13.04 0.02,19.57 3.73,-0.05 7.45,-0.05 11.18,-0.02 0.02,-4.24 0,-8.49 0.06,-12.73 0.95,0.02 2.83,0.05 3.77,0.07 0.05,4.25 0.04,8.5 0.05,12.75 3.75,0.08 7.5,0.2 11.26,0.33 -0.05,-8.39 0.04,-16.78 -0.06,-25.17 -2.88,0.75 -5.34,-0.63 -7.51,-2.37 1.31,0.33 2.61,0.67 3.91,1.03 1.21,-0.36 2.43,-0.72 3.64,-1.07 0,-2.85 -0.05,-5.7 -0.01,-8.55 0.28,-0.35 0.83,-1.07 1.11,-1.42 1.82,-0.81 3.68,-1.77 5.75,-1.24 -0.8,0.06 -2.38,0.18 -3.17,0.25 0.19,3.49 0.21,6.99 0.18,10.5 2.77,-0.21 5.54,-0.42 8.31,-0.59 0.94,2.04 1.9,4.07 2.9,6.08 2.67,-0.38 5.34,-0.68 8.03,-0.92 0.65,0.56 1.3,1.11 1.96,1.67 -3.52,0.17 -7.02,0.52 -10.53,0.79 -1.16,-2.14 -2.4,-4.23 -3.73,-6.26 -2.28,0.52 -4.59,0.91 -6.9,1.27 -0.04,2.82 -0.04,5.64 -0.03,8.47 5.06,0.19 10.13,0.34 15.15,1.07 -0.02,3.5 -0.01,6.99 -0.01,10.49 -1.32,-0.15 -2.63,-0.3 -3.94,-0.46 0.02,-2.61 0.02,-5.22 -0.01,-7.83 -3.74,-0.22 -7.48,-0.38 -11.22,-0.44 0.04,5.07 -0.04,10.15 0.1,15.23 8.78,0.56 17.51,1.86 26.15,3.52 0.17,-8.91 0.04,-17.82 0.08,-26.72 -1.75,0.13 -3.49,0.27 -5.23,0.4 0.36,-0.86 0.74,-1.71 1.1,-2.57 -3.63,1.01 -7.44,0.41 -11.04,-0.36 0.11,-3.36 0.11,-6.72 0.08,-10.08 1.3,-0.04 2.6,-0.07 3.9,-0.11 0.02,2.68 0.03,5.35 0.02,8.03 3.84,0.69 7.74,0.94 11.64,0.91 0.09,-5.44 -0.17,-10.9 0.26,-16.33 0.8,-0.06 2.39,-0.19 3.19,-0.25 0,6.25 -0.01,12.5 0.01,18.75 2.1,-0.07 3.95,-0.89 5.36,-2.44 0.55,0.14 1.64,0.42 2.18,0.56 0.82,1.1 1.66,2.19 2.52,3.26 -1.29,-0.67 -2.73,-2.69 -4.26,-1.45 -1.69,1.33 -3.65,2.11 -5.76,2.45 -0.15,8.85 0.06,17.71 -0.12,26.56 3.75,1.23 7.55,2.28 11.34,3.38 0.42,-6.93 0.1,-13.88 0.2,-20.81 1.19,0.13 2.38,0.27 3.58,0.41 0.11,5.82 0.05,11.64 0.02,17.45 0.1,1.52 -0.18,3.21 0.64,4.59 3.74,1.85 7.53,3.68 10.84,6.29 0.07,-19.74 -0.02,-39.47 0.04,-59.2 -3.71,-0.11 -7.43,-0.11 -11.15,-0.14 -0.81,7.34 0.09,14.75 -0.58,22.1 -0.85,-0.26 -2.55,-0.76 -3.4,-1.01 0.02,-6.98 0,-13.95 0.01,-20.92 -1.4,-0.22 -2.81,-0.44 -4.2,-0.7 l -0.5,-0.91 c 1.93,-1.74 4.31,-2.79 6.54,-4.04 1.5,-1.38 2.53,-3.18 3.72,-4.81 1.45,0.21 2.9,0.42 4.35,0.63 2.19,1.12 4.49,2.02 6.79,2.88 -3.2,-1.85 -6.29,-3.87 -9.54,-5.64 0.13,-2.43 1.59,-4.47 2.66,-6.57 3.89,2.95 8.39,4.85 13.27,5.41 0.31,1.82 0.15,3.79 0.99,5.48 1.89,-0.8 3.72,-1.76 5.59,-2.64 0.35,0.45 1.06,1.35 1.42,1.8 3.19,0.08 6.39,0.43 9.41,1.55 -0.43,-0.79 -1.45,-1.56 -0.91,-2.54 2.42,-0.05 4.25,1.39 4.1,3.98 -3.32,0.9 -6.58,-0.55 -9.88,-0.79 -1.76,-0.13 -3.57,-0.21 -5.08,-1.23 -1.93,1.11 -4,1.93 -6.24,2.04 -0.56,-1.87 -0.56,-4.02 -1.29,-5.75 -3.61,-1.22 -7.48,-1.87 -10.59,-4.27 -0.53,0.88 -1.06,1.77 -1.59,2.66 0.9,0.12 1.8,0.24 2.71,0.36 1.94,2.72 6.36,3.06 7.36,6.38 -0.44,0.5 -1.33,1.5 -1.77,2 -3.56,-1.14 -7.04,-2.49 -10.56,-3.74 -1.75,2.76 -3.87,5.26 -7,6.45 0.66,0.28 1.33,0.52 2.02,0.74 4.87,-1.33 10.52,-1.83 15.24,0.22 -0.14,20.47 -0.02,40.93 -0.06,61.39 -1.38,0.01 -2.77,0.01 -4.14,0.01 -3.35,-3.37 -8.35,-4.15 -11.67,-7.49 -5.08,0.16 -9.85,-2.02 -14.58,-3.59 -6.63,-0.38 -13.05,-2.43 -19.71,-2.72 -3.48,-0.61 -7.21,-0.15 -10.45,-1.75 -4.62,0.93 -9.3,0.2 -13.92,-0.31 -0.27,-0.16 -0.81,-0.49 -1.08,-0.65 -4.92,1.27 -10.23,0.98 -15.22,0.18 -4.97,1.17 -10.11,1.58 -15.19,0.9 -4.74,1.49 -9.84,1.69 -14.79,1.61 l -1.99,0.19 c -0.67,-9.44 0.09,-18.94 -0.34,-28.41 -1.39,0.67 -2.75,1.41 -4.19,1.95 -2.51,-0.69 -4.76,-2.06 -7.13,-3.09 -0.16,9.97 0.04,19.94 -0.11,29.91 3.24,-0.12 6.74,-2 9.53,0.45 -2.92,0.9 -6.03,1.09 -9.01,1.77 -0.45,-0.13 -1.36,-0.39 -1.81,-0.52 l -2.25,0.49 c 0.47,-9.88 0.01,-19.76 0.29,-29.64 -5.15,0.04 -10.22,1.05 -15.33,1.52 l 0.04,-2.29 1.43,0.46 c -2.64,-2.39 -1.2,-6.66 -1.1,-9.82 0.73,-0.11 2.2,-0.33 2.93,-0.44 0.05,3.03 0.04,6.06 0.01,9.09 3.99,-0.19 7.98,-0.57 11.96,-1.02 -0.22,-1.32 -0.42,-2.64 -0.92,-3.89 -2.12,-5.91 -8.23,-8.08 -13.32,-10.74 4.17,1.18 8.22,2.71 12.22,4.37 0.33,0.68 1,2.02 1.34,2.69 0.05,-3.31 0.19,-6.63 0.87,-9.88 -8.99,0.39 -17.99,0.12 -26.99,0.18 -0.13,11.53 -0.01,23.07 -0.06,34.6 4.96,-1.68 9.89,-3.6 15.15,-4.11 0.01,4.02 0.01,8.04 0.01,12.06 -1.31,0.26 -2.62,0.51 -3.94,0.77 0.02,-2.97 0.03,-5.94 0,-8.91 -3.93,0.85 -7.76,2.2 -11.26,4.21 0.11,6.92 -0.01,13.84 0.08,20.76 6.08,-5.2 13.67,-8.13 21.38,-9.9 1.68,-0.28 3.36,-0.52 5.04,-0.73 l -0.8,1.83 c -8.12,1.95 -16.93,3.91 -23.14,9.9 -1.49,0.01 -2.97,0.02 -4.46,0.02 -0.01,-6.34 0.01,-12.68 -0.03,-19.02 -0.04,-1.61 0.09,-3.25 0.81,-4.71 -0.2,-0.29 -0.59,-0.86 -0.79,-1.15 -0.01,-12.22 0.05,-24.45 -0.03,-36.67 6.64,-2.27 13.9,-0.45 20.8,-1.13 -1.78,-0.7 -4.07,-0.8 -5.07,-2.67 -2.27,-3.39 -4.25,-6.96 -6.42,-10.41 -2.37,0.21 -5.04,0.02 -7.04,1.5 -0.82,1.56 -1.33,3.26 -2.18,4.81 -3.24,1.78 -7.1,2.01 -10.61,3.09 -1,1.07 -1.91,2.36 -3.37,2.85 -5.31,2.06 -10.63,4.14 -16.03,5.95 -0.77,-0.83 -1.54,-1.67 -2.29,-2.51 4.42,-3.98 10.39,-5.32 15.32,-8.47 1.36,-1.38 1.49,-3.55 2.43,-5.21 2.97,-3.69 9.91,-1.96 11.76,-6.86 1.82,-0.5 3.7,-0.64 5.59,-0.68 1.29,-0.95 2.62,-1.84 3.87,-2.84 -0.44,-2.51 -0.38,-5 0.56,-7.4 -4.37,-0.99 -8.62,0.99 -12.75,2.14 -2.73,0.24 -5.5,-1.01 -8.17,-0.05 -6.58,2.09 -13.21,4.01 -19.78,6.13 -1.72,0.64 -3.54,0.77 -5.36,0.81 0.15,-0.88 0.43,-2.64 0.58,-3.52 3.05,-1.93 6.5,-3.11 9.74,-4.68 5.67,-2.48 11.05,-5.64 16.93,-7.61 1.63,1 3.19,2.11 4.94,2.89 4.48,-0.77 8.49,-3.04 12.08,-5.75 -0.32,-1.76 -0.04,-3.9 -1.44,-5.27 -6.96,0.08 -14.06,-1.71 -20.84,0.66 -1.91,-0.1 -3.83,-0.03 -5.73,-0.23 -2,-0.11 0.65,-3.62 1.86,-1.64 5.07,-0.48 10.09,-2.06 15.21,-1.37 3.69,0.41 7.4,0.16 11.1,0.45 0.19,0.49 0.57,1.46 0.77,1.95 0.46,2.17 0.57,4.39 0.7,6.6 -3.12,2.59 -6.52,5.15 -10.7,5.56 -0.13,0.57 -0.39,1.7 -0.52,2.27 3.77,-0.67 7.63,-2.17 11.5,-1.39 1.28,0.17 1.52,1.65 2.13,2.55 -1.01,2.63 -0.97,5.46 -0.87,8.23 -1.55,0.98 -3.1,1.96 -4.62,2.99 0.08,0.62 0.22,1.85 0.3,2.46 2.09,-0.52 4.22,-0.39 6.32,-0.06 2.47,3.97 4.92,7.96 7.37,11.94 1.37,0.17 2.73,0.34 4.1,0.52 -4.98,-2.79 -5.6,-8.91 -8.55,-13.31 -2.33,-3.51 -2.32,-7.81 -2.55,-11.86 0.05,-2.6 -1.69,-4.68 -2.81,-6.88 0.33,-4.36 0.76,-8.74 0.26,-13.1 -0.79,-5 1.49,-10 0.21,-14.95 -0.18,-0.59 -0.54,-1.75 -0.72,-2.34 4.34,-4.09 8.16,-9.76 14.61,-10.4 1.98,-4.71 3.78,-9.5 5.77,-14.21 5.81,-2.9 11.21,-8.1 18.14,-7.43 2.72,-0.4 5.16,-1.84 7.73,-2.78 0.94,-3.44 -0.87,-8.17 2.48,-10.53 3.6,-3.47 8.34,-5.23 12.9,-7.03 5.62,-1.89 11.77,-1.19 17.03,1.44 0.84,1.32 1.69,2.63 2.55,3.93 4.36,-0.53 7.84,-3.26 11.67,-5.12 m -40.15,6.37 0.29,1.58 1.32,0.31 c 3.76,-2.16 7.23,-5.33 11.82,-5.39 0.05,0.27 0.16,0.83 0.21,1.1 -4.03,0.4 -7.27,2.95 -10.51,5.13 -0.77,0.51 -1.17,1.25 -1.2,2.22 3.93,-0.2 6.2,-4.06 9.83,-5.09 2.96,-0.94 6.48,-1.9 9.3,-0.05 -1.78,0.08 -3.56,0.08 -5.33,0.08 -4.83,1.33 -8.76,4.51 -12.58,7.6 -0.89,3.58 1.47,7.54 -0.33,10.85 -1.97,-2.55 -1.57,-5.89 -1.84,-8.91 -0.45,0.1 -1.35,0.28 -1.81,0.37 -0.15,-1.25 -0.32,-2.49 -0.51,-3.74 -0.63,0.73 -1.25,1.46 -1.87,2.2 -0.09,-0.74 -0.26,-2.21 -0.34,-2.94 l -0.49,0.07 c 0.64,3.91 0.51,7.83 -0.75,11.6 0.93,2.44 3.55,4.01 5.16,6.09 0.26,3.4 0.8,6.79 1.84,10.05 2.16,7.37 4.08,14.82 6.35,22.17 0.58,0.26 1.73,0.79 2.3,1.05 1.43,1.64 -1.85,4.3 0.26,5.38 5.16,0.84 7.63,-5.71 12.56,-6.04 3.22,-0.29 7.39,-1.81 9.96,0.96 -3.97,-0.15 -7.95,0.03 -11.8,1.07 -0.87,2.18 -2.42,3.91 -4.5,5 -2.28,1.15 -3.58,3.45 -5.61,4.9 -1.2,-0.41 -1.92,-1.49 -2.82,-2.29 -1.46,4.23 -3.28,9.2 -0.36,13.27 1.5,0.58 3.78,0.39 4.4,2.22 -1.47,0.26 -3.59,-0.84 -4.4,0.93 1.56,0.06 3.65,-0.35 3.07,1.96 -0.68,0.01 -2.05,0.03 -2.73,0.04 2.44,2.38 0.55,5.56 1.42,8.4 1.15,2.85 3.41,5.02 5.48,7.22 3.13,1.84 6.88,-0.34 10.15,0.71 l 0.25,1.03 c -3.42,0.74 -6.96,0.61 -10.43,0.46 -1.58,-0.83 -2.72,-2.26 -4.03,-3.45 -0.01,2.23 0.03,4.58 -1.81,6.17 6.05,0.31 12.13,-0.22 18.06,-1.41 2.01,0.62 3.44,2.36 5.44,3.02 -0.39,0.85 -0.82,1.7 -1.27,2.53 L 142,177.61 c -1.01,-0.78 -2.02,-1.56 -3.01,-2.37 -1.61,-0.02 -3.22,0 -4.82,0.04 0.38,1.14 0.77,2.27 1.17,3.41 2.25,0.24 5.01,1.7 6.97,-0.05 0.64,-0.07 1.92,-0.21 2.56,-0.28 -1.19,-2.55 -1.54,-5.44 -1.24,-8.22 -0.38,0.09 -1.13,0.27 -1.51,0.37 -1.66,-0.2 -4.7,1.09 -5.32,-1.12 1.75,-0.47 3.59,-0.3 5.37,-0.49 2.57,-2.86 5.36,-5.48 8.38,-7.86 0.04,-0.85 0.11,-2.55 0.15,-3.4 l 1.55,-0.37 c -1.56,-1.08 -3.62,-0.3 -5.36,-0.65 2.01,-1.02 4.53,-0.79 6.26,-2.38 -3.08,-0.16 -5.99,0.94 -8.77,2.1 -0.14,-1.02 -0.27,-2.04 -0.41,-3.05 l -0.92,0.01 c 1.69,-0.58 3.28,-1.85 5.14,-1.66 -0.71,0.68 -1.39,1.38 -2.03,2.12 2.44,0.25 5.05,-0.5 6.93,-2.11 l -2.29,-0.18 c 0.34,-0.7 1,-2.1 1.34,-2.8 -1.8,0.32 -3.89,2.79 -5.52,1.03 1.59,-0.66 3.33,-1.05 4.84,-1.91 0.84,-4.01 0.94,-8.16 -0.08,-12.15 -3.95,-4.73 -10.8,-4.87 -16.43,-4.1 0.21,-0.45 0.64,-1.34 0.85,-1.79 3.56,-0.54 7.19,-0.17 10.77,-0.12 1.86,0.64 3.59,1.61 5.42,2.35 -0.21,-3.57 -5.02,-2.86 -6.09,-5.74 1.82,0.57 3.61,1.19 5.48,1.6 -0.9,-3.45 -5.28,-2.38 -7.43,-4.6 2.36,0.14 4.62,0.89 6.92,1.4 -0.5,-3.61 -5.55,-1.89 -6.87,-4.67 -0.66,-2.6 -1.07,-5.26 -1.57,-7.89 -0.17,-1.36 -0.79,-3.35 0.84,-4.07 0.79,4.1 1.5,8.22 2.42,12.3 1.06,0.16 3.19,0.49 4.25,0.65 -1.23,-8.4 -2.67,-16.76 -3.98,-25.15 -0.39,-1.65 0.29,-3.25 0.52,-4.86 -1.23,-3.65 -3.8,-6.76 -4.56,-10.57 -0.31,-2.89 -0.32,-5.81 -0.53,-8.71 -1.19,-0.15 -2.37,-0.3 -3.56,-0.45 -0.19,-0.64 -0.59,-1.92 -0.79,-2.57 -2.19,-0.38 -4.42,-0.71 -6.41,-1.79 1.88,0.06 3.68,-0.21 5.41,-0.79 -8.39,-3.66 -18.63,-1.67 -25.81,3.79 m -2.81,1.6 c -1.04,1.44 1.29,3.58 2.73,2.73 0.7,-1.37 -1.32,-3.64 -2.73,-2.73 m 35.8,0.05 c -1.73,1.01 0.24,3.27 1.64,2.07 1.76,-1.01 -0.26,-3.25 -1.64,-2.07 m -34.86,24.75 -1.56,0.92 c 1.03,-0.08 1.99,-0.39 2.88,-0.93 -0.48,-1.1 -0.92,-2.2 -1.32,-3.32 -1.66,0.93 -1.14,2.15 0,3.33 m -41.55,12.63 c 0.79,0.56 1.21,1.34 1.28,2.32 -1.57,0.14 -4.16,0.3 -3.96,2.53 2.73,-1.07 5.5,-2.04 8.37,-2.66 l -0.05,-1.58 c -1.53,1.79 -2.93,0.23 -4.28,-0.42 1.79,0.05 3.48,-0.52 4.71,-1.78 -2.17,-0.1 -4.27,0.35 -6.07,1.59 m 44.41,2.21 c 0.23,3.29 3.04,-1.57 0,0 m -49.33,4.94 c -0.75,4.94 -1.4,9.91 -1.91,14.88 1.19,3.62 0.64,7.38 0.42,11.11 -0.26,3.35 3.04,5.72 3.05,9.03 0.23,2.16 -0.42,4.54 1,6.41 -0.27,0.14 -0.81,0.44 -1.07,0.59 1.41,0.46 1.82,1.53 1.25,3.21 l 1.1,-0.13 c -0.07,1.22 0.52,1.77 1.78,1.64 0.09,-0.61 0.26,-1.83 0.34,-2.44 l -2.1,0.62 c 0.35,-0.69 1.05,-2.07 1.4,-2.77 L 65.08,159 c 0.14,-1.52 1.4,-3.44 -0.31,-4.5 -0.13,-1.98 0.04,-4 -0.41,-5.94 -1.15,-3.5 -3.4,-6.79 -2.66,-10.66 2.84,0.99 2.8,4.8 5.2,6.35 1.13,0.21 2.27,0.37 3.41,0.49 1.36,2.58 2.75,5.23 3.17,8.15 0.36,5.39 4.14,9.61 5.69,14.64 -1.64,0.2 -2.53,-1.29 -3.09,-2.53 -2.42,-5.11 -4.88,-10.19 -7.16,-15.36 l -1.15,-0.8 c -1.88,6.76 4.54,12.33 2.63,19.04 -0.56,-0.14 -1.67,-0.41 -2.22,-0.55 0.41,0.51 1.23,1.51 1.64,2.02 l 1.49,-0.19 c -0.24,0.57 -0.71,1.7 -0.94,2.27 l 2.48,-0.16 c -0.39,0.6 -1.16,1.8 -1.55,2.4 0.58,-0.14 1.72,-0.41 2.29,-0.55 -0.03,0.6 -0.1,1.8 -0.13,2.41 3.02,2.49 6.02,5.16 9.49,7 4.88,0.9 9.75,-1.23 14.67,-1.18 -0.1,-0.43 -0.3,-1.29 -0.4,-1.73 -4.07,0.15 -7.95,1.68 -12.03,1.74 1.3,-1.82 4.07,-0.99 5.14,-2.95 -0.88,0.05 -2.66,0.16 -3.54,0.21 0.77,-2.04 3.97,-0.53 4.43,-2.94 -0.78,0.03 -2.34,0.1 -3.13,0.14 l -0.05,-0.98 c 1.44,-0.31 3.14,-0.3 4.1,-1.62 -1.37,0.09 -2.72,0.23 -4.08,0.39 0.01,-0.3 0.04,-0.88 0.05,-1.18 0.65,-0.12 1.95,-0.37 2.6,-0.49 0.84,-2.43 -2.7,-0.79 -3.83,-1.13 0.77,-1.36 2.95,-0.8 3.33,-2.51 -1.44,0.17 -2.88,0.37 -4.32,0.52 0.9,-1.71 3.46,-0.94 4.23,-2.73 -1.36,0.15 -2.7,0.34 -4.04,0.54 -0.01,-0.25 -0.02,-0.75 -0.02,-1 1.44,-0.49 2.83,-1.1 4.17,-1.83 -1.76,-0.05 -3.51,0.09 -5.25,0.43 0.97,-1.38 2.35,-2.36 4.14,-2.94 -1.33,0.12 -3.98,0.36 -5.3,0.47 1.01,-1.56 3.3,-1.05 4.37,-2.58 -1.75,0.12 -3.49,0.34 -5.23,0.49 0.83,-1.86 4.56,-0.81 3.66,-3.54 -0.82,0.44 -2.48,1.31 -3.3,1.74 -0.96,-2.57 2.41,-1.63 2.89,-3.55 -1.48,0.17 -2.95,0.38 -4.42,0.54 0.78,-1.35 2.85,-1.16 3.35,-2.73 -1.45,0.22 -2.9,0.47 -4.36,0.66 0.91,-1.18 2.42,-1.56 3.51,-2.53 -0.93,0.01 -2.78,0.03 -3.71,0.04 0.93,-0.97 2.25,-1.74 2.44,-3.2 -0.88,0.41 -1.75,0.83 -2.62,1.26 l -0.57,-1.2 c 0.79,-0.22 2.38,-0.65 3.17,-0.87 -0.93,-2.03 -1.85,-4.07 -2.31,-6.27 -0.51,-0.02 -1.52,-0.07 -2.02,-0.09 0.41,-2.72 0.68,-5.47 0.49,-8.21 0.19,-3.66 -1.32,-7.13 -1.93,-10.69 -0.98,-3.29 -0.85,-7.39 -3.91,-9.61 -3.7,1.82 -7.72,2.84 -11.43,4.62 m 128.82,3.25 c 0.1,3.35 -1.32,6.51 -1.39,9.82 0.95,3.51 2.17,7.18 0.83,10.79 0.52,1.91 0.51,3.9 0.47,5.86 0.16,0 0.48,0 0.65,0.01 0.25,-2.28 1.01,-4.59 0.41,-6.87 -0.83,-3.58 -0.29,-7.28 -0.24,-10.91 1.11,-0.39 2.22,-0.77 3.33,-1.16 -2.29,-1.83 -3.22,-4.66 -3.61,-7.48 -0.12,-0.01 -0.34,-0.05 -0.45,-0.06 m -81.63,10.79 c 2.94,3.5 4.73,8.26 4.45,12.85 1.85,2.72 2.22,6.01 3.08,9.1 0.41,-2.45 -0.62,-4.77 -1.23,-7.08 -0.06,-2.4 -0.04,-4.91 0.98,-7.13 -2.78,-5.01 -4.04,-10.64 -6.01,-15.98 -2.32,1.78 -0.06,5.67 -1.27,8.24 m 44.3,-2.91 c 0.05,-1.4 0.01,-2.8 -0.12,-4.19 -0.63,1.31 -0.9,3 0.12,4.19 m 40.71,4.83 0.06,0.79 c 0.38,0.01 1.15,0.03 1.53,0.04 l -0.06,-0.79 c -0.38,-0.01 -1.15,-0.03 -1.53,-0.04 m -72.94,1.26 c -0.52,1.59 0.05,2.14 1.71,1.65 0.49,-1.6 -0.07,-2.15 -1.71,-1.65 m 72.2,0.97 c 0.27,3.32 3.06,-1.34 0,0 m -112.44,4.65 c 1.31,-0.8 1.3,-1.62 -0.04,-2.45 -1.51,0.82 -1.5,1.63 0.04,2.45 m 73.41,3.88 c -0.54,6.42 1.2,13.33 -2.5,19.08 2.12,-1.1 4.36,-1.95 6.71,-2.41 2.58,-0.51 5.32,-1.68 7.83,-0.21 l 0.32,-1.46 c -3.1,-0.83 -6.88,-1.59 -8.8,-4.62 -1.43,-3.38 -2.32,-6.94 -3.56,-10.38 m -88.86,3.38 c -0.69,1.78 2.15,2.19 3.23,1.51 1.11,-1.77 -2.31,-3.05 -3.23,-1.51 m 115.83,0.87 c 1.27,0.61 2.09,0.25 2.45,-1.08 -1.27,-0.62 -2.09,-0.26 -2.45,1.08 m -144.77,0.38 c -7.55,3.25 -14.8,7.22 -22.47,10.21 8.21,-1.29 16.02,-4.56 24,-6.84 2.45,0.7 5.02,1.42 7.56,0.66 -0.54,-0.66 -1.1,-1.3 -1.69,-1.93 -2.99,1.61 -4.57,-3.34 -7.4,-2.1 m 140.82,0.33 c 1.31,0.77 2.16,0.54 2.55,-0.69 -1.27,-0.76 -2.12,-0.53 -2.55,0.69 m 0.6,0.87 c 0.17,2.78 3.24,2.08 5.12,1.66 1.83,-1.01 4.77,-0.63 5.19,-3.31 -3.5,0.12 -6.83,1.35 -10.31,1.65 m 3.53,2.41 c -0.02,0.29 -0.07,0.87 -0.1,1.16 1.54,0.14 3.86,0.2 4.68,-1.39 -0.92,-1.53 -3.2,0.19 -4.58,0.23 M 67.89,163.58 c 0.59,0.6 0.59,0.6 0,0 m -19.11,0.01 c -0.49,0.91 -0.99,1.81 -1.48,2.72 -3.41,1.21 -6.92,2.2 -10.23,3.69 -1.03,1.8 -1.49,3.88 -2.54,5.67 -4.21,2.74 -9,4.44 -13.36,6.92 4.35,-1.5 8.66,-3.09 12.98,-4.68 1.64,-0.47 2.52,-2.02 3.78,-3.03 3.4,-1.02 6.89,-1.67 10.3,-2.63 0.58,-1.74 1.16,-3.48 1.73,-5.23 1.31,-0.44 3.41,-0.91 2.96,-2.79 -1.36,-0.34 -2.74,-0.55 -4.14,-0.64 m 68.47,0.66 c 0.26,0.26 0.26,0.26 0,0 m 5.37,11.7 c -2.75,0.64 -5.25,1.99 -7.83,3.09 0.8,1.61 2.44,2.66 4.24,2.77 4.72,0.3 9.31,-1.04 13.69,-2.63 -0.37,-1.2 -0.74,-2.4 -1.12,-3.59 -2.99,0.19 -6,0.04 -8.98,0.36 m -32.38,3.09 c 1.02,0.62 3.22,0.19 3.49,-1.07 -1.02,-0.67 -3.32,-0.32 -3.49,1.07 m -10.99,14.4 c 0.02,0.54 0.05,1.61 0.07,2.15 1.55,0.54 1.45,-2.77 -0.07,-2.15 m 105.62,6.98 c -1.08,0.93 0.38,2.81 1.58,2.34 0.66,-0.92 -0.34,-2.88 -1.58,-2.34 m -59.43,2.86 c -1.02,0.68 -1.36,1.59 -1.01,2.73 1.44,0.82 2.74,-2.6 1.01,-2.73 m -6.47,5.64 c -0.82,1.24 -1.2,2.77 -2.21,3.87 -1.44,0.85 -3.08,1.27 -4.61,1.92 0.04,3.71 0.02,7.43 0.02,11.15 3.74,-0.14 7.47,-0.26 11.2,-0.35 0.03,-6.13 0.01,-12.25 0.02,-18.37 -1.47,0.53 -3.26,0.63 -4.42,1.78 z"
       id="path209"
       inkscape:connector-curvature="0"
       style="opacity:1;fill:#f1f1f1" />
    <path
       d="m 157.17,69.67 c 2.2,-0.57 4.42,-1.14 6.67,-1.51 0.08,3.22 -4.39,2.34 -6.56,3.4 -0.03,-0.47 -0.09,-1.42 -0.11,-1.89 z"
       id="path211"
       inkscape:connector-curvature="0"
       style="opacity:1;fill:#f1f1f1" />
    <path
       d="m 152.13,75.09 c 0.39,-1.95 1.67,-3.86 3.82,-4.04 -0.66,1.85 -2.17,3.11 -3.82,4.04 z"
       id="path213"
       inkscape:connector-curvature="0"
       style="opacity:1;fill:#f1f1f1" />
    <path
       d="m 159.46,74.73 c 1.91,-1.01 3.57,-2.77 5.73,-3.18 0.12,0.5 0.37,1.5 0.49,2 -1.97,1.19 -3.97,2.34 -6.1,3.23 -0.03,-0.51 -0.09,-1.54 -0.12,-2.05 z"
       id="path215"
       inkscape:connector-curvature="0"
       style="opacity:1;fill:#f1f1f1" />
    <path
       d="m 136.47,74.03 c 1.91,0.17 1.75,2.22 2.06,3.62 -0.51,0.02 -1.54,0.08 -2.05,0.1 -0.01,-1.24 -0.01,-2.48 -0.01,-3.72 z"
       id="path217"
       inkscape:connector-curvature="0"
       style="opacity:1;fill:#f1f1f1" />
    <path
       d="m 171.55,73.83 c 1.22,0.68 2.41,1.44 3.65,2.1 0.26,2.82 3.27,4.34 3.8,7.12 -3.01,-2.59 -5.08,-6.07 -7.45,-9.22 z"
       id="path219"
       inkscape:connector-curvature="0"
       style="opacity:1;fill:#f1f1f1" />
    <path
       d="m 174.89,74.34 c 1.32,-0.08 1.92,0.57 1.82,1.95 -0.38,-0.09 -1.14,-0.27 -1.51,-0.36 -0.08,-0.4 -0.24,-1.19 -0.31,-1.59 z"
       id="path221"
       inkscape:connector-curvature="0"
       style="opacity:1;fill:#f1f1f1" />
    <path
       d="m 160.25,85.24 c -0.2,-4.67 3.96,-7.12 7.52,-9.11 0.97,0.87 1.96,1.71 2.98,2.53 -0.7,-0.09 -2.09,-0.26 -2.79,-0.35 -1.76,1.47 -3.57,2.87 -5.43,4.2 -0.37,1.86 0.46,4.4 -1.47,5.57 -1.12,0.26 -2.24,0.49 -3.38,0.68 -0.31,1.11 -0.62,2.21 -0.93,3.31 -2.54,-0.49 -1.98,-3.46 -2.5,-5.37 -0.25,-2.42 -1.76,-4.39 -2.93,-6.44 3.46,-0.55 4.23,4.17 4.56,6.65 1.54,-0.31 2.98,-0.94 4.37,-1.67 z"
       id="path223"
       inkscape:connector-curvature="0"
       style="opacity:1;fill:#f1f1f1" />
    <path
       d="m 235.66,76.6 c 0.27,-0.38 0.83,-1.12 1.11,-1.49 3.35,1.15 7.03,1.44 10.18,3.13 0.22,0.8 0.66,2.39 0.88,3.19 -5.59,0.33 -10.93,-1.52 -16.36,-2.46 l 0.2,-0.22 c 0.34,-0.35 1.01,-1.06 1.35,-1.42 3.03,0.5 6.06,1.07 9.12,1.33 -2.2,-0.61 -4.43,-1.13 -6.65,-1.69 z"
       id="path225"
       inkscape:connector-curvature="0"
       style="opacity:1;fill:#f1f1f1" />
    <path
       d="m 123.01,81.06 c 3.82,-0.48 7.25,-2.29 10.75,-3.75 -0.05,0.39 -0.16,1.18 -0.21,1.57 -2.45,1.53 -5.63,1.83 -7.66,3.99 4.31,-0.41 8.07,-2.99 12.43,-3.23 -0.25,6.41 3.89,12.01 3.97,18.39 0,2.93 0.77,6.08 -0.66,8.8 -0.94,-3.6 -1.01,-7.32 -1.51,-10.98 -1.08,-4.28 -2.74,-8.4 -4.3,-12.52 -3.52,-0.37 -6.9,1.31 -10.42,1.48 -0.31,-0.52 -0.92,-1.55 -1.23,-2.06 -2.25,0.4 -4.52,0.7 -6.81,0.65 1.12,-2.13 3.66,-1.82 5.65,-2.34 z"
       id="path227"
       inkscape:connector-curvature="0"
       style="opacity:1;fill:#f1f1f1" />
    <path
       d="m 177.8,77.84 c -0.64,-0.8 -0.64,-0.8 0,0 z"
       id="path229"
       inkscape:connector-curvature="0"
       style="opacity:1;fill:#f1f1f1" />
    <path
       d="m 215.45,82.6 c 3.5,-2.2 7.69,-3.26 10.51,-6.48 2.12,0.3 4.24,0.64 6.35,1 -1.95,0.87 -4.05,1.2 -6.13,1.6 -2.74,3.18 -7.23,3.38 -10.31,6.09 -3.28,0.76 -6.77,1.94 -7.87,5.52 -4.13,1.08 -8.51,1.35 -12.13,3.85 0.67,2.52 1.61,4.96 2.7,7.34 4.28,0.4 8.53,1.18 12.84,1.19 0.82,0.58 1.64,1.16 2.46,1.74 9.64,-0.93 19.33,-1.43 29.02,-0.96 0.47,0.34 1.41,1.03 1.87,1.38 -0.67,0.86 -1.35,1.72 -2.03,2.58 -7.83,0.7 -15.58,2.2 -23.4,3 -1.32,1.06 -2.69,2.37 -4.55,1.98 -1.82,-1.12 -3.32,-2.67 -4.85,-4.14 -1.98,-0.02 -3.96,-0.02 -5.94,-0.01 1.57,1.89 3.12,3.86 3.45,6.39 l 1.52,0.73 c -0.41,0.61 -1.24,1.83 -1.65,2.45 -0.51,-0.34 -1.53,-1.02 -2.04,-1.36 -0.04,-3.95 -3.26,-6.45 -4.25,-10.05 3.07,-0.25 6.21,0.11 9.22,-0.67 1.84,1.6 3.62,3.26 5.4,4.93 0.71,-0.65 1.42,-1.3 2.14,-1.95 7.76,-1.07 15.54,-2.1 23.29,-3.26 -8.17,-0.14 -16.34,0.23 -24.51,0.29 -0.83,0.62 -1.65,1.24 -2.46,1.87 -1.16,-1.04 -2.32,-2.08 -3.48,-3.11 -3.58,0.09 -7.17,-0.16 -10.7,-0.71 -4.71,-0.64 -5.01,-6.49 -6.68,-9.98 1.75,-1.46 3.68,-2.69 5.51,-4.05 2.43,-0.18 4.85,-0.42 7.27,-0.69 1.12,-1.6 2.1,-3.42 3.84,-4.44 1.73,-1.03 3.86,-1.05 5.59,-2.07 z"
       id="path231"
       inkscape:connector-curvature="0"
       style="opacity:1;fill:#f1f1f1" />
    <path
       d="m 174.08,85.89 c 1.75,1.76 3.37,3.66 4.73,5.74 -2.68,-0.17 -4.75,-3.18 -4.73,-5.74 z"
       id="path233"
       inkscape:connector-curvature="0"
       style="opacity:1;fill:#f1f1f1" />
    <path
       d="m 112.27,89.08 c 2.19,1.01 4.16,2.42 5.76,4.22 4.83,0.41 9.46,-0.93 14.12,-1.91 0.81,4.18 1.68,8.36 1.69,12.63 -1.68,0.38 -3.38,0.69 -5.09,0.87 1.1,-1.2 2.76,-1.34 4.25,-1.71 -0.54,-0.58 -1.08,-1.16 -1.62,-1.74 0.08,-1.08 0.16,-2.16 0.25,-3.24 l -1.37,0.35 c 0.13,-1.53 0.22,-3.07 0.32,-4.6 -1.51,0.37 -3.02,0.75 -4.48,1.26 -2.34,0.18 -4.68,0.27 -7.01,0.34 0.57,1.45 1.54,2.82 1.56,4.44 -0.02,5.87 2.7,11.29 3.14,17.11 -1.33,-0.49 -1.28,-2.01 -1.7,-3.12 -1.45,-4.92 -2.64,-9.93 -4.3,-14.79 -1.31,-3.67 -5.25,-6.07 -5.52,-10.11 z"
       id="path235"
       inkscape:connector-curvature="0"
       style="opacity:1;fill:#f1f1f1" />
    <path
       d="m 172.01,89.11 c 3.02,0.85 5.53,4.03 5.97,7.13 -2.78,-1.57 -4.18,-4.63 -5.97,-7.13 z"
       id="path237"
       inkscape:connector-curvature="0"
       style="opacity:1;fill:#f1f1f1" />
    <path
       d="m 171.15,102.27 c 0.5,-1.87 1.65,-3.46 2.89,-4.92 1.75,0.98 2.22,3.22 2.86,4.98 -1.92,-0.02 -3.84,-0.04 -5.75,-0.06 z"
       id="path239"
       inkscape:connector-curvature="0"
       style="opacity:1;fill:#f1f1f1" />
    <path
       d="m 156.04,111.9 c 0.22,-4.29 3.48,-7.95 6.59,-10.63 -1.52,3.9 -4.04,7.35 -6.59,10.63 z"
       id="path241"
       inkscape:connector-curvature="0"
       style="opacity:1;fill:#f1f1f1" />
    <path
       d="m 164.05,106.89 c 0.71,-1.21 1.31,-2.67 2.86,-2.95 -0.62,3.71 -3.82,7.95 -7.81,7.79 0.52,-1.52 1.19,-2.97 1.9,-4.41 0.76,-0.11 2.29,-0.32 3.05,-0.43 z"
       id="path243"
       inkscape:connector-curvature="0"
       style="opacity:1;fill:#f1f1f1" />
    <path
       d="m 176.44,110.2 c 2.39,-1.36 4.9,-2.53 7.34,-3.83 -0.55,3.42 -5.21,3.29 -7.41,5.39 0.02,-0.39 0.05,-1.17 0.07,-1.56 z"
       id="path245"
       inkscape:connector-curvature="0"
       style="opacity:1;fill:#f1f1f1" />
    <path
       d="m 176.83,112.81 c 2.34,-1.28 4.71,-2.68 7.39,-3.1 -1.44,2.58 -4.69,3.17 -7.39,3.1 z"
       id="path247"
       inkscape:connector-curvature="0"
       style="opacity:1;fill:#f1f1f1" />
    <path
       d="m 136.3,111.77 c 2.3,1.66 1.88,5.06 2.55,7.53 -3.43,-0.04 -6.55,1.43 -9.76,2.4 1.12,-3.07 5.66,-2.81 8.37,-3.63 -0.37,-2.11 -0.83,-4.19 -1.16,-6.3 z"
       id="path249"
       inkscape:connector-curvature="0"
       style="opacity:1;fill:#f1f1f1" />
    <path
       d="m 179.52,117.31 c 1.32,-0.88 2.74,-1.56 4.2,-2.18 0.03,0.41 0.1,1.24 0.14,1.65 l -2.68,0.1 c 1.07,0.77 2.18,1.49 3.28,2.23 -1.02,0.25 -2.04,0.5 -3.06,0.73 -0.08,-0.63 -0.23,-1.88 -0.3,-2.51 z"
       id="path251"
       inkscape:connector-curvature="0"
       style="opacity:1;fill:#f1f1f1" />
    <path
       d="m 210.26,116.26 c 2.17,0.19 4.33,0.45 6.51,0.38 2.62,0.79 5.35,1.46 7.71,2.91 0.1,1.01 0.15,2.03 0.15,3.05 -3.36,0.14 -6.66,-0.57 -9.98,-0.98 -0.01,1.23 -0.02,2.46 -0.03,3.7 -0.68,0.05 -2.02,0.16 -2.69,0.21 1.67,4.11 -0.48,8.37 0.18,12.55 0.1,1.95 2.29,2.44 3.82,2.85 3.64,0.62 7.45,0.63 10.9,2.11 9.67,3.97 19.55,7.41 29.17,11.52 v 3.11 c -3.14,0.09 -6.12,-1.01 -9.04,-2.01 -6.79,-2.44 -13.7,-4.54 -20.47,-7.04 -3.92,-1.59 -8.25,-1.51 -12.4,-1.27 0.14,4.39 -0.65,9.52 2.42,13.14 3.88,5.14 11.12,5.13 15.88,9.09 1.48,1.36 3.44,1.87 5.27,2.58 l -0.19,0.19 c -0.39,0.35 -1.15,1.03 -1.53,1.38 -1.32,-0.49 -2.64,-0.99 -3.95,-1.49 -1.25,-1.26 -2.64,-2.37 -4.06,-3.41 -1.05,0.88 -2.09,1.77 -3.13,2.65 0.02,-0.92 0.04,-2.76 0.06,-3.68 -3.61,-1.21 -7.43,-2.6 -9.8,-5.75 -3.98,-4.37 -2.2,-10.68 -3.45,-15.96 1.12,-0.46 2.24,-0.92 3.35,-1.4 3,0.64 6.1,0.46 9.1,1.05 8.38,2.51 16.51,5.87 24.97,8.1 -7.44,-2.7 -14.8,-5.61 -22.15,-8.56 -5.09,-2.57 -11.16,-1.13 -16.1,-4.16 -1.4,-3.3 -0.91,-6.79 -0.28,-10.19 0.68,-2.86 -1.15,-5.35 -2.51,-7.66 1.03,0.03 3.09,0.08 4.12,0.1 -2.32,-0.55 -4.68,-1.05 -6.91,-1.91 -0.2,-1.44 1.66,-1.93 2.78,-1.71 4.68,0.61 9.42,-0.71 14.01,0.76 -2.93,-1.06 -5.93,-1.98 -9.06,-2.16 -1.31,0.11 -2.48,-0.82 -2.67,-2.09 z"
       id="path253"
       inkscape:connector-curvature="0"
       style="opacity:1;fill:#f1f1f1" />
    <path
       d="m 72.51,118.64 c 0.45,-0.04 1.34,-0.12 1.78,-0.16 0.8,3.26 1.83,6.47 2.44,9.78 l -2.13,-0.23 c 0.6,2.67 1.02,5.38 1.08,8.12 -1.46,-1.7 -2.05,-3.9 -2.23,-6.09 -0.38,-3.79 -1.69,-7.59 -0.94,-11.42 z"
       id="path255"
       inkscape:connector-curvature="0"
       style="opacity:1;fill:#f1f1f1" />
    <path
       d="m 102.32,122.49 c 0.63,-0.72 1.26,-1.44 1.89,-2.15 1.71,1.47 1.16,3.59 -0.07,5.19 -1.74,0.75 -1.25,-2.1 -1.82,-3.04 z"
       id="path257"
       inkscape:connector-curvature="0"
       style="opacity:1;fill:#f1f1f1" />
    <path
       d="m 168.02,126.49 c 4.72,-1.76 9.63,0.24 14.44,0.23 0.75,1.15 1.48,2.32 2.21,3.5 -0.46,0.02 -1.38,0.06 -1.84,0.08 -1.24,-2.68 -4.41,-2.17 -6.83,-2.67 -3.4,-0.7 -6.72,0.47 -10.03,1.06 -3.31,1.52 -6.54,3.43 -10.15,4.15 4.05,-2.13 7.87,-4.81 12.2,-6.35 z"
       id="path259"
       inkscape:connector-curvature="0"
       style="opacity:1;fill:#f1f1f1" />
    <path
       d="m 161.91,132.75 c 3.19,-2.89 7.9,-3.34 12.04,-3.21 -0.72,0.88 -1.91,0.77 -2.91,0.94 -3.17,0.19 -6,1.86 -9.13,2.27 z"
       id="path261"
       inkscape:connector-curvature="0"
       style="opacity:1;fill:#f1f1f1" />
    <path
       d="m 15.34,135.46 c 4.47,-1.47 9.22,-1.86 13.77,-3.04 0.98,0.5 1.97,1 2.94,1.52 -4.55,0.3 -8.43,3.37 -13.07,2.87 1.83,0.16 3.73,0.17 5.45,0.91 -2.07,0.76 -4.27,0.96 -6.43,1.3 -1.98,0.77 -4.68,-1.86 -2.66,-3.56 z"
       id="path263"
       inkscape:connector-curvature="0"
       style="opacity:1;fill:#f1f1f1" />
    <path
       d="m 133.17,137.85 c 1.01,-4.66 7.69,-5.03 10.92,-2.5 -3.88,-0.24 -7.71,0.12 -10.92,2.5 z"
       id="path265"
       inkscape:connector-curvature="0"
       style="opacity:1;fill:#f1f1f1" />
    <path
       d="m 162.98,136.02 c 3.18,-1 6.41,-1.82 9.69,-2.42 -0.71,0.98 -1.34,2.16 -2.62,2.45 -3.61,1.11 -7.23,2.62 -11.08,2.44 0.67,-1.63 2.54,-1.92 4.01,-2.47 z"
       id="path267"
       inkscape:connector-curvature="0"
       style="opacity:1;fill:#f1f1f1" />
    <path
       d="m 103.37,134.84 c 2.54,2.29 2.54,6.28 4.09,9.24 -0.33,0.74 -0.99,2.24 -1.32,2.99 -1.11,-4.03 -2.07,-8.11 -2.77,-12.23 z"
       id="path269"
       inkscape:connector-curvature="0"
       style="opacity:1;fill:#f1f1f1" />
    <path
       d="m 182.04,137.36 c 1.74,-0.35 2.97,-1.79 4.67,-2.29 -0.12,0.56 -0.34,1.68 -0.46,2.24 -5.83,1.64 -11.61,3.83 -17.68,4.33 -0.01,0.62 -0.05,1.87 -0.06,2.5 -1.68,-0.59 -2.02,-2.23 -2.35,-3.78 5.47,0.17 10.64,-1.72 15.88,-3 z"
       id="path271"
       inkscape:connector-curvature="0"
       style="opacity:1;fill:#f1f1f1" />
    <path
       d="m 121.1,141.53 c 0.69,-0.74 1.39,-1.48 2.09,-2.22 0.04,0.58 0.1,1.74 0.13,2.33 -0.56,-0.03 -1.67,-0.09 -2.22,-0.11 z"
       id="path273"
       inkscape:connector-curvature="0"
       style="opacity:1;fill:#f1f1f1" />
    <path
       d="m 133.95,149.2 c 1.97,-0.9 4.03,-1.57 6.15,-1.98 -0.16,0.28 -0.48,0.84 -0.64,1.11 -4.59,1.97 -9.58,2.48 -14.53,2.29 0.16,-0.25 0.5,-0.74 0.67,-0.99 2.76,-0.37 5.57,-0.17 8.35,-0.43 z"
       id="path275"
       inkscape:connector-curvature="0"
       style="opacity:1;fill:#f1f1f1" />
    <path
       d="m 194.31,149.31 c 0.66,1.01 1.28,2.05 1.93,3.07 -0.33,2.06 0.66,3.81 1.64,5.52 -2.86,-0.45 -3.25,-3.89 -4.85,-5.81 -0.32,1.78 -2.78,3.88 -1.2,5.7 0.78,1.21 1.45,2.49 1.75,3.92 -2.79,-0.1 -4.34,-3.38 -5.22,-5.6 1.84,-1.41 3.44,-3.15 4.72,-5.11 0.31,-0.42 0.92,-1.27 1.23,-1.69 z"
       id="path277"
       inkscape:connector-curvature="0"
       style="opacity:1;fill:#f1f1f1" />
    <path
       d="m 179.99,155.7 c 0.58,-0.02 1.75,-0.07 2.34,-0.1 -0.46,0.56 -1.39,1.68 -1.85,2.24 -0.17,2.67 -0.51,5.33 -1.11,7.94 -0.7,-0.59 -1.4,-1.18 -2.09,-1.77 0.89,-2.77 1.7,-5.57 2.71,-8.31 z"
       id="path279"
       inkscape:connector-curvature="0"
       style="opacity:1;fill:#f1f1f1" />
    <path
       d="m 166.67,177.95 c -3.04,-3.01 -4.78,-8.61 -2.11,-12.25 0.01,4.19 0.85,8.28 2.11,12.25 z"
       id="path281"
       inkscape:connector-curvature="0"
       style="opacity:1;fill:#f1f1f1" />
    <path
       d="m 138.53,190.15 c 0.97,0.02 2.9,0.06 3.86,0.08 -0.04,5.03 0.02,10.07 -0.05,15.11 -0.94,-0.01 -2.83,-0.02 -3.77,-0.03 -0.08,-5.05 -0.03,-10.11 -0.04,-15.16 z"
       id="path283"
       inkscape:connector-curvature="0"
       style="opacity:1;fill:#f1f1f1" />
  </g>
  <g
     id="#1d1d1bff"
     transform="matrix(0.1875,0,0,0.1875,-5.0000001e-7,-0.0900005)">
    <path
       d="m 158.59,17.02 c -0.22,6.33 0.13,12.76 -0.65,19.04 -2.9,4.92 -4.18,10.51 -6.19,15.82 0.16,1.73 0.57,3.42 0.9,5.13 0.89,-0.53 1.77,-1.06 2.66,-1.59 0.11,-4.31 2.82,-7.86 4.5,-11.67 0.05,4.99 -2.34,9.74 -0.95,14.74 3.35,-0.59 7.1,-1.5 9.02,-4.6 5.15,-7.14 7.11,-15.95 10.88,-23.82 -2.73,8.83 -4.54,17.97 -8.32,26.43 -1.15,2.67 0.38,5.34 1.98,7.43 -0.05,0.65 -0.15,1.97 -0.2,2.63 2.17,0.34 4.33,0.69 6.51,1 1.07,1.4 2.12,2.81 3.17,4.23 2.92,-1.03 5.77,-2.24 8.47,-3.75 3.28,-10.18 6,-20.52 7.25,-31.16 0.03,3.83 -0.17,7.66 -0.05,11.49 -0.06,0.26 -0.18,0.77 -0.24,1.03 l -0.24,0.16 c -0.57,4.1 -2.36,7.84 -3.59,11.74 2.2,-0.39 4.4,-0.78 6.61,-1.15 -3.33,1.73 -7.98,2.87 -9,7.01 -0.83,3.09 -2.96,5.49 -5.01,7.84 1.71,1.82 3.4,3.64 5.14,5.44 -1.47,-0.5 -2.94,-0.99 -4.41,-1.44 -0.2,1.76 -0.38,3.53 -0.56,5.3 1.35,0.06 2.7,0.13 4.06,0.19 0.84,1.82 1.65,3.65 2.45,5.49 3.62,-1.22 7.39,-1.6 11.15,-2.06 2.71,-3.16 6.25,-5.84 10.65,-5.66 0.14,-5.27 -3.6,-9.61 -5.28,-14.43 0.93,-0.47 1.86,-0.95 2.8,-1.43 2.04,-4.73 4.78,-9.14 7.59,-13.45 -0.26,5.33 -4.22,9.31 -5.45,14.33 -0.6,0.27 -1.8,0.8 -2.4,1.06 1.15,3.96 3.11,7.6 4.87,11.31 3.93,0.24 6.64,-2.43 8.8,-5.33 3.3,0.59 6.57,2.52 9.93,1.72 l 0.11,-0.02 c 0.02,0.15 0.08,0.43 0.11,0.58 l -0.17,0.37 c 2.22,0.56 4.45,1.08 6.65,1.69 -3.06,-0.26 -6.09,-0.83 -9.12,-1.33 -0.34,0.36 -1.01,1.07 -1.35,1.42 -1.83,0.14 -3.66,0.07 -5.49,-0.03 2.08,-0.4 4.18,-0.73 6.13,-1.6 -2.11,-0.36 -4.23,-0.7 -6.35,-1 -2.82,3.22 -7.01,4.28 -10.51,6.48 -1.73,1.02 -3.86,1.04 -5.59,2.07 -1.74,1.02 -2.72,2.84 -3.84,4.44 -2.42,0.27 -4.84,0.51 -7.27,0.69 -1.83,1.36 -3.76,2.59 -5.51,4.05 1.67,3.49 1.97,9.34 6.68,9.98 3.53,0.55 7.12,0.8 10.7,0.71 1.16,1.03 2.32,2.07 3.48,3.11 0.81,-0.63 1.63,-1.25 2.46,-1.87 8.17,-0.06 16.34,-0.43 24.51,-0.29 -7.75,1.16 -15.53,2.19 -23.29,3.26 -0.72,0.65 -1.43,1.3 -2.14,1.95 -1.78,-1.67 -3.56,-3.33 -5.4,-4.93 -3.01,0.78 -6.15,0.42 -9.22,0.67 0.99,3.6 4.21,6.1 4.25,10.05 0.51,0.34 1.53,1.02 2.04,1.36 0.41,-0.62 1.24,-1.84 1.65,-2.45 l -1.52,-0.73 c 3.17,0.31 6.29,1.01 9.33,1.97 -2.18,0.07 -4.34,-0.19 -6.51,-0.38 0.19,1.27 1.36,2.2 2.67,2.09 3.13,0.18 6.13,1.1 9.06,2.16 -4.59,-1.47 -9.33,-0.15 -14.01,-0.76 -1.12,-0.22 -2.98,0.27 -2.78,1.71 2.23,0.86 4.59,1.36 6.91,1.91 -1.03,-0.02 -3.09,-0.07 -4.12,-0.1 1.36,2.31 3.19,4.8 2.51,7.66 -0.63,3.4 -1.12,6.89 0.28,10.19 4.94,3.03 11.01,1.59 16.1,4.16 7.35,2.95 14.71,5.86 22.15,8.56 -8.46,-2.23 -16.59,-5.59 -24.97,-8.1 -3,-0.59 -6.1,-0.41 -9.1,-1.05 -1.11,0.48 -2.23,0.94 -3.35,1.4 1.25,5.28 -0.53,11.59 3.45,15.96 2.37,3.15 6.19,4.54 9.8,5.75 -0.02,0.92 -0.04,2.76 -0.06,3.68 1.04,-0.88 2.08,-1.77 3.13,-2.65 1.42,1.04 2.81,2.15 4.06,3.41 1.31,0.5 2.63,1 3.95,1.49 0.38,-0.35 1.14,-1.03 1.53,-1.38 0.32,0.05 0.98,0.15 1.31,0.2 -0.54,0.98 0.48,1.75 0.91,2.54 -3.02,-1.12 -6.22,-1.47 -9.41,-1.55 -0.36,-0.45 -1.07,-1.35 -1.42,-1.8 -1.87,0.88 -3.7,1.84 -5.59,2.64 -0.84,-1.69 -0.68,-3.66 -0.99,-5.48 -4.88,-0.56 -9.38,-2.46 -13.27,-5.41 -1.07,2.1 -2.53,4.14 -2.66,6.57 3.25,1.77 6.34,3.79 9.54,5.64 -2.3,-0.86 -4.6,-1.76 -6.79,-2.88 -1.45,-0.21 -2.9,-0.42 -4.35,-0.63 -1.19,1.63 -2.22,3.43 -3.72,4.81 -2.23,1.25 -4.61,2.3 -6.54,4.04 -0.11,-0.26 -0.33,-0.78 -0.44,-1.04 1.73,-1.96 4.11,-3.11 6.08,-4.76 3.64,-4.97 6.88,-10.63 6.65,-17 0.87,-1.63 2.02,-3.32 1.56,-5.27 -1.13,-8.12 -0.36,-16.34 -1.06,-24.47 -2.17,-5.56 -6.72,-9.86 -8.52,-15.58 -1.18,-3.7 -3.58,-6.81 -5.09,-10.35 -1.87,-4.52 -2.81,-9.36 -4.65,-13.88 -1.79,-2.17 -4.32,-3.56 -6.47,-5.33 0.07,-1.44 0.14,-2.88 0.22,-4.32 -2.09,-2.61 -3.99,-5.37 -6.14,-7.93 -1.32,-1.75 -3.77,-1.37 -5.68,-1.82 -0.9,-4.35 -4.72,-7.16 -8.86,-8.06 -3.96,0.29 -7.97,0.9 -11.71,2.26 -3.83,1.86 -7.31,4.59 -11.67,5.12 -0.86,-1.3 -1.71,-2.61 -2.55,-3.93 -5.26,-2.63 -11.41,-3.33 -17.03,-1.44 -4.56,1.8 -9.3,3.56 -12.9,7.03 -3.35,2.36 -1.54,7.09 -2.48,10.53 -2.57,0.94 -5.01,2.38 -7.73,2.78 -6.93,-0.67 -12.33,4.53 -18.14,7.43 -1.99,4.71 -3.79,9.5 -5.77,14.21 -6.45,0.64 -10.27,6.31 -14.61,10.4 0.18,0.59 0.54,1.75 0.72,2.34 -0.17,6.38 -1.54,12.74 -0.48,19.14 l -1.79,-0.71 c -0.2,-0.49 -0.58,-1.46 -0.77,-1.95 -3.7,-0.29 -7.41,-0.04 -11.1,-0.45 -5.12,-0.69 -10.14,0.89 -15.21,1.37 -1.21,-1.98 -3.86,1.53 -1.86,1.64 1.9,0.2 3.82,0.13 5.73,0.23 -2.67,0.82 -5.55,0.86 -8.31,0.49 -1.72,-0.74 -3.62,-0.75 -5.45,-0.91 4.64,0.5 8.52,-2.57 13.07,-2.87 -0.97,-0.52 -1.96,-1.02 -2.94,-1.52 0.64,-0.08 1.91,-0.24 2.54,-0.32 0.32,0.4 0.95,1.2 1.26,1.6 6.48,-1.55 14.15,0.46 19.55,-4.22 2.54,-1.85 2.63,-5.35 3.55,-8.11 -8.64,-0.77 -17.29,-1.97 -25.99,-1.74 8.53,-1.08 17.13,-0.97 25.7,-1.1 0.02,-1.21 0.03,-2.41 0.05,-3.61 1.04,-1.55 2.63,-2.88 3.03,-4.77 -3.72,-5.54 -10.87,-6.24 -16.76,-8 -1.74,-3.54 -3.74,-6.97 -6.01,-10.2 -1.08,-1.58 -3.09,-1.92 -4.74,-2.58 -5.14,-1.6 -10.07,-3.83 -15.27,-5.24 5.79,1.14 11.14,3.74 16.8,5.34 5.32,1.37 6.76,7.5 10.64,10.72 3.39,1.73 7.18,2.13 10.92,2.31 1.32,0.94 2.46,2.1 3.65,3.2 2.3,0.02 4.62,0.18 6.92,-0.15 2.5,-1.24 4.31,-3.49 6.32,-5.36 0.52,-2.4 1.06,-4.78 1.61,-7.17 2.56,-1.08 3.89,-3.47 4.83,-5.95 -2.24,-3.38 -2.77,-8.4 -6.87,-10.15 -3.8,-1.94 -7.3,-4.39 -10.92,-6.64 -0.49,1.76 -0.08,3.95 -1.21,5.47 -1.82,0.95 -3.84,1.4 -5.78,2.05 1.32,-0.95 2.73,-1.8 3.91,-2.93 0.86,-1.8 0.58,-3.91 0.81,-5.85 -4.63,-2.44 -9.21,-5.01 -13.64,-7.82 6.34,2.95 12.72,5.82 19.04,8.81 3.64,2.14 7.32,-1.16 10.81,-2.07 -0.14,-0.66 -0.42,-1.97 -0.56,-2.63 1.63,1.39 3.3,2.73 4.96,4.08 -2.47,1.12 -5.06,1.9 -7.67,2.59 4.18,3.96 8.73,7.54 12.35,12.06 5.5,-1.34 10.84,-3.56 16.58,-3.63 0.75,-5.32 -2.71,-10.25 -3.38,-15.5 -3.29,-2.7 -6.92,-5.09 -9.6,-8.45 -1.36,-1.68 -2.46,-3.57 -4,-5.1 -1.73,-0.97 -3.73,-1.3 -5.61,-1.88 -0.8,-2.26 -2.24,-4.16 -3.56,-6.13 1.7,1.67 3.06,3.65 3.74,5.96 2.35,0.73 5.17,0.72 6.97,2.62 1.75,1.67 2.74,3.94 3.96,5.99 0.68,-0.68 1.04,-1.58 1.37,-2.46 0.74,0.68 1.45,1.39 2.14,2.13 -0.68,0.45 -1.13,1.11 -1.54,1.79 2.57,1.3 5.4,2.2 7.73,3.95 1.86,1.93 3.22,4.27 4.85,6.38 3.95,-2.72 7.28,-6.86 12.23,-7.66 -1.17,-9.3 -3.53,-18.41 -5.38,-27.6 -1.86,-0.38 -3.72,-0.76 -5.59,-1.13 -0.49,-3.85 -1.3,-7.66 -1.55,-11.54 1.02,3.51 1.84,7.08 2.62,10.66 1.39,0.05 2.79,0.07 4.19,0.04 0.13,-0.91 0.38,-2.73 0.5,-3.64 1.73,7.26 3.68,14.46 5.54,21.69 0.88,3.46 1.51,7.07 3.44,10.15 1.71,-0.54 3.43,-1.08 5.15,-1.6 -0.13,-2.02 -0.29,-4.03 -0.46,-6.05 -2.13,0.62 -1.24,3.32 -1.58,4.95 l -0.47,-0.04 c -0.11,-2.17 -0.22,-4.34 -0.21,-6.52 l 0.18,-0.01 c 0.32,0.01 0.97,0.02 1.29,0.03 0.03,-0.84 0.11,-2.53 0.14,-3.37 1.71,3.63 3.8,7.06 5.7,10.59 1.29,-0.04 2.59,-0.09 3.88,-0.14 1.69,-9.51 3.79,-18.93 5.4,-28.45 -0.32,7.7 -3.72,15.46 -1.25,23.08 0.93,3.52 1.2,7.71 4.57,9.88 1.69,1.98 3.92,-0.69 4.83,-2.17 0.94,-4.06 0.37,-8.32 0.64,-12.46 1.72,-1.23 3.45,-2.45 5.17,-3.68 0.38,-1.76 0.75,-3.51 1.12,-5.26 1.73,-1.47 4.21,-2.63 4.39,-5.2 0.5,-5.74 1.06,-11.49 1.51,-17.24 z"
       id="path286"
       inkscape:connector-curvature="0"
       style="opacity:1;fill:#1d1d1b" />
    <path
       d="m 143.74,69.94 c 5.98,-4.83 14.77,-8.76 22.19,-4.92 3.58,1.14 1.72,8.09 6.24,6.58 0.21,0.3 0.64,0.9 0.85,1.2 0.86,-0.18 1.71,-0.35 2.57,-0.52 1.98,2.66 4.04,5.24 6.2,7.75 -0.38,5.31 0.35,10.78 2.9,15.5 -0.05,-2.61 -0.46,-5.2 -0.84,-7.79 0.4,0.72 1.21,2.14 1.62,2.86 0.57,-0.02 1.73,-0.06 2.3,-0.07 1.19,2.74 2,5.64 2.66,8.55 0.56,2.55 -1.28,4.72 -2.79,6.54 -0.89,5.06 3.33,8.41 6.56,11.51 -0.95,-3.27 -4.07,-5.18 -5.37,-8.26 1.82,1.41 3.51,2.98 5.37,4.35 -1.03,-1.88 -2.24,-3.65 -3.44,-5.42 0.97,-0.18 1.94,-0.36 2.91,-0.55 2.51,2.69 4.14,6.09 4.36,9.79 0.87,3.8 -0.15,8.36 2.5,11.49 -0.02,-2.95 -0.22,-5.9 -0.31,-8.86 2.09,3.08 4.05,6.24 6.15,9.31 -0.05,7.01 -0.01,14.04 -0.19,21.05 -1.76,2.62 -0.23,5.66 0.16,8.43 -1.16,-1.69 -2.19,-3.46 -3.31,-5.17 0.5,3.25 1.8,6.29 2.55,9.48 -0.96,-1.06 -1.92,-2.11 -2.86,-3.17 0.79,-1.24 0.52,-2.1 -0.82,-2.6 0.05,0.58 0.15,1.75 0.2,2.33 l 0.62,0.27 c 0.5,2.48 0.97,4.98 1.07,7.53 -1.59,-2.64 -1.78,-5.9 -3.63,-8.38 0.13,3.54 1.57,6.82 2.61,10.16 -3.11,-0.71 -1.91,-5.37 -4.26,-7.2 0.31,3.35 1.51,6.52 2.37,9.75 -0.59,-0.1 -1.78,-0.28 -2.37,-0.37 -0.02,0.81 -0.05,2.44 -0.07,3.26 -1.38,-2.69 -1.71,-5.77 -3.16,-8.42 0.06,2.44 0.53,4.85 1.16,7.2 -0.85,1.36 -1.69,2.72 -2.52,4.08 -1.86,0.65 -3.73,1.32 -5.7,1.5 -0.95,-2.71 -0.66,-6.05 -2.98,-8.09 0.15,2.57 0.57,5.17 -0.06,7.71 -0.52,-2.2 -0.9,-4.42 -1.36,-6.63 -0.91,2.49 -0.21,5.12 -0.27,7.69 -1.32,-1.5 -1.34,-3.6 -1.88,-5.41 -0.39,2.12 -0.4,4.29 -0.4,6.44 -0.82,-1.28 -1.62,-2.57 -2.45,-3.83 -0.01,1.5 0.01,3.01 0.03,4.52 -0.43,-0.52 -1.29,-1.56 -1.72,-2.08 -0.25,0.56 -0.74,1.66 -0.99,2.22 -2.99,0.21 -5.82,1.03 -8.16,2.97 2.98,-2.61 4.46,-6.33 3.75,-10.28 1.17,-2.25 2.9,0.49 4.07,1.27 -0.12,-2.5 -0.28,-5 -0.53,-7.5 -0.42,-0.09 -1.26,-0.27 -1.68,-0.36 0.14,2.01 0.26,4.01 0.35,6.03 -3.21,-0.89 -2.62,-5.04 -4.49,-7.32 0.76,3.56 1.5,7.12 1.82,10.75 -1.01,1.78 -1.84,3.74 -3.33,5.2 -1.97,1.54 -4.59,1.66 -6.97,1.94 -2.98,0.3 -5.94,0.72 -8.91,1.03 -0.51,-1.06 -1.03,-2.11 -1.54,-3.16 0.43,-0.76 0.86,-1.52 1.3,-2.27 -0.56,0.03 -1.66,0.11 -2.21,0.14 -0.33,-0.67 -0.99,-2.01 -1.32,-2.68 2.2,-0.83 4.41,-1.66 6.62,-2.46 -2.24,0.11 -4.47,0.24 -6.71,0.37 0,-2.65 -0.36,-5.28 -0.71,-7.9 2.83,-0.93 5.3,-2.62 7.82,-4.17 4.08,-1.69 9.05,-3.59 13.04,-0.62 0.03,-1.67 0.09,-3.34 0.16,-5 2.23,-0.35 3.6,1.22 4.91,2.76 -0.02,-0.86 -0.05,-2.58 -0.07,-3.44 4.79,-1.01 9.73,-1.88 14.04,-4.32 2.57,-1.63 4.02,-5.51 7.71,-4.57 -0.54,-0.53 -1.61,-1.59 -2.15,-2.12 l 3.16,0.31 c -0.77,-0.76 -2.31,-2.27 -3.09,-3.02 0.53,-0.03 1.57,-0.08 2.09,-0.1 -0.27,-0.57 -0.83,-1.71 -1.11,-2.28 l 2.67,0.52 c -1.07,-1.34 -2.05,-2.73 -2.96,-4.18 0.89,0.64 1.76,1.31 2.62,1.99 0.85,-0.34 1.7,-0.68 2.55,-1.02 -0.9,-0.94 -1.8,-1.89 -2.7,-2.82 2.55,-0.83 0.92,-2.84 0.05,-4.25 -0.86,-0.08 -2.57,-0.26 -3.43,-0.35 2.36,-1.25 4.78,-2.68 3.82,-5.73 -0.54,-0.26 -1.64,-0.78 -2.18,-1.04 -0.78,-4.13 -2.98,-7.7 -6.14,-10.46 -0.59,4.56 1.82,10.4 -2.08,13.95 1.44,3.49 2.99,7.23 2.28,11.08 -4.83,1.27 -9.83,2.07 -14.35,4.28 4.87,0.45 9.34,-2.89 14.05,-2.49 -3.83,3.12 -9.66,1.94 -13.68,4.89 4.76,-0.18 9.23,-2.03 13.87,-2.88 0.04,1.29 0.1,2.57 0.17,3.86 -1.39,0.2 -2.78,0.37 -4.17,0.51 0.84,-0.49 2.53,-1.47 3.37,-1.96 l 0.13,-1.09 c -4.7,1.38 -9.6,2.11 -14.16,3.94 0.86,0.13 2.6,0.4 3.47,0.54 -1.2,0.71 -2.41,1.41 -3.61,2.11 1.28,0.21 2.63,0.38 3.83,0.94 -1.62,0.57 -3.67,0.49 -4.82,2 2.08,-0.22 4.12,-0.72 6.14,-1.24 0.67,0.46 1.33,0.94 2,1.41 -4.61,0.44 -9.15,1.37 -13.73,2.07 -4.62,1.34 -8.31,-3.34 -9.01,-7.47 2.03,-0.17 4.08,-0.31 6.1,-0.6 -2.08,-1.4 -4.66,-1.26 -7.05,-1.54 -0.63,-3.53 -1.8,-6.94 -2.47,-10.46 -0.3,-3.01 0.2,-6.04 0.62,-9.01 0.62,-4.64 3.69,-8.62 3.73,-13.38 -2.9,2.71 -3.39,7.01 -6.26,9.75 -1.29,-7.09 -2.66,-14.17 -3.91,-21.27 0.54,-2.16 0.87,-4.37 1.28,-6.55 0.38,1.91 0.46,3.86 0.38,5.81 0.24,-0.03 0.72,-0.08 0.95,-0.11 0.5,3.4 1.08,6.82 2.08,10.1 1.28,-7.36 -1.37,-14.55 -3.39,-21.51 -0.92,-2.22 -1.15,-5.09 -3.57,-6.27 0.96,3.13 2.74,6.05 2.83,9.4 -2.43,-3.25 -4.2,-7.14 -4.89,-11.11 1.19,-1 2.45,-1.92 3.66,-2.91 -1,-0.13 -2.99,-0.38 -3.99,-0.51 2.12,-3.17 4.5,-6.28 7.74,-8.37 3.02,-1.85 7.18,-0.75 9.83,-3.35 -2.92,0.16 -5.81,0.6 -8.69,1.06 -3.33,0.35 -5.83,3.13 -9.24,3.21 m 13.43,-0.27 c 0.02,0.47 0.08,1.42 0.11,1.89 2.17,-1.06 6.64,-0.18 6.56,-3.4 -2.25,0.37 -4.47,0.94 -6.67,1.51 m -5.04,5.42 c 1.65,-0.93 3.16,-2.19 3.82,-4.04 -2.15,0.18 -3.43,2.09 -3.82,4.04 m 7.33,-0.36 c 0.03,0.51 0.09,1.54 0.12,2.05 2.13,-0.89 4.13,-2.04 6.1,-3.23 -0.12,-0.5 -0.37,-1.5 -0.49,-2 -2.16,0.41 -3.82,2.17 -5.73,3.18 m 12.09,-0.9 c 2.37,3.15 4.44,6.63 7.45,9.22 -0.53,-2.78 -3.54,-4.3 -3.8,-7.12 -1.24,-0.66 -2.43,-1.42 -3.65,-2.1 m 3.34,0.51 c 0.07,0.4 0.23,1.19 0.31,1.59 0.37,0.09 1.13,0.27 1.51,0.36 0.1,-1.38 -0.5,-2.03 -1.82,-1.95 m -14.64,10.9 c -1.39,0.73 -2.83,1.36 -4.37,1.67 -0.33,-2.48 -1.1,-7.2 -4.56,-6.65 1.17,2.05 2.68,4.02 2.93,6.44 0.52,1.91 -0.04,4.88 2.5,5.37 0.31,-1.1 0.62,-2.2 0.93,-3.31 1.14,-0.19 2.26,-0.42 3.38,-0.68 1.93,-1.17 1.1,-3.71 1.47,-5.57 1.86,-1.33 3.67,-2.73 5.43,-4.2 0.7,0.09 2.09,0.26 2.79,0.35 -1.02,-0.82 -2.01,-1.66 -2.98,-2.53 -3.56,1.99 -7.72,4.44 -7.52,9.11 m 17.55,-7.4 c 0.63,0.78 0.63,0.78 0,0 -0.64,-0.8 -0.64,-0.8 0,0 m -3.72,8.05 c -0.02,2.56 2.05,5.57 4.73,5.74 -1.36,-2.08 -2.98,-3.98 -4.73,-5.74 m -2.07,3.22 c 1.79,2.5 3.19,5.56 5.97,7.13 -0.44,-3.1 -2.95,-6.28 -5.97,-7.13 m -0.86,13.16 c 1.91,0.02 3.83,0.04 5.75,0.06 -0.64,-1.76 -1.11,-4 -2.86,-4.98 -1.24,1.46 -2.39,3.05 -2.89,4.92 m -15.11,9.63 c 2.55,-3.28 5.07,-6.73 6.59,-10.63 -3.11,2.68 -6.37,6.34 -6.59,10.63 m 8.01,-5.01 c -0.76,0.11 -2.29,0.32 -3.05,0.43 -0.71,1.44 -1.38,2.89 -1.9,4.41 3.99,0.16 7.19,-4.08 7.81,-7.79 -1.55,0.28 -2.15,1.74 -2.86,2.95 m 12.39,3.31 c -0.02,0.39 -0.05,1.17 -0.07,1.56 2.2,-2.1 6.86,-1.97 7.41,-5.39 -2.44,1.3 -4.95,2.47 -7.34,3.83 m 0.39,2.61 c 2.7,0.07 5.95,-0.52 7.39,-3.1 -2.68,0.42 -5.05,1.82 -7.39,3.1 m 4.62,0.38 c -0.57,0.32 -1.73,0.97 -2.31,1.29 -0.84,1.26 1.26,1.18 1.84,0.68 0.89,-0.55 2.82,-0.72 2.76,-2.05 -0.57,0.02 -1.72,0.06 -2.29,0.08 m -1.93,4.12 1.58,0.02 c 0.07,0.63 0.22,1.88 0.3,2.51 1.02,-0.23 2.04,-0.48 3.06,-0.73 -1.1,-0.74 -2.21,-1.46 -3.28,-2.23 l 2.68,-0.1 c -0.04,-0.41 -0.11,-1.24 -0.14,-1.65 -1.46,0.62 -2.88,1.3 -4.2,2.18 m -11.5,9.18 c -4.33,1.54 -8.15,4.22 -12.2,6.35 3.61,-0.72 6.84,-2.63 10.15,-4.15 3.31,-0.59 6.63,-1.76 10.03,-1.06 2.42,0.5 5.59,-0.01 6.83,2.67 0.46,-0.02 1.38,-0.06 1.84,-0.08 -0.73,-1.18 -1.46,-2.35 -2.21,-3.5 -4.81,0.01 -9.72,-1.99 -14.44,-0.23 m -6.11,6.26 c 3.13,-0.41 5.96,-2.08 9.13,-2.27 1,-0.17 2.19,-0.06 2.91,-0.94 -4.14,-0.13 -8.85,0.32 -12.04,3.21 m 1.07,3.27 c -1.47,0.55 -3.34,0.84 -4.01,2.47 3.85,0.18 7.47,-1.33 11.08,-2.44 1.28,-0.29 1.91,-1.47 2.62,-2.45 -3.28,0.6 -6.51,1.42 -9.69,2.42 m 19.06,1.34 c -5.24,1.28 -10.41,3.17 -15.88,3 0.33,1.55 0.67,3.19 2.35,3.78 0.01,-0.63 0.05,-1.88 0.06,-2.5 6.07,-0.5 11.85,-2.69 17.68,-4.33 0.12,-0.56 0.34,-1.68 0.46,-2.24 -1.7,0.5 -2.93,1.94 -4.67,2.29 m 12.27,11.95 c -0.31,0.42 -0.92,1.27 -1.23,1.69 -1.28,1.96 -2.88,3.7 -4.72,5.11 0.88,2.22 2.43,5.5 5.22,5.6 -0.3,-1.43 -0.97,-2.71 -1.75,-3.92 -1.58,-1.82 0.88,-3.92 1.2,-5.7 1.6,1.92 1.99,5.36 4.85,5.81 -0.98,-1.71 -1.97,-3.46 -1.64,-5.52 -0.65,-1.02 -1.27,-2.06 -1.93,-3.07 m -14.32,6.39 c -1.01,2.74 -1.82,5.54 -2.71,8.31 0.69,0.59 1.39,1.18 2.09,1.77 0.6,-2.61 0.94,-5.27 1.11,-7.94 0.46,-0.56 1.39,-1.68 1.85,-2.24 -0.59,0.03 -1.76,0.08 -2.34,0.1 m -13.32,22.25 c -1.26,-3.97 -2.1,-8.06 -2.11,-12.25 -2.67,3.64 -0.93,9.24 2.11,12.25 z"
       id="path288"
       inkscape:connector-curvature="0"
       style="opacity:1;fill:#1d1d1b" />
    <path
       d="m 110.23,69.86 c 7.18,-5.46 17.42,-7.45 25.81,-3.79 -1.73,0.58 -3.53,0.85 -5.41,0.79 1.99,1.08 4.22,1.41 6.41,1.79 0.2,0.65 0.6,1.93 0.79,2.57 1.19,0.15 2.37,0.3 3.56,0.45 0.21,2.9 0.22,5.82 0.53,8.71 0.76,3.81 3.33,6.92 4.56,10.57 -0.23,1.61 -0.91,3.21 -0.52,4.86 1.31,8.39 2.75,16.75 3.98,25.15 -1.06,-0.16 -3.19,-0.49 -4.25,-0.65 -0.92,-4.08 -1.63,-8.2 -2.42,-12.3 -1.63,0.72 -1.01,2.71 -0.84,4.07 0.5,2.63 0.91,5.29 1.57,7.89 1.32,2.78 6.37,1.06 6.87,4.67 -2.3,-0.51 -4.56,-1.26 -6.92,-1.4 2.15,2.22 6.53,1.15 7.43,4.6 -1.87,-0.41 -3.66,-1.03 -5.48,-1.6 1.07,2.88 5.88,2.17 6.09,5.74 -1.83,-0.74 -3.56,-1.71 -5.42,-2.35 -3.58,-0.05 -7.21,-0.42 -10.77,0.12 -0.21,0.45 -0.64,1.34 -0.85,1.79 5.63,-0.77 12.48,-0.63 16.43,4.1 1.02,3.99 0.92,8.14 0.08,12.15 -1.51,0.86 -3.25,1.25 -4.84,1.91 1.63,1.76 3.72,-0.71 5.52,-1.03 -0.34,0.7 -1,2.1 -1.34,2.8 l 2.29,0.18 c -1.88,1.61 -4.49,2.36 -6.93,2.11 0.64,-0.74 1.32,-1.44 2.03,-2.12 -1.86,-0.19 -3.45,1.08 -5.14,1.66 l 0.92,-0.01 c 0.14,1.01 0.27,2.03 0.41,3.05 2.78,-1.16 5.69,-2.26 8.77,-2.1 -1.73,1.59 -4.25,1.36 -6.26,2.38 1.74,0.35 3.8,-0.43 5.36,0.65 l -1.55,0.37 c -2.95,0.69 -5.85,1.68 -8.9,1.87 -0.98,0.81 -1.96,1.62 -2.94,2.44 1.43,0.18 2.85,0.37 4.28,0.55 -1.41,0.02 -2.82,0.09 -4.23,0.22 -2.66,1.72 -4.07,4.87 -6.85,6.45 -1.98,0.53 -4.04,0.24 -6.04,0.06 -2.07,-2.2 -4.33,-4.37 -5.48,-7.22 -0.87,-2.84 1.02,-6.02 -1.42,-8.4 0.68,-0.01 2.05,-0.03 2.73,-0.04 0.58,-2.31 -1.51,-1.9 -3.07,-1.96 0.81,-1.77 2.93,-0.67 4.4,-0.93 -0.62,-1.83 -2.9,-1.64 -4.4,-2.22 -2.92,-4.07 -1.1,-9.04 0.36,-13.27 0.9,0.8 1.62,1.88 2.82,2.29 2.03,-1.45 3.33,-3.75 5.61,-4.9 2.08,-1.09 3.63,-2.82 4.5,-5 3.85,-1.04 7.83,-1.22 11.8,-1.07 -2.57,-2.77 -6.74,-1.25 -9.96,-0.96 -4.93,0.33 -7.4,6.88 -12.56,6.04 -2.11,-1.08 1.17,-3.74 -0.26,-5.38 -0.57,-0.26 -1.72,-0.79 -2.3,-1.05 -2.27,-7.35 -4.19,-14.8 -6.35,-22.17 -1.04,-3.26 -1.58,-6.65 -1.84,-10.05 -1.61,-2.08 -4.23,-3.65 -5.16,-6.09 1.26,-3.77 1.39,-7.69 0.75,-11.6 l 0.49,-0.07 c 0.08,0.73 0.25,2.2 0.34,2.94 0.62,-0.74 1.24,-1.47 1.87,-2.2 0.19,1.25 0.36,2.49 0.51,3.74 0.46,-0.09 1.36,-0.27 1.81,-0.37 0.27,3.02 -0.13,6.36 1.84,8.91 1.8,-3.31 -0.56,-7.27 0.33,-10.85 3.82,-3.09 7.75,-6.27 12.58,-7.6 1.77,0 3.55,0 5.33,-0.08 -2.82,-1.85 -6.34,-0.89 -9.3,0.05 -3.63,1.03 -5.9,4.89 -9.83,5.09 0.03,-0.97 0.43,-1.71 1.2,-2.22 3.24,-2.18 6.48,-4.73 10.51,-5.13 -0.05,-0.27 -0.16,-0.83 -0.21,-1.1 -4.59,0.06 -8.06,3.23 -11.82,5.39 l -1.32,-0.31 -0.29,-1.58 m 26.24,4.17 c 0,1.24 0,2.48 0.01,3.72 0.51,-0.02 1.54,-0.08 2.05,-0.1 -0.31,-1.4 -0.15,-3.45 -2.06,-3.62 m -13.46,7.03 c -1.99,0.52 -4.53,0.21 -5.65,2.34 2.29,0.05 4.56,-0.25 6.81,-0.65 0.31,0.51 0.92,1.54 1.23,2.06 3.52,-0.17 6.9,-1.85 10.42,-1.48 1.56,4.12 3.22,8.24 4.3,12.52 0.5,3.66 0.57,7.38 1.51,10.98 1.43,-2.72 0.66,-5.87 0.66,-8.8 -0.08,-6.38 -4.22,-11.98 -3.97,-18.39 -4.36,0.24 -8.12,2.82 -12.43,3.23 2.03,-2.16 5.21,-2.46 7.66,-3.99 0.05,-0.39 0.16,-1.18 0.21,-1.57 -3.5,1.46 -6.93,3.27 -10.75,3.75 m -10.74,8.02 c 0.27,4.04 4.21,6.44 5.52,10.11 1.66,4.86 2.85,9.87 4.3,14.79 0.42,1.11 0.37,2.63 1.7,3.12 -0.44,-5.82 -3.16,-11.24 -3.14,-17.11 -0.02,-1.62 -0.99,-2.99 -1.56,-4.44 2.33,-0.07 4.67,-0.16 7.01,-0.34 1.46,-0.51 2.97,-0.89 4.48,-1.26 -0.1,1.53 -0.19,3.07 -0.32,4.6 l 1.37,-0.35 c -0.09,1.08 -0.17,2.16 -0.25,3.24 0.54,0.58 1.08,1.16 1.62,1.74 -1.49,0.37 -3.15,0.51 -4.25,1.71 1.71,-0.18 3.41,-0.49 5.09,-0.87 -0.01,-4.27 -0.88,-8.45 -1.69,-12.63 -4.66,0.98 -9.29,2.32 -14.12,1.91 -1.6,-1.8 -3.57,-3.21 -5.76,-4.22 m 14.12,7.2 c -0.62,2.25 4.08,0.35 1.67,-0.6 -0.41,0.15 -1.25,0.45 -1.67,0.6 m 0.77,2.64 c 1.29,0.71 2.13,0.43 2.52,-0.84 -1.28,-0.71 -2.12,-0.43 -2.52,0.84 m 0.83,1.28 c 0.32,3.19 3.1,-1.72 0,0 m 0.39,2.1 c -0.65,2.27 4.05,0.36 1.64,-0.61 -0.41,0.15 -1.23,0.46 -1.64,0.61 m 7.92,9.47 c 0.33,2.11 0.79,4.19 1.16,6.3 -2.71,0.82 -7.25,0.56 -8.37,3.63 3.21,-0.97 6.33,-2.44 9.76,-2.4 -0.67,-2.47 -0.25,-5.87 -2.55,-7.53 m -3.13,26.08 c 3.21,-2.38 7.04,-2.74 10.92,-2.5 -3.23,-2.53 -9.91,-2.16 -10.92,2.5 m -12.07,3.68 c 0.55,0.02 1.66,0.08 2.22,0.11 -0.03,-0.59 -0.09,-1.75 -0.13,-2.33 -0.7,0.74 -1.4,1.48 -2.09,2.22 m 27.95,-1.89 c -0.13,1.34 -0.24,2.68 -0.31,4.02 -1.54,0.66 -3.06,1.37 -4.54,2.13 0.23,1.25 0.05,2.5 -0.22,3.73 2.79,-0.17 6.52,-1.24 7.5,-4.15 -1.18,0.09 -2.35,0.19 -3.52,0.3 3.77,0.95 5.04,-7.6 1.09,-6.03 m -15.1,9.56 c -2.78,0.26 -5.59,0.06 -8.35,0.43 -0.17,0.25 -0.51,0.74 -0.67,0.99 4.95,0.19 9.94,-0.32 14.53,-2.29 0.16,-0.27 0.48,-0.83 0.64,-1.11 -2.12,0.41 -4.18,1.08 -6.15,1.98 z"
       id="path290"
       inkscape:connector-curvature="0"
       style="opacity:1;fill:#1d1d1b" />
    <path
       d="m 101.39,84.76 c 0.94,-0.6 1.88,-1.2 2.82,-1.81 -0.58,1.5 -1.17,2.99 -1.74,4.49 -3.04,1.02 -6.12,2.2 -9.38,2.07 0.84,0.75 1.86,1.35 2.39,2.38 -0.36,2.95 -1.09,5.88 -2.2,8.64 -1.38,2.89 -4.8,3.68 -7.39,5.07 -0.67,0.31 -1.32,0.62 -1.98,0.94 0.94,1.07 1.87,2.16 2.87,3.19 1.91,-0.1 3.8,-0.37 5.71,-0.54 -0.46,0.25 -1.39,0.75 -1.85,1 -0.94,0.1 -2.83,0.31 -3.78,0.41 0.89,0.72 1.79,1.44 2.69,2.15 -0.24,0.33 -0.71,0.98 -0.95,1.3 0.5,0.07 1.49,0.19 1.98,0.26 -0.22,0.48 -0.67,1.43 -0.89,1.91 0.78,0.02 2.35,0.05 3.13,0.06 -0.87,0.61 -1.74,1.23 -2.61,1.86 1.51,-0.14 3.01,-0.36 4.5,-0.63 0.96,-0.23 1.92,-0.48 2.87,-0.73 1.28,-5.47 0.12,-11.54 2.49,-16.65 0.3,0.01 0.91,0.04 1.21,0.05 1.51,6.02 2.85,12.08 4.64,18.03 1.84,-2.41 3.5,-5.19 2.27,-8.29 -1.13,-0.61 -2.47,-0.94 -3.36,-1.91 -1.66,-3.98 -1.94,-8.41 -3.94,-12.27 -0.25,0.58 -0.74,1.73 -0.99,2.31 -0.29,0.14 -0.88,0.43 -1.17,0.58 -1.14,4.51 -2.29,9.02 -3.57,13.49 -0.6,-3.16 -2.12,-6.52 -0.58,-9.64 1.6,-3.73 2.77,-7.59 3.19,-11.62 1.83,-0.42 3.71,-0.52 5.57,-0.71 1.63,6.26 4.24,12.25 5.35,18.63 0.94,0.13 1.88,0.26 2.83,0.39 -0.35,-0.79 -1.05,-2.37 -1.39,-3.17 -0.58,-2.67 -1.21,-5.32 -1.96,-7.95 0.26,0.01 0.78,0.04 1.05,0.05 0.54,3.96 1.76,7.79 2.72,11.66 -0.69,0.01 -2.06,0.04 -2.75,0.06 0.38,0.92 1.14,2.76 1.52,3.68 0.67,-0.09 2.01,-0.28 2.68,-0.37 1.44,7.27 5.49,14.39 3.85,21.95 -2.58,-5.83 -3.87,-12.15 -6.71,-17.86 -0.22,0.05 -0.68,0.15 -0.91,0.2 -3.53,3.9 -1.41,9.33 -3.26,13.83 0.89,0.56 1.77,1.13 2.66,1.69 0.73,2.06 1.52,4.1 2.33,6.13 -0.3,0.45 -0.89,1.36 -1.18,1.82 2.64,4.92 4.55,10.16 5.92,15.57 -1.98,1 -3.94,2.01 -5.92,3.02 0.38,1.88 0.78,3.75 1.28,5.6 l 0.16,0.51 c 1.32,-0.03 2.63,-0.11 3.96,-0.13 -1.02,0.51 -2.05,0.98 -3.07,1.46 -0.08,1.17 -0.16,2.34 -0.26,3.52 2.48,-1.3 5.19,-2.59 8.06,-1.83 -2.07,0.7 -4.16,1.31 -6.2,2.09 2.12,-0.07 4.24,-0.22 6.36,-0.3 -1.65,0.88 -3.33,1.72 -4.97,2.63 0.79,0.17 2.39,0.51 3.19,0.68 -1.47,0.45 -2.96,0.86 -4.45,1.25 0.11,0.78 0.22,1.57 0.33,2.37 -1.66,0.37 -3.32,0.76 -4.99,1.12 -0.18,0.8 -0.43,1.65 -0.06,2.46 5.88,4.59 14.43,3.75 21.03,1.32 4.19,-2.23 9.04,-1.31 13.59,-1.43 1.63,2.29 3.18,4.65 4.84,6.93 1.91,0.26 3.83,0.47 5.76,0.57 -0.28,0.35 -0.83,1.07 -1.11,1.42 -0.04,2.85 0.01,5.7 0.01,8.55 -1.21,0.35 -2.43,0.71 -3.64,1.07 -1.3,-0.36 -2.6,-0.7 -3.91,-1.03 2.17,1.74 4.63,3.12 7.51,2.37 0.1,8.39 0.01,16.78 0.06,25.17 -3.76,-0.13 -7.51,-0.25 -11.26,-0.33 -0.01,-4.25 0,-8.5 -0.05,-12.75 -0.94,-0.02 -2.82,-0.05 -3.77,-0.07 -0.06,4.24 -0.04,8.49 -0.06,12.73 -3.73,-0.03 -7.45,-0.03 -11.18,0.02 -0.05,-6.53 -0.04,-13.05 -0.02,-19.57 2.24,0.84 4.45,1.76 6.66,2.69 -2.11,-2.11 -4.32,-4.11 -6.61,-6.02 -0.12,-6.02 -0.05,-12.04 -0.05,-18.06 -0.96,-0.01 -2.89,-0.03 -3.85,-0.04 -0.17,6.53 0.01,13.06 -0.12,19.59 -2.2,1.09 -5.21,1.55 -6.03,4.23 -0.81,2.4 -2.57,4.09 -4.95,4.97 -0.47,-7.66 0.08,-15.33 -0.34,-22.99 -1.23,0.01 -2.46,0.02 -3.69,0.03 -0.07,8.25 0.09,16.5 -0.09,24.75 -2.84,1.24 -5.69,2.46 -8.46,3.87 2.88,-0.79 5.69,-1.79 8.52,-2.69 0.03,3.37 0.03,6.74 -0.01,10.12 -3.86,0.27 -7.69,0.71 -11.54,1.08 0.45,-12.28 -0.17,-24.57 0.12,-36.86 -1.24,-0.02 -2.47,-0.02 -3.7,-0.02 0.1,3.36 0.05,6.74 -0.49,10.07 -4.34,1.24 -7.77,-1.96 -11.07,-4.22 0.13,-3.96 0.16,-7.93 -0.1,-11.89 4.9,0.58 9.67,-0.98 14.48,-1.6 4.06,-0.72 8.25,-0.69 12.22,-1.89 l 0.26,-0.45 c -2.16,-1.45 -4.91,-0.76 -7.34,-1.03 -2.28,-1.12 -4.4,-2.62 -6.21,-4.4 -1.83,-3.1 -2.62,-6.67 -3.19,-10.18 -0.35,-3.01 -2.57,-5.62 -1.9,-8.77 0.48,0.57 0.95,1.15 1.42,1.73 3.57,-4.24 9.12,-5.3 13.94,-7.45 -3.43,-0.9 -6.63,0.62 -9.55,2.24 -0.38,-4.36 -1.51,-8.63 -3.98,-12.29 -3.34,-4.76 -2.26,-11.58 -7.18,-15.36 1.6,5.42 2.03,11.32 5.45,16.04 3.07,4.27 4.06,9.79 2.68,14.87 -0.98,-0.02 -1.95,-0.04 -2.92,-0.07 -2.78,-6.77 -6.09,-13.45 -6.94,-20.83 -0.39,-9.06 -5.03,-17.23 -6.55,-26.08 -0.38,-3.87 1.42,-7.46 2.6,-11.05 2.75,-1.67 5.31,-3.69 8.32,-4.89 1.48,-0.69 3.43,-0.97 3.99,-2.77 -4.33,0.09 -7.77,2.86 -11.23,5.1 -0.12,-2.09 1.48,-3.37 2.92,-4.45 3.34,-2.53 7.25,-4.21 11.24,-5.43 1.66,0.04 3.13,0.98 4.67,1.52 -0.06,-0.59 -0.18,-1.79 -0.24,-2.38 0.57,0.29 1.72,0.87 2.29,1.17 0.16,-0.26 0.47,-0.77 0.63,-1.03 m 0.93,37.73 c 0.57,0.94 0.08,3.79 1.82,3.04 1.23,-1.6 1.78,-3.72 0.07,-5.19 -0.63,0.71 -1.26,1.43 -1.89,2.15 m 1.05,12.35 c 0.7,4.12 1.66,8.2 2.77,12.23 0.33,-0.75 0.99,-2.25 1.32,-2.99 -1.55,-2.96 -1.55,-6.95 -4.09,-9.24 m -4.36,28.95 c -1.42,0.48 -3.44,0.21 -4.09,1.9 3.16,1.06 6.09,-0.71 9,-1.7 1.92,-0.83 4.71,-1.3 4.97,-3.83 -3.22,1.39 -6.4,2.98 -9.88,3.63 m 11.38,12.49 c -0.65,2.28 4.06,0.27 1.66,-0.64 -0.42,0.16 -1.25,0.48 -1.66,0.64 m 28.14,13.87 c 0.01,5.05 -0.04,10.11 0.04,15.16 0.94,0.01 2.83,0.02 3.77,0.03 0.07,-5.04 0.01,-10.08 0.05,-15.11 -0.96,-0.02 -2.89,-0.06 -3.86,-0.08 z"
       id="path292"
       inkscape:connector-curvature="0"
       style="opacity:1;fill:#1d1d1b" />
    <path
       d="m 108.36,96.26 c -1.14,-1.18 -1.66,-2.4 0,-3.33 0.4,1.12 0.84,2.22 1.32,3.32 -0.89,0.54 -1.85,0.85 -2.88,0.93 z"
       id="path294"
       inkscape:connector-curvature="0"
       style="opacity:1;fill:#1d1d1b" />
    <path
       d="m 66.81,108.89 c 1.8,-1.24 3.9,-1.69 6.07,-1.59 -1.23,1.26 -2.92,1.83 -4.71,1.78 1.35,0.65 2.75,2.21 4.28,0.42 l 0.05,1.58 c -2.87,0.62 -5.64,1.59 -8.37,2.66 -0.2,-2.23 2.39,-2.39 3.96,-2.53 -0.07,-0.98 -0.49,-1.76 -1.28,-2.32 z"
       id="path296"
       inkscape:connector-curvature="0"
       style="opacity:1;fill:#1d1d1b" />
    <path
       d="m 61.89,116.04 c 3.71,-1.78 7.73,-2.8 11.43,-4.62 3.06,2.22 2.93,6.32 3.91,9.61 0.61,3.56 2.12,7.03 1.93,10.69 -0.42,2.93 -0.77,5.93 -2.07,8.64 0.52,2.4 1.54,4.65 2.74,6.8 l 0.57,1.2 c 0.87,-0.43 1.74,-0.85 2.62,-1.26 -0.19,1.46 -1.51,2.23 -2.44,3.2 0.93,-0.01 2.78,-0.03 3.71,-0.04 -1.09,0.97 -2.6,1.35 -3.51,2.53 1.46,-0.19 2.91,-0.44 4.36,-0.66 -0.5,1.57 -2.57,1.38 -3.35,2.73 1.47,-0.16 2.94,-0.37 4.42,-0.54 -0.48,1.92 -3.85,0.98 -2.89,3.55 0.82,-0.43 2.48,-1.3 3.3,-1.74 0.9,2.73 -2.83,1.68 -3.66,3.54 1.74,-0.15 3.48,-0.37 5.23,-0.49 -1.07,1.53 -3.36,1.02 -4.37,2.58 1.32,-0.11 3.97,-0.35 5.3,-0.47 -1.79,0.58 -3.17,1.56 -4.14,2.94 1.74,-0.34 3.49,-0.48 5.25,-0.43 -1.34,0.73 -2.73,1.34 -4.17,1.83 0,0.25 0.01,0.75 0.02,1 1.34,-0.2 2.68,-0.39 4.04,-0.54 -0.77,1.79 -3.33,1.02 -4.23,2.73 1.44,-0.15 2.88,-0.35 4.32,-0.52 -0.38,1.71 -2.56,1.15 -3.33,2.51 1.13,0.34 4.67,-1.3 3.83,1.13 -0.65,0.12 -1.95,0.37 -2.6,0.49 -0.01,0.3 -0.04,0.88 -0.05,1.18 1.36,-0.16 2.71,-0.3 4.08,-0.39 -0.96,1.32 -2.66,1.31 -4.1,1.62 l 0.05,0.98 c 0.79,-0.04 2.35,-0.11 3.13,-0.14 -0.46,2.41 -3.66,0.9 -4.43,2.94 0.88,-0.05 2.66,-0.16 3.54,-0.21 -1.07,1.96 -3.84,1.13 -5.14,2.95 4.08,-0.06 7.96,-1.59 12.03,-1.74 0.1,0.44 0.3,1.3 0.4,1.73 -4.92,-0.05 -9.79,2.08 -14.67,1.18 -3.47,-1.84 -6.47,-4.51 -9.49,-7 0.03,-0.61 0.1,-1.81 0.13,-2.41 -0.57,0.14 -1.71,0.41 -2.29,0.55 0.39,-0.6 1.16,-1.8 1.55,-2.4 l -2.48,0.16 c 0.23,-0.57 0.7,-1.7 0.94,-2.27 l -1.49,0.19 c -0.41,-0.51 -1.23,-1.51 -1.64,-2.02 0.55,0.14 1.66,0.41 2.22,0.55 1.91,-6.71 -4.51,-12.28 -2.63,-19.04 l 1.15,0.8 c 2.28,5.17 4.74,10.25 7.16,15.36 0.56,1.24 1.45,2.73 3.09,2.53 -1.55,-5.03 -5.33,-9.25 -5.69,-14.64 -0.42,-2.92 -1.81,-5.57 -3.17,-8.15 -1.14,-0.12 -2.28,-0.28 -3.41,-0.49 -2.4,-1.55 -2.36,-5.36 -5.2,-6.35 -0.74,3.87 1.51,7.16 2.66,10.66 0.45,1.94 0.28,3.96 0.41,5.94 1.71,1.06 0.45,2.98 0.31,4.5 l 2.07,-0.81 c -0.35,0.7 -1.05,2.08 -1.4,2.77 l 2.1,-0.62 c -0.08,0.61 -0.25,1.83 -0.34,2.44 -1.26,0.13 -1.85,-0.42 -1.78,-1.64 l -1.1,0.13 c 0.57,-1.68 0.16,-2.75 -1.25,-3.21 0.26,-0.15 0.8,-0.45 1.07,-0.59 -1.42,-1.87 -0.77,-4.25 -1,-6.41 -0.01,-3.31 -3.31,-5.68 -3.05,-9.03 0.22,-3.73 0.77,-7.49 -0.42,-11.11 0.51,-4.97 1.16,-9.94 1.91,-14.88 m 10.62,2.6 c -0.75,3.83 0.56,7.63 0.94,11.42 0.18,2.19 0.77,4.39 2.23,6.09 -0.06,-2.74 -0.48,-5.45 -1.08,-8.12 l 2.13,0.23 c -0.61,-3.31 -1.64,-6.52 -2.44,-9.78 -0.44,0.04 -1.33,0.12 -1.78,0.16 z"
       id="path298"
       inkscape:connector-curvature="0"
       style="opacity:1;fill:#1d1d1b" />
    <path
       d="m 56.65,142.99 c 0.3,1.03 0.67,2.03 1.1,3.02 1.12,2.2 2.86,4.28 2.81,6.88 0.23,4.05 0.22,8.35 2.55,11.86 2.95,4.4 3.57,10.52 8.55,13.31 -1.37,-0.18 -2.73,-0.35 -4.1,-0.52 -2.45,-3.98 -4.9,-7.97 -7.37,-11.94 -2.1,-0.33 -4.23,-0.46 -6.32,0.06 -0.08,-0.61 -0.22,-1.84 -0.3,-2.46 1.52,-1.03 3.07,-2.01 4.62,-2.99 -0.1,-2.77 -0.14,-5.6 0.87,-8.23 -0.61,-0.9 -0.85,-2.38 -2.13,-2.55 -3.87,-0.78 -7.73,0.72 -11.5,1.39 0.13,-0.57 0.39,-1.7 0.52,-2.27 4.18,-0.41 7.58,-2.97 10.7,-5.56 z"
       id="path300"
       inkscape:connector-curvature="0"
       style="opacity:1;fill:#1d1d1b" />
    <path
       d="m 181.29,147.01 c 0.36,-1.34 1.18,-1.7 2.45,-1.08 -0.36,1.33 -1.18,1.69 -2.45,1.08 z"
       id="path302"
       inkscape:connector-curvature="0"
       style="opacity:1;fill:#1d1d1b" />
    <path
       d="m 36.52,147.39 c 2.83,-1.24 4.41,3.71 7.4,2.1 0.59,0.63 1.15,1.27 1.69,1.93 -2.54,0.76 -5.11,0.04 -7.56,-0.66 -7.98,2.28 -15.79,5.55 -24,6.84 7.67,-2.99 14.92,-6.96 22.47,-10.21 z"
       id="path304"
       inkscape:connector-curvature="0"
       style="opacity:1;fill:#1d1d1b" />
    <path
       d="m 67.89,163.58 c 0.59,0.6 0.59,0.6 0,0 z"
       id="path306"
       inkscape:connector-curvature="0"
       style="opacity:1;fill:#1d1d1b" />
    <path
       d="m 48.78,163.59 c 1.4,0.09 2.78,0.3 4.14,0.64 0.45,1.88 -1.65,2.35 -2.96,2.79 -0.57,1.75 -1.15,3.49 -1.73,5.23 -3.41,0.96 -6.9,1.61 -10.3,2.63 -1.26,1.01 -2.14,2.56 -3.78,3.03 -4.32,1.59 -8.63,3.18 -12.98,4.68 4.36,-2.48 9.15,-4.18 13.36,-6.92 1.05,-1.79 1.51,-3.87 2.54,-5.67 3.31,-1.49 6.82,-2.48 10.23,-3.69 0.49,-0.91 0.99,-1.81 1.48,-2.72 z"
       id="path308"
       inkscape:connector-curvature="0"
       style="opacity:1;fill:#1d1d1b" />
    <path
       d="m 117.25,164.25 c 0.26,0.26 0.26,0.26 0,0 z"
       id="path310"
       inkscape:connector-curvature="0"
       style="opacity:1;fill:#1d1d1b" />
    <path
       d="m 122.62,175.95 c 2.98,-0.32 5.99,-0.17 8.98,-0.36 0.38,1.19 0.75,2.39 1.12,3.59 -4.38,1.59 -8.97,2.93 -13.69,2.63 -1.8,-0.11 -3.44,-1.16 -4.24,-2.77 2.58,-1.1 5.08,-2.45 7.83,-3.09 z"
       id="path312"
       inkscape:connector-curvature="0"
       style="opacity:1;fill:#1d1d1b" />
    <path
       d="m 134.17,175.28 c 1.6,-0.04 3.21,-0.06 4.82,-0.04 0.99,0.81 2,1.59 3.01,2.37 l 0.38,0.68 -0.07,0.35 c -1.96,1.75 -4.72,0.29 -6.97,0.05 -0.4,-1.14 -0.79,-2.27 -1.17,-3.41 z"
       id="path314"
       inkscape:connector-curvature="0"
       style="opacity:1;fill:#1d1d1b" />
    <path
       d="m 90.24,179.04 c 0.17,-1.39 2.47,-1.74 3.49,-1.07 -0.27,1.26 -2.47,1.69 -3.49,1.07 z"
       id="path316"
       inkscape:connector-curvature="0"
       style="opacity:1;fill:#1d1d1b" />
    <path
       d="m 51.53,182.51 c 9,-0.06 18,0.21 26.99,-0.18 -0.68,3.25 -0.82,6.57 -0.87,9.88 -0.34,-0.67 -1.01,-2.01 -1.34,-2.69 -4,-1.66 -8.05,-3.19 -12.22,-4.37 5.09,2.66 11.2,4.83 13.32,10.74 0.06,0.84 0.18,2.51 0.24,3.34 -3.59,0.32 -7.17,0.71 -10.75,1.16 -0.05,-3.03 -0.1,-6.07 -0.17,-9.1 -1.39,0.1 -2.77,0.21 -4.16,0.32 -0.17,4.31 -0.19,8.63 0.05,12.95 4.95,-0.71 9.92,-1.25 14.88,-1.93 0.36,9.28 0.09,18.58 0.15,27.87 -1.59,0.5 -3.16,1.03 -4.76,1.49 -7.71,1.77 -15.3,4.7 -21.38,9.9 -0.09,-6.92 0.03,-13.84 -0.08,-20.76 3.5,-2.01 7.33,-3.36 11.26,-4.21 0.03,2.97 0.02,5.94 0,8.91 1.32,-0.26 2.63,-0.51 3.94,-0.77 0,-4.02 0,-8.04 -0.01,-12.06 -5.26,0.51 -10.19,2.43 -15.15,4.11 0.05,-11.53 -0.07,-23.07 0.06,-34.6 z"
       id="path318"
       inkscape:connector-curvature="0"
       style="opacity:1;fill:#1d1d1b" />
    <path
       d="m 164.97,186.43 c 5.35,-2.19 11,-3.06 16.7,-3.71 0.48,0.01 1.43,0.02 1.9,0.03 0.12,5.4 0.12,10.81 -0.08,16.21 -3.61,-0.38 -7.23,-0.58 -10.86,-0.47 0.01,-2.68 0,-5.35 -0.02,-8.03 -1.3,0.04 -2.6,0.07 -3.9,0.11 0.03,3.36 0.03,6.72 -0.08,10.08 3.6,0.77 7.41,1.37 11.04,0.36 -0.36,0.86 -0.74,1.71 -1.1,2.57 1.74,-0.13 3.48,-0.27 5.23,-0.4 -0.04,8.9 0.09,17.81 -0.08,26.72 -8.64,-1.66 -17.37,-2.96 -26.15,-3.52 -0.14,-5.08 -0.06,-10.16 -0.1,-15.23 3.74,0.06 7.48,0.22 11.22,0.44 0.03,2.61 0.03,5.22 0.01,7.83 1.31,0.16 2.62,0.31 3.94,0.46 0,-3.5 -0.01,-6.99 0.01,-10.49 -5.02,-0.73 -10.09,-0.88 -15.15,-1.07 -0.01,-2.83 -0.01,-5.65 0.03,-8.47 2.31,-0.36 4.62,-0.75 6.9,-1.27 1.33,2.03 2.57,4.12 3.73,6.26 3.51,-0.27 7.01,-0.62 10.53,-0.79 -0.66,-0.56 -1.31,-1.11 -1.96,-1.67 -2.69,0.24 -5.36,0.54 -8.03,0.92 -1,-2.01 -1.96,-4.04 -2.9,-6.08 -2.77,0.17 -5.54,0.38 -8.31,0.59 0.03,-3.51 0.01,-7.01 -0.18,-10.5 0.79,-0.07 2.37,-0.19 3.17,-0.25 1.51,-0.08 3.02,-0.25 4.49,-0.63 z"
       id="path320"
       inkscape:connector-curvature="0"
       style="opacity:1;fill:#1d1d1b" />
    <path
       d="m 203.16,182.48 c 3.72,0.03 7.44,0.03 11.15,0.14 -0.06,19.73 0.03,39.46 -0.04,59.2 -3.31,-2.61 -7.1,-4.44 -10.84,-6.29 -0.82,-1.38 -0.54,-3.07 -0.64,-4.59 0.03,-5.81 0.09,-11.63 -0.02,-17.45 -1.2,-0.14 -2.39,-0.28 -3.58,-0.41 -0.1,6.93 0.22,13.88 -0.2,20.81 -3.79,-1.1 -7.59,-2.15 -11.34,-3.38 0.18,-8.85 -0.03,-17.71 0.12,-26.56 2.11,-0.34 4.07,-1.12 5.76,-2.45 1.53,-1.24 2.97,0.78 4.26,1.45 -0.86,-1.07 -1.7,-2.16 -2.52,-3.26 -0.54,-0.14 -1.63,-0.42 -2.18,-0.56 -1.41,1.55 -3.26,2.37 -5.36,2.44 -0.02,-6.25 -0.01,-12.5 -0.01,-18.75 3.83,-0.03 7.65,0.14 11.47,-0.17 -0.01,6.97 0.01,13.94 -0.01,20.92 0.85,0.25 2.55,0.75 3.4,1.01 0.67,-7.35 -0.23,-14.76 0.58,-22.1 z"
       id="path322"
       inkscape:connector-curvature="0"
       style="opacity:1;fill:#1d1d1b" />
    <path
       d="m 81.75,199.82 c 2.37,1.03 4.62,2.4 7.13,3.09 1.44,-0.54 2.8,-1.28 4.19,-1.95 0.43,9.47 -0.33,18.97 0.34,28.41 l 1.99,-0.19 c -1.39,0.41 -2.78,0.84 -4.23,1 -2.79,-2.45 -6.29,-0.57 -9.53,-0.45 0.15,-9.97 -0.05,-19.94 0.11,-29.91 z"
       id="path324"
       inkscape:connector-curvature="0"
       style="opacity:1;fill:#1d1d1b" />
    <path
       d="m 118.97,208.92 c 1.16,-1.15 2.95,-1.25 4.42,-1.78 -0.01,6.12 0.01,12.24 -0.02,18.37 -3.73,0.09 -7.46,0.21 -11.2,0.35 0,-3.72 0.02,-7.44 -0.02,-11.15 1.53,-0.65 3.17,-1.07 4.61,-1.92 1.01,-1.1 1.39,-2.63 2.21,-3.87 z"
       id="path326"
       inkscape:connector-curvature="0"
       style="opacity:1;fill:#1d1d1b" />
  </g>
  <g
     id="#8d8d8cea"
     transform="matrix(0.1875,0,0,0.1875,-5.0000001e-7,-0.0900005)">
    <path
       d="m 177.8,77.84 c 0.63,0.78 0.63,0.78 0,0 z"
       id="path329"
       inkscape:connector-curvature="0"
       style="opacity:0.92000002;fill:#8d8d8c" />
    <path
       d="m 126.39,96.28 c 0.42,-0.15 1.26,-0.45 1.67,-0.6 2.41,0.95 -2.29,2.85 -1.67,0.6 z"
       id="path331"
       inkscape:connector-curvature="0"
       style="opacity:0.92000002;fill:#8d8d8c" />
    <path
       d="m 127.16,98.92 c 0.4,-1.27 1.24,-1.55 2.52,-0.84 -0.39,1.27 -1.23,1.55 -2.52,0.84 z"
       id="path333"
       inkscape:connector-curvature="0"
       style="opacity:0.92000002;fill:#8d8d8c" />
    <path
       d="m 127.99,100.2 c 3.1,-1.72 0.32,3.19 0,0 z"
       id="path335"
       inkscape:connector-curvature="0"
       style="opacity:0.92000002;fill:#8d8d8c" />
    <path
       d="m 128.38,102.3 c 0.41,-0.15 1.23,-0.46 1.64,-0.61 2.41,0.97 -2.29,2.88 -1.64,0.61 z"
       id="path337"
       inkscape:connector-curvature="0"
       style="opacity:0.92000002;fill:#8d8d8c" />
    <path
       d="m 83.91,106.54 c 0.66,-0.32 1.31,-0.63 1.98,-0.94 1.98,-0.69 4.05,-1.06 6.11,-1.44 -0.41,0.63 -1.23,1.9 -1.64,2.53 0.41,-0.08 1.24,-0.23 1.65,-0.31 l 0.25,1.91 c -1.83,0.46 -3.66,0.92 -5.48,1.44 -1,-1.03 -1.93,-2.12 -2.87,-3.19 z"
       id="path339"
       inkscape:connector-curvature="0"
       style="opacity:0.92000002;fill:#8d8d8c" />
    <path
       d="m 86.86,110.6 c 0.95,-0.1 2.84,-0.31 3.78,-0.41 0.62,0.13 1.85,0.39 2.47,0.52 -0.08,0.49 -0.23,1.46 -0.31,1.94 0.64,1.62 1.28,3.24 1.91,4.86 -1.49,0.27 -2.99,0.49 -4.5,0.63 0.87,-0.63 1.74,-1.25 2.61,-1.86 -0.78,-0.01 -2.35,-0.04 -3.13,-0.06 0.22,-0.48 0.67,-1.43 0.89,-1.91 -0.49,-0.07 -1.48,-0.19 -1.98,-0.26 0.24,-0.32 0.71,-0.97 0.95,-1.3 -0.9,-0.71 -1.8,-1.43 -2.69,-2.15 z"
       id="path341"
       inkscape:connector-curvature="0"
       style="opacity:0.92000002;fill:#8d8d8c" />
    <path
       d="m 111.22,111.1 c 3.04,-1.57 0.23,3.29 0,0 z"
       id="path343"
       inkscape:connector-curvature="0"
       style="opacity:0.92000002;fill:#8d8d8c" />
    <path
       d="m 181.45,113.19 c 0.57,-0.02 1.72,-0.06 2.29,-0.08 0.06,1.33 -1.87,1.5 -2.76,2.05 -0.58,0.5 -2.68,0.58 -1.84,-0.68 0.58,-0.32 1.74,-0.97 2.31,-1.29 z"
       id="path345"
       inkscape:connector-curvature="0"
       style="opacity:0.92000002;fill:#8d8d8c" />
    <path
       d="m 58.22,117.96 c 1.28,4.95 -1,9.95 -0.21,14.95 0.5,4.36 0.07,8.74 -0.26,13.1 -0.43,-0.99 -0.8,-1.99 -1.1,-3.02 -0.13,-2.21 -0.24,-4.43 -0.7,-6.6 l 1.79,0.71 c -1.06,-6.4 0.31,-12.76 0.48,-19.14 z"
       id="path347"
       inkscape:connector-curvature="0"
       style="opacity:0.92000002;fill:#8d8d8c" />
    <path
       d="m 77.09,140.36 c 1.3,-2.71 1.65,-5.71 2.07,-8.64 0.19,2.74 -0.08,5.49 -0.49,8.21 0.5,0.02 1.51,0.07 2.02,0.09 0.46,2.2 1.38,4.24 2.31,6.27 -0.79,0.22 -2.38,0.65 -3.17,0.87 -1.2,-2.15 -2.22,-4.4 -2.74,-6.8 z"
       id="path349"
       inkscape:connector-curvature="0"
       style="opacity:0.92000002;fill:#8d8d8c" />
    <path
       d="m 194.09,132 c 0.38,0.01 1.15,0.03 1.53,0.04 l 0.06,0.79 c -0.38,-0.01 -1.15,-0.03 -1.53,-0.04 z"
       id="path351"
       inkscape:connector-curvature="0"
       style="opacity:0.92000002;fill:#8d8d8c" />
    <path
       d="m 121.15,133.26 c 1.64,-0.5 2.2,0.05 1.71,1.65 -1.66,0.49 -2.23,-0.06 -1.71,-1.65 z"
       id="path353"
       inkscape:connector-curvature="0"
       style="opacity:0.92000002;fill:#8d8d8c" />
    <path
       d="m 193.35,134.23 c 3.06,-1.34 0.27,3.32 0,0 z"
       id="path355"
       inkscape:connector-curvature="0"
       style="opacity:0.92000002;fill:#8d8d8c" />
    <path
       d="m 149.05,139.64 c 3.95,-1.57 2.68,6.98 -1.09,6.03 1.17,-0.11 2.34,-0.21 3.52,-0.3 -0.98,2.91 -4.71,3.98 -7.5,4.15 0.27,-1.23 0.45,-2.48 0.22,-3.73 1.48,-0.76 3,-1.47 4.54,-2.13 0.07,-1.34 0.18,-2.68 0.31,-4.02 z"
       id="path357"
       inkscape:connector-curvature="0"
       style="opacity:0.92000002;fill:#8d8d8c" />
    <path
       d="m 177.34,147.72 c 0.43,-1.22 1.28,-1.45 2.55,-0.69 -0.39,1.23 -1.24,1.46 -2.55,0.69 z"
       id="path359"
       inkscape:connector-curvature="0"
       style="opacity:0.92000002;fill:#8d8d8c" />
    <path
       d="m 177.94,148.59 c 3.48,-0.3 6.81,-1.53 10.31,-1.65 -0.42,2.68 -3.36,2.3 -5.19,3.31 -1.88,0.42 -4.95,1.12 -5.12,-1.66 z"
       id="path361"
       inkscape:connector-curvature="0"
       style="opacity:0.92000002;fill:#8d8d8c" />
    <path
       d="m 181.47,151 c 1.38,-0.04 3.66,-1.76 4.58,-0.23 -0.82,1.59 -3.14,1.53 -4.68,1.39 0.03,-0.29 0.08,-0.87 0.1,-1.16 z"
       id="path363"
       inkscape:connector-curvature="0"
       style="opacity:0.92000002;fill:#8d8d8c" />
    <path
       d="m 110.17,159.48 c 1.98,-1.01 3.94,-2.02 5.92,-3.02 0.39,1.3 0.83,2.73 -0.79,3.33 0.59,-0.05 1.78,-0.16 2.37,-0.22 -0.56,1.97 -2.79,2.13 -4.31,2.96 1.66,-0.29 3.27,-0.76 4.92,-1.14 -1.09,1.12 -2.21,2.22 -3.28,3.36 -0.89,0.08 -2.66,0.25 -3.55,0.33 -0.5,-1.85 -0.9,-3.72 -1.28,-5.6 z"
       id="path365"
       inkscape:connector-curvature="0"
       style="opacity:0.92000002;fill:#8d8d8c" />
    <path
       d="m 201.9,157 c 1.34,0.5 1.61,1.36 0.82,2.6 l -0.62,-0.27 c -0.05,-0.58 -0.15,-1.75 -0.2,-2.33 z"
       id="path367"
       inkscape:connector-curvature="0"
       style="opacity:0.92000002;fill:#8d8d8c" />
    <path
       d="m 141.8,159.51 c 3.05,-0.19 5.95,-1.18 8.9,-1.87 -0.04,0.85 -0.11,2.55 -0.15,3.4 -3.02,2.38 -5.81,5 -8.38,7.86 -1.78,0.19 -3.62,0.02 -5.37,0.49 0.62,2.21 3.66,0.92 5.32,1.12 -1.89,0.26 -3.8,0.66 -5.7,0.46 l -0.25,-1.03 c -3.27,-1.05 -7.02,1.13 -10.15,-0.71 2,0.18 4.06,0.47 6.04,-0.06 2.78,-1.58 4.19,-4.73 6.85,-6.45 1.41,-0.13 2.82,-0.2 4.23,-0.22 -1.43,-0.18 -2.85,-0.37 -4.28,-0.55 0.98,-0.82 1.96,-1.63 2.94,-2.44 z"
       id="path369"
       inkscape:connector-curvature="0"
       style="opacity:0.92000002;fill:#8d8d8c" />
    <path
       d="m 99.01,163.79 c 3.48,-0.65 6.66,-2.24 9.88,-3.63 -0.26,2.53 -3.05,3 -4.97,3.83 -2.91,0.99 -5.84,2.76 -9,1.7 0.65,-1.69 2.67,-1.42 4.09,-1.9 z"
       id="path371"
       inkscape:connector-curvature="0"
       style="opacity:0.92000002;fill:#8d8d8c" />
    <path
       d="m 144.98,170.51 c 0.59,-0.03 1.76,-0.1 2.35,-0.13 0.2,4.3 1.14,8.49 2.3,12.62 -0.01,-1.1 -0.02,-2.21 -0.02,-3.31 0.55,-0.03 1.65,-0.11 2.21,-0.14 -0.44,0.75 -0.87,1.51 -1.3,2.27 0.51,1.05 1.03,2.1 1.54,3.16 2.97,-0.31 5.93,-0.73 8.91,-1.03 1.56,0.4 2.86,1.35 4,2.48 -1.47,0.38 -2.98,0.55 -4.49,0.63 -2.07,-0.53 -3.93,0.43 -5.75,1.24 -1.93,-0.1 -3.85,-0.31 -5.76,-0.57 0.41,-0.1 1.24,-0.31 1.66,-0.41 -3.98,-4.62 -5.72,-10.79 -5.65,-16.81 z"
       id="path373"
       inkscape:connector-curvature="0"
       style="opacity:0.92000002;fill:#8d8d8c" />
    <path
       d="m 110.39,176.28 c 0.41,-0.16 1.24,-0.48 1.66,-0.64 2.4,0.91 -2.31,2.92 -1.66,0.64 z"
       id="path375"
       inkscape:connector-curvature="0"
       style="opacity:0.92000002;fill:#8d8d8c" />
    <path
       d="m 181.67,182.72 c 3.97,-1.55 8.21,-2.02 12.38,-2.72 0.11,0.26 0.33,0.78 0.44,1.04 l 0.5,0.91 c 1.39,0.26 2.8,0.48 4.2,0.7 -3.82,0.31 -7.64,0.14 -11.47,0.17 -0.8,0.06 -2.39,0.19 -3.19,0.25 -0.43,5.43 -0.17,10.89 -0.26,16.33 -3.9,0.03 -7.8,-0.22 -11.64,-0.91 3.63,-0.11 7.25,0.09 10.86,0.47 0.2,-5.4 0.2,-10.81 0.08,-16.21 -0.47,-0.01 -1.42,-0.02 -1.9,-0.03 z"
       id="path377"
       inkscape:connector-curvature="0"
       style="opacity:0.92000002;fill:#8d8d8c" />
    <path
       d="m 62.57,191.61 c 1.39,-0.11 2.77,-0.22 4.16,-0.32 0.07,3.03 0.12,6.07 0.17,9.1 3.58,-0.45 7.16,-0.84 10.75,-1.16 -0.06,-0.83 -0.18,-2.5 -0.24,-3.34 0.5,1.25 0.7,2.57 0.92,3.89 -3.98,0.45 -7.97,0.83 -11.96,1.02 0.03,-3.03 0.04,-6.06 -0.01,-9.09 -0.73,0.11 -2.2,0.33 -2.93,0.44 -0.1,3.16 -1.54,7.43 1.1,9.82 l -1.43,-0.46 -0.04,2.29 c 5.11,-0.47 10.18,-1.48 15.33,-1.52 -0.28,9.88 0.18,19.76 -0.29,29.64 l 2.25,-0.49 c -0.37,0.31 -1.11,0.94 -1.48,1.25 -0.44,0.11 -1.31,0.31 -1.74,0.41 l 0.8,-1.83 c -1.68,0.21 -3.36,0.45 -5.04,0.73 1.6,-0.46 3.17,-0.99 4.76,-1.49 -0.06,-9.29 0.21,-18.59 -0.15,-27.87 -4.96,0.68 -9.93,1.22 -14.88,1.93 -0.24,-4.32 -0.22,-8.64 -0.05,-12.95 z"
       id="path379"
       inkscape:connector-curvature="0"
       style="opacity:0.92000002;fill:#8d8d8c" />
    <path
       d="m 125.44,203.28 c 1.73,0.13 0.43,3.55 -1.01,2.73 -0.35,-1.14 -0.01,-2.05 1.01,-2.73 z"
       id="path381"
       inkscape:connector-curvature="0"
       style="opacity:0.92000002;fill:#8d8d8c" />
  </g>
</svg>
