<?xml version="1.0" encoding="utf-8"?>
<!-- Generator: Adobe Illustrator 22.0.0, SVG Export Plug-In . SVG Version: 6.00 Build 0)  -->
<svg version="1.1" id="Camada_1" xmlns="http://www.w3.org/2000/svg" xmlns:xlink="http://www.w3.org/1999/xlink" x="0px" y="0px"
	 width="64px" height="64px" viewBox="0 0 64 64" style="enable-background:new 0 0 64 64;" xml:space="preserve">
<g>
	<g>
		<path style="fill:#ED1C21;" d="M31.977,64c-1.33-2.294-2.622-4.52-3.911-6.748c-1.599-2.765-3.195-5.531-4.791-8.298
			c-3.386-5.869-6.77-11.74-10.157-17.608c-2.434-4.217-4.873-8.432-7.309-12.648c-0.024-0.042-0.044-0.087-0.072-0.127
			c-0.16-0.223-0.145-0.322,0.171-0.316c0.863,0.015,1.727,0.005,2.59,0.005c1.082,0,2.165,0.007,3.247-0.006
			c0.241-0.003,0.406,0.073,0.57,0.242c0.617,0.638,1.249,1.262,1.873,1.892c0.073,0.074,0.137,0.156,0.257,0.295
			c-0.188,0-0.303,0-0.419,0c-1.265,0-2.529-0.002-3.794,0.003c-0.124,0.001-0.295-0.077-0.367,0.055
			c-0.061,0.11,0.079,0.215,0.138,0.315c2.262,3.924,4.525,7.848,6.79,11.77c3.261,5.647,6.524,11.294,9.785,16.941
			c1.743,3.018,3.485,6.037,5.228,9.055c0.047,0.081,0.073,0.179,0.201,0.232c7.373-12.769,14.746-25.539,22.15-38.36
			c-1.429,0-2.795,0-4.248,0c0.336-0.367,0.614-0.677,0.9-0.979c0.409-0.433,0.825-0.859,1.232-1.293
			c0.097-0.103,0.191-0.166,0.342-0.166c1.946,0.005,3.891,0.004,5.837,0.006c0.032,0,0.064,0.018,0.141,0.042
			C49.57,33.531,40.788,48.741,31.977,64z"/>
		<path style="fill:#FFFFFF;" d="M35.415,15.025c0.634-0.702,1.262-1.41,1.902-2.106c2.31-2.512,4.626-5.02,6.937-7.531
			c0.656-0.712,1.304-1.432,2.036-2.106c-0.164,0.52-0.327,1.041-0.493,1.561c-0.303,0.948-0.616,1.892-0.908,2.844
			c-0.197,0.641-0.615,1.155-0.957,1.71c-0.701,1.137-1.429,2.257-2.146,3.384c-0.319,0.502-0.267,1.484,0.103,1.938
			c0.353,0.433,0.713,0.86,1.055,1.302c0.14,0.181,0.294,0.251,0.524,0.249c1.641-0.009,3.283-0.006,4.924-0.003
			c0.13,0,0.267-0.037,0.451,0.082c-1.408,1.384-2.803,2.755-4.199,4.126c0.02,0.031,0.039,0.062,0.059,0.093
			c1.183,0,2.365,0,3.548,0c0.011,0.026,0.022,0.052,0.034,0.079c-0.413,0.295-0.825,0.59-1.239,0.884
			c-0.554,0.394-1.113,0.782-1.661,1.184c-0.176,0.129-0.353,0.183-0.571,0.18c-0.766-0.01-1.532,0.002-2.298-0.008
			c-0.201-0.003-0.333,0.067-0.469,0.214c-2.169,2.346-4.344,4.685-6.517,7.027c-1.041,1.122-2.086,2.239-3.112,3.375
			c-0.216,0.239-0.319,0.202-0.516-0.011c-2.826-3.061-5.66-6.114-8.492-9.169c-0.388-0.418-0.782-0.831-1.16-1.258
			c-0.118-0.132-0.24-0.177-0.411-0.175c-0.79,0.007-1.581,0.003-2.371,0.003c-0.132,0-0.261,0.007-0.382-0.08
			c-1.012-0.728-2.029-1.45-3.114-2.225c1.272,0,2.467,0,3.662,0c0.015-0.028,0.03-0.056,0.045-0.084
			c-1.389-1.389-2.777-2.778-4.236-4.236c0.318,0,0.532,0,0.746,0c1.556,0,3.113-0.004,4.669,0.004
			c0.225,0.001,0.381-0.052,0.525-0.239c0.378-0.49,0.779-0.963,1.175-1.439c0.114-0.137,0.15-0.288,0.174-0.464
			c0.098-0.712-0.118-1.305-0.52-1.899c-0.864-1.277-1.663-2.597-2.49-3.899C19.467,7.92,19.387,7.446,19.237,7
			c-0.398-1.185-0.766-2.379-1.147-3.569c-0.022-0.067-0.064-0.131-0.011-0.236c0.714,0.775,1.421,1.54,2.127,2.307
			c1.933,2.1,3.869,4.197,5.799,6.3c0.975,1.063,1.94,2.137,2.909,3.206c0.003,0.013,0.005,0.025,0.008,0.038
			c-0.93-0.067-1.861-0.124-2.789-0.206c-0.239-0.021-0.375,0.064-0.516,0.239c-0.847,1.048-1.708,2.085-2.555,3.134
			c-0.12,0.149-0.236,0.212-0.426,0.205c-0.371-0.015-0.742-0.004-1.185-0.004c0.843,0.925,1.63,1.793,2.422,2.657
			c1.321,1.441,2.646,2.878,3.967,4.319c1.37,1.495,2.74,2.991,4.104,4.491c0.157,0.173,0.247,0.227,0.438,0.014
			c0.884-0.985,1.791-1.948,2.686-2.924c2.223-2.426,4.445-4.852,6.662-7.283c0.369-0.405,0.773-0.783,1.118-1.274
			c-0.395,0-0.736-0.02-1.074,0.006c-0.253,0.02-0.405-0.088-0.552-0.269c-0.817-1.01-1.65-2.007-2.454-3.027
			c-0.184-0.233-0.366-0.303-0.645-0.279c-0.905,0.078-1.811,0.137-2.717,0.204C35.405,15.049,35.415,15.025,35.415,15.025z"/>
		<path style="fill:#FFFFFF;" d="M28.921,15.046c-0.002-0.013-0.005-0.025-0.008-0.038c0.22-0.306,0.157-0.675,0.203-1.013
			c0.434-3.193,0.849-6.389,1.275-9.584C30.587,2.946,30.795,1.482,30.999,0c0.064,0.218,0.047,0.422,0.047,0.625
			c0.001,5.179,0,10.359,0.004,15.538c0,0.23-0.051,0.407-0.21,0.587c-0.596,0.672-1.164,1.369-1.755,2.045
			c-0.194,0.222-0.246,0.349,0.025,0.586c0.959,0.839,1.887,1.714,2.818,2.586c0.174,0.163,0.282,0.182,0.469,0.006
			c0.948-0.889,1.905-1.767,2.873-2.635c0.202-0.181,0.202-0.289,0.027-0.488c-0.626-0.711-1.23-1.441-1.847-2.159
			c-0.117-0.136-0.176-0.272-0.176-0.457c0.004-5.264,0.004-10.529,0.005-15.793c0-0.079-0.027-0.165,0.077-0.286
			c0.087,0.623,0.17,1.202,0.248,1.782c0.43,3.207,0.859,6.414,1.289,9.62c0.146,1.093,0.294,2.186,0.44,3.279
			c0.009,0.071,0,0.149,0.082,0.188c0,0-0.01,0.025-0.01,0.025c0.032,0.138,0.137,0.225,0.222,0.327
			c1.013,1.208,2.022,2.42,3.044,3.621c0.169,0.199,0.161,0.318-0.021,0.504c-0.526,0.537-1.03,1.096-1.541,1.648
			c-1.494,1.61-2.989,3.219-4.48,4.831c-0.442,0.477-0.445,0.488-0.897,0.004c-2.044-2.193-4.081-4.391-6.127-6.582
			c-0.122-0.131-0.112-0.199-0.004-0.325c0.731-0.859,1.465-1.716,2.176-2.592C28.163,16.009,28.624,15.592,28.921,15.046z"/>
		<path style="fill:#FFFFFF;" d="M25.502,41.44c0.302,0.131,0.586,0.18,0.872,0.097c0.529-0.153,0.8-0.704,0.658-1.281
			c-0.394-1.6-0.821-3.192-1.323-4.88c0.331,0.282,0.588,0.5,0.845,0.72c0.702,0.599,1.395,1.21,2.11,1.793
			c0.236,0.192,0.342,0.417,0.4,0.698c0.227,1.104,0.47,2.205,0.689,3.311c0.042,0.211,0.132,0.346,0.311,0.456
			c0.631,0.388,1.26,0.779,1.878,1.186c0.167,0.11,0.281,0.12,0.449,0.009c0.639-0.42,1.288-0.826,1.936-1.232
			c0.142-0.089,0.21-0.198,0.245-0.372c0.231-1.152,0.482-2.301,0.728-3.45c0.035-0.165,0.067-0.328,0.21-0.451
			c1.015-0.867,2.026-1.738,3.109-2.669c-0.237,0.85-0.456,1.61-0.661,2.373c-0.224,0.831-0.43,1.667-0.656,2.498
			c-0.118,0.433-0.013,0.793,0.312,1.087c0.324,0.294,0.698,0.303,1.089,0.15c0.033-0.013,0.068-0.021,0.144-0.045
			c-0.166,0.956-0.589,1.722-1.359,2.291c-0.593,0.438-1.273,0.708-1.937,1.004c-1.47,0.653-2.577,1.669-3.252,3.139
			c-0.025,0.055-0.055,0.108-0.087,0.159c-0.011,0.018-0.036,0.028-0.067,0.052c-0.532-1.197-1.308-2.186-2.439-2.869
			c-0.688-0.416-1.44-0.703-2.16-1.054c-1.085-0.529-1.779-1.364-2.027-2.555C25.511,41.562,25.51,41.517,25.502,41.44z"/>
		<path style="fill:#FFFFFF;" d="M31.498,37.867c-0.623-0.533-1.246-1.066-1.868-1.6c-1.733-1.485-3.464-2.971-5.2-4.452
			c-0.106-0.09-0.191-0.178-0.231-0.312c-0.534-1.797-1.069-3.593-1.606-5.395c0.161-0.047,0.197,0.089,0.259,0.159
			c1.083,1.213,2.16,2.432,3.241,3.646c0.11,0.124,0.161,0.232,0.131,0.418c-0.138,0.863,0.462,1.551,1.343,1.557
			c0.185,0.001,0.318,0.049,0.442,0.191c0.979,1.111,1.965,2.216,2.948,3.323c0.032,0.036,0.072,0.074,0.084,0.117
			C31.261,36.28,31.417,37.053,31.498,37.867z"/>
		<path style="fill:#FFFFFF;" d="M32.748,37.877c0.171-0.778,0.325-1.5,0.494-2.218c0.026-0.111,0.11-0.217,0.188-0.306
			c0.971-1.102,1.948-2.199,2.918-3.303c0.118-0.135,0.251-0.161,0.418-0.163c0.879-0.007,1.454-0.648,1.351-1.52
			c-0.022-0.186,0.003-0.319,0.128-0.459c1.108-1.241,2.211-2.487,3.317-3.73c0.013-0.014,0.045-0.012,0.083-0.021
			c0.096,0.075,0.039,0.167,0.014,0.251c-0.502,1.686-1.006,3.371-1.507,5.057c-0.036,0.12-0.09,0.224-0.185,0.305
			c-2.353,2.013-4.706,4.026-7.06,6.038C32.881,37.831,32.844,37.837,32.748,37.877z"/>
	</g>
</g>
</svg>
