<?xml version="1.0" encoding="utf-8"?>
<!-- Generator: Adobe Illustrator 22.0.0, SVG Export Plug-In . SVG Version: 6.00 Build 0)  -->
<svg version="1.1" id="Camada_1" xmlns="http://www.w3.org/2000/svg" xmlns:xlink="http://www.w3.org/1999/xlink" x="0px" y="0px"
	 width="64px" height="64px" viewBox="0 0 64 64" enable-background="new 0 0 64 64" xml:space="preserve">
<g>
	<g>
		<path fill="#1A1623" d="M0.005,37.144c0-1.961,0.003-3.922-0.005-5.883c-0.001-0.188,0.039-0.305,0.207-0.408
			c0.975-0.594,1.943-1.2,2.913-1.802c0.038-0.024,0.077-0.066,0.115-0.066c0.459,0.001,0.48-0.358,0.579-0.672
			c1.168-3.697,3.539-6.185,7.32-7.236c0.264-0.073,0.371-0.174,0.261-0.424c-0.315-0.717-0.085-1.207,0.581-1.575
			c0.985-0.544,1.525-1.429,1.828-2.488c0.053-0.187,0.042-0.347-0.003-0.521c-0.262-1.03-0.518-2.062-0.79-3.09
			c-0.048-0.18-0.037-0.308,0.083-0.457c1.266-1.584,2.525-3.173,3.784-4.763c0.092-0.117,0.201-0.205,0.329-0.28
			c3.494-2.055,7.251-3.318,11.281-3.772C40.635,2.34,51.987,8.784,57.256,19.432c0.138,0.278,0.214,0.663,0.44,0.8
			c0.233,0.141,0.601-0.051,0.91-0.098c0.266-0.04,0.534-0.071,0.796-0.13c0.37-0.083,0.72-0.054,1.085,0.061
			c1.013,0.32,2.034,0.616,3.056,0.908c0.191,0.055,0.267,0.121,0.27,0.336c0.055,3.933,0.118,7.866,0.189,11.799
			c0.005,0.265-0.068,0.419-0.3,0.559c-0.865,0.517-1.72,1.049-2.567,1.594c-0.292,0.188-0.593,0.311-0.934,0.328
			c-0.188,0.01-0.268,0.074-0.296,0.273c-1.476,10.369-8.154,18.837-17.904,22.692c-2.759,1.091-5.628,1.704-8.591,1.87
			c-11.575,0.65-22.187-5.541-27.305-15.936c-0.096-0.196-0.198-0.273-0.407-0.216c-0.107,0.03-0.224,0.026-0.33,0.059
			c-0.979,0.301-1.91,0.102-2.844-0.229c-0.674-0.239-1.367-0.428-2.058-0.613c-0.217-0.058-0.278-0.148-0.278-0.364
			c0.007-1.995,0.004-3.989,0.004-5.984C0.127,37.144,0.066,37.144,0.005,37.144z M19.817,42.257c0.011,0.01,0.021,0.02,0.032,0.03
			c-0.009-0.011-0.018-0.023-0.027-0.034c-0.011-0.01-0.023-0.019-0.034-0.029C19.797,42.235,19.807,42.246,19.817,42.257z
			 M47.189,52.88l0.001-0.001c-0.058-0.002-0.109,0.012-0.134,0.071l0.002-0.001c-0.107-0.016-0.198,0.03-0.287,0.077
			c-0.834,0.44-1.715,0.76-2.614,1.035c-1.629,0.498-3.299,0.778-4.998,0.828c-1.004,0.03-2.011,0.046-3.018-0.047
			c-1.023-0.094-2.035-0.232-3.036-0.459c-2.035-0.461-3.937-1.259-5.732-2.307c-1.47-0.858-2.824-1.878-4.091-3.017
			c-0.717-0.645-1.373-1.346-2.022-2.055c-0.144-0.158-0.223-0.109-0.301,0.036c-0.151,0.281-0.233,0.577-0.177,0.902
			c0.123,0.708,0.439,1.329,0.826,1.925c0.205,0.315,0.47,0.59,0.626,0.938c-0.141,0.01-0.222-0.095-0.313-0.171
			c-2.712-2.232-4.662-5.025-6.049-8.229c-0.288-0.665-0.273-0.673-0.991-0.554c-1.974,0.328-3.946,0.665-5.922,0.977
			c-0.308,0.049-0.281,0.155-0.204,0.383c0.886,2.629,2.514,4.784,4.379,6.773c2.281,2.431,4.988,4.277,8.004,5.683
			c2.929,1.365,6.02,2.079,9.235,2.244c1.948,0.1,3.892,0.002,5.823-0.313c3.246-0.53,6.321-1.537,9.156-3.227
			c0.865-0.516,1.732-1.031,2.456-1.747c0.05-0.023,0.119-0.083,0.093-0.108c-0.066-0.063-0.106,0.012-0.14,0.066
			c-0.12,0.056-0.239,0.112-0.359,0.167c-0.028,0.019-0.057,0.038-0.085,0.058c-0.013,0.007-0.028,0.012-0.043,0.014
			C47.246,52.841,47.218,52.86,47.189,52.88z M41.746,7.95c0.073,0.108,0.181,0.066,0.279,0.065c0.083,0.017,0.166,0.033,0.32,0.064
			c-0.246-0.144-0.425-0.251-0.639-0.274c-0.099-0.051-0.195-0.11-0.297-0.15c-3.624-1.431-7.377-2.036-11.27-1.806
			c-2.111,0.125-4.165,0.518-6.193,1.099c-1.175,0.336-2.205,0.85-3.048,1.775c-1.551,1.703-2.639,3.629-3.096,5.897
			c-0.016,0.082,0.008,0.193-0.13,0.193c-0.013-0.065-0.013-0.136-0.04-0.195c-0.287-0.633-0.49-1.28-0.528-1.989
			c-0.017-0.325,0.025-0.685-0.164-1.021c-0.304,0.321-0.631,0.592-0.889,0.931c-0.075,0.065-0.146,0.137-0.227,0.195
			c-0.272,0.195-0.34,0.428-0.207,0.748c0.098,0.235,0.144,0.493,0.201,0.743c0.177,0.783,0.439,1.545,0.568,2.339
			c-0.415,0.894-0.622,1.875-1.147,2.722c-0.252,0.132-0.331,0.413-0.519,0.598c-0.254,0.248-0.275,0.504-0.145,0.838
			c0.255,0.655,0.471,1.326,0.682,1.998c0.101,0.322,0.262,0.57,0.538,0.774c0.458,0.339,0.888,0.716,1.329,1.077
			c-0.398,0.127-0.792,0.321-1.211,0.064c-2.035-1.287-4.206-1.682-6.361-0.488c-2.677,1.485-3.853,3.939-3.925,6.958
			c-0.008,0.348,0.208,0.271,0.402,0.239c2.427-0.396,4.853-0.799,7.282-1.184c0.248-0.039,0.277-0.137,0.268-0.346
			c-0.029-0.671-0.053-1.343,0.07-2.01c0.061,0.118,0.127,0.234,0.182,0.355c0.178,0.393,0.45,0.696,0.901,0.696
			c0.442,0,0.806-0.16,1.01-0.626c0.26-0.592,0.676-1.085,1.222-1.441c0.979-0.639,2.07-0.855,3.228-0.818
			c0.303,0.01,0.566,0.05,0.799,0.263c0.212,0.193,0.494,0.264,0.765,0.328c0.613,0.145,1.336-0.362,1.422-0.978
			c0.095-0.675-0.266-1.319-0.866-1.545c-0.611-0.23-1.311-0.008-1.664,0.579c-0.138,0.229-0.293,0.238-0.499,0.202
			c-0.34-0.06-0.679-0.127-1.018-0.19c-0.252-0.447-0.494-0.901-0.761-1.339c-0.126-0.208-0.087-0.298,0.128-0.393
			c0.981-0.433,1.959-0.873,2.932-1.325c0.225-0.104,0.427-0.133,0.669-0.072c1.081,0.272,2.164,0.549,3.293,0.294
			c0.285-0.068,0.136-0.265,0.098-0.396c-0.247-0.846-0.502-1.69-0.773-2.529c-0.073-0.227-0.055-0.403,0.093-0.588
			c0.604-0.76,1.207-1.521,1.799-2.29c0.905-1.176,1.836-2.333,2.685-3.551c0.116-0.167,0.148-0.327,0.108-0.533
			c-0.144-0.734-0.334-1.456-0.556-2.169c-0.083-0.266-0.032-0.415,0.237-0.499c0.416-0.129,0.825-0.277,1.242-0.402
			c2.276-0.683,4.602-1.055,6.979-1.078c0.781-0.008,1.562-0.016,2.345,0.045c0.698,0.054,1.395,0.169,2.099,0.146L41.746,7.95z
			 M41.812,49.988c0.011,0.015,0.021,0.029,0.032,0.044c0.004-0.013,0.007-0.027,0.011-0.04c-0.016,0.001-0.031,0.001-0.047,0.002
			c-0.097-0.463-0.177-0.926,0.024-1.435C41.373,48.838,41.394,49.519,41.812,49.988z M17.683,27.846
			c-0.025-0.032-0.055-0.06-0.09-0.02c-0.007,0.008,0.02,0.046,0.032,0.07c0.323,0.387,0.561,0.804,0.439,1.353
			c0.418-0.209,0.46-0.306,0.294-0.684C18.219,28.248,17.989,28.01,17.683,27.846z M30.181,25.988
			c0.445-0.194,0.8-0.525,1.197-0.791c0.073-0.049,0.069-0.134,0.074-0.213c0.044-0.791,0.104-1.582,0.131-2.373
			c0.041-1.194,0.098-2.386,0.202-3.576c0.013-0.147-0.012-0.285-0.075-0.423c-0.488-1.056-0.971-2.114-1.456-3.171
			c-0.028-0.06-0.044-0.135-0.136-0.161c0.122,0.709,0.242,1.399,0.361,2.089c0.11,0.638,0.275,1.287,0.149,1.927
			c-0.279,1.422-0.616,2.832-0.929,4.247c-0.047,0.215-0.113,0.312-0.385,0.242c-0.723-0.188-1.428-0.444-2.169-0.56
			c-0.029,0.606-0.051,1.215,0.339,1.732c0.141,0.187,0.135,0.258-0.087,0.35c-0.393,0.163-0.771,0.359-1.157,0.537
			c-0.086,0.039-0.157,0.085-0.191,0.175c-0.17,0.449-0.257,0.902-0.097,1.376c0.084,0.25,0.209,0.324,0.478,0.223
			c0.964-0.361,1.936-0.698,2.905-1.047C29.665,26.451,29.938,26.24,30.181,25.988z M20.099,42.649
			c-0.007-0.118-0.026-0.227-0.191-0.238c0.01,0.142,0.094,0.195,0.174,0.253c0.03,0.059,0.051,0.124,0.091,0.175
			c0.853,1.093,1.75,2.144,2.788,3.074c1.029,0.922,2.116,1.759,3.324,2.424c2.58,1.422,5.326,2.148,8.296,1.931
			c0.837-0.061,1.667-0.157,2.479-0.354c3.486-0.849,5.909-2.942,7.256-6.27c0.8-1.976,1.131-4.033,1.069-6.161
			c-0.008-0.264-0.105-0.287-0.33-0.248c-0.658,0.115-1.319,0.211-1.98,0.31c-1.134,0.17-2.27,0.332-3.404,0.504
			c-1.387,0.21-2.773,0.428-4.16,0.638c-1.156,0.175-2.313,0.342-3.469,0.514c-0.958,0.143-1.917,0.286-2.874,0.431
			c-1.076,0.163-2.151,0.328-3.227,0.492c0.11,0.045,0.218,0.051,0.326,0.044c1.347-0.087,2.693-0.177,4.04-0.263
			c1.114-0.071,2.227-0.149,3.341-0.201c1.405-0.065,2.805-0.197,4.209-0.259c0.971-0.043,1.94-0.119,2.91-0.17
			c0.43-0.023,0.87-0.001,1.3-0.095c0.376-0.082,0.466,0.011,0.413,0.394c-0.262,1.888-0.782,3.688-1.788,5.327
			c-1.001,1.632-2.351,2.849-4.146,3.558c-1.544,0.611-3.136,0.688-4.767,0.529c-1.764-0.172-3.447-0.637-5.05-1.372
			c-2.421-1.111-4.514-2.674-6.27-4.682C20.358,42.822,20.274,42.675,20.099,42.649z M31.796,51.603
			c-0.053-0.078-0.132-0.072-0.212-0.067c-0.518-0.189-1.035-0.378-1.553-0.567c0.003,0.075,0.026,0.096,0.052,0.114
			c3.141,2.066,6.624,2.606,10.288,2.249c2.094-0.204,4.107-0.77,6.068-1.529c5.126-1.983,8.622-5.54,10.405-10.754
			c0.609-1.78,0.927-3.616,1.024-5.492c0.009-0.181,0.019-0.342-0.254-0.294c-1.036,0.179-2.072,0.355-3.11,0.519
			c-0.189,0.03-0.237,0.118-0.241,0.288c-0.014,0.717-0.107,1.428-0.218,2.135c-0.315,2.013-0.827,3.966-1.8,5.773
			c-0.404,0.751-0.86,1.468-1.49,2.057c0.004-0.056-0.003-0.115,0.015-0.166c0.269-0.76,0.469-1.535,0.56-2.338
			c0.052-0.464,0.032-0.913-0.133-1.435c-0.059,0.151-0.091,0.221-0.114,0.293c-0.295,0.918-0.664,1.802-1.142,2.643
			c-0.778,1.368-1.775,2.548-3.001,3.532c-1.343,1.078-2.884,1.784-4.496,2.345c-1.681,0.585-3.403,0.982-5.187,1.11
			c-1.276,0.092-2.539,0.062-3.806-0.124c-0.541-0.079-1.063-0.249-1.61-0.283C31.827,51.611,31.812,51.608,31.796,51.603z
			 M46.317,16.632c-0.102,0.006-0.198-0.01-0.296-0.044c-0.759-0.264-1.535-0.462-2.328-0.596c-0.993-0.168-1.992-0.247-2.992-0.085
			c-0.226,0.037-0.491-0.001-0.706,0.206c0.413,0.26,0.815,0.498,1.2,0.761c0.178,0.122,0.357,0.193,0.563,0.156
			c0.703-0.125,1.396-0.02,2.093,0.066c1.081,0.133,2.085,0.474,2.989,1.082c0.157,0.106,0.373,0.171,0.422,0.399l-0.007,0.008
			c-0.063-0.022-0.13-0.036-0.188-0.067c-1.26-0.692-2.609-0.97-4.04-0.878c-0.184,0.012-0.361,0.031-0.548,0.142
			c0.352,0.291,0.711,0.531,0.995,0.84c0.258,0.282,0.565,0.335,0.897,0.358c1.221,0.084,2.379,0.386,3.444,0.997
			c0.304,0.174,0.618,0.354,0.79,0.686l-0.007,0.007c-0.443-0.208-0.849-0.487-1.31-0.664c-0.903-0.347-1.829-0.52-2.853-0.474
			c0.399,0.433,0.756,0.827,1.121,1.213c0.086,0.091,0.211,0.113,0.339,0.124c1.022,0.091,1.958,0.425,2.793,1.024
			c0.122,0.087,0.275,0.171,0.294,0.366c-0.139-0.001-0.214-0.073-0.299-0.124c-0.672-0.401-1.404-0.623-2.175-0.722
			c-0.115-0.015-0.282-0.066-0.346,0.04c-0.069,0.114,0.085,0.21,0.146,0.308c0.106,0.17,0.245,0.321,0.342,0.495
			c0.091,0.163,0.223,0.253,0.393,0.277c0.427,0.059,0.828,0.207,1.205,0.394c0.44,0.219,0.923,0.409,1.159,0.901l0,0
			c-0.689-0.336-1.351-0.755-2.196-0.733c0.279,0.524,0.535,1.005,0.79,1.487c0.087,0.164,0.222,0.205,0.395,0.176
			c1.491-0.252,2.982-0.503,4.472-0.755c0.964-0.173,1.928-0.347,2.893-0.518c0.186-0.033,0.208-0.135,0.149-0.289
			c-0.105-0.271-0.202-0.544-0.313-0.812c-0.384-0.929-0.761-1.866-1.399-2.658c-0.53-0.658-1.066-0.63-1.592,0.033
			c-0.317,0.4-0.486,0.874-0.696,1.329c-0.105-0.085-0.113-0.214-0.145-0.33c-0.292-1.042-0.548-2.092-0.791-3.146
			c-0.372-1.618-0.693-3.247-0.948-4.886c-0.063-0.403-0.212-0.658-0.575-0.852c-1.902-1.015-3.883-1.814-5.993-2.281
			c-1.451-0.321-2.917-0.517-4.403-0.558c-1.712-0.047-3.416,0.039-5.104,0.34c-0.922,0.164-1.836,0.365-2.732,0.644
			c-0.177,0.055-0.298,0.133-0.213,0.33c0.383,0.893,0.212,1.791,0.071,2.7c-0.066,0.429-0.154,0.87-0.073,1.343
			c0.198-0.192,0.385-0.35,0.545-0.531c0.731-0.829,1.454-1.665,2.181-2.498c0.105-0.121,0.229-0.209,0.392-0.242
			c0.942-0.187,1.896-0.283,2.851-0.331c1.387-0.07,2.77,0.065,4.135,0.28c2.247,0.354,4.413,1.009,6.5,1.925
			c0.31,0.136,0.403,0.333,0.453,0.621c0.287,1.647,0.626,3.283,1.044,4.902c0.14,0.542,0.289,1.081,0.441,1.647
			c-0.148-0.045-0.162-0.146-0.197-0.222c-0.859-1.857-1.683-3.728-2.174-5.726c-0.04-0.161-0.083-0.315-0.275-0.387
			c-0.963-0.362-1.947-0.653-2.946-0.891c-1.442-0.344-2.9-0.588-4.384-0.693c-1.22-0.086-2.434-0.06-3.649,0.03
			c-0.129,0.01-0.297,0.006-0.389,0.154c-0.285,0.461-0.57,0.921-0.856,1.381c0.019,0.023,0.039,0.045,0.058,0.068
			c0.364-0.182,0.728-0.363,1.093-0.545c0.13-0.064,0.255-0.132,0.41-0.132c1.063,0,2.127-0.03,3.186,0.078
			c0.323,0.033,0.648,0.026,0.967,0.07c1.124,0.158,2.249,0.315,3.353,0.591c0.602,0.15,1.2,0.313,1.832,0.568
			c-0.206,0.055-0.341,0.028-0.481,0.001c-1.293-0.248-2.599-0.403-3.915-0.433c-0.949-0.022-1.901-0.032-2.842,0.135
			c-0.48,0.085-0.952,0.202-1.465,0.418c0.899,0.381,1.671,0.835,2.681,0.668c1.384-0.228,2.785-0.125,4.151,0.232
			c0.92,0.24,1.825,0.529,2.609,1.099L46.317,16.632z M44.937,36.665c0.092,0,0.147,0.007,0.2-0.001
			c4.623-0.719,9.247-1.437,13.869-2.16c1.036-0.162,1.95-0.572,2.663-1.369c1.393-1.556,1.01-3.856-0.813-4.879
			c-0.747-0.419-1.554-0.577-2.396-0.5c-0.655,0.06-1.304,0.18-1.956,0.273c0.308,0.106,0.593,0.203,0.879,0.297
			c0.813,0.266,1.382,0.782,1.599,1.621c0.106,0.41,0.163,0.835,0.204,1.258c0.046,0.474-0.154,0.698-0.636,0.774
			c-3.86,0.603-7.719,1.212-11.581,1.795c-0.452,0.068-0.731,0.216-0.921,0.652C45.718,35.181,45.318,35.905,44.937,36.665z
			 M2.161,43.321c0.106,0,0.172,0.009,0.235-0.001c1.914-0.298,3.827-0.6,5.741-0.898c2.389-0.372,4.78-0.739,7.168-1.115
			c0.806-0.127,1.62-0.215,2.368-0.587c1.581-0.785,2.386-2.361,1.935-3.897c-0.421-1.433-1.49-2.118-2.891-2.372
			c-0.857-0.155-1.695,0.044-2.535,0.175c-0.137,0.021-0.297-0.007-0.465,0.12c0.211,0.048,0.372,0.079,0.53,0.121
			c0.94,0.251,1.697,0.722,1.955,1.73c0.105,0.41,0.163,0.835,0.201,1.258c0.044,0.492-0.135,0.702-0.623,0.78
			c-1.481,0.236-2.964,0.466-4.446,0.697c-2.356,0.368-4.71,0.754-7.071,1.088c-0.51,0.072-0.812,0.242-1.02,0.722
			C2.926,41.877,2.534,42.58,2.161,43.321z M19.677,29.491c-0.515,0.076-0.979,0.142-1.443,0.215
			c-3.539,0.552-7.079,1.101-10.616,1.66c-0.917,0.145-1.852,0.208-2.742,0.48c-1.413,0.432-2.447,1.296-2.733,2.803
			c-0.316,1.672,0.79,3.192,2.537,3.65c1.16,0.304,2.278,0.006,3.41-0.18c-0.126-0.051-0.255-0.079-0.382-0.112
			C6.792,37.77,6.001,37.366,5.666,36.4c-0.166-0.478-0.219-0.984-0.255-1.485c-0.03-0.426,0.165-0.658,0.581-0.725
			c1.293-0.208,2.588-0.406,3.881-0.607c2.732-0.426,5.463-0.852,8.195-1.274c0.119-0.018,0.205-0.049,0.264-0.165
			C18.769,31.275,19.211,30.409,19.677,29.491z M62.453,22.832c-0.653,0.098-1.261,0.186-1.868,0.281
			c-3.838,0.598-7.675,1.198-11.513,1.794c-0.808,0.126-1.614,0.246-2.344,0.658c-1.302,0.736-1.994,1.994-1.829,3.355
			c0.157,1.294,1.122,2.323,2.554,2.714c1.012,0.277,1.945,0.117,3.466-0.183c-0.227-0.056-0.445-0.102-0.658-0.165
			c-0.845-0.249-1.536-0.685-1.827-1.572c-0.154-0.47-0.213-0.963-0.245-1.453c-0.029-0.44,0.17-0.663,0.611-0.732
			c1.736-0.273,3.472-0.542,5.208-0.813c2.267-0.354,4.534-0.708,6.802-1.061c0.111-0.017,0.22-0.015,0.282-0.138
			C61.538,24.632,61.987,23.748,62.453,22.832z M20.049,29.444c-0.02,0.113,0.06,0.156,0.104,0.213
			c2.136,2.752,4.273,5.504,6.413,8.253c0.262,0.337,0.558,0.642,0.917,0.882c0.585,0.392,1.217,0.497,1.891,0.298
			c0.842-0.248,1.296-0.884,1.591-1.654c0.416-1.086,0.813-2.179,1.217-3.27c0.033-0.089,0.093-0.169,0.008-0.277
			c-0.574-0.724-1.141-1.453-1.735-2.214c-0.065,0.166-0.114,0.29-0.161,0.414c-0.437,1.15-0.871,2.301-1.313,3.449
			c-0.163,0.422-0.524,0.496-0.84,0.18c-0.111-0.111-0.211-0.232-0.308-0.355c-1.623-2.044-3.245-4.09-4.87-6.132
			c-0.076-0.096-0.119-0.232-0.308-0.2C21.786,29.179,20.915,29.309,20.049,29.444z M42.919,25.887
			c-0.856,0.131-1.661,0.262-2.468,0.371c-0.254,0.034-0.374,0.141-0.464,0.385c-0.907,2.442-1.828,4.879-2.749,7.316
			c-0.233,0.616-0.614,0.864-1.262,0.821c-0.858-0.057-1.715-0.057-2.579,0.038c0.213,0.455,1.74,2.336,2.131,2.634
			c0.977,0.744,2.273,0.596,3.067-0.354c0.253-0.303,0.445-0.643,0.582-1.014c0.739-2.004,1.481-4.006,2.218-6.011
			C41.899,28.699,42.396,27.322,42.919,25.887z M52.363,31.166c0.226-0.014,0.541-0.011,0.85-0.057
			c1.649-0.245,3.298-0.496,4.943-0.767c0.177-0.029,0.461,0.121,0.526-0.131c0.049-0.19-0.089-0.406-0.19-0.595
			c-0.168-0.315-0.415-0.553-0.716-0.739c-0.347-0.215-0.727-0.35-1.127-0.414c-1.174-0.187-2.341-0.1-3.509,0.089
			c-1.447,0.234-2.89,0.491-4.348,0.654c-0.191,0.021-0.117,0.123-0.098,0.205c0.164,0.702,0.628,1.136,1.269,1.416
			C50.706,31.148,51.494,31.128,52.363,31.166z M9.493,37.822c1.206-0.004,2.355-0.284,3.518-0.443
			c0.909-0.125,1.812-0.293,2.724-0.395c0.22-0.025,0.207-0.078,0.17-0.222c-0.197-0.781-0.727-1.251-1.462-1.486
			c-1.226-0.391-2.477-0.301-3.725-0.116c-1.56,0.232-3.119,0.478-4.68,0.702c-0.205,0.029-0.137,0.124-0.113,0.222
			c0.153,0.633,0.555,1.052,1.128,1.337C7.834,37.809,8.68,37.778,9.493,37.822z M31.638,28.506
			c-0.331,0.894-0.636,1.734-0.956,2.568c-0.065,0.17-0.043,0.285,0.067,0.424c0.735,0.931,1.465,1.866,2.191,2.804
			c0.105,0.136,0.203,0.194,0.39,0.174c0.859-0.089,1.721-0.099,2.583-0.036c0.092,0.007,0.192,0.046,0.3-0.03
			C34.693,32.449,33.182,30.498,31.638,28.506z M33.404,20.904c1.083,0.39,2.114,0.87,3.098,1.448
			c1.393,0.818,2.637,1.809,3.525,3.183c0.134,0.207,0.265,0.277,0.484,0.241c0.538-0.087,1.075-0.187,1.615-0.257
			c0.307-0.039,0.233-0.14,0.098-0.308c-0.593-0.739-1.29-1.362-2.078-1.883c-1.326-0.876-2.77-1.491-4.297-1.923
			C35.045,21.178,34.229,21.02,33.404,20.904z M34.805,27.148c-0.877,0.135-1.711,0.264-2.545,0.393
			c-0.397,0.062-0.569,0.49-0.323,0.807c0.357,0.458,0.714,0.916,1.073,1.373c0.181,0.231,0.366,0.459,0.57,0.716
			C33.991,29.335,34.383,28.28,34.805,27.148z M34.649,19.741c1.069,0.358,0.834,0.455,1.403-0.391
			c0.713-1.06,0.845-2.193,0.222-3.358c-0.045-0.084-0.07-0.203-0.215-0.227C36.575,17.449,35.896,18.694,34.649,19.741z
			 M50.602,37.03c-0.935,0.869-2.008,1.153-3.237,0.872c-0.598-0.137-0.633-0.1-0.62,0.532c0.002,0.111,0.037,0.163,0.146,0.18
			c1.165,0.192,2.258,0.082,3.167-0.769C50.298,37.621,50.511,37.369,50.602,37.03z M38.478,16.567
			c0.075,1.563-0.458,2.862-1.689,3.892c0.172,0.074,0.309,0.119,0.431,0.19c0.229,0.132,0.376,0.06,0.535-0.134
			c0.401-0.489,0.739-1.01,0.916-1.622C38.901,18.095,38.846,17.319,38.478,16.567z M40.828,17.811
			c-0.092,1.103-0.602,1.902-1.283,2.608c-0.24,0.249-0.51,0.467-0.765,0.701c-0.045,0.042-0.129,0.061-0.114,0.144
			c0.023,0.13,0.612,0.322,0.716,0.232c0.643-0.557,1.178-1.193,1.436-2.021C40.981,18.956,41.014,18.431,40.828,17.811z
			 M46.276,41.278c-0.04,0.125-0.061,0.222-0.101,0.311c-0.128,0.28-0.057,0.461,0.213,0.632c0.495,0.313,0.997,0.597,1.572,0.732
			c0.666,0.157,1.314,0.135,1.934-0.2C48.461,42.838,47.35,42.132,46.276,41.278z M50.403,40.398
			c-1.382,0.277-2.642,0.024-3.78-0.867c-0.032,0.169-0.042,0.292-0.081,0.405c-0.091,0.265,0.011,0.404,0.254,0.52
			c0.344,0.165,0.688,0.325,1.06,0.414C48.77,41.09,49.622,40.954,50.403,40.398z M42.904,19.456
			c-0.48,1.321-1.534,2.066-2.763,2.723c0.295,0.072,0.418,0.418,0.681,0.256C41.942,21.746,42.77,20.838,42.904,19.456z
			 M45.775,42.842c-0.017,0.292-0.36,0.482-0.087,0.767c0.534,0.558,1.147,0.996,1.888,1.238c0.483,0.158,0.903,0.191,1.26,0.089
			C47.492,44.708,46.596,43.877,45.775,42.842z M44.189,20.757c-0.345,1.365-1.366,2.003-2.595,2.416
			c0.23,0.313,0.273,0.342,0.437,0.306C43.209,23.214,44.169,22.02,44.189,20.757z M45.56,22.852
			c-0.821,0.835-1.902,1.082-3.006,1.35c0.147,0.157,0.173,0.428,0.469,0.35c0.706-0.186,1.385-0.436,1.954-0.914
			C45.229,23.425,45.464,23.192,45.56,22.852z M47.298,46.639c0.014-0.041,0.029-0.083,0.043-0.124
			c-1.116-0.33-1.716-1.168-2.165-2.247c-0.081,0.282-0.298,0.421-0.168,0.667c0.349,0.66,0.815,1.203,1.526,1.485
			C46.779,46.517,47.043,46.567,47.298,46.639z M46.324,47.951c-0.559-0.216-0.95-0.537-1.241-0.98
			c-0.282-0.428-0.424-0.914-0.553-1.473c-0.114,0.217-0.279,0.322-0.259,0.523C44.359,46.922,45.323,47.856,46.324,47.951z
			 M43.734,46.666c-0.157,0.178-0.294,0.266-0.315,0.435c-0.072,0.584,0.557,1.553,1.249,1.803
			C43.996,48.275,43.743,47.557,43.734,46.666z M19.14,28.673c0.159-0.034,0.323-0.004,0.393-0.165
			c0.135-0.31-0.224-1.102-0.606-1.258C19.222,27.708,19.16,28.186,19.14,28.673z M20.182,27.141
			c0.126,0.41,0.175,0.818,0.052,1.233c-0.022,0.073-0.111,0.165,0.04,0.212c0.139,0.043,0.2-0.027,0.25-0.145
			C20.677,28.074,20.526,27.431,20.182,27.141z M42.997,49.286c-0.145-0.554-0.321-1.031-0.161-1.586
			C42.394,48.031,42.471,48.722,42.997,49.286z M25.754,40.192c-0.039-0.007-0.069-0.016-0.098-0.016
			c-0.019,0-0.037,0.014-0.056,0.021c0.033,0.011,0.066,0.025,0.101,0.03C25.714,40.229,25.73,40.209,25.754,40.192z M17.488,27.757
			l0.024,0.014l0.003-0.021L17.488,27.757z"/>
		<path fill="#76A336" d="M47.81,52.623c-0.724,0.716-1.59,1.231-2.456,1.747c-2.835,1.69-5.91,2.697-9.156,3.227
			c-1.931,0.315-3.875,0.413-5.823,0.313c-3.215-0.165-6.305-0.879-9.235-2.244c-3.016-1.406-5.723-3.252-8.004-5.683
			c-1.865-1.988-3.493-4.144-4.379-6.773c-0.077-0.227-0.104-0.334,0.204-0.383c1.976-0.312,3.949-0.649,5.922-0.977
			c0.718-0.119,0.703-0.111,0.991,0.554c1.387,3.205,3.338,5.998,6.049,8.229c0.091,0.075,0.173,0.181,0.313,0.171
			c0,0,0.001-0.006,0.001-0.006c-0.008,0.054,0.021,0.072,0.069,0.069l-0.002-0.003c0.023,0.034,0.047,0.068,0.07,0.102
			c0.933,0.775,1.96,1.409,3.027,1.976c2.889,1.535,5.964,2.461,9.23,2.679c1.528,0.102,3.066,0.061,4.589-0.135
			c2.147-0.276,4.236-0.789,6.219-1.678c0.557-0.25,1.133-0.475,1.62-0.859c0,0-0.002,0.001-0.002,0.001
			c0.058,0.001,0.108-0.013,0.134-0.071c0,0-0.001,0.001-0.001,0.001c0.029-0.02,0.057-0.039,0.086-0.059
			c0.015-0.002,0.029-0.007,0.043-0.014c0.028-0.019,0.057-0.038,0.085-0.058c0.12-0.056,0.239-0.112,0.359-0.167
			C47.778,52.596,47.794,52.61,47.81,52.623z"/>
		<path fill="#0F5529" d="M52.872,24.001c-1.491,0.251-2.982,0.503-4.472,0.755c-0.173,0.029-0.308-0.012-0.395-0.176
			c-0.255-0.482-0.512-0.963-0.79-1.487c0.845-0.022,1.507,0.398,2.196,0.733c0.023,0.022,0.045,0.044,0.068,0.066
			c0.008,0.005,0.017,0.01,0.025,0.015c-0.009-0.004-0.018-0.009-0.028-0.013c-0.022-0.023-0.044-0.045-0.066-0.068
			c-0.236-0.492-0.719-0.682-1.159-0.901c-0.376-0.187-0.778-0.335-1.205-0.394c-0.17-0.023-0.302-0.113-0.393-0.277
			c-0.097-0.174-0.236-0.325-0.342-0.495c-0.061-0.098-0.215-0.194-0.146-0.308c0.064-0.106,0.231-0.055,0.346-0.04
			c0.771,0.099,1.504,0.321,2.175,0.722c0.085,0.051,0.159,0.122,0.299,0.124c-0.02-0.195-0.172-0.279-0.294-0.366
			c-0.835-0.599-1.771-0.933-2.793-1.024c-0.127-0.011-0.253-0.034-0.339-0.124c-0.365-0.386-0.723-0.78-1.121-1.213
			c1.024-0.046,1.951,0.127,2.853,0.474c0.461,0.177,0.867,0.456,1.31,0.664c0.023,0.022,0.046,0.043,0.069,0.065
			c0.01,0.009,0.021,0.018,0.031,0.027c-0.01-0.01-0.019-0.019-0.029-0.029c-0.021-0.023-0.043-0.046-0.064-0.069
			c-0.173-0.333-0.487-0.512-0.791-0.686c-1.065-0.611-2.223-0.913-3.444-0.997c-0.332-0.023-0.639-0.076-0.897-0.358
			c-0.283-0.309-0.643-0.549-0.995-0.84c0.187-0.112,0.364-0.131,0.548-0.142c1.431-0.092,2.78,0.185,4.04,0.878
			c0.058,0.032,0.125,0.045,0.188,0.067c0.03,0.053,0.08,0.065,0.136,0.065c0.004,0.008,0.006,0.017,0.011,0.024
			c0.004,0.004,0.012,0.003,0.019,0.004c-0.009-0.01-0.019-0.02-0.028-0.03c-0.026-0.056-0.076-0.069-0.131-0.071
			c-0.049-0.228-0.265-0.293-0.422-0.399c-0.905-0.609-1.908-0.95-2.989-1.082c-0.697-0.085-1.39-0.19-2.093-0.066
			c-0.207,0.037-0.386-0.034-0.563-0.156c-0.385-0.263-0.787-0.502-1.2-0.761c0.215-0.207,0.48-0.169,0.706-0.206
			c1-0.162,1.999-0.082,2.992,0.085c0.792,0.134,1.569,0.332,2.328,0.596c0.098,0.034,0.194,0.05,0.296,0.044
			c0.003,0.008,0.005,0.017,0.011,0.024c0.003,0.004,0.012,0.003,0.019,0.005c-0.009-0.01-0.019-0.02-0.028-0.03
			c-0.784-0.569-1.689-0.858-2.609-1.099c-1.366-0.357-2.767-0.46-4.151-0.232c-1.01,0.167-1.782-0.288-2.681-0.668
			c0.513-0.216,0.985-0.333,1.465-0.418c0.941-0.167,1.892-0.157,2.842-0.135c1.317,0.03,2.622,0.185,3.915,0.433
			c0.14,0.027,0.275,0.054,0.481-0.001c-0.632-0.255-1.23-0.418-1.832-0.568c-1.104-0.276-2.229-0.433-3.353-0.591
			c-0.32-0.045-0.644-0.037-0.967-0.07c-1.058-0.109-2.123-0.078-3.186-0.078c-0.155,0-0.28,0.067-0.41,0.132
			c-0.364,0.181-0.729,0.363-1.093,0.545c-0.019-0.023-0.039-0.045-0.058-0.068c0.285-0.46,0.571-0.921,0.856-1.381
			c0.091-0.148,0.259-0.144,0.389-0.154c1.215-0.09,2.429-0.117,3.649-0.03c1.484,0.105,2.941,0.35,4.384,0.693
			c0.999,0.238,1.983,0.529,2.946,0.891c0.192,0.072,0.236,0.225,0.275,0.387c0.49,1.998,1.315,3.868,2.174,5.726
			c0.035,0.076,0.049,0.177,0.197,0.222c-0.152-0.566-0.301-1.106-0.441-1.647c-0.418-1.619-0.757-3.255-1.044-4.902
			c-0.05-0.288-0.142-0.485-0.453-0.621c-2.087-0.916-4.253-1.571-6.5-1.925c-1.366-0.215-2.748-0.349-4.135-0.28
			c-0.956,0.048-1.91,0.143-2.851,0.331c-0.163,0.032-0.286,0.121-0.392,0.242c-0.726,0.833-1.45,1.669-2.181,2.498
			c-0.16,0.181-0.346,0.339-0.545,0.531c-0.082-0.473,0.006-0.914,0.073-1.343c0.141-0.909,0.312-1.807-0.071-2.7
			c-0.085-0.197,0.037-0.275,0.213-0.33c0.896-0.28,1.81-0.48,2.732-0.644c1.688-0.301,3.392-0.387,5.104-0.34
			c1.486,0.041,2.952,0.236,4.403,0.558c2.11,0.467,4.091,1.266,5.993,2.281c0.363,0.194,0.512,0.449,0.575,0.852
			c0.256,1.64,0.576,3.268,0.948,4.886c0.242,1.054,0.499,2.105,0.791,3.146c0.032,0.116,0.041,0.245,0.145,0.33
			c-0.01,0.229,0.082,0.437,0.154,0.645C52.33,22.49,52.603,23.245,52.872,24.001z M49.142,22.347
			c-0.004-0.008-0.007-0.018-0.012-0.024c-0.004-0.004-0.013-0.003-0.019-0.004c0.01,0.01,0.02,0.019,0.031,0.029
			c0.003,0.008,0.005,0.017,0.01,0.024c0.003,0.004,0.012,0.004,0.018,0.005C49.16,22.367,49.151,22.357,49.142,22.347z
			 M45.742,14.61c0.019-0.009,0.037-0.018,0.055-0.027c-0.017-0.01-0.033-0.028-0.051-0.029c-0.018-0.001-0.036,0.015-0.054,0.023
			C45.708,14.588,45.725,14.599,45.742,14.61z M49.596,20.328c-0.005-0.007-0.008-0.018-0.015-0.021
			c-0.004-0.002-0.014,0.007-0.021,0.011c0.008,0.011,0.017,0.022,0.025,0.033C49.59,20.343,49.593,20.335,49.596,20.328z"/>
		<path fill="#76A236" d="M17.125,24.571c-0.442-0.361-0.871-0.738-1.329-1.077c-0.276-0.204-0.438-0.452-0.538-0.774
			c-0.21-0.671-0.427-1.343-0.682-1.998c-0.13-0.334-0.109-0.59,0.145-0.838c0.189-0.185,0.268-0.466,0.519-0.598
			c0.348,0.638,0.761,1.231,1.209,1.818c0.082-1.525,0.145-3.034-0.062-4.54c-0.129-0.794-0.391-1.556-0.568-2.339
			c-0.057-0.25-0.103-0.508-0.201-0.743c-0.133-0.319-0.065-0.553,0.207-0.748c0.081-0.058,0.151-0.13,0.227-0.195
			c0.071,0.176,0.13,0.357,0.215,0.526c0.196,0.394,0.253,0.864,0.64,1.154c0.258,0.194,0.51,0.396,0.765,0.594
			c0.138,0,0.114-0.111,0.13-0.193c0.457-2.268,1.545-4.194,3.096-5.897c0.843-0.926,1.874-1.439,3.048-1.775
			c2.029-0.581,4.083-0.975,6.193-1.099c3.893-0.23,7.646,0.375,11.27,1.806c0.103,0.041,0.198,0.1,0.297,0.15
			c-0.036,0.007-0.072,0.013-0.109,0.02c-0.098-0.017-0.198-0.028-0.295-0.052c-1.465-0.366-2.954-0.57-4.46-0.615
			c-1.014-0.03-2.031-0.041-3.047,0.044c-0.966,0.08-1.929,0.17-2.884,0.336c-0.559,0.097-1.118,0.194-1.678,0.291
			c-0.889-0.303-1.805-0.392-2.74-0.429c-0.839-0.033-1.504,0.211-2.015,0.882c-0.163,0.214-0.379,0.389-0.487,0.709
			c0.53-0.213,0.994-0.445,1.411-0.481c-0.379,0.42-0.785,0.896-1.219,1.344c-0.463,0.477-0.438,1.169-0.772,1.716
			c-0.291-0.249-0.454-0.558-0.619-0.919c-0.198,0.516-0.234,1.006-0.225,1.498c0.008,0.441-0.033,0.867-0.196,1.281
			c-0.591,1.499-0.786,3.163-1.867,4.456c-0.089,0.107-0.061,0.19,0.02,0.293c0.466,0.602,0.924,1.21,1.384,1.816
			c0.539,0.186,1.107,0.195,1.664,0.259c0.264,0.03,0.456,0.112,0.618,0.329c0.259,0.347,0.548,0.671,0.891,0.944
			c0.106,0.084,0.291,0.084,0.313,0.266c-1.129,0.254-2.212-0.022-3.293-0.294c-0.243-0.061-0.445-0.032-0.669,0.072
			c-0.972,0.452-1.951,0.893-2.932,1.325c-0.215,0.095-0.255,0.185-0.128,0.393c0.267,0.438,0.509,0.892,0.761,1.339
			C18.462,24.642,17.795,24.532,17.125,24.571z"/>
		<path fill="#76A236" d="M50.757,46.035c0.63-0.589,1.086-1.306,1.49-2.057c0.973-1.807,1.485-3.76,1.8-5.773
			c0.111-0.707,0.204-1.418,0.218-2.135c0.003-0.171,0.052-0.258,0.241-0.288c1.038-0.164,2.075-0.339,3.11-0.519
			c0.272-0.047,0.263,0.114,0.254,0.294c-0.097,1.876-0.416,3.712-1.024,5.492c-1.783,5.214-5.278,8.771-10.405,10.754
			c-1.961,0.759-3.974,1.325-6.068,1.529c-3.665,0.356-7.147-0.183-10.288-2.249c-0.026-0.017-0.049-0.039-0.052-0.114
			c0.518,0.189,1.035,0.378,1.553,0.567c0.055,0.072,0.132,0.072,0.212,0.067c0.015,0.005,0.031,0.008,0.047,0.008
			c0.099,0.103,0.236,0.125,0.362,0.164c1.155,0.352,2.326,0.609,3.534,0.715c1.924,0.169,3.81,0,5.668-0.514
			c1.627-0.45,3.159-1.121,4.596-2.001C47.775,48.89,49.407,47.631,50.757,46.035z"/>
		<path fill="#1A6029" d="M20.099,42.649c0.175,0.026,0.259,0.174,0.358,0.287c1.757,2.008,3.85,3.571,6.27,4.682
			c1.603,0.735,3.286,1.201,5.05,1.372c1.63,0.159,3.223,0.081,4.767-0.529c1.795-0.71,3.144-1.927,4.146-3.558
			c1.006-1.639,1.526-3.439,1.788-5.327c0.053-0.383-0.037-0.477-0.413-0.394c-0.43,0.094-0.869,0.072-1.3,0.095
			c-0.97,0.051-1.939,0.126-2.91,0.17c-1.404,0.063-2.804,0.194-4.209,0.259c-1.114,0.052-2.228,0.13-3.341,0.201
			c-1.347,0.086-2.694,0.176-4.04,0.263c-0.108,0.007-0.216,0.001-0.326-0.044c1.076-0.164,2.151-0.329,3.227-0.492
			c0.958-0.145,1.916-0.288,2.874-0.431c1.156-0.172,2.313-0.339,3.469-0.514c1.387-0.21,2.773-0.429,4.16-0.638
			c1.134-0.172,2.269-0.334,3.404-0.504c0.661-0.099,1.322-0.195,1.98-0.31c0.226-0.04,0.323-0.016,0.33,0.248
			c0.062,2.127-0.27,4.185-1.069,6.161c-1.347,3.328-3.77,5.421-7.256,6.27c-0.812,0.198-1.641,0.293-2.479,0.354
			c-2.97,0.218-5.716-0.509-8.296-1.931c-1.208-0.666-2.296-1.503-3.324-2.424c-1.038-0.93-1.935-1.981-2.788-3.074
			c-0.04-0.051-0.061-0.116-0.091-0.175L20.099,42.649z"/>
		<path fill="#FCFCFC" d="M44.937,36.665c0.381-0.759,0.781-1.484,1.11-2.239c0.19-0.437,0.469-0.584,0.921-0.652
			c3.863-0.583,7.722-1.192,11.581-1.795c0.482-0.075,0.682-0.299,0.636-0.774c-0.041-0.422-0.098-0.848-0.204-1.258
			c-0.217-0.839-0.786-1.355-1.599-1.621c-0.286-0.094-0.571-0.19-0.879-0.297c0.652-0.093,1.301-0.213,1.956-0.273
			c0.843-0.077,1.65,0.082,2.396,0.5c1.823,1.022,2.206,3.322,0.813,4.879c-0.713,0.797-1.628,1.207-2.663,1.369
			c-4.623,0.723-9.246,1.441-13.869,2.16C45.084,36.672,45.029,36.665,44.937,36.665z"/>
		<path fill="#FCFCFC" d="M2.161,43.321c0.373-0.74,0.765-1.443,1.083-2.178c0.208-0.48,0.51-0.65,1.02-0.722
			c2.361-0.334,4.714-0.72,7.071-1.088c1.482-0.231,2.964-0.461,4.446-0.697c0.488-0.078,0.667-0.288,0.623-0.78
			c-0.038-0.422-0.096-0.848-0.201-1.258c-0.258-1.008-1.015-1.479-1.955-1.73c-0.158-0.042-0.319-0.073-0.53-0.121
			c0.168-0.127,0.328-0.098,0.465-0.12c0.84-0.131,1.678-0.33,2.535-0.175c1.401,0.254,2.47,0.939,2.891,2.372
			c0.451,1.535-0.355,3.111-1.935,3.897c-0.749,0.372-1.563,0.46-2.368,0.587c-2.389,0.376-4.779,0.742-7.168,1.115
			c-1.914,0.298-3.827,0.6-5.741,0.898C2.332,43.329,2.266,43.321,2.161,43.321z"/>
		<path fill="#FCFCFC" d="M19.677,29.491c-0.466,0.918-0.908,1.785-1.344,2.653c-0.058,0.116-0.145,0.146-0.264,0.165
			c-2.732,0.422-5.464,0.849-8.195,1.274c-1.294,0.202-2.588,0.4-3.881,0.607c-0.415,0.067-0.611,0.299-0.581,0.725
			C5.446,35.417,5.5,35.922,5.666,36.4c0.335,0.966,1.126,1.369,2.041,1.606c0.127,0.033,0.256,0.061,0.382,0.112
			c-1.132,0.186-2.249,0.484-3.41,0.18c-1.746-0.458-2.853-1.978-2.537-3.65c0.285-1.507,1.32-2.372,2.733-2.803
			c0.89-0.272,1.826-0.335,2.742-0.48c3.538-0.559,7.077-1.108,10.616-1.66C18.698,29.633,19.162,29.567,19.677,29.491z"/>
		<path fill="#FCFCFC" d="M62.453,22.832c-0.466,0.917-0.915,1.8-1.362,2.685c-0.062,0.123-0.172,0.121-0.282,0.138
			c-2.267,0.352-4.534,0.707-6.802,1.061c-1.736,0.271-3.472,0.54-5.208,0.813c-0.44,0.069-0.64,0.292-0.611,0.732
			c0.032,0.491,0.091,0.983,0.245,1.453c0.291,0.887,0.983,1.323,1.827,1.572c0.213,0.063,0.432,0.109,0.658,0.165
			c-1.521,0.299-2.454,0.46-3.466,0.183c-1.431-0.392-2.397-1.421-2.554-2.714c-0.165-1.361,0.527-2.619,1.829-3.355
			c0.73-0.412,1.536-0.533,2.344-0.658c3.838-0.597,7.675-1.197,11.513-1.794C61.192,23.018,61.8,22.93,62.453,22.832z"/>
		<path fill="#76A336" d="M13.65,27.805c-0.122,0.666-0.099,1.339-0.07,2.01c0.009,0.209-0.02,0.307-0.268,0.346
			c-2.429,0.384-4.855,0.788-7.282,1.184c-0.194,0.032-0.41,0.109-0.402-0.239c0.071-3.019,1.247-5.473,3.925-6.958
			c2.154-1.195,4.326-0.799,6.36,0.488c-0.468-0.164-0.763,0.088-1.056,0.407C14.135,25.827,13.804,26.776,13.65,27.805z"/>
		<path fill="#FCFCFC" d="M20.049,29.444c0.866-0.136,1.737-0.266,2.606-0.413c0.189-0.032,0.232,0.104,0.308,0.2
			c1.625,2.043,3.247,4.088,4.87,6.132c0.097,0.123,0.198,0.244,0.308,0.355c0.316,0.316,0.678,0.242,0.84-0.18
			c0.442-1.148,0.876-2.299,1.313-3.449c0.047-0.124,0.096-0.248,0.161-0.414c0.595,0.76,1.162,1.49,1.735,2.214
			c0.085,0.107,0.025,0.188-0.008,0.277c-0.404,1.091-0.801,2.184-1.217,3.27c-0.295,0.77-0.749,1.406-1.591,1.654
			c-0.674,0.199-1.306,0.094-1.891-0.298c-0.358-0.24-0.654-0.546-0.917-0.882c-2.14-2.749-4.277-5.501-6.413-8.253
			C20.109,29.6,20.029,29.557,20.049,29.444z"/>
		<path fill="#FCFCFC" d="M42.919,25.887c-0.523,1.436-1.02,2.812-1.525,4.187c-0.736,2.005-1.479,4.007-2.218,6.011
			c-0.137,0.371-0.329,0.711-0.582,1.014c-0.793,0.95-2.09,1.098-3.067,0.354c-0.391-0.298-1.918-2.179-2.131-2.634
			c0.864-0.095,1.72-0.095,2.579-0.038c0.649,0.043,1.03-0.205,1.262-0.821c0.92-2.437,1.842-4.874,2.749-7.316
			c0.091-0.244,0.211-0.351,0.464-0.385C41.258,26.149,42.062,26.017,42.919,25.887z"/>
		<path fill="#1A6029" d="M25.394,21.794c-0.023-0.182-0.207-0.182-0.313-0.266c-0.343-0.273-0.632-0.597-0.891-0.944
			c-0.162-0.217-0.353-0.299-0.618-0.329c-0.557-0.064-1.125-0.072-1.664-0.259c0.224-0.489,0.276-1.029,0.448-1.533
			c0.035-0.103-0.021-0.122-0.129-0.116c-0.283,0.014-0.521-0.28-0.432-0.538c0.095-0.274,0.209-0.543,0.336-0.803
			c0.114-0.234,0.372-0.234,0.528-0.011c0.094,0.135,0.178,0.276,0.289,0.448c0.067-0.149,0.116-0.26,0.165-0.371
			c0.276-0.619,0.418-1.299,0.84-1.852c0.033-0.004,0.073,0.004,0.099-0.012c1.18-0.752,2.503-1.292,3.475-2.355
			c0.329-0.36,0.671-0.696,0.616-1.237c-0.035-0.343-0.066-0.687-0.122-1.027c-0.112-0.678-0.188-1.363-0.396-2.022
			c0.044-0.149,0.19-0.137,0.296-0.184c0.434-0.191,0.91-0.283,1.312-0.552c0.559-0.097,1.118-0.194,1.678-0.291
			c0.955-0.166,1.918-0.256,2.884-0.336c1.017-0.084,2.033-0.074,3.047-0.044c1.506,0.045,2.996,0.249,4.46,0.615
			c0.097,0.024,0.197,0.035,0.295,0.052c0.05,0.041,0.1,0.081,0.151,0.122c-0.704,0.023-1.401-0.091-2.099-0.146
			c-0.783-0.061-1.564-0.052-2.345-0.045c-2.377,0.024-4.703,0.395-6.979,1.078c-0.417,0.125-0.826,0.273-1.242,0.402
			c-0.268,0.083-0.319,0.233-0.237,0.499c0.222,0.713,0.412,1.435,0.556,2.169c0.041,0.207,0.008,0.367-0.108,0.533
			c-0.849,1.218-1.78,2.375-2.685,3.551c-0.592,0.769-1.195,1.53-1.799,2.29c-0.147,0.185-0.166,0.361-0.093,0.588
			c0.271,0.839,0.525,1.683,0.773,2.529C25.53,21.529,25.678,21.726,25.394,21.794z"/>
		<path fill="#1A6029" d="M47.059,52.949c-0.488,0.385-1.063,0.609-1.62,0.859c-1.982,0.889-4.072,1.402-6.219,1.678
			c-1.523,0.196-3.06,0.237-4.589,0.135c-3.266-0.218-6.341-1.145-9.23-2.679c-1.067-0.567-2.094-1.201-3.027-1.976
			c-0.023-0.034-0.047-0.068-0.07-0.102c0,0,0.002,0.003,0.002,0.003c-0.023-0.023-0.046-0.046-0.069-0.069
			c0,0-0.001,0.006-0.001,0.006c-0.156-0.347-0.421-0.622-0.626-0.938c-0.387-0.596-0.704-1.217-0.826-1.925
			c-0.056-0.324,0.026-0.621,0.177-0.902c0.078-0.145,0.157-0.194,0.301-0.036c0.648,0.71,1.304,1.41,2.022,2.055
			c1.267,1.14,2.621,2.159,4.091,3.017c1.796,1.048,3.697,1.846,5.732,2.307c1.001,0.227,2.013,0.365,3.036,0.459
			c1.007,0.092,2.014,0.076,3.018,0.047c1.699-0.05,3.369-0.33,4.998-0.828c0.899-0.275,1.78-0.595,2.614-1.035
			C46.861,52.979,46.952,52.933,47.059,52.949z"/>
		<path fill="#1A6029" d="M13.65,27.805c0.154-1.03,0.485-1.978,1.208-2.763c0.293-0.318,0.588-0.57,1.056-0.407
			c0.419,0.257,0.813,0.063,1.211-0.064c0.671-0.039,1.337,0.071,2.007,0.058c0.339,0.064,0.678,0.13,1.018,0.19
			c0.205,0.037,0.361,0.027,0.499-0.202c0.353-0.587,1.053-0.81,1.664-0.579c0.6,0.226,0.961,0.87,0.866,1.545
			c-0.087,0.616-0.809,1.123-1.422,0.978c-0.27-0.064-0.553-0.135-0.765-0.328c-0.233-0.213-0.496-0.253-0.799-0.263
			c-1.158-0.037-2.249,0.179-3.228,0.818c-0.545,0.356-0.962,0.849-1.222,1.441c-0.205,0.466-0.569,0.626-1.01,0.626
			c-0.451,0-0.723-0.303-0.901-0.696C13.777,28.04,13.711,27.924,13.65,27.805z"/>
		<path fill="#FCFCFC" d="M52.363,31.166c-0.87-0.038-1.657-0.018-2.398-0.341c-0.642-0.28-1.105-0.713-1.269-1.416
			c-0.019-0.082-0.094-0.183,0.098-0.205c1.457-0.163,2.901-0.42,4.348-0.654c1.167-0.189,2.334-0.276,3.509-0.089
			c0.401,0.064,0.78,0.199,1.127,0.414c0.3,0.186,0.547,0.425,0.716,0.739c0.101,0.189,0.239,0.405,0.19,0.595
			c-0.065,0.252-0.348,0.102-0.526,0.131c-1.645,0.271-3.294,0.522-4.943,0.767C52.905,31.154,52.589,31.152,52.363,31.166z"/>
		<path fill="#FCFCFC" d="M9.493,37.822c-0.813-0.044-1.659-0.013-2.441-0.402c-0.573-0.285-0.975-0.704-1.128-1.337
			c-0.024-0.098-0.092-0.193,0.113-0.222c1.561-0.224,3.12-0.47,4.68-0.702c1.248-0.186,2.499-0.275,3.725,0.116
			c0.735,0.234,1.265,0.705,1.462,1.486c0.036,0.145,0.05,0.198-0.17,0.222c-0.911,0.102-1.815,0.271-2.724,0.395
			C11.848,37.538,10.699,37.817,9.493,37.822z"/>
		<path fill="#1A6029" d="M50.757,46.035c-1.35,1.596-2.982,2.855-4.754,3.939c-1.437,0.88-2.969,1.551-4.596,2.001
			c-1.859,0.514-3.744,0.683-5.668,0.514c-1.208-0.106-2.379-0.363-3.534-0.715c-0.126-0.038-0.264-0.06-0.362-0.164
			c0.547,0.034,1.07,0.203,1.61,0.283c1.267,0.186,2.529,0.216,3.806,0.124c1.784-0.128,3.506-0.525,5.187-1.11
			c1.612-0.561,3.153-1.267,4.496-2.345c1.226-0.984,2.223-2.164,3.001-3.532c0.478-0.84,0.847-1.725,1.142-2.643
			c0.023-0.072,0.055-0.142,0.114-0.293c0.164,0.522,0.185,0.971,0.133,1.435c-0.091,0.804-0.291,1.578-0.56,2.338
			C50.754,45.92,50.761,45.979,50.757,46.035z"/>
		<path fill="#FCFCFC" d="M31.638,28.506c1.543,1.992,3.055,3.943,4.575,5.905c-0.108,0.077-0.208,0.037-0.3,0.03
			c-0.862-0.063-1.724-0.054-2.583,0.036c-0.187,0.019-0.285-0.038-0.39-0.174c-0.726-0.938-1.455-1.873-2.191-2.804
			c-0.11-0.139-0.132-0.253-0.067-0.424C31.003,30.24,31.307,29.4,31.638,28.506z"/>
		<path fill="#76A236" d="M52.872,24.001c-0.269-0.756-0.542-1.511-0.804-2.27c-0.072-0.208-0.164-0.416-0.154-0.645
			c0.21-0.454,0.379-0.928,0.696-1.329c0.525-0.663,1.062-0.691,1.592-0.033c0.638,0.792,1.015,1.729,1.399,2.658
			c0.111,0.268,0.208,0.542,0.313,0.812c0.06,0.154,0.037,0.256-0.149,0.289C54.8,23.654,53.836,23.828,52.872,24.001z"/>
		<path fill="#1A6029" d="M27.144,23.225c0.741,0.116,1.446,0.372,2.169,0.56c0.272,0.071,0.338-0.027,0.385-0.242
			c0.312-1.415,0.649-2.825,0.929-4.247c0.126-0.64-0.039-1.289-0.149-1.927c-0.119-0.69-0.239-1.38-0.361-2.089
			c0.092,0.026,0.108,0.101,0.136,0.161c0.486,1.057,0.968,2.115,1.456,3.171c0.064,0.138,0.088,0.276,0.075,0.423
			c-0.104,1.19-0.161,2.382-0.202,3.576c-0.027,0.792-0.087,1.582-0.131,2.373c-0.004,0.079-0.001,0.164-0.074,0.213
			c-0.397,0.267-0.752,0.597-1.197,0.791c0.333-0.705,0.665-1.411,0.567-2.226c-0.001-0.01,0.007-0.022,0.007-0.033
			c0-0.569,0-1.138,0-1.799c-0.296,0.913-0.571,1.737-0.826,2.566c-0.057,0.184-0.119,0.232-0.304,0.175
			c-0.458-0.142-0.921-0.266-1.382-0.399c-0.119-0.034-0.228-0.081-0.315-0.179C27.67,23.801,27.406,23.514,27.144,23.225z"/>
		<path fill="#75A236" d="M27.144,23.225c0.262,0.289,0.525,0.577,0.784,0.869c0.086,0.098,0.196,0.145,0.315,0.179
			c0.461,0.133,0.924,0.257,1.382,0.399c0.184,0.057,0.247,0.009,0.304-0.175c0.255-0.829,0.53-1.653,0.826-2.566
			c0,0.662,0,1.23,0,1.799c0,0.011-0.008,0.022-0.007,0.033c0.098,0.815-0.233,1.521-0.567,2.226
			c-0.243,0.252-0.515,0.463-0.848,0.583c-0.968,0.349-1.941,0.686-2.905,1.047c-0.268,0.101-0.393,0.027-0.478-0.223
			c-0.159-0.474-0.073-0.927,0.097-1.376c0.034-0.09,0.105-0.136,0.191-0.175c0.386-0.178,0.765-0.374,1.157-0.537
			c0.222-0.092,0.228-0.163,0.087-0.35C27.094,24.44,27.115,23.83,27.144,23.225z"/>
		<path fill="#1A6029" d="M33.404,20.904c0.825,0.115,1.642,0.274,2.445,0.501c1.527,0.432,2.971,1.046,4.297,1.923
			c0.788,0.521,1.485,1.144,2.078,1.883c0.135,0.168,0.209,0.269-0.098,0.308c-0.54,0.069-1.077,0.17-1.615,0.257
			c-0.219,0.035-0.35-0.034-0.484-0.241c-0.888-1.374-2.132-2.365-3.525-3.183C35.518,21.774,34.487,21.294,33.404,20.904z"/>
		<path fill="#FAFAFA" d="M34.805,27.148c-0.421,1.132-0.814,2.187-1.224,3.288c-0.205-0.257-0.389-0.485-0.57-0.716
			c-0.359-0.457-0.716-0.914-1.073-1.373c-0.246-0.317-0.075-0.745,0.323-0.807C33.094,27.412,33.927,27.284,34.805,27.148z"/>
		<path fill="#1A6029" d="M16.386,16.564c0.208,1.506,0.144,3.016,0.062,4.54c-0.448-0.586-0.861-1.18-1.209-1.818
			C15.764,18.439,15.972,17.458,16.386,16.564z"/>
		<path fill="#BDBA66" d="M34.649,19.741c1.247-1.047,1.926-2.292,1.41-3.976c0.145,0.023,0.17,0.142,0.215,0.227
			c0.623,1.164,0.491,2.297-0.222,3.358C35.483,20.196,35.718,20.1,34.649,19.741z"/>
		<path fill="#BDBA66" d="M50.602,37.03c-0.09,0.339-0.304,0.591-0.545,0.817c-0.909,0.851-2.002,0.961-3.167,0.769
			c-0.108-0.018-0.143-0.069-0.146-0.18c-0.012-0.633,0.022-0.669,0.62-0.532C48.594,38.183,49.667,37.899,50.602,37.03z"/>
		<path fill="#BDBA66" d="M38.478,16.567c0.368,0.752,0.423,1.527,0.193,2.326c-0.177,0.613-0.514,1.133-0.916,1.622
			c-0.159,0.193-0.306,0.265-0.535,0.134c-0.122-0.07-0.259-0.115-0.431-0.19C38.02,19.429,38.553,18.13,38.478,16.567z"/>
		<path fill="#1A6029" d="M17.671,14.814c-0.255-0.198-0.507-0.401-0.765-0.594c-0.387-0.29-0.444-0.76-0.64-1.154
			c-0.084-0.169-0.144-0.35-0.215-0.526c0.258-0.339,0.585-0.609,0.889-0.93c0.189,0.337,0.147,0.696,0.164,1.021
			c0.037,0.708,0.24,1.355,0.528,1.989C17.658,14.677,17.658,14.748,17.671,14.814z"/>
		<path fill="#BDBA66" d="M40.828,17.811c0.186,0.62,0.153,1.144-0.01,1.664c-0.259,0.828-0.794,1.464-1.436,2.021
			c-0.104,0.09-0.693-0.102-0.716-0.232c-0.015-0.083,0.069-0.102,0.114-0.144c0.255-0.234,0.525-0.453,0.765-0.701
			C40.227,19.714,40.737,18.915,40.828,17.811z"/>
		<path fill="#BDBA66" d="M46.276,41.278c1.073,0.854,2.185,1.56,3.618,1.475c-0.62,0.335-1.268,0.357-1.934,0.2
			c-0.575-0.135-1.077-0.419-1.572-0.732c-0.269-0.17-0.34-0.351-0.213-0.632C46.216,41.5,46.236,41.403,46.276,41.278z"/>
		<path fill="#BDBA66" d="M50.403,40.398c-0.781,0.557-1.632,0.693-2.547,0.473c-0.372-0.089-0.715-0.249-1.06-0.414
			c-0.242-0.116-0.345-0.255-0.254-0.52c0.039-0.113,0.048-0.236,0.081-0.405C47.76,40.421,49.021,40.675,50.403,40.398z"/>
		<path fill="#BDBA66" d="M42.904,19.456c-0.133,1.382-0.961,2.289-2.082,2.979c-0.263,0.162-0.386-0.185-0.681-0.256
			C41.37,21.522,42.423,20.777,42.904,19.456z"/>
		<path fill="#BDBA66" d="M45.775,42.842c0.821,1.035,1.717,1.866,3.061,2.094c-0.358,0.102-0.777,0.069-1.26-0.089
			c-0.741-0.242-1.354-0.68-1.888-1.238C45.415,43.324,45.758,43.135,45.775,42.842z"/>
		<path fill="#BAB764" d="M44.189,20.757c-0.019,1.263-0.98,2.457-2.159,2.722c-0.164,0.037-0.206,0.008-0.437-0.306
			C42.823,22.761,43.844,22.122,44.189,20.757z"/>
		<path fill="#BAB764" d="M45.56,22.852c-0.095,0.34-0.331,0.573-0.584,0.786c-0.568,0.479-1.247,0.728-1.954,0.914
			c-0.296,0.078-0.322-0.193-0.469-0.35C43.658,23.934,44.738,23.687,45.56,22.852z"/>
		<path fill="#BDBA66" d="M47.298,46.639c-0.255-0.072-0.519-0.122-0.764-0.219c-0.711-0.282-1.177-0.825-1.526-1.485
			c-0.13-0.246,0.087-0.385,0.168-0.667c0.449,1.079,1.049,1.917,2.165,2.247C47.327,46.556,47.312,46.597,47.298,46.639z"/>
		<path fill="#BAB764" d="M46.324,47.951c-1.001-0.095-1.965-1.029-2.054-1.929c-0.02-0.202,0.146-0.307,0.259-0.523
			c0.13,0.559,0.271,1.044,0.553,1.473C45.374,47.414,45.765,47.735,46.324,47.951z"/>
		<path fill="#BAB764" d="M43.734,46.666c0.01,0.891,0.263,1.609,0.935,2.238c-0.692-0.25-1.322-1.219-1.249-1.803
			C43.44,46.932,43.577,46.844,43.734,46.666z"/>
		<path fill="#BAB764" d="M19.14,28.673c0.02-0.487,0.082-0.965-0.213-1.424c0.382,0.156,0.742,0.949,0.606,1.258
			C19.462,28.669,19.299,28.64,19.14,28.673z"/>
		<path fill="#BAB764" d="M17.683,27.846c0.306,0.164,0.536,0.402,0.675,0.719c0.166,0.378,0.124,0.475-0.294,0.684
			c0.122-0.549-0.116-0.966-0.439-1.353C17.644,27.879,17.664,27.863,17.683,27.846z"/>
		<path fill="#BAB764" d="M20.182,27.141c0.345,0.29,0.496,0.934,0.341,1.301c-0.05,0.118-0.111,0.188-0.25,0.145
			c-0.15-0.047-0.061-0.139-0.04-0.212C20.356,27.958,20.308,27.551,20.182,27.141z"/>
		<path fill="#BDBA66" d="M42.997,49.286c-0.526-0.564-0.603-1.255-0.161-1.586C42.676,48.255,42.852,48.732,42.997,49.286z"/>
		<path fill="#BAB764" d="M41.812,49.988c-0.418-0.468-0.439-1.15,0.02-1.429c-0.201,0.508-0.121,0.972-0.024,1.435L41.812,49.988z"
			/>
		<path fill="#75A236" d="M41.749,7.948c-0.05-0.041-0.1-0.082-0.151-0.122c0.036-0.007,0.072-0.013,0.109-0.02
			c0.214,0.023,0.393,0.13,0.639,0.274c-0.155-0.031-0.238-0.048-0.32-0.064c-0.078-0.085-0.179-0.072-0.279-0.065
			C41.746,7.95,41.749,7.948,41.749,7.948z"/>
		<path fill="#1A6029" d="M20.081,42.664c-0.08-0.057-0.164-0.111-0.174-0.253c0.165,0.011,0.184,0.119,0.191,0.238
			C20.099,42.649,20.081,42.664,20.081,42.664z"/>
		<path fill="#1A6029" d="M41.746,7.95c0.1-0.007,0.201-0.019,0.279,0.065C41.927,8.017,41.819,8.058,41.746,7.95z"/>
		<path fill="#1A6029" d="M25.754,40.192c-0.025,0.017-0.04,0.037-0.053,0.035c-0.034-0.005-0.067-0.019-0.101-0.03
			c0.019-0.007,0.037-0.021,0.056-0.021C25.686,40.176,25.715,40.185,25.754,40.192z"/>
		<path fill="#1A6029" d="M31.796,51.603c-0.079,0.006-0.157,0.005-0.212-0.067C31.664,51.531,31.743,51.525,31.796,51.603z"/>
		<path fill="#76A336" d="M47.762,52.582c0.034-0.054,0.073-0.129,0.14-0.066c0.027,0.025-0.043,0.085-0.093,0.108
			C47.794,52.61,47.778,52.596,47.762,52.582z"/>
		<path fill="#1A6029" d="M47.191,52.879c-0.026,0.058-0.076,0.072-0.134,0.071C47.082,52.89,47.133,52.877,47.191,52.879z"/>
		<path fill="#1A6029" d="M19.817,42.257c-0.01-0.011-0.02-0.022-0.03-0.034c0.011,0.01,0.023,0.019,0.034,0.029L19.817,42.257z"/>
		<path fill="#1A6029" d="M19.822,42.253c0.009,0.011,0.018,0.023,0.027,0.034c-0.011-0.01-0.021-0.02-0.032-0.03
			C19.817,42.257,19.822,42.253,19.822,42.253z"/>
		<path fill="#BAB764" d="M17.625,27.896c-0.011-0.024-0.039-0.062-0.032-0.07c0.035-0.04,0.065-0.012,0.09,0.02
			C17.664,27.863,17.644,27.879,17.625,27.896z"/>
		<polygon fill="#BAB764" points="17.488,27.757 17.515,27.751 17.512,27.772 		"/>
		<path fill="#BAB764" d="M41.808,49.993c0.016-0.001,0.031-0.001,0.047-0.002c-0.004,0.013-0.007,0.027-0.011,0.04
			c-0.011-0.015-0.021-0.029-0.032-0.044C41.812,49.988,41.808,49.993,41.808,49.993z"/>
		<path fill="#1A6029" d="M47.403,52.749c-0.028,0.019-0.057,0.038-0.085,0.058C47.346,52.787,47.375,52.768,47.403,52.749z"/>
		<path fill="#1A6029" d="M47.275,52.821c-0.029,0.02-0.057,0.039-0.086,0.059C47.218,52.86,47.246,52.841,47.275,52.821z"/>
		<path fill="#1A1623" d="M22.237,50.798c0.023,0.023,0.046,0.046,0.069,0.069C22.258,50.87,22.229,50.852,22.237,50.798z"/>
		<path fill="#1A1623" d="M22.304,50.864c0.023,0.034,0.047,0.068,0.07,0.102C22.351,50.932,22.328,50.898,22.304,50.864z"/>
		<path fill="#1A1623" d="M45.742,14.61c-0.017-0.011-0.034-0.022-0.05-0.033c0.018-0.008,0.037-0.024,0.054-0.023
			c0.017,0.001,0.034,0.019,0.051,0.029C45.778,14.592,45.76,14.601,45.742,14.61z"/>
		<path fill="#1A1623" d="M47.263,18.577c0.056,0.002,0.105,0.015,0.131,0.071l-0.002,0.002c-0.056,0-0.106-0.012-0.136-0.065
			C47.256,18.585,47.263,18.577,47.263,18.577z"/>
		<path fill="#1A1623" d="M49.596,20.328c-0.003,0.008-0.007,0.016-0.01,0.024c-0.008-0.011-0.017-0.022-0.025-0.033
			c0.007-0.004,0.016-0.013,0.021-0.011C49.588,20.31,49.592,20.32,49.596,20.328z"/>
		<path fill="#1A1623" d="M46.318,16.631c0.009,0.01,0.019,0.02,0.028,0.03c-0.006-0.001-0.015-0.001-0.019-0.005
			c-0.005-0.006-0.007-0.016-0.011-0.024C46.317,16.632,46.318,16.631,46.318,16.631z"/>
		<path fill="#1A1623" d="M49.142,22.347c0.009,0.01,0.018,0.02,0.027,0.03c-0.006-0.002-0.015-0.001-0.018-0.005
			c-0.005-0.006-0.007-0.016-0.01-0.024L49.142,22.347z"/>
		<path fill="#1A1623" d="M49.141,22.348c-0.01-0.01-0.02-0.019-0.031-0.029c0.007,0.001,0.015,0,0.019,0.004
			c0.006,0.006,0.008,0.016,0.012,0.024C49.142,22.347,49.141,22.348,49.141,22.348z"/>
		<path fill="#1A1623" d="M49.479,23.893c-0.023-0.022-0.045-0.044-0.068-0.066c0,0,0,0,0,0c0.022,0.023,0.044,0.045,0.066,0.068
			C49.477,23.895,49.479,23.893,49.479,23.893z"/>
		<path fill="#1A1623" d="M48.672,20.732c0.01,0.01,0.019,0.019,0.029,0.029c-0.01-0.009-0.021-0.018-0.031-0.027
			C48.67,20.734,48.672,20.732,48.672,20.732z"/>
		<path fill="#1A1623" d="M49.477,23.895c0.009,0.004,0.018,0.009,0.028,0.013c-0.008-0.005-0.017-0.01-0.025-0.015
			C49.479,23.893,49.477,23.895,49.477,23.895z"/>
		<path fill="#1A1623" d="M48.67,20.734c-0.023-0.022-0.046-0.043-0.069-0.065c0,0,0.006-0.007,0.007-0.007
			c0.022,0.023,0.043,0.046,0.064,0.069C48.672,20.732,48.67,20.734,48.67,20.734z"/>
		<path fill="#1A1623" d="M47.394,18.648c0.009,0.01,0.019,0.02,0.028,0.03c-0.006-0.001-0.015-0.001-0.019-0.004
			c-0.006-0.006-0.008-0.016-0.011-0.024C47.392,18.65,47.394,18.648,47.394,18.648z"/>
		<path fill="#1A1623" d="M29.233,7.829c-0.402,0.269-0.878,0.36-1.312,0.552c-0.106,0.047-0.253,0.034-0.296,0.184
			c-0.307,1.013-0.626,2.023-0.915,3.042c-0.16,0.565-0.495,0.993-0.931,1.357c-0.214,0.179-0.438,0.346-0.664,0.509
			c-0.111,0.08-0.2,0.172-0.271,0.29c-0.294,0.488-0.593,0.972-0.891,1.457c-0.421,0.553-0.564,1.233-0.84,1.852
			c-0.049,0.111-0.099,0.221-0.165,0.371c-0.111-0.173-0.195-0.314-0.289-0.448c-0.156-0.223-0.414-0.223-0.528,0.011
			c-0.127,0.261-0.241,0.529-0.336,0.803c-0.089,0.259,0.148,0.552,0.432,0.538c0.108-0.005,0.164,0.013,0.129,0.116
			c-0.172,0.505-0.224,1.044-0.448,1.533c-0.461-0.606-0.919-1.214-1.384-1.816c-0.08-0.104-0.109-0.187-0.02-0.293
			c1.082-1.293,1.277-2.957,1.867-4.456c0.163-0.414,0.205-0.84,0.196-1.281c-0.009-0.491,0.026-0.981,0.225-1.498
			c0.165,0.361,0.328,0.67,0.619,0.919c0.334-0.547,0.309-1.238,0.772-1.716c0.434-0.448,0.84-0.924,1.219-1.344
			c-0.417,0.037-0.881,0.269-1.411,0.481c0.108-0.32,0.324-0.496,0.487-0.709c0.511-0.671,1.177-0.915,2.015-0.882
			C27.428,7.437,28.345,7.527,29.233,7.829z M24.243,12.387c0.838-0.015,1.351-0.445,1.495-1.255
			c0.07-0.396,0.122-0.793,0.143-1.195c0.012-0.222,0.033-0.443,0.051-0.688C25.013,10.135,24.393,11.129,24.243,12.387z"/>
		<path fill="#75A236" d="M23.953,15.22c0.297-0.485,0.597-0.969,0.891-1.457c0.071-0.118,0.159-0.21,0.271-0.29
			c0.226-0.163,0.451-0.33,0.664-0.509c0.435-0.365,0.77-0.793,0.931-1.357c0.289-1.018,0.608-2.028,0.915-3.042
			c0.208,0.659,0.285,1.344,0.397,2.022c0.056,0.34,0.087,0.684,0.122,1.027c0.056,0.541-0.287,0.877-0.616,1.237
			c-0.973,1.064-2.295,1.603-3.475,2.355C24.027,15.224,23.987,15.216,23.953,15.22z"/>
		<path fill="#BDBA66" d="M24.243,12.387c0.149-1.258,0.77-2.252,1.689-3.137c-0.019,0.245-0.039,0.466-0.051,0.688
			c-0.021,0.402-0.073,0.799-0.143,1.195C25.594,11.942,25.081,12.372,24.243,12.387z"/>
	</g>
</g>
</svg>
