<?xml version="1.0" encoding="utf-8"?>
<!-- Generator: Adobe Illustrator 16.0.0, SVG Export Plug-In . SVG Version: 6.00 Build 0)  -->
<!DOCTYPE svg PUBLIC "-//W3C//DTD SVG 1.1//EN" "http://www.w3.org/Graphics/SVG/1.1/DTD/svg11.dtd">
<svg version="1.1" id="Layer_1" xmlns="http://www.w3.org/2000/svg" xmlns:xlink="http://www.w3.org/1999/xlink" x="0px" y="0px"
	 width="64px" height="64px" viewBox="0 0 64 64" enable-background="new 0 0 64 64" xml:space="preserve">
<g>
	<g>
		<path fill-rule="evenodd" clip-rule="evenodd" fill="#AD1D1D" d="M64,18.649c0,8.914,0,17.795,0,26.701c-21.333,0-42.655,0-64,0
			c0-8.893,0-17.782,0-26.701C21.323,18.649,42.644,18.649,64,18.649z M2.686,42.698c19.385,0,38.746,0,58.112,0
			c0-7.173,0-14.325,0-21.472c-19.387,0-38.737,0-58.112,0C2.686,28.394,2.686,35.535,2.686,42.698z"/>
		<path fill-rule="evenodd" clip-rule="evenodd" fill="#AD1D1D" d="M11.175,28.727c-0.477,0.202-0.66,0.527-0.609,1.078
			c0.038,0.411,0.194,0.581,0.763,0.652c0.541,0.068,1.09,0.072,1.636,0.087c2.293,0.062,4.587,0.096,6.879,0.183
			c1.287,0.049,2.338,0.581,2.731,1.887c0.247,0.819,0.386,1.696,0.41,2.551c0.027,0.961-0.321,1.853-0.936,2.624
			c-0.252,0.315-0.542,0.545-0.938,0.634c-0.566,0.072-1.131,0.202-1.698,0.207c-3.125,0.03-6.25,0.039-9.376,0.033
			c-0.553-0.002-1.106-0.109-1.659-0.168c-1.16-0.397-1.68-1.29-1.842-2.434c-0.079-0.551-0.098-1.11-0.144-1.665
			c1.395,0,2.744,0,4.091,0c0.049,0.267,0.079,0.476,0.126,0.682c0.121,0.521,0.273,0.696,0.816,0.7
			c2.106,0.016,4.212-0.001,6.318-0.006c0.04-0.001,0.08-0.008,0.119-0.015c0.563-0.097,0.897-0.363,0.927-0.736
			c0.035-0.445-0.345-1.062-0.808-1.165c-0.516-0.114-1.051-0.172-1.58-0.188c-2.238-0.067-4.478-0.106-6.716-0.164
			c-0.305-0.008-0.613-0.046-0.913-0.104c-1.149-0.222-1.865-0.877-2.108-2.056c-0.24-1.165-0.348-2.306,0.031-3.471
			c0.358-1.101,1.016-1.833,2.188-2.005c0.75-0.11,1.506-0.234,2.26-0.243c2.573-0.029,5.147-0.019,7.72-0.007
			c1.068,0.004,2.034,0.313,2.746,1.156c0.242,0.286,0.486,0.628,0.566,0.98c0.15,0.666,0.182,1.358,0.264,2.048
			c-1.444,0-2.781,0-4.136,0c-0.069-0.433,0.076-0.916-0.459-1.084c-0.085-0.028-0.171-0.056-0.256-0.084l0.006,0.003
			c-0.191-0.042-0.381-0.118-0.572-0.12c-1.606-0.017-3.211-0.032-4.817-0.015C11.862,28.507,11.519,28.648,11.175,28.727z"/>
		<path fill-rule="evenodd" clip-rule="evenodd" fill="#AD1D1D" d="M44.007,38.763c0-4.4,0-8.756,0-13.137c4.505,0,8.991,0,13.501,0
			c0,1.089,0,2.177,0,3.317c-3.174,0-6.35,0-9.544,0c0,0.755,0,1.455,0,2.215c0.156,0,0.297,0,0.438,0
			c2.76-0.001,5.521,0.008,8.28-0.011c0.403-0.002,0.526,0.099,0.51,0.511c-0.035,0.85-0.011,1.701-0.011,2.604
			c-3.06,0-6.09,0-9.155,0c0,1.526,0,3.001,0,4.501C46.677,38.763,45.363,38.763,44.007,38.763z"/>
		<path fill-rule="evenodd" clip-rule="evenodd" fill="#AD1D1D" d="M24.089,25.6c1.597,0,3.117-0.006,4.637,0.011
			c0.14,0.002,0.315,0.12,0.411,0.236c1.375,1.663,2.737,3.334,4.126,5.031c0.66-0.781,1.313-1.552,1.963-2.322
			c0.782-0.928,1.563-1.856,2.351-2.778c0.069-0.082,0.191-0.17,0.289-0.17c1.545-0.011,3.091-0.008,4.713-0.008
			c-0.623,0.734-1.199,1.417-1.779,2.098c-1.78,2.089-3.565,4.175-5.336,6.272c-0.114,0.136-0.176,0.357-0.177,0.539
			c-0.007,1.32,0.009,2.642,0.017,3.962c0,0.091-0.008,0.183-0.015,0.316c-1.306,0-2.595-0.001-3.883,0
			c-0.275,0-0.233-0.193-0.233-0.365c0.001-1.227-0.01-2.454,0.011-3.682c0.005-0.344-0.094-0.602-0.312-0.865
			C28.62,31.142,26.381,28.4,24.089,25.6z"/>
		<path fill-rule="evenodd" clip-rule="evenodd" fill="#D58B8B" d="M8.379,38.494c0.553,0.059,1.106,0.166,1.659,0.168
			c3.125,0.006,6.251-0.003,9.376-0.033c0.566-0.005,1.132-0.135,1.698-0.207c-0.476,0.104-0.948,0.259-1.429,0.299
			c-0.849,0.071-1.703,0.094-2.556,0.098c-2.268,0.011-4.536,0.023-6.803-0.017C9.675,38.791,9.028,38.602,8.379,38.494z"/>
		<path fill-rule="evenodd" clip-rule="evenodd" fill="#F7EAEA" d="M11.175,28.727c0.344-0.078,0.687-0.22,1.031-0.224
			c1.605-0.018,3.211-0.002,4.817,0.015c0.191,0.002,0.381,0.078,0.572,0.12c-1.652,0.004-3.305,0.002-4.958,0.015
			C12.15,28.656,11.663,28.7,11.175,28.727z"/>
		<path fill-rule="evenodd" clip-rule="evenodd" fill="#F7EAEA" d="M17.59,28.635c0.085,0.028,0.171,0.056,0.256,0.084
			C17.761,28.69,17.675,28.663,17.59,28.635z"/>
	</g>
</g>
</svg>
