<?xml version="1.0" encoding="utf-8"?>
<!-- Generator: Adobe Illustrator 22.0.0, SVG Export Plug-In . SVG Version: 6.00 Build 0)  -->
<svg version="1.1" id="Camada_1" xmlns="http://www.w3.org/2000/svg" xmlns:xlink="http://www.w3.org/1999/xlink" x="0px" y="0px"
	 width="64px" height="64px" viewBox="0 0 64 64" style="enable-background:new 0 0 64 64;" xml:space="preserve">
<g>
	<g>
		<path style="fill:#3C49BD;" d="M32.139,63.861c-0.053,0-0.106,0-0.159,0c0.025-0.039,0.001-0.062-0.032-0.067
			c-0.043-0.007-0.087-0.002-0.131-0.003c-0.105-0.002-0.209-0.004-0.314-0.006c-0.185-0.018-0.37-0.03-0.554-0.054
			c-0.964-0.124-1.896-0.375-2.808-0.71c-1.129-0.414-2.215-0.924-3.292-1.455c-1.493-0.736-2.965-1.515-4.44-2.287
			c-1.504-0.788-3.009-1.574-4.516-2.358c-1.288-0.671-2.567-1.36-3.879-1.985c-0.288-0.137-0.565-0.293-0.829-0.473
			c-0.25-0.171-0.464-0.374-0.609-0.644c-0.091-0.169-0.184-0.338-0.27-0.51c-0.487-0.966-0.717-2.005-0.862-3.067
			c-0.119-0.875-0.158-1.756-0.195-2.637c-0.03-0.723-0.019-1.446-0.037-2.169c-0.019-0.75-0.008-1.5-0.006-2.25
			c0.001-0.423,0.075-0.833,0.272-1.211c0.475-0.915,1.224-1.423,2.257-1.499c0.51-0.038,0.985,0.091,1.444,0.303
			c0.813,0.374,1.629,0.744,2.444,1.114c1.371,0.622,2.742,1.242,4.113,1.864c0.912,0.413,1.823,0.828,2.735,1.242
			c1.377,0.624,2.754,1.248,4.132,1.872c0.797,0.361,1.591,0.73,2.393,1.08c0.579,0.253,1.158,0.201,1.703-0.105
			c0.74-0.416,1.006-1.33,0.611-2.045c-0.175-0.318-0.435-0.544-0.756-0.711c-1.065-0.553-2.128-1.112-3.192-1.668
			c-1.517-0.793-3.034-1.585-4.551-2.377c-1.176-0.614-2.352-1.228-3.528-1.842c-1.805-0.943-3.61-1.885-5.415-2.828
			c-1.17-0.611-2.34-1.223-3.51-1.834c-1.811-0.946-3.622-1.892-5.433-2.837c-0.947-0.494-1.894-0.988-2.84-1.483
			c-0.44-0.23-0.828-0.526-1.141-0.913c-0.517-0.639-0.822-1.364-0.824-2.191c-0.005-1.427-0.02-2.853,0.026-4.28
			c0.025-0.762,0.055-1.524,0.126-2.283c0.064-0.687,0.165-1.368,0.327-2.039c0.349-1.448,1.04-2.701,2.105-3.748
			c0.666-0.655,1.409-1.209,2.189-1.716c0.846-0.55,1.723-1.047,2.606-1.533c1.238-0.681,2.492-1.332,3.744-1.986
			c0.312-0.163,0.643-0.246,0.995-0.242c0.679,0.008,1.232,0.278,1.654,0.81c0.314,0.396,0.44,0.856,0.44,1.354
			c0,2.735,0,5.469,0,8.204c0,1.022-0.002,2.044,0.003,3.066c0.003,0.489,0.149,0.94,0.397,1.359
			c0.346,0.583,0.844,0.996,1.441,1.305c0.901,0.466,1.8,0.938,2.7,1.407c1.517,0.792,3.034,1.584,4.551,2.376
			c1.206,0.629,2.411,1.258,3.617,1.887c1.511,0.789,3.022,1.578,4.533,2.367c1.211,0.632,2.423,1.264,3.635,1.896
			c1.535,0.801,3.069,1.603,4.604,2.403c1.418,0.739,2.837,1.474,4.253,2.217c0.305,0.16,0.622,0.301,0.91,0.492
			c0.858,0.569,1.37,1.356,1.373,2.399c0.013,3.836,0.005,7.673,0.004,11.509c0,0.479-0.058,0.954-0.183,1.416
			c-0.436,1.617-1.366,2.871-2.835,3.677c-1.774,0.973-3.576,1.893-5.41,2.75c-0.667,0.312-1.345,0.598-2.037,0.85
			c-0.743,0.27-1.5,0.488-2.277,0.633c-0.037-0.003-0.072,0-0.099,0.031c-0.06,0.003-0.12,0.007-0.18,0.01
			c-0.013-0.003-0.026-0.001-0.038,0.004c-0.107,0.013-0.214,0.025-0.321,0.038c-0.013-0.004-0.026-0.003-0.038,0.002
			c-0.12,0.012-0.24,0.024-0.361,0.036c-0.118,0.003-0.236,0.005-0.353,0.008C32.18,63.796,32.113,63.772,32.139,63.861z"/>
		<path style="fill:#3C49BD;" d="M64,36.54c0,1.381,0,2.761,0,4.142c-0.028-0.014-0.055-0.008-0.062,0.021
			c-0.01,0.045-0.014,0.091-0.014,0.137c-0.006,0.609-0.039,1.217-0.074,1.826c-0.033,0.575-0.088,1.148-0.171,1.718
			c-0.12,0.828-0.313,1.637-0.639,2.411c-0.025,0.058-0.071,0.116-0.026,0.185l0,0.001c-0.137,0.089-0.174,0.234-0.21,0.379
			c-0.002,0.007,0.026,0.022,0.04,0.033c0.005,0.023,0,0.041-0.025,0.049c-0.014-0.01-0.033-0.032-0.041-0.028
			c-0.017,0.008-0.015,0.029-0.004,0.045l-0.008-0.007l0.009,0.005c-0.064,0-0.07,0.031-0.04,0.079l-0.001,0.002
			c-0.122,0.017-0.133,0.101-0.119,0.199l-0.009-0.005l0.01,0.004c-0.063,0-0.073,0.028-0.041,0.078l-0.001,0.002
			c-0.092-0.003-0.108,0.043-0.078,0.119c-0.095-0.006-0.105,0.045-0.079,0.12c-0.094-0.006-0.104,0.045-0.08,0.119l-0.009-0.005
			l0.009,0.006c-0.095-0.007-0.109,0.041-0.08,0.118l-0.002,0.002c-0.045-0.017-0.048,0.005-0.038,0.04l0.001,0
			c-0.09-0.004-0.111,0.039-0.081,0.118l-0.002,0.001c-0.044-0.017-0.049,0.004-0.038,0.04l0.001,0
			c-0.09-0.005-0.113,0.037-0.082,0.117l-0.001,0.001c-0.045-0.017-0.052,0.002-0.039,0.041c-0.043-0.016-0.05,0.003-0.038,0.04
			l0.001,0c-0.113,0.018-0.133,0.045-0.121,0.156l-0.002,0.001c-0.044-0.017-0.054,0-0.039,0.04l0,0
			c-0.043-0.016-0.053,0.001-0.039,0.04c-0.042-0.015-0.052,0.001-0.039,0.04l-0.008-0.007l0.007,0.008
			c-0.041-0.014-0.051,0.001-0.039,0.039l-0.001,0.001c-0.04-0.013-0.05,0.002-0.039,0.039l-0.001,0.001
			c-0.038-0.012-0.05,0.002-0.038,0.039l0.001,0.001c-0.026-0.015-0.051-0.01-0.071,0.01c-0.107,0.106-0.214,0.212-0.321,0.319
			c-0.02,0.02-0.024,0.045-0.008,0.07l-0.001-0.001c-0.038-0.013-0.051,0-0.039,0.038l-0.001,0.001
			c-0.037-0.012-0.054-0.003-0.039,0.038L61.1,49.572c-0.039-0.013-0.055-0.004-0.039,0.039l-0.001,0.001
			c-0.04-0.014-0.056-0.005-0.04,0.039l0,0c-0.041-0.015-0.057-0.005-0.04,0.039l-0.001,0.002c-0.13,0.005-0.163,0.031-0.196,0.16
			l-0.001,0c-0.038-0.013-0.056-0.005-0.04,0.038l-0.001,0c-0.039-0.014-0.058-0.007-0.04,0.039l-0.002,0.002
			c-0.082-0.034-0.122-0.008-0.116,0.082l-0.001-0.001c-0.036-0.012-0.056-0.005-0.039,0.038l-0.001,0.001
			c-0.038-0.013-0.058-0.007-0.04,0.038l-0.002,0.002c-0.08-0.032-0.123-0.01-0.117,0.081l0-0.001
			c-0.036-0.011-0.057-0.007-0.04,0.038l-0.001,0.002c-0.116-0.011-0.144,0.011-0.158,0.119l-0.001,0.001
			c-0.078-0.029-0.123-0.011-0.118,0.081l0-0.001c-0.036-0.011-0.057-0.007-0.039,0.038l-0.002,0.002
			c-0.077-0.029-0.125-0.014-0.118,0.08c-0.119-0.008-0.146,0.012-0.159,0.118l-0.002,0.001c-0.079-0.032-0.124-0.015-0.118,0.08
			l-0.005-0.009l0.004,0.01c-0.078-0.03-0.125-0.016-0.118,0.08l-0.006-0.01l0.005,0.01c-0.076-0.027-0.126-0.016-0.119,0.08
			c-0.076-0.028-0.126-0.017-0.119,0.079l-0.005-0.009l0.004,0.009c-0.076-0.028-0.126-0.017-0.119,0.079l-0.001,0
			c-0.077-0.03-0.122-0.013-0.119,0.079l0-0.002c-0.049-0.008-0.064,0.01-0.045,0.056c-0.001,0.013-0.008,0.019-0.02,0.017
			c-0.08-0.065-0.107-0.055-0.133,0.049c-0.075-0.027-0.126-0.018-0.12,0.078l-0.002,0.001c-0.049-0.03-0.078-0.02-0.079,0.042
			l0.002-0.001c-0.072-0.023-0.127-0.019-0.12,0.079l-0.001,0c-0.101-0.018-0.18,0-0.198,0.12l-0.001,0
			c-0.127-0.007-0.166,0.016-0.198,0.119l-0.002,0c-0.048-0.029-0.078-0.021-0.079,0.041l0.002-0.001
			c-0.072-0.023-0.127-0.019-0.121,0.078l-0.002,0.001c-0.049-0.03-0.079-0.023-0.079,0.041l-0.004-0.01l0.006,0.009
			c-0.1-0.016-0.181-0.002-0.199,0.119l-0.002,0c-0.048-0.028-0.078-0.022-0.079,0.041l0.002-0.001
			c-0.098-0.014-0.182-0.003-0.2,0.119l-0.002,0.001c-0.048-0.029-0.079-0.023-0.079,0.041l-0.004-0.009l0.006,0.008
			c-0.098-0.014-0.183-0.006-0.2,0.118l-0.002,0.001c-0.049-0.03-0.079-0.024-0.079,0.041c-0.048-0.028-0.078-0.022-0.079,0.041
			l0.002-0.001c-0.098-0.013-0.183-0.006-0.2,0.118l-0.002,0.001c-0.049-0.03-0.079-0.025-0.079,0.041l-0.006-0.01l0.007,0.01
			c-0.157-0.01-0.27,0.069-0.365,0.182c-0.002,0.002,0.005,0.011,0.008,0.017l-0.003,0.001c-0.048-0.03-0.079-0.025-0.079,0.04
			l-0.004-0.01l0.005,0.01c-0.184,0.002-0.324,0.094-0.446,0.221c-0.001,0.002,0.006,0.011,0.009,0.017l-0.003,0.001
			c-0.048-0.029-0.079-0.026-0.079,0.04l-0.004-0.01l0.004,0.01c-0.048-0.028-0.079-0.024-0.079,0.04l-0.004-0.01l0.005,0.009
			c-0.184,0.003-0.325,0.093-0.447,0.221c-0.001,0.001,0.006,0.011,0.009,0.017l-0.003,0.001c-0.048-0.03-0.08-0.026-0.079,0.04
			l-0.003-0.01l0.003,0.01c-0.048-0.029-0.079-0.025-0.079,0.04l-0.004-0.01l0.005,0.01c-0.011-0.006-0.025-0.019-0.034-0.016
			c-0.176,0.052-0.331,0.146-0.485,0.243c-0.018,0.011-0.011,0.034,0.001,0.05l-0.003,0.001c-0.049-0.03-0.08-0.027-0.079,0.04
			l-0.003-0.01l0.002,0.01c-0.048-0.03-0.079-0.026-0.079,0.04l-0.004-0.01l0.003,0.01c-0.048-0.028-0.079-0.025-0.079,0.04
			l-0.004-0.01l0.005,0.009c-0.022-0.018-0.049-0.023-0.073-0.01c-0.17,0.087-0.34,0.174-0.509,0.263
			c-0.026,0.013-0.034,0.038-0.015,0.065l-0.003,0.001c-0.048-0.03-0.08-0.026-0.079,0.04l-0.003-0.01l0.003,0.01
			c-0.048-0.029-0.079-0.026-0.079,0.04l-0.004-0.01l0.006,0.01c-0.018-0.005-0.039-0.018-0.054-0.013
			c-0.184,0.072-0.357,0.166-0.528,0.265c-0.025,0.014-0.035,0.037-0.016,0.065c0,0-0.002,0.001-0.002,0.001
			c-0.07-0.044-0.127,0.004-0.183,0.03c-0.604,0.284-1.196,0.247-1.783-0.053c-0.06-0.031-0.113-0.098-0.196-0.057l-0.001,0
			c0.007-0.095-0.044-0.104-0.118-0.08l-0.001-0.001c0.014-0.041-0.004-0.05-0.041-0.039l0.007-0.008L50.57,54.31
			c0.012-0.039-0.003-0.049-0.039-0.038l-0.001,0.001c-0.036-0.124-0.075-0.163-0.201-0.201l0.001-0.001
			c0.011-0.036,0-0.052-0.038-0.039l0.008-0.007l-0.008,0.006c0.011-0.037,0.002-0.054-0.039-0.04l-0.001-0.001
			c0.023-0.074,0.012-0.124-0.08-0.119c0.024-0.073,0.016-0.125-0.08-0.119l0-0.002c0.027-0.047,0.024-0.079-0.041-0.079l0,0
			c0.026-0.046,0.025-0.079-0.04-0.08c0,0,0.001,0,0.001,0c0.034-0.045,0.014-0.09-0.003-0.132c-0.118-0.309-0.143-0.63-0.143-0.958
			c0.002-3.79-0.001-7.579,0.003-11.369c0.001-0.86-0.325-1.571-0.92-2.173c-0.259-0.262-0.567-0.457-0.892-0.627
			c-1.146-0.599-2.292-1.198-3.439-1.797c-1.805-0.943-3.61-1.885-5.415-2.828c-1.17-0.611-2.34-1.222-3.51-1.834
			c-1.493-0.78-2.986-1.56-4.48-2.34c-1.176-0.614-2.352-1.228-3.527-1.842c-1.834-0.958-3.669-1.915-5.503-2.873
			c-0.894-0.467-1.787-0.933-2.68-1.401c-0.266-0.139-0.516-0.303-0.733-0.51c-0.609-0.584-0.929-1.291-0.928-2.144
			c0.004-2.86,0.001-5.721,0.002-8.581c0-0.956-0.005-1.911,0.005-2.867c0.005-0.472,0.078-0.938,0.217-1.39
			c0.468-1.526,1.392-2.686,2.809-3.428c1.774-0.929,3.543-1.871,5.365-2.706c0.893-0.409,1.796-0.79,2.737-1.075
			c1.144-0.347,2.307-0.535,3.508-0.471c0.933,0.05,1.839,0.232,2.727,0.512c1.199,0.378,2.339,0.897,3.468,1.441
			c1.506,0.726,2.984,1.506,4.465,2.281c1.786,0.935,3.574,1.867,5.361,2.802c0.735,0.384,1.478,0.752,2.197,1.165
			c0.487,0.279,0.924,0.626,1.284,1.058c0.6,0.719,0.986,1.553,1.253,2.444c0.323,1.08,0.444,2.193,0.515,3.312
			c0.039,0.615,0.069,1.232,0.076,1.848c0.014,1.274,0.016,2.548,0.01,3.823c-0.003,0.61-0.295,1.076-0.796,1.412
			c-0.294,0.197-0.627,0.289-0.978,0.283c-0.309-0.006-0.595-0.111-0.873-0.246c-1.001-0.488-2.007-0.969-3.01-1.453
			c-1.607-0.776-3.213-1.552-4.819-2.328c-1.147-0.554-2.294-1.107-3.44-1.661c-1.648-0.796-3.296-1.593-4.944-2.39
			c-0.836-0.404-1.669-0.814-2.509-1.21c-0.622-0.293-1.241-0.253-1.825,0.102c-0.442,0.269-0.706,0.668-0.736,1.2
			c0,0.079,0,0.158,0,0.237c0.003,0.046-0.001,0.093,0.009,0.138c0.097,0.468,0.355,0.827,0.767,1.064
			c0.345,0.198,0.7,0.378,1.053,0.562c1.558,0.814,3.116,1.627,4.674,2.441c1.105,0.577,2.21,1.156,3.315,1.733
			c1.552,0.811,3.105,1.621,4.657,2.431c1.117,0.583,2.233,1.168,3.35,1.751c1.523,0.795,3.046,1.59,4.568,2.385
			c1.176,0.614,2.352,1.228,3.528,1.842c1.611,0.841,3.221,1.685,4.834,2.521c0.74,0.383,1.39,0.874,1.921,1.52
			c0.556,0.676,0.951,1.434,1.173,2.281c0.077,0.295,0.131,0.595,0.159,0.899C63.925,36.489,63.913,36.558,64,36.54z"/>
		<path style="fill:#1E1F2B;" d="M31.062,63.824c-1.026-0.117-2.016-0.379-2.983-0.738c-1.188-0.442-2.332-0.982-3.464-1.548
			c-2.401-1.199-4.768-2.465-7.15-3.702c-1.447-0.751-2.889-1.511-4.336-2.262c-0.37-0.192-0.752-0.363-1.126-0.548
			c-0.339-0.168-0.669-0.352-0.976-0.575c-0.196-0.142-0.355-0.314-0.481-0.523c-0.553-0.914-0.882-1.909-1.07-2.954
			c-0.174-0.968-0.248-1.946-0.287-2.928c-0.065-1.625-0.067-3.251-0.063-4.877c0.003-1.199,0.714-2.217,1.821-2.619
			c0.656-0.238,1.319-0.242,1.96,0.034c0.919,0.395,1.826,0.817,2.737,1.23c4.448,2.014,8.896,4.03,13.343,6.044
			c0.545,0.247,1.086,0.22,1.61-0.05c0.445-0.23,0.727-0.604,0.798-1.101c0.078-0.55-0.134-1-0.565-1.345
			c-0.114-0.091-0.245-0.157-0.374-0.225c-9.446-4.933-18.89-9.869-28.337-14.799c-0.962-0.502-1.614-1.251-1.938-2.285
			c-0.05-0.158-0.086-0.32-0.111-0.484C0.064,27.526,0.084,27.455,0,27.46c0-0.956,0-1.912,0-2.867
			c0.027-0.023,0.036-0.054,0.036-0.088c-0.003-0.278,0.02-0.555,0-0.833c0.002-0.072,0.005-0.143,0.004-0.215
			c-0.002-0.248,0.047-0.494,0.022-0.742c0.002-0.104,0.012-0.209,0.003-0.313c-0.004-0.048-0.043-0.028-0.066,0
			c0-0.053,0-0.106,0-0.159c0.023,0.03,0.057,0.048,0.069,0.003c0.015-0.056,0.01-0.118,0.013-0.178
			c0.056-1.067,0.137-2.13,0.344-3.181c0.389-1.977,1.381-3.579,2.944-4.839c0.86-0.693,1.783-1.29,2.735-1.845
			c1.673-0.974,3.398-1.852,5.111-2.752c0.951-0.5,2.067-0.228,2.7,0.544c0.313,0.382,0.474,0.824,0.494,1.316
			c0.003,0.086,0.002,0.173,0.002,0.259c0,3.617,0.009,7.234-0.005,10.851c-0.005,1.314,0.587,2.244,1.724,2.841
			c3.251,1.706,6.508,3.4,9.762,5.099c6.239,3.257,12.478,6.514,18.718,9.769c0.489,0.255,0.925,0.57,1.254,1.019
			c0.381,0.52,0.571,1.1,0.57,1.745c-0.002,1.759-0.001,3.518-0.001,5.276c0,2.018-0.001,4.035,0,6.053
			c0.001,0.915-0.173,1.791-0.571,2.619c-0.56,1.165-1.389,2.083-2.536,2.689c-1.974,1.044-3.947,2.091-5.989,2.999
			c-0.988,0.439-1.996,0.825-3.052,1.07c-0.439,0.102-0.883,0.179-1.332,0.224c-0.027,0.003-0.052,0.004-0.061,0.036
			c-0.252,0-0.504,0-0.757,0c-0.026-0.089,0.04-0.065,0.084-0.069c0.119,0.043,0.237,0.054,0.353-0.008
			c0.12-0.012,0.24-0.024,0.361-0.036c0.014,0.019,0.026,0.017,0.038-0.002c0.107-0.013,0.214-0.025,0.32-0.038
			c0.015,0.02,0.027,0.016,0.038-0.004c0.06-0.003,0.12-0.007,0.18-0.01c0.038,0.005,0.074,0.007,0.098-0.031
			c0.777-0.145,1.534-0.363,2.277-0.633c0.692-0.252,1.37-0.538,2.037-0.85c1.833-0.857,3.636-1.777,5.41-2.75
			c1.469-0.806,2.399-2.06,2.835-3.677c0.125-0.462,0.182-0.937,0.183-1.416c0.001-3.836,0.008-7.673-0.004-11.509
			c-0.003-1.043-0.515-1.829-1.373-2.399c-0.288-0.191-0.605-0.332-0.91-0.492c-1.416-0.742-2.835-1.477-4.253-2.217
			c-1.535-0.8-3.069-1.602-4.604-2.403c-1.211-0.632-2.423-1.264-3.635-1.896c-1.511-0.789-3.022-1.578-4.533-2.367
			c-1.205-0.629-2.411-1.258-3.617-1.887c-1.517-0.792-3.034-1.584-4.551-2.376c-0.9-0.47-1.799-0.941-2.7-1.407
			c-0.596-0.309-1.095-0.722-1.441-1.305c-0.248-0.418-0.394-0.87-0.397-1.359c-0.005-1.022-0.003-2.044-0.003-3.066
			c0-2.735,0-5.469,0-8.204c0-0.499-0.126-0.958-0.44-1.354c-0.422-0.532-0.975-0.802-1.654-0.81
			c-0.352-0.004-0.683,0.079-0.995,0.242c-1.252,0.655-2.506,1.306-3.744,1.986c-0.884,0.486-1.761,0.983-2.606,1.533
			c-0.78,0.507-1.523,1.061-2.189,1.716c-1.065,1.047-1.756,2.3-2.105,3.748c-0.162,0.671-0.262,1.352-0.327,2.039
			c-0.071,0.76-0.101,1.521-0.126,2.283c-0.047,1.427-0.031,2.853-0.026,4.28c0.003,0.827,0.308,1.552,0.824,2.191
			c0.314,0.388,0.702,0.683,1.141,0.913c0.946,0.495,1.893,0.989,2.84,1.483c1.811,0.946,3.622,1.891,5.433,2.837
			c1.17,0.611,2.34,1.223,3.51,1.834c1.805,0.943,3.61,1.885,5.415,2.828c1.176,0.614,2.352,1.228,3.528,1.842
			c1.517,0.792,3.034,1.584,4.551,2.377c1.064,0.556,2.127,1.115,3.192,1.668c0.321,0.167,0.581,0.393,0.756,0.711
			c0.394,0.715,0.129,1.629-0.611,2.045c-0.545,0.306-1.123,0.358-1.703,0.105c-0.802-0.35-1.596-0.719-2.393-1.08
			c-1.377-0.624-2.755-1.247-4.132-1.872c-0.912-0.413-1.823-0.828-2.735-1.242c-1.371-0.622-2.742-1.242-4.113-1.864
			c-0.815-0.37-1.631-0.739-2.444-1.114c-0.459-0.211-0.934-0.341-1.444-0.303c-1.033,0.076-1.782,0.584-2.257,1.499
			c-0.196,0.378-0.27,0.789-0.272,1.211c-0.002,0.75-0.013,1.5,0.006,2.25c0.018,0.723,0.007,1.447,0.037,2.169
			c0.037,0.881,0.076,1.762,0.195,2.637c0.145,1.062,0.375,2.101,0.862,3.067c0.086,0.172,0.179,0.34,0.27,0.51
			c0.145,0.27,0.359,0.473,0.609,0.644c0.264,0.18,0.541,0.336,0.829,0.473c1.312,0.625,2.591,1.314,3.879,1.985
			c1.506,0.784,3.011,1.571,4.516,2.358c1.475,0.772,2.947,1.551,4.44,2.287c1.077,0.531,2.163,1.041,3.292,1.455
			c0.912,0.335,1.843,0.586,2.808,0.71c0.184,0.024,0.37,0.036,0.554,0.054c0.103,0.06,0.208,0.051,0.314,0.006
			c0.044,0,0.088-0.004,0.131,0.003c0.032,0.005,0.056,0.028,0.032,0.067c-0.199,0-0.398,0-0.597,0
			C31.281,63.802,31.171,63.82,31.062,63.824z"/>
		<path style="fill:#1D1F2B;" d="M32.776,0.18c0.877,0.068,1.728,0.261,2.563,0.533c1.212,0.395,2.372,0.918,3.515,1.478
			c2.107,1.032,4.176,2.138,6.257,3.22c1.717,0.893,3.43,1.792,5.146,2.687c0.466,0.243,0.912,0.514,1.311,0.86
			c0.541,0.468,0.934,1.045,1.251,1.68c0.401,0.802,0.639,1.654,0.792,2.532c0.171,0.983,0.236,1.975,0.275,2.97
			c0.062,1.565,0.039,3.132,0.05,4.698c0.007,0.933-0.629,1.64-1.425,1.823c-0.368,0.085-0.729,0.069-1.071-0.085
			c-0.549-0.248-1.091-0.513-1.634-0.775c-5.763-2.783-11.526-5.566-17.287-8.354c-0.405-0.196-0.816-0.266-1.254-0.169
			c-0.698,0.154-1.125,0.583-1.281,1.281c-0.03,0.02-0.033,0.053-0.04,0.084c-0.01-0.002-0.019-0.003-0.029-0.004
			c0.03-0.532,0.293-0.931,0.736-1.2c0.583-0.355,1.203-0.395,1.825-0.102c0.84,0.396,1.673,0.806,2.509,1.21
			c1.648,0.797,3.296,1.594,4.944,2.39c1.147,0.554,2.293,1.107,3.44,1.661c1.606,0.776,3.213,1.553,4.819,2.328
			c1.003,0.484,2.009,0.965,3.01,1.453c0.278,0.136,0.564,0.241,0.873,0.246c0.351,0.006,0.684-0.085,0.978-0.283
			c0.501-0.336,0.793-0.802,0.796-1.412c0.006-1.274,0.004-2.549-0.01-3.823c-0.007-0.616-0.036-1.233-0.076-1.848
			c-0.072-1.119-0.192-2.232-0.515-3.312c-0.267-0.891-0.652-1.725-1.253-2.444c-0.36-0.432-0.797-0.778-1.284-1.058
			c-0.719-0.413-1.463-0.78-2.197-1.165c-1.787-0.935-3.575-1.867-5.361-2.802c-1.481-0.775-2.959-1.555-4.465-2.281
			c-1.129-0.544-2.27-1.064-3.468-1.441c-0.888-0.28-1.794-0.462-2.727-0.512c-1.201-0.064-2.364,0.124-3.508,0.471
			c-0.941,0.286-1.845,0.667-2.737,1.075c-1.822,0.834-3.591,1.776-5.365,2.706C19.459,5.24,18.535,6.4,18.067,7.926
			c-0.139,0.452-0.212,0.918-0.217,1.39c-0.01,0.956-0.005,1.911-0.005,2.867c0,2.86,0.002,5.721-0.002,8.581
			c-0.001,0.853,0.32,1.56,0.928,2.144c0.216,0.208,0.467,0.371,0.733,0.51c0.893,0.468,1.787,0.934,2.68,1.401
			c1.834,0.958,3.669,1.915,5.503,2.873c1.176,0.614,2.352,1.228,3.527,1.842c1.493,0.78,2.986,1.56,4.48,2.34
			c1.17,0.611,2.34,1.223,3.51,1.834c1.805,0.943,3.61,1.885,5.415,2.828c1.146,0.599,2.293,1.198,3.439,1.797
			c0.325,0.17,0.633,0.365,0.892,0.627c0.595,0.601,0.921,1.313,0.92,2.173c-0.005,3.79-0.001,7.579-0.003,11.369
			c0,0.328,0.024,0.649,0.143,0.958c0.016,0.042,0.036,0.088,0.003,0.132c-0.09-0.02-0.078-0.108-0.102-0.166
			c-0.041-0.101-0.074-0.207-0.08-0.318c0.004-0.004,0.013-0.01,0.012-0.012c-0.004-0.009-0.011-0.018-0.016-0.027
			c-0.034-0.129-0.039-0.262-0.039-0.394c0-3.885-0.001-7.77-0.001-11.655c0-0.02,0.004-0.039,0.006-0.059
			c0.041-0.041,0.04-0.08-0.005-0.118c-0.145-1.125-0.763-1.907-1.752-2.424c-2.849-1.487-5.698-2.976-8.547-4.464
			c-6.637-3.468-13.274-6.937-19.913-10.402c-0.565-0.295-1.046-0.673-1.383-1.222c-0.289-0.47-0.43-0.979-0.429-1.53
			c0.002-1.195,0-2.389,0-3.584c0-2.542,0.002-5.084-0.001-7.626c-0.001-0.888,0.165-1.738,0.552-2.542
			c0.55-1.143,1.377-2.023,2.503-2.61c1.704-0.889,3.4-1.792,5.142-2.606c1.063-0.497,2.143-0.951,3.274-1.275
			c0.678-0.194,1.367-0.323,2.069-0.379c0.148,0,0.297,0.02,0.439-0.039c0.186,0,0.372,0,0.558,0
			C32.454,0.202,32.616,0.176,32.776,0.18z"/>
		<path style="fill:#1D1F2B;" d="M29.983,14.915c0.094,0.562,0.424,0.936,0.921,1.195c3.174,1.653,6.345,3.312,9.518,4.969
			c6.768,3.534,13.536,7.069,20.305,10.601c0.843,0.44,1.566,1.017,2.129,1.788c0.56,0.767,0.934,1.615,1.094,2.553
			c0.011,0.065,0.012,0.132,0.018,0.198c-0.008,0.084-0.02,0.168,0.034,0.243c0,0.027,0,0.053,0,0.08
			c-0.087,0.018-0.075-0.051-0.079-0.097c-0.028-0.304-0.082-0.604-0.159-0.899c-0.222-0.847-0.617-1.604-1.173-2.281
			c-0.531-0.646-1.181-1.136-1.921-1.52c-1.613-0.836-3.223-1.68-4.834-2.521c-1.176-0.614-2.352-1.228-3.528-1.842
			c-1.523-0.795-3.046-1.59-4.568-2.385c-1.117-0.583-2.233-1.168-3.35-1.751c-1.552-0.811-3.105-1.621-4.657-2.431
			c-1.105-0.577-2.21-1.156-3.315-1.733c-1.558-0.814-3.116-1.627-4.674-2.441c-0.353-0.184-0.708-0.364-1.053-0.562
			c-0.412-0.237-0.669-0.596-0.767-1.064c-0.009-0.045-0.006-0.092-0.009-0.138c0.01,0,0.021-0.001,0.031-0.003
			C29.957,14.886,29.97,14.9,29.983,14.915z"/>
		<path style="fill:#1D1F2B;" d="M63.62,45.135c-0.005,0.099-0.023,0.195-0.061,0.287c-0.023,0.019-0.029,0.043-0.018,0.072
			c0.007,0.032-0.007,0.06-0.021,0.088c-0.024,0.019-0.03,0.043-0.02,0.072c-0.025,0.168-0.074,0.329-0.138,0.486
			c-0.024,0.018-0.032,0.042-0.025,0.071c-0.005,0.016-0.01,0.032-0.014,0.048c-0.024,0.018-0.032,0.042-0.025,0.072
			c-0.054,0.219-0.148,0.423-0.239,0.628c-0.009,0.021-0.023,0.028-0.044,0.023c-0.045-0.069,0.001-0.127,0.026-0.185
			c0.326-0.774,0.518-1.583,0.639-2.411c0.083-0.57,0.138-1.142,0.171-1.718c0.035-0.608,0.068-1.216,0.074-1.826
			c0-0.046,0.004-0.093,0.014-0.137c0.007-0.029,0.034-0.036,0.062-0.021c0,0.04,0,0.08,0,0.119
			c-0.067,0.058-0.032,0.135-0.037,0.205c0.001,0.119,0.002,0.238,0.003,0.357c0,0.159,0.001,0.318,0.001,0.477
			c-0.004,0.106-0.008,0.211-0.013,0.317c-0.048,0.051-0.046,0.104-0.003,0.157c0.011,0.175-0.02,0.346-0.034,0.519
			c-0.047,0.037-0.046,0.077-0.006,0.118c0.009,0.135-0.021,0.267-0.035,0.4c-0.038,0.024-0.04,0.05-0.005,0.078
			c0.007,0.109-0.022,0.213-0.034,0.32c-0.038,0.023-0.041,0.049-0.006,0.078c0.006,0.082-0.018,0.161-0.032,0.24
			c-0.037,0.023-0.041,0.049-0.007,0.078c-0.012,0.08-0.024,0.16-0.036,0.241c-0.022,0.02-0.027,0.043-0.013,0.07
			c0.009,0.059-0.013,0.113-0.025,0.169c-0.005,0.003-0.015,0.007-0.014,0.01c0.002,0.01,0.006,0.019,0.01,0.029
			c0.006,0.07-0.022,0.134-0.037,0.2c-0.005,0.003-0.014,0.007-0.014,0.01c0.001,0.01,0.005,0.019,0.009,0.029
			c0.005,0.057-0.019,0.108-0.034,0.161C63.615,45.083,63.609,45.107,63.62,45.135z"/>
		<path style="fill:#666666;" d="M32.776,0.18c-0.16-0.004-0.322,0.022-0.477-0.04c0.159,0,0.319,0,0.478,0
			c-0.004,0.009-0.009,0.018-0.011,0.027C32.765,0.17,32.772,0.175,32.776,0.18z"/>
		<path style="fill:#B3B3B3;" d="M63.967,41.84c0-0.159-0.001-0.318-0.001-0.477l0.017-0.004l0.018,0c0,0.159,0,0.319,0,0.478
			C63.989,41.837,63.978,41.838,63.967,41.84z"/>
		<path style="fill:#666666;" d="M31.741,0.139c-0.142,0.059-0.292,0.04-0.439,0.039c0.004-0.009,0.009-0.017,0.011-0.026
			c0.001-0.004-0.006-0.009-0.009-0.013C31.449,0.139,31.595,0.139,31.741,0.139z"/>
		<path style="fill:#666666;" d="M64,41.359l-0.018,0l-0.017,0.004c-0.001-0.119-0.002-0.238-0.003-0.357
			c0.012-0.004,0.025-0.006,0.037-0.006C64,41.12,64,41.24,64,41.359z"/>
		<path style="fill:#A2A2A2;" d="M31.062,63.824c0.109-0.004,0.219-0.022,0.321,0.037c-0.106,0-0.212,0-0.319,0
			C31.072,63.848,31.071,63.836,31.062,63.824z"/>
		<path style="fill:#A2A2A2;" d="M64,36.46c-0.054-0.075-0.041-0.159-0.034-0.243c0.011,0.003,0.022,0.004,0.034,0.004
			C64,36.301,64,36.381,64,36.46z"/>
		<path style="fill:#21222D;" d="M64,41.001c-0.013,0-0.025,0.002-0.037,0.006c0.006-0.07-0.03-0.147,0.037-0.205
			C64,40.868,64,40.934,64,41.001z"/>
		<path style="fill:#212233;" d="M32.576,63.784c-0.117,0.061-0.235,0.051-0.353,0.008C32.341,63.789,32.459,63.786,32.576,63.784z"
			/>
		<path style="fill:#212233;" d="M31.817,63.791c-0.106,0.045-0.21,0.054-0.314-0.006C31.608,63.787,31.713,63.789,31.817,63.791z"
			/>
		<path style="fill:#212233;" d="M33.612,63.663c-0.024,0.038-0.061,0.036-0.098,0.031C33.54,63.663,33.576,63.66,33.612,63.663z"/>
		<path style="fill:#212233;" d="M33.334,63.704c-0.011,0.02-0.023,0.024-0.038,0.004C33.308,63.702,33.321,63.701,33.334,63.704z"
			/>
		<path style="fill:#212233;" d="M32.975,63.745c-0.011,0.019-0.024,0.022-0.038,0.002C32.949,63.743,32.962,63.742,32.975,63.745z"
			/>
		<path style="fill:#1D1F2B;" d="M51.464,54.758c-0.033,0.009-0.061-0.006-0.089-0.019c-0.019-0.024-0.043-0.03-0.072-0.02
			c-0.205-0.032-0.38-0.136-0.554-0.24c-0.018-0.011-0.025-0.027-0.018-0.048c0.082-0.042,0.136,0.026,0.196,0.057
			c0.586,0.301,1.179,0.337,1.783,0.053c0.056-0.026,0.114-0.074,0.183-0.03c-0.04,0.096-0.142,0.098-0.218,0.133
			c-0.134,0.063-0.275,0.112-0.426,0.127c-0.016-0.018-0.028-0.014-0.038,0.005c-0.212,0.04-0.425,0.067-0.638,0.003
			C51.543,54.74,51.505,54.741,51.464,54.758z"/>
		<path style="fill:#1D1F2B;" d="M54.251,53.795c0.02,0.034-0.008,0.044-0.029,0.055c-0.167,0.088-0.334,0.175-0.501,0.262
			c-0.022,0.012-0.045,0.026-0.067,0c-0.019-0.027-0.011-0.051,0.015-0.065c0.169-0.089,0.339-0.176,0.509-0.263
			C54.202,53.772,54.228,53.777,54.251,53.795z"/>
		<path style="fill:#1D1F2B;" d="M53.494,54.193c0.019,0.034-0.009,0.044-0.03,0.055c-0.166,0.087-0.333,0.173-0.499,0.259
			c-0.022,0.011-0.045,0.026-0.069,0.003c-0.019-0.028-0.008-0.051,0.016-0.065c0.171-0.098,0.344-0.193,0.528-0.265
			C53.454,54.175,53.476,54.189,53.494,54.193z"/>
		<path style="fill:#1D1F2B;" d="M55.007,53.397c0.002,0.006,0.007,0.017,0.006,0.018c-0.165,0.106-0.324,0.224-0.524,0.259
			c-0.012-0.017-0.019-0.039-0.001-0.05c0.154-0.097,0.309-0.191,0.485-0.243C54.982,53.378,54.996,53.391,55.007,53.397z"/>
		<path style="fill:#1D1F2B;" d="M61.581,49.094c0.004,0.011,0.015,0.029,0.012,0.032c-0.133,0.127-0.226,0.299-0.411,0.368
			c-0.016-0.026-0.012-0.05,0.008-0.07c0.106-0.107,0.213-0.213,0.321-0.319C61.53,49.084,61.555,49.079,61.581,49.094z"/>
		<path style="fill:#1D1F2B;" d="M55.605,53.078c0.023,0.047-0.022,0.055-0.045,0.064c-0.134,0.052-0.237,0.174-0.393,0.174
			c-0.003-0.006-0.01-0.015-0.009-0.017C55.28,53.171,55.421,53.081,55.605,53.078z"/>
		<path style="fill:#1D1F2B;" d="M56.202,52.759c0.002,0.079-0.073,0.081-0.115,0.099c-0.108,0.046-0.19,0.153-0.322,0.139
			c-0.003-0.006-0.01-0.015-0.009-0.017C55.878,52.853,56.018,52.762,56.202,52.759z"/>
		<path style="fill:#1D1F2B;" d="M63.015,46.981c0.004,0.162-0.106,0.278-0.17,0.413c-0.014-0.011-0.042-0.026-0.04-0.033
			C62.84,47.215,62.878,47.07,63.015,46.981z"/>
		<path style="fill:#1D1F2B;" d="M56.639,52.52c-0.092,0.115-0.211,0.18-0.357,0.198c-0.003-0.006-0.01-0.015-0.008-0.017
			C56.369,52.589,56.482,52.511,56.639,52.52z"/>
		<path style="fill:#1D1F2B;" d="M50.53,54.273c-0.112-0.022-0.182-0.086-0.201-0.201C50.456,54.11,50.495,54.149,50.53,54.273z"/>
		<path style="fill:#1D1F2B;" d="M60.979,49.691c-0.039,0.086-0.096,0.149-0.196,0.16C60.816,49.722,60.848,49.696,60.979,49.691z"
			/>
		<path d="M29.944,14.871c-0.01,0.002-0.021,0.003-0.031,0.003c0-0.079,0-0.158,0-0.237c0.01,0.001,0.019,0.002,0.029,0.004
			c0,0,0.015,0.005,0.015,0.005l0.015-0.006c0.001,0.078,0.002,0.155,0.003,0.233C29.965,14.866,29.955,14.865,29.944,14.871z"/>
		<path style="fill:#1D1F2B;" d="M62.735,47.54c0.009,0.096-0.032,0.161-0.119,0.199C62.602,47.641,62.613,47.557,62.735,47.54z"/>
		<path style="fill:#1D1F2B;" d="M56.919,52.361c-0.038,0.087-0.106,0.124-0.2,0.118C56.736,52.355,56.822,52.348,56.919,52.361z"/>
		<path style="fill:#1D1F2B;" d="M57.277,52.162c-0.039,0.086-0.107,0.123-0.2,0.118C57.094,52.156,57.179,52.148,57.277,52.162z"/>
		<path style="fill:#1D1F2B;" d="M57.556,52.002c-0.039,0.086-0.105,0.126-0.2,0.119C57.374,51.999,57.458,51.988,57.556,52.002z"/>
		<path style="fill:#1D1F2B;" d="M57.835,51.843c-0.04,0.084-0.105,0.126-0.199,0.119C57.653,51.841,57.735,51.827,57.835,51.843z"
			/>
		<path style="fill:#1D1F2B;" d="M58.311,51.564c-0.039,0.084-0.105,0.125-0.198,0.119C58.145,51.58,58.184,51.557,58.311,51.564z"
			/>
		<path style="fill:#1D1F2B;" d="M58.51,51.445c-0.04,0.083-0.104,0.126-0.198,0.12C58.33,51.444,58.41,51.427,58.51,51.445z"/>
		<path style="fill:#1D1F2B;" d="M60.342,50.209c-0.023,0.079-0.075,0.119-0.158,0.119C60.199,50.22,60.227,50.199,60.342,50.209z"
			/>
		<path style="fill:#1D1F2B;" d="M59.906,50.529c-0.018,0.087-0.078,0.117-0.159,0.118C59.76,50.541,59.787,50.521,59.906,50.529z"
			/>
		<path style="fill:#1D1F2B;" d="M61.939,48.695c0.006,0.088-0.053,0.126-0.121,0.156C61.806,48.74,61.826,48.713,61.939,48.695z"/>
		<path style="fill:#1D1F2B;" d="M59.626,50.728c-0.01,0.071-0.05,0.097-0.118,0.08C59.501,50.712,59.548,50.697,59.626,50.728z"/>
		<path style="fill:#1D1F2B;" d="M62.575,47.818c0.011,0.064-0.004,0.112-0.079,0.119C62.467,47.861,62.483,47.815,62.575,47.818z"
			/>
		<path style="fill:#1D1F2B;" d="M62.496,47.938c0.016,0.068-0.006,0.111-0.08,0.119C62.391,47.983,62.401,47.932,62.496,47.938z"/>
		<path style="fill:#1D1F2B;" d="M62.417,48.057c0.017,0.069-0.006,0.111-0.08,0.119C62.312,48.102,62.322,48.051,62.417,48.057z"/>
		<path style="fill:#1D1F2B;" d="M50.171,53.872c-0.073-0.009-0.095-0.051-0.08-0.119C50.187,53.746,50.195,53.798,50.171,53.872z"
			/>
		<path style="fill:#1D1F2B;" d="M62.218,48.336c0.021,0.072-0.016,0.105-0.081,0.118C62.107,48.375,62.128,48.332,62.218,48.336z"
			/>
		<path style="fill:#1D1F2B;" d="M60.024,50.449c-0.011,0.068-0.048,0.099-0.118,0.08C59.899,50.434,59.946,50.419,60.024,50.449z"
			/>
		<path style="fill:#1D1F2B;" d="M60.183,50.329c-0.01,0.07-0.046,0.102-0.118,0.081C60.06,50.318,60.105,50.3,60.183,50.329z"/>
		<path style="fill:#1D1F2B;" d="M59.745,50.648c-0.011,0.069-0.05,0.095-0.118,0.08C59.62,50.633,59.666,50.615,59.745,50.648z"/>
		<path style="fill:#1D1F2B;" d="M58.035,51.724c-0.006,0.079-0.054,0.092-0.121,0.078C57.908,51.704,57.962,51.7,58.035,51.724z"/>
		<path style="fill:#1D1F2B;" d="M58.632,51.365c-0.006,0.079-0.052,0.095-0.12,0.079C58.505,51.346,58.56,51.343,58.632,51.365z"/>
		<path style="fill:#1D1F2B;" d="M50.251,53.99c-0.072-0.009-0.097-0.05-0.081-0.119C50.264,53.866,50.275,53.917,50.251,53.99z"/>
		<path style="fill:#1D1F2B;" d="M58.83,51.245c-0.007,0.076-0.055,0.09-0.12,0.079C58.704,51.227,58.756,51.219,58.83,51.245z"/>
		<path style="fill:#1D1F2B;" d="M58.963,51.196c-0.042,0.023-0.07,0.082-0.133,0.05C58.856,51.141,58.883,51.131,58.963,51.196z"/>
		<path style="fill:#1D1F2B;" d="M59.507,50.808c-0.007,0.075-0.05,0.096-0.119,0.08C59.381,50.791,59.432,50.781,59.507,50.808z"/>
		<path style="fill:#1D1F2B;" d="M59.268,50.967c-0.009,0.073-0.052,0.093-0.119,0.079C59.142,50.95,59.192,50.938,59.268,50.967z"
			/>
		<path style="fill:#1D1F2B;" d="M59.388,50.887c-0.008,0.075-0.052,0.094-0.119,0.079C59.261,50.87,59.312,50.859,59.388,50.887z"
			/>
		<path style="fill:#1D1F2B;" d="M62.098,48.496c0.019,0.071-0.023,0.1-0.082,0.117C61.986,48.533,62.008,48.49,62.098,48.496z"/>
		<path style="fill:#1D1F2B;" d="M60.699,49.93c-0.017,0.058-0.044,0.102-0.116,0.082C60.578,49.922,60.618,49.896,60.699,49.93z"/>
		<path style="fill:#1D1F2B;" d="M59.148,51.046c-0.011,0.069-0.056,0.088-0.119,0.079C59.025,51.033,59.071,51.016,59.148,51.046z"
			/>
		<path style="fill:#1D1F2B;" d="M60.501,50.089c-0.015,0.062-0.046,0.1-0.117,0.081C60.378,50.079,60.421,50.058,60.501,50.089z"/>
		<path style="fill:#1D1F2B;" d="M50.731,54.43c-0.065,0.012-0.104-0.016-0.118-0.08C50.687,54.326,50.738,54.335,50.731,54.43z"/>
		<path style="fill:#1D1F2B;" d="M62.337,48.177c0.014,0.067-0.016,0.104-0.08,0.118C62.228,48.218,62.242,48.17,62.337,48.177z"/>
		<path style="fill:#1D1F2B;" d="M56.996,52.321c-0.003,0.059-0.029,0.074-0.079,0.041C56.918,52.299,56.949,52.294,56.996,52.321z"
			/>
		<path style="fill:#1D1F2B;" d="M56.717,52.48c-0.005,0.054-0.03,0.071-0.079,0.041C56.638,52.455,56.668,52.45,56.717,52.48z"/>
		<path style="fill:#1D1F2B;" d="M62.617,47.738c0.031,0.05,0.013,0.074-0.041,0.078C62.544,47.766,62.554,47.738,62.617,47.738z"/>
		<path style="fill:#1D1F2B;" d="M58.708,51.325c-0.004,0.056-0.028,0.074-0.079,0.041C58.631,51.304,58.659,51.295,58.708,51.325z"
			/>
		<path style="fill:#1D1F2B;" d="M56.279,52.72c-0.004,0.057-0.029,0.073-0.079,0.04C56.2,52.695,56.231,52.69,56.279,52.72z"/>
		<path style="fill:#1D1F2B;" d="M50.091,53.75c-0.056-0.005-0.072-0.03-0.041-0.079C50.115,53.671,50.118,53.703,50.091,53.75z"/>
		<path style="fill:#1D1F2B;" d="M55.682,53.039c-0.003,0.06-0.029,0.074-0.079,0.04C55.603,53.014,55.635,53.01,55.682,53.039z"/>
		<path style="fill:#1D1F2B;" d="M55.164,53.317c-0.004,0.056-0.03,0.071-0.079,0.04C55.084,53.291,55.116,53.287,55.164,53.317z"/>
		<path style="fill:#1D1F2B;" d="M55.085,53.357c-0.003,0.058-0.029,0.073-0.079,0.04C55.006,53.332,55.037,53.328,55.085,53.357z"
			/>
		<path style="fill:#1D1F2B;" d="M50.051,53.671c-0.058-0.004-0.072-0.03-0.04-0.08C50.076,53.592,50.077,53.625,50.051,53.671z"/>
		<path style="fill:#1D1F2B;" d="M54.487,53.675c-0.005,0.055-0.03,0.07-0.079,0.04C54.407,53.648,54.438,53.645,54.487,53.675z"/>
		<path style="fill:#1D1F2B;" d="M54.408,53.715c-0.004,0.057-0.029,0.072-0.079,0.04C54.328,53.69,54.359,53.686,54.408,53.715z"/>
		<path style="fill:#1D1F2B;" d="M54.328,53.756c-0.003,0.059-0.029,0.074-0.079,0.04C54.249,53.731,54.281,53.727,54.328,53.756z"
			/>
		<path style="fill:#1D1F2B;" d="M55.762,52.998c-0.004,0.057-0.029,0.072-0.079,0.04C55.682,52.973,55.713,52.969,55.762,52.998z"
			/>
		<path style="fill:#1D1F2B;" d="M53.651,54.114c-0.004,0.056-0.03,0.072-0.079,0.04C53.571,54.087,53.602,54.084,53.651,54.114z"/>
		<path style="fill:#1D1F2B;" d="M53.571,54.154c-0.003,0.058-0.029,0.073-0.079,0.04C53.492,54.128,53.524,54.125,53.571,54.154z"
			/>
		<path style="fill:#1D1F2B;" d="M58.111,51.684c-0.003,0.057-0.028,0.074-0.079,0.041C58.033,51.663,58.063,51.655,58.111,51.684z"
			/>
		<path style="fill:#1D1F2B;" d="M57.912,51.803c-0.005,0.055-0.029,0.072-0.079,0.041C57.833,51.78,57.863,51.773,57.912,51.803z"
			/>
		<path style="fill:#1D1F2B;" d="M57.633,51.962c-0.004,0.057-0.029,0.074-0.079,0.041C57.555,51.94,57.585,51.934,57.633,51.962z"
			/>
		<path style="fill:#1D1F2B;" d="M62.776,47.459c0.033,0.05,0.018,0.076-0.04,0.079C62.706,47.489,62.712,47.459,62.776,47.459z"/>
		<path style="fill:#1D1F2B;" d="M57.355,52.122c-0.004,0.056-0.029,0.073-0.079,0.041C57.276,52.099,57.306,52.093,57.355,52.122z"
			/>
		<path style="fill:#1D1F2B;" d="M57.075,52.281c-0.005,0.054-0.03,0.071-0.079,0.041C56.996,52.256,57.027,52.251,57.075,52.281z"
			/>
		<path style="fill:#1D1F2B;" d="M60.065,50.409c0.01,0.036-0.003,0.049-0.039,0.038C60.008,50.402,60.029,50.398,60.065,50.409z"/>
		<path style="fill:#1D1F2B;" d="M60.741,49.889c0.012,0.04-0.005,0.049-0.04,0.039C60.683,49.883,60.702,49.875,60.741,49.889z"/>
		<path style="fill:#1D1F2B;" d="M60.782,49.851c0.011,0.037-0.002,0.05-0.04,0.038C60.725,49.845,60.743,49.838,60.782,49.851z"/>
		<path style="fill:#1D1F2B;" d="M61.06,49.611c0.011,0.038-0.002,0.051-0.04,0.039C61.004,49.606,61.021,49.597,61.06,49.611z"/>
		<path style="fill:#1D1F2B;" d="M61.1,49.572c0.011,0.037-0.002,0.05-0.039,0.039C61.045,49.568,61.061,49.559,61.1,49.572z"/>
		<path style="fill:#1D1F2B;" d="M61.14,49.532c0.01,0.036-0.003,0.049-0.039,0.038C61.086,49.53,61.103,49.521,61.14,49.532z"/>
		<path style="fill:#1D1F2B;" d="M61.18,49.493c0.01,0.036-0.003,0.048-0.039,0.038C61.129,49.493,61.142,49.48,61.18,49.493z"/>
		<path style="fill:#1D1F2B;" d="M60.383,50.17c0.01,0.037-0.003,0.05-0.04,0.038C60.326,50.163,60.347,50.158,60.383,50.17z"/>
		<path style="fill:#1D1F2B;" d="M59.029,51.123c0.015,0.043-0.021,0.045-0.045,0.056C58.965,51.133,58.98,51.114,59.029,51.123z"/>
		<path style="fill:#1D1F2B;" d="M61.618,49.054c0.01,0.036-0.002,0.049-0.038,0.039C61.568,49.056,61.58,49.042,61.618,49.054z"/>
		<path style="fill:#1D1F2B;" d="M61.658,49.014c0.011,0.036-0.002,0.049-0.039,0.039C61.608,49.016,61.618,49.001,61.658,49.014z"
			/>
		<path style="fill:#1D1F2B;" d="M61.02,49.65c0.012,0.039-0.004,0.049-0.04,0.039C60.963,49.645,60.979,49.635,61.02,49.65z"/>
		<path style="fill:#1D1F2B;" d="M61.777,48.893c0.011,0.037,0,0.052-0.039,0.04C61.724,48.894,61.733,48.877,61.777,48.893z"/>
		<path style="fill:#1D1F2B;" d="M61.697,48.974c0.011,0.037-0.002,0.05-0.039,0.039C61.646,48.975,61.657,48.96,61.697,48.974z"/>
		<path style="fill:#1D1F2B;" d="M61.737,48.933c0.012,0.038-0.001,0.051-0.039,0.04C61.685,48.935,61.695,48.918,61.737,48.933z"/>
		<path style="fill:#1D1F2B;" d="M61.816,48.852c0.009,0.034,0,0.052-0.039,0.04C61.762,48.852,61.771,48.835,61.816,48.852z"/>
		<path style="fill:#1D1F2B;" d="M61.976,48.655c0.012,0.037-0.001,0.05-0.038,0.04C61.926,48.658,61.933,48.639,61.976,48.655z"/>
		<path style="fill:#1D1F2B;" d="M62.135,48.455c0.012,0.037-0.001,0.05-0.038,0.04C62.086,48.459,62.091,48.439,62.135,48.455z"/>
		<path style="fill:#1D1F2B;" d="M62.255,48.296c0.012,0.037-0.001,0.05-0.038,0.04C62.206,48.301,62.21,48.279,62.255,48.296z"/>
		<path style="fill:#1D1F2B;" d="M50.292,54.031c-0.038,0.011-0.051-0.002-0.039-0.04C50.294,53.977,50.303,53.995,50.292,54.031z"
			/>
		<path style="fill:#1D1F2B;" d="M60.542,50.049c0.011,0.038-0.003,0.05-0.04,0.038C60.485,50.043,60.504,50.036,60.542,50.049z"/>
		<path style="fill:#1D1F2B;" d="M62.015,48.614c0.01,0.035,0.001,0.053-0.039,0.041C61.963,48.616,61.97,48.597,62.015,48.614z"/>
		<path style="fill:#1D1F2B;" d="M62.82,47.443c-0.008,0.024-0.023,0.03-0.045,0.017c-0.011-0.017-0.013-0.038,0.004-0.045
			C62.787,47.411,62.806,47.433,62.82,47.443z"/>
		<path style="fill:#1D1F2B;" d="M50.57,54.31c-0.036,0.011-0.049-0.002-0.039-0.038C50.567,54.261,50.583,54.271,50.57,54.31z"/>
		<path style="fill:#1D1F2B;" d="M50.612,54.349c-0.038,0.013-0.051,0-0.041-0.039C50.607,54.3,50.625,54.308,50.612,54.349z"/>
		<path style="fill:#1D1F2B;" d="M60.583,50.011c0.01,0.036-0.003,0.049-0.039,0.038C60.527,50.005,60.546,49.999,60.583,50.011z"/>
		<path style="fill:#1D1F2B;" d="M50.331,54.071c-0.036,0.01-0.049-0.003-0.038-0.039C50.331,54.019,50.341,54.035,50.331,54.071z"
			/>
		<path style="fill:#21222D;" d="M63.951,42.314c-0.043-0.053-0.045-0.106,0.003-0.157C63.953,42.209,63.952,42.261,63.951,42.314z"
			/>
		<path style="fill:#21222D;" d="M63.911,42.951c-0.04-0.041-0.041-0.081,0.006-0.118C63.926,42.873,63.924,42.912,63.911,42.951z"
			/>
		<path style="fill:#21222D;" d="M49.786,40.842c0.045,0.037,0.046,0.077,0.005,0.118C49.79,40.92,49.788,40.881,49.786,40.842z"/>
		<path style="fill:#21222D;" d="M63.872,43.429c-0.035-0.028-0.033-0.054,0.005-0.078C63.875,43.377,63.873,43.403,63.872,43.429z"
			/>
		<path style="fill:#21222D;" d="M63.831,43.827c-0.034-0.029-0.031-0.055,0.006-0.078C63.835,43.775,63.833,43.801,63.831,43.827z"
			/>
		<path style="fill:#21222D;" d="M51.464,54.758c0.041-0.016,0.079-0.017,0.11,0.021C51.535,54.784,51.497,54.786,51.464,54.758z"/>
		<path style="fill:#21222D;" d="M63.792,44.146c-0.033-0.029-0.03-0.055,0.007-0.078C63.796,44.094,63.794,44.12,63.792,44.146z"/>
		<path style="fill:#21222D;" d="M63.62,45.135c-0.011-0.028-0.005-0.052,0.017-0.071C63.642,45.09,63.64,45.114,63.62,45.135z"/>
		<path style="fill:#21222D;" d="M63.297,46.329c-0.007-0.029,0.001-0.053,0.025-0.072C63.326,46.285,63.321,46.311,63.297,46.329z"
			/>
		<path style="fill:#21222D;" d="M63.671,44.903c-0.003-0.01-0.007-0.019-0.009-0.029c0-0.003,0.009-0.006,0.014-0.01
			C63.675,44.877,63.673,44.89,63.671,44.903z"/>
		<path style="fill:#21222D;" d="M63.713,44.664c-0.004-0.01-0.008-0.019-0.01-0.029c0-0.003,0.009-0.007,0.014-0.01
			C63.716,44.638,63.715,44.651,63.713,44.664z"/>
		<path style="fill:#21222D;" d="M49.826,53.068c0.006,0.009,0.012,0.017,0.016,0.027c0.001,0.002-0.008,0.008-0.012,0.012
			C49.829,53.094,49.827,53.081,49.826,53.068z"/>
		<path style="fill:#21222D;" d="M52.212,54.775c0.01-0.019,0.023-0.024,0.038-0.005C52.237,54.772,52.225,54.774,52.212,54.775z"/>
		<path style="fill:#21222D;" d="M63.5,45.653c-0.01-0.029-0.004-0.053,0.02-0.072C63.524,45.608,63.521,45.633,63.5,45.653z"/>
		<path style="fill:#21222D;" d="M63.743,44.457c-0.014-0.027-0.008-0.05,0.013-0.07C63.762,44.412,63.761,44.436,63.743,44.457z"/>
		<path style="fill:#21222D;" d="M63.337,46.21c-0.007-0.029,0.001-0.053,0.025-0.071C63.365,46.166,63.36,46.191,63.337,46.21z"/>
		<path style="fill:#21222D;" d="M63.541,45.493c-0.011-0.028-0.005-0.052,0.018-0.072C63.564,45.448,63.561,45.473,63.541,45.493z"
			/>
		<path style="fill:#21222D;" d="M51.303,54.719c0.029-0.011,0.053-0.004,0.072,0.02C51.348,54.743,51.323,54.74,51.303,54.719z"/>
		<path style="fill:#323442;" d="M29.973,14.639l-0.015,0.006c0,0-0.015-0.005-0.015-0.005c0.007-0.031,0.01-0.064,0.04-0.084
			C29.989,14.585,29.989,14.613,29.973,14.639z"/>
		<path style="fill:#323442;" d="M29.944,14.871c0.011-0.006,0.021-0.006,0.032,0.001c0.002,0.014,0.005,0.029,0.007,0.043
			C29.97,14.9,29.957,14.886,29.944,14.871z"/>
	</g>
</g>
</svg>
