<?xml version="1.0" encoding="utf-8"?>
<!-- Generator: Adobe Illustrator 22.0.0, SVG Export Plug-In . SVG Version: 6.00 Build 0)  -->
<svg version="1.1" id="Camada_1" xmlns="http://www.w3.org/2000/svg" xmlns:xlink="http://www.w3.org/1999/xlink" x="0px" y="0px"
	 width="64px" height="64px" viewBox="0 0 64 64" style="enable-background:new 0 0 64 64;" xml:space="preserve">
<g>
	<g>
		<path style="fill:#FBC83B;" d="M26.963,33.917c-2.529,0.29-5.057,0.58-7.586,0.871c-0.01-0.023-0.02-0.046-0.029-0.069
			c0.453-0.399,0.904-0.8,1.359-1.197c2.694-2.355,5.389-4.709,8.084-7.063c1.859-1.624,3.72-3.247,5.577-4.874
			c0.128-0.112,0.261-0.17,0.43-0.202c2.506-0.479,5.01-0.968,7.515-1.452c3.464-0.67,6.928-1.336,10.391-2.006
			c2.611-0.505,5.221-1.014,7.831-1.522c1.044-0.203,2.088-0.408,3.132-0.608c0.105-0.02,0.215-0.013,0.333,0.024
			c-0.705,0.221-1.409,0.444-2.115,0.662c-4.762,1.472-9.524,2.943-14.285,4.416c-1.432,0.443-2.86,0.897-4.296,1.324
			c-0.366,0.109-0.665,0.293-0.949,0.536c-3.537,3.026-7.078,6.047-10.618,9.069c-0.106,0.09-0.208,0.184-0.286,0.356
			c5.345-0.77,10.689-1.539,16.034-2.309c0.006,0.021,0.013,0.043,0.019,0.064C33.721,36.031,19.939,42.123,6.157,48.216
			c-0.013-0.028-0.027-0.056-0.04-0.084c6.958-4.718,13.915-9.436,20.873-14.154C26.981,33.957,26.972,33.937,26.963,33.917z"/>
		<path style="fill:#FFFFFF;" d="M11.559,37.839c0.411,0.067,0.81-0.048,1.211-0.093c1.447-0.162,2.892-0.343,4.369-0.458
			c-5.286,3.627-10.572,7.254-15.859,10.881c-0.016-0.016-0.032-0.032-0.048-0.049c2.585-3.321,5.171-6.642,7.807-10.03
			c-1.217,0.066-2.377,0.129-3.632,0.197c3.842-3.758,7.633-7.466,11.424-11.174c-0.005-0.026-0.01-0.052-0.015-0.077
			c-5.603,0.279-11.206,0.558-16.809,0.837c-0.003-0.02-0.005-0.04-0.008-0.06c9.633-1.8,19.265-3.599,28.896-5.399
			c0.043,0.148-0.064,0.177-0.122,0.228c-5.287,4.661-10.578,9.319-15.864,13.981c-0.454,0.4-0.936,0.77-1.344,1.222
			c-0.015,0.01-0.029,0.019-0.044,0.029c0.013,0.003,0.026,0.007,0.039,0.01C11.561,37.869,11.56,37.854,11.559,37.839z"/>
		<path style="fill:#FEFEFE;" d="M11.559,37.839c0.001,0.015,0.002,0.03,0.004,0.045c-0.013-0.003-0.026-0.007-0.039-0.01
			c0.015-0.01,0.029-0.019,0.044-0.029C11.567,37.845,11.559,37.839,11.559,37.839z"/>
	</g>
</g>
</svg>
