<?xml version="1.0" encoding="utf-8"?>
<!-- Generator: Adobe Illustrator 22.0.0, SVG Export Plug-In . SVG Version: 6.00 Build 0)  -->
<svg version="1.1" id="Camada_1" xmlns="http://www.w3.org/2000/svg" xmlns:xlink="http://www.w3.org/1999/xlink" x="0px" y="0px"
	 width="64px" height="64px" viewBox="0 0 64 64" enable-background="new 0 0 64 64" xml:space="preserve">
<g>
	<g>
		<path fill="#010101" d="M1.733,20.178c0-0.017,0-0.034,0-0.052c0.096,0.007,0.099-0.08,0.126-0.134
			c0.513-1.007,1.116-1.958,1.783-2.869c0.056-0.076,0.121-0.147,0.125-0.249c0.062,0.006,0.091-0.04,0.122-0.08
			c0.284-0.368,0.559-0.745,0.878-1.083c0.225-0.238,0.339-0.487,0.237-0.811C4.996,14.876,5,14.848,5,14.823
			c-0.011-0.689-0.021-1.377-0.047-2.066c-0.026-0.663,0.017-1.325,0.026-1.988c0.01-0.758,0.051-1.515,0.078-2.272
			c0.01-0.3,0.028-0.601,0.051-0.902C5.15,7.013,5.207,6.431,5.252,5.848c0.022-0.289,0.016-0.29,0.287-0.382
			c0.033-0.011,0.065-0.023,0.098-0.034c1.97-0.652,3.973-1.185,5.992-1.656c1.591-0.371,3.192-0.69,4.8-0.979
			c0.204-0.037,0.204-0.038,0.167-0.245c-0.051-0.281-0.076-0.561-0.012-0.845c0.022-0.099,0.079-0.193,0.056-0.301
			c0.026-0.022,0.062-0.039,0.078-0.067c0.271-0.467,0.708-0.694,1.205-0.819c0.867-0.218,1.74-0.198,2.614-0.031
			c0.404,0.077,0.799,0.219,1.22,0.193c0.034,0.159,0.183,0.107,0.274,0.129c0.72,0.17,1.446,0.311,2.164,0.487
			c0.448,0.11,0.896,0.159,1.354,0.156c1.206-0.008,2.413,0.023,3.618-0.048c0.524-0.031,1.05-0.016,1.575-0.049
			c0.722-0.044,1.447-0.01,2.17-0.052c0.317-0.019,0.637,0.02,0.954,0.021c0.965,0.005,1.929,0.027,2.895-0.018
			c0.808-0.038,1.615-0.077,2.42-0.165C40,1.055,40.814,0.919,41.626,0.772c0.052-0.009,0.106-0.014,0.101-0.088
			c0.292,0.012,0.583-0.013,0.875-0.029c0.197-0.011,0.395-0.023,0.592-0.017c0.938,0.031,1.858,0.185,2.766,0.425
			c0.539,0.143,1.057,0.354,1.603,0.469c0.034,0.099,0.132,0.097,0.208,0.127c1.245,0.49,2.442,1.076,3.584,1.774
			c0.337,0.206,0.667,0.407,1.068,0.495c1.049,0.229,2.08,0.533,3.15,0.671c1.007,0.13,1.998,0.35,2.974,0.629
			c0.33,0.094,0.657,0.202,0.985,0.304c0.077,0.036,0.154,0.075,0.232,0.108c0.421,0.175,0.829,0.375,1.208,0.632
			c0.488,0.332,0.817,0.776,0.99,1.341c0.154,0.504,0.24,1.019,0.267,1.544c-0.001,0.117-0.001,0.234-0.002,0.351
			c-0.019,0.335-0.021,0.671,0.001,1.006c0,0.134,0,0.268,0,0.402c-0.035,0.775-0.161,1.536-0.324,2.293
			c-0.313,1.454-0.986,2.703-2.095,3.706c-0.051,0.046-0.103,0.091-0.134,0.154c-0.046,0.001-0.08,0.027-0.113,0.056
			c-0.369,0.326-0.771,0.607-1.194,0.86c-0.089,0.053-0.134,0.113-0.145,0.221c-0.04,0.41-0.1,0.819-0.139,1.229
			c-0.069,0.728-0.172,1.451-0.28,2.173c-0.153,1.02-0.339,2.034-0.544,3.046c-0.423,2.085-0.953,4.141-1.601,6.167
			c-0.076,0.238-0.165,0.475-0.208,0.719c-0.092,0.521-0.258,1.016-0.443,1.508c-0.143,0.38-0.363,0.724-0.511,1.101
			c-0.56,1.428-1.157,2.839-1.822,4.221c-0.441,0.916-0.897,1.825-1.385,2.718c-0.475,0.87-0.965,1.73-1.484,2.574
			c-0.064,0.104-0.123,0.169-0.258,0.167c-0.543-0.01-1.086-0.008-1.629-0.011c0.029-0.053,0.054-0.108,0.086-0.158
			c0.892-1.403,1.722-2.843,2.484-4.32c0.308-0.596,0.621-1.19,0.884-1.808c0.016-0.017,0.035-0.04,0.013-0.057
			c-0.025-0.019-0.037,0.005-0.041,0.029c-0.076,0-0.123,0.057-0.18,0.093c-0.661,0.424-1.349,0.797-2.066,1.116
			c-0.156,0.07-0.309,0.149-0.487,0.194c-0.056-0.294-0.037-0.586-0.071-0.9c-0.351,0.123-0.687,0.241-1.024,0.359
			c-0.03-0.08,0.003-0.135,0.014-0.192c0.076-0.394-0.039-0.665-0.383-0.876c-0.308-0.189-0.654-0.262-1.005-0.307
			c-0.869-0.111-1.739-0.067-2.606,0.014c-1.279,0.12-2.545,0.329-3.803,0.585c-0.369,0.075-0.738,0.153-1.157,0.24
			c0.256-0.406,0.487-0.773,0.739-1.173c-0.314,0.016-0.581,0.017-0.846,0.044c-1.071,0.11-2.092,0.409-3.079,0.834
			c-1.474,0.634-2.811,1.494-4.078,2.47c-1.472,1.134-2.813,2.41-4.088,3.759c-0.104,0.081-0.227,0.062-0.346,0.062
			c-3.49,0-6.979,0-10.469,0c-0.103,0-0.207-0.005-0.31-0.007c-0.34-0.286-0.68-0.571-1.02-0.857
			c-0.011-0.046-0.049-0.083-0.085-0.062c-0.044,0.026-0.008,0.072,0.014,0.104c0.013,0.019,0.035,0.031,0.053,0.047
			c0.147,0.237,0.293,0.473,0.44,0.71c-0.025,0.058-0.076,0.064-0.129,0.064c-0.5,0.001-1,0-1.5,0.002
			c-0.086,0-0.148-0.027-0.19-0.105c-0.032-0.061-0.074-0.117-0.109-0.175c-0.983-1.623-1.884-3.29-2.708-4.998
			c-0.064-0.133-0.141-0.257-0.229-0.374c-0.907-1.209-1.703-2.489-2.405-3.825c-0.775-1.474-1.443-2.995-1.906-4.599
			c-0.009-0.031-0.032-0.058-0.067-0.118c-0.067,0.105-0.195,0.133-0.18,0.275c-0.096,0.012-0.114,0.098-0.147,0.164
			c-0.094,0.184-0.162,0.379-0.22,0.578c-0.238,0.823-0.331,1.67-0.402,2.52c-0.094,1.125-0.124,2.253-0.115,3.382
			c0,0.062,0.018,0.13-0.026,0.202c-0.032-0.043-0.056-0.068-0.072-0.097c-0.121-0.208-0.247-0.414-0.359-0.627
			c-1.047-1.989-1.537-4.133-1.762-6.35c-0.112-1.107-0.132-2.217-0.113-3.329c0.02-1.138,0.11-2.27,0.252-3.399
			c0.074-0.589,0.162-1.176,0.276-1.759c0.024-0.123,0.013-0.202-0.117-0.266c-0.478-0.236-0.949-0.487-1.423-0.732
			C1.813,20.173,1.777,20.145,1.733,20.178z M46.537,20.745c0.026-0.003,0.031-0.009,0.016-0.018
			c-0.004,0.007-0.008,0.014-0.013,0.021c-0.019,0.016-0.038,0.031-0.057,0.047c-0.058,0.036-0.12,0.068-0.173,0.11
			c-0.471,0.379-0.904,0.796-1.285,1.267c-0.951,1.175-1.409,2.506-1.28,4.025c0.015,0.172,0.057,0.338,0.089,0.506
			c0.021,0.109,0.077,0.162,0.176,0.195c0.171,0.057,0.338,0.128,0.51,0.181c0.094,0.029,0.201,0.13,0.286,0.055
			c0.079-0.069,0.026-0.197,0.007-0.295c-0.124-0.649-0.118-1.303-0.017-1.949c0.195-1.248,0.666-2.396,1.334-3.467
			c0.126-0.202,0.298-0.379,0.363-0.618C46.524,20.796,46.539,20.776,46.537,20.745z M53.214,5.328
			C54.314,5.425,55.4,5.6,56.456,5.934c0.428,0.135,0.856,0.284,1.221,0.545c0.242,0.173,0.48,0.226,0.766,0.202
			c0.424-0.036,0.85-0.045,1.304-0.067c-0.101-0.11-0.207-0.148-0.304-0.196c-1.073-0.535-2.213-0.853-3.393-1.039
			c-0.94-0.148-1.886-0.177-2.836-0.151c-0.137-0.021-0.271-0.021-0.403,0.039C52.938,5.352,53.075,5.345,53.214,5.328z
			 M58.805,16.827c0.805-0.618,1.381-1.415,1.803-2.327c0.661-1.427,0.95-2.943,1.042-4.502c0.007-0.114,0.045-0.234-0.005-0.371
			c-0.389,0.155-0.734,0.363-1.092,0.546c-0.132,0.068-0.163,0.144-0.136,0.284c0.139,0.718,0.133,1.442,0.021,2.161
			c-0.236,1.517-0.835,2.887-1.716,4.139c-0.071,0.051-0.135,0.106-0.125,0.216C58.696,16.944,58.764,16.905,58.805,16.827z
			 M46.426,18.252c0.756-0.371,1.536-0.404,2.336-0.168c0.578,0.171,0.907,0.563,1.039,1.14c0.035,0.152,0.052,0.305,0.06,0.46
			c0.029,0.601-0.075,1.184-0.239,1.758c-0.015,0.052-0.043,0.102-0.012,0.175c0.888-0.624,1.418-1.434,1.502-2.523
			c0.071,0.168,0.142,0.336,0.217,0.511c0.175-0.1,0.285-0.254,0.46-0.328c0.083,0.108,0.167,0.206,0.24,0.313
			c0.067,0.099,0.125,0.087,0.207,0.017c0.094-0.08,0.181-0.173,0.316-0.235c0.283,0.773,0.185,1.541,0.108,2.303
			c0.078,0.014,0.123-0.011,0.171-0.032c0.34-0.147,0.615-0.379,0.855-0.655c0.528-0.608,0.872-1.318,1.139-2.07
			c0.012-0.035,0.053-0.074,0.006-0.114c-1.052,0.336-1.826,0.171-2.721-0.16c-0.428-0.159-0.837-0.363-1.244-0.568
			c-0.538-0.27-1.064-0.567-1.634-0.768c-0.553-0.195-1.1-0.171-1.64,0.047c-0.447,0.18-0.824,0.463-1.162,0.801
			c-0.049,0.017-0.102,0.042-0.083,0.102C46.356,18.293,46.4,18.281,46.426,18.252z M43.068,34.455c0.069,0.042,0.134,0,0.196-0.017
			c0.456-0.129,0.915-0.243,1.384-0.315c0.366-0.057,0.732-0.117,1.104-0.046c0.217,0.042,0.382,0.131,0.392,0.414
			c0.459-0.589,1.056-0.908,1.689-1.171c0.872-0.362,1.787-0.567,2.714-0.723c0.492-0.083,0.991-0.131,1.474-0.263
			c0.502-0.137,0.983-0.319,1.391-0.655c0.472-0.39,0.686-0.892,0.646-1.504c-0.027-0.412-0.176-0.784-0.34-1.157
			c-0.167-0.382-0.458-0.555-0.853-0.616c-0.535-0.083-1.067-0.047-1.596,0.032c-1.24,0.185-2.437,0.53-3.611,0.964
			c-0.121,0.045-0.246,0.077-0.373,0.099c-0.651,0.113-1.265,0.012-1.857-0.28c-1.487-0.732-2.877-1.629-4.269-2.521
			c-0.1-0.064-0.14-0.145-0.151-0.252c-0.024-0.24-0.054-0.479-0.073-0.72c-0.117-1.481-0.014-2.944,0.379-4.38
			c0.729-2.66,2.309-4.62,4.813-5.815c0.497-0.237,1.024-0.355,1.565-0.414c0.987-0.108,1.961-0.004,2.922,0.227
			c1.163,0.279,2.256,0.735,3.308,1.298c0.403,0.216,0.819,0.403,1.264,0.514c1.17,0.293,2.143-0.02,2.909-0.955
			c0.098-0.12,0.192-0.245,0.274-0.376c0.703-1.129,1.045-2.379,1.149-3.688c0.066-0.824-0.114-1.63-0.425-2.398
			c-0.415-1.024-1.113-1.77-2.166-2.155c-0.267-0.098-0.531-0.202-0.801-0.289c-1.829-0.59-3.702-1.009-5.583-1.395
			c-1.907-0.392-3.824-0.728-5.757-0.96c-0.736-0.088-1.474-0.161-2.217-0.127c-0.052,0.002-0.116,0.039-0.167-0.033
			c0.021-0.037,0.04-0.074,0.063-0.109c0.562-0.855,1.52-1.238,2.543-1.022c0.678,0.143,1.278,0.454,1.843,0.842
			c0.111,0.077,0.221,0.111,0.359,0.106c0.939-0.037,1.877-0.066,2.816-0.1c0.05-0.002,0.12,0.036,0.152-0.042
			c-0.035-0.056-0.094-0.078-0.144-0.109c-0.555-0.351-1.144-0.636-1.754-0.874c-2.672-1.042-5.424-1.22-8.233-0.75
			c-1.811,0.303-3.538,0.877-5.205,1.64c-0.302,0.138-0.601,0.285-0.929,0.441c0.102-0.485,0.291-0.916,0.381-1.396
			c-2.698,0.143-5.362,0.284-8.017,0.424c-0.03,0.09,0.017,0.14,0.041,0.192c0.184,0.399,0.38,0.791,0.605,1.169
			c0.265,0.446,0.551,0.875,0.946,1.219c-0.003,0.026-0.005,0.052-0.008,0.078c-0.098-0.033-0.198-0.06-0.293-0.098
			c-1.372-0.549-2.44-1.47-3.254-2.692c-0.095-0.143-0.202-0.208-0.37-0.232c-0.733-0.104-1.464-0.222-2.196-0.334
			c-0.457-0.07-0.913-0.138-1.385-0.21c-0.012,0.099,0.005,0.172,0.022,0.247c0.09,0.386,0.203,0.766,0.346,1.135
			c0.654,1.676,1.676,3.062,3.209,4.036c1.558,0.99,3.288,1.324,5.106,1.303c0.208-0.002,0.417-0.033,0.647,0.004
			c-0.189,0.321-0.364,0.616-0.504,0.93c-0.328,0.734-0.535,1.49-0.458,2.304c-0.029,0.001-0.057,0.001-0.086,0.002
			c-0.219-0.505-0.442-1.009-0.655-1.517c-0.056-0.134-0.114-0.2-0.28-0.182c-0.89,0.099-1.773,0.015-2.647-0.162
			c-1.797-0.364-3.349-1.184-4.628-2.508c-0.251-0.26-0.477-0.542-0.719-0.83c-0.422,0.286-0.832,0.568-1.247,0.845
			C18.371,8.59,18.4,8.674,18.41,8.756c0.043,0.324,0.086,0.649,0.136,0.972c0.213,1.372,0.517,2.723,0.997,4.029
			c0.334,0.909,0.745,1.779,1.378,2.527c0.02,0.024,0.01,0.045-0.01,0.075c-0.055-0.003-0.115-0.005-0.174-0.012
			c-0.051-0.006-0.102-0.016-0.153-0.026c-0.966-0.19-1.784-0.665-2.505-1.32c-0.89-0.808-1.515-1.801-2.009-2.885
			c-0.185-0.406-0.337-0.825-0.49-1.241c-0.067,0.002-0.103,0.042-0.144,0.073c-0.499,0.383-0.991,0.776-1.459,1.197
			c-0.289,0.26-0.568,0.527-0.812,0.831c-0.147,0.183-0.189,0.379-0.135,0.604c0.056,0.235,0.126,0.465,0.214,0.69
			c0.356,0.911,0.831,1.759,1.372,2.57c1.284,1.923,2.829,3.58,4.857,4.742c-0.021,0.022-0.043,0.044-0.064,0.066
			c-1.992-0.684-3.906-1.541-5.722-2.61c-1.282-0.754-2.485-1.613-3.531-2.679c-0.023-0.023-0.048-0.051-0.093-0.018
			c-0.029,0.538-0.008,1.079,0.065,1.617c0.218,1.603,0.73,3.111,1.459,4.551c0.923,1.822,2.144,3.428,3.557,4.895
			c0.04,0.041,0.069,0.101,0.138,0.107l0.001,0.001c-0.074,0.058-0.15,0.021-0.222-0.001c-1.766-0.549-3.467-1.246-5.042-2.226
			c-0.942-0.586-1.807-1.266-2.481-2.163c-0.015-0.02-0.029-0.044-0.078-0.031c0.009,0.078,0.014,0.16,0.03,0.24
			c0.204,1.004,0.436,2.002,0.709,2.989c0.629,2.279,1.401,4.504,2.474,6.616c0.73,1.435,1.579,2.789,2.71,3.949
			c0.71,0.728,1.507,1.338,2.451,1.738c0.076,0.032,0.148,0.089,0.266,0.067c0-0.177-0.002-0.355,0-0.533
			c0.016-1.606,0.123-3.203,0.431-4.782c0.135-0.695,0.315-1.377,0.624-2.018c0.154-0.321,0.343-0.618,0.613-0.856
			c0.041-0.036,0.075-0.101,0.158-0.067c-0.033,0.349-0.074,0.7-0.098,1.052c-0.096,1.406-0.066,2.808,0.149,4.203
			c0.155,1.008,0.407,1.99,0.831,2.922c0.427,0.939,1.006,1.765,1.824,2.408c0.085,0.067,0.174,0.128,0.314,0.23
			c-0.143-1.526-0.28-2.985-0.422-4.496c0.173,0.144,0.311,0.258,0.448,0.373c0.145,0.122,0.29,0.245,0.435,0.367
			c0.139,0.116,0.274,0.237,0.417,0.347c0.143,0.11,0.258,0.263,0.454,0.337c-0.036-0.533-0.043-1.041-0.006-1.549
			c0.031-0.422,0.09-0.84,0.258-1.233c0.067-0.157,0.145-0.309,0.309-0.426c0.037,0.245,0.065,0.466,0.104,0.686
			c0.137,0.784,0.353,1.544,0.725,2.253c0.242,0.463,0.544,0.88,0.958,1.205c0.173,0.136,0.353,0.262,0.575,0.334
			c0.014-0.092-0.035-0.146-0.061-0.206c-0.116-0.269-0.222-0.541-0.304-0.823c-0.433-1.479-0.204-2.828,0.796-4.023
			c0.295-0.352,0.632-0.659,0.997-0.936c0.817-0.62,1.725-1.068,2.68-1.43c0.51-0.193,1.031-0.351,1.561-0.487
			c-0.028-0.076-0.087-0.073-0.133-0.091c-0.589-0.222-1.164-0.474-1.723-0.763c-1.093-0.565-2.114-1.232-2.98-2.116
			c-0.585-0.597-1.061-1.267-1.345-2.062c-0.018-0.05-0.062-0.1-0.008-0.17c0.418,0.381,0.843,0.746,1.29,1.083
			c1.409,1.062,2.87,2.021,4.706,2.311c-0.225,0.183-0.425,0.345-0.671,0.545c0.111-0.01,0.154-0.01,0.196-0.018
			c1.197-0.234,2.408-0.306,3.626-0.314c1.676-0.01,3.341,0.118,4.996,0.38c0.962,0.152,1.914,0.352,2.84,0.661
			c0.549,0.183,1.083,0.396,1.561,0.733c0.311,0.219,0.475,0.523,0.512,0.889c0.064,0.64-0.115,1.209-0.544,1.696
			c-0.042,0.048-0.122,0.071-0.118,0.154c-0.014,0.005-0.028,0.009-0.043,0.014c0.01,0.006,0.021,0.018,0.03,0.017
			C43.081,34.489,43.083,34.474,43.068,34.455z M48.404,22.915c-0.011-0.1,0.025-0.152,0.045-0.208
			c0.135-0.391,0.258-0.785,0.339-1.191c0.059-0.296,0.112-0.595,0.065-0.898c-0.065-0.421-0.315-0.572-0.722-0.448
			c-0.195,0.059-0.355,0.172-0.501,0.309c-0.345,0.325-0.58,0.725-0.781,1.147c-0.412,0.861-0.668,1.77-0.83,2.708
			c-0.144,0.836-0.22,1.675-0.102,2.521c0.05,0.36,0.135,0.712,0.353,1.015c0.275,0.382,0.656,0.464,1.064,0.234
			c0.198-0.111,0.361-0.264,0.513-0.43c0.274-0.301,0.501-0.636,0.707-0.986c0.474-0.803,0.855-1.65,1.196-2.517
			c0.037-0.094,0.054-0.198,0.139-0.289c0.88,0.62,1.364,1.449,1.354,2.589c0.247-0.276,0.457-0.511,0.668-0.747
			c0.207-0.232,0.411-0.466,0.619-0.695c0.21-0.231,0.408-0.475,0.65-0.711c0.112,0.433,0.209,0.824,0.316,1.213
			c0.109,0.398,0.237,0.792,0.338,1.192c0.103,0.409,0.257,0.775,0.616,1.035c0.139,0.1,0.24,0.253,0.381,0.406
			c0.817-3.065,1.37-6.136,1.676-9.274c-0.199,0.063-0.367,0.129-0.542,0.169c-0.143,0.033-0.211,0.103-0.25,0.248
			c-0.15,0.563-0.406,1.079-0.74,1.555c-0.767,1.092-1.785,1.88-2.978,2.456c-0.022,0.011-0.047,0.017-0.09-0.023
			c-0.064-0.358-0.13-0.739-0.2-1.119c-0.07-0.384-0.142-0.768-0.222-1.2c-0.393,0.535-0.878,0.887-1.403,1.189
			C49.554,22.469,49,22.717,48.404,22.915z M6.659,13.632c0.084-0.076,0.129-0.114,0.171-0.156c0.761-0.751,1.553-1.469,2.372-2.156
			c2.476-2.076,5.121-3.908,7.936-5.496c0.185-0.104,0.187-0.105,0.146-0.296c-0.057-0.261-0.115-0.521-0.176-0.781
			c-0.043-0.186-0.045-0.186-0.228-0.154c-2.161,0.375-4.303,0.842-6.427,1.393C9.337,6.275,8.23,6.592,7.13,6.938
			C7.021,6.972,6.909,6.981,6.895,7.154c-0.079,1.004-0.148,2.009-0.187,3.015c-0.011,0.284-0.02,0.568-0.031,0.852
			C6.646,11.872,6.648,12.723,6.659,13.632z M50.885,27.308c-0.025-0.456-0.08-0.863-0.223-1.25
			c-0.142-0.384-0.324-0.747-0.62-1.078c-0.355,1.378-1.124,2.473-2.011,3.507c1.716-0.851,3.53-1.134,5.436-0.968
			c-0.186-0.736-0.363-1.438-0.549-2.174C52.264,26.047,51.612,26.687,50.885,27.308z M43.204,4.498
			c1.115-0.036,2.144,0.165,3.18,0.333c-0.526-0.431-1.096-0.769-1.784-0.845C44.08,3.927,43.617,4.062,43.204,4.498z"/>
		<path fill="#58585A" d="M31.534,64c-3.315-2.031-6.281-4.503-9.076-7.19c-0.13-0.125-0.258-0.168-0.433-0.168
			c-5.422,0.004-10.844,0.004-16.266,0.002c-0.411,0-0.353,0.054-0.353-0.358c-0.002-4.069,0-8.137,0-12.206
			c0-0.052,0-0.103,0.002-0.155c0.002-0.062,0.035-0.094,0.098-0.094c0.069-0.001,0.138-0.001,0.207-0.001
			c1.707,0,3.413,0.003,5.12-0.002c0.419-0.001,0.821,0.073,1.214,0.212c0.038,0.013,0.08,0.051,0.117,0.01
			c0.037-0.041,0.038-0.097,0.016-0.146c-0.025-0.054-0.059-0.105-0.09-0.157c-2.53-4.255-4.515-8.749-5.932-13.493
			c-0.034-0.114-0.094-0.223-0.078-0.349c-0.015-0.142,0.114-0.17,0.18-0.275c0.035,0.06,0.058,0.087,0.067,0.118
			c0.464,1.604,1.131,3.125,1.906,4.599c0.703,1.336,1.499,2.616,2.405,3.825c0.088,0.117,0.164,0.241,0.229,0.374
			c0.825,1.708,1.726,3.375,2.708,4.998c0.036,0.059,0.077,0.115,0.109,0.175c0.042,0.078,0.103,0.106,0.19,0.105
			c0.5-0.002,1-0.001,1.5-0.002c0.053,0,0.104-0.005,0.129-0.064c0.059,0.07,0.139,0.082,0.224,0.078
			c0.125-0.007,0.249-0.013,0.374-0.02c0.103,0.003,0.207,0.007,0.31,0.007c3.49,0,6.979,0,10.469,0
			c0.119,0,0.241,0.019,0.346-0.062c0.078,0.128,0.203,0.062,0.303,0.062c6.694,0.003,13.387,0.003,20.081,0.003
			c0.103,0,0.206-0.007,0.31-0.01c0.543,0.003,1.086,0.001,1.629,0.011c0.135,0.002,0.194-0.063,0.258-0.167
			c0.519-0.844,1.009-1.705,1.484-2.574c0.487-0.893,0.944-1.802,1.385-2.718c0.665-1.382,1.262-2.794,1.822-4.221
			c0.148-0.377,0.368-0.721,0.511-1.101c0.185-0.492,0.351-0.988,0.443-1.508c0.043-0.244,0.132-0.481,0.208-0.719
			c0.648-2.026,1.178-4.082,1.601-6.167c0.205-1.011,0.391-2.026,0.544-3.046c0.108-0.722,0.212-1.446,0.28-2.173
			c0.039-0.41,0.098-0.819,0.139-1.229c0.011-0.109,0.056-0.168,0.145-0.221c0.422-0.252,0.824-0.533,1.194-0.86
			c0.033-0.029,0.067-0.054,0.113-0.056c0.032,0.346-0.031,0.688-0.061,1.03c-0.089,0.995-0.201,1.988-0.336,2.979
			c-0.23,1.699-0.53,3.386-0.903,5.059c-1.01,4.525-2.524,8.875-4.547,13.047c-0.756,1.559-1.577,3.084-2.466,4.571
			c-0.04,0.067-0.079,0.134-0.118,0.201c-0.025,0.044-0.073,0.091-0.034,0.139c0.045,0.055,0.112,0.076,0.185,0.046
			c0.048-0.019,0.095-0.04,0.143-0.059c0.422-0.164,0.859-0.252,1.312-0.253c1.302-0.002,2.604-0.001,3.906,0
			c0.247,0,0.246,0.001,0.291,0.244c0.32,1.718,0.64,3.436,0.96,5.154c0.006,0.034,0.011,0.068,0.018,0.102
			c0.023,0.107-0.008,0.162-0.129,0.159c-0.093-0.002-0.189-0.018-0.278,0.02c-0.009,0.017-0.026,0.032-0.023,0.044
			c0.1,0.46,0.076,0.926,0.077,1.391c0.001,0.828-0.002,1.655,0.001,2.483c0.002,0.356-0.041,0.706-0.139,1.047
			c-0.348,1.208-1.164,1.893-2.383,2.13c-0.324,0.063-0.652,0.064-0.978,0.065c-4.233,0.002-8.467,0.002-12.7-0.005
			c-0.226,0-0.382,0.07-0.541,0.223c-2.411,2.328-4.976,4.469-7.767,6.331c-0.4,0.267-0.809,0.521-1.214,0.782
			C31.81,64,31.672,64,31.534,64z M26.716,56.708c-0.091-0.057-0.191-0.062-0.295-0.062c-0.612,0.002-1.223,0-1.835,0.002
			c-0.073,0-0.152-0.02-0.214,0.023c-0.023,0.051,0.005,0.077,0.03,0.098c0.404,0.362,0.807,0.724,1.213,1.084
			c1.089,0.966,2.218,1.882,3.381,2.757c0.805,0.606,1.631,1.182,2.469,1.741c0.189,0.126,0.327,0.133,0.525,0.003
			c1.107-0.731,2.179-1.51,3.227-2.323c1.239-0.96,2.425-1.982,3.589-3.031c0.092-0.083,0.195-0.159,0.269-0.29
			c-0.804,0-1.577,0-2.35,0c-0.092-0.072-0.199-0.038-0.299-0.038c-1.904-0.002-3.808-0.001-5.712-0.001
			c-0.56,0-1.121,0.02-1.68-0.006c-0.732-0.034-1.463-0.006-2.195-0.019C26.789,56.645,26.731,56.638,26.716,56.708z M54.474,48.486
			c0.042,0,0.084,0,0.127,0c0.681-0.003,1.362-0.004,2.043-0.008c0.188-0.001,0.198-0.016,0.166-0.189
			c-0.035-0.195-0.073-0.389-0.109-0.583c-0.163-0.879-0.328-1.758-0.488-2.637c-0.044-0.243-0.042-0.25-0.295-0.25
			c-0.983-0.001-1.966-0.007-2.949,0.002c-0.542,0.005-1.063,0.105-1.504,0.455c-0.089,0.071-0.164,0.067-0.254-0.003
			c-0.143-0.111-0.3-0.199-0.47-0.267c-0.367-0.145-0.751-0.187-1.139-0.187c-3.647-0.003-7.294-0.002-10.942-0.001
			c-0.439,0-0.879-0.019-1.311,0.088c-0.04,0.01-0.103,0.017-0.124-0.005c-0.122-0.126-0.275-0.082-0.415-0.082
			c-2.319-0.002-4.639-0.002-6.958-0.002c-0.069,0-0.138,0.004-0.207,0c-0.125-0.007-0.19,0.056-0.221,0.171
			c-0.033,0.125-0.071,0.248-0.106,0.372c-0.269,0.961-0.538,1.922-0.805,2.884c-0.062,0.223-0.054,0.23,0.181,0.232
			c0.345,0.002,0.69-0.001,1.035,0.001c0.202,0.002,0.202,0.005,0.208,0.2c0.002,0.06,0,0.121,0,0.181c0,2.147,0,4.294,0,6.441
			c0,0.069,0.004,0.138-0.001,0.207c-0.009,0.126,0.052,0.171,0.17,0.162c0.051-0.004,0.103,0,0.155,0c2.199,0,4.397,0,6.596,0
			c0.06,0,0.121,0.001,0.181-0.001c0.051-0.001,0.112,0.005,0.13-0.058c0.039-0.134,0.121-0.079,0.204-0.059
			c0.301,0.075,0.606,0.119,0.919,0.119c5.346-0.002,10.692-0.002,16.037-0.001c0.216,0,0.43-0.013,0.642-0.054
			c0.623-0.121,1.13-0.41,1.431-0.994c0.206-0.4,0.275-0.83,0.275-1.275c0-0.966,0-1.931,0.001-2.897
			c0-0.181-0.009-0.36-0.049-0.539c-0.156-0.692-0.559-1.145-1.254-1.334C55.079,48.497,54.777,48.538,54.474,48.486z
			 M12.808,46.086c-0.035-0.026-0.044-0.03-0.048-0.037c-0.013-0.022-0.026-0.045-0.036-0.068c-0.252-0.577-0.688-0.934-1.299-1.08
			c-0.235-0.056-0.474-0.082-0.716-0.082c-1.319-0.001-2.638,0-3.957,0c-0.354,0-0.354,0-0.354,0.35c0,3.371,0,6.741,0,10.112
			c0,0.06,0.004,0.121,0,0.181c-0.009,0.123,0.048,0.174,0.168,0.165c0.06-0.004,0.121,0,0.181,0c1.612,0,3.224,0,4.835,0
			c3.759,0,7.517,0,11.276,0c1.991,0,3.983,0,5.974-0.001c0.099,0,0.204,0.026,0.303-0.034c-0.01-0.057-0.018-0.107-0.029-0.157
			c-0.354-1.612-0.707-3.225-1.065-4.836c-0.088-0.396-0.147-0.772-0.028-1.188c0.348-1.215,0.651-2.443,0.971-3.667
			c0.067-0.258,0.127-0.518,0.196-0.776c0.024-0.09-0.007-0.132-0.091-0.144c-0.042-0.006-0.086-0.005-0.129-0.005
			c-2.198,0-4.396,0-6.595,0.001c-0.059,0-0.155-0.009-0.172,0.022c-0.108,0.188-0.252,0.087-0.383,0.059
			c-0.237-0.051-0.476-0.079-0.716-0.08c-1.319-0.003-2.638-0.002-3.957-0.001c-0.29,0-0.291,0.002-0.292,0.282
			c-0.001,0.262,0,0.524,0,0.787c-0.085-0.258-0.127-0.519-0.176-0.779c-0.049-0.258-0.052-0.258-0.311-0.258
			c-0.802-0.001-1.603,0-2.405,0c-0.233,0-0.466-0.002-0.698,0.001c-0.205,0.003-0.207,0.007-0.24,0.217
			c-0.019,0.119-0.032,0.239-0.062,0.355C12.896,45.635,12.898,45.862,12.808,46.086z"/>
		<path fill="#58585A" d="M33.087,0.042c0.404,0.018,0.808,0.039,1.212,0.052c1.653,0.051,3.303,0.153,4.95,0.308
			c0.763,0.072,1.525,0.149,2.288,0.224c0.066,0.007,0.14-0.007,0.19,0.057c0.004,0.073-0.05,0.078-0.101,0.088
			C40.814,0.919,40,1.055,39.179,1.145c-0.805,0.088-1.611,0.127-2.42,0.165c-0.965,0.045-1.93,0.023-2.895,0.018
			c-0.317-0.002-0.637-0.04-0.954-0.021c-0.723,0.043-1.448,0.008-2.17,0.052c-0.525,0.032-1.051,0.018-1.575,0.049
			c-1.206,0.07-2.412,0.039-3.618,0.048c-0.459,0.003-0.907-0.046-1.354-0.156c-0.718-0.177-1.445-0.317-2.164-0.487
			c-0.091-0.021-0.239,0.03-0.274-0.129c0.196-0.104,0.416-0.08,0.624-0.103c1.086-0.123,2.175-0.224,3.265-0.3
			c0.962-0.067,1.925-0.113,2.887-0.169c0.068-0.004,0.139-0.002,0.204-0.02c0.057-0.016,0.047-0.058,0.004-0.09
			c0.138,0,0.276,0,0.414,0c-0.074,0.093,0.005,0.092,0.061,0.09c0.29-0.012,0.58-0.029,0.87-0.043
			c0.104,0.012,0.207,0.017,0.31-0.006c0.393,0,0.786-0.001,1.179,0C32.079,0.041,32.583,0.042,33.087,0.042z"/>
		<path fill="#FAFAFA" d="M33.087,0.042c-0.504-0.001-1.008-0.001-1.512-0.002c-0.393,0-0.786,0-1.179,0c0-0.014,0-0.027,0-0.041
			c0.897,0,1.794,0,2.69,0C33.087,0.014,33.087,0.028,33.087,0.042z"/>
		<path fill="#FFFFFF" d="M30.086,0.046c-0.29,0.015-0.58,0.031-0.87,0.043C29.159,0.092,29.08,0.093,29.154,0
			c0.31,0,0.621,0,0.931,0C30.086,0.015,30.086,0.031,30.086,0.046z"/>
		<path fill="#58585A" d="M62.227,10.515c-0.022-0.335-0.02-0.671-0.001-1.006c0.018-0.01,0.031-0.006,0.041,0.011
			c0,0.328,0,0.655,0,0.983C62.258,10.521,62.244,10.525,62.227,10.515z"/>
		<path fill="#FAFAFA" d="M62.227,10.515c0.017,0.01,0.031,0.006,0.04-0.012c0,0.138,0,0.276,0,0.414l-0.02,0.001l-0.02-0.001
			C62.227,10.783,62.227,10.649,62.227,10.515z"/>
		<path fill="#FAFAFA" d="M62.267,9.52c-0.01-0.018-0.024-0.022-0.041-0.011c0.001-0.117,0.001-0.234,0.002-0.351
			c0.013-0.001,0.026-0.001,0.04,0C62.267,9.278,62.267,9.399,62.267,9.52z"/>
		<path fill="#FEFEFE" d="M30.086,0.046c0-0.015,0-0.031,0-0.046c0.103,0,0.207,0,0.31,0c-0.001,0.014-0.001,0.027,0,0.041
			C30.293,0.064,30.189,0.059,30.086,0.046z"/>
		<path fill="#FEFEFE" d="M28.729,12.878c-0.076-0.814,0.131-1.57,0.458-2.304c0.14-0.314,0.315-0.609,0.504-0.93
			c-0.23-0.036-0.439-0.006-0.647-0.004c-1.818,0.021-3.548-0.313-5.106-1.303c-1.533-0.974-2.555-2.36-3.209-4.036
			c-0.144-0.369-0.257-0.749-0.346-1.135c-0.017-0.075-0.034-0.148-0.022-0.247c0.472,0.071,0.928,0.14,1.385,0.21
			c0.732,0.112,1.463,0.23,2.196,0.334c0.168,0.024,0.275,0.089,0.37,0.232c0.814,1.222,1.882,2.142,3.254,2.692
			c0.096,0.038,0.196,0.066,0.293,0.098c0.054,0.056,0.123,0.05,0.216,0.069c-0.078-0.076-0.133-0.127-0.208-0.147
			c-0.395-0.345-0.682-0.774-0.946-1.219c-0.225-0.378-0.421-0.77-0.605-1.169c-0.024-0.052-0.071-0.101-0.041-0.192
			c2.656-0.141,5.32-0.281,8.017-0.424c-0.09,0.481-0.279,0.911-0.381,1.396c0.328-0.156,0.626-0.303,0.929-0.441
			c1.667-0.763,3.394-1.338,5.205-1.64c2.809-0.469,5.561-0.291,8.233,0.75c0.611,0.238,1.2,0.522,1.754,0.874
			c0.05,0.032,0.109,0.053,0.144,0.109c-0.032,0.079-0.102,0.041-0.152,0.042c-0.939,0.035-1.877,0.063-2.816,0.1
			c-0.138,0.005-0.247-0.029-0.359-0.106c-0.565-0.388-1.165-0.699-1.843-0.842c-1.024-0.216-1.981,0.167-2.543,1.022
			c-0.023,0.035-0.042,0.072-0.063,0.109c0.051,0.072,0.115,0.035,0.167,0.033c0.744-0.033,1.482,0.039,2.217,0.127
			c1.933,0.232,3.85,0.568,5.757,0.96c1.881,0.386,3.753,0.805,5.583,1.395c0.27,0.087,0.535,0.192,0.801,0.289
			c1.053,0.385,1.752,1.131,2.166,2.155c0.311,0.768,0.491,1.574,0.425,2.398c-0.104,1.309-0.447,2.559-1.149,3.688
			c-0.082,0.131-0.176,0.256-0.274,0.376c-0.767,0.935-1.739,1.247-2.909,0.955c-0.446-0.111-0.861-0.298-1.264-0.514
			c-1.051-0.564-2.145-1.02-3.308-1.298c-0.962-0.231-1.935-0.334-2.922-0.227c-0.541,0.059-1.069,0.177-1.565,0.414
			c-2.504,1.195-4.083,3.154-4.813,5.815c-0.394,1.436-0.496,2.899-0.379,4.38c0.019,0.24,0.049,0.48,0.073,0.72
			c0.011,0.108,0.051,0.188,0.151,0.252c1.392,0.892,2.782,1.788,4.269,2.521c0.592,0.291,1.206,0.393,1.857,0.28
			c0.128-0.022,0.252-0.054,0.373-0.099c1.173-0.435,2.371-0.78,3.611-0.964c0.53-0.079,1.061-0.115,1.596-0.032
			c0.395,0.061,0.686,0.234,0.853,0.616c0.163,0.373,0.313,0.745,0.34,1.157c0.04,0.611-0.173,1.114-0.646,1.504
			c-0.408,0.337-0.889,0.519-1.391,0.655c-0.483,0.132-0.982,0.18-1.474,0.263c-0.927,0.156-1.842,0.361-2.714,0.723
			c-0.633,0.263-1.23,0.582-1.689,1.171c-0.01-0.283-0.175-0.373-0.392-0.414c-0.372-0.071-0.739-0.011-1.104,0.046
			c-0.468,0.073-0.928,0.187-1.384,0.315c-0.063,0.018-0.127,0.059-0.196,0.017l0.006,0.005c-0.003-0.084,0.076-0.107,0.118-0.154
			c0.429-0.486,0.608-1.055,0.544-1.696c-0.037-0.366-0.201-0.671-0.512-0.889c-0.478-0.336-1.012-0.55-1.561-0.733
			c-0.926-0.308-1.878-0.508-2.84-0.661c-1.654-0.262-3.32-0.39-4.996-0.38c-1.217,0.007-2.428,0.08-3.626,0.314
			c-0.042,0.008-0.085,0.008-0.196,0.018c0.246-0.2,0.446-0.362,0.671-0.545c-1.836-0.291-3.297-1.25-4.706-2.311
			c-0.447-0.337-0.871-0.702-1.29-1.083c-0.054,0.07-0.01,0.12,0.008,0.17c0.284,0.794,0.761,1.465,1.345,2.062
			c0.866,0.884,1.887,1.552,2.98,2.116c0.559,0.289,1.134,0.541,1.723,0.763c0.047,0.018,0.105,0.014,0.133,0.091
			c-0.53,0.136-1.051,0.294-1.561,0.487c-0.955,0.362-1.863,0.811-2.68,1.43c-0.366,0.277-0.703,0.584-0.997,0.936
			c-1,1.195-1.229,2.544-0.796,4.023c0.082,0.281,0.189,0.554,0.304,0.823c0.026,0.06,0.075,0.114,0.061,0.206
			c-0.222-0.071-0.402-0.198-0.575-0.334c-0.414-0.326-0.716-0.743-0.958-1.205c-0.371-0.709-0.587-1.469-0.725-2.253
			c-0.038-0.22-0.067-0.441-0.104-0.686c-0.164,0.117-0.242,0.269-0.309,0.426c-0.168,0.393-0.227,0.811-0.258,1.233
			c-0.037,0.508-0.03,1.016,0.006,1.549c-0.196-0.075-0.311-0.227-0.454-0.337c-0.143-0.11-0.279-0.231-0.417-0.347
			c-0.145-0.122-0.29-0.245-0.435-0.367c-0.137-0.115-0.275-0.229-0.448-0.373c0.142,1.511,0.279,2.97,0.422,4.496
			c-0.14-0.103-0.229-0.164-0.314-0.23c-0.818-0.643-1.397-1.469-1.824-2.408c-0.424-0.932-0.676-1.913-0.831-2.922
			c-0.215-1.395-0.245-2.797-0.149-4.203c0.024-0.352,0.065-0.703,0.098-1.052c-0.082-0.034-0.117,0.031-0.158,0.067
			c-0.27,0.238-0.459,0.535-0.613,0.856c-0.309,0.641-0.489,1.323-0.624,2.018c-0.307,1.579-0.415,3.177-0.431,4.782
			c-0.002,0.178,0,0.355,0,0.533c-0.117,0.022-0.189-0.035-0.266-0.067c-0.943-0.401-1.74-1.01-2.451-1.738
			c-1.131-1.16-1.98-2.514-2.71-3.949c-1.074-2.112-1.845-4.338-2.474-6.616c-0.273-0.988-0.505-1.985-0.709-2.989
			c-0.016-0.08-0.021-0.162-0.03-0.24c0.05-0.013,0.064,0.011,0.078,0.031c0.674,0.896,1.538,1.577,2.481,2.163
			c1.575,0.98,3.276,1.677,5.042,2.226c0.072,0.022,0.148,0.059,0.221,0.001c-0.015,0.005-0.03,0.01-0.045,0.017
			c-0.002,0.001,0,0.011,0,0.017c0.015-0.011,0.029-0.023,0.044-0.034c-0.069-0.006-0.098-0.066-0.138-0.107
			c-1.413-1.466-2.634-3.072-3.557-4.895c-0.729-1.439-1.242-2.948-1.459-4.551c-0.073-0.538-0.095-1.08-0.065-1.617
			c0.045-0.032,0.07-0.005,0.093,0.018c1.046,1.066,2.25,1.925,3.531,2.679c1.816,1.069,3.73,1.926,5.722,2.61
			c0.13,0.083,0.277,0.112,0.425,0.139c0.034,0.007,0.001-0.029,0.023-0.003c0.004,0.004,0.01,0.014,0.009,0.014
			c-0.015,0.014-0.027,0.009-0.036-0.012c-0.101-0.099-0.224-0.16-0.357-0.205c-2.028-1.162-3.573-2.819-4.857-4.742
			c-0.541-0.811-1.016-1.659-1.372-2.57c-0.088-0.225-0.158-0.455-0.214-0.69c-0.054-0.225-0.012-0.421,0.135-0.604
			c0.244-0.304,0.524-0.572,0.812-0.831c0.468-0.421,0.96-0.814,1.459-1.197c0.04-0.031,0.077-0.07,0.144-0.073
			c0.152,0.416,0.304,0.835,0.49,1.241c0.494,1.084,1.119,2.077,2.009,2.885c0.721,0.655,1.539,1.129,2.505,1.32
			c0.051,0.01,0.101,0.02,0.153,0.026c0.059,0.007,0.119,0.008,0.174,0.012c0.02-0.029,0.03-0.05,0.01-0.075
			c-0.633-0.748-1.044-1.618-1.378-2.527c-0.48-1.306-0.784-2.657-0.997-4.029c-0.05-0.323-0.093-0.648-0.136-0.972
			c-0.011-0.082-0.04-0.166,0.057-0.231c0.414-0.276,0.825-0.558,1.247-0.845c0.242,0.288,0.468,0.57,0.719,0.83
			c1.279,1.324,2.832,2.144,4.628,2.508c0.873,0.177,1.756,0.262,2.647,0.162c0.166-0.019,0.224,0.048,0.28,0.182
			c0.213,0.508,0.436,1.012,0.655,1.517c0.003,0.065,0.023,0.119,0.088,0.153C28.755,12.973,28.752,12.925,28.729,12.878z
			 M32.624,8.801c0.02,0.001,0.04,0.001,0.06,0.002c0.083-0.044,0.165-0.088,0.248-0.132c0.627-0.266,1.275-0.457,1.951-0.549
			c0.189-0.026,0.379-0.08,0.598-0.032c-0.399,0.708-0.885,1.308-1.555,1.782c0.124,0.035,0.204,0.002,0.285-0.015
			c1.233-0.263,2.477-0.438,3.741-0.424c0.734,0.008,1.462,0.08,2.16,0.335c0.602,0.219,1.106,0.56,1.402,1.15
			c0.042,0.084,0.094,0.11,0.182,0.104c0.284-0.017,0.568-0.03,0.852-0.043c1.283-0.058,2.565-0.114,3.848-0.174
			c1.42-0.066,2.84-0.134,4.26-0.204c0.594-0.029,1.187-0.066,1.781-0.099c0.112,0.025,0.221,0.005,0.358-0.027
			c-0.105-0.011-0.181-0.022-0.258-0.027c-0.033-0.002-0.067,0.005-0.101,0.009c-1.617-0.13-3.235-0.261-4.909-0.396
			c0.182-0.167,0.329-0.294,0.467-0.43c0.14-0.138,0.311-0.254,0.408-0.461c-0.693-0.083-1.351-0.163-2.009-0.241
			c-0.957-0.113-1.914-0.223-2.871-0.339c-0.581-0.071-1.164-0.116-1.742-0.214c0-0.027,0-0.054,0-0.081
			c0.903,0.055,1.806,0.109,2.709,0.166c0.903,0.057,1.806,0.118,2.709,0.176c0.972,0.062,1.944,0.12,2.916,0.182
			c1.187,0.075,2.374,0.152,3.561,0.228c0.155,0.024,0.311,0.041,0.468,0.021c0.082,0.052,0.17,0.016,0.258,0.01
			c-0.091,0.005-0.168-0.049-0.257-0.053c-0.155-0.028-0.305-0.086-0.466-0.072c-0.669-0.12-1.338-0.24-2.007-0.361
			c-0.659-0.119-1.321-0.221-2.031-0.368c0.577-0.377,1.098-0.717,1.614-1.054c-0.015-0.036-0.016-0.048-0.022-0.05
			c-0.055-0.023-0.11-0.048-0.167-0.067c-1.896-0.63-3.842-1.016-5.829-1.197c-1.366-0.125-2.734-0.137-4.103-0.016
			c-1.412,0.125-2.795,0.385-4.147,0.813c-1.442,0.458-2.796,1.102-4.062,1.93c-0.093,0.056-0.186,0.113-0.278,0.169
			c-0.01,0.014-0.02,0.029-0.03,0.043c-0.006,0.009-0.012,0.018-0.018,0.027C32.606,8.813,32.615,8.807,32.624,8.801z M34.93,19.524
			c0.014,0.017,0.037,0.033,0.052,0.014c0.019-0.024-0.011-0.03-0.028-0.038c-0.013-0.058-0.054-0.085-0.108-0.1
			c-0.836-0.752-1.594-1.574-2.204-2.522c-1.117-1.735-1.704-3.615-1.546-5.692c-0.005,0.005-0.019,0.014-0.029,0.027
			c-0.015,0.021-0.03,0.043-0.038,0.067c-0.423,1.218-0.665,2.462-0.471,3.755c0.134,0.896,0.469,1.707,1.114,2.367
			c0.009,0.01,0.006,0.032,0.011,0.057c-0.288,0.164-0.611,0.272-0.928,0.467c1.394,0.535,2.743,1.052,4.093,1.57
			C34.869,19.524,34.899,19.526,34.93,19.524z M51.814,12.518c0.163,0.028,0.325,0.003,0.487-0.025
			c-0.165-0.021-0.325-0.081-0.495-0.05c-0.017-0.004-0.033-0.01-0.05-0.011c-1.159-0.09-2.317-0.184-3.477-0.265
			c-0.152-0.011-0.211-0.059-0.235-0.202c-0.041-0.237-0.104-0.47-0.143-0.708c-0.02-0.121-0.069-0.165-0.186-0.145
			c-0.034,0.006-0.069,0.003-0.103,0.005c-1.256,0.057-2.512,0.114-3.768,0.172c-0.697,0.032-1.393,0.067-2.09,0.101
			c-0.171,0.008-0.171,0.01-0.163,0.174c0.006,0.12,0.013,0.241,0.02,0.361c0.022,0.351,0.007,0.705,0.066,1.084
			C45.058,12.844,48.436,12.681,51.814,12.518z M28.488,21.055c0.055,0.023,0.112,0.042,0.165,0.07
			c0.589,0.312,1.207,0.548,1.859,0.685c0.417,0.087,0.838,0.15,1.273,0.114c-0.021-0.061-0.064-0.072-0.1-0.09
			c-1.439-0.703-2.56-1.765-3.448-3.082c-1.128-1.675-1.805-3.533-2.186-5.506c-0.017-0.086-0.018-0.176-0.101-0.288
			c-0.319,1.774-0.391,3.507-0.07,5.29c-0.399-0.255-0.634-0.602-0.906-0.983c0,0.155-0.008,0.255,0.001,0.353
			c0.038,0.377,0.072,0.755,0.144,1.128c0.228,1.178,0.675,2.258,1.431,3.198c1.016,1.264,2.348,2.029,3.901,2.426
			c0.902,0.23,1.786,0.513,2.654,0.848c2.098,0.812,4.123,1.781,6.117,2.82c0.082,0.043,0.158,0.107,0.262,0.113
			c0.003-0.026,0.012-0.051,0.007-0.074c-0.196-0.884-0.335-1.776-0.42-2.678c-0.128-1.372-0.107-2.736,0.167-4.091
			c0.617-3.053,2.347-5.212,5.201-6.462c1.242-0.544,2.544-0.852,3.899-0.926c0.145-0.008,0.175-0.06,0.163-0.186
			c-0.015-0.163-0.023-0.327-0.027-0.49c-0.002-0.108-0.039-0.148-0.155-0.14c-0.352,0.024-0.706,0.035-1.059,0.052
			c-1.394,0.067-2.789,0.134-4.183,0.201c-0.422,0.02-0.844,0.037-1.265,0.06c-0.078,0.004-0.176-0.017-0.184,0.121
			c-0.016,0.277-0.158,0.506-0.309,0.728c-0.273,0.401-0.606,0.75-0.955,1.085c-0.554,0.532-1.143,1.023-1.748,1.496
			c-0.364,0.284-0.67,0.62-0.918,1.009c-0.58,0.908-0.828,1.921-0.939,2.977c-0.103,0.99-0.078,1.979,0.045,2.966
			c0.034,0.271,0.073,0.542,0.108,0.807c-0.046,0.038-0.091,0.032-0.133,0.035c-0.82,0.065-1.636,0.018-2.448-0.108
			c-1.842-0.286-3.477-1.021-4.871-2.268c-0.385-0.344-0.753-0.707-1.034-1.147C28.448,21.093,28.468,21.074,28.488,21.055z
			 M28.761,13.132l0.011,0.001l-0.007,0.022L28.761,13.132z M33.877,9.905l0.018,0.011L33.898,9.9L33.877,9.905z"/>
		<path fill="#FEFEFE" d="M47.919,43.82c-0.103,0.004-0.206,0.01-0.31,0.01c-6.694,0-13.387,0.001-20.081-0.003
			c-0.1,0-0.225,0.066-0.303-0.062c1.275-1.349,2.616-2.625,4.088-3.759c1.267-0.976,2.604-1.836,4.078-2.47
			c0.987-0.425,2.008-0.724,3.079-0.834c0.264-0.027,0.532-0.028,0.846-0.044c-0.252,0.401-0.483,0.767-0.739,1.173
			c0.419-0.087,0.787-0.165,1.157-0.24c1.258-0.255,2.525-0.464,3.803-0.585c0.867-0.082,1.737-0.125,2.606-0.014
			c0.351,0.045,0.697,0.117,1.005,0.307c0.343,0.211,0.458,0.482,0.383,0.876c-0.011,0.057-0.044,0.112-0.014,0.192
			c0.337-0.118,0.673-0.236,1.024-0.359c0.035,0.314,0.015,0.606,0.071,0.9c0.178-0.045,0.331-0.125,0.487-0.194
			c0.717-0.32,1.405-0.692,2.066-1.116c0.056-0.036,0.104-0.092,0.18-0.093c0.009,0.01,0.019,0.019,0.029,0.028
			c-0.264,0.618-0.577,1.211-0.885,1.808c-0.762,1.478-1.592,2.917-2.484,4.32C47.973,43.712,47.948,43.767,47.919,43.82z"/>
		<path fill="#FDFDFD" d="M48.404,22.915c0.596-0.198,1.15-0.446,1.679-0.751c0.525-0.302,1.01-0.654,1.403-1.189
			c0.08,0.433,0.152,0.816,0.222,1.2c0.069,0.38,0.136,0.761,0.2,1.119c0.043,0.04,0.067,0.034,0.09,0.023
			c1.192-0.576,2.211-1.365,2.978-2.456c0.334-0.476,0.59-0.992,0.74-1.555c0.039-0.146,0.107-0.215,0.25-0.248
			c0.174-0.041,0.343-0.106,0.542-0.169c-0.305,3.138-0.859,6.209-1.676,9.274c-0.141-0.153-0.242-0.306-0.381-0.406
			c-0.359-0.26-0.513-0.626-0.616-1.035c-0.101-0.4-0.229-0.794-0.338-1.192c-0.106-0.389-0.204-0.78-0.316-1.213
			c-0.242,0.237-0.44,0.48-0.65,0.711c-0.209,0.23-0.413,0.463-0.619,0.695c-0.21,0.236-0.421,0.471-0.668,0.747
			c0.01-1.141-0.474-1.969-1.354-2.589c-0.086,0.091-0.102,0.196-0.139,0.289c-0.341,0.866-0.722,1.714-1.196,2.517
			c-0.206,0.349-0.433,0.685-0.707,0.986c-0.152,0.166-0.315,0.319-0.513,0.43c-0.409,0.23-0.789,0.148-1.064-0.234
			c-0.217-0.302-0.302-0.654-0.353-1.015c-0.118-0.846-0.043-1.685,0.102-2.521c0.162-0.937,0.418-1.847,0.83-2.708
			c0.202-0.421,0.437-0.822,0.781-1.147c0.146-0.137,0.305-0.25,0.501-0.309c0.406-0.123,0.657,0.027,0.722,0.448
			c0.047,0.303-0.007,0.602-0.065,0.898c-0.08,0.406-0.203,0.801-0.339,1.191C48.429,22.762,48.393,22.814,48.404,22.915z"/>
		<path fill="#FDFDFD" d="M6.659,13.632c-0.011-0.908-0.014-1.759,0.018-2.61c0.011-0.284,0.02-0.568,0.031-0.852
			c0.038-1.007,0.108-2.011,0.187-3.015C6.909,6.981,7.021,6.972,7.13,6.938c1.1-0.346,2.207-0.662,3.323-0.952
			c2.124-0.551,4.265-1.017,6.427-1.393c0.183-0.032,0.185-0.031,0.228,0.154c0.06,0.26,0.119,0.52,0.176,0.781
			c0.041,0.191,0.039,0.192-0.146,0.296c-2.815,1.587-5.46,3.419-7.936,5.496c-0.819,0.687-1.611,1.405-2.372,2.156
			C6.788,13.517,6.743,13.555,6.659,13.632z"/>
		<path fill="#58585A" d="M3.767,16.874c-0.046-0.123-0.046-0.253-0.054-0.381c-0.131-2.091-0.158-4.184-0.1-6.277
			c0.045-1.602,0.153-3.2,0.305-4.796c0.022-0.231,0.06-0.462,0.075-0.693c0.008-0.133,0.067-0.19,0.188-0.235
			c0.565-0.209,1.137-0.398,1.712-0.578c2.515-0.787,5.07-1.42,7.65-1.953c0.944-0.195,1.892-0.372,2.841-0.541
			c0.084-0.015,0.168-0.042,0.254-0.014c0.024,0.108-0.033,0.202-0.056,0.301c-0.064,0.283-0.039,0.564,0.012,0.845
			c0.038,0.207,0.038,0.208-0.167,0.245c-1.607,0.289-3.209,0.608-4.8,0.979C9.609,4.248,7.606,4.78,5.637,5.432
			C5.604,5.443,5.572,5.455,5.539,5.466C5.268,5.559,5.275,5.559,5.252,5.848C5.207,6.431,5.15,7.013,5.107,7.595
			c-0.022,0.3-0.04,0.602-0.051,0.902c-0.026,0.757-0.068,1.514-0.078,2.272c-0.008,0.663-0.051,1.325-0.026,1.988
			C4.979,13.445,4.989,14.134,5,14.823c0,0.026-0.004,0.053,0.004,0.077c0.102,0.324-0.012,0.573-0.237,0.811
			c-0.319,0.338-0.594,0.715-0.878,1.083C3.858,16.834,3.83,16.88,3.767,16.874z"/>
		<path fill="#58585A" d="M47.562,1.533c0.38,0.009,0.745,0.113,1.115,0.183c2.622,0.502,5.219,1.11,7.782,1.861
			c0.933,0.274,1.862,0.563,2.776,0.898c0.159,0.058,0.242,0.131,0.239,0.31C59.47,5.035,59.541,5.28,59.53,5.532
			c-0.328-0.102-0.654-0.21-0.985-0.304c-0.977-0.279-1.967-0.499-2.974-0.629c-1.07-0.138-2.101-0.442-3.15-0.671
			c-0.401-0.087-0.731-0.289-1.068-0.495C50.212,2.736,49.015,2.15,47.77,1.66C47.694,1.63,47.596,1.632,47.562,1.533z"/>
		<path fill="#FAFAFA" d="M46.427,18.157c0.338-0.339,0.716-0.621,1.162-0.801c0.54-0.218,1.086-0.242,1.64-0.047
			c0.571,0.201,1.096,0.498,1.634,0.768c0.408,0.205,0.816,0.409,1.244,0.568c0.895,0.332,1.669,0.496,2.721,0.16
			c0.047,0.04,0.007,0.079-0.006,0.114c-0.266,0.752-0.611,1.462-1.139,2.07c-0.24,0.276-0.515,0.508-0.855,0.655
			c-0.048,0.021-0.093,0.045-0.171,0.032c0.077-0.761,0.175-1.529-0.108-2.303c-0.134,0.062-0.222,0.155-0.316,0.235
			c-0.081,0.069-0.14,0.082-0.207-0.017c-0.072-0.106-0.156-0.205-0.24-0.313c-0.175,0.074-0.286,0.228-0.46,0.328
			c-0.075-0.176-0.146-0.344-0.217-0.511c-0.085,1.089-0.615,1.899-1.502,2.523c-0.031-0.073-0.003-0.123,0.012-0.175
			c0.165-0.574,0.268-1.157,0.239-1.758c-0.007-0.155-0.025-0.309-0.06-0.46c-0.132-0.576-0.461-0.969-1.039-1.14
			c-0.8-0.236-1.58-0.203-2.336,0.168C46.426,18.221,46.427,18.189,46.427,18.157z"/>
		<path fill="#FAFAFA" d="M50.885,27.308c0.726-0.621,1.379-1.261,2.033-1.964c0.186,0.736,0.363,1.439,0.549,2.174
			c-1.906-0.165-3.72,0.117-5.436,0.968c0.887-1.035,1.656-2.129,2.011-3.507c0.296,0.331,0.477,0.694,0.62,1.078
			C50.806,26.446,50.86,26.852,50.885,27.308z"/>
		<path fill="#FAFAFA" d="M58.722,16.757c0.881-1.251,1.48-2.622,1.716-4.139c0.112-0.719,0.118-1.443-0.021-2.161
			c-0.027-0.141,0.004-0.216,0.136-0.284c0.358-0.184,0.703-0.392,1.092-0.546c0.05,0.137,0.012,0.257,0.005,0.371
			c-0.092,1.559-0.381,3.075-1.042,4.502c-0.422,0.912-0.998,1.71-1.803,2.327C58.758,16.826,58.71,16.827,58.722,16.757z"/>
		<path fill="#58585A" d="M46.495,20.807c-0.066,0.238-0.238,0.415-0.364,0.617c-0.668,1.071-1.138,2.218-1.334,3.467
			c-0.101,0.646-0.107,1.3,0.017,1.949c0.019,0.098,0.072,0.226-0.007,0.295c-0.085,0.075-0.192-0.026-0.286-0.055
			c-0.172-0.053-0.339-0.124-0.51-0.181c-0.099-0.033-0.155-0.087-0.176-0.195c-0.032-0.168-0.074-0.335-0.089-0.506
			c-0.129-1.518,0.329-2.85,1.28-4.025c0.381-0.47,0.814-0.888,1.285-1.267c0.053-0.043,0.115-0.074,0.173-0.11
			C46.484,20.795,46.495,20.807,46.495,20.807z"/>
		<path fill="#FAFAFA" d="M53.215,5.228c0.949-0.026,1.895,0.003,2.836,0.151c1.18,0.186,2.32,0.504,3.393,1.039
			c0.097,0.048,0.203,0.085,0.304,0.196c-0.454,0.022-0.88,0.031-1.304,0.067c-0.286,0.024-0.523-0.029-0.766-0.202
			c-0.365-0.261-0.793-0.41-1.221-0.545C55.4,5.6,54.314,5.425,53.214,5.328C53.178,5.294,53.183,5.261,53.215,5.228z"/>
		<path fill="#FAFAFA" d="M43.204,4.498c0.413-0.435,0.876-0.571,1.397-0.513c0.688,0.077,1.257,0.415,1.784,0.845
			C45.348,4.663,44.319,4.461,43.204,4.498z"/>
		<path fill="#FAFAFA" d="M16.102,43.82c-0.125,0.007-0.249,0.014-0.374,0.02c-0.085,0.004-0.165-0.008-0.224-0.078
			c-0.147-0.237-0.293-0.473-0.44-0.71c0.006-0.03,0.012-0.059,0.018-0.089C15.422,43.249,15.762,43.534,16.102,43.82z"/>
		<path fill="#58585A" d="M53.215,5.228c-0.032,0.033-0.037,0.067-0.001,0.101c-0.138,0.016-0.275,0.024-0.402-0.062
			C52.944,5.207,53.078,5.206,53.215,5.228z"/>
		<path fill="#58585A" d="M19.475,21.581c0.132,0.045,0.256,0.105,0.357,0.205l0.004,0c-0.148-0.027-0.295-0.057-0.425-0.139
			C19.433,21.625,19.454,21.603,19.475,21.581z"/>
		<path fill="#58585A" d="M27.868,6.407c0.075,0.02,0.13,0.071,0.208,0.147c-0.093-0.019-0.161-0.013-0.216-0.069
			C27.863,6.459,27.865,6.433,27.868,6.407z"/>
		<path fill="#58585A" d="M58.722,16.757c-0.012,0.07,0.036,0.069,0.083,0.07c-0.04,0.077-0.109,0.117-0.207,0.146
			C58.587,16.862,58.651,16.808,58.722,16.757z"/>
		<path fill="#58585A" d="M15.082,42.963c-0.006,0.03-0.012,0.059-0.018,0.089c-0.018-0.015-0.04-0.028-0.053-0.047
			c-0.022-0.032-0.058-0.079-0.014-0.104C15.033,42.88,15.071,42.917,15.082,42.963z"/>
		<path fill="#58585A" d="M28.729,12.878c0.023,0.047,0.026,0.095,0.002,0.155c-0.065-0.033-0.085-0.088-0.088-0.153
			C28.672,12.879,28.701,12.878,28.729,12.878z"/>
		<path fill="#58585A" d="M46.427,18.157c0,0.032-0.001,0.064-0.001,0.096c-0.026,0.029-0.07,0.041-0.081,0.006
			C46.325,18.199,46.378,18.174,46.427,18.157z"/>
		<path fill="#58585A" d="M46.54,20.748c0.004-0.007,0.008-0.014,0.013-0.021c0.015,0.009,0.009,0.015-0.016,0.018L46.54,20.748z"/>
		<path fill="#58585A" d="M46.537,20.745c0.002,0.031-0.013,0.051-0.042,0.062c0,0-0.011-0.011-0.011-0.011
			c0.019-0.016,0.038-0.031,0.057-0.047C46.54,20.748,46.537,20.745,46.537,20.745z"/>
		<path fill="#FEFEFE" d="M51.345,37.505c0.004-0.024,0.016-0.048,0.041-0.029c0.022,0.017,0.003,0.04-0.013,0.057
			C51.364,37.524,51.355,37.515,51.345,37.505z"/>
		<path fill="#FEFEFE" d="M43.068,34.455c0.015,0.019,0.013,0.034-0.006,0.036c-0.01,0.001-0.02-0.011-0.03-0.017
			c0.014-0.005,0.028-0.009,0.043-0.014C43.074,34.46,43.068,34.455,43.068,34.455z"/>
		<path fill="#030303" d="M54.474,48.486c0.303,0.052,0.605,0.011,0.902,0.092c0.694,0.189,1.098,0.642,1.254,1.334
			c0.04,0.178,0.05,0.357,0.049,0.539c-0.001,0.966-0.001,1.931-0.001,2.897c0,0.445-0.068,0.875-0.275,1.275
			c-0.301,0.583-0.808,0.873-1.431,0.994c-0.212,0.041-0.426,0.054-0.642,0.054c-5.346-0.001-10.692-0.002-16.037,0.001
			c-0.313,0-0.617-0.044-0.919-0.119c-0.083-0.021-0.165-0.075-0.204,0.059c-0.018,0.062-0.079,0.056-0.13,0.058
			c-0.06,0.002-0.121,0.001-0.181,0.001c-2.199,0-4.397,0-6.596,0c-0.052,0-0.104-0.003-0.155,0
			c-0.118,0.009-0.179-0.036-0.17-0.162c0.005-0.069,0.001-0.138,0.001-0.207c0-2.147,0-4.294,0-6.441c0-0.06,0.001-0.121,0-0.181
			c-0.006-0.195-0.007-0.198-0.208-0.2c-0.345-0.003-0.69,0.001-1.035-0.001c-0.235-0.002-0.242-0.009-0.181-0.232
			c0.267-0.962,0.536-1.923,0.805-2.884c0.035-0.124,0.073-0.248,0.106-0.372c0.03-0.115,0.095-0.178,0.221-0.171
			c0.069,0.004,0.138,0,0.207,0c2.319,0,4.639-0.001,6.958,0.002c0.141,0,0.293-0.044,0.415,0.082
			c0.021,0.022,0.084,0.015,0.124,0.005c0.432-0.107,0.872-0.088,1.311-0.088c3.647,0,7.294-0.001,10.942,0.001
			c0.388,0,0.772,0.042,1.139,0.187c0.17,0.067,0.327,0.155,0.47,0.267c0.09,0.07,0.165,0.074,0.254,0.003
			c0.441-0.35,0.962-0.45,1.504-0.455c0.983-0.01,1.966-0.003,2.949-0.002c0.253,0,0.25,0.006,0.295,0.25
			c0.16,0.88,0.325,1.758,0.488,2.637c0.036,0.194,0.073,0.388,0.109,0.583c0.031,0.173,0.022,0.187-0.166,0.189
			c-0.681,0.005-1.362,0.006-2.043,0.008C54.558,48.486,54.516,48.486,54.474,48.486z M50.193,51.87
			c0.555-0.093,0.785-0.361,0.786-0.886c0.002-1.327,0-2.654,0.001-3.981c0-0.13-0.014-0.258-0.043-0.384
			c-0.086-0.377-0.315-0.62-0.688-0.73c-0.194-0.057-0.391-0.056-0.589-0.056c-0.982-0.001-1.965-0.002-2.947,0
			c-0.333,0.001-0.286-0.049-0.286,0.284c-0.001,2.757-0.001,5.515-0.001,8.272c0,0.043,0.004,0.087-0.001,0.129
			c-0.013,0.121,0.03,0.165,0.158,0.163c0.474-0.007,0.948-0.002,1.422-0.003c0.186-0.001,0.189-0.004,0.189-0.207
			c0.001-0.62,0-1.241,0-1.861c0-0.207-0.002-0.414,0.001-0.62c0.001-0.055-0.021-0.13,0.072-0.138
			c0.08-0.007,0.157-0.008,0.181,0.097c0.015,0.067,0.038,0.132,0.058,0.198c0.238,0.782,0.479,1.562,0.71,2.346
			c0.041,0.139,0.095,0.197,0.246,0.189c0.258-0.013,0.517-0.004,0.775-0.004c0.281,0,0.562,0,0.875,0
			C50.801,53.727,50.499,52.806,50.193,51.87z M40.801,47.487c-0.097-0.534-0.188-1.024-0.275-1.516
			c-0.018-0.103-0.061-0.143-0.17-0.142c-0.836,0.006-1.673-0.003-2.509,0.01c-0.476,0.008-0.787,0.284-0.898,0.744
			c-0.028,0.119-0.035,0.238-0.035,0.359c0,2.121,0,4.243-0.001,6.364c0,0.191,0.015,0.379,0.059,0.565
			c0.089,0.375,0.311,0.625,0.69,0.728c0.193,0.052,0.389,0.077,0.588,0.078c0.983,0.003,1.966,0.002,2.949,0.001
			c0.181,0,0.185-0.004,0.185-0.186c0.002-0.621,0.001-1.242,0.001-1.863c0-0.957,0.001-1.914-0.001-2.871
			c0-0.186-0.004-0.189-0.18-0.19c-0.457-0.002-0.914-0.002-1.371,0c-0.174,0.001-0.176,0.004-0.177,0.192
			c-0.002,0.5-0.001,1-0.001,1.5c0,0.543-0.003,1.087,0.002,1.63c0.001,0.12-0.029,0.172-0.158,0.166
			c-0.198-0.009-0.397,0.002-0.595-0.004c-0.166-0.005-0.188-0.031-0.2-0.201c-0.004-0.06-0.001-0.121-0.001-0.181
			c0-1.604,0-3.208,0-4.812c0-0.034-0.001-0.069,0-0.103c0.006-0.251,0.018-0.266,0.263-0.267c0.285-0.002,0.569,0,0.854,0
			C40.139,47.487,40.457,47.487,40.801,47.487z M51.824,53.054c0.095,0.487,0.196,0.975,0.282,1.466
			c0.024,0.135,0.083,0.161,0.204,0.16c0.689-0.005,1.379,0,2.068-0.005c0.154-0.001,0.31-0.019,0.462-0.045
			c0.452-0.078,0.72-0.346,0.799-0.797c0.027-0.152,0.044-0.306,0.044-0.462c-0.002-0.974-0.002-1.947,0-2.921
			c0-0.13-0.01-0.259-0.041-0.384c-0.064-0.263-0.22-0.44-0.489-0.513c-0.11-0.03-0.219-0.041-0.332-0.04
			c-0.327,0-0.655,0.001-0.982,0c-0.396-0.001-0.414-0.019-0.415-0.402c0-0.414,0-0.827,0-1.241c0-0.375,0.007-0.382,0.37-0.382
			c0.526,0,1.051,0.001,1.577-0.001c0.085,0,0.172,0.017,0.269-0.026c-0.093-0.504-0.188-1.01-0.278-1.518
			c-0.022-0.123-0.105-0.111-0.192-0.111c-0.465,0.001-0.931,0-1.396,0.001c-0.353,0.001-0.707-0.008-1.06,0.009
			c-0.609,0.028-0.984,0.416-1.008,1.024c-0.003,0.077-0.002,0.155-0.003,0.233c0,0.732-0.001,1.465,0,2.197
			c0,0.302-0.008,0.604,0.009,0.904c0.028,0.481,0.291,0.744,0.769,0.767c0.378,0.018,0.758,0.011,1.137,0.017
			c0.273,0.005,0.312,0.043,0.313,0.318c0.002,0.474,0.002,0.948,0,1.422c-0.001,0.269-0.029,0.299-0.294,0.3
			c-0.517,0.002-1.034,0-1.551,0.002C52.002,53.025,51.914,53.003,51.824,53.054z M45.749,53.023c-0.127,0-0.212,0-0.297,0
			c-0.457,0-0.913,0.001-1.37-0.001c-0.179-0.001-0.182-0.004-0.183-0.187c-0.002-0.526,0.003-1.051-0.003-1.577
			c-0.002-0.129,0.042-0.161,0.163-0.159c0.37,0.006,0.741,0.004,1.112,0.002c0.179-0.001,0.182-0.004,0.183-0.187
			c0.002-0.396-0.004-0.793,0.003-1.189c0.002-0.125-0.037-0.163-0.162-0.161c-0.37,0.007-0.741,0.004-1.112,0.002
			c-0.18-0.001-0.184-0.004-0.184-0.183c-0.002-0.569-0.001-1.137,0-1.706c0-0.187,0.003-0.189,0.202-0.19
			c0.483-0.001,0.965,0.001,1.448-0.002c0.084,0,0.172,0.021,0.251-0.021c0.02-0.054,0.003-0.104-0.007-0.154
			c-0.078-0.414-0.157-0.829-0.233-1.243c-0.043-0.233-0.041-0.235-0.267-0.235c-1,0-1.999,0-2.999,0
			c-0.244,0-0.225-0.023-0.225,0.219c0,0.965,0,1.93,0,2.895c0,1.835,0,3.671,0,5.506c0,0.224,0.002,0.225,0.224,0.226
			c0.586,0.001,1.172,0,1.758,0c0.414,0,0.827-0.002,1.241,0.001c0.098,0.001,0.155-0.016,0.175-0.131
			C45.553,54.05,45.65,53.552,45.749,53.023z M29.762,47.487c0.369,0,0.697,0.005,1.024-0.002c0.125-0.003,0.175,0.039,0.16,0.163
			c-0.006,0.051-0.001,0.103-0.001,0.155c0,1.543,0,3.086,0,4.629c0,0.672-0.001,1.345,0,2.017c0,0.227,0.002,0.229,0.22,0.23
			c0.457,0.001,0.914,0.001,1.37,0c0.224-0.001,0.225-0.002,0.226-0.225c0.001-0.819,0-1.638,0-2.457c0-1.422-0.001-2.844,0-4.267
			c0-0.278-0.033-0.241,0.251-0.243c0.299-0.002,0.597,0,0.889,0c0.026-0.086,0.003-0.143-0.012-0.201
			c-0.112-0.415-0.223-0.831-0.334-1.246c-0.055-0.207-0.056-0.208-0.274-0.208c-0.948-0.001-1.896,0-2.844,0
			c-0.034,0-0.069,0.002-0.103,0c-0.082-0.005-0.122,0.031-0.143,0.112c-0.058,0.225-0.126,0.447-0.188,0.671
			C29.924,46.895,29.848,47.176,29.762,47.487z M34.423,50.242c0,1.396,0,2.793,0,4.189c0,0.287-0.01,0.246,0.252,0.247
			c0.422,0.001,0.845,0.001,1.267,0c0.267,0,0.249,0.027,0.25-0.251c0-0.017,0-0.034,0-0.052c0-2.75,0-5.5,0-8.249
			c0-0.052-0.005-0.104,0.001-0.155c0.014-0.12-0.048-0.143-0.151-0.141c-0.215,0.005-0.431,0.001-0.646,0.001
			c-0.284,0-0.569,0.003-0.853-0.001c-0.089-0.001-0.127,0.028-0.119,0.119c0.005,0.06,0.001,0.121,0.001,0.181
			C34.423,47.501,34.423,48.871,34.423,50.242z"/>
		<path fill="#040404" d="M12.808,46.086c0.091-0.223,0.088-0.45,0.143-0.663c0.03-0.116,0.043-0.237,0.062-0.355
			c0.034-0.209,0.035-0.214,0.24-0.217c0.233-0.003,0.465-0.001,0.698-0.001c0.802,0,1.603,0,2.405,0
			c0.259,0,0.262,0.001,0.311,0.258c0.049,0.26,0.092,0.521,0.176,0.779c0-0.262-0.001-0.524,0-0.787
			c0.001-0.28,0.002-0.282,0.292-0.282c1.319-0.001,2.638-0.002,3.957,0.001c0.241,0.001,0.48,0.029,0.716,0.08
			c0.131,0.028,0.275,0.129,0.383-0.059c0.018-0.031,0.113-0.022,0.172-0.022c2.198-0.001,4.396-0.001,6.595-0.001
			c0.043,0,0.087-0.002,0.129,0.005c0.084,0.012,0.115,0.054,0.091,0.144c-0.069,0.258-0.129,0.518-0.196,0.776
			c-0.32,1.223-0.623,2.452-0.971,3.667c-0.119,0.416-0.06,0.792,0.028,1.188c0.358,1.611,0.711,3.224,1.065,4.836
			c0.011,0.05,0.019,0.1,0.029,0.157c-0.099,0.061-0.204,0.034-0.303,0.034c-1.991,0.002-3.983,0.001-5.974,0.001
			c-3.759,0-7.517,0-11.276,0c-1.612,0-3.224,0-4.835,0c-0.06,0-0.121-0.004-0.181,0c-0.12,0.008-0.177-0.042-0.168-0.165
			c0.004-0.06,0-0.121,0-0.181c0-3.371,0-6.741,0-10.112c0-0.35,0-0.35,0.354-0.35c1.319,0,2.638,0,3.957,0
			c0.242,0,0.48,0.026,0.716,0.082c0.611,0.146,1.046,0.503,1.299,1.08c0.01,0.024,0.023,0.046,0.036,0.068
			C12.764,46.055,12.773,46.059,12.808,46.086z M21.608,51.857c0.146-0.038,0.276-0.053,0.389-0.12
			c0.27-0.16,0.386-0.401,0.386-0.711c-0.002-1.362-0.001-2.724-0.001-4.086c0-0.069-0.002-0.138-0.01-0.206
			c-0.057-0.447-0.313-0.732-0.748-0.854c-0.178-0.05-0.358-0.046-0.539-0.047c-0.983-0.002-1.966-0.002-2.948,0
			c-0.33,0-0.29-0.036-0.29,0.287c-0.001,2.741,0,5.483,0,8.224c0,0.043,0.005,0.087-0.001,0.129c-0.021,0.144,0.05,0.172,0.18,0.17
			c0.465-0.006,0.931-0.001,1.397-0.003c0.196-0.001,0.199-0.003,0.199-0.198c0.001-0.776,0.001-1.552,0.001-2.328
			c0-0.06,0.002-0.121,0-0.181c-0.002-0.084,0.051-0.092,0.118-0.095c0.125-0.005,0.128,0.093,0.152,0.171
			c0.247,0.815,0.496,1.63,0.736,2.447c0.04,0.137,0.096,0.191,0.247,0.187c0.5-0.011,1-0.004,1.5-0.005
			c0.039,0,0.086,0.013,0.127-0.056C22.21,53.693,21.912,52.787,21.608,51.857z M7.404,50.235c0,1.396,0,2.792,0,4.189
			c0,0.227-0.016,0.217,0.203,0.217c1-0.001,2-0.002,2.999-0.001c0.173,0,0.344-0.017,0.512-0.059
			c0.374-0.093,0.623-0.316,0.719-0.697c0.055-0.219,0.074-0.441,0.074-0.666c0-2.069,0-4.137,0-6.206
			c0-0.13-0.008-0.258-0.031-0.386c-0.086-0.471-0.407-0.759-0.886-0.788c-0.103-0.006-0.207-0.005-0.31-0.006
			c-0.707,0-1.413,0-2.12,0c-0.319,0-0.638,0-0.957,0c-0.219,0-0.204-0.018-0.204,0.214c0,0.043,0,0.086,0,0.129
			C7.404,47.528,7.404,48.882,7.404,50.235z M27.923,45.832c-0.571,0-1.113,0.004-1.654-0.003c-0.137-0.002-0.192,0.041-0.222,0.178
			c-0.129,0.579-0.271,1.156-0.409,1.733c-0.136,0.569-0.277,1.137-0.404,1.708c-0.029,0.129-0.08,0.178-0.207,0.16
			c-0.14-0.019-0.081-0.127-0.091-0.201c-0.007-0.051-0.001-0.103-0.001-0.155c0-1.077-0.001-2.154,0.001-3.232
			c0-0.206-0.008-0.19-0.178-0.189c-0.483,0.001-0.965,0.001-1.448,0c-0.174,0-0.176-0.008-0.176,0.192
			c0.002,0.491,0.001,0.982,0.001,1.474c0,2.301,0,4.602,0,6.903c0,0.267-0.024,0.24,0.23,0.24c0.448,0.001,0.896,0,1.344,0
			c0.236,0,0.225,0.024,0.225-0.22c0-1.025,0-2.051,0-3.076c0-0.078,0-0.155,0.001-0.233c0.001-0.034,0.005-0.067,0.04-0.088
			c0.118-0.071,0.305,0.007,0.336,0.141c0.008,0.033,0.011,0.068,0.017,0.102c0.204,1.065,0.412,2.129,0.608,3.196
			c0.026,0.14,0.073,0.183,0.212,0.181c0.491-0.008,0.982-0.001,1.474-0.004c0.091-0.001,0.187,0.025,0.28-0.028
			c-0.006-0.035-0.011-0.068-0.019-0.101c-0.324-1.479-0.647-2.959-0.975-4.437c-0.027-0.122-0.03-0.233,0.004-0.354
			c0.091-0.323,0.171-0.649,0.255-0.973C27.415,47.788,27.663,46.831,27.923,45.832z M17.367,54.64
			c-0.015-0.1-0.023-0.159-0.033-0.218c-0.216-1.195-0.432-2.389-0.648-3.584c-0.292-1.61-0.587-3.219-0.871-4.83
			c-0.027-0.152-0.093-0.172-0.222-0.171c-0.5,0.005-1,0.001-1.5,0.002c-0.205,0-0.206,0.002-0.243,0.205
			c-0.123,0.678-0.245,1.356-0.367,2.034c-0.34,1.881-0.683,3.762-1.019,5.643c-0.054,0.299-0.127,0.597-0.149,0.919
			c0.561,0,1.104-0.001,1.646,0.001c0.099,0,0.132-0.041,0.143-0.136c0.031-0.265,0.072-0.529,0.11-0.793
			c0.013-0.086,0.022-0.167,0.149-0.164c0.319,0.007,0.638,0.004,0.957,0.001c0.085-0.001,0.121,0.03,0.131,0.117
			c0.02,0.18,0.047,0.359,0.081,0.536c0.027,0.141-0.025,0.329,0.094,0.413c0.111,0.079,0.284,0.023,0.43,0.024
			C16.483,54.642,16.913,54.64,17.367,54.64z"/>
		<path fill="#010101" d="M36.722,56.71c0.773,0,1.547,0,2.35,0c-0.074,0.132-0.177,0.208-0.269,0.29
			c-1.164,1.049-2.35,2.071-3.589,3.031c-1.048,0.812-2.12,1.591-3.227,2.323c-0.197,0.13-0.335,0.124-0.525-0.003
			c-0.838-0.559-1.663-1.136-2.469-1.741c-1.163-0.875-2.292-1.791-3.381-2.757c-0.406-0.36-0.809-0.722-1.213-1.084
			c-0.024-0.022-0.052-0.047-0.03-0.098c0.062-0.043,0.14-0.022,0.214-0.023c0.612-0.002,1.223,0,1.835-0.002
			c0.104,0,0.204,0.005,0.295,0.062c0.296,0.25,0.591,0.501,0.889,0.748c1.266,1.051,2.573,2.046,3.939,2.965
			c0.097,0.065,0.172,0.134,0.314,0.038C33.558,59.311,35.177,58.058,36.722,56.71z"/>
		<path fill="#FDFDFD" d="M36.722,56.71c-1.545,1.349-3.164,2.601-4.864,3.75c-0.142,0.096-0.218,0.027-0.314-0.038
			c-1.366-0.918-2.673-1.914-3.939-2.965c-0.298-0.247-0.593-0.499-0.889-0.748c0.015-0.071,0.073-0.063,0.122-0.063
			c0.731,0.012,1.463-0.015,2.195,0.019c0.559,0.026,1.12,0.006,1.68,0.006c1.904,0,3.808-0.001,5.712,0.001
			C36.523,56.672,36.63,56.638,36.722,56.71z"/>
		<path fill="#020203" d="M28.429,21.113c0.281,0.439,0.65,0.802,1.034,1.147c1.393,1.247,3.029,1.982,4.871,2.268
			c0.812,0.126,1.627,0.174,2.448,0.108c0.042-0.003,0.087,0.002,0.133-0.035c-0.036-0.264-0.074-0.535-0.108-0.807
			c-0.123-0.987-0.148-1.976-0.045-2.966c0.11-1.055,0.359-2.069,0.939-2.977c0.248-0.388,0.554-0.724,0.918-1.009
			c0.605-0.473,1.194-0.963,1.748-1.496c0.348-0.335,0.682-0.684,0.955-1.085c0.151-0.222,0.292-0.451,0.309-0.728
			c0.008-0.137,0.107-0.116,0.184-0.121c0.422-0.023,0.844-0.04,1.265-0.06c1.394-0.067,2.789-0.134,4.183-0.201
			c0.353-0.017,0.706-0.028,1.059-0.052c0.116-0.008,0.152,0.032,0.155,0.14c0.004,0.164,0.012,0.327,0.027,0.49
			c0.012,0.126-0.019,0.178-0.163,0.186c-1.355,0.074-2.656,0.382-3.899,0.926c-2.854,1.25-4.584,3.409-5.201,6.462
			c-0.274,1.355-0.295,2.719-0.167,4.091c0.084,0.902,0.224,1.794,0.42,2.678c0.005,0.023-0.004,0.048-0.007,0.074
			c-0.105-0.006-0.18-0.07-0.262-0.113c-1.993-1.039-4.019-2.009-6.117-2.82c-0.867-0.336-1.752-0.618-2.654-0.848
			c-1.553-0.397-2.885-1.162-3.901-2.426c-0.756-0.94-1.203-2.02-1.431-3.198c-0.072-0.373-0.107-0.75-0.144-1.128
			c-0.01-0.098-0.001-0.198-0.001-0.353c0.272,0.382,0.506,0.728,0.906,0.983c-0.32-1.783-0.249-3.516,0.07-5.29
			c0.083,0.112,0.084,0.203,0.101,0.288c0.382,1.973,1.058,3.831,2.186,5.506c0.887,1.317,2.008,2.379,3.448,3.082
			c0.037,0.018,0.079,0.029,0.1,0.09c-0.435,0.036-0.856-0.027-1.273-0.114c-0.653-0.137-1.27-0.372-1.859-0.685
			c-0.052-0.028-0.11-0.047-0.165-0.07c-0.033-0.05-0.082-0.07-0.143-0.08C28.343,21.043,28.378,21.083,28.429,21.113z"/>
		<path fill="#020203" d="M53.674,9.046C52.487,8.97,51.3,8.893,50.113,8.818c-0.972-0.062-1.944-0.12-2.916-0.182
			c-0.903-0.057-1.806-0.119-2.709-0.176c-0.903-0.057-1.806-0.111-2.709-0.166C41.4,8.26,41.021,8.221,40.64,8.226
			c-0.171-0.118-0.355-0.039-0.534-0.032c0.182,0.029,0.358,0.096,0.547,0.073c0.103,0.007,0.206,0.008,0.308,0.022
			c0.272,0.037,0.543,0.083,0.818,0.086c0.577,0.098,1.161,0.143,1.742,0.214c0.957,0.116,1.914,0.226,2.871,0.339
			c0.658,0.078,1.315,0.158,2.009,0.241c-0.096,0.208-0.268,0.323-0.408,0.461c-0.138,0.136-0.284,0.263-0.467,0.43
			c1.674,0.135,3.291,0.265,4.909,0.396c0.002,0.015,0.002,0.03,0.001,0.046c-0.594,0.033-1.187,0.07-1.781,0.099
			c-1.42,0.07-2.84,0.138-4.26,0.204c-1.283,0.06-2.565,0.116-3.848,0.174c-0.284,0.013-0.568,0.026-0.852,0.043
			c-0.088,0.005-0.139-0.02-0.182-0.104c-0.296-0.59-0.801-0.93-1.402-1.15c-0.698-0.254-1.425-0.327-2.16-0.335
			c-1.264-0.014-2.508,0.161-3.741,0.424c-0.081,0.017-0.16,0.05-0.285,0.015c0.67-0.474,1.156-1.074,1.555-1.782
			c-0.219-0.049-0.409,0.006-0.598,0.032c-0.676,0.091-1.324,0.283-1.951,0.549c-0.003-0.03-0.005-0.06-0.008-0.09
			c1.266-0.828,2.62-1.472,4.062-1.93c1.351-0.429,2.735-0.688,4.147-0.813c1.369-0.121,2.737-0.109,4.103,0.016
			c1.987,0.182,3.933,0.568,5.829,1.197c0.057,0.019,0.112,0.044,0.167,0.067c0.006,0.002,0.007,0.015,0.022,0.05
			c-0.516,0.337-1.038,0.678-1.614,1.054c0.71,0.147,1.372,0.249,2.031,0.368c0.669,0.121,1.338,0.241,2.007,0.361
			C53.677,8.983,53.675,9.014,53.674,9.046z"/>
		<path fill="#040404" d="M51.814,12.518c-3.378,0.163-6.756,0.326-10.137,0.489c-0.059-0.378-0.045-0.732-0.066-1.084
			c-0.007-0.12-0.015-0.241-0.02-0.361c-0.008-0.164-0.007-0.166,0.163-0.174c0.697-0.034,1.393-0.069,2.09-0.101
			c1.256-0.058,2.512-0.114,3.768-0.172c0.034-0.002,0.069,0.001,0.103-0.005c0.117-0.02,0.166,0.025,0.186,0.145
			c0.039,0.237,0.102,0.471,0.143,0.708c0.024,0.142,0.083,0.191,0.235,0.202c1.16,0.081,2.318,0.175,3.477,0.265
			c0.017,0.001,0.034,0.007,0.05,0.011C51.808,12.467,51.811,12.493,51.814,12.518z"/>
		<path fill="#050505" d="M34.849,19.495c-1.349-0.517-2.698-1.035-4.093-1.57c0.317-0.195,0.639-0.303,0.928-0.467
			c-0.004-0.025-0.001-0.047-0.011-0.057c-0.645-0.66-0.98-1.471-1.114-2.367c-0.194-1.293,0.048-2.537,0.471-3.755
			c0.008-0.024,0.024-0.046,0.038-0.067c0.009-0.013,0.023-0.022,0.029-0.027c-0.158,2.076,0.428,3.957,1.546,5.692
			c0.611,0.948,1.368,1.77,2.204,2.522C34.847,19.432,34.848,19.464,34.849,19.495z"/>
		<path fill="#FAFAFA" d="M40.64,8.226c0.381-0.006,0.76,0.033,1.139,0.067c0,0.027,0,0.054,0,0.081
			c-0.275-0.003-0.546-0.049-0.818-0.086c-0.102-0.014-0.206-0.015-0.308-0.022l0.007-0.024L40.64,8.226z"/>
		<path fill="#58585A" d="M53.674,9.046c0.001-0.031,0.002-0.063,0.004-0.094c0.161-0.014,0.311,0.044,0.466,0.072
			c0,0.014,0,0.028-0.001,0.043C53.985,9.087,53.83,9.07,53.674,9.046z"/>
		<path fill="#58585A" d="M51.814,12.518c-0.003-0.025-0.006-0.05-0.008-0.075c0.17-0.03,0.33,0.03,0.495,0.05
			C52.139,12.521,51.978,12.546,51.814,12.518z"/>
		<path fill="#58585A" d="M54.143,9.066c0.001-0.014,0.001-0.028,0.001-0.043c0.089,0.004,0.166,0.058,0.257,0.053
			C54.313,9.083,54.224,9.118,54.143,9.066z"/>
		<path fill="#58585A" d="M52.435,10.501c0.001-0.015,0.001-0.03-0.001-0.046c0.034-0.003,0.068-0.011,0.101-0.009
			c0.077,0.005,0.153,0.016,0.258,0.027C52.656,10.506,52.548,10.526,52.435,10.501z"/>
		<path fill="#58585A" d="M32.924,8.58c0.003,0.03,0.005,0.06,0.008,0.09c-0.083,0.044-0.165,0.088-0.248,0.132
			c-0.013-0.018-0.026-0.035-0.039-0.053C32.738,8.693,32.831,8.636,32.924,8.58z"/>
		<path fill="#FAFAFA" d="M28.429,21.113c-0.05-0.03-0.085-0.069-0.084-0.138c0.061,0.01,0.11,0.03,0.143,0.08
			C28.468,21.074,28.448,21.093,28.429,21.113z"/>
		<path fill="#58585A" d="M34.849,19.495c-0.001-0.032-0.001-0.063-0.002-0.095c0.053,0.015,0.094,0.042,0.108,0.1
			c-0.008,0.008-0.016,0.016-0.024,0.024C34.899,19.526,34.869,19.524,34.849,19.495z"/>
		<polygon fill="#58585A" points="28.761,13.132 28.764,13.156 28.772,13.134 		"/>
		<path fill="#58585A" d="M19.832,21.786c0.008,0.021,0.021,0.025,0.036,0.012c0.001-0.001-0.005-0.01-0.009-0.014
			c-0.022-0.026,0.011,0.01-0.023,0.003C19.836,21.786,19.832,21.786,19.832,21.786z"/>
		<path fill="#FAFAFA" d="M32.616,8.792c0.01-0.014,0.02-0.029,0.03-0.043c0.013,0.018,0.026,0.035,0.039,0.053
			c-0.02,0-0.04-0.001-0.06-0.002L32.616,8.792z"/>
		<path fill="#58585A" d="M34.954,19.5c0.017,0.008,0.047,0.013,0.028,0.038c-0.015,0.019-0.038,0.003-0.052-0.014
			C34.938,19.516,34.946,19.508,34.954,19.5z"/>
		<polygon fill="#020203" points="33.877,9.905 33.898,9.9 33.896,9.916 		"/>
		<path fill="#010101" d="M15.284,27.509c-0.015,0.011-0.029,0.023-0.044,0.034c0-0.006-0.002-0.016,0-0.017
			C15.255,27.52,15.27,27.515,15.284,27.509C15.285,27.509,15.284,27.509,15.284,27.509z"/>
		<path fill="#FAFAFA" d="M32.624,8.801c-0.009,0.006-0.018,0.012-0.027,0.018c0.006-0.009,0.012-0.018,0.018-0.027
			C32.616,8.792,32.624,8.801,32.624,8.801z"/>
		<path fill="#FDFDFD" d="M50.193,51.87c0.307,0.936,0.608,1.857,0.92,2.808c-0.313,0-0.594,0-0.875,0
			c-0.258,0-0.517-0.01-0.775,0.004c-0.151,0.008-0.205-0.05-0.246-0.189c-0.23-0.784-0.472-1.565-0.71-2.346
			c-0.02-0.066-0.042-0.131-0.058-0.198c-0.024-0.104-0.101-0.104-0.181-0.097c-0.093,0.008-0.071,0.083-0.072,0.138
			c-0.003,0.207-0.001,0.414-0.001,0.62c0,0.62,0.001,1.241,0,1.861c0,0.203-0.003,0.206-0.189,0.207
			c-0.474,0.002-0.948-0.004-1.422,0.003c-0.129,0.002-0.172-0.043-0.158-0.163c0.005-0.043,0.001-0.086,0.001-0.129
			c0-2.757-0.001-5.515,0.001-8.272c0-0.333-0.048-0.283,0.286-0.284c0.982-0.002,1.965-0.001,2.947,0
			c0.198,0,0.395-0.001,0.589,0.056c0.373,0.11,0.601,0.353,0.688,0.73c0.029,0.126,0.043,0.254,0.043,0.384
			c-0.001,1.327,0,2.654-0.001,3.981C50.978,51.509,50.748,51.777,50.193,51.87z M48.195,48.92c0,0.447,0.003,0.895-0.002,1.342
			c-0.002,0.121,0.032,0.171,0.16,0.165c0.197-0.009,0.396,0,0.593-0.003c0.261-0.003,0.28-0.021,0.281-0.279
			c0.002-0.576,0.001-1.153,0.001-1.729c0-0.267,0.004-0.533-0.002-0.8c-0.004-0.191-0.039-0.222-0.231-0.226
			c-0.215-0.004-0.43,0.006-0.645-0.003c-0.129-0.006-0.159,0.045-0.157,0.165C48.198,48.008,48.195,48.464,48.195,48.92z"/>
		<path fill="#FCFCFC" d="M40.801,47.487c-0.344,0-0.662,0-0.98,0c-0.285,0-0.569-0.002-0.854,0
			c-0.245,0.002-0.257,0.016-0.263,0.267c-0.001,0.034,0,0.069,0,0.103c0,1.604,0,3.208,0,4.812c0,0.06-0.003,0.121,0.001,0.181
			c0.012,0.169,0.033,0.195,0.2,0.201c0.198,0.006,0.397-0.005,0.595,0.004c0.129,0.006,0.159-0.046,0.158-0.166
			c-0.005-0.543-0.002-1.086-0.002-1.63c0-0.5-0.001-1,0.001-1.5c0.001-0.187,0.003-0.191,0.177-0.192
			c0.457-0.002,0.914-0.002,1.371,0c0.176,0.001,0.18,0.004,0.18,0.19c0.001,0.957,0.001,1.914,0.001,2.871
			c0,0.621,0.001,1.242-0.001,1.863c-0.001,0.183-0.005,0.186-0.185,0.186c-0.983,0.001-1.966,0.002-2.949-0.001
			c-0.198-0.001-0.395-0.026-0.588-0.078c-0.379-0.102-0.601-0.353-0.69-0.728c-0.044-0.185-0.059-0.374-0.059-0.565
			c0.001-2.121,0.001-4.243,0.001-6.364c0-0.121,0.007-0.24,0.035-0.359c0.11-0.46,0.421-0.737,0.898-0.744
			c0.836-0.013,1.673-0.004,2.509-0.01c0.109-0.001,0.152,0.039,0.17,0.142C40.613,46.462,40.704,46.953,40.801,47.487z"/>
		<path fill="#FDFDFD" d="M51.824,53.054c0.09-0.051,0.178-0.03,0.262-0.03c0.517-0.002,1.034,0.001,1.551-0.002
			c0.265-0.001,0.294-0.031,0.294-0.3c0.001-0.474,0.002-0.948,0-1.422c-0.001-0.275-0.04-0.314-0.313-0.318
			c-0.379-0.006-0.758,0.001-1.137-0.017c-0.478-0.023-0.741-0.286-0.769-0.767c-0.017-0.301-0.009-0.603-0.009-0.904
			c-0.001-0.732,0-1.465,0-2.197c0-0.078-0.001-0.155,0.003-0.233c0.024-0.608,0.399-0.996,1.008-1.024
			c0.353-0.016,0.706-0.008,1.06-0.009c0.465-0.001,0.931,0,1.396-0.001c0.087,0,0.17-0.012,0.192,0.111
			c0.09,0.507,0.185,1.014,0.278,1.518c-0.097,0.043-0.184,0.026-0.269,0.026c-0.526,0.002-1.051,0.001-1.577,0.001
			c-0.363,0-0.37,0.008-0.37,0.382c0,0.414,0,0.827,0,1.241c0,0.383,0.019,0.401,0.415,0.402c0.327,0.001,0.655,0,0.982,0
			c0.112,0,0.222,0.01,0.332,0.04c0.269,0.073,0.425,0.25,0.489,0.513c0.031,0.126,0.041,0.254,0.041,0.384
			c-0.002,0.974-0.002,1.947,0,2.921c0,0.156-0.018,0.31-0.044,0.462c-0.079,0.45-0.347,0.719-0.799,0.797
			c-0.152,0.026-0.308,0.044-0.462,0.045c-0.689,0.005-1.379,0.001-2.068,0.005c-0.121,0.001-0.181-0.024-0.204-0.16
			C52.021,54.029,51.919,53.541,51.824,53.054z"/>
		<path fill="#FDFDFD" d="M45.749,53.023c-0.099,0.529-0.196,1.026-0.283,1.526c-0.02,0.115-0.077,0.131-0.175,0.131
			c-0.414-0.003-0.827-0.001-1.241-0.001c-0.586,0-1.172,0.001-1.758,0c-0.222,0-0.224-0.002-0.224-0.226
			c-0.001-1.835,0-3.671,0-5.506c0-0.965,0-1.93,0-2.895c0-0.242-0.019-0.219,0.225-0.219c1,0,1.999,0,2.999,0
			c0.226,0,0.224,0.002,0.267,0.235c0.076,0.415,0.155,0.829,0.233,1.243c0.009,0.05,0.027,0.1,0.007,0.154
			c-0.08,0.042-0.167,0.021-0.251,0.021c-0.483,0.002-0.965,0-1.448,0.002c-0.199,0.001-0.202,0.003-0.202,0.19
			c-0.001,0.569-0.001,1.137,0,1.706c0.001,0.179,0.004,0.182,0.184,0.183c0.371,0.002,0.741,0.005,1.112-0.002
			c0.124-0.002,0.164,0.036,0.162,0.161c-0.007,0.396-0.001,0.793-0.003,1.189c-0.001,0.183-0.004,0.186-0.183,0.187
			c-0.371,0.002-0.741,0.005-1.112-0.002c-0.121-0.002-0.165,0.03-0.163,0.159c0.007,0.526,0.002,1.051,0.003,1.577
			c0.001,0.183,0.004,0.186,0.183,0.187c0.457,0.002,0.913,0.001,1.37,0.001C45.537,53.023,45.622,53.023,45.749,53.023z"/>
		<path fill="#FCFCFC" d="M29.762,47.487c0.086-0.311,0.162-0.592,0.24-0.872c0.062-0.224,0.13-0.446,0.188-0.671
			c0.021-0.081,0.061-0.118,0.143-0.112c0.034,0.002,0.069,0,0.103,0c0.948,0,1.896,0,2.844,0c0.218,0,0.218,0.001,0.274,0.208
			c0.112,0.415,0.223,0.831,0.334,1.246c0.016,0.058,0.038,0.115,0.012,0.201c-0.291,0-0.59-0.002-0.889,0
			c-0.284,0.002-0.251-0.035-0.251,0.243c-0.001,1.422,0,2.844,0,4.267c0,0.819,0.001,1.638,0,2.457
			c0,0.223-0.002,0.224-0.226,0.225c-0.457,0.001-0.914,0.001-1.37,0c-0.218-0.001-0.22-0.002-0.22-0.23
			c-0.001-0.672,0-1.345,0-2.017c0-1.543,0-3.086,0-4.629c0-0.052-0.005-0.104,0.001-0.155c0.015-0.125-0.035-0.166-0.16-0.163
			C30.459,47.491,30.131,47.487,29.762,47.487z"/>
		<path fill="#FEFEFE" d="M34.423,50.242c0-1.371,0-2.741,0-4.112c0-0.06,0.004-0.121-0.001-0.181
			c-0.008-0.09,0.03-0.12,0.119-0.119c0.284,0.004,0.569,0.001,0.853,0.001c0.215,0,0.431,0.004,0.646-0.001
			c0.104-0.002,0.166,0.021,0.151,0.141c-0.006,0.051-0.001,0.103-0.001,0.155c0,2.75,0,5.5,0,8.249c0,0.017,0,0.034,0,0.052
			c0,0.278,0.017,0.251-0.25,0.251c-0.422,0-0.845,0.001-1.267,0c-0.262-0.001-0.252,0.04-0.252-0.247
			C34.423,53.035,34.423,51.638,34.423,50.242z"/>
		<path fill="#FBFBFB" d="M21.608,51.857c0.305,0.929,0.602,1.836,0.894,2.726c-0.041,0.07-0.088,0.056-0.127,0.056
			c-0.5,0.001-1-0.006-1.5,0.005c-0.151,0.003-0.207-0.05-0.247-0.187c-0.24-0.817-0.489-1.632-0.736-2.447
			c-0.024-0.079-0.027-0.176-0.152-0.171c-0.067,0.003-0.12,0.01-0.118,0.095c0.001,0.06,0,0.121,0,0.181
			c0,0.776,0.001,1.552-0.001,2.328c0,0.194-0.003,0.197-0.199,0.198c-0.466,0.002-0.931-0.003-1.397,0.003
			c-0.129,0.002-0.2-0.026-0.18-0.17c0.006-0.042,0.001-0.086,0.001-0.129c0-2.741,0-5.483,0-8.224c0-0.324-0.04-0.287,0.29-0.287
			c0.983-0.001,1.966-0.001,2.948,0c0.18,0,0.36-0.003,0.539,0.047c0.435,0.122,0.69,0.407,0.748,0.854
			c0.009,0.068,0.01,0.138,0.01,0.206c0.001,1.362-0.001,2.724,0.001,4.086c0,0.31-0.115,0.551-0.386,0.711
			C21.884,51.804,21.754,51.819,21.608,51.857z M19.621,48.891c0,0.448,0.006,0.895-0.003,1.343
			c-0.003,0.14,0.045,0.176,0.176,0.169c0.198-0.01,0.396-0.001,0.594-0.003c0.231-0.003,0.25-0.017,0.25-0.25
			c0.003-0.835,0.001-1.67,0.001-2.505c0-0.026-0.001-0.052-0.002-0.077c-0.005-0.126-0.066-0.187-0.195-0.185
			c-0.198,0.003-0.396,0-0.594,0.001c-0.246,0.001-0.226-0.025-0.226,0.216C19.62,48.031,19.621,48.461,19.621,48.891z"/>
		<path fill="#FDFDFD" d="M7.404,50.235c0-1.353,0-2.706,0-4.059c0-0.043,0-0.086,0-0.129c0-0.232-0.015-0.214,0.204-0.214
			c0.319,0,0.638,0,0.957,0c0.707,0,1.413,0,2.12,0c0.103,0,0.207-0.001,0.31,0.006c0.479,0.029,0.8,0.318,0.886,0.788
			c0.023,0.128,0.031,0.256,0.031,0.386c-0.001,2.069,0,4.137,0,6.206c0,0.225-0.019,0.447-0.074,0.666
			c-0.096,0.382-0.345,0.604-0.719,0.697c-0.168,0.042-0.339,0.059-0.512,0.059c-1,0-2,0-2.999,0.001
			c-0.219,0-0.203,0.01-0.203-0.217C7.404,53.027,7.404,51.631,7.404,50.235z M9.169,50.23c0,0.706,0,1.413,0,2.119
			c0,0.198,0.006,0.397-0.002,0.594c-0.005,0.117,0.044,0.147,0.152,0.143c0.181-0.007,0.362-0.001,0.543-0.002
			c0.279-0.001,0.289-0.011,0.296-0.288c0.001-0.026,0-0.052,0-0.078c0-1.663,0-3.326,0-4.988c0-0.06,0-0.121-0.005-0.181
			c-0.01-0.109-0.062-0.171-0.183-0.169c-0.198,0.004-0.396,0.002-0.594,0.001c-0.232-0.001-0.206-0.004-0.207,0.211
			C9.169,48.473,9.169,49.352,9.169,50.23z"/>
		<path fill="#FEFEFE" d="M27.923,45.832c-0.259,0.999-0.508,1.956-0.756,2.913c-0.084,0.325-0.164,0.651-0.255,0.973
			c-0.034,0.121-0.031,0.232-0.004,0.354c0.328,1.479,0.651,2.958,0.975,4.437c0.007,0.033,0.012,0.067,0.019,0.101
			c-0.093,0.053-0.189,0.027-0.28,0.028c-0.491,0.003-0.982-0.003-1.474,0.004c-0.139,0.002-0.186-0.041-0.212-0.181
			c-0.196-1.066-0.404-2.131-0.608-3.196c-0.006-0.034-0.009-0.068-0.017-0.102c-0.031-0.135-0.219-0.213-0.336-0.141
			c-0.034,0.021-0.039,0.054-0.04,0.088c-0.001,0.078-0.001,0.155-0.001,0.233c0,1.025,0,2.051,0,3.076
			c0,0.245,0.011,0.22-0.225,0.22c-0.448,0-0.896,0.001-1.344,0c-0.254,0-0.23,0.027-0.23-0.24c0-2.301,0-4.602,0-6.903
			c0-0.491,0.001-0.982-0.001-1.474c-0.001-0.2,0.001-0.192,0.176-0.192c0.483,0.001,0.965,0.001,1.448,0
			c0.169,0,0.178-0.017,0.178,0.189c-0.001,1.077-0.001,2.154-0.001,3.232c0,0.052-0.006,0.104,0.001,0.155
			c0.011,0.074-0.049,0.182,0.091,0.201c0.127,0.018,0.179-0.031,0.207-0.16c0.127-0.571,0.268-1.139,0.404-1.708
			c0.138-0.577,0.281-1.154,0.409-1.733c0.031-0.137,0.085-0.18,0.222-0.178C26.81,45.836,27.352,45.832,27.923,45.832z"/>
		<path fill="#FDFDFD" d="M17.367,54.64c-0.454,0-0.884,0.002-1.314-0.001c-0.146-0.001-0.319,0.055-0.43-0.024
			c-0.118-0.084-0.066-0.272-0.094-0.413c-0.034-0.177-0.061-0.357-0.081-0.536c-0.01-0.087-0.046-0.117-0.131-0.117
			c-0.319,0.003-0.638,0.005-0.957-0.001c-0.126-0.003-0.136,0.078-0.149,0.164c-0.038,0.264-0.079,0.528-0.11,0.793
			c-0.011,0.095-0.044,0.136-0.143,0.136c-0.542-0.003-1.085-0.001-1.646-0.001c0.022-0.322,0.096-0.619,0.149-0.919
			c0.337-1.882,0.679-3.762,1.019-5.643c0.123-0.678,0.244-1.356,0.367-2.034c0.037-0.203,0.038-0.205,0.243-0.205
			c0.5-0.001,1,0.003,1.5-0.002c0.129-0.001,0.195,0.018,0.222,0.171c0.285,1.611,0.58,3.22,0.871,4.83
			c0.216,1.195,0.432,2.389,0.648,3.584C17.344,54.481,17.352,54.54,17.367,54.64z M14.435,52.133c0.279,0,0.532,0,0.799,0
			c-0.126-0.981-0.25-1.947-0.374-2.912c-0.013-0.001-0.025-0.001-0.038-0.002C14.694,50.185,14.566,51.152,14.435,52.133z"/>
		<path fill="#58585A" d="M40.64,8.226l0.019,0.017l-0.007,0.024c-0.188,0.023-0.365-0.044-0.547-0.073
			C40.285,8.187,40.469,8.108,40.64,8.226z"/>
		<path fill="#050505" d="M48.195,48.92c0-0.456,0.003-0.912-0.002-1.368c-0.001-0.12,0.028-0.17,0.157-0.165
			c0.215,0.009,0.43,0,0.645,0.003c0.192,0.003,0.227,0.035,0.231,0.226c0.006,0.267,0.002,0.533,0.002,0.8
			c0,0.576,0.001,1.153-0.001,1.729c-0.001,0.258-0.02,0.275-0.281,0.279c-0.198,0.002-0.396-0.006-0.593,0.003
			c-0.128,0.006-0.161-0.044-0.16-0.165C48.198,49.814,48.195,49.367,48.195,48.92z"/>
		<path fill="#010101" d="M19.621,48.891c0-0.43,0-0.861,0-1.291c0-0.241-0.02-0.215,0.226-0.216
			c0.198-0.001,0.396,0.003,0.594-0.001c0.129-0.002,0.191,0.059,0.195,0.185c0.001,0.026,0.002,0.052,0.002,0.077
			c0,0.835,0.002,1.67-0.001,2.505c-0.001,0.234-0.019,0.248-0.25,0.25c-0.198,0.002-0.396-0.007-0.594,0.003
			c-0.131,0.006-0.179-0.029-0.176-0.169C19.626,49.787,19.621,49.339,19.621,48.891z"/>
		<path fill="#040404" d="M9.169,50.23c0-0.879,0-1.758,0-2.636c0-0.215-0.025-0.212,0.207-0.211
			c0.198,0.001,0.396,0.004,0.594-0.001c0.12-0.003,0.173,0.059,0.183,0.169c0.005,0.06,0.005,0.12,0.005,0.181
			c0,1.663,0,3.326,0,4.988c0,0.026,0.001,0.052,0,0.078c-0.007,0.276-0.017,0.286-0.296,0.288
			c-0.181,0.001-0.362-0.005-0.543,0.002c-0.108,0.004-0.156-0.025-0.152-0.143c0.008-0.198,0.002-0.396,0.002-0.594
			C9.169,51.643,9.169,50.937,9.169,50.23z"/>
		<path fill="#050505" d="M14.435,52.133c0.13-0.981,0.259-1.948,0.387-2.914c0.013,0.001,0.025,0.001,0.038,0.002
			c0.124,0.965,0.248,1.931,0.374,2.912C14.967,52.133,14.714,52.133,14.435,52.133z"/>
	</g>
</g>
</svg>
