<?xml version="1.0" encoding="utf-8"?>
<!-- Generator: Adobe Illustrator 23.0.2, SVG Export Plug-In . SVG Version: 6.00 Build 0)  -->
<svg version="1.1" id="Layer_1" xmlns="http://www.w3.org/2000/svg" xmlns:xlink="http://www.w3.org/1999/xlink" x="0px" y="0px"
	 width="64px" height="64px" viewBox="0 0 64 64" enable-background="new 0 0 64 64" xml:space="preserve">
<g>
	<path fill="#454545" stroke="#454545" stroke-width="0.0938" d="M22.111,0.559c4.428-0.473,8.892-0.704,13.344-0.463
		c2.166,0.122,4.337,0.257,6.485,0.562c-2.031,0.429-4.109,0.634-6.185,0.629c-1.828-0.001-3.657-0.043-5.483,0.054
		c-1.378,0.041-2.756,0.084-4.135,0.087c-0.607-0.013-1.225,0.017-1.818-0.135c-0.858-0.214-1.726-0.391-2.591-0.582
		C21.827,0.602,21.976,0.583,22.111,0.559z"/>
	<path stroke="#000000" stroke-width="0.0938" d="M17.969,0.457c1.013-0.229,2.075-0.148,3.075,0.112
		c0.35,0.112,0.714,0.041,1.068-0.009c-0.136,0.023-0.285,0.042-0.382,0.152c0.864,0.19,1.732,0.367,2.591,0.582
		c0.593,0.152,1.211,0.121,1.818,0.135c1.379-0.003,2.757-0.045,4.135-0.087c1.826-0.097,3.655-0.055,5.483-0.054
		c2.075,0.006,4.153-0.2,6.185-0.629c1.84-0.229,3.676,0.206,5.411,0.79c1.488,0.593,2.952,1.264,4.3,2.137
		c0.3,0.204,0.661,0.267,1.007,0.349c0.645,0.14,1.276,0.348,1.926,0.464c1.675,0.238,3.354,0.536,4.951,1.107
		c0.75,0.308,1.541,0.65,2.053,1.305c0.45,0.638,0.56,1.439,0.64,2.196c0.119,1.484-0.033,2.986-0.389,4.429
		c-0.31,1.374-1.078,2.62-2.14,3.542c-0.44,0.416-0.976,0.712-1.45,1.078c-0.314,2.983-0.771,5.959-1.499,8.872
		c-0.363,1.511-0.813,2.999-1.272,4.483c-0.174,0.947-0.543,1.839-0.972,2.695c-1.272,3.288-2.835,6.462-4.659,9.48
		c-0.072,0.078-0.11,0.241-0.244,0.222c-0.572,0.028-1.146,0-1.718,0.007c1.305-2.063,2.519-4.192,3.53-6.415
		c-0.881,0.608-1.836,1.107-2.828,1.508c-0.015-0.31-0.03-0.619-0.042-0.928c-0.37,0.122-0.731,0.267-1.093,0.411
		c0.076-0.231,0.154-0.49,0.047-0.725c-0.148-0.35-0.532-0.506-0.873-0.6c-0.789-0.197-1.613-0.174-2.418-0.133
		c-1.91,0.129-3.801,0.467-5.666,0.891c0.266-0.389,0.511-0.791,0.764-1.189c-2,0.003-3.92,0.743-5.629,1.735
		c-2.449,1.439-4.583,3.358-6.515,5.427c-3.686,0.042-7.374,0.01-11.06,0.016c-0.403-0.315-0.796-0.643-1.186-0.973
		c0.198,0.327,0.404,0.651,0.609,0.974c-0.61-0.051-1.24,0.067-1.837-0.051c-0.758-1.189-1.433-2.434-2.092-3.682
		c-0.355-0.644-0.621-1.335-1.017-1.955c-1.906-2.587-3.408-5.479-4.363-8.55c-0.076,0.098-0.154,0.195-0.228,0.295
		c-0.338,0.515-0.424,1.148-0.546,1.741c-0.265,1.71-0.302,3.446-0.297,5.173c-0.878-1.394-1.452-2.961-1.809-4.564
		C2.577,28.735,2.7,25.106,3.264,21.597c0.014-0.212,0.145-0.443,0.066-0.643c-0.526-0.294-1.076-0.543-1.599-0.843
		c0.571-1.09,1.208-2.148,1.956-3.127c0.404-0.565,0.853-1.095,1.299-1.626c-0.15-3.282-0.074-6.575,0.251-9.844
		c2.09-0.724,4.233-1.282,6.385-1.789c1.649-0.38,3.308-0.726,4.977-1.004c-0.086-0.455-0.131-0.934,0.048-1.374
		C16.918,0.86,17.437,0.573,17.969,0.457 M33.873,4.774c0.145-0.471,0.284-0.945,0.427-1.416c-2.696,0.146-5.393,0.275-8.089,0.433
		c0.236,0.557,0.518,1.094,0.837,1.606c0.272,0.417,0.564,0.848,1.007,1.1c-1.562-0.405-2.881-1.514-3.768-2.839
		c-0.069-0.084-0.116-0.226-0.251-0.214c-1.246-0.191-2.492-0.384-3.739-0.573c0.5,2.495,2.115,4.82,4.459,5.894
		c1.529,0.737,3.256,0.886,4.929,0.841c-0.682,1.007-1.118,2.234-0.971,3.463c-0.279-0.646-0.554-1.294-0.836-1.937
		c-1.165,0.117-2.35,0.006-3.479-0.303c-1.866-0.498-3.548-1.638-4.702-3.186c-0.459,0.278-0.889,0.598-1.337,0.892
		c0.153,1.414,0.42,2.817,0.819,4.182c0.385,1.293,0.901,2.579,1.773,3.626c-0.924-0.086-1.795-0.491-2.522-1.055
		c-1.434-1.121-2.324-2.789-2.887-4.489c-0.757,0.585-1.518,1.175-2.183,1.866c-0.184,0.219-0.456,0.455-0.38,0.775
		c0.08,0.518,0.304,1,0.52,1.474c0.674,1.4,1.557,2.695,2.585,3.86c1.077,1.212,2.338,2.284,3.798,3.006
		c-0.876-0.262-1.727-0.603-2.571-0.953c-2.646-1.135-5.257-2.526-7.291-4.601c-0.069,1.348,0.18,2.694,0.586,3.975
		c0.899,2.801,2.625,5.269,4.672,7.355c-1.686-0.5-3.332-1.16-4.858-2.036c-1.147-0.67-2.251-1.478-3.024-2.574
		c0.083,0.584,0.226,1.158,0.355,1.733c0.709,2.988,1.666,5.941,3.106,8.664c0.695,1.295,1.513,2.54,2.551,3.587
		c0.757,0.756,1.642,1.41,2.655,1.778c-0.007-1.442,0.066-2.887,0.26-4.316c0.133-0.916,0.303-1.836,0.642-2.702
		c0.207-0.508,0.477-1.026,0.94-1.346c-0.263,2.236-0.239,4.536,0.331,6.724c0.428,1.618,1.261,3.22,2.687,4.169
		c-0.15-1.502-0.284-3.006-0.431-4.508c0.587,0.495,1.177,0.987,1.763,1.483c-0.056-0.83-0.071-1.676,0.128-2.489
		c0.086-0.285,0.182-0.603,0.44-0.777c0.088,0.91,0.299,1.816,0.675,2.653c0.352,0.786,0.914,1.538,1.737,1.869
		c-0.543-1.079-0.83-2.354-0.481-3.538c0.342-1.184,1.246-2.112,2.25-2.779c1.193-0.783,2.542-1.318,3.929-1.644
		c-1.717-0.636-3.384-1.502-4.725-2.767c-0.716-0.684-1.324-1.514-1.617-2.47c0.923,0.812,1.883,1.589,2.939,2.223
		c0.962,0.58,2.009,1.076,3.137,1.206c-0.229,0.187-0.465,0.366-0.692,0.557c3.116-0.541,6.323-0.387,9.428,0.153
		c1.103,0.212,2.215,0.465,3.235,0.951c0.399,0.207,0.854,0.441,1.007,0.897c0.265,0.791-0.048,1.715-0.69,2.233
		c0.857-0.207,1.718-0.487,2.611-0.457c0.257,0.003,0.607,0.115,0.569,0.443c0.405-0.548,1.015-0.891,1.63-1.153
		c1.159-0.486,2.407-0.703,3.645-0.881c0.828-0.151,1.723-0.399,2.285-1.072c0.488-0.585,0.436-1.432,0.147-2.095
		c-0.148-0.311-0.273-0.711-0.645-0.811c-0.634-0.209-1.317-0.136-1.966-0.053c-1.146,0.173-2.265,0.496-3.357,0.876
		c-0.764,0.334-1.677,0.305-2.417-0.081c-1.548-0.748-2.989-1.691-4.433-2.619c-0.31-2.105-0.149-4.307,0.616-6.303
		c0.745-1.981,2.244-3.659,4.133-4.614c0.975-0.56,2.132-0.679,3.236-0.611c1.75,0.124,3.426,0.75,4.961,1.575
		c0.742,0.397,1.59,0.693,2.442,0.563c0.693-0.105,1.3-0.532,1.723-1.078c0.731-0.942,1.079-2.116,1.297-3.271
		c0.202-0.926,0.072-1.892-0.204-2.788c-0.308-0.984-0.958-1.9-1.91-2.346c-0.997-0.459-2.064-0.735-3.119-1.02
		c-3.002-0.762-6.048-1.357-9.119-1.761c-0.905-0.106-1.816-0.218-2.728-0.155c0.376-0.625,1.004-1.126,1.744-1.21
		c1.061-0.13,2.06,0.394,2.904,0.981c1.082-0.035,2.165-0.068,3.246-0.11C48.37,3.22,46.14,2.622,43.922,2.466
		C40.434,2.233,36.96,3.195,33.873,4.774 M43.181,4.454c1.095-0.038,2.181,0.155,3.249,0.372c-0.513-0.447-1.149-0.786-1.828-0.88
		C44.077,3.869,43.544,4.076,43.181,4.454 M6.878,6.97c-0.205,2.204-0.285,4.421-0.257,6.634c1.991-1.972,4.183-3.733,6.49-5.322
		c1.351-0.921,2.728-1.811,4.169-2.585c-0.054-0.395-0.161-0.781-0.238-1.171C13.607,5.121,10.204,5.92,6.878,6.97 M52.675,5.21
		c1.83,0.224,3.788,0.373,5.361,1.436c0.585-0.008,1.171-0.057,1.756-0.076C57.639,5.371,55.103,5.074,52.675,5.21 M60.403,10.234
		c0.283,1.424,0.062,2.91-0.465,4.252c-0.323,0.865-0.808,1.653-1.307,2.425c0.813-0.551,1.426-1.353,1.868-2.222
		c0.79-1.578,1.097-3.354,1.178-5.104C61.232,9.759,60.821,10.006,60.403,10.234 M46.312,18.238c0.863-0.398,1.899-0.48,2.77-0.059
		c0.445,0.226,0.689,0.713,0.751,1.193c0.099,0.753-0.043,1.517-0.278,2.232c0.93-0.558,1.535-1.607,1.524-2.696
		c0.071,0.224,0.151,0.445,0.235,0.665c0.161-0.097,0.304-0.22,0.435-0.355c0.133,0.141,0.253,0.292,0.368,0.448
		c0.138-0.116,0.276-0.234,0.413-0.353c0.333,0.747,0.173,1.584,0.146,2.371c1.199-0.507,1.775-1.791,2.199-2.938
		c-0.589,0.231-1.244,0.267-1.861,0.137c-1.1-0.223-2.068-0.813-3.064-1.298c-0.5-0.24-1.033-0.48-1.601-0.439
		C47.55,17.196,46.847,17.669,46.312,18.238 M55.775,19.087c-0.495,1.939-2.088,3.43-3.867,4.23
		c-0.119-0.795-0.293-1.58-0.409-2.375c-0.777,1.003-1.976,1.533-3.133,1.966c0.225-0.673,0.471-1.355,0.495-2.071
		c0-0.236-0.02-0.524-0.232-0.672c-0.238-0.144-0.539-0.046-0.758,0.087c-0.513,0.342-0.821,0.905-1.081,1.448
		c-0.542,1.208-0.839,2.523-0.925,3.844c-0.025,0.729-0.029,1.502,0.311,2.169c0.174,0.36,0.615,0.62,1.005,0.437
		c0.58-0.262,0.94-0.825,1.277-1.34c0.574-0.939,1.022-1.95,1.402-2.981c0.862,0.575,1.444,1.574,1.376,2.626
		c0.649-0.725,1.282-1.464,1.948-2.172c0.247,1.029,0.518,2.058,0.864,3.06c0.272,0.256,0.543,0.512,0.781,0.802
		c0.791-3.05,1.394-6.159,1.659-9.3C56.256,18.939,56.017,19.017,55.775,19.087 M43.77,24.829c-0.102,0.645-0.106,1.32,0.081,1.949
		c0.3,0.206,0.68,0.273,1.021,0.399c-0.408-1.806,0.083-3.695,0.969-5.283c0.21-0.413,0.503-0.776,0.714-1.187
		C45.158,21.658,44.049,23.138,43.77,24.829 M50.036,24.953c-0.325,1.354-1.148,2.529-2.07,3.549
		c1.683-0.867,3.625-1.203,5.503-0.999c-0.189-0.723-0.369-1.449-0.548-2.174c-0.657,0.69-1.339,1.358-2.059,1.983
		C50.88,26.463,50.593,25.599,50.036,24.953z"/>
	<path fill="#454545" stroke="#454545" stroke-width="0.0938" d="M10.872,2.503c1.913-0.44,3.832-0.868,5.774-1.155
		c-0.179,0.439-0.134,0.919-0.048,1.374c-1.67,0.278-3.328,0.624-4.977,1.004C9.469,4.231,7.326,4.79,5.236,5.514
		c-0.325,3.269-0.401,6.562-0.251,9.844c-0.446,0.532-0.895,1.061-1.299,1.626c-0.08-1.983-0.192-3.968-0.133-5.954
		C3.59,8.855,3.739,6.682,3.966,4.518C6.218,3.685,8.542,3.069,10.872,2.503z"/>
	<path fill="#454545" stroke="#454545" stroke-width="0.0938" d="M47.352,1.449c2.207,0.349,4.387,0.854,6.556,1.391
		c1.868,0.491,3.738,0.997,5.545,1.686c0.027,0.327,0.067,0.653,0.084,0.98c-1.598-0.571-3.276-0.869-4.951-1.107
		c-0.651-0.116-1.281-0.324-1.926-0.464c-0.346-0.082-0.707-0.145-1.007-0.349C50.303,2.713,48.84,2.042,47.352,1.449z"/>
	<path fill="#FFFFFF" stroke="#FFFFFF" stroke-width="0.0938" d="M33.873,4.774c3.087-1.579,6.561-2.541,10.049-2.309
		c2.219,0.157,4.449,0.755,6.326,1.973c-1.081,0.041-2.164,0.075-3.246,0.11c-0.844-0.587-1.843-1.111-2.904-0.981
		c-0.74,0.085-1.368,0.585-1.744,1.21c0.912-0.063,1.823,0.049,2.728,0.155c3.071,0.404,6.117,0.999,9.119,1.761
		c1.055,0.285,2.122,0.561,3.119,1.02c0.952,0.446,1.602,1.362,1.91,2.346c0.276,0.896,0.406,1.862,0.204,2.788
		c-0.217,1.155-0.566,2.329-1.297,3.271c-0.424,0.546-1.03,0.973-1.723,1.078c-0.853,0.13-1.7-0.166-2.442-0.563
		c-1.535-0.826-3.211-1.451-4.961-1.575c-1.103-0.067-2.261,0.051-3.236,0.611c-1.89,0.955-3.388,2.633-4.133,4.614
		c-0.765,1.996-0.926,4.198-0.616,6.303c1.444,0.929,2.886,1.872,4.433,2.619c0.74,0.385,1.653,0.414,2.417,0.081
		c1.092-0.38,2.211-0.703,3.357-0.876c0.649-0.083,1.331-0.156,1.966,0.053c0.372,0.1,0.497,0.5,0.645,0.811
		c0.289,0.663,0.341,1.51-0.147,2.095c-0.561,0.673-1.457,0.921-2.285,1.072c-1.238,0.179-2.486,0.395-3.645,0.881
		c-0.615,0.262-1.226,0.606-1.63,1.153c0.037-0.328-0.312-0.44-0.569-0.443c-0.893-0.031-1.753,0.25-2.611,0.457
		c0.642-0.518,0.955-1.442,0.69-2.233c-0.154-0.456-0.608-0.69-1.007-0.897c-1.02-0.485-2.131-0.738-3.235-0.951
		c-3.105-0.54-6.311-0.694-9.428-0.153c0.227-0.19,0.463-0.369,0.692-0.557c-1.128-0.131-2.175-0.627-3.137-1.206
		c-1.056-0.634-2.017-1.411-2.939-2.223c0.293,0.956,0.901,1.786,1.617,2.47c1.341,1.265,3.009,2.131,4.725,2.767
		c-1.386,0.326-2.736,0.86-3.929,1.644c-1.004,0.667-1.908,1.595-2.25,2.779c-0.349,1.184-0.062,2.46,0.481,3.538
		c-0.823-0.331-1.385-1.082-1.737-1.869c-0.376-0.837-0.586-1.743-0.675-2.653c-0.259,0.174-0.355,0.492-0.44,0.777
		c-0.199,0.812-0.184,1.659-0.128,2.489c-0.586-0.496-1.176-0.988-1.763-1.483c0.147,1.502,0.281,3.006,0.431,4.508
		c-1.426-0.949-2.259-2.551-2.687-4.169c-0.57-2.188-0.594-4.488-0.331-6.724c-0.463,0.32-0.733,0.837-0.94,1.346
		c-0.339,0.866-0.509,1.786-0.642,2.702c-0.194,1.429-0.267,2.874-0.26,4.316c-1.013-0.368-1.897-1.023-2.655-1.778
		c-1.038-1.048-1.856-2.293-2.551-3.587c-1.44-2.722-2.396-5.675-3.106-8.664c-0.129-0.575-0.272-1.149-0.355-1.733
		c0.773,1.096,1.877,1.904,3.024,2.574c1.526,0.876,3.172,1.536,4.858,2.036c-2.046-2.087-3.773-4.554-4.672-7.355
		c-0.407-1.28-0.656-2.627-0.586-3.975c2.034,2.075,4.645,3.466,7.291,4.601c0.844,0.35,1.696,0.69,2.571,0.953
		c-1.46-0.722-2.721-1.794-3.798-3.006c-1.028-1.165-1.911-2.461-2.585-3.86c-0.216-0.474-0.44-0.955-0.52-1.474
		c-0.076-0.32,0.196-0.556,0.38-0.775c0.665-0.691,1.426-1.28,2.183-1.866c0.562,1.7,1.452,3.368,2.887,4.489
		c0.728,0.564,1.599,0.97,2.522,1.055c-0.873-1.047-1.388-2.333-1.773-3.626c-0.399-1.365-0.666-2.768-0.819-4.182
		c0.448-0.294,0.879-0.614,1.337-0.892c1.154,1.549,2.837,2.689,4.702,3.186c1.128,0.309,2.314,0.42,3.479,0.303
		c0.283,0.643,0.558,1.291,0.836,1.937c-0.147-1.229,0.288-2.456,0.971-3.463c-1.674,0.045-3.4-0.104-4.929-0.841
		c-2.344-1.075-3.959-3.399-4.459-5.894c1.247,0.189,2.493,0.382,3.739,0.573c0.135-0.012,0.182,0.131,0.251,0.214
		c0.887,1.325,2.206,2.434,3.768,2.839c-0.443-0.252-0.735-0.682-1.007-1.1c-0.319-0.512-0.602-1.05-0.837-1.606
		c2.695-0.158,5.393-0.286,8.089-0.433C34.157,3.83,34.018,4.303,33.873,4.774 M40.16,5.903c-2.706,0.36-5.368,1.292-7.596,2.887
		c0.908-0.436,1.897-0.713,2.906-0.773c-0.391,0.774-0.984,1.448-1.715,1.918c0.808-0.231,1.645-0.35,2.478-0.451
		c1.202-0.122,2.442-0.17,3.617,0.161c0.703,0.202,1.414,0.623,1.693,1.333c3.645-0.142,7.289-0.348,10.935-0.504
		c0.123-0.003,0.245-0.028,0.366-0.054c-1.783-0.087-3.561-0.271-5.343-0.395c0.316-0.282,0.642-0.556,0.915-0.882
		c-2.681-0.349-5.368-0.642-8.054-0.95c-0.222-0.012-0.444-0.013-0.652-0.104c4.919,0.377,9.852,0.63,14.775,0.978
		c-1.619-0.32-3.248-0.581-4.872-0.874c0.548-0.354,1.088-0.718,1.642-1.062c-0.192-0.171-0.468-0.188-0.7-0.281
		C47.205,5.843,43.641,5.451,40.16,5.903 M31.089,11.022c-0.431,1.168-0.707,2.419-0.589,3.669c0.093,1.006,0.477,2.012,1.204,2.732
		c-0.324,0.152-0.662,0.28-0.964,0.475c1.42,0.535,2.836,1.079,4.248,1.633c-0.578-0.56-1.178-1.103-1.676-1.739
		C31.774,15.917,30.834,13.468,31.089,11.022 M41.575,11.363c0.02,0.538,0.05,1.076,0.077,1.614
		c3.191-0.171,6.384-0.306,9.576-0.463c0.386-0.023,0.778-0.014,1.16-0.089c-1.124-0.034-2.242-0.164-3.362-0.238
		c-0.312-0.041-0.64-0.017-0.943-0.093c-0.088-0.339-0.147-0.685-0.22-1.028C45.765,11.164,43.67,11.266,41.575,11.363
		 M25.85,18.237c-0.381-0.279-0.675-0.652-0.922-1.05c0.051,1.38,0.357,2.777,1.076,3.97c0.747,1.274,1.944,2.256,3.306,2.811
		c0.833,0.359,1.738,0.49,2.59,0.795c2.632,0.894,5.136,2.119,7.599,3.396c-0.505-2.306-0.737-4.725-0.242-7.054
		c0.373-1.784,1.268-3.478,2.64-4.694c1.801-1.61,4.219-2.42,6.608-2.545c-0.016-0.266-0.029-0.533-0.039-0.799
		c-2.271,0.103-4.543,0.22-6.814,0.319c-0.055,0.51-0.377,0.93-0.701,1.306c-0.524,0.598-1.126,1.121-1.735,1.628
		c-0.415,0.352-0.879,0.656-1.223,1.083c-0.704,0.847-1.042,1.934-1.199,3.009c-0.19,1.392-0.122,2.813,0.124,4.194
		c-1.368,0.09-2.759-0.031-4.069-0.444c-1.813-0.568-3.477-1.689-4.583-3.244c1.093,0.569,2.291,1.045,3.546,0.977
		c-0.47-0.266-0.956-0.509-1.387-0.839c-1.263-0.925-2.237-2.198-2.952-3.582c-0.745-1.448-1.243-3.017-1.512-4.622
		C25.569,14.615,25.55,16.458,25.85,18.237z"/>
	<path fill="#FFFFFF" stroke="#FFFFFF" stroke-width="0.0938" d="M43.181,4.454c0.363-0.379,0.896-0.585,1.421-0.508
		c0.68,0.093,1.315,0.433,1.828,0.88C45.362,4.609,44.276,4.416,43.181,4.454z"/>
	<path fill="#FFFFFF" stroke="#FFFFFF" stroke-width="0.0938" d="M6.878,6.97c3.326-1.05,6.729-1.849,10.164-2.443
		c0.078,0.39,0.185,0.776,0.238,1.171c-1.441,0.774-2.818,1.664-4.169,2.585c-2.307,1.589-4.5,3.35-6.49,5.322
		C6.592,11.391,6.673,9.174,6.878,6.97z"/>
	<path fill="#FFFFFF" stroke="#FFFFFF" stroke-width="0.0938" d="M52.675,5.21c2.428-0.136,4.964,0.161,7.117,1.36
		c-0.585,0.019-1.171,0.068-1.756,0.076C56.463,5.583,54.505,5.434,52.675,5.21z"/>
	<path stroke="#000000" stroke-width="0.0938" d="M40.16,5.903c3.481-0.452,7.045-0.06,10.397,0.948
		c0.232,0.092,0.508,0.11,0.7,0.281c-0.554,0.344-1.094,0.708-1.642,1.062c1.624,0.293,3.253,0.554,4.872,0.874
		C49.563,8.719,44.63,8.467,39.712,8.09c0.208,0.09,0.43,0.092,0.652,0.104c2.686,0.308,5.373,0.601,8.054,0.95
		c-0.273,0.327-0.599,0.601-0.915,0.882c1.781,0.124,3.559,0.309,5.343,0.395c-0.121,0.026-0.243,0.051-0.366,0.054
		c-3.646,0.156-7.29,0.361-10.935,0.504c-0.279-0.71-0.99-1.131-1.693-1.333c-1.175-0.332-2.415-0.284-3.617-0.161
		c-0.833,0.101-1.67,0.22-2.478,0.451c0.731-0.47,1.324-1.144,1.715-1.918c-1.008,0.06-1.997,0.336-2.906,0.773
		C34.793,7.195,37.455,6.263,40.16,5.903z"/>
	<path fill="#FFFFFF" stroke="#FFFFFF" stroke-width="0.0938" d="M60.403,10.234c0.418-0.228,0.829-0.475,1.274-0.65
		c-0.082,1.75-0.388,3.526-1.178,5.104c-0.442,0.869-1.054,1.672-1.868,2.222c0.499-0.772,0.984-1.56,1.307-2.425
		C60.465,13.144,60.686,11.658,60.403,10.234z"/>
	<path stroke="#000000" stroke-width="0.0938" d="M31.089,11.022c-0.256,2.445,0.684,4.895,2.222,6.77
		c0.498,0.636,1.099,1.178,1.676,1.739c-1.412-0.554-2.828-1.098-4.248-1.633c0.302-0.195,0.64-0.323,0.964-0.475
		c-0.728-0.72-1.111-1.725-1.204-2.732C30.382,13.442,30.659,12.19,31.089,11.022z"/>
	<path stroke="#000000" stroke-width="0.0938" d="M41.575,11.363c2.095-0.097,4.191-0.199,6.287-0.298
		c0.073,0.342,0.132,0.688,0.22,1.028c0.303,0.076,0.631,0.052,0.943,0.093c1.121,0.074,2.239,0.205,3.362,0.238
		c-0.383,0.075-0.774,0.066-1.16,0.089c-3.192,0.158-6.384,0.292-9.576,0.463C41.625,12.438,41.595,11.901,41.575,11.363z"/>
	<path stroke="#000000" stroke-width="0.0938" d="M25.85,18.237c-0.3-1.778-0.281-3.622,0.11-5.384
		c0.269,1.604,0.767,3.174,1.512,4.622c0.715,1.383,1.689,2.657,2.952,3.582c0.431,0.33,0.917,0.573,1.387,0.839
		c-1.255,0.068-2.453-0.408-3.546-0.977c1.106,1.555,2.77,2.676,4.583,3.244c1.31,0.413,2.701,0.534,4.069,0.444
		c-0.246-1.381-0.314-2.802-0.124-4.194c0.157-1.075,0.495-2.162,1.199-3.009c0.344-0.428,0.807-0.731,1.223-1.083
		c0.609-0.508,1.211-1.03,1.735-1.628c0.324-0.377,0.646-0.796,0.701-1.306c2.271-0.099,4.543-0.216,6.814-0.319
		c0.011,0.266,0.023,0.533,0.039,0.799c-2.389,0.125-4.806,0.935-6.608,2.545c-1.372,1.216-2.267,2.91-2.64,4.694
		c-0.495,2.328-0.262,4.748,0.242,7.054c-2.464-1.277-4.968-2.502-7.599-3.396c-0.852-0.305-1.756-0.436-2.59-0.795
		c-1.362-0.555-2.559-1.537-3.306-2.811c-0.719-1.193-1.025-2.59-1.076-3.97C25.175,17.585,25.469,17.958,25.85,18.237z"/>
	<path fill="#454545" stroke="#454545" stroke-width="0.0938" d="M58.251,18.057c0.474-0.365,1.009-0.661,1.45-1.078
		c-0.654,9.532-3.563,18.916-8.544,27.077c0.038,0.026,0.115,0.078,0.154,0.104c0.459-0.202,0.952-0.343,1.456-0.341
		c1.414,0.001,2.829,0.001,4.243,0.001c0.344,1.884,0.699,3.767,1.044,5.651c-0.162-0.001-0.324-0.001-0.485-0.001
		c0.082,0.35,0.126,0.709,0.121,1.071c-0.002,0.959,0.001,1.919-0.006,2.878c-0.011,0.841-0.258,1.717-0.857,2.331
		c-0.598,0.625-1.48,0.896-2.327,0.916c-4.454,0.002-8.909-0.004-13.363,0.003c-2.402,2.34-4.98,4.504-7.756,6.388
		c-0.463,0.307-0.927,0.616-1.41,0.891c-0.329,0.154-0.659-0.065-0.93-0.237c-3.174-2.028-6.078-4.455-8.784-7.07
		c-5.634-0.003-11.267,0.002-16.899-0.003c0-4.273,0-8.545,0-12.819c1.865,0.002,3.729,0.001,5.593,0
		c0.421-0.009,0.825,0.126,1.223,0.247c-0.031-0.256-0.197-0.459-0.318-0.676c-2.433-4.141-4.371-8.573-5.742-13.176
		c-0.03-0.086-0.09-0.256-0.121-0.34c0.074-0.1,0.152-0.197,0.228-0.295c0.955,3.071,2.457,5.963,4.363,8.55
		c0.396,0.62,0.662,1.311,1.017,1.955c0.658,1.248,1.333,2.492,2.092,3.682c0.597,0.118,1.227,0,1.837,0.051
		c0.192,0.003,0.384,0,0.577-0.001c3.686-0.007,7.374,0.026,11.06-0.016c6.907,0.041,13.816,0.008,20.724,0.016
		c0.572-0.007,1.146,0.021,1.718-0.007c0.135,0.019,0.172-0.144,0.244-0.222c1.824-3.017,3.387-6.191,4.659-9.48
		c0.429-0.856,0.798-1.748,0.972-2.695c0.459-1.484,0.908-2.972,1.272-4.483C57.48,24.015,57.937,21.039,58.251,18.057 M6.36,44.856
		c0.012,3.585,0.012,7.171,0,10.756c1.946,0.041,3.894-0.006,5.84,0.014c5.641-0.001,11.282,0.004,16.922-0.003
		c-0.364-1.686-0.747-3.368-1.11-5.054c-0.05-0.265-0.164-0.533-0.112-0.806c0.416-1.647,0.881-3.283,1.267-4.936
		c-2.26-0.013-4.521,0.001-6.781-0.008c-0.171-0.039-0.293,0.153-0.459,0.101c-0.288-0.057-0.58-0.111-0.876-0.101
		c-1.409,0.012-2.819-0.014-4.228,0.013c0.003,0.341,0.014,0.684-0.037,1.023c-0.108-0.332-0.12-0.685-0.225-1.018
		c-1.174-0.015-2.347-0.01-3.521-0.002c-0.137,0.418-0.118,0.874-0.288,1.282c-0.257-0.757-1.003-1.293-1.802-1.292
		c-1.376-0.012-2.75,0.002-4.126-0.008C6.667,44.816,6.514,44.833,6.36,44.856 M29.437,44.847c-0.32,1.203-0.682,2.395-0.999,3.6
		c0.48,0.035,0.962,0.021,1.444,0.004c0.03,0.149,0.052,0.3,0.047,0.453c-0.013,2.242,0.009,4.484-0.012,6.726
		c0.405,0.056,0.812,0.024,1.219,0.031c1.986-0.002,3.972,0.004,5.958-0.004c0.046-0.037,0.139-0.111,0.186-0.148
		c0.345,0.121,0.711,0.155,1.076,0.152c5.317-0.001,10.633,0,15.95,0c0.605,0.005,1.247-0.124,1.71-0.538
		c0.477-0.424,0.653-1.086,0.661-1.703c0.005-0.993-0.001-1.986,0.002-2.979c0.015-0.588-0.194-1.217-0.679-1.579
		c-0.462-0.349-1.054-0.379-1.609-0.392c0.811-0.046,1.625,0.032,2.438-0.014c-0.209-1.214-0.425-2.428-0.677-3.632
		c-1.126,0.004-2.252-0.007-3.378,0.004c-0.529,0-1.029,0.211-1.445,0.525c-0.437-0.35-0.987-0.54-1.548-0.528
		c-3.909-0.002-7.818,0.001-11.726-0.002c-0.262-0.002-0.522,0.04-0.78,0.083c-0.212-0.075-0.435-0.095-0.657-0.084
		C34.225,44.841,31.829,44.786,29.437,44.847 M26.622,56.638c-0.76,0.017-1.522-0.011-2.281,0.024
		c0.051,0.106,0.121,0.197,0.211,0.274c2.244,2.03,4.6,3.955,7.161,5.575c1.787-1.143,3.478-2.43,5.104-3.789
		c0.765-0.662,1.559-1.301,2.261-2.031c-0.629-0.034-1.257-0.013-1.886-0.023c-0.186,0.005-0.392-0.017-0.553,0.094l0.077-0.093
		c-2.5-0.005-5-0.001-7.5-0.002C28.353,56.608,27.486,56.641,26.622,56.638z"/>
	<path fill="#FFFFFF" stroke="#FFFFFF" stroke-width="0.0938" d="M46.312,18.238c0.534-0.569,1.237-1.043,2.037-1.09
		c0.568-0.04,1.102,0.199,1.601,0.439c0.997,0.484,1.965,1.075,3.064,1.298c0.617,0.13,1.272,0.093,1.861-0.137
		c-0.424,1.147-1.001,2.431-2.199,2.938c0.027-0.787,0.186-1.624-0.146-2.371c-0.137,0.119-0.275,0.236-0.413,0.353
		c-0.115-0.156-0.236-0.307-0.368-0.448c-0.132,0.135-0.275,0.258-0.435,0.355c-0.084-0.22-0.163-0.441-0.235-0.665
		c0.012,1.089-0.593,2.139-1.524,2.696c0.235-0.715,0.377-1.479,0.278-2.232c-0.062-0.48-0.306-0.967-0.751-1.193
		C48.212,17.759,47.176,17.84,46.312,18.238z"/>
	<path fill="#FFFFFF" stroke="#FFFFFF" stroke-width="0.0938" d="M55.775,19.087c0.242-0.07,0.482-0.148,0.716-0.243
		c-0.265,3.141-0.868,6.25-1.659,9.3c-0.238-0.289-0.509-0.546-0.781-0.802c-0.346-1.002-0.617-2.03-0.864-3.06
		c-0.666,0.708-1.3,1.448-1.948,2.172c0.067-1.053-0.514-2.051-1.376-2.626c-0.381,1.03-0.829,2.042-1.402,2.981
		c-0.336,0.515-0.697,1.078-1.277,1.34c-0.39,0.183-0.831-0.078-1.005-0.437c-0.34-0.666-0.336-1.44-0.311-2.169
		c0.086-1.321,0.383-2.636,0.925-3.844c0.26-0.543,0.568-1.105,1.081-1.448c0.219-0.134,0.52-0.232,0.758-0.087
		c0.211,0.148,0.232,0.435,0.232,0.672c-0.024,0.716-0.27,1.399-0.495,2.071c1.156-0.433,2.356-0.963,3.133-1.966
		c0.115,0.795,0.289,1.58,0.409,2.375C53.687,22.517,55.28,21.026,55.775,19.087z"/>
	<path fill="#454545" stroke="#454545" stroke-width="0.0938" d="M43.77,24.829c0.279-1.691,1.388-3.171,2.785-4.122
		c-0.211,0.411-0.505,0.774-0.714,1.187c-0.886,1.588-1.376,3.477-0.969,5.283c-0.341-0.126-0.721-0.193-1.021-0.399
		C43.664,26.148,43.668,25.474,43.77,24.829z"/>
	<path fill="#FFFFFF" stroke="#FFFFFF" stroke-width="0.0938" d="M50.036,24.953c0.557,0.646,0.844,1.51,0.827,2.359
		c0.72-0.625,1.401-1.293,2.059-1.983c0.179,0.726,0.359,1.451,0.548,2.174c-1.878-0.205-3.82,0.132-5.503,0.999
		C48.889,27.482,49.711,26.307,50.036,24.953z"/>
	<path fill="#FFFFFF" stroke="#FFFFFF" stroke-width="0.0938" d="M33.679,38.372c1.709-0.992,3.629-1.732,5.629-1.735
		c-0.253,0.398-0.498,0.8-0.764,1.189c1.866-0.424,3.756-0.762,5.666-0.891c0.806-0.041,1.629-0.064,2.418,0.133
		c0.341,0.094,0.725,0.25,0.873,0.6c0.107,0.235,0.029,0.494-0.047,0.725c0.361-0.144,0.723-0.289,1.093-0.411
		c0.012,0.309,0.027,0.618,0.042,0.928c0.992-0.401,1.946-0.9,2.828-1.508c-1.01,2.223-2.224,4.352-3.53,6.415
		c-6.908-0.009-13.817,0.025-20.724-0.016C29.096,41.73,31.23,39.811,33.679,38.372z"/>
	<path fill="#FFFFFF" stroke="#FFFFFF" stroke-width="0.0938" d="M14.918,42.843c0.39,0.33,0.783,0.657,1.186,0.973
		c-0.192,0.001-0.384,0.004-0.577,0.001C15.321,43.494,15.116,43.17,14.918,42.843z"/>
	<path stroke="#000000" stroke-width="0.0938" d="M6.36,44.856c0.154-0.023,0.308-0.04,0.462-0.037
		c1.376,0.01,2.75-0.005,4.126,0.008c0.8-0.001,1.546,0.534,1.802,1.292c0.17-0.409,0.151-0.864,0.288-1.282
		c1.174-0.008,2.347-0.013,3.521,0.002c0.105,0.333,0.117,0.686,0.225,1.018c0.052-0.338,0.04-0.682,0.037-1.023
		c1.409-0.028,2.819-0.001,4.228-0.013c0.296-0.01,0.587,0.044,0.876,0.101c0.166,0.052,0.288-0.14,0.459-0.101
		c2.261,0.009,4.522-0.006,6.781,0.008c-0.385,1.653-0.851,3.289-1.267,4.936c-0.052,0.273,0.062,0.54,0.112,0.806
		c0.363,1.686,0.746,3.368,1.11,5.054c-5.641,0.007-11.282,0.002-16.922,0.003c-1.946-0.02-3.895,0.027-5.84-0.014
		C6.372,52.027,6.372,48.441,6.36,44.856 M7.367,45.817c-0.004,2.936,0.007,5.872-0.006,8.808c1.035,0.014,2.07,0.004,3.106,0.006
		c0.379-0.005,0.806-0.036,1.089-0.317c0.28-0.285,0.306-0.709,0.31-1.085c-0.005-2.145,0.007-4.29-0.006-6.434
		c0.016-0.502-0.394-0.963-0.903-0.967C9.761,45.804,8.564,45.824,7.367,45.817 M13.85,45.837c-0.521,2.932-1.054,5.862-1.589,8.79
		c0.583,0.003,1.165,0.012,1.748-0.001c0.136-0.335,0.106-0.74,0.198-1.098c0.397,0.022,0.795-0.015,1.191,0.02
		c0.091,0.353,0.059,0.75,0.198,1.079c0.58,0.009,1.161,0.002,1.741,0c-0.536-2.932-1.06-5.865-1.595-8.797
		C15.112,45.817,14.48,45.81,13.85,45.837 M17.811,45.831c0.012,2.934,0.002,5.867,0.005,8.801c0.588,0.001,1.177-0.001,1.765,0.001
		c-0.003-0.933,0.011-1.866-0.007-2.798c0.083-0.003,0.166-0.003,0.249-0.003c0.27,0.939,0.553,1.874,0.85,2.805
		c0.605-0.01,1.209-0.004,1.814-0.004c-0.307-0.932-0.607-1.867-0.924-2.795c0.399-0.014,0.777-0.317,0.786-0.732
		c0.015-1.343,0.001-2.686,0.007-4.029c0.007-0.348-0.05-0.735-0.323-0.979c-0.291-0.266-0.708-0.285-1.081-0.281
		C19.905,45.828,18.857,45.798,17.811,45.831 M23.097,45.833c0.014,2.933,0.002,5.865,0.007,8.799
		c0.603-0.007,1.205,0.013,1.808-0.012c-0.015-1.208-0.001-2.417-0.008-3.625c0.117,0,0.236,0,0.354,0.002
		c0.234,1.213,0.45,2.43,0.702,3.64c0.638-0.011,1.277-0.006,1.915-0.003c-0.319-1.593-0.709-3.171-1.027-4.762
		c0.335-1.355,0.7-2.704,1.05-4.055c-0.61,0.004-1.222-0.01-1.832,0.008c-0.289,1.258-0.6,2.512-0.891,3.77
		c-0.067,0.001-0.203,0.003-0.27,0.005c0.003-1.261,0.001-2.522,0.001-3.782C24.302,45.826,23.698,45.798,23.097,45.833z"/>
	<path stroke="#000000" stroke-width="0.0938" d="M29.437,44.847c2.392-0.062,4.788-0.006,7.181-0.028
		c0.222-0.012,0.445,0.009,0.657,0.084c0.258-0.042,0.517-0.085,0.78-0.083c3.908,0.003,7.817,0,11.726,0.002
		c0.56-0.012,1.11,0.178,1.548,0.528c0.416-0.313,0.916-0.525,1.445-0.525c1.126-0.011,2.252,0,3.378-0.004
		c0.252,1.204,0.468,2.418,0.677,3.632c-0.812,0.046-1.626-0.032-2.438,0.014c0.556,0.013,1.147,0.043,1.609,0.392
		c0.484,0.362,0.694,0.991,0.679,1.579c-0.003,0.993,0.003,1.986-0.002,2.979c-0.009,0.617-0.185,1.279-0.661,1.703
		c-0.463,0.414-1.105,0.543-1.71,0.538c-5.317,0-10.633-0.001-15.95,0c-0.364,0.003-0.731-0.031-1.076-0.152
		c-0.046,0.037-0.139,0.111-0.186,0.148c-1.986,0.008-3.972,0.002-5.958,0.004c-0.407-0.007-0.814,0.025-1.219-0.031
		c0.02-2.242-0.002-4.484,0.012-6.726c0.005-0.153-0.017-0.304-0.047-0.453c-0.482,0.017-0.964,0.031-1.444-0.004
		C28.755,47.243,29.117,46.051,29.437,44.847 M30.203,45.823c-0.147,0.55-0.31,1.097-0.459,1.647
		c0.394-0.001,0.788-0.002,1.183,0.001c-0.004,2.396,0,4.794-0.002,7.19c0.603-0.001,1.206,0.002,1.81-0.002
		c-0.003-2.397-0.002-4.794,0-7.191c0.392,0.002,0.784,0.001,1.177,0.002c-0.139-0.554-0.285-1.107-0.442-1.656
		C32.381,45.826,31.292,45.807,30.203,45.823 M34.402,45.817c-0.001,2.947-0.006,5.895,0.002,8.843
		c0.59,0.001,1.18-0.001,1.771,0.001c-0.001-2.948,0-5.896,0-8.844C35.583,45.817,34.992,45.817,34.402,45.817 M37.177,46.104
		c-0.228,0.229-0.278,0.568-0.277,0.878c0,2.084,0,4.168,0.001,6.252c0.008,0.366,0.022,0.773,0.271,1.067
		c0.262,0.306,0.697,0.359,1.077,0.36c1.04,0.003,2.08-0.001,3.12,0.002c0.002-1.699,0-3.4,0.002-5.099c-0.575,0-1.15,0-1.723,0
		c-0.005,1.165,0.012,2.33-0.008,3.495c-0.31-0.007-0.62-0.003-0.93-0.014c-0.051-0.643-0.011-1.289-0.023-1.933
		c0.018-1.211-0.038-2.426,0.028-3.635c0.69-0.012,1.38-0.003,2.07-0.005c-0.102-0.551-0.205-1.1-0.305-1.65
		c-0.809-0.006-1.619,0-2.427-0.003C37.742,45.81,37.399,45.865,37.177,46.104 M42.064,45.817c0,2.948,0,5.896,0,8.844
		c1.123-0.003,2.246,0.001,3.37-0.002c0.097-0.55,0.204-1.098,0.302-1.647c-0.621-0.008-1.244,0.02-1.865-0.014
		c0.027-0.636,0.008-1.273,0.012-1.909c0.487,0.001,0.976-0.001,1.463,0.001c0.002-0.508-0.003-1.015,0.003-1.522
		c-0.488-0.014-0.977-0.005-1.464-0.006c0-0.699-0.001-1.397,0-2.095c0.64,0.003,1.28-0.003,1.921,0.003
		c-0.085-0.52-0.187-1.036-0.281-1.554c-0.012-0.17-0.245-0.076-0.35-0.103C44.137,45.82,43.1,45.815,42.064,45.817 M46.414,45.817
		c0,2.947,0,5.894-0.001,8.842c0.591,0.003,1.183-0.001,1.774,0.002c0.006-0.945-0.01-1.89,0.008-2.835
		c0.057,0.01,0.169,0.029,0.226,0.037c0.294,0.931,0.559,1.872,0.857,2.802c0.609-0.015,1.22,0.005,1.829-0.012
		c-0.319-0.93-0.62-1.865-0.925-2.799c0.405-0.01,0.783-0.331,0.782-0.75c0.003-1.436,0.012-2.873-0.006-4.308
		c-0.004-0.521-0.455-0.953-0.97-0.966C48.799,45.798,47.606,45.827,46.414,45.817 M52.048,46.073
		c-0.265,0.219-0.352,0.578-0.35,0.908c-0.002,0.992-0.001,1.985-0.001,2.977c0.001,0.326,0.065,0.723,0.383,0.893
		c0.567,0.261,1.235-0.007,1.808,0.176c0.105,0.632,0.017,1.295,0.045,1.94c-0.695,0.108-1.408,0.018-2.111,0.046
		c0.101,0.548,0.214,1.095,0.312,1.644c0.723,0.008,1.447,0.003,2.17,0.004c0.366-0.002,0.776-0.027,1.059-0.286
		c0.278-0.27,0.31-0.686,0.313-1.052c-0.002-0.991,0.004-1.983-0.002-2.974c0.017-0.353-0.177-0.746-0.551-0.812
		c-0.525-0.086-1.059,0.005-1.586-0.051c-0.026-0.025-0.079-0.076-0.105-0.101c-0.032-0.616-0.004-1.233-0.012-1.85
		c0.127-0.052,0.261-0.076,0.401-0.066c0.606,0.002,1.212,0.003,1.819,0c-0.099-0.548-0.207-1.094-0.301-1.643
		c-0.764-0.018-1.528-0.002-2.293-0.01C52.702,45.813,52.324,45.84,52.048,46.073z"/>
	<path fill="#FFFFFF" stroke="#FFFFFF" stroke-width="0.0938" d="M7.367,45.817c1.197,0.007,2.393-0.013,3.59,0.01
		c0.508,0.004,0.919,0.465,0.903,0.967c0.012,2.145,0.001,4.29,0.006,6.434c-0.004,0.376-0.03,0.801-0.31,1.085
		c-0.284,0.282-0.71,0.312-1.089,0.317c-1.035-0.002-2.07,0.009-3.106-0.006C7.374,51.689,7.363,48.753,7.367,45.817 M9.116,47.363
		c-0.005,1.903,0.01,3.806-0.007,5.71c0.31,0.015,0.623,0.027,0.932,0.001c0.017-0.027,0.05-0.081,0.067-0.108
		c0-1.862,0.027-3.726-0.014-5.587C9.768,47.36,9.442,47.364,9.116,47.363z"/>
	<path fill="#FFFFFF" stroke="#FFFFFF" stroke-width="0.0938" d="M13.85,45.837c0.631-0.027,1.262-0.02,1.892-0.006
		c0.534,2.932,1.058,5.865,1.595,8.797c-0.58,0.002-1.161,0.009-1.741,0c-0.139-0.33-0.107-0.727-0.198-1.079
		c-0.396-0.036-0.794,0.002-1.191-0.02c-0.092,0.358-0.062,0.763-0.198,1.098c-0.583,0.012-1.165,0.004-1.748,0.001
		C12.796,51.699,13.329,48.769,13.85,45.837 M14.384,52.126c0.269,0.016,0.539,0.013,0.808,0.015
		c-0.105-1.019-0.25-2.033-0.383-3.049C14.637,50.098,14.551,51.118,14.384,52.126z"/>
	<path fill="#FFFFFF" stroke="#FFFFFF" stroke-width="0.0938" d="M17.811,45.831c1.046-0.033,2.094-0.003,3.14-0.015
		c0.373-0.005,0.79,0.014,1.081,0.281c0.273,0.244,0.33,0.632,0.323,0.979c-0.006,1.344,0.009,2.687-0.007,4.029
		c-0.01,0.415-0.387,0.718-0.786,0.732c0.317,0.929,0.617,1.863,0.924,2.795c-0.605,0-1.209-0.006-1.814,0.004
		c-0.297-0.93-0.58-1.866-0.85-2.805c-0.083,0-0.166,0-0.249,0.003c0.017,0.932,0.004,1.865,0.007,2.798
		c-0.588-0.002-1.177,0-1.765-0.001C17.813,51.698,17.823,48.764,17.811,45.831 M19.581,47.371c-0.002,1.006,0.01,2.013-0.006,3.019
		c0.343,0.013,0.688,0.026,1.029-0.015c-0.001-0.999,0.044-2.002-0.023-2.998C20.248,47.357,19.914,47.362,19.581,47.371z"/>
	<path fill="#FFFFFF" stroke="#FFFFFF" stroke-width="0.0938" d="M23.097,45.833c0.602-0.035,1.205-0.007,1.808-0.015
		c0,1.26,0.002,2.521-0.001,3.782c0.067-0.002,0.203-0.004,0.27-0.005c0.291-1.258,0.602-2.512,0.891-3.77
		c0.61-0.017,1.222-0.004,1.832-0.008c-0.35,1.351-0.715,2.7-1.05,4.055c0.317,1.591,0.707,3.169,1.027,4.762
		c-0.638-0.003-1.277-0.008-1.915,0.003c-0.252-1.21-0.468-2.427-0.702-3.64c-0.118-0.002-0.236-0.002-0.354-0.002
		c0.007,1.208-0.008,2.417,0.008,3.625c-0.603,0.025-1.205,0.005-1.808,0.012C23.099,51.698,23.111,48.765,23.097,45.833z"/>
	<path fill="#FFFFFF" stroke="#FFFFFF" stroke-width="0.0938" d="M30.203,45.823c1.089-0.016,2.178,0.003,3.267-0.01
		c0.158,0.549,0.303,1.103,0.442,1.656c-0.392-0.001-0.784,0-1.177-0.002c-0.002,2.397-0.003,4.794,0,7.191
		c-0.604,0.004-1.207,0.001-1.81,0.002c0.002-2.396-0.002-4.794,0.002-7.19c-0.395-0.003-0.789-0.002-1.183-0.001
		C29.894,46.92,30.056,46.373,30.203,45.823z"/>
	<path fill="#FFFFFF" stroke="#FFFFFF" stroke-width="0.0938" d="M34.402,45.817c0.59,0,1.181,0,1.773,0
		c0,2.948-0.001,5.896,0,8.844c-0.59-0.002-1.18,0-1.771-0.001C34.396,51.712,34.401,48.764,34.402,45.817z"/>
	<path fill="#FFFFFF" stroke="#FFFFFF" stroke-width="0.0938" d="M37.177,46.104c0.222-0.238,0.565-0.293,0.877-0.287
		c0.808,0.003,1.618-0.003,2.427,0.003c0.1,0.551,0.203,1.1,0.305,1.65c-0.69,0.002-1.38-0.007-2.07,0.005
		c-0.066,1.209-0.01,2.424-0.028,3.635c0.012,0.644-0.028,1.29,0.023,1.933c0.31,0.012,0.619,0.008,0.93,0.014
		c0.019-1.165,0.003-2.33,0.008-3.495c0.574,0,1.149,0,1.723,0c-0.002,1.699,0,3.4-0.002,5.099c-1.04-0.003-2.08,0.001-3.12-0.002
		c-0.38-0.001-0.814-0.054-1.077-0.36c-0.249-0.294-0.263-0.701-0.271-1.067C36.9,51.149,36.9,49.065,36.9,46.981
		C36.899,46.672,36.949,46.332,37.177,46.104z"/>
	<path fill="#FFFFFF" stroke="#FFFFFF" stroke-width="0.0938" d="M42.064,45.817c1.036-0.002,2.073,0.003,3.111-0.003
		c0.105,0.027,0.338-0.067,0.35,0.103c0.093,0.518,0.196,1.034,0.281,1.554c-0.64-0.006-1.28,0-1.921-0.003
		c-0.001,0.698,0,1.396,0,2.095c0.487,0.001,0.976-0.009,1.464,0.006c-0.006,0.507-0.001,1.014-0.003,1.522
		c-0.487-0.002-0.976,0-1.463-0.001c-0.004,0.636,0.015,1.273-0.012,1.909c0.621,0.035,1.244,0.007,1.865,0.014
		c-0.098,0.549-0.205,1.097-0.302,1.647c-1.124,0.003-2.247-0.001-3.37,0.002C42.064,51.713,42.064,48.765,42.064,45.817z"/>
	<path fill="#FFFFFF" stroke="#FFFFFF" stroke-width="0.0938" d="M46.414,45.817c1.192,0.01,2.385-0.019,3.576,0.014
		c0.515,0.013,0.966,0.445,0.97,0.966c0.018,1.435,0.009,2.872,0.006,4.308c0.001,0.419-0.378,0.74-0.782,0.75
		c0.305,0.934,0.606,1.87,0.925,2.799c-0.609,0.016-1.22-0.004-1.829,0.012c-0.298-0.93-0.563-1.871-0.857-2.802
		c-0.057-0.009-0.169-0.028-0.226-0.037c-0.017,0.945-0.002,1.89-0.008,2.835c-0.591-0.003-1.183,0.001-1.774-0.002
		C46.414,51.711,46.414,48.764,46.414,45.817 M48.183,47.378c0.012,1.012,0.004,2.025,0.004,3.038
		c0.334,0.002,0.667,0.004,1.002-0.006c0.072-0.983,0.03-1.977,0.024-2.963C48.913,47.277,48.518,47.41,48.183,47.378z"/>
	<path fill="#FFFFFF" stroke="#FFFFFF" stroke-width="0.0938" d="M52.048,46.073c0.276-0.233,0.654-0.26,1-0.258
		c0.764,0.008,1.528-0.009,2.293,0.01c0.094,0.549,0.202,1.095,0.301,1.643c-0.607,0.003-1.213,0.002-1.819,0
		c-0.139-0.01-0.274,0.014-0.401,0.066c0.009,0.617-0.019,1.234,0.012,1.85c0.026,0.025,0.079,0.076,0.105,0.101
		c0.527,0.056,1.061-0.035,1.586,0.051c0.374,0.066,0.568,0.459,0.551,0.812c0.006,0.991,0,1.983,0.002,2.974
		c-0.004,0.365-0.036,0.781-0.313,1.052c-0.284,0.26-0.693,0.285-1.059,0.286c-0.724-0.001-1.448,0.004-2.17-0.004
		c-0.098-0.549-0.211-1.096-0.312-1.644c0.703-0.028,1.416,0.062,2.111-0.046c-0.028-0.645,0.06-1.307-0.045-1.94
		c-0.573-0.183-1.241,0.086-1.808-0.176c-0.317-0.17-0.382-0.567-0.383-0.893c0-0.992-0.001-1.985,0.001-2.977
		C51.696,46.651,51.783,46.292,52.048,46.073z"/>
	<path stroke="#000000" stroke-width="0.0938" d="M9.116,47.363c0.327,0.001,0.653-0.003,0.979,0.016
		c0.041,1.861,0.014,3.725,0.014,5.587c-0.017,0.027-0.05,0.081-0.067,0.108c-0.31,0.026-0.622,0.014-0.932-0.001
		C9.125,51.169,9.111,49.266,9.116,47.363z"/>
	<path stroke="#000000" stroke-width="0.0938" d="M19.581,47.371c0.334-0.01,0.667-0.014,1.001,0.006
		c0.067,0.996,0.022,1.999,0.023,2.998c-0.341,0.041-0.686,0.029-1.029,0.015C19.59,49.384,19.579,48.378,19.581,47.371z"/>
	<path stroke="#000000" stroke-width="0.0938" d="M48.183,47.378c0.335,0.032,0.73-0.101,1.029,0.069
		c0.006,0.986,0.048,1.98-0.024,2.963c-0.335,0.01-0.668,0.008-1.002,0.006C48.187,49.403,48.195,48.39,48.183,47.378z"/>
	<path stroke="#000000" stroke-width="0.0938" d="M14.384,52.126c0.167-1.007,0.253-2.027,0.426-3.034
		c0.133,1.016,0.278,2.03,0.383,3.049C14.923,52.139,14.653,52.142,14.384,52.126z"/>
	<path fill="#FFFFFF" stroke="#FFFFFF" stroke-width="0.0938" d="M26.622,56.638c0.864,0.003,1.731-0.03,2.594,0.029
		c2.5,0.001,5-0.003,7.5,0.002l-0.077,0.093c-1.568,1.351-3.209,2.621-4.929,3.772C29.924,59.358,28.246,58.027,26.622,56.638z"/>
	<path stroke="#000000" stroke-width="0.0938" d="M24.341,56.662c0.759-0.035,1.521-0.007,2.281-0.024
		c1.624,1.389,3.303,2.72,5.089,3.896c1.721-1.151,3.361-2.42,4.929-3.772c0.161-0.111,0.367-0.089,0.553-0.094
		c0.629,0.01,1.257-0.011,1.886,0.023c-0.702,0.731-1.496,1.369-2.261,2.031c-1.626,1.359-3.317,2.646-5.104,3.789
		c-2.561-1.62-4.917-3.545-7.161-5.575C24.462,56.859,24.392,56.767,24.341,56.662z"/>
</g>
</svg>
