<?xml version="1.0" encoding="UTF-8" standalone="no"?>
<svg
   xmlns:dc="http://purl.org/dc/elements/1.1/"
   xmlns:cc="http://creativecommons.org/ns#"
   xmlns:rdf="http://www.w3.org/1999/02/22-rdf-syntax-ns#"
   xmlns:svg="http://www.w3.org/2000/svg"
   xmlns="http://www.w3.org/2000/svg"
   xmlns:sodipodi="http://sodipodi.sourceforge.net/DTD/sodipodi-0.dtd"
   xmlns:inkscape="http://www.inkscape.org/namespaces/inkscape"
   width="64"
   height="64"
   viewBox="0 0 48 48.000002"
   version="1.1"
   id="svg600"
   sodipodi:docname="tone.svg"
   inkscape:version="0.92.3 (2405546, 2018-03-11)">
  <metadata
     id="metadata606">
    <rdf:RDF>
      <cc:Work
         rdf:about="">
        <dc:format>image/svg+xml</dc:format>
        <dc:type
           rdf:resource="http://purl.org/dc/dcmitype/StillImage" />
        <dc:title></dc:title>
      </cc:Work>
    </rdf:RDF>
  </metadata>
  <defs
     id="defs604" />
  <sodipodi:namedview
     pagecolor="#ffffff"
     bordercolor="#666666"
     borderopacity="1"
     objecttolerance="10"
     gridtolerance="10"
     guidetolerance="10"
     inkscape:pageopacity="0"
     inkscape:pageshadow="2"
     inkscape:window-width="1920"
     inkscape:window-height="1017"
     id="namedview602"
     showgrid="false"
     units="px"
     inkscape:pagecheckerboard="true"
     inkscape:zoom="0.1888361"
     inkscape:cx="1603.9751"
     inkscape:cy="-534.13857"
     inkscape:window-x="-8"
     inkscape:window-y="-8"
     inkscape:window-maximized="1"
     inkscape:current-layer="svg600" />
  <g
     id="#29241a33"
     transform="matrix(0.08,0,0,0.08,5.0000001e-7,7.1600005)">
    <path
       d="M 0,0 H 5.46 L 4.64,0.61 C 0.58,2.14 0.67,6.18 0.92,9.99 L 0,9.84 Z"
       id="path309"
       inkscape:connector-curvature="0"
       style="opacity:0.2;fill:#29241a" />
  </g>
  <g
     id="#887856a5"
     transform="matrix(0.08,0,0,0.08,5.0000001e-7,7.1600005)">
    <path
       d="M 5.46,0 H 55.61 L 56.2,0.79 C 53.52,0.88 50.84,0.98 48.16,1.09 33.66,0.78 19.13,1.43 4.64,0.61 Z"
       id="path312"
       inkscape:connector-curvature="0"
       style="opacity:0.65;fill:#887856" />
  </g>
  <g
     id="#786544a5"
     transform="matrix(0.08,0,0,0.08,5.0000001e-7,7.1600005)">
    <path
       d="m 545.34,0 h 50.21 l 0.68,0.73 c -17.15,0.36 -34.31,0.49 -51.45,0.08 z"
       id="path315"
       inkscape:connector-curvature="0"
       style="opacity:0.65;fill:#786544" />
  </g>
  <g
     id="#18140d22"
     transform="matrix(0.08,0,0,0.08,5.0000001e-7,7.1600005)">
    <path
       d="M 595.55,0 H 600 V 4.24 L 599.39,3.98 C 598.33,2.9 597.28,1.81 596.23,0.73 Z"
       id="path318"
       inkscape:connector-curvature="0"
       style="opacity:0.12999998;fill:#18140d" />
  </g>
  <g
     id="#d2bb8afd"
     transform="matrix(0.08,0,0,0.08,5.0000001e-7,7.1600005)">
    <path
       d="M 0.92,9.99 C 0.67,6.18 0.58,2.14 4.64,0.61 19.13,1.43 33.66,0.78 48.16,1.09 43.35,6.31 38.18,11.17 33.2,16.23 c 4.25,7.7 10.88,13.62 15.76,20.8 2.69,13.09 15.26,20.41 21.22,31.69 1.88,12.23 13.39,19.04 18.21,29.72 -0.37,5.37 3.87,8.74 7.07,12.25 11.52,0.65 23.07,0.25 34.61,0.33 3.87,0.02 7.72,-0.31 11.53,-1.02 0.18,0.31 0.52,0.91 0.7,1.22 -28.76,1.89 -57.66,0.06 -86.47,0.97 C 37.32,78.25 18.96,44.19 0.92,9.99 Z"
       id="path321"
       inkscape:connector-curvature="0"
       style="opacity:1;fill:#d2bb8a" />
  </g>
  <g
     id="#d8c396fe"
     transform="matrix(0.08,0,0,0.08,5.0000001e-7,7.1600005)">
    <path
       d="m 48.16,1.09 c 2.68,-0.11 5.36,-0.21 8.04,-0.3 8.29,1.92 13.28,9.91 21.72,11.66 2.55,1.45 4.94,1.48 7.16,0.11 6.12,2.47 12.08,5.31 18.08,8.07 -6.43,6.01 -12.64,12.23 -18.8,18.49 2.31,7.13 7.94,12.33 12.08,18.36 2.19,7.69 8.42,12.87 12.67,19.35 4.01,6.37 6.29,13.93 11.72,19.33 3.97,4.33 7.26,9.3 9.24,14.86 -11.54,-0.08 -23.09,0.32 -34.61,-0.33 -3.2,-3.51 -7.44,-6.88 -7.07,-12.25 C 83.57,87.76 72.06,80.95 70.18,68.72 64.22,57.44 51.65,50.12 48.96,37.03 44.08,29.85 37.45,23.93 33.2,16.23 38.18,11.17 43.35,6.31 48.16,1.09 Z"
       id="path324"
       inkscape:connector-curvature="0"
       style="opacity:1;fill:#d8c396" />
  </g>
  <g
     id="#b99c6afd"
     transform="matrix(0.08,0,0,0.08,5.0000001e-7,7.1600005)">
    <path
       d="m 537.7,3.73 c 2,-1.71 4.58,-2.35 7.08,-2.92 17.14,0.41 34.3,0.28 51.45,-0.08 1.05,1.08 2.1,2.17 3.16,3.25 -0.83,1.89 -0.86,4.03 -0.06,5.94 -7.47,13.73 -14.67,27.61 -22.2,41.31 0.01,-2.14 0.65,-4.17 1.39,-6.16 C 567.56,31.26 556.15,17.72 544.81,4.21 543.07,2.12 540,3.91 537.7,3.73 Z"
       id="path327"
       inkscape:connector-curvature="0"
       style="opacity:1;fill:#b99c6a" />
  </g>
  <g
     id="#c1a676fe"
     transform="matrix(0.08,0,0,0.08,5.0000001e-7,7.1600005)">
    <path
       d="m 537.7,3.73 c 2.3,0.18 5.37,-1.61 7.11,0.48 11.34,13.51 22.75,27.05 33.71,40.86 -0.74,1.99 -1.38,4.02 -1.39,6.16 -6.82,12.26 -12.84,24.95 -19.98,37.01 0.03,-2.64 0.59,-5.26 0.48,-7.89 -14.17,-16.87 -28.03,-33.99 -41.99,-51.02 -4.14,-4.03 -7.07,-10.9 -13.83,-10.7 4.24,-2.2 8.66,-3.98 13.06,-5.82 2.82,1.29 5.25,1.11 7.29,-0.54 6.09,-0.91 10.81,-4.97 15.54,-8.54 z"
       id="path330"
       inkscape:connector-curvature="0"
       style="opacity:1;fill:#c1a676" />
  </g>
  <g
     id="#61503588"
     transform="matrix(0.08,0,0,0.08,5.0000001e-7,7.1600005)">
    <path
       d="M 599.39,3.98 600,4.24 V 9.7 l -0.67,0.22 c -0.8,-1.91 -0.77,-4.05 0.06,-5.94 z"
       id="path333"
       inkscape:connector-curvature="0"
       style="opacity:0.52999998;fill:#615035" />
  </g>
  <g
     id="#70655082"
     transform="matrix(0.08,0,0,0.08,5.0000001e-7,7.1600005)">
    <path
       d="m 77.92,12.45 c 2.21,-1.39 4.6,-1.35 7.16,0.11 -2.22,1.37 -4.61,1.34 -7.16,-0.11 z"
       id="path336"
       inkscape:connector-curvature="0"
       style="opacity:0.51000001;fill:#706550" />
  </g>
  <g
     id="#61533b7f"
     transform="matrix(0.08,0,0,0.08,5.0000001e-7,7.1600005)">
    <path
       d="m 514.87,12.81 c 1.96,-1.75 4.39,-1.93 7.29,-0.54 -2.04,1.65 -4.47,1.83 -7.29,0.54 z"
       id="path339"
       inkscape:connector-curvature="0"
       style="opacity:0.5;fill:#61533b" />
  </g>
  <g
     id="#c9af82fe"
     transform="matrix(0.08,0,0,0.08,5.0000001e-7,7.1600005)">
    <path
       d="m 461.99,31.14 c 13.66,-2.82 27.08,-6.81 39.82,-12.51 6.76,-0.2 9.69,6.67 13.83,10.7 13.96,17.03 27.82,34.15 41.99,51.02 0.11,2.63 -0.45,5.25 -0.48,7.89 -3.79,7.72 -8.22,15.12 -11.97,22.85 -5.35,-0.07 -10.65,-0.02 -15.97,-0.17 C 514.5,92.28 499.1,74.29 484.07,55.95 c -7.42,-7.96 -12.96,-18 -22.04,-24.18 z"
       id="path342"
       inkscape:connector-curvature="0"
       style="opacity:1;fill:#c9af82" />
  </g>
  <g
     id="#dcc89ffe"
     transform="matrix(0.08,0,0,0.08,5.0000001e-7,7.1600005)">
    <path
       d="m 84.36,39.12 c 6.16,-6.26 12.37,-12.48 18.8,-18.49 7.8,3.25 15.85,5.84 24.02,8 -2.65,2.54 -5.75,4.77 -7.79,7.88 12.92,16.85 23.51,35.71 36.08,52.88 0.55,5.38 4.74,6.91 8.68,8.39 -1.44,-0.06 -2.84,0.12 -4.22,0.53 -9.85,-2.07 -19.31,-5.36 -28.83,-8.52 2.93,7.02 7.13,13.4 10.5,20.21 -3.81,0.71 -7.66,1.04 -11.53,1.02 -1.98,-5.56 -5.27,-10.53 -9.24,-14.86 C 115.4,90.76 113.12,83.2 109.11,76.83 104.86,70.35 98.63,65.17 96.44,57.48 92.3,51.45 86.67,46.25 84.36,39.12 Z"
       id="path345"
       inkscape:connector-curvature="0"
       style="opacity:1;fill:#dcc89f" />
  </g>
  <g
     id="#e2d1acfe"
     transform="matrix(0.08,0,0,0.08,5.0000001e-7,7.1600005)">
    <path
       d="m 119.39,36.51 c 2.04,-3.11 5.14,-5.34 7.79,-7.88 3.89,0.89 7.78,1.77 11.69,2.6 1.12,1.22 2.85,1.17 4.28,0.59 l 0.71,0.36 c 1.11,1.23 2.85,1.23 4.3,0.68 l 0.71,0.36 c 1.48,1.29 3.52,1.15 5.29,0.61 l 0.71,0.37 c 1.46,1.21 3.45,1.23 5.15,0.53 2.01,0.64 4.14,0.71 6.21,0.4 l 0.03,0.74 c 0.47,7.25 6.07,13.12 9.97,18.89 8.44,14.49 20.36,26.64 29.05,40.99 15.62,4.42 32.05,1.14 48.02,2.56 -0.52,0.23 -1.55,0.7 -2.07,0.94 -19.75,-0.47 -39.49,-0.18 -59.24,-0.25 -6,-0.03 -11.99,0.02 -17.98,0.21 -1.94,-1 -4.16,-0.61 -6.08,0.19 -0.7,-0.15 -2.11,-0.45 -2.81,-0.59 -0.24,-0.26 -0.73,-0.77 -0.97,-1.03 -3.94,-1.48 -8.13,-3.01 -8.68,-8.39 C 142.9,72.22 132.31,53.36 119.39,36.51 Z"
       id="path348"
       inkscape:connector-curvature="0"
       style="opacity:1;fill:#e2d1ac" />
  </g>
  <g
     id="#5c554668"
     transform="matrix(0.08,0,0,0.08,5.0000001e-7,7.1600005)">
    <path
       d="m 138.87,31.23 c 1.42,-0.62 3.19,-0.69 4.28,0.59 -1.43,0.58 -3.16,0.63 -4.28,-0.59 z"
       id="path351"
       inkscape:connector-curvature="0"
       style="opacity:0.41000001;fill:#5c5546" />
  </g>
  <g
     id="#5c513d73"
     transform="matrix(0.08,0,0,0.08,5.0000001e-7,7.1600005)">
    <path
       d="m 457.01,31.97 c 1.29,-1.39 3.28,-1.41 4.98,-0.83 l 0.04,0.63 c -1.64,0.5 -3.36,0.44 -5.02,0.2 z"
       id="path354"
       inkscape:connector-curvature="0"
       style="opacity:0.45;fill:#5c513d" />
  </g>
  <g
     id="#6b635379"
     transform="matrix(0.08,0,0,0.08,5.0000001e-7,7.1600005)">
    <path
       d="m 143.86,32.18 c 1.44,-0.57 3.22,-0.62 4.3,0.68 -1.45,0.55 -3.19,0.55 -4.3,-0.68 z"
       id="path357"
       inkscape:connector-curvature="0"
       style="opacity:0.47000002;fill:#6b6353" />
  </g>
  <g
     id="#695d4782"
     transform="matrix(0.08,0,0,0.08,5.0000001e-7,7.1600005)">
    <path
       d="m 452.03,32.96 c 1.24,-1.49 3.27,-1.35 4.98,-0.99 -1.2,1.55 -3.28,1.47 -4.98,0.99 z"
       id="path360"
       inkscape:connector-curvature="0"
       style="opacity:0.51000001;fill:#695d47" />
  </g>
  <g
     id="#d1ba8ffe"
     transform="matrix(0.08,0,0,0.08,5.0000001e-7,7.1600005)">
    <path
       d="m 457.01,31.97 c 1.66,0.24 3.38,0.3 5.02,-0.2 9.08,6.18 14.62,16.22 22.04,24.18 15.03,18.34 30.43,36.33 45.14,54.97 -23.47,-0.59 -47.26,1.43 -70.55,-0.73 3.64,-6.67 7.28,-13.37 10.47,-20.28 -2.76,0.37 -5.32,1.5 -7.92,2.41 0.96,-1.76 2,-3.48 2.73,-5.34 C 452.96,72.74 440.92,59.28 430,45 c -2.03,-2.58 -2.02,-5.98 -2.92,-9.01 2.39,-0.19 4.78,-0.42 7.19,-0.7 1.53,-0.15 3.07,-0.31 4.61,-0.47 1.57,-0.14 4.72,-0.42 6.29,-0.56 l 0.66,-0.5 c 1.55,-0.2 4.65,-0.6 6.2,-0.8 1.7,0.48 3.78,0.56 4.98,-0.99 z"
       id="path363"
       inkscape:connector-curvature="0"
       style="opacity:1;fill:#d1ba8f" />
  </g>
  <g
     id="#847b6695"
     transform="matrix(0.08,0,0,0.08,5.0000001e-7,7.1600005)">
    <path
       d="m 148.87,33.22 c 1.75,-0.6 3.83,-0.75 5.29,0.61 -1.77,0.54 -3.81,0.68 -5.29,-0.61 z"
       id="path366"
       inkscape:connector-curvature="0"
       style="opacity:0.57999998;fill:#847b66" />
  </g>
  <g
     id="#7d6f549a"
     transform="matrix(0.08,0,0,0.08,5.0000001e-7,7.1600005)">
    <path
       d="m 445.83,33.76 c 1.55,-0.2 4.65,-0.6 6.2,-0.8 -1.55,0.2 -4.65,0.6 -6.2,0.8 z"
       id="path369"
       inkscape:connector-curvature="0"
       style="opacity:0.6;fill:#7d6f54" />
  </g>
  <g
     id="#a4987fb8"
     transform="matrix(0.08,0,0,0.08,5.0000001e-7,7.1600005)">
    <path
       d="m 154.87,34.2 c 1.7,-0.39 3.47,-0.49 5.17,-0.05 l -0.02,0.58 c -1.7,0.7 -3.69,0.68 -5.15,-0.53 z"
       id="path372"
       inkscape:connector-curvature="0"
       style="opacity:0.72000002;fill:#a4987f" />
  </g>
  <g
     id="#39352c40"
     transform="matrix(0.08,0,0,0.08,5.0000001e-7,7.1600005)">
    <path
       d="m 160.04,34.15 c 2.24,-0.72 4.5,-0.56 6.8,0.5 l -0.61,0.48 c -2.07,0.31 -4.2,0.24 -6.21,-0.4 z"
       id="path375"
       inkscape:connector-curvature="0"
       style="opacity:0.25;fill:#39352c" />
  </g>
  <g
     id="#89795da8"
     transform="matrix(0.08,0,0,0.08,5.0000001e-7,7.1600005)">
    <path
       d="m 438.88,34.82 c 1.57,-0.14 4.72,-0.42 6.29,-0.56 -1.57,0.14 -4.72,0.42 -6.29,0.56 z"
       id="path378"
       inkscape:connector-curvature="0"
       style="opacity:0.66000001;fill:#89795d" />
  </g>
  <g
     id="#877e6a96"
     transform="matrix(0.08,0,0,0.08,5.0000001e-7,7.1600005)">
    <path
       d="m 166.23,35.13 0.61,-0.48 c 1.35,0.12 2.7,0.28 4.05,0.48 l 0.03,0.65 c -1.55,0.24 -3.12,0.33 -4.66,0.09 z"
       id="path381"
       inkscape:connector-curvature="0"
       style="opacity:0.58999999;fill:#877e6a" />
  </g>
  <g
     id="#38342c3e"
     transform="matrix(0.08,0,0,0.08,5.0000001e-7,7.1600005)">
    <path
       d="m 170.89,35.13 c 3.13,-0.05 6.22,0.29 9.34,0.63 -1.49,0.16 -2.97,0.32 -4.45,0.49 -1.63,-0.14 -3.25,-0.32 -4.86,-0.47 z"
       id="path384"
       inkscape:connector-curvature="0"
       style="opacity:0.23999999;fill:#38342c" />
  </g>
  <g
     id="#5d534270"
     transform="matrix(0.08,0,0,0.08,5.0000001e-7,7.1600005)">
    <path
       d="m 423.56,35.76 c 3.49,-1.09 7.1,-0.63 10.71,-0.47 -2.41,0.28 -4.8,0.51 -7.19,0.7 -0.88,-0.06 -2.64,-0.17 -3.52,-0.23 z"
       id="path387"
       inkscape:connector-curvature="0"
       style="opacity:0.43999999;fill:#5d5342" />
  </g>
  <g
     id="#e8d9bafe"
     transform="matrix(0.08,0,0,0.08,5.0000001e-7,7.1600005)">
    <path
       d="m 166.26,35.87 c 1.54,0.24 3.11,0.15 4.66,-0.09 1.61,0.15 3.23,0.33 4.86,0.47 4.06,0.46 8.15,0.67 12.24,0.76 1.59,0.07 3.18,0.13 4.77,0.22 7.13,1.04 14.35,0.77 21.53,0.41 4.12,1.41 8.61,3.18 10.58,7.43 10.19,15.82 20.69,31.45 30.63,47.42 3.04,3.67 -0.17,4.72 -2.23,5.82 -15.97,-1.42 -32.4,1.86 -48.02,-2.56 -8.69,-14.35 -20.61,-26.5 -29.05,-40.99 -3.9,-5.77 -9.5,-11.64 -9.97,-18.89 z"
       id="path390"
       inkscape:connector-curvature="0"
       style="opacity:1;fill:#e8d9ba" />
  </g>
  <g
     id="#8f86729e"
     transform="matrix(0.08,0,0,0.08,5.0000001e-7,7.1600005)">
    <path
       d="m 175.78,36.25 c 1.48,-0.17 2.96,-0.33 4.45,-0.49 2.57,0.1 5.15,0.18 7.74,0.25 l 0.05,1 c -4.09,-0.09 -8.18,-0.3 -12.24,-0.76 z"
       id="path393"
       inkscape:connector-curvature="0"
       style="opacity:0.62000002;fill:#8f8672" />
  </g>
  <g
     id="#423e3549"
     transform="matrix(0.08,0,0,0.08,5.0000001e-7,7.1600005)">
    <path
       d="m 187.97,36.01 c 7.75,0.05 15.57,-0.53 23.26,0.76 -6.15,0.08 -12.3,0.31 -18.44,0.46 -1.59,-0.09 -3.18,-0.15 -4.77,-0.22 z"
       id="path396"
       inkscape:connector-curvature="0"
       style="opacity:0.28999999;fill:#423e35" />
  </g>
  <g
     id="#413d3649"
     transform="matrix(0.08,0,0,0.08,5.0000001e-7,7.1600005)">
    <path
       d="M 388.73,36.69 C 396.62,34.82 404.96,36.5 413,36.02 L 412.99,37 c -1.93,0.05 -3.85,0.13 -5.76,0.25 -6.18,-0.13 -12.34,-0.35 -18.5,-0.56 z"
       id="path399"
       inkscape:connector-curvature="0"
       style="opacity:0.28999999;fill:#413d36" />
  </g>
  <g
     id="#8e8574a0"
     transform="matrix(0.08,0,0,0.08,5.0000001e-7,7.1600005)">
    <path
       d="m 413,36.02 c 3.53,-0.03 7.02,-0.13 10.56,-0.26 l 0.79,0.72 c -3.81,0.29 -7.56,0.56 -11.36,0.52 z"
       id="path402"
       inkscape:connector-curvature="0"
       style="opacity:0.62999998;fill:#8e8574" />
  </g>
  <g
     id="#d8c39bfe"
     transform="matrix(0.08,0,0,0.08,5.0000001e-7,7.1600005)">
    <path
       d="m 423.56,35.76 c 0.88,0.06 2.64,0.17 3.52,0.23 0.9,3.03 0.89,6.43 2.92,9.01 10.92,14.28 22.96,27.74 33.94,41.98 -0.73,1.86 -1.77,3.58 -2.73,5.34 -5.2,2.15 -10.78,3.09 -16.11,4.82 -1.43,-0.53 -3.15,-0.58 -4.24,0.65 l -0.68,0.43 c -1.57,0.16 -4.72,0.47 -6.3,0.62 -1.22,0.14 -2.43,0.28 -3.64,0.4 -7.41,-0.17 -14.8,-0.26 -22.2,-0.23 6.98,-20.17 12.23,-40.89 17.68,-61.5 -0.34,-0.26 -1.03,-0.77 -1.37,-1.03 z"
       id="path405"
       inkscape:connector-curvature="0"
       style="opacity:1;fill:#d8c39b" />
  </g>
  <g
     id="#c1b69dd3"
     transform="matrix(0.08,0,0,0.08,5.0000001e-7,7.1600005)">
    <path
       d="m 192.79,37.23 c 6.14,-0.15 12.29,-0.38 18.44,-0.46 1.05,0.22 2.07,0.51 3.09,0.87 -7.18,0.36 -14.4,0.63 -21.53,-0.41 z"
       id="path408"
       inkscape:connector-curvature="0"
       style="opacity:0.82999998;fill:#c1b69d" />
  </g>
  <g
     id="#bcb09ad1"
     transform="matrix(0.08,0,0,0.08,5.0000001e-7,7.1600005)">
    <path
       d="m 385.73,37.72 c 0.98,-0.39 1.98,-0.73 3,-1.03 6.16,0.21 12.32,0.43 18.5,0.56 -7.13,0.99 -14.34,0.74 -21.5,0.47 z"
       id="path411"
       inkscape:connector-curvature="0"
       style="opacity:0.81999966;fill:#bcb09a" />
  </g>
  <g
     id="#e6d7bdfe"
     transform="matrix(0.08,0,0,0.08,5.0000001e-7,7.1600005)">
    <path
       d="m 407.23,37.25 c 1.91,-0.12 3.83,-0.2 5.76,-0.25 3.8,0.04 7.55,-0.23 11.36,-0.52 0.34,0.26 1.03,0.77 1.37,1.03 -5.45,20.61 -10.7,41.33 -17.68,61.5 -1.36,0.02 -2.73,0.03 -4.08,0.03 5.73,-5.68 5.7,-14.94 7.07,-22.44 -11.32,-0.87 -16.06,-13.02 -24.04,-19.61 -4.75,-2.56 -8.36,-7.86 -14.08,-8.32 2.65,-5.22 7.22,-9.17 12.82,-10.95 7.16,0.27 14.37,0.52 21.5,-0.47 z"
       id="path414"
       inkscape:connector-curvature="0"
       style="opacity:1;fill:#e6d7bd" />
  </g>
  <g
     id="#eadec5fd"
     transform="matrix(0.08,0,0,0.08,5.0000001e-7,7.1600005)">
    <path
       d="m 344.62,92.66 c 9.12,-14.84 18.98,-29.25 28.29,-43.99 5.72,0.46 9.33,5.76 14.08,8.32 7.98,6.59 12.72,18.74 24.04,19.61 -1.37,7.5 -1.34,16.76 -7.07,22.44 -5.01,0.03 -9.98,-0.08 -14.97,-0.03 -13.38,0.01 -26.77,-0.16 -40.15,0.16 -2.35,-1.24 -6.38,-3.33 -4.22,-6.51 z"
       id="path417"
       inkscape:connector-curvature="0"
       style="opacity:1;fill:#eadec5" />
  </g>
  <g
     id="#685e4b7a"
     transform="matrix(0.08,0,0,0.08,5.0000001e-7,7.1600005)">
    <path
       d="m 440.86,97.79 c 1.09,-1.23 2.81,-1.18 4.24,-0.65 -1.05,1.32 -2.83,1.27 -4.24,0.65 z"
       id="path420"
       inkscape:connector-curvature="0"
       style="opacity:0.47999998;fill:#685e4b" />
  </g>
  <g
     id="#655e4e71"
     transform="matrix(0.08,0,0,0.08,5.0000001e-7,7.1600005)">
    <path
       d="m 159.93,98.31 c 1.38,-0.41 2.78,-0.59 4.22,-0.53 0.24,0.26 0.73,0.77 0.97,1.03 -1.73,0.55 -3.65,0.55 -5.19,-0.5 z"
       id="path423"
       inkscape:connector-curvature="0"
       style="opacity:0.43999999;fill:#655e4e" />
  </g>
  <g
     id="#6a614d7d"
     transform="matrix(0.08,0,0,0.08,5.0000001e-7,7.1600005)">
    <path
       d="m 433.88,98.84 c 1.58,-0.15 4.73,-0.46 6.3,-0.62 -1.57,0.16 -4.72,0.47 -6.3,0.62 z"
       id="path426"
       inkscape:connector-curvature="0"
       style="opacity:0.49000005;fill:#6a614d" />
  </g>
  <g
     id="#645d4d71"
     transform="matrix(0.08,0,0,0.08,5.0000001e-7,7.1600005)">
    <path
       d="m 167.93,99.4 c 1.92,-0.8 4.14,-1.19 6.08,-0.19 l -0.07,0.79 c -1.5,-0.15 -4.51,-0.45 -6.01,-0.6 z"
       id="path429"
       inkscape:connector-curvature="0"
       style="opacity:0.43999999;fill:#645d4d" />
  </g>
  <g
     id="#a6997fbb"
     transform="matrix(0.08,0,0,0.08,5.0000001e-7,7.1600005)">
    <path
       d="M 174.01,99.21 C 180,99.02 185.99,98.97 191.99,99 l 0.02,0.99 c -6.03,0.04 -12.05,-0.02 -18.07,0.01 z"
       id="path432"
       inkscape:connector-curvature="0"
       style="opacity:0.73000004;fill:#a6997f" />
  </g>
  <g
     id="#5e584b68"
     transform="matrix(0.08,0,0,0.08,5.0000001e-7,7.1600005)">
    <path
       d="m 191.99,99 c 19.75,0.07 39.49,-0.22 59.24,0.25 -19.5,2.03 -39.54,0.07 -59.22,0.74 z"
       id="path435"
       inkscape:connector-curvature="0"
       style="opacity:0.41000001;fill:#5e584b" />
  </g>
  <g
     id="#4e4a4254"
     transform="matrix(0.08,0,0,0.08,5.0000001e-7,7.1600005)">
    <path
       d="m 348.84,99.17 c 13.38,-0.32 26.77,-0.15 40.15,-0.16 l 0.02,0.98 c -13.39,-0.29 -26.88,0.93 -40.17,-0.82 z"
       id="path438"
       inkscape:connector-curvature="0"
       style="opacity:0.33000004;fill:#4e4a42" />
  </g>
  <g
     id="#877d6998"
     transform="matrix(0.08,0,0,0.08,5.0000001e-7,7.1600005)">
    <path
       d="m 388.99,99.01 c 4.99,-0.05 9.96,0.06 14.97,0.03 1.35,0 2.72,-0.01 4.08,-0.03 7.4,-0.03 14.79,0.06 22.2,0.23 -13.69,1.51 -27.5,0.5 -41.23,0.75 z"
       id="path441"
       inkscape:connector-curvature="0"
       style="opacity:0.6;fill:#877d69" />
  </g>
  <g
     id="#b9a47fe1"
     transform="matrix(0.08,0,0,0.08,5.0000001e-7,7.1600005)">
    <path
       d="m 457.97,111.97 c 0.17,-0.45 0.51,-1.33 0.69,-1.78 23.29,2.16 47.08,0.14 70.55,0.73 5.32,0.15 10.62,0.1 15.97,0.17 l -0.32,0.87 c -28.97,0.07 -57.93,0.05 -86.89,0.01 z"
       id="path444"
       inkscape:connector-curvature="0"
       style="opacity:0.87999998;fill:#b9a47f" />
  </g>
  <g
     id="#4f493a5d"
     transform="matrix(0.08,0,0,0.08,5.0000001e-7,7.1600005)">
    <path
       d="m 142.3,111.22 c 0.21,0.42 0.63,1.26 0.84,1.68 -29.04,-0.29 -58.6,1.12 -87.31,-0.71 28.81,-0.91 57.71,0.92 86.47,-0.97 z"
       id="path447"
       inkscape:connector-curvature="0"
       style="opacity:0.36000001;fill:#4f493a" />
  </g>
  <g
     id="#413a2d50"
     transform="matrix(0.08,0,0,0.08,5.0000001e-7,7.1600005)">
    <path
       d="m 457.97,111.97 c 28.96,0.04 57.92,0.06 86.89,-0.01 -2.23,3.05 -8.6,-0.14 -11.86,1.09 -24.67,-0.82 -52.07,1.39 -75.03,-1.08 z"
       id="path450"
       inkscape:connector-curvature="0"
       style="opacity:0.31000001;fill:#413a2d" />
  </g>
  <g
     id="#2d2c2d43"
     transform="matrix(0.08,0,0,0.08,5.0000001e-7,7.1600005)">
    <path
       d="m 37.01,123.02 c 110.33,-0.02 220.66,-0.06 331,0.01 L 368,124 c -15.34,0.04 -30.67,-0.05 -46,0 -60.33,0 -120.67,-0.01 -181,0.01 -34.67,-0.04 -69.34,0.03 -104,-0.03 z"
       id="path453"
       inkscape:connector-curvature="0"
       style="opacity:0.26000001;fill:#2d2c2d" />
  </g>
  <g
     id="#1f1e2043"
     transform="matrix(0.08,0,0,0.08,5.0000001e-7,7.1600005)">
    <path
       d="m 368.01,123.03 c 64.64,-0.04 129.3,-0.07 193.95,0.02 l 0.05,0.93 C 507.68,124.04 453.34,123.97 399,124 c -10.34,-0.06 -20.67,0.05 -31,0 z"
       id="path456"
       inkscape:connector-curvature="0"
       style="opacity:0.26000001;fill:#1f1e20" />
  </g>
  <g
     id="#929193e0"
     transform="matrix(0.08,0,0,0.08,5.0000001e-7,7.1600005)">
    <path
       d="m 34.98,124.99 c 0.51,-0.25 1.51,-0.76 2.02,-1.01 34.66,0.06 69.33,-0.01 104,0.03 v 0.97 c -3.07,0.02 -6.12,0.02 -9.19,0.06 -11.67,-0.06 -23.33,-0.06 -35,-0.07 -13.01,0.05 -26.02,-0.03 -39.03,0.09 -7.6,-0.08 -15.2,-0.09 -22.8,-0.07 z"
       id="path459"
       inkscape:connector-curvature="0"
       style="opacity:0.87999998;fill:#929193" />
  </g>
  <g
     id="#aaa9aae2"
     transform="matrix(0.08,0,0,0.08,5.0000001e-7,7.1600005)">
    <path
       d="M 141,124.01 C 201.33,123.99 261.67,124 322,124 l -0.02,1 c -0.78,0.01 -2.34,0.03 -3.12,0.04 -11.31,-0.09 -22.61,-0.05 -33.92,-0.03 -20.69,-0.02 -41.38,-0.03 -62.07,0.02 -9.68,-0.04 -19.35,-0.07 -29.01,-0.06 -11.22,0.06 -22.44,-0.08 -33.65,0.13 -6.41,-0.05 -12.81,-0.06 -19.21,-0.12 z"
       id="path462"
       inkscape:connector-curvature="0"
       style="opacity:0.88999999;fill:#aaa9aa" />
  </g>
  <g
     id="#929093e2"
     transform="matrix(0.08,0,0,0.08,5.0000001e-7,7.1600005)">
    <path
       d="m 322,124 c 15.33,-0.05 30.66,0.04 46,0 10.33,0.05 20.66,-0.06 31,0 l -0.01,0.97 -0.95,0.02 c -16.73,0.04 -33.45,-0.04 -50.17,0.05 -8.64,-0.1 -17.26,-0.01 -25.89,-0.04 z"
       id="path465"
       inkscape:connector-curvature="0"
       style="opacity:0.88999999;fill:#929093" />
  </g>
  <g
     id="#646268e1"
     transform="matrix(0.08,0,0,0.08,5.0000001e-7,7.1600005)">
    <path
       d="m 399,124 c 54.34,-0.03 108.68,0.04 163.01,-0.02 1.69,-0.42 2.7,-0.08 3.02,1.02 -12.03,-0.01 -24.04,0 -36.06,-0.01 -11,-0.03 -22,0.02 -32.99,0 -9.05,-0.05 -18.1,0.01 -27.14,0.08 -7.63,-0.1 -15.24,-0.09 -22.86,-0.09 -7.41,-0.04 -14.82,0.02 -22.23,0.1 -7.31,-0.12 -14.62,-0.07 -21.91,-0.02 -0.72,-0.02 -2.14,-0.07 -2.85,-0.09 z"
       id="path468"
       inkscape:connector-curvature="0"
       style="opacity:0.87999998;fill:#646268" />
  </g>
  <g
     id="#a2a2a4fc"
     transform="matrix(0.08,0,0,0.08,5.0000001e-7,7.1600005)">
    <path
       d="m 30.64,131.34 c -2.02,-2.76 1.65,-6.26 4.34,-6.35 7.6,-0.02 15.2,-0.01 22.8,0.07 3.51,6.53 2.41,14.48 6.41,20.78 3.92,6.91 9.4,13.57 9.03,22.01 -0.63,11.51 6.86,20.51 11.87,30.13 -1.78,0.01 -5.35,0.04 -7.13,0.05 C 65.65,196.23 62.16,182.1 55.68,173.32 47.42,159.27 39.13,145.24 30.64,131.34 Z"
       id="path471"
       inkscape:connector-curvature="0"
       style="opacity:1;fill:#a2a2a4" />
  </g>
  <g
     id="#acabacff"
     transform="matrix(0.08,0,0,0.08,5.0000001e-7,7.1600005)">
    <path
       d="m 57.78,125.06 c 13.01,-0.12 26.02,-0.04 39.03,-0.09 -2.31,12.17 12.01,19.88 11.21,32.05 2.18,8.97 8.08,16.45 12.07,24.68 0.63,5.85 3.05,11.26 5.97,16.3 -13.66,-0.03 -27.32,0.06 -40.97,-0.02 -5.01,-9.62 -12.5,-18.62 -11.87,-30.13 0.37,-8.44 -5.11,-15.1 -9.03,-22.01 -4,-6.3 -2.9,-14.25 -6.41,-20.78 z"
       id="path474"
       inkscape:connector-curvature="0"
       style="opacity:1;fill:#acabac" />
  </g>
  <g
     id="#b6b4b5ff"
     transform="matrix(0.08,0,0,0.08,5.0000001e-7,7.1600005)">
    <path
       d="m 96.81,124.97 c 11.67,0.01 23.33,0.01 35,0.07 2.69,11.43 11.63,20.51 15.37,31.67 0.3,10.38 7.6,18.34 11.81,27.33 2.69,4.24 0.95,9.93 4,13.99 -12.31,-0.06 -24.62,0.01 -36.93,-0.03 -2.92,-5.04 -5.34,-10.45 -5.97,-16.3 -3.99,-8.23 -9.89,-15.71 -12.07,-24.68 0.8,-12.17 -13.52,-19.88 -11.21,-32.05 z"
       id="path477"
       inkscape:connector-curvature="0"
       style="opacity:1;fill:#b6b4b5" />
  </g>
  <g
     id="#bdbbbdff"
     transform="matrix(0.08,0,0,0.08,5.0000001e-7,7.1600005)">
    <path
       d="m 131.81,125.04 c 3.07,-0.04 6.12,-0.04 9.19,-0.06 6.4,0.06 12.8,0.07 19.21,0.12 -1.28,0.71 -3.8,0.73 -3.08,2.81 5.69,10.01 11.52,19.95 16.65,30.27 1.43,14.77 10.97,27.19 18.36,39.78 -2.05,0.01 -4.1,0.02 -6.15,0.05 -7.67,-0.05 -15.33,0.04 -23,0.02 -3.05,-4.06 -1.31,-9.75 -4,-13.99 -4.21,-8.99 -11.51,-16.95 -11.81,-27.33 -3.74,-11.16 -12.68,-20.24 -15.37,-31.67 z"
       id="path480"
       inkscape:connector-curvature="0"
       style="opacity:1;fill:#bdbbbd" />
  </g>
  <g
     id="#c4c2c4ff"
     transform="matrix(0.08,0,0,0.08,5.0000001e-7,7.1600005)">
    <path
       d="m 160.21,125.1 c 11.21,-0.21 22.43,-0.07 33.65,-0.13 -1.46,6.89 6.17,12.2 7.24,18.92 2.8,15.66 17.81,26.77 18.15,42.98 1.28,3.99 3.9,7.41 5.84,11.11 -10.99,0.01 -21.97,0.08 -32.95,-0.02 -7.39,-12.59 -16.93,-25.01 -18.36,-39.78 -5.13,-10.32 -10.96,-20.26 -16.65,-30.27 -0.72,-2.08 1.8,-2.1 3.08,-2.81 z"
       id="path483"
       inkscape:connector-curvature="0"
       style="opacity:1;fill:#c4c2c4" />
  </g>
  <g
     id="#cbcacbff"
     transform="matrix(0.08,0,0,0.08,5.0000001e-7,7.1600005)">
    <path
       d="m 193.86,124.97 c 9.66,-0.01 19.33,0.02 29.01,0.06 -0.49,6.55 5.14,10.98 7.39,16.67 4.5,10.49 12.04,19.42 15.77,30.22 1.39,9.81 8.12,17.31 12.19,26 -11.05,0.08 -22.09,0.14 -33.13,0.06 -1.94,-3.7 -4.56,-7.12 -5.84,-11.11 -0.34,-16.21 -15.35,-27.32 -18.15,-42.98 -1.07,-6.72 -8.7,-12.03 -7.24,-18.92 z"
       id="path486"
       inkscape:connector-curvature="0"
       style="opacity:1;fill:#cbcacb" />
  </g>
  <g
     id="#d2d0d2ff"
     transform="matrix(0.08,0,0,0.08,5.0000001e-7,7.1600005)">
    <path
       d="m 222.87,125.03 c 20.69,-0.05 41.38,-0.04 62.07,-0.02 11.67,19.35 25.28,36.83 36.47,56.47 7.83,16.59 19.88,30.81 27.35,47.51 -10.12,32.37 -29.95,60.53 -51.24,86.54 -4.63,2.69 -1.49,-5.17 -3.44,-7.63 -3.36,-4.89 -2.09,-11.38 -5.97,-15.99 -6.96,-10.46 -10.75,-22.38 -16.67,-33.33 -2.66,-4.36 0.53,-8.47 -0.2,-12.79 7.07,-15.14 15.49,-30.21 24.15,-44.74 0.36,-0.95 0.62,-1.93 0.79,-2.93 -12.65,-0.36 -25.31,0.06 -37.96,-0.2 -4.07,-8.69 -10.8,-16.19 -12.19,-26 -3.73,-10.8 -11.27,-19.73 -15.77,-30.22 -2.25,-5.69 -7.88,-10.12 -7.39,-16.67 z"
       id="path489"
       inkscape:connector-curvature="0"
       style="opacity:1;fill:#d2d0d2" />
  </g>
  <g
     id="#c6c4c6fe"
     transform="matrix(0.08,0,0,0.08,5.0000001e-7,7.1600005)">
    <path
       d="m 284.94,125.01 c 11.31,-0.02 22.61,-0.06 33.92,0.03 7.48,8.56 9.58,21.63 19.06,28.14 2.95,5.08 5.43,10.45 8.39,15.52 6.8,3.16 8.19,11.09 12.21,16.74 2.22,3.59 6.53,6.54 6.07,11.24 -4.05,16.71 -13.44,31.42 -19.4,47.44 -6.6,9.72 7.01,16.99 3.88,27.02 -7.24,14.77 -14.78,29.65 -23.14,43.83 -8,4.28 -7.89,-8.07 -12.93,-11.22 -11.12,9.18 -16.87,23.48 -27.8,32.69 -9.57,-16.64 -18.57,-34.15 -27.17,-51.52 -0.05,-4.33 -0.06,-8.64 -0.05,-12.95 1.95,-9.51 7.9,-18.34 13.26,-26.18 0.73,4.32 -2.46,8.43 0.2,12.79 5.92,10.95 9.71,22.87 16.67,33.33 3.88,4.61 2.61,11.1 5.97,15.99 1.95,2.46 -1.19,10.32 3.44,7.63 21.29,-26.01 41.12,-54.17 51.24,-86.54 -7.47,-16.7 -19.52,-30.92 -27.35,-47.51 -11.19,-19.64 -24.8,-37.12 -36.47,-56.47 z"
       id="path492"
       inkscape:connector-curvature="0"
       style="opacity:1;fill:#c6c4c6" />
  </g>
  <g
     id="#bcbabdfe"
     transform="matrix(0.08,0,0,0.08,5.0000001e-7,7.1600005)">
    <path
       d="m 318.86,125.04 c 0.78,-0.01 2.34,-0.03 3.12,-0.04 8.63,0.03 17.25,-0.06 25.89,0.04 12.54,8.7 17.11,23.85 24.81,36.29 1.02,2.16 3.32,2.3 5.35,2.83 0.81,6.45 -3.4,11.83 -3.94,18.05 -0.41,1.18 -0.84,2.36 -1.24,3.54 -5.55,11.69 -11.22,23.42 -15.4,35.68 -3.43,8.56 5.68,13.84 6.57,21.77 -4.79,9.26 -9.17,19.13 -14.95,27.94 3.13,-10.03 -10.48,-17.3 -3.88,-27.02 5.96,-16.02 15.35,-30.73 19.4,-47.44 0.46,-4.7 -3.85,-7.65 -6.07,-11.24 -4.02,-5.65 -5.41,-13.58 -12.21,-16.74 -2.96,-5.07 -5.44,-10.44 -8.39,-15.52 -9.48,-6.51 -11.58,-19.58 -19.06,-28.14 z"
       id="path495"
       inkscape:connector-curvature="0"
       style="opacity:1;fill:#bcbabd" />
  </g>
  <g
     id="#b4b2b5ff"
     transform="matrix(0.08,0,0,0.08,5.0000001e-7,7.1600005)">
    <path
       d="m 347.87,125.04 c 16.72,-0.09 33.44,-0.01 50.17,-0.05 -1.97,4.51 -3.65,9.13 -5.19,13.79 -3.14,7.28 -6.14,14.61 -9.04,21.98 -3.69,6.95 -5.52,14.77 -9.72,21.45 0.54,-6.22 4.75,-11.6 3.94,-18.05 -2.03,-0.53 -4.33,-0.67 -5.35,-2.83 -7.7,-12.44 -12.27,-27.59 -24.81,-36.29 z"
       id="path498"
       inkscape:connector-curvature="0"
       style="opacity:1;fill:#b4b2b5" />
  </g>
  <g
     id="#8b898eff"
     transform="matrix(0.08,0,0,0.08,5.0000001e-7,7.1600005)">
    <path
       d="m 398.04,124.99 0.95,-0.02 c 0.71,0.02 2.13,0.07 2.85,0.09 12.06,24.84 27.06,48.13 39.38,72.86 -7.39,0.07 -14.78,0.14 -22.16,0.07 -7.77,-15.12 -16.06,-29.94 -24.36,-44.77 -3.47,-4.08 -1.92,-9.55 -1.85,-14.44 1.54,-4.66 3.22,-9.28 5.19,-13.79 z"
       id="path501"
       inkscape:connector-curvature="0"
       style="opacity:1;fill:#8b898e" />
  </g>
  <g
     id="#848288ff"
     transform="matrix(0.08,0,0,0.08,5.0000001e-7,7.1600005)">
    <path
       d="m 401.84,125.06 c 7.29,-0.05 14.6,-0.1 21.91,0.02 13.72,24.13 26.58,48.86 40.4,72.88 -7.65,0.04 -15.29,0.09 -22.93,-0.04 C 428.9,173.19 413.9,149.9 401.84,125.06 Z"
       id="path504"
       inkscape:connector-curvature="0"
       style="opacity:1;fill:#848288" />
  </g>
  <g
     id="#7d7b81ff"
     transform="matrix(0.08,0,0,0.08,5.0000001e-7,7.1600005)">
    <path
       d="m 423.75,125.08 c 7.41,-0.08 14.82,-0.14 22.23,-0.1 13.14,24.45 26.83,48.64 40.15,73 -7.34,0.04 -14.66,0.06 -21.98,-0.02 -13.82,-24.02 -26.68,-48.75 -40.4,-72.88 z"
       id="path507"
       inkscape:connector-curvature="0"
       style="opacity:1;fill:#7d7b81" />
  </g>
  <g
     id="#77757cff"
     transform="matrix(0.08,0,0,0.08,5.0000001e-7,7.1600005)">
    <path
       d="m 445.98,124.98 c 7.62,0 15.23,-0.01 22.86,0.09 12.51,24.58 26.66,48.35 39.4,72.85 -7.38,0.07 -14.75,0.13 -22.11,0.06 -13.32,-24.36 -27.01,-48.55 -40.15,-73 z"
       id="path510"
       inkscape:connector-curvature="0"
       style="opacity:1;fill:#77757c" />
  </g>
  <g
     id="#716f76ff"
     transform="matrix(0.08,0,0,0.08,5.0000001e-7,7.1600005)">
    <path
       d="m 468.84,125.07 c 9.04,-0.07 18.09,-0.13 27.14,-0.08 10.97,20 21.75,40.13 33.1,59.93 2.52,2.49 1.2,6.02 1.09,9.12 -1.81,2.83 -5.96,3.6 -9.14,3.98 -4.28,-0.02 -8.54,-0.02 -12.79,-0.1 -12.74,-24.5 -26.89,-48.27 -39.4,-72.85 z"
       id="path513"
       inkscape:connector-curvature="0"
       style="opacity:1;fill:#716f76" />
  </g>
  <g
     id="#6a696ffe"
     transform="matrix(0.08,0,0,0.08,5.0000001e-7,7.1600005)">
    <path
       d="m 495.98,124.99 c 10.99,0.02 21.99,-0.03 32.99,0 6.37,11.1 12.46,22.34 18.63,33.53 2.18,2.99 -0.39,6.38 -0.64,9.58 -2.53,6.87 -7.36,12.66 -10.74,19.14 -1.95,2.15 -2.55,6.8 -6.05,6.8 0.11,-3.1 1.43,-6.63 -1.09,-9.12 -11.35,-19.8 -22.13,-39.93 -33.1,-59.93 z"
       id="path516"
       inkscape:connector-curvature="0"
       style="opacity:1;fill:#6a696f" />
  </g>
  <g
     id="#636269fc"
     transform="matrix(0.08,0,0,0.08,5.0000001e-7,7.1600005)">
    <path
       d="m 528.97,124.99 c 12.02,0.01 24.03,0 36.06,0.01 1.78,-0.32 2.84,1.24 3.94,2.34 -0.03,1.47 -0.01,2.95 0.08,4.42 -7.36,11.99 -13.66,25.24 -22.09,36.34 0.25,-3.2 2.82,-6.59 0.64,-9.58 -6.17,-11.19 -12.26,-22.43 -18.63,-33.53 z"
       id="path519"
       inkscape:connector-curvature="0"
       style="opacity:1;fill:#636269" />
  </g>
  <g
     id="#38383c96"
     transform="matrix(0.08,0,0,0.08,5.0000001e-7,7.1600005)">
    <path
       d="m 568.97,127.34 c 1.9,-0.13 1.92,4.41 0.08,4.42 -0.09,-1.47 -0.11,-2.95 -0.08,-4.42 z"
       id="path522"
       inkscape:connector-curvature="0"
       style="opacity:0.58999999;fill:#38383c" />
  </g>
  <g
     id="#939196ff"
     transform="matrix(0.08,0,0,0.08,5.0000001e-7,7.1600005)">
    <path
       d="m 383.81,160.76 c 2.9,-7.37 5.9,-14.7 9.04,-21.98 -0.07,4.89 -1.62,10.36 1.85,14.44 8.3,14.83 16.59,29.65 24.36,44.77 -7.4,0.29 -15.01,-0.78 -22.28,0.8 -0.55,0.19 -1.67,0.57 -2.23,0.76 l -0.78,0.26 c 0.71,-1.27 1.49,-2.5 2.06,-3.84 -4.32,-11.75 -16,-21.68 -12.02,-35.21 z"
       id="path525"
       inkscape:connector-curvature="0"
       style="opacity:1;fill:#939196" />
  </g>
  <g
     id="#9d9a9efe"
     transform="matrix(0.08,0,0,0.08,5.0000001e-7,7.1600005)">
    <path
       d="m 374.09,182.21 c 4.2,-6.68 6.03,-14.5 9.72,-21.45 -3.98,13.53 7.7,23.46 12.02,35.21 -0.57,1.34 -1.35,2.57 -2.06,3.84 -6.02,3.55 -10.93,8.37 -14.61,14.29 0.82,-10.4 -10.04,-17.73 -6.31,-28.35 0.4,-1.18 0.83,-2.36 1.24,-3.54 z"
       id="path528"
       inkscape:connector-curvature="0"
       style="opacity:1;fill:#9d9a9e" />
  </g>
  <g
     id="#a9a7aafd"
     transform="matrix(0.08,0,0,0.08,5.0000001e-7,7.1600005)">
    <path
       d="m 357.45,221.43 c 4.18,-12.26 9.85,-23.99 15.4,-35.68 -3.73,10.62 7.13,17.95 6.31,28.35 -4.37,9.98 -9.75,19.68 -15.14,29.1 -0.89,-7.93 -10,-13.21 -6.57,-21.77 z"
       id="path531"
       inkscape:connector-curvature="0"
       style="opacity:1;fill:#a9a7aa" />
  </g>
  <g
     id="#929192cb"
     transform="matrix(0.08,0,0,0.08,5.0000001e-7,7.1600005)">
    <path
       d="m 77.96,198.03 c 1.78,-0.01 5.35,-0.04 7.13,-0.05 13.65,0.08 27.31,-0.01 40.97,0.02 12.31,0.04 24.62,-0.03 36.93,0.03 7.67,0.02 15.33,-0.07 23,-0.02 l 0.01,0.98 c -35.67,0.03 -71.33,-0.02 -106.99,0.02 -0.27,-0.24 -0.79,-0.74 -1.05,-0.98 z"
       id="path534"
       inkscape:connector-curvature="0"
       style="opacity:0.8;fill:#929192" />
  </g>
  <g
     id="#a9a8a9d0"
     transform="matrix(0.08,0,0,0.08,5.0000001e-7,7.1600005)">
    <path
       d="m 185.99,198.01 c 2.05,-0.03 4.1,-0.04 6.15,-0.05 10.98,0.1 21.96,0.03 32.95,0.02 11.04,0.08 22.08,0.02 33.13,-0.06 12.65,0.26 25.31,-0.16 37.96,0.2 -0.17,1 -0.43,1.98 -0.79,2.93 L 295,200.13 c -35.18,-2.66 -72.86,-0.35 -109,-1.14 z"
       id="path537"
       inkscape:connector-curvature="0"
       style="opacity:0.81999966;fill:#a9a8a9" />
  </g>
  <g
     id="#605e63bc"
     transform="matrix(0.08,0,0,0.08,5.0000001e-7,7.1600005)">
    <path
       d="m 396.78,198.79 c 7.27,-1.58 14.88,-0.51 22.28,-0.8 7.38,0.07 14.77,0 22.16,-0.07 7.64,0.13 15.28,0.08 22.93,0.04 7.32,0.08 14.64,0.06 21.98,0.02 7.36,0.07 14.73,0.01 22.11,-0.06 4.25,0.08 8.51,0.08 12.79,0.1 -0.33,1.08 -1.34,1.42 -3.03,1.01 -40.4,-0.23 -80.82,0.29 -121.22,-0.24 z"
       id="path540"
       inkscape:connector-curvature="0"
       style="opacity:0.73999999;fill:#605e63" />
  </g>
  <g
     id="#3e3e3e43"
     transform="matrix(0.08,0,0,0.08,5.0000001e-7,7.1600005)">
    <path
       d="m 79.01,199.01 c 35.66,-0.04 71.32,0.01 106.99,-0.02 36.14,0.79 73.82,-1.52 109,1.14 -72,-0.31 -144,-0.01 -215.99,-0.15 z"
       id="path543"
       inkscape:connector-curvature="0"
       style="opacity:0.26000001;fill:#3e3e3e" />
  </g>
  <g
     id="#0f0f101e"
     transform="matrix(0.08,0,0,0.08,5.0000001e-7,7.1600005)">
    <path
       d="m 394.55,199.55 c 0.56,-0.19 1.68,-0.57 2.23,-0.76 40.4,0.53 80.82,0.01 121.22,0.24 l -0.01,0.96 c -41.13,-0.29 -82.35,0.64 -123.44,-0.44 z"
       id="path546"
       inkscape:connector-curvature="0"
       style="opacity:0.12000002;fill:#0f0f10" />
  </g>
  <g
     id="#64563980"
     transform="matrix(0.08,0,0,0.08,5.0000001e-7,7.1600005)">
    <path
       d="m 108.96,210.06 c 28.49,0.52 58.11,-1.39 85.92,0.96 -28.64,-0.03 -57.29,-0.06 -85.93,0.01 z"
       id="path549"
       inkscape:connector-curvature="0"
       style="opacity:0.5;fill:#645639" />
  </g>
  <g
     id="#4e493f55"
     transform="matrix(0.08,0,0,0.08,5.0000001e-7,7.1600005)">
    <path
       d="m 404.96,210.96 c 13.08,-2.43 28.23,-0.23 42.04,-0.95 l 0.01,0.98 c -14.02,0.04 -28.04,0 -42.05,-0.03 z"
       id="path552"
       inkscape:connector-curvature="0"
       style="opacity:0.33000004;fill:#4e493f" />
  </g>
  <g
     id="#7067567d"
     transform="matrix(0.08,0,0,0.08,5.0000001e-7,7.1600005)">
    <path
       d="m 447,210.01 c 15.09,0.02 30.18,-0.17 45.27,0.11 -0.24,0.44 -0.72,1.32 -0.97,1.75 -11.77,-1.55 -23.68,-0.86 -35.52,-0.71 -2.96,-0.09 -5.84,-0.12 -8.77,-0.17 z"
       id="path555"
       inkscape:connector-curvature="0"
       style="opacity:0.49000005;fill:#706756" />
  </g>
  <g
     id="#c2a975f1"
     transform="matrix(0.08,0,0,0.08,5.0000001e-7,7.1600005)">
    <path
       d="m 108.95,211.03 c 28.64,-0.07 57.29,-0.04 85.93,-0.01 l 0.44,0.74 c -16.07,0.48 -32.14,0.12 -48.21,0.26 -11.97,0.08 -23.94,-0.26 -35.9,0.11 -0.12,0.74 -0.36,2.23 -0.48,2.98 -0.73,-1.29 -1.5,-2.6 -1.78,-4.08 z"
       id="path558"
       inkscape:connector-curvature="0"
       style="opacity:0.95;fill:#c2a975" />
  </g>
  <g
     id="#e9d9b8fe"
     transform="matrix(0.08,0,0,0.08,5.0000001e-7,7.1600005)">
    <path
       d="m 404.96,210.96 c 14.01,0.03 28.03,0.07 42.05,0.03 2.93,0.05 5.81,0.08 8.77,0.17 9.95,2.52 26.28,-0.5 28.6,12.99 -15.82,28.97 -31.05,58.26 -47.05,87.13 -1.65,0.55 -3.26,1.4 -5.02,1.49 -15.05,-18.33 -30.07,-36.64 -45.17,-54.92 -2.3,-2.1 -3.16,-5.05 -2.45,-8.07 6.55,-13.04 14.05,-25.6 20.27,-38.82 z"
       id="path561"
       inkscape:connector-curvature="0"
       style="opacity:1;fill:#e9d9b8" />
  </g>
  <g
     id="#ddccaaf8"
     transform="matrix(0.08,0,0,0.08,5.0000001e-7,7.1600005)">
    <path
       d="m 455.78,211.16 c 11.84,-0.15 23.75,-0.84 35.52,0.71 -2.6,3.93 -4.84,8.06 -6.92,12.28 -2.32,-13.49 -18.65,-10.47 -28.6,-12.99 z"
       id="path564"
       inkscape:connector-curvature="0"
       style="opacity:0.97000002;fill:#ddccaa" />
  </g>
  <g
     id="#d0b887fc"
     transform="matrix(0.08,0,0,0.08,5.0000001e-7,7.1600005)">
    <path
       d="m 111.21,212.13 c 11.96,-0.37 23.93,-0.03 35.9,-0.11 -2.94,1.36 -3.41,3.56 -1.02,5.76 0.13,8.83 7.78,14.1 12.4,20.64 -0.47,14 14.19,20.59 19.3,31.97 -1.31,10.06 14.07,16.33 12,27.47 -3.33,15.46 -0.8,31.34 -2.26,46.96 -2.56,13.59 12.38,22.14 12.49,35.48 -30.66,-54.51 -59.27,-110.28 -89.29,-165.19 0.12,-0.75 0.36,-2.24 0.48,-2.98 z"
       id="path567"
       inkscape:connector-curvature="0"
       style="opacity:1;fill:#d0b887" />
  </g>
  <g
     id="#d5be90fe"
     transform="matrix(0.08,0,0,0.08,5.0000001e-7,7.1600005)">
    <path
       d="m 147.11,212.02 c 16.07,-0.14 32.14,0.22 48.21,-0.26 25.48,47.64 50.68,95.43 75.94,143.19 -0.13,3.45 -2.46,6.22 -4.51,8.81 -13.99,16.61 -28.34,32.94 -43.49,48.49 -1.4,2.92 -3.81,0.86 -5.7,0.12 -6.95,-9.99 -12.46,-21.03 -17.54,-32.07 -0.11,-13.34 -15.05,-21.89 -12.49,-35.48 1.46,-15.62 -1.07,-31.5 2.26,-46.96 2.07,-11.14 -13.31,-17.41 -12,-27.47 -5.11,-11.38 -19.77,-17.97 -19.3,-31.97 -4.62,-6.54 -12.27,-11.81 -12.4,-20.64 -2.39,-2.2 -1.92,-4.4 1.02,-5.76 z"
       id="path570"
       inkscape:connector-curvature="0"
       style="opacity:1;fill:#d5be90" />
  </g>
  <g
     id="#dfcca2fe"
     transform="matrix(0.08,0,0,0.08,5.0000001e-7,7.1600005)">
    <path
       d="m 358.64,298.85 c 8.63,-16.39 17.48,-32.65 26.05,-49.07 -0.71,3.02 0.15,5.97 2.45,8.07 15.1,18.28 30.12,36.59 45.17,54.92 1.76,-0.09 3.37,-0.94 5.02,-1.49 -8.49,16.51 -17.5,32.76 -26.14,49.2 -19.29,-18.64 -35.01,-41.17 -52.55,-61.63 z"
       id="path573"
       inkscape:connector-curvature="0"
       style="opacity:1;fill:#dfcca2" />
  </g>
  <g
     id="#70707190"
     transform="matrix(0.08,0,0,0.08,5.0000001e-7,7.1600005)">
    <path
       d="m 258.03,284.92 c -1.4,-1.34 -2.48,-11.01 -0.05,-12.95 -0.01,4.31 0,8.62 0.05,12.95 z"
       id="path576"
       inkscape:connector-curvature="0"
       style="opacity:0.56000001;fill:#707071" />
  </g>
  <g
     id="#d7c191fe"
     transform="matrix(0.08,0,0,0.08,5.0000001e-7,7.1600005)">
    <path
       d="m 339.85,334.64 c 5.78,-12.18 12.81,-23.71 18.79,-35.79 17.54,20.46 33.26,42.99 52.55,61.63 -6.6,11.66 -12.38,23.78 -19.24,35.3 -2.54,-0.01 -3.45,2.2 -4.45,4.13 -16.02,-19.36 -32.06,-38.71 -48.04,-58.08 0.72,-2.36 1.99,-4.85 0.39,-7.19 z"
       id="path579"
       inkscape:connector-curvature="0"
       style="opacity:1;fill:#d7c191" />
  </g>
  <g
     id="#b7b4b7fc"
     transform="matrix(0.08,0,0,0.08,5.0000001e-7,7.1600005)">
    <path
       d="m 285.2,336.44 c 10.93,-9.21 16.68,-23.51 27.8,-32.69 5.04,3.15 4.93,15.5 12.93,11.22 -7.57,14.03 -13.54,30.46 -24.16,42.1 -1.82,-0.1 -3.64,-0.12 -5.46,-0.06 -4.44,-6.27 -7.91,-13.78 -11.11,-20.57 z"
       id="path582"
       inkscape:connector-curvature="0"
       style="opacity:1;fill:#b7b4b7" />
  </g>
  <g
     id="#d1b883fe"
     transform="matrix(0.08,0,0,0.08,5.0000001e-7,7.1600005)">
    <path
       d="m 320.61,370.81 c 6.53,-12 12.61,-24.23 19.24,-36.17 1.6,2.34 0.33,4.83 -0.39,7.19 15.98,19.37 32.02,38.72 48.04,58.08 1,-1.93 1.91,-4.14 4.45,-4.13 -4.49,9.27 -8.77,20.44 -19.69,23.55 -4.69,-0.59 -9.51,-0.96 -13.96,-2.66 -12.69,-15.18 -25.78,-30.06 -37.69,-45.86 z"
       id="path585"
       inkscape:connector-curvature="0"
       style="opacity:1;fill:#d1b883" />
  </g>
  <g
     id="#c6a96efd"
     transform="matrix(0.08,0,0,0.08,5.0000001e-7,7.1600005)">
    <path
       d="m 271.26,354.95 c 9.59,17.48 18.65,35.24 28.07,52.81 3.9,0.21 4.09,-6.42 6.37,-8.98 -1.44,11.55 10.24,19.56 20.5,21.1 -32.15,0.47 -64.32,-0.34 -96.46,0.38 -4.26,-2.26 -9.34,-3.75 -12.18,-7.89 1.89,0.74 4.3,2.8 5.7,-0.12 15.15,-15.55 29.5,-31.88 43.49,-48.49 2.05,-2.59 4.38,-5.36 4.51,-8.81 z"
       id="path588"
       inkscape:connector-curvature="0"
       style="opacity:1;fill:#c6a96e" />
  </g>
  <g
     id="#717071a1"
     transform="matrix(0.08,0,0,0.08,5.0000001e-7,7.1600005)">
    <path
       d="m 296.31,357.01 c 1.82,-0.06 3.64,-0.04 5.46,0.06 -0.43,1.81 -5.14,1.83 -5.46,-0.06 z"
       id="path591"
       inkscape:connector-curvature="0"
       style="opacity:0.62999998;fill:#717071" />
  </g>
  <g
     id="#ccb178fe"
     transform="matrix(0.08,0,0,0.08,5.0000001e-7,7.1600005)">
    <path
       d="m 305.7,398.78 c 5.13,-9.24 9.65,-18.81 14.91,-27.97 11.91,15.8 25,30.68 37.69,45.86 4.45,1.7 9.27,2.07 13.96,2.66 -0.51,0.22 -1.54,0.66 -2.06,0.88 -14.67,-0.46 -29.34,0 -44,-0.33 -10.26,-1.54 -21.94,-9.55 -20.5,-21.1 z"
       id="path594"
       inkscape:connector-curvature="0"
       style="opacity:1;fill:#ccb178" />
  </g>
  <g
     id="#83704aa6"
     transform="matrix(0.08,0,0,0.08,5.0000001e-7,7.1600005)">
    <path
       d="m 229.74,420.26 c 32.14,-0.72 64.31,0.09 96.46,-0.38 14.66,0.33 29.33,-0.13 44,0.33 L 369.61,421 H 230.45 Z"
       id="path597"
       inkscape:connector-curvature="0"
       style="opacity:0.65;fill:#83704a" />
  </g>
</svg>
