<?xml version="1.0" encoding="UTF-8" standalone="no"?>
<svg
   xmlns:dc="http://purl.org/dc/elements/1.1/"
   xmlns:cc="http://creativecommons.org/ns#"
   xmlns:rdf="http://www.w3.org/1999/02/22-rdf-syntax-ns#"
   xmlns:svg="http://www.w3.org/2000/svg"
   xmlns="http://www.w3.org/2000/svg"
   xmlns:sodipodi="http://sodipodi.sourceforge.net/DTD/sodipodi-0.dtd"
   xmlns:inkscape="http://www.inkscape.org/namespaces/inkscape"
   width="64"
   height="64"
   viewBox="0 0 48 48.000001"
   version="1.1"
   id="svg766"
   sodipodi:docname="trid.svg"
   inkscape:version="0.92.3 (2405546, 2018-03-11)">
  <metadata
     id="metadata772">
    <rdf:RDF>
      <cc:Work
         rdf:about="">
        <dc:format>image/svg+xml</dc:format>
        <dc:type
           rdf:resource="http://purl.org/dc/dcmitype/StillImage" />
        <dc:title></dc:title>
      </cc:Work>
    </rdf:RDF>
  </metadata>
  <defs
     id="defs770" />
  <sodipodi:namedview
     pagecolor="#ffffff"
     bordercolor="#666666"
     borderopacity="1"
     objecttolerance="10"
     gridtolerance="10"
     guidetolerance="10"
     inkscape:pageopacity="0"
     inkscape:pageshadow="2"
     inkscape:window-width="1920"
     inkscape:window-height="1017"
     id="namedview768"
     showgrid="false"
     units="px"
     inkscape:pagecheckerboard="true"
     inkscape:zoom="8.5083612"
     inkscape:cx="14.012112"
     inkscape:cy="34.849744"
     inkscape:window-x="-8"
     inkscape:window-y="-8"
     inkscape:window-maximized="1"
     inkscape:current-layer="svg766" />
  <g
     id="#c6c8c9f1"
     transform="matrix(0.08,0,0,0.08,2.5e-7,0.04440025)">
    <path
       d="m 203.21,0.89 c 5.11,2.11 7.5,8.62 11.81,12.14 -4.4,0.13 -8.99,-1.99 -13.22,-0.19 0.46,-3.98 1.35,-7.91 1.41,-11.95 z"
       id="path392"
       inkscape:connector-curvature="0"
       style="opacity:0.95;fill:#c6c8c9" />
  </g>
  <g
     id="#d4d6d7fc"
     transform="matrix(0.08,0,0,0.08,2.5e-7,0.04440025)">
    <path
       d="m 201.8,12.84 c 4.23,-1.8 8.82,0.32 13.22,0.19 4.77,5.12 9.42,10.34 14.06,15.58 -1.21,0.47 -2.66,1.02 -3.12,2.36 -2.08,4.66 -3.59,9.69 -3.79,14.79 3.06,3.35 6.55,6.25 9.97,9.22 -5.62,-1.17 -9.07,-6.51 -14.13,-8.77 -0.53,0.11 -1.61,0.34 -2.14,0.45 0.45,-5.22 -1.95,-10.44 -5.14,-14.39 -3.96,-1.08 -10.5,-3.53 -11.8,1.83 0.71,-7.11 1.96,-14.16 2.87,-21.26 z"
       id="path395"
       inkscape:connector-curvature="0"
       style="opacity:1;fill:#d4d6d7" />
  </g>
  <g
     id="#e5e6e7fb"
     transform="matrix(0.08,0,0,0.08,2.5e-7,0.04440025)">
    <path
       d="m 225.96,30.97 c 0.46,-1.34 1.91,-1.89 3.12,-2.36 13.78,15.41 27.35,31.05 41.27,46.35 -1.01,1.8 -3.11,2.71 -5.03,1.71 -11.9,-5.87 -22.43,-14.02 -33.18,-21.69 -3.42,-2.97 -6.91,-5.87 -9.97,-9.22 0.2,-5.1 1.71,-10.13 3.79,-14.79 z"
       id="path398"
       inkscape:connector-curvature="0"
       style="opacity:1;fill:#e5e6e7" />
  </g>
  <g
     id="#ecedeefc"
     transform="matrix(0.08,0,0,0.08,2.5e-7,0.04440025)">
    <path
       d="m 198.93,34.1 c 1.3,-5.36 7.84,-2.91 11.8,-1.83 3.19,3.95 5.59,9.17 5.14,14.39 -5.85,13.3 -10.27,27.22 -17.2,40.03 -1.79,4.12 -8.43,1.5 -6.96,-2.89 2.45,-16.56 4.6,-33.17 7.22,-49.7 z"
       id="path401"
       inkscape:connector-curvature="0"
       style="opacity:1;fill:#ecedee" />
  </g>
  <g
     id="#d2d4d4fe"
     transform="matrix(0.08,0,0,0.08,2.5e-7,0.04440025)">
    <path
       d="m 215.87,46.66 c 0.53,-0.11 1.61,-0.34 2.14,-0.45 5.06,2.26 8.51,7.6 14.13,8.77 10.75,7.67 21.28,15.82 33.18,21.69 1.92,1 4.02,0.09 5.03,-1.71 3.53,4.35 7.62,8.24 10.91,12.77 -7.68,-0.75 -15.4,-0.84 -23.1,-1.27 -1.87,1.67 -3.55,3.57 -5.49,5.15 -7.43,-1.38 -11.36,5.52 -16.49,9.38 -2.4,-3.48 -4.01,-7.43 -6.37,-10.92 -6.29,0.76 -13.25,1.47 -18.56,5.2 -7.04,6.92 -13.94,13.98 -20.99,20.9 0.19,0.33 0.58,1 0.78,1.33 -1.31,0.42 -2.69,0.51 -4.05,0.54 1.21,-11.46 3.33,-22.8 4.72,-34.24 -1.47,4.39 5.17,7.01 6.96,2.89 6.93,-12.81 11.35,-26.73 17.2,-40.03 z"
       id="path404"
       inkscape:connector-curvature="0"
       style="opacity:1;fill:#d2d4d4" />
  </g>
  <g
     id="#5e60606e"
     transform="matrix(0.08,0,0,0.08,2.5e-7,0.04440025)">
    <path
       d="m 476.28,57.75 c 0.41,-0.21 1.22,-0.65 1.62,-0.87 0.28,26.33 -0.01,52.66 0.11,78.99 l -0.98,0.17 c -0.01,-2.65 -0.02,-5.3 -0.01,-7.94 0,-5.05 -0.01,-10.09 -0.03,-15.14 0.02,-5.01 0.02,-10.02 0,-15.03 -0.76,-13.32 1.42,-27.01 -0.71,-40.18 z"
       id="path407"
       inkscape:connector-curvature="0"
       style="opacity:0.43000004;fill:#5e6060" />
  </g>
  <g
     id="#d0d2d3fd"
     transform="matrix(0.08,0,0,0.08,2.5e-7,0.04440025)">
    <path
       d="m 476.28,57.75 c 2.13,13.17 -0.05,26.86 0.71,40.18 -3.59,3.85 -9.58,0.93 -13.96,0.95 -0.21,-7.36 4.84,-13.6 5.01,-20.87 0.18,-2.57 -2.62,-3.72 -4.13,-5.34 3.98,-5.09 8.05,-10.11 12.37,-14.92 z"
       id="path410"
       inkscape:connector-curvature="0"
       style="opacity:1;fill:#d0d2d3" />
  </g>
  <g
     id="#d8dadbfd"
     transform="matrix(0.08,0,0,0.08,2.5e-7,0.04440025)">
    <path
       d="m 454.82,83.64 c 2.71,-3.91 6,-7.36 9.09,-10.97 1.51,1.62 4.31,2.77 4.13,5.34 -0.17,7.27 -5.22,13.51 -5.01,20.87 4.38,-0.02 10.37,2.9 13.96,-0.95 0.02,5.01 0.02,10.02 0,15.03 -0.73,0.53 -1.47,1.04 -2.23,1.53 -5.9,-0.29 -11.8,-0.37 -17.69,-0.59 -0.06,-1.77 -0.2,-5.32 -0.27,-7.09 2.06,-5.62 5.47,-11.18 4.84,-17.4 -1.95,-2.31 -3.25,-5.9 -6.82,-5.77 z"
       id="path413"
       inkscape:connector-curvature="0"
       style="opacity:1;fill:#d8dadb" />
  </g>
  <g
     id="#ecedeefd"
     transform="matrix(0.08,0,0,0.08,2.5e-7,0.04440025)">
    <path
       d="m 429.93,113.1 c 8.21,-9.89 16.36,-19.84 24.89,-29.46 3.57,-0.13 4.87,3.46 6.82,5.77 0.63,6.22 -2.78,11.78 -4.84,17.4 -2.51,7.1 -6.13,14.38 -13.13,17.94 -6.15,1.1 -12.43,-0.33 -17.52,-3.88 -0.09,-0.73 -0.27,-2.2 -0.36,-2.94 1.37,-1.62 2.86,-3.13 4.14,-4.83 z"
       id="path416"
       inkscape:connector-curvature="0"
       style="opacity:1;fill:#ecedee" />
  </g>
  <g
     id="#d4d6d7fd"
     transform="matrix(0.08,0,0,0.08,2.5e-7,0.04440025)">
    <path
       d="m 258.16,86.46 c 7.7,0.43 15.42,0.52 23.1,1.27 1.34,1.34 2.69,2.66 3.88,4.14 -8.16,2.47 -16.52,4.2 -24.73,6.48 -0.18,0.35 -0.56,1.07 -0.75,1.43 -3.2,2.66 -5.4,8.03 -10.67,6.19 -4.26,-2.12 -6.82,2.96 -10.74,1.93 -1.97,-3.03 -3.62,-6.39 -6.5,-8.68 -8.52,-0.02 -16.77,3.68 -21.18,11.22 0.28,0.4 0.84,1.21 1.12,1.61 -7.1,0.64 -13.7,4 -20.65,5.45 -0.2,-0.33 -0.59,-1 -0.78,-1.33 7.05,-6.92 13.95,-13.98 20.99,-20.9 5.31,-3.73 12.27,-4.44 18.56,-5.2 2.36,3.49 3.97,7.44 6.37,10.92 5.13,-3.86 9.06,-10.76 16.49,-9.38 1.94,-1.58 3.62,-3.48 5.49,-5.15 z"
       id="path419"
       inkscape:connector-curvature="0"
       style="opacity:1;fill:#d4d6d7" />
  </g>
  <g
     id="#d8dadbfe"
     transform="matrix(0.08,0,0,0.08,2.5e-7,0.04440025)">
    <path
       d="m 210.57,110.44 c 4.41,-7.54 12.66,-11.24 21.18,-11.22 2.88,2.29 4.53,5.65 6.5,8.68 3.92,1.03 6.48,-4.05 10.74,-1.93 5.27,1.84 7.47,-3.53 10.67,-6.19 1.87,4.22 3.48,8.58 4.62,13.06 -0.42,-0.42 -1.27,-1.24 -1.69,-1.66 -5.35,3.71 -8.46,11.13 -15.48,12.01 -1.37,0.13 -1.74,1.76 -2.6,2.61 -4.25,-3.46 -4.88,-9.81 -8.7,-13.71 -4.39,0.37 -8.6,2 -12.94,2.68 -3.88,0.49 -8.09,3.14 -8.24,7.41 -0.97,-3.38 -1.87,-6.78 -2.94,-10.13 -0.28,-0.4 -0.84,-1.21 -1.12,-1.61 z"
       id="path422"
       inkscape:connector-curvature="0"
       style="opacity:1;fill:#d8dadb" />
  </g>
  <g
     id="#006a8d97"
     transform="matrix(0.08,0,0,0.08,2.5e-7,0.04440025)">
    <path
       d="m 334.73,101.69 c 10.97,-1.72 22.43,-0.71 33.49,0.04 -4.7,0.15 -9.37,0.21 -14.06,0.37 -6.48,-0.12 -12.97,0.07 -19.43,-0.41 z"
       id="path425"
       inkscape:connector-curvature="0"
       style="opacity:0.58999999;fill:#006a8d" />
  </g>
  <g
     id="#00aceefe"
     transform="matrix(0.08,0,0,0.08,2.5e-7,0.04440025)">
    <path
       d="m 324.13,103.01 c 3.41,-1.16 7.02,-1.2 10.6,-1.32 6.46,0.48 12.95,0.29 19.43,0.41 -2.57,2.81 -5.39,5.38 -7.9,8.25 -0.6,6.12 0.17,12.3 -0.45,18.42 -0.93,0.77 -1.95,1.42 -2.96,2.09 -1.72,0.18 -3.43,0.4 -5.11,0.79 -7.56,0.49 -15.07,1.58 -22.56,2.7 -0.51,-0.13 -1.52,-0.4 -2.03,-0.53 -0.27,-6.58 -0.31,-13.16 -0.1,-19.73 2.89,-4.36 7.04,-7.78 11.08,-11.08 z"
       id="path428"
       inkscape:connector-curvature="0"
       style="opacity:1;fill:#00acee" />
  </g>
  <g
     id="#00b6eefe"
     transform="matrix(0.08,0,0,0.08,2.5e-7,0.04440025)">
    <path
       d="m 354.16,102.1 c 4.69,-0.16 9.36,-0.22 14.06,-0.37 6,0.55 11.99,1.28 17.98,1.96 -4.31,-0.39 -8.89,3.56 -7.19,8.3 0.28,7.09 -1.49,14.69 1.9,21.27 -5.26,-0.2 -10.47,-0.95 -15.69,-1.52 -7.41,-1.12 -14.92,-0.69 -22.37,-0.88 1.01,-0.67 2.03,-1.32 2.96,-2.09 0.62,-6.12 -0.15,-12.3 0.45,-18.42 2.51,-2.87 5.33,-5.44 7.9,-8.25 z"
       id="path431"
       inkscape:connector-curvature="0"
       style="opacity:1;fill:#00b6ee" />
  </g>
  <g
     id="#00a3edfe"
     transform="matrix(0.08,0,0,0.08,2.5e-7,0.04440025)">
    <path
       d="m 300.21,107.13 c 7.67,-2.74 15.8,-3.67 23.92,-4.12 -4.04,3.3 -8.19,6.72 -11.08,11.08 -0.21,6.57 -0.17,13.15 0.1,19.73 0.51,0.13 1.52,0.4 2.03,0.53 -8.71,1.79 -17.36,3.79 -25.96,6.02 -1.75,-0.38 -3.91,-0.01 -5.12,-1.6 -0.02,-3.68 -0.06,-11.02 -0.07,-14.69 4.67,-6.24 11.02,-11.07 16.18,-16.95 z"
       id="path434"
       inkscape:connector-curvature="0"
       style="opacity:1;fill:#00a3ed" />
  </g>
  <g
     id="#01c0edfd"
     transform="matrix(0.08,0,0,0.08,2.5e-7,0.04440025)">
    <path
       d="m 379.01,111.99 c -1.7,-4.74 2.88,-8.69 7.19,-8.3 9.91,1.4 19.76,3.25 29.46,5.72 4.73,1.23 9.33,3.31 14.27,3.69 -1.28,1.7 -2.77,3.21 -4.14,4.83 -1.95,2.36 -4.01,4.63 -5.94,7.01 -1.57,2.11 -3.37,4.03 -5.09,6.01 -2.22,2.68 -4.42,5.38 -6.62,8.08 -8.79,-3.12 -18.23,-3.66 -27.23,-5.77 -3.39,-6.58 -1.62,-14.18 -1.9,-21.27 z"
       id="path437"
       inkscape:connector-curvature="0"
       style="opacity:1;fill:#01c0ed" />
  </g>
  <g
     id="#029cecfd"
     transform="matrix(0.08,0,0,0.08,2.5e-7,0.04440025)">
    <path
       d="m 276.08,112.92 c 7.86,-2.38 15.82,-5.51 24.13,-5.79 -5.16,5.88 -11.51,10.71 -16.18,16.95 0.01,3.67 0.05,11.01 0.07,14.69 1.21,1.59 3.37,1.22 5.12,1.6 -4.76,1.51 -9.43,3.31 -14.19,4.79 -1.47,-4.09 -3.02,-8.15 -4.16,-12.33 -0.81,-3.64 -2.19,-7.11 -3.29,-10.66 2.79,-3.11 5.96,-5.91 8.5,-9.25 z"
       id="path440"
       inkscape:connector-curvature="0"
       style="opacity:1;fill:#029cec" />
  </g>
  <g
     id="#e0e2e3ff"
     transform="matrix(0.08,0,0,0.08,2.5e-7,0.04440025)">
    <path
       d="m 443.67,124.75 c 7,-3.56 10.62,-10.84 13.13,-17.94 0.07,1.77 0.21,5.32 0.27,7.09 5.89,0.22 11.79,0.3 17.69,0.59 0.76,-0.49 1.5,-1 2.23,-1.53 0.02,5.05 0.03,10.09 0.03,15.14 -7.32,2.03 -15.52,-2.25 -22.73,1.2 -0.94,1.88 -1.45,3.93 -2.09,5.92 -0.17,-4.77 -0.01,-9.55 -0.3,-14.32 -3.36,0.65 -5.09,4.22 -7.67,6.23 -2.94,2.1 -5.29,5.01 -8.56,6.63 -5.25,1.24 -9.85,-2.02 -14.37,-4.03 -1.88,-0.86 -1.15,-3.16 -1.45,-4.79 1.93,-2.38 3.99,-4.65 5.94,-7.01 0.09,0.74 0.27,2.21 0.36,2.94 5.09,3.55 11.37,4.98 17.52,3.88 z"
       id="path443"
       inkscape:connector-curvature="0"
       style="opacity:1;fill:#e0e2e3" />
  </g>
  <g
     id="#dddfe0fe"
     transform="matrix(0.08,0,0,0.08,2.5e-7,0.04440025)">
    <path
       d="m 247.11,123.19 c 7.02,-0.88 10.13,-8.3 15.48,-12.01 0.42,0.42 1.27,1.24 1.69,1.66 0.51,1.15 0.97,2.32 1.47,3.48 0.54,1.97 1.15,3.92 1.83,5.85 1.1,3.55 2.48,7.02 3.29,10.66 -4.04,2.08 -6.73,5.89 -10.17,8.74 -3.41,0.44 -7.76,0.13 -10.23,3.09 -4.81,-4.12 -5.76,-11.34 -9.57,-16.39 -7.55,0.94 -19.04,1.48 -21.1,10.56 l -0.59,0.4 c -1.09,-5.79 -3.09,-11.36 -4.58,-17.05 0.15,-4.27 4.36,-6.92 8.24,-7.41 4.34,-0.68 8.55,-2.31 12.94,-2.68 3.82,3.9 4.45,10.25 8.7,13.71 0.86,-0.85 1.23,-2.48 2.6,-2.61 z"
       id="path446"
       inkscape:connector-curvature="0"
       style="opacity:1;fill:#dddfe0" />
  </g>
  <g
     id="#0694e2f2"
     transform="matrix(0.08,0,0,0.08,2.5e-7,0.04440025)">
    <path
       d="m 265.75,116.32 c 3.41,-1.23 6.85,-2.39 10.33,-3.4 -2.54,3.34 -5.71,6.14 -8.5,9.25 -0.68,-1.93 -1.29,-3.88 -1.83,-5.85 z"
       id="path449"
       inkscape:connector-curvature="0"
       style="opacity:0.95;fill:#0694e2" />
  </g>
  <g
     id="#d0d3d4ff"
     transform="matrix(0.08,0,0,0.08,2.5e-7,0.04440025)">
    <path
       d="m 444.23,127.13 c 2.58,-2.01 4.31,-5.58 7.67,-6.23 0.29,4.77 0.13,9.55 0.3,14.32 -0.18,3.65 -0.19,7.32 -0.11,10.97 -0.02,0.68 -0.08,2.05 -0.11,2.74 -1.97,1.47 -4.03,3.5 -6.98,2.02 -6.22,0.41 -12.5,-0.55 -18.67,0.32 -2.5,2.68 -2.36,6.33 -2.34,9.79 -0.08,2.99 -0.01,6.01 0.03,9.01 -0.06,3.01 -0.02,6.05 -0.02,9.07 l -0.98,-0.18 c -0.15,-9.99 0.16,-19.98 -0.05,-29.96 l -0.07,-0.96 c -7.31,-0.13 -14.62,-0.06 -21.92,-0.05 2.12,-3.18 4.76,-5.99 7.16,-8.96 2.2,-2.7 4.4,-5.4 6.62,-8.08 -0.01,4.64 5.94,5.1 8.91,7.42 2.65,1.63 6.4,2.38 9,0.26 4.24,-3.33 9.1,-6.51 11.56,-11.5 z"
       id="path452"
       inkscape:connector-curvature="0"
       style="opacity:1;fill:#d0d3d4" />
  </g>
  <g
     id="#d6dadbff"
     transform="matrix(0.08,0,0,0.08,2.5e-7,0.04440025)">
    <path
       d="m 414.76,130.95 c 1.72,-1.98 3.52,-3.9 5.09,-6.01 0.3,1.63 -0.43,3.93 1.45,4.79 4.52,2.01 9.12,5.27 14.37,4.03 3.27,-1.62 5.62,-4.53 8.56,-6.63 -2.46,4.99 -7.32,8.17 -11.56,11.5 -2.6,2.12 -6.35,1.37 -9,-0.26 -2.97,-2.32 -8.92,-2.78 -8.91,-7.42 z"
       id="path455"
       inkscape:connector-curvature="0"
       style="opacity:1;fill:#d6dadb" />
  </g>
  <g
     id="#e3e5e6ff"
     transform="matrix(0.08,0,0,0.08,2.5e-7,0.04440025)">
    <path
       d="m 219.8,138.83 c 2.06,-9.08 13.55,-9.62 21.1,-10.56 3.81,5.05 4.76,12.27 9.57,16.39 2.47,-2.96 6.82,-2.65 10.23,-3.09 3.44,-2.85 6.13,-6.66 10.17,-8.74 1.14,4.18 2.69,8.24 4.16,12.33 0.38,1.47 0.79,2.93 1.18,4.4 -8.44,5.37 -13.24,15.17 -16.58,24.41 -5.93,-7.18 -6.98,-17.56 -12.84,-24.89 -7.1,-0.53 -13.84,2.32 -20.6,4.03 -0.71,0.92 -1.25,1.93 -1.64,3.04 -1.69,-5.75 -3.6,-11.44 -4.75,-17.32 z"
       id="path458"
       inkscape:connector-curvature="0"
       style="opacity:1;fill:#e3e5e6" />
    <path
       d="m 160.17,324.83 c 4.68,5.74 8.95,11.8 12.99,18.01 0.09,1.44 1.14,3.1 0.11,4.42 -4.13,6.35 -7.86,13.4 -14.23,17.78 -2.02,1.65 -4.52,0.39 -6.78,0.23 -5.64,6.44 -10.91,14.17 -19.4,17 l -0.59,-0.68 c -4.22,-6.27 -9.24,-11.94 -13.54,-18.14 8.21,-1.73 12.81,-10.15 17.61,-16.19 4.3,-0.76 6.96,4.22 10.66,5.75 8.94,-5.8 15.15,-17.38 13.17,-28.18 z"
       id="path460"
       inkscape:connector-curvature="0"
       style="opacity:1;fill:#e3e5e6" />
  </g>
  <g
     id="#e7e8e9ff"
     transform="matrix(0.08,0,0,0.08,2.5e-7,0.04440025)">
    <path
       d="m 454.29,129.3 c 7.21,-3.45 15.41,0.83 22.73,-1.2 -0.01,2.64 0,5.29 0.01,7.94 -0.03,1.66 -0.04,3.32 -0.06,4.98 -6.97,1.89 -14.48,-1.81 -21.35,0.56 -2.14,0.55 -2.64,2.9 -3.53,4.61 -0.08,-3.65 -0.07,-7.32 0.11,-10.97 0.64,-1.99 1.15,-4.04 2.09,-5.92 z"
       id="path463"
       inkscape:connector-curvature="0"
       style="opacity:1;fill:#e7e8e9" />
  </g>
  <g
     id="#0d84baff"
     transform="matrix(0.08,0,0,0.08,2.5e-7,0.04440025)">
    <path
       d="m 337.74,131.65 c 1.68,-0.39 3.39,-0.61 5.11,-0.79 7.45,0.19 14.96,-0.24 22.37,0.88 -9.16,0.34 -18.33,0.42 -27.48,-0.09 z"
       id="path466"
       inkscape:connector-curvature="0"
       style="opacity:1;fill:#0d84ba" />
  </g>
  <g
     id="#213a68ff"
     transform="matrix(0.08,0,0,0.08,2.5e-7,0.04440025)">
    <path
       d="m 315.18,134.35 c 7.49,-1.12 15,-2.21 22.56,-2.7 9.15,0.51 18.32,0.43 27.48,0.09 5.22,0.57 10.43,1.32 15.69,1.52 9,2.11 18.44,2.65 27.23,5.77 -2.4,2.97 -5.04,5.78 -7.16,8.96 l -0.09,0.95 c 7.03,0.15 14.06,0.05 21.1,0.08 0.03,10.33 -0.03,20.66 0.02,30.99 -0.03,38.67 0,77.34 0,116.02 0.02,1.42 -0.41,2.79 -0.86,4.12 -2.47,0.85 -4.96,1.63 -7.4,2.58 -26.44,7.78 -52.5,16.82 -78.85,24.92 -4.39,-6.53 -5.35,-15.54 -8.48,-22.88 -2.66,-10.5 -6.77,-20.59 -10,-30.92 -13.34,-41.45 -26.41,-82.99 -40.21,-124.29 -0.39,-1.47 -0.8,-2.93 -1.18,-4.4 4.76,-1.48 9.43,-3.28 14.19,-4.79 8.6,-2.23 17.25,-4.23 25.96,-6.02 z"
       id="path469"
       inkscape:connector-curvature="0"
       style="opacity:1;fill:#213a68" />
  </g>
  <g
     id="#68e4f0ff"
     transform="matrix(0.08,0,0,0.08,2.5e-7,0.04440025)">
    <path
       d="m 477.03,136.04 0.98,-0.17 c 0.01,11.99 -0.05,23.98 0.01,35.98 l -0.98,0.2 c -0.04,-1.95 -0.06,-3.9 -0.1,-5.85 0.02,-4.76 0.07,-9.5 0.05,-14.25 0,-3.65 0.03,-7.29 -0.02,-10.93 0.02,-1.66 0.03,-3.32 0.06,-4.98 z"
       id="path472"
       inkscape:connector-curvature="0"
       style="opacity:1;fill:#68e4f0" />
  </g>
  <g
     id="#00d9ecfd"
     transform="matrix(0.08,0,0,0.08,2.5e-7,0.04440025)">
    <path
       d="m 478.01,135.87 c 7.7,4.33 15.29,9.11 21.95,14.93 -4.73,4.68 -10.03,8.93 -13.99,14.29 -0.72,4.86 0.89,9.46 1.99,14.07 -3.29,-2.47 -6.63,-4.87 -9.94,-7.31 -0.06,-12 0,-23.99 -0.01,-35.98 z"
       id="path475"
       inkscape:connector-curvature="0"
       style="opacity:1;fill:#00d9ec" />
  </g>
  <g
     id="#0185edfe"
     transform="matrix(0.08,0,0,0.08,2.5e-7,0.04440025)">
    <path
       d="m 219.21,139.23 0.59,-0.4 c 1.15,5.88 3.06,11.57 4.75,17.32 1.24,4.49 2.85,8.91 3.73,13.51 -16.75,11.79 -32.2,25.43 -45.23,41.27 -2.75,0.27 -3.61,3.34 -5.93,4.34 -0.25,-12.1 -0.12,-24.2 -0.15,-36.29 -0.21,-4.02 3.61,-6.6 4.99,-10.07 10.88,-11.56 24,-21 37.25,-29.68 z"
       id="path478"
       inkscape:connector-curvature="0"
       style="opacity:1;fill:#0185ed" />
  </g>
  <g
     id="#eeeeefff"
     transform="matrix(0.08,0,0,0.08,2.5e-7,0.04440025)">
    <path
       d="m 455.62,141.58 c 6.87,-2.37 14.38,1.33 21.35,-0.56 0.05,3.64 0.02,7.28 0.02,10.93 -1.2,1 -2.46,2.11 -4.05,1.18 -6.71,-1.73 -17.67,-3.08 -20.77,5.02 -0.09,-3.09 -0.17,-6.15 -0.19,-9.22 0.03,-0.69 0.09,-2.06 0.11,-2.74 0.89,-1.71 1.39,-4.06 3.53,-4.61 z"
       id="path481"
       inkscape:connector-curvature="0"
       style="opacity:1;fill:#eeeeef" />
    <path
       d="m 449.92,187.74 c 1.03,-2.54 1.35,-5.29 1.94,-7.94 0.22,6.08 0.44,12.27 -1.03,18.22 -4.41,-1.85 -8.75,-4.43 -13.77,-3.97 -4.37,0.97 -8.48,3.16 -13.04,3.05 -0.03,-3.67 -0.07,-7.37 -0.05,-11.04 3.02,1.92 6.54,-0.09 9.63,-0.56 5.46,-1.38 11.17,0.35 16.32,2.24 z"
       id="path483"
       inkscape:connector-curvature="0"
       style="opacity:1;fill:#eeeeef" />
  </g>
  <g
     id="#707f9aff"
     transform="matrix(0.08,0,0,0.08,2.5e-7,0.04440025)">
    <path
       d="m 400.98,147.99 c 7.3,-0.01 14.61,-0.08 21.92,0.05 l 0.07,0.96 -0.98,0.02 c -7.04,-0.03 -14.07,0.07 -21.1,-0.08 z"
       id="path486"
       inkscape:connector-curvature="0"
       style="opacity:1;fill:#707f9a" />
  </g>
  <g
     id="#ebececff"
     transform="matrix(0.08,0,0,0.08,2.5e-7,0.04440025)">
    <path
       d="m 226.19,153.11 c 6.76,-1.71 13.5,-4.56 20.6,-4.03 5.86,7.33 6.91,17.71 12.84,24.89 3.34,-9.24 8.14,-19.04 16.58,-24.41 13.8,41.3 26.87,82.84 40.21,124.29 -0.42,1.1 -0.95,2.15 -1.59,3.14 -9.63,-0.55 -18.07,-5.64 -26.8,-9.15 -2.01,6.65 4.18,13.74 0.63,19.8 -7.14,4.19 -15.38,5.74 -23.03,8.56 -2.32,-7.97 -4.75,-15.92 -6.96,-23.92 0.61,0.41 1.24,0.78 1.89,1.13 5.19,-3.75 12.13,-3.74 17.39,-7.48 2.24,-1.7 6.74,-2.31 3.99,-6.95 -6.17,-30.53 -15.45,-60.47 -27.88,-89.04 -2.76,-5.84 -10.95,-2.12 -15.68,-1.52 -3.08,1.1 -8.07,0.6 -8.79,4.73 -0.43,-1.17 -0.86,-2.34 -1.31,-3.49 -0.88,-4.6 -2.49,-9.02 -3.73,-13.51 0.39,-1.11 0.93,-2.12 1.64,-3.04 z"
       id="path489"
       inkscape:connector-curvature="0"
       style="opacity:1;fill:#ebecec" />
  </g>
  <g
     id="#3d537bff"
     transform="matrix(0.08,0,0,0.08,2.5e-7,0.04440025)">
    <path
       d="m 421.99,149.02 0.98,-0.02 c 0.21,9.98 -0.1,19.97 0.05,29.96 l -0.02,1.01 -0.99,0.04 c -0.05,-10.33 0.01,-20.66 -0.02,-30.99 z"
       id="path492"
       inkscape:connector-curvature="0"
       style="opacity:1;fill:#3d537b" />
  </g>
  <g
     id="#d7d9daff"
     transform="matrix(0.08,0,0,0.08,2.5e-7,0.04440025)">
    <path
       d="m 445,150.95 c 2.95,1.48 5.01,-0.55 6.98,-2.02 0.02,3.07 0.1,6.13 0.19,9.22 l -0.2,0.78 c -1.19,2.22 -3.14,2.8 -5.87,1.74 -7.38,-1.01 -14.78,-0.72 -22.11,0.39 -0.02,-3.46 -0.16,-7.11 2.34,-9.79 6.17,-0.87 12.45,0.09 18.67,-0.32 z"
       id="path495"
       inkscape:connector-curvature="0"
       style="opacity:1;fill:#d7d9da" />
    <path
       d="m 299.1,305.02 c 6.83,1.72 13.76,3.65 20.89,2.99 4.2,2.49 4.97,-1.09 6.43,-3.24 3.13,7.34 4.09,16.35 8.48,22.88 1.28,0.45 2.44,1.19 3.33,2.23 -10.79,0.97 -21.47,-0.41 -32.09,-1.88 -0.44,3.07 0.84,7 -2.44,8.68 -7.66,3.24 -15.6,5.79 -23.66,7.85 -2.62,-6.93 -4.51,-14.12 -6.39,-21.27 2.15,0.29 4.39,0.91 6.48,-0.04 6.43,-2.28 13.37,-3.85 18.77,-8.28 0.05,-2.48 0.15,-7.44 0.2,-9.92 z"
       id="path497"
       inkscape:connector-curvature="0"
       style="opacity:1;fill:#d7d9da" />
  </g>
  <g
     id="#00e0edfd"
     transform="matrix(0.08,0,0,0.08,2.5e-7,0.04440025)">
    <path
       d="m 485.97,165.09 c 3.96,-5.36 9.26,-9.61 13.99,-14.29 9.75,6.69 18.75,14.55 27,22.99 -5.68,5.41 -11.37,10.84 -16.72,16.57 -2.97,5.82 4.4,8.33 3.76,13.76 -7.7,-9.3 -16.9,-17.14 -26.04,-24.96 -1.1,-4.61 -2.71,-9.21 -1.99,-14.07 z"
       id="path500"
       inkscape:connector-curvature="0"
       style="opacity:1;fill:#00e0ed" />
  </g>
  <g
     id="#f3f3f4ff"
     transform="matrix(0.08,0,0,0.08,2.5e-7,0.04440025)">
    <path
       d="m 452.17,158.15 c 3.1,-8.1 14.06,-6.75 20.77,-5.02 1.59,0.93 2.85,-0.18 4.05,-1.18 0.02,4.75 -0.03,9.49 -0.05,14.25 -3.93,-0.5 -6.54,-4.6 -10.95,-3.23 -4.98,-1.05 -11.4,0.94 -12.65,6.38 -0.27,7.38 -1.38,15.2 0.95,22.37 5.82,6.69 15.54,4.01 22.66,1.1 0.02,5.03 0.07,10.07 0.07,15.11 -6.19,-2.18 -13.02,1.59 -19.36,-0.51 -1.82,-0.52 -4.43,-0.93 -4.57,1.67 -1.88,9.07 -0.2,18.76 -3.39,27.62 -4.81,2.57 -10.46,4.24 -15.83,2.51 -3.32,-0.33 -6.66,-3.27 -9.89,-1.28 -0.03,-3.68 -0.01,-7.32 0.02,-10.98 2.57,-2.31 4.35,1.39 6.37,2.66 6.55,2.6 15.2,2.79 19.43,-3.86 1.03,-5.83 1.93,-11.99 0.31,-17.79 -0.36,-3.96 -5.1,-4.81 -8.1,-6 -4.96,-2.05 -10.61,0.18 -14.33,3.66 -1.1,1.26 -2.34,1.4 -3.7,0.44 -0.06,-3.01 0,-5.98 0.04,-8.97 4.56,0.11 8.67,-2.08 13.04,-3.05 5.02,-0.46 9.36,2.12 13.77,3.97 1.47,-5.95 1.25,-12.14 1.03,-18.22 0,-1.75 0,-5.24 0.01,-6.99 0.07,-1.62 0.11,-3.24 0.12,-4.86 -0.01,-3.02 -0.04,-6.01 -0.02,-9.02 z"
       id="path503"
       inkscape:connector-curvature="0"
       style="opacity:1;fill:#f3f3f4" />
  </g>
  <g
     id="#dddedfff"
     transform="matrix(0.08,0,0,0.08,2.5e-7,0.04440025)">
    <path
       d="m 446.1,160.67 c 2.73,1.06 4.68,0.48 5.87,-1.74 -0.02,3.01 0.01,6 0.02,9.02 -1.15,0.71 -2.15,2.1 -3.67,1.68 -8.1,-1.1 -16.25,-0.65 -24.3,0.44 -0.04,-3 -0.11,-6.02 -0.03,-9.01 7.33,-1.11 14.73,-1.4 22.11,-0.39 z"
       id="path506"
       inkscape:connector-curvature="0"
       style="opacity:1;fill:#dddedf" />
  </g>
  <g
     id="#fafafaff"
     transform="matrix(0.08,0,0,0.08,2.5e-7,0.04440025)">
    <path
       d="m 453.34,169.35 c 1.25,-5.44 7.67,-7.43 12.65,-6.38 4.41,-1.37 7.02,2.73 10.95,3.23 0.04,1.95 0.06,3.9 0.1,5.85 -0.1,6.92 0.04,13.84 -0.09,20.77 -7.12,2.91 -16.84,5.59 -22.66,-1.1 -2.33,-7.17 -1.22,-14.99 -0.95,-22.37 z"
       id="path509"
       inkscape:connector-curvature="0"
       style="opacity:1;fill:#fafafa" />
  </g>
  <g
     id="#eff0f1ff"
     transform="matrix(0.08,0,0,0.08,2.5e-7,0.04440025)">
    <path
       d="m 238.38,168.42 c 4.73,-0.6 12.92,-4.32 15.68,1.52 12.43,28.57 21.71,58.51 27.88,89.04 2.75,4.64 -1.75,5.25 -3.99,6.95 -5.26,3.74 -12.2,3.73 -17.39,7.48 -0.65,-0.35 -1.28,-0.72 -1.89,-1.13 -1.91,-5.62 -3.36,-11.37 -5.03,-17.07 6.75,-1.74 13.7,-3.86 19.24,-8.29 1.95,-1.65 5.47,-2.74 2.68,-6.56 -3.72,-18.21 -8.98,-36.2 -16.81,-53.09 -5.17,-4.13 -12.91,-1.84 -18.66,-0.17 -1.98,0.9 -5.25,0.3 -5.59,3.09 -1.7,-5.67 -3.2,-11.38 -4.91,-17.04 0.72,-4.13 5.71,-3.63 8.79,-4.73 z"
       id="path512"
       inkscape:connector-curvature="0"
       style="opacity:1;fill:#eff0f1" />
  </g>
  <g
     id="#e2e4e4ff"
     transform="matrix(0.08,0,0,0.08,2.5e-7,0.04440025)">
    <path
       d="m 448.32,169.63 c 1.52,0.42 2.52,-0.97 3.67,-1.68 -0.01,1.62 -0.05,3.24 -0.12,4.86 -0.12,2.29 -0.8,4.32 -2.05,6.09 -8.6,-1.1 -17.28,-1.34 -25.82,0.24 0,-3.02 -0.04,-6.06 0.02,-9.07 8.05,-1.09 16.2,-1.54 24.3,-0.44 z"
       id="path515"
       inkscape:connector-curvature="0"
       style="opacity:1;fill:#e2e4e4" />
  </g>
  <g
     id="#0078edfe"
     transform="matrix(0.08,0,0,0.08,2.5e-7,0.04440025)">
    <path
       d="m 170.16,180.17 c 3.33,-4.35 7.24,-8.21 11.8,-11.26 -1.38,3.47 -5.2,6.05 -4.99,10.07 0.03,12.09 -0.1,24.19 0.15,36.29 2.32,-1 3.18,-4.07 5.93,-4.34 -14.26,18.14 -26.43,37.97 -34.77,59.52 -0.52,-0.18 -1.55,-0.54 -2.07,-0.72 -0.77,-19.68 0.43,-39.4 -0.53,-59.06 7.5,-10.67 15.17,-21.32 24.48,-30.5 z"
       id="path518"
       inkscape:connector-curvature="0"
       style="opacity:1;fill:#0078ed" />
  </g>
  <g
     id="#223b69ff"
     transform="matrix(0.08,0,0,0.08,2.5e-7,0.04440025)">
    <path
       d="m 183.05,210.93 c 13.03,-15.84 28.48,-29.48 45.23,-41.27 0.45,1.15 0.88,2.32 1.31,3.49 1.71,5.66 3.21,11.37 4.91,17.04 6.35,21.68 12.7,43.37 19.14,65.02 1.67,5.7 3.12,11.45 5.03,17.07 2.21,8 4.64,15.95 6.96,23.92 2.25,9.13 5.37,18.03 8.02,27.06 1.88,7.15 3.77,14.34 6.39,21.27 -9.95,5.68 -21.7,7.05 -32.29,11.35 -17.31,5 -34.25,11.38 -51.66,16.11 -3.17,-2.76 -5.21,-6.74 -7.85,-10.03 -1.82,-2.53 -3.72,-4.99 -5.9,-7.21 -2.71,-4.22 -5.24,-8.7 -9.18,-11.91 -4.04,-6.21 -8.31,-12.27 -12.99,-18.01 -6.89,-9.14 -13.89,-18.22 -20.53,-27.55 2.84,-8.96 5.07,-18.12 8.64,-26.83 8.34,-21.55 20.51,-41.38 34.77,-59.52 z"
       id="path521"
       inkscape:connector-curvature="0"
       style="opacity:1;fill:#223b69" />
  </g>
  <g
     id="#7786a0ff"
     transform="matrix(0.08,0,0,0.08,2.5e-7,0.04440025)">
    <path
       d="m 477.04,172.05 0.98,-0.2 c -0.09,35.68 0.08,71.37 -0.07,107.05 -0.19,0.33 -0.56,0.99 -0.74,1.32 -0.15,-5.06 -0.17,-10.1 -0.24,-15.15 -0.02,-3.75 0.08,-7.46 0.06,-11.19 -0.03,-3.29 0.01,-6.54 -0.05,-9.81 0.02,-4.01 0.02,-8.02 0.01,-12.03 -0.02,-3.67 0.05,-7.31 -0.01,-10.98 -0.01,-4.38 0.07,-8.76 0.04,-13.13 0,-5.04 -0.05,-10.08 -0.07,-15.11 0.13,-6.93 -0.01,-13.85 0.09,-20.77 z"
       id="path524"
       inkscape:connector-curvature="0"
       style="opacity:1;fill:#7786a0" />
  </g>
  <g
     id="#213b69ff"
     transform="matrix(0.08,0,0,0.08,2.5e-7,0.04440025)">
    <path
       d="m 478.02,171.85 c 3.31,2.44 6.65,4.84 9.94,7.31 9.14,7.82 18.34,15.66 26.04,24.96 9.47,10.11 16.98,21.76 24.82,33.12 6.53,12.38 13.18,24.76 17.86,38.01 7.31,19.39 10.55,39.95 12.65,60.48 -0.48,9.16 -0.44,18.33 -0.04,27.49 -1.09,21.74 -6.43,42.97 -13.46,63.46 -1.38,3.05 -2.63,6.15 -4.01,9.2 -5.64,-2.51 -10.45,-6.53 -15.48,-10.03 -7.77,-7.05 -13.59,-15.94 -18.16,-25.32 -4.69,-12.52 -6.61,-25.98 -6.04,-39.32 0.36,-2.83 0.79,-5.6 0.66,-8.44 2.85,-25.94 12.51,-50.63 24.16,-73.79 1.43,-3.23 3.45,-6.12 5.38,-9.05 3.02,-3.81 -4.21,-1.84 -6.58,-1.35 -10.86,2.03 -21.34,5.83 -31.03,11.12 -3.54,1.61 -6.79,3.8 -9.97,6.02 -2.62,1.68 -5.31,3.24 -7.77,5.13 -3.83,2.79 -7.88,5.42 -11.09,8.95 -4.61,3.68 -9.19,7.46 -12.99,12 -3.77,4.25 -7.73,8.35 -11.03,12.99 -3.33,3.76 -5.91,8.11 -8.96,12.09 -3.9,5.79 -8.17,11.43 -11.16,17.77 -4.49,6.37 -8.09,13.28 -11.79,20.12 -4.39,8.2 -9.51,15.98 -14.09,24.08 -5.49,8.45 -11.05,16.87 -16.97,25.04 -5.99,8.59 -12.78,16.57 -19.02,24.97 -7.9,9.09 -15.77,18.22 -24.07,26.96 -7.47,7.86 -15.73,14.88 -23.88,22.03 -7.86,6.66 -16.64,12.05 -25.06,17.95 -8.33,4.76 -17.04,8.77 -26.08,11.97 -4.18,0.87 -8.35,1.78 -12.55,2.53 -6.16,-0.31 -12.32,-0.32 -18.48,-0.08 -3.91,-0.68 -7.75,-1.7 -11.61,-2.61 -9.66,-3.6 -18.2,-9.39 -26.09,-15.95 -6.07,-4.6 -10.48,-10.79 -15.91,-16.05 -7.94,-10.9 -16.01,-21.82 -22.3,-33.78 -5.43,-9.6 -9.91,-19.69 -14.1,-29.88 -5.3,-13.55 -10.88,-27.53 -11.62,-42.18 1.68,1.64 3.08,3.52 4.57,5.33 2.27,4.07 5.62,7.41 8.24,11.25 7.56,10.66 15.67,20.94 23.37,31.5 8.34,-0.13 15.78,-4.84 23.91,-6.51 3.03,-0.84 5.98,-1.92 8.96,-2.89 5.37,-1.63 10.56,-3.8 16.03,-5.09 16.52,-5.63 33.31,-10.43 49.75,-16.31 7.06,-2.52 14.57,-3.78 21.38,-6.98 0.62,0.03 1.85,0.11 2.47,0.15 5.52,12.34 8.02,25.77 13.08,38.3 0.5,2.2 1.2,4.34 1.94,6.48 0.95,4.25 2.46,8.35 3.88,12.48 1.43,4.83 3.16,9.56 4.62,14.39 2.92,0.95 4.47,-2.94 6.7,-3.83 9.09,-7.17 17.09,-15.56 25.14,-23.85 1.72,-1.59 3.37,-3.24 5.02,-4.9 1.93,-1.75 3.53,-3.81 5.01,-5.95 1.21,-1.46 2.35,-2.99 3.39,-4.58 -0.46,-2.33 -1.37,-4.54 -2.08,-6.8 -4.13,-13.27 -8.29,-26.57 -12.62,-39.77 15.89,-4.89 31.87,-9.55 47.59,-14.98 3.34,-0.72 6.99,-1.3 9.87,-3.16 1.78,-2.83 3.32,-5.82 4.89,-8.78 13.15,-25.13 30.43,-48.54 52.75,-66.28 3.41,-3.32 7.88,-5.38 11.21,-8.77 0.18,-0.33 0.55,-0.99 0.74,-1.32 0.15,-35.68 -0.02,-71.37 0.07,-107.05 z"
       id="path527"
       inkscape:connector-curvature="0"
       style="opacity:1;fill:#213b69" />
  </g>
  <g
     id="#e8e9eaff"
     transform="matrix(0.08,0,0,0.08,2.5e-7,0.04440025)">
    <path
       d="m 449.82,178.9 c 1.25,-1.77 1.93,-3.8 2.05,-6.09 -0.01,1.75 -0.01,5.24 -0.01,6.99 -0.59,2.65 -0.91,5.4 -1.94,7.94 -5.15,-1.89 -10.86,-3.62 -16.32,-2.24 -3.09,0.47 -6.61,2.48 -9.63,0.56 0.01,-1.73 0.02,-5.19 0.03,-6.92 8.54,-1.58 17.22,-1.34 25.82,-0.24 z"
       id="path530"
       inkscape:connector-curvature="0"
       style="opacity:1;fill:#e8e9ea" />
    <path
       d="m 348.19,366.19 c 12.82,-14.22 38.39,-14 50.3,1.02 -15.72,5.43 -31.7,10.09 -47.59,14.98 4.33,13.2 8.49,26.5 12.62,39.77 -1.53,1.37 -3.95,1.46 -5.54,0.05 -8.98,-4.49 -15.91,-12.62 -18.63,-22.32 -2.47,-11.71 -0.06,-24.93 8.84,-33.5 z"
       id="path532"
       inkscape:connector-curvature="0"
       style="opacity:1;fill:#e8e9ea" />
  </g>
  <g
     id="#00e8edfe"
     transform="matrix(0.08,0,0,0.08,2.5e-7,0.04440025)">
    <path
       d="m 510.24,190.36 c 5.35,-5.73 11.04,-11.16 16.72,-16.57 10.96,11.15 21.19,23.08 29.93,36.07 -6.7,6.32 -13.2,12.86 -19.65,19.43 -1.12,2.83 2.06,5.07 1.58,7.95 -7.84,-11.36 -15.35,-23.01 -24.82,-33.12 0.64,-5.43 -6.73,-7.94 -3.76,-13.76 z"
       id="path535"
       inkscape:connector-curvature="0"
       style="opacity:1;fill:#00e8ed" />
  </g>
  <g
     id="#b8bfccff"
     transform="matrix(0.08,0,0,0.08,2.5e-7,0.04440025)">
    <path
       d="m 423.02,178.96 0.98,0.18 c -0.01,1.73 -0.02,5.19 -0.03,6.92 -0.02,3.67 0.02,7.37 0.05,11.04 -0.04,2.99 -0.1,5.96 -0.04,8.97 0,6.96 0.01,13.93 0.02,20.89 -0.03,3.66 -0.05,7.3 -0.02,10.98 -0.06,3.31 0,6.66 0,9.98 -0.06,3.01 0.02,6.06 -0.01,9.09 l -0.96,-0.02 c -0.03,-25.68 0.01,-51.35 -0.01,-77.02 z"
       id="path538"
       inkscape:connector-curvature="0"
       style="opacity:1;fill:#b8bfcc" />
  </g>
  <g
     id="#2a426eff"
     transform="matrix(0.08,0,0,0.08,2.5e-7,0.04440025)">
    <path
       d="m 422.01,180.01 0.99,-0.04 c 0.02,25.67 -0.02,51.34 0.01,77.02 0.01,14.06 -0.16,28.13 0.18,42.19 -0.51,0.24 -1.53,0.73 -2.04,0.97 0.45,-1.33 0.88,-2.7 0.86,-4.12 0,-38.68 -0.03,-77.35 0,-116.02 z"
       id="path541"
       inkscape:connector-curvature="0"
       style="opacity:1;fill:#2a426e" />
  </g>
  <g
     id="#f7f8f8ff"
     transform="matrix(0.08,0,0,0.08,2.5e-7,0.04440025)">
    <path
       d="m 240.09,187.1 c 5.75,-1.67 13.49,-3.96 18.66,0.17 7.83,16.89 13.09,34.88 16.81,53.09 2.79,3.82 -0.73,4.91 -2.68,6.56 -5.54,4.43 -12.49,6.55 -19.24,8.29 -6.44,-21.65 -12.79,-43.34 -19.14,-65.02 0.34,-2.79 3.61,-2.19 5.59,-3.09 z"
       id="path544"
       inkscape:connector-curvature="0"
       style="opacity:1;fill:#f7f8f8" />
  </g>
  <g
     id="#f7f7f8ff"
     transform="matrix(0.08,0,0,0.08,2.5e-7,0.04440025)">
    <path
       d="m 427.68,205.63 c 3.72,-3.48 9.37,-5.71 14.33,-3.66 3,1.19 7.74,2.04 8.1,6 1.62,5.8 0.72,11.96 -0.31,17.79 -4.23,6.65 -12.88,6.46 -19.43,3.86 -2.02,-1.27 -3.8,-4.97 -6.37,-2.66 -0.01,-6.96 -0.02,-13.93 -0.02,-20.89 1.36,0.96 2.6,0.82 3.7,-0.44 m 6.62,2.66 c -7.71,2.96 -5.74,16.27 2.67,16.73 7.51,1.9 13.31,-8.69 8.08,-14.06 -2.01,-3.8 -7.29,-3.2 -10.75,-2.67 z"
       id="path547"
       inkscape:connector-curvature="0"
       style="opacity:1;fill:#f7f7f8" />
  </g>
  <g
     id="#a5a6a7c5"
     transform="matrix(0.08,0,0,0.08,2.5e-7,0.04440025)">
    <path
       d="m 0,204.85 c 2.03,0.63 4.1,1.15 6.14,1.76 -1.36,0.42 -2.45,1.32 -3.43,2.33 C 1.84,207.82 0.94,206.72 0,205.67 Z"
       id="path550"
       inkscape:connector-curvature="0"
       style="opacity:0.76999996;fill:#a5a6a7" />
  </g>
  <g
     id="#cccecff8"
     transform="matrix(0.08,0,0,0.08,2.5e-7,0.04440025)">
    <path
       d="m 2.71,208.94 c 0.98,-1.01 2.07,-1.91 3.43,-2.33 7.26,2.29 14.76,3.65 22.02,5.92 -3.21,1.72 -6.04,4.28 -8.12,7.29 5.68,5.91 14.14,8.66 19.16,15.19 -2.9,3.56 -6.52,6.46 -9.43,10.01 C 20.74,233 11.73,220.96 2.71,208.94 Z"
       id="path553"
       inkscape:connector-curvature="0"
       style="opacity:0.97000002;fill:#cccecf" />
  </g>
  <g
     id="#ededeeff"
     transform="matrix(0.08,0,0,0.08,2.5e-7,0.04440025)">
    <path
       d="m 453.09,209.09 c 0.14,-2.6 2.75,-2.19 4.57,-1.67 6.34,2.1 13.17,-1.67 19.36,0.51 0.03,4.37 -0.05,8.75 -0.04,13.13 -1.41,-1.08 -2.91,-2.53 -4.85,-1.87 -5.95,1.07 -11.98,0.81 -17.92,-0.07 -2.72,7.62 -1.48,16.53 -3.58,24.56 -0.71,2.19 -0.52,5.47 -4.63,4.34 -5.99,2.03 -12.39,0.9 -18.35,-0.61 -1.27,-0.55 -2.5,0.02 -3.67,0.51 0,-3.32 -0.06,-6.67 0,-9.98 3.23,-1.99 6.57,0.95 9.89,1.28 5.37,1.73 11.02,0.06 15.83,-2.51 3.19,-8.86 1.51,-18.55 3.39,-27.62 z"
       id="path556"
       inkscape:connector-curvature="0"
       style="opacity:1;fill:#ededee" />
  </g>
  <g
     id="#fbfbfbff"
     transform="matrix(0.08,0,0,0.08,2.5e-7,0.04440025)">
    <path
       d="m 434.3,208.29 c 3.46,-0.53 8.74,-1.13 10.75,2.67 5.23,5.37 -0.57,15.96 -8.08,14.06 -8.41,-0.46 -10.38,-13.77 -2.67,-16.73 z"
       id="path559"
       inkscape:connector-curvature="0"
       style="opacity:1;fill:#fbfbfb" />
  </g>
  <g
     id="#00efedfe"
     transform="matrix(0.08,0,0,0.08,2.5e-7,0.04440025)">
    <path
       d="m 537.24,229.29 c 6.45,-6.57 12.95,-13.11 19.65,-19.43 6.06,8.88 11.79,18.03 16.36,27.78 -0.52,-0.07 -1.57,-0.2 -2.09,-0.27 -4.37,4.56 -9.46,8.56 -13.11,13.71 -0.98,7.96 1.71,16.54 -1.37,24.17 C 552,262 545.35,249.62 538.82,237.24 c 0.48,-2.88 -2.7,-5.12 -1.58,-7.95 z"
       id="path562"
       inkscape:connector-curvature="0"
       style="opacity:1;fill:#00efed" />
  </g>
  <g
     id="#0171ecfd"
     transform="matrix(0.08,0,0,0.08,2.5e-7,0.04440025)">
    <path
       d="m 119.16,262.11 c 6.53,-18.23 15.75,-35.39 26.52,-51.44 0.96,19.66 -0.24,39.38 0.53,59.06 0.52,0.18 1.55,0.54 2.07,0.72 -3.57,8.71 -5.8,17.87 -8.64,26.83 -1.2,-1.41 -2.38,-2.83 -3.55,-4.26 -3.83,-5.52 -7.93,-10.82 -11.99,-16.17 -2.47,-3.45 -5.17,-6.75 -7.97,-9.94 1.45,-1.27 2.49,-2.94 3.03,-4.8 z"
       id="path565"
       inkscape:connector-curvature="0"
       style="opacity:1;fill:#0171ec" />
  </g>
  <g
     id="#d8d9dafc"
     transform="matrix(0.08,0,0,0.08,2.5e-7,0.04440025)">
    <path
       d="m 20.04,219.82 c 2.08,-3.01 4.91,-5.57 8.12,-7.29 5.02,1.28 10.02,2.68 15.02,4.05 -4.37,0.85 -9.24,5.37 -7.9,10.13 3.62,6.65 11.27,9.39 16.72,14.29 2,2.51 5.04,3.02 7.87,3.91 0.39,3.72 4.11,5.71 5.19,9.11 -1.37,-1.05 -2.67,-2.2 -4.11,-3.15 -5.41,4.74 -10.4,9.98 -15.3,15.25 -5.38,-6.97 -10.58,-14.08 -15.88,-21.1 2.91,-3.55 6.53,-6.45 9.43,-10.01 -5.02,-6.53 -13.48,-9.28 -19.16,-15.19 z"
       id="path568"
       inkscape:connector-curvature="0"
       style="opacity:1;fill:#d8d9da" />
  </g>
  <g
     id="#efeff0fd"
     transform="matrix(0.08,0,0,0.08,2.5e-7,0.04440025)">
    <path
       d="m 35.28,226.71 c -1.34,-4.76 3.53,-9.28 7.9,-10.13 15,4.08 30.12,7.72 45.04,12.1 3.53,4.71 -0.39,10.67 -2.23,15.31 -1.65,4.4 -6.2,4.29 -10.19,4.26 C 70.5,247.1 65.26,245.53 59.87,244.91 57.04,244.02 54,243.51 52,241 46.55,236.1 38.9,233.36 35.28,226.71 Z"
       id="path571"
       inkscape:connector-curvature="0"
       style="opacity:1;fill:#efeff0" />
  </g>
  <g
     id="#e6e8e8ff"
     transform="matrix(0.08,0,0,0.08,2.5e-7,0.04440025)">
    <path
       d="m 454.21,219.12 c 5.94,0.88 11.97,1.14 17.92,0.07 1.94,-0.66 3.44,0.79 4.85,1.87 0.06,3.67 -0.01,7.31 0.01,10.98 -0.73,-0.54 -1.47,-1.05 -2.22,-1.53 -6.87,0.17 -13.88,1.32 -20.64,-0.34 -2.05,7.67 -1.65,15.79 -3.45,23.54 -0.92,2.47 -2.82,5.17 -6.28,3.79 -6.7,2.42 -13.96,-1.84 -20.42,0.44 l -0.01,-0.93 c 0.03,-3.03 -0.05,-6.08 0.01,-9.09 1.17,-0.49 2.4,-1.06 3.67,-0.51 5.96,1.51 12.36,2.64 18.35,0.61 4.11,1.13 3.92,-2.15 4.63,-4.34 2.1,-8.03 0.86,-16.94 3.58,-24.56 z"
       id="path574"
       inkscape:connector-curvature="0"
       style="opacity:1;fill:#e6e8e8" />
  </g>
  <g
     id="#dadcddfd"
     transform="matrix(0.08,0,0,0.08,2.5e-7,0.04440025)">
    <path
       d="m 88.22,228.68 c 6.72,1.45 13.33,3.35 19.95,5.18 -0.63,3.61 -1.16,7.26 -2.13,10.81 -4.56,-1.29 -5.31,4.51 -7.2,7.3 -7.87,0.66 -15.6,-1.43 -23.04,-3.72 3.99,0.03 8.54,0.14 10.19,-4.26 1.84,-4.64 5.76,-10.6 2.23,-15.31 z"
       id="path577"
       inkscape:connector-curvature="0"
       style="opacity:1;fill:#dadcdd" />
  </g>
  <g
     id="#e1e2e3ff"
     transform="matrix(0.08,0,0,0.08,2.5e-7,0.04440025)">
    <path
       d="m 454.13,230.17 c 6.76,1.66 13.77,0.51 20.64,0.34 0.75,0.48 1.49,0.99 2.22,1.53 0.01,4.01 0.01,8.02 -0.01,12.03 -6.3,-4.68 -15.55,-0.97 -22.83,-1.97 -2.93,7.59 -1.28,16.18 -4.39,23.69 -6.02,0.68 -12.13,1.69 -18.18,0.81 -2.64,-0.82 -5.23,-0.86 -7.61,0.34 -0.04,-3.03 0.01,-6 0.01,-9 6.46,-2.28 13.72,1.98 20.42,-0.44 3.46,1.38 5.36,-1.32 6.28,-3.79 1.8,-7.75 1.4,-15.87 3.45,-23.54 z"
       id="path580"
       inkscape:connector-curvature="0"
       style="opacity:1;fill:#e1e2e3" />
  </g>
  <g
     id="#cccecff9"
     transform="matrix(0.08,0,0,0.08,2.5e-7,0.04440025)">
    <path
       d="m 108.17,233.86 c 5.34,1.35 10.59,3.06 15.97,4.28 -2.32,2.83 -5.08,5.25 -7.71,7.8 -3.45,-0.6 -6.91,-0.91 -10.39,-1.27 0.97,-3.55 1.5,-7.2 2.13,-10.81 z"
       id="path583"
       inkscape:connector-curvature="0"
       style="opacity:0.98000004;fill:#cccecf" />
  </g>
  <g
     id="#00f6edfd"
     transform="matrix(0.08,0,0,0.08,2.5e-7,0.04440025)">
    <path
       d="m 571.16,237.37 c 0.52,0.07 1.57,0.2 2.09,0.27 15.81,30.53 24.14,64.6 26.75,98.78 v 18.16 c -1.1,4.39 -1.01,8.93 -1,13.43 -2.43,42.46 -17.19,84.12 -40.79,119.42 -0.5,-0.17 -1.5,-0.52 -2,-0.69 -0.47,-16.58 -0.14,-33.17 -0.18,-49.74 -0.62,-3.42 0.96,-6.98 -0.2,-10.32 7.03,-20.49 12.37,-41.72 13.46,-63.46 0.77,-9.08 1.56,-18.47 0.04,-27.49 -2.1,-20.53 -5.34,-41.09 -12.65,-60.48 3.08,-7.63 0.39,-16.21 1.37,-24.17 3.65,-5.15 8.74,-9.15 13.11,-13.71 z"
       id="path586"
       inkscape:connector-curvature="0"
       style="opacity:1;fill:#00f6ed" />
  </g>
  <g
     id="#dbdcddff"
     transform="matrix(0.08,0,0,0.08,2.5e-7,0.04440025)">
    <path
       d="m 454.15,242.1 c 7.28,1 16.53,-2.71 22.83,1.97 0.06,3.27 0.02,6.52 0.05,9.81 -7.56,-1.43 -15.32,-0.63 -22.94,-1.44 -2.17,6.55 -1.36,13.68 -3.42,20.27 -1.41,1.9 -3.41,3.81 -6.27,2.79 -6.86,2.25 -13.61,-1.65 -20.39,-0.56 -0.05,-2.68 -0.06,-5.34 -0.04,-8 2.38,-1.2 4.97,-1.16 7.61,-0.34 6.05,0.88 12.16,-0.13 18.18,-0.81 3.11,-7.51 1.46,-16.1 4.39,-23.69 z"
       id="path589"
       inkscape:connector-curvature="0"
       style="opacity:1;fill:#dbdcdd" />
    <path
       d="m 173.16,342.84 c 3.94,3.21 6.47,7.69 9.18,11.91 1.33,3.88 -2.7,6.18 -4.47,9.1 -3.6,5.36 -9.47,8.84 -12.56,14.57 -5.52,6.92 -11.85,13.34 -19.44,18 -1.14,-0.06 -2.08,-0.99 -3.16,-1.32 -1.49,-1.81 -2.89,-3.69 -4.57,-5.33 -1.67,-2.57 -3.57,-4.97 -5.28,-7.5 8.49,-2.83 13.76,-10.56 19.4,-17 2.26,0.16 4.76,1.42 6.78,-0.23 6.37,-4.38 10.1,-11.43 14.23,-17.78 1.03,-1.32 -0.02,-2.98 -0.11,-4.42 z"
       id="path591"
       inkscape:connector-curvature="0"
       style="opacity:1;fill:#dbdcdd" />
  </g>
  <g
     id="#d1d3d4fe"
     transform="matrix(0.08,0,0,0.08,2.5e-7,0.04440025)">
    <path
       d="m 98.84,251.97 c 1.89,-2.79 2.64,-8.59 7.2,-7.3 3.48,0.36 6.94,0.67 10.39,1.27 -2.86,3.21 -6.44,5.89 -8.44,9.77 -8.13,3.85 -16.97,6.39 -24.07,12.19 -1.97,3.74 -4.91,1.37 -7.33,0.48 -1.68,-0.94 -2.79,-2.5 -3.7,-4.14 -0.68,-1.57 -1.41,-3.12 -2.54,-4.41 -0.92,-2.09 -2.53,-3.71 -4.55,-4.74 -0.18,-0.27 -0.55,-0.8 -0.74,-1.07 -1.08,-3.4 -4.8,-5.39 -5.19,-9.11 5.39,0.62 10.63,2.19 15.93,3.34 7.44,2.29 15.17,4.38 23.04,3.72 z"
       id="path594"
       inkscape:connector-curvature="0"
       style="opacity:1;fill:#d1d3d4" />
  </g>
  <g
     id="#dedfe0fd"
     transform="matrix(0.08,0,0,0.08,2.5e-7,0.04440025)">
    <path
       d="m 45.65,266.12 c 4.9,-5.27 9.89,-10.51 15.3,-15.25 1.44,0.95 2.74,2.1 4.11,3.15 0.19,0.27 0.56,0.8 0.74,1.07 0.7,2.23 2.37,3.91 4.55,4.74 1.13,1.29 1.86,2.84 2.54,4.41 -2.06,-0.81 -3.58,-3.13 -5.82,-3.19 -6.51,2.35 -10.79,8.23 -15.42,13.07 -2.06,-2.62 -4.07,-5.29 -6,-8 z"
       id="path597"
       inkscape:connector-curvature="0"
       style="opacity:1;fill:#dedfe0" />
  </g>
  <g
     id="#d5d7d8ff"
     transform="matrix(0.08,0,0,0.08,2.5e-7,0.04440025)">
    <path
       d="m 454.09,252.44 c 7.62,0.81 15.38,0.01 22.94,1.44 0.02,3.73 -0.08,7.44 -0.06,11.19 -6.35,-4.6 -15.56,-0.77 -22.87,-2.71 -1.41,6.03 -0.8,12.34 -2.32,18.36 -2.59,3.78 -7.95,2.99 -11.78,2.46 -5.36,-0.56 -10.65,0.85 -15.97,-0.25 -0.04,-2.67 -0.05,-5.34 -0.02,-7.99 6.78,-1.09 13.53,2.81 20.39,0.56 2.86,1.02 4.86,-0.89 6.27,-2.79 2.06,-6.59 1.25,-13.72 3.42,-20.27 z"
       id="path600"
       inkscape:connector-curvature="0"
       style="opacity:1;fill:#d5d7d8" />
  </g>
  <g
     id="#d8dadbff"
     transform="matrix(0.08,0,0,0.08,2.5e-7,0.04440025)">
    <path
       d="m 65.8,255.09 c 2.02,1.03 3.63,2.65 4.55,4.74 -2.18,-0.83 -3.85,-2.51 -4.55,-4.74 z"
       id="path603"
       inkscape:connector-curvature="0"
       style="opacity:1;fill:#d8dadb" />
  </g>
  <g
     id="#d6d7d8fe"
     transform="matrix(0.08,0,0,0.08,2.5e-7,0.04440025)">
    <path
       d="m 83.92,267.9 c 7.1,-5.8 15.94,-8.34 24.07,-12.19 2.63,2.82 4.94,5.94 6.83,9.29 -11.44,0.27 -20.15,9.27 -30.81,11.97 -2.46,-2.88 -5.29,-5.45 -7.42,-8.59 2.42,0.89 5.36,3.26 7.33,-0.48 z"
       id="path606"
       inkscape:connector-curvature="0"
       style="opacity:1;fill:#d6d7d8" />
  </g>
  <g
     id="#a9b0beff"
     transform="matrix(0.08,0,0,0.08,2.5e-7,0.04440025)">
    <path
       d="m 423.01,256.99 0.96,0.02 0.01,0.93 c 0,3 -0.05,5.97 -0.01,9 -0.02,2.66 -0.01,5.32 0.04,8 -0.03,2.65 -0.02,5.32 0.02,7.99 -0.63,5.22 1.06,11.53 -0.84,16.25 -0.34,-14.06 -0.17,-28.13 -0.18,-42.19 z"
       id="path609"
       inkscape:connector-curvature="0"
       style="opacity:1;fill:#a9b0be" />
  </g>
  <g
     id="#e5e6e7fe"
     transform="matrix(0.08,0,0,0.08,2.5e-7,0.04440025)">
    <path
       d="m 51.65,274.12 c 4.63,-4.84 8.91,-10.72 15.42,-13.07 2.24,0.06 3.76,2.38 5.82,3.19 0.91,1.64 2.02,3.2 3.7,4.14 2.13,3.14 4.96,5.71 7.42,8.59 3.14,3.53 6.16,7.42 10.01,10.13 9.14,-5.52 18.92,-11.31 30.08,-10.25 4.06,5.35 8.16,10.65 11.99,16.17 -3.41,-0.52 -6.57,-2.23 -10.13,-2.03 -7.98,0.24 -15.24,4.01 -21.87,8.07 -10.03,-4.96 -14.02,-17.26 -24.07,-21.97 -6.95,2.1 -11.68,7.81 -16.37,13.03 -4.07,-5.28 -8.08,-10.61 -12,-16 z"
       id="path612"
       inkscape:connector-curvature="0"
       style="opacity:1;fill:#e5e6e7" />
  </g>
  <g
     id="#d0d2d4ff"
     transform="matrix(0.08,0,0,0.08,2.5e-7,0.04440025)">
    <path
       d="m 454.1,262.36 c 7.31,1.94 16.52,-1.89 22.87,2.71 0.07,5.05 0.09,10.09 0.24,15.15 -3.33,3.39 -7.8,5.45 -11.21,8.77 -22.32,17.74 -39.6,41.15 -52.75,66.28 -1.27,-8.06 -10.37,-11.35 -16.61,-14.92 -9.53,-1.56 -18.42,3.37 -27.4,5.81 -2.57,-0.03 -5.26,-0.14 -7.54,1.36 -12.64,4.31 -25.34,8.46 -37.72,13.47 -3.09,1.39 -3.71,5.08 -5.15,7.81 -2.52,6.16 1.81,12.16 1.11,18.41 -3.16,-4.54 -5.43,-9.7 -9.63,-13.5 -2.87,-2.11 -4,-8 -8.95,-5.28 -10.57,2.57 -21.61,4.72 -31.33,9.71 -2.97,1.51 -6.23,2.3 -9.25,3.69 -0.89,0.37 -1.77,0.78 -2.64,1.21 -4.64,0.07 -9.05,1.9 -13.16,3.91 -6.06,1.22 -12,3.03 -17.76,5.25 -11.26,2.71 -23.07,5.85 -32.99,12.05 -0.18,7.37 -2.13,14.79 -0.85,22.16 -2.22,5.46 2.31,4.38 4.85,4.93 -8.13,1.67 -15.57,6.38 -23.91,6.51 -7.7,-10.56 -15.81,-20.84 -23.37,-31.5 8.08,-3.98 15.09,-10.59 20.76,-17.59 3.04,-2.19 -2.22,-5.11 0.61,-7.41 6.2,-5.42 13.59,-11.22 15.92,-19.39 2.64,3.29 4.68,7.27 7.85,10.03 17.41,-4.73 34.35,-11.11 51.66,-16.11 0.14,0.51 0.4,1.51 0.54,2.01 21.16,0.19 42.29,-4.43 61.53,-13.27 0.25,-1.86 -1.6,-4.25 0.43,-5.51 19.59,1.35 39.64,0.97 58.44,-5.46 19.23,-6.52 38.28,-15.7 52.45,-30.51 -1.85,-0.1 -5.54,-0.31 -7.39,-0.41 2.44,-0.95 4.93,-1.73 7.4,-2.58 0.51,-0.24 1.53,-0.73 2.04,-0.97 1.9,-4.72 0.21,-11.03 0.84,-16.25 5.32,1.1 10.61,-0.31 15.97,0.25 3.83,0.53 9.19,1.32 11.78,-2.46 1.52,-6.02 0.91,-12.33 2.32,-18.36 z"
       id="path615"
       inkscape:connector-curvature="0"
       style="opacity:1;fill:#d0d2d4" />
  </g>
  <g
     id="#dddee0ff"
     transform="matrix(0.08,0,0,0.08,2.5e-7,0.04440025)">
    <path
       d="m 84.01,276.97 c 10.66,-2.7 19.37,-11.7 30.81,-11.97 0.33,0.48 0.98,1.44 1.31,1.91 2.8,3.19 5.5,6.49 7.97,9.94 -11.16,-1.06 -20.94,4.73 -30.08,10.25 -3.85,-2.71 -6.87,-6.6 -10.01,-10.13 z"
       id="path618"
       inkscape:connector-curvature="0"
       style="opacity:1;fill:#dddee0" />
  </g>
  <g
     id="#dfe1e2ff"
     transform="matrix(0.08,0,0,0.08,2.5e-7,0.04440025)">
    <path
       d="m 288.03,267.84 c 8.73,3.51 17.17,8.6 26.8,9.15 0.64,-0.99 1.17,-2.04 1.59,-3.14 3.23,10.33 7.34,20.42 10,30.92 -1.46,2.15 -2.23,5.73 -6.43,3.24 -7.13,0.66 -14.06,-1.27 -20.89,-2.99 -0.05,2.48 -0.15,7.44 -0.2,9.92 -5.4,4.43 -12.34,6 -18.77,8.28 -2.09,0.95 -4.33,0.33 -6.48,0.04 -2.65,-9.03 -5.77,-17.93 -8.02,-27.06 7.65,-2.82 15.89,-4.37 23.03,-8.56 3.55,-6.06 -2.64,-13.15 -0.63,-19.8 z"
       id="path621"
       inkscape:connector-curvature="0"
       style="opacity:1;fill:#dfe1e2" />
  </g>
  <g
     id="#1097afff"
     transform="matrix(0.08,0,0,0.08,2.5e-7,0.04440025)">
    <path
       d="m 535.76,268.58 c 2.37,-0.49 9.6,-2.46 6.58,1.35 -1.64,-0.33 -4.93,-1.01 -6.58,-1.35 z"
       id="path624"
       inkscape:connector-curvature="0"
       style="opacity:1;fill:#1097af" />
  </g>
  <g
     id="#00e3eeff"
     transform="matrix(0.08,0,0,0.08,2.5e-7,0.04440025)">
    <path
       d="m 504.73,279.7 c 9.69,-5.29 20.17,-9.09 31.03,-11.12 1.65,0.34 4.94,1.02 6.58,1.35 -1.93,2.93 -3.95,5.82 -5.38,9.05 -11.65,23.16 -21.31,47.85 -24.16,73.79 -0.43,2.77 -0.69,5.62 -0.66,8.44 -0.57,13.34 1.35,26.8 6.04,39.32 -3.15,1.46 -7.08,4.11 -5.16,8.46 -0.09,40.01 0.06,80.01 -0.07,120.02 0.21,2.58 -0.59,6 1.01,8.44 -2,2.24 -4.49,3.94 -6.8,5.83 -0.77,-0.11 -2.31,-0.34 -3.08,-0.45 -0.21,-81.61 0.01,-163.22 -0.11,-244.83 0.04,-6.11 -0.19,-12.26 0.76,-18.3 z"
       id="path627"
       inkscape:connector-curvature="0"
       style="opacity:1;fill:#00e3ee" />
  </g>
  <g
     id="#eff0f1fe"
     transform="matrix(0.08,0,0,0.08,2.5e-7,0.04440025)">
    <path
       d="m 63.65,290.12 c 4.69,-5.22 9.42,-10.93 16.37,-13.03 10.05,4.71 14.04,17.01 24.07,21.97 6.63,-4.06 13.89,-7.83 21.87,-8.07 3.56,-0.2 6.72,1.51 10.13,2.03 1.17,1.43 2.35,2.85 3.55,4.26 6.64,9.33 13.64,18.41 20.53,27.55 1.98,10.8 -4.23,22.38 -13.17,28.18 -3.7,-1.53 -6.36,-6.51 -10.66,-5.75 -4.8,6.04 -9.4,14.46 -17.61,16.19 -5.12,-6.01 -8.81,-13.2 -14.54,-18.67 -0.09,-0.4 -0.25,-1.19 -0.34,-1.58 1.55,0.67 3.06,2.3 4.89,1.61 5.63,-4.81 10.49,-11.27 11.51,-18.76 6.28,3.83 10.31,10.43 16.77,13.99 7.61,-3.93 9.7,-14.39 6.91,-21.98 -3.45,-8.19 -13.18,-13.64 -21.93,-11.08 -3.28,0.6 -5.71,3.44 -8.93,4.01 -1.76,-0.7 -3.26,-1.88 -4.92,-2.76 -5.74,6.06 -11.95,11.67 -17.51,17.9 -9.05,-11.97 -18.06,-23.96 -26.99,-36.01 z"
       id="path630"
       inkscape:connector-curvature="0"
       style="opacity:1;fill:#eff0f1" />
  </g>
  <g
     id="#00e0efff"
     transform="matrix(0.08,0,0,0.08,2.5e-7,0.04440025)">
    <path
       d="m 494.76,285.72 c 3.18,-2.22 6.43,-4.41 9.97,-6.02 -0.95,6.04 -0.72,12.19 -0.76,18.3 0.12,81.61 -0.1,163.22 0.11,244.83 0.77,0.11 2.31,0.34 3.08,0.45 -2.86,2.46 -5.89,4.72 -9.01,6.84 -1.41,0.16 -2.79,0.39 -4.19,0.57 0.07,-84.9 0.05,-169.8 0.01,-254.7 -0.26,-3.47 0.17,-6.88 0.79,-10.27 z"
       id="path633"
       inkscape:connector-curvature="0"
       style="opacity:1;fill:#00e0ef" />
  </g>
  <g
     id="#00ddefff"
     transform="matrix(0.08,0,0,0.08,2.5e-7,0.04440025)">
    <path
       d="m 486.99,290.85 c 2.46,-1.89 5.15,-3.45 7.77,-5.13 -0.62,3.39 -1.05,6.8 -0.79,10.27 0.04,84.9 0.06,169.8 -0.01,254.7 1.4,-0.18 2.78,-0.41 4.19,-0.57 -3.27,2.35 -6.55,4.69 -9.92,6.91 -2.54,-0.76 -7.5,1.1 -4.23,-5.03 0.01,-85.01 -0.01,-170.01 0.01,-255.02 0.15,-2.34 2.65,-3.76 2.98,-6.13 z"
       id="path636"
       inkscape:connector-curvature="0"
       style="opacity:1;fill:#00ddef" />
  </g>
  <g
     id="#00daefff"
     transform="matrix(0.08,0,0,0.08,2.5e-7,0.04440025)">
    <path
       d="m 475.9,299.8 c 3.21,-3.53 7.26,-6.16 11.09,-8.95 -0.33,2.37 -2.83,3.79 -2.98,6.13 -0.02,85.01 0,170.01 -0.01,255.02 -3.27,6.13 1.69,4.27 4.23,5.03 -4.23,3.03 -8.74,5.61 -13.2,8.28 -2.23,-1.38 -2.89,-3.48 -2.01,-6.31 -0.07,-83.68 0.03,-167.35 -0.05,-251.03 -0.55,-3.32 3.71,-4.76 2.93,-8.17 z"
       id="path639"
       inkscape:connector-curvature="0"
       style="opacity:1;fill:#00daef" />
  </g>
  <g
     id="#00d6efff"
     transform="matrix(0.08,0,0,0.08,2.5e-7,0.04440025)">
    <path
       d="m 462.91,311.8 c 3.8,-4.54 8.38,-8.32 12.99,-12 0.78,3.41 -3.48,4.85 -2.93,8.17 0.08,83.68 -0.02,167.35 0.05,251.03 -0.88,2.83 -0.22,4.93 2.01,6.31 -3.61,2.01 -7.29,3.89 -10.82,6.04 -0.78,-0.13 -2.35,-0.4 -3.13,-0.53 -0.22,-83.28 0.03,-166.56 -0.12,-249.84 -0.27,-3.25 1.91,-5.98 1.95,-9.18 z"
       id="path642"
       inkscape:connector-curvature="0"
       style="opacity:1;fill:#00d6ef" />
  </g>
  <g
     id="#d2d4d5ff"
     transform="matrix(0.08,0,0,0.08,2.5e-7,0.04440025)">
    <path
       d="m 334.9,327.65 c 26.35,-8.1 52.41,-17.14 78.85,-24.92 1.85,0.1 5.54,0.31 7.39,0.41 -14.17,14.81 -33.22,23.99 -52.45,30.51 -18.8,6.43 -38.85,6.81 -58.44,5.46 -2.03,1.26 -0.18,3.65 -0.43,5.51 -19.24,8.84 -40.37,13.46 -61.53,13.27 -0.14,-0.5 -0.4,-1.5 -0.54,-2.01 10.59,-4.3 22.34,-5.67 32.29,-11.35 8.06,-2.06 16,-4.61 23.66,-7.85 3.28,-1.68 2,-5.61 2.44,-8.68 10.62,1.47 21.3,2.85 32.09,1.88 -0.89,-1.04 -2.05,-1.78 -3.33,-2.23 z"
       id="path645"
       inkscape:connector-curvature="0"
       style="opacity:1;fill:#d2d4d5" />
  </g>
  <g
     id="#f7f7f8fe"
     transform="matrix(0.08,0,0,0.08,2.5e-7,0.04440025)">
    <path
       d="m 122,306.98 c 8.75,-2.56 18.48,2.89 21.93,11.08 2.79,7.59 0.7,18.05 -6.91,21.98 -6.46,-3.56 -10.49,-10.16 -16.77,-13.99 -1.02,7.49 -5.88,13.95 -11.51,18.76 -1.83,0.69 -3.34,-0.94 -4.89,-1.61 l -0.69,-0.41 c -3.8,-5.83 -8.51,-10.99 -12.52,-16.66 5.56,-6.23 11.77,-11.84 17.51,-17.9 1.66,0.88 3.16,2.06 4.92,2.76 3.22,-0.57 5.65,-3.41 8.93,-4.01 z"
       id="path648"
       inkscape:connector-curvature="0"
       style="opacity:1;fill:#f7f7f8" />
  </g>
  <g
     id="#00d3efff"
     transform="matrix(0.08,0,0,0.08,2.5e-7,0.04440025)">
    <path
       d="m 451.88,324.79 c 3.3,-4.64 7.26,-8.74 11.03,-12.99 -0.04,3.2 -2.22,5.93 -1.95,9.18 0.15,83.28 -0.1,166.56 0.12,249.84 0.78,0.13 2.35,0.4 3.13,0.53 -2.89,1.59 -5.92,2.9 -8.98,4.12 -2.94,-0.34 -6.84,-2.15 -4.24,-6.46 0.03,-78.34 -0.01,-156.69 0.02,-235.03 0.12,-3.08 1.06,-6.09 0.87,-9.19 z"
       id="path651"
       inkscape:connector-curvature="0"
       style="opacity:1;fill:#00d3ef" />
  </g>
  <g
     id="#00d0efff"
     transform="matrix(0.08,0,0,0.08,2.5e-7,0.04440025)">
    <path
       d="m 442.92,336.88 c 3.05,-3.98 5.63,-8.33 8.96,-12.09 0.19,3.1 -0.75,6.11 -0.87,9.19 -0.03,78.34 0.01,156.69 -0.02,235.03 -2.6,4.31 1.3,6.12 4.24,6.46 -2.92,1.36 -5.83,2.73 -8.88,3.77 -2.47,-1.32 -7.68,1.24 -4.36,-5.24 0.01,-71.67 0.03,-143.33 0,-215 0.12,-7.38 -0.63,-14.85 0.93,-22.12 z"
       id="path654"
       inkscape:connector-curvature="0"
       style="opacity:1;fill:#00d0ef" />
  </g>
  <g
     id="#0fa1b2ff"
     transform="matrix(0.08,0,0,0.08,2.5e-7,0.04440025)">
    <path
       d="m 569.33,335.73 c 1.52,9.02 0.73,18.41 -0.04,27.49 -0.4,-9.16 -0.44,-18.33 0.04,-27.49 z"
       id="path657"
       inkscape:connector-curvature="0"
       style="opacity:1;fill:#0fa1b2" />
  </g>
  <g
     id="#00cdefff"
     transform="matrix(0.08,0,0,0.08,2.5e-7,0.04440025)">
    <path
       d="m 431.76,354.65 c 2.99,-6.34 7.26,-11.98 11.16,-17.77 -1.56,7.27 -0.81,14.74 -0.93,22.12 0.03,71.67 0.01,143.33 0,215 -3.32,6.48 1.89,3.92 4.36,5.24 -2.28,1.2 -4.7,2.12 -7.12,2.98 -2.38,-0.03 -4.83,0.59 -7.11,-0.33 -0.27,-73.3 -0.07,-146.61 -0.1,-219.9 -0.05,-2.48 1.24,-5.05 -0.26,-7.34 z"
       id="path660"
       inkscape:connector-curvature="0"
       style="opacity:1;fill:#00cdef" />
  </g>
  <g
     id="#d9dbdcff"
     transform="matrix(0.08,0,0,0.08,2.5e-7,0.04440025)">
    <path
       d="m 369.24,346.16 c 8.98,-2.44 17.87,-7.37 27.4,-5.81 6.24,3.57 15.34,6.86 16.61,14.92 -1.57,2.96 -3.11,5.95 -4.89,8.78 -6.47,-10.37 -18.51,-16.29 -30.36,-17.98 -12.35,2.46 -24.6,6.39 -35.84,12.08 -6.87,7.33 -12.69,16.57 -13.12,26.87 -3.98,21.17 11.83,44.6 33.17,48.32 -1.48,2.14 -3.08,4.2 -5.01,5.95 -7.34,0.29 -13.31,-4.5 -18.8,-8.74 -4.64,-6.02 -6.49,-13.63 -9.24,-20.6 -2.89,-11.38 -8.54,-22.64 -6.81,-34.64 2.32,-5.52 3.52,-12.71 9.65,-15.3 11.79,-6.13 24.97,-8.85 37.24,-13.85 z"
       id="path663"
       inkscape:connector-curvature="0"
       style="opacity:1;fill:#d9dbdc" />
  </g>
  <g
     id="#043d8790"
     transform="matrix(0.08,0,0,0.08,2.5e-7,0.04440025)">
    <path
       d="m 103.16,342.79 0.69,0.41 c 0.09,0.39 0.25,1.18 0.34,1.58 -0.17,6.47 -0.11,12.97 -0.44,19.45 -1.17,-7.1 -0.69,-14.31 -0.59,-21.44 z"
       id="path666"
       inkscape:connector-curvature="0"
       style="opacity:0.56000001;fill:#043d87" />
  </g>
  <g
     id="#026becfb"
     transform="matrix(0.08,0,0,0.08,2.5e-7,0.04440025)">
    <path
       d="m 104.19,344.78 c 5.73,5.47 9.42,12.66 14.54,18.67 4.3,6.2 9.32,11.87 13.54,18.14 -6.93,6.32 -13.46,13.07 -20.06,19.73 -1.12,8.89 3.8,17.12 3.57,25.93 -7.11,-20.21 -11.02,-41.63 -12.03,-63.02 0.33,-6.48 0.27,-12.98 0.44,-19.45 z"
       id="path669"
       inkscape:connector-curvature="0"
       style="opacity:1;fill:#026bec" />
  </g>
  <g
     id="#d4d6d7ff"
     transform="matrix(0.08,0,0,0.08,2.5e-7,0.04440025)">
    <path
       d="m 361.7,347.52 c 2.28,-1.5 4.97,-1.39 7.54,-1.36 -12.27,5 -25.45,7.72 -37.24,13.85 -6.13,2.59 -7.33,9.78 -9.65,15.3 -1.73,12 3.92,23.26 6.81,34.64 2.75,6.97 4.6,14.58 9.24,20.6 5.49,4.24 11.46,9.03 18.8,8.74 -1.65,1.66 -3.3,3.31 -5.02,4.9 -4.53,2.21 -7.94,-1.92 -12.03,-3.11 -0.1,0.76 -0.31,2.29 -0.41,3.05 -4.7,-7.96 -5.83,-17.63 -10.46,-25.44 -0.26,13.32 -3.67,27.13 -11.62,38 -0.49,0.2 -1.46,0.59 -1.94,0.79 -1.42,-4.13 -2.93,-8.23 -3.88,-12.48 0.88,0.37 1.89,3.11 2.77,1.65 4.85,-8.75 6.38,-18.85 7.33,-28.68 -1.31,-17.61 -8.63,-35.99 -23.28,-46.62 -5.28,-0.68 -10.82,1.74 -15.88,3.4 -4.17,1.38 -8.36,2.88 -12.75,3.39 9.72,-4.99 20.76,-7.14 31.33,-9.71 4.95,-2.72 6.08,3.17 8.95,5.28 4.2,3.8 6.47,8.96 9.63,13.5 0.7,-6.25 -3.63,-12.25 -1.11,-18.41 1.44,-2.73 2.06,-6.42 5.15,-7.81 12.38,-5.01 25.08,-9.16 37.72,-13.47 z"
       id="path672"
       inkscape:connector-curvature="0"
       style="opacity:1;fill:#d4d6d7" />
    <path
       d="m 182.34,354.75 c 2.18,2.22 4.08,4.68 5.9,7.21 -2.33,8.17 -9.72,13.97 -15.92,19.39 -2.83,2.3 2.43,5.22 -0.61,7.41 -5.67,7 -12.68,13.61 -20.76,17.59 -2.62,-3.84 -5.97,-7.18 -8.24,-11.25 1.08,0.33 2.02,1.26 3.16,1.32 7.59,-4.66 13.92,-11.08 19.44,-18 3.09,-5.73 8.96,-9.21 12.56,-14.57 1.77,-2.92 5.8,-5.22 4.47,-9.1 z"
       id="path674"
       inkscape:connector-curvature="0"
       style="opacity:1;fill:#d4d6d7" />
  </g>
  <g
     id="#e0e2e2ff"
     transform="matrix(0.08,0,0,0.08,2.5e-7,0.04440025)">
    <path
       d="m 342.16,358.15 c 11.24,-5.69 23.49,-9.62 35.84,-12.08 11.85,1.69 23.89,7.61 30.36,17.98 -2.88,1.86 -6.53,2.44 -9.87,3.16 -11.91,-15.02 -37.48,-15.24 -50.3,-1.02 -8.9,8.57 -11.31,21.79 -8.84,33.5 2.72,9.7 9.65,17.83 18.63,22.32 1.59,1.41 4.01,1.32 5.54,-0.05 0.71,2.26 1.62,4.47 2.08,6.8 -1.04,1.59 -2.18,3.12 -3.39,4.58 -21.34,-3.72 -37.15,-27.15 -33.17,-48.32 0.43,-10.3 6.25,-19.54 13.12,-26.87 z"
       id="path677"
       inkscape:connector-curvature="0"
       style="opacity:1;fill:#e0e2e2" />
  </g>
  <g
     id="#1385a4ff"
     transform="matrix(0.08,0,0,0.08,2.5e-7,0.04440025)">
    <path
       d="m 512.14,361.21 c -0.03,-2.82 0.23,-5.67 0.66,-8.44 0.13,2.84 -0.3,5.61 -0.66,8.44 z"
       id="path680"
       inkscape:connector-curvature="0"
       style="opacity:1;fill:#1385a4" />
  </g>
  <g
     id="#00c9efff"
     transform="matrix(0.08,0,0,0.08,2.5e-7,0.04440025)">
    <path
       d="m 419.97,374.77 c 3.7,-6.84 7.3,-13.75 11.79,-20.12 1.5,2.29 0.21,4.86 0.26,7.34 0.03,73.29 -0.17,146.6 0.1,219.9 2.28,0.92 4.73,0.3 7.11,0.33 -4.95,1.81 -9.87,3.75 -14.97,5.08 -2,-0.78 -4.1,-0.6 -6.19,-0.45 -0.14,-66.62 -0.08,-133.25 -0.03,-199.87 -1.44,-4.41 2.79,-8.03 1.93,-12.21 z"
       id="path683"
       inkscape:connector-curvature="0"
       style="opacity:1;fill:#00c9ef" />
  </g>
  <g
     id="#00938a94"
     transform="matrix(0.08,0,0,0.08,2.5e-7,0.04440025)">
    <path
       d="m 599,368.01 c -0.01,-4.5 -0.1,-9.04 1,-13.43 v 13.4 z"
       id="path686"
       inkscape:connector-curvature="0"
       style="opacity:0.57999998;fill:#00938a" />
  </g>
  <g
     id="#d9dadbff"
     transform="matrix(0.08,0,0,0.08,2.5e-7,0.04440025)">
    <path
       d="m 282.78,374.75 c 5.06,-1.66 10.6,-4.08 15.88,-3.4 14.65,10.63 21.97,29.01 23.28,46.62 -0.95,9.83 -2.48,19.93 -7.33,28.68 -0.88,1.46 -1.89,-1.28 -2.77,-1.65 -0.74,-2.14 -1.44,-4.28 -1.94,-6.48 9.31,-21.92 1.08,-49.45 -18.29,-63.13 -2.53,-1.94 -5.91,-0.6 -8.83,-0.64 z"
       id="path689"
       inkscape:connector-curvature="0"
       style="opacity:1;fill:#d9dadb" />
  </g>
  <g
     id="#dee0e1ff"
     transform="matrix(0.08,0,0,0.08,2.5e-7,0.04440025)">
    <path
       d="m 282.78,374.75 c 2.92,0.04 6.3,-1.3 8.83,0.64 19.37,13.68 27.6,41.21 18.29,63.13 -5.06,-12.53 -7.56,-25.96 -13.08,-38.3 -0.62,-0.04 -1.85,-0.12 -2.47,-0.15 -7.56,-10.56 -19.39,-21.95 -33.57,-18.24 3.02,-1.39 6.28,-2.18 9.25,-3.69 4.39,-0.51 8.58,-2.01 12.75,-3.39 z"
       id="path692"
       inkscape:connector-curvature="0"
       style="opacity:1;fill:#dee0e1" />
  </g>
  <g
     id="#00c5efff"
     transform="matrix(0.08,0,0,0.08,2.5e-7,0.04440025)">
    <path
       d="m 405.88,398.85 c 4.58,-8.1 9.7,-15.88 14.09,-24.08 0.86,4.18 -3.37,7.8 -1.93,12.21 -0.05,66.62 -0.11,133.25 0.03,199.87 2.09,-0.15 4.19,-0.33 6.19,0.45 -4.99,1.54 -10.04,2.92 -15.12,4.1 -2.89,-0.95 -6.2,-3.6 -4.14,-7.39 0,-58.34 -0.01,-116.68 0.01,-175.02 -0.29,-3.46 0.41,-6.77 0.87,-10.14 z"
       id="path695"
       inkscape:connector-curvature="0"
       style="opacity:1;fill:#00c5ef" />
  </g>
  <g
     id="#ecedeeff"
     transform="matrix(0.08,0,0,0.08,2.5e-7,0.04440025)">
    <path
       d="m 260.78,381.83 c 14.18,-3.71 26.01,7.68 33.57,18.24 -6.81,3.2 -14.32,4.46 -21.38,6.98 -16.44,5.88 -33.23,10.68 -49.75,16.31 -0.74,-0.1 -2.2,-0.32 -2.93,-0.43 0.31,-11.85 3.2,-27.19 15.73,-31.91 2.95,-1.46 6.46,-1.78 8.96,-4.07 4.64,-0.11 9.03,-1.95 13.16,-3.91 0.87,-0.43 1.75,-0.84 2.64,-1.21 z"
       id="path698"
       inkscape:connector-curvature="0"
       style="opacity:1;fill:#ecedee" />
  </g>
  <g
     id="#006fedfe"
     transform="matrix(0.08,0,0,0.08,2.5e-7,0.04440025)">
    <path
       d="m 112.21,401.32 c 6.6,-6.66 13.13,-13.41 20.06,-19.73 l 0.59,0.68 c 1.71,2.53 3.61,4.93 5.28,7.5 0.74,14.65 6.32,28.63 11.62,42.18 -4.57,4.69 -9.94,8.76 -13.71,14.14 -0.15,10.04 -0.83,20.29 1.89,30.06 -9.27,-15.33 -16.94,-31.76 -22.16,-48.9 0.23,-8.81 -4.69,-17.04 -3.57,-25.93 z"
       id="path701"
       inkscape:connector-curvature="0"
       style="opacity:1;fill:#006fed" />
  </g>
  <g
     id="#e0e1e2ff"
     transform="matrix(0.08,0,0,0.08,2.5e-7,0.04440025)">
    <path
       d="m 244.98,386.95 c 4.11,-2.01 8.52,-3.84 13.16,-3.91 -4.13,1.96 -8.52,3.8 -13.16,3.91 z"
       id="path704"
       inkscape:connector-curvature="0"
       style="opacity:1;fill:#e0e1e2" />
    <path
       d="m 227.22,392.2 c 5.76,-2.22 11.7,-4.03 17.76,-5.25 -2.5,2.29 -6.01,2.61 -8.96,4.07 -12.53,4.72 -15.42,20.06 -15.73,31.91 0.73,0.11 2.19,0.33 2.93,0.43 -5.47,1.29 -10.66,3.46 -16.03,5.09 -0.47,-0.17 -1.43,-0.5 -1.9,-0.67 -2.38,-8.25 -0.52,-16.81 1.5,-24.92 0.2,-3.09 4.21,-3.35 6.22,-4.87 4.63,-2.19 9.58,-3.59 14.21,-5.79 z"
       id="path706"
       inkscape:connector-curvature="0"
       style="opacity:1;fill:#e0e1e2" />
  </g>
  <g
     id="#d6d8d9ff"
     transform="matrix(0.08,0,0,0.08,2.5e-7,0.04440025)">
    <path
       d="m 194.23,404.25 c 9.92,-6.2 21.73,-9.34 32.99,-12.05 -4.63,2.2 -9.58,3.6 -14.21,5.79 -2.01,1.52 -6.02,1.78 -6.22,4.87 -2.02,8.11 -3.88,16.67 -1.5,24.92 0.47,0.17 1.43,0.5 1.9,0.67 -2.98,0.97 -5.93,2.05 -8.96,2.89 -2.54,-0.55 -7.07,0.53 -4.85,-4.93 -1.28,-7.37 0.67,-14.79 0.85,-22.16 z"
       id="path709"
       inkscape:connector-curvature="0"
       style="opacity:1;fill:#d6d8d9" />
  </g>
  <g
     id="#00c1efff"
     transform="matrix(0.08,0,0,0.08,2.5e-7,0.04440025)">
    <path
       d="m 388.91,423.89 c 5.92,-8.17 11.48,-16.59 16.97,-25.04 -0.46,3.37 -1.16,6.68 -0.87,10.14 -0.02,58.34 -0.01,116.68 -0.01,175.02 -2.06,3.79 1.25,6.44 4.14,7.39 -4.97,1.07 -9.93,2.21 -14.94,3.05 -3.46,-0.24 -7.22,-3.32 -5.19,-7.44 -0.09,-54.37 0.12,-108.75 -0.1,-163.12 z"
       id="path712"
       inkscape:connector-curvature="0"
       style="opacity:1;fill:#00c1ef" />
  </g>
  <g
     id="#00e6eefe"
     transform="matrix(0.08,0,0,0.08,2.5e-7,0.04440025)">
    <path
       d="m 513.02,408.99 c -1.92,-4.35 2.01,-7 5.16,-8.46 4.57,9.38 10.39,18.27 18.16,25.32 -2.45,2.06 -4.98,4.05 -7.15,6.42 -0.44,28.89 -0.09,57.8 -0.18,86.7 -0.23,1.58 0.48,2.37 2.13,2.38 -5.47,5.63 -11.03,11.19 -17.18,16.1 -1.6,-2.44 -0.8,-5.86 -1.01,-8.44 0.13,-40.01 -0.02,-80.01 0.07,-120.02 z"
       id="path715"
       inkscape:connector-curvature="0"
       style="opacity:1;fill:#00e6ee" />
  </g>
  <g
     id="#cfd1d3ff"
     transform="matrix(0.08,0,0,0.08,2.5e-7,0.04440025)">
    <path
       d="m 329.28,418.69 c 4.63,7.81 5.76,17.48 10.46,25.44 0.1,-0.76 0.31,-2.29 0.41,-3.05 4.09,1.19 7.5,5.32 12.03,3.11 -8.05,8.29 -16.05,16.68 -25.14,23.85 -2.23,0.89 -3.78,4.78 -6.7,3.83 -1.46,-4.83 -3.19,-9.56 -4.62,-14.39 0.48,-0.2 1.45,-0.59 1.94,-0.79 7.95,-10.87 11.36,-24.68 11.62,-38 z"
       id="path718"
       inkscape:connector-curvature="0"
       style="opacity:1;fill:#cfd1d3" />
  </g>
  <g
     id="#00bbeeff"
     transform="matrix(0.08,0,0,0.08,2.5e-7,0.04440025)">
    <path
       d="m 369.89,448.86 c 6.24,-8.4 13.03,-16.38 19.02,-24.97 0.22,54.37 0.01,108.75 0.1,163.12 -2.03,4.12 1.73,7.2 5.19,7.44 -6.96,1.52 -14.05,2.38 -21.16,2.59 -1.7,-0.05 -3.38,-0.11 -5.06,-0.16 0.08,-45.3 -0.05,-90.6 0.05,-135.9 -0.36,-4.18 1.03,-8.11 1.86,-12.12 z"
       id="path721"
       inkscape:connector-curvature="0"
       style="opacity:1;fill:#00bbee" />
  </g>
  <g
     id="#00eceefe"
     transform="matrix(0.08,0,0,0.08,2.5e-7,0.04440025)">
    <path
       d="m 536.34,425.85 c 5.03,3.5 9.84,7.52 15.48,10.03 1.38,-3.05 2.63,-6.15 4.01,-9.2 1.16,3.34 -0.42,6.9 0.2,10.32 0.04,16.57 -0.29,33.16 0.18,49.74 0.5,0.17 1.5,0.52 2,0.69 -7.93,12.13 -17.12,23.39 -27.07,33.92 -1.65,-0.01 -2.36,-0.8 -2.13,-2.38 0.09,-28.9 -0.26,-57.81 0.18,-86.7 2.17,-2.37 4.7,-4.36 7.15,-6.42 z"
       id="path724"
       inkscape:connector-curvature="0"
       style="opacity:1;fill:#00ecee" />
  </g>
  <g
     id="#0074edfe"
     transform="matrix(0.08,0,0,0.08,2.5e-7,0.04440025)">
    <path
       d="m 136.05,446.09 c 3.77,-5.38 9.14,-9.45 13.71,-14.14 4.19,10.19 8.67,20.28 14.1,29.88 -3.39,1.8 -6.08,4.66 -8.61,7.5 -0.46,8.22 -0.34,16.45 -0.22,24.68 -0.04,2.44 1.13,4.94 -0.13,7.26 -6.49,-7.74 -11.84,-16.42 -16.96,-25.12 -2.72,-9.77 -2.04,-20.02 -1.89,-30.06 z"
       id="path727"
       inkscape:connector-curvature="0"
       style="opacity:1;fill:#0074ed" />
  </g>
  <g
     id="#00b5efff"
     transform="matrix(0.08,0,0,0.08,2.5e-7,0.04440025)">
    <path
       d="m 345.82,475.82 c 8.3,-8.74 16.17,-17.87 24.07,-26.96 -0.83,4.01 -2.22,7.94 -1.86,12.12 -0.1,45.3 0.03,90.6 -0.05,135.9 -1.54,0.17 -3.08,0.43 -4.48,1.12 H 346 c -0.11,-40.73 0.23,-81.46 -0.18,-122.18 z"
       id="path730"
       inkscape:connector-curvature="0"
       style="opacity:1;fill:#00b5ef" />
  </g>
  <g
     id="#007aedfe"
     transform="matrix(0.08,0,0,0.08,2.5e-7,0.04440025)">
    <path
       d="m 155.25,469.33 c 2.53,-2.84 5.22,-5.7 8.61,-7.5 6.29,11.96 14.36,22.88 22.3,33.78 -3.71,3.47 -7.48,6.91 -10.88,10.7 -0.51,5.61 0.05,11.43 -1.48,16.93 -6.63,-7.02 -12.98,-14.33 -18.9,-21.97 1.26,-2.32 0.09,-4.82 0.13,-7.26 -0.12,-8.23 -0.24,-16.46 0.22,-24.68 z"
       id="path733"
       inkscape:connector-curvature="0"
       style="opacity:1;fill:#007aed" />
  </g>
  <g
     id="#00adeeff"
     transform="matrix(0.08,0,0,0.08,2.5e-7,0.04440025)">
    <path
       d="m 321.94,497.85 c 8.15,-7.15 16.41,-14.17 23.88,-22.03 0.41,40.72 0.07,81.45 0.18,122.18 h -11.5 c -3.65,-1.46 -7.74,-0.95 -11.5,-1.83 -1.24,-3.11 -7.12,-1.62 -3.97,-7.2 -0.05,-28.62 -0.08,-57.24 0.01,-85.86 1.52,-1.54 3.44,-2.74 2.9,-5.26 z"
       id="path736"
       inkscape:connector-curvature="0"
       style="opacity:1;fill:#00adee" />
  </g>
  <g
     id="#007fecfd"
     transform="matrix(0.08,0,0,0.08,2.5e-7,0.04440025)">
    <path
       d="m 175.28,506.31 c 3.4,-3.79 7.17,-7.23 10.88,-10.7 5.43,5.26 9.84,11.45 15.91,16.05 -4.67,2.59 -8.16,6.84 -11.8,10.67 -0.28,5.27 -0.44,10.55 -0.47,15.85 -5.48,-4.82 -11.06,-9.55 -16,-14.94 1.53,-5.5 0.97,-11.32 1.48,-16.93 z"
       id="path739"
       inkscape:connector-curvature="0"
       style="opacity:1;fill:#007fec" />
  </g>
  <g
     id="#00a5eefe"
     transform="matrix(0.08,0,0,0.08,2.5e-7,0.04440025)">
    <path
       d="m 296.88,515.8 c 8.42,-5.9 17.2,-11.29 25.06,-17.95 0.54,2.52 -1.38,3.72 -2.9,5.26 -0.09,28.62 -0.06,57.24 -0.01,85.86 -3.15,5.58 2.73,4.09 3.97,7.2 -8.1,-0.64 -16.23,-1.65 -24.02,-4.04 -1.61,-0.83 -3.34,-1.4 -4.9,-2.32 -0.22,-21.61 0.01,-43.22 -0.11,-64.83 -1.75,-3.92 1.16,-6.4 2.91,-9.18 z"
       id="path742"
       inkscape:connector-curvature="0"
       style="opacity:1;fill:#00a5ee" />
  </g>
  <g
     id="#0085edfd"
     transform="matrix(0.08,0,0,0.08,2.5e-7,0.04440025)">
    <path
       d="m 190.27,522.33 c 3.64,-3.83 7.13,-8.08 11.8,-10.67 7.89,6.56 16.43,12.35 26.09,15.95 -6.86,2.14 -10.5,9.27 -15.94,13.6 -3.43,2.33 -2.25,6.97 -2.04,10.56 2.18,2.17 5.4,3.54 6.7,6.51 -9.73,-5.64 -18.53,-12.82 -27.08,-20.1 0.03,-5.3 0.19,-10.58 0.47,-15.85 z"
       id="path745"
       inkscape:connector-curvature="0"
       style="opacity:1;fill:#0085ed" />
  </g>
  <g
     id="#009eeefe"
     transform="matrix(0.08,0,0,0.08,2.5e-7,0.04440025)">
    <path
       d="m 270.8,527.77 c 9.04,-3.2 17.75,-7.21 26.08,-11.97 -1.75,2.78 -4.66,5.26 -2.91,9.18 0.12,21.61 -0.11,43.22 0.11,64.83 1.56,0.92 3.29,1.49 4.9,2.32 -9.27,-1.17 -18.25,-3.95 -27.05,-7.01 -3.21,-5.44 -1.46,-12.16 -1.96,-18.12 0.61,-13.05 -1.13,-26.29 0.83,-39.23 z"
       id="path748"
       inkscape:connector-curvature="0"
       style="opacity:1;fill:#009eee" />
  </g>
  <g
     id="#008cedfe"
     transform="matrix(0.08,0,0,0.08,2.5e-7,0.04440025)">
    <path
       d="m 212.22,541.21 c 5.44,-4.33 9.08,-11.46 15.94,-13.6 3.86,0.91 7.7,1.93 11.61,2.61 4.1,0.71 8.27,0.82 12.43,1 -9.79,-0.47 -14.3,9.72 -20.96,15.09 -0.17,6.11 -0.79,12.33 -0.01,18.42 1.55,1.52 3.45,2.68 4.69,4.5 -6.7,-2.97 -13.04,-6.74 -19.04,-10.95 -1.3,-2.97 -4.52,-4.34 -6.7,-6.51 -0.21,-3.59 -1.39,-8.23 2.04,-10.56 z"
       id="path751"
       inkscape:connector-curvature="0"
       style="opacity:1;fill:#008ced" />
  </g>
  <g
     id="#0097eefe"
     transform="matrix(0.08,0,0,0.08,2.5e-7,0.04440025)">
    <path
       d="m 258.25,530.3 c 4.2,-0.75 8.37,-1.66 12.55,-2.53 -1.96,12.94 -0.22,26.18 -0.83,39.23 0.5,5.96 -1.25,12.68 1.96,18.12 -6.86,-2.34 -13.62,-5 -20.27,-7.86 -1.29,-12.05 -0.45,-24.2 -0.69,-36.28 -2.02,-4.62 1.71,-7.1 4.21,-9.84 1.03,-0.27 2.05,-0.55 3.07,-0.84 z"
       id="path754"
       inkscape:connector-curvature="0"
       style="opacity:1;fill:#0097ee" />
  </g>
  <g
     id="#165794ff"
     transform="matrix(0.08,0,0,0.08,2.5e-7,0.04440025)">
    <path
       d="m 239.77,530.22 c 6.16,-0.24 12.32,-0.23 18.48,0.08 -1.02,0.29 -2.04,0.57 -3.07,0.84 -0.74,0.02 -2.23,0.06 -2.98,0.08 -4.16,-0.18 -8.33,-0.29 -12.43,-1 z"
       id="path757"
       inkscape:connector-curvature="0"
       style="opacity:1;fill:#165794" />
  </g>
  <g
     id="#0092eefe"
     transform="matrix(0.08,0,0,0.08,2.5e-7,0.04440025)">
    <path
       d="m 252.2,531.22 c 0.75,-0.02 2.24,-0.06 2.98,-0.08 -2.5,2.74 -6.23,5.22 -4.21,9.84 0.24,12.08 -0.6,24.23 0.69,36.28 -5.3,-2.56 -10.64,-5.08 -15.74,-8.03 -1.24,-1.82 -3.14,-2.98 -4.69,-4.5 -0.78,-6.09 -0.16,-12.31 0.01,-18.42 6.66,-5.37 11.17,-15.56 20.96,-15.09 z"
       id="path760"
       inkscape:connector-curvature="0"
       style="opacity:1;fill:#0092ee" />
  </g>
  <g
     id="#0065838c"
     transform="matrix(0.08,0,0,0.08,2.5e-7,0.04440025)">
    <path
       d="m 363.5,598 c 1.4,-0.69 2.94,-0.95 4.48,-1.12 1.68,0.05 3.36,0.11 5.06,0.16 l -0.1,0.96 z"
       id="path763"
       inkscape:connector-curvature="0"
       style="opacity:0.55;fill:#006583" />
  </g>
</svg>
