<?xml version="1.0" encoding="utf-8"?>
<!-- Generator: Adobe Illustrator 23.0.2, SVG Export Plug-In . SVG Version: 6.00 Build 0)  -->
<svg version="1.1" id="Layer_1" xmlns="http://www.w3.org/2000/svg" xmlns:xlink="http://www.w3.org/1999/xlink" x="0px" y="0px"
	 width="64px" height="64px" viewBox="0 0 64 64" enable-background="new 0 0 64 64" xml:space="preserve">
<g>
	<g>
		<path fill="#F2B564" d="M41.944,64c0-3.729-0.01-7.459,0.011-11.188c0.003-0.546-0.117-0.956-0.531-1.333
			c-0.54-0.492-1.016-1.055-1.636-1.712c1.084,0.012,1.982-0.261,2.798,0.663c1.308,1.481,2.761,2.835,4.167,4.228
			c0.3,0.297,0.438,0.609,0.431,1.035c-0.021,1.289,0.007,2.578-0.015,3.867c-0.007,0.425,0.139,0.558,0.557,0.551
			c1.289-0.021,2.578-0.008,3.867-0.007c0.252,0,0.497-0.019,0.703,0.193c1.199,1.238,2.406,2.469,3.61,3.703
			C51.252,64,46.598,64,41.944,64z"/>
		<path fill="#F2B564" d="M11.949,64c-0.001-3.454,0.002-6.908-0.012-10.361c-0.001-0.249,0.187-0.697-0.322-0.661
			c-0.332,0.023-0.896-0.332-0.94,0.411c-0.016,0.271-0.232,0.242-0.412,0.243c-1.013,0.003-2.026-0.004-3.039,0.005
			c-0.286,0.003-0.44-0.091-0.414-0.395c0.002-0.023-0.002-0.046,0-0.069c0.089-1.268,0.108-2.51-1.24-3.191
			c0.192-0.34,0.425-0.232,0.608-0.233c2.21-0.009,4.421,0.001,6.631-0.012c0.369-0.002,0.652,0.083,0.917,0.357
			c1.008,1.042,2.032,2.07,3.065,3.088c0.267,0.263,0.384,0.542,0.383,0.915c-0.009,2.671-0.01,5.342,0,8.013
			c0.001,0.398-0.123,0.688-0.416,0.968c-0.291,0.279-0.657,0.511-0.801,0.923C14.621,64,13.285,64,11.949,64z"/>
		<path fill="#F2B564" d="M39.18,64c-0.666-0.855-1.454-1.6-2.252-2.319c-0.691-0.623-1.066-1.294-0.908-2.226
			c0.091-0.538-0.128-0.706-0.68-0.699c-2.579,0.028-5.159,0-7.738,0.024c-0.482,0.005-0.84-0.123-1.141-0.485
			c-0.161-0.194-0.331-0.395-0.536-0.536c-1.359-0.93-1.816-2.219-1.547-3.804c0.232-1.366-0.18-2.46-1.313-3.29
			c-0.283-0.207-0.488-0.521-0.808-0.873c1.158-0.084,2.138-0.245,2.944,0.784c0.733,0.936,1.641,1.742,2.518,2.556
			c0.43,0.399,0.607,0.818,0.557,1.392c-0.042,0.48-0.009,0.966-0.009,1.446c0.224,0.108,0.323-0.083,0.393-0.185
			c0.544-0.796,1.303-0.933,2.216-0.905c1.933,0.059,3.869,0.029,5.803,0.01c0.444-0.004,0.81,0.071,1.089,0.442
			c0.11,0.146,0.241,0.287,0.39,0.39c1.522,1.043,1.98,2.475,1.777,4.278c-0.149,1.319-0.051,2.667-0.064,4.001
			C39.64,64,39.41,64,39.18,64z"/>
		<path fill="#F2B564" d="M33.374,0c0.043,0.05,0.076,0.127,0.13,0.145c1.151,0.378,1.515,1.324,1.814,2.375
			c0.369,1.297,0.836,2.566,1.308,3.839c0.136-1.295-0.127-2.577-0.076-3.863c0.012-0.308-0.187-0.759,0.093-0.89
			c0.286-0.133,0.48,0.34,0.749,0.497c0.709,0.412,1.028,1.046,1.168,1.842c0.146,0.825,0.396,1.632,0.731,2.43
			c0-1.058,0-2.117,0-3.175c0.051-0.023,0.102-0.046,0.153-0.069c0.646,0.924,1.332,1.825,1.912,2.789
			c0.158,0.262,0.005,0.717-0.023,1.082c-0.026,0.341-0.075,0.68,0.011,1.061c0.249-0.617,0.498-1.234,0.755-1.873
			c0.684,1.367,0.208,2.64-0.158,3.923c-0.086,0.301-0.327,0.364-0.56,0.45c-0.668,0.247-1.34,0.483-2.009,0.728
			c-0.702,0.257-1.304-0.156-1.934-0.316c-0.426-0.108-0.777-0.12-1.174,0.082c-0.676,0.344-1.373,0.645-2.067,0.954
			c-0.719,0.32-1.072,1.056-1.733,1.52c-0.19-0.243-0.167-0.515-0.17-0.776c-0.018-1.842-0.144-3.692-0.022-5.525
			c0.136-2.058,0.487-4.103,0.767-6.15C33.09,0.719,33.04,0.335,33.236,0C33.282,0,33.328,0,33.374,0z"/>
		<path fill="#F2B564" d="M30.886,0c0.293,2.231,0.577,4.463,0.882,6.692c0.139,1.013,0.004,2.018-0.016,3.028
			c-0.025,1.279-0.006,2.559-0.006,3.95c-0.187-0.129-0.277-0.162-0.322-0.226c-0.896-1.272-2.307-1.746-3.618-2.397
			c-0.607-0.302-1.142-0.145-1.638,0.073c-0.766,0.338-1.438,0.201-2.174-0.068c-1.936-0.707-1.947-0.685-2.359-2.711
			c-0.142-0.698,0.116-1.351,0.238-2.141c0.439,0.518,0.412,1.144,0.858,1.68c0-0.381,0.06-0.659-0.011-0.898
			c-0.246-0.832,0.122-1.453,0.606-2.065c0.426-0.54,0.817-1.107,1.328-1.804c0,1.259,0,2.372,0,3.486
			c0.481-0.781,0.688-1.641,0.785-2.477c0.157-1.353,1.11-1.958,2.156-2.753c-0.099,1.838-0.191,3.541-0.282,5.245
			c0.027,0.007,0.055,0.014,0.082,0.021c0.426-1.277,0.925-2.535,1.259-3.835C28.975,1.546,29.466,0.499,30.748,0
			C30.794,0,30.84,0,30.886,0z"/>
		<path fill="#F2B564" d="M25.633,64c-0.038-0.057-0.062-0.135-0.115-0.167c-1.263-0.787-1.208-2.023-1.15-3.277
			c0.017-0.378,0.173-0.46,0.506-0.456c0.966,0.013,1.931,0.003,2.897,0.006c0.157,0,0.422-0.039,0.436,0.108
			c0.072,0.725,0.609,0.482,0.987,0.486c1.793,0.018,3.587,0.008,5.38,0.008c0.298,0,0.616-0.047,0.842,0.206
			c0.945,1.06,2.076,1.943,2.934,3.086C34.111,64,29.872,64,25.633,64z"/>
		<path fill="#F2B564" d="M53.112,20.903c-1.564-0.552-3.016-1.355-4.532-2.014c-0.517-0.224-1.03-0.455-1.61-0.556
			c1.582,1.209,3.159,2.424,4.748,3.624c1.202,0.907,1.209,0.897,0.538,2.229c-0.217,0.43-0.43,0.862-0.682,1.369
			c-1.068-1.148-2.097-2.255-3.127-3.362c0.051,0.719,0.495,1.196,0.8,1.743c0.404,0.722,0.821,1.443,1.306,2.111
			c0.371,0.511,0.38,0.977,0.16,1.533c-0.249,0.628-0.436,1.281-0.695,2.06c-0.865-1.58-1.661-3.034-2.457-4.488
			c-0.049,0.022-0.098,0.044-0.147,0.066c0.294,1.142,0.522,2.307,0.897,3.422c0.743,2.206,0.838,4.448,0.533,6.724
			c-0.116,0.865,0.328,1.552,0.621,2.292c0.11,0.278,0.352,0.246,0.583,0.245c0.621-0.002,1.242-0.001,1.922,0.099
			c-0.691,0.358-1.379,0.723-2.074,1.073c-0.887,0.446-0.846,0.411-1.396-0.387c-1.304-1.889-1.67-4.107-2.274-6.243
			c-0.156-0.552-0.139-0.556-0.495-0.891c0.809,3.54,0.654,7.025-0.539,10.489c-0.298-1.425-0.618-2.817-0.869-4.221
			c-0.09-0.505-0.286-0.907-0.627-1.267c-0.869-0.92-1.741-1.839-2.592-2.776c-0.218-0.24-0.694-0.444-0.521-0.81
			c0.244-0.514,0.402-1.145,1.058-1.368c0.522-0.177,1.03-0.398,1.556-0.562c0.347-0.109,0.477-0.291,0.434-0.655
			c-0.064-0.548-0.055-1.105-0.138-1.648c-0.103-0.673,0.08-1.277,0.351-1.866c0.2-0.434,0.135-0.759-0.231-1.086
			c-0.445-0.398-0.83-0.862-1.253-1.286c-0.266-0.267-0.362-0.534-0.054-0.822c1.059-0.988,1.512-2.341,2.184-3.565
			c0.24-0.438,0.212-0.72-0.197-0.97c-0.512-0.312-0.609-0.685-0.193-1.151c0.318-0.357,0.204-0.646-0.036-1.037
			c-1.056-1.721-2.546-3.008-4.081-4.261c-0.277-0.226-0.588-0.428-0.807-0.821c0.839-0.227,1.625-0.468,2.426-0.644
			c0.382-0.084,0.592-0.276,0.767-0.603c0.935-1.745,1.992-3.415,3.129-5.037c0.332-0.474,0.495-0.539,0.728,0.033
			c0.09,0.222,0.155,0.485,0.42,0.596c0.474-0.787,0.474-0.787,1.1-0.037c0.472,0.565,0.918,1.154,1.423,1.688
			c0.394,0.417,0.456,0.865,0.358,1.392c-0.241,1.286-0.519,2.569-0.681,3.866c-0.096,0.767-0.534,1.226-1.044,1.698
			c-1.005,0.93-0.997,0.938,0.235,1.506c0.125,0.058,0.243,0.144,0.374,0.177c2.361,0.605,3.404,2.646,4.751,4.354L53.112,20.903z
			 M46.161,9.303c-0.409,0.413-0.7,0.84-0.784,1.461c-0.185,1.358-0.141,2.863-1.833,3.533c0.232,0.135,0.364,0.221,0.504,0.291
			c1.525,0.754,1.525,0.753,2.439-0.662C47.45,12.432,47.336,10.723,46.161,9.303z M48.157,22.113
			c0.034-0.016,0.068-0.032,0.102-0.047c-0.014-0.017-0.026-0.047-0.041-0.048c-0.037-0.003-0.075,0.008-0.113,0.013
			C48.122,22.057,48.139,22.085,48.157,22.113z"/>
		<path fill="#F2B564" d="M16.486,25.274c-0.777,1.14-1.321,2.412-2.019,3.597c-0.126,0.214-0.247,0.43-0.447,0.78
			c-0.308-0.993-0.589-1.858-0.841-2.732c-0.093-0.323,0.159-0.565,0.308-0.813c0.7-1.161,1.418-2.311,2.124-3.469
			c0.079-0.129,0.215-0.246,0.121-0.558c-0.562,0.595-1.084,1.141-1.598,1.694c-0.439,0.471-0.877,0.943-1.3,1.427
			c-0.267,0.305-0.435,0.252-0.588-0.097c-0.138-0.315-0.302-0.62-0.451-0.931c-0.637-1.334-0.631-1.327,0.573-2.238
			c1.555-1.176,3.102-2.365,4.582-3.68c-1.984,0.88-3.968,1.759-5.952,2.639c-0.02-0.021-0.041-0.042-0.061-0.063
			c0.761-1.182,1.694-2.233,2.61-3.288c0.453-0.522,1.221-0.613,1.835-0.922c0.471-0.238,0.964-0.435,1.456-0.63
			c0.38-0.151,0.417-0.37,0.082-0.563c-1.697-0.978-1.768-2.709-2.049-4.345c-0.058-0.339-0.06-0.7-0.183-1.015
			c-0.465-1.196-0.047-2.099,0.818-2.933c0.537-0.518,0.98-1.133,1.514-1.762c0.134,0.389,0.238,0.689,0.376,1.086
			c0.257-0.48,0.476-0.891,0.765-1.431c0.75,1.103,1.467,2.127,2.15,3.172c0.365,0.557,0.754,1.12,0.989,1.736
			c0.387,1.017,1.135,1.407,2.132,1.55c0.49,0.071,0.964,0.247,1.564,0.407c-1.049,0.901-2.001,1.723-2.959,2.538
			c-0.926,0.788-1.49,1.86-2.227,2.797c-0.27,0.343,0.011,0.581,0.179,0.787c0.356,0.437,0.344,0.787-0.147,1.07
			c-0.487,0.28-0.501,0.605-0.249,1.081c0.666,1.257,1.184,2.602,2.24,3.615c0.26,0.25,0.121,0.431-0.074,0.633
			c-0.463,0.48-0.902,0.984-1.372,1.457c-0.255,0.257-0.375,0.504-0.196,0.854c0.546,1.065,0.403,2.186,0.216,3.296
			c-0.101,0.603,0.045,0.956,0.678,1.098c0.4,0.09,0.768,0.321,1.168,0.414c0.753,0.176,0.881,0.88,1.243,1.385
			c0.147,0.206-0.056,0.332-0.177,0.462c-1.017,1.098-2.031,2.198-3.053,3.291c-0.24,0.256-0.401,0.517-0.47,0.886
			c-0.285,1.507-0.622,3.004-0.943,4.523c-1.122-3.401-1.298-6.824-0.525-10.306c-0.094-0.007-0.187-0.014-0.281-0.021
			c-0.188,0.662-0.404,1.317-0.558,1.986c-0.426,1.848-1.034,3.614-2.074,5.222c-0.268,0.414-0.471,0.528-0.923,0.275
			c-0.793-0.444-1.619-0.827-2.402-1.334c0.655,0,1.31-0.017,1.964,0.007c0.329,0.012,0.458-0.14,0.626-0.403
			c0.933-1.467,0.402-3.043,0.367-4.575c-0.016-0.693-0.026-1.354,0.148-2.043c0.467-1.847,1.019-3.675,1.355-5.554
			c0.072-0.06,0.123-0.174,0.048-0.209C16.489,25.071,16.515,25.213,16.486,25.274z M20.473,14.373
			c-0.328-0.416-0.826-0.499-1.106-0.942c-0.48-0.76-0.582-1.578-0.646-2.419c-0.044-0.572-0.218-1.07-0.61-1.492
			c-0.129-0.14-0.246-0.326-0.401-0.036c-0.339,0.635-0.73,1.202-0.789,2.002c-0.106,1.424,0.63,2.435,1.334,3.503
			c0.145,0.219,0.297,0.259,0.516,0.159C19.33,14.893,19.889,14.639,20.473,14.373z"/>
		<path fill="#F2B564" d="M27.348,15.715c1.306,0.288,1.596,1.229,1.682,2.354c0.054,0.707,0.246,1.402,0.335,2.108
			c0.098,0.781-0.318,1.077-1.074,0.875c-0.606-0.162-1.018-0.473-1.226-1.073c-0.193-0.555-0.539-0.862-1.181-0.979
			c-0.615-0.113-1.19-0.473-1.766-0.76c-0.365-0.182-0.687-0.193-1.039,0.02c-0.314,0.19-0.641,0.366-0.98,0.508
			c-0.369,0.155-0.767,0.391-1.121-0.037c-0.355-0.431-0.495-0.803-0.148-1.401c1.102-1.898,2.576-3.494,4.155-4.95
			c0.736-0.679,1.878-1.18,3.033-0.54c0.02,0.011,0.041,0.023,0.063,0.029c2.534,0.675,3.18,2.641,3.361,4.921
			c0.025,0.312-0.084,0.642,0.451,0.638c0.47-0.003,0.65-0.08,0.708-0.622c0.117-1.108,0.285-2.206,0.92-3.204
			c0.391-0.615,0.776-1.119,1.492-1.313c0.11-0.03,0.213-0.087,0.317-0.135c1.899-0.872,3.124-0.585,4.521,0.975
			c1.211,1.353,2.483,2.642,3.396,4.244c0.332,0.583,0.147,0.928-0.159,1.354c-0.3,0.417-0.652,0.177-0.993,0.1
			c-0.067-0.015-0.143-0.033-0.191-0.075c-1.059-0.923-2.099-0.615-3.137,0.039c-0.019,0.012-0.042,0.023-0.064,0.026
			c-1.015,0.155-1.622,0.735-2.023,1.687c-0.222,0.529-0.909,0.652-1.435,0.624c-0.398-0.021-0.693-0.39-0.588-0.915
			c0.189-0.945,0.371-1.894,0.5-2.848c0.086-0.64,0.275-1.137,0.959-1.338c0.173-0.051,0.4-0.117,0.484-0.346
			c-1.216-0.113-1.624,0.136-1.927,1.215c-0.254,0.906-0.504,1.816-0.71,2.734c-0.091,0.407-0.214,0.377-0.55,0.242
			c-0.919-0.369-1.882-0.386-2.786,0.014c-0.409,0.181-0.466,0.032-0.544-0.272c-0.25-0.979-0.538-1.95-0.741-2.938
			c-0.126-0.612-0.403-0.921-1.038-0.946C28.015,15.718,27.731,15.564,27.348,15.715z"/>
		<path fill="#F2B564" d="M25.352,49.737c1.91,0,3.819-0.014,5.728,0.01c0.496,0.006,0.671-0.087,0.468-0.601
			c-0.382-0.966-0.554-2.009-1.131-2.919c0.107,0.826,0.213,1.652,0.322,2.495c-0.864-0.504-1.051-0.853-1.574-2.925
			c-0.326,0.267-0.132,0.654-0.291,0.983c-0.536-0.373-0.92-0.881-1.339-1.353c-0.209-0.236-0.028-0.399,0.07-0.61
			c0.63-1.352,1.84-1.719,3.166-1.944c1.077-0.183,1.073-0.213,1.191,0.899c0.012,0.114,0.026,0.231,0.016,0.345
			c-0.157,1.854,0.572,3.513,1.129,5.212c0.12,0.368,0.343,0.42,0.675,0.417c1.45-0.012,2.901-0.009,4.351-0.003
			c0.779,0.003,1.767,0.989,1.774,1.765c0.005,0.552-0.015,1.106,0.006,1.657c0.014,0.366-0.136,0.479-0.487,0.472
			c-0.874-0.017-1.749-0.001-2.624-0.007c-0.364-0.003-0.788,0.14-0.828-0.5c-0.018-0.288-0.384-0.167-0.593-0.168
			c-2.118-0.009-4.236-0.022-6.353,0.007c-0.509,0.007-0.854-0.155-1.2-0.513c-0.842-0.87-1.726-1.699-2.593-2.544
			C25.274,49.854,25.313,49.795,25.352,49.737z"/>
		<path fill="#F2B564" d="M34.678,26.302c0.9-1.353,1.724-2.598,2.559-3.836c0.117-0.174,0.181-0.447,0.503-0.376
			c0.276,0.061,0.347,0.28,0.417,0.499c0.149,0.459,0.289,0.921,0.431,1.382c0.228,0.741-0.025,1.128-0.792,0.984
			c-0.545-0.102-0.564,0.178-0.661,0.505c-0.259,0.871-0.572,1.73-0.07,2.635c0.158,0.285-0.033,0.426-0.343,0.348
			c-0.82-0.205-1.592-0.198-2.233,0.466c-0.161,0.166-0.388,0.117-0.592,0.118c-1.013,0.002-2.027-0.022-3.039,0.009
			c-0.684,0.021-1.3-0.041-1.858-0.518c-0.446-0.381-1.015-0.149-1.532-0.113c-0.177,0.012-0.348,0.133-0.558-0.002
			c0.052-0.187,0.072-0.399,0.166-0.571c0.527-0.969-0.113-1.822-0.255-2.722c-0.032-0.203-0.209-0.23-0.381-0.159
			c-0.319,0.131-0.576-0.067-0.86-0.138c-0.303-0.076-0.331-0.232-0.235-0.503c0.214-0.606,0.402-1.222,0.597-1.835
			c0.068-0.213,0.193-0.364,0.412-0.425c0.3-0.083,0.33,0.201,0.43,0.35c0.874,1.293,1.734,2.595,2.616,3.922
			c0.238-1.119,0.003-1.963-0.72-2.678c-0.131-0.129-0.265-0.256-0.386-0.394c-0.197-0.226-0.606-0.389-0.415-0.767
			c0.195-0.386,0.484-0.712,0.983-0.779c0.727-0.097,1.319-0.002,1.549,0.821c0.036,0.13,0.143,0.24,0.183,0.37
			c0.294,0.936,0.957,1.167,1.862,1.05c0.314-0.04,0.505-0.131,0.644-0.405c0.197-0.39,0.419-0.767,0.628-1.151
			c0.369-0.674,1.063-0.923,1.767-0.631c0.719,0.298,0.852,0.905,0.319,1.446c-0.113,0.115-0.225,0.231-0.339,0.345
			C34.538,24.488,34.465,24.72,34.678,26.302z"/>
		<path fill="#F2B564" d="M42.872,49.767c5.185,0,10.37,0,15.551,0c0,0.072,0.017,0.14-0.002,0.152
			c-1.32,0.837-1.135,2.155-1.118,3.432c0.02,1.551,0.005,1.552-1.534,1.552c-0.253,0-0.509-0.025-0.758,0.004
			c-1.014,0.118-1.904-0.048-2.529-0.965c-0.197-0.29-0.527-0.316-0.866-0.314c-1.495,0.012-2.99-0.006-4.484,0.013
			c-0.394,0.005-0.687-0.095-0.973-0.382c-1.118-1.12-2.263-2.214-3.398-3.317C42.798,49.883,42.835,49.825,42.872,49.767z"/>
		<path fill="#F2B564" d="M39.753,34.268c0,0.686,0.031,1.373-0.006,2.057c-0.093,1.698,0.029,3.359,0.836,4.895
			c0.46,0.875,0.021,1.711-0.07,2.554c-0.039,0.36-0.537,0.383-0.833,0.534c-1.344,0.686-1.446,0.762-2.407-0.336
			c-1.051-1.2-2.34-1.491-3.814-1.704c-1.692-0.244-3.291,0.173-4.931,0.301c-0.258,0.02-0.403,0.205-0.57,0.358
			c-0.611,0.56-1.234,1.109-1.82,1.693c-0.272,0.271-0.512,0.35-0.84,0.136c-0.134-0.088-0.292-0.138-0.428-0.223
			c-0.563-0.349-1.422-0.336-1.449-1.324c-0.019-0.678-0.295-1.342,0.074-2.02c0.823-1.515,0.839-3.169,0.78-4.834
			c-0.024-0.679-0.004-1.359,0.091-2.058c0.642,0.845,1.542,1.467,1.445,2.739c-0.084,1.108-0.166,2.208-0.518,3.256
			c-0.357,1.065,0.498,1.644,0.845,2.427c0.043,0.097,0.144,0.098,0.232,0.031c0.055-0.042,0.121-0.075,0.163-0.127
			c1.396-1.686,3.433-1.642,5.305-1.781c1.321-0.098,2.703,0.216,4.012,0.533c0.57,0.138,1.066,0.703,1.523,1.148
			c0.415,0.404,0.6,0.235,0.792-0.164c0.02-0.041,0.033-0.089,0.062-0.123c0.663-0.772,0.738-1.627,0.379-2.552
			c-0.349-0.9-0.225-1.864-0.366-2.793c-0.076-0.504,0.044-0.937,0.39-1.337c0.358-0.414,0.655-0.88,0.979-1.323
			C39.658,34.245,39.706,34.256,39.753,34.268z"/>
		<path fill="#F2B564" d="M37.496,32.495c0.42-0.166,0.841-0.328,1.257-0.503c0.056-0.024,0.242-0.082,0.126-0.157
			c-0.615-0.396,0.01-0.57,0.154-0.764c0.506-0.684,1.074-1.321,1.589-1.998c0.256-0.336,0.473-0.365,0.778-0.078
			c0.301,0.284,0.638,0.529,0.943,0.808c0.397,0.362,0.321,0.788-0.166,1.016c-0.041,0.019-0.087,0.031-0.132,0.041
			c-1.388,0.317-2.197,1.255-2.806,2.482c-0.23,0.462-0.785,0.802-1.272,0.883c-1.192,0.198-2.381,0.094-3.455-0.572
			c-0.291-0.18-0.09-0.36-0.012-0.525c0.539-1.137,1.287-2.101,2.283-2.89c0.971-0.768,1.291-1.737,0.721-2.922
			c-0.202-0.42,0.327-1.647,0.772-1.913c1.324-0.789,2.853-0.336,3.498,1.038c0.257,0.548,0.02,1.279-0.523,1.537
			c-0.321,0.152-0.566,0.369-0.788,0.645c-1.008,1.251-2.032,2.49-3.051,3.733C37.442,32.402,37.469,32.449,37.496,32.495z"/>
		<path fill="#F2B564" d="M26.735,32.475c-1.208-1.481-2.305-2.835-3.416-4.177c-0.111-0.134-0.3-0.208-0.461-0.293
			c-0.838-0.442-0.895-1.168-0.288-1.934c0.794-1.002,1.673-1.327,2.886-0.798c0.765,0.334,1.375,1.44,1.023,2.211
			c-0.468,1.023-0.013,2.183,0.708,2.702c1.049,0.755,1.801,1.754,2.371,2.909c0.169,0.343,0.134,0.451-0.21,0.661
			c-0.972,0.593-2.028,0.603-3.076,0.497c-0.606-0.061-1.141-0.445-1.475-1.006c-0.591-0.99-1.17-1.984-2.43-2.256
			c-0.2-0.043-0.403-0.117-0.579-0.22c-0.406-0.238-0.439-0.591-0.13-0.905c0.353-0.359,0.778-0.647,1.154-0.985
			c0.277-0.249,0.411-0.03,0.553,0.141c0.63,0.763,1.253,1.531,1.878,2.298c0.029,0.036,0.062,0.071,0.08,0.112
			C25.656,32.206,25.656,32.206,26.735,32.475z"/>
		<path fill="#F2B564" d="M53.478,58.768c-0.643,0-1.254-0.018-1.863,0.006c-0.397,0.016-0.561-0.087-0.574-0.53
			c-0.059-2.011-0.074-2.01,1.919-2.01c1.334,0,2.668,0.017,4.002-0.009c0.448-0.009,0.602,0.123,0.596,0.582
			c-0.022,1.794-0.022,3.588-0.002,5.382c0.008,0.696-0.53,0.979-0.939,1.355c-0.177,0.163-0.336-0.064-0.457-0.185
			c-1.073-1.073-2.134-2.157-3.213-3.225c-0.251-0.248-0.279-0.426-0.009-0.678C53.129,59.278,53.379,59.131,53.478,58.768z"/>
		<path fill="#F2B564" d="M28.276,28.763c0.458-0.11,0.741,0.204,1.034,0.445c0.303,0.249,0.622,0.354,1.011,0.347
			c0.919-0.016,1.84-0.034,2.757,0.004c0.759,0.031,1.44-0.043,2.031-0.606c0.398-0.379,0.926-0.221,1.374-0.064
			c0.316,0.111,0.184,0.481,0.224,0.74c0.051,0.333-0.227,0.463-0.427,0.649c-0.92,0.859-2.017,1.522-2.791,2.547
			c-0.214,0.283-0.421,0.535-0.427,0.904c-0.011,0.696-0.53,0.907-1.056,0.896c-0.523-0.012-1.007-0.199-1.009-0.943
			c-0.002-0.763-0.681-1.168-1.157-1.637c-0.652-0.643-1.371-1.223-2.096-1.785c-0.415-0.322-0.487-0.661-0.325-1.13
			C27.58,28.665,27.973,28.835,28.276,28.763z"/>
		<path fill="#F2B564" d="M14.28,49.744c2.236,0,4.366-0.011,6.495,0.009c0.484,0.005,1.545,1.181,1.538,1.666
			c-0.01,0.708,0.289,1.606-0.117,2.07c-0.39,0.446-1.301,0.102-1.981,0.141c-0.367,0.021-0.736,0.007-1.104,0.003
			c-0.328-0.003-0.713,0.107-0.704-0.459c0.004-0.259-0.26-0.233-0.429-0.209c-0.464,0.065-0.77-0.155-1.074-0.473
			c-0.81-0.848-1.646-1.669-2.471-2.503C14.403,49.956,14.385,49.911,14.28,49.744z"/>
		<path fill="#F2B564" d="M45.691,46.667c-0.875-1.713-1.777-3.412-2.615-5.143c-0.578-1.194-1.203-2.319-2.412-2.995
			c-0.199-0.111-0.359-0.275-0.358-0.548c0.006-1.235,0.003-2.469,0.081-3.741c1.09,1.491,2.792,2.45,3.256,4.461
			c0.613,2.655,1.448,5.259,2.187,7.884C45.784,46.613,45.738,46.64,45.691,46.667z"/>
		<path fill="#F2B564" d="M18.244,46.516c0.582-2.069,1.164-4.138,1.747-6.207c0.025-0.088,0.08-0.172,0.089-0.26
			c0.24-2.502,1.903-4.126,3.624-5.832c0,1.323-0.002,2.574,0.001,3.825c0.001,0.212-0.118,0.363-0.276,0.449
			c-1.502,0.817-2.077,2.32-2.79,3.726c-0.735,1.45-1.484,2.893-2.227,4.34C18.357,46.543,18.301,46.53,18.244,46.516z"/>
		<path fill="#F2B564" d="M34.365,46.269c-0.41,0.243-0.575,0.643-0.816,0.987c-0.087,0.124-0.164,0.343-0.346,0.26
			c-0.115-0.052-0.186-0.246-0.233-0.39c-0.083-0.253,0.022-0.491,0.09-0.737c0.063-0.227,0.219-0.45,0.141-0.71
			c-0.293,0.004-0.328,0.338-0.635,0.386c-0.001-1.143-0.23-2.263-0.131-3.455c1.032,0.255,2.057,0.422,3.015,0.773
			c0.777,0.285,1.082,1.144,1.593,1.749c0.107,0.127-0.059,0.25-0.147,0.347c-0.975,1.069-1.951,2.138-2.936,3.198
			c-0.105,0.113-0.211,0.366-0.433,0.178c-0.174-0.148-0.068-0.334,0.002-0.506C33.811,47.657,34.087,46.962,34.365,46.269z"/>
		<path fill="#F2B564" d="M11.223,18.969c0.457-1.678,0.908-3.357,1.38-5.03c0.052-0.185,0.207-0.359,0.354-0.496
			c0.611-0.565,1.131-1.162,1.016-2.104c0.134,0.552,0.313,1.097,0.391,1.657c0.127,0.917,0.538,1.607,1.301,2.152
			c0.607,0.434,0.569,0.488-0.108,0.798c-0.021,0.01-0.04,0.025-0.061,0.031c-1.677,0.469-3.021,1.39-3.934,2.897
			c-0.042,0.07-0.123,0.116-0.187,0.173C11.324,19.022,11.273,18.996,11.223,18.969z"/>
		<path fill="#F2B564" d="M52.731,19.07c-0.345-0.177-0.536-0.505-0.729-0.808c-0.62-0.971-1.47-1.604-2.569-1.944
			c-0.52-0.161-1.34-0.301-1.416-0.681c-0.09-0.453,0.695-0.741,1.09-1.108c0.265-0.246,0.342-0.53,0.419-0.836
			c0.19-0.756,0.366-1.516,0.551-2.273c0.015-0.061,0.053-0.117,0.132-0.19c-0.232,0.956,0.217,1.63,0.862,2.221
			c0.247,0.226,0.369,0.502,0.454,0.828c0.352,1.356,0.733,2.705,1.109,4.055c0.069,0.246,0.136,0.488,0.086,0.745L52.731,19.07z"/>
		<path fill="#F2B564" d="M23.794,24.738c-0.22,0.026-0.405,0.018-0.537-0.143c-0.836-1.022-1.965-1.79-2.467-3.11
			c-0.246-0.648,0.158-0.802,0.467-1.105c0.351-0.344,0.61-0.16,0.86,0.13c0.705,0.817,1.541,1.452,2.59,1.748
			c0.461,0.13,0.475,0.394,0.359,0.765c-0.089,0.285-0.213,0.574-0.225,0.865C24.812,24.619,24.332,24.722,23.794,24.738z"/>
		<path fill="#F2B564" d="M40.333,24.746c-0.575-0.032-1.01-0.142-1.141-0.867c-0.261-1.447-0.315-1.462,1.076-1.995
			c0.752-0.288,1.175-0.934,1.74-1.425c0.237-0.206,0.446-0.447,0.734-0.105c0.253,0.301,0.826,0.335,0.563,1.041
			c-0.5,1.341-1.568,2.18-2.487,3.157C40.623,24.761,40.601,24.74,40.333,24.746z"/>
		<path fill="#F2B564" d="M28.765,36.755c-0.1-0.444-0.14-0.814-0.269-1.15c-0.228-0.594,0.072-0.768,0.568-0.751
			c0.614,0.022,1.24-0.157,1.833,0.233c0.81,0.533,1.669,0.413,2.437-0.088c0.698-0.455,1.372-0.166,2.06-0.087
			c0.216,0.025,0.303,0.145,0.237,0.387c-0.126,0.461-0.218,0.932-0.357,1.539c-0.316-0.536-0.566-0.959-0.817-1.383
			c-0.661,0.579-1.422,0.964-2.207,1.28c-0.466,0.187-0.874-0.168-1.284-0.363c-0.041-0.02-0.092-0.023-0.128-0.048
			c-0.396-0.274-0.804-0.729-1.236-0.683C29.192,35.685,29.195,36.397,28.765,36.755z"/>
		<path fill="#F2B564" d="M32.185,20.312c0.167,0.013,0.448-0.032,0.732,0.155c0.509,0.334,0.779,0.676,0.388,1.275
			c-0.122,0.186-0.153,0.43-0.237,0.644c-0.327,0.834-0.605,0.979-1.487,0.83c-0.187-0.032-0.288-0.113-0.351-0.272
			c-0.225-0.576-0.554-1.137-0.644-1.734c-0.083-0.553,0.513-0.707,0.929-0.886C31.671,20.256,31.878,20.312,32.185,20.312z"/>
		<path fill="#F2B564" d="M37.388,20.876c0.88-1.037,2.165-1.083,3.352-1.367c0.309-0.074,0.628-0.107,0.956-0.161
			c-0.346,1.055-1.101,1.657-2.032,2.12c-0.376,0.187-0.652,0.217-0.998-0.041c-0.379-0.282-0.761-0.602-1.289-0.562L37.388,20.876z
			"/>
		<path fill="#F2B564" d="M26.604,20.867c-0.552-0.039-0.938,0.314-1.342,0.596c-0.305,0.212-0.567,0.238-0.873,0.028
			c-0.541-0.373-1.19-0.583-1.602-1.151c-0.211-0.291-0.019-0.791-0.521-0.957c1.512,0.361,3.166,0.205,4.33,1.495L26.604,20.867z"
			/>
		<path fill="#F2B564" d="M29.9,40.518c0.022,0.568-0.427,0.356-0.691,0.393c-0.953,0.134-0.957,0.122-0.757-0.816
			c0.076-0.358,0.168-0.713,0.256-1.069c0.01-0.04,0.046-0.074,0.076-0.122c0.239-0.009,0.297,0.204,0.344,0.351
			c0.224,0.711,0.595,0.62,1.096,0.274c0.412-0.284,0.872-0.5,1.313-0.74c0.296-0.161,0.483-0.118,0.475,0.27
			c-0.005,0.229-0.016,0.46,0.004,0.688c0.036,0.407-0.127,0.604-0.543,0.594c-0.369-0.009-0.734,0.013-1.052,0.242
			c-0.189,0.136-0.344,0.026-0.491-0.093c0.004-0.115-0.018-0.22-0.118-0.294c-0.041-0.068-0.082-0.137-0.122-0.205
			c-0.115,0.112-0.023,0.192,0.044,0.276C29.752,40.375,29.777,40.479,29.9,40.518z"/>
		<path fill="#F2B564" d="M28.244,35.01c-0.803,1.251-0.103,2.489-0.155,3.88c-0.836-1.272-1.588-2.408-2.33-3.55
			c-0.308-0.474,0.168-0.454,0.364-0.453C26.784,34.89,27.444,34.958,28.244,35.01z"/>
		<path fill="#F2B564" d="M36.005,38.707c-0.08-0.605,0.087-1.193,0.163-1.782c0.073-0.564,0.108-1.09-0.187-1.599
			c-0.06-0.104-0.169-0.326,0.033-0.321c0.806,0.019,1.622-0.283,2.517,0.019c-0.891,1.262-1.585,2.554-2.537,3.673L36.005,38.707z"
			/>
		<path fill="#F2B564" d="M37.768,38.653c0,1.327,0,2.451,0,3.713c-0.458-0.344-0.829-0.625-1.203-0.903
			c-0.173-0.128-0.223-0.286-0.116-0.475C36.856,40.263,37.266,39.54,37.768,38.653z"/>
		<path fill="#F2B564" d="M34.208,40.498c-0.25,0.177-0.495,0.154-0.753,0.003c-0.115-0.068-0.253-0.101-0.384-0.135
			c-0.301-0.077-0.753,0.129-0.888-0.179c-0.145-0.33-0.067-0.76-0.074-1.147c-0.003-0.154-0.016-0.33,0.235-0.323
			c0.279,0.008,1.872,1.094,1.992,1.373l0.006-0.008c-0.196,0.092-0.184,0.254-0.142,0.425L34.208,40.498z"/>
		<path fill="#F2B564" d="M26.442,38.928c0.391,0.688,0.779,1.378,1.177,2.062c0.121,0.208,0.047,0.352-0.115,0.473
			c-0.362,0.269-0.73,0.529-1.17,0.847c0-1.185,0-2.262,0-3.339C26.369,38.956,26.405,38.942,26.442,38.928z"/>
		<path fill="#F2B564" d="M34.337,40.09c0.488-0.283,0.488-0.909,0.946-1.31c0.148,0.643,0.293,1.249,0.427,1.858
			c0.064,0.294-0.039,0.438-0.366,0.376c-0.27-0.052-0.543-0.094-0.816-0.113c-0.271-0.019-0.365-0.149-0.32-0.403
			c0,0-0.007,0.009-0.007,0.009c0.147-0.109,0.213-0.244,0.142-0.425L34.337,40.09z"/>
		<path fill="#F2B564" d="M35.995,38.698c-0.007,0.042-0.014,0.085-0.022,0.127c-0.019-0.011-0.038-0.022-0.056-0.033
			c0.029-0.028,0.059-0.057,0.088-0.085C36.005,38.707,35.995,38.698,35.995,38.698z"/>
		<path fill="#F2B564" d="M26.595,20.878c0.043,0.008,0.086,0.016,0.129,0.024c-0.014,0.02-0.029,0.04-0.043,0.06
			c-0.026-0.032-0.051-0.063-0.077-0.095C26.604,20.867,26.595,20.878,26.595,20.878z"/>
		<path fill="#F2B564" d="M52.721,19.079c0.033,0.024,0.067,0.048,0.1,0.073c-0.02,0.017-0.04,0.033-0.061,0.05
			c-0.01-0.044-0.019-0.088-0.029-0.132C52.731,19.07,52.721,19.079,52.721,19.079z"/>
		<path fill="#F2B564" d="M53.159,20.856c0.028,0.027,0.084,0.073,0.081,0.077c-0.062,0.084-0.096,0.028-0.128-0.03
			C53.112,20.903,53.159,20.856,53.159,20.856z"/>
		<path fill="#F2B564" d="M10.999,20.893c-0.031,0.025-0.079,0.078-0.089,0.072c-0.094-0.062-0.017-0.096,0.028-0.134
			C10.959,20.851,10.979,20.872,10.999,20.893z"/>
		<path fill="#F2B564" d="M37.378,20.866c-0.019,0.022-0.037,0.044-0.056,0.067c0.003-0.013,0.003-0.031,0.011-0.037
			c0.016-0.011,0.036-0.014,0.055-0.02C37.388,20.876,37.378,20.866,37.378,20.866z"/>
		<path fill="#FEFDFC" d="M48.157,22.113c-0.017-0.028-0.035-0.055-0.052-0.083c0.038-0.005,0.076-0.015,0.113-0.013
			c0.015,0.001,0.027,0.031,0.041,0.048C48.225,22.081,48.191,22.097,48.157,22.113z"/>
		<path fill="#FEFDFC" d="M16.486,25.274c0.029-0.061,0.003-0.203,0.113-0.151c0.075,0.035,0.024,0.149-0.048,0.209
			C16.53,25.313,16.508,25.293,16.486,25.274z"/>
		<path fill="#FEFDFC" d="M29.812,40.196c0.1,0.074,0.122,0.179,0.118,0.294c0,0-0.03,0.027-0.03,0.027
			c-0.124-0.038-0.148-0.143-0.167-0.251C29.759,40.243,29.785,40.22,29.812,40.196z"/>
		<path fill="#FEFDFC" d="M29.733,40.267c-0.066-0.084-0.158-0.163-0.044-0.276c0.041,0.069,0.081,0.137,0.122,0.205
			C29.785,40.22,29.759,40.243,29.733,40.267z"/>
		<path fill="#FEFDFC" d="M34.344,40.082c0.071,0.181,0.004,0.317-0.142,0.425C34.16,40.336,34.148,40.174,34.344,40.082z"/>
	</g>
</g>
</svg>
