<?xml version="1.0" encoding="iso-8859-1"?>
<!-- Generator: Adobe Illustrator 16.0.0, SVG Export Plug-In . SVG Version: 6.00 Build 0)  -->
<!DOCTYPE svg PUBLIC "-//W3C//DTD SVG 1.1//EN" "http://www.w3.org/Graphics/SVG/1.1/DTD/svg11.dtd">
<svg version="1.1" id="Layer_1" xmlns="http://www.w3.org/2000/svg" xmlns:xlink="http://www.w3.org/1999/xlink" x="0px" y="0px"
	 width="64px" height="64px" viewBox="0 0 64 64" style="enable-background:new 0 0 64 64;" xml:space="preserve">
<g>
	<path style="fill-rule:evenodd;clip-rule:evenodd;fill:#FFFFFF;" d="M51.148,48.771c0.037,0.015,0.074,0.028,0.111,0.043
		c0.387-0.403,0.793-0.79,1.156-1.215c1.467-1.714,2.479-3.69,3.268-5.785c1.145-3.047,1.742-6.203,1.84-9.454
		c0.107-3.498-0.385-6.886-1.84-10.104c-1.531-3.385-3.559-6.417-6.26-8.984c-2.713-2.578-5.896-4.347-9.436-5.506
		c-1.555-0.509-3.141-0.879-4.783-1.108c0,16.94,0,33.865,0,50.798c0.092-0.008,0.154-0.005,0.215-0.019
		c1.4-0.308,2.799-0.624,4.201-0.922c0.299-0.064,0.381-0.2,0.381-0.504c-0.008-14.227-0.008-28.454-0.008-42.681
		c0-0.131,0-0.262,0-0.433c0.305,0.145,0.572,0.254,0.824,0.396c0.678,0.381,1.352,0.771,2.023,1.164
		c0.264,0.155,0.344,0.387,0.344,0.704c-0.01,13.122-0.008,26.246-0.008,39.368c0,0.134,0,0.268,0,0.398
		c0.045,0.007,0.068,0.017,0.084,0.011c0.08-0.027,0.156-0.058,0.234-0.089c1.551-0.646,2.945-1.54,4.209-2.645
		c0.207-0.182,0.285-0.364,0.285-0.638c-0.006-10.748-0.006-21.496-0.006-32.244c0-0.13,0-0.261,0-0.391
		c0.033-0.02,0.068-0.039,0.102-0.059c0.025,0.056,0.045,0.117,0.08,0.166c0.424,0.567,0.9,1.101,1.266,1.702
		c3.682,6.071,4.352,12.442,1.852,19.117c-0.053,0.143-0.096,0.3-0.098,0.45c-0.018,2.093-0.027,4.186-0.037,6.279
		C51.146,47.316,51.148,48.044,51.148,48.771z M28.785,27.265c-2.85,0-5.66,0.008-8.473-0.002c-2.816-0.011-5.633-0.038-8.496-0.059
		c0.979-3.802,2.701-7.075,5.422-9.793c1.928-1.927,4.174-3.374,6.752-4.444c0,3.206,0,6.343,0,9.479c1.621,0,3.199,0,4.787,0
		c0-5.271,0-10.522,0-15.828c-7.326,1.174-13.365,4.466-17.697,10.553c-3.156,4.434-4.609,9.441-4.697,14.888
		c5.895,0.073,11.734-0.121,17.576,0.093c0,6.363,0,12.696,0,19.078c-4.494-2.065-8.078-5.03-10.277-9.583c1.873,0,3.678,0,5.484,0
		c0-1.617,0-3.201,0-4.778c-4.113,0-8.199,0-12.307,0c0.02,0.108,0.027,0.189,0.047,0.269c0.541,2.241,1.285,4.412,2.295,6.486
		c2.014,4.131,4.889,7.495,8.82,9.921c2.654,1.638,5.518,2.761,8.545,3.473c0.727,0.171,1.461,0.308,2.219,0.466
		C28.785,47.387,28.785,37.342,28.785,27.265z"/>
	<path style="fill-rule:evenodd;clip-rule:evenodd;fill:#FFFFFF;" d="M0.002,30.395c0.061-0.61,0.119-1.22,0.18-1.83
		c0.438-4.4,1.742-8.524,3.963-12.352c2.852-4.92,6.709-8.862,11.586-11.788c3.383-2.028,7.027-3.348,10.924-3.981
		c2.281-0.371,4.574-0.512,6.879-0.414c5.473,0.231,10.527,1.811,15.143,4.775c1.756,1.127,3.465,2.322,5.008,3.722
		c1.711,1.55,3.199,3.309,4.533,5.193c2.895,4.092,4.689,8.624,5.412,13.581c1.164,7.971-0.414,15.338-4.787,22.126
		c-2.932,4.55-6.793,8.074-11.479,10.712c-3.148,1.771-6.543,2.868-10.107,3.441c-0.674,0.108-1.354,0.192-2.057,0.291
		c0-1.626,0-3.204,0-4.805c8.68-1.303,15.496-5.529,20.078-13.079c3.166-5.216,4.318-10.937,3.617-16.996
		c-1.389-12.01-9.947-22.617-25.209-24.008C33.459,24.652,33.658,44.317,33.592,64c-1.08,0-2.127,0-3.205,0
		c0-19.669,0-39.327,0-59.042c-0.732,0.091-1.432,0.159-2.125,0.267c-3.41,0.526-6.66,1.547-9.699,3.195
		c-4.367,2.367-7.705,5.771-10.129,10.087c-1.811,3.224-2.93,6.682-3.354,10.351c-0.73,6.321,0.477,12.251,3.916,17.62
		c3.361,5.248,7.934,9.072,13.879,11.144c1.844,0.643,3.729,1.102,5.656,1.392c0.156,0.023,0.275,0.032,0.273,0.245
		c-0.006,1.489-0.004,2.979-0.004,4.469c-0.002,0.029-0.018,0.058-0.041,0.135c-0.58-0.076-1.166-0.141-1.748-0.231
		c-2.557-0.399-5.045-1.062-7.436-2.06c-3.229-1.347-6.139-3.201-8.752-5.521c-3.676-3.266-6.5-7.149-8.406-11.688
		c-1.371-3.262-2.129-6.67-2.361-10.197c-0.008-0.111-0.035-0.222-0.055-0.332C0.002,32.686,0.002,31.54,0.002,30.395z"/>
</g>
</svg>
