<?xml version="1.0" encoding="utf-8"?>
<!-- Generator: Adobe Illustrator 22.0.0, SVG Export Plug-In . SVG Version: 6.00 Build 0)  -->
<svg version="1.1" id="Camada_1" xmlns="http://www.w3.org/2000/svg" xmlns:xlink="http://www.w3.org/1999/xlink" x="0px" y="0px"
	 width="64px" height="64px" viewBox="0 0 64 64" style="enable-background:new 0 0 64 64;" xml:space="preserve">
<g>
	<g>
		<path style="fill:#040404;" d="M63.868,18.509c-0.108,0.077-0.073,0.201-0.083,0.301c-0.198,1.956-0.387,3.914-0.579,5.871
			c-0.194,1.975-0.388,3.951-0.583,5.926c-0.176,1.781-0.354,3.563-0.53,5.344c-0.133,1.347-0.265,2.695-0.401,4.073
			c-0.466-0.261-0.912-0.516-1.362-0.763c-2.418-1.323-4.927-2.442-7.511-3.397c-0.148-0.055-0.243-0.036-0.368,0.068
			c-0.272,0.228-0.424,0.485-0.499,0.848c-0.31,1.509-0.83,2.941-1.743,4.204c-1.1,1.522-2.606,2.357-4.448,2.618
			c-0.441,0.063-0.883,0.115-1.329,0.127c-0.093,0.003-0.183-0.016-0.149,0.145c0.566,2.73-0.241,5.186-1.528,7.54
			c-0.468,0.857-1.033,1.651-1.666,2.394c-0.098,0.115-0.109,0.195-0.044,0.338c1.268,2.768-0.037,5.965-2.882,7.055
			c-0.2,0.077-0.341,0.184-0.469,0.357c-0.962,1.302-2.303,1.969-3.856,2.279c-0.303,0.061-0.617,0.056-0.911,0.163
			c-0.613,0-1.226,0-1.84,0c-0.386-0.072-0.775-0.133-1.158-0.218c-1.529-0.339-2.825-1.053-3.729-2.374
			c-0.085-0.124-0.211-0.145-0.328-0.19c-0.99-0.382-1.879-0.917-2.457-1.83c-1.048-1.656-1.214-3.411-0.463-5.233
			c0.063-0.152,0.053-0.237-0.051-0.362c-1.543-1.852-2.663-3.922-3.165-6.296c-0.248-1.173-0.309-2.354-0.034-3.534
			c0.04-0.173,0.02-0.233-0.184-0.242c-1.052-0.047-2.087-0.192-3.069-0.602c-1.511-0.631-2.557-1.748-3.301-3.172
			c-0.557-1.067-0.943-2.197-1.141-3.384c-0.064-0.384-0.386-0.521-0.611-0.751c-0.083-0.085-0.196,0.013-0.286,0.046
			c-2.777,1.026-5.464,2.249-8.052,3.688c-0.177,0.098-0.354,0.196-0.571,0.316c0-2.535,0-5.036,0-7.538c0-2.498,0-4.995,0-7.537
			C1.7,25.228,0.938,25.653,0.139,26.1c0-0.134,0-0.232,0-0.33c0-2.49,0.005-4.98-0.007-7.469c-0.001-0.262,0.092-0.389,0.305-0.514
			c2.706-1.594,5.551-2.894,8.482-4.011c3.836-1.463,7.766-2.607,11.796-3.394c2.791-0.545,5.604-0.914,8.454-0.898
			c0.955,0.005,1.913,0.053,2.813,0.436c0.899,0.382,1.588,1.011,2.104,1.775c0.226-0.203,0.459-0.407,0.686-0.617
			c0.552-0.512,1.192-0.879,1.894-1.139c0.107-0.039,0.202-0.074,0.266-0.18c0.33-0.547,0.666-1.09,1.025-1.675
			c-0.303-0.033-0.581-0.068-0.86-0.093c-2.341-0.211-4.686-0.287-7.035-0.219c-0.454,0.013-0.908,0.044-1.361,0.074
			c-0.392,0.026-0.392,0.031-0.412-0.408c-0.904,0.855-1.953,1.299-3.173,1.276c-1.217-0.023-2.246-0.494-3.151-1.429
			c0,0.414-0.012,0.759,0.005,1.102c0.009,0.191-0.039,0.268-0.241,0.306c-2.678,0.517-5.319,1.185-7.908,2.046
			c-0.155,0.051-0.21,0.049-0.206-0.136c0.01-0.539-0.025-1.08,0.012-1.616c0.035-0.509,0.24-0.988,0.367-1.481
			c0.165-0.644,0.348-1.284,0.536-1.975c-0.279,0.083-0.519,0.155-0.78,0.232c0-0.852,0.005-1.678-0.004-2.504
			c-0.002-0.156,0.107-0.155,0.193-0.181c1.012-0.304,2.025-0.601,3.037-0.906c0.701-0.211,1.395-0.446,2.1-0.643
			c0.66-0.185,1.319-0.191,1.953,0.128c0.186,0.093,0.334,0.232,0.503,0.38c0.28-0.413,0.602-0.78,0.99-1.083
			c0.66-0.514,1.412-0.806,2.242-0.898C24.813,0.05,24.88,0.079,24.9,0c0.186,0,0.372,0,0.557,0c0.021,0.079,0.086,0.05,0.136,0.055
			c0.774,0.073,1.48,0.331,2.113,0.782c0.199,0.141,0.381,0.305,0.594,0.478c0-0.272,0.019-0.514-0.006-0.751
			c-0.023-0.221,0.072-0.261,0.261-0.27c2.598-0.132,5.195-0.136,7.79,0.045c3.125,0.218,6.205,0.731,9.247,1.478
			c0.48,0.118,0.48,0.116,0.506,0.6c0.001,0.011,0.023,0.021,0.044,0.04c0.205-0.094,0.413-0.196,0.643-0.231
			c1.627-0.249,3.219,0.85,3.483,2.475c0.219,1.352,0.159,2.723,0.034,4.082c-0.073,0.792-0.53,1.229-1.306,1.387
			c-0.591,0.12-1.161,0.009-1.717-0.205C46.84,9.796,46.412,9.59,45.947,9.49c-0.087-0.019-0.176-0.07-0.267-0.001
			c-0.44,0.335-0.881,0.668-1.344,1.019c0.089,0.03,0.139,0.051,0.191,0.063c2.879,0.679,5.716,1.501,8.513,2.464
			c2.867,0.988,5.671,2.123,8.355,3.543c0.842,0.446,1.65,0.951,2.474,1.429C63.868,18.174,63.868,18.341,63.868,18.509z
			 M3.769,18.163c-0.032-0.319-0.2-0.591-0.307-0.884c-0.069-0.19-0.14-0.25-0.354-0.135c-0.685,0.37-1.368,0.742-2.045,1.125
			c-0.157,0.089-0.214,0.187-0.213,0.37c0.008,1.978,0.004,3.956,0.006,5.934c0,0.078-0.028,0.164,0.045,0.259
			c0.76-0.424,1.521-0.849,2.328-1.299c0,5.058,0,10.054,0,15.086c2.443-1.322,4.936-2.439,7.52-3.403
			c-0.853-0.843-1.61-1.729-2.253-2.709c-0.378-0.582-0.73-1.179-1.046-1.797c-1.05-2.057-1.696-4.25-2.179-6.497
			c-0.358-1.668-0.598-3.363-1.114-4.996C4.045,18.859,3.986,18.481,3.769,18.163z M60.213,18.174
			c-0.074,0.043-0.077,0.124-0.101,0.192c-0.492,1.427-0.821,2.894-1.091,4.376c-0.288,1.582-0.645,3.149-1.133,4.682
			c-0.699,2.196-1.692,4.244-3.099,6.08c-0.478,0.608-0.999,1.179-1.577,1.738c2.737,1.011,5.337,2.19,7.859,3.591
			c0.022-0.192,0.042-0.348,0.057-0.504c0.175-1.782,0.35-3.564,0.525-5.346c0.197-1.994,0.394-3.989,0.591-5.983
			c0.177-1.791,0.355-3.582,0.533-5.373c0.1-1.006,0.2-2.013,0.3-3.019c0.011-0.11,0.025-0.207-0.108-0.28
			c-0.729-0.404-1.452-0.819-2.176-1.233c-0.086-0.049-0.144-0.066-0.192,0.046C60.458,17.479,60.288,17.808,60.213,18.174z
			 M27.882,29.662c0.437-0.005,0.874-0.01,1.311-0.015c0.925,0.091,1.821,0.289,2.656,0.712c0.096,0.049,0.178,0.071,0.283,0.014
			c0.373-0.204,0.777-0.332,1.175-0.473c0.919-0.254,1.857-0.294,2.802-0.24c0.58,0.098,1.168,0.165,1.732,0.34
			c0.271,0.084,0.536,0.131,0.816,0.091c0.786-0.114,1.544,0.014,2.29,0.256c0.488,0.159,0.907,0.449,1.344,0.705
			c0.096,0.086,0.214,0.157,0.285,0.26c0.325,0.475,0.751,0.468,1.259,0.353c1.132-0.255,2.262-0.506,3.318-1.006
			c1.079-0.446,2.012-1.11,2.81-1.953c1.464-1.548,2.464-3.38,3.184-5.367c0.719-1.985,1.519-3.922,2.915-5.549
			c0.034-0.03,0.07-0.057,0.102-0.089c0.557-0.559,1.176-1.019,1.955-1.226c0.385-0.103,0.777-0.1,1.177-0.106
			c-5.313-2.5-10.887-4.198-16.639-5.477c0.724-0.56,1.424-1.101,2.175-1.682c-0.553-0.111-1.047-0.21-1.541-0.309
			c-0.146-0.088-0.315-0.086-0.474-0.116c-0.932-0.178-1.866-0.345-2.808-0.458c-0.35-0.043-0.701-0.078-1.049-0.133
			c-0.155-0.025-0.228,0.026-0.306,0.156c-0.386,0.644-0.786,1.279-1.176,1.921c-0.091,0.15-0.199,0.239-0.375,0.296
			c-1.145,0.37-2.052,1.054-2.688,2.084c-0.108,0.175-0.224,0.346-0.35,0.541c-0.116-0.232-0.21-0.433-0.316-0.629
			c-0.541-1.001-1.306-1.752-2.413-2.098c-0.662-0.207-1.35-0.242-2.036-0.25c-2.59-0.032-5.149,0.274-7.689,0.741
			c-5.17,0.951-10.168,2.481-15,4.548c-0.633,0.271-1.257,0.561-1.886,0.843c0.678-0.029,1.298,0.118,1.891,0.402
			c0.618,0.378,1.155,0.848,1.617,1.407c0.341,0.412,0.612,0.873,0.928,1.303c0.234,0.462,0.472,0.922,0.701,1.387
			c0.542,1.098,0.876,2.281,1.359,3.402c0.322,0.747,0.654,1.491,1.132,2.157c0.002,0.027-0.004,0.059,0.009,0.08
			c0.654,1.063,1.395,2.055,2.358,2.865c1.404,1.181,3.058,1.81,4.827,2.184c0.29,0.057,0.585,0.097,0.869,0.174
			c0.352,0.096,0.642,0.063,0.864-0.261c0.066-0.096,0.176-0.161,0.267-0.24c0.577-0.497,1.255-0.8,1.971-1.031
			c0.714-0.103,1.429-0.179,2.15-0.067c0.036,0.006,0.076,0.007,0.11-0.003C26.467,29.897,27.172,29.767,27.882,29.662z
			 M32.183,63.279c0.349,0.015,0.867-0.032,1.379-0.126c1.472-0.271,2.757-0.87,3.635-2.145c0.139-0.202,0.293-0.334,0.526-0.416
			c1.433-0.502,2.478-1.397,2.867-2.923c0.313-1.229,0.296-2.43-0.393-3.546c-0.114-0.185-0.109-0.275,0.034-0.435
			c1.396-1.56,2.477-3.306,3.073-5.328c0.503-1.707,0.684-3.42,0.013-5.131c-0.085-0.216,0.072-0.185,0.181-0.189
			c0.649-0.023,1.298-0.038,1.944-0.117c1.865-0.226,3.353-1.062,4.387-2.659c0.72-1.113,1.177-2.337,1.413-3.628
			c0.1-0.546,0.335-0.913,0.739-1.254c1.783-1.509,3.149-3.339,4.151-5.448c0.999-2.102,1.605-4.324,2.046-6.596
			c0.387-1.995,0.759-3.992,1.515-5.891c0.056-0.14,0.002-0.176-0.107-0.216c-0.511-0.188-1.019-0.173-1.523,0.02
			c-0.707,0.271-1.245,0.764-1.716,1.336c-0.956,1.16-1.598,2.498-2.115,3.893c-0.577,1.558-1.181,3.098-2.063,4.517
			c-1.163,1.869-2.629,3.403-4.671,4.315c-1.409,0.63-2.901,0.957-4.416,1.202c-0.216,0.035-0.348-0.011-0.495-0.176
			c-0.999-1.127-2.251-1.685-3.761-1.546c-0.468,0.043-0.892-0.027-1.334-0.143c-1.611-0.422-3.225-0.477-4.763,0.25
			c-0.535,0.253-0.927,0.25-1.463-0.001c-1.606-0.752-3.28-0.664-4.95-0.196c-0.344,0.096-0.674,0.153-1.035,0.093
			c-0.336-0.056-0.685-0.036-1.028,0.004c-1.165,0.134-2.099,0.695-2.86,1.565c-0.119,0.136-0.225,0.192-0.422,0.16
			c-0.852-0.14-1.698-0.305-2.534-0.524c-2.5-0.656-4.529-1.994-6.019-4.126c-0.963-1.377-1.728-2.854-2.289-4.437
			c-0.522-1.472-1.109-2.912-1.995-4.21c-0.485-0.711-1.038-1.359-1.802-1.789c-0.574-0.323-1.174-0.438-1.821-0.24
			c-0.203,0.062-0.256,0.125-0.171,0.341c0.467,1.175,0.795,2.393,1.052,3.63c0.353,1.698,0.639,3.41,1.114,5.082
			c0.665,2.337,1.597,4.545,3.051,6.513c0.822,1.113,1.805,2.068,2.847,2.968c0.166,0.143,0.244,0.301,0.277,0.512
			c0.183,1.163,0.546,2.27,1.082,3.318c0.857,1.676,2.151,2.815,4.024,3.227c0.856,0.188,1.726,0.236,2.6,0.248
			c0.357,0.005,0.36,0.013,0.239,0.337c-0.252,0.677-0.367,1.377-0.371,2.097c-0.008,1.804,0.507,3.474,1.317,5.064
			c0.589,1.155,1.334,2.204,2.201,3.167c0.089,0.099,0.186,0.171,0.081,0.349c-0.953,1.613-0.809,3.23,0.076,4.805
			c0.528,0.938,1.44,1.415,2.419,1.767c0.176,0.063,0.302,0.156,0.403,0.314c0.345,0.539,0.793,0.981,1.331,1.327
			C29.28,63.03,30.613,63.28,32.183,63.279z M31.874,3.861c0.604-0.221,0.695-0.338,0.751-0.928
			c0.032-0.334,0.022-0.668-0.039-0.999c-0.118-0.642-0.51-0.985-1.156-1.041c-0.64-0.055-1.278-0.015-1.917,0.005
			c-0.562,0.018-0.573,0.015-0.558,0.581c0.009,0.318-0.063,0.639,0.092,0.955c0.616,1.249,0.643,2.517,0.049,3.779
			c-0.121,0.258-0.144,0.507-0.149,0.777c-0.004,0.165,0.054,0.204,0.209,0.194c0.407-0.027,0.815-0.051,1.222-0.05
			c0.194,0,0.251-0.05,0.248-0.247c-0.011-0.78-0.007-1.56-0.001-2.34c0.001-0.084-0.069-0.231,0.104-0.23
			c0.127,0,0.274,0.013,0.307,0.179c0.027,0.136,0.048,0.275,0.049,0.413c0.005,0.669,0.007,1.337-0.001,2.006
			c-0.002,0.155,0.036,0.21,0.199,0.205c0.389-0.011,0.778-0.009,1.168-0.001c0.141,0.003,0.196-0.033,0.193-0.185
			c-0.011-0.668-0.02-1.337-0.011-2.006C32.64,4.404,32.443,4.033,31.874,3.861z M20.173,7.903c0.017,0.433,0.233,0.416,0.495,0.338
			c0.168-0.05,0.344-0.082,0.518-0.104c0.123-0.015,0.152-0.072,0.147-0.183c-0.032-0.779,0.131-1.581-0.271-2.317
			c-0.022-0.04-0.022-0.09-0.038-0.133c-0.082-0.215-0.004-0.559-0.178-0.638c-0.18-0.082-0.461,0.053-0.697,0.101
			c-0.747,0.15-0.744,0.151-0.733,0.913c0.002,0.147,0.015,0.239,0.193,0.18c0.076-0.025,0.126-0.006,0.125,0.086
			c-0.004,0.371,0.027,0.744-0.036,1.112c-0.029,0.169-0.126,0.304-0.32,0.281c-0.195-0.024-0.168-0.198-0.169-0.329
			c-0.005-1.161-0.006-2.321-0.005-3.482c0-0.111,0.005-0.224,0.029-0.332c0.031-0.143,0.134-0.23,0.282-0.218
			c0.149,0.012,0.152,0.141,0.154,0.254c0.006,0.278,0.017,0.557,0.008,0.835c-0.005,0.169,0.027,0.238,0.215,0.19
			c0.269-0.07,0.543-0.126,0.817-0.17c0.144-0.023,0.171-0.092,0.177-0.222c0.018-0.382,0.09-0.759,0.235-1.112
			c0.086-0.21,0.034-0.355-0.107-0.499c-0.372-0.381-0.835-0.442-1.336-0.391c-1.07,0.109-1.971,0.856-2.056,1.799
			c-0.116,1.295-0.099,2.596-0.01,3.894c0.033,0.478,0.363,0.832,0.83,0.933C19.169,8.849,19.729,8.583,20.173,7.903z M47.582,6.151
			c0.001,0,0.002,0,0.003,0c0-0.613-0.003-1.226,0.003-1.839c0.001-0.123-0.008-0.289,0.176-0.293
			c0.173-0.003,0.303,0.091,0.329,0.277c0.015,0.11,0.017,0.222,0.018,0.334c0.002,0.362,0.004,0.725-0.001,1.087
			c-0.002,0.113,0.014,0.191,0.142,0.228c0.436,0.128,0.87,0.263,1.303,0.4c0.138,0.044,0.179,0.002,0.174-0.139
			c-0.009-0.26,0.005-0.52-0.004-0.78c-0.051-1.544-1.106-2.599-2.577-2.583c-0.7,0.008-1.15,0.414-1.167,1.111
			c-0.025,1.021-0.032,2.043-0.02,3.064c0.007,0.597,0.065,1.201,0.515,1.66c0.594,0.607,1.332,0.904,2.177,0.897
			c0.58-0.005,0.921-0.33,1.019-0.905c0.064-0.377,0.049-0.758,0.059-1.138c0.004-0.141-0.077-0.171-0.177-0.202
			c-0.417-0.127-0.837-0.244-1.249-0.385c-0.192-0.066-0.195,0.018-0.194,0.163c0.003,0.344-0.004,0.687-0.01,1.031
			c-0.002,0.113-0.006,0.241-0.154,0.255c-0.14,0.013-0.251-0.055-0.31-0.189c-0.046-0.104-0.053-0.216-0.053-0.328
			C47.582,7.302,47.582,6.726,47.582,6.151z M28.876,4.382c0.005-2.032-1.649-3.693-3.676-3.694c-2.026,0-3.686,1.655-3.694,3.683
			c-0.007,2.02,1.66,3.693,3.681,3.693C27.223,8.064,28.872,6.418,28.876,4.382z M36.422,4.119c0,0.975,0.001,1.95-0.002,2.925
			c0,0.14-0.003,0.239,0.19,0.256c0.831,0.073,1.661,0.16,2.491,0.252c0.136,0.015,0.18-0.008,0.176-0.149
			c-0.008-0.306-0.011-0.613,0.001-0.919c0.006-0.143-0.044-0.196-0.181-0.208c-0.277-0.024-0.553-0.063-0.83-0.089
			c-0.127-0.012-0.202-0.044-0.197-0.199c0.011-0.334,0.008-0.669,0.001-1.003C38.07,4.853,38.1,4.801,38.246,4.825
			c0.229,0.038,0.461,0.048,0.691,0.08c0.125,0.018,0.164-0.021,0.161-0.145c-0.007-0.288-0.009-0.576,0.001-0.863
			c0.005-0.142-0.044-0.2-0.186-0.209c-0.213-0.013-0.424-0.047-0.637-0.063c-0.143-0.01-0.215-0.055-0.206-0.218
			c0.014-0.259,0.012-0.52,0.001-0.78c-0.007-0.153,0.045-0.199,0.192-0.176c0.22,0.033,0.445,0.039,0.661,0.087
			c0.213,0.048,0.252-0.032,0.242-0.222c-0.014-0.259-0.016-0.521,0.001-0.78c0.012-0.186-0.042-0.258-0.234-0.275
			c-0.757-0.068-1.515-0.141-2.269-0.234c-0.207-0.025-0.249,0.027-0.247,0.222C36.427,2.206,36.422,3.162,36.422,4.119z
			 M42.74,4.98c0,0.975-0.002,1.951,0.003,2.926c0,0.085-0.062,0.201,0.105,0.236c0.853,0.179,1.705,0.365,2.555,0.554
			c0.127,0.028,0.164-0.008,0.162-0.133c-0.006-0.306-0.011-0.613,0.002-0.919c0.007-0.158-0.06-0.204-0.201-0.232
			c-0.282-0.054-0.559-0.133-0.84-0.193c-0.106-0.023-0.157-0.058-0.154-0.179c0.009-0.343,0.008-0.687,0.001-1.031
			c-0.003-0.147,0.046-0.174,0.181-0.137c0.214,0.059,0.435,0.095,0.65,0.154c0.135,0.037,0.182,0.008,0.178-0.136
			c-0.008-0.288-0.013-0.576,0.002-0.864c0.008-0.153-0.073-0.184-0.188-0.219c-0.27-0.082-0.658-0.015-0.787-0.244
			c-0.124-0.219-0.03-0.561-0.033-0.848c0-0.028,0.003-0.056-0.001-0.084C44.356,3.5,44.411,3.47,44.533,3.501
			c0.243,0.062,0.489,0.108,0.731,0.173c0.152,0.041,0.195-0.004,0.19-0.156c-0.009-0.297-0.012-0.595,0.001-0.891
			c0.007-0.157-0.059-0.204-0.2-0.234c-0.763-0.159-1.525-0.321-2.284-0.495c-0.213-0.049-0.237,0.024-0.235,0.213
			C42.745,3.067,42.74,4.024,42.74,4.98z M34.805,5.897c0.325-0.983,0.612-1.961,0.976-2.91c0.232-0.605,0.23-1.212,0.232-1.832
			c0-0.128-0.039-0.183-0.172-0.189c-0.843-0.034-1.687-0.071-2.53-0.111c-0.133-0.006-0.206,0.019-0.201,0.179
			c0.011,0.306,0.01,0.613,0,0.919c-0.005,0.143,0.054,0.166,0.179,0.169c0.303,0.006,0.606,0.027,0.93,0.043
			c-0.369,1.19-0.719,2.361-1.1,3.521c-0.134,0.408-0.165,0.813-0.158,1.232c0.002,0.132,0.021,0.198,0.18,0.201
			c0.9,0.014,1.799,0.048,2.696,0.12c0.134,0.011,0.179-0.033,0.175-0.169C36.006,6.775,36,6.477,36.016,6.18
			c0.009-0.18-0.062-0.215-0.223-0.219C35.471,5.952,35.15,5.921,34.805,5.897z M17.169,2.775c-0.87,0.26-1.729,0.522-2.592,0.772
			c-0.148,0.043-0.184,0.118-0.179,0.258c0.009,0.288,0.01,0.576,0,0.863c-0.006,0.17,0.038,0.207,0.205,0.152
			c0.274-0.091,0.546-0.201,0.858-0.246c-0.303,1.113-0.599,2.194-0.891,3.276c-0.161,0.598-0.371,1.185-0.317,1.824
			c0.015,0.186,0.04,0.242,0.23,0.178c0.843-0.285,1.699-0.529,2.558-0.759c0.117-0.031,0.172-0.07,0.169-0.201
			c-0.008-0.361-0.003-0.723-0.003-1.115c-0.391,0.105-0.761,0.204-1.155,0.31C16.069,8,16.078,7.939,16.095,7.88
			c0.249-0.854,0.488-1.712,0.751-2.561C17.1,4.499,17.326,3.681,17.169,2.775z M39.729,4.517c0,0.947,0.01,1.894-0.007,2.841
			c-0.004,0.233,0.075,0.291,0.285,0.318c0.57,0.074,1.137,0.172,1.706,0.257c0.209,0.031,0.474,0.179,0.61,0.067
			C42.46,7.888,42.363,7.6,42.365,7.39c0.006-0.6,0.002-0.6-0.575-0.709c-0.046-0.009-0.091-0.031-0.136-0.029
			c-0.238,0.011-0.279-0.111-0.278-0.326c0.009-1.495,0.002-2.99,0.009-4.484c0.001-0.173-0.047-0.247-0.22-0.268
			c-0.396-0.049-0.791-0.104-1.183-0.177C39.776,1.358,39.72,1.4,39.723,1.62C39.737,2.586,39.729,3.552,39.729,4.517z"/>
		<path style="fill:#FBFBFB;" d="M32.183,63.279c-1.571,0.001-2.903-0.25-4.101-1.019c-0.538-0.346-0.986-0.788-1.331-1.327
			c-0.101-0.158-0.227-0.251-0.403-0.314c-0.979-0.351-1.891-0.828-2.419-1.767c-0.885-1.575-1.029-3.192-0.076-4.805
			c0.105-0.178,0.009-0.25-0.081-0.349c-0.866-0.964-1.612-2.012-2.201-3.167c-0.81-1.59-1.325-3.259-1.317-5.064
			c0.003-0.72,0.119-1.421,0.371-2.097c0.121-0.324,0.118-0.332-0.239-0.337c-0.874-0.012-1.744-0.059-2.6-0.248
			c-1.873-0.412-3.167-1.551-4.024-3.227c-0.536-1.048-0.899-2.155-1.082-3.318c-0.033-0.212-0.111-0.369-0.277-0.512
			c-1.042-0.899-2.025-1.854-2.847-2.968c-1.453-1.968-2.386-4.177-3.051-6.513c-0.476-1.671-0.761-3.384-1.114-5.082
			c-0.257-1.236-0.585-2.454-1.052-3.63c-0.086-0.216-0.033-0.279,0.171-0.341c0.647-0.197,1.247-0.082,1.821,0.24
			c0.765,0.43,1.317,1.077,1.802,1.789c0.886,1.298,1.473,2.739,1.995,4.21c0.561,1.583,1.327,3.059,2.289,4.437
			c1.49,2.133,3.519,3.471,6.019,4.126c0.835,0.219,1.682,0.383,2.534,0.524c0.197,0.032,0.302-0.023,0.422-0.16
			c0.761-0.87,1.694-1.43,2.86-1.565c0.343-0.04,0.691-0.06,1.028-0.004c0.362,0.061,0.691,0.004,1.035-0.093
			c1.67-0.468,3.344-0.556,4.95,0.196c0.537,0.252,0.928,0.254,1.463,0.001c1.537-0.727,3.151-0.672,4.763-0.25
			c0.442,0.116,0.867,0.186,1.334,0.143c1.511-0.139,2.762,0.419,3.761,1.546c0.146,0.165,0.278,0.211,0.495,0.176
			c1.515-0.245,3.007-0.572,4.416-1.202c2.042-0.913,3.508-2.446,4.671-4.315c0.883-1.419,1.486-2.959,2.063-4.517
			c0.516-1.395,1.159-2.733,2.115-3.893c0.471-0.572,1.009-1.065,1.716-1.336c0.504-0.193,1.012-0.208,1.523-0.02
			c0.109,0.04,0.163,0.076,0.107,0.216c-0.756,1.899-1.127,3.896-1.515,5.891c-0.441,2.272-1.047,4.494-2.046,6.596
			c-1.002,2.109-2.368,3.939-4.151,5.448c-0.404,0.342-0.639,0.708-0.739,1.254c-0.236,1.29-0.693,2.515-1.413,3.628
			c-1.033,1.597-2.522,2.432-4.387,2.659c-0.647,0.079-1.295,0.094-1.944,0.117c-0.109,0.004-0.265-0.027-0.181,0.189
			c0.672,1.711,0.49,3.423-0.013,5.131c-0.595,2.022-1.677,3.768-3.073,5.328c-0.143,0.16-0.148,0.25-0.034,0.435
			c0.688,1.115,0.706,2.317,0.393,3.546c-0.388,1.526-1.433,2.421-2.867,2.923c-0.233,0.082-0.387,0.214-0.526,0.416
			c-0.878,1.275-2.163,1.874-3.635,2.145C33.051,63.248,32.533,63.294,32.183,63.279z M13.974,37.462
			c-0.009-0.013-0.019-0.026-0.028-0.038c-0.003,0.023-0.006,0.045-0.009,0.068c0.127,0.317,0.243,0.64,0.384,0.951
			c0.764,1.694,1.938,2.928,3.85,3.223c1.248,0.192,0.966,0.367,1.5-0.782c0.023-0.05,0.037-0.106,0.064-0.154
			c0.068-0.119,0.006-0.164-0.099-0.196c-0.443-0.136-0.886-0.264-1.345-0.339c-0.674-0.11-1.347-0.078-2.088,0.046
			c0.502-0.599,1.133-0.699,1.861-0.739c-0.763-0.326-1.445-0.637-2.108-0.984C15.292,38.171,14.634,37.814,13.974,37.462z
			 M50.997,33.575c0.166-0.109,0.246,0.05,0.334,0.126c0.137,0.119,0.199,0.296,0.271,0.55c0.316-0.336,0.583-0.619,0.848-0.903
			c1.735-1.856,2.804-4.079,3.563-6.472c0.587-1.849,0.976-3.749,1.448-5.628c0.18-0.715,0.386-1.423,0.617-2.161
			c-0.309,0.068-0.53,0.211-0.734,0.386c-0.451,0.387-0.767,0.879-1.056,1.388c-0.721,1.268-1.252,2.625-1.848,3.951
			c-0.62,1.378-1.249,2.753-2.139,3.986c-1.616,2.241-3.829,3.595-6.465,4.309c-1.31,0.355-2.644,0.578-3.991,0.727
			c-0.203,0.022-0.249,0.097-0.217,0.279c0.059,0.338,0.098,0.68,0.164,1.016c0.211,1.075,0.588,2.085,1.226,2.985
			c0.049,0.069,0.078,0.203,0.192,0.17c0.415-0.121,0.873-0.127,1.234-0.398c0.677-0.509,1.042-1.184,1.032-2.044l-0.005,0.007
			c0.208,0.035,0.289,0.211,0.381,0.363c0.226,0.371,0.281,0.776,0.171,1.232c0.571-0.205,1.096-0.428,1.615-0.667
			c0.162-0.075,0.31-0.164,0.434-0.294c0.485-0.511,0.73-1.101,0.586-1.855c0.511,0.302,0.599,0.765,0.595,1.312
			c0.419-0.286,0.797-0.551,1.181-0.805c0.404-0.267,0.574-0.668,0.643-1.12c0.022-0.145,0.054-0.312-0.077-0.439L50.997,33.575z
			 M12.915,33.562l-0.005-0.007c-0.08,0.791,0.228,1.38,0.913,1.783c0.247,0.145,0.479,0.318,0.722,0.471
			c0.061,0.038,0.117,0.122,0.212,0.077c-0.026-0.498,0.089-0.925,0.553-1.243c-0.115,0.843,0.141,1.522,0.779,1.979
			c0.556,0.397,1.23,0.59,1.888,0.835c-0.123-0.771,0.105-1.409,0.563-1.6c-0.017,0.235-0.022,0.464,0.05,0.688
			c0.313,0.972,0.952,1.55,1.978,1.71c0.221,0.035,0.327,0.005,0.449-0.174c0.84-1.228,1.199-2.614,1.368-4.067
			c0.02-0.175-0.083-0.162-0.2-0.177c-1.334-0.168-2.662-0.37-3.962-0.723c-2.019-0.547-3.836-1.457-5.344-2.94
			c-1.238-1.218-2.07-2.698-2.806-4.245c-0.711-1.495-1.306-3.044-2.062-4.518c-0.348-0.678-0.718-1.343-1.279-1.875
			c-0.226-0.214-0.477-0.387-0.828-0.449c0.248,0.783,0.465,1.538,0.653,2.299c0.492,1.985,0.905,3.991,1.558,5.934
			c0.731,2.173,1.741,4.189,3.296,5.9c0.308,0.339,0.621,0.674,0.988,0.97C12.526,33.921,12.594,33.636,12.915,33.562z
			 M32.022,36.069c-0.014,0-0.027,0-0.041,0.001c-0.017-0.193-0.035-0.386-0.051-0.579c-0.079-0.971-0.142-1.946-0.496-2.868
			c-0.145-0.378-0.334-0.733-0.736-0.9c-1.112-0.461-2.206-0.38-3.291,0.114c0.514,0.816,0.735,1.487,0.626,1.89
			c-0.122-0.183-0.242-0.37-0.369-0.552c-0.618-0.884-1.456-1.255-2.529-1.083c-0.81,0.13-1.125,0.489-1.125,1.314
			c0,0.391-0.033,0.779-0.094,1.164c-0.272,1.717-0.924,3.296-1.761,4.806c-0.296,0.533-0.631,1.042-0.971,1.556
			c0.349,0.111,0.672,0.214,0.996,0.316c0.194,0.061,0.251,0.124,0.084,0.312c-0.653,0.74-1.062,1.602-1.222,2.58
			c-0.217,1.322,0.027,2.587,0.471,3.825c0.606,1.691,1.565,3.19,2.551,4.674c0.103,0.155,0.165,0.075,0.257,0.012
			c0.639-0.434,1.302-0.819,2.067-0.989c0.007,0.007,0.013,0.013,0.02,0.02c-0.238,0.188-0.487,0.364-0.711,0.567
			c-1.268,1.151-1.992,2.542-1.745,4.296c0.294,2.083,2.136,3.556,4.123,2.972c1.288-0.379,2.642-0.505,3.994-0.496
			c1.333,0.009,2.645,0.202,3.939,0.503c0.684,0.16,1.339,0.162,1.986-0.118c1.449-0.627,2.349-2.446,2.051-4.135
			c-0.276-1.569-1.176-2.704-2.471-3.573c0.115-0.048,0.215,0.002,0.316,0.034c0.651,0.208,1.241,0.536,1.796,0.929
			c0.114,0.081,0.171,0.094,0.261-0.034c0.618-0.88,1.256-1.748,1.776-2.692c0.86-1.56,1.276-3.211,1.04-5.001
			c-0.157-1.192-0.553-2.303-1.084-3.372c-0.083-0.167-0.065-0.254,0.11-0.309c0.274-0.085,0.545-0.186,0.823-0.252
			c0.181-0.042,0.212-0.079,0.097-0.241c-0.356-0.498-0.674-1.022-0.963-1.561c-1.015-1.892-1.756-3.865-1.778-6.051
			c-0.005-0.498-0.272-0.847-0.759-0.98c-1.033-0.283-2.026-0.105-2.76,0.856c-0.171,0.224-0.326,0.46-0.5,0.707
			c-0.052-0.531,0.126-1.054,0.626-1.875c-0.542-0.34-1.559-0.496-2.315-0.411c-1.007,0.112-1.615,0.617-1.855,1.621
			C32.168,34.057,32.11,35.064,32.022,36.069z M47.786,40.228c-0.067,0.006-0.094,0.015-0.118,0.01
			c-1.007-0.206-1.992-0.097-2.965,0.2c-0.507,0.154-0.523,0.161-0.287,0.639c0.415,0.841,0.186,0.742,1.114,0.632
			c2.173-0.259,4.079-2.062,4.504-4.267c-1.304,0.749-2.617,1.441-4.055,2.048C46.705,39.54,47.326,39.652,47.786,40.228z
			 M34.537,60.238c-1.701,0.04-3.385,0.039-5.073,0C30.47,61.428,33.553,61.426,34.537,60.238z"/>
		<path style="fill:#FCFCFC;" d="M12.352,26.402c-0.478-0.666-0.81-1.41-1.132-2.157c-0.483-1.122-0.817-2.304-1.359-3.402
			c-0.229-0.465-0.467-0.925-0.701-1.387c0.527-0.202,1.051-0.412,1.582-0.603c0.161-0.058,0.203-0.141,0.202-0.303
			c-0.006-1.113-0.007-2.225,0-3.338c0.001-0.189-0.025-0.242-0.228-0.166c-1.386,0.521-2.756,1.078-4.1,1.699
			c-0.593-0.285-1.213-0.432-1.891-0.402c0.628-0.281,1.253-0.572,1.886-0.843c4.833-2.068,9.83-3.598,15-4.548
			c2.54-0.467,5.1-0.773,7.689-0.741c0.687,0.009,1.375,0.043,2.036,0.25c1.108,0.346,1.872,1.097,2.413,2.098
			c0.106,0.195,0.2,0.397,0.316,0.629c0.126-0.194,0.242-0.365,0.35-0.541c0.636-1.03,1.544-1.714,2.688-2.084
			c0.175-0.057,0.284-0.146,0.375-0.296c0.389-0.642,0.79-1.277,1.176-1.921c0.078-0.13,0.151-0.181,0.306-0.156
			c0.348,0.055,0.699,0.09,1.049,0.133c-0.486,0.802-0.971,1.603-1.471,2.429c0.711-0.013,1.367,0.027,2.006,0.212
			c0.126,0.037,0.191-0.036,0.269-0.096c0.351-0.274,0.705-0.545,1.05-0.826c0.473-0.385,0.986-0.72,1.428-1.143
			c0.494,0.099,0.988,0.198,1.541,0.309c-0.752,0.581-1.452,1.123-2.175,1.682c5.752,1.28,11.326,2.977,16.639,5.477
			c-0.401,0.005-0.792,0.003-1.177,0.106c-0.779,0.208-1.398,0.667-1.955,1.226c-0.032,0.032-0.068,0.06-0.102,0.089
			c-0.037-0.462-0.085-0.924-0.106-1.388c-0.009-0.194-0.074-0.29-0.256-0.366c-1.266-0.528-2.549-1.013-3.842-1.473
			c-0.234-0.083-0.288-0.044-0.309,0.204c-0.125,1.433-0.268,2.864-0.407,4.295c-0.179,1.847-0.356,3.694-0.544,5.54
			c-0.054,0.532-0.073,1.069-0.19,1.593c-0.082-1.043-0.15-2.086-0.221-3.128c-0.141-2.064-0.285-4.128-0.426-6.192
			c-0.063-0.926-0.121-1.852-0.188-2.777c-0.008-0.116,0.03-0.265-0.15-0.317c-1.273-0.37-2.553-0.713-3.845-1.01
			c-0.137-0.031-0.198-0.023-0.179,0.158c0.116,1.089,0.216,2.179,0.324,3.269c0.176,1.773,0.354,3.546,0.53,5.319
			c0.16,1.607,0.319,3.213,0.477,4.82c0.142,1.441,0.282,2.881,0.424,4.322c-1.057,0.499-2.186,0.75-3.318,1.006
			c-0.508,0.115-0.934,0.122-1.259-0.353c-0.071-0.103-0.189-0.174-0.285-0.26c1.044-0.406,1.729-1.151,2.088-2.205
			c0.179-0.524,0.229-1.068,0.255-1.616c0.119-2.524,0.056-5.05,0.064-7.575c0.003-1.057-0.006-2.116-0.121-3.169
			c-0.151-1.378-0.709-2.574-1.717-3.526c-1.168-1.102-2.602-1.556-4.183-1.497c-1.959,0.072-3.312,1.168-3.826,3.026
			c-0.185,0.668-0.207,1.357-0.22,2.042c-0.06,3.063-0.066,6.126,0.009,9.19c0.037,1.492,0.42,2.835,1.47,3.939
			c-0.946-0.054-1.883-0.014-2.802,0.24c-0.003-0.121-0.009-0.241-0.01-0.362c-0.017-2.172,0.041-4.345-0.042-6.517
			c-0.05-1.327-0.673-2.163-1.929-2.593c-0.104-0.036-0.208-0.069-0.356-0.118c0.152-0.032,0.26-0.055,0.368-0.077
			c1.114-0.221,1.617-0.739,1.814-1.854c0.145-0.818,0.166-1.644,0.138-2.469c-0.029-0.844-0.098-1.69-0.42-2.484
			c-0.395-0.971-1.044-1.682-2.109-1.922c-0.362-0.082-0.734-0.11-1.105-0.123c-1.947-0.067-3.871,0.172-5.797,0.409
			c-0.327,0.04-0.371,0.157-0.371,0.444c0.008,5.86,0.006,11.72,0.007,17.58c0,0.12,0.015,0.239,0.022,0.359
			c-0.716,0.232-1.394,0.534-1.971,1.031c-0.091,0.078-0.201,0.144-0.267,0.24c-0.223,0.324-0.512,0.357-0.864,0.261
			c-0.284-0.078-0.579-0.118-0.869-0.174c0.047-0.084,0.131-0.125,0.205-0.178c1.15-0.824,1.887-1.936,2.219-3.299
			c0.209-0.86,0.175-1.753,0.184-2.633c0.017-1.728,0.005-3.456,0.005-5.184c0-2.648-0.002-5.295,0.004-7.943
			c0.001-0.211-0.031-0.257-0.258-0.216c-1.269,0.228-2.529,0.5-3.786,0.786c-0.256,0.058-0.306,0.159-0.306,0.402
			c0.008,4.171,0.006,8.343,0.005,12.514c0,0.65,0.003,1.3-0.015,1.95c-0.01,0.36-0.007,0.726-0.136,1.072
			c-0.105,0.282-0.41,0.492-0.667,0.45c-0.319-0.052-0.328-0.323-0.348-0.559c-0.034-0.397-0.058-0.797-0.058-1.195
			c-0.004-4.626-0.002-9.253-0.002-13.879c0-0.111,0-0.221,0-0.346c-0.064,0.013-0.109,0.02-0.153,0.031
			c-1.297,0.351-2.581,0.748-3.854,1.179c-0.196,0.066-0.246,0.157-0.246,0.352c0.007,2.165,0.003,4.329,0.005,6.494
			C12.346,23.021,12.35,24.712,12.352,26.402z"/>
		<path style="fill:#29903C;" d="M23.518,30.173c-0.008-0.12-0.022-0.239-0.022-0.359c-0.001-5.86,0.001-11.72-0.007-17.58
			c0-0.287,0.044-0.403,0.371-0.444c1.926-0.237,3.85-0.476,5.797-0.409c0.371,0.013,0.743,0.041,1.105,0.123
			c1.064,0.24,1.714,0.95,2.109,1.922c0.323,0.794,0.391,1.639,0.42,2.484c0.028,0.826,0.007,1.651-0.138,2.469
			c-0.197,1.115-0.701,1.633-1.814,1.854c-0.108,0.021-0.216,0.045-0.368,0.077c0.147,0.049,0.252,0.082,0.356,0.118
			c1.255,0.431,1.879,1.266,1.929,2.593c0.082,2.172,0.024,4.345,0.042,6.517c0.001,0.121,0.007,0.241,0.01,0.362
			c-0.399,0.141-0.803,0.269-1.175,0.473c-0.105,0.058-0.188,0.035-0.283-0.014c-0.835-0.424-1.731-0.621-2.656-0.712
			c0.001-2.033,0.006-4.067,0.002-6.1c-0.001-0.315-0.026-0.631-0.063-0.943c-0.069-0.597-0.288-0.791-0.883-0.812
			c-0.359-0.013-0.359-0.013-0.359,0.35c-0.002,2.507-0.005,5.014-0.007,7.521c-0.71,0.105-1.415,0.235-2.103,0.441
			c-0.034,0.01-0.074,0.009-0.11,0.003C24.947,29.994,24.232,30.07,23.518,30.173z M27.889,16.697c0,0.631-0.002,1.262,0.003,1.892
			c0.001,0.077-0.06,0.191,0.086,0.222c0.513,0.109,1.08-0.285,1.157-0.821c0.115-0.803,0.092-1.612,0.039-2.415
			c-0.047-0.719-0.353-0.946-1.072-0.938c-0.175,0.002-0.219,0.057-0.217,0.224C27.894,15.472,27.889,16.084,27.889,16.697z"/>
		<path style="fill:#29903B;" d="M36.109,29.659c-1.05-1.104-1.433-2.446-1.47-3.939c-0.075-3.063-0.069-6.126-0.009-9.19
			c0.013-0.685,0.035-1.374,0.22-2.042c0.514-1.858,1.866-2.954,3.826-3.026c1.581-0.058,3.016,0.395,4.183,1.497
			c1.008,0.952,1.567,2.148,1.717,3.526c0.115,1.053,0.124,2.112,0.121,3.169c-0.008,2.525,0.055,5.051-0.064,7.575
			c-0.026,0.548-0.076,1.092-0.255,1.616c-0.36,1.054-1.045,1.799-2.088,2.205c-0.437-0.256-0.856-0.547-1.344-0.705
			c-0.746-0.242-1.504-0.371-2.29-0.256c-0.28,0.041-0.546-0.007-0.816-0.091C37.277,29.825,36.689,29.757,36.109,29.659z
			 M39.004,21.303c-0.003,0-0.005,0-0.008,0c0,1.652-0.002,3.305,0.001,4.957c0.001,0.445,0,0.893,0.119,1.326
			c0.081,0.294,0.35,0.462,0.661,0.444c0.258-0.015,0.415-0.17,0.464-0.501c0.044-0.302,0.085-0.608,0.086-0.912
			c0.01-3.434,0.013-6.869,0.012-10.303c0-0.379-0.02-0.762-0.121-1.131c-0.082-0.297-0.358-0.483-0.65-0.463
			c-0.253,0.017-0.429,0.181-0.487,0.492c-0.042,0.227-0.073,0.46-0.074,0.69C39.002,17.702,39.004,19.503,39.004,21.303z"/>
		<path style="fill:#28903B;" d="M12.352,26.402c-0.002-1.691-0.006-3.381-0.007-5.072c-0.001-2.165,0.002-4.329-0.005-6.494
			c-0.001-0.196,0.05-0.286,0.246-0.352c1.273-0.431,2.556-0.828,3.854-1.179c0.044-0.012,0.088-0.018,0.153-0.031
			c0,0.124,0,0.235,0,0.346c0,4.626-0.001,9.253,0.002,13.879c0,0.399,0.024,0.798,0.058,1.195c0.02,0.235,0.029,0.507,0.348,0.559
			c0.257,0.042,0.562-0.168,0.667-0.45c0.129-0.346,0.126-0.712,0.136-1.072c0.018-0.65,0.015-1.3,0.015-1.95
			c0.001-4.171,0.003-8.343-0.005-12.514c0-0.243,0.05-0.343,0.306-0.402c1.257-0.286,2.516-0.559,3.786-0.786
			c0.227-0.041,0.259,0.005,0.258,0.216c-0.006,2.648-0.004,5.295-0.004,7.943c0,1.728,0.012,3.456-0.005,5.184
			c-0.009,0.88,0.026,1.773-0.184,2.633c-0.332,1.363-1.069,2.475-2.219,3.299c-0.074,0.053-0.158,0.094-0.205,0.178
			c-1.77-0.374-3.423-1.003-4.828-2.184c-0.963-0.81-1.704-1.802-2.358-2.865C12.348,26.462,12.355,26.429,12.352,26.402z"/>
		<path style="fill:#29903C;" d="M47.152,30.658c-0.141-1.441-0.282-2.881-0.424-4.322c-0.158-1.607-0.317-3.213-0.477-4.82
			c-0.176-1.773-0.354-3.546-0.53-5.319c-0.108-1.09-0.208-2.18-0.324-3.269c-0.019-0.181,0.043-0.189,0.179-0.158
			c1.292,0.297,2.572,0.64,3.845,1.01c0.18,0.052,0.142,0.201,0.15,0.317c0.067,0.925,0.125,1.852,0.188,2.777
			c0.141,2.064,0.285,4.128,0.426,6.192c0.071,1.042,0.139,2.084,0.221,3.128c0.117-0.525,0.136-1.062,0.19-1.593
			c0.188-1.846,0.365-3.693,0.544-5.54c0.139-1.432,0.282-2.863,0.407-4.295c0.022-0.247,0.076-0.287,0.309-0.204
			c1.293,0.46,2.575,0.945,3.842,1.473c0.182,0.076,0.247,0.172,0.256,0.366c0.021,0.463,0.069,0.925,0.106,1.388
			c-1.396,1.627-2.196,3.564-2.915,5.549c-0.72,1.987-1.721,3.82-3.184,5.367C49.164,29.549,48.232,30.213,47.152,30.658z"/>
		<path style="fill:#29903C;" d="M54.79,33.504c1.407-1.836,2.4-3.884,3.099-6.08c0.488-1.533,0.845-3.1,1.133-4.682
			c0.27-1.482,0.599-2.949,1.091-4.376c0.023-0.068,0.027-0.149,0.101-0.192c0.483,0.256,0.961,0.521,1.452,0.762
			c0.179,0.088,0.203,0.199,0.185,0.375c-0.276,2.733-0.548,5.467-0.817,8.201c-0.305,3.094-0.608,6.189-0.907,9.284
			c-0.021,0.214-0.076,0.237-0.265,0.14c-1.534-0.789-3.096-1.518-4.696-2.163c-0.138-0.056-0.194-0.14-0.215-0.285
			C54.904,34.158,54.884,33.825,54.79,33.504z"/>
		<path style="fill:#29903C;" d="M3.769,18.163c0.217,0.319,0.276,0.697,0.389,1.053c0.517,1.632,0.756,3.327,1.114,4.996
			c0.482,2.248,1.129,4.44,2.179,6.497c0.316,0.619,0.667,1.216,1.046,1.797c-0.055,0.085-0.03,0.181-0.03,0.272
			c-0.002,0.622-0.01,1.245,0.004,1.867c0.004,0.192-0.062,0.274-0.233,0.344c-0.952,0.389-1.888,0.817-2.814,1.265
			c-0.339,0.164-0.677,0.33-1.058,0.516c0-5.063,0-10.079,0-15.145c-0.801,0.425-1.558,0.827-2.315,1.229
			c-0.017-0.034-0.033-0.049-0.033-0.065c-0.003-1.189-0.004-2.378-0.006-3.566c0-0.077,0.006-0.15,0.084-0.191
			C2.654,18.741,3.18,18.391,3.769,18.163z"/>
		<path style="fill:#FCFCFC;" d="M3.769,18.163c-0.589,0.229-1.115,0.578-1.672,0.868c-0.078,0.041-0.084,0.114-0.084,0.191
			c0.002,1.189,0.003,2.378,0.006,3.566c0,0.016,0.015,0.032,0.033,0.065c0.757-0.402,1.514-0.803,2.315-1.229
			c0,5.066,0,10.082,0,15.145c0.381-0.186,0.719-0.352,1.058-0.516c0.926-0.448,1.861-0.876,2.814-1.265
			c0.17-0.07,0.237-0.152,0.233-0.344c-0.014-0.622-0.007-1.244-0.004-1.867c0-0.091-0.025-0.186,0.03-0.272
			c0.644,0.98,1.401,1.866,2.253,2.709c-2.584,0.964-5.077,2.081-7.52,3.403c0-5.031,0-10.027,0-15.086
			c-0.807,0.45-1.568,0.875-2.328,1.299c-0.072-0.095-0.045-0.18-0.045-0.259c-0.002-1.978,0.001-3.956-0.006-5.934
			c-0.001-0.184,0.056-0.282,0.213-0.37c0.677-0.383,1.36-0.756,2.045-1.125c0.213-0.115,0.284-0.055,0.354,0.135
			C3.569,17.572,3.737,17.843,3.769,18.163z"/>
		<path style="fill:#FBFBFB;" d="M54.79,33.504c0.094,0.321,0.114,0.655,0.16,0.983c0.02,0.145,0.076,0.229,0.215,0.285
			c1.6,0.646,3.162,1.374,4.696,2.163c0.189,0.097,0.244,0.074,0.265-0.14c0.299-3.095,0.602-6.19,0.907-9.284
			c0.27-2.734,0.542-5.468,0.817-8.201c0.018-0.176-0.007-0.287-0.185-0.375c-0.49-0.241-0.969-0.507-1.452-0.762
			c0.075-0.365,0.245-0.695,0.39-1.034c0.048-0.112,0.106-0.096,0.192-0.046c0.724,0.414,1.447,0.829,2.176,1.233
			c0.133,0.074,0.118,0.17,0.108,0.28c-0.099,1.006-0.2,2.013-0.3,3.019c-0.178,1.791-0.355,3.582-0.533,5.373
			c-0.197,1.994-0.395,3.989-0.591,5.983c-0.176,1.782-0.35,3.564-0.525,5.346c-0.015,0.156-0.035,0.312-0.057,0.504
			c-2.522-1.402-5.122-2.58-7.859-3.591C53.791,34.682,54.312,34.111,54.79,33.504z"/>
		<path style="fill:#FAFAFA;" d="M31.874,3.861c0.568,0.173,0.766,0.544,0.759,1.067c-0.009,0.668,0,1.337,0.011,2.006
			c0.003,0.153-0.053,0.188-0.193,0.185c-0.389-0.008-0.779-0.01-1.168,0.001c-0.163,0.005-0.201-0.051-0.199-0.205
			c0.008-0.669,0.006-1.337,0.001-2.006c-0.001-0.138-0.022-0.277-0.049-0.413c-0.033-0.166-0.181-0.178-0.307-0.179
			c-0.173-0.001-0.103,0.147-0.104,0.23c-0.005,0.78-0.01,1.56,0.001,2.34c0.003,0.197-0.054,0.247-0.248,0.247
			c-0.407-0.001-0.815,0.024-1.222,0.05c-0.155,0.01-0.213-0.029-0.209-0.194c0.006-0.269,0.028-0.519,0.149-0.777
			c0.594-1.262,0.567-2.531-0.049-3.779c-0.156-0.316-0.084-0.636-0.092-0.955c-0.015-0.566-0.004-0.563,0.558-0.581
			c0.639-0.02,1.277-0.061,1.917-0.005c0.646,0.056,1.039,0.399,1.156,1.041c0.061,0.331,0.071,0.664,0.039,0.999
			C32.569,3.522,32.478,3.64,31.874,3.861z M31.089,2.613c-0.011-0.157,0.027-0.326-0.047-0.485
			c-0.071-0.151-0.21-0.188-0.348-0.168c-0.135,0.02-0.066,0.151-0.068,0.231c-0.008,0.287-0.01,0.574,0.001,0.86
			c0.003,0.083-0.081,0.229,0.082,0.245c0.151,0.014,0.295-0.022,0.346-0.206C31.099,2.934,31.083,2.777,31.089,2.613z"/>
		<path style="fill:#FAFAFA;" d="M20.173,7.903c-0.444,0.68-1.004,0.946-1.731,0.787c-0.467-0.102-0.797-0.456-0.83-0.933
			c-0.089-1.297-0.107-2.599,0.01-3.894c0.085-0.943,0.986-1.69,2.056-1.799c0.501-0.051,0.964,0.01,1.336,0.391
			c0.141,0.144,0.193,0.289,0.107,0.499c-0.145,0.353-0.217,0.73-0.235,1.112c-0.006,0.131-0.033,0.199-0.177,0.222
			c-0.275,0.044-0.548,0.1-0.817,0.17c-0.188,0.048-0.22-0.021-0.215-0.19c0.009-0.278-0.002-0.557-0.008-0.835
			c-0.002-0.113-0.005-0.242-0.154-0.254c-0.148-0.012-0.25,0.074-0.282,0.218c-0.023,0.108-0.029,0.221-0.029,0.332
			c-0.001,1.161,0,2.322,0.005,3.482c0.001,0.131-0.026,0.306,0.169,0.329c0.194,0.023,0.291-0.113,0.32-0.281
			c0.064-0.368,0.033-0.741,0.036-1.112c0.001-0.091-0.049-0.111-0.125-0.086c-0.178,0.059-0.191-0.033-0.193-0.18
			c-0.011-0.762-0.015-0.763,0.733-0.913c0.236-0.047,0.517-0.182,0.697-0.101c0.174,0.079,0.096,0.422,0.178,0.638
			c0.016,0.043,0.017,0.094,0.038,0.133c0.402,0.736,0.24,1.538,0.271,2.317c0.004,0.111-0.025,0.168-0.147,0.183
			c-0.175,0.021-0.35,0.054-0.518,0.104C20.406,8.319,20.189,8.336,20.173,7.903z"/>
		<path style="fill:#FAFAFA;" d="M47.582,6.151c0,0.576,0,1.152,0,1.727c0,0.112,0.007,0.224,0.053,0.328
			c0.059,0.134,0.17,0.203,0.31,0.189c0.148-0.014,0.152-0.143,0.154-0.255c0.006-0.344,0.012-0.687,0.01-1.031
			c-0.001-0.145,0.002-0.229,0.194-0.163c0.412,0.141,0.832,0.258,1.249,0.385c0.1,0.03,0.181,0.061,0.177,0.202
			c-0.01,0.38,0.005,0.762-0.059,1.138c-0.098,0.575-0.439,0.9-1.019,0.905c-0.844,0.007-1.583-0.29-2.177-0.897
			c-0.45-0.46-0.507-1.063-0.515-1.66c-0.012-1.021-0.005-2.043,0.02-3.064c0.017-0.696,0.466-1.103,1.167-1.111
			c1.472-0.016,2.526,1.039,2.577,2.583c0.009,0.26-0.005,0.52,0.004,0.78c0.005,0.141-0.036,0.183-0.174,0.139
			c-0.433-0.137-0.867-0.273-1.303-0.4c-0.128-0.037-0.143-0.115-0.142-0.228c0.005-0.362,0.003-0.725,0.001-1.087
			c-0.001-0.111-0.002-0.224-0.018-0.334c-0.026-0.186-0.155-0.28-0.329-0.277c-0.184,0.003-0.175,0.17-0.176,0.293
			c-0.006,0.613-0.003,1.226-0.003,1.839C47.584,6.151,47.583,6.151,47.582,6.151z"/>
		<path style="fill:#FAF9F7;" d="M28.876,4.382c-0.005,2.036-1.654,3.682-3.689,3.682c-2.021,0-3.688-1.673-3.681-3.693
			c0.008-2.028,1.668-3.684,3.694-3.683C27.228,0.689,28.881,2.35,28.876,4.382z M23.169,6.742
			c-0.046,0.176,0.059,0.298,0.236,0.409c0.499,0.314,1.04,0.478,1.625,0.523c0.376,0.029,0.41,0.005,0.362-0.358
			c-0.18-1.351-0.36-2.703-0.538-4.054c-0.051-0.387-0.05-0.393-0.427-0.294c-0.099,0.026-0.264-0.007-0.253,0.186
			c0.047,0.785-0.277,1.463-0.61,2.141C23.346,5.738,23.185,6.2,23.169,6.742z M25.586,2.822c-0.392,0.003-0.399,0.004-0.355,0.347
			c0.181,1.407,0.373,2.812,0.546,4.22c0.025,0.202,0.097,0.226,0.263,0.179c0.651-0.183,1.202-0.524,1.651-1.032
			c0.095-0.108,0.115-0.21,0.077-0.354c-0.161-0.614-0.541-1.091-0.947-1.553c-0.401-0.457-0.765-0.939-0.91-1.542
			C25.86,2.874,25.78,2.772,25.586,2.822z M23.779,3.169c-0.751,0.288-1.384,0.696-1.827,1.362c-0.024,0.037-0.05,0.086-0.046,0.127
			c0.077,0.728,0.336,1.374,0.873,1.949c0.061-0.332,0.105-0.622,0.202-0.9c0.148-0.421,0.365-0.81,0.54-1.219
			C23.698,4.076,23.829,3.656,23.779,3.169z M26.244,2.842c0.101,0.523,0.358,0.935,0.675,1.312
			c0.453,0.539,0.936,1.055,1.175,1.776c0.369-0.678,0.455-1.362,0.358-2.077c-0.01-0.075-0.05-0.135-0.11-0.186
			C27.743,3.155,27.034,2.929,26.244,2.842z M28.175,3.035c-0.223-0.558-0.582-0.995-1.056-1.336
			c-0.363-0.261-0.534-0.224-0.775,0.159c-0.085,0.135-0.131,0.284-0.156,0.441c-0.015,0.095,0.004,0.152,0.121,0.166
			C26.963,2.54,27.586,2.721,28.175,3.035z M21.932,3.916c0.453-0.45,0.924-0.769,1.451-1c0.399-0.175,0.42-0.279,0.12-0.609
			c-0.114-0.126-0.251-0.217-0.41-0.277c-0.108-0.041-0.192-0.027-0.274,0.061C22.35,2.589,22.053,3.17,21.932,3.916z M26.334,1.292
			c-0.404-0.166-0.796-0.211-1.196-0.219c-0.149-0.003-0.189,0.059-0.165,0.205c0.051,0.301,0.1,0.605,0.122,0.909
			c0.016,0.227,0.102,0.27,0.325,0.271c0.283,0.001,0.41-0.062,0.434-0.366C25.879,1.778,26.077,1.53,26.334,1.292z M23.296,1.694
			c0.381,0.178,0.632,0.45,0.764,0.824c0.037,0.104,0.096,0.123,0.19,0.102c0.099-0.023,0.198-0.053,0.299-0.061
			c0.168-0.014,0.214-0.088,0.187-0.254c-0.053-0.329-0.09-0.661-0.124-0.993c-0.014-0.135-0.066-0.175-0.198-0.14
			C24.02,1.279,23.644,1.424,23.296,1.694z"/>
		<path style="fill:#FBFBFB;" d="M36.422,4.119c0-0.956,0.005-1.913-0.004-2.869c-0.002-0.195,0.04-0.247,0.247-0.222
			c0.755,0.092,1.512,0.166,2.269,0.234c0.192,0.017,0.246,0.089,0.234,0.275c-0.017,0.259-0.015,0.52-0.001,0.78
			c0.01,0.19-0.029,0.27-0.242,0.222c-0.216-0.048-0.442-0.054-0.661-0.087c-0.147-0.022-0.199,0.023-0.192,0.176
			c0.012,0.259,0.014,0.52-0.001,0.78c-0.009,0.164,0.063,0.208,0.206,0.218c0.213,0.015,0.424,0.049,0.637,0.063
			c0.141,0.009,0.19,0.067,0.186,0.209c-0.009,0.288-0.007,0.576-0.001,0.863c0.003,0.124-0.037,0.163-0.161,0.145
			c-0.229-0.033-0.462-0.043-0.691-0.08C38.1,4.801,38.07,4.853,38.072,4.984c0.006,0.334,0.01,0.669-0.001,1.003
			c-0.005,0.155,0.071,0.187,0.197,0.199c0.277,0.027,0.553,0.065,0.83,0.089c0.137,0.012,0.186,0.065,0.181,0.208
			c-0.012,0.306-0.009,0.613-0.001,0.919c0.004,0.141-0.04,0.164-0.176,0.149c-0.829-0.092-1.66-0.179-2.491-0.252
			c-0.193-0.017-0.191-0.116-0.19-0.256C36.423,6.069,36.422,5.094,36.422,4.119z"/>
		<path style="fill:#FBFBFB;" d="M42.74,4.98c0-0.957,0.005-1.914-0.004-2.87c-0.002-0.189,0.023-0.262,0.235-0.213
			c0.759,0.174,1.521,0.337,2.284,0.495c0.141,0.029,0.207,0.077,0.2,0.234c-0.013,0.297-0.01,0.595-0.001,0.891
			c0.005,0.152-0.039,0.197-0.19,0.156c-0.242-0.065-0.488-0.111-0.731-0.173C44.411,3.47,44.356,3.5,44.373,3.631
			c0.004,0.027,0,0.056,0.001,0.084c0.002,0.288-0.091,0.629,0.033,0.848c0.129,0.229,0.518,0.162,0.787,0.244
			c0.115,0.035,0.196,0.066,0.188,0.219c-0.015,0.287-0.01,0.576-0.002,0.864c0.004,0.145-0.043,0.173-0.178,0.136
			c-0.214-0.059-0.435-0.095-0.65-0.154c-0.135-0.037-0.184-0.01-0.181,0.137c0.008,0.344,0.008,0.687-0.001,1.031
			c-0.003,0.122,0.048,0.157,0.154,0.179c0.281,0.06,0.558,0.139,0.84,0.193c0.141,0.027,0.208,0.073,0.201,0.232
			c-0.013,0.306-0.007,0.613-0.002,0.919c0.002,0.125-0.034,0.161-0.162,0.133c-0.851-0.189-1.702-0.375-2.555-0.554
			c-0.167-0.035-0.104-0.151-0.105-0.236C42.738,6.931,42.74,5.956,42.74,4.98z"/>
		<path style="fill:#FBFBFB;" d="M34.805,5.897c0.345,0.024,0.666,0.056,0.988,0.065c0.161,0.004,0.232,0.039,0.223,0.219
			C36,6.477,36.006,6.775,36.014,7.072c0.004,0.136-0.042,0.179-0.175,0.169c-0.897-0.073-1.796-0.106-2.696-0.12
			c-0.159-0.002-0.178-0.069-0.18-0.201c-0.007-0.419,0.024-0.825,0.158-1.232c0.381-1.161,0.731-2.332,1.1-3.521
			c-0.323-0.016-0.626-0.038-0.93-0.043c-0.125-0.002-0.184-0.026-0.179-0.169c0.01-0.306,0.011-0.613,0-0.919
			c-0.006-0.159,0.068-0.185,0.201-0.179c0.843,0.04,1.686,0.077,2.53,0.111c0.133,0.005,0.172,0.061,0.172,0.189
			c-0.002,0.62,0,1.227-0.232,1.832C35.417,3.935,35.131,4.914,34.805,5.897z"/>
		<path style="fill:#FBFBFB;" d="M17.169,2.775c0.157,0.906-0.07,1.724-0.323,2.543c-0.263,0.85-0.503,1.707-0.751,2.561
			C16.078,7.939,16.069,8,16.051,8.087c0.394-0.106,0.765-0.205,1.155-0.31c0,0.392-0.006,0.754,0.003,1.115
			c0.003,0.131-0.052,0.169-0.169,0.201c-0.859,0.23-1.715,0.475-2.558,0.759c-0.19,0.064-0.215,0.008-0.23-0.178
			c-0.053-0.639,0.156-1.226,0.317-1.824c0.292-1.082,0.588-2.163,0.891-3.276c-0.312,0.044-0.584,0.155-0.858,0.246
			c-0.167,0.055-0.211,0.018-0.205-0.152c0.01-0.287,0.009-0.576,0-0.863c-0.004-0.14,0.031-0.215,0.179-0.258
			C15.44,3.297,16.3,3.035,17.169,2.775z"/>
		<path style="fill:#FAFAFA;" d="M39.729,4.517c0-0.966,0.008-1.931-0.006-2.897c-0.003-0.22,0.053-0.263,0.26-0.224
			c0.392,0.073,0.787,0.127,1.183,0.177c0.173,0.022,0.221,0.095,0.22,0.268c-0.007,1.495,0,2.99-0.009,4.484
			c-0.001,0.215,0.04,0.338,0.278,0.326c0.045-0.002,0.09,0.02,0.136,0.029c0.577,0.109,0.581,0.109,0.575,0.709
			C42.363,7.6,42.46,7.888,42.322,8.001c-0.136,0.111-0.401-0.036-0.61-0.067c-0.569-0.085-1.135-0.184-1.706-0.257
			c-0.21-0.027-0.289-0.085-0.285-0.318C39.739,6.411,39.729,5.464,39.729,4.517z"/>
		<path style="fill:#29903C;" d="M6.615,16.746c1.344-0.621,2.714-1.178,4.1-1.699c0.204-0.077,0.229-0.023,0.228,0.166
			c-0.006,1.113-0.006,2.225,0,3.338c0.001,0.161-0.042,0.245-0.202,0.303c-0.531,0.191-1.055,0.401-1.582,0.603
			c-0.315-0.43-0.587-0.891-0.928-1.303C7.771,17.594,7.234,17.124,6.615,16.746z"/>
		<path style="fill:#FDFDFE;" d="M27.882,29.662c0.002-2.507,0.005-5.014,0.007-7.521c0-0.363,0-0.363,0.359-0.35
			c0.595,0.022,0.814,0.216,0.883,0.812c0.036,0.313,0.062,0.629,0.063,0.943c0.004,2.033,0,4.067-0.002,6.1
			C28.755,29.652,28.319,29.657,27.882,29.662z"/>
		<path style="fill:#29903C;" d="M43.292,8.899c-0.443,0.423-0.955,0.758-1.428,1.143c-0.346,0.281-0.699,0.552-1.05,0.826
			c-0.078,0.061-0.143,0.133-0.269,0.096c-0.639-0.185-1.295-0.225-2.006-0.212c0.5-0.826,0.985-1.627,1.471-2.429
			c0.943,0.113,1.877,0.28,2.808,0.458C42.977,8.813,43.146,8.811,43.292,8.899z"/>
		<path style="fill:#010101;" d="M26.388,51.663c-0.765,0.17-1.428,0.555-2.067,0.989c-0.093,0.063-0.155,0.143-0.257-0.012
			c-0.986-1.484-1.945-2.984-2.551-4.674c-0.444-1.238-0.688-2.503-0.471-3.825c0.161-0.978,0.569-1.84,1.222-2.58
			c0.167-0.189,0.11-0.251-0.084-0.312c-0.324-0.102-0.648-0.205-0.996-0.316c0.34-0.514,0.676-1.023,0.971-1.556
			c0.837-1.51,1.489-3.089,1.761-4.806c0.061-0.385,0.094-0.773,0.094-1.164c0-0.825,0.315-1.184,1.125-1.314
			c1.073-0.173,1.911,0.198,2.529,1.083c0.127,0.182,0.247,0.369,0.369,0.552c0.109-0.403-0.111-1.075-0.626-1.89
			c1.085-0.494,2.179-0.575,3.291-0.114c0.402,0.167,0.591,0.522,0.736,0.9c0.354,0.923,0.418,1.897,0.496,2.868
			c0.016,0.193,0.034,0.386,0.051,0.579c0,0.076,0,0.153,0,0.229c0.014,0,0.027,0,0.041,0c0-0.076,0-0.153,0-0.229
			c0.087-1.006,0.146-2.012,0.382-3.003c0.24-1.004,0.848-1.509,1.855-1.621c0.756-0.084,1.772,0.072,2.315,0.411
			c-0.501,0.821-0.679,1.344-0.626,1.875c0.174-0.247,0.329-0.483,0.5-0.707c0.734-0.961,1.727-1.139,2.76-0.856
			c0.487,0.133,0.754,0.482,0.759,0.98c0.023,2.186,0.764,4.158,1.778,6.051c0.289,0.54,0.608,1.063,0.963,1.561
			c0.115,0.162,0.084,0.198-0.097,0.241c-0.279,0.065-0.549,0.166-0.823,0.252c-0.175,0.055-0.193,0.141-0.11,0.309
			c0.53,1.069,0.927,2.181,1.084,3.372c0.236,1.791-0.18,3.441-1.04,5.001c-0.521,0.944-1.158,1.812-1.776,2.692
			c-0.09,0.128-0.147,0.114-0.261,0.034c-0.555-0.393-1.145-0.72-1.796-0.929c-0.102-0.032-0.201-0.083-0.316-0.034
			c1.295,0.869,2.195,2.005,2.471,3.573c0.297,1.689-0.602,3.508-2.051,4.135c-0.647,0.28-1.302,0.278-1.986,0.118
			c-1.294-0.302-2.607-0.494-3.939-0.503c-1.353-0.009-2.706,0.118-3.994,0.496c-1.987,0.584-3.829-0.889-4.123-2.972
			c-0.247-1.754,0.476-3.145,1.745-4.296c0.224-0.203,0.474-0.379,0.711-0.567c0.031-0.001,0.083,0.006,0.069-0.038
			C26.468,51.618,26.412,51.623,26.388,51.663z M34.982,52.229c-0.03,0.02-0.065,0.036-0.089,0.062
			c-0.829,0.886-1.086,1.919-0.663,3.055c0.426,1.144,1.297,1.774,2.515,1.898c0.312,0.032,0.628,0.023,0.954-0.113
			c-0.833-0.317-1.341-0.873-1.4-1.736c-0.073-1.062,0.478-1.739,1.469-2.1c-0.64-0.323-1.594-0.212-2.169,0.331
			c-0.146,0.138-0.234,0.119-0.356-0.017c-0.363-0.403-0.407-0.854-0.224-1.345c0.018-0.027,0.053-0.053,0.007-0.083
			C35.024,52.179,34.998,52.212,34.982,52.229z M28.987,52.133c-0.015,0.01-0.031,0.02-0.046,0.03
			c0.007,0.006,0.015,0.012,0.022,0.018c0.008-0.017,0.015-0.033,0.023-0.05c-0.077,0.098,0.012,0.174,0.038,0.256
			c0.116,0.367,0.077,0.715-0.127,1.041c-0.211,0.337-0.281,0.347-0.595,0.111c-0.089-0.066-0.183-0.126-0.279-0.182
			c-0.483-0.283-1.363-0.344-1.772-0.049c0.828,0.287,1.367,0.832,1.445,1.72c0.091,1.033-0.427,1.711-1.378,2.107
			c0.048,0.026,0.07,0.045,0.095,0.049c1.111,0.215,2.072-0.08,2.814-0.929c0.756-0.865,0.927-1.868,0.536-2.96
			C29.6,52.841,29.284,52.494,28.987,52.133z M22.751,40.294c0.073,0.086,0.137,0.005,0.195-0.019
			c0.248-0.105,0.504-0.112,0.766-0.09c0.205,0.017,0.307,0.042,0.147,0.286c-0.427,0.649-0.404,1.311,0.035,1.953
			c0.339,0.496,0.81,0.837,1.334,1.112c0.645,0.339,1.336,0.52,2.104,0.568c-0.534,0.554-1.119,0.833-1.851,0.676
			c-0.796-0.171-1.301-0.709-1.683-1.389c-0.047-0.083-0.091-0.167-0.164-0.302c-0.025,0.623-0.019,1.177,0.153,1.715
			c0.247,0.773,0.753,1.258,1.558,1.422c0.425,0.087,0.852,0.031,1.278,0.039c0.478,0.009,0.691,0.171,0.802,0.641
			c0.09,0.383,0.072,0.775,0.068,1.163c-0.007,0.717-0.037,1.434-0.105,2.172c0.106-0.058,0.106-0.137,0.127-0.202
			c0.2-0.597,0.41-1.192,0.594-1.794c0.657-2.148,1.279-4.308,1.485-6.556c0.116-1.269-0.077-2.503-0.691-3.639
			c-0.735-1.359-2.073-1.73-3.487-1.091c0.2,0.046,0.392,0.076,0.576,0.135c1.316,0.417,2.35,2.376,1.963,3.71
			c-0.059,0.204-0.196,0.233-0.367,0.153c-0.221-0.103-0.402-0.265-0.582-0.426c-0.555-0.493-1.041-1.061-1.636-1.51
			c-0.565-0.427-1.086-0.425-1.661-0.005c-0.45,0.329-0.729,0.783-0.947,1.282c0.004,0.014,0.008,0.029,0.012,0.043
			c0.005-0.006,0.01-0.012,0.015-0.018C22.776,40.312,22.763,40.303,22.751,40.294z M41.293,40.371
			c-0.247-0.6-0.549-1.069-1.031-1.398c-0.561-0.383-1.076-0.363-1.615,0.058c-0.212,0.165-0.41,0.348-0.609,0.529
			c-0.48,0.437-0.9,0.941-1.441,1.308c-0.356,0.242-0.536,0.153-0.543-0.271c-0.011-0.654,0.066-1.297,0.321-1.908
			c0.354-0.848,0.954-1.422,1.859-1.653c0.125-0.032,0.265-0.015,0.405-0.102c-0.628-0.229-1.239-0.365-1.878-0.215
			c-0.927,0.219-1.463,0.875-1.818,1.699c-0.62,1.439-0.633,2.933-0.367,4.451c0.403,2.298,1.047,4.531,1.786,6.74
			c0.081,0.241,0.172,0.478,0.284,0.785c-0.036-0.606-0.085-1.133-0.095-1.66c-0.012-0.611-0.071-1.226,0.053-1.832
			c0.091-0.447,0.323-0.632,0.777-0.635c0.297-0.003,0.594,0.01,0.891,0.005c0.396-0.007,0.766-0.11,1.112-0.311
			c0.777-0.45,1.159-1.597,0.972-2.806c-0.453,0.888-1.05,1.608-2.142,1.663c-0.605,0.03-1.087-0.248-1.505-0.713
			c1.169-0.088,2.184-0.45,3.025-1.22c0.772-0.707,1.007-1.609,0.394-2.481c-0.111-0.157-0.03-0.186,0.098-0.206
			C40.572,40.142,40.909,40.173,41.293,40.371z M35.132,58.361c-1.462-1.027-4.959-0.974-6.253-0.001
			C30.955,58.1,33.023,58.099,35.132,58.361z M29.649,51.249c1.588-0.31,3.125-0.303,4.701-0.004
			C33.196,50.087,30.791,50.083,29.649,51.249z M27.378,50.315c0,0.017,0,0.034,0,0.051c0.005-0.008,0.011-0.015,0.013-0.023
			c0.002-0.008,0.001-0.017-0.001-0.026C27.391,50.315,27.382,50.315,27.378,50.315z"/>
		<path style="fill:#010101;" d="M12.915,33.562c-0.321,0.074-0.389,0.359-0.514,0.628c-0.367-0.295-0.68-0.63-0.988-0.97
			c-1.556-1.711-2.566-3.727-3.296-5.9c-0.653-1.943-1.066-3.948-1.558-5.934c-0.189-0.762-0.406-1.516-0.653-2.299
			c0.352,0.061,0.602,0.234,0.828,0.449c0.561,0.532,0.931,1.197,1.279,1.875c0.757,1.474,1.351,3.023,2.062,4.518
			c0.736,1.547,1.568,3.027,2.806,4.245c1.508,1.484,3.324,2.393,5.344,2.94c1.3,0.352,2.628,0.555,3.962,0.723
			c0.117,0.015,0.22,0.001,0.2,0.177c-0.169,1.453-0.528,2.839-1.368,4.067c-0.122,0.179-0.228,0.208-0.449,0.174
			c-1.026-0.16-1.665-0.739-1.978-1.71c-0.072-0.225-0.067-0.454-0.05-0.688c-0.458,0.191-0.686,0.83-0.563,1.6
			c-0.658-0.245-1.332-0.437-1.888-0.835c-0.638-0.456-0.894-1.135-0.779-1.979c-0.464,0.318-0.579,0.745-0.553,1.243
			c-0.095,0.045-0.151-0.039-0.212-0.077c-0.244-0.152-0.475-0.325-0.722-0.471c-0.685-0.402-0.993-0.992-0.913-1.783
			c0.012,0.001,0.023,0.002,0.035,0.003c-0.003-0.01-0.006-0.021-0.01-0.031C12.929,33.539,12.922,33.55,12.915,33.562z"/>
		<path style="fill:#020202;" d="M45.474,35.842c0.011,0.86-0.354,1.536-1.032,2.044c-0.361,0.271-0.819,0.276-1.234,0.398
			c-0.114,0.033-0.143-0.102-0.192-0.17c-0.637-0.9-1.014-1.91-1.226-2.985c-0.066-0.337-0.105-0.678-0.164-1.016
			c-0.032-0.182,0.014-0.257,0.217-0.279c1.347-0.149,2.681-0.372,3.991-0.727c2.636-0.714,4.849-2.068,6.465-4.309
			c0.889-1.233,1.518-2.608,2.139-3.986c0.597-1.326,1.128-2.683,1.848-3.951c0.29-0.509,0.605-1.001,1.056-1.388
			c0.204-0.175,0.425-0.318,0.734-0.386c-0.231,0.738-0.438,1.446-0.617,2.161c-0.472,1.879-0.861,3.779-1.448,5.628
			c-0.759,2.393-1.828,4.616-3.563,6.472c-0.265,0.284-0.532,0.566-0.848,0.903c-0.072-0.254-0.133-0.432-0.271-0.55
			c-0.088-0.076-0.168-0.235-0.334-0.126c0.018-0.013,0.073,0.012,0.046-0.046c-0.015,0.015-0.03,0.031-0.045,0.046
			c0.131,0.127,0.099,0.294,0.077,0.439c-0.069,0.452-0.239,0.853-0.643,1.12c-0.385,0.254-0.763,0.519-1.181,0.805
			c0.004-0.547-0.084-1.01-0.595-1.312c0.144,0.754-0.101,1.344-0.586,1.855c-0.123,0.13-0.272,0.22-0.434,0.294
			c-0.519,0.239-1.044,0.462-1.615,0.667c0.11-0.456,0.055-0.861-0.171-1.232c-0.092-0.151-0.173-0.328-0.381-0.363
			c-0.006-0.011-0.012-0.021-0.017-0.032c-0.004,0.007-0.007,0.014-0.011,0.02C45.451,35.839,45.463,35.84,45.474,35.842z"/>
		<path style="fill:#040404;" d="M13.974,37.462c0.66,0.352,1.318,0.709,1.982,1.056c0.664,0.347,1.345,0.657,2.108,0.984
			c-0.728,0.04-1.359,0.14-1.861,0.739c0.741-0.124,1.414-0.156,2.088-0.046c0.458,0.075,0.902,0.204,1.345,0.339
			c0.105,0.032,0.167,0.077,0.099,0.196c-0.027,0.048-0.04,0.103-0.064,0.154c-0.535,1.149-0.253,0.975-1.5,0.782
			c-1.913-0.295-3.087-1.529-3.85-3.223c-0.14-0.311-0.256-0.634-0.384-0.951C13.951,37.484,13.963,37.474,13.974,37.462z"/>
		<path style="fill:#040404;" d="M47.786,40.228c-0.46-0.576-1.081-0.688-1.808-0.739c1.438-0.607,2.751-1.299,4.055-2.048
			c-0.425,2.205-2.331,4.008-4.504,4.267c-0.928,0.111-0.699,0.21-1.114-0.632c-0.236-0.478-0.22-0.485,0.287-0.639
			c0.973-0.296,1.958-0.406,2.965-0.2C47.692,40.243,47.719,40.234,47.786,40.228z"/>
		<path style="fill:#040404;" d="M34.537,60.238c-0.984,1.188-4.067,1.189-5.073,0C31.153,60.277,32.836,60.278,34.537,60.238z"/>
		<path style="fill:#FAF9F7;" d="M32.022,36.069c0,0.076,0,0.153,0,0.229c-0.014,0-0.027,0-0.041,0c0-0.076,0-0.153,0-0.229
			C31.995,36.069,32.009,36.069,32.022,36.069z"/>
		<path style="fill:#040404;" d="M13.937,37.492c0.003-0.023,0.006-0.045,0.009-0.068c0.009,0.013,0.019,0.026,0.028,0.038
			C13.963,37.474,13.951,37.484,13.937,37.492z"/>
		<path style="fill:#FDFDFE;" d="M27.889,16.697c0-0.612,0.005-1.224-0.003-1.837c-0.002-0.167,0.042-0.222,0.217-0.224
			c0.719-0.009,1.024,0.219,1.072,0.938c0.053,0.804,0.076,1.613-0.039,2.415c-0.077,0.537-0.644,0.931-1.157,0.821
			c-0.146-0.031-0.085-0.145-0.086-0.222C27.887,17.958,27.889,17.327,27.889,16.697z"/>
		<path style="fill:#FDFDFE;" d="M39.004,21.303c0-1.801-0.003-3.601,0.003-5.402c0.001-0.23,0.031-0.463,0.074-0.69
			c0.058-0.31,0.235-0.475,0.487-0.492c0.292-0.02,0.568,0.166,0.65,0.463c0.101,0.369,0.121,0.752,0.121,1.131
			c0.001,3.434-0.003,6.869-0.012,10.303c-0.001,0.304-0.041,0.61-0.086,0.912c-0.049,0.331-0.206,0.486-0.464,0.501
			c-0.31,0.018-0.58-0.15-0.661-0.444c-0.12-0.433-0.119-0.881-0.119-1.326c-0.003-1.652-0.001-3.305-0.001-4.957
			C38.999,21.303,39.002,21.303,39.004,21.303z"/>
		<path style="fill:#040404;" d="M31.089,2.613c-0.006,0.164,0.01,0.321-0.033,0.477c-0.051,0.184-0.196,0.22-0.346,0.206
			c-0.163-0.015-0.079-0.161-0.082-0.245c-0.011-0.286-0.009-0.574-0.001-0.86c0.002-0.079-0.067-0.211,0.068-0.231
			c0.138-0.02,0.277,0.016,0.348,0.168C31.116,2.287,31.077,2.456,31.089,2.613z"/>
		<path style="fill:#F89E20;" d="M23.169,6.742c0.016-0.542,0.177-1.004,0.395-1.449c0.333-0.677,0.657-1.356,0.61-2.141
			c-0.011-0.193,0.154-0.16,0.253-0.186c0.377-0.099,0.376-0.093,0.427,0.294c0.178,1.352,0.358,2.703,0.538,4.054
			c0.048,0.363,0.014,0.387-0.362,0.358c-0.585-0.045-1.126-0.209-1.625-0.523C23.229,7.04,23.123,6.918,23.169,6.742z"/>
		<path style="fill:#F89E20;" d="M25.586,2.822c0.194-0.05,0.274,0.052,0.325,0.265c0.145,0.603,0.509,1.085,0.91,1.542
			c0.406,0.462,0.786,0.938,0.947,1.553c0.038,0.143,0.018,0.246-0.077,0.354c-0.449,0.508-1,0.849-1.651,1.032
			c-0.167,0.047-0.238,0.024-0.263-0.179c-0.173-1.408-0.365-2.813-0.546-4.22C25.186,2.826,25.194,2.825,25.586,2.822z"/>
		<path style="fill:#F89E20;" d="M23.779,3.169c0.049,0.487-0.081,0.907-0.258,1.318c-0.175,0.408-0.393,0.797-0.54,1.219
			c-0.098,0.278-0.141,0.569-0.202,0.9c-0.537-0.575-0.796-1.221-0.873-1.949c-0.004-0.04,0.022-0.09,0.046-0.127
			C22.395,3.865,23.028,3.457,23.779,3.169z"/>
		<path style="fill:#F89E20;" d="M26.244,2.842c0.79,0.087,1.498,0.313,2.098,0.825c0.06,0.051,0.1,0.111,0.11,0.186
			c0.097,0.715,0.011,1.398-0.358,2.077c-0.238-0.722-0.722-1.237-1.175-1.776C26.602,3.777,26.345,3.365,26.244,2.842z"/>
		<path style="fill:#F89E20;" d="M28.175,3.035c-0.589-0.314-1.212-0.495-1.866-0.57c-0.118-0.014-0.136-0.071-0.121-0.166
			c0.025-0.156,0.071-0.305,0.156-0.441c0.241-0.383,0.412-0.421,0.775-0.159C27.593,2.04,27.952,2.477,28.175,3.035z"/>
		<path style="fill:#F89E20;" d="M21.932,3.916c0.12-0.745,0.418-1.327,0.887-1.826c0.082-0.087,0.166-0.102,0.274-0.061
			c0.159,0.06,0.296,0.151,0.41,0.277c0.3,0.331,0.279,0.434-0.12,0.609C22.856,3.147,22.385,3.465,21.932,3.916z"/>
		<path style="fill:#F89E20;" d="M26.334,1.292c-0.257,0.238-0.455,0.486-0.48,0.8c-0.024,0.304-0.151,0.367-0.434,0.366
			c-0.224-0.001-0.309-0.044-0.325-0.271c-0.022-0.304-0.071-0.608-0.122-0.909c-0.025-0.146,0.015-0.208,0.165-0.205
			C25.538,1.081,25.93,1.126,26.334,1.292z"/>
		<path style="fill:#F89E20;" d="M23.296,1.694c0.348-0.27,0.723-0.415,1.118-0.522c0.132-0.036,0.184,0.005,0.198,0.14
			c0.035,0.332,0.071,0.664,0.124,0.993c0.027,0.166-0.019,0.24-0.187,0.254c-0.101,0.008-0.2,0.038-0.299,0.061
			c-0.094,0.021-0.153,0.003-0.19-0.102C23.928,2.144,23.678,1.871,23.296,1.694z"/>
		<path style="fill:#FBFBFB;" d="M22.759,40.296c0.221-0.498,0.5-0.952,0.95-1.281c0.575-0.42,1.096-0.422,1.661,0.005
			c0.595,0.449,1.081,1.017,1.636,1.51c0.181,0.161,0.361,0.322,0.582,0.426c0.171,0.08,0.308,0.051,0.367-0.153
			c0.387-1.334-0.647-3.293-1.963-3.71c-0.184-0.058-0.377-0.089-0.576-0.135c1.414-0.639,2.753-0.268,3.487,1.091
			c0.614,1.136,0.807,2.37,0.691,3.639c-0.206,2.248-0.828,4.407-1.485,6.556c-0.184,0.602-0.394,1.197-0.594,1.794
			c-0.022,0.065-0.021,0.145-0.127,0.202c0.069-0.738,0.098-1.455,0.105-2.172c0.004-0.388,0.022-0.78-0.068-1.163
			c-0.111-0.47-0.324-0.633-0.802-0.641c-0.426-0.008-0.853,0.047-1.278-0.039c-0.805-0.164-1.311-0.649-1.558-1.422
			c-0.172-0.538-0.178-1.092-0.153-1.715c0.073,0.135,0.117,0.219,0.164,0.302c0.382,0.68,0.886,1.218,1.683,1.389
			c0.732,0.157,1.317-0.122,1.851-0.676c-0.768-0.048-1.459-0.229-2.104-0.568c-0.523-0.275-0.995-0.616-1.334-1.112
			c-0.439-0.642-0.463-1.304-0.035-1.953c0.16-0.243,0.058-0.268-0.147-0.286c-0.262-0.022-0.518-0.015-0.766,0.09
			c-0.058,0.024-0.122,0.105-0.195,0.019L22.759,40.296z M27.224,43.268c0.178,0.031,0.228-0.041,0.169-0.2
			c-0.072-0.194-0.149-0.337-0.411-0.371c-0.495-0.065-0.873-0.342-1.087-0.812c-0.075-0.166-0.149-0.378-0.034-0.504
			c0.231-0.253,0.026-0.333-0.121-0.449c-0.138-0.109-0.29-0.202-0.425-0.314c-0.128-0.106-0.185-0.06-0.237,0.073
			c-0.214,0.54-0.188,1.06,0.165,1.53C25.737,42.877,26.437,43.162,27.224,43.268z"/>
		<path style="fill:#FBFBFB;" d="M41.293,40.371c-0.384-0.198-0.721-0.229-1.068-0.174c-0.128,0.02-0.208,0.048-0.098,0.206
			c0.613,0.871,0.379,1.774-0.394,2.481c-0.841,0.77-1.856,1.132-3.025,1.22c0.418,0.465,0.9,0.743,1.505,0.713
			c1.092-0.055,1.689-0.775,2.142-1.663c0.186,1.209-0.195,2.357-0.972,2.806c-0.346,0.2-0.716,0.303-1.112,0.311
			c-0.297,0.005-0.594-0.008-0.891-0.005c-0.454,0.004-0.686,0.189-0.777,0.635c-0.124,0.606-0.064,1.221-0.053,1.832
			c0.01,0.528,0.059,1.054,0.095,1.66c-0.111-0.306-0.203-0.544-0.284-0.785c-0.739-2.209-1.383-4.442-1.786-6.74
			c-0.267-1.519-0.253-3.012,0.367-4.451c0.355-0.824,0.891-1.48,1.818-1.699c0.639-0.151,1.25-0.014,1.878,0.215
			c-0.14,0.087-0.279,0.07-0.405,0.102c-0.905,0.231-1.505,0.805-1.859,1.653c-0.255,0.61-0.332,1.254-0.321,1.908
			c0.007,0.425,0.187,0.513,0.543,0.271c0.541-0.367,0.961-0.871,1.441-1.308c0.199-0.181,0.398-0.363,0.609-0.529
			c0.539-0.421,1.053-0.441,1.615-0.058C40.744,39.302,41.046,39.771,41.293,40.371z M36.796,43.267
			c0.711-0.08,1.348-0.337,1.843-0.867c0.469-0.501,0.566-1.084,0.304-1.723c-0.049-0.119-0.098-0.166-0.217-0.072
			c-0.203,0.162-0.411,0.317-0.619,0.472c-0.08,0.06-0.107,0.103-0.012,0.187c0.14,0.124,0.144,0.293,0.092,0.463
			c-0.174,0.565-0.583,0.881-1.14,0.969c-0.258,0.041-0.337,0.178-0.413,0.371C36.571,43.231,36.62,43.295,36.796,43.267z"/>
		<path style="fill:#FAFAFA;" d="M28.987,52.133c0.298,0.362,0.613,0.708,0.776,1.163c0.391,1.093,0.22,2.095-0.536,2.96
			c-0.742,0.849-1.703,1.144-2.814,0.929c-0.025-0.005-0.046-0.024-0.095-0.049c0.951-0.396,1.47-1.074,1.378-2.107
			c-0.079-0.888-0.617-1.434-1.445-1.72c0.409-0.295,1.289-0.234,1.772,0.049c0.096,0.056,0.19,0.116,0.279,0.182
			c0.314,0.235,0.384,0.226,0.595-0.111c0.204-0.326,0.243-0.674,0.127-1.041c-0.026-0.082-0.115-0.157-0.038-0.256L28.987,52.133z"
			/>
		<path style="fill:#FAFAFA;" d="M35.021,52.264c-0.183,0.491-0.139,0.942,0.224,1.345c0.122,0.136,0.21,0.154,0.356,0.017
			c0.574-0.543,1.529-0.654,2.169-0.331c-0.991,0.361-1.542,1.038-1.469,2.1c0.059,0.864,0.568,1.419,1.4,1.736
			c-0.326,0.136-0.642,0.145-0.954,0.113c-1.219-0.124-2.089-0.755-2.515-1.898c-0.423-1.136-0.167-2.169,0.663-3.055
			c0.024-0.026,0.059-0.042,0.089-0.062C34.995,52.241,35.007,52.253,35.021,52.264z"/>
		<path style="fill:#FAF9F7;" d="M35.132,58.361c-2.109-0.262-4.177-0.261-6.253-0.001C30.173,57.387,33.669,57.334,35.132,58.361z"
			/>
		<path style="fill:#FAF9F7;" d="M29.649,51.249c1.143-1.166,3.547-1.162,4.701-0.004C32.773,50.946,31.237,50.94,29.649,51.249z"/>
		<path style="fill:#FBFBFB;" d="M27.378,50.315c0.004,0.001,0.012,0.001,0.013,0.002c0.002,0.009,0.003,0.018,0.001,0.026
			c-0.002,0.008-0.009,0.016-0.013,0.023C27.378,50.349,27.378,50.332,27.378,50.315z"/>
		<path style="fill:#FBFBFB;" d="M26.388,51.663c0.024-0.04,0.08-0.045,0.088-0.018c0.014,0.044-0.038,0.037-0.069,0.038
			C26.402,51.676,26.395,51.669,26.388,51.663z"/>
		<path style="fill:#FBFBFB;" d="M22.751,40.294c0.013,0.009,0.025,0.018,0.038,0.027c-0.005,0.006-0.01,0.012-0.015,0.018
			c-0.004-0.014-0.008-0.029-0.013-0.043C22.759,40.296,22.751,40.294,22.751,40.294z"/>
		<path style="fill:#FAFAFA;" d="M34.982,52.229c0.016-0.017,0.042-0.05,0.045-0.048c0.046,0.03,0.011,0.056-0.007,0.083
			C35.007,52.253,34.995,52.241,34.982,52.229z"/>
		<path style="fill:#FAFAFA;" d="M28.986,52.132c-0.008,0.017-0.015,0.033-0.023,0.05c-0.007-0.006-0.015-0.012-0.022-0.018
			c0.015-0.01,0.031-0.02,0.046-0.03C28.987,52.133,28.986,52.132,28.986,52.132z"/>
		<path style="fill:#FBFBFB;" d="M12.915,33.562c0.007-0.012,0.014-0.023,0.021-0.035c0.003,0.01,0.006,0.021,0.01,0.031
			c-0.012-0.001-0.023-0.002-0.035-0.003C12.91,33.555,12.915,33.562,12.915,33.562z"/>
		<path style="fill:#FBFBFB;" d="M50.998,33.575c0.015-0.015,0.03-0.031,0.045-0.046C51.07,33.587,51.015,33.562,50.998,33.575
			C50.997,33.575,50.998,33.575,50.998,33.575z"/>
		<path style="fill:#FBFBFB;" d="M45.474,35.842c-0.011-0.002-0.023-0.003-0.034-0.005c0.004-0.007,0.007-0.014,0.011-0.02
			c0.006,0.011,0.012,0.021,0.017,0.032C45.469,35.849,45.474,35.842,45.474,35.842z"/>
		<path style="fill:#F89E20;" d="M27.224,43.268c-0.787-0.106-1.488-0.391-1.981-1.048c-0.353-0.47-0.379-0.99-0.165-1.53
			c0.052-0.132,0.109-0.179,0.237-0.073c0.135,0.112,0.287,0.205,0.425,0.314c0.147,0.115,0.352,0.196,0.121,0.449
			c-0.115,0.125-0.041,0.338,0.034,0.504c0.213,0.47,0.592,0.747,1.087,0.812c0.262,0.034,0.339,0.178,0.411,0.371
			C27.452,43.227,27.402,43.298,27.224,43.268z"/>
		<path style="fill:#F89E20;" d="M36.796,43.267c-0.176,0.029-0.225-0.036-0.161-0.2c0.076-0.194,0.155-0.331,0.413-0.371
			c0.558-0.088,0.966-0.404,1.14-0.969c0.052-0.17,0.048-0.339-0.092-0.463c-0.095-0.084-0.069-0.127,0.012-0.187
			c0.208-0.156,0.416-0.311,0.619-0.472c0.119-0.095,0.168-0.047,0.217,0.072c0.262,0.64,0.164,1.222-0.304,1.723
			C38.144,42.93,37.507,43.186,36.796,43.267z"/>
	</g>
</g>
</svg>
