<?xml version="1.0" encoding="utf-8"?>
<!-- Generator: Adobe Illustrator 22.0.0, SVG Export Plug-In . SVG Version: 6.00 Build 0)  -->
<svg version="1.1" id="Camada_1" xmlns="http://www.w3.org/2000/svg" xmlns:xlink="http://www.w3.org/1999/xlink" x="0px" y="0px"
	 width="64px" height="64px" viewBox="0 0 64 64" style="enable-background:new 0 0 64 64;" xml:space="preserve">
<g>
	<g>
		<path style="fill:#8000F5;" d="M5.669,33.98c0-5.504,0.004-9.982-0.008-14.46c-0.001-0.351,0.087-0.443,0.44-0.442
			c4.684,0.012,9.368,0.013,14.052-0.001c0.377-0.001,0.463,0.1,0.463,0.468c-0.012,6.28-0.006,12.56-0.016,18.839
			c0,0.307,0.093,0.481,0.351,0.646c3.65,2.333,7.295,4.675,10.935,7.025c0.24,0.155,0.4,0.16,0.642-0.003
			c3.646-2.458,7.272-4.945,11-7.279c0.242-0.152,0.274-0.327,0.274-0.572c-0.004-6.215,0.001-12.431-0.013-18.646
			c-0.001-0.398,0.106-0.48,0.487-0.479c4.504,0.014,9.008,0.015,13.512-0.002c0.403-0.001,0.473,0.114,0.474,0.49
			c0.007,7.657-0.05,15.313,0.028,22.97c0.013,1.299,0.022,2.599,0.05,3.898c0.005,0.253-0.083,0.388-0.289,0.524
			c-8.512,5.636-17.02,11.276-25.524,16.924c-0.242,0.161-0.402,0.153-0.641-0.003c-8.609-5.627-17.223-11.247-25.841-16.861
			c-0.222-0.145-0.3-0.293-0.304-0.553C5.68,41.962,5.649,37.459,5.669,33.98z"/>
		<path style="fill:#8000F5;" d="M31.975,0.007c8.596,0,17.191,0,25.787,0.001c0.574,0,0.49-0.056,0.491,0.492
			c0.002,4.671-0.004,9.342,0.011,14.013c0.001,0.385-0.109,0.453-0.468,0.453c-5.893-0.012-11.787-0.005-17.68-0.016
			c-0.349-0.001-0.45,0.083-0.45,0.442c0.011,6.897,0.006,13.794,0.016,20.692c0,0.32-0.091,0.505-0.362,0.681
			c-2.275,1.477-4.542,2.967-6.803,4.465c-0.228,0.151-0.379,0.153-0.607,0.003c-2.284-1.51-4.574-3.011-6.871-4.502
			c-0.237-0.154-0.309-0.316-0.309-0.589c0.008-6.91,0.003-13.82,0.015-20.73c0.001-0.374-0.092-0.463-0.464-0.462
			c-6.061,0.013-12.122,0.006-18.182,0.018c-0.358,0.001-0.437-0.097-0.436-0.443C5.673,9.826,5.674,5.129,5.66,0.432
			C5.659,0.062,5.775,0,6.11,0C14.732,0.009,23.353,0.007,31.975,0.007z"/>
	</g>
</g>
</svg>
