<?xml version="1.0" encoding="utf-8"?>
<!-- Generator: Adobe Illustrator 16.0.0, SVG Export Plug-In . SVG Version: 6.00 Build 0)  -->
<!DOCTYPE svg PUBLIC "-//W3C//DTD SVG 1.1//EN" "http://www.w3.org/Graphics/SVG/1.1/DTD/svg11.dtd">
<svg version="1.1" id="Layer_1" xmlns="http://www.w3.org/2000/svg" xmlns:xlink="http://www.w3.org/1999/xlink" x="0px" y="0px"
	 width="64px" height="64px" viewBox="0 0 64 64" enable-background="new 0 0 64 64" xml:space="preserve">
<g>
	<g>
		<path fill-rule="evenodd" clip-rule="evenodd" fill="#F6F6FA" d="M40.52,5.641c-0.353,0.602-0.686,1.217-1.063,1.803
			c-0.92,1.429-1.933,2.792-3.078,4.049c-0.755,0.829-1.509,1.663-2.323,2.431c-0.921,0.869-1.888,1.691-2.981,2.35
			c-0.878,0.528-1.822,0.86-2.824,1.045c-0.025,0.005-0.051,0.016-0.142,0.046c0.489,0.163,0.927,0.295,1.355,0.453
			c2.026,0.746,4.049,1.501,6.076,2.246c0.181,0.066,0.382,0.079,0.586,0.118c-0.156-0.431-0.342-0.811-0.43-1.211
			c-0.144-0.658-0.073-1.284,0.433-1.812c0.498-0.521,1.121-0.756,1.805-0.86c1.621-0.246,3.139,0.128,4.647,0.712
			c2.263,0.876,4.518,1.788,6.897,2.323c1.518,0.342,2.983,0.246,4.417-0.389c1.191-0.528,2.201-1.338,3.269-2.057
			c0.844-0.568,1.669-1.169,2.475-1.79c0.925-0.712,1.821-1.459,2.726-2.196c0.524-0.427,1.039-0.864,1.637-1.27
			c-0.02,0.147-0.008,0.308-0.063,0.438c-0.333,0.771-0.675,1.539-1.025,2.303c-0.729,1.585-1.531,3.13-2.556,4.546
			c-0.501,0.694-1.072,1.339-1.616,2.002c-0.834,1.015-1.849,1.826-2.949,2.522c-1.682,1.063-3.502,1.779-5.469,2.133
			c-1.153,0.208-2.313,0.197-3.469,0.154c-0.701-0.026-1.396-0.199-2.095-0.307c-0.075-0.012-0.149-0.024-0.319-0.051
			c0.268,0.443,0.492,0.814,0.716,1.186c0.522,0.864,1.063,1.718,1.552,2.601c0.103,0.185,0.044,0.484,0.002,0.72
			c-0.244,1.372-0.509,2.74-0.759,4.111c-0.287,1.576-0.568,3.154-0.85,4.732c-0.131,0.74-0.195,1.483-0.066,2.232
			c0.005,0.029,0.001,0.061,0.001,0.09c0.021,1.914,0.037,3.828,0.062,5.742c0.015,1.121,0.036,2.242,0.061,3.362
			c0.014,0.61,0.043,1.22,0.054,1.829c0.002,0.082-0.063,0.164-0.097,0.247c-0.063-0.052-0.148-0.091-0.188-0.157
			c-1.07-1.748-2.135-3.499-3.2-5.249c-0.796-1.306-1.591-2.612-2.388-3.918c-0.046-0.075-0.104-0.144-0.181-0.248
			c-4.063,5.249-8.11,10.476-12.157,15.704c-0.036-0.016-0.071-0.029-0.107-0.043c-0.032-0.109-0.085-0.217-0.094-0.328
			c-0.066-0.835-0.116-1.671-0.188-2.506c-0.09-1.061-0.202-2.121-0.294-3.182c-0.07-0.814-0.117-1.631-0.187-2.445
			c-0.069-0.803-0.161-1.604-0.231-2.407c-0.052-0.596-0.085-1.193-0.129-1.79c-0.009-0.109-0.033-0.219-0.061-0.396
			c-0.417,0.358-0.778,0.667-1.137,0.978c-0.913,0.791-1.824,1.584-2.738,2.373c-0.175,0.151-0.321,0.038-0.45-0.076
			c-0.248-0.217-0.489-0.442-0.73-0.667c-0.601-0.559-1.195-1.124-1.801-1.677c-1.033-0.942-2.076-1.875-3.111-2.816
			c-0.392-0.357-0.775-0.724-1.153-1.096c-0.076-0.075-0.111-0.192-0.191-0.338c-0.221,0.261-0.341,0.416-0.476,0.559
			c-0.504,0.529-1.013,1.055-1.52,1.582c-1.042,1.082-2.085,2.162-3.125,3.246c-0.817,0.853-1.63,1.709-2.445,2.564
			c-0.829,0.869-1.658,1.738-2.487,2.607c-0.801,0.841-1.604,1.68-2.401,2.523c-0.522,0.553-1.032,1.116-1.555,1.668
			c-0.083,0.087-0.206,0.136-0.311,0.202C0.051,56.873,0.026,56.85,0,56.826c0.113-0.408,0.223-0.818,0.34-1.227
			c0.694-2.429,1.386-4.857,2.085-7.285c0.58-2.016,1.169-4.028,1.751-6.043c0.322-1.113,0.601-2.239,0.973-3.334
			c0.152-0.449,0.479-0.846,0.764-1.239c1.215-1.684,2.443-3.358,3.669-5.034c0.523-0.717,1.069-1.419,1.572-2.152
			c0.298-0.435,0.539-0.911,0.79-1.377c0.783-1.454,1.555-2.915,2.344-4.366c0.067-0.122,0.218-0.249,0.351-0.278
			c1.682-0.375,3.367-0.738,5.055-1.088c0.347-0.072,0.605-0.189,0.732-0.554c0.099-0.282,0.253-0.545,0.4-0.807
			c0.091-0.161,0.044-0.242-0.093-0.342c-0.853-0.625-1.74-1.212-2.538-1.901c-1.188-1.025-2.156-2.231-2.562-3.797
			c-0.193-0.744-0.076-1.467,0.203-2.167c0.69-1.73,2.076-2.594,3.815-2.941c1.474-0.294,2.931-0.104,4.375,0.305
			c1.23,0.349,2.488,0.56,3.78,0.526c1.223-0.032,2.394-0.302,3.532-0.718c1.627-0.594,3.098-1.494,4.544-2.426
			c1.412-0.909,2.791-1.867,4.183-2.806c0.057-0.038,0.103-0.09,0.153-0.136C40.319,5.641,40.419,5.641,40.52,5.641z M39.927,6.244
			c0.009-0.028,0.018-0.056,0.027-0.083c-0.036,0.024-0.071,0.048-0.106,0.072c-0.021,0.021-0.044,0.042-0.066,0.063
			c-0.084,0.053-0.17,0.104-0.252,0.16c-2.006,1.394-4.043,2.739-6.19,3.914c-2.902,1.589-5.938,2.001-9.143,1.131
			c-0.966-0.262-1.934-0.52-2.949-0.511c-1.491,0.012-2.886,0.323-4.055,1.313c-1.354,1.146-1.745,2.93-1.006,4.537
			c0.464,1.007,1.111,1.891,1.962,2.592c0.91,0.751,1.884,1.425,2.823,2.141c0.098,0.074,0.151,0.208,0.226,0.313
			c-0.233,0.453-0.454,0.914-0.708,1.355c-0.072,0.126-0.227,0.255-0.365,0.287c-1.739,0.389-3.482,0.765-5.227,1.133
			c-0.225,0.047-0.359,0.144-0.468,0.352c-0.621,1.178-1.257,2.35-1.893,3.52c-0.388,0.712-0.724,1.464-1.191,2.119
			c-1.784,2.497-3.606,4.965-5.427,7.435c-0.326,0.441-0.56,0.904-0.711,1.436c-1.586,5.564-3.189,11.124-4.788,16.686
			c-0.012,0.027-0.025,0.056-0.037,0.084c0.015-0.01,0.03-0.02,0.045-0.029c0.053-0.043,0.11-0.083,0.157-0.133
			c1.351-1.414,2.699-2.832,4.049-4.247c3.149-3.304,6.299-6.605,9.444-9.913c0.18-0.189,0.297-0.195,0.49-0.015
			c1.169,1.085,2.349,2.157,3.525,3.234c1.183,1.083,2.366,2.165,3.559,3.256c0.085-0.07,0.164-0.132,0.239-0.196
			c1.221-1.057,2.44-2.115,3.665-3.168c0.084-0.072,0.201-0.105,0.303-0.156c0.031,0.109,0.081,0.219,0.091,0.33
			c0.131,1.498,0.256,2.996,0.383,4.495c0.174,2.037,0.349,4.075,0.523,6.112c0.058,0.661,0.117,1.322,0.181,2.047
			c0.112-0.142,0.181-0.226,0.247-0.311c3.866-4.996,7.732-9.992,11.598-14.988c0.302-0.39,0.315-0.389,0.566,0.022
			c1.773,2.909,3.547,5.817,5.32,8.727c0.054,0.087,0.114,0.171,0.213,0.318c0-0.188,0.001-0.297-0.001-0.404
			c-0.068-3.871-0.139-7.742-0.206-11.613c-0.003-0.18-0.001-0.363,0.03-0.539c0.563-3.155,1.129-6.31,1.704-9.462
			c0.039-0.216,0.005-0.381-0.106-0.563c-0.736-1.206-1.466-2.416-2.195-3.626c-0.061-0.101-0.098-0.216-0.145-0.324
			c0.139-0.008,0.286-0.05,0.416-0.02c1.672,0.389,3.357,0.566,5.067,0.329c3.628-0.504,6.692-2.081,9.149-4.814
			c2.176-2.42,3.564-5.298,4.826-8.251c0.022-0.04,0.046-0.079,0.068-0.119c0.01-0.032,0.019-0.064,0.028-0.096
			c-0.014,0.01-0.027,0.021-0.041,0.031c-0.043,0.037-0.085,0.075-0.128,0.112c-0.039,0.031-0.08,0.06-0.117,0.092
			c-2.508,2.213-5.214,4.165-7.989,6.025c-1.893,1.269-3.933,1.594-6.14,1.075c-2.102-0.495-4.101-1.291-6.115-2.04
			c-1.199-0.445-2.373-0.976-3.685-1.027c-0.895-0.035-1.767,0.039-2.569,0.467c-0.819,0.437-1.146,1.184-0.887,2.073
			c0.108,0.37,0.31,0.712,0.457,1.072c0.043,0.103,0.046,0.222,0.067,0.333c-0.318-0.021-0.667,0.037-0.948-0.075
			c-2.612-1.038-5.248-2.01-7.922-2.877c-0.09-0.029-0.157-0.128-0.235-0.195c0.066-0.034,0.132-0.093,0.201-0.098
			c1.67-0.104,3.106-0.778,4.415-1.779c1.841-1.408,3.457-3.046,4.919-4.839c1.089-1.336,2.104-2.727,2.979-4.215
			C39.896,6.288,39.911,6.266,39.927,6.244z"/>
		<path fill-rule="evenodd" clip-rule="evenodd" fill="#E31D34" d="M44.062,25.146c0.047,0.108,0.084,0.223,0.145,0.324
			c0.729,1.21,1.459,2.42,2.195,3.626c0.111,0.181,0.146,0.347,0.106,0.563c-0.575,3.153-1.141,6.307-1.704,9.462
			c-0.031,0.176-0.033,0.359-0.03,0.539c0.067,3.871,0.138,7.742,0.206,11.613c0.002,0.107,0.001,0.216,0.001,0.404
			c-0.099-0.147-0.159-0.231-0.213-0.318c-1.773-2.909-3.547-5.817-5.32-8.727c-0.251-0.411-0.265-0.412-0.566-0.022
			c-3.865,4.996-7.731,9.992-11.598,14.988c-0.066,0.085-0.135,0.169-0.247,0.311c-0.063-0.725-0.123-1.386-0.181-2.047
			c-0.175-2.037-0.35-4.075-0.523-6.112c-0.127-1.499-0.252-2.997-0.383-4.495c-0.01-0.111-0.06-0.221-0.091-0.33
			c-0.102,0.051-0.219,0.084-0.303,0.156c-1.225,1.053-2.444,2.111-3.665,3.168c-0.075,0.064-0.154,0.126-0.239,0.196
			c-1.192-1.091-2.376-2.173-3.559-3.256c-1.177-1.077-2.356-2.149-3.525-3.234c-0.193-0.181-0.311-0.175-0.49,0.015
			c-3.145,3.308-6.295,6.609-9.444,9.913c-1.35,1.415-2.698,2.833-4.049,4.247c-0.047,0.05-0.104,0.09-0.157,0.133
			c0.008-0.02,0.005-0.038-0.008-0.055c1.598-5.562,3.201-11.121,4.788-16.686c0.152-0.531,0.385-0.994,0.711-1.436
			c1.821-2.47,3.643-4.938,5.427-7.435c0.468-0.655,0.804-1.407,1.191-2.119c0.636-1.17,1.271-2.342,1.893-3.52
			c0.108-0.208,0.243-0.304,0.468-0.352c1.744-0.368,3.487-0.744,5.227-1.133c0.139-0.031,0.293-0.16,0.365-0.287
			c0.254-0.442,0.475-0.902,0.708-1.355c1.312,0.729,2.612,1.479,3.938,2.181c1.41,0.747,2.817,0.611,4.197-0.122
			c0.69-0.366,1.182-0.912,1.381-1.663c0.308-1.164,0.281-1.366-0.657-2.026c-0.898-0.632-1.875-1.153-2.817-1.723
			c-0.394-0.238-0.792-0.469-1.177-0.721c-0.084-0.055-0.17-0.199-0.155-0.286c0.015-0.092,0.136-0.195,0.234-0.236
			c0.114-0.048,0.254-0.041,0.384-0.044c0.279-0.007,0.56-0.004,0.84-0.006c0.078,0.067,0.146,0.167,0.235,0.195
			c2.674,0.868,5.31,1.839,7.922,2.877c0.281,0.112,0.63,0.054,0.948,0.075c0.407,0.467,0.758,1.005,1.233,1.387
			C39.604,23.301,41.698,24.482,44.062,25.146z M27.498,25.47c0,0.123,0,0.212,0,0.302c0,3.069-0.002,6.139,0.004,9.208
			c0.001,0.41,0.02,0.823,0.078,1.229c0.306,2.109,1.332,3.727,3.315,4.616c1.947,0.874,3.988,0.898,6.041,0.473
			c1.578-0.327,2.896-1.1,3.801-2.479c0.752-1.145,1.03-2.429,1.036-3.772c0.014-3.1,0.005-6.199,0.004-9.299
			c0-0.087-0.01-0.174-0.017-0.271c-1.186,0-2.353,0-3.546,0c0,0.141,0,0.26,0,0.378c0,2.929,0.005,5.858-0.004,8.788
			c-0.002,0.408-0.031,0.823-0.106,1.225c-0.251,1.332-1.006,2.229-2.345,2.568c-0.75,0.191-1.512,0.188-2.264,0.005
			c-1.11-0.27-1.882-0.942-2.206-2.041c-0.149-0.511-0.219-1.063-0.222-1.597c-0.021-2.988-0.01-5.978-0.01-8.967
			c0-0.117,0-0.234,0-0.366C29.86,25.47,28.702,25.47,27.498,25.47z"/>
		<path fill-rule="evenodd" clip-rule="evenodd" fill="#1F1B20" d="M27.365,17.24c-0.28,0.001-0.561-0.001-0.84,0.006
			c-0.13,0.003-0.27-0.004-0.384,0.044c-0.099,0.042-0.22,0.145-0.234,0.236c-0.015,0.086,0.071,0.23,0.155,0.286
			c0.385,0.252,0.783,0.483,1.177,0.721c0.942,0.57,1.919,1.09,2.817,1.723c0.938,0.66,0.965,0.862,0.657,2.026
			c-0.199,0.751-0.69,1.297-1.381,1.663c-1.38,0.733-2.787,0.869-4.197,0.122c-1.326-0.702-2.627-1.452-3.938-2.181
			c-0.074-0.106-0.128-0.239-0.226-0.313c-0.939-0.716-1.913-1.39-2.823-2.141c-0.851-0.701-1.498-1.585-1.962-2.592
			c-0.739-1.607-0.349-3.391,1.006-4.537c1.169-0.989,2.563-1.301,4.055-1.313c1.016-0.008,1.983,0.249,2.949,0.511
			c3.204,0.871,6.24,0.458,9.143-1.131c2.147-1.175,4.185-2.52,6.19-3.914c0.082-0.057,0.168-0.107,0.252-0.16
			C39.814,6.3,39.847,6.305,39.88,6.31c-0.875,1.488-1.891,2.878-2.979,4.215c-1.462,1.793-3.078,3.431-4.919,4.839
			c-1.309,1.001-2.745,1.676-4.415,1.779C27.497,17.147,27.432,17.207,27.365,17.24z"/>
		<path fill-rule="evenodd" clip-rule="evenodd" fill="#1F1B20" d="M44.062,25.146c-2.363-0.664-4.458-1.845-6.357-3.37
			c-0.476-0.382-0.826-0.92-1.233-1.387c-0.021-0.111-0.024-0.23-0.067-0.333c-0.147-0.36-0.349-0.702-0.457-1.072
			c-0.259-0.889,0.067-1.636,0.887-2.073c0.803-0.428,1.675-0.502,2.569-0.467c1.312,0.051,2.485,0.583,3.685,1.027
			c2.015,0.749,4.014,1.545,6.115,2.04c2.207,0.519,4.247,0.194,6.14-1.075c2.775-1.861,5.481-3.812,7.989-6.025
			c0.037-0.033,0.078-0.062,0.117-0.092c0.024,0.024,0.049,0.048,0.072,0.072c-1.262,2.953-2.65,5.831-4.826,8.251
			c-2.457,2.734-5.521,4.311-9.149,4.814c-1.71,0.238-3.396,0.061-5.067-0.329C44.348,25.096,44.2,25.137,44.062,25.146z"/>
		<path fill-rule="evenodd" clip-rule="evenodd" fill="#5D5A5F" d="M63.521,12.389c-0.023-0.024-0.048-0.048-0.072-0.072
			c0.043-0.037,0.085-0.075,0.128-0.112c0.004,0.021,0.009,0.043,0.013,0.065C63.566,12.31,63.543,12.35,63.521,12.389z"/>
		<path fill-rule="evenodd" clip-rule="evenodd" fill="#838186" d="M39.848,6.232c0.035-0.024,0.07-0.048,0.106-0.072
			c-0.01,0.028-0.019,0.056-0.027,0.083C39.9,6.24,39.874,6.236,39.848,6.232z"/>
		<path fill-rule="evenodd" clip-rule="evenodd" fill="#353237" d="M39.848,6.232c0.026,0.004,0.053,0.008,0.079,0.012
			c-0.016,0.021-0.031,0.043-0.047,0.065c-0.033-0.005-0.065-0.009-0.099-0.014C39.804,6.274,39.826,6.253,39.848,6.232z"/>
		<path fill-rule="evenodd" clip-rule="evenodd" fill="#A7A6AA" d="M63.589,12.271c-0.004-0.022-0.009-0.043-0.013-0.065
			c0.014-0.01,0.027-0.021,0.041-0.031C63.607,12.207,63.599,12.238,63.589,12.271z"/>
		<path fill-rule="evenodd" clip-rule="evenodd" fill="#EF9CA9" d="M0.419,56.207c0.013,0.017,0.016,0.035,0.008,0.055
			c-0.015,0.01-0.03,0.02-0.045,0.029C0.395,56.263,0.407,56.234,0.419,56.207z"/>
		<path fill-rule="evenodd" clip-rule="evenodd" fill="#1F1B20" d="M27.498,25.47c1.204,0,2.362,0,3.561,0c0,0.132,0,0.249,0,0.366
			c0,2.989-0.011,5.979,0.01,8.967c0.003,0.534,0.072,1.086,0.222,1.597c0.324,1.099,1.096,1.771,2.206,2.041
			c0.752,0.183,1.514,0.187,2.264-0.005c1.339-0.34,2.094-1.236,2.345-2.568c0.075-0.401,0.104-0.816,0.106-1.225
			c0.009-2.93,0.004-5.858,0.004-8.788c0-0.119,0-0.238,0-0.378c1.193,0,2.36,0,3.546,0c0.007,0.097,0.017,0.185,0.017,0.271
			c0.001,3.1,0.01,6.199-0.004,9.299c-0.006,1.344-0.284,2.628-1.036,3.772c-0.905,1.379-2.223,2.151-3.801,2.479
			c-2.053,0.426-4.094,0.401-6.041-0.473c-1.983-0.89-3.01-2.507-3.315-4.616c-0.059-0.405-0.077-0.818-0.078-1.229
			c-0.006-3.07-0.004-6.139-0.004-9.208C27.498,25.683,27.498,25.593,27.498,25.47z"/>
	</g>
</g>
</svg>
