<?xml version="1.0" encoding="utf-8"?>
<!-- Generator: Adobe Illustrator 23.0.2, SVG Export Plug-In . SVG Version: 6.00 Build 0)  -->
<svg version="1.1" id="Layer_1" xmlns="http://www.w3.org/2000/svg" xmlns:xlink="http://www.w3.org/1999/xlink" x="0px" y="0px"
	 width="64px" height="64px" viewBox="0 0 64 64" enable-background="new 0 0 64 64" xml:space="preserve">
<g>
	<g>
		<path fill="#17426A" d="M10.746,33.627c-1.911-2.481-3.092-5.28-3.685-8.347c-0.31-1.603-0.274-3.24-0.517-4.844
			c-0.557-3.678-2.307-6.821-4.546-9.719C1.442,9.999,0.823,9.33,0.233,8.638c0.034-0.044,0.068-0.088,0.102-0.132
			c4.685,1.862,8.583,4.679,11.104,9.162c0.459,0.816,0.821,1.679,1.127,2.562c0.991,2.864,2.703,5.224,4.957,7.22
			c1.493,1.322,3.029,2.606,4.096,4.335c1.464,2.371,2.261,4.941,2.45,7.724c0.285,4.201,3.828,7.449,8.022,7.417
			c4.114-0.032,7.552-3.369,7.835-7.56c0.288-4.267,1.934-7.891,5.191-10.732c1.3-1.134,2.579-2.287,3.669-3.636
			c1.015-1.257,1.841-2.628,2.356-4.152c1.924-5.697,5.925-9.396,11.264-11.83c0.462-0.21,0.933-0.4,1.594-0.682
			c-0.839,0.987-1.571,1.774-2.218,2.625c-2.108,2.774-3.745,5.785-4.331,9.265c-0.274,1.625-0.219,3.289-0.516,4.919
			c-0.565,3.107-1.809,5.912-3.645,8.467c-0.04,0.055-0.109,0.089-0.197,0.159c0.016-0.64,0.451-1.18,0.274-1.806
			c0.033,0.002,0.066,0.003,0.099,0.005c0-0.021-0.001-0.043-0.001-0.064c-0.029,0.025-0.059,0.051-0.088,0.076
			c-1.232,1.341-2.028,2.88-2.09,4.732c-0.178,5.317-1.407,10.298-4.865,14.492c-3.071,3.724-7.114,5.683-11.899,6.068
			c-3.256,0.262-6.5,0.184-9.626-0.948c-5.375-1.945-8.785-5.805-10.697-11.084c-0.997-2.752-1.461-5.609-1.513-8.539
			c-0.033-1.892-0.97-3.4-2.179-4.951c0.004,0.729,0.225,1.25,0.338,1.791C10.81,33.568,10.778,33.597,10.746,33.627z"/>
		<path fill="#17426A" d="M50.942,6.673c0,1.947-0.084,3.906,0.018,5.856c0.196,3.763-1.156,6.981-3.281,9.958
			c-0.732,1.026-1.569,1.951-2.564,2.743c-2.28,1.813-4.069,4.042-5.483,6.806c-0.037-0.689-0.087-1.189-0.088-1.69
			c-0.007-3.352,0.003-6.705-0.012-10.057c-0.002-0.397,0.073-0.61,0.499-0.738c5.818-1.754,9.07-5.854,10.542-11.575
			C50.686,7.536,50.677,7.057,50.942,6.673z"/>
		<path fill="#17426A" d="M13.011,6.605c0.632,2.923,1.649,5.634,3.502,7.99c1.886,2.399,4.3,4.027,7.211,4.901
			c0.512,0.154,0.698,0.333,0.694,0.887c-0.027,3.817-0.014,7.634-0.014,11.682c-0.24-0.4-0.376-0.61-0.497-0.829
			c-1.325-2.406-3.165-4.352-5.207-6.176c-3.455-3.086-5.6-6.891-5.683-11.649C12.979,11.142,13.011,8.873,13.011,6.605z"/>
		<path fill="#17426A" d="M0.233,8.638C0.155,8.596,0.078,8.555,0,8.514c0.109-0.099,0.221-0.072,0.335-0.008
			C0.301,8.549,0.267,8.593,0.233,8.638z"/>
		<path fill="#17426A" d="M10.844,33.54c0.06,0.113,0.149,0.227-0.012,0.331c-0.029-0.081-0.057-0.163-0.086-0.244
			C10.778,33.597,10.81,33.568,10.844,33.54z"/>
		<path fill="#FEFEFE" d="M53.376,31.978c0.029-0.025,0.059-0.051,0.088-0.076c0,0.021,0.001,0.043,0.001,0.064
			c-0.033-0.001-0.066-0.003-0.099-0.005C53.366,31.961,53.376,31.978,53.376,31.978z"/>
	</g>
</g>
</svg>
