<?xml version="1.0" encoding="iso-8859-1"?>
<!-- Generator: Adobe Illustrator 16.0.0, SVG Export Plug-In . SVG Version: 6.00 Build 0)  -->
<!DOCTYPE svg PUBLIC "-//W3C//DTD SVG 1.1//EN" "http://www.w3.org/Graphics/SVG/1.1/DTD/svg11.dtd">
<svg version="1.1" id="Layer_1" xmlns="http://www.w3.org/2000/svg" xmlns:xlink="http://www.w3.org/1999/xlink" x="0px" y="0px"
	 width="64px" height="64px" viewBox="0 0 64 64" style="enable-background:new 0 0 64 64;" xml:space="preserve">
<g>
	<path style="fill-rule:evenodd;clip-rule:evenodd;fill:#333333;" d="M48.154,44.345c0.596,2.384,1.011,4.805,1.298,7.24
		c0.436,3.691,0.555,7.398,0.214,11.109c-0.04,0.436-0.103,0.87-0.155,1.306c-0.099,0-0.197,0-0.296,0
		c-0.54-2.521-1.499-4.904-2.434-7.291c-1.061-2.707-2.205-5.381-3.31-8.069c-0.074-0.18-0.124-0.368-0.186-0.553
		c-0.152-0.381,0.076-0.618,0.344-0.801c1.273-0.87,2.47-1.847,3.744-2.715C47.597,44.42,47.814,44.143,48.154,44.345z"/>
	<path style="fill-rule:evenodd;clip-rule:evenodd;fill:#A6252C;" d="M58.229,14.049c-0.048,0.001-0.097,0.003-0.146,0.004
		c-0.916,0.335-1.627,0.996-2.398,1.549c-2.135,1.528-4.218,3.127-6.361,4.644c-0.345,0.245-0.617,0.559-0.896,0.87
		c-0.206,0.166-0.42,0.3-0.699,0.178c-0.739,0.628-1.478,1.255-2.216,1.883c-0.64,0.226-1.088,0.734-1.615,1.12
		c-3.34,2.438-6.683,4.873-10.016,7.321c-0.101,0.073-0.201,0.144-0.329,0.154c-0.202-0.203-0.358-0.438-0.454-0.71
		c-0.179-0.356,0.12-0.483,0.323-0.635c1.906-1.422,3.87-2.768,5.748-4.229c0.217-0.169,0.456-0.282,0.731-0.313
		c0.451-0.396,0.901-0.793,1.353-1.189c0.918-0.479,1.702-1.154,2.535-1.754c3.212-2.313,6.37-4.698,9.581-7.013
		c1.095-0.79,2.222-1.542,3.233-2.445c0.522-0.235,1.057-0.37,1.625-0.174C58.229,13.556,58.229,13.802,58.229,14.049z"/>
	<path style="fill-rule:evenodd;clip-rule:evenodd;fill:#971D21;" d="M5.77,0.019c0.303-0.062,0.581,0.038,0.864,0.124
		c5.315,1.614,10.144,4.188,14.649,7.405c0.199,0.299-0.04,0.453-0.219,0.601c-1.188,0.974-2.47,1.818-3.699,2.737
		c-0.16,0.12-0.337,0.206-0.535,0.067c-2.771-2.761-5.538-5.524-8.314-8.279C7.612,1.777,6.686,0.903,5.77,0.019z"/>
	<path style="fill-rule:evenodd;clip-rule:evenodd;fill:#CD2029;" d="M32.851,17.58c1.136,1.12,2.215,2.291,3.174,3.568
		c-0.062,0.331-0.345,0.468-0.579,0.637c-1.797,1.293-3.576,2.61-5.365,3.914c-0.119,0.087-0.232,0.185-0.387,0.2
		c-1.021-1.34-2.041-2.68-3.062-4.02c1.824-1.498,3.822-2.763,5.673-4.224C32.472,17.524,32.65,17.472,32.851,17.58z"/>
	<path style="fill-rule:evenodd;clip-rule:evenodd;fill:#CA2029;" d="M32.851,17.58c-1.022,0.573-1.905,1.344-2.853,2.021
		c-0.994,0.711-1.961,1.458-2.949,2.176c-0.107,0.078-0.276,0.071-0.417,0.103c-0.51-0.623-1.02-1.245-1.53-1.868
		c-0.097-0.29,0.149-0.395,0.309-0.515c1.74-1.305,3.548-2.517,5.261-3.859c0.056-0.044,0.137-0.049,0.21-0.06
		C31.607,16.178,32.245,16.863,32.851,17.58z"/>
	<path style="fill-rule:evenodd;clip-rule:evenodd;fill:#C72028;" d="M30.882,15.578c-0.881,0.964-2.027,1.586-3.047,2.371
		c-0.904,0.696-1.892,1.281-2.732,2.063c-0.488-0.558-0.976-1.116-1.464-1.674c0.136-0.346,0.464-0.496,0.737-0.689
		c1.436-1.023,2.832-2.101,4.278-3.107c0.222-0.155,0.375-0.389,0.618-0.515C29.863,14.486,30.391,15.014,30.882,15.578z"/>
	<path style="fill-rule:evenodd;clip-rule:evenodd;fill:#C21F27;" d="M29.271,14.026c-0.004,0.245-0.146,0.408-0.331,0.542
		c-1.657,1.202-3.315,2.404-4.975,3.603c-0.098,0.071-0.217,0.112-0.327,0.167c-0.388-0.445-0.775-0.891-1.163-1.336
		c1.723-1.361,3.509-2.636,5.288-3.922c0.102-0.073,0.227-0.086,0.343-0.122C28.534,13.271,28.933,13.615,29.271,14.026z"/>
	<path style="fill-rule:evenodd;clip-rule:evenodd;fill:#A1252C;" d="M33.554,31.771c0.806-0.902,1.863-1.486,2.816-2.197
		c2.796-2.085,5.628-4.121,8.448-6.173c0.201-0.146,0.381-0.406,0.695-0.226c-1.184,1.179-2.366,2.357-3.55,3.537
		c-0.986,0.628-1.894,1.366-2.843,2.047c-1.533,1.098-3.054,2.214-4.566,3.341c-0.176,0.13-0.344,0.28-0.576,0.305
		C33.775,32.235,33.646,32.017,33.554,31.771z"/>
	<path style="fill-rule:evenodd;clip-rule:evenodd;fill:#9D262C;" d="M57.32,15.379c-0.313,0.678-0.807,1.226-1.292,1.778
		c-2.187,1.656-4.387,3.293-6.622,4.882c-1.118,0.794-2.191,1.652-3.323,2.427c-0.337,0.231-0.671,0.622-1.178,0.363
		c0.685-0.886,1.431-1.718,2.217-2.514c1.763-1.068,3.355-2.376,5.028-3.571c1.454-1.04,2.882-2.117,4.333-3.162
		C56.726,15.408,56.96,15.107,57.32,15.379z"/>
	<path style="fill-rule:evenodd;clip-rule:evenodd;fill:#8F282D;" d="M50.415,23.66c-0.695,0.869-1.43,1.703-2.243,2.466
		c-0.992,0.538-1.831,1.295-2.74,1.95c-1.99,1.437-3.954,2.91-5.949,4.342c-0.299,0.214-0.614,0.538-1.053,0.252
		c0.396-0.64,0.87-1.218,1.374-1.773c2.266-1.641,4.509-3.312,6.767-4.963c0.95-0.696,1.915-1.37,2.863-2.07
		C49.718,23.653,50.014,23.362,50.415,23.66z"/>
	<path style="fill-rule:evenodd;clip-rule:evenodd;fill:#99262C;" d="M44.905,24.829c1.219-0.297,2.027-1.252,3.015-1.911
		c1.462-0.978,2.848-2.069,4.266-3.113c1.023-0.754,2.05-1.504,3.065-2.269c0.239-0.181,0.465-0.361,0.777-0.379
		c-0.544,0.72-1.08,1.446-1.723,2.085c-0.771,0.39-1.381,1.007-2.069,1.511c-2.712,1.983-5.438,3.946-8.151,5.929
		c-0.31,0.226-0.609,0.62-1.099,0.365C43.576,26.264,44.208,25.519,44.905,24.829z"/>
	<path style="fill-rule:evenodd;clip-rule:evenodd;fill:#BE1F27;" d="M28.106,12.958c-1.674,1.388-3.48,2.601-5.22,3.9
		c-0.111,0.083-0.273,0.098-0.411,0.144c-0.31-0.341-0.619-0.681-0.928-1.021c0.966-0.857,2.066-1.536,3.099-2.307
		c0.778-0.58,1.514-1.225,2.395-1.656C27.396,12.331,27.751,12.645,28.106,12.958z"/>
	<path style="fill-rule:evenodd;clip-rule:evenodd;fill:#96272D;" d="M42.986,27.047c1.096-0.31,1.853-1.156,2.737-1.783
		c2.665-1.887,5.273-3.853,7.905-5.785c0.199-0.146,0.413-0.267,0.677-0.236c-0.568,0.633-1.137,1.267-1.705,1.9
		c-2.499,2.077-5.221,3.854-7.821,5.792c-0.77,0.573-1.552,1.128-2.306,1.721c-0.29,0.228-0.586,0.49-0.974,0.161
		C41.943,28.184,42.44,27.594,42.986,27.047z"/>
	<path style="fill-rule:evenodd;clip-rule:evenodd;fill:#92272D;" d="M41.5,28.816c0.271,0.016,0.511-0.006,0.758-0.189
		c2.517-1.868,5.03-3.742,7.581-5.563c0.911-0.651,1.717-1.461,2.762-1.921c-0.694,0.869-1.374,1.75-2.186,2.518
		c-0.343-0.03-0.605,0.132-0.87,0.327c-2.855,2.104-5.713,4.205-8.576,6.298c-0.354,0.26-0.723,0.511-1.165,0.611
		C40.324,30.167,40.876,29.463,41.5,28.816z"/>
	<path style="fill-rule:evenodd;clip-rule:evenodd;fill:#B91F26;" d="M27.041,12.018c-0.838,0.864-1.871,1.48-2.837,2.176
		c-0.865,0.621-1.631,1.401-2.657,1.787c-0.284-0.299-0.567-0.599-0.851-0.898c0.246-0.383,0.627-0.617,0.979-0.882
		c1.197-0.903,2.424-1.766,3.617-2.676c0.227-0.173,0.448-0.406,0.788-0.31C26.453,11.419,26.755,11.708,27.041,12.018z"/>
	<path style="fill-rule:evenodd;clip-rule:evenodd;fill:#8B282D;" d="M38.43,32.67c0.938-0.113,1.537-0.823,2.246-1.318
		c1.282-0.896,2.511-1.867,3.77-2.798c1.002-0.741,2.012-1.473,3.025-2.197c0.202-0.144,0.384-0.413,0.701-0.23
		c-0.634,0.701-1.16,1.496-1.879,2.123c-1.683,1.264-3.368,2.524-5.086,3.74c-1.12,0.793-2.188,1.657-3.326,2.424
		c-0.211,0.142-0.507,0.563-0.784,0.031C37.485,33.811,37.929,33.219,38.43,32.67z"/>
	<path style="fill-rule:evenodd;clip-rule:evenodd;fill:#B4232B;" d="M38.272,23.95c0.232,0.216,0.524,0.386,0.582,0.739
		c-0.71,0.799-1.626,1.337-2.485,1.94c-1.404,0.984-2.717,2.095-4.18,2.995c-0.262-0.27-0.455-0.584-0.607-0.926
		c0.077-0.282,0.302-0.436,0.521-0.593c1.766-1.271,3.501-2.584,5.275-3.847C37.634,24.077,37.865,23.733,38.272,23.95z"/>
	<path style="fill-rule:evenodd;clip-rule:evenodd;fill:#84292E;" d="M44.332,30.421c-0.639,0.847-1.312,1.663-2.049,2.427
		c-1.234,0.713-2.341,1.608-3.485,2.448c-1.032,0.757-2.063,1.516-3.107,2.256c-0.228,0.162-0.474,0.397-0.791,0.143
		c0.279-0.585,0.63-1.123,1.038-1.626c2.427-1.892,5.01-3.57,7.438-5.462C43.614,30.42,43.912,29.931,44.332,30.421z"/>
	<path style="fill-rule:evenodd;clip-rule:evenodd;fill:#7F2A2E;" d="M34.899,37.694c0.818-0.127,1.337-0.765,1.962-1.198
		c1.696-1.179,3.345-2.427,5.009-3.65c0.149-0.11,0.276-0.227,0.413,0.002c-0.639,0.78-1.277,1.561-1.916,2.341
		c-1.576,1.005-3.034,2.175-4.557,3.255c-0.36,0.257-0.716,0.521-1.095,0.749c-0.223,0.133-0.45,0.335-0.737,0.123
		C34.208,38.731,34.542,38.206,34.899,37.694z"/>
	<path style="fill-rule:evenodd;clip-rule:evenodd;fill:#AB242B;" d="M39.902,25.885c-2.133,1.564-4.266,3.127-6.395,4.695
		c-0.17,0.124-0.411,0.204-0.408,0.481c-0.203-0.208-0.36-0.445-0.453-0.723c-0.098-0.402,0.22-0.584,0.458-0.762
		c1.836-1.361,3.672-2.722,5.528-4.055c0.191-0.138,0.387-0.318,0.665-0.24C39.5,25.483,39.701,25.685,39.902,25.885z"/>
	<path style="fill-rule:evenodd;clip-rule:evenodd;fill:#A51E23;" d="M22.314,8.313c0.413,0.144,0.721,0.438,1.03,0.729
		c0.021,0.333-0.263,0.46-0.461,0.604c-1.321,0.966-2.613,1.969-3.937,2.931c-0.135,0.099-0.274,0.216-0.465,0.139
		c-0.255-0.28-0.509-0.561-0.764-0.842c-0.109-0.273,0.089-0.418,0.258-0.547c1.311-0.993,2.668-1.923,3.989-2.903
		C22.066,8.35,22.197,8.347,22.314,8.313z"/>
	<path style="fill-rule:evenodd;clip-rule:evenodd;fill:#C3212A;" d="M36.517,21.707c0.255,0.198,0.445,0.449,0.596,0.733
		c0.095,0.217-0.078,0.321-0.202,0.42c-2.007,1.583-4.073,3.085-6.185,4.523c-0.261-0.264-0.485-0.552-0.627-0.898
		c0.385-0.567,0.999-0.858,1.533-1.237C33.271,24.083,34.828,22.805,36.517,21.707z"/>
	<path style="fill-rule:evenodd;clip-rule:evenodd;fill:#C82129;" d="M36.517,21.707c-0.654,0.887-1.664,1.328-2.5,1.985
		c-1.262,0.99-2.545,1.956-3.919,2.793c-0.181-0.163-0.328-0.35-0.403-0.586c0.739-0.872,1.768-1.377,2.649-2.069
		c1.193-0.937,2.452-1.792,3.682-2.682C36.171,21.351,36.441,21.442,36.517,21.707z"/>
	<path style="fill-rule:evenodd;clip-rule:evenodd;fill:#BA222A;" d="M38.272,23.95c-1.073,0.453-1.888,1.294-2.843,1.926
		c-1.326,0.876-2.569,1.876-3.848,2.823c-0.132-0.203-0.265-0.406-0.397-0.61c-0.076-0.368,0.208-0.524,0.434-0.691
		c1.807-1.343,3.624-2.673,5.456-3.981c0.188-0.135,0.372-0.342,0.655-0.223C37.961,23.409,38.198,23.621,38.272,23.95z"/>
	<path style="fill-rule:evenodd;clip-rule:evenodd;fill:#9D262C;" d="M33.979,32.405c1.018-0.998,2.249-1.718,3.378-2.571
		c1.367-1.033,2.776-2.012,4.169-3.013c0.13-0.094,0.242-0.278,0.438-0.108c-0.935,0.999-1.87,1.999-2.805,2.999
		c-1.355,0.93-2.668,1.918-3.994,2.887c-0.249,0.182-0.467,0.459-0.841,0.36C34.182,32.792,34.023,32.634,33.979,32.405z"/>
	<path style="fill-rule:evenodd;clip-rule:evenodd;fill:#BE222A;" d="M37.729,23.193c-2.037,1.468-4.077,2.933-6.108,4.408
		c-0.172,0.125-0.292,0.323-0.437,0.487c-0.206-0.2-0.364-0.433-0.459-0.705c0.795-0.906,1.842-1.502,2.79-2.214
		c1.204-0.904,2.475-1.719,3.598-2.729C37.318,22.691,37.523,22.942,37.729,23.193z"/>
	<path style="fill-rule:evenodd;clip-rule:evenodd;fill:#B41F25;" d="M26.08,11.215c-1.629,1.196-3.26,2.391-4.885,3.594
		c-0.157,0.116-0.279,0.277-0.499,0.273c-0.204-0.234-0.408-0.468-0.611-0.702c-0.092-0.204,0.038-0.337,0.175-0.433
		c1.647-1.142,3.193-2.424,4.888-3.499C25.499,10.655,25.813,10.905,26.08,11.215z"/>
	<path style="fill-rule:evenodd;clip-rule:evenodd;fill:#602E30;" d="M40.2,41.665c-0.658,0.148-1.107,0.61-1.553,1.065
		c-0.202,0.206-0.361,0.455-0.626,0.594c-1.91,1.377-3.826,2.748-5.702,4.172c-0.197,0.128-0.391,0.259-0.564,0.419
		c-0.051,0.045-0.106,0.083-0.163,0.12c-0.525,0.308-0.991,0.697-1.474,1.064c-0.059,0.04-0.123,0.068-0.191,0.091
		c-0.185,0.04-0.359,0.035-0.499-0.116c0.097-0.414,0.23-0.813,0.443-1.183c1.191-0.839,2.231-1.904,3.637-2.422
		c0.065-0.022,0.134-0.036,0.202-0.044c0.396-0.021,0.675-0.274,0.967-0.495c1.627-1.227,3.274-2.424,4.93-3.61
		c0.225-0.161,0.434-0.441,0.778-0.232C40.497,41.336,40.402,41.518,40.2,41.665z"/>
	<path style="fill-rule:evenodd;clip-rule:evenodd;fill:#87292E;" d="M44.332,30.421c-0.568-0.123-0.856,0.339-1.227,0.606
		c-2.235,1.614-4.46,3.243-6.693,4.858c-0.133,0.097-0.315,0.124-0.475,0.183c0.328-0.583,0.721-1.12,1.159-1.624
		c0.345,0.26,0.534-0.066,0.744-0.22c2.563-1.866,5.119-3.739,7.672-5.618c0.24-0.177,0.465-0.359,0.78-0.357
		C45.68,29.009,45.061,29.765,44.332,30.421z"/>
	<path style="fill-rule:evenodd;clip-rule:evenodd;fill:#B0242B;" d="M39.299,25.282c-2.004,1.45-4.011,2.897-6.011,4.355
		c-0.256,0.187-0.498,0.403-0.641,0.701c-0.213-0.199-0.361-0.44-0.458-0.714c0.678-0.78,1.57-1.295,2.391-1.894
		c1.414-1.028,2.786-2.116,4.274-3.042C38.987,24.898,39.314,24.962,39.299,25.282z"/>
	<path style="fill-rule:evenodd;clip-rule:evenodd;fill:#7B2A2E;" d="M33.979,39.315c0.859-0.22,1.466-0.854,2.156-1.341
		c1.175-0.829,2.318-1.703,3.479-2.554c0.221-0.162,0.468-0.269,0.754-0.232c-0.535,0.692-1.07,1.385-1.605,2.077
		c-1.112,0.756-2.185,1.566-3.261,2.372c-0.549,0.412-1.104,0.815-1.669,1.205c-0.221,0.151-0.444,0.336-0.724,0.103
		C33.337,40.37,33.615,39.82,33.979,39.315z"/>
	<path style="fill-rule:evenodd;clip-rule:evenodd;fill:#A1252C;" d="M57.32,15.379c-0.838,0.151-1.365,0.82-2.005,1.272
		c-2.367,1.675-4.673,3.438-7.015,5.148c-0.344,0.251-0.681,0.586-1.179,0.516c0.133-0.382,0.666-0.526,0.607-1.022
		c0.201-0.1,0.403-0.199,0.604-0.299c2.927-2.157,5.845-4.328,8.802-6.444c0.248-0.178,0.462-0.488,0.821-0.198
		C57.745,14.693,57.533,15.036,57.32,15.379z"/>
	<path style="fill-rule:evenodd;clip-rule:evenodd;fill:#9D1D22;" d="M22.314,8.313c-1.282,1.126-2.745,2.012-4.095,3.047
		c-0.197,0.151-0.401,0.276-0.502,0.514c-0.341-0.263-0.635-0.572-0.888-0.921c0.928-0.44,1.666-1.159,2.512-1.72
		c0.566-0.374,1.079-0.829,1.629-1.229c0.169-0.123,0.308-0.235,0.312-0.457C21.69,7.719,22.003,8.015,22.314,8.313z"/>
	<path style="fill-rule:evenodd;clip-rule:evenodd;fill:#5C2E31;" d="M32.22,47.448c0.996-1.018,2.225-1.731,3.363-2.561
		c0.778-0.566,1.465-1.294,2.438-1.563c-1.001,1.023-1.919,2.127-2.996,3.075c-0.994,0.474-1.786,1.239-2.681,1.856
		c-0.824,0.568-1.631,1.167-2.436,1.765c-0.253,0.188-0.514,0.508-0.905,0.235c0.078-0.251,0.078-0.531,0.274-0.739
		c0.189-0.233,0.502-0.266,0.725-0.443c0.549-0.384,1.084-0.787,1.625-1.182C31.839,47.762,32.014,47.584,32.22,47.448z"/>
	<path style="fill-rule:evenodd;clip-rule:evenodd;fill:#423132;" d="M47.566,41.829c0.091,0.239,0.207,0.473,0.168,0.742
		c-0.785,0.742-1.709,1.303-2.566,1.948c-0.858,0.646-1.725,1.286-2.606,1.903c-0.232-0.31-0.364-0.665-0.469-1.032
		c0.048-0.209,0.206-0.327,0.365-0.445c1.463-1.08,2.942-2.139,4.404-3.221C47.091,41.556,47.413,41.26,47.566,41.829z"/>
	<path style="fill-rule:evenodd;clip-rule:evenodd;fill:#5D2E30;" d="M40.2,41.665c0.05-0.19,0.099-0.381,0.147-0.572
		c0.157-0.455,0.585-0.654,0.929-0.905c1.345-0.982,2.678-1.982,4.046-2.934c0.304-0.211,0.616-0.481,0.927-0.005
		c0.113,0.128,0.169,0.274,0.146,0.447c-0.114,0.256-0.316,0.427-0.533,0.595c-1.514,1.176-3.101,2.251-4.637,3.396
		c-0.216,0.161-0.441,0.317-0.733,0.303C40.395,41.882,40.297,41.773,40.2,41.665z"/>
	<path style="fill-rule:evenodd;clip-rule:evenodd;fill:#582F31;" d="M29.004,50.256c0.411,0.023,0.667-0.273,0.956-0.482
		c1.461-1.056,2.912-2.128,4.375-3.183c0.194-0.14,0.381-0.419,0.69-0.191c-0.629,0.748-1.257,1.496-1.886,2.243
		c-1.258,0.895-2.47,1.853-3.757,2.707c-0.258,0.171-0.47,0.449-0.837,0.382C28.698,51.239,28.851,50.748,29.004,50.256z"/>
	<path style="fill-rule:evenodd;clip-rule:evenodd;fill:#473132;" d="M47.566,41.829c-0.384-0.437-0.596,0.039-0.813,0.193
		c-1.564,1.107-3.109,2.242-4.66,3.368c-0.151-0.173-0.245-0.372-0.268-0.603c-0.169-0.27,0.039-0.42,0.205-0.545
		c1.585-1.195,3.183-2.376,4.82-3.498c0.12-0.082,0.258-0.146,0.415-0.092C47.366,41.046,47.467,41.438,47.566,41.829z"/>
	<path style="fill-rule:evenodd;clip-rule:evenodd;fill:#582E31;" d="M40.491,41.989c1.968-1.431,3.936-2.862,5.903-4.293
		c-0.059,0.343,0.317,0.549,0.28,0.885c-0.459,0.559-1.113,0.865-1.676,1.292c-1.343,1.019-2.728,1.982-4.065,3.008
		C40.717,42.618,40.587,42.313,40.491,41.989z"/>
	<path style="fill-rule:evenodd;clip-rule:evenodd;fill:#3D3232;" d="M42.562,46.423c0.011-0.152,0.054-0.289,0.186-0.384
		c1.569-1.129,3.138-2.259,4.71-3.383c0.075-0.054,0.185-0.059,0.277-0.085c0.168,0.322,0.212,0.676,0.263,1.028
		c-1.536,0.914-2.872,2.108-4.35,3.104c-0.251,0.17-0.461,0.466-0.836,0.321C42.675,46.846,42.566,46.656,42.562,46.423z"/>
	<path style="fill-rule:evenodd;clip-rule:evenodd;fill:#502F31;" d="M46.875,39.311c0.172,0.22,0.168,0.496,0.237,0.748
		c-1.83,1.399-3.628,2.844-5.606,4.038c-0.154-0.177-0.262-0.374-0.281-0.613c-0.178-0.387,0.149-0.53,0.363-0.697
		c1.484-1.158,3.058-2.196,4.555-3.338C46.351,39.289,46.587,39.118,46.875,39.311z"/>
	<path style="fill-rule:evenodd;clip-rule:evenodd;fill:#383233;" d="M42.812,47.024c1.596-0.99,3.042-2.188,4.559-3.288
		c0.205-0.148,0.36-0.346,0.627-0.137c0.052,0.248,0.104,0.497,0.157,0.745c-1.324,0.658-2.408,1.66-3.582,2.53
		c-0.465,0.344-1.191,0.461-1.286,1.212C43.06,47.764,42.915,47.403,42.812,47.024z"/>
	<path style="fill-rule:evenodd;clip-rule:evenodd;fill:#762B2F;" d="M33.108,40.945c0.637-0.033,1.018-0.537,1.481-0.856
		c1.198-0.825,2.353-1.717,3.511-2.599c0.209-0.159,0.4-0.268,0.661-0.225c-0.518,0.683-0.909,1.457-1.503,2.085
		c-0.352-0.017-0.587,0.221-0.83,0.41c-1.097,0.854-2.241,1.64-3.359,2.463c-0.201,0.147-0.395,0.403-0.705,0.198
		C32.542,41.896,32.802,41.408,33.108,40.945z"/>
	<path style="fill-rule:evenodd;clip-rule:evenodd;fill:#AA1E24;" d="M18.482,12.716c1.621-1.225,3.242-2.449,4.863-3.674
		c0.238,0.095,0.432,0.25,0.592,0.448c0.205,0.351-0.101,0.487-0.293,0.639c-1.315,1.031-2.708,1.958-4.043,2.962
		c-0.204,0.152-0.423,0.269-0.667,0.066C18.782,13.01,18.632,12.863,18.482,12.716z"/>
	<path style="fill-rule:evenodd;clip-rule:evenodd;fill:#542F31;" d="M46.875,39.311c-0.667,0.12-1.073,0.652-1.585,1.014
		c-1.156,0.815-2.311,1.635-3.442,2.483c-0.236,0.178-0.581,0.301-0.623,0.676c-0.167-0.167-0.257-0.371-0.291-0.603
		c0.005-0.247,0.151-0.407,0.337-0.54c1.69-1.207,3.381-2.415,5.074-3.618c0.096-0.067,0.22-0.095,0.33-0.142
		C46.799,38.809,46.876,39.049,46.875,39.311z"/>
	<path style="fill-rule:evenodd;clip-rule:evenodd;fill:#652D30;" d="M33.555,45.514c-0.158,0.455-0.658,0.33-0.977,0.556
		c-0.884,0.627-1.641,1.46-2.705,1.822c0.133-0.52,0.331-1.013,0.592-1.481c0.248-0.487,0.735-0.697,1.148-0.994
		c0.654-0.472,1.274-0.988,1.947-1.433c0.265-0.175,0.529-0.482,0.913-0.219c-0.193,0.386-0.386,0.771-0.579,1.157
		C33.956,45.22,33.72,45.346,33.555,45.514z"/>
	<path style="fill-rule:evenodd;clip-rule:evenodd;fill:#B11E25;" d="M25.148,10.448c-0.737,0.908-1.819,1.378-2.687,2.121
		c-0.757,0.649-1.681,1.081-2.377,1.811c-0.24-0.166-0.436-0.372-0.584-0.623c0.157-0.364,0.509-0.521,0.801-0.734
		c1.408-1.028,2.802-2.076,4.232-3.074C24.774,10.071,24.984,10.232,25.148,10.448z"/>
	<path style="fill-rule:evenodd;clip-rule:evenodd;fill:#722C30;" d="M32.364,42.422c0.961-0.486,1.754-1.216,2.633-1.822
		c0.562-0.389,1.101-0.81,1.649-1.216c0.197-0.146,0.391-0.348,0.612-0.033c-0.453,0.449-0.572,1.126-1.058,1.553
		c-1.23,0.711-2.287,1.665-3.46,2.455c-0.284,0.19-0.555,0.54-0.973,0.245C31.906,43.179,32.102,42.784,32.364,42.422z"/>
	<path style="fill-rule:evenodd;clip-rule:evenodd;fill:#4B3031;" d="M41.506,44.097c0.917-0.879,2.008-1.528,3.021-2.279
		c0.837-0.62,1.606-1.345,2.585-1.759c0.052,0.198,0.103,0.396,0.153,0.595c-1.584,1.141-3.173,2.273-4.745,3.428
		c-0.262,0.192-0.614,0.325-0.695,0.707C41.647,44.591,41.554,44.354,41.506,44.097z"/>
	<path style="fill-rule:evenodd;clip-rule:evenodd;fill:#AE1E24;" d="M24.534,9.948c-0.211,0.545-0.753,0.734-1.168,1.043
		c-1.271,0.944-2.574,1.847-3.864,2.766c-0.229-0.163-0.427-0.354-0.568-0.6c0.828-0.124,1.306-0.818,1.956-1.229
		c0.948-0.599,1.812-1.33,2.721-1.992c0.167-0.121,0.328-0.217,0.327-0.446C24.136,9.643,24.335,9.796,24.534,9.948z"/>
	<path style="fill-rule:evenodd;clip-rule:evenodd;fill:#99272D;" d="M34.324,32.959c1.308-0.944,2.608-1.896,3.925-2.828
		c0.271-0.19,0.521-0.468,0.91-0.419c-1.04,1.246-2.151,2.426-3.345,3.524C35.01,33.977,34.909,33.942,34.324,32.959z"/>
	<path style="fill-rule:evenodd;clip-rule:evenodd;fill:#6B2C2F;" d="M34.473,43.765c-0.733,0.087-1.173,0.671-1.736,1.04
		c-0.775,0.508-1.517,1.068-2.272,1.605c0.109-0.476,0.319-0.908,0.553-1.333c0.449-0.6,1.108-0.942,1.693-1.375
		c0.646-0.479,1.3-0.947,1.948-1.425c0.173-0.127,0.476-0.53,0.676,0.024C34.996,42.759,34.878,43.347,34.473,43.765z"/>
	<path style="fill-rule:evenodd;clip-rule:evenodd;fill:#6E2C2F;" d="M35.335,42.302c-0.379-0.313-0.582,0.107-0.769,0.253
		c-1.146,0.895-2.334,1.728-3.549,2.522c0.22-0.507,0.422-1.022,0.75-1.474c0.885-0.16,1.44-0.857,2.137-1.322
		c0.606-0.404,1.176-0.864,1.775-1.279c0.14-0.097,0.309-0.28,0.521-0.099C35.891,41.355,35.734,41.903,35.335,42.302z"/>
	<path style="fill-rule:evenodd;clip-rule:evenodd;fill:#543032;" d="M28.545,51.731c1.308-0.941,2.616-1.884,3.925-2.825
		c0.201-0.145,0.408-0.273,0.67-0.264c-0.58,0.672-1.001,1.468-1.644,2.091c-0.877,0.34-1.509,1.045-2.283,1.538
		c-0.276,0.176-0.513,0.499-0.888,0.186C28.354,52.202,28.4,51.952,28.545,51.731z"/>
	<path style="fill-rule:evenodd;clip-rule:evenodd;fill:#513032;" d="M28.325,52.457c0.779-0.017,1.145-0.735,1.756-1.043
		c0.295-0.148,0.521-0.431,0.804-0.609c0.173-0.109,0.37-0.391,0.61-0.071c-0.504,0.534-0.754,1.259-1.316,1.75
		c-0.516,0.35-0.954,0.813-1.518,1.09c-0.198,0.097-0.521,0.441-0.606-0.13C28.064,53.093,28.175,52.77,28.325,52.457z"/>
	<path style="fill-rule:evenodd;clip-rule:evenodd;fill:#4E3233;" d="M28.056,53.443c0.192,0.349,0.345,0.048,0.519-0.026
		c0.575-0.243,0.923-0.876,1.605-0.934c-0.488,0.763-1.019,1.494-1.644,2.149c-0.153,0.161-0.329,0.428-0.611,0.255
		c-0.229-0.14-0.144-0.404-0.106-0.609C27.87,53.995,27.974,53.722,28.056,53.443z"/>
	<path style="fill-rule:evenodd;clip-rule:evenodd;fill:#5D2F31;" d="M30.003,49.073c-0.152,0.295-0.373,0.478-0.725,0.443
		c0.051-0.147,0.102-0.295,0.152-0.442C29.621,49.073,29.812,49.073,30.003,49.073z"/>
	<path style="fill-rule:evenodd;clip-rule:evenodd;fill:#AB242B;" d="M56.604,13.483c-0.155,0.651-0.771,0.895-1.221,1.21
		c-2.785,1.947-5.449,4.061-8.223,6.021c-1.757,1.242-3.451,2.566-5.218,3.793c-0.226,0.157-0.444,0.18-0.688,0.188
		c4.127-3.778,8.362-7.418,13.213-10.265C55.141,14.036,55.832,13.663,56.604,13.483z"/>
	<path style="fill-rule:evenodd;clip-rule:evenodd;fill:#652D30;" d="M45.637,35.478c0.105,0.296,0.21,0.591,0.315,0.887
		c-0.538,0.58-1.206,0.996-1.836,1.462c-2.645,1.955-5.319,3.867-7.972,5.813c-0.441,0.323-0.827,0.877-1.52,0.706
		c0.814-1.079,1.678-2.116,2.588-3.116c2.491-1.815,4.979-3.634,7.469-5.451C44.952,35.58,45.199,35.191,45.637,35.478z"/>
	<path style="fill-rule:evenodd;clip-rule:evenodd;fill:#6C2C2F;" d="M45.637,35.478c-0.89,0.269-1.512,0.951-2.237,1.469
		c-1.892,1.348-3.757,2.735-5.637,4.101c-0.156,0.113-0.34,0.202-0.55,0.182c1.009-1.301,2.085-2.542,3.27-3.688
		c1.264-0.833,2.463-1.757,3.691-2.64c0.305-0.22,0.577-0.552,1.029-0.455C45.407,34.765,45.542,35.113,45.637,35.478z"/>
	<path style="fill-rule:evenodd;clip-rule:evenodd;fill:#612D30;" d="M34.625,44.345c1.031-0.386,1.812-1.156,2.684-1.78
		c2.45-1.753,4.876-3.541,7.319-5.306c0.431-0.312,0.764-0.772,1.324-0.895c0.158,0.275,0.271,0.565,0.297,0.885
		c-0.291-0.198-0.504-0.099-0.776,0.104c-1.696,1.263-3.414,2.496-5.125,3.739c-0.967,0.47-1.755,1.197-2.619,1.815
		c-1.126,0.805-2.229,1.643-3.353,2.45c-0.188,0.137-0.379,0.432-0.681,0.161c-0.044-0.28,0.174-0.396,0.341-0.545
		C34.232,44.765,34.429,44.555,34.625,44.345z"/>
	<path style="fill-rule:evenodd;clip-rule:evenodd;fill:#A2262C;" d="M57.957,14.352c-0.735,0.019-1.135,0.624-1.65,0.993
		c-2.477,1.772-4.916,3.597-7.375,5.394c-0.171,0.124-0.397,0.173-0.598,0.256c0.65-0.932,1.671-1.418,2.544-2.074
		c2.053-1.542,4.135-3.046,6.229-4.533c0.263-0.187,0.495-0.702,0.978-0.334C58.09,14.173,58.084,14.288,57.957,14.352z"/>
	<path style="fill-rule:evenodd;clip-rule:evenodd;fill:#712C30;" d="M45.203,34.446c-1.147,0.686-2.175,1.54-3.26,2.313
		c-0.453,0.323-0.885,0.689-1.461,0.781c1.108-1.271,2.32-2.432,3.745-3.346C44.601,33.956,45.047,33.712,45.203,34.446z"/>
	<path style="fill-rule:evenodd;clip-rule:evenodd;fill:#5D2F31;" d="M31.628,47.892c-0.45,0.521-0.979,0.931-1.625,1.182
		C30.453,48.553,30.982,48.142,31.628,47.892z"/>
	<path style="fill-rule:evenodd;clip-rule:evenodd;fill:#5D2F31;" d="M32.22,47.448c-0.13,0.236-0.292,0.432-0.591,0.443
		C31.758,47.654,31.92,47.459,32.22,47.448z"/>
</g>
</svg>
