<?xml version="1.0" encoding="iso-8859-1"?>
<!-- Generator: Adobe Illustrator 16.0.0, SVG Export Plug-In . SVG Version: 6.00 Build 0)  -->
<!DOCTYPE svg PUBLIC "-//W3C//DTD SVG 1.1//EN" "http://www.w3.org/Graphics/SVG/1.1/DTD/svg11.dtd">
<svg version="1.1" id="Layer_1" xmlns="http://www.w3.org/2000/svg" xmlns:xlink="http://www.w3.org/1999/xlink" x="0px" y="0px"
	 width="64px" height="64px" viewBox="0 0 64 64" style="enable-background:new 0 0 64 64;" xml:space="preserve">
<g>
	<linearGradient id="SVGID_2_" gradientUnits="userSpaceOnUse" x1="58.7813" y1="31.0293" x2="46.7043" y2="47.5107">
		<stop  offset="0" style="stop-color:#282626"/>
		<stop  offset="0.5485" style="stop-color:#535151"/>
		<stop  offset="1" style="stop-color:#727171"/>
	</linearGradient>
	<path style="fill-rule:evenodd;clip-rule:evenodd;fill:url(#SVGID_2_);" d="M47.894,37.637c0,0,0.666,1.208,0.685,4.189
		c0.026,3.809-1.522,5.941-1.522,5.941l7.236-2.361l3.428-11.274l-1.98-5.333L47.894,37.637z"/>
	<g>
		<g>
			<g>
				<radialGradient id="SVGID_3_" cx="3.3809" cy="36.2773" r="50.9132" gradientUnits="userSpaceOnUse">
					<stop  offset="0" style="stop-color:#9E9F9F"/>
					<stop  offset="0.7241" style="stop-color:#090808"/>
					<stop  offset="1" style="stop-color:#32302F"/>
				</radialGradient>
				<path style="fill-rule:evenodd;clip-rule:evenodd;fill:url(#SVGID_3_);" d="M38.448,53.101L12.624,39.236L4.092,19.278
					L1.579,30.095c0,0-1.573,6.292,1.828,13.56C9.17,55.97,22.425,63.46,34.029,63.46c7.821,0,12.645-3.504,12.645-3.504l9.37-7.236
					L38.448,53.101z"/>
			</g>
		</g>
	</g>
	<path style="fill-rule:evenodd;clip-rule:evenodd;fill:#9E9F9F;" d="M11.709,0.615L8.967,10.823l2.515-1.677L11.709,0.615z"/>
	<path style="fill-rule:evenodd;clip-rule:evenodd;fill:#9E9F9F;" d="M36.544,3.053L34.182,7.7l3.198,0.99L36.544,3.053z"/>
	<linearGradient id="SVGID_5_" gradientUnits="userSpaceOnUse" x1="29.1152" y1="10.3408" x2="29.1152" y2="21.4261">
		<stop  offset="0" style="stop-color:#020202"/>
		<stop  offset="0.2675" style="stop-color:#222120"/>
		<stop  offset="0.5508" style="stop-color:#3C3A39"/>
		<stop  offset="0.8041" style="stop-color:#4C4A49"/>
		<stop  offset="1" style="stop-color:#524F4E"/>
	</linearGradient>
	<path style="fill-rule:evenodd;clip-rule:evenodd;fill:url(#SVGID_5_);" d="M27.707,20.193c2.475,0.38,4.418,1.066,4.418,1.066
		l5.789-9.141L26.412,8.995l-6.095,2.057C20.317,11.052,25.231,19.812,27.707,20.193z"/>
	<linearGradient id="SVGID_6_" gradientUnits="userSpaceOnUse" x1="35.3242" y1="12.042" x2="35.3242" y2="32.6855">
		<stop  offset="0" style="stop-color:#423F3E"/>
		<stop  offset="1" style="stop-color:#727171"/>
	</linearGradient>
	<path style="fill-rule:evenodd;clip-rule:evenodd;fill:url(#SVGID_6_);" d="M31.973,21.259l5.18-9.217l1.523,20.644l-6.627-7.922
		L31.973,21.259z"/>
	<linearGradient id="SVGID_7_" gradientUnits="userSpaceOnUse" x1="47.7412" y1="15.165" x2="47.7412" y2="25.8296">
		<stop  offset="0" style="stop-color:#020202"/>
		<stop  offset="0.2675" style="stop-color:#222120"/>
		<stop  offset="0.5508" style="stop-color:#3C3A39"/>
		<stop  offset="0.8041" style="stop-color:#4C4A49"/>
		<stop  offset="1" style="stop-color:#524F4E"/>
	</linearGradient>
	<path style="fill-rule:evenodd;clip-rule:evenodd;fill:url(#SVGID_7_);" d="M50.407,25.677l1.601-2.666l-2.896-4.342l-5.638-3.504
		l0.762,10.665L50.407,25.677z"/>
	<g>
		<linearGradient id="SVGID_8_" gradientUnits="userSpaceOnUse" x1="53.6328" y1="24.0146" x2="43.9211" y2="37.2682">
			<stop  offset="0" style="stop-color:#010101"/>
			<stop  offset="0.1904" style="stop-color:#151414"/>
			<stop  offset="0.5037" style="stop-color:#2F2D2C"/>
			<stop  offset="0.7835" style="stop-color:#3F3D3C"/>
			<stop  offset="1" style="stop-color:#454241"/>
		</linearGradient>
		<polygon style="fill-rule:evenodd;clip-rule:evenodd;fill:url(#SVGID_8_);" points="56.958,23.087 51.778,22.935 49.722,25.753 
			54.901,25.448 		"/>
		<linearGradient id="SVGID_9_" gradientUnits="userSpaceOnUse" x1="54.5596" y1="24.6938" x2="44.8478" y2="37.9475">
			<stop  offset="0" style="stop-color:#010101"/>
			<stop  offset="0.1904" style="stop-color:#151414"/>
			<stop  offset="0.5037" style="stop-color:#2F2D2C"/>
			<stop  offset="0.7835" style="stop-color:#3F3D3C"/>
			<stop  offset="1" style="stop-color:#454241"/>
		</linearGradient>
		<polygon style="fill-rule:evenodd;clip-rule:evenodd;fill:url(#SVGID_9_);" points="45.837,38.704 48.121,38.475 55.663,30.248 
			44.923,30.781 		"/>
	</g>
	<linearGradient id="SVGID_10_" gradientUnits="userSpaceOnUse" x1="28.5068" y1="13.7935" x2="28.5068" y2="48.606">
		<stop  offset="0" style="stop-color:#000000"/>
		<stop  offset="1" style="stop-color:#595656"/>
	</linearGradient>
	<path style="fill-rule:evenodd;clip-rule:evenodd;fill:url(#SVGID_10_);" d="M12.776,25.525l14.244,18.434l8.609,4.647l8.988-0.533
		L15.671,13.793l-3.275,5.485L12.776,25.525z"/>
	<path style="fill-rule:evenodd;clip-rule:evenodd;fill:#FFFFFF;" d="M58.065,24.687l-13.939,0.305l-0.838-9.522
		c0,0,2.421,1.262,4.951,3.732c2.771,2.707,3.428,3.885,3.428,3.885l3.504-0.457c0,0,0.248-0.667-2.209-3.275
		c-4.405-4.68-9.902-7.922-9.902-7.922l-6.476-8.379l0.229,4.799c0,0-2.523-1.459-10.055-2.286
		c-5.801-0.636-10.056,0.762-10.056,0.762L11.75,0.54l-0.685,8.379c0,0-9.902,6.094-6.78,18.968
		c4.331,17.854,24.51,29.023,38.621,28.718c14.949-0.322,17.921-10.334,17.979-18.053C60.942,30.705,58.065,24.687,58.065,24.687z
		 M27.443,10.061c5.053-0.051,9.598,1.524,9.598,1.524l1.219,21.024L20.206,11.127C20.206,11.127,22.39,10.112,27.443,10.061z
		 M20.359,38.398c-6.892-6.557-9.089-14.099-8.229-18.511c0.716-3.667,3.506-5.484,3.506-5.484L42.83,47.54
		C42.83,47.54,31.363,48.87,20.359,38.398z M54.867,40.531c-2.511,5.271-8.152,6.323-8.152,6.323l-2.513-16.149L55.4,30.553
		C55.4,30.553,57.253,35.52,54.867,40.531z"/>
	
		<radialGradient id="SVGID_11_" cx="12.0645" cy="1.772" r="75.0257" gradientTransform="matrix(0.9068 0.4216 -0.559 1.2024 2.1152 -5.4449)" gradientUnits="userSpaceOnUse">
		<stop  offset="0" style="stop-color:#EBECEC"/>
		<stop  offset="0.7241" style="stop-color:#9FA0A0"/>
		<stop  offset="1" style="stop-color:#C8C8C9"/>
	</radialGradient>
	<path style="fill-rule:evenodd;clip-rule:evenodd;fill:url(#SVGID_11_);" d="M58.062,24.687l-0.229,0.305l-12.796,0.381
		l-0.306-0.381l-0.99-9.37c0,0,2.113,1.085,4.875,3.656c2.061,1.919,3.275,3.581,3.275,3.581l-0.225,0.229l5.329-0.076
		c0,0-1.201-1.732-3.657-4.342c-4.406-4.679-10.055-7.694-10.055-7.694l-6.095-7.236l0.229,4.494c0,0-2.082-1.435-10.436-2.361
		c-6.434-0.714-9.826,0.99-9.826,0.99L12.28,1.149l-0.609,8.074c0,0-9.979,5.942-6.856,18.815
		c4.332,17.854,23.978,28.871,38.089,28.566c14.948-0.322,19.824-9.802,19.881-17.52C62.843,31.238,58.062,24.687,58.062,24.687z
		 M27.516,10.29c5.054-0.051,10.132,2.133,10.132,2.133l1.142,20.111L20.964,11.432C20.964,11.432,22.463,10.34,27.516,10.29z
		 M20.279,38.398c-6.821-6.629-8.098-13.718-7.237-18.13c0.716-3.668,2.818-5.561,2.818-5.561l27.576,33.137
		C43.437,47.844,31.13,48.946,20.279,38.398z M55.472,40.684c-2.832,5.489-8.531,6.626-8.531,6.626l-1.523-16.073l9.979-0.685
		l0.381-0.381C55.777,30.171,57.909,35.96,55.472,40.684z"/>
</g>
</svg>
