<?xml version="1.0" encoding="utf-8"?>
<!-- Generator: Adobe Illustrator 23.0.2, SVG Export Plug-In . SVG Version: 6.00 Build 0)  -->
<svg version="1.1" id="Layer_1" xmlns="http://www.w3.org/2000/svg" xmlns:xlink="http://www.w3.org/1999/xlink" x="0px" y="0px"
	 width="64px" height="64px" viewBox="0 0 64 64" enable-background="new 0 0 64 64" xml:space="preserve">
<g>
	<path fill="#FFFFFF" d="M64,8.021c-5.616-3.329-11.499-5.798-17.697-7.246v0.006l-3.824,7.162
		c-0.356-0.059-0.708-0.113-1.054-0.163c-0.104-0.224-0.227-0.42-0.369-0.593c-1.702-2.065-6.762-1.958-8.626-1.031
		c-0.594,0.296-1.225,0.806-1.88,1.52c-2.802,0.376-5.5,1.084-8.043,2.11l-4.81-9.009C11.499,2.223,5.617,4.692,0,8.021l7.85,13.541
		c-0.657,0.749-1.747,2.477-2.359,3.67c0.333,0.623,0.966,1.258,1.612,1.675C4.891,29.817,1.88,35.265,0.38,38.981
		c6.93,7.5,12.221,11.288,21.698,7.125l9.923,17.119L63.997,8.032L64,8.021z"/>
	<path fill="#111820" d="M7.17,25.105c0.333,0.403,0.993,0.976,1.943,1.393c-2.512,3.262-5.358,8.216-7.098,12.18
		c7.661,7.722,11.48,9.89,20.637,5.676l9.35,16.129L62.117,8.532C57.442,5.836,52.37,3.748,47.01,2.377l-3.785,7.089
		c-0.95-0.177-1.899-0.327-2.844-0.441c-0.081-0.411-0.207-0.748-0.389-0.968c-1.154-1.401-5.403-1.443-6.946-0.674
		c-0.557,0.277-1.19,0.858-1.803,1.588c-3.249,0.386-6.389,1.233-9.357,2.572l-4.896-9.17C11.629,3.741,6.556,5.827,1.88,8.522
		L9.49,21.65C8.68,22.728,7.905,23.879,7.17,25.105"/>
	<path fill="#FF5000" d="M19.091,23.455c0.391,0.43,4.203,1.236,4.042-1.765C21.607,21.807,20.12,22.526,19.091,23.455"/>
	<path fill="#FFFFFF" d="M25.939,36.338l0.396-2.295l2.644,0.115l-0.794-3.07c-4.805,2.842-5.881,8.275-6.895,10.4
		c2.379-2.127,6.183-4.466,11.299-5.318c-0.38-1.701-1.281-3.474-2.207-4.646l0.263,3.978l-3.246,0.08l-0.677,1.425l-1.987,0.18
		l-1.112,1.583l0.64-2.066L25.939,36.338z"/>
	<path fill="#FF5000" d="M15.6,12.241c0.28-0.702,1.391-1.845,3.333-2.328l-2.878-5.392c-4.039,1.14-7.943,2.714-11.646,4.694
		l6.221,10.731c1.247-1.383,2.816-2.906,4.718-4.37C15.174,14.416,15.2,13.245,15.6,12.241 M45.056,9.941l2.89-5.413
		c4.038,1.141,7.942,2.717,11.643,4.698l-3.545,6.116c-1.767-1.121-4.292-2.179-6.504-2.92l0.576-0.994
		C48.738,10.896,47.018,10.386,45.056,9.941"/>
	<path fill="#FFFFFF" d="M33.838,14.755c-0.972-0.221-1.948-0.381-2.9-0.479c1.127-2.146,4.03-4.041,5.497-3.607
		C35.647,11.105,34.218,12.797,33.838,14.755 M46.82,13.519l0.586-1.011c-2.435-0.754-4.747-1.263-6.938-1.567
		c-0.084,1.342-0.409,2.869-0.909,4.083c1.529,1.062,3.172,3.152,3.529,5.018c-1.268-1.889-3.517-3.339-6.079-4.327
		c0.986-1.86,1.82-5.341,1.178-6.265c-0.554-0.796-3.12-0.903-4.483-0.341c-1.461,0.603-3.404,2.792-5.192,5.015
		c0.151-0.859,0.628-1.964,1.253-3.039C18.01,13.205,11.461,21.444,9.385,24.47c0.403,0.241,0.874,0.415,1.393,0.52
		c0.371-1.322,2.68-3.295,3.726-3.991c-0.887,1.049-1.844,3.191-1.672,4.073c3.999-0.038,6.337-5.144,12.701-4.63L24.393,21.2
		c0.252,1.185-0.041,3.406-2.911,3.84c0.804,0.221,1.49,0.565,1.994,1.077c-6.05-1.313-8.773,1.353-12.523,0.78
		c-2.837,3.932-4.76,7.081-6.823,11.261c1.67-0.89,5.562-1.081,7.696-0.285l0.108,1.951c-2.051,0.568-2.364,3.17,0.812,4.322
		c2.078,0.753,5.995,0.817,7.48-3.736c1.336-4.096,3.978-10.465,10.917-12.801l-0.822,1.535c2.014,1.784,3.911,5.302,4.349,8.572
		c-5.156,0.103-9.843,2.217-13.378,5.738c3.611-2.076,7.117-3.116,11.647-3.234c5.727-0.15,7.235-3.641,5.573-8.367
		c2.149,1.65,2.778,5.011,1.362,7.432c-1.107,1.893-3.475,2.791-6.549,2.72c-3.504-0.081-6.585,0.485-8.711,1.344l3.705,6.39
		l1.203-2.075l3.89,6.718L55.123,16.93C53.064,15.605,49.501,14.217,46.82,13.519"/>
</g>
</svg>
