<?xml version="1.0" encoding="iso-8859-1"?>
<!-- Generator: Adobe Illustrator 16.0.0, SVG Export Plug-In . SVG Version: 6.00 Build 0)  -->
<!DOCTYPE svg PUBLIC "-//W3C//DTD SVG 1.1//EN" "http://www.w3.org/Graphics/SVG/1.1/DTD/svg11.dtd">
<svg version="1.1" id="Layer_1" xmlns="http://www.w3.org/2000/svg" xmlns:xlink="http://www.w3.org/1999/xlink" x="0px" y="0px"
	 width="64px" height="64px" viewBox="0 0 64 64" style="enable-background:new 0 0 64 64;" xml:space="preserve">
<g>
	<path style="fill-rule:evenodd;clip-rule:evenodd;fill:#FDFDFD;" d="M62.91,8.98c-0.123,0.116-0.281,0.211-0.361,0.35
		c-2.736,4.729-5.467,9.463-8.197,14.195c-2.816,4.881-5.633,9.761-8.449,14.642c-0.092,0.159-0.174,0.322-0.316,0.584
		c4.811-1.137,9.516-2.249,14.258-3.369c0,5.299,0,10.548,0,15.839c-1.264,0.303-2.543,0.613-3.824,0.916
		c-6.885,1.626-13.77,3.246-20.65,4.887c-0.227,0.055-0.479,0.258-0.602,0.463c-0.842,1.411-1.652,2.842-2.477,4.266
		c-0.082,0.143-0.174,0.279-0.299,0.479c-0.689-1.192-1.359-2.321-1.994-3.469c-0.178-0.321-0.35-0.409-0.717-0.321
		c-7.43,1.77-14.865,3.524-22.297,5.291C6.828,63.77,6.695,63.908,6.551,64c-0.24,0-0.48,0-0.721,0c0-5.282,0-10.564,0-15.842
		c2.305-0.546,4.561-1.081,6.828-1.618c-0.037-0.076-0.043-0.12-0.066-0.131c-1.785-0.879-3.332-2.093-4.818-3.399
		c-0.512-0.45-1.027-0.906-1.76-0.999c-0.188-0.023-0.389-0.162-0.527-0.303c-1.395-1.403-2.314-2.984-1.795-5.064
		c0.119-0.479,0.297-0.946,0.457-1.415c0.414-1.196,0.813-2.397,1.254-3.583c0.422-1.134,0.848-2.269,1.348-3.369
		c0.346-0.761,0.838-1.453,1.221-2.198c0.102-0.198,0.137-0.528,0.041-0.713c-0.531-1.016-0.42-1.962,0.189-2.892
		c0.102-0.156,0.207-0.322,0.256-0.5c0.045-0.156,0.076-0.372,0.004-0.498C6.102,17.36,3.729,13.253,1.35,9.148
		C1.305,9.069,1.18,9.035,1.09,8.98c0-0.137,0-0.274,0-0.412c0.16-0.051,0.332-0.08,0.479-0.157
		c6.24-3.273,12.791-5.708,19.689-7.152c2.207-0.463,4.449-0.776,6.691-1.052c2.098-0.259,5.721-0.293,8.305,0
		c1.395,0.158,2.795,0.31,4.176,0.556c7.721,1.376,15.021,3.976,21.957,7.624c0.162,0.085,0.348,0.122,0.523,0.182
		C62.91,8.706,62.91,8.844,62.91,8.98z M61.557,9.007c-2.018-0.91-3.945-1.837-5.918-2.658c-5.762-2.399-11.709-4.16-17.914-4.965
		c-5.088-0.659-10.141-0.372-15.158,0.624C16.049,3.303,9.836,5.502,3.854,8.377c-0.455,0.219-0.9,0.462-1.365,0.702
		c2.248,3.896,4.438,7.751,6.699,11.565C9.641,21.407,9.799,22,9.227,22.736c-0.59,0.762-0.652,1.58-0.199,2.479
		c0.148,0.293,0.08,0.79-0.064,1.115c-0.318,0.716-0.742,1.388-1.139,2.068c-0.631,1.085-1.154,2.21-1.451,3.439
		C6.211,32.502,5.99,33.152,5.771,33.8c-0.357,1.053-0.756,2.091-1.096,3.148c-0.283,0.883-0.111,1.733,0.359,2.518
		c0.453,0.759,0.846,1.567,1.871,1.759c0.346,0.065,0.67,0.338,0.967,0.563c0.451,0.341,0.871,0.726,1.305,1.088
		c1.412,1.18,2.877,2.277,4.621,2.932c0.875,0.328,1.756,0.46,2.648,0.075c1.771-0.766,3.541-1.535,5.313-2.306
		c0.164-0.071,0.322-0.157,0.496-0.243c0.348,0.606,0.666,1.161,1,1.743c-5.518,1.307-10.961,2.595-16.393,3.881
		c0,4.604,0,9.151,0,13.759c7.807-1.847,15.582-3.685,23.381-5.529c0.58,1,1.152,1.981,1.76,3.025
		c0.711-1.229,1.391-2.374,2.035-3.538c0.184-0.329,0.408-0.495,0.77-0.58c6.736-1.582,13.469-3.176,20.203-4.767
		c1.279-0.303,2.561-0.607,3.818-0.906c0-4.604,0-9.158,0-13.758c-5.105,1.207-10.166,2.403-15.324,3.622
		C49.543,29.824,55.516,19.475,61.557,9.007z"/>
	<path style="fill-rule:evenodd;clip-rule:evenodd;fill:#030202;" d="M61.557,9.007c-6.041,10.468-12.014,20.817-18.051,31.278
		c5.158-1.219,10.219-2.415,15.324-3.622c0,4.6,0,9.153,0,13.758c-1.258,0.299-2.539,0.604-3.818,0.906
		c-6.734,1.591-13.467,3.185-20.203,4.767c-0.361,0.085-0.586,0.251-0.77,0.58c-0.645,1.164-1.324,2.309-2.035,3.538
		c-0.607-1.044-1.18-2.025-1.76-3.025c-7.799,1.845-15.574,3.683-23.381,5.529c0-4.607,0-9.154,0-13.759
		c5.432-1.286,10.875-2.574,16.393-3.881c-0.334-0.582-0.652-1.137-1-1.743c-0.174,0.086-0.332,0.172-0.496,0.243
		c-1.771,0.771-3.541,1.54-5.313,2.306c-0.893,0.385-1.773,0.253-2.648-0.075c-1.744-0.654-3.209-1.752-4.621-2.932
		c-0.434-0.362-0.854-0.747-1.305-1.088c-0.297-0.225-0.621-0.497-0.967-0.563c-1.025-0.191-1.418-1-1.871-1.759
		c-0.471-0.784-0.643-1.635-0.359-2.518c0.34-1.058,0.738-2.096,1.096-3.148c0.219-0.647,0.439-1.298,0.602-1.961
		c0.297-1.229,0.82-2.354,1.451-3.439c0.396-0.681,0.82-1.353,1.139-2.068c0.145-0.325,0.213-0.822,0.064-1.115
		c-0.453-0.899-0.391-1.718,0.199-2.479C9.799,22,9.641,21.407,9.188,20.645c-2.262-3.814-4.451-7.67-6.699-11.565
		c0.465-0.24,0.91-0.483,1.365-0.702c5.982-2.875,12.195-5.074,18.713-6.369c5.018-0.996,10.07-1.283,15.158-0.624
		c6.205,0.805,12.152,2.565,17.914,4.965C57.611,7.17,59.539,8.097,61.557,9.007z M24.633,26.257
		c-0.023-0.03-0.047-0.062-0.07-0.092c0.992-0.935,2.105-1.691,3.363-2.226c0.982-0.416,1.902-0.303,2.764,0.338
		c1.25,0.932,2.285,2.066,3.193,3.324c-0.029,0.039-0.059,0.078-0.088,0.117c-0.5-0.392-1.002-0.784-1.502-1.176
		c-0.016,0.025-0.031,0.05-0.047,0.075c0.783,1.629,1.568,3.258,2.348,4.879c-0.885,0-1.715-0.097-2.516,0.019
		c-1.859,0.268-3.447,1.188-4.943,2.278c-1.783,1.299-3.172,2.981-4.537,4.683c-1.686,2.098-3.566,3.957-6.127,4.96
		c-0.986,0.387-2.012,0.673-3.002,1c0.223,0.377,0.643,0.523,1.104,0.486c0.609-0.05,1.24-0.083,1.814-0.271
		c2.488-0.82,4.748-2.115,6.959-3.493c1.301-0.811,2.568-1.677,3.867-2.529c-0.207-0.184-0.354-0.313-0.619-0.548
		c0.816-0.526,1.525-1.072,2.307-1.473c2.227-1.14,4.621-1.813,7.066-2.269c1.422-0.266,2.697-0.709,3.715-1.783
		c1.09-1.151,1.561-2.462,1.225-4.046c-0.324-1.522-0.605-3.053-0.93-4.699c0.16,0.181,0.266,0.266,0.33,0.375
		c0.488,0.844,1.01,1.673,1.449,2.542c1.463,2.904,0.941,6.506-1.768,8.764c-0.18,0.149-0.441,0.259-0.674,0.279
		c-2.189,0.193-4.363,0.478-6.471,1.134c-1.377,0.429-2.711,0.953-3.816,1.833c0.268,0.367,0.516,0.71,0.689,0.951
		c-1.563,0.667-3.047,1.302-4.578,1.955c0.115,0.196,0.16,0.283,0.215,0.363c0.016,0.023,0.061,0.026,0.078,0.033
		c1.912-1.063,4.033-1.352,6.178-1.707c-0.393-0.579-0.75-1.108-1.154-1.708c3.508-1.532,7.07-1.715,10.791-1.148
		c3.623-6.278,7.291-12.636,10.984-19.034c-1.516-0.55-2.982-1.081-4.475-1.622c0.266-0.326,0.486-0.598,0.725-0.89
		c-2.359-0.735-4.654-1.449-7.092-2.21c0.547-0.466,0.99-0.846,1.537-1.311C40.9,12.117,38.951,11.829,37,11.564
		c-0.121-0.016-0.346,0.131-0.389,0.251c-0.752,2.031-1.594,4.043-1.699,6.274c-0.152-0.425-0.299-0.858-0.326-1.3
		c-0.092-1.512,0.193-2.964,0.744-4.375c0.461-1.177,0.271-1.793-0.842-2.392c-0.914-0.492-1.893-0.875-2.863-1.252
		c-0.758-0.295-1.123-0.185-1.621,0.452c-0.592,0.756-1.162,1.531-1.701,2.324c-0.77,1.131-1.504,2.286-2.254,3.431
		c-0.027-0.023-0.057-0.048-0.084-0.072c0.277-0.892,0.555-1.783,0.85-2.735c-0.184,0.013-0.283,0.011-0.379,0.027
		c-1.898,0.332-3.73,0.884-5.475,1.707c-4.154,1.962-7.209,5.173-9.955,8.741c-0.516,0.672-0.855,1.302-0.174,2.051
		c0.033,0.035,0.041,0.094,0.064,0.139c0.279,0.54,0.217,0.994-0.158,1.513c-0.82,1.137-1.727,2.258-2.291,3.522
		c-0.91,2.04-1.576,4.189-2.334,6.297c-0.063,0.174-0.049,0.375-0.07,0.574c0.721-0.2,1.373-0.416,2.041-0.556
		c0.67-0.139,1.354-0.26,2.033-0.285c1.611-0.06,2.811,1.331,2.596,2.959c-0.164,0.035-0.334,0.062-0.496,0.11
		c-0.883,0.268-1.348,0.9-1.092,1.738c0.242,0.789,0.66,1.526,1.031,2.271c0.057,0.116,0.268,0.202,0.418,0.222
		c1.803,0.23,3.281-0.338,4.346-1.84c1.334-1.883,2.305-3.964,3.217-6.071c0.605-1.396,1.115-2.836,1.77-4.209
		c0.963-2.025,2.281-3.788,4.186-5.046c0.338-0.223,0.697-0.413,1.047-0.619c-0.023-0.05-0.045-0.101-0.066-0.151
		C26.26,25.596,25.445,25.926,24.633,26.257z M56.672,10.741c-0.199-0.112-0.355-0.212-0.52-0.294
		c-4.742-2.372-9.684-4.188-14.857-5.363c-5.02-1.141-10.08-1.429-15.18-0.616c-6.469,1.03-12.582,3.157-18.434,6.07
		c-0.117,0.058-0.221,0.142-0.344,0.222c1.535,2.659,3.051,5.284,4.529,7.847c1.049-1.007,2.047-2.022,3.109-2.965
		c0.496-0.438,0.85-0.888,0.973-1.551c0.08-0.431,0.279-0.844,0.451-1.254c0.402-0.955,1.037-1.646,2.113-1.839
		c0.539-0.097,1.068-0.249,1.611-0.317c0.498-0.063,0.984-0.017,1.387,0.38c0.096,0.094,0.365,0.091,0.521,0.035
		c1.725-0.613,3.426-1.307,5.174-1.846c0.777-0.24,1.332-0.563,1.797-1.253c0.988-1.47,2.092-1.749,3.689-0.983
		c1.127,0.539,2.197,1.197,3.301,1.783c0.248,0.131,0.531,0.25,0.805,0.265c2.369,0.121,4.713,0.432,7.023,0.974
		c0.934,0.22,1.854,0.51,2.771,0.766c-0.354,0.472-0.65,0.869-0.984,1.315c2.988,0.716,5.854,1.403,8.723,2.076
		c0.125,0.029,0.359-0.042,0.418-0.141C55.398,12.967,56.023,11.867,56.672,10.741z M50.611,45.728c0.039,0,0.078,0.001,0.117,0.002
		c0,0.94-0.057,1.885,0.018,2.82c0.059,0.752,0.451,1.069,1.176,0.963c0.84-0.123,1.674-0.333,2.488-0.582
		c0.639-0.196,1.057-0.702,1.07-1.375c0.039-1.898,0.051-3.798,0.006-5.696c-0.018-0.747-0.465-1.113-1.201-1.005
		c-0.84,0.123-1.674,0.339-2.48,0.605c-0.625,0.207-1.008,0.725-1.059,1.396C50.676,43.812,50.654,44.771,50.611,45.728z
		 M49.014,46.629c0.736-0.359,1.154-0.843,1.182-1.563c0.021-0.598,0.021-1.203-0.051-1.795c-0.092-0.766-0.445-1.108-1.205-1.022
		c-1.197,0.135-2.381,0.392-3.549,0.593c0,2.795,0,5.467,0,8.18c0.645-0.152,1.252-0.296,1.861-0.44
		c0-0.849,0.014-1.638-0.006-2.426c-0.008-0.309,0.102-0.417,0.4-0.455c0.434-0.056,0.658,0.069,0.65,0.537
		c-0.012,0.68-0.002,1.36-0.002,2.105c0.57-0.129,1.066-0.258,1.568-0.347c0.275-0.049,0.371-0.166,0.363-0.443
		c-0.02-0.549,0.002-1.099-0.01-1.647C50.199,47.071,49.938,46.776,49.014,46.629z M19.967,56.866c0-0.947,0-1.866,0-2.768
		c0.9-0.253,1.021-0.164,1.025,0.7c0,0.591,0,1.182,0,1.829c0.621-0.138,1.158-0.238,1.682-0.388
		c0.105-0.03,0.221-0.241,0.227-0.374c0.025-0.531,0.014-1.063,0.01-1.596c-0.006-0.894-0.236-1.179-1.158-1.37
		c0.66-0.328,1.102-0.795,1.133-1.514c0.027-0.58,0.037-1.169-0.029-1.745c-0.1-0.874-0.461-1.208-1.342-1.105
		c-1.148,0.134-2.283,0.394-3.418,0.598c0,2.772,0,5.455,0,8.172C18.736,57.155,19.33,57.016,19.967,56.866z M27.598,47.003
		c0,2.126-0.006,4.202,0.008,6.279c0.002,0.285,0.029,0.619,0.176,0.844c0.18,0.274,0.484,0.625,0.76,0.649
		c1.1,0.098,2.172-0.12,3.041-0.837c0.303-0.248,0.471-0.704,0.602-1.098c0.111-0.332,0.111-0.711,0.113-1.069
		c0.012-1.82,0.008-3.641,0.008-5.461c0-0.112-0.023-0.226-0.041-0.381c-0.465,0.105-0.893,0.235-1.332,0.291
		c-0.402,0.052-0.477,0.249-0.473,0.616c0.016,1.854,0.008,3.709,0.006,5.563c0,0.604-0.197,0.892-0.635,0.846
		c-0.52-0.056-0.318-0.495-0.322-0.773c-0.018-1.769-0.008-3.537-0.008-5.306c0-0.183,0-0.364,0-0.606
		C28.816,46.72,28.207,46.861,27.598,47.003z M12.604,56.663c-0.053-0.003-0.105-0.005-0.158-0.007
		c-0.201-1.986-0.402-3.972-0.609-6.021c-0.68,0.154-1.287,0.292-1.949,0.441c0.379,2.631,0.754,5.22,1.133,7.851
		c0.953-0.216,1.871-0.411,2.779-0.646c0.123-0.031,0.256-0.248,0.279-0.396c0.248-1.678,0.479-3.358,0.711-5.039
		c0.135-0.977,0.262-1.954,0.398-2.987c-0.549,0.123-1.025,0.253-1.512,0.332c-0.326,0.053-0.455,0.199-0.482,0.526
		c-0.107,1.246-0.236,2.491-0.359,3.736C12.76,55.191,12.68,55.927,12.604,56.663z M34.568,50.803
		c-0.539,0.12-1.01,0.21-1.469,0.338c-0.111,0.031-0.262,0.187-0.266,0.289c-0.014,0.443-0.025,0.896,0.043,1.332
		c0.104,0.667,0.49,0.992,1.148,0.896c0.74-0.108,1.484-0.27,2.191-0.516c0.754-0.262,1.189-0.867,1.236-1.679
		c0.037-0.649,0.033-1.304,0.002-1.954c-0.031-0.621-0.361-0.97-0.982-1.069c-0.387-0.062-0.791-0.03-1.174-0.11
		c-0.221-0.047-0.535-0.195-0.586-0.365c-0.096-0.313-0.104-0.701-0.002-1.01c0.063-0.192,0.383-0.328,0.615-0.416
		c0.049-0.018,0.254,0.274,0.322,0.449c0.066,0.162,0.047,0.357,0.068,0.582c0.576-0.135,1.102-0.258,1.656-0.388
		c-0.02-0.452-0.002-0.867-0.066-1.269c-0.109-0.7-0.426-0.979-1.129-0.893c-0.727,0.09-1.451,0.253-2.15,0.467
		c-0.629,0.193-1.063,0.668-1.123,1.344c-0.064,0.73-0.076,1.471-0.041,2.203c0.023,0.469,0.338,0.788,0.824,0.854
		c0.424,0.057,0.857,0.039,1.275,0.115c0.225,0.041,0.582,0.179,0.611,0.326c0.086,0.427,0.113,0.899,0.006,1.313
		c-0.049,0.186-0.463,0.297-0.73,0.383c-0.037,0.012-0.227-0.312-0.27-0.497C34.531,51.318,34.568,51.088,34.568,50.803z
		 M40.242,52.196c0.549-0.124,1.041-0.255,1.543-0.342c0.287-0.05,0.357-0.191,0.352-0.454c-0.014-0.531,0.01-1.063-0.01-1.594
		c-0.012-0.289,0.074-0.427,0.373-0.49c0.381-0.081,0.758-0.208,1.125-0.348c0.893-0.343,1.365-0.998,1.375-1.964
		c0.008-0.703,0.02-1.406,0.004-2.108c-0.027-1.214-0.543-1.656-1.734-1.451c-0.877,0.15-1.736,0.386-2.613,0.539
		c-0.359,0.063-0.422,0.225-0.42,0.548c0.014,1.662,0.006,3.325,0.006,4.988C40.242,50.393,40.242,51.265,40.242,52.196z
		 M30.061,29.987c0.211-0.831,0.389-1.542,0.568-2.253c0.014-0.05,0.033-0.102,0.029-0.15c-0.01-0.128,0.014-0.289-0.055-0.376
		c-0.455-0.574-1.752-1.133-2.547-0.79c-2.768,1.192-4.264,3.521-5.652,6.164c0.584,0.127,1.072,0.247,1.566,0.337
		c0.285,0.051,0.502-0.069,0.578-0.371c0.16-0.637,0.318-1.273,0.479-1.916c-0.018-0.009,0.053,0.03,0.125,0.068
		c0.623,0.34,1.281,0.318,1.947,0.177c0.068-0.524,0.137-1.049,0.197-1.526C28.209,29.561,29.125,29.771,30.061,29.987z
		 M27.359,47.058c-1.445,0.331-2.902,0.665-4.357,0.999c0,0.492,0,0.941,0,1.416c0.434-0.082,0.824-0.156,1.264-0.239
		c0,2.247,0,4.419,0,6.644c0.459-0.104,0.867-0.24,1.285-0.282c0.508-0.05,0.611-0.291,0.604-0.77
		c-0.027-2.003-0.012-4.007-0.012-6.022c0.104-0.036,0.182-0.066,0.26-0.089c1.127-0.324,1.127-0.324,1.025-1.495
		C27.426,47.187,27.402,47.156,27.359,47.058z M17.35,49.363c-0.492,0.11-0.953,0.236-1.424,0.313
		c-0.359,0.059-0.457,0.223-0.455,0.582c0.018,2.367,0.008,4.734,0.01,7.101c0,0.161,0.02,0.322,0.033,0.534
		c0.66-0.151,1.252-0.287,1.836-0.422C17.35,54.743,17.35,52.071,17.35,49.363z M22.578,35.765
		c-0.531,0.349-1.219-0.448-1.654,0.348c-0.322,0.587-0.258,1.183-0.053,1.718c-0.314,0.147-0.723,0.205-0.873,0.433
		c-0.678,1.035-1.281,2.118-1.936,3.224c0.17-0.094,0.367-0.153,0.498-0.282c0.955-0.953,1.969-1.861,2.83-2.896
		c1.834-2.208,3.389-4.662,5.852-6.475c-0.672-0.216-1.258-0.403-1.943-0.624c-0.133,0.867-0.242,1.588-0.35,2.285
		c-0.566,0-1.156-0.024-1.744,0.018c-0.135,0.01-0.336,0.23-0.365,0.38C22.723,34.527,22.656,35.172,22.578,35.765z M37.982,52.722
		c0.584-0.136,1.109-0.258,1.615-0.376c0-0.578,0-1.101,0-1.666c-0.564,0.132-1.088,0.255-1.615,0.379
		C37.982,51.614,37.982,52.123,37.982,52.722z M31.434,28.306c-0.695,0.703-0.967,1.396-0.893,2.263
		c0.496-0.06,0.959-0.115,1.477-0.178C31.824,29.7,31.648,29.067,31.434,28.306z M29.898,30.65c0.002-0.033,0.004-0.067,0.008-0.102
		c-0.688-0.145-1.375-0.29-2.1-0.443c-0.098,0.571-0.176,1.029-0.252,1.486C28.359,31.269,29.129,30.96,29.898,30.65z
		 M21.273,35.172c0.037,0.055,0.076,0.108,0.113,0.163c0.264-0.087,0.727-0.135,0.752-0.267c0.121-0.629,0.123-1.281,0.166-1.925
		c-0.055-0.007-0.111-0.014-0.166-0.021C21.85,33.806,21.561,34.489,21.273,35.172z"/>
	<path style="fill-rule:evenodd;clip-rule:evenodd;fill:#FDFDFD;" d="M33.883,27.602c-0.908-1.258-1.943-2.393-3.193-3.324
		c-0.861-0.641-1.781-0.754-2.764-0.338c-1.258,0.534-2.371,1.291-3.363,2.226c-0.055,0.023-0.109,0.047-0.166,0.07
		c0.01,0.021,0.018,0.043,0.025,0.065c0.07-0.015,0.141-0.029,0.211-0.044c0.813-0.331,1.627-0.661,2.439-0.991
		c0.021,0.051,0.043,0.102,0.066,0.151c-0.35,0.206-0.709,0.396-1.047,0.619c-1.904,1.258-3.223,3.021-4.186,5.046
		c-0.654,1.373-1.164,2.813-1.77,4.209c-0.912,2.107-1.883,4.188-3.217,6.071c-1.064,1.502-2.543,2.07-4.346,1.84
		c-0.15-0.02-0.361-0.105-0.418-0.222c-0.371-0.745-0.789-1.482-1.031-2.271c-0.256-0.838,0.209-1.471,1.092-1.738
		c0.162-0.049,0.332-0.075,0.496-0.11c0.215-1.628-0.984-3.019-2.596-2.959c-0.68,0.025-1.363,0.146-2.033,0.285
		c-0.668,0.14-1.32,0.355-2.041,0.556c0.021-0.199,0.008-0.4,0.07-0.574c0.758-2.107,1.424-4.257,2.334-6.297
		c0.564-1.265,1.471-2.386,2.291-3.522c0.375-0.519,0.438-0.973,0.158-1.513c-0.023-0.045-0.031-0.104-0.064-0.139
		c-0.682-0.749-0.342-1.379,0.174-2.051c2.746-3.568,5.801-6.779,9.955-8.741c1.744-0.823,3.576-1.375,5.475-1.707
		c0.096-0.017,0.195-0.015,0.379-0.027c-0.295,0.952-0.572,1.844-0.85,2.735c-0.037,0.074-0.072,0.149-0.109,0.225
		c0.031,0.013,0.063,0.026,0.094,0.04c0.033-0.064,0.066-0.128,0.1-0.192c0.75-1.145,1.484-2.3,2.254-3.431
		c0.539-0.793,1.109-1.568,1.701-2.324c0.498-0.637,0.863-0.747,1.621-0.452c0.971,0.377,1.949,0.76,2.863,1.252
		c1.113,0.599,1.303,1.215,0.842,2.392c-0.551,1.411-0.836,2.863-0.744,4.375c0.027,0.441,0.174,0.875,0.326,1.3
		c0.105-2.231,0.947-4.243,1.699-6.274c0.043-0.12,0.268-0.267,0.389-0.251c1.951,0.265,3.9,0.553,5.926,0.847
		c-0.547,0.465-0.99,0.845-1.537,1.311c2.438,0.761,4.732,1.475,7.092,2.21c-0.238,0.292-0.459,0.563-0.725,0.89
		c1.492,0.541,2.959,1.072,4.475,1.622c-3.693,6.398-7.361,12.756-10.984,19.034c-3.721-0.566-7.283-0.384-10.791,1.148
		c0.404,0.6,0.762,1.129,1.154,1.708c-2.145,0.355-4.266,0.645-6.178,1.707c-0.018-0.007-0.063-0.01-0.078-0.033
		c-0.055-0.08-0.1-0.167-0.215-0.363c1.531-0.653,3.016-1.288,4.578-1.955c-0.174-0.241-0.422-0.584-0.689-0.951
		c1.105-0.88,2.439-1.404,3.816-1.833c2.107-0.656,4.281-0.94,6.471-1.134c0.232-0.021,0.494-0.13,0.674-0.279
		c2.709-2.258,3.23-5.859,1.768-8.764c-0.439-0.869-0.961-1.698-1.449-2.542c-0.064-0.109-0.17-0.194-0.33-0.375
		c0.324,1.646,0.605,3.177,0.93,4.699c0.336,1.584-0.135,2.895-1.225,4.046c-1.018,1.074-2.293,1.518-3.715,1.783
		c-2.445,0.456-4.84,1.129-7.066,2.269c-0.781,0.4-1.49,0.946-2.307,1.473c0.266,0.234,0.412,0.364,0.619,0.548
		c-1.299,0.853-2.566,1.719-3.867,2.529c-2.211,1.378-4.471,2.673-6.959,3.493c-0.574,0.188-1.205,0.222-1.814,0.271
		c-0.461,0.037-0.881-0.109-1.104-0.486c0.99-0.327,2.016-0.613,3.002-1c2.561-1.003,4.441-2.862,6.127-4.96
		c1.365-1.701,2.754-3.384,4.537-4.683c1.496-1.09,3.084-2.011,4.943-2.278c0.801-0.115,1.631-0.019,2.516-0.019
		c-0.779-1.621-1.564-3.25-2.348-4.879c0.016-0.025,0.031-0.05,0.047-0.075c0.5,0.392,1.002,0.784,1.502,1.176
		c0.049,0.028,0.1,0.058,0.148,0.086C33.924,27.737,33.904,27.669,33.883,27.602z M20.254,24.237
		c0.033-0.076,0.066-0.152,0.098-0.229c0.074-0.378,0.148-0.756,0.223-1.134c0.74-0.939,1.479-1.879,2.219-2.818
		c0.004-0.054,0.008-0.107,0.012-0.161c-0.033,0.03-0.064,0.06-0.098,0.09c-0.318,0.283-0.639,0.567-0.959,0.851
		c-2.26,2.004-4.678,3.749-7.629,4.615c-0.211,0.063-0.412,0.166-0.617,0.251c0.893,0.055,1.738,0.095,2.51,0.637
		c-1.313,1.163-1.963,2.678-2.479,4.272c0.131-0.106,0.203-0.251,0.299-0.378c0.736-0.984,1.447-1.99,2.234-2.934
		c0.252-0.301,0.693-0.46,1.072-0.632c0.436-0.197,0.914-0.302,1.344-0.507c0.844-0.402,1.527-0.975,1.779-1.933L20.254,24.237z
		 M28.854,16.165c0.811-0.987,1.615-1.98,2.439-2.956c0.15-0.177,0.371-0.305,0.58-0.416c0.648-0.348,1.17-0.173,1.459,0.507
		c0.135,0.318,0.197,0.667,0.297,1.011c1.188-1.409,0.951-2.754-0.627-3.59c-0.27-0.145-0.551-0.281-0.842-0.368
		c-0.127-0.038-0.357,0.011-0.434,0.105c-1.256,1.574-2.336,3.251-2.885,5.216c-0.043,0.15,0.008,0.325,0.014,0.489
		c-0.027-0.015-0.053-0.028-0.08-0.043c0,0.001,0,0.002,0,0.004C28.801,16.138,28.826,16.151,28.854,16.165z"/>
	<path style="fill-rule:evenodd;clip-rule:evenodd;fill:#F16800;" d="M56.672,10.741c-0.648,1.126-1.273,2.226-1.922,3.311
		c-0.059,0.099-0.293,0.17-0.418,0.141c-2.869-0.673-5.734-1.36-8.723-2.076c0.334-0.446,0.631-0.844,0.984-1.315
		c-0.918-0.256-1.838-0.546-2.771-0.766c-2.311-0.542-4.654-0.853-7.023-0.974c-0.273-0.015-0.557-0.134-0.805-0.265
		c-1.104-0.586-2.174-1.244-3.301-1.783c-1.598-0.766-2.701-0.486-3.689,0.983c-0.465,0.689-1.02,1.013-1.797,1.253
		c-1.748,0.539-3.449,1.232-5.174,1.846c-0.156,0.056-0.426,0.059-0.521-0.035c-0.402-0.396-0.889-0.443-1.387-0.38
		c-0.543,0.068-1.072,0.221-1.611,0.317c-1.076,0.192-1.711,0.884-2.113,1.839c-0.172,0.41-0.371,0.823-0.451,1.254
		c-0.123,0.663-0.477,1.112-0.973,1.551c-1.063,0.942-2.061,1.958-3.109,2.965c-1.479-2.563-2.994-5.188-4.529-7.847
		c0.123-0.08,0.227-0.164,0.344-0.222c5.852-2.913,11.965-5.04,18.434-6.07c5.1-0.813,10.16-0.524,15.18,0.616
		c5.174,1.175,10.115,2.991,14.857,5.363C56.316,10.529,56.473,10.629,56.672,10.741z"/>
	<path style="fill-rule:evenodd;clip-rule:evenodd;fill:#F16800;" d="M50.611,45.728c0.043-0.957,0.064-1.916,0.135-2.871
		c0.051-0.672,0.434-1.189,1.059-1.396c0.807-0.267,1.641-0.482,2.48-0.605c0.736-0.108,1.184,0.258,1.201,1.005
		c0.045,1.898,0.033,3.798-0.006,5.696c-0.014,0.673-0.432,1.179-1.07,1.375c-0.814,0.249-1.648,0.459-2.488,0.582
		c-0.725,0.106-1.117-0.211-1.176-0.963c-0.074-0.936-0.018-1.88-0.018-2.82C50.689,45.729,50.65,45.728,50.611,45.728z
		 M52.611,45.274c0,0.737,0.002,1.474-0.002,2.21c-0.002,0.406,0.227,0.561,0.555,0.385c0.199-0.107,0.43-0.384,0.436-0.59
		c0.037-1.456,0.027-2.912,0.018-4.369c-0.004-0.446-0.252-0.616-0.629-0.388c-0.188,0.113-0.346,0.417-0.361,0.646
		C52.58,43.868,52.609,44.572,52.611,45.274z"/>
	<path style="fill-rule:evenodd;clip-rule:evenodd;fill:#F16800;" d="M49.014,46.629c0.924,0.147,1.186,0.442,1.203,1.276
		c0.012,0.549-0.01,1.099,0.01,1.647c0.008,0.277-0.088,0.395-0.363,0.443c-0.502,0.089-0.998,0.218-1.568,0.347
		c0-0.745-0.01-1.426,0.002-2.105c0.008-0.468-0.217-0.593-0.65-0.537c-0.299,0.038-0.408,0.146-0.4,0.455
		c0.02,0.788,0.006,1.577,0.006,2.426c-0.609,0.145-1.217,0.288-1.861,0.44c0-2.713,0-5.385,0-8.18
		c1.168-0.201,2.352-0.458,3.549-0.593c0.76-0.086,1.113,0.257,1.205,1.022c0.072,0.592,0.072,1.197,0.051,1.795
		C50.168,45.786,49.75,46.27,49.014,46.629z M47.273,46.359c0.895-0.068,1.021-0.2,1.021-1.049c0-0.308,0.002-0.615,0-0.923
		c-0.006-0.604-0.105-0.687-0.697-0.562c-0.111,0.023-0.219,0.072-0.324,0.108C47.273,44.762,47.273,45.56,47.273,46.359z"/>
	<path style="fill-rule:evenodd;clip-rule:evenodd;fill:#F16800;" d="M19.967,56.866c-0.637,0.149-1.23,0.289-1.871,0.439
		c0-2.717,0-5.399,0-8.172c1.135-0.204,2.27-0.464,3.418-0.598c0.881-0.103,1.242,0.231,1.342,1.105
		c0.066,0.576,0.057,1.165,0.029,1.745c-0.031,0.719-0.473,1.186-1.133,1.514c0.922,0.191,1.152,0.477,1.158,1.37
		c0.004,0.532,0.016,1.064-0.01,1.596c-0.006,0.133-0.121,0.344-0.227,0.374c-0.523,0.149-1.061,0.25-1.682,0.388
		c0-0.647,0-1.238,0-1.829c-0.004-0.864-0.125-0.953-1.025-0.7C19.967,55,19.967,55.919,19.967,56.866z M19.965,52.64
		c0.881-0.044,1.025-0.192,1.027-1.032c0-0.324,0.002-0.649-0.002-0.975c-0.008-0.549-0.109-0.635-0.639-0.531
		c-0.129,0.025-0.254,0.076-0.387,0.117C19.965,51.039,19.965,51.839,19.965,52.64z"/>
	<path style="fill-rule:evenodd;clip-rule:evenodd;fill:#F16800;" d="M27.598,47.003c0.609-0.142,1.219-0.283,1.902-0.442
		c0,0.242,0,0.424,0,0.606c0,1.769-0.01,3.537,0.008,5.306c0.004,0.278-0.197,0.718,0.322,0.773
		c0.438,0.046,0.635-0.241,0.635-0.846c0.002-1.854,0.01-3.709-0.006-5.563c-0.004-0.367,0.07-0.564,0.473-0.616
		c0.439-0.056,0.867-0.186,1.332-0.291c0.018,0.155,0.041,0.269,0.041,0.381c0,1.82,0.004,3.641-0.008,5.461
		c-0.002,0.358-0.002,0.737-0.113,1.069c-0.131,0.394-0.299,0.85-0.602,1.098c-0.869,0.717-1.941,0.935-3.041,0.837
		c-0.275-0.024-0.58-0.375-0.76-0.649c-0.146-0.225-0.174-0.559-0.176-0.844C27.592,51.205,27.598,49.129,27.598,47.003z"/>
	<path style="fill-rule:evenodd;clip-rule:evenodd;fill:#F16800;" d="M12.604,56.663c0.076-0.736,0.156-1.472,0.23-2.208
		c0.123-1.245,0.252-2.49,0.359-3.736c0.027-0.327,0.156-0.474,0.482-0.526c0.486-0.079,0.963-0.209,1.512-0.332
		c-0.137,1.033-0.264,2.011-0.398,2.987c-0.232,1.681-0.463,3.361-0.711,5.039c-0.023,0.147-0.156,0.364-0.279,0.396
		c-0.908,0.234-1.826,0.43-2.779,0.646c-0.379-2.631-0.754-5.22-1.133-7.851c0.662-0.149,1.27-0.287,1.949-0.441
		c0.207,2.049,0.408,4.034,0.609,6.021C12.498,56.658,12.551,56.66,12.604,56.663z"/>
	<path style="fill-rule:evenodd;clip-rule:evenodd;fill:#F16800;" d="M34.568,50.803c0,0.285-0.037,0.516,0.012,0.726
		c0.043,0.186,0.232,0.509,0.27,0.497c0.268-0.086,0.682-0.197,0.73-0.383c0.107-0.414,0.08-0.887-0.006-1.313
		c-0.029-0.147-0.387-0.285-0.611-0.326c-0.418-0.076-0.852-0.059-1.275-0.115c-0.486-0.065-0.801-0.385-0.824-0.854
		c-0.035-0.732-0.023-1.473,0.041-2.203c0.061-0.676,0.494-1.15,1.123-1.344c0.699-0.214,1.424-0.377,2.15-0.467
		c0.703-0.087,1.02,0.192,1.129,0.893c0.064,0.401,0.047,0.816,0.066,1.269c-0.555,0.13-1.08,0.253-1.656,0.388
		c-0.021-0.225-0.002-0.42-0.068-0.582c-0.068-0.175-0.273-0.467-0.322-0.449c-0.232,0.088-0.553,0.224-0.615,0.416
		c-0.102,0.309-0.094,0.696,0.002,1.01c0.051,0.17,0.365,0.318,0.586,0.365c0.383,0.08,0.787,0.049,1.174,0.11
		c0.621,0.1,0.951,0.448,0.982,1.069c0.031,0.65,0.035,1.305-0.002,1.954c-0.047,0.812-0.482,1.417-1.236,1.679
		c-0.707,0.246-1.451,0.407-2.191,0.516c-0.658,0.097-1.045-0.229-1.148-0.896c-0.068-0.437-0.057-0.889-0.043-1.332
		c0.004-0.103,0.154-0.258,0.266-0.289C33.559,51.013,34.029,50.923,34.568,50.803z"/>
	<path style="fill-rule:evenodd;clip-rule:evenodd;fill:#F16800;" d="M40.242,52.196c0-0.932,0-1.804,0-2.676
		c0-1.663,0.008-3.326-0.006-4.988c-0.002-0.323,0.061-0.484,0.42-0.548c0.877-0.153,1.736-0.389,2.613-0.539
		c1.191-0.205,1.707,0.237,1.734,1.451c0.016,0.702,0.004,1.405-0.004,2.108c-0.01,0.966-0.482,1.621-1.375,1.964
		c-0.367,0.14-0.744,0.267-1.125,0.348c-0.299,0.063-0.385,0.201-0.373,0.49c0.02,0.53-0.004,1.063,0.01,1.594
		c0.006,0.263-0.064,0.404-0.352,0.454C41.283,51.941,40.791,52.072,40.242,52.196z M42.156,47.944
		c0.461-0.082,0.924-0.086,0.953-0.643c0.035-0.666,0.016-1.335,0.006-2.002c-0.006-0.284-0.18-0.393-0.453-0.335
		c-0.164,0.035-0.324,0.086-0.506,0.136C42.156,46.035,42.156,46.955,42.156,47.944z"/>
	<path style="fill-rule:evenodd;clip-rule:evenodd;fill:#FDFDFD;" d="M30.061,29.987c-0.936-0.216-1.852-0.427-2.764-0.637
		c-0.061,0.478-0.129,1.002-0.197,1.526c-0.666,0.142-1.324,0.163-1.947-0.177c-0.072-0.038-0.143-0.077-0.125-0.068
		c-0.16,0.643-0.318,1.279-0.479,1.916c-0.076,0.302-0.293,0.422-0.578,0.371c-0.494-0.09-0.982-0.21-1.566-0.337
		c1.389-2.644,2.885-4.972,5.652-6.164c0.795-0.343,2.092,0.216,2.547,0.79c0.068,0.087,0.045,0.248,0.055,0.376
		c0.004,0.049-0.016,0.101-0.029,0.15C30.449,28.445,30.271,29.156,30.061,29.987z"/>
	<path style="fill-rule:evenodd;clip-rule:evenodd;fill:#F16800;" d="M27.359,47.058c0.043,0.099,0.066,0.129,0.068,0.161
		c0.102,1.171,0.102,1.171-1.025,1.495c-0.078,0.022-0.156,0.053-0.26,0.089c0,2.016-0.016,4.02,0.012,6.022
		c0.008,0.479-0.096,0.72-0.604,0.77c-0.418,0.042-0.826,0.178-1.285,0.282c0-2.225,0-4.396,0-6.644
		c-0.439,0.083-0.83,0.157-1.264,0.239c0-0.475,0-0.924,0-1.416C24.457,47.723,25.914,47.389,27.359,47.058z"/>
	<path style="fill-rule:evenodd;clip-rule:evenodd;fill:#F16800;" d="M17.35,49.363c0,2.708,0,5.38,0,8.107
		c-0.584,0.135-1.176,0.271-1.836,0.422c-0.014-0.212-0.033-0.373-0.033-0.534c-0.002-2.366,0.008-4.733-0.01-7.101
		c-0.002-0.359,0.096-0.523,0.455-0.582C16.396,49.6,16.857,49.474,17.35,49.363z"/>
	<path style="fill-rule:evenodd;clip-rule:evenodd;fill:#FDFDFD;" d="M22.578,35.765c0.078-0.593,0.145-1.237,0.262-1.872
		c0.029-0.149,0.23-0.37,0.365-0.38c0.588-0.042,1.178-0.018,1.744-0.018c0.107-0.697,0.217-1.418,0.35-2.285
		c0.686,0.221,1.271,0.408,1.943,0.624c-2.463,1.813-4.018,4.267-5.852,6.475c-0.861,1.034-1.875,1.942-2.83,2.896
		c-0.131,0.129-0.328,0.188-0.498,0.282c0.654-1.105,1.258-2.188,1.936-3.224c0.15-0.228,0.559-0.285,0.873-0.433
		c-0.205-0.535-0.27-1.131,0.053-1.718C21.359,35.316,22.047,36.113,22.578,35.765z"/>
	<path style="fill-rule:evenodd;clip-rule:evenodd;fill:#F16800;" d="M37.982,52.722c0-0.599,0-1.107,0-1.663
		c0.527-0.124,1.051-0.247,1.615-0.379c0,0.565,0,1.088,0,1.666C39.092,52.464,38.566,52.586,37.982,52.722z"/>
	<path style="fill-rule:evenodd;clip-rule:evenodd;fill:#FDFDFD;" d="M31.434,28.306c0.215,0.762,0.391,1.395,0.584,2.085
		c-0.518,0.063-0.98,0.118-1.477,0.178C30.467,29.701,30.738,29.009,31.434,28.306z"/>
	<path style="fill-rule:evenodd;clip-rule:evenodd;fill:#FDFDFD;" d="M29.898,30.65c-0.77,0.31-1.539,0.618-2.344,0.941
		c0.076-0.457,0.154-0.915,0.252-1.486c0.725,0.153,1.412,0.299,2.1,0.443C29.902,30.583,29.9,30.617,29.898,30.65z"/>
	<path style="fill-rule:evenodd;clip-rule:evenodd;fill:#FDFDFD;" d="M21.273,35.172c0.287-0.683,0.576-1.366,0.865-2.049
		c0.055,0.007,0.111,0.014,0.166,0.021c-0.043,0.644-0.045,1.296-0.166,1.925c-0.025,0.132-0.488,0.18-0.752,0.267
		C21.35,35.28,21.311,35.227,21.273,35.172z"/>
	<path style="fill-rule:evenodd;clip-rule:evenodd;fill:#030202;" d="M20.262,24.229c-0.252,0.958-0.936,1.53-1.779,1.933
		c-0.43,0.205-0.908,0.31-1.344,0.507c-0.379,0.172-0.82,0.331-1.072,0.632c-0.787,0.943-1.498,1.949-2.234,2.934
		c-0.096,0.127-0.168,0.271-0.299,0.378c0.516-1.595,1.166-3.109,2.479-4.272c-0.771-0.542-1.617-0.582-2.51-0.637
		c0.205-0.085,0.406-0.188,0.617-0.251c2.951-0.866,5.369-2.611,7.629-4.615c0.32-0.283,0.641-0.567,0.959-0.851
		c0.029,0.023,0.057,0.048,0.086,0.071c-0.74,0.939-1.479,1.879-2.219,2.819c-1.359,0.895-2.721,1.789-4.102,2.696
		c0.105,0.054,0.244,0.143,0.396,0.197c0.908,0.332,2.258-0.123,2.924-0.977C19.943,24.601,20.105,24.416,20.262,24.229z"/>
	<path style="fill-rule:evenodd;clip-rule:evenodd;fill:#030202;" d="M28.855,16.163c-0.006-0.164-0.057-0.339-0.014-0.489
		c0.549-1.965,1.629-3.642,2.885-5.216c0.076-0.095,0.307-0.144,0.434-0.105c0.291,0.087,0.572,0.224,0.842,0.368
		c1.578,0.836,1.814,2.181,0.627,3.59c-0.1-0.344-0.162-0.692-0.297-1.011c-0.289-0.68-0.811-0.854-1.459-0.507
		c-0.209,0.111-0.43,0.239-0.58,0.416c-0.824,0.976-1.629,1.969-2.439,2.956L28.855,16.163z"/>
	<path style="fill-rule:evenodd;clip-rule:evenodd;fill:#DD2900;" d="M20.262,24.229c-0.156,0.188-0.318,0.372-0.469,0.564
		c-0.666,0.854-2.016,1.309-2.924,0.977c-0.152-0.055-0.291-0.144-0.396-0.197c1.381-0.907,2.742-1.802,4.102-2.696
		c-0.074,0.377-0.148,0.755-0.223,1.133c-0.031,0.076-0.064,0.152-0.098,0.229L20.262,24.229z"/>
	<path style="fill-rule:evenodd;clip-rule:evenodd;fill:#030202;" d="M26.049,14.979c-0.033,0.064-0.066,0.128-0.1,0.192
		c-0.031-0.014-0.063-0.027-0.094-0.04c0.037-0.075,0.072-0.15,0.109-0.225C25.992,14.931,26.021,14.955,26.049,14.979z"/>
	<path style="fill-rule:evenodd;clip-rule:evenodd;fill:#030202;" d="M33.883,27.602c0.021,0.067,0.041,0.136,0.061,0.203
		c-0.049-0.028-0.1-0.058-0.148-0.086C33.824,27.68,33.854,27.641,33.883,27.602z"/>
	<path style="fill-rule:evenodd;clip-rule:evenodd;fill:#030202;" d="M24.633,26.257c-0.07,0.015-0.141,0.029-0.211,0.044
		c-0.008-0.022-0.016-0.044-0.025-0.065c0.057-0.023,0.111-0.047,0.166-0.07C24.586,26.195,24.609,26.227,24.633,26.257z"/>
	<path style="fill-rule:evenodd;clip-rule:evenodd;fill:#030202;" d="M20.254,24.237c0.033-0.076,0.066-0.152,0.098-0.229
		C20.32,24.085,20.287,24.161,20.254,24.237z"/>
	<path style="fill-rule:evenodd;clip-rule:evenodd;fill:#030202;" d="M22.707,19.985c0.033-0.03,0.064-0.06,0.098-0.09
		c-0.004,0.054-0.008,0.107-0.012,0.161C22.764,20.033,22.736,20.009,22.707,19.985z"/>
	<path style="fill-rule:evenodd;clip-rule:evenodd;fill:#030202;" d="M28.854,16.165c-0.027-0.014-0.053-0.027-0.078-0.041
		c0-0.002,0-0.003,0-0.004c0.027,0.015,0.053,0.028,0.08,0.043L28.854,16.165z"/>
	<path style="fill-rule:evenodd;clip-rule:evenodd;fill:#030202;" d="M52.609,45.274c0-0.702-0.029-1.406,0.018-2.106
		c0.016-0.229,0.174-0.532,0.361-0.646c0.377-0.229,0.625-0.059,0.629,0.388c0.01,1.457,0.02,2.913-0.018,4.369
		c-0.006,0.206-0.236,0.482-0.436,0.59c-0.328,0.176-0.557,0.021-0.555-0.385C52.613,46.748,52.611,46.012,52.609,45.274z"/>
	<path style="fill-rule:evenodd;clip-rule:evenodd;fill:#030202;" d="M47.273,46.359c0-0.8,0-1.598,0-2.425
		c0.105-0.036,0.213-0.085,0.324-0.108c0.592-0.125,0.691-0.043,0.697,0.562c0.002,0.308,0,0.615,0,0.923
		C48.295,46.159,48.168,46.291,47.273,46.359z"/>
	<path style="fill-rule:evenodd;clip-rule:evenodd;fill:#030202;" d="M19.965,52.64c0-0.801,0-1.601,0-2.421
		c0.133-0.041,0.258-0.092,0.387-0.117c0.529-0.104,0.631-0.018,0.639,0.531c0.004,0.325,0.002,0.65,0.002,0.975
		C20.99,52.447,20.846,52.596,19.965,52.64z"/>
	<path style="fill-rule:evenodd;clip-rule:evenodd;fill:#030202;" d="M42.156,47.944c0-0.989,0-1.909,0-2.844
		c0.182-0.05,0.342-0.101,0.506-0.136c0.273-0.058,0.447,0.051,0.453,0.335c0.01,0.667,0.029,1.336-0.006,2.002
		C43.08,47.858,42.617,47.862,42.156,47.944z"/>
</g>
</svg>
