<?xml version="1.0" encoding="UTF-8" standalone="no"?>
<svg
   xmlns:dc="http://purl.org/dc/elements/1.1/"
   xmlns:cc="http://creativecommons.org/ns#"
   xmlns:rdf="http://www.w3.org/1999/02/22-rdf-syntax-ns#"
   xmlns:svg="http://www.w3.org/2000/svg"
   xmlns="http://www.w3.org/2000/svg"
   xmlns:sodipodi="http://sodipodi.sourceforge.net/DTD/sodipodi-0.dtd"
   xmlns:inkscape="http://www.inkscape.org/namespaces/inkscape"
   width="64pt"
   height="64pt"
   viewBox="0 0 64 64"
   version="1.1"
   id="svg444"
   sodipodi:docname="wins.svg"
   inkscape:version="0.92.3 (2405546, 2018-03-11)">
  <metadata
     id="metadata450">
    <rdf:RDF>
      <cc:Work
         rdf:about="">
        <dc:format>image/svg+xml</dc:format>
        <dc:type
           rdf:resource="http://purl.org/dc/dcmitype/StillImage" />
        <dc:title></dc:title>
      </cc:Work>
    </rdf:RDF>
  </metadata>
  <defs
     id="defs448" />
  <sodipodi:namedview
     pagecolor="#ffffff"
     bordercolor="#666666"
     borderopacity="1"
     objecttolerance="10"
     gridtolerance="10"
     guidetolerance="10"
     inkscape:pageopacity="0"
     inkscape:pageshadow="2"
     inkscape:window-width="1920"
     inkscape:window-height="1001"
     id="namedview446"
     showgrid="false"
     inkscape:zoom="5.6382462"
     inkscape:cx="46.339"
     inkscape:cy="61.757343"
     inkscape:window-x="-9"
     inkscape:window-y="-9"
     inkscape:window-maximized="1"
     inkscape:current-layer="svg444" />
  <g
     id="#9e9e9eff"
     transform="matrix(0.07324204,0,0,0.07324204,-0.9143045,9.7772654)">
    <path
       d="m 742.34,19.13 c 12.19,-1.78 24.38,-3.64 36.65,-4.79 -4.36,5.16 -9.07,10 -13.53,15.07 -10.7,10.69 -20.23,22.47 -30.97,33.12 -4.45,4.56 -8.41,9.58 -13,14.02 -1.76,1.82 -3.74,3.54 -4.92,5.82 -1.05,2.32 -1.49,4.84 -2.13,7.29 -1.58,6.5 -4.32,12.63 -6.84,18.81 -2.85,6.97 -6.29,13.68 -9.91,20.28 -2.77,5.04 -6.39,9.52 -9.76,14.16 -3.28,4.31 -6.45,8.79 -10.49,12.44 -2.13,1.93 -4.26,3.87 -6.28,5.92 18.75,7.71 37.68,15.19 55.4,25.11 7.29,3.99 14.68,7.85 21.62,12.42 1.95,0.88 1.4,3.25 1.33,4.96 -0.79,6.81 -2.66,13.43 -3.75,20.2 -1.95,11.94 -5.26,23.6 -8.72,35.18 -1.65,5.75 -4.27,11.28 -4.79,17.31 7.78,3.21 15.65,6.24 23.22,9.95 9.94,4.33 19.89,8.68 29.4,13.91 3.84,2.14 7.8,4.29 12.23,4.88 15.85,2.36 31.66,5.03 47.43,7.85 2.81,0.48 5.59,1.18 8.33,2 0.75,4.64 1.61,9.28 2.17,13.95 0.53,5.06 1.18,10.11 2.07,15.13 1.97,11.31 3.4,22.72 5.84,33.95 0.88,5.2 2.34,10.36 2.48,15.65 -3.31,5.77 -9.82,8.94 -13.39,14.56 -0.77,1.6 -0.32,3.46 -0.17,5.17 0.92,6.05 2.03,12.07 2.91,18.14 5.66,2.01 11.71,2.4 17.46,4.1 1.36,7.67 2.57,15.37 3.73,23.08 1.87,17.71 5.3,35.2 8.33,52.74 0.05,1.72 0.93,3.87 -0.57,5.22 -3.05,3.33 -6.79,5.93 -10.06,9.02 -2.64,2.28 -4.88,5.05 -7.82,6.97 -1.64,0.23 -3.3,-0.07 -4.91,-0.28 -15.3,-2.55 -30.34,-6.43 -45.59,-9.25 -9.99,-2.26 -20.06,-4.3 -30.26,-5.28 -2.28,-0.27 -4.54,-0.67 -6.78,-1.1 -9.37,-1.95 -18.87,-3.15 -28.32,-4.59 -9.36,-1.36 -18.7,-2.95 -28.16,-3.3 -0.78,-6.5 -1.52,-13.03 -1.41,-19.58 -6.39,-2.93 -13.58,-2.21 -20.38,-3.08 -9.35,-0.55 -18.68,-2.18 -28.07,-1.62 -4.92,5.53 -10.73,10.14 -16.24,15.04 -10.53,8.78 -21.67,16.96 -33.91,23.19 -3.04,1.56 -6.75,0.87 -9.73,2.39 -4.12,3.82 -7.37,8.51 -11.71,12.11 -9.23,7.74 -18.99,15.04 -29.9,20.25 -3.76,1.88 -7.76,4 -12.12,3.33 -10.5,-0.68 -21.02,-1.87 -31.55,-1.64 -3.62,-0.02 -6.63,2.22 -9.59,3.99 -7,4.51 -14.6,7.96 -21.87,12 -9.05,5.03 -18.98,8.15 -28.3,12.64 -3.95,1.65 -7.8,3.83 -12.06,4.55 -5,-1.14 -9.5,-3.83 -14.41,-5.29 -7.36,-2.46 -14.03,-6.48 -21.12,-9.56 -3.86,-1.69 -7.65,-3.53 -11.27,-5.67 -5.91,-3.53 -12.22,-6.33 -17.94,-10.17 -2.36,-1.64 -5.11,-2.7 -8.01,-2.51 -5.45,-0.14 -10.88,0.29 -16.3,0.69 -6.44,0.47 -12.9,0.5 -19.33,1.05 -10.39,-4.55 -20.23,-10.35 -29.08,-17.46 -5.73,-4.6 -11.53,-9.22 -16.27,-14.87 -1.22,-1.34 -2.34,-2.84 -3.88,-3.82 -3.01,-0.84 -6.27,-0.73 -9.13,-2.08 -16.28,-7.88 -29.81,-20.08 -43.63,-31.5 -3.17,-2.56 -5.76,-5.71 -8.4,-8.78 -4.48,-1.93 -9.4,-0.35 -14.02,0.01 -1.39,7.03 -1.08,14.24 -2.31,21.29 -6.34,1.47 -12.79,2.35 -19.18,3.56 -1.51,0.26 -3.03,0.47 -4.55,0.63 -11.29,0.83 -22.41,3 -33.58,4.7 -6.69,1 -13.35,2.18 -19.95,3.62 -1.48,0.28 -2.97,0.51 -4.46,0.69 -10.6,0.78 -20.96,3.24 -31.44,4.85 -4.07,0.64 -8.07,1.59 -12.07,2.57 -5.87,1.32 -11.91,1.74 -17.78,3.11 -8.94,2.06 -18.09,2.96 -27.1,4.68 -1.82,0.27 -3.67,0.67 -5.52,0.45 -2.14,-1.04 -3.85,-2.75 -5.61,-4.29 -4.52,-4.21 -8.96,-8.51 -13.47,-12.71 0.42,-7.06 2.31,-13.89 3.36,-20.85 1.24,-8 2.61,-15.98 3.8,-23.99 1.07,-9.53 2.53,-19.01 4.31,-28.44 1.85,-8.3 3.04,-16.72 4.53,-25.09 0.67,-3.82 1.06,-7.68 1.34,-11.54 0.66,-9.02 3.17,-17.77 4.27,-26.73 -2.59,1.96 -5,4.17 -7.06,6.69 -5.34,6.44 -10.89,12.87 -14.37,20.55 -0.78,1.23 -1.18,3.12 -2.85,3.39 -2.8,-4.8 -4.88,-10.01 -6.55,-15.3 -0.24,-2.89 -0.63,-5.77 -0.92,-8.65 -0.71,-6.62 0.81,-13.19 2.01,-19.65 2.73,-11.21 9.23,-20.98 15.77,-30.29 5.01,-5.96 9.56,-12.35 15.25,-17.7 12.29,-11.86 25.2,-23.15 39.38,-32.71 9.9,-7.36 20.45,-13.79 31.24,-19.74 5.55,-3.04 10.8,-6.63 16.58,-9.25 10.81,-4.97 21.66,-9.88 32.27,-15.29 -1.65,-11.64 -5.07,-22.93 -6.85,-34.54 -0.19,-2.23 -0.84,-4.62 0,-6.77 2.37,-2.07 5.21,-3.48 7.91,-5.06 6.97,-3.83 13.7,-8.11 20.97,-11.35 8.38,-4.37 17.01,-8.18 25.52,-12.27 4.95,-2.27 10.21,-3.78 15.15,-6.06 3.72,-1.68 6.09,-5.17 9.27,-7.59 5.38,-4.15 11.64,-7.06 18.15,-8.94 9.18,-2.69 18.09,-6.36 27.52,-8.13 9.66,-1.85 19.21,-4.24 28.83,-6.26 6.04,-1.21 12.22,-1.66 18.2,-3.14 4.54,-1.14 8.02,-4.46 11.75,-7.08 6.6,-5.1 13.7,-9.51 20.42,-14.44 6.83,-4.96 14.13,-9.2 21.13,-13.9 5.08,-3.4 10.36,-6.47 15.65,-9.53 5.45,-3.12 10.58,-6.8 16.18,-9.67 5.47,-2.79 10.53,-6.34 16.13,-8.91 5.88,-2.67 11.35,-6.15 17.27,-8.77 6.1,-2.74 11.96,-6 18.14,-8.57 5.43,-2.27 10.92,-4.41 16.35,-6.68 13.94,-5.9 28.72,-9.38 43.34,-13.13 10.08,-2.12 19.97,-5.3 30.27,-6.29 10.11,-0.76 20.1,-2.59 30.22,-3.15 4.71,-0.28 9.41,-0.69 14.12,-1.08 11.53,-0.52 23.08,-0.06 34.58,0.97 11.51,1.26 22.9,3.31 34.28,5.41 3.86,0.82 7.83,0.7 11.75,0.33 8.08,-0.5 16.08,-1.83 24.12,-2.8 11.48,-1.48 23,-2.71 34.44,-4.56 m -1.05,10.88 c -8.7,1.87 -17.65,1.8 -26.44,3.09 -8.32,1.01 -16.51,2.83 -24.84,3.78 -5.44,0.63 -11.01,1.74 -16.46,0.5 -14.31,-3.38 -28.8,-6.31 -43.51,-7.21 -11.31,-1.3 -22.71,-0.62 -34.07,-0.8 -9.8,-0.25 -19.34,2.25 -29.04,3.15 -17.32,1.39 -33.78,7.33 -50.39,11.96 -7.21,2.36 -14.25,5.18 -21.41,7.67 -16.9,7.02 -33.8,14.19 -49.87,22.99 -10.86,5.29 -21.52,11.01 -31.84,17.29 -24.35,14.14 -47.9,29.67 -70.61,46.31 -2.18,1.53 -4.69,2.56 -7.31,3.01 -11.14,1.95 -22.37,3.53 -33.36,6.25 -6.83,1.62 -13.86,2.43 -20.56,4.62 -9.18,2.92 -18.49,5.56 -27.27,9.56 -3.14,1.39 -6.31,2.91 -8.77,5.36 -2.76,2.62 -4.67,5.98 -7.43,8.6 -2.54,2.1 -5.81,2.98 -8.78,4.3 -18.74,8.16 -37.52,16.41 -55.04,27 1.56,9.65 3.24,19.42 6.76,28.59 10.41,-2.62 20.22,-7.34 30.93,-8.82 -5.6,2.86 -11.59,4.82 -17.26,7.5 -26.35,12.01 -51.41,26.65 -75.7,42.36 -19.52,13.13 -38.57,27.1 -55.79,43.17 -9.27,8.78 -18.19,18.06 -25.31,28.72 -7.03,9.87 -12.56,21.7 -11.74,34.1 3.94,-4.37 7.36,-9.19 11.6,-13.29 5.87,-5.93 12.77,-10.68 19.65,-15.34 2.32,-1.59 4.89,-2.76 7.52,-3.75 -1.34,15.91 -5.3,31.46 -7,47.33 -1.3,11.7 -3.96,23.2 -5.33,34.9 -0.8,8.16 -3.31,16.01 -4.35,24.13 -1.89,10.92 -2.87,21.98 -5.04,32.86 -0.92,6.04 -2.47,11.99 -2.89,18.09 -0.37,2.39 1.37,4.23 2.89,5.81 1.51,1.47 3.08,2.96 5.01,3.86 3.18,0.47 6.35,-0.54 9.44,-1.12 8.13,-2.01 16.54,-2.46 24.69,-4.4 11.74,-2.13 23.34,-5 35.15,-6.7 4.26,-6.46 7.73,-13.42 12.41,-19.59 3.71,4.93 6.62,10.39 10.18,15.43 13.41,-0.82 26.38,-4.93 39.8,-5.76 5.37,-0.32 10.69,-1.2 16.02,-1.87 2.44,-0.35 4.94,-0.6 7.25,-1.51 1.09,-2.21 1.23,-4.72 1.49,-7.12 0.44,-5.35 0.82,-10.7 1.49,-16.02 2.96,-0.5 5.92,-0.95 8.91,-1.2 21.12,-1.77 42.25,-3.49 63.43,-4.5 4.82,-0.31 9.66,-1.12 14.49,-0.6 1.91,0.09 3.18,1.65 4.46,2.88 3.11,3.29 6.07,6.73 8.71,10.41 -5.67,1.13 -11.46,1.31 -17.22,1.51 -10.32,0.7 -20.64,1.42 -30.97,2.03 8.17,9.1 17.38,17.5 28.15,23.42 3.07,1.59 6.29,3.4 9.86,3.3 3.33,-0.07 6.64,-0.64 9.98,-0.77 5.67,-0.27 11.37,0.05 17.05,-0.29 3.99,-0.17 7.98,-0.76 11.98,-0.4 1.83,0.18 3.24,1.51 4.65,2.57 3.55,2.97 7.1,5.96 10.46,9.15 -11.74,0.39 -23.49,0.74 -35.17,2.02 7.69,8.54 16.41,16.28 26.29,22.2 3.32,1.89 6.77,4.05 10.71,4.14 10.73,0.25 21.42,-1.07 32.13,-1.36 3.71,-0.27 7.21,1.18 10.24,3.2 9.96,6.34 20.61,11.48 31.08,16.9 6.5,3.37 13.44,5.79 20.07,8.88 2.74,1.22 5.42,2.64 8.31,3.52 1.84,0.67 3.71,-0.3 5.42,-0.93 19.87,-9.03 39.98,-17.78 58.54,-29.36 4.52,-3.07 10.19,-2.13 15.3,-1.81 7.66,0.76 15.35,0.74 23.03,1.15 3.18,0.23 6.44,-0.26 9.19,-1.95 6,-3.46 11.87,-7.22 17.14,-11.73 4.55,-3.96 9.22,-7.87 12.72,-12.84 -11.7,-1.18 -23.45,-1.52 -35.19,-2.05 3.93,-3.6 8.04,-7 12.11,-10.46 2.93,-2.65 7.19,-1.53 10.76,-1.42 7.69,0.99 15.48,0.59 23.19,1.42 4.44,0.32 9.09,0.94 13.38,-0.63 4.15,-1.59 7.9,-4.05 11.59,-6.49 7.76,-5.44 15.04,-11.7 21.14,-18.97 -9.78,-1.18 -19.63,-1.37 -29.44,-2.22 -6.27,-0.48 -12.65,-0.1 -18.8,-1.65 3.06,-4.27 6.43,-8.36 10.33,-11.89 1.4,-1.5 3.6,-0.92 5.43,-0.97 8.13,0.55 16.29,0.63 24.43,1.17 14.62,1.43 29.3,2.01 43.94,3.29 15.26,1.52 30.71,1.15 45.88,3.63 1.85,8.37 2.43,16.96 4.47,25.3 9.4,1.89 18.98,2.63 28.37,4.58 8.69,1.71 17.43,3.15 26.23,4.18 14.81,1.9 29.15,6.47 44.02,8.02 7.6,0.84 14.86,3.58 22.48,4.34 3.54,0.42 6.04,-2.76 8.27,-5.03 2.42,-2.27 1.57,-5.82 1.35,-8.73 -2.68,-18.68 -6.49,-37.17 -9.23,-55.84 -5.37,-1.84 -11.03,-2.46 -16.55,-3.63 -0.55,-2.53 -1.06,-5.07 -1.44,-7.63 -2,-13.51 -4.29,-26.99 -6.58,-40.46 2.66,-0.04 5.48,0.59 8.06,-0.3 2.77,-1.69 5.25,-3.99 7.04,-6.71 0.62,-3.9 -0.81,-7.77 -1.35,-11.6 -1.61,-9.92 -3.35,-19.82 -5.02,-29.72 -1,-5.26 -2.19,-10.5 -2.39,-15.87 -0.28,-1.85 -0.01,-3.98 -1.13,-5.56 -4.74,-1.92 -9.93,-2.32 -14.94,-3.07 -10.63,-1.16 -20.98,-3.96 -31.54,-5.48 -9.58,-1.37 -19.01,-3.82 -28.69,-4.44 -4.25,-0.25 -8.49,-0.75 -12.68,-1.46 -15.72,-2.25 -31.41,-4.75 -47.21,-6.38 -6.88,-1.12 -13.85,-1.13 -20.78,-1.67 -12.99,-1.73 -26.09,-2.38 -39.09,-3.98 -10.39,-1.46 -20.91,-1.3 -31.33,-2.38 -7.72,-1.74 -15.68,-1.36 -23.51,-2.16 -15.57,-0.73 -31.1,-2.3 -46.69,-2.41 -8.38,-0.65 -16.79,-1.39 -25.2,-0.62 -4.65,-0.04 -9.3,-0.02 -13.93,-0.54 -9.58,-1.07 -19.24,-0.52 -28.85,-0.79 -31,-0.92 -62.02,-0.57 -93.03,-0.46 -3.43,-0.01 -6.84,0.24 -10.24,0.53 6.82,-2.06 13.96,-2.52 20.99,-3.37 11.39,-1.1 22.83,-1.6 34.23,-2.48 8.34,-0.2 16.7,-0.03 25.03,-0.63 23.32,-0.42 46.64,-0.8 69.96,-0.21 5.32,0.04 10.64,-0.13 15.95,0.38 11.66,1.21 23.41,0.09 35.1,0.96 8.1,0.67 16.25,0.02 24.34,0.86 7.21,0.72 14.48,0.41 21.69,1.2 10.01,0.51 20.01,1.3 30.01,2.02 9.63,0.83 19.22,2.11 28.87,2.63 21.08,0.89 42.04,3.36 62.99,5.71 6.75,0.68 13.39,2.3 20.2,2.44 -8.95,-4.18 -18.63,-6.4 -27.79,-10.06 -6.26,-2.51 -12.72,-4.47 -19.19,-6.34 0.67,-3.77 1.84,-7.42 3.29,-10.95 3.44,-8.61 5.01,-17.8 7.72,-26.64 2.13,-6.9 3.69,-13.95 5.51,-20.94 1.55,-6.35 3.25,-12.77 3.1,-19.37 -7.96,-4.13 -15.75,-8.62 -23.9,-12.38 -6.61,-3.03 -12.92,-6.71 -19.75,-9.25 -6.75,-2.51 -13.11,-5.98 -19.97,-8.21 -3.98,-1.22 -7.72,-3.64 -11.94,-3.8 -3.17,1.8 -5.67,4.51 -8.45,6.81 -14.91,12.56 -31.15,23.52 -48.32,32.73 -6.47,3.2 -12.69,6.9 -19.41,9.55 -3.57,1.42 -7.12,2.89 -10.63,4.45 -6.43,2.92 -13.32,4.56 -19.92,7.04 -14.44,4.81 -29.25,8.74 -44.42,10.29 -9.03,0.85 -18.05,2.05 -27.14,1.91 8.97,-2.53 18.2,-3.87 27.31,-5.8 10.2,-2.47 19.98,-6.36 30,-9.44 14.28,-4.39 27.93,-10.56 41.39,-16.98 20.39,-10.55 40.13,-22.48 58.24,-36.64 18.83,-14.35 35.45,-31.69 48.47,-51.49 4.2,-6.69 8.33,-13.48 11.42,-20.77 3.03,-7.05 6.35,-14.05 7.94,-21.6 0.99,-4.08 1.3,-8.71 4.5,-11.79 10.6,-10.41 21.24,-20.77 31.73,-31.28 3.78,-3.83 8.15,-7.15 11.14,-11.69 -3.97,0.25 -7.87,0.96 -11.74,1.81 z"
       id="path231"
       inkscape:connector-curvature="0"
       style="opacity:1;fill:#9e9e9e" />
    <path
       d="m 178.14,266.19 c 8.63,-3.99 16.77,-9.06 25.86,-12 -12.15,7.49 -24.55,14.85 -35.17,24.47 8.13,-1.83 16.05,-4.48 24.05,-6.8 7.08,-2.41 14.54,-3.33 21.72,-5.39 7.03,-1.96 14.13,-3.65 21.14,-5.69 6.1,-1.67 12.17,-3.55 18.45,-4.4 -2.2,1.89 -4.77,3.26 -7.5,4.18 -6.01,2.1 -11.55,5.27 -17.47,7.58 -4.27,1.68 -8.5,3.48 -12.66,5.41 -5.59,2.6 -11.54,4.28 -17.12,6.89 -8.79,4.28 -18.25,6.9 -27.12,11 -10.88,3.93 -21.25,9.1 -32.19,12.88 -7.06,2.75 -13.79,6.27 -20.92,8.86 -7.33,2.75 -14.22,6.55 -21.47,9.51 -6.2,2.53 -11.91,6.1 -17.99,8.89 4.01,-4.33 8.9,-7.67 13.46,-11.37 22.13,-17.49 45.96,-32.76 70.66,-46.36 4.67,-2.71 9.37,-5.38 14.27,-7.66 z"
       id="path233"
       inkscape:connector-curvature="0"
       style="opacity:1;fill:#9e9e9e" />
    <path
       d="m 393.9,308.91 c 8.65,-0.75 17.34,-0.59 26.01,-0.61 0.11,8.78 -0.28,17.56 -0.26,26.35 -4.55,0.06 -9.09,0.03 -13.63,0.09 -7,0.1 -13.97,0.99 -20.97,0.84 -3.52,-0.1 -7.05,0.1 -10.49,0.83 -0.08,4.6 -0.18,9.2 -0.47,13.79 -0.52,-0.05 -1.55,-0.13 -2.07,-0.17 -0.68,-6.48 -0.11,-13 0.67,-19.43 14.64,-0.58 29.31,0.09 43.93,-1 0.34,-6.57 0.46,-13.15 0.31,-19.72 -10.98,-0.71 -21.98,-0.2 -32.93,0.62 -10.33,0.25 -20.7,0.02 -30.94,1.57 -1.31,13.27 -1.15,26.62 -2.08,39.92 -0.39,6.69 -0.63,13.38 -0.81,20.08 7.29,0.2 14.57,-0.32 21.85,-0.52 7.63,-0.26 15.25,-1.25 22.9,-0.69 0.18,6.93 0,13.85 -0.36,20.77 -7.52,0.16 -15.05,-0.11 -22.57,0.29 -7.57,0.42 -15.2,0.12 -22.71,1.43 -1.42,6.74 -1.2,13.65 -0.85,20.48 7.53,-0.41 15,-1.72 22.55,-1.5 10.02,0.26 20.01,-0.86 30.03,-0.66 4.8,0.08 9.61,0.02 14.41,-0.24 0.45,-6.8 0.25,-13.61 0.29,-20.42 -0.07,-13.67 1.27,-27.36 0.32,-41.02 -2.79,-0.26 -5.57,-0.55 -8.36,-0.69 3.78,-0.62 7.62,-0.74 11.45,-0.54 0.38,5.9 0.42,11.83 -0.15,17.72 -1.12,9.13 -0.52,18.34 -0.64,27.51 -0.05,4.73 0.07,9.46 0.09,14.2 0,2.59 -0.16,5.17 -0.31,7.76 -13.03,0.85 -26.1,0.43 -39.13,1.17 -6.67,0.29 -13.36,0.12 -20.01,0.81 -4.39,0.44 -8.8,0.54 -13.2,0.3 -0.38,-8.63 -0.27,-17.3 0.64,-25.9 8.44,-1.57 17.06,-0.67 25.58,-1.07 6.41,-0.31 12.8,-0.84 19.2,-1.19 0.14,-3.1 0.28,-6.2 0.43,-9.29 0.31,3.12 0.61,6.24 0.92,9.37 0.16,-4.68 0.12,-9.36 0.08,-14.04 -3.37,-0.33 -6.75,-0.53 -10.13,-0.49 -9.35,0.31 -18.78,0.19 -28.04,1.6 -2.7,0.57 -5.47,0.56 -8.11,-0.25 0.86,-5.29 1.17,-10.65 1.06,-16 -0.18,-7.03 1.15,-13.99 0.99,-21.02 -0.18,-6.33 1.13,-12.58 1.2,-18.9 0.05,-3.34 0.21,-6.68 0.51,-10 6.06,-0.71 12.18,-0.79 18.26,-1.34 8.49,-0.72 17.04,-0.09 25.54,-0.8 z"
       id="path235"
       inkscape:connector-curvature="0"
       style="opacity:1;fill:#9e9e9e" />
    <path
       d="m 514.12,309.1 c 6.31,0 12.61,0.26 18.91,0.25 6.69,-0.06 13.33,0.99 20.02,0.98 3.09,-0.03 6.19,0.28 9.16,1.18 -8.43,0.45 -16.8,-1.01 -25.22,-0.87 -6.38,0.07 -12.76,-0.25 -19.12,-0.63 -0.48,9.65 -0.41,19.32 0.01,28.97 1.51,15.96 0.23,32.01 1.01,48.01 0.49,8.19 0.31,16.4 0.5,24.6 7.01,0.76 14.07,0.99 21.12,0.62 0.3,-11.67 -1.07,-23.33 -0.39,-35 3.71,0.31 7.6,0.18 11.1,1.64 1.86,1.19 2.64,3.44 3.72,5.29 3.21,6.68 7.08,13.03 10.18,19.77 1.65,3.25 2.99,6.8 5.59,9.45 2.29,0.97 4.84,0.89 7.29,1.06 5.33,0.14 10.66,0.44 15.99,0.7 -6.24,-12.01 -14.12,-23.1 -20.1,-35.25 4.42,-0.08 8.84,-0.07 13.27,-0.03 0.87,-8.94 -0.6,-17.84 -0.8,-26.76 -0.44,-13.49 -1.99,-26.96 -1.46,-40.47 0.7,1.2 1.41,2.41 2.07,3.65 0.38,12.03 0.96,24.06 1.96,36.06 0.28,3.62 0.57,7.25 1.03,10.87 0.97,7.47 0.75,15.03 0.69,22.55 -3.89,-0.53 -7.81,-0.9 -11.73,-1.02 3.2,6.95 7.66,13.2 11.43,19.84 3.09,5.46 6.48,10.75 9.55,16.23 -7.01,-0.1 -13.96,-1.2 -20.96,-1.24 -3.44,-0.17 -7.01,-0.03 -10.27,-1.26 -2.23,-2.6 -3.45,-5.86 -5.01,-8.86 -3.29,-6.88 -7.35,-13.34 -10.67,-20.21 -0.95,-1.79 -1.82,-3.69 -3.24,-5.16 -2.05,-1.22 -4.57,-1.01 -6.85,-1.35 -0.56,11.49 1.23,22.98 0.31,34.48 -6.31,0.34 -12.64,0.17 -18.94,-0.32 -2.4,-0.26 -4.79,-0.61 -7.18,-0.95 -1.2,-11.11 0.43,-22.32 -1.07,-33.42 -0.97,-11.63 0.12,-23.34 -0.77,-34.98 -1.33,-12.76 -0.75,-25.61 -1.13,-38.42 z"
       id="path237"
       inkscape:connector-curvature="0"
       style="opacity:1;fill:#9e9e9e" />
    <path
       d="m 336.15,320.22 c 0.04,-3.1 0.48,-6.25 2.23,-8.89 0.46,5.22 0.05,10.46 -0.19,15.68 -0.93,16.66 -1.73,33.32 -2.7,49.98 -0.24,11.4 -1.56,22.76 -1.21,34.18 -0.02,2.63 -0.26,5.26 -0.47,7.9 -5.97,0.45 -11.98,0.23 -17.93,1.03 -2.77,0.17 -5.79,0.91 -8.39,-0.35 -2.13,-3.25 -3.26,-7 -4.73,-10.56 -2.87,-7.55 -6.86,-14.63 -9.74,-22.18 -2.12,-5.53 -4.56,-10.93 -7.27,-16.2 -0.44,-1 -0.89,-1.99 -1.34,-2.97 -1.08,9.01 -1.38,18.09 -2.19,27.13 -0.85,8.98 -0.79,18.03 -2.25,26.95 -5.34,1.19 -10.78,1.79 -16.22,2.3 -3.29,0.32 -6.59,0.54 -9.88,0.72 0.6,-10.36 1.84,-20.68 2.54,-31.04 0.21,-4.36 0.09,-8.73 0.49,-13.08 1.86,-21.19 3.48,-42.4 5.59,-63.57 8.32,-1.4 16.77,-2.24 25.21,-2.01 4.94,10.31 8.65,21.15 13.42,31.54 2.99,6.47 4.86,13.49 8.82,19.49 0.52,-5.4 0.31,-10.85 1.06,-16.23 0.77,-5.65 0.83,-11.36 1.14,-17.04 0.35,-6.69 -0.06,-13.47 1.41,-20.06 l 0.88,0.1 c 0.43,0.03 1.29,0.09 1.72,0.12 -0.45,4.92 -0.89,9.84 -1.04,14.78 -0.26,8.72 -1.15,17.41 -1.44,26.13 -0.25,7.69 -1.05,15.35 -1.9,23 -5.87,-10.84 -9.98,-22.51 -14.95,-33.77 -3.88,-8.72 -6.85,-17.82 -11.05,-26.39 -6.9,-0.47 -13.78,0.35 -20.6,1.3 -1.72,22.94 -3.72,45.86 -5.67,68.78 -1.34,10.98 -1.87,22.03 -2.39,33.08 6.88,0 13.76,-0.5 20.56,-1.59 0.59,-3.78 1.05,-7.58 1.2,-11.39 0.65,-16.82 2.68,-33.53 3.65,-50.32 5.81,9.93 9.6,20.85 14.52,31.22 4.34,9.04 7.79,18.48 12.34,27.43 7.36,0.26 14.72,-0.11 22.02,-1.03 0.54,-10.08 0.6,-20.18 1.16,-30.26 0.58,-9.7 1.09,-19.41 1.59,-29.12 0.2,-11.62 1.77,-23.17 2,-34.79 z"
       id="path239"
       inkscape:connector-curvature="0"
       style="opacity:1;fill:#9e9e9e" />
    <path
       d="m 598.31,313.27 c 13.62,0.18 27.15,2.04 40.73,3 1.99,0.33 4.42,0.09 6,1.59 0.9,3.26 0.57,6.7 0.95,10.05 0.5,5.04 0.7,10.12 0.23,15.17 -3.07,-0.05 -6.14,-0.1 -9.2,-0.14 0.77,18.39 2.71,36.69 4.02,55.05 3.27,0.18 6.55,0.35 9.83,0.47 1,8.8 1.84,17.62 2.38,26.46 -16.09,-0.29 -32.08,-2.51 -48.13,-3.43 -0.99,-5.33 -0.68,-10.77 -1.29,-16.13 -0.39,-3.68 -0.53,-7.38 -0.49,-11.08 3.29,0.4 6.59,0.73 9.9,1.01 0.2,-3.42 0.27,-6.84 0.06,-10.25 -0.83,-14.84 -1.78,-29.67 -2.95,-44.49 -3.64,-0.48 -7.28,-0.84 -10.93,-1.04 0.19,-8.77 -1.51,-17.46 -1.11,-26.24 m 3.44,1.46 c -0.21,6.67 0.34,13.31 0.65,19.97 3.77,0.29 7.53,0.74 11.25,1.46 -0.43,20.24 3.59,40.28 3.06,60.51 -3.49,-0.24 -6.97,-0.4 -10.46,-0.52 -0.07,6.85 0.99,13.63 1.96,20.39 6.69,0.78 13.41,1.17 20.12,1.83 7.25,0.53 14.52,1.35 21.8,0.83 -0.47,-6.39 -0.78,-12.79 -1.35,-19.16 -3.5,-0.7 -7.03,-1.24 -10.57,-1.62 -1.29,-7.39 -1.31,-14.93 -1.98,-22.39 -1.14,-12.69 -1.39,-25.44 -2.49,-38.13 3.18,0.01 6.37,0.04 9.57,0.09 -0.15,-6.66 -0.96,-13.28 -1.34,-19.93 -8.93,-1.29 -17.94,-1.82 -26.92,-2.58 -4.42,-0.47 -8.86,-0.81 -13.3,-0.75 z"
       id="path241"
       inkscape:connector-curvature="0"
       style="opacity:1;fill:#9e9e9e" />
    <path
       d="m 206.71,323.68 c 15.23,-2.88 30.75,-3.42 46.08,-5.57 0.04,8.9 -1.62,17.7 -1.98,26.59 -3.4,0.32 -6.81,0.68 -10.21,1.03 -1.53,6.66 -1.32,13.53 -1.79,20.31 -0.53,11.69 -2.55,23.26 -3,34.95 3.32,-0.25 6.65,-0.52 9.98,-0.77 -0.08,2.96 -0.27,5.91 -0.69,8.84 -0.87,5.83 -0.72,11.74 -1.43,17.58 -7.98,1.15 -16.03,1.69 -24.03,2.73 -8.14,0.84 -16.22,2.48 -24.44,2.43 0.21,-8.76 1.82,-17.42 2.54,-26.14 3.38,-0.64 6.76,-1.26 10.14,-1.85 1.72,-9.62 3.27,-19.31 3.58,-29.09 0.22,-8.43 1.96,-16.72 2.25,-25.15 -3.1,0.22 -6.19,0.75 -9.3,0.76 -1.41,-0.73 -0.61,-2.44 -0.64,-3.66 1.24,-7.63 1.58,-15.37 2.94,-22.99 m 3.29,0.43 c -1.66,6.57 -2.21,13.34 -2.34,20.09 3.15,-0.04 6.3,-0.09 9.46,-0.15 -0.07,7.15 -1.15,14.23 -1.88,21.33 -1.23,13.15 -2.57,26.28 -3.73,39.44 -3.69,0.71 -7.42,1.15 -11.16,1.42 -0.47,6.67 -1.15,13.33 -1.64,20 4.02,0.05 8.05,-0.18 12.02,-0.85 10,-1.61 20.09,-2.52 30.16,-3.55 1.19,-6.6 1.27,-13.32 1.33,-20 -3.18,0.04 -6.35,0.1 -9.52,0.16 -0.26,-6.35 0.86,-12.63 1.24,-18.95 0.7,-10.93 1.97,-21.81 2.69,-32.73 0.24,-2.86 0.39,-5.76 1.28,-8.5 3.15,-1.89 7.12,-1.44 10.65,-2.05 0.24,-6.6 0.99,-13.18 0.63,-19.79 -13.11,0.97 -26.09,3.19 -39.19,4.13 z"
       id="path243"
       inkscape:connector-curvature="0"
       style="opacity:1;fill:#9e9e9e" />
    <path
       d="m 656,318.05 c 7.42,0.27 14.79,1.29 22.18,1.97 1.3,0.4 3.67,0 3.94,1.82 0.83,4.83 0.54,9.77 1.16,14.63 0.97,8.17 1.54,16.37 2.11,24.57 2.46,0.27 4.95,0.33 7.43,0.17 4.58,-12.7 10.3,-24.95 14.74,-37.7 9.15,1.11 18.23,2.74 27.37,3.99 -1.75,6.57 -5.18,12.5 -7.46,18.87 -2.82,7.97 -6.27,15.7 -9.78,23.38 -0.86,1.97 -1.88,3.93 -2.16,6.08 0.28,1.12 0.83,2.14 1.38,3.16 9.18,15.83 18.11,31.82 27.54,47.51 1.87,3.07 3.5,6.29 4.84,9.63 -6.83,-0.39 -13.47,-2.11 -20.25,-2.87 -3.23,-0.39 -6.45,-0.87 -9.65,-1.42 -6.72,-11.17 -12.75,-22.73 -19.23,-34.03 -1.74,-2.98 -3.16,-6.21 -5.52,-8.76 -1.92,-0.7 -3.99,-0.72 -5.99,-0.95 0.48,6.3 1.11,12.59 1.39,18.91 0.29,7.31 1.49,14.55 1.73,21.86 -8.94,-0.3 -17.78,-1.69 -26.6,-3.04 -0.82,-4.35 -1.17,-8.77 -1.48,-13.17 -1.2,-13.57 -2.59,-27.13 -3.04,-40.76 -0.21,-7.33 -2.15,-14.48 -2.34,-21.81 0.02,-10.74 -2.5,-21.3 -2.31,-32.04 m 3.33,1.61 c 0.07,4.34 0.38,8.67 0.84,12.99 0.81,7.93 0.86,15.91 1.57,23.86 1.86,21.71 4.75,43.35 5.67,65.15 6.95,0.58 13.87,1.54 20.86,1.67 0.3,-13.56 -2.46,-26.94 -2.9,-40.46 3.78,0.25 7.54,0.7 11.28,1.36 4.7,7.77 8.98,15.8 13.39,23.74 2.42,4.26 4.96,8.45 7.18,12.81 1.27,2.32 2.36,4.82 4.25,6.73 1.33,0.88 2.98,0.99 4.52,1.3 5.74,0.8 11.51,1.46 17.31,1.43 -2.37,-5.56 -5.58,-10.69 -8.63,-15.89 -7.07,-11.74 -13.55,-23.81 -20.48,-35.62 -0.76,-1.62 -2.02,-3.33 -1.46,-5.2 0.75,-2.95 2.14,-5.69 3.27,-8.5 3.98,-9.73 7.92,-19.47 11.94,-29.19 1.03,-2.5 1.72,-5.11 2.33,-7.74 -6.89,-1.37 -13.85,-2.53 -20.88,-2.67 -2.08,5.57 -4.03,11.19 -6.34,16.67 -2.9,6.87 -4.97,14.08 -8.35,20.75 -3.87,0.15 -7.74,-0.22 -11.5,-1.15 -0.6,-5.37 -0.78,-10.79 -1.7,-16.12 -1.36,-7.8 -1.63,-15.73 -2.57,-23.58 -6.42,-1.55 -13.02,-2.16 -19.6,-2.34 z"
       id="path245"
       inkscape:connector-curvature="0"
       style="opacity:1;fill:#9e9e9e" />
    <path
       d="m 193.69,325.31 c 1.25,-0.06 2.5,-0.13 3.76,-0.2 -0.52,6.89 -1.17,13.78 -2.49,20.58 -1.53,7.99 -1.25,16.16 -2.34,24.2 -1.71,12.69 -2.64,25.47 -4.59,38.13 -1.21,7.61 -1.84,15.29 -2.79,22.94 -0.87,6.62 -0.61,13.33 -1.63,19.94 -1.01,6.85 -1.6,13.76 -2.91,20.57 -11.18,1.44 -22.3,3.36 -33.53,4.42 -1.92,0 -4.61,0.75 -5.69,-1.4 -2.59,-4.3 -3.86,-9.25 -6.16,-13.71 -3.56,-7.08 -5.77,-14.77 -9.7,-21.67 -1.92,3.55 -3.83,7.11 -6.01,10.52 -6.19,9.54 -12.06,19.29 -17.93,29.03 -1.07,1.59 -2.08,3.37 -3.76,4.4 -1.76,0.84 -3.7,1.18 -5.59,1.57 -7.53,1.37 -15.1,2.51 -22.55,4.28 -3.48,0.85 -7.01,1.47 -10.57,1.89 2.21,-17.03 6.06,-33.81 8.35,-50.83 0.98,-10.73 3,-21.33 4.81,-31.95 1.68,-8.06 2.18,-16.3 3.53,-24.41 1.02,-6.28 2.3,-12.51 3.11,-18.82 0.39,-2.1 0.49,-4.36 1.59,-6.24 1.16,-1.1 2.56,-1.9 3.89,-2.76 -1.29,3.86 -2.38,7.8 -2.93,11.85 -3.4,24.73 -7.57,49.35 -11.73,73.96 -1.07,6.83 -1.74,13.71 -2.93,20.52 -1.21,7.85 -3,15.62 -3.82,23.54 8.35,-1.11 16.46,-3.51 24.8,-4.67 2.77,-0.51 5.69,-0.72 8.24,-1.99 2.14,-1.54 3.39,-3.96 4.79,-6.12 6.48,-11.1 13.58,-21.82 19.98,-32.96 1.68,-2.89 3.66,-5.58 5.77,-8.16 3.14,6.24 5.42,12.87 8.44,19.17 3.22,6.66 5.63,13.69 9.1,20.24 7.94,-0.11 15.64,-2.18 23.49,-3.1 3.5,-0.45 6.94,-1.19 10.37,-2 1.95,-9.16 2.18,-18.55 3.59,-27.79 1.5,-9.89 1.78,-19.91 3.1,-29.82 1.49,-13.73 3.77,-27.37 4.79,-41.15 1.67,-13.75 3.33,-27.51 4.11,-41.35 z"
       id="path247"
       inkscape:connector-curvature="0"
       style="opacity:1;fill:#9e9e9e" />
    <path
       d="m 742.18,329.12 c 3.63,0.19 7.26,0.49 10.86,1.08 13.07,2.09 26.12,4.33 39.14,6.67 11.42,1.49 22.7,3.88 34.02,5.96 1.56,8.77 3.18,17.59 3.55,26.52 -19.72,-2.06 -38.9,-7.44 -58.53,-10.08 1.28,11.48 3.57,22.82 4.99,34.29 -0.99,-0.15 -1.96,-0.28 -2.93,-0.4 -0.82,-4.39 -1.45,-8.81 -1.98,-13.24 -0.98,-8.58 -2.95,-17.05 -3.03,-25.72 4.66,0.6 9.28,1.49 13.89,2.4 7.88,1.54 15.93,1.96 23.8,3.64 6.72,1.41 13.43,2.97 20.28,3.67 -0.16,-6.89 -1.26,-13.7 -2.81,-20.39 -6.49,-1.54 -13.13,-2.27 -19.69,-3.45 -19.22,-3.65 -38.48,-7.27 -57.94,-9.31 0.36,11.22 2.5,22.26 3.88,33.37 0.9,6.79 1.35,13.63 2.05,20.44 0.69,6.85 2.19,13.59 2.9,20.43 1.07,11.01 3.05,21.91 4.25,32.9 1.47,10.96 1.47,22.13 4.14,32.92 16.4,4.21 33.4,5.06 49.97,8.39 10.97,1.76 21.71,4.9 32.83,5.74 -0.7,-6.64 -1.74,-13.23 -3.02,-19.77 -12.41,-3.6 -25.33,-4.86 -38.01,-7.19 -7.79,-1.59 -15.74,-2.34 -23.46,-4.32 -0.66,-3.7 -1.27,-7.41 -1.71,-11.14 -1.04,-9.25 -2.99,-18.42 -2.85,-27.77 14.34,0.63 28.04,5.75 42.41,6.22 -0.49,-6.71 -1.52,-13.37 -3.25,-19.87 -12.61,-3.21 -25.76,-3.67 -38.27,-7.28 6.51,-0.64 12.8,1.54 19.16,2.55 7.45,1.46 15.08,2.12 22.39,4.3 1.24,8.72 3.2,17.35 3.68,26.15 -14.62,-2.12 -29.07,-5.29 -43.68,-7.48 1.27,11.22 3.44,22.32 4.87,33.52 3.34,0.95 6.74,1.68 10.2,2.09 8.33,1.01 16.61,2.42 24.83,4.11 8.79,1.79 17.76,2.79 26.39,5.33 1.89,8.66 2.74,17.51 3.76,26.31 -7.93,-0.57 -15.55,-3.07 -23.44,-3.92 -13.56,-1.06 -26.77,-4.53 -40.18,-6.62 -8.63,-1.73 -17.4,-2.7 -25.95,-4.78 -0.65,-7.13 -0.8,-14.3 -2.05,-21.36 -1.37,-7.65 -1.89,-15.42 -3.23,-23.07 -2.05,-12.38 -2.36,-24.96 -4.24,-37.35 -1.95,-15.16 -4.21,-30.28 -6.09,-45.45 -0.91,-6.32 -2,-12.64 -1.9,-19.04 z"
       id="path249"
       inkscape:connector-curvature="0"
       style="opacity:1;fill:#9e9e9e" />
    <path
       d="m 170.57,333.22 c 0.67,-0.02 2,-0.05 2.67,-0.06 -0.85,14.34 -3.19,28.52 -4.95,42.77 -1.29,15.74 -3.65,31.38 -5.53,47.06 -1.08,8.04 -1.71,16.14 -3.1,24.13 -4.34,-6.99 -6.95,-14.82 -10.41,-22.25 -5.69,-12.6 -10.57,-25.56 -16.41,-38.09 -3.64,4.84 -6.71,10.06 -9.85,15.23 -11.98,19.31 -23.33,39.02 -35.74,58.06 2.78,-16.53 5.11,-33.13 7.36,-49.73 2.32,-14.76 4.66,-29.52 6.66,-44.33 0.94,-6.2 2.02,-12.41 1.93,-18.7 1.26,-0.21 2.53,-0.42 3.8,-0.63 -0.82,9.84 -3.14,19.48 -3.99,29.31 -1.05,11.8 -3.64,23.38 -5.09,35.13 -0.81,6.48 -1.75,12.95 -2.66,19.42 -0.8,5.87 -2.65,11.56 -3.07,17.49 3.82,-4.7 6.31,-10.27 9.59,-15.34 8.57,-13.81 17.04,-27.69 25.38,-41.64 1.79,-3.22 3.56,-6.52 6.3,-9.06 5.73,11.98 10.18,24.52 15.82,36.54 3.15,6.81 5.42,14.03 9.05,20.61 1.24,-8.36 2.03,-16.77 2.71,-25.18 0.94,-11.5 3.12,-22.85 4.4,-34.32 1.47,-9.46 1.61,-19.07 2.97,-28.54 0.84,-5.95 1.53,-11.91 2.16,-17.88 z"
       id="path251"
       inkscape:connector-curvature="0"
       style="opacity:1;fill:#9e9e9e" />
    <path
       d="m 418.42,517.25 c 2.23,-0.63 4.94,0.22 6.15,2.28 0.53,1.96 0.41,4.49 -1.38,5.79 -2.04,1.56 -5.53,1.51 -7.05,-0.74 -1.24,-2.49 -0.75,-6.43 2.28,-7.33 z"
       id="path253"
       inkscape:connector-curvature="0"
       style="opacity:1;fill:#9e9e9e" />
  </g>
  <g
     id="#46464671"
     transform="matrix(0.07324204,0,0,0.07324204,-0.9143045,9.7772654)">
    <path
       d="m 581.32,20.66 c 7.27,-0.48 14.57,-2.05 21.85,-0.88 -4.71,0.39 -9.41,0.8 -14.12,1.08 -10.12,0.56 -20.11,2.39 -30.22,3.15 7.31,-2.14 14.96,-2.51 22.49,-3.35 z"
       id="path256"
       inkscape:connector-curvature="0"
       style="opacity:0.43999999;fill:#464646" />
  </g>
  <g
     id="#52525286"
     transform="matrix(0.07324204,0,0,0.07324204,-0.9143045,9.7772654)">
    <path
       d="m 730.71,19.91 c 3.85,-0.51 7.74,-0.7 11.63,-0.78 -11.44,1.85 -22.96,3.08 -34.44,4.56 -8.04,0.97 -16.04,2.3 -24.12,2.8 2.57,-0.8 5.22,-1.39 7.91,-1.69 13.02,-1.53 26.02,-3.21 39.02,-4.89 z"
       id="path259"
       inkscape:connector-curvature="0"
       style="opacity:0.52999998;fill:#525252" />
  </g>
  <g
     id="#4f4f4f81"
     transform="matrix(0.07324204,0,0,0.07324204,-0.9143045,9.7772654)">
    <path
       d="m 637.75,20.75 c 6.09,-0.79 12.13,0.63 18.12,1.58 5.44,1 11.03,1.61 16.16,3.83 -11.38,-2.1 -22.77,-4.15 -34.28,-5.41 z"
       id="path262"
       inkscape:connector-curvature="0"
       style="opacity:0.51000001;fill:#4f4f4f" />
    <path
       d="m 526.8,559.31 c 10.53,-0.23 21.05,0.96 31.55,1.64 -6.8,0.05 -13.6,-0.34 -20.41,-0.33 -3.75,0 -7.49,-0.5 -11.14,-1.31 z"
       id="path264"
       inkscape:connector-curvature="0"
       style="opacity:0.51000001;fill:#4f4f4f" />
  </g>
  <g
     id="#0e0d37ff"
     transform="matrix(0.07324204,0,0,0.07324204,-0.9143045,9.7772654)">
    <path
       d="m 741.29,30.01 c 3.87,-0.85 7.77,-1.56 11.74,-1.81 -2.99,4.54 -7.36,7.86 -11.14,11.69 -10.49,10.51 -21.13,20.87 -31.73,31.28 -3.2,3.08 -3.51,7.71 -4.5,11.79 -1.59,7.55 -4.91,14.55 -7.94,21.6 -3.09,7.29 -7.22,14.08 -11.42,20.77 -13.02,19.8 -29.64,37.14 -48.47,51.49 -18.11,14.16 -37.85,26.09 -58.24,36.64 -13.46,6.42 -27.11,12.59 -41.39,16.98 -10.02,3.08 -19.8,6.97 -30,9.44 -9.11,1.93 -18.34,3.27 -27.31,5.8 9.09,0.14 18.11,-1.06 27.14,-1.91 15.17,-1.55 29.98,-5.48 44.42,-10.29 6.6,-2.48 13.49,-4.12 19.92,-7.04 3.51,-1.56 7.06,-3.03 10.63,-4.45 6.72,-2.65 12.94,-6.35 19.41,-9.55 17.17,-9.21 33.41,-20.17 48.32,-32.73 2.78,-2.3 5.28,-5.01 8.45,-6.81 4.22,0.16 7.96,2.58 11.94,3.8 6.86,2.23 13.22,5.7 19.97,8.21 6.83,2.54 13.14,6.22 19.75,9.25 8.15,3.76 15.94,8.25 23.9,12.38 0.15,6.6 -1.55,13.02 -3.1,19.37 -1.82,6.99 -3.38,14.04 -5.51,20.94 -2.71,8.84 -4.28,18.03 -7.72,26.64 -1.45,3.53 -2.62,7.18 -3.29,10.95 6.47,1.87 12.93,3.83 19.19,6.34 9.16,3.66 18.84,5.88 27.79,10.06 -6.81,-0.14 -13.45,-1.76 -20.2,-2.44 -20.95,-2.35 -41.91,-4.82 -62.99,-5.71 -9.65,-0.52 -19.24,-1.8 -28.87,-2.63 -10,-0.72 -20,-1.51 -30.01,-2.02 -7.21,-0.79 -14.48,-0.48 -21.69,-1.2 -8.09,-0.84 -16.24,-0.19 -24.34,-0.86 -11.69,-0.87 -23.44,0.25 -35.1,-0.96 -5.31,-0.51 -10.63,-0.34 -15.95,-0.38 -23.32,-0.59 -46.64,-0.21 -69.96,0.21 -8.33,0.6 -16.69,0.43 -25.03,0.63 -11.4,0.88 -22.84,1.38 -34.23,2.48 -7.03,0.85 -14.17,1.31 -20.99,3.37 3.4,-0.29 6.81,-0.54 10.24,-0.53 31.01,-0.11 62.03,-0.46 93.03,0.46 9.61,0.27 19.27,-0.28 28.85,0.79 4.63,0.52 9.28,0.5 13.93,0.54 8.07,0.25 16.1,1.14 24.18,1.13 23.76,0.94 47.47,2.87 71.22,4.06 10.42,1.08 20.94,0.92 31.33,2.38 13,1.6 26.1,2.25 39.09,3.98 6.93,0.54 13.9,0.55 20.78,1.67 15.8,1.63 31.49,4.13 47.21,6.38 4.19,0.71 8.43,1.21 12.68,1.46 9.68,0.62 19.11,3.07 28.69,4.44 10.56,1.52 20.91,4.32 31.54,5.48 5.01,0.75 10.2,1.15 14.94,3.07 1.12,1.58 0.85,3.71 1.13,5.56 0.2,5.37 1.39,10.61 2.39,15.87 1.67,9.9 3.41,19.8 5.02,29.72 0.54,3.83 1.97,7.7 1.35,11.6 -1.79,2.72 -4.27,5.02 -7.04,6.71 -2.58,0.89 -5.4,0.26 -8.06,0.3 2.29,13.47 4.58,26.95 6.58,40.46 0.38,2.56 0.89,5.1 1.44,7.63 5.52,1.17 11.18,1.79 16.55,3.63 2.74,18.67 6.55,37.16 9.23,55.84 0.22,2.91 1.07,6.46 -1.35,8.73 -2.23,2.27 -4.73,5.45 -8.27,5.03 -7.62,-0.76 -14.88,-3.5 -22.48,-4.34 -14.87,-1.55 -29.21,-6.12 -44.02,-8.02 -8.8,-1.03 -17.54,-2.47 -26.23,-4.18 -9.39,-1.95 -18.97,-2.69 -28.37,-4.58 -2.04,-8.34 -2.62,-16.93 -4.47,-25.3 -15.17,-2.48 -30.62,-2.11 -45.88,-3.63 -14.64,-1.28 -29.32,-1.86 -43.94,-3.29 -8.14,-0.54 -16.3,-0.62 -24.43,-1.17 -1.83,0.05 -4.03,-0.53 -5.43,0.97 -3.9,3.53 -7.27,7.62 -10.33,11.89 6.15,1.55 12.53,1.17 18.8,1.65 9.81,0.85 19.66,1.04 29.44,2.22 -6.1,7.27 -13.38,13.53 -21.14,18.97 -3.69,2.44 -7.44,4.9 -11.59,6.49 -4.29,1.57 -8.94,0.95 -13.38,0.63 -7.71,-0.83 -15.5,-0.43 -23.19,-1.42 -3.57,-0.11 -7.83,-1.23 -10.76,1.42 -4.07,3.46 -8.18,6.86 -12.11,10.46 11.74,0.53 23.49,0.87 35.19,2.05 -3.5,4.97 -8.17,8.88 -12.72,12.84 -5.27,4.51 -11.14,8.27 -17.14,11.73 -2.75,1.69 -6.01,2.18 -9.19,1.95 -7.68,-0.41 -15.37,-0.39 -23.03,-1.15 -5.11,-0.32 -10.78,-1.26 -15.3,1.81 -18.56,11.58 -38.67,20.33 -58.54,29.36 -1.71,0.63 -3.58,1.6 -5.42,0.93 -2.89,-0.88 -5.57,-2.3 -8.31,-3.52 -6.63,-3.09 -13.57,-5.51 -20.07,-8.88 -10.47,-5.42 -21.12,-10.56 -31.08,-16.9 -3.03,-2.02 -6.53,-3.47 -10.24,-3.2 -10.71,0.29 -21.4,1.61 -32.13,1.36 -3.94,-0.09 -7.39,-2.25 -10.71,-4.14 -9.88,-5.92 -18.6,-13.66 -26.29,-22.2 11.68,-1.28 23.43,-1.63 35.17,-2.02 -3.36,-3.19 -6.91,-6.18 -10.46,-9.15 -1.41,-1.06 -2.82,-2.39 -4.65,-2.57 -4,-0.36 -7.99,0.23 -11.98,0.4 -5.68,0.34 -11.38,0.02 -17.05,0.29 -3.34,0.13 -6.65,0.7 -9.98,0.77 -3.57,0.1 -6.79,-1.71 -9.86,-3.3 -10.77,-5.92 -19.98,-14.32 -28.15,-23.42 10.33,-0.61 20.65,-1.33 30.97,-2.03 5.76,-0.2 11.55,-0.38 17.22,-1.51 -2.64,-3.68 -5.6,-7.12 -8.71,-10.41 -1.28,-1.23 -2.55,-2.79 -4.46,-2.88 -4.83,-0.52 -9.67,0.29 -14.49,0.6 -21.18,1.01 -42.31,2.73 -63.43,4.5 -2.99,0.25 -5.95,0.7 -8.91,1.2 -0.67,5.32 -1.05,10.67 -1.49,16.02 -0.26,2.4 -0.4,4.91 -1.49,7.12 -2.31,0.91 -4.81,1.16 -7.25,1.51 -5.33,0.67 -10.65,1.55 -16.02,1.87 -13.42,0.83 -26.39,4.94 -39.8,5.76 -3.56,-5.04 -6.47,-10.5 -10.18,-15.43 -4.68,6.17 -8.15,13.13 -12.41,19.59 -11.81,1.7 -23.41,4.57 -35.15,6.7 -8.15,1.94 -16.56,2.39 -24.69,4.4 -3.09,0.58 -6.26,1.59 -9.44,1.12 -1.93,-0.9 -3.5,-2.39 -5.01,-3.86 -1.52,-1.58 -3.26,-3.42 -2.89,-5.81 0.42,-6.1 1.97,-12.05 2.89,-18.09 2.17,-10.88 3.15,-21.94 5.04,-32.86 1.04,-8.12 3.55,-15.97 4.35,-24.13 1.37,-11.7 4.03,-23.2 5.33,-34.9 1.7,-15.87 5.66,-31.42 7,-47.33 -2.63,0.99 -5.2,2.16 -7.52,3.75 -6.88,4.66 -13.78,9.41 -19.65,15.34 -4.24,4.1 -7.66,8.92 -11.6,13.29 -0.82,-12.4 4.71,-24.23 11.74,-34.1 7.12,-10.66 16.04,-19.94 25.31,-28.72 17.22,-16.07 36.27,-30.04 55.79,-43.17 24.29,-15.71 49.35,-30.35 75.7,-42.36 5.67,-2.68 11.66,-4.64 17.26,-7.5 -10.71,1.48 -20.52,6.2 -30.93,8.82 -3.52,-9.17 -5.2,-18.94 -6.76,-28.59 17.52,-10.59 36.3,-18.84 55.04,-27 2.97,-1.32 6.24,-2.2 8.78,-4.3 2.76,-2.62 4.67,-5.98 7.43,-8.6 2.46,-2.45 5.63,-3.97 8.77,-5.36 8.78,-4 18.09,-6.64 27.27,-9.56 6.7,-2.19 13.73,-3 20.56,-4.62 10.99,-2.72 22.22,-4.3 33.36,-6.25 2.62,-0.45 5.13,-1.48 7.31,-3.01 22.71,-16.64 46.26,-32.17 70.61,-46.31 10.32,-6.28 20.98,-12 31.84,-17.29 16.07,-8.8 32.97,-15.97 49.87,-22.99 7.16,-2.49 14.2,-5.31 21.41,-7.67 16.61,-4.63 33.07,-10.57 50.39,-11.96 9.7,-0.9 19.24,-3.4 29.04,-3.15 11.36,0.18 22.76,-0.5 34.07,0.8 14.71,0.9 29.2,3.83 43.51,7.21 5.45,1.24 11.02,0.13 16.46,-0.5 8.33,-0.95 16.52,-2.77 24.84,-3.78 8.79,-1.29 17.74,-1.22 26.44,-3.09 m -131.5,12.64 c -5.34,3.17 -9.46,8.2 -12.03,13.82 -2.81,6.88 -5.41,13.99 -5.89,21.49 -1.07,10.84 1.08,21.72 5.14,31.76 1.69,2.72 3.3,5.49 5.17,8.1 7.53,10.68 19.85,17.78 32.79,19.25 -5.22,-3.58 -11.14,-6.27 -15.47,-11.03 2.05,-1.48 4.12,-2.95 6.28,-4.27 16.02,-9.75 31.55,-20.28 46.77,-31.24 4.81,-3.59 9.65,-7.16 14.77,-10.3 -5.21,16.66 -15.67,31.06 -26.97,44.13 -3.94,4.74 -8.75,8.69 -12.39,13.67 8.88,0.09 17.05,-4.78 22.65,-11.41 8.53,-10.09 15.52,-21.52 20.34,-33.83 2.31,-5.69 4.31,-11.6 4.69,-17.78 0.41,-2.72 0.08,-6.04 2.44,-7.98 7.5,-6.87 16.07,-12.59 22.92,-20.15 1.47,-0.63 2.73,-1.63 4.03,-2.55 -5.69,-0.02 -11.33,0.83 -16.93,1.72 -11.5,0.18 -22.86,2.2 -34.34,2.81 -6.21,-1.5 -12.41,-3.16 -18.79,-3.82 -11.74,-2.91 -23.98,-2.46 -35.96,-3.61 -3.04,0.14 -6.8,-1.22 -9.22,1.22 m -47.73,4 c -12.65,2.22 -25.18,5.17 -37.53,8.68 -6.86,2.38 -13.92,4.17 -20.73,6.69 -10.8,4.49 -21.56,9.08 -32.28,13.76 -14.46,6.99 -29.05,13.77 -42.94,21.88 -7.92,4.79 -13.03,13.07 -16.31,21.52 -1.65,2.26 -2.4,5.03 -3.16,7.69 -3.66,13.79 -4.86,28.51 -1.76,42.52 2.38,8.59 4.42,17.54 9.54,25 5.39,9.81 14.04,17.59 23.72,23.05 7.5,4.32 15.88,6.82 24.33,8.45 -8.11,-4.4 -16.87,-8.39 -22.88,-15.66 8.37,-3.5 16.98,-6.36 25.37,-9.8 12.66,-4.8 25.05,-10.26 37.52,-15.53 9.94,-4.79 20.2,-8.91 30.06,-13.89 16.2,-7.58 32.09,-15.8 47.87,-24.2 5.77,-3.35 11.78,-6.27 17.31,-10.02 -1.89,-2.73 -4.01,-5.29 -6.1,-7.87 -3.32,-4.07 -5.49,-8.9 -7.64,-13.65 -1.95,-5.71 -4.28,-11.36 -5.02,-17.39 -1.05,-8.26 -1.11,-16.64 -0.27,-24.92 0.49,-5.57 2.58,-10.79 4.24,-16.08 1.96,-5.17 5.11,-9.73 8.62,-13.96 -10.75,0.25 -21.45,1.53 -31.96,3.73 m -181.03,81.34 c -7.44,5.23 -15.14,10.12 -22.08,16.02 -5.68,5.31 -11.31,10.93 -14.87,17.94 -7.42,12.1 -8.92,27.02 -6.51,40.81 1.78,7.11 5.16,13.78 9.49,19.68 1.93,2.53 3.96,5.02 6.42,7.07 8.64,7.2 19.15,12.57 30.49,13.52 -4.82,-2.53 -10.57,-4 -13.98,-8.55 4.37,-1.67 8.89,-2.84 13.36,-4.21 7.23,-2.28 14.39,-4.78 21.57,-7.23 4.57,-1.45 9.19,-2.8 13.54,-4.87 -5.53,-6.14 -11.3,-12.19 -14.98,-19.68 -5.15,-10.2 -8.96,-21.22 -9.98,-32.65 -0.38,-6.13 -0.38,-12.29 0.18,-18.41 0.61,-6.68 2.92,-13.03 4.09,-19.6 1.87,-1.73 2.3,-4.49 3.38,-6.72 1.76,-5.05 5.36,-9.09 8.59,-13.24 -10.07,5.95 -19.37,13.1 -28.71,20.12 m 241.69,30.73 c -6.23,4.61 -12.46,9.25 -19.11,13.24 -0.01,-1.63 -0.02,-3.25 0,-4.87 -6.48,-2.43 -13.31,0.63 -19.18,3.37 -10.25,5.18 -19.98,11.7 -27.79,20.19 -2.45,2.59 -3.21,6.18 -4.91,9.23 -1.12,1.31 -2.87,1.83 -4.38,2.56 -4.95,1.96 -9.88,3.99 -14.77,6.12 -6.9,3 -14.1,5.23 -21.13,7.89 -4.61,1.73 -9.2,3.49 -13.92,4.85 -5.68,1.74 -11.62,2.82 -16.88,5.68 11.68,1.06 23.4,-0.78 34.76,-3.42 9.31,-1.82 18.45,-4.47 27.32,-7.84 6.76,-2.48 13.58,-4.81 20.09,-7.91 26.89,-11.72 53.24,-25.99 74.59,-46.4 2.89,-2.69 5.45,-5.7 7.69,-8.95 -4.3,-0.31 -8.64,-1.02 -12.93,-0.38 -3.65,1.38 -6.34,4.4 -9.45,6.64 m -321.66,1.3 c -7.76,1.35 -15.13,4.19 -22.71,6.23 -3.72,1.06 -7.56,2.06 -10.77,4.3 -3.56,2.49 -6.17,6.16 -7.92,10.1 -1.52,3.33 -1.44,7.06 -1.67,10.63 0.16,3.61 1.74,6.91 4.78,8.96 5.52,-3.94 10.76,-8.25 16.24,-12.25 4.91,-3.77 10.3,-6.96 14.72,-11.34 7.12,-3.14 13.18,-8.17 19.94,-11.97 5.88,-3.89 12.45,-6.57 18.34,-10.43 -10.49,0.87 -20.61,3.95 -30.95,5.77 m 5.91,20.92 c -8.15,7.18 -17.32,13.2 -24.77,21.16 -3.37,2.31 -6.32,5.38 -8.01,9.14 -2.44,5.23 -2.53,11.19 -2.13,16.85 0.48,6.93 3.4,13.4 6.89,19.31 5.85,9.28 16.04,15.93 27.09,16.58 -3.54,-2.62 -7.29,-4.96 -10.58,-7.89 12.46,-4.38 25.51,-6.69 38.09,-10.69 4.76,-1.51 9.61,-2.74 14.45,-4.02 -4.18,-4.81 -8.95,-9.08 -12.83,-14.16 -7.81,-11.88 -11.23,-26.63 -8.88,-40.71 0.66,-6.17 3.31,-11.81 5.54,-17.51 2.51,-3.53 4.54,-7.38 7.02,-10.93 -11.02,7.06 -21.58,14.8 -31.88,22.87 m -61.87,10.15 c -1.12,5.8 -0.62,12.65 3.69,17.1 2.01,2.19 5.14,2.43 7.86,3.06 -2.25,-3.8 -4.86,-7.5 -5.89,-11.86 -0.8,-3.37 -1.07,-6.88 -0.69,-10.32 0.48,-4.1 2.77,-7.65 4.53,-11.29 -4.46,3.28 -8.41,7.72 -9.5,13.31 m 428.75,16.95 c -1.43,3.47 -2.19,7.31 -4.43,10.39 -2.76,2.74 -6.91,3.11 -10.41,4.4 3.47,2.14 7.81,2.52 11.07,4.99 1.57,3.24 2.3,6.8 3.57,10.16 2.61,-3.19 2.9,-7.59 5.4,-10.8 2.98,-1.73 6.32,-2.72 9.41,-4.23 -3.09,-1.54 -6.43,-2.51 -9.51,-4.06 -2.27,-3.32 -2.77,-7.54 -5.1,-10.85 m -407.38,52.47 c 5.24,7.55 14.47,11.26 23.44,11.49 -4.66,-3.24 -9.67,-6.13 -13.5,-10.4 -3.85,-4.28 -7.08,-9.13 -9.58,-14.31 -3.03,-6.37 -3.09,-13.54 -3.35,-20.44 -6,10.53 -3.58,23.99 2.99,33.66 m 171.6,-23.56 c -6.74,1.66 -13.66,2.34 -20.44,3.81 -7.55,1.61 -15.23,2.4 -22.81,3.8 5.74,0.83 11.55,0.24 17.31,-0.13 11.04,-0.72 21.92,-2.87 32.85,-4.46 4.56,-0.62 9.07,-1.71 13.23,-3.72 -2.99,-0.83 -6.05,-1.73 -9.18,-1.48 -3.73,0.27 -7.33,1.34 -10.96,2.18 m 172.35,6.48 c -6.45,1.91 -8.85,10.77 -4.78,15.94 3.4,4.74 10.94,5.34 15.18,1.42 4.32,-3.7 4.47,-11.07 0.37,-14.98 -2.72,-2.86 -7.11,-3.46 -10.77,-2.38 m -432.28,22.76 c -4.9,2.28 -9.6,4.95 -14.27,7.66 -24.7,13.6 -48.53,28.87 -70.66,46.36 -4.56,3.7 -9.45,7.04 -13.46,11.37 6.08,-2.79 11.79,-6.36 17.99,-8.89 7.25,-2.96 14.14,-6.76 21.47,-9.51 7.13,-2.59 13.86,-6.11 20.92,-8.86 10.94,-3.78 21.31,-8.95 32.19,-12.88 8.87,-4.1 18.33,-6.72 27.12,-11 5.58,-2.61 11.53,-4.29 17.12,-6.89 4.16,-1.93 8.39,-3.73 12.66,-5.41 5.92,-2.31 11.46,-5.48 17.47,-7.58 2.73,-0.92 5.3,-2.29 7.5,-4.18 -6.28,0.85 -12.35,2.73 -18.45,4.4 -7.01,2.04 -14.11,3.73 -21.14,5.69 -7.18,2.06 -14.64,2.98 -21.72,5.39 -8,2.32 -15.92,4.97 -24.05,6.8 10.62,-9.62 23.02,-16.98 35.17,-24.47 -9.09,2.94 -17.23,8.01 -25.86,12 m 373.78,-2.7 c 1.65,0.85 3.42,1.56 4.9,2.73 1.3,1.72 1.99,3.81 2.82,5.79 0.83,-1.93 1.4,-4.04 2.75,-5.69 1.67,-1.42 3.67,-2.39 5.55,-3.51 -1.75,-0.59 -3.49,-1.18 -5.22,-1.76 -0.86,-1.95 -1.73,-3.89 -2.55,-5.84 -2,3.43 -4.8,6.29 -8.25,8.28 m 109.59,-4.22 c -2.85,1.38 -3.13,5.27 -1.6,7.73 1.67,3.01 6.4,2.77 8.51,0.36 2.19,-2.23 1.51,-6.27 -0.91,-8.05 -1.87,-0.82 -4.15,-0.97 -6,-0.04 m -316.96,15.19 c -11.33,3.75 -22.53,7.97 -34.16,10.75 -5.86,1.43 -11.81,2.49 -17.59,4.25 2.83,1.48 5.9,2.54 9.13,2.64 10.25,0.93 20.17,-2.39 29.8,-5.48 14.29,-5.06 27.21,-13.4 39.07,-22.73 -8.78,3.45 -17.31,7.54 -26.25,10.57 m -120.02,8.97 c -7.08,2.71 -14.44,4.66 -21.38,7.75 -7.27,3.21 -14.91,5.51 -22.17,8.76 -6.79,3.05 -13.93,5.22 -20.72,8.27 -7.95,3.54 -16.19,6.36 -24.11,9.97 -7.32,3.36 -15.08,5.72 -22.09,9.72 20.08,-5.42 39.83,-11.99 59.69,-18.16 8.25,-2.84 16.46,-5.76 24.79,-8.35 13.17,-4.99 26.52,-9.58 39.33,-15.47 6.18,-2.97 12.84,-5.72 17.4,-11.05 -10.66,1.03 -20.79,4.8 -30.74,8.56 m 169.37,25.48 c -8.5,0.71 -17.05,0.08 -25.54,0.8 -6.08,0.55 -12.2,0.63 -18.26,1.34 -0.3,3.32 -0.46,6.66 -0.51,10 -0.07,6.32 -1.38,12.57 -1.2,18.9 0.16,7.03 -1.17,13.99 -0.99,21.02 0.11,5.35 -0.2,10.71 -1.06,16 2.64,0.81 5.41,0.82 8.11,0.25 6.2,0.34 12.37,-0.8 18.58,-0.52 3.19,0.15 6.41,-0.05 9.46,-1.08 3.38,-0.04 6.76,0.16 10.13,0.49 0.04,4.68 0.08,9.36 -0.08,14.04 -0.31,-3.13 -0.61,-6.25 -0.92,-9.37 -0.15,3.09 -0.29,6.19 -0.43,9.29 -6.4,0.35 -12.79,0.88 -19.2,1.19 -8.52,0.4 -17.14,-0.5 -25.58,1.07 -0.91,8.6 -1.02,17.27 -0.64,25.9 4.4,0.24 8.81,0.14 13.2,-0.3 6.65,-0.69 13.34,-0.52 20.01,-0.81 13.03,-0.74 26.1,-0.32 39.13,-1.17 0.15,-2.59 0.31,-5.17 0.31,-7.76 0.6,-8.93 -0.02,-17.9 0.87,-26.82 0.51,-4.95 0.71,-9.98 -0.32,-14.89 0.57,-5.89 0.53,-11.82 0.15,-17.72 -3.83,-0.2 -7.67,-0.08 -11.45,0.54 -11.2,-0.11 -22.39,0.75 -33.58,0.9 0.29,-4.59 0.39,-9.19 0.47,-13.79 3.44,-0.73 6.97,-0.93 10.49,-0.83 7,0.15 13.97,-0.74 20.97,-0.84 4.54,-0.06 9.08,-0.03 13.63,-0.09 -0.02,-8.79 0.37,-17.57 0.26,-26.35 -8.67,0.02 -17.36,-0.14 -26.01,0.61 m 36.03,-0.7 c -0.47,8.62 -0.48,17.28 -0.1,25.9 7.71,0.56 15.43,0.06 23.14,0.19 0.58,7.22 0.2,14.46 0.28,21.7 0.06,19.89 -0.1,39.78 0.05,59.67 8.9,0.02 17.79,0 26.69,0.01 0.39,-3.88 0.52,-7.78 0.38,-11.68 -0.33,-9 0.06,-18 -0.34,-27 -0.33,-6.99 -0.13,-13.99 -0.23,-20.99 -0.05,-7.25 -0.49,-14.5 0.18,-21.73 7.72,-0.13 15.44,0.43 23.16,-0.1 0.35,-8.61 0.01,-17.23 -0.49,-25.83 -24.24,-0.26 -48.48,0.18 -72.72,-0.14 m 84.19,0.89 c 0.38,12.81 -0.2,25.66 1.13,38.42 0.89,11.64 -0.2,23.35 0.77,34.98 -1.09,5.61 -0.9,11.35 -0.29,17 0.65,5.77 0.66,11.58 0.54,17.38 2.66,0.04 5.33,0.04 8,-0.01 6.3,0.49 12.63,0.66 18.94,0.32 0.92,-11.5 -0.87,-22.99 -0.31,-34.48 2.28,0.34 4.8,0.13 6.85,1.35 1.42,1.47 2.29,3.37 3.24,5.16 3.32,6.87 7.38,13.33 10.67,20.21 1.56,3 2.78,6.26 5.01,8.86 3.26,1.23 6.83,1.09 10.27,1.26 7,0.04 13.95,1.14 20.96,1.24 -3.07,-5.48 -6.46,-10.77 -9.55,-16.23 -3.77,-6.64 -8.23,-12.89 -11.43,-19.84 3.92,0.12 7.84,0.49 11.73,1.02 0.06,-7.52 0.28,-15.08 -0.69,-22.55 -0.46,-3.62 -0.75,-7.25 -1.03,-10.87 0.19,-9.45 -0.23,-18.91 -0.98,-28.32 -0.22,-3.71 -0.21,-7.46 -0.91,-11.12 l -0.03,0.65 0.01,-0.86 c -8.27,-0.5 -16.53,-1.27 -24.81,-1.16 -2.97,-0.9 -6.07,-1.21 -9.16,-1.18 -6.69,0.01 -13.33,-1.04 -20.02,-0.98 -6.3,0.01 -12.6,-0.25 -18.91,-0.25 m -200.31,3.89 0.62,0.05 -0.88,-0.1 c -1.47,6.59 -1.06,13.37 -1.41,20.06 -0.31,5.68 -0.37,11.39 -1.14,17.04 -0.75,5.38 -0.54,10.83 -1.06,16.23 -3.96,-6 -5.83,-13.02 -8.82,-19.49 -4.77,-10.39 -8.48,-21.23 -13.42,-31.54 -8.44,-0.23 -16.89,0.61 -25.21,2.01 -2.11,21.17 -3.73,42.38 -5.59,63.57 -0.4,4.35 -0.28,8.72 -0.49,13.08 -0.7,10.36 -1.94,20.68 -2.54,31.04 3.29,-0.18 6.59,-0.4 9.88,-0.72 5.59,0.43 11.16,-0.42 16.73,-0.93 0.67,-3.03 1.14,-6.11 1.25,-9.21 0.4,-10.7 1.67,-21.35 2.19,-32.04 0.14,-3.81 1.17,-7.49 1.83,-11.23 2.71,5.27 5.15,10.67 7.27,16.2 2.88,7.55 6.87,14.63 9.74,22.18 1.47,3.56 2.6,7.31 4.73,10.56 2.6,1.26 5.62,0.52 8.39,0.35 5.95,-0.8 11.96,-0.58 17.93,-1.03 0.21,-2.64 0.45,-5.27 0.47,-7.9 1.26,-11.39 1.2,-22.85 2.21,-34.25 0.3,-5.27 0.07,-10.56 0.62,-15.81 0.69,-6.57 0.4,-13.19 1.1,-19.75 0.65,-6.03 0.23,-12.11 0.91,-18.13 0.45,-3.96 0.67,-7.94 0.66,-11.93 -8.68,-0.28 -17.39,0.46 -25.97,1.69 m 284.5,0.28 c -0.4,8.78 1.3,17.47 1.11,26.24 3.65,0.2 7.29,0.56 10.93,1.04 1.17,14.82 2.12,29.65 2.95,44.49 0.21,3.41 0.14,6.83 -0.06,10.25 -3.31,-0.28 -6.61,-0.61 -9.9,-1.01 -0.04,3.7 0.1,7.4 0.49,11.08 0.61,5.36 0.3,10.8 1.29,16.13 16.05,0.92 32.04,3.14 48.13,3.43 -0.54,-8.84 -1.38,-17.66 -2.38,-26.46 -3.28,-0.12 -6.56,-0.29 -9.83,-0.47 -1.31,-18.36 -3.25,-36.66 -4.02,-55.05 3.06,0.04 6.13,0.09 9.2,0.14 0.47,-5.05 0.27,-10.13 -0.23,-15.17 -0.38,-3.35 -0.05,-6.79 -0.95,-10.05 -1.58,-1.5 -4.01,-1.26 -6,-1.59 -13.58,-0.96 -27.11,-2.82 -40.73,-3 m -391.6,10.41 c -1.36,7.62 -1.7,15.36 -2.94,22.99 0.03,1.22 -0.77,2.93 0.64,3.66 3.11,-0.01 6.2,-0.54 9.3,-0.76 -0.29,8.43 -2.03,16.72 -2.25,25.15 -0.31,9.78 -1.86,19.47 -3.58,29.09 -3.38,0.59 -6.76,1.21 -10.14,1.85 -0.72,8.72 -2.33,17.38 -2.54,26.14 8.22,0.05 16.3,-1.59 24.44,-2.43 8,-1.04 16.05,-1.58 24.03,-2.73 0.71,-5.84 0.56,-11.75 1.43,-17.58 0.42,-2.93 0.61,-5.88 0.69,-8.84 -3.33,0.25 -6.66,0.52 -9.98,0.77 0.45,-11.69 2.47,-23.26 3,-34.95 0.47,-6.78 0.26,-13.65 1.79,-20.31 3.4,-0.35 6.81,-0.71 10.21,-1.03 0.36,-8.89 2.02,-17.69 1.98,-26.59 -15.33,2.15 -30.85,2.69 -46.08,5.57 M 656,318.05 c -0.19,10.74 2.33,21.3 2.31,32.04 0.19,7.33 2.13,14.48 2.34,21.81 0.45,13.63 1.84,27.19 3.04,40.76 0.31,4.4 0.66,8.82 1.48,13.17 8.82,1.35 17.66,2.74 26.6,3.04 -0.24,-7.31 -1.44,-14.55 -1.73,-21.86 -0.28,-6.32 -0.91,-12.61 -1.39,-18.91 2,0.23 4.07,0.25 5.99,0.95 2.36,2.55 3.78,5.78 5.52,8.76 6.48,11.3 12.51,22.86 19.23,34.03 3.2,0.55 6.42,1.03 9.65,1.42 6.78,0.76 13.42,2.48 20.25,2.87 -1.34,-3.34 -2.97,-6.56 -4.84,-9.63 -9.43,-15.69 -18.36,-31.68 -27.54,-47.51 -0.55,-1.02 -1.1,-2.04 -1.38,-3.16 0.28,-2.15 1.3,-4.11 2.16,-6.08 3.51,-7.68 6.96,-15.41 9.78,-23.38 2.28,-6.37 5.71,-12.3 7.46,-18.87 -9.14,-1.25 -18.22,-2.88 -27.37,-3.99 -4.44,12.75 -10.16,25 -14.74,37.7 -2.48,0.16 -4.97,0.1 -7.43,-0.17 -0.57,-8.2 -1.14,-16.4 -2.11,-24.57 -0.62,-4.86 -0.33,-9.8 -1.16,-14.63 -0.27,-1.82 -2.64,-1.42 -3.94,-1.82 -7.39,-0.68 -14.76,-1.7 -22.18,-1.97 m -462.31,7.26 -0.04,0.65 c -6.86,1.81 -13.71,3.72 -20.34,6.26 l -0.07,0.94 c -0.67,0.01 -2,0.04 -2.67,0.06 -0.63,5.97 -1.32,11.93 -2.16,17.88 -1.36,9.47 -1.5,19.08 -2.97,28.54 -1.28,11.47 -3.46,22.82 -4.4,34.32 -0.68,8.41 -1.47,16.82 -2.71,25.18 -3.63,-6.58 -5.9,-13.8 -9.05,-20.61 -5.64,-12.02 -10.09,-24.56 -15.82,-36.54 -2.74,2.54 -4.51,5.84 -6.3,9.06 -8.34,13.95 -16.81,27.83 -25.38,41.64 -3.28,5.07 -5.77,10.64 -9.59,15.34 0.42,-5.93 2.27,-11.62 3.07,-17.49 0.91,-6.47 1.85,-12.94 2.66,-19.42 1.45,-11.75 4.04,-23.33 5.09,-35.13 0.85,-9.83 3.17,-19.47 3.99,-29.31 -1.27,0.21 -2.54,0.42 -3.8,0.63 -6.47,2.29 -12.48,5.63 -18.71,8.48 -1.33,0.86 -2.73,1.66 -3.89,2.76 -1.1,1.88 -1.2,4.14 -1.59,6.24 -0.81,6.31 -2.09,12.54 -3.11,18.82 -1.35,8.11 -1.85,16.35 -3.53,24.41 -1.81,10.62 -3.83,21.22 -4.81,31.95 -2.29,17.02 -6.14,33.8 -8.35,50.83 3.56,-0.42 7.09,-1.04 10.57,-1.89 7.45,-1.77 15.02,-2.91 22.55,-4.28 1.89,-0.39 3.83,-0.73 5.59,-1.57 1.68,-1.03 2.69,-2.81 3.76,-4.4 5.87,-9.74 11.74,-19.49 17.93,-29.03 2.18,-3.41 4.09,-6.97 6.01,-10.52 3.93,6.9 6.14,14.59 9.7,21.67 2.3,4.46 3.57,9.41 6.16,13.71 1.08,2.15 3.77,1.4 5.69,1.4 11.23,-1.06 22.35,-2.98 33.53,-4.42 1.31,-6.81 1.9,-13.72 2.91,-20.57 1.02,-6.61 0.76,-13.32 1.63,-19.94 0.95,-7.65 1.58,-15.33 2.79,-22.94 1.95,-12.66 2.88,-25.44 4.59,-38.13 1.09,-8.04 0.81,-16.21 2.34,-24.2 1.32,-6.8 1.97,-13.69 2.49,-20.58 -1.26,0.07 -2.51,0.14 -3.76,0.2 m 548.49,3.81 c -0.1,6.4 0.99,12.72 1.9,19.04 1.88,15.17 4.14,30.29 6.09,45.45 1.88,12.39 2.19,24.97 4.24,37.35 1.34,7.65 1.86,15.42 3.23,23.07 1.25,7.06 1.4,14.23 2.05,21.36 8.55,2.08 17.32,3.05 25.95,4.78 13.41,2.09 26.62,5.56 40.18,6.62 7.89,0.85 15.51,3.35 23.44,3.92 -1.02,-8.8 -1.87,-17.65 -3.76,-26.31 -8.63,-2.54 -17.6,-3.54 -26.39,-5.33 -8.22,-1.69 -16.5,-3.1 -24.83,-4.11 -3.46,-0.41 -6.86,-1.14 -10.2,-2.09 -1.43,-11.2 -3.6,-22.3 -4.87,-33.52 14.61,2.19 29.06,5.36 43.68,7.48 -0.48,-8.8 -2.44,-17.43 -3.68,-26.15 -7.31,-2.18 -14.94,-2.84 -22.39,-4.3 -6.36,-1.01 -12.65,-3.19 -19.16,-2.55 -0.36,-0.07 -1.09,-0.2 -1.45,-0.27 -1.42,-11.47 -3.71,-22.81 -4.99,-34.29 19.63,2.64 38.81,8.02 58.53,10.08 -0.37,-8.93 -1.99,-17.75 -3.55,-26.52 -11.32,-2.08 -22.6,-4.47 -34.02,-5.96 -13.02,-2.34 -26.07,-4.58 -39.14,-6.67 -3.6,-0.59 -7.23,-0.89 -10.86,-1.08 M 410,431.95 c -9.39,0.75 -18.83,-0.08 -28.21,0.9 -6.25,0.62 -12.55,0.36 -18.79,1.13 -8.47,0.99 -17.03,0.86 -25.51,1.67 -9,0.84 -18.04,1.3 -26.99,2.56 -7.38,0.99 -14.88,0.86 -22.22,2.25 -7.98,1.48 -16.14,1.49 -24.13,2.96 -6.05,1.14 -12.19,1.63 -18.25,2.71 -13.29,2.93 -27.04,3.88 -39.95,8.45 11.71,-1.39 23.52,-1.55 35.22,-2.99 14.28,-0.49 28.56,-1.13 42.84,-1.82 5.64,-0.24 11.33,0.11 16.94,-0.67 2.46,-0.23 4.96,-0.85 7.42,-0.41 2.07,1.15 3.63,3 5.26,4.69 3.81,4.18 7.82,8.16 11.7,12.28 1.51,1.48 2.95,3.18 4.95,3.99 2.89,0.7 5.9,0.29 8.84,0.17 -4.33,-7.67 -10.83,-13.81 -15.19,-21.46 3.17,-0.07 6.43,-0.49 9.55,0.31 1.83,1.05 3.11,2.8 4.45,4.4 8.49,10.82 17.38,21.33 25.77,32.23 1.17,1.43 2.31,2.95 3.87,3.99 4.09,0.83 8.29,0.29 12.43,0.37 53.33,-0.04 106.66,0.01 159.98,-0.02 2.71,0.29 4.21,-2.18 5.71,-3.98 8.63,-11.31 17.99,-22.04 26.61,-33.36 1.01,-1.27 2.02,-2.59 3.34,-3.56 3.35,-0.96 6.89,-0.44 10.33,-0.4 -4.77,7.3 -10.85,13.68 -15.07,21.33 2.9,0.07 5.86,0.38 8.73,-0.24 1.79,-0.61 3.01,-2.18 4.35,-3.45 3.85,-4.14 7.92,-8.08 11.7,-12.3 1.67,-1.75 3.3,-3.66 5.52,-4.72 2.48,-0.63 5.08,-0.15 7.59,0.06 8.03,1.07 16.13,0.48 24.2,0.59 7.34,-0.01 14.63,1.29 22,1.04 10.67,-0.28 21.29,0.95 31.96,1.07 15.71,1.02 31.46,1.5 47.15,2.83 -3.86,-1.61 -8.02,-2.16 -12.13,-2.66 -12.23,-2.05 -24.57,-3.37 -36.81,-5.36 -9,-1.57 -18.14,-2.11 -27.16,-3.53 -14.64,-1.97 -29.33,-3.57 -44.08,-4.33 -11.71,-1.48 -23.5,-2.08 -35.25,-3.06 -9.83,-0.81 -19.72,-0.63 -29.52,-1.74 -7.7,-0.83 -15.45,-0.38 -23.16,-0.97 -38.64,-1.44 -77.33,-2.15 -115.99,-0.95 m 44.65,79.92 c -1.63,4.02 -2.1,8.64 -4.73,12.18 -4.01,2.51 -8.86,3.22 -12.95,5.64 3.9,1.82 8.12,2.75 12.09,4.39 1.15,0.39 1.47,1.72 1.93,2.72 1.24,3.51 2.26,7.13 3.98,10.46 2.09,-3.72 3,-7.92 4.53,-11.86 0.36,-1.19 1.7,-1.56 2.69,-2.06 3.55,-1.42 7.25,-2.4 10.85,-3.71 -4.28,-2.08 -9.22,-2.72 -13.17,-5.41 -2.1,-3.97 -2.28,-8.8 -5.22,-12.35 m -36.23,5.38 c -3.03,0.9 -3.52,4.84 -2.28,7.33 1.52,2.25 5.01,2.3 7.05,0.74 1.79,-1.3 1.91,-3.83 1.38,-5.79 -1.21,-2.06 -3.92,-2.91 -6.15,-2.28 m 69.95,0 c -2.7,0.59 -3.8,3.82 -3.01,6.25 1.19,3.3 6.47,3.97 8.42,1.04 0.78,-1.59 0.87,-3.54 0.23,-5.18 -0.98,-2.07 -3.58,-2.74 -5.64,-2.11 z"
       id="path267"
       inkscape:connector-curvature="0"
       style="opacity:1;fill:#0e0d37" />
    <path
       d="m 482,94.98 c 12.64,-9.5 29.03,-14.09 44.74,-11.95 7.39,1.03 14.76,3.8 20.21,9.03 3.75,3.53 6,8.24 8.42,12.71 0.12,6.91 0.08,14.21 -3.15,20.51 -2.16,4.14 -4.98,7.89 -7.88,11.53 -6.56,4.38 -13.23,8.95 -20.96,10.93 -8.7,2.53 -18.55,2.98 -26.7,-1.5 -4.64,-2.23 -7.77,-6.41 -10.76,-10.43 3.24,0.28 7.01,1.3 9.8,-0.98 6.67,-5.22 9.91,-14.41 8.15,-22.67 -0.51,-3.39 -3.98,-4.79 -6.5,-6.48 6.11,-5.66 13.95,-8.88 21.86,-11.14 5.7,-0.03 11.37,0.53 17.07,0.77 -8.27,-3.81 -17.97,-3.62 -26.46,-0.65 -9.59,3.37 -19.37,8.23 -25.32,16.81 -3.72,5.65 -6.7,12.24 -6.39,19.15 0.23,7.65 4.78,15.05 11.58,18.61 3.37,1.77 6.94,3.13 10.57,4.26 -7.47,-0.09 -14.96,-1.61 -21.6,-5.13 -6.36,-3.09 -11.31,-8.96 -13.18,-15.78 -1.77,-6.62 -0.83,-13.81 2.15,-19.93 3.33,-6.89 8.2,-13.09 14.35,-17.67 m 56.97,18.03 c -1.27,1.62 -0.37,3.62 -0.05,5.38 1.87,-0.46 4.37,-0.18 5.53,-2.07 1.07,-1.57 0.5,-3.6 0.64,-5.37 -2.11,0.33 -4.91,-0.15 -6.12,2.06 m -12.93,13.11 c -3.35,2.08 -7.1,5.32 -6.89,9.63 0.15,2.63 3.57,2.19 5.36,1.68 5.3,-1.91 10.43,-6.34 10.54,-12.37 -3.02,-0.32 -6.33,-0.74 -9.01,1.06 z"
       id="path269"
       inkscape:connector-curvature="0"
       style="opacity:1;fill:#0e0d37" />
    <path
       d="m 541.11,336.3 c 7.18,0.34 14.38,0.12 21.53,0.91 -0.05,6.9 0.09,13.8 0.15,20.7 -7.16,-0.03 -14.32,-0.32 -21.43,-1.16 0.01,-6.82 -0.14,-13.63 -0.25,-20.45 z"
       id="path271"
       inkscape:connector-curvature="0"
       style="opacity:1;fill:#0e0d37" />
  </g>
  <g
     id="#8c8ca0ff"
     transform="matrix(0.07324204,0,0,0.07324204,-0.9143045,9.7772654)">
    <path
       d="m 609.79,42.65 c 2.42,-2.44 6.18,-1.08 9.22,-1.22 11.98,1.15 24.22,0.7 35.96,3.61 -15.03,-1.24 -30.06,-3.07 -45.18,-2.39 z"
       id="path274"
       inkscape:connector-curvature="0"
       style="opacity:1;fill:#8c8ca0" />
  </g>
  <g
     id="#ffffffff"
     transform="matrix(0.07324204,0,0,0.07324204,-0.9143045,9.7772654)">
    <path
       d="m 562.06,46.65 c 10.51,-2.2 21.21,-3.48 31.96,-3.73 -3.51,4.23 -6.66,8.79 -8.62,13.96 -4.67,0.66 -9.37,1.19 -14.04,1.85 -13.45,1.89 -26.61,5.29 -39.88,8.11 -6.91,1.45 -13.55,3.87 -20.19,6.25 -7.22,2.62 -14.77,4.33 -21.83,7.41 -4.69,2.03 -9.41,3.99 -14.18,5.84 -6.76,2.62 -13.2,5.96 -19.7,9.15 -9.53,4.75 -19.19,9.27 -28.31,14.79 -4.96,3.03 -10.09,5.78 -15,8.9 3.28,-8.45 8.39,-16.73 16.31,-21.52 13.89,-8.11 28.48,-14.89 42.94,-21.88 10.72,-4.68 21.48,-9.27 32.28,-13.76 6.81,-2.52 13.87,-4.31 20.73,-6.69 12.35,-3.51 24.88,-6.46 37.53,-8.68 z"
       id="path277"
       inkscape:connector-curvature="0"
       style="opacity:1;fill:#ffffff" />
    <path
       d="m 597.76,56.47 c 2.57,-5.62 6.69,-10.65 12.03,-13.82 15.12,-0.68 30.15,1.15 45.18,2.39 6.38,0.66 12.58,2.32 18.79,3.82 5.82,1.25 11.74,0.01 17.56,-0.61 5.6,-0.6 11.22,-1.23 16.78,-2.2 5.6,-0.89 11.24,-1.74 16.93,-1.72 -1.3,0.92 -2.56,1.92 -4.03,2.55 -4.23,1.63 -8.43,3.38 -12.29,5.77 -6.57,4.02 -13.57,7.26 -20.14,11.29 -5.72,-2.75 -11.78,-4.75 -18.03,-5.81 -6.9,-1.23 -13.86,-2.61 -20.9,-2.22 -0.86,2.35 -1.5,4.86 -2.97,6.93 -1.82,2.26 -4.57,3.49 -7.19,4.56 -7.13,2.69 -14.87,3.86 -22.46,3.2 -3.5,-0.31 -7.23,-1.46 -9.41,-4.38 -1.44,-1.8 -1.44,-4.64 0.06,-6.4 1.72,-1.98 3.99,-3.35 6.13,-4.85 -5.36,0.38 -10.71,0.82 -16.04,1.5 z"
       id="path279"
       inkscape:connector-curvature="0"
       style="opacity:1;fill:#ffffff" />
    <path
       d="m 509.84,94.66 c 3.12,-0.29 6.25,-0.19 9.39,-0.12 -7.91,2.26 -15.75,5.48 -21.86,11.14 2.52,1.69 5.99,3.09 6.5,6.48 1.76,8.26 -1.48,17.45 -8.15,22.67 -2.79,2.28 -6.56,1.26 -9.8,0.98 2.99,4.02 6.12,8.2 10.76,10.43 8.15,4.48 18,4.03 26.7,1.5 7.73,-1.98 14.4,-6.55 20.96,-10.93 -2.95,3.86 -6.5,7.26 -10.66,9.79 -6.47,4.1 -14.1,5.57 -21.41,7.46 -4,-0.04 -8,-0.29 -11.99,-0.57 -3.63,-1.13 -7.2,-2.49 -10.57,-4.26 -6.8,-3.56 -11.35,-10.96 -11.58,-18.61 -0.31,-6.91 2.67,-13.5 6.39,-19.15 5.95,-8.58 15.73,-13.44 25.32,-16.81 z"
       id="path281"
       inkscape:connector-curvature="0"
       style="opacity:1;fill:#ffffff" />
    <path
       d="m 381.03,127.99 c 9.34,-7.02 18.64,-14.17 28.71,-20.12 -3.23,4.15 -6.83,8.19 -8.59,13.24 -1.08,2.23 -1.51,4.99 -3.38,6.72 -5.21,3.11 -10.56,5.98 -15.59,9.39 -12.65,8.32 -26.04,15.55 -38.1,24.73 3.56,-7.01 9.19,-12.63 14.87,-17.94 6.94,-5.9 14.64,-10.79 22.08,-16.02 z"
       id="path283"
       inkscape:connector-curvature="0"
       style="opacity:1;fill:#ffffff" />
    <path
       d="m 673.85,208.04 c 2.33,3.31 2.83,7.53 5.1,10.85 3.08,1.55 6.42,2.52 9.51,4.06 -3.09,1.51 -6.43,2.5 -9.41,4.23 -2.5,3.21 -2.79,7.61 -5.4,10.8 -1.27,-3.36 -2,-6.92 -3.57,-10.16 -3.26,-2.47 -7.6,-2.85 -11.07,-4.99 3.5,-1.29 7.65,-1.66 10.41,-4.4 2.24,-3.08 3,-6.92 4.43,-10.39 z"
       id="path285"
       inkscape:connector-curvature="0"
       style="opacity:1;fill:#ffffff" />
    <path
       d="m 433,308.96 c 10.98,-0.72 22,-0.03 33,-0.34 7.35,-0.3 14.63,1.25 21.99,1 3.97,-0.11 7.96,-0.03 11.93,0.32 0.54,6.59 0.72,13.22 0.11,19.81 -7.71,0.17 -15.42,-0.46 -23.12,0.15 -0.71,9.36 0.1,18.73 0.08,28.1 -0.09,17.58 0.88,35.19 0.07,52.77 -6.93,0.14 -13.86,0.15 -20.78,-0.04 -0.2,-19.24 -0.01,-38.49 -0.08,-57.73 -0.09,-7.7 0.26,-15.41 -0.18,-23.11 -7.9,-0.64 -15.81,0 -23.72,-0.21 -0.04,-6.92 0.1,-13.83 0.7,-20.72 z"
       id="path287"
       inkscape:connector-curvature="0"
       style="opacity:1;fill:#ffffff" />
    <path
       d="m 384,310.5 c 10.95,-0.82 21.95,-1.33 32.93,-0.62 0.15,6.57 0.03,13.15 -0.31,19.72 -14.62,1.09 -29.29,0.42 -43.93,1 -0.78,6.43 -1.35,12.95 -0.67,19.43 0.52,0.04 1.55,0.12 2.07,0.17 11.19,-0.15 22.38,-1.01 33.58,-0.9 2.79,0.14 5.57,0.43 8.36,0.69 0.95,13.66 -0.39,27.35 -0.32,41.02 -0.04,6.81 0.16,13.62 -0.29,20.42 -4.8,0.26 -9.61,0.32 -14.41,0.24 -10.02,-0.2 -20.01,0.92 -30.03,0.66 -7.55,-0.22 -15.02,1.09 -22.55,1.5 -0.35,-6.83 -0.57,-13.74 0.85,-20.48 7.51,-1.31 15.14,-1.01 22.71,-1.43 7.52,-0.4 15.05,-0.13 22.57,-0.29 0.36,-6.92 0.54,-13.84 0.36,-20.77 -7.65,-0.56 -15.27,0.43 -22.9,0.69 -7.28,0.2 -14.56,0.72 -21.85,0.52 0.18,-6.7 0.42,-13.39 0.81,-20.08 0.93,-13.3 0.77,-26.65 2.08,-39.92 10.24,-1.55 20.61,-1.32 30.94,-1.57 z"
       id="path289"
       inkscape:connector-curvature="0"
       style="opacity:1;fill:#ffffff" />
    <path
       d="m 517.87,310.01 c 6.36,0.38 12.74,0.7 19.12,0.63 8.42,-0.14 16.79,1.32 25.22,0.87 8.28,-0.11 16.54,0.66 24.81,1.16 l -0.01,0.86 c -0.01,0.68 -0.03,2.05 -0.04,2.73 -0.66,-1.24 -1.37,-2.45 -2.07,-3.65 -0.53,13.51 1.02,26.98 1.46,40.47 0.2,8.92 1.67,17.82 0.8,26.76 -4.43,-0.04 -8.85,-0.05 -13.27,0.03 5.98,12.15 13.86,23.24 20.1,35.25 -5.33,-0.26 -10.66,-0.56 -15.99,-0.7 -2.45,-0.17 -5,-0.09 -7.29,-1.06 -2.6,-2.65 -3.94,-6.2 -5.59,-9.45 -3.1,-6.74 -6.97,-13.09 -10.18,-19.77 -1.08,-1.85 -1.86,-4.1 -3.72,-5.29 -3.5,-1.46 -7.39,-1.33 -11.1,-1.64 -0.68,11.67 0.69,23.33 0.39,35 -7.05,0.37 -14.11,0.14 -21.12,-0.62 -0.19,-8.2 -0.01,-16.41 -0.5,-24.6 -0.78,-16 0.5,-32.05 -1.01,-48.01 -0.42,-9.65 -0.49,-19.32 -0.01,-28.97 m 20.28,21.85 c 0.04,6.06 0.26,12.13 0.14,18.2 -0.06,2.89 0.29,5.77 0.84,8.6 8.85,-0.1 17.7,0.12 26.55,0.05 0.13,-8.81 0.05,-17.66 -1.11,-26.41 -8.77,-0.89 -17.62,-0.93 -26.42,-0.44 z"
       id="path291"
       inkscape:connector-curvature="0"
       style="opacity:1;fill:#ffffff" />
    <path
       d="m 316.15,313.16 c 6.71,0.14 13.4,-0.84 20.11,-0.45 -0.01,2.5 -0.03,5 -0.11,7.51 -0.23,11.62 -1.8,23.17 -2,34.79 -0.5,9.71 -1.01,19.42 -1.59,29.12 -0.56,10.08 -0.62,20.18 -1.16,30.26 -7.3,0.92 -14.66,1.29 -22.02,1.03 -4.55,-8.95 -8,-18.39 -12.34,-27.43 -4.92,-10.37 -8.71,-21.29 -14.52,-31.22 -0.97,16.79 -3,33.5 -3.65,50.32 -0.15,3.81 -0.61,7.61 -1.2,11.39 -6.8,1.09 -13.68,1.59 -20.56,1.59 0.52,-11.05 1.05,-22.1 2.39,-33.08 1.95,-22.92 3.95,-45.84 5.67,-68.78 6.82,-0.95 13.7,-1.77 20.6,-1.3 4.2,8.57 7.17,17.67 11.05,26.39 4.97,11.26 9.08,22.93 14.95,33.77 0.85,-7.65 1.65,-15.31 1.9,-23 0.29,-8.72 1.18,-17.41 1.44,-26.13 0.15,-4.94 0.59,-9.86 1.04,-14.78 z"
       id="path293"
       inkscape:connector-curvature="0"
       style="opacity:1;fill:#ffffff" />
    <path
       d="m 601.75,314.73 c 4.44,-0.06 8.88,0.28 13.3,0.75 8.98,0.76 17.99,1.29 26.92,2.58 0.38,6.65 1.19,13.27 1.34,19.93 -3.2,-0.05 -6.39,-0.08 -9.57,-0.09 1.1,12.69 1.35,25.44 2.49,38.13 0.67,7.46 0.69,15 1.98,22.39 3.54,0.38 7.07,0.92 10.57,1.62 0.57,6.37 0.88,12.77 1.35,19.16 -7.28,0.52 -14.55,-0.3 -21.8,-0.83 -6.71,-0.66 -13.43,-1.05 -20.12,-1.83 -0.97,-6.76 -2.03,-13.54 -1.96,-20.39 3.49,0.12 6.97,0.28 10.46,0.52 0.53,-20.23 -3.49,-40.27 -3.06,-60.51 -3.72,-0.72 -7.48,-1.17 -11.25,-1.46 -0.31,-6.66 -0.86,-13.3 -0.65,-19.97 z"
       id="path295"
       inkscape:connector-curvature="0"
       style="opacity:1;fill:#ffffff" />
    <path
       d="m 210,324.11 c 13.1,-0.94 26.08,-3.16 39.19,-4.13 0.36,6.61 -0.39,13.19 -0.63,19.79 -3.53,0.61 -7.5,0.16 -10.65,2.05 -0.89,2.74 -1.04,5.64 -1.28,8.5 -0.72,10.92 -1.99,21.8 -2.69,32.73 -0.38,6.32 -1.5,12.6 -1.24,18.95 3.17,-0.06 6.34,-0.12 9.52,-0.16 -0.06,6.68 -0.14,13.4 -1.33,20 -10.07,1.03 -20.16,1.94 -30.16,3.55 -3.97,0.67 -8,0.9 -12.02,0.85 0.49,-6.67 1.17,-13.33 1.64,-20 3.74,-0.27 7.47,-0.71 11.16,-1.42 1.16,-13.16 2.5,-26.29 3.73,-39.44 0.73,-7.1 1.81,-14.18 1.88,-21.33 -3.16,0.06 -6.31,0.11 -9.46,0.15 0.13,-6.75 0.68,-13.52 2.34,-20.09 z"
       id="path297"
       inkscape:connector-curvature="0"
       style="opacity:1;fill:#ffffff" />
    <path
       d="m 659.33,319.66 c 6.58,0.18 13.18,0.79 19.6,2.34 0.94,7.85 1.21,15.78 2.57,23.58 0.92,5.33 1.1,10.75 1.7,16.12 3.76,0.93 7.63,1.3 11.5,1.15 3.38,-6.67 5.45,-13.88 8.35,-20.75 2.31,-5.48 4.26,-11.1 6.34,-16.67 7.03,0.14 13.99,1.3 20.88,2.67 -0.61,2.63 -1.3,5.24 -2.33,7.74 -4.02,9.72 -7.96,19.46 -11.94,29.19 -1.13,2.81 -2.52,5.55 -3.27,8.5 -0.56,1.87 0.7,3.58 1.46,5.2 6.93,11.81 13.41,23.88 20.48,35.62 3.05,5.2 6.26,10.33 8.63,15.89 -5.8,0.03 -11.57,-0.63 -17.31,-1.43 -1.54,-0.31 -3.19,-0.42 -4.52,-1.3 -1.89,-1.91 -2.98,-4.41 -4.25,-6.73 -2.22,-4.36 -4.76,-8.55 -7.18,-12.81 -4.41,-7.94 -8.69,-15.97 -13.39,-23.74 -3.74,-0.66 -7.5,-1.11 -11.28,-1.36 0.44,13.52 3.2,26.9 2.9,40.46 -6.99,-0.13 -13.91,-1.09 -20.86,-1.67 -0.92,-21.8 -3.81,-43.44 -5.67,-65.15 -0.71,-7.95 -0.76,-15.93 -1.57,-23.86 -0.46,-4.32 -0.77,-8.65 -0.84,-12.99 z"
       id="path299"
       inkscape:connector-curvature="0"
       style="opacity:1;fill:#ffffff" />
    <path
       d="m 193.65,325.96 c -0.78,13.84 -2.44,27.6 -4.11,41.35 -1.02,13.78 -3.3,27.42 -4.79,41.15 -1.32,9.91 -1.6,19.93 -3.1,29.82 -1.41,9.24 -1.64,18.63 -3.59,27.79 -3.43,0.81 -6.87,1.55 -10.37,2 -7.85,0.92 -15.55,2.99 -23.49,3.1 -3.47,-6.55 -5.88,-13.58 -9.1,-20.24 -3.02,-6.3 -5.3,-12.93 -8.44,-19.17 -2.11,2.58 -4.09,5.27 -5.77,8.16 -6.4,11.14 -13.5,21.86 -19.98,32.96 -1.4,2.16 -2.65,4.58 -4.79,6.12 -2.55,1.27 -5.47,1.48 -8.24,1.99 -8.34,1.16 -16.45,3.56 -24.8,4.67 0.82,-7.92 2.61,-15.69 3.82,-23.54 1.19,-6.81 1.86,-13.69 2.93,-20.52 4.16,-24.61 8.33,-49.23 11.73,-73.96 0.55,-4.05 1.64,-7.99 2.93,-11.85 6.23,-2.85 12.24,-6.19 18.71,-8.48 0.09,6.29 -0.99,12.5 -1.93,18.7 -2,14.81 -4.34,29.57 -6.66,44.33 -2.25,16.6 -4.58,33.2 -7.36,49.73 12.41,-19.04 23.76,-38.75 35.74,-58.06 3.14,-5.17 6.21,-10.39 9.85,-15.23 5.84,12.53 10.72,25.49 16.41,38.09 3.46,7.43 6.07,15.26 10.41,22.25 1.39,-7.99 2.02,-16.09 3.1,-24.13 1.88,-15.68 4.24,-31.32 5.53,-47.06 1.76,-14.25 4.1,-28.43 4.95,-42.77 l 0.07,-0.94 c 6.63,-2.54 13.48,-4.45 20.34,-6.26 z"
       id="path301"
       inkscape:connector-curvature="0"
       style="opacity:1;fill:#ffffff" />
    <path
       d="m 745.8,330.76 c 19.46,2.04 38.72,5.66 57.94,9.31 6.56,1.18 13.2,1.91 19.69,3.45 1.55,6.69 2.65,13.5 2.81,20.39 -6.85,-0.7 -13.56,-2.26 -20.28,-3.67 -7.87,-1.68 -15.92,-2.1 -23.8,-3.64 -4.61,-0.91 -9.23,-1.8 -13.89,-2.4 0.08,8.67 2.05,17.14 3.03,25.72 0.53,4.43 1.16,8.85 1.98,13.24 0.97,0.12 1.94,0.25 2.93,0.4 0.36,0.07 1.09,0.2 1.45,0.27 12.51,3.61 25.66,4.07 38.27,7.28 1.73,6.5 2.76,13.16 3.25,19.87 -14.37,-0.47 -28.07,-5.59 -42.41,-6.22 -0.14,9.35 1.81,18.52 2.85,27.77 0.44,3.73 1.05,7.44 1.71,11.14 7.72,1.98 15.67,2.73 23.46,4.32 12.68,2.33 25.6,3.59 38.01,7.19 1.28,6.54 2.32,13.13 3.02,19.77 -11.12,-0.84 -21.86,-3.98 -32.83,-5.74 -16.57,-3.33 -33.57,-4.18 -49.97,-8.39 -2.67,-10.79 -2.67,-21.96 -4.14,-32.92 -1.2,-10.99 -3.18,-21.89 -4.25,-32.9 -0.71,-6.84 -2.21,-13.58 -2.9,-20.43 -0.7,-6.81 -1.15,-13.65 -2.05,-20.44 -1.38,-11.11 -3.52,-22.15 -3.88,-33.37 z"
       id="path303"
       inkscape:connector-curvature="0"
       style="opacity:1;fill:#ffffff" />
    <path
       d="m 367.23,448.33 c 9.19,0.02 18.38,0.01 27.57,0.01 -0.01,2.39 -0.03,4.79 -0.06,7.18 -3.29,-0.01 -6.59,0.06 -9.88,0.21 -0.47,7.13 -0.06,14.26 -0.17,21.4 -2.46,0.16 -4.93,0.16 -7.38,0.01 -0.12,-7.15 0.28,-14.29 -0.17,-21.43 -3.29,-0.14 -6.57,-0.2 -9.86,-0.18 -0.03,-2.4 -0.04,-4.8 -0.05,-7.2 z"
       id="path305"
       inkscape:connector-curvature="0"
       style="opacity:1;fill:#ffffff" />
    <path
       d="m 411.48,448.48 c 8.41,-0.26 16.83,-0.12 25.24,-0.12 0,2.16 0.01,4.32 0.03,6.49 -5.88,0.52 -11.77,0.24 -17.65,0.37 -0.05,1.62 -0.11,3.25 -0.16,4.88 4.92,0.36 9.86,0.32 14.8,0.24 0.02,1.49 0.06,2.98 0.12,4.48 -5.21,0.02 -10.42,0.17 -15.62,0.52 0.01,1.76 0,3.52 -0.01,5.29 5.99,0.09 12,0.04 17.99,0.29 0.01,2.04 0.01,4.08 0.03,6.12 -8.24,0.74 -16.49,-0.04 -24.72,0.25 -0.29,-9.6 -0.21,-19.21 -0.05,-28.81 z"
       id="path307"
       inkscape:connector-curvature="0"
       style="opacity:1;fill:#ffffff" />
    <path
       d="m 463.42,448.42 c 2.68,-0.09 5.37,-0.08 8.06,0.02 4.19,9.62 8.86,19.03 12.62,28.83 -2.77,-0.11 -5.95,0.77 -8.41,-0.83 -0.97,-1.92 -1.55,-4 -2.19,-6.05 -3.96,-0.32 -7.94,-0.3 -11.89,0.08 -0.9,2.26 -1.89,4.49 -2.78,6.76 -2.67,0.06 -5.33,0.05 -7.99,-0.05 3.56,-9.85 7.92,-19.39 12.58,-28.76 m 3.81,9.33 c -1.13,2.39 -2,4.89 -2.72,7.44 1.94,0.03 3.9,0.05 5.86,0.04 -0.72,-2.63 -1.69,-5.18 -3.14,-7.48 z"
       id="path309"
       inkscape:connector-curvature="0"
       style="opacity:1;fill:#ffffff" />
    <path
       d="m 499.27,448.21 c 2.38,0.07 4.77,0.16 7.16,0.27 2.77,4.38 5.59,8.75 8.95,12.71 4.54,-3.23 6.17,-8.91 10.15,-12.62 2.11,-0.42 4.27,-0.33 6.42,-0.4 0.39,3.6 0.53,7.22 0.46,10.83 -0.13,6.23 0.31,12.49 -0.49,18.69 -2.25,-0.02 -4.48,-0.02 -6.72,-0.01 -0.41,-4.96 -0.35,-9.95 -0.54,-14.92 -2,2.33 -3.7,4.91 -5.71,7.23 -1.57,2.1 -5.23,1.85 -6.71,-0.26 -2.14,-2.46 -3.84,-5.27 -5.81,-7.86 -0.03,5.14 0.07,10.28 -0.23,15.42 -2.35,-0.02 -4.69,-0.06 -7.03,-0.13 -0.07,-9.65 -0.19,-19.31 0.1,-28.95 z"
       id="path311"
       inkscape:connector-curvature="0"
       style="opacity:1;fill:#ffffff" />
    <path
       d="m 454.65,511.87 c 2.94,3.55 3.12,8.38 5.22,12.35 3.95,2.69 8.89,3.33 13.17,5.41 -3.6,1.31 -7.3,2.29 -10.85,3.71 -0.99,0.5 -2.33,0.87 -2.69,2.06 -1.53,3.94 -2.44,8.14 -4.53,11.86 -1.72,-3.33 -2.74,-6.95 -3.98,-10.46 -0.46,-1 -0.78,-2.33 -1.93,-2.72 -3.97,-1.64 -8.19,-2.57 -12.09,-4.39 4.09,-2.42 8.94,-3.13 12.95,-5.64 2.63,-3.54 3.1,-8.16 4.73,-12.18 z"
       id="path313"
       inkscape:connector-curvature="0"
       style="opacity:1;fill:#ffffff" />
  </g>
  <g
     id="#77778eff"
     transform="matrix(0.07324204,0,0,0.07324204,-0.9143045,9.7772654)">
    <path
       d="m 673.76,48.86 c 11.48,-0.61 22.84,-2.63 34.34,-2.81 -5.56,0.97 -11.18,1.6 -16.78,2.2 -5.82,0.62 -11.74,1.86 -17.56,0.61 z"
       id="path316"
       inkscape:connector-curvature="0"
       style="opacity:1;fill:#77778e" />
  </g>
  <g
     id="#3044a2ff"
     transform="matrix(0.07324204,0,0,0.07324204,-0.9143045,9.7772654)">
    <path
       d="m 708.71,52.65 c 3.86,-2.39 8.06,-4.14 12.29,-5.77 -6.85,7.56 -15.42,13.28 -22.92,20.15 -2.36,1.94 -2.03,5.26 -2.44,7.98 -0.38,6.18 -2.38,12.09 -4.69,17.78 -4.82,12.31 -11.81,23.74 -20.34,33.83 -5.6,6.63 -13.77,11.5 -22.65,11.41 3.64,-4.98 8.45,-8.93 12.39,-13.67 11.3,-13.07 21.76,-27.47 26.97,-44.13 1.83,-5.13 1.71,-10.65 0.64,-15.92 l 0.61,-0.37 c 6.57,-4.03 13.57,-7.27 20.14,-11.29 z"
       id="path319"
       inkscape:connector-curvature="0"
       style="opacity:1;fill:#3044a2" />
    <path
       d="m 526.04,126.12 c 2.68,-1.8 5.99,-1.38 9.01,-1.06 -0.11,6.03 -5.24,10.46 -10.54,12.37 -1.79,0.51 -5.21,0.95 -5.36,-1.68 -0.21,-4.31 3.54,-7.55 6.89,-9.63 z"
       id="path321"
       inkscape:connector-curvature="0"
       style="opacity:1;fill:#3044a2" />
    <path
       d="m 622.72,158.72 c 3.11,-2.24 5.8,-5.26 9.45,-6.64 4.29,-0.64 8.63,0.07 12.93,0.38 -2.24,3.25 -4.8,6.26 -7.69,8.95 -21.35,20.41 -47.7,34.68 -74.59,46.4 -6.51,3.1 -13.33,5.43 -20.09,7.91 -8.87,3.37 -18.01,6.02 -27.32,7.84 -11.36,2.64 -23.08,4.48 -34.76,3.42 5.26,-2.86 11.2,-3.94 16.88,-5.68 4.72,-1.36 9.31,-3.12 13.92,-4.85 7.03,-2.66 14.23,-4.89 21.13,-7.89 4.89,-2.13 9.82,-4.16 14.77,-6.12 1.51,-0.73 3.26,-1.25 4.38,-2.56 1.7,-3.05 2.46,-6.64 4.91,-9.23 7.81,-8.49 17.54,-15.01 27.79,-20.19 5.87,-2.74 12.7,-5.8 19.18,-3.37 -0.02,1.62 -0.01,3.24 0,4.87 6.65,-3.99 12.88,-8.63 19.11,-13.24 z"
       id="path323"
       inkscape:connector-curvature="0"
       style="opacity:1;fill:#3044a2" />
    <path
       d="m 610.42,243.43 c 3.66,-1.08 8.05,-0.48 10.77,2.38 4.1,3.91 3.95,11.28 -0.37,14.98 -4.24,3.92 -11.78,3.32 -15.18,-1.42 -4.07,-5.17 -1.67,-14.03 4.78,-15.94 z"
       id="path325"
       inkscape:connector-curvature="0"
       style="opacity:1;fill:#3044a2" />
    <path
       d="m 661.51,259.27 c 1.85,-0.93 4.13,-0.78 6,0.04 2.42,1.78 3.1,5.82 0.91,8.05 -2.11,2.41 -6.84,2.65 -8.51,-0.36 -1.53,-2.46 -1.25,-6.35 1.6,-7.73 z"
       id="path327"
       inkscape:connector-curvature="0"
       style="opacity:1;fill:#3044a2" />
    <path
       d="m 224.53,283.43 c 9.95,-3.76 20.08,-7.53 30.74,-8.56 -4.56,5.33 -11.22,8.08 -17.4,11.05 -12.81,5.89 -26.16,10.48 -39.33,15.47 -8.33,2.59 -16.54,5.51 -24.79,8.35 -19.86,6.17 -39.61,12.74 -59.69,18.16 7.01,-4 14.77,-6.36 22.09,-9.72 7.92,-3.61 16.16,-6.43 24.11,-9.97 6.79,-3.05 13.93,-5.22 20.72,-8.27 7.26,-3.25 14.9,-5.55 22.17,-8.76 6.94,-3.09 14.3,-5.04 21.38,-7.75 z"
       id="path329"
       inkscape:connector-curvature="0"
       style="opacity:1;fill:#3044a2" />
  </g>
  <g
     id="#b42061ff"
     transform="matrix(0.07324204,0,0,0.07324204,-0.9143045,9.7772654)">
    <path
       d="m 597.76,56.47 c 5.33,-0.68 10.68,-1.12 16.04,-1.5 -2.14,1.5 -4.41,2.87 -6.13,4.85 -1.5,1.76 -1.5,4.6 -0.06,6.4 2.18,2.92 5.91,4.07 9.41,4.38 7.59,0.66 15.33,-0.51 22.46,-3.2 2.62,-1.07 5.37,-2.3 7.19,-4.56 1.47,-2.07 2.11,-4.58 2.97,-6.93 7.04,-0.39 14,0.99 20.9,2.22 6.25,1.06 12.31,3.06 18.03,5.81 l -0.61,0.37 C 676.08,71.16 663.65,77 651.6,83.52 c -15.22,7.9 -30.68,15.32 -45.86,23.31 -2.74,1.42 -5.73,2.25 -8.73,2.89 -4.06,-10.04 -6.21,-20.92 -5.14,-31.76 0.48,-7.5 3.08,-14.61 5.89,-21.49 z"
       id="path332"
       inkscape:connector-curvature="0"
       style="opacity:1;fill:#b42061" />
    <path
       d="m 571.36,58.73 c 4.67,-0.66 9.37,-1.19 14.04,-1.85 -1.66,5.29 -3.75,10.51 -4.24,16.08 -0.84,8.28 -0.78,16.66 0.27,24.92 0.74,6.03 3.07,11.68 5.02,17.39 -6.95,5.23 -15.07,8.57 -23.13,11.64 -0.67,-4.02 -1.09,-8.1 -2.28,-12.01 -1.13,-3.76 -3.63,-6.85 -5.67,-10.13 -2.42,-4.47 -4.67,-9.18 -8.42,-12.71 -5.45,-5.23 -12.82,-8 -20.21,-9.03 -15.71,-2.14 -32.1,2.45 -44.74,11.95 -6.15,4.58 -11.02,10.78 -14.35,17.67 -2.98,6.12 -3.92,13.31 -2.15,19.93 1.87,6.82 6.82,12.69 13.18,15.78 6.64,3.52 14.13,5.04 21.6,5.13 3.99,0.28 7.99,0.53 11.99,0.57 -12.03,4.61 -25.89,5.67 -37.95,0.59 -6.04,-2.44 -10.61,-7.22 -15.39,-11.46 1.07,4.26 2.2,8.59 4.47,12.41 2.91,5.04 7.58,8.66 11.75,12.6 -2.8,1.57 -5.64,3.11 -8.58,4.41 -16.59,7.18 -33.02,14.74 -49.68,21.78 -5.12,-7.46 -7.16,-16.41 -9.54,-25 -3.1,-14.01 -1.9,-28.73 1.76,-42.52 0.76,-2.66 1.51,-5.43 3.16,-7.69 4.91,-3.12 10.04,-5.87 15,-8.9 9.12,-5.52 18.78,-10.04 28.31,-14.79 6.5,-3.19 12.94,-6.53 19.7,-9.15 4.77,-1.85 9.49,-3.81 14.18,-5.84 7.06,-3.08 14.61,-4.79 21.83,-7.41 6.64,-2.38 13.28,-4.8 20.19,-6.25 13.27,-2.82 26.43,-6.22 39.88,-8.11 m -16.11,14.55 c 0.12,1.03 0.23,2.05 0.35,3.08 4.01,0.52 8.39,1.28 12.17,-0.63 1.37,-0.67 1.76,-2.28 2.51,-3.48 -4.75,-2.65 -10.65,-2.1 -15.03,1.03 z"
       id="path334"
       inkscape:connector-curvature="0"
       style="opacity:1;fill:#b42061" />
    <path
       d="m 382.18,137.22 c 5.03,-3.41 10.38,-6.28 15.59,-9.39 -1.17,6.57 -3.48,12.92 -4.09,19.6 -0.56,6.12 -0.56,12.28 -0.18,18.41 1.02,11.43 4.83,22.45 9.98,32.65 -4.76,4.66 -11.4,6.13 -17.32,8.71 -8.94,3.81 -18.01,7.3 -27,11 -3.96,1.63 -8.02,2.97 -12.1,4.24 -4.33,-5.9 -7.71,-12.57 -9.49,-19.68 -2.41,-13.79 -0.91,-28.71 6.51,-40.81 12.06,-9.18 25.45,-16.41 38.1,-24.73 z"
       id="path336"
       inkscape:connector-curvature="0"
       style="opacity:1;fill:#b42061" />
    <path
       d="m 301.06,160.02 c 10.34,-1.82 20.46,-4.9 30.95,-5.77 -5.89,3.86 -12.46,6.54 -18.34,10.43 -6.76,3.8 -12.82,8.83 -19.94,11.97 -12.06,4.53 -23.54,10.45 -35.74,14.63 0.23,-3.57 0.15,-7.3 1.67,-10.63 1.75,-3.94 4.36,-7.61 7.92,-10.1 3.21,-2.24 7.05,-3.24 10.77,-4.3 7.58,-2.04 14.95,-4.88 22.71,-6.23 z"
       id="path338"
       inkscape:connector-curvature="0"
       style="opacity:1;fill:#b42061" />
    <path
       d="m 320.63,176.69 c 3.83,-2.42 7.81,-4.66 11.2,-7.69 -2.23,5.7 -4.88,11.34 -5.54,17.51 -2.35,14.08 1.07,28.83 8.88,40.71 -8.71,3.91 -17.82,6.81 -26.73,10.22 -9.77,3.5 -19.55,6.99 -29.49,9.96 -3.49,-5.91 -6.41,-12.38 -6.89,-19.31 -0.4,-5.66 -0.31,-11.62 2.13,-16.85 1.69,-3.76 4.64,-6.83 8.01,-9.14 12.96,-8.25 25.45,-17.2 38.43,-25.41 z"
       id="path340"
       inkscape:connector-curvature="0"
       style="opacity:1;fill:#b42061" />
    <path
       d="m 410,431.95 c 38.66,-1.2 77.35,-0.49 115.99,0.95 7.71,0.59 15.46,0.14 23.16,0.97 9.8,1.11 19.69,0.93 29.52,1.74 11.75,0.98 23.54,1.58 35.25,3.06 14.75,0.76 29.44,2.36 44.08,4.33 9.02,1.42 18.16,1.96 27.16,3.53 12.24,1.99 24.58,3.31 36.81,5.36 4.11,0.5 8.27,1.05 12.13,2.66 -15.69,-1.33 -31.44,-1.81 -47.15,-2.83 -10.67,-0.12 -21.29,-1.35 -31.96,-1.07 -7.37,0.25 -14.66,-1.05 -22,-1.04 -8.07,-0.11 -16.17,0.48 -24.2,-0.59 -2.51,-0.21 -5.11,-0.69 -7.59,-0.06 -2.22,1.06 -3.85,2.97 -5.52,4.72 -3.78,4.22 -7.85,8.16 -11.7,12.3 -1.34,1.27 -2.56,2.84 -4.35,3.45 -2.87,0.62 -5.83,0.31 -8.73,0.24 4.22,-7.65 10.3,-14.03 15.07,-21.33 -3.44,-0.04 -6.98,-0.56 -10.33,0.4 -1.32,0.97 -2.33,2.29 -3.34,3.56 -8.62,11.32 -17.98,22.05 -26.61,33.36 -1.5,1.8 -3,4.27 -5.71,3.98 -53.32,0.03 -106.65,-0.02 -159.98,0.02 -4.14,-0.08 -8.34,0.46 -12.43,-0.37 -1.56,-1.04 -2.7,-2.56 -3.87,-3.99 -8.39,-10.9 -17.28,-21.41 -25.77,-32.23 -1.34,-1.6 -2.62,-3.35 -4.45,-4.4 -3.12,-0.8 -6.38,-0.38 -9.55,-0.31 4.36,7.65 10.86,13.79 15.19,21.46 -2.94,0.12 -5.95,0.53 -8.84,-0.17 -2,-0.81 -3.44,-2.51 -4.95,-3.99 -3.88,-4.12 -7.89,-8.1 -11.7,-12.28 -1.63,-1.69 -3.19,-3.54 -5.26,-4.69 -2.46,-0.44 -4.96,0.18 -7.42,0.41 -5.61,0.78 -11.3,0.43 -16.94,0.67 -14.28,0.69 -28.56,1.33 -42.84,1.82 -11.7,1.44 -23.51,1.6 -35.22,2.99 12.91,-4.57 26.66,-5.52 39.95,-8.45 6.06,-1.08 12.2,-1.57 18.25,-2.71 7.99,-1.47 16.15,-1.48 24.13,-2.96 7.34,-1.39 14.84,-1.26 22.22,-2.25 8.95,-1.26 17.99,-1.72 26.99,-2.56 8.48,-0.81 17.04,-0.68 25.51,-1.67 6.24,-0.77 12.54,-0.51 18.79,-1.13 9.38,-0.98 18.82,-0.15 28.21,-0.9 m -42.77,16.38 c 0.01,2.4 0.02,4.8 0.05,7.2 3.29,-0.02 6.57,0.04 9.86,0.18 0.45,7.14 0.05,14.28 0.17,21.43 2.45,0.15 4.92,0.15 7.38,-0.01 0.11,-7.14 -0.3,-14.27 0.17,-21.4 3.29,-0.15 6.59,-0.22 9.88,-0.21 0.03,-2.39 0.05,-4.79 0.06,-7.18 -9.19,0 -18.38,0.01 -27.57,-0.01 m 44.25,0.15 c -0.16,9.6 -0.24,19.21 0.05,28.81 l -0.85,0.04 c 5.41,0.71 10.88,0.19 16.32,0.36 3.53,0.09 7.06,-0.01 10.59,-0.28 0.03,-2.28 0.03,-4.56 0,-6.83 -5.92,-0.5 -11.87,-0.07 -17.79,-0.42 0.01,-1.45 0,-2.89 -0.01,-4.33 4.65,-0.18 9.32,-0.18 13.97,-0.07 l 0.1,-0.94 c -0.06,-1.5 -0.1,-2.99 -0.12,-4.48 -4.94,0.08 -9.88,0.12 -14.8,-0.24 0.05,-1.63 0.11,-3.26 0.16,-4.88 5.88,-0.13 11.77,0.15 17.65,-0.37 -0.02,-2.17 -0.03,-4.33 -0.03,-6.49 -8.41,0 -16.83,-0.14 -25.24,0.12 m 51.94,-0.06 c -4.66,9.37 -9.02,18.91 -12.58,28.76 2.66,0.1 5.32,0.11 7.99,0.05 0.89,-2.27 1.88,-4.5 2.78,-6.76 3.95,-0.38 7.93,-0.4 11.89,-0.08 0.64,2.05 1.22,4.13 2.19,6.05 2.46,1.6 5.64,0.72 8.41,0.83 -3.76,-9.8 -8.43,-19.21 -12.62,-28.83 -2.69,-0.1 -5.38,-0.11 -8.06,-0.02 m 35.85,-0.21 c -0.29,9.64 -0.17,19.3 -0.1,28.95 2.34,0.07 4.68,0.11 7.03,0.13 0.3,-5.14 0.2,-10.28 0.23,-15.42 1.97,2.59 3.67,5.4 5.81,7.86 1.48,2.11 5.14,2.36 6.71,0.26 2.01,-2.32 3.71,-4.9 5.71,-7.23 0.19,4.97 0.13,9.96 0.54,14.92 2.24,-0.01 4.47,-0.01 6.72,0.01 0.8,-6.2 0.36,-12.46 0.49,-18.69 0.07,-3.61 -0.07,-7.23 -0.46,-10.83 -2.15,0.07 -4.31,-0.02 -6.42,0.4 -3.98,3.71 -5.61,9.39 -10.15,12.62 -3.36,-3.96 -6.18,-8.33 -8.95,-12.71 -2.39,-0.11 -4.78,-0.2 -7.16,-0.27 z"
       id="path342"
       inkscape:connector-curvature="0"
       style="opacity:1;fill:#b42061" />
  </g>
  <g
     id="#721d46ff"
     transform="matrix(0.07324204,0,0,0.07324204,-0.9143045,9.7772654)">
    <path
       d="m 651.6,83.52 c 12.05,-6.52 24.48,-12.36 36.36,-19.21 1.07,5.27 1.19,10.79 -0.64,15.92 -5.12,3.14 -9.96,6.71 -14.77,10.3 -15.22,10.96 -30.75,21.49 -46.77,31.24 -2.16,1.32 -4.23,2.79 -6.28,4.27 4.33,4.76 10.25,7.45 15.47,11.03 -12.94,-1.47 -25.26,-8.57 -32.79,-19.25 -1.87,-2.61 -3.48,-5.38 -5.17,-8.1 3,-0.64 5.99,-1.47 8.73,-2.89 15.18,-7.99 30.64,-15.41 45.86,-23.31 z"
       id="path345"
       inkscape:connector-curvature="0"
       style="opacity:1;fill:#721d46" />
    <path
       d="m 555.37,104.77 c 2.04,3.28 4.54,6.37 5.67,10.13 1.19,3.91 1.61,7.99 2.28,12.01 8.06,-3.07 16.18,-6.41 23.13,-11.64 2.15,4.75 4.32,9.58 7.64,13.65 2.09,2.58 4.21,5.14 6.1,7.87 -5.53,3.75 -11.54,6.67 -17.31,10.02 -15.78,8.4 -31.67,16.62 -47.87,24.2 -9.86,4.98 -20.12,9.1 -30.06,13.89 -12.47,5.27 -24.86,10.73 -37.52,15.53 -8.39,3.44 -17,6.3 -25.37,9.8 6.01,7.27 14.77,11.26 22.88,15.66 -8.45,-1.63 -16.83,-4.13 -24.33,-8.45 -9.68,-5.46 -18.33,-13.24 -23.72,-23.05 16.66,-7.04 33.09,-14.6 49.68,-21.78 2.94,-1.3 5.78,-2.84 8.58,-4.41 -4.17,-3.94 -8.84,-7.56 -11.75,-12.6 -2.27,-3.82 -3.4,-8.15 -4.47,-12.41 4.78,4.24 9.35,9.02 15.39,11.46 12.06,5.08 25.92,4.02 37.95,-0.59 7.31,-1.89 14.94,-3.36 21.41,-7.46 4.16,-2.53 7.71,-5.93 10.66,-9.79 2.9,-3.64 5.72,-7.39 7.88,-11.53 3.23,-6.3 3.27,-13.6 3.15,-20.51 z"
       id="path347"
       inkscape:connector-curvature="0"
       style="opacity:1;fill:#721d46" />
    <path
       d="m 257.99,191.28 c 12.2,-4.18 23.68,-10.1 35.74,-14.63 -4.42,4.38 -9.81,7.57 -14.72,11.34 -5.48,4 -10.72,8.31 -16.24,12.25 -3.04,-2.05 -4.62,-5.35 -4.78,-8.96 z"
       id="path349"
       inkscape:connector-curvature="0"
       style="opacity:1;fill:#721d46" />
    <path
       d="m 403.48,198.49 c 3.68,7.49 9.45,13.54 14.98,19.68 -4.35,2.07 -8.97,3.42 -13.54,4.87 -7.18,2.45 -14.34,4.95 -21.57,7.23 -4.47,1.37 -8.99,2.54 -13.36,4.21 3.41,4.55 9.16,6.02 13.98,8.55 -11.34,-0.95 -21.85,-6.32 -30.49,-13.52 -2.46,-2.05 -4.49,-4.54 -6.42,-7.07 4.08,-1.27 8.14,-2.61 12.1,-4.24 8.99,-3.7 18.06,-7.19 27,-11 5.92,-2.58 12.56,-4.05 17.32,-8.71 z"
       id="path351"
       inkscape:connector-curvature="0"
       style="opacity:1;fill:#721d46" />
    <path
       d="m 335.17,227.22 c 3.88,5.08 8.65,9.35 12.83,14.16 -4.84,1.28 -9.69,2.51 -14.45,4.02 -12.58,4 -25.63,6.31 -38.09,10.69 3.29,2.93 7.04,5.27 10.58,7.89 -11.05,-0.65 -21.24,-7.3 -27.09,-16.58 9.94,-2.97 19.72,-6.46 29.49,-9.96 8.91,-3.41 18.02,-6.31 26.73,-10.22 z"
       id="path353"
       inkscape:connector-curvature="0"
       style="opacity:1;fill:#721d46" />
  </g>
  <g
     id="#fffefeff"
     transform="matrix(0.07324204,0,0,0.07324204,-0.9143045,9.7772654)">
    <path
       d="m 555.25,73.28 c 4.38,-3.13 10.28,-3.68 15.03,-1.03 -0.75,1.2 -1.14,2.81 -2.51,3.48 -3.78,1.91 -8.16,1.15 -12.17,0.63 -0.12,-1.03 -0.23,-2.05 -0.35,-3.08 z"
       id="path356"
       inkscape:connector-curvature="0"
       style="opacity:1;fill:#fffefe" />
  </g>
  <g
     id="#dbdbe1ff"
     transform="matrix(0.07324204,0,0,0.07324204,-0.9143045,9.7772654)">
    <path
       d="m 509.84,94.66 c 8.49,-2.97 18.19,-3.16 26.46,0.65 -5.7,-0.24 -11.37,-0.8 -17.07,-0.77 -3.14,-0.07 -6.27,-0.17 -9.39,0.12 z"
       id="path359"
       inkscape:connector-curvature="0"
       style="opacity:1;fill:#dbdbe1" />
  </g>
  <g
     id="#3043a1ff"
     transform="matrix(0.07324204,0,0,0.07324204,-0.9143045,9.7772654)">
    <path
       d="m 538.97,113.01 c 1.21,-2.21 4.01,-1.73 6.12,-2.06 -0.14,1.77 0.43,3.8 -0.64,5.37 -1.16,1.89 -3.66,1.61 -5.53,2.07 -0.32,-1.76 -1.22,-3.76 0.05,-5.38 z"
       id="path362"
       inkscape:connector-curvature="0"
       style="opacity:1;fill:#3043a1" />
  </g>
  <g
     id="#fefefeff"
     transform="matrix(0.07324204,0,0,0.07324204,-0.9143045,9.7772654)">
    <path
       d="m 306.97,180.94 c 10.3,-8.07 20.86,-15.81 31.88,-22.87 -2.48,3.55 -4.51,7.4 -7.02,10.93 -3.39,3.03 -7.37,5.27 -11.2,7.69 -12.98,8.21 -25.47,17.16 -38.43,25.41 7.45,-7.96 16.62,-13.98 24.77,-21.16 z"
       id="path365"
       inkscape:connector-curvature="0"
       style="opacity:1;fill:#fefefe" />
    <path
       d="m 551.92,263.49 c 3.45,-1.99 6.25,-4.85 8.25,-8.28 0.82,1.95 1.69,3.89 2.55,5.84 1.73,0.58 3.47,1.17 5.22,1.76 -1.88,1.12 -3.88,2.09 -5.55,3.51 -1.35,1.65 -1.92,3.76 -2.75,5.69 -0.83,-1.98 -1.52,-4.07 -2.82,-5.79 -1.48,-1.17 -3.25,-1.88 -4.9,-2.73 z"
       id="path367"
       inkscape:connector-curvature="0"
       style="opacity:1;fill:#fefefe" />
  </g>
  <g
     id="#3044a1ff"
     transform="matrix(0.07324204,0,0,0.07324204,-0.9143045,9.7772654)">
    <path
       d="m 245.1,191.09 c 1.09,-5.59 5.04,-10.03 9.5,-13.31 -1.76,3.64 -4.05,7.19 -4.53,11.29 -0.38,3.44 -0.11,6.95 0.69,10.32 1.03,4.36 3.64,8.06 5.89,11.86 -2.72,-0.63 -5.85,-0.87 -7.86,-3.06 -4.31,-4.45 -4.81,-11.3 -3.69,-17.1 z"
       id="path370"
       inkscape:connector-curvature="0"
       style="opacity:1;fill:#3044a1" />
    <path
       d="m 266.47,260.51 c -6.57,-9.67 -8.99,-23.13 -2.99,-33.66 0.26,6.9 0.32,14.07 3.35,20.44 2.5,5.18 5.73,10.03 9.58,14.31 3.83,4.27 8.84,7.16 13.5,10.4 -8.97,-0.23 -18.2,-3.94 -23.44,-11.49 z"
       id="path372"
       inkscape:connector-curvature="0"
       style="opacity:1;fill:#3044a1" />
    <path
       d="m 344.55,274.46 c 8.94,-3.03 17.47,-7.12 26.25,-10.57 -11.86,9.33 -24.78,17.67 -39.07,22.73 -9.63,3.09 -19.55,6.41 -29.8,5.48 -3.23,-0.1 -6.3,-1.16 -9.13,-2.64 5.78,-1.76 11.73,-2.82 17.59,-4.25 11.63,-2.78 22.83,-7 34.16,-10.75 z"
       id="path374"
       inkscape:connector-curvature="0"
       style="opacity:1;fill:#3044a1" />
  </g>
  <g
     id="#2f43a0ff"
     transform="matrix(0.07324204,0,0,0.07324204,-0.9143045,9.7772654)">
    <path
       d="m 438.07,236.95 c 3.63,-0.84 7.23,-1.91 10.96,-2.18 3.13,-0.25 6.19,0.65 9.18,1.48 -4.16,2.01 -8.67,3.1 -13.23,3.72 -10.93,1.59 -21.81,3.74 -32.85,4.46 -5.76,0.37 -11.57,0.96 -17.31,0.13 7.58,-1.4 15.26,-2.19 22.81,-3.8 6.78,-1.47 13.7,-2.15 20.44,-3.81 z"
       id="path377"
       inkscape:connector-curvature="0"
       style="opacity:1;fill:#2f43a0" />
  </g>
  <g
     id="#57576bff"
     transform="matrix(0.07324204,0,0,0.07324204,-0.9143045,9.7772654)">
    <path
       d="m 518.79,292.59 c 8.41,-0.77 16.82,-0.03 25.2,0.62 15.59,0.11 31.12,1.68 46.69,2.41 7.83,0.8 15.79,0.42 23.51,2.16 -23.75,-1.19 -47.46,-3.12 -71.22,-4.06 -8.08,0.01 -16.11,-0.88 -24.18,-1.13 z"
       id="path380"
       inkscape:connector-curvature="0"
       style="opacity:1;fill:#57576b" />
    <path
       d="m 284.41,367.84 c 0.45,0.98 0.9,1.97 1.34,2.97 -0.66,3.74 -1.69,7.42 -1.83,11.23 -0.52,10.69 -1.79,21.34 -2.19,32.04 -0.11,3.1 -0.58,6.18 -1.25,9.21 -5.57,0.51 -11.14,1.36 -16.73,0.93 5.44,-0.51 10.88,-1.11 16.22,-2.3 1.46,-8.92 1.4,-17.97 2.25,-26.95 0.81,-9.04 1.11,-18.12 2.19,-27.13 z"
       id="path382"
       inkscape:connector-curvature="0"
       style="opacity:1;fill:#57576b" />
  </g>
  <g
     id="#a0a0a0ff"
     transform="matrix(0.07324204,0,0,0.07324204,-0.9143045,9.7772654)">
    <path
       d="m 429.93,308.21 c 24.24,0.32 48.48,-0.12 72.72,0.14 0.5,8.6 0.84,17.22 0.49,25.83 -7.72,0.53 -15.44,-0.03 -23.16,0.1 -0.67,7.23 -0.23,14.48 -0.18,21.73 0.1,7 -0.1,14 0.23,20.99 0.4,9 0.01,18 0.34,27 0.14,3.9 0.01,7.8 -0.38,11.68 -8.9,-0.01 -17.79,0.01 -26.69,-0.01 -0.15,-19.89 0.01,-39.78 -0.05,-59.67 -0.08,-7.24 0.3,-14.48 -0.28,-21.7 -7.71,-0.13 -15.43,0.37 -23.14,-0.19 -0.38,-8.62 -0.37,-17.28 0.1,-25.9 m 3.07,0.75 c -0.6,6.89 -0.74,13.8 -0.7,20.72 7.91,0.21 15.82,-0.43 23.72,0.21 0.44,7.7 0.09,15.41 0.18,23.11 0.07,19.24 -0.12,38.49 0.08,57.73 6.92,0.19 13.85,0.18 20.78,0.04 0.81,-17.58 -0.16,-35.19 -0.07,-52.77 0.02,-9.37 -0.79,-18.74 -0.08,-28.1 7.7,-0.61 15.41,0.02 23.12,-0.15 0.61,-6.59 0.43,-13.22 -0.11,-19.81 -3.97,-0.35 -7.96,-0.43 -11.93,-0.32 -7.36,0.25 -14.64,-1.3 -21.99,-1 -11,0.31 -22.02,-0.38 -33,0.34 z"
       id="path385"
       inkscape:connector-curvature="0"
       style="opacity:1;fill:#a0a0a0" />
  </g>
  <g
     id="#5e5e71ff"
     transform="matrix(0.07324204,0,0,0.07324204,-0.9143045,9.7772654)">
    <path
       d="m 313.81,312.99 c 8.58,-1.23 17.29,-1.97 25.97,-1.69 0.01,3.99 -0.21,7.97 -0.66,11.93 -0.68,6.02 -0.26,12.1 -0.91,18.13 -0.7,6.56 -0.41,13.18 -1.1,19.75 -0.55,5.25 -0.32,10.54 -0.62,15.81 -1.01,11.4 -0.95,22.86 -2.21,34.25 -0.35,-11.42 0.97,-22.78 1.21,-34.18 0.97,-16.66 1.77,-33.32 2.7,-49.98 0.24,-5.22 0.65,-10.46 0.19,-15.68 -1.75,2.64 -2.19,5.79 -2.23,8.89 0.08,-2.51 0.1,-5.01 0.11,-7.51 -6.71,-0.39 -13.4,0.59 -20.11,0.45 -0.43,-0.03 -1.29,-0.09 -1.72,-0.12 z"
       id="path388"
       inkscape:connector-curvature="0"
       style="opacity:1;fill:#5e5e71" />
  </g>
  <g
     id="#5e5d70ff"
     transform="matrix(0.07324204,0,0,0.07324204,-0.9143045,9.7772654)">
    <path
       d="m 587.01,313.53 0.03,-0.65 c 0.7,3.66 0.69,7.41 0.91,11.12 0.75,9.41 1.17,18.87 0.98,28.32 -1,-12 -1.58,-24.03 -1.96,-36.06 0.01,-0.68 0.03,-2.05 0.04,-2.73 z"
       id="path391"
       inkscape:connector-curvature="0"
       style="opacity:1;fill:#5e5d70" />
  </g>
  <g
     id="#52525285"
     transform="matrix(0.07324204,0,0,0.07324204,-0.9143045,9.7772654)">
    <path
       d="m 855.03,328.99 c 1.9,5.95 2.33,12.2 3.45,18.31 1.63,10.23 3.86,20.41 4.46,30.77 -2.44,-11.23 -3.87,-22.64 -5.84,-33.95 -0.89,-5.02 -1.54,-10.07 -2.07,-15.13 z"
       id="path394"
       inkscape:connector-curvature="0"
       style="opacity:0.51999996;fill:#525252" />
  </g>
  <g
     id="#9d9d9dff"
     transform="matrix(0.07324204,0,0,0.07324204,-0.9143045,9.7772654)">
    <path
       d="m 538.15,331.86 c 8.8,-0.49 17.65,-0.45 26.42,0.44 1.16,8.75 1.24,17.6 1.11,26.41 -8.85,0.07 -17.7,-0.15 -26.55,-0.05 -0.55,-2.83 -0.9,-5.71 -0.84,-8.6 0.12,-6.07 -0.1,-12.14 -0.14,-18.2 m 2.96,4.44 c 0.11,6.82 0.26,13.63 0.25,20.45 7.11,0.84 14.27,1.13 21.43,1.16 -0.06,-6.9 -0.2,-13.8 -0.15,-20.7 -7.15,-0.79 -14.35,-0.57 -21.53,-0.91 z"
       id="path397"
       inkscape:connector-curvature="0"
       style="opacity:1;fill:#9d9d9d" />
  </g>
  <g
     id="#5555558a"
     transform="matrix(0.07324204,0,0,0.07324204,-0.9143045,9.7772654)">
    <path
       d="m 14.19,383.02 c 0.03,-5.74 0.18,-11.73 2.85,-16.95 -1.2,6.46 -2.72,13.03 -2.01,19.65 0.29,2.88 0.68,5.76 0.92,8.65 l 0.08,0.88 c -1.72,-3.84 -1.79,-8.11 -1.84,-12.23 z"
       id="path400"
       inkscape:connector-curvature="0"
       style="opacity:0.54000005;fill:#555555" />
  </g>
  <g
     id="#59596dff"
     transform="matrix(0.07324204,0,0,0.07324204,-0.9143045,9.7772654)">
    <path
       d="m 418.33,393.99 c 0.12,-9.17 -0.48,-18.38 0.64,-27.51 1.03,4.91 0.83,9.94 0.32,14.89 -0.89,8.92 -0.27,17.89 -0.87,26.82 -0.02,-4.74 -0.14,-9.47 -0.09,-14.2 z"
       id="path403"
       inkscape:connector-curvature="0"
       style="opacity:1;fill:#59596d" />
  </g>
  <g
     id="#56566bff"
     transform="matrix(0.07324204,0,0,0.07324204,-0.9143045,9.7772654)">
    <path
       d="m 354.45,377.22 c 9.26,-1.41 18.69,-1.29 28.04,-1.6 -3.05,1.03 -6.27,1.23 -9.46,1.08 -6.21,-0.28 -12.38,0.86 -18.58,0.52 z"
       id="path406"
       inkscape:connector-curvature="0"
       style="opacity:1;fill:#56566b" />
  </g>
  <g
     id="#58586cff"
     transform="matrix(0.07324204,0,0,0.07324204,-0.9143045,9.7772654)">
    <path
       d="m 515.73,399.5 c -0.61,-5.65 -0.8,-11.39 0.29,-17 1.5,11.1 -0.13,22.31 1.07,33.42 2.39,0.34 4.78,0.69 7.18,0.95 -2.67,0.05 -5.34,0.05 -8,0.01 0.12,-5.8 0.11,-11.61 -0.54,-17.38 z"
       id="path409"
       inkscape:connector-curvature="0"
       style="opacity:1;fill:#58586c" />
  </g>
  <g
     id="#4e4e4e7e"
     transform="matrix(0.07324204,0,0,0.07324204,-0.9143045,9.7772654)">
    <path
       d="m 42.51,405.77 c -0.28,3.86 -0.67,7.72 -1.34,11.54 -1.49,8.37 -2.68,16.79 -4.53,25.09 0.32,-7.95 2.19,-15.72 3.33,-23.57 0.64,-4.39 1.41,-8.77 2.54,-13.06 z"
       id="path412"
       inkscape:connector-curvature="0"
       style="opacity:0.49000005;fill:#4e4e4e" />
  </g>
  <g
     id="#b52262ff"
     transform="matrix(0.07324204,0,0,0.07324204,-0.9143045,9.7772654)">
    <path
       d="m 467.23,457.75 c 1.45,2.3 2.42,4.85 3.14,7.48 -1.96,0.01 -3.92,-0.01 -5.86,-0.04 0.72,-2.55 1.59,-5.05 2.72,-7.44 z"
       id="path415"
       inkscape:connector-curvature="0"
       style="opacity:1;fill:#b52262" />
  </g>
  <g
     id="#d37da3ff"
     transform="matrix(0.07324204,0,0,0.07324204,-0.9143045,9.7772654)">
    <path
       d="m 418.24,465.34 c 5.2,-0.35 10.41,-0.5 15.62,-0.52 l -0.1,0.94 c -4.65,-0.11 -9.32,-0.11 -13.97,0.07 0.01,1.44 0.02,2.88 0.01,4.33 5.92,0.35 11.87,-0.08 17.79,0.42 0.03,2.27 0.03,4.55 0,6.83 -3.53,0.27 -7.06,0.37 -10.59,0.28 -5.44,-0.17 -10.91,0.35 -16.32,-0.36 l 0.85,-0.04 c 8.23,-0.29 16.48,0.49 24.72,-0.25 -0.02,-2.04 -0.02,-4.08 -0.03,-6.12 -5.99,-0.25 -12,-0.2 -17.99,-0.29 0.01,-1.77 0.02,-3.53 0.01,-5.29 z"
       id="path418"
       inkscape:connector-curvature="0"
       style="opacity:1;fill:#d37da3" />
  </g>
  <g
     id="#4a4a4a79"
     transform="matrix(0.07324204,0,0,0.07324204,-0.9143045,9.7772654)">
    <path
       d="m 222.19,482.53 c 4.62,-0.36 9.54,-1.94 14.02,-0.01 -4.4,0.07 -8.8,0.25 -13.19,0.6 -1.54,7.02 -0.81,14.35 -2.55,21.31 -1.31,0.91 -2.96,1.02 -4.47,1.34 -5.08,0.75 -10.17,1.42 -15.3,1.61 6.39,-1.21 12.84,-2.09 19.18,-3.56 1.23,-7.05 0.92,-14.26 2.31,-21.29 z"
       id="path421"
       inkscape:connector-curvature="0"
       style="opacity:0.47000002;fill:#4a4a4a" />
  </g>
  <g
     id="#49494977"
     transform="matrix(0.07324204,0,0,0.07324204,-0.9143045,9.7772654)">
    <path
       d="m 671.96,484.64 c 9.39,-0.56 18.72,1.07 28.07,1.62 6.8,0.87 13.99,0.15 20.38,3.08 -10.27,-1.43 -20.62,-2.1 -30.94,-3.08 -5.84,-0.52 -11.72,-0.64 -17.51,-1.62 z"
       id="path424"
       inkscape:connector-curvature="0"
       style="opacity:0.47000002;fill:#494949" />
  </g>
  <g
     id="#4e4e4e7f"
     transform="matrix(0.07324204,0,0,0.07324204,-0.9143045,9.7772654)">
    <path
       d="m 162.57,512.71 c 11.17,-1.7 22.29,-3.87 33.58,-4.7 -3.29,0.87 -6.64,1.5 -10.01,1.95 -10.38,1.42 -20.71,3.14 -31.03,4.93 -4.13,0.73 -8.3,1.24 -12.49,1.44 6.6,-1.44 13.26,-2.62 19.95,-3.62 z"
       id="path427"
       inkscape:connector-curvature="0"
       style="opacity:0.5;fill:#4e4e4e" />
    <path
       d="m 106.72,521.87 c 10.48,-1.61 20.84,-4.07 31.44,-4.85 -6.9,1.87 -14.03,2.58 -21.04,3.92 -7.5,1.12 -14.87,3.16 -22.47,3.5 4,-0.98 8,-1.93 12.07,-2.57 z"
       id="path429"
       inkscape:connector-curvature="0"
       style="opacity:0.5;fill:#4e4e4e" />
  </g>
  <g
     id="#4c4c4c7c"
     transform="matrix(0.07324204,0,0,0.07324204,-0.9143045,9.7772654)">
    <path
       d="m 721.82,508.92 c 9.46,0.35 18.8,1.94 28.16,3.3 9.45,1.44 18.95,2.64 28.32,4.59 -3.76,-0.19 -7.52,-0.5 -11.23,-1.11 -10.72,-1.76 -21.47,-3.34 -32.23,-4.76 -4.36,-0.55 -8.78,-0.78 -13.02,-2.02 z"
       id="path432"
       inkscape:connector-curvature="0"
       style="opacity:0.49000005;fill:#4c4c4c" />
  </g>
  <g
     id="#9d9d9eff"
     transform="matrix(0.07324204,0,0,0.07324204,-0.9143045,9.7772654)">
    <path
       d="m 488.37,517.25 c 2.06,-0.63 4.66,0.04 5.64,2.11 0.64,1.64 0.55,3.59 -0.23,5.18 -1.95,2.93 -7.23,2.26 -8.42,-1.04 -0.79,-2.43 0.31,-5.66 3.01,-6.25 z"
       id="path435"
       inkscape:connector-curvature="0"
       style="opacity:1;fill:#9d9d9e" />
  </g>
  <g
     id="#54545488"
     transform="matrix(0.07324204,0,0,0.07324204,-0.9143045,9.7772654)">
    <path
       d="m 785.08,517.91 c 10.2,0.98 20.27,3.02 30.26,5.28 -5.26,0.17 -10.33,-1.38 -15.45,-2.27 -4.96,-0.91 -10.06,-1.21 -14.81,-3.01 z"
       id="path438"
       inkscape:connector-curvature="0"
       style="opacity:0.52999998;fill:#545454" />
  </g>
  <g
     id="#4343436c"
     transform="matrix(0.07324204,0,0,0.07324204,-0.9143045,9.7772654)">
    <path
       d="m 365.93,559.98 c 5.42,-0.4 10.85,-0.83 16.3,-0.69 -6.9,2.14 -14.16,0.97 -21.23,1.6 -5.08,0.32 -10.24,1.5 -15.28,0.21 l 0.88,-0.07 c 6.43,-0.55 12.89,-0.58 19.33,-1.05 z"
       id="path441"
       inkscape:connector-curvature="0"
       style="opacity:0.42000002;fill:#434343" />
  </g>
</svg>
