<?xml version="1.0" encoding="UTF-8" standalone="no"?>
<svg
   xmlns:dc="http://purl.org/dc/elements/1.1/"
   xmlns:cc="http://creativecommons.org/ns#"
   xmlns:rdf="http://www.w3.org/1999/02/22-rdf-syntax-ns#"
   xmlns:svg="http://www.w3.org/2000/svg"
   xmlns="http://www.w3.org/2000/svg"
   xmlns:sodipodi="http://sodipodi.sourceforge.net/DTD/sodipodi-0.dtd"
   xmlns:inkscape="http://www.inkscape.org/namespaces/inkscape"
   width="64"
   height="64"
   viewBox="0 0 48 47.999999"
   version="1.1"
   id="svg108"
   sodipodi:docname="wnv.svg"
   inkscape:version="0.92.3 (2405546, 2018-03-11)">
  <metadata
     id="metadata114">
    <rdf:RDF>
      <cc:Work
         rdf:about="">
        <dc:format>image/svg+xml</dc:format>
        <dc:type
           rdf:resource="http://purl.org/dc/dcmitype/StillImage" />
        <dc:title></dc:title>
      </cc:Work>
    </rdf:RDF>
  </metadata>
  <defs
     id="defs112" />
  <sodipodi:namedview
     pagecolor="#ffffff"
     bordercolor="#666666"
     borderopacity="1"
     objecttolerance="10"
     gridtolerance="10"
     guidetolerance="10"
     inkscape:pageopacity="0"
     inkscape:pageshadow="2"
     inkscape:window-width="1920"
     inkscape:window-height="1017"
     id="namedview110"
     showgrid="false"
     units="px"
     inkscape:pagecheckerboard="true"
     inkscape:zoom="3.56"
     inkscape:cx="166.67821"
     inkscape:cy="-53.126556"
     inkscape:window-x="-8"
     inkscape:window-y="-8"
     inkscape:window-maximized="1"
     inkscape:current-layer="#000000ff" />
  <g
     id="#ffffffff"
     transform="matrix(0.08004041,0,0,0.08004041,-6.1627607e-4,13.154562)">
    <path
       d="m 595.48,0 h 2.44 c -0.6,0.39 -1.21,0.77 -1.66,1.31 0.07,0.11 0.23,0.33 0.3,0.44 -45.13,89.56 -90.18,179.16 -135.32,268.72 l -0.4,0.02 c -3.66,-12.8 -8.51,-25.25 -12.62,-37.92 -18.41,-54.38 -37.19,-108.64 -55.38,-163.09 0.47,0.04 1.42,0.12 1.9,0.16 14.66,6.46 29.34,12.88 44.11,19.07 l -1.71,-0.65 c 10.93,31.83 21.68,63.73 32.83,95.49 18.01,-35.94 35.39,-72.21 53.18,-108.26 9.13,-18.89 18.54,-37.64 27.6,-56.56 15.02,-5.16 29.57,-11.66 44.63,-16.69 0.02,-0.51 0.08,-1.53 0.1,-2.04 z"
       id="path63"
       inkscape:connector-curvature="0"
       style="opacity:1;fill:#ffffff" />
    <path
       d="m 285.69,16.38 c 0.26,-0.28 0.78,-0.82 1.04,-1.1 l 1.03,-0.05 -0.37,0.25 c -0.6,0.65 -1.19,1.31 -1.77,1.97 11.19,22.09 21.26,44.74 32.33,66.89 4.23,9.31 8.79,18.46 13.22,27.68 6.16,13.1 12.44,26.15 18.65,39.23 1.68,3.46 3.08,7.08 5.33,10.23 0.47,-37.34 0.22,-74.71 0.35,-112.06 11.18,6.01 22.54,11.7 33.82,17.52 1.07,0.54 2.13,1.09 3.21,1.64 -0.43,4.81 -0.27,9.63 -0.25,14.45 0.03,43.62 0.15,87.24 0.17,130.86 -20.27,-0.18 -40.54,-0.05 -60.81,-0.22 C 312.46,175.48 293.18,137.35 274,99.18 c -2.5,-4.82 -4.74,-9.78 -7.5,-14.46 -0.26,43.86 0.23,87.71 -0.02,131.57 -13.63,0.07 -27.23,-0.57 -40.85,-0.63 0.15,-51.89 0.12,-103.77 0.23,-155.65 -0.18,-6.1 0.61,-12.22 -0.02,-18.31 l -0.16,-0.78 c 0.29,-1.27 0.61,-2.53 0.95,-3.79 19.8,-6.57 39.35,-13.91 59.06,-20.75 z"
       id="path65"
       inkscape:connector-curvature="0"
       style="opacity:1;fill:#ffffff" />
    <path
       d="m 194.08,42.41 c 9.48,-1.73 19.08,-2.82 28.52,-4.75 1.05,0.01 2.77,0.52 2.13,1.94 -0.91,2.64 -1.31,5.38 -1.38,8.16 -13.44,55.73 -26.81,111.47 -40,167.26 -13.03,0.6 -26.07,-0.36 -39.1,-0.24 -9.39,-31.35 -19,-62.64 -28.52,-93.95 -8.08,30.85 -15.54,61.87 -23.37,92.8 -11.06,0.05 -22.12,0.17 -33.18,0.12 C 40.83,166.34 22.26,119.02 3.86,71.62 c 8.97,-2.07 18.18,-2.76 27.26,-4.15 12.94,33.66 25.66,67.4 38.51,101.09 0.28,0.61 0.84,1.83 1.12,2.44 14.63,-38.24 28.78,-76.71 43.19,-115.04 0.18,-0.5 0.54,-1.51 0.72,-2.01 0.6,-0.1 1.8,-0.28 2.39,-0.38 14,40.65 28.94,80.98 42.99,121.61 0.24,0.13 0.72,0.39 0.96,0.52 10.73,-44.5 22.1,-88.85 33.08,-133.29 z"
       id="path67"
       inkscape:connector-curvature="0"
       style="opacity:1;fill:#ffffff" />
    <path
       d="m 140.7,226.85 c 0.53,-1.34 1.41,-2.45 2.35,-3.52 4.37,7.98 8.05,16.31 12.03,24.48 2.06,3.98 3.51,8.96 8.12,10.67 -3.63,1.47 -7.48,0.05 -11.22,0.45 -2.55,0.19 -5.11,-0.19 -7.66,0.03 l 0.04,-1.18 c 1.4,-0.15 2.81,-0.3 4.21,-0.46 0.42,-2.93 -1.04,-5.6 -2.48,-8.03 -4.27,-0.13 -8.57,-0.22 -12.84,0.05 -1.26,2.5 -4.64,6.65 -0.53,8.24 l 0.16,1.24 c -2.61,-0.02 -5.22,-0.03 -7.82,0 l 0.35,-1.2 c 1.12,-1.25 2.45,-2.39 3.07,-4 3.94,-8.98 8.2,-17.82 12.22,-26.77 m -6.55,20.39 c 3.59,-0.02 7.19,-0.02 10.78,0.01 -1.46,-4.25 -3.59,-8.21 -5.5,-12.26 -2.04,3.95 -3.81,8.05 -5.28,12.25 z"
       id="path69"
       inkscape:connector-curvature="0"
       style="opacity:1;fill:#ffffff" />
    <path
       d="m 299.41,228.39 c 8.14,-5.8 20.04,-5.76 28.06,0.26 7.01,5.74 7.99,17.05 2.46,24.14 -2.75,3.71 -7.3,5.33 -11.6,6.43 -7.28,0.93 -15.69,0.03 -20.99,-5.58 -6.67,-6.98 -5.67,-19.46 2.07,-25.25 m 13.6,-2.33 c -5.82,-0.28 -9.06,5.86 -9.58,10.89 -0.39,6.2 -1.11,13.36 3.17,18.48 4.1,4.54 12.4,3.33 14.85,-2.36 2.75,-6.29 2.55,-13.67 0.56,-20.16 -1.1,-3.95 -4.69,-7.36 -9,-6.85 z"
       id="path71"
       inkscape:connector-curvature="0"
       style="opacity:1;fill:#ffffff" />
    <path
       d="m 202.97,224.75 c 4.91,-0.06 9.83,-0.02 14.75,-0.04 -0.13,0.37 -0.37,1.1 -0.5,1.47 -1.17,0.12 -2.35,0.25 -3.52,0.38 -1.83,2.84 -1.11,6.29 -1.23,9.47 0.14,6.44 -0.28,12.9 0.2,19.32 0.72,2.55 3.89,1.66 5.52,3.2 -6.72,0.49 -13.48,0.31 -20.2,0.09 1.68,-1.07 3.59,-1.67 5.47,-2.32 0.25,-9.18 0.21,-18.39 0.02,-27.58 -5.03,9.76 -9.4,19.85 -14.19,29.74 -0.48,0.35 -0.95,0.71 -1.43,1.08 -5.1,-9.79 -9.68,-19.83 -14.49,-29.76 -0.32,8.05 -0.21,16.12 -0.1,24.17 -0.27,2.91 2.97,3.65 5.22,3.85 0.01,0.34 0.03,1.03 0.04,1.38 -4.37,-0.03 -8.73,-0.04 -13.09,0 0.03,-0.35 0.11,-1.03 0.15,-1.38 1.85,-0.3 4.84,-0.33 4.86,-2.85 0.21,-9.09 0.09,-18.2 0.04,-27.3 -1.93,-0.85 -3.84,-1.74 -5.71,-2.71 5.06,-0.23 10.3,-0.62 15.28,0.09 4.12,7.76 7.39,15.97 11.71,23.62 3.3,-8.17 7.58,-15.9 11.2,-23.92 z"
       id="path73"
       inkscape:connector-curvature="0"
       style="opacity:1;fill:#ffffff" />
    <path
       d="m 48.43,234.83 c 0.13,-3.3 -0.06,-6.61 0.33,-9.88 11.44,-0.53 22.96,-0.09 34.43,-0.22 0.08,3.33 0.12,6.65 0.2,9.98 l -1.65,0.13 c -0.67,-2.06 -1.1,-4.39 -2.81,-5.9 -2.19,-2.18 -5.46,-2.45 -8.38,-2.61 -0.03,7.56 0.02,15.12 -0.02,22.68 0.05,2.78 -0.43,5.8 1.22,8.25 1.47,0.19 2.93,0.39 4.4,0.62 -0.24,0.31 -0.7,0.94 -0.94,1.25 -6.69,-1 -13.45,0.8 -20.11,-0.65 1.6,-0.84 3.41,-1.07 5.17,-1.35 0.41,-1.37 1.09,-2.7 1.03,-4.15 0.04,-8.87 0,-17.75 0.01,-26.62 -5.14,-0.49 -10.84,2.61 -11.2,8.2 -0.42,0.07 -1.26,0.2 -1.68,0.27 z"
       id="path75"
       inkscape:connector-curvature="0"
       style="opacity:1;fill:#ffffff" />
    <path
       d="m 90.61,228.22 c 0.02,-2.67 -5.7,-0.94 -4.05,-3.51 10.67,-0.06 21.35,0.15 32.02,-0.1 1.01,3.14 0.62,6.5 0.51,9.75 l -1.34,0.71 c -0.91,-2.53 -1.55,-5.65 -4.25,-6.89 -3.98,-2 -8.59,-1.62 -12.89,-1.48 -0.68,4.66 -0.34,9.39 -0.25,14.08 2.22,-0.31 4.64,-0.38 6.54,-1.72 1.83,-1.39 2.05,-3.81 2.75,-5.83 0.37,0.04 1.13,0.11 1.51,0.14 -0.09,4.88 0.04,9.76 -0.04,14.64 0.11,1.06 -0.7,1.85 -1.13,2.73 -0.7,-2.43 -1.59,-4.79 -2.93,-6.94 -2.15,-0.93 -4.45,-1.38 -6.79,-1.47 0.07,4.67 -0.27,9.36 0.16,14.02 3.97,2.08 9.02,1.06 13,-0.6 3.71,-1.49 5.13,-5.49 8.06,-7.85 -0.04,3.7 -1.19,7.26 -1.95,10.85 -3.49,0.03 -6.99,0.67 -10.48,0.22 -7.84,-0.7 -15.73,0.71 -23.55,-0.39 1.5,-1.11 3.34,-1.5 5.05,-2.14 0.37,-9.4 0.34,-18.84 0.05,-28.22 z"
       id="path77"
       inkscape:connector-curvature="0"
       style="opacity:1;fill:#ffffff" />
    <path
       d="m 234.43,226.02 c 0.04,-0.34 0.11,-1.02 0.14,-1.35 5.72,0.6 11.83,-1.08 17.27,1.04 -1.4,0.41 -2.84,0.74 -4.25,1.11 -0.07,2.49 1.03,4.77 1.87,7.06 1.84,4.72 3.47,9.53 5.4,14.22 2.31,-4.98 4.4,-10.06 6.5,-15.12 -0.15,-1.74 -0.93,-3.35 -1.65,-4.91 -0.66,-1.92 -3.4,-1.3 -4.19,-3.19 6.15,-0.04 12.45,-0.72 18.53,0.35 -1.57,0.58 -3.14,1.13 -4.73,1.65 1.25,6.96 4.58,13.32 6.53,20.09 0.69,-0.36 1.15,-0.91 1.37,-1.65 2.03,-5.49 3.86,-11.07 6.13,-16.48 -0.25,-0.52 -0.76,-1.56 -1.01,-2.08 -1.27,-0.18 -2.14,-0.85 -2.61,-1.99 3.44,-0.08 6.89,-0.13 10.33,0.09 -1.48,1.54 -3.72,2.47 -4.44,4.63 -3.82,9.67 -7.35,19.45 -11.23,29.09 -0.39,0.31 -1.17,0.94 -1.57,1.25 -3.51,-7.86 -6.63,-15.88 -9.98,-23.81 -3.77,7.64 -7.13,15.48 -10.67,23.22 -0.38,0.1 -1.13,0.29 -1.51,0.39 -3.85,-8.96 -7.36,-18.06 -11.06,-27.09 -1.16,-2.54 -1.72,-6.27 -5.17,-6.52 z"
       id="path79"
       inkscape:connector-curvature="0"
       style="opacity:1;fill:#ffffff" />
    <path
       d="m 336.79,224.82 c 7.08,-0.15 14.17,-0.19 21.25,0 4.75,0.48 10.62,1.16 13.2,5.82 0.82,2.48 0.91,5.59 -0.86,7.71 -1.85,2.29 -4.78,3.13 -7.39,4.21 4.75,5.34 8.44,11.72 14.14,16.13 -3.72,0.34 -7.36,0.21 -11.14,0.12 -1.4,0.18 -1.97,-1.27 -2.72,-2.11 -2.7,-3.67 -5.5,-7.27 -8.2,-10.94 -1,-1.09 -1.71,-2.88 -3.52,-2.65 0.04,4.02 -0.17,8.04 0.11,12.06 0.63,2.54 3.68,2.08 5.43,3.39 -5.35,0.58 -10.73,0.19 -16.09,0.44 -0.93,-0.07 -2.79,-0.19 -3.72,-0.26 v -0.91 c 1.82,-0.19 4.6,-0.34 4.62,-2.82 0.65,-4.96 0.11,-10.02 0.28,-15.02 -0.19,-4.4 0.67,-8.98 -1.01,-13.19 -1.53,-0.49 -3.57,-0.24 -4.38,-1.98 m 14.91,1.87 c -0.31,4.98 -0.12,9.97 -0.16,14.96 2.88,0 5.74,-0.46 8.48,-1.38 2.61,-3.34 3.1,-8.42 0.4,-11.84 -2.27,-2.32 -5.78,-1.86 -8.72,-1.74 z"
       id="path81"
       inkscape:connector-curvature="0"
       style="opacity:1;fill:#ffffff" />
    <path
       d="m 378.15,225.61 c 0.67,-0.21 1.99,-0.63 2.66,-0.85 5.81,-0.1 11.63,-0.07 17.45,0.02 -0.75,2.13 -3.59,1.17 -4.72,2.88 -0.78,4.49 -0.28,9.09 -0.32,13.62 4.55,-3.79 9.02,-7.69 13.39,-11.69 1.08,-0.65 0.88,-1.88 0.95,-2.93 -1.84,-0.26 -3.66,-0.5 -5.45,-0.97 2.03,-1.43 4.59,-0.88 6.92,-0.98 3.67,0.16 7.42,-0.42 11.02,0.49 -7.51,1.57 -13.39,6.75 -18.75,11.92 1.03,3.02 4.25,4.9 6.17,7.44 4.86,4.61 8.35,10.86 14.43,14.03 -3.62,0.67 -7.29,0.7 -10.93,0.25 -3.17,-0.49 -6.64,1.29 -9.46,-0.78 1.73,-0.33 3.49,-0.58 5.24,-0.87 -2.86,-5.38 -8.04,-9.1 -11.85,-13.8 -0.35,0.02 -1.06,0.06 -1.42,0.08 -0.56,4.25 -0.56,8.65 0.03,12.89 1.57,0.92 3.57,1.01 4.93,2.29 -6.43,0.44 -12.89,0.06 -19.33,0.15 l -0.04,-0.9 c 1.51,-0.4 3,-0.9 4.45,-1.5 0.31,-9.1 0.15,-18.22 0.12,-27.32 0.14,-2.87 -3.49,-2.76 -5.49,-3.47 z"
       id="path83"
       inkscape:connector-curvature="0"
       style="opacity:1;fill:#ffffff" />
  </g>
  <g
     id="#ed1b24ff"
     transform="matrix(0.08004041,0,0,0.08004041,-6.1627607e-4,13.154562)">
    <path
       d="m 596.56,1.75 0.67,1.05 c 1.06,3.37 1.56,6.9 2.26,10.36 0.77,3.76 -0.81,7.44 -1.43,11.1 -17.29,82.07 -34.66,164.13 -51.86,246.22 -28.32,-0.01 -56.64,0.01 -84.96,-0.01 C 506.38,180.91 551.43,91.31 596.56,1.75 Z"
       id="path86"
       inkscape:connector-curvature="0"
       style="opacity:1;fill:#ed1b24" />
    <path
       d="m 481.14,106.04 c 23.19,-29.11 46.4,-58.21 69.61,-87.31 -9.06,18.92 -18.47,37.67 -27.6,56.56 -17.79,36.05 -35.17,72.32 -53.18,108.26 -11.15,-31.76 -21.9,-63.66 -32.83,-95.49 l 1.71,0.65 c 13.3,6.07 26.39,12.59 39.69,18.65 1.19,0.91 1.85,-0.59 2.6,-1.32 z"
       id="path88"
       inkscape:connector-curvature="0"
       style="opacity:1;fill:#ed1b24" />
    <path
       d="m 194.38,41.53 c 10.79,-1.12 21.43,-3.55 32.25,-4.4 -0.34,1.26 -0.66,2.52 -0.95,3.79 -0.81,2.27 -1.47,4.59 -2.33,6.84 0.07,-2.78 0.47,-5.52 1.38,-8.16 0.64,-1.42 -1.08,-1.93 -2.13,-1.94 -9.44,1.93 -19.04,3.02 -28.52,4.75 0.07,-0.22 0.23,-0.66 0.3,-0.88 z"
       id="path90"
       inkscape:connector-curvature="0"
       style="opacity:1;fill:#ed1b24" />
    <path
       d="m 123.87,259.04 c -1.46,-0.47 0.6,-2.08 1.54,-1.42 l -0.35,1.2 c 2.6,-0.03 5.21,-0.02 7.82,0 l -0.16,-1.24 c 0.96,-0.56 3.93,0.31 2.38,1.52 -3.72,0.23 -7.52,0.36 -11.23,-0.06 z"
       id="path92"
       inkscape:connector-curvature="0"
       style="opacity:1;fill:#ed1b24" />
  </g>
  <g
     id="#000000ff"
     transform="translate(0,-223.00001)">
    <path
       d="m 23.031814,237.37359 c 0.1961,-0.0112 0.36098,0.11606 0.53067,0.1961 1.62722,0.85243 3.26404,1.68805 4.89127,2.54048 -0.0104,2.98951 0.01,5.98062 -0.028,8.96933 -0.18009,-0.25213 -0.29215,-0.54187 -0.42661,-0.81881 -0.49705,-1.04693 -0.99971,-2.09146 -1.49276,-3.13999 -0.22891,-0.5971 -0.53066,-1.16299 -0.78199,-1.75048 -0.0696,-0.16809 -0.16408,-0.32337 -0.27614,-0.46504 -0.88605,-1.77289 -1.69206,-3.58581 -2.58771,-5.3539 0.0464,-0.0528 0.0936,-0.10565 0.14167,-0.15768 z"
       id="path95"
       inkscape:connector-curvature="0"
       style="opacity:1;fill:#000000;stroke-width:0.0800404" />
    <path
       d="m 9.3681137,240.44234 c 2.0634403,-0.32016 4.1260803,-0.64913 6.1895303,-0.96369 -0.006,0.0176 -0.0184,0.0528 -0.024,0.0704 -0.87884,3.55699 -1.7889,7.10679 -2.64773,10.66858 -0.0192,-0.0104 -0.0576,-0.0312 -0.0768,-0.0416 -1.12457,-3.25204 -2.32037,-6.48007 -3.4409403,-9.73371 z"
       id="path97"
       inkscape:connector-curvature="0"
       style="opacity:1;fill:#000000;stroke-width:0.0800404" />
    <path
       d="m 17.876414,239.9773 c 0.0688,-0.18009 0.12166,-0.36578 0.18649,-0.54747 l 0.0128,0.0624 c 0.0504,0.48745 -0.0128,0.97729 0.002,1.46554 -0.009,4.1525 -0.006,8.30499 -0.0184,12.45829 1.09015,0.005 2.1787,0.056 3.26965,0.0504 0.02,-3.51057 -0.0192,-7.02034 0.002,-10.53091 0.22091,0.37459 0.4002,0.77159 0.6003,1.15738 1.53518,3.05514 3.07836,6.10709 4.61353,9.16383 1.62242,0.0136 3.24484,0.003 4.86726,0.0176 -0.002,-3.49137 -0.0112,-6.98273 -0.0136,-10.47409 -0.002,-0.38579 -0.0144,-0.77159 0.02,-1.15658 -0.0864,-0.044 -0.17128,-0.088 -0.25693,-0.13127 0.14568,0.0688 0.29295,0.13527 0.43382,0.21611 -0.0384,-0.003 -0.11446,-0.01 -0.15207,-0.0128 1.45593,4.3582 2.95909,8.70119 4.43263,13.05379 0.32897,1.01411 0.71716,2.01062 1.01011,3.03513 l 0.01,0.0408 H 2.9564637 c -0.97249,-5.23384 -1.92497,-10.47168 -2.88624998,-15.70792 l -0.0695999961,0.0928 v -0.24412 c 0.0920999961,-0.0696 0.1864999961,-0.13447 0.2801399961,-0.2001 0.42262,0.006 0.83562998,-0.0792 1.25263998,-0.12887 2.52927,-0.397 5.06015,-0.78439 7.59023,-1.17819 -8e-4,0.0384 -0.002,0.11606 -0.003,0.15448 -1.15339,3.06794 -2.28596,6.1471 -3.45695,9.20784 -0.0224,-0.0488 -0.0672,-0.14647 -0.0896,-0.19529 -1.02852,-2.69657 -2.04664,-5.39713 -3.08236,-8.09129 -0.72677,0.11126 -1.46394,0.16649 -2.18189998,0.33217 1.47273998,3.79391 2.95908998,7.58143 4.42782998,11.37614 0.88525,0.004 1.7705,-0.006 2.65574,-0.01 0.62672,-2.47565 1.22382,-4.95851 1.87055,-7.42775 0.7619803,2.50606 1.5311703,5.01053 2.2827503,7.51979 1.04293,-0.01 2.08665,0.0672 3.12958,0.0192 1.05573,-4.46545 2.12587,-8.9269 3.20162,-13.38756 m -6.61534,14.33444 c -0.32177,0.71636 -0.66274,1.42392 -0.9781,2.14268 -0.0496,0.12887 -0.15608,0.22011 -0.24572,0.32016 -0.0752,-0.0528 -0.2401203,0.076 -0.1232603,0.11366 0.2969503,0.0336 0.6011003,0.0232 0.8988503,0.005 0.12406,-0.0968 -0.11366,-0.16648 -0.1905,-0.12166 -0.32896,-0.12726 -0.0584,-0.45943 0.0424,-0.65953 0.34177,-0.0216 0.68594,-0.0144 1.02771,-0.004 0.11526,0.1945 0.23212,0.4082 0.19851,0.64272 -0.11206,0.0128 -0.22492,0.0248 -0.33697,0.0368 l -0.003,0.0944 c 0.20411,-0.0176 0.40901,0.0128 0.61311,-0.002 0.29935,-0.032 0.60751,0.0816 0.89806,-0.036 -0.36899,-0.13687 -0.48505,-0.53547 -0.64993,-0.85403 -0.31856,-0.65393 -0.61311,-1.32067 -0.96289,-1.95939 -0.0752,0.0856 -0.14567,0.17449 -0.18809,0.28174 m 12.70321,0.12326 c -0.61951,0.46344 -0.69955,1.46234 -0.16568,2.02102 0.42421,0.44903 1.09735,0.52107 1.68004,0.44663 0.34418,-0.0881 0.70836,-0.21771 0.92847,-0.51466 0.44263,-0.56749 0.36419,-1.47274 -0.1969,-1.93218 -0.64192,-0.48184 -1.5944,-0.48504 -2.24593,-0.0208 m -7.7191,-0.29134 c -0.28974,0.64192 -0.63232,1.26063 -0.89645,1.91456 -0.34577,-0.61231 -0.60751,-1.26944 -0.93727,-1.89055 -0.3986,-0.0568 -0.81802,-0.0256 -1.22302,-0.007 0.14968,0.0776 0.30255,0.14888 0.45703,0.21691 0.004,0.72837 0.0136,1.45754 -0.003,2.18511 -0.002,0.2017 -0.24092,0.2041 -0.389,0.22811 -0.003,0.028 -0.01,0.0824 -0.012,0.11046 0.34897,-0.003 0.69795,-0.002 1.04773,0 -8e-4,-0.028 -0.002,-0.0832 -0.003,-0.11046 -0.18009,-0.016 -0.43942,-0.0752 -0.41781,-0.30815 -0.009,-0.64433 -0.0176,-1.29025 0.008,-1.93458 0.38499,0.7948 0.75158,1.59841 1.15978,2.382 0.0384,-0.0296 0.076,-0.0584 0.11446,-0.0864 0.38339,-0.7916 0.73317,-1.59921 1.13577,-2.3804 0.0152,0.73557 0.0184,1.47274 -0.002,2.20751 -0.15047,0.052 -0.30335,0.10005 -0.43782,0.1857 0.53787,0.0176 1.07895,0.032 1.61682,-0.007 -0.13047,-0.12326 -0.3842,-0.052 -0.44182,-0.25613 -0.0384,-0.51386 -0.005,-1.03092 -0.016,-1.54638 0.01,-0.25453 -0.048,-0.53067 0.0985,-0.75798 0.0936,-0.0104 0.18809,-0.0208 0.28174,-0.0304 0.0104,-0.0296 0.0296,-0.088 0.04,-0.11766 -0.3938,0.002 -0.7876,-0.002 -1.1806,0.003 m -12.3694403,0.8068 c 0.0336,-0.006 0.10085,-0.016 0.13447,-0.0216 0.0288,-0.44742 0.48504,-0.69555 0.89645,-0.65633 -8e-4,0.70996 0.002,1.42072 -8e-4,2.13068 0.005,0.11606 -0.0496,0.22251 -0.0824,0.33216 -0.14087,0.0224 -0.28575,0.0408 -0.41381,0.10806 0.53307,0.11606 1.07414,-0.028 1.60961,0.052 0.0192,-0.0248 0.056,-0.0752 0.0752,-0.10006 -0.11766,-0.0184 -0.23452,-0.0344 -0.35218,-0.0496 -0.13207,-0.1961 -0.0937,-0.43782 -0.0976,-0.66033 0.003,-0.60511 -8e-4,-1.21021 0.002,-1.81532 0.23372,0.0128 0.49545,0.0344 0.67074,0.20891 0.13687,0.12086 0.17129,0.30735 0.22491,0.47223 l 0.13207,-0.0104 c -0.006,-0.26654 -0.01,-0.53227 -0.016,-0.7988 -0.91806,0.0104 -1.84013,-0.0248 -2.75579,0.0176 -0.0312,0.26174 -0.016,0.52667 -0.0264,0.7908 m 3.3761,-0.52906 c 0.0232,0.75078 0.0256,1.50636 -0.004,2.25874 -0.13687,0.0512 -0.28414,0.0824 -0.4042,0.17128 0.62591,0.0881 1.25743,-0.0248 1.88495,0.0312 0.27934,0.036 0.55948,-0.0152 0.83882,-0.0176 0.0608,-0.28735 0.15288,-0.57229 0.15608,-0.86844 -0.23452,0.1889 -0.34817,0.50906 -0.64512,0.62832 -0.31857,0.13287 -0.72277,0.21451 -1.04053,0.048 -0.0344,-0.37299 -0.007,-0.74837 -0.0128,-1.12216 0.1873,0.007 0.37139,0.0432 0.54348,0.11766 0.10725,0.17208 0.17849,0.36098 0.23452,0.55548 0.0344,-0.0704 0.0992,-0.13367 0.0904,-0.21851 0.006,-0.3906 -0.004,-0.7812 0.003,-1.1718 -0.0304,-0.002 -0.0912,-0.008 -0.12086,-0.0112 -0.056,0.16168 -0.0736,0.35538 -0.22011,0.46663 -0.15208,0.10726 -0.34577,0.11286 -0.52346,0.13767 -0.007,-0.37539 -0.0344,-0.75398 0.02,-1.12696 0.34417,-0.0112 0.71316,-0.0416 1.03172,0.11845 0.21611,0.0993 0.26733,0.34898 0.34017,0.55148 l 0.10725,-0.0568 c 0.009,-0.26013 0.04,-0.52906 -0.0408,-0.78039 -0.85403,0.02 -1.70886,0.003 -2.56289,0.008 -0.13207,0.20571 0.32576,0.0672 0.32416,0.28095 m 11.5114103,-0.17609 c 0.27614,0.02 0.32097,0.31856 0.41381,0.52186 0.29615,0.72277 0.57709,1.45113 0.88525,2.1683 0.0304,-0.008 0.0905,-0.0232 0.12086,-0.0312 0.28334,-0.61951 0.55228,-1.24703 0.85403,-1.85854 0.26814,0.63472 0.51786,1.27665 0.79881,1.90576 0.032,-0.0248 0.0944,-0.0752 0.12566,-0.10005 0.31056,-0.77159 0.5931,-1.55438 0.89885,-2.32837 0.0576,-0.17289 0.23692,-0.24733 0.35538,-0.37059 -0.27534,-0.0176 -0.55148,-0.0136 -0.82682,-0.007 0.0376,0.0912 0.10726,0.14487 0.20891,0.15928 0.02,0.0416 0.0608,0.12486 0.0808,0.16648 -0.18169,0.43302 -0.32816,0.87965 -0.49065,1.31907 -0.0176,0.0592 -0.0544,0.10325 -0.10965,0.13206 -0.15608,-0.54187 -0.42262,-1.05093 -0.52267,-1.60801 0.12727,-0.0416 0.25293,-0.0856 0.3786,-0.13206 -0.48665,-0.0856 -0.9909,-0.0312 -1.48315,-0.028 0.0632,0.15128 0.28254,0.10165 0.33537,0.25533 0.0576,0.12486 0.12006,0.25373 0.13206,0.393 -0.16808,0.405 -0.33537,0.81161 -0.52026,1.21021 -0.15448,-0.37539 -0.28494,-0.76038 -0.43222,-1.13817 -0.0672,-0.1833 -0.15528,-0.36579 -0.14967,-0.56509 0.11285,-0.0296 0.22811,-0.056 0.34017,-0.0888 -0.43542,-0.16969 -0.92447,-0.0352 -1.3823,-0.0832 -0.002,0.0264 -0.008,0.0808 -0.0112,0.10806 m 8.19294,-0.096 c 0.0648,0.13927 0.22812,0.11926 0.35058,0.15848 0.13447,0.33697 0.0656,0.70355 0.0808,1.05573 -0.0136,0.4002 0.0296,0.80521 -0.0224,1.20221 -0.002,0.1985 -0.22412,0.21051 -0.36979,0.22571 v 0.0728 c 0.0744,0.006 0.22331,0.0152 0.29775,0.0208 0.42902,-0.02 0.85963,0.0112 1.28785,-0.0352 -0.14007,-0.10485 -0.38419,-0.068 -0.43462,-0.27133 -0.0224,-0.32177 -0.006,-0.64353 -0.009,-0.96529 0.14487,-0.0184 0.2017,0.12486 0.28174,0.21211 0.21611,0.29374 0.44022,0.58189 0.65633,0.87564 0.06,0.0672 0.10565,0.18329 0.21771,0.16888 0.30255,0.007 0.5939,0.0176 0.89165,-0.01 -0.45623,-0.35298 -0.75158,-0.86364 -1.13177,-1.29105 0.2089,-0.0865 0.44342,-0.15368 0.5915,-0.33697 0.14167,-0.16969 0.13447,-0.41862 0.0688,-0.61712 -0.2065,-0.37298 -0.67634,-0.42741 -1.05653,-0.46583 -0.56669,-0.0152 -1.13417,-0.012 -1.70086,0 m 3.31047,0.0632 c 0.16008,0.0568 0.45063,0.048 0.43942,0.27774 0.002,0.72837 0.0152,1.45834 -0.01,2.18671 -0.11606,0.048 -0.23532,0.088 -0.35618,0.12006 l 0.003,0.072 c 0.51546,-0.007 1.03252,0.0232 1.54718,-0.012 -0.10885,-0.10246 -0.26893,-0.10966 -0.3946,-0.1833 -0.0472,-0.33937 -0.0472,-0.69155 -0.002,-1.03172 0.0288,-0.002 0.0856,-0.005 0.11366,-0.006 0.30495,0.37619 0.71956,0.67394 0.94848,1.10456 -0.14007,0.0232 -0.28094,0.0432 -0.41941,0.0696 0.22571,0.16569 0.50345,0.0232 0.75718,0.0624 0.29134,0.036 0.58509,0.0336 0.87484,-0.02 -0.48665,-0.25372 -0.76599,-0.75398 -1.15498,-1.12296 -0.15368,-0.20331 -0.41141,-0.35378 -0.49385,-0.5955 0.42901,-0.41381 0.89965,-0.82842 1.50075,-0.95409 -0.28814,-0.0728 -0.58829,-0.0264 -0.88204,-0.0392 -0.18649,0.008 -0.3914,-0.036 -0.55388,0.0784 0.14327,0.0376 0.28895,0.0568 0.43622,0.0776 -0.006,0.084 0.0104,0.1825 -0.076,0.23452 -0.34978,0.32016 -0.70756,0.63232 -1.07174,0.93567 0.003,-0.36258 -0.0368,-0.73076 0.0256,-1.09015 0.0905,-0.13687 0.31776,-0.06 0.37779,-0.23051 -0.46583,-0.007 -0.93167,-0.01 -1.3967,-0.002 -0.0536,0.0176 -0.15928,0.0512 -0.21291,0.068 z"
       id="path99"
       inkscape:connector-curvature="0"
       style="opacity:1;fill:#000000;stroke-width:0.0800404" />
    <path
       d="m 25.052834,254.24851 c 0.34497,-0.0408 0.63232,0.23212 0.72036,0.54828 0.15928,0.51946 0.17529,1.11016 -0.0448,1.61361 -0.1961,0.45543 -0.86043,0.55228 -1.1886,0.1889 -0.34257,-0.40981 -0.28494,-0.9829 -0.25373,-1.47915 0.0416,-0.4026 0.30095,-0.89405 0.76679,-0.87164 z"
       id="path101"
       inkscape:connector-curvature="0"
       style="opacity:1;fill:#000000;stroke-width:0.0800404" />
    <path
       d="m 28.149594,254.29893 c 0.23532,-0.01 0.51626,-0.0464 0.69796,0.13927 0.2161,0.27374 0.17688,0.68035 -0.032,0.94768 -0.21931,0.0736 -0.44823,0.11046 -0.67874,0.11046 0.003,-0.3994 -0.012,-0.7988 0.0128,-1.19741 z"
       id="path103"
       inkscape:connector-curvature="0"
       style="opacity:1;fill:#000000;stroke-width:0.0800404" />
    <path
       d="m 10.736804,255.94376 c 0.11766,-0.33616 0.25933,-0.66433 0.42262,-0.98049 0.15287,0.32416 0.32336,0.64112 0.44022,0.9813 -0.28735,-0.002 -0.57549,-0.002 -0.86284,-8.1e-4 z"
       id="path105"
       inkscape:connector-curvature="0"
       style="opacity:1;fill:#000000;stroke-width:0.0800404" />
  </g>
</svg>
