<?xml version="1.0" encoding="UTF-8" standalone="no"?>
<svg
   xmlns:dc="http://purl.org/dc/elements/1.1/"
   xmlns:cc="http://creativecommons.org/ns#"
   xmlns:rdf="http://www.w3.org/1999/02/22-rdf-syntax-ns#"
   xmlns:svg="http://www.w3.org/2000/svg"
   xmlns="http://www.w3.org/2000/svg"
   xmlns:sodipodi="http://sodipodi.sourceforge.net/DTD/sodipodi-0.dtd"
   xmlns:inkscape="http://www.inkscape.org/namespaces/inkscape"
   width="64"
   height="64"
   viewBox="0 0 48 48"
   version="1.1"
   id="svg994"
   sodipodi:docname="wr.svg"
   inkscape:version="0.92.3 (2405546, 2018-03-11)">
  <metadata
     id="metadata1000">
    <rdf:RDF>
      <cc:Work
         rdf:about="">
        <dc:format>image/svg+xml</dc:format>
        <dc:type
           rdf:resource="http://purl.org/dc/dcmitype/StillImage" />
        <dc:title></dc:title>
      </cc:Work>
    </rdf:RDF>
  </metadata>
  <defs
     id="defs998" />
  <sodipodi:namedview
     pagecolor="#ffffff"
     bordercolor="#666666"
     borderopacity="1"
     objecttolerance="10"
     gridtolerance="10"
     guidetolerance="10"
     inkscape:pageopacity="0"
     inkscape:pageshadow="2"
     inkscape:window-width="1920"
     inkscape:window-height="1017"
     id="namedview996"
     showgrid="false"
     units="px"
     inkscape:pagecheckerboard="true"
     inkscape:zoom="0.37476659"
     inkscape:cx="656.97909"
     inkscape:cy="198.21803"
     inkscape:window-x="-8"
     inkscape:window-y="-8"
     inkscape:window-maximized="1"
     inkscape:current-layer="svg994" />
  <g
     id="#e25518ff"
     transform="scale(0.08)">
    <path
       d="m 287.62,0 h 24.55 c 21.54,1.28 43.03,4.15 63.9,9.7 52.38,13.65 100.84,41.88 138.54,80.72 25.02,25.48 45.36,55.54 59.82,88.2 16.14,36.32 24.77,75.91 25.57,115.64 v 11.44 c -0.34,17.74 -2.31,35.45 -5.72,52.86 -1.08,0.04 -2.15,0.07 -3.22,0.11 -0.59,0.99 -1.17,1.98 -1.74,2.97 -0.37,-0.62 -0.73,-1.24 -1.08,-1.85 9.22,-44.15 8.18,-90.42 -3.05,-134.1 -8.48,-33.05 -22.79,-64.6 -42.06,-92.76 C 520.5,99.81 491.06,71.36 457.19,49.86 407.46,18.15 348.02,2.08 289.08,4.31 241.41,5.73 194.2,19.21 152.82,42.9 120.46,61.46 91.58,86.12 68.36,115.33 36.67,154.93 15.45,202.85 7.65,252.97 c -3.61,21.49 -4,43.36 -3.1,65.09 1.15,16.43 3.44,32.78 7.23,48.81 -0.27,0.4 -0.8,1.2 -1.07,1.6 C 9.64,368.03 8.58,367.54 7.52,367.08 2.8,345.97 0.11,324.38 0,302.74 v -8.42 C 0.33,276.73 2.26,259.18 5.62,241.92 15.6,190.65 39.43,142.2 73.82,102.91 109.89,61.43 157.52,30.11 210.01,13.71 235.13,5.69 261.34,1.52 287.62,0 Z"
       id="path506"
       inkscape:connector-curvature="0"
       style="opacity:1;fill:#e25518" />
  </g>
  <g
     id="#131414ff"
     transform="scale(0.08)">
    <path
       d="M 152.82,42.9 C 194.2,19.21 241.41,5.73 289.08,4.31 c 58.94,-2.23 118.38,13.84 168.11,45.55 33.87,21.5 63.31,49.95 85.94,83.07 19.27,28.16 33.58,59.71 42.06,92.76 11.23,43.68 12.27,89.95 3.05,134.1 -7.78,36.46 -22.25,71.53 -42.97,102.55 -28.15,42.57 -67.57,77.54 -113.11,100.56 -36.35,18.25 -76.46,29.06 -117.11,31.07 -52.51,2.96 -105.68,-8.58 -152.3,-32.9 C 134.2,546.09 108.06,526.49 85.84,503.11 49.52,465.41 23.88,417.76 11.78,366.87 7.99,350.84 5.7,334.49 4.55,318.06 3.65,296.33 4.04,274.46 7.65,252.97 15.45,202.85 36.67,154.93 68.36,115.33 91.58,86.12 120.46,61.46 152.82,42.9 M 278.84,16.94 c -26.16,2.04 -52.09,7.45 -76.73,16.52 -43.26,15.7 -82.49,42.23 -113.42,76.3 -26.99,29.74 -47.72,65.17 -60.08,103.4 -23.42,71.18 -17.18,151.49 17.18,218.11 21.62,42.26 53.91,79.01 93.13,105.76 34.97,24.05 75.43,40.03 117.38,46.45 40.13,6.13 81.58,3.76 120.67,-7.22 40.93,-11.39 79.15,-32.23 111.06,-60.26 29.89,-26.18 54.22,-58.68 70.9,-94.75 31.21,-66.82 34.78,-145.82 9.9,-215.22 C 554.7,166.08 531.4,129.45 501.42,99.53 461.29,59.42 408.99,31.55 353.16,21.22 328.72,16.44 303.66,15.39 278.84,16.94 Z"
       id="path509"
       inkscape:connector-curvature="0"
       style="opacity:1;fill:#131414" />
    <path
       d="m 277.51,23.88 c 27.23,-2.12 54.8,-0.44 81.52,5.38 53.2,11.37 102.77,38.98 140.57,78.09 31.19,31.88 54.47,71.46 67.23,114.19 10.54,35.32 14.02,72.73 10.1,109.37 -4.01,38.69 -16.31,76.5 -35.87,110.13 -20.14,34.8 -47.95,65.13 -80.83,88.28 -33.05,23.38 -71.3,39.35 -111.15,46.41 -30.01,5.34 -60.89,5.73 -91.02,1.2 C 217.74,570.88 178.82,555.77 144.99,533.01 107.13,507.66 75.6,472.91 54.16,432.69 28.85,385.69 17.83,331.22 22.4,278.07 27.74,209.4 60.19,143.44 110.93,96.93 156.17,54.81 215.86,28.54 277.51,23.88 m 16.62,25.05 c 0.97,2.9 3.69,4.52 6.31,5.72 2.54,0.06 5.3,-0.1 7.26,-1.94 4.1,-3.01 4.13,-9.36 0.95,-13.05 -2.02,-1.26 -4.16,-2.71 -6.67,-2.39 -5.67,-0.14 -10.15,6.45 -7.85,11.66 m 0.31,20.72 c -12.93,0.59 -25.87,1.58 -38.57,4.18 -38.99,7.4 -75.89,25.23 -106.09,50.95 -23.68,20.16 -43.37,45.02 -57.28,72.85 -22.59,44.66 -29.95,96.76 -20.81,145.94 9.97,55.88 41.64,107.42 86.66,141.92 33.82,26.15 75,42.74 117.56,46.94 36.22,3.76 73.36,-1 107.35,-14.15 34.55,-13.29 65.82,-35.01 90.33,-62.75 27.84,-31.29 46.98,-70.28 54.5,-111.49 4.36,-23.73 5.1,-48.11 1.96,-72.04 -5.19,-41.94 -22.44,-82.23 -48.86,-115.19 -33.38,-41.88 -81.6,-71.74 -134.15,-82.37 -17.27,-3.64 -34.97,-5.03 -52.6,-4.79 m -178.57,41.68 c -2.73,1.94 -4.22,5.27 -3.65,8.61 0.25,4.2 4.17,6.98 8,7.74 2.58,-0.56 5.42,-1.17 7.16,-3.36 2.97,-3.38 2.69,-9.01 -0.73,-11.97 -2.78,-2.93 -7.4,-2.63 -10.78,-1.02 m 361.04,4.75 c -3.61,2.59 -3.83,7.52 -2.28,11.34 3,4.78 10.45,5.68 14.18,1.27 2.41,-2.3 2.21,-5.81 1.86,-8.84 -2.18,-5.22 -9.29,-7.51 -13.76,-3.77 M 41.18,290.26 c -2.57,0.64 -4.25,2.78 -5.73,4.81 -1.84,4.68 0.78,10.45 5.67,11.86 2.77,1.15 5.63,-0.04 8.07,-1.39 1.46,-1.95 3.24,-3.99 3.15,-6.59 0.52,-5.69 -5.77,-10.65 -11.16,-8.69 m 506.24,9.79 c -2.24,4.38 -0.73,10.42 3.99,12.41 3.77,2.16 8.24,0.35 10.97,-2.59 0.77,-1.89 1.54,-3.87 1.32,-5.95 -0.01,-5.21 -5.81,-9.27 -10.73,-7.73 -2.31,0.47 -3.89,2.35 -5.55,3.86 M 113.2,472.17 c -4.94,1.82 -6.83,7.95 -4.56,12.54 2.67,4.22 8.72,5.55 12.84,2.67 3.4,-2.31 4.41,-6.86 3.09,-10.61 -2.23,-3.84 -7,-6.62 -11.37,-4.6 m 361,4.48 c -4.33,2.39 -6.33,8.32 -3.45,12.57 2.23,3.96 7.38,4.95 11.41,3.37 3.42,-2.33 5.87,-6.72 4.19,-10.84 -1.53,-4.99 -7.57,-7 -12.15,-5.1 m -186.21,83.32 c 0.66,2.63 3.02,4.19 5.04,5.73 3.29,0.83 7.07,0.29 9.51,-2.24 3.26,-3.33 3.01,-9.05 -0.02,-12.44 -2.02,-1.15 -4.09,-2.63 -6.54,-2.37 -5.51,0.02 -9.93,6.07 -7.99,11.32 z"
       id="path511"
       inkscape:connector-curvature="0"
       style="opacity:1;fill:#131414" />
    <path
       d="m 288.15,72.23 c 41.98,-2.33 84.55,7.3 121.44,27.48 41.26,22.35 75.36,57.68 96.17,99.75 18.41,36.75 26.47,78.56 23.28,119.52 -2.71,38.43 -15.56,76.05 -36.66,108.27 -22.33,34.2 -53.91,62.33 -90.55,80.4 -32.39,16.18 -68.69,24.26 -104.86,23.78 C 255.27,531 213.76,518.88 178.41,496.72 133.32,468.72 98.48,424.64 81.84,374.22 63.34,318.9 66.89,256.5 91.99,203.8 c 15.75,-33.59 39.89,-63.13 69.46,-85.51 36.35,-27.57 81.1,-44.01 126.7,-46.06 m -43.94,14.33 c -2.08,0.48 -4.2,0.85 -6.16,1.7 -10.79,2.88 -21.18,7.14 -31.3,11.83 -1.35,0.63 -2.68,1.3 -4,1.98 -3.9,1.93 -7.77,3.91 -11.47,6.19 l -0.22,-0.05 c -4.55,2.47 -8.74,5.51 -13.28,8 l 0.02,0.02 c -0.33,0.43 -0.98,1.29 -1.3,1.72 -1.33,0.4 -2.58,1.01 -3.67,1.87 -8.19,6.05 -16.27,12.32 -23.44,19.58 l -0.3,-0.06 c -5.94,5.67 -11.64,11.63 -16.77,18.05 l -0.26,-0.04 c -4.09,4.75 -7.63,9.94 -11.77,14.64 l 0.1,0.28 c -5.41,7.77 -10.57,15.88 -14.03,24.71 -0.37,0.27 -1.12,0.8 -1.49,1.06 -4.53,8.02 -8.02,16.6 -11.34,25.18 -1.79,4.81 -3.36,9.71 -4.68,14.67 -2.13,5.64 -3.02,11.65 -4.53,17.47 -1.05,5.53 -2.18,11.07 -2.36,16.71 -1.21,6.32 -1.98,12.82 -1.74,19.25 -1.63,29.49 3.75,59.12 13.69,86.85 3.2,7.29 6.27,14.64 9.85,21.77 1.51,2.8 3,5.62 4.27,8.55 2.2,3.59 4.7,7 6.8,10.66 14.41,22.67 33.21,42.39 54.61,58.58 1.78,1.19 3.59,2.36 5.4,3.53 3.29,2.81 7.06,4.96 10.75,7.2 8.53,5.03 17.21,9.9 26.36,13.72 0.62,0.25 1.84,0.76 2.45,1.01 l -0.14,0.31 c 18.27,7.15 37.18,12.87 56.7,15.3 14.53,1.67 29.25,2.87 43.86,1.39 1.25,-0.09 2.51,-0.17 3.77,-0.25 13.52,-0.88 26.95,-3.25 40.01,-6.85 0.51,-0.29 1.52,-0.88 2.03,-1.17 5.99,-0.6 11.67,-2.86 17.24,-5.03 13.72,-5 26.69,-11.84 39.3,-19.16 l 0.04,-0.24 c 3.27,-2.06 6.81,-3.85 9.58,-6.58 5.68,-3.14 10.46,-7.6 15.55,-11.55 5.68,-4.3 10.36,-9.69 15.5,-14.57 11.49,-11.01 21.19,-23.75 29.72,-37.14 1.51,-2.72 4.32,-4.92 4.78,-8.1 3.16,-4.77 5.6,-9.97 8.06,-15.13 1.4,-3.24 3.71,-6.43 3.94,-9.96 4.1,-7.94 6.83,-16.54 9.12,-25.15 l 0.49,-0.18 c 1.04,-3.61 1.34,-7.37 2.23,-11.01 3.81,-16.1 5.15,-32.67 5.48,-49.16 -0.98,-12.11 -0.63,-24.61 -4.05,-36.33 0.47,-2.49 -0.11,-5.02 -0.54,-7.47 -1.62,-6.05 -2.65,-12.25 -4.67,-18.18 -1.27,-4.16 -2.42,-8.38 -4.3,-12.31 -0.12,-0.58 -0.36,-1.74 -0.48,-2.33 -2.56,-5.61 -4.27,-11.63 -7.54,-16.91 l 0.24,-0.49 c -0.37,-0.61 -1.13,-1.81 -1.51,-2.41 -1.59,-3.41 -3.31,-6.76 -5.1,-10.07 l -0.31,0.04 c -2.92,-5.84 -6.33,-11.47 -10.19,-16.73 l -0.67,-1.57 c -2.09,-2.44 -3.92,-5.08 -5.79,-7.68 l -0.3,-0.02 c -3.97,-6.1 -9.46,-11.03 -13.42,-17.1 l -0.31,0.33 c -6.46,-6.51 -12.93,-13.13 -20.07,-18.94 -3.2,-2.55 -6.34,-5.19 -9.64,-7.61 l -0.2,0.02 c -9.47,-7.54 -19.97,-13.66 -30.52,-19.53 -5.59,-2.28 -10.82,-5.55 -16.57,-7.37 -14.42,-6.54 -29.86,-10.57 -45.34,-13.75 -0.57,-0.02 -1.72,-0.07 -2.3,-0.09 -10.54,-2.21 -21.33,-2.87 -32.07,-3.25 -20.8,-0.43 -41.75,1.76 -61.8,7.35 z"
       id="path513"
       inkscape:connector-curvature="0"
       style="opacity:1;fill:#131414" />
  </g>
  <g
     id="#ffffffff"
     transform="scale(0.08)">
    <path
       d="m 278.84,16.94 c 24.82,-1.55 49.88,-0.5 74.32,4.28 55.83,10.33 108.13,38.2 148.26,78.31 29.98,29.92 53.28,66.55 67.41,106.5 24.88,69.4 21.31,148.4 -9.9,215.22 -16.68,36.07 -41.01,68.57 -70.9,94.75 -31.91,28.03 -70.13,48.87 -111.06,60.26 -39.09,10.98 -80.54,13.35 -120.67,7.22 -41.95,-6.42 -82.41,-22.4 -117.38,-46.45 C 99.7,510.28 67.41,473.53 45.79,431.27 11.43,364.65 5.19,284.34 28.61,213.16 40.97,174.93 61.7,139.5 88.69,109.76 c 30.93,-34.07 70.16,-60.6 113.42,-76.3 24.64,-9.07 50.57,-14.48 76.73,-16.52 m -1.33,6.94 C 215.86,28.54 156.17,54.81 110.93,96.93 60.19,143.44 27.74,209.4 22.4,278.07 c -4.57,53.15 6.45,107.62 31.76,154.62 21.44,40.22 52.97,74.97 90.83,100.32 33.83,22.76 72.75,37.87 113.07,43.92 30.13,4.53 61.01,4.14 91.02,-1.2 39.85,-7.06 78.1,-23.03 111.15,-46.41 32.88,-23.15 60.69,-53.48 80.83,-88.28 19.56,-33.63 31.86,-71.44 35.87,-110.13 3.92,-36.64 0.44,-74.05 -10.1,-109.37 C 554.07,178.81 530.79,139.23 499.6,107.35 461.8,68.24 412.23,40.63 359.03,29.26 332.31,23.44 304.74,21.76 277.51,23.88 Z"
       id="path516"
       inkscape:connector-curvature="0"
       style="opacity:1;fill:#ffffff" />
    <path
       d="m 294.44,69.65 c 17.63,-0.24 35.33,1.15 52.6,4.79 52.55,10.63 100.77,40.49 134.15,82.37 26.42,32.96 43.67,73.25 48.86,115.19 3.14,23.93 2.4,48.31 -1.96,72.04 -7.52,41.21 -26.66,80.2 -54.5,111.49 -24.51,27.74 -55.78,49.46 -90.33,62.75 -33.99,13.15 -71.13,17.91 -107.35,14.15 -42.56,-4.2 -83.74,-20.79 -117.56,-46.94 C 113.33,450.99 81.66,399.45 71.69,343.57 62.55,294.39 69.91,242.29 92.5,197.63 c 13.91,-27.83 33.6,-52.69 57.28,-72.85 30.2,-25.72 67.1,-43.55 106.09,-50.95 12.7,-2.6 25.64,-3.59 38.57,-4.18 m -6.29,2.58 c -45.6,2.05 -90.35,18.49 -126.7,46.06 -29.57,22.38 -53.71,51.92 -69.46,85.51 -25.1,52.7 -28.65,115.1 -10.15,170.42 16.64,50.42 51.48,94.5 96.57,122.5 35.35,22.16 76.86,34.28 118.56,34.71 36.17,0.48 72.47,-7.6 104.86,-23.78 36.64,-18.07 68.22,-46.2 90.55,-80.4 21.1,-32.22 33.95,-69.84 36.66,-108.27 3.19,-40.96 -4.87,-82.77 -23.28,-119.52 C 484.95,157.39 450.85,122.06 409.59,99.71 372.7,79.53 330.13,69.9 288.15,72.23 Z"
       id="path518"
       inkscape:connector-curvature="0"
       style="opacity:1;fill:#ffffff" />
    <path
       d="m 217.39,225.96 c 0.9,-18 6.39,-35.92 16.63,-50.83 2.61,1.87 5.19,3.79 7.77,5.71 -2.28,3.46 -4.14,7.17 -6.13,10.81 -1.87,0.5 -3.84,-0.19 -5.73,-0.22 0.87,2.58 3.7,5.15 2.36,8.05 -5.62,14.01 -7.39,29.89 -3.01,44.48 2.32,8.13 6.49,15.65 11.94,22.09 -0.24,2.85 -1.39,5.58 -2.1,8.35 -0.19,0.09 -0.56,0.29 -0.75,0.39 -13.16,-12.53 -21.51,-30.51 -20.98,-48.83 z"
       id="path520"
       inkscape:connector-curvature="0"
       style="opacity:1;fill:#ffffff" />
    <path
       d="m 354.15,180.62 c 2.64,-1.74 5.12,-3.69 7.74,-5.44 8.8,13 14.28,28.25 15.89,43.85 3.11,20.59 -5.48,42.24 -20.9,55.99 -0.89,-2.99 -1.77,-5.98 -2.58,-8.99 9.96,-11.08 14.92,-26.23 14.53,-41.03 -0.12,-9.33 -2.44,-18.51 -5.89,-27.14 0.87,-2.19 1.87,-4.33 2.94,-6.43 -1.95,0.18 -3.89,0.34 -5.83,0.4 -1.51,-3.97 -4.12,-7.38 -5.9,-11.21 z"
       id="path522"
       inkscape:connector-curvature="0"
       style="opacity:1;fill:#ffffff" />
    <path
       d="m 167.06,281.94 c 7.68,-11.59 14.79,-23.57 22.82,-34.91 3.72,15.24 7.82,30.4 11.95,45.54 3.84,-10.54 7.81,-21.04 12.04,-31.43 3.35,9.12 10.32,16.24 17.6,22.39 -13.12,32.27 -25.3,64.94 -38.46,97.19 -0.94,-0.68 -1.5,-1.58 -1.69,-2.69 -4.8,-21.37 -9.11,-42.85 -14.16,-64.16 -13.21,22.2 -26.66,44.26 -39.99,66.38 -0.43,0 -1.28,-0.01 -1.71,-0.01 -0.36,-19.07 0.13,-38.16 -0.64,-57.21 -0.09,-21.9 -0.21,-43.8 -0.28,-65.7 -2.47,-2.57 -4.98,-5.11 -7.43,-7.7 14.08,-0.33 28.16,-0.39 42.23,-0.41 -3.39,2.53 -6.7,5.16 -10.09,7.7 0.24,10.01 0.49,20.03 0.51,30.05 -0.06,1.98 0.3,3.93 0.74,5.86 1.68,-3.92 4.33,-7.29 6.56,-10.89 m 18.02,32.19 c -1.4,0.67 -4.39,0.96 -3.49,3.2 3.98,16.9 7.99,33.81 11.93,50.72 1.5,-1.88 2.39,-4.13 3.16,-6.38 6.47,-16.55 12.96,-33.09 19.33,-49.67 1.22,-2.86 2.41,-5.74 3.13,-8.78 -11.54,3 -22.65,7.46 -34.06,10.91 m -33.45,12.51 c -3.77,1.99 -7.99,3.11 -11.49,5.57 -0.96,4.54 -0.25,9.24 -0.43,13.86 0.19,7.74 -0.34,15.51 0.3,23.24 2.69,-2.93 4.21,-6.65 6.25,-10.01 5.77,-9.9 11.55,-19.8 17.28,-29.73 2.06,-3.56 4.64,-6.88 5.78,-10.9 -6.32,1.57 -11.78,5.36 -17.69,7.97 z"
       id="path524"
       inkscape:connector-curvature="0"
       style="opacity:1;fill:#ffffff" />
    <path
       d="m 388.06,250.29 c 4.62,-0.81 9.32,-0.33 13.98,-0.5 7.44,0.08 15,-0.5 22.34,1.07 5.22,1.63 10.61,3.31 14.92,6.82 8.03,6.23 14.15,15.98 13.42,26.45 -0.16,11.18 -8.09,20.81 -17.6,25.91 16.07,23.53 32.88,46.56 48.77,70.21 -12.46,0.08 -24.92,0.02 -37.38,0.08 -0.38,-2.98 -0.31,-6.26 -2.21,-8.76 -12.94,-19.55 -25.66,-39.26 -38.6,-58.8 -0.16,2.07 0.15,4.13 0.5,6.18 2.27,17.73 4.37,35.5 6.65,53.23 2.38,3.22 6.04,5.29 8.88,8.12 -8.72,0.11 -17.44,0.03 -26.15,0.08 -3.9,-13.37 -9.64,-26.1 -14.86,-38.98 -2.94,-22.08 -5.2,-44.27 -8.13,-66.36 7.24,-6.74 12.22,-15.48 15.47,-24.75 m 12.15,14.5 c 1.02,11.98 2.76,23.91 4.32,35.84 5.71,0.02 12.13,0.79 16.89,-3.12 9.53,-6.85 7.34,-23 -2.38,-28.63 -5.53,-3.71 -12.4,-3.95 -18.83,-4.09 m -20.93,40.14 c 1.69,12.22 2.92,24.54 5.24,36.66 4.6,11.64 9.32,23.26 14.34,34.72 4.17,1.29 8.68,0.77 13.01,0.88 -4.22,-3.08 -3.41,-8.64 -4.11,-13.19 -1.84,-14.78 -3.38,-29.59 -5.25,-44.36 -4.34,-3.12 -8.93,-5.85 -13.33,-8.86 -3.24,-2.05 -6.22,-4.62 -9.9,-5.85 m 43.61,27.03 c 1.49,3.65 3.99,6.74 6.11,10.03 7.26,11.46 15.06,22.64 21.97,34.27 8.7,0.21 17.45,0.37 26.14,-0.15 -2.99,-5.54 -7.12,-10.34 -10.63,-15.54 -2.81,-3.75 -4.95,-8.45 -9.47,-10.46 -11.5,-5.8 -22.43,-12.72 -34.12,-18.15 z"
       id="path526"
       inkscape:connector-curvature="0"
       style="opacity:1;fill:#ffffff" />
  </g>
  <g
     id="#5d5e61ff"
     transform="scale(0.08)">
    <path
       d="m 294.13,48.93 c -2.3,-5.21 2.18,-11.8 7.85,-11.66 2.51,-0.32 4.65,1.13 6.67,2.39 -2.88,4.92 -6.01,9.72 -8.21,14.99 -2.62,-1.2 -5.34,-2.82 -6.31,-5.72 z"
       id="path529"
       inkscape:connector-curvature="0"
       style="opacity:1;fill:#5d5e61" />
    <path
       d="m 547.42,300.05 c 1.66,-1.51 3.24,-3.39 5.55,-3.86 4.92,-1.54 10.72,2.52 10.73,7.73 0.22,2.08 -0.55,4.06 -1.32,5.95 -4.46,-0.4 -8.11,-3.16 -11.75,-5.49 -1.7,-0.9 -2.41,-2.72 -3.21,-4.33 z"
       id="path531"
       inkscape:connector-curvature="0"
       style="opacity:1;fill:#5d5e61" />
  </g>
  <g
     id="#4f5052ff"
     transform="scale(0.08)">
    <path
       d="m 308.65,39.66 c 3.18,3.69 3.15,10.04 -0.95,13.05 -1.96,1.84 -4.72,2 -7.26,1.94 2.2,-5.27 5.33,-10.07 8.21,-14.99 z"
       id="path534"
       inkscape:connector-curvature="0"
       style="opacity:1;fill:#4f5052" />
    <path
       d="m 490.67,119.85 c 0.35,3.03 0.55,6.54 -1.86,8.84 -3.73,4.41 -11.18,3.51 -14.18,-1.27 4.88,-1.55 9.87,-2.75 14.84,-3.98 0.39,-1.2 0.79,-2.4 1.2,-3.59 z"
       id="path536"
       inkscape:connector-curvature="0"
       style="opacity:1;fill:#4f5052" />
    <path
       d="m 551.41,312.46 c -4.72,-1.99 -6.23,-8.03 -3.99,-12.41 0.8,1.61 1.51,3.43 3.21,4.33 3.64,2.33 7.29,5.09 11.75,5.49 -2.73,2.94 -7.2,4.75 -10.97,2.59 z"
       id="path538"
       inkscape:connector-curvature="0"
       style="opacity:1;fill:#4f5052" />
    <path
       d="m 470.75,489.22 c -2.88,-4.25 -0.88,-10.18 3.45,-12.57 0.71,5 2.17,9.83 3.55,14.68 1.46,0.41 2.93,0.82 4.41,1.26 -4.03,1.58 -9.18,0.59 -11.41,-3.37 z"
       id="path540"
       inkscape:connector-curvature="0"
       style="opacity:1;fill:#4f5052" />
  </g>
  <g
     id="#d94e18ff"
     transform="scale(0.08)">
    <path
       d="m 244.21,86.56 c 20.05,-5.59 41,-7.78 61.8,-7.35 10.74,0.38 21.53,1.04 32.07,3.25 -1.15,2.78 -2.18,5.6 -3.45,8.33 -4.49,-0.75 -9.04,-0.75 -13.58,-0.62 -23.66,0.04 -47.33,-0.05 -70.99,0.05 -2.28,0 -4.49,-0.65 -6.66,-1.27 0.2,-0.6 0.6,-1.79 0.81,-2.39 z"
       id="path543"
       inkscape:connector-curvature="0"
       style="opacity:1;fill:#d94e18" />
  </g>
  <g
     id="#ff8b36ff"
     transform="scale(0.08)">
    <path
       d="m 338.08,82.46 c 0.58,0.02 1.73,0.07 2.3,0.09 -3.1,8.24 -6.78,16.24 -9.99,24.43 -2.86,7.92 -6.74,15.4 -9.8,23.23 -3.52,8.69 -7.51,17.19 -11.1,25.86 -2.62,6.35 -5.82,12.46 -8.14,18.93 l -0.21,0.57 c -0.28,-0.81 -0.84,-2.43 -1.12,-3.24 2.99,-6.72 5.53,-13.62 8.57,-20.31 2.82,-6.11 5.24,-12.4 7.95,-18.56 2.4,-5.48 4.54,-11.06 6.97,-16.53 1.46,-3.34 2.82,-6.72 4.25,-10.07 2.38,-5.31 4.4,-10.79 6.87,-16.07 1.27,-2.73 2.3,-5.55 3.45,-8.33 z"
       id="path546"
       inkscape:connector-curvature="0"
       style="opacity:1;fill:#ff8b36" />
  </g>
  <g
     id="#c94a19ff"
     transform="scale(0.08)">
    <path
       d="m 340.38,82.55 c 15.48,3.18 30.92,7.21 45.34,13.75 -3.67,0.77 -7.42,0.99 -11.15,0.58 0.04,-0.51 0.12,-1.54 0.16,-2.05 -2.1,4.27 -3.89,8.68 -6.04,12.94 -9.89,0.5 -19.78,0.35 -29.68,0.51 -2.93,0.05 -5.8,-0.58 -8.62,-1.3 3.21,-8.19 6.89,-16.19 9.99,-24.43 z"
       id="path549"
       inkscape:connector-curvature="0"
       style="opacity:1;fill:#c94a19" />
  </g>
  <g
     id="#ff8338ff"
     transform="scale(0.08)">
    <path
       d="m 238.05,88.26 c 1.96,-0.85 4.08,-1.22 6.16,-1.7 -0.21,0.6 -0.61,1.79 -0.81,2.39 -1.82,6.28 -6.49,11.3 -7.76,17.8 -1.64,2.45 -3.15,5.02 -3.96,7.89 -1.75,5.26 -4.07,10.3 -6.23,15.41 -1.32,2.97 -2.68,5.93 -3.98,8.91 -3.07,6.9 -6.12,13.82 -8.91,20.84 -1.73,4.4 -3.78,8.67 -5.26,13.16 -1.15,0.18 -2.31,0.36 -3.45,0.54 -0.27,-0.33 -0.81,-0.99 -1.09,-1.32 2.17,-4.41 3.82,-9.04 5.85,-13.51 2.39,-5.62 4.74,-11.25 7.21,-16.83 1.3,-2.94 2.61,-5.88 3.9,-8.82 3.28,-7.39 6.36,-14.87 9.67,-22.24 1.59,-7.98 6.27,-14.8 8.66,-22.52 z"
       id="path552"
       inkscape:connector-curvature="0"
       style="opacity:1;fill:#ff8338" />
    <path
       d="m 368.69,107.77 c 2.15,-4.26 3.94,-8.67 6.04,-12.94 -0.04,0.51 -0.12,1.54 -0.16,2.05 -1.2,3.48 -2.79,6.8 -4.08,10.25 -2.95,7.34 -6.2,14.55 -9.1,21.91 -1.98,4.98 -4.09,9.91 -5.93,14.95 -3.38,9.3 -8.37,17.96 -11.27,27.44 -0.47,0.33 -1.43,1.01 -1.91,1.34 0.86,-5.36 3.68,-10.11 5.65,-15.1 3.53,-8.99 7.59,-17.74 10.79,-26.84 3.48,-7.63 6.01,-15.66 9.97,-23.06 z"
       id="path554"
       inkscape:connector-curvature="0"
       style="opacity:1;fill:#ff8338" />
    <path
       d="m 278.11,111.75 c 0.17,0.63 0.52,1.9 0.69,2.53 -3.77,7.75 -7.2,15.67 -10.37,23.68 -2.19,5.73 -4.71,11.33 -6.96,17.04 -2.35,6.06 -5.22,11.91 -7.51,18.01 -0.36,-0.23 -1.09,-0.68 -1.45,-0.91 3.92,-9.77 7.87,-19.53 12.08,-29.18 1.76,-3.99 3.38,-8.04 5.12,-12.04 2.28,-5.04 4.33,-10.18 6.09,-15.43 0.72,-1.26 1.52,-2.48 2.31,-3.7 z"
       id="path556"
       inkscape:connector-curvature="0"
       style="opacity:1;fill:#ff8338" />
  </g>
  <g
     id="#c34919ff"
     transform="scale(0.08)">
    <path
       d="m 206.75,100.09 c 10.12,-4.69 20.51,-8.95 31.3,-11.83 -2.39,7.72 -7.07,14.54 -8.66,22.52 -0.41,-0.39 -1.25,-1.15 -1.66,-1.54 -9.92,-0.14 -19.84,0.05 -29.75,0.02 -2.27,-0.03 -4.51,-0.49 -6.7,-1 3.7,-2.28 7.57,-4.26 11.47,-6.19 0.02,0.85 0.05,2.53 0.07,3.38 2.98,-0.14 3.46,-3.03 3.93,-5.36 z"
       id="path559"
       inkscape:connector-curvature="0"
       style="opacity:1;fill:#c34919" />
  </g>
  <g
     id="#c74a19ff"
     transform="scale(0.08)">
    <path
       d="m 235.64,106.75 c 1.27,-6.5 5.94,-11.52 7.76,-17.8 2.17,0.62 4.38,1.27 6.66,1.27 23.66,-0.1 47.33,-0.01 70.99,-0.05 4.54,-0.13 9.09,-0.13 13.58,0.62 -2.47,5.28 -4.49,10.76 -6.87,16.07 -30.71,-0.12 -61.41,0.15 -92.12,-0.11 z"
       id="path562"
       inkscape:connector-curvature="0"
       style="opacity:1;fill:#c74a19" />
  </g>
  <g
     id="#c1481aff"
     transform="scale(0.08)">
    <path
       d="m 385.72,96.3 c 5.75,1.82 10.98,5.09 16.57,7.37 -1.89,1.7 -3.48,3.71 -4.67,5.95 -1.09,-0.66 -2.21,-1.43 -3.54,-1.36 -7.85,-0.57 -15.93,1.16 -23.59,-1.13 1.29,-3.45 2.88,-6.77 4.08,-10.25 3.73,0.41 7.48,0.19 11.15,-0.58 z"
       id="path565"
       inkscape:connector-curvature="0"
       style="opacity:1;fill:#c1481a" />
  </g>
  <g
     id="#e0792bff"
     transform="scale(0.08)">
    <path
       d="m 202.75,102.07 c 1.32,-0.68 2.65,-1.35 4,-1.98 -0.47,2.33 -0.95,5.22 -3.93,5.36 -0.02,-0.85 -0.05,-2.53 -0.07,-3.38 z"
       id="path568"
       inkscape:connector-curvature="0"
       style="opacity:1;fill:#e0792b" />
  </g>
  <g
     id="#ff7c3dff"
     transform="scale(0.08)">
    <path
       d="m 397.62,109.62 c 1.19,-2.24 2.78,-4.25 4.67,-5.95 -2.07,7.25 -5.87,13.85 -8.62,20.85 -1.08,2.53 -2.12,5.08 -3.16,7.63 -3.27,7.99 -6.81,15.88 -9.99,23.91 -1.21,3.11 -2.64,6.13 -3.96,9.2 -0.85,2 -1.64,4.02 -2.46,6.04 -0.23,-0.34 -0.68,-1.01 -0.91,-1.34 1.58,-8.19 5.22,-15.69 8.43,-23.32 2.12,-4.95 4.06,-9.97 6.25,-14.88 3.24,-7.39 5.9,-15.04 9.75,-22.14 z"
       id="path571"
       inkscape:connector-curvature="0"
       style="opacity:1;fill:#ff7c3d" />
  </g>
  <g
     id="#ae441bff"
     transform="scale(0.08)">
    <path
       d="m 402.29,103.67 c 10.55,5.87 21.05,11.99 30.52,19.53 -12.96,1.88 -26.15,-0.32 -39.14,1.32 2.75,-7 6.55,-13.6 8.62,-20.85 z"
       id="path574"
       inkscape:connector-curvature="0"
       style="opacity:1;fill:#ae441b" />
  </g>
  <g
     id="#b8461aff"
     transform="scale(0.08)">
    <path
       d="m 235.64,106.75 c 30.71,0.26 61.41,-0.01 92.12,0.11 -1.43,3.35 -2.79,6.73 -4.25,10.07 -0.43,-0.4 -1.28,-1.22 -1.7,-1.63 -8.62,-0.14 -17.23,0.08 -25.85,-0.02 -5.73,-0.15 -11.58,0.68 -17.16,-1 -0.17,-0.63 -0.52,-1.9 -0.69,-2.53 -0.79,1.22 -1.59,2.44 -2.31,3.7 -3.79,-1.37 -7.87,-0.06 -11.78,-0.3 -10.78,-0.25 -21.58,0.42 -32.34,-0.51 0.81,-2.87 2.32,-5.44 3.96,-7.89 z"
       id="path577"
       inkscape:connector-curvature="0"
       style="opacity:1;fill:#b8461a" />
  </g>
  <g
     id="#ac441bff"
     transform="scale(0.08)">
    <path
       d="m 320.59,130.21 c 3.06,-7.83 6.94,-15.31 9.8,-23.23 2.82,0.72 5.69,1.35 8.62,1.3 9.9,-0.16 19.79,-0.01 29.68,-0.51 -3.96,7.4 -6.49,15.43 -9.97,23.06 -10.25,0.28 -20.51,0.44 -30.76,0.42 -2.5,-0.06 -4.94,-0.54 -7.37,-1.04 z"
       id="path580"
       inkscape:connector-curvature="0"
       style="opacity:1;fill:#ac441b" />
  </g>
  <g
     id="#ad441bff"
     transform="scale(0.08)">
    <path
       d="m 361.39,129.04 c 2.9,-7.36 6.15,-14.57 9.1,-21.91 7.66,2.29 15.74,0.56 23.59,1.13 1.33,-0.07 2.45,0.7 3.54,1.36 -3.85,7.1 -6.51,14.75 -9.75,22.14 -1.18,-0.81 -2.3,-1.96 -3.84,-1.9 -7.54,-0.55 -15.19,0.85 -22.64,-0.82 z"
       id="path583"
       inkscape:connector-curvature="0"
       style="opacity:1;fill:#ad441b" />
  </g>
  <g
     id="#ab431bff"
     transform="scale(0.08)">
    <path
       d="m 191.06,108.21 0.22,0.05 c 2.19,0.51 4.43,0.97 6.7,1 9.91,0.03 19.83,-0.16 29.75,-0.02 0.41,0.39 1.25,1.15 1.66,1.54 -3.31,7.37 -6.39,14.85 -9.67,22.24 -0.46,-0.53 -1.4,-1.6 -1.86,-2.13 -14.41,-0.3 -28.82,0.11 -43.22,-0.16 1.75,-4.24 4.15,-8.41 3.99,-13.15 -0.21,-0.34 -0.63,-1.01 -0.83,-1.35 l -0.02,-0.02 c 4.54,-2.49 8.73,-5.53 13.28,-8 z"
       id="path586"
       inkscape:connector-curvature="0"
       style="opacity:1;fill:#ab431b" />
  </g>
  <g
     id="#5c5d60ff"
     transform="scale(0.08)">
    <path
       d="m 115.87,111.33 c 3.38,-1.61 8,-1.91 10.78,1.02 3.42,2.96 3.7,8.59 0.73,11.97 -1.74,2.19 -4.58,2.8 -7.16,3.36 -0.97,-5.57 -2.23,-11.1 -4.35,-16.35 z"
       id="path589"
       inkscape:connector-curvature="0"
       style="opacity:1;fill:#5c5d60" />
    <path
       d="m 113.2,472.17 c 4.37,-2.02 9.14,0.76 11.37,4.6 -0.35,1.53 -0.69,3.07 -1.03,4.62 -4.94,1.24 -9.91,2.34 -14.9,3.32 -2.27,-4.59 -0.38,-10.72 4.56,-12.54 z"
       id="path591"
       inkscape:connector-curvature="0"
       style="opacity:1;fill:#5c5d60" />
    <path
       d="m 287.99,559.97 c -1.94,-5.25 2.48,-11.3 7.99,-11.32 2.45,-0.26 4.52,1.22 6.54,2.37 -2.49,5.19 -4.3,11.51 -9.49,14.68 -2.02,-1.54 -4.38,-3.1 -5.04,-5.73 z"
       id="path593"
       inkscape:connector-curvature="0"
       style="opacity:1;fill:#5c5d60" />
  </g>
  <g
     id="#4e4f52ff"
     transform="scale(0.08)">
    <path
       d="m 112.22,119.94 c -0.57,-3.34 0.92,-6.67 3.65,-8.61 2.12,5.25 3.38,10.78 4.35,16.35 -3.83,-0.76 -7.75,-3.54 -8,-7.74 z"
       id="path596"
       inkscape:connector-curvature="0"
       style="opacity:1;fill:#4e4f52" />
  </g>
  <g
     id="#a9421bff"
     transform="scale(0.08)">
    <path
       d="m 231.68,114.64 c 10.76,0.93 21.56,0.26 32.34,0.51 3.91,0.24 7.99,-1.07 11.78,0.3 -1.76,5.25 -3.81,10.39 -6.09,15.43 -7.9,-0.19 -15.8,0.12 -23.7,-0.03 -6.85,-0.17 -13.79,0.62 -20.56,-0.8 2.16,-5.11 4.48,-10.15 6.23,-15.41 z"
       id="path599"
       inkscape:connector-curvature="0"
       style="opacity:1;fill:#a9421b" />
  </g>
  <g
     id="#a3411cff"
     transform="scale(0.08)">
    <path
       d="m 278.8,114.28 c 5.58,1.68 11.43,0.85 17.16,1 8.62,0.1 17.23,-0.12 25.85,0.02 0.42,0.41 1.27,1.23 1.7,1.63 -2.43,5.47 -4.57,11.05 -6.97,16.53 -2.06,-0.33 -4.12,-0.67 -6.17,-1 -0.24,2.51 -0.34,5.12 -1.5,7.41 0.37,-3.01 0.15,-6.04 -0.19,-9.04 -1.3,3 -2.56,6.02 -3.9,9 -10.61,-0.29 -21.23,0.1 -31.85,-0.04 -1.71,0.08 -3.08,-1.06 -4.5,-1.83 3.17,-8.01 6.6,-15.93 10.37,-23.68 z"
       id="path602"
       inkscape:connector-curvature="0"
       style="opacity:1;fill:#a3411c" />
  </g>
  <g
     id="#5c5e61ff"
     transform="scale(0.08)">
    <path
       d="m 476.91,116.08 c 4.47,-3.74 11.58,-1.45 13.76,3.77 -0.41,1.19 -0.81,2.39 -1.2,3.59 -4.97,1.23 -9.96,2.43 -14.84,3.98 -1.55,-3.82 -1.33,-8.75 2.28,-11.34 z"
       id="path605"
       inkscape:connector-curvature="0"
       style="opacity:1;fill:#5c5e61" />
  </g>
  <g
     id="#ff7f3aff"
     transform="scale(0.08)">
    <path
       d="m 177.8,116.23 c 0.2,0.34 0.62,1.01 0.83,1.35 0.16,4.74 -2.24,8.91 -3.99,13.15 -1.24,3.3 -2.53,6.59 -4.04,9.78 -2.22,4.71 -4.22,9.53 -6.2,14.35 -2.22,5.41 -4.78,10.68 -7.03,16.08 -1.05,2.47 -2.08,4.94 -3.16,7.4 -1.26,1.46 -2.44,2.99 -3.48,4.61 -0.16,-0.58 -0.46,-1.76 -0.61,-2.34 1.03,-1.92 2.01,-3.87 2.87,-5.86 2.11,-5.46 4.77,-10.67 6.88,-16.12 2.71,-6.22 5.19,-12.53 7.8,-18.8 2.95,-7.29 6.12,-14.49 8.83,-21.88 0.32,-0.43 0.97,-1.29 1.3,-1.72 z"
       id="path608"
       inkscape:connector-curvature="0"
       style="opacity:1;fill:#ff7f3a" />
  </g>
  <g
     id="#9a3f1dff"
     transform="scale(0.08)">
    <path
       d="m 172.83,119.82 c 1.09,-0.86 2.34,-1.47 3.67,-1.87 -2.71,7.39 -5.88,14.59 -8.83,21.88 -6.09,0.2 -12.28,1.05 -18.28,-0.43 7.17,-7.26 15.25,-13.53 23.44,-19.58 z"
       id="path611"
       inkscape:connector-curvature="0"
       style="opacity:1;fill:#9a3f1d" />
  </g>
  <g
     id="#a1411cff"
     transform="scale(0.08)">
    <path
       d="m 432.81,123.2 0.2,-0.02 c 3.3,2.42 6.44,5.06 9.64,7.61 -0.05,0.59 -0.16,1.76 -0.22,2.35 -3.77,0.24 -7.57,0.31 -11.32,-0.19 -0.08,-0.51 -0.25,-1.55 -0.33,-2.06 -0.83,1.26 -1.68,2.51 -2.45,3.81 -1.25,-1.72 -3.48,-1.4 -5.32,-1.47 -8,0.15 -16,-0.01 -24,0.14 -2.89,0.09 -5.73,-0.46 -8.5,-1.22 1.04,-2.55 2.08,-5.1 3.16,-7.63 12.99,-1.64 26.18,0.56 39.14,-1.32 z"
       id="path614"
       inkscape:connector-curvature="0"
       style="opacity:1;fill:#a1411c" />
  </g>
  <g
     id="#963e1dff"
     transform="scale(0.08)">
    <path
       d="m 355.46,143.99 c 1.84,-5.04 3.95,-9.97 5.93,-14.95 7.45,1.67 15.1,0.27 22.64,0.82 1.54,-0.06 2.66,1.09 3.84,1.9 -2.19,4.91 -4.13,9.93 -6.25,14.88 -1.09,-0.74 -2.17,-1.69 -3.58,-1.62 -7.52,-0.45 -15.21,1.13 -22.58,-1.03 z"
       id="path617"
       inkscape:connector-curvature="0"
       style="opacity:1;fill:#963e1d" />
  </g>
  <g
     id="#983f1dff"
     transform="scale(0.08)">
    <path
       d="m 221.47,138.96 c 1.3,-2.98 2.66,-5.94 3.98,-8.91 6.77,1.42 13.71,0.63 20.56,0.8 7.9,0.15 15.8,-0.16 23.7,0.03 -1.74,4 -3.36,8.05 -5.12,12.04 -0.46,-0.42 -1.39,-1.27 -1.85,-1.69 -11.92,-0.14 -23.84,0.06 -35.75,0 -2.14,0.17 -3.87,-1.13 -5.52,-2.27 z"
       id="path620"
       inkscape:connector-curvature="0"
       style="opacity:1;fill:#983f1d" />
    <path
       d="m 174.64,130.73 c 14.4,0.27 28.81,-0.14 43.22,0.16 0.46,0.53 1.4,1.6 1.86,2.13 -1.29,2.94 -2.6,5.88 -3.9,8.82 -5.87,-1.35 -11.9,-0.66 -17.85,-0.73 -9.12,-0.16 -18.28,0.4 -27.37,-0.6 1.51,-3.19 2.8,-6.48 4.04,-9.78 z"
       id="path622"
       inkscape:connector-curvature="0"
       style="opacity:1;fill:#983f1d" />
  </g>
  <g
     id="#8e3d1dff"
     transform="scale(0.08)">
    <path
       d="m 320.59,130.21 c 2.43,0.5 4.87,0.98 7.37,1.04 10.25,0.02 20.51,-0.14 30.76,-0.42 -3.2,9.1 -7.26,17.85 -10.79,26.84 -1.22,-0.71 -2.58,-1.16 -4,-1.02 -5.32,0.16 -10.63,0.19 -15.95,0.13 -6.16,-0.12 -12.4,0.56 -18.49,-0.71 3.59,-8.67 7.58,-17.17 11.1,-25.86 z"
       id="path625"
       inkscape:connector-curvature="0"
       style="opacity:1;fill:#8e3d1d" />
  </g>
  <g
     id="#ff743cff"
     transform="scale(0.08)">
    <path
       d="m 308.68,130.83 c 0.34,3 0.56,6.03 0.19,9.04 -1.91,3.58 -3.81,7.19 -5.22,11 -3.13,7.93 -6.83,15.63 -9.79,23.62 -1.13,-0.43 -2.26,-0.88 -3.38,-1.32 2.29,-4.77 4.08,-9.74 6.24,-14.56 2.71,-6.25 5.26,-12.57 8.06,-18.78 1.34,-2.98 2.6,-6 3.9,-9 z"
       id="path628"
       inkscape:connector-curvature="0"
       style="opacity:1;fill:#ff743c" />
  </g>
  <g
     id="#d7652eff"
     transform="scale(0.08)">
    <path
       d="m 428.33,134.7 c 0.77,-1.3 1.62,-2.55 2.45,-3.81 0.08,0.51 0.25,1.55 0.33,2.06 -1.58,3.44 -2.57,7.38 -5.49,9.98 0.5,-2.86 1.42,-5.63 2.71,-8.23 z"
       id="path631"
       inkscape:connector-curvature="0"
       style="opacity:1;fill:#d7652e" />
  </g>
  <g
     id="#8b3c1eff"
     transform="scale(0.08)">
    <path
       d="m 442.65,130.79 c 7.14,5.81 13.61,12.43 20.07,18.94 -2,1.94 -3.12,4.53 -4.2,7.05 -19.52,0.09 -39.05,0.03 -58.57,0.05 -6.48,-0.1 -13.04,0.62 -19.43,-0.77 3.18,-8.03 6.72,-15.92 9.99,-23.91 2.77,0.76 5.61,1.31 8.5,1.22 8,-0.15 16,0.01 24,-0.14 1.84,0.07 4.07,-0.25 5.32,1.47 -1.29,2.6 -2.21,5.37 -2.71,8.23 2.92,-2.6 3.91,-6.54 5.49,-9.98 3.75,0.5 7.55,0.43 11.32,0.19 0.06,-0.59 0.17,-1.76 0.22,-2.35 z"
       id="path634"
       inkscape:connector-curvature="0"
       style="opacity:1;fill:#8b3c1e" />
  </g>
  <g
     id="#8f3d1dff"
     transform="scale(0.08)">
    <path
       d="m 310.37,132.46 c 2.05,0.33 4.11,0.67 6.17,1 -2.71,6.16 -5.13,12.45 -7.95,18.56 -1.65,-0.38 -3.3,-0.77 -4.94,-1.15 1.41,-3.81 3.31,-7.42 5.22,-11 1.16,-2.29 1.26,-4.9 1.5,-7.41 z"
       id="path637"
       inkscape:connector-curvature="0"
       style="opacity:1;fill:#8f3d1d" />
  </g>
  <g
     id="#893b1eff"
     transform="scale(0.08)">
    <path
       d="m 261.47,155 c 2.25,-5.71 4.77,-11.31 6.96,-17.04 1.42,0.77 2.79,1.91 4.5,1.83 10.62,0.14 21.24,-0.25 31.85,0.04 -2.8,6.21 -5.35,12.53 -8.06,18.78 -1.41,-0.92 -2.98,-1.63 -4.69,-1.48 -8.37,-0.02 -16.74,0.25 -25.1,0.04 -2.09,0.12 -3.82,-1.07 -5.46,-2.17 z"
       id="path640"
       inkscape:connector-curvature="0"
       style="opacity:1;fill:#893b1e" />
    <path
       d="m 170.6,140.51 c 9.09,1 18.25,0.44 27.37,0.6 5.95,0.07 11.98,-0.62 17.85,0.73 -2.47,5.58 -4.82,11.21 -7.21,16.83 -2.56,-2.54 -6.4,-1.64 -9.63,-1.8 -7.67,0.3 -15.34,0.01 -23.01,0.15 -3.94,0.02 -8.41,0.77 -11.57,-2.16 1.98,-4.82 3.98,-9.64 6.2,-14.35 z"
       id="path642"
       inkscape:connector-curvature="0"
       style="opacity:1;fill:#893b1e" />
  </g>
  <g
     id="#873b1eff"
     transform="scale(0.08)">
    <path
       d="m 149.09,139.34 0.3,0.06 c 6,1.48 12.19,0.63 18.28,0.43 -2.61,6.27 -5.09,12.58 -7.8,18.8 -2.72,-1.57 -5.93,-0.54 -8.88,-0.64 -6.22,-0.1 -12.5,0.4 -18.67,-0.6 5.13,-6.42 10.83,-12.38 16.77,-18.05 z"
       id="path645"
       inkscape:connector-curvature="0"
       style="opacity:1;fill:#873b1e" />
  </g>
  <g
     id="#853a1eff"
     transform="scale(0.08)">
    <path
       d="m 212.56,159.8 c 2.79,-7.02 5.84,-13.94 8.91,-20.84 1.65,1.14 3.38,2.44 5.52,2.27 11.91,0.06 23.83,-0.14 35.75,0 0.46,0.42 1.39,1.27 1.85,1.69 -4.21,9.65 -8.16,19.41 -12.08,29.18 -6.82,-4.25 -13.22,-9.1 -19.5,-14.08 -1.11,1.03 -2.22,2.04 -3.29,3.1 -5.54,-1.88 -11.43,-1.14 -17.16,-1.32 z"
       id="path648"
       inkscape:connector-curvature="0"
       style="opacity:1;fill:#853a1e" />
  </g>
  <g
     id="#833a1eff"
     transform="scale(0.08)">
    <path
       d="m 344.19,171.43 c 2.9,-9.48 7.89,-18.14 11.27,-27.44 7.37,2.16 15.06,0.58 22.58,1.03 1.41,-0.07 2.49,0.88 3.58,1.62 -3.21,7.63 -6.85,15.13 -8.43,23.32 -3.03,-4.26 -6.69,-8.01 -10.47,-11.6 -0.09,-1.3 -0.2,-2.6 -0.31,-3.89 -1.08,1.91 -1.99,3.91 -2.72,5.98 -4.99,3.9 -10.09,7.67 -15.5,10.98 z"
       id="path651"
       inkscape:connector-curvature="0"
       style="opacity:1;fill:#833a1e" />
  </g>
  <g
     id="#cf5e32ff"
     transform="scale(0.08)">
    <path
       d="m 458.52,156.78 c 1.08,-2.52 2.2,-5.11 4.2,-7.05 l 0.31,-0.33 c -0.95,4.98 -3.07,9.79 -6.33,13.69 0.41,-2.16 0.98,-4.28 1.82,-6.31 z"
       id="path654"
       inkscape:connector-curvature="0"
       style="opacity:1;fill:#cf5e32" />
  </g>
  <g
     id="#703620ff"
     transform="scale(0.08)">
    <path
       d="m 303.65,150.87 c 1.64,0.38 3.29,0.77 4.94,1.15 -3.04,6.69 -5.58,13.59 -8.57,20.31 -2.72,5.4 -4.94,11.04 -7.05,16.7 -2.38,-0.5 -4.74,-1.11 -7.09,-1.75 0.58,0.08 1.73,0.25 2.31,0.33 2.28,-4.19 3.96,-8.67 5.67,-13.12 2.96,-7.99 6.66,-15.69 9.79,-23.62 z"
       id="path657"
       inkscape:connector-curvature="0"
       style="opacity:1;fill:#703620" />
  </g>
  <g
     id="#78371fff"
     transform="scale(0.08)">
    <path
       d="m 463.03,149.4 c 3.96,6.07 9.45,11 13.42,17.1 -6.37,-0.37 -12.75,-0.21 -19.11,-0.52 -0.32,-0.61 -0.95,-1.83 -1.27,-2.43 -1.72,3.41 -3.22,6.92 -4.7,10.44 -0.17,-0.34 -0.52,-1.01 -0.69,-1.34 -4.55,0.26 -9.11,0.7 -13.67,0.44 -7.42,-0.49 -14.94,0.84 -22.25,-0.94 1.51,-3.41 2.96,-6.9 3.38,-10.64 -1.84,1.7 -2.99,3.94 -3.81,6.28 -0.94,-2.13 -3.49,-1.5 -5.34,-1.67 -7.67,0.13 -15.34,0 -23.01,0.13 -3.17,0.08 -6.33,-0.34 -9.42,-0.99 1.32,-3.07 2.75,-6.09 3.96,-9.2 6.39,1.39 12.95,0.67 19.43,0.77 19.52,-0.02 39.05,0.04 58.57,-0.05 -0.84,2.03 -1.41,4.15 -1.82,6.31 3.26,-3.9 5.38,-8.71 6.33,-13.69 z"
       id="path660"
       inkscape:connector-curvature="0"
       style="opacity:1;fill:#78371f" />
  </g>
  <g
     id="#75371fff"
     transform="scale(0.08)">
    <path
       d="m 157.37,170.94 c 2.25,-5.4 4.81,-10.67 7.03,-16.08 3.16,2.93 7.63,2.18 11.57,2.16 7.67,-0.14 15.34,0.15 23.01,-0.15 3.23,0.16 7.07,-0.74 9.63,1.8 -2.03,4.47 -3.68,9.1 -5.85,13.51 -0.39,0.8 -0.79,1.6 -1.17,2.41 -1.3,-1.07 -2.91,-1.57 -4.58,-1.45 -11.35,0.08 -22.7,0.07 -34.05,0.05 -2.16,0.19 -3.92,-1.1 -5.59,-2.25 z"
       id="path663"
       inkscape:connector-curvature="0"
       style="opacity:1;fill:#75371f" />
  </g>
  <g
     id="#713620ff"
     transform="scale(0.08)">
    <path
       d="m 253.96,173.01 c 2.29,-6.1 5.16,-11.95 7.51,-18.01 1.64,1.1 3.37,2.29 5.46,2.17 8.36,0.21 16.73,-0.06 25.1,-0.04 1.71,-0.15 3.28,0.56 4.69,1.48 -2.16,4.82 -3.95,9.79 -6.24,14.56 -2.12,4.5 -3.92,9.15 -5.5,13.86 -10.81,-3.53 -21.34,-8.02 -31.02,-14.02 z"
       id="path666"
       inkscape:connector-curvature="0"
       style="opacity:1;fill:#713620" />
  </g>
  <g
     id="#b85430ff"
     transform="scale(0.08)">
    <path
       d="m 362.41,154.47 c 0.11,1.29 0.22,2.59 0.31,3.89 -0.76,0.52 -2.27,1.56 -3.03,2.09 0.73,-2.07 1.64,-4.07 2.72,-5.98 z"
       id="path669"
       inkscape:connector-curvature="0"
       style="opacity:1;fill:#b85430" />
  </g>
  <g
     id="#733620ff"
     transform="scale(0.08)">
    <path
       d="m 301.35,175 c 2.32,-6.47 5.52,-12.58 8.14,-18.93 6.09,1.27 12.33,0.59 18.49,0.71 5.32,0.06 10.63,0.03 15.95,-0.13 1.42,-0.14 2.78,0.31 4,1.02 -1.97,4.99 -4.79,9.74 -5.65,15.1 -2.42,1.67 -5.08,2.93 -7.65,4.33 -10.81,-3.13 -22.35,0.39 -33.28,-2.1 z"
       id="path672"
       inkscape:connector-curvature="0"
       style="opacity:1;fill:#733620" />
    <path
       d="m 132.06,157.35 0.26,0.04 c 6.17,1 12.45,0.5 18.67,0.6 2.95,0.1 6.16,-0.93 8.88,0.64 -2.11,5.45 -4.77,10.66 -6.88,16.12 -3.34,-1.98 -7.33,-0.56 -10.97,-0.82 -6.57,-0.3 -13.29,0.97 -19.71,-0.91 -0.33,0.19 -1,0.58 -1.34,0.78 -0.14,-0.38 -0.43,-1.15 -0.58,-1.53 l -0.1,-0.28 c 4.14,-4.7 7.68,-9.89 11.77,-14.64 z"
       id="path674"
       inkscape:connector-curvature="0"
       style="opacity:1;fill:#733620" />
    <path
       d="m 212.56,159.8 c 5.73,0.18 11.62,-0.56 17.16,1.32 -3.97,4.07 -7.57,8.52 -10.6,13.33 -3.98,-0.05 -7.96,-0.46 -11.82,-1.49 1.48,-4.49 3.53,-8.76 5.26,-13.16 z"
       id="path676"
       inkscape:connector-curvature="0"
       style="opacity:1;fill:#733620" />
  </g>
  <g
     id="#061d28ff"
     transform="scale(0.08)">
    <path
       d="m 229.72,161.12 c 1.07,-1.06 2.18,-2.07 3.29,-3.1 6.28,4.98 12.68,9.83 19.5,14.08 0.36,0.23 1.09,0.68 1.45,0.91 9.68,6 20.21,10.49 31.02,14.02 l 0.9,0.25 c 2.35,0.64 4.71,1.25 7.09,1.75 0.6,0.11 1.8,0.32 2.41,0.42 5.61,0.48 11.06,-1.28 16.41,-2.76 7.9,-2.42 15.62,-5.54 22.84,-9.59 2.57,-1.4 5.23,-2.66 7.65,-4.33 0.48,-0.33 1.44,-1.01 1.91,-1.34 5.41,-3.31 10.51,-7.08 15.5,-10.98 0.76,-0.53 2.27,-1.57 3.03,-2.09 3.78,3.59 7.44,7.34 10.47,11.6 0.23,0.33 0.68,1 0.91,1.34 4.36,6.24 8.14,12.93 10.8,20.08 4.13,11.28 6.79,23.16 6.77,35.22 -0.07,3.91 -0.04,7.81 0.16,11.72 10.71,0.62 21.47,-0.44 32.15,0.61 0.47,0.06 1.4,0.18 1.87,0.25 8.99,1.01 17.81,4.58 24.32,10.99 1.95,1.69 3.92,3.37 5.62,5.33 5.26,7.03 9.21,15.1 10.75,23.79 -0.09,1.78 -0.19,3.56 -0.29,5.35 -0.26,2.7 -0.22,5.43 -0.1,8.14 11.19,0.9 22.55,-1.01 33.63,1.01 -7.01,16.85 -14.4,33.55 -21.73,50.27 -0.92,1.79 -1.2,3.99 0.34,5.55 0.61,1.52 2.77,1.64 3,-0.19 8.21,-19.18 16.13,-38.49 23.75,-57.92 1.98,-4.91 4.07,-9.77 6.03,-14.69 1.95,-4.81 4.22,-9.48 6.44,-14.18 3.42,11.72 3.07,24.22 4.05,36.33 -0.33,16.49 -1.67,33.06 -5.48,49.16 -0.89,3.64 -1.19,7.4 -2.23,11.01 l -0.49,0.18 c -0.3,0.12 -0.89,0.35 -1.19,0.46 -2.7,4.71 -4.32,9.94 -6.65,14.83 -1.27,3.12 -3.65,6.65 -1.28,9.86 -0.23,3.53 -2.54,6.72 -3.94,9.96 -0.96,0.03 -1.92,0.08 -2.87,0.13 -2.03,4.86 -5.08,9.58 -5.19,15 -0.46,3.18 -3.27,5.38 -4.78,8.1 -8.53,13.39 -18.23,26.13 -29.72,37.14 -5.14,4.88 -9.82,10.27 -15.5,14.57 -5.09,3.95 -9.87,8.41 -15.55,11.55 5.23,-13 11.09,-25.75 16.21,-38.8 2.42,-8.15 6.73,-15.53 9.72,-23.45 2.97,-8.24 6.91,-16.13 9.43,-24.53 -1.86,0.39 -4.63,-0.79 -5.76,1.2 -5.8,10.67 -8.75,22.69 -14.9,33.18 -1.07,2.06 -1.68,4.3 -2.51,6.46 -6.83,14.4 -12.52,29.32 -19.1,43.85 -1.31,2.74 -2.33,5.63 -2.67,8.67 l -0.04,0.24 c -12.61,7.32 -25.58,14.16 -39.3,19.16 -5.57,2.17 -11.25,4.43 -17.24,5.03 2.94,-7.47 5.95,-14.91 8.97,-22.34 3.76,-7.65 7.46,-15.44 9.46,-23.76 -3.41,5.38 -5.48,11.44 -7.91,17.28 -3.79,10.16 -8.66,19.87 -12.55,29.99 -13.06,3.6 -26.49,5.97 -40.01,6.85 13.1,-34.46 28.08,-68.19 42.07,-102.28 0.23,-1.09 0.15,-2.19 -0.23,-3.27 -3.22,5.43 -5.34,11.41 -7.86,17.18 -4.04,9.32 -7.93,18.71 -11.99,28.02 -3.72,8.58 -7.98,16.93 -11.25,25.71 -4.45,11.79 -9.69,23.25 -14.51,34.89 -14.61,1.48 -29.33,0.28 -43.86,-1.39 -19.52,-2.43 -38.43,-8.15 -56.7,-15.3 l 0.14,-0.31 c 6.72,-15.03 12.62,-30.4 18.99,-45.58 6.14,-14.91 12.65,-29.69 18.29,-44.8 6.7,-15.72 13.13,-31.55 19.9,-47.23 1.27,-2.86 2.38,-5.78 3.22,-8.79 -2.42,3.76 -3.97,7.96 -5.8,12.02 -9.42,20.62 -17.49,41.81 -26.71,62.52 -10.37,23.5 -20.01,47.33 -30.34,70.85 -9.15,-3.82 -17.83,-8.69 -26.36,-13.72 -3.69,-2.24 -7.46,-4.39 -10.75,-7.2 8.25,-20.02 16.73,-39.94 24.82,-60.01 -1.8,-0.68 -3.6,-1.34 -5.4,-1.99 -7.45,16.09 -13.92,32.63 -21.08,48.86 -1.43,3.13 -2.67,6.34 -3.74,9.61 -21.4,-16.19 -40.2,-35.91 -54.61,-58.58 -2.1,-3.66 -4.6,-7.07 -6.8,-10.66 0.46,0.02 1.36,0.06 1.81,0.08 3.64,-8.37 6.66,-16.99 10.51,-25.26 1.61,-3.62 3.7,-7.22 3.76,-11.29 0.16,-6.39 0.04,-12.79 -0.4,-19.16 -6.09,15.93 -13.48,31.31 -19.95,47.08 -3.58,-7.13 -6.65,-14.48 -9.85,-21.77 -9.94,-27.73 -15.32,-57.36 -13.69,-86.85 0.36,-0.92 0.73,-1.83 1.12,-2.73 3.24,0.12 6.47,0.38 9.69,0.77 -0.59,6.27 -3.9,11.7 -6.34,17.35 -0.75,1.24 -0.21,2.6 0.1,3.88 3.6,-7.19 5.91,-14.94 9.59,-22.11 9.45,0.71 18.96,0.69 28.43,0.32 -0.06,-7.3 1.07,-14.54 1.23,-21.82 0.48,-4.26 -3.31,-6.81 -5.84,-9.57 l -0.95,-0.98 c -2.39,-2.35 -4.85,-4.64 -7.21,-7.02 -2.97,-2.86 -5.92,-5.78 -8.23,-9.22 8.18,-0.62 16.41,0.04 24.58,-0.92 15.99,-1.02 32.05,-0.15 48.04,-1.27 1.46,-0.1 2.92,-0.19 4.38,-0.28 2.28,-2.58 4.3,-5.39 6,-8.39 4.31,-4.15 7.27,-9.45 11.6,-13.58 3.03,11.09 4.8,22.52 8.34,33.46 2.55,-3.64 0.75,-8.02 0.55,-12.02 -1.29,-9.81 -0.27,-19.7 1.13,-29.43 0.94,-5.93 2.75,-11.68 4.73,-17.34 2.04,-5.6 4.85,-10.89 7.96,-15.97 3.03,-4.81 6.63,-9.26 10.6,-13.33 m -12.33,64.84 c -0.53,18.32 7.82,36.3 20.98,48.83 0.19,-0.1 0.56,-0.3 0.75,-0.39 0.71,-2.77 1.86,-5.5 2.1,-8.35 -5.45,-6.44 -9.62,-13.96 -11.94,-22.09 -4.38,-14.59 -2.61,-30.47 3.01,-44.48 1.34,-2.9 -1.49,-5.47 -2.36,-8.05 1.89,0.03 3.86,0.72 5.73,0.22 1.99,-3.64 3.85,-7.35 6.13,-10.81 -2.58,-1.92 -5.16,-3.84 -7.77,-5.71 -10.24,14.91 -15.73,32.83 -16.63,50.83 m 136.76,-45.34 c 1.78,3.83 4.39,7.24 5.9,11.21 1.94,-0.06 3.88,-0.22 5.83,-0.4 -1.07,2.1 -2.07,4.24 -2.94,6.43 3.45,8.63 5.77,17.81 5.89,27.14 0.39,14.8 -4.57,29.95 -14.53,41.03 0.81,3.01 1.69,6 2.58,8.99 15.42,-13.75 24.01,-35.4 20.9,-55.99 -1.61,-15.6 -7.09,-30.85 -15.89,-43.85 -2.62,1.75 -5.1,3.7 -7.74,5.44 m -109.71,2.41 c -6.96,10.09 -12.27,21.57 -13.7,33.84 -1.35,5.72 -0.15,11.57 0.96,17.22 1.63,7.65 5.4,14.66 10.09,20.87 -2.38,-5.36 -4.96,-10.91 -4.64,-16.93 -0.23,-11.08 8.36,-21.57 19.25,-23.55 7.39,-1.62 15,0.03 22.06,2.33 0.71,-5.79 3.34,-11 6.05,-16.08 l -1.1,0.27 c -14.31,-2.68 -26.65,-10.74 -38.97,-17.97 m 97.94,5.36 c -9.44,5.5 -19.37,10.83 -30.32,12.47 1.08,2.79 2.58,5.38 3.95,8.04 0.31,2.67 0.78,5.32 1.29,7.97 6.9,-2.38 14.37,-3.91 21.64,-2.48 9.79,1.57 17.85,10 19.47,19.71 1.24,6.6 -0.92,13.01 -3.35,19.03 6.54,-8.03 9.77,-18.34 10.44,-28.58 0.17,-14.97 -5.65,-29.31 -14.03,-41.49 -3.31,1.25 -6,3.65 -9.09,5.33 m -51.85,13.16 c -4.26,4.82 -7.1,11.11 -7.29,17.6 7.39,8.56 22.04,8.61 29.35,-0.08 -0.15,-5.04 -1.92,-9.86 -4.65,-14.05 -3,-6.43 -11.88,-6.22 -17.41,-3.47 m -7.5,27.6 c -2.64,5.14 -4.49,10.64 -6.98,15.85 -8.54,17.68 -15.69,35.99 -24.21,53.68 -4.02,8.05 -8.16,16.05 -12.02,24.18 -7.7,16.22 -16.04,32.22 -22.04,49.18 -3.88,8.32 -7.41,16.89 -10.15,25.66 -1.75,5.01 2.93,10.99 8.29,9.94 6.34,-1.12 12.05,-4.72 16.8,-8.95 5.01,-4.9 3.84,-12.42 5.23,-18.69 3.35,-16.79 9.81,-32.78 16.83,-48.33 3.98,-8.88 8.92,-17.3 12.51,-26.35 7.08,-17.16 13.65,-34.54 20.18,-51.92 2.55,-6.75 5.3,-13.44 7.44,-20.33 -1.25,-0.26 -2.5,-0.52 -3.74,-0.77 -2.74,-1 -5.45,-2.07 -8.14,-3.15 m 21.56,3.62 c -1.21,0.12 -2.42,0.24 -3.63,0.37 5.88,17.37 12.78,34.41 19.29,51.56 4.67,12.09 9.22,24.27 15.37,35.7 10.74,22.71 21.51,46.2 23.69,71.55 0.91,5.21 5.35,8.67 9.63,11.22 4.1,2.5 8.75,5.08 13.73,4.38 4.41,-1.01 6.76,-6.37 5.18,-10.48 -2.87,-9.03 -6.71,-17.73 -10.39,-26.45 -9.88,-25.56 -22.72,-49.83 -34.77,-74.41 -6.57,-14.19 -12.6,-28.64 -19.04,-42.89 -3.96,-7.69 -6.89,-15.85 -10.58,-23.65 -2.82,1.04 -5.64,2.1 -8.48,3.1 m -137.53,49.17 c -2.23,3.6 -4.88,6.97 -6.56,10.89 -0.44,-1.93 -0.8,-3.88 -0.74,-5.86 -0.02,-10.02 -0.27,-20.04 -0.51,-30.05 3.39,-2.54 6.7,-5.17 10.09,-7.7 -14.07,0.02 -28.15,0.08 -42.23,0.41 2.45,2.59 4.96,5.13 7.43,7.7 0.07,21.9 0.19,43.8 0.28,65.7 0.77,19.05 0.28,38.14 0.64,57.21 0.43,0 1.28,0.01 1.71,0.01 13.33,-22.12 26.78,-44.18 39.99,-66.38 5.05,21.31 9.36,42.79 14.16,64.16 0.19,1.11 0.75,2.01 1.69,2.69 13.16,-32.25 25.34,-64.92 38.46,-97.19 -7.28,-6.15 -14.25,-13.27 -17.6,-22.39 -4.23,10.39 -8.2,20.89 -12.04,31.43 -4.13,-15.14 -8.23,-30.3 -11.95,-45.54 -8.03,11.34 -15.14,23.32 -22.82,34.91 m 221,-31.65 c -3.25,9.27 -8.23,18.01 -15.47,24.75 2.93,22.09 5.19,44.28 8.13,66.36 5.22,12.88 10.96,25.61 14.86,38.98 8.71,-0.05 17.43,0.03 26.15,-0.08 -2.84,-2.83 -6.5,-4.9 -8.88,-8.12 -2.28,-17.73 -4.38,-35.5 -6.65,-53.23 -0.35,-2.05 -0.66,-4.11 -0.5,-6.18 12.94,19.54 25.66,39.25 38.6,58.8 1.9,2.5 1.83,5.78 2.21,8.76 12.46,-0.06 24.92,0 37.38,-0.08 -15.89,-23.65 -32.7,-46.68 -48.77,-70.21 9.51,-5.1 17.44,-14.73 17.6,-25.91 0.73,-10.47 -5.39,-20.22 -13.42,-26.45 -4.31,-3.51 -9.7,-5.19 -14.92,-6.82 -7.34,-1.57 -14.9,-0.99 -22.34,-1.07 -4.66,0.17 -9.36,-0.31 -13.98,0.5 m -111.48,38.64 c -1.08,4.63 -1.29,9.8 0.96,14.13 3.46,8.26 12.67,13.29 21.48,12.78 7.83,0.13 15.39,-4.26 19.46,-10.91 2.12,-4.43 3.38,-9.42 2.19,-14.32 -2.55,-9.91 -12.48,-17.06 -22.67,-16.47 -9.37,-0.25 -18.18,6.07 -21.42,14.79 m -167.74,22.24 c 3.13,-3.39 4.7,-7.99 5.29,-12.5 -2.88,3.54 -5.13,7.86 -5.29,12.5 m -7.25,14.43 c -2.07,4.32 -4.16,8.63 -5.9,13.1 -0.68,1.28 -0.33,2.71 0.14,4 3,-2.07 3.51,-5.92 4.73,-9.09 1.98,-7.07 6.8,-13.19 7.3,-20.69 -2.81,3.84 -4.21,8.44 -6.27,12.68 m 368.02,-7.64 c -2.48,4.05 -4.76,8.37 -5.46,13.12 2.22,-0.43 2.57,-2.92 3.43,-4.62 0.94,-2.74 2.61,-5.51 2.03,-8.5 m -181.27,10.43 c -3.84,8.52 -7.31,17.2 -11.23,25.69 -0.8,1.61 -0.98,3.41 -1.14,5.18 2.41,0.16 3.33,-2.4 4.19,-4.15 2.29,-5.37 4.33,-10.84 6.69,-16.18 1.44,-3.52 3.36,-6.89 4.06,-10.67 -0.64,0.03 -1.93,0.1 -2.57,0.13 m 15.4,1.27 c -2.55,4.69 -4.27,9.79 -6.5,14.63 -1.56,3.96 -3.72,7.69 -4.95,11.78 -0.74,1.74 2.11,2.46 2.96,1.15 2.77,-4.62 2.86,-10.44 6.15,-14.8 3.63,-4.17 5.76,-9.31 7.45,-14.51 -1.7,0.48 -4.13,-0.07 -5.11,1.75 m 198.11,35.3 c -1.48,3.7 -3.87,7.2 -3.96,11.31 1.83,-0.74 2.34,-2.74 3.09,-4.36 2.27,-5.68 4.67,-11.3 7,-16.95 0.51,-0.99 0.53,-2.09 0,-3.07 -2.55,4.1 -4.06,8.73 -6.13,13.07 m -184.54,1.35 c -4.4,8.76 -10.18,17.1 -12.17,26.84 6,-7.86 9.89,-17.12 13.99,-26.07 1.63,-3.96 3.64,-7.9 3.82,-12.27 -2.23,3.66 -3.57,7.76 -5.64,11.5 m -59.95,51.08 c -0.89,2.4 -2.42,4.46 -3.65,6.68 0.93,2.55 2.59,0.23 3.04,-1.22 1.47,-4.04 3.96,-7.63 5.24,-11.75 3.07,-9.34 7.14,-18.31 10.64,-27.49 0.73,-1.82 1.01,-3.78 1.2,-5.72 -5.24,13.27 -11.65,26.06 -16.47,39.5 m -79.1,-37.63 c -5.95,13.05 -10.87,26.56 -16.82,39.62 -3.44,7.41 -6.4,15.01 -9.49,22.57 -0.59,1.87 -2.17,4.18 0.01,5.65 2.57,-0.98 3.58,-3.68 4.58,-5.99 6.72,-16.33 13.47,-32.65 20.11,-49.02 1.59,-3.98 4.88,-8.79 1.61,-12.83 m 152.19,15.82 c -1.58,4.47 -4.72,8.65 -4.41,13.58 0.9,-1.17 1.76,-2.39 2.32,-3.76 3.02,-7.32 5.95,-14.69 9.13,-21.94 0.6,-1.31 0.91,-2.72 0.87,-4.15 -3.76,4.79 -5.27,10.86 -7.91,16.27 m -48.95,8.85 c -4.71,9.85 -9.1,19.83 -13.13,29.98 -2.15,5.07 -4.85,10.23 -4.41,15.91 4.55,-5.04 6.19,-11.91 8.09,-18.26 1.5,-2.92 3.36,-5.69 4.13,-8.93 1.92,-6.99 5.61,-13.32 7.75,-20.22 -1,0.27 -1.81,0.78 -2.43,1.52 m 133.97,19.09 c -1.31,3.45 -3.94,6.71 -3.38,10.6 2.8,-0.59 2.83,-4.03 3.83,-6.18 1.47,-5.96 5.58,-11 6.13,-17.2 -3.05,3.76 -4.42,8.51 -6.58,12.78 m -34.8,6.12 c -1.23,3.08 -3.28,6.13 -2.7,9.61 1.77,-0.89 2.12,-2.92 2.78,-4.58 1.44,-4.39 3.8,-8.43 4.96,-12.91 -2.77,1.75 -3.63,5.11 -5.04,7.88 m -60.39,28.59 c -2.07,4.51 -4.2,9.05 -5.28,13.92 2.53,-0.19 2.61,-3.67 3.73,-5.46 1.44,-4 3.91,-7.68 4.35,-11.99 -1.22,0.93 -2.21,2.11 -2.8,3.53 m 88.63,6.74 c -1.58,4.05 -3.75,7.91 -4.56,12.23 2.15,-1.31 2.86,-3.84 3.88,-5.98 1.52,-3.78 3.73,-7.42 3.88,-11.59 -1.8,1.26 -2.38,3.43 -3.2,5.34 m -207.18,14.49 c 1.21,-0.69 2.19,-1.7 2.62,-3.04 1.48,-3.82 3.23,-7.6 3.73,-11.71 -3.05,4.39 -5.65,9.4 -6.35,14.75 m 92.03,-3.65 c -0.81,2.3 -2.31,4.72 -1.38,7.22 2.29,-4.53 4.84,-9.09 5.71,-14.15 -2.59,1.38 -3.15,4.49 -4.33,6.93 z"
       id="path679"
       inkscape:connector-curvature="0"
       style="opacity:1;fill:#061d28" />
    <path
       d="m 400.21,264.79 c 6.43,0.14 13.3,0.38 18.83,4.09 9.72,5.63 11.91,21.78 2.38,28.63 -4.76,3.91 -11.18,3.14 -16.89,3.12 -1.56,-11.93 -3.3,-23.86 -4.32,-35.84 z"
       id="path681"
       inkscape:connector-curvature="0"
       style="opacity:1;fill:#061d28" />
  </g>
  <g
     id="#9e5236ff"
     transform="scale(0.08)">
    <path
       d="m 414.33,167.79 c 0.82,-2.34 1.97,-4.58 3.81,-6.28 -0.42,3.74 -1.87,7.23 -3.38,10.64 -3.84,8.59 -7.75,17.15 -11.27,25.87 -0.94,2.26 -1.92,4.51 -2.81,6.79 l -1.54,-0.44 c 1.77,-4.41 3.59,-8.8 5.5,-13.16 3.35,-7.75 6.68,-15.53 9.69,-23.42 z"
       id="path684"
       inkscape:connector-curvature="0"
       style="opacity:1;fill:#9e5236" />
  </g>
  <g
     id="#a4563aff"
     transform="scale(0.08)">
    <path
       d="m 456.07,163.55 c 0.32,0.6 0.95,1.82 1.27,2.43 -3.35,6.2 -5.79,12.84 -8.6,19.3 -1.38,3.22 -2.79,6.42 -4.13,9.66 -1.85,4.54 -4.05,8.94 -5.72,13.56 -0.19,-0.69 -0.58,-2.07 -0.78,-2.77 1.72,-4.34 3.53,-8.64 5.37,-12.93 2.62,-6.28 5.2,-12.57 7.89,-18.81 1.48,-3.52 2.98,-7.03 4.7,-10.44 z"
       id="path687"
       inkscape:connector-curvature="0"
       style="opacity:1;fill:#a4563a" />
  </g>
  <g
     id="#683420ff"
     transform="scale(0.08)">
    <path
       d="m 376.56,165.26 c 3.09,0.65 6.25,1.07 9.42,0.99 7.67,-0.13 15.34,0 23.01,-0.13 1.85,0.17 4.4,-0.46 5.34,1.67 -3.01,7.89 -6.34,15.67 -9.69,23.42 -6.57,-0.9 -13.19,-0.56 -19.74,0.17 -2.66,-7.15 -6.44,-13.84 -10.8,-20.08 0.82,-2.02 1.61,-4.04 2.46,-6.04 z"
       id="path690"
       inkscape:connector-curvature="0"
       style="opacity:1;fill:#683420" />
    <path
       d="m 457.34,165.98 c 6.36,0.31 12.74,0.15 19.11,0.52 l 0.3,0.02 c 1.87,2.6 3.7,5.24 5.79,7.68 -3.26,3.42 -4.01,8.29 -5.96,12.45 -9.18,-1.92 -18.62,0.27 -27.84,-1.37 2.81,-6.46 5.25,-13.1 8.6,-19.3 z"
       id="path692"
       inkscape:connector-curvature="0"
       style="opacity:1;fill:#683420" />
  </g>
  <g
     id="#5f3221ff"
     transform="scale(0.08)">
    <path
       d="m 154.21,178.34 c 1.08,-2.46 2.11,-4.93 3.16,-7.4 1.67,1.15 3.43,2.44 5.59,2.25 11.35,0.02 22.7,0.03 34.05,-0.05 1.67,-0.12 3.28,0.38 4.58,1.45 -3.81,8.4 -7.13,17.02 -10.63,25.56 L 190.4,200 c -3.67,-1.37 -7.6,-1.4 -11.45,-1.27 -3.93,0.15 -8.1,-0.56 -11.78,1.19 -0.43,0.2 -1.3,0.6 -1.73,0.79 -0.41,-0.45 -1.22,-1.35 -1.63,-1.8 -6.03,-0.3 -12.12,-0.51 -18.09,0.58 2.74,-7.09 6.42,-13.82 8.49,-21.15 z"
       id="path695"
       inkscape:connector-curvature="0"
       style="opacity:1;fill:#5f3221" />
  </g>
  <g
     id="#643321ff"
     transform="scale(0.08)">
    <path
       d="m 122.31,173.02 c 6.42,1.88 13.14,0.61 19.71,0.91 3.64,0.26 7.63,-1.16 10.97,0.82 -0.86,1.99 -1.84,3.94 -2.87,5.86 -1.67,2.97 -3.07,6.08 -4.42,9.21 -10.4,0.04 -21.01,1.46 -31.26,-0.74 2.03,-5.16 4.54,-10.11 6.53,-15.28 0.34,-0.2 1.01,-0.59 1.34,-0.78 z"
       id="path698"
       inkscape:connector-curvature="0"
       style="opacity:1;fill:#643321" />
    <path
       d="m 207.3,172.96 c 3.86,1.03 7.84,1.44 11.82,1.49 -3.11,5.08 -5.92,10.37 -7.96,15.97 -3.48,-0.2 -6.95,-0.45 -10.42,-0.72 2.08,-5.63 4.82,-10.99 6.56,-16.74 z"
       id="path700"
       inkscape:connector-curvature="0"
       style="opacity:1;fill:#643321" />
    <path
       d="m 301.14,175.57 0.21,-0.57 c 10.93,2.49 22.47,-1.03 33.28,2.1 -7.22,4.05 -14.94,7.17 -22.84,9.59 -5.35,1.48 -10.8,3.24 -16.41,2.76 1.84,-4.66 4.13,-9.13 5.76,-13.88 z"
       id="path702"
       inkscape:connector-curvature="0"
       style="opacity:1;fill:#643321" />
  </g>
  <g
     id="#ba6242ff"
     transform="scale(0.08)">
    <path
       d="m 201.59,174.59 c 0.38,-0.81 0.78,-1.61 1.17,-2.41 0.28,0.33 0.82,0.99 1.09,1.32 1.14,-0.18 2.3,-0.36 3.45,-0.54 -1.74,5.75 -4.48,11.11 -6.56,16.74 -1.47,3.75 -3.15,7.41 -4.55,11.19 -1.75,-0.21 -3.5,-0.4 -5.23,-0.74 3.5,-8.54 6.82,-17.16 10.63,-25.56 z"
       id="path705"
       inkscape:connector-curvature="0"
       style="opacity:1;fill:#ba6242" />
  </g>
  <g
     id="#613221ff"
     transform="scale(0.08)">
    <path
       d="m 403.49,198.02 c 3.52,-8.72 7.43,-17.28 11.27,-25.87 7.31,1.78 14.83,0.45 22.25,0.94 4.56,0.26 9.12,-0.18 13.67,-0.44 0.17,0.33 0.52,1 0.69,1.34 -2.69,6.24 -5.27,12.53 -7.89,18.81 -0.59,-1.01 -1.43,-1.57 -2.53,-1.69 -3.69,-0.43 -7.43,-0.25 -11.14,-0.31 1.06,-2.38 1.9,-4.86 2.51,-7.39 -2.21,0.87 -2.82,3.28 -3.67,5.23 -1.31,3.39 -2.69,6.76 -4.15,10.1 -7,-0.44 -14.08,0.7 -21.01,-0.72 z"
       id="path708"
       inkscape:connector-curvature="0"
       style="opacity:1;fill:#613221" />
  </g>
  <g
     id="#ae6044ff"
     transform="scale(0.08)">
    <path
       d="m 120.39,172.27 c 0.15,0.38 0.44,1.15 0.58,1.53 -1.99,5.17 -4.5,10.12 -6.53,15.28 -1.97,4.76 -4.24,9.39 -6.19,14.16 -0.82,0.54 -1.64,1.08 -2.46,1.63 -0.39,-0.99 -0.78,-1.97 -1.17,-2.95 0.65,-1.62 1.2,-3.28 1.74,-4.94 3.46,-8.83 8.62,-16.94 14.03,-24.71 z"
       id="path711"
       inkscape:connector-curvature="0"
       style="opacity:1;fill:#ae6044" />
  </g>
  <g
     id="#c86642ff"
     transform="scale(0.08)">
    <path
       d="m 284.98,187.03 c 1.58,-4.71 3.38,-9.36 5.5,-13.86 1.12,0.44 2.25,0.89 3.38,1.32 -1.71,4.45 -3.39,8.93 -5.67,13.12 -0.58,-0.08 -1.73,-0.25 -2.31,-0.33 z"
       id="path714"
       inkscape:connector-curvature="0"
       style="opacity:1;fill:#c86642" />
  </g>
  <g
     id="#c96643ff"
     transform="scale(0.08)">
    <path
       d="m 292.97,189.03 c 2.11,-5.66 4.33,-11.3 7.05,-16.7 0.28,0.81 0.84,2.43 1.12,3.24 -1.63,4.75 -3.92,9.22 -5.76,13.88 -0.61,-0.1 -1.81,-0.31 -2.41,-0.42 z"
       id="path717"
       inkscape:connector-curvature="0"
       style="opacity:1;fill:#c96643" />
  </g>
  <g
     id="#a3563aff"
     transform="scale(0.08)">
    <path
       d="m 476.58,186.65 c 1.95,-4.16 2.7,-9.03 5.96,-12.45 l 0.67,1.57 c -2.15,5.85 -4.95,11.44 -7.32,17.21 -1.05,2.42 -2.08,4.85 -3.02,7.31 -0.26,-0.34 -0.79,-1.04 -1.05,-1.39 1.38,-4.16 3.16,-8.17 4.76,-12.25 z"
       id="path720"
       inkscape:connector-curvature="0"
       style="opacity:1;fill:#a3563a" />
  </g>
  <g
     id="#5d3121ff"
     transform="scale(0.08)">
    <path
       d="m 483.21,175.77 c 3.86,5.26 7.27,10.89 10.19,16.73 -5.81,0.8 -11.67,0.63 -17.51,0.48 2.37,-5.77 5.17,-11.36 7.32,-17.21 z"
       id="path723"
       inkscape:connector-curvature="0"
       style="opacity:1;fill:#5d3121" />
  </g>
  <g
     id="#a85e44ff"
     transform="scale(0.08)">
    <path
       d="m 150.73,182.95 c 1.04,-1.62 2.22,-3.15 3.48,-4.61 -2.07,7.33 -5.75,14.06 -8.49,21.15 -1.26,3 -2.54,5.99 -3.68,9.05 -1.18,-0.78 -2.37,-1.56 -3.55,-2.34 2.61,-5.37 4.71,-10.96 7.21,-16.38 1.35,-3.13 2.75,-6.24 4.42,-9.21 0.15,0.58 0.45,1.76 0.61,2.34 z"
       id="path726"
       inkscape:connector-curvature="0"
       style="opacity:1;fill:#a85e44" />
  </g>
  <g
     id="#727272ff"
     transform="scale(0.08)">
    <path
       d="m 244.44,183.03 c 12.32,7.23 24.66,15.29 38.97,17.97 -2.99,3.73 -4.2,8.44 -6.43,12.58 -10.45,-2.66 -21.84,-3.95 -32.09,0.24 -5.54,1.87 -10.01,5.71 -14.1,9.75 -0.06,-2.23 -0.12,-4.47 -0.05,-6.7 1.43,-12.27 6.74,-23.75 13.7,-33.84 z"
       id="path729"
       inkscape:connector-curvature="0"
       style="opacity:1;fill:#727272" />
    <path
       d="m 342.38,188.39 c 3.09,-1.68 5.78,-4.08 9.09,-5.33 8.38,12.18 14.2,26.52 14.03,41.49 -4.45,-5.5 -10.27,-9.89 -17.13,-11.86 -9.61,-3.18 -20.07,-2.25 -29.62,0.65 -0.95,-1.46 -1.89,-2.93 -2.74,-4.44 -1.37,-2.66 -2.87,-5.25 -3.95,-8.04 10.95,-1.64 20.88,-6.97 30.32,-12.47 z"
       id="path731"
       inkscape:connector-curvature="0"
       style="opacity:1;fill:#727272" />
    <path
       d="m 290.53,201.55 c 5.53,-2.75 14.41,-2.96 17.41,3.47 2.73,4.19 4.5,9.01 4.65,14.05 -7.31,8.69 -21.96,8.64 -29.35,0.08 0.19,-6.49 3.03,-12.78 7.29,-17.6 z"
       id="path733"
       inkscape:connector-curvature="0"
       style="opacity:1;fill:#727272" />
  </g>
  <g
     id="#824c39ff"
     transform="scale(0.08)">
    <path
       d="m 428.65,188.64 c 0.85,-1.95 1.46,-4.36 3.67,-5.23 -0.61,2.53 -1.45,5.01 -2.51,7.39 -2.13,4.72 -4.18,9.48 -6.15,14.27 -2.09,4.68 -4.12,9.38 -6.07,14.12 -0.65,0.82 -1.32,1.63 -1.99,2.43 0.88,-3.84 2.41,-7.47 4.02,-11.05 1.65,-3.94 3.2,-7.91 4.88,-11.83 1.46,-3.34 2.84,-6.71 4.15,-10.1 z"
       id="path736"
       inkscape:connector-curvature="0"
       style="opacity:1;fill:#824c39" />
  </g>
  <g
     id="#583022ff"
     transform="scale(0.08)">
    <path
       d="m 448.74,185.28 c 9.22,1.64 18.66,-0.55 27.84,1.37 -1.6,4.08 -3.38,8.09 -4.76,12.25 l -0.38,-0.45 c -1.01,-0.71 -2.12,-1.35 -3.4,-1.28 -6.36,-0.33 -12.74,0.33 -19.1,-0.03 -1.76,0.08 -3,-1.29 -4.33,-2.2 1.34,-3.24 2.75,-6.44 4.13,-9.66 z"
       id="path739"
       inkscape:connector-curvature="0"
       style="opacity:1;fill:#583022" />
  </g>
  <g
     id="#4d2e22ff"
     transform="scale(0.08)">
    <path
       d="m 108.25,203.24 c 1.95,-4.77 4.22,-9.4 6.19,-14.16 10.25,2.2 20.86,0.78 31.26,0.74 -2.5,5.42 -4.6,11.01 -7.21,16.38 -1.67,3.45 -3.14,6.99 -4.66,10.51 -2,-2.29 -5.14,-1.93 -7.87,-1.95 -7.35,0.1 -14.7,0.13 -22.04,-0.2 2.01,-3.54 2.86,-7.56 4.33,-11.32 z"
       id="path742"
       inkscape:connector-curvature="0"
       style="opacity:1;fill:#4d2e22" />
  </g>
  <g
     id="#512e22ff"
     transform="scale(0.08)">
    <path
       d="m 196.19,200.89 c 1.4,-3.78 3.08,-7.44 4.55,-11.19 3.47,0.27 6.94,0.52 10.42,0.72 -1.98,5.66 -3.79,11.41 -4.73,17.34 -4.15,-0.64 -8.35,-0.89 -12.55,-0.87 0.81,-1.98 1.56,-3.99 2.31,-6 z"
       id="path745"
       inkscape:connector-curvature="0"
       style="opacity:1;fill:#512e22" />
  </g>
  <g
     id="#502f22ff"
     transform="scale(0.08)">
    <path
       d="m 384.9,191.38 c 6.55,-0.73 13.17,-1.07 19.74,-0.17 -1.91,4.36 -3.73,8.75 -5.5,13.16 l 1.54,0.44 c -0.6,1.57 -1.12,3.16 -1.68,4.74 -1.41,4.08 -3.41,7.91 -5.11,11.88 -0.76,1.71 -1.52,3.43 -2.22,5.17 0.02,-12.06 -2.64,-23.94 -6.77,-35.22 z"
       id="path748"
       inkscape:connector-curvature="0"
       style="opacity:1;fill:#502f22" />
  </g>
  <g
     id="#522f22ff"
     transform="scale(0.08)">
    <path
       d="m 423.66,205.07 c 1.97,-4.79 4.02,-9.55 6.15,-14.27 3.71,0.06 7.45,-0.12 11.14,0.31 1.1,0.12 1.94,0.68 2.53,1.69 -1.84,4.29 -3.65,8.59 -5.37,12.93 l -0.57,0.06 c -4.64,0.18 -9.37,0.65 -13.88,-0.72 z"
       id="path751"
       inkscape:connector-curvature="0"
       style="opacity:1;fill:#522f22" />
  </g>
  <g
     id="#4f2e22ff"
     transform="scale(0.08)">
    <path
       d="m 493.4,192.5 0.31,-0.04 c 1.79,3.31 3.51,6.66 5.1,10.07 -0.84,1.81 -1.68,3.63 -2.46,5.47 -0.18,-0.33 -0.54,-0.98 -0.72,-1.3 -8.34,0.08 -16.81,1.16 -25.06,-0.58 0.8,-1.93 1.55,-3.88 2.3,-5.83 0.94,-2.46 1.97,-4.89 3.02,-7.31 5.84,0.15 11.7,0.32 17.51,-0.48 z"
       id="path754"
       inkscape:connector-curvature="0"
       style="opacity:1;fill:#4f2e22" />
  </g>
  <g
     id="#482c23ff"
     transform="scale(0.08)">
    <path
       d="m 438.89,208.5 c 1.67,-4.62 3.87,-9.02 5.72,-13.56 1.33,0.91 2.57,2.28 4.33,2.2 6.36,0.36 12.74,-0.3 19.1,0.03 1.28,-0.07 2.39,0.57 3.4,1.28 -2.83,7.14 -6.09,14.09 -8.95,21.21 -1,-0.87 -2.04,-1.87 -3.47,-1.75 -7.84,-0.51 -15.78,0.83 -23.53,-0.85 1.23,-2.82 2.34,-5.68 3.4,-8.56 z"
       id="path757"
       inkscape:connector-curvature="0"
       style="opacity:1;fill:#482c23" />
  </g>
  <g
     id="#3c2a24ff"
     transform="scale(0.08)">
    <path
       d="m 104.87,198.04 c 0.37,-0.26 1.12,-0.79 1.49,-1.06 -0.54,1.66 -1.09,3.32 -1.74,4.94 -2.3,5.33 -4.11,10.86 -6.34,16.22 0.47,0.46 1.39,1.4 1.85,1.86 1.38,-1.73 2.7,-3.51 3.79,-5.44 7.34,0.33 14.69,0.3 22.04,0.2 2.73,0.02 5.87,-0.34 7.87,1.95 -1.46,3.49 -3.64,6.9 -3.57,10.83 -1.51,-1.26 -3.02,-2.85 -5.19,-2.55 -9.95,-0.12 -19.9,0.29 -29.84,-0.02 -0.43,-0.44 -1.27,-1.31 -1.7,-1.75 3.32,-8.58 6.81,-17.16 11.34,-25.18 z"
       id="path760"
       inkscape:connector-curvature="0"
       style="opacity:1;fill:#3c2a24" />
  </g>
  <g
     id="#4b2d23ff"
     transform="scale(0.08)">
    <path
       d="m 400.68,204.81 c 0.89,-2.28 1.87,-4.53 2.81,-6.79 6.93,1.42 14.01,0.28 21.01,0.72 -1.68,3.92 -3.23,7.89 -4.88,11.83 -1.1,-0.68 -2.2,-1.54 -3.57,-1.48 -5.68,-0.31 -11.39,-0.13 -17.05,0.46 0.56,-1.58 1.08,-3.17 1.68,-4.74 z"
       id="path763"
       inkscape:connector-curvature="0"
       style="opacity:1;fill:#4b2d23" />
    <path
       d="m 145.72,199.49 c 5.97,-1.09 12.06,-0.88 18.09,-0.58 0.41,0.45 1.22,1.35 1.63,1.8 -1.72,3.63 -3.55,7.22 -4.92,11 -6.49,-1.08 -13.17,-1.22 -19.66,-0.06 0.4,-1.04 0.79,-2.08 1.18,-3.11 1.14,-3.06 2.42,-6.05 3.68,-9.05 z"
       id="path765"
       inkscape:connector-curvature="0"
       style="opacity:1;fill:#4b2d23" />
    <path
       d="m 167.17,199.92 c 3.68,-1.75 7.85,-1.04 11.78,-1.19 3.85,-0.13 7.78,-0.1 11.45,1.27 -1.85,4.76 -3.84,9.45 -5.86,14.14 -0.26,-0.72 -0.77,-2.17 -1.03,-2.89 -6.86,-0.51 -13.77,-0.53 -20.6,0.34 1.62,-3.81 2.96,-7.74 4.26,-11.67 z"
       id="path767"
       inkscape:connector-curvature="0"
       style="opacity:1;fill:#4b2d23" />
  </g>
  <g
     id="#764c3fff"
     transform="scale(0.08)">
    <path
       d="m 471.44,198.45 0.38,0.45 c 0.26,0.35 0.79,1.05 1.05,1.39 -0.75,1.95 -1.5,3.9 -2.3,5.83 -1.7,3.85 -3.42,7.69 -5.01,11.58 -1.52,3.61 -3.24,7.12 -4.71,10.75 -0.24,-0.68 -0.74,-2.04 -0.99,-2.73 0.89,-2.01 1.77,-4.03 2.63,-6.06 2.86,-7.12 6.12,-14.07 8.95,-21.21 z"
       id="path770"
       inkscape:connector-curvature="0"
       style="opacity:1;fill:#764c3f" />
  </g>
  <g
     id="#7c4d3dff"
     transform="scale(0.08)">
    <path
       d="m 165.44,200.71 c 0.43,-0.19 1.3,-0.59 1.73,-0.79 -1.3,3.93 -2.64,7.86 -4.26,11.67 -0.85,1.82 -1.98,3.5 -3.18,5.11 0.21,-1.67 0.48,-3.33 0.79,-4.99 1.37,-3.78 3.2,-7.37 4.92,-11 z"
       id="path773"
       inkscape:connector-curvature="0"
       style="opacity:1;fill:#7c4d3d" />
  </g>
  <g
     id="#8a5846ff"
     transform="scale(0.08)">
    <path
       d="m 190.4,200 0.56,0.15 c 1.73,0.34 3.48,0.53 5.23,0.74 -0.75,2.01 -1.5,4.02 -2.31,6 -2.07,5.03 -4.43,9.95 -6.49,14.98 -1.95,-0.32 -3.89,-0.63 -5.84,-0.93 1.05,-2.25 2.02,-4.52 2.99,-6.8 2.02,-4.69 4.01,-9.38 5.86,-14.14 z"
       id="path776"
       inkscape:connector-curvature="0"
       style="opacity:1;fill:#8a5846" />
    <path
       d="m 98.28,218.14 c 2.23,-5.36 4.04,-10.89 6.34,-16.22 0.39,0.98 0.78,1.96 1.17,2.95 0.82,-0.55 1.64,-1.09 2.46,-1.63 -1.47,3.76 -2.32,7.78 -4.33,11.32 -1.09,1.93 -2.41,3.71 -3.79,5.44 -0.46,-0.46 -1.38,-1.4 -1.85,-1.86 z"
       id="path778"
       inkscape:connector-curvature="0"
       style="opacity:1;fill:#8a5846" />
  </g>
  <g
     id="#494949ff"
     transform="scale(0.08)">
    <path
       d="m 283.41,201 1.1,-0.27 c -2.71,5.08 -5.34,10.29 -6.05,16.08 -7.06,-2.3 -14.67,-3.95 -22.06,-2.33 -10.89,1.98 -19.48,12.47 -19.25,23.55 -0.32,6.02 2.26,11.57 4.64,16.93 -4.69,-6.21 -8.46,-13.22 -10.09,-20.87 -1.11,-5.65 -2.31,-11.5 -0.96,-17.22 -0.07,2.23 -0.01,4.47 0.05,6.7 4.09,-4.04 8.56,-7.88 14.1,-9.75 10.25,-4.19 21.64,-2.9 32.09,-0.24 2.23,-4.14 3.44,-8.85 6.43,-12.58 z"
       id="path781"
       inkscape:connector-curvature="0"
       style="opacity:1;fill:#494949" />
    <path
       d="m 316.01,208.9 c 0.85,1.51 1.79,2.98 2.74,4.44 9.55,-2.9 20.01,-3.83 29.62,-0.65 6.86,1.97 12.68,6.36 17.13,11.86 -0.67,10.24 -3.9,20.55 -10.44,28.58 2.43,-6.02 4.59,-12.43 3.35,-19.03 -1.62,-9.71 -9.68,-18.14 -19.47,-19.71 -7.27,-1.43 -14.74,0.1 -21.64,2.48 -0.51,-2.65 -0.98,-5.3 -1.29,-7.97 z"
       id="path783"
       inkscape:connector-curvature="0"
       style="opacity:1;fill:#494949" />
  </g>
  <g
     id="#67473dff"
     transform="scale(0.08)">
    <path
       d="m 496.35,208 c 0.78,-1.84 1.62,-3.66 2.46,-5.47 0.38,0.6 1.14,1.8 1.51,2.41 l -0.24,0.49 c -2.97,6.07 -5.66,12.28 -8.27,18.51 -2.09,4.84 -4.34,9.61 -6.3,14.51 -0.18,-0.51 -0.55,-1.51 -0.73,-2.01 0.87,-2.26 1.8,-4.5 2.72,-6.74 1.36,-3.34 2.71,-6.68 4.08,-10.02 1.54,-3.91 3.18,-7.79 4.77,-11.68 z"
       id="path786"
       inkscape:connector-curvature="0"
       style="opacity:1;fill:#67473d" />
  </g>
  <g
     id="#432b23ff"
     transform="scale(0.08)">
    <path
       d="m 417.59,219.19 c 1.95,-4.74 3.98,-9.44 6.07,-14.12 4.51,1.37 9.24,0.9 13.88,0.72 -2.33,5.69 -4.63,11.39 -7,17.06 -0.56,-1.06 -1.39,-1.6 -2.51,-1.63 -3.55,-0.32 -7.41,0.25 -10.44,-2.03 z"
       id="path789"
       inkscape:connector-curvature="0"
       style="opacity:1;fill:#432b23" />
  </g>
  <g
     id="#7d5448ff"
     transform="scale(0.08)">
    <path
       d="m 133.83,216.71 c 1.52,-3.52 2.99,-7.06 4.66,-10.51 1.18,0.78 2.37,1.56 3.55,2.34 -0.39,1.03 -0.78,2.07 -1.18,3.11 -1.74,4.39 -3.73,8.67 -5.43,13.07 -0.86,1.92 -2.94,5.36 -5.17,2.82 -0.07,-3.93 2.11,-7.34 3.57,-10.83 z"
       id="path792"
       inkscape:connector-curvature="0"
       style="opacity:1;fill:#7d5448" />
  </g>
  <g
     id="#674940ff"
     transform="scale(0.08)">
    <path
       d="m 437.54,205.79 0.57,-0.06 c 0.2,0.7 0.59,2.08 0.78,2.77 -1.06,2.88 -2.17,5.74 -3.4,8.56 -1.86,4.19 -3.73,8.38 -5.53,12.61 -1.39,3.16 -2.65,6.37 -4.11,9.51 -0.47,-0.07 -1.4,-0.19 -1.87,-0.25 2.14,-5.38 4.32,-10.74 6.56,-16.08 2.37,-5.67 4.67,-11.37 7,-17.06 z"
       id="path795"
       inkscape:connector-curvature="0"
       style="opacity:1;fill:#674940" />
  </g>
  <g
     id="#442b23ff"
     transform="scale(0.08)">
    <path
       d="m 465.56,217.7 c 1.59,-3.89 3.31,-7.73 5.01,-11.58 8.25,1.74 16.72,0.66 25.06,0.58 0.18,0.32 0.54,0.97 0.72,1.3 -1.59,3.89 -3.23,7.77 -4.77,11.68 -1.89,-2.22 -4.95,-1.72 -7.54,-1.77 -6.16,0.22 -12.33,0.2 -18.48,-0.21 z"
       id="path798"
       inkscape:connector-curvature="0"
       style="opacity:1;fill:#442b23" />
  </g>
  <g
     id="#3e2a24ff"
     transform="scale(0.08)">
    <path
       d="m 491.81,223.94 c 2.61,-6.23 5.3,-12.44 8.27,-18.51 3.27,5.28 4.98,11.3 7.54,16.91 -0.69,1.11 -1.36,2.22 -1.98,3.36 -3.87,-3.12 -9.28,-1.27 -13.83,-1.76 z"
       id="path801"
       inkscape:connector-curvature="0"
       style="opacity:1;fill:#3e2a24" />
    <path
       d="m 140.86,211.65 c 6.49,-1.16 13.17,-1.02 19.66,0.06 -0.31,1.66 -0.58,3.32 -0.79,4.99 1.2,-1.61 2.33,-3.29 3.18,-5.11 6.83,-0.87 13.74,-0.85 20.6,-0.34 0.26,0.72 0.77,2.17 1.03,2.89 -0.97,2.28 -1.94,4.55 -2.99,6.8 -0.62,1.31 -1.26,2.63 -1.86,3.95 -14.75,-0.03 -29.52,0.44 -44.26,-0.17 1.7,-4.4 3.69,-8.68 5.43,-13.07 z"
       id="path803"
       inkscape:connector-curvature="0"
       style="opacity:1;fill:#3e2a24" />
  </g>
  <g
     id="#3f2a24ff"
     transform="scale(0.08)">
    <path
       d="m 193.88,206.89 c 4.2,-0.02 8.4,0.23 12.55,0.87 -1.4,9.73 -2.42,19.62 -1.13,29.43 0.2,4 2,8.38 -0.55,12.02 -3.54,-10.94 -5.31,-22.37 -8.34,-33.46 -4.33,4.13 -7.29,9.43 -11.6,13.58 0.83,-2.5 1.6,-5.01 2.58,-7.46 2.06,-5.03 4.42,-9.95 6.49,-14.98 z"
       id="path806"
       inkscape:connector-curvature="0"
       style="opacity:1;fill:#3f2a24" />
  </g>
  <g
     id="#402a24ff"
     transform="scale(0.08)">
    <path
       d="m 399,209.55 c 5.66,-0.59 11.37,-0.77 17.05,-0.46 1.37,-0.06 2.47,0.8 3.57,1.48 -1.61,3.58 -3.14,7.21 -4.02,11.05 -0.15,0.17 -0.43,0.5 -0.58,0.67 -7,-1.11 -14.14,0.64 -21.13,-0.86 1.7,-3.97 3.7,-7.8 5.11,-11.88 z"
       id="path809"
       inkscape:connector-curvature="0"
       style="opacity:1;fill:#402a24" />
  </g>
  <g
     id="#392924ff"
     transform="scale(0.08)">
    <path
       d="m 429.96,229.67 c 1.8,-4.23 3.67,-8.42 5.53,-12.61 7.75,1.68 15.69,0.34 23.53,0.85 1.43,-0.12 2.47,0.88 3.47,1.75 -0.86,2.03 -1.74,4.05 -2.63,6.06 -0.76,1.69 -1.54,3.36 -2.27,5.06 -9.1,-1.83 -18.43,-0.21 -27.63,-1.11 z"
       id="path812"
       inkscape:connector-curvature="0"
       style="opacity:1;fill:#392924" />
    <path
       d="m 460.85,228.45 c 1.47,-3.63 3.19,-7.14 4.71,-10.75 6.15,0.41 12.32,0.43 18.48,0.21 2.59,0.05 5.65,-0.45 7.54,1.77 -1.37,3.34 -2.72,6.68 -4.08,10.02 -8.76,-1.33 -17.66,-0.43 -26.48,-0.67 z"
       id="path814"
       inkscape:connector-curvature="0"
       style="opacity:1;fill:#392924" />
  </g>
  <g
     id="#352825ff"
     transform="scale(0.08)">
    <path
       d="m 415.6,221.62 c 0.67,-0.8 1.34,-1.61 1.99,-2.43 3.03,2.28 6.89,1.71 10.44,2.03 1.12,0.03 1.95,0.57 2.51,1.63 -2.24,5.34 -4.42,10.7 -6.56,16.08 -10.68,-1.05 -21.44,0.01 -32.15,-0.61 -0.2,-3.91 -0.23,-7.81 -0.16,-11.72 0.7,-1.74 1.46,-3.46 2.22,-5.17 6.99,1.5 14.13,-0.25 21.13,0.86 0.15,-0.17 0.43,-0.5 0.58,-0.67 z"
       id="path817"
       inkscape:connector-curvature="0"
       style="opacity:1;fill:#352825" />
  </g>
  <g
     id="#6a5048ff"
     transform="scale(0.08)">
    <path
       d="m 179.69,224.89 c 0.6,-1.32 1.24,-2.64 1.86,-3.95 1.95,0.3 3.89,0.61 5.84,0.93 -0.98,2.45 -1.75,4.96 -2.58,7.46 -1.7,3 -3.72,5.81 -6,8.39 -1.46,0.09 -2.92,0.18 -4.38,0.28 1.6,-4.43 3.34,-8.81 5.26,-13.11 z"
       id="path820"
       inkscape:connector-curvature="0"
       style="opacity:1;fill:#6a5048" />
  </g>
  <g
     id="#312725ff"
     transform="scale(0.08)">
    <path
       d="m 88.85,237.89 c 1.32,-4.96 2.89,-9.86 4.68,-14.67 0.43,0.44 1.27,1.31 1.7,1.75 9.94,0.31 19.89,-0.1 29.84,0.02 2.17,-0.3 3.68,1.29 5.19,2.55 2.23,2.54 4.31,-0.9 5.17,-2.82 14.74,0.61 29.51,0.14 44.26,0.17 -1.92,4.3 -3.66,8.68 -5.26,13.11 -15.99,1.12 -32.05,0.25 -48.04,1.27 -7.1,-0.89 -14.27,-0.57 -21.39,-0.4 -5.2,1.02 -10.45,1.67 -15.76,1.49 -0.1,-0.62 -0.29,-1.85 -0.39,-2.47 z"
       id="path823"
       inkscape:connector-curvature="0"
       style="opacity:1;fill:#312725" />
    <path
       d="m 491.81,223.94 c 4.55,0.49 9.96,-1.36 13.83,1.76 -2.28,4.25 -3.41,9.04 -6.13,13.06 0.59,0.63 1.18,1.26 1.79,1.88 2.49,-5.22 4.78,-10.54 6.8,-15.97 1.88,3.93 3.03,8.15 4.3,12.31 -0.22,0.66 -0.68,2 -0.9,2.67 -4.37,0.4 -8.7,1.12 -13.08,1.38 -0.22,-0.28 -0.66,-0.83 -0.88,-1.1 -4.07,-0.05 -8.36,0.79 -12.03,-1.48 1.96,-4.9 4.21,-9.67 6.3,-14.51 z"
       id="path825"
       inkscape:connector-curvature="0"
       style="opacity:1;fill:#312725" />
  </g>
  <g
     id="#594641ff"
     transform="scale(0.08)">
    <path
       d="m 505.64,225.7 c 0.62,-1.14 1.29,-2.25 1.98,-3.36 0.12,0.59 0.36,1.75 0.48,2.33 -2.02,5.43 -4.31,10.75 -6.8,15.97 -0.61,-0.62 -1.2,-1.25 -1.79,-1.88 2.72,-4.02 3.85,-8.81 6.13,-13.06 z"
       id="path828"
       inkscape:connector-curvature="0"
       style="opacity:1;fill:#594641" />
  </g>
  <g
     id="#504543ff"
     transform="scale(0.08)">
    <path
       d="m 457.59,230.78 c 0.73,-1.7 1.51,-3.37 2.27,-5.06 0.25,0.69 0.75,2.05 0.99,2.73 l 0.17,0.58 c -1.72,3.87 -3.4,7.75 -5.05,11.64 -1.83,3.15 -2,8.02 -5.8,9.5 1.43,-6.82 5.07,-12.88 7.42,-19.39 z"
       id="path831"
       inkscape:connector-curvature="0"
       style="opacity:1;fill:#504543" />
  </g>
  <g
     id="#443123ff"
     transform="scale(0.08)">
    <path
       d="m 283.03,229.15 c 2.69,1.08 5.4,2.15 8.14,3.15 -0.22,13.7 -9.42,24.58 -14.05,36.89 -6.87,16.47 -13.99,32.83 -20.54,49.42 -2.12,5.18 -5.41,9.75 -8.56,14.33 -3.14,4.52 -7.82,7.65 -11.08,12.06 3.51,-0.96 6.9,-2.31 10.26,-3.7 -1,3.59 -2.13,7.34 -4.91,10 -2.89,2.79 -5.15,6.13 -7.83,9.11 -5.01,4.61 -10.88,8.13 -16.68,11.63 6,-16.96 14.34,-32.96 22.04,-49.18 3.86,-8.13 8,-16.13 12.02,-24.18 8.52,-17.69 15.67,-36 24.21,-53.68 2.49,-5.21 4.34,-10.71 6.98,-15.85 z"
       id="path834"
       inkscape:connector-curvature="0"
       style="opacity:1;fill:#443123" />
    <path
       d="m 304.59,232.77 c 2.84,-1 5.66,-2.06 8.48,-3.1 3.69,7.8 6.62,15.96 10.58,23.65 6.44,14.25 12.47,28.7 19.04,42.89 12.05,24.58 24.89,48.85 34.77,74.41 -4.45,-0.96 -7.97,-3.98 -11.65,-6.47 -4.6,-3.01 -7.66,-7.69 -11.55,-11.48 -3.02,-2.88 -4.39,-6.91 -5.3,-10.87 3.39,1.04 6.76,2.17 10.16,3.2 -3.24,-4.15 -7.49,-7.32 -10.84,-11.35 -4.72,-6 -8.47,-12.74 -10.99,-19.95 -7.45,-17.81 -14.68,-35.73 -22.59,-53.34 -5.05,-8.45 -9.35,-17.63 -10.11,-27.59 z"
       id="path836"
       inkscape:connector-curvature="0"
       style="opacity:1;fill:#443123" />
  </g>
  <g
     id="#2e2625ff"
     transform="scale(0.08)">
    <path
       d="m 429.96,229.67 c 9.2,0.9 18.53,-0.72 27.63,1.11 -2.35,6.51 -5.99,12.57 -7.42,19.39 -6.51,-6.41 -15.33,-9.98 -24.32,-10.99 1.46,-3.14 2.72,-6.35 4.11,-9.51 z"
       id="path839"
       inkscape:connector-curvature="0"
       style="opacity:1;fill:#2e2625" />
  </g>
  <g
     id="#2f2725ff"
     transform="scale(0.08)">
    <path
       d="m 461.02,229.03 c 8.82,0.24 17.72,-0.66 26.48,0.67 -0.92,2.24 -1.85,4.48 -2.72,6.74 -0.8,1.8 -1.64,3.58 -2.43,5.39 -1.22,-2.38 -4.19,-1.66 -6.36,-1.85 -6.68,0.17 -13.41,-0.52 -20.02,0.69 1.65,-3.89 3.33,-7.77 5.05,-11.64 z"
       id="path842"
       inkscape:connector-curvature="0"
       style="opacity:1;fill:#2f2725" />
  </g>
  <g
     id="#35251bff"
     transform="scale(0.08)">
    <path
       d="m 291.17,232.3 c 1.24,0.25 2.49,0.51 3.74,0.77 -2.14,6.89 -4.89,13.58 -7.44,20.33 -6.53,17.38 -13.1,34.76 -20.18,51.92 -3.59,9.05 -8.53,17.47 -12.51,26.35 -7.02,15.55 -13.48,31.54 -16.83,48.33 -1.39,6.27 -0.22,13.79 -5.23,18.69 -4.75,4.23 -10.46,7.83 -16.8,8.95 -5.36,1.05 -10.04,-4.93 -8.29,-9.94 2.74,-8.77 6.27,-17.34 10.15,-25.66 5.8,-3.5 11.67,-7.02 16.68,-11.63 2.68,-2.98 4.94,-6.32 7.83,-9.11 2.78,-2.66 3.91,-6.41 4.91,-10 -3.36,1.39 -6.75,2.74 -10.26,3.7 3.26,-4.41 7.94,-7.54 11.08,-12.06 3.15,-4.58 6.44,-9.15 8.56,-14.33 6.55,-16.59 13.67,-32.95 20.54,-49.42 4.63,-12.31 13.83,-23.19 14.05,-36.89 z"
       id="path845"
       inkscape:connector-curvature="0"
       style="opacity:1;fill:#35251b" />
    <path
       d="m 300.96,233.14 c 1.21,-0.13 2.42,-0.25 3.63,-0.37 0.76,9.96 5.06,19.14 10.11,27.59 7.91,17.61 15.14,35.53 22.59,53.34 2.52,7.21 6.27,13.95 10.99,19.95 3.35,4.03 7.6,7.2 10.84,11.35 -3.4,-1.03 -6.77,-2.16 -10.16,-3.2 0.91,3.96 2.28,7.99 5.3,10.87 3.89,3.79 6.95,8.47 11.55,11.48 3.68,2.49 7.2,5.51 11.65,6.47 3.68,8.72 7.52,17.42 10.39,26.45 1.58,4.11 -0.77,9.47 -5.18,10.48 -4.98,0.7 -9.63,-1.88 -13.73,-4.38 -4.28,-2.55 -8.72,-6.01 -9.63,-11.22 -2.18,-25.35 -12.95,-48.84 -23.69,-71.55 -6.15,-11.43 -10.7,-23.61 -15.37,-35.7 -6.51,-17.15 -13.41,-34.19 -19.29,-51.56 z"
       id="path847"
       inkscape:connector-curvature="0"
       style="opacity:1;fill:#35251b" />
  </g>
  <g
     id="#303d46ff"
     transform="scale(0.08)">
    <path
       d="m 482.35,241.83 c 0.79,-1.81 1.63,-3.59 2.43,-5.39 0.18,0.5 0.55,1.5 0.73,2.01 -1.57,5.39 -4.82,10.15 -5.96,15.7 -1.39,4.31 -3.2,8.46 -4.89,12.65 -3.08,5.82 -5.07,12.15 -8.41,17.84 0.1,-1.79 0.2,-3.57 0.29,-5.35 3.13,-7.17 5.93,-14.47 8.96,-21.67 2.15,-5.32 4.52,-10.55 6.85,-15.79 z"
       id="path850"
       inkscape:connector-curvature="0"
       style="opacity:1;fill:#303d46" />
  </g>
  <g
     id="#242426ff"
     transform="scale(0.08)">
    <path
       d="m 512.4,236.98 c 2.02,5.93 3.05,12.13 4.67,18.18 l -0.77,0.03 c -9.77,-0.28 -19.55,-0.22 -29.33,-0.15 -2.5,0 -4.97,-0.43 -7.42,-0.89 1.14,-5.55 4.39,-10.31 5.96,-15.7 3.67,2.27 7.96,1.43 12.03,1.48 0.22,0.27 0.66,0.82 0.88,1.1 4.38,-0.26 8.71,-0.98 13.08,-1.38 0.22,-0.67 0.68,-2.01 0.9,-2.67 z"
       id="path853"
       inkscape:connector-curvature="0"
       style="opacity:1;fill:#242426" />
  </g>
  <g
     id="#232426ff"
     transform="scale(0.08)">
    <path
       d="m 84.32,255.36 c 1.51,-5.82 2.4,-11.83 4.53,-17.47 0.1,0.62 0.29,1.85 0.39,2.47 5.31,0.18 10.56,-0.47 15.76,-1.49 7.12,-0.17 14.29,-0.49 21.39,0.4 -8.17,0.96 -16.4,0.3 -24.58,0.92 2.31,3.44 5.26,6.36 8.23,9.22 -2.21,2.17 -3.57,4.98 -4.68,7.82 -5.8,-0.51 -11.62,-0.04 -17.42,-0.25 -1.42,0.07 -2.52,-0.88 -3.62,-1.62 z"
       id="path856"
       inkscape:connector-curvature="0"
       style="opacity:1;fill:#232426" />
  </g>
  <g
     id="#252426ff"
     transform="scale(0.08)">
    <path
       d="m 455.97,240.67 c 6.61,-1.21 13.34,-0.52 20.02,-0.69 2.17,0.19 5.14,-0.53 6.36,1.85 -2.33,5.24 -4.7,10.47 -6.85,15.79 -1,-0.82 -2.02,-1.81 -3.43,-1.66 -5.43,-0.15 -10.89,0.39 -16.28,-0.46 -1.7,-1.96 -3.67,-3.64 -5.62,-5.33 3.8,-1.48 3.97,-6.35 5.8,-9.5 z"
       id="path859"
       inkscape:connector-curvature="0"
       style="opacity:1;fill:#252426" />
  </g>
  <g
     id="#273841ff"
     transform="scale(0.08)">
    <path
       d="m 105.36,257.23 c 1.11,-2.84 2.47,-5.65 4.68,-7.82 -1.69,7.62 -5.77,14.41 -8.4,21.71 -1.83,3.98 -2.97,8.41 -6.02,11.7 0.53,-3.19 1.62,-6.25 2.97,-9.17 2.32,-5.45 4.54,-10.94 6.77,-16.42 z"
       id="path862"
       inkscape:connector-curvature="0"
       style="opacity:1;fill:#273841" />
  </g>
  <g
     id="#1a2226ff"
     transform="scale(0.08)">
    <path
       d="m 110.04,249.41 c 2.36,2.38 4.82,4.67 7.21,7.02 -3.62,4.59 -4.96,10.41 -7.32,15.66 -2.79,0.02 -5.56,-0.42 -8.29,-0.97 2.63,-7.3 6.71,-14.09 8.4,-21.71 z"
       id="path865"
       inkscape:connector-curvature="0"
       style="opacity:1;fill:#1a2226" />
    <path
       d="m 455.79,255.5 c 5.39,0.85 10.85,0.31 16.28,0.46 1.41,-0.15 2.43,0.84 3.43,1.66 -3.03,7.2 -5.83,14.5 -8.96,21.67 -1.54,-8.69 -5.49,-16.76 -10.75,-23.79 z"
       id="path867"
       inkscape:connector-curvature="0"
       style="opacity:1;fill:#1a2226" />
  </g>
  <g
     id="#1b2226ff"
     transform="scale(0.08)">
    <path
       d="m 474.66,266.8 c 1.69,-4.19 3.5,-8.34 4.89,-12.65 2.45,0.46 4.92,0.89 7.42,0.89 9.78,-0.07 19.56,-0.13 29.33,0.15 -1.81,4.53 -3.63,9.05 -5.58,13.52 -1.33,-1.16 -2.96,-1.84 -4.73,-1.7 -10.44,-0.07 -20.9,0.3 -31.33,-0.21 z"
       id="path870"
       inkscape:connector-curvature="0"
       style="opacity:1;fill:#1b2226" />
  </g>
  <g
     id="#192127ff"
     transform="scale(0.08)">
    <path
       d="m 81.96,272.07 c 0.18,-5.64 1.31,-11.18 2.36,-16.71 1.1,0.74 2.2,1.69 3.62,1.62 5.8,0.21 11.62,-0.26 17.42,0.25 -2.23,5.48 -4.45,10.97 -6.77,16.42 -1.04,-0.77 -2.11,-1.68 -3.5,-1.62 -4.37,-0.33 -8.75,0.01 -13.13,0.04 z"
       id="path873"
       inkscape:connector-curvature="0"
       style="opacity:1;fill:#192127" />
  </g>
  <g
     id="#2f424eff"
     transform="scale(0.08)">
    <path
       d="m 516.3,255.19 0.77,-0.03 c 0.43,2.45 1.01,4.98 0.54,7.47 -2.22,4.7 -4.49,9.37 -6.44,14.18 -0.91,-0.97 -1.82,-1.94 -2.72,-2.9 0.76,-1.74 1.51,-3.47 2.27,-5.2 1.95,-4.47 3.77,-8.99 5.58,-13.52 z"
       id="path876"
       inkscape:connector-curvature="0"
       style="opacity:1;fill:#2f424e" />
  </g>
  <g
     id="#293942ff"
     transform="scale(0.08)">
    <path
       d="m 109.93,272.09 c 2.36,-5.25 3.7,-11.07 7.32,-15.66 l 0.95,0.98 c -2.11,4.82 -3.91,9.79 -6.38,14.45 -0.47,0.06 -1.41,0.17 -1.89,0.23 z"
       id="path879"
       inkscape:connector-curvature="0"
       style="opacity:1;fill:#293942" />
  </g>
  <g
     id="#0f1f27ff"
     transform="scale(0.08)">
    <path
       d="m 118.2,257.41 c 2.53,2.76 6.32,5.31 5.84,9.57 -0.16,7.28 -1.29,14.52 -1.23,21.82 -9.47,0.37 -18.98,0.39 -28.43,-0.32 -3.68,7.17 -5.99,14.92 -9.59,22.11 -0.31,-1.28 -0.85,-2.64 -0.1,-3.88 2.44,-5.65 5.75,-11.08 6.34,-17.35 -3.22,-0.39 -6.45,-0.65 -9.69,-0.77 -0.39,0.9 -0.76,1.81 -1.12,2.73 -0.24,-6.43 0.53,-12.93 1.74,-19.25 4.38,-0.03 8.76,-0.37 13.13,-0.04 1.39,-0.06 2.46,0.85 3.5,1.62 -1.35,2.92 -2.44,5.98 -2.97,9.17 3.05,-3.29 4.19,-7.72 6.02,-11.7 2.73,0.55 5.5,0.99 8.29,0.97 0.48,-0.06 1.42,-0.17 1.89,-0.23 2.47,-4.66 4.27,-9.63 6.38,-14.45 z"
       id="path882"
       inkscape:connector-curvature="0"
       style="opacity:1;fill:#0f1f27" />
    <path
       d="m 466.25,284.64 c 3.34,-5.69 5.33,-12.02 8.41,-17.84 10.43,0.51 20.89,0.14 31.33,0.21 1.77,-0.14 3.4,0.54 4.73,1.7 -0.76,1.73 -1.51,3.46 -2.27,5.2 -2.37,5.3 -4.57,10.67 -6.91,15.98 -0.59,1.3 -1.2,2.59 -1.76,3.9 -11.08,-2.02 -22.44,-0.11 -33.63,-1.01 -0.12,-2.71 -0.16,-5.44 0.1,-8.14 z"
       id="path884"
       inkscape:connector-curvature="0"
       style="opacity:1;fill:#0f1f27" />
  </g>
  <g
     id="#5f6164ff"
     transform="scale(0.08)">
    <path
       d="m 276.58,288.93 c 3.24,-8.72 12.05,-15.04 21.42,-14.79 10.19,-0.59 20.12,6.56 22.67,16.47 -3.75,1.29 -7.77,0.1 -11.62,0.34 -10.56,0.23 -21.13,-0.35 -31.67,0.44 -0.2,-0.61 -0.6,-1.84 -0.8,-2.46 z"
       id="path887"
       inkscape:connector-curvature="0"
       style="opacity:1;fill:#5f6164" />
  </g>
  <g
     id="#1a3e50ff"
     transform="scale(0.08)">
    <path
       d="m 501.54,289.89 c 2.34,-5.31 4.54,-10.68 6.91,-15.98 0.9,0.96 1.81,1.93 2.72,2.9 -1.96,4.92 -4.05,9.78 -6.03,14.69 -1.21,-0.54 -2.41,-1.08 -3.6,-1.61 z"
       id="path890"
       inkscape:connector-curvature="0"
       style="opacity:1;fill:#1a3e50" />
  </g>
  <g
     id="#56585aff"
     transform="scale(0.08)">
    <path
       d="m 277.54,303.06 c -2.25,-4.33 -2.04,-9.5 -0.96,-14.13 0.2,0.62 0.6,1.85 0.8,2.46 10.54,-0.79 21.11,-0.21 31.67,-0.44 3.85,-0.24 7.87,0.95 11.62,-0.34 1.19,4.9 -0.07,9.89 -2.19,14.32 -3.56,-2.89 -8.28,-1.93 -12.5,-1.99 -9.48,0 -18.96,-0.04 -28.44,0.12 z"
       id="path893"
       inkscape:connector-curvature="0"
       style="opacity:1;fill:#56585a" />
  </g>
  <g
     id="#5b5d60ff"
     transform="scale(0.08)">
    <path
       d="m 41.18,290.26 c 5.39,-1.96 11.68,3 11.16,8.69 0.09,2.6 -1.69,4.64 -3.15,6.59 -3.65,-2.38 -7.58,-4.3 -11.2,-6.72 -1.33,-0.85 -1.77,-2.47 -2.54,-3.75 1.48,-2.03 3.16,-4.17 5.73,-4.81 z"
       id="path896"
       inkscape:connector-curvature="0"
       style="opacity:1;fill:#5b5d60" />
  </g>
  <g
     id="#0c3a50ff"
     transform="scale(0.08)">
    <path
       d="m 499.78,293.79 c 0.56,-1.31 1.17,-2.6 1.76,-3.9 1.19,0.53 2.39,1.07 3.6,1.61 -7.62,19.43 -15.54,38.74 -23.75,57.92 -0.23,1.83 -2.39,1.71 -3,0.19 -1.54,-1.56 -1.26,-3.76 -0.34,-5.55 7.33,-16.72 14.72,-33.42 21.73,-50.27 z"
       id="path899"
       inkscape:connector-curvature="0"
       style="opacity:1;fill:#0c3a50" />
    <path
       d="m 303.74,329.66 c 0.98,-1.82 3.41,-1.27 5.11,-1.75 -1.69,5.2 -3.82,10.34 -7.45,14.51 -3.29,4.36 -3.38,10.18 -6.15,14.8 -0.85,1.31 -3.7,0.59 -2.96,-1.15 1.23,-4.09 3.39,-7.82 4.95,-11.78 2.23,-4.84 3.95,-9.94 6.5,-14.63 z"
       id="path901"
       inkscape:connector-curvature="0"
       style="opacity:1;fill:#0c3a50" />
    <path
       d="m 103.76,399.94 c 6.47,-15.77 13.86,-31.15 19.95,-47.08 0.44,6.37 0.56,12.77 0.4,19.16 -0.06,4.07 -2.15,7.67 -3.76,11.29 -3.85,8.27 -6.87,16.89 -10.51,25.26 -0.45,-0.02 -1.35,-0.06 -1.81,-0.08 -1.27,-2.93 -2.76,-5.75 -4.27,-8.55 z"
       id="path903"
       inkscape:connector-curvature="0"
       style="opacity:1;fill:#0c3a50" />
    <path
       d="m 257.36,417.39 c 4.82,-13.44 11.23,-26.23 16.47,-39.5 -0.19,1.94 -0.47,3.9 -1.2,5.72 -3.5,9.18 -7.57,18.15 -10.64,27.49 -1.28,4.12 -3.77,7.71 -5.24,11.75 -0.45,1.45 -2.11,3.77 -3.04,1.22 1.23,-2.22 2.76,-4.28 3.65,-6.68 z"
       id="path905"
       inkscape:connector-curvature="0"
       style="opacity:1;fill:#0c3a50" />
    <path
       d="m 178.26,379.76 c 3.27,4.04 -0.02,8.85 -1.61,12.83 -6.64,16.37 -13.39,32.69 -20.11,49.02 -1,2.31 -2.01,5.01 -4.58,5.99 -2.18,-1.47 -0.6,-3.78 -0.01,-5.65 3.09,-7.56 6.05,-15.16 9.49,-22.57 5.95,-13.06 10.87,-26.57 16.82,-39.62 z"
       id="path907"
       inkscape:connector-curvature="0"
       style="opacity:1;fill:#0c3a50" />
    <path
       d="m 456.39,395.33 c 1.13,-1.99 3.9,-0.81 5.76,-1.2 -2.52,8.4 -6.46,16.29 -9.43,24.53 -2.99,7.92 -7.3,15.3 -9.72,23.45 -5.12,13.05 -10.98,25.8 -16.21,38.8 -2.77,2.73 -6.31,4.52 -9.58,6.58 0.34,-3.04 1.36,-5.93 2.67,-8.67 6.58,-14.53 12.27,-29.45 19.1,-43.85 0.83,-2.16 1.44,-4.4 2.51,-6.46 6.15,-10.49 9.1,-22.51 14.9,-33.18 z"
       id="path909"
       inkscape:connector-curvature="0"
       style="opacity:1;fill:#0c3a50" />
    <path
       d="m 281.5,404.43 c 0.62,-0.74 1.43,-1.25 2.43,-1.52 -2.14,6.9 -5.83,13.23 -7.75,20.22 -0.77,3.24 -2.63,6.01 -4.13,8.93 -1.9,6.35 -3.54,13.22 -8.09,18.26 -0.44,-5.68 2.26,-10.84 4.41,-15.91 4.03,-10.15 8.42,-20.13 13.13,-29.98 z"
       id="path911"
       inkscape:connector-curvature="0"
       style="opacity:1;fill:#0c3a50" />
    <path
       d="m 194.26,419.26 c 1.8,0.65 3.6,1.31 5.4,1.99 -8.09,20.07 -16.57,39.99 -24.82,60.01 -1.81,-1.17 -3.62,-2.34 -5.4,-3.53 1.07,-3.27 2.31,-6.48 3.74,-9.61 7.16,-16.23 13.63,-32.77 21.08,-48.86 z"
       id="path913"
       inkscape:connector-curvature="0"
       style="opacity:1;fill:#0c3a50" />
    <path
       d="m 371.15,483.1 c 2.43,-5.84 4.5,-11.9 7.91,-17.28 -2,8.32 -5.7,16.11 -9.46,23.76 -3.02,7.43 -6.03,14.87 -8.97,22.34 -0.51,0.29 -1.52,0.88 -2.03,1.17 3.89,-10.12 8.76,-19.83 12.55,-29.99 z"
       id="path915"
       inkscape:connector-curvature="0"
       style="opacity:1;fill:#0c3a50" />
  </g>
  <g
     id="#4e4f51ff"
     transform="scale(0.08)">
    <path
       d="m 41.12,306.93 c -4.89,-1.41 -7.51,-7.18 -5.67,-11.86 0.77,1.28 1.21,2.9 2.54,3.75 3.62,2.42 7.55,4.34 11.2,6.72 -2.44,1.35 -5.3,2.54 -8.07,1.39 z"
       id="path918"
       inkscape:connector-curvature="0"
       style="opacity:1;fill:#4e4f51" />
    <path
       d="m 277.54,303.06 c 9.48,-0.16 18.96,-0.12 28.44,-0.12 4.22,0.06 8.94,-0.9 12.5,1.99 -4.07,6.65 -11.63,11.04 -19.46,10.91 -8.81,0.51 -18.02,-4.52 -21.48,-12.78 z"
       id="path920"
       inkscape:connector-curvature="0"
       style="opacity:1;fill:#4e4f51" />
  </g>
  <g
     id="#0a3245ff"
     transform="scale(0.08)">
    <path
       d="m 108.84,311.17 c 0.16,-4.64 2.41,-8.96 5.29,-12.5 -0.59,4.51 -2.16,9.11 -5.29,12.5 z"
       id="path923"
       inkscape:connector-curvature="0"
       style="opacity:1;fill:#0a3245" />
    <path
       d="m 415.47,423.52 c 2.16,-4.27 3.53,-9.02 6.58,-12.78 -0.55,6.2 -4.66,11.24 -6.13,17.2 -1,2.15 -1.03,5.59 -3.83,6.18 -0.56,-3.89 2.07,-7.15 3.38,-10.6 z"
       id="path925"
       inkscape:connector-curvature="0"
       style="opacity:1;fill:#0a3245" />
  </g>
  <g
     id="#eaeaeaff"
     transform="scale(0.08)">
    <path
       d="m 185.08,314.13 c 11.41,-3.45 22.52,-7.91 34.06,-10.91 -0.72,3.04 -1.91,5.92 -3.13,8.78 -6.37,16.58 -12.86,33.12 -19.33,49.67 -0.77,2.25 -1.66,4.5 -3.16,6.38 -3.94,-16.91 -7.95,-33.82 -11.93,-50.72 -0.9,-2.24 2.09,-2.53 3.49,-3.2 z"
       id="path928"
       inkscape:connector-curvature="0"
       style="opacity:1;fill:#eaeaea" />
    <path
       d="m 379.28,304.93 c 3.68,1.23 6.66,3.8 9.9,5.85 4.4,3.01 8.99,5.74 13.33,8.86 1.87,14.77 3.41,29.58 5.25,44.36 0.7,4.55 -0.11,10.11 4.11,13.19 -4.33,-0.11 -8.84,0.41 -13.01,-0.88 -5.02,-11.46 -9.74,-23.08 -14.34,-34.72 -2.32,-12.12 -3.55,-24.44 -5.24,-36.66 z"
       id="path930"
       inkscape:connector-curvature="0"
       style="opacity:1;fill:#eaeaea" />
    <path
       d="m 151.63,326.64 c 5.91,-2.61 11.37,-6.4 17.69,-7.97 -1.14,4.02 -3.72,7.34 -5.78,10.9 -5.73,9.93 -11.51,19.83 -17.28,29.73 -2.04,3.36 -3.56,7.08 -6.25,10.01 -0.64,-7.73 -0.11,-15.5 -0.3,-23.24 0.18,-4.62 -0.53,-9.32 0.43,-13.86 3.5,-2.46 7.72,-3.58 11.49,-5.57 z"
       id="path932"
       inkscape:connector-curvature="0"
       style="opacity:1;fill:#eaeaea" />
    <path
       d="m 422.89,331.96 c 11.69,5.43 22.62,12.35 34.12,18.15 4.52,2.01 6.66,6.71 9.47,10.46 3.51,5.2 7.64,10 10.63,15.54 -8.69,0.52 -17.44,0.36 -26.14,0.15 -6.91,-11.63 -14.71,-22.81 -21.97,-34.27 -2.12,-3.29 -4.62,-6.38 -6.11,-10.03 z"
       id="path934"
       inkscape:connector-curvature="0"
       style="opacity:1;fill:#eaeaea" />
  </g>
  <g
     id="#0b3347ff"
     transform="scale(0.08)">
    <path
       d="m 101.59,325.6 c 2.06,-4.24 3.46,-8.84 6.27,-12.68 -0.5,7.5 -5.32,13.62 -7.3,20.69 -1.22,3.17 -1.73,7.02 -4.73,9.09 -0.47,-1.29 -0.82,-2.72 -0.14,-4 1.74,-4.47 3.83,-8.78 5.9,-13.1 z"
       id="path937"
       inkscape:connector-curvature="0"
       style="opacity:1;fill:#0b3347" />
  </g>
  <g
     id="#0a2f41ff"
     transform="scale(0.08)">
    <path
       d="m 469.61,317.96 c 0.58,2.99 -1.09,5.76 -2.03,8.5 -0.86,1.7 -1.21,4.19 -3.43,4.62 0.7,-4.75 2.98,-9.07 5.46,-13.12 z"
       id="path940"
       inkscape:connector-curvature="0"
       style="opacity:1;fill:#0a2f41" />
    <path
       d="m 293.76,475.81 c 1.18,-2.44 1.74,-5.55 4.33,-6.93 -0.87,5.06 -3.42,9.62 -5.71,14.15 -0.93,-2.5 0.57,-4.92 1.38,-7.22 z"
       id="path942"
       inkscape:connector-curvature="0"
       style="opacity:1;fill:#0a2f41" />
  </g>
  <g
     id="#0c3a51ff"
     transform="scale(0.08)">
    <path
       d="m 288.34,328.39 c 0.64,-0.03 1.93,-0.1 2.57,-0.13 -0.7,3.78 -2.62,7.15 -4.06,10.67 -2.36,5.34 -4.4,10.81 -6.69,16.18 -0.86,1.75 -1.78,4.31 -4.19,4.15 0.16,-1.77 0.34,-3.57 1.14,-5.18 3.92,-8.49 7.39,-17.17 11.23,-25.69 z"
       id="path945"
       inkscape:connector-curvature="0"
       style="opacity:1;fill:#0c3a51" />
    <path
       d="m 352.57,431.57 c 2.52,-5.77 4.64,-11.75 7.86,-17.18 0.38,1.08 0.46,2.18 0.23,3.27 -13.99,34.09 -28.97,67.82 -42.07,102.28 -1.26,0.08 -2.52,0.16 -3.77,0.25 4.82,-11.64 10.06,-23.1 14.51,-34.89 3.27,-8.78 7.53,-17.13 11.25,-25.71 4.06,-9.31 7.95,-18.7 11.99,-28.02 z"
       id="path947"
       inkscape:connector-curvature="0"
       style="opacity:1;fill:#0c3a51" />
  </g>
  <g
     id="#0a3143ff"
     transform="scale(0.08)">
    <path
       d="m 501.85,364.96 c 2.07,-4.34 3.58,-8.97 6.13,-13.07 0.53,0.98 0.51,2.08 0,3.07 -2.33,5.65 -4.73,11.27 -7,16.95 -0.75,1.62 -1.26,3.62 -3.09,4.36 0.09,-4.11 2.48,-7.61 3.96,-11.31 z"
       id="path950"
       inkscape:connector-curvature="0"
       style="opacity:1;fill:#0a3143" />
    <path
       d="m 320.28,458.23 c 0.59,-1.42 1.58,-2.6 2.8,-3.53 -0.44,4.31 -2.91,7.99 -4.35,11.99 -1.12,1.79 -1.2,5.27 -3.73,5.46 1.08,-4.87 3.21,-9.41 5.28,-13.92 z"
       id="path952"
       inkscape:connector-curvature="0"
       style="opacity:1;fill:#0a3143" />
  </g>
  <g
     id="#0a3346ff"
     transform="scale(0.08)">
    <path
       d="m 317.31,366.31 c 2.07,-3.74 3.41,-7.84 5.64,-11.5 -0.18,4.37 -2.19,8.31 -3.82,12.27 -4.1,8.95 -7.99,18.21 -13.99,26.07 1.99,-9.74 7.77,-18.08 12.17,-26.84 z"
       id="path955"
       inkscape:connector-curvature="0"
       style="opacity:1;fill:#0a3346" />
    <path
       d="m 380.67,429.64 c 1.41,-2.77 2.27,-6.13 5.04,-7.88 -1.16,4.48 -3.52,8.52 -4.96,12.91 -0.66,1.66 -1.01,3.69 -2.78,4.58 -0.58,-3.48 1.47,-6.53 2.7,-9.61 z"
       id="path957"
       inkscape:connector-curvature="0"
       style="opacity:1;fill:#0a3346" />
  </g>
  <g
     id="#0c3b51ff"
     transform="scale(0.08)">
    <path
       d="m 269,368.81 c 1.83,-4.06 3.38,-8.26 5.8,-12.02 -0.84,3.01 -1.95,5.93 -3.22,8.79 -6.77,15.68 -13.2,31.51 -19.9,47.23 -5.64,15.11 -12.15,29.89 -18.29,44.8 -6.37,15.18 -12.27,30.55 -18.99,45.58 -0.61,-0.25 -1.83,-0.76 -2.45,-1.01 10.33,-23.52 19.97,-47.35 30.34,-70.85 9.22,-20.71 17.29,-41.9 26.71,-62.52 z"
       id="path960"
       inkscape:connector-curvature="0"
       style="opacity:1;fill:#0c3b51" />
  </g>
  <g
     id="#c35b1dff"
     transform="scale(0.08)">
    <path
       d="m 591.06,358.67 c 1.07,-0.04 2.14,-0.07 3.22,-0.11 -4.46,22.86 -11.73,45.16 -21.43,66.33 -27.01,59.26 -73.98,109.08 -131.4,139.76 -3.13,-0.45 -6.23,-1.01 -9.29,-1.75 45.54,-23.02 84.96,-57.99 113.11,-100.56 20.72,-31.02 35.19,-66.09 42.97,-102.55 0.35,0.61 0.71,1.23 1.08,1.85 0.57,-0.99 1.15,-1.98 1.74,-2.97 z"
       id="path963"
       inkscape:connector-curvature="0"
       style="opacity:1;fill:#c35b1d" />
  </g>
  <g
     id="#0c3447ff"
     transform="scale(0.08)">
    <path
       d="m 512.27,359.77 c 0.3,-0.11 0.89,-0.34 1.19,-0.46 -2.29,8.61 -5.02,17.21 -9.12,25.15 -2.37,-3.21 0.01,-6.74 1.28,-9.86 2.33,-4.89 3.95,-10.12 6.65,-14.83 z"
       id="path966"
       inkscape:connector-curvature="0"
       style="opacity:1;fill:#0c3447" />
    <path
       d="m 497.53,394.55 c 0.95,-0.05 1.91,-0.1 2.87,-0.13 -2.46,5.16 -4.9,10.36 -8.06,15.13 0.11,-5.42 3.16,-10.14 5.19,-15 z"
       id="path968"
       inkscape:connector-curvature="0"
       style="opacity:1;fill:#0c3447" />
  </g>
  <g
     id="#c25b1dff"
     transform="scale(0.08)">
    <path
       d="m 7.52,367.08 c 1.06,0.46 2.12,0.95 3.19,1.39 0.27,-0.4 0.8,-1.2 1.07,-1.6 12.1,50.89 37.74,98.54 74.06,136.24 22.22,23.38 48.36,42.98 76.91,57.96 -3.4,-0.04 -6.8,0.25 -10.2,0.25 C 128.7,547.84 106.67,531.08 87.39,511.61 47.92,472.19 19.85,421.48 7.52,367.08 Z"
       id="path971"
       inkscape:connector-curvature="0"
       style="opacity:1;fill:#c25b1d" />
  </g>
  <g
     id="#0a3042ff"
     transform="scale(0.08)">
    <path
       d="m 330.45,395.58 c 2.64,-5.41 4.15,-11.48 7.91,-16.27 0.04,1.43 -0.27,2.84 -0.87,4.15 -3.18,7.25 -6.11,14.62 -9.13,21.94 -0.56,1.37 -1.42,2.59 -2.32,3.76 -0.31,-4.93 2.83,-9.11 4.41,-13.58 z"
       id="path974"
       inkscape:connector-curvature="0"
       style="opacity:1;fill:#0a3042" />
  </g>
  <g
     id="#0a2f40ff"
     transform="scale(0.08)">
    <path
       d="m 408.91,464.97 c 0.82,-1.91 1.4,-4.08 3.2,-5.34 -0.15,4.17 -2.36,7.81 -3.88,11.59 -1.02,2.14 -1.73,4.67 -3.88,5.98 0.81,-4.32 2.98,-8.18 4.56,-12.23 z"
       id="path977"
       inkscape:connector-curvature="0"
       style="opacity:1;fill:#0a2f40" />
  </g>
  <g
     id="#0a3144ff"
     transform="scale(0.08)">
    <path
       d="m 201.73,479.46 c 0.7,-5.35 3.3,-10.36 6.35,-14.75 -0.5,4.11 -2.25,7.89 -3.73,11.71 -0.43,1.34 -1.41,2.35 -2.62,3.04 z"
       id="path980"
       inkscape:connector-curvature="0"
       style="opacity:1;fill:#0a3144" />
  </g>
  <g
     id="#5c5e60ff"
     transform="scale(0.08)">
    <path
       d="m 474.2,476.65 c 4.58,-1.9 10.62,0.11 12.15,5.1 1.68,4.12 -0.77,8.51 -4.19,10.84 -1.48,-0.44 -2.95,-0.85 -4.41,-1.26 -1.38,-4.85 -2.84,-9.68 -3.55,-14.68 z"
       id="path983"
       inkscape:connector-curvature="0"
       style="opacity:1;fill:#5c5e60" />
  </g>
  <g
     id="#4e5052ff"
     transform="scale(0.08)">
    <path
       d="m 124.57,476.77 c 1.32,3.75 0.31,8.3 -3.09,10.61 -4.12,2.88 -10.17,1.55 -12.84,-2.67 4.99,-0.98 9.96,-2.08 14.9,-3.32 0.34,-1.55 0.68,-3.09 1.03,-4.62 z"
       id="path986"
       inkscape:connector-curvature="0"
       style="opacity:1;fill:#4e5052" />
    <path
       d="m 302.52,551.02 c 3.03,3.39 3.28,9.11 0.02,12.44 -2.44,2.53 -6.22,3.07 -9.51,2.24 5.19,-3.17 7,-9.49 9.49,-14.68 z"
       id="path988"
       inkscape:connector-curvature="0"
       style="opacity:1;fill:#4e5052" />
  </g>
  <g
     id="#bb5d1eff"
     transform="scale(0.08)">
    <path
       d="m 152.55,561.32 c 3.4,0 6.8,-0.29 10.2,-0.25 46.62,24.32 99.79,35.86 152.3,32.9 40.65,-2.01 80.76,-12.82 117.11,-31.07 3.06,0.74 6.16,1.3 9.29,1.75 -40.75,21.9 -86.63,33.9 -132.84,35.35 h -17.24 c -48.49,-1.52 -96.63,-14.67 -138.82,-38.68 z"
       id="path991"
       inkscape:connector-curvature="0"
       style="opacity:1;fill:#bb5d1e" />
  </g>
</svg>
