<?xml version="1.0" encoding="utf-8"?>
<!-- Generator: Adobe Illustrator 23.0.2, SVG Export Plug-In . SVG Version: 6.00 Build 0)  -->
<svg version="1.1" id="Layer_1" xmlns="http://www.w3.org/2000/svg" xmlns:xlink="http://www.w3.org/1999/xlink" x="0px" y="0px"
	 width="64px" height="64px" viewBox="0 0 64 64" enable-background="new 0 0 64 64" xml:space="preserve">
<g>
	<g>
		<path fill="#05071D" d="M31.797,64c-0.064-0.076-0.123-0.156-0.193-0.226C21.145,53.314,10.686,42.855,0.226,32.397
			c-0.07-0.07-0.151-0.129-0.226-0.194c0-0.023,0-0.045,0-0.068c0.084-0.072,0.172-0.139,0.25-0.217
			c3.373-3.371,6.746-6.744,10.169-10.166c0.081,0.103,0.151,0.215,0.242,0.306c6.982,6.986,13.968,13.968,20.945,20.959
			c0.208,0.208,0.304,0.213,0.514,0.002c2.782-2.799,5.578-5.584,8.361-8.381c0.198-0.199,0.29-0.202,0.489-0.001
			c3.286,3.3,6.579,6.592,9.878,9.878c0.208,0.207,0.233,0.314,0.008,0.538c-6.234,6.22-12.459,12.448-18.684,18.675
			c-0.086,0.086-0.161,0.182-0.241,0.273C31.887,64,31.842,64,31.797,64z"/>
		<path fill="#05071D" d="M32.203,0c0.064,0.076,0.123,0.156,0.193,0.226c10.458,10.46,20.918,20.919,31.377,31.377
			c0.07,0.07,0.151,0.129,0.226,0.194c0,0.045,0,0.09,0,0.135c-0.084,0.072-0.172,0.139-0.25,0.217
			c-3.285,3.283-6.571,6.564-9.846,9.857c-0.215,0.216-0.311,0.198-0.514-0.006c-7.064-7.075-14.134-14.144-21.254-21.264
			c-0.082,0.104-0.153,0.216-0.244,0.308c-2.772,2.775-5.548,5.547-8.316,8.326c-0.177,0.178-0.269,0.206-0.464,0.01
			c-3.3-3.315-6.608-6.623-9.923-9.923c-0.203-0.202-0.193-0.293,0.004-0.489c6.238-6.227,12.47-12.461,18.702-18.695
			C31.98,0.187,32.055,0.091,32.135,0C32.158,0,32.18,0,32.203,0z"/>
		<path fill="#EB128A" d="M30.144,29.63c0.74,0.742,1.469,1.48,2.206,2.208c0.125,0.123,0.135,0.196,0.003,0.321
			c-0.284,0.27-0.577,0.53-0.861,0.799c-0.398,0.377-0.766,0.787-1.133,1.195c-0.179,0.198-0.295,0.164-0.455-0.025
			c-0.571-0.678-1.195-1.306-1.876-1.873c-0.196-0.163-0.276-0.279-0.034-0.486C28.761,31.113,29.413,30.341,30.144,29.63z"/>
		<path fill="#EA148A" d="M36.098,32.062c0.263,0.04,0.63-0.122,0.792,0.069c0.135,0.16,0.047,0.514,0.047,0.783
			c0,0.268,0.088,0.624-0.048,0.782c-0.161,0.187-0.528,0.055-0.805,0.059c-0.267,0.004-0.611,0.117-0.781-0.046
			c-0.172-0.166-0.035-0.512-0.056-0.778c-0.001-0.011-0.001-0.023,0-0.034c0.021-0.266-0.117-0.613,0.056-0.778
			C35.474,31.955,35.818,32.088,36.098,32.062z"/>
		<path fill="#EA148A" d="M34.463,29.963c0.287,0.031,0.633-0.108,0.8,0.061c0.166,0.168,0.051,0.514,0.048,0.78
			c-0.003,0.277,0.128,0.644-0.057,0.806c-0.156,0.136-0.513,0.049-0.781,0.05c-0.269,0.001-0.623,0.09-0.783-0.046
			c-0.19-0.16-0.055-0.527-0.061-0.804c-0.005-0.267-0.118-0.617,0.044-0.782C33.851,29.848,34.207,30.004,34.463,29.963z"/>
		<path fill="#AE0F67" d="M10.293,36.606c-0.071-1.51,0.11-3.017,0.057-4.527c0.099-0.121,0.24-0.107,0.372-0.112
			c0.202-0.008,0.404,0,0.606-0.003c0.376-0.006,0.399-0.03,0.406-0.403c0.018-0.906,0.018-0.906-0.878-0.946
			c-0.388-0.018-0.463-0.091-0.472-0.49c-0.007-0.348,0.003-0.696-0.035-1.043c0-1.262,0-2.524,0-3.811
			c0.156,0.04,0.227,0.16,0.316,0.249c6.96,6.957,13.919,13.916,20.878,20.875c0.321,0.321,0.321,0.321,0.63,0.012
			c2.766-2.766,5.535-5.529,8.293-8.303c0.21-0.211,0.313-0.214,0.521,0c1.099,1.131,2.216,2.245,3.326,3.365
			c0.039,0.197-0.129,0.274-0.233,0.378c-1.03,1.038-2.062,2.074-3.104,3.1c-0.164,0.162-0.179,0.25-0.007,0.419
			c0.923,0.906,1.834,1.825,2.747,2.741c0.101,0.102,0.231,0.185,0.265,0.34c-0.315,0.321-0.627,0.646-0.945,0.964
			c-2.197,2.199-4.395,4.396-6.593,6.595c-0.087,0.087-0.167,0.181-0.25,0.272c-0.088,0.11-0.216,0.115-0.338,0.115
			c-1.911-0.002-3.821,0.027-5.731-0.013c-0.232-0.035-0.361-0.218-0.51-0.367c-4.744-4.742-9.486-9.485-14.229-14.228
			c-1.594-1.594-3.188-3.189-4.783-4.782C10.484,36.882,10.359,36.768,10.293,36.606z"/>
		<path fill="#EA148A" d="M10.293,36.606c0.076,0.066,0.156,0.128,0.227,0.199c6.416,6.415,12.832,12.831,19.247,19.247
			c0.071,0.071,0.136,0.15,0.204,0.225c-0.11,0.13-0.263,0.109-0.406,0.112c-0.348,0.007-0.697,0.01-1.045,0
			c-0.238-0.007-0.444,0.035-0.591,0.238c-0.083-0.075-0.168-0.147-0.247-0.226c-5.719-5.718-11.436-11.436-17.159-17.15
			c-0.172-0.172-0.254-0.336-0.247-0.584C10.298,37.98,10.29,37.293,10.293,36.606z"/>
		<path fill="#EA148A" d="M43.982,48.446c-0.459-0.447-0.921-0.892-1.377-1.343c-0.577-0.571-1.138-1.157-1.727-1.715
			c-0.204-0.193-0.167-0.292,0.011-0.467c1.067-1.052,2.124-2.115,3.182-3.176c0.087-0.087,0.162-0.185,0.243-0.278
			c1.071,1.062,2.141,2.125,3.216,3.183c0.105,0.103,0.104,0.169,0,0.272C46.345,46.095,45.164,47.271,43.982,48.446z"/>
		<path fill="#FEFEFE" d="M27.93,56.626c-0.024-0.261,0.062-0.362,0.355-0.348c0.561,0.028,1.125,0.002,1.687-0.002
			c2.075,0,4.149,0,6.224,0c0.54,0.028,0.549,0.028,0.537,0.585c-0.007,0.322,0.145,0.751-0.063,0.934
			c-0.18,0.158-0.6,0.045-0.914,0.047c-0.44,0.003-0.439,0.001-0.441,0.441c-0.002,0.336,0.12,0.789-0.049,0.979
			c-0.194,0.218-0.655,0.048-0.999,0.07c-0.011,0.001-0.023,0-0.034,0c-0.468,0-0.468,0-0.474-0.473
			c-0.001-0.045-0.007-0.09-0.011-0.134c-0.108-0.121-0.098-0.272-0.09-0.414c0.016-0.282-0.118-0.37-0.382-0.366
			c-0.558,0.009-1.116,0.005-1.674,0c-0.513,0.014-0.513,0.014-0.515,0.536c-0.001,0.19,0.009,0.381-0.007,0.571
			c-0.028,0.321-0.109,0.373-0.434,0.292c-0.338-0.004-0.676-0.016-1.014-0.007c-0.163,0.004-0.212-0.045-0.208-0.208
			c0.009-0.338-0.004-0.676-0.007-1.014c-0.037-0.136-0.124-0.222-0.26-0.26c-0.338-0.004-0.676-0.016-1.014-0.007
			c-0.163,0.004-0.212-0.045-0.208-0.208C27.946,57.302,27.933,56.964,27.93,56.626z"/>
		<path fill="#FEFEFE" d="M10.35,29.08c0.179,0.008,0.134,0.143,0.135,0.246c0.003,0.326,0.008,0.652-0.002,0.977
			c-0.005,0.159,0.042,0.218,0.207,0.212c0.314-0.011,0.629,0.005,0.943-0.006c0.163-0.006,0.213,0.05,0.209,0.21
			c-0.01,0.382-0.011,0.764,0,1.146c0.005,0.166-0.055,0.209-0.213,0.206c-0.427-0.006-0.853,0.004-1.28,0.008
			c-0.879-0.004-1.757-0.015-2.636-0.006c-0.218,0.002-0.29-0.051-0.278-0.276c0.02-0.359,0.013-0.721,0.002-1.081
			c-0.005-0.162,0.042-0.214,0.206-0.208c0.338,0.012,0.676-0.005,1.014,0.007c0.162,0.006,0.213-0.044,0.208-0.207
			c-0.012-0.338,0.005-0.676-0.007-1.014c-0.006-0.163,0.045-0.21,0.208-0.207C9.494,29.095,9.922,29.084,10.35,29.08z"/>
		<path fill="#EA148A" d="M30.647,59.343c0.259,0.023,0.382-0.059,0.345-0.353c-0.033-0.265,0.014-0.54-0.013-0.806
			c-0.028-0.285,0.07-0.389,0.349-0.342c0.088,0.015,0.179,0.009,0.268,0.013c0.296,0.135,0.483,0.397,0.699,0.62
			c0.271,0.279,0.599,0.507,0.792,0.858c-0.366,0.375-0.735,0.747-1.095,1.128c-0.111,0.117-0.178,0.079-0.27-0.016
			C31.367,60.074,31.006,59.71,30.647,59.343z"/>
		<path fill="#EA148A" d="M7.987,37.125c-0.355-0.359-0.721-0.741-1.1-1.109c-0.148-0.144-0.149-0.245,0.001-0.387
			c0.318-0.302,0.628-0.613,0.931-0.93c0.136-0.143,0.238-0.166,0.387-0.013c0.368,0.38,0.749,0.746,1.119,1.112
			C8.875,36.244,8.437,36.677,7.987,37.125z"/>
		<path fill="#AE0F67" d="M33.087,59.333c-0.529-0.46-1.013-0.966-1.491-1.478c0.652-0.004,1.304-0.003,1.956-0.014
			c0.162-0.003,0.219,0.048,0.209,0.21c-0.014,0.224-0.01,0.449-0.014,0.674C33.528,58.927,33.307,59.13,33.087,59.333z"/>
		<path fill="#EA148A" d="M7.187,33.324c-0.237,0.23-0.464,0.433-0.67,0.656c-0.126,0.136-0.203,0.119-0.321-0.007
			c-0.775-0.825-0.769-0.485-0.012-1.294c0.128-0.136,0.211-0.155,0.345-0.007C6.725,32.888,6.944,33.084,7.187,33.324z"/>
		<path fill="#EA148A" d="M29.158,57.855c0.227-0.054,0.314,0.033,0.26,0.26C29.331,58.028,29.245,57.941,29.158,57.855z"/>
		<path fill="#AE0F67" d="M20.092,15.488c0.082-0.091,0.16-0.187,0.247-0.274c2.405-2.407,4.811-4.812,7.216-7.219
			c0.087-0.087,0.167-0.181,0.25-0.272c0.088-0.11,0.216-0.115,0.338-0.115c1.911,0.002,3.821-0.027,5.731,0.013
			c0.232,0.035,0.361,0.218,0.51,0.367c4.736,4.734,9.471,9.469,14.205,14.204c1.602,1.602,3.204,3.204,4.807,4.806
			c0.12,0.12,0.245,0.234,0.311,0.396c0.004,1.509,0.007,3.018,0.011,4.527c-0.223,0.192-0.493,0.107-0.742,0.112
			c-0.774,0.016-0.707-0.065-0.709,0.71c-0.002,0.64,0,0.64,0.645,0.641c0.842,0.001,0.845,0.001,0.841,0.833
			c-0.001,0.257,0.034,0.516-0.034,0.771c0,1.248,0,2.497,0,3.766c-0.197-0.016-0.269-0.158-0.364-0.253
			c-6.951-6.948-13.901-13.898-20.851-20.848c-0.333-0.333-0.333-0.333-0.664-0.003c-2.742,2.742-5.483,5.483-8.225,8.225
			c-0.307,0.307-0.309,0.308-0.625-0.01c-1.079-1.087-2.157-2.176-3.235-3.264c-0.098-0.216,0.091-0.304,0.199-0.413
			c0.989-0.999,1.985-1.99,2.979-2.985c0.328-0.328,0.328-0.329,0.004-0.653c-0.882-0.883-1.767-1.763-2.645-2.651
			C20.184,15.792,19.994,15.704,20.092,15.488z"/>
		<path fill="#EA148A" d="M53.707,27.394c-0.076-0.066-0.156-0.128-0.227-0.199C47.063,20.78,40.648,14.364,34.232,7.948
			c-0.071-0.071-0.136-0.15-0.204-0.225c0.109-0.13,0.262-0.11,0.405-0.112c0.381-0.007,0.762-0.007,1.142,0
			c0.209,0.004,0.399-0.032,0.562-0.169c0.083,0.075,0.168,0.147,0.247,0.226c5.696,5.695,11.391,11.391,17.09,17.082
			c0.172,0.172,0.255,0.336,0.247,0.584C53.702,26.02,53.71,26.707,53.707,27.394z"/>
		<path fill="#EA148A" d="M20.092,15.488c-0.001,0.158,0.128,0.231,0.221,0.324c0.946,0.949,1.889,1.901,2.845,2.839
			c0.184,0.181,0.173,0.278-0.004,0.453c-1.067,1.051-2.122,2.113-3.179,3.173c-0.092,0.093-0.221,0.165-0.221,0.324
			c-1.095-1.085-2.188-2.171-3.286-3.253c-0.107-0.106-0.098-0.171,0.004-0.272C17.681,17.882,18.886,16.684,20.092,15.488z"/>
		<path fill="#FEFEFE" d="M36.138,7.442c0.023,0.214-0.066,0.281-0.285,0.277c-0.608-0.013-1.216,0.002-1.824,0.006
			c-2.075,0-4.149,0-6.224,0c-0.54-0.028-0.549-0.028-0.537-0.585c0.007-0.322-0.145-0.752,0.064-0.934
			c0.18-0.158,0.6-0.045,0.914-0.047c0.508-0.003,0.506-0.001,0.508-0.509c0.001-0.291-0.102-0.681,0.044-0.848
			c0.171-0.194,0.57-0.043,0.869-0.064c0.045-0.003,0.09,0,0.135,0c0.493,0,0.493,0,0.518,0.472
			c0.115,0.132,0.085,0.294,0.092,0.447c0.016,0.37,0.034,0.392,0.412,0.396c0.524,0.005,1.049-0.001,1.574,0.004
			c0.582-0.01,0.581-0.01,0.583-0.599c0-0.19-0.011-0.381,0.012-0.57c0.027-0.218,0.124-0.336,0.361-0.23
			c0.36,0.004,0.721,0.016,1.081,0.007c0.163-0.004,0.212,0.044,0.208,0.207c-0.009,0.36,0.004,0.721,0.007,1.081
			c0.031,0.097,0.095,0.161,0.192,0.192c0.36,0.004,0.721,0.016,1.081,0.007c0.163-0.004,0.211,0.045,0.208,0.208
			C36.122,6.72,36.134,7.081,36.138,7.442z"/>
		<path fill="#FEFEFE" d="M53.718,34.988c-0.15-0.365-0.06-0.746-0.059-1.117c0-0.292-0.054-0.408-0.378-0.392
			c-0.364,0.018-0.856,0.169-1.063-0.063c-0.181-0.203-0.053-0.684-0.056-1.042c-0.003-0.441-0.001-0.44,0.443-0.442
			c0.371-0.002,0.742-0.007,1.113-0.011c0.879,0.004,1.757,0.015,2.636,0.006c0.218-0.002,0.29,0.051,0.278,0.276
			c-0.02,0.359-0.013,0.721-0.002,1.081c0.005,0.162-0.042,0.214-0.206,0.208c-0.36-0.012-0.721,0.004-1.081-0.007
			c-0.162-0.005-0.213,0.044-0.208,0.207c0.012,0.36-0.004,0.721,0.007,1.081c0.005,0.163-0.045,0.211-0.207,0.207
			C54.528,34.973,54.123,34.984,53.718,34.988z"/>
		<path fill="#EA148A" d="M33.353,4.657c-0.212-0.021-0.291,0.063-0.276,0.284c0.02,0.302-0.013,0.607,0.011,0.908
			c0.02,0.256-0.064,0.347-0.315,0.31c-0.121-0.018-0.246-0.01-0.369-0.014c-0.296-0.135-0.483-0.397-0.699-0.62
			c-0.271-0.279-0.599-0.507-0.792-0.858c0.366-0.375,0.735-0.747,1.095-1.128c0.111-0.117,0.178-0.079,0.27,0.016
			C32.633,3.926,32.994,4.29,33.353,4.657z"/>
		<path fill="#EA148A" d="M56.011,29.506c-0.041-0.034-0.084-0.066-0.122-0.104c-0.35-0.349-0.695-0.704-1.052-1.046
			c-0.122-0.117-0.106-0.188,0.007-0.296c0.348-0.336,0.69-0.677,1.025-1.025c0.113-0.118,0.184-0.116,0.296,0.001
			c0.335,0.348,0.682,0.685,1.021,1.029c0.045,0.046,0.134,0.074,0.052,0.181c-0.333,0.44-0.752,0.797-1.131,1.191
			C56.086,29.461,56.055,29.476,56.011,29.506z"/>
		<path fill="#AE0F67" d="M30.913,4.667c0.529,0.46,1.013,0.966,1.491,1.478c-0.63,0.004-1.259,0.003-1.889,0.014
			c-0.162,0.003-0.218-0.048-0.209-0.21c0.014-0.247,0.01-0.494,0.014-0.741C30.517,5.028,30.715,4.848,30.913,4.667z"/>
		<path fill="#EA148A" d="M58.471,30.713c-0.077,0.083-0.142,0.157-0.211,0.227c-0.585,0.591-0.578,0.583-1.17,0.011
			c-0.183-0.177-0.205-0.277-0.007-0.467c0.603-0.579,0.594-0.588,1.195,0.023C58.34,30.569,58.398,30.635,58.471,30.713z"/>
		<path fill="#EA148A" d="M34.842,6.145c-0.17,0.041-0.234-0.023-0.192-0.192C34.714,6.017,34.778,6.081,34.842,6.145z"/>
		<path fill="#AE0F67" d="M44.381,45.264c-0.046,0.056-0.083,0.111-0.129,0.157c-0.332,0.335-0.669,0.665-0.998,1.002
			c-0.105,0.107-0.185,0.138-0.304,0.015c-0.336-0.347-0.678-0.688-1.024-1.024c-0.114-0.111-0.119-0.191-0.002-0.304
			c0.346-0.336,0.685-0.681,1.026-1.023c0.076-0.076,0.147-0.144,0.253-0.038c0.364,0.366,0.73,0.73,1.095,1.097
			C44.327,45.175,44.347,45.215,44.381,45.264z"/>
		<path fill="#AE0F67" d="M46.126,44.713c-0.037,0.132-0.148,0.198-0.232,0.283c-0.497,0.503-0.498,0.502-0.987,0.012
			c-0.322-0.323-0.324-0.325,0.004-0.648c0.518-0.512,0.387-0.51,0.908,0.007C45.927,44.474,46.06,44.565,46.126,44.713z"/>
		<path fill="#AE0F67" d="M20.894,17.532c0.136-0.01,0.19,0.07,0.253,0.132c0.32,0.317,0.632,0.643,0.959,0.952
			c0.133,0.125,0.12,0.201-0.005,0.32c-0.342,0.327-0.677,0.661-1.003,1.003c-0.122,0.128-0.198,0.128-0.32,0
			c-0.31-0.327-0.629-0.645-0.955-0.956c-0.159-0.152-0.16-0.267,0-0.418c0.31-0.294,0.606-0.604,0.911-0.904
			C20.789,17.607,20.854,17.564,20.894,17.532z"/>
		<path fill="#AE0F67" d="M19.433,19.386c-0.102,0.078-0.247,0.168-0.367,0.284c-0.431,0.42-0.427,0.423-0.839,0.011
			c-0.366-0.366-0.366-0.366,0.009-0.741c0.437-0.437,0.439-0.439,0.871,0C19.213,19.049,19.355,19.133,19.433,19.386z"/>
	</g>
</g>
</svg>
