<?xml version="1.0" encoding="utf-8"?>
<!-- Generator: Adobe Illustrator 22.0.0, SVG Export Plug-In . SVG Version: 6.00 Build 0)  -->
<svg version="1.1" id="Camada_1" xmlns="http://www.w3.org/2000/svg" xmlns:xlink="http://www.w3.org/1999/xlink" x="0px" y="0px"
	 width="64px" height="64px" viewBox="0 0 64 64" style="enable-background:new 0 0 64 64;" xml:space="preserve">
<g>
	<g>
		<path style="fill:#FFFFFF;" d="M0.175,9.962c0.325,0.157,0.673,0.249,1.012,0.366c4.772,1.641,9.544,3.28,14.317,4.918
			c0.331,0.114,0.662,0.227,0.994,0.336c0.124,0.041,0.229,0.109,0.33,0.191c0.988,0.804,1.978,1.607,2.97,2.406
			c0.085,0.068,0.11,0.12,0.068,0.231c-2.157,5.731-4.31,11.464-6.463,17.196c-1.008,2.683-2.016,5.366-3.024,8.05
			c-0.014,0.038-0.027,0.077-0.052,0.149c17.87-3.92,35.718-7.836,53.585-11.756c-0.024,0.076-0.073,0.077-0.11,0.09
			c-4.585,1.575-9.17,3.148-13.755,4.723c-4.882,1.677-9.764,3.355-14.646,5.032c-4.128,1.417-8.256,2.833-12.384,4.25
			c-4.199,1.442-8.399,2.884-12.598,4.326c-3.45,1.185-6.899,2.37-10.349,3.554C0.046,54.03,0.023,54.033,0,54.038
			c0-0.023,0-0.047,0-0.07c0.048-0.04,0.052-0.101,0.072-0.154c0.832-2.214,1.663-4.428,2.495-6.641
			c3.407-9.075,6.814-18.149,10.225-27.223c0.044-0.116,0.023-0.166-0.071-0.238c-1.707-1.307-3.41-2.618-5.115-3.928
			c-2.473-1.901-4.947-3.802-7.419-5.704c-0.035-0.027-0.116-0.037-0.082-0.117C0.129,9.962,0.152,9.962,0.175,9.962z"/>
		<path style="fill:#D71E31;" d="M62.901,31.556c-12.34,2.044-24.681,4.089-37.049,6.138c0.106-0.29,0.202-0.555,0.301-0.82
			c1.963-5.25,3.927-10.5,5.886-15.752c0.058-0.154,0.111-0.164,0.257-0.114c5.664,1.949,11.331,3.892,16.996,5.837
			c4.496,1.544,8.992,3.089,13.487,4.633c0.041,0.014,0.082,0.031,0.122,0.047C62.901,31.536,62.901,31.546,62.901,31.556z
			 M32.855,32.464c0.524-0.041,1.048-0.077,1.571-0.123c1.524-0.133,3.048-0.272,4.573-0.406c1.396-0.123,2.793-0.241,4.189-0.364
			c1.658-0.146,3.316-0.296,4.974-0.442c1.536-0.135,3.073-0.264,4.608-0.403c0.189-0.017,0.385-0.007,0.595-0.076
			c-0.082-0.024-0.137-0.04-0.192-0.056c-5.895-1.702-11.791-3.403-17.685-5.107c-0.128-0.037-0.178-0.013-0.223,0.115
			c-0.377,1.067-0.762,2.13-1.143,3.195c-0.434,1.214-0.865,2.428-1.297,3.642c0.002,0.014,0.003,0.029,0.005,0.043
			C32.838,32.476,32.846,32.47,32.855,32.464z"/>
		<path style="fill:#D71E31;" d="M15.717,39.324c0.201-0.535,0.401-1.07,0.602-1.604c2.011-5.357,4.023-10.713,6.034-16.07
			c0.271-0.721,0.537-1.443,0.814-2.161c0.046-0.121,0.024-0.184-0.073-0.262c-0.993-0.798-1.982-1.601-2.972-2.403
			c-0.027-0.022-0.051-0.045-0.082-0.072c0.071-0.037,0.121,0.009,0.169,0.026c3.031,1.067,6.061,2.137,9.093,3.202
			c0.121,0.042,0.146,0.081,0.099,0.206c-2.246,5.966-4.488,11.934-6.728,17.902c-0.04,0.106-0.09,0.152-0.206,0.17
			c-1.781,0.285-3.561,0.577-5.342,0.868c-0.403,0.066-0.806,0.135-1.21,0.199C15.856,39.335,15.792,39.358,15.717,39.324z"/>
		<path d="M64,32.048c-0.005,0.008-0.011,0.022-0.015,0.021c-0.015-0.002-0.03-0.009-0.044-0.014
			c0.009-0.006,0.018-0.015,0.029-0.017C63.979,32.037,63.989,32.044,64,32.048z"/>
		<path style="fill:#FEFDFE;" d="M32.855,32.464c-0.008,0.006-0.017,0.011-0.025,0.017c-0.002-0.014-0.003-0.029-0.005-0.043
			C32.835,32.447,32.845,32.456,32.855,32.464z"/>
	</g>
</g>
</svg>
