<?xml version="1.0" encoding="utf-8"?>
<!-- Generator: Adobe Illustrator 16.0.0, SVG Export Plug-In . SVG Version: 6.00 Build 0)  -->
<!DOCTYPE svg PUBLIC "-//W3C//DTD SVG 1.1//EN" "http://www.w3.org/Graphics/SVG/1.1/DTD/svg11.dtd">
<svg version="1.1" id="Layer_1" xmlns="http://www.w3.org/2000/svg" xmlns:xlink="http://www.w3.org/1999/xlink" x="0px" y="0px"
	 width="32px" height="13px" viewBox="290 389.5 32 13" enable-background="new 290 389.5 32 13" xml:space="preserve">
<circle fill="#1F1F22" cx="306" cy="396" r="6.5"/>
<path fill="#CDCDCD" fill-opacity="0.1" d="M308.538,398.961c1.636-1.401,1.825-3.863,0.424-5.499
	c-1.402-1.635-3.864-1.825-5.5-0.423c-1.636,1.401-1.825,3.863-0.423,5.499c0.13,0.151,0.271,0.293,0.423,0.423l-0.847,0.987
	c-1.154-0.987-1.817-2.43-1.816-3.948c0-2.872,2.328-5.2,5.2-5.2s5.2,2.328,5.2,5.2c0.002,1.519-0.662,2.962-1.815,3.949
	L308.538,398.961L308.538,398.961z"/>
<path fill="#FFC800" d="M309.214,393.79c-1.221-1.774-3.649-2.223-5.423-1.001c-1.774,1.221-2.223,3.65-1.001,5.424
	c0.191,0.277,0.417,0.528,0.673,0.748l-0.846,0.988c-1.154-0.987-1.817-2.431-1.816-3.949c-0.001-2.872,2.327-5.201,5.199-5.202
	c1.713,0,3.317,0.843,4.288,2.255L309.214,393.79L309.214,393.79z"/>
<path fill="#FFC800" d="M306.296,394.866h-1.434v-0.519h2.167v0.455l-1.134,2.498h-0.737L306.296,394.866L306.296,394.866z"/>
</svg>
