<?xml version="1.0" encoding="utf-8"?>
<!-- Generator: Adobe Illustrator 16.0.0, SVG Export Plug-In . SVG Version: 6.00 Build 0)  -->
<!DOCTYPE svg PUBLIC "-//W3C//DTD SVG 1.1//EN" "http://www.w3.org/Graphics/SVG/1.1/DTD/svg11.dtd">
<svg version="1.1" id="Layer_1" xmlns="http://www.w3.org/2000/svg" xmlns:xlink="http://www.w3.org/1999/xlink" x="0px" y="0px"
	 width="32px" height="13px" viewBox="290 389.5 32 13" enable-background="new 290 389.5 32 13" xml:space="preserve">
<circle fill="#1F1F22" cx="306" cy="396" r="6.5"/>
<path fill="#CDCDCD" fill-opacity="0.1" d="M308.538,398.961c1.636-1.401,1.825-3.863,0.424-5.499
	c-1.402-1.635-3.864-1.825-5.5-0.423c-1.636,1.401-1.825,3.863-0.423,5.499c0.13,0.151,0.271,0.293,0.423,0.423l-0.847,0.987
	c-1.154-0.987-1.817-2.43-1.816-3.948c0-2.872,2.328-5.2,5.2-5.2s5.2,2.328,5.2,5.2c0.002,1.519-0.662,2.962-1.815,3.949
	L308.538,398.961L308.538,398.961z"/>
<path fill="#FE1F00" d="M308.538,398.961c1.636-1.401,1.825-3.863,0.424-5.499c-1.402-1.635-3.864-1.825-5.5-0.423
	c-1.636,1.401-1.825,3.863-0.423,5.499c0.13,0.151,0.271,0.293,0.423,0.423l-0.847,0.987c-1.154-0.987-1.817-2.43-1.816-3.948
	c0-2.872,2.328-5.2,5.2-5.2s5.2,2.328,5.2,5.2c0.002,1.519-0.662,2.962-1.815,3.949L308.538,398.961L308.538,398.961z"/>
<path fill="#FE1F00" d="M304.501,395.043l-0.805,0.446v-0.56l0.933-0.583h0.537v2.953h-0.664V395.043z M306.99,397.346
	c-0.134,0-0.243-0.005-0.327-0.014c-0.094-0.011-0.187-0.029-0.278-0.055c-0.092-0.024-0.177-0.067-0.25-0.127
	c-0.071-0.069-0.125-0.153-0.159-0.246c-0.048-0.118-0.072-0.246-0.068-0.373v-1.415c0-0.14,0.022-0.263,0.064-0.369
	c0.035-0.095,0.091-0.181,0.164-0.25c0.058-0.052,0.137-0.092,0.237-0.123c0.097-0.033,0.198-0.054,0.3-0.064
	c0.115-0.006,0.222-0.009,0.318-0.009c0.137,0,0.246,0.005,0.328,0.014c0.092,0.008,0.184,0.027,0.272,0.055
	c0.109,0.034,0.195,0.078,0.26,0.132c0.063,0.054,0.118,0.133,0.163,0.236c0.046,0.103,0.068,0.229,0.068,0.378v1.415
	c0,0.14-0.022,0.263-0.068,0.368c-0.034,0.094-0.09,0.178-0.163,0.246c-0.074,0.058-0.159,0.102-0.251,0.127
	c-0.103,0.033-0.201,0.053-0.295,0.06C307.2,397.342,307.095,397.347,306.99,397.346z M306.999,396.918
	c0.128,0,0.219-0.008,0.273-0.023c0.049-0.013,0.09-0.048,0.109-0.095c0.018-0.046,0.027-0.12,0.027-0.224v-1.506
	c0-0.103-0.01-0.178-0.027-0.223c-0.02-0.046-0.061-0.081-0.109-0.091c-0.055-0.018-0.146-0.027-0.273-0.027
	c-0.13,0-0.224,0.009-0.281,0.027c-0.049,0.01-0.09,0.044-0.109,0.091c-0.019,0.045-0.027,0.12-0.027,0.223v1.506
	c0,0.104,0.009,0.178,0.027,0.224c0.018,0.045,0.054,0.077,0.108,0.095C306.775,396.91,306.869,396.918,306.999,396.918z"/>
</svg>
