<?xml version="1.0" encoding="utf-8"?>
<!-- Generator: Adobe Illustrator 16.0.0, SVG Export Plug-In . SVG Version: 6.00 Build 0)  -->
<!DOCTYPE svg PUBLIC "-//W3C//DTD SVG 1.1//EN" "http://www.w3.org/Graphics/SVG/1.1/DTD/svg11.dtd">
<svg version="1.1" id="Layer_1" xmlns="http://www.w3.org/2000/svg" xmlns:xlink="http://www.w3.org/1999/xlink" x="0px" y="0px"
	 width="32px" height="13px" viewBox="290 389.5 32 13" enable-background="new 290 389.5 32 13" xml:space="preserve">
<circle fill="#1F1F22" cx="306" cy="396" r="6.5"/>
<path fill="#CDCDCD" fill-opacity="0.1" d="M308.538,398.961c1.636-1.401,1.825-3.863,0.424-5.499
	c-1.402-1.635-3.864-1.825-5.5-0.423c-1.636,1.401-1.825,3.863-0.423,5.499c0.13,0.151,0.271,0.293,0.423,0.423l-0.847,0.987
	c-1.154-0.987-1.817-2.43-1.816-3.948c0-2.872,2.328-5.2,5.2-5.2s5.2,2.328,5.2,5.2c0.002,1.519-0.662,2.962-1.815,3.949
	L308.538,398.961L308.538,398.961z"/>
<path fill="#FFC800" d="M303.243,393.243l-0.92-0.92c-0.977,0.974-1.525,2.298-1.523,3.677c-0.001,1.519,0.662,2.961,1.816,3.948
	l0.846-0.987c-0.865-0.74-1.363-1.822-1.361-2.961C302.101,394.923,302.537,393.948,303.243,393.243L303.243,393.243z"/>
<path fill="#FFC800" d="M306.164,396.704h-1.365v-0.524l1.215-1.833h0.75v1.88h0.318v0.477h-0.318v0.597h-0.601V396.704
	L306.164,396.704z M306.164,396.226v-1.251l-0.796,1.251H306.164z"/>
</svg>
